<?xml version="1.0" encoding="UTF-8"?>
<!-- Generator: visioncortex VTracer 0.6.5 -->
<svg version="1.1" xmlns="http://www.w3.org/2000/svg" width="150" height="84">
<path d="M0,0 L150,0 L150,84 L0,84 Z " fill="#57636B" transform="translate(0,0)"/>
<path d="M0,0 L7,1 L16,1 L21,0 L21,27 L-97,27 L-97,24 L-99,24 L-99,22 L-103,22 L-108,17 L-110,15 L-110,12 L-112,12 L-114,6 L-110,3 L-98,2 L-95,1 L-56,1 L-52,2 L-41,2 L-38,1 L-5,1 Z " fill="#717D85" transform="translate(129,57)"/>
<path d="M0,0 L37,0 L35,1 L34,5 L32,5 L31,8 L28,8 L28,10 L24,12 L19,12 L18,16 L13,19 L7,21 L2,24 L2,27 L7,28 L7,24 L10,25 L9,36 L7,38 L2,40 L0,44 Z " fill="#222C32" transform="translate(0,0)"/>
<path d="M0,0 L7,1 L12,4 L17,5 L17,7 L19,7 L22,12 L26,15 L26,17 L30,17 L30,19 L32,19 L32,22 L0,22 Z " fill="#010908" transform="translate(0,62)"/>
<path d="M0,0 L12,0 L17,6 L24,7 L23,10 L7,13 L7,15 L7,19 L0,22 Z " fill="#070E0D" transform="translate(0,0)"/>
<path d="M0,0 L5,0 L5,3 L7,3 L10,9 L10,11 L14,10 L15,8 L20,10 L22,9 L23,13 L36,13 L39,10 L43,6 L45,8 L43,13 L41,13 L41,17 L15,17 L15,14 L13,14 L13,12 L9,12 L4,7 L2,5 L2,2 L0,2 Z M22,5 L26,6 L23,9 Z " fill="#67737A" transform="translate(17,67)"/>
<path d="M0,0 Z M-97,1 L-56,1 L-52,2 L-41,2 L-38,1 L0,1 L-3,2 L-4,5 L-34,4 L-51,5 L-55,4 L-82,4 L-108,5 L-104,3 Z " fill="#626E75" transform="translate(129,57)"/>
<path d="M0,0 L7,0 L7,9 L-18,9 L-17,7 L-12,5 Z " fill="#0D171E" transform="translate(143,75)"/>
<path d="M0,0 L1,4 L2,6 L4,6 L5,4 L10,4 L10,7 L-2,12 L-8,15 L-24,15 L-19,10 L-16,10 L-13,10 L-3,11 L-3,9 L1,9 L0,7 L-4,6 L-4,2 Z " fill="#505B63" transform="translate(133,69)"/>
<path d="M0,0 L7,1 L12,4 L17,5 L17,7 L19,7 L22,12 L26,15 L26,17 L30,17 L30,19 L32,19 L32,22 L25,22 L23,16 L17,13 L16,9 L14,9 L13,7 L9,6 L9,3 L0,4 Z " fill="#141F23" transform="translate(0,62)"/>
<path d="M0,0 L15,0 L15,9 L13,8 L13,6 L8,6 L8,13 L6,13 L6,5 L1,4 Z " fill="#232D34" transform="translate(135,0)"/>
<path d="M0,0 L5,0 L5,3 L7,3 L10,9 L10,11 L14,10 L15,8 L19,9 L21,15 L20,17 L15,17 L15,14 L13,14 L13,12 L9,12 L4,7 L2,5 L2,2 L0,2 Z " fill="#5C686F" transform="translate(17,67)"/>
<path d="M0,0 L1,0 L1,8 L3,8 L3,1 L8,1 L10,4 L10,13 L7,13 L7,7 L5,7 L4,10 L0,9 L0,11 L-3,11 L-3,7 L-1,6 Z " fill="#434E55" transform="translate(140,5)"/>
<path d="M0,0 Z M-1,1 Z M-8,2 L-6,3 L-1,2 L-4,5 L-7,7 L-5,9 L-5,13 L-3,14 L-7,13 L-13,10 L-18,9 L-18,7 L-15,7 L-15,5 L-10,5 L-10,3 Z M-8,4 Z " fill="#364047" transform="translate(18,53)"/>
<path d="M0,0 L8,0 L9,6 L7,8 L2,10 L0,14 Z " fill="#1D272F" transform="translate(0,30)"/>
<path d="M0,0 L14,0 L13,5 L5,7 L0,2 Z " fill="#1B2626" transform="translate(12,0)"/>
<path d="M0,0 L1,4 L2,6 L4,6 L5,4 L10,4 L10,7 L2,10 L-3,10 L1,9 L0,7 L-4,6 L-4,2 Z " fill="#606B73" transform="translate(133,69)"/>
<path d="M0,0 L4,1 L0,3 L2,7 L-6,11 L-6,3 Z " fill="#0B1517" transform="translate(6,11)"/>
<path d="M0,0 L6,0 L8,3 L8,6 L-3,6 L-2,3 L0,3 Z " fill="#616C74" transform="translate(98,78)"/>
<path d="M0,0 L5,0 L5,3 L7,3 L11,12 L9,12 L4,7 L2,5 L2,2 L0,2 Z " fill="#465057" transform="translate(17,67)"/>
<path d="M0,0 L8,0 L8,7 L7,5 L1,4 Z " fill="#0A1418" transform="translate(142,0)"/>
<path d="M0,0 L1,0 L1,11 L-4,11 L-4,9 L0,9 L-3,7 L-3,3 L-1,3 Z " fill="#455058" transform="translate(149,64)"/>
<path d="M0,0 Z M-1,1 Z M-3,2 L-1,3 L-7,7 L-7,4 Z M-9,7 L-5,9 L-5,13 L-3,14 L-7,13 L-9,11 Z " fill="#454F57" transform="translate(18,53)"/>
<path d="M0,0 L1,0 L1,8 L3,8 L3,1 L4,1 L4,10 L0,9 L0,11 L-3,11 L-3,7 L-1,6 Z " fill="#2D373F" transform="translate(140,5)"/>
<path d="M0,0 L5,2 L15,4 L15,5 L6,5 L-2,3 Z M15,3 Z " fill="#4D585F" transform="translate(130,54)"/>
<path d="M0,0 L3,3 L3,6 L-6,6 L-1,1 Z " fill="#5B666E" transform="translate(115,78)"/>
<path d="M0,0 L6,0 L5,5 L0,6 Z " fill="#4A545C" transform="translate(20,0)"/>
<path d="M0,0 L3,0 L3,2 L1,3 L0,6 L-8,10 L-9,8 L-6,7 L-3,4 L-2,1 Z " fill="#414B52" transform="translate(37,0)"/>
<path d="M0,0 L2,1 L0,2 Z M-1,2 L2,3 L2,5 L5,6 L2,7 L2,9 L-3,9 L-3,5 L-1,5 Z " fill="#79858C" transform="translate(61,75)"/>
<path d="M0,0 L3,1 L-3,5 L-9,7 L-11,8 L-9,4 L-3,2 L0,2 Z " fill="#384248" transform="translate(16,14)"/>
<path d="M0,0 L7,0 L7,3 L1,6 L0,5 Z " fill="#131D25" transform="translate(27,0)"/>
<path d="M0,0 L8,0 L10,1 L10,3 L0,3 Z " fill="#172221" transform="translate(13,81)"/>
<path d="M0,0 L5,0 L3,1 L3,3 L9,3 L6,5 L1,5 L-2,2 Z " fill="#1E282D" transform="translate(7,12)"/>
<path d="M0,0 L2,1 L-3,6 L-10,6 L-9,4 L-4,2 Z " fill="#222C34" transform="translate(135,78)"/>
<path d="M0,0 L7,0 L7,3 L1,4 Z " fill="#18222A" transform="translate(135,0)"/>
<path d="M0,0 L3,0 L5,4 L4,5 L-4,5 L-1,3 Z " fill="#535E66" transform="translate(99,79)"/>
<path d="M0,0 L7,0 L7,2 L2,3 L-6,3 L-2,1 Z " fill="#273139" transform="translate(143,75)"/>
<path d="M0,0 L3,1 L-2,7 L-4,7 L-4,9 L-6,8 L-5,6 L-3,6 L-2,2 L0,2 Z " fill="#69747B" transform="translate(40,0)"/>
<path d="M0,0 L3,0 L2,8 L-1,10 Z " fill="#48525A" transform="translate(137,16)"/>
<path d="M0,0 L3,1 L2,8 L1,6 L-4,5 L0,4 Z " fill="#303944" transform="translate(7,24)"/>
<path d="M0,0 L3,0 L3,6 L0,6 L0,3 L-2,2 Z " fill="#48535B" transform="translate(32,78)"/>
<path d="M0,0 L5,0 L5,3 L-3,5 Z " fill="#535D65" transform="translate(138,73)"/>
<path d="M0,0 L8,0 L8,3 L3,3 Z " fill="#79858C" transform="translate(113,75)"/>
<path d="M0,0 L0,3 L-3,3 L-3,5 L-7,7 L-10,6 L-5,2 Z " fill="#2C363C" transform="translate(31,5)"/>
<path d="M0,0 L2,0 L2,2 L8,2 L8,3 L-4,3 L-3,1 Z " fill="#4C575E" transform="translate(108,55)"/>
<path d="M0,0 L5,0 L4,4 L0,3 Z " fill="#000A08" transform="translate(145,0)"/>
<path d="M0,0 L4,1 L4,3 L-4,3 Z " fill="#606C73" transform="translate(117,72)"/>
<path d="M0,0 L6,0 L6,2 L8,3 L2,3 L2,1 Z " fill="#606C73" transform="translate(61,81)"/>
<path d="M0,0 L1,4 L-4,5 Z " fill="#131D24" transform="translate(136,79)"/>
<path d="M0,0 L5,0 L6,4 L1,2 Z " fill="#3B454D" transform="translate(130,0)"/>
<path d="M0,0 L4,1 L5,3 L0,4 Z " fill="#0E191A" transform="translate(0,62)"/>
<path d="M0,0 L5,0 L5,2 L1,3 Z M0,3 Z " fill="#454F54" transform="translate(19,12)"/>
<path d="M0,0 L1,0 L1,5 L-2,5 L-2,1 Z " fill="#374149" transform="translate(139,11)"/>
<path d="M0,0 L4,0 L4,2 L2,2 L1,5 Z " fill="#222C2F" transform="translate(16,0)"/>
<path d="M0,0 L3,3 L2,6 L0,6 Z " fill="#566169" transform="translate(35,78)"/>
<path d="M0,0 L1,0 L1,5 L-2,5 L-1,1 Z " fill="#2F3941" transform="translate(149,13)"/>
<path d="M0,0 L3,1 L3,3 L-2,3 L-2,1 Z " fill="#323C40" transform="translate(12,12)"/>
<path d="M0,0 L4,2 L3,5 L0,1 Z " fill="#172226" transform="translate(22,75)"/>
<path d="M0,0 L4,1 L3,3 L0,3 Z " fill="#5E6A71" transform="translate(39,72)"/>
<path d="M0,0 L2,0 L3,4 L0,3 Z " fill="#59646B" transform="translate(22,70)"/>
<path d="M0,0 L3,0 L3,3 L0,2 Z " fill="#616D74" transform="translate(102,71)"/>
<path d="M0,0 L2,1 L2,3 L-1,3 Z " fill="#47525A" transform="translate(119,81)"/>
</svg>
