<?xml version="1.0" encoding="UTF-8"?>
<!-- Generator: visioncortex VTracer 0.6.5 -->
<svg version="1.1" xmlns="http://www.w3.org/2000/svg" width="150" height="84">
<path d="M0,0 L150,0 L150,84 L0,84 Z " fill="#54616A" transform="translate(0,0)"/>
<path d="M0,0 L16,1 L21,0 L50,1 L58,2 L58,4 L67,5 L67,7 L74,6 L77,3 L87,1 L90,0 L95,0 L95,3 L107,2 L109,4 L107,8 L108,11 L110,12 L111,9 L112,9 L112,23 L-38,23 L-38,9 L-29,1 L-25,1 L-25,4 L-22,5 L-22,9 L-20,9 L-20,11 L1,12 Z " fill="#6B7881" transform="translate(38,61)"/>
<path d="M0,0 L26,0 L26,7 L23,8 L24,18 L23,25 L19,31 L19,34 L23,34 L25,40 L30,39 L33,36 L35,36 L35,34 L43,34 L44,31 L51,31 L53,34 L53,39 L51,41 L41,43 L40,44 L51,46 L51,48 L53,49 L49,50 L48,54 L52,55 L52,57 L54,57 L55,61 L54,63 L38,61 L39,63 L39,73 L24,73 L18,72 L18,70 L16,70 L15,66 L13,65 L13,62 L8,64 L0,70 Z M27,41 Z " fill="#2F393F" transform="translate(0,0)"/>
<path d="M0,0 L7,0 L7,3 L19,2 L21,4 L19,8 L20,11 L22,12 L23,9 L24,9 L24,23 L-33,23 L-34,17 L-29,15 L-35,14 L-34,10 L-27,9 L-23,8 L-23,5 L-21,5 L-21,7 L-14,6 L-11,3 L-1,1 Z " fill="#646F77" transform="translate(126,61)"/>
<path d="M0,0 L2,0 L3,9 L14,8 L15,5 L21,6 L27,9 L27,13 L32,14 L28,15 L16,13 L17,15 L17,25 L2,25 L-4,24 L-4,22 L-6,22 L-7,18 L-9,17 L-9,14 L-14,16 L-22,22 L-22,9 L-10,8 L-5,3 Z M2,2 Z " fill="#404B51" transform="translate(22,48)"/>
<path d="M0,0 L24,0 L24,6 L19,11 L17,11 L17,15 L19,15 L21,21 L18,23 L14,22 L13,23 L0,23 Z " fill="#0F1822" transform="translate(0,0)"/>
<path d="M0,0 L7,0 L9,3 L9,8 L7,10 L-3,12 L-4,13 L7,15 L7,17 L9,18 L5,19 L4,23 L8,24 L8,26 L10,26 L11,30 L7,31 L5,30 L4,26 L-3,23 L-7,23 L-10,26 L-19,26 L-20,23 L-14,23 L-14,17 L-8,17 L-9,15 L-16,14 L-16,12 L-20,10 L-21,7 L-23,7 L-24,4 L-21,3 L-19,9 L-14,8 L-11,5 L-9,5 L-9,3 L-1,3 Z M-17,10 Z " fill="#333E45" transform="translate(44,31)"/>
<path d="M0,0 L44,0 L44,5 L35,7 L34,8 L14,9 L5,10 L-3,9 L-3,5 L-1,5 Z " fill="#030C0F" transform="translate(106,0)"/>
<path d="M0,0 L18,0 L18,8 L15,9 L4,9 L4,11 L-13,11 L-18,7 L-26,7 L-29,9 L-34,9 L-33,4 L-36,3 L-29,3 L-13,5 L-13,1 Z " fill="#2A363F" transform="translate(132,38)"/>
<path d="M0,0 L1,0 L1,5 L-1,7 L-11,9 L-12,10 L-1,12 L-1,14 L1,15 L-3,16 L-4,20 L0,21 L0,23 L2,23 L3,27 L-1,28 L-3,27 L-4,23 L-11,20 L-15,20 L-18,23 L-27,23 L-27,22 L-22,21 L-21,15 L-15,15 L-13,13 L-15,11 L-15,7 L-7,7 L-7,4 L0,4 Z " fill="#39434A" transform="translate(52,34)"/>
<path d="M0,0 L6,0 L5,5 L3,6 L3,8 L15,9 L20,8 L40,7 L43,5 L50,5 L50,6 L43,8 L40,10 L34,10 L33,13 L31,13 L31,11 L27,11 L27,15 L21,15 L21,11 L19,12 L1,11 L-2,8 L-1,3 Z " fill="#39474C" transform="translate(100,0)"/>
<path d="M0,0 L5,1 L8,3 L8,5 L15,5 L16,8 L10,8 L10,14 L5,14 L4,10 L4,8 L-3,9 L-3,11 L-7,9 L-3,7 L0,5 Z M3,10 Z " fill="#2B353B" transform="translate(20,40)"/>
<path d="M0,0 L15,0 L15,5 L6,7 L0,7 L0,5 L-4,6 L-11,6 L-11,4 L-8,4 L-8,2 Z " fill="#343E48" transform="translate(45,0)"/>
<path d="M0,0 L7,1 L11,3 L11,7 L16,8 L12,9 L0,7 L1,9 L1,19 L-8,19 L-7,17 L-2,16 L-2,3 Z " fill="#4B565D" transform="translate(38,54)"/>
<path d="M0,0 L2,0 L2,6 L-3,11 L-5,11 L-5,15 L-3,15 L-1,21 L-4,23 L-8,22 L-9,23 L-22,23 L-22,21 L-9,20 L-8,12 L-6,12 L-6,10 L-1,6 Z " fill="#1A232D" transform="translate(22,0)"/>
<path d="M0,0 L13,0 L13,5 L-10,5 L-13,2 Z " fill="#050E18" transform="translate(137,39)"/>
<path d="M0,0 L5,0 L5,2 L-4,4 L-5,5 L-25,6 L-34,7 L-40,6 L-37,4 L-30,3 L-5,2 Z " fill="#182428" transform="translate(145,3)"/>
<path d="M0,0 L6,0 L7,1 L14,2 L15,7 L13,7 L13,4 L8,6 L0,12 Z " fill="#4A555F" transform="translate(0,58)"/>
<path d="M0,0 L13,0 L13,1 L2,1 L2,6 L-3,7 L-5,6 L-13,6 L-16,8 L-21,8 L-20,3 L-23,2 L-16,2 L0,4 Z " fill="#3F4C56" transform="translate(119,39)"/>
<path d="M0,0 L7,3 L5,8 L1,11 L-7,10 L-5,8 L-3,9 L-3,1 Z " fill="#4E5862" transform="translate(92,51)"/>
<path d="M0,0 L4,2 L5,6 L4,8 L0,10 L-4,10 L-4,8 L-10,8 L-11,5 L-1,5 Z " fill="#27313A" transform="translate(109,57)"/>
<path d="M0,0 L6,0 L6,2 L10,4 L10,7 L-2,7 L-2,2 Z " fill="#515C64" transform="translate(131,77)"/>
<path d="M0,0 L17,0 L16,4 L0,4 Z " fill="#202A34" transform="translate(0,0)"/>
<path d="M0,0 L7,0 L11,2 L11,4 L1,4 L2,6 L8,7 L8,8 L1,8 L-1,7 L-1,5 L-9,5 L-9,4 L-2,2 Z " fill="#5D6771" transform="translate(97,58)"/>
<path d="M0,0 L5,2 L28,3 L28,5 L25,6 L14,6 L13,5 L0,4 Z " fill="#1E2B35" transform="translate(122,41)"/>
<path d="M0,0 L7,0 L7,4 L0,4 L0,6 L-9,6 L-7,2 L0,2 Z " fill="#1B252F" transform="translate(45,34)"/>
<path d="M0,0 L13,0 L15,1 L15,4 L0,4 Z " fill="#47545D" transform="translate(45,80)"/>
<path d="M0,0 L10,0 L10,9 L8,12 L5,11 L4,6 L6,4 L5,1 L0,1 Z " fill="#545F68" transform="translate(140,61)"/>
<path d="M0,0 L2,0 L2,6 L-3,11 L-5,11 L-5,17 L-8,19 L-9,15 L-8,12 L-6,12 L-6,10 L-1,6 Z " fill="#232D37" transform="translate(22,0)"/>
<path d="M0,0 L11,0 L11,4 L-1,4 Z " fill="#5D6B74" transform="translate(92,71)"/>
<path d="M0,0 L14,0 L14,1 L6,1 L5,5 L1,6 L-3,4 L-4,1 Z " fill="#4D585F" transform="translate(120,57)"/>
<path d="M0,0 L7,0 L8,3 L1,3 L1,5 L-9,5 L-9,3 L-1,3 Z " fill="#3F4953" transform="translate(44,31)"/>
<path d="M0,0 L2,0 L2,2 L4,2 L2,6 L0,9 L-2,9 L-2,7 L-4,7 L-3,2 Z " fill="#758285" transform="translate(126,61)"/>
<path d="M0,0 L2,0 L2,7 L-1,8 L0,18 L-2,20 L-2,15 L-4,15 L-4,10 L-1,6 Z " fill="#3A444E" transform="translate(24,0)"/>
<path d="M0,0 L8,0 L7,4 L2,8 L0,4 Z " fill="#8A9DA5" transform="translate(92,0)"/>
<path d="M0,0 L2,0 L2,2 L7,2 L8,5 L6,7 L1,6 L0,4 L-3,2 Z " fill="#2D3741" transform="translate(81,41)"/>
<path d="M0,0 L2,2 L2,12 L-7,12 L-6,10 L-1,9 Z " fill="#5A666E" transform="translate(37,61)"/>
<path d="M0,0 L7,1 L7,3 L9,3 L9,5 L13,6 L2,5 L4,4 L4,2 L-2,3 L-4,1 Z " fill="#48555F" transform="translate(90,35)"/>
<path d="M0,0 L7,0 L7,2 L10,3 L7,6 L2,6 L3,1 Z " fill="#2B3641" transform="translate(96,41)"/>
<path d="M0,0 L4,2 L0,4 L-5,3 L-5,8 L-6,8 L-6,2 L0,2 Z M-12,8 L-6,8 L-5,10 L-11,10 Z " fill="#2E383E" transform="translate(36,46)"/>
<path d="M0,0 L6,0 L7,3 L0,3 L-7,5 L-7,1 L-4,2 Z " fill="#05141D" transform="translate(110,4)"/>
<path d="M0,0 L15,0 L14,3 L0,2 Z " fill="#313A45" transform="translate(0,0)"/>
<path d="M0,0 L11,0 L11,1 L5,1 L5,3 L2,3 L2,5 L7,5 L7,6 L1,6 L0,5 Z " fill="#4A535E" transform="translate(32,1)"/>
<path d="M0,0 L2,0 L1,8 L-3,7 L-3,2 Z " fill="#212B31" transform="translate(29,46)"/>
<path d="M0,0 L5,1 L4,5 L-1,5 Z " fill="#64737B" transform="translate(66,79)"/>
<path d="M0,0 L4,2 L5,6 L4,8 L1,7 L3,4 L-1,5 Z " fill="#333E44" transform="translate(109,57)"/>
<path d="M0,0 L7,3 L3,5 L-2,5 L-3,1 Z " fill="#36404A" transform="translate(92,51)"/>
<path d="M0,0 L6,0 L6,4 L-1,4 Z " fill="#0F1A24" transform="translate(54,0)"/>
<path d="M0,0 L4,1 L6,2 L6,5 L0,6 Z " fill="#242F32" transform="translate(0,41)"/>
<path d="M0,0 L7,0 L3,2 L-3,6 L-1,2 Z M-6,6 L-3,7 L-6,9 Z " fill="#555F6B" transform="translate(6,61)"/>
<path d="M0,0 L3,0 L3,4 L-2,6 L-4,4 Z " fill="#656E7A" transform="translate(10,62)"/>
<path d="M0,0 L12,1 L13,4 L10,4 L10,2 L4,4 Z " fill="#62737B" transform="translate(99,10)"/>
<path d="M0,0 L4,1 L0,4 L-5,4 L-7,1 Z " fill="#68767F" transform="translate(51,6)"/>
<path d="M0,0 L4,0 L3,4 L2,6 L-1,5 Z " fill="#434E57" transform="translate(146,67)"/>
<path d="M0,0 L1,4 L-3,9 L-2,2 Z M-4,9 Z M-5,10 L-4,12 L-6,11 Z " fill="#414B55" transform="translate(22,21)"/>
<path d="M0,0 L8,0 L4,1 L4,3 L-3,3 L-3,1 Z " fill="#212B35" transform="translate(37,3)"/>
<path d="M0,0 L4,1 L2,6 L-1,5 Z " fill="#7A8788" transform="translate(115,65)"/>
<path d="M0,0 L5,2 L6,7 L4,8 L4,3 L0,4 Z " fill="#414D57" transform="translate(72,36)"/>
<path d="M0,0 L2,0 L4,6 L7,7 L5,9 L2,6 L2,4 L0,4 L-1,1 Z " fill="#3C464D" transform="translate(21,34)"/>
<path d="M0,0 L4,0 L4,2 L6,2 L6,4 L0,4 Z " fill="#47515C" transform="translate(0,80)"/>
<path d="M0,0 L2,0 L2,2 L6,3 L6,7 L3,7 L0,2 Z " fill="#39444B" transform="translate(24,65)"/>
<path d="M0,0 L3,0 L2,3 L-1,3 L-1,5 L-5,3 L-1,1 Z " fill="#172227" transform="translate(18,46)"/>
<path d="M0,0 L7,0 L7,3 L2,3 Z " fill="#43535B" transform="translate(53,81)"/>
<path d="M0,0 L1,3 L-4,6 L-8,4 L-3,2 L0,2 Z " fill="#4F5B62" transform="translate(113,63)"/>
<path d="M0,0 L2,0 L1,4 L-4,8 L-5,5 L-1,4 Z " fill="#697B83" transform="translate(98,0)"/>
<path d="M0,0 L2,0 L2,2 L9,3 L5,4 L-1,3 Z " fill="#59666D" transform="translate(39,58)"/>
<path d="M0,0 L5,0 L6,3 L0,3 Z " fill="#222C33" transform="translate(0,35)"/>
<path d="M0,0 L1,3 L2,8 L0,10 L0,5 L-2,5 L-1,1 Z " fill="#434D57" transform="translate(22,10)"/>
<path d="M0,0 L2,0 L4,6 L1,6 Z " fill="#5D6872" transform="translate(92,78)"/>
<path d="M0,0 L2,3 L0,5 L-3,5 L-2,1 Z " fill="#29343E" transform="translate(87,43)"/>
<path d="M0,0 L2,1 L2,3 L4,5 L-2,4 L-2,1 Z " fill="#24333D" transform="translate(101,5)"/>
<path d="M0,0 L6,0 L5,3 L0,2 Z " fill="#3C454F" transform="translate(98,62)"/>
<path d="M0,0 L10,0 L10,3 L0,1 Z " fill="#4A555D" transform="translate(140,61)"/>
<path d="M0,0 L5,0 L1,3 L-4,2 Z " fill="#2C3A43" transform="translate(115,9)"/>
<path d="M0,0 L4,0 L4,3 L-2,2 Z " fill="#54606B" transform="translate(99,71)"/>
<path d="M0,0 L3,0 L4,3 L0,4 Z " fill="#202A32" transform="translate(20,40)"/>
<path d="M0,0 L5,0 L4,2 L0,3 Z M-1,3 Z " fill="#4B5963" transform="translate(128,28)"/>
<path d="M0,0 L4,0 L4,3 L0,3 Z " fill="#2B3841" transform="translate(122,12)"/>
<path d="M0,0 L7,0 L6,3 L4,3 L4,1 Z " fill="#485358" transform="translate(127,10)"/>
<path d="M0,0 L3,1 L2,3 L0,3 L-1,5 Z " fill="#3D474F" transform="translate(109,57)"/>
<path d="M0,0 L4,1 L4,3 L0,3 Z " fill="#465057" transform="translate(31,49)"/>
<path d="M0,0 L2,4 L-2,5 Z " fill="#3F4E55" transform="translate(53,57)"/>
<path d="M0,0 L2,0 L2,3 L-3,3 Z " fill="#3D4650" transform="translate(81,41)"/>
<path d="M0,0 L3,2 L3,4 L0,4 Z " fill="#727D87" transform="translate(42,80)"/>
<path d="M0,0 L3,1 L-1,4 Z " fill="#414F58" transform="translate(134,28)"/>
<path d="M0,0 L2,0 L2,3 L-1,3 Z " fill="#52626B" transform="translate(66,81)"/>
<path d="M0,0 L3,0 L2,3 L0,3 Z " fill="#151E29" transform="translate(105,63)"/>
<path d="M0,0 L2,4 L-1,4 Z " fill="#182229" transform="translate(27,49)"/>
<path d="M0,0 L4,2 L0,3 Z " fill="#19252F" transform="translate(122,41)"/>
<path d="M0,0 L3,1 L0,4 L-1,1 Z " fill="#768890" transform="translate(94,4)"/>
<path d="M0,0 L2,2 L-1,3 Z " fill="#3E484D" transform="translate(17,44)"/>
</svg>
