<?xml version="1.0" encoding="UTF-8"?>
<!-- Generator: visioncortex VTracer 0.6.5 -->
<svg version="1.1" xmlns="http://www.w3.org/2000/svg" width="150" height="84">
<path d="M0,0 L150,0 L150,84 L0,84 Z " fill="#515D65" transform="translate(0,0)"/>
<path d="M0,0 L6,0 L6,3 L5,4 L11,5 L11,3 L76,4 L114,3 L118,1 L130,1 L138,0 L138,27 L-12,27 L-12,4 L-8,1 L-1,1 Z M-3,2 Z " fill="#69757D" transform="translate(12,57)"/>
<path d="M0,0 L3,1 L2,7 L7,7 L8,16 L6,17 L5,10 L2,9 L2,13 L0,13 L-1,20 L-4,21 L-5,24 L-8,24 L-8,21 L-24,21 L-27,21 L-32,22 L-36,20 L-34,13 L-23,13 L-23,19 L-13,20 L-13,18 L-4,18 L-1,11 Z M4,17 L6,17 L4,21 L1,23 L-1,21 L2,21 Z " fill="#58636A" transform="translate(84,0)"/>
<path d="M0,0 L3,1 L2,7 L7,7 L8,16 L6,17 L5,10 L2,9 L2,13 L0,13 L-1,20 L-4,21 L-5,24 L-7,20 L-13,19 L-13,18 L-4,18 L-1,11 Z M4,17 L6,17 L4,21 L1,23 L-1,21 L2,21 Z " fill="#768188" transform="translate(84,0)"/>
<path d="M0,0 L2,1 L2,9 L0,19 L-13,19 L-15,21 L-15,17 L-11,15 L-10,13 L0,13 Z " fill="#66747B" transform="translate(118,0)"/>
<path d="M0,0 L2,0 L2,3 L-3,5 L-4,12 L3,12 L2,15 L-9,17 L-12,16 L-7,15 L-7,13 L-17,14 L-19,15 L-18,11 L-6,12 L-5,2 Z " fill="#59656D" transform="translate(124,7)"/>
<path d="M0,0 L4,1 L15,1 L17,0 L24,0 L28,1 L28,3 L-12,4 L-12,3 L-2,2 Z " fill="#5B676F" transform="translate(88,58)"/>
<path d="M0,0 L6,0 L11,2 L8,4 L3,4 L1,5 L-5,5 L-9,7 L-9,3 L-3,1 Z M0,5 Z " fill="#444E58" transform="translate(9,54)"/>
<path d="M0,0 L4,1 L4,8 L0,12 L-3,12 L-3,6 L-2,4 L0,4 Z " fill="#58636B" transform="translate(86,9)"/>
<path d="M0,0 L12,0 L12,4 L0,4 Z " fill="#3C4B52" transform="translate(31,20)"/>
<path d="M0,0 L6,1 L5,5 L2,5 L2,7 L-4,7 L-3,2 Z " fill="#1E2830" transform="translate(125,11)"/>
<path d="M0,0 L6,1 L6,5 L4,5 L4,7 L-2,6 L-2,1 Z " fill="#2C3B41" transform="translate(47,53)"/>
<path d="M0,0 L4,1 L4,3 L7,2 L6,7 L-1,7 L-1,1 Z " fill="#354048" transform="translate(92,51)"/>
<path d="M0,0 L3,1 L4,4 L7,4 L7,7 L-4,7 L-2,6 Z M4,3 Z " fill="#5F6A72" transform="translate(24,77)"/>
<path d="M0,0 L10,0 L9,4 L1,4 L-1,3 Z " fill="#3E4A52" transform="translate(61,21)"/>
<path d="M0,0 L11,0 L13,3 L4,2 L4,4 L-3,4 Z " fill="#5B6870" transform="translate(19,58)"/>
<path d="M0,0 L10,0 L6,2 L10,4 L3,5 L-1,4 Z " fill="#5F6F75" transform="translate(32,25)"/>
<path d="M0,0 L1,3 L7,4 L7,2 L11,1 L15,3 L11,5 L-1,5 Z " fill="#45545B" transform="translate(44,56)"/>
<path d="M0,0 Z M-6,1 L0,1 L0,4 L-9,6 L-14,10 L-12,6 L-10,4 L-7,4 Z " fill="#48555C" transform="translate(76,32)"/>
<path d="M0,0 L11,0 L10,3 L1,3 L0,8 L-2,6 Z " fill="#68737A" transform="translate(50,13)"/>
<path d="M0,0 L18,0 L19,4 L17,5 L17,2 L1,2 Z " fill="#617177" transform="translate(59,19)"/>
<path d="M0,0 L7,0 L3,2 L0,3 L-1,8 L5,8 L5,9 L-2,9 L-2,2 Z " fill="#414C54" transform="translate(122,10)"/>
<path d="M0,0 L4,0 L4,7 L0,7 Z " fill="#212E35" transform="translate(54,36)"/>
<path d="M0,0 L3,0 L4,4 L-7,4 L-5,2 L0,2 Z " fill="#4C575F" transform="translate(135,80)"/>
<path d="M0,0 L3,0 L4,7 L2,8 L0,7 Z M1,8 Z " fill="#707D85" transform="translate(103,2)"/>
<path d="M0,0 L0,3 L-5,3 L-6,6 L-9,7 L-9,3 L-3,1 Z " fill="#3B454F" transform="translate(9,54)"/>
<path d="M0,0 L2,0 L1,4 L4,5 L2,8 L-1,8 L-1,2 Z " fill="#5F6B72" transform="translate(84,13)"/>
<path d="M0,0 L6,1 L6,5 L4,5 L4,3 L-2,3 L-2,1 Z " fill="#35454C" transform="translate(47,53)"/>
<path d="M0,0 L6,0 L2,3 L-7,3 L-7,2 Z " fill="#5A656D" transform="translate(124,58)"/>
<path d="M0,0 L8,0 L8,2 L2,3 L0,2 Z " fill="#58656C" transform="translate(118,73)"/>
<path d="M0,0 L12,1 L12,2 L1,3 L-1,4 Z " fill="#58676E" transform="translate(106,18)"/>
<path d="M0,0 L6,1 L5,5 L2,5 L2,1 Z " fill="#2D3740" transform="translate(125,11)"/>
<path d="M0,0 L4,1 L4,4 L0,4 Z " fill="#5C6A70" transform="translate(91,80)"/>
<path d="M0,0 L3,0 L3,3 L-2,3 L-2,1 Z " fill="#5F6E75" transform="translate(106,81)"/>
<path d="M0,0 L2,0 L1,5 L-2,5 Z " fill="#5E6A72" transform="translate(56,79)"/>
<path d="M0,0 L3,1 L-1,5 L-3,4 Z " fill="#424C54" transform="translate(129,39)"/>
<path d="M0,0 L3,0 L4,4 L0,4 L2,3 L2,1 Z " fill="#424D55" transform="translate(129,11)"/>
<path d="M0,0 L1,2 L3,2 L2,4 L-1,3 Z M3,1 Z " fill="#6F7C83" transform="translate(66,73)"/>
<path d="M0,0 L3,1 L2,3 L-3,2 Z " fill="#4A545C" transform="translate(111,47)"/>
<path d="M0,0 L3,0 L3,3 L-1,2 Z " fill="#6C777F" transform="translate(55,31)"/>
<path d="M0,0 L2,0 L1,4 L-1,4 Z " fill="#465158" transform="translate(87,11)"/>
<path d="M0,0 L4,1 L0,3 Z " fill="#616B73" transform="translate(54,19)"/>
<path d="M0,0 L2,2 L-1,3 Z " fill="#59686F" transform="translate(105,72)"/>
</svg>
