<svg width="166" height="160" viewBox="0 0 166 160" fill="none" xmlns="http://www.w3.org/2000/svg">
<g clip-path="url(#clip0_28_11455)">
<path d="M86.6499 0.112829V4.09486C81.2128 4.09486 75.767 4.09486 70.3299 4.09486C70.3299 5.62641 70.3386 7.17546 70.3299 8.70702C67.4765 8.69827 64.6052 8.71577 61.7513 8.70702C61.7513 10.1686 61.7513 11.6476 61.7513 13.1091C60.2238 13.1091 58.6794 13.1091 57.1519 13.1091C57.1519 14.4306 57.1519 15.7696 57.1519 17.0999C55.6249 17.0999 54.08 17.0999 52.553 17.0999C52.553 18.6315 52.553 20.1805 52.553 21.7121C51.2962 21.7121 50.0394 21.7121 48.7826 21.7121C48.7826 23.2436 48.7826 24.7927 48.7826 26.3242C47.2553 26.3242 45.7106 26.3242 44.1833 26.3242C44.1833 27.4445 44.1921 28.5647 44.1833 29.6849C42.6561 29.6849 41.1113 29.6849 39.5841 29.6849C39.5841 31.1464 39.5841 32.6255 39.5841 34.087C38.2663 34.087 36.931 34.087 35.6045 34.087C35.6045 35.4085 35.6045 36.7475 35.6045 38.0778C34.0772 38.0778 32.5325 38.0778 31.0053 38.0778C31.0053 39.6093 31.0053 41.1584 31.0053 42.69C32.5325 42.6725 34.0772 42.6987 35.6045 42.69C35.6045 41.1584 35.5957 39.6093 35.6045 38.0778C36.9223 38.0778 38.2576 38.0778 39.5754 38.0778C39.5754 36.7563 39.5754 35.4173 39.5754 34.0958C41.1026 34.087 42.6474 34.0958 44.1746 34.0958C44.1746 32.6342 44.1659 31.1552 44.1746 29.6936C45.7019 29.6936 47.2466 29.7024 48.7739 29.6936C48.7739 28.5734 48.7739 27.4532 48.7739 26.3417C50.022 26.3417 51.2875 26.3417 52.5351 26.3417C52.5438 24.8102 52.5351 23.2611 52.5351 21.7296C54.0626 21.7208 55.6075 21.7296 57.1345 21.7296C57.1345 20.198 57.1258 18.649 57.1345 17.1174C58.662 17.1174 60.2064 17.1087 61.7339 17.1174C61.7339 15.7959 61.7339 14.4569 61.7339 13.1354C64.5878 13.1266 67.4586 13.1354 70.3125 13.1354C70.3125 11.6738 70.3038 10.1948 70.3125 8.73326C71.84 8.73326 73.3844 8.73326 74.9119 8.73326V13.1354C75.9594 13.1354 77.0064 13.1266 78.0539 13.1354C78.0539 11.6738 78.0539 10.1948 78.0539 8.73326C80.9073 8.73326 83.7786 8.74201 86.6325 8.73326C86.6325 7.20171 86.6325 5.65266 86.6325 4.12112C96.8783 4.11236 107.133 4.12112 117.387 4.12112C121.707 4.12112 126.036 4.12112 130.356 4.12112V0.112829H86.6325H86.6499Z" fill="#495B6D"/>
<path d="M130.373 0.112829H151.921V4.09486H130.373V0.112829Z" fill="#746F8C"/>
<path d="M151.921 0.112829V4.09486L161.128 4.09483C161.128 7.09667 161.137 10.1072 161.128 13.1178H165.099V4.09483H161.128V0.112793L151.921 0.112829Z" fill="#495B6D"/>
<path d="M161.128 13.1178C161.128 14.4394 161.128 15.7784 161.128 17.0999H165.099L165.099 13.1178H161.128Z" fill="#746F8C"/>
<path d="M104.227 77.513C104.227 79.0448 104.227 80.5936 104.227 82.1254C102.699 82.1254 101.155 82.1254 99.6273 82.1254C98.3797 82.1254 97.1142 82.1254 95.8661 82.1254C95.8661 83.5867 95.8661 85.0658 95.8661 86.5271C94.3386 86.5271 92.7942 86.5271 91.2667 86.5271C88.4128 86.5271 85.5415 86.5184 82.6881 86.5271C81.1606 86.5271 79.6157 86.5271 78.0887 86.5271V90.5179H95.8748C95.8748 89.1963 95.8661 87.8574 95.8748 86.5271C98.6586 86.5184 101.46 86.5271 104.244 86.5271C104.244 85.0658 104.244 83.5867 104.244 82.1254C105.772 82.1254 107.316 82.1254 108.843 82.1254V77.513C107.307 77.513 105.772 77.513 104.244 77.513H104.227Z" fill="#746F8C"/>
<path d="M156.52 47.3109C156.52 50.1728 156.537 53.0518 156.52 55.9139C152.2 55.9313 147.871 55.9139 143.551 55.9139C143.551 57.3752 143.551 58.8544 143.551 60.3161C137.626 60.3161 131.691 60.3161 125.765 60.3161C125.765 61.6372 125.765 62.9766 125.765 64.3064C124.508 64.3064 123.252 64.3064 121.995 64.3064C121.995 65.8383 122.013 67.3875 121.995 68.9189C123.252 68.9189 124.508 68.9189 125.765 68.9189C125.765 67.3875 125.757 65.8383 125.765 64.3064C131.691 64.2716 137.626 64.333 143.551 64.3064C143.551 62.9853 143.543 61.6464 143.551 60.3161C147.871 60.3161 152.2 60.3161 156.52 60.3161C156.52 58.8544 156.52 57.3752 156.52 55.9139C158.048 55.9139 159.592 55.9139 161.119 55.9139C161.111 53.0518 161.128 50.1728 161.119 47.3109H156.52Z" fill="#746F8C"/>
<path d="M108.826 68.9189C108.826 70.4502 108.826 71.9995 108.826 73.5308C107.299 73.5308 105.754 73.5308 104.227 73.5308C104.227 74.8524 104.227 76.1914 104.227 77.513C102.699 77.513 101.155 77.513 99.6273 77.513V82.1254C101.155 82.1254 102.699 82.1254 104.227 82.1254C104.227 80.5936 104.227 79.0448 104.227 77.513C105.754 77.513 107.299 77.513 108.826 77.513C111.68 77.5043 114.551 77.513 117.405 77.513C117.405 76.1914 117.405 74.8524 117.405 73.5221H112.806V68.9102C111.488 68.9102 110.152 68.9102 108.835 68.9102L108.826 68.9189Z" fill="#746F8C"/>
<path d="M31.0054 42.6987C29.4782 42.7162 27.9335 42.69 26.4062 42.6987V47.3109C27.9335 47.3109 29.4782 47.3109 31.0054 47.3109C31.0054 48.6322 31.0054 49.9712 31.0054 51.3015C33.8593 51.3015 36.7305 51.2928 39.5843 51.3015C39.5843 52.8333 39.5843 54.3821 39.5843 55.9139H44.1835C44.1835 54.3821 44.1923 52.8333 44.1835 51.3015C42.6563 51.3015 41.1115 51.3015 39.5843 51.3015C39.5843 49.9799 39.5843 48.6409 39.5843 47.3196C36.7305 47.3109 33.8593 47.3284 31.0054 47.3196C30.9967 45.7881 31.0054 44.239 31.0054 42.7075V42.6987Z" fill="#746F8C"/>
<path d="M151.921 23.6025C151.921 24.5126 151.921 25.4228 151.921 26.333C149.137 26.3418 146.335 26.333 143.551 26.333C143.551 27.4532 143.56 28.5735 143.551 29.6937C145.079 29.6937 146.623 29.7024 148.151 29.6937C149.408 29.6937 150.664 29.6937 151.921 29.6937C151.921 28.5735 151.912 27.4532 151.921 26.333C153.448 26.333 154.993 26.333 156.52 26.333C156.52 25.4228 156.511 24.5126 156.52 23.6025H151.921Z" fill="#746F8C"/>
<path d="M143.551 29.6937C143.543 31.1552 143.551 32.6342 143.551 34.0957C145.079 34.0957 146.623 34.087 148.151 34.0957C148.151 35.4173 148.151 36.7563 148.151 38.0865C149.408 38.0865 150.664 38.0778 151.921 38.0865C151.929 39.6181 151.921 41.1672 151.921 42.6987C153.448 42.6987 154.993 42.6987 156.52 42.6987C156.52 44.2303 156.52 45.7793 156.52 47.3109H161.119C161.119 45.7793 161.119 44.2303 161.119 42.6987C159.592 42.6987 158.047 42.6987 156.52 42.6987C156.52 41.1672 156.52 39.6181 156.52 38.0865C154.993 38.0865 153.448 38.0953 151.921 38.0865C151.921 36.765 151.921 35.426 151.921 34.0957C150.664 34.0957 149.408 34.1045 148.151 34.0957C148.151 32.6342 148.151 31.1552 148.151 29.6937C146.623 29.7024 145.079 29.6937 143.551 29.6937Z" fill="#495B6D"/>
<path d="M117.405 68.9189C117.405 70.4502 117.413 71.9995 117.405 73.5309C118.932 73.5309 120.477 73.5309 122.004 73.5309C122.004 71.9995 121.987 70.4502 122.004 68.9189C120.477 68.9276 118.932 68.9189 117.405 68.9189Z" fill="#495B6D"/>
<path d="M161.128 17.0999C159.601 17.0999 158.056 17.0999 156.529 17.0999C156.529 17.8 156.547 18.5002 156.529 19.2003C156.511 20.0405 156.529 20.8807 156.529 21.7208H161.128C161.128 20.1893 161.128 18.6402 161.128 17.1087V17.0999Z" fill="#495B6D"/>
<path d="M156.52 19.2003H151.921C151.921 20.0317 151.929 20.8807 151.921 21.7208C151.921 22.351 151.921 22.981 151.921 23.6112H156.52C156.52 22.981 156.52 22.351 156.52 21.7208C156.52 20.8807 156.503 20.0405 156.52 19.2003Z" fill="#746F8C"/>
<path d="M125.774 13.1178C125.774 14.4394 125.774 15.7784 125.774 17.0999C125.774 18.6315 125.774 20.1805 125.774 21.7121C127.301 21.7121 128.846 21.7121 130.373 21.7121V13.1091C128.846 13.1091 127.301 13.1091 125.774 13.1091V13.1178Z" fill="#746F8C"/>
<path d="M151.921 4.09486H130.373C126.053 4.09486 121.725 4.09484 117.405 4.09484V8.70702C118.932 8.70702 120.477 8.70702 122.004 8.70702V13.1091C123.252 13.1091 124.518 13.1091 125.765 13.1091C125.765 11.6476 125.765 10.1685 125.765 8.70702H138.944C139.162 8.70702 138.944 12.689 138.944 13.1091V17.0912H143.543C143.543 15.7696 143.543 14.4306 143.543 13.1091C143.543 11.6476 143.543 10.1685 143.543 8.70702H156.511V13.1091H161.111C161.119 10.1073 161.111 7.09667 161.111 4.08609H151.903L151.921 4.09486Z" fill="#746F8C"/>
<path d="M86.6499 4.09486C86.6499 5.62641 86.6504 7.17546 86.6504 8.70702C83.7965 8.71577 80.9252 8.70702 78.0713 8.70702C78.0713 10.1685 78.0713 11.6476 78.0713 13.1091C77.0238 13.1003 75.9768 13.1091 74.9293 13.1091V8.70702C73.4023 8.70702 71.8574 8.70702 70.3299 8.70702C70.3212 10.1686 70.3304 11.6476 70.3304 13.1091C67.4765 13.1091 64.6052 13.0916 61.7513 13.1091C61.7513 14.4306 61.7513 15.7696 61.7513 17.0912C60.2243 17.0824 58.6794 17.0912 57.1524 17.0912C57.1432 18.6227 57.1524 20.1718 57.1524 21.7033C55.6249 21.7033 54.08 21.6946 52.553 21.7033C52.553 23.2349 52.5617 24.7839 52.553 26.3155C51.3049 26.3155 50.0394 26.3155 48.7913 26.3155C48.7913 27.4357 48.7913 28.5559 48.7913 29.6674C47.2642 29.6761 45.7195 29.6674 44.1922 29.6674C44.1835 31.1289 44.1922 32.6079 44.1922 34.0695C45.7195 34.0695 47.2642 34.0695 48.7913 34.0695C48.7913 32.6079 48.7913 31.1289 48.7913 29.6674C50.0481 29.6674 51.3049 29.6674 52.5617 29.6674C52.5617 28.5472 52.553 27.4269 52.5617 26.3067C54.0887 26.3067 55.6336 26.3067 57.1611 26.3067C57.1611 24.7752 57.1611 23.2261 57.1611 21.6946C58.6881 21.6946 60.233 21.6946 61.76 21.6946C61.76 20.163 61.76 18.6139 61.76 17.0824C63.0777 17.0824 64.4133 17.0824 65.7397 17.0824C65.7397 18.6139 65.7397 20.163 65.7397 21.6946C64.422 21.6946 63.0869 21.6946 61.7687 21.6946C61.7687 23.2261 61.7687 24.7752 61.7687 26.3067C60.2417 26.3155 58.6968 26.3067 57.1698 26.3067C57.1698 28.8885 57.1524 31.4877 57.1698 34.0695C55.6423 34.0695 54.0979 34.0695 52.5704 34.0695V51.2754C54.1066 51.2754 55.6423 51.2754 57.1698 51.2754C57.1698 49.9538 57.1698 48.6148 57.1698 47.2933C57.1698 45.7618 57.1698 44.2127 57.1698 42.6812C58.6968 42.6812 60.2417 42.6812 61.7687 42.6812V38.069C63.0869 38.069 64.422 38.069 65.7397 38.069C65.7397 39.6006 65.7397 41.1496 65.7397 42.6812C67.2672 42.6812 68.8116 42.6812 70.3391 42.6812V38.069C68.8029 38.069 67.2672 38.069 65.7397 38.069C65.7397 36.7475 65.7397 35.4085 65.7397 34.087C69.8504 34.087 73.9693 34.087 78.08 34.087C78.08 32.6254 78.0713 31.1464 78.08 29.6849C75.5055 29.6849 72.9136 29.6761 70.3391 29.6849C68.8116 29.6849 67.2672 29.6849 65.7397 29.6849C65.7397 31.1464 65.7397 32.6254 65.7397 34.087C64.422 34.087 63.0869 34.087 61.7687 34.087V38.069C60.2417 38.069 58.6968 38.069 57.1698 38.069C57.1698 36.7475 57.1698 35.4085 57.1698 34.0782C58.6968 34.0782 60.2417 34.0782 61.7687 34.0782C61.7687 31.4965 61.7687 28.8972 61.7687 26.3155C63.0869 26.3155 64.422 26.3155 65.7484 26.3155C65.7484 24.7839 65.7484 23.2349 65.7484 21.7033C67.2759 21.7033 68.8203 21.7033 70.3478 21.7033V17.0912C72.9223 17.0912 75.5142 17.0999 78.0887 17.0912C78.0887 15.7696 78.0887 14.4306 78.0887 13.1091C80.9426 13.1353 83.8139 13.0916 86.6678 13.1091C86.6678 11.6476 86.6678 10.1685 86.6678 8.70702C96.9136 8.67197 107.177 8.66322 117.422 8.70702V4.09484C107.177 4.09484 96.9223 4.08609 86.6678 4.09484L86.6499 4.09486Z" fill="#B6AFCE"/>
<path d="M99.6273 47.3109C99.6273 48.6322 99.6273 49.9712 99.6273 51.2928H104.227C104.227 49.9712 104.227 48.6322 104.227 47.3109C102.699 47.3109 101.155 47.3109 99.6273 47.3109Z" fill="#B6AFCE"/>
<path d="M74.9385 42.6987C74.9385 44.2303 74.9385 45.7793 74.9385 47.3109H65.731C65.731 48.6322 65.731 49.9712 65.731 51.2928C64.4133 51.2928 63.0782 51.2928 61.7513 51.2928C60.2243 51.3015 58.6794 51.2928 57.1524 51.2928C57.1524 52.8246 57.1524 54.3734 57.1524 55.9052C55.6249 55.9052 54.0805 55.9052 52.553 55.9052V60.3074C51.3049 60.3074 50.0394 60.2982 48.7918 60.3074C47.2643 60.3161 45.7196 60.3074 44.1923 60.3074V68.9102C44.1923 70.4415 44.1923 71.9908 44.1923 73.5221C42.665 73.5221 41.1203 73.5221 39.5931 73.5221V77.5043C41.1203 77.5043 42.665 77.5043 44.1923 77.5043C44.1923 76.1827 44.1923 74.8437 44.1923 73.5221C45.7196 73.5221 47.2643 73.5221 48.7918 73.5221C48.7918 71.9908 48.7918 70.4415 48.7918 68.9102C50.0481 68.9102 51.3049 68.9189 52.5617 68.9102C52.5617 67.3783 52.5617 65.8296 52.5617 64.2977H57.1611C57.1611 65.8296 57.1611 67.3783 57.1611 68.9102C55.6336 68.9102 54.0892 68.9015 52.5617 68.9102C52.5617 70.4415 52.5617 71.9908 52.5617 73.5221C51.3136 73.5221 50.0481 73.5221 48.8005 73.5221C48.8005 74.8437 48.8005 76.1827 48.8005 77.513C47.273 77.513 45.7283 77.513 44.201 77.513C44.201 79.0448 44.201 80.5936 44.201 82.1254C42.6738 82.1254 41.1291 82.1254 39.6018 82.1254C38.284 82.1254 36.9487 82.1254 35.6309 82.1254C35.6309 87.9976 35.6309 93.8789 35.6309 99.7423H39.6018V103.724H44.201V90.5092C44.5327 90.457 46.0076 90.588 46.0861 90.5092C46.1734 90.4217 46.0163 88.3915 46.0861 87.9889H48.8092C48.8092 87.4987 48.8092 87.0086 48.8092 86.5184C48.8092 85.0571 48.8092 83.578 48.8092 82.1162H52.5791C52.5791 80.5849 52.5791 79.0356 52.5791 77.5043C52.5791 76.1827 52.5791 74.8437 52.5791 73.5221C54.1066 73.5221 55.651 73.5221 57.1785 73.5221C57.1785 71.9908 57.1785 70.4415 57.1785 68.9102C58.7055 68.9102 60.2504 68.9102 61.7779 68.9102C61.7779 67.3783 61.7779 65.8296 61.7779 64.2977H70.3565V68.9102C68.8295 68.9102 67.2846 68.9102 65.7571 68.9102C65.7571 70.4415 65.7658 71.9908 65.7571 73.5221C64.4394 73.5221 63.1043 73.5221 61.7866 73.5221C61.7866 74.8437 61.7866 76.1827 61.7866 77.5043C60.2591 77.513 58.7142 77.5043 57.1872 77.5043C57.1872 80.5061 57.1785 83.5166 57.1872 86.5271H52.5878C52.5878 90.0191 52.5878 93.5197 52.5878 97.0117H57.1872C57.1872 99.2435 57.1785 101.493 57.1872 103.724C57.1872 105.256 57.1872 106.805 57.1872 108.336C57.1872 109.798 57.1872 111.277 57.1872 112.739C57.1872 117.141 57.1872 121.552 57.1872 125.954H61.7866V129.936H65.7571C65.7571 128.614 65.7571 127.275 65.7571 125.954C65.7571 124.422 65.7571 122.873 65.7571 121.342C65.7571 117.01 65.7571 112.668 65.7571 108.336C65.7571 102.394 65.7397 96.4432 65.7571 90.5092C65.7571 89.1876 65.7571 87.8487 65.7571 86.5271H61.7866C61.7779 89.3892 61.7866 92.2682 61.7866 95.1304H57.1872C57.1872 92.2682 57.1959 89.3892 57.1872 86.5271H61.7866C61.7953 83.5253 61.7866 80.5148 61.7866 77.5043C63.1043 77.5043 64.4394 77.5043 65.7658 77.5043C65.7658 76.1827 65.7658 74.8437 65.7658 73.5134C68.8295 73.5134 71.9101 73.5395 74.9733 73.5134C74.982 71.9821 74.9733 70.4328 74.9733 68.9015H78.1148V73.5134C77.0678 73.5134 76.0203 73.5047 74.9733 73.5134C74.9733 74.835 74.9733 76.174 74.9733 77.4956H70.3739V82.1075C71.9014 82.1075 73.4458 82.1075 74.9733 82.1075C76.0203 82.1075 77.0678 82.1075 78.1148 82.1075V77.4956C79.6423 77.4956 81.1872 77.4956 82.7142 77.4956C87.1038 77.4782 91.5026 77.4956 95.8922 77.4956C95.8922 76.174 95.8922 74.835 95.8922 73.5134C95.8922 71.9821 95.8922 70.4328 95.8922 68.9015H91.2933C91.2933 67.3696 91.2933 65.8209 91.2933 64.289H82.7142V60.3074H78.1148V47.3021C79.6423 47.3021 81.1872 47.3109 82.7142 47.3021V42.69H74.9733L74.9385 42.6987Z" fill="#B6AFCE"/>
<path d="M99.6273 38.0778C99.6273 39.6093 99.6273 41.1584 99.6273 42.69C96.8435 42.69 94.0418 42.69 91.258 42.69H86.6586V47.3021C85.3409 47.3021 84.0058 47.3021 82.6881 47.3021V55.9052H86.6586V60.3069C88.1861 60.3069 89.7305 60.3069 91.258 60.3069C91.258 61.6285 91.258 62.9675 91.258 64.289C92.7855 64.289 94.3299 64.2977 95.8574 64.289V60.3069C94.3299 60.3069 92.7855 60.3069 91.258 60.3069C91.258 58.8457 91.258 57.3665 91.258 55.9052C91.258 54.3734 91.2493 52.8246 91.258 51.2928C91.258 49.9712 91.258 48.6322 91.258 47.3021C94.0418 47.3021 96.8435 47.3109 99.6273 47.3021C99.6273 45.7706 99.6273 44.2215 99.6273 42.69C101.155 42.69 102.699 42.69 104.227 42.69V38.0778H99.6273Z" fill="#B6AFCE"/>
<path d="M156.52 13.1178H143.551C143.551 14.4394 143.551 15.7784 143.551 17.0999C143.551 18.6315 143.551 20.1805 143.551 21.7121H151.921C151.929 20.8719 151.921 20.0317 151.921 19.1916H156.52C156.529 18.4914 156.511 17.7913 156.52 17.0912C158.047 17.0912 159.592 17.0912 161.119 17.0912C161.119 15.7696 161.119 14.4306 161.119 13.1091H156.52V13.1178Z" fill="#B6AFCE"/>
<path d="M82.6794 82.1341V86.5358C85.5333 86.5271 88.4041 86.5358 91.258 86.5358V82.1341C88.4041 82.1341 85.5333 82.1341 82.6794 82.1341Z" fill="#746F8C"/>
<path d="M99.6273 73.5308C99.6273 74.8524 99.6273 76.1914 99.6273 77.513C98.3797 77.513 97.1142 77.513 95.8661 77.513C95.8661 79.0448 95.8661 80.5936 95.8661 82.1254C94.3386 82.1254 92.7942 82.1254 91.2667 82.1254V86.5271C92.7942 86.5271 94.3386 86.5271 95.8661 86.5271C95.8661 85.0658 95.8661 83.5867 95.8661 82.1254C97.1142 82.1254 98.3797 82.1254 99.6273 82.1254V77.513C101.155 77.513 102.699 77.513 104.227 77.513C104.227 76.1914 104.227 74.8524 104.227 73.5308C102.7 73.5308 101.155 73.5308 99.6273 73.5308Z" fill="#746F8C"/>
<path d="M99.6278 60.3161C99.6278 61.6372 99.6278 62.9762 99.6278 64.3064C98.371 64.3064 97.1142 64.2977 95.8574 64.3064C94.3304 64.3156 92.7855 64.3064 91.258 64.3064C91.258 65.8383 91.258 67.387 91.258 68.9189H95.8574C95.8574 70.4502 95.8574 71.9995 95.8574 73.5308H99.6191C99.6191 71.9995 99.6191 70.4502 99.6191 68.9189C101.146 68.9189 102.691 68.9189 104.218 68.9189C104.218 66.0573 104.218 63.1777 104.218 60.3161H99.6191H99.6278Z" fill="#746F8C"/>
<path d="M82.6794 47.3109C81.1519 47.3196 79.6075 47.3109 78.08 47.3109V60.3161H82.6794V64.2977H91.258C91.258 62.9766 91.258 61.6372 91.258 60.3161C89.731 60.3161 88.1861 60.3161 86.6591 60.3161V55.9139H82.6881V47.3109H82.6794Z" fill="#746F8C"/>
<path d="M82.6794 42.6987V47.3109C83.9971 47.3109 85.3322 47.3108 86.6591 47.3108V42.6987H82.6794Z" fill="#746F8C"/>
<path d="M138.952 17.0999H134.981V21.7121C133.454 21.7121 131.909 21.7121 130.382 21.7121C128.855 21.7121 127.31 21.7121 125.783 21.7121C125.791 24.3639 125.783 27.0331 125.783 29.6849H134.99V34.087C137.844 34.087 140.715 34.087 143.569 34.087C143.569 35.4085 143.569 36.7475 143.569 38.069C143.569 39.6006 143.569 41.1497 143.569 42.6812C145.096 42.6812 146.641 42.6812 148.168 42.6812C149.416 42.6812 150.681 42.6812 151.929 42.6812C151.929 45.543 151.929 48.4224 151.929 51.2841C149.146 51.2841 146.344 51.2667 143.56 51.2841C143.551 52.8159 143.56 54.3647 143.56 55.8965C142.033 55.8965 140.488 55.8965 138.961 55.8965C137.643 55.8965 136.308 55.8965 134.99 55.8965C129.134 55.8965 123.269 55.8965 117.413 55.8965C117.413 60.2286 117.431 64.5694 117.413 68.9015C118.94 68.9015 120.485 68.9102 122.013 68.9015C122.03 67.3696 122.004 65.8209 122.013 64.289C123.269 64.289 124.526 64.2977 125.783 64.289C125.783 62.9675 125.783 61.6285 125.783 60.2982C131.708 60.2982 137.643 60.3069 143.569 60.2982C143.569 58.8369 143.569 57.3578 143.569 55.8965C147.889 55.8965 152.217 55.9139 156.537 55.8965C156.555 53.0344 156.537 50.1554 156.537 47.2934C156.537 45.7618 156.537 44.2128 156.537 42.6812C155.01 42.6812 153.466 42.6812 151.938 42.6812C151.938 41.1497 151.947 39.6006 151.938 38.069C150.681 38.069 149.425 38.069 148.168 38.069C148.168 36.7475 148.177 35.4085 148.168 34.0783C146.641 34.0695 145.096 34.0783 143.569 34.0783C143.569 32.6167 143.56 31.1377 143.569 29.6762C143.569 28.5559 143.569 27.4357 143.569 26.3155C146.353 26.3155 149.154 26.333 151.938 26.3155C151.938 25.4053 151.938 24.4951 151.938 23.5849C151.938 22.9548 151.938 22.3247 151.938 21.6946H143.569C143.569 20.163 143.569 18.614 143.569 17.0824H138.969L138.952 17.0999Z" fill="#B6AFCE"/>
<path d="M122.004 21.7208V27.5932H117.405C117.405 28.2933 117.405 28.9935 117.405 29.6937C117.405 31.1552 117.405 32.6342 117.405 34.0957H112.805C112.805 35.4173 112.805 36.7563 112.805 38.0778C112.805 38.7341 112.971 42.5324 112.805 42.69C112.736 42.76 111.81 42.6462 111.548 42.69V49.8228H108.826C108.852 51.8443 108.826 53.8832 108.826 55.9052C108.843 60.2373 108.843 64.5781 108.826 68.9102C107.299 68.9015 105.754 68.9102 104.227 68.9102C104.227 70.4415 104.227 71.9908 104.227 73.5221C105.754 73.5221 107.299 73.5221 108.826 73.5221C108.826 71.9908 108.826 70.4415 108.826 68.9102C110.143 68.9102 111.479 68.9102 112.797 68.9102V73.5221H117.396C117.405 71.9908 117.396 70.4415 117.396 68.9102C117.413 64.5781 117.387 60.2373 117.396 55.9052C123.252 55.9052 129.117 55.9052 134.972 55.9052V47.3021H138.943V38.069H143.543C143.543 36.7475 143.543 35.4085 143.543 34.087C140.689 34.087 137.817 34.087 134.964 34.087V29.6849H125.757C125.757 27.0331 125.765 24.3638 125.757 21.7121C124.508 21.7121 123.243 21.7121 121.995 21.7121L122.004 21.7208Z" fill="#B6AFCE"/>
<path d="M82.6794 77.513C81.1519 77.513 79.607 77.513 78.08 77.513V82.1254C79.6162 82.1254 81.1519 82.1254 82.6794 82.1254V77.513Z" fill="#746F8C"/>
<path d="M44.1921 51.2928C44.2008 52.8246 44.1921 54.3734 44.1921 55.9052C45.7194 55.9052 47.2641 55.9052 48.7913 55.9052V51.2928C47.2641 51.2928 45.7194 51.2928 44.1921 51.2928Z" fill="#B6AFCE"/>
<path d="M48.7913 55.9139V60.3161C50.0481 60.3161 51.3049 60.3161 52.5612 60.3161V55.9139C51.3049 55.9139 50.0481 55.9139 48.7913 55.9139Z" fill="#746F8C"/>
<path d="M39.5841 34.0957C39.5841 35.4173 39.5841 36.7563 39.5841 38.0778C38.2663 38.0778 36.9311 38.0778 35.6132 38.0778C35.6132 39.6093 35.6132 41.1584 35.6132 42.6899C34.086 42.6899 32.5413 42.6724 31.014 42.6899C31.014 44.2215 31.0053 45.7705 31.014 47.3021C33.8678 47.3108 36.739 47.2933 39.5928 47.3021C39.5928 48.6235 39.5928 49.9625 39.5928 51.2841C41.1201 51.2841 42.6648 51.2841 44.1921 51.2841C44.1921 49.9625 44.1921 48.6235 44.1921 47.2933C42.6648 47.2933 41.1201 47.2933 39.5928 47.2933C39.5928 44.2215 39.5841 41.1409 39.5928 38.0603C41.1201 38.0603 42.6648 38.0603 44.1921 38.0603C44.1921 36.7388 44.1835 35.3998 44.1922 34.0695C42.665 34.0695 41.1201 34.0607 39.5928 34.0695L39.5841 34.0957Z" fill="#B6AFCE"/>
<path d="M91.258 17.0999C91.2493 18.6315 91.258 20.1805 91.258 21.7121C92.7855 21.7121 94.3299 21.7121 95.8574 21.7121V17.0999C94.3299 17.0999 92.7855 17.0999 91.258 17.0999Z" fill="#746F8C"/>
<path d="M57.1606 34.0958C57.1606 35.4173 57.1606 36.7563 57.1606 38.0865C58.6881 38.0865 60.2325 38.0865 61.76 38.0865V34.1045C60.2325 34.1045 58.6881 34.1045 57.1606 34.1045V34.0958Z" fill="#746F8C"/>
<path d="M117.405 8.71577C107.159 8.67202 96.8957 8.68077 86.6499 8.71577C86.6499 10.1773 86.6499 11.6563 86.6499 13.1179C83.796 13.1004 80.9247 13.1441 78.0713 13.1179C78.0713 14.4394 78.0713 15.7784 78.0713 17.0999C75.4968 17.1087 72.9044 17.0999 70.3299 17.0999V21.7121C68.8029 21.7121 67.258 21.7121 65.731 21.7121C65.731 23.2436 65.731 24.7927 65.731 26.3242C64.4128 26.3242 63.0777 26.3242 61.7513 26.3242C61.7513 28.906 61.7513 31.5052 61.7513 34.087C63.069 34.087 64.4041 34.087 65.7223 34.087C65.7223 32.6255 65.7223 31.1464 65.7223 29.6849C67.2493 29.6849 68.7942 29.6849 70.3212 29.6849V26.333H74.9206V21.7208H78.0621C78.0621 20.1893 78.0621 18.6402 78.0621 17.1087C82.4522 17.0912 86.8505 17.1087 91.2406 17.1087C91.2406 15.7871 91.2406 14.4482 91.2406 13.1266H99.6099C99.6099 14.4482 99.6099 15.7871 99.6099 17.1087H111.531V13.1179C111.95 13.1091 112.369 13.1354 112.788 13.1179C115.834 13.0129 118.94 13.1179 121.995 13.1179V8.71577C120.468 8.71577 118.923 8.71577 117.396 8.71577H117.405Z" fill="#746F8C"/>
<path d="M122.004 13.1178C118.95 13.1178 115.852 13.0129 112.797 13.1178V17.0999H125.766C125.766 15.7784 125.766 14.4394 125.766 13.1178C124.518 13.1178 123.252 13.1178 122.004 13.1178Z" fill="#B6AFCE"/>
<path d="M99.6273 17.0999C99.636 18.6315 99.6273 20.1805 99.6273 21.7121C101.155 21.7121 102.699 21.7121 104.227 21.7121V17.0999H99.6273Z" fill="#B6AFCE"/>
<path d="M111.548 17.0999H108.826V21.7121C107.299 21.7121 105.754 21.7121 104.227 21.7121V26.3242C102.699 26.3242 101.154 26.3242 99.6273 26.3242C99.6273 27.4444 99.636 28.5647 99.6273 29.6849C99.1821 29.6849 95.8922 29.5886 95.8569 29.8074V32.2054H99.6273C99.6273 31.3652 99.6273 30.525 99.6273 29.6849C101.154 29.6761 102.699 29.6849 104.227 29.6849V26.333C105.754 26.333 107.299 26.3417 108.826 26.333C108.834 24.8014 108.826 23.2524 108.826 21.7208C110.143 21.7208 111.479 21.7208 112.797 21.7208C112.797 20.1893 112.797 18.6402 112.797 17.1087H111.54L111.548 17.0999Z" fill="#B6AFCE"/>
<path d="M138.952 13.1179C138.952 12.6978 139.17 8.71577 138.952 8.71577H125.774C125.774 10.1773 125.774 11.6563 125.774 13.1178C127.301 13.1178 128.846 13.1179 130.373 13.1179H138.952Z" fill="#B6AFCE"/>
<path d="M156.52 13.1178V8.71577H143.551C143.551 10.1773 143.551 11.6563 143.551 13.1178H156.52Z" fill="#746F8C"/>
<path d="M130.373 13.1179H138.952V17.0999H130.373L130.373 13.1179Z" fill="#746F8C"/>
<path d="M61.76 17.0999C61.76 18.6315 61.76 20.1805 61.76 21.7121C60.2325 21.7121 58.6881 21.7121 57.1606 21.7121C57.1606 23.2436 57.1606 24.7927 57.1606 26.3242C55.6336 26.3242 54.0887 26.3242 52.5612 26.3242C52.5612 27.4444 52.5612 28.5647 52.5612 29.6849C51.3049 29.6849 50.0481 29.6761 48.7913 29.6849C48.7913 31.1464 48.7913 32.6254 48.7913 34.087C47.264 34.087 45.7193 34.087 44.192 34.087C44.192 35.4085 44.192 36.7475 44.192 38.0777C42.6648 38.0777 41.12 38.0777 39.5928 38.0777C39.5841 41.1496 39.5928 44.2302 39.5928 47.3108C41.12 47.3108 42.6648 47.3108 44.192 47.3108C44.192 48.6322 44.192 49.9712 44.192 51.3015C45.7193 51.3015 47.264 51.3015 48.7913 51.3015C50.0394 51.3015 51.3049 51.3015 52.5525 51.3015V34.0957C54.08 34.0957 55.6249 34.0957 57.1519 34.0957C57.1345 31.514 57.1519 28.9147 57.1519 26.333C58.6794 26.333 60.2238 26.3417 61.7513 26.333C61.7513 24.8014 61.7513 23.2524 61.7513 21.7208C63.069 21.7208 64.4041 21.7208 65.7223 21.7208C65.7223 20.1893 65.7223 18.6402 65.7223 17.1087C64.4041 17.1087 63.069 17.1087 61.7426 17.1087L61.76 17.0999Z" fill="#746F8C"/>
<path d="M143.551 38.0778H138.952V47.3109H134.981V55.9139C136.299 55.9139 137.634 55.9139 138.952 55.9139V51.3015C140.479 51.3015 142.024 51.3015 143.551 51.3015C143.551 49.9799 143.551 48.6409 143.551 47.3196H148.151V42.7075C146.623 42.7075 145.079 42.7075 143.551 42.7075C143.551 41.1759 143.551 39.6268 143.551 38.0953V38.0778Z" fill="#746F8C"/>
<path d="M148.151 42.6987V47.3109H143.551C143.551 48.6322 143.551 49.9712 143.551 51.2928C142.024 51.2928 140.479 51.2928 138.952 51.2928V55.9052C140.488 55.9052 142.024 55.9052 143.551 55.9052C143.551 54.3734 143.543 52.8246 143.551 51.2928C146.335 51.2841 149.137 51.2928 151.921 51.2928C151.921 48.4312 151.921 45.5518 151.921 42.69C150.673 42.69 149.408 42.69 148.159 42.69L148.151 42.6987Z" fill="#B6AFCE"/>
<path d="M112.805 21.7208C112.805 23.2524 112.805 24.8014 112.805 26.333C111.488 26.333 110.152 26.333 108.826 26.333C108.826 27.4532 108.826 28.5734 108.826 29.6937C107.299 29.6937 105.754 29.6937 104.227 29.6937V42.6987C105.754 42.6987 107.299 42.6987 108.826 42.6987V38.0865H112.797C112.797 36.765 112.797 35.426 112.797 34.1045C112.797 32.643 112.797 31.1639 112.797 29.7024H117.396C117.396 29.0023 117.396 28.3021 117.396 27.602C117.405 25.6503 117.396 23.6812 117.396 21.7296C115.868 21.7296 114.324 21.7296 112.797 21.7296L112.805 21.7208Z" fill="#746F8C"/>
<path d="M117.405 17.0999V21.7121C118.932 21.7121 120.477 21.7121 122.004 21.7121C123.252 21.7121 124.518 21.7121 125.766 21.7121C125.766 20.1805 125.766 18.6315 125.766 17.0999L117.396 17.0999H117.405Z" fill="#746F8C"/>
<path d="M112.805 38.0778H108.834V42.69C107.307 42.69 105.762 42.69 104.235 42.69V47.3021C105.762 47.3021 107.307 47.3021 108.834 47.3021C108.834 48.1423 108.826 48.9822 108.834 49.8228H111.557V42.69C111.819 42.6462 112.744 42.76 112.814 42.69C112.98 42.5237 112.814 38.7254 112.814 38.0778H112.805Z" fill="#746F8C"/>
<path d="M99.6273 47.3109C96.8435 47.3196 94.0418 47.3109 91.258 47.3109C91.258 48.6322 91.258 49.9712 91.258 51.3015H99.6273C99.6273 49.9799 99.6273 48.6409 99.6273 47.3196L99.6273 47.3109Z" fill="#746F8C"/>
<path d="M99.6273 42.6987C99.6273 44.2303 99.6273 45.7793 99.6273 47.3109C101.155 47.3109 102.699 47.3109 104.227 47.3109C104.227 48.6322 104.227 49.9712 104.227 51.2928C104.227 52.8246 104.227 54.3734 104.227 55.9052L108.826 55.9052C108.826 53.8832 108.852 51.8443 108.826 49.8228C108.817 48.9822 108.826 48.1423 108.826 47.3021C107.299 47.3021 105.754 47.3021 104.227 47.3021V42.69C102.699 42.69 101.155 42.69 99.6273 42.69V42.6987Z" fill="#746F8C"/>
<path d="M112.805 17.0999C112.805 18.6315 112.805 20.1806 112.805 21.7121C111.488 21.7121 110.152 21.7121 108.834 21.7121C108.834 23.2436 108.843 24.7927 108.834 26.3242C107.307 26.333 105.762 26.3242 104.235 26.3242V29.6762C102.708 29.6762 101.163 29.6674 99.636 29.6762C99.636 30.5163 99.636 31.3565 99.636 32.1967C99.636 34.1483 99.636 36.1174 99.636 38.069H104.235V29.6762C105.762 29.6762 107.307 29.6762 108.834 29.6762C108.834 28.5559 108.826 27.4357 108.834 26.3155C110.152 26.3155 111.488 26.3155 112.814 26.3155C112.814 24.7839 112.814 23.2349 112.814 21.7033C114.341 21.7033 115.886 21.7033 117.413 21.7033V17.0912H112.814L112.805 17.0999Z" fill="#746F8C"/>
<path d="M117.405 21.7208C117.405 23.6725 117.413 25.6416 117.405 27.5932H122.004V21.7208C120.477 21.7208 118.932 21.7208 117.405 21.7208Z" fill="#746F8C"/>
<path d="M112.806 13.1179C112.387 13.1354 111.968 13.1091 111.549 13.1179V17.1087H112.806V13.1179Z" fill="#746F8C"/>
<path d="M117.405 29.6937H112.806C112.806 31.1552 112.805 32.6342 112.805 34.0957H117.405C117.405 32.6342 117.405 31.1552 117.405 29.6937Z" fill="#746F8C"/>
<path d="M82.6794 38.0778C80.1049 38.0778 77.5125 38.0778 74.938 38.0778V42.69H91.258C91.258 41.1584 91.2667 39.6093 91.258 38.0778C88.4041 38.0778 85.5328 38.0778 82.6794 38.0778Z" fill="#746F8C"/>
<path d="M70.3386 38.0778V42.69C68.8116 42.69 67.2667 42.69 65.7397 42.69C65.7397 44.2215 65.7484 45.7706 65.7397 47.3021C64.4133 47.3021 63.0864 47.3021 61.7687 47.3021V51.2841C63.0864 51.2841 64.422 51.2841 65.7484 51.2841C65.7484 49.9625 65.7484 48.6235 65.7484 47.2934H74.9554C74.9554 45.7618 74.9554 44.2128 74.9554 42.6812V38.069C73.4284 38.069 71.8835 38.069 70.3565 38.069L70.3386 38.0778Z" fill="#746F8C"/>
<path d="M130.373 17.0999L130.373 21.7121C131.9 21.7121 133.445 21.7121 134.973 21.7121V17.0999H130.373Z" fill="#B6AFCE"/>
<path d="M78.08 17.0999C78.08 18.6315 78.08 20.1805 78.08 21.7121H74.9385V26.3242H70.3391V29.6762C72.9136 29.6674 75.5055 29.6762 78.08 29.6762C78.08 28.5559 78.08 27.4357 78.08 26.3155C79.6075 26.3155 81.1519 26.3155 82.6794 26.3155C82.6794 24.7839 82.6794 23.2349 82.6794 21.7033C83.9971 21.7033 85.3322 21.7033 86.6591 21.7033C88.1861 21.6946 89.731 21.7033 91.258 21.7033C91.258 20.1718 91.2493 18.6227 91.258 17.0912C86.8684 17.0912 82.4696 17.0737 78.08 17.0912V17.0999Z" fill="#495B6D"/>
<path d="M99.6273 17.0999C99.6273 15.7784 99.6273 14.4394 99.6273 13.1178H91.258C91.258 14.4394 91.258 15.7784 91.258 17.0999C92.7855 17.0999 94.3299 17.0999 95.8574 17.0999C97.1055 17.0999 98.3705 17.0999 99.6186 17.0999L99.6273 17.0999Z" fill="#495B6D"/>
<path d="M104.227 17.0999V21.7121C105.754 21.7121 107.299 21.7121 108.826 21.7121V17.0999H104.227Z" fill="#B6AFCE"/>
<path d="M99.6273 21.7208C98.3792 21.7208 97.1142 21.7208 95.8661 21.7208C95.8661 23.2524 95.8661 24.8014 95.8661 26.333C94.3386 26.333 92.7942 26.333 91.2667 26.333C91.2667 27.4532 91.2667 28.5734 91.2667 29.6937C89.7397 29.6937 88.1948 29.6937 86.6673 29.6937C85.3496 29.6937 84.0145 29.6937 82.6968 29.6937C81.1693 29.6937 79.6249 29.6937 78.0974 29.6937C78.0887 31.1552 78.0974 32.6342 78.0974 34.0958C79.6249 34.0958 81.1693 34.0958 82.6968 34.0958C85.5502 34.1045 88.4215 34.0958 91.2754 34.0958C91.2754 35.4172 91.2754 36.7563 91.2754 38.0865H99.6447C99.6447 36.1349 99.6447 34.1658 99.6447 32.2142H95.8748V29.8161C95.9096 29.5974 99.1913 29.6937 99.6447 29.6937C99.6534 28.5734 99.6447 27.4532 99.6447 26.333C101.172 26.333 102.717 26.333 104.244 26.333V21.7208C102.717 21.7208 101.172 21.7208 99.6447 21.7208H99.6273Z" fill="#B6AFCE"/>
<path d="M99.6273 51.2928C99.6273 52.8246 99.6273 54.3734 99.6273 55.9052C99.6273 57.4366 99.6273 58.8457 99.6273 60.3069H95.8656V64.289C97.1224 64.289 98.3792 64.289 99.636 64.289C99.636 62.9675 99.6273 61.6285 99.636 60.2982H104.235C104.235 58.8369 104.235 57.3578 104.235 55.896C104.235 54.3647 104.235 52.8154 104.235 51.2841H99.636L99.6273 51.2928Z" fill="#B6AFCE"/>
<path d="M78.08 34.0958C73.9693 34.0958 69.8504 34.0958 65.7397 34.0958C65.7397 35.4173 65.7397 36.7563 65.7397 38.0778C67.2672 38.0778 68.8116 38.0778 70.3386 38.0778C71.8661 38.0778 73.411 38.0778 74.938 38.0778C77.5125 38.0778 80.1049 38.0778 82.6794 38.0778V34.0958C81.1519 34.0958 79.607 34.0958 78.08 34.0958Z" fill="#495B6D"/>
<path d="M91.258 38.0778C91.2667 39.6093 91.258 41.1584 91.258 42.69C94.0418 42.69 96.8435 42.69 99.6273 42.69C99.6273 41.1584 99.6273 39.6093 99.6273 38.0778H91.258Z" fill="#495B6D"/>
<path d="M82.6794 34.0958V38.0778C85.5328 38.0778 88.4041 38.0778 91.258 38.0778C91.258 36.7563 91.258 35.4173 91.258 34.087C88.4041 34.087 85.5333 34.0958 82.6794 34.087L82.6794 34.0958Z" fill="#746F8C"/>
<path d="M61.76 38.0778V42.69C60.233 42.69 58.6881 42.69 57.1611 42.69C57.1611 44.2215 57.1611 45.7706 57.1611 47.3021H61.76V42.69C63.0782 42.69 64.4133 42.69 65.731 42.69C65.731 41.1584 65.731 39.6093 65.731 38.0778C64.4133 38.0778 63.0782 38.0778 61.76 38.0778Z" fill="#746F8C"/>
<path d="M86.6499 21.7208V26.333C85.3322 26.333 83.9966 26.333 82.6789 26.333V29.6849C83.9966 29.6849 85.3322 29.6849 86.6499 29.6849V26.333C88.1774 26.333 89.7218 26.333 91.2493 26.333C91.258 24.8014 91.2493 23.2524 91.2493 21.7208C89.7218 21.7208 88.1774 21.7121 86.6499 21.7208Z" fill="#746F8C"/>
<path d="M86.6499 21.7208C85.3322 21.7208 83.9966 21.7208 82.6702 21.7208C82.6702 23.2524 82.6702 24.8014 82.6702 26.333C81.1432 26.333 79.5983 26.333 78.0713 26.333C78.0713 27.4532 78.08 28.5734 78.0713 29.6937C79.5983 29.6937 81.1432 29.6937 82.6702 29.6937V26.3417C83.9879 26.3417 85.3235 26.3417 86.6412 26.3417V21.7296L86.6499 21.7208Z" fill="#746F8C"/>
<path d="M95.8574 17.0999V21.7121C97.1055 21.7121 98.371 21.7121 99.6186 21.7121C99.6186 20.1805 99.6273 18.6315 99.6186 17.0999C98.3705 17.0999 97.1055 17.0999 95.8574 17.0999Z" fill="#746F8C"/>
<path d="M95.8574 51.2928V55.9052H91.258C91.258 57.3665 91.258 58.8457 91.258 60.3069C92.7855 60.3069 94.3299 60.3069 95.8574 60.3069V55.9052H99.6191C99.6191 54.3734 99.6191 52.8246 99.6191 51.2928H95.8574Z" fill="#495B6D"/>
<path d="M95.8574 55.9139V60.3161H99.6191C99.6191 58.8544 99.6191 57.3752 99.6191 55.9139H95.8574Z" fill="#746F8C"/>
<path d="M91.258 51.2928C91.2493 52.8246 91.258 54.3734 91.258 55.9052H95.8574V51.2928H91.258Z" fill="#B6AFCE"/>
<path d="M91.258 21.7208C91.258 23.2524 91.2667 24.8014 91.258 26.333C89.731 26.333 88.1861 26.333 86.6591 26.333V29.6849C88.1861 29.6849 89.731 29.6849 91.258 29.6849C91.258 28.5647 91.2493 27.4444 91.258 26.3242C92.7855 26.3242 94.3299 26.3242 95.8574 26.3242C95.8574 24.7927 95.8574 23.2436 95.8574 21.7121C94.3299 21.7121 92.7855 21.7121 91.258 21.7121V21.7208Z" fill="#B6AFCE"/>
<path d="M35.6131 125.971C35.6131 124.44 35.6131 122.891 35.6131 121.359H31.0139C31.0139 124.221 31.0226 127.1 31.0139 129.962C31.0139 131.493 31.0139 133.043 31.0139 134.574H35.6131C35.6131 131.712 35.6219 128.833 35.6131 125.971Z" fill="#746F8C"/>
<path d="M4.85851 90.5179C4.84106 94.9201 4.86726 99.331 4.85851 103.733C6.38576 103.733 7.93051 103.724 9.45776 103.733C9.45776 108.065 9.46651 112.406 9.45776 116.738C7.93051 116.729 6.38576 116.738 4.85851 116.738C4.85851 118.27 4.85851 119.819 4.85851 121.351C6.38576 121.351 7.93051 121.359 9.45776 121.351C9.45776 119.819 9.45776 118.27 9.45776 116.738C10.7756 116.738 12.1109 116.738 13.4287 116.738V121.351C12.1109 121.351 10.7756 121.351 9.45776 121.351C9.45776 122.882 9.45776 124.431 9.45776 125.963H4.85851V121.351C3.33126 121.351 1.78653 121.351 0.259277 121.351V129.953H4.85851V138.976C6.38576 138.976 7.93051 138.976 9.45776 138.976C10.7756 138.976 12.1109 138.976 13.4287 138.976C13.4287 137.515 13.4287 136.036 13.4287 134.574C12.1109 134.574 10.7756 134.574 9.45776 134.574V129.962C10.7756 129.971 12.1109 129.945 13.4287 129.962C13.4287 131.493 13.4287 133.043 13.4287 134.574C14.9559 134.583 16.5006 134.574 18.0279 134.574V131.844C17.6701 131.791 16.0119 131.923 15.9334 131.844C15.8374 131.748 16.0294 130.05 15.9334 129.953C15.8374 129.857 13.8127 129.953 13.4199 129.953C13.4199 129.489 13.3239 125.997 13.5421 125.963C13.9261 126.033 15.8461 125.875 15.9334 125.963C16.0206 126.05 15.8461 127.144 15.9334 127.223C16.0294 127.319 17.9319 127.126 18.0279 127.223C18.1239 127.319 18.0279 129.533 18.0279 129.953H22.6271C22.6271 131.485 22.6271 133.034 22.6271 134.565C23.8751 134.565 25.1406 134.565 26.3886 134.565C26.3886 133.034 26.3886 131.485 26.3886 129.953C26.406 124.221 26.3886 118.48 26.3886 112.756C26.3886 111.295 26.3886 109.816 26.3886 108.354H22.6184C22.6184 105.492 22.6272 102.622 22.6184 99.751C22.6184 98.2197 22.6184 96.6704 22.6184 95.1391H18.0192C18.0366 101.011 18.0017 106.893 18.0192 112.756C19.5464 112.774 21.0912 112.747 22.6184 112.756V121.359H18.0192C18.0192 118.497 18.0279 115.618 18.0192 112.756C16.4919 112.739 14.9472 112.765 13.4199 112.756V103.733C12.1021 103.733 10.7669 103.733 9.44901 103.733C9.44901 100.872 9.44901 97.992 9.44901 95.1304C9.44901 93.5985 9.44901 92.0498 9.44901 90.5179H4.84981H4.85851Z" fill="#746F8C"/>
<path d="M26.4061 134.574C26.4061 136.036 26.4061 137.515 26.4061 138.976C25.1494 138.976 23.8927 138.967 22.636 138.976C22.636 140.097 22.636 141.217 22.636 142.337C21.1087 142.337 19.564 142.337 18.0367 142.337C16.5095 142.337 14.9648 142.337 13.4375 142.337C12.1197 142.337 10.7844 142.337 9.46661 142.337V146.949C13.8564 146.967 18.2549 146.94 22.6447 146.949C22.6447 148.271 22.6447 149.61 22.6447 150.94C21.1175 150.94 19.5727 150.94 18.0455 150.94V159.963H26.4149C26.4149 158.501 26.4149 157.022 26.4149 155.561C25.1582 155.561 23.9014 155.561 22.6447 155.561C22.6447 154.029 22.6534 152.48 22.6447 150.949C23.8927 150.949 25.1581 150.949 26.4061 150.949C26.4061 149.627 26.4061 148.288 26.4061 146.966C26.4061 145.435 26.4061 143.886 26.4061 142.355H31.0054C31.0054 139.773 30.9967 137.174 31.0054 134.592H26.4061V134.574Z" fill="#746F8C"/>
<path d="M52.5525 51.2928C51.3044 51.2928 50.0394 51.2928 48.7913 51.2928V55.9052C47.2641 55.9052 45.7194 55.9052 44.1921 55.9052H39.5927C39.5927 57.3665 39.5927 58.8457 39.5927 60.3069C35.2029 60.3161 30.8044 60.3069 26.4146 60.3069V64.289H18.0452C18.0452 65.8209 18.0452 67.3696 18.0452 68.9015C16.5179 68.9015 14.9732 68.9015 13.446 68.9015C13.446 70.4328 13.446 71.9821 13.446 73.5134C12.1281 73.5134 10.7929 73.5134 9.46636 73.5134C9.46636 76.3751 9.47511 79.2546 9.46636 82.1162C7.93911 82.1162 6.39436 82.1162 4.86711 82.1162C4.86711 84.9083 4.87581 87.7177 4.86711 90.5092H9.46636C9.46636 87.7177 9.45761 84.9083 9.46636 82.1162C10.7842 82.1162 12.1194 82.1162 13.446 82.1162C13.446 80.5849 13.446 79.0356 13.446 77.5043C13.446 76.1827 13.446 74.8437 13.446 73.5221C14.9732 73.5134 16.5179 73.5221 18.0452 73.5221C18.0452 74.8437 18.0452 76.1827 18.0452 77.5043C18.0365 80.5061 18.0452 83.5166 18.0452 86.5271H13.446V95.1304H9.47507C9.47507 97.992 9.47507 100.872 9.47507 103.733C10.7929 103.733 12.1281 103.733 13.446 103.733V112.756C14.9732 112.765 16.5179 112.739 18.0452 112.756C18.0539 115.618 18.0452 118.497 18.0452 121.359H22.6445V112.756C21.1172 112.747 19.5725 112.774 18.0452 112.756C18.0278 106.884 18.0627 101.003 18.0452 95.1391H22.6445C22.6445 92.277 22.6445 89.4066 22.6445 86.5358C22.6445 82.2037 22.6619 77.8629 22.6445 73.5309C21.1172 73.5309 19.5725 73.5309 18.0452 73.5309C18.0452 71.9995 18.0452 70.4502 18.0452 68.9189C19.5725 68.9189 21.1172 68.9189 22.6445 68.9189C22.6445 70.4502 22.6445 71.9995 22.6445 73.5309H26.4059C26.3972 71.9995 26.4059 70.4502 26.4059 68.9189H31.0051V64.3064H39.584V60.3248C41.1112 60.3248 42.6559 60.3248 44.1832 60.3248C45.7105 60.3248 47.2552 60.3335 48.7826 60.3248V55.9226C50.0307 55.9226 51.2957 55.9226 52.5438 55.9226C54.0713 55.9226 55.6157 55.9226 57.1432 55.9226C57.1432 54.3908 57.1432 52.842 57.1432 51.3102C55.6157 51.3102 54.0713 51.3102 52.5438 51.3102L52.5525 51.2928Z" fill="#495B6D"/>
<path d="M61.76 42.6987V47.3108H57.1611C57.1611 48.6322 57.1611 49.9712 57.1611 51.2928C58.6881 51.2928 60.233 51.3015 61.76 51.2928V47.3108C63.0864 47.3108 64.4133 47.3109 65.731 47.3109C65.7397 45.7793 65.731 44.2302 65.731 42.6987C64.4133 42.6987 63.0777 42.6987 61.76 42.6987Z" fill="#495B6D"/>
<path d="M104.227 55.9139C104.227 57.3752 104.227 58.8544 104.227 60.3161C104.227 63.1777 104.227 66.0573 104.227 68.9189C102.7 68.9189 101.155 68.9189 99.6278 68.9189C99.6278 70.4502 99.6273 71.9995 99.6273 73.5308C101.155 73.5308 102.7 73.5308 104.227 73.5308C104.227 71.9995 104.227 70.4502 104.227 68.9189C105.754 68.9189 107.299 68.9102 108.826 68.9189C108.843 64.5868 108.843 60.246 108.826 55.9139H104.227Z" fill="#495B6D"/>
<path d="M95.8574 73.5308C95.8574 74.8524 95.8574 76.1914 95.8574 77.513C91.4678 77.513 87.069 77.4956 82.6794 77.513V82.1254C81.1519 82.1254 79.607 82.1254 78.08 82.1254C77.0325 82.1254 75.9855 82.1254 74.9385 82.1254V86.5271H70.3391C70.3391 87.8487 70.3391 89.1876 70.3391 90.5092H65.7397C65.7223 96.4519 65.7397 102.403 65.7397 108.336C67.2672 108.336 68.8116 108.336 70.3391 108.336C70.3391 112.668 70.3391 117.01 70.3391 121.342H74.9385C74.9559 117.01 74.9211 112.668 74.9385 108.336C73.411 108.336 71.8661 108.336 70.3391 108.336C70.3391 102.394 70.3043 96.4432 70.3391 90.5092C72.9136 90.5092 75.5055 90.5092 78.08 90.5092V86.5184C79.6075 86.5184 81.1519 86.5184 82.6794 86.5184V82.1162C85.5333 82.1162 88.4046 82.1162 91.258 82.1162C92.7855 82.1162 94.3304 82.1162 95.8574 82.1162C95.8574 80.5849 95.8574 79.0356 95.8574 77.5043C97.1055 77.5043 98.371 77.5043 99.6191 77.5043C99.6191 76.1827 99.6191 74.8437 99.6191 73.5221H95.8574V73.5308Z" fill="#495B6D"/>
<path d="M35.6135 142.337C35.6135 143.868 35.6047 145.418 35.6135 146.949H31.0142V150.94C29.487 150.94 27.9422 150.94 26.415 150.94C26.415 152.471 26.415 154.021 26.415 155.552C30.8048 155.578 35.2033 155.561 39.5931 155.552V150.94C38.2753 150.94 36.94 150.94 35.6135 150.94C35.6135 149.618 35.6135 148.279 35.6135 146.949H39.5843C41.1116 146.949 42.6563 146.949 44.1836 146.949V142.337H35.6135Z" fill="#495B6D"/>
<path d="M65.731 134.574C65.731 136.036 65.7397 137.515 65.731 138.976C64.4128 138.976 63.0777 138.959 61.76 138.976C61.76 139.466 61.76 139.956 61.76 140.447C61.76 141.077 61.76 141.707 61.76 142.337C60.9223 142.337 60.0841 142.337 59.2464 142.337C58.5484 142.337 57.8504 142.337 57.1519 142.337C57.1258 143.868 57.1606 145.418 57.1519 146.949C55.6249 146.949 54.08 146.949 52.553 146.949C51.3049 146.949 50.0394 146.949 48.7913 146.949C48.7913 148.271 48.7913 149.61 48.7913 150.931C45.728 150.94 42.6473 150.949 39.5841 150.931V155.543C42.6473 155.543 45.728 155.543 48.7913 155.543C48.7913 154.012 48.7913 152.463 48.7913 150.931C51.5751 150.923 54.3768 150.931 57.1606 150.931C57.1606 149.61 57.1606 148.271 57.1606 146.94C58.6881 146.94 60.2325 146.94 61.76 146.94C61.76 145.409 61.76 143.86 61.76 142.328C63.0777 142.328 64.4128 142.328 65.7397 142.328C65.7397 141.208 65.731 140.088 65.7397 138.967C67.2667 138.967 68.8116 138.967 70.3386 138.967C70.3386 137.506 70.3386 136.027 70.3386 134.565C68.8116 134.565 67.2667 134.557 65.7397 134.565L65.731 134.574Z" fill="#746F8C"/>
<path d="M65.731 125.971C65.731 127.293 65.731 128.632 65.731 129.953C65.731 131.485 65.731 133.034 65.731 134.565C67.258 134.557 68.8029 134.565 70.3304 134.565C70.3478 131.704 70.3304 128.824 70.3304 125.963H65.731V125.971Z" fill="#495B6D"/>
<path d="M70.3386 121.359C70.3386 122.891 70.3386 124.44 70.3386 125.971C71.8661 125.971 73.411 125.971 74.938 125.971C74.938 124.44 74.938 122.891 74.938 121.359H70.3386Z" fill="#746F8C"/>
<path d="M18.0369 134.574C16.5096 134.574 14.9649 134.583 13.4376 134.574C13.4376 136.036 13.4376 137.515 13.4376 138.976C12.1198 138.976 10.7845 138.976 9.4667 138.976V142.328C8.83835 142.328 8.21 142.328 7.5816 142.328V146.94C8.21 146.94 8.83835 146.94 9.4667 146.94V142.328C10.7845 142.328 12.1198 142.328 13.4376 142.328V138.976C14.9649 138.976 16.5096 138.976 18.0369 138.976C19.5641 138.976 21.1087 138.985 22.636 138.976C22.6447 137.515 22.6361 136.036 22.6361 134.574C21.1088 134.574 19.5641 134.574 18.0369 134.574Z" fill="#495B6D"/>
<path d="M7.58126 142.337C6.67361 142.346 5.76597 142.337 4.85836 142.337V146.949C5.76597 146.949 6.67361 146.94 7.58126 146.949V142.337Z" fill="#746F8C"/>
<path d="M35.6132 77.513C35.6132 79.0448 35.6132 80.5936 35.6132 82.1254C34.086 82.1254 32.5413 82.1254 31.014 82.1254C31.014 84.9169 31.0227 87.7264 31.014 90.5179C30.9878 97.9306 31.0315 105.343 31.014 112.756H26.4147C26.4147 118.488 26.4322 124.23 26.4147 129.953H31.014C31.0227 127.092 31.014 124.212 31.014 121.351H35.6132C35.6132 122.882 35.6132 124.431 35.6132 125.963H44.1921C44.1921 124.431 44.1921 122.882 44.1921 121.351H39.5928C39.5928 119.819 39.5928 118.27 39.5928 116.738C39.5928 115.417 39.5928 114.078 39.5928 112.756H35.6132C35.6132 111.295 35.6132 109.816 35.6132 108.354C35.5958 105.492 35.6132 102.613 35.6132 99.751C35.6132 93.8789 35.6132 87.9975 35.6132 82.1341C36.9311 82.1341 38.2663 82.1341 39.5841 82.1341V77.5217H35.6132V77.513Z" fill="#495B6D"/>
<path d="M22.6445 86.5358C22.6445 89.3979 22.6445 92.277 22.6445 95.1391C22.6445 96.6704 22.6445 98.2197 22.6445 99.751H26.4147C26.4147 102.613 26.4059 105.483 26.4147 108.354C26.4147 109.816 26.4147 111.295 26.4147 112.756H31.014C31.0315 105.352 30.9878 97.9306 31.014 90.5179L26.4147 90.5179V86.5363H22.6533L22.6445 86.5358Z" fill="#746F8C"/>
<path d="M22.6445 99.751C22.6533 102.613 22.6445 105.492 22.6445 108.354H26.4147C26.4059 105.492 26.4147 102.613 26.4147 99.751H22.6445Z" fill="#495B6D"/>
<path d="M9.4667 116.747C9.4667 118.279 9.4667 119.827 9.4667 121.359C7.93945 121.368 6.3947 121.359 4.86745 121.359V125.971H9.4667C9.4667 124.44 9.4667 122.891 9.4667 121.359C10.7845 121.359 12.1198 121.359 13.4376 121.359V116.747C12.1198 116.747 10.7845 116.747 9.4667 116.747Z" fill="#495B6D"/>
<path d="M26.4061 129.962C26.4061 131.493 26.4061 133.043 26.4061 134.574L31.0054 134.574C31.0054 133.043 31.0054 131.493 31.0054 129.962H26.4061Z" fill="#746F8C"/>
<path d="M35.6131 125.971C35.6219 128.833 35.6131 131.712 35.6131 134.574H31.0139C31.0051 137.156 31.014 139.755 31.014 142.337H26.4147C26.4147 143.868 26.4147 145.418 26.4147 146.949H35.6219C35.6132 145.418 35.6219 143.868 35.6219 142.337C35.6219 141.217 35.6219 140.097 35.6219 138.985C35.6219 137.524 35.6219 136.044 35.6219 134.583H39.5928V125.98H35.6219L35.6131 125.971Z" fill="#746F8C"/>
<path d="M22.6445 134.574C22.6445 136.036 22.6532 137.515 22.6445 138.976C21.1172 138.985 19.5725 138.976 18.0452 138.976V142.328C19.5725 142.328 21.1172 142.328 22.6445 142.328C22.6445 141.208 22.6358 140.088 22.6445 138.967C23.9012 138.967 25.1579 138.967 26.4146 138.967C26.4146 137.506 26.4146 136.027 26.4146 134.565C25.1666 134.565 23.9012 134.565 22.6532 134.565L22.6445 134.574Z" fill="#746F8C"/>
<path d="M18.0368 129.962C18.0368 129.542 18.1328 127.328 18.0368 127.231C17.9408 127.135 16.0383 127.328 15.9423 127.231C15.8638 127.153 16.0296 126.05 15.9423 125.971C15.855 125.892 13.9351 126.041 13.5511 125.971C13.3329 126.006 13.4287 129.498 13.4287 129.962C13.8214 129.962 15.855 129.875 15.9423 129.962C16.0296 130.05 15.8463 131.756 15.9423 131.853C16.0208 131.931 17.679 131.791 18.0368 131.853C18.0368 131.222 18.0368 130.592 18.0368 129.962Z" fill="#746F8C"/>
<path d="M13.4376 129.962C12.1198 129.945 10.7845 129.971 9.4667 129.962V134.574C10.7845 134.574 12.1198 134.574 13.4376 134.574C13.4376 133.043 13.4376 131.493 13.4376 129.962Z" fill="#746F8C"/>
<path d="M26.4059 146.949C26.4059 148.271 26.4059 149.61 26.4059 150.931C25.158 150.931 23.8925 150.931 22.6445 150.931C22.6445 152.463 22.6445 154.012 22.6445 155.543C23.9012 155.543 25.158 155.534 26.4147 155.543C26.4147 154.012 26.4147 152.463 26.4147 150.931C27.9419 150.931 29.4867 150.931 31.0139 150.931V146.94H26.4147L26.4059 146.949Z" fill="#746F8C"/>
<path d="M13.4376 138.976V142.328C14.9649 142.328 16.5096 142.328 18.0369 142.328V138.976C16.5096 138.976 14.9649 138.976 13.4376 138.976Z" fill="#746F8C"/>
<path d="M18.0365 68.9189C18.0365 70.4502 18.0365 71.9995 18.0365 73.5309C19.5637 73.5309 21.1085 73.5309 22.6357 73.5309C22.6357 71.9995 22.6357 70.4502 22.6357 68.9189C21.1085 68.9189 19.5637 68.9189 18.0365 68.9189Z" fill="#746F8C"/>
<path d="M39.5841 60.3161V68.9189C38.2663 68.9189 36.931 68.9189 35.6045 68.9189C35.6045 70.4502 35.6045 71.9995 35.6045 73.5308C34.0772 73.5308 32.5325 73.5308 31.0053 73.5308V77.513H26.406C26.406 76.1914 26.4059 74.8524 26.4059 73.5309H22.6445C22.6619 77.8629 22.6445 82.2037 22.6445 86.5358L26.406 86.5358V90.5179H31.0053C31.014 87.7264 31.0053 84.9169 31.0053 82.1249C32.5325 82.1249 34.0772 82.1249 35.6045 82.1249C35.6045 80.5936 35.6045 79.0443 35.6045 77.513C35.6045 76.1914 35.6045 74.8524 35.6045 73.5308C36.9223 73.5308 38.2576 73.5308 39.5754 73.5308V68.9189C41.1026 68.9102 42.6474 68.9189 44.1746 68.9189V60.3161C42.6474 60.3161 41.1026 60.3161 39.5754 60.3161H39.5841Z" fill="#746F8C"/>
<path d="M39.5843 64.2977H31.0055V68.9102H26.4062C26.4062 70.4415 26.3975 71.9908 26.4062 73.5221C26.4062 74.8437 26.4062 76.1827 26.4062 77.5043H31.0055V73.5221C32.5327 73.5221 34.0774 73.5221 35.6047 73.5221C35.6047 71.9908 35.6047 70.4415 35.6047 68.9102C36.9225 68.9102 38.2578 68.9102 39.5843 68.9102V64.2977Z" fill="#B6AFCE"/>
<path d="M65.731 108.354C65.731 112.686 65.731 117.027 65.731 121.359H70.3304C70.3304 117.027 70.3304 112.686 70.3304 108.354C68.8029 108.354 67.2585 108.354 65.731 108.354Z" fill="#746F8C"/>
<path d="M70.3386 82.1341C68.8116 82.1341 67.2667 82.1341 65.7397 82.1341C65.7397 83.5954 65.7397 85.0745 65.7397 86.5358C65.7397 87.8574 65.7397 89.1963 65.7397 90.5179H70.3386C70.3386 89.1963 70.3386 87.8574 70.3386 86.5358H74.938V82.1341C73.411 82.1341 71.8661 82.1341 70.3386 82.1341Z" fill="#746F8C"/>
<path d="M35.6135 146.949C35.6135 148.271 35.6135 149.61 35.6135 150.94C36.9313 150.94 38.2665 150.94 39.5931 150.94L39.5928 146.958H35.6219L35.6135 146.949Z" fill="#B6AFCE"/>
<path d="M13.4374 77.513C13.4374 79.0448 13.4374 80.5936 13.4374 82.1254C12.1196 82.1254 10.7844 82.1254 9.45781 82.1254C9.44906 84.917 9.45781 87.7264 9.45781 90.5179C9.45781 92.0498 9.45781 93.5985 9.45781 95.1304H13.4287V86.5271H18.0279C18.0279 83.5253 18.0192 80.5148 18.0279 77.5043H13.4287L13.4374 77.513Z" fill="#746F8C"/>
<path d="M48.7913 142.337C48.7913 143.868 48.7913 145.418 48.7913 146.949C47.264 146.949 45.7192 146.949 44.192 146.949C42.6647 146.949 41.12 146.949 39.5927 146.949V150.931C42.656 150.949 45.7367 150.94 48.8 150.931C48.8 149.61 48.8 148.271 48.8 146.949C50.0481 146.949 51.3136 146.949 52.5612 146.949V142.337C51.3136 142.337 50.0481 142.337 48.8 142.337H48.7913Z" fill="#746F8C"/>
<path d="M57.1611 125.971C57.1611 128.833 57.1785 131.712 57.1611 134.574C57.1611 136.036 57.1611 137.515 57.1611 138.976C55.6336 138.976 54.0887 138.976 52.5617 138.976V142.328C54.0887 142.328 55.6336 142.328 57.1611 142.328C57.1698 141.698 57.1524 141.068 57.1611 140.438C57.8591 140.438 58.5571 140.455 59.2556 140.438C59.273 139.948 59.2469 139.458 59.2556 138.967C60.0933 138.967 60.931 138.976 61.7687 138.967C61.7687 137.506 61.7687 136.027 61.7687 134.565C63.0956 134.565 64.422 134.565 65.7484 134.565C65.7484 133.034 65.7484 131.485 65.7484 129.953H61.7774V125.971H57.1611Z" fill="#746F8C"/>
<path d="M65.731 121.359C65.731 122.891 65.731 124.44 65.731 125.971L70.3304 125.971C70.3304 124.44 70.3304 122.891 70.3304 121.359H65.731Z" fill="#746F8C"/>
<path d="M13.4376 73.5309C13.4376 74.8524 13.4374 76.1914 13.4374 77.513H18.0369C18.0369 76.1914 18.0365 74.8524 18.0365 73.5309C16.5092 73.5309 14.9649 73.5222 13.4376 73.5309Z" fill="#B6AFCE"/>
<path d="M65.731 134.574C64.4128 134.574 63.0782 134.574 61.7513 134.574C61.7513 136.036 61.7513 137.515 61.7513 138.976C60.9136 138.985 60.0759 138.976 59.2382 138.976C59.2295 139.466 59.2556 139.956 59.2382 140.447C58.5397 140.455 57.8417 140.438 57.1437 140.447C57.1437 141.077 57.1611 141.707 57.1437 142.337C55.6162 142.337 54.0713 142.337 52.5443 142.337V146.949C54.0713 146.949 55.6162 146.949 57.1437 146.949C57.1524 145.418 57.1171 143.868 57.1437 142.337C57.8417 142.337 58.5397 142.337 59.2382 142.337C59.2556 141.707 59.2203 141.077 59.2382 140.447C60.0759 140.429 60.9136 140.455 61.7513 140.447C61.7513 139.956 61.7513 139.466 61.7513 138.976C63.069 138.959 64.4046 138.976 65.7223 138.976C65.731 137.515 65.7223 136.036 65.7223 134.574L65.731 134.574Z" fill="#746F8C"/>
<path d="M39.5843 138.976V142.328H44.1836V138.976C42.6563 138.976 41.1116 138.976 39.5843 138.976Z" fill="#746F8C"/>
<path d="M52.5525 121.359H48.7913V129.962H44.192C44.192 132.964 44.192 135.974 44.192 138.985C45.7192 138.985 47.2639 138.985 48.7913 138.985C48.7913 137.524 48.7913 136.044 48.7913 134.583C50.0481 134.583 51.3049 134.592 52.5612 134.583V121.368L52.5525 121.359Z" fill="#746F8C"/>
<path d="M52.553 134.574V138.976C51.3049 138.976 50.0394 138.976 48.7913 138.976C48.7913 140.097 48.7913 141.217 48.7913 142.328C50.0394 142.328 51.3049 142.328 52.553 142.328V138.976C54.08 138.976 55.6249 138.976 57.1519 138.976C57.1519 137.515 57.1519 136.036 57.1519 134.574C55.6249 134.574 54.08 134.565 52.553 134.574Z" fill="#746F8C"/>
<path d="M59.2464 140.447C59.229 141.077 59.2638 141.707 59.2464 142.337C60.0841 142.337 60.9223 142.337 61.76 142.337C61.76 141.707 61.76 141.077 61.76 140.447C60.9223 140.455 60.0841 140.429 59.2464 140.447Z" fill="#495B6D"/>
<path d="M48.7913 88.0063H46.0685C46.0074 88.4002 46.1558 90.4391 46.0685 90.5266C45.99 90.6054 44.5151 90.4657 44.1834 90.5266V103.742H39.5842V99.7597H35.6133C35.6133 102.622 35.5959 105.501 35.6133 108.363H39.5929C39.5929 109.824 39.5929 111.303 39.5929 112.765C39.5929 114.086 39.5929 115.425 39.5929 116.747H44.1922C44.1922 118.279 44.1922 119.827 44.1922 121.359C44.1922 122.891 44.1922 124.44 44.1922 125.971C44.1922 127.293 44.1922 128.632 44.1922 129.953H48.7913V121.351H52.553V108.345C51.2962 108.345 50.0394 108.345 48.7826 108.345C48.7826 105.483 48.7913 102.604 48.7826 99.7423C48.7739 95.8303 48.7739 91.9096 48.7826 87.9976L48.7913 88.0063Z" fill="#746F8C"/>
<path d="M39.5843 125.971L39.5843 138.976L35.6135 138.976C35.6135 140.097 35.6135 141.217 35.6135 142.328L39.5843 142.328V138.976C41.1116 138.976 42.6563 138.976 44.1836 138.976C44.1836 135.974 44.1836 132.964 44.1836 129.953C44.1836 128.632 44.1836 127.293 44.1836 125.971H39.5843Z" fill="#746F8C"/>
<path d="M52.553 112.756L52.553 134.574C54.08 134.565 55.6249 134.574 57.1519 134.574C57.1698 131.712 57.1519 128.833 57.1519 125.971C57.1519 121.569 57.1519 117.158 57.1519 112.756H52.553Z" fill="#746F8C"/>
<path d="M44.1921 138.976V142.328L48.7913 142.328C48.7913 141.208 48.7913 140.088 48.7913 138.976C47.2642 138.976 45.7194 138.976 44.1921 138.976Z" fill="#746F8C"/>
<path d="M52.553 134.574C51.2962 134.574 50.0394 134.574 48.7826 134.574C48.7826 136.036 48.7826 137.515 48.7826 138.976C50.0307 138.976 51.2962 138.976 52.5443 138.976V134.574H52.553Z" fill="#746F8C"/>
<path d="M39.5843 116.747C39.5843 118.279 39.5843 119.827 39.5843 121.359H44.1836C44.1836 119.819 44.1836 118.279 44.1836 116.738H39.5843V116.747Z" fill="#746F8C"/>
<path d="M35.6132 108.354C35.6132 109.816 35.6132 111.295 35.6132 112.756H39.5928C39.5928 111.286 39.5928 109.816 39.5928 108.345H35.6132L35.6132 108.354Z" fill="#746F8C"/>
<path d="M35.6131 134.574C35.6131 136.036 35.6135 137.515 35.6135 138.976L39.5843 138.976L39.5843 134.574L35.6131 134.574Z" fill="#495B6D"/>
<path d="M39.5841 68.9189L39.5843 73.5309C38.2665 73.5309 36.9313 73.5309 35.6135 73.5309C35.6135 74.8524 35.6132 76.1914 35.6132 77.513L39.5843 77.513V73.5309C41.1116 73.5309 42.6563 73.5309 44.1836 73.5309C44.1836 71.9995 44.1836 70.4502 44.1836 68.9189C42.6563 68.9189 41.1114 68.9102 39.5841 68.9189Z" fill="#746F8C"/>
<path d="M57.1606 86.5363C57.1693 89.3979 57.1606 92.277 57.1606 95.1391H61.76C61.76 92.277 61.7513 89.3979 61.76 86.5363H57.1606Z" fill="#B6AFCE"/>
<path d="M74.938 73.5309C75.9855 73.5222 77.0325 73.5309 78.08 73.5309V68.9189H74.938C74.938 70.4502 74.9467 71.9995 74.938 73.5309C71.8748 73.5574 68.7942 73.5309 65.731 73.5309C65.731 74.8524 65.731 76.1914 65.731 77.5217C64.4046 77.5217 63.0777 77.5217 61.7513 77.5217C61.7513 80.5235 61.76 83.534 61.7513 86.545H65.7223C65.7223 85.0832 65.7223 83.6041 65.7223 82.1428C67.2493 82.1428 68.7942 82.1428 70.3217 82.1428V77.5304H74.9206C74.9206 76.2088 74.9206 74.8698 74.9206 73.5487L74.938 73.5309Z" fill="#B6AFCE"/>
<path d="M61.76 68.9189C61.76 70.4502 61.76 71.9995 61.76 73.5308C60.233 73.5308 58.6881 73.5308 57.1611 73.5308C57.1611 74.8524 57.1611 76.1914 57.1611 77.513H52.5617C52.5617 79.0443 52.5617 80.5936 52.5617 82.1249C52.5617 83.5867 52.5617 85.0658 52.5617 86.5271H48.8C48.8 87.0173 48.8 87.5074 48.8 87.9976C48.7913 91.9096 48.7913 95.8303 48.8 99.7423H52.5617C52.5617 98.8321 52.5617 97.9219 52.5617 97.0117C52.5617 93.5197 52.5617 90.0191 52.5617 86.5271H57.1611C57.1519 83.5253 57.1611 80.5148 57.1611 77.5043C58.6881 77.5043 60.233 77.513 61.76 77.5043C61.76 76.1827 61.76 74.8437 61.76 73.5221C63.0777 73.5221 64.4133 73.5221 65.731 73.5221C65.7397 71.9908 65.731 70.4415 65.731 68.9102C64.4133 68.9102 63.0777 68.9102 61.76 68.9102V68.9189Z" fill="#746F8C"/>
<path d="M52.553 97.0204C52.553 97.9306 52.553 98.8408 52.553 99.751C52.553 101.073 52.553 102.412 52.553 103.733H57.1519C57.1432 101.501 57.1519 99.2522 57.1519 97.0204H52.553Z" fill="#746F8C"/>
<path d="M52.553 103.733C52.553 105.265 52.553 106.814 52.553 108.345C54.08 108.354 55.6249 108.345 57.1519 108.345C57.1519 106.814 57.1519 105.265 57.1519 103.733H52.553Z" fill="#746F8C"/>
<path d="M48.7913 99.751C48.8 102.613 48.7913 105.492 48.7913 108.354C50.0481 108.354 51.3049 108.345 52.5612 108.354V112.756H57.1606C57.1606 111.295 57.1606 109.816 57.1606 108.354C55.6336 108.354 54.0887 108.363 52.5612 108.354C52.5612 106.822 52.5612 105.274 52.5612 103.742C52.5612 102.42 52.5612 101.081 52.5612 99.7597H48.8L48.7913 99.751Z" fill="#495B6D"/>
<path d="M65.731 68.9189C67.2585 68.9189 68.8029 68.9189 70.3304 68.9189V64.3064H61.7513C61.7513 65.8383 61.7513 67.387 61.7513 68.9189C60.2243 68.9189 58.6794 68.9189 57.1524 68.9189C57.1524 70.4502 57.1524 71.9995 57.1524 73.5309C55.6249 73.5309 54.08 73.5309 52.553 73.5309C52.553 74.8524 52.553 76.1914 52.553 77.513H57.1524C57.1524 76.1914 57.1524 74.8524 57.1524 73.5309C58.6794 73.5309 60.2243 73.5309 61.7513 73.5309C61.7513 71.9995 61.7513 70.4502 61.7513 68.9189C63.0695 68.9189 64.4046 68.9189 65.7223 68.9189H65.731Z" fill="#746F8C"/>
<path d="M57.1606 68.9189C57.1606 67.387 57.1606 65.8383 57.1606 64.3064H52.5612C52.5612 65.8383 52.5612 67.387 52.5612 68.9189C51.3049 68.9189 50.0481 68.9189 48.7913 68.9189C48.7913 70.4502 48.8 71.9995 48.7913 73.5309C47.2639 73.5309 45.7192 73.5309 44.192 73.5309C44.192 74.8524 44.192 76.1914 44.192 77.513C42.6647 77.513 41.12 77.513 39.5927 77.513V82.1249C41.12 82.1249 42.6647 82.1249 44.192 82.1249C44.192 80.5936 44.192 79.0443 44.192 77.513C45.7192 77.513 47.2639 77.513 48.7913 77.513C48.7913 76.1914 48.7918 74.8524 48.7918 73.5221C50.0394 73.5221 51.3049 73.5221 52.5525 73.5221C52.5525 71.9908 52.5525 70.4415 52.5525 68.9102C54.08 68.9015 55.6244 68.9102 57.1519 68.9102L57.1606 68.9189Z" fill="#B6AFCE"/>
<path d="M44.1921 142.337L44.192 146.949C45.7192 146.949 47.264 146.949 48.7913 146.949C48.7913 145.418 48.7913 143.868 48.7913 142.337H44.1921Z" fill="#B6AFCE"/>
<path d="M52.553 82.1341H48.7826C48.7826 83.5954 48.7826 85.0745 48.7826 86.5358H52.5443C52.5443 85.0745 52.5443 83.5954 52.5443 82.1341H52.553Z" fill="#746F8C"/>
</g>
<defs>
<clipPath id="clip0_28_11455">
<rect width="165.317" height="160" fill="white"/>
</clipPath>
</defs>
</svg>
