<?xml version="1.0" encoding="UTF-8"?>
<!-- Generator: visioncortex VTracer 0.6.5 -->
<svg version="1.1" xmlns="http://www.w3.org/2000/svg" width="150" height="102">
<path d="M0,0 L11,0 L13,2 L18,4 L18,6 L25,6 L28,8 L32,10 L36,14 L38,19 L39,20 L39,35 L46,35 L48,37 L55,39 L61,42 L67,45 L74,53 L77,56 L77,61 L73,65 L69,66 L68,70 L62,76 L57,78 L55,79 L49,79 L47,78 L47,76 L42,75 L41,74 L34,74 L30,78 L25,81 L18,81 L16,79 L0,79 L-2,77 L-12,76 L-12,78 L-17,80 L-18,81 L-25,81 L-31,77 L-40,76 L-42,74 L-47,72 L-51,68 L-56,68 L-58,66 L-63,64 L-66,61 L-66,55 L-54,43 L-50,42 L-44,39 L-36,36 L-35,35 L-28,35 L-28,20 L-26,18 L-24,13 L-19,8 L-15,7 L-7,4 L-1,1 Z " fill="#2B321A" transform="translate(71,7)"/>
<path d="M0,0 L14,0 L15,2 L19,3 L20,5 L27,6 L28,8 L33,10 L34,15 L21,14 L20,13 L4,12 L4,15 L1,16 L0,22 L3,21 L5,14 L6,17 L10,17 L9,21 L10,24 L0,27 L-2,27 L-2,29 L19,30 L24,32 L25,36 L29,35 L30,40 L30,43 L29,44 L42,45 L42,47 L40,48 L-6,48 L-7,49 L-32,49 L-32,52 L-45,53 L-46,55 L-55,56 L-60,58 L-60,52 L-56,48 L-55,46 L-53,46 L-52,43 L-42,39 L-34,36 L-33,35 L-26,35 L-26,33 L-22,32 L-22,25 L-17,25 L-18,21 L-22,20 L-22,16 L-20,16 L-20,11 L-18,11 L-18,9 L-12,9 L-12,6 L-4,6 L-4,3 L0,3 Z " fill="#CECBBF" transform="translate(69,10)"/>
<path d="M0,0 L4,0 L4,3 L0,3 L0,6 L-8,6 L-8,9 L-14,9 L-14,11 L-16,11 L-16,16 L-18,16 L-18,20 L-13,21 L-13,25 L-18,25 L-17,33 L-22,33 L-22,35 L-29,36 L-31,38 L-38,40 L-48,44 L-49,46 L-51,46 L-53,51 L-56,52 L-56,58 L-51,55 L-42,55 L-41,52 L-28,52 L-28,49 L-3,48 L-2,47 L25,47 L26,49 L51,50 L52,52 L63,53 L65,55 L71,56 L71,60 L74,60 L73,66 L71,66 L71,64 L65,62 L63,60 L58,58 L51,58 L45,60 L44,65 L47,67 L47,69 L39,69 L37,67 L37,64 L32,62 L32,59 L38,56 L39,54 L27,54 L26,53 L11,52 L9,58 L2,57 L-2,55 L-1,58 L-3,59 L-6,58 L-6,61 L-10,61 L-8,67 L-3,68 L-2,69 L5,70 L6,71 L25,71 L24,75 L31,75 L31,78 L24,78 L22,76 L6,76 L4,74 L-6,73 L-6,75 L-11,77 L-12,78 L-19,78 L-25,74 L-34,73 L-36,71 L-41,69 L-45,65 L-50,65 L-52,63 L-57,61 L-60,58 L-60,52 L-48,40 L-44,39 L-38,36 L-30,33 L-29,32 L-22,32 L-22,17 L-20,15 L-18,10 L-13,5 L-9,4 L-1,1 Z " fill="#071A05" transform="translate(65,10)"/>
<path d="M0,0 L12,0 L10,5 L18,6 L21,6 L20,9 L-8,11 L-13,14 L-16,15 L-15,20 L-10,21 L-8,17 L-7,18 L-7,24 L-9,24 L-9,26 L-13,27 L-1,29 L0,32 L-8,32 L-8,34 L-3,34 L-3,37 L-13,37 L-13,39 L-11,39 L-11,42 L-16,42 L-16,45 L-9,45 L-9,47 L-34,47 L-34,50 L-47,51 L-48,52 L-55,52 L-56,55 L-61,57 L-61,51 L-57,47 L-56,45 L-54,45 L-53,42 L-43,38 L-35,35 L-34,34 L-27,34 L-27,32 L-23,31 L-23,24 L-18,24 L-19,20 L-23,19 L-23,15 L-21,15 L-21,10 L-19,10 L-19,8 L-13,8 L-13,5 L-5,5 L-5,2 Z " fill="#F5F4F1" transform="translate(70,11)"/>
<path d="M0,0 L16,0 L17,1 L30,3 L31,0 L34,5 L34,8 L30,8 L30,6 L24,4 L24,7 L18,7 L19,11 L23,11 L24,9 L27,9 L27,14 L24,16 L17,16 L24,17 L25,19 L37,21 L37,24 L45,24 L45,26 L52,26 L53,29 L58,29 L59,31 L63,32 L63,34 L66,34 L71,40 L71,46 L65,46 L65,43 L56,43 L55,42 L44,41 L43,38 L18,38 L17,36 L38,35 L38,33 L24,33 L26,29 L24,27 L25,23 L21,24 L20,20 L15,19 L-6,17 L-6,15 L3,12 L6,12 L4,8 L6,5 L1,4 L-1,10 L-4,10 L-4,4 L0,3 Z " fill="#A9A799" transform="translate(73,22)"/>
<path d="M0,0 L18,0 L20,3 L20,6 L17,8 L16,11 L19,9 L22,9 L22,12 L27,13 L28,16 L24,16 L25,20 L23,22 L16,22 L10,18 L1,17 L-1,15 L-6,13 L-10,9 L-15,9 L-13,7 L-9,7 L-10,4 Z " fill="#333E29" transform="translate(30,66)"/>
<path d="M0,0 L12,0 L10,1 L12,4 L18,6 L18,9 L4,9 L4,11 L19,11 L19,14 L14,16 L7,17 L6,19 L-6,19 L-7,18 L-14,17 L-16,15 L-20,14 L-22,11 L-22,8 L-18,8 L-18,5 L-14,4 L-14,2 L-5,4 L-3,5 Z " fill="#979383" transform="translate(77,63)"/>
<path d="M0,0 L1,2 L8,2 L9,5 L14,5 L15,7 L19,8 L19,10 L22,10 L27,16 L27,22 L21,22 L21,19 L12,19 L11,18 L0,17 L-1,14 L-26,14 L-27,12 L0,12 L0,10 L-5,9 L-5,7 L-9,7 L-9,4 L-7,4 L-7,2 L0,2 Z " fill="#877E6B" transform="translate(117,46)"/>
<path d="M0,0 L17,0 L18,1 L31,2 L38,4 L38,8 L41,8 L40,14 L38,14 L38,12 L32,10 L30,8 L25,6 L18,6 L12,8 L11,13 L14,15 L14,17 L6,17 L4,15 L4,12 L-1,10 L-1,7 L5,4 L6,2 L0,2 Z " fill="#091B04" transform="translate(98,62)"/>
<path d="M0,0 L4,0 L4,3 L0,3 L0,6 L-8,6 L-8,9 L-14,9 L-14,11 L-16,11 L-16,16 L-18,16 L-18,20 L-13,21 L-13,25 L-18,25 L-17,33 L-22,33 L-22,35 L-29,36 L-31,38 L-38,40 L-48,44 L-49,46 L-51,46 L-53,51 L-56,52 L-56,58 L-54,59 L-57,59 L-57,52 L-59,51 L-48,40 L-44,39 L-38,36 L-30,33 L-29,32 L-22,32 L-22,17 L-20,15 L-18,10 L-13,5 L-9,4 L-1,1 Z " fill="#344430" transform="translate(65,10)"/>
<path d="M0,0 L7,0 L12,2 L12,6 L16,6 L17,12 L12,13 L12,15 L2,15 L1,13 L-3,12 L-3,10 L-7,9 L-8,5 L-6,2 Z " fill="#403716" transform="translate(116,67)"/>
<path d="M0,0 L15,0 L16,1 L28,2 L26,6 L21,7 L21,10 L26,12 L28,17 L25,17 L25,20 L21,20 L22,24 L20,25 L20,23 L13,23 L14,19 L7,19 L8,17 L15,16 L20,15 L20,12 L5,12 L5,10 L19,10 L18,7 L12,5 L11,2 L1,1 L-1,7 L-2,3 Z " fill="#343913" transform="translate(76,62)"/>
<path d="M0,0 L26,1 L27,3 L38,4 L38,5 L26,5 L25,4 L8,3 L8,5 L2,5 L1,4 L-14,3 L-16,9 L-23,8 L-27,6 L-26,9 L-28,10 L-31,9 L-31,12 L-35,12 L-35,15 L-37,15 L-37,5 L-29,5 L-29,3 L-26,1 L-23,1 L-23,3 L-21,2 L0,2 Z " fill="#2C341B" transform="translate(90,59)"/>
<path d="M0,0 L21,1 L26,3 L27,7 L31,6 L32,11 L32,14 L30,16 L25,16 L23,14 L16,13 L9,11 L9,9 L19,9 L17,6 L14,6 L15,3 L0,1 Z " fill="#BDB6AD" transform="translate(67,39)"/>
<path d="M0,0 L11,0 L13,2 L18,4 L18,6 L25,6 L28,8 L32,10 L36,14 L38,19 L38,35 L36,35 L36,30 L31,30 L31,25 L36,25 L34,19 L30,13 L25,11 L25,9 L18,9 L17,6 L12,5 L12,3 L-2,3 Z " fill="#2A3A28" transform="translate(71,7)"/>
<path d="M0,0 L6,0 L2,2 L14,4 L15,7 L7,7 L7,9 L12,9 L12,12 L2,12 L2,14 L4,14 L4,17 L-1,17 L-1,19 L-17,19 L-17,17 L-11,15 L-2,14 L-1,12 L-4,11 L-4,9 L1,9 L1,7 L4,4 L0,4 Z " fill="#E8E3DB" transform="translate(55,36)"/>
<path d="M0,0 L4,1 L6,2 L6,4 L10,4 L10,6 L5,6 L5,11 L10,11 L10,16 L12,16 L12,1 L13,1 L13,16 L20,16 L20,17 L14,17 L14,19 L20,19 L20,20 L13,20 L13,17 L4,17 L0,15 L0,13 L-8,13 L-7,11 L0,11 L2,10 L3,5 L0,5 L-1,8 L-6,7 L-6,3 L0,3 Z " fill="#535640" transform="translate(97,26)"/>
<path d="M0,0 L7,0 L7,2 L13,2 L15,5 L14,9 L10,9 L10,12 L-1,12 L-1,9 L-5,9 L-4,4 L-1,2 Z " fill="#7D7663" transform="translate(30,68)"/>
<path d="M0,0 L6,0 L6,3 L14,3 L16,6 L21,5 L28,5 L28,7 L21,7 L21,9 L19,9 L19,12 L23,12 L24,14 L28,15 L28,17 L21,18 L3,18 L3,17 L22,16 L22,14 L8,14 L10,10 L8,8 L9,4 L5,5 L4,1 Z " fill="#A19F8E" transform="translate(89,41)"/>
<path d="M0,0 L9,1 L9,3 L21,5 L21,8 L15,9 L14,11 L2,11 L-3,6 Z " fill="#E3F607" transform="translate(69,71)"/>
<path d="M0,0 L2,4 L6,4 L7,2 L10,2 L10,7 L7,9 L0,9 L7,10 L8,12 L20,14 L19,19 L14,18 L13,16 L5,15 L5,12 L-2,12 L-2,10 L-15,10 L-15,7 L1,7 Z " fill="#847D69" transform="translate(90,29)"/>
<path d="M0,0 L9,2 L13,6 L6,6 L5,10 L4,13 L6,15 L0,15 L-2,13 L-6,12 L-8,9 L-8,6 L-4,6 L-4,3 L0,2 Z " fill="#9AC403" transform="translate(63,65)"/>
<path d="M0,0 L7,0 L15,3 L21,6 L27,9 L34,17 L37,20 L37,25 L33,28 L33,26 L26,26 L25,24 L19,23 L19,22 L27,22 L27,25 L33,25 L31,16 L28,15 L28,13 L25,13 L25,11 L20,10 L20,8 L15,8 L14,6 L7,5 L6,3 L0,2 Z " fill="#3D4B38" transform="translate(111,43)"/>
<path d="M0,0 L1,2 L8,2 L9,3 L9,8 L13,8 L14,11 L2,11 L-5,8 L-9,7 L-9,4 L-7,4 L-7,2 L0,2 Z " fill="#877F6C" transform="translate(117,46)"/>
<path d="M0,0 L4,0 L4,3 L0,3 L0,6 L-8,6 L-8,9 L-14,9 L-14,11 L-16,11 L-16,16 L-18,16 L-18,20 L-13,21 L-13,25 L-18,25 L-17,33 L-21,32 L-19,32 L-19,17 L-21,16 L-18,10 L-13,5 L-9,4 L-1,1 Z " fill="#364634" transform="translate(65,10)"/>
<path d="M0,0 L27,0 L27,1 L1,2 L-2,4 L-24,4 L-25,7 L-38,8 L-39,9 L-47,10 L-52,11 L-49,8 L-40,8 L-39,5 L-26,5 L-26,2 L-1,1 Z " fill="#514E37" transform="translate(63,57)"/>
<path d="M0,0 L3,0 L3,7 L11,4 L20,3 L20,5 L24,6 L16,9 L16,11 L9,12 L3,9 L0,6 Z " fill="#0B1804" transform="translate(5,62)"/>
<path d="M0,0 L12,0 L12,2 L22,2 L22,4 L25,4 L25,10 L19,10 L19,6 L12,6 L11,4 L0,3 Z " fill="#999584" transform="translate(119,58)"/>
<path d="M0,0 L12,0 L11,2 L14,4 L14,9 L13,10 L7,10 L7,4 L3,4 L3,1 L1,1 L0,9 L-4,10 L-4,4 L0,3 Z " fill="#9B9888" transform="translate(73,22)"/>
<path d="M0,0 L26,0 L26,3 L3,4 L3,2 L-1,4 L-23,4 L-23,3 L-3,2 Z " fill="#112109" transform="translate(64,58)"/>
<path d="M0,0 L15,0 L23,4 L23,6 L20,6 L20,12 L5,12 L5,10 L19,10 L18,7 L12,5 L11,2 L1,1 L-1,7 L-2,3 Z " fill="#635B44" transform="translate(76,62)"/>
<path d="M0,0 L3,0 L3,3 L8,4 L9,7 L5,7 L6,11 L4,12 L4,10 L-3,10 L-3,7 L-8,7 L-8,5 L-3,3 Z " fill="#736D59" transform="translate(49,75)"/>
<path d="M0,0 L9,0 L14,1 L14,3 L8,3 L8,1 L1,1 L1,5 L-3,6 L-4,10 L0,10 L0,13 L-5,12 L-9,8 L-14,8 L-12,6 L-8,6 L-9,3 Z " fill="#6D6954" transform="translate(29,67)"/>
<path d="M0,0 L3,1 L2,7 L4,7 L3,12 L1,12 L0,8 L-2,11 L-7,11 L-9,9 L-8,4 L-1,1 Z " fill="#F1ECE6" transform="translate(62,21)"/>
<path d="M0,0 L5,0 L7,3 L11,5 L6,5 L2,3 L3,6 L1,7 L-2,6 L-2,9 L-6,9 L-6,12 L-8,12 L-8,2 L0,2 Z " fill="#0B4600" transform="translate(61,62)"/>
<path d="M0,0 L8,0 L8,1 L1,3 L-9,7 L-10,9 L-12,9 L-14,14 L-17,15 L-17,21 L-15,22 L-18,22 L-18,15 L-20,14 L-9,3 L-5,2 Z " fill="#515D4C" transform="translate(26,47)"/>
<path d="M0,0 L9,0 L9,3 L14,3 L14,7 L4,7 L3,5 L0,4 Z " fill="#867E6B" transform="translate(114,75)"/>
<path d="M0,0 L14,0 L21,3 L22,6 L17,7 L17,5 L12,5 L12,2 L3,2 L2,6 L0,3 Z " fill="#796E59" transform="translate(111,73)"/>
<path d="M0,0 L1,2 L8,2 L9,5 L14,6 L21,8 L21,10 L12,10 L4,6 L4,3 L-2,5 L-1,1 Z " fill="#1A260C" transform="translate(48,72)"/>
<path d="M0,0 L6,1 L6,2 L1,2 L0,6 L-1,9 L1,11 L-5,11 L-7,7 L-10,7 L-10,5 L-6,5 L-6,3 L-1,3 Z " fill="#C1E600" transform="translate(68,69)"/>
<path d="M0,0 L3,0 L3,2 L5,1 L25,1 L25,2 L12,2 L10,8 L8,8 L8,6 L3,5 L2,2 L-1,1 Z " fill="#213713" transform="translate(64,60)"/>
<path d="M0,0 L1,2 L9,1 L9,3 L7,4 L6,9 L5,7 L-2,7 L-1,3 L-8,3 L-7,1 Z " fill="#5A672A" transform="translate(91,78)"/>
<path d="M0,0 L4,5 L4,8 L0,8 L0,6 L-6,4 L-6,7 L-12,7 L-11,2 L-3,2 L0,3 Z " fill="#7B715C" transform="translate(103,22)"/>
<path d="M0,0 L9,0 L13,2 L22,3 L21,8 L16,7 L15,5 L7,4 L7,1 L0,1 Z " fill="#887F6C" transform="translate(88,40)"/>
<path d="M0,0 L12,0 L14,5 L5,5 L5,3 L0,3 Z " fill="#999685" transform="translate(25,74)"/>
<path d="M0,0 L2,0 L2,15 L0,15 L0,10 L-5,10 L-5,5 L0,5 Z " fill="#0D1908" transform="translate(107,27)"/>
<path d="M0,0 L1,0 L1,5 L-1,5 L-1,9 L4,10 L4,14 L-1,14 L0,22 L-4,21 L-2,21 L-2,6 L-4,5 L0,4 Z " fill="#96998A" transform="translate(48,21)"/>
<path d="M0,0 L14,0 L15,2 L19,3 L20,7 L19,8 L14,8 L11,6 L13,1 L0,2 Z " fill="#B8B9AB" transform="translate(69,10)"/>
<path d="M0,0 L18,0 L20,3 L20,6 L17,7 L13,4 L13,2 L0,1 Z " fill="#373515" transform="translate(30,66)"/>
<path d="M0,0 L3,1 L4,8 L0,11 L0,9 L-7,9 L-8,7 L-14,6 L-14,5 L-6,5 L-6,8 L0,8 L-1,1 Z " fill="#50553F" transform="translate(144,60)"/>
<path d="M0,0 L2,0 L2,2 L5,2 L5,8 L-1,8 L-1,4 L-6,3 L-4,1 Z " fill="#9C9383" transform="translate(139,60)"/>
<path d="M0,0 L1,2 L5,2 L5,5 L0,4 L-7,4 L-11,8 L-15,8 L-15,5 L-11,5 L-11,2 L0,2 Z " fill="#1D2A16" transform="translate(112,77)"/>
<path d="M0,0 L3,0 L3,3 L18,3 L18,6 L12,8 L12,5 L3,5 L0,3 Z " fill="#9AB609" transform="translate(78,71)"/>
<path d="M0,0 L17,0 L17,3 L22,2 L21,5 L15,3 L1,2 L2,6 L0,6 Z " fill="#574C30" transform="translate(110,71)"/>
<path d="M0,0 L2,1 L14,2 L14,3 L2,3 L1,5 L0,4 L-10,3 L-10,5 L-15,5 L-15,2 L-9,1 L0,2 Z " fill="#47621B" transform="translate(69,80)"/>
<path d="M0,0 L1,2 L11,2 L12,0 L12,2 L15,3 L9,6 L3,6 L1,5 L1,3 L-3,2 L0,2 Z " fill="#44513D" transform="translate(117,80)"/>
<path d="M0,0 L3,0 L3,2 L6,3 L5,6 L3,6 L3,8 L-1,7 L-3,3 L0,2 Z " fill="#F8FAC6" transform="translate(75,72)"/>
<path d="M0,0 L7,0 L7,2 L13,2 L15,5 L14,8 L14,6 L11,6 L11,3 L0,4 L-1,2 Z " fill="#70644C" transform="translate(30,68)"/>
<path d="M0,0 L13,0 L13,2 L11,3 L-8,3 L-8,2 L0,2 Z " fill="#BBB6AB" transform="translate(98,55)"/>
<path d="M0,0 L14,0 L16,3 L19,5 L18,6 L13,6 L11,2 L1,1 L-1,7 L-2,3 Z " fill="#7C725F" transform="translate(76,62)"/>
<path d="M0,0 L3,0 L3,2 L6,3 L6,7 L0,7 L0,4 L-5,4 L-5,2 Z " fill="#8C8775" transform="translate(46,78)"/>
<path d="M0,0 L6,0 L6,2 L9,2 L8,8 L6,8 L6,6 L0,4 Z " fill="#051302" transform="translate(130,68)"/>
<path d="M0,0 L1,0 L1,5 L-3,7 L-5,12 L-15,12 L-15,11 L-6,10 L-5,8 L-8,7 L-8,5 L-3,5 L-3,3 Z M-16,12 Z " fill="#F0EAE5" transform="translate(59,40)"/>
<path d="M0,0 L9,0 L14,1 L14,3 L8,3 L8,1 L1,1 L0,4 L-6,4 L-7,6 L-6,2 Z " fill="#5C5237" transform="translate(29,67)"/>
<path d="M0,0 L4,1 L4,3 L-1,8 L-6,7 L-6,3 L0,3 Z " fill="#61573D" transform="translate(97,26)"/>
<path d="M0,0 L4,1 L9,3 L9,4 L4,4 L0,2 L1,5 L-1,6 L-4,5 L-4,8 L-8,8 L-9,11 L-9,6 L-6,4 L-1,4 Z " fill="#508300" transform="translate(63,63)"/>
<path d="M0,0 L14,1 L15,4 L22,4 L22,5 L13,5 L12,4 L1,3 Z " fill="#7D735E" transform="translate(116,60)"/>
<path d="M0,0 L8,0 L6,4 L1,5 L1,8 L3,8 L1,13 L0,13 L0,4 L3,4 L3,2 L0,1 Z " fill="#534E33" transform="translate(96,64)"/>
<path d="M0,0 L2,1 L1,4 L14,4 L14,5 L0,5 L-7,4 L-7,2 Z " fill="#A3A090" transform="translate(74,35)"/>
<path d="M0,0 L7,0 L14,2 L14,5 L7,5 L6,3 L0,2 Z " fill="#1E2E1B" transform="translate(111,43)"/>
<path d="M0,0 L6,0 L9,3 L9,5 L1,5 Z " fill="#B2AEA3" transform="translate(80,66)"/>
<path d="M0,0 L2,0 L2,7 L-3,7 L-4,2 Z " fill="#D3CFC5" transform="translate(58,25)"/>
<path d="M0,0 L7,0 L7,1 L1,1 L0,9 L-4,10 L-4,4 L0,3 Z " fill="#AEA79B" transform="translate(73,22)"/>
<path d="M0,0 L7,0 L7,2 L5,3 L-10,3 L-10,5 L-12,5 L-12,2 L0,2 Z " fill="#0D1D09" transform="translate(83,81)"/>
<path d="M0,0 L14,0 L21,3 L22,6 L18,7 L19,4 L13,4 L13,1 L0,1 Z " fill="#6A5F47" transform="translate(111,73)"/>
<path d="M0,0 L4,1 L2,6 L-3,5 L-3,8 L-6,8 L-7,10 L-8,6 L-4,6 L-4,3 L0,2 Z " fill="#7FAA00" transform="translate(63,65)"/>
<path d="M0,0 L13,0 L13,1 L1,1 L0,4 L-8,5 L-13,6 L-10,3 L-1,3 Z " fill="#716953" transform="translate(24,62)"/>
<path d="M0,0 L1,3 L5,3 L4,7 L5,10 L0,11 L2,4 L0,4 L0,8 L-2,7 Z " fill="#BDB7AE" transform="translate(74,24)"/>
<path d="M0,0 L2,1 L2,4 L-8,4 L-8,6 L-2,6 L-2,7 L-10,7 L-9,3 L-3,2 Z " fill="#CAC7BB" transform="translate(84,44)"/>
<path d="M0,0 L3,0 L2,14 L0,14 Z " fill="#1A2D18" transform="translate(43,27)"/>
<path d="M0,0 L5,1 L7,3 L5,7 L2,6 L1,4 L-2,2 Z " fill="#9D9C8B" transform="translate(85,22)"/>
<path d="M0,0 L5,0 L5,5 L0,6 L-1,2 Z " fill="#75735F" transform="translate(82,26)"/>
<path d="M0,0 L5,0 L12,2 L12,4 L3,4 L0,2 Z " fill="#1B3107" transform="translate(57,78)"/>
<path d="M0,0 L4,0 L2,5 L4,6 L-5,6 Z " fill="#EBE6DE" transform="translate(78,11)"/>
<path d="M0,0 L4,0 L4,3 L-1,5 L-8,5 L-8,3 L-1,1 Z " fill="#263624" transform="translate(65,10)"/>
<path d="M0,0 L8,0 L8,1 L1,3 L-6,6 L-5,2 Z " fill="#364432" transform="translate(26,47)"/>
<path d="M0,0 L3,0 L3,4 L5,5 L-2,5 L-6,3 L-4,2 L0,3 Z " fill="#786D58" transform="translate(103,38)"/>
<path d="M0,0 L5,1 L12,3 L12,4 L3,5 L0,2 Z " fill="#9D9B8A" transform="translate(115,77)"/>
<path d="M0,0 L1,2 L5,3 L-1,4 L-1,2 L-8,4 L-13,4 L-9,2 L-8,1 Z " fill="#2D3217" transform="translate(24,65)"/>
<path d="M0,0 L3,0 L3,5 L2,6 L-3,6 L-3,4 L-1,4 Z " fill="#908A78" transform="translate(97,31)"/>
<path d="M0,0 L2,0 L2,2 L6,3 L0,3 L0,9 L-4,10 L-2,8 L-1,3 L-3,2 Z " fill="#6C624A" transform="translate(101,28)"/>
<path d="M0,0 L9,1 L9,3 L0,3 Z " fill="#B8B4A8" transform="translate(30,76)"/>
<path d="M0,0 L1,3 L-4,3 L-4,9 L-6,8 L-6,6 L-9,6 L-9,4 L-5,4 L-5,2 L0,2 Z " fill="#B2DE00" transform="translate(67,70)"/>
<path d="M0,0 L4,0 L4,2 L6,2 L7,0 L11,4 L9,5 L9,3 L0,3 Z " fill="#7F7865" transform="translate(132,57)"/>
<path d="M0,0 L9,0 L13,2 L13,4 L7,4 L7,1 L0,1 Z " fill="#969381" transform="translate(88,40)"/>
<path d="M0,0 L3,0 L4,9 L0,6 Z " fill="#283826" transform="translate(5,62)"/>
<path d="M0,0 L2,0 L2,3 L-1,4 L-2,10 L0,11 L-4,12 L-3,3 Z " fill="#BCB7AC" transform="translate(71,22)"/>
<path d="M0,0 L2,0 L4,4 L4,7 L-2,5 L-5,4 L1,3 Z " fill="#35412A" transform="translate(20,70)"/>
<path d="M0,0 L7,1 L9,4 L8,7 L8,5 L5,5 L5,2 L-3,2 Z " fill="#685E46" transform="translate(36,69)"/>
<path d="M0,0 L7,0 L5,1 L8,5 L4,4 L0,3 Z " fill="#152413" transform="translate(9,69)"/>
<path d="M0,0 L2,1 L1,7 L3,7 L2,12 L0,12 Z " fill="#EAE4DD" transform="translate(63,21)"/>
<path d="M0,0 L5,1 L5,4 L0,4 L0,2 L-7,2 L-7,1 Z " fill="#4F5B47" transform="translate(96,14)"/>
<path d="M0,0 L7,0 L7,3 L0,3 Z " fill="#1D2E1B" transform="translate(46,85)"/>
<path d="M0,0 L9,0 L8,3 L1,3 L-1,1 Z " fill="#152614" transform="translate(119,83)"/>
<path d="M0,0 L8,0 L8,3 L13,3 L13,4 L7,4 L5,2 L1,1 L0,3 Z " fill="#948C7A" transform="translate(114,76)"/>
<path d="M0,0 L5,0 L3,6 L1,6 Z " fill="#594D32" transform="translate(71,62)"/>
<path d="M0,0 L9,0 L9,2 L1,2 L1,5 L-4,5 L-1,4 Z " fill="#7F8778" transform="translate(56,14)"/>
<path d="M0,0 L6,0 L6,3 L-1,3 Z " fill="#1B2B19" transform="translate(90,85)"/>
<path d="M0,0 L1,2 L8,2 L8,5 L3,5 L3,3 L0,3 Z " fill="#182714" transform="translate(136,67)"/>
<path d="M0,0 L2,0 L2,4 L0,4 L0,6 L-4,6 L-3,3 Z " fill="#C5C1B6" transform="translate(87,29)"/>
<path d="M0,0 L4,5 L4,8 L1,8 L1,5 L-2,4 L0,3 Z " fill="#A9A596" transform="translate(103,22)"/>
<path d="M0,0 L1,2 L5,2 L5,5 L0,4 L-3,2 L0,2 Z " fill="#2D3A27" transform="translate(112,77)"/>
<path d="M0,0 L3,0 L3,3 L6,4 L1,5 L-2,2 Z " fill="#61573F" transform="translate(49,75)"/>
<path d="M0,0 L4,0 L4,2 L7,3 L6,5 L4,5 L4,3 L0,3 Z " fill="#999483" transform="translate(132,54)"/>
<path d="M0,0 L8,0 L8,1 L3,2 L3,4 L-1,5 Z " fill="#8B8370" transform="translate(92,24)"/>
<path d="M0,0 L1,2 L-1,3 L-1,6 L-5,7 L-5,4 L-3,4 L-3,1 Z " fill="#F5FE17" transform="translate(74,72)"/>
<path d="M0,0 L8,0 L6,4 L5,2 L0,1 Z " fill="#3D3616" transform="translate(96,64)"/>
<path d="M0,0 L7,6 L7,8 L5,8 L5,6 L2,5 L2,3 L0,3 Z " fill="#233520" transform="translate(137,53)"/>
<path d="M0,0 L4,1 L1,1 L1,4 L3,4 L3,8 L0,7 Z " fill="#EDE9E3" transform="translate(47,35)"/>
<path d="M0,0 L3,0 L3,3 L-3,4 L-2,1 Z " fill="#908774" transform="translate(92,81)"/>
<path d="M0,0 L7,0 L7,2 L0,4 Z " fill="#1B6900" transform="translate(55,65)"/>
<path d="M0,0 L3,1 L3,6 L0,6 Z " fill="#1E2E1D" transform="translate(145,62)"/>
<path d="M0,0 L7,0 L5,1 L5,3 L0,3 Z " fill="#C1BCB2" transform="translate(62,36)"/>
<path d="M0,0 L2,1 L2,3 L6,4 L0,5 L-3,4 L-2,2 L0,2 Z " fill="#3B4F11" transform="translate(55,74)"/>
<path d="M0,0 L4,0 L4,4 L0,4 Z " fill="#232710" transform="translate(92,30)"/>
<path d="M0,0 L4,0 L4,4 L0,4 Z " fill="#686F5E" transform="translate(55,28)"/>
<path d="M0,0 L3,0 L2,3 L-4,3 L-4,1 Z " fill="#EFE9E3" transform="translate(88,17)"/>
<path d="M0,0 L4,0 L3,4 L0,4 Z " fill="#4D5640" transform="translate(69,28)"/>
<path d="M0,0 L3,1 L2,3 L-2,5 L-1,1 Z " fill="#1E2F08" transform="translate(99,73)"/>
<path d="M0,0 L2,0 L4,6 L0,5 Z " fill="#2D3C2C" transform="translate(105,21)"/>
<path d="M0,0 L5,0 L6,2 L0,3 Z " fill="#756C59" transform="translate(75,69)"/>
<path d="M0,0 L2,0 L2,5 L-1,4 Z " fill="#C1BBB0" transform="translate(142,63)"/>
<path d="M0,0 L5,0 L6,3 L0,2 Z " fill="#1A2919" transform="translate(36,42)"/>
<path d="M0,0 L2,1 L2,7 L0,6 L1,4 L-1,4 Z " fill="#F7F4F1" transform="translate(61,28)"/>
<path d="M0,0 L4,0 L4,3 L0,3 Z " fill="#111E0D" transform="translate(97,82)"/>
<path d="M0,0 L4,0 L4,3 L0,3 Z " fill="#1A2614" transform="translate(54,82)"/>
<path d="M0,0 L8,1 L8,2 L0,3 Z " fill="#B4AEA1" transform="translate(119,79)"/>
<path d="M0,0 L4,0 L5,3 L0,2 Z " fill="#081104" transform="translate(57,78)"/>
<path d="M0,0 L3,0 L3,3 L-2,2 Z " fill="#E3F802" transform="translate(71,78)"/>
<path d="M0,0 L4,0 L4,3 L0,3 Z " fill="#1A2813" transform="translate(41,77)"/>
<path d="M0,0 L4,0 L4,3 L0,3 Z " fill="#1D2C1C" transform="translate(25,77)"/>
<path d="M0,0 L5,1 L5,3 L0,3 Z " fill="#C4BEB5" transform="translate(82,67)"/>
<path d="M0,0 L4,0 L4,3 L0,3 Z " fill="#9F9A8A" transform="translate(126,51)"/>
<path d="M0,0 L4,0 L3,4 L0,2 Z " fill="#8F8A78" transform="translate(106,43)"/>
<path d="M0,0 L4,1 L4,3 L-2,2 Z " fill="#A8A597" transform="translate(135,61)"/>
<path d="M0,0 L3,3 L0,4 L-4,2 L0,2 Z " fill="#54614E" transform="translate(101,16)"/>
<path d="M0,0 L3,0 L3,3 L-1,2 Z " fill="#DCF800" transform="translate(87,76)"/>
<path d="M0,0 L3,0 L1,5 L0,5 Z " fill="#4A7301" transform="translate(96,72)"/>
<path d="M0,0 L2,0 L2,3 L-2,3 L-2,1 Z " fill="#7A715D" transform="translate(42,74)"/>
<path d="M0,0 L1,0 L1,5 L-2,3 L-2,1 Z " fill="#877C69" transform="translate(89,63)"/>
<path d="M0,0 L4,1 L4,3 L0,3 Z " fill="#162716" transform="translate(132,50)"/>
<path d="M0,0 L5,1 L1,3 L-1,4 Z " fill="#505D4A" transform="translate(21,49)"/>
<path d="M0,0 L4,1 L3,3 L0,3 Z " fill="#A6A495" transform="translate(80,32)"/>
<path d="M0,0 L2,0 L2,3 L-2,3 L-2,1 Z " fill="#192917" transform="translate(99,15)"/>
<path d="M0,0 L3,0 L3,3 L0,3 Z " fill="#ADBC19" transform="translate(78,71)"/>
<path d="M0,0 L4,1 L-1,3 Z " fill="#364631" transform="translate(9,58)"/>
<path d="M0,0 L2,0 L1,3 L-2,3 L-2,1 Z " fill="#ADA89B" transform="translate(96,34)"/>
<path d="M0,0 L3,0 L3,3 L0,3 Z " fill="#45523C" transform="translate(48,31)"/>
<path d="M0,0 L3,0 L2,3 L-1,1 Z " fill="#655E47" transform="translate(48,76)"/>
<path d="M0,0 L3,3 L1,4 L-1,2 Z " fill="#222C13" transform="translate(90,59)"/>
<path d="M0,0 L2,0 L2,3 L-1,3 Z " fill="#212B12" transform="translate(83,28)"/>
<path d="M0,0 L3,1 L3,3 L0,3 Z " fill="#162513" transform="translate(52,15)"/>
<path d="M0,0 L2,3 L-1,3 Z " fill="#4B5A47" transform="translate(88,83)"/>
</svg>
