<svg width="160" height="160" viewBox="0 0 160 160" fill="none" xmlns="http://www.w3.org/2000/svg">
<path d="M33.5 26.5V40C33.5 42.15 33.5 44.35 33.5 46.5C33.5 51 33.5 55.5 33.5 60H40C40 64.5 40 69 40 73.5C40 78 40 77.85 40 80C40 84.5 40 89 40 93.5H46.5C46.5 95.65 46.5 97.85 46.5 100C46.5 104.5 46.5 109 46.5 113.5H53.5C53.5 115.65 53.5 117.85 53.5 120C53.6 128.8 53.45 137.7 53.5 146.5C49 146.5 44.5 146.5 40 146.5V126.5C37.85 126.5 35.65 126.5 33.5 126.5C33.5 115.5 33.5 104.5 33.5 93.5C31.15 93.5 28.8 93.5 26.5 93.5C26.5 82.35 26.5 71.15 26.5 60C24.35 60 22.15 60 20 60V26.5C24.5 26.5 29 26.5 33.5 26.5Z" fill="#3E140A"/>
<path d="M46.5007 6.5C46.5007 8.85 46.5007 11.15 46.5007 13.5C46.5007 15.85 46.5007 17.85 46.5007 20C48.8507 20 51.2005 20 53.5005 20V26.5H46.5007C44.3507 26.5 42.1507 26.5 40.0007 26.5C39.9507 19.85 40.0007 13.15 40.0007 6.5C42.1507 6.5 44.3507 6.5 46.5007 6.5Z" fill="#5E2416"/>
<path d="M40 26.5C40 28.85 40 31.2 40 33.5C42.15 33.5 44.35 33.5 46.5 33.5C46.5 35.65 46.5 37.85 46.5 40C46.5 42.15 46.5 44.35 46.5 46.5H40C40 44.35 40 42.15 40 40H33.5V26.5C35.65 26.5 37.85 26.5 40 26.5Z" fill="#883A27"/>
<path d="M53.5 6.5V13.5H46.5C46.5 11.15 46.5 8.85 46.5 6.5C48.85 6.5 51.15 6.5 53.5 6.5Z" fill="#B95931"/>
<path d="M60 6.5V13.5H53.5V6.5C55.65 6.5 57.85 6.5 60 6.5Z" fill="#C46842"/>
<path d="M66.5 6.5V13.5H60V6.5C62.15 6.5 64.35 6.5 66.5 6.5Z" fill="#E3A053"/>
<path d="M113.5 6.5C117.85 6.5 122.2 6.5 126.5 6.5C126.45 13.15 126.55 19.85 126.5 26.5C128.85 26.5 131.15 26.5 133.5 26.5C133.5 31 133.5 35.5 133.5 40H120C120 37.85 120 35.65 120 33.5C122.15 33.5 124.35 33.5 126.5 33.5C126.5 31.15 126.5 28.8 126.5 26.5C124.35 26.5 122.15 26.5 120 26.5C120 24.35 120 22.15 120 20H113.5V6.5Z" fill="#E3A053"/>
<path d="M113.5 6.5V26.5H106.5C106.5 22.15 106.5 17.8 106.5 13.5C104.35 13.5 102.15 13.5 100 13.5C100 11.15 100 8.8 100 6.5C104.5 6.5 109 6.5 113.5 6.5Z" fill="#5E2416"/>
<path d="M100 13.4998C100 17.7998 100 22.1498 100 26.4998H93.5C93.5 24.3498 93.5 22.1498 93.5 19.9998H80V13.4998C86.65 13.4998 93.35 13.4498 100 13.4998Z" fill="#D87F3D"/>
<path d="M80 13.5V26.5C77.85 26.5 75.65 26.5 73.5 26.5C73.5 24.35 73.5 22.15 73.5 20C71.15 20 68.8 20 66.5 20V13.5C71 13.5 75.5 13.5 80 13.5Z" fill="#5E2416"/>
<path d="M106.5 93.5C106.5 95.65 106.5 97.85 106.5 100C108.85 100 111.15 100 113.5 100H120C120 102.15 120 104.35 120 106.5C120 108.65 119.6 119.9 120.3 120H126.5C126.5 115.5 126.5 111 126.5 106.5H133.5C133.5 111 133.5 115.5 133.5 120C133.5 124.5 133.5 129 133.5 133.5C129 133.5 124.5 133.5 120 133.5C115.5 133.5 115.65 133.5 113.5 133.5V126.5C111.15 126.5 108.85 126.5 106.5 126.5C106.5 122.15 106.5 117.8 106.5 113.5H100C100 109 100 104.5 100 100C100 95.5 100 95.65 100 93.5H106.5Z" fill="#933C4C"/>
<path d="M46.5 80C48.85 80 51.15 80 53.5 80C53.5 82.15 53.5 84.35 53.5 86.5C55.65 86.5 57.85 86.5 60 86.5C60 88.85 60 91.2 60 93.5C62.15 93.5 64.35 93.5 66.5 93.5V86.5C68.85 86.5 71.15 86.5 73.5 86.5C73.5 88.85 73.5 91.15 73.5 93.5C75.65 93.5 77.85 93.5 80 93.5V100H86.5V106.5H93.5C93.5 104.35 93.5 102.15 93.5 100H100C100 104.5 100 109 100 113.5H106.5C106.5 117.8 106.5 122.15 106.5 126.5C108.85 126.5 111.15 126.5 113.5 126.5V133.5C115.65 133.5 117.85 133.5 120 133.5V140C115.5 140 111 140 106.5 140C106.5 135.5 106.5 131 106.5 126.5C102.15 126.5 97.8 126.5 93.5 126.5V120C89 120 84.5 120 80 120C80 117.85 80 115.65 80 113.5H73.5C73.5 106.85 73.5 100.15 73.5 93.5C71.15 93.5 68.85 93.5 66.5 93.5V113.5H60V100H46.5C46.5 97.85 46.5 95.65 46.5 93.5H40C40 89 40 84.5 40 80H46.5Z" fill="#812F55"/>
<path d="M133.5 99.9998C133.5 102.15 133.5 104.35 133.5 106.5H140C140 108.85 140 111.2 140 113.5H146.5C146.5 115.65 146.5 117.85 146.5 120H133.5C133.5 115.5 133.5 111 133.5 106.5H126.5C126.5 111 126.5 115.5 126.5 120H120.3C119.65 119.9 120 107.85 120 106.5H126.5C126.5 102.15 126.5 97.8498 126.5 93.4998C126.5 89.1498 126.5 84.8498 126.5 80.4998C128 80.7998 132.9 79.7498 133.45 81.2998V99.9998H133.5Z" fill="#AC5746"/>
<path d="M146.5 106.5C146.5 108.85 146.5 111.15 146.5 113.5H140C140 111.2 140 108.85 140 106.5H146.5Z" fill="#C46842"/>
<path d="M146.5 100C146.5 102.15 146.5 104.35 146.5 106.5H140C140 104.35 140 102.15 140 100C142.15 100 144.35 100 146.5 100Z" fill="#8D3C38"/>
<path d="M60.001 120V126.5C62.151 126.5 64.351 126.5 66.501 126.5C68.651 126.5 71.151 126.5 73.501 126.5C73.501 128.85 73.501 131.15 73.501 133.5C73.501 135.85 73.501 137.85 73.501 140C73.501 142.15 73.501 144.35 73.501 146.5C66.851 146.5 60.151 146.5 53.501 146.5C53.451 137.7 53.601 128.8 53.501 120H60.001Z" fill="#6E1D81"/>
<path d="M120 33.5C120 35.65 120 37.85 120 40H126.5V53.5H133.5C133.5 55.65 133.5 57.85 133.5 60C133.5 66.65 133.5 73.35 133.5 80H140C140 86.65 140 93.35 140 100H133.5V81.3C132.9 79.75 128 80.75 126.5 80.5C126.5 78.15 126.5 75.85 126.5 73.5C126.5 71.15 126.5 68.8 126.5 66.5H120C120 57.7 120 48.85 120 40H113.5V33.5C115.65 33.5 117.85 33.5 120 33.5Z" fill="#C46842"/>
<path d="M140 60C140 66.65 140 73.35 140 80H133.5C133.5 73.35 133.5 66.65 133.5 60C135.65 60 137.85 60 140 60Z" fill="#D87F3D"/>
<path d="M133.5 40C133.5 44.5 133.5 49 133.5 53.5H126.5V40H133.5Z" fill="#D87F3D"/>
<path d="M46.5 100H60V113.5H66.5V120C68.85 120 71.15 120 73.5 120C73.5 122.15 73.5 124.35 73.5 126.5C71.15 126.5 68.85 126.5 66.5 126.5V120H53.5C53.5 117.85 53.5 115.65 53.5 113.5H46.5C46.5 109 46.5 104.5 46.5 100Z" fill="#74246A"/>
<path d="M73.5 113.5H80C80 115.65 80 117.85 80 120C84.5 120 89 120 93.5 120V126.5C97.8 126.5 102.15 126.5 106.5 126.5C106.5 131 106.5 135.5 106.5 140C104.35 140 102.15 140 100 140C100 139 100.25 133.55 99.7 133.5H93.5C93.5 135.65 93.5 137.85 93.5 140H86.5V133.5C84.35 133.5 82.15 133.5 80 133.5V140H73.5C73.5 137.85 73.5 135.65 73.5 133.5C75.65 133.5 77.85 133.5 80 133.5C80 129 80 124.5 80 120C77.85 120 75.65 120 73.5 120C73.5 117.85 73.5 115.65 73.5 113.5Z" fill="#74246A"/>
<path d="M80 133.5C82.15 133.5 84.35 133.5 86.5 133.5V140H80V133.5Z" fill="#6E1D81"/>
<path d="M40 46.5C40 48.85 40 51.2 40 53.5H46.2C46.7 53.45 46.5 47.5 46.5 46.5H53.5C53.5 48.85 53.5 51.15 53.5 53.5C53.5 55.85 53.5 57.85 53.5 60C53.5 64.5 53.5 69 53.5 73.5C53.5 78 53.5 77.85 53.5 80C51.15 80 48.85 80 46.5 80V73.5H40C40 69 40 64.5 40 60H33.5C33.5 55.5 33.5 51 33.5 46.5H40Z" fill="#8D3C38"/>
<path d="M33.5 40H40C40 42.15 40 44.35 40 46.5H33.5C33.5 44.35 33.5 42.15 33.5 40Z" fill="#A64B31"/>
<path d="M40 73.5H46.5V80H40C40 77.85 40 75.65 40 73.5Z" fill="#933C4C"/>
<path d="M60 20V46.5H53.5V20C55.65 20 57.85 20 60 20Z" fill="#883A27"/>
<path d="M66.5 46.5V73.5H60C60 69 60 64.5 60 60C60 55.5 60 55.65 60 53.5C60 51.35 60 48.85 60 46.5H66.5Z" fill="#883A27"/>
<path d="M53.5 13.5H60V20C57.85 20 55.65 20 53.5 20C51.35 20 48.8 20 46.5 20C46.5 17.85 46.5 15.65 46.5 13.5H53.5Z" fill="#A64B31"/>
<path d="M53.5 26.5V33.5C51.15 33.5 48.85 33.5 46.5 33.5V26.5H53.5Z" fill="#C46842"/>
<path d="M46.5 26.5V33.5C48.85 33.5 51.15 33.5 53.5 33.5V40H46.5C46.5 37.85 46.5 35.65 46.5 33.5C44.35 33.5 42.15 33.5 40 33.5C40 31.15 40 28.8 40 26.5C42.15 26.5 44.35 26.5 46.5 26.5Z" fill="#B95931"/>
<path d="M53.5 40V46.5H60C60 48.85 60 51.15 60 53.5H53.5C53.5 51.15 53.5 48.85 53.5 46.5H46.5C46.5 44.35 46.5 42.15 46.5 40H53.5Z" fill="#A64B31"/>
<path d="M66.5 33.5V46.5H80C80 48.85 80 51.2 80 53.5C82.15 53.5 84.35 53.5 86.5 53.5C88.65 53.5 91.2 53.5 93.5 53.5C93.5 55.65 93.5 57.85 93.5 60H86.5C86.5 62.15 86.5 64.35 86.5 66.5C84.35 66.5 82.15 66.5 80 66.5C75.45 66.5 71.05 65.9 66.5 66V46.5H60V33.5H66.5Z" fill="#A64B31"/>
<path d="M46.5 46.5C46.5 47.5 46.75 53.45 46.2 53.5H40C40 51.15 40 48.8 40 46.5H46.5Z" fill="#7178C1"/>
<path d="M66.5 13.5V20C68.85 20 71.2 20 73.5 20C73.5 22.15 73.5 24.35 73.5 26.5H66.5V20C64.35 20 62.15 20 60 20V13.5H66.5Z" fill="#D87F3D"/>
<path d="M126.5 26.5C126.5 28.85 126.5 31.2 126.5 33.5C124.35 33.5 122.15 33.5 120 33.5C120 31.15 120 28.85 120 26.5C122.15 26.5 124.35 26.5 126.5 26.5Z" fill="#7178C1"/>
<path d="M113.5 20H120C120 22.15 120 24.35 120 26.5H113.5V20Z" fill="#C46842"/>
<path d="M100 13.5C102.15 13.5 104.35 13.5 106.5 13.5C106.5 17.85 106.5 22.2 106.5 26.5C106.5 30.8 106.5 31.15 106.5 33.5C104.35 33.5 102.15 33.5 100 33.5C100 31.15 100 28.85 100 26.5C100 22.15 100 17.8 100 13.5Z" fill="#E3A053"/>
<path d="M113.5 26.5V33.5C111.15 33.5 108.85 33.5 106.5 33.5C106.5 31.15 106.5 28.85 106.5 26.5H113.5Z" fill="#883A27"/>
<path d="M80 20H93.5C93.5 22.15 93.5 24.35 93.5 26.5C93.5 28.65 93.5 31.2 93.5 33.5C95.65 33.5 97.85 33.5 100 33.5C100 40.15 100 46.85 100 53.5C102.15 53.5 104.35 53.5 106.5 53.5C106.5 55.65 106.5 57.85 106.5 60C108.85 60 111.15 60 113.5 60V66.5H106.5C106.5 64.35 106.5 62.15 106.5 60C104.35 60 102.15 60 100 60C100 64.5 100 69 100 73.5H93.5C93.5 69 93.5 64.5 93.5 60C93.5 55.5 93.5 55.65 93.5 53.5C91.15 53.5 88.8 53.5 86.5 53.5C86.5 46.85 86.55 40.15 86.5 33.5C86.45 26.85 86.5 28.8 86.5 26.5C84.35 26.5 82.15 26.5 80 26.5V20Z" fill="#B95931"/>
<path d="M100 26.5C100 28.85 100 31.15 100 33.5C102.15 33.5 104.35 33.5 106.5 33.5C106.5 35.65 106.5 37.85 106.5 40C106.5 42.15 106.5 44.35 106.5 46.5C106.5 48.65 106.5 51.15 106.5 53.5C104.35 53.5 102.15 53.5 100 53.5C100 46.85 100 40.15 100 33.5C97.85 33.5 95.65 33.5 93.5 33.5C93.5 31.15 93.5 28.8 93.5 26.5H100Z" fill="#C46842"/>
<path d="M80 26.5C80 28.85 80 31.15 80 33.5H86.5C86.55 40.15 86.5 46.85 86.5 53.5C84.35 53.5 82.15 53.5 80 53.5C80 51.15 80 48.8 80 46.5C80 44.2 80 42.15 80 40C80 37.85 80 35.65 80 33.5H73.5C73.5 31.15 73.5 28.85 73.5 26.5C75.65 26.5 77.85 26.5 80 26.5Z" fill="#883A27"/>
<path d="M120 66.5H126.5C126.5 68.8 126.5 71.15 126.5 73.5H120C120 71.15 120 68.85 120 66.5Z" fill="#B95931"/>
<path d="M120 73.5C120 80.15 120 86.85 120 93.5C120 100.15 120 97.85 120 100H113.5V73.5H120Z" fill="#B95931"/>
<path d="M93.5 73.5C93.5 75.65 93.5 77.85 93.5 80H100C100 82.15 100 84.35 100 86.5C100 88.65 100 91.15 100 93.5C100 95.85 100 97.85 100 100H93.5C93.5 97.85 93.5 95.65 93.5 93.5C93.5 89 93.5 84.5 93.5 80C91.15 80 88.85 80 86.5 80C86.5 77.85 86.5 75.65 86.5 73.5H93.5Z" fill="#8D3C38"/>
<path d="M126.5 93.5C126.5 97.85 126.5 102.15 126.5 106.5H120C120 104.35 120 102.15 120 100C120 97.85 120 95.65 120 93.5H126.5Z" fill="#8D3C38"/>
<path d="M106.5 86.5C106.5 88.85 106.5 91.15 106.5 93.5H113.5V100C111.15 100 108.85 100 106.5 100C106.5 97.85 106.5 95.65 106.5 93.5H100C100 91.15 100 88.85 100 86.5H106.5Z" fill="#A64B31"/>
<path d="M140 100C140 102.15 140 104.35 140 106.5H133.5C133.5 104.35 133.5 102.15 133.5 100H140Z" fill="#7178C1"/>
<path d="M73.5 93.5C73.5 100.15 73.5 106.85 73.5 113.5C73.5 120.15 73.5 117.85 73.5 120C71.15 120 68.85 120 66.5 120V93.5C68.85 93.5 71.15 93.5 73.5 93.5Z" fill="#5E2416"/>
<path d="M80 120C80 124.5 80 129 80 133.5C77.85 133.5 75.65 133.5 73.5 133.5C73.5 131.15 73.5 128.85 73.5 126.5C73.5 124.15 73.5 122.15 73.5 120C75.65 120 77.85 120 80 120Z" fill="#5E2416"/>
<path d="M66.5 120V126.5C64.35 126.5 62.15 126.5 60 126.5V120H66.5Z" fill="#7178C1"/>
<path d="M120 40C120 48.85 120 57.65 120 66.5C120 68.85 120 71.15 120 73.5H113.5V40H120Z" fill="#883A27"/>
<path d="M126.5 73.5C126.5 75.85 126.5 78.15 126.5 80.5C126.5 84.85 126.5 89.15 126.5 93.5H120C120 86.85 120 80.15 120 73.5H126.5Z" fill="#883A27"/>
<path d="M60 60C60 64.5 60 69 60 73.5H53.5C53.5 69 53.5 64.5 53.5 60H60Z" fill="#933C4C"/>
<path d="M60 53.5C60 55.65 60 57.85 60 60H53.5C53.5 57.85 53.5 55.65 53.5 53.5H60Z" fill="#B95931"/>
<path d="M60 73.5C60 75.65 60 77.85 60 80C62.15 80 64.35 80 66.5 80V86.5C64.35 86.5 62.15 86.5 60 86.5C60 84.35 60 82.15 60 80C57.85 80 55.65 80 53.5 80C53.5 77.85 53.5 75.65 53.5 73.5H60Z" fill="#AC5746"/>
<path d="M60 80C60 82.15 60 84.35 60 86.5C62.15 86.5 64.35 86.5 66.5 86.5V93.5C64.35 93.5 62.15 93.5 60 93.5C60 91.15 60 88.8 60 86.5C57.85 86.5 55.65 86.5 53.5 86.5C53.5 84.35 53.5 82.15 53.5 80C55.65 80 57.85 80 60 80Z" fill="#933C4C"/>
<path d="M66.5 20V33.5H73.5C73.5 35.65 73.5 37.85 73.5 40V46.5H66.5V33.5H60V20C62.15 20 64.35 20 66.5 20Z" fill="#B95931"/>
<path d="M120 26.5C120 28.85 120 31.15 120 33.5C117.85 33.5 115.65 33.5 113.5 33.5V26.5H120Z" fill="#6E1D81"/>
<path d="M113.5 33.5V40H106.5C106.5 37.85 106.5 35.65 106.5 33.5C108.85 33.5 111.15 33.5 113.5 33.5Z" fill="#A64B31"/>
<path d="M106.5 60C106.5 62.15 106.5 64.35 106.5 66.5H113.5V73.5H100C100 69 100 64.5 100 60C102.15 60 104.35 60 106.5 60Z" fill="#C46842"/>
<path d="M93.5 60C93.5 64.5 93.5 69 93.5 73.5H86.5C86.5 71.2 86.5 68.8 86.5 66.5C86.5 64.2 86.5 62.15 86.5 60H93.5Z" fill="#883A27"/>
<path d="M80 26.5C82.15 26.5 84.35 26.5 86.5 26.5C86.5 28.85 86.5 31.2 86.5 33.5H80C80 31.15 80 28.85 80 26.5Z" fill="#A64B31"/>
<path d="M113.5 53.5V60C111.15 60 108.85 60 106.5 60C106.5 57.85 106.5 55.65 106.5 53.5C108.85 53.5 111.15 53.5 113.5 53.5Z" fill="#D87F3D"/>
<path d="M100 73.5C100 75.65 100 77.85 100 80H93.5C93.5 77.85 93.5 75.65 93.5 73.5H100Z" fill="#A64B31"/>
<path d="M73.5 26.5C73.5 28.85 73.5 31.15 73.5 33.5H66.5V26.5H73.5Z" fill="#E3A053"/>
<path d="M80 33.5C80 35.65 80 37.85 80 40H73.5C73.5 37.85 73.5 35.65 73.5 33.5H80Z" fill="#D87F3D"/>
<path d="M80 86.5C82.15 86.5 84.35 86.5 86.5 86.5V93.5H93.5C93.5 95.65 93.5 97.85 93.5 100C93.5 102.15 93.5 104.35 93.5 106.5H86.5V100H80V93.5C77.85 93.5 75.65 93.5 73.5 93.5C73.5 91.15 73.5 88.85 73.5 86.5C75.65 86.5 77.85 86.5 80 86.5Z" fill="#933C4C"/>
<path d="M106.5 73.5V80C106.5 82.15 106.5 84.35 106.5 86.5H113.5V93.5H106.5C106.5 91.15 106.5 88.85 106.5 86.5H100C100 84.35 100 82.15 100 80C100 77.85 100 75.65 100 73.5H106.5Z" fill="#AC5746"/>
<path d="M113.5 73.5H106.5V80H113.5V73.5Z" fill="#7178C1"/>
<path d="M113.5 80V86.5H106.5C106.5 84.35 106.5 82.15 106.5 80H113.5Z" fill="#C46842"/>
<path d="M86.5 66.5C86.5 68.8 86.5 71.2 86.5 73.5C86.5 75.8 86.5 77.85 86.5 80C88.85 80 91.15 80 93.5 80C93.5 84.5 93.5 89 93.5 93.5H86.5V86.5C84.35 86.5 82.15 86.5 80 86.5V66.5C82.15 66.5 84.35 66.5 86.5 66.5Z" fill="#AC5746"/>
<path d="M113.5 46.5V53.5C111.15 53.5 108.85 53.5 106.5 53.5C106.5 51.15 106.5 48.85 106.5 46.5H113.5Z" fill="#E3A053"/>
<path d="M113.5 40V46.5H106.5C106.5 44.35 106.5 42.15 106.5 40H113.5Z" fill="#D87F3D"/>
<path d="M66.5 73.5V80C68.85 80 71.2 80 73.5 80C73.5 82.15 73.5 84.35 73.5 86.5C71.15 86.5 68.85 86.5 66.5 86.5V80C64.35 80 62.15 80 60 80C60 77.85 60 75.65 60 73.5H66.5Z" fill="#5E2416"/>
<path d="M80 66.4999V86.4999C77.85 86.4999 75.65 86.4999 73.5 86.4999C73.5 84.3499 73.5 82.1499 73.5 79.9999C71.15 79.9999 68.8 79.9999 66.5 79.9999V65.9999C71.05 65.8999 75.45 66.4499 80 66.4999Z" fill="#8D3C38"/>
<path d="M80 40C80 42.15 80 44.35 80 46.5H73.5V40H80Z" fill="#C46842"/>
</svg>
