<svg width="160" height="160" viewBox="0 0 160 160" fill="none" xmlns="http://www.w3.org/2000/svg">
<g clip-path="url(#clip0_28_11696)">
<path d="M93.499 73.5H46.04V113.5H93.499V73.5Z" fill="#6A130F"/>
<path d="M146.499 0V6.5C148.849 6.5 151.199 6.5 153.499 6.5C153.499 8.85 153.499 11.2 153.499 13.5H146.499C146.499 11.15 146.499 8.85 146.499 6.5C142.199 6.5 137.849 6.5 133.499 6.5C126.849 6.5 120.149 6.45 113.499 6.5C113.499 8.85 113.499 11.15 113.499 13.5H106.499C106.499 15.65 106.499 17.85 106.499 20C106.499 24.5 106.499 29 106.499 33.5H113.499V40C111.149 40 108.849 40 106.499 40V46.5C104.349 46.5 102.149 46.5 99.999 46.5C99.999 48.85 99.999 51.15 99.999 53.5C99.999 55.85 99.999 57.85 99.999 60C97.849 60 95.649 60 93.499 60V46.5C95.649 46.5 97.849 46.5 99.999 46.5C99.999 44.35 99.999 42.15 99.999 40C102.149 40 104.349 40 106.499 40V33.5H99.999V13.5H106.499C106.499 11.2 106.499 8.85 106.499 6.5C108.849 6.5 111.199 6.5 113.499 6.5V0H146.499Z" fill="#4C3E2A"/>
<path d="M160 13.5V33.5H153.5C153.5 37.85 153.5 42.2 153.5 46.5C151.15 46.5 148.8 46.5 146.5 46.5C146.5 48.85 146.5 51.2 146.5 53.5H120C120 55.65 120 57.85 120 60H106.5C106.5 62.15 106.5 64.35 106.5 66.5H100.3C99.7995 66.45 99.999 60.95 99.999 60C102.149 60 104.35 60 106.5 60C106.5 57.85 106.5 55.65 106.5 53.5H113.5C115.65 53.5 117.85 53.5 120 53.5C120 51.15 120 48.85 120 46.5C124.5 46.5 129 46.5 133.5 46.5C138 46.5 137.85 46.5 140 46.5C142.15 46.5 144.35 46.5 146.5 46.5C146.5 44.35 146.5 42.15 146.5 40C146.5 37.85 146.5 35.65 146.5 33.5C148.85 33.5 151.15 33.5 153.5 33.5C153.5 26.85 153.549 20.15 153.499 13.5H160Z" fill="#2B2B2B"/>
<path d="M133.499 6.5V13.4998H119.999L113.499 13.5C113.499 15.65 113.499 17.8498 113.499 19.9998L106.499 20C106.499 17.85 106.499 15.65 106.499 13.5H113.499C113.499 11.2 113.499 8.85 113.499 6.5C120.149 6.45 126.849 6.5 133.499 6.5Z" fill="#C5B97C"/>
<path d="M146.499 6.5C146.499 8.85 146.499 11.15 146.499 13.5C146.499 15.85 146.499 17.85 146.499 20C144.349 20 142.149 20 139.999 20V13.5L133.499 13.4998V6.5C137.849 6.5 142.199 6.5 146.499 6.5Z" fill="#9E9160"/>
<path d="M133.499 26.5V33.5H126.499C126.499 31.15 126.499 28.8 126.499 26.5H133.499Z" fill="#746B44"/>
<path d="M133.499 13.4998L139.999 13.5V20C142.149 20 144.349 20 146.499 20C146.499 17.85 146.499 15.65 146.499 13.5H153.499C153.549 20.15 153.5 26.85 153.5 33.5C151.15 33.5 148.85 33.5 146.5 33.5C146.5 35.65 146.5 37.85 146.5 40H139.999L140 46.5C137.85 46.5 135.65 46.5 133.5 46.5L133.499 33.5H139.999V20C137.849 20 135.649 20 133.499 20V13.4998Z" fill="#746B44"/>
<path d="M133.499 40L133.5 46.5C129 46.5 124.5 46.5 120 46.5C120 48.85 120 51.15 120 53.5C117.85 53.5 115.65 53.5 113.5 53.5L113.499 46.5C115.649 46.5 117.85 46.5 120 46.5L119.999 40H133.499Z" fill="#9E9160"/>
<path d="M146.5 40C146.5 42.15 146.5 44.35 146.5 46.5C144.35 46.5 142.15 46.5 140 46.5L139.999 40H146.5Z" fill="#4C3E2A"/>
<path d="M119.999 13.4998V20L113.499 19.9998C113.499 22.1497 113.499 24.35 113.499 26.5C115.649 26.5 117.849 26.5 119.999 26.5C122.149 26.5 124.349 26.5 126.499 26.5V20C128.849 20 131.149 20 133.499 20V26.5H126.499C126.499 28.85 126.499 31.15 126.499 33.5H113.499H106.499C106.499 29 106.499 24.5 106.499 20L113.499 19.9998C113.499 17.8498 113.499 15.65 113.499 13.5L119.999 13.4998Z" fill="#9E9160"/>
<path d="M119.999 40L120 46.5C117.85 46.5 115.649 46.5 113.499 46.5L113.5 53.5H99.999C99.999 51.15 99.999 48.85 99.999 46.5C102.149 46.5 104.349 46.5 106.499 46.5C108.649 46.5 111.149 46.5 113.499 46.5V40C115.649 40 117.849 40 119.999 40Z" fill="#C5B97C"/>
<path d="M106.5 53.5C106.5 55.65 106.5 57.85 106.5 60C104.35 60 102.149 60 99.999 60C99.999 57.85 99.999 55.65 99.999 53.5H106.5Z" fill="#9E9160"/>
<path d="M133.499 13.4998V20C135.649 20 137.849 20 139.999 20V33.5H133.499V26.5V20C131.149 20 128.849 20 126.499 20C124.149 20 122.149 20 119.999 20V26.5C117.849 26.5 115.649 26.5 113.499 26.5C113.499 24.35 113.499 22.1497 113.499 19.9998L119.999 20V13.4998H133.499Z" fill="#2B2B2B"/>
<path d="M126.499 33.5H133.499V40H119.999C117.849 40 115.649 40 113.499 40V46.5C111.149 46.5 108.849 46.5 106.499 46.5V40C108.849 40 111.149 40 113.499 40V33.5H126.499Z" fill="#2B2B2B"/>
<path d="M126.499 20V26.5C124.349 26.5 122.149 26.5 119.999 26.5V20C122.149 20 124.349 20 126.499 20Z" fill="#C5B97C"/>
<path d="M33.499 60C33.499 57.85 33.499 55.65 33.499 53.5H73.499V60C71.149 60 68.849 60 66.499 60C62.149 60 57.849 60 53.499 60C46.849 60 40.149 60 33.499 60C33.499 62.15 33.499 64.35 33.499 66.5C31.149 66.5 28.799 66.5 26.499 66.5C24.199 66.5 22.149 66.5 19.999 66.5C19.999 68.85 19.999 71.15 19.999 73.5C17.849 73.5 15.649 73.5 13.499 73.5C13.499 77.8 13.499 82.15 13.499 86.5H6.49902C6.49902 93.15 6.49902 99.85 6.49902 106.5C6.49902 113.15 6.49902 111.15 6.49902 113.5H-0.000976562V86.5H6.49902C6.49902 82.15 6.49902 77.8 6.49902 73.5C8.84902 73.5 11.199 73.5 13.499 73.5C13.499 71.15 13.499 68.8 13.499 66.5C15.649 66.5 17.849 66.5 19.999 66.5C19.999 64.35 19.999 62.15 19.999 60C24.499 60 28.999 60 33.499 60Z" fill="#6A130F"/>
<path d="M73.499 60C77.849 60 82.199 60 86.499 60C86.499 62.15 86.499 64.35 86.499 66.5C86.499 68.65 86.499 71.15 86.499 73.5C88.849 73.5 91.149 73.5 93.499 73.5C93.499 75.65 93.499 77.85 93.499 80H86.499C86.499 77.85 86.499 75.65 86.499 73.5C84.349 73.5 82.149 73.5 79.999 73.5C79.999 75.65 79.999 77.85 79.999 80H86.499C86.499 82.15 86.499 84.35 86.499 86.5C84.349 86.5 82.149 86.5 79.999 86.5C79.999 84.35 79.999 82.15 79.999 80H73.499V73.5H79.999C79.999 71.15 79.999 68.8 79.999 66.5C77.849 66.5 75.649 66.5 73.499 66.5C71.349 66.5 68.849 66.5 66.499 66.5V86.5C68.849 86.5 71.149 86.5 73.499 86.5C73.499 88.85 73.499 91.15 73.499 93.5C77.849 93.5 82.149 93.5 86.499 93.5C86.499 95.65 86.499 97.85 86.499 100H73.499V93.5C71.149 93.5 68.849 93.5 66.499 93.5C66.499 91.15 66.499 88.85 66.499 86.5H59.999C59.999 84.35 59.999 82.15 59.999 80C57.849 80 55.649 80 53.499 80C53.499 77.85 53.499 75.65 53.499 73.5H59.999V66.5C62.149 66.5 64.349 66.5 66.499 66.5V60C68.849 60 71.149 60 73.499 60Z" fill="#342C23"/>
<path d="M13.499 133.5H26.499V140H46.499C46.499 137.85 46.499 135.65 46.499 133.5C48.849 133.5 51.149 133.5 53.499 133.5V140C55.649 140 57.849 140 59.999 140C59.999 142.15 59.999 144.35 59.999 146.5C53.349 146.5 46.649 146.5 39.999 146.5V153.5C37.849 153.5 35.649 153.5 33.499 153.5C33.499 151.15 33.499 148.85 33.499 146.5C28.999 146.5 24.499 146.55 19.999 146.5C19.999 144.35 19.999 142.15 19.999 140C17.849 140 15.649 140 13.499 140C13.499 137.85 13.499 135.65 13.499 133.5Z" fill="#9B2C27"/>
<path d="M26.499 66.5V73.5C24.349 73.5 22.149 73.5 19.999 73.5C19.999 80.15 19.999 86.85 19.999 93.5C19.999 100.15 19.999 97.85 19.999 100C22.149 100 24.349 100 26.499 100C26.499 102.15 26.499 104.35 26.499 106.5V113.5C28.849 113.5 31.149 113.5 33.499 113.5C33.499 115.65 33.499 117.85 33.499 120C35.649 120 37.849 120 39.999 120C39.999 122.15 39.999 124.35 39.999 126.5C42.149 126.5 44.349 126.5 46.499 126.5C46.499 128.8 46.499 131.2 46.499 133.5C44.349 133.5 42.149 133.5 39.999 133.5V126.5C37.849 126.5 35.649 126.5 33.499 126.5C33.499 124.35 33.499 122.15 33.499 120C31.149 120 28.849 120 26.499 120V113.5C24.349 113.5 22.149 113.5 19.999 113.5C19.999 109 19.999 104.5 19.999 100H13.499C13.499 95.5 13.499 91 13.499 86.5C13.499 82 13.499 77.8 13.499 73.5C15.649 73.5 17.849 73.5 19.999 73.5C19.999 71.15 19.999 68.85 19.999 66.5C22.149 66.5 24.349 66.5 26.499 66.5Z" fill="#9B2C27"/>
<path d="M59.999 146.5V153.5C53.349 153.5 46.649 153.5 39.999 153.5V146.5C46.649 146.5 53.349 146.5 59.999 146.5Z" fill="#C22AA3"/>
<path d="M73.499 146.5V153.5C71.149 153.5 68.849 153.5 66.499 153.5V146.5C68.849 146.5 71.149 146.5 73.499 146.5Z" fill="#F255E8"/>
<path d="M66.499 146.5V153.5C64.349 153.5 62.149 153.5 59.999 153.5V146.5C62.149 146.5 64.349 146.5 66.499 146.5Z" fill="#D339BB"/>
<path d="M13.499 86.5C13.499 91 13.499 95.5 13.499 100C13.499 104.5 13.499 104.35 13.499 106.5H6.49902C6.49902 99.85 6.49902 93.15 6.49902 86.5H13.499Z" fill="#FE7338"/>
<path d="M13.499 106.5C13.499 108.85 13.499 111.15 13.499 113.5C13.499 115.85 13.499 117.85 13.499 120H19.999C19.999 122.15 19.999 124.35 19.999 126.5C24.499 126.5 28.999 126.5 33.499 126.5C33.499 128.85 33.499 131.2 33.499 133.5C35.649 133.5 37.849 133.5 39.999 133.5C42.149 133.5 44.349 133.5 46.499 133.5C46.499 135.65 46.499 137.85 46.499 140H26.499V133.5H13.499C13.499 131.15 13.499 128.85 13.499 126.5C13.499 124.15 13.499 122.15 13.499 120H6.49902C6.49902 117.85 6.49902 115.65 6.49902 113.5C6.49902 111.35 6.49902 108.85 6.49902 106.5H13.499Z" fill="#B73F2F"/>
<path d="M66.499 100C66.499 102.15 66.499 104.35 66.499 106.5C73.149 106.55 79.849 106.45 86.499 106.5C86.499 111 86.499 115.5 86.499 120H79.999V133.5C77.849 133.5 75.649 133.5 73.499 133.5C71.349 133.5 68.799 133.5 66.499 133.5C66.499 135.65 66.499 137.85 66.499 140C64.349 140 62.149 140 59.999 140C59.999 137.85 59.999 135.65 59.999 133.5C57.849 133.5 55.649 133.5 53.499 133.5C51.349 133.5 48.849 133.5 46.499 133.5C46.499 131.2 46.499 128.8 46.499 126.5C44.349 126.5 42.149 126.5 39.999 126.5C39.999 124.35 39.999 122.15 39.999 120C37.849 120 35.649 120 33.499 120C33.499 117.85 33.499 115.65 33.499 113.5C31.149 113.5 28.849 113.5 26.499 113.5V106.5H33.499C33.499 108.85 33.499 111.15 33.499 113.5C35.649 113.5 37.849 113.5 39.999 113.5C39.999 115.65 39.999 117.85 39.999 120C42.149 120 44.349 120 46.499 120C46.499 122.15 46.499 124.35 46.499 126.5C53.149 126.5 59.849 126.5 66.499 126.5V120H73.499V113.5H66.499C66.499 111.15 66.499 108.85 66.499 106.5C64.349 106.5 62.149 106.5 59.999 106.5C59.999 104.35 59.999 102.15 59.999 100H66.499Z" fill="#B73F2F"/>
<path d="M13.499 120C13.499 122.15 13.499 124.35 13.499 126.5H6.49902C6.49902 124.35 6.49902 122.15 6.49902 120H13.499Z" fill="#9B2C27"/>
<path d="M99.999 100C99.999 104.5 99.999 109 99.999 113.5H93.499C93.499 109 93.499 104.5 93.499 100H99.999Z" fill="#C22AA3"/>
<path d="M93.499 86.5C93.499 88.85 93.499 91.15 93.499 93.5C91.149 93.5 88.849 93.5 86.499 93.5C86.499 91.15 86.499 88.85 86.499 86.5C88.849 86.5 91.149 86.5 93.499 86.5Z" fill="#4C3E2A"/>
<path d="M73.499 80H79.999C79.999 82.15 79.999 84.35 79.999 86.5C82.149 86.5 84.349 86.5 86.499 86.5C86.499 84.35 86.499 82.15 86.499 80H93.499C93.499 82.15 93.499 84.35 93.499 86.5C91.149 86.5 88.849 86.5 86.499 86.5C86.499 88.85 86.499 91.15 86.499 93.5C82.149 93.5 77.849 93.5 73.499 93.5C73.499 91.15 73.499 88.85 73.499 86.5C71.149 86.5 68.849 86.5 66.499 86.5V80H73.499Z" fill="#746B44"/>
<path d="M99.999 113.5C99.999 115.65 99.999 117.85 99.999 120H93.499C93.499 117.85 93.499 115.65 93.499 113.5H99.999Z" fill="#D339BB"/>
<path d="M99.999 120C99.999 122.15 99.999 124.35 99.999 126.5C97.849 126.5 95.649 126.5 93.499 126.5C93.499 124.35 93.499 122.15 93.499 120H99.999Z" fill="#F255E8"/>
<path d="M93.499 93.5C95.649 93.5 97.849 93.5 99.999 93.5C99.999 95.65 99.999 97.85 99.999 100H93.499C93.499 97.85 93.499 95.65 93.499 93.5Z" fill="#6A130F"/>
<path d="M53.499 60V66.5C55.649 66.5 57.849 66.5 59.999 66.5V73.5H53.499C53.499 75.65 53.499 77.85 53.499 80C51.149 80 48.799 80 46.499 80V73.5H39.999V80H33.499V86.5H26.499C26.499 88.85 26.499 91.15 26.499 93.5H19.999C19.999 86.85 19.999 80.15 19.999 73.5C22.149 73.5 24.349 73.5 26.499 73.5V66.5C28.799 66.5 31.149 66.5 33.499 66.5C33.499 64.35 33.499 62.15 33.499 60C40.149 60 46.849 60 53.499 60Z" fill="#FE7338"/>
<path d="M66.499 60V66.5C64.349 66.5 62.149 66.5 59.999 66.5C57.849 66.5 55.649 66.5 53.499 66.5V60C57.849 60 62.199 60 66.499 60Z" fill="#B73F2F"/>
<path d="M73.499 66.5V73.5H66.499V66.5C68.849 66.5 71.149 66.5 73.499 66.5Z" fill="#4C3E2A"/>
<path d="M73.499 66.5C75.649 66.5 77.849 66.5 79.999 66.5C79.999 68.85 79.999 71.2 79.999 73.5H73.499V80H66.499V73.5H73.499V66.5Z" fill="#9E9160"/>
<path d="M86.499 73.5C86.499 75.65 86.499 77.85 86.499 80H79.999C79.999 77.85 79.999 75.65 79.999 73.5C82.149 73.5 84.349 73.5 86.499 73.5Z" fill="#4C3E2A"/>
<path d="M79.999 140V146.5C77.849 146.5 75.649 146.5 73.499 146.5V140H79.999Z" fill="#C22AA3"/>
<path d="M93.499 133.5C93.499 135.65 93.499 137.85 93.499 140C91.149 140 88.849 140 86.499 140C86.499 142.15 86.499 144.35 86.499 146.5C84.349 146.5 82.149 146.5 79.999 146.5V140C82.149 140 84.349 140 86.499 140C86.499 137.85 86.499 135.65 86.499 133.5H93.499Z" fill="#F255E8"/>
<path d="M93.499 126.5C93.499 128.85 93.499 131.15 93.499 133.5H86.499C86.499 135.65 86.499 137.85 86.499 140C84.349 140 82.149 140 79.999 140H73.499V133.5C75.649 133.5 77.849 133.5 79.999 133.5C82.149 133.5 84.349 133.5 86.499 133.5C86.499 131.15 86.499 128.8 86.499 126.5C88.849 126.5 91.199 126.5 93.499 126.5Z" fill="#DE37DC"/>
<path d="M53.499 133.5C55.649 133.5 57.849 133.5 59.999 133.5C59.999 135.65 59.999 137.85 59.999 140C62.149 140 64.349 140 66.499 140C66.499 142.15 66.499 144.35 66.499 146.5C64.349 146.5 62.149 146.5 59.999 146.5C59.999 144.35 59.999 142.15 59.999 140C57.849 140 55.649 140 53.499 140V133.5Z" fill="#6A130F"/>
<path d="M73.499 133.5V146.5C71.149 146.5 68.849 146.5 66.499 146.5C66.499 144.35 66.499 142.15 66.499 140C66.499 137.85 66.499 135.65 66.499 133.5C68.849 133.5 71.199 133.5 73.499 133.5Z" fill="#9B2C27"/>
<path d="M19.999 100C19.999 104.5 19.999 109 19.999 113.5C22.149 113.5 24.349 113.5 26.499 113.5V120C24.349 120 22.149 120 19.999 120C19.999 117.85 19.999 115.65 19.999 113.5H13.499C13.499 111.15 13.499 108.85 13.499 106.5C13.499 104.15 13.499 102.15 13.499 100H19.999Z" fill="#FEA45B"/>
<path d="M19.999 113.5C19.999 115.65 19.999 117.85 19.999 120C22.149 120 24.349 120 26.499 120C28.649 120 31.149 120 33.499 120C33.499 122.15 33.499 124.35 33.499 126.5C35.649 126.5 37.849 126.5 39.999 126.5V133.5C37.849 133.5 35.649 133.5 33.499 133.5C33.499 131.15 33.499 128.8 33.499 126.5C28.999 126.5 24.499 126.5 19.999 126.5C19.999 124.35 19.999 122.15 19.999 120H13.499C13.499 117.85 13.499 115.65 13.499 113.5H19.999Z" fill="#FE7338"/>
<path d="M93.499 100C93.499 104.5 93.499 109 93.499 113.5C93.499 118 93.499 117.85 93.499 120C93.499 122.15 93.499 124.35 93.499 126.5C91.149 126.5 88.799 126.5 86.499 126.5C86.499 128.85 86.499 131.2 86.499 133.5C84.349 133.5 82.149 133.5 79.999 133.5V120H86.499C86.499 115.5 86.499 111 86.499 106.5C86.499 102 86.499 102.15 86.499 100H93.499Z" fill="#9B2C27"/>
<path d="M26.499 93.5C26.499 91.15 26.499 88.85 26.499 86.5H33.499V80H39.999V73.5H46.499V80C48.799 80 51.149 80 53.499 80C53.499 84.5 53.499 89 53.499 93.5C53.499 98 53.499 97.85 53.499 100H46.499V106.5C42.199 106.5 37.849 106.5 33.499 106.5C33.499 104.35 33.499 102.15 33.499 100C31.149 100 28.799 100 26.499 100C26.499 97.85 26.499 95.65 26.499 93.5Z" fill="#FEA45B"/>
<path d="M26.499 93.5C26.499 95.65 26.499 97.85 26.499 100C24.349 100 22.149 100 19.999 100C19.999 97.85 19.999 95.65 19.999 93.5H26.499Z" fill="#B73F2F"/>
<path d="M59.999 93.5C59.999 95.65 59.999 97.85 59.999 100C59.999 102.15 59.999 104.35 59.999 106.5C62.149 106.5 64.349 106.5 66.499 106.5C66.499 108.85 66.499 111.15 66.499 113.5H73.499V120H66.499V126.5C59.849 126.5 53.149 126.5 46.499 126.5C46.499 124.35 46.499 122.15 46.499 120C44.349 120 42.149 120 39.999 120C39.999 117.85 39.999 115.65 39.999 113.5C37.849 113.5 35.649 113.5 33.499 113.5C33.499 111.15 33.499 108.85 33.499 106.5H26.499C26.499 104.35 26.499 102.15 26.499 100C28.849 100 31.199 100 33.499 100C33.499 102.15 33.499 104.35 33.499 106.5C37.849 106.5 42.199 106.5 46.499 106.5V100H53.499C53.499 97.85 53.499 95.65 53.499 93.5H59.999Z" fill="#FE7338"/>
<path d="M66.499 86.5C66.499 88.85 66.499 91.15 66.499 93.5C68.849 93.5 71.149 93.5 73.499 93.5V100H66.499C66.499 97.85 66.499 95.65 66.499 93.5H59.999C59.999 91.15 59.999 88.85 59.999 86.5H66.499Z" fill="#4C3E2A"/>
</g>
<defs>
<clipPath id="clip0_28_11696">
<rect width="160" height="160" fill="white"/>
</clipPath>
</defs>
</svg>
