<?xml version="1.0" encoding="UTF-8"?>
<!-- Generator: visioncortex VTracer 0.6.5 -->
<svg version="1.1" xmlns="http://www.w3.org/2000/svg" width="150" height="85">
<path d="M0,0 L150,0 L150,85 L0,85 Z " fill="#81684D" transform="translate(0,0)"/>
<path d="M0,0 L92,0 L93,3 L99,3 L100,6 L105,8 L106,12 L102,12 L100,9 L99,11 L96,11 L96,20 L93,20 L93,22 L96,23 L95,25 L86,27 L83,27 L78,28 L79,31 L75,33 L74,32 L74,26 L75,24 L70,25 L69,27 L67,26 L54,25 L48,23 L38,24 L36,26 L35,41 L33,41 L31,45 L32,52 L28,53 L29,62 L22,63 L23,59 L25,59 L25,47 L18,45 L17,48 L15,48 L16,61 L20,62 L17,65 L15,65 L14,74 L12,74 L14,76 L16,75 L26,78 L34,78 L34,80 L43,81 L46,84 L46,85 L0,85 Z " fill="#625043" transform="translate(0,0)"/>
<path d="M0,0 L25,0 L25,85 L-10,85 L-10,74 L-6,70 L-4,70 L-4,68 L-2,68 L-2,63 L0,63 L-1,61 L-2,62 L-7,62 L-10,60 L-11,55 L-16,55 L-16,53 L-18,53 L-19,48 L-17,48 L-17,43 L-15,43 L-14,47 L-12,48 L-11,43 L-9,37 L-9,34 L-1,33 L-2,29 L-2,20 L3,20 L3,23 L2,28 L5,28 L6,37 L5,39 L2,39 L2,44 L10,44 L14,47 L14,43 L16,43 L12,29 L11,28 L10,21 L7,19 L8,16 L11,16 L10,14 L10,5 L11,3 L6,2 L6,4 L4,4 L4,2 L0,1 Z " fill="#513C37" transform="translate(125,0)"/>
<path d="M0,0 L33,0 L37,2 L37,4 L39,4 L39,2 L44,3 L44,16 L41,17 L41,19 L44,21 L45,28 L48,35 L49,43 L47,43 L47,47 L43,45 L34,45 L35,39 L38,39 L38,28 L35,28 L35,23 L36,21 L31,20 L32,33 L26,35 L24,34 L25,39 L22,44 L21,48 L18,47 L18,43 L16,43 L16,48 L14,48 L15,53 L17,53 L17,55 L23,54 L23,60 L31,62 L32,60 L33,63 L31,63 L31,68 L29,68 L29,70 L24,74 L23,85 L-4,85 L-3,81 L-1,78 L10,78 L17,80 L18,78 L14,78 L16,74 L21,68 L23,68 L19,64 L19,61 L16,60 L16,57 L11,55 L9,50 L-3,51 L-5,59 L-9,61 L-10,65 L-15,65 L-14,63 L-12,63 L-12,58 L-22,58 L-22,53 L-17,52 L-16,50 L-13,50 L-10,53 L-10,58 L-6,58 L-5,51 L1,47 L5,47 L-2,39 L-3,33 L1,29 L6,27 L7,24 L9,23 L5,22 L4,20 L4,11 L7,11 L8,8 L10,12 L14,12 L12,8 L8,6 L6,4 L1,4 Z " fill="#755B3A" transform="translate(92,0)"/>
<path d="M0,0 L9,1 L11,2 L25,3 L26,3 L27,2 L32,2 L30,12 L28,14 L15,13 L14,16 L13,28 L5,29 L5,31 L17,30 L20,28 L27,28 L25,29 L25,35 L20,38 L13,37 L13,46 L14,50 L10,50 L10,53 L-2,53 L0,48 L2,48 L2,42 L-3,43 L-3,44 L-8,44 L-8,41 L-13,40 L-15,31 L-12,29 L-13,23 L-9,18 L-8,4 L-5,1 Z " fill="#886F48" transform="translate(43,22)"/>
<path d="M0,0 L2,2 L2,6 L7,8 L8,11 L10,12 L11,15 L14,17 L14,19 L9,24 L5,29 L9,29 L8,32 L1,30 L-10,29 L-12,33 L-13,36 L-31,36 L-33,33 L-33,29 L-25,28 L-23,24 L-34,25 L-35,29 L-38,29 L-38,32 L-48,32 L-58,30 L-58,28 L-49,27 L-44,28 L-44,26 L-40,26 L-42,20 L-42,15 L-39,14 L-32,14 L-32,16 L-19,16 L-18,11 L-15,10 L-12,2 L-10,1 Z " fill="#645345" transform="translate(101,49)"/>
<path d="M0,0 L54,0 L55,3 L61,3 L62,6 L67,8 L68,12 L64,12 L62,9 L61,11 L58,11 L58,20 L55,20 L55,22 L58,23 L58,24 L46,24 L41,23 L28,23 L26,24 L19,24 L18,21 L15,20 L15,17 L12,16 L12,13 L9,12 L10,11 L36,11 L36,9 L22,9 L19,7 L20,6 L36,6 L36,2 L6,2 L6,6 L8,6 L8,9 L4,9 L4,16 L2,18 L-1,18 L-2,20 L-2,11 L-5,10 L-5,7 L0,4 Z " fill="#55432A" transform="translate(38,0)"/>
<path d="M0,0 L33,0 L37,2 L37,4 L39,4 L39,2 L44,3 L44,16 L41,17 L41,19 L44,21 L45,28 L48,35 L49,43 L47,43 L47,47 L43,45 L34,45 L35,39 L38,39 L38,28 L35,28 L35,23 L36,21 L31,20 L32,33 L26,35 L24,34 L25,39 L24,40 L19,40 L21,35 L15,36 L14,30 L18,23 L22,23 L22,25 L24,25 L24,27 L27,27 L24,16 L22,15 L8,14 L5,13 L5,20 L4,20 L4,11 L7,11 L8,8 L10,12 L14,12 L12,8 L8,6 L6,4 L1,4 Z " fill="#775B4E" transform="translate(92,0)"/>
<path d="M0,0 L6,0 L8,2 L7,14 L5,15 L4,18 L11,17 L10,10 L12,13 L12,17 L17,18 L17,21 L21,19 L27,19 L28,23 L27,25 L25,25 L23,30 L35,30 L35,27 L38,26 L37,17 L38,14 L42,14 L44,19 L42,19 L43,30 L39,30 L39,32 L25,32 L25,34 L45,36 L45,33 L48,32 L48,28 L60,28 L59,32 L58,33 L50,33 L52,40 L28,40 L27,37 L21,37 L16,35 L16,33 L8,34 L-3,31 L-6,31 L-6,29 L-4,29 L-3,20 L1,17 L-2,16 L-3,14 L-3,3 Z " fill="#6D6053" transform="translate(18,45)"/>
<path d="M0,0 L25,0 L25,43 L23,45 L22,50 L17,50 L17,40 L15,40 L12,29 L11,28 L10,21 L7,19 L8,16 L11,16 L10,14 L10,5 L11,3 L6,2 L6,4 L4,4 L4,2 L0,1 Z " fill="#292429" transform="translate(125,0)"/>
<path d="M0,0 L11,0 L12,3 L18,3 L19,6 L24,8 L25,12 L21,12 L19,9 L18,11 L15,11 L15,20 L12,20 L12,22 L15,23 L15,24 L3,24 L-2,23 L-15,23 L-17,24 L-24,24 L-25,21 L-28,20 L-26,18 L-26,20 L-19,22 L-15,19 L-8,19 L-3,20 L-2,18 L0,18 Z " fill="#665536" transform="translate(81,0)"/>
<path d="M0,0 L7,1 L6,10 L4,10 L6,12 L8,11 L18,14 L26,14 L26,16 L35,17 L38,20 L38,21 L-8,21 L-8,6 L-3,7 L0,10 L3,11 L3,6 L0,5 Z " fill="#534547" transform="translate(8,64)"/>
<path d="M0,0 L5,1 L5,14 L2,15 L2,17 L5,19 L6,26 L9,33 L10,41 L8,41 L8,45 L4,43 L-5,43 L-4,37 L-1,37 L-1,26 L-4,26 L-4,21 L-3,19 L-8,18 L-8,24 L-11,24 L-11,18 L-7,17 L-6,5 L-5,8 L-2,8 L-3,2 L0,2 Z " fill="#8B6E7D" transform="translate(131,2)"/>
<path d="M0,0 L7,0 L5,1 L5,7 L0,10 L-7,9 L-7,18 L-6,22 L-10,22 L-10,25 L-22,25 L-20,20 L-18,20 L-17,14 L-22,10 L-23,11 L-32,10 L-32,5 L-31,4 L-9,4 Z " fill="#9B855A" transform="translate(63,50)"/>
<path d="M0,0 L2,2 L2,6 L7,8 L8,11 L10,12 L10,15 L5,13 L-3,11 L-1,18 L-1,23 L-11,24 L-13,25 L-15,29 L-19,29 L-19,26 L-15,22 L-14,18 L-18,19 L-19,12 L-15,10 L-12,2 L-10,1 Z " fill="#685738" transform="translate(101,49)"/>
<path d="M0,0 L19,1 L22,9 L22,14 L19,14 L19,12 L15,12 L15,10 L13,11 L10,17 L10,23 L16,22 L15,26 L18,27 L17,31 L16,35 L13,34 L13,30 L11,31 L9,34 L6,29 L5,20 L4,13 L2,11 L4,10 L0,9 Z " fill="#75564E" transform="translate(97,13)"/>
<path d="M0,0 L6,0 L8,4 L7,8 L5,10 L2,10 L2,12 L10,12 L8,14 L-14,14 L-15,19 L-6,20 L-6,14 L-5,14 L-5,19 L-2,20 L-2,22 L1,23 L-1,25 L-1,23 L-6,24 L-6,25 L-11,25 L-11,22 L-16,21 L-18,12 L-15,10 L-16,4 L-14,2 L-3,1 Z " fill="#937A58" transform="translate(46,41)"/>
<path d="M0,0 L6,0 L6,6 L2,7 L1,12 L5,13 L8,16 L7,22 L0,22 L0,19 L-4,17 L-4,15 L-10,17 L-10,22 L-9,20 L-5,20 L-5,23 L-7,23 L-8,32 L-11,32 L-11,30 L-15,30 L-14,24 L-14,20 L-15,15 L-18,15 L-18,10 L-13,10 L-13,12 L-6,12 L-6,5 L-1,3 Z " fill="#827062" transform="translate(21,0)"/>
<path d="M0,0 L2,0 L2,4 L10,6 L11,4 L12,7 L10,7 L10,12 L8,12 L8,14 L3,18 L2,29 L-25,29 L-24,25 L-22,22 L-11,22 L-4,24 L-3,22 L-7,22 L-5,18 L0,12 L3,12 L2,7 L-1,4 Z " fill="#63515F" transform="translate(113,56)"/>
<path d="M0,0 L21,0 L20,4 L15,5 L15,12 L8,12 L8,10 L3,10 L3,15 L6,15 L6,23 L4,23 L5,33 L4,36 L0,36 Z " fill="#4F3C37" transform="translate(0,0)"/>
<path d="M0,0 L18,1 L21,4 L21,11 L20,12 L11,12 L2,15 L1,17 L-2,18 L-10,18 L-10,16 L-2,15 L-2,3 Z " fill="#67532D" transform="translate(58,35)"/>
<path d="M0,0 L7,0 L7,20 L-18,20 L-18,15 L-9,15 L-11,9 L-2,8 L-2,11 L0,11 L1,2 Z " fill="#8F766F" transform="translate(143,65)"/>
<path d="M0,0 L25,0 L25,21 L16,22 L16,17 L22,17 L22,15 L18,15 L18,12 L15,12 L14,5 L12,3 L6,2 L6,4 L4,4 L4,2 L0,1 Z " fill="#2B3134" transform="translate(125,0)"/>
<path d="M0,0 L30,0 L30,4 L14,5 L16,6 L30,7 L30,9 L-2,9 L-2,7 L2,7 L2,4 L0,4 Z " fill="#826E5A" transform="translate(44,2)"/>
<path d="M0,0 L6,0 L17,6 L17,8 L12,13 L7,14 L6,13 L4,17 L-7,17 L-8,12 L2,12 L0,4 Z " fill="#4B3834" transform="translate(98,60)"/>
<path d="M0,0 L2,0 L7,5 L10,7 L5,7 L5,12 L11,13 L11,15 L2,15 L2,20 L-8,20 L-8,9 L-4,5 L-2,5 L-2,3 L0,3 Z " fill="#493430" transform="translate(123,65)"/>
<path d="M0,0 L11,0 L14,3 L21,3 L28,2 L37,2 L52,4 L52,5 L43,7 L40,7 L35,8 L36,11 L32,13 L31,12 L31,6 L32,4 L27,5 L26,7 L24,6 L11,5 L5,3 L-5,4 L-7,6 L-8,21 L-10,21 L-12,25 L-13,27 L-15,27 L-15,23 L-13,23 L-13,20 L-11,20 L-9,3 Z " fill="#726038" transform="translate(43,20)"/>
<path d="M0,0 L5,0 L6,5 L10,7 L9,10 L6,9 L5,13 L4,14 L4,19 L-1,19 L-2,17 L-5,16 L-5,2 L0,2 Z " fill="#756356" transform="translate(5,35)"/>
<path d="M0,0 L6,2 L6,4 L4,5 L6,7 L8,16 L8,21 L4,30 L2,30 L0,24 L0,12 L-3,11 L-2,6 Z " fill="#A2875C" transform="translate(81,26)"/>
<path d="M0,0 L16,0 L21,4 L21,16 L17,15 L16,11 L17,9 L11,7 L8,7 L-1,6 L-1,1 Z " fill="#AD9471" transform="translate(32,54)"/>
<path d="M0,0 L4,0 L4,2 L9,2 L8,4 L6,4 L5,8 L-1,11 L-3,14 L-1,20 L4,25 L4,27 L-5,30 L-5,22 L-7,13 L-10,10 L-6,10 L-6,8 L-8,7 L-5,5 L2,4 Z " fill="#856938" transform="translate(93,20)"/>
<path d="M0,0 L3,1 L4,11 L6,12 L4,12 L4,15 L2,15 L1,19 L-1,19 L-1,16 L-8,15 L-10,8 L-6,4 L-1,2 Z " fill="#755827" transform="translate(99,25)"/>
<path d="M0,0 L6,0 L8,4 L7,8 L5,10 L-2,10 L-3,7 L-10,7 L-10,9 L-14,8 L-15,3 L-14,2 L-3,1 Z " fill="#9B8055" transform="translate(46,41)"/>
<path d="M0,0 L19,1 L22,9 L22,14 L19,14 L19,12 L17,12 L13,6 L7,5 L7,9 L0,9 Z " fill="#887056" transform="translate(97,13)"/>
<path d="M0,0 L12,0 L11,4 L10,5 L2,5 L4,12 L-17,12 L-20,8 L-3,8 L-3,5 L0,4 Z " fill="#785C57" transform="translate(66,73)"/>
<path d="M0,0 L6,1 L6,3 L12,3 L15,8 L13,10 L7,10 L6,7 L-3,9 L-3,11 L-8,11 L-8,6 L-6,6 L-5,2 Z " fill="#948052" transform="translate(58,26)"/>
<path d="M0,0 L21,0 L21,1 L6,2 L6,6 L8,6 L8,9 L4,9 L4,16 L2,18 L-1,18 L-2,20 L-2,11 L-5,10 L-5,7 L0,4 Z " fill="#52423E" transform="translate(38,0)"/>
<path d="M0,0 L2,2 L2,6 L7,8 L8,11 L10,12 L10,15 L5,13 L-5,10 L-11,9 L-10,3 L-8,1 Z " fill="#624C34" transform="translate(101,49)"/>
<path d="M0,0 L5,4 L3,7 L7,7 L6,10 L-1,8 L-12,7 L-14,11 L-15,14 L-33,14 L-35,10 L-27,12 L-21,12 L-21,7 L-17,6 L-15,2 L-13,2 L-12,5 L-1,5 Z " fill="#514852" transform="translate(103,71)"/>
<path d="M0,0 L6,0 L6,5 L11,3 L12,2 L20,2 L20,3 L14,4 L15,9 L13,14 L11,14 L11,11 L6,13 L4,16 L-2,15 L-2,10 L3,10 L3,8 L6,7 L1,2 Z " fill="#403B3F" transform="translate(130,62)"/>
<path d="M0,0 L2,0 L3,6 L0,6 L0,15 L-11,15 L-14,12 L-13,8 L-8,7 L-5,7 L-4,2 Z " fill="#563C31" transform="translate(96,5)"/>
<path d="M0,0 L7,0 L12,3 L11,5 L8,5 L9,10 L11,11 L11,16 L6,15 L5,12 L0,11 Z " fill="#556A67" transform="translate(0,59)"/>
<path d="M0,0 L11,0 L12,5 L6,7 L6,10 L3,10 L3,13 L-5,12 L-4,7 L-1,6 Z " fill="#5A4B55" transform="translate(27,0)"/>
<path d="M0,0 L2,0 L2,11 L0,13 L-1,18 L-6,18 L-6,8 L-8,8 L-8,3 L-1,2 Z " fill="#39322A" transform="translate(148,32)"/>
<path d="M0,0 L1,0 L1,14 L0,17 L2,17 L2,19 L-1,19 L-3,15 L-8,15 L-8,13 L-10,13 L-11,8 L-9,8 L-9,3 L-7,3 L-6,7 L-4,8 L-4,4 L-1,4 Z " fill="#5C4835" transform="translate(117,40)"/>
<path d="M0,0 L11,0 L13,2 L16,2 L15,7 L12,8 L-1,7 L-3,4 Z " fill="#62513B" transform="translate(71,65)"/>
<path d="M0,0 L6,0 L6,6 L2,7 L1,12 L5,13 L8,16 L7,22 L0,22 L1,20 L5,20 L6,16 L1,15 L-2,13 L-2,8 L-6,8 L-6,5 L-1,3 Z " fill="#735F6C" transform="translate(21,0)"/>
<path d="M0,0 L4,0 L4,9 L-13,9 L-13,7 L-15,6 L-10,4 L-3,4 L-2,1 Z " fill="#1E1923" transform="translate(146,76)"/>
<path d="M0,0 L15,1 L16,6 L15,7 L0,8 L-1,1 Z " fill="#4D3A1C" transform="translate(60,38)"/>
<path d="M0,0 L7,0 L8,3 L14,3 L15,6 L20,8 L21,12 L17,12 L15,9 L13,10 L13,5 L5,5 L5,11 L0,11 Z " fill="#694842" transform="translate(85,0)"/>
<path d="M0,0 L17,0 L17,2 L20,3 L15,4 L15,6 L17,6 L17,10 L12,8 L8,6 L6,4 L1,4 Z " fill="#6A5147" transform="translate(92,0)"/>
<path d="M0,0 L2,0 L2,4 L10,6 L11,4 L12,7 L10,7 L10,12 L5,14 L-2,21 L-5,20 L2,12 L2,7 L-1,4 Z " fill="#887366" transform="translate(113,56)"/>
<path d="M0,0 L6,0 L8,2 L8,8 L4,13 L-1,13 L-1,2 Z " fill="#806458" transform="translate(18,45)"/>
<path d="M0,0 L2,0 L2,10 L7,10 L8,7 L10,7 L10,11 L8,12 L7,15 L14,14 L13,7 L15,10 L15,16 L4,19 L4,17 L2,16 L4,14 L1,13 L0,11 Z " fill="#705849" transform="translate(15,48)"/>
<path d="M0,0 L5,1 L6,7 L9,8 L9,3 L10,6 L12,6 L13,10 L9,10 L9,13 L-3,13 L-1,8 L1,8 L2,2 Z " fill="#978361" transform="translate(44,62)"/>
<path d="M0,0 L1,0 L1,17 L-9,19 L-9,16 L-7,16 L-7,13 L-5,13 L-5,8 L-3,7 L-1,1 Z " fill="#6F575D" transform="translate(149,43)"/>
<path d="M0,0 L3,1 L3,6 L10,9 L9,14 L4,13 L0,10 L0,8 L-6,9 L-6,6 L-8,5 L-2,5 L-2,1 Z " fill="#887467" transform="translate(17,7)"/>
<path d="M0,0 L5,1 L7,12 L5,12 L5,16 L1,14 L-1,12 L-2,4 L0,4 Z " fill="#B6A0A2" transform="translate(134,31)"/>
<path d="M0,0 L10,0 L10,12 L1,13 L1,8 L7,8 L7,6 L3,6 L3,3 L0,3 Z " fill="#3E5450" transform="translate(140,9)"/>
<path d="M0,0 L4,2 L5,9 L6,12 L2,12 L2,16 L0,16 L2,25 L-6,26 L-5,20 L-2,20 L-2,9 L1,9 L1,6 L3,6 L2,3 L0,2 Z " fill="#817474" transform="translate(132,19)"/>
<path d="M0,0 L5,1 L8,4 L8,6 L10,6 L12,9 L17,10 L18,13 L7,12 L6,8 L0,7 Z " fill="#3A4947" transform="translate(0,70)"/>
<path d="M0,0 L7,0 L7,9 L4,11 L-1,10 L-1,8 L-3,7 L-2,2 L0,2 Z " fill="#0C0E1F" transform="translate(143,21)"/>
<path d="M0,0 L18,1 L17,3 L6,2 L1,1 L0,10 L0,12 L8,12 L7,14 L2,15 L1,17 L-2,18 L-10,18 L-10,16 L-2,15 L-2,3 Z " fill="#725C32" transform="translate(58,35)"/>
<path d="M0,0 L10,0 L10,5 L7,7 L-1,7 L-1,5 L-8,5 L-10,2 L-1,2 Z " fill="#78684A" transform="translate(70,58)"/>
<path d="M0,0 L4,0 L4,6 L2,6 L3,16 L2,19 L-2,19 L-2,3 L0,3 Z " fill="#594834" transform="translate(2,17)"/>
<path d="M0,0 L2,0 L4,3 L4,8 L4,10 L5,11 L5,17 L1,16 L3,12 L-3,13 L-4,7 Z " fill="#674A43" transform="translate(110,23)"/>
<path d="M0,0 L2,1 L-4,8 L0,6 L6,0 L8,0 L8,2 L3,6 L2,17 L-3,17 L-3,10 L-7,10 L-5,6 Z " fill="#735E60" transform="translate(113,68)"/>
<path d="M0,0 L2,2 L2,5 L4,5 L4,7 L10,6 L10,8 L8,9 L8,14 L11,15 L11,20 L6,16 L6,13 L3,12 L3,9 L-2,7 L-3,1 Z " fill="#685240" transform="translate(105,48)"/>
<path d="M0,0 L2,0 L2,8 L1,6 L-2,6 L-4,11 L-8,12 L-11,9 L-13,7 L-11,7 L-11,4 L-5,4 L-4,1 L0,4 Z " fill="#625958" transform="translate(139,43)"/>
<path d="M0,0 L4,0 L4,11 L9,11 L9,5 L15,5 L11,8 L10,14 L5,13 L2,14 L0,17 Z " fill="#634A3F" transform="translate(81,0)"/>
<path d="M0,0 L5,0 L5,2 L3,2 L2,6 L0,5 Z M-8,1 L-4,1 L-4,6 L1,7 L1,12 L-4,12 L-5,10 L-8,9 Z " fill="#8F7A6E" transform="translate(8,42)"/>
<path d="M0,0 L9,1 L9,3 L0,3 L-6,5 L-7,6 L-8,21 L-10,21 L-12,25 L-13,27 L-15,27 L-15,23 L-13,23 L-13,20 L-11,20 L-9,3 Z " fill="#75624F" transform="translate(43,20)"/>
<path d="M0,0 L6,0 L9,8 L9,13 L6,13 L6,11 L4,11 L-1,3 Z " fill="#9C856E" transform="translate(110,14)"/>
<path d="M0,0 L5,0 L9,4 L10,7 L10,14 L6,13 L5,9 L6,7 L0,5 Z " fill="#B39C70" transform="translate(43,56)"/>
<path d="M0,0 L6,0 L6,2 L-5,4 L-3,7 L-10,7 L-10,9 L-14,8 L-15,3 L-14,2 L-3,1 Z " fill="#967B5D" transform="translate(46,41)"/>
<path d="M0,0 L2,0 L2,3 L4,3 L5,7 L8,8 L8,11 L6,11 L6,14 L0,14 L0,9 L1,7 L-2,6 Z " fill="#9C7E8C" transform="translate(127,14)"/>
<path d="M0,0 L3,0 L3,18 L-2,17 L-2,8 Z " fill="#4D2E34" transform="translate(120,0)"/>
<path d="M0,0 L3,4 L3,11 L1,17 L3,18 L-4,18 L-3,11 L-2,2 Z " fill="#7F6D52" transform="translate(37,24)"/>
<path d="M0,0 L6,0 L4,5 L2,5 L2,12 L1,13 L-6,13 L-8,11 L-2,10 L0,3 L-5,3 L-8,5 L-12,4 L-9,4 L-8,1 Z " fill="#867455" transform="translate(68,48)"/>
<path d="M0,0 L2,0 L2,4 L5,4 L6,1 L9,2 L9,5 L7,5 L8,7 L8,16 L7,12 L5,12 L5,10 L7,10 L6,8 L5,9 L0,9 L-3,7 L-2,3 L-2,6 L1,6 L1,4 L-1,4 Z " fill="#70594E" transform="translate(118,53)"/>
<path d="M0,0 L15,0 L14,4 L13,5 L0,6 Z " fill="#160906" transform="translate(6,0)"/>
<path d="M0,0 L5,0 L9,4 L9,7 L15,7 L12,9 L2,9 L4,8 L4,5 L0,5 L-1,8 L-2,8 L-2,2 Z " fill="#6C5847" transform="translate(12,15)"/>
<path d="M0,0 L4,0 L6,5 L4,5 L5,16 L1,16 L1,18 L-4,18 L0,14 L2,12 L1,9 L-1,9 Z " fill="#756249" transform="translate(56,59)"/>
<path d="M0,0 L2,0 L2,2 L5,3 L4,7 L3,11 L0,10 L0,6 L-2,7 L-4,10 L-7,5 L-7,1 L-2,1 L-2,3 L0,3 Z " fill="#8A755F" transform="translate(110,37)"/>
<path d="M0,0 L9,0 L8,4 L1,6 L-1,7 L-3,11 L-7,11 L-7,8 L-3,4 Z " fill="#695946" transform="translate(89,67)"/>
<path d="M0,0 L6,2 L6,10 L3,10 L1,19 L-4,21 L-4,18 L0,18 Z " fill="#664857" transform="translate(123,0)"/>
<path d="M0,0 L1,0 L1,10 L5,11 L3,11 L3,16 L1,16 L1,19 L-1,19 L-1,25 L-3,25 L-2,20 L-4,19 L0,18 L-2,14 L-6,13 L-4,9 L-1,9 Z " fill="#5D4344" transform="translate(141,40)"/>
<path d="M0,0 L6,0 L7,5 L3,9 L-3,8 L-2,2 Z " fill="#664929" transform="translate(93,50)"/>
<path d="M0,0 L3,0 L5,3 L5,9 L-6,8 L-6,3 L-1,2 Z " fill="#6F5A3B" transform="translate(76,50)"/>
<path d="M0,0 L3,4 L6,5 L6,3 L13,3 L14,5 L18,6 L18,8 L1,8 Z " fill="#8C6D50" transform="translate(30,45)"/>
<path d="M0,0 L8,0 L15,2 L16,5 L0,5 Z " fill="#524243" transform="translate(30,80)"/>
<path d="M0,0 L14,0 L14,5 L6,6 L0,3 Z " fill="#5D4746" transform="translate(68,78)"/>
<path d="M0,0 L11,0 L14,1 L14,3 L5,3 L5,8 L0,8 L-1,1 Z " fill="#4D3C37" transform="translate(120,77)"/>
<path d="M0,0 L7,0 L7,11 L1,11 L1,2 Z " fill="#7F8FA0" transform="translate(143,65)"/>
<path d="M0,0 L1,2 L0,4 L-3,4 L-3,9 L4,9 L4,12 L-2,12 L-2,15 L-4,15 L-4,12 L-6,12 L-6,2 Z " fill="#574B49" transform="translate(130,35)"/>
<path d="M0,0 L21,0 L21,1 L8,2 L4,6 L0,7 L-1,10 L-5,10 L-5,7 L0,4 Z " fill="#31221F" transform="translate(38,0)"/>
<path d="M0,0 L7,1 L6,10 L4,10 L6,14 L2,14 L2,12 L0,11 L3,11 L3,6 L0,5 Z " fill="#535055" transform="translate(8,64)"/>
<path d="M0,0 L4,1 L3,5 L-2,7 L-2,9 L-7,9 L-7,4 Z " fill="#A0855C" transform="translate(57,28)"/>
<path d="M0,0 L7,0 L6,8 L5,10 L0,10 L-1,7 L1,7 Z " fill="#6F5F5B" transform="translate(113,0)"/>
<path d="M0,0 L6,1 L7,5 L10,4 L10,8 L0,8 Z " fill="#765552" transform="translate(0,77)"/>
<path d="M0,0 L7,1 L6,10 L0,10 Z " fill="#6F766F" transform="translate(0,60)"/>
<path d="M0,0 L6,1 L8,1 L7,5 L5,11 L0,11 Z " fill="#312D1B" transform="translate(142,39)"/>
<path d="M0,0 L5,0 L5,3 L4,8 L7,8 L8,14 L6,14 L6,10 L2,10 L1,13 L0,9 Z " fill="#604241" transform="translate(123,20)"/>
<path d="M0,0 L6,1 L5,7 L0,9 L0,12 L-2,12 L-2,6 L-4,3 L0,3 Z " fill="#675754" transform="translate(30,10)"/>
<path d="M0,0 L4,1 L6,3 L6,10 L9,10 L9,13 L13,13 L13,15 L8,15 L7,11 L4,10 L4,8 L2,8 L1,12 L1,3 L2,1 Z " fill="#353029" transform="translate(134,2)"/>
<path d="M0,0 L4,2 L6,10 L-1,9 L-4,9 L-4,7 L-2,7 L-1,1 Z " fill="#6E635D" transform="translate(16,67)"/>
<path d="M0,0 L4,0 L4,2 L9,2 L8,4 L6,4 L6,7 L-1,8 L-6,10 L-6,8 L-8,7 L-5,5 L2,4 Z " fill="#8D7548" transform="translate(93,20)"/>
<path d="M0,0 L2,0 L3,8 L5,9 L3,9 L3,12 L1,12 L1,15 L-1,15 L-3,7 Z " fill="#68522B" transform="translate(100,28)"/>
<path d="M0,0 L6,0 L7,3 L1,7 L-2,8 L-5,7 L-5,2 L0,2 Z " fill="#65583E" transform="translate(133,70)"/>
<path d="M0,0 L1,0 L1,14 L-1,15 L-1,13 L-3,13 L-3,10 L-6,9 L-4,4 L-1,4 Z " fill="#3F2A1C" transform="translate(117,40)"/>
<path d="M0,0 L5,0 L8,3 L7,10 L4,10 L3,5 L0,5 Z " fill="#9B876D" transform="translate(3,10)"/>
<path d="M0,0 L2,1 L0,5 L-18,5 L-20,1 L-12,3 L-1,1 Z " fill="#585058" transform="translate(88,80)"/>
<path d="M0,0 L7,0 L7,5 L5,8 L0,7 Z " fill="#533F35" transform="translate(15,25)"/>
<path d="M0,0 L2,0 L6,5 L6,7 L4,8 L4,11 L1,11 L1,9 L-3,8 L-3,6 L0,6 Z " fill="#3A221E" transform="translate(136,10)"/>
<path d="M0,0 L4,0 L5,7 L3,7 L4,13 L0,12 L0,6 L-2,6 L-2,4 L2,3 L0,2 Z " fill="#574638" transform="translate(109,0)"/>
<path d="M0,0 L3,1 L1,1 L-1,9 L-5,11 L-6,15 L-11,15 L-10,13 L-8,13 L-7,3 L-6,3 L-6,8 L-2,8 L-1,1 Z " fill="#745C47" transform="translate(88,50)"/>
<path d="M0,0 L1,0 L3,9 L3,14 L-1,23 L-3,23 L-4,17 L-1,16 Z " fill="#947851" transform="translate(86,33)"/>
<path d="M0,0 L3,1 L3,5 L1,5 L1,8 L3,8 L3,12 L0,12 L-3,4 L-3,1 Z " fill="#AA8A8A" transform="translate(131,3)"/>
<path d="M0,0 L3,0 L3,2 L1,2 L2,12 L-5,13 L-4,9 L-2,9 L-2,3 L0,3 Z " fill="#6B4E3E" transform="translate(27,50)"/>
<path d="M0,0 L3,2 L3,5 L1,6 L-7,6 L-7,1 Z " fill="#A79065" transform="translate(63,52)"/>
<path d="M0,0 L5,1 L5,6 L1,8 L1,10 L-1,10 L-1,2 Z " fill="#93736C" transform="translate(19,47)"/>
<path d="M0,0 L4,1 L4,8 L6,8 L6,11 L3,11 L3,16 L1,14 Z " fill="#2B1F1C" transform="translate(120,39)"/>
<path d="M0,0 L5,1 L5,3 L0,6 L-6,12 L-9,11 L-2,3 L0,3 Z " fill="#A08F8E" transform="translate(117,65)"/>
<path d="M0,0 L5,0 L7,3 L10,5 L6,7 L1,6 L0,5 Z " fill="#402A1F" transform="translate(127,64)"/>
<path d="M0,0 L2,3 L2,5 L-1,6 L-2,8 L-11,7 L-11,6 L-5,6 L-4,1 Z " fill="#362626" transform="translate(139,53)"/>
<path d="M0,0 L3,1 L1,1 L1,5 L4,6 L5,10 L1,11 L3,10 L3,8 L0,8 L-1,11 L-3,4 L-9,3 L-7,1 L-2,2 L-1,3 Z " fill="#725548" transform="translate(27,42)"/>
<path d="M0,0 L2,0 L2,2 L6,3 L9,6 L8,12 L1,12 L2,10 L6,10 L7,6 L2,5 L-1,3 Z " fill="#78685E" transform="translate(20,10)"/>
<path d="M0,0 L8,0 L10,1 L10,6 L3,5 Z " fill="#130A06" transform="translate(140,3)"/>
<path d="M0,0 L5,2 L5,4 L7,3 L8,0 L9,0 L9,5 L11,6 L6,6 L7,15 L4,11 L3,4 L0,2 Z " fill="#473136" transform="translate(132,17)"/>
<path d="M0,0 L7,0 L7,4 L-2,5 L-2,1 Z " fill="#4A3830" transform="translate(72,67)"/>
<path d="M0,0 L3,1 L3,8 L2,9 L-10,9 L-10,7 L-1,6 Z " fill="#6A5437" transform="translate(76,38)"/>
<path d="M0,0 L5,0 L4,3 L7,4 L7,5 L-3,5 L-4,1 Z " fill="#614A28" transform="translate(89,19)"/>
<path d="M0,0 L7,0 L11,1 L11,3 L5,5 L0,4 Z " fill="#36240E" transform="translate(61,40)"/>
<path d="M0,0 L8,0 L9,3 L2,3 L2,5 L5,5 L5,11 L4,11 L4,6 L0,6 Z " fill="#8A7166" transform="translate(0,37)"/>
<path d="M0,0 L5,1 L5,14 L2,15 L0,17 L0,15 L-2,15 L-2,12 L3,13 L3,9 L1,9 L1,6 L3,6 L2,2 Z " fill="#755455" transform="translate(131,2)"/>
<path d="M0,0 L6,1 L8,6 L5,9 L-3,10 L1,7 L5,7 Z " fill="#7B5C33" transform="translate(92,40)"/>
<path d="M0,0 L2,0 L2,2 L0,2 L0,5 L3,5 L3,7 L-1,9 L-6,9 L-6,5 L-2,4 Z " fill="#5A4B46" transform="translate(88,73)"/>
<path d="M0,0 L2,4 L5,3 L5,0 L7,0 L6,5 L5,11 L3,10 L3,8 L-2,8 Z " fill="#836A3C" transform="translate(73,28)"/>
<path d="M0,0 L9,0 L9,4 L0,4 L-1,2 Z " fill="#2C1B11" transform="translate(91,73)"/>
<path d="M0,0 L8,1 L13,4 L13,6 L10,7 L5,4 L0,3 Z " fill="#412C23" transform="translate(99,62)"/>
<path d="M0,0 L2,0 L2,4 L-6,5 L-10,7 L-11,5 L-8,5 L-8,2 Z " fill="#211C20" transform="translate(148,60)"/>
<path d="M0,0 L7,0 L6,5 L4,5 L4,7 L1,7 Z " fill="#AC9568" transform="translate(45,43)"/>
<path d="M0,0 L4,2 L5,9 L6,12 L2,12 L1,16 L0,10 L1,6 L3,6 L2,3 L0,2 Z " fill="#866D74" transform="translate(132,19)"/>
<path d="M0,0 L3,0 L3,18 L-2,17 L-1,14 L1,16 L1,4 Z " fill="#543D45" transform="translate(120,0)"/>
<path d="M0,0 L6,0 L7,4 L6,6 L1,8 Z " fill="#766645" transform="translate(39,64)"/>
<path d="M0,0 L2,2 L1,15 L-1,15 L-2,1 Z " fill="#B09665" transform="translate(84,33)"/>
<path d="M0,0 L2,0 L4,4 L10,4 L9,7 L7,6 L7,9 L5,9 L5,7 L0,7 Z " fill="#725B4B" transform="translate(103,31)"/>
<path d="M0,0 L4,4 L4,11 L0,11 Z " fill="#39261A" transform="translate(0,25)"/>
<path d="M0,0 L1,3 L3,3 L3,5 L-3,5 L-4,9 L-9,8 L-6,7 L-5,3 L-1,2 Z " fill="#3E2E28" transform="translate(43,3)"/>
<path d="M0,0 L5,0 L5,2 L9,3 L9,4 L0,4 L-4,3 L-4,1 Z " fill="#594236" transform="translate(47,76)"/>
<path d="M0,0 L5,1 L8,3 L8,5 L6,5 L6,8 L4,8 L3,5 L0,5 Z " fill="#594846" transform="translate(123,50)"/>
<path d="M0,0 L2,3 L3,11 L1,11 L1,15 L-3,13 L-1,12 L-1,4 Z " fill="#9F8F8A" transform="translate(138,32)"/>
<path d="M0,0 L4,4 L4,7 L6,8 L4,9 L2,8 L3,13 L1,14 L-1,7 L-2,5 L0,5 Z " fill="#70534F" transform="translate(114,26)"/>
<path d="M0,0 L4,1 L4,4 L2,4 L2,7 L-3,6 L-1,1 Z " fill="#B396A3" transform="translate(131,21)"/>
<path d="M0,0 L3,0 L2,5 L4,5 L4,9 L-1,7 L-2,3 L0,3 Z " fill="#948268" transform="translate(105,1)"/>
<path d="M0,0 L3,0 L3,5 L-5,5 L-4,1 Z " fill="#151317" transform="translate(147,80)"/>
<path d="M0,0 L3,0 L5,2 L10,3 L11,6 L3,5 L3,3 L0,2 Z " fill="#3C363C" transform="translate(7,77)"/>
<path d="M0,0 L10,0 L12,2 L12,6 L6,6 L9,4 L9,2 L0,2 L-1,5 L-2,3 Z " fill="#564639" transform="translate(70,66)"/>
<path d="M0,0 L4,1 L4,4 L6,4 L5,7 L0,7 Z " fill="#604E42" transform="translate(0,51)"/>
<path d="M0,0 L1,2 L0,4 L-3,4 L-3,9 L-6,10 L-6,2 Z " fill="#675755" transform="translate(130,35)"/>
<path d="M0,0 L6,2 L6,4 L2,7 L-2,6 Z " fill="#967E50" transform="translate(81,26)"/>
<path d="M0,0 L8,0 L8,2 L11,3 L11,4 L3,4 Z " fill="#B48A8E" transform="translate(46,81)"/>
<path d="M0,0 L8,0 L11,1 L11,4 L1,4 L3,2 Z " fill="#5F4637" transform="translate(52,77)"/>
<path d="M0,0 L5,0 L6,2 L3,6 L0,6 L-1,1 Z " fill="#736D6A" transform="translate(131,49)"/>
<path d="M0,0 L11,0 L14,3 L12,4 L12,2 L7,3 L7,4 L2,4 L2,1 Z " fill="#816E55" transform="translate(33,62)"/>
<path d="M0,0 L3,1 L3,4 L1,4 L2,6 L2,15 L1,11 L-1,11 L-1,9 L1,9 L-1,4 Z " fill="#775D56" transform="translate(124,54)"/>
<path d="M0,0 L10,0 L10,3 L0,3 Z " fill="#635D58" transform="translate(140,9)"/>
<path d="M0,0 L19,0 L19,1 L2,2 L1,5 L0,5 Z " fill="#241007" transform="translate(40,0)"/>
<path d="M0,0 L2,3 L2,6 L0,7 L-2,12 L-7,11 L-7,10 L-2,10 L-3,4 L-1,3 Z " fill="#776357" transform="translate(11,44)"/>
<path d="M0,0 L2,3 L4,6 L9,6 L6,9 L1,8 L1,6 L-1,5 Z " fill="#17161F" transform="translate(141,23)"/>
<path d="M0,0 L2,4 L2,9 L-1,9 L-1,7 L-3,7 L-3,2 L0,3 Z " fill="#9F8279" transform="translate(117,18)"/>
<path d="M0,0 L6,0 L5,5 L0,5 Z " fill="#59484C" transform="translate(31,0)"/>
<path d="M0,0 L5,0 L10,4 L0,4 Z " fill="#749097" transform="translate(100,81)"/>
<path d="M0,0 L7,0 L8,2 L6,5 L1,4 Z " fill="#81705A" transform="translate(71,60)"/>
<path d="M0,0 L7,0 L7,4 L0,4 Z " fill="#866A48" transform="translate(36,48)"/>
<path d="M0,0 L6,0 L6,3 L3,5 L0,5 Z " fill="#211F20" transform="translate(30,80)"/>
<path d="M0,0 L7,0 L6,4 L-1,3 Z " fill="#7F6D67" transform="translate(71,73)"/>
<path d="M0,0 L10,0 L9,7 L7,7 L7,2 L2,3 L0,4 Z " fill="#493431" transform="translate(129,60)"/>
<path d="M0,0 L7,0 L12,3 L11,5 L6,6 L7,2 L0,1 Z " fill="#6E6957" transform="translate(0,59)"/>
<path d="M0,0 L1,0 L1,10 L-2,10 L-2,2 Z " fill="#9E847D" transform="translate(149,49)"/>
<path d="M0,0 L4,1 L4,3 L6,3 L4,9 L0,4 Z " fill="#927B61" transform="translate(103,38)"/>
<path d="M0,0 L2,0 L3,8 L5,9 L3,9 L2,12 L2,7 L0,7 L-1,1 Z " fill="#6F5036" transform="translate(100,28)"/>
<path d="M0,0 L4,0 L4,2 L9,2 L8,4 L6,4 L6,7 L2,5 L2,3 L0,2 Z " fill="#816540" transform="translate(93,20)"/>
<path d="M0,0 L2,0 L2,2 L6,3 L7,1 L7,5 L0,5 L0,3 L-2,2 Z " fill="#735E53" transform="translate(8,7)"/>
<path d="M0,0 L6,0 L5,4 L0,5 Z " fill="#483443" transform="translate(15,0)"/>
<path d="M0,0 L9,0 L9,2 L7,2 L7,4 L0,2 Z " fill="#463637" transform="translate(71,78)"/>
<path d="M0,0 L4,0 L6,5 L4,5 L2,9 L1,4 L2,2 L0,2 Z " fill="#6F5B35" transform="translate(56,59)"/>
<path d="M0,0 L2,0 L2,6 L-2,9 L-4,8 L-4,5 L0,3 Z " fill="#5C4C49" transform="translate(34,14)"/>
<path d="M0,0 L5,0 L5,5 L0,5 Z " fill="#546663" transform="translate(125,80)"/>
<path d="M0,0 L2,2 L2,7 L0,10 L-2,10 L-3,6 Z " fill="#4E4D57" transform="translate(143,66)"/>
<path d="M0,0 L2,1 L3,6 L-3,8 L-5,9 L-3,4 L-1,4 Z " fill="#89775C" transform="translate(46,66)"/>
<path d="M0,0 L2,1 L2,8 L8,8 L8,9 L0,9 L-1,7 L-1,1 Z " fill="#5D472B" transform="translate(58,38)"/>
<path d="M0,0 L1,0 L1,9 L-3,9 L-3,4 L-1,4 Z " fill="#190A06" transform="translate(117,40)"/>
<path d="M0,0 L1,0 L1,8 L3,8 L1,12 L-1,8 L-1,5 L-2,7 L-4,6 L-2,2 L0,2 Z " fill="#433126" transform="translate(118,37)"/>
<path d="M0,0 L10,0 L9,3 L0,2 Z " fill="#998162" transform="translate(100,14)"/>
<path d="M0,0 L7,0 L6,4 L1,4 Z " fill="#765555" transform="translate(92,0)"/>
<path d="M0,0 L3,1 L3,5 L-4,5 L-4,3 L-1,3 Z " fill="#8A728C" transform="translate(93,80)"/>
<path d="M0,0 L4,0 L4,6 L0,6 Z " fill="#AD958C" transform="translate(0,43)"/>
<path d="M0,0 L1,0 L1,7 L-4,8 L-3,2 L0,2 Z " fill="#6D6564" transform="translate(130,37)"/>
<path d="M0,0 L3,3 L4,7 L-2,6 L-2,1 Z " fill="#372A24" transform="translate(142,34)"/>
<path d="M0,0 L6,0 L6,2 L0,2 L-1,5 L-6,5 L-3,4 L-3,2 Z " fill="#8F764D" transform="translate(58,33)"/>
<path d="M0,0 L5,1 L6,4 L3,4 L2,6 L0,4 Z " fill="#483529" transform="translate(16,26)"/>
<path d="M0,0 L9,1 L9,3 L-5,2 L-5,1 Z " fill="#775C47" transform="translate(43,20)"/>
<path d="M0,0 L8,0 L8,3 L0,3 Z " fill="#576B6D" transform="translate(142,18)"/>
<path d="M0,0 L3,0 L4,6 L0,7 Z " fill="#816349" transform="translate(97,13)"/>
<path d="M0,0 L1,4 L4,4 L4,6 L0,6 L0,9 L-2,9 L-2,3 L0,3 Z " fill="#76674A" transform="translate(2,11)"/>
<path d="M0,0 L5,2 L6,6 L2,6 L0,3 Z " fill="#301C0B" transform="translate(100,6)"/>
<path d="M0,0 L6,2 L5,7 L4,4 L2,4 L2,6 L0,6 Z " fill="#7F6F77" transform="translate(123,0)"/>
<path d="M0,0 L4,1 L6,5 L1,5 Z " fill="#987A75" transform="translate(64,80)"/>
<path d="M0,0 L2,2 L0,2 L1,9 L-3,10 L-4,7 L-2,7 L-1,1 Z " fill="#695D65" transform="translate(16,67)"/>
<path d="M0,0 L6,0 L6,6 L3,5 Z " fill="#5E463C" transform="translate(130,62)"/>
<path d="M0,0 L4,1 L4,6 L-1,4 Z " fill="#B99E85" transform="translate(32,54)"/>
<path d="M0,0 L4,4 L4,7 L-1,8 Z " fill="#846E50" transform="translate(102,40)"/>
<path d="M0,0 L3,1 L3,3 L5,4 L2,4 L2,9 L0,9 Z " fill="#3F251B" transform="translate(94,7)"/>
<path d="M0,0 L4,0 L4,2 L16,2 L16,3 L2,3 L-1,1 Z " fill="#635238" transform="translate(58,6)"/>
<path d="M0,0 L2,0 L3,6 L-2,6 Z " fill="#93695F" transform="translate(112,79)"/>
<path d="M0,0 L11,0 L11,1 L5,2 L7,5 L3,4 L3,2 L0,1 Z " fill="#92716F" transform="translate(42,80)"/>
<path d="M0,0 L4,0 L4,4 L-3,3 Z " fill="#30303C" transform="translate(146,76)"/>
<path d="M0,0 L4,1 L3,6 L0,6 Z " fill="#182027" transform="translate(0,70)"/>
<path d="M0,0 L4,0 L5,5 L0,4 Z " fill="#455150" transform="translate(8,65)"/>
<path d="M0,0 L1,2 L-3,3 L-4,6 L-6,6 L-7,1 Z " fill="#755D50" transform="translate(114,54)"/>
<path d="M0,0 L2,1 L-2,9 L-4,10 L-2,1 Z " fill="#6E4E37" transform="translate(91,50)"/>
<path d="M0,0 L2,2 L1,8 L-3,8 L-3,5 L-1,5 Z " fill="#282613" transform="translate(145,42)"/>
<path d="M0,0 L5,0 L4,5 L0,4 Z " fill="#6B5543" transform="translate(104,18)"/>
<path d="M0,0 L7,1 L6,5 L1,3 Z " fill="#998677" transform="translate(19,15)"/>
<path d="M0,0 L2,1 L1,5 L-4,6 L-4,3 L-6,2 L0,2 Z " fill="#877559" transform="translate(15,10)"/>
<path d="M0,0 L6,1 L5,5 L3,4 L2,6 Z " fill="#604A43" transform="translate(112,9)"/>
<path d="M0,0 L1,3 L5,4 L6,7 L1,8 Z " fill="#8D6F83" transform="translate(125,7)"/>
<path d="M0,0 L8,0 L10,2 L5,3 L5,5 L3,5 Z " fill="#191415" transform="translate(140,3)"/>
<path d="M0,0 L6,0 L5,4 L0,4 Z " fill="#897871" transform="translate(113,0)"/>
<path d="M0,0 L9,0 L10,4 L6,3 L0,1 Z " fill="#536769" transform="translate(100,80)"/>
<path d="M0,0 L3,0 L2,8 L0,8 L-1,1 Z " fill="#25223C" transform="translate(120,77)"/>
<path d="M0,0 L2,0 L2,8 L-1,8 Z " fill="#333D43" transform="translate(123,77)"/>
<path d="M0,0 L2,3 L2,8 L-7,8 L-7,7 L-1,6 Z " fill="#5D4D3E" transform="translate(98,64)"/>
<path d="M0,0 L5,0 L6,4 L0,4 Z " fill="#C9AF8E" transform="translate(43,56)"/>
<path d="M0,0 L3,0 L3,5 L-2,5 L-2,2 L0,2 Z " fill="#695534" transform="translate(75,52)"/>
<path d="M0,0 L4,0 L4,4 L6,5 L0,5 Z " fill="#4E2C2F" transform="translate(125,30)"/>
<path d="M0,0 L1,2 L8,4 L10,4 L10,6 L3,6 L2,3 L-1,2 Z " fill="#674F2B" transform="translate(54,18)"/>
<path d="M0,0 L1,0 L1,8 L3,8 L3,12 L1,12 L1,10 L-1,10 L-1,1 Z " fill="#4C3428" transform="translate(93,8)"/>
<path d="M0,0 L8,0 L8,3 L0,2 Z " fill="#322523" transform="translate(22,10)"/>
<path d="M0,0 L9,1 L9,3 L0,4 Z " fill="#2B1716" transform="translate(6,2)"/>
<path d="M0,0 L9,0 L9,2 L6,2 L6,4 L4,4 L4,2 L0,1 Z " fill="#40322D" transform="translate(125,0)"/>
<path d="M0,0 L3,0 L3,7 L0,7 Z " fill="#544044" transform="translate(0,0)"/>
<path d="M0,0 L8,2 L10,2 L10,4 L2,4 Z " fill="#73514D" transform="translate(68,81)"/>
<path d="M0,0 L3,4 L0,5 L-1,8 L-4,7 L-3,4 L0,3 Z " fill="#847153" transform="translate(56,68)"/>
<path d="M0,0 L7,1 L6,4 L0,3 Z " fill="#867869" transform="translate(0,60)"/>
<path d="M0,0 L2,0 L2,8 L-4,4 L-3,2 L0,4 Z " fill="#7F726E" transform="translate(139,43)"/>
<path d="M0,0 L2,4 L-2,7 L-4,7 L-5,10 L-6,5 L-1,4 Z " fill="#48363A" transform="translate(37,0)"/>
<path d="M0,0 L8,1 L8,3 L0,3 Z " fill="#574A46" transform="translate(10,82)"/>
<path d="M0,0 L4,1 L-1,2 L-1,5 L-3,5 L-3,3 L-5,2 Z " fill="#5C2B36" transform="translate(136,80)"/>
<path d="M0,0 L3,0 L4,7 L5,9 L2,9 Z " fill="#886B58" transform="translate(28,53)"/>
<path d="M0,0 L7,0 L4,3 L-3,3 Z " fill="#978566" transform="translate(63,50)"/>
<path d="M0,0 L1,0 L2,6 L0,8 L-6,6 L-2,4 Z " fill="#66515F" transform="translate(21,0)"/>
<path d="M0,0 L3,0 L3,5 L0,5 L-2,1 Z " fill="#5B4450" transform="translate(27,80)"/>
<path d="M0,0 L1,2 L3,3 L0,6 L-3,6 L-3,2 L0,2 Z " fill="#7E707D" transform="translate(143,74)"/>
<path d="M0,0 L5,0 L5,3 L-2,3 Z " fill="#9F897A" transform="translate(44,72)"/>
<path d="M0,0 L2,3 L2,5 L-3,6 L-2,1 Z " fill="#2A1C22" transform="translate(139,53)"/>
<path d="M0,0 L6,0 L6,3 L0,3 Z " fill="#B79E75" transform="translate(56,54)"/>
<path d="M0,0 L3,0 L2,4 L-1,7 L-1,1 Z " fill="#A48779" transform="translate(20,49)"/>
<path d="M0,0 L3,0 L2,5 L-2,4 Z " fill="#4E4242" transform="translate(137,49)"/>
<path d="M0,0 L2,0 L2,7 L-2,7 L-2,5 L0,5 Z " fill="#352112" transform="translate(108,43)"/>
<path d="M0,0 L5,0 L6,6 L0,1 Z " fill="#A0865D" transform="translate(40,44)"/>
<path d="M0,0 L5,0 L6,4 L4,4 L4,2 L2,2 L1,5 Z " fill="#5F4644" transform="translate(116,34)"/>
<path d="M0,0 L4,0 L4,4 L-2,4 L0,3 Z " fill="#755F53" transform="translate(16,20)"/>
<path d="M0,0 L1,0 L1,5 L4,5 L4,8 L1,8 L-1,4 Z " fill="#C3A1A9" transform="translate(130,7)"/>
<path d="M0,0 L5,0 L6,4 L1,4 Z " fill="#71615B" transform="translate(66,73)"/>
<path d="M0,0 L2,0 L2,7 L0,7 L-1,1 Z " fill="#B6C9DB" transform="translate(148,67)"/>
<path d="M0,0 L3,0 L3,5 L-1,4 Z " fill="#B7A17E" transform="translate(50,65)"/>
<path d="M0,0 L3,0 L4,5 L0,5 Z " fill="#6F8680" transform="translate(0,65)"/>
<path d="M0,0 L4,0 L4,2 L1,2 L1,7 L-1,5 Z " fill="#25130D" transform="translate(122,48)"/>
<path d="M0,0 L1,0 L1,6 L-2,7 L-2,2 Z " fill="#505543" transform="translate(149,43)"/>
<path d="M0,0 L2,0 L3,7 L0,6 Z " fill="#D2BDC0" transform="translate(135,38)"/>
<path d="M0,0 L5,1 L3,6 L1,6 Z " fill="#674851" transform="translate(124,20)"/>
<path d="M0,0 L5,0 L6,3 L3,4 L-1,1 Z " fill="#74604A" transform="translate(12,15)"/>
<path d="M0,0 L5,0 L6,3 L0,3 Z " fill="#4F3D44" transform="translate(23,7)"/>
<path d="M0,0 L4,0 L4,3 L2,3 L3,6 L1,6 Z " fill="#796152" transform="translate(101,1)"/>
<path d="M0,0 L3,0 L3,5 L0,6 Z " fill="#4B3747" transform="translate(28,0)"/>
<path d="M0,0 L1,4 L-4,4 L-4,1 Z " fill="#380615" transform="translate(139,81)"/>
<path d="M0,0 L5,1 L5,4 L0,4 Z " fill="#8E7B79" transform="translate(0,79)"/>
<path d="M0,0 L4,1 L1,4 L-2,4 L-3,6 L-2,2 Z " fill="#74646C" transform="translate(91,79)"/>
<path d="M0,0 L11,0 L11,1 L3,3 Z " fill="#76665D" transform="translate(36,79)"/>
<path d="M0,0 L6,1 L5,5 L5,3 L0,2 Z " fill="#6A6B6B" transform="translate(0,77)"/>
<path d="M0,0 L4,0 L4,4 L0,4 Z " fill="#766868" transform="translate(16,69)"/>
<path d="M0,0 L7,1 L7,6 L4,3 L4,1 Z " fill="#5D5750" transform="translate(8,64)"/>
<path d="M0,0 L2,0 L2,7 L-1,7 L-1,1 Z " fill="#7C673A" transform="translate(56,61)"/>
<path d="M0,0 L3,1 L2,5 L-1,5 Z " fill="#725A4E" transform="translate(6,43)"/>
<path d="M0,0 L4,4 L4,5 L-1,5 Z " fill="#8B7353" transform="translate(39,35)"/>
<path d="M0,0 L3,1 L3,7 L1,7 Z " fill="#7F6066" transform="translate(130,28)"/>
<path d="M0,0 L4,0 L3,4 L-1,4 Z " fill="#A08D7E" transform="translate(8,25)"/>
<path d="M0,0 L3,1 L2,9 L1,9 Z " fill="#291921" transform="translate(138,23)"/>
<path d="M0,0 L3,1 L5,5 L5,10 L3,6 L0,2 Z " fill="#473727" transform="translate(0,23)"/>
<path d="M0,0 L2,0 L2,2 L5,3 L4,5 L-1,4 Z " fill="#726259" transform="translate(20,10)"/>
<path d="M0,0 L4,0 L4,4 L0,4 Z " fill="#997D90" transform="translate(23,0)"/>
<path d="M0,0 L3,0 L3,5 L0,5 Z " fill="#4E292C" transform="translate(117,80)"/>
<path d="M0,0 L3,1 L4,4 L-1,4 Z " fill="#373337" transform="translate(14,79)"/>
<path d="M0,0 L10,2 L10,3 L0,3 Z " fill="#4C3B32" transform="translate(88,75)"/>
<path d="M0,0 L3,0 L2,7 L0,5 Z " fill="#AD96A2" transform="translate(138,73)"/>
<path d="M0,0 L2,0 L3,5 L-2,5 L-2,3 L0,3 Z " fill="#564238" transform="translate(123,65)"/>
<path d="M0,0 L3,0 L3,4 L1,4 L0,7 Z " fill="#68483E" transform="translate(126,60)"/>
<path d="M0,0 L2,0 L2,7 L0,7 L-1,1 Z " fill="#807249" transform="translate(68,53)"/>
<path d="M0,0 L2,0 L3,7 L-1,4 Z " fill="#776056" transform="translate(118,53)"/>
<path d="M0,0 L2,1 L1,8 L0,4 L-2,4 L-2,1 Z " fill="#84605E" transform="translate(146,50)"/>
<path d="M0,0 L5,0 L5,3 L0,3 Z " fill="#4D4543" transform="translate(129,44)"/>
<path d="M0,0 L2,0 L2,6 L-2,5 Z " fill="#5C4439" transform="translate(113,34)"/>
<path d="M0,0 L4,0 L2,6 L0,2 Z " fill="#64433A" transform="translate(106,30)"/>
<path d="M0,0 L2,0 L4,5 L-1,5 Z " fill="#B899A7" transform="translate(126,15)"/>
<path d="M0,0 L3,1 L4,5 L0,4 Z " fill="#43301F" transform="translate(109,8)"/>
<path d="M0,0 L1,0 L1,5 L-1,5 L-2,8 L-2,2 Z " fill="#34212A" transform="translate(121,3)"/>
<path d="M0,0 L3,0 L3,3 L1,3 L1,5 L-2,5 L-2,3 L0,3 Z " fill="#9C8974" transform="translate(105,1)"/>
<path d="M0,0 L5,0 L5,2 L2,2 L1,5 L0,5 Z " fill="#1A0904" transform="translate(40,0)"/>
<path d="M0,0 L5,0 L5,2 L1,5 Z " fill="#534034" transform="translate(99,65)"/>
<path d="M0,0 L1,3 L5,2 L5,6 L0,4 Z " fill="#685447" transform="translate(115,56)"/>
<path d="M0,0 L5,1 L2,2 L1,6 L0,6 Z " fill="#8E754A" transform="translate(54,57)"/>
<path d="M0,0 L6,1 L5,3 L0,3 Z " fill="#554636" transform="translate(0,55)"/>
<path d="M0,0 L3,0 L3,6 L1,6 Z " fill="#947766" transform="translate(82,50)"/>
<path d="M0,0 L3,1 L0,5 L-2,5 L-2,1 Z " fill="#806558" transform="translate(30,42)"/>
<path d="M0,0 L3,1 L2,5 L-1,4 Z " fill="#846F5C" transform="translate(111,43)"/>
<path d="M0,0 L2,0 L1,3 Z M-3,2 L0,3 L-2,7 Z " fill="#68574A" transform="translate(15,42)"/>
<path d="M0,0 L4,0 L4,3 L0,4 Z " fill="#9D8876" transform="translate(12,20)"/>
<path d="M0,0 L3,0 L2,3 L-3,3 L-3,1 Z " fill="#A08369" transform="translate(100,19)"/>
<path d="M0,0 L2,2 L2,7 L-1,6 Z " fill="#B89B86" transform="translate(115,14)"/>
<path d="M0,0 L3,0 L3,4 L-1,3 Z " fill="#B19780" transform="translate(110,14)"/>
<path d="M0,0 L3,1 L4,4 L-3,4 L0,3 Z " fill="#614C30" transform="translate(106,9)"/>
<path d="M0,0 L6,2 L6,3 L0,3 Z " fill="#341F0F" transform="translate(50,77)"/>
<path d="M0,0 L5,4 L1,6 Z " fill="#4F3B49" transform="translate(103,71)"/>
<path d="M0,0 L3,1 L3,5 L0,4 Z " fill="#2B1309" transform="translate(129,65)"/>
<path d="M0,0 L3,0 L2,5 L0,5 L-1,1 Z " fill="#8D857B" transform="translate(132,50)"/>
<path d="M0,0 L4,1 L4,3 L1,3 L0,5 Z " fill="#4B3A37" transform="translate(123,50)"/>
<path d="M0,0 L5,0 L5,2 L3,2 L2,4 Z " fill="#A38D81" transform="translate(8,42)"/>
<path d="M0,0 L4,0 L4,3 L-1,2 Z " fill="#8E7B6C" transform="translate(111,40)"/>
<path d="M0,0 L3,1 L3,3 L5,3 L5,5 L1,4 Z " fill="#A48C79" transform="translate(104,38)"/>
<path d="M0,0 L2,4 L0,5 L-2,4 L-2,1 Z " fill="#BFA46E" transform="translate(84,33)"/>
<path d="M0,0 L7,1 L7,3 L3,3 L3,1 Z " fill="#725737" transform="translate(49,20)"/>
<path d="M0,0 L2,0 L4,3 L3,6 L3,4 L0,4 Z " fill="#27150F" transform="translate(136,10)"/>
<path d="M0,0 L2,0 L2,4 L-2,3 L-2,1 Z " fill="#957D85" transform="translate(17,7)"/>
<path d="M0,0 L3,1 L4,4 L-1,3 Z " fill="#6A494B" transform="translate(42,81)"/>
<path d="M0,0 L4,0 L5,4 L1,2 Z " fill="#AC8A87" transform="translate(46,81)"/>
<path d="M0,0 L3,4 L-1,4 L-1,2 L-3,1 Z " fill="#545C5F" transform="translate(11,74)"/>
<path d="M0,0 L5,1 L5,3 L1,3 Z " fill="#AB978E" transform="translate(117,65)"/>
<path d="M0,0 Z M-4,1 L0,1 L-1,4 L-4,4 Z " fill="#73606D" transform="translate(144,58)"/>
<path d="M0,0 L2,0 L2,5 L-1,4 Z " fill="#897366" transform="translate(113,56)"/>
<path d="M0,0 L4,1 L3,4 L1,4 Z " fill="#A89086" transform="translate(4,49)"/>
<path d="M0,0 L5,1 L2,4 L0,3 Z " fill="#271407" transform="translate(62,40)"/>
<path d="M0,0 L3,0 L3,2 L6,3 L0,3 Z " fill="#6A5D4D" transform="translate(7,30)"/>
<path d="M0,0 L2,2 L2,5 L-2,5 Z " fill="#CEB4BC" transform="translate(130,22)"/>
<path d="M0,0 L4,0 L4,2 L6,3 L0,2 Z " fill="#8D7352" transform="translate(93,20)"/>
<path d="M0,0 L3,0 L3,4 L0,4 Z " fill="#4A3927" transform="translate(3,18)"/>
<path d="M0,0 L3,0 L3,4 L0,4 Z " fill="#B8A18A" transform="translate(7,16)"/>
<path d="M0,0 L3,0 L3,4 L0,4 Z " fill="#AF9A86" transform="translate(4,10)"/>
<path d="M0,0 L3,0 L3,4 L0,4 Z " fill="#5E4948" transform="translate(137,5)"/>
<path d="M0,0 L4,0 L4,3 L0,3 Z " fill="#746468" transform="translate(32,0)"/>
<path d="M0,0 L5,0 L5,3 L0,2 Z " fill="#0B0504" transform="translate(10,0)"/>
<path d="M0,0 L2,0 L2,5 L-2,2 L0,2 Z " fill="#544243" transform="translate(80,78)"/>
<path d="M0,0 L4,1 L2,3 L-1,3 Z " fill="#382821" transform="translate(73,68)"/>
<path d="M0,0 L1,2 L0,4 L-3,4 L-3,1 Z " fill="#514443" transform="translate(134,54)"/>
<path d="M0,0 L2,0 L2,4 L-1,4 Z " fill="#9B8279" transform="translate(121,22)"/>
<path d="M0,0 L3,1 L1,4 L-1,4 Z " fill="#43281C" transform="translate(86,15)"/>
<path d="M0,0 L3,0 L3,2 L5,3 L0,3 Z " fill="#443230" transform="translate(140,6)"/>
<path d="M0,0 L5,0 L4,3 L0,2 Z " fill="#5B4441" transform="translate(10,7)"/>
<path d="M0,0 L1,0 L1,5 L-2,6 Z " fill="#75616B" transform="translate(119,0)"/>
<path d="M0,0 L5,0 L3,3 L0,2 Z " fill="#8C6C6C" transform="translate(93,0)"/>
<path d="M0,0 L4,0 L4,3 L0,3 Z " fill="#321B28" transform="translate(15,0)"/>
<path d="M0,0 L5,2 L5,3 L-1,3 Z " fill="#6D5D50" transform="translate(70,62)"/>
<path d="M0,0 L5,1 L4,3 L0,2 Z " fill="#796357" transform="translate(113,60)"/>
<path d="M0,0 L5,0 L5,3 L0,1 Z " fill="#5A4436" transform="translate(106,61)"/>
<path d="M0,0 L5,1 L2,3 L0,3 Z " fill="#7C9297" transform="translate(142,18)"/>
<path d="M0,0 L4,1 L1,4 Z " fill="#B89996" transform="translate(50,81)"/>
<path d="M0,0 L2,0 L2,3 L-1,4 Z " fill="#825758" transform="translate(112,79)"/>
<path d="M0,0 L3,0 L3,3 L0,3 Z " fill="#D2C1C2" transform="translate(0,44)"/>
<path d="M0,0 L3,0 L3,3 L0,3 Z " fill="#9A8668" transform="translate(33,44)"/>
<path d="M0,0 L2,0 L3,4 L0,3 Z " fill="#997C72" transform="translate(103,31)"/>
<path d="M0,0 L2,0 L2,4 L-1,3 Z " fill="#3A3638" transform="translate(148,32)"/>
<path d="M0,0 L2,0 L2,3 L-1,4 Z " fill="#8C6C6A" transform="translate(121,19)"/>
<path d="M0,0 L3,0 L3,3 L0,3 Z " fill="#856953" transform="translate(97,13)"/>
<path d="M0,0 L4,1 L4,3 L0,1 Z " fill="#586D74" transform="translate(105,81)"/>
<path d="M0,0 L3,0 L3,3 L0,2 Z " fill="#1C1C1E" transform="translate(7,77)"/>
<path d="M0,0 L1,2 L3,3 L0,4 L-2,2 L0,2 Z " fill="#6C656E" transform="translate(143,74)"/>
<path d="M0,0 L3,1 L3,3 L0,3 Z " fill="#8B7775" transform="translate(73,73)"/>
<path d="M0,0 L3,1 L2,4 Z " fill="#8E7769" transform="translate(111,19)"/>
<path d="M0,0 L3,1 L2,3 L-1,2 Z " fill="#644A2C" transform="translate(89,19)"/>
<path d="M0,0 L2,0 L1,5 L-1,1 Z " fill="#716767" transform="translate(127,2)"/>
<path d="M0,0 L2,1 L2,3 L-1,3 Z " fill="#523A59" transform="translate(98,82)"/>
<path d="M0,0 L2,1 L2,3 L-1,3 Z " fill="#8F6E6C" transform="translate(68,82)"/>
<path d="M0,0 L3,1 L3,3 L0,2 Z " fill="#4A4036" transform="translate(17,80)"/>
<path d="M0,0 L2,1 L1,4 L-1,2 Z " fill="#816D5E" transform="translate(15,10)"/>
<path d="M0,0 L3,3 L0,3 Z " fill="#9E8490" transform="translate(128,4)"/>
<path d="M0,0 L2,2 L-1,2 Z " fill="#9C8977" transform="translate(111,40)"/>
</svg>
