<?xml version="1.0" encoding="UTF-8"?>
<!-- Generator: visioncortex VTracer 0.6.5 -->
<svg version="1.1" xmlns="http://www.w3.org/2000/svg" width="240" height="240">
<path d="M0,0 L240,0 L240,240 L0,240 Z " fill="#000000" transform="translate(0,0)"/>
<path d="M0,0 L6,0 L6,10 L10,10 L10,15 L16,15 L16,25 L21,25 L21,40 L26,40 L26,45 L31,45 L31,65 L36,65 L36,75 L42,75 L42,96 L-4,96 L-5,95 L-14,94 L-14,80 L-10,79 L-10,60 L-14,60 L-15,65 L-19,65 L-19,85 L-24,85 L-24,80 L-29,80 L-29,75 L-34,74 L-34,70 L-38,70 L-38,60 L-43,60 L-43,55 L-48,55 L-48,35 L-43,35 L-43,30 L-29,30 L-29,25 L-38,25 L-38,20 L-14,20 L-14,30 L-10,30 L-10,40 L5,40 L5,49 L10,49 L10,45 L16,45 L16,35 L1,35 L1,30 L-4,30 L-4,5 L0,5 Z " fill="#101111" transform="translate(84,144)"/>
<path d="M0,0 L24,0 L24,10 L28,10 L28,20 L34,20 L34,25 L39,25 L39,45 L43,45 L43,50 L48,50 L48,55 L54,55 L54,60 L59,60 L59,65 L44,65 L44,60 L39,60 L39,55 L34,55 L34,45 L29,45 L29,30 L24,30 L25,34 L28,34 L28,40 L24,40 L23,45 L19,45 L19,65 L14,65 L14,60 L9,60 L9,55 L4,54 L4,50 L0,50 L0,40 L-5,40 L-5,35 L-10,35 L-10,15 L-5,15 L-5,10 L9,10 L9,5 L0,5 Z " fill="#111515" transform="translate(46,164)"/>
<path d="M0,0 L5,0 L5,5 L10,5 L10,10 L15,10 L15,20 L20,20 L20,10 L30,10 L30,15 L39,15 L40,19 L45,20 L45,35 L50,35 L50,50 L45,50 L45,54 L40,54 L39,35 L36,35 L35,55 L40,55 L40,81 L39,84 L35,84 L34,86 L30,84 L25,84 L25,65 L20,65 L20,70 L15,70 L15,50 L10,50 L10,30 L5,30 L5,10 L0,10 Z " fill="#122221" transform="translate(145,154)"/>
<path d="M0,0 L4,1 L5,5 L5,15 L9,15 L9,5 L19,5 L19,20 L24,20 L24,26 L19,26 L19,40 L-1,40 L-1,45 L-5,45 L-5,50 L5,50 L5,55 L14,55 L14,60 L-5,60 L-5,55 L-11,55 L-11,50 L-16,50 L-16,40 L-21,40 L-21,20 L4,20 L4,15 L-25,15 L-26,10 L-25,5 L-10,4 L-10,8 L-6,8 L-5,4 L0,4 Z " fill="#334333" transform="translate(136,84)"/>
<path d="M0,0 L6,0 L6,10 L10,10 L10,15 L16,15 L16,25 L21,25 L21,40 L26,40 L26,45 L31,45 L31,65 L36,65 L36,85 L31,85 L31,80 L26,80 L26,75 L21,75 L21,65 L16,65 L16,60 L10,60 L10,55 L6,55 L6,50 L10,50 L10,45 L16,45 L16,35 L1,35 L1,30 L-4,30 L-4,5 L0,5 Z " fill="#334333" transform="translate(84,144)"/>
<path d="M0,0 L10,0 L10,5 L15,6 L15,9 L20,10 L20,6 L30,5 L30,20 L35,20 L35,30 L31,31 L30,50 L25,50 L25,45 L20,45 L19,41 L19,31 L14,30 L14,35 L5,35 L4,26 L-5,25 L-5,5 L-1,5 Z " fill="#101718" transform="translate(75,79)"/>
<path d="M0,0 L21,0 L21,5 L45,6 L45,10 L50,10 L50,20 L45,20 L45,25 L40,25 L40,30 L35,30 L35,25 L30,25 L30,30 L25,30 L25,25 L10,25 L10,20 L5,20 L5,15 L-10,15 L-10,5 L0,5 Z " fill="#344334" transform="translate(120,49)"/>
<path d="M0,0 L4,0 L5,9 L5,19 L0,20 L0,34 L9,34 L10,36 L-43,36 L-44,22 L-43,19 L-39,19 L-39,10 L-34,10 L-33,30 L-29,29 L-29,5 L-24,5 L-24,10 L-20,10 L-19,14 L-15,15 L-15,20 L-10,20 L-10,25 L-5,25 L-5,5 L-1,4 Z " fill="#000000" transform="translate(70,204)"/>
<path d="M0,0 L3,0 L4,4 L4,14 L-1,14 L-1,24 L-11,24 L-11,29 L-6,29 L-6,34 L-11,34 L-11,44 L-40,44 L-41,39 L-46,39 L-46,34 L-56,34 L-56,9 L-51,9 L-51,19 L-46,19 L-46,29 L-41,29 L-41,34 L-35,34 L-35,39 L-16,39 L-16,34 L-25,34 L-25,29 L-35,29 L-35,24 L-31,24 L-31,19 L-11,19 L-11,14 L-6,14 L-6,9 L-1,9 Z " fill="#1B2222" transform="translate(166,105)"/>
<path d="M0,0 L24,0 L24,10 L28,10 L28,20 L34,20 L34,25 L39,25 L39,45 L43,45 L43,50 L48,50 L48,55 L54,55 L54,60 L59,60 L59,65 L44,65 L44,60 L39,60 L39,55 L34,55 L34,45 L29,45 L29,30 L24,30 L24,20 L19,20 L19,15 L15,15 L15,10 L9,10 L9,5 L0,5 Z " fill="#334333" transform="translate(46,164)"/>
<path d="M0,0 L4,1 L5,5 L5,15 L9,15 L9,5 L19,5 L19,20 L24,20 L24,26 L19,26 L19,35 L9,35 L9,30 L0,30 L0,21 L-16,21 L-16,25 L-21,25 L-21,20 L4,20 L4,15 L-25,15 L-26,10 L-25,5 L-10,4 L-10,8 L-6,8 L-5,4 L0,4 Z " fill="#1C2221" transform="translate(136,84)"/>
<path d="M0,0 L5,0 L5,5 L10,5 L10,10 L15,10 L15,20 L20,20 L20,25 L15,25 L15,35 L20,35 L20,40 L25,40 L25,60 L20,60 L20,70 L15,70 L15,50 L10,50 L10,30 L5,30 L5,10 L0,10 Z " fill="#334333" transform="translate(145,154)"/>
<path d="M0,0 L5,0 L5,5 L10,6 L10,10 L15,10 L15,20 L19,20 L19,15 L25,15 L25,20 L30,20 L31,26 L30,45 L25,45 L25,40 L20,40 L19,36 L19,26 L14,25 L14,30 L5,30 L4,21 L0,20 L4,20 L4,6 L1,6 L0,8 Z " fill="#111212" transform="translate(75,84)"/>
<path d="M0,0 L14,0 L14,9 L0,10 L0,20 L5,20 L5,25 L14,25 L15,10 L19,10 L19,20 L24,20 L24,30 L19,30 L19,35 L14,35 L14,40 L10,40 L10,35 L5,35 L5,30 L0,30 L0,25 L-5,25 L-5,5 L0,5 Z " fill="#334333" transform="translate(41,174)"/>
<path d="M0,0 L24,0 L25,5 L4,5 L4,10 L-6,10 L-6,20 L9,20 L9,25 L-5,26 L-6,30 L-11,30 L-11,35 L-16,35 L-16,20 L-11,20 L-11,6 L-10,5 L-1,5 Z " fill="#112222" transform="translate(116,44)"/>
<path d="M0,0 L3,0 L4,4 L4,14 L-1,14 L-1,24 L-11,24 L-11,29 L-35,29 L-35,24 L-31,24 L-31,19 L-11,19 L-11,14 L-6,14 L-6,9 L-1,9 Z " fill="#131513" transform="translate(166,105)"/>
<path d="M0,0 L19,0 L19,5 L5,5 L5,10 L0,10 L0,30 L-9,30 L-10,29 L-10,10 L-5,10 L-5,5 L0,5 Z " fill="#111616" transform="translate(36,169)"/>
<path d="M0,0 L10,0 L10,20 L15,20 L15,29 L0,29 Z " fill="#111111" transform="translate(190,209)"/>
<path d="M0,0 L5,0 L5,5 L10,5 L10,40 L5,40 L5,20 L0,20 L0,15 L-5,15 L-5,5 L0,5 Z " fill="#111111" transform="translate(165,174)"/>
<path d="M0,0 L5,0 L5,5 L10,5 L10,10 L15,10 L15,20 L20,20 L20,25 L15,25 L15,35 L10,35 L10,30 L5,30 L5,10 L0,10 Z " fill="#112222" transform="translate(145,154)"/>
<path d="M0,0 L5,0 L5,5 L10,5 L10,10 L25,10 L25,19 L5,19 L5,15 L0,15 Z " fill="#182222" transform="translate(80,219)"/>
<path d="M0,0 L5,0 L5,15 L10,15 L10,30 L5,30 L5,34 L0,34 L-1,15 L-4,15 L-5,19 L-5,10 L0,10 Z " fill="#112220" transform="translate(185,174)"/>
<path d="M0,0 L19,0 L18,4 L16,2 L14,1 L13,3 L13,1 L9,2 L12,6 L10,6 L11,10 L18,9 L18,11 L20,12 L18,16 L15,15 L15,17 L17,18 L12,19 L11,17 L4,19 L4,14 L1,13 L1,10 L3,10 L4,7 L8,9 L8,5 L5,7 L2,6 L1,8 L-5,6 L-5,5 L0,5 Z " fill="#434442" transform="translate(121,50)"/>
<path d="M0,0 L5,0 L6,15 L6,26 L-4,26 L-5,12 L-4,9 L0,9 Z " fill="#112222" transform="translate(31,214)"/>
<path d="M0,0 L9,0 L10,9 L10,30 L9,30 L9,20 L5,20 L5,10 L-14,10 L-10,9 L-10,5 L0,5 Z " fill="#111111" transform="translate(65,154)"/>
<path d="M0,0 L5,0 L5,10 L10,10 L10,20 L5,20 L5,15 L0,15 L0,10 L-6,10 L-6,15 L-10,15 L-10,5 L0,5 Z " fill="#162222" transform="translate(100,89)"/>
<path d="M0,0 L19,0 L19,5 L14,5 L13,14 L-5,14 L-6,10 L9,10 L9,5 L0,5 Z " fill="#212222" transform="translate(141,134)"/>
<path d="M0,0 L3,0 L4,4 L4,14 L-1,14 L-1,24 L-11,24 L-12,19 L-11,14 L-6,14 L-6,9 L-1,9 Z " fill="#112219" transform="translate(166,105)"/>
<path d="M0,0 L10,0 L9,4 L24,4 L24,10 L0,10 L-1,5 Z " fill="#101111" transform="translate(111,89)"/>
<path d="M0,0 L6,0 L6,21 L-5,21 L-5,10 L0,10 Z " fill="#112222" transform="translate(120,219)"/>
<path d="M0,0 L5,0 L5,10 L9,10 L9,24 L0,24 Z " fill="#334433" transform="translate(175,204)"/>
<path d="M0,0 L5,0 L5,5 L10,6 L10,10 L14,10 L14,20 L5,20 L4,6 L1,6 L0,8 Z " fill="#000000" transform="translate(75,84)"/>
<path d="M0,0 L1,3 L6,3 L6,8 L11,8 L11,18 L1,18 L1,7 L-2,6 L-3,3 Z " fill="#110F11" transform="translate(119,156)"/>
<path d="M0,0 L4,0 L4,4 L19,4 L19,5 L14,5 L14,14 L4,14 L4,9 L-1,8 Z " fill="#111111" transform="translate(141,105)"/>
<path d="M0,0 L4,1 L5,5 L5,20 L4,20 L4,15 L-1,15 L-1,9 L-16,9 L-15,4 L-10,4 L-10,8 L-6,8 L-5,4 L0,4 Z " fill="#112222" transform="translate(136,84)"/>
<path d="M0,0 L5,0 L5,5 L10,5 L10,21 L4,21 L5,10 L0,9 Z " fill="#000000" transform="translate(105,219)"/>
<path d="M0,0 L6,0 L6,10 L10,10 L10,15 L5,15 L5,10 L1,10 L1,15 L-4,15 L-4,5 L0,5 Z " fill="#11221C" transform="translate(84,144)"/>
<path d="M0,0 L5,0 L5,5 L10,5 L10,10 L14,10 L14,15 L5,15 L5,10 L0,10 Z " fill="#222222" transform="translate(41,184)"/>
<path d="M0,0 L5,1 L5,10 L0,10 L0,20 L-5,20 L-5,6 L0,5 Z " fill="#110000" transform="translate(110,104)"/>
<path d="M0,0 L11,0 L11,15 L6,15 L6,5 L1,5 Z " fill="#112222" transform="translate(94,209)"/>
<path d="M0,0 L10,0 L10,9 L9,11 L0,10 Z " fill="#111111" transform="translate(46,229)"/>
<path d="M0,0 L5,0 L5,20 L0,20 Z " fill="#000000" transform="translate(170,194)"/>
<path d="M0,0 L5,0 L5,10 L10,10 L10,15 L0,15 Z " fill="#334433" transform="translate(150,94)"/>
<path d="M0,0 L5,0 L5,10 L0,10 L0,14 L-5,14 L-5,5 L0,5 Z " fill="#000000" transform="translate(165,174)"/>
<path d="M0,0 L5,0 L5,5 L0,5 L0,10 L-10,10 L-11,4 L-5,5 L-5,1 Z " fill="#101111" transform="translate(100,84)"/>
<path d="M0,0 L18,0 L19,5 L0,5 Z " fill="#000000" transform="translate(136,124)"/>
<path d="M0,0 L3,0 L4,4 L4,14 L-1,14 L-1,24 L-11,24 L-11,23 L-2,23 L-2,10 L-5,10 L-6,14 L-6,9 L-1,9 Z " fill="#111111" transform="translate(166,105)"/>
<path d="M0,0 L5,1 L5,5 L24,5 L24,0 L29,0 L29,10 L24,10 L24,6 L4,6 L0,5 Z " fill="#112221" transform="translate(141,49)"/>
<path d="M0,0 L5,0 L5,19 L1,20 L0,15 Z " fill="#220000" transform="translate(36,214)"/>
<path d="M0,0 L4,0 L4,19 L-1,19 L-1,3 Z " fill="#112219" transform="translate(32,179)"/>
<path d="M0,0 L15,0 L15,6 L0,6 Z " fill="#992222" transform="translate(120,93)"/>
<path d="M0,0 L5,0 L5,5 L9,5 L9,0 L10,4 L15,5 L15,10 L5,10 L4,5 L0,5 Z " fill="#111111" transform="translate(46,209)"/>
<path d="M0,0 L6,0 L6,5 L0,5 L1,9 L6,10 L6,15 L0,15 L0,10 L-5,10 L-5,5 L-1,4 Z " fill="#132222" transform="translate(94,204)"/>
<path d="M0,0 L5,0 L4,9 L0,9 L-1,11 L-5,9 L-10,9 L-10,5 L-1,4 Z " fill="#101111" transform="translate(180,229)"/>
<path d="M0,0 L5,0 L5,15 L-4,14 L-4,10 L0,10 Z " fill="#1F2222" transform="translate(120,219)"/>
<path d="M0,0 L4,0 L4,9 L0,9 L0,14 L-5,14 L-6,16 L-8,14 L-9,14 L-9,9 L-8,12 L-6,12 L-5,8 L-1,5 L0,6 L1,3 Z " fill="#434543" transform="translate(165,60)"/>
<path d="M0,0 L5,0 L5,5 L10,5 L10,6 L5,6 L5,10 L-5,10 L-5,5 L0,5 Z " fill="#122222" transform="translate(150,74)"/>
<path d="M0,0 L15,0 L15,5 L-4,5 L0,4 Z " fill="#122221" transform="translate(55,159)"/>
<path d="M0,0 L5,0 L6,2 L5,15 L0,15 L-1,2 Z " fill="#110000" transform="translate(110,159)"/>
<path d="M0,0 L10,0 L11,4 L29,4 L30,0 L30,5 L1,5 Z " fill="#112222" transform="translate(125,144)"/>
<path d="M0,0 L9,0 L9,9 L14,9 L10,10 L10,15 L9,15 L9,10 L5,10 L5,5 L0,5 Z " fill="#14221F" transform="translate(80,184)"/>
<path d="M0,0 L5,0 L5,5 L10,5 L10,10 L0,10 Z " fill="#334433" transform="translate(155,169)"/>
<path d="M0,0 L15,0 L15,5 L0,5 Z " fill="#222C22" transform="translate(110,64)"/>
<path d="M0,0 L4,0 L4,17 L0,17 L-1,3 Z " fill="#111111" transform="translate(27,223)"/>
<path d="M0,0 L5,1 L5,15 L0,15 Z " fill="#000000" transform="translate(160,159)"/>
<path d="M0,0 L5,0 L5,14 L0,14 Z " fill="#111111" transform="translate(160,224)"/>
<path d="M0,0 L5,0 L5,15 L10,15 L10,25 L9,25 L9,20 L4,19 L3,5 L0,4 Z " fill="#112222" transform="translate(70,194)"/>
<path d="M0,0 L1,0 L1,15 L-4,15 L-4,19 L-9,19 L-9,10 L-4,9 L-4,14 L0,14 Z " fill="#111111" transform="translate(194,189)"/>
<path d="M0,0 L5,0 L5,14 L1,15 L0,10 Z " fill="#111111" transform="translate(65,189)"/>
<path d="M0,0 L5,0 L5,4 L9,4 L10,0 L15,0 L15,11 L14,11 L14,5 L-1,5 Z " fill="#3F0F11" transform="translate(121,88)"/>
<path d="M0,0 L6,0 L6,11 L0,11 Z " fill="#112222" transform="translate(31,229)"/>
<path d="M0,0 L9,0 L9,10 L5,10 L5,5 L0,5 Z " fill="#000000" transform="translate(46,184)"/>
<path d="M0,0 L10,0 L10,6 L0,6 Z " fill="#772222" transform="translate(160,93)"/>
<path d="M0,0 L5,0 L5,11 L-1,11 Z " fill="#000000" transform="translate(110,229)"/>
<path d="M0,0 L4,0 L4,14 L0,14 Z " fill="#110000" transform="translate(85,120)"/>
<path d="M0,0 L21,0 L21,1 L1,1 L1,6 L-5,6 L-5,10 L-10,10 L-10,5 L0,5 Z " fill="#223331" transform="translate(120,49)"/>
<path d="M0,0 L5,0 L5,15 L4,15 L4,10 L0,10 Z " fill="#111111" transform="translate(185,174)"/>
<path d="M0,0 L5,0 L5,4 L11,4 L11,5 L5,5 L5,9 L0,9 Z " fill="#111111" transform="translate(89,184)"/>
<path d="M0,0 L10,0 L10,5 L0,6 Z " fill="#11221B" transform="translate(145,89)"/>
<path d="M0,0 L5,0 L5,10 L0,10 Z " fill="#333333" transform="translate(46,229)"/>
<path d="M0,0 L5,0 L5,10 L0,10 Z " fill="#111111" transform="translate(155,204)"/>
<path d="M0,0 L5,0 L5,10 L0,10 Z " fill="#202222" transform="translate(155,179)"/>
<path d="M0,0 L5,0 L5,10 L0,10 Z " fill="#111111" transform="translate(145,154)"/>
<path d="M0,0 L5,0 L5,10 L0,10 Z " fill="#111111" transform="translate(110,129)"/>
<path d="M0,0 L5,0 L5,10 L0,10 Z " fill="#111111" transform="translate(100,119)"/>
<path d="M0,0 L5,0 L5,20 L-5,20 L-5,19 L4,19 L4,5 L0,5 Z " fill="#333333" transform="translate(180,209)"/>
<path d="M0,0 L1,3 L0,6 L-5,5 L-8,6 L-12,4 L-13,6 L-18,6 L-19,10 L-19,5 L-14,5 L-13,1 L-7,3 L-3,1 L-1,1 Z " fill="#334435" transform="translate(129,54)"/>
<path d="M0,0 L5,1 L5,10 L0,10 Z " fill="#220000" transform="translate(110,104)"/>
<path d="M0,0 L9,0 L9,5 L0,5 Z " fill="#111111" transform="translate(165,214)"/>
<path d="M0,0 L5,0 L5,9 L0,9 Z " fill="#111111" transform="translate(41,184)"/>
<path d="M0,0 L4,0 L5,10 L0,10 Z " fill="#111111" transform="translate(150,174)"/>
<path d="M0,0 L9,0 L9,5 L0,5 Z " fill="#000000" transform="translate(46,169)"/>
<path d="M0,0 L5,0 L5,9 L0,9 Z " fill="#111111" transform="translate(170,60)"/>
<path d="M0,0 L1,0 L1,10 L-3,11 L-4,1 Z " fill="#110000" transform="translate(40,223)"/>
<path d="M0,0 L21,0 L21,1 L5,1 L5,5 L0,5 Z " fill="#222222" transform="translate(115,104)"/>
<path d="M0,0 L9,0 L8,5 L5,8 L5,4 L0,4 Z " fill="#212222" transform="translate(75,80)"/>
<path d="M0,0 L4,0 L4,10 L0,10 Z " fill="#000000" transform="translate(85,194)"/>
<path d="M0,0 L4,0 L4,10 L0,10 Z " fill="#172222" transform="translate(70,164)"/>
<path d="M0,0 L4,0 L4,10 L2,8 L0,10 L-1,1 Z " fill="#110E11" transform="translate(106,148)"/>
<path d="M0,0 L1,4 L6,5 L6,10 L0,10 Z " fill="#22332C" transform="translate(55,209)"/>
<path d="M0,0 L5,0 L5,6 L-4,6 L-5,10 L-5,5 L0,5 Z " fill="#112222" transform="translate(165,69)"/>
<path d="M0,0 L4,0 L4,10 L0,9 Z " fill="#112222" transform="translate(195,219)"/>
<path d="M0,0 L5,0 L5,5 L0,5 L0,15 L-1,15 L-1,4 Z " fill="#111111" transform="translate(46,224)"/>
<path d="M0,0 L4,0 L4,9 L0,9 Z " fill="#11221F" transform="translate(75,95)"/>
<path d="M0,0 L4,0 L4,9 L0,9 Z " fill="#112222" transform="translate(70,85)"/>
<path d="M0,0 L1,0 L1,10 L5,10 L5,15 L0,15 Z " fill="#111111" transform="translate(115,194)"/>
<path d="M0,0 L5,0 L5,10 L4,10 L4,5 L1,5 L0,9 Z " fill="#111111" transform="translate(180,184)"/>
<path d="M0,0 L6,0 L6,4 L10,5 L1,5 Z " fill="#111111" transform="translate(125,144)"/>
<path d="M0,0 L5,0 L5,5 L-4,5 L-1,1 Z " fill="#111111" transform="translate(84,109)"/>
<path d="M0,0 L2,0 L2,3 L-1,3 L-1,5 L1,5 L1,7 L-6,7 L-6,2 L-1,1 Z " fill="#110000" transform="translate(132,12)"/>
<path d="M0,0 L3,0 L4,9 L0,10 Z " fill="#000000" transform="translate(66,194)"/>
<path d="M0,0 L5,0 L5,6 L0,6 Z " fill="#111111" transform="translate(115,234)"/>
<path d="M0,0 L5,0 L5,6 L0,6 Z " fill="#334433" transform="translate(31,229)"/>
<path d="M0,0 L6,0 L6,5 L0,5 Z " fill="#112222" transform="translate(94,159)"/>
<path d="M0,0 L2,1 L3,0 L4,0 L4,9 L0,9 Z " fill="#222222" transform="translate(85,145)"/>
<path d="M0,0 L5,0 L5,6 L0,6 Z " fill="#772222" transform="translate(130,93)"/>
<path d="M0,0 L5,0 L5,5 L-5,5 L-5,4 L0,4 Z " fill="#441111" transform="translate(165,88)"/>
<path d="M0,0 L3,0 L3,4 L9,4 L9,5 L4,5 L3,9 L0,7 Z " fill="#111C11" transform="translate(151,75)"/>
<path d="M0,0 L5,0 L5,5 L1,5 L0,9 Z " fill="#111111" transform="translate(31,214)"/>
<path d="M0,0 L6,0 L6,5 L1,5 Z " fill="#000000" transform="translate(94,209)"/>
<path d="M0,0 L9,0 L5,1 L5,5 L0,5 Z " fill="#1C2222" transform="translate(155,99)"/>
<path d="M0,0 L5,0 L5,5 L0,5 L-1,1 Z " fill="#111111" transform="translate(36,199)"/>
<path d="M0,0 L3,0 L3,9 L0,9 Z " fill="#112219" transform="translate(61,219)"/>
<path d="M0,0 L9,0 L9,4 L4,4 L4,1 L2,1 L2,3 L0,3 Z " fill="#112211" transform="translate(91,90)"/>
<path d="M0,0 L1,0 L1,6 L-4,6 L-4,1 Z " fill="#112222" transform="translate(104,218)"/>
<path d="M0,0 L6,0 L5,5 L0,5 Z " fill="#223333" transform="translate(94,189)"/>
<path d="M0,0 L5,1 L5,6 L0,6 Z " fill="#111111" transform="translate(105,178)"/>
<path d="M0,0 L6,0 L5,5 L0,5 Z " fill="#111111" transform="translate(105,69)"/>
<path d="M0,0 L5,0 L5,5 L0,5 Z " fill="#112222" transform="translate(160,224)"/>
<path d="M0,0 L5,0 L5,5 L0,5 Z " fill="#112222" transform="translate(110,224)"/>
<path d="M0,0 L5,0 L5,5 L0,5 Z " fill="#110000" transform="translate(36,209)"/>
<path d="M0,0 L5,0 L5,5 L0,5 Z " fill="#112222" transform="translate(155,204)"/>
<path d="M0,0 L5,0 L5,5 L0,5 Z " fill="#111111" transform="translate(41,204)"/>
<path d="M0,0 L5,0 L5,5 L0,5 Z " fill="#112222" transform="translate(110,189)"/>
<path d="M0,0 L5,0 L5,5 L0,5 Z " fill="#122222" transform="translate(60,189)"/>
<path d="M0,0 L5,0 L5,5 L0,5 Z " fill="#111111" transform="translate(80,174)"/>
<path d="M0,0 L5,0 L5,5 L0,5 Z " fill="#000000" transform="translate(55,174)"/>
<path d="M0,0 L5,0 L5,5 L0,5 Z " fill="#111111" transform="translate(165,169)"/>
<path d="M0,0 L5,0 L5,5 L0,5 Z " fill="#112222" transform="translate(100,169)"/>
<path d="M0,0 L5,0 L5,5 L0,5 Z " fill="#220000" transform="translate(110,164)"/>
<path d="M0,0 L5,0 L5,5 L0,5 Z " fill="#112222" transform="translate(46,164)"/>
<path d="M0,0 L5,0 L5,5 L0,5 Z " fill="#112222" transform="translate(89,154)"/>
<path d="M0,0 L5,0 L5,5 L0,5 Z " fill="#111111" transform="translate(95,144)"/>
<path d="M0,0 L5,0 L5,5 L0,5 Z " fill="#111111" transform="translate(155,139)"/>
<path d="M0,0 L5,0 L5,5 L0,5 Z " fill="#111111" transform="translate(95,134)"/>
<path d="M0,0 L5,0 L5,5 L0,5 Z " fill="#112222" transform="translate(100,119)"/>
<path d="M0,0 L5,0 L5,5 L0,5 Z " fill="#22332B" transform="translate(145,104)"/>
<path d="M0,0 L5,0 L5,5 L0,5 Z " fill="#334433" transform="translate(115,94)"/>
<path d="M0,0 L5,0 L5,5 L0,5 Z " fill="#111111" transform="translate(125,69)"/>
<path d="M0,0 L5,0 L5,5 L0,5 Z " fill="#223322" transform="translate(110,64)"/>
<path d="M0,0 L5,0 L4,5 L0,5 Z " fill="#000000" transform="translate(100,214)"/>
<path d="M0,0 L1,0 L1,15 L0,15 L0,5 L-9,5 L-9,4 L0,4 Z " fill="#333322" transform="translate(55,179)"/>
<path d="M0,0 L5,1 L5,5 L0,5 Z " fill="#111111" transform="translate(160,159)"/>
<path d="M0,0 L4,0 L4,6 L0,6 Z " fill="#BB4433" transform="translate(160,93)"/>
<path d="M0,0 L4,0 L4,5 L-1,5 Z " fill="#223333" transform="translate(151,69)"/>
<path d="M0,0 L24,0 L24,1 L0,1 Z " fill="#111111" transform="translate(116,44)"/>
<path d="M0,0 L5,0 L4,5 L0,5 Z " fill="#110000" transform="translate(215,219)"/>
<path d="M0,0 L1,0 L1,21 L0,21 Z " fill="#111111" transform="translate(125,219)"/>
<path d="M0,0 L1,0 L1,6 L-3,6 L-3,1 Z " fill="#111111" transform="translate(64,183)"/>
<path d="M0,0 L4,0 L5,5 L0,5 Z " fill="#111111" transform="translate(180,169)"/>
<path d="M0,0 L4,1 L2,4 L1,11 L0,11 Z " fill="#222222" transform="translate(111,114)"/>
<path d="M0,0 L5,1 L5,5 L0,5 Z " fill="#112222" transform="translate(145,114)"/>
<path d="M0,0 L5,0 L5,4 L0,4 Z " fill="#1E2222" transform="translate(165,214)"/>
<path d="M0,0 L5,0 L5,4 L0,4 Z " fill="#112222" transform="translate(180,209)"/>
<path d="M0,0 L4,0 L4,5 L0,5 Z " fill="#112222" transform="translate(85,204)"/>
<path d="M0,0 L1,0 L1,20 L0,20 Z " fill="#333322" transform="translate(169,194)"/>
<path d="M0,0 L5,0 L5,4 L0,4 Z " fill="#112222" transform="translate(46,194)"/>
<path d="M0,0 L5,0 L5,4 L0,4 Z " fill="#000000" transform="translate(165,189)"/>
<path d="M0,0 L4,0 L4,5 L0,5 Z " fill="#223333" transform="translate(51,174)"/>
<path d="M0,0 L4,0 L4,5 L0,5 Z " fill="#000000" transform="translate(131,129)"/>
<path d="M0,0 L4,0 L4,5 L0,5 Z " fill="#220000" transform="translate(85,129)"/>
<path d="M0,0 L20,0 L20,1 L0,1 Z " fill="#301100" transform="translate(115,99)"/>
<path d="M0,0 L5,0 L5,4 L0,4 Z " fill="#112222" transform="translate(115,90)"/>
<path d="M0,0 L4,1 L3,6 L0,6 Z " fill="#111111" transform="translate(136,84)"/>
<path d="M0,0 L4,0 L4,5 L0,5 Z " fill="#112222" transform="translate(141,69)"/>
<path d="M0,0 L5,0 L5,4 L0,4 Z " fill="#112222" transform="translate(115,65)"/>
<path d="M0,0 L20,0 L20,1 L0,1 Z " fill="#222C22" transform="translate(145,54)"/>
<path d="M0,0 L4,0 L3,5 L0,5 Z " fill="#000000" transform="translate(90,204)"/>
<path d="M0,0 L10,0 L10,5 L9,1 L1,1 L1,6 L0,6 Z " fill="#111111" transform="translate(145,89)"/>
<path d="M0,0 L5,0 L1,1 L1,15 L0,15 Z " fill="#111111" transform="translate(100,64)"/>
<path d="M0,0 L2,0 L2,2 L6,2 L7,0 L11,2 L11,3 L0,3 Z " fill="#344436" transform="translate(112,61)"/>
<path d="M0,0 L4,0 L4,5 L0,4 Z " fill="#110000" transform="translate(12,219)"/>
<path d="M0,0 L4,0 L4,5 L0,4 Z " fill="#110000" transform="translate(225,214)"/>
<path d="M0,0 L1,0 L1,5 L-8,5 L-9,9 L-9,4 L0,4 Z " fill="#111311" transform="translate(169,70)"/>
<path d="M0,0 L5,0 L5,6 L4,6 L4,1 L3,5 L0,5 Z " fill="#111611" transform="translate(165,49)"/>
<path d="M0,0 L3,0 L4,3 L2,5 L-1,4 Z " fill="#110000" transform="translate(206,209)"/>
<path d="M0,0 L4,1 L3,5 L0,5 Z " fill="#110000" transform="translate(225,204)"/>
<path d="M0,0 L10,0 L9,4 L9,1 L1,1 L0,5 Z " fill="#111411" transform="translate(36,169)"/>
<path d="M0,0 L16,0 L15,2 L0,1 Z " fill="#444A44" transform="translate(148,55)"/>
<path d="M0,0 L4,0 L4,4 L0,4 Z " fill="#000000" transform="translate(90,189)"/>
<path d="M0,0 L5,0 L5,4 L0,4 Z " fill="#222222" transform="translate(155,165)"/>
<path d="M0,0 L4,0 L4,4 L0,4 Z " fill="#110000" transform="translate(26,164)"/>
<path d="M0,0 L4,0 L2,5 L0,5 Z " fill="#000011" transform="translate(116,154)"/>
<path d="M0,0 L4,0 L4,4 L0,4 Z " fill="#000011" transform="translate(116,139)"/>
<path d="M0,0 L16,0 L16,1 L0,1 Z " fill="#2A3322" transform="translate(120,104)"/>
<path d="M0,0 L1,0 L1,15 L0,15 Z " fill="#111111" transform="translate(154,189)"/>
<path d="M0,0 L15,0 L15,1 L0,1 Z " fill="#333333" transform="translate(85,178)"/>
<path d="M0,0 L1,0 L1,15 L0,15 Z " fill="#111111" transform="translate(79,159)"/>
<path d="M0,0 L2,1 L1,6 L2,8 L-1,8 Z " fill="#000011" transform="translate(107,155)"/>
<path d="M0,0 L1,0 L1,15 L0,15 Z " fill="#111111" transform="translate(140,89)"/>
<path d="M0,0 L1,0 L1,10 L-4,10 L0,9 Z " fill="#222222" transform="translate(50,229)"/>
<path d="M0,0 L1,0 L1,11 L-1,11 Z " fill="#111111" transform="translate(36,229)"/>
<path d="M0,0 L1,0 L1,14 L0,14 Z " fill="#223322" transform="translate(174,214)"/>
<path d="M0,0 L1,4 L5,5 L1,5 L1,10 L0,10 Z " fill="#1C2222" transform="translate(55,209)"/>
<path d="M0,0 L14,0 L14,1 L0,1 Z " fill="#444A44" transform="translate(121,105)"/>
<path d="M0,0 L3,0 L3,4 L-1,4 Z " fill="#112222" transform="translate(151,90)"/>
<path d="M0,0 L10,0 L10,5 L9,1 L0,1 Z " fill="#111D11" transform="translate(75,79)"/>
<path d="M0,0 L1,3 L-1,3 L-1,8 L-2,8 L-2,3 L-5,2 Z " fill="#334433" transform="translate(132,66)"/>
<path d="M0,0 L1,0 L1,14 L0,14 Z " fill="#111111" transform="translate(105,50)"/>
<path d="M0,0 L4,1 L4,4 L0,3 Z " fill="#090011" transform="translate(190,209)"/>
<path d="M0,0 L1,0 L1,5 L8,5 L8,6 L0,6 Z " fill="#993322" transform="translate(120,93)"/>
<path d="M0,0 L3,0 L3,4 L0,4 Z " fill="#222222" transform="translate(161,224)"/>
<path d="M0,0 L2,2 L2,7 L0,7 Z " fill="#112211" transform="translate(27,191)"/>
<path d="M0,0 L4,0 L4,3 L0,3 Z " fill="#223322" transform="translate(46,190)"/>
<path d="M0,0 L3,0 L3,4 L0,4 Z " fill="#112222" transform="translate(80,174)"/>
<path d="M0,0 L4,0 L4,3 L0,3 Z " fill="#112222" transform="translate(106,150)"/>
<path d="M0,0 L4,0 L4,3 L0,3 Z " fill="#000011" transform="translate(106,145)"/>
<path d="M0,0 L2,0 L2,5 L-2,4 L0,4 Z " fill="#112222" transform="translate(129,139)"/>
<path d="M0,0 L2,0 L2,9 L0,8 Z " fill="#112222" transform="translate(162,119)"/>
<path d="M0,0 L3,0 L3,4 L0,4 Z " fill="#112222" transform="translate(166,110)"/>
<path d="M0,0 L4,0 L3,4 L0,4 Z " fill="#112211" transform="translate(80,109)"/>
<path d="M0,0 L3,1 L3,4 L0,5 Z " fill="#111111" transform="translate(190,189)"/>
<path d="M0,0 L4,0 L3,4 L0,2 Z " fill="#110000" transform="translate(175,150)"/>
<path d="M0,0 L1,4 L7,4 L7,5 L0,5 Z " fill="#112222" transform="translate(120,139)"/>
<path d="M0,0 L1,0 L1,11 L0,11 Z " fill="#221111" transform="translate(135,88)"/>
<path d="M0,0 L11,0 L11,1 L0,1 Z " fill="#112211" transform="translate(130,74)"/>
<path d="M0,0 L2,0 L3,4 L-1,4 Z " fill="#110000" transform="translate(145,25)"/>
<path d="M0,0 L1,0 L1,10 L0,10 Z " fill="#223322" transform="translate(120,219)"/>
<path d="M0,0 L1,0 L1,10 L0,10 Z " fill="#222222" transform="translate(79,209)"/>
<path d="M0,0 L1,0 L1,10 L0,10 Z " fill="#111111" transform="translate(120,209)"/>
<path d="M0,0 L1,0 L1,10 L0,10 Z " fill="#111111" transform="translate(174,204)"/>
<path d="M0,0 L1,0 L1,10 L0,10 Z " fill="#222222" transform="translate(74,194)"/>
<path d="M0,0 L1,0 L1,10 L0,10 Z " fill="#111100" transform="translate(115,194)"/>
<path d="M0,0 L1,0 L1,10 L0,10 Z " fill="#223322" transform="translate(84,194)"/>
<path d="M0,0 L1,0 L1,10 L0,10 Z " fill="#222222" transform="translate(55,184)"/>
<path d="M0,0 L1,0 L1,10 L0,10 Z " fill="#222222" transform="translate(154,169)"/>
<path d="M0,0 L1,0 L1,10 L0,10 Z " fill="#222222" transform="translate(74,174)"/>
<path d="M0,0 L1,0 L1,10 L0,10 Z " fill="#444433" transform="translate(80,163)"/>
<path d="M0,0 L1,0 L1,10 L0,10 Z " fill="#111111" transform="translate(89,144)"/>
<path d="M0,0 L10,0 L10,1 L0,1 Z " fill="#334433" transform="translate(131,134)"/>
<path d="M0,0 L1,0 L1,10 L0,10 Z " fill="#111111" transform="translate(135,124)"/>
<path d="M0,0 L1,4 L6,4 L6,5 L0,5 Z " fill="#445544" transform="translate(131,69)"/>
<path d="M0,0 L1,4 L5,5 L0,5 Z " fill="#222222" transform="translate(100,219)"/>
<path d="M0,0 L1,0 L1,9 L0,9 Z " fill="#112211" transform="translate(74,204)"/>
<path d="M0,0 L4,2 L3,4 L0,2 Z " fill="#110000" transform="translate(215,204)"/>
<path d="M0,0 L2,0 L2,5 L-2,4 L1,4 Z " fill="#222222" transform="translate(87,204)"/>
<path d="M0,0 L9,0 L9,1 L0,1 Z " fill="#223322" transform="translate(46,198)"/>
<path d="M0,0 L1,4 L5,5 L0,5 Z " fill="#222222" transform="translate(110,189)"/>
<path d="M0,0 L1,0 L1,9 L0,9 Z " fill="#444433" transform="translate(56,184)"/>
<path d="M0,0 L1,0 L1,5 L-4,5 L0,4 Z " fill="#333333" transform="translate(164,174)"/>
<path d="M0,0 L1,0 L1,5 L-4,5 L0,4 Z " fill="#222222" transform="translate(40,174)"/>
<path d="M0,0 L1,4 L5,5 L0,5 Z " fill="#222222" transform="translate(100,169)"/>
<path d="M0,0 L1,4 L5,5 L0,5 Z " fill="#222222" transform="translate(55,169)"/>
<path d="M0,0 L1,0 L1,5 L-4,5 L0,4 Z " fill="#111111" transform="translate(55,159)"/>
<path d="M0,0 L9,0 L9,1 L0,1 Z " fill="#223322" transform="translate(141,138)"/>
<path d="M0,0 L9,0 L9,1 L0,1 Z " fill="#444944" transform="translate(131,135)"/>
<path d="M0,0 L5,0 L1,1 L0,5 Z " fill="#111511" transform="translate(159,99)"/>
<path d="M0,0 L1,0 L1,9 L0,9 Z " fill="#222222" transform="translate(90,95)"/>
<path d="M0,0 L1,0 L1,9 L0,9 Z " fill="#444444" transform="translate(146,70)"/>
<path d="M0,0 L3,3 L2,5 L-1,2 Z " fill="#44443F" transform="translate(158,62)"/>
<path d="M0,0 L4,1 L2,4 L1,2 L-1,1 Z " fill="#334437" transform="translate(125,51)"/>
<path d="M0,0 L1,0 L1,5 L-4,5 L0,4 Z " fill="#334433" transform="translate(120,50)"/>
<path d="M0,0 L9,0 L9,1 L0,1 Z " fill="#111111" transform="translate(106,49)"/>
<path d="M0,0 L0,3 L-3,4 L-2,1 Z " fill="#110000" transform="translate(129,33)"/>
<path d="M0,0 L1,0 L1,8 L0,8 Z " fill="#001104" transform="translate(169,220)"/>
<path d="M0,0 L1,0 L1,5 L-3,4 L0,4 Z " fill="#111E11" transform="translate(104,218)"/>
<path d="M0,0 L1,0 L1,5 L-3,4 L0,4 Z " fill="#1A2222" transform="translate(60,214)"/>
<path d="M0,0 L1,3 L5,4 L0,4 Z " fill="#444433" transform="translate(56,169)"/>
<path d="M0,0 L4,1 L1,1 L2,4 L0,4 Z " fill="#111111" transform="translate(116,139)"/>
<path d="M0,0 L3,0 L2,3 L0,3 Z " fill="#112211" transform="translate(156,121)"/>
<path d="M0,0 L3,0 L2,3 L0,3 Z " fill="#112211" transform="translate(142,106)"/>
<path d="M0,0 L5,0 L4,4 L4,1 Z " fill="#331111" transform="translate(165,88)"/>
<path d="M0,0 L7,0 L7,1 L0,1 Z " fill="#111111" transform="translate(93,208)"/>
<path d="M0,0 L1,0 L1,7 L0,7 Z " fill="#222222" transform="translate(73,165)"/>
<path d="M0,0 L7,0 L7,1 L0,1 Z " fill="#223322" transform="translate(62,163)"/>
<path d="M0,0 L4,1 L1,1 L0,4 Z " fill="#223322" transform="translate(141,100)"/>
<path d="M0,0 L7,0 L7,1 L0,1 Z " fill="#220000" transform="translate(128,99)"/>
<path d="M0,0 L3,1 L3,3 L0,3 Z " fill="#CC4433" transform="translate(161,96)"/>
<path d="M0,0 L4,0 L4,2 L0,1 Z " fill="#AA3333" transform="translate(126,93)"/>
<path d="M0,0 L1,0 L1,7 L0,7 Z " fill="#110000" transform="translate(170,92)"/>
<path d="M0,0 L2,0 L2,2 L-2,3 Z " fill="#384433" transform="translate(130,60)"/>
<path d="M0,0 L3,0 L2,3 Z " fill="#110000" transform="translate(229,229)"/>
<path d="M0,0 L3,0 L3,2 L0,2 Z " fill="#110000" transform="translate(220,229)"/>
<path d="M0,0 L2,0 L1,3 L-1,1 Z " fill="#110000" transform="translate(9,229)"/>
<path d="M0,0 L1,0 L1,6 L0,6 Z " fill="#444433" transform="translate(73,174)"/>
<path d="M0,0 L6,0 L6,1 L0,1 Z " fill="#222222" transform="translate(94,163)"/>
<path d="M0,0 L1,3 L3,4 L0,4 Z " fill="#110000" transform="translate(17,149)"/>
<path d="M0,0 L1,2 L4,3 L0,3 Z " fill="#444433" transform="translate(126,135)"/>
<path d="M0,0 L1,0 L1,6 L0,6 Z " fill="#444444" transform="translate(129,129)"/>
<path d="M0,0 L1,0 L1,6 L0,6 Z " fill="#993322" transform="translate(160,93)"/>
<path d="M0,0 L1,0 L1,6 L0,6 Z " fill="#773322" transform="translate(120,93)"/>
<path d="M0,0 L1,3 L-2,3 L-1,1 Z " fill="#111111" transform="translate(149,91)"/>
<path d="M0,0 L1,0 L1,6 L0,6 Z " fill="#444444" transform="translate(139,68)"/>
<path d="M0,0 L3,0 L2,4 L2,1 Z " fill="#222222" transform="translate(122,65)"/>
<path d="M0,0 L3,1 L-1,2 Z " fill="#444444" transform="translate(142,63)"/>
<path d="M0,0 L4,0 L3,2 L0,2 Z " fill="#445544" transform="translate(165,60)"/>
<path d="M0,0 L1,2 L3,3 L0,4 Z " fill="#110000" transform="translate(144,18)"/>
<path d="M0,0 L5,0 L5,1 L0,1 Z " fill="#222222" transform="translate(31,235)"/>
<path d="M0,0 L5,0 L5,1 L0,1 Z " fill="#222222" transform="translate(80,232)"/>
<path d="M0,0 L5,0 L5,1 L0,1 Z " fill="#111111" transform="translate(110,228)"/>
<path d="M0,0 L5,0 L5,1 L0,1 Z " fill="#222222" transform="translate(31,228)"/>
<path d="M0,0 L1,0 L1,5 L0,5 Z " fill="#223333" transform="translate(89,224)"/>
<path d="M0,0 L1,0 L1,5 L0,5 Z " fill="#112222" transform="translate(88,224)"/>
<path d="M0,0 L1,0 L1,5 L0,5 Z " fill="#223322" transform="translate(84,219)"/>
<path d="M0,0 L5,0 L5,1 L0,1 Z " fill="#223322" transform="translate(105,218)"/>
<path d="M0,0 L1,0 L1,5 L0,5 Z " fill="#222222" transform="translate(174,214)"/>
<path d="M0,0 L5,0 L5,1 L0,1 Z " fill="#223322" transform="translate(180,213)"/>
<path d="M0,0 L5,0 L5,1 L0,1 Z " fill="#111111" transform="translate(100,213)"/>
<path d="M0,0 L1,0 L1,5 L0,5 Z " fill="#223322" transform="translate(89,209)"/>
<path d="M0,0 L1,0 L1,5 L0,5 Z " fill="#222222" transform="translate(50,209)"/>
<path d="M0,0 L5,0 L5,1 L0,1 Z " fill="#222222" transform="translate(115,208)"/>
<path d="M0,0 L5,0 L5,1 L0,1 Z " fill="#333333" transform="translate(100,208)"/>
<path d="M0,0 L5,0 L5,1 L0,1 Z " fill="#333333" transform="translate(46,208)"/>
<path d="M0,0 L5,0 L5,1 L0,1 Z " fill="#223322" transform="translate(175,203)"/>
<path d="M0,0 L5,0 L5,1 L0,1 Z " fill="#333333" transform="translate(36,198)"/>
<path d="M0,0 L1,0 L1,5 L0,5 Z " fill="#222222" transform="translate(89,194)"/>
<path d="M0,0 L1,0 L1,5 L0,5 Z " fill="#444433" transform="translate(83,194)"/>
<path d="M0,0 L1,0 L1,5 L0,5 Z " fill="#223322" transform="translate(60,189)"/>
<path d="M0,0 L5,0 L5,1 L0,1 Z " fill="#223322" transform="translate(155,188)"/>
<path d="M0,0 L5,0 L5,1 L0,1 Z " fill="#222222" transform="translate(80,188)"/>
<path d="M0,0 L1,0 L1,5 L0,5 Z " fill="#222222" transform="translate(69,184)"/>
<path d="M0,0 L1,0 L1,5 L0,5 Z " fill="#222222" transform="translate(60,184)"/>
<path d="M0,0 L1,0 L1,5 L0,5 Z " fill="#112211" transform="translate(27,183)"/>
<path d="M0,0 L5,0 L5,1 L0,1 Z " fill="#222222" transform="translate(105,183)"/>
<path d="M0,0 L5,0 L5,1 L0,1 Z " fill="#111111" transform="translate(75,183)"/>
<path d="M0,0 L5,0 L5,1 L0,1 Z " fill="#444433" transform="translate(50,182)"/>
<path d="M0,0 L1,0 L1,5 L0,5 Z " fill="#222211" transform="translate(60,174)"/>
<path d="M0,0 L1,0 L1,5 L0,5 Z " fill="#222222" transform="translate(84,174)"/>
<path d="M0,0 L1,0 L1,5 L0,5 Z " fill="#111111" transform="translate(55,174)"/>
<path d="M0,0 L3,1 L0,2 Z " fill="#222222" transform="translate(173,173)"/>
<path d="M0,0 L1,0 L1,5 L0,5 Z " fill="#111111" transform="translate(160,169)"/>
<path d="M0,0 L1,0 L1,5 L0,5 Z " fill="#223322" transform="translate(154,169)"/>
<path d="M0,0 L1,0 L1,5 L0,5 Z " fill="#111111" transform="translate(100,164)"/>
<path d="M0,0 L1,0 L1,5 L0,5 Z " fill="#222222" transform="translate(50,164)"/>
<path d="M0,0 L1,0 L1,5 L0,5 Z " fill="#223322" transform="translate(89,154)"/>
<path d="M0,0 L1,0 L1,5 L0,5 Z " fill="#223322" transform="translate(84,154)"/>
<path d="M0,0 L1,0 L1,5 L0,5 Z " fill="#111111" transform="translate(83,154)"/>
<path d="M0,0 L1,0 L1,5 L0,5 Z " fill="#111111" transform="translate(84,144)"/>
<path d="M0,0 L1,0 L1,5 L0,5 Z " fill="#223326" transform="translate(130,139)"/>
<path d="M0,0 L5,0 L5,1 L0,1 Z " fill="#112222" transform="translate(155,138)"/>
<path d="M0,0 L1,0 L1,5 L0,5 Z " fill="#333333" transform="translate(125,134)"/>
<path d="M0,0 L1,0 L1,5 L0,5 Z " fill="#112222" transform="translate(140,129)"/>
<path d="M0,0 L1,0 L1,5 L0,5 Z " fill="#222222" transform="translate(130,129)"/>
<path d="M0,0 L1,0 L1,5 L0,5 Z " fill="#110000" transform="translate(89,129)"/>
<path d="M0,0 L1,0 L1,5 L0,5 Z " fill="#110000" transform="translate(84,129)"/>
<path d="M0,0 L1,0 L1,5 L0,5 Z " fill="#222222" transform="translate(135,124)"/>
<path d="M0,0 L5,0 L5,1 L0,1 Z " fill="#444433" transform="translate(140,122)"/>
<path d="M0,0 L5,0 L5,1 L0,1 Z " fill="#111111" transform="translate(155,119)"/>
<path d="M0,0 L1,0 L1,5 L0,5 Z " fill="#222222" transform="translate(145,114)"/>
<path d="M0,0 L5,0 L5,1 L0,1 Z " fill="#221111" transform="translate(110,113)"/>
<path d="M0,0 L1,0 L1,5 L0,5 Z " fill="#000011" transform="translate(94,110)"/>
<path d="M0,0 L1,0 L1,5 L0,5 Z " fill="#333333" transform="translate(115,109)"/>
<path d="M0,0 L1,0 L1,5 L0,5 Z " fill="#221111" transform="translate(110,104)"/>
<path d="M0,0 L5,0 L5,1 L0,1 Z " fill="#111611" transform="translate(115,104)"/>
<path d="M0,0 L5,0 L5,1 L0,1 Z " fill="#111111" transform="translate(115,99)"/>
<path d="M0,0 L5,0 L5,1 L0,1 Z " fill="#112222" transform="translate(105,99)"/>
<path d="M0,0 L1,0 L1,5 L0,5 Z " fill="#932222" transform="translate(164,94)"/>
<path d="M0,0 L1,0 L1,5 L0,5 Z " fill="#333333" transform="translate(115,94)"/>
<path d="M0,0 L1,0 L1,5 L0,5 Z " fill="#882222" transform="translate(130,93)"/>
<path d="M0,0 L1,0 L1,5 L0,5 Z " fill="#110000" transform="translate(159,94)"/>
<path d="M0,0 L5,0 L5,1 L0,1 Z " fill="#551111" transform="translate(121,92)"/>
<path d="M0,0 L1,0 L1,5 L0,5 Z " fill="#001111" transform="translate(79,84)"/>
<path d="M0,0 L5,0 L5,1 L0,1 Z " fill="#112222" transform="translate(136,74)"/>
<path d="M0,0 L1,0 L1,5 L0,5 Z " fill="#334433" transform="translate(164,69)"/>
<path d="M0,0 L5,0 L5,1 L0,1 Z " fill="#223322" transform="translate(165,69)"/>
<path d="M0,0 L1,0 L1,5 L0,5 Z " fill="#333F33" transform="translate(125,64)"/>
<path d="M0,0 L5,0 L5,1 L0,1 Z " fill="#223333" transform="translate(110,64)"/>
<path d="M0,0 L4,0 L3,2 Z " fill="#110000" transform="translate(148,21)"/>
<path d="M0,0 L4,0 L3,2 Z " fill="#110000" transform="translate(160,15)"/>
<path d="M0,0 L4,1 Z " fill="#223322" transform="translate(46,238)"/>
<path d="M0,0 L1,4 Z " fill="#333333" transform="translate(31,231)"/>
<path d="M0,0 L4,1 Z " fill="#000011" transform="translate(51,228)"/>
<path d="M0,0 L4,1 Z " fill="#162222" transform="translate(46,228)"/>
<path d="M0,0 L1,4 Z " fill="#110000" transform="translate(165,219)"/>
<path d="M0,0 L1,4 Z " fill="#001111" transform="translate(50,214)"/>
<path d="M0,0 L4,1 Z " fill="#333333" transform="translate(51,213)"/>
<path d="M0,0 L1,4 Z " fill="#112211" transform="translate(184,209)"/>
<path d="M0,0 L1,4 Z " fill="#223322" transform="translate(79,209)"/>
<path d="M0,0 L1,4 Z " fill="#001111" transform="translate(74,209)"/>
<path d="M0,0 L4,1 Z " fill="#001100" transform="translate(180,208)"/>
<path d="M0,0 L4,1 Z " fill="#223322" transform="translate(85,208)"/>
<path d="M0,0 L4,1 Z " fill="#333333" transform="translate(56,208)"/>
<path d="M0,0 L1,4 Z " fill="#000005" transform="translate(61,204)"/>
<path d="M0,0 L1,4 Z " fill="#222222" transform="translate(60,204)"/>
<path d="M0,0 L4,1 Z " fill="#001100" transform="translate(85,203)"/>
<path d="M0,0 L4,1 Z " fill="#223322" transform="translate(61,203)"/>
<path d="M0,0 L4,1 Z " fill="#223327" transform="translate(41,203)"/>
<path d="M0,0 L1,4 Z " fill="#112211" transform="translate(93,199)"/>
<path d="M0,0 L1,4 Z " fill="#444433" transform="translate(90,194)"/>
<path d="M0,0 L1,4 Z " fill="#223322" transform="translate(74,194)"/>
<path d="M0,0 L4,1 Z " fill="#222222" transform="translate(56,183)"/>
<path d="M0,0 L1,4 Z " fill="#333333" transform="translate(55,179)"/>
<path d="M0,0 L1,3 L-1,2 Z " fill="#112211" transform="translate(82,174)"/>
<path d="M0,0 L1,4 Z " fill="#444433" transform="translate(61,174)"/>
<path d="M0,0 L2,1 L0,3 Z " fill="#222222" transform="translate(170,173)"/>
<path d="M0,0 L4,1 Z " fill="#223322" transform="translate(56,173)"/>
<path d="M0,0 L3,1 L0,1 Z " fill="#222222" transform="translate(176,170)"/>
<path d="M0,0 L4,1 Z " fill="#223322" transform="translate(56,163)"/>
<path d="M0,0 L2,3 L0,3 Z " fill="#000011" transform="translate(116,160)"/>
<path d="M0,0 L1,4 Z " fill="#112211" transform="translate(154,159)"/>
<path d="M0,0 L4,1 Z " fill="#222222" transform="translate(90,158)"/>
<path d="M0,0 L4,1 Z " fill="#111111" transform="translate(80,149)"/>
<path d="M0,0 L1,4 Z " fill="#223333" transform="translate(150,139)"/>
<path d="M0,0 L1,4 Z " fill="#44443B" transform="translate(131,139)"/>
<path d="M0,0 L4,1 Z " fill="#223322" transform="translate(142,135)"/>
<path d="M0,0 L4,1 Z " fill="#223322" transform="translate(131,134)"/>
<path d="M0,0 L1,4 Z " fill="#223333" transform="translate(136,130)"/>
<path d="M0,0 L2,0 L1,3 Z " fill="#110000" transform="translate(177,130)"/>
<path d="M0,0 L4,1 Z " fill="#222222" transform="translate(136,129)"/>
<path d="M0,0 L1,4 Z " fill="#444444" transform="translate(134,124)"/>
<path d="M0,0 L1,4 Z " fill="#444444" transform="translate(116,110)"/>
<path d="M0,0 L2,0 L2,2 L0,2 Z " fill="#001111" transform="translate(158,111)"/>
<path d="M0,0 L1,4 Z " fill="#110011" transform="translate(85,110)"/>
<path d="M0,0 L1,4 Z " fill="#444433" transform="translate(134,109)"/>
<path d="M0,0 L2,3 L0,3 Z " fill="#001111" transform="translate(166,105)"/>
<path d="M0,0 L1,4 Z " fill="#111111" transform="translate(160,105)"/>
<path d="M0,0 L2,1 L0,3 Z " fill="#112222" transform="translate(142,106)"/>
<path d="M0,0 L4,1 Z " fill="#110000" transform="translate(111,104)"/>
<path d="M0,0 L2,2 L0,3 Z " fill="#112211" transform="translate(75,101)"/>
<path d="M0,0 L4,1 Z " fill="#331108" transform="translate(160,99)"/>
<path d="M0,0 L1,4 Z " fill="#661111" transform="translate(169,95)"/>
<path d="M0,0 L1,4 Z " fill="#112222" transform="translate(145,95)"/>
<path d="M0,0 L1,4 Z " fill="#444438" transform="translate(116,95)"/>
<path d="M0,0 L1,4 Z " fill="#270000" transform="translate(164,88)"/>
<path d="M0,0 L1,4 Z " fill="#330011" transform="translate(125,88)"/>
<path d="M0,0 L4,1 Z " fill="#110000" transform="translate(121,87)"/>
<path d="M0,0 L4,1 Z " fill="#111111" transform="translate(85,84)"/>
<path d="M0,0 L1,4 Z " fill="#111111" transform="translate(145,80)"/>
<path d="M0,0 L1,4 Z " fill="#333333" transform="translate(145,75)"/>
<path d="M0,0 L1,4 Z " fill="#112211" transform="translate(104,75)"/>
<path d="M0,0 L2,0 L2,2 L0,2 Z " fill="#334444" transform="translate(148,71)"/>
<path d="M0,0 L1,4 Z " fill="#223322" transform="translate(130,70)"/>
<path d="M0,0 L4,1 Z " fill="#223322" transform="translate(141,69)"/>
<path d="M0,0 L4,1 Z " fill="#222222" transform="translate(126,69)"/>
<path d="M0,0 L4,1 Z " fill="#223333" transform="translate(121,64)"/>
<path d="M0,0 L4,1 Z " fill="#223333" transform="translate(166,59)"/>
<path d="M0,0 L4,1 Z " fill="#444438" transform="translate(142,55)"/>
<path d="M0,0 L4,1 Z " fill="#333333" transform="translate(141,54)"/>
<path d="M0,0 L3,2 L0,2 Z " fill="#44443E" transform="translate(133,53)"/>
<path d="M0,0 L4,1 Z " fill="#333333" transform="translate(116,54)"/>
<path d="M0,0 L1,4 Z " fill="#111111" transform="translate(145,50)"/>
<path d="M0,0 L1,4 Z " fill="#333333" transform="translate(140,50)"/>
<path d="M0,0 L4,1 Z " fill="#111111" transform="translate(141,49)"/>
<path d="M0,0 L1,4 Z " fill="#111111" transform="translate(140,45)"/>
<path d="M0,0 L1,4 Z " fill="#111111" transform="translate(115,45)"/>
<path d="M0,0 L4,1 Z " fill="#110000" transform="translate(175,30)"/>
<path d="M0,0 L1,4 Z " fill="#110000" transform="translate(163,28)"/>
<path d="M0,0 L2,0 L2,2 L0,2 Z " fill="#110000" transform="translate(150,25)"/>
<path d="M0,0 L3,1 L0,2 Z " fill="#110000" transform="translate(156,15)"/>
<path d="M0,0 L2,1 L-1,1 Z " fill="#110000" transform="translate(112,11)"/>
<path d="M0,0 Z " fill="#001100" transform="translate(184,235)"/>
<path d="M0,0 Z " fill="#001111" transform="translate(26,230)"/>
<path d="M0,0 L3,1 Z " fill="#112211" transform="translate(195,228)"/>
<path d="M0,0 Z " fill="#444433" transform="translate(183,220)"/>
<path d="M0,0 L2,1 L0,2 Z " fill="#112222" transform="translate(166,214)"/>
<path d="M0,0 Z " fill="#444433" transform="translate(119,211)"/>
<path d="M0,0 Z " fill="#222222" transform="translate(104,210)"/>
<path d="M0,0 Z " fill="#222222" transform="translate(180,209)"/>
<path d="M0,0 Z " fill="#444433" transform="translate(175,207)"/>
<path d="M0,0 Z " fill="#112211" transform="translate(45,205)"/>
<path d="M0,0 Z " fill="#112222" transform="translate(115,204)"/>
<path d="M0,0 Z " fill="#112222" transform="translate(40,200)"/>
<path d="M0,0 Z " fill="#112211" transform="translate(69,190)"/>
<path d="M0,0 L2,2 L0,2 Z " fill="#222222" transform="translate(178,181)"/>
<path d="M0,0 L3,1 Z " fill="#444433" transform="translate(89,177)"/>
<path d="M0,0 Z " fill="#222222" transform="translate(151,168)"/>
<path d="M0,0 L3,1 Z " fill="#222222" transform="translate(61,160)"/>
<path d="M0,0 Z " fill="#110011" transform="translate(106,155)"/>
<path d="M0,0 Z " fill="#001111" transform="translate(125,145)"/>
<path d="M0,0 L3,1 Z " fill="#222222" transform="translate(131,144)"/>
<path d="M0,0 L3,1 Z " fill="#3B4444" transform="translate(137,137)"/>
<path d="M0,0 Z " fill="#001111" transform="translate(94,120)"/>
<path d="M0,0 L3,1 Z " fill="#112211" transform="translate(151,109)"/>
<path d="M0,0 Z " fill="#444433" transform="translate(121,106)"/>
<path d="M0,0 L3,1 Z " fill="#112222" transform="translate(156,99)"/>
<path d="M0,0 L3,1 Z " fill="#661111" transform="translate(165,98)"/>
<path d="M0,0 L3,1 Z " fill="#BB4433" transform="translate(161,98)"/>
<path d="M0,0 Z " fill="#442222" transform="translate(135,96)"/>
<path d="M0,0 L1,2 L-1,1 Z " fill="#112222" transform="translate(104,97)"/>
<path d="M0,0 Z " fill="#444444" transform="translate(153,95)"/>
<path d="M0,0 Z " fill="#3B1111" transform="translate(135,93)"/>
<path d="M0,0 Z " fill="#112211" transform="translate(115,91)"/>
<path d="M0,0 L3,1 Z " fill="#331111" transform="translate(165,91)"/>
<path d="M0,0 Z " fill="#331111" transform="translate(120,90)"/>
<path d="M0,0 Z " fill="#330000" transform="translate(130,89)"/>
<path d="M0,0 L2,0 L1,2 Z " fill="#222222" transform="translate(103,90)"/>
<path d="M0,0 L2,1 L0,2 Z " fill="#441111" transform="translate(131,89)"/>
<path d="M0,0 L3,1 Z " fill="#222222" transform="translate(147,79)"/>
<path d="M0,0 L3,1 Z " fill="#445544" transform="translate(161,73)"/>
<path d="M0,0 L2,2 L0,2 Z " fill="#444433" transform="translate(144,61)"/>
<path d="M0,0 L2,1 L0,2 Z " fill="#444433" transform="translate(166,61)"/>
<path d="M0,0 L2,1 L0,2 Z " fill="#444444" transform="translate(165,60)"/>
<path d="M0,0 L2,0 L1,2 Z " fill="#444444" transform="translate(158,60)"/>
<path d="M0,0 L1,2 L-1,1 Z " fill="#3B4444" transform="translate(134,56)"/>
<path d="M0,0 Z " fill="#222222" transform="translate(165,55)"/>
<path d="M0,0 L3,1 Z " fill="#110000" transform="translate(158,25)"/>
<path d="M0,0 L3,1 Z " fill="#110000" transform="translate(158,22)"/>
<path d="M0,0 Z " fill="#110000" transform="translate(124,20)"/>
<path d="M0,0 Z " fill="#110000" transform="translate(111,18)"/>
<path d="M0,0 L2,2 L0,2 Z " fill="#110000" transform="translate(95,10)"/>
<path d="M0,0 Z " fill="#001111" transform="translate(125,238)"/>
<path d="M0,0 Z " fill="#112211" transform="translate(35,237)"/>
<path d="M0,0 Z " fill="#001100" transform="translate(175,236)"/>
<path d="M0,0 Z " fill="#112222" transform="translate(117,230)"/>
<path d="M0,0 L2,1 Z " fill="#000011" transform="translate(56,229)"/>
<path d="M0,0 Z " fill="#112222" transform="translate(63,226)"/>
<path d="M0,0 Z " fill="#111111" transform="translate(110,225)"/>
<path d="M0,0 Z " fill="#001111" transform="translate(26,224)"/>
<path d="M0,0 L2,1 Z " fill="#000011" transform="translate(46,223)"/>
<path d="M0,0 Z " fill="#111111" transform="translate(104,218)"/>
<path d="M0,0 Z " fill="#444433" transform="translate(119,215)"/>
<path d="M0,0 L2,1 Z " fill="#223322" transform="translate(91,213)"/>
<path d="M0,0 Z " fill="#444433" transform="translate(175,211)"/>
<path d="M0,0 L2,1 Z " fill="#444433" transform="translate(51,212)"/>
<path d="M0,0 Z " fill="#111111" transform="translate(184,209)"/>
<path d="M0,0 L2,1 Z " fill="#333333" transform="translate(100,208)"/>
<path d="M0,0 L2,1 Z " fill="#333322" transform="translate(46,208)"/>
<path d="M0,0 Z " fill="#444433" transform="translate(83,201)"/>
<path d="M0,0 Z " fill="#110011" transform="translate(35,200)"/>
<path d="M0,0 L2,1 Z " fill="#112211" transform="translate(185,198)"/>
<path d="M0,0 L2,1 Z " fill="#112211" transform="translate(71,198)"/>
<path d="M0,0 L2,1 Z " fill="#333333" transform="translate(36,198)"/>
<path d="M0,0 Z " fill="#222222" transform="translate(175,194)"/>
<path d="M0,0 L2,1 Z " fill="#444433" transform="translate(95,194)"/>
<path d="M0,0 L2,1 Z " fill="#223322" transform="translate(62,193)"/>
<path d="M0,0 L2,1 Z " fill="#222222" transform="translate(182,182)"/>
<path d="M0,0 Z " fill="#444433" transform="translate(73,181)"/>
<path d="M0,0 L2,1 Z " fill="#111100" transform="translate(48,173)"/>
<path d="M0,0 L2,1 Z " fill="#222222" transform="translate(151,172)"/>
<path d="M0,0 Z " fill="#444444" transform="translate(80,168)"/>
<path d="M0,0 L2,1 Z " fill="#223322" transform="translate(155,168)"/>
<path d="M0,0 Z " fill="#222222" transform="translate(67,160)"/>
<path d="M0,0 L2,1 Z " fill="#223322" transform="translate(87,153)"/>
<path d="M0,0 L2,1 Z " fill="#444433" transform="translate(134,142)"/>
<path d="M0,0 L2,1 Z " fill="#444433" transform="translate(133,139)"/>
<path d="M0,0 L2,1 Z " fill="#444433" transform="translate(136,135)"/>
<path d="M0,0 Z " fill="#444433" transform="translate(121,125)"/>
<path d="M0,0 Z " fill="#000011" transform="translate(157,111)"/>
<path d="M0,0 L2,1 Z " fill="#111111" transform="translate(158,111)"/>
<path d="M0,0 Z " fill="#001111" transform="translate(94,110)"/>
<path d="M0,0 L2,1 Z " fill="#334444" transform="translate(151,107)"/>
<path d="M0,0 Z " fill="#112222" transform="translate(138,106)"/>
<path d="M0,0 L2,1 Z " fill="#220000" transform="translate(167,99)"/>
<path d="M0,0 L2,1 Z " fill="#220000" transform="translate(164,99)"/>
<path d="M0,0 Z " fill="#223322" transform="translate(146,97)"/>
<path d="M0,0 Z " fill="#773333" transform="translate(120,97)"/>
<path d="M0,0 L2,1 Z " fill="#AA2222" transform="translate(123,97)"/>
<path d="M0,0 Z " fill="#000011" transform="translate(110,95)"/>
<path d="M0,0 Z " fill="#333333" transform="translate(115,94)"/>
<path d="M0,0 Z " fill="#BB3333" transform="translate(128,93)"/>
<path d="M0,0 Z " fill="#663322" transform="translate(120,93)"/>
<path d="M0,0 L2,1 Z " fill="#771122" transform="translate(131,93)"/>
<path d="M0,0 L2,1 Z " fill="#441111" transform="translate(160,92)"/>
<path d="M0,0 Z " fill="#000011" transform="translate(75,90)"/>
<path d="M0,0 Z " fill="#110000" transform="translate(170,89)"/>
<path d="M0,0 Z " fill="#110000" transform="translate(129,89)"/>
<path d="M0,0 Z " fill="#001111" transform="translate(89,85)"/>
<path d="M0,0 Z " fill="#111111" transform="translate(74,80)"/>
<path d="M0,0 L2,1 Z " fill="#111111" transform="translate(160,74)"/>
<path d="M0,0 L2,1 Z " fill="#112222" transform="translate(136,74)"/>
<path d="M0,0 L2,1 Z " fill="#334444" transform="translate(137,73)"/>
<path d="M0,0 Z " fill="#444433" transform="translate(161,68)"/>
<path d="M0,0 Z " fill="#334444" transform="translate(149,67)"/>
<path d="M0,0 L2,1 Z " fill="#334433" transform="translate(166,67)"/>
<path d="M0,0 Z " fill="#334444" transform="translate(138,66)"/>
<path d="M0,0 Z " fill="#334444" transform="translate(133,62)"/>
<path d="M0,0 Z " fill="#444433" transform="translate(154,61)"/>
<path d="M0,0 L2,1 Z " fill="#334444" transform="translate(144,60)"/>
<path d="M0,0 Z " fill="#334433" transform="translate(117,59)"/>
<path d="M0,0 L2,1 Z " fill="#444433" transform="translate(122,54)"/>
<path d="M0,0 L2,1 Z " fill="#334444" transform="translate(122,51)"/>
<path d="M0,0 L2,1 Z " fill="#445544" transform="translate(138,50)"/>
<path d="M0,0 L2,1 Z " fill="#110000" transform="translate(130,38)"/>
<path d="M0,0 L2,1 Z " fill="#110000" transform="translate(121,33)"/>
<path d="M0,0 L2,1 Z " fill="#110000" transform="translate(127,32)"/>
<path d="M0,0 L2,1 Z " fill="#110000" transform="translate(170,28)"/>
<path d="M0,0 L2,1 Z " fill="#110000" transform="translate(165,28)"/>
<path d="M0,0 L2,1 Z " fill="#110000" transform="translate(154,28)"/>
<path d="M0,0 Z " fill="#110000" transform="translate(148,24)"/>
<path d="M0,0 Z " fill="#110000" transform="translate(153,22)"/>
<path d="M0,0 L2,1 Z " fill="#110000" transform="translate(162,22)"/>
<path d="M0,0 Z " fill="#110000" transform="translate(122,21)"/>
<path d="M0,0 L2,1 Z " fill="#000000" transform="translate(166,21)"/>
<path d="M0,0 Z " fill="#110000" transform="translate(147,18)"/>
<path d="M0,0 Z " fill="#110000" transform="translate(154,17)"/>
<path d="M0,0 Z " fill="#110000" transform="translate(134,17)"/>
<path d="M0,0 Z " fill="#000011" transform="translate(178,239)"/>
<path d="M0,0 Z " fill="#000011" transform="translate(106,239)"/>
<path d="M0,0 Z " fill="#001100" transform="translate(180,238)"/>
<path d="M0,0 Z " fill="#001100" transform="translate(174,238)"/>
<path d="M0,0 Z " fill="#111100" transform="translate(45,238)"/>
<path d="M0,0 Z " fill="#001111" transform="translate(164,237)"/>
<path d="M0,0 Z " fill="#001111" transform="translate(184,234)"/>
<path d="M0,0 Z " fill="#112211" transform="translate(170,233)"/>
<path d="M0,0 Z " fill="#112211" transform="translate(115,233)"/>
<path d="M0,0 Z " fill="#110000" transform="translate(222,232)"/>
<path d="M0,0 Z " fill="#112222" transform="translate(97,230)"/>
<path d="M0,0 Z " fill="#000011" transform="translate(59,229)"/>
<path d="M0,0 Z " fill="#000011" transform="translate(26,229)"/>
<path d="M0,0 Z " fill="#222222" transform="translate(184,228)"/>
<path d="M0,0 Z " fill="#222222" transform="translate(174,228)"/>
<path d="M0,0 Z " fill="#112211" transform="translate(164,228)"/>
<path d="M0,0 Z " fill="#223322" transform="translate(89,228)"/>
<path d="M0,0 Z " fill="#222222" transform="translate(46,228)"/>
<path d="M0,0 Z " fill="#444433" transform="translate(119,227)"/>
<path d="M0,0 Z " fill="#444433" transform="translate(116,227)"/>
<path d="M0,0 Z " fill="#112211" transform="translate(110,227)"/>
<path d="M0,0 Z " fill="#444433" transform="translate(90,227)"/>
<path d="M0,0 Z " fill="#001111" transform="translate(26,227)"/>
<path d="M0,0 Z " fill="#110000" transform="translate(105,226)"/>
<path d="M0,0 Z " fill="#000011" transform="translate(26,226)"/>
<path d="M0,0 Z " fill="#000011" transform="translate(45,225)"/>
<path d="M0,0 Z " fill="#112211" transform="translate(110,224)"/>
<path d="M0,0 Z " fill="#112222" transform="translate(104,223)"/>
<path d="M0,0 Z " fill="#001111" transform="translate(74,223)"/>
<path d="M0,0 Z " fill="#001111" transform="translate(55,223)"/>
<path d="M0,0 Z " fill="#000011" transform="translate(49,223)"/>
<path d="M0,0 Z " fill="#110011" transform="translate(28,223)"/>
<path d="M0,0 Z " fill="#444433" transform="translate(111,222)"/>
<path d="M0,0 Z " fill="#111111" transform="translate(101,222)"/>
<path d="M0,0 Z " fill="#112211" transform="translate(31,222)"/>
<path d="M0,0 Z " fill="#112211" transform="translate(101,221)"/>
<path d="M0,0 Z " fill="#112211" transform="translate(63,221)"/>
<path d="M0,0 Z " fill="#001111" transform="translate(169,220)"/>
<path d="M0,0 Z " fill="#112222" transform="translate(123,220)"/>
<path d="M0,0 Z " fill="#001100" transform="translate(169,219)"/>
<path d="M0,0 Z " fill="#222222" transform="translate(81,219)"/>
<path d="M0,0 Z " fill="#112211" transform="translate(165,218)"/>
<path d="M0,0 Z " fill="#112211" transform="translate(120,218)"/>
<path d="M0,0 Z " fill="#111111" transform="translate(100,218)"/>
<path d="M0,0 Z " fill="#223322" transform="translate(98,218)"/>
<path d="M0,0 Z " fill="#223322" transform="translate(94,218)"/>
<path d="M0,0 Z " fill="#223322" transform="translate(56,218)"/>
<path d="M0,0 Z " fill="#112222" transform="translate(55,218)"/>
<path d="M0,0 Z " fill="#444433" transform="translate(108,217)"/>
<path d="M0,0 Z " fill="#444433" transform="translate(106,217)"/>
<path d="M0,0 Z " fill="#444433" transform="translate(80,217)"/>
<path d="M0,0 Z " fill="#444433" transform="translate(183,214)"/>
<path d="M0,0 Z " fill="#222222" transform="translate(60,214)"/>
<path d="M0,0 Z " fill="#222222" transform="translate(184,213)"/>
<path d="M0,0 Z " fill="#112211" transform="translate(174,213)"/>
<path d="M0,0 Z " fill="#223322" transform="translate(169,213)"/>
<path d="M0,0 Z " fill="#333333" transform="translate(166,213)"/>
<path d="M0,0 Z " fill="#112211" transform="translate(104,213)"/>
<path d="M0,0 Z " fill="#001100" transform="translate(99,213)"/>
<path d="M0,0 Z " fill="#111111" transform="translate(94,213)"/>
<path d="M0,0 Z " fill="#222222" transform="translate(90,213)"/>
<path d="M0,0 Z " fill="#223333" transform="translate(89,213)"/>
<path d="M0,0 Z " fill="#112211" transform="translate(78,213)"/>
<path d="M0,0 Z " fill="#001100" transform="translate(74,213)"/>
<path d="M0,0 Z " fill="#001111" transform="translate(49,213)"/>
<path d="M0,0 Z " fill="#000011" transform="translate(193,212)"/>
<path d="M0,0 Z " fill="#000011" transform="translate(191,212)"/>
<path d="M0,0 Z " fill="#444433" transform="translate(168,212)"/>
<path d="M0,0 Z " fill="#112211" transform="translate(159,212)"/>
<path d="M0,0 Z " fill="#111111" transform="translate(74,212)"/>
<path d="M0,0 Z " fill="#444433" transform="translate(54,212)"/>
<path d="M0,0 Z " fill="#444433" transform="translate(54,210)"/>
<path d="M0,0 Z " fill="#000011" transform="translate(193,209)"/>
<path d="M0,0 Z " fill="#112211" transform="translate(100,209)"/>
<path d="M0,0 Z " fill="#444433" transform="translate(51,209)"/>
<path d="M0,0 Z " fill="#001111" transform="translate(183,208)"/>
<path d="M0,0 Z " fill="#111111" transform="translate(180,208)"/>
<path d="M0,0 Z " fill="#001100" transform="translate(120,208)"/>
<path d="M0,0 Z " fill="#223322" transform="translate(100,208)"/>
<path d="M0,0 Z " fill="#334433" transform="translate(75,208)"/>
<path d="M0,0 Z " fill="#111111" transform="translate(74,208)"/>
<path d="M0,0 Z " fill="#112211" transform="translate(60,208)"/>
<path d="M0,0 Z " fill="#223322" transform="translate(46,208)"/>
<path d="M0,0 Z " fill="#222222" transform="translate(159,207)"/>
<path d="M0,0 Z " fill="#444433" transform="translate(59,207)"/>
<path d="M0,0 Z " fill="#112222" transform="translate(45,207)"/>
<path d="M0,0 Z " fill="#110000" transform="translate(20,207)"/>
<path d="M0,0 Z " fill="#110000" transform="translate(18,207)"/>
<path d="M0,0 Z " fill="#110000" transform="translate(218,204)"/>
<path d="M0,0 Z " fill="#110011" transform="translate(189,204)"/>
<path d="M0,0 Z " fill="#444433" transform="translate(178,204)"/>
<path d="M0,0 Z " fill="#444433" transform="translate(175,204)"/>
<path d="M0,0 Z " fill="#110011" transform="translate(64,204)"/>
<path d="M0,0 Z " fill="#000000" transform="translate(61,204)"/>
<path d="M0,0 Z " fill="#222222" transform="translate(179,203)"/>
<path d="M0,0 Z " fill="#001100" transform="translate(174,203)"/>
<path d="M0,0 Z " fill="#111111" transform="translate(115,203)"/>
<path d="M0,0 Z " fill="#333322" transform="translate(84,203)"/>
<path d="M0,0 Z " fill="#000011" transform="translate(66,203)"/>
<path d="M0,0 Z " fill="#223322" transform="translate(41,203)"/>
<path d="M0,0 Z " fill="#444433" transform="translate(155,202)"/>
<path d="M0,0 Z " fill="#112222" transform="translate(93,202)"/>
<path d="M0,0 Z " fill="#444433" transform="translate(63,202)"/>
<path d="M0,0 Z " fill="#444433" transform="translate(42,202)"/>
<path d="M0,0 Z " fill="#112211" transform="translate(40,199)"/>
<path d="M0,0 Z " fill="#000011" transform="translate(35,199)"/>
<path d="M0,0 Z " fill="#222211" transform="translate(89,198)"/>
<path d="M0,0 Z " fill="#001111" transform="translate(69,198)"/>
<path d="M0,0 Z " fill="#223322" transform="translate(36,198)"/>
<path d="M0,0 Z " fill="#001100" transform="translate(26,198)"/>
<path d="M0,0 Z " fill="#333333" transform="translate(45,197)"/>
<path d="M0,0 Z " fill="#222222" transform="translate(178,196)"/>
<path d="M0,0 Z " fill="#444433" transform="translate(168,194)"/>
<path d="M0,0 Z " fill="#444433" transform="translate(113,194)"/>
<path d="M0,0 Z " fill="#001111" transform="translate(184,193)"/>
<path d="M0,0 Z " fill="#223322" transform="translate(113,193)"/>
<path d="M0,0 Z " fill="#223322" transform="translate(110,193)"/>
<path d="M0,0 Z " fill="#333333" transform="translate(99,193)"/>
<path d="M0,0 Z " fill="#111111" transform="translate(92,193)"/>
<path d="M0,0 Z " fill="#222222" transform="translate(61,193)"/>
<path d="M0,0 Z " fill="#223333" transform="translate(60,193)"/>
<path d="M0,0 Z " fill="#223322" transform="translate(55,193)"/>
<path d="M0,0 Z " fill="#001100" transform="translate(51,193)"/>
<path d="M0,0 Z " fill="#000000" transform="translate(181,191)"/>
<path d="M0,0 Z " fill="#112222" transform="translate(50,189)"/>
<path d="M0,0 Z " fill="#001100" transform="translate(154,188)"/>
<path d="M0,0 Z " fill="#111111" transform="translate(110,188)"/>
<path d="M0,0 Z " fill="#112222" transform="translate(32,185)"/>
<path d="M0,0 Z " fill="#112211" transform="translate(184,183)"/>
<path d="M0,0 Z " fill="#001111" transform="translate(150,183)"/>
<path d="M0,0 Z " fill="#112222" transform="translate(109,183)"/>
<path d="M0,0 Z " fill="#223322" transform="translate(74,183)"/>
<path d="M0,0 Z " fill="#112211" transform="translate(63,183)"/>
<path d="M0,0 Z " fill="#223322" transform="translate(55,183)"/>
<path d="M0,0 Z " fill="#444433" transform="translate(66,182)"/>
<path d="M0,0 Z " fill="#223333" transform="translate(55,181)"/>
<path d="M0,0 Z " fill="#222222" transform="translate(180,179)"/>
<path d="M0,0 Z " fill="#001100" transform="translate(160,179)"/>
<path d="M0,0 Z " fill="#112222" transform="translate(158,179)"/>
<path d="M0,0 Z " fill="#001100" transform="translate(99,179)"/>
<path d="M0,0 Z " fill="#112222" transform="translate(33,179)"/>
<path d="M0,0 Z " fill="#001111" transform="translate(26,179)"/>
<path d="M0,0 Z " fill="#222222" transform="translate(181,178)"/>
<path d="M0,0 Z " fill="#223322" transform="translate(164,178)"/>
<path d="M0,0 Z " fill="#112222" transform="translate(154,178)"/>
<path d="M0,0 Z " fill="#111111" transform="translate(105,178)"/>
<path d="M0,0 Z " fill="#112222" transform="translate(84,178)"/>
<path d="M0,0 Z " fill="#222222" transform="translate(60,178)"/>
<path d="M0,0 Z " fill="#112211" transform="translate(55,178)"/>
<path d="M0,0 Z " fill="#223322" transform="translate(40,178)"/>
<path d="M0,0 Z " fill="#222222" transform="translate(173,177)"/>
<path d="M0,0 Z " fill="#444433" transform="translate(163,177)"/>
<path d="M0,0 Z " fill="#444433" transform="translate(99,177)"/>
<path d="M0,0 Z " fill="#222222" transform="translate(176,176)"/>
<path d="M0,0 Z " fill="#222222" transform="translate(180,175)"/>
<path d="M0,0 Z " fill="#333322" transform="translate(164,174)"/>
<path d="M0,0 Z " fill="#112211" transform="translate(60,174)"/>
<path d="M0,0 Z " fill="#112211" transform="translate(160,173)"/>
<path d="M0,0 Z " fill="#112211" transform="translate(150,173)"/>
<path d="M0,0 Z " fill="#223322" transform="translate(100,173)"/>
<path d="M0,0 Z " fill="#223322" transform="translate(73,173)"/>
<path d="M0,0 Z " fill="#223322" transform="translate(70,173)"/>
<path d="M0,0 Z " fill="#333333" transform="translate(60,173)"/>
<path d="M0,0 Z " fill="#222211" transform="translate(55,173)"/>
<path d="M0,0 Z " fill="#001100" transform="translate(50,173)"/>
<path d="M0,0 Z " fill="#001100" transform="translate(46,173)"/>
<path d="M0,0 Z " fill="#112211" transform="translate(45,173)"/>
<path d="M0,0 Z " fill="#222222" transform="translate(176,172)"/>
<path d="M0,0 Z " fill="#444433" transform="translate(83,172)"/>
<path d="M0,0 Z " fill="#444444" transform="translate(59,172)"/>
<path d="M0,0 Z " fill="#445544" transform="translate(56,172)"/>
<path d="M0,0 Z " fill="#223322" transform="translate(55,172)"/>
<path d="M0,0 Z " fill="#112211" transform="translate(37,169)"/>
<path d="M0,0 Z " fill="#223322" transform="translate(159,168)"/>
<path d="M0,0 Z " fill="#222222" transform="translate(154,168)"/>
<path d="M0,0 Z " fill="#112211" transform="translate(47,168)"/>
<path d="M0,0 Z " fill="#001100" transform="translate(45,168)"/>
<path d="M0,0 Z " fill="#112222" transform="translate(171,167)"/>
<path d="M0,0 Z " fill="#444433" transform="translate(53,167)"/>
<path d="M0,0 Z " fill="#112222" transform="translate(172,166)"/>
<path d="M0,0 Z " fill="#222222" transform="translate(154,164)"/>
<path d="M0,0 Z " fill="#001111" transform="translate(74,163)"/>
<path d="M0,0 Z " fill="#222222" transform="translate(69,163)"/>
<path d="M0,0 Z " fill="#112222" transform="translate(55,163)"/>
<path d="M0,0 Z " fill="#001111" transform="translate(160,159)"/>
<path d="M0,0 Z " fill="#111111" transform="translate(118,159)"/>
<path d="M0,0 Z " fill="#112222" transform="translate(56,159)"/>
<path d="M0,0 Z " fill="#001100" transform="translate(94,158)"/>
<path d="M0,0 Z " fill="#110000" transform="translate(24,157)"/>
<path d="M0,0 Z " fill="#110000" transform="translate(25,155)"/>
<path d="M0,0 Z " fill="#223322" transform="translate(85,153)"/>
<path d="M0,0 Z " fill="#112222" transform="translate(86,152)"/>
<path d="M0,0 Z " fill="#112211" transform="translate(107,151)"/>
<path d="M0,0 Z " fill="#112211" transform="translate(154,148)"/>
<path d="M0,0 Z " fill="#000011" transform="translate(105,148)"/>
<path d="M0,0 Z " fill="#110011" transform="translate(109,146)"/>
<path d="M0,0 Z " fill="#222222" transform="translate(135,144)"/>
<path d="M0,0 Z " fill="#223322" transform="translate(150,143)"/>
<path d="M0,0 Z " fill="#112211" transform="translate(120,143)"/>
<path d="M0,0 Z " fill="#445544" transform="translate(131,142)"/>
<path d="M0,0 Z " fill="#110011" transform="translate(117,142)"/>
<path d="M0,0 Z " fill="#444433" transform="translate(141,140)"/>
<path d="M0,0 Z " fill="#000000" transform="translate(118,140)"/>
<path d="M0,0 Z " fill="#110011" transform="translate(116,140)"/>
<path d="M0,0 Z " fill="#444444" transform="translate(131,139)"/>
<path d="M0,0 Z " fill="#223333" transform="translate(130,139)"/>
<path d="M0,0 Z " fill="#444433" transform="translate(137,138)"/>
<path d="M0,0 Z " fill="#223333" transform="translate(125,138)"/>
<path d="M0,0 Z " fill="#444444" transform="translate(137,137)"/>
<path d="M0,0 Z " fill="#444433" transform="translate(134,137)"/>
<path d="M0,0 Z " fill="#444433" transform="translate(132,137)"/>
<path d="M0,0 Z " fill="#444444" transform="translate(126,137)"/>
<path d="M0,0 Z " fill="#444444" transform="translate(131,135)"/>
<path d="M0,0 Z " fill="#112222" transform="translate(124,135)"/>
<path d="M0,0 Z " fill="#333333" transform="translate(140,134)"/>
<path d="M0,0 Z " fill="#333333" transform="translate(135,134)"/>
<path d="M0,0 Z " fill="#334433" transform="translate(130,134)"/>
<path d="M0,0 Z " fill="#444433" transform="translate(129,134)"/>
<path d="M0,0 Z " fill="#222222" transform="translate(124,134)"/>
<path d="M0,0 Z " fill="#110000" transform="translate(85,134)"/>
<path d="M0,0 Z " fill="#110000" transform="translate(176,132)"/>
<path d="M0,0 Z " fill="#000011" transform="translate(163,129)"/>
<path d="M0,0 Z " fill="#000011" transform="translate(161,129)"/>
<path d="M0,0 Z " fill="#445544" transform="translate(134,127)"/>
<path d="M0,0 Z " fill="#111111" transform="translate(154,124)"/>
<path d="M0,0 Z " fill="#223322" transform="translate(135,124)"/>
<path d="M0,0 Z " fill="#444433" transform="translate(134,124)"/>
<path d="M0,0 Z " fill="#000011" transform="translate(94,123)"/>
<path d="M0,0 Z " fill="#444433" transform="translate(153,122)"/>
<path d="M0,0 Z " fill="#333333" transform="translate(154,119)"/>
<path d="M0,0 Z " fill="#112222" transform="translate(161,115)"/>
<path d="M0,0 Z " fill="#444433" transform="translate(116,115)"/>
<path d="M0,0 Z " fill="#112211" transform="translate(161,114)"/>
<path d="M0,0 Z " fill="#000011" transform="translate(154,114)"/>
<path d="M0,0 Z " fill="#112222" transform="translate(140,113)"/>
<path d="M0,0 Z " fill="#445544" transform="translate(116,110)"/>
<path d="M0,0 Z " fill="#333322" transform="translate(115,109)"/>
<path d="M0,0 Z " fill="#110011" transform="translate(105,109)"/>
<path d="M0,0 Z " fill="#000011" transform="translate(169,108)"/>
<path d="M0,0 Z " fill="#334444" transform="translate(158,107)"/>
<path d="M0,0 Z " fill="#444444" transform="translate(151,107)"/>
<path d="M0,0 Z " fill="#444444" transform="translate(134,107)"/>
<path d="M0,0 Z " fill="#223322" transform="translate(149,106)"/>
<path d="M0,0 Z " fill="#444433" transform="translate(134,106)"/>
<path d="M0,0 Z " fill="#222211" transform="translate(115,106)"/>
<path d="M0,0 Z " fill="#111111" transform="translate(141,105)"/>
<path d="M0,0 Z " fill="#445544" transform="translate(129,105)"/>
<path d="M0,0 Z " fill="#001100" transform="translate(160,104)"/>
<path d="M0,0 Z " fill="#223333" transform="translate(159,104)"/>
<path d="M0,0 Z " fill="#112211" transform="translate(136,104)"/>
<path d="M0,0 Z " fill="#223322" transform="translate(135,104)"/>
<path d="M0,0 Z " fill="#223322" transform="translate(120,104)"/>
<path d="M0,0 Z " fill="#112211" transform="translate(119,104)"/>
<path d="M0,0 Z " fill="#111111" transform="translate(115,104)"/>
<path d="M0,0 Z " fill="#223322" transform="translate(155,103)"/>
<path d="M0,0 Z " fill="#110000" transform="translate(169,99)"/>
<path d="M0,0 Z " fill="#110000" transform="translate(166,99)"/>
<path d="M0,0 Z " fill="#331111" transform="translate(162,99)"/>
<path d="M0,0 Z " fill="#221100" transform="translate(160,99)"/>
<path d="M0,0 Z " fill="#111111" transform="translate(159,99)"/>
<path d="M0,0 Z " fill="#110000" transform="translate(135,99)"/>
<path d="M0,0 Z " fill="#221100" transform="translate(127,99)"/>
<path d="M0,0 Z " fill="#221100" transform="translate(120,99)"/>
<path d="M0,0 Z " fill="#111100" transform="translate(115,99)"/>
<path d="M0,0 Z " fill="#661122" transform="translate(167,98)"/>
<path d="M0,0 Z " fill="#882222" transform="translate(164,98)"/>
<path d="M0,0 Z " fill="#BB3333" transform="translate(163,98)"/>
<path d="M0,0 Z " fill="#882222" transform="translate(129,98)"/>
<path d="M0,0 Z " fill="#444433" transform="translate(119,98)"/>
<path d="M0,0 Z " fill="#000011" transform="translate(110,98)"/>
<path d="M0,0 Z " fill="#882222" transform="translate(134,97)"/>
<path d="M0,0 Z " fill="#441122" transform="translate(135,96)"/>
<path d="M0,0 Z " fill="#BB3333" transform="translate(162,95)"/>
<path d="M0,0 Z " fill="#445544" transform="translate(153,95)"/>
<path d="M0,0 Z " fill="#444444" transform="translate(151,95)"/>
<path d="M0,0 Z " fill="#223322" transform="translate(146,95)"/>
<path d="M0,0 Z " fill="#771122" transform="translate(131,95)"/>
<path d="M0,0 Z " fill="#663333" transform="translate(120,95)"/>
<path d="M0,0 Z " fill="#444444" transform="translate(116,95)"/>
<path d="M0,0 Z " fill="#992222" transform="translate(164,94)"/>
<path d="M0,0 Z " fill="#CC4433" transform="translate(161,94)"/>
<path d="M0,0 Z " fill="#333333" transform="translate(154,94)"/>
<path d="M0,0 Z " fill="#112211" transform="translate(145,94)"/>
<path d="M0,0 Z " fill="#AA2222" transform="translate(126,94)"/>
<path d="M0,0 Z " fill="#223322" transform="translate(115,94)"/>
<path d="M0,0 Z " fill="#661122" transform="translate(169,93)"/>
<path d="M0,0 Z " fill="#882222" transform="translate(164,93)"/>
<path d="M0,0 Z " fill="#883322" transform="translate(160,93)"/>
<path d="M0,0 Z " fill="#441111" transform="translate(135,93)"/>
<path d="M0,0 Z " fill="#771111" transform="translate(131,93)"/>
<path d="M0,0 Z " fill="#772222" transform="translate(130,93)"/>
<path d="M0,0 Z " fill="#AA3322" transform="translate(126,93)"/>
<path d="M0,0 Z " fill="#552222" transform="translate(120,93)"/>
<path d="M0,0 Z " fill="#000011" transform="translate(110,93)"/>
<path d="M0,0 Z " fill="#551111" transform="translate(168,92)"/>
<path d="M0,0 Z " fill="#331100" transform="translate(160,92)"/>
<path d="M0,0 Z " fill="#331111" transform="translate(135,92)"/>
<path d="M0,0 Z " fill="#551111" transform="translate(134,92)"/>
<path d="M0,0 Z " fill="#331111" transform="translate(126,92)"/>
<path d="M0,0 Z " fill="#441111" transform="translate(125,92)"/>
<path d="M0,0 Z " fill="#661111" transform="translate(121,92)"/>
<path d="M0,0 Z " fill="#001111" transform="translate(110,92)"/>
<path d="M0,0 Z " fill="#222222" transform="translate(103,92)"/>
<path d="M0,0 Z " fill="#330011" transform="translate(169,91)"/>
<path d="M0,0 Z " fill="#112211" transform="translate(150,91)"/>
<path d="M0,0 Z " fill="#000011" transform="translate(110,91)"/>
<path d="M0,0 Z " fill="#112222" transform="translate(91,90)"/>
<path d="M0,0 Z " fill="#110011" transform="translate(77,90)"/>
<path d="M0,0 Z " fill="#330011" transform="translate(130,89)"/>
<path d="M0,0 Z " fill="#221111" transform="translate(120,89)"/>
<path d="M0,0 Z " fill="#001111" transform="translate(114,89)"/>
<path d="M0,0 Z " fill="#001111" transform="translate(112,89)"/>
<path d="M0,0 Z " fill="#111111" transform="translate(84,89)"/>
<path d="M0,0 Z " fill="#330000" transform="translate(169,88)"/>
<path d="M0,0 Z " fill="#220000" transform="translate(164,88)"/>
<path d="M0,0 Z " fill="#220011" transform="translate(135,88)"/>
<path d="M0,0 Z " fill="#331111" transform="translate(134,88)"/>
<path d="M0,0 Z " fill="#220000" transform="translate(130,88)"/>
<path d="M0,0 Z " fill="#220000" transform="translate(120,88)"/>
<path d="M0,0 Z " fill="#111111" transform="translate(89,88)"/>
<path d="M0,0 Z " fill="#110000" transform="translate(168,87)"/>
<path d="M0,0 Z " fill="#110000" transform="translate(165,87)"/>
<path d="M0,0 Z " fill="#001100" transform="translate(89,87)"/>
<path d="M0,0 Z " fill="#111111" transform="translate(89,85)"/>
<path d="M0,0 Z " fill="#001111" transform="translate(136,84)"/>
<path d="M0,0 Z " fill="#001111" transform="translate(104,84)"/>
<path d="M0,0 Z " fill="#111111" transform="translate(79,84)"/>
<path d="M0,0 Z " fill="#112211" transform="translate(154,83)"/>
<path d="M0,0 Z " fill="#112222" transform="translate(80,81)"/>
<path d="M0,0 Z " fill="#112222" transform="translate(76,81)"/>
<path d="M0,0 Z " fill="#112222" transform="translate(145,79)"/>
<path d="M0,0 Z " fill="#111111" transform="translate(84,79)"/>
<path d="M0,0 Z " fill="#112222" transform="translate(75,79)"/>
<path d="M0,0 Z " fill="#112211" transform="translate(160,78)"/>
<path d="M0,0 Z " fill="#334444" transform="translate(156,78)"/>
<path d="M0,0 Z " fill="#444433" transform="translate(148,78)"/>
<path d="M0,0 Z " fill="#445544" transform="translate(146,78)"/>
<path d="M0,0 Z " fill="#334444" transform="translate(159,76)"/>
<path d="M0,0 Z " fill="#112222" transform="translate(152,76)"/>
<path d="M0,0 Z " fill="#444433" transform="translate(148,76)"/>
<path d="M0,0 Z " fill="#111111" transform="translate(153,75)"/>
<path d="M0,0 Z " fill="#222222" transform="translate(160,74)"/>
<path d="M0,0 Z " fill="#444444" transform="translate(158,74)"/>
<path d="M0,0 Z " fill="#222222" transform="translate(150,74)"/>
<path d="M0,0 Z " fill="#334444" transform="translate(148,74)"/>
<path d="M0,0 Z " fill="#001100" transform="translate(144,74)"/>
<path d="M0,0 Z " fill="#111111" transform="translate(140,74)"/>
<path d="M0,0 Z " fill="#222222" transform="translate(136,74)"/>
<path d="M0,0 Z " fill="#111111" transform="translate(130,74)"/>
<path d="M0,0 Z " fill="#001100" transform="translate(105,74)"/>
<path d="M0,0 Z " fill="#334433" transform="translate(140,73)"/>
<path d="M0,0 Z " fill="#445544" transform="translate(139,73)"/>
<path d="M0,0 Z " fill="#444444" transform="translate(136,73)"/>
<path d="M0,0 Z " fill="#444444" transform="translate(148,72)"/>
<path d="M0,0 Z " fill="#334444" transform="translate(147,72)"/>
<path d="M0,0 Z " fill="#334444" transform="translate(158,71)"/>
<path d="M0,0 Z " fill="#445544" transform="translate(139,70)"/>
<path d="M0,0 Z " fill="#444444" transform="translate(137,70)"/>
<path d="M0,0 Z " fill="#444433" transform="translate(136,70)"/>
<path d="M0,0 Z " fill="#222222" transform="translate(169,69)"/>
<path d="M0,0 Z " fill="#444444" transform="translate(156,69)"/>
<path d="M0,0 Z " fill="#444433" transform="translate(146,69)"/>
<path d="M0,0 Z " fill="#444444" transform="translate(131,69)"/>
<path d="M0,0 Z " fill="#333333" transform="translate(130,69)"/>
<path d="M0,0 Z " fill="#334433" transform="translate(161,68)"/>
<path d="M0,0 Z " fill="#334444" transform="translate(157,68)"/>
<path d="M0,0 Z " fill="#334444" transform="translate(152,68)"/>
<path d="M0,0 Z " fill="#444433" transform="translate(132,68)"/>
<path d="M0,0 Z " fill="#334444" transform="translate(127,68)"/>
<path d="M0,0 Z " fill="#334444" transform="translate(166,67)"/>
<path d="M0,0 Z " fill="#334433" transform="translate(160,67)"/>
<path d="M0,0 Z " fill="#334444" transform="translate(154,67)"/>
<path d="M0,0 Z " fill="#444444" transform="translate(149,67)"/>
<path d="M0,0 Z " fill="#445544" transform="translate(126,67)"/>
<path d="M0,0 Z " fill="#445544" transform="translate(168,66)"/>
<path d="M0,0 Z " fill="#444444" transform="translate(148,66)"/>
<path d="M0,0 Z " fill="#334444" transform="translate(147,66)"/>
<path d="M0,0 Z " fill="#334433" transform="translate(127,66)"/>
<path d="M0,0 Z " fill="#333333" transform="translate(125,66)"/>
<path d="M0,0 Z " fill="#334444" transform="translate(165,65)"/>
<path d="M0,0 Z " fill="#444444" transform="translate(146,65)"/>
<path d="M0,0 Z " fill="#444444" transform="translate(139,65)"/>
<path d="M0,0 Z " fill="#334444" transform="translate(127,65)"/>
<path d="M0,0 Z " fill="#444433" transform="translate(166,64)"/>
<path d="M0,0 Z " fill="#444433" transform="translate(154,64)"/>
<path d="M0,0 Z " fill="#334444" transform="translate(146,64)"/>
<path d="M0,0 Z " fill="#444433" transform="translate(144,64)"/>
<path d="M0,0 Z " fill="#334433" transform="translate(128,64)"/>
<path d="M0,0 Z " fill="#223322" transform="translate(120,64)"/>
<path d="M0,0 Z " fill="#334444" transform="translate(161,63)"/>
<path d="M0,0 Z " fill="#334444" transform="translate(157,63)"/>
<path d="M0,0 Z " fill="#444444" transform="translate(151,63)"/>
<path d="M0,0 Z " fill="#444433" transform="translate(116,63)"/>
<path d="M0,0 Z " fill="#334433" transform="translate(112,63)"/>
<path d="M0,0 Z " fill="#444433" transform="translate(158,62)"/>
<path d="M0,0 Z " fill="#444433" transform="translate(147,62)"/>
<path d="M0,0 Z " fill="#334444" transform="translate(121,62)"/>
<path d="M0,0 Z " fill="#334444" transform="translate(115,62)"/>
<path d="M0,0 Z " fill="#444433" transform="translate(112,62)"/>
<path d="M0,0 Z " fill="#334433" transform="translate(145,61)"/>
<path d="M0,0 Z " fill="#444433" transform="translate(138,61)"/>
<path d="M0,0 Z " fill="#334444" transform="translate(137,61)"/>
<path d="M0,0 Z " fill="#334433" transform="translate(135,61)"/>
<path d="M0,0 Z " fill="#334433" transform="translate(118,61)"/>
<path d="M0,0 Z " fill="#444444" transform="translate(144,60)"/>
<path d="M0,0 Z " fill="#444433" transform="translate(142,60)"/>
<path d="M0,0 Z " fill="#444433" transform="translate(133,60)"/>
<path d="M0,0 Z " fill="#334433" transform="translate(130,60)"/>
<path d="M0,0 Z " fill="#444433" transform="translate(129,60)"/>
<path d="M0,0 Z " fill="#444433" transform="translate(116,60)"/>
<path d="M0,0 Z " fill="#223322" transform="translate(169,59)"/>
<path d="M0,0 Z " fill="#333333" transform="translate(168,59)"/>
<path d="M0,0 Z " fill="#333333" transform="translate(165,59)"/>
<path d="M0,0 Z " fill="#334444" transform="translate(136,59)"/>
<path d="M0,0 Z " fill="#444433" transform="translate(130,59)"/>
<path d="M0,0 Z " fill="#334444" transform="translate(129,59)"/>
<path d="M0,0 Z " fill="#444433" transform="translate(123,59)"/>
<path d="M0,0 Z " fill="#112211" transform="translate(169,58)"/>
<path d="M0,0 Z " fill="#334444" transform="translate(145,58)"/>
<path d="M0,0 Z " fill="#444444" transform="translate(140,58)"/>
<path d="M0,0 Z " fill="#334444" transform="translate(122,58)"/>
<path d="M0,0 Z " fill="#334444" transform="translate(128,57)"/>
<path d="M0,0 Z " fill="#444444" transform="translate(163,56)"/>
<path d="M0,0 Z " fill="#334444" transform="translate(143,56)"/>
<path d="M0,0 Z " fill="#444433" transform="translate(136,56)"/>
<path d="M0,0 Z " fill="#444444" transform="translate(134,56)"/>
<path d="M0,0 Z " fill="#444444" transform="translate(129,56)"/>
<path d="M0,0 Z " fill="#444433" transform="translate(128,56)"/>
<path d="M0,0 Z " fill="#334444" transform="translate(116,56)"/>
<path d="M0,0 Z " fill="#444444" transform="translate(161,55)"/>
<path d="M0,0 Z " fill="#445544" transform="translate(152,55)"/>
<path d="M0,0 Z " fill="#444444" transform="translate(142,55)"/>
<path d="M0,0 Z " fill="#444433" transform="translate(141,55)"/>
<path d="M0,0 Z " fill="#334444" transform="translate(137,55)"/>
<path d="M0,0 Z " fill="#334444" transform="translate(135,55)"/>
<path d="M0,0 Z " fill="#444433" transform="translate(130,55)"/>
<path d="M0,0 Z " fill="#334444" transform="translate(121,55)"/>
<path d="M0,0 Z " fill="#445544" transform="translate(116,55)"/>
<path d="M0,0 Z " fill="#222222" transform="translate(164,54)"/>
<path d="M0,0 Z " fill="#334433" transform="translate(122,54)"/>
<path d="M0,0 Z " fill="#223333" transform="translate(115,54)"/>
<path d="M0,0 Z " fill="#444444" transform="translate(133,53)"/>
<path d="M0,0 Z " fill="#334444" transform="translate(130,52)"/>
<path d="M0,0 Z " fill="#334444" transform="translate(128,52)"/>
<path d="M0,0 Z " fill="#334444" transform="translate(137,51)"/>
<path d="M0,0 Z " fill="#334433" transform="translate(122,51)"/>
<path d="M0,0 Z " fill="#112211" transform="translate(165,50)"/>
<path d="M0,0 Z " fill="#445544" transform="translate(132,50)"/>
<path d="M0,0 Z " fill="#445544" transform="translate(128,50)"/>
<path d="M0,0 Z " fill="#445544" transform="translate(121,50)"/>
<path d="M0,0 Z " fill="#222222" transform="translate(140,49)"/>
<path d="M0,0 Z " fill="#223322" transform="translate(120,49)"/>
<path d="M0,0 Z " fill="#222222" transform="translate(139,45)"/>
<path d="M0,0 Z " fill="#222222" transform="translate(116,45)"/>
<path d="M0,0 Z " fill="#001100" transform="translate(115,44)"/>
<path d="M0,0 Z " fill="#110000" transform="translate(128,37)"/>
<path d="M0,0 Z " fill="#110000" transform="translate(154,33)"/>
<path d="M0,0 Z " fill="#110000" transform="translate(146,33)"/>
<path d="M0,0 Z " fill="#110000" transform="translate(156,31)"/>
<path d="M0,0 Z " fill="#110000" transform="translate(148,31)"/>
<path d="M0,0 Z " fill="#110000" transform="translate(123,31)"/>
<path d="M0,0 Z " fill="#110000" transform="translate(171,30)"/>
<path d="M0,0 Z " fill="#110000" transform="translate(146,30)"/>
<path d="M0,0 Z " fill="#110000" transform="translate(129,30)"/>
<path d="M0,0 Z " fill="#110000" transform="translate(157,29)"/>
<path d="M0,0 Z " fill="#110000" transform="translate(151,29)"/>
<path d="M0,0 Z " fill="#110000" transform="translate(143,29)"/>
<path d="M0,0 Z " fill="#110000" transform="translate(125,29)"/>
<path d="M0,0 Z " fill="#110000" transform="translate(168,28)"/>
<path d="M0,0 Z " fill="#110000" transform="translate(167,26)"/>
<path d="M0,0 Z " fill="#110000" transform="translate(143,26)"/>
<path d="M0,0 Z " fill="#110000" transform="translate(116,26)"/>
<path d="M0,0 Z " fill="#110000" transform="translate(141,25)"/>
<path d="M0,0 Z " fill="#110000" transform="translate(112,25)"/>
<path d="M0,0 Z " fill="#110000" transform="translate(161,24)"/>
<path d="M0,0 Z " fill="#110000" transform="translate(152,24)"/>
<path d="M0,0 Z " fill="#110000" transform="translate(111,24)"/>
<path d="M0,0 Z " fill="#110000" transform="translate(142,23)"/>
<path d="M0,0 Z " fill="#110000" transform="translate(136,23)"/>
<path d="M0,0 Z " fill="#110000" transform="translate(147,22)"/>
<path d="M0,0 Z " fill="#110000" transform="translate(155,21)"/>
<path d="M0,0 Z " fill="#110000" transform="translate(136,21)"/>
<path d="M0,0 Z " fill="#110000" transform="translate(152,20)"/>
<path d="M0,0 Z " fill="#110000" transform="translate(142,19)"/>
<path d="M0,0 Z " fill="#110000" transform="translate(109,18)"/>
<path d="M0,0 Z " fill="#110000" transform="translate(153,15)"/>
<path d="M0,0 Z " fill="#110000" transform="translate(148,14)"/>
<path d="M0,0 Z " fill="#110000" transform="translate(153,13)"/>
<path d="M0,0 Z " fill="#110000" transform="translate(120,13)"/>
<path d="M0,0 Z " fill="#110000" transform="translate(115,13)"/>
<path d="M0,0 Z " fill="#110000" transform="translate(109,13)"/>
<path d="M0,0 Z " fill="#110000" transform="translate(104,13)"/>
<path d="M0,0 Z " fill="#110000" transform="translate(95,13)"/>
<path d="M0,0 Z " fill="#110000" transform="translate(141,12)"/>
<path d="M0,0 Z " fill="#110000" transform="translate(125,12)"/>
<path d="M0,0 Z " fill="#110000" transform="translate(117,12)"/>
<path d="M0,0 Z " fill="#110000" transform="translate(153,11)"/>
<path d="M0,0 Z " fill="#110000" transform="translate(126,11)"/>
<path d="M0,0 Z " fill="#110000" transform="translate(119,11)"/>
<path d="M0,0 Z " fill="#110000" transform="translate(99,11)"/>
<path d="M0,0 Z " fill="#110000" transform="translate(120,10)"/>
</svg>
