<?xml version="1.0" encoding="UTF-8"?>
<!-- Generator: visioncortex VTracer 0.6.5 -->
<svg version="1.1" xmlns="http://www.w3.org/2000/svg" width="150" height="85">
<path d="M0,0 L150,0 L150,85 L0,85 Z " fill="#755747" transform="translate(0,0)"/>
<path d="M0,0 L7,1 L8,2 L8,9 L4,9 L4,11 L2,12 L1,18 L7,16 L12,3 L17,3 L17,5 L20,5 L19,10 L14,11 L14,20 L17,20 L17,23 L22,22 L23,25 L14,27 L14,29 L12,30 L11,34 L13,34 L13,32 L17,32 L19,28 L23,27 L23,33 L20,33 L21,38 L20,42 L22,42 L22,44 L25,44 L25,46 L22,46 L22,49 L13,52 L11,57 L7,59 L11,61 L7,63 L6,69 L-27,69 L-27,67 L-22,65 L-22,61 L-23,57 L-29,56 L-29,61 L-30,62 L-38,62 L-38,57 L-48,57 L-47,54 L-44,54 L-44,52 L-50,52 L-51,48 L-50,47 L-44,47 L-45,45 L-52,46 L-53,33 L-55,31 L-56,29 L-59,28 L-60,23 L-57,20 L-50,17 L-41,17 L-33,19 L-30,19 L-28,15 L-27,18 L-17,16 L-15,20 L-15,23 L-19,24 L-19,28 L-14,26 L-9,25 L-9,13 L-6,12 L-6,5 L-1,5 Z " fill="#513D3E" transform="translate(107,16)"/>
<path d="M0,0 L12,0 L11,4 L13,4 L13,11 L17,9 L18,6 L27,6 L30,8 L30,13 L34,14 L34,16 L38,17 L42,18 L44,23 L47,22 L51,17 L56,17 L56,83 L19,83 L20,77 L12,76 L12,75 L19,74 L21,71 L24,70 L26,66 L31,63 L35,63 L35,60 L38,60 L38,58 L35,58 L35,56 L33,56 L33,47 L36,47 L36,41 L31,44 L30,46 L26,46 L26,48 L24,48 L25,43 L27,43 L27,41 L35,38 L30,37 L30,34 L27,34 L26,29 L27,25 L32,24 L33,19 L30,19 L30,17 L25,17 L23,25 L20,31 L19,32 L14,32 L14,26 L17,25 L17,23 L21,23 L20,16 L13,14 L12,19 L7,19 L8,26 L5,28 L4,39 L-1,41 L-6,42 L-6,38 L-2,37 L-4,30 L-10,32 L-14,32 L-15,30 L-17,34 L-26,33 L-28,32 L-39,32 L-41,31 L-41,27 L-36,25 L-18,22 L-8,21 L-6,20 L-6,16 L-9,16 L-8,13 L-1,12 L0,9 L-6,8 L-6,6 L1,5 L-1,4 Z " fill="#7A584C" transform="translate(94,2)"/>
<path d="M0,0 L73,0 L73,19 L67,21 L64,25 L61,25 L59,20 L54,19 L51,18 L51,16 L47,15 L47,10 L44,9 L35,9 L34,13 L30,13 L30,6 L28,6 L29,2 L17,3 L16,6 L19,7 L18,8 L11,8 L11,10 L17,11 L16,15 L9,16 L8,18 L11,18 L12,22 L9,24 L-6,26 L-22,28 L-26,28 L-26,33 L-31,33 L-31,31 L-33,31 L-33,33 L-35,34 L-36,41 L-38,41 L-38,39 L-48,40 L-50,46 L-40,47 L-38,50 L-38,55 L-44,52 L-51,51 L-51,53 L-55,55 L-62,55 L-65,48 L-62,39 L-62,28 L-59,27 L-58,25 L-52,23 L-51,18 L-50,21 L-44,21 L-46,14 L-51,12 L-51,7 L-49,6 L-37,6 L-37,7 L-48,8 L-50,11 L-45,12 L-42,17 L-41,22 L-37,23 L-36,25 L-30,26 L-29,17 L-25,15 L-19,16 L-18,23 L-2,19 L-13,20 L-13,18 L-16,18 L-16,12 L-7,12 L-7,10 L-5,10 L-4,5 L-1,2 Z " fill="#583D32" transform="translate(77,0)"/>
<path d="M0,0 L77,0 L75,5 L73,6 L72,10 L70,10 L70,12 L61,12 L61,18 L64,18 L64,20 L71,18 L78,18 L75,20 L59,23 L58,16 L52,16 L48,17 L47,26 L41,26 L40,23 L35,22 L32,13 L27,11 L29,7 L26,7 L26,12 L32,14 L33,15 L33,21 L27,21 L27,18 L24,18 L24,16 L19,17 L19,19 L16,19 L16,21 L13,21 L13,28 L11,31 L10,51 L6,48 L6,50 L3,50 L3,55 L8,56 L10,55 L10,59 L19,56 L22,56 L22,64 L21,65 L15,65 L13,69 L0,68 Z " fill="#4F3942" transform="translate(0,0)"/>
<path d="M0,0 L7,1 L8,2 L8,9 L4,9 L4,11 L2,12 L1,18 L7,16 L12,3 L17,3 L17,5 L20,5 L19,10 L14,11 L14,20 L17,20 L17,23 L22,22 L23,25 L14,27 L14,29 L5,28 L4,26 L-5,27 L-5,29 L-10,28 L-12,27 L-14,32 L-14,36 L-17,41 L-28,42 L-33,41 L-43,42 L-43,46 L-37,46 L-37,51 L-43,52 L-44,54 L-44,52 L-50,52 L-51,48 L-50,47 L-44,47 L-45,45 L-52,46 L-53,33 L-55,31 L-56,29 L-59,28 L-60,23 L-57,20 L-50,17 L-41,17 L-33,19 L-30,19 L-28,15 L-27,18 L-17,16 L-15,20 L-15,23 L-19,24 L-19,28 L-14,26 L-9,25 L-9,13 L-6,12 L-6,5 L-1,5 Z " fill="#664D43" transform="translate(107,16)"/>
<path d="M0,0 L5,1 L7,2 L7,5 L10,5 L10,7 L12,7 L12,10 L8,14 L15,15 L15,17 L9,17 L10,19 L19,20 L19,22 L24,20 L28,20 L28,22 L20,24 L14,25 L6,25 L-1,24 L-8,23 L-10,27 L-40,27 L-40,14 L-30,14 L-27,15 L-25,18 L-20,20 L-19,16 L-16,14 L-9,13 L-9,6 L-8,5 L-2,5 L-2,2 L0,2 Z " fill="#614C4C" transform="translate(40,58)"/>
<path d="M0,0 L9,0 L19,2 L25,6 L26,8 L27,20 L33,19 L34,22 L28,23 L28,26 L34,27 L34,29 L31,30 L30,32 L40,32 L40,37 L48,36 L49,31 L55,31 L56,36 L58,37 L55,42 L51,42 L51,44 L1,44 L3,40 L14,40 L17,41 L25,41 L39,39 L39,37 L34,39 L30,39 L30,37 L21,37 L20,34 L26,34 L26,32 L19,32 L19,29 L23,27 L23,24 L21,24 L21,22 L18,22 L18,19 L14,17 L12,16 L11,5 L2,5 L0,4 Z " fill="#795A51" transform="translate(29,41)"/>
<path d="M0,0 L5,0 L5,2 L8,2 L10,8 L14,9 L14,14 L10,14 L8,21 L6,23 L5,28 L7,28 L8,24 L12,24 L13,19 L15,19 L15,24 L13,25 L12,29 L10,30 L8,34 L6,38 L2,38 L3,43 L6,43 L6,40 L13,39 L14,35 L16,36 L14,44 L7,44 L7,50 L11,48 L16,48 L17,51 L20,51 L19,56 L-13,56 L-12,50 L-20,49 L-20,48 L-13,47 L-11,44 L-8,43 L-6,39 L-1,36 L3,36 L3,33 L6,33 L6,31 L3,31 L3,29 L1,29 L1,20 L4,20 L4,14 L-1,17 L-2,19 L-6,19 L-6,21 L-8,21 L-7,16 L-5,16 L-5,14 L3,11 L-2,10 L-3,6 L0,5 L0,3 L-2,3 L-2,1 Z " fill="#826D72" transform="translate(126,29)"/>
<path d="M0,0 L36,0 L34,5 L32,6 L31,10 L29,10 L29,12 L20,12 L20,18 L23,18 L23,20 L30,18 L37,18 L34,20 L18,23 L17,16 L11,16 L7,17 L6,26 L0,26 L-1,23 L-6,22 L-9,13 L-14,11 L-12,7 L-1,6 Z " fill="#785C52" transform="translate(41,0)"/>
<path d="M0,0 L3,0 L3,6 L0,6 L1,11 L0,15 L2,15 L2,17 L5,17 L5,19 L2,19 L2,22 L-7,25 L-9,30 L-13,32 L-9,34 L-13,36 L-14,42 L-29,42 L-29,37 L-34,36 L-34,34 L-27,33 L-26,32 L-17,31 L-11,23 L-9,22 L-14,22 L-16,25 L-18,25 L-18,23 L-32,23 L-33,20 L-25,19 L-25,16 L-16,14 L-17,9 L-18,11 L-22,11 L-21,6 L-13,3 L-8,2 L-9,7 L-7,7 L-7,5 L-3,5 L-1,1 Z " fill="#544145" transform="translate(127,43)"/>
<path d="M0,0 L2,0 L2,8 L4,8 L3,13 L2,15 L6,15 L6,53 L1,53 L2,48 L-1,48 L-2,46 L-7,46 L-11,47 L-11,41 L-4,41 L-3,33 L-5,36 L-12,37 L-12,40 L-15,40 L-15,38 L-17,37 L-16,35 L-12,35 L-11,31 L-9,27 L-6,26 L-5,21 L-3,21 L-3,16 L-5,16 L-6,21 L-10,22 L-11,25 L-13,25 L-13,20 L-11,18 L-8,11 L-3,10 L-3,13 L0,13 Z " fill="#41404E" transform="translate(144,32)"/>
<path d="M0,0 L27,0 L27,19 L21,21 L18,25 L15,25 L13,20 L8,19 L5,18 L5,16 L1,15 L0,2 Z " fill="#35272F" transform="translate(123,0)"/>
<path d="M0,0 L5,0 L5,2 L2,2 L2,9 L0,12 L-1,32 L-5,29 L-5,31 L-8,31 L-8,36 L-3,37 L-1,36 L-1,40 L8,37 L11,37 L11,45 L10,46 L4,46 L2,50 L-11,49 L-11,20 L-9,20 L-9,12 L-4,9 L-1,4 Z " fill="#6E5051" transform="translate(11,19)"/>
<path d="M0,0 L3,0 L3,2 L5,2 L5,7 L3,9 L-2,9 L-3,12 L-6,12 L-5,15 L-5,23 L-8,33 L-6,36 L-6,39 L1,38 L8,36 L11,36 L11,45 L2,45 L1,41 L-11,43 L-12,40 L-16,41 L-19,39 L-18,34 L-15,34 L-15,32 L-12,33 L-11,15 L-9,12 L-8,5 L-5,5 L-5,3 L-2,3 L-2,1 Z " fill="#A1817B" transform="translate(21,16)"/>
<path d="M0,0 L5,0 L5,28 L1,28 L3,21 L1,21 L1,13 L-1,13 L-1,26 L-4,26 L-6,19 L-9,18 L-10,21 L-11,12 L-14,12 L-14,10 L-21,11 L-21,13 L-19,13 L-19,15 L-24,17 L-25,12 L-24,8 L-19,7 L-18,5 L-18,8 L-12,3 L-11,1 L-9,1 L-7,6 L-4,5 Z " fill="#5E413F" transform="translate(145,19)"/>
<path d="M0,0 L12,0 L11,4 L13,4 L13,11 L17,9 L18,6 L27,6 L30,8 L30,13 L34,14 L34,16 L38,17 L40,18 L38,22 L35,25 L33,25 L33,19 L30,19 L30,17 L25,17 L23,25 L20,31 L19,32 L14,32 L14,26 L17,25 L17,23 L21,23 L20,16 L18,15 L18,13 L13,13 L12,15 L10,15 L9,12 L7,11 L8,5 L6,5 L6,3 L-1,3 Z " fill="#756166" transform="translate(94,2)"/>
<path d="M0,0 L24,0 L22,5 L20,7 L11,7 L1,8 L0,15 L6,17 L6,15 L11,15 L7,17 L6,26 L0,26 L-1,23 L-6,22 L-9,13 L-14,11 L-12,7 L-1,6 Z " fill="#725355" transform="translate(41,0)"/>
<path d="M0,0 L2,1 L0,9 L-7,9 L-7,15 L-3,13 L2,13 L3,16 L6,16 L5,21 L-27,21 L-26,15 L-34,14 L-34,13 L-22,12 L-18,11 L-18,9 L-15,8 L-13,5 L-11,6 L-11,8 L-8,8 L-8,5 L-1,4 Z " fill="#857480" transform="translate(140,64)"/>
<path d="M0,0 L7,0 L7,2 L9,2 L8,8 L11,9 L11,12 L13,12 L14,9 L19,10 L19,11 L14,11 L13,16 L8,16 L9,23 L3,25 L-5,22 L-6,21 L-22,21 L-22,20 L-7,18 L-5,17 L-5,13 L-8,13 L-7,10 L0,9 L1,6 L-5,5 L-5,3 L2,2 Z " fill="#71544F" transform="translate(93,5)"/>
<path d="M0,0 L1,3 L3,4 L3,11 L2,13 L-8,14 L-8,18 L-2,18 L-2,23 L-8,24 L-9,26 L-9,24 L-15,24 L-16,20 L-15,19 L-9,19 L-10,17 L-17,18 L-18,4 L-16,2 L-2,2 Z " fill="#614B4A" transform="translate(72,44)"/>
<path d="M0,0 L6,0 L7,5 L9,6 L6,11 L2,11 L2,13 L-48,13 L-46,9 L-35,9 L-32,10 L-24,10 L-10,8 L-10,6 L-16,8 L-15,5 L-11,4 L-9,1 L-9,6 L-1,5 Z " fill="#5F4F50" transform="translate(78,72)"/>
<path d="M0,0 L19,0 L21,10 L16,10 L15,9 L6,9 L6,11 L9,11 L8,16 L4,17 L3,21 L0,22 Z " fill="#504C57" transform="translate(0,0)"/>
<path d="M0,0 L21,0 L21,16 L18,16 L18,10 L-1,12 L-2,6 L0,6 Z " fill="#4E4146" transform="translate(129,0)"/>
<path d="M0,0 L1,3 L11,1 L13,5 L13,8 L9,9 L9,13 L14,12 L13,16 L7,16 L7,20 L0,21 L-1,21 L-3,12 L-5,6 L-5,4 L-2,4 Z " fill="#714F37" transform="translate(79,31)"/>
<path d="M0,0 L7,0 L7,6 L9,7 L8,11 L3,11 L2,16 L-1,21 L-5,23 L-6,31 L-8,31 L-8,14 L-5,12 L-4,9 L0,7 L1,3 L-2,3 L-2,1 Z " fill="#3B3442" transform="translate(8,8)"/>
<path d="M0,0 L28,0 L29,7 L29,10 L26,9 L17,9 L16,13 L12,13 L12,6 L10,6 L11,2 L-1,3 L-2,5 L-5,4 Z " fill="#6E5762" transform="translate(95,0)"/>
<path d="M0,0 L2,0 L1,5 L0,10 L2,10 L3,6 L7,6 L8,1 L10,1 L10,6 L8,7 L7,11 L5,12 L3,16 L1,20 L-3,20 L-3,22 L-5,22 L-6,26 L-9,26 L-9,28 L-18,29 L-16,26 L-13,25 L-11,21 L-6,18 L-2,18 L-2,15 L1,15 L1,13 L-2,13 L-2,11 L-4,11 L-4,2 Z " fill="#89787D" transform="translate(131,47)"/>
<path d="M0,0 L6,0 L5,2 L1,4 L5,6 L1,8 L0,14 L-15,14 L-15,9 L-20,8 L-20,6 L-13,5 L-12,4 L-3,3 Z " fill="#7B6D70" transform="translate(113,71)"/>
<path d="M0,0 L8,0 L12,4 L10,17 L9,18 L3,18 L3,13 L-6,13 L-5,11 L-3,11 L-3,9 L3,8 L3,3 L-2,3 L-2,1 Z " fill="#4B352F" transform="translate(67,59)"/>
<path d="M0,0 L24,0 L22,5 L20,7 L11,7 L1,8 L1,16 L-1,16 L-2,8 L-7,8 L-7,7 L-1,6 Z " fill="#6C4E53" transform="translate(41,0)"/>
<path d="M0,0 L3,0 L3,2 L5,2 L5,7 L3,9 L-2,9 L-3,12 L-6,12 L-5,15 L-5,23 L-7,25 L-11,25 L-11,15 L-9,12 L-8,5 L-5,5 L-5,3 L-2,3 L-2,1 Z " fill="#715955" transform="translate(21,16)"/>
<path d="M0,0 L7,0 L7,4 L3,5 L2,8 L0,9 L-1,12 L-7,10 L-8,7 L-21,6 L-21,2 L0,2 Z " fill="#9A8281" transform="translate(21,66)"/>
<path d="M0,0 L5,1 L7,2 L7,5 L10,5 L10,7 L12,7 L12,10 L8,14 L15,15 L15,17 L5,17 L0,16 L0,14 L-6,13 L-7,8 L-4,7 L-4,10 L0,10 L1,13 L5,14 L5,8 L-2,7 L-2,2 L0,2 Z " fill="#51342B" transform="translate(40,58)"/>
<path d="M0,0 L12,0 L12,1 L1,2 L-1,5 L4,6 L7,11 L8,16 L10,17 L10,22 L7,22 L7,24 L-1,24 L-9,21 L-9,19 L-3,17 L-2,12 L-1,15 L5,15 L3,8 L-2,6 L-2,1 Z " fill="#553E43" transform="translate(28,6)"/>
<path d="M0,0 L5,0 L5,2 L8,2 L7,7 L2,8 L2,17 L4,17 L4,19 L-1,20 L1,21 L1,23 L-3,23 L-3,21 L-9,21 L-6,16 L-3,16 L-4,11 Z " fill="#57454B" transform="translate(119,19)"/>
<path d="M0,0 L10,1 L13,4 L11,8 L9,8 L9,10 L-4,10 L-5,3 Z " fill="#47312B" transform="translate(60,36)"/>
<path d="M0,0 L4,2 L4,7 L8,8 L8,10 L12,11 L14,12 L12,16 L9,19 L7,19 L8,12 L5,12 L5,10 L2,10 L2,8 L0,8 L0,10 L-2,10 L-2,12 L-4,12 L-7,3 L-7,1 L0,2 Z " fill="#948089" transform="translate(120,8)"/>
<path d="M0,0 L3,0 L4,6 L6,6 L6,9 L-6,11 L-17,12 L-18,9 L-10,8 L-10,5 L-1,3 Z " fill="#715A5D" transform="translate(112,54)"/>
<path d="M0,0 L4,0 L4,21 L-1,21 L0,16 L-3,16 L-4,14 L-9,14 L-13,15 L-13,9 L-6,9 L-8,10 L-8,12 L-5,11 L2,11 L0,6 Z " fill="#4F4D56" transform="translate(146,64)"/>
<path d="M0,0 L7,0 L8,1 L9,11 L6,11 L5,20 L-2,21 L2,18 L2,16 L-5,15 L-5,17 L-13,17 L-11,13 L-5,13 L-4,6 L-3,10 L6,10 L6,1 L0,2 Z " fill="#7C5E5A" transform="translate(26,51)"/>
<path d="M0,0 L5,0 L6,2 L3,2 L1,6 L-2,10 L-18,10 L-18,5 L-10,3 L-2,4 Z " fill="#4E3B3C" transform="translate(113,64)"/>
<path d="M0,0 L14,0 L15,5 L13,5 L12,8 L5,8 L5,10 L1,9 L-1,8 L-1,1 Z " fill="#806269" transform="translate(42,7)"/>
<path d="M0,0 L7,1 L8,2 L8,8 L2,7 L0,10 L-1,18 L-7,19 L-7,14 L-5,13 L-6,5 L-1,5 Z " fill="#604239" transform="translate(107,16)"/>
<path d="M0,0 L8,3 L7,6 L4,7 L2,5 L2,2 L-2,2 L-2,5 L-9,6 L-9,4 L-14,7 L-23,7 L-22,4 L-14,1 Z " fill="#876558" transform="translate(80,25)"/>
<path d="M0,0 L10,0 L8,5 L6,6 L5,10 L3,10 L3,12 L-5,12 L-5,7 Z " fill="#937A7B" transform="translate(67,0)"/>
<path d="M0,0 L1,0 L1,6 L11,6 L11,8 L6,9 L5,13 L3,15 L2,11 L1,14 L-6,15 L-6,18 L-9,18 L-9,16 L-11,15 L-10,13 L-6,13 L-5,9 L-3,5 L0,4 Z " fill="#4E3A43" transform="translate(138,54)"/>
<path d="M0,0 L5,1 L5,8 L7,8 L7,10 L3,10 L3,12 L16,10 L16,12 L11,12 L11,14 L7,16 L0,16 L-3,9 Z " fill="#634636" transform="translate(15,39)"/>
<path d="M0,0 L11,0 L9,1 L9,3 L4,2 L2,1 L0,6 L0,10 L-3,15 L-14,16 L-19,14 L-16,11 L-8,11 L-4,5 L-1,5 Z " fill="#593F34" transform="translate(93,42)"/>
<path d="M0,0 L10,0 L13,1 L17,6 L17,8 L15,8 L15,10 L8,10 L6,8 L8,8 L8,6 L0,5 Z " fill="#312625" transform="translate(0,72)"/>
<path d="M0,0 L2,1 L2,3 L-1,3 L-3,7 L2,8 L2,10 L6,10 L6,8 L3,7 L6,6 L9,6 L10,4 L10,7 L15,6 L16,9 L7,11 L7,13 L-2,12 L-3,10 L-9,10 L-9,6 L-4,3 Z " fill="#544246" transform="translate(114,32)"/>
<path d="M0,0 L11,0 L14,1 L31,1 L33,2 L33,4 L-2,4 Z " fill="#7F6C6F" transform="translate(32,81)"/>
<path d="M0,0 L3,0 L3,9 L-6,9 L-7,5 L-19,7 L-18,3 L-18,5 L-14,5 L-14,3 L-7,2 Z " fill="#937770" transform="translate(29,52)"/>
<path d="M0,0 L5,0 L5,2 L2,2 L2,9 L0,12 L-2,25 L-3,23 L-5,23 L-5,21 L-7,21 L-7,12 L-3,10 L-1,6 Z " fill="#5E4C49" transform="translate(11,19)"/>
<path d="M0,0 L8,1 L8,7 L4,7 L6,18 L-4,19 L-4,17 L-2,17 L-1,12 L2,6 L7,5 L7,3 L0,4 Z " fill="#5D4749" transform="translate(142,57)"/>
<path d="M0,0 L7,1 L6,12 L1,14 L-4,15 L-4,11 L0,10 L-2,3 Z " fill="#705A56" transform="translate(92,29)"/>
<path d="M0,0 L11,0 L11,6 L-2,7 L-5,6 L-5,3 L-8,2 Z " fill="#191017" transform="translate(135,12)"/>
<path d="M0,0 L9,0 L11,2 L1,3 L-3,6 L-3,11 L-1,11 L-3,15 L-6,14 L-6,12 L-9,11 L-10,6 L-7,3 Z " fill="#6A4D3E" transform="translate(57,33)"/>
<path d="M0,0 L21,0 L19,7 L15,7 L15,9 L13,9 L13,5 L11,5 L11,2 L-1,3 L-2,5 L-5,4 Z " fill="#634A4D" transform="translate(95,0)"/>
<path d="M0,0 L10,1 L11,3 L11,13 L8,13 L5,10 L2,5 L-2,4 Z " fill="#695058" transform="translate(29,7)"/>
<path d="M0,0 L3,1 L2,5 L4,5 L4,7 L2,7 L1,12 L-1,11 L-1,9 L-5,10 L-6,7 L-7,9 L-11,9 L-10,4 L-2,1 Z " fill="#5B494E" transform="translate(116,45)"/>
<path d="M0,0 L2,0 L2,2 L6,2 L6,4 L9,5 L7,12 L10,12 L9,16 L9,13 L6,14 L6,9 L1,12 L0,14 L-4,14 L-4,16 L-6,16 L-5,11 L-3,11 L-3,9 L5,6 L0,5 L-1,1 Z " fill="#64525A" transform="translate(124,34)"/>
<path d="M0,0 L1,2 L-2,7 L-6,8 L-6,17 L-4,17 L-4,19 L-2,19 L-1,24 L-8,24 L-10,21 L-10,16 L-8,16 L-8,8 L-3,5 Z " fill="#4C3B3D" transform="translate(10,23)"/>
<path d="M0,0 L11,0 L9,1 L8,7 L-5,7 L-4,2 L0,2 Z " fill="#242835" transform="translate(105,78)"/>
<path d="M0,0 L2,1 L1,2 L-6,2 L-6,4 L0,5 L0,8 L-12,9 L-10,5 L-9,4 L-9,2 Z M-30,9 L-12,9 L-12,10 L-28,12 Z " fill="#543B31" transform="translate(94,6)"/>
<path d="M0,0 L4,0 L3,4 L0,9 L-4,11 L-5,19 L-7,19 L-7,4 L-2,4 Z " fill="#3D2E2F" transform="translate(7,20)"/>
<path d="M0,0 L1,0 L1,27 L-3,27 L-2,24 L-1,10 L-4,10 L-5,6 L-3,6 L-2,1 Z " fill="#A68988" transform="translate(149,20)"/>
<path d="M0,0 L8,1 L8,4 L15,5 L15,8 L0,8 Z " fill="#665960" transform="translate(0,77)"/>
<path d="M0,0 L2,0 L4,4 L4,8 L-15,8 L-15,6 L-8,4 L-1,1 Z " fill="#3C251C" transform="translate(78,7)"/>
<path d="M0,0 L8,1 L6,5 L2,5 L2,7 L-9,7 L-9,4 L-7,4 L-7,2 Z " fill="#635556" transform="translate(78,78)"/>
<path d="M0,0 L8,1 L8,11 L0,10 L0,14 L-4,13 L0,8 L3,7 L3,4 L0,5 Z " fill="#2A2835" transform="translate(142,47)"/>
<path d="M0,0 L6,0 L4,4 L1,4 L1,6 L-5,5 L-5,11 L-11,11 L-11,6 L-9,6 L-9,4 L-7,3 L0,3 Z " fill="#90848F" transform="translate(126,74)"/>
<path d="M0,0 L4,1 L3,4 L1,4 L1,6 L-4,7 L-7,5 L-9,10 L-13,9 L-11,4 L-9,1 L-2,3 L-2,1 Z " fill="#4B3732" transform="translate(104,42)"/>
<path d="M0,0 L4,1 L4,3 L7,3 L6,8 L-5,8 L-6,3 L-1,1 Z " fill="#9AA0AF" transform="translate(139,77)"/>
<path d="M0,0 L2,0 L2,3 L6,3 L7,6 L11,7 L12,3 L12,5 L14,6 L14,7 L21,8 L21,10 L11,10 L6,9 L6,7 L0,6 L-1,1 Z " fill="#58423E" transform="translate(34,65)"/>
<path d="M0,0 L14,0 L16,3 L16,9 L12,12 L-2,12 L-2,11 L11,11 L11,9 L14,7 L12,3 L2,2 L-3,4 L-2,9 L-4,9 L-5,4 Z " fill="#573E35" transform="translate(58,35)"/>
<path d="M0,0 L12,0 L11,4 L13,4 L12,9 L8,10 L8,5 L6,5 L6,3 L-1,3 Z " fill="#7C6363" transform="translate(94,2)"/>
<path d="M0,0 L11,0 L11,6 L-2,7 Z " fill="#6C5F6B" transform="translate(8,0)"/>
<path d="M0,0 L20,1 L20,2 L11,3 L10,4 L3,4 L4,6 L8,7 L8,12 L7,8 L1,8 L-1,5 Z " fill="#5F4E51" transform="translate(90,73)"/>
<path d="M0,0 L2,0 L2,2 L4,3 L3,4 L-6,4 L-6,6 L-19,6 L-19,4 L-15,2 L-6,2 Z " fill="#5A3D2F" transform="translate(82,19)"/>
<path d="M0,0 L3,1 L3,3 L6,4 L0,5 L0,8 L-9,9 L-9,11 L-11,11 L-11,16 L-13,16 L-12,10 L-20,9 L-20,8 L-8,7 L-4,6 L-4,4 L-1,3 Z " fill="#605F6D" transform="translate(126,69)"/>
<path d="M0,0 L5,0 L5,3 L3,3 L2,7 L-1,7 L-1,9 L-10,10 L-8,7 L-5,6 L-3,2 Z " fill="#B9ACB5" transform="translate(123,66)"/>
<path d="M0,0 L3,0 L5,4 L5,7 L-1,8 L-2,6 L-7,6 L-8,3 Z " fill="#6A4B3F" transform="translate(87,32)"/>
<path d="M0,0 L3,3 L3,5 L6,5 L7,11 L3,13 L0,12 L-1,6 L-3,5 Z " fill="#423138" transform="translate(135,20)"/>
<path d="M0,0 L1,4 L-2,10 L-3,11 L-8,11 L-8,5 L-5,4 L-5,2 Z " fill="#876F67" transform="translate(116,23)"/>
<path d="M0,0 L8,0 L7,5 L5,9 L0,9 Z " fill="#605C67" transform="translate(0,0)"/>
<path d="M0,0 L9,0 L9,3 L6,6 L3,6 L3,4 L-6,4 L-7,1 Z " fill="#947F76" transform="translate(56,74)"/>
<path d="M0,0 L3,0 L3,6 L0,6 L1,11 L0,15 L2,15 L2,17 L-2,17 L-2,10 L-1,6 L-7,7 L-7,5 L-3,5 L-1,1 Z " fill="#6A5A63" transform="translate(127,43)"/>
<path d="M0,0 L6,0 L8,2 L8,6 L6,7 L0,7 L-2,6 L-1,1 Z " fill="#332020" transform="translate(63,38)"/>
<path d="M0,0 L1,0 L1,5 L4,4 L6,5 L6,7 L1,8 L3,9 L3,11 L-1,11 L-1,9 L-7,9 L-4,4 L-1,4 L-2,1 Z " fill="#54413F" transform="translate(117,31)"/>
<path d="M0,0 L4,0 L5,4 L3,4 L3,6 L1,7 L-6,7 L-6,1 L0,2 Z " fill="#686670" transform="translate(127,78)"/>
<path d="M0,0 L1,0 L1,6 L11,6 L11,8 L6,9 L5,13 L3,15 L2,11 L-3,7 L-3,4 L0,4 Z " fill="#59444A" transform="translate(138,54)"/>
<path d="M0,0 L5,1 L7,7 L3,9 L-1,8 L-1,1 Z " fill="#8A685F" transform="translate(42,45)"/>
<path d="M0,0 L6,1 L7,2 L7,7 L5,9 L0,9 Z " fill="#432B26" transform="translate(0,58)"/>
<path d="M0,0 L9,0 L9,2 L1,3 L2,5 L8,6 L8,7 L0,8 L-3,9 L-5,8 L-4,3 L-1,2 Z " fill="#60484D" transform="translate(93,60)"/>
<path d="M0,0 L10,0 L13,1 L13,3 L8,4 L8,6 L0,5 Z " fill="#393536" transform="translate(0,72)"/>
<path d="M0,0 L6,0 L7,4 L4,9 L0,9 Z " fill="#463029" transform="translate(50,18)"/>
<path d="M0,0 L14,0 L14,3 L12,3 L12,5 L0,4 Z " fill="#826E6F" transform="translate(0,68)"/>
<path d="M0,0 L3,1 L4,7 L2,9 L-3,8 L-4,4 L-3,2 L0,2 Z " fill="#997370" transform="translate(6,48)"/>
<path d="M0,0 L3,0 L2,4 L-2,5 L-3,9 L-6,10 L-6,2 Z " fill="#635964" transform="translate(6,12)"/>
<path d="M0,0 L5,0 L5,2 L8,2 L8,5 L5,5 L6,8 L0,7 L0,3 L-2,3 L-2,1 Z " fill="#AE9BA2" transform="translate(126,29)"/>
<path d="M0,0 L7,1 L8,2 L8,8 L1,7 L-1,3 Z " fill="#624A4A" transform="translate(107,16)"/>
<path d="M0,0 L4,0 L4,9 L-3,9 L-2,4 L0,4 Z " fill="#5D575D" transform="translate(146,0)"/>
<path d="M0,0 L2,0 L3,6 L5,6 L6,10 L9,10 L10,8 L11,18 L9,18 L7,12 L4,11 L3,14 L1,4 Z " fill="#6C504F" transform="translate(132,26)"/>
<path d="M0,0 L1,0 L1,10 L-3,7 L-3,9 L-6,9 L-7,14 L-9,14 L-9,3 L-7,5 L0,6 Z " fill="#7C5B5F" transform="translate(9,41)"/>
<path d="M0,0 L5,1 L8,2 L8,5 L-2,7 L-4,4 Z " fill="#7A6367" transform="translate(110,58)"/>
<path d="M0,0 L3,0 L3,2 L0,5 L3,5 L2,10 L-2,11 L-3,14 L-5,14 L-5,9 L-3,7 Z " fill="#524048" transform="translate(136,43)"/>
<path d="M0,0 L6,1 L8,7 L0,7 L-1,4 Z " fill="#635658" transform="translate(64,49)"/>
<path d="M0,0 L5,1 L5,11 L2,11 L0,5 Z " fill="#846A69" transform="translate(92,29)"/>
<path d="M0,0 L4,0 L5,2 L5,10 L0,10 Z " fill="#8B7267" transform="translate(10,31)"/>
<path d="M0,0 L10,0 L9,4 L-4,4 Z " fill="#100D0E" transform="translate(135,13)"/>
<path d="M0,0 L7,0 L8,4 L4,4 L4,6 L-1,5 L-1,1 Z " fill="#4E3326" transform="translate(40,27)"/>
<path d="M0,0 L10,1 L10,5 L0,5 Z " fill="#2C181B" transform="translate(87,80)"/>
<path d="M0,0 L5,0 L5,9 L0,7 L-2,2 L0,2 Z " fill="#A29494" transform="translate(14,69)"/>
<path d="M0,0 L9,0 L9,4 L8,5 L2,5 L0,4 Z " fill="#83675B" transform="translate(29,41)"/>
<path d="M0,0 L7,0 L8,5 L-2,6 L-2,4 L0,4 Z " fill="#353034" transform="translate(140,70)"/>
<path d="M0,0 L8,0 L8,1 L2,1 L5,5 L17,5 L17,6 L7,8 L3,8 L3,6 L0,6 Z " fill="#6A4C41" transform="translate(61,12)"/>
<path d="M0,0 L4,0 L4,10 L1,10 L-1,7 Z " fill="#8D6E77" transform="translate(36,10)"/>
<path d="M0,0 L1,0 L1,9 L7,7 L5,10 L1,10 L2,15 L-4,15 L-2,14 L-1,11 L-2,7 L0,4 L-2,3 L0,3 Z " fill="#716975" transform="translate(132,70)"/>
<path d="M0,0 L5,0 L5,9 L0,9 L1,4 L-1,4 Z " fill="#3B4B59" transform="translate(145,76)"/>
<path d="M0,0 L5,1 L5,9 L0,8 L-1,2 Z " fill="#714A2C" transform="translate(80,41)"/>
<path d="M0,0 L2,0 L1,4 L-1,5 L1,5 L1,7 L-3,9 L-4,11 L-9,11 L-9,9 L-6,7 L-5,4 L-1,2 Z " fill="#40363C" transform="translate(9,13)"/>
<path d="M0,0 L3,0 L1,4 L-1,7 L-5,7 L-5,9 L-7,9 L-6,4 L-4,4 L-4,2 Z " fill="#86757E" transform="translate(125,41)"/>
<path d="M0,0 L4,0 L4,2 L-6,4 L-16,3 L-17,1 L-1,1 Z " fill="#4A3A3A" transform="translate(64,78)"/>
<path d="M0,0 L6,0 L6,4 L11,4 L7,5 L6,7 L6,5 L0,5 L-1,1 Z " fill="#625046" transform="translate(57,63)"/>
<path d="M0,0 L10,0 L9,5 L3,5 L0,2 Z " fill="#7A5D5E" transform="translate(50,0)"/>
<path d="M0,0 L3,0 L3,6 L-1,6 L-1,8 L-3,8 L-3,4 L-5,3 L-3,3 L-3,1 Z " fill="#4D363D" transform="translate(111,1)"/>
<path d="M0,0 L4,0 L3,5 L-1,5 L-2,8 L-5,7 L-4,3 L0,2 Z " fill="#927D83" transform="translate(19,19)"/>
<path d="M0,0 L5,0 L2,3 L1,7 L-1,7 L-1,9 L-4,9 L-3,3 Z " fill="#5D5059" transform="translate(145,19)"/>
<path d="M0,0 L5,0 L6,2 L3,2 L1,6 L-4,7 L-4,4 L-2,4 Z " fill="#16090D" transform="translate(113,64)"/>
<path d="M0,0 L5,1 L5,3 L9,4 L10,9 L7,12 L5,11 L6,10 L6,5 L0,3 Z " fill="#684847" transform="translate(0,55)"/>
<path d="M0,0 L4,1 L4,6 L6,6 L4,10 L-1,4 Z " fill="#654637" transform="translate(50,38)"/>
<path d="M0,0 L2,0 L2,8 L4,8 L3,13 L0,13 Z " fill="#412018" transform="translate(144,32)"/>
<path d="M0,0 L7,1 L5,5 L2,8 L0,8 Z " fill="#BAA8B1" transform="translate(127,19)"/>
<path d="M0,0 L5,1 L3,4 L-10,4 L-10,3 Z " fill="#2A160C" transform="translate(74,10)"/>
<path d="M0,0 L2,0 L0,4 L-3,11 L-7,9 L-8,12 L-9,8 L-13,6 L-4,6 Z " fill="#7F6462" transform="translate(65,0)"/>
<path d="M0,0 L4,0 L3,4 L-5,10 L-4,5 L-1,2 Z " fill="#5C4A41" transform="translate(77,0)"/>
<path d="M0,0 L6,1 L6,4 L10,5 L-2,4 L-2,1 Z " fill="#422E2E" transform="translate(103,67)"/>
<path d="M0,0 L2,1 L2,5 L-1,7 L-7,7 L-8,4 L0,3 Z " fill="#6D5355" transform="translate(102,59)"/>
<path d="M0,0 L2,3 L3,6 L12,6 L8,9 L1,9 L-2,2 Z " fill="#765342" transform="translate(14,46)"/>
<path d="M0,0 L2,0 L2,2 L5,2 L5,4 L8,4 L7,8 L7,5 L4,5 L4,3 L-1,3 L-2,9 L-5,8 L-5,3 L-2,4 L-2,2 L0,2 Z " fill="#6B575F" transform="translate(120,16)"/>
<path d="M0,0 L5,0 L5,3 L3,3 L2,7 L-4,8 L-1,4 Z " fill="#BEAEB7" transform="translate(123,66)"/>
<path d="M0,0 L3,0 L3,2 L0,2 L-1,4 L-13,6 L-12,2 L-12,4 L-8,4 L-8,2 L-1,1 Z " fill="#916E66" transform="translate(23,53)"/>
<path d="M0,0 L5,2 L5,0 L10,0 L6,3 L4,3 L4,5 L-2,5 L-2,1 Z " fill="#7B5E65" transform="translate(42,15)"/>
<path d="M0,0 L9,2 L8,5 L0,5 Z " fill="#AA9191" transform="translate(62,7)"/>
<path d="M0,0 L2,0 L3,3 L8,4 L8,5 L-5,5 L-5,2 L0,2 Z " fill="#4A3538" transform="translate(20,80)"/>
<path d="M0,0 L3,0 L4,7 L-2,7 L-2,2 L0,2 Z " fill="#9695A2" transform="translate(117,78)"/>
<path d="M0,0 L6,0 L7,5 L9,6 L8,7 L3,7 L3,5 L6,2 L2,2 L2,4 L0,4 Z " fill="#57484E" transform="translate(78,72)"/>
<path d="M0,0 L3,0 L3,9 L-1,8 L-1,2 Z " fill="#6F605F" transform="translate(5,32)"/>
<path d="M0,0 L6,0 L6,3 L4,4 L-4,4 L-4,2 Z " fill="#3E2018" transform="translate(67,21)"/>
<path d="M0,0 L3,0 L3,2 L6,2 L5,7 L0,7 Z " fill="#37262E" transform="translate(121,19)"/>
<path d="M0,0 L5,0 L3,5 L1,6 L-1,10 L-3,7 L-2,5 L0,5 Z " fill="#7D6862" transform="translate(72,0)"/>
<path d="M0,0 L5,0 L6,2 L4,8 L2,8 L0,5 Z " fill="#383337" transform="translate(138,0)"/>
<path d="M0,0 L1,3 L5,5 L3,7 L3,5 L0,5 L0,7 L-5,7 L-5,5 L-3,5 L-4,2 L0,3 Z " fill="#826D6C" transform="translate(20,75)"/>
<path d="M0,0 L1,0 L1,6 L4,7 L1,10 L-2,10 L-2,12 L-5,12 L-3,8 L0,7 Z " fill="#756059" transform="translate(107,28)"/>
<path d="M0,0 L6,0 L8,2 L14,3 L11,4 L10,8 L6,5 L6,3 L0,1 Z " fill="#825B52" transform="translate(81,25)"/>
<path d="M0,0 L8,0 L8,3 L7,4 L1,4 Z " fill="#2B171B" transform="translate(29,0)"/>
<path d="M0,0 L8,1 L8,3 L3,3 L1,7 L0,7 Z " fill="#847B7B" transform="translate(0,77)"/>
<path d="M0,0 L8,0 L8,4 L2,4 L0,3 Z " fill="#553C3B" transform="translate(22,74)"/>
<path d="M0,0 L4,0 L4,8 L1,8 L0,6 Z " fill="#635556" transform="translate(146,64)"/>
<path d="M0,0 L2,0 L1,6 L-2,7 L-3,9 L-4,2 Z " fill="#423033" transform="translate(122,54)"/>
<path d="M0,0 L9,3 L12,8 L9,8 L7,4 L-2,4 Z " fill="#836459" transform="translate(39,42)"/>
<path d="M0,0 L11,0 L9,1 L9,3 L4,2 L2,1 L0,6 L-3,5 L-1,5 Z " fill="#59463F" transform="translate(93,42)"/>
<path d="M0,0 L8,0 L8,2 L5,2 L4,5 L0,5 Z " fill="#8D797F" transform="translate(131,41)"/>
<path d="M0,0 L1,3 L-1,7 L0,11 L-3,11 L-3,9 L-7,9 L-7,7 L-1,2 Z " fill="#6E5B63" transform="translate(134,20)"/>
<path d="M0,0 L6,0 L6,3 L2,4 L1,14 L0,14 Z " fill="#362628" transform="translate(0,25)"/>
<path d="M0,0 L3,0 L1,5 L-4,5 L-5,1 Z " fill="#A38C94" transform="translate(50,10)"/>
<path d="M0,0 L9,0 L9,3 L-1,3 Z " fill="#957B79" transform="translate(94,2)"/>
<path d="M0,0 L3,0 L2,5 L-3,7 L-3,2 Z " fill="#5C3C34" transform="translate(19,56)"/>
<path d="M0,0 L1,0 L2,17 L-2,17 L-1,14 Z " fill="#907272" transform="translate(148,30)"/>
<path d="M0,0 L5,1 L7,2 L7,5 L0,3 L0,5 L-2,5 L-2,2 L0,2 Z " fill="#61423A" transform="translate(40,58)"/>
<path d="M0,0 L8,0 L8,1 L3,1 L5,7 L1,6 L0,5 Z " fill="#91747B" transform="translate(42,10)"/>
<path d="M0,0 L7,0 L9,1 L9,3 L-1,3 Z " fill="#A498A0" transform="translate(56,82)"/>
<path d="M0,0 L7,0 L7,2 L5,2 L5,4 L-2,4 Z " fill="#8B7476" transform="translate(32,81)"/>
<path d="M0,0 L6,0 L6,1 L14,2 L13,5 L10,5 L10,3 L1,3 Z " fill="#84706B" transform="translate(49,75)"/>
<path d="M0,0 L3,0 L3,7 L-1,7 L-1,1 Z " fill="#AF928F" transform="translate(29,54)"/>
<path d="M0,0 L5,1 L5,5 L3,6 L3,4 L-1,4 Z " fill="#8E6B64" transform="translate(42,45)"/>
<path d="M0,0 L3,1 L2,7 L5,8 L-1,8 L-1,2 Z " fill="#48353C" transform="translate(119,19)"/>
<path d="M0,0 L4,1 L0,6 L-3,6 L-5,2 Z " fill="#362D38" transform="translate(141,19)"/>
<path d="M0,0 L6,0 L5,4 L-1,5 Z " fill="#AEA8B1" transform="translate(8,0)"/>
<path d="M0,0 L1,4 L3,5 L0,5 L0,8 L-3,8 L-3,6 L-5,5 L-4,3 L0,3 Z " fill="#52414D" transform="translate(132,64)"/>
<path d="M0,0 L1,0 L1,5 L5,3 L7,1 L7,6 L6,7 L0,7 Z " fill="#674744" transform="translate(15,58)"/>
<path d="M0,0 L5,2 L5,7 L3,9 L-2,9 L-2,7 L3,6 Z " fill="#523535" transform="translate(2,58)"/>
<path d="M0,0 L1,0 L1,14 L-3,13 L-1,13 L-2,8 Z " fill="#53392E" transform="translate(49,18)"/>
<path d="M0,0 L3,0 L3,2 L0,2 L-2,6 L-4,6 L-4,4 L-8,3 L-3,2 L-1,3 Z " fill="#785D5C" transform="translate(32,79)"/>
<path d="M0,0 L7,0 L9,1 L9,3 L0,3 Z " fill="#99868B" transform="translate(0,69)"/>
<path d="M0,0 L1,0 L1,5 L-4,6 L-4,1 Z " fill="#4F372D" transform="translate(104,29)"/>
<path d="M0,0 L5,0 L5,5 L0,5 Z " fill="#311A22" transform="translate(28,16)"/>
<path d="M0,0 L3,2 L2,7 L-4,6 L-3,3 L0,3 Z " fill="#A9939B" transform="translate(120,8)"/>
<path d="M0,0 L7,0 L7,7 L4,7 L4,1 Z " fill="#5E505C" transform="translate(143,9)"/>
<path d="M0,0 L4,0 L5,6 L0,6 Z " fill="#5F414B" transform="translate(46,0)"/>
<path d="M0,0 L5,1 L6,3 L2,3 L2,5 L-1,6 L-1,1 Z " fill="#765B53" transform="translate(109,22)"/>
<path d="M0,0 L4,0 L4,7 L1,6 Z " fill="#7F7A7C" transform="translate(146,0)"/>
<path d="M0,0 L6,0 L5,4 L-2,4 Z " fill="#7A8596" transform="translate(140,81)"/>
<path d="M0,0 L4,0 L3,5 L-2,5 L-2,2 L0,2 Z " fill="#8D8489" transform="translate(71,80)"/>
<path d="M0,0 L1,2 L5,2 L4,5 L-3,3 L-5,7 L-4,2 L0,2 Z " fill="#493F3F" transform="translate(105,78)"/>
<path d="M0,0 L8,1 L8,3 L0,4 Z " fill="#4A3742" transform="translate(142,57)"/>
<path d="M0,0 L4,1 L3,6 L0,6 L-1,1 Z " fill="#5F443A" transform="translate(86,34)"/>
<path d="M0,0 L2,0 L2,7 L-2,8 L-1,3 Z " fill="#957D74" transform="translate(111,25)"/>
<path d="M0,0 L5,1 L3,5 L-3,5 Z " fill="#4B4146" transform="translate(3,80)"/>
<path d="M0,0 L5,1 L5,3 L-2,4 Z " fill="#9C8178" transform="translate(52,68)"/>
<path d="M0,0 L1,4 L6,3 L2,7 L-1,4 L-4,2 Z " fill="#7C5957" transform="translate(9,55)"/>
<path d="M0,0 L3,1 L-1,7 L-6,7 L-5,4 L0,4 Z " fill="#674530" transform="translate(86,47)"/>
<path d="M0,0 L5,0 L5,4 L0,4 Z " fill="#15070B" transform="translate(64,39)"/>
<path d="M0,0 L2,1 L2,3 L-4,6 L-9,8 L-9,6 L-4,3 Z " fill="#624E48" transform="translate(114,32)"/>
<path d="M0,0 L1,0 L2,12 L0,12 L-1,6 L-3,5 Z " fill="#4E3B45" transform="translate(135,20)"/>
<path d="M0,0 L6,0 L5,3 L-3,3 Z " fill="#8A6E64" transform="translate(60,28)"/>
<path d="M0,0 L7,0 L7,3 L2,2 L2,4 L-1,3 Z " fill="#3E2218" transform="translate(41,28)"/>
<path d="M0,0 L2,0 L2,4 L4,5 L5,9 L3,9 L3,7 L0,6 Z " fill="#3C2931" transform="translate(125,9)"/>
<path d="M0,0 L7,0 L7,2 L4,2 L3,5 L0,3 Z " fill="#80656D" transform="translate(32,8)"/>
<path d="M0,0 L5,1 L5,4 L-1,4 Z " fill="#231313" transform="translate(102,81)"/>
<path d="M0,0 L6,0 L7,4 L1,3 Z " fill="#110D0E" transform="translate(7,75)"/>
<path d="M0,0 L6,2 L3,3 L2,8 L0,8 Z " fill="#876362" transform="translate(0,47)"/>
<path d="M0,0 L9,3 L9,5 L2,5 Z " fill="#624751" transform="translate(0,42)"/>
<path d="M0,0 L2,4 L2,9 L-1,9 L-1,2 Z " fill="#563B29" transform="translate(17,30)"/>
<path d="M0,0 L5,1 L5,4 L1,5 Z " fill="#3A2C2A" transform="translate(52,18)"/>
<path d="M0,0 L3,0 L4,6 L1,6 L2,3 L-2,3 L-2,1 Z " fill="#766068" transform="translate(21,16)"/>
<path d="M0,0 L7,1 L4,3 L3,8 L1,6 Z " fill="#8C7A83" transform="translate(113,9)"/>
<path d="M0,0 L6,0 L5,5 L1,6 L3,1 Z " fill="#897576" transform="translate(50,9)"/>
<path d="M0,0 L5,0 L5,7 L3,7 L3,2 L0,2 Z " fill="#88777D" transform="translate(95,78)"/>
<path d="M0,0 L1,3 L-3,4 L-6,7 L-6,1 L0,2 Z " fill="#79717B" transform="translate(127,78)"/>
<path d="M0,0 L5,0 L5,4 L0,4 Z " fill="#7C6C64" transform="translate(63,63)"/>
<path d="M0,0 L5,0 L4,5 L2,7 L1,3 Z " fill="#614B52" transform="translate(139,62)"/>
<path d="M0,0 L2,0 L2,5 L4,5 L4,7 L1,7 L1,5 L-1,5 Z " fill="#9F8E91" transform="translate(128,53)"/>
<path d="M0,0 L3,0 L3,5 L-2,5 Z " fill="#4E3D45" transform="translate(127,43)"/>
<path d="M0,0 L3,0 L1,4 L-3,5 L-2,1 Z " fill="#9F9198" transform="translate(125,41)"/>
<path d="M0,0 L4,0 L4,2 L9,3 L9,5 L2,3 Z " fill="#655459" transform="translate(112,40)"/>
<path d="M0,0 L4,1 L4,6 L3,4 L-3,4 L0,3 Z " fill="#856764" transform="translate(136,37)"/>
<path d="M0,0 L5,0 L5,4 L-2,2 Z " fill="#927069" transform="translate(70,26)"/>
<path d="M0,0 L4,1 L2,1 L2,3 L10,3 L10,4 L-1,4 Z " fill="#54372C" transform="translate(61,22)"/>
<path d="M0,0 L1,0 L1,6 L-3,6 L-2,1 Z " fill="#89808B" transform="translate(149,20)"/>
<path d="M0,0 L7,0 L6,4 L0,2 Z " fill="#0E0307" transform="translate(138,13)"/>
<path d="M0,0 L5,0 L4,4 L-2,3 L-2,1 Z " fill="#221D28" transform="translate(8,8)"/>
<path d="M0,0 L7,0 L7,2 L9,2 L9,4 L2,3 Z " fill="#624A46" transform="translate(93,5)"/>
<path d="M0,0 L2,3 L2,5 L-3,5 L-3,2 L-5,1 Z " fill="#5F4A56" transform="translate(19,5)"/>
<path d="M0,0 L1,0 L1,9 L-3,8 Z " fill="#192737" transform="translate(149,76)"/>
<path d="M0,0 L2,0 L2,2 L0,2 L0,5 L-4,5 L-4,3 L-6,2 Z " fill="#6D626B" transform="translate(69,80)"/>
<path d="M0,0 L10,1 L11,3 L4,3 L0,2 Z " fill="#69595A" transform="translate(35,79)"/>
<path d="M0,0 L5,0 L4,5 L0,4 Z " fill="#473D46" transform="translate(85,73)"/>
<path d="M0,0 L2,1 L0,4 L7,3 L6,5 L-2,5 L-2,2 Z " fill="#7D645A" transform="translate(50,68)"/>
<path d="M0,0 L4,0 L3,4 L-2,3 Z " fill="#564135" transform="translate(58,64)"/>
<path d="M0,0 L3,1 L2,5 L4,5 L4,7 L0,7 Z " fill="#786665" transform="translate(125,53)"/>
<path d="M0,0 L5,1 L7,2 L7,4 L2,4 Z " fill="#816B72" transform="translate(110,58)"/>
<path d="M0,0 L2,0 L2,5 L-2,7 L-5,5 L-1,5 Z " fill="#958A93" transform="translate(139,48)"/>
<path d="M0,0 L1,4 L0,6 L-5,7 L-3,3 L-1,3 Z " fill="#28191F" transform="translate(140,42)"/>
<path d="M0,0 L1,0 L2,8 L5,8 L4,10 L0,10 Z " fill="#7E665D" transform="translate(10,31)"/>
<path d="M0,0 L3,0 L3,5 L-3,4 L-3,2 Z " fill="#C8B7BF" transform="translate(129,32)"/>
<path d="M0,0 L1,0 L1,5 L-2,6 L-3,8 L-4,4 L0,2 Z " fill="#6D5A61" transform="translate(126,24)"/>
<path d="M0,0 L4,1 L4,7 L0,3 Z " fill="#5E4945" transform="translate(111,17)"/>
<path d="M0,0 L8,0 L8,1 L2,1 L4,5 L0,5 Z " fill="#61453C" transform="translate(61,12)"/>
<path d="M0,0 L7,0 L7,5 L4,5 L4,1 Z " fill="#766869" transform="translate(130,0)"/>
<path d="M0,0 L6,0 L6,2 L4,2 L4,4 L0,3 Z " fill="#30272A" transform="translate(140,70)"/>
<path d="M0,0 L1,3 L6,2 L5,6 L0,5 Z " fill="#705545" transform="translate(87,41)"/>
<path d="M0,0 L3,0 L3,6 L0,6 Z " fill="#7C6155" transform="translate(17,41)"/>
<path d="M0,0 L6,0 L5,3 L0,4 Z " fill="#93796E" transform="translate(31,42)"/>
<path d="M0,0 L2,1 L1,5 L-2,6 L-3,4 L-2,1 Z " fill="#4E3433" transform="translate(140,27)"/>
<path d="M0,0 L2,0 L3,2 L9,3 L9,4 L-1,4 Z " fill="#60443E" transform="translate(38,23)"/>
<path d="M0,0 L1,0 L1,7 L-4,8 L-4,5 L0,5 Z " fill="#412B34" transform="translate(33,16)"/>
<path d="M0,0 L3,0 L3,6 L1,6 L1,4 L-1,4 Z " fill="#9F868F" transform="translate(36,10)"/>
<path d="M0,0 L5,1 L5,4 L0,4 Z " fill="#8F8A97" transform="translate(0,5)"/>
<path d="M0,0 L2,0 L1,4 L-4,5 L-3,2 Z " fill="#887079" transform="translate(120,0)"/>
<path d="M0,0 L5,0 L5,5 L2,4 L2,2 L0,2 Z " fill="#210E12" transform="translate(123,0)"/>
<path d="M0,0 L3,0 L3,3 L-1,3 L-1,5 L-3,5 L-3,2 Z " fill="#897670" transform="translate(81,80)"/>
<path d="M0,0 L3,1 L3,3 L6,4 L0,5 Z " fill="#6A5A66" transform="translate(126,69)"/>
<path d="M0,0 L1,2 L3,2 L3,5 L-3,5 Z " fill="#3C282E" transform="translate(116,66)"/>
<path d="M0,0 L4,1 L3,5 L0,4 Z " fill="#443132" transform="translate(95,69)"/>
<path d="M0,0 L3,0 L3,4 L-4,3 L0,2 Z " fill="#93828D" transform="translate(129,63)"/>
<path d="M0,0 L6,1 L2,3 L1,6 L-1,6 L-1,1 Z " fill="#625157" transform="translate(132,51)"/>
<path d="M0,0 L2,0 L2,4 L-4,4 L-4,2 Z " fill="#968790" transform="translate(131,47)"/>
<path d="M0,0 L3,1 L2,5 L4,5 L3,7 L1,6 L1,4 L-1,4 Z " fill="#625057" transform="translate(116,45)"/>
<path d="M0,0 L5,0 L5,2 L9,3 L-1,2 Z " fill="#3E323C" transform="translate(141,45)"/>
<path d="M0,0 L7,0 L3,1 L2,4 L-1,3 Z " fill="#8B736E" transform="translate(15,23)"/>
<path d="M0,0 L2,2 L2,5 L-4,5 L-2,4 L-2,2 L0,2 Z " fill="#757C8C" transform="translate(132,80)"/>
<path d="M0,0 L2,0 L2,3 L7,2 L7,4 L0,4 L-2,2 L0,2 Z " fill="#433536" transform="translate(8,78)"/>
<path d="M0,0 L5,0 L3,1 L2,7 L0,4 Z " fill="#354454" transform="translate(111,78)"/>
<path d="M0,0 L7,1 L6,4 L5,2 L-1,4 Z " fill="#715E5A" transform="translate(79,78)"/>
<path d="M0,0 L4,0 L4,5 L1,4 Z " fill="#6A5150" transform="translate(41,67)"/>
<path d="M0,0 L6,0 L6,3 L0,3 Z " fill="#422D2E" transform="translate(94,58)"/>
<path d="M0,0 L2,0 L2,2 L6,3 L0,5 L-1,1 Z " fill="#8E7D85" transform="translate(124,34)"/>
<path d="M0,0 L2,0 L2,6 L-1,7 Z " fill="#AA99A1" transform="translate(128,20)"/>
<path d="M0,0 L2,0 L1,4 L-5,6 L-5,4 L-1,2 Z " fill="#464750" transform="translate(9,13)"/>
<path d="M0,0 L3,0 L2,4 L-2,3 L-2,1 Z " fill="#666470" transform="translate(6,12)"/>
<path d="M0,0 L3,1 L3,5 L5,5 L5,8 L2,8 L2,2 L0,2 Z " fill="#66504F" transform="translate(105,4)"/>
<path d="M0,0 L2,0 L1,5 L-2,5 L-1,1 Z " fill="#857370" transform="translate(104,7)"/>
<path d="M0,0 L4,0 L4,4 L0,4 Z " fill="#A98E8C" transform="translate(68,0)"/>
<path d="M0,0 L3,0 L3,4 L1,5 L-1,8 Z " fill="#4B484E" transform="translate(143,0)"/>
<path d="M0,0 L5,0 L3,1 L3,3 L-2,3 L-2,1 Z " fill="#645553" transform="translate(17,79)"/>
<path d="M0,0 L7,0 L6,4 L4,4 L4,1 Z " fill="#7E6A61" transform="translate(61,73)"/>
<path d="M0,0 L3,0 L3,6 L0,4 Z " fill="#908084" transform="translate(147,65)"/>
<path d="M0,0 L3,1 L3,4 L-2,3 L-2,1 Z " fill="#725441" transform="translate(83,37)"/>
<path d="M0,0 L4,0 L3,6 L0,5 Z " fill="#665251" transform="translate(115,19)"/>
<path d="M0,0 L5,0 L5,5 L3,3 L-1,1 Z " fill="#4C403B" transform="translate(53,16)"/>
<path d="M0,0 L5,0 L4,3 L0,4 Z " fill="#2F2A35" transform="translate(0,10)"/>
<path d="M0,0 L5,0 L5,3 L0,3 Z " fill="#161116" transform="translate(0,0)"/>
<path d="M0,0 L7,0 L4,4 Z " fill="#866C67" transform="translate(52,0)"/>
<path d="M0,0 L5,0 L5,4 L3,4 L3,2 L0,2 Z " fill="#3A2E37" transform="translate(92,81)"/>
<path d="M0,0 L2,0 L2,5 L1,6 L-4,6 L0,3 Z " fill="#816662" transform="translate(28,66)"/>
<path d="M0,0 L3,1 L3,4 L-2,4 Z " fill="#463B3B" transform="translate(143,66)"/>
<path d="M0,0 L4,0 L4,3 L0,4 Z " fill="#21131B" transform="translate(133,64)"/>
<path d="M0,0 L3,0 L3,2 L5,2 L5,5 L3,5 L3,3 L0,2 Z " fill="#65473C" transform="translate(47,63)"/>
<path d="M0,0 L2,0 L5,5 L1,5 Z " fill="#CCA7A2" transform="translate(10,52)"/>
<path d="M0,0 L2,0 L2,5 L-1,5 Z " fill="#AF8E8A" transform="translate(6,50)"/>
<path d="M0,0 L5,1 L2,2 L2,7 L1,7 Z " fill="#64493A" transform="translate(15,39)"/>
<path d="M0,0 L1,3 L1,7 L-1,7 L-2,2 Z " fill="#664736" transform="translate(40,34)"/>
<path d="M0,0 L4,1 L4,4 L0,3 Z " fill="#ACA6A6" transform="translate(14,73)"/>
<path d="M0,0 L5,0 L4,3 L0,2 Z " fill="#B49795" transform="translate(22,67)"/>
<path d="M0,0 L2,1 L2,6 L0,6 L-1,1 Z " fill="#988177" transform="translate(12,33)"/>
<path d="M0,0 L3,1 L1,3 L-5,2 L-5,1 Z " fill="#684D3E" transform="translate(75,19)"/>
<path d="M0,0 L1,4 L-2,5 L-4,4 L-4,2 L-1,2 Z " fill="#2E2A35" transform="translate(13,9)"/>
<path d="M0,0 L2,0 L5,4 L0,4 L-1,2 Z " fill="#6B6D72" transform="translate(145,4)"/>
<path d="M0,0 L2,0 L3,2 L7,4 L1,4 Z " fill="#341F27" transform="translate(29,0)"/>
<path d="M0,0 L4,1 L2,5 L0,5 Z " fill="#30221C" transform="translate(87,80)"/>
<path d="M0,0 L4,1 L3,3 L-2,3 Z " fill="#838899" transform="translate(139,77)"/>
<path d="M0,0 L5,0 L4,2 L-1,3 Z " fill="#988585" transform="translate(102,76)"/>
<path d="M0,0 L4,0 L4,3 L0,3 Z " fill="#5C494F" transform="translate(120,61)"/>
<path d="M0,0 L2,0 L2,4 L-2,3 Z " fill="#2A1C22" transform="translate(140,57)"/>
<path d="M0,0 L1,0 L1,6 L-1,6 L-2,3 Z " fill="#574349" transform="translate(110,51)"/>
<path d="M0,0 L5,1 L4,4 L2,4 L2,2 L0,2 Z " fill="#A08D94" transform="translate(124,30)"/>
<path d="M0,0 L3,2 L2,5 L2,3 L-2,3 L-2,1 Z " fill="#87757D" transform="translate(129,26)"/>
<path d="M0,0 L2,0 L2,2 L4,3 L-2,3 L-2,1 Z " fill="#4C3124" transform="translate(82,19)"/>
<path d="M0,0 L3,1 L-1,5 Z " fill="#9F8A93" transform="translate(117,13)"/>
<path d="M0,0 L3,0 L4,3 L-1,3 Z " fill="#514954" transform="translate(1,13)"/>
<path d="M0,0 L4,0 L4,5 L2,5 L2,2 L0,2 Z " fill="#57454E" transform="translate(120,5)"/>
<path d="M0,0 L3,0 L3,4 L0,4 Z " fill="#514243" transform="translate(131,2)"/>
<path d="M0,0 L4,1 L2,4 L0,4 Z " fill="#8E786F" transform="translate(72,0)"/>
<path d="M0,0 L4,0 L4,3 L0,3 Z " fill="#68606A" transform="translate(74,82)"/>
<path d="M0,0 L4,1 L3,4 L1,4 Z " fill="#907978" transform="translate(20,70)"/>
<path d="M0,0 L2,0 L4,4 L0,4 Z " fill="#381C18" transform="translate(0,60)"/>
<path d="M0,0 L5,1 L3,4 L3,2 L0,2 Z " fill="#93746B" transform="translate(42,47)"/>
<path d="M0,0 L3,1 L3,3 L-1,4 L-1,1 Z " fill="#4D3A43" transform="translate(120,35)"/>
<path d="M0,0 L2,0 L3,4 L0,4 Z " fill="#937075" transform="translate(93,30)"/>
<path d="M0,0 L4,0 L3,3 L0,3 Z " fill="#B59895" transform="translate(109,30)"/>
<path d="M0,0 L1,2 L4,3 L3,5 L0,4 Z " fill="#543F43" transform="translate(117,25)"/>
<path d="M0,0 L2,0 L2,2 L4,2 L4,4 L0,3 Z " fill="#92787F" transform="translate(35,14)"/>
<path d="M0,0 L3,0 L2,4 L0,4 Z " fill="#2A2428" transform="translate(139,0)"/>
<path d="M0,0 L3,0 L3,3 L-1,2 Z " fill="#5A5459" transform="translate(123,82)"/>
<path d="M0,0 L3,1 L3,3 L-1,3 Z " fill="#B1A2AA" transform="translate(56,82)"/>
<path d="M0,0 L1,4 L-3,5 Z " fill="#5F545F" transform="translate(3,80)"/>
<path d="M0,0 L1,3 L-3,4 L-2,1 Z " fill="#9B888E" transform="translate(122,67)"/>
<path d="M0,0 L5,1 L3,2 L2,4 L2,2 L0,2 Z " fill="#6D5960" transform="translate(117,66)"/>
<path d="M0,0 L3,1 L2,5 L0,3 Z " fill="#5B3E33" transform="translate(47,65)"/>
<path d="M0,0 L3,3 L0,5 Z M3,1 Z " fill="#443B45" transform="translate(139,53)"/>
<path d="M0,0 L1,0 L1,6 L-2,2 Z " fill="#795849" transform="translate(14,46)"/>
<path d="M0,0 L2,1 L2,4 L-1,4 Z " fill="#1E0D0E" transform="translate(145,41)"/>
<path d="M0,0 L3,1 L3,3 L-1,3 Z " fill="#7C6357" transform="translate(89,41)"/>
<path d="M0,0 L2,0 L2,4 L-1,4 Z " fill="#17070C" transform="translate(30,17)"/>
<path d="M0,0 L3,0 L3,3 L0,3 Z " fill="#8A8DA0" transform="translate(115,82)"/>
<path d="M0,0 L3,0 L1,4 Z " fill="#706A6F" transform="translate(0,80)"/>
<path d="M0,0 L3,0 L3,3 L0,3 Z " fill="#302D39" transform="translate(134,75)"/>
<path d="M0,0 L3,0 L3,3 L0,3 Z " fill="#433038" transform="translate(125,61)"/>
<path d="M0,0 L4,2 L1,4 Z " fill="#62535B" transform="translate(121,39)"/>
<path d="M0,0 L2,0 L2,3 L-1,4 Z " fill="#5D4846" transform="translate(90,36)"/>
<path d="M0,0 L2,4 L-1,5 Z " fill="#664E49" transform="translate(116,27)"/>
<path d="M0,0 L3,0 L3,3 L0,3 Z " fill="#4F3B3F" transform="translate(111,17)"/>
<path d="M0,0 L2,0 L1,4 L-1,4 Z " fill="#918E9D" transform="translate(12,0)"/>
<path d="M0,0 L3,0 L3,3 L0,3 Z " fill="#B0A8AE" transform="translate(147,0)"/>
<path d="M0,0 L1,4 L-2,3 Z " fill="#1A0707" transform="translate(90,81)"/>
<path d="M0,0 L3,1 L3,3 L0,3 Z " fill="#6C5D55" transform="translate(60,60)"/>
<path d="M0,0 L3,1 L-1,3 Z " fill="#69565E" transform="translate(112,54)"/>
<path d="M0,0 L2,0 L2,3 L-1,3 Z " fill="#7B6A62" transform="translate(103,37)"/>
<path d="M0,0 L3,0 L2,3 L0,3 Z " fill="#543C34" transform="translate(87,35)"/>
<path d="M0,0 L2,2 L1,4 L-1,4 Z " fill="#CAB8C2" transform="translate(121,11)"/>
<path d="M0,0 L2,0 L2,3 L-1,3 Z " fill="#907977" transform="translate(104,7)"/>
<path d="M0,0 L2,0 L2,3 L-1,3 Z " fill="#352129" transform="translate(111,3)"/>
<path d="M0,0 L2,0 L2,3 L-1,3 Z " fill="#7B6573" transform="translate(117,2)"/>
<path d="M0,0 L3,0 L2,3 L0,2 Z " fill="#685858" transform="translate(42,75)"/>
<path d="M0,0 L3,2 L-1,3 Z " fill="#4F3F41" transform="translate(143,66)"/>
<path d="M0,0 L2,1 L2,3 L-1,3 Z " fill="#6F4E48" transform="translate(95,24)"/>
<path d="M0,0 L2,0 L1,3 L-1,3 Z " fill="#251116" transform="translate(124,22)"/>
<path d="M0,0 L3,0 L2,3 L0,2 Z " fill="#7D666C" transform="translate(32,9)"/>
<path d="M0,0 L2,0 L1,3 L-1,1 Z " fill="#796268" transform="translate(108,58)"/>
</svg>
