<?xml version="1.0" encoding="UTF-8"?>
<svg xmlns="http://www.w3.org/2000/svg" viewBox="0 0 480 480" width="120" height="120">
  <style>rect{shape-rendering:crispEdges}</style>
  <g fill="#fdfcfc">
    <rect x="210" y="120" width="10" height="10"/>
    <rect x="250" y="120" width="10" height="10"/>
  </g>
  <g fill="#fcfbfd">
    <rect x="220" y="120" width="30" height="10"/>
    <rect x="190" y="140" width="10" height="10"/>
  </g>
  <g fill="#fefefe">
    <rect x="200" y="130" width="10" height="10"/>
    <rect x="300" y="140" width="10" height="10"/>
  </g>
  <g fill="#aac6d4">
    <rect x="210" y="130" width="10" height="10"/>
    <rect x="300" y="150" width="10" height="10"/>
  </g>
  <g fill="#aecddb">
    <rect x="220" y="130" width="10" height="10"/>
    <rect x="200" y="220" width="10" height="10"/>
  </g>
  <rect fill="#adccd9" x="230" y="130" width="10" height="10"/>
  <rect fill="#adccd8" x="240" y="130" width="20" height="10"/>
  <rect fill="#fffaff" x="260" y="130" width="10" height="10"/>
  <rect fill="#fefdff" x="270" y="130" width="10" height="10"/>
  <rect fill="#feffff" x="280" y="130" width="10" height="10"/>
  <g fill="#aecedb">
    <rect x="200" y="140" width="10" height="10"/>
    <rect x="290" y="160" width="10" height="10"/>
  </g>
  <g fill="#abcfde">
    <rect x="210" y="140" width="10" height="10"/>
    <rect x="290" y="180" width="10" height="10"/>
    <rect x="290" y="190" width="10" height="10"/>
    <rect x="210" y="290" width="20" height="10"/>
    <rect x="210" y="300" width="20" height="10"/>
    <rect x="210" y="310" width="20" height="10"/>
  </g>
  <g fill="#accee0">
    <rect x="220" y="140" width="20" height="10"/>
    <rect x="280" y="190" width="10" height="10"/>
    <rect x="200" y="260" width="10" height="10"/>
  </g>
  <g fill="#accede">
    <rect x="240" y="140" width="10" height="10"/>
    <rect x="250" y="160" width="10" height="10"/>
    <rect x="300" y="190" width="10" height="10"/>
    <rect x="310" y="200" width="10" height="10"/>
    <rect x="260" y="220" width="10" height="10"/>
    <rect x="290" y="230" width="10" height="10"/>
    <rect x="290" y="240" width="10" height="10"/>
    <rect x="260" y="250" width="20" height="10"/>
    <rect x="250" y="260" width="10" height="10"/>
    <rect x="200" y="270" width="10" height="10"/>
    <rect x="230" y="270" width="20" height="10"/>
    <rect x="210" y="280" width="50" height="10"/>
    <rect x="230" y="290" width="30" height="10"/>
    <rect x="230" y="300" width="30" height="10"/>
    <rect x="230" y="310" width="30" height="10"/>
    <rect x="230" y="320" width="30" height="10"/>
  </g>
  <g fill="#aad0db">
    <rect x="250" y="140" width="10" height="10"/>
    <rect x="230" y="330" width="10" height="10"/>
  </g>
  <g fill="#b0cbdc">
    <rect x="260" y="140" width="10" height="10"/>
    <rect x="280" y="150" width="10" height="10"/>
  </g>
  <rect fill="#acc9dd" x="270" y="140" width="10" height="10"/>
  <g fill="#f9fffc">
    <rect x="280" y="140" width="10" height="10"/>
    <rect x="200" y="170" width="10" height="10"/>
  </g>
  <g fill="#fffcfe">
    <rect x="290" y="140" width="10" height="10"/>
    <rect x="170" y="180" width="10" height="10"/>
  </g>
  <g fill="#fffeff">
    <rect x="180" y="150" width="10" height="10"/>
    <rect x="170" y="210" width="10" height="10"/>
    <rect x="200" y="290" width="10" height="10"/>
    <rect x="290" y="300" width="10" height="10"/>
  </g>
  <g fill="#a8d1dc">
    <rect x="190" y="150" width="10" height="10"/>
    <rect x="270" y="210" width="10" height="10"/>
    <rect x="210" y="230" width="10" height="10"/>
    <rect x="240" y="340" width="10" height="10"/>
  </g>
  <g fill="#afd1de">
    <rect x="200" y="150" width="10" height="10"/>
    <rect x="230" y="190" width="10" height="10"/>
  </g>
  <g fill="#afd1e0">
    <rect x="210" y="150" width="40" height="10"/>
    <rect x="220" y="160" width="30" height="10"/>
    <rect x="210" y="220" width="10" height="10"/>
    <rect x="260" y="230" width="20" height="10"/>
    <rect x="260" y="240" width="20" height="10"/>
    <rect x="230" y="260" width="10" height="10"/>
  </g>
  <rect fill="#afd1df" x="250" y="150" width="10" height="10"/>
  <g fill="#aecfdf">
    <rect x="260" y="150" width="10" height="10"/>
    <rect x="210" y="160" width="10" height="10"/>
    <rect x="290" y="200" width="20" height="10"/>
    <rect x="290" y="210" width="20" height="10"/>
    <rect x="280" y="220" width="10" height="10"/>
    <rect x="300" y="220" width="10" height="10"/>
    <rect x="280" y="230" width="10" height="10"/>
    <rect x="230" y="240" width="10" height="10"/>
    <rect x="280" y="240" width="10" height="10"/>
    <rect x="200" y="250" width="20" height="10"/>
    <rect x="210" y="260" width="20" height="10"/>
    <rect x="240" y="260" width="10" height="10"/>
    <rect x="220" y="270" width="10" height="10"/>
  </g>
  <g fill="#aecdde">
    <rect x="270" y="150" width="10" height="10"/>
    <rect x="300" y="170" width="10" height="10"/>
    <rect x="300" y="180" width="10" height="10"/>
    <rect x="200" y="280" width="10" height="10"/>
  </g>
  <rect fill="#a8d1da" x="290" y="150" width="10" height="10"/>
  <g fill="#d8d6d7">
    <rect x="310" y="150" width="10" height="10"/>
    <rect x="310" y="240" width="10" height="10"/>
  </g>
  <rect fill="#ffffff" x="180" y="160" width="10" height="10"/>
  <g fill="#b1cdd6">
    <rect x="190" y="160" width="10" height="10"/>
    <rect x="260" y="320" width="20" height="10"/>
  </g>
  <g fill="#3c3b41">
    <rect x="200" y="160" width="10" height="10"/>
    <rect x="260" y="160" width="10" height="10"/>
  </g>
  <g fill="#a8cfdb">
    <rect x="270" y="160" width="10" height="10"/>
    <rect x="190" y="250" width="10" height="10"/>
  </g>
  <g fill="#afcfdf">
    <rect x="280" y="160" width="10" height="10"/>
    <rect x="290" y="170" width="10" height="10"/>
    <rect x="280" y="210" width="10" height="10"/>
    <rect x="190" y="230" width="20" height="10"/>
    <rect x="240" y="240" width="10" height="10"/>
  </g>
  <rect fill="#a8c8d8" x="300" y="160" width="10" height="10"/>
  <g fill="#d3d2d2">
    <rect x="310" y="160" width="10" height="10"/>
    <rect x="320" y="170" width="10" height="10"/>
    <rect x="310" y="250" width="10" height="10"/>
  </g>
  <g fill="#fffdfe">
    <rect x="170" y="170" width="10" height="10"/>
    <rect x="170" y="190" width="10" height="10"/>
    <rect x="290" y="290" width="10" height="10"/>
  </g>
  <g fill="#accbd8">
    <rect x="180" y="170" width="10" height="10"/>
    <rect x="230" y="210" width="10" height="10"/>
  </g>
  <g fill="#403a41">
    <rect x="190" y="170" width="10" height="10"/>
    <rect x="200" y="310" width="10" height="10"/>
  </g>
  <g fill="#3a3640">
    <rect x="210" y="170" width="10" height="10"/>
    <rect x="210" y="200" width="10" height="10"/>
  </g>
  <g fill="#acd0e0">
    <rect x="220" y="170" width="10" height="10"/>
    <rect x="230" y="180" width="10" height="10"/>
    <rect x="290" y="220" width="10" height="10"/>
    <rect x="210" y="270" width="10" height="10"/>
  </g>
  <g fill="#b3cfdf">
    <rect x="230" y="170" width="10" height="10"/>
    <rect x="180" y="240" width="10" height="10"/>
  </g>
  <rect fill="#b2cfe3" x="240" y="170" width="10" height="10"/>
  <g fill="#33353c">
    <rect x="250" y="170" width="10" height="10"/>
    <rect x="220" y="230" width="10" height="10"/>
  </g>
  <g fill="#f7fbfc">
    <rect x="260" y="170" width="10" height="10"/>
    <rect x="170" y="220" width="10" height="10"/>
  </g>
  <g fill="#3f2e37">
    <rect x="270" y="170" width="10" height="10"/>
    <rect x="270" y="190" width="10" height="10"/>
  </g>
  <g fill="#afcee1">
    <rect x="280" y="170" width="10" height="10"/>
    <rect x="200" y="240" width="10" height="10"/>
  </g>
  <g fill="#b6d3d5">
    <rect x="310" y="170" width="10" height="10"/>
    <rect x="310" y="180" width="10" height="10"/>
  </g>
  <g fill="#b0d0e0">
    <rect x="180" y="180" width="10" height="10"/>
    <rect x="250" y="230" width="10" height="10"/>
    <rect x="250" y="240" width="10" height="10"/>
  </g>
  <g fill="#454145">
    <rect x="190" y="180" width="10" height="10"/>
    <rect x="300" y="300" width="10" height="10"/>
  </g>
  <rect fill="#3b4047" x="200" y="180" width="10" height="10"/>
  <g fill="#98c3d0">
    <rect x="210" y="180" width="10" height="10"/>
    <rect x="250" y="180" width="10" height="10"/>
    <rect x="210" y="210" width="10" height="10"/>
  </g>
  <g fill="#372e33">
    <rect x="220" y="180" width="10" height="10"/>
    <rect x="220" y="190" width="10" height="10"/>
  </g>
  <g fill="#7c96a2">
    <rect x="240" y="180" width="10" height="10"/>
    <rect x="240" y="190" width="10" height="10"/>
    <rect x="240" y="200" width="10" height="10"/>
  </g>
  <g fill="#354758">
    <rect x="260" y="180" width="10" height="10"/>
    <rect x="260" y="190" width="10" height="10"/>
  </g>
  <g fill="#3e333e">
    <rect x="270" y="180" width="10" height="10"/>
    <rect x="190" y="200" width="10" height="10"/>
  </g>
  <g fill="#aecfe1">
    <rect x="280" y="180" width="10" height="10"/>
    <rect x="270" y="220" width="10" height="10"/>
  </g>
  <g fill="#bebdbe">
    <rect x="320" y="180" width="10" height="10"/>
    <rect x="270" y="330" width="10" height="10"/>
  </g>
  <g fill="#b2d1e1">
    <rect x="180" y="190" width="10" height="10"/>
    <rect x="180" y="200" width="10" height="10"/>
  </g>
  <rect fill="#3b4349" x="190" y="190" width="10" height="10"/>
  <g fill="#3e363d">
    <rect x="200" y="190" width="10" height="10"/>
    <rect x="250" y="200" width="10" height="10"/>
    <rect x="300" y="280" width="10" height="10"/>
    <rect x="300" y="290" width="10" height="10"/>
    <rect x="200" y="300" width="10" height="10"/>
  </g>
  <rect fill="#0eaaa3" x="210" y="190" width="10" height="10"/>
  <rect fill="#445666" x="250" y="190" width="10" height="10"/>
  <g fill="#abcddd">
    <rect x="310" y="190" width="10" height="10"/>
    <rect x="280" y="250" width="20" height="10"/>
    <rect x="260" y="260" width="10" height="10"/>
    <rect x="250" y="270" width="10" height="10"/>
    <rect x="260" y="280" width="10" height="10"/>
    <rect x="260" y="290" width="10" height="10"/>
    <rect x="260" y="300" width="10" height="10"/>
    <rect x="260" y="310" width="10" height="10"/>
  </g>
  <rect fill="#8698a3" x="320" y="190" width="10" height="10"/>
  <rect fill="#fffdff" x="170" y="200" width="10" height="10"/>
  <g fill="#2eb4c7">
    <rect x="200" y="200" width="10" height="10"/>
    <rect x="260" y="200" width="10" height="10"/>
  </g>
  <rect fill="#332d39" x="220" y="200" width="10" height="10"/>
  <g fill="#afd1dc">
    <rect x="230" y="200" width="10" height="10"/>
    <rect x="220" y="330" width="10" height="10"/>
  </g>
  <rect fill="#34242a" x="270" y="200" width="10" height="10"/>
  <g fill="#a8d1de">
    <rect x="280" y="200" width="10" height="10"/>
    <rect x="240" y="330" width="10" height="10"/>
  </g>
  <g fill="#7c8e99">
    <rect x="320" y="200" width="10" height="10"/>
    <rect x="230" y="220" width="10" height="10"/>
  </g>
  <rect fill="#afcfde" x="180" y="210" width="10" height="10"/>
  <rect fill="#aad1dd" x="190" y="210" width="10" height="10"/>
  <g fill="#504f60">
    <rect x="200" y="210" width="10" height="10"/>
    <rect x="180" y="270" width="10" height="10"/>
  </g>
  <rect fill="#9bc7dd" x="220" y="210" width="10" height="10"/>
  <rect fill="#97b9c4" x="240" y="210" width="10" height="10"/>
  <rect fill="#587d89" x="250" y="210" width="10" height="10"/>
  <rect fill="#494755" x="260" y="210" width="10" height="10"/>
  <g fill="#aaccdc">
    <rect x="310" y="210" width="10" height="10"/>
    <rect x="280" y="260" width="20" height="10"/>
    <rect x="280" y="270" width="20" height="10"/>
    <rect x="270" y="280" width="20" height="10"/>
    <rect x="270" y="290" width="10" height="10"/>
    <rect x="270" y="300" width="10" height="10"/>
    <rect x="270" y="310" width="10" height="10"/>
  </g>
  <rect fill="#566770" x="320" y="210" width="10" height="10"/>
  <g fill="#b0cddc">
    <rect x="180" y="220" width="20" height="10"/>
    <rect x="220" y="320" width="10" height="10"/>
  </g>
  <g fill="#b7c7cd">
    <rect x="220" y="220" width="10" height="10"/>
    <rect x="220" y="240" width="10" height="10"/>
  </g>
  <rect fill="#abccd3" x="240" y="220" width="10" height="10"/>
  <rect fill="#add0dd" x="250" y="220" width="10" height="10"/>
  <g fill="#90a5ae">
    <rect x="310" y="220" width="10" height="10"/>
    <rect x="310" y="230" width="10" height="10"/>
  </g>
  <rect fill="#494a4c" x="170" y="230" width="10" height="10"/>
  <rect fill="#b3cdde" x="180" y="230" width="10" height="10"/>
  <rect fill="#a1bfc6" x="230" y="230" width="10" height="10"/>
  <rect fill="#a1b9c0" x="240" y="230" width="10" height="10"/>
  <rect fill="#abcfdc" x="300" y="230" width="10" height="10"/>
  <g fill="#aed0dd">
    <rect x="190" y="240" width="10" height="10"/>
    <rect x="220" y="250" width="40" height="10"/>
  </g>
  <rect fill="#add4e0" x="210" y="240" width="10" height="10"/>
  <rect fill="#afccdb" x="300" y="240" width="10" height="10"/>
  <g fill="#463c45">
    <rect x="180" y="250" width="10" height="10"/>
    <rect x="180" y="260" width="10" height="10"/>
  </g>
  <g fill="#a6c5d7">
    <rect x="300" y="250" width="10" height="10"/>
    <rect x="280" y="310" width="10" height="10"/>
  </g>
  <rect fill="#accfdf" x="190" y="260" width="10" height="10"/>
  <g fill="#adccdd">
    <rect x="270" y="260" width="10" height="10"/>
    <rect x="260" y="270" width="20" height="10"/>
  </g>
  <rect fill="#afd3e5" x="300" y="260" width="10" height="10"/>
  <rect fill="#b0d1dc" x="190" y="270" width="10" height="10"/>
  <g fill="#b9dae6">
    <rect x="300" y="270" width="10" height="10"/>
    <rect x="210" y="320" width="10" height="10"/>
  </g>
  <rect fill="#b1cede" x="190" y="280" width="10" height="10"/>
  <rect fill="#b1d3e2" x="290" y="280" width="10" height="10"/>
  <g fill="#a8cad9">
    <rect x="280" y="290" width="10" height="10"/>
    <rect x="280" y="300" width="10" height="10"/>
  </g>
  <rect fill="#fcfcf7" x="290" y="310" width="10" height="10"/>
  <rect fill="#b5cad2" x="280" y="320" width="10" height="10"/>
  <rect fill="#adcdd4" x="250" y="330" width="10" height="10"/>
  <rect fill="#b1aab1" x="260" y="330" width="10" height="10"/>
  <rect fill="#adc8db" x="220" y="340" width="10" height="10"/>
  <rect fill="#adcbd8" x="230" y="340" width="10" height="10"/>
  <rect fill="#aaaaaa" x="250" y="340" width="10" height="10"/>
</svg>
