<?xml version="1.0" encoding="UTF-8"?>
<svg xmlns="http://www.w3.org/2000/svg" viewBox="0 0 480 480" width="120" height="120">
  <style>rect{shape-rendering:crispEdges}</style>
  <rect fill="#a02148" x="230" y="140" width="20" height="10"/>
  <rect fill="#d61d4a" x="210" y="150" width="10" height="10"/>
  <rect fill="#fbc5d4" x="220" y="150" width="20" height="10"/>
  <g fill="#f0b9c8">
    <rect x="240" y="150" width="10" height="10"/>
    <rect x="210" y="180" width="10" height="10"/>
  </g>
  <g fill="#c62543">
    <rect x="250" y="150" width="10" height="10"/>
    <rect x="260" y="190" width="10" height="10"/>
  </g>
  <g fill="#c01a38">
    <rect x="260" y="150" width="10" height="10"/>
    <rect x="270" y="210" width="10" height="10"/>
  </g>
  <rect fill="#d01645" x="190" y="160" width="10" height="10"/>
  <g fill="#d3214b">
    <rect x="200" y="160" width="10" height="10"/>
    <rect x="220" y="160" width="10" height="10"/>
    <rect x="230" y="200" width="10" height="10"/>
  </g>
  <rect fill="#d1204a" x="210" y="160" width="10" height="10"/>
  <g fill="#d4224d">
    <rect x="230" y="160" width="10" height="10"/>
    <rect x="190" y="170" width="10" height="10"/>
  </g>
  <rect fill="#d1244b" x="240" y="160" width="10" height="10"/>
  <g fill="#cb2349">
    <rect x="250" y="160" width="10" height="10"/>
    <rect x="240" y="200" width="10" height="10"/>
  </g>
  <rect fill="#be2d45" x="260" y="160" width="10" height="10"/>
  <rect fill="#b33842" x="270" y="160" width="10" height="10"/>
  <g fill="#b51330">
    <rect x="280" y="160" width="10" height="10"/>
    <rect x="160" y="190" width="10" height="10"/>
  </g>
  <rect fill="#8f102c" x="170" y="170" width="10" height="10"/>
  <rect fill="#cd1c40" x="180" y="170" width="10" height="10"/>
  <rect fill="#fff8f6" x="200" y="170" width="10" height="10"/>
  <rect fill="#d11e4a" x="210" y="170" width="10" height="10"/>
  <rect fill="#d3224b" x="220" y="170" width="10" height="10"/>
  <rect fill="#d2234e" x="230" y="170" width="10" height="10"/>
  <rect fill="#ce2550" x="240" y="170" width="10" height="10"/>
  <rect fill="#b52547" x="250" y="170" width="10" height="10"/>
  <g fill="#c22a44">
    <rect x="260" y="170" width="10" height="10"/>
    <rect x="260" y="180" width="10" height="10"/>
  </g>
  <rect fill="#b8373e" x="270" y="170" width="10" height="10"/>
  <g fill="#a03247">
    <rect x="280" y="170" width="10" height="10"/>
    <rect x="280" y="180" width="10" height="10"/>
    <rect x="270" y="190" width="10" height="10"/>
  </g>
  <rect fill="#b2072a" x="290" y="170" width="10" height="10"/>
  <rect fill="#dc294d" x="170" y="180" width="10" height="10"/>
  <g fill="#c8375a">
    <rect x="180" y="180" width="10" height="10"/>
    <rect x="190" y="210" width="10" height="10"/>
  </g>
  <rect fill="#d61f4b" x="190" y="180" width="10" height="10"/>
  <rect fill="#cf1f4a" x="200" y="180" width="10" height="10"/>
  <g fill="#fffcf7">
    <rect x="220" y="180" width="10" height="10"/>
    <rect x="190" y="330" width="10" height="10"/>
  </g>
  <rect fill="#d1224b" x="230" y="180" width="10" height="10"/>
  <rect fill="#d3214d" x="240" y="180" width="10" height="10"/>
  <g fill="#d12147">
    <rect x="250" y="180" width="10" height="10"/>
    <rect x="170" y="200" width="10" height="10"/>
  </g>
  <rect fill="#a93246" x="270" y="180" width="10" height="10"/>
  <rect fill="#a80d2b" x="290" y="180" width="10" height="10"/>
  <rect fill="#ab0b2d" x="300" y="180" width="10" height="10"/>
  <rect fill="#fff7f6" x="170" y="190" width="10" height="10"/>
  <g fill="#f6a0b1">
    <rect x="180" y="190" width="10" height="10"/>
    <rect x="210" y="190" width="10" height="10"/>
  </g>
  <rect fill="#d31f4c" x="190" y="190" width="10" height="10"/>
  <g fill="#fde5ec">
    <rect x="200" y="190" width="10" height="10"/>
    <rect x="200" y="200" width="10" height="10"/>
    <rect x="210" y="210" width="10" height="10"/>
  </g>
  <g fill="#d5214d">
    <rect x="220" y="190" width="10" height="10"/>
    <rect x="220" y="210" width="10" height="10"/>
  </g>
  <rect fill="#d4234a" x="230" y="190" width="10" height="10"/>
  <rect fill="#bd2f4f" x="240" y="190" width="10" height="10"/>
  <rect fill="#cc1c4d" x="250" y="190" width="10" height="10"/>
  <g fill="#dab9bd">
    <rect x="280" y="190" width="10" height="10"/>
    <rect x="210" y="240" width="10" height="10"/>
  </g>
  <rect fill="#b3c2ad" x="290" y="190" width="10" height="10"/>
  <rect fill="#912d40" x="300" y="190" width="10" height="10"/>
  <g fill="#a20522">
    <rect x="310" y="190" width="10" height="10"/>
    <rect x="280" y="200" width="10" height="10"/>
    <rect x="310" y="200" width="10" height="10"/>
  </g>
  <rect fill="#fad5df" x="160" y="200" width="10" height="10"/>
  <g fill="#d21e48">
    <rect x="180" y="200" width="10" height="10"/>
    <rect x="260" y="200" width="10" height="10"/>
  </g>
  <rect fill="#d51e4c" x="190" y="200" width="10" height="10"/>
  <rect fill="#fde3eb" x="210" y="200" width="10" height="10"/>
  <rect fill="#facede" x="220" y="200" width="10" height="10"/>
  <rect fill="#b23051" x="250" y="200" width="10" height="10"/>
  <rect fill="#cb1f40" x="270" y="200" width="10" height="10"/>
  <g fill="#741422">
    <rect x="290" y="200" width="10" height="10"/>
    <rect x="310" y="210" width="10" height="10"/>
  </g>
  <rect fill="#900020" x="300" y="200" width="10" height="10"/>
  <rect fill="#fef9f6" x="170" y="210" width="10" height="10"/>
  <rect fill="#eea7bc" x="180" y="210" width="10" height="10"/>
  <rect fill="#c92b55" x="200" y="210" width="10" height="10"/>
  <rect fill="#d62349" x="230" y="210" width="10" height="10"/>
  <rect fill="#d52544" x="240" y="210" width="10" height="10"/>
  <rect fill="#d62741" x="250" y="210" width="10" height="10"/>
  <rect fill="#d32640" x="260" y="210" width="10" height="10"/>
  <rect fill="#9d0927" x="280" y="210" width="10" height="10"/>
  <rect fill="#960421" x="290" y="210" width="20" height="10"/>
  <rect fill="#a9a868" x="240" y="230" width="10" height="10"/>
  <rect fill="#d6b493" x="220" y="240" width="10" height="10"/>
  <rect fill="#e8e6e6" x="240" y="240" width="10" height="10"/>
  <g fill="#afab77">
    <rect x="260" y="240" width="10" height="10"/>
    <rect x="270" y="300" width="10" height="10"/>
  </g>
  <g fill="#fefefe">
    <rect x="210" y="250" width="10" height="10"/>
    <rect x="230" y="270" width="20" height="10"/>
    <rect x="160" y="310" width="10" height="10"/>
    <rect x="230" y="310" width="20" height="10"/>
    <rect x="210" y="320" width="30" height="10"/>
    <rect x="220" y="330" width="20" height="10"/>
    <rect x="190" y="350" width="10" height="10"/>
  </g>
  <g fill="#fcfbfc">
    <rect x="240" y="250" width="10" height="10"/>
    <rect x="220" y="260" width="10" height="10"/>
    <rect x="240" y="260" width="10" height="10"/>
    <rect x="260" y="360" width="10" height="10"/>
  </g>
  <g fill="#a69859">
    <rect x="260" y="250" width="10" height="10"/>
    <rect x="260" y="300" width="10" height="10"/>
  </g>
  <g fill="#fdfdfd">
    <rect x="210" y="260" width="10" height="10"/>
    <rect x="230" y="260" width="10" height="10"/>
    <rect x="210" y="270" width="20" height="10"/>
    <rect x="210" y="280" width="40" height="10"/>
    <rect x="210" y="290" width="40" height="10"/>
    <rect x="220" y="300" width="30" height="10"/>
    <rect x="210" y="310" width="20" height="10"/>
    <rect x="320" y="320" width="10" height="10"/>
    <rect x="260" y="350" width="10" height="10"/>
    <rect x="270" y="360" width="10" height="10"/>
  </g>
  <g fill="#fefcfb">
    <rect x="250" y="260" width="10" height="10"/>
    <rect x="250" y="280" width="10" height="10"/>
    <rect x="250" y="290" width="10" height="10"/>
  </g>
  <rect fill="#c5b365" x="260" y="260" width="10" height="10"/>
  <g fill="#fffdfc">
    <rect x="250" y="270" width="10" height="10"/>
    <rect x="250" y="320" width="10" height="10"/>
  </g>
  <g fill="#c1b266">
    <rect x="260" y="270" width="10" height="10"/>
    <rect x="260" y="280" width="10" height="10"/>
  </g>
  <rect fill="#c1b366" x="260" y="290" width="10" height="10"/>
  <g fill="#d1cc9e">
    <rect x="190" y="300" width="10" height="10"/>
    <rect x="190" y="310" width="10" height="10"/>
  </g>
  <rect fill="#fefcfd" x="210" y="300" width="10" height="10"/>
  <rect fill="#fdfdfb" x="250" y="300" width="10" height="10"/>
  <rect fill="#f7ebed" x="140" y="310" width="10" height="10"/>
  <g fill="#fefbfe">
    <rect x="150" y="310" width="10" height="10"/>
    <rect x="170" y="320" width="10" height="10"/>
  </g>
  <rect fill="#fefefc" x="250" y="310" width="10" height="10"/>
  <rect fill="#dbc889" x="270" y="310" width="10" height="10"/>
  <rect fill="#f6f9f6" x="160" y="320" width="10" height="10"/>
  <rect fill="#fafafb" x="200" y="320" width="10" height="10"/>
  <rect fill="#fffdfe" x="240" y="320" width="10" height="10"/>
  <g fill="#c8c286">
    <rect x="280" y="320" width="10" height="10"/>
    <rect x="160" y="330" width="10" height="10"/>
  </g>
  <rect fill="#cec7a2" x="290" y="320" width="10" height="10"/>
  <rect fill="#ebeef4" x="310" y="320" width="10" height="10"/>
  <g fill="#ddddd9">
    <rect x="150" y="330" width="10" height="10"/>
    <rect x="200" y="360" width="10" height="10"/>
  </g>
  <rect fill="#fdfdfa" x="200" y="330" width="10" height="10"/>
  <rect fill="#fdfefb" x="210" y="330" width="10" height="10"/>
  <rect fill="#fefdea" x="240" y="330" width="10" height="10"/>
  <rect fill="#bfac57" x="250" y="330" width="10" height="10"/>
  <rect fill="#bec088" x="300" y="330" width="10" height="10"/>
  <rect fill="#f4f4f4" x="180" y="340" width="10" height="10"/>
  <rect fill="#fffef8" x="190" y="340" width="10" height="10"/>
  <rect fill="#dddccf" x="210" y="340" width="10" height="10"/>
  <rect fill="#fbfadc" x="220" y="340" width="20" height="10"/>
  <rect fill="#e1c184" x="240" y="340" width="10" height="10"/>
  <rect fill="#bdb383" x="250" y="340" width="10" height="10"/>
  <g fill="#bbbfc6">
    <rect x="280" y="360" width="10" height="10"/>
    <rect x="280" y="370" width="10" height="10"/>
  </g>
  <rect fill="#ffffff" x="180" y="370" width="10" height="10"/>
  <rect fill="#f6f5f8" x="190" y="370" width="10" height="10"/>
  <rect fill="#adaeb0" x="200" y="370" width="10" height="10"/>
  <rect fill="#f9faf9" x="260" y="370" width="10" height="10"/>
  <rect fill="#dbdbe4" x="270" y="370" width="10" height="10"/>
</svg>
