<?xml version="1.0" encoding="UTF-8"?>
<!-- Generator: visioncortex VTracer 0.6.5 -->
<svg version="1.1" xmlns="http://www.w3.org/2000/svg" width="150" height="84">
<path d="M0,0 L150,0 L150,84 L0,84 Z " fill="#4F5B63" transform="translate(0,0)"/>
<path d="M0,0 L5,0 L5,27 L-145,27 L-145,3 L-142,1 L-139,1 L-139,4 L-134,4 L-134,9 L-116,10 L-116,6 L-113,5 L-48,5 L-43,10 L-18,10 L-18,7 L-10,6 L-7,2 Z " fill="#68747C" transform="translate(145,57)"/>
<path d="M0,0 L8,1 L8,3 L23,3 L24,9 L28,12 L28,16 L22,17 L6,17 L1,14 L-1,8 L-1,1 Z " fill="#000308" transform="translate(97,48)"/>
<path d="M0,0 L18,0 L24,2 L25,7 L27,7 L27,10 L29,9 L36,9 L39,11 L38,16 L37,18 L31,18 L31,22 L15,22 L6,21 L5,19 L29,19 L27,14 L24,12 L24,6 L9,6 L9,4 L1,4 L1,13 L-4,10 L-5,3 L-3,3 L-3,1 Z " fill="#2E3941" transform="translate(96,45)"/>
<path d="M0,0 L11,0 L9,7 L8,9 L6,9 L6,11 L0,11 L-3,14 L-7,14 L-8,17 L-13,14 L-19,13 L-19,11 L-21,11 L-21,9 L-27,9 L-26,6 L-14,4 L0,4 Z " fill="#17222A" transform="translate(133,0)"/>
<path d="M0,0 L5,0 L9,2 L9,6 L23,5 L22,9 L20,9 L20,13 L4,13 L2,12 L1,8 L-4,8 L-3,4 L-9,6 L-9,3 L-3,1 Z " fill="#49535D" transform="translate(9,54)"/>
<path d="M0,0 L6,1 L7,6 L3,6 L3,11 L-1,13 L-5,12 L-16,12 L-16,7 L-19,6 L-19,3 L-2,3 L-2,1 Z " fill="#25343B" transform="translate(32,12)"/>
<path d="M0,0 L5,2 L11,10 L12,11 L35,13 L35,14 L12,14 L7,9 L-59,9 L-59,7 L-34,6 L-14,6 L0,7 Z " fill="#59666D" transform="translate(90,54)"/>
<path d="M0,0 L7,1 L9,6 L17,10 L18,11 L18,18 L7,19 L7,7 L5,7 L4,3 L-2,3 L0,2 Z " fill="#404B53" transform="translate(70,10)"/>
<path d="M0,0 L13,1 L13,8 L7,8 L7,12 L-9,12 L-18,11 L-19,9 L5,9 L3,4 L0,2 Z " fill="#242F37" transform="translate(120,55)"/>
<path d="M0,0 L5,3 L5,7 L-1,8 L-17,8 L-22,5 L-23,1 L-17,2 L-17,6 L-3,5 L-13,4 L-13,2 L-1,1 Z " fill="#0C161E" transform="translate(120,57)"/>
<path d="M0,0 L10,1 L11,6 L9,10 L1,10 L-2,6 L-2,1 Z " fill="#313F47" transform="translate(33,48)"/>
<path d="M0,0 L8,1 L8,3 L10,3 L10,15 L22,14 L24,7 L25,7 L25,16 L17,17 L12,18 L8,15 L8,13 L6,13 L6,3 L0,3 Z " fill="#546068" transform="translate(67,14)"/>
<path d="M0,0 L4,0 L3,7 L-12,6 L-13,3 L-16,3 L-16,1 Z " fill="#1A292F" transform="translate(30,14)"/>
<path d="M0,0 L2,0 L2,5 L-12,6 L-18,7 L-18,10 L-12,10 L-13,14 L-19,13 L-19,11 L-21,11 L-21,9 L-27,9 L-26,6 L-14,4 L0,4 Z " fill="#313C44" transform="translate(133,0)"/>
<path d="M0,0 L5,0 L10,6 L12,8 L15,10 L20,13 L20,16 L10,12 L7,6 L7,4 L-1,5 L-3,8 L-4,3 Z " fill="#6C787F" transform="translate(69,5)"/>
<path d="M0,0 L11,0 L11,7 L10,8 L4,8 L3,6 L0,7 Z " fill="#19232D" transform="translate(0,0)"/>
<path d="M0,0 L8,1 L8,3 L23,3 L23,5 L0,6 L-1,8 L-1,1 Z " fill="#141F27" transform="translate(97,48)"/>
<path d="M0,0 L6,0 L6,2 L0,5 L-12,5 L-12,1 Z " fill="#19222C" transform="translate(24,60)"/>
<path d="M0,0 L4,1 L5,3 L1,4 L1,13 L-4,10 L-5,3 L-3,3 L-3,1 Z " fill="#222E36" transform="translate(96,45)"/>
<path d="M0,0 L7,0 L6,4 L4,4 L4,8 L-12,8 L-13,6 L-1,5 L2,3 L5,3 L5,1 L0,1 Z " fill="#3D4851" transform="translate(25,59)"/>
<path d="M0,0 L1,2 L4,2 L4,6 L15,6 L20,7 L22,6 L20,10 L14,9 L3,9 L3,4 L0,3 Z " fill="#37454C" transform="translate(13,15)"/>
<path d="M0,0 L6,0 L9,3 L9,6 L-2,6 Z " fill="#212F36" transform="translate(70,43)"/>
<path d="M0,0 L5,0 L6,3 L2,4 L-1,6 L-6,5 L-9,6 L-9,3 L-3,1 Z " fill="#3B454F" transform="translate(9,54)"/>
<path d="M0,0 L7,0 L15,4 L15,6 L4,4 L0,2 Z " fill="#313B43" transform="translate(98,30)"/>
<path d="M0,0 L6,1 L7,5 L22,6 L22,7 L6,7 L1,4 Z " fill="#152028" transform="translate(97,58)"/>
<path d="M0,0 L6,0 L5,6 L0,7 L0,4 L-2,3 Z " fill="#2D373F" transform="translate(128,41)"/>
<path d="M0,0 L1,4 L13,4 L11,6 L-3,6 L-3,2 Z " fill="#030A12" transform="translate(106,57)"/>
<path d="M0,0 L14,0 L14,3 L1,3 Z " fill="#38434B" transform="translate(100,45)"/>
<path d="M0,0 L16,1 L17,3 L-1,3 L-4,9 L-6,9 L-4,2 Z M17,1 Z " fill="#59656D" transform="translate(58,30)"/>
<path d="M0,0 L4,1 L7,4 L6,7 L1,8 L0,7 Z " fill="#3D4850" transform="translate(120,25)"/>
<path d="M0,0 L3,3 L5,3 L5,6 L-6,6 L-2,1 Z " fill="#606C73" transform="translate(26,78)"/>
<path d="M0,0 L8,1 L8,13 L6,13 L6,3 L0,3 Z " fill="#66737B" transform="translate(67,14)"/>
<path d="M0,0 L6,1 L4,3 L0,4 L-2,6 L-5,6 L-6,10 L-7,8 L-9,7 L-7,4 L-1,3 Z " fill="#354048" transform="translate(133,10)"/>
<path d="M0,0 L6,0 L6,2 L0,1 Z M-2,1 L0,2 L-3,5 L-7,5 L-8,8 L-11,5 L-8,3 Z " fill="#232F37" transform="translate(133,9)"/>
<path d="M0,0 L10,4 L12,8 L1,4 Z " fill="#5B686F" transform="translate(78,13)"/>
<path d="M0,0 L1,0 L1,6 L-4,7 L-6,6 L-6,2 Z " fill="#29333B" transform="translate(149,20)"/>
<path d="M0,0 L5,2 L6,5 L9,8 L5,9 L3,5 L1,5 Z " fill="#49555D" transform="translate(96,37)"/>
<path d="M0,0 L2,0 L2,8 L-4,10 L-5,14 L-6,8 L-1,7 Z " fill="#3A444D" transform="translate(11,0)"/>
<path d="M0,0 L10,0 L9,4 L4,3 L0,2 Z " fill="#121F27" transform="translate(14,15)"/>
<path d="M0,0 L4,0 L4,7 L-2,6 L0,5 Z " fill="#030A12" transform="translate(135,0)"/>
<path d="M0,0 L9,0 L13,5 L11,7 L10,4 L8,4 L8,2 L0,2 Z " fill="#5A6C71" transform="translate(28,9)"/>
<path d="M0,0 L9,0 L8,3 L0,3 Z " fill="#030912" transform="translate(16,62)"/>
<path d="M0,0 L4,0 L4,6 L-1,6 Z " fill="#0E1822" transform="translate(6,0)"/>
<path d="M0,0 L5,0 L7,5 L4,5 L4,3 L-2,3 L0,2 Z " fill="#37434B" transform="translate(70,10)"/>
<path d="M0,0 L4,1 L2,7 L1,9 L-1,8 Z " fill="#2A343D" transform="translate(140,0)"/>
<path d="M0,0 L4,0 L4,5 L0,7 Z " fill="#2C353F" transform="translate(0,0)"/>
<path d="M0,0 L3,1 L-1,4 L-4,4 L-2,11 L-5,8 L-5,3 L-3,3 L-3,1 Z " fill="#313D45" transform="translate(96,45)"/>
<path d="M0,0 L5,1 L5,2 L-2,3 L-4,6 L-5,1 Z " fill="#606D74" transform="translate(70,7)"/>
<path d="M0,0 L6,0 L3,2 L1,2 L1,6 L4,7 L0,7 L0,4 L-2,3 Z " fill="#37414A" transform="translate(128,41)"/>
<path d="M0,0 L4,0 L3,3 L-2,6 L-2,1 Z " fill="#626E76" transform="translate(129,73)"/>
<path d="M0,0 L6,1 L7,6 L3,5 L5,2 L0,1 Z " fill="#34444A" transform="translate(32,12)"/>
<path d="M0,0 L2,1 L2,3 L6,4 L0,5 L0,3 L-2,2 Z " fill="#44535A" transform="translate(47,55)"/>
<path d="M0,0 L6,0 L6,2 L1,3 L-1,1 Z " fill="#0D171F" transform="translate(24,60)"/>
<path d="M0,0 L4,0 L4,2 L-3,3 L-3,1 Z " fill="#57616B" transform="translate(24,57)"/>
<path d="M0,0 L8,0 L8,1 L2,3 L0,5 Z " fill="#404C54" transform="translate(56,36)"/>
<path d="M0,0 L4,1 L4,4 L0,4 Z " fill="#5B6970" transform="translate(92,80)"/>
<path d="M0,0 L2,0 L1,5 L-2,5 L-1,1 Z " fill="#5D6971" transform="translate(56,79)"/>
<path d="M0,0 Z M-1,1 Z M-2,2 Z M-6,3 L-2,5 L-2,6 L-7,6 Z M-3,3 Z " fill="#535D67" transform="translate(12,56)"/>
<path d="M0,0 L4,1 L1,1 L0,5 L-1,3 L-3,2 Z " fill="#3F4A52" transform="translate(127,15)"/>
<path d="M0,0 L1,2 L3,2 L3,4 L-2,4 Z " fill="#4A555D" transform="translate(137,80)"/>
<path d="M0,0 L4,2 L3,6 L0,3 Z " fill="#26323A" transform="translate(97,58)"/>
<path d="M0,0 L4,1 L3,4 L0,3 Z " fill="#303B43" transform="translate(120,27)"/>
<path d="M0,0 L4,1 L5,4 L2,4 L2,2 L0,2 Z " fill="#54656A" transform="translate(36,11)"/>
<path d="M0,0 L3,0 L2,5 L0,5 Z " fill="#050D18" transform="translate(6,0)"/>
<path d="M0,0 L3,1 L3,3 L-3,3 Z " fill="#5F6E75" transform="translate(107,81)"/>
<path d="M0,0 L7,0 L4,3 Z " fill="#47515B" transform="translate(4,57)"/>
<path d="M0,0 L5,0 L6,2 L2,3 Z " fill="#404B53" transform="translate(99,43)"/>
<path d="M0,0 L0,3 L-3,5 L-3,1 Z " fill="#65747A" transform="translate(106,4)"/>
<path d="M0,0 L2,0 L2,4 L-2,3 Z " fill="#48535B" transform="translate(131,0)"/>
<path d="M0,0 L1,4 L-2,5 L-1,1 Z " fill="#3E4851" transform="translate(142,20)"/>
<path d="M0,0 L4,1 L3,3 L0,3 Z " fill="#0F1A22" transform="translate(115,7)"/>
<path d="M0,0 L2,0 L2,3 L-1,3 Z " fill="#566269" transform="translate(29,81)"/>
<path d="M0,0 L3,0 L2,3 L0,3 Z " fill="#08121A" transform="translate(122,60)"/>
<path d="M0,0 L2,1 L2,3 L-2,2 Z " fill="#35454B" transform="translate(47,55)"/>
<path d="M0,0 L3,0 L2,3 L0,2 Z " fill="#515C64" transform="translate(130,73)"/>
</svg>
