<?xml version="1.0" encoding="UTF-8"?>
<!-- Generator: visioncortex VTracer 0.6.5 -->
<svg version="1.1" xmlns="http://www.w3.org/2000/svg" width="150" height="84">
<path d="M0,0 L150,0 L150,84 L0,84 Z " fill="#55646D" transform="translate(0,0)"/>
<path d="M0,0 L26,0 L32,1 L37,0 L51,2 L52,4 L53,2 L70,1 L81,1 L81,3 L83,3 L83,13 L81,15 L77,15 L76,13 L71,15 L69,18 L68,23 L-22,23 L-22,9 L-13,1 Z " fill="#6C7982" transform="translate(22,61)"/>
<path d="M0,0 L29,0 L27,7 L30,7 L30,5 L36,6 L36,8 L41,10 L43,10 L43,18 L37,20 L34,22 L31,22 L32,26 L30,35 L27,37 L25,32 L23,32 L22,34 L18,34 L19,40 L15,47 L23,46 L25,44 L30,45 L32,50 L34,51 L31,56 L24,57 L23,58 L0,57 Z " fill="#353F43" transform="translate(0,0)"/>
<path d="M0,0 L16,0 L18,1 L17,14 L19,14 L21,8 L27,6 L25,4 L33,3 L33,27 L-27,27 L-26,20 L-21,16 L-18,17 L-18,19 L-13,17 L-12,5 L-3,5 L-1,1 Z " fill="#505B64" transform="translate(117,57)"/>
<path d="M0,0 L11,0 L13,0 L19,0 L19,2 L22,1 L40,2 L48,6 L49,9 L53,9 L53,12 L56,12 L56,17 L13,17 L11,13 L8,15 L4,15 L3,8 L2,4 L-2,2 Z M3,15 Z " fill="#6A7680" transform="translate(34,30)"/>
<path d="M0,0 L1,0 L1,5 L5,6 L7,10 L7,17 L10,15 L14,15 L19,20 L19,22 L12,21 L12,19 L5,22 L3,23 L-1,19 L-1,17 L-6,17 L-9,19 L-16,19 L-14,15 L-13,6 L-9,6 L-8,3 L-5,4 L-3,8 Z M6,17 Z M11,21 Z " fill="#3D474E" transform="translate(31,28)"/>
<path d="M0,0 L14,0 L12,7 L15,7 L15,5 L21,6 L21,8 L26,10 L28,10 L28,18 L21,19 L20,20 L11,21 L9,20 L10,16 L13,12 L8,10 L2,7 Z " fill="#2C363E" transform="translate(15,0)"/>
<path d="M0,0 L1,0 L1,25 L-8,26 L-12,25 L-12,22 L-15,21 L-25,21 L-28,17 L-16,18 L-10,13 L-8,7 L-6,7 L-4,3 Z " fill="#303C45" transform="translate(149,28)"/>
<path d="M0,0 L17,1 L21,5 L28,9 L27,14 L25,15 L13,16 L11,17 L6,15 L7,10 L8,8 L1,6 Z " fill="#374750" transform="translate(90,7)"/>
<path d="M0,0 L14,0 L14,7 L16,7 L17,12 L19,14 L18,21 L15,23 L13,25 L13,23 L11,23 L11,25 L3,26 L2,22 L8,19 L9,18 L14,18 L14,10 L11,11 L7,8 L7,6 L1,5 L1,7 L-2,7 L-1,2 Z " fill="#5A646D" transform="translate(29,0)"/>
<path d="M0,0 L5,1 L7,6 L9,7 L6,12 L-1,13 L-2,14 L-25,13 L-25,11 L-12,11 L-11,6 L-12,4 L-3,2 Z " fill="#323D41" transform="translate(25,44)"/>
<path d="M0,0 L5,0 L0,4 L-6,4 L-3,8 L-13,8 L-14,9 L-27,10 L-35,17 L-36,17 L-36,4 L-13,4 L-12,3 L-2,2 Z " fill="#49545E" transform="translate(36,53)"/>
<path d="M0,0 L15,0 L16,12 L11,13 L10,12 L0,11 Z " fill="#343E47" transform="translate(0,0)"/>
<path d="M0,0 L3,1 L3,3 L9,1 L9,11 L-6,11 L-5,4 Z " fill="#606C76" transform="translate(96,73)"/>
<path d="M0,0 L1,0 L1,5 L5,6 L7,10 L7,17 L10,15 L14,15 L19,20 L19,22 L12,21 L12,19 L5,22 L3,23 L1,22 L1,16 L4,15 L4,10 L0,9 L-1,8 L-1,1 Z M6,17 Z M11,21 Z " fill="#4D575F" transform="translate(31,28)"/>
<path d="M0,0 L13,0 L14,8 L-2,8 L-2,1 Z " fill="#09141A" transform="translate(107,76)"/>
<path d="M0,0 L6,1 L13,5 L15,7 L15,10 L12,11 L4,11 L-1,10 Z " fill="#202E37" transform="translate(102,9)"/>
<path d="M0,0 L10,0 L12,4 L7,6 L6,10 L4,13 L0,14 Z " fill="#273139" transform="translate(0,11)"/>
<path d="M0,0 L7,1 L9,6 L9,14 L7,18 L6,16 L4,16 L4,18 L-4,19 L-5,15 L1,12 L2,11 L7,11 L7,3 L4,4 Z " fill="#4F5A60" transform="translate(36,7)"/>
<path d="M0,0 L2,0 L2,14 L-7,14 L-6,7 L-2,1 Z " fill="#132129" transform="translate(148,33)"/>
<path d="M0,0 L1,0 L1,5 L-4,8 L-7,14 L-8,19 L1,19 L1,21 L-12,21 L-13,16 L-10,13 L-8,7 L-6,7 L-4,3 Z " fill="#2D3841" transform="translate(149,28)"/>
<path d="M0,0 L5,0 L0,4 L-6,4 L-3,8 L-16,8 L-21,6 L-21,8 L-23,8 L-24,6 L-36,5 L-36,4 L-13,4 L-12,3 L-2,2 Z " fill="#3C474B" transform="translate(36,53)"/>
<path d="M0,0 L11,0 L17,3 L18,9 L9,9 L8,8 L8,1 L0,1 Z " fill="#323C44" transform="translate(112,75)"/>
<path d="M0,0 L17,1 L17,3 L11,2 L9,8 L1,6 Z " fill="#46555E" transform="translate(90,7)"/>
<path d="M0,0 L5,1 L5,3 L7,4 L4,9 L-2,9 L-3,4 Z " fill="#293339" transform="translate(27,47)"/>
<path d="M0,0 L3,1 L3,8 L6,8 L4,12 L-1,9 L-3,5 L-5,5 L-5,3 L-1,3 Z " fill="#4A555D" transform="translate(23,31)"/>
<path d="M0,0 L2,0 L2,3 L-1,3 L-3,9 L-5,11 L-19,11 L-19,9 L-6,9 L-5,4 L-6,2 Z " fill="#2D3838" transform="translate(19,46)"/>
<path d="M0,0 L1,0 L1,5 L-14,5 L-14,2 L-8,1 L-1,1 Z " fill="#49545E" transform="translate(104,79)"/>
<path d="M0,0 L11,0 L10,5 L0,5 Z " fill="#333D47" transform="translate(0,0)"/>
<path d="M0,0 L4,0 L5,12 L0,13 Z " fill="#4E5863" transform="translate(11,0)"/>
<path d="M0,0 L5,0 L6,3 L11,4 L9,6 L2,4 L0,9 L-1,9 L-1,1 Z " fill="#4B5963" transform="translate(91,38)"/>
<path d="M0,0 L5,0 L4,13 L2,12 L2,7 L0,7 Z " fill="#6D7983" transform="translate(43,0)"/>
<path d="M0,0 L5,0 L5,2 L7,2 L7,4 L5,4 L4,6 L1,5 L1,7 L-2,7 L-1,2 Z " fill="#4D5760" transform="translate(29,0)"/>
<path d="M0,0 L1,0 L1,5 L10,5 L10,7 L-3,7 L-3,3 L-1,3 Z " fill="#1F2D37" transform="translate(140,42)"/>
<path d="M0,0 L7,2 L7,3 L-6,4 L-12,8 L-11,5 L-9,5 L-9,3 L-7,2 L0,2 Z M-14,8 L-12,9 L-15,11 Z " fill="#56606C" transform="translate(15,59)"/>
<path d="M0,0 L1,4 L-2,6 L-14,7 L-16,8 L-21,6 L-19,5 L-3,5 L-3,3 L0,3 Z " fill="#42525B" transform="translate(117,16)"/>
<path d="M0,0 L5,0 L6,10 L1,5 L-1,1 Z " fill="#727E87" transform="translate(98,63)"/>
<path d="M0,0 L7,1 L8,2 L8,12 L1,13 L2,11 L7,11 L7,3 L4,4 Z " fill="#455058" transform="translate(36,7)"/>
<path d="M0,0 L7,2 L9,5 L5,6 L0,4 Z " fill="#14232B" transform="translate(103,9)"/>
<path d="M0,0 L1,0 L1,8 L0,10 L5,10 L5,11 L-2,11 L-2,4 Z " fill="#2E3D46" transform="translate(101,9)"/>
<path d="M0,0 L7,0 L7,3 L5,3 L5,1 L-2,4 L-4,5 L-6,4 L-6,2 Z M4,3 Z " fill="#3B464E" transform="translate(38,46)"/>
<path d="M0,0 L1,0 L1,5 L-2,7 L-8,7 L-6,5 L-3,5 L-3,2 Z " fill="#59656F" transform="translate(104,74)"/>
<path d="M0,0 L2,1 L2,4 L8,3 L6,7 L0,6 L-1,3 Z " fill="#46575E" transform="translate(48,56)"/>
<path d="M0,0 L6,0 L8,4 L6,5 L2,3 L2,1 Z " fill="#2E3943" transform="translate(112,62)"/>
<path d="M0,0 L10,0 L10,3 L0,2 Z " fill="#2E3842" transform="translate(0,11)"/>
<path d="M0,0 L1,4 L1,6 L-4,7 L-3,2 L0,2 Z " fill="#444E57" transform="translate(15,6)"/>
<path d="M0,0 L2,0 L3,7 L1,11 L0,11 Z " fill="#404A55" transform="translate(105,62)"/>
<path d="M0,0 L3,1 L3,4 L1,4 L1,6 L-3,6 L-1,2 Z " fill="#3F494E" transform="translate(18,41)"/>
<path d="M0,0 L3,0 L3,5 L-1,6 L-1,1 Z " fill="#202A30" transform="translate(27,47)"/>
<path d="M0,0 L1,0 L1,5 L-5,8 L-3,2 Z " fill="#27363E" transform="translate(149,28)"/>
<path d="M0,0 L4,0 L4,2 L6,2 L6,4 L0,4 Z " fill="#47515C" transform="translate(0,80)"/>
<path d="M0,0 L4,0 L7,4 L-2,3 L-2,1 Z " fill="#454F55" transform="translate(26,57)"/>
<path d="M0,0 L4,1 L4,3 L0,4 L-1,8 L-2,8 L-1,1 Z " fill="#45515B" transform="translate(92,39)"/>
<path d="M0,0 L7,0 L6,2 L-2,3 L-2,1 Z " fill="#6B757D" transform="translate(36,26)"/>
<path d="M0,0 L3,2 L2,9 L0,10 Z " fill="#606B76" transform="translate(45,12)"/>
<path d="M0,0 L2,0 L2,3 L-5,4 L-6,2 Z " fill="#162127" transform="translate(19,46)"/>
<path d="M0,0 L6,1 L7,4 L2,3 L-2,1 Z " fill="#424D56" transform="translate(121,73)"/>
<path d="M0,0 L2,1 L2,3 L4,4 L-2,5 L-1,1 Z " fill="#364048" transform="translate(107,72)"/>
<path d="M0,0 L7,2 L7,3 L-2,3 L0,2 Z " fill="#515B63" transform="translate(15,59)"/>
<path d="M0,0 L2,0 L2,6 L-1,5 Z " fill="#061117" transform="translate(148,33)"/>
<path d="M0,0 L3,0 L2,4 L-1,5 Z " fill="#4E5E67" transform="translate(102,28)"/>
<path d="M0,0 L4,1 L4,5 L0,4 Z " fill="#3C464E" transform="translate(26,27)"/>
<path d="M0,0 L4,2 L0,6 L-2,6 L-1,2 Z " fill="#4A5A63" transform="translate(96,14)"/>
<path d="M0,0 L5,0 L3,1 L2,6 L0,2 Z " fill="#5E6970" transform="translate(31,26)"/>
<path d="M0,0 L7,1 L4,3 L0,3 Z " fill="#607278" transform="translate(43,61)"/>
<path d="M0,0 L2,0 L3,6 L0,6 Z " fill="#62747C" transform="translate(88,7)"/>
<path d="M0,0 L5,1 L5,3 L0,3 Z " fill="#2E3D46" transform="translate(92,8)"/>
<path d="M0,0 L0,3 L-2,7 L-4,6 L-4,4 L-2,4 Z " fill="#33424B" transform="translate(145,31)"/>
<path d="M0,0 Z M-2,1 L0,2 L-3,5 L-5,5 L-5,2 Z " fill="#465056" transform="translate(36,20)"/>
<path d="M0,0 L2,3 L1,8 L-1,8 L-1,2 Z " fill="#465059" transform="translate(18,15)"/>
<path d="M0,0 L3,1 L3,4 L0,4 Z " fill="#485258" transform="translate(18,41)"/>
<path d="M0,0 L3,4 L1,6 L-1,4 Z " fill="#3E484D" transform="translate(19,36)"/>
<path d="M0,0 L2,1 L1,5 L-1,5 Z " fill="#424E55" transform="translate(48,56)"/>
<path d="M0,0 L3,0 L3,3 L0,4 Z " fill="#131E24" transform="translate(27,49)"/>
<path d="M0,0 L4,1 L4,3 L0,3 Z " fill="#555F68" transform="translate(32,33)"/>
<path d="M0,0 L3,1 L1,5 L1,2 L-1,1 Z " fill="#4E5E67" transform="translate(117,14)"/>
<path d="M0,0 L3,1 L3,3 L-1,2 Z " fill="#555F68" transform="translate(30,1)"/>
</svg>
