<?xml version="1.0" encoding="UTF-8"?>
<!-- Generator: visioncortex VTracer 0.6.5 -->
<svg version="1.1" xmlns="http://www.w3.org/2000/svg" width="150" height="84">
<path d="M0,0 L150,0 L150,84 L0,84 Z " fill="#4E5B62" transform="translate(0,0)"/>
<path d="M0,0 L8,0 L15,2 L16,1 L21,1 L29,4 L38,5 L38,23 L-112,23 L-112,14 L-111,12 L-101,10 L-95,6 L-88,5 L-84,2 L-80,1 L-20,1 L-16,4 L-9,5 L-7,1 Z " fill="#69767D" transform="translate(112,61)"/>
<path d="M0,0 L46,0 L46,64 L38,64 L29,61 L29,59 L23,59 L27,58 L27,56 L22,56 L23,54 L29,54 L28,49 L24,48 L23,43 L27,41 L28,38 L24,38 L25,34 L27,31 L25,31 L25,27 L22,26 L22,28 L18,26 L17,25 L10,24 L10,22 L3,20 L4,17 L10,17 L10,15 L1,15 L0,11 L-1,2 Z M-1,14 Z " fill="#49545C" transform="translate(104,0)"/>
<path d="M0,0 L6,0 L11,5 L19,8 L19,10 L24,12 L28,16 L28,21 L22,21 L22,19 L6,18 L6,16 L-1,16 L-2,13 L-2,1 Z " fill="#152129" transform="translate(77,11)"/>
<path d="M0,0 L2,0 L3,5 L15,5 L15,7 L8,10 L1,10 L0,7 L-6,7 L-6,10 L0,10 L0,13 L-5,15 L-6,16 L-15,16 L-15,1 Z " fill="#17202A" transform="translate(15,55)"/>
<path d="M0,0 L17,0 L15,5 L13,9 L2,11 L1,10 L-6,9 L-6,7 L-13,5 L-12,2 Z " fill="#19232B" transform="translate(120,15)"/>
<path d="M0,0 L1,0 L1,16 L-7,16 L-12,15 L-14,12 L-13,3 L-9,2 L-3,2 Z " fill="#202B33" transform="translate(149,48)"/>
<path d="M0,0 L17,0 L17,3 L19,3 L18,7 L17,8 L10,9 L7,11 L0,11 L0,9 L-2,9 L-2,2 Z " fill="#29353D" transform="translate(60,43)"/>
<path d="M0,0 L7,0 L7,6 L9,6 L10,3 L11,5 L18,6 L16,10 L15,12 L10,12 L9,13 L2,13 L0,7 Z " fill="#58666D" transform="translate(51,13)"/>
<path d="M0,0 L6,1 L36,2 L44,2 L44,3 L37,3 L36,7 L34,8 L27,6 L24,4 L-37,4 L-37,2 L-1,1 Z " fill="#5B6A71" transform="translate(68,59)"/>
<path d="M0,0 L12,0 L13,3 L9,9 L4,11 L2,10 L2,8 L-2,6 L-1,1 Z " fill="#38474E" transform="translate(33,43)"/>
<path d="M0,0 L6,3 L8,1 L14,0 L23,1 L23,2 L14,2 L14,7 L19,7 L20,11 L12,11 L5,7 L5,5 L1,4 Z " fill="#646F76" transform="translate(91,14)"/>
<path d="M0,0 L4,0 L5,4 L5,21 L3,19 L3,13 L-5,14 L-6,11 L-4,6 L-2,5 Z " fill="#45535A" transform="translate(12,0)"/>
<path d="M0,0 L2,0 L3,5 L15,5 L15,7 L8,10 L1,10 L0,7 L-6,7 L-6,10 L0,10 L0,13 L-3,13 L-3,11 L-9,11 L-8,6 L0,6 Z " fill="#37414B" transform="translate(15,55)"/>
<path d="M0,0 L2,0 L2,9 L-7,9 L-11,8 L-11,2 L-2,2 Z " fill="#040C14" transform="translate(148,52)"/>
<path d="M0,0 L7,0 L16,2 L15,6 L10,7 L0,7 Z " fill="#6E7A81" transform="translate(113,0)"/>
<path d="M0,0 L11,0 L10,2 L-4,3 L-5,6 L1,5 L1,9 L-6,9 L-6,7 L-13,5 L-12,2 Z " fill="#2C3840" transform="translate(120,15)"/>
<path d="M0,0 L4,1 L1,4 L2,7 L7,7 L8,6 L18,6 L17,8 L10,9 L7,11 L0,11 L0,9 L-2,9 L-2,2 Z " fill="#38444C" transform="translate(60,43)"/>
<path d="M0,0 L8,0 L8,9 L3,8 L-1,6 Z " fill="#303B43" transform="translate(142,20)"/>
<path d="M0,0 L20,0 L20,1 L13,1 L12,5 L10,6 L3,4 L0,2 Z " fill="#57636B" transform="translate(92,61)"/>
<path d="M0,0 L2,0 L2,2 L6,2 L6,4 L10,6 L12,9 L8,7 L7,6 L-3,6 L-4,10 L-6,3 Z " fill="#626F76" transform="translate(78,6)"/>
<path d="M0,0 L10,0 L9,5 L0,6 Z " fill="#2A373F" transform="translate(33,45)"/>
<path d="M0,0 L1,2 L0,11 L1,13 L-3,12 L-3,10 L-9,10 L-5,9 L-5,7 L-10,7 L-9,5 L-3,5 L-3,1 Z " fill="#333D46" transform="translate(136,49)"/>
<path d="M0,0 L8,1 L9,5 L3,5 L1,9 L-5,9 L-5,7 L1,7 Z " fill="#3E4951" transform="translate(104,25)"/>
<path d="M0,0 L4,2 L3,3 L10,4 L9,6 L-3,5 L-8,6 L-12,4 L-5,2 Z " fill="#47525A" transform="translate(73,32)"/>
<path d="M0,0 L5,5 L4,6 L-3,6 L-6,4 L-5,1 Z " fill="#5A656D" transform="translate(120,24)"/>
<path d="M0,0 L7,0 L7,2 L21,2 L23,3 L23,5 L15,5 L15,3 L5,3 L5,1 L0,1 Z " fill="#354048" transform="translate(76,27)"/>
<path d="M0,0 L2,0 L1,5 L-3,10 L-10,11 L-11,13 L-14,12 L-11,9 L-4,9 L-3,5 Z " fill="#38424B" transform="translate(137,15)"/>
<path d="M0,0 L10,1 L12,5 L7,6 L3,4 L3,1 Z " fill="#58636A" transform="translate(93,33)"/>
<path d="M0,0 L2,1 L1,3 L3,4 L3,6 L-8,5 L-8,3 L-10,2 L-2,1 Z " fill="#414D55" transform="translate(99,56)"/>
<path d="M0,0 L7,0 L7,5 L0,5 Z " fill="#1E2831" transform="translate(8,8)"/>
<path d="M0,0 L4,1 L1,4 L2,7 L6,9 L-2,9 L-2,2 Z " fill="#313E45" transform="translate(60,43)"/>
<path d="M0,0 L1,2 L3,3 L2,6 L-6,6 L-2,1 Z " fill="#606C73" transform="translate(26,78)"/>
<path d="M0,0 L1,4 L-4,7 L-9,6 L-5,2 Z " fill="#131D25" transform="translate(149,48)"/>
<path d="M0,0 L6,0 L6,2 L9,3 L9,4 L0,5 Z " fill="#202A34" transform="translate(0,43)"/>
<path d="M0,0 L3,0 L3,3 L5,5 L4,6 L-2,6 L-1,1 Z M1,3 Z " fill="#3E4C53" transform="translate(45,54)"/>
<path d="M0,0 L5,0 L6,4 L-2,4 Z " fill="#202D34" transform="translate(71,44)"/>
<path d="M0,0 L11,2 L10,6 L8,7 L7,4 L0,2 Z " fill="#616C73" transform="translate(118,0)"/>
<path d="M0,0 L15,0 L16,3 L8,2 L6,3 L0,1 Z " fill="#59646B" transform="translate(120,61)"/>
<path d="M0,0 L6,0 L6,4 L0,4 Z " fill="#141E26" transform="translate(144,22)"/>
<path d="M0,0 L6,1 L6,3 L-1,3 L0,9 L-2,9 L-3,6 L-1,1 Z " fill="#2F3A43" transform="translate(9,5)"/>
<path d="M0,0 L4,1 L4,4 L-3,4 L-3,2 Z " fill="#727E86" transform="translate(60,80)"/>
<path d="M0,0 L4,1 L3,3 L1,3 L1,6 L-2,6 L-3,1 Z " fill="#353F48" transform="translate(130,42)"/>
<path d="M0,0 L1,2 L8,3 L7,6 L6,4 L0,4 Z M5,6 Z " fill="#6A787F" transform="translate(61,16)"/>
<path d="M0,0 L7,0 L7,3 L0,3 Z " fill="#6C767E" transform="translate(51,13)"/>
<path d="M0,0 L6,1 L5,3 L-4,3 L-4,1 Z " fill="#505B62" transform="translate(124,12)"/>
<path d="M0,0 L1,3 L9,3 L9,6 L6,6 L6,4 L0,4 Z " fill="#29333D" transform="translate(6,62)"/>
<path d="M0,0 L6,0 L6,3 L0,3 Z " fill="#4E5761" transform="translate(9,62)"/>
<path d="M0,0 L6,0 L6,3 L0,3 Z " fill="#28333C" transform="translate(17,62)"/>
<path d="M0,0 L6,0 L6,2 L-1,4 Z " fill="#2F3B43" transform="translate(24,60)"/>
<path d="M0,0 L6,1 L6,4 L1,4 Z " fill="#2C373F" transform="translate(104,26)"/>
<path d="M0,0 L5,0 L6,3 L0,3 Z " fill="#0C151E" transform="translate(8,9)"/>
<path d="M0,0 L5,1 L1,3 L-3,3 L-3,1 Z " fill="#58616B" transform="translate(24,57)"/>
<path d="M0,0 L9,0 L9,1 L3,2 L2,4 L0,4 Z " fill="#48555C" transform="translate(105,16)"/>
<path d="M0,0 L2,0 L1,5 L-2,5 L-1,1 Z " fill="#5D6971" transform="translate(56,79)"/>
<path d="M0,0 L6,0 L6,1 L1,2 L0,4 L-3,3 Z " fill="#303B44" transform="translate(126,24)"/>
<path d="M0,0 L4,1 L4,3 L-1,3 Z " fill="#606E75" transform="translate(106,81)"/>
<path d="M0,0 L1,2 L3,2 L3,4 L-2,4 Z " fill="#4A555D" transform="translate(137,80)"/>
<path d="M0,0 L4,0 L4,3 L0,3 Z " fill="#5A676E" transform="translate(92,81)"/>
<path d="M0,0 L3,0 L4,3 L-1,3 Z " fill="#111F26" transform="translate(72,45)"/>
<path d="M0,0 L4,0 L3,3 L-1,2 Z " fill="#121C24" transform="translate(133,15)"/>
<path d="M0,0 L2,0 L0,4 L-2,4 Z " fill="#37474D" transform="translate(46,54)"/>
<path d="M0,0 L2,0 L0,4 L-1,1 Z " fill="#212B33" transform="translate(137,50)"/>
</svg>
