<?xml version="1.0" encoding="UTF-8"?>
<!-- Generator: visioncortex VTracer 0.6.5 -->
<svg version="1.1" xmlns="http://www.w3.org/2000/svg" width="150" height="84">
<path d="M0,0 L150,0 L150,84 L0,84 Z " fill="#566269" transform="translate(0,0)"/>
<path d="M0,0 L2,1 Z M28,0 L32,1 L44,1 L54,0 L58,1 L58,3 L69,4 L71,10 L70,11 L59,12 L53,11 L47,15 L40,15 L40,17 L43,17 L42,20 L36,25 L33,26 L-27,26 L-27,23 L-37,23 L-37,21 L-44,20 L-48,18 L-53,13 L-53,7 L-58,7 L-57,4 L-51,2 L-42,1 L22,1 Z M37,15 L35,17 L39,17 L39,15 Z " fill="#75828A" transform="translate(78,58)"/>
<path d="M0,0 L45,0 L44,5 L42,5 L41,9 L34,12 L28,13 L27,18 L21,20 L17,23 L15,23 L16,27 L18,29 L17,30 L12,30 L9,27 L3,29 L1,36 L0,36 Z " fill="#2A343A" transform="translate(0,0)"/>
<path d="M0,0 L2,4 L8,4 L8,6 L12,7 L12,10 L9,10 L9,12 L13,11 L13,10 L25,11 L27,18 L31,22 L41,25 L41,27 L47,26 L51,27 L51,30 L0,30 Z " fill="#020C0B" transform="translate(0,54)"/>
<path d="M0,0 L6,0 L6,14 L-33,14 L-30,12 L-28,12 L-27,9 L-22,9 L-22,7 L-18,5 L-15,2 L-9,1 Z " fill="#2A353D" transform="translate(144,70)"/>
<path d="M0,0 L32,0 L32,17 L27,17 L26,22 L22,22 L22,26 L20,27 L19,19 L21,18 L22,15 L20,15 L19,13 L16,12 L15,6 L11,5 L7,4 L7,1 L0,1 Z M14,8 Z " fill="#091315" transform="translate(118,0)"/>
<path d="M0,0 L30,0 L30,4 L28,5 L22,5 L20,9 L14,9 L13,13 L10,14 L8,7 L6,7 L5,10 L0,11 Z " fill="#071214" transform="translate(0,0)"/>
<path d="M0,0 L4,2 L5,8 L8,8 L9,4 L16,2 L17,0 L21,1 L18,1 L17,5 L11,7 L12,15 L4,17 L1,17 L1,22 L-3,25 L-4,31 L-5,31 L-5,6 L0,4 L1,2 L-1,1 Z " fill="#172125" transform="translate(5,5)"/>
<path d="M0,0 L3,0 L3,2 L13,0 L17,1 L16,3 L9,3 L9,6 L15,4 L15,6 L19,6 L19,8 L28,7 L27,10 L22,12 L0,12 L1,5 L-6,4 L-5,1 Z " fill="#6B777F" transform="translate(89,72)"/>
<path d="M0,0 L2,1 Z M28,0 L32,1 L44,1 L54,0 L58,1 L58,3 L25,4 L-1,4 L-4,3 L-48,4 L-49,2 L-42,1 L22,1 Z " fill="#647178" transform="translate(78,58)"/>
<path d="M0,0 L4,2 L5,4 L15,7 L15,9 L21,8 L25,9 L25,12 L-5,12 L-5,9 L-7,9 L-7,7 L-9,7 L-9,4 L-4,4 L0,7 L5,8 L2,4 L2,2 L0,2 Z " fill="#333D40" transform="translate(26,72)"/>
<path d="M0,0 L10,0 L10,4 L6,4 L6,6 L1,6 L1,9 L-2,11 L-9,13 L-13,17 L-17,17 L-16,13 L-6,7 L-1,4 Z " fill="#1D272D" transform="translate(35,0)"/>
<path d="M0,0 L3,0 L3,4 L13,5 L13,9 L8,9 L7,14 L3,14 L3,18 L1,19 L0,11 L2,10 L3,7 L1,7 L0,5 L-3,3 Z " fill="#374148" transform="translate(137,8)"/>
<path d="M0,0 L4,2 L6,9 L7,12 L3,12 L3,10 L1,10 L-1,14 L-5,14 L-5,6 L0,4 L1,2 L-1,1 Z M6,8 Z " fill="#1B2628" transform="translate(5,5)"/>
<path d="M0,0 L13,0 L13,6 L-4,6 L-4,4 L-1,3 Z " fill="#3E4951" transform="translate(137,78)"/>
<path d="M0,0 L6,0 L5,6 L3,6 L3,8 L-16,8 L-13,6 L-7,5 L-7,7 L-3,7 L-3,2 Z " fill="#1E2931" transform="translate(127,76)"/>
<path d="M0,0 L12,1 L11,3 L4,4 L-4,5 L-6,9 L-9,9 L-9,11 L-13,10 L-10,7 L-13,7 L-14,4 L-6,4 Z M-16,5 L-14,5 L-14,7 L-18,6 Z " fill="#616C74" transform="translate(131,68)"/>
<path d="M0,0 L4,1 L0,4 L-2,4 L-1,8 L1,10 L0,11 L-5,11 L-8,8 L-11,8 L-11,3 Z M-12,8 Z " fill="#424C54" transform="translate(17,19)"/>
<path d="M0,0 L13,0 L20,1 L20,4 L25,5 L28,6 L29,11 L24,10 L21,7 L14,4 L14,2 L2,2 Z M27,8 Z " fill="#38424A" transform="translate(105,0)"/>
<path d="M0,0 L6,0 L7,9 L9,9 L12,13 L12,15 L5,14 L3,12 L-2,11 L-2,10 L3,9 L3,3 Z " fill="#071112" transform="translate(19,65)"/>
<path d="M0,0 L2,4 L8,4 L8,6 L12,7 L12,10 L9,10 L9,12 L13,11 L13,10 L19,10 L15,11 L15,14 L13,14 L13,16 L9,16 L8,8 L7,7 L0,6 Z " fill="#1B252B" transform="translate(0,54)"/>
<path d="M0,0 L9,2 L6,3 L6,8 L2,11 L1,17 L0,17 Z " fill="#141E24" transform="translate(0,19)"/>
<path d="M0,0 L4,0 L5,2 L18,2 L16,4 L13,5 L-3,5 Z " fill="#4C575F" transform="translate(98,79)"/>
<path d="M0,0 L7,1 L7,2 L2,2 L1,4 L-5,7 L-7,7 L-7,12 L-11,12 L-11,10 L-15,9 L-14,8 L-9,8 L-9,6 L-5,4 L-2,1 Z " fill="#3A454D" transform="translate(131,71)"/>
<path d="M0,0 L1,2 L-5,4 L-5,9 L-9,10 L-10,12 L-14,11 L-14,9 L-11,9 L-12,5 L-5,1 Z " fill="#394349" transform="translate(23,55)"/>
<path d="M0,0 L11,0 L15,1 L15,4 L1,4 Z " fill="#0A151D" transform="translate(36,80)"/>
<path d="M0,0 L1,0 L2,9 L-3,9 L-3,6 L-9,5 L-7,4 L-7,2 L0,2 Z " fill="#5E6971" transform="translate(54,75)"/>
<path d="M0,0 L5,0 L4,5 L-6,10 L-7,6 L0,4 Z " fill="#353F47" transform="translate(30,0)"/>
<path d="M0,0 L4,2 L5,4 L15,7 L15,8 L10,8 L11,12 L5,10 L3,8 L5,8 L2,4 L2,2 L0,2 Z " fill="#202A31" transform="translate(26,72)"/>
<path d="M0,0 L3,2 L3,6 L9,8 L11,13 L5,11 L0,6 Z " fill="#556067" transform="translate(25,65)"/>
<path d="M0,0 L2,0 L2,4 L0,4 L-2,9 L-6,9 L-6,3 Z " fill="#323C41" transform="translate(6,8)"/>
<path d="M0,0 L4,2 L-3,6 L-4,9 L-1,9 L-1,11 L-5,11 L-7,7 L-6,3 L-5,2 L0,2 Z " fill="#2C363B" transform="translate(22,8)"/>
<path d="M0,0 L9,0 L9,4 L-2,4 L-2,1 Z " fill="#4F5A62" transform="translate(141,79)"/>
<path d="M0,0 L4,0 L3,6 L1,6 L1,8 L-4,8 L-1,1 Z " fill="#030D14" transform="translate(129,76)"/>
<path d="M0,0 L4,1 L0,3 L-1,5 L-3,5 L-5,9 L-7,7 L-6,2 Z " fill="#4D585F" transform="translate(24,56)"/>
<path d="M0,0 L2,0 L2,2 L6,2 L6,4 L15,3 L14,5 L0,6 L-1,1 Z " fill="#5F6A72" transform="translate(102,76)"/>
<path d="M0,0 L3,0 L3,4 L13,5 L13,7 L8,6 L-3,4 Z " fill="#202A31" transform="translate(137,8)"/>
<path d="M0,0 L6,0 L8,2 L6,6 L4,6 L4,9 L1,9 L1,7 L3,7 L4,1 Z " fill="#152028" transform="translate(129,75)"/>
<path d="M0,0 L2,0 L2,2 L-5,2 L-6,6 L-9,7 L-9,2 Z M-10,7 Z " fill="#333D46" transform="translate(15,20)"/>
<path d="M0,0 L6,0 L3,1 L3,6 L-2,9 L-2,6 L0,6 Z " fill="#212B34" transform="translate(3,21)"/>
<path d="M0,0 L1,2 L8,2 L8,6 L3,5 L0,4 Z " fill="#030E0E" transform="translate(142,7)"/>
<path d="M0,0 L6,2 L17,3 L17,4 L4,4 L-1,3 Z " fill="#4C575F" transform="translate(127,54)"/>
<path d="M0,0 L4,0 L3,5 L-3,5 Z " fill="#556068" transform="translate(98,79)"/>
<path d="M0,0 L7,0 L7,4 L3,4 L3,2 L-1,1 Z " fill="#2C373F" transform="translate(117,79)"/>
<path d="M0,0 L6,0 L2,1 L2,4 L0,4 L0,6 L-4,6 L-4,3 L1,3 Z " fill="#111C1E" transform="translate(13,64)"/>
<path d="M0,0 L5,0 L5,4 L1,4 L0,6 Z " fill="#232D35" transform="translate(40,0)"/>
<path d="M0,0 L3,1 L3,6 L0,6 L0,3 L-4,2 L0,2 Z " fill="#4C575E" transform="translate(51,78)"/>
<path d="M0,0 L6,0 L7,7 L4,6 L2,2 Z " fill="#202A30" transform="translate(19,65)"/>
<path d="M0,0 L1,4 L1,8 L-1,9 L-2,1 Z " fill="#3C464E" transform="translate(139,18)"/>
<path d="M0,0 L1,2 L3,2 L6,6 L6,8 L1,8 L3,6 L0,4 Z " fill="#0E181D" transform="translate(25,72)"/>
<path d="M0,0 L3,0 L3,7 L0,6 Z " fill="#263038" transform="translate(141,15)"/>
<path d="M0,0 L1,2 L7,2 L6,5 L1,5 Z " fill="#02080D" transform="translate(7,15)"/>
<path d="M0,0 L5,0 L6,2 L4,2 L4,5 L2,5 L2,3 L0,3 Z " fill="#222D2F" transform="translate(17,76)"/>
<path d="M0,0 L3,2 L4,8 L0,6 Z " fill="#4F5A61" transform="translate(25,65)"/>
<path d="M0,0 L2,0 L1,4 L-5,5 L-3,1 Z " fill="#3E494E" transform="translate(26,14)"/>
<path d="M0,0 L4,0 L3,5 L0,5 Z " fill="#515C64" transform="translate(31,0)"/>
<path d="M0,0 L6,0 L8,1 L8,3 L2,3 L2,1 Z " fill="#616D74" transform="translate(61,81)"/>
<path d="M0,0 L2,1 L-2,8 L-3,8 L-3,2 Z " fill="#152028" transform="translate(127,76)"/>
<path d="M0,0 L5,0 L5,5 L1,4 Z " fill="#4C565E" transform="translate(145,57)"/>
<path d="M0,0 L3,1 L1,1 L0,5 L-4,6 L-4,3 L-1,2 Z " fill="#39434A" transform="translate(41,4)"/>
<path d="M0,0 L5,0 L4,3 L-1,3 Z " fill="#6F7A82" transform="translate(21,62)"/>
<path d="M0,0 L1,0 L1,7 L-1,8 L-2,3 Z " fill="#364048" transform="translate(149,19)"/>
<path d="M0,0 L3,0 L2,4 L-1,5 Z " fill="#3E4850" transform="translate(1,12)"/>
<path d="M0,0 L5,0 L4,3 L-2,3 L0,2 Z " fill="#556168" transform="translate(47,77)"/>
<path d="M0,0 L4,1 L2,2 L2,4 L-1,4 Z M4,0 Z " fill="#69767D" transform="translate(50,73)"/>
<path d="M0,0 L5,0 L4,3 L0,4 Z " fill="#465158" transform="translate(23,6)"/>
<path d="M0,0 L4,0 L5,3 L0,3 Z " fill="#202B2B" transform="translate(0,81)"/>
<path d="M0,0 L4,1 L3,3 L-2,2 Z " fill="#647077" transform="translate(102,72)"/>
<path d="M0,0 L3,0 L2,4 L-1,4 Z " fill="#0F1820" transform="translate(147,70)"/>
<path d="M0,0 L4,1 L2,3 L-3,3 Z " fill="#616C73" transform="translate(24,59)"/>
<path d="M0,0 L2,4 L0,4 L0,6 L-3,5 Z " fill="#0C171D" transform="translate(6,15)"/>
<path d="M0,0 L4,0 L4,3 L0,3 Z " fill="#1C262E" transform="translate(47,81)"/>
<path d="M0,0 L3,0 L3,3 L-1,3 Z " fill="#65747B" transform="translate(77,81)"/>
<path d="M0,0 L2,0 L2,2 L4,2 L4,5 L1,4 Z " fill="#0C1718" transform="translate(17,79)"/>
<path d="M0,0 L4,1 L3,3 L-1,2 Z " fill="#081217" transform="translate(30,7)"/>
<path d="M0,0 L3,0 L3,3 L-1,2 Z " fill="#505B63" transform="translate(11,23)"/>
<path d="M0,0 L3,0 L2,3 L-1,3 Z " fill="#182225" transform="translate(19,13)"/>
<path d="M0,0 L3,0 L1,4 Z " fill="#434E56" transform="translate(138,23)"/>
</svg>
