<?xml version="1.0" encoding="UTF-8"?>
<!-- Generator: visioncortex VTracer 0.6.5 -->
<svg version="1.1" xmlns="http://www.w3.org/2000/svg" width="150" height="84">
<path d="M0,0 L150,0 L150,84 L0,84 Z " fill="#5C6970" transform="translate(0,0)"/>
<path d="M0,0 L30,0 L26,4 L21,6 L16,10 L12,10 L12,12 L8,12 L6,21 L5,22 L4,37 L1,43 L0,43 Z " fill="#121D1F" transform="translate(0,0)"/>
<path d="M0,0 L9,0 L9,6 L16,6 L23,14 L23,15 L0,15 Z " fill="#0C1718" transform="translate(0,69)"/>
<path d="M0,0 L5,1 L7,7 L10,9 L6,10 L6,12 L-23,12 L-21,8 L-19,7 L-17,4 L-16,7 L-15,6 L-15,1 L-13,5 L-11,7 L-2,7 L0,1 Z " fill="#67737A" transform="translate(57,72)"/>
<path d="M0,0 L7,0 L3,4 L-2,6 L-7,10 L-11,10 L-11,12 L-15,12 L-17,21 L-18,22 L-19,37 L-22,43 L-23,43 L-23,37 L-22,36 L-21,16 L-20,11 L-17,11 L-17,9 L-10,8 L-10,6 L-7,6 L-6,3 L-1,1 Z " fill="#252E38" transform="translate(23,0)"/>
<path d="M0,0 L1,2 L12,2 L14,3 L17,9 L24,9 L27,7 L26,11 L25,13 L14,13 L7,5 L0,4 Z " fill="#525D64" transform="translate(9,71)"/>
<path d="M0,0 L4,2 L13,3 L13,17 L4,17 L5,14 L7,13 L7,5 L1,3 Z " fill="#4B565E" transform="translate(137,67)"/>
<path d="M0,0 L6,0 L6,3 L11,5 L12,7 L3,10 L0,11 Z " fill="#010807" transform="translate(0,0)"/>
<path d="M0,0 L7,0 L3,4 L-2,6 L-7,10 L-11,10 L-11,12 L-14,11 L-14,9 L-11,8 L-10,6 L-7,6 L-6,3 L-1,1 Z " fill="#3F494D" transform="translate(23,0)"/>
<path d="M0,0 L5,0 L5,6 L12,6 L19,14 L16,15 L13,10 L7,11 L5,9 L1,8 L1,6 L3,6 L3,2 Z " fill="#242E32" transform="translate(4,69)"/>
<path d="M0,0 L9,0 L12,2 L12,5 L0,5 Z " fill="#000605" transform="translate(0,79)"/>
<path d="M0,0 L6,1 L9,3 L9,5 L-3,5 L-2,1 Z " fill="#636F77" transform="translate(99,79)"/>
<path d="M0,0 L2,4 L3,6 L6,8 L2,9 L2,11 L-3,11 L-3,7 L-1,7 Z " fill="#77838B" transform="translate(61,73)"/>
<path d="M0,0 L2,1 L3,8 L-5,8 L-3,4 L-1,3 Z " fill="#6E7980" transform="translate(39,76)"/>
<path d="M0,0 L4,0 L4,7 L0,9 L-1,8 Z " fill="#2C353E" transform="translate(146,0)"/>
<path d="M0,0 L14,2 L14,4 L-12,2 L-12,1 Z " fill="#646F77" transform="translate(107,58)"/>
<path d="M0,0 L10,0 L8,3 L-2,4 Z " fill="#081213" transform="translate(13,0)"/>
<path d="M0,0 L7,0 L3,4 L-7,6 L-6,3 L-1,1 Z " fill="#263035" transform="translate(23,0)"/>
<path d="M0,0 L10,0 L10,2 L2,3 L1,8 L-1,6 L-1,1 Z " fill="#78838A" transform="translate(81,16)"/>
<path d="M0,0 L3,0 L3,4 L-6,4 L-5,1 Z " fill="#37424A" transform="translate(147,80)"/>
<path d="M0,0 L6,0 L13,8 L10,9 L6,3 L0,2 Z " fill="#2F393E" transform="translate(10,75)"/>
<path d="M0,0 L3,1 L-4,4 L-9,4 L-12,6 L-12,3 L-8,1 L-2,1 Z " fill="#3C454F" transform="translate(12,54)"/>
<path d="M0,0 L5,0 L5,3 L9,3 L9,8 L8,5 L1,4 Z " fill="#647078" transform="translate(15,69)"/>
<path d="M0,0 L6,1 L5,3 L-1,2 Z M-2,2 L0,6 L-5,6 L-4,3 Z " fill="#6F7A82" transform="translate(9,63)"/>
<path d="M0,0 L1,3 L-1,9 L-5,15 L-6,12 L-3,7 L-1,7 Z " fill="#4B565E" transform="translate(145,0)"/>
<path d="M0,0 L3,1 L4,6 L-2,7 Z " fill="#414C54" transform="translate(146,74)"/>
<path d="M0,0 L1,0 L1,15 L-2,19 L-2,13 L-1,12 Z " fill="#1F2832" transform="translate(2,24)"/>
<path d="M0,0 L1,0 L1,5 L-6,5 L-4,1 L0,2 Z " fill="#434E56" transform="translate(149,56)"/>
<path d="M0,0 L6,0 L5,4 L0,3 Z " fill="#455058" transform="translate(83,19)"/>
<path d="M0,0 L3,0 L3,2 L0,4 L-6,4 L-3,1 Z " fill="#6D7A81" transform="translate(77,80)"/>
<path d="M0,0 L6,1 L6,2 L1,3 L0,5 L-3,5 L-2,1 Z " fill="#707D84" transform="translate(99,79)"/>
<path d="M0,0 L4,1 L3,8 L2,6 L-1,7 Z " fill="#6B767E" transform="translate(57,72)"/>
<path d="M0,0 L7,0 L9,3 L2,3 L2,1 Z " fill="#68747B" transform="translate(61,81)"/>
<path d="M0,0 L2,0 L3,5 L-2,5 Z " fill="#6A7980" transform="translate(92,79)"/>
<path d="M0,0 L6,0 L6,3 L0,3 Z " fill="#010909" transform="translate(0,71)"/>
<path d="M0,0 L4,1 L4,3 L-3,3 L-3,1 Z " fill="#5F6B72" transform="translate(46,81)"/>
<path d="M0,0 L9,1 L9,2 L2,3 L-2,1 Z " fill="#627076" transform="translate(18,60)"/>
<path d="M0,0 L5,0 L1,4 L-3,3 L-1,3 Z " fill="#404B51" transform="translate(25,0)"/>
<path d="M0,0 L5,0 L4,4 L0,4 Z " fill="#4C575D" transform="translate(0,65)"/>
<path d="M0,0 L3,0 L3,2 L5,3 L0,4 Z " fill="#363F49" transform="translate(11,18)"/>
<path d="M0,0 L4,1 L4,4 L0,4 Z " fill="#4A555D" transform="translate(131,80)"/>
<path d="M0,0 L3,0 L3,4 L-2,4 L0,3 Z " fill="#182329" transform="translate(147,80)"/>
<path d="M0,0 L5,1 L1,3 L-3,1 Z " fill="#737F86" transform="translate(68,72)"/>
<path d="M0,0 L3,0 L3,2 L5,3 L-2,3 L0,2 Z " fill="#4A555D" transform="translate(130,54)"/>
<path d="M0,0 L3,1 L3,3 L-2,3 Z " fill="#020C0C" transform="translate(17,81)"/>
<path d="M0,0 L4,1 L1,3 L-2,2 Z " fill="#152023" transform="translate(14,78)"/>
<path d="M0,0 L2,1 L-1,4 L-3,4 L-3,1 Z " fill="#465055" transform="translate(20,4)"/>
<path d="M0,0 L5,1 L5,3 L2,3 L2,1 Z " fill="#616D74" transform="translate(61,81)"/>
</svg>
