<?xml version="1.0" encoding="UTF-8"?>
<!-- Generator: visioncortex VTracer 0.6.5 -->
<svg version="1.1" xmlns="http://www.w3.org/2000/svg" width="150" height="84">
<path d="M0,0 L150,0 L150,84 L0,84 Z " fill="#071010" transform="translate(0,0)"/>
<path d="M0,0 L16,0 L20,2 L29,2 L29,5 L48,7 L53,10 L57,11 L58,15 L63,16 L65,23 L68,24 L70,30 L71,37 L74,38 L76,41 L75,46 L72,49 L70,49 L70,51 L67,53 L60,55 L56,59 L64,59 L72,57 L72,59 L70,59 L70,62 L65,65 L54,68 L48,68 L47,63 L52,62 L51,60 L46,61 L39,64 L29,66 L25,68 L4,68 L4,66 L-3,65 L-16,63 L-25,57 L-32,53 L-29,58 L-27,59 L-27,62 L-22,63 L-22,65 L-28,65 L-28,61 L-31,60 L-34,55 L-38,54 L-38,52 L-35,52 L-36,47 L-44,43 L-45,37 L-43,37 L-44,30 L-40,29 L-39,35 L-34,33 L-33,31 L-38,30 L-38,28 L-40,28 L-40,24 L-33,22 L-30,19 L-24,16 L-19,11 L-17,11 L-17,9 L-12,4 L-9,3 L-2,3 L-2,1 Z " fill="#566269" transform="translate(65,9)"/>
<path d="M0,0 L45,0 L45,61 L40,62 L40,64 L35,69 L30,71 L30,68 L32,68 L32,66 L27,68 L24,68 L23,70 L23,68 L16,68 L18,64 L21,62 L30,60 L30,58 L35,54 L34,47 L30,46 L29,39 L28,35 L28,33 L24,32 L23,26 L18,24 L17,20 L10,19 L8,17 L-9,15 L-11,14 L-11,11 L-20,12 L-24,10 L-42,10 L-42,12 L-52,13 L-54,17 L-57,18 L-57,20 L-67,28 L-72,29 L-74,33 L-80,33 L-80,37 L-78,37 L-77,39 L-73,40 L-74,43 L-79,44 L-80,38 L-83,40 L-83,46 L-87,45 L-87,43 L-89,43 L-89,40 L-87,40 L-87,34 L-83,34 L-82,31 L-75,31 L-76,28 L-84,28 L-86,31 L-93,34 L-97,35 L-97,29 L-94,28 L-94,26 L-90,26 L-90,24 L-84,20 L-75,18 L-74,15 L-79,15 L-79,18 L-81,18 L-80,11 L-73,10 L-73,8 L-64,5 L-56,5 L-57,9 L-62,10 L-63,12 L-56,12 L-55,9 L-42,9 L-42,7 L-23,7 L-19,9 L-19,11 L-13,10 L-13,8 L-3,7 L-3,5 L-5,4 L0,4 Z " fill="#061014" transform="translate(105,0)"/>
<path d="M0,0 L8,0 L7,4 L2,5 L1,7 L8,7 L9,4 L22,4 L22,2 L41,2 L45,4 L45,6 L51,5 L51,3 L64,3 L67,8 L79,9 L81,10 L83,14 L86,16 L86,19 L88,19 L87,21 L82,19 L81,15 L74,14 L72,12 L55,10 L53,9 L53,6 L44,7 L40,5 L22,5 L22,7 L12,8 L10,12 L7,13 L7,15 L-3,23 L-8,24 L-10,28 L-16,28 L-16,32 L-14,32 L-13,34 L-9,35 L-10,38 L-15,39 L-16,33 L-19,35 L-19,41 L-23,40 L-23,38 L-25,38 L-25,35 L-23,35 L-23,29 L-19,29 L-18,26 L-11,26 L-12,23 L-20,23 L-22,26 L-29,29 L-33,30 L-33,24 L-30,23 L-30,21 L-26,21 L-26,19 L-20,15 L-11,13 L-10,10 L-15,10 L-15,13 L-17,13 L-16,6 L-9,5 L-9,3 Z M68,6 Z M67,7 Z " fill="#343E45" transform="translate(41,5)"/>
<path d="M0,0 L59,0 L61,1 L73,2 L72,7 L63,9 L61,13 L51,15 L47,17 L26,17 L26,15 L19,14 L6,12 L-1,7 L-3,1 Z " fill="#77858C" transform="translate(43,60)"/>
<path d="M0,0 L1,0 L1,23 L-53,23 L-54,17 L-52,15 L-44,16 L-44,13 L-38,11 L-37,16 L-25,16 L-25,14 L-10,8 L-6,3 L-4,3 L-4,1 Z " fill="#040D12" transform="translate(149,61)"/>
<path d="M0,0 L3,0 L3,9 L18,9 L18,38 L13,39 L13,41 L8,46 L3,48 L3,45 L5,45 L5,43 L0,45 L-3,45 L-4,47 L-4,45 L-11,45 L-9,41 L-6,39 L3,37 L3,35 L8,31 L7,24 L3,23 L2,16 L1,12 L1,10 L-2,9 L0,8 L-1,2 Z M2,9 L3,11 Z " fill="#141E26" transform="translate(132,23)"/>
<path d="M0,0 L4,2 L12,6 L16,9 L29,11 L36,13 L36,15 L57,14 L64,11 L71,10 L79,6 L84,7 L84,9 L79,10 L80,14 L91,14 L87,16 L79,16 L77,11 L72,12 L72,15 L64,15 L63,17 L63,22 L27,22 L27,18 L17,16 L10,12 L10,10 L5,9 L5,6 L1,4 Z " fill="#1E2930" transform="translate(33,62)"/>
<path d="M0,0 L2,2 L4,0 L4,4 L10,6 L11,8 L10,11 L7,11 L7,13 L12,14 L15,19 L17,20 L17,24 L24,24 L33,28 L40,30 L40,34 L12,34 L12,32 L6,30 L4,27 L-1,25 L-9,23 L-12,21 L-12,18 L-7,18 L-6,13 L-3,13 L-3,15 L0,15 L0,18 L-2,18 L-1,20 L3,21 L3,23 L8,22 L7,16 L3,14 L4,10 L5,9 L4,7 L1,7 L-1,1 Z " fill="#071116" transform="translate(20,50)"/>
<path d="M0,0 L2,0 L2,3 L15,1 L17,3 L16,5 L15,10 L12,15 L9,15 L9,17 L5,20 L4,17 L-4,17 L-6,20 L-13,23 L-17,24 L-17,18 L-14,17 L-14,15 L-10,15 L-10,13 L-4,9 L5,7 L6,4 L1,4 L1,7 L-1,7 Z " fill="#242E33" transform="translate(25,11)"/>
<path d="M0,0 L5,0 L3,4 L11,4 L19,2 L19,4 L17,4 L17,7 L12,10 L1,13 L-5,13 L-6,8 L-1,7 L-2,5 L-7,6 L-14,8 L-12,4 L-10,3 L-3,3 L-3,1 Z " fill="#333E45" transform="translate(118,64)"/>
<path d="M0,0 L21,1 L65,1 L80,2 L82,1 L88,1 L86,5 L80,7 L78,7 L78,4 L66,4 L64,3 L2,3 L4,8 L-2,6 L-4,2 Z " fill="#626F76" transform="translate(38,58)"/>
<path d="M0,0 L5,1 L5,3 L0,4 L1,8 L12,8 L8,10 L0,10 L-2,5 L-7,6 L-7,9 L-15,9 L-16,11 L-16,16 L-26,16 L-26,11 L-36,10 L-36,9 L-22,8 L-15,5 L-8,4 Z " fill="#212C34" transform="translate(112,68)"/>
<path d="M0,0 L1,0 L1,6 L5,6 L5,11 L-2,17 L-12,18 L-13,20 L-13,18 L-20,18 L-18,14 L-15,12 L-6,10 L-6,8 L-1,4 Z " fill="#2A353C" transform="translate(141,50)"/>
<path d="M0,0 L8,0 L9,3 L7,6 L7,4 L4,6 L0,6 L-2,11 L-9,14 L-13,15 L-13,9 L-10,8 L-10,6 L-6,6 L-6,4 Z " fill="#2B3639" transform="translate(21,20)"/>
<path d="M0,0 L10,0 L25,2 L27,3 L27,8 L18,8 L18,6 L2,4 L3,1 Z " fill="#0E1921" transform="translate(59,76)"/>
<path d="M0,0 L3,0 L3,2 L6,2 L6,5 L4,5 L5,7 L9,8 L9,10 L17,12 L17,14 L7,13 L-3,10 L-6,8 L-6,5 L-1,5 Z " fill="#1B2628" transform="translate(14,63)"/>
<path d="M0,0 L8,0 L9,4 L2,5 L1,7 L-3,7 L-3,13 L-5,13 L-5,16 L-3,16 L-3,18 L-6,18 L-6,8 L-13,11 L-14,10 L-14,3 L-13,3 L-13,8 L-5,4 L-2,3 Z " fill="#192328" transform="translate(21,27)"/>
<path d="M0,0 L16,0 L18,4 L8,5 L1,4 L0,5 L-9,6 L-17,13 L-18,11 L-12,4 L-9,3 L-2,3 L-2,1 Z " fill="#646F76" transform="translate(65,9)"/>
<path d="M0,0 L9,0 L9,1 L0,3 L-2,7 L-12,9 L-16,11 L-37,11 L-37,9 L-44,8 L-48,6 L-45,5 L-36,8 L-36,10 L-22,10 L-21,7 L-15,5 L-4,6 L-3,2 Z " fill="#6C777F" transform="translate(106,66)"/>
<path d="M0,0 L7,0 L11,2 L1,2 Z M-7,1 L-1,1 L4,3 L4,5 L19,8 L19,10 L2,10 L2,6 L-5,5 Z " fill="#202A32" transform="translate(58,74)"/>
<path d="M0,0 L2,2 L4,0 L4,4 L10,6 L11,8 L10,11 L7,11 L7,13 L12,14 L13,17 L8,17 L3,14 L4,10 L5,9 L4,7 L1,7 L-1,1 Z " fill="#222C31" transform="translate(20,50)"/>
<path d="M0,0 L5,1 L19,2 L18,5 L-4,6 L-8,9 L-6,5 Z " fill="#4D5960" transform="translate(71,34)"/>
<path d="M0,0 L2,3 L14,4 L16,5 L18,9 L21,11 L21,14 L23,14 L22,16 L17,14 L16,10 L12,10 L12,6 L-1,5 L-2,1 Z M3,1 Z M2,2 Z " fill="#303B43" transform="translate(106,10)"/>
<path d="M0,0 L1,0 L2,6 L-6,8 L-11,8 L-11,12 L-14,12 L-15,6 L-13,4 L-5,5 L-5,2 Z " fill="#0F1A22" transform="translate(110,72)"/>
<path d="M0,0 L0,3 L-2,7 L-15,8 L-15,5 L-10,4 L-10,2 Z " fill="#333E45" transform="translate(42,6)"/>
<path d="M0,0 L2,3 L5,4 L5,8 L-4,8 L-4,3 L-14,2 L-14,1 Z " fill="#323C44" transform="translate(90,76)"/>
<path d="M0,0 L6,0 L4,4 L-2,6 L-4,6 L-4,3 L-16,3 L-18,1 L-2,1 Z " fill="#6B757D" transform="translate(120,59)"/>
<path d="M0,0 L19,0 L23,2 L23,4 L29,3 L28,5 L22,5 L18,3 L2,3 L0,4 L-6,4 L-6,2 L0,2 Z " fill="#2D383F" transform="translate(63,7)"/>
<path d="M0,0 L10,0 L10,3 L0,6 L-5,6 L-3,2 Z " fill="#242E36" transform="translate(126,62)"/>
<path d="M0,0 L2,0 L2,2 L0,2 L0,5 L-3,7 L-8,7 L-10,7 L-13,7 L-12,3 Z " fill="#5C666E" transform="translate(135,66)"/>
<path d="M0,0 L2,1 L3,8 L7,11 L7,14 L12,15 L12,17 L6,17 L6,13 L3,12 L0,7 L-4,6 L-4,4 L-1,4 Z " fill="#404A50" transform="translate(31,57)"/>
<path d="M0,0 L4,0 L4,3 L2,3 L1,7 L-2,10 L-12,11 L-13,13 L-13,11 L-15,10 L-5,7 L-2,4 Z " fill="#3D474F" transform="translate(141,57)"/>
<path d="M0,0 L1,0 L1,6 L0,9 L0,14 L-4,13 L-4,11 L-6,11 L-6,8 L-4,8 L-4,2 L0,2 Z " fill="#29333C" transform="translate(22,32)"/>
<path d="M0,0 L6,1 L12,3 L12,5 L30,4 L33,2 L39,2 L36,4 L32,6 L11,6 L11,4 L4,3 L0,1 Z " fill="#5A656C" transform="translate(58,71)"/>
<path d="M0,0 L7,0 L8,5 L7,6 L2,6 L2,4 L-3,3 L-3,1 Z " fill="#000606" transform="translate(21,67)"/>
<path d="M0,0 L1,2 L0,7 L2,7 L2,4 L7,4 L6,8 L-4,10 L-5,7 L-2,6 L-1,1 Z " fill="#15201F" transform="translate(24,11)"/>
<path d="M0,0 L7,0 L7,2 L15,4 L15,6 L5,5 L0,2 Z " fill="#263132" transform="translate(16,71)"/>
<path d="M0,0 L8,0 L9,4 L0,4 L0,6 L-4,5 Z " fill="#091217" transform="translate(21,27)"/>
<path d="M0,0 L11,0 L13,5 L5,5 L5,3 L3,3 L3,1 Z " fill="#050F18" transform="translate(72,79)"/>
<path d="M0,0 L3,0 L3,3 L16,5 L16,6 L3,6 L-1,4 L-1,2 L-5,1 Z " fill="#505B63" transform="translate(91,11)"/>
<path d="M0,0 L5,0 L2,1 L2,4 L-6,5 L-14,8 L-12,4 L-10,3 L-3,3 L-3,1 Z " fill="#49545C" transform="translate(118,64)"/>
<path d="M0,0 L3,0 L3,16 L1,15 L1,10 L-2,9 L0,8 L-1,2 Z " fill="#253036" transform="translate(132,23)"/>
<path d="M0,0 L4,0 L4,3 L0,3 L0,6 L-2,6 L-2,8 L-7,8 L-7,5 L-5,5 L-5,3 Z " fill="#354044" transform="translate(20,21)"/>
<path d="M0,0 L5,2 L4,7 L-1,7 L-3,2 Z " fill="#071119" transform="translate(133,71)"/>
<path d="M0,0 L19,0 L19,2 L9,4 L4,4 L3,1 Z " fill="#737E86" transform="translate(90,16)"/>
<path d="M0,0 L7,0 L11,2 L1,2 Z M-7,1 L-1,1 L1,3 L-4,4 L-7,3 Z " fill="#212B33" transform="translate(58,74)"/>
<path d="M0,0 L3,0 L3,2 L1,3 L0,7 L-5,6 L-5,2 Z " fill="#404A52" transform="translate(117,70)"/>
<path d="M0,0 L2,4 L5,6 L0,9 L-3,9 L-3,3 L0,2 Z " fill="#1F2A2B" transform="translate(11,26)"/>
<path d="M0,0 L1,2 L0,7 L-3,7 L-3,2 L-14,2 L-14,1 Z " fill="#424D55" transform="translate(90,76)"/>
<path d="M0,0 L4,2 L8,4 L8,8 L3,6 L0,3 Z " fill="#182228" transform="translate(33,62)"/>
<path d="M0,0 L3,0 L6,10 L4,9 L4,7 L0,6 Z " fill="#222C34" transform="translate(135,40)"/>
<path d="M0,0 L6,0 L2,2 L1,4 L1,9 L0,5 L-4,4 L-4,1 Z " fill="#1E2830" transform="translate(95,75)"/>
<path d="M0,0 L14,0 L14,2 L4,3 L0,2 Z " fill="#7D888F" transform="translate(69,11)"/>
<path d="M0,0 L7,0 L6,4 L-2,4 L0,3 Z " fill="#556068" transform="translate(33,8)"/>
<path d="M0,0 L2,0 L2,4 L7,3 L6,5 L1,5 L-1,5 L-4,5 L-3,1 Z " fill="#59646C" transform="translate(126,68)"/>
<path d="M0,0 L2,3 L14,4 L14,5 L-1,5 L-2,1 Z M3,1 Z M2,2 Z " fill="#212B33" transform="translate(106,10)"/>
<path d="M0,0 L11,0 L11,2 L4,2 L4,5 L2,5 L2,2 L0,2 Z " fill="#414C54" transform="translate(92,9)"/>
<path d="M0,0 L8,0 L7,4 L4,5 L4,3 L-1,2 Z " fill="#222D35" transform="translate(41,5)"/>
<path d="M0,0 L7,1 L6,4 L1,5 Z " fill="#313B45" transform="translate(25,39)"/>
<path d="M0,0 L8,1 L8,2 L0,4 L-6,4 L-6,2 L0,2 Z " fill="#273239" transform="translate(63,7)"/>
<path d="M0,0 L4,0 L4,3 L2,3 L1,7 L0,5 L-2,4 Z " fill="#3C464D" transform="translate(141,57)"/>
<path d="M0,0 L2,1 L-2,3 L-2,5 L-7,8 L-7,5 L-5,3 L-5,1 Z " fill="#465157" transform="translate(50,15)"/>
<path d="M0,0 L1,4 L-2,3 L-2,6 L-9,6 L-5,5 L-5,2 Z " fill="#19242C" transform="translate(110,72)"/>
<path d="M0,0 L5,0 L5,5 L4,2 L2,3 L2,7 L0,7 L-1,1 Z " fill="#1C272E" transform="translate(140,33)"/>
<path d="M0,0 L2,2 L9,3 L10,6 L5,6 L0,3 Z " fill="#1B262A" transform="translate(23,61)"/>
<path d="M0,0 L6,2 L7,4 L-1,5 Z " fill="#0F1A1D" transform="translate(21,63)"/>
<path d="M0,0 L3,1 L2,6 L-2,6 L-3,8 L-3,5 L-1,5 Z M1,1 Z " fill="#0E1820" transform="translate(147,56)"/>
<path d="M0,0 L5,1 L1,3 L1,5 L-3,5 L-3,7 L-5,7 L-4,4 L-1,4 Z " fill="#14201F" transform="translate(14,21)"/>
<path d="M0,0 L7,0 L4,3 L-6,3 L-3,1 Z " fill="#354048" transform="translate(97,73)"/>
<path d="M0,0 L4,0 L3,3 L-4,5 L-2,1 Z " fill="#505B63" transform="translate(108,67)"/>
<path d="M0,0 L7,0 L3,2 L0,5 L-3,5 L-2,2 L0,2 Z " fill="#5C686F" transform="translate(68,33)"/>
<path d="M0,0 L4,0 L4,6 L1,6 Z " fill="#1C272F" transform="translate(116,0)"/>
<path d="M0,0 L3,1 L2,6 L-3,6 L-4,4 L1,4 Z " fill="#151F26" transform="translate(135,72)"/>
<path d="M0,0 L3,1 L1,4 L0,7 L-3,6 L-2,2 Z M-1,4 Z " fill="#424C53" transform="translate(27,48)"/>
<path d="M0,0 L5,0 L5,4 L0,4 Z " fill="#000206" transform="translate(100,0)"/>
<path d="M0,0 L3,1 L3,5 L-1,5 L-2,2 Z " fill="#1F2A32" transform="translate(47,71)"/>
<path d="M0,0 L1,4 L7,6 L3,7 L-1,5 Z " fill="#323C42" transform="translate(23,50)"/>
<path d="M0,0 L5,0 L4,3 L5,6 L1,5 L2,2 L0,2 Z " fill="#162126" transform="translate(33,13)"/>
<path d="M0,0 L2,0 L2,3 L5,4 L1,4 L1,7 L-1,7 Z " fill="#273231" transform="translate(25,11)"/>
<path d="M0,0 L9,1 L9,3 L2,2 Z " fill="#4A5459" transform="translate(22,74)"/>
<path d="M0,0 L9,1 L6,3 L-1,2 Z " fill="#505A62" transform="translate(108,57)"/>
<path d="M0,0 L2,1 L1,6 L-3,9 L-1,5 L0,2 L-2,1 Z " fill="#424C54" transform="translate(139,49)"/>
<path d="M0,0 L2,0 L4,7 L0,7 Z " fill="#101A22" transform="translate(129,25)"/>
<path d="M0,0 L2,0 L1,4 L-4,4 L-4,1 Z " fill="#404A50" transform="translate(17,25)"/>
<path d="M0,0 L10,1 L10,4 L6,3 L0,1 Z " fill="#465058" transform="translate(108,15)"/>
<path d="M0,0 L6,0 L7,3 L0,2 Z " fill="#313C44" transform="translate(51,75)"/>
<path d="M0,0 L2,1 L-3,5 L-6,4 L-4,4 L-4,1 Z " fill="#465156" transform="translate(41,23)"/>
<path d="M0,0 L7,1 L4,5 L2,4 L2,2 L0,2 Z " fill="#2F393F" transform="translate(32,20)"/>
<path d="M0,0 L3,1 L-1,5 L-3,5 L-2,1 Z " fill="#101B1A" transform="translate(10,36)"/>
<path d="M0,0 L3,0 L3,5 L0,5 Z " fill="#3C474F" transform="translate(87,78)"/>
<path d="M0,0 L3,1 L4,5 L2,5 L1,7 Z " fill="#09131B" transform="translate(137,36)"/>
<path d="M0,0 L1,3 L-2,6 L-5,6 L-5,3 L0,2 Z " fill="#444E52" transform="translate(32,8)"/>
<path d="M0,0 L3,1 L1,1 L1,3 L-6,4 L-2,1 Z " fill="#141F22" transform="translate(31,7)"/>
<path d="M0,0 L2,1 L-1,2 L-1,5 L-5,4 Z " fill="#222D34" transform="translate(106,72)"/>
<path d="M0,0 L4,0 L4,3 L-1,3 Z " fill="#050B10" transform="translate(122,65)"/>
<path d="M0,0 L2,0 L1,4 L-2,5 L-1,1 Z " fill="#525C64" transform="translate(139,62)"/>
<path d="M0,0 L6,1 L4,3 L-1,3 Z " fill="#27323A" transform="translate(120,73)"/>
<path d="M0,0 L1,2 L-1,4 L-4,5 L-3,1 Z " fill="#6D7880" transform="translate(126,68)"/>
<path d="M0,0 L2,1 L3,5 L0,5 L-1,1 Z " fill="#374148" transform="translate(31,57)"/>
<path d="M0,0 L2,0 L3,3 L-5,3 L-1,1 Z " fill="#1B2629" transform="translate(26,24)"/>
<path d="M0,0 L5,1 L7,3 L1,3 Z " fill="#0D181F" transform="translate(41,74)"/>
<path d="M0,0 L4,1 L1,3 L-2,3 L-2,1 Z " fill="#828C94" transform="translate(130,69)"/>
<path d="M0,0 L4,0 L4,4 L1,3 Z " fill="#0B1416" transform="translate(37,66)"/>
<path d="M0,0 L3,0 L3,2 L7,3 L1,3 Z " fill="#2F3A3F" transform="translate(24,61)"/>
<path d="M0,0 L2,4 L4,7 L0,6 Z " fill="#364048" transform="translate(135,40)"/>
<path d="M0,0 L3,0 L2,4 L0,5 Z " fill="#313C3B" transform="translate(8,30)"/>
<path d="M0,0 L2,2 L2,7 L-1,3 Z " fill="#151F26" transform="translate(20,50)"/>
<path d="M0,0 L3,0 L2,4 L0,4 Z " fill="#515C63" transform="translate(25,33)"/>
<path d="M0,0 L3,0 L3,2 L-2,3 Z " fill="#757F87" transform="translate(121,60)"/>
<path d="M0,0 L3,0 L3,3 L-1,2 Z " fill="#3E4A4A" transform="translate(21,21)"/>
<path d="M0,0 L3,0 L3,3 L0,3 Z " fill="#2D3840" transform="translate(47,73)"/>
<path d="M0,0 L2,0 L3,3 L-1,3 Z " fill="#89949C" transform="translate(53,67)"/>
<path d="M0,0 L4,0 L3,3 L1,3 Z " fill="#3A444C" transform="translate(28,40)"/>
<path d="M0,0 L3,0 L2,3 L0,3 Z " fill="#2D373F" transform="translate(45,7)"/>
</svg>
