<?xml version="1.0" encoding="UTF-8"?>
<!-- Generator: visioncortex VTracer 0.6.5 -->
<svg version="1.1" xmlns="http://www.w3.org/2000/svg" width="150" height="84">
<path d="M0,0 L150,0 L150,84 L0,84 Z " fill="#49545B" transform="translate(0,0)"/>
<path d="M0,0 L13,0 L16,1 L16,3 L20,4 L33,5 L33,29 L-49,29 L-50,26 L-70,25 L-72,21 L-85,20 L-87,16 L-100,14 L-102,13 L-102,10 L-105,11 L-106,13 L-111,13 L-108,8 L-107,7 L-99,7 L-98,6 L-79,6 L-63,8 L-58,7 L-11,7 L-11,4 L-1,1 Z " fill="#6A777F" transform="translate(117,55)"/>
<path d="M0,0 L90,0 L90,15 L85,15 L84,14 L80,18 L77,19 L75,18 L75,23 L74,24 L51,24 L48,26 L38,27 L37,31 L28,31 L29,34 L26,36 L17,36 L15,35 L15,40 L13,41 L13,33 L2,33 L-6,30 L-11,30 L-12,31 L-17,31 L-17,30 L-28,28 L-28,25 L-21,22 L-12,19 L-7,19 L-7,15 L0,14 Z " fill="#66767F" transform="translate(60,0)"/>
<path d="M0,0 L6,2 L6,47 L-7,47 L-11,45 L-11,43 L-27,43 L-35,46 L-38,46 L-38,49 L-47,50 L-54,48 L-63,49 L-71,49 L-70,45 L-57,43 L-56,35 L-60,34 L-62,28 L-64,28 L-64,26 L-67,26 L-66,23 L-57,22 L-56,18 L-47,18 L-46,13 L-36,12 L-33,10 L-10,10 L-9,5 L-4,4 L-1,3 Z M-69,44 Z " fill="#3D4953" transform="translate(144,13)"/>
<path d="M0,0 L6,2 L6,20 L-5,21 L-9,27 L-15,29 L-15,32 L-20,32 L-22,30 L-34,30 L-39,25 L-50,23 L-54,22 L-54,19 L-44,18 L-38,15 L-31,14 L-22,11 L-21,10 L-10,10 L-9,5 L-4,4 L-1,3 Z " fill="#04141C" transform="translate(144,13)"/>
<path d="M0,0 L15,0 L15,14 L8,15 L8,19 L-6,23 L-7,24 L-14,24 L-15,20 L-15,6 L-12,5 L-8,4 L0,4 Z " fill="#262F3A" transform="translate(45,0)"/>
<path d="M0,0 L4,0 L4,2 L17,2 L19,4 L19,7 L32,7 L32,9 L36,10 L56,11 L57,15 L4,15 L4,6 L-2,6 L-2,2 L0,2 Z " fill="#101C25" transform="translate(11,69)"/>
<path d="M0,0 L12,0 L13,3 L8,6 L7,8 L11,9 L12,6 L15,6 L15,9 L30,11 L32,16 L45,16 L47,20 L43,19 L43,17 L30,17 L28,13 L15,12 L15,10 L11,10 L11,12 L9,12 L9,16 L15,16 L15,25 L0,25 Z " fill="#56606B" transform="translate(0,59)"/>
<path d="M0,0 L6,2 L6,20 L-5,21 L-9,27 L-15,29 L-15,32 L-20,32 L-22,30 L-32,29 L-31,27 L-22,27 L-17,28 L-14,25 L-11,24 L-10,21 L-10,14 L-13,11 L-10,10 L-9,5 L-4,4 L-1,3 Z " fill="#202E38" transform="translate(144,13)"/>
<path d="M0,0 L34,0 L34,4 L26,5 L22,6 L20,6 L19,11 L3,11 L2,13 L-2,11 L-1,2 Z " fill="#4D5861" transform="translate(11,0)"/>
<path d="M0,0 L11,0 L11,8 L11,12 L21,11 L28,12 L28,13 L19,13 L13,15 L11,15 L11,17 L7,17 L7,22 L4,27 L0,27 Z " fill="#29333C" transform="translate(0,0)"/>
<path d="M0,0 L13,0 L16,1 L16,3 L20,4 L33,5 L33,9 L27,11 L24,11 L28,6 L18,8 L13,7 L4,6 L-1,7 L-11,5 L-8,3 Z " fill="#546068" transform="translate(117,55)"/>
<path d="M0,0 L4,0 L4,14 L-3,15 L-3,19 L-17,23 L-20,24 L-20,19 L-13,18 L-13,16 L-18,16 L-18,12 L-11,11 L-10,14 L-4,14 L0,13 Z " fill="#333D46" transform="translate(56,0)"/>
<path d="M0,0 L6,0 L6,15 L-6,15 L-4,5 L-3,2 Z " fill="#14222B" transform="translate(144,16)"/>
<path d="M0,0 L17,0 L18,4 L14,4 L14,10 L1,9 L0,8 Z " fill="#5E6772" transform="translate(14,0)"/>
<path d="M0,0 L5,0 L3,4 L-1,5 L-1,10 L4,10 L4,12 L-3,13 L-3,18 L-8,18 L-9,14 L-9,7 L-7,3 L-1,1 Z " fill="#0F1922" transform="translate(39,6)"/>
<path d="M0,0 L13,0 L14,9 L0,9 Z " fill="#020B14" transform="translate(16,75)"/>
<path d="M0,0 L29,0 L26,3 L24,4 L0,4 L-6,3 L-6,1 Z " fill="#35464E" transform="translate(90,0)"/>
<path d="M0,0 L11,0 L11,8 L9,11 L0,12 Z " fill="#333C46" transform="translate(0,0)"/>
<path d="M0,0 L1,3 L0,6 L3,6 L4,3 L4,7 L9,7 L5,8 L5,11 L11,12 L11,16 L2,19 L-1,19 L-1,10 L1,10 L1,7 L-1,7 Z " fill="#364048" transform="translate(27,17)"/>
<path d="M0,0 L2,1 L0,7 L-2,7 L-3,11 L-8,12 L-24,12 L-20,10 L-17,8 L-8,5 L-3,5 L-3,1 Z " fill="#57626A" transform="translate(56,14)"/>
<path d="M0,0 L3,0 L3,13 L0,14 L0,11 L-7,12 L-2,8 L-1,6 L-7,8 L-8,9 L-13,9 L-14,13 L-15,13 L-15,6 L-12,5 L-8,4 L0,4 Z " fill="#212B34" transform="translate(45,0)"/>
<path d="M0,0 L4,0 L4,2 L17,2 L19,6 L12,7 L5,6 L5,15 L4,15 L4,6 L-2,6 L-2,2 L0,2 Z " fill="#111C26" transform="translate(11,69)"/>
<path d="M0,0 L12,0 L9,3 L-5,6 L-11,9 L-15,8 L-13,3 L-3,2 Z " fill="#192932" transform="translate(111,23)"/>
<path d="M0,0 L13,0 L13,2 L17,3 L37,4 L38,8 L29,7 L28,6 L15,5 L13,4 L1,3 Z " fill="#25323A" transform="translate(30,76)"/>
<path d="M0,0 Z M-1,3 Z M-4,3 L0,5 L-2,8 L-6,10 L-11,10 L-11,9 L-22,7 L-22,5 L-6,4 Z " fill="#636E75" transform="translate(54,21)"/>
<path d="M0,0 L6,0 L6,2 L8,3 L-10,4 L-13,6 L-23,7 L-25,11 L-26,7 L-24,4 L-14,3 L-9,1 L-1,1 Z " fill="#576870" transform="translate(121,20)"/>
<path d="M0,0 L2,0 L3,3 L1,9 L-8,10 L-11,11 L-24,10 L-26,8 L-9,7 L0,6 L-1,1 Z M-11,9 Z " fill="#596570" transform="translate(86,48)"/>
<path d="M0,0 L1,0 L1,10 L-2,9 L-14,8 L-14,4 L-2,4 Z " fill="#364143" transform="translate(14,51)"/>
<path d="M0,0 L6,2 L6,3 L-3,5 L-4,10 L-6,13 L-12,13 L-13,11 L-10,10 L-9,5 L-4,4 L-1,3 Z " fill="#34434B" transform="translate(144,13)"/>
<path d="M0,0 L2,0 L2,4 L7,4 L7,6 L0,7 L0,12 L-5,12 L-6,6 L-3,6 Z " fill="#222C33" transform="translate(36,12)"/>
<path d="M0,0 L12,0 L13,2 L6,5 L3,8 L0,8 Z " fill="#4B5661" transform="translate(0,59)"/>
<path d="M0,0 L8,1 L31,1 L35,0 L36,2 L33,3 L-2,3 Z " fill="#55616A" transform="translate(56,60)"/>
<path d="M0,0 L2,0 L0,7 L-6,9 L-10,10 L-17,10 L-14,7 L-5,4 L0,4 Z " fill="#4C565D" transform="translate(53,15)"/>
<path d="M0,0 L8,0 L8,3 L12,3 L12,5 L3,6 L-1,4 Z " fill="#56606A" transform="translate(94,57)"/>
<path d="M0,0 L11,0 L11,4 L3,5 L0,6 Z " fill="#57616B" transform="translate(34,0)"/>
<path d="M0,0 L16,1 L16,13 L13,13 L14,2 L2,2 L-1,3 Z " fill="#353F49" transform="translate(14,10)"/>
<path d="M0,0 L9,1 L9,5 L0,6 L-2,7 L-1,2 Z " fill="#2D3640" transform="translate(29,28)"/>
<path d="M0,0 L12,0 L11,2 L-13,5 L-14,8 L-13,3 L-3,2 Z " fill="#35454E" transform="translate(111,23)"/>
<path d="M0,0 L3,0 L3,14 L0,14 Z " fill="#424D57" transform="translate(57,0)"/>
<path d="M0,0 L3,0 L3,2 L7,5 L7,8 L5,8 L4,5 L-16,4 L-16,3 L-2,2 Z " fill="#53616A" transform="translate(63,76)"/>
<path d="M0,0 L13,0 L15,4 L2,3 Z " fill="#2D3740" transform="translate(15,71)"/>
<path d="M0,0 L3,1 L2,4 L9,4 L15,6 L14,8 L-1,6 L-1,1 Z " fill="#636D76" transform="translate(46,47)"/>
<path d="M0,0 L3,0 L3,2 L-11,6 L-13,7 L-13,3 L-6,2 Z " fill="#3D474E" transform="translate(50,17)"/>
<path d="M0,0 L1,0 L0,7 L-3,13 L-5,12 L-4,9 L-4,1 Z " fill="#1A2831" transform="translate(138,25)"/>
<path d="M0,0 L5,0 L5,6 L-1,5 Z " fill="#020E15" transform="translate(145,17)"/>
<path d="M0,0 L6,0 L3,6 L10,5 L10,7 L2,7 L-1,2 Z " fill="#28353E" transform="translate(134,52)"/>
<path d="M0,0 L6,0 L5,3 L12,3 L14,5 L7,5 L0,3 Z " fill="#102029" transform="translate(90,32)"/>
<path d="M0,0 L2,0 L2,9 L0,13 L-2,9 L-1,5 Z " fill="#434D57" transform="translate(11,0)"/>
<path d="M0,0 L5,0 L4,3 L1,6 L-4,6 L-1,1 Z " fill="#646D7A" transform="translate(10,62)"/>
<path d="M0,0 L8,0 L8,1 L2,1 L2,4 L6,4 L4,8 L0,6 Z " fill="#4E5C66" transform="translate(88,31)"/>
<path d="M0,0 L2,0 L1,7 L-5,9 L-6,12 L-8,11 L-4,6 L0,6 Z " fill="#0D1D25" transform="translate(133,30)"/>
<path d="M0,0 L3,0 L3,3 L5,3 L5,5 L12,5 L12,6 L3,6 L3,4 L-1,4 Z " fill="#4D5763" transform="translate(12,65)"/>
<path d="M0,0 L4,0 L4,7 L0,6 Z " fill="#757F8A" transform="translate(16,0)"/>
<path d="M0,0 L8,0 L8,3 L0,3 Z " fill="#80939B" transform="translate(82,4)"/>
<path d="M0,0 L3,1 L2,4 L5,4 L5,6 L0,8 Z " fill="#57626C" transform="translate(75,35)"/>
<path d="M0,0 L2,0 L3,3 L-2,9 L-4,11 L-3,5 L-1,5 Z M-5,11 Z " fill="#2F3A3D" transform="translate(12,25)"/>
<path d="M0,0 L6,0 L5,4 L-2,4 Z " fill="#4E5863" transform="translate(68,58)"/>
<path d="M0,0 L7,1 L5,4 L-1,5 Z M7,0 Z " fill="#4D5862" transform="translate(94,57)"/>
<path d="M0,0 L6,0 L6,2 L8,3 L-1,3 Z " fill="#4B5D65" transform="translate(121,20)"/>
<path d="M0,0 L7,0 L6,2 L1,2 L0,6 L-1,6 L-1,1 Z " fill="#1B262D" transform="translate(31,7)"/>
<path d="M0,0 L4,0 L4,2 L1,2 L1,6 L-2,6 L-2,2 L0,2 Z " fill="#2B3540" transform="translate(11,69)"/>
<path d="M0,0 L2,0 L2,2 L0,2 L1,7 L-3,5 L-3,1 Z " fill="#48525D" transform="translate(9,69)"/>
<path d="M0,0 L2,1 L1,5 L-3,8 L-2,4 Z " fill="#18232B" transform="translate(35,14)"/>
<path d="M0,0 L1,2 L3,2 L3,6 L0,6 L-1,1 Z " fill="#5F6A74" transform="translate(92,78)"/>
<path d="M0,0 L7,0 L7,3 L0,2 Z " fill="#202A33" transform="translate(30,29)"/>
<path d="M0,0 L1,0 L1,8 L-2,8 L-1,2 Z " fill="#49535C" transform="translate(29,15)"/>
<path d="M0,0 L2,0 L2,7 L-2,6 Z " fill="#495760" transform="translate(135,18)"/>
<path d="M0,0 L1,2 L3,2 L3,4 L-3,4 L-2,1 Z " fill="#444F5A" transform="translate(3,80)"/>
<path d="M0,0 L3,0 L4,2 L7,4 L0,3 L-2,1 Z " fill="#5C6970" transform="translate(113,58)"/>
<path d="M0,0 L3,1 L1,6 L-1,6 L-1,1 Z " fill="#5D6771" transform="translate(46,47)"/>
<path d="M0,0 L2,1 L-1,4 L-6,5 L-6,3 Z " fill="#2A3842" transform="translate(135,37)"/>
<path d="M0,0 L2,0 L4,4 L-1,5 Z " fill="#3C464B" transform="translate(18,36)"/>
<path d="M0,0 L6,0 L8,4 L4,3 L4,1 Z " fill="#4F5B63" transform="translate(39,75)"/>
<path d="M0,0 L6,0 L4,1 L4,3 L0,3 Z " fill="#24333C" transform="translate(90,32)"/>
<path d="M0,0 L1,0 L1,7 L-2,5 Z " fill="#3D4751" transform="translate(11,6)"/>
<path d="M0,0 L5,0 L2,3 L-2,1 Z " fill="#4F5962" transform="translate(15,60)"/>
<path d="M0,0 L2,0 L2,6 L0,5 L-1,1 Z " fill="#323F47" transform="translate(134,52)"/>
<path d="M0,0 L6,0 L4,3 L0,1 Z " fill="#56626D" transform="translate(88,36)"/>
<path d="M0,0 L3,0 L3,5 L2,3 L0,3 Z " fill="#434D54" transform="translate(18,33)"/>
<path d="M0,0 L4,0 L4,3 L0,3 Z " fill="#232E34" transform="translate(0,24)"/>
<path d="M0,0 L3,1 L3,3 L-1,3 Z " fill="#00070F" transform="translate(96,32)"/>
<path d="M0,0 L3,1 L2,3 L-1,3 Z " fill="#3B454B" transform="translate(15,24)"/>
<path d="M0,0 L3,0 L2,3 L0,3 Z " fill="#76828A" transform="translate(102,63)"/>
</svg>
