<?xml version="1.0" encoding="UTF-8"?>
<svg xmlns="http://www.w3.org/2000/svg" viewBox="0 0 320 320" width="128" height="128">
  <style>rect{shape-rendering:crispEdges}</style>
  <g fill="#000000">
    <rect x="0" y="0" width="320" height="10"/>
    <rect x="0" y="10" width="10" height="10"/>
    <rect x="80" y="10" width="240" height="10"/>
    <rect x="0" y="20" width="10" height="10"/>
    <rect x="90" y="20" width="230" height="10"/>
    <rect x="0" y="30" width="10" height="10"/>
    <rect x="120" y="30" width="200" height="10"/>
    <rect x="0" y="40" width="10" height="10"/>
    <rect x="120" y="40" width="200" height="10"/>
    <rect x="0" y="50" width="20" height="10"/>
    <rect x="130" y="50" width="190" height="10"/>
    <rect x="0" y="60" width="20" height="10"/>
    <rect x="150" y="60" width="170" height="10"/>
    <rect x="0" y="70" width="20" height="10"/>
    <rect x="160" y="70" width="160" height="10"/>
    <rect x="0" y="80" width="30" height="10"/>
    <rect x="160" y="80" width="160" height="10"/>
    <rect x="0" y="90" width="50" height="10"/>
    <rect x="170" y="90" width="150" height="10"/>
    <rect x="0" y="100" width="50" height="10"/>
    <rect x="190" y="100" width="130" height="10"/>
    <rect x="0" y="110" width="50" height="10"/>
    <rect x="200" y="110" width="120" height="10"/>
    <rect x="0" y="120" width="60" height="10"/>
    <rect x="200" y="120" width="120" height="10"/>
    <rect x="0" y="130" width="70" height="10"/>
    <rect x="210" y="130" width="110" height="10"/>
    <rect x="0" y="140" width="70" height="10"/>
    <rect x="230" y="140" width="90" height="10"/>
    <rect x="0" y="150" width="90" height="10"/>
    <rect x="240" y="150" width="80" height="10"/>
    <rect x="0" y="160" width="100" height="10"/>
    <rect x="240" y="160" width="80" height="10"/>
    <rect x="0" y="170" width="110" height="10"/>
    <rect x="250" y="170" width="70" height="10"/>
    <rect x="0" y="180" width="110" height="10"/>
    <rect x="270" y="180" width="50" height="10"/>
    <rect x="0" y="190" width="130" height="10"/>
    <rect x="270" y="190" width="50" height="10"/>
    <rect x="0" y="200" width="140" height="10"/>
    <rect x="270" y="200" width="50" height="10"/>
    <rect x="0" y="210" width="150" height="10"/>
    <rect x="280" y="210" width="40" height="10"/>
    <rect x="0" y="220" width="150" height="10"/>
    <rect x="280" y="220" width="40" height="10"/>
    <rect x="0" y="230" width="170" height="10"/>
    <rect x="290" y="230" width="30" height="10"/>
    <rect x="0" y="240" width="180" height="10"/>
    <rect x="290" y="240" width="30" height="10"/>
    <rect x="0" y="250" width="210" height="10"/>
    <rect x="290" y="250" width="30" height="10"/>
    <rect x="0" y="260" width="210" height="10"/>
    <rect x="290" y="260" width="30" height="10"/>
    <rect x="0" y="270" width="230" height="10"/>
    <rect x="290" y="270" width="30" height="10"/>
    <rect x="0" y="280" width="320" height="10"/>
    <rect x="0" y="290" width="320" height="10"/>
    <rect x="0" y="300" width="320" height="10"/>
    <rect x="0" y="310" width="320" height="10"/>
  </g>
  <g fill="#993529">
    <rect x="10" y="10" width="10" height="10"/>
    <rect x="10" y="20" width="20" height="10"/>
    <rect x="10" y="30" width="10" height="10"/>
    <rect x="30" y="50" width="10" height="10"/>
    <rect x="80" y="90" width="10" height="10"/>
    <rect x="230" y="240" width="10" height="10"/>
    <rect x="240" y="250" width="40" height="10"/>
    <rect x="250" y="260" width="30" height="10"/>
  </g>
  <g fill="#973429">
    <rect x="20" y="10" width="10" height="10"/>
    <rect x="20" y="30" width="10" height="10"/>
    <rect x="20" y="40" width="10" height="10"/>
    <rect x="60" y="80" width="10" height="10"/>
    <rect x="90" y="110" width="10" height="10"/>
    <rect x="100" y="120" width="10" height="10"/>
    <rect x="150" y="170" width="10" height="10"/>
    <rect x="190" y="210" width="10" height="10"/>
    <rect x="210" y="230" width="10" height="10"/>
    <rect x="220" y="240" width="10" height="10"/>
  </g>
  <g fill="#a43d2e">
    <rect x="30" y="10" width="10" height="10"/>
    <rect x="40" y="60" width="10" height="10"/>
    <rect x="160" y="180" width="10" height="10"/>
    <rect x="200" y="220" width="10" height="10"/>
  </g>
  <g fill="#ca583b">
    <rect x="40" y="10" width="20" height="10"/>
    <rect x="40" y="50" width="10" height="10"/>
    <rect x="130" y="150" width="20" height="10"/>
    <rect x="150" y="160" width="10" height="10"/>
    <rect x="160" y="170" width="10" height="10"/>
    <rect x="190" y="200" width="10" height="10"/>
    <rect x="200" y="210" width="10" height="10"/>
    <rect x="280" y="240" width="10" height="10"/>
    <rect x="280" y="250" width="10" height="10"/>
  </g>
  <g fill="#e68854">
    <rect x="60" y="10" width="10" height="10"/>
    <rect x="40" y="20" width="20" height="10"/>
    <rect x="100" y="90" width="10" height="10"/>
    <rect x="120" y="100" width="10" height="10"/>
    <rect x="170" y="180" width="10" height="10"/>
    <rect x="220" y="210" width="10" height="10"/>
    <rect x="230" y="220" width="10" height="10"/>
  </g>
  <g fill="#b56b4b">
    <rect x="70" y="10" width="10" height="10"/>
    <rect x="110" y="140" width="20" height="10"/>
  </g>
  <g fill="#b24c34">
    <rect x="30" y="20" width="10" height="10"/>
    <rect x="30" y="30" width="10" height="10"/>
    <rect x="30" y="40" width="10" height="10"/>
    <rect x="70" y="80" width="10" height="10"/>
    <rect x="90" y="100" width="10" height="10"/>
    <rect x="100" y="110" width="10" height="10"/>
    <rect x="110" y="120" width="10" height="10"/>
    <rect x="100" y="140" width="10" height="10"/>
    <rect x="140" y="160" width="10" height="10"/>
    <rect x="180" y="200" width="10" height="10"/>
    <rect x="210" y="220" width="10" height="10"/>
    <rect x="220" y="230" width="10" height="10"/>
    <rect x="280" y="260" width="10" height="10"/>
  </g>
  <g fill="#f7a767">
    <rect x="60" y="20" width="10" height="10"/>
    <rect x="80" y="30" width="10" height="10"/>
    <rect x="60" y="40" width="10" height="10"/>
    <rect x="60" y="50" width="10" height="10"/>
    <rect x="60" y="60" width="10" height="10"/>
    <rect x="100" y="80" width="10" height="10"/>
    <rect x="110" y="90" width="10" height="10"/>
    <rect x="170" y="110" width="10" height="10"/>
    <rect x="210" y="150" width="10" height="10"/>
    <rect x="180" y="160" width="10" height="10"/>
    <rect x="220" y="200" width="10" height="10"/>
    <rect x="260" y="210" width="10" height="10"/>
    <rect x="240" y="220" width="10" height="10"/>
    <rect x="260" y="220" width="10" height="10"/>
    <rect x="250" y="230" width="10" height="10"/>
  </g>
  <g fill="#da8f58">
    <rect x="70" y="20" width="10" height="10"/>
    <rect x="230" y="160" width="10" height="10"/>
    <rect x="270" y="210" width="10" height="10"/>
    <rect x="270" y="220" width="10" height="10"/>
    <rect x="270" y="230" width="10" height="10"/>
  </g>
  <g fill="#8d5b38">
    <rect x="80" y="20" width="10" height="10"/>
    <rect x="170" y="100" width="10" height="10"/>
    <rect x="210" y="140" width="10" height="10"/>
  </g>
  <g fill="#ee955c">
    <rect x="40" y="30" width="10" height="10"/>
    <rect x="50" y="60" width="10" height="10"/>
    <rect x="160" y="150" width="10" height="10"/>
    <rect x="180" y="170" width="10" height="10"/>
    <rect x="240" y="230" width="10" height="10"/>
  </g>
  <g fill="#f7ab69">
    <rect x="50" y="30" width="10" height="10"/>
    <rect x="70" y="40" width="10" height="10"/>
    <rect x="110" y="80" width="10" height="10"/>
    <rect x="140" y="80" width="10" height="10"/>
    <rect x="120" y="90" width="10" height="10"/>
    <rect x="160" y="90" width="10" height="10"/>
    <rect x="170" y="150" width="10" height="10"/>
    <rect x="190" y="160" width="10" height="10"/>
    <rect x="230" y="200" width="10" height="10"/>
    <rect x="240" y="210" width="10" height="10"/>
  </g>
  <g fill="#f8b56d">
    <rect x="60" y="30" width="20" height="10"/>
    <rect x="80" y="40" width="10" height="10"/>
    <rect x="120" y="80" width="10" height="10"/>
    <rect x="130" y="90" width="10" height="10"/>
    <rect x="130" y="100" width="10" height="10"/>
    <rect x="120" y="120" width="10" height="10"/>
    <rect x="180" y="150" width="10" height="10"/>
    <rect x="200" y="160" width="10" height="10"/>
    <rect x="220" y="160" width="10" height="10"/>
    <rect x="240" y="200" width="10" height="10"/>
    <rect x="250" y="210" width="10" height="10"/>
    <rect x="250" y="220" width="10" height="10"/>
  </g>
  <g fill="#1a130e">
    <rect x="90" y="30" width="20" height="10"/>
    <rect x="150" y="70" width="10" height="10"/>
    <rect x="190" y="110" width="10" height="10"/>
    <rect x="230" y="150" width="10" height="10"/>
  </g>
  <g fill="#140706">
    <rect x="110" y="30" width="10" height="10"/>
    <rect x="70" y="130" width="10" height="10"/>
    <rect x="110" y="170" width="10" height="10"/>
    <rect x="150" y="210" width="10" height="10"/>
    <rect x="280" y="230" width="10" height="10"/>
    <rect x="230" y="270" width="10" height="10"/>
  </g>
  <g fill="#8b2b26">
    <rect x="10" y="40" width="10" height="10"/>
    <rect x="30" y="60" width="10" height="10"/>
    <rect x="40" y="70" width="10" height="10"/>
    <rect x="50" y="80" width="10" height="10"/>
    <rect x="60" y="90" width="20" height="10"/>
    <rect x="80" y="110" width="10" height="10"/>
    <rect x="90" y="120" width="10" height="10"/>
    <rect x="120" y="150" width="10" height="10"/>
    <rect x="130" y="160" width="10" height="10"/>
    <rect x="170" y="200" width="10" height="10"/>
    <rect x="190" y="220" width="10" height="10"/>
    <rect x="200" y="230" width="10" height="10"/>
    <rect x="210" y="240" width="10" height="10"/>
    <rect x="230" y="250" width="10" height="10"/>
  </g>
  <g fill="#d26a42">
    <rect x="40" y="40" width="10" height="10"/>
    <rect x="50" y="50" width="10" height="10"/>
    <rect x="90" y="90" width="10" height="10"/>
    <rect x="120" y="110" width="10" height="10"/>
    <rect x="150" y="150" width="10" height="10"/>
    <rect x="160" y="160" width="10" height="10"/>
    <rect x="170" y="170" width="10" height="10"/>
    <rect x="210" y="210" width="10" height="10"/>
    <rect x="220" y="220" width="10" height="10"/>
    <rect x="230" y="230" width="10" height="10"/>
    <rect x="240" y="240" width="40" height="10"/>
  </g>
  <g fill="#f79e61">
    <rect x="50" y="40" width="10" height="10"/>
    <rect x="90" y="40" width="20" height="10"/>
    <rect x="90" y="80" width="10" height="10"/>
    <rect x="170" y="160" width="10" height="10"/>
    <rect x="210" y="200" width="10" height="10"/>
    <rect x="250" y="200" width="10" height="10"/>
    <rect x="230" y="210" width="10" height="10"/>
    <rect x="260" y="230" width="10" height="10"/>
  </g>
  <g fill="#d0734a">
    <rect x="110" y="40" width="10" height="10"/>
    <rect x="150" y="80" width="10" height="10"/>
    <rect x="100" y="100" width="10" height="10"/>
    <rect x="100" y="130" width="10" height="10"/>
  </g>
  <g fill="#68231c">
    <rect x="20" y="50" width="10" height="10"/>
    <rect x="20" y="60" width="10" height="10"/>
  </g>
  <g fill="#f8ba73">
    <rect x="70" y="50" width="10" height="10"/>
    <rect x="70" y="60" width="10" height="10"/>
    <rect x="140" y="100" width="30" height="10"/>
    <rect x="130" y="110" width="20" height="10"/>
    <rect x="190" y="150" width="10" height="10"/>
    <rect x="190" y="170" width="10" height="10"/>
  </g>
  <g fill="#fac474">
    <rect x="80" y="50" width="30" height="10"/>
    <rect x="130" y="80" width="10" height="10"/>
    <rect x="140" y="90" width="20" height="10"/>
    <rect x="150" y="110" width="10" height="10"/>
    <rect x="200" y="150" width="10" height="10"/>
    <rect x="210" y="160" width="10" height="10"/>
    <rect x="200" y="170" width="20" height="10"/>
  </g>
  <g fill="#f9ca92">
    <rect x="110" y="50" width="10" height="10"/>
    <rect x="170" y="140" width="40" height="10"/>
    <rect x="180" y="190" width="10" height="10"/>
  </g>
  <g fill="#fce9c9">
    <rect x="120" y="50" width="10" height="10"/>
    <rect x="120" y="60" width="10" height="10"/>
    <rect x="130" y="120" width="60" height="10"/>
    <rect x="120" y="130" width="90" height="10"/>
    <rect x="230" y="170" width="20" height="10"/>
    <rect x="230" y="180" width="20" height="10"/>
  </g>
  <g fill="#f8d9af">
    <rect x="80" y="60" width="40" height="10"/>
    <rect x="80" y="70" width="10" height="10"/>
    <rect x="220" y="170" width="10" height="10"/>
    <rect x="190" y="180" width="30" height="10"/>
    <rect x="190" y="190" width="20" height="10"/>
  </g>
  <g fill="#978670">
    <rect x="130" y="60" width="10" height="10"/>
    <rect x="250" y="180" width="10" height="10"/>
  </g>
  <g fill="#382a20">
    <rect x="140" y="60" width="10" height="10"/>
    <rect x="180" y="100" width="10" height="10"/>
    <rect x="220" y="140" width="10" height="10"/>
    <rect x="260" y="180" width="10" height="10"/>
  </g>
  <g fill="#551616">
    <rect x="20" y="70" width="10" height="10"/>
    <rect x="60" y="120" width="10" height="10"/>
    <rect x="100" y="160" width="10" height="10"/>
    <rect x="140" y="200" width="10" height="10"/>
  </g>
  <g fill="#7d2121">
    <rect x="30" y="70" width="10" height="10"/>
    <rect x="60" y="110" width="10" height="10"/>
    <rect x="140" y="180" width="10" height="10"/>
    <rect x="240" y="270" width="10" height="10"/>
  </g>
  <g fill="#e89c66">
    <rect x="50" y="70" width="20" height="10"/>
    <rect x="170" y="190" width="10" height="10"/>
  </g>
  <g fill="#f0a96f">
    <rect x="70" y="70" width="10" height="10"/>
    <rect x="110" y="130" width="10" height="10"/>
    <rect x="150" y="140" width="10" height="10"/>
  </g>
  <g fill="#fce2bd">
    <rect x="90" y="70" width="50" height="10"/>
    <rect x="220" y="180" width="10" height="10"/>
    <rect x="210" y="190" width="50" height="10"/>
  </g>
  <rect fill="#5b5043" x="140" y="70" width="10" height="10"/>
  <g fill="#330f0e">
    <rect x="30" y="80" width="10" height="10"/>
    <rect x="80" y="140" width="10" height="10"/>
    <rect x="120" y="180" width="10" height="10"/>
    <rect x="160" y="220" width="10" height="10"/>
    <rect x="210" y="260" width="20" height="10"/>
  </g>
  <g fill="#832423">
    <rect x="40" y="80" width="10" height="10"/>
    <rect x="50" y="90" width="10" height="10"/>
    <rect x="60" y="100" width="10" height="10"/>
    <rect x="70" y="110" width="10" height="10"/>
    <rect x="80" y="120" width="10" height="10"/>
    <rect x="90" y="130" width="10" height="10"/>
    <rect x="110" y="150" width="10" height="10"/>
    <rect x="140" y="170" width="10" height="10"/>
    <rect x="180" y="210" width="10" height="10"/>
    <rect x="180" y="220" width="10" height="10"/>
    <rect x="190" y="230" width="10" height="10"/>
    <rect x="200" y="240" width="10" height="10"/>
    <rect x="210" y="250" width="10" height="10"/>
  </g>
  <g fill="#cf633e">
    <rect x="80" y="80" width="10" height="10"/>
    <rect x="110" y="110" width="10" height="10"/>
    <rect x="200" y="200" width="10" height="10"/>
  </g>
  <g fill="#7a1d20">
    <rect x="50" y="100" width="10" height="10"/>
    <rect x="70" y="120" width="10" height="10"/>
    <rect x="90" y="140" width="10" height="10"/>
    <rect x="100" y="150" width="10" height="10"/>
    <rect x="150" y="190" width="10" height="10"/>
    <rect x="190" y="240" width="10" height="10"/>
  </g>
  <g fill="#862b24">
    <rect x="70" y="100" width="10" height="10"/>
    <rect x="150" y="180" width="10" height="10"/>
    <rect x="160" y="190" width="10" height="10"/>
    <rect x="220" y="250" width="10" height="10"/>
    <rect x="250" y="270" width="30" height="10"/>
  </g>
  <g fill="#8b3227">
    <rect x="80" y="100" width="10" height="10"/>
    <rect x="240" y="260" width="10" height="10"/>
    <rect x="280" y="270" width="10" height="10"/>
  </g>
  <rect fill="#e17e4e" x="110" y="100" width="10" height="10"/>
  <g fill="#6a191c">
    <rect x="50" y="110" width="10" height="10"/>
    <rect x="90" y="150" width="10" height="10"/>
    <rect x="130" y="190" width="10" height="10"/>
    <rect x="170" y="230" width="10" height="10"/>
  </g>
  <rect fill="#fac67d" x="160" y="110" width="10" height="10"/>
  <g fill="#6f4a2e">
    <rect x="180" y="110" width="10" height="10"/>
    <rect x="220" y="150" width="10" height="10"/>
    <rect x="260" y="200" width="10" height="10"/>
  </g>
  <rect fill="#d4c3a8" x="190" y="120" width="10" height="10"/>
  <g fill="#781c1f">
    <rect x="80" y="130" width="10" height="10"/>
    <rect x="110" y="160" width="10" height="10"/>
    <rect x="120" y="170" width="10" height="10"/>
    <rect x="130" y="180" width="10" height="10"/>
    <rect x="150" y="200" width="10" height="10"/>
    <rect x="160" y="210" width="10" height="10"/>
    <rect x="170" y="220" width="10" height="10"/>
    <rect x="180" y="230" width="10" height="10"/>
  </g>
  <g fill="#0c0403">
    <rect x="70" y="140" width="10" height="10"/>
    <rect x="110" y="180" width="10" height="10"/>
    <rect x="150" y="220" width="10" height="10"/>
  </g>
  <rect fill="#d6956f" x="130" y="140" width="20" height="10"/>
  <g fill="#ecb98b">
    <rect x="160" y="140" width="10" height="10"/>
    <rect x="180" y="180" width="10" height="10"/>
  </g>
  <g fill="#761b1f">
    <rect x="120" y="160" width="10" height="10"/>
    <rect x="130" y="170" width="10" height="10"/>
    <rect x="140" y="190" width="10" height="10"/>
    <rect x="160" y="200" width="10" height="10"/>
    <rect x="170" y="210" width="10" height="10"/>
  </g>
  <rect fill="#726859" x="260" y="190" width="10" height="10"/>
  <g fill="#491313">
    <rect x="180" y="240" width="10" height="10"/>
    <rect x="230" y="260" width="10" height="10"/>
  </g>
</svg>