<?xml version="1.0" encoding="UTF-8"?>
<!-- Generator: visioncortex VTracer 0.6.5 -->
<svg version="1.1" xmlns="http://www.w3.org/2000/svg" width="150" height="85">
<path d="M0,0 L150,0 L150,85 L0,85 Z " fill="#0E1114" transform="translate(0,0)"/>
<path d="M0,0 L12,1 L12,3 L16,3 L16,1 L24,0 L26,5 L27,20 L35,20 L36,23 L32,23 L31,26 L27,25 L27,23 L22,24 L0,24 Z M25,13 Z " fill="#213034" transform="translate(56,17)"/>
<path d="M0,0 L2,0 L5,5 L4,8 L3,34 L0,36 L0,34 L-5,35 L-6,37 L-13,38 L-13,36 L-11,35 L-17,34 L-18,32 L-39,32 L-42,37 L-44,37 L-44,26 L-22,25 L-22,28 L-20,29 L-19,23 L-14,20 L-13,24 L-11,26 L-12,30 L-7,30 L-6,20 L-1,10 Z M-22,23 Z " fill="#2F3538" transform="translate(100,26)"/>
<path d="M0,0 L2,0 L5,5 L4,8 L3,34 L0,36 L0,25 L-3,24 L-3,22 L-6,20 L-1,10 Z " fill="#1F282F" transform="translate(100,26)"/>
<path d="M0,0 L16,0 L18,2 L15,4 L14,7 L-7,7 L-6,2 Z " fill="#1B1A21" transform="translate(121,78)"/>
<path d="M0,0 L12,1 L12,3 L16,3 L16,1 L24,0 L22,1 L20,5 L19,6 L11,5 L5,3 L1,1 L1,3 L4,3 L5,11 L4,23 L0,24 Z " fill="#151D20" transform="translate(56,17)"/>
<path d="M0,0 L2,3 L3,18 L11,18 L12,21 L8,21 L7,24 L3,23 L3,21 L-2,22 L-2,18 Z M1,11 Z " fill="#17292B" transform="translate(80,19)"/>
<path d="M0,0 Z M-1,2 L-1,5 L-21,5 L-21,7 L2,7 L2,8 L-17,9 L-20,14 L-22,14 L-22,3 Z " fill="#24272B" transform="translate(78,49)"/>
<path d="M0,0 L4,1 L4,3 L6,4 L6,13 L1,14 L-1,13 L-1,5 Z " fill="#27373E" transform="translate(94,47)"/>
<path d="M0,0 L5,0 L5,4 L10,4 L11,11 L4,12 L4,10 L6,9 L0,8 Z " fill="#283539" transform="translate(83,52)"/>
<path d="M0,0 L4,0 L5,8 L4,20 L0,21 Z " fill="#231828" transform="translate(56,20)"/>
<path d="M0,0 L9,0 L9,5 L-5,5 L-4,2 Z " fill="#04080E" transform="translate(141,80)"/>
<path d="M0,0 L12,0 L14,2 L11,4 L10,7 L8,7 L8,5 L3,5 L-1,3 Z " fill="#211F22" transform="translate(125,78)"/>
<path d="M0,0 L3,1 L1,1 L1,11 L-3,17 L-7,16 L-3,12 L-2,4 L0,4 Z " fill="#131C1F" transform="translate(99,25)"/>
<path d="M0,0 L2,3 L3,18 L0,16 Z M1,11 Z " fill="#112223" transform="translate(80,19)"/>
<path d="M0,0 L11,2 L11,4 L-2,4 Z " fill="#12111B" transform="translate(122,81)"/>
<path d="M0,0 L3,0 L3,7 L-2,7 L-2,2 Z " fill="#1A1D25" transform="translate(89,78)"/>
<path d="M0,0 L6,1 L7,4 L-1,4 Z " fill="#3E302E" transform="translate(24,81)"/>
<path d="M0,0 L6,0 L5,4 L0,5 Z " fill="#33454D" transform="translate(93,55)"/>
<path d="M0,0 L5,0 L5,5 L0,5 Z " fill="#202B30" transform="translate(83,52)"/>
<path d="M0,0 L8,1 L7,5 L3,4 L3,2 L0,2 Z " fill="#202B2E" transform="translate(80,38)"/>
<path d="M0,0 L5,1 L5,4 L-1,4 Z " fill="#282C2F" transform="translate(5,81)"/>
<path d="M0,0 L1,0 L2,6 L-3,7 L-2,3 Z " fill="#1F1E21" transform="translate(51,78)"/>
<path d="M0,0 L8,0 L9,3 L0,2 Z " fill="#122124" transform="translate(83,37)"/>
<path d="M0,0 L3,1 L4,5 L-1,5 Z M1,1 Z " fill="#1B2327" transform="translate(115,80)"/>
<path d="M0,0 L3,1 L1,1 L-1,5 L-2,6 L-7,6 L-4,3 L-1,2 Z " fill="#1B2429" transform="translate(77,17)"/>
<path d="M0,0 L4,1 L2,3 L-5,5 L-4,2 Z " fill="#0C0F14" transform="translate(141,80)"/>
<path d="M0,0 L4,0 L4,3 L-3,4 L-3,2 Z " fill="#25282D" transform="translate(90,60)"/>
<path d="M0,0 L3,1 L3,4 L-3,4 Z " fill="#130609" transform="translate(35,81)"/>
<path d="M0,0 L2,1 L1,5 L-3,4 Z " fill="#343539" transform="translate(85,46)"/>
<path d="M0,0 L2,2 L2,5 L-2,5 L-1,1 Z " fill="#232C33" transform="translate(90,80)"/>
<path d="M0,0 L4,1 L4,3 L-1,4 Z " fill="#292429" transform="translate(129,79)"/>
<path d="M0,0 L3,0 L3,3 L0,4 Z " fill="#152023" transform="translate(85,52)"/>
<path d="M0,0 L2,0 L2,4 L-1,4 Z " fill="#223139" transform="translate(91,56)"/>
<path d="M0,0 L4,1 L4,4 L1,3 Z " fill="#2E4149" transform="translate(95,51)"/>
<path d="M0,0 L2,0 L2,4 L-1,3 Z " fill="#2C3C42" transform="translate(88,56)"/>
<path d="M0,0 L4,0 L4,2 L0,3 Z " fill="#465965" transform="translate(94,55)"/>
<path d="M0,0 L3,0 L3,3 L0,3 Z " fill="#0C161E" transform="translate(92,82)"/>
<path d="M0,0 L2,4 L-1,4 Z " fill="#242B31" transform="translate(117,81)"/>
<path d="M0,0 L3,1 L3,3 L0,3 Z " fill="#5E4E4A" transform="translate(25,82)"/>
<path d="M0,0 L3,1 L2,3 L-1,2 Z " fill="#33373B" transform="translate(84,40)"/>
</svg>
