<?xml version="1.0" encoding="UTF-8"?>
<!-- Generator: visioncortex VTracer 0.6.5 -->
<svg version="1.1" xmlns="http://www.w3.org/2000/svg" width="150" height="85">
<path d="M0,0 L150,0 L150,85 L0,85 Z " fill="#131016" transform="translate(0,0)"/>
<path d="M0,0 L3,0 L4,7 L6,7 L6,9 L8,9 L8,16 L7,18 L14,15 L14,17 L16,18 L15,23 L16,24 L16,30 L18,30 L20,25 L25,26 L26,23 L30,23 L31,20 L31,23 L35,22 L40,26 L43,29 L47,26 L49,20 L53,21 L51,27 L51,33 L56,34 L54,40 L48,45 L50,49 L53,47 L58,48 L59,59 L54,63 L49,69 L44,74 L38,80 L36,80 L36,75 L-10,75 L-9,73 L-4,73 L-5,70 L-9,70 L-8,65 L-8,63 L-8,53 L-7,52 L12,51 L13,48 L4,49 L-6,49 L-8,45 L-7,28 L-8,17 L-1,15 Z M13,17 Z M13,10 L16,12 L15,15 L13,12 Z " fill="#342D37" transform="translate(64,0)"/>
<path d="M0,0 L4,1 L2,7 L2,13 L7,14 L5,20 L-1,25 L1,29 L4,27 L9,28 L10,39 L5,43 L0,49 L-5,54 L-11,60 L-13,60 L-13,55 L-59,55 L-58,53 L-53,53 L-54,50 L-58,50 L-57,45 L-57,43 L-57,38 L-56,37 L-31,36 L-29,32 L-25,32 L-25,35 L-27,35 L-28,42 L-23,42 L-21,40 L-16,43 L-14,38 L-11,35 L-9,35 L-7,38 L-4,39 L-3,30 L-6,30 L-7,24 L-11,25 L-11,21 L-9,21 L-9,17 L-11,17 L-12,13 L-9,13 L-9,8 L-6,9 L-2,6 Z " fill="#2B252C" transform="translate(113,20)"/>
<path d="M0,0 L1,3 L5,2 L10,6 L10,13 L8,14 L8,17 L10,17 L10,21 L8,21 L8,25 L12,24 L13,30 L16,30 L17,34 L15,40 L10,39 L10,35 L4,40 L-1,40 L0,26 L2,26 L2,18 L-3,20 L-3,22 L-10,23 L-14,19 L-13,15 L-12,11 L-10,5 L-5,6 L-4,3 L0,3 Z " fill="#3A3743" transform="translate(94,20)"/>
<path d="M0,0 L16,0 L27,1 L27,14 L-2,14 L-6,11 L-6,9 L-9,8 L-4,1 Z " fill="#0E0F0C" transform="translate(123,62)"/>
<path d="M0,0 L0,3 L-1,5 L5,10 L34,11 L34,20 L-2,20 L-2,15 L0,15 L0,12 L-4,10 L-7,10 L-10,10 L-6,6 L-4,6 L-2,1 Z " fill="#1E1C20" transform="translate(116,65)"/>
<path d="M0,0 L3,0 L4,7 L6,7 L6,9 L8,9 L8,16 L7,18 L14,15 L14,17 L16,18 L14,23 L-2,22 L-1,29 L-2,32 L-5,32 L-4,43 L-7,44 L-7,28 L-8,17 L-1,15 Z M13,17 Z M13,10 L16,12 L15,15 L13,12 Z " fill="#2C2331" transform="translate(64,0)"/>
<path d="M0,0 L15,0 L18,2 L18,8 L20,8 L21,12 L18,16 L10,17 L3,16 L0,15 L-2,10 L0,10 Z " fill="#232E41" transform="translate(62,22)"/>
<path d="M0,0 L4,1 L2,7 L2,13 L7,14 L5,20 L-1,24 L-3,23 L-3,20 L-7,20 L-8,23 L-11,23 L-11,21 L-9,21 L-9,17 L-11,17 L-12,13 L-9,13 L-9,8 L-6,9 L-2,6 Z M-2,24 Z " fill="#2A1D20" transform="translate(113,20)"/>
<path d="M0,0 L2,1 L3,5 L-1,11 L-27,11 L-27,7 L-4,6 Z " fill="#3C3940" transform="translate(83,46)"/>
<path d="M0,0 L4,0 L4,3 L6,3 L7,1 L7,7 L3,7 L4,10 L-1,9 L0,14 L3,16 L-7,18 L-7,10 L-6,7 L-2,7 Z M-1,17 Z M-8,18 Z " fill="#201A20" transform="translate(34,20)"/>
<path d="M0,0 L2,0 L2,5 L8,6 L6,12 L0,16 L-2,15 L-3,9 L-2,8 L-5,7 L-4,2 Z M-1,16 Z " fill="#2F201F" transform="translate(112,28)"/>
<path d="M0,0 L6,0 L8,9 L11,12 L10,16 L7,18 L4,18 L5,9 L3,9 L3,7 L1,7 L0,10 Z " fill="#160C12" transform="translate(67,0)"/>
<path d="M0,0 L7,0 L10,1 L10,3 L12,3 L12,6 L-5,7 L-4,2 L0,2 Z " fill="#49444C" transform="translate(89,24)"/>
<path d="M0,0 L2,4 L1,12 L-5,16 L-8,12 L-8,7 L-2,4 Z " fill="#1E1215" transform="translate(111,14)"/>
<path d="M0,0 L10,0 L9,5 L6,8 L1,8 L-2,6 L-2,2 L0,2 Z " fill="#463F4A" transform="translate(83,35)"/>
<path d="M0,0 L1,3 L5,2 L10,6 L10,13 L8,14 L8,17 L10,17 L10,21 L8,21 L7,23 L6,16 L5,11 L7,7 L5,7 L5,5 L-4,4 L0,3 Z " fill="#3B3440" transform="translate(94,20)"/>
<path d="M0,0 L11,0 L10,7 L7,7 L7,5 L4,7 L4,10 L1,9 L0,7 Z " fill="#221F24" transform="translate(73,0)"/>
<path d="M0,0 L6,1 L18,2 L20,5 L-3,5 L-1,1 Z " fill="#0D0C1A" transform="translate(122,80)"/>
<path d="M0,0 L11,0 L11,7 L3,7 L1,5 Z " fill="#1A232A" transform="translate(139,78)"/>
<path d="M0,0 L2,1 L1,6 L6,6 L5,9 L1,8 L-1,8 L-2,9 L-7,9 L-8,4 L-6,2 L0,2 Z " fill="#36363F" transform="translate(92,54)"/>
<path d="M0,0 L4,0 L4,15 L-2,17 L-1,15 Z " fill="#271719" transform="translate(60,0)"/>
<path d="M0,0 L2,4 L-19,4 L-17,1 Z " fill="#0A0610" transform="translate(110,81)"/>
<path d="M0,0 L6,0 L6,7 L-2,7 L-1,1 Z " fill="#261F23" transform="translate(47,78)"/>
<path d="M0,0 L4,1 L5,6 L2,9 L-3,9 L-3,4 L0,3 Z M3,3 Z " fill="#464855" transform="translate(96,51)"/>
<path d="M0,0 L10,0 L10,5 L11,6 L11,15 L9,15 L7,9 L7,2 L-1,2 Z " fill="#423E4C" transform="translate(90,30)"/>
<path d="M0,0 L4,0 L4,3 L6,3 L7,1 L7,7 L-1,8 L-1,1 Z " fill="#26222A" transform="translate(34,20)"/>
<path d="M0,0 L5,5 L4,9 L0,9 L-1,12 L-2,6 L-1,5 L-4,4 L-4,1 Z " fill="#352824" transform="translate(111,31)"/>
<path d="M0,0 L1,0 L2,7 L4,7 L4,9 L6,9 L6,16 L3,13 L2,16 L0,16 Z " fill="#23151C" transform="translate(66,0)"/>
<path d="M0,0 L5,5 L4,9 L1,11 L-2,11 L-1,1 Z " fill="#1A1319" transform="translate(73,7)"/>
<path d="M0,0 L0,3 L-1,5 L1,6 L0,8 L-2,7 L0,12 L-4,10 L-7,10 L-10,10 L-6,6 L-4,6 L-2,1 Z " fill="#25161C" transform="translate(116,65)"/>
<path d="M0,0 L1,3 L5,2 L10,6 L10,13 L7,13 L7,11 L9,11 L7,6 L-4,4 L0,3 Z " fill="#322931" transform="translate(94,20)"/>
<path d="M0,0 L5,0 L5,5 L2,7 L-1,7 L-1,1 Z " fill="#190C0F" transform="translate(105,21)"/>
<path d="M0,0 L3,1 L3,11 L0,14 Z " fill="#2A2326" transform="translate(23,23)"/>
<path d="M0,0 L3,0 L5,5 L4,10 L1,9 L0,7 Z " fill="#302B30" transform="translate(73,0)"/>
<path d="M0,0 L2,0 L2,7 L-3,7 L-2,2 Z " fill="#2D252B" transform="translate(38,78)"/>
<path d="M0,0 L3,2 L2,5 L0,2 Z M0,5 L0,8 L-6,11 L-9,10 L-7,9 L-6,6 L-6,8 Z " fill="#231E28" transform="translate(77,10)"/>
<path d="M0,0 L1,3 L-2,3 L-1,14 L-4,15 L-3,2 Z " fill="#2C2635" transform="translate(61,29)"/>
<path d="M0,0 L5,0 L5,5 L0,5 Z " fill="#524951" transform="translate(116,49)"/>
<path d="M0,0 L2,0 L1,4 L-7,4 L-6,1 Z " fill="#524D52" transform="translate(92,26)"/>
<path d="M0,0 L3,0 L4,5 L0,7 L-1,2 Z " fill="#2E282E" transform="translate(35,20)"/>
<path d="M0,0 L2,0 L3,5 L0,5 L0,7 L-2,7 L-2,2 Z " fill="#272435" transform="translate(94,38)"/>
<path d="M0,0 L6,0 L6,4 L0,4 Z " fill="#5A5760" transform="translate(83,36)"/>
<path d="M0,0 L3,0 L4,3 L-3,6 L-6,6 L-2,4 Z " fill="#1E1C20" transform="translate(24,68)"/>
<path d="M0,0 L4,0 L4,4 L-1,4 Z " fill="#3B2E35" transform="translate(47,81)"/>
<path d="M0,0 L7,1 L6,3 L1,4 L-1,2 Z " fill="#271A1B" transform="translate(104,34)"/>
<path d="M0,0 L3,1 L3,3 L7,3 L7,5 L3,6 L0,2 Z " fill="#313143" transform="translate(60,32)"/>
<path d="M0,0 L3,2 L3,7 L0,8 Z " fill="#342D34" transform="translate(28,29)"/>
<path d="M0,0 L2,0 L3,6 L6,7 L2,7 L2,4 L-1,4 Z " fill="#3F323E" transform="translate(104,44)"/>
<path d="M0,0 L3,3 L3,7 L0,6 L-1,1 Z " fill="#180A0A" transform="translate(117,26)"/>
<path d="M0,0 L7,1 L6,3 L0,3 Z " fill="#27314C" transform="translate(62,22)"/>
<path d="M0,0 L3,0 L3,7 L-1,4 Z " fill="#282126" transform="translate(69,9)"/>
<path d="M0,0 L3,0 L3,6 L0,6 Z " fill="#0A0306" transform="translate(69,0)"/>
<path d="M0,0 L6,0 L6,3 L0,3 Z " fill="#081110" transform="translate(22,82)"/>
<path d="M0,0 L3,1 L1,3 L0,7 L-2,7 L-2,2 Z " fill="#20171E" transform="translate(35,78)"/>
<path d="M0,0 L1,3 L3,3 L3,7 L1,7 L0,9 Z " fill="#342D38" transform="translate(101,34)"/>
<path d="M0,0 L8,0 L6,4 L6,2 L0,3 Z " fill="#362F35" transform="translate(82,17)"/>
<path d="M0,0 L3,0 L3,5 L0,6 Z " fill="#0F0A0F" transform="translate(73,11)"/>
<path d="M0,0 L1,0 L1,6 L4,7 L4,10 L1,9 L0,7 Z " fill="#292329" transform="translate(73,0)"/>
<path d="M0,0 L1,0 L1,6 L-2,6 L-2,1 Z " fill="#221A20" transform="translate(56,39)"/>
<path d="M0,0 L3,1 L3,4 L-1,4 Z " fill="#555966" transform="translate(95,55)"/>
<path d="M0,0 L4,1 L3,4 L0,4 Z " fill="#352D35" transform="translate(56,58)"/>
<path d="M0,0 L4,0 L3,4 L0,3 Z " fill="#4D424F" transform="translate(106,56)"/>
<path d="M0,0 L3,1 L4,5 L0,3 Z " fill="#312123" transform="translate(114,72)"/>
<path d="M0,0 L4,1 L4,4 L0,4 Z " fill="#514A57" transform="translate(97,26)"/>
<path d="M0,0 L4,0 L4,3 L0,3 Z " fill="#2C2834" transform="translate(114,82)"/>
<path d="M0,0 L4,0 L4,3 L0,3 Z " fill="#686069" transform="translate(117,50)"/>
<path d="M0,0 L3,1 L2,5 L0,5 Z " fill="#30232A" transform="translate(57,39)"/>
<path d="M0,0 L4,0 L4,3 L0,3 Z " fill="#150705" transform="translate(105,23)"/>
<path d="M0,0 L2,4 L-1,6 L-1,1 Z " fill="#382F38" transform="translate(69,12)"/>
<path d="M0,0 L2,0 L1,4 L-1,4 Z " fill="#40404B" transform="translate(88,56)"/>
<path d="M0,0 L3,0 L3,3 L0,4 Z " fill="#201F27" transform="translate(85,52)"/>
<path d="M0,0 L2,4 L-2,4 Z " fill="#483A42" transform="translate(84,47)"/>
<path d="M0,0 L2,0 L1,4 L-1,4 Z " fill="#5A545D" transform="translate(92,26)"/>
<path d="M0,0 L3,0 L3,3 L0,3 Z " fill="#51474F" transform="translate(48,82)"/>
<path d="M0,0 L3,3 L-1,3 Z " fill="#383138" transform="translate(36,22)"/>
<path d="M0,0 L2,0 L0,4 L-2,3 Z " fill="#1D1A1E" transform="translate(108,16)"/>
<path d="M0,0 L3,1 L3,3 L0,3 Z " fill="#3C313A" transform="translate(36,82)"/>
<path d="M0,0 L3,1 L0,4 Z " fill="#3C2B35" transform="translate(115,59)"/>
</svg>
