<?xml version="1.0" encoding="UTF-8"?>
<!-- Generator: visioncortex VTracer 0.6.5 -->
<svg version="1.1" xmlns="http://www.w3.org/2000/svg" width="150" height="85">
<path d="M0,0 L150,0 L150,85 L0,85 Z " fill="#151822" transform="translate(0,0)"/>
<path d="M0,0 L46,0 L45,10 L43,10 L41,14 L37,16 L37,23 L36,24 L35,32 L38,33 L40,39 L41,42 L39,42 L39,47 L41,48 L44,57 L51,60 L57,60 L59,64 L59,78 L62,79 L62,70 L65,70 L65,67 L75,67 L75,71 L77,71 L78,68 L79,79 L91,77 L100,78 L100,80 L104,80 L104,77 L107,75 L109,67 L112,65 L120,64 L144,64 L144,66 L140,67 L140,74 L142,74 L143,71 L145,71 L145,68 L150,68 L150,85 L0,85 Z M37,38 Z M36,39 Z " fill="#4C5663" transform="translate(0,0)"/>
<path d="M0,0 L4,1 L3,10 L1,10 L-1,14 L-5,16 L-5,23 L-6,24 L-7,32 L-4,33 L-2,39 L-1,42 L-3,42 L-3,47 L-1,48 L2,57 L9,60 L15,60 L17,64 L17,78 L20,79 L20,70 L23,70 L23,67 L33,67 L33,71 L35,71 L36,68 L37,79 L49,77 L58,78 L58,80 L62,80 L62,77 L65,75 L67,67 L70,65 L78,64 L102,64 L102,66 L98,67 L98,74 L100,74 L101,71 L103,71 L103,68 L108,68 L108,85 L-7,85 L-6,80 L-2,78 L-2,81 L9,80 L8,74 L6,74 L3,65 L1,65 L-2,75 L-4,75 L-4,73 L-9,75 L-18,75 L-19,71 L-19,63 L-12,63 L-10,64 L-10,70 L-4,70 L-5,60 L-7,50 L-14,46 L-15,40 L-11,35 L-15,31 L-13,23 L-7,21 L-6,13 L-5,8 L-1,6 Z M-5,38 Z M-6,39 Z " fill="#27333E" transform="translate(42,0)"/>
<path d="M0,0 L7,3 L9,7 L11,22 L10,24 L4,24 L4,18 L-5,17 L-4,28 L5,28 L10,27 L10,29 L12,29 L14,19 L18,19 L20,23 L20,28 L22,28 L23,34 L21,35 L12,35 L11,33 L8,35 L7,39 L-28,39 L-28,9 L-14,9 L-10,3 L-5,2 L-2,10 L0,11 L1,15 L6,15 L7,12 L5,9 L5,6 L3,6 L2,2 L0,2 Z " fill="#485665" transform="translate(28,46)"/>
<path d="M0,0 L4,1 L3,10 L1,10 L-1,14 L-5,16 L-5,23 L-6,24 L-7,32 L-4,33 L-3,36 L-6,42 L-4,52 L0,60 L7,64 L7,66 L9,66 L9,69 L11,69 L11,65 L14,65 L15,82 L13,82 L13,85 L-7,85 L-6,80 L-2,78 L-2,81 L9,80 L8,74 L6,74 L3,65 L1,65 L-2,75 L-4,75 L-4,73 L-9,75 L-18,75 L-19,71 L-19,63 L-12,63 L-10,64 L-10,70 L-4,70 L-5,60 L-7,50 L-14,46 L-15,40 L-11,35 L-15,31 L-13,23 L-7,21 L-6,13 L-5,8 L-1,6 Z " fill="#363E4A" transform="translate(42,0)"/>
<path d="M0,0 L21,0 L23,7 L25,7 L26,4 L28,4 L28,1 L33,1 L33,18 L7,18 L3,14 L3,12 L1,12 L-3,7 L-4,1 Z " fill="#71727A" transform="translate(117,67)"/>
<path d="M0,0 L34,0 L33,8 L31,10 L11,11 L8,17 L5,18 L-6,18 L-7,16 L-4,10 L-2,5 L0,5 Z " fill="#383747" transform="translate(50,0)"/>
<path d="M0,0 L2,1 L-11,14 L-14,17 L-2,15 L-1,17 L3,16 L3,13 L7,14 L8,18 L6,18 L6,25 L9,25 L13,33 L12,38 L11,35 L7,33 L6,26 L1,28 L-2,33 L-5,34 L-17,33 L-17,16 L-15,16 L-14,13 L-8,8 L-3,3 Z " fill="#5B6975" transform="translate(17,22)"/>
<path d="M0,0 L24,0 L24,2 L20,3 L20,8 L18,4 L-7,4 L-5,12 L-2,13 L-2,15 L0,15 L4,21 L-17,21 L-14,12 L-11,3 L-8,1 Z " fill="#484950" transform="translate(120,64)"/>
<path d="M0,0 L3,0 L6,8 L8,9 L8,14 L1,15 L0,23 L-5,22 L-7,17 L-6,14 L-4,15 L-4,12 L-14,15 L-17,18 L-20,19 L-20,7 L-6,7 L-2,1 Z " fill="#708994" transform="translate(20,48)"/>
<path d="M0,0 L12,0 L13,4 L20,6 L20,8 L18,8 L18,19 L17,20 L10,20 L7,14 L1,11 L0,7 Z " fill="#454353" transform="translate(120,0)"/>
<path d="M0,0 L3,0 L4,11 L8,12 L12,16 L13,19 L20,19 L20,10 L21,8 L23,8 L23,6 L18,5 L15,2 L15,0 L33,0 L33,8 L24,10 L23,13 L24,20 L15,22 L11,20 L9,16 L0,11 Z " fill="#292832" transform="translate(117,0)"/>
<path d="M0,0 L6,0 L5,5 L2,5 L2,7 L0,7 L1,10 L0,16 L-3,17 L-2,24 L-7,25 L-8,22 L-15,24 L-20,24 L-19,21 L-11,14 L-4,6 L-2,6 L-2,1 Z " fill="#606B77" transform="translate(23,15)"/>
<path d="M0,0 L5,0 L5,2 L14,5 L16,6 L16,12 L-8,12 L-8,4 L-5,4 L-4,2 Z " fill="#6D7E8D" transform="translate(8,73)"/>
<path d="M0,0 L4,2 L5,10 L7,10 L8,16 L6,17 L-3,17 L-4,15 L-7,17 L-8,21 L-13,21 L-14,15 L-11,14 L-10,10 L-5,9 L-5,11 L-3,11 L-1,1 Z " fill="#4A5C6B" transform="translate(43,64)"/>
<path d="M0,0 L5,0 L7,2 L7,11 L23,12 L25,15 L-7,15 L-3,10 L-2,3 Z " fill="#50616D" transform="translate(68,70)"/>
<path d="M0,0 L14,0 L15,1 L15,12 L0,12 Z " fill="#373747" transform="translate(0,40)"/>
<path d="M0,0 L5,0 L5,17 L-10,17 L-7,11 L-5,11 L-5,6 L-3,6 L-2,3 L0,3 Z " fill="#2F485F" transform="translate(145,68)"/>
<path d="M0,0 L6,0 L6,8 L1,8 L1,11 L-2,14 L-4,14 L-4,7 L0,6 L0,4 L-24,5 L-32,6 L-35,7 L-36,15 L-38,16 L-36,6 L-31,3 L-26,2 L0,2 Z " fill="#2D3139" transform="translate(144,60)"/>
<path d="M0,0 L5,0 L8,4 L9,8 L7,8 L8,17 L5,23 L2,20 L-1,15 L-1,2 Z " fill="#292730" transform="translate(134,37)"/>
<path d="M0,0 L10,0 L12,5 L16,6 L17,10 L16,12 L14,12 L13,15 L10,15 L10,10 L0,10 Z " fill="#5F6472" transform="translate(0,0)"/>
<path d="M0,0 L1,0 L2,11 L14,9 L23,10 L23,12 L27,12 L28,9 L27,15 L26,17 L16,17 L14,15 L0,13 Z " fill="#231F2E" transform="translate(77,68)"/>
<path d="M0,0 L13,0 L13,6 L6,6 L6,12 L-3,12 L-3,5 Z " fill="#5A6773" transform="translate(29,0)"/>
<path d="M0,0 L21,0 L21,1 L7,1 L7,13 L7,15 L9,18 L5,16 L3,12 L1,12 L-3,7 L-4,1 Z " fill="#63676D" transform="translate(117,67)"/>
<path d="M0,0 L7,0 L9,1 L9,7 L11,7 L10,12 L1,12 L0,8 Z " fill="#22212F" transform="translate(23,63)"/>
<path d="M0,0 L10,0 L10,4 L12,4 L12,14 L10,14 L9,5 L3,3 L1,13 L-4,18 L-7,18 L-7,16 L-3,13 L-2,3 L0,3 Z " fill="#2F3D4A" transform="translate(65,67)"/>
<path d="M0,0 L6,1 L10,3 L10,5 L2,5 L1,10 L-8,10 L-8,5 L-4,4 L-3,1 Z " fill="#8A9FB4" transform="translate(8,75)"/>
<path d="M0,0 L4,1 L3,10 L1,10 L-1,14 L-5,16 L-5,23 L-6,24 L-7,32 L-9,31 L-8,22 L-7,21 L-6,13 L-5,8 L-1,6 Z " fill="#303B48" transform="translate(42,0)"/>
<path d="M0,0 L2,0 L2,7 L-1,7 L-1,9 L-7,14 L-9,14 L-9,16 L-16,17 L-15,14 L-7,7 Z " fill="#7F8895" transform="translate(19,22)"/>
<path d="M0,0 L3,3 L1,4 L1,9 L3,10 L6,19 L14,23 L14,24 L7,24 L3,22 L-2,11 L-3,3 Z " fill="#212F3B" transform="translate(38,38)"/>
<path d="M0,0 L4,0 L4,7 L12,11 L12,12 L-7,12 L-3,7 L0,7 Z " fill="#5B7883" transform="translate(68,73)"/>
<path d="M0,0 L7,0 L10,7 L10,13 L9,11 L7,11 L4,2 L2,2 L-1,12 L-3,12 L-3,10 L-8,11 L-7,7 L-3,7 L-3,1 Z " fill="#3B4B5A" transform="translate(41,63)"/>
<path d="M0,0 L10,0 L10,6 L8,9 L0,9 L0,6 Z " fill="#252F38" transform="translate(51,20)"/>
<path d="M0,0 L9,0 L11,3 L10,6 L6,7 L3,10 L0,11 Z " fill="#7F98A1" transform="translate(0,56)"/>
<path d="M0,0 L6,0 L6,4 L8,4 L10,10 L8,12 L3,11 L1,9 Z " fill="#585666" transform="translate(124,0)"/>
<path d="M0,0 L5,0 L5,2 L1,3 L1,8 L-1,4 L-22,4 L-26,5 L-28,8 L-27,3 L-26,2 Z " fill="#50535D" transform="translate(139,64)"/>
<path d="M0,0 L10,0 L9,4 L3,9 L2,11 L0,11 Z " fill="#303B46" transform="translate(0,27)"/>
<path d="M0,0 L7,0 L7,10 L1,10 L-1,5 Z " fill="#0C0627" transform="translate(143,10)"/>
<path d="M0,0 L3,0 L3,16 L0,16 L-2,12 L-2,2 Z " fill="#4E4D56" transform="translate(137,40)"/>
<path d="M0,0 L7,0 L12,1 L12,2 L5,3 L4,11 L-1,10 L-3,5 L-2,2 L0,3 Z " fill="#6F7F8B" transform="translate(16,60)"/>
<path d="M0,0 L7,2 L7,4 L5,4 L5,15 L4,16 L-3,16 L-6,10 L-8,8 L-3,9 L-2,14 L2,15 L2,5 Z " fill="#373444" transform="translate(133,4)"/>
<path d="M0,0 L1,0 L2,11 L10,12 L9,14 L1,13 L-8,11 L-8,7 L-5,7 L-5,9 L-1,9 L-1,1 Z " fill="#373D4C" transform="translate(22,63)"/>
<path d="M0,0 L12,0 L13,1 L13,12 L-2,12 L-2,9 L5,9 L12,11 L11,3 L9,2 L6,3 L0,1 Z " fill="#3A4C59" transform="translate(2,40)"/>
<path d="M0,0 L5,1 L13,3 L13,5 L16,4 L16,6 L6,6 L4,4 L-6,3 L-5,1 Z " fill="#302F3A" transform="translate(87,79)"/>
<path d="M0,0 L2,0 L2,9 L-7,9 L-6,5 Z " fill="#353A48" transform="translate(148,71)"/>
<path d="M0,0 L7,3 L9,7 L10,17 L6,15 L7,12 L5,9 L5,6 L3,6 L2,2 L0,2 Z " fill="#3E515E" transform="translate(28,46)"/>
<path d="M0,0 L5,0 L5,5 L0,5 L0,8 L-3,11 L-5,11 L-5,4 L0,4 Z " fill="#2C2E37" transform="translate(145,63)"/>
<path d="M0,0 L7,6 L13,8 L15,9 L15,12 L10,11 L3,6 L3,4 L-1,3 L-5,4 L-5,1 Z " fill="#1D1D27" transform="translate(101,31)"/>
<path d="M0,0 L6,0 L5,5 L0,6 L-1,14 L-2,14 L-2,7 L-4,6 L-2,6 L-2,1 Z M-5,14 L-2,15 L-5,16 Z " fill="#65707D" transform="translate(23,15)"/>
<path d="M0,0 L9,0 L10,3 L7,5 L-2,5 L-2,1 Z " fill="#434E51" transform="translate(47,12)"/>
<path d="M0,0 L3,1 L3,12 L-3,12 L-2,7 Z " fill="#738290" transform="translate(44,68)"/>
<path d="M0,0 L1,2 L4,3 L4,8 L1,10 L-4,10 L-1,1 Z " fill="#626467" transform="translate(109,75)"/>
<path d="M0,0 L2,0 L2,5 L-2,7 L-3,12 L-6,12 L-7,6 L-4,5 L-3,1 Z " fill="#576978" transform="translate(36,73)"/>
<path d="M0,0 L8,0 L7,5 L2,8 L0,7 Z " fill="#2C313F" transform="translate(0,10)"/>
<path d="M0,0 L4,2 L4,6 L0,7 L-4,10 L-6,10 L-6,5 L-2,2 L0,2 Z " fill="#2B3946" transform="translate(9,63)"/>
<path d="M0,0 L1,0 L1,8 L6,11 L6,14 L3,17 L1,17 L0,19 L-2,17 L2,12 L-2,8 Z " fill="#3C4754" transform="translate(29,23)"/>
<path d="M0,0 L10,0 L10,3 L7,5 L-1,5 Z " fill="#747D85" transform="translate(10,80)"/>
<path d="M0,0 L5,0 L5,3 L-3,9 L-4,12 L-6,12 L-7,15 L-8,13 L-7,11 L-5,11 L-5,6 L-3,6 L-2,3 L0,3 Z " fill="#44444E" transform="translate(145,68)"/>
<path d="M0,0 L8,0 L8,6 L-1,6 L1,5 L-1,1 Z " fill="#231C26" transform="translate(142,40)"/>
<path d="M0,0 L14,0 L14,3 L2,4 L0,3 Z " fill="#252A38" transform="translate(10,0)"/>
<path d="M0,0 L1,3 L12,2 L11,4 L4,5 L3,7 L-4,7 L-3,2 Z " fill="#374856" transform="translate(39,78)"/>
<path d="M0,0 L3,4 L6,10 L10,12 L10,13 L2,14 Z " fill="#304551" transform="translate(36,50)"/>
<path d="M0,0 L7,1 L6,8 L2,9 L2,4 L0,4 Z " fill="#717885" transform="translate(8,6)"/>
<path d="M0,0 L14,1 L16,4 L3,4 L0,1 Z " fill="#3A4F5B" transform="translate(77,81)"/>
<path d="M0,0 L5,0 L2,7 L-1,8 L-12,8 L-13,6 L-11,3 L-11,7 L-2,6 L1,5 Z " fill="#2C353A" transform="translate(56,10)"/>
<path d="M0,0 L2,1 L1,10 L-1,10 L-3,14 L-7,16 L-4,10 L-2,7 Z " fill="#202A36" transform="translate(44,0)"/>
<path d="M0,0 L6,0 L10,5 L0,5 Z " fill="#251E18" transform="translate(114,80)"/>
<path d="M0,0 L6,0 L2,1 L2,3 L-6,4 L-9,5 L-10,13 L-12,14 L-10,4 L-5,1 Z " fill="#272B32" transform="translate(118,62)"/>
<path d="M0,0 L8,0 L8,5 L0,5 Z " fill="#727B88" transform="translate(0,20)"/>
<path d="M0,0 L1,0 L2,11 L14,9 L14,11 L5,13 L0,13 Z " fill="#1E2833" transform="translate(77,68)"/>
<path d="M0,0 L10,0 L9,4 L6,5 L1,4 Z " fill="#272533" transform="translate(132,0)"/>
<path d="M0,0 L0,3 L-1,10 L-6,15 L-9,15 L-9,13 L-5,10 L-3,10 L-3,2 Z " fill="#3C4E5C" transform="translate(67,70)"/>
<path d="M0,0 L3,0 L6,8 L8,9 L8,12 L5,12 L0,4 L0,2 L-2,1 Z " fill="#697D88" transform="translate(20,48)"/>
<path d="M0,0 L6,0 L6,6 L1,6 L0,5 Z " fill="#798693" transform="translate(28,3)"/>
<path d="M0,0 L3,0 L2,5 L-1,12 L-5,13 L-3,9 L-2,5 L0,5 Z " fill="#2B2D3B" transform="translate(50,0)"/>
<path d="M0,0 L2,0 L4,6 L2,8 L-3,7 L-5,3 L0,5 Z " fill="#504F5F" transform="translate(130,4)"/>
<path d="M0,0 L3,0 L3,8 L5,8 L5,10 L0,10 Z " fill="#484D5B" transform="translate(0,0)"/>
<path d="M0,0 L8,1 L8,2 L1,3 L0,11 L-5,10 L-4,8 L-2,9 L-2,2 Z " fill="#68717D" transform="translate(20,60)"/>
<path d="M0,0 L4,1 L6,4 L3,7 L0,8 Z " fill="#758793" transform="translate(0,59)"/>
<path d="M0,0 L6,1 L10,3 L10,5 L2,5 L2,1 Z " fill="#8A9CAD" transform="translate(8,75)"/>
<path d="M0,0 L5,0 L5,2 L0,3 L-17,2 L-17,1 Z " fill="#4A4C54" transform="translate(139,64)"/>
<path d="M0,0 L2,0 L2,10 L-3,10 L-3,7 L-1,6 Z " fill="#1A1E25" transform="translate(148,50)"/>
<path d="M0,0 L3,1 L1,4 L-7,4 L-7,1 Z " fill="#26272F" transform="translate(58,25)"/>
<path d="M0,0 L7,1 L7,5 L0,5 Z " fill="#A2BDD3" transform="translate(0,80)"/>
<path d="M0,0 L5,2 L9,5 L3,5 L3,10 L-1,9 L1,8 L1,3 Z " fill="#47464A" transform="translate(111,75)"/>
<path d="M0,0 L3,0 L3,5 L-5,5 L-5,3 Z " fill="#476D87" transform="translate(147,80)"/>
<path d="M0,0 L3,0 L5,3 L4,13 L3,13 L2,4 L-2,3 L-2,1 Z " fill="#585C6A" transform="translate(12,37)"/>
<path d="M0,0 L4,0 L4,3 L0,3 L0,10 L-2,10 L-2,3 Z " fill="#586673" transform="translate(68,70)"/>
<path d="M0,0 L2,0 L2,7 L-3,6 L-2,2 Z " fill="#292833" transform="translate(148,71)"/>
<path d="M0,0 L10,0 L9,4 L4,8 L5,4 L7,4 L7,1 L0,1 Z " fill="#3D4753" transform="translate(0,27)"/>
<path d="M0,0 L2,0 L2,7 L-1,7 L-2,9 L-2,6 L1,6 L-1,4 L-4,7 L-6,6 Z " fill="#798390" transform="translate(19,22)"/>
<path d="M0,0 L13,0 L13,3 L6,3 L6,1 L0,1 Z " fill="#6D7986" transform="translate(28,2)"/>
<path d="M0,0 L4,0 L3,7 L0,7 Z " fill="#687582" transform="translate(68,73)"/>
<path d="M0,0 L6,0 L6,5 L4,5 L4,3 L-1,4 Z " fill="#2E4050" transform="translate(34,70)"/>
<path d="M0,0 L5,0 L5,3 L3,3 L1,5 L-4,4 L-6,5 L-5,2 Z " fill="#5B6C78" transform="translate(11,60)"/>
<path d="M0,0 L4,4 L3,9 L2,6 L-2,4 L-2,1 Z " fill="#56727B" transform="translate(26,51)"/>
<path d="M0,0 L3,3 L1,4 L0,9 L-2,9 L-3,3 Z " fill="#2A2A39" transform="translate(38,38)"/>
<path d="M0,0 L12,0 L13,1 L13,7 L11,3 L9,2 L6,3 L0,1 Z " fill="#494859" transform="translate(2,40)"/>
<path d="M0,0 L3,1 L3,11 L0,8 Z " fill="#6D8392" transform="translate(44,68)"/>
<path d="M0,0 L2,1 L-1,3 L-1,9 L1,10 L0,13 L-3,12 L-3,2 Z " fill="#556877" transform="translate(3,65)"/>
<path d="M0,0 L2,1 L2,7 L-2,7 L-2,2 Z " fill="#44586A" transform="translate(28,78)"/>
<path d="M0,0 L2,0 L2,5 L0,5 L-2,10 L-4,11 L-2,3 L0,3 Z " fill="#656673" transform="translate(138,74)"/>
<path d="M0,0 L3,0 L3,2 L-3,3 L-4,7 L-8,7 L-7,4 L-5,4 L-4,2 Z " fill="#758D9D" transform="translate(8,73)"/>
<path d="M0,0 L2,0 L1,5 L-3,7 L-3,2 Z " fill="#1D2A37" transform="translate(6,66)"/>
<path d="M0,0 L1,3 L-2,5 L-3,8 L-5,8 L-6,11 L-7,9 L-6,7 L-4,7 L-4,2 Z " fill="#4F505C" transform="translate(144,72)"/>
<path d="M0,0 L2,1 L1,7 L-5,6 L-3,2 L-3,4 L0,4 Z " fill="#43505E" transform="translate(13,65)"/>
<path d="M0,0 L4,1 L4,6 L0,6 L-1,2 Z " fill="#232936" transform="translate(28,63)"/>
<path d="M0,0 L2,0 L3,11 L1,11 L0,7 Z " fill="#383546" transform="translate(120,0)"/>
<path d="M0,0 L2,0 L4,5 L-1,7 L-1,1 Z " fill="#6B6D7C" transform="translate(18,43)"/>
<path d="M0,0 L7,0 L7,3 L0,3 Z " fill="#5D656F" transform="translate(13,80)"/>
<path d="M0,0 L4,1 L3,6 L0,6 Z " fill="#566D7D" transform="translate(35,64)"/>
<path d="M0,0 L3,0 L4,2 L4,9 L1,5 Z " fill="#26323E" transform="translate(36,47)"/>
<path d="M0,0 L1,3 L0,4 L-1,12 L-3,11 L-2,2 Z " fill="#263440" transform="translate(36,20)"/>
<path d="M0,0 L6,0 L6,3 L-1,4 Z " fill="#596774" transform="translate(29,16)"/>
<path d="M0,0 L7,0 L7,3 L0,3 Z " fill="#323946" transform="translate(17,0)"/>
<path d="M0,0 L3,0 L2,5 L-3,8 L-5,7 L-5,5 L1,3 L2,1 Z " fill="#383D4B" transform="translate(5,10)"/>
<path d="M0,0 L5,0 L2,7 L0,3 Z " fill="#202E34" transform="translate(56,10)"/>
<path d="M0,0 L2,1 L2,8 L1,4 L-5,4 Z " fill="#98B1C7" transform="translate(6,77)"/>
<path d="M0,0 L9,1 L9,4 L5,4 L5,2 L0,2 Z " fill="#221A25" transform="translate(95,76)"/>
<path d="M0,0 L5,0 L5,4 L-2,3 Z " fill="#819AA4" transform="translate(15,56)"/>
<path d="M0,0 L1,0 L1,13 L-2,13 L-2,10 L0,10 Z " fill="#494952" transform="translate(139,43)"/>
<path d="M0,0 L2,1 L-2,6 L-6,7 L-6,5 Z " fill="#6B7581" transform="translate(16,31)"/>
<path d="M0,0 L2,1 L3,6 L1,7 L1,5 L-2,5 L-1,1 Z " fill="#17212A" transform="translate(49,20)"/>
<path d="M0,0 L7,0 L6,3 L1,3 Z " fill="#171523" transform="translate(134,0)"/>
<path d="M0,0 L5,0 L6,5 L2,3 Z " fill="#75746A" transform="translate(122,80)"/>
<path d="M0,0 L1,4 L-2,7 L-4,7 L-4,3 L0,3 Z " fill="#3D202A" transform="translate(104,77)"/>
<path d="M0,0 L7,0 L5,4 L3,4 L3,2 L0,1 Z " fill="#0D1320" transform="translate(27,70)"/>
<path d="M0,0 L4,0 L5,7 L2,7 L2,1 Z " fill="#394C5C" transform="translate(30,63)"/>
<path d="M0,0 L5,0 L6,3 L0,3 Z " fill="#5D6769" transform="translate(48,13)"/>
<path d="M0,0 L1,0 L2,10 L-1,8 L-1,2 Z " fill="#2C2B3B" transform="translate(119,0)"/>
<path d="M0,0 L9,1 L10,4 L6,3 L0,1 Z " fill="#373949" transform="translate(86,81)"/>
<path d="M0,0 L5,0 L5,3 L-1,3 Z " fill="#313B46" transform="translate(53,22)"/>
<path d="M0,0 L5,1 L5,3 L-3,3 L-4,1 Z " fill="#464C5A" transform="translate(4,16)"/>
<path d="M0,0 L2,0 L2,4 L-4,4 Z " fill="#7A8692" transform="translate(21,81)"/>
<path d="M0,0 L4,0 L4,4 L0,4 Z " fill="#0F141C" transform="translate(146,63)"/>
<path d="M0,0 L4,1 L3,5 L0,4 Z " fill="#808D9A" transform="translate(15,64)"/>
<path d="M0,0 L4,2 L4,4 L-1,4 Z " fill="#91A6B1" transform="translate(6,58)"/>
<path d="M0,0 L2,3 L3,9 L0,8 Z " fill="#1A262F" transform="translate(40,48)"/>
<path d="M0,0 L4,0 L3,5 L0,4 Z " fill="#848C99" transform="translate(10,8)"/>
<path d="M0,0 L6,0 L3,2 L2,5 L0,5 Z " fill="#342E2E" transform="translate(114,80)"/>
<path d="M0,0 L4,0 L3,4 L0,5 Z " fill="#8E9EAB" transform="translate(0,62)"/>
<path d="M0,0 L5,0 L5,3 L0,3 Z " fill="#788491" transform="translate(23,17)"/>
<path d="M0,0 L4,0 L4,4 L0,3 Z " fill="#8F9DAA" transform="translate(29,4)"/>
<path d="M0,0 L6,1 L4,3 L-1,3 Z " fill="#5F605A" transform="translate(106,82)"/>
<path d="M0,0 L2,0 L2,3 L-3,4 L-3,1 Z " fill="#5D6F7E" transform="translate(36,73)"/>
<path d="M0,0 L6,0 L6,3 L0,1 Z M7,0 Z " fill="#15212C" transform="translate(46,58)"/>
<path d="M0,0 L4,4 L2,8 L1,5 Z " fill="#4D6675" transform="translate(28,52)"/>
<path d="M0,0 L3,2 L3,4 L-2,4 Z " fill="#718792" transform="translate(22,56)"/>
<path d="M0,0 L5,1 L4,4 L3,2 L-1,1 Z " fill="#78949B" transform="translate(17,54)"/>
<path d="M0,0 L6,0 L6,3 L2,2 Z " fill="#66737F" transform="translate(35,2)"/>
<path d="M0,0 L1,4 L-3,4 L-2,1 Z " fill="#8393A1" transform="translate(45,75)"/>
<path d="M0,0 L3,0 L3,3 L-2,3 Z " fill="#373942" transform="translate(147,60)"/>
<path d="M0,0 L5,4 L-1,4 Z " fill="#2C3C48" transform="translate(40,58)"/>
<path d="M0,0 L2,3 L0,3 L-1,6 L-2,2 Z " fill="#22232F" transform="translate(39,39)"/>
<path d="M0,0 L2,0 L2,3 L-3,3 Z " fill="#343B50" transform="translate(138,82)"/>
<path d="M0,0 L3,1 L3,3 L-2,3 Z " fill="#B6D2E9" transform="translate(3,82)"/>
<path d="M0,0 L4,1 L4,4 L1,4 Z " fill="#2E3845" transform="translate(28,63)"/>
<path d="M0,0 L2,2 L-1,5 L-3,3 L-1,3 Z " fill="#435967" transform="translate(34,57)"/>
<path d="M0,0 L3,2 L2,5 L-1,2 Z " fill="#394855" transform="translate(33,48)"/>
<path d="M0,0 L2,1 L3,5 L0,5 Z " fill="#342D38" transform="translate(140,40)"/>
<path d="M0,0 L0,3 L-3,4 L-3,1 Z " fill="#202631" transform="translate(3,11)"/>
<path d="M0,0 L3,0 L1,5 L0,5 Z " fill="#555F6C" transform="translate(26,0)"/>
<path d="M0,0 L3,0 L3,3 L0,3 Z " fill="#3B3C43" transform="translate(137,53)"/>
<path d="M0,0 L3,0 L2,3 L0,3 Z " fill="#15151D" transform="translate(141,68)"/>
<path d="M0,0 L2,0 L1,3 L-1,3 Z " fill="#51515B" transform="translate(147,69)"/>
</svg>
