<?xml version="1.0" encoding="UTF-8"?>
<!-- Generator: visioncortex VTracer 0.6.5 -->
<svg version="1.1" xmlns="http://www.w3.org/2000/svg" width="100" height="100">
<path d="M0,0 L16,0 L21,5 L24,10 L23,14 L22,16 L20,16 L20,18 L22,18 L22,21 L20,21 L19,25 L16,33 L17,38 L19,39 L22,30 L36,30 L41,32 L41,36 L38,37 L37,39 L35,39 L37,43 L37,49 L35,49 L35,53 L33,54 L32,67 L28,68 L18,67 L16,67 L17,72 L16,73 L7,73 L5,69 L2,70 L1,73 L-8,73 L-11,60 L-13,55 L-16,53 L-16,43 L-13,42 L-12,35 L-6,32 L-4,29 L-6,29 L-6,27 L-9,26 L-10,21 L-10,8 L-8,8 L-6,3 Z " fill="#03080C" transform="translate(42,18)"/>
<path d="M0,0 L14,0 L19,2 L19,6 L16,7 L15,9 L13,9 L15,13 L15,19 L13,19 L13,23 L11,24 L10,37 L6,38 L-4,37 L-6,37 L-5,42 L-6,43 L-15,43 L-17,39 L-20,40 L-21,43 L-30,43 L-32,36 L-31,32 L-30,33 L-25,33 L-24,30 L-26,30 L-26,28 L-24,28 L-26,23 L-26,20 L9,20 L3,19 L4,17 L11,16 L12,12 L8,11 L10,11 L10,9 L12,8 L14,2 L1,2 L0,6 L-1,3 Z " fill="#010507" transform="translate(64,48)"/>
<path d="M0,0 L16,0 L21,5 L24,10 L23,14 L22,16 L20,16 L20,18 L22,18 L22,21 L15,20 L15,23 L11,22 L9,26 L7,26 L7,24 L9,24 L9,20 L13,20 L13,18 L17,18 L17,14 L12,13 L5,12 L5,14 L2,14 L2,16 L0,16 L0,19 L3,19 L3,16 L7,16 L8,20 L-1,22 L-2,24 L-2,18 L-4,18 L-4,22 L-6,22 L-5,25 L-2,25 L-2,27 L0,27 L0,30 L-6,29 L-6,27 L-9,26 L-10,21 L-10,8 L-8,8 L-6,3 Z " fill="#05090C" transform="translate(42,18)"/>
<path d="M0,0 L7,0 L12,2 L12,6 L8,6 L8,8 L4,8 L4,12 L2,12 L2,14 L6,10 L10,11 L10,8 L15,8 L14,13 L11,13 L11,18 L8,19 L8,21 L-3,21 L-4,22 L2,22 L2,24 L-2,24 L-2,31 L0,31 L0,34 L-2,35 L-9,35 L-11,33 L-10,41 L-12,41 L-13,43 L-13,39 L-15,39 L-17,36 L-17,31 L-15,31 L-15,24 L-9,17 L-5,18 L-5,15 L-7,15 L-7,13 L-11,14 L-11,10 L-9,10 L-9,6 L-7,6 L-6,10 L-2,8 L3,8 L2,4 L-2,4 L-2,7 L-5,7 L-5,4 L-3,4 L-3,2 L0,2 Z " fill="#0B1012" transform="translate(47,30)"/>
<path d="M0,0 L13,0 L11,7 L9,7 L9,9 L11,10 L10,15 L3,16 L9,18 L9,19 L-16,19 L-16,17 L-12,16 L-14,11 L-14,7 L-8,7 L-8,11 L-6,11 L-4,13 L-3,9 L-1,9 L-2,3 Z " fill="#0E2E2E" transform="translate(65,50)"/>
<path d="M0,0 L30,0 L30,11 L28,12 L26,10 L0,11 Z " fill="#160D0D" transform="translate(42,72)"/>
<path d="M0,0 L7,0 L12,2 L12,6 L8,6 L8,8 L4,8 L4,12 L2,12 L2,14 L7,10 L9,13 L9,18 L7,16 L2,17 L2,19 L7,19 L7,20 L-1,20 L-3,14 L-5,14 L-5,10 L-2,8 L3,8 L2,4 L-2,4 L-2,7 L-5,7 L-5,4 L-3,4 L-3,2 L0,2 Z " fill="#6A4236" transform="translate(47,30)"/>
<path d="M0,0 L2,0 L2,5 L4,5 L4,12 L2,12 L2,14 L4,14 L4,16 L-2,16 L-4,14 L-3,22 L-5,22 L-6,24 L-6,20 L-8,20 L-10,17 L-10,12 L-8,12 L-8,6 L-2,4 Z " fill="#1B3233" transform="translate(40,49)"/>
<path d="M0,0 L6,0 L6,4 L8,4 L11,7 L15,9 L22,10 L23,12 L-2,12 L-2,10 L2,9 L0,4 Z " fill="#120E0E" transform="translate(51,57)"/>
<path d="M0,0 L17,0 L17,7 L0,7 Z " fill="#2C1A13" transform="translate(51,74)"/>
<path d="M0,0 L13,0 L11,7 L9,7 L9,9 L7,8 L8,6 L4,6 L3,8 L3,6 L0,6 L-1,8 L-2,3 Z " fill="#04191B" transform="translate(65,50)"/>
<path d="M0,0 L3,1 L3,3 L1,4 L0,12 L1,18 L-1,18 L-2,20 L-2,16 L-4,16 L-6,13 L-6,8 L-4,8 L-4,2 Z " fill="#2A3C3C" transform="translate(36,53)"/>
<path d="M0,0 L7,0 L12,2 L12,6 L4,7 L2,6 L2,4 L-2,4 L-2,7 L-5,7 L-5,4 L-3,4 L-3,2 L0,2 Z " fill="#836850" transform="translate(47,30)"/>
<path d="M0,0 L2,1 L1,2 L0,9 L-2,9 L-2,18 L-4,20 L-6,19 L-6,9 L-3,8 L-2,1 Z " fill="#02070A" transform="translate(32,52)"/>
<path d="M0,0 L2,1 L0,11 L0,13 L-3,13 L-3,11 L-5,11 L-5,9 L-7,10 L-8,18 L-9,14 L-13,14 L-13,11 L-9,11 L-9,9 L-15,9 L-14,6 L-14,8 L-3,8 L-3,6 L-1,5 Z " fill="#010507" transform="translate(58,43)"/>
<path d="M0,0 L5,0 L4,5 L1,5 L1,10 L-2,11 L-2,13 L-10,13 L-8,9 L-4,9 L-3,7 L-2,8 L-3,2 L0,3 Z " fill="#473329" transform="translate(57,38)"/>
<path d="M0,0 L6,1 L5,6 L-2,7 L-4,8 L-6,6 L-3,5 L-2,2 L0,2 Z " fill="#0E0E0F" transform="translate(70,59)"/>
<path d="M0,0 L2,0 L2,7 L0,7 L0,9 L2,9 L2,11 L-4,11 L-3,6 L-3,3 L0,3 Z " fill="#223738" transform="translate(42,54)"/>
<path d="M0,0 L3,1 L3,3 L1,4 L0,10 L-4,10 L-4,2 Z " fill="#2B3D3D" transform="translate(36,53)"/>
<path d="M0,0 L3,3 L3,8 L1,6 L-4,7 L-4,9 L1,9 L1,10 L-6,10 L-6,5 L-2,5 Z " fill="#886E54" transform="translate(53,40)"/>
<path d="M0,0 L6,0 L6,4 L8,4 L8,7 L2,7 L2,4 L0,4 Z " fill="#203637" transform="translate(51,57)"/>
<path d="M0,0 L16,0 L21,5 L23,10 L20,10 L20,6 L17,6 L15,2 L0,1 Z " fill="#010406" transform="translate(42,18)"/>
<path d="M0,0 L2,2 L2,6 L0,6 L0,11 L-3,11 L-4,3 L-1,4 Z " fill="#020609" transform="translate(62,53)"/>
<path d="M0,0 L2,1 L2,3 L4,3 L5,5 L7,5 L8,2 L10,7 L8,8 L8,6 L6,6 L4,10 L4,8 L2,8 L2,5 L0,5 Z " fill="#0A2224" transform="translate(30,66)"/>
<path d="M0,0 L6,1 L2,2 L2,5 L-2,4 L-4,8 L-6,8 L-6,6 L-4,6 L-4,2 L0,2 Z " fill="#171111" transform="translate(55,36)"/>
<path d="M0,0 L7,0 L8,4 L0,4 Z " fill="#0A2B2C" transform="translate(69,51)"/>
<path d="M0,0 L2,0 L4,4 L4,9 L2,9 L2,7 L-2,8 L-2,4 L0,4 Z " fill="#0B2123" transform="translate(38,36)"/>
<path d="M0,0 L1,2 L4,2 L5,0 L6,5 L5,6 L0,6 Z " fill="#031719" transform="translate(62,59)"/>
<path d="M0,0 L2,0 L2,2 L4,2 L4,4 L7,4 L8,9 L6,9 L6,5 L3,5 L2,8 L2,5 L0,5 Z " fill="#061A1C" transform="translate(51,52)"/>
<path d="M0,0 L1,2 L4,2 L3,6 L-2,6 L-2,2 L0,2 Z " fill="#041F21" transform="translate(36,76)"/>
<path d="M0,0 L3,0 L3,8 L5,8 L5,11 L2,12 L2,10 L0,10 L0,8 L2,8 L2,1 Z " fill="#0A2324" transform="translate(42,53)"/>
<path d="M0,0 L3,0 L3,8 L2,9 L-4,9 L-4,8 L1,7 L2,3 L-2,2 L0,2 Z " fill="#0F0D0D" transform="translate(74,57)"/>
<path d="M0,0 L4,0 L5,4 L-1,5 L-3,3 L0,3 Z " fill="#191716" transform="translate(45,34)"/>
<path d="M0,0 L4,1 L4,4 L2,4 L1,6 L-2,5 Z " fill="#021013" transform="translate(36,72)"/>
<path d="M0,0 L2,1 L1,7 L-3,7 L-3,4 L-1,4 Z " fill="#304443" transform="translate(35,56)"/>
<path d="M0,0 L2,1 L2,3 L4,3 L4,6 L0,6 L-1,1 Z " fill="#021114" transform="translate(36,62)"/>
<path d="M0,0 L4,0 L3,4 L-2,4 L-2,2 L0,2 Z " fill="#67513F" transform="translate(72,61)"/>
<path d="M0,0 L2,0 L2,2 L5,2 L5,4 L2,4 L1,6 L0,5 Z " fill="#1B3233" transform="translate(30,61)"/>
<path d="M0,0 L2,0 L2,7 L0,7 L0,4 L-3,3 L0,3 Z " fill="#314342" transform="translate(42,54)"/>
<path d="M0,0 L5,1 L1,2 L1,5 L-2,5 L-2,2 L0,2 Z " fill="#544032" transform="translate(44,32)"/>
<path d="M0,0 L1,3 L-3,4 L-3,9 L-4,9 L-4,3 L-2,3 L-2,1 Z " fill="#321614" transform="translate(61,39)"/>
<path d="M0,0 L3,3 L3,8 L-1,3 Z " fill="#6E5743" transform="translate(53,40)"/>
<path d="M0,0 L2,0 L2,7 L-1,3 Z " fill="#5A3E32" transform="translate(45,43)"/>
<path d="M0,0 L5,0 L4,2 L2,2 L2,4 L0,4 Z " fill="#6B2728" transform="translate(57,38)"/>
<path d="M0,0 L4,0 L4,3 L0,3 Z " fill="#122E2E" transform="translate(55,61)"/>
<path d="M0,0 L4,1 L1,3 L-2,2 Z " fill="#0D191B" transform="translate(34,52)"/>
<path d="M0,0 L3,1 L2,4 L0,4 Z " fill="#CA3F46" transform="translate(47,38)"/>
<path d="M0,0 L2,0 L1,4 L-1,1 Z " fill="#72302D" transform="translate(45,38)"/>
<path d="M0,0 L3,0 L2,3 L0,2 Z " fill="#0E2F2F" transform="translate(63,62)"/>
</svg>
