<?xml version="1.0" encoding="UTF-8"?>
<!-- Generator: visioncortex VTracer 0.6.5 -->
<svg version="1.1" xmlns="http://www.w3.org/2000/svg" width="100" height="100">
<path d="M0,0 L22,0 L22,3 L24,3 L24,5 L26,5 L27,10 L27,29 L29,29 L29,33 L32,33 L32,37 L35,37 L35,47 L32,47 L31,50 L29,50 L29,52 L24,52 L24,57 L27,57 L27,63 L26,64 L14,64 L12,54 L9,54 L9,56 L7,56 L7,64 L-1,65 L-6,63 L-6,55 L-4,55 L-4,52 L-8,52 L-8,50 L-11,50 L-11,47 L-13,47 L-13,37 L-11,37 L-11,33 L-8,33 L-8,29 L-6,29 L-4,23 L-6,23 L-6,16 L-4,16 L-4,5 L-2,5 L-2,3 L0,3 Z " fill="#030605" transform="translate(39,27)"/>
</svg>
