<?xml version="1.0" encoding="UTF-8"?>
<!-- Generator: visioncortex VTracer 0.6.5 -->
<svg version="1.1" xmlns="http://www.w3.org/2000/svg" width="100" height="100">
<path d="M0,0 L1,2 L8,2 L9,13 L8,16 L11,16 L12,39 L10,50 L12,50 L12,57 L10,57 L11,60 L13,61 L13,65 L15,65 L16,68 L19,69 L19,72 L16,72 L15,75 L-26,75 L-26,69 L-24,69 L-24,63 L-27,62 L-30,61 L-30,45 L-26,45 L-27,41 L-25,38 L-24,33 L-23,33 L-23,23 L-24,23 L-24,16 L-19,16 L-19,2 L0,2 Z " fill="#010019" transform="translate(56,15)"/>
<path d="M0,0 L4,0 L4,3 L6,3 L6,6 L13,7 L13,11 L15,11 L16,14 L19,15 L19,18 L16,18 L15,21 L-23,21 L-23,18 L-20,18 L-20,15 L-15,15 L-15,12 L-11,12 L-11,9 L-5,9 L-5,3 L0,3 Z " fill="#FE55EB" transform="translate(56,69)"/>
<path d="M0,0 L4,0 L4,3 L6,3 L6,6 L2,5 L0,4 L0,6 L-2,6 L-3,12 L0,12 L0,15 L-2,15 L-2,21 L-23,21 L-23,18 L-20,18 L-20,15 L-15,15 L-15,12 L-11,12 L-11,9 L-5,9 L-5,3 L0,3 Z " fill="#DA0CBB" transform="translate(56,69)"/>
<path d="M0,0 L9,0 L9,6 L8,7 L1,8 L1,10 L6,10 L6,13 L8,13 L8,15 L4,15 L4,13 L0,13 L-1,19 L-3,19 L-3,13 L0,12 L0,9 L-3,9 L-3,3 L0,3 Z " fill="#11062E" transform="translate(58,39)"/>
<path d="M0,0 L6,2 L6,5 L9,5 L9,9 L11,9 L11,11 L5,12 L5,14 L-2,14 L-2,11 L0,11 L0,8 L-3,8 L-2,2 L0,2 Z " fill="#FEA7FD" transform="translate(56,73)"/>
<path d="M0,0 L4,0 L4,3 L6,3 L6,6 L2,5 L0,4 L0,6 L-2,6 L-3,12 L0,12 L0,15 L-2,15 L-2,18 L-8,18 L-8,9 L-5,9 L-5,3 L0,3 Z " fill="#FE59ED" transform="translate(56,69)"/>
<path d="M0,0 L3,0 L4,4 L7,6 L7,8 L4,9 L4,12 L-6,12 L-7,5 L0,5 Z " fill="#2B001F" transform="translate(51,22)"/>
<path d="M0,0 L4,1 L1,1 L1,4 L-2,4 L-2,6 L6,6 L7,9 L-8,9 L-8,6 L-5,6 L-5,3 L0,3 Z " fill="#7E0179" transform="translate(41,81)"/>
<path d="M0,0 L9,0 L9,6 L8,7 L0,7 Z " fill="#660367" transform="translate(58,39)"/>
<path d="M0,0 L8,0 L8,6 L0,6 Z " fill="#A30493" transform="translate(44,39)"/>
<path d="M0,0 L7,0 L7,3 L4,3 L3,6 L-6,6 L-5,3 L0,3 Z " fill="#DE0BBD" transform="translate(68,84)"/>
<path d="M0,0 L4,0 L4,3 L6,3 L6,6 L2,5 L0,4 L0,6 L-5,6 L-5,3 L0,3 Z " fill="#D927C2" transform="translate(56,69)"/>
<path d="M0,0 L7,1 L7,5 L9,5 L10,8 L8,8 L8,6 L4,6 L4,3 L0,3 Z " fill="#B711A2" transform="translate(62,75)"/>
<path d="M0,0 L1,3 L5,3 L6,6 L4,9 L-1,9 L0,6 L2,6 L2,4 L0,4 Z " fill="#FE50E9" transform="translate(65,78)"/>
<path d="M0,0 L8,0 L9,3 L0,3 Z " fill="#920288" transform="translate(39,87)"/>
<path d="M0,0 L3,0 L2,6 L-3,7 L-3,3 L0,3 Z " fill="#F840E0" transform="translate(51,75)"/>
<path d="M0,0 L4,0 L4,6 L0,6 Z " fill="#E41AC5" transform="translate(60,39)"/>
<path d="M0,0 L3,0 L4,7 L0,6 Z " fill="#0A0226" transform="translate(55,42)"/>
<path d="M0,0 L4,0 L4,3 L1,3 L0,6 L-1,4 Z " fill="#900685" transform="translate(71,84)"/>
<path d="M0,0 L3,0 L4,5 L0,5 Z " fill="#150831" transform="translate(51,22)"/>
<path d="M0,0 L6,0 L4,1 L4,3 L0,3 Z " fill="#FE8DFC" transform="translate(57,84)"/>
<path d="M0,0 L3,1 L3,5 L0,5 Z " fill="#F82BD8" transform="translate(46,40)"/>
<path d="M0,0 L5,0 L6,2 L0,3 Z " fill="#070225" transform="translate(35,66)"/>
<path d="M0,0 L4,0 L4,3 L0,3 Z " fill="#C207AA" transform="translate(56,69)"/>
<path d="M0,0 L5,1 L5,3 L2,3 L2,1 Z " fill="#AD049B" transform="translate(43,87)"/>
<path d="M0,0 L2,0 L3,3 L1,6 Z " fill="#F92EDB" transform="translate(68,81)"/>
<path d="M0,0 L3,0 L4,3 L0,3 Z " fill="#E916C7" transform="translate(62,75)"/>
<path d="M0,0 L4,1 L3,3 L0,3 Z " fill="#7F0379" transform="translate(51,72)"/>
<path d="M0,0 L3,0 L3,3 L0,3 Z " fill="#FE7CF8" transform="translate(50,81)"/>
<path d="M0,0 L3,0 L3,3 L0,3 Z " fill="#84017D" transform="translate(45,78)"/>
<path d="M0,0 L3,0 L3,3 L0,3 Z " fill="#EE2CD1" transform="translate(51,75)"/>
<path d="M0,0 L3,0 L3,3 L0,3 Z " fill="#7A0176" transform="translate(48,75)"/>
<path d="M0,0 L2,0 L2,3 L-1,3 Z " fill="#F31DD0" transform="translate(63,87)"/>
<path d="M0,0 L2,0 L2,3 L-1,3 Z " fill="#300440" transform="translate(54,69)"/>
<path d="M0,0 L2,1 Z " fill="#C10BB5" transform="translate(75,88)"/>
<path d="M0,0 Z " fill="#92098C" transform="translate(74,82)"/>
</svg>
