<svg width="215" height="160" viewBox="0 0 215 160" fill="none" xmlns="http://www.w3.org/2000/svg">
<g clip-path="url(#clip0_28_11242)">
<path d="M116.266 6.39123C115.112 6.3797 113.959 6.39123 112.805 6.39123V0H119.15V6.39123C118.193 6.3797 117.224 6.40277 116.266 6.39123Z" fill="#61E9FF"/>
<path d="M36.0641 67.1887C36.1334 65.066 36.018 62.9202 36.0641 60.7975H41.5555C41.5555 61.6742 41.5324 62.5395 41.5555 63.4163C41.5786 64.6737 41.544 65.9428 41.5555 67.2002H36.0641V67.1887Z" fill="#0271A8"/>
<path d="M100.969 18.0316V14.536H106.46C106.46 15.7012 106.448 16.8664 106.46 18.0316H100.969Z" fill="white"/>
<path d="M112.794 18.0316V20.9388C110.682 20.9619 108.56 20.9272 106.448 20.9388C106.448 19.9697 106.46 19.0006 106.448 18.0316H112.794Z" fill="#61E9FF"/>
<path d="M137.032 36.3516C138.843 36.3862 140.689 36.3285 142.523 36.3516C142.546 38.4743 142.477 40.6201 142.523 42.7428C143.769 42.7543 145.027 42.7428 146.273 42.7428C146.273 43.6196 146.249 44.4848 146.273 45.3616C147.138 45.3731 148.003 45.3501 148.868 45.3616C148.868 46.5268 148.868 47.692 148.868 48.8572C149.78 48.8687 154.994 48.6264 155.225 48.8572C155.34 48.9841 155.109 50.7722 155.225 50.8991C155.34 51.026 158.144 50.8068 158.686 50.8991C158.767 51.4413 158.57 54.2678 158.686 54.3947C158.801 54.5216 160.589 54.2678 160.705 54.3947C160.809 54.4985 160.624 56.8058 160.705 57.3019H166.761V63.4047H173.106C173.106 65.239 173.083 67.0964 173.106 68.9307C174.918 68.9076 176.764 68.9422 178.598 68.9307V72.7147C176.764 72.6801 174.941 72.7378 173.106 72.7147C173.106 71.4572 173.106 70.1882 173.106 68.9307C171.953 68.9422 170.799 68.9307 169.645 68.9307V81.7363H173.106V87.2622C172.553 87.1815 169.761 87.3891 169.645 87.2622C169.53 87.1353 169.761 85.3472 169.645 85.2203C169.553 85.1165 167.223 85.2203 166.761 85.2203V79.1175H160.693V85.2203C162.701 85.2203 164.731 85.1857 166.75 85.2203V89.881H160.693V85.2203C156.759 85.2203 152.802 85.2087 148.868 85.2203V89.881H142.523V85.2203H148.868C148.868 83.1899 148.868 81.1479 148.868 79.1175C152.802 79.129 156.759 79.0944 160.693 79.1175V72.7262H148.868V79.1175H142.523V72.7262H146.273V67.2002C146.273 65.0775 146.273 62.9317 146.273 60.809C145.015 60.809 143.769 60.8205 142.523 60.809C140.712 60.7859 138.866 60.8205 137.032 60.809V54.4178C140.966 54.4293 144.923 54.4062 148.857 54.4178C148.834 52.5835 148.88 50.7261 148.857 48.8802C147.991 48.8687 147.126 48.8918 146.261 48.8802C146.249 47.715 146.284 46.5499 146.261 45.3847C145.015 45.3616 143.758 45.3962 142.5 45.3847C142.5 44.5079 142.523 43.6427 142.5 42.7659C140.689 42.7428 138.843 42.7659 137.009 42.7659V36.3746H137.02L137.032 36.3516ZM160.693 60.7975H158.674V67.1887H160.693V60.7975Z" fill="#0271A8"/>
<path d="M72.1273 72.7147C72.1158 74.8374 72.1273 76.9832 72.1273 79.1059C73.9501 79.129 75.7844 79.0713 77.6187 79.1059V85.2087C75.8074 85.2434 73.9616 85.1857 72.1273 85.2087V89.8695H77.6187V96.2607H72.1273V101.787H77.6187V108.178H83.9638V101.787C81.8526 101.787 79.7299 101.798 77.6187 101.787V96.2607C81.2642 96.2377 84.9328 96.2723 88.5784 96.2607V101.787H98.3844C98.4767 101.787 98.2921 99.7448 98.3844 99.7448H104.73V108.178H119.162V101.787H130.698V96.2607H142.523V101.787H148.868V96.2607H155.213V89.8695H160.705V96.2607C162.712 96.2838 164.742 96.2261 166.773 96.2607V101.798H169.657V96.2607C168.699 96.2607 167.73 96.2723 166.773 96.2607C166.773 94.138 166.773 91.9922 166.773 89.8695C168.884 89.8695 171.007 89.858 173.118 89.8695H178.609V96.2607H175.148V101.787H178.609V108.178C180.721 108.155 182.843 108.213 184.954 108.178C184.954 106.055 184.954 103.909 184.954 101.787H187.55V108.178C186.685 108.178 185.82 108.155 184.954 108.178V114.281H178.609V119.807H160.728V126.198H137.066V119.807H130.721C130.71 121.929 130.744 124.075 130.721 126.198C130.698 128.321 130.733 130.466 130.721 132.589C120.823 132.566 110.902 132.612 101.015 132.589H86.5941V126.198H62.3559V119.807C57.5567 119.818 52.7344 119.784 47.9237 119.807V114.269H44.1743V108.166C43.3091 108.166 42.4438 108.189 41.5786 108.166C39.7674 108.132 37.9215 108.189 36.0872 108.166C35.545 108.166 32.6724 108.305 32.6263 107.993V105.248H36.0872V101.752H41.5671C41.2556 98.9949 41.8555 99.7794 44.1628 99.7101V89.8233C44.7396 89.7311 47.7852 89.9618 47.9121 89.8233C48.039 89.6849 47.7852 87.3315 47.9121 87.2046C48.039 87.0776 50.3925 87.343 50.5079 87.2046C50.6232 87.0776 50.3925 85.2895 50.5079 85.1626C50.6348 85.0242 53.6804 85.2549 54.2572 85.1626V79.0598C54.6149 79.0021 55.8954 79.1521 55.9877 79.0598C56.1146 78.9213 55.8954 75.8526 55.9877 75.2758H59.7371C59.714 76.5333 59.7486 77.8023 59.7371 79.0598H65.7937V72.6685H72.1388V72.7031L72.1273 72.7147ZM65.7707 85.2203H59.714V89.881H65.7707V85.2203ZM59.7255 96.2838V101.81H65.7822V96.2838H59.7255ZM54.2457 101.798H47.9006V108.189H54.2457V101.798ZM155.202 101.798V108.189H160.693V101.798H155.202ZM59.7255 108.213V114.315H68.6663V108.213H59.7255ZM148.857 108.213H142.512V114.315H148.857V108.213ZM173.095 108.213H166.75V114.315H173.095V108.213ZM119.15 114.315H112.805V119.841H119.15V114.315ZM94.6235 119.83V126.221H100.969V119.83H94.6235ZM106.46 126.233H104.73V130.028H106.46V126.233Z" fill="#0271A8"/>
<path d="M88.5668 54.3947C88.5438 58.6517 88.5784 62.9433 88.5668 67.2002C87.0325 67.2002 85.4866 67.1887 83.9407 67.2002V60.809C82.6948 60.8321 81.4373 60.7859 80.1913 60.809V54.4178H88.5668V54.3947Z" fill="#0271A8"/>
<path d="M83.9522 67.1887C83.9638 71.1573 83.9522 75.1489 83.9522 79.1175C85.4866 79.1175 87.0325 79.1059 88.5784 79.1175V72.7262H94.6466V67.2002H100.992V72.7262H94.6466C94.6351 74.8489 94.6466 76.9947 94.6466 79.1175C92.6392 79.1175 90.6088 79.129 88.5899 79.1175C88.5899 81.1479 88.5784 83.1898 88.5899 85.2203H83.9638V89.881C81.8526 89.881 79.7299 89.8926 77.6187 89.881V85.2203C78.1032 85.2203 80.1683 85.3702 80.2144 85.0472V79.1059C79.3492 79.1059 78.4839 79.129 77.6187 79.1059V72.7147C78.4839 72.7031 79.3492 72.7262 80.2144 72.7147V67.1772H83.9638H83.9407L83.9522 67.1887Z" fill="#0271A8"/>
<path d="M119.15 20.9503H124.642V24.4459C125.184 24.5266 127.987 24.319 128.102 24.4459C128.218 24.5728 127.964 26.9378 128.102 27.0647C128.229 27.2031 130.571 26.9262 130.698 27.0647C130.825 27.2031 130.606 30.2718 130.698 30.8487H134.448V36.3746C135.313 36.3746 136.178 36.3516 137.043 36.3746V42.7659C138.866 42.7659 140.7 42.7428 142.535 42.7659C142.546 43.6427 142.523 44.5079 142.535 45.3847C143.781 45.3962 145.038 45.3616 146.284 45.3847C146.307 46.5499 146.273 47.715 146.284 48.8802C147.149 48.8802 148.015 48.8572 148.88 48.8802C148.903 50.7145 148.868 52.5719 148.88 54.4178C144.946 54.4062 140.989 54.4293 137.055 54.4178H130.698C130.698 52.5719 130.698 50.7261 130.698 48.8802H137.055V42.7774H130.698V48.8802H124.642V36.3746H119.15V27.0647C119.15 25.0342 119.185 22.9923 119.15 20.9619H119.127L119.15 20.9503Z" fill="#0271A8"/>
<path d="M181.17 79.1175H184.92C184.92 79.9942 184.897 80.8595 184.92 81.7362C187.031 81.7593 189.154 81.7247 191.276 81.7362C191.253 83.5706 191.311 85.4279 191.276 87.2738C191.276 88.1505 191.288 89.0158 191.276 89.8926H184.92C184.885 87.1815 184.966 84.4589 184.92 81.7478C183.674 81.7362 182.416 81.7478 181.17 81.7478C181.17 80.871 181.194 80.0058 181.17 79.129V79.1175Z" fill="#0271A8"/>
<path d="M116.266 18.0316C117.224 18.0431 118.193 18.02 119.15 18.0316C119.15 19.0006 119.139 19.9697 119.15 20.9388C119.185 22.9692 119.15 25.0112 119.15 27.0416H116.266C116.254 26.1648 116.266 25.2996 116.266 24.4228H112.805V20.9272C113.959 20.9157 115.112 20.9272 116.266 20.9272V18.02V18.0316Z" fill="#0271A8"/>
<path d="M116.266 18.0316V20.9388C115.112 20.9388 113.959 20.9272 112.805 20.9388V18.0316C113.959 18.0316 115.112 18.0085 116.266 18.0316Z" fill="#0271A8"/>
<path d="M80.2029 60.7975C81.4488 60.7744 82.7063 60.809 83.9522 60.7975C83.9522 62.9202 83.9522 65.066 83.9522 67.1887C82.7063 67.1887 81.4488 67.1887 80.2029 67.1887H77.6071V60.7975C78.4724 60.7975 79.3376 60.8205 80.2029 60.7975Z" fill="#61E9FF"/>
<path d="M166.738 85.2203C167.211 85.2203 169.519 85.1164 169.622 85.2203C169.738 85.3472 169.507 87.1353 169.622 87.2622C169.738 87.3891 172.518 87.1699 173.083 87.2622V89.881C170.984 89.8695 168.849 89.881 166.738 89.881V85.2203Z" fill="#61E9FF"/>
<path d="M77.6071 79.1175C78.4724 79.129 79.3376 79.1059 80.2029 79.1175V85.0588C80.1567 85.3703 78.0801 85.2203 77.6071 85.2318V79.1175Z" fill="#61E9FF"/>
<path d="M77.6071 72.7147V79.1059C75.7959 79.0713 73.9501 79.129 72.1158 79.1059V72.7147C73.9385 72.7147 75.7728 72.7493 77.6071 72.7147Z" fill="#61E9FF"/>
<path d="M100.969 36.3516H106.46V32.5676H112.805V36.3516C114.916 36.3516 117.039 36.34 119.15 36.3516H124.642V48.8572H130.698V42.7543H137.055V48.8572H130.698V54.3947H137.055V67.1887H146.296V72.7262H142.546V79.1175H148.891C148.891 81.1479 148.891 83.1898 148.891 85.2203H142.546V89.881H148.891V85.2203C152.825 85.2087 156.782 85.2203 160.716 85.2203V89.881C158.905 89.881 157.059 89.881 155.225 89.881V96.2723H148.88V101.798H142.535V96.2723H130.71V101.798H119.173V108.189H104.741V99.7563H98.396C98.3037 99.7563 98.4883 101.798 98.396 101.798H88.5899V96.2723C84.9444 96.2838 81.2758 96.2492 77.6302 96.2723V101.798C79.7414 101.81 81.8641 101.798 83.9753 101.798V108.189H77.6302V101.798H72.1388V96.2723H77.6302V89.881C79.7414 89.8926 81.8641 89.881 83.9753 89.881V85.2203H88.6015V89.881C90.6203 89.881 92.6392 89.8695 94.6697 89.881C94.6812 92.0038 94.6697 94.1495 94.6697 96.2723H101.015V89.881C98.9036 89.881 96.7808 89.8926 94.6697 89.881V85.2203C92.6623 85.2318 90.6319 85.2087 88.6015 85.2203C88.5899 83.1898 88.6015 81.1479 88.6015 79.1175C90.6088 79.129 92.6392 79.1175 94.6581 79.1175H101.015C101.015 76.9947 101.015 74.8489 101.015 72.7262V67.2002H94.6697V72.7262H88.6015V79.1175H83.9753C83.9753 75.1489 83.9984 71.1573 83.9753 67.1887C85.5097 67.1772 87.0556 67.1887 88.6015 67.1887C88.613 62.9317 88.5784 58.6401 88.6015 54.3832V48.8572H94.6581V36.3516C96.7693 36.3516 98.892 36.3631 101.003 36.3516H100.969ZM100.969 42.7659V48.8687H106.46V42.7659H100.969ZM112.794 54.3947C112.77 58.6517 112.805 62.9202 112.794 67.2002V72.7262H106.448V79.1175H112.794V72.7262H124.618V60.7975H130.675V79.1175H124.618V67.1887C126.626 67.1887 128.656 67.1656 130.675 67.1887V72.7147C128.668 72.7378 126.637 72.7147 124.618 72.7147V79.1059H130.675V72.7147C131.921 72.7032 133.179 72.7147 134.424 72.7147V67.1887C133.179 67.1887 131.921 67.2002 130.675 67.1887V60.7975H124.618V67.1887H119.127C119.127 62.9317 119.15 58.6401 119.127 54.3832V48.8572H112.782V54.3832L112.794 54.3947ZM100.969 54.3947C98.8574 54.3832 96.7347 54.3947 94.6235 54.3947V60.7859H100.969C100.98 61.6627 100.957 62.5279 100.969 63.4047H106.46V54.3832H100.969V54.3947ZM134.436 85.2203C133.975 85.2203 130.687 85.0242 130.687 85.2203V89.881H137.032V85.2203C137.032 84.5512 137.159 79.1521 136.859 79.1059H134.424V85.2203H134.436ZM110.209 89.8695H106.46V93.6535H110.209V89.8695Z" fill="#61E9FF"/>
<path d="M77.6071 85.2203V89.881H72.1158V85.2203C73.9385 85.1972 75.7728 85.2549 77.6071 85.2203Z" fill="#61E9FF"/>
<path d="M166.738 89.881C166.738 92.0038 166.727 94.1495 166.738 96.2723C167.696 96.2838 168.665 96.2723 169.622 96.2723V101.798H166.738V96.2723C164.731 96.2377 162.689 96.2953 160.67 96.2723V89.881H166.738Z" fill="#61E9FF"/>
<path d="M148.857 79.1175V72.7262H160.682V79.1175C156.748 79.0944 152.791 79.129 148.857 79.1175Z" fill="#61E9FF"/>
<path d="M112.794 20.9503C112.794 22.1155 112.794 23.2807 112.794 24.4459V30.8371H116.254C116.231 29.5796 116.278 28.3106 116.254 27.0531H119.139V36.3631C117.027 36.3516 114.905 36.3631 112.782 36.3631V32.5791H106.437V36.3631H100.946V30.8371H106.437V24.4459C106.437 23.2807 106.437 22.1155 106.437 20.9503C108.548 20.9388 110.671 20.9734 112.782 20.9503H112.794Z" fill="#0271A8"/>
<path d="M23.6624 101.798V108.189H18.171C18.1479 109.355 18.1825 110.52 18.171 111.685C17.5942 111.777 14.5485 111.547 14.4216 111.685C14.2947 111.823 14.5485 114.177 14.4216 114.304C14.2947 114.442 11.9528 114.165 11.8259 114.304C11.6298 114.5 11.9759 119.045 11.8259 119.841C10.9607 119.841 10.0954 119.818 9.23019 119.841C9.27634 115.965 9.17251 112.077 9.23019 108.201H18.171C18.171 107.682 18.0787 105.398 18.171 105.305C18.2633 105.213 19.1977 105.444 19.4862 105.028C19.8553 104.486 19.29 102.837 20.0399 102.087C20.5591 101.568 22.7625 101.821 23.6508 101.81H23.6739L23.6624 101.798Z" fill="#002F5E"/>
<path d="M65.7707 54.3947C67.8819 54.3716 70.0046 54.4178 72.1158 54.3947V60.7859H65.7707C65.7937 58.6632 65.7476 56.5174 65.7707 54.3947Z" fill="#61E9FF"/>
<path d="M65.7707 79.1059H59.714C59.7255 77.8484 59.6909 76.5794 59.714 75.3219C59.7255 74.4452 59.7025 73.5799 59.714 72.7031H65.7822H65.7707V79.1059Z" fill="#61E9FF"/>
<path d="M23.6624 101.798C25.6697 101.752 27.7002 101.833 29.7191 101.798V108.189H23.6624V101.798Z" fill="#61E9FF"/>
<path d="M77.5956 42.7659H83.9407V48.8687C81.8295 48.8687 79.7068 48.8572 77.5956 48.8687C77.6071 46.8383 77.5725 44.7963 77.5956 42.7659Z" fill="#61E9FF"/>
<path d="M41.5555 89.881H36.0641V96.2723H41.5555V89.881Z" fill="#61E9FF"/>
<path d="M106.46 24.4228V30.814H100.969C100.969 28.6913 100.946 26.5455 100.969 24.4228H106.46Z" fill="#61E9FF"/>
<path d="M184.92 101.798V96.2723H191.265V101.798C191.265 101.994 187.977 101.798 187.504 101.798H184.908H184.92Z" fill="#61E9FF"/>
<path d="M41.5555 108.213V114.315H36.0641V108.213C37.8869 108.236 39.7212 108.178 41.5555 108.213Z" fill="#61E9FF"/>
<path d="M77.6071 67.1887C77.6071 69.023 77.6071 70.8804 77.6071 72.7147C75.7959 72.7493 73.9501 72.7147 72.1158 72.7147V67.1772C73.9501 67.1772 75.7728 67.1887 77.6071 67.1772V67.1887Z" fill="#0271A8"/>
<path d="M62.3213 57.3019C62.2866 59.3323 62.3443 61.3743 62.3213 63.4047C60.2101 63.4509 58.0873 63.3355 55.9646 63.4047V60.7859H59.714V57.2904H62.3097L62.3213 57.3019Z" fill="#0271A8"/>
<path d="M92.0278 24.4228C92.0047 26.5455 92.0509 28.6913 92.0278 30.814H88.5668C88.5784 28.6798 88.5668 26.5455 88.5668 24.4113H92.0278V24.4228Z" fill="#0271A8"/>
<path d="M106.46 20.9503C106.46 22.1155 106.46 23.2807 106.46 24.4459H100.969C100.98 23.2807 100.969 22.1155 100.969 20.9503C102.803 20.9503 104.626 20.9503 106.46 20.9503Z" fill="#0271A8"/>
<path d="M47.8891 68.9422V72.7262C46.6547 72.7262 45.3856 72.7147 44.1397 72.7262V68.9422C45.3741 68.9307 46.6431 68.9653 47.8891 68.9422Z" fill="#0271A8"/>
<path d="M160.693 79.1175H166.761V85.2203C164.754 85.1857 162.724 85.2203 160.705 85.2203V79.1175L160.693 79.1175Z" fill="#0271A8"/>
<path d="M142.523 60.7975V67.1887H137.032V60.7975C138.843 60.809 140.689 60.7744 142.523 60.7975Z" fill="#0271A8"/>
<path d="M142.523 60.7975C143.769 60.809 145.027 60.7975 146.273 60.7975V67.1887H142.523V60.7975Z" fill="white"/>
<path d="M160.693 60.7975H158.674V67.1887H160.693V60.7975Z" fill="#61E9FF"/>
<path d="M112.794 24.4228H116.254C116.254 25.2996 116.231 26.1648 116.254 27.0416C116.278 28.2991 116.243 29.5681 116.254 30.8256H112.794V24.4228Z" fill="#61E9FF"/>
<path d="M68.6663 108.213H59.7255V114.315H68.6663V108.213Z" fill="#61E9FF"/>
<path d="M54.2342 101.798H47.8891V108.189H54.2342V101.798Z" fill="#61E9FF"/>
<path d="M148.857 108.213H142.512V114.315H148.857V108.213Z" fill="#61E9FF"/>
<path d="M173.083 108.213H166.738V114.315H173.083V108.213Z" fill="#61E9FF"/>
<path d="M160.693 101.798H155.202V108.189H160.693V101.798Z" fill="#61E9FF"/>
<path d="M65.7707 96.2838H59.714V101.81H65.7707V96.2838Z" fill="#61E9FF"/>
<path d="M65.7707 85.2203H59.714V89.881H65.7707V85.2203Z" fill="#61E9FF"/>
<path d="M124.63 67.1887V60.7975H130.687V67.1887C128.679 67.1656 126.649 67.1887 124.63 67.1887Z" fill="#0271A8"/>
<path d="M130.687 67.1887C131.933 67.2002 133.19 67.1887 134.436 67.1887V72.7147C133.19 72.7147 131.933 72.7032 130.687 72.7147V67.1887Z" fill="#0271A8"/>
<path d="M119.15 54.3947C119.173 58.6517 119.15 62.9433 119.15 67.2002H124.642V79.129H130.698V60.809H124.642V72.7378H119.15V67.2118H112.805C112.817 62.9548 112.782 58.6632 112.805 54.4062H119.15V54.3947Z" fill="#0271A8"/>
<path d="M100.969 54.3947H106.46V63.4163H100.969C100.969 62.5395 100.992 61.6742 100.969 60.7975C100.934 58.6747 100.992 56.529 100.969 54.4062V54.3947Z" fill="#0271A8"/>
<path d="M100.969 54.3947C100.992 56.5174 100.934 58.6632 100.969 60.7859H94.6235V54.3947C96.7347 54.3947 98.8574 54.3832 100.969 54.3947Z" fill="#0271A8"/>
<path d="M88.5668 85.2203C90.5742 85.2087 92.6046 85.2318 94.635 85.2203C94.635 86.7777 94.6235 88.3236 94.635 89.881C96.7462 89.8926 98.8689 89.881 100.98 89.881V96.2723H94.635C94.635 94.1495 94.6466 92.0038 94.635 89.881C92.6277 89.8695 90.5973 89.881 88.5668 89.881C88.5668 88.3236 88.5784 86.7777 88.5668 85.2203Z" fill="#0271A8"/>
<path d="M119.15 67.1887V72.7147H112.805V79.1059H106.46V72.7147H112.805V67.1887H119.15Z" fill="#0271A8"/>
<path d="M100.969 72.7147C100.98 74.8374 100.969 76.9832 100.969 79.1059H94.612C94.612 76.9832 94.6004 74.8374 94.612 72.7147H100.969Z" fill="#0271A8"/>
<path d="M130.687 72.7147V79.1059H124.63V72.7147C126.637 72.7147 128.679 72.7378 130.687 72.7147Z" fill="#0271A8"/>
<path d="M112.794 54.3947C112.794 52.5604 112.794 50.703 112.794 48.8687H119.139V54.3947L112.794 54.3947Z" fill="#0271A8"/>
<path d="M106.46 42.7659H100.969V48.8687H106.46V42.7659Z" fill="#0271A8"/>
<path d="M134.436 85.2203H137.032V89.881H130.687V85.2203C130.687 85.0242 133.975 85.2203 134.436 85.2203Z" fill="#0271A8"/>
<path d="M134.436 85.2203V79.1175H136.87C137.17 79.1636 137.043 84.5511 137.043 85.2318H134.448L134.436 85.2203Z" fill="#0271A8"/>
<path d="M110.198 89.8695H106.448V93.6535H110.198V89.8695Z" fill="#0271A8"/>
<path d="M196.756 138.161V144.553H191.265C191.265 142.43 191.265 140.284 191.265 138.161H196.756Z" fill="#0271A8"/>
<path d="M100.969 18.0316H106.46C106.472 19.0006 106.46 19.9697 106.46 20.9388C104.626 20.9388 102.803 20.9388 100.969 20.9388C100.969 22.104 100.98 23.2692 100.969 24.4344C100.946 26.5571 100.969 28.7029 100.969 30.8256L100.969 36.3516C98.8574 36.3631 96.7347 36.3516 94.6235 36.3516V48.8572H88.5668V54.3832H80.2029V60.7744C79.3376 60.7859 78.4724 60.7629 77.6071 60.7744V67.1656H80.2029V72.7032C79.3376 72.7032 78.4724 72.6801 77.6071 72.7032V67.1772H72.1158V72.7147L59.714 72.7147C59.714 73.5915 59.7371 74.4567 59.714 75.3335H55.9646C55.8723 75.9218 56.0915 78.9906 55.9646 79.1175C55.8723 79.2098 54.5918 79.0598 54.2342 79.1175V85.2203C53.6573 85.3126 50.6117 85.0818 50.4848 85.2203C50.3694 85.3472 50.6002 87.1353 50.4848 87.2622C50.3694 87.4007 48.016 87.1238 47.8891 87.2622C47.7622 87.4007 48.016 89.7541 47.8891 89.881C47.7622 90.0195 44.7165 89.7887 44.1397 89.881V99.7678C41.8324 99.814 41.2325 99.0526 41.544 101.81H36.0526V105.305H32.5916V108.051C32.6263 108.351 35.5104 108.213 36.0526 108.224V114.327H41.544V108.224C42.4092 108.236 43.2745 108.213 44.1397 108.224V114.338H47.8891V119.876H41.544V126.267H47.8891C47.8891 124.144 47.9006 121.999 47.8891 119.876C52.6883 119.853 57.5105 119.888 62.3213 119.876V126.267H86.5595V132.658H94.635V138.184H100.98V132.658C110.878 132.682 120.8 132.658 130.687 132.658C130.687 130.536 130.664 128.39 130.687 126.267H160.682V119.876H178.563V114.35H184.908V108.247C185.774 108.236 186.639 108.259 187.504 108.247V101.856C187.965 101.856 191.253 102.052 191.253 101.856V96.33H184.908V101.856C184.908 103.979 184.908 106.124 184.908 108.247C182.809 108.282 180.674 108.224 178.563 108.247V101.856H175.102V96.33H178.563V89.9387H173.072V81.7824H169.611V68.9769C170.765 68.9769 171.918 68.9884 173.072 68.9769C173.083 70.2343 173.072 71.5034 173.072 72.7608C174.895 72.7839 176.729 72.7262 178.563 72.7608C179.428 72.7724 180.294 72.7493 181.159 72.7608C181.182 74.8836 181.113 77.0293 181.159 79.1521C181.17 80.0288 181.159 80.8941 181.159 81.7709C182.416 81.7709 183.662 81.7593 184.92 81.7709C184.966 84.4819 184.885 87.2046 184.92 89.9156H191.276C191.276 89.0389 191.253 88.1736 191.276 87.2968H193.007C193.076 87.7583 192.903 89.8118 193.007 89.9156C193.134 90.0541 196.179 89.8234 196.756 89.9156V96.3069H205.697V105.328H209.158V118.134H214.649V126.279C213.496 126.279 212.342 126.267 211.189 126.279C208.408 126.313 205.605 126.256 202.825 126.279V132.67H191.288V138.196C187.066 138.196 182.82 138.196 178.598 138.196V132.67H173.106V138.196C173.095 140.319 173.106 142.464 173.106 144.587H166.75V138.196H160.693V144.587C154.636 144.599 148.58 144.576 142.523 144.587V150.69H77.6187V144.587H83.9638V138.196H77.6187V144.587C71.6658 144.61 65.6899 144.564 59.7371 144.587V138.196C53.6804 138.184 47.6237 138.219 41.5671 138.196V132.67H36.0757V138.196C35.1758 138.196 29.9498 138.427 29.7191 138.196C29.6037 138.069 29.8344 136.281 29.7191 136.154C29.6037 136.027 26.8003 136.246 26.2581 136.154V132.658C22.3241 132.658 18.3671 132.682 14.4332 132.658C13.5679 132.658 12.7027 132.682 11.8374 132.658V126.267H0.000976562V119.876C3.06969 119.83 6.16148 119.934 9.23019 119.876C10.0954 119.864 10.9607 119.888 11.8259 119.876C11.9759 119.103 11.6298 114.535 11.8259 114.338C11.9528 114.2 14.2947 114.477 14.4216 114.338C14.5485 114.2 14.2947 111.847 14.4216 111.72C14.5485 111.581 17.5942 111.812 18.171 111.72C18.1825 110.554 18.1479 109.389 18.171 108.224H29.7075V101.833C27.7002 101.867 25.6697 101.787 23.6508 101.833C22.751 101.856 20.5591 101.591 20.0399 102.11C19.29 102.848 19.8669 104.509 19.4862 105.052C19.1977 105.467 18.2864 105.236 18.171 105.328C18.0672 105.421 18.171 107.705 18.171 108.224H9.23019C9.24173 107.255 9.23019 106.286 9.23019 105.317H14.4332V96.2953H19.9245C19.9938 95.8339 19.8207 93.7804 19.9245 93.6765C20.0514 93.5381 23.0971 93.7688 23.6739 93.6765C23.7662 93.0997 23.547 90.0195 23.6739 89.8926C23.8008 89.7541 26.1427 90.031 26.2696 89.8926C26.3965 89.7541 26.1427 87.4007 26.2696 87.2738C26.3965 87.1353 29.1768 87.3661 29.7306 87.2738V79.129H38.0946V72.7378C40.1019 72.7262 42.1323 72.7608 44.1512 72.7378C45.3972 72.7262 46.6547 72.7378 47.9006 72.7378V68.9538C48.339 68.9538 50.404 69.0461 50.4963 68.9538C50.6002 68.85 50.381 67.3156 50.4963 67.2118C50.6232 67.0733 53.6689 67.3041 54.2457 67.2118V63.4278C54.811 63.4163 55.3993 63.4509 55.9762 63.4278C58.0874 63.3586 60.2101 63.4739 62.3328 63.4278C62.3559 61.3974 62.2982 59.3554 62.3328 57.325C62.3443 56.3559 62.3328 55.3868 62.3328 54.4178C63.4864 54.4178 64.6401 54.4293 65.7937 54.4178C65.7707 56.5405 65.8168 58.6863 65.7937 60.809H72.1388V54.4178C70.0276 54.4408 67.9049 54.3947 65.7937 54.4178C65.8053 53.2526 65.7937 52.0874 65.7937 50.9222H72.1388C72.2081 50.5184 72.0465 48.9841 72.1388 48.8802C72.335 48.6841 76.8227 48.8802 77.6302 48.8802C79.7414 48.8687 81.8641 48.8802 83.9753 48.8802V42.7774H77.6302C77.6302 42.1891 77.5033 39.1203 77.6302 38.9934C77.7571 38.855 80.099 39.1319 80.2259 38.9934C80.3298 38.8896 80.1452 36.8361 80.2259 36.3746H88.5899V30.8487H92.0509C92.0624 28.7259 92.0278 26.5801 92.0509 24.4574C92.0624 23.2922 92.0509 22.127 92.0509 20.9619H98.396C98.396 19.9928 98.3844 19.0237 98.396 18.0547H100.992H100.934L100.969 18.0316ZM41.5555 89.881H36.0641V96.2723H41.5555V89.881ZM196.756 114.315H191.265V119.841H196.756V114.315C198.764 114.315 200.806 114.35 202.813 114.315C203.771 114.304 204.74 114.315 205.697 114.315V108.213C204.728 108.213 203.771 108.224 202.813 108.213C200.806 108.178 198.775 108.236 196.745 108.213C196.745 110.243 196.745 112.285 196.745 114.315H196.756ZM142.523 132.635V138.161H148.868V132.635H142.523ZM124.63 138.161V144.553H130.687V138.161H124.63Z" fill="#0271A8"/>
<path d="M14.4332 132.635C18.3671 132.658 22.3241 132.624 26.2581 132.635V136.131C26.8003 136.212 29.6037 136.016 29.7191 136.131C29.8344 136.258 29.6037 138.046 29.7191 138.173C29.9498 138.404 35.1643 138.173 36.0757 138.173H41.5671C47.6237 138.196 53.6804 138.173 59.7371 138.173V144.564C65.6899 144.541 71.6658 144.587 77.6187 144.564V150.667H142.523V144.564C148.58 144.553 154.636 144.564 160.693 144.564H173.095C173.095 142.441 173.083 140.296 173.095 138.173H178.586C182.809 138.173 187.054 138.184 191.276 138.173C191.276 140.296 191.276 142.441 191.276 144.564H184.92V148.06H173.095V150.678C168.965 150.678 164.812 150.667 160.693 150.678H152.329V154.462C151.06 154.439 142.858 154.105 142.523 154.462C142.431 154.555 142.581 155.847 142.523 156.204H137.032V159.988H98.3729V156.204H72.1158C72.035 156.204 72.1965 154.462 72.1158 154.462H65.7707V150.678C61.929 150.678 58.0643 150.69 54.2342 150.678V144.576H47.8891V150.678H44.1397V144.576H26.2581V138.184H18.1825C18.1595 137.504 18.1941 136.823 18.1825 136.142H14.4332V132.635Z" fill="#002F5E"/>
<path d="M211.165 126.244C211.073 126.844 211.292 129.901 211.165 130.028C211.05 130.155 209.262 129.913 209.147 130.028C209.02 130.155 209.285 132.52 209.147 132.647C209.02 132.785 206.228 132.555 205.686 132.647C205.605 133.189 205.801 136.016 205.686 136.142C205.559 136.269 202.928 136.004 202.801 136.142C202.686 136.269 202.917 138.058 202.801 138.184C202.582 138.404 197.598 138.184 196.733 138.184H191.242V132.658H202.778V126.267C205.559 126.244 208.362 126.302 211.142 126.267L211.165 126.244Z" fill="#002F5E"/>
<path d="M160.693 150.667C160.682 152.501 160.716 154.359 160.693 156.193C158.87 156.193 157.036 156.17 155.202 156.193C155.179 155.605 155.213 155.028 155.202 154.451C154.244 154.451 153.275 154.462 152.318 154.451V150.667H160.693Z" fill="#0271A8"/>
<path d="M47.8891 150.667V144.564H54.2342V150.667H47.8891Z" fill="#0271A8"/>
<path d="M18.1825 138.161C18.2402 140.284 18.1595 142.43 18.1825 144.553H11.8374V138.161H18.1825Z" fill="#0271A8"/>
<path d="M77.6071 144.564V138.173H83.9522V144.564H77.6071Z" fill="#61E9FF"/>
<path d="M130.687 126.244C130.71 124.121 130.675 121.976 130.687 119.853H137.032V126.244H130.687Z" fill="#61E9FF"/>
<path d="M47.8891 119.83C47.9006 121.953 47.8891 124.098 47.8891 126.221H41.544V119.83H47.8891Z" fill="#61E9FF"/>
<path d="M130.675 138.161H124.618V144.553H130.675V138.161Z" fill="#61E9FF"/>
<path d="M160.693 144.564V138.173H166.75V144.564H160.693Z" fill="#61E9FF"/>
<path d="M202.801 108.213V114.315C200.794 114.35 198.764 114.315 196.745 114.315L196.745 119.841H191.253V114.315L196.745 114.315V108.213C198.752 108.236 200.794 108.178 202.813 108.213H202.801Z" fill="#61E9FF"/>
<path d="M148.857 132.635H142.512V138.161H148.857V132.635Z" fill="#61E9FF"/>
<path d="M100.969 132.635V138.161H94.6235V132.635H100.969Z" fill="#61E9FF"/>
<path d="M5.49236 126.244H11.849V132.635C11.3644 132.635 9.34556 132.728 9.25327 132.635C9.12636 132.52 9.38017 130.143 9.25327 130.017C9.12636 129.878 6.08072 130.109 5.5039 130.017V126.233L5.49236 126.244Z" fill="#002F5E"/>
<path d="M173.095 138.161V132.635H178.586V138.161H173.095Z" fill="#61E9FF"/>
<path d="M36.0641 138.161V132.635H41.5555V138.161H36.0641Z" fill="#61E9FF"/>
<path d="M202.801 108.213C203.759 108.224 204.728 108.213 205.686 108.213V114.315C204.717 114.315 203.759 114.304 202.801 114.315V108.213Z" fill="#002F5E"/>
<path d="M100.969 119.83H94.6235V126.221H100.969V119.83Z" fill="#61E9FF"/>
<path d="M119.139 114.315H112.794V119.841H119.139V114.315Z" fill="#61E9FF"/>
<path d="M106.46 126.233H104.73V130.028H106.46V126.233Z" fill="#0271A8"/>
</g>
<defs>
<clipPath id="clip0_28_11242">
<rect width="214.648" height="160" fill="white"/>
</clipPath>
</defs>
</svg>
