<svg width="117" height="160" viewBox="0 0 117 160" fill="none" xmlns="http://www.w3.org/2000/svg">
<path d="M29.2787 44.517C19.8093 44.4082 10.2311 44.517 0.761719 44.517V14.8027H29.2787C30.8025 14.8027 29.2787 41.7959 29.2787 44.517Z" fill="#82774D"/>
<path d="M57.9046 58.1225H14.476V73.034H57.9046V58.1225Z" fill="#FFD400"/>
<path d="M29.2787 44.517C33.8502 44.517 38.4216 44.517 42.8842 44.517V58.1225H29.2787V44.517Z" fill="#82774D"/>
<path d="M29.2787 87.1837V130.503C33.8502 130.503 38.4216 130.503 42.8842 130.503V145.306C38.3127 145.306 33.7413 145.306 29.2787 145.306V130.503C24.3808 130.503 19.374 130.503 14.3672 130.503C14.1495 116.136 14.3672 101.551 14.3672 87.1837H29.2787Z" fill="#FF0022"/>
<path d="M101.333 115.701C101.333 120.599 101.333 125.605 101.333 130.503C96.4352 130.503 91.4284 130.503 86.4216 130.503C86.4216 125.605 86.4216 120.599 86.4216 115.701C91.3195 115.701 96.3263 115.701 101.333 115.701Z" fill="#FF0022"/>
<path d="M57.9046 87.1837C57.9046 96.6531 57.9046 106.231 57.9046 115.701C62.8025 115.701 67.8093 115.701 72.8161 115.701C72.8161 120.599 72.8161 125.605 72.8161 130.503C77.3876 130.503 81.959 130.503 86.4216 130.503V145.306C76.9522 145.415 67.374 145.306 57.9046 145.306V130.503C53.0066 130.503 47.9998 130.503 42.993 130.503V87.1837H57.9046Z" fill="#FF0022"/>
<path d="M42.993 72.381V130.612C38.4216 130.612 33.8502 130.612 29.3876 130.612V72.381H42.993Z" fill="#C69900"/>
<path d="M42.993 130.503C47.891 130.503 52.8978 130.503 57.9046 130.503V145.306C53.0066 145.306 47.9998 145.306 42.993 145.306V130.503Z" fill="#C69900"/>
<path d="M57.9046 72.381C57.9046 77.2789 57.9046 82.2857 57.9046 87.1837H42.993V72.381C47.891 72.381 52.8978 72.381 57.9046 72.381Z" fill="#FFD400"/>
<path d="M29.2787 72.381L29.2787 87.1837H14.3672C14.3672 82.2857 14.3672 77.2789 14.3672 72.381C19.2651 72.381 24.2719 72.381 29.2787 72.381Z" fill="#FFD400"/>
<path d="M42.993 72.381V87.1837H29.3876V72.381C33.959 72.381 38.5304 72.381 42.993 72.381Z" fill="white"/>
</svg>
