<svg width="215" height="160" viewBox="0 0 215 160" fill="none" xmlns="http://www.w3.org/2000/svg">
<g clip-path="url(#clip0_28_11312)">
<path d="M116.267 6.39123C115.113 6.3797 113.96 6.39123 112.806 6.39123V0H119.151V6.39123C118.194 6.3797 117.225 6.40277 116.267 6.39123Z" fill="#B0C9D0"/>
<path d="M36.0651 67.1887C36.1343 65.066 36.019 62.9202 36.0651 60.7975H41.5565C41.5565 61.6742 41.5334 62.5395 41.5565 63.4163C41.5796 64.6737 41.545 65.9428 41.5565 67.2002H36.0651V67.1887Z" fill="#553083"/>
<path d="M100.97 18.0316V14.536H106.461C106.461 15.7012 106.449 16.8664 106.461 18.0316H100.97Z" fill="#C578AC"/>
<path d="M112.795 18.0316V20.9388C110.683 20.9619 108.561 20.9272 106.449 20.9388C106.449 19.9697 106.461 19.0006 106.449 18.0316H112.795Z" fill="#B0C9D0"/>
<path d="M137.033 36.3516C138.844 36.3862 140.69 36.3285 142.524 36.3516C142.547 38.4743 142.478 40.6201 142.524 42.7428C143.77 42.7543 145.028 42.7428 146.285 42.7428C146.285 43.6196 146.262 44.4848 146.285 45.3616C147.15 45.3731 148.016 45.3501 148.881 45.3616C148.881 46.5268 148.869 47.692 148.881 48.8572C149.792 48.8687 155.007 48.6264 155.237 48.8572C155.353 48.9841 155.122 50.7722 155.237 50.8991C155.353 51.026 158.156 50.8068 158.698 50.8991C158.779 51.4413 158.583 54.2678 158.698 54.3947C158.814 54.5216 160.602 54.2678 160.717 54.3947C160.821 54.4985 160.636 56.8058 160.717 57.3019H166.774V63.4047H173.119C173.131 65.239 173.096 67.0964 173.119 68.9307C174.93 68.9076 176.776 68.9422 178.61 68.9307V72.7147C176.776 72.6801 174.953 72.7378 173.119 72.7147C173.119 71.4572 173.131 70.1882 173.119 68.9307C171.965 68.9422 170.812 68.9307 169.658 68.9307V81.7363H173.119V87.2622C172.565 87.1815 169.773 87.3891 169.658 87.2622C169.543 87.1353 169.785 85.3472 169.658 85.2203C169.566 85.1165 167.235 85.2203 166.774 85.2203V79.1175H160.706V85.2203C162.713 85.2203 164.755 85.1857 166.762 85.2203V89.881H160.706V85.2203C156.772 85.2203 152.815 85.2087 148.881 85.2203V89.881H142.536V85.2203H148.881C148.892 83.1899 148.881 81.1479 148.881 79.1175C152.815 79.129 156.772 79.0944 160.706 79.1175V72.7262H148.881V79.1175H142.536V72.7262H146.297V67.2002C146.297 65.0775 146.297 62.9317 146.297 60.809C145.039 60.809 143.793 60.8205 142.536 60.809C140.724 60.7859 138.879 60.8205 137.044 60.809V54.4178C140.978 54.4293 144.935 54.4062 148.869 54.4178C148.846 52.5835 148.892 50.7261 148.869 48.8802C148.004 48.8687 147.139 48.8918 146.273 48.8802C146.262 47.715 146.297 46.5499 146.273 45.3847C145.028 45.3616 143.77 45.3962 142.524 45.3847C142.524 44.5079 142.547 43.6427 142.524 42.7659C140.713 42.7428 138.867 42.7659 137.033 42.7659V36.3746H137.044L137.033 36.3516ZM160.694 60.7975H158.675V67.1887H160.694V60.7975Z" fill="#A348E5"/>
<path d="M72.1283 72.7147C72.1167 74.8374 72.1283 76.9832 72.1283 79.1059C73.951 79.129 75.7854 79.0713 77.6197 79.1059V85.2087C75.8084 85.2434 73.9626 85.1857 72.1283 85.2087V89.8695H77.6197V96.2607H72.1283V101.787H77.6197V108.178H83.9647V101.787C81.8536 101.787 79.7308 101.798 77.6197 101.787V96.2607C81.2652 96.2377 84.9338 96.2723 88.5793 96.2607V101.787H98.3854C98.4777 101.787 98.2931 99.7448 98.3854 99.7448H104.73V108.178H119.163V101.787H130.699V96.2607H142.524V101.787H148.869V96.2607H155.214V89.8695H160.706V96.2607C162.713 96.2838 164.755 96.2261 166.774 96.2607V101.798H169.658V96.2607C168.7 96.2607 167.731 96.2723 166.774 96.2607C166.762 94.138 166.774 91.9922 166.774 89.8695C168.874 89.8695 171.008 89.858 173.119 89.8695H178.61V96.2607H175.149V101.787H178.61V108.178C180.722 108.155 182.844 108.213 184.955 108.178C184.955 106.055 184.944 103.909 184.955 101.787H187.551V108.178C186.686 108.178 185.821 108.155 184.955 108.178V114.281H178.61V119.807H160.729V126.198H137.067V119.807H130.722C130.711 121.929 130.745 124.075 130.722 126.198C130.699 128.321 130.722 130.466 130.722 132.589C120.824 132.566 110.903 132.612 101.016 132.589H86.5951V126.198H62.3568V119.807C57.5577 119.818 52.7354 119.784 47.9247 119.807V114.269H44.1753V108.166C43.3101 108.166 42.4448 108.189 41.5796 108.166C39.7683 108.132 37.9225 108.189 36.0882 108.166C35.546 108.166 32.6734 108.305 32.6272 107.993V105.248H36.0882V101.752H41.568C41.2565 98.9949 41.8564 99.7794 44.1637 99.7101V89.8233C44.7406 89.7311 47.7862 89.9618 47.9131 89.8233C48.04 89.6849 47.7862 87.3315 47.9131 87.2046C48.04 87.0776 50.3935 87.343 50.5088 87.2046C50.6242 87.0776 50.3935 85.2895 50.5088 85.1626C50.6357 85.0242 53.6814 85.2549 54.2582 85.1626V79.0598C54.6158 79.0021 55.8964 79.1521 55.9887 79.0598C56.1156 78.9213 55.8964 75.8526 55.9887 75.2758H59.7381C59.715 76.5333 59.7496 77.8023 59.7381 79.0598H65.7947V72.6685H72.1398V72.7031L72.1283 72.7147ZM65.7717 85.2203H59.715V89.881H65.7717V85.2203ZM59.7265 96.2838V101.81H65.7832V96.2838H59.7265ZM54.2467 101.798H47.9016V108.189H54.2467V101.798ZM155.203 101.798V108.189H160.694V101.798H155.203ZM59.7265 108.213V114.315H68.6673V108.213H59.7265ZM148.858 108.213H142.513V114.315H148.858V108.213ZM173.096 108.213H166.751V114.315H173.096V108.213ZM119.151 114.315H112.806V119.841H119.151V114.315ZM94.6245 119.83V126.221H100.97V119.83H94.6245ZM106.461 126.233H104.73V130.028H106.461V126.233Z" fill="#A348E5"/>
<path d="M88.5678 54.3947C88.5447 58.6517 88.5793 62.9433 88.5678 67.2002C87.0335 67.2002 85.4876 67.1887 83.9417 67.2002V60.809C82.6957 60.8321 81.4383 60.7859 80.1923 60.809V54.4178H88.5678V54.3947Z" fill="#A348E5"/>
<path d="M83.9532 67.1887C83.9647 71.1573 83.9532 75.1489 83.9532 79.1175C85.4991 79.1175 87.0335 79.1059 88.5794 79.1175V72.7262H94.6476V67.2002H100.993V72.7262H94.6476C94.636 74.8489 94.6476 76.9947 94.6476 79.1175C92.6402 79.1175 90.6098 79.129 88.5909 79.1175C88.5909 81.1479 88.5794 83.1898 88.5909 85.2203H83.9647V89.881C81.8536 89.881 79.7308 89.8926 77.6197 89.881V85.2203C78.1042 85.2203 80.1692 85.3702 80.2154 85.0472V79.1059C79.3501 79.1059 78.4849 79.129 77.6197 79.1059V72.7147C78.4849 72.7031 79.3501 72.7262 80.2154 72.7147V67.1772H83.9647H83.9417L83.9532 67.1887Z" fill="#A348E5"/>
<path d="M119.151 20.9503H124.643V24.4459C125.185 24.5266 127.988 24.319 128.103 24.4459C128.219 24.5728 127.965 26.9378 128.103 27.0647C128.23 27.2031 130.572 26.9262 130.699 27.0647C130.826 27.2031 130.607 30.2718 130.699 30.8487H134.449V36.3746C135.314 36.3746 136.179 36.3516 137.044 36.3746V42.7659C138.867 42.7659 140.701 42.7428 142.536 42.7659C142.547 43.6427 142.524 44.5079 142.536 45.3847C143.782 45.3962 145.039 45.3616 146.285 45.3847C146.308 46.5499 146.273 47.715 146.285 48.8802C147.15 48.8802 148.016 48.8572 148.881 48.8802C148.904 50.7145 148.881 52.5719 148.881 54.4178C144.947 54.4062 140.99 54.4293 137.056 54.4178H130.699C130.699 52.5719 130.711 50.7261 130.699 48.8802H137.056V42.7774H130.699V48.8802H124.643V36.3746H119.151V27.0647C119.151 25.0342 119.186 22.9923 119.151 20.9619H119.128L119.151 20.9503Z" fill="#553083"/>
<path d="M181.171 79.1175H184.932C184.932 79.9942 184.909 80.8595 184.932 81.7362C187.032 81.7593 189.166 81.7247 191.289 81.7362C191.266 83.5706 191.324 85.4279 191.289 87.2738C191.277 88.1505 191.289 89.0158 191.289 89.8926H184.932C184.898 87.1815 184.979 84.4589 184.932 81.7478C183.675 81.7362 182.429 81.7478 181.171 81.7478C181.171 80.871 181.195 80.0058 181.171 79.129V79.1175Z" fill="#A348E5"/>
<path d="M116.267 18.0316C117.225 18.0431 118.194 18.02 119.151 18.0316C119.151 19.0006 119.14 19.9697 119.151 20.9388C119.186 22.9692 119.151 25.0112 119.151 27.0416H116.267C116.255 26.1648 116.267 25.2996 116.267 24.4228H112.806V20.9272C113.96 20.9157 115.113 20.9272 116.267 20.9272V18.02V18.0316Z" fill="#A348E5"/>
<path d="M116.267 18.0316V20.9388C115.113 20.9388 113.96 20.9272 112.806 20.9388V18.0316C113.96 18.0316 115.113 18.0085 116.267 18.0316Z" fill="#553083"/>
<path d="M80.2038 60.7975C81.4498 60.7744 82.7073 60.809 83.9532 60.7975C83.9532 62.9202 83.9532 65.066 83.9532 67.1887C82.7073 67.1887 81.4498 67.1887 80.2038 67.1887H77.6081V60.7975C78.4734 60.7975 79.3386 60.8205 80.2038 60.7975Z" fill="#B0C9D0"/>
<path d="M166.739 85.2203C167.212 85.2203 169.52 85.1164 169.623 85.2203C169.739 85.3472 169.508 87.1353 169.623 87.2622C169.739 87.3891 172.519 87.1699 173.084 87.2622V89.881C170.973 89.8695 168.85 89.881 166.739 89.881V85.2203Z" fill="#B0C9D0"/>
<path d="M77.6081 79.1175C78.4734 79.129 79.3386 79.1059 80.2038 79.1175V85.0588C80.1577 85.3703 78.0811 85.2203 77.6081 85.2318V79.1175Z" fill="#B0C9D0"/>
<path d="M77.6081 72.7147V79.1059C75.7853 79.0713 73.951 79.129 72.1167 79.1059V72.7147C73.9395 72.7147 75.7738 72.7493 77.6081 72.7147Z" fill="#B0C9D0"/>
<path d="M100.97 36.3516H106.461V32.5676H112.806V36.3516C114.917 36.3516 117.04 36.34 119.151 36.3516H124.643V48.8572H130.699V42.7543H137.056V48.8572H130.699V54.3947H137.056V67.1887H146.297V72.7262H142.536V79.1175H148.881C148.881 81.1479 148.892 83.1899 148.881 85.2203H142.536V89.881H148.881V85.2203C152.815 85.2087 156.772 85.2203 160.706 85.2203V89.881C158.894 89.881 157.049 89.881 155.214 89.881V96.2723H148.869V101.798H142.524V96.2723H130.699V101.798H119.163V108.189H104.73V99.7563H98.3854C98.2931 99.7563 98.4777 101.798 98.3854 101.798H88.5794V96.2723C84.9338 96.2838 81.2652 96.2492 77.6197 96.2723V101.798C79.7308 101.81 81.8536 101.798 83.9648 101.798V108.189H77.6197V101.798H72.1283V96.2723H77.6197V89.881C79.7308 89.8926 81.8536 89.881 83.9647 89.881V85.2203H88.5909L88.5909 89.881C90.6098 89.881 92.6287 89.8695 94.6591 89.881C94.6706 92.0038 94.6591 94.1495 94.6591 96.2723H101.004V89.881C98.893 89.881 96.7703 89.8926 94.6591 89.881V85.2203C92.6518 85.2318 90.6213 85.2087 88.5909 85.2203C88.5794 83.1898 88.5909 81.1479 88.5909 79.1175C90.5982 79.129 92.6287 79.1175 94.6476 79.1175L101.004 79.1175C101.004 76.9947 101.004 74.8489 101.004 72.7262V67.2002H94.6591V72.7262H88.5909L88.5909 79.1175L83.9648 79.1175C83.9648 75.1489 83.9878 71.1573 83.9648 67.1887C85.5106 67.1772 87.045 67.1887 88.5909 67.1887C88.6024 62.9317 88.5678 58.6401 88.5909 54.3832V48.8572H94.6476V36.3516C96.7588 36.3516 98.8815 36.3631 100.993 36.3516H100.97ZM100.97 42.7659V48.8687H106.461V42.7659H100.97ZM112.795 54.3947C112.771 58.6517 112.806 62.9202 112.795 67.2002V72.7262H106.449V79.1175H112.795V72.7262H124.619V60.7975H130.676V79.1175H124.619V67.1887C126.627 67.1887 128.669 67.1656 130.676 67.1887V72.7147C128.669 72.7378 126.638 72.7147 124.619 72.7147V79.1059H130.676V72.7147C131.922 72.7032 133.18 72.7147 134.425 72.7147V67.1887C133.168 67.1887 131.922 67.2002 130.676 67.1887V60.7975H124.619V67.1887H119.128C119.128 62.9317 119.151 58.6401 119.128 54.3832V48.8572H112.783V54.3832L112.795 54.3947ZM100.97 54.3947C98.8584 54.3832 96.7357 54.3947 94.6245 54.3947V60.7859H100.97C100.981 61.6627 100.958 62.5279 100.97 63.4047H106.461V54.3832H100.97V54.3947ZM134.437 85.2203C133.976 85.2203 130.688 85.0242 130.688 85.2203V89.881H137.033V85.2203C137.033 84.5512 137.16 79.1521 136.86 79.1059H134.425V85.2203H134.437ZM110.21 89.8695H106.461V93.6535H110.21V89.8695Z" fill="#B0C9D0"/>
<path d="M77.6081 85.2203V89.881H72.1167V85.2203C73.9395 85.1972 75.7738 85.2549 77.6081 85.2203Z" fill="#B0C9D0"/>
<path d="M166.739 89.881C166.739 92.0038 166.728 94.1495 166.739 96.2723C167.697 96.2838 168.666 96.2723 169.623 96.2723V101.798H166.739V96.2723C164.732 96.2377 162.702 96.2953 160.671 96.2723V89.881H166.739Z" fill="#B0C9D0"/>
<path d="M148.858 79.1175V72.7262H160.683V79.1175C156.749 79.0944 152.792 79.129 148.858 79.1175Z" fill="#B0C9D0"/>
<path d="M112.795 20.9503C112.795 22.1155 112.795 23.2807 112.795 24.4459V30.8371H116.255C116.232 29.5796 116.279 28.3106 116.255 27.0531H119.14V36.3631C117.028 36.3516 114.906 36.3631 112.783 36.3631V32.5791H106.438V36.3631H100.947V30.8371H106.438V20.9503C108.549 20.9388 110.672 20.9734 112.783 20.9503H112.795Z" fill="#A08277"/>
<path d="M23.6634 101.798V108.189H18.172C18.1489 109.355 18.1835 110.52 18.172 111.685C17.5951 111.777 14.5495 111.547 14.4226 111.685C14.2957 111.823 14.5495 114.177 14.4226 114.304C14.2957 114.442 11.9538 114.165 11.8269 114.304C11.6308 114.5 11.9769 119.045 11.8269 119.841C10.9616 119.841 10.0964 119.818 9.23117 119.841C9.27732 115.965 9.17349 112.077 9.23117 108.201H18.172C18.172 107.682 18.0797 105.398 18.172 105.305C18.2643 105.213 19.1987 105.444 19.4871 105.028C19.8563 104.486 19.291 102.837 20.0409 102.087C20.56 101.568 22.7635 101.821 23.6518 101.81H23.6749L23.6634 101.798Z" fill="#D9B0ED"/>
<path d="M65.7717 54.3947C67.8828 54.3716 70.0056 54.4178 72.1167 54.3947V60.7859H65.7717C65.7947 58.6632 65.7486 56.5174 65.7717 54.3947Z" fill="#B0C9D0"/>
<path d="M65.7717 79.1059H59.715C59.7265 77.8484 59.6919 76.5794 59.715 75.3219C59.7265 74.4452 59.7034 73.5799 59.715 72.7031H65.7832H65.7717V79.1059Z" fill="#B0C9D0"/>
<path d="M23.6634 101.798C25.6707 101.752 27.7011 101.833 29.72 101.798V108.189H23.6634V101.798Z" fill="#B0C9D0"/>
<path d="M77.5966 42.7659H83.9417V48.8687C81.8305 48.8687 79.7078 48.8572 77.5966 48.8687C77.6081 46.8383 77.5735 44.7963 77.5966 42.7659Z" fill="#B0C9D0"/>
<path d="M41.5565 89.881H36.0651V96.2723H41.5565V89.881Z" fill="#B0C9D0"/>
<path d="M106.461 24.4228V30.814H100.97C100.97 28.6913 100.947 26.5455 100.97 24.4228H106.461Z" fill="#B0C9D0"/>
<path d="M184.921 101.798V96.2723H191.266V101.798C191.266 101.994 187.978 101.798 187.517 101.798H184.921Z" fill="#B0C9D0"/>
<path d="M41.5565 108.213V114.315H36.0651V108.213C37.8764 108.236 39.7222 108.178 41.5565 108.213Z" fill="#B0C9D0"/>
<path d="M77.6081 67.1887C77.6081 69.023 77.6081 70.8804 77.6081 72.7147C75.7853 72.7493 73.951 72.7147 72.1167 72.7147V67.1772C73.951 67.1772 75.7738 67.1887 77.6081 67.1772L77.6081 67.1887Z" fill="#A08277"/>
<path d="M62.3222 57.3019C62.2876 59.3323 62.3453 61.3743 62.3222 63.4047C60.2111 63.4509 58.0883 63.3355 55.9656 63.4047V60.7859H59.715V57.2904H62.3107L62.3222 57.3019Z" fill="#A348E5"/>
<path d="M92.0288 24.4228C92.0057 26.5455 92.0518 28.6913 92.0288 30.814H88.5678C88.5794 28.6798 88.5678 26.5455 88.5678 24.4113H92.0288V24.4228Z" fill="#A348E5"/>
<path d="M106.461 20.9503V24.4459H100.97C100.981 23.2807 100.97 22.1155 100.97 20.9503C102.804 20.9503 104.627 20.9503 106.461 20.9503Z" fill="#A348E5"/>
<path d="M47.89 68.9422V72.7262C46.6556 72.7262 45.3866 72.7147 44.1407 72.7262V68.9422C45.3751 68.9307 46.6441 68.9653 47.89 68.9422Z" fill="#A348E5"/>
<path d="M160.694 79.1175H166.762V85.2203C164.755 85.1857 162.713 85.2203 160.706 85.2203V79.1175L160.694 79.1175Z" fill="#A08277"/>
<path d="M142.524 60.7975V67.1887H137.033V60.7975C138.844 60.809 140.69 60.7744 142.524 60.7975Z" fill="#A08277"/>
<path d="M142.524 60.7975C143.77 60.809 145.028 60.7975 146.285 60.7975V67.1887H142.524V60.7975Z" fill="#C578AC"/>
<path d="M160.694 60.7975H158.675V67.1887H160.694V60.7975Z" fill="#B0C9D0"/>
<path d="M112.795 24.4228H116.255C116.255 25.2996 116.232 26.1648 116.255 27.0416C116.279 28.2991 116.244 29.5681 116.255 30.8256H112.795V24.4228Z" fill="#B0C9D0"/>
<path d="M68.6673 108.213H59.7265V114.315H68.6673V108.213Z" fill="#B0C9D0"/>
<path d="M54.2351 101.798H47.89V108.189H54.2351V101.798Z" fill="#B0C9D0"/>
<path d="M148.858 108.213H142.513V114.315H148.858V108.213Z" fill="#B0C9D0"/>
<path d="M173.084 108.213H166.739V114.315H173.084V108.213Z" fill="#B0C9D0"/>
<path d="M160.694 101.798H155.203V108.189H160.694V101.798Z" fill="#B0C9D0"/>
<path d="M65.7717 96.2838H59.715V101.81H65.7717V96.2838Z" fill="#B0C9D0"/>
<path d="M65.7717 85.2203H59.715V89.881H65.7717V85.2203Z" fill="#B0C9D0"/>
<path d="M124.631 67.1887V60.7975H130.688V67.1887C128.68 67.1656 126.65 67.1887 124.631 67.1887Z" fill="#A348E5"/>
<path d="M130.688 67.1887C131.934 67.2002 133.191 67.1887 134.437 67.1887V72.7147C133.191 72.7147 131.934 72.7032 130.688 72.7147V67.1887Z" fill="#A348E5"/>
<path d="M119.151 54.3947C119.174 58.6517 119.151 62.9433 119.151 67.2002H124.643V79.129H130.699V60.809H124.643V72.7378H119.151V67.2118H112.806C112.818 62.9548 112.783 58.6632 112.806 54.4062H119.151V54.3947Z" fill="#A348E5"/>
<path d="M100.97 54.3947H106.461V63.4163H100.97C100.97 62.5395 100.993 61.6742 100.97 60.7975C100.935 58.6747 100.993 56.529 100.97 54.4062L100.97 54.3947Z" fill="#A348E5"/>
<path d="M100.97 54.3947C100.993 56.5174 100.935 58.6632 100.97 60.7859H94.6245V54.3947C96.7357 54.3947 98.8584 54.3832 100.97 54.3947Z" fill="#A08277"/>
<path d="M88.5678 85.2203C90.5752 85.2087 92.6056 85.2318 94.636 85.2203C94.636 86.7777 94.6245 88.3236 94.636 89.881C96.7472 89.8926 98.8699 89.881 100.981 89.881V96.2723H94.636C94.636 94.1495 94.6476 92.0038 94.636 89.881C92.6287 89.8695 90.5982 89.881 88.5678 89.881C88.5678 88.3236 88.5794 86.7777 88.5678 85.2203Z" fill="#A08277"/>
<path d="M119.151 67.1887V72.7147H112.806V79.1059H106.461V72.7147H112.806V67.1887H119.151Z" fill="#A08277"/>
<path d="M100.97 72.7147C100.981 74.8374 100.97 76.9832 100.97 79.1059H94.613C94.613 76.9832 94.6014 74.8374 94.613 72.7147H100.97Z" fill="#A08277"/>
<path d="M130.688 72.7147V79.1059H124.631V72.7147C126.638 72.7147 128.669 72.7378 130.688 72.7147Z" fill="#A08277"/>
<path d="M112.795 54.3947C112.795 52.5604 112.795 50.703 112.795 48.8687H119.14V54.3947L112.795 54.3947Z" fill="#A08277"/>
<path d="M106.461 42.7659H100.97V48.8687H106.461V42.7659Z" fill="#A08277"/>
<path d="M134.437 85.2203H137.033V89.881H130.688V85.2203C130.688 85.0242 133.976 85.2203 134.437 85.2203Z" fill="#A08277"/>
<path d="M134.437 85.2203V79.1175H136.871C137.171 79.1636 137.044 84.5511 137.044 85.2318H134.449L134.437 85.2203Z" fill="#A348E5"/>
<path d="M110.199 89.8695H106.449V93.6535H110.199V89.8695Z" fill="#A348E5"/>
<path d="M196.746 138.161V144.553H191.254C191.254 142.43 191.243 140.284 191.254 138.161H196.746Z" fill="#553083"/>
<path d="M100.97 18.0316H106.461C106.472 19.0006 106.461 19.9697 106.461 20.9388C104.627 20.9388 102.804 20.9388 100.97 20.9388C100.97 22.104 100.981 23.2692 100.97 24.4344C100.947 26.5571 100.97 28.7029 100.97 30.8256L100.97 36.3516C98.8584 36.3631 96.7357 36.3516 94.6245 36.3516V48.8572H88.5678V54.3832H80.2038V60.7744C79.3386 60.7859 78.4734 60.7629 77.6081 60.7744V67.1656H80.2038V72.7032C79.3386 72.7032 78.4734 72.6801 77.6081 72.7032L77.6081 67.1772H72.1167V72.7147L59.715 72.7147C59.715 73.5915 59.7381 74.4567 59.715 75.3335H55.9656C55.8733 75.9218 56.0925 78.9906 55.9656 79.1175C55.8733 79.2098 54.5928 79.0598 54.2351 79.1175V85.2203C53.6583 85.3126 50.6127 85.0818 50.4858 85.2203C50.3704 85.3472 50.6011 87.1353 50.4858 87.2622C50.3704 87.4007 48.0169 87.1238 47.89 87.2622C47.7631 87.4007 48.0169 89.7541 47.89 89.881C47.7631 90.0195 44.7175 89.7887 44.1407 89.881V99.7678C41.8334 99.814 41.2335 99.0526 41.545 101.81H36.0536V105.305H32.5926V108.051C32.6272 108.351 35.5114 108.213 36.0536 108.224V114.327H41.545V108.224C42.4102 108.236 43.2754 108.213 44.1407 108.224V114.338H47.89V119.876H41.545V126.267H47.89C47.89 124.144 47.9016 121.999 47.89 119.876C52.6892 119.853 57.5115 119.888 62.3222 119.876V126.267H86.5605V132.658H94.636V138.184H100.981V132.658C110.879 132.682 120.801 132.658 130.688 132.658C130.688 130.536 130.665 128.39 130.688 126.267H160.683V119.876H178.564V114.35H184.909V108.247C185.775 108.236 186.64 108.259 187.505 108.247V101.856C187.966 101.856 191.266 102.052 191.266 101.856V96.33H184.921V101.856C184.909 103.979 184.921 106.124 184.921 108.247C182.81 108.282 180.687 108.224 178.576 108.247V101.856H175.115V96.33H178.576V89.9387H173.084V81.7824H169.623V68.9769C170.777 68.9769 171.931 68.9884 173.084 68.9769C173.084 70.2343 173.084 71.5034 173.084 72.7608C174.896 72.7839 176.741 72.7262 178.576 72.7608C179.441 72.7724 180.306 72.7493 181.171 72.7608C181.195 74.8836 181.125 77.0293 181.171 79.1521C181.171 80.0288 181.16 80.8941 181.171 81.7709C182.417 81.7709 183.675 81.7593 184.921 81.7709C184.967 84.4819 184.886 87.2046 184.921 89.9156H191.277C191.277 89.0389 191.254 88.1736 191.277 87.2968H193.008C193.077 87.7583 192.904 89.8118 193.008 89.9156C193.135 90.0541 196.18 89.8234 196.757 89.9156V96.3069H205.698V105.328H209.159V118.134H214.65V126.279C213.497 126.279 212.343 126.267 211.189 126.279C208.409 126.313 205.606 126.256 202.826 126.279V132.67H191.289V138.196C187.067 138.196 182.821 138.196 178.599 138.196V132.67H173.107V138.196C173.096 140.319 173.107 142.464 173.107 144.587H166.751V138.196H160.694V144.587C154.637 144.599 148.581 144.576 142.524 144.587V150.69H77.6197V144.587H83.9648V138.196H77.6197V144.587C71.6668 144.61 65.6909 144.564 59.7381 144.587V138.196C53.6814 138.184 47.6247 138.219 41.568 138.196V132.67H36.0767V138.196C35.1768 138.196 29.9508 138.427 29.72 138.196C29.6047 138.069 29.8354 136.281 29.72 136.154C29.6047 136.027 26.8013 136.246 26.2591 136.154V132.658C22.3251 132.658 18.3681 132.682 14.4341 132.658C13.5689 132.658 12.7037 132.682 11.8384 132.658V126.267H0.00195312V119.876C3.07067 119.83 6.16246 119.934 9.23117 119.876C10.0964 119.864 10.9616 119.888 11.8269 119.876C11.9769 119.103 11.6308 114.535 11.8269 114.338C11.9538 114.2 14.2957 114.477 14.4226 114.338C14.5495 114.2 14.2957 111.847 14.4226 111.72C14.5495 111.581 17.5951 111.812 18.172 111.72C18.1835 110.554 18.1489 109.389 18.172 108.224H29.7085V101.833C27.7011 101.867 25.6707 101.787 23.6518 101.833C22.752 101.856 20.56 101.591 20.0409 102.11C19.291 102.848 19.8678 104.509 19.4871 105.052C19.1987 105.467 18.2873 105.236 18.172 105.328C18.0681 105.421 18.172 107.705 18.172 108.224H9.23117C9.24271 107.255 9.23117 106.286 9.23117 105.317H14.4341V96.2953H19.9255C19.9947 95.8339 19.8217 93.7804 19.9255 93.6765C20.0524 93.5381 23.0981 93.7688 23.6749 93.6765C23.7672 93.0997 23.548 90.0195 23.6749 89.8926C23.8018 89.7541 26.1437 90.031 26.2706 89.8926C26.3975 89.7541 26.1437 87.4007 26.2706 87.2738C26.3975 87.1353 29.1778 87.3661 29.7316 87.2738V79.129H38.0955V72.7378C40.1029 72.7262 42.1333 72.7608 44.1522 72.7378C45.3982 72.7262 46.6556 72.7378 47.9016 72.7378V68.9538C48.34 68.9538 50.405 69.0461 50.4973 68.9538C50.6011 68.85 50.3819 67.3156 50.4973 67.2118C50.6242 67.0733 53.6698 67.3041 54.2467 67.2118V63.4278C54.812 63.4163 55.4003 63.4509 55.9772 63.4278C58.0883 63.3586 60.2111 63.4739 62.3338 63.4278C62.3568 61.3974 62.2992 59.3554 62.3338 57.325C62.3453 56.3559 62.3338 55.3868 62.3338 54.4178C63.4874 54.4178 64.6411 54.4293 65.7947 54.4178C65.7717 56.5405 65.8178 58.6863 65.7947 60.809H72.1398V54.4178C70.0286 54.4408 67.9059 54.3947 65.7947 54.4178C65.8063 53.2526 65.7947 52.0874 65.7947 50.9222H72.1398C72.209 50.5184 72.0475 48.9841 72.1398 48.8802C72.3359 48.6841 76.8236 48.8802 77.6312 48.8802C79.7424 48.8687 81.8651 48.8802 83.9763 48.8802V42.7774H77.6312C77.6312 42.1891 77.5043 39.1203 77.6312 38.9934C77.7581 38.855 80.1 39.1319 80.2269 38.9934C80.3307 38.8896 80.1462 36.8361 80.2269 36.3746H88.5909V30.8487H92.0518C92.0634 28.7259 92.0288 26.5801 92.0518 24.4574C92.0634 23.2922 92.0518 22.127 92.0518 20.9619H98.3969C98.3969 19.9928 98.3854 19.0237 98.3969 18.0547H100.993H100.935L100.97 18.0316ZM41.5565 89.881H36.0651V96.2723H41.5565V89.881ZM196.757 114.315H191.266V119.841H196.757V114.315C198.765 114.315 200.795 114.35 202.814 114.315C203.772 114.304 204.741 114.315 205.698 114.315V108.213C204.741 108.213 203.772 108.224 202.814 108.213C200.807 108.178 198.776 108.236 196.746 108.213C196.746 110.243 196.757 112.285 196.746 114.315H196.757ZM142.524 132.635V138.161H148.869V132.635H142.524ZM124.631 138.161V144.553H130.688V138.161H124.631Z" fill="#553083"/>
<path d="M14.4341 132.635C18.3681 132.658 22.3251 132.624 26.2591 132.635V136.131C26.8013 136.212 29.6047 136.016 29.72 136.131C29.8354 136.258 29.6047 138.046 29.72 138.173C29.9508 138.404 35.1653 138.173 36.0767 138.173H41.568C47.6247 138.196 53.6814 138.173 59.738 138.173V144.564C65.6909 144.541 71.6668 144.587 77.6197 144.564V150.667H142.524V144.564C148.581 144.553 154.637 144.564 160.694 144.564H173.096C173.096 142.441 173.096 140.296 173.096 138.173H178.587C182.81 138.173 187.055 138.184 191.277 138.173C191.266 140.296 191.277 142.441 191.277 144.564H184.921V148.06H173.096V150.678C168.966 150.678 164.813 150.667 160.694 150.678H152.33V154.462C151.061 154.439 142.859 154.105 142.524 154.462C142.432 154.555 142.582 155.847 142.524 156.204H137.033V159.988H98.3739V156.204H72.1167C72.036 156.204 72.1975 154.462 72.1167 154.462H65.7717V150.678C61.93 150.678 58.0653 150.69 54.2351 150.678V144.576H47.89V150.678H44.1407V144.576H26.2591V138.184H18.1835C18.1604 137.504 18.195 136.823 18.1835 136.142H14.4341V132.635Z" fill="#D9B0ED"/>
<path d="M211.166 126.244C211.074 126.844 211.293 129.901 211.166 130.028C211.051 130.155 209.263 129.913 209.148 130.028C209.009 130.155 209.274 132.52 209.148 132.647C209.009 132.785 206.217 132.555 205.687 132.647C205.606 133.189 205.802 136.016 205.687 136.142C205.548 136.269 202.929 136.004 202.802 136.142C202.687 136.269 202.918 138.058 202.802 138.184C202.583 138.404 197.599 138.184 196.734 138.184H191.243V132.658H202.779V126.267C205.56 126.244 208.363 126.302 211.143 126.267L211.166 126.244Z" fill="#D9B0ED"/>
<path d="M160.694 150.667C160.694 152.501 160.717 154.359 160.694 156.193C158.883 156.193 157.037 156.17 155.203 156.193C155.18 155.605 155.203 155.028 155.203 154.451C154.245 154.451 153.276 154.462 152.319 154.451V150.667H160.694Z" fill="#553083"/>
<path d="M47.89 150.667V144.564H54.2351V150.667H47.89Z" fill="#553083"/>
<path d="M18.1835 138.161C18.2412 140.284 18.1604 142.43 18.1835 144.553H11.8384V138.161H18.1835Z" fill="#A348E5"/>
<path d="M77.6081 144.564V138.173H83.9532V144.564H77.6081Z" fill="#B0C9D0"/>
<path d="M130.688 126.244C130.711 124.121 130.676 121.976 130.688 119.853H137.033V126.244H130.688Z" fill="#B0C9D0"/>
<path d="M47.89 119.83C47.9016 121.953 47.89 124.098 47.89 126.221H41.545V119.83H47.89Z" fill="#B0C9D0"/>
<path d="M130.676 138.161H124.619V144.553H130.676V138.161Z" fill="#B0C9D0"/>
<path d="M160.694 144.564L160.694 138.173H166.751V144.564H160.694Z" fill="#B0C9D0"/>
<path d="M202.802 108.213V114.315C200.795 114.35 198.765 114.315 196.746 114.315L196.746 119.841H191.254V114.315L196.746 114.315V108.213C198.753 108.236 200.784 108.178 202.814 108.213H202.802Z" fill="#B0C9D0"/>
<path d="M148.858 132.635H142.513V138.161H148.858V132.635Z" fill="#B0C9D0"/>
<path d="M100.97 132.635V138.161H94.6245V132.635H100.97Z" fill="#B0C9D0"/>
<path d="M5.49334 126.244H11.85V132.635C11.3654 132.635 9.34653 132.728 9.25424 132.635C9.12734 132.52 9.38114 130.143 9.25424 130.017C9.12734 129.878 6.0817 130.109 5.50487 130.017V126.233L5.49334 126.244Z" fill="#D9B0ED"/>
<path d="M173.096 138.161V132.635H178.587V138.161H173.096Z" fill="#B0C9D0"/>
<path d="M36.0651 138.161V132.635H41.5565V138.161H36.0651Z" fill="#B0C9D0"/>
<path d="M202.802 108.213C203.76 108.224 204.729 108.213 205.687 108.213V114.315C204.729 114.315 203.76 114.304 202.802 114.315V108.213Z" fill="#D9B0ED"/>
<path d="M100.97 119.83H94.6245V126.221H100.97V119.83Z" fill="#B0C9D0"/>
<path d="M119.14 114.315H112.795V119.841H119.14V114.315Z" fill="#B0C9D0"/>
<path d="M106.461 126.233H104.73V130.028H106.461V126.233Z" fill="#553083"/>
</g>
<defs>
<clipPath id="clip0_28_11312">
<rect width="214.637" height="160" fill="white"/>
</clipPath>
</defs>
</svg>
