<?xml version="1.0" encoding="UTF-8"?>
<!-- Generator: visioncortex VTracer 0.6.5 -->
<svg version="1.1" xmlns="http://www.w3.org/2000/svg" width="100" height="100">
<path d="M0,0 L19,0 L19,3 L21,3 L21,19 L24,20 L24,22 L26,22 L26,26 L28,26 L28,33 L30,33 L30,51 L28,52 L21,52 L22,60 L26,61 L26,63 L28,63 L28,73 L27,71 L7,71 L7,63 L10,63 L10,57 L7,57 L7,54 L5,54 L5,57 L3,57 L3,59 L1,59 L1,63 L3,63 L3,71 L-16,71 L-16,61 L-14,61 L-14,56 L-11,56 L-12,52 L-18,51 L-18,49 L-20,49 L-20,35 L-16,35 L-16,29 L-14,29 L-13,24 L-11,24 L-11,22 L-9,22 L-9,19 L-4,19 L-5,5 L-2,6 L-2,4 L0,4 Z " fill="#080500" transform="translate(46,19)"/>
<path d="M0,0 L16,0 L17,1 L17,17 L19,17 L19,25 L17,25 L17,27 L14,27 L14,29 L5,29 L5,25 L1,25 L1,19 L-2,19 L-2,14 L-4,14 L-4,9 L-1,8 L-4,8 L-4,3 L-2,3 L-2,1 Z " fill="#180700" transform="translate(48,23)"/>
<path d="M0,0 L7,0 L8,4 L7,8 L3,9 L3,15 L0,15 L0,20 L3,20 L3,27 L-4,28 L-6,27 L-7,29 L-9,28 L-9,26 L-11,26 L-11,12 L-7,12 L-7,6 L-5,6 L-4,1 Z " fill="#041800" transform="translate(37,42)"/>
<path d="M0,0 L7,0 L7,2 L11,2 L11,0 L14,0 L14,13 L9,14 L9,8 L7,8 L7,13 L5,13 L5,16 L2,16 L2,13 L0,13 Z " fill="#8D3413" transform="translate(51,27)"/>
<path d="M0,0 L7,0 L7,6 L4,6 L4,11 L7,11 L7,18 L0,19 L-2,18 L-3,20 L-5,19 L-5,17 L-3,17 L-3,4 L0,4 Z " fill="#8F3312" transform="translate(33,51)"/>
<path d="M0,0 L21,0 L21,4 L18,4 L18,2 L16,2 L16,7 L14,7 L14,2 L12,2 L12,7 L9,7 L9,2 L7,2 L7,7 L5,7 L3,4 L2,7 L0,7 Z " fill="#011801" transform="translate(44,64)"/>
<path d="M0,0 L7,0 L7,6 L2,7 L-2,5 L-2,17 L2,17 L2,15 L4,15 L4,17 L7,18 L0,19 L-2,18 L-3,20 L-5,19 L-5,17 L-3,17 L-3,4 L0,4 Z " fill="#5A1D07" transform="translate(33,51)"/>
<path d="M0,0 L3,0 L3,16 L-4,16 L-2,6 L0,6 Z " fill="#72260B" transform="translate(71,52)"/>
<path d="M0,0 L12,0 L12,7 L7,8 L7,2 L5,2 L5,7 L3,7 L3,1 Z " fill="#644A38" transform="translate(53,33)"/>
<path d="M0,0 L4,0 L4,14 L0,14 Z " fill="#221300" transform="translate(26,54)"/>
<path d="M0,0 L3,0 L3,4 L-4,4 L-4,9 L-7,9 L-7,2 L0,2 Z " fill="#110800" transform="translate(37,46)"/>
<path d="M0,0 L5,1 L5,10 L2,10 L2,7 L0,7 Z " fill="#993815" transform="translate(51,33)"/>
<path d="M0,0 L7,0 L7,5 L4,5 L4,3 L2,3 L2,5 L-2,5 L-2,1 Z " fill="#913412" transform="translate(33,63)"/>
<path d="M0,0 L2,0 L2,9 L-3,9 L-3,4 L0,4 Z " fill="#1A0700" transform="translate(40,53)"/>
<path d="M0,0 L2,1 L2,10 L-2,10 Z " fill="#4A1605" transform="translate(69,58)"/>
<path d="M0,0 L2,0 L2,6 L7,5 L7,7 L-2,7 L-2,5 L0,5 Z " fill="#461504" transform="translate(58,35)"/>
<path d="M0,0 L3,0 L3,6 L0,6 Z " fill="#812D0F" transform="translate(71,62)"/>
<path d="M0,0 L3,0 L3,6 L0,6 Z " fill="#439899" transform="translate(62,34)"/>
<path d="M0,0 L2,0 L3,2 L7,4 L2,5 L-1,3 Z " fill="#75270B" transform="translate(33,59)"/>
<path d="M0,0 L3,0 L3,5 L0,5 Z " fill="#391003" transform="translate(37,57)"/>
<path d="M0,0 L4,0 L4,3 L0,3 Z " fill="#320E02" transform="translate(58,43)"/>
<path d="M0,0 L4,0 L3,3 L-1,1 Z " fill="#011801" transform="translate(63,53)"/>
<path d="M0,0 L2,0 L2,3 L-1,2 Z " fill="#050300" transform="translate(33,43)"/>
</svg>
