<?xml version="1.0" encoding="UTF-8"?>
<!-- Generator: visioncortex VTracer 0.6.5 -->
<svg version="1.1" xmlns="http://www.w3.org/2000/svg" width="150" height="84">
<path d="M0,0 L150,0 L150,84 L0,84 Z " fill="#546068" transform="translate(0,0)"/>
<path d="M0,0 L3,1 L11,1 L12,0 L17,0 L17,27 L-133,27 L-133,4 L-129,1 L-124,1 L-120,2 L-118,4 L-110,4 L-103,3 L-34,3 L-3,2 Z " fill="#6A767E" transform="translate(133,57)"/>
<path d="M0,0 L13,0 L16,1 L46,2 L46,3 L12,3 L6,4 L-3,4 L-3,1 Z " fill="#5D6B72" transform="translate(17,58)"/>
<path d="M0,0 L2,0 L3,8 L1,15 L-1,17 L-4,17 L-4,15 L-2,14 L-2,7 L-7,7 L-8,14 L-9,14 L-9,6 L-8,4 L0,3 Z " fill="#5D6A71" transform="translate(45,4)"/>
<path d="M0,0 L6,0 L11,2 L11,3 L3,4 L-1,6 L-5,5 L-9,7 L-9,3 L-3,1 Z M-4,2 Z " fill="#434C57" transform="translate(9,54)"/>
<path d="M0,0 L5,0 L6,1 L6,8 L1,8 L-1,5 Z " fill="#48555C" transform="translate(38,10)"/>
<path d="M0,0 L2,0 L3,8 L2,14 L0,13 L1,5 L-5,4 L-5,3 L0,3 Z " fill="#6A767D" transform="translate(45,4)"/>
<path d="M0,0 L4,0 L5,4 L4,5 L-2,5 Z " fill="#58636B" transform="translate(117,79)"/>
<path d="M0,0 L5,1 L0,7 L-2,6 L0,4 L-1,2 Z M-3,3 L-1,4 Z " fill="#5D6870" transform="translate(22,77)"/>
<path d="M0,0 L1,3 L0,6 L-4,6 L-4,3 L-2,3 L-2,1 Z " fill="#616C74" transform="translate(57,78)"/>
<path d="M0,0 L7,1 L7,3 L0,3 Z " fill="#75838A" transform="translate(96,81)"/>
<path d="M0,0 L6,0 L3,1 L3,3 L-3,3 Z " fill="#3B454F" transform="translate(9,54)"/>
<path d="M0,0 L4,0 L4,4 L0,3 Z " fill="#3A464D" transform="translate(39,11)"/>
<path d="M0,0 L4,1 L4,4 L0,4 Z " fill="#5B686F" transform="translate(91,80)"/>
<path d="M0,0 L2,0 L2,2 L4,3 L-3,3 L-3,1 Z " fill="#4A555D" transform="translate(108,55)"/>
<path d="M0,0 L2,0 L2,3 L4,4 L-1,3 Z M4,1 L6,2 L4,3 Z " fill="#4A5C62" transform="translate(61,37)"/>
<path d="M0,0 L3,1 L4,3 L-1,3 Z " fill="#4E5860" transform="translate(131,81)"/>
<path d="M0,0 L4,1 L4,3 L1,3 Z " fill="#5F6B73" transform="translate(63,81)"/>
</svg>
