<?xml version="1.0" encoding="UTF-8"?>
<!-- Generator: visioncortex VTracer 0.6.5 -->
<svg version="1.1" xmlns="http://www.w3.org/2000/svg" width="150" height="84">
<path d="M0,0 L150,0 L150,84 L0,84 Z " fill="#0D171C" transform="translate(0,0)"/>
<path d="M0,0 L18,0 L25,1 L26,0 L38,0 L40,5 L42,6 L51,7 L53,8 L53,10 L57,10 L58,12 L61,13 L62,20 L66,21 L67,24 L70,25 L71,32 L70,36 L72,36 L73,43 L68,48 L65,52 L60,54 L45,57 L37,60 L32,62 L32,64 L27,65 L12,65 L-2,63 L-2,61 L-12,61 L-14,60 L-14,58 L-21,56 L-27,51 L-26,55 L-31,53 L-31,51 L-28,51 L-28,47 L-34,45 L-36,43 L-35,39 L-34,36 L-30,36 L-29,29 L-29,27 L-34,25 L-35,21 L-34,19 L-29,18 L-28,16 L-25,16 L-25,14 L-19,12 L-19,9 L-16,9 L-15,6 L-11,2 L-2,1 Z M-37,41 Z " fill="#546067" transform="translate(63,11)"/>
<path d="M0,0 L105,0 L107,4 L105,5 L111,6 L111,8 L105,8 L104,9 L91,10 L83,11 L80,9 L73,9 L66,10 L62,9 L53,12 L53,10 L49,9 L49,7 L43,9 L34,10 L30,13 L28,13 L28,15 L25,15 L25,19 L27,18 L33,18 L33,20 L26,21 L25,22 L18,22 L17,24 L13,23 L13,29 L11,29 L11,35 L17,32 L19,30 L23,31 L20,37 L18,43 L17,47 L17,52 L22,54 L22,57 L28,59 L26,63 L20,64 L15,64 L16,67 L20,69 L21,73 L33,78 L32,75 L30,73 L32,73 L32,71 L26,71 L26,69 L32,68 L32,66 L37,66 L36,62 L40,64 L42,66 L49,69 L49,71 L61,72 L61,74 L70,74 L75,75 L75,77 L83,77 L84,84 L0,84 Z " fill="#061011" transform="translate(0,0)"/>
<path d="M0,0 L5,0 L6,2 L10,4 L20,1 L26,2 L33,1 L37,2 L44,3 L47,2 L60,2 L61,5 L67,4 L68,2 L73,4 L77,6 L78,11 L77,13 L81,14 L81,24 L80,24 L80,17 L76,16 L76,14 L72,14 L72,12 L61,11 L58,9 L57,4 L45,5 L40,6 L32,5 L19,5 L17,6 L8,6 L6,10 L3,13 L0,13 L0,16 L-3,18 L-6,18 L-6,20 L-9,20 L-10,23 L-15,23 L-15,28 L-10,31 L-9,38 L-11,41 L-15,40 L-16,47 L-11,50 L-9,51 L-9,55 L-12,55 L-11,57 L-8,59 L-12,59 L-12,61 L-18,62 L-18,64 L-12,64 L-11,71 L-16,70 L-24,66 L-24,62 L-29,60 L-30,56 L-20,56 L-17,54 L-17,52 L-22,50 L-23,47 L-27,45 L-28,38 L-26,35 L-23,26 L-22,24 L-26,25 L-30,28 L-33,28 L-33,22 L-31,22 L-31,16 L-26,15 L-19,14 L-18,13 L-11,13 L-11,11 L-19,12 L-19,8 L-16,8 L-16,6 L-10,2 L-1,1 Z M-18,45 Z " fill="#2D373F" transform="translate(44,7)"/>
<path d="M0,0 L17,0 L26,1 L69,1 L74,2 L74,5 L72,5 L72,7 L60,10 L56,13 L54,13 L54,15 L49,16 L34,16 L20,14 L20,12 L10,12 L8,11 L8,9 L5,8 L0,2 Z " fill="#78858D" transform="translate(41,60)"/>
<path d="M0,0 L3,0 L3,2 L5,2 L6,5 L9,7 L9,10 L6,11 L6,8 L-1,8 L-1,1 Z M3,10 L6,11 L8,16 L8,23 L11,28 L11,33 L14,34 L14,39 L12,39 L10,43 L8,43 L8,45 L4,47 L1,47 L1,49 L-3,49 L-4,51 L-7,52 L-9,56 L-13,58 L-28,58 L-34,62 L-44,62 L-45,55 L-53,55 L-53,54 L-33,53 L-33,51 L-27,47 L-15,44 L-5,42 L0,40 L4,34 L7,32 L7,25 L5,25 L5,17 L4,14 L1,14 L1,11 Z M8,13 Z " fill="#2A353D" transform="translate(128,22)"/>
<path d="M0,0 L4,0 L4,23 L-52,23 L-47,19 L-45,18 L-31,18 L-27,16 L-25,12 L-22,12 L-21,9 L-10,8 L-4,1 Z " fill="#040D11" transform="translate(146,61)"/>
<path d="M0,0 L2,1 L2,4 L7,7 L8,14 L6,17 L2,16 L1,23 L6,26 L8,27 L8,31 L5,31 L6,33 L9,35 L5,35 L5,37 L-1,38 L-1,40 L5,40 L6,47 L1,46 L-7,42 L-7,38 L-12,36 L-13,32 L-3,32 L0,30 L0,28 L-3,27 L-6,21 L-6,15 L-7,12 L-4,7 L-2,7 L-2,1 Z M-1,21 Z M-8,14 Z " fill="#1D282C" transform="translate(27,31)"/>
<path d="M0,0 L2,2 L2,5 L4,5 L5,9 L9,11 L10,13 L8,13 L8,15 L5,15 L4,18 L-5,20 L-5,26 L-8,28 L-10,33 L-8,34 L-8,40 L-6,45 L-8,45 L-9,42 L-13,40 L-14,33 L-12,30 L-9,21 L-8,19 L-12,20 L-16,23 L-19,23 L-19,17 L-17,17 L-17,11 L-12,10 L-5,9 L-4,8 L3,8 L3,6 L-5,7 L-5,3 L-2,3 L-2,1 Z M-11,33 Z " fill="#212C32" transform="translate(30,12)"/>
<path d="M0,0 L7,0 L10,2 L9,6 L7,7 L6,10 L13,10 L13,8 L18,8 L14,11 L-1,11 L-7,15 L-17,15 L-18,8 L-26,8 L-26,7 L-6,6 L-6,4 Z " fill="#18222A" transform="translate(101,69)"/>
<path d="M0,0 L4,0 L4,3 L2,3 L1,8 L-1,8 L-1,10 L-5,12 L-8,12 L-8,14 L-12,14 L-13,16 L-16,17 L-17,20 L-23,20 L-23,22 L-30,22 L-29,18 L-27,17 L-27,14 L-30,11 L-29,10 L-19,10 L-18,12 L-12,10 L-11,8 L-5,8 L-5,4 L-1,3 Z " fill="#202A32" transform="translate(137,57)"/>
<path d="M0,0 L4,2 L6,4 L13,7 L13,9 L25,10 L25,12 L34,12 L39,13 L39,14 L33,14 L32,18 L24,18 L14,15 L12,13 L6,13 L0,4 Z " fill="#2B363B" transform="translate(36,62)"/>
<path d="M0,0 L2,1 L2,4 L7,7 L8,14 L6,17 L2,16 L1,23 L3,26 L-4,25 L-6,21 L-6,15 L-7,12 L-4,7 L-2,7 L-2,1 Z M-1,21 Z M-8,14 Z " fill="#353F48" transform="translate(27,31)"/>
<path d="M0,0 L5,0 L10,2 L10,7 L9,5 L-39,5 L-48,4 L-49,2 L-19,2 L-18,1 L-1,1 Z " fill="#616D74" transform="translate(106,57)"/>
<path d="M0,0 L5,0 L4,3 L-1,6 L-1,8 L-6,8 L-4,12 L0,12 L1,8 L8,7 L4,12 L1,12 L1,15 L-3,17 L-8,13 L-9,9 L-11,9 L-12,4 L-9,1 Z " fill="#2C373C" transform="translate(43,8)"/>
<path d="M0,0 L4,0 L4,3 L2,3 L1,8 L-1,8 L-1,10 L-5,12 L-8,12 L-8,14 L-14,14 L-21,16 L-22,14 L-17,11 L-12,10 L-11,8 L-5,8 L-5,4 L-1,3 Z " fill="#3D474F" transform="translate(137,57)"/>
<path d="M0,0 L6,0 L5,2 L0,2 L-1,7 L-5,8 L-6,13 L-13,13 L-16,10 L-16,8 L-26,8 L-26,7 L-6,6 L-6,4 Z " fill="#364149" transform="translate(101,69)"/>
<path d="M0,0 L12,0 L14,5 L16,6 L25,7 L27,9 L13,9 L10,6 L-5,3 L-1,1 Z " fill="#455058" transform="translate(89,11)"/>
<path d="M0,0 L5,0 L6,2 L9,3 L10,6 L8,6 L8,8 L0,10 L-1,13 L-5,14 L-7,12 L-8,7 L-1,5 L3,3 L4,1 Z " fill="#222C34" transform="translate(44,7)"/>
<path d="M0,0 L17,1 L22,2 L22,3 L16,3 L15,7 L7,7 L1,5 L1,4 L7,4 L7,2 L0,1 Z " fill="#1C262E" transform="translate(53,73)"/>
<path d="M0,0 L3,0 L3,2 L5,2 L6,5 L9,7 L9,10 L6,11 L6,8 L-1,8 L-1,1 Z M3,10 L6,11 L8,16 L6,16 L6,14 L1,14 L1,11 Z M8,13 Z " fill="#273138" transform="translate(128,22)"/>
<path d="M0,0 L1,0 L1,5 L-1,5 L-1,12 L1,13 L1,19 L3,24 L1,24 L0,21 L-4,19 L-5,12 L-3,9 Z M-2,12 Z " fill="#131E24" transform="translate(21,33)"/>
<path d="M0,0 L2,2 L2,5 L4,5 L5,9 L9,11 L10,13 L5,11 L4,10 L-4,9 L-4,8 L3,8 L3,6 L-5,7 L-5,3 L-2,3 L-2,1 Z " fill="#1F2A2B" transform="translate(30,12)"/>
<path d="M0,0 L8,0 L7,3 L4,3 L4,5 L-2,5 L-9,7 L-10,5 L-5,2 L0,1 Z " fill="#616B73" transform="translate(125,66)"/>
<path d="M0,0 L6,0 L5,2 L0,2 L-1,7 L-5,8 L-6,10 L-11,9 L-11,6 L-6,6 L-6,4 Z " fill="#27323A" transform="translate(101,69)"/>
<path d="M0,0 L4,1 L3,4 L1,4 L0,7 L-6,8 L-7,5 L-5,5 L-5,3 Z " fill="#354047" transform="translate(25,21)"/>
<path d="M0,0 L4,1 L18,2 L14,4 L1,4 L-1,5 L-8,5 L-8,3 Z " fill="#323D45" transform="translate(62,8)"/>
<path d="M0,0 L7,0 L7,1 L-5,4 L-9,7 L-11,7 L-11,9 L-18,10 L-22,8 L-13,8 L-13,6 L-10,4 L-7,4 L-7,2 L0,2 Z " fill="#5E6970" transform="translate(106,66)"/>
<path d="M0,0 L2,1 L-2,5 L-5,5 L-5,8 L-9,10 L-13,6 L-13,4 L-6,5 L-5,1 Z " fill="#353F44" transform="translate(49,15)"/>
<path d="M0,0 L6,0 L2,2 L2,4 L-2,4 L-4,8 L-6,8 L-6,13 L-7,13 L-7,7 L-5,7 L-5,1 Z " fill="#162122" transform="translate(18,22)"/>
<path d="M0,0 L2,0 L1,4 L-1,4 L-1,7 L-7,11 L-11,14 L-14,14 L-14,12 L-8,10 L-8,7 L-5,7 L-4,4 Z " fill="#485258" transform="translate(52,13)"/>
<path d="M0,0 L6,0 L10,3 L10,6 L7,6 L6,8 L4,4 L-2,5 L0,1 Z " fill="#2C3739" transform="translate(28,21)"/>
<path d="M0,0 L2,2 L4,11 L5,18 L-1,23 L-1,20 L2,18 L2,11 L0,11 Z " fill="#3A444C" transform="translate(133,36)"/>
<path d="M0,0 L8,0 L13,2 L22,3 L24,5 L10,5 L7,2 L0,1 Z " fill="#48525A" transform="translate(92,15)"/>
<path d="M0,0 L8,0 L9,7 L4,6 L3,3 L0,3 Z " fill="#2E393B" transform="translate(24,71)"/>
<path d="M0,0 L7,0 L9,3 L1,2 L6,9 L1,8 L-1,6 Z " fill="#626C73" transform="translate(40,58)"/>
<path d="M0,0 L13,1 L22,3 L28,3 L27,6 L12,4 L12,2 L2,2 Z " fill="#576269" transform="translate(49,70)"/>
<path d="M0,0 L2,1 L1,3 L-2,4 L-3,6 L-11,5 L-11,2 L-8,1 L-7,2 Z " fill="#3D474F" transform="translate(123,70)"/>
<path d="M0,0 L3,1 L0,4 L-2,8 L-6,9 L-7,5 L-6,3 L-1,2 Z " fill="#475158" transform="translate(35,27)"/>
<path d="M0,0 L13,0 L13,1 L7,1 L6,5 L-2,5 L-2,4 L3,4 L3,2 L0,2 Z " fill="#141E26" transform="translate(62,75)"/>
<path d="M0,0 L13,0 L14,3 L1,3 Z " fill="#1F2931" transform="translate(105,0)"/>
<path d="M0,0 L6,0 L8,2 L8,5 L2,5 L0,3 Z " fill="#2D383B" transform="translate(14,63)"/>
<path d="M0,0 L9,0 L9,1 L4,2 L8,3 L8,5 L-2,5 L0,4 Z " fill="#2B363D" transform="translate(52,72)"/>
<path d="M0,0 L2,1 L16,2 L18,3 L18,5 L0,3 Z " fill="#5D686F" transform="translate(100,18)"/>
<path d="M0,0 L7,0 L6,4 L-3,4 L-2,2 L0,2 Z " fill="#545E65" transform="translate(36,10)"/>
<path d="M0,0 L4,1 L4,6 L-3,6 L-3,3 L1,2 Z " fill="#1E282E" transform="translate(130,72)"/>
<path d="M0,0 L2,1 L1,7 L3,10 L-3,9 L-3,4 Z M-1,5 Z " fill="#3E484F" transform="translate(27,47)"/>
<path d="M0,0 L2,2 L2,5 L-6,6 L-6,2 Z " fill="#1D282C" transform="translate(32,24)"/>
<path d="M0,0 L5,0 L6,2 L9,3 L7,7 L2,7 L4,1 Z " fill="#18222A" transform="translate(44,7)"/>
<path d="M0,0 L7,0 L9,5 L0,3 Z " fill="#3B454D" transform="translate(94,12)"/>
<path d="M0,0 L2,1 L2,7 L4,12 L2,12 L0,6 L-2,6 L-1,1 Z " fill="#1D272E" transform="translate(20,45)"/>
<path d="M0,0 L6,0 L5,4 L0,4 Z " fill="#242F36" transform="translate(112,67)"/>
<path d="M0,0 L1,3 L-5,5 L-9,4 L-4,1 Z " fill="#2F3941" transform="translate(128,62)"/>
<path d="M0,0 L1,3 L-2,6 L-3,4 L-10,4 L-10,3 L-3,2 Z " fill="#4D585F" transform="translate(136,62)"/>
<path d="M0,0 L9,1 L6,3 L-1,3 L-5,1 Z " fill="#68737B" transform="translate(94,59)"/>
<path d="M0,0 L7,0 L7,1 L-5,4 L-6,2 Z " fill="#747F87" transform="translate(121,69)"/>
<path d="M0,0 L5,1 L5,5 L2,5 L1,7 L0,4 L2,4 Z " fill="#323D42" transform="translate(30,57)"/>
<path d="M0,0 L3,0 L3,2 L5,2 L4,4 L0,3 L1,8 L-1,8 L-1,1 Z " fill="#1D272E" transform="translate(128,22)"/>
<path d="M0,0 L7,0 L5,2 L1,4 L-3,6 L-3,3 Z " fill="#69737B" transform="translate(54,14)"/>
<path d="M0,0 L1,2 L0,8 L-5,6 L-5,4 L-2,4 Z " fill="#495459" transform="translate(37,58)"/>
<path d="M0,0 L5,0 L4,3 L0,4 L0,2 L-5,2 L-5,1 Z " fill="#39434B" transform="translate(43,8)"/>
<path d="M0,0 L4,0 L4,5 L0,5 Z " fill="#000103" transform="translate(99,0)"/>
<path d="M0,0 L4,0 L4,4 L6,5 L3,6 L-1,1 Z " fill="#323C44" transform="translate(108,67)"/>
<path d="M0,0 L7,1 L8,3 L2,3 L0,2 Z " fill="#1A252C" transform="translate(44,70)"/>
<path d="M0,0 L5,0 L3,1 L3,4 L6,5 L0,4 Z " fill="#212C2E" transform="translate(21,70)"/>
<path d="M0,0 L2,2 L3,11 L0,11 Z " fill="#2F3941" transform="translate(133,36)"/>
<path d="M0,0 L4,1 L4,11 L3,11 L2,4 Z " fill="#263038" transform="translate(121,20)"/>
<path d="M0,0 L4,2 L6,3 L6,5 L1,4 Z " fill="#131E22" transform="translate(38,64)"/>
<path d="M0,0 L4,0 L4,4 L0,4 L-1,1 Z " fill="#5F6A72" transform="translate(124,58)"/>
<path d="M0,0 L4,1 L5,6 L3,8 L2,4 L2,2 Z " fill="#222C34" transform="translate(117,12)"/>
<path d="M0,0 L12,0 L11,3 L0,1 Z " fill="#667279" transform="translate(65,73)"/>
<path d="M0,0 L7,1 L7,4 L5,6 L5,2 L0,2 Z " fill="#4C565E" transform="translate(123,56)"/>
<path d="M0,0 L6,0 L6,3 L1,3 Z " fill="#131E23" transform="translate(128,30)"/>
<path d="M0,0 L6,0 L2,2 L2,4 L-1,4 Z " fill="#1C262A" transform="translate(18,22)"/>
<path d="M0,0 L2,2 L-1,5 L-6,5 L-1,1 Z " fill="#061018" transform="translate(100,79)"/>
<path d="M0,0 L4,2 L2,4 L-2,4 L-2,1 Z " fill="#4E5960" transform="translate(114,71)"/>
<path d="M0,0 L2,1 L-4,4 L-6,4 L-5,1 Z " fill="#303A40" transform="translate(49,15)"/>
<path d="M0,0 L7,0 L8,3 L3,2 Z " fill="#2C373F" transform="translate(111,0)"/>
<path d="M0,0 L3,1 L3,3 L0,3 L-1,5 L-1,1 Z " fill="#121C24" transform="translate(97,75)"/>
<path d="M0,0 L2,1 L0,4 L-5,5 Z " fill="#616D71" transform="translate(49,20)"/>
<path d="M0,0 L5,1 L4,3 L0,3 Z " fill="#353F47" transform="translate(107,76)"/>
<path d="M0,0 L2,0 L1,4 L-4,5 Z " fill="#3F4951" transform="translate(52,13)"/>
<path d="M0,0 L4,1 L4,3 L0,3 Z " fill="#3F4A4E" transform="translate(24,71)"/>
<path d="M0,0 L3,1 L3,6 L0,5 Z " fill="#39444A" transform="translate(36,62)"/>
<path d="M0,0 L4,1 L2,1 L2,3 L-2,2 Z " fill="#222D32" transform="translate(34,9)"/>
<path d="M0,0 L4,0 L4,2 L0,3 Z " fill="#071119" transform="translate(112,68)"/>
<path d="M0,0 L3,0 L3,3 L0,3 Z " fill="#505A60" transform="translate(30,75)"/>
<path d="M0,0 L3,1 L3,3 L-1,3 Z " fill="#313B43" transform="translate(117,73)"/>
<path d="M0,0 L3,0 L1,4 Z " fill="#2E3940" transform="translate(132,61)"/>
<path d="M0,0 L2,1 L2,3 L-4,2 Z " fill="#253033" transform="translate(135,28)"/>
<path d="M0,0 L3,1 L3,3 L-1,2 Z " fill="#3F4A4A" transform="translate(26,21)"/>
<path d="M0,0 L2,1 L2,3 L-2,2 Z " fill="#0F1920" transform="translate(40,72)"/>
</svg>
