<?xml version="1.0" encoding="UTF-8"?>
<!-- Generator: visioncortex VTracer 0.6.5 -->
<svg version="1.1" xmlns="http://www.w3.org/2000/svg" width="150" height="84">
<path d="M0,0 L150,0 L150,84 L0,84 Z " fill="#4B575E" transform="translate(0,0)"/>
<path d="M0,0 L68,0 L68,84 L-62,84 L-63,82 L-52,82 L-52,80 L-57,78 L-70,74 L-68,79 L-73,76 L-75,71 L-77,71 L-78,65 L-77,63 L-68,66 L-59,69 L-61,66 L-61,59 L-65,57 L-64,55 L-57,60 L-58,65 L-53,66 L-49,70 L-51,65 L-43,67 L-37,72 L-29,74 L-29,76 L-20,77 L-20,79 L-10,79 L-5,80 L10,80 L22,76 L23,73 L32,72 L36,69 L45,67 L51,67 L51,65 L59,63 L61,60 L67,60 L67,56 L63,56 L61,49 L61,43 L56,43 L57,37 L54,32 L54,29 L52,30 L48,28 L47,21 L43,19 L41,15 L39,14 L39,11 L20,10 L16,9 L16,6 L20,6 L20,4 L8,5 L4,6 L4,4 L0,3 Z M57,27 Z M56,28 Z " fill="#061013" transform="translate(82,0)"/>
<path d="M0,0 L11,1 L33,1 L35,2 L35,0 L45,0 L50,1 L58,0 L64,0 L65,1 L75,0 L96,0 L102,2 L105,4 L105,6 L98,7 L88,11 L79,12 L78,15 L73,17 L70,18 L69,20 L57,24 L39,24 L37,23 L27,22 L27,20 L18,19 L18,17 L10,16 L6,13 L6,11 L-1,9 L-1,7 L-3,7 L-3,1 Z " fill="#79868D" transform="translate(35,57)"/>
<path d="M0,0 L81,0 L81,3 L77,4 L63,5 L62,6 L52,7 L49,12 L46,16 L38,19 L35,20 L35,22 L33,22 L31,26 L30,27 L23,27 L24,33 L20,34 L18,37 L15,36 L16,41 L17,47 L15,47 L15,57 L12,54 L11,52 L11,46 L12,45 L12,36 L16,31 L15,27 L12,27 L7,33 L5,33 L4,38 L0,41 Z " fill="#242E31" transform="translate(0,0)"/>
<path d="M0,0 L8,5 L7,10 L12,11 L16,15 L14,10 L22,12 L28,17 L36,19 L36,21 L45,22 L45,24 L55,24 L60,25 L75,25 L87,21 L88,18 L97,17 L101,14 L110,12 L116,12 L116,10 L123,9 L120,11 L132,10 L131,14 L125,17 L123,17 L123,19 L116,20 L116,22 L106,24 L103,26 L96,26 L95,23 L93,23 L93,25 L90,27 L79,29 L3,29 L2,27 L13,27 L13,25 L8,23 L-5,19 L-3,24 L-8,21 L-10,16 L-12,16 L-13,10 L-12,8 L-3,11 L6,14 L4,11 L4,4 L0,2 Z " fill="#2B363E" transform="translate(17,55)"/>
<path d="M0,0 L2,1 L2,3 L7,4 L9,6 L10,3 L16,2 L16,62 L-38,62 L-35,60 L-27,59 L-24,58 L-24,56 L-21,55 L-21,59 L-12,57 L-5,55 L-1,55 L-1,53 L6,52 L6,50 L14,46 L14,44 L1,45 L3,43 L7,41 L9,38 L15,38 L15,34 L11,34 L9,27 L9,21 L4,21 L5,15 L2,10 L2,7 L0,8 L-3,6 L-1,6 L-1,1 Z M5,5 Z M4,6 Z " fill="#1E2930" transform="translate(134,22)"/>
<path d="M0,0 L28,0 L28,4 L21,5 L18,12 L16,13 L18,14 L18,16 L9,19 L5,24 L5,37 L0,41 Z " fill="#010907" transform="translate(0,0)"/>
<path d="M0,0 L8,5 L7,10 L12,11 L16,16 L18,22 L19,23 L32,25 L35,29 L3,29 L2,27 L13,27 L13,25 L8,23 L-5,19 L-3,24 L-8,21 L-10,16 L-12,16 L-13,10 L-12,8 L-3,11 L6,14 L4,11 L4,4 L0,2 Z M14,10 L19,12 L19,14 L22,15 L22,17 L16,16 Z " fill="#121D21" transform="translate(17,55)"/>
<path d="M0,0 L49,0 L49,3 L45,4 L31,5 L30,6 L20,7 L17,12 L14,16 L6,19 L3,20 L3,22 L1,22 L-1,26 L-2,27 L-9,27 L-8,33 L-12,32 L-11,26 L-10,25 L-1,23 L0,21 L2,21 L5,12 L9,11 L9,9 L6,9 L6,7 L-7,7 L-6,5 L-1,5 Z " fill="#2D373E" transform="translate(32,0)"/>
<path d="M0,0 L11,1 L33,1 L35,2 L35,0 L45,0 L50,1 L58,0 L64,0 L65,1 L75,0 L96,0 L102,2 L105,4 L105,6 L98,7 L94,8 L95,5 L1,5 L4,10 L-1,9 L-1,7 L-3,7 L-3,1 Z " fill="#5C686F" transform="translate(35,57)"/>
<path d="M0,0 L34,0 L34,2 L41,3 L41,4 L34,5 L39,6 L40,13 L43,13 L43,15 L47,16 L50,23 L49,28 L48,28 L47,21 L43,19 L41,15 L39,14 L39,11 L20,10 L16,9 L16,6 L20,6 L20,4 L8,5 L4,6 L4,4 L0,3 Z " fill="#162129" transform="translate(82,0)"/>
<path d="M0,0 L4,1 L3,2 L13,1 L12,5 L6,8 L4,8 L4,10 L-3,11 L-3,13 L-13,15 L-16,17 L-23,17 L-24,14 L-26,14 L-26,16 L-28,15 L-29,11 L-20,8 L-12,6 L-12,4 L-3,3 L-3,1 Z " fill="#1C272F" transform="translate(136,64)"/>
<path d="M0,0 L12,1 L12,9 L-42,9 L-39,7 L-31,6 L-28,5 L-28,3 L-25,2 L-25,6 L-16,4 L-9,2 Z " fill="#08131A" transform="translate(138,75)"/>
<path d="M0,0 L42,0 L42,3 L38,4 L24,5 L23,6 L12,6 L12,4 L10,4 L10,8 L1,7 L0,6 Z " fill="#202A32" transform="translate(39,0)"/>
<path d="M0,0 L3,1 L0,4 L-4,4 L-4,7 L-6,8 L-6,13 L-4,12 L-3,9 L5,8 L5,6 L7,5 L14,5 L15,9 L9,10 L6,21 L2,20 L3,25 L4,31 L2,31 L2,41 L-1,38 L-2,36 L-2,30 L-1,29 L-1,20 L3,15 L2,11 L-1,11 L-6,17 L-8,17 L-9,7 L-4,2 Z " fill="#19242B" transform="translate(13,16)"/>
<path d="M0,0 L5,1 L11,6 L19,8 L19,10 L28,11 L28,12 L23,12 L23,18 L18,18 L15,15 L2,13 L-1,10 L-1,5 L5,6 L2,3 L2,1 Z " fill="#242E33" transform="translate(34,66)"/>
<path d="M0,0 L17,0 L21,3 L8,5 L2,3 L2,5 L-8,6 L-13,11 L-14,14 L-21,16 L-22,18 L-21,14 L-17,13 L-16,9 L-13,6 L-11,2 L-1,1 Z " fill="#5B666D" transform="translate(63,4)"/>
<path d="M0,0 L5,0 L2,1 L1,4 L-4,6 L-7,7 L-8,9 L-20,13 L-26,13 L-28,10 L-28,7 L-27,5 L-21,4 L-16,5 L-1,1 Z " fill="#717D84" transform="translate(112,68)"/>
<path d="M0,0 L8,2 L8,3 L-18,4 L-72,4 L-69,9 L-74,8 L-74,6 L-76,6 L-76,1 L-2,1 Z " fill="#68757C" transform="translate(108,58)"/>
<path d="M0,0 L4,2 L17,4 L20,8 L-12,8 L-13,6 L-2,6 L-2,4 L-4,4 L-3,1 Z " fill="#040D0D" transform="translate(32,76)"/>
<path d="M0,0 L5,2 L13,3 L13,5 L20,3 L21,6 L23,6 L23,8 L28,8 L28,5 L31,3 L38,4 L40,5 L40,7 L33,7 L33,9 L39,10 L39,12 L33,12 L31,11 L21,10 L21,8 L12,7 L12,5 L4,4 Z " fill="#636E76" transform="translate(41,69)"/>
<path d="M0,0 L9,3 L14,5 L12,10 L16,11 L16,13 L7,11 L9,16 L4,13 L2,8 L0,8 L-1,2 Z " fill="#162123" transform="translate(5,63)"/>
<path d="M0,0 L15,1 L17,2 L17,4 L31,4 L32,6 L0,6 Z " fill="#0A151D" transform="translate(57,78)"/>
<path d="M0,0 L14,0 L15,1 L15,6 L23,6 L30,7 L30,10 L33,10 L33,12 L37,13 L40,20 L39,25 L38,25 L37,18 L33,16 L31,12 L29,11 L29,8 L10,7 L6,6 L6,3 L10,3 L10,1 L0,1 Z " fill="#303A42" transform="translate(92,3)"/>
<path d="M0,0 L1,3 L-6,7 L-8,7 L-8,9 L-15,10 L-15,12 L-23,12 L-23,9 L-21,9 L-20,6 L-15,5 L-11,5 L-8,2 Z " fill="#5A646C" transform="translate(148,65)"/>
<path d="M0,0 L3,1 L0,4 L-4,4 L-4,7 L-6,8 L-6,13 L-4,12 L-3,9 L5,8 L5,6 L7,5 L14,5 L15,9 L6,9 L5,12 L-1,11 L-6,17 L-8,17 L-9,7 L-4,2 Z " fill="#1B2727" transform="translate(13,16)"/>
<path d="M0,0 L5,0 L4,4 L0,4 L0,6 L-2,6 L-3,10 L-9,10 L-10,14 L-13,15 L-13,9 L-10,8 L-10,5 L-6,5 L-5,2 Z " fill="#323D41" transform="translate(19,15)"/>
<path d="M0,0 L10,1 L10,3 L19,4 L19,5 L14,5 L14,11 L9,11 L6,8 L2,6 L4,5 L1,4 Z " fill="#1B252D" transform="translate(43,73)"/>
<path d="M0,0 L2,3 L5,4 L5,6 L9,4 L21,4 L21,6 L17,6 L17,9 L33,10 L33,11 L14,11 L11,9 L11,6 L9,7 L3,7 L-4,4 L0,3 Z " fill="#475159" transform="translate(81,0)"/>
<path d="M0,0 L2,0 L2,14 L-15,14 L-12,12 L-8,12 L-8,10 L0,6 L0,4 L-4,3 Z " fill="#0D181F" transform="translate(148,62)"/>
<path d="M0,0 L7,1 L16,5 L18,6 L18,8 L7,8 L2,5 Z " fill="#212B2F" transform="translate(12,74)"/>
<path d="M0,0 L4,5 L11,7 L11,11 L17,13 L16,15 L17,19 L15,20 L15,18 L12,17 L11,15 L7,14 L7,9 L1,5 Z " fill="#374148" transform="translate(17,51)"/>
<path d="M0,0 L18,0 L20,1 L20,3 L5,3 L3,3 L-2,3 L-5,6 L-8,6 L-7,3 Z " fill="#5C676F" transform="translate(73,32)"/>
<path d="M0,0 L2,0 L2,3 L5,4 L25,5 L26,8 L24,9 L23,7 L13,7 L-1,6 L-1,4 L-6,2 L-6,1 Z " fill="#5E6971" transform="translate(90,6)"/>
<path d="M0,0 L5,0 L2,1 L1,4 L-4,6 L-7,7 L-8,9 L-15,11 L-13,8 L-15,7 L-15,5 L-10,3 L-1,1 Z " fill="#67737A" transform="translate(112,68)"/>
<path d="M0,0 L16,0 L16,3 L12,4 L2,4 L0,3 Z " fill="#1A252C" transform="translate(65,0)"/>
<path d="M0,0 L7,0 L8,5 L4,8 L1,7 L-2,5 L-1,1 Z " fill="#020A0B" transform="translate(19,68)"/>
<path d="M0,0 L2,1 L2,7 L6,7 L6,11 L0,12 L-2,14 L-3,7 L-1,5 Z " fill="#38434B" transform="translate(143,49)"/>
<path d="M0,0 L5,1 L5,13 L3,13 L-1,6 L-1,1 Z " fill="#141E26" transform="translate(145,42)"/>
<path d="M0,0 L2,1 L2,3 L7,4 L8,9 L4,10 L3,12 L2,8 L0,8 L-3,6 L-1,6 L-1,1 Z M5,5 Z M4,6 Z " fill="#2E3840" transform="translate(134,22)"/>
<path d="M0,0 L2,1 L1,3 L-1,3 L-1,6 L3,7 L-4,9 L-11,10 L-10,5 L-3,3 L0,2 Z " fill="#2D373F" transform="translate(126,71)"/>
<path d="M0,0 L6,1 L6,3 L9,3 L9,5 L2,9 L-1,6 Z " fill="#1A242B" transform="translate(32,6)"/>
<path d="M0,0 L8,5 L7,10 L12,11 L13,14 L6,13 L4,11 L4,4 L0,2 Z " fill="#202A2F" transform="translate(17,55)"/>
<path d="M0,0 L7,0 L6,5 L0,7 L-7,7 L-6,5 L-1,5 Z " fill="#4F5A60" transform="translate(32,0)"/>
<path d="M0,0 L4,0 L3,5 L-6,5 L-7,12 L-9,12 L-10,16 L-10,14 L-13,13 L-10,11 L-8,5 L-4,3 L0,4 Z " fill="#141F1F" transform="translate(28,0)"/>
<path d="M0,0 L4,0 L4,13 L3,13 L3,7 L-4,6 L-2,1 Z " fill="#141F27" transform="translate(146,24)"/>
<path d="M0,0 L2,1 L6,0 L6,2 L-1,4 L-1,6 L1,7 L-7,7 L-7,4 L-5,4 L-4,1 Z " fill="#535E65" transform="translate(132,70)"/>
<path d="M0,0 L5,0 L6,8 L2,9 L-1,3 Z " fill="#252F37" transform="translate(144,31)"/>
<path d="M0,0 L3,1 L0,12 L-5,11 L-3,6 Z " fill="#253038" transform="translate(19,25)"/>
<path d="M0,0 L5,1 L7,3 L-6,5 L-11,3 L-11,2 L0,2 Z " fill="#7B868D" transform="translate(77,4)"/>
<path d="M0,0 L9,0 L8,5 L4,6 L4,4 L0,3 Z " fill="#101B23" transform="translate(82,0)"/>
<path d="M0,0 L9,1 L14,4 L14,6 L3,4 Z " fill="#566066" transform="translate(16,76)"/>
<path d="M0,0 L6,1 L14,5 L11,6 L2,4 L2,2 L0,2 Z " fill="#566166" transform="translate(34,73)"/>
<path d="M0,0 L6,0 L4,2 L-7,6 L-13,7 L-13,4 L-4,3 Z " fill="#333E46" transform="translate(118,69)"/>
<path d="M0,0 L7,0 L8,4 L-1,4 Z " fill="#070F12" transform="translate(20,21)"/>
<path d="M0,0 L6,1 L9,6 L4,6 L1,3 L-3,1 Z " fill="#293339" transform="translate(48,78)"/>
<path d="M0,0 L2,1 L1,4 L7,4 L7,5 L1,5 L0,9 L-3,10 L-3,4 L0,3 Z " fill="#293435" transform="translate(9,20)"/>
<path d="M0,0 L2,0 L2,9 L-6,10 L-3,7 L0,6 L0,4 L-4,3 Z " fill="#2F3A41" transform="translate(148,62)"/>
<path d="M0,0 L11,0 L10,2 L-1,4 L-6,4 L-3,3 L-3,1 Z " fill="#19242C" transform="translate(97,80)"/>
<path d="M0,0 L2,3 L5,4 L5,6 L11,4 L11,6 L9,7 L3,7 L-4,4 L0,3 Z " fill="#3C474E" transform="translate(81,0)"/>
<path d="M0,0 L5,0 L5,6 L4,4 L2,4 L1,8 L-1,7 Z " fill="#141F26" transform="translate(47,0)"/>
<path d="M0,0 L7,1 L9,2 L9,4 L1,4 L1,2 L-3,1 Z " fill="#69767D" transform="translate(72,72)"/>
<path d="M0,0 L1,2 L3,2 L1,7 L-3,6 L-3,2 Z " fill="#48525B" transform="translate(23,50)"/>
<path d="M0,0 L2,1 L1,6 L5,7 L4,11 L3,9 L-3,9 L-2,5 L0,5 Z " fill="#364048" transform="translate(138,36)"/>
<path d="M0,0 L3,1 L3,3 L5,3 L4,6 L-3,4 L-3,1 Z " fill="#6B777F" transform="translate(59,72)"/>
<path d="M0,0 L7,1 L9,2 L9,4 L1,4 Z " fill="#3E494D" transform="translate(6,66)"/>
<path d="M0,0 L4,0 L2,5 L-7,6 L-5,4 L-1,2 Z " fill="#162129" transform="translate(142,61)"/>
<path d="M0,0 L3,1 L0,4 L-4,4 L-4,7 L-9,8 L-4,2 Z " fill="#111D1B" transform="translate(13,16)"/>
<path d="M0,0 L2,3 L6,3 L6,7 L0,7 L-1,2 Z " fill="#17222A" transform="translate(144,36)"/>
<path d="M0,0 L5,1 L3,5 L-2,5 L-2,3 L0,3 Z " fill="#172320" transform="translate(24,9)"/>
<path d="M0,0 L4,1 L-2,5 L-6,6 L-7,3 Z " fill="#343E46" transform="translate(139,66)"/>
<path d="M0,0 L1,2 L-1,7 L-6,8 L-7,10 L-6,6 L-2,5 L-1,1 Z " fill="#5D686E" transform="translate(48,12)"/>
<path d="M0,0 L9,0 L9,1 L2,1 L3,7 L-1,6 Z " fill="#3E4950" transform="translate(21,26)"/>
<path d="M0,0 L2,1 L2,3 L6,4 L1,4 L1,7 L-3,6 L-1,6 L-1,1 Z " fill="#263038" transform="translate(134,22)"/>
<path d="M0,0 L6,0 L1,5 L-2,3 L-2,1 Z " fill="#131D23" transform="translate(34,10)"/>
<path d="M0,0 L2,0 L3,3 L-3,6 L-5,5 L-3,3 L-5,1 Z " fill="#5B656D" transform="translate(102,73)"/>
<path d="M0,0 L2,0 L2,7 L-3,9 L-3,7 L-1,7 Z " fill="#1E2A28" transform="translate(22,5)"/>
<path d="M0,0 L5,1 L6,3 L9,5 L1,4 Z " fill="#111C22" transform="translate(43,73)"/>
<path d="M0,0 L4,2 L4,4 L-7,4 L-4,2 L0,2 Z " fill="#2C373E" transform="translate(140,72)"/>
<path d="M0,0 L6,0 L2,1 L2,4 L6,5 L-1,4 Z " fill="#3D4850" transform="translate(96,5)"/>
<path d="M0,0 L5,0 L5,2 L10,2 L10,3 L1,3 Z " fill="#323D44" transform="translate(48,74)"/>
<path d="M0,0 L4,1 L-6,6 L-7,4 Z " fill="#414C51" transform="translate(42,16)"/>
<path d="M0,0 L4,1 L4,6 L0,5 Z " fill="#252F37" transform="translate(103,3)"/>
<path d="M0,0 L6,0 L4,2 L-4,3 L-3,1 Z " fill="#6A757C" transform="translate(122,65)"/>
<path d="M0,0 L7,1 L5,4 L1,3 Z " fill="#293436" transform="translate(12,74)"/>
<path d="M0,0 L7,0 L8,3 L1,2 Z " fill="#19232A" transform="translate(22,66)"/>
<path d="M0,0 L4,1 L1,2 L2,4 L-3,5 L-4,3 L-3,1 Z " fill="#222D34" transform="translate(136,64)"/>
<path d="M0,0 L5,1 L4,4 L1,5 Z " fill="#333C46" transform="translate(24,34)"/>
<path d="M0,0 L6,0 L6,4 L2,3 Z " fill="#434D52" transform="translate(16,76)"/>
<path d="M0,0 L3,1 L1,6 L-4,5 L0,4 Z " fill="#0A1516" transform="translate(16,67)"/>
<path d="M0,0 L5,1 L8,4 L6,5 L2,3 L2,1 Z " fill="#333D44" transform="translate(34,66)"/>
<path d="M0,0 L6,2 L5,4 L-1,4 Z " fill="#323D3D" transform="translate(24,5)"/>
<path d="M0,0 L5,1 L7,3 L1,4 Z " fill="#737D85" transform="translate(77,4)"/>
<path d="M0,0 L4,0 L3,3 L-2,3 L-2,1 Z " fill="#00070D" transform="translate(119,81)"/>
<path d="M0,0 L7,2 L7,3 L0,3 Z " fill="#030B12" transform="translate(72,81)"/>
<path d="M0,0 L6,1 L1,5 L-2,4 L0,4 Z " fill="#6B767E" transform="translate(96,74)"/>
<path d="M0,0 L3,0 L3,2 L-4,4 L-4,2 Z " fill="#757F87" transform="translate(135,72)"/>
<path d="M0,0 L1,0 L1,5 L-3,5 L-2,2 L0,2 Z " fill="#111C24" transform="translate(18,22)"/>
<path d="M0,0 L2,3 L5,5 L-4,4 L0,3 Z " fill="#2F3941" transform="translate(81,0)"/>
<path d="M0,0 L4,0 L4,4 L0,3 Z " fill="#273239" transform="translate(43,0)"/>
<path d="M0,0 L4,0 L4,3 L-1,3 Z " fill="#3C464E" transform="translate(117,77)"/>
<path d="M0,0 L6,1 L5,4 L2,4 L2,2 L0,2 Z " fill="#4C565C" transform="translate(34,73)"/>
<path d="M0,0 L4,0 L3,4 L0,4 Z " fill="#050D13" transform="translate(142,61)"/>
<path d="M0,0 L1,2 L-3,6 L-3,2 Z " fill="#414A54" transform="translate(23,50)"/>
<path d="M0,0 L2,0 L2,4 L-2,4 L-2,1 Z " fill="#404B51" transform="translate(14,19)"/>
<path d="M0,0 L3,0 L2,3 L-2,4 L-2,1 Z " fill="#475159" transform="translate(39,11)"/>
<path d="M0,0 L4,0 L3,3 L-1,3 Z " fill="#89959D" transform="translate(50,69)"/>
<path d="M0,0 L5,1 L5,3 L0,3 Z " fill="#081219" transform="translate(145,42)"/>
<path d="M0,0 L1,0 L3,7 L-1,7 Z " fill="#101B1E" transform="translate(137,18)"/>
<path d="M0,0 L2,0 L0,4 L-2,4 L-3,6 L-3,3 L-1,3 Z " fill="#4B565E" transform="translate(128,71)"/>
<path d="M0,0 L4,0 L4,2 L2,2 L2,4 L0,4 Z " fill="#646E75" transform="translate(138,70)"/>
<path d="M0,0 L1,3 L-2,4 L-2,2 L-5,1 Z " fill="#505A61" transform="translate(148,65)"/>
<path d="M0,0 L4,0 L4,3 L0,3 Z " fill="#626D74" transform="translate(34,0)"/>
<path d="M0,0 L5,1 L5,3 L0,2 Z " fill="#535E66" transform="translate(75,78)"/>
<path d="M0,0 L3,0 L3,3 L-1,3 Z " fill="#3B454D" transform="translate(146,57)"/>
<path d="M0,0 L1,2 L5,3 L-1,4 L-1,1 Z " fill="#2D383F" transform="translate(144,54)"/>
<path d="M0,0 L4,0 L3,3 L0,3 Z " fill="#111C1C" transform="translate(25,10)"/>
<path d="M0,0 L4,0 L4,2 L0,3 Z " fill="#07121A" transform="translate(127,68)"/>
<path d="M0,0 L3,1 L3,3 L-1,3 Z " fill="#3D4949" transform="translate(19,15)"/>
<path d="M0,0 L3,3 L-2,3 Z " fill="#071117" transform="translate(49,81)"/>
<path d="M0,0 L1,0 L1,5 L-2,4 Z " fill="#2C373E" transform="translate(140,26)"/>
<path d="M0,0 L2,2 L-2,3 L-2,1 Z " fill="#535E65" transform="translate(24,28)"/>
<path d="M0,0 L2,0 L2,3 L-1,3 Z " fill="#1D272C" transform="translate(25,18)"/>
<path d="M0,0 L3,1 L2,3 L0,3 Z " fill="#141F22" transform="translate(16,67)"/>
<path d="M0,0 L3,1 L1,3 Z " fill="#2B353A" transform="translate(31,16)"/>
</svg>
