<?xml version="1.0" encoding="UTF-8"?>
<!-- Generator: visioncortex VTracer 0.6.5 -->
<svg version="1.1" xmlns="http://www.w3.org/2000/svg" width="150" height="84">
<path d="M0,0 L150,0 L150,84 L0,84 Z " fill="#08070C" transform="translate(0,0)"/>
<path d="M0,0 L4,1 L7,4 L7,6 L11,6 L11,8 L14,8 L14,15 L16,15 L17,18 L17,20 L24,21 L24,65 L-29,65 L-30,58 L-47,61 L-52,61 L-51,56 L-60,57 L-65,57 L-64,63 L-70,61 L-80,58 L-80,56 L-68,55 L-67,52 L-75,51 L-94,48 L-94,46 L-99,46 L-100,44 L-104,43 L-104,41 L-102,40 L-101,32 L-106,32 L-111,30 L-112,32 L-116,30 L-115,26 L-116,23 L-118,23 L-116,18 L-114,18 L-113,21 L-111,22 L-111,20 L-108,20 L-110,26 L-100,26 L-100,32 L-98,32 L-98,34 L-95,32 L-92,32 L-91,29 L-90,32 L-91,35 L-87,35 L-85,35 L-85,32 L-82,33 L-81,35 L-77,33 L-72,33 L-71,38 L-67,38 L-67,41 L-61,39 L-57,39 L-57,37 L-47,36 L-48,29 L-50,29 L-48,25 L-44,25 L-41,26 L-41,31 L-43,33 L-44,35 L-41,36 L-36,35 L-36,30 L-34,30 L-36,23 L-39,24 L-40,21 L-43,23 L-44,17 L-37,16 L-36,12 L-36,14 L-33,13 L-30,14 L-30,16 L-28,16 L-30,12 L-21,13 L-20,8 L-16,9 L-16,11 L-12,12 L-10,17 L-6,19 L-6,21 L-4,21 L-3,25 L-1,25 L0,19 L-3,20 L-3,18 L-6,18 L-7,11 L-12,10 L-13,8 L-9,7 L-13,5 L-13,2 L-9,3 L-6,5 L-2,5 L-2,3 L0,3 Z " fill="#090A0E" transform="translate(126,19)"/>
<path d="M0,0 L49,0 L45,2 L40,2 L40,6 L47,3 L53,2 L53,5 L49,5 L49,7 L44,8 L44,12 L37,13 L36,10 L33,11 L29,10 L28,13 L25,13 L25,15 L29,14 L30,12 L35,12 L35,14 L37,14 L36,18 L30,20 L30,22 L36,23 L31,27 L29,32 L25,34 L24,38 L28,39 L30,35 L32,32 L34,32 L34,35 L39,34 L39,37 L33,36 L33,39 L28,42 L28,48 L30,48 L30,43 L34,41 L34,47 L36,48 L34,51 L28,53 L28,51 L26,51 L26,45 L16,45 L18,39 L15,39 L15,41 L12,40 L12,37 L10,37 L8,42 L10,42 L12,46 L12,50 L14,51 L15,48 L25,51 L25,59 L22,60 L22,62 L27,63 L27,65 L32,65 L32,67 L43,68 L45,67 L45,69 L55,70 L59,71 L58,75 L46,75 L46,77 L56,79 L62,82 L61,76 L66,75 L72,75 L73,74 L78,74 L75,76 L75,79 L86,78 L96,76 L97,77 L97,84 L0,84 Z " fill="#060404" transform="translate(0,0)"/>
<path d="M0,0 L2,0 L3,3 L5,4 L5,2 L8,2 L6,8 L16,8 L16,14 L18,14 L18,16 L21,14 L24,14 L25,11 L26,14 L25,17 L29,17 L31,17 L31,14 L34,15 L35,17 L39,15 L44,15 L45,20 L49,20 L49,23 L55,21 L59,21 L59,19 L69,18 L68,11 L66,11 L68,7 L72,7 L75,8 L75,13 L73,15 L72,17 L75,20 L75,22 L88,20 L95,18 L95,20 L93,20 L94,24 L90,25 L90,27 L95,24 L100,25 L105,24 L105,22 L114,21 L114,19 L118,20 L118,23 L121,23 L119,18 L125,17 L125,23 L123,23 L123,25 L121,25 L119,30 L122,29 L124,26 L126,25 L126,27 L130,28 L129,35 L123,36 L123,38 L125,39 L121,39 L121,42 L115,42 L115,36 L118,31 L115,31 L115,29 L117,29 L117,24 L115,24 L115,26 L113,26 L112,30 L108,31 L108,29 L110,29 L111,25 L108,26 L103,31 L101,31 L101,28 L95,30 L90,31 L90,33 L95,32 L95,34 L101,34 L101,37 L88,37 L95,38 L92,41 L89,41 L89,45 L92,45 L92,47 L87,47 L86,40 L69,43 L64,43 L65,38 L56,39 L51,39 L52,45 L46,43 L36,40 L36,38 L48,37 L49,34 L41,33 L22,30 L22,28 L17,28 L16,26 L12,25 L12,23 L14,22 L15,14 L10,14 L5,12 L4,14 L0,12 L1,8 L0,5 L-2,5 Z " fill="#616973" transform="translate(10,37)"/>
<path d="M0,0 L49,0 L45,2 L40,2 L40,6 L47,3 L53,2 L53,5 L49,5 L49,7 L44,8 L44,12 L37,13 L36,10 L33,11 L29,10 L28,13 L25,13 L25,15 L29,14 L30,12 L35,12 L35,14 L37,14 L36,18 L30,20 L30,22 L36,23 L31,27 L29,32 L25,34 L24,38 L28,39 L30,35 L32,32 L34,32 L34,35 L39,34 L39,37 L33,36 L33,39 L28,42 L28,48 L30,48 L30,43 L34,41 L34,47 L36,48 L34,51 L28,53 L28,51 L26,51 L26,45 L16,45 L18,39 L15,39 L15,41 L12,40 L12,37 L10,37 L8,50 L0,50 Z " fill="#060403" transform="translate(0,0)"/>
<path d="M0,0 L9,1 L9,2 L3,3 L5,5 L4,7 L16,6 L15,8 L7,9 L0,7 L0,9 L-4,10 L-2,12 L-1,12 L15,12 L21,11 L21,8 L28,8 L28,5 L26,5 L26,3 L32,4 L34,7 L39,8 L37,10 L37,13 L32,12 L32,14 L34,15 L34,17 L24,17 L24,19 L22,19 L21,22 L19,22 L20,29 L14,28 L15,24 L12,24 L12,16 L7,18 L7,21 L5,21 L4,25 L1,25 L1,27 L-3,27 L-5,27 L-4,21 L-1,20 L0,18 L-3,19 L-8,18 L-13,17 L-14,22 L-12,26 L-8,26 L-7,34 L-2,35 L0,37 L1,36 L7,36 L8,41 L16,40 L17,44 L15,48 L9,50 L5,49 L7,46 L5,45 L3,49 L1,49 L1,47 L-4,45 L-5,39 L-7,39 L-6,43 L-8,44 L-8,41 L-14,41 L-15,39 L-20,40 L-20,37 L-22,38 L-21,42 L-24,41 L-25,36 L-28,37 L-28,42 L-30,42 L-31,36 L-27,33 L-25,33 L-25,30 L-19,30 L-21,29 L-24,29 L-24,26 L-29,31 L-30,33 L-35,32 L-33,27 L-29,24 L-27,20 L-24,18 L-28,16 L-28,14 L-22,11 L-21,8 L-23,8 L-23,6 L-28,6 L-29,9 L-33,9 L-33,7 L-30,6 L-29,4 L-22,4 L-21,6 L-14,5 L-13,2 Z " fill="#2E1C1B" transform="translate(58,6)"/>
<path d="M0,0 L5,0 L5,41 L-43,41 L-43,39 L-46,39 L-46,35 L-41,33 L-48,32 L-47,30 L-39,30 L-34,31 L-34,28 L-40,28 L-40,26 L-45,27 L-45,25 L-39,22 L-33,21 L-34,25 L-30,23 L-28,18 L-22,17 L-25,23 L-27,23 L-27,25 L-23,24 L-22,20 L-20,20 L-20,18 L-18,18 L-18,23 L-20,23 L-20,25 L-17,25 L-19,32 L-20,36 L-14,36 L-14,33 L-12,32 L-12,30 L-6,29 L-5,22 L-11,21 L-13,24 L-16,24 L-14,19 L-12,19 L-12,17 L-10,17 L-9,11 L0,10 Z " fill="#030102" transform="translate(145,43)"/>
<path d="M0,0 L53,0 L53,40 L35,39 L35,38 L45,37 L45,34 L43,34 L43,27 L40,27 L40,25 L36,25 L36,23 L33,22 L32,18 L24,17 L18,13 L17,10 L9,6 L2,4 L0,3 Z " fill="#040404" transform="translate(97,0)"/>
<path d="M0,0 L5,0 L3,4 L2,9 L5,9 L4,13 L9,13 L9,15 L11,15 L11,18 L15,17 L16,20 L19,17 L19,22 L21,22 L22,19 L24,28 L22,28 L22,33 L17,34 L16,36 L16,34 L13,33 L15,29 L17,29 L17,27 L14,26 L17,26 L16,24 L14,24 L12,26 L12,23 L8,27 L10,27 L11,34 L1,35 L1,37 L-9,39 L-9,36 L-13,36 L-14,32 L-21,33 L-24,34 L-25,31 L-27,30 L-27,33 L-29,33 L-30,36 L-33,33 L-31,24 L-33,23 L-30,22 L-30,25 L-25,24 L-24,22 L-24,26 L-18,26 L-17,26 L-17,24 L-15,24 L-14,21 L-14,27 L-10,28 L-14,28 L-14,30 L-7,31 L-9,32 L-9,34 L-5,30 L-2,31 L-4,32 L-4,34 L5,32 L6,26 L-2,26 L-3,22 L-9,22 L-12,22 L-12,20 L-17,19 L-19,13 L-18,11 L-24,10 L-25,6 L-23,2 L-14,2 L-10,3 L-11,6 L-14,6 L-15,12 L-13,12 L-12,10 L-9,12 L-9,10 L-6,10 L-6,5 L-3,6 L-3,3 L-5,2 Z " fill="#1A0F0D" transform="translate(68,21)"/>
<path d="M0,0 L2,0 L3,3 L5,4 L5,2 L8,2 L6,8 L16,8 L16,14 L18,14 L18,16 L21,14 L24,14 L25,11 L26,14 L25,17 L29,17 L31,17 L31,14 L34,15 L35,17 L39,15 L44,15 L45,17 L40,17 L40,19 L44,19 L44,21 L39,22 L38,24 L52,25 L52,28 L57,29 L65,28 L65,26 L72,25 L75,26 L75,28 L69,28 L68,32 L57,32 L53,33 L53,37 L67,34 L68,33 L75,33 L74,35 L68,35 L68,37 L62,39 L51,39 L52,45 L46,43 L36,40 L36,38 L48,37 L49,34 L41,33 L22,30 L22,28 L17,28 L16,26 L12,25 L12,23 L14,22 L15,14 L10,14 L5,12 L4,14 L0,12 L1,8 L0,5 L-2,5 Z " fill="#211E1E" transform="translate(10,37)"/>
<path d="M0,0 L4,1 L7,4 L7,6 L11,6 L11,8 L14,8 L14,15 L16,15 L17,18 L12,18 L12,16 L9,15 L9,9 L4,7 L4,4 L2,4 L1,11 L3,11 L2,14 L0,13 L3,23 L4,26 L6,27 L4,27 L3,35 L0,34 L-1,30 L-3,29 L-2,27 L-4,27 L-4,29 L-6,29 L-8,24 L-10,22 L-10,18 L-12,18 L-12,20 L-14,20 L-13,24 L-9,25 L-7,32 L-8,35 L-5,34 L-3,35 L-4,37 L-6,36 L-7,39 L-9,39 L-9,36 L-16,35 L-15,23 L-18,23 L-18,26 L-16,27 L-17,34 L-19,34 L-19,21 L-21,19 L-23,19 L-23,16 L-27,17 L-28,20 L-26,25 L-24,27 L-25,30 L-22,29 L-22,33 L-23,35 L-28,35 L-28,33 L-30,33 L-30,31 L-28,31 L-28,27 L-31,29 L-32,32 L-34,32 L-36,23 L-39,24 L-40,21 L-43,23 L-44,17 L-37,16 L-36,12 L-36,14 L-33,13 L-30,14 L-30,16 L-28,16 L-30,12 L-21,13 L-20,8 L-16,9 L-16,11 L-12,12 L-10,17 L-6,19 L-6,21 L-4,21 L-3,25 L-1,25 L0,19 L-3,20 L-3,18 L-6,18 L-7,11 L-12,10 L-13,8 L-9,7 L-13,5 L-13,2 L-9,3 L-6,5 L-2,5 L-2,3 L0,3 Z " fill="#3E4852" transform="translate(126,19)"/>
<path d="M0,0 L1,2 L11,3 L15,4 L14,8 L2,8 L2,10 L12,12 L18,15 L17,9 L22,8 L28,8 L29,7 L34,7 L31,9 L31,12 L42,11 L52,9 L53,10 L53,17 L-7,17 L-8,14 L-10,14 L-10,11 L-7,10 L-10,8 L-5,8 L-4,5 L-2,3 L-1,1 Z " fill="#060608" transform="translate(44,67)"/>
<path d="M0,0 L8,0 L10,2 L8,2 L8,4 L14,5 L9,9 L7,14 L3,16 L2,20 L6,21 L8,17 L10,14 L12,14 L12,17 L17,16 L17,19 L11,18 L11,21 L6,24 L6,30 L8,30 L8,25 L12,23 L12,29 L14,30 L12,33 L6,35 L6,33 L4,33 L4,27 L-6,27 L-4,21 L-7,21 L-7,23 L-10,22 L-10,19 L-12,18 L-12,13 L-9,13 L-8,6 L-5,7 L-4,10 L-2,10 L-2,2 Z " fill="#090504" transform="translate(22,18)"/>
<path d="M0,0 L2,1 L-1,6 L-3,6 L-3,8 L1,7 L2,3 L4,3 L4,1 L6,1 L6,6 L4,6 L4,8 L7,8 L5,15 L4,19 L10,19 L10,16 L13,17 L11,17 L11,20 L4,20 L4,22 L-3,24 L-19,24 L-19,22 L-22,22 L-22,18 L-17,16 L-24,15 L-23,13 L-15,13 L-10,14 L-10,11 L-16,11 L-16,9 L-21,10 L-21,8 L-15,5 L-9,4 L-10,8 L-6,6 L-4,1 Z " fill="#1B1110" transform="translate(121,60)"/>
<path d="M0,0 L6,1 L8,4 L13,5 L11,7 L11,10 L6,9 L6,11 L8,12 L8,14 L-2,14 L-2,16 L-4,16 L-5,19 L-7,19 L-6,26 L-12,25 L-11,21 L-14,21 L-14,13 L-19,15 L-19,18 L-21,18 L-22,22 L-25,22 L-25,24 L-29,24 L-31,24 L-30,18 L-27,17 L-26,15 L-29,16 L-38,13 L-35,10 L-19,9 L-11,9 L-5,8 L-5,5 L2,5 L2,2 L0,2 Z " fill="#2E2629" transform="translate(84,9)"/>
<path d="M0,0 L4,0 L7,1 L7,6 L5,8 L4,10 L6,11 L5,13 L3,12 L3,14 L5,15 L9,16 L14,16 L12,17 L11,20 L8,20 L8,24 L5,26 L-4,29 L-15,30 L-15,26 L-11,24 L0,25 L1,21 L7,21 L7,19 L-3,19 L-3,21 L-1,22 L-13,23 L-16,21 L-16,18 L-19,19 L-30,17 L-29,14 L-24,14 L-24,12 L-28,12 L-28,10 L-23,10 L-23,13 L-19,13 L-19,16 L-13,14 L-9,14 L-9,12 L1,11 L0,4 L-2,4 Z " fill="#302D34" transform="translate(78,44)"/>
<path d="M0,0 L9,0 L16,3 L20,4 L20,2 L27,4 L27,6 L23,6 L23,8 L27,9 L25,10 L20,9 L20,11 L24,11 L24,13 L27,13 L28,15 L33,16 L33,17 L0,17 Z " fill="#090707" transform="translate(0,67)"/>
<path d="M0,0 L15,0 L16,3 L27,4 L27,5 L21,6 L26,7 L22,9 L21,11 L27,10 L29,15 L27,18 L24,19 L8,19 L2,20 L3,18 L0,16 L8,14 L9,12 L19,14 L24,13 L13,13 L13,11 L9,9 L15,7 L4,8 L-8,9 L-5,7 L0,7 L0,5 L4,5 L3,3 L-4,5 L-9,6 L-9,2 Z " fill="#382B2E" transform="translate(49,0)"/>
<path d="M0,0 L14,1 L14,4 L19,5 L27,4 L27,2 L34,1 L37,2 L37,4 L31,4 L30,8 L19,8 L15,9 L15,13 L29,10 L30,9 L37,9 L36,11 L30,11 L30,13 L24,15 L13,15 L14,21 L8,19 L-2,16 L-2,14 L10,13 L11,10 L3,9 L-2,7 L-2,5 L3,5 L3,3 L-2,3 L0,2 Z " fill="#989BA4" transform="translate(48,61)"/>
<path d="M0,0 L2,0 L2,6 L0,6 L0,8 L-2,8 L-4,13 L-1,12 L1,9 L3,8 L3,10 L7,11 L6,18 L0,19 L0,21 L2,22 L-2,22 L-2,25 L-8,25 L-8,19 L-5,14 L-8,14 L-8,12 L-6,12 L-6,7 L-8,7 L-8,9 L-10,9 L-11,13 L-15,14 L-15,12 L-13,12 L-12,8 L-15,9 L-20,14 L-22,14 L-22,11 L-28,13 L-33,14 L-31,13 L-31,11 L-33,10 L-28,7 L-23,8 L-18,7 L-18,5 L-9,4 L-9,2 L-5,3 L-5,6 L-2,6 L-4,1 Z " fill="#484D54" transform="translate(133,54)"/>
<path d="M0,0 L9,1 L9,2 L3,3 L5,5 L4,7 L16,6 L15,8 L7,9 L0,7 L0,9 L-4,10 L-2,12 L-10,15 L-13,15 L-14,13 L-17,18 L-20,17 L-22,16 L-22,14 L-24,14 L-24,16 L-28,16 L-28,14 L-22,11 L-21,8 L-23,8 L-23,6 L-28,6 L-29,9 L-33,9 L-33,7 L-30,6 L-29,4 L-22,4 L-21,6 L-14,5 L-13,2 Z " fill="#443C3E" transform="translate(58,6)"/>
<path d="M0,0 L2,0 L2,3 L7,5 L8,11 L10,12 L10,14 L14,15 L15,16 L22,17 L22,20 L17,20 L18,28 L15,31 L8,31 L7,33 L7,31 L5,30 L5,21 L6,19 L2,17 L2,13 L-1,14 L-2,9 L0,9 L1,7 L-1,7 L-2,3 Z " fill="#2E313D" transform="translate(128,23)"/>
<path d="M0,0 L22,0 L21,6 L33,8 L33,12 L36,12 L35,18 L37,19 L32,19 L33,14 L26,14 L26,11 L20,9 L20,11 L22,11 L22,14 L15,14 L15,17 L11,16 L13,14 L11,11 L6,11 L7,8 L5,6 L6,5 L0,3 Z " fill="#060708" transform="translate(64,0)"/>
<path d="M0,0 L4,1 L4,4 L7,3 L9,7 L8,19 L10,19 L10,12 L9,8 L12,8 L13,14 L11,20 L6,22 L-4,25 L-14,25 L-14,21 L-9,20 L-9,15 L-7,15 L-7,17 L-5,17 L-4,13 L-1,12 L-1,16 L-3,16 L-3,18 L-1,18 L-1,20 L4,19 L4,16 L2,15 L2,12 L-1,10 L1,10 L-2,5 Z " fill="#131C21" transform="translate(99,34)"/>
<path d="M0,0 L5,0 L5,25 L-1,23 L-1,25 L-5,26 L-5,22 L-11,21 L-13,24 L-16,24 L-14,19 L-12,19 L-12,17 L-10,17 L-9,11 L0,10 Z " fill="#020102" transform="translate(145,43)"/>
<path d="M0,0 L1,0 L1,6 L5,7 L1,7 L1,9 L8,10 L6,11 L6,13 L10,9 L13,10 L11,11 L11,13 L20,11 L22,8 L24,9 L25,7 L26,13 L16,14 L16,16 L6,18 L6,15 L2,15 L1,11 L-6,12 L-9,13 L-10,10 L-12,9 L-12,12 L-14,12 L-15,15 L-18,12 L-16,3 L-18,2 L-15,1 L-15,4 L-10,3 L-9,1 L-9,5 L-3,5 L-2,5 L-2,3 L0,3 Z " fill="#1B1B1C" transform="translate(53,42)"/>
<path d="M0,0 L2,1 L2,5 L7,6 L9,8 L10,7 L16,7 L17,12 L25,11 L26,15 L24,19 L18,21 L14,20 L16,17 L14,16 L12,20 L10,20 L10,18 L5,16 L4,10 L2,10 L3,14 L1,15 L1,12 L-3,11 L-1,5 L1,5 Z " fill="#3F2B25" transform="translate(49,35)"/>
<path d="M0,0 L10,0 L10,2 L12,2 L12,4 L15,5 L18,8 L21,9 L22,16 L28,17 L28,23 L29,25 L24,23 L24,19 L22,19 L16,12 L16,10 L12,9 L12,7 L9,7 L8,12 L1,12 L0,12 L0,14 L-2,14 L-2,12 L-4,12 L-3,5 L-3,3 L-4,1 Z " fill="#201F26" transform="translate(98,21)"/>
<path d="M0,0 L2,1 L-1,6 L-3,6 L-3,8 L0,9 L-4,10 L-5,19 L-7,19 L-7,16 L-10,16 L-11,19 L-15,19 L-15,23 L-12,24 L-19,24 L-19,22 L-22,22 L-22,18 L-17,16 L-24,15 L-23,13 L-15,13 L-10,14 L-10,11 L-16,11 L-16,9 L-21,10 L-21,8 L-15,5 L-9,4 L-10,8 L-6,6 L-4,1 Z " fill="#080303" transform="translate(121,60)"/>
<path d="M0,0 L6,0 L6,2 L12,2 L12,5 L-1,5 L6,6 L3,9 L0,9 L0,13 L3,13 L3,15 L-2,15 L-3,8 L-20,11 L-25,11 L-24,6 L-21,6 L-21,3 L-13,3 L-13,5 L-8,3 Z " fill="#38393D" transform="translate(99,69)"/>
<path d="M0,0 L6,0 L4,12 L-1,11 L1,10 L2,5 L-1,4 L-1,6 L-6,7 L-7,23 L-9,27 L-11,29 L-11,27 L-13,27 L-14,30 L-16,30 L-16,14 L-10,14 L-9,5 L-6,5 L-6,3 L-1,2 Z " fill="#130A08" transform="translate(16,4)"/>
<path d="M0,0 L5,2 L7,5 L7,8 L5,9 L3,15 L1,15 L0,13 L-5,14 L-5,11 L-7,12 L-6,16 L-9,15 L-10,10 L-13,11 L-13,16 L-15,16 L-16,10 L-12,7 L-10,7 L-10,4 L-3,4 L0,3 Z " fill="#5B4C48" transform="translate(43,32)"/>
<path d="M0,0 L1,2 L4,1 L5,7 L9,8 L11,13 L13,15 L12,18 L15,17 L15,21 L14,23 L9,23 L9,21 L7,21 L7,19 L9,19 L9,15 L6,17 L5,20 L3,20 L1,11 L-2,12 L-3,9 L-6,11 L-7,5 L0,4 Z " fill="#483E3E" transform="translate(89,31)"/>
<path d="M0,0 L6,1 L8,4 L13,5 L11,7 L11,10 L6,9 L6,11 L8,12 L8,14 L-2,14 L-2,16 L-7,16 L-9,20 L-9,17 L-11,17 L-12,19 L-12,15 L-5,12 L-8,10 L-8,8 L-5,8 L-5,5 L2,5 L2,2 L0,2 Z " fill="#242325" transform="translate(84,9)"/>
<path d="M0,0 L1,3 L0,6 L4,6 L6,6 L6,3 L9,4 L10,6 L14,4 L19,4 L20,6 L15,6 L15,8 L19,8 L19,10 L14,11 L13,13 L7,13 L7,10 L5,10 L4,13 L-6,12 L-7,8 L-9,8 L-9,6 L-1,7 L-2,3 Z " fill="#574541" transform="translate(35,48)"/>
<path d="M0,0 L8,1 L15,4 L15,6 L13,7 L14,9 L10,9 L10,12 L12,12 L13,15 L4,14 L3,11 L0,11 L0,9 L-4,9 L-4,7 L2,7 L-1,6 L-1,4 L3,4 L3,2 L0,2 Z " fill="#231A1C" transform="translate(24,69)"/>
<path d="M0,0 L16,0 L16,13 L4,7 L-1,6 L-1,1 Z " fill="#040404" transform="translate(134,0)"/>
<path d="M0,0 L11,0 L11,3 L16,5 L17,11 L20,12 L20,14 L15,13 L11,12 L11,8 L-1,7 L-2,3 Z " fill="#545D65" transform="translate(86,0)"/>
<path d="M0,0 L6,0 L5,5 L7,5 L7,7 L11,8 L13,15 L12,18 L15,17 L17,18 L16,20 L14,19 L13,22 L11,22 L11,19 L4,18 L5,6 L2,6 L2,9 L4,10 L3,17 L1,17 L1,4 Z " fill="#747C86" transform="translate(106,36)"/>
<path d="M0,0 L22,0 L21,6 L26,7 L26,8 L19,8 L19,6 L13,5 L12,10 L11,11 L6,11 L7,8 L5,6 L6,5 L0,3 Z " fill="#141010" transform="translate(64,0)"/>
<path d="M0,0 L8,2 L9,0 L9,2 L14,3 L14,5 L19,5 L19,7 L29,8 L30,11 L25,13 L12,9 L11,6 L5,5 L4,7 L-2,2 Z " fill="#080809" transform="translate(13,60)"/>
<path d="M0,0 L9,0 L7,1 L6,4 L3,4 L3,8 L0,10 L-9,13 L-20,14 L-20,10 L-16,8 L-5,9 L-4,5 L2,5 L2,3 L-1,2 Z " fill="#26272D" transform="translate(83,60)"/>
<path d="M0,0 L2,0 L3,3 L5,4 L5,2 L8,2 L6,8 L16,8 L15,14 L10,14 L5,12 L4,14 L0,12 L1,8 L0,5 L-2,5 Z " fill="#606B79" transform="translate(10,37)"/>
<path d="M0,0 L2,0 L2,2 L10,1 L11,5 L9,9 L3,11 L-1,10 L1,7 L-1,6 L-3,10 L-5,10 L-5,8 L-10,6 L-10,5 L-5,5 L-2,4 L-2,2 L0,2 Z " fill="#4F3E38" transform="translate(64,45)"/>
<path d="M0,0 L3,1 L3,4 L1,4 L1,7 L-1,7 L-2,11 L-6,12 L-6,10 L-4,10 L-3,6 L-6,7 L-11,12 L-13,12 L-13,9 L-19,11 L-24,12 L-22,11 L-22,9 L-24,8 L-19,5 L-14,6 L-9,5 L-9,3 L0,2 Z " fill="#384950" transform="translate(124,56)"/>
<path d="M0,0 L14,1 L14,4 L17,5 L15,8 L11,10 L3,9 L-2,7 L-2,5 L3,5 L3,3 L-2,3 L0,2 Z " fill="#86858B" transform="translate(48,61)"/>
<path d="M0,0 L2,4 L0,7 L-3,8 L-19,8 L-25,9 L-24,7 L-27,5 L-19,3 L-18,1 L-8,3 L-1,3 Z " fill="#1D1416" transform="translate(76,11)"/>
<path d="M0,0 L2,0 L2,4 L0,4 L0,6 L2,6 L2,8 L7,8 L7,10 L-1,13 L-11,13 L-11,9 L-6,8 L-6,3 L-4,3 L-4,5 L-2,5 L-1,1 Z " fill="#2E313A" transform="translate(96,46)"/>
<path d="M0,0 L2,4 L5,4 L4,8 L2,8 L2,10 L-4,11 L-6,16 L-6,20 L-9,19 L-9,16 L-11,15 L-11,10 L-8,10 L-7,3 L-4,4 L-3,7 L-1,7 Z " fill="#2B1F1A" transform="translate(21,21)"/>
<path d="M0,0 L11,0 L11,6 L4,8 L-8,9 L-5,7 L0,7 L0,5 L4,5 L3,3 L-4,5 L-9,6 L-9,2 Z " fill="#24201F" transform="translate(49,0)"/>
<path d="M0,0 L1,2 L5,4 L4,6 L1,4 L1,6 L-4,6 L-4,9 L-2,10 L-2,12 L4,13 L4,8 L6,8 L6,6 L11,6 L10,12 L6,11 L5,14 L-2,14 L-3,17 L-5,17 L-5,14 L-7,13 L-7,6 L-4,3 L-2,3 L-2,1 Z " fill="#2B1D1C" transform="translate(84,22)"/>
<path d="M0,0 L9,1 L9,2 L3,3 L5,5 L4,7 L16,6 L15,8 L7,9 L0,7 L0,9 L-12,11 L-11,8 L-3,8 L-3,6 L-1,6 L-1,4 L-13,4 L-13,2 Z " fill="#564D50" transform="translate(58,6)"/>
<path d="M0,0 L2,1 L2,8 L-11,8 L-11,6 L-16,6 L-16,3 Z " fill="#0E0909" transform="translate(95,76)"/>
<path d="M0,0 L8,2 L16,3 L16,4 L10,4 L10,6 L5,6 L5,8 L3,8 L3,13 L-3,13 L-5,9 L-5,6 L0,6 L0,4 L3,4 L0,2 Z " fill="#050609" transform="translate(85,22)"/>
<path d="M0,0 L4,1 L7,4 L7,6 L11,6 L11,8 L14,8 L14,15 L16,15 L17,18 L12,18 L12,16 L9,15 L9,9 L4,7 L4,4 L2,4 L2,6 L-2,5 L-2,3 L0,3 Z " fill="#4A545D" transform="translate(126,19)"/>
<path d="M0,0 L7,0 L10,1 L8,7 L1,9 L0,7 L-4,10 L-7,10 L-7,8 L-4,7 L-4,3 Z " fill="#070A0F" transform="translate(107,54)"/>
<path d="M0,0 L2,0 L2,3 L10,3 L7,6 L4,6 L4,10 L7,10 L7,12 L2,12 L1,5 L-16,8 L-21,8 L-20,6 L-5,3 Z " fill="#7A7678" transform="translate(95,72)"/>
<path d="M0,0 L12,0 L13,1 L13,11 L9,9 L8,13 L5,13 L5,2 L0,1 Z " fill="#6A6F7A" transform="translate(130,40)"/>
<path d="M0,0 L14,0 L15,3 L13,3 L12,6 L8,6 L8,10 L11,11 L4,11 L4,9 L1,9 L1,5 L6,3 L-1,2 Z " fill="#170D0B" transform="translate(98,73)"/>
<path d="M0,0 L4,1 L6,2 L7,9 L-3,10 L-6,7 L-4,4 L-1,4 Z " fill="#060101" transform="translate(72,35)"/>
<path d="M0,0 L2,0 L2,8 L-2,9 L-2,11 L-8,10 L-9,7 L-8,4 L-5,4 L-5,1 Z " fill="#080302" transform="translate(23,51)"/>
<path d="M0,0 L2,0 L4,5 L6,6 L6,17 L5,19 L1,19 L3,24 L0,24 L-1,18 L1,18 L2,9 L0,6 Z " fill="#030306" transform="translate(128,36)"/>
<path d="M0,0 L2,0 L1,6 L-5,7 L-5,9 L-3,10 L-7,10 L-7,13 L-13,13 L-13,7 L-10,4 L-9,7 L-8,4 L0,2 Z " fill="#5D646C" transform="translate(138,66)"/>
<path d="M0,0 L5,0 L3,4 L3,7 L-2,7 L-2,13 L2,13 L2,16 L-3,16 L-4,13 L-7,13 L-7,11 L-9,10 L-6,10 L-6,5 L-3,6 L-3,3 L-5,2 Z M-4,12 Z " fill="#231916" transform="translate(68,21)"/>
<path d="M0,0 L3,1 L4,3 L8,1 L13,1 L14,3 L9,3 L9,5 L13,5 L13,7 L8,8 L7,10 L4,10 L1,6 L-2,6 L-2,3 L0,3 Z " fill="#826C64" transform="translate(41,51)"/>
<path d="M0,0 L2,0 L4,5 L6,7 L5,10 L8,9 L8,13 L7,15 L2,15 L2,13 L0,13 L0,11 L2,11 L2,7 L-1,9 L-2,12 L-4,12 L-3,6 L-1,6 L-1,4 L1,4 Z " fill="#6A7883" transform="translate(96,39)"/>
<path d="M0,0 L2,2 L3,9 L1,9 L1,14 L-4,15 L-5,17 L-5,15 L-8,14 L-6,10 L-4,10 L-4,8 L-7,7 L-4,7 L-5,4 L-3,4 L-3,7 L1,6 Z " fill="#191C1F" transform="translate(89,40)"/>
<path d="M0,0 L3,1 L2,7 L6,8 L2,10 L-3,11 L-3,8 L-7,9 L-12,12 L-13,10 L-12,6 L-10,6 L-10,8 L-8,8 L-10,4 L-1,5 Z " fill="#575F68" transform="translate(106,27)"/>
<path d="M0,0 L6,0 L4,12 L-1,11 L1,10 L2,5 L-1,4 L-1,6 L-6,7 L-6,9 L-9,9 L-9,5 L-6,5 L-6,3 L-1,2 Z " fill="#31211D" transform="translate(16,4)"/>
<path d="M0,0 L1,3 L6,4 L2,5 L3,11 L-3,9 L-13,6 L-13,4 L-1,3 Z " fill="#676D74" transform="translate(59,71)"/>
<path d="M0,0 L6,0 L6,3 L4,4 L2,10 L0,10 L-1,8 L-6,9 L-6,6 L-8,7 L-7,11 L-10,10 L-10,5 L-8,4 L-5,5 L-5,7 L-2,4 Z " fill="#7B6862" transform="translate(44,37)"/>
<path d="M0,0 L5,0 L5,2 L7,2 L7,4 L9,4 L8,7 L6,6 L9,16 L9,19 L5,18 L5,11 L3,10 L2,3 L0,2 Z " fill="#6F7880" transform="translate(120,26)"/>
<path d="M0,0 L9,1 L9,3 L7,3 L7,5 L-1,6 L-4,7 L-8,5 L-9,3 Z " fill="#26211F" transform="translate(48,9)"/>
<path d="M0,0 L1,4 L4,4 L5,7 L-1,9 L-10,9 L-13,8 L-13,4 L-9,3 L-8,1 L-6,1 L-6,4 L-8,4 L-8,7 L-1,6 L0,4 L-2,4 Z " fill="#2E211E" transform="translate(119,75)"/>
<path d="M0,0 L2,0 L2,3 L7,2 L8,0 L8,4 L5,7 L9,5 L8,8 L5,8 L5,11 L3,11 L2,14 L-1,11 L1,2 L-1,1 Z " fill="#46312A" transform="translate(36,43)"/>
<path d="M0,0 L4,0 L4,2 L6,2 L6,5 L10,4 L11,7 L14,4 L14,9 L17,10 L17,12 L13,13 L13,10 L9,11 L7,13 L5,3 L0,1 Z " fill="#231412" transform="translate(73,34)"/>
<path d="M0,0 L6,1 L4,5 L-1,10 L-2,12 L-7,11 L-5,6 L-1,3 Z " fill="#746360" transform="translate(30,27)"/>
<path d="M0,0 L2,0 L2,3 L7,5 L8,14 L4,13 L4,11 L2,11 L2,7 L-1,7 L-2,3 Z " fill="#142026" transform="translate(128,23)"/>
<path d="M0,0 L8,0 L6,1 L6,3 L2,3 L6,4 L5,7 L-5,7 L-5,5 L-7,5 L-7,3 L0,2 Z " fill="#616369" transform="translate(69,56)"/>
<path d="M0,0 L6,0 L7,7 L13,8 L13,14 L14,16 L9,14 L9,10 L7,10 L1,3 Z " fill="#05070C" transform="translate(113,30)"/>
<path d="M0,0 L5,1 L4,8 L-3,8 L-4,8 L-4,10 L-6,10 L-6,8 L-8,8 L-7,1 L-2,3 L2,5 Z " fill="#585A61" transform="translate(102,25)"/>
<path d="M0,0 L6,0 L5,5 L7,5 L7,7 L11,8 L7,9 L6,11 L5,6 L2,6 L2,9 L4,10 L3,17 L1,17 L1,4 Z " fill="#727E86" transform="translate(106,36)"/>
<path d="M0,0 L3,4 L3,8 L5,9 L6,6 L14,9 L14,10 L9,10 L9,13 L6,13 L5,15 L5,12 L2,12 L0,8 Z " fill="#25201C" transform="translate(9,42)"/>
<path d="M0,0 L6,0 L7,3 L5,3 L5,5 L3,5 L3,7 L1,7 L0,9 L-5,8 L-3,1 Z " fill="#3A251E" transform="translate(59,42)"/>
<path d="M0,0 L6,1 L13,5 L15,10 L11,11 L7,8 L7,5 L1,3 Z " fill="#1F1D20" transform="translate(102,5)"/>
<path d="M0,0 L8,1 L8,3 L2,3 L1,7 L-11,7 L-10,4 L-2,3 L-2,1 Z " fill="#777B7F" transform="translate(77,62)"/>
<path d="M0,0 L4,0 L7,1 L7,6 L5,8 L3,11 L1,11 L0,4 L-2,4 Z " fill="#43464E" transform="translate(78,44)"/>
<path d="M0,0 L5,2 L6,8 L9,9 L9,11 L4,10 L0,9 L0,5 L-4,4 L0,4 Z " fill="#353F45" transform="translate(97,3)"/>
<path d="M0,0 L4,2 L2,5 L-2,7 L-10,6 L-15,4 L-15,2 L-1,2 Z " fill="#585E65" transform="translate(61,64)"/>
<path d="M0,0 L2,1 L1,3 L5,4 L5,6 L-4,8 L-8,11 L-11,10 L-11,8 L-5,6 L-5,4 L-1,4 Z " fill="#1E2732" transform="translate(97,61)"/>
<path d="M0,0 L10,1 L10,3 L12,3 L12,5 L20,6 L19,8 L10,7 L10,5 L5,5 L4,3 L0,2 Z " fill="#727275" transform="translate(22,60)"/>
<path d="M0,0 L5,0 L5,3 L9,3 L9,6 L12,7 L4,8 L-2,7 L-1,4 L4,4 L4,2 L0,2 Z " fill="#4D3B36" transform="translate(50,54)"/>
<path d="M0,0 L12,0 L12,3 L3,3 L3,5 L6,6 L6,7 L0,7 Z " fill="#1C1D22" transform="translate(0,77)"/>
<path d="M0,0 L8,0 L11,3 L7,3 L7,5 L11,6 L0,6 Z " fill="#020201" transform="translate(0,70)"/>
<path d="M0,0 L6,0 L6,2 L19,1 L17,2 L17,4 L19,5 L7,6 L4,4 L4,1 L1,2 Z " fill="#1F1D21" transform="translate(58,61)"/>
<path d="M0,0 L2,0 L3,4 L7,5 L10,4 L12,6 L10,6 L9,14 L6,13 L5,9 L3,8 L4,6 L2,6 L2,8 L0,8 Z " fill="#2E353C" transform="translate(120,40)"/>
<path d="M0,0 L5,0 L5,2 L12,3 L16,5 L17,8 L8,7 L7,4 L4,4 L4,2 L0,2 Z " fill="#72686A" transform="translate(20,76)"/>
<path d="M0,0 L3,1 L3,4 L1,4 L1,7 L-1,7 L-2,11 L-6,12 L-6,10 L-4,10 L-3,6 L-5,6 L-9,6 L-9,3 L0,2 Z " fill="#928F90" transform="translate(124,56)"/>
<path d="M0,0 L4,1 L3,7 L-4,10 L-8,9 L-7,7 L-5,7 L-5,5 L1,4 Z " fill="#5B5351" transform="translate(71,46)"/>
<path d="M0,0 L5,0 L5,10 L-2,11 L0,10 Z " fill="#0C201E" transform="translate(145,43)"/>
<path d="M0,0 L2,0 L2,2 L-2,2 L-3,5 L-14,6 L-21,5 L-22,1 L-18,2 L-18,4 L-5,2 Z " fill="#6C6C75" transform="translate(103,55)"/>
<path d="M0,0 L8,0 L10,2 L5,2 L5,9 L4,7 L0,8 L-2,6 L-1,1 Z " fill="#201915" transform="translate(22,18)"/>
<path d="M0,0 L9,1 L9,3 L1,4 L1,6 L-4,6 L-4,2 Z " fill="#010407" transform="translate(67,68)"/>
<path d="M0,0 L1,2 L0,4 L2,5 L0,5 L0,7 L-6,7 L-6,5 L-11,6 L-11,4 L-5,1 Z " fill="#0D1418" transform="translate(111,64)"/>
<path d="M0,0 L3,0 L6,3 L9,3 L8,6 L6,6 L6,8 L1,8 L-1,12 L-1,9 L-3,9 L-4,11 L-4,7 L3,4 L0,2 Z " fill="#656367" transform="translate(76,17)"/>
<path d="M0,0 L3,1 L3,4 L7,1 L8,5 L7,7 L13,7 L13,4 L16,5 L14,5 L14,8 L7,8 L6,10 L5,7 L2,7 L0,4 Z " fill="#201B1D" transform="translate(118,72)"/>
<path d="M0,0 L3,1 L4,3 L9,3 L9,7 L3,5 L3,7 L-1,8 L-1,4 L-5,2 L0,2 Z " fill="#121620" transform="translate(141,61)"/>
<path d="M0,0 L1,3 L-3,3 L-3,5 L-8,6 L-8,10 L-12,9 L-12,4 L-5,1 Z " fill="#17181F" transform="translate(52,2)"/>
<path d="M0,0 L4,1 L8,3 L8,6 L13,7 L15,8 L14,11 L3,5 L0,3 Z " fill="#838283" transform="translate(135,2)"/>
<path d="M0,0 L9,1 L6,4 L3,4 L3,8 L6,8 L6,10 L1,10 L0,3 L-4,2 Z " fill="#584E4C" transform="translate(96,74)"/>
<path d="M0,0 L8,2 L9,0 L13,6 L5,5 L4,7 L-2,2 Z " fill="#292220" transform="translate(13,60)"/>
<path d="M0,0 L7,0 L8,2 L15,5 L15,6 L7,8 L8,4 L6,4 L6,2 L1,2 L0,5 L-4,5 L-4,3 L-1,2 Z " fill="#4C4B4F" transform="translate(29,10)"/>
<path d="M0,0 L5,0 L2,2 L2,5 L6,6 L6,8 L11,8 L11,10 L0,10 L-1,1 Z " fill="#131315" transform="translate(73,74)"/>
<path d="M0,0 L9,0 L15,3 L14,7 L12,5 L0,3 Z " fill="#1C1A0C" transform="translate(0,67)"/>
<path d="M0,0 L2,0 L2,2 L5,2 L5,9 L7,9 L8,12 L3,12 L1,8 Z " fill="#63676F" transform="translate(135,25)"/>
<path d="M0,0 L5,0 L5,2 L7,2 L6,6 L0,7 L1,4 L-5,4 L-1,2 Z " fill="#020203" transform="translate(30,12)"/>
<path d="M0,0 L22,0 L22,2 L11,2 L5,1 L5,3 L2,4 L0,3 Z " fill="#100C10" transform="translate(97,0)"/>
<path d="M0,0 L14,0 L14,4 L0,3 Z " fill="#030000" transform="translate(66,0)"/>
<path d="M0,0 L2,1 L2,11 L-2,9 L-3,13 L-6,13 L-6,7 L0,7 L-1,3 Z " fill="#59646E" transform="translate(141,40)"/>
<path d="M0,0 L5,0 L5,2 L-1,7 L-3,7 L-3,12 L-5,12 L-6,6 L-2,3 L0,3 Z " fill="#746866" transform="translate(33,36)"/>
<path d="M0,0 L7,0 L13,5 L10,6 L3,2 L4,5 L8,7 L7,9 L2,7 L0,5 L2,5 L2,2 L0,2 Z " fill="#14161F" transform="translate(110,19)"/>
<path d="M0,0 L2,0 L2,4 L0,4 L0,6 L2,6 L2,8 L7,8 L7,10 L1,12 L1,7 L-2,8 L-5,6 L-4,4 L-2,5 L-1,1 Z " fill="#464E5A" transform="translate(96,46)"/>
<path d="M0,0 L1,4 L3,4 L4,6 L6,6 L7,4 L9,5 L9,7 L13,8 L1,8 L1,6 L-2,7 L-3,2 L-1,2 Z " fill="#343B43" transform="translate(129,30)"/>
<path d="M0,0 L2,0 L4,5 L6,7 L6,11 L8,11 L8,9 L10,9 L8,13 L5,12 L2,7 L-1,6 L-2,2 L0,2 Z " fill="#0B0F14" transform="translate(114,37)"/>
<path d="M0,0 L2,1 L2,3 L4,4 L0,6 L-1,11 L-4,11 L-4,6 L-7,4 L-2,3 L-2,1 Z " fill="#2E1F1B" transform="translate(25,28)"/>
<path d="M0,0 L9,0 L9,4 L3,4 L3,2 L-6,4 L-3,1 Z " fill="#4B4347" transform="translate(57,18)"/>
<path d="M0,0 L6,0 L4,2 L4,5 L-2,4 L-6,5 L-8,1 Z " fill="#505152" transform="translate(91,14)"/>
<path d="M0,0 L2,0 L2,3 L7,2 L7,5 L1,4 L1,7 L-3,9 L-5,7 Z " fill="#1F1311" transform="translate(32,32)"/>
<path d="M0,0 L10,0 L10,2 L12,2 L12,4 L15,5 L12,6 L7,4 L6,2 L-3,3 L-4,1 Z " fill="#5A5C66" transform="translate(98,21)"/>
<path d="M0,0 L2,1 L2,8 L-6,8 L-6,6 L-2,3 L-3,1 Z " fill="#050100" transform="translate(95,76)"/>
<path d="M0,0 L1,2 L3,2 L3,4 L8,2 L10,7 L1,5 L1,7 L3,7 L3,9 L1,9 L1,11 L-1,10 Z " fill="#504542" transform="translate(25,49)"/>
<path d="M0,0 L3,0 L4,6 L2,12 L-3,14 L-5,13 L-4,10 L-1,9 L-1,11 L1,11 L1,4 Z " fill="#363941" transform="translate(108,42)"/>
<path d="M0,0 L4,1 L4,4 L6,4 L6,10 L3,10 L-1,2 Z " fill="#313C42" transform="translate(99,34)"/>
<path d="M0,0 L6,2 L7,0 L7,7 L1,7 L-1,6 Z " fill="#12141B" transform="translate(100,12)"/>
<path d="M0,0 L4,2 L2,2 L2,4 L-1,6 L-6,7 L-6,10 L-9,9 L-8,4 L-3,3 Z " fill="#707D88" transform="translate(136,64)"/>
<path d="M0,0 L4,1 L7,3 L14,4 L12,7 L12,5 L7,5 L7,8 L4,7 L4,5 L0,3 Z " fill="#373F49" transform="translate(113,21)"/>
<path d="M0,0 L1,4 L3,5 L0,5 L0,8 L-3,9 L-8,2 L-5,2 L0,3 Z " fill="#1C1B1F" transform="translate(126,14)"/>
<path d="M0,0 L3,0 L3,3 L-4,5 L-9,6 L-9,2 Z " fill="#494950" transform="translate(49,0)"/>
<path d="M0,0 L2,0 L2,2 L8,2 L8,5 L-5,4 L-5,2 Z " fill="#575B5F" transform="translate(103,69)"/>
<path d="M0,0 L2,0 L2,6 L0,6 L0,8 L-4,9 L-4,6 L-2,6 L-4,1 Z " fill="#6A6867" transform="translate(133,54)"/>
<path d="M0,0 L2,0 L4,5 L3,10 L2,7 L-1,9 L-2,12 L-4,12 L-3,6 L-1,6 L-1,4 L1,4 Z " fill="#5E6770" transform="translate(96,39)"/>
<path d="M0,0 L3,0 L4,5 L2,5 L2,7 L-2,7 L-4,7 L-3,1 Z " fill="#483935" transform="translate(57,26)"/>
<path d="M0,0 L7,1 L8,6 L2,6 L0,2 Z " fill="#060101" transform="translate(80,29)"/>
<path d="M0,0 L6,1 L6,4 L9,5 L2,8 L1,4 L1,3 L-1,3 Z " fill="#341F19" transform="translate(42,47)"/>
<path d="M0,0 L2,1 L2,3 L5,3 L3,8 L1,8 L1,6 L-4,6 L-2,2 L0,2 Z " fill="#4D403C" transform="translate(38,36)"/>
<path d="M0,0 L1,2 L4,1 L5,7 L8,8 L8,12 L6,12 L2,8 L2,5 L0,4 Z " fill="#3B3B3F" transform="translate(89,31)"/>
<path d="M0,0 L8,0 L8,3 L3,4 L4,8 L2,8 L2,6 L0,6 Z " fill="#110302" transform="translate(45,23)"/>
<path d="M0,0 L10,1 L11,3 L7,3 L7,5 L-2,3 L0,2 Z " fill="#453637" transform="translate(27,75)"/>
<path d="M0,0 L3,0 L3,2 L13,2 L15,0 L14,5 L8,6 L6,5 L6,3 L0,2 Z " fill="#1C1516" transform="translate(26,58)"/>
<path d="M0,0 L2,0 L3,4 L-1,5 L-1,7 L-3,7 L-4,6 L-5,8 L-9,7 L-6,4 L-6,3 L-1,2 Z " fill="#636B78" transform="translate(101,57)"/>
<path d="M0,0 L1,0 L1,6 L5,7 L1,8 L0,10 L-5,9 L-5,6 L-7,5 L-3,5 L-2,5 L-2,3 L0,3 Z " fill="#1B0A08" transform="translate(53,42)"/>
<path d="M0,0 L8,1 L15,4 L15,6 L3,3 L0,2 Z " fill="#7A777A" transform="translate(24,69)"/>
<path d="M0,0 L7,1 L8,4 L3,6 L-3,4 L0,1 Z " fill="#251F25" transform="translate(35,67)"/>
<path d="M0,0 L1,3 L3,3 L2,10 L-7,7 L-3,5 L-1,5 Z " fill="#483A3B" transform="translate(41,58)"/>
<path d="M0,0 L6,1 L4,5 L-2,7 L-3,7 L-3,2 L0,2 Z " fill="#0C0302" transform="translate(55,31)"/>
<path d="M0,0 L2,4 L0,7 L-9,8 L-9,6 L-4,6 L-4,3 L-1,3 Z " fill="#201312" transform="translate(76,11)"/>
<path d="M0,0 L2,0 L1,6 L-5,7 L-8,6 L-8,4 L0,2 Z " fill="#424D5A" transform="translate(138,66)"/>
<path d="M0,0 L8,2 L6,3 L7,9 L9,10 L6,10 L6,7 L2,7 Z " fill="#281913" transform="translate(53,50)"/>
<path d="M0,0 L1,0 L1,11 L3,10 L5,6 L6,6 L6,12 L2,12 L1,14 L1,12 L-1,11 L-1,2 Z " fill="#232421" transform="translate(134,42)"/>
<path d="M0,0 L2,0 L1,6 L-4,6 L-8,3 L0,2 Z " fill="#756864" transform="translate(24,45)"/>
<path d="M0,0 L10,2 L14,2 L14,5 L6,5 L1,4 L-2,3 Z " fill="#3D363B" transform="translate(58,12)"/>
<path d="M0,0 L4,0 L3,2 L1,3 L-3,5 L-11,6 L-10,3 L-2,3 L-2,1 Z " fill="#716A6B" transform="translate(57,11)"/>
<path d="M0,0 L1,4 L4,4 L5,7 L-1,9 L-6,9 L-2,7 L0,4 L-2,4 Z " fill="#5D5C62" transform="translate(119,75)"/>
<path d="M0,0 L6,0 L6,3 L1,3 L2,11 L0,13 Z " fill="#232A36" transform="translate(144,40)"/>
<path d="M0,0 L2,1 L2,9 L1,7 L-1,7 L-2,10 L-4,10 L-4,5 L0,5 Z " fill="#181112" transform="translate(4,24)"/>
<path d="M0,0 L5,0 L4,6 L9,7 L9,8 L2,8 L2,6 L0,6 Z " fill="#2E3235" transform="translate(81,0)"/>
<path d="M0,0 L5,0 L5,6 L-1,6 Z " fill="#0B0406" transform="translate(55,0)"/>
<path d="M0,0 L6,0 L5,3 L-4,6 L-10,6 L-10,5 L-2,4 L-2,2 L0,2 Z " fill="#3B3F46" transform="translate(78,67)"/>
<path d="M0,0 L1,2 L5,4 L4,6 L1,4 L1,6 L-4,6 L-4,3 L-2,3 L-2,1 Z " fill="#25272C" transform="translate(84,22)"/>
<path d="M0,0 L2,0 L1,10 L-3,11 L-3,8 L-1,8 Z " fill="#332822" transform="translate(14,24)"/>
<path d="M0,0 L4,1 L5,6 L0,6 L-1,1 Z " fill="#070402" transform="translate(66,27)"/>
<path d="M0,0 L5,0 L5,3 L0,4 L0,6 L-3,6 L-3,2 L0,2 Z " fill="#4C463D" transform="translate(10,7)"/>
<path d="M0,0 L4,1 L5,4 L10,6 L6,8 L2,5 L2,2 L0,2 Z " fill="#3C3A3C" transform="translate(107,8)"/>
<path d="M0,0 L6,0 L2,4 L-1,6 L-4,6 L-4,3 L-1,2 Z " fill="#484D56" transform="translate(90,61)"/>
<path d="M0,0 L6,1 L4,5 L-1,6 L-1,1 Z " fill="#736E6F" transform="translate(30,27)"/>
<path d="M0,0 L11,0 L7,3 L5,3 L5,5 L0,4 Z " fill="#0D1110" transform="translate(124,13)"/>
<path d="M0,0 L1,3 L6,4 L2,5 L3,11 L-3,9 L1,8 L-1,3 Z " fill="#404348" transform="translate(59,71)"/>
<path d="M0,0 L6,0 L8,2 L6,4 L3,5 L3,3 L-2,3 L0,2 Z " fill="#756F73" transform="translate(48,61)"/>
<path d="M0,0 L2,1 L-1,6 L-3,6 L-4,8 L-8,7 L-4,3 L-4,1 Z " fill="#272A30" transform="translate(121,60)"/>
<path d="M0,0 L3,0 L3,2 L0,2 L0,5 L-5,8 L-8,8 L-8,6 L-5,5 L-4,3 L-2,3 L-2,1 Z " fill="#333740" transform="translate(108,56)"/>
<path d="M0,0 L5,0 L5,2 L7,3 L5,3 L5,5 L0,6 Z " fill="#181B26" transform="translate(92,53)"/>
<path d="M0,0 L3,1 L3,6 L-2,7 L-2,3 Z " fill="#3F4347" transform="translate(82,44)"/>
<path d="M0,0 L2,1 L0,7 L-3,8 L-3,6 L-8,4 L-8,3 L-3,3 L0,2 Z " fill="#524139" transform="translate(62,47)"/>
<path d="M0,0 L6,1 L6,4 L4,4 L2,8 L1,3 L-1,3 Z " fill="#43332F" transform="translate(59,23)"/>
<path d="M0,0 L4,2 L1,5 L-1,5 L-1,7 L-3,7 L-3,2 L0,2 Z " fill="#160E0D" transform="translate(90,77)"/>
<path d="M0,0 L3,2 L1,2 L1,4 L-3,6 L-8,5 L-6,3 L-4,3 L-3,1 Z " fill="#242B30" transform="translate(123,54)"/>
<path d="M0,0 L5,1 L4,8 L-2,8 L0,5 L2,5 Z " fill="#383B45" transform="translate(102,25)"/>
<path d="M0,0 L5,0 L4,6 L-2,4 L-2,2 L0,2 Z " fill="#202228" transform="translate(90,28)"/>
<path d="M0,0 L4,1 L4,3 L8,4 L2,7 L1,5 L2,3 L-2,2 L0,2 Z " fill="#11141B" transform="translate(90,18)"/>
<path d="M0,0 L5,1 L8,4 L2,6 L1,2 L-2,1 Z " fill="#4B464A" transform="translate(73,18)"/>
<path d="M0,0 L4,1 L4,3 L-1,5 L-5,4 L-6,2 Z " fill="#3D3A3D" transform="translate(45,10)"/>
<path d="M0,0 L6,0 L6,2 L1,2 L0,5 L-5,5 L-4,2 L-1,2 Z " fill="#180C08" transform="translate(15,2)"/>
<path d="M0,0 L8,1 L8,3 L-2,3 L-2,1 Z " fill="#5C5A5E" transform="translate(77,62)"/>
<path d="M0,0 L2,0 L2,2 L-2,2 L-3,5 L-11,6 L-8,3 Z " fill="#959DA9" transform="translate(103,55)"/>
<path d="M0,0 L5,0 L5,5 L0,5 Z " fill="#101928" transform="translate(145,43)"/>
<path d="M0,0 L5,0 L9,4 L7,7 L5,6 L5,2 L0,2 Z " fill="#1E1E1D" transform="translate(0,35)"/>
<path d="M0,0 L4,2 L1,7 L-3,8 L-2,2 L0,2 L0,4 L2,4 Z " fill="#697078" transform="translate(96,31)"/>
<path d="M0,0 L3,1 L5,8 L1,7 Z " fill="#020608" transform="translate(131,29)"/>
<path d="M0,0 L2,0 L2,3 L0,3 L0,6 L-4,7 L-3,4 L-5,2 Z " fill="#1B1010" transform="translate(38,25)"/>
<path d="M0,0 L2,0 L2,2 L5,1 L4,6 L-3,7 L0,4 L-1,2 Z " fill="#302D30" transform="translate(34,20)"/>
<path d="M0,0 L5,1 L5,3 L7,3 L7,5 L1,5 L1,3 L-3,1 Z " fill="#1E1518" transform="translate(61,8)"/>
<path d="M0,0 L11,1 L11,2 L2,2 L0,6 L-2,5 Z " fill="#1E2328" transform="translate(44,73)"/>
<path d="M0,0 L13,0 L15,2 L3,3 Z " fill="#1E1E21" transform="translate(62,64)"/>
<path d="M0,0 L3,1 L1,2 L1,7 L-3,8 L-3,5 L-5,4 L-1,2 Z " fill="#110B08" transform="translate(63,51)"/>
<path d="M0,0 L2,0 L2,2 L6,1 L8,6 L6,6 L6,3 L4,3 L3,6 L1,5 Z " fill="#A38A82" transform="translate(36,55)"/>
<path d="M0,0 L6,0 L7,4 L1,2 L1,5 L3,6 L-1,5 Z " fill="#12100F" transform="translate(134,0)"/>
<path d="M0,0 L4,2 L2,5 L-4,5 L-5,3 L-1,2 Z " fill="#43464D" transform="translate(61,64)"/>
<path d="M0,0 L2,1 L1,5 L-2,7 L-5,6 L-3,6 L-3,4 L-5,3 Z " fill="#79848F" transform="translate(105,61)"/>
<path d="M0,0 L1,2 L0,4 L3,5 L-1,5 L1,10 L-2,10 L-3,4 L-1,4 Z " fill="#101012" transform="translate(130,50)"/>
<path d="M0,0 L3,1 L3,8 L-1,6 L-2,3 L0,3 Z " fill="#70564D" transform="translate(41,51)"/>
<path d="M0,0 L3,4 L3,8 L5,9 L6,7 L5,11 L1,9 L0,8 Z " fill="#3F4B53" transform="translate(9,42)"/>
<path d="M0,0 L2,0 L2,3 L7,2 L8,0 L8,4 L1,5 L1,2 L-1,1 Z " fill="#4E3D39" transform="translate(36,43)"/>
<path d="M0,0 L4,0 L4,3 L-8,3 L-8,1 Z " fill="#6F6B6B" transform="translate(53,7)"/>
<path d="M0,0 L1,3 L-3,3 L-3,5 L-7,5 L-7,2 Z " fill="#090807" transform="translate(52,2)"/>
<path d="M0,0 L6,0 L6,5 L0,4 Z " fill="#181E28" transform="translate(89,0)"/>
<path d="M0,0 L5,0 L1,1 L1,3 L-1,4 L1,6 L-4,6 L-4,2 Z " fill="#262F35" transform="translate(67,68)"/>
<path d="M0,0 L1,3 L-3,6 L-6,5 L-6,3 Z " fill="#070A12" transform="translate(92,66)"/>
<path d="M0,0 L5,5 L3,6 L-5,4 L-5,2 L0,2 Z " fill="#3B3336" transform="translate(21,60)"/>
<path d="M0,0 L2,1 L1,4 L4,3 L6,4 L5,6 L3,5 L2,8 L0,8 L-1,4 Z " fill="#6D747E" transform="translate(117,50)"/>
<path d="M0,0 L3,3 L3,5 L-2,6 L-3,3 Z " fill="#91949B" transform="translate(138,42)"/>
<path d="M0,0 L4,1 L4,3 L6,4 L3,5 L3,2 L1,3 L2,7 L-1,6 L-1,1 Z " fill="#958782" transform="translate(35,41)"/>
<path d="M0,0 L4,1 L10,4 L6,6 L4,5 L4,3 L0,1 Z " fill="#161B24" transform="translate(106,25)"/>
<path d="M0,0 L1,2 L3,2 L5,12 L3,11 L3,5 L-2,3 L-1,1 Z " fill="#51565B" transform="translate(132,23)"/>
<path d="M0,0 L3,1 L3,4 L5,4 L5,7 L0,8 Z " fill="#464346" transform="translate(70,22)"/>
<path d="M0,0 L2,0 L2,2 L4,2 L4,8 L1,8 Z " fill="#737676" transform="translate(135,25)"/>
<path d="M0,0 L2,0 L1,4 L-1,4 L-1,6 L-6,7 L-5,5 L-3,5 L-3,2 L0,2 Z " fill="#8E7E79" transform="translate(24,25)"/>
<path d="M0,0 L3,0 L3,3 L1,3 L1,7 L-2,6 L-1,1 Z " fill="#414950" transform="translate(86,0)"/>
<path d="M0,0 L11,0 L11,1 L5,1 L5,3 L2,4 L0,3 Z " fill="#090C15" transform="translate(97,0)"/>
<path d="M0,0 L6,0 L6,4 L1,4 Z " fill="#232125" transform="translate(61,77)"/>
<path d="M0,0 L7,0 L11,3 L0,2 Z " fill="#A2AAB1" transform="translate(49,76)"/>
<path d="M0,0 L2,3 L4,1 L5,5 L3,5 L2,8 L-1,5 Z " fill="#1C0A07" transform="translate(36,49)"/>
<path d="M0,0 L2,2 L4,7 L2,10 L2,8 L0,8 L-1,1 Z " fill="#241612" transform="translate(26,43)"/>
<path d="M0,0 L9,0 L9,2 L1,3 Z " fill="#948C8C" transform="translate(15,45)"/>
<path d="M0,0 L6,0 L7,2 L2,2 L1,5 L-2,2 Z " fill="#2A1F1C" transform="translate(59,42)"/>
<path d="M0,0 L2,0 L3,4 L1,8 L0,5 L-2,5 Z " fill="#4F657A" transform="translate(10,37)"/>
<path d="M0,0 L5,1 L2,4 L-3,5 L-3,2 L0,2 Z " fill="#6F5B55" transform="translate(38,29)"/>
<path d="M0,0 L3,0 L6,3 L9,3 L8,6 L4,5 L0,2 Z " fill="#515459" transform="translate(76,17)"/>
<path d="M0,0 L3,1 L8,1 L5,2 L4,4 L-3,3 Z " fill="#241C20" transform="translate(62,15)"/>
<path d="M0,0 L4,1 L8,3 L7,5 L2,4 L0,3 Z " fill="#504C4B" transform="translate(135,2)"/>
<path d="M0,0 L5,1 L5,4 L0,4 Z " fill="#0C0A0E" transform="translate(42,80)"/>
<path d="M0,0 L4,1 L7,2 L6,6 L4,4 L0,3 Z " fill="#705E58" transform="translate(8,68)"/>
<path d="M0,0 L3,0 L3,2 L1,2 L0,6 L-4,7 L-4,5 L-2,5 L-1,1 Z " fill="#6E6969" transform="translate(122,61)"/>
<path d="M0,0 L2,0 L2,6 L-5,3 L-5,2 L0,2 Z " fill="#292D39" transform="translate(141,61)"/>
<path d="M0,0 L2,1 L1,4 L-1,7 L-4,7 L-2,2 L0,2 Z " fill="#060709" transform="translate(133,60)"/>
<path d="M0,0 L1,2 L5,2 L3,6 L0,7 L-1,2 Z " fill="#1A1F27" transform="translate(118,47)"/>
<path d="M0,0 L5,0 L5,4 L1,4 L-1,5 Z " fill="#A9B3BB" transform="translate(113,45)"/>
<path d="M0,0 L2,1 L1,11 L-2,10 L-1,6 Z " fill="#050F13" transform="translate(105,37)"/>
<path d="M0,0 L4,2 L2,2 L3,6 L1,7 L1,4 L-3,3 L0,2 Z " fill="#422C25" transform="translate(49,43)"/>
<path d="M0,0 L9,1 L9,3 L7,3 L6,5 L6,3 L3,4 L3,1 Z " fill="#3A3331" transform="translate(48,9)"/>
<path d="M0,0 L6,1 L5,5 L2,4 L2,2 L0,2 Z " fill="#A39B9C" transform="translate(26,54)"/>
<path d="M0,0 L3,1 L1,4 L3,5 L2,7 L0,7 L-1,3 L-4,1 Z " fill="#161415" transform="translate(75,44)"/>
<path d="M0,0 L6,0 L4,2 L4,5 L0,4 L-1,1 Z " fill="#5B646B" transform="translate(91,14)"/>
<path d="M0,0 L6,1 L7,4 L2,3 L0,2 Z " fill="#63676F" transform="translate(99,10)"/>
<path d="M0,0 L3,1 L1,1 L1,4 L-6,4 L-7,6 L-7,2 L0,3 Z " fill="#28262E" transform="translate(131,76)"/>
<path d="M0,0 L3,1 L5,2 L5,4 L3,4 L2,8 Z " fill="#31353B" transform="translate(90,41)"/>
<path d="M0,0 L2,0 L4,5 L0,6 L-1,3 Z " fill="#475058" transform="translate(126,39)"/>
<path d="M0,0 L6,0 L5,5 L1,4 Z " fill="#86949D" transform="translate(106,36)"/>
<path d="M0,0 L2,1 L2,3 L4,4 L-2,5 L-2,1 Z " fill="#1E1310" transform="translate(25,28)"/>
<path d="M0,0 L1,4 L3,5 L3,8 L0,7 L0,4 L-2,4 L-2,1 Z " fill="#191615" transform="translate(79,27)"/>
<path d="M0,0 L3,1 L4,4 L2,5 L-5,3 L-5,2 L0,2 Z " fill="#0F0F13" transform="translate(85,26)"/>
<path d="M0,0 L2,0 L2,2 L7,2 L3,4 L-3,2 Z " fill="#372A2F" transform="translate(58,20)"/>
<path d="M0,0 L3,0 L3,3 L-8,4 L-5,2 L0,2 Z " fill="#33302F" transform="translate(49,5)"/>
<path d="M0,0 L9,0 L10,3 L1,2 Z " fill="#594741" transform="translate(27,81)"/>
<path d="M0,0 L3,0 L3,2 L6,3 L6,4 L0,4 Z " fill="#261B17" transform="translate(0,80)"/>
<path d="M0,0 L2,0 L2,3 L-1,6 L-4,6 L-4,3 L-1,2 Z " fill="#412C26" transform="translate(111,76)"/>
<path d="M0,0 L2,0 L2,5 L-2,6 L-2,2 L0,2 Z " fill="#090806" transform="translate(125,61)"/>
<path d="M0,0 L10,1 L10,2 L4,3 L0,2 Z " fill="#5F5D62" transform="translate(22,60)"/>
<path d="M0,0 L5,0 L3,5 L0,6 Z " fill="#646463" transform="translate(135,47)"/>
<path d="M0,0 L2,0 L3,4 L0,5 L-3,1 Z " fill="#392B26" transform="translate(69,46)"/>
<path d="M0,0 L2,3 L1,8 L-2,8 Z " fill="#798A9D" transform="translate(12,41)"/>
<path d="M0,0 L4,0 L5,4 L1,5 L1,3 L-1,3 Z " fill="#281511" transform="translate(42,47)"/>
<path d="M0,0 L3,1 L3,4 L-2,6 L-1,1 Z " fill="#0B0302" transform="translate(31,47)"/>
<path d="M0,0 L3,0 L4,6 L1,6 Z " fill="#1E2930" transform="translate(108,42)"/>
<path d="M0,0 L1,2 L4,3 L4,5 L0,6 L0,3 L-2,2 L0,2 Z " fill="#110807" transform="translate(86,41)"/>
<path d="M0,0 L2,0 L2,7 L0,7 L-1,1 Z " fill="#5A4D4C" transform="translate(28,41)"/>
<path d="M0,0 L2,0 L4,6 L1,7 L0,6 Z " fill="#141A23" transform="translate(128,36)"/>
<path d="M0,0 L2,1 L6,0 L9,1 L9,3 L6,4 L3,3 L0,3 Z " fill="#52423C" transform="translate(34,32)"/>
<path d="M0,0 L3,1 L3,5 L-2,4 Z " fill="#110705" transform="translate(85,30)"/>
<path d="M0,0 L6,1 L7,5 L3,4 L0,2 Z " fill="#0D0E12" transform="translate(85,22)"/>
<path d="M0,0 L4,0 L4,4 L1,5 Z " fill="#22252D" transform="translate(122,18)"/>
<path d="M0,0 L3,0 L4,4 L0,6 Z " fill="#080301" transform="translate(22,20)"/>
<path d="M0,0 L1,3 L1,7 L-2,7 L-2,3 L-4,2 L0,2 Z " fill="#242329" transform="translate(106,12)"/>
<path d="M0,0 L3,0 L3,3 L-4,3 L-4,1 Z " fill="#787271" transform="translate(49,0)"/>
<path d="M0,0 L1,2 L6,2 L6,4 L-1,4 Z " fill="#353032" transform="translate(78,80)"/>
<path d="M0,0 L2,4 L4,6 L-2,6 L-2,3 L0,3 Z " fill="#1B0C0A" transform="translate(113,76)"/>
<path d="M0,0 L4,0 L2,5 L0,5 Z " fill="#090506" transform="translate(121,71)"/>
<path d="M0,0 L4,1 L0,5 L-2,5 L-2,3 L0,3 Z " fill="#859099" transform="translate(113,63)"/>
<path d="M0,0 L2,0 L2,4 L0,4 L-1,6 L-2,2 Z " fill="#44515B" transform="translate(96,46)"/>
<path d="M0,0 L2,0 L3,5 L-2,4 L-2,2 L0,2 Z " fill="#03080E" transform="translate(114,37)"/>
<path d="M0,0 L4,2 L8,6 L4,5 L0,2 Z " fill="#222330" transform="translate(115,19)"/>
<path d="M0,0 L1,2 L3,2 L3,4 L-4,3 L-4,1 Z " fill="#010000" transform="translate(82,10)"/>
<path d="M0,0 L4,1 L1,1 L1,6 L-2,6 Z " fill="#060202" transform="translate(86,78)"/>
<path d="M0,0 L1,3 L0,8 L-2,7 L-1,1 Z " fill="#58616A" transform="translate(127,70)"/>
<path d="M0,0 L9,2 L9,3 L1,3 Z " fill="#8A9297" transform="translate(46,66)"/>
<path d="M0,0 L1,2 L-3,4 L-7,4 L-7,1 Z " fill="#4E545A" transform="translate(122,58)"/>
<path d="M0,0 L6,0 L5,2 L-1,3 Z " fill="#1F100D" transform="translate(49,58)"/>
<path d="M0,0 L6,0 L6,3 L4,3 L3,5 L3,2 L0,2 Z " fill="#37302B" transform="translate(11,52)"/>
<path d="M0,0 L1,0 L1,5 L-3,6 L-2,2 L0,3 Z " fill="#37433F" transform="translate(143,48)"/>
<path d="M0,0 L2,0 L4,5 L-1,4 Z " fill="#3B241F" transform="translate(31,51)"/>
<path d="M0,0 L3,0 L3,2 L1,2 L1,4 L-3,4 L-3,2 Z " fill="#777679" transform="translate(33,18)"/>
<path d="M0,0 L6,0 L6,3 L0,3 Z " fill="#14080A" transform="translate(0,18)"/>
<path d="M0,0 L7,1 L7,2 L-1,3 Z " fill="#837E7C" transform="translate(47,14)"/>
<path d="M0,0 L8,1 L8,2 L0,3 Z " fill="#69595B" transform="translate(59,6)"/>
<path d="M0,0 L5,2 L5,4 L0,4 Z " fill="#424C53" transform="translate(97,3)"/>
<path d="M0,0 L5,0 L4,3 L0,3 Z " fill="#100303" transform="translate(105,75)"/>
<path d="M0,0 L1,2 L4,2 L2,7 L0,4 Z " fill="#1E1A20" transform="translate(124,66)"/>
<path d="M0,0 L4,0 L2,5 L1,3 L-1,2 Z " fill="#6A696E" transform="translate(58,62)"/>
<path d="M0,0 L1,2 L3,3 L2,4 L-3,4 L-3,2 Z " fill="#8994A0" transform="translate(101,50)"/>
<path d="M0,0 L3,0 L2,5 L0,5 Z " fill="#A4AEB8" transform="translate(114,50)"/>
<path d="M0,0 L2,0 L1,5 L-2,4 Z " fill="#383738" transform="translate(78,44)"/>
<path d="M0,0 L2,0 L3,6 L2,8 L0,8 Z " fill="#252B33" transform="translate(120,40)"/>
<path d="M0,0 L4,0 L4,4 L0,3 Z " fill="#090905" transform="translate(76,0)"/>
<path d="M0,0 L2,0 L2,5 L1,3 L-3,2 Z " fill="#070100" transform="translate(102,77)"/>
<path d="M0,0 L5,0 L2,2 L1,6 L-1,2 Z " fill="#29282C" transform="translate(73,74)"/>
<path d="M0,0 L6,1 L5,3 L0,2 Z " fill="#918B8E" transform="translate(36,65)"/>
<path d="M0,0 L3,0 L1,4 L-3,3 Z " fill="#212325" transform="translate(116,64)"/>
<path d="M0,0 L2,1 L1,3 L3,4 L-3,5 L-1,4 Z " fill="#11161F" transform="translate(97,61)"/>
<path d="M0,0 L7,0 L5,4 L5,2 L0,1 Z " fill="#2C292C" transform="translate(70,58)"/>
<path d="M0,0 L3,1 L4,5 L-1,4 Z " fill="#7E6B67" transform="translate(32,55)"/>
<path d="M0,0 L2,4 L2,6 L-2,5 Z " fill="#050C12" transform="translate(128,23)"/>
<path d="M0,0 L5,0 L5,3 L0,2 Z " fill="#707E86" transform="translate(120,26)"/>
<path d="M0,0 L5,0 L7,4 L2,2 Z " fill="#0B0E19" transform="translate(99,22)"/>
<path d="M0,0 L3,1 L3,3 L-1,4 L-2,1 Z " fill="#150909" transform="translate(50,23)"/>
<path d="M0,0 L6,1 L6,3 L1,3 Z " fill="#424A4F" transform="translate(86,20)"/>
<path d="M0,0 L2,1 L0,4 L-4,4 L-4,2 Z " fill="#A69995" transform="translate(29,11)"/>
<path d="M0,0 L2,1 L2,4 L-4,2 Z " fill="#55555B" transform="translate(60,78)"/>
<path d="M0,0 L4,0 L4,2 L-2,3 Z " fill="#141B1F" transform="translate(72,69)"/>
<path d="M0,0 L7,0 L5,1 L5,3 L0,1 Z " fill="#757373" transform="translate(70,56)"/>
<path d="M0,0 L3,1 L1,2 L0,5 L-2,5 Z " fill="#221611" transform="translate(63,51)"/>
<path d="M0,0 L2,2 L6,4 L-1,4 Z " fill="#2F2429" transform="translate(17,41)"/>
<path d="M0,0 L3,1 L3,5 L1,5 L-1,1 Z " fill="#282B31" transform="translate(94,38)"/>
<path d="M0,0 L3,0 L2,4 L0,5 Z " fill="#554546" transform="translate(83,37)"/>
<path d="M0,0 L2,1 L2,5 L-1,4 Z " fill="#0C1117" transform="translate(13,36)"/>
<path d="M0,0 L3,1 L3,4 L0,4 L-1,1 Z M3,0 Z " fill="#150908" transform="translate(15,35)"/>
<path d="M0,0 L4,0 L4,3 L0,3 Z " fill="#27221F" transform="translate(66,34)"/>
<path d="M0,0 L1,0 L1,6 L-2,6 L-2,3 L0,3 Z " fill="#483B37" transform="translate(13,29)"/>
<path d="M0,0 L3,1 L2,4 L-2,3 L-2,1 Z " fill="#28282B" transform="translate(90,29)"/>
<path d="M0,0 L3,1 L1,1 L0,5 L-3,3 L-1,3 Z " fill="#4D3631" transform="translate(41,25)"/>
<path d="M0,0 L4,1 L6,3 L1,3 Z " fill="#2A292E" transform="translate(75,19)"/>
<path d="M0,0 L4,2 L0,4 L-2,1 Z " fill="#363030" transform="translate(113,12)"/>
<path d="M0,0 L5,1 L3,3 L0,3 Z " fill="#4E595F" transform="translate(87,11)"/>
<path d="M0,0 L6,1 L3,2 L2,5 L2,2 L0,2 Z " fill="#252F32" transform="translate(84,9)"/>
<path d="M0,0 L3,0 L3,4 L0,4 Z " fill="#3A322E" transform="translate(7,9)"/>
<path d="M0,0 L5,1 L4,4 L0,2 Z " fill="#767474" transform="translate(145,9)"/>
<path d="M0,0 L4,1 L2,4 L0,4 Z " fill="#1E2226" transform="translate(82,0)"/>
<path d="M0,0 L4,0 L4,3 L0,3 Z " fill="#1B1D1F" transform="translate(32,0)"/>
<path d="M0,0 L3,0 L4,4 L-2,2 Z " fill="#181714" transform="translate(137,0)"/>
<path d="M0,0 L4,1 L4,5 L2,4 Z " fill="#201B1D" transform="translate(23,62)"/>
<path d="M0,0 L5,0 L5,3 L0,1 Z " fill="#090C10" transform="translate(62,64)"/>
<path d="M0,0 L4,1 L5,3 L-1,2 Z " fill="#22303A" transform="translate(106,62)"/>
<path d="M0,0 L5,0 L5,3 L2,3 L2,1 Z " fill="#95999F" transform="translate(62,60)"/>
<path d="M0,0 L1,2 L3,3 L-1,5 L-1,2 Z " fill="#464046" transform="translate(80,56)"/>
<path d="M0,0 L3,0 L2,4 L0,4 Z " fill="#393B42" transform="translate(85,55)"/>
<path d="M0,0 L5,0 L3,1 L3,3 L0,3 Z " fill="#332925" transform="translate(61,44)"/>
<path d="M0,0 L4,2 L3,5 L0,2 Z " fill="#362F2D" transform="translate(74,30)"/>
<path d="M0,0 L5,0 L4,3 L1,3 Z " fill="#0B101A" transform="translate(113,30)"/>
<path d="M0,0 L3,0 L4,5 L2,5 Z " fill="#877571" transform="translate(57,26)"/>
<path d="M0,0 L1,2 L3,3 L1,5 L-2,3 L-1,1 Z " fill="#3B4952" transform="translate(132,23)"/>
<path d="M0,0 L1,3 L-3,5 L-2,1 Z " fill="#434244" transform="translate(79,24)"/>
<path d="M0,0 L3,1 L1,5 L1,3 L-1,3 Z " fill="#4B3A39" transform="translate(59,23)"/>
<path d="M0,0 L5,2 L1,4 L-2,1 Z " fill="#28191D" transform="translate(54,21)"/>
<path d="M0,0 L2,3 L1,4 L-5,4 L-1,2 Z " fill="#1D1312" transform="translate(30,12)"/>
<path d="M0,0 L3,0 L2,3 L-1,3 Z " fill="#161418" transform="translate(42,80)"/>
<path d="M0,0 L4,1 L4,3 L0,3 Z " fill="#9E8D8A" transform="translate(30,79)"/>
<path d="M0,0 L1,3 L-3,4 L-2,1 Z " fill="#131114" transform="translate(72,77)"/>
<path d="M0,0 L2,0 L0,4 L-3,3 L-1,3 Z " fill="#787C84" transform="translate(128,75)"/>
<path d="M0,0 L2,1 L2,3 L-4,3 Z " fill="#242125" transform="translate(96,74)"/>
<path d="M0,0 L2,0 L1,4 L-2,3 Z " fill="#090C0E" transform="translate(57,71)"/>
<path d="M0,0 L2,0 L2,4 L-1,3 Z " fill="#35343A" transform="translate(148,64)"/>
<path d="M0,0 L4,0 L4,2 L0,3 Z " fill="#9F9D9F" transform="translate(129,60)"/>
<path d="M0,0 L4,1 L3,4 L0,3 Z " fill="#141A24" transform="translate(113,54)"/>
<path d="M0,0 L2,0 L2,2 L4,3 L0,4 Z " fill="#090D18" transform="translate(95,53)"/>
<path d="M0,0 L3,0 L2,3 L-1,3 Z " fill="#080C12" transform="translate(86,52)"/>
<path d="M0,0 L5,2 L3,3 L2,5 Z " fill="#3C2A24" transform="translate(53,50)"/>
<path d="M0,0 L2,3 L2,5 L-1,5 Z " fill="#120403" transform="translate(36,49)"/>
<path d="M0,0 L3,1 L3,3 L-1,3 Z " fill="#545152" transform="translate(82,44)"/>
<path d="M0,0 L4,2 L-2,3 L0,2 Z " fill="#4C342E" transform="translate(49,43)"/>
<path d="M0,0 L1,0 L1,5 L-2,4 L-2,2 L0,2 Z " fill="#3C302D" transform="translate(38,36)"/>
<path d="M0,0 L5,2 L3,4 L0,2 Z " fill="#4D4E56" transform="translate(96,29)"/>
<path d="M0,0 L2,0 L1,4 L-1,4 Z " fill="#121319" transform="translate(35,14)"/>
<path d="M0,0 L5,0 L2,3 Z " fill="#0A0B0F" transform="translate(12,79)"/>
<path d="M0,0 L3,0 L2,4 Z " fill="#5C4B47" transform="translate(12,70)"/>
<path d="M0,0 L2,4 L0,6 L0,4 L-2,3 L0,3 Z " fill="#363434" transform="translate(127,57)"/>
<path d="M0,0 L2,1 L1,4 L-1,4 Z " fill="#1C1D26" transform="translate(125,48)"/>
<path d="M0,0 L3,1 L2,6 L0,2 Z " fill="#434D55" transform="translate(117,37)"/>
<path d="M0,0 L4,1 L0,3 Z " fill="#57656F" transform="translate(108,34)"/>
<path d="M0,0 L3,4 L0,5 L-1,3 Z " fill="#21242A" transform="translate(92,20)"/>
<path d="M0,0 L3,0 L3,3 L0,3 Z " fill="#5E6971" transform="translate(126,19)"/>
<path d="M0,0 L2,0 L3,4 L-1,2 Z " fill="#0E0A10" transform="translate(114,15)"/>
<path d="M0,0 L3,0 L3,3 L0,3 Z " fill="#797372" transform="translate(54,7)"/>
<path d="M0,0 L4,1 L3,4 L0,3 Z " fill="#1E282F" transform="translate(97,0)"/>
<path d="M0,0 L3,0 L2,3 L0,3 Z " fill="#090409" transform="translate(37,69)"/>
<path d="M0,0 L2,0 L1,3 L-2,2 Z " fill="#424149" transform="translate(82,67)"/>
<path d="M0,0 L2,4 L-1,5 Z " fill="#57433E" transform="translate(41,58)"/>
<path d="M0,0 L2,0 L1,3 L-2,2 Z " fill="#202935" transform="translate(96,46)"/>
<path d="M0,0 L4,1 L1,3 Z " fill="#4C474A" transform="translate(71,46)"/>
<path d="M0,0 L3,0 L3,3 L0,2 Z " fill="#BAC2CB" transform="translate(15,45)"/>
<path d="M0,0 L3,3 L0,4 Z " fill="#808B92" transform="translate(127,41)"/>
<path d="M0,0 L3,0 L1,4 Z " fill="#6A6267" transform="translate(15,39)"/>
<path d="M0,0 L2,0 L2,3 L-2,1 Z " fill="#434C55" transform="translate(93,16)"/>
<path d="M0,0 L3,0 L3,3 L0,2 Z " fill="#3B2D2F" transform="translate(69,14)"/>
<path d="M0,0 L2,0 L1,3 L-1,3 Z " fill="#777E86" transform="translate(64,67)"/>
<path d="M0,0 L3,1 L2,3 L0,3 Z " fill="#86939D" transform="translate(115,59)"/>
<path d="M0,0 L3,1 L3,3 L0,2 Z " fill="#4C4D53" transform="translate(126,51)"/>
<path d="M0,0 L3,1 L3,3 L0,2 Z " fill="#695956" transform="translate(44,37)"/>
<path d="M0,0 L3,0 L2,3 L0,2 Z " fill="#261C1F" transform="translate(0,29)"/>
<path d="M0,0 L4,1 L2,3 Z " fill="#282A38" transform="translate(106,25)"/>
<path d="M0,0 L2,0 L1,3 L-1,1 Z " fill="#13151B" transform="translate(117,79)"/>
</svg>
