<?xml version="1.0" encoding="UTF-8"?>
<!-- Generator: visioncortex VTracer 0.6.5 -->
<svg version="1.1" xmlns="http://www.w3.org/2000/svg" width="150" height="84">
<path d="M0,0 L150,0 L150,84 L0,84 Z " fill="#010102" transform="translate(0,0)"/>
<path d="M0,0 L20,0 L20,8 L19,12 L21,13 L21,11 L25,10 L27,6 L28,9 L30,9 L29,14 L27,18 L24,18 L25,20 L25,28 L24,33 L25,35 L23,35 L23,37 L25,38 L19,39 L16,38 L16,40 L14,40 L17,46 L13,46 L13,49 L22,51 L24,52 L24,50 L26,50 L26,56 L30,56 L30,58 L35,59 L39,61 L39,59 L45,57 L54,58 L59,60 L59,64 L61,64 L63,68 L71,70 L71,72 L65,73 L78,73 L82,74 L82,72 L89,70 L90,66 L97,66 L98,62 L98,66 L104,66 L104,64 L111,64 L112,67 L107,67 L107,69 L116,70 L116,72 L107,73 L107,75 L94,79 L90,78 L90,75 L101,73 L104,73 L104,71 L100,72 L97,70 L93,70 L91,74 L85,74 L85,76 L77,75 L77,81 L70,82 L71,84 L0,84 Z " fill="#0A1114" transform="translate(0,0)"/>
<path d="M0,0 L20,0 L20,8 L19,12 L21,13 L21,11 L25,10 L27,6 L28,9 L30,9 L29,14 L27,18 L24,18 L25,20 L25,28 L24,33 L25,35 L23,35 L23,37 L25,38 L19,39 L16,38 L16,40 L14,40 L17,46 L13,46 L13,49 L22,51 L24,52 L24,50 L26,50 L26,56 L30,56 L30,58 L35,59 L37,61 L42,62 L42,66 L37,64 L29,61 L28,65 L33,66 L33,69 L39,68 L41,72 L33,72 L29,70 L27,75 L20,75 L18,70 L18,67 L22,67 L22,69 L25,68 L25,63 L26,62 L23,61 L23,63 L19,63 L18,54 L11,54 L7,53 L3,53 L3,55 L5,55 L5,58 L7,58 L7,60 L2,61 L0,58 Z " fill="#1D222C" transform="translate(0,0)"/>
<path d="M0,0 L40,0 L40,3 L36,3 L35,7 L28,10 L25,13 L27,18 L27,20 L27,26 L29,30 L22,31 L20,30 L19,33 L12,32 L12,34 L16,34 L16,36 L9,36 L6,39 L14,40 L14,38 L17,39 L20,46 L22,47 L21,51 L16,53 L15,57 L14,56 L6,56 L6,50 L4,50 L4,52 L-3,51 L-7,49 L-8,45 L-4,45 L-6,40 L-4,40 L-4,38 L3,38 L2,33 L4,33 L4,18 L7,18 L10,9 L8,9 L7,7 L5,11 L1,11 L1,13 L-2,12 Z " fill="#0C1620" transform="translate(20,0)"/>
<path d="M0,0 L12,2 L13,6 L15,6 L15,33 L-36,33 L-36,28 L-29,26 L-23,25 L-23,23 L-18,23 L-17,24 L-12,24 L-11,21 L-8,21 L-7,17 L-8,16 L-8,11 L-4,9 L1,8 L2,2 L-3,3 L-3,1 Z " fill="#04070D" transform="translate(135,51)"/>
<path d="M0,0 L11,2 L12,11 L16,11 L16,9 L20,10 L18,11 L19,16 L15,17 L15,15 L11,15 L13,20 L13,23 L18,23 L19,24 L28,25 L28,26 L22,26 L22,29 L31,30 L32,32 L-7,32 L-7,6 L-5,7 L-5,9 L0,8 L0,6 L-2,6 L-2,3 L-4,3 L-4,1 Z " fill="#0C1112" transform="translate(7,52)"/>
<path d="M0,0 L2,0 L5,7 L6,11 L15,13 L17,14 L17,12 L19,12 L19,18 L23,18 L23,20 L28,21 L30,23 L35,24 L35,28 L30,26 L22,23 L21,27 L26,28 L26,31 L32,30 L34,34 L26,34 L22,32 L20,37 L13,37 L11,32 L11,29 L15,29 L15,31 L18,30 L18,25 L19,24 L16,23 L16,25 L12,25 L11,16 L4,16 L0,15 L-4,15 L-4,17 L-2,17 L-2,20 L0,20 L0,22 L-5,23 L-7,20 L-7,5 L-1,5 Z " fill="#272E34" transform="translate(7,38)"/>
<path d="M0,0 L1,4 L7,4 L7,2 L14,2 L15,5 L10,5 L10,7 L19,8 L19,10 L10,11 L10,13 L-3,17 L-7,16 L-7,13 L4,11 L7,11 L7,9 L3,10 L0,8 L-4,8 L-6,12 L-12,12 L-12,14 L-20,13 L-20,19 L-27,20 L-26,22 L-30,22 L-30,16 L-36,16 L-37,15 L-48,14 L-52,13 L-51,9 L-52,6 L-41,8 L-41,10 L-43,10 L-43,12 L-31,12 L-19,11 L-15,12 L-15,10 L-8,8 L-7,4 L0,4 Z " fill="#394147" transform="translate(97,62)"/>
<path d="M0,0 L2,0 L2,2 L11,3 L10,6 L16,4 L17,1 L22,1 L21,6 L23,12 L25,13 L10,13 L14,11 L16,12 L16,10 L20,9 L20,7 L13,7 L13,9 L-1,9 L0,13 L-3,15 L-9,15 L-9,17 L-26,17 L-27,15 L-20,15 L-20,13 L-26,13 L-27,10 L-12,6 L-3,3 L0,2 Z " fill="#05070B" transform="translate(91,57)"/>
<path d="M0,0 L16,0 L18,20 L16,20 L16,22 L12,24 L11,28 L16,28 L12,30 L4,33 L4,18 L7,18 L10,9 L8,9 L7,7 L5,11 L1,11 L1,13 L-2,12 Z " fill="#010205" transform="translate(20,0)"/>
<path d="M0,0 L7,1 L8,4 L10,5 L11,1 L12,8 L10,8 L9,15 L14,15 L13,12 L17,12 L18,18 L17,20 L13,20 L14,24 L16,30 L8,30 L5,31 L5,26 L7,25 L6,23 L7,21 L9,21 L9,18 L7,17 L6,20 L4,20 L4,22 L1,22 L1,20 L3,20 L4,16 L6,11 L-2,12 L-3,17 L-5,19 L-5,7 L-3,7 L-2,4 L0,4 Z " fill="#070609" transform="translate(5,6)"/>
<path d="M0,0 L24,0 L24,3 L20,3 L19,7 L12,10 L9,13 L11,18 L9,21 L4,24 L0,27 L-4,27 L-4,23 L0,22 L0,20 L2,20 L0,10 Z " fill="#384344" transform="translate(36,0)"/>
<path d="M0,0 L9,1 L9,3 L2,3 L1,7 L11,7 L13,8 L13,12 L19,14 L19,18 L17,18 L18,21 L-2,21 L-2,1 Z " fill="#465860" transform="translate(2,63)"/>
<path d="M0,0 L1,3 L7,3 L7,5 L-4,7 L-7,7 L-6,10 L4,8 L5,7 L10,7 L10,5 L17,4 L19,6 L15,6 L15,8 L8,11 L2,11 L2,16 L-26,16 L-28,13 L-22,12 L-20,13 L-20,10 L-26,10 L-26,9 L-20,9 L-20,7 L-12,8 L-12,6 L-5,4 L-4,2 L0,2 Z " fill="#040405" transform="translate(97,68)"/>
<path d="M0,0 L20,0 L20,8 L19,12 L21,13 L21,11 L25,10 L27,6 L28,9 L30,9 L29,14 L27,18 L19,18 L19,21 L14,21 L15,14 L17,14 L15,11 L12,10 L12,7 L5,6 L5,10 L2,13 L0,13 Z " fill="#66757E" transform="translate(0,0)"/>
<path d="M0,0 L12,2 L13,6 L15,6 L15,14 L10,14 L10,17 L5,17 L5,19 L1,19 L0,21 L-1,16 L1,16 L1,12 L-5,12 L-5,15 L-7,15 L-6,11 L-4,9 L1,8 L2,2 L-3,3 L-3,1 Z " fill="#212728" transform="translate(135,51)"/>
<path d="M0,0 L2,0 L5,7 L6,11 L10,12 L14,15 L15,21 L11,22 L11,16 L4,16 L0,15 L-4,15 L-4,17 L-2,17 L-2,20 L0,20 L0,22 L-5,23 L-7,20 L-7,5 L-1,5 Z " fill="#63747B" transform="translate(7,38)"/>
<path d="M0,0 L2,1 L1,4 L3,4 L3,1 L9,1 L8,6 L9,8 L13,8 L13,6 L18,6 L18,3 L23,3 L23,12 L21,12 L21,15 L14,18 L13,15 L13,11 L9,11 L9,13 L11,14 L6,14 L6,10 L1,10 Z " fill="#1E2727" transform="translate(127,62)"/>
<path d="M0,0 L11,2 L11,4 L9,4 L9,6 L21,6 L33,5 L32,13 L25,14 L26,16 L22,16 L22,10 L16,10 L15,9 L4,8 L0,7 L1,3 Z " fill="#363C47" transform="translate(45,68)"/>
<path d="M0,0 L4,1 L8,4 L8,8 L15,8 L15,13 L13,13 L13,27 L10,27 L10,13 L8,13 L9,9 L5,9 L2,4 L0,3 L2,9 L0,12 L-3,12 L-6,9 L-6,4 L0,2 Z " fill="#4A494D" transform="translate(135,9)"/>
<path d="M0,0 L13,0 L13,11 L10,11 L10,9 L8,9 L7,7 L5,11 L1,11 L1,13 L-2,12 Z " fill="#323129" transform="translate(20,0)"/>
<path d="M0,0 L9,1 L9,3 L2,3 L1,7 L11,7 L13,8 L13,12 L18,14 L15,15 L-2,13 L-2,1 Z " fill="#4B585F" transform="translate(2,63)"/>
<path d="M0,0 L5,0 L4,5 L2,9 L0,9 L0,11 L3,11 L3,9 L6,6 L9,7 L8,10 L6,10 L7,14 L4,15 L4,13 L-3,14 L-3,16 L-6,16 L-6,8 L-3,1 Z " fill="#5D5A5F" transform="translate(6,17)"/>
<path d="M0,0 L12,0 L15,0 L17,1 L17,4 L19,4 L17,10 L15,10 L15,8 L13,8 L13,11 L17,12 L17,13 L11,13 L8,5 L6,7 L3,7 L3,4 L0,3 Z " fill="#414E57" transform="translate(17,41)"/>
<path d="M0,0 L11,2 L11,8 L10,9 L-1,9 L-1,11 L4,11 L4,12 L-7,12 L-7,6 L-5,7 L-5,9 L0,8 L0,6 L-2,6 L-2,3 L-4,3 L-4,1 Z " fill="#213037" transform="translate(7,52)"/>
<path d="M0,0 L2,0 L2,6 L4,10 L-3,11 L-5,10 L-6,13 L-14,12 L-14,8 L-13,4 L-13,7 L-11,5 L-5,3 Z " fill="#1E2A29" transform="translate(45,20)"/>
<path d="M0,0 L4,0 L4,5 L-4,6 L-4,8 L6,7 L6,5 L11,6 L13,8 L6,8 L6,10 L-13,10 L-13,5 L-6,3 L0,2 Z " fill="#607478" transform="translate(112,74)"/>
<path d="M0,0 L2,0 L3,4 L7,4 L7,6 L0,6 L-3,9 L5,10 L5,8 L8,9 L9,13 L7,13 L7,15 L3,17 L3,13 L0,12 L-11,12 L-12,15 L-15,12 L-15,10 L-13,10 L-13,8 L-6,8 L-7,3 Z " fill="#0D1619" transform="translate(29,30)"/>
<path d="M0,0 L7,1 L8,5 L14,4 L16,8 L8,8 L4,6 L2,11 L-5,11 L-7,6 L-7,3 L-3,3 L-3,5 L0,4 Z " fill="#454B4D" transform="translate(25,64)"/>
<path d="M0,0 L2,1 L-2,5 L0,10 L-2,13 L-7,16 L-11,19 L-15,19 L-15,15 L-11,14 L-11,12 L-9,12 L-10,5 L-7,5 L-7,3 Z " fill="#1D2324" transform="translate(47,8)"/>
<path d="M0,0 L2,1 L2,4 L4,3 L12,3 L16,6 L19,6 L19,10 L2,10 L2,8 L7,7 L2,5 L2,7 L-1,8 L-8,8 L-8,6 L-1,4 Z " fill="#3B3E42" transform="translate(116,74)"/>
<path d="M0,0 L4,1 L4,11 L3,16 L4,18 L2,18 L2,20 L4,21 L-2,22 L-5,21 L-5,23 L-9,24 L-10,20 L-8,18 L0,19 L-2,14 L-4,12 L-3,9 L1,9 L1,3 Z " fill="#2D3338" transform="translate(21,17)"/>
<path d="M0,0 L3,0 L2,4 L-2,5 L-2,8 L-4,8 L-4,10 L0,9 L0,11 L3,11 L3,14 L-2,14 L-2,16 L-6,16 L-7,18 L-8,13 L-6,13 L-6,9 L-12,9 L-12,12 L-14,12 L-13,8 L-11,6 L-6,5 L-2,4 Z " fill="#535B5C" transform="translate(142,54)"/>
<path d="M0,0 L9,1 L14,3 L14,8 L13,9 L0,9 L-1,1 Z " fill="#0D151C" transform="translate(45,57)"/>
<path d="M0,0 L6,0 L6,3 L8,4 L8,6 L3,6 L3,8 L9,9 L8,12 L6,13 L-4,13 L-5,6 L1,4 Z " fill="#0E1213" transform="translate(65,0)"/>
<path d="M0,0 L7,1 L9,7 L8,9 L-6,9 L-8,6 L-2,5 L0,6 L0,3 L-6,3 L-6,2 L0,2 Z M9,0 Z M8,1 Z " fill="#000003" transform="translate(77,75)"/>
<path d="M0,0 L2,0 L2,10 L-12,10 L-12,5 L-10,5 L-9,2 L-7,3 L-6,5 L-3,3 L0,3 Z " fill="#211E21" transform="translate(148,74)"/>
<path d="M0,0 L8,0 L8,10 L1,10 L1,6 L-3,4 L-7,1 Z " fill="#1C2128" transform="translate(142,7)"/>
<path d="M0,0 L2,0 L2,2 L5,2 L5,7 L3,10 L-3,11 L-4,16 L-6,18 L-6,6 L-4,6 L-4,4 L0,4 Z " fill="#010307" transform="translate(6,7)"/>
<path d="M0,0 L7,0 L12,2 L18,3 L18,5 L12,6 L13,8 L1,7 L1,5 L3,5 L3,3 L-4,3 L0,2 Z " fill="#2A363B" transform="translate(53,67)"/>
<path d="M0,0 L1,4 L8,4 L6,6 L2,7 L0,6 L0,8 L-4,8 L-6,12 L-12,12 L-12,14 L-19,13 L-15,12 L-15,10 L-8,8 L-7,4 L0,4 Z " fill="#2C2E32" transform="translate(97,62)"/>
<path d="M0,0 L3,2 L-1,2 L-1,4 L-8,7 L-14,7 L-14,12 L-20,12 L-21,7 L-11,3 L-6,3 L-6,1 Z " fill="#131A1C" transform="translate(113,72)"/>
<path d="M0,0 L1,2 L17,3 L17,5 L23,5 L23,11 L11,9 L12,5 L0,4 Z " fill="#223137" transform="translate(44,73)"/>
<path d="M0,0 L2,0 L2,2 L4,3 L1,6 L-8,8 L-15,9 L-10,10 L-10,12 L-26,11 L-22,9 L-17,7 L-8,5 L0,2 Z " fill="#272E36" transform="translate(91,57)"/>
<path d="M0,0 L4,0 L4,3 L0,3 L-1,7 L-10,8 L-15,10 L-18,10 L-18,8 L-4,1 Z " fill="#576867" transform="translate(56,0)"/>
<path d="M0,0 L4,0 L4,6 L0,8 L-1,12 L4,12 L0,14 L-8,17 L-6,12 L-3,8 L-2,3 Z " fill="#06090B" transform="translate(32,16)"/>
<path d="M0,0 L4,1 L7,4 L7,6 L3,5 L0,3 L2,9 L0,12 L-3,12 L-6,9 L-6,4 L0,2 Z " fill="#26282C" transform="translate(135,9)"/>
<path d="M0,0 L11,2 L11,4 L9,4 L9,6 L15,7 L15,9 L4,8 L0,7 L1,3 Z " fill="#8A9B9F" transform="translate(45,68)"/>
<path d="M0,0 L10,0 L10,4 L7,4 L7,2 L3,2 L5,7 L5,10 L8,11 L2,11 L0,10 L0,6 L-2,5 L-1,1 Z " fill="#0F1317" transform="translate(15,65)"/>
<path d="M0,0 L7,1 L8,4 L10,5 L11,1 L12,8 L10,8 L9,15 L6,14 L6,11 L4,10 L4,8 L6,8 L6,3 L3,3 L3,1 L1,1 L1,5 L-2,4 L0,4 Z " fill="#252728" transform="translate(5,6)"/>
<path d="M0,0 L3,0 L4,3 L6,4 L5,8 L0,10 L-1,14 L-6,12 L-3,10 L-6,9 L-6,6 L-4,6 L-4,8 L-2,8 L-1,4 Z " fill="#141C1F" transform="translate(36,43)"/>
<path d="M0,0 L8,0 L7,2 L4,3 L8,4 L7,9 L-1,9 L-1,7 L1,7 L-1,3 Z " fill="#262B2C" transform="translate(60,14)"/>
<path d="M0,0 L2,1 L2,3 L4,3 L3,8 L1,12 L-5,11 L-5,5 L-1,4 Z " fill="#667F85" transform="translate(26,6)"/>
<path d="M0,0 L12,0 L12,5 L0,5 Z " fill="#050A11" transform="translate(0,76)"/>
<path d="M0,0 L1,0 L1,8 L0,12 L2,13 L2,17 L0,19 L0,21 L-5,21 L-4,14 L-2,14 L-3,7 L0,7 Z " fill="#474D47" transform="translate(19,0)"/>
<path d="M0,0 L4,0 L4,5 L-6,6 L-6,8 L-12,8 L-12,6 L-4,2 L0,2 Z " fill="#65777E" transform="translate(112,74)"/>
<path d="M0,0 L7,0 L12,1 L12,4 L20,6 L20,7 L4,7 L4,5 L9,4 L0,2 Z " fill="#7B8D95" transform="translate(44,77)"/>
<path d="M0,0 L6,0 L6,7 L2,7 L2,11 L-1,10 L-1,3 Z " fill="#65828D" transform="translate(13,0)"/>
<path d="M0,0 L4,1 L10,4 L9,7 L1,7 L-1,2 L-2,4 L-4,3 L-4,1 Z " fill="#01080C" transform="translate(7,52)"/>
<path d="M0,0 L3,0 L3,11 L0,11 L0,9 L-2,9 L-3,7 L-5,10 L-5,4 L-3,2 L-3,4 L0,4 Z " fill="#47615F" transform="translate(30,0)"/>
<path d="M0,0 L16,0 L12,2 L5,6 L0,5 Z " fill="#091716" transform="translate(40,0)"/>
<path d="M0,0 L4,0 L4,5 L2,5 L2,8 L-5,11 L-6,8 L-5,4 L0,3 Z " fill="#585356" transform="translate(146,69)"/>
<path d="M0,0 L3,1 L3,5 L7,6 L3,6 L3,8 L5,8 L5,11 L7,11 L7,13 L2,14 L0,11 Z " fill="#445658" transform="translate(0,47)"/>
<path d="M0,0 L1,3 L3,4 L2,7 L6,9 L7,11 L4,12 L1,9 L-9,9 L-9,7 L-4,6 L-3,3 L0,3 Z " fill="#0D0909" transform="translate(127,69)"/>
<path d="M0,0 L8,0 L15,2 L16,5 L10,6 L6,4 L0,3 Z " fill="#49484D" transform="translate(29,78)"/>
<path d="M0,0 L2,3 L2,10 L-3,17 L-4,14 L-4,4 L-1,4 Z " fill="#060D13" transform="translate(28,14)"/>
<path d="M0,0 L5,0 L5,4 L1,4 L1,7 L-4,8 L-5,10 L-6,5 L-5,3 L0,3 Z " fill="#0E0D0F" transform="translate(145,65)"/>
<path d="M0,0 L4,1 L4,3 L2,3 L2,5 L-1,5 L-1,10 L-6,10 L-6,4 L-3,4 L-3,2 Z " fill="#0C0F17" transform="translate(6,29)"/>
<path d="M0,0 L7,0 L10,0 L18,2 L17,4 L12,4 L12,6 L8,5 L3,3 L3,1 Z " fill="#090E16" transform="translate(27,55)"/>
<path d="M0,0 L7,1 L10,4 L15,5 L15,9 L10,7 L2,4 Z " fill="#555A61" transform="translate(27,57)"/>
<path d="M0,0 L4,0 L2,5 L-3,9 L-7,9 L-7,5 L-3,4 L-3,2 L0,2 Z " fill="#546363" transform="translate(39,18)"/>
<path d="M0,0 L14,1 L17,4 L11,4 L11,6 L4,6 L3,4 L7,4 L7,2 L0,1 Z " fill="#1D2930" transform="translate(37,78)"/>
<path d="M0,0 L4,0 L4,3 L2,3 L1,5 L-2,5 L-2,7 L-12,7 L-12,4 L0,4 Z " fill="#101922" transform="translate(12,77)"/>
<path d="M0,0 L6,0 L6,3 L8,4 L8,6 L3,7 L-5,7 L-3,5 L1,4 Z " fill="#3F4445" transform="translate(65,0)"/>
<path d="M0,0 L3,0 L4,13 L-3,12 L0,11 Z " fill="#081110" transform="translate(33,0)"/>
<path d="M0,0 L5,1 L3,2 L3,7 L-3,7 L-4,2 Z " fill="#0E1415" transform="translate(96,77)"/>
<path d="M0,0 L7,0 L8,3 L3,3 L3,5 L-1,6 L-2,8 L-6,7 L-5,4 L0,2 Z " fill="#14181A" transform="translate(104,64)"/>
<path d="M0,0 L5,1 L5,4 L2,6 L-6,6 L-8,3 L-2,2 L0,3 Z " fill="#111319" transform="translate(77,78)"/>
<path d="M0,0 L9,0 L9,7 L6,4 L4,6 L1,6 Z " fill="#6C7B83" transform="translate(19,42)"/>
<path d="M0,0 L7,0 L8,2 L7,5 L4,5 L4,7 L1,7 L1,5 L3,5 L3,3 L-4,3 L0,2 Z " fill="#4F5C5E" transform="translate(53,67)"/>
<path d="M0,0 L1,4 L8,4 L6,6 L-1,7 L-7,7 L-7,4 L0,4 Z " fill="#3E4246" transform="translate(97,62)"/>
<path d="M0,0 L2,1 L3,7 L1,7 L0,12 L-2,14 L-2,2 L0,2 Z " fill="#1B2630" transform="translate(2,11)"/>
<path d="M0,0 L5,2 L7,9 L3,10 L3,4 L-1,4 Z " fill="#A2AFB6" transform="translate(15,50)"/>
<path d="M0,0 L3,3 L2,9 L-5,10 L-3,5 L0,5 Z " fill="#030303" transform="translate(20,17)"/>
<path d="M0,0 L4,2 L4,4 L2,4 L2,6 L4,7 L-3,8 L-4,6 L-2,6 L-1,1 Z M4,5 Z " fill="#010303" transform="translate(29,69)"/>
<path d="M0,0 L3,0 L3,3 L1,3 L0,8 L-6,8 L-6,4 L-1,3 Z " fill="#494E55" transform="translate(6,35)"/>
<path d="M0,0 L6,0 L6,6 L0,5 L-1,1 Z " fill="#02070D" transform="translate(61,78)"/>
<path d="M0,0 L3,0 L3,3 L9,2 L11,6 L3,6 L0,2 Z " fill="#BEC3C6" transform="translate(30,66)"/>
<path d="M0,0 L8,1 L7,4 L5,8 L0,7 L-1,5 L3,4 L2,1 Z " fill="#2F3538" transform="translate(37,67)"/>
<path d="M0,0 L2,2 L1,4 L7,3 L8,5 L-5,5 L-6,2 Z " fill="#000101" transform="translate(25,79)"/>
<path d="M0,0 L7,0 L7,4 L12,6 L9,7 L1,3 Z " fill="#919FA6" transform="translate(8,71)"/>
<path d="M0,0 L2,0 L3,4 L-6,3 L-6,5 L-13,4 L-11,3 L-11,1 L-1,1 Z " fill="#0F171E" transform="translate(59,64)"/>
<path d="M0,0 L4,0 L4,2 L9,2 L9,4 L3,3 L3,5 L-1,6 L-2,2 Z " fill="#7D858C" transform="translate(13,35)"/>
<path d="M0,0 L6,0 L6,3 L1,5 L-3,4 L-3,1 Z " fill="#181A1D" transform="translate(93,74)"/>
<path d="M0,0 L3,1 L3,7 L-4,6 L-4,4 L-2,4 L-2,1 Z " fill="#1B2021" transform="translate(142,58)"/>
<path d="M0,0 L2,0 L5,7 L5,11 L2,10 L1,5 L-1,5 Z " fill="#7C8790" transform="translate(7,38)"/>
<path d="M0,0 L4,1 L3,3 L-4,4 L-9,6 L-12,6 L-12,4 L-7,2 Z " fill="#8B989B" transform="translate(50,4)"/>
<path d="M0,0 L4,1 L4,5 L-4,5 L-3,1 Z " fill="#222A2E" transform="translate(7,65)"/>
<path d="M0,0 L2,0 L2,2 L5,2 L4,6 L7,7 L5,7 L5,9 L7,10 L4,11 L4,9 L-1,9 L3,8 L1,3 L-1,1 Z " fill="#353537" transform="translate(18,28)"/>
<path d="M0,0 L1,4 L11,4 L10,7 L0,5 L0,7 L-2,7 L-2,1 Z M11,3 Z " fill="#0B1211" transform="translate(60,9)"/>
<path d="M0,0 L3,0 L3,2 L1,3 L1,5 L3,6 L3,8 L-4,6 L-4,2 Z " fill="#0B1A19" transform="translate(109,7)"/>
<path d="M0,0 L2,0 L2,3 L8,3 L4,5 L-4,8 L-2,3 Z " fill="#000404" transform="translate(28,25)"/>
<path d="M0,0 L7,0 L7,4 L3,4 L2,10 L1,10 Z " fill="#0B0905" transform="translate(23,0)"/>
<path d="M0,0 L4,1 L5,6 L-4,5 L-2,1 Z M0,2 Z " fill="#111414" transform="translate(33,72)"/>
<path d="M0,0 L1,4 L8,4 L8,7 L2,7 L2,5 L-2,5 L-2,2 L0,2 Z " fill="#34363A" transform="translate(142,13)"/>
<path d="M0,0 L4,0 L3,7 L-3,6 L-3,4 L0,4 Z " fill="#767E86" transform="translate(9,0)"/>
<path d="M0,0 L6,0 L6,4 L3,4 L3,6 L0,6 Z " fill="#96A3AC" transform="translate(3,0)"/>
<path d="M0,0 L5,1 L7,3 L0,3 L0,5 L-5,5 L-5,3 L0,2 Z " fill="#8E9095" transform="translate(118,79)"/>
<path d="M0,0 L2,1 L4,5 L2,7 L-1,5 L-1,8 L-3,8 L-3,3 L-1,3 Z " fill="#2A2C2F" transform="translate(139,76)"/>
<path d="M0,0 L1,0 L2,7 L-1,8 L-8,8 L-8,6 L-1,4 Z " fill="#5D6872" transform="translate(116,74)"/>
<path d="M0,0 L16,1 L16,2 L9,4 L4,4 L3,2 Z " fill="#5A686F" transform="translate(57,74)"/>
<path d="M0,0 L7,1 L3,3 L6,4 L3,5 L-2,5 L-2,1 Z " fill="#65767F" transform="translate(47,61)"/>
<path d="M0,0 L2,4 L0,4 L-1,7 L-3,7 L-3,9 L-6,9 L-6,7 L-4,7 L-3,3 Z " fill="#141013" transform="translate(12,19)"/>
<path d="M0,0 L5,0 L5,5 L-1,5 Z " fill="#02060F" transform="translate(145,11)"/>
<path d="M0,0 L5,0 L5,4 L1,6 L-4,6 L-1,5 Z " fill="#202325" transform="translate(97,60)"/>
<path d="M0,0 L8,3 L6,4 L6,9 L4,6 L0,5 Z " fill="#090B0D" transform="translate(28,60)"/>
<path d="M0,0 L1,0 L1,7 L-1,7 L-2,9 L-3,7 L-5,10 L-5,4 L-3,2 L-3,4 L0,4 Z " fill="#47504C" transform="translate(30,0)"/>
<path d="M0,0 L7,0 L7,2 L9,3 L-6,3 L-2,1 L0,2 Z " fill="#080C0F" transform="translate(107,67)"/>
<path d="M0,0 L5,0 L5,4 L2,4 L2,2 L-2,2 L-3,5 L-4,1 Z " fill="#242C2E" transform="translate(20,65)"/>
<path d="M0,0 L2,1 L2,3 L6,2 L6,5 L11,5 L11,6 L0,6 Z " fill="#2D3537" transform="translate(0,58)"/>
<path d="M0,0 L9,2 L9,4 L2,5 L-1,3 Z " fill="#24292A" transform="translate(40,26)"/>
<path d="M0,0 L7,0 L7,1 L0,3 L-6,4 L-6,6 L-10,5 L-10,3 L-1,1 Z " fill="#4D5A59" transform="translate(46,7)"/>
<path d="M0,0 L3,0 L3,4 L-7,4 L-7,2 L0,2 Z " fill="#302F2F" transform="translate(125,80)"/>
<path d="M0,0 L2,0 L3,4 L2,6 L-4,6 L-5,4 L-1,4 Z " fill="#0C0C0D" transform="translate(83,78)"/>
<path d="M0,0 L3,0 L3,2 L7,4 L0,7 L-1,4 Z " fill="#413E42" transform="translate(141,73)"/>
<path d="M0,0 L5,0 L5,2 L0,2 L0,4 L-4,4 L-5,6 L-5,2 Z " fill="#969A9C" transform="translate(140,66)"/>
<path d="M0,0 L4,0 L4,3 L7,4 L6,5 L1,5 L-2,3 L-1,1 Z " fill="#2D3A43" transform="translate(52,61)"/>
<path d="M0,0 L2,0 L2,6 L-5,5 L-3,1 Z " fill="#0B1816" transform="translate(45,20)"/>
<path d="M0,0 L5,0 L5,4 L1,4 L1,7 L-1,6 Z " fill="#2E282D" transform="translate(145,65)"/>
<path d="M0,0 L3,0 L2,4 L-2,5 L-2,7 L-5,6 L-4,4 L-2,4 Z " fill="#ACB7BA" transform="translate(142,54)"/>
<path d="M0,0 L2,3 L0,8 L-2,8 L-3,10 L-4,4 L-1,4 Z " fill="#091016" transform="translate(28,14)"/>
<path d="M0,0 L5,1 L5,3 L2,4 L3,6 L-1,6 L-1,1 Z " fill="#747D86" transform="translate(68,78)"/>
<path d="M0,0 L3,0 L3,2 L9,2 L9,5 L5,5 L5,3 L-1,3 L-2,1 Z " fill="#2B333C" transform="translate(68,76)"/>
<path d="M0,0 L5,1 L6,6 L5,9 L3,8 L2,2 Z " fill="#5C676E" transform="translate(18,51)"/>
<path d="M0,0 L3,1 L4,5 L2,5 L2,7 L-2,9 Z " fill="#091116" transform="translate(34,38)"/>
<path d="M0,0 L2,0 L2,8 L-1,8 L-1,1 Z " fill="#4D4C50" transform="translate(146,28)"/>
<path d="M0,0 L4,2 L5,6 L1,7 Z " fill="#0E1014" transform="translate(135,12)"/>
<path d="M0,0 L4,0 L4,6 L0,5 Z " fill="#030B09" transform="translate(40,0)"/>
<path d="M0,0 L2,0 L2,5 L-5,5 L-5,2 L-1,2 Z " fill="#040405" transform="translate(143,79)"/>
<path d="M0,0 L4,1 L6,2 L6,4 L1,5 L-1,1 Z " fill="#B2BFC3" transform="translate(1,56)"/>
<path d="M0,0 L2,0 L2,6 L-1,8 L-3,6 L-1,6 L-1,1 Z " fill="#020405" transform="translate(135,53)"/>
<path d="M0,0 L2,0 L2,2 L6,2 L6,8 L0,6 L3,4 L0,3 Z " fill="#1E2A34" transform="translate(30,49)"/>
<path d="M0,0 L4,1 L7,3 L1,3 L-1,2 L-2,4 L-4,3 L-4,1 Z M0,3 Z " fill="#081619" transform="translate(7,52)"/>
<path d="M0,0 L5,2 L4,8 L0,7 L2,6 L3,3 L0,2 Z " fill="#080F10" transform="translate(39,44)"/>
<path d="M0,0 L2,3 L2,5 L-7,5 L-8,3 L-2,3 L-2,1 Z " fill="#1E1F21" transform="translate(19,31)"/>
<path d="M0,0 L5,2 L3,6 L0,5 L1,3 L-3,2 L0,2 Z " fill="#374342" transform="translate(42,15)"/>
<path d="M0,0 L2,1 L-2,5 L-3,8 L-6,5 L-5,2 Z " fill="#101E1D" transform="translate(47,8)"/>
<path d="M0,0 L4,1 L7,4 L7,6 L3,5 L0,2 Z " fill="#575E67" transform="translate(135,9)"/>
<path d="M0,0 L3,0 L3,2 L1,2 L1,4 L-5,4 L-5,2 Z " fill="#B7CED2" transform="translate(105,78)"/>
<path d="M0,0 L6,1 L5,4 L1,5 L-1,4 Z " fill="#01070E" transform="translate(36,51)"/>
<path d="M0,0 L3,0 L2,6 L4,7 L0,7 L-1,4 Z " fill="#272F32" transform="translate(36,43)"/>
<path d="M0,0 L3,0 L3,8 L1,8 Z " fill="#5E5F63" transform="translate(138,33)"/>
<path d="M0,0 L1,0 L1,6 L-4,6 L-4,3 Z " fill="#040913" transform="translate(4,33)"/>
<path d="M0,0 L4,1 L3,5 L-2,5 Z " fill="#95928B" transform="translate(16,16)"/>
<path d="M0,0 L4,1 L7,2 L7,4 L0,4 Z " fill="#323738" transform="translate(61,9)"/>
<path d="M0,0 L4,0 L5,5 L7,6 L3,5 L3,3 L0,3 Z " fill="#B4BCC0" transform="translate(18,67)"/>
<path d="M0,0 L5,0 L3,3 L-5,4 L-2,1 Z " fill="#6F7B7D" transform="translate(50,2)"/>
<path d="M0,0 L4,0 L4,4 L-1,4 Z " fill="#5D5C5F" transform="translate(146,61)"/>
<path d="M0,0 L1,2 L6,2 L6,5 L1,6 Z " fill="#2F3436" transform="translate(144,56)"/>
<path d="M0,0 L4,2 L5,5 L-2,4 Z " fill="#3E4E59" transform="translate(12,41)"/>
<path d="M0,0 L6,0 L7,2 L3,2 L3,4 L0,4 Z " fill="#53545B" transform="translate(0,29)"/>
<path d="M0,0 L2,0 L1,7 L-1,9 L-1,2 Z " fill="#0F1114" transform="translate(1,16)"/>
<path d="M0,0 L5,0 L8,4 L5,5 Z " fill="#0B1926" transform="translate(126,76)"/>
<path d="M0,0 L12,0 L10,1 L10,3 L7,3 L7,1 L0,1 Z " fill="#0D171E" transform="translate(0,76)"/>
<path d="M0,0 L5,1 L4,4 L0,4 Z " fill="#85949C" transform="translate(0,70)"/>
<path d="M0,0 L6,0 L6,3 L-2,3 L0,2 Z " fill="#343E46" transform="translate(39,59)"/>
<path d="M0,0 L1,0 L1,5 L4,5 L4,7 L-1,7 Z " fill="#4C484C" transform="translate(2,21)"/>
<path d="M0,0 L4,0 L3,4 L-2,4 L-2,2 L0,2 Z " fill="#747E7F" transform="translate(39,18)"/>
<path d="M0,0 L1,0 L1,5 L-5,4 L-4,2 Z " fill="#171F2A" transform="translate(66,79)"/>
<path d="M0,0 L9,0 L9,1 L4,1 L4,3 L0,3 Z " fill="#66767F" transform="translate(0,81)"/>
<path d="M0,0 L3,2 L-1,2 L-1,4 L-5,4 L-5,1 Z " fill="#0D161F" transform="translate(113,72)"/>
<path d="M0,0 L3,1 L4,4 L3,6 L0,6 Z " fill="#545B61" transform="translate(0,64)"/>
<path d="M0,0 L2,0 L2,4 L-3,4 L-3,1 Z " fill="#040908" transform="translate(134,63)"/>
<path d="M0,0 L3,4 L3,6 L-1,6 L-1,1 Z " fill="#9CB5B9" transform="translate(4,46)"/>
<path d="M0,0 L4,1 L3,5 L-1,3 Z " fill="#557F88" transform="translate(24,13)"/>
<path d="M0,0 L8,1 L8,4 L2,2 Z " fill="#617070" transform="translate(105,0)"/>
<path d="M0,0 L5,0 L5,4 L1,3 Z " fill="#36474C" transform="translate(16,77)"/>
<path d="M0,0 L1,4 L-4,3 L-5,1 Z " fill="#4A5053" transform="translate(41,71)"/>
<path d="M0,0 L1,0 L1,5 L-4,5 L-3,2 L0,2 Z " fill="#060706" transform="translate(133,70)"/>
<path d="M0,0 L7,0 L7,2 L2,3 Z " fill="#C8D7D9" transform="translate(49,70)"/>
<path d="M0,0 L5,0 L6,3 L0,3 Z " fill="#3C3D41" transform="translate(106,64)"/>
<path d="M0,0 L6,0 L6,4 L1,2 Z " fill="#7D8388" transform="translate(36,62)"/>
<path d="M0,0 L6,0 L6,2 L0,3 Z " fill="#17252D" transform="translate(45,57)"/>
<path d="M0,0 L2,0 L2,2 L4,2 L4,6 L1,5 Z " fill="#AEBDC4" transform="translate(8,43)"/>
<path d="M0,0 L3,1 L1,1 L2,6 L0,7 L-2,2 L0,2 Z " fill="#1D2932" transform="translate(16,38)"/>
<path d="M0,0 L3,1 L2,3 L5,4 L4,6 L1,6 Z " fill="#909EAB" transform="translate(19,42)"/>
<path d="M0,0 L1,0 L1,5 L-2,5 L-2,7 L-5,6 L-5,4 L0,4 L-1,1 Z " fill="#272829" transform="translate(19,17)"/>
<path d="M0,0 L3,3 L3,7 L0,6 Z " fill="#07090A" transform="translate(20,17)"/>
<path d="M0,0 L2,4 L2,7 L0,7 L-1,11 Z " fill="#14130E" transform="translate(15,7)"/>
<path d="M0,0 L2,0 L2,6 L-1,7 Z " fill="#B2C2CA" transform="translate(13,0)"/>
<path d="M0,0 L3,1 L2,4 L-6,3 L-6,2 L0,2 Z " fill="#040712" transform="translate(77,75)"/>
<path d="M0,0 L6,0 L6,2 L1,3 Z " fill="#030606" transform="translate(37,75)"/>
<path d="M0,0 L2,0 L6,5 L1,5 Z " fill="#475055" transform="translate(19,70)"/>
<path d="M0,0 L1,3 L3,4 L2,7 L-1,6 Z " fill="#181712" transform="translate(127,69)"/>
<path d="M0,0 L4,0 L3,4 L0,4 Z " fill="#363F3C" transform="translate(128,68)"/>
<path d="M0,0 L3,1 L1,1 L2,5 L-2,6 L-1,1 Z " fill="#060F12" transform="translate(15,65)"/>
<path d="M0,0 L4,1 L4,6 L1,5 Z " fill="#121A21" transform="translate(41,61)"/>
<path d="M0,0 L3,2 L0,3 L-1,6 L-2,6 L-2,1 Z " fill="#45494C" transform="translate(36,63)"/>
<path d="M0,0 L4,1 L3,3 L-3,4 L-1,3 Z " fill="#0E1013" transform="translate(93,60)"/>
<path d="M0,0 L2,0 L2,2 L6,3 L6,4 L0,4 Z " fill="#7B8A93" transform="translate(28,50)"/>
<path d="M0,0 L2,0 L2,2 L5,2 L3,6 L-1,1 Z " fill="#636265" transform="translate(18,28)"/>
<path d="M0,0 L1,0 L3,7 L-1,7 Z " fill="#89878B" transform="translate(4,19)"/>
<path d="M0,0 L4,0 L4,5 L2,5 Z " fill="#767679" transform="translate(130,16)"/>
<path d="M0,0 L5,1 L7,2 L7,4 L0,2 Z " fill="#202A2F" transform="translate(105,11)"/>
<path d="M0,0 L2,0 L2,4 L-3,4 L-3,2 L0,2 Z " fill="#353035" transform="translate(148,80)"/>
<path d="M0,0 L2,0 L2,3 L-4,3 L-4,1 Z " fill="#141E24" transform="translate(112,79)"/>
<path d="M0,0 L8,0 L9,3 L0,1 Z " fill="#565B63" transform="translate(36,80)"/>
<path d="M0,0 L3,0 L4,6 L0,2 Z " fill="#979A9E" transform="translate(30,66)"/>
<path d="M0,0 L2,1 L0,5 L-3,4 L-3,1 Z " fill="#43575F" transform="translate(14,49)"/>
<path d="M0,0 L3,4 L3,6 L-2,6 Z " fill="#283945" transform="translate(24,43)"/>
<path d="M0,0 L6,0 L3,2 L-2,3 L-2,1 Z " fill="#0A0D0E" transform="translate(59,23)"/>
<path d="M0,0 L4,0 L4,4 L0,4 Z " fill="#2F3536" transform="translate(62,18)"/>
<path d="M0,0 L3,1 L1,5 L-1,5 Z " fill="#ABCFD5" transform="translate(22,12)"/>
<path d="M0,0 L2,0 L4,4 L-4,3 L-4,1 Z " fill="#80A1A8" transform="translate(25,10)"/>
<path d="M0,0 L4,0 L4,4 L1,4 Z " fill="#0F130D" transform="translate(26,0)"/>
<path d="M0,0 L4,0 L4,2 L0,4 L0,2 L-2,1 Z " fill="#99A8AE" transform="translate(108,76)"/>
<path d="M0,0 L2,0 L2,5 L-2,4 L0,3 Z " fill="#0A080B" transform="translate(148,74)"/>
<path d="M0,0 L2,1 L2,7 L0,6 L1,4 L-1,4 Z " fill="#162627" transform="translate(6,54)"/>
<path d="M0,0 L5,1 L5,4 L3,4 L3,2 L0,2 Z " fill="#2D2F32" transform="translate(122,54)"/>
<path d="M0,0 L3,0 L3,4 L0,5 Z " fill="#323236" transform="translate(145,24)"/>
<path d="M0,0 L2,0 L2,5 L-1,4 Z " fill="#798087" transform="translate(13,6)"/>
<path d="M0,0 L5,0 L5,2 L0,4 Z " fill="#B7C4CB" transform="translate(4,0)"/>
<path d="M0,0 L2,0 L2,5 L-1,4 Z " fill="#91A2AB" transform="translate(114,74)"/>
<path d="M0,0 L4,1 L5,4 L0,2 Z " fill="#9AABAF" transform="translate(45,68)"/>
<path d="M0,0 L4,0 L4,3 L0,3 Z " fill="#171215" transform="translate(146,65)"/>
<path d="M0,0 L2,0 L1,3 L-2,4 L-2,2 L-4,1 Z " fill="#11161E" transform="translate(88,60)"/>
<path d="M0,0 L2,0 L0,6 L-2,6 Z " fill="#5D6B72" transform="translate(34,45)"/>
<path d="M0,0 L3,0 L3,3 L1,3 L0,5 L-1,3 Z " fill="#3F4751" transform="translate(6,35)"/>
<path d="M0,0 L4,2 L3,4 L-1,3 Z " fill="#3D4A4A" transform="translate(40,26)"/>
<path d="M0,0 L2,3 L0,6 L-2,6 Z " fill="#18202B" transform="translate(28,14)"/>
<path d="M0,0 L3,0 L3,4 L1,4 L1,2 L-1,1 Z " fill="#21333F" transform="translate(132,80)"/>
<path d="M0,0 L2,0 L2,4 L-1,4 Z " fill="#000103" transform="translate(96,80)"/>
<path d="M0,0 L3,0 L4,3 L-1,3 Z " fill="#313436" transform="translate(136,70)"/>
<path d="M0,0 L3,2 L-2,5 L-1,1 Z " fill="#090A0C" transform="translate(29,69)"/>
<path d="M0,0 L4,1 L2,2 L2,4 L0,4 Z " fill="#091112" transform="translate(23,61)"/>
<path d="M0,0 L4,1 L4,3 L0,3 Z " fill="#2E3B3C" transform="translate(19,60)"/>
<path d="M0,0 L2,0 L2,5 L0,5 L-1,2 Z " fill="#29363F" transform="translate(24,50)"/>
<path d="M0,0 L4,0 L3,3 L0,3 Z " fill="#7B848D" transform="translate(0,43)"/>
<path d="M0,0 L2,0 L3,5 L1,5 Z " fill="#101821" transform="translate(9,37)"/>
<path d="M0,0 L3,0 L2,4 L0,4 Z " fill="#575D64" transform="translate(10,0)"/>
<path d="M0,0 L4,1 L4,3 L0,3 Z " fill="#5D6F7B" transform="translate(129,81)"/>
<path d="M0,0 L2,1 L2,4 L-2,3 Z " fill="#050E19" transform="translate(57,78)"/>
<path d="M0,0 L4,1 L3,3 L0,3 Z " fill="#414246" transform="translate(91,76)"/>
<path d="M0,0 L3,0 L1,4 L-1,1 Z " fill="#5F5F63" transform="translate(141,76)"/>
<path d="M0,0 L3,0 L4,3 L0,3 Z " fill="#85888B" transform="translate(36,68)"/>
<path d="M0,0 L3,0 L2,4 L0,3 Z " fill="#80878B" transform="translate(23,69)"/>
<path d="M0,0 L2,0 L0,4 L-2,3 L-2,1 Z " fill="#030A12" transform="translate(79,60)"/>
<path d="M0,0 L1,0 L2,6 L0,7 L-2,5 L0,5 Z " fill="#0F1516" transform="translate(134,54)"/>
<path d="M0,0 L3,1 L1,4 L-1,3 Z " fill="#5B6872" transform="translate(22,42)"/>
<path d="M0,0 L3,3 L2,5 L0,4 L-1,2 Z " fill="#2D2E31" transform="translate(12,27)"/>
<path d="M0,0 L3,1 L2,4 L-1,3 Z " fill="#58575B" transform="translate(12,23)"/>
<path d="M0,0 L4,0 L4,3 L0,1 Z " fill="#3E444B" transform="translate(69,81)"/>
<path d="M0,0 L1,3 L-2,4 L-2,1 Z " fill="#33393B" transform="translate(101,73)"/>
<path d="M0,0 L3,0 L3,3 L0,3 Z " fill="#CCD1D3" transform="translate(18,67)"/>
<path d="M0,0 L2,1 L2,3 L-4,2 Z " fill="#091715" transform="translate(36,28)"/>
<path d="M0,0 L3,1 L0,5 Z " fill="#45454A" transform="translate(134,16)"/>
<path d="M0,0 L2,0 L1,4 L-1,2 Z " fill="#3E505A" transform="translate(54,78)"/>
<path d="M0,0 L3,0 L2,3 L0,3 Z " fill="#060A0D" transform="translate(108,73)"/>
<path d="M0,0 L3,3 L-1,3 Z " fill="#131F29" transform="translate(63,72)"/>
<path d="M0,0 L2,1 L1,4 L-2,1 Z " fill="#04080F" transform="translate(116,71)"/>
<path d="M0,0 L4,2 L1,3 L-1,1 Z " fill="#28323A" transform="translate(61,68)"/>
<path d="M0,0 L2,2 L-3,3 Z " fill="#3F484C" transform="translate(59,67)"/>
<path d="M0,0 L3,1 L2,3 L-1,2 Z " fill="#050E18" transform="translate(67,64)"/>
<path d="M0,0 L4,2 L1,3 Z " fill="#C6D0D1" transform="translate(25,64)"/>
<path d="M0,0 L4,2 L1,3 Z " fill="#929A9E" transform="translate(30,58)"/>
<path d="M0,0 L3,0 L3,3 L0,2 Z " fill="#6F7477" transform="translate(27,57)"/>
<path d="M0,0 L3,1 L2,3 L0,3 Z " fill="#505356" transform="translate(0,64)"/>
<path d="M0,0 L2,0 L2,3 L-1,2 Z " fill="#161E29" transform="translate(22,49)"/>
<path d="M0,0 L3,1 L2,3 L0,3 Z " fill="#AFC4CA" transform="translate(21,45)"/>
<path d="M0,0 L3,1 L3,3 L0,2 Z " fill="#21312F" transform="translate(49,15)"/>
</svg>
