<?xml version="1.0" encoding="UTF-8"?>
<svg xmlns="http://www.w3.org/2000/svg" viewBox="0 0 320 320" width="128" height="128">
  <style>rect{shape-rendering:crispEdges}</style>
  <g fill="#052716">
    <rect x="130" y="0" width="10" height="10"/>
    <rect x="230" y="30" width="10" height="10"/>
    <rect x="140" y="50" width="10" height="10"/>
    <rect x="90" y="100" width="10" height="10"/>
    <rect x="20" y="110" width="10" height="10"/>
    <rect x="250" y="130" width="10" height="10"/>
    <rect x="40" y="140" width="10" height="10"/>
    <rect x="250" y="170" width="10" height="10"/>
    <rect x="170" y="280" width="10" height="10"/>
  </g>
  <g fill="#05351d">
    <rect x="150" y="0" width="10" height="10"/>
    <rect x="100" y="10" width="80" height="10"/>
    <rect x="190" y="10" width="20" height="10"/>
    <rect x="90" y="20" width="40" height="10"/>
    <rect x="140" y="20" width="10" height="10"/>
    <rect x="170" y="20" width="40" height="10"/>
    <rect x="80" y="30" width="20" height="10"/>
    <rect x="180" y="30" width="20" height="10"/>
    <rect x="210" y="30" width="20" height="10"/>
    <rect x="80" y="40" width="10" height="10"/>
    <rect x="180" y="40" width="20" height="10"/>
    <rect x="230" y="40" width="10" height="10"/>
    <rect x="70" y="50" width="20" height="10"/>
    <rect x="170" y="50" width="20" height="10"/>
    <rect x="240" y="50" width="20" height="10"/>
    <rect x="70" y="60" width="10" height="10"/>
    <rect x="130" y="60" width="10" height="10"/>
    <rect x="170" y="60" width="10" height="10"/>
    <rect x="230" y="60" width="40" height="10"/>
    <rect x="60" y="70" width="10" height="10"/>
    <rect x="230" y="70" width="10" height="10"/>
    <rect x="50" y="80" width="10" height="10"/>
    <rect x="220" y="80" width="20" height="10"/>
    <rect x="260" y="80" width="10" height="10"/>
    <rect x="40" y="90" width="20" height="10"/>
    <rect x="100" y="90" width="10" height="10"/>
    <rect x="210" y="90" width="40" height="10"/>
    <rect x="260" y="90" width="10" height="10"/>
    <rect x="30" y="100" width="20" height="10"/>
    <rect x="100" y="100" width="10" height="10"/>
    <rect x="220" y="100" width="20" height="10"/>
    <rect x="30" y="110" width="10" height="10"/>
    <rect x="90" y="110" width="10" height="10"/>
    <rect x="230" y="110" width="20" height="10"/>
    <rect x="20" y="120" width="10" height="10"/>
    <rect x="90" y="120" width="10" height="10"/>
    <rect x="20" y="130" width="10" height="10"/>
    <rect x="80" y="130" width="10" height="10"/>
    <rect x="70" y="140" width="10" height="10"/>
    <rect x="260" y="140" width="10" height="10"/>
    <rect x="60" y="150" width="10" height="10"/>
    <rect x="30" y="190" width="10" height="10"/>
    <rect x="220" y="190" width="20" height="10"/>
    <rect x="20" y="200" width="20" height="10"/>
    <rect x="220" y="200" width="10" height="10"/>
    <rect x="20" y="210" width="10" height="10"/>
    <rect x="210" y="210" width="10" height="10"/>
    <rect x="200" y="220" width="10" height="10"/>
    <rect x="190" y="230" width="20" height="10"/>
    <rect x="190" y="240" width="10" height="10"/>
    <rect x="190" y="250" width="10" height="10"/>
    <rect x="150" y="290" width="20" height="10"/>
    <rect x="150" y="300" width="10" height="10"/>
  </g>
  <g fill="#0a361c">
    <rect x="180" y="10" width="10" height="10"/>
    <rect x="240" y="40" width="10" height="10"/>
    <rect x="130" y="50" width="10" height="10"/>
    <rect x="60" y="60" width="10" height="10"/>
    <rect x="240" y="120" width="10" height="10"/>
    <rect x="210" y="220" width="10" height="10"/>
    <rect x="140" y="300" width="10" height="10"/>
  </g>
  <g fill="#042816">
    <rect x="130" y="20" width="10" height="10"/>
    <rect x="160" y="20" width="10" height="10"/>
    <rect x="90" y="40" width="10" height="10"/>
    <rect x="60" y="80" width="10" height="10"/>
    <rect x="40" y="110" width="10" height="10"/>
    <rect x="30" y="120" width="10" height="10"/>
  </g>
  <g fill="#010905">
    <rect x="150" y="20" width="10" height="10"/>
    <rect x="110" y="30" width="10" height="10"/>
    <rect x="80" y="60" width="10" height="10"/>
    <rect x="240" y="70" width="10" height="10"/>
    <rect x="250" y="80" width="10" height="10"/>
    <rect x="250" y="90" width="10" height="10"/>
    <rect x="50" y="100" width="10" height="10"/>
  </g>
  <g fill="#07361d">
    <rect x="210" y="20" width="10" height="10"/>
    <rect x="80" y="120" width="10" height="10"/>
    <rect x="260" y="150" width="10" height="10"/>
  </g>
  <g fill="#02120a">
    <rect x="100" y="30" width="10" height="10"/>
    <rect x="120" y="30" width="10" height="10"/>
    <rect x="170" y="30" width="10" height="10"/>
    <rect x="70" y="70" width="10" height="10"/>
    <rect x="260" y="70" width="10" height="10"/>
    <rect x="240" y="80" width="10" height="10"/>
    <rect x="270" y="80" width="10" height="10"/>
    <rect x="240" y="100" width="10" height="10"/>
  </g>
  <g fill="#000100">
    <rect x="130" y="30" width="10" height="10"/>
    <rect x="150" y="30" width="20" height="10"/>
    <rect x="100" y="40" width="10" height="10"/>
    <rect x="170" y="40" width="10" height="10"/>
    <rect x="90" y="50" width="20" height="10"/>
    <rect x="90" y="60" width="10" height="10"/>
    <rect x="80" y="70" width="10" height="10"/>
    <rect x="250" y="70" width="10" height="10"/>
    <rect x="270" y="70" width="20" height="10"/>
    <rect x="70" y="80" width="20" height="10"/>
    <rect x="280" y="80" width="20" height="10"/>
    <rect x="60" y="90" width="20" height="10"/>
    <rect x="270" y="90" width="20" height="10"/>
    <rect x="60" y="100" width="10" height="10"/>
    <rect x="250" y="100" width="10" height="10"/>
    <rect x="50" y="110" width="10" height="10"/>
    <rect x="40" y="120" width="20" height="10"/>
    <rect x="30" y="130" width="20" height="10"/>
  </g>
  <g fill="#000302">
    <rect x="140" y="30" width="10" height="10"/>
    <rect x="110" y="40" width="10" height="10"/>
    <rect x="130" y="40" width="10" height="10"/>
    <rect x="160" y="40" width="10" height="10"/>
    <rect x="60" y="110" width="10" height="10"/>
  </g>
  <g fill="#053a23">
    <rect x="200" y="30" width="10" height="10"/>
    <rect x="220" y="40" width="10" height="10"/>
    <rect x="220" y="70" width="10" height="10"/>
    <rect x="100" y="110" width="10" height="10"/>
    <rect x="70" y="150" width="10" height="10"/>
    <rect x="210" y="200" width="10" height="10"/>
  </g>
  <g fill="#03765d">
    <rect x="200" y="40" width="10" height="10"/>
    <rect x="220" y="60" width="10" height="10"/>
    <rect x="180" y="70" width="10" height="10"/>
    <rect x="160" y="80" width="10" height="10"/>
    <rect x="130" y="110" width="10" height="10"/>
    <rect x="150" y="110" width="10" height="10"/>
    <rect x="200" y="110" width="10" height="10"/>
    <rect x="100" y="120" width="10" height="10"/>
    <rect x="230" y="120" width="10" height="10"/>
    <rect x="70" y="160" width="10" height="10"/>
    <rect x="210" y="190" width="10" height="10"/>
    <rect x="160" y="230" width="10" height="10"/>
    <rect x="180" y="230" width="10" height="10"/>
    <rect x="130" y="260" width="10" height="10"/>
    <rect x="100" y="270" width="10" height="10"/>
  </g>
  <g fill="#087054">
    <rect x="210" y="40" width="10" height="10"/>
    <rect x="220" y="110" width="10" height="10"/>
    <rect x="190" y="220" width="10" height="10"/>
  </g>
  <g fill="#066049">
    <rect x="190" y="50" width="10" height="10"/>
    <rect x="140" y="60" width="20" height="10"/>
    <rect x="90" y="130" width="10" height="10"/>
    <rect x="220" y="180" width="10" height="10"/>
    <rect x="110" y="280" width="10" height="10"/>
    <rect x="140" y="290" width="10" height="10"/>
  </g>
  <g fill="#007760">
    <rect x="200" y="50" width="30" height="10"/>
    <rect x="190" y="60" width="30" height="10"/>
    <rect x="150" y="70" width="10" height="10"/>
    <rect x="190" y="70" width="30" height="10"/>
    <rect x="190" y="80" width="20" height="10"/>
    <rect x="160" y="100" width="20" height="10"/>
    <rect x="110" y="110" width="20" height="10"/>
    <rect x="160" y="110" width="30" height="10"/>
    <rect x="210" y="110" width="10" height="10"/>
    <rect x="110" y="120" width="30" height="10"/>
    <rect x="160" y="120" width="20" height="10"/>
    <rect x="220" y="120" width="10" height="10"/>
    <rect x="100" y="130" width="30" height="10"/>
    <rect x="230" y="130" width="10" height="10"/>
    <rect x="90" y="140" width="30" height="10"/>
    <rect x="80" y="150" width="40" height="10"/>
    <rect x="170" y="150" width="20" height="10"/>
    <rect x="80" y="160" width="30" height="10"/>
    <rect x="160" y="160" width="40" height="10"/>
    <rect x="80" y="170" width="20" height="10"/>
    <rect x="160" y="170" width="60" height="10"/>
    <rect x="150" y="180" width="70" height="10"/>
    <rect x="140" y="190" width="70" height="10"/>
    <rect x="90" y="200" width="20" height="10"/>
    <rect x="130" y="200" width="80" height="10"/>
    <rect x="80" y="210" width="40" height="10"/>
    <rect x="140" y="210" width="60" height="10"/>
    <rect x="90" y="220" width="20" height="10"/>
    <rect x="150" y="220" width="40" height="10"/>
    <rect x="170" y="230" width="10" height="10"/>
    <rect x="100" y="240" width="10" height="10"/>
    <rect x="100" y="250" width="20" height="10"/>
    <rect x="100" y="260" width="30" height="10"/>
    <rect x="110" y="270" width="40" height="10"/>
    <rect x="120" y="280" width="30" height="10"/>
  </g>
  <g fill="#034a33">
    <rect x="230" y="50" width="10" height="10"/>
    <rect x="180" y="60" width="10" height="10"/>
    <rect x="170" y="70" width="10" height="10"/>
    <rect x="210" y="80" width="10" height="10"/>
    <rect x="110" y="100" width="10" height="10"/>
    <rect x="210" y="100" width="10" height="10"/>
    <rect x="80" y="140" width="10" height="10"/>
    <rect x="250" y="140" width="10" height="10"/>
    <rect x="200" y="210" width="10" height="10"/>
    <rect x="180" y="240" width="10" height="10"/>
    <rect x="150" y="280" width="10" height="10"/>
  </g>
  <g fill="#1a4725">
    <rect x="120" y="60" width="10" height="10"/>
    <rect x="40" y="170" width="10" height="10"/>
    <rect x="80" y="260" width="10" height="10"/>
  </g>
  <g fill="#030706">
    <rect x="270" y="60" width="10" height="10"/>
    <rect x="90" y="70" width="10" height="10"/>
    <rect x="270" y="100" width="10" height="10"/>
    <rect x="250" y="110" width="10" height="10"/>
  </g>
  <g fill="#07351d">
    <rect x="50" y="70" width="10" height="10"/>
    <rect x="70" y="130" width="10" height="10"/>
    <rect x="220" y="210" width="10" height="10"/>
    <rect x="40" y="230" width="10" height="10"/>
  </g>
  <g fill="#765508">
    <rect x="120" y="70" width="10" height="10"/>
    <rect x="110" y="80" width="20" height="10"/>
    <rect x="240" y="160" width="20" height="10"/>
    <rect x="50" y="170" width="10" height="10"/>
    <rect x="240" y="170" width="10" height="10"/>
    <rect x="40" y="180" width="10" height="10"/>
    <rect x="170" y="260" width="20" height="10"/>
    <rect x="160" y="270" width="20" height="10"/>
  </g>
  <g fill="#916f07">
    <rect x="130" y="70" width="10" height="10"/>
    <rect x="60" y="170" width="10" height="10"/>
    <rect x="230" y="170" width="10" height="10"/>
    <rect x="50" y="180" width="10" height="10"/>
    <rect x="70" y="210" width="10" height="10"/>
    <rect x="170" y="250" width="10" height="10"/>
  </g>
  <g fill="#508539">
    <rect x="140" y="70" width="10" height="10"/>
    <rect x="120" y="100" width="10" height="10"/>
    <rect x="180" y="120" width="10" height="10"/>
    <rect x="210" y="120" width="10" height="10"/>
    <rect x="190" y="150" width="10" height="10"/>
    <rect x="100" y="230" width="10" height="10"/>
    <rect x="170" y="240" width="10" height="10"/>
  </g>
  <g fill="#017861">
    <rect x="160" y="70" width="10" height="10"/>
    <rect x="240" y="130" width="10" height="10"/>
    <rect x="150" y="170" width="10" height="10"/>
    <rect x="90" y="260" width="10" height="10"/>
    <rect x="130" y="290" width="10" height="10"/>
  </g>
  <g fill="#c69900">
    <rect x="130" y="80" width="20" height="10"/>
    <rect x="130" y="90" width="30" height="10"/>
    <rect x="130" y="100" width="20" height="10"/>
    <rect x="200" y="120" width="10" height="10"/>
    <rect x="190" y="130" width="20" height="10"/>
    <rect x="200" y="140" width="30" height="10"/>
    <rect x="210" y="150" width="30" height="10"/>
    <rect x="220" y="160" width="20" height="10"/>
    <rect x="60" y="180" width="20" height="10"/>
    <rect x="50" y="190" width="30" height="10"/>
    <rect x="60" y="200" width="20" height="10"/>
    <rect x="120" y="220" width="10" height="10"/>
    <rect x="120" y="230" width="30" height="10"/>
    <rect x="130" y="240" width="40" height="10"/>
    <rect x="130" y="250" width="40" height="10"/>
    <rect x="150" y="260" width="10" height="10"/>
  </g>
  <g fill="#939019">
    <rect x="150" y="80" width="10" height="10"/>
    <rect x="180" y="140" width="10" height="10"/>
    <rect x="220" y="170" width="10" height="10"/>
    <rect x="110" y="220" width="10" height="10"/>
  </g>
  <g fill="#92ea87">
    <rect x="170" y="80" width="10" height="10"/>
    <rect x="120" y="150" width="10" height="10"/>
    <rect x="120" y="200" width="10" height="10"/>
  </g>
  <g fill="#6ccb7c">
    <rect x="180" y="80" width="10" height="10"/>
    <rect x="100" y="190" width="10" height="10"/>
    <rect x="80" y="220" width="10" height="10"/>
    <rect x="60" y="230" width="10" height="10"/>
  </g>
  <g fill="#595212">
    <rect x="110" y="90" width="10" height="10"/>
    <rect x="240" y="180" width="10" height="10"/>
    <rect x="180" y="250" width="10" height="10"/>
  </g>
  <g fill="#b29208">
    <rect x="120" y="90" width="10" height="10"/>
    <rect x="150" y="100" width="10" height="10"/>
    <rect x="140" y="110" width="10" height="10"/>
    <rect x="230" y="140" width="10" height="10"/>
    <rect x="240" y="150" width="10" height="10"/>
    <rect x="210" y="160" width="10" height="10"/>
    <rect x="80" y="180" width="10" height="10"/>
    <rect x="120" y="210" width="10" height="10"/>
    <rect x="150" y="230" width="10" height="10"/>
    <rect x="140" y="260" width="10" height="10"/>
    <rect x="160" y="260" width="10" height="10"/>
  </g>
  <g fill="#718b2a">
    <rect x="160" y="90" width="10" height="10"/>
    <rect x="80" y="200" width="10" height="10"/>
    <rect x="140" y="220" width="10" height="10"/>
    <rect x="110" y="240" width="10" height="10"/>
    <rect x="150" y="270" width="10" height="10"/>
  </g>
  <g fill="#82dd83">
    <rect x="170" y="90" width="10" height="10"/>
    <rect x="160" y="130" width="10" height="10"/>
    <rect x="150" y="160" width="10" height="10"/>
  </g>
  <g fill="#acfe8e">
    <rect x="180" y="90" width="10" height="10"/>
    <rect x="190" y="100" width="10" height="10"/>
    <rect x="140" y="130" width="20" height="10"/>
    <rect x="130" y="140" width="40" height="10"/>
    <rect x="130" y="150" width="30" height="10"/>
    <rect x="120" y="160" width="30" height="10"/>
    <rect x="110" y="170" width="40" height="10"/>
    <rect x="100" y="180" width="40" height="10"/>
    <rect x="110" y="190" width="20" height="10"/>
    <rect x="70" y="230" width="20" height="10"/>
    <rect x="60" y="240" width="30" height="10"/>
    <rect x="80" y="250" width="10" height="10"/>
  </g>
  <g fill="#a4f78c">
    <rect x="190" y="90" width="10" height="10"/>
    <rect x="70" y="220" width="10" height="10"/>
    <rect x="90" y="230" width="10" height="10"/>
    <rect x="90" y="240" width="10" height="10"/>
  </g>
  <g fill="#0a7f63">
    <rect x="200" y="90" width="10" height="10"/>
    <rect x="200" y="100" width="10" height="10"/>
    <rect x="170" y="130" width="10" height="10"/>
    <rect x="120" y="140" width="10" height="10"/>
    <rect x="240" y="140" width="10" height="10"/>
    <rect x="90" y="180" width="10" height="10"/>
  </g>
  <g fill="#52a865">
    <rect x="180" y="100" width="10" height="10"/>
    <rect x="150" y="120" width="10" height="10"/>
    <rect x="160" y="150" width="10" height="10"/>
  </g>
  <g fill="#838e21">
    <rect x="190" y="110" width="10" height="10"/>
    <rect x="220" y="130" width="10" height="10"/>
    <rect x="70" y="170" width="10" height="10"/>
  </g>
  <rect fill="#7ad781" x="140" y="120" width="10" height="10"/>
  <g fill="#c79900">
    <rect x="190" y="120" width="10" height="10"/>
    <rect x="180" y="130" width="10" height="10"/>
    <rect x="210" y="130" width="10" height="10"/>
    <rect x="190" y="140" width="10" height="10"/>
    <rect x="200" y="150" width="10" height="10"/>
    <rect x="80" y="190" width="10" height="10"/>
    <rect x="130" y="220" width="10" height="10"/>
    <rect x="110" y="230" width="10" height="10"/>
    <rect x="120" y="240" width="10" height="10"/>
  </g>
  <g fill="#319563">
    <rect x="130" y="130" width="10" height="10"/>
    <rect x="100" y="170" width="10" height="10"/>
    <rect x="110" y="200" width="10" height="10"/>
  </g>
  <g fill="#158765">
    <rect x="170" y="140" width="10" height="10"/>
    <rect x="140" y="180" width="10" height="10"/>
    <rect x="90" y="250" width="10" height="10"/>
  </g>
  <g fill="#2e4f21">
    <rect x="250" y="150" width="10" height="10"/>
    <rect x="40" y="190" width="10" height="10"/>
  </g>
  <rect fill="#6e530c" x="50" y="160" width="10" height="10"/>
  <g fill="#27381d">
    <rect x="60" y="160" width="10" height="10"/>
    <rect x="230" y="180" width="10" height="10"/>
  </g>
  <g fill="#5cc079">
    <rect x="110" y="160" width="10" height="10"/>
    <rect x="130" y="190" width="10" height="10"/>
  </g>
  <g fill="#287e4d">
    <rect x="200" y="160" width="10" height="10"/>
    <rect x="90" y="190" width="10" height="10"/>
    <rect x="130" y="210" width="10" height="10"/>
    <rect x="120" y="250" width="10" height="10"/>
  </g>
  <g fill="#22292d">
    <rect x="40" y="200" width="10" height="10"/>
    <rect x="40" y="210" width="30" height="10"/>
    <rect x="30" y="220" width="40" height="10"/>
    <rect x="50" y="230" width="10" height="10"/>
  </g>
  <rect fill="#2b332f" x="50" y="200" width="10" height="10"/>
  <g fill="#143128">
    <rect x="30" y="210" width="10" height="10"/>
    <rect x="160" y="280" width="10" height="10"/>
  </g>
  <rect fill="#95db7e" x="70" y="250" width="10" height="10"/>
</svg>