<?xml version="1.0" encoding="UTF-8"?>
<svg xmlns="http://www.w3.org/2000/svg" viewBox="0 0 250 320" width="120" height="120">
  <style>rect{shape-rendering:crispEdges}</style>
  <g fill="#000102">
    <rect x="110" y="10" width="10" height="10"/>
    <rect x="80" y="60" width="10" height="10"/>
    <rect x="20" y="150" width="10" height="10"/>
    <rect x="140" y="160" width="10" height="10"/>
    <rect x="40" y="220" width="10" height="10"/>
    <rect x="50" y="280" width="10" height="10"/>
    <rect x="130" y="280" width="20" height="10"/>
    <rect x="140" y="290" width="10" height="10"/>
  </g>
  <g fill="#000000">
    <rect x="120" y="10" width="40" height="10"/>
    <rect x="80" y="50" width="10" height="10"/>
    <rect x="90" y="70" width="10" height="10"/>
    <rect x="160" y="70" width="10" height="10"/>
    <rect x="180" y="80" width="10" height="10"/>
    <rect x="200" y="80" width="10" height="10"/>
    <rect x="110" y="90" width="10" height="10"/>
    <rect x="110" y="100" width="10" height="10"/>
    <rect x="130" y="100" width="10" height="10"/>
    <rect x="180" y="110" width="10" height="10"/>
    <rect x="170" y="120" width="10" height="10"/>
    <rect x="50" y="130" width="10" height="10"/>
    <rect x="70" y="130" width="10" height="10"/>
    <rect x="30" y="150" width="10" height="10"/>
    <rect x="80" y="150" width="10" height="10"/>
    <rect x="120" y="150" width="10" height="10"/>
    <rect x="200" y="150" width="10" height="10"/>
    <rect x="30" y="160" width="10" height="10"/>
    <rect x="150" y="160" width="10" height="10"/>
    <rect x="210" y="160" width="10" height="10"/>
    <rect x="210" y="170" width="10" height="10"/>
    <rect x="40" y="180" width="20" height="10"/>
    <rect x="210" y="180" width="10" height="10"/>
    <rect x="30" y="190" width="10" height="10"/>
    <rect x="220" y="190" width="10" height="10"/>
    <rect x="220" y="200" width="10" height="10"/>
    <rect x="180" y="210" width="10" height="10"/>
    <rect x="220" y="210" width="10" height="10"/>
    <rect x="50" y="220" width="20" height="10"/>
    <rect x="80" y="220" width="10" height="10"/>
    <rect x="100" y="220" width="20" height="10"/>
    <rect x="140" y="220" width="10" height="10"/>
    <rect x="220" y="220" width="10" height="10"/>
    <rect x="170" y="230" width="10" height="10"/>
    <rect x="210" y="230" width="10" height="10"/>
    <rect x="170" y="240" width="10" height="10"/>
    <rect x="170" y="250" width="10" height="10"/>
    <rect x="170" y="260" width="10" height="10"/>
    <rect x="60" y="270" width="10" height="10"/>
    <rect x="200" y="270" width="10" height="10"/>
  </g>
  <g fill="#000002">
    <rect x="160" y="10" width="10" height="10"/>
    <rect x="150" y="50" width="10" height="10"/>
    <rect x="90" y="60" width="10" height="10"/>
    <rect x="190" y="70" width="10" height="10"/>
    <rect x="40" y="130" width="10" height="10"/>
    <rect x="60" y="130" width="10" height="10"/>
    <rect x="60" y="190" width="10" height="10"/>
    <rect x="130" y="190" width="10" height="10"/>
    <rect x="130" y="200" width="10" height="10"/>
    <rect x="150" y="280" width="10" height="10"/>
  </g>
  <g fill="#112125">
    <rect x="100" y="20" width="10" height="10"/>
    <rect x="90" y="30" width="10" height="10"/>
    <rect x="90" y="80" width="10" height="10"/>
    <rect x="160" y="130" width="10" height="10"/>
    <rect x="180" y="130" width="10" height="10"/>
    <rect x="30" y="140" width="20" height="10"/>
    <rect x="70" y="140" width="10" height="10"/>
    <rect x="40" y="160" width="10" height="10"/>
    <rect x="60" y="160" width="20" height="10"/>
    <rect x="170" y="160" width="10" height="10"/>
    <rect x="120" y="170" width="10" height="10"/>
    <rect x="70" y="180" width="10" height="10"/>
    <rect x="70" y="200" width="10" height="10"/>
    <rect x="110" y="200" width="10" height="10"/>
    <rect x="210" y="210" width="10" height="10"/>
    <rect x="200" y="250" width="10" height="10"/>
    <rect x="200" y="260" width="10" height="10"/>
  </g>
  <g fill="#181317">
    <rect x="110" y="20" width="10" height="10"/>
    <rect x="140" y="20" width="20" height="10"/>
    <rect x="100" y="40" width="10" height="10"/>
    <rect x="90" y="50" width="20" height="10"/>
    <rect x="160" y="50" width="10" height="10"/>
    <rect x="100" y="70" width="10" height="10"/>
    <rect x="100" y="80" width="10" height="10"/>
  </g>
  <g fill="#1a0d13">
    <rect x="120" y="20" width="10" height="10"/>
    <rect x="180" y="40" width="10" height="10"/>
    <rect x="170" y="50" width="20" height="10"/>
    <rect x="90" y="90" width="10" height="10"/>
    <rect x="70" y="230" width="60" height="10"/>
    <rect x="60" y="240" width="10" height="10"/>
    <rect x="60" y="250" width="10" height="10"/>
    <rect x="60" y="260" width="10" height="10"/>
  </g>
  <g fill="#120e13">
    <rect x="130" y="20" width="10" height="10"/>
    <rect x="160" y="20" width="10" height="10"/>
    <rect x="110" y="30" width="10" height="10"/>
    <rect x="130" y="30" width="10" height="10"/>
    <rect x="160" y="30" width="30" height="10"/>
    <rect x="140" y="40" width="10" height="10"/>
  </g>
  <g fill="#000001">
    <rect x="170" y="20" width="20" height="10"/>
    <rect x="130" y="50" width="20" height="10"/>
    <rect x="170" y="80" width="10" height="10"/>
    <rect x="170" y="90" width="10" height="10"/>
    <rect x="170" y="100" width="10" height="10"/>
    <rect x="30" y="200" width="10" height="10"/>
    <rect x="60" y="200" width="10" height="10"/>
    <rect x="70" y="220" width="10" height="10"/>
    <rect x="90" y="220" width="10" height="10"/>
    <rect x="120" y="220" width="20" height="10"/>
    <rect x="150" y="220" width="40" height="10"/>
    <rect x="70" y="270" width="40" height="10"/>
    <rect x="120" y="270" width="20" height="10"/>
    <rect x="180" y="270" width="20" height="10"/>
    <rect x="160" y="280" width="20" height="10"/>
  </g>
  <g fill="#040609">
    <rect x="100" y="30" width="10" height="10"/>
    <rect x="90" y="40" width="10" height="10"/>
    <rect x="190" y="40" width="10" height="10"/>
    <rect x="150" y="80" width="10" height="10"/>
    <rect x="190" y="90" width="10" height="10"/>
    <rect x="140" y="150" width="10" height="10"/>
    <rect x="100" y="200" width="10" height="10"/>
    <rect x="190" y="200" width="10" height="10"/>
    <rect x="110" y="290" width="20" height="10"/>
    <rect x="170" y="290" width="20" height="10"/>
  </g>
  <g fill="#030710">
    <rect x="120" y="30" width="10" height="10"/>
    <rect x="110" y="50" width="10" height="10"/>
    <rect x="190" y="50" width="10" height="10"/>
    <rect x="100" y="60" width="10" height="10"/>
    <rect x="170" y="60" width="20" height="10"/>
    <rect x="140" y="170" width="10" height="10"/>
    <rect x="130" y="300" width="10" height="10"/>
    <rect x="190" y="300" width="10" height="10"/>
  </g>
  <g fill="#050c15">
    <rect x="140" y="30" width="10" height="10"/>
    <rect x="130" y="40" width="10" height="10"/>
    <rect x="170" y="40" width="10" height="10"/>
    <rect x="160" y="60" width="10" height="10"/>
    <rect x="190" y="60" width="10" height="10"/>
    <rect x="170" y="70" width="20" height="10"/>
    <rect x="150" y="150" width="10" height="10"/>
    <rect x="140" y="190" width="10" height="10"/>
    <rect x="150" y="200" width="10" height="10"/>
    <rect x="180" y="280" width="10" height="10"/>
    <rect x="200" y="290" width="10" height="10"/>
    <rect x="170" y="300" width="10" height="10"/>
  </g>
  <g fill="#040810">
    <rect x="150" y="30" width="10" height="10"/>
    <rect x="110" y="40" width="20" height="10"/>
    <rect x="150" y="40" width="20" height="10"/>
    <rect x="20" y="140" width="10" height="10"/>
    <rect x="90" y="170" width="10" height="10"/>
    <rect x="140" y="200" width="10" height="10"/>
    <rect x="190" y="230" width="10" height="10"/>
    <rect x="190" y="280" width="20" height="10"/>
  </g>
  <g fill="#080d13">
    <rect x="190" y="30" width="10" height="10"/>
    <rect x="200" y="110" width="10" height="10"/>
    <rect x="170" y="130" width="10" height="10"/>
    <rect x="60" y="170" width="10" height="10"/>
    <rect x="140" y="180" width="10" height="10"/>
    <rect x="100" y="190" width="10" height="10"/>
    <rect x="90" y="200" width="10" height="10"/>
  </g>
  <g fill="#010103">
    <rect x="120" y="50" width="10" height="10"/>
    <rect x="110" y="60" width="10" height="10"/>
    <rect x="200" y="60" width="10" height="10"/>
    <rect x="180" y="120" width="10" height="10"/>
    <rect x="80" y="140" width="10" height="10"/>
    <rect x="110" y="140" width="10" height="10"/>
    <rect x="110" y="160" width="10" height="10"/>
    <rect x="40" y="210" width="10" height="10"/>
    <rect x="50" y="230" width="10" height="10"/>
    <rect x="140" y="230" width="10" height="10"/>
    <rect x="50" y="240" width="10" height="10"/>
    <rect x="140" y="240" width="10" height="10"/>
    <rect x="50" y="250" width="10" height="10"/>
    <rect x="140" y="250" width="10" height="10"/>
    <rect x="50" y="260" width="10" height="10"/>
    <rect x="140" y="260" width="10" height="10"/>
    <rect x="50" y="270" width="10" height="10"/>
    <rect x="140" y="270" width="10" height="10"/>
    <rect x="170" y="270" width="10" height="10"/>
    <rect x="110" y="280" width="10" height="10"/>
  </g>
  <g fill="#0c1318">
    <rect x="200" y="50" width="10" height="10"/>
    <rect x="190" y="100" width="10" height="10"/>
    <rect x="140" y="110" width="10" height="10"/>
    <rect x="60" y="140" width="10" height="10"/>
    <rect x="90" y="190" width="10" height="10"/>
    <rect x="190" y="190" width="10" height="10"/>
    <rect x="120" y="300" width="10" height="10"/>
    <rect x="180" y="300" width="10" height="10"/>
  </g>
  <g fill="#9b6154">
    <rect x="120" y="60" width="40" height="10"/>
    <rect x="160" y="80" width="10" height="10"/>
    <rect x="140" y="100" width="20" height="10"/>
    <rect x="110" y="110" width="10" height="10"/>
    <rect x="110" y="120" width="10" height="10"/>
    <rect x="40" y="190" width="20" height="10"/>
  </g>
  <g fill="#b48b71">
    <rect x="110" y="70" width="50" height="10"/>
    <rect x="110" y="80" width="40" height="10"/>
    <rect x="120" y="110" width="20" height="10"/>
    <rect x="140" y="120" width="20" height="10"/>
    <rect x="150" y="130" width="10" height="10"/>
    <rect x="120" y="140" width="40" height="10"/>
  </g>
  <g fill="#020307">
    <rect x="200" y="70" width="10" height="10"/>
    <rect x="190" y="120" width="10" height="10"/>
    <rect x="90" y="160" width="10" height="10"/>
    <rect x="40" y="170" width="10" height="10"/>
    <rect x="190" y="240" width="10" height="10"/>
    <rect x="130" y="290" width="10" height="10"/>
    <rect x="190" y="290" width="10" height="10"/>
  </g>
  <g fill="#173136">
    <rect x="190" y="80" width="10" height="10"/>
    <rect x="50" y="150" width="10" height="10"/>
    <rect x="160" y="150" width="10" height="10"/>
    <rect x="80" y="160" width="10" height="10"/>
    <rect x="120" y="160" width="20" height="10"/>
    <rect x="180" y="170" width="10" height="10"/>
    <rect x="190" y="180" width="10" height="10"/>
    <rect x="220" y="180" width="10" height="10"/>
    <rect x="110" y="190" width="10" height="10"/>
    <rect x="120" y="200" width="10" height="10"/>
    <rect x="170" y="200" width="10" height="10"/>
    <rect x="210" y="220" width="10" height="10"/>
    <rect x="180" y="240" width="10" height="10"/>
    <rect x="200" y="240" width="10" height="10"/>
    <rect x="190" y="260" width="10" height="10"/>
  </g>
  <g fill="#5d2c27">
    <rect x="100" y="90" width="10" height="10"/>
    <rect x="140" y="90" width="20" height="10"/>
    <rect x="100" y="100" width="10" height="10"/>
    <rect x="160" y="110" width="10" height="10"/>
    <rect x="140" y="130" width="10" height="10"/>
    <rect x="50" y="210" width="10" height="10"/>
    <rect x="70" y="210" width="10" height="10"/>
    <rect x="90" y="210" width="10" height="10"/>
    <rect x="130" y="210" width="10" height="10"/>
  </g>
  <g fill="#3f5051">
    <rect x="120" y="90" width="20" height="10"/>
    <rect x="170" y="140" width="10" height="10"/>
    <rect x="130" y="150" width="10" height="10"/>
    <rect x="200" y="160" width="10" height="10"/>
    <rect x="110" y="170" width="10" height="10"/>
    <rect x="60" y="180" width="10" height="10"/>
    <rect x="80" y="190" width="10" height="10"/>
    <rect x="160" y="190" width="10" height="10"/>
    <rect x="180" y="190" width="10" height="10"/>
    <rect x="190" y="210" width="10" height="10"/>
  </g>
  <g fill="#3e2a25">
    <rect x="160" y="90" width="10" height="10"/>
    <rect x="120" y="100" width="10" height="10"/>
  </g>
  <g fill="#324143">
    <rect x="180" y="90" width="10" height="10"/>
    <rect x="180" y="100" width="10" height="10"/>
    <rect x="50" y="170" width="10" height="10"/>
    <rect x="190" y="170" width="10" height="10"/>
    <rect x="120" y="190" width="10" height="10"/>
    <rect x="200" y="190" width="20" height="10"/>
    <rect x="80" y="200" width="10" height="10"/>
    <rect x="160" y="200" width="10" height="10"/>
    <rect x="180" y="200" width="10" height="10"/>
    <rect x="200" y="200" width="20" height="10"/>
    <rect x="200" y="220" width="10" height="10"/>
    <rect x="180" y="230" width="10" height="10"/>
    <rect x="200" y="230" width="10" height="10"/>
  </g>
  <g fill="#13282d">
    <rect x="200" y="90" width="10" height="10"/>
    <rect x="170" y="110" width="10" height="10"/>
    <rect x="190" y="110" width="10" height="10"/>
    <rect x="160" y="120" width="10" height="10"/>
    <rect x="180" y="150" width="10" height="10"/>
    <rect x="50" y="160" width="10" height="10"/>
    <rect x="80" y="170" width="10" height="10"/>
    <rect x="70" y="190" width="10" height="10"/>
    <rect x="180" y="250" width="20" height="10"/>
    <rect x="180" y="260" width="10" height="10"/>
  </g>
  <g fill="#34141a">
    <rect x="90" y="100" width="10" height="10"/>
    <rect x="120" y="130" width="20" height="10"/>
    <rect x="160" y="210" width="20" height="10"/>
  </g>
  <g fill="#645b54">
    <rect x="160" y="100" width="10" height="10"/>
    <rect x="150" y="110" width="10" height="10"/>
    <rect x="120" y="120" width="10" height="10"/>
    <rect x="110" y="130" width="10" height="10"/>
    <rect x="160" y="160" width="10" height="10"/>
    <rect x="170" y="170" width="10" height="10"/>
    <rect x="180" y="180" width="10" height="10"/>
    <rect x="40" y="200" width="20" height="10"/>
  </g>
  <g fill="#0d191e">
    <rect x="200" y="100" width="10" height="10"/>
    <rect x="50" y="140" width="10" height="10"/>
    <rect x="180" y="140" width="10" height="10"/>
    <rect x="60" y="150" width="10" height="10"/>
    <rect x="110" y="150" width="10" height="10"/>
    <rect x="100" y="170" width="10" height="10"/>
    <rect x="150" y="170" width="10" height="10"/>
    <rect x="90" y="180" width="10" height="10"/>
    <rect x="120" y="180" width="10" height="10"/>
    <rect x="150" y="180" width="10" height="10"/>
    <rect x="170" y="180" width="10" height="10"/>
    <rect x="150" y="190" width="10" height="10"/>
    <rect x="120" y="280" width="10" height="10"/>
    <rect x="110" y="300" width="10" height="10"/>
  </g>
  <g fill="#8c7c6e">
    <rect x="130" y="120" width="10" height="10"/>
    <rect x="110" y="180" width="10" height="10"/>
    <rect x="130" y="180" width="10" height="10"/>
    <rect x="160" y="180" width="10" height="10"/>
  </g>
  <g fill="#010001">
    <rect x="160" y="140" width="10" height="10"/>
    <rect x="100" y="180" width="10" height="10"/>
  </g>
  <g fill="#4a6561">
    <rect x="40" y="150" width="10" height="10"/>
    <rect x="70" y="150" width="10" height="10"/>
    <rect x="170" y="150" width="10" height="10"/>
    <rect x="190" y="150" width="10" height="10"/>
    <rect x="180" y="160" width="20" height="10"/>
    <rect x="70" y="170" width="10" height="10"/>
    <rect x="130" y="170" width="10" height="10"/>
    <rect x="160" y="170" width="10" height="10"/>
    <rect x="200" y="170" width="10" height="10"/>
    <rect x="80" y="180" width="10" height="10"/>
    <rect x="200" y="180" width="10" height="10"/>
    <rect x="170" y="190" width="10" height="10"/>
    <rect x="200" y="210" width="10" height="10"/>
    <rect x="190" y="220" width="10" height="10"/>
  </g>
  <g fill="#4a281f">
    <rect x="60" y="210" width="10" height="10"/>
    <rect x="80" y="210" width="10" height="10"/>
    <rect x="100" y="210" width="30" height="10"/>
    <rect x="140" y="210" width="10" height="10"/>
    <rect x="70" y="240" width="70" height="10"/>
    <rect x="70" y="250" width="70" height="10"/>
    <rect x="70" y="260" width="70" height="10"/>
  </g>
  <g fill="#201015">
    <rect x="150" y="210" width="10" height="10"/>
    <rect x="60" y="230" width="10" height="10"/>
    <rect x="130" y="230" width="10" height="10"/>
    <rect x="150" y="230" width="20" height="10"/>
    <rect x="150" y="240" width="20" height="10"/>
    <rect x="150" y="250" width="20" height="10"/>
    <rect x="150" y="260" width="20" height="10"/>
    <rect x="150" y="270" width="20" height="10"/>
  </g>
</svg>
