<?xml version="1.0" encoding="UTF-8"?>
<!-- Generator: visioncortex VTracer 0.6.5 -->
<svg version="1.1" xmlns="http://www.w3.org/2000/svg" width="150" height="85">
<path d="M0,0 L150,0 L150,85 L0,85 Z " fill="#101720" transform="translate(0,0)"/>
<path d="M0,0 L2,1 L2,4 L5,3 L9,5 L14,10 L16,16 L18,16 L18,18 L-3,18 L-3,2 Z " fill="#333F49" transform="translate(3,67)"/>
<path d="M0,0 L29,0 L24,5 L16,11 L16,9 L0,10 Z " fill="#1F1F2D" transform="translate(0,0)"/>
<path d="M0,0 L10,0 L12,2 L17,3 L17,13 L13,13 L12,6 L7,8 L2,13 L0,13 Z " fill="#33404A" transform="translate(0,26)"/>
<path d="M0,0 L3,1 L0,6 L-20,6 L-20,1 Z " fill="#212532" transform="translate(20,14)"/>
<path d="M0,0 L17,0 L17,4 L20,4 L19,9 L12,7 L8,5 L0,4 Z " fill="#0A151F" transform="translate(0,20)"/>
<path d="M0,0 L4,0 L4,3 L17,3 L17,8 L7,8 L7,5 L-3,5 Z " fill="#222225" transform="translate(133,77)"/>
<path d="M0,0 L6,0 L1,5 L-7,11 L-7,9 L-23,10 L-23,7 L-7,6 Z " fill="#333845" transform="translate(23,0)"/>
<path d="M0,0 L5,0 L11,7 L6,7 L3,6 L2,10 L-3,8 L-5,7 L-5,4 L-1,5 Z M-2,6 Z " fill="#414954" transform="translate(5,73)"/>
<path d="M0,0 L1,0 L1,11 L-2,12 L-5,10 L-6,6 L-11,8 L-17,13 L-17,9 L-9,2 L-5,2 L-3,9 L-1,9 Z " fill="#1B2933" transform="translate(17,30)"/>
<path d="M0,0 L4,2 L6,4 L6,7 L-8,7 L-8,2 L-3,4 L-1,5 Z " fill="#252735" transform="translate(8,78)"/>
<path d="M0,0 L5,0 L8,6 L8,8 L-2,8 L-1,3 Z " fill="#2B3842" transform="translate(63,77)"/>
<path d="M0,0 L20,0 L18,4 L0,3 Z " fill="#111120" transform="translate(0,0)"/>
<path d="M0,0 L8,0 L7,4 L0,10 Z " fill="#485660" transform="translate(0,28)"/>
<path d="M0,0 L3,1 L1,3 L-20,3 L-20,1 Z " fill="#333442" transform="translate(20,14)"/>
<path d="M0,0 L5,0 L5,2 L8,2 L7,7 L2,5 L0,3 Z " fill="#00050E" transform="translate(12,22)"/>
<path d="M0,0 L3,1 L1,1 L0,4 L-5,8 L-23,8 L-23,7 L-7,6 Z " fill="#292D3A" transform="translate(23,0)"/>
<path d="M0,0 L4,1 L9,7 L4,7 L3,4 L-1,3 Z " fill="#5E6974" transform="translate(7,73)"/>
<path d="M0,0 L7,0 L7,4 L-2,4 Z " fill="#2C343A" transform="translate(143,59)"/>
<path d="M0,0 L7,1 L7,3 L9,3 L9,5 L2,5 Z " fill="#323643" transform="translate(12,80)"/>
<path d="M0,0 L6,0 L6,1 L1,1 L1,7 L-4,5 L-4,1 Z M-1,7 Z " fill="#3C4853" transform="translate(4,72)"/>
<path d="M0,0 L9,0 L9,3 L0,3 Z " fill="#070B14" transform="translate(131,82)"/>
<path d="M0,0 L4,0 L3,5 L-3,5 Z " fill="#262C34" transform="translate(133,77)"/>
<path d="M0,0 L4,1 L-1,4 L-7,11 L-8,7 Z " fill="#212F39" transform="translate(8,32)"/>
<path d="M0,0 L2,1 L3,5 L-3,6 L-3,2 Z " fill="#4F5D67" transform="translate(3,67)"/>
<path d="M0,0 L9,0 L9,2 L2,3 L0,2 Z " fill="#181D24" transform="translate(141,65)"/>
<path d="M0,0 L3,0 L3,7 L0,7 Z " fill="#3E4C56" transform="translate(13,30)"/>
<path d="M0,0 L5,0 L8,6 L8,8 L5,8 L4,2 Z " fill="#1B2631" transform="translate(63,77)"/>
<path d="M0,0 L4,2 L4,5 L0,5 L-1,1 Z " fill="#0F0F1C" transform="translate(10,80)"/>
<path d="M0,0 L3,0 L3,4 L-2,4 L-2,1 Z " fill="#151319" transform="translate(146,81)"/>
<path d="M0,0 L4,0 L5,3 L-2,3 Z " fill="#1D1A2A" transform="translate(42,82)"/>
<path d="M0,0 L2,0 L2,3 L4,3 L4,5 L0,5 Z " fill="#05060C" transform="translate(0,80)"/>
<path d="M0,0 L4,0 L4,3 L0,3 Z " fill="#4E5964" transform="translate(64,82)"/>
<path d="M0,0 L4,1 L3,3 L0,3 Z " fill="#535C67" transform="translate(0,77)"/>
<path d="M0,0 L3,1 L2,4 L0,4 Z " fill="#1D2B35" transform="translate(0,73)"/>
<path d="M0,0 L2,1 L2,3 L-3,3 Z " fill="#34424B" transform="translate(3,67)"/>
<path d="M0,0 L3,1 L3,3 L0,3 Z " fill="#2C3742" transform="translate(68,82)"/>
<path d="M0,0 L2,0 L2,3 L-1,3 Z " fill="#04060F" transform="translate(10,80)"/>
<path d="M0,0 L4,1 L1,3 Z " fill="#697680" transform="translate(8,74)"/>
</svg>
