<?xml version="1.0" encoding="UTF-8"?>
<!-- Generator: visioncortex VTracer 0.6.5 -->
<svg version="1.1" xmlns="http://www.w3.org/2000/svg" width="150" height="85">
<path d="M0,0 L150,0 L150,85 L0,85 Z " fill="#362F3C" transform="translate(0,0)"/>
<path d="M0,0 L3,0 L3,66 L-21,66 L-21,64 L-19,64 L-19,61 L-23,61 L-23,56 L-22,55 L-16,55 L-16,53 L-14,52 L-18,50 L-19,43 L-13,38 L-12,36 L-17,35 L-17,37 L-19,37 L-19,35 L-26,35 L-27,32 L-25,28 L-18,28 L-16,29 L-15,21 L-20,20 L-20,12 L-18,9 L-13,8 L-12,19 L-5,17 L-2,16 L-1,12 L0,9 L-2,9 L-2,2 Z M-20,44 Z " fill="#3E3342" transform="translate(147,19)"/>
<path d="M0,0 L3,0 L3,34 L-3,34 L-5,33 L-5,31 L-7,31 L-7,25 L-11,25 L-11,36 L-17,35 L-17,37 L-19,37 L-19,35 L-26,35 L-27,32 L-25,28 L-18,28 L-16,29 L-15,21 L-20,20 L-20,12 L-18,9 L-13,8 L-12,19 L-5,17 L-2,16 L-1,12 L0,9 L-2,9 L-2,2 Z " fill="#453848" transform="translate(147,19)"/>
<path d="M0,0 L31,0 L31,15 L21,15 L15,13 L15,15 L10,15 L-2,10 L-2,7 L5,8 L7,10 L11,11 L10,9 L1,4 Z " fill="#55495B" transform="translate(119,0)"/>
<path d="M0,0 L5,1 L8,3 L8,5 L12,6 L9,10 L7,10 L7,14 L-1,14 L-8,12 L-6,2 Z " fill="#18131E" transform="translate(72,35)"/>
<path d="M0,0 L3,0 L3,34 L-3,34 L-5,33 L-5,31 L-7,31 L-5,21 L-2,19 L1,9 L-2,9 L-2,2 Z " fill="#514453" transform="translate(147,19)"/>
<path d="M0,0 L8,0 L9,3 L19,9 L19,11 L14,10 L6,7 L6,10 L11,11 L18,14 L21,16 L19,21 L17,23 L15,16 L5,13 L4,11 L-1,9 L-8,8 L-8,6 L3,6 L3,4 L0,4 Z " fill="#3E3243" transform="translate(111,0)"/>
<path d="M0,0 L10,0 L11,1 L27,3 L28,6 L32,8 L37,11 L37,13 L29,13 L27,10 L23,9 L23,6 L18,6 L18,8 L14,7 L11,6 L8,6 L8,4 L2,5 L2,3 L-1,3 Z " fill="#5A4D5E" transform="translate(88,7)"/>
<path d="M0,0 L1,0 L1,17 L-14,17 L-13,12 L-9,7 L-9,12 L-7,12 L-7,6 L-5,3 L-3,3 L-3,1 Z " fill="#6D7C89" transform="translate(149,68)"/>
<path d="M0,0 L2,0 L4,10 L6,12 L4,12 L3,17 L-4,16 L-6,15 L-6,22 L-10,22 L-10,12 L-6,12 L-6,9 L-2,7 Z " fill="#313947" transform="translate(10,63)"/>
<path d="M0,0 L3,1 L3,5 L1,5 L1,16 L-5,15 L-5,17 L-7,17 L-7,15 L-14,15 L-15,12 L-13,8 L-6,8 L-4,9 L-4,7 L-2,6 Z " fill="#4A3C47" transform="translate(135,39)"/>
<path d="M0,0 L18,0 L17,3 L15,3 L14,6 L7,7 L7,10 L4,13 L0,14 Z " fill="#424050" transform="translate(0,0)"/>
<path d="M0,0 L4,0 L4,3 L7,2 L10,3 L11,7 L-24,7 L-24,2 L-23,5 L-17,3 L-11,3 L-9,5 L-4,4 L-3,2 L0,2 Z " fill="#504754" transform="translate(57,78)"/>
<path d="M0,0 L19,0 L18,3 L14,5 L13,7 L9,7 L8,5 L2,5 L0,9 L-3,9 L-2,4 L0,4 Z " fill="#26313E" transform="translate(18,0)"/>
<path d="M0,0 L9,3 L10,0 L17,2 L16,6 L13,8 L0,7 L-1,2 Z " fill="#252534" transform="translate(3,31)"/>
<path d="M0,0 L1,0 L1,18 L-6,17 L-7,13 L-4,7 L-2,5 Z " fill="#635667" transform="translate(149,33)"/>
<path d="M0,0 L12,0 L10,4 L7,7 L4,7 L4,9 L6,10 L2,9 L3,7 L1,7 Z " fill="#524F5D" transform="translate(90,75)"/>
<path d="M0,0 L4,0 L4,2 L7,3 L7,12 L0,12 Z " fill="#524257" transform="translate(0,18)"/>
<path d="M0,0 L2,0 L2,3 L13,3 L13,8 L0,8 Z " fill="#313559" transform="translate(20,77)"/>
<path d="M0,0 L2,0 L3,4 L8,5 L9,7 L2,6 L0,5 L0,12 L-4,12 L-4,2 L0,2 Z " fill="#3B3B49" transform="translate(4,73)"/>
<path d="M0,0 L3,1 L3,11 L-2,13 L-2,16 L-6,16 L-6,9 L0,9 L-1,1 Z " fill="#283340" transform="translate(6,59)"/>
<path d="M0,0 L6,0 L6,3 L4,3 L4,5 L-15,5 L-15,3 L-13,2 L-2,2 Z " fill="#24222D" transform="translate(122,80)"/>
<path d="M0,0 L7,0 L6,11 L1,11 L1,9 L3,9 L3,6 L-1,6 L-1,1 Z " fill="#45424E" transform="translate(125,74)"/>
<path d="M0,0 L1,0 L1,11 L-4,12 L-5,11 L-5,3 L-4,1 Z " fill="#4F424F" transform="translate(133,27)"/>
<path d="M0,0 L11,4 L19,5 L19,7 L9,7 L3,5 L3,7 L-2,7 L-2,4 L0,4 Z " fill="#776D7E" transform="translate(131,8)"/>
<path d="M0,0 L5,1 L6,4 L1,9 L-6,8 L-6,5 L-3,4 L-2,1 Z M0,6 Z " fill="#4E4054" transform="translate(21,7)"/>
<path d="M0,0 L21,0 L21,4 L11,4 L10,2 L0,2 Z " fill="#6E6274" transform="translate(90,0)"/>
<path d="M0,0 L11,0 L11,6 L3,6 L3,4 L1,4 Z " fill="#3B3244" transform="translate(139,0)"/>
<path d="M0,0 L9,1 L9,3 L-1,3 L0,10 L2,10 L1,13 L-8,13 L-7,11 L-1,12 L-3,8 L-3,3 Z " fill="#403E4A" transform="translate(91,72)"/>
<path d="M0,0 L4,0 L5,2 L5,9 L0,9 L-2,4 L-2,1 Z M-3,2 Z " fill="#544551" transform="translate(130,61)"/>
<path d="M0,0 L7,0 L7,5 L4,7 L-2,7 L-2,2 L0,2 Z " fill="#291F2D" transform="translate(143,60)"/>
<path d="M0,0 L16,0 L20,2 L20,4 L14,5 L14,2 L4,1 L4,4 L0,3 Z " fill="#877F91" transform="translate(119,0)"/>
<path d="M0,0 L4,0 L3,6 L0,6 L0,13 L-3,13 L-3,7 Z " fill="#2B2936" transform="translate(134,72)"/>
<path d="M0,0 L2,0 L1,3 Z M-14,1 L-7,2 L-5,4 L-1,5 L-2,2 L0,2 L0,6 L-2,6 L-3,8 L-14,4 Z " fill="#534758" transform="translate(131,6)"/>
<path d="M0,0 L6,0 L6,4 L2,5 L0,9 L-3,9 L-2,4 L0,4 Z " fill="#281B2C" transform="translate(18,0)"/>
<path d="M0,0 L1,3 L7,1 L13,1 L13,5 L0,5 Z " fill="#595866" transform="translate(33,80)"/>
<path d="M0,0 L5,1 L5,9 L1,10 L0,8 Z " fill="#251F2F" transform="translate(0,41)"/>
<path d="M0,0 L5,2 L7,6 L6,7 L0,7 L-1,2 Z " fill="#191625" transform="translate(3,31)"/>
<path d="M0,0 L16,2 L16,3 L5,4 L0,5 L-4,2 L0,2 Z " fill="#564859" transform="translate(134,13)"/>
<path d="M0,0 L7,1 L13,5 L13,7 L8,6 L0,3 Z " fill="#35293B" transform="translate(117,4)"/>
<path d="M0,0 L10,0 L6,5 L1,5 Z " fill="#545262" transform="translate(6,0)"/>
<path d="M0,0 L6,0 L8,1 L7,5 L0,5 Z " fill="#645661" transform="translate(122,49)"/>
<path d="M0,0 L3,1 L3,5 L1,5 L1,12 L-2,12 L-1,3 Z " fill="#584B58" transform="translate(135,39)"/>
<path d="M0,0 L8,1 L9,6 L8,8 L4,7 L3,1 Z " fill="#4C4858" transform="translate(2,39)"/>
<path d="M0,0 L2,0 L2,11 L-5,11 L-4,9 L-2,9 L-2,7 L0,7 Z " fill="#5C5568" transform="translate(148,74)"/>
<path d="M0,0 L4,0 L4,3 L13,4 L11,6 L8,6 L8,4 L2,5 L2,3 L-1,3 Z " fill="#4E4052" transform="translate(88,7)"/>
<path d="M0,0 L1,0 L1,6 L-1,6 L-1,13 L-3,12 L-2,5 L-5,5 L-5,3 L-3,3 L-3,1 Z " fill="#747485" transform="translate(149,68)"/>
<path d="M0,0 L4,2 L9,5 L9,7 L1,7 L0,5 L2,3 Z " fill="#524556" transform="translate(116,13)"/>
<path d="M0,0 L8,0 L13,1 L13,4 L8,4 L7,3 L0,2 Z " fill="#32273A" transform="translate(103,6)"/>
<path d="M0,0 L5,2 L4,5 L6,5 L6,7 L0,7 Z " fill="#2A2431" transform="translate(4,78)"/>
<path d="M0,0 L5,1 L11,5 L9,7 L0,3 Z " fill="#2F2332" transform="translate(117,10)"/>
<path d="M0,0 L4,1 L4,7 L0,8 Z " fill="#535362" transform="translate(0,6)"/>
<path d="M0,0 L10,0 L10,3 L1,3 Z " fill="#827A8C" transform="translate(140,6)"/>
<path d="M0,0 L5,0 L7,5 L0,4 Z " fill="#413647" transform="translate(133,6)"/>
<path d="M0,0 L2,0 L2,4 L-1,4 L-2,8 L-4,8 L-4,2 L0,2 Z " fill="#4D5663" transform="translate(4,73)"/>
<path d="M0,0 L6,0 L9,3 L-2,3 L-2,1 Z " fill="#221926" transform="translate(109,82)"/>
<path d="M0,0 L2,4 L2,6 L4,6 L3,9 L-6,9 L-5,7 L1,8 L0,6 Z " fill="#4B4147" transform="translate(89,76)"/>
<path d="M0,0 L2,0 L2,7 L-2,8 L-2,3 Z " fill="#8C90A1" transform="translate(145,73)"/>
<path d="M0,0 L6,0 L8,1 L8,3 L2,3 L1,5 L-1,3 Z " fill="#483E4F" transform="translate(123,1)"/>
<path d="M0,0 L3,1 L3,11 L1,11 L-1,1 Z " fill="#222936" transform="translate(6,59)"/>
<path d="M0,0 L2,0 L2,9 L-1,9 L-1,2 Z " fill="#201522" transform="translate(138,44)"/>
<path d="M0,0 L4,0 L5,5 L2,6 L0,5 Z " fill="#615064" transform="translate(0,23)"/>
<path d="M0,0 L3,0 L2,3 L-2,5 L-2,10 L-4,9 L-4,3 Z " fill="#41343E" transform="translate(104,39)"/>
<path d="M0,0 L4,1 L4,5 L-1,5 L-1,1 Z " fill="#1A1C2A" transform="translate(14,33)"/>
<path d="M0,0 L2,2 L5,5 L3,5 L3,7 L-2,7 L-2,4 L0,4 Z " fill="#65596A" transform="translate(131,8)"/>
<path d="M0,0 L11,0 L10,2 L4,1 L4,4 L0,3 Z " fill="#6E6475" transform="translate(119,0)"/>
<path d="M0,0 L1,2 L-4,12 L-5,12 L-5,5 L-2,5 L-1,1 Z " fill="#4B4B5A" transform="translate(139,73)"/>
<path d="M0,0 L4,2 L1,5 L-3,4 L-3,1 Z " fill="#605E6D" transform="translate(96,75)"/>
<path d="M0,0 L1,3 L7,2 L7,5 L0,5 Z " fill="#434C5E" transform="translate(33,80)"/>
<path d="M0,0 L4,0 L4,2 L7,3 L5,5 L0,4 Z " fill="#473D50" transform="translate(0,18)"/>
<path d="M0,0 L6,0 L8,3 L0,3 Z " fill="#645769" transform="translate(92,7)"/>
<path d="M0,0 L7,0 L7,3 L0,3 Z " fill="#160E1D" transform="translate(143,0)"/>
<path d="M0,0 L6,1 L10,4 L1,3 Z " fill="#1F1C27" transform="translate(64,45)"/>
<path d="M0,0 L2,0 L5,4 L4,7 L0,6 Z " fill="#393646" transform="translate(0,35)"/>
<path d="M0,0 L5,0 L6,4 L0,3 Z " fill="#201827" transform="translate(117,4)"/>
<path d="M0,0 L2,0 L3,7 L-1,7 Z " fill="#3D4351" transform="translate(10,63)"/>
<path d="M0,0 L4,2 L6,5 L2,5 L0,3 Z " fill="#645869" transform="translate(113,12)"/>
<path d="M0,0 L11,0 L11,1 L3,1 L3,3 L-3,2 Z " fill="#584A5C" transform="translate(100,9)"/>
<path d="M0,0 L1,0 L1,5 L-4,5 L-2,1 Z " fill="#766A7B" transform="translate(149,44)"/>
<path d="M0,0 L6,0 L7,2 L3,1 L2,5 L0,5 Z " fill="#2A2233" transform="translate(0,30)"/>
<path d="M0,0 L2,0 L2,6 L-2,4 Z " fill="#69595F" transform="translate(148,21)"/>
<path d="M0,0 L6,0 L6,3 L0,3 Z " fill="#807688" transform="translate(104,0)"/>
<path d="M0,0 L5,1 L6,5 L2,4 L3,2 L-1,1 Z " fill="#4A3C48" transform="translate(62,80)"/>
<path d="M0,0 L1,0 L1,5 L-2,6 L-4,10 L-3,5 Z " fill="#666978" transform="translate(139,75)"/>
<path d="M0,0 L5,1 L4,4 L0,4 Z " fill="#545361" transform="translate(126,75)"/>
<path d="M0,0 L3,0 L3,5 L0,6 Z " fill="#635563" transform="translate(129,32)"/>
<path d="M0,0 L2,0 L4,5 L-1,4 Z " fill="#0D0817" transform="translate(3,31)"/>
<path d="M0,0 L8,0 L8,2 L1,3 Z " fill="#2C1F2D" transform="translate(142,16)"/>
<path d="M0,0 L3,1 L1,2 L1,7 L-1,7 L-1,1 Z " fill="#293440" transform="translate(9,61)"/>
<path d="M0,0 L3,0 L3,5 L0,5 Z " fill="#191320" transform="translate(1,43)"/>
<path d="M0,0 L6,0 L5,3 L0,3 Z " fill="#6C6072" transform="translate(126,5)"/>
<path d="M0,0 L5,0 L5,3 L0,3 Z " fill="#231F2A" transform="translate(71,82)"/>
<path d="M0,0 L3,0 L3,5 L0,5 Z " fill="#333851" transform="translate(30,80)"/>
<path d="M0,0 L4,0 L3,6 L0,2 Z " fill="#483C49" transform="translate(136,20)"/>
<path d="M0,0 L6,0 L1,4 L-1,4 Z " fill="#372932" transform="translate(144,18)"/>
<path d="M0,0 L5,0 L5,3 L0,3 Z " fill="#241C2C" transform="translate(111,7)"/>
<path d="M0,0 L4,0 L3,4 L0,4 Z " fill="#252635" transform="translate(0,0)"/>
<path d="M0,0 L2,2 L2,5 L-3,5 Z " fill="#514E5D" transform="translate(56,80)"/>
<path d="M0,0 L2,4 L-2,5 L-2,1 Z " fill="#4D3F4E" transform="translate(2,80)"/>
<path d="M0,0 L4,0 L3,5 L0,3 Z " fill="#464353" transform="translate(57,78)"/>
<path d="M0,0 L1,3 L-5,5 L-5,3 L-3,3 L-3,1 Z " fill="#5D5D6D" transform="translate(149,68)"/>
<path d="M0,0 L5,0 L5,3 L0,2 Z " fill="#0F0714" transform="translate(19,0)"/>
<path d="M0,0 L3,3 L-1,5 Z " fill="#343746" transform="translate(13,62)"/>
<path d="M0,0 L5,2 L4,4 L0,3 Z " fill="#2F3543" transform="translate(15,29)"/>
<path d="M0,0 L3,1 L2,4 L-1,4 Z " fill="#1E1321" transform="translate(16,5)"/>
<path d="M0,0 L4,1 L4,3 L-1,3 Z " fill="#352C2D" transform="translate(6,82)"/>
<path d="M0,0 L4,0 L4,3 L2,3 L1,5 Z " fill="#33313C" transform="translate(124,80)"/>
<path d="M0,0 L3,1 L2,5 L0,5 Z " fill="#61606F" transform="translate(0,76)"/>
<path d="M0,0 L4,0 L3,3 L0,3 Z " fill="#212E3B" transform="translate(7,72)"/>
<path d="M0,0 L4,1 L4,3 L-1,3 Z " fill="#574B5D" transform="translate(21,8)"/>
<path d="M0,0 L4,0 L4,3 L0,3 Z " fill="#1E1625" transform="translate(112,0)"/>
<path d="M0,0 L2,0 L0,7 L-1,7 L-1,1 Z " fill="#6A6E7D" transform="translate(143,73)"/>
<path d="M0,0 L4,2 L2,2 L2,4 L-2,2 L0,2 Z " fill="#6F6171" transform="translate(132,11)"/>
<path d="M0,0 L2,0 L3,4 L0,4 Z " fill="#1E2A36" transform="translate(0,70)"/>
<path d="M0,0 L3,0 L3,2 L-2,3 Z " fill="#493B42" transform="translate(147,19)"/>
<path d="M0,0 L5,2 L3,4 L0,2 Z " fill="#291C2B" transform="translate(123,13)"/>
<path d="M0,0 L4,1 L2,1 L2,3 L-1,3 Z " fill="#4E3F52" transform="translate(88,7)"/>
<path d="M0,0 L4,2 L0,3 Z " fill="#555463" transform="translate(9,77)"/>
<path d="M0,0 L5,2 L1,3 Z " fill="#272530" transform="translate(64,45)"/>
<path d="M0,0 L4,0 L4,3 L0,1 Z " fill="#2F2637" transform="translate(139,0)"/>
<path d="M0,0 L4,2 L-1,3 Z " fill="#788695" transform="translate(142,80)"/>
<path d="M0,0 L3,1 L0,4 Z " fill="#656776" transform="translate(0,7)"/>
<path d="M0,0 L2,0 L1,3 L-1,1 Z " fill="#4A4757" transform="translate(52,78)"/>
</svg>
