<?xml version="1.0" encoding="UTF-8"?>
<svg xmlns="http://www.w3.org/2000/svg" viewBox="0 0 270 320" width="240" height="240">
  <style>rect{shape-rendering:crispEdges}</style>
  <g fill="#00070e">
    <rect x="100" y="0" width="10" height="10"/>
    <rect x="80" y="30" width="10" height="10"/>
    <rect x="150" y="60" width="10" height="10"/>
    <rect x="130" y="90" width="10" height="10"/>
    <rect x="50" y="140" width="10" height="10"/>
    <rect x="80" y="140" width="10" height="10"/>
    <rect x="220" y="150" width="10" height="10"/>
    <rect x="230" y="170" width="10" height="10"/>
    <rect x="120" y="180" width="10" height="10"/>
    <rect x="230" y="210" width="10" height="10"/>
    <rect x="30" y="230" width="10" height="10"/>
    <rect x="210" y="240" width="10" height="10"/>
    <rect x="0" y="250" width="10" height="10"/>
    <rect x="210" y="260" width="10" height="10"/>
    <rect x="100" y="300" width="10" height="10"/>
  </g>
  <g fill="#000b12">
    <rect x="110" y="0" width="10" height="10"/>
    <rect x="80" y="20" width="20" height="10"/>
    <rect x="100" y="40" width="10" height="10"/>
    <rect x="120" y="60" width="10" height="10"/>
    <rect x="90" y="80" width="10" height="10"/>
    <rect x="60" y="100" width="10" height="10"/>
    <rect x="90" y="100" width="10" height="10"/>
    <rect x="110" y="100" width="10" height="10"/>
    <rect x="110" y="110" width="10" height="10"/>
    <rect x="140" y="110" width="10" height="10"/>
    <rect x="20" y="140" width="10" height="10"/>
    <rect x="70" y="160" width="10" height="10"/>
    <rect x="230" y="160" width="10" height="10"/>
    <rect x="80" y="170" width="10" height="10"/>
    <rect x="130" y="170" width="10" height="10"/>
    <rect x="40" y="180" width="10" height="10"/>
    <rect x="10" y="230" width="10" height="10"/>
    <rect x="110" y="230" width="20" height="10"/>
    <rect x="90" y="300" width="10" height="10"/>
  </g>
  <g fill="#000810">
    <rect x="120" y="0" width="20" height="10"/>
    <rect x="50" y="100" width="10" height="10"/>
    <rect x="60" y="130" width="10" height="10"/>
    <rect x="60" y="150" width="10" height="10"/>
    <rect x="220" y="160" width="10" height="10"/>
    <rect x="140" y="180" width="10" height="10"/>
    <rect x="180" y="180" width="10" height="10"/>
    <rect x="30" y="190" width="10" height="10"/>
    <rect x="60" y="190" width="10" height="10"/>
    <rect x="240" y="210" width="10" height="10"/>
    <rect x="240" y="240" width="10" height="10"/>
    <rect x="100" y="250" width="10" height="10"/>
    <rect x="260" y="260" width="10" height="10"/>
    <rect x="100" y="270" width="10" height="10"/>
    <rect x="140" y="280" width="10" height="10"/>
    <rect x="180" y="280" width="10" height="10"/>
  </g>
  <g fill="#000911">
    <rect x="140" y="0" width="10" height="10"/>
    <rect x="100" y="50" width="10" height="10"/>
    <rect x="100" y="90" width="10" height="10"/>
    <rect x="120" y="110" width="10" height="10"/>
    <rect x="190" y="120" width="10" height="10"/>
    <rect x="20" y="160" width="10" height="10"/>
    <rect x="180" y="160" width="10" height="10"/>
    <rect x="160" y="190" width="10" height="10"/>
    <rect x="160" y="200" width="10" height="10"/>
    <rect x="210" y="200" width="10" height="10"/>
    <rect x="10" y="210" width="20" height="10"/>
    <rect x="120" y="220" width="10" height="10"/>
    <rect x="240" y="220" width="10" height="10"/>
    <rect x="170" y="230" width="10" height="10"/>
    <rect x="260" y="240" width="10" height="10"/>
    <rect x="140" y="250" width="10" height="10"/>
    <rect x="240" y="250" width="10" height="10"/>
    <rect x="180" y="260" width="10" height="10"/>
    <rect x="110" y="270" width="10" height="10"/>
    <rect x="230" y="270" width="10" height="10"/>
    <rect x="170" y="280" width="10" height="10"/>
    <rect x="90" y="290" width="10" height="10"/>
  </g>
  <g fill="#000e15">
    <rect x="150" y="0" width="10" height="10"/>
    <rect x="120" y="20" width="10" height="10"/>
    <rect x="90" y="30" width="10" height="10"/>
    <rect x="140" y="30" width="10" height="10"/>
    <rect x="90" y="50" width="10" height="10"/>
    <rect x="110" y="90" width="20" height="10"/>
    <rect x="80" y="120" width="10" height="10"/>
    <rect x="110" y="120" width="10" height="10"/>
    <rect x="50" y="170" width="10" height="10"/>
    <rect x="160" y="170" width="10" height="10"/>
    <rect x="50" y="180" width="10" height="10"/>
    <rect x="130" y="180" width="10" height="10"/>
    <rect x="110" y="200" width="10" height="10"/>
    <rect x="110" y="210" width="10" height="10"/>
    <rect x="90" y="230" width="10" height="10"/>
    <rect x="120" y="250" width="10" height="10"/>
  </g>
  <g fill="#00090f">
    <rect x="90" y="10" width="10" height="10"/>
    <rect x="150" y="10" width="10" height="10"/>
    <rect x="160" y="40" width="10" height="10"/>
    <rect x="170" y="60" width="10" height="10"/>
    <rect x="170" y="70" width="10" height="10"/>
    <rect x="100" y="100" width="10" height="10"/>
    <rect x="160" y="100" width="10" height="10"/>
    <rect x="70" y="110" width="10" height="10"/>
    <rect x="130" y="110" width="10" height="10"/>
    <rect x="160" y="110" width="20" height="10"/>
    <rect x="70" y="120" width="10" height="10"/>
    <rect x="100" y="120" width="10" height="10"/>
    <rect x="130" y="120" width="10" height="10"/>
    <rect x="160" y="120" width="20" height="10"/>
    <rect x="200" y="120" width="10" height="10"/>
    <rect x="100" y="130" width="10" height="10"/>
    <rect x="90" y="140" width="10" height="10"/>
    <rect x="130" y="140" width="10" height="10"/>
    <rect x="170" y="140" width="20" height="10"/>
    <rect x="20" y="150" width="10" height="10"/>
    <rect x="50" y="150" width="10" height="10"/>
    <rect x="80" y="150" width="20" height="10"/>
    <rect x="120" y="150" width="30" height="10"/>
    <rect x="180" y="150" width="10" height="10"/>
    <rect x="80" y="160" width="20" height="10"/>
    <rect x="120" y="160" width="20" height="10"/>
    <rect x="70" y="170" width="10" height="10"/>
    <rect x="120" y="170" width="10" height="10"/>
    <rect x="140" y="170" width="20" height="10"/>
    <rect x="180" y="170" width="10" height="10"/>
    <rect x="110" y="180" width="10" height="10"/>
    <rect x="150" y="180" width="10" height="10"/>
    <rect x="110" y="190" width="20" height="10"/>
    <rect x="20" y="200" width="10" height="10"/>
    <rect x="100" y="200" width="10" height="10"/>
    <rect x="130" y="200" width="10" height="10"/>
    <rect x="40" y="210" width="10" height="10"/>
    <rect x="90" y="210" width="10" height="10"/>
    <rect x="130" y="210" width="20" height="10"/>
    <rect x="160" y="210" width="10" height="10"/>
    <rect x="210" y="210" width="10" height="10"/>
    <rect x="10" y="220" width="10" height="10"/>
    <rect x="130" y="220" width="10" height="10"/>
    <rect x="160" y="220" width="10" height="10"/>
    <rect x="220" y="220" width="10" height="10"/>
    <rect x="100" y="230" width="10" height="10"/>
    <rect x="130" y="230" width="20" height="10"/>
    <rect x="80" y="240" width="10" height="10"/>
    <rect x="140" y="240" width="10" height="10"/>
    <rect x="180" y="240" width="10" height="10"/>
    <rect x="140" y="260" width="10" height="10"/>
    <rect x="240" y="260" width="10" height="10"/>
    <rect x="60" y="280" width="10" height="10"/>
    <rect x="140" y="290" width="10" height="10"/>
    <rect x="140" y="300" width="10" height="10"/>
  </g>
  <g fill="#000a10">
    <rect x="100" y="10" width="10" height="10"/>
    <rect x="90" y="70" width="10" height="10"/>
    <rect x="80" y="80" width="10" height="10"/>
    <rect x="110" y="80" width="10" height="10"/>
    <rect x="170" y="90" width="10" height="10"/>
    <rect x="130" y="100" width="10" height="10"/>
    <rect x="130" y="130" width="10" height="10"/>
    <rect x="140" y="140" width="10" height="10"/>
    <rect x="110" y="150" width="10" height="10"/>
    <rect x="60" y="170" width="10" height="10"/>
    <rect x="170" y="210" width="10" height="10"/>
    <rect x="40" y="220" width="10" height="10"/>
    <rect x="140" y="220" width="10" height="10"/>
    <rect x="130" y="240" width="10" height="10"/>
    <rect x="150" y="240" width="10" height="10"/>
    <rect x="60" y="270" width="10" height="10"/>
  </g>
  <g fill="#001118">
    <rect x="110" y="10" width="20" height="10"/>
    <rect x="140" y="20" width="10" height="10"/>
    <rect x="100" y="30" width="30" height="10"/>
    <rect x="110" y="40" width="10" height="10"/>
    <rect x="70" y="100" width="10" height="10"/>
    <rect x="170" y="100" width="10" height="10"/>
    <rect x="150" y="130" width="10" height="10"/>
    <rect x="60" y="160" width="10" height="10"/>
    <rect x="80" y="200" width="10" height="10"/>
    <rect x="80" y="210" width="10" height="10"/>
    <rect x="150" y="220" width="10" height="10"/>
    <rect x="80" y="230" width="10" height="10"/>
  </g>
  <g fill="#001017">
    <rect x="130" y="10" width="20" height="10"/>
    <rect x="90" y="40" width="10" height="10"/>
    <rect x="120" y="40" width="20" height="10"/>
    <rect x="140" y="60" width="10" height="10"/>
    <rect x="90" y="90" width="10" height="10"/>
    <rect x="80" y="100" width="10" height="10"/>
    <rect x="150" y="100" width="10" height="10"/>
    <rect x="80" y="110" width="10" height="10"/>
    <rect x="90" y="180" width="10" height="10"/>
    <rect x="40" y="190" width="10" height="10"/>
    <rect x="140" y="200" width="10" height="10"/>
    <rect x="80" y="220" width="10" height="10"/>
  </g>
  <g fill="#000f17">
    <rect x="100" y="20" width="20" height="10"/>
    <rect x="130" y="20" width="10" height="10"/>
    <rect x="130" y="30" width="10" height="10"/>
    <rect x="140" y="50" width="10" height="10"/>
    <rect x="140" y="70" width="10" height="10"/>
    <rect x="160" y="70" width="10" height="10"/>
    <rect x="140" y="80" width="10" height="10"/>
    <rect x="140" y="90" width="10" height="10"/>
    <rect x="160" y="90" width="10" height="10"/>
    <rect x="190" y="110" width="10" height="10"/>
    <rect x="110" y="130" width="10" height="10"/>
    <rect x="160" y="180" width="10" height="10"/>
    <rect x="90" y="190" width="10" height="10"/>
    <rect x="140" y="190" width="10" height="10"/>
    <rect x="90" y="200" width="10" height="10"/>
    <rect x="150" y="200" width="10" height="10"/>
  </g>
  <g fill="#000f16">
    <rect x="150" y="20" width="10" height="10"/>
    <rect x="140" y="40" width="10" height="10"/>
    <rect x="130" y="50" width="10" height="10"/>
    <rect x="160" y="60" width="10" height="10"/>
    <rect x="160" y="80" width="10" height="10"/>
    <rect x="150" y="110" width="10" height="10"/>
    <rect x="180" y="110" width="10" height="10"/>
    <rect x="150" y="120" width="10" height="10"/>
    <rect x="100" y="150" width="10" height="10"/>
    <rect x="100" y="160" width="10" height="10"/>
    <rect x="160" y="160" width="10" height="10"/>
    <rect x="100" y="170" width="10" height="10"/>
    <rect x="150" y="210" width="10" height="10"/>
    <rect x="90" y="240" width="10" height="10"/>
    <rect x="120" y="240" width="10" height="10"/>
    <rect x="120" y="260" width="20" height="10"/>
  </g>
  <g fill="#000a11">
    <rect x="160" y="20" width="10" height="10"/>
    <rect x="120" y="50" width="10" height="10"/>
    <rect x="160" y="50" width="10" height="10"/>
    <rect x="110" y="60" width="10" height="10"/>
    <rect x="120" y="70" width="10" height="10"/>
    <rect x="120" y="80" width="10" height="10"/>
    <rect x="180" y="80" width="10" height="10"/>
    <rect x="100" y="110" width="10" height="10"/>
    <rect x="90" y="120" width="10" height="10"/>
    <rect x="210" y="130" width="10" height="10"/>
    <rect x="250" y="230" width="10" height="10"/>
    <rect x="110" y="240" width="10" height="10"/>
    <rect x="130" y="250" width="10" height="10"/>
  </g>
  <g fill="#000c11">
    <rect x="150" y="30" width="20" height="10"/>
    <rect x="80" y="40" width="10" height="10"/>
    <rect x="40" y="120" width="10" height="10"/>
    <rect x="180" y="120" width="10" height="10"/>
    <rect x="230" y="150" width="10" height="10"/>
    <rect x="170" y="250" width="10" height="10"/>
    <rect x="220" y="280" width="10" height="10"/>
  </g>
  <g fill="#00080d">
    <rect x="170" y="30" width="10" height="10"/>
    <rect x="180" y="130" width="10" height="10"/>
    <rect x="150" y="140" width="10" height="10"/>
    <rect x="80" y="190" width="10" height="10"/>
    <rect x="40" y="230" width="10" height="10"/>
    <rect x="170" y="240" width="10" height="10"/>
    <rect x="30" y="250" width="10" height="10"/>
    <rect x="110" y="250" width="10" height="10"/>
    <rect x="190" y="260" width="10" height="10"/>
    <rect x="130" y="280" width="10" height="10"/>
    <rect x="230" y="280" width="10" height="10"/>
    <rect x="150" y="310" width="10" height="10"/>
  </g>
  <g fill="#000910">
    <rect x="150" y="40" width="10" height="10"/>
    <rect x="170" y="40" width="10" height="10"/>
    <rect x="80" y="50" width="10" height="10"/>
    <rect x="90" y="60" width="10" height="10"/>
    <rect x="130" y="70" width="10" height="10"/>
    <rect x="70" y="80" width="10" height="10"/>
    <rect x="130" y="80" width="10" height="10"/>
    <rect x="170" y="80" width="10" height="10"/>
    <rect x="60" y="90" width="10" height="10"/>
    <rect x="150" y="90" width="10" height="10"/>
    <rect x="120" y="100" width="10" height="10"/>
    <rect x="40" y="110" width="10" height="10"/>
    <rect x="30" y="130" width="10" height="10"/>
    <rect x="60" y="140" width="10" height="10"/>
    <rect x="110" y="170" width="10" height="10"/>
    <rect x="50" y="190" width="10" height="10"/>
    <rect x="40" y="200" width="10" height="10"/>
    <rect x="220" y="210" width="10" height="10"/>
    <rect x="90" y="220" width="10" height="10"/>
    <rect x="210" y="220" width="10" height="10"/>
    <rect x="260" y="230" width="10" height="10"/>
    <rect x="70" y="240" width="10" height="10"/>
    <rect x="100" y="240" width="10" height="10"/>
    <rect x="150" y="250" width="10" height="10"/>
    <rect x="260" y="250" width="10" height="10"/>
    <rect x="60" y="260" width="10" height="10"/>
    <rect x="100" y="260" width="10" height="10"/>
    <rect x="150" y="260" width="10" height="10"/>
    <rect x="180" y="270" width="10" height="10"/>
    <rect x="170" y="290" width="10" height="10"/>
  </g>
  <g fill="#000c14">
    <rect x="110" y="50" width="10" height="10"/>
    <rect x="100" y="60" width="10" height="10"/>
    <rect x="130" y="60" width="10" height="10"/>
    <rect x="100" y="70" width="10" height="10"/>
    <rect x="100" y="80" width="10" height="10"/>
    <rect x="180" y="100" width="10" height="10"/>
    <rect x="160" y="130" width="10" height="10"/>
    <rect x="70" y="140" width="10" height="10"/>
    <rect x="100" y="140" width="20" height="10"/>
    <rect x="70" y="150" width="10" height="10"/>
    <rect x="160" y="150" width="10" height="10"/>
    <rect x="90" y="170" width="10" height="10"/>
    <rect x="150" y="190" width="10" height="10"/>
    <rect x="110" y="220" width="10" height="10"/>
    <rect x="90" y="250" width="10" height="10"/>
  </g>
  <g fill="#00080f">
    <rect x="150" y="50" width="10" height="10"/>
    <rect x="80" y="60" width="10" height="10"/>
    <rect x="70" y="90" width="10" height="10"/>
    <rect x="180" y="90" width="10" height="10"/>
    <rect x="140" y="100" width="10" height="10"/>
    <rect x="190" y="100" width="10" height="10"/>
    <rect x="120" y="120" width="10" height="10"/>
    <rect x="170" y="130" width="10" height="10"/>
    <rect x="210" y="140" width="10" height="10"/>
    <rect x="110" y="160" width="10" height="10"/>
    <rect x="140" y="160" width="10" height="10"/>
    <rect x="190" y="170" width="10" height="10"/>
    <rect x="60" y="180" width="10" height="10"/>
    <rect x="100" y="190" width="10" height="10"/>
    <rect x="130" y="190" width="10" height="10"/>
    <rect x="190" y="190" width="20" height="10"/>
    <rect x="50" y="200" width="10" height="10"/>
    <rect x="200" y="200" width="10" height="10"/>
    <rect x="170" y="220" width="10" height="10"/>
    <rect x="230" y="220" width="10" height="10"/>
    <rect x="0" y="230" width="10" height="10"/>
    <rect x="150" y="230" width="10" height="10"/>
    <rect x="30" y="240" width="10" height="10"/>
    <rect x="180" y="250" width="10" height="10"/>
    <rect x="70" y="260" width="10" height="10"/>
    <rect x="50" y="280" width="10" height="10"/>
    <rect x="50" y="290" width="10" height="10"/>
    <rect x="180" y="290" width="10" height="10"/>
    <rect x="60" y="310" width="10" height="10"/>
  </g>
  <g fill="#000a0f">
    <rect x="170" y="50" width="10" height="10"/>
    <rect x="110" y="70" width="10" height="10"/>
    <rect x="70" y="130" width="10" height="10"/>
    <rect x="120" y="140" width="10" height="10"/>
    <rect x="160" y="140" width="10" height="10"/>
    <rect x="170" y="150" width="10" height="10"/>
    <rect x="170" y="160" width="10" height="10"/>
    <rect x="80" y="180" width="10" height="10"/>
    <rect x="190" y="180" width="10" height="10"/>
    <rect x="120" y="200" width="10" height="10"/>
    <rect x="100" y="220" width="10" height="10"/>
    <rect x="160" y="230" width="10" height="10"/>
    <rect x="180" y="230" width="10" height="10"/>
    <rect x="190" y="250" width="10" height="10"/>
    <rect x="10" y="260" width="10" height="10"/>
    <rect x="70" y="270" width="10" height="10"/>
    <rect x="140" y="270" width="10" height="10"/>
    <rect x="180" y="300" width="10" height="10"/>
    <rect x="200" y="310" width="10" height="10"/>
  </g>
  <g fill="#00090e">
    <rect x="80" y="70" width="10" height="10"/>
    <rect x="90" y="130" width="10" height="10"/>
    <rect x="120" y="130" width="10" height="10"/>
    <rect x="200" y="130" width="10" height="10"/>
    <rect x="150" y="150" width="10" height="10"/>
    <rect x="190" y="150" width="10" height="10"/>
    <rect x="150" y="160" width="10" height="10"/>
    <rect x="70" y="180" width="10" height="10"/>
    <rect x="200" y="180" width="10" height="10"/>
    <rect x="30" y="200" width="10" height="10"/>
    <rect x="120" y="210" width="10" height="10"/>
    <rect x="110" y="260" width="10" height="10"/>
    <rect x="190" y="270" width="10" height="10"/>
  </g>
  <g fill="#00080e">
    <rect x="150" y="70" width="10" height="10"/>
    <rect x="150" y="80" width="10" height="10"/>
    <rect x="90" y="110" width="10" height="10"/>
    <rect x="140" y="120" width="10" height="10"/>
    <rect x="140" y="130" width="10" height="10"/>
    <rect x="50" y="160" width="10" height="10"/>
    <rect x="100" y="180" width="10" height="10"/>
    <rect x="50" y="210" width="10" height="10"/>
    <rect x="100" y="210" width="10" height="10"/>
    <rect x="250" y="220" width="10" height="10"/>
    <rect x="70" y="230" width="10" height="10"/>
    <rect x="210" y="230" width="10" height="10"/>
    <rect x="70" y="250" width="10" height="10"/>
    <rect x="210" y="250" width="10" height="10"/>
    <rect x="100" y="280" width="10" height="10"/>
    <rect x="100" y="290" width="10" height="10"/>
    <rect x="130" y="290" width="10" height="10"/>
  </g>
  <g fill="#040c11">
    <rect x="50" y="90" width="10" height="10"/>
    <rect x="40" y="250" width="10" height="10"/>
    <rect x="190" y="280" width="10" height="10"/>
  </g>
  <g fill="#00060d">
    <rect x="80" y="90" width="10" height="10"/>
    <rect x="200" y="110" width="10" height="10"/>
    <rect x="30" y="120" width="10" height="10"/>
    <rect x="80" y="130" width="10" height="10"/>
    <rect x="220" y="140" width="10" height="10"/>
    <rect x="210" y="150" width="10" height="10"/>
    <rect x="30" y="270" width="10" height="10"/>
    <rect x="130" y="270" width="10" height="10"/>
    <rect x="50" y="300" width="10" height="10"/>
    <rect x="130" y="300" width="10" height="10"/>
  </g>
  <g fill="#000308">
    <rect x="190" y="90" width="10" height="10"/>
    <rect x="20" y="170" width="10" height="10"/>
    <rect x="40" y="170" width="10" height="10"/>
    <rect x="20" y="190" width="10" height="10"/>
    <rect x="30" y="210" width="10" height="10"/>
    <rect x="200" y="210" width="10" height="10"/>
    <rect x="30" y="220" width="10" height="10"/>
    <rect x="80" y="250" width="10" height="10"/>
    <rect x="150" y="270" width="10" height="10"/>
    <rect x="70" y="280" width="10" height="10"/>
    <rect x="140" y="310" width="10" height="10"/>
    <rect x="190" y="310" width="10" height="10"/>
  </g>
  <g fill="#000609">
    <rect x="30" y="110" width="10" height="10"/>
    <rect x="190" y="160" width="10" height="10"/>
    <rect x="200" y="170" width="10" height="10"/>
    <rect x="30" y="180" width="10" height="10"/>
    <rect x="180" y="220" width="10" height="10"/>
    <rect x="150" y="280" width="10" height="10"/>
    <rect x="190" y="300" width="10" height="10"/>
    <rect x="100" y="310" width="10" height="10"/>
    <rect x="130" y="310" width="10" height="10"/>
  </g>
  <g fill="#071017">
    <rect x="50" y="110" width="10" height="10"/>
    <rect x="60" y="120" width="10" height="10"/>
    <rect x="210" y="120" width="10" height="10"/>
    <rect x="10" y="200" width="10" height="10"/>
    <rect x="120" y="270" width="10" height="10"/>
    <rect x="110" y="280" width="10" height="10"/>
    <rect x="60" y="290" width="10" height="10"/>
    <rect x="150" y="290" width="10" height="10"/>
  </g>
  <rect fill="#050e14" x="190" y="130" width="10" height="10"/>
  <rect fill="#03060c" x="170" y="170" width="10" height="10"/>
  <rect fill="#000007" x="200" y="220" width="10" height="10"/>
  <g fill="#000712">
    <rect x="230" y="230" width="10" height="10"/>
    <rect x="0" y="240" width="10" height="10"/>
  </g>
  <g fill="#061328">
    <rect x="10" y="240" width="10" height="10"/>
    <rect x="110" y="290" width="10" height="10"/>
  </g>
  <g fill="#040c0f">
    <rect x="10" y="250" width="10" height="10"/>
    <rect x="120" y="290" width="10" height="10"/>
  </g>
</svg>
