<svg width="100" height="90" viewBox="0 0 100 90" fill="none" xmlns="http://www.w3.org/2000/svg">
<path d="M37 8H44L61 12L72 20L78 25L82 44V51L74 66L64 74L55 80L46 79L32 75L14 64L10 39L17 22L26 15L37 8Z" fill="#E01D25"/>
<path d="M49 30H55L59 36V40L62 41L68 53L60 61L53 69L50 72L45 71L26 63L24 60L26 36L27 34L49 30Z" fill="#DB333E"/>
<path d="M81 49L82 51L74 66L64 74L55 80L46 79L32 75L16 65V63L19 62H26L47 71L51 70L58 63L65 55L68 52L81 49Z" fill="#C40C15"/>
<path d="M19 62H26L47 71L52 76L53 80L42 78L32 75L16 65V63L19 62Z" fill="#7B0405"/>
<path d="M66 16L71 19L68 21L66 20V16Z" fill="#D42732"/>
<path d="M75 23L78 25L77 28H75V23Z" fill="#DC242B"/>
<path d="M16 24L18 27V29H15L16 24Z" fill="#D9232B"/>
</svg>
