<svg width="98" height="100" viewBox="0 0 98 100" fill="none" xmlns="http://www.w3.org/2000/svg">
<path d="M49 6L54 8L72 19L89 30V48L88 71L64 87L52 95L48 94L32 84L17 74L13 71L12 53V30L37 14L49 6Z" fill="#F16C00"/>
<path d="M49 6L54 8L72 19L86 28V30L49 31H13L15 40L19 52V55H21L22 62H24L26 71H75L88 70L84 74L64 87L52 95L48 94L32 84L17 74L13 71L12 53V30L37 14L49 6Z" fill="#F54502"/>
<path d="M49 31L53 33L59 44L68 59L74 69V71H27L33 59L39 49L40 46H42L44 40L49 31Z" fill="#F38102"/>
<path d="M83 70H88L84 74L64 87L52 95L48 94L32 84L17 74L14 71H75L83 70Z" fill="#F54C01"/>
<path d="M12 30H49V31H13L15 40L19 52V55H21L22 62H24L25 71H13L12 53V30Z" fill="#F25304"/>
<path d="M88 30H89V48L88 70L83 71H75V66L79 57L82 50L87 37L88 30Z" fill="#F55402"/>
<path d="M83 70H88L84 74L64 87L57 92L55 91L75 71L83 70Z" fill="#BB2906"/>
<path d="M14 71H26L38 83L43 88L45 91L40 89L23 78L14 72V71Z" fill="#BB2805"/>
<path d="M88 30H89V48L88 70H87V44H85L86 40L88 30Z" fill="#E75210"/>
<path d="M13 35H15L20 50V55L18 52L13 38V35Z" fill="#F46002"/>
<path d="M14 71L22 72L23 77L18 75L14 71Z" fill="#B52909"/>
<path d="M36 83L41 85L37 86L36 83Z" fill="#C32A02"/>
</svg>
