<?xml version="1.0" encoding="UTF-8"?>
<!-- Generator: visioncortex VTracer 0.6.5 -->
<svg version="1.1" xmlns="http://www.w3.org/2000/svg" width="150" height="84">
<path d="M0,0 L150,0 L150,84 L0,84 Z " fill="#050F0D" transform="translate(0,0)"/>
<path d="M0,0 L72,0 L72,2 L75,1 L85,1 L90,5 L90,7 L95,9 L106,15 L102,17 L92,17 L92,15 L85,14 L80,9 L79,8 L72,7 L75,4 L66,5 L53,4 L53,6 L65,6 L65,8 L68,8 L68,10 L76,10 L81,15 L80,17 L85,17 L86,15 L92,18 L93,26 L96,26 L98,30 L96,30 L96,33 L88,33 L88,38 L98,38 L98,41 L96,41 L99,44 L98,50 L96,50 L96,53 L92,53 L94,45 L84,44 L83,42 L76,38 L73,37 L72,31 L76,31 L78,34 L82,32 L83,27 L89,28 L90,26 L88,26 L88,24 L83,24 L82,30 L77,29 L75,26 L72,26 L74,22 L77,18 L75,19 L68,19 L62,15 L57,16 L60,19 L66,20 L65,28 L65,30 L63,30 L63,33 L59,34 L55,32 L55,30 L60,29 L58,25 L53,23 L50,20 L42,19 L43,23 L50,24 L51,29 L42,27 L37,26 L35,26 L35,29 L32,29 L32,25 L28,24 L28,20 L23,16 L17,15 L17,17 L11,19 L6,19 L6,21 L3,21 L2,15 L0,15 L0,13 L7,12 L7,10 L12,9 L12,7 L2,10 L1,7 L3,7 L3,5 L-2,6 Z M33,23 L34,25 Z M99,27 L102,28 L102,30 L104,30 L106,35 L107,46 L106,48 L102,47 L104,45 L99,44 L99,41 L101,40 L101,33 Z " fill="#040B0A" transform="translate(15,0)"/>
<path d="M0,0 L17,0 L19,2 L19,5 L21,5 L21,7 L28,9 L30,10 L29,8 L30,5 L28,5 L28,3 L35,4 L40,9 L39,11 L36,10 L36,12 L38,12 L41,18 L41,21 L39,21 L39,23 L42,24 L42,26 L45,27 L45,34 L42,35 L40,41 L38,47 L35,48 L33,53 L31,53 L32,56 L36,55 L38,49 L41,49 L41,47 L43,47 L45,52 L43,51 L42,55 L38,58 L35,58 L35,60 L32,59 L30,63 L23,62 L23,64 L17,67 L12,68 L0,68 L0,70 L12,71 L13,72 L17,72 L18,67 L28,66 L25,69 L22,71 L19,71 L18,74 L10,75 L10,77 L5,77 L5,79 L-9,82 L-13,81 L-7,78 L-6,71 L-2,70 L-2,68 L-4,68 L-4,66 L-6,66 L-6,64 L-4,64 L-4,62 L-2,62 L-2,66 L2,66 L0,59 L-2,57 L-1,53 L3,53 L3,48 L5,48 L4,61 L11,61 L11,56 L15,55 L16,53 L24,53 L24,50 L26,50 L27,44 L24,43 L24,41 L26,41 L26,38 L16,38 L16,33 L24,33 L25,29 L24,26 L21,27 L20,26 L20,18 L14,16 L13,17 L8,17 L8,14 L4,11 L-4,10 L-4,8 L-7,8 L-7,6 L-19,6 L-19,4 L-1,4 L4,3 L3,6 L10,9 L13,13 L20,15 L20,17 L28,16 L32,15 L21,9 L18,7 L18,5 L14,3 L13,2 L0,2 Z M27,27 L29,34 L29,40 L27,41 L28,45 L32,45 L30,48 L34,48 L35,43 L33,33 L32,30 L30,30 L29,27 Z " fill="#181E16" transform="translate(87,0)"/>
<path d="M0,0 L16,0 L16,84 L-15,84 L-12,80 L-10,80 L-9,77 L-7,77 L-6,71 L-4,71 L-5,69 L-11,68 L-11,70 L-14,70 L-14,68 L-12,68 L-12,65 L-7,66 L-5,61 L-3,61 L-2,57 L1,57 L2,49 L1,45 L-1,45 L0,37 L5,36 L6,27 L2,22 L2,20 L6,22 L10,28 L9,33 L8,40 L8,45 L10,45 L11,39 L12,37 L10,37 L10,35 L14,36 L12,24 L9,21 L5,19 L5,17 L8,17 L8,15 L6,15 L6,13 L1,11 L1,7 L-3,5 L-4,2 L-1,2 L-1,4 L1,4 Z " fill="#819086" transform="translate(134,0)"/>
<path d="M0,0 L4,1 L5,5 L8,6 L8,8 L4,11 L2,13 L1,16 L-3,16 L-2,21 L5,23 L3,25 L4,28 L2,28 L2,30 L5,31 L2,32 L-6,32 L-10,29 L-14,28 L-10,34 L-13,36 L-16,36 L-17,30 L-19,29 L-19,27 L-29,25 L-29,27 L-26,27 L-24,30 L-21,34 L-18,35 L-17,37 L-5,39 L1,41 L-3,38 L-5,36 L-1,36 L-1,34 L4,36 L11,37 L16,40 L20,41 L21,39 L22,44 L24,44 L24,46 L14,45 L14,47 L10,48 L-1,48 L-10,46 L-15,45 L-19,41 L-19,39 L-21,39 L-21,41 L-26,40 L-26,38 L-28,38 L-24,44 L-17,48 L-17,49 L-22,49 L-29,46 L-33,46 L-31,47 L-31,51 L-40,51 L-40,33 L-36,35 L-36,37 L-34,36 L-36,31 L-34,31 L-34,34 L-32,34 L-32,31 L-28,31 L-35,29 L-34,20 L-39,19 L-39,6 L-36,6 L-36,4 L-33,5 L-31,3 L-30,8 L-30,16 L-32,16 L-32,11 L-34,11 L-31,18 L-23,22 L-23,25 L-19,21 L-15,22 L-16,17 L-14,8 L-11,7 L-11,9 L-5,11 L0,8 L-2,2 Z " fill="#020908" transform="translate(40,25)"/>
<path d="M0,0 L30,0 L31,4 L29,4 L29,2 L26,2 L31,7 L32,11 L36,13 L36,15 L38,15 L38,17 L35,17 L36,19 L41,22 L43,24 L44,36 L40,35 L40,37 L42,37 L41,47 L40,45 L38,45 L37,35 L39,32 L38,27 L34,21 L32,20 L37,27 L37,33 L35,36 L33,36 L32,39 L32,37 L30,37 L29,45 L31,45 L33,48 L32,55 L31,57 L28,57 L27,61 L25,61 L23,66 L18,65 L18,68 L14,69 L12,67 L1,67 L0,72 L-7,73 L-7,72 L-17,70 L-17,68 L0,66 L6,64 L6,62 L13,62 L15,58 L18,60 L18,58 L23,55 L25,55 L25,50 L27,50 L26,47 L24,47 L24,49 L21,49 L21,54 L18,57 L14,56 L14,53 L16,51 L18,50 L18,48 L21,45 L23,40 L25,35 L27,34 L27,27 L22,23 L22,21 L24,21 L21,15 L21,12 L19,12 L19,10 L23,9 L19,7 L18,4 L11,3 L11,5 L13,5 L13,9 L17,12 L15,13 L9,9 L4,7 L4,5 L2,5 Z " fill="#040A09" transform="translate(104,0)"/>
<path d="M0,0 L15,0 L13,6 L18,5 L17,10 L24,7 L27,7 L27,9 L22,10 L22,12 L15,13 L15,15 L17,15 L18,22 L20,22 L20,27 L17,28 L18,31 L17,35 L19,35 L19,33 L21,33 L21,36 L19,36 L19,41 L21,41 L21,37 L25,38 L26,40 L25,47 L21,46 L19,50 L17,50 L17,47 L12,46 L7,42 L6,36 L8,36 L8,41 L10,41 L9,33 L4,29 L4,31 L1,31 L2,44 L6,45 L6,52 L5,54 L12,55 L13,57 L8,56 L8,59 L6,59 L6,56 L4,56 L6,60 L8,62 L4,62 L0,58 Z " fill="#040B0A" transform="translate(0,0)"/>
<path d="M0,0 L6,0 L13,5 L12,9 L16,10 L16,14 L19,16 L15,25 L15,28 L18,29 L19,40 L17,44 L17,46 L10,46 L7,44 L7,46 L5,47 L10,50 L9,52 L3,50 L-9,48 L-10,45 L-14,44 L-16,42 L-18,41 L-18,37 L-21,37 L-21,35 L-11,37 L-11,39 L-8,40 L-8,46 L-3,43 L-6,40 L-6,38 L1,39 L2,41 L12,41 L10,40 L10,38 L12,38 L10,33 L6,31 L5,26 L9,25 L10,21 L14,18 L16,18 L16,16 L12,15 L12,11 L7,12 L9,18 L6,21 L2,22 L-3,19 L-3,17 L-5,18 L-6,24 L-11,22 L-11,26 L-13,26 L-13,21 L-11,21 L-11,18 L-13,18 L-13,20 L-15,20 L-15,13 L-13,12 L-12,7 L-14,6 L-11,6 L-11,4 L-4,2 L0,2 Z M16,8 Z " fill="#031815" transform="translate(32,15)"/>
<path d="M0,0 L2,0 L3,2 L7,3 L7,1 L9,1 L14,7 L21,7 L27,9 L43,10 L49,12 L49,13 L40,13 L44,15 L44,17 L46,19 L36,19 L32,16 L24,15 L33,20 L33,21 L-12,21 L-12,13 L-5,12 L-3,13 L-3,9 L-6,8 L-6,7 L1,8 L6,10 L9,10 L2,5 Z " fill="#101C1C" transform="translate(12,63)"/>
<path d="M0,0 L1,0 L1,46 L-24,46 L-24,44 L-22,44 L-20,40 L-15,37 L-12,37 L-12,34 L-10,34 L-11,32 L-11,26 L-8,26 L-8,18 L-6,15 L-4,15 L-3,10 L-1,1 Z " fill="#090F17" transform="translate(149,38)"/>
<path d="M0,0 L2,0 L1,13 L8,13 L9,10 L9,12 L13,10 L13,8 L21,8 L21,6 L25,6 L23,10 L19,12 L20,16 L14,19 L9,20 L-3,20 L-3,22 L9,23 L10,24 L14,24 L15,19 L25,18 L22,21 L19,23 L16,23 L15,26 L7,27 L7,29 L2,29 L2,31 L-12,34 L-16,33 L-10,30 L-9,23 L-5,22 L-5,20 L-7,20 L-7,18 L-9,18 L-9,16 L-7,16 L-7,14 L-5,14 L-5,18 L-1,18 L-3,11 L-5,9 L-4,5 L0,5 Z " fill="#192925" transform="translate(90,48)"/>
<path d="M0,0 L6,1 L2,11 L2,14 L5,15 L6,26 L4,30 L4,32 L-3,32 L-6,30 L-6,32 L-8,33 L-3,36 L-4,38 L-10,36 L-22,34 L-23,31 L-27,30 L-29,28 L-31,27 L-31,23 L-34,23 L-34,21 L-24,23 L-24,25 L-21,26 L-21,32 L-16,29 L-19,26 L-19,24 L-12,25 L-11,27 L-1,27 L-3,26 L-3,24 L-1,24 L-3,19 L-7,17 L-8,12 L-4,11 L-3,7 L1,4 L3,4 L3,2 L0,2 Z " fill="#283832" transform="translate(45,29)"/>
<path d="M0,0 L30,0 L31,4 L29,4 L29,2 L26,2 L31,7 L32,11 L36,13 L36,15 L38,15 L38,17 L35,17 L36,19 L41,22 L43,24 L44,36 L40,35 L40,37 L42,37 L41,47 L40,45 L38,45 L37,35 L39,32 L38,27 L34,21 L32,20 L36,27 L32,26 L30,20 L28,20 L28,18 L26,18 L25,13 L29,14 L19,3 L16,2 L15,4 L11,3 L11,5 L13,5 L13,9 L17,12 L15,13 L9,9 L4,7 L4,5 L2,5 Z " fill="#121C1A" transform="translate(104,0)"/>
<path d="M0,0 L4,2 L8,8 L7,13 L6,20 L6,25 L8,25 L7,31 L5,31 L4,33 L3,32 L3,35 L0,48 L-2,48 L-2,51 L0,51 L1,46 L3,50 L3,52 L1,52 L1,55 L-6,58 L-9,62 L-11,62 L-11,64 L-17,64 L-14,60 L-12,60 L-11,57 L-9,57 L-8,51 L-6,51 L-7,49 L-13,48 L-13,50 L-16,50 L-16,48 L-14,48 L-14,45 L-9,46 L-7,41 L-5,41 L-4,37 L-1,37 L0,29 L-1,25 L-3,25 L-2,17 L3,16 L4,7 L0,2 Z " fill="#405154" transform="translate(136,20)"/>
<path d="M0,0 L4,2 L8,4 L17,4 L15,8 L12,12 L16,11 L18,15 L22,16 L22,10 L26,9 L28,10 L28,12 L30,12 L29,15 L24,14 L22,19 L18,21 L16,17 L12,17 L12,21 L9,20 L9,16 L6,16 L6,24 L8,26 L8,29 L5,28 L3,24 L-3,24 L-3,22 L-5,22 L-3,28 L-6,27 L-7,22 L-5,18 L3,19 L3,16 L5,16 L4,9 L6,6 L-1,6 L-3,2 Z " fill="#1E2F28" transform="translate(75,14)"/>
<path d="M0,0 L6,4 L5,7 L10,7 L11,5 L17,8 L17,16 L13,16 L13,14 L8,14 L7,20 L2,19 L0,16 L-3,16 L-1,12 L2,8 L0,9 L-7,9 L-10,6 L-10,2 Z " fill="#010706" transform="translate(90,10)"/>
<path d="M0,0 L2,0 L2,2 L5,3 L9,8 L8,11 L6,11 L8,17 L4,18 L2,16 L0,20 L1,24 L3,27 L0,29 L-3,29 L-4,23 L-6,22 L-6,20 L-14,19 L-15,15 L-10,15 L-10,18 L-6,14 L-2,15 L-3,10 L-1,1 Z " fill="#000303" transform="translate(27,32)"/>
<path d="M0,0 L1,0 L2,5 L2,13 L0,13 L0,8 L-2,8 L1,15 L6,19 L4,19 L5,22 L3,22 L3,24 L6,24 L8,27 L10,31 L0,30 L0,28 L4,28 L-3,26 L-2,17 L-7,16 L-7,3 L-4,3 L-4,1 L-1,2 Z " fill="#192A29" transform="translate(8,28)"/>
<path d="M0,0 L5,2 L5,7 L2,8 L3,11 L2,15 L4,15 L4,13 L6,13 L6,16 L4,16 L4,21 L6,21 L6,17 L10,18 L11,20 L10,27 L6,26 L4,30 L2,30 L2,27 L-3,26 L-8,22 L-9,16 L-7,16 L-7,21 L-5,21 L-5,13 L-3,11 L-2,19 L-1,24 L1,24 L1,17 L-1,17 L-1,9 L2,4 L0,4 Z " fill="#3B4A4B" transform="translate(15,20)"/>
<path d="M0,0 L2,0 L2,3 L5,4 L5,6 L9,7 L11,12 L19,17 L19,18 L14,18 L7,15 L3,15 L5,16 L5,20 L-4,20 L-4,2 L0,4 L0,6 L2,5 Z " fill="#030A0A" transform="translate(4,56)"/>
<path d="M0,0 L12,2 L20,6 L29,9 L29,10 L-8,10 L-10,4 L-2,4 L0,8 L2,7 L2,5 L4,5 Z " fill="#010403" transform="translate(11,74)"/>
<path d="M0,0 L0,3 L7,6 L10,10 L17,12 L17,14 L25,13 L27,14 L24,15 L25,19 L27,17 L27,22 L23,22 L21,18 L19,18 L18,22 L20,23 L17,23 L17,15 L11,13 L10,14 L5,14 L5,11 L1,8 L-7,7 L-7,5 L-10,5 L-10,3 L-22,3 L-22,1 L-4,1 Z " fill="#111F16" transform="translate(90,3)"/>
<path d="M0,0 L3,0 L3,23 L-10,23 L-10,18 L-7,18 L-5,9 Z " fill="#4E9F97" transform="translate(147,61)"/>
<path d="M0,0 L3,0 L3,3 L6,4 L4,5 L6,9 L10,8 L12,2 L15,2 L15,0 L17,0 L19,5 L17,4 L16,8 L12,11 L9,11 L9,13 L6,12 L4,16 L-4,16 L-5,12 L-3,12 L-2,10 L1,9 L2,7 L-2,7 L-2,9 L-10,9 L-9,12 L-14,13 L-15,9 L-11,8 L-10,6 L-2,6 L-2,3 L0,3 Z " fill="#2F3A38" transform="translate(113,47)"/>
<path d="M0,0 L4,1 L4,5 L0,6 L1,10 L3,12 L3,18 L-1,18 L-1,14 L-3,14 L-3,16 L-5,16 L-5,18 L-3,18 L-3,20 L-1,20 L0,23 L-5,23 L-4,26 L-11,25 L-10,14 L-6,8 L-1,3 Z " fill="#010904" transform="translate(86,48)"/>
<path d="M0,0 L10,2 L10,4 L13,5 L13,11 L18,8 L15,5 L15,3 L22,4 L23,6 L28,7 L25,8 L25,10 L28,11 L26,12 L31,15 L30,17 L24,15 L12,13 L11,10 L7,9 L5,7 L3,6 L3,2 L0,2 Z " fill="#071714" transform="translate(11,50)"/>
<path d="M0,0 L10,0 L12,1 L12,3 L17,5 L28,11 L24,13 L14,13 L14,11 L7,10 L2,5 Z " fill="#010302" transform="translate(93,4)"/>
<path d="M0,0 L2,0 L7,5 L12,9 L17,9 L17,11 L14,12 L18,16 L1,12 L3,16 L1,16 L2,19 L-1,19 L-4,16 L-10,16 L-9,21 L-12,21 L-12,13 L-5,12 L-3,13 L-3,9 L-6,8 L-6,7 L1,8 L6,10 L9,10 L2,5 Z " fill="#192726" transform="translate(12,63)"/>
<path d="M0,0 L6,2 L10,6 L20,9 L24,8 L23,14 L22,16 L18,16 L17,19 L13,19 L13,21 L10,21 L11,14 L13,14 L12,11 L2,8 L0,3 Z " fill="#2A372D" transform="translate(85,37)"/>
<path d="M0,0 L11,0 L11,22 L9,22 L7,16 L0,10 Z " fill="#080C0C" transform="translate(139,0)"/>
<path d="M0,0 L6,0 L13,5 L11,9 L-2,10 L-5,12 L-8,12 L-8,10 L-6,10 L-6,6 L-10,8 L-12,10 L-12,7 L-14,6 L-11,6 L-11,4 L-4,2 L0,2 Z " fill="#0F2825" transform="translate(32,15)"/>
<path d="M0,0 L5,0 L5,2 L7,2 L7,0 L9,0 L7,7 L3,4 L3,6 L0,6 L1,19 L5,20 L5,27 L4,29 L11,30 L12,32 L7,31 L7,34 L5,34 L5,31 L3,31 L5,35 L7,37 L3,37 L-1,33 L-1,5 Z " fill="#22423D" transform="translate(1,25)"/>
<path d="M0,0 L4,1 L-2,5 L-5,5 L-6,8 L-14,9 L-14,11 L-19,11 L-19,13 L-33,16 L-37,15 L-31,12 L-30,6 L-26,7 L-27,9 L-21,9 L-21,7 L-14,6 L-7,6 L-6,1 Z " fill="#3C4D4D" transform="translate(111,66)"/>
<path d="M0,0 L17,0 L19,2 L19,5 L21,5 L21,7 L28,9 L30,10 L29,8 L30,5 L28,5 L28,3 L35,4 L40,9 L39,11 L36,10 L36,12 L38,12 L39,17 L36,17 L36,15 L31,14 L21,9 L18,7 L18,5 L14,3 L13,2 L0,2 Z " fill="#474C49" transform="translate(87,0)"/>
<path d="M0,0 L5,1 L11,6 L12,9 L18,10 L17,13 L17,11 L11,12 L11,10 L-1,11 L-13,8 L-9,7 L-9,5 L-12,4 L-4,4 L1,6 L1,4 L-1,4 Z " fill="#07130F" transform="translate(63,65)"/>
<path d="M0,0 L1,0 L1,23 L-2,24 L-4,28 L-7,28 L-8,26 L-8,18 L-6,15 L-4,15 L-3,10 L-1,1 Z " fill="#030505" transform="translate(149,38)"/>
<path d="M0,0 L4,1 L4,3 L2,3 L2,5 L0,5 L0,9 L3,10 L5,14 L4,19 L-3,18 L-4,17 L-11,16 L-11,15 L-6,15 L-7,11 L-4,6 L-2,6 L-1,3 L1,3 Z " fill="#172722" transform="translate(55,46)"/>
<path d="M0,0 L22,0 L22,2 L28,1 L28,4 L22,7 L20,8 L20,6 L13,6 L12,3 L7,4 L6,6 L-1,5 L3,3 L-6,2 L-6,1 Z " fill="#10201E" transform="translate(52,75)"/>
<path d="M0,0 L8,1 L12,4 L22,5 L23,1 L26,0 L29,3 L36,4 L36,7 L9,7 L2,3 L-2,1 Z " fill="#000101" transform="translate(36,77)"/>
<path d="M0,0 L9,3 L12,3 L12,6 L14,6 L15,1 L17,5 L17,7 L15,7 L15,10 L8,13 L5,17 L3,17 L3,19 L-3,19 L0,15 L2,15 L3,12 L5,12 L6,6 L8,6 L7,4 L1,3 L1,5 L-2,5 L-2,3 L0,3 Z " fill="#314752" transform="translate(122,65)"/>
<path d="M0,0 L2,0 L0,4 L-3,8 L1,7 L3,11 L7,12 L7,6 L11,5 L13,6 L13,8 L15,8 L14,11 L9,10 L7,15 L3,17 L1,13 L-3,13 L-4,15 L-5,10 L-6,6 L-4,6 L-3,3 L-6,1 Z " fill="#151B14" transform="translate(90,18)"/>
<path d="M0,0 L7,1 L9,5 L7,5 L7,8 L-1,8 L-1,13 L3,14 L-4,15 L-5,9 L-7,12 L-10,12 L-8,8 L-6,2 L0,3 Z " fill="#0F130B" transform="translate(104,25)"/>
<path d="M0,0 L13,0 L13,7 L15,8 L13,10 L2,10 L0,8 L3,3 L0,3 Z " fill="#223332" transform="translate(43,0)"/>
<path d="M0,0 L3,0 L3,2 L-2,3 L-2,5 L-9,6 L-9,10 L-14,12 L-14,10 L-18,11 L-18,13 L-24,16 L-22,12 L-20,7 L-12,1 L-10,1 L-9,3 L-5,4 L-4,1 Z " fill="#506563" transform="translate(24,7)"/>
<path d="M0,0 L8,0 L14,5 L19,10 L19,11 L13,11 L13,13 L9,14 L7,13 L8,5 L1,4 Z " fill="#071715" transform="translate(57,19)"/>
<path d="M0,0 L2,0 L1,5 L0,8 L14,10 L15,3 L19,3 L20,9 L14,13 L4,13 L-1,11 L-4,8 L-4,3 Z " fill="#192A25" transform="translate(65,39)"/>
<path d="M0,0 L8,0 L14,2 L14,3 L5,3 L9,5 L9,7 L11,9 L1,9 L-3,6 L-7,5 L-7,1 Z " fill="#2D3D3D" transform="translate(47,73)"/>
<path d="M0,0 L3,0 L3,4 L1,4 L4,8 L3,11 L1,12 L1,16 L-2,16 L-2,20 L-4,20 L-4,15 L-2,15 L-2,12 L-4,12 L-4,14 L-6,14 L-6,7 L-3,4 Z " fill="#0C1918" transform="translate(23,21)"/>
<path d="M0,0 L5,0 L6,10 L10,14 L9,17 L11,17 L10,21 L5,19 L5,17 L8,17 L8,15 L6,15 L6,13 L1,11 L1,7 L-3,5 L-4,2 L-1,2 L-1,4 L1,4 Z " fill="#8A9890" transform="translate(134,0)"/>
<path d="M0,0 L15,0 L13,6 L18,5 L17,10 L19,11 L14,10 L14,8 L12,8 L12,4 L8,4 L8,6 L2,6 L0,5 Z " fill="#1D2A2A" transform="translate(0,0)"/>
<path d="M0,0 L4,0 L3,4 L4,6 L2,6 L0,11 L-5,10 L-6,12 L-9,11 L-9,3 L-5,5 L-5,3 Z " fill="#040C11" transform="translate(127,55)"/>
<path d="M0,0 L2,0 L2,2 L5,3 L5,5 L0,4 Z M-2,4 L0,4 L2,7 L5,8 L6,12 L12,15 L12,17 L7,17 L3,19 L2,12 L-2,11 L-4,10 L-4,6 L-2,6 Z " fill="#010C07" transform="translate(59,45)"/>
<path d="M0,0 L2,0 L3,6 L0,5 L0,9 L2,9 L1,13 L0,14 L-1,22 L2,21 L2,30 L-1,29 L-3,24 L-4,12 L-1,4 L-2,2 L0,2 Z " fill="#071414" transform="translate(15,15)"/>
<path d="M0,0 L14,0 L14,2 L10,3 L13,5 L13,9 L17,12 L15,13 L9,9 L4,7 L4,5 L2,5 Z " fill="#080B0C" transform="translate(104,0)"/>
<path d="M0,0 L4,2 L8,8 L7,13 L5,22 L3,22 L3,24 L-2,23 L-2,17 L3,16 L4,7 L0,2 Z " fill="#70847F" transform="translate(136,20)"/>
<path d="M0,0 L3,0 L3,8 L0,11 L-2,11 L-4,17 L-5,19 L-9,19 L-10,21 L-10,18 L-7,18 L-5,9 Z " fill="#2F5664" transform="translate(147,61)"/>
<path d="M0,0 L2,0 L7,5 L12,9 L17,9 L17,11 L14,12 L18,16 L2,12 L-1,10 L-1,8 L9,10 L2,5 Z " fill="#5A6A6E" transform="translate(12,63)"/>
<path d="M0,0 L7,6 L8,9 L11,10 L11,17 L8,18 L6,24 L5,20 L6,13 L5,8 L1,9 Z " fill="#222E24" transform="translate(121,17)"/>
<path d="M0,0 L3,1 L3,11 L5,11 L5,13 L8,14 L8,25 L6,25 L3,16 L3,13 L1,13 L0,6 L-2,5 L-2,1 Z " fill="#4A514A" transform="translate(116,17)"/>
<path d="M0,0 L5,1 L13,5 L22,6 L20,9 L14,10 L6,7 L5,4 L0,5 Z " fill="#1D2D2B" transform="translate(59,49)"/>
<path d="M0,0 L2,0 L2,4 L11,5 L11,6 L4,6 L4,8 L16,9 L16,10 L7,11 L7,13 L0,14 L1,11 L-2,9 L2,8 L2,6 L0,6 L0,4 L-2,4 L-2,2 L0,2 Z " fill="#0C1E1D" transform="translate(83,62)"/>
<path d="M0,0 L4,1 L5,5 L8,6 L8,8 L4,11 L2,13 L2,15 L-2,15 L-2,10 L0,6 L-2,2 Z " fill="#010C0B" transform="translate(40,25)"/>
<path d="M0,0 L9,3 L11,2 L15,4 L11,10 L9,10 L9,12 L7,12 L7,9 L2,7 L5,6 L7,7 L7,5 L3,4 L0,2 Z " fill="#0C1D14" transform="translate(64,55)"/>
<path d="M0,0 L2,0 L2,3 L5,4 L5,6 L9,7 L7,9 L4,10 L4,8 L1,9 L1,11 L3,11 L2,13 L-1,12 L-1,10 L-4,10 L-4,2 L0,4 L0,6 L2,5 Z " fill="#111B1B" transform="translate(4,56)"/>
<path d="M0,0 L5,0 L5,2 L7,2 L7,0 L9,0 L7,7 L3,4 L3,6 L0,6 L1,21 L4,21 L4,26 L1,25 L1,22 L-1,22 L-1,5 Z " fill="#364E4C" transform="translate(1,25)"/>
<path d="M0,0 L0,3 L-3,3 L-3,5 L1,5 L1,7 L-7,7 L-7,5 L-10,5 L-10,3 L-22,3 L-22,1 L-4,1 Z " fill="#3E4A4B" transform="translate(90,3)"/>
<path d="M0,0 L5,2 L5,7 L2,8 L3,11 L2,15 L4,15 L4,13 L6,13 L6,16 L4,16 L4,21 L1,17 L-1,17 L-1,9 L2,4 L0,4 Z " fill="#2D3D3D" transform="translate(15,20)"/>
<path d="M0,0 L10,2 L10,4 L13,5 L13,10 L11,11 L5,8 L4,6 L3,2 L0,2 Z " fill="#314040" transform="translate(11,50)"/>
<path d="M0,0 L16,0 L17,4 L15,4 L15,2 L8,1 L13,7 L12,11 L5,3 L2,2 L1,4 L-7,3 L-7,2 L0,2 Z " fill="#202C30" transform="translate(118,0)"/>
<path d="M0,0 L4,1 L3,3 L9,3 L10,1 L12,2 L12,4 L5,4 L5,6 L11,5 L11,7 L-3,10 L-7,9 L-1,6 Z " fill="#2D4441" transform="translate(81,72)"/>
<path d="M0,0 L1,3 L3,3 L3,1 L5,1 L5,7 L1,9 L-1,14 L-4,15 L-3,12 L-5,11 L-5,8 L-7,8 L-6,5 L-1,6 L-3,8 L0,9 Z " fill="#222B27" transform="translate(121,39)"/>
<path d="M0,0 L7,1 L12,6 L11,8 L8,7 L8,9 L10,9 L9,12 L5,9 L1,5 L2,2 L0,2 Z " fill="#202723" transform="translate(115,3)"/>
<path d="M0,0 L2,0 L3,2 L3,8 L-1,7 L-1,9 L1,9 L0,19 L-1,17 L-3,17 L-4,7 L-3,5 L0,5 Z " fill="#132219" transform="translate(145,28)"/>
<path d="M0,0 L2,0 L3,2 L9,3 L9,5 L5,5 L4,8 L0,8 L0,10 L-3,10 L-2,3 L0,3 Z " fill="#1D2A21" transform="translate(98,48)"/>
<path d="M0,0 L4,0 L8,4 L15,8 L15,10 L23,10 L24,12 L18,13 L18,11 L11,10 L7,6 L1,3 L0,5 Z " fill="#142016" transform="translate(84,34)"/>
<path d="M0,0 L7,0 L14,2 L15,7 L6,5 L1,4 L-1,4 Z " fill="#000303" transform="translate(51,22)"/>
<path d="M0,0 L5,1 L5,3 L7,3 L6,6 L1,5 L-1,10 L-5,12 L-6,8 L-1,7 L-1,1 Z " fill="#2A322D" transform="translate(98,23)"/>
<path d="M0,0 L8,0 L10,4 L14,4 L14,6 L2,6 Z " fill="#091A15" transform="translate(1,78)"/>
<path d="M0,0 L4,1 L4,3 L2,3 L2,5 L0,5 L0,9 L3,10 L4,14 L-5,13 L-4,6 L-2,6 L-1,3 L1,3 Z " fill="#102115" transform="translate(55,46)"/>
<path d="M0,0 L4,1 L5,3 L4,10 L0,9 L-2,13 L-4,13 L-3,8 Z " fill="#2C3C3C" transform="translate(21,37)"/>
<path d="M0,0 L4,2 L5,5 L7,5 L7,8 L9,8 L9,10 L6,13 L3,13 L3,5 L-1,4 Z " fill="#010A07" transform="translate(47,39)"/>
<path d="M0,0 L4,1 L5,7 L7,7 L7,20 L6,20 L6,15 L4,15 L2,8 L1,5 L2,2 L0,2 Z " fill="#D5E7E6" transform="translate(143,15)"/>
<path d="M0,0 L3,1 L2,6 L2,8 L-1,10 L-4,10 L-4,8 L-2,8 L-2,4 L-6,6 L-8,8 L-8,5 L-10,4 L-7,4 L-7,2 Z M2,5 Z " fill="#102724" transform="translate(28,17)"/>
<path d="M0,0 L1,2 L4,3 L4,6 L2,7 L2,9 L0,9 L0,7 L-4,8 L-6,12 L-6,5 L-3,2 L0,2 Z " fill="#2E4C47" transform="translate(6,18)"/>
<path d="M0,0 L2,1 L1,2 L5,4 L6,8 L-6,8 L-6,6 L-4,6 L-2,2 Z " fill="#0A1523" transform="translate(131,76)"/>
<path d="M0,0 L8,1 L12,4 L21,5 L21,6 L9,7 L2,3 L-2,1 Z " fill="#030808" transform="translate(36,77)"/>
<path d="M0,0 L1,0 L2,5 L2,13 L0,13 L0,8 L-2,8 L-3,12 L-5,3 L-4,1 L-1,2 Z " fill="#12201F" transform="translate(8,28)"/>
<path d="M0,0 L3,0 L3,4 L1,4 L4,8 L3,11 L-1,11 L-1,8 L-3,8 L-2,2 Z " fill="#000404" transform="translate(23,21)"/>
<path d="M0,0 L2,0 L5,9 L4,14 L0,13 Z " fill="#020909" transform="translate(1,31)"/>
<path d="M0,0 L3,0 L4,9 L5,13 L3,14 L-1,8 L-1,2 Z M1,14 L3,15 Z " fill="#07180B" transform="translate(81,30)"/>
<path d="M0,0 L8,1 L8,5 L2,6 L2,4 L0,4 L2,10 L-1,9 L-2,4 Z " fill="#1E2F29" transform="translate(70,32)"/>
<path d="M0,0 L2,0 L1,4 L2,6 L0,6 L-2,11 L-7,10 L-8,12 L-9,9 L-5,8 L-5,6 L-3,6 L-1,2 Z " fill="#0B141C" transform="translate(129,55)"/>
<path d="M0,0 L2,4 L0,11 L-3,11 L-4,14 L-6,9 L-2,4 Z " fill="#0A0F16" transform="translate(136,57)"/>
<path d="M0,0 L2,1 L1,2 L0,10 L-3,10 L-5,17 L-7,17 L-7,14 L-5,14 L-4,7 L-2,2 Z " fill="#909FAD" transform="translate(141,54)"/>
<path d="M0,0 L6,2 L10,6 L13,8 L7,7 L7,8 L2,8 L0,3 Z " fill="#222E24" transform="translate(85,37)"/>
<path d="M0,0 L2,0 L2,4 L-3,8 L-4,10 L-6,10 L-6,12 L-12,12 L-9,8 L-2,4 Z " fill="#76859F" transform="translate(131,72)"/>
<path d="M0,0 L7,0 L17,2 L17,4 L10,5 L10,4 L0,2 Z " fill="#010304" transform="translate(87,68)"/>
<path d="M0,0 L6,1 L8,5 L7,7 L9,7 L8,11 L3,9 L3,7 L6,7 L6,5 L4,5 L4,3 L0,2 Z " fill="#90A29D" transform="translate(136,10)"/>
<path d="M0,0 L2,1 L-2,7 L-5,11 L-8,11 L-7,7 L-6,5 L-4,5 L-3,1 Z " fill="#667583" transform="translate(135,56)"/>
<path d="M0,0 L10,1 L19,0 L17,4 L8,5 L0,1 Z " fill="#051311" transform="translate(64,50)"/>
<path d="M0,0 L1,0 L1,11 L-3,12 L-2,17 L-7,18 L-6,15 L-4,15 L-3,10 L-1,1 Z " fill="#4C5A4E" transform="translate(149,38)"/>
<path d="M0,0 L2,3 L2,5 L0,5 L0,8 L-4,9 L-8,7 L-8,5 L-3,4 L-5,1 L0,2 Z " fill="#010903" transform="translate(78,25)"/>
<path d="M0,0 L1,0 L1,12 L-2,12 L-2,7 L-4,7 L-3,3 Z " fill="#073019" transform="translate(149,72)"/>
<path d="M0,0 L7,1 L8,3 L13,4 L10,5 L9,7 L5,7 L3,6 L0,2 Z " fill="#1B2B27" transform="translate(26,53)"/>
<path d="M0,0 L8,1 L10,6 L6,6 L6,4 L4,4 L4,7 L1,8 L1,5 Z " fill="#112218" transform="translate(70,36)"/>
<path d="M0,0 L6,1 L4,2 L5,9 L2,9 L2,12 L-1,11 L-1,9 L1,9 Z " fill="#1A2017" transform="translate(112,32)"/>
<path d="M0,0 L7,0 L5,5 L9,6 L-2,5 Z " fill="#384749" transform="translate(90,62)"/>
<path d="M0,0 L8,1 L15,5 L15,6 L10,6 L1,3 L-1,1 Z " fill="#314242" transform="translate(30,78)"/>
<path d="M0,0 L4,3 L4,9 L0,9 L0,5 L-2,5 L-2,7 L-4,7 L-4,4 L0,2 Z " fill="#051414" transform="translate(85,57)"/>
<path d="M0,0 L2,0 L0,10 L2,11 L-1,11 L-4,8 L-4,3 Z " fill="#142521" transform="translate(65,39)"/>
<path d="M0,0 L4,2 L11,13 L8,14 L5,9 L5,7 L3,7 L3,5 L1,5 Z " fill="#495E57" transform="translate(129,13)"/>
<path d="M0,0 L4,1 L9,6 L9,11 L5,10 L3,5 L0,2 Z " fill="#0D1513" transform="translate(126,1)"/>
<path d="M0,0 L17,0 L19,2 L19,5 L15,4 L13,2 L0,2 Z " fill="#455252" transform="translate(87,0)"/>
<path d="M0,0 L9,1 L6,6 L-1,5 L3,3 L-6,2 L-6,1 Z " fill="#040E0E" transform="translate(52,75)"/>
<path d="M0,0 L6,0 L4,4 L-1,6 L-3,5 L-2,1 Z " fill="#1A2A2A" transform="translate(35,31)"/>
<path d="M0,0 L3,1 L1,1 L1,11 L3,13 L3,16 L0,15 L-2,11 L-2,3 L0,3 Z " fill="#314136" transform="translate(80,27)"/>
<path d="M0,0 L2,0 L2,2 L7,3 L7,6 L4,7 L0,3 L-1,9 L-2,9 L-2,3 L-4,2 Z " fill="#161E16" transform="translate(121,15)"/>
<path d="M0,0 L2,0 L2,5 L0,5 L-1,8 L-3,8 L-3,5 L-6,4 L-3,1 Z " fill="#000104" transform="translate(137,74)"/>
<path d="M0,0 L1,0 L1,8 L0,6 L-8,5 L-9,1 L-4,1 L-4,4 Z " fill="#061212" transform="translate(21,46)"/>
<path d="M0,0 L7,0 L10,2 L11,7 L6,6 L4,4 L4,1 Z " fill="#162625" transform="translate(87,7)"/>
<path d="M0,0 L2,3 L1,6 L-8,5 L-8,2 L-2,1 L0,2 Z " fill="#0E1E1D" transform="translate(31,58)"/>
<path d="M0,0 L3,0 L2,6 L-7,8 L-6,4 L0,5 Z " fill="#091313" transform="translate(106,57)"/>
<path d="M0,0 L2,0 L4,4 L4,7 L7,7 L7,9 L-1,8 Z " fill="#010A08" transform="translate(6,46)"/>
<path d="M0,0 L3,0 L2,4 L0,4 L-1,8 L-7,11 L-5,7 L-3,2 Z " fill="#7D9390" transform="translate(7,12)"/>
<path d="M0,0 L2,1 L2,3 L7,2 L7,4 L5,4 L5,6 L0,6 L-5,1 Z " fill="#010C05" transform="translate(34,51)"/>
<path d="M0,0 L5,0 L5,2 L7,2 L7,0 L9,0 L7,7 L3,4 L2,6 L0,3 Z " fill="#4F6F69" transform="translate(1,25)"/>
<path d="M0,0 L7,6 L11,9 L6,9 L2,7 L2,5 L-1,4 Z " fill="#0E1616" transform="translate(12,65)"/>
<path d="M0,0 L3,0 L2,4 L0,8 L-3,11 L-5,11 L-3,5 Z " fill="#6B7C81" transform="translate(147,61)"/>
<path d="M0,0 L7,1 L7,10 L5,10 L3,4 L0,2 Z " fill="#384B4B" transform="translate(143,12)"/>
<path d="M0,0 L7,1 L9,2 L9,4 L11,4 L11,6 L7,7 L6,5 L1,2 Z " fill="#2B3938" transform="translate(131,11)"/>
<path d="M0,0 L4,0 L4,5 L3,6 L-2,6 L-3,3 L0,2 Z " fill="#010505" transform="translate(8,4)"/>
<path d="M0,0 L1,0 L2,8 L0,10 L-2,14 L-3,9 L-2,7 L-4,7 L-4,5 L0,6 Z " fill="#92A49C" transform="translate(148,30)"/>
<path d="M0,0 L2,0 L3,2 L3,8 L-1,8 L-3,10 L-3,5 L0,5 Z " fill="#08100C" transform="translate(145,28)"/>
<path d="M0,0 L4,2 L8,8 L8,12 L6,12 L3,6 L0,2 Z " fill="#ACBFBB" transform="translate(136,20)"/>
<path d="M0,0 L6,0 L5,5 L2,6 L0,5 Z " fill="#2F3F40" transform="translate(47,0)"/>
<path d="M0,0 L4,0 L4,3 L-9,3 L-9,1 Z " fill="#000404" transform="translate(76,76)"/>
<path d="M0,0 L3,0 L3,2 L1,2 L1,5 L-5,7 L-6,3 L-4,3 L-3,1 Z " fill="#758282" transform="translate(114,56)"/>
<path d="M0,0 L5,5 L2,8 L-1,8 L-2,1 Z " fill="#000808" transform="translate(25,53)"/>
<path d="M0,0 L3,1 L4,8 L1,15 L0,11 L1,4 Z " fill="#737B74" transform="translate(126,26)"/>
<path d="M0,0 L6,1 L9,6 L2,5 L0,3 Z " fill="#1C2C29" transform="translate(67,24)"/>
<path d="M0,0 L2,0 L3,6 L0,5 L0,9 L2,10 L-3,13 L-1,4 L-2,2 L0,2 Z " fill="#091B1A" transform="translate(15,15)"/>
<path d="M0,0 L5,4 L3,5 L-1,4 L-1,7 L-4,6 L-5,3 Z " fill="#1A292C" transform="translate(115,66)"/>
<path d="M0,0 L2,0 L2,4 L11,5 L11,6 L2,7 L0,6 L0,4 L-2,4 L-2,2 L0,2 Z " fill="#0F1F20" transform="translate(83,62)"/>
<path d="M0,0 L2,0 L2,3 L5,4 L5,6 L9,7 L7,9 L4,10 L4,8 L2,8 L1,4 Z " fill="#192C2A" transform="translate(4,56)"/>
<path d="M0,0 L4,0 L3,6 L1,6 L0,8 L-2,1 Z " fill="#435352" transform="translate(140,45)"/>
<path d="M0,0 L3,1 L3,3 L5,3 L7,8 L7,12 L5,12 L4,7 L2,6 Z M2,7 L4,8 L2,9 Z " fill="#0D0F0B" transform="translate(114,27)"/>
<path d="M0,0 L4,2 L5,5 L-1,6 L-3,2 Z " fill="#425247" transform="translate(75,14)"/>
<path d="M0,0 L2,2 L1,3 L-7,2 L-6,5 L-13,5 L-9,1 Z " fill="#0B1B1B" transform="translate(100,2)"/>
<path d="M0,0 L5,0 L10,2 L7,4 L-2,4 Z " fill="#040911" transform="translate(18,76)"/>
<path d="M0,0 L8,0 L13,3 L13,5 L4,3 Z " fill="#3A4B4B" transform="translate(51,69)"/>
<path d="M0,0 L5,2 L8,4 L7,7 L0,4 Z " fill="#485858" transform="translate(16,54)"/>
<path d="M0,0 L1,2 L3,2 L3,7 L5,7 L8,11 L4,11 L0,7 Z " fill="#3F5D59" transform="translate(0,51)"/>
<path d="M0,0 L14,0 L14,2 L6,3 L0,1 Z " fill="#131719" transform="translate(104,0)"/>
<path d="M0,0 L11,0 L11,1 L6,2 L4,5 L-1,3 Z " fill="#1B2A2A" transform="translate(41,75)"/>
<path d="M0,0 L3,0 L2,5 L-7,6 L-7,4 L0,4 L0,2 L-2,1 Z " fill="#5C7471" transform="translate(93,72)"/>
<path d="M0,0 L4,1 L2,5 L-4,4 L-6,2 Z " fill="#354647" transform="translate(33,72)"/>
<path d="M0,0 L3,4 L3,11 L-1,10 Z " fill="#030803" transform="translate(120,18)"/>
<path d="M0,0 L5,0 L7,2 L7,5 L1,4 Z " fill="#17291D" transform="translate(64,67)"/>
<path d="M0,0 L4,1 L5,4 L2,3 L0,7 L-5,6 L-2,5 L-2,2 L0,2 Z " fill="#2A3739" transform="translate(117,56)"/>
<path d="M0,0 L2,0 L2,2 L4,2 L4,0 L6,1 L4,7 L0,6 Z " fill="#758784" transform="translate(134,37)"/>
<path d="M0,0 L6,1 L3,8 L0,8 L1,4 L3,4 L3,2 L0,2 Z " fill="#3E4F4F" transform="translate(45,29)"/>
<path d="M0,0 L7,1 L7,5 L3,6 L2,3 L0,2 Z " fill="#637171" transform="translate(115,3)"/>
<path d="M0,0 L6,0 L4,4 L-3,5 L-3,3 L0,3 Z " fill="#435053" transform="translate(112,79)"/>
<path d="M0,0 L3,0 L2,3 L0,4 L1,9 L-2,9 L-2,1 Z " fill="#5E7C78" transform="translate(2,75)"/>
<path d="M0,0 L1,0 L1,5 L-1,5 L-1,7 L-5,6 L-4,1 L-1,2 Z " fill="#1B3330" transform="translate(8,28)"/>
<path d="M0,0 L3,1 L4,7 L-1,5 Z " fill="#6A7971" transform="translate(109,20)"/>
<path d="M0,0 L1,0 L1,9 L-2,8 L-3,3 Z " fill="#0D1B1A" transform="translate(16,36)"/>
<path d="M0,0 L8,0 L11,3 L0,2 Z " fill="#1D2D2D" transform="translate(57,19)"/>
<path d="M0,0 L2,3 L2,1 L5,1 L3,5 L-3,5 L-3,3 L-1,3 Z " fill="#132136" transform="translate(128,79)"/>
<path d="M0,0 L5,2 L5,6 L-2,4 Z " fill="#000202" transform="translate(4,70)"/>
<path d="M0,0 L2,3 L-4,6 L-9,6 L-9,4 L0,2 Z " fill="#324041" transform="translate(108,61)"/>
<path d="M0,0 L2,0 L4,5 L2,4 L0,7 L-2,7 L-2,2 L0,2 Z " fill="#4E5E61" transform="translate(128,47)"/>
<path d="M0,0 L7,1 L5,2 L6,7 L3,6 L3,2 L0,2 Z " fill="#1B2C21" transform="translate(81,28)"/>
<path d="M0,0 L3,0 L2,5 L0,5 L-2,9 L-2,2 Z " fill="#0A1A17" transform="translate(2,21)"/>
<path d="M0,0 L2,0 L0,4 L-4,8 L-3,3 L-6,1 Z " fill="#051414" transform="translate(90,18)"/>
<path d="M0,0 L2,0 L7,5 L8,8 L3,6 L0,2 Z " fill="#859795" transform="translate(12,63)"/>
<path d="M0,0 L5,0 L5,4 L-1,5 Z " fill="#192A1F" transform="translate(73,33)"/>
<path d="M0,0 L10,1 L10,3 L2,3 L2,1 Z " fill="#435354" transform="translate(81,7)"/>
<path d="M0,0 L6,1 L6,3 L-6,3 L-6,2 L0,2 Z " fill="#131F1F" transform="translate(92,77)"/>
<path d="M0,0 L3,1 L3,3 L1,3 L2,6 L-1,6 L-3,1 Z " fill="#476561" transform="translate(12,76)"/>
<path d="M0,0 L3,0 L3,4 L5,6 L0,7 Z " fill="#07100F" transform="translate(0,69)"/>
<path d="M0,0 L1,0 L1,5 L-2,8 L-4,8 L-4,5 L-2,5 L-1,1 Z " fill="#111A1C" transform="translate(149,64)"/>
<path d="M0,0 L3,0 L4,5 L1,6 L-3,4 L1,4 Z " fill="#435349" transform="translate(45,50)"/>
<path d="M0,0 L4,0 L4,2 L2,3 L3,8 L-2,3 L0,2 Z " fill="#3B423B" transform="translate(113,25)"/>
<path d="M0,0 L2,0 L2,2 L4,2 L3,9 L2,7 L0,6 L1,4 L-1,3 Z " fill="#071613" transform="translate(8,17)"/>
<path d="M0,0 L2,0 L2,5 L-1,7 L-4,4 L-4,2 L-1,2 L-1,4 L1,4 Z " fill="#556464" transform="translate(134,0)"/>
<path d="M0,0 L4,0 L5,4 L-1,4 Z " fill="#4C8C9D" transform="translate(138,80)"/>
<path d="M0,0 L4,1 L-1,4 L-5,4 L-5,2 Z " fill="#68817F" transform="translate(111,66)"/>
<path d="M0,0 L3,0 L3,2 L6,3 L3,3 L2,9 L-2,8 L1,8 Z " fill="#071813" transform="translate(58,57)"/>
<path d="M0,0 L1,2 L3,2 L4,6 L3,8 L0,8 Z " fill="#07180D" transform="translate(50,44)"/>
<path d="M0,0 L5,0 L6,2 L4,3 L6,5 L2,6 L2,3 L0,3 Z " fill="#181C15" transform="translate(114,44)"/>
<path d="M0,0 L5,0 L5,4 L0,4 Z " fill="#363B34" transform="translate(103,34)"/>
<path d="M0,0 L1,0 L1,7 L-1,10 L-4,10 L-2,6 Z " fill="#1A2018" transform="translate(98,27)"/>
<path d="M0,0 L3,0 L3,10 L2,10 L2,5 L0,5 Z " fill="#CADED9" transform="translate(147,25)"/>
<path d="M0,0 L5,2 L4,6 L2,6 L2,4 L0,4 Z " fill="#465656" transform="translate(15,20)"/>
<path d="M0,0 L3,1 L3,4 L-1,4 L-2,6 L-3,2 Z " fill="#25362C" transform="translate(99,52)"/>
<path d="M0,0 L4,5 L2,8 L2,6 L-1,5 Z " fill="#111B1C" transform="translate(6,40)"/>
<path d="M0,0 L4,4 L6,8 L2,6 L-1,4 Z " fill="#112121" transform="translate(48,35)"/>
<path d="M0,0 L2,3 L2,5 L-1,6 L-5,1 L0,2 Z " fill="#102114" transform="translate(78,25)"/>
<path d="M0,0 L3,1 L2,5 L-3,3 L-3,1 Z " fill="#44625F" transform="translate(142,16)"/>
<path d="M0,0 L1,3 L5,2 L6,0 L7,3 L5,3 L5,5 L0,4 L-1,2 Z " fill="#394847" transform="translate(117,6)"/>
<path d="M0,0 L3,0 L1,5 L-1,5 L-2,7 L-1,2 Z " fill="#17281E" transform="translate(74,60)"/>
<path d="M0,0 L2,0 L1,4 L2,6 L-3,7 L-2,3 Z " fill="#293845" transform="translate(129,55)"/>
<path d="M0,0 L3,1 L0,6 L-2,6 L-1,1 Z " fill="#384848" transform="translate(19,44)"/>
<path d="M0,0 L2,3 L4,2 L4,7 L6,8 L3,8 L0,5 Z M4,1 Z " fill="#0E1D1C" transform="translate(61,42)"/>
<path d="M0,0 L4,2 L4,8 L3,5 L1,5 Z " fill="#6A7069" transform="translate(119,30)"/>
<path d="M0,0 L2,0 L2,6 L-1,9 Z " fill="#192B21" transform="translate(139,27)"/>
<path d="M0,0 L0,3 L-2,3 L-1,6 L-3,8 L-3,6 L-5,6 L-3,2 Z " fill="#1F2F2F" transform="translate(19,25)"/>
<path d="M0,0 L9,1 L8,3 L0,2 Z " fill="#091919" transform="translate(58,21)"/>
<path d="M0,0 L2,0 L1,5 L3,6 L-2,5 L-2,1 Z " fill="#324040" transform="translate(16,5)"/>
<path d="M0,0 L3,0 L3,2 L-2,3 L-2,5 L-4,4 L-4,1 Z " fill="#354545" transform="translate(24,7)"/>
<path d="M0,0 L2,0 L2,4 L-4,8 L-2,4 Z " fill="#8EA9B6" transform="translate(131,72)"/>
<path d="M0,0 L7,1 L6,3 L1,4 L-1,2 Z " fill="#213D39" transform="translate(5,75)"/>
<path d="M0,0 L2,4 L2,6 L0,6 L0,9 L-3,8 Z " fill="#212F3A" transform="translate(137,66)"/>
<path d="M0,0 L8,2 L8,4 L2,3 L0,2 Z " fill="#33443B" transform="translate(52,58)"/>
<path d="M0,0 L5,1 L5,6 L2,5 L2,2 L0,2 Z " fill="#6E9F96" transform="translate(0,45)"/>
<path d="M0,0 L1,2 L3,2 L2,6 L1,8 L-1,8 Z " fill="#5B6C6C" transform="translate(17,39)"/>
<path d="M0,0 L2,0 L2,2 L9,2 L5,4 L0,4 Z " fill="#20302F" transform="translate(81,8)"/>
<path d="M0,0 L4,1 L6,5 L3,5 L0,2 Z " fill="#03080C" transform="translate(126,1)"/>
<path d="M0,0 L5,0 L5,2 L-3,3 Z " fill="#495859" transform="translate(77,79)"/>
<path d="M0,0 L8,1 L5,3 L-1,2 Z " fill="#283930" transform="translate(30,78)"/>
<path d="M0,0 L1,3 L-4,7 L-4,3 Z " fill="#82A2A2" transform="translate(149,69)"/>
<path d="M0,0 L3,0 L3,2 L0,5 L-3,5 L-3,2 L0,2 Z " fill="#575E57" transform="translate(111,51)"/>
<path d="M0,0 L5,0 L5,3 L-1,3 Z " fill="#39443A" transform="translate(103,53)"/>
<path d="M0,0 L4,1 L4,3 L2,3 L2,5 L-1,6 L-1,3 L1,3 Z " fill="#27382C" transform="translate(55,46)"/>
<path d="M0,0 L2,1 L3,5 L2,8 L0,8 Z " fill="#0A0D0B" transform="translate(124,32)"/>
<path d="M0,0 L2,0 L2,6 L0,7 L-1,2 Z " fill="#000502" transform="translate(81,30)"/>
<path d="M0,0 L5,0 L5,2 L1,5 Z " fill="#0C1A19" transform="translate(43,31)"/>
<path d="M0,0 L3,0 L3,5 L-2,4 L0,3 Z " fill="#132323" transform="translate(50,26)"/>
<path d="M0,0 L5,5 L5,7 L2,7 L0,3 Z " fill="#36443A" transform="translate(121,17)"/>
<path d="M0,0 L4,1 L5,4 L3,4 L2,7 L1,5 L2,2 L0,2 Z " fill="#ABC2C3" transform="translate(143,15)"/>
<path d="M0,0 L4,2 L5,7 L0,2 Z " fill="#414E55" transform="translate(126,4)"/>
<path d="M0,0 L3,0 L3,8 L2,4 L0,4 Z " fill="#728184" transform="translate(136,0)"/>
<path d="M0,0 L5,1 L5,4 L1,3 Z " fill="#727978" transform="translate(101,1)"/>
<path d="M0,0 L1,4 L-3,6 L-2,2 Z " fill="#0B1914" transform="translate(149,72)"/>
<path d="M0,0 L5,1 L2,3 L1,5 L-1,4 Z " fill="#0C1D16" transform="translate(63,65)"/>
<path d="M0,0 L2,0 L3,3 L6,5 L0,5 Z " fill="#010C0E" transform="translate(92,56)"/>
<path d="M0,0 L2,1 L-1,7 L-3,6 L-2,2 Z " fill="#AFC0C6" transform="translate(141,54)"/>
<path d="M0,0 L7,2 L6,5 L0,1 Z " fill="#1E2B2B" transform="translate(17,53)"/>
<path d="M0,0 L1,2 L1,7 L-4,8 L-3,5 L-1,5 Z " fill="#313D3E" transform="translate(146,48)"/>
<path d="M0,0 L3,1 L3,7 L0,4 Z " fill="#31362E" transform="translate(112,32)"/>
<path d="M0,0 L5,1 L4,4 L0,3 Z " fill="#1E2E2C" transform="translate(64,29)"/>
<path d="M0,0 L4,2 L6,6 L2,5 Z " fill="#374E4B" transform="translate(134,21)"/>
<path d="M0,0 Z M-2,1 L0,3 L-1,6 L-4,7 L-3,2 Z " fill="#162626" transform="translate(48,23)"/>
<path d="M0,0 L3,0 L1,4 L-1,6 L-1,3 L-3,2 L0,2 Z " fill="#2C3C3C" transform="translate(21,19)"/>
<path d="M0,0 L5,3 L5,5 L-2,3 L0,2 Z " fill="#2A3B33" transform="translate(80,17)"/>
<path d="M0,0 L7,5 L4,6 L0,3 Z " fill="#2A3A3A" transform="translate(91,8)"/>
<path d="M0,0 L3,0 L3,4 L-1,4 Z " fill="#66CEA4" transform="translate(144,80)"/>
<path d="M0,0 L1,3 L3,4 L3,6 L1,6 L0,8 L-1,3 Z " fill="#3E5559" transform="translate(133,68)"/>
<path d="M0,0 L3,0 L2,4 L-1,4 Z " fill="#050B0D" transform="translate(100,61)"/>
<path d="M0,0 L2,4 L2,8 L-1,6 Z " fill="#6A7A7F" transform="translate(138,48)"/>
<path d="M0,0 L1,2 L3,2 L3,6 L0,6 Z " fill="#7A9F9A" transform="translate(0,51)"/>
<path d="M0,0 L2,0 L2,2 L5,2 L3,6 L2,3 L0,2 Z " fill="#0E1715" transform="translate(120,50)"/>
<path d="M0,0 L2,1 L2,3 L-1,5 L-4,4 Z " fill="#1A2C20" transform="translate(39,50)"/>
<path d="M0,0 L5,0 L5,3 L0,2 Z " fill="#05090A" transform="translate(12,47)"/>
<path d="M0,0 L2,4 L1,8 L1,6 L-1,6 Z " fill="#0B110D" transform="translate(143,39)"/>
<path d="M0,0 L3,0 L2,5 L0,5 Z " fill="#4B5B5C" transform="translate(21,37)"/>
<path d="M0,0 L4,2 L2,3 L2,6 L0,6 Z " fill="#010A0A" transform="translate(17,29)"/>
<path d="M0,0 L5,1 L6,3 L1,3 Z " fill="#3B4B44" transform="translate(70,27)"/>
<path d="M0,0 L2,0 L0,7 L-3,3 L0,2 Z " fill="#446460" transform="translate(8,25)"/>
<path d="M0,0 L4,1 L3,4 L-1,3 Z " fill="#5E665F" transform="translate(101,25)"/>
<path d="M0,0 L2,0 L2,2 L4,2 L4,4 L0,5 L-1,2 Z " fill="#354A49" transform="translate(138,13)"/>
<path d="M0,0 L4,1 L5,4 L0,2 Z " fill="#2A3737" transform="translate(100,80)"/>
<path d="M0,0 L3,0 L3,2 L5,2 L5,4 L1,4 Z " fill="#233429" transform="translate(64,67)"/>
<path d="M0,0 L4,0 L2,4 L0,4 Z " fill="#0C0E0D" transform="translate(111,54)"/>
<path d="M0,0 L2,3 L-1,7 L-2,1 Z " fill="#071616" transform="translate(25,53)"/>
<path d="M0,0 L1,4 L-3,5 L-3,2 Z " fill="#829696" transform="translate(144,49)"/>
<path d="M0,0 L2,0 L2,5 L0,5 L-2,1 Z " fill="#090F0E" transform="translate(140,45)"/>
<path d="M0,0 L4,2 L4,5 L1,4 Z " fill="#293A2F" transform="translate(79,38)"/>
<path d="M0,0 L4,3 L0,6 Z " fill="#102321" transform="translate(0,15)"/>
<path d="M0,0 L3,0 L2,5 L0,5 Z " fill="#0C1C1C" transform="translate(40,0)"/>
<path d="M0,0 L2,0 L1,3 L-7,2 L-7,1 Z " fill="#14251E" transform="translate(81,53)"/>
<path d="M0,0 L4,1 L4,4 L0,2 Z " fill="#010A03" transform="translate(86,48)"/>
<path d="M0,0 L1,0 L1,5 L-2,6 L-2,2 L0,2 Z " fill="#374A44" transform="translate(141,40)"/>
<path d="M0,0 L2,1 L0,7 L-2,3 Z " fill="#C8DCD9" transform="translate(138,37)"/>
<path d="M0,0 L2,0 L5,4 L1,4 Z " fill="#121F1E" transform="translate(84,24)"/>
<path d="M0,0 L1,2 L3,3 L-2,6 Z " fill="#0D2422" transform="translate(14,22)"/>
<path d="M0,0 L2,2 L1,3 L-4,3 L-4,1 Z " fill="#0A1213" transform="translate(100,2)"/>
<path d="M0,0 L3,0 L3,3 L-1,3 Z " fill="#0E1A1B" transform="translate(96,64)"/>
<path d="M0,0 L2,0 L1,4 L-2,4 L-2,2 L0,2 Z " fill="#1E2E2E" transform="translate(83,62)"/>
<path d="M0,0 L2,0 L0,5 L-2,5 Z " fill="#B2C4CE" transform="translate(132,58)"/>
<path d="M0,0 L3,4 L0,7 Z " fill="#152329" transform="translate(141,56)"/>
<path d="M0,0 L3,0 L1,4 L-2,3 L0,3 Z " fill="#41463F" transform="translate(113,47)"/>
<path d="M0,0 L2,0 L3,5 L0,4 Z " fill="#10312C" transform="translate(0,47)"/>
<path d="M0,0 L4,2 L1,5 Z " fill="#112021" transform="translate(122,43)"/>
<path d="M0,0 L1,0 L1,6 L-2,5 L-2,3 L0,3 Z " fill="#22261F" transform="translate(113,38)"/>
<path d="M0,0 L2,3 L1,6 L-2,4 L0,4 L-1,1 Z " fill="#101D12" transform="translate(123,25)"/>
<path d="M0,0 L3,1 L4,5 L0,4 Z " fill="#081308" transform="translate(119,24)"/>
<path d="M0,0 L2,0 L3,4 L-1,4 Z " fill="#06140E" transform="translate(132,20)"/>
<path d="M0,0 L4,0 L4,3 L0,2 Z " fill="#3B4B4B" transform="translate(47,0)"/>
<path d="M0,0 L5,1 L2,3 L-1,3 Z " fill="#122128" transform="translate(23,77)"/>
<path d="M0,0 L4,0 L4,3 L1,3 Z " fill="#030E0D" transform="translate(76,76)"/>
<path d="M0,0 L3,0 L2,4 L1,2 L-1,1 Z " fill="#354448" transform="translate(147,61)"/>
<path d="M0,0 L2,0 L2,4 L-1,3 Z " fill="#000203" transform="translate(87,61)"/>
<path d="M0,0 L2,0 L2,3 L-2,4 Z " fill="#45555A" transform="translate(123,55)"/>
<path d="M0,0 L2,0 L0,4 L-2,4 Z " fill="#293A2E" transform="translate(82,46)"/>
<path d="M0,0 L5,1 L2,3 L0,2 Z " fill="#1B2219" transform="translate(103,44)"/>
<path d="M0,0 L2,1 L2,4 L-2,2 Z " fill="#182828" transform="translate(23,43)"/>
<path d="M0,0 L5,0 L4,3 L0,1 Z " fill="#0A1A19" transform="translate(32,36)"/>
<path d="M0,0 L3,0 L1,5 L0,5 Z " fill="#020603" transform="translate(142,33)"/>
<path d="M0,0 L2,1 L1,4 L-3,1 Z " fill="#0A1212" transform="translate(90,25)"/>
<path d="M0,0 L4,2 L2,5 Z " fill="#87A2A0" transform="translate(136,20)"/>
<path d="M0,0 L2,0 L2,2 L4,3 L-1,3 Z " fill="#172F2B" transform="translate(8,17)"/>
<path d="M0,0 L1,0 L1,5 L-2,3 L-2,1 Z " fill="#253429" transform="translate(74,15)"/>
<path d="M0,0 L3,0 L2,3 L-1,2 Z " fill="#111E2A" transform="translate(130,80)"/>
<path d="M0,0 L3,2 L3,4 L0,4 Z " fill="#74928F" transform="translate(0,80)"/>
<path d="M0,0 L4,1 L4,3 L0,2 Z " fill="#263636" transform="translate(60,71)"/>
<path d="M0,0 L3,0 L3,3 L0,3 Z " fill="#1B2B2B" transform="translate(0,69)"/>
<path d="M0,0 L4,2 L0,3 Z " fill="#071613" transform="translate(0,58)"/>
<path d="M0,0 L2,0 L0,4 L-2,2 Z " fill="#050E17" transform="translate(127,55)"/>
<path d="M0,0 L1,4 L-2,4 Z " fill="#23281F" transform="translate(96,33)"/>
<path d="M0,0 L4,1 L4,3 L0,2 Z " fill="#7E9B98" transform="translate(139,17)"/>
<path d="M0,0 L4,1 L2,4 L2,2 L0,2 Z " fill="#05090F" transform="translate(120,2)"/>
<path d="M0,0 L3,1 L3,3 L-1,2 Z " fill="#061514" transform="translate(23,60)"/>
<path d="M0,0 L2,0 L1,3 L-2,2 Z " fill="#010E05" transform="translate(81,50)"/>
<path d="M0,0 L3,0 L2,3 L-1,1 Z " fill="#35453B" transform="translate(46,45)"/>
<path d="M0,0 L3,0 L3,3 L0,2 Z " fill="#3A4A4A" transform="translate(13,44)"/>
<path d="M0,0 L2,0 L2,3 L-1,3 Z " fill="#010706" transform="translate(68,32)"/>
<path d="M0,0 L3,1 L3,3 L0,2 Z " fill="#617A75" transform="translate(133,18)"/>
<path d="M0,0 L2,3 L0,4 L-2,2 L0,2 Z " fill="#788C8A" transform="translate(142,12)"/>
<path d="M0,0 L3,1 L1,3 Z " fill="#24323F" transform="translate(124,2)"/>
<path d="M0,0 L2,2 L-1,2 Z " fill="#091510" transform="translate(130,11)"/>
</svg>
