<?xml version="1.0" encoding="UTF-8"?>
<!-- Generator: visioncortex VTracer 0.6.5 -->
<svg version="1.1" xmlns="http://www.w3.org/2000/svg" width="150" height="84">
<path d="M0,0 L150,0 L150,84 L0,84 Z " fill="#071212" transform="translate(0,0)"/>
<path d="M0,0 L39,0 L39,84 L-10,84 L-10,81 L-7,79 L-16,78 L-16,76 L-5,73 L-5,70 L-3,70 L-3,67 L3,64 L5,62 L9,63 L8,59 L14,57 L14,55 L18,55 L18,52 L12,52 L10,55 L8,55 L7,58 L1,60 L1,58 L3,58 L3,55 L7,54 L10,47 L12,48 L11,41 L15,41 L15,44 L18,42 L18,33 L21,32 L23,33 L23,41 L28,39 L27,48 L30,48 L31,36 L29,32 L33,33 L30,21 L27,15 L27,13 L23,12 L23,9 L18,7 L19,11 L21,12 L23,23 L27,23 L27,25 L24,25 L28,30 L27,33 L26,30 L24,30 L21,27 L18,26 L16,20 L20,22 L18,13 L12,9 L7,8 L7,6 L0,4 L-1,2 Z " fill="#223034" transform="translate(111,0)"/>
<path d="M0,0 L4,2 L5,5 L9,4 L11,8 L12,13 L16,10 L24,13 L24,15 L19,15 L21,19 L23,21 L14,23 L12,22 L5,22 L-3,21 L-2,23 L10,23 L15,24 L18,25 L16,29 L13,29 L13,31 L11,33 L7,32 L2,29 L-1,29 L0,33 L-5,32 L-12,32 L-4,33 L-4,35 L-12,36 L-12,38 L-8,37 L4,37 L11,39 L20,38 L25,38 L21,41 L18,41 L18,44 L-43,44 L-46,43 L-46,41 L-57,41 L-58,38 L-47,38 L-43,39 L-40,38 L-38,39 L-38,37 L-45,36 L-47,37 L-50,35 L-58,34 L-59,38 L-62,37 L-61,35 L-59,35 L-59,33 L-61,32 L-59,32 L-60,27 L-66,26 L-65,19 L-58,19 L-56,22 L-59,22 L-59,25 L-51,25 L-52,29 L-46,28 L-41,29 L-41,27 L-44,27 L-44,24 L-53,23 L-54,18 L-52,18 L-51,16 L-50,17 L-44,17 L-40,15 L-40,18 L-42,18 L-42,20 L-37,19 L-36,15 L-37,12 L-35,11 L-31,12 L-31,10 L-26,9 L-27,12 L-29,12 L-30,15 L-34,13 L-34,15 L-32,15 L-32,17 L-34,17 L-34,19 L-32,19 L-31,24 L-20,24 L-19,20 L-24,20 L-24,16 L-27,15 L-25,12 L-23,12 L-22,17 L-15,14 L-10,15 L-8,10 L-4,5 L-3,2 L-1,2 Z " fill="#01090A" transform="translate(83,40)"/>
<path d="M0,0 L66,0 L71,3 L75,4 L75,6 L67,6 L66,12 L64,13 L63,17 L60,18 L59,21 L61,21 L61,23 L63,24 L56,28 L55,30 L61,31 L61,33 L70,30 L70,34 L76,33 L76,31 L78,31 L78,28 L81,28 L79,23 L80,21 L74,20 L70,16 L70,14 L67,14 L67,12 L71,13 L74,14 L76,16 L77,15 L72,10 L72,7 L77,8 L81,10 L84,14 L83,18 L80,19 L84,22 L84,32 L82,32 L82,34 L86,35 L85,42 L83,42 L81,36 L78,36 L77,38 L71,40 L64,40 L57,37 L56,34 L51,32 L51,23 L49,22 L50,16 L37,17 L37,15 L29,15 L22,21 L16,22 L12,26 L5,26 L1,24 L2,18 L5,17 L6,14 L0,13 L1,7 L-2,6 L1,5 Z " fill="#020505" transform="translate(29,0)"/>
<path d="M0,0 L4,4 L3,6 L5,6 L7,12 L1,9 L2,16 L5,17 L4,20 L10,20 L10,22 L14,22 L14,14 L10,12 L8,10 L9,7 L11,11 L15,12 L16,14 L21,17 L21,19 L24,19 L23,21 L17,21 L16,26 L22,28 L22,36 L20,38 L22,38 L23,35 L31,35 L35,37 L37,36 L43,38 L43,40 L40,40 L41,42 L35,41 L34,40 L23,39 L24,41 L35,42 L35,44 L38,45 L-2,45 L-2,2 L0,2 Z " fill="#020A0A" transform="translate(2,39)"/>
<path d="M0,0 L39,0 L39,49 L37,47 L36,38 L34,38 L32,48 L30,48 L31,36 L29,32 L33,33 L30,21 L27,15 L27,13 L23,12 L23,9 L18,7 L19,11 L21,12 L23,23 L27,23 L27,25 L24,25 L28,30 L27,33 L26,30 L24,30 L21,27 L18,26 L16,20 L20,22 L18,13 L12,9 L7,8 L7,6 L0,4 L-1,2 Z " fill="#98B2AB" transform="translate(111,0)"/>
<path d="M0,0 L29,0 L30,5 L28,6 L30,7 L29,13 L37,13 L34,18 L30,20 L29,26 L27,26 L27,24 L24,24 L23,21 L22,22 L16,22 L16,19 L20,17 L21,11 L21,10 L17,8 L16,12 L8,14 L11,15 L11,19 L6,22 L5,27 L3,27 L3,29 L7,30 L7,32 L14,31 L14,38 L11,38 L11,36 L9,36 L8,38 L6,32 L2,33 L0,37 Z " fill="#182E31" transform="translate(0,0)"/>
<path d="M0,0 L2,0 L4,9 L5,11 L5,19 L3,19 L4,30 L0,31 L0,33 L-4,33 L-6,37 L-9,38 L-11,41 L-16,42 L-15,39 L-12,39 L-12,37 L-10,37 L-11,33 L-11,35 L-13,35 L-13,37 L-23,42 L-25,42 L-25,44 L-28,43 L-25,40 L-35,39 L-34,35 L-30,35 L-29,32 L-23,31 L-23,26 L-20,25 L-19,22 L-15,22 L-15,24 L-13,24 L-14,20 L-14,13 L-17,11 L-17,9 L-9,7 L-9,19 L-4,16 L-2,16 L-1,3 Z " fill="#020507" transform="translate(145,38)"/>
<path d="M0,0 L7,1 L8,6 L14,7 L17,12 L21,14 L21,16 L23,17 L22,21 L22,19 L17,19 L17,17 L14,17 L14,19 L16,19 L18,22 L18,25 L16,25 L14,21 L9,16 L13,15 L12,11 L11,8 L7,7 L2,5 L5,10 L5,12 L8,13 L7,15 L5,16 L4,12 L0,11 L-3,10 L-3,12 L0,12 L0,14 L4,16 L4,18 L10,19 L11,26 L8,26 L8,29 L6,29 L6,31 L0,32 L0,28 L-6,31 L-9,31 L-9,29 L-15,28 L-14,25 L-8,22 L-9,19 L-11,19 L-10,15 L-7,15 L-6,10 L-4,10 L-3,4 L5,4 L5,2 L0,1 Z " fill="#020F07" transform="translate(99,2)"/>
<path d="M0,0 L6,0 L7,5 L2,4 L2,6 L-3,9 L-3,12 L-8,13 L-13,16 L-15,16 L-15,19 L-17,19 L-17,22 L-24,25 L-28,25 L-28,27 L-26,28 L-31,29 L-36,27 L-52,27 L-52,25 L-44,24 L-44,22 L-52,22 L-53,20 L-45,20 L-40,22 L-40,19 L-42,18 L-38,17 L-32,21 L-27,20 L-27,18 L-24,18 L-23,14 L-15,10 L-5,6 Z " fill="#020608" transform="translate(123,51)"/>
<path d="M0,0 L4,4 L3,6 L5,6 L7,12 L1,9 L2,16 L5,17 L4,20 L10,20 L10,22 L14,22 L14,14 L10,12 L8,10 L9,7 L11,11 L15,12 L16,14 L21,17 L21,19 L24,19 L23,21 L17,21 L16,26 L22,28 L22,33 L17,35 L16,32 L11,32 L11,30 L9,30 L9,28 L-2,27 L-2,2 L0,2 Z " fill="#253639" transform="translate(2,39)"/>
<path d="M0,0 L4,0 L6,1 L6,3 L11,5 L9,6 L9,8 L4,8 L5,12 L2,17 L-2,16 L-2,14 L0,14 L-1,12 L-4,14 L-10,14 L-14,14 L-13,19 L-6,19 L-4,20 L-4,23 L-1,23 L-1,25 L-12,25 L-11,21 L-19,21 L-19,18 L-17,17 L-17,14 L-20,14 L-22,11 L-26,9 L-26,7 L-30,5 L-26,3 L-26,1 L-24,1 L-24,4 L-20,3 L-15,5 L-10,10 L-10,12 L-3,10 L-4,5 L1,4 Z " fill="#0B1818" transform="translate(43,44)"/>
<path d="M0,0 L4,1 L6,2 L4,6 L3,11 L-1,11 L-1,14 L7,12 L7,16 L10,16 L9,21 L2,21 L0,23 L-7,22 L-8,24 L-10,24 L-10,22 L-14,21 L-14,19 L-12,19 L-12,14 L-9,11 L-6,11 L-6,7 L-10,6 L-10,5 L-1,3 Z " fill="#01090B" transform="translate(17,8)"/>
<path d="M0,0 L14,0 L23,1 L23,3 L35,2 L35,4 L38,4 L37,7 L-5,7 L-8,6 L-8,4 L-19,4 L-20,1 L-9,1 L-5,2 L-2,1 L0,2 Z " fill="#0D1617" transform="translate(45,77)"/>
<path d="M0,0 L22,0 L22,19 L15,19 L13,13 L4,6 L3,2 L0,1 Z " fill="#040606" transform="translate(128,0)"/>
<path d="M0,0 L13,0 L13,3 L4,5 L14,5 L14,3 L16,3 L14,9 L9,9 L5,11 L2,11 L1,6 L-2,9 L0,10 L0,14 L5,14 L4,19 L-7,19 L-8,18 L-8,13 L-10,13 L-10,11 L-8,11 L-8,9 L-10,9 L-10,7 L-6,8 L-3,5 L-3,2 Z " fill="#0D1D1A" transform="translate(59,46)"/>
<path d="M0,0 L2,0 L4,9 L5,11 L5,19 L3,19 L4,30 L0,31 L0,33 L-4,33 L-6,37 L-9,38 L-11,41 L-16,42 L-15,39 L-12,39 L-12,37 L-10,37 L-9,31 L-6,27 L-6,24 L-3,24 L-3,26 L0,26 L-1,19 L-6,18 L-2,16 L-1,3 Z " fill="#06111B" transform="translate(145,38)"/>
<path d="M0,0 L11,0 L12,5 L10,6 L12,7 L11,13 L19,13 L18,15 L12,15 L12,19 L10,19 L10,22 L7,22 L7,19 L9,19 L8,17 L4,15 L4,13 L6,13 L6,9 L4,9 L4,7 L-2,7 L-3,11 L-10,12 L-10,9 L-7,6 L-4,6 L-4,4 L0,4 Z " fill="#1B3443" transform="translate(18,0)"/>
<path d="M0,0 L23,0 L28,3 L32,4 L32,6 L22,8 L15,10 L4,7 L4,5 L2,5 L2,3 L-2,1 Z " fill="#010203" transform="translate(72,0)"/>
<path d="M0,0 L7,1 L8,6 L14,7 L17,12 L21,14 L21,16 L23,17 L22,21 L22,19 L17,19 L17,17 L14,17 L14,19 L16,19 L18,22 L18,25 L16,25 L14,21 L9,16 L13,15 L12,11 L11,8 L7,7 L2,5 L5,10 L5,12 L8,13 L7,15 L5,16 L4,12 L0,11 L-3,10 L-3,12 L0,12 L0,14 L2,14 L2,16 L-2,15 L-7,13 L-6,10 L-4,10 L-3,4 L5,4 L5,2 L0,1 Z " fill="#394643" transform="translate(99,2)"/>
<path d="M0,0 L13,0 L13,2 L16,3 L19,11 L21,12 L23,23 L27,23 L27,25 L24,25 L28,30 L27,33 L26,30 L24,30 L21,27 L18,26 L16,20 L20,22 L18,13 L12,9 L7,8 L7,6 L0,4 L-1,2 Z " fill="#091314" transform="translate(111,0)"/>
<path d="M0,0 L6,0 L10,2 L9,4 L12,5 L11,7 L8,8 L8,10 L12,12 L8,16 L6,15 L6,17 L4,18 L-4,18 L-5,16 L5,15 L5,12 L2,12 L2,10 L0,10 L-2,6 L-1,1 Z M2,9 Z " fill="#091914" transform="translate(67,34)"/>
<path d="M0,0 L18,0 L18,4 L14,4 L14,6 L11,6 L10,9 L4,14 L3,12 L0,12 Z " fill="#030A0A" transform="translate(0,0)"/>
<path d="M0,0 L6,3 L6,6 L10,7 L12,14 L14,15 L16,22 L16,27 L11,27 L10,22 L7,21 L7,19 L10,19 L10,17 L6,17 L4,6 L1,5 Z " fill="#141919" transform="translate(128,6)"/>
<path d="M0,0 L2,0 L2,14 L-18,14 L-16,11 L-13,11 L-12,8 L-3,4 L-1,4 Z " fill="#010202" transform="translate(148,70)"/>
<path d="M0,0 L2,0 L2,13 L0,14 L-1,17 L-12,22 L-13,24 L-18,27 L-24,27 L-22,24 L-28,25 L-28,23 L-18,18 L-16,18 L-16,16 L-14,16 L-14,14 L-12,15 L-13,18 L-15,18 L-15,20 L-18,20 L-17,22 L-14,21 L-12,18 L-8,16 L-7,14 L-3,14 L-3,12 L1,11 L0,8 Z " fill="#9DABAF" transform="translate(148,57)"/>
<path d="M0,0 L3,0 L4,7 L-1,8 L1,13 L-5,15 L-7,15 L-7,13 L-11,11 L-13,9 L-12,5 L-11,4 L-2,2 Z " fill="#000709" transform="translate(40,41)"/>
<path d="M0,0 L4,1 L6,5 L8,5 L9,10 L-7,9 L-7,7 L-20,8 L-20,6 L-12,4 L-8,4 L-8,2 L0,2 Z " fill="#0F1C1F" transform="translate(68,0)"/>
<path d="M0,0 L1,2 L12,3 L10,5 L8,7 L14,7 L18,6 L14,10 L-9,10 L-9,7 L-6,5 L-10,3 L-1,1 Z " fill="#0C2118" transform="translate(110,74)"/>
<path d="M0,0 L4,4 L3,6 L5,6 L7,12 L1,9 L2,16 L5,17 L5,23 L8,24 L7,26 L-2,24 L-2,2 L0,2 Z " fill="#2F4647" transform="translate(2,39)"/>
<path d="M0,0 L7,0 L7,4 L4,4 L4,7 L6,8 L0,11 L-2,11 L-2,13 L-5,12 L-2,9 L-12,8 L-11,4 L-7,4 L-6,1 Z " fill="#01070A" transform="translate(122,69)"/>
<path d="M0,0 L4,1 L12,5 L12,7 L7,8 L15,10 L12,12 L5,10 L-11,10 L-11,8 L-3,7 L-3,5 L-11,5 L-12,3 L-4,3 L1,5 L1,2 L-1,1 Z " fill="#0E1C1E" transform="translate(82,68)"/>
<path d="M0,0 L4,0 L7,3 L17,8 L21,9 L21,11 L0,11 Z " fill="#52887B" transform="translate(0,73)"/>
<path d="M0,0 L4,1 L3,11 L-2,14 L-4,14 L-3,18 L-7,20 L-9,23 L-11,23 L-12,26 L-18,28 L-18,26 L-16,26 L-16,23 L-12,22 L-9,15 L-7,16 L-8,9 L-4,9 L-4,12 L-1,10 L-1,1 Z " fill="#3D4A4F" transform="translate(130,32)"/>
<path d="M0,0 L9,0 L5,2 L5,5 L3,5 L3,8 L-8,12 L-14,12 L-15,10 L-9,10 L-10,6 L-7,6 L-7,4 L-4,4 L-4,1 Z " fill="#091A1D" transform="translate(103,65)"/>
<path d="M0,0 L1,3 L-1,3 L-1,5 L4,4 L6,6 L6,8 L3,11 L1,13 L-3,12 L-3,9 L-12,8 L-13,3 L-11,3 L-10,1 L-9,2 L-3,2 Z " fill="#000405" transform="translate(42,55)"/>
<path d="M0,0 L15,1 L15,3 L27,2 L27,4 L30,4 L29,7 L20,7 L20,6 L1,6 L1,4 L4,3 L-5,2 L-5,1 Z " fill="#233335" transform="translate(53,77)"/>
<path d="M0,0 L8,0 L12,2 L14,1 L20,3 L20,5 L17,5 L18,7 L12,6 L11,5 L0,4 L1,6 L12,7 L12,9 L15,10 L8,10 L-1,9 L-1,7 L-3,7 L-1,3 Z " fill="#343F44" transform="translate(25,74)"/>
<path d="M0,0 L2,0 L0,4 L-2,6 L-3,11 L-5,11 L-5,13 L-1,14 L-1,16 L6,15 L6,22 L3,22 L3,20 L1,20 L0,22 L-2,16 L-6,17 L-8,21 L-8,6 L-5,6 L-5,4 L-1,2 Z " fill="#28383A" transform="translate(8,16)"/>
<path d="M0,0 L7,0 L9,3 L6,3 L6,6 L14,6 L13,10 L19,9 L24,10 L22,12 L6,12 L5,8 L-1,7 Z " fill="#071618" transform="translate(18,59)"/>
<path d="M0,0 L1,3 L4,4 L3,11 L1,13 L1,20 L-3,21 L-3,23 L-11,25 L-12,22 L-9,22 L-7,14 L-5,14 L-5,18 L-3,18 L-2,12 L-1,11 L-1,1 Z " fill="#1E2527" transform="translate(122,24)"/>
<path d="M0,0 L2,0 L2,3 L6,2 L11,4 L11,11 L9,13 L6,13 L4,10 L0,8 L0,6 L-4,4 L0,2 Z " fill="#1D2C2D" transform="translate(17,45)"/>
<path d="M0,0 L2,0 L2,3 L12,2 L17,3 L17,8 L11,9 L11,5 L5,8 L2,8 L2,6 L-4,5 L-3,2 Z " fill="#1A261E" transform="translate(88,25)"/>
<path d="M0,0 L2,0 L3,7 L-1,8 L-1,10 L-5,10 L-7,14 L-10,15 L-12,18 L-17,19 L-16,16 L-13,16 L-13,14 L-11,14 L-10,8 L-6,4 L1,5 Z " fill="#384E60" transform="translate(146,61)"/>
<path d="M0,0 L5,0 L5,20 L3,18 L2,9 L0,9 L-2,19 L-4,19 L-3,11 L-1,5 L1,5 L2,1 Z " fill="#919FA2" transform="translate(145,29)"/>
<path d="M0,0 L2,0 L3,8 L-2,10 L-5,12 L-17,13 L-17,11 L-6,8 L-6,5 L-4,5 L-4,2 Z " fill="#394245" transform="translate(112,65)"/>
<path d="M0,0 L6,0 L7,2 L6,4 L9,4 L9,6 L2,9 L-8,10 L-12,9 L-21,9 L-22,6 L-19,5 L-14,6 L-6,6 L-2,7 L2,5 L0,3 Z " fill="#18272B" transform="translate(102,55)"/>
<path d="M0,0 L4,1 L8,4 L10,15 L14,15 L14,17 L11,17 L15,22 L14,25 L13,22 L11,22 L8,19 L5,18 L3,12 L7,14 L5,5 Z " fill="#7E8C8E" transform="translate(124,8)"/>
<path d="M0,0 L4,1 L3,6 L0,7 L0,14 L1,17 L-6,16 L-7,6 L-3,6 Z " fill="#1F2A24" transform="translate(107,35)"/>
<path d="M0,0 L3,3 L0,4 L1,7 L-5,7 L-8,11 L-11,10 L-15,11 L-16,7 L-11,6 L-10,2 L-2,2 Z " fill="#1B2A2C" transform="translate(71,24)"/>
<path d="M0,0 L4,0 L8,8 L7,16 L5,15 L5,13 L3,13 L1,9 L-2,9 L-1,1 Z " fill="#060B0D" transform="translate(2,32)"/>
<path d="M0,0 L0,3 L-8,5 L-5,6 L-5,10 L-7,9 L-6,7 L-8,7 L-10,11 L-13,11 L-13,13 L-16,13 L-16,3 L-10,4 L-9,1 L-8,3 Z " fill="#152124" transform="translate(16,9)"/>
<path d="M0,0 L9,2 L11,3 L11,5 L17,6 L14,7 L14,10 L8,10 L9,4 L5,5 L4,2 L2,3 L2,7 L-2,8 L-2,6 L-4,6 L-3,2 L0,2 Z " fill="#12231C" transform="translate(92,15)"/>
<path d="M0,0 L4,1 L6,2 L4,6 L3,11 L-1,11 L-2,9 L-6,10 L-6,7 L-10,6 L-10,5 L-1,3 Z " fill="#010D10" transform="translate(17,8)"/>
<path d="M0,0 L4,1 L4,4 L6,4 L8,8 L11,9 L10,5 L13,5 L14,11 L13,13 L9,13 L9,11 L3,11 L3,8 L0,5 Z " fill="#030F0E" transform="translate(3,48)"/>
<path d="M0,0 L5,1 L6,5 L4,5 L4,7 L-2,7 L-3,11 L-10,12 L-10,9 L-7,6 L-4,6 L-4,4 L0,4 Z " fill="#4C627C" transform="translate(18,0)"/>
<path d="M0,0 L2,0 L2,3 L4,3 L3,8 L0,8 L0,6 L-7,9 L-9,6 L-8,1 L-1,1 Z " fill="#132A2A" transform="translate(27,27)"/>
<path d="M0,0 L5,0 L5,2 L8,2 L8,4 L10,2 L12,0 L15,0 L15,2 L13,4 L14,6 L13,8 L15,8 L15,10 L21,9 L24,11 L12,11 L12,9 L8,8 L9,6 L7,6 L7,4 L0,2 Z " fill="#031615" transform="translate(9,73)"/>
<path d="M0,0 L4,2 L3,6 L1,5 L-2,12 L-6,12 L-6,10 L-9,10 L-9,6 L-6,4 L-1,4 L-2,1 Z " fill="#090F13" transform="translate(120,43)"/>
<path d="M0,0 L7,0 L7,2 L11,1 L20,1 L20,3 L15,6 L12,6 L12,4 L10,4 L10,6 L6,6 L5,4 L0,4 Z " fill="#22322E" transform="translate(59,15)"/>
<path d="M0,0 L5,1 L8,4 L8,6 L12,8 L16,11 L18,16 L18,19 L15,18 L14,13 L10,12 L10,9 L5,7 L0,2 Z " fill="#8D9C9D" transform="translate(124,0)"/>
<path d="M0,0 L5,1 L9,3 L12,7 L11,11 L6,11 L5,8 L0,3 Z " fill="#0B1912" transform="translate(101,7)"/>
<path d="M0,0 L2,0 L2,12 L3,14 L-1,14 L-2,17 L-3,13 L-3,6 L-6,4 L-6,2 Z " fill="#060D0F" transform="translate(134,45)"/>
<path d="M0,0 L10,1 L8,4 L1,6 L-1,10 L-4,9 L-4,7 L-8,7 L-9,10 L-9,6 L-4,3 L-4,5 L0,1 Z " fill="#020B0A" transform="translate(65,30)"/>
<path d="M0,0 L5,0 L6,2 L10,4 L10,5 L4,6 L7,7 L6,10 L4,10 L4,8 L-7,7 L-7,4 L0,5 L2,6 L2,4 L0,3 Z " fill="#6D979A" transform="translate(7,59)"/>
<path d="M0,0 L2,0 L2,13 L0,14 L-1,17 L-9,20 L-12,18 L-8,16 L-7,14 L-3,14 L-3,12 L1,11 L0,8 Z " fill="#7B8E94" transform="translate(148,57)"/>
<path d="M0,0 L4,0 L4,4 L1,4 L1,7 L3,8 L-3,11 L-5,11 L-5,13 L-8,12 L-5,9 L-7,7 L-5,7 L-5,4 L0,4 Z " fill="#06131B" transform="translate(125,69)"/>
<path d="M0,0 L4,1 L6,0 L15,2 L15,5 L18,5 L18,7 L7,7 L8,3 L0,3 Z " fill="#162427" transform="translate(24,62)"/>
<path d="M0,0 L2,1 L1,6 L-2,7 L-4,10 L-6,10 L-7,13 L-13,15 L-13,13 L-11,13 L-11,10 L-7,9 L-4,2 L-1,2 Z " fill="#5E696E" transform="translate(125,45)"/>
<path d="M0,0 L4,0 L5,2 L5,10 L1,11 L0,8 L-3,7 L-2,3 Z " fill="#01070A" transform="translate(125,33)"/>
<path d="M0,0 L4,0 L6,1 L6,3 L11,5 L9,6 L9,8 L0,7 L0,4 Z " fill="#122221" transform="translate(43,44)"/>
<path d="M0,0 L5,1 L5,4 L8,5 L7,8 L0,9 L-2,5 Z " fill="#101A20" transform="translate(115,62)"/>
<path d="M0,0 L6,0 L6,9 L1,9 L0,7 Z " fill="#3A5D56" transform="translate(144,19)"/>
<path d="M0,0 L2,0 L4,9 L5,16 L2,13 L-1,13 L-1,3 Z " fill="#1E2731" transform="translate(145,38)"/>
<path d="M0,0 L2,0 L1,5 L9,5 L8,7 L2,7 L2,11 L0,11 L0,14 L-3,14 L-3,11 L-1,11 L-3,9 L-3,6 L-1,5 Z " fill="#31494A" transform="translate(28,8)"/>
<path d="M0,0 L2,0 L3,2 L10,5 L15,7 L16,3 L18,10 L12,9 L7,8 L7,6 L0,4 L-1,2 Z " fill="#496166" transform="translate(111,0)"/>
<path d="M0,0 L7,1 L8,2 L8,7 L3,9 L2,4 L0,4 Z " fill="#122627" transform="translate(16,65)"/>
<path d="M0,0 L5,0 L4,3 L0,5 L-1,11 L-3,11 L-3,9 L-6,9 L-7,3 L-3,1 L-3,4 L-5,4 L-5,7 L-2,7 L-2,4 L0,4 Z " fill="#0F2122" transform="translate(30,15)"/>
<path d="M0,0 L9,0 L5,2 L6,4 L-12,6 L-12,4 L-4,2 L0,2 Z " fill="#363F43" transform="translate(60,2)"/>
<path d="M0,0 L16,0 L16,4 L13,4 L14,7 L11,6 L11,3 L1,2 Z " fill="#0E1211" transform="translate(95,0)"/>
<path d="M0,0 L4,1 L14,5 L14,7 L4,7 L1,5 Z " fill="#274345" transform="translate(7,77)"/>
<path d="M0,0 L8,0 L12,2 L12,4 L14,5 L5,7 L1,7 L1,5 L9,4 L9,2 L1,2 Z " fill="#3A4A4D" transform="translate(70,71)"/>
<path d="M0,0 L1,2 L-2,5 L-9,7 L-15,7 L-16,5 L-10,5 L-10,3 Z " fill="#02090C" transform="translate(104,70)"/>
<path d="M0,0 L4,1 L4,3 L8,3 L9,7 L4,7 L4,5 L-3,4 L-4,1 Z " fill="#000503" transform="translate(60,19)"/>
<path d="M0,0 L7,0 L7,2 L-1,3 L-1,6 L-4,6 L-4,4 L-11,4 L-11,2 L-1,1 Z " fill="#111D20" transform="translate(72,73)"/>
<path d="M0,0 L6,0 L7,5 L2,4 L2,6 L-2,8 L-2,5 L-4,4 Z " fill="#060B0E" transform="translate(123,51)"/>
<path d="M0,0 L4,1 L10,3 L10,4 L-5,4 L-5,2 L-10,2 L-10,1 Z " fill="#1F2D2F" transform="translate(66,5)"/>
<path d="M0,0 L2,0 L0,6 L-5,6 L-10,8 L-11,3 L0,2 Z " fill="#162627" transform="translate(73,49)"/>
<path d="M0,0 L2,0 L2,3 L5,3 L5,6 L8,7 L2,8 L2,6 L-4,5 L-3,2 Z " fill="#121813" transform="translate(88,25)"/>
<path d="M0,0 L7,0 L10,0 L18,2 L18,4 L15,4 L16,6 L10,5 L5,2 L0,1 Z " fill="#4E6364" transform="translate(27,75)"/>
<path d="M0,0 L1,4 L5,3 L6,10 L1,10 L0,5 L-3,4 L-3,2 L0,2 Z " fill="#161E1E" transform="translate(138,23)"/>
<path d="M0,0 L3,1 L4,6 L1,6 L1,9 L-1,9 L-1,6 L-9,5 L-9,4 L0,3 Z " fill="#0B1B12" transform="translate(106,22)"/>
<path d="M0,0 L6,0 L6,8 L2,8 L2,6 L-2,5 L1,5 Z " fill="#152B30" transform="translate(29,0)"/>
<path d="M0,0 L5,0 L4,4 L10,3 L15,4 L13,6 L-2,5 L-2,3 L1,3 Z " fill="#132022" transform="translate(27,65)"/>
<path d="M0,0 L9,3 L9,5 L3,7 L-4,8 L-2,7 L-4,2 L6,5 L6,3 L0,2 Z " fill="#19271F" transform="translate(89,38)"/>
<path d="M0,0 L2,0 L3,6 L-4,8 L-5,5 L-4,2 Z " fill="#516065" transform="translate(112,65)"/>
<path d="M0,0 L2,0 L4,9 L-4,11 L-5,8 L-2,8 Z " fill="#232D2F" transform="translate(115,38)"/>
<path d="M0,0 L7,0 L6,5 L-1,5 L-1,1 Z " fill="#0E1E21" transform="translate(31,39)"/>
<path d="M0,0 L8,0 L8,7 L5,7 L5,5 L3,5 L2,7 L0,3 Z " fill="#3D474B" transform="translate(6,31)"/>
<path d="M0,0 L2,1 L0,7 L-3,10 L-5,10 L-6,3 Z " fill="#515F63" transform="translate(125,56)"/>
<path d="M0,0 L4,2 L4,4 L6,4 L6,10 L3,10 L3,7 L-1,5 Z " fill="#0C1518" transform="translate(131,26)"/>
<path d="M0,0 L4,1 L1,2 L0,4 L6,4 L10,3 L6,7 L-3,7 L-4,4 L-2,4 Z " fill="#446767" transform="translate(118,77)"/>
<path d="M0,0 L11,0 L15,3 L13,4 L1,3 Z " fill="#04080B" transform="translate(25,78)"/>
<path d="M0,0 L4,1 L6,8 L8,8 L7,10 L0,8 Z " fill="#061716" transform="translate(0,55)"/>
<path d="M0,0 L6,0 L7,2 L6,4 L9,4 L9,6 L5,7 L0,3 Z " fill="#314045" transform="translate(102,55)"/>
<path d="M0,0 L4,2 L3,6 L0,6 L-2,6 L-3,8 L-3,6 L-5,6 L-6,8 L-6,4 L-1,4 L-2,1 Z " fill="#07080B" transform="translate(120,43)"/>
<path d="M0,0 L2,0 L2,6 L-4,8 L-6,8 L-6,5 L-3,2 L0,2 Z " fill="#46565E" transform="translate(14,4)"/>
<path d="M0,0 L0,3 L0,7 L-9,7 L-7,4 L-4,4 L-3,1 Z " fill="#040909" transform="translate(139,77)"/>
<path d="M0,0 L2,0 L2,14 L0,14 L-1,5 L-3,4 L-1,4 Z " fill="#11151C" transform="translate(148,70)"/>
<path d="M0,0 L3,0 L2,3 L0,3 L0,7 L2,7 L2,9 L-3,9 L-2,4 L-6,3 L-6,2 L0,1 Z " fill="#425B5F" transform="translate(16,62)"/>
<path d="M0,0 L3,2 L2,10 L0,9 L0,7 L-2,7 L-3,2 Z " fill="#020A0D" transform="translate(7,38)"/>
<path d="M0,0 L7,0 L11,0 L14,2 L3,4 L0,3 Z " fill="#0A191B" transform="translate(46,22)"/>
<path d="M0,0 L7,1 L12,1 L12,3 L7,5 L1,5 Z " fill="#253731" transform="translate(51,60)"/>
<path d="M0,0 L1,0 L0,8 L-8,12 L-6,5 L-4,5 L-4,7 L-2,7 L-1,3 L-3,2 L0,2 Z " fill="#68777C" transform="translate(143,46)"/>
<path d="M0,0 L3,1 L1,5 L0,10 L-4,10 L-4,4 L-1,3 Z " fill="#061919" transform="translate(20,9)"/>
<path d="M0,0 L5,1 L4,5 L2,5 L2,3 L0,3 L2,10 L0,10 L-2,6 L-1,1 Z " fill="#182825" transform="translate(67,34)"/>
<path d="M0,0 L5,0 L5,4 L5,6 L0,6 L-1,3 Z " fill="#2C584B" transform="translate(110,78)"/>
<path d="M0,0 L4,1 L7,3 L7,5 L3,5 L2,8 L0,7 L1,2 L-1,1 Z " fill="#0E1E1A" transform="translate(82,68)"/>
<path d="M0,0 L1,4 L-1,4 L0,9 L-8,8 L-8,5 L-5,5 L-5,7 L-2,7 L-2,1 Z " fill="#081628" transform="translate(147,57)"/>
<path d="M0,0 L4,1 L4,4 L6,4 L5,8 L1,7 Z " fill="#000203" transform="translate(3,48)"/>
<path d="M0,0 L6,2 L5,7 L3,7 L2,10 L0,6 L2,6 L2,2 L0,2 Z " fill="#436263" transform="translate(22,7)"/>
<path d="M0,0 L6,0 L8,2 L5,2 L5,5 L-1,5 Z " fill="#1A2B22" transform="translate(101,20)"/>
<path d="M0,0 L1,0 L2,9 L-1,8 L-5,9 L-6,5 L-1,4 Z " fill="#0D1C1D" transform="translate(61,26)"/>
<path d="M0,0 L8,0 L8,2 L3,5 L0,5 L-1,2 Z " fill="#172728" transform="translate(71,16)"/>
<path d="M0,0 L4,1 L8,4 L9,9 L7,12 L5,5 Z " fill="#9CABAC" transform="translate(124,8)"/>
<path d="M0,0 L3,0 L2,3 L0,3 L-1,6 L-5,4 L-6,7 L-8,3 L-6,2 L-2,3 L-2,1 Z " fill="#010A06" transform="translate(54,49)"/>
<path d="M0,0 L2,0 L2,2 L4,2 L5,0 L5,2 L7,3 L6,7 L6,5 L1,5 L1,3 L-2,2 Z " fill="#2B3539" transform="translate(115,16)"/>
<path d="M0,0 L6,0 L7,5 L2,5 L0,3 Z " fill="#000505" transform="translate(4,67)"/>
<path d="M0,0 L9,0 L9,1 L4,1 L6,6 L0,5 Z " fill="#0C1B1B" transform="translate(0,66)"/>
<path d="M0,0 L2,1 L2,4 L0,4 L-1,7 L-7,9 L-7,7 L-5,7 L-5,4 L-1,3 Z " fill="#5C696D" transform="translate(119,51)"/>
<path d="M0,0 L2,1 L2,4 L4,5 L2,5 L2,7 L4,8 L2,8 L1,11 L-2,11 L-2,9 L0,9 Z " fill="#202621" transform="translate(113,23)"/>
<path d="M0,0 L2,1 L2,7 L-3,6 L-5,7 L-6,3 Z " fill="#041211" transform="translate(85,63)"/>
<path d="M0,0 L4,2 L6,3 L5,7 L3,7 L3,5 L1,5 L2,8 L0,8 L-1,10 Z " fill="#1E2D30" transform="translate(136,46)"/>
<path d="M0,0 L3,3 L0,4 L1,7 L-4,6 L-4,3 Z " fill="#1A2A24" transform="translate(71,24)"/>
<path d="M0,0 L5,1 L7,6 L7,9 L4,8 L3,3 L0,2 Z " fill="#B3C0C1" transform="translate(135,10)"/>
<path d="M0,0 L2,0 L3,5 L-2,6 L-2,8 L-5,7 L-2,4 L-4,2 Z " fill="#1B363A" transform="translate(122,74)"/>
<path d="M0,0 L3,1 L2,4 L0,4 L-2,8 L-4,8 L-3,3 L0,3 Z " fill="#060A0D" transform="translate(141,67)"/>
<path d="M0,0 L2,0 L2,2 L5,2 L5,4 L-6,4 L-6,2 Z " fill="#455357" transform="translate(37,65)"/>
<path d="M0,0 L7,0 L9,3 L4,4 L3,6 L1,6 Z " fill="#040D10" transform="translate(18,59)"/>
<path d="M0,0 L2,0 L3,13 L1,11 L0,8 Z " fill="#C9D6DD" transform="translate(147,36)"/>
<path d="M0,0 L2,0 L5,4 L4,8 L0,7 Z " fill="#020D0B" transform="translate(108,10)"/>
<path d="M0,0 L4,1 L3,4 L-6,4 L-4,1 Z " fill="#040B0D" transform="translate(79,80)"/>
<path d="M0,0 L5,0 L4,5 L1,6 L-1,2 Z " fill="#364348" transform="translate(114,65)"/>
<path d="M0,0 L3,1 L2,5 L0,5 L-1,11 L-2,7 L-4,3 L0,4 Z " fill="#516168" transform="translate(144,29)"/>
<path d="M0,0 L4,0 L5,5 L0,6 Z " fill="#7693A3" transform="translate(25,0)"/>
<path d="M0,0 L4,1 L6,4 L-3,5 L-4,3 L0,2 Z " fill="#091315" transform="translate(68,0)"/>
<path d="M0,0 L5,0 L5,2 L8,2 L8,4 L11,5 L5,4 L0,2 Z " fill="#253738" transform="translate(9,73)"/>
<path d="M0,0 L1,4 L-2,8 L-7,9 L-6,6 L-3,6 L-3,4 L-1,4 Z " fill="#2F3B3E" transform="translate(136,71)"/>
<path d="M0,0 L4,1 L3,3 L1,2 L1,5 L-4,6 L-2,2 Z " fill="#1C2833" transform="translate(140,65)"/>
<path d="M0,0 L6,1 L6,5 L1,5 Z " fill="#4E6D60" transform="translate(144,23)"/>
<path d="M0,0 L5,1 L11,3 L11,5 L6,5 L0,1 Z " fill="#769194" transform="translate(10,79)"/>
<path d="M0,0 L10,0 L7,2 L2,4 L2,2 L-2,1 Z " fill="#0E1D1E" transform="translate(50,79)"/>
<path d="M0,0 L2,0 L4,5 L1,6 L1,4 L-2,4 L-3,1 Z " fill="#04120F" transform="translate(16,71)"/>
<path d="M0,0 L3,1 L0,7 L-4,6 L-4,4 Z " fill="#091912" transform="translate(45,54)"/>
<path d="M0,0 L5,0 L5,3 L3,3 L2,6 L2,4 L-1,4 Z " fill="#091316" transform="translate(109,55)"/>
<path d="M0,0 L3,0 L1,6 L-3,6 L-2,2 Z " fill="#061612" transform="translate(75,56)"/>
<path d="M0,0 L4,1 L6,4 L3,6 L0,6 L0,4 L2,4 L2,2 L0,2 Z " fill="#182820" transform="translate(49,53)"/>
<path d="M0,0 L5,2 L9,6 L9,9 L7,9 L5,5 Z " fill="#3A4946" transform="translate(108,18)"/>
<path d="M0,0 L6,0 L6,1 L1,1 L2,6 L0,7 L-2,6 L-1,1 Z " fill="#0D1C19" transform="translate(58,14)"/>
<path d="M0,0 L6,3 L5,9 L4,6 L1,5 Z " fill="#102020" transform="translate(128,6)"/>
<path d="M0,0 L7,0 L7,3 L0,3 Z " fill="#4E726C" transform="translate(101,81)"/>
<path d="M0,0 L1,2 L3,2 L3,4 L6,5 L-3,7 L-3,5 L0,4 Z " fill="#13241E" transform="translate(10,67)"/>
<path d="M0,0 L5,0 L5,3 L-2,4 L-3,2 L0,2 Z " fill="#15282A" transform="translate(96,69)"/>
<path d="M0,0 L1,0 L1,8 L0,10 L-2,10 L-1,2 Z " fill="#D5DDE1" transform="translate(143,38)"/>
<path d="M0,0 L4,1 L3,6 L0,6 Z " fill="#35494B" transform="translate(27,29)"/>
<path d="M0,0 L3,0 L2,4 L-5,5 L-5,3 L-1,2 Z " fill="#101E21" transform="translate(41,24)"/>
<path d="M0,0 L4,0 L4,2 L10,1 L13,3 L1,3 Z " fill="#070F16" transform="translate(20,81)"/>
<path d="M0,0 L4,0 L7,4 L0,4 Z " fill="#48716C" transform="translate(0,73)"/>
<path d="M0,0 L7,0 L12,1 L10,3 L0,2 Z " fill="#1D2C2F" transform="translate(30,68)"/>
<path d="M0,0 L9,1 L9,3 L3,4 L2,1 Z " fill="#132125" transform="translate(105,52)"/>
<path d="M0,0 L2,1 L2,5 L-3,4 L-3,1 Z " fill="#000306" transform="translate(147,50)"/>
<path d="M0,0 L2,0 L5,7 L0,7 L0,4 Z " fill="#112022" transform="translate(43,44)"/>
<path d="M0,0 L6,2 L7,4 L3,6 L0,5 L2,5 Z " fill="#112118" transform="translate(85,40)"/>
<path d="M0,0 L2,0 L3,8 L0,8 Z " fill="#535959" transform="translate(115,38)"/>
<path d="M0,0 L4,4 L3,6 L-2,6 L-2,2 L0,2 Z " fill="#3A5252" transform="translate(2,39)"/>
<path d="M0,0 L8,4 L8,6 L4,6 L4,4 L0,2 Z " fill="#101E21" transform="translate(37,32)"/>
<path d="M0,0 L5,0 L4,3 L0,5 L-1,7 Z " fill="#182B2C" transform="translate(30,15)"/>
<path d="M0,0 L5,1 L5,3 L7,3 L7,5 L3,4 L-1,2 Z " fill="#4E5E57" transform="translate(94,13)"/>
<path d="M0,0 L5,1 L5,3 L-1,4 L-2,1 Z " fill="#0F1F23" transform="translate(82,60)"/>
<path d="M0,0 L2,0 L2,6 L1,8 L-1,8 Z " fill="#2C3A48" transform="translate(145,38)"/>
<path d="M0,0 L2,0 L1,7 L-3,6 L-3,3 L-1,3 Z " fill="#3F4F57" transform="translate(137,39)"/>
<path d="M0,0 L7,1 L10,2 L10,4 L4,3 Z " fill="#22322A" transform="translate(85,39)"/>
<path d="M0,0 L3,4 L1,8 L-2,9 Z " fill="#131B1F" transform="translate(5,32)"/>
<path d="M0,0 L7,1 L8,4 L1,2 Z " fill="#111611" transform="translate(85,35)"/>
<path d="M0,0 L2,1 L1,7 L-3,7 L-2,3 L1,4 Z " fill="#000103" transform="translate(129,26)"/>
<path d="M0,0 L3,0 L3,3 L0,5 L0,7 L-2,7 L-2,2 Z " fill="#2B3034" transform="translate(2,15)"/>
<path d="M0,0 L2,0 L1,5 L-3,8 L-2,2 Z " fill="#07180F" transform="translate(94,7)"/>
<path d="M0,0 L2,0 L3,6 L-1,6 L-1,1 Z " fill="#7F8F93" transform="translate(112,65)"/>
<path d="M0,0 L3,2 L3,4 L7,5 L7,7 L3,6 L0,3 Z " fill="#395050" transform="translate(10,46)"/>
<path d="M0,0 L4,1 L5,4 L0,5 L-1,1 Z " fill="#0A1511" transform="translate(108,42)"/>
<path d="M0,0 L2,1 L-1,6 L-4,5 L-3,2 Z " fill="#1D221E" transform="translate(88,25)"/>
<path d="M0,0 L3,2 L4,11 L0,7 L2,7 Z " fill="#6E8381" transform="translate(140,12)"/>
<path d="M0,0 L2,0 L1,5 L-2,5 L-3,7 L-4,4 L0,3 Z " fill="#010305" transform="translate(5,15)"/>
<path d="M0,0 L3,0 L3,3 L6,3 L6,5 L1,4 Z " fill="#283635" transform="translate(102,47)"/>
<path d="M0,0 L2,0 L3,4 L1,8 L1,4 L-1,4 Z " fill="#222522" transform="translate(116,34)"/>
<path d="M0,0 L1,4 L7,3 L5,5 L-1,6 L-1,3 Z " fill="#121611" transform="translate(98,30)"/>
<path d="M0,0 L2,0 L1,5 L-2,5 L-2,1 Z " fill="#2C312E" transform="translate(101,29)"/>
<path d="M0,0 L3,4 L1,11 L0,11 Z " fill="#677F80" transform="translate(0,26)"/>
<path d="M0,0 L3,3 L2,7 L0,7 L-1,1 Z " fill="#233939" transform="translate(21,13)"/>
<path d="M0,0 L2,1 L2,3 L5,4 L4,6 L2,7 L1,3 L-2,2 L0,2 Z " fill="#35403B" transform="translate(102,11)"/>
<path d="M0,0 L3,0 L4,7 L1,7 L2,1 Z " fill="#031515" transform="translate(28,6)"/>
<path d="M0,0 L4,0 L3,3 L-3,3 Z " fill="#97A8AE" transform="translate(127,81)"/>
<path d="M0,0 L2,4 L-3,6 L-4,3 L0,3 Z " fill="#2C4141" transform="translate(22,68)"/>
<path d="M0,0 L5,1 L4,5 L0,4 Z " fill="#203B3E" transform="translate(16,65)"/>
<path d="M0,0 L4,1 L7,1 L8,3 L0,3 Z " fill="#2A3A3D" transform="translate(24,62)"/>
<path d="M0,0 L2,1 L2,6 L-1,5 L-2,1 Z " fill="#061416" transform="translate(41,48)"/>
<path d="M0,0 L6,0 L6,2 L4,2 L3,4 L3,2 L1,2 L0,4 Z " fill="#010305" transform="translate(114,47)"/>
<path d="M0,0 L2,0 L3,4 L-2,5 Z " fill="#0F1E20" transform="translate(18,14)"/>
<path d="M0,0 L4,1 L5,4 L0,4 Z " fill="#4E5754" transform="translate(96,7)"/>
<path d="M0,0 L3,0 L5,6 L1,4 Z " fill="#040805" transform="translate(101,7)"/>
<path d="M0,0 L4,2 L5,4 L3,4 L2,6 L2,3 L-2,1 Z " fill="#8E9EA0" transform="translate(132,6)"/>
<path d="M0,0 L2,0 L2,6 L-2,6 L-2,4 L0,4 Z " fill="#72829E" transform="translate(18,0)"/>
<path d="M0,0 L5,2 L5,4 L-1,4 Z " fill="#081717" transform="translate(89,71)"/>
<path d="M0,0 L1,4 L-3,5 L-4,7 L-4,3 L0,2 Z " fill="#A4B8BF" transform="translate(149,66)"/>
<path d="M0,0 L4,1 L5,4 L1,3 L-1,1 Z " fill="#1C2C27" transform="translate(82,68)"/>
<path d="M0,0 L5,0 L5,2 L-2,4 Z " fill="#2F403C" transform="translate(58,61)"/>
<path d="M0,0 L3,1 L3,5 L1,5 L1,3 L-3,2 Z " fill="#3A4A4E" transform="translate(129,57)"/>
<path d="M0,0 L4,1 L2,2 L2,4 L-4,4 L-1,3 Z " fill="#16292A" transform="translate(17,58)"/>
<path d="M0,0 L4,2 L3,7 L1,3 Z " fill="#3F4D51" transform="translate(24,50)"/>
<path d="M0,0 L2,0 L0,6 L-2,6 L-3,3 L0,2 Z " fill="#213131" transform="translate(73,49)"/>
<path d="M0,0 L1,4 L3,5 L1,5 L1,8 L-3,7 L-1,5 Z " fill="#16222B" transform="translate(133,37)"/>
<path d="M0,0 L4,2 L4,8 L3,4 L0,3 Z " fill="#1B2B29" transform="translate(126,11)"/>
<path d="M0,0 L7,1 L8,3 L3,3 Z " fill="#10242F" transform="translate(118,8)"/>
<path d="M0,0 L2,0 L3,2 L7,4 L0,4 L-1,2 Z " fill="#334446" transform="translate(111,0)"/>
<path d="M0,0 L2,1 L1,5 L-2,4 L-2,1 Z " fill="#000601" transform="translate(82,45)"/>
<path d="M0,0 L2,2 L2,8 L1,5 L-1,5 Z " fill="#141F25" transform="translate(128,33)"/>
<path d="M0,0 L1,3 L4,4 L-1,5 Z " fill="#384044" transform="translate(122,24)"/>
<path d="M0,0 L2,4 L-2,5 L-3,2 L0,2 Z " fill="#3A4041" transform="translate(138,23)"/>
<path d="M0,0 L1,4 L-4,3 L-4,1 Z " fill="#010406" transform="translate(125,3)"/>
<path d="M0,0 L4,0 L5,5 L3,5 L0,2 Z " fill="#B4C4C6" transform="translate(124,0)"/>
<path d="M0,0 L2,1 L1,4 L-3,4 L-2,1 Z " fill="#88999F" transform="translate(125,56)"/>
<path d="M0,0 L8,1 L7,3 L3,3 L3,1 Z " fill="#374549" transform="translate(18,57)"/>
<path d="M0,0 L5,0 L1,4 Z " fill="#1F2D31" transform="translate(102,55)"/>
<path d="M0,0 L2,3 L2,5 L-4,5 L0,3 Z " fill="#222F33" transform="translate(143,51)"/>
<path d="M0,0 L3,0 L4,4 L0,3 Z " fill="#19312E" transform="translate(10,53)"/>
<path d="M0,0 L3,0 L2,5 L0,4 Z " fill="#11211E" transform="translate(93,48)"/>
<path d="M0,0 L3,0 L4,4 L0,4 Z " fill="#1E2E30" transform="translate(32,40)"/>
<path d="M0,0 L2,0 L3,5 L-1,4 Z " fill="#111514" transform="translate(123,36)"/>
<path d="M0,0 L5,1 L4,4 L1,3 Z " fill="#09181B" transform="translate(41,38)"/>
<path d="M0,0 L4,1 L4,4 L1,4 Z " fill="#596D6E" transform="translate(1,23)"/>
<path d="M0,0 L4,1 L6,5 L1,2 Z " fill="#89A0A3" transform="translate(124,8)"/>
<path d="M0,0 L1,2 L5,3 L-2,4 L-2,1 Z " fill="#3D474B" transform="translate(10,8)"/>
<path d="M0,0 L4,1 L4,4 L0,3 Z " fill="#060F13" transform="translate(114,5)"/>
<path d="M0,0 L6,0 L6,3 L2,2 Z " fill="#4F6669" transform="translate(118,0)"/>
<path d="M0,0 L4,2 L-2,3 L-2,1 Z " fill="#819AA0" transform="translate(122,79)"/>
<path d="M0,0 L3,0 L3,2 L-2,4 L-2,1 Z " fill="#142424" transform="translate(21,73)"/>
<path d="M0,0 L2,2 L1,5 L-2,5 L-2,2 L0,2 Z " fill="#0B0E11" transform="translate(125,61)"/>
<path d="M0,0 L4,3 L0,5 L0,2 L-2,1 Z " fill="#151F24" transform="translate(121,54)"/>
<path d="M0,0 L3,1 L2,5 L0,5 L-1,1 Z " fill="#869298" transform="translate(120,49)"/>
<path d="M0,0 L4,3 L4,5 L0,4 Z " fill="#293939" transform="translate(47,46)"/>
<path d="M0,0 L2,0 L3,4 L0,4 L-1,2 Z " fill="#1F292D" transform="translate(9,36)"/>
<path d="M0,0 L2,1 L2,4 L4,5 L1,6 L0,5 Z " fill="#15231D" transform="translate(113,23)"/>
<path d="M0,0 L3,0 L2,3 L-2,2 Z " fill="#223032" transform="translate(80,81)"/>
<path d="M0,0 L7,1 L3,3 L0,2 Z " fill="#78878C" transform="translate(128,79)"/>
<path d="M0,0 L1,4 L-2,4 L-3,1 Z " fill="#000403" transform="translate(16,71)"/>
<path d="M0,0 L3,1 L0,4 L-2,3 Z " fill="#17271E" transform="translate(45,54)"/>
<path d="M0,0 L3,1 L2,5 L0,5 Z " fill="#263438" transform="translate(139,48)"/>
<path d="M0,0 L4,1 L0,5 Z " fill="#03080B" transform="translate(3,48)"/>
<path d="M0,0 L4,1 L3,3 L-1,3 Z " fill="#1C1F1D" transform="translate(119,41)"/>
<path d="M0,0 L4,1 L2,3 L-1,3 Z " fill="#000502" transform="translate(71,31)"/>
<path d="M0,0 L3,1 L2,5 L0,5 Z " fill="#647774" transform="translate(144,29)"/>
<path d="M0,0 L1,4 L-3,3 Z " fill="#0B1A1C" transform="translate(77,18)"/>
<path d="M0,0 L5,0 L3,1 L2,4 Z " fill="#395653" transform="translate(22,13)"/>
<path d="M0,0 L5,1 L5,3 L2,4 Z " fill="#263336" transform="translate(108,8)"/>
<path d="M0,0 L0,3 L-2,4 L-4,2 Z " fill="#1B2224" transform="translate(139,77)"/>
<path d="M0,0 L2,0 L3,3 L-3,2 Z " fill="#33393B" transform="translate(102,74)"/>
<path d="M0,0 L2,0 L0,4 L-2,4 Z " fill="#A4B0B7" transform="translate(138,67)"/>
<path d="M0,0 L3,1 L2,5 L0,3 Z " fill="#081815" transform="translate(79,48)"/>
<path d="M0,0 L4,1 L3,3 L0,3 Z " fill="#0E1418" transform="translate(126,41)"/>
<path d="M0,0 L4,0 L3,3 L0,2 Z " fill="#0B1B1A" transform="translate(57,37)"/>
<path d="M0,0 L2,1 L3,3 L-2,4 Z " fill="#0B0E09" transform="translate(115,31)"/>
<path d="M0,0 L4,0 L4,3 L1,3 Z " fill="#324342" transform="translate(63,27)"/>
<path d="M0,0 L2,1 L1,4 L-2,4 Z " fill="#6B7B7F" transform="translate(132,23)"/>
<path d="M0,0 L4,0 L3,3 L0,2 Z " fill="#435350" transform="translate(89,19)"/>
<path d="M0,0 L4,2 L5,4 L0,2 Z " fill="#788589" transform="translate(111,11)"/>
<path d="M0,0 L5,1 L1,3 Z " fill="#ABBBBD" transform="translate(135,10)"/>
<path d="M0,0 L4,2 L3,4 L1,4 Z " fill="#161E18" transform="translate(104,8)"/>
<path d="M0,0 L4,2 L0,3 L-3,1 Z " fill="#6F797C" transform="translate(139,74)"/>
<path d="M0,0 L3,0 L3,3 L0,3 Z " fill="#142024" transform="translate(126,70)"/>
<path d="M0,0 L1,3 L-2,4 L-2,1 Z " fill="#3D5053" transform="translate(110,66)"/>
<path d="M0,0 L2,0 L2,4 L-1,3 Z " fill="#121928" transform="translate(146,44)"/>
<path d="M0,0 L2,0 L2,4 L0,4 L-1,1 Z " fill="#606769" transform="translate(123,40)"/>
<path d="M0,0 L3,1 L3,4 L1,4 Z " fill="#021008" transform="translate(84,41)"/>
<path d="M0,0 L3,0 L3,3 L0,3 Z " fill="#6A8A7A" transform="translate(147,24)"/>
<path d="M0,0 L3,0 L3,3 L0,3 Z " fill="#778488" transform="translate(11,7)"/>
<path d="M0,0 L3,3 L0,4 Z " fill="#0D1C1E" transform="translate(18,50)"/>
<path d="M0,0 L4,1 L4,3 L0,1 Z " fill="#1D2D2C" transform="translate(56,48)"/>
<path d="M0,0 L2,4 L-2,2 L0,2 Z " fill="#192C2D" transform="translate(2,43)"/>
<path d="M0,0 L3,1 L3,3 L0,3 Z " fill="#2F3C40" transform="translate(42,35)"/>
<path d="M0,0 L4,1 L1,3 Z " fill="#1A2A2B" transform="translate(55,32)"/>
<path d="M0,0 L3,1 L3,3 L0,3 Z " fill="#273538" transform="translate(16,19)"/>
<path d="M0,0 L2,2 L1,4 L-1,4 Z " fill="#020F0F" transform="translate(87,16)"/>
<path d="M0,0 L1,2 L3,3 L-1,3 Z " fill="#1F2F2E" transform="translate(71,16)"/>
<path d="M0,0 L2,0 L1,3 L-1,3 Z " fill="#6B8891" transform="translate(12,66)"/>
<path d="M0,0 L3,1 L3,3 L0,2 Z " fill="#47565A" transform="translate(24,50)"/>
<path d="M0,0 L2,1 L2,3 L-2,1 Z " fill="#2D3D36" transform="translate(101,17)"/>
<path d="M0,0 L2,0 L1,3 L-1,3 Z " fill="#17231B" transform="translate(94,7)"/>
</svg>
