<?xml version="1.0" encoding="UTF-8"?>
<!-- Generator: visioncortex VTracer 0.6.5 -->
<svg version="1.1" xmlns="http://www.w3.org/2000/svg" width="150" height="84">
<path d="M0,0 L150,0 L150,84 L0,84 Z " fill="#010303" transform="translate(0,0)"/>
<path d="M0,0 L46,0 L46,5 L40,12 L35,7 L32,16 L38,12 L37,18 L33,22 L31,22 L32,26 L38,24 L42,20 L42,17 L44,17 L45,12 L51,11 L54,15 L49,15 L49,17 L45,17 L45,22 L37,29 L35,29 L36,35 L31,35 L31,48 L29,48 L31,51 L35,50 L38,49 L38,47 L42,47 L44,51 L45,57 L42,60 L39,60 L39,62 L45,63 L45,66 L47,68 L44,69 L42,69 L46,71 L43,72 L43,74 L48,72 L51,72 L52,64 L59,61 L63,61 L65,64 L64,69 L60,71 L64,73 L60,73 L60,75 L62,76 L62,78 L53,78 L53,80 L59,80 L57,82 L54,82 L54,84 L0,84 Z " fill="#030B16" transform="translate(0,0)"/>
<path d="M0,0 L5,0 L6,4 L8,4 L8,13 L13,15 L18,17 L20,23 L15,23 L8,17 L8,19 L10,19 L12,24 L15,28 L16,31 L24,33 L24,35 L27,34 L25,33 L26,29 L27,28 L27,22 L25,21 L24,23 L24,17 L23,16 L23,9 L28,9 L29,14 L34,14 L38,12 L38,10 L42,10 L44,14 L45,20 L42,23 L39,23 L39,25 L45,26 L45,29 L47,31 L44,32 L42,32 L46,34 L43,35 L43,37 L48,35 L51,35 L52,27 L59,24 L63,24 L65,27 L64,32 L60,34 L64,36 L60,36 L60,38 L62,39 L62,41 L53,41 L53,43 L59,43 L57,45 L54,45 L54,47 L0,47 Z " fill="#141C23" transform="translate(0,37)"/>
<path d="M0,0 L9,0 L9,5 L3,12 L-2,7 L-5,16 L1,12 L0,18 L-4,22 L-6,22 L-5,26 L1,24 L5,20 L5,17 L7,17 L8,12 L14,11 L17,15 L12,15 L12,17 L8,17 L8,22 L0,29 L-2,29 L-1,35 L-6,35 L-7,42 L-9,42 L-10,34 L-13,34 L-12,28 L-10,24 L-8,24 L-8,16 L-14,18 L-15,20 L-10,19 L-12,25 L-16,30 L-17,44 L-19,44 L-20,32 L-22,32 L-23,34 L-29,29 L-29,27 L-27,27 L-27,25 L-25,24 L-22,18 L-17,15 L-15,15 L-15,13 L-13,13 L-12,10 L-8,6 L-7,4 Z " fill="#1B252A" transform="translate(37,0)"/>
<path d="M0,0 L5,0 L6,5 L11,5 L15,3 L15,1 L19,1 L21,5 L22,11 L19,14 L16,14 L16,16 L22,17 L22,20 L24,22 L21,23 L18,23 L16,27 L19,27 L19,29 L16,29 L16,31 L12,32 L2,29 L2,27 L9,27 L2,24 L3,20 L4,19 L4,13 L2,12 L1,14 L1,8 L0,7 Z " fill="#1F2D39" transform="translate(23,46)"/>
<path d="M0,0 L1,2 L-2,7 L-4,7 L-2,11 L3,11 L0,16 L4,16 L5,12 L15,13 L15,24 L8,24 L11,29 L11,31 L9,31 L8,28 L3,29 L-1,31 L-5,30 L0,26 L0,24 L-7,24 L-7,26 L-5,27 L-15,29 L-15,27 L-25,27 L-25,24 L-19,24 L-18,20 L-14,21 L-11,21 L-10,20 L-3,20 L-4,18 L-7,17 L-7,7 L-2,2 Z " fill="#0D1012" transform="translate(135,49)"/>
<path d="M0,0 L18,0 L18,11 L15,14 L13,14 L13,16 L6,16 L6,13 L1,12 L-1,12 L-4,21 L-10,26 L-14,27 L-15,22 L-11,21 L-9,16 L-9,13 L-12,16 L-14,16 L-12,5 L-6,10 L-1,5 Z " fill="#162522" transform="translate(46,0)"/>
<path d="M0,0 L19,0 L20,3 L23,2 L23,9 L20,9 L20,12 L15,15 L14,17 L12,17 L12,20 L8,19 L6,18 L5,15 L3,18 L3,28 L1,28 L0,30 Z " fill="#2F242A" transform="translate(0,0)"/>
<path d="M0,0 L18,0 L14,4 L11,4 L9,9 L5,13 L3,13 L3,15 L-4,19 L-7,25 L-9,25 L-9,27 L-11,27 L-11,29 L-8,30 L-11,31 L-12,34 L-14,34 L-14,37 L-19,37 L-19,30 L-18,28 L-16,28 L-17,25 L-17,18 L-13,14 L-13,18 L-7,20 L-7,17 L-5,17 L-3,13 L1,12 L1,9 L4,9 L4,2 L2,2 L1,4 Z " fill="#03070C" transform="translate(19,0)"/>
<path d="M0,0 L5,0 L6,4 L8,4 L8,13 L13,15 L18,17 L20,23 L15,23 L8,17 L8,19 L10,19 L12,24 L15,28 L15,33 L11,32 L4,29 L5,24 L7,24 L7,19 L0,19 Z " fill="#384752" transform="translate(0,37)"/>
<path d="M0,0 L9,0 L12,2 L18,4 L18,6 L15,7 L19,7 L19,9 L27,8 L27,10 L23,10 L23,12 L28,14 L28,18 L11,18 L11,15 L9,15 L10,11 L4,10 L4,8 L1,7 Z " fill="#202931" transform="translate(71,66)"/>
<path d="M0,0 L4,0 L4,8 L2,8 L1,15 L-1,15 L-1,18 L2,18 L3,26 L6,27 L6,32 L4,32 L6,36 L3,35 L3,30 L-2,30 L-2,32 L-7,32 L-5,20 L-5,13 L-3,13 L-1,9 L2,3 L-3,4 L-2,1 Z " fill="#06121B" transform="translate(25,16)"/>
<path d="M0,0 L3,2 L3,6 L6,7 L6,13 L3,18 L7,20 L2,20 L2,18 L-6,17 L-7,13 L-9,12 L-12,8 L-12,4 L-14,4 L-14,2 L-10,4 L-7,7 L-2,8 L-4,5 L-4,2 Z " fill="#07121C" transform="translate(22,52)"/>
<path d="M0,0 L6,0 L6,3 L9,4 L8,9 L6,12 L5,26 L3,26 L2,14 L0,14 L-1,16 L-7,11 L-7,9 L-5,9 L-5,7 L-3,6 Z " fill="#5D727B" transform="translate(15,18)"/>
<path d="M0,0 L3,1 L3,4 L0,4 L0,7 L-5,10 L-6,12 L-8,12 L-8,15 L-12,14 L-14,13 L-15,10 L-17,13 L-17,23 L-19,23 L-20,25 L-20,3 L-13,3 L-14,7 L-8,8 L-8,6 Z " fill="#101C1B" transform="translate(20,5)"/>
<path d="M0,0 L7,0 L7,5 L5,5 L4,10 L10,11 L15,14 L16,12 L24,14 L24,16 L30,15 L34,18 L25,17 L25,19 L28,20 L23,19 L18,18 L12,15 L12,17 L7,15 L3,12 L3,9 L0,9 Z " fill="#23313D" transform="translate(0,56)"/>
<path d="M0,0 L6,5 L12,5 L10,12 L7,17 L2,21 L-2,22 L-3,17 L1,16 L3,11 L3,8 L0,11 L-2,11 Z " fill="#171919" transform="translate(34,5)"/>
<path d="M0,0 L6,0 L6,2 L12,3 L12,5 L14,5 L15,11 L0,11 Z " fill="#767677" transform="translate(0,73)"/>
<path d="M0,0 L2,1 L-3,8 L-6,10 L-17,11 L-21,14 L-19,10 L-16,9 L-17,6 L-16,4 L-12,4 L-12,2 L-2,3 L-2,1 Z M-23,14 L-21,15 L-25,17 Z " fill="#050F10" transform="translate(61,13)"/>
<path d="M0,0 L4,1 L7,1 L8,0 L13,0 L18,4 L11,4 L11,6 L13,7 L3,9 L3,7 L-7,7 L-7,4 L-1,4 Z " fill="#282C2E" transform="translate(117,69)"/>
<path d="M0,0 L4,0 L6,3 L5,8 L-4,11 L-8,11 L-7,3 Z " fill="#121718" transform="translate(59,61)"/>
<path d="M0,0 L9,0 L12,2 L18,4 L18,6 L15,7 L17,9 L4,10 L4,8 L1,7 Z " fill="#2C3537" transform="translate(71,66)"/>
<path d="M0,0 L9,0 L9,5 L3,12 L-2,7 L-4,7 L-7,7 L-7,4 Z " fill="#3C3F40" transform="translate(37,0)"/>
<path d="M0,0 L9,1 L8,6 L7,7 L-8,7 L-8,5 L-5,4 L-9,3 L-9,1 Z " fill="#01050A" transform="translate(62,77)"/>
<path d="M0,0 L8,0 L8,11 L7,12 L0,12 Z " fill="#273641" transform="translate(56,0)"/>
<path d="M0,0 L5,1 L7,4 L13,5 L12,10 L11,11 L5,11 L-1,7 Z " fill="#010308" transform="translate(10,43)"/>
<path d="M0,0 L15,0 L13,4 L16,4 L16,6 L13,6 L13,8 L9,9 L-1,6 L-1,4 L6,4 L0,1 Z " fill="#54636E" transform="translate(26,69)"/>
<path d="M0,0 L1,0 L2,8 L5,9 L2,10 L1,13 L-1,13 L-1,16 L-6,16 L-6,9 L-5,7 L-3,7 L-4,1 L-3,3 Z " fill="#06101B" transform="translate(6,21)"/>
<path d="M0,0 L5,2 L6,7 L4,7 L4,9 L2,9 L2,17 L0,17 L-1,9 L-4,9 L-3,3 Z " fill="#445A62" transform="translate(28,25)"/>
<path d="M0,0 L9,0 L9,6 L11,6 L13,5 L12,12 L8,14 L4,14 L4,12 L6,11 L-1,8 L3,7 L5,7 L6,3 L0,2 Z " fill="#060C11" transform="translate(39,60)"/>
<path d="M0,0 L13,0 L13,2 L15,3 L13,6 L1,6 L-1,5 Z " fill="#0F1C1B" transform="translate(90,9)"/>
<path d="M0,0 L5,0 L5,2 L2,3 L2,7 L-3,9 L-7,14 L-2,13 L-4,19 L-8,15 L-8,12 L-12,11 L-7,9 L-7,7 L-5,7 L-4,4 Z " fill="#33424E" transform="translate(29,6)"/>
<path d="M0,0 L6,0 L6,4 L-1,4 L2,9 L2,11 L0,11 L-1,8 L-6,9 L-10,11 L-14,10 L-7,6 L-5,6 L-5,2 Z " fill="#24282A" transform="translate(144,69)"/>
<path d="M0,0 L2,0 L2,2 L9,2 L9,8 L1,8 L1,6 L-2,6 L-2,8 L-5,8 L-4,3 Z " fill="#050607" transform="translate(141,49)"/>
<path d="M0,0 L7,0 L13,2 L17,4 L16,9 L11,9 L11,6 L5,5 Z " fill="#000207" transform="translate(17,75)"/>
<path d="M0,0 L3,1 L3,4 L0,4 L0,7 L-5,10 L-6,12 L-8,12 L-8,15 L-12,14 L-12,10 L-4,3 Z " fill="#6C7881" transform="translate(20,5)"/>
<path d="M0,0 L12,0 L12,6 L8,7 L0,6 Z " fill="#4C3B42" transform="translate(0,0)"/>
<path d="M0,0 L5,0 L2,5 L1,19 L-1,19 L-2,7 L-4,7 L-5,9 L-7,6 L-2,6 L-2,1 Z " fill="#455D65" transform="translate(19,25)"/>
<path d="M0,0 L13,1 L15,2 L15,5 L-4,5 L-4,3 L0,2 Z " fill="#606E79" transform="translate(37,79)"/>
<path d="M0,0 L7,0 L8,3 L13,4 L13,5 L4,5 L4,7 L10,7 L8,9 L5,9 L5,11 L3,11 L3,8 L-6,7 L-6,6 L0,5 Z " fill="#2F3A42" transform="translate(49,73)"/>
<path d="M0,0 L5,0 L6,4 L8,4 L8,13 L6,13 L6,9 L0,9 Z " fill="#404E59" transform="translate(0,37)"/>
<path d="M0,0 L7,0 L7,11 L2,9 L1,6 L-1,6 L-1,1 Z " fill="#384544" transform="translate(143,11)"/>
<path d="M0,0 L5,0 L7,8 L7,13 L2,12 L1,14 L1,8 L0,7 Z " fill="#142530" transform="translate(23,46)"/>
<path d="M0,0 L4,0 L7,4 L5,5 L0,5 L-1,6 L-10,6 L-10,2 Z " fill="#081212" transform="translate(117,20)"/>
<path d="M0,0 L10,2 L10,4 L7,4 L7,6 L9,6 L9,8 L1,7 L-1,6 L-1,4 L-3,4 L-3,2 Z " fill="#0E1717" transform="translate(84,16)"/>
<path d="M0,0 L9,1 L11,4 L-2,4 L-1,7 L-5,7 L-5,4 L-9,3 L-10,1 L0,2 Z " fill="#16222B" transform="translate(39,75)"/>
<path d="M0,0 L1,4 L4,5 L4,7 L7,7 L5,13 L2,13 L1,9 L-2,10 L-3,4 Z " fill="#030709" transform="translate(5,14)"/>
<path d="M0,0 L13,0 L9,4 L6,4 L4,9 L3,6 L0,6 Z " fill="#0B1017" transform="translate(24,0)"/>
<path d="M0,0 L3,0 L3,3 L7,5 L11,9 L7,11 L4,10 L6,10 L6,8 L0,8 Z " fill="#020408" transform="translate(0,65)"/>
<path d="M0,0 L2,0 L2,2 L7,2 L9,4 L14,6 L14,7 L0,7 L-1,3 L-3,1 Z " fill="#0B1415" transform="translate(99,77)"/>
<path d="M0,0 L7,0 L14,6 L18,7 L18,9 L8,9 L7,3 L5,3 L5,1 L0,1 Z " fill="#303335" transform="translate(7,75)"/>
<path d="M0,0 L6,2 L5,4 L10,2 L14,0 L12,4 L11,7 L15,9 L10,9 L10,7 L2,6 L1,2 L-1,1 Z " fill="#101C27" transform="translate(14,63)"/>
<path d="M0,0 L1,2 L-2,7 L-4,7 L-2,12 L-3,16 L-6,15 L-7,7 L-2,2 Z M-2,11 L3,11 L3,12 L-2,12 Z " fill="#1C1E20" transform="translate(135,49)"/>
<path d="M0,0 L6,0 L6,5 L-4,6 L-5,2 Z " fill="#000001" transform="translate(144,64)"/>
<path d="M0,0 L3,2 L-4,8 L-8,9 L-9,4 Z " fill="#020508" transform="translate(40,18)"/>
<path d="M0,0 L6,1 L6,3 L12,2 L16,5 L7,4 L7,6 L10,7 L5,6 L0,5 L-4,3 L0,2 Z " fill="#1E2C37" transform="translate(18,69)"/>
<path d="M0,0 L3,1 L3,7 L2,11 L0,11 L0,13 L-6,11 L-6,9 L-4,9 L-4,11 L-1,11 L-1,9 L-3,9 L-3,7 L-1,7 L-1,1 Z " fill="#495964" transform="translate(39,49)"/>
<path d="M0,0 L4,1 L6,5 L3,5 L3,7 L-7,7 L-7,4 L-1,4 Z " fill="#1E2627" transform="translate(117,69)"/>
<path d="M0,0 L9,0 L12,2 L17,3 L17,5 L0,4 Z " fill="#242E2D" transform="translate(71,66)"/>
<path d="M0,0 L8,2 L7,0 L14,1 L14,4 L16,6 L13,7 L0,2 Z " fill="#2E3D48" transform="translate(31,62)"/>
<path d="M0,0 L9,1 L12,2 L12,4 L9,5 L2,5 L-1,3 Z " fill="#0F1C1B" transform="translate(106,4)"/>
<path d="M0,0 L6,0 L6,2 L12,3 L12,5 L14,5 L15,11 L13,9 L13,6 L7,5 L0,4 Z " fill="#505356" transform="translate(0,73)"/>
<path d="M0,0 L3,0 L2,4 L-2,7 L-4,7 L-4,9 L-10,9 L-5,4 L-3,2 L0,2 Z " fill="#050709" transform="translate(16,4)"/>
<path d="M0,0 L4,0 L6,4 L7,10 L3,13 L3,10 L1,9 L4,9 L3,3 L1,3 L0,9 L-2,8 L-1,2 Z " fill="#2D3E48" transform="translate(38,47)"/>
<path d="M0,0 L6,0 L6,4 L8,4 L8,7 L0,6 Z " fill="#020508" transform="translate(0,46)"/>
<path d="M0,0 L7,0 L3,8 L0,10 Z " fill="#5C595B" transform="translate(0,8)"/>
<path d="M0,0 L5,0 L5,2 L2,3 L2,7 L-5,8 L-4,4 Z " fill="#3A444E" transform="translate(29,6)"/>
<path d="M0,0 L3,0 L2,6 L-3,6 L-7,7 L-7,4 Z " fill="#919292" transform="translate(37,0)"/>
<path d="M0,0 L7,0 L7,5 L0,6 Z " fill="#03050A" transform="translate(0,56)"/>
<path d="M0,0 L4,0 L2,5 L0,6 L-6,6 L-6,3 L-5,1 Z " fill="#353C3C" transform="translate(60,65)"/>
<path d="M0,0 L1,2 L4,3 L1,4 L0,7 L-2,7 L-2,10 L-7,10 L-7,6 L0,4 Z " fill="#182631" transform="translate(7,27)"/>
<path d="M0,0 L5,1 L7,4 L2,4 L2,6 L-3,6 L-2,1 Z " fill="#475453" transform="translate(47,11)"/>
<path d="M0,0 L4,3 L8,5 L4,7 L-4,7 L-3,3 Z " fill="#384753" transform="translate(29,63)"/>
<path d="M0,0 L4,1 L9,4 L10,8 L6,7 L-1,4 Z " fill="#5F6E79" transform="translate(5,62)"/>
<path d="M0,0 L5,0 L5,3 L8,4 L8,6 L3,6 L0,6 Z " fill="#8BA1AA" transform="translate(16,18)"/>
<path d="M0,0 L9,0 L9,9 L6,8 L5,6 L6,3 L0,2 Z " fill="#0F1C26" transform="translate(39,60)"/>
<path d="M0,0 L10,0 L10,2 L5,4 L-1,4 Z " fill="#222E2C" transform="translate(93,10)"/>
<path d="M0,0 L9,1 L9,5 L-1,4 Z " fill="#0D171B" transform="translate(62,77)"/>
<path d="M0,0 L6,0 L6,2 L-2,4 L-1,8 L-4,8 L-4,5 L-6,5 L-6,3 Z " fill="#36404C" transform="translate(86,76)"/>
<path d="M0,0 L3,0 L2,11 L1,8 L-2,8 L-1,2 Z " fill="#3B565C" transform="translate(26,26)"/>
<path d="M0,0 L4,4 L2,9 L-2,11 Z " fill="#131414" transform="translate(34,5)"/>
<path d="M0,0 L5,0 L6,3 L9,2 L8,6 L5,6 L5,4 L0,5 Z " fill="#2F3943" transform="translate(14,0)"/>
<path d="M0,0 L4,1 L4,3 L10,3 L8,5 L5,5 L5,7 L3,7 L3,4 L-6,3 L-6,2 L0,1 Z " fill="#24323E" transform="translate(49,77)"/>
<path d="M0,0 L1,2 L9,1 L9,3 L-3,4 L-7,6 L-8,4 L-7,2 Z " fill="#131A20" transform="translate(89,73)"/>
<path d="M0,0 L2,2 L2,5 L4,5 L5,2 L8,3 L7,8 L0,7 Z " fill="#0E1012" transform="translate(128,59)"/>
<path d="M0,0 L7,0 L12,2 L12,4 L6,4 L0,1 Z " fill="#5D6D78" transform="translate(26,69)"/>
<path d="M0,0 L2,0 L2,4 L-5,9 L-8,8 L-1,2 Z " fill="#010610" transform="translate(26,59)"/>
<path d="M0,0 L3,0 L3,6 L0,6 L0,8 L-5,7 L-1,6 Z " fill="#5D5E5F" transform="translate(40,0)"/>
<path d="M0,0 L2,0 L2,3 L0,3 L0,6 L-2,6 L-2,8 L-5,8 L-4,3 Z " fill="#232527" transform="translate(141,49)"/>
<path d="M0,0 L7,1 L13,2 L11,3 L10,5 L0,2 Z " fill="#93A0AA" transform="translate(25,73)"/>
<path d="M0,0 L2,4 L6,5 L9,6 L10,9 L6,10 L0,3 Z " fill="#070E16" transform="translate(29,60)"/>
<path d="M0,0 L5,0 L5,6 L8,6 L8,9 L5,9 L4,2 L2,2 L1,4 Z " fill="#010307" transform="translate(19,0)"/>
<path d="M0,0 L9,0 L9,3 L0,3 Z " fill="#6F5F64" transform="translate(0,2)"/>
<path d="M0,0 L2,4 L-1,7 L-3,11 L-5,10 L-3,7 L-6,6 L-3,6 L-3,3 L-1,3 Z " fill="#152028" transform="translate(15,14)"/>
<path d="M0,0 L11,0 L11,1 L5,2 L4,4 L6,4 L6,6 L2,5 Z " fill="#030E0D" transform="translate(92,15)"/>
<path d="M0,0 L6,0 L6,2 L4,3 L6,5 L0,5 Z " fill="#030812" transform="translate(87,79)"/>
<path d="M0,0 L4,1 L3,4 L5,4 L5,6 L2,6 L2,4 L-2,5 L-2,2 L0,2 Z " fill="#0B141B" transform="translate(33,54)"/>
<path d="M0,0 L8,1 L10,4 L3,4 L0,1 Z " fill="#030A12" transform="translate(40,75)"/>
<path d="M0,0 L3,1 L2,5 L-4,6 L-5,4 L-3,4 L-3,2 L0,2 Z " fill="#161B1C" transform="translate(135,65)"/>
<path d="M0,0 L3,0 L4,7 L1,7 Z " fill="#687984" transform="translate(26,52)"/>
<path d="M0,0 L2,0 L3,3 L1,3 L0,12 L-1,12 L-2,4 Z " fill="#010810" transform="translate(22,32)"/>
<path d="M0,0 L9,0 L7,3 L0,3 Z " fill="#202929" transform="translate(107,23)"/>
<path d="M0,0 L5,0 L5,2 L1,3 L0,7 L-3,7 L-3,5 L-1,5 Z " fill="#0F1E25" transform="translate(30,19)"/>
<path d="M0,0 L1,4 L-1,7 L-6,7 Z " fill="#2B2D2F" transform="translate(37,12)"/>
<path d="M0,0 L1,3 L3,4 L1,4 L1,7 L-3,6 L-3,2 Z " fill="#505F5F" transform="translate(11,13)"/>
<path d="M0,0 L4,1 L-3,5 L-7,4 Z " fill="#4E5557" transform="translate(137,75)"/>
<path d="M0,0 L4,1 L6,5 L3,5 L3,7 L1,7 L2,2 L-1,3 Z " fill="#151A1C" transform="translate(117,69)"/>
<path d="M0,0 L3,0 L4,5 L2,5 L1,7 L1,5 L-2,5 Z " fill="#050C11" transform="translate(44,55)"/>
<path d="M0,0 L6,0 L8,1 L8,3 L0,3 Z " fill="#3D3E3F" transform="translate(0,81)"/>
<path d="M0,0 L5,1 L4,5 L-1,5 Z " fill="#182222" transform="translate(129,79)"/>
<path d="M0,0 L2,3 L1,7 L-2,6 L-2,2 L0,2 Z M2,2 L7,2 L7,3 L2,3 Z " fill="#191B1D" transform="translate(131,58)"/>
<path d="M0,0 L3,1 L3,4 L0,4 L0,7 L-2,6 L-1,4 L-4,3 Z " fill="#33424D" transform="translate(20,5)"/>
<path d="M0,0 L8,4 L8,5 L1,5 L-1,2 Z " fill="#151E1F" transform="translate(105,79)"/>
<path d="M0,0 L6,1 L6,3 L-4,3 L-3,1 Z " fill="#303234" transform="translate(19,81)"/>
<path d="M0,0 L10,2 L10,5 L7,5 L7,3 L1,2 Z " fill="#151A20" transform="translate(18,79)"/>
<path d="M0,0 L8,0 L6,1 L6,3 L0,4 Z " fill="#1B2123" transform="translate(54,63)"/>
<path d="M0,0 L5,0 L6,2 L4,2 L4,4 L-1,3 Z " fill="#00050D" transform="translate(15,60)"/>
<path d="M0,0 L4,1 L1,2 L2,8 L0,8 L-1,10 L-1,4 L-1,1 Z " fill="#31414C" transform="translate(25,50)"/>
<path d="M0,0 L5,2 L6,7 L4,7 L4,4 L1,5 Z " fill="#647E85" transform="translate(28,25)"/>
<path d="M0,0 L2,0 L3,8 L1,8 L0,10 Z " fill="#4A5964" transform="translate(0,20)"/>
<path d="M0,0 L7,0 L7,2 L0,3 L-1,6 L-1,1 Z " fill="#1B2B29" transform="translate(143,11)"/>
<path d="M0,0 L9,0 L5,2 L5,4 L2,4 Z " fill="#101E29" transform="translate(54,12)"/>
<path d="M0,0 L2,0 L4,6 L-1,6 L-2,4 L0,4 Z " fill="#25333F" transform="translate(16,54)"/>
<path d="M0,0 L3,1 L3,6 L0,6 L-1,1 Z " fill="#62737E" transform="translate(39,49)"/>
<path d="M0,0 L5,0 L5,2 L2,3 L2,7 L-1,6 Z " fill="#393D40" transform="translate(29,6)"/>
<path d="M0,0 L5,0 L5,2 L7,3 L-1,3 Z " fill="#192625" transform="translate(106,4)"/>
<path d="M0,0 L6,1 L7,6 L5,6 L5,3 L1,2 Z " fill="#101925" transform="translate(29,76)"/>
<path d="M0,0 L6,0 L10,4 L4,3 Z " fill="#0A121B" transform="translate(31,61)"/>
<path d="M0,0 L3,4 L3,8 L0,8 Z " fill="#778791" transform="translate(4,37)"/>
<path d="M0,0 L2,3 L3,5 L-1,6 L-2,8 L-3,3 L-1,3 Z " fill="#0F262E" transform="translate(23,26)"/>
<path d="M0,0 L2,0 L2,6 L-1,6 L-1,1 Z " fill="#13201F" transform="translate(135,15)"/>
<path d="M0,0 L5,0 L1,6 L0,6 Z " fill="#33403E" transform="translate(0,12)"/>
<path d="M0,0 L0,3 L-5,5 L-5,1 Z " fill="#343C3C" transform="translate(125,73)"/>
<path d="M0,0 L1,3 L-2,5 L-6,5 L-6,3 Z " fill="#010309" transform="translate(49,69)"/>
<path d="M0,0 L5,0 L5,4 L1,3 Z " fill="#4F5E6A" transform="translate(11,54)"/>
<path d="M0,0 L2,2 L2,8 L-1,9 L-1,2 Z " fill="#111416" transform="translate(129,28)"/>
<path d="M0,0 L10,0 L10,2 L5,3 L5,1 L0,1 Z " fill="#1B2827" transform="translate(93,10)"/>
<path d="M0,0 L3,3 L-4,5 L-4,2 Z " fill="#121F2B" transform="translate(22,52)"/>
<path d="M0,0 L1,2 L0,5 L-3,5 L-4,7 L-5,3 Z " fill="#192C36" transform="translate(36,49)"/>
<path d="M0,0 L4,0 L4,4 L0,4 Z " fill="#1E2C38" transform="translate(0,33)"/>
<path d="M0,0 L5,0 L5,5 L3,5 L3,2 L0,2 Z " fill="#040B0A" transform="translate(145,15)"/>
<path d="M0,0 L3,0 L3,2 L5,2 L5,4 L0,3 Z " fill="#909091" transform="translate(9,80)"/>
<path d="M0,0 L5,2 L5,4 L1,5 Z " fill="#404043" transform="translate(14,78)"/>
<path d="M0,0 L2,1 L1,6 L-1,6 L-1,3 L-3,2 Z " fill="#17212E" transform="translate(86,78)"/>
<path d="M0,0 L6,2 L5,4 L1,4 L1,2 L-1,1 Z " fill="#0A1622" transform="translate(14,63)"/>
<path d="M0,0 L4,2 L4,7 L3,5 L1,5 Z " fill="#010409" transform="translate(19,55)"/>
<path d="M0,0 L3,4 L-1,8 L-1,5 L-3,4 L0,4 Z " fill="#36444F" transform="translate(42,52)"/>
<path d="M0,0 L2,0 L1,5 L-3,4 Z " fill="#000208" transform="translate(4,27)"/>
<path d="M0,0 L3,0 L3,5 L0,5 Z " fill="#1C2726" transform="translate(138,20)"/>
<path d="M0,0 L1,3 L-1,5 L-4,5 L-4,2 Z " fill="#8B8D8F" transform="translate(34,2)"/>
<path d="M0,0 L3,0 L3,5 L0,5 Z " fill="#475050" transform="translate(43,0)"/>
<path d="M0,0 L5,0 L1,4 L-2,4 L-2,2 L0,2 Z " fill="#323335" transform="translate(32,0)"/>
<path d="M0,0 L3,0 L3,5 L0,5 Z " fill="#22313D" transform="translate(24,0)"/>
<path d="M0,0 L1,2 L3,2 L3,5 L-1,5 Z " fill="#040A12" transform="translate(79,79)"/>
<path d="M0,0 L3,0 L2,4 L-1,4 Z " fill="#1E2022" transform="translate(140,61)"/>
<path d="M0,0 L1,4 L-3,5 L-5,3 L-1,3 Z " fill="#94A7B1" transform="translate(15,25)"/>
<path d="M0,0 L1,4 L-3,5 L-4,1 L-3,3 Z " fill="#202F3B" transform="translate(6,21)"/>
<path d="M0,0 L3,0 L1,6 L-2,2 Z " fill="#1C373E" transform="translate(24,19)"/>
<path d="M0,0 L5,0 L6,2 L-1,3 Z " fill="#020504" transform="translate(45,17)"/>
<path d="M0,0 L3,0 L2,4 L-2,4 L-2,2 L0,2 Z " fill="#0C1212" transform="translate(43,10)"/>
<path d="M0,0 L4,4 L3,7 L0,4 Z " fill="#0D0D0D" transform="translate(34,5)"/>
<path d="M0,0 L4,0 L4,2 L2,2 L2,5 L0,5 Z " fill="#06080A" transform="translate(28,0)"/>
<path d="M0,0 L5,0 L1,4 L-1,2 Z " fill="#090F1A" transform="translate(82,75)"/>
<path d="M0,0 L5,1 L7,3 L0,2 Z " fill="#3A3F40" transform="translate(128,70)"/>
<path d="M0,0 L1,4 L-3,4 L-3,1 Z " fill="#010102" transform="translate(138,61)"/>
<path d="M0,0 L6,2 L2,4 L0,3 Z " fill="#3A4854" transform="translate(9,51)"/>
<path d="M0,0 L2,0 L2,3 L-6,2 L-6,1 Z " fill="#030B13" transform="translate(6,50)"/>
<path d="M0,0 L3,0 L3,5 L-1,4 Z " fill="#1F2324" transform="translate(42,17)"/>
<path d="M0,0 L1,2 L4,3 L0,6 L0,3 L-3,2 L0,2 Z " fill="#131F29" transform="translate(23,7)"/>
<path d="M0,0 L4,1 L4,3 L-2,2 Z " fill="#10161D" transform="translate(94,80)"/>
<path d="M0,0 L3,1 L4,4 L-2,3 L0,2 Z " fill="#404F5B" transform="translate(15,68)"/>
<path d="M0,0 L2,0 L5,5 L0,3 Z " fill="#45535F" transform="translate(6,67)"/>
<path d="M0,0 L3,1 L1,5 L-1,4 L0,2 L-3,1 Z " fill="#3D4B57" transform="translate(38,69)"/>
<path d="M0,0 L4,1 L4,3 L-1,3 Z " fill="#2B3945" transform="translate(29,65)"/>
<path d="M0,0 L5,1 L2,4 L0,4 Z " fill="#081716" transform="translate(30,34)"/>
<path d="M0,0 L4,2 L4,4 L-1,3 Z " fill="#759097" transform="translate(20,20)"/>
<path d="M0,0 L5,2 L5,3 L0,3 Z " fill="#000204" transform="translate(101,81)"/>
<path d="M0,0 L2,0 L2,4 L-1,4 Z " fill="#091112" transform="translate(126,80)"/>
<path d="M0,0 L6,0 L2,3 L0,2 Z " fill="#111617" transform="translate(128,73)"/>
<path d="M0,0 L5,1 L3,3 L-2,3 Z " fill="#111E29" transform="translate(41,69)"/>
<path d="M0,0 L4,1 L5,3 L0,2 Z " fill="#293843" transform="translate(18,69)"/>
<path d="M0,0 L2,1 L2,4 L-2,4 L-2,2 L0,2 Z " fill="#2A2F31" transform="translate(135,65)"/>
<path d="M0,0 L3,0 L3,4 L0,3 Z " fill="#282A2C" transform="translate(128,56)"/>
<path d="M0,0 L2,0 L2,3 L-2,4 Z " fill="#2D3033" transform="translate(141,49)"/>
<path d="M0,0 L5,0 L3,3 L0,2 Z " fill="#436066" transform="translate(19,25)"/>
<path d="M0,0 L3,0 L3,3 L-1,3 Z " fill="#303E3C" transform="translate(46,14)"/>
<path d="M0,0 L2,3 L-2,4 L-3,2 L0,2 Z " fill="#162531" transform="translate(37,66)"/>
<path d="M0,0 L4,1 L4,3 L0,2 Z " fill="#74838E" transform="translate(11,67)"/>
<path d="M0,0 L4,1 L2,3 L-1,2 Z " fill="#182222" transform="translate(112,23)"/>
<path d="M0,0 L3,1 L3,3 L-1,3 Z " fill="#798690" transform="translate(20,5)"/>
<path d="M0,0 L3,0 L3,3 L-1,2 Z " fill="#75696D" transform="translate(6,2)"/>
<path d="M0,0 L3,1 L3,4 L1,4 Z " fill="#3D515B" transform="translate(29,52)"/>
<path d="M0,0 L4,2 L-1,3 Z " fill="#09181F" transform="translate(23,17)"/>
<path d="M0,0 L3,0 L2,3 L0,3 Z " fill="#52626D" transform="translate(24,11)"/>
<path d="M0,0 L3,1 L2,3 L0,3 Z " fill="#D2D6D9" transform="translate(35,2)"/>
</svg>
