<?xml version="1.0" encoding="UTF-8"?>
<!-- Generator: visioncortex VTracer 0.6.5 -->
<svg version="1.1" xmlns="http://www.w3.org/2000/svg" width="150" height="84">
<path d="M0,0 L150,0 L150,84 L0,84 Z " fill="#000101" transform="translate(0,0)"/>
<path d="M0,0 L7,1 L10,0 L9,6 L20,6 L19,8 L12,9 L12,18 L11,23 L10,29 L7,29 L7,27 L4,29 L-3,30 L-4,38 L-8,40 L-17,39 L-14,37 L-10,38 L-9,35 L-17,35 L-21,37 L-35,38 L-34,34 L-29,32 L-24,34 L-25,29 L-28,28 L-25,25 L-25,27 L-17,24 L-16,21 L-17,17 L-18,19 L-20,19 L-21,17 L-34,15 L-33,19 L-34,26 L-36,22 L-40,22 L-40,20 L-42,20 L-41,15 L-36,18 L-37,15 L-37,6 L-34,3 L-25,4 L-23,5 L-23,3 L-15,1 L-6,1 L-1,2 Z " fill="#020302" transform="translate(94,24)"/>
<path d="M0,0 L3,1 L3,3 L1,4 L1,6 L4,7 L3,12 L-1,11 L-2,7 L-11,9 L-14,13 L-14,21 L-16,21 L-17,17 L-18,19 L-20,19 L-21,17 L-34,15 L-33,19 L-34,26 L-36,22 L-40,22 L-40,20 L-42,20 L-41,15 L-36,18 L-37,15 L-37,6 L-34,3 L-25,4 L-23,5 L-23,3 L-15,1 L-6,1 L-1,2 Z " fill="#0D1815" transform="translate(94,24)"/>
<path d="M0,0 L4,2 L4,5 L12,4 L14,5 L13,8 L6,9 L5,17 L1,19 L-8,18 L-5,16 L-1,17 L0,14 L-8,14 L-12,16 L-26,17 L-25,13 L-20,11 L-15,13 L-16,8 L-19,7 L-16,4 L-16,6 L-8,3 L0,3 Z " fill="#0E1013" transform="translate(85,45)"/>
<path d="M0,0 L9,1 L11,0 L17,0 L18,2 L18,8 L17,9 L-15,9 L-15,4 L-8,3 L-8,1 L-3,1 L-2,2 L-2,7 L3,6 L3,4 L0,3 Z " fill="#191B11" transform="translate(120,75)"/>
<path d="M0,0 L2,0 L1,6 L12,6 L11,8 L4,9 L4,18 L3,23 L2,29 L-1,29 L-1,23 L1,23 L0,16 L-5,16 L-7,12 L-5,10 L-4,7 L-8,6 L-7,3 L-5,3 L-5,1 Z " fill="#060E0A" transform="translate(102,24)"/>
<path d="M0,0 L9,0 L6,2 L8,6 L13,7 L14,11 L13,13 L11,13 L10,11 L-3,9 L-2,13 L-3,20 L-5,16 L-9,16 L-9,14 L-11,14 L-10,9 L-5,12 L-6,4 L-2,4 Z " fill="#131D21" transform="translate(63,30)"/>
<path d="M0,0 L4,2 L4,5 L12,4 L14,5 L13,8 L6,9 L5,17 L1,19 L-8,18 L-5,16 L-1,17 L0,14 L-6,13 L-2,12 L-1,4 L-6,4 L-6,3 L0,3 Z " fill="#0C1510" transform="translate(85,45)"/>
<path d="M0,0 L4,1 L4,5 L-3,8 L-5,10 L-14,10 L-14,3 L-8,3 L-8,1 Z " fill="#1F0C0B" transform="translate(14,74)"/>
<path d="M0,0 L4,0 L3,6 L-1,5 L-1,7 L2,7 L3,13 L1,13 L0,11 L-4,10 L-5,8 L-9,6 L-6,5 L-12,5 L-14,8 L-18,8 L-17,2 L-11,1 L-4,3 L-4,1 Z " fill="#0A141B" transform="translate(75,26)"/>
<path d="M0,0 L2,0 L1,7 L-1,9 L-7,9 L-7,7 L-9,7 L-10,5 L-14,4 L-14,1 L-6,1 L0,3 Z " fill="#252526" transform="translate(31,67)"/>
<path d="M0,0 L1,4 L0,7 L4,8 L4,12 L-10,11 L-9,8 L-4,6 L-2,1 Z " fill="#191C15" transform="translate(63,72)"/>
<path d="M0,0 L7,0 L7,3 L4,6 L1,11 L1,19 L-1,19 L-2,7 L-5,7 L-5,5 L-1,6 Z " fill="#272B2E" transform="translate(79,26)"/>
<path d="M0,0 L5,1 L5,7 L-7,7 L-7,2 Z " fill="#132130" transform="translate(112,77)"/>
<path d="M0,0 L3,0 L4,7 L6,7 L5,12 L7,13 L5,13 L5,15 L0,15 L-2,10 L0,10 L-1,3 Z M-2,4 Z " fill="#010918" transform="translate(47,32)"/>
<path d="M0,0 L9,1 L11,0 L17,0 L17,1 L10,2 L10,4 L5,6 L1,9 L-3,9 L-4,3 L-8,1 L-3,1 L-2,2 L-2,7 L3,6 L3,4 L0,3 Z " fill="#091411" transform="translate(120,75)"/>
<path d="M0,0 L13,0 L14,2 L12,5 L0,5 Z " fill="#150D0C" transform="translate(0,4)"/>
<path d="M0,0 L14,0 L14,5 L10,8 L11,1 L9,1 L9,4 L4,4 L-3,2 Z " fill="#191214" transform="translate(22,66)"/>
<path d="M0,0 L1,0 L1,6 L-1,6 L-1,8 L-6,9 L-8,8 L-9,3 L-7,2 L-1,1 Z " fill="#121416" transform="translate(38,41)"/>
<path d="M0,0 L7,0 L4,2 L5,7 L4,9 L-1,8 L-3,7 L-2,2 L0,2 Z " fill="#3C504E" transform="translate(65,30)"/>
<path d="M0,0 L7,1 L6,9 L2,8 L-1,5 Z " fill="#242B2C" transform="translate(77,48)"/>
<path d="M0,0 L1,2 L8,0 L6,5 L9,6 L4,9 L2,9 L1,4 L-2,3 Z " fill="#0E1314" transform="translate(68,49)"/>
<path d="M0,0 L13,1 L11,8 L9,8 L9,2 L0,5 Z " fill="#081212" transform="translate(60,39)"/>
<path d="M0,0 L5,3 L6,0 L8,4 L7,11 L5,7 L1,7 L1,5 L-1,5 Z " fill="#2C2C32" transform="translate(53,39)"/>
<path d="M0,0 L2,0 L4,9 L2,10 L2,8 L-6,8 L-6,5 L0,4 Z " fill="#080E09" transform="translate(104,0)"/>
<path d="M0,0 L2,0 L1,4 L-2,5 L-2,7 L-8,7 L-6,2 Z " fill="#2B181D" transform="translate(9,77)"/>
<path d="M0,0 L1,2 L4,3 L5,6 L1,9 L-5,9 L-5,7 L1,4 L-1,3 Z " fill="#1D221E" transform="translate(75,51)"/>
<path d="M0,0 L7,0 L7,3 L4,6 L0,7 L-1,3 Z " fill="#223135" transform="translate(79,26)"/>
<path d="M0,0 L6,2 L5,6 L0,6 L-2,2 L0,2 Z " fill="#070C0E" transform="translate(47,56)"/>
<path d="M0,0 L4,0 L4,2 L6,2 L6,0 L9,0 L9,3 L2,6 L-2,8 L-2,6 L1,4 L2,1 Z " fill="#210B13" transform="translate(9,76)"/>
<path d="M0,0 L2,0 L3,4 L8,5 L7,8 L3,8 L2,5 L-1,5 Z " fill="#1D1C1A" transform="translate(12,50)"/>
<path d="M0,0 L2,0 L2,2 L4,2 L5,0 L5,2 L8,2 L9,8 L7,8 L6,6 L2,5 L1,3 L-3,1 Z " fill="#091012" transform="translate(69,31)"/>
<path d="M0,0 L5,1 L5,7 L0,7 Z " fill="#152631" transform="translate(112,77)"/>
<path d="M0,0 L6,0 L6,5 L1,5 L-1,1 Z " fill="#1D1F1D" transform="translate(144,6)"/>
<path d="M0,0 L2,0 L5,3 L4,9 L7,10 L7,11 L1,11 L2,5 L0,3 Z " fill="#0F0B0E" transform="translate(8,45)"/>
<path d="M0,0 L6,0 L7,4 L-1,4 Z " fill="#081008" transform="translate(83,5)"/>
<path d="M0,0 L7,0 L10,1 L10,3 L0,3 Z " fill="#030C0E" transform="translate(140,45)"/>
<path d="M0,0 L1,3 L0,5 L2,6 L0,6 L0,8 L-5,8 L-6,5 L-1,4 Z " fill="#0F1A28" transform="translate(52,39)"/>
<path d="M0,0 L5,0 L6,4 L2,5 L0,4 Z " fill="#34393A" transform="translate(30,45)"/>
<path d="M0,0 L4,2 L3,4 L5,4 L5,7 L1,6 L-1,1 Z " fill="#38403C" transform="translate(78,50)"/>
<path d="M0,0 L2,1 L1,3 L8,3 L8,4 L-5,4 L-5,2 Z " fill="#070F0C" transform="translate(52,80)"/>
<path d="M0,0 L4,1 L1,2 L1,4 L-1,4 L-1,2 L-8,3 L-8,1 Z " fill="#130609" transform="translate(14,74)"/>
<path d="M0,0 L2,0 L1,8 L-2,8 L-2,2 L0,2 Z " fill="#161713" transform="translate(103,45)"/>
<path d="M0,0 L2,0 L2,4 L-5,4 L-4,1 Z " fill="#151518" transform="translate(49,14)"/>
<path d="M0,0 L7,0 L8,4 L6,7 L4,2 Z " fill="#151B19" transform="translate(83,66)"/>
<path d="M0,0 L4,2 L4,7 L0,6 Z " fill="#25282A" transform="translate(85,45)"/>
<path d="M0,0 L7,0 L6,3 L0,3 Z " fill="#1D211E" transform="translate(98,5)"/>
<path d="M0,0 L6,0 L7,3 L0,3 Z " fill="#211E21" transform="translate(45,2)"/>
<path d="M0,0 L2,1 L-3,5 L-7,4 L-4,1 Z " fill="#160206" transform="translate(16,79)"/>
<path d="M0,0 L5,0 L4,4 L0,4 Z " fill="#363B3A" transform="translate(26,72)"/>
<path d="M0,0 L3,0 L3,4 L-3,4 L-3,2 Z " fill="#12161A" transform="translate(62,58)"/>
<path d="M0,0 L5,0 L4,4 L0,4 Z " fill="#090C0F" transform="translate(137,34)"/>
<path d="M0,0 L10,0 L11,3 L0,1 Z " fill="#01050E" transform="translate(60,26)"/>
<path d="M0,0 L6,0 L6,3 L0,3 Z " fill="#16170F" transform="translate(144,77)"/>
<path d="M0,0 L1,4 L-1,7 L-3,5 L-2,1 Z " fill="#111211" transform="translate(63,72)"/>
<path d="M0,0 L6,0 L6,3 L1,3 Z " fill="#15181A" transform="translate(45,58)"/>
<path d="M0,0 L1,0 L2,6 L-2,6 L-3,2 Z " fill="#120D14" transform="translate(58,45)"/>
<path d="M0,0 L3,3 L2,7 L0,7 Z " fill="#2F2F28" transform="translate(135,77)"/>
<path d="M0,0 L6,0 L3,1 L3,3 L-1,3 Z " fill="#020B19" transform="translate(109,81)"/>
<path d="M0,0 L2,0 L2,5 L-2,4 Z " fill="#43342F" transform="translate(3,79)"/>
<path d="M0,0 L5,1 L5,5 L3,5 L3,3 L1,3 Z " fill="#131917" transform="translate(21,71)"/>
<path d="M0,0 L5,0 L4,3 L0,3 Z " fill="#1A1C1E" transform="translate(17,68)"/>
<path d="M0,0 L1,2 L7,2 L7,3 L-1,4 Z " fill="#08090A" transform="translate(58,60)"/>
<path d="M0,0 L3,0 L3,3 L-3,2 Z " fill="#211617" transform="translate(9,5)"/>
<path d="M0,0 L1,0 L1,5 L-2,5 L-1,1 Z " fill="#262215" transform="translate(131,79)"/>
<path d="M0,0 L1,0 L1,5 L-2,5 L-1,1 Z " fill="#10100E" transform="translate(52,73)"/>
<path d="M0,0 L5,0 L5,2 L0,3 Z " fill="#2E312B" transform="translate(73,56)"/>
<path d="M0,0 L4,0 L4,4 L1,4 Z " fill="#2D3631" transform="translate(80,50)"/>
<path d="M0,0 L2,0 L2,6 L0,6 L-1,1 Z " fill="#162019" transform="translate(87,35)"/>
<path d="M0,0 L1,2 L3,2 L3,4 L-1,5 L-2,2 L0,2 Z " fill="#222E2F" transform="translate(70,34)"/>
<path d="M0,0 L4,0 L4,3 L0,3 Z " fill="#131E17" transform="translate(84,6)"/>
<path d="M0,0 L2,0 L1,5 L-1,5 Z " fill="#334142" transform="translate(82,27)"/>
<path d="M0,0 L4,1 L4,4 L0,3 Z " fill="#070F09" transform="translate(26,11)"/>
<path d="M0,0 L3,0 L3,3 L-1,2 Z " fill="#2E2423" transform="translate(15,76)"/>
<path d="M0,0 L3,0 L3,3 L0,3 Z " fill="#213240" transform="translate(112,78)"/>
<path d="M0,0 L3,0 L3,3 L0,3 Z " fill="#101F20" transform="translate(120,75)"/>
<path d="M0,0 L3,1 L-1,4 Z " fill="#100C0E" transform="translate(33,70)"/>
<path d="M0,0 L3,1 L2,4 L0,4 Z " fill="#121718" transform="translate(69,43)"/>
<path d="M0,0 L3,1 L3,3 L0,4 L-1,2 Z " fill="#0E1610" transform="translate(94,24)"/>
<path d="M0,0 L3,1 L0,4 Z " fill="#0F0A0A" transform="translate(72,69)"/>
<path d="M0,0 L3,0 L2,3 L0,3 Z " fill="#2E312C" transform="translate(15,55)"/>
<path d="M0,0 L2,2 L-1,3 Z " fill="#131A14" transform="translate(96,33)"/>
</svg>
