<?xml version="1.0" encoding="UTF-8"?>
<!-- Generator: visioncortex VTracer 0.6.5 -->
<svg version="1.1" xmlns="http://www.w3.org/2000/svg" width="150" height="84">
<path d="M0,0 L150,0 L150,84 L0,84 Z " fill="#130B11" transform="translate(0,0)"/>
<path d="M0,0 L61,0 L62,2 L74,3 L74,7 L64,7 L64,12 L59,12 L58,13 L52,13 L51,9 L57,9 L57,7 L45,7 L45,11 L50,11 L50,15 L44,17 L43,13 L44,11 L34,13 L37,15 L32,16 L36,19 L34,22 L27,22 L27,24 L23,24 L23,26 L20,29 L24,30 L26,34 L33,31 L34,29 L41,28 L41,26 L46,25 L46,23 L48,23 L48,21 L52,22 L52,24 L49,24 L52,31 L51,36 L46,35 L40,31 L38,35 L36,38 L34,38 L34,40 L37,41 L37,43 L33,43 L33,45 L35,45 L38,48 L40,49 L39,42 L39,39 L42,39 L42,34 L45,38 L45,47 L43,47 L42,52 L47,52 L47,48 L50,48 L50,53 L48,53 L50,58 L50,60 L58,61 L60,62 L60,59 L58,59 L58,57 L52,58 L52,54 L54,54 L56,49 L60,49 L61,45 L67,45 L68,43 L63,44 L63,42 L66,42 L66,40 L61,40 L58,39 L57,42 L54,41 L54,39 L52,38 L54,34 L58,34 L56,29 L58,29 L58,27 L62,28 L62,30 L66,32 L66,34 L60,33 L60,35 L62,35 L63,37 L71,39 L71,37 L79,37 L79,35 L74,35 L74,33 L79,33 L79,31 L72,32 L70,31 L70,37 L68,37 L68,30 L74,28 L76,24 L84,23 L86,26 L91,28 L88,33 L86,34 L85,38 L77,39 L78,45 L80,47 L74,48 L74,46 L71,46 L70,49 L61,48 L61,51 L66,51 L66,55 L71,55 L71,50 L73,50 L75,55 L75,59 L70,61 L66,61 L67,64 L65,65 L65,63 L56,67 L50,68 L49,66 L44,67 L41,65 L41,67 L51,69 L54,71 L54,73 L41,71 L39,69 L36,72 L41,72 L46,74 L55,75 L57,76 L57,74 L55,73 L57,73 L57,71 L55,71 L55,69 L60,70 L61,69 L69,68 L70,72 L69,73 L60,73 L60,77 L76,76 L78,75 L78,73 L82,73 L82,71 L90,68 L93,68 L93,66 L96,64 L96,62 L99,61 L100,59 L105,59 L106,57 L106,60 L108,61 L103,62 L103,65 L105,66 L99,71 L93,73 L103,71 L103,70 L108,70 L109,75 L111,76 L109,77 L108,80 L111,80 L111,82 L109,82 L109,84 L0,84 Z " fill="#190B07" transform="translate(0,0)"/>
<path d="M0,0 L7,1 L9,3 L13,2 L13,0 L17,1 L20,2 L20,4 L24,5 L28,6 L30,15 L33,20 L35,26 L41,27 L41,30 L39,30 L39,32 L34,31 L33,36 L32,39 L30,39 L29,35 L27,34 L28,39 L27,42 L22,41 L24,40 L24,34 L25,32 L21,32 L19,36 L21,37 L20,45 L24,45 L25,49 L27,49 L27,47 L30,47 L31,43 L34,42 L34,38 L40,38 L40,36 L40,34 L46,34 L49,33 L49,40 L47,42 L44,42 L44,49 L41,49 L41,52 L34,54 L29,55 L29,53 L24,54 L24,56 L22,56 L21,61 L30,58 L35,58 L35,60 L30,62 L25,62 L25,64 L18,65 L18,63 L20,63 L20,61 L17,61 L18,56 L17,52 L13,53 L5,55 L-1,55 L2,53 L9,50 L13,47 L12,43 L15,41 L14,40 L9,40 L8,43 L5,43 L6,46 L2,47 L2,49 L-5,52 L-9,52 L-9,54 L-13,54 L-13,56 L-11,57 L-15,58 L-31,58 L-31,54 L-22,53 L-23,50 L-30,51 L-32,52 L-36,50 L-36,52 L-34,52 L-34,57 L-49,55 L-55,53 L-54,50 L-51,49 L-50,51 L-37,54 L-37,52 L-48,49 L-50,48 L-50,46 L-46,47 L-41,46 L-39,48 L-28,44 L-25,44 L-25,42 L-16,40 L-18,35 L-18,31 L-20,31 L-20,36 L-25,36 L-25,32 L-30,32 L-30,29 L-21,29 L-20,27 L-17,27 L-17,29 L-13,27 L-15,25 L-14,20 L-6,19 L-5,14 L-3,14 L-2,9 L-7,7 L-5,5 L2,8 L5,9 L5,6 L8,6 L5,3 L0,1 Z " fill="#312924" transform="translate(91,19)"/>
<path d="M0,0 L61,0 L62,2 L74,3 L74,7 L64,7 L64,12 L59,12 L58,13 L52,13 L51,9 L57,9 L57,7 L45,7 L45,11 L50,11 L50,15 L44,17 L43,13 L44,11 L34,13 L37,15 L32,16 L36,19 L34,22 L27,22 L27,24 L23,24 L23,26 L20,29 L24,30 L26,34 L33,31 L34,29 L41,28 L41,26 L46,25 L46,23 L48,23 L48,21 L52,22 L52,24 L49,24 L52,31 L51,36 L46,35 L40,31 L38,35 L36,38 L34,38 L34,40 L37,41 L37,43 L33,43 L33,45 L35,45 L35,48 L33,49 L22,48 L22,45 L26,45 L27,39 L29,39 L28,37 L25,36 L25,38 L23,38 L23,35 L20,35 L20,38 L18,38 L17,46 L16,48 L19,48 L20,51 L20,58 L16,58 L16,60 L14,60 L12,55 L12,50 L8,49 L8,47 L0,47 Z " fill="#170A09" transform="translate(0,0)"/>
<path d="M0,0 L5,0 L5,3 L7,3 L7,5 L11,7 L12,11 L15,11 L15,8 L20,8 L20,11 L26,11 L26,65 L-11,65 L-8,64 L-8,62 L2,60 L2,58 L-9,61 L-12,61 L-11,56 L-9,56 L-9,54 L-4,53 L-4,55 L1,53 L2,52 L8,52 L8,49 L11,49 L11,42 L15,40 L16,33 L13,35 L7,34 L8,38 L10,39 L4,40 L1,38 L1,42 L-1,42 L-3,47 L-6,47 L-6,49 L-8,49 L-9,45 L-13,45 L-13,39 L-12,37 L-15,36 L-12,31 L-8,32 L-9,41 L-6,42 L-6,34 L-3,35 L-3,39 L-1,39 L0,35 L1,31 L6,32 L6,30 L8,30 L8,27 L2,26 L0,25 L0,19 L2,20 L2,23 L5,23 L5,25 L11,24 L14,18 L7,14 L7,12 L3,11 L6,11 L6,9 L2,8 L2,5 L0,5 L0,1 Z " fill="#0E0808" transform="translate(124,19)"/>
<path d="M0,0 L5,0 L7,4 L11,5 L12,7 L12,13 L18,14 L17,22 L21,22 L22,26 L24,26 L24,24 L27,24 L28,20 L31,19 L31,15 L37,15 L37,13 L37,11 L43,11 L46,10 L46,17 L44,19 L41,19 L41,26 L38,26 L38,29 L31,31 L26,32 L26,30 L21,31 L21,33 L19,33 L18,38 L27,35 L32,35 L32,37 L27,39 L22,39 L22,41 L15,42 L15,40 L17,40 L17,38 L14,38 L15,33 L14,29 L10,30 L2,32 L-4,32 L-1,30 L6,27 L10,24 L9,20 L12,18 L11,17 L6,17 L5,20 L2,20 L3,23 L-1,24 L-1,26 L-8,29 L-12,29 L-12,31 L-16,31 L-16,33 L-14,34 L-18,35 L-34,35 L-34,31 L-25,30 L-26,27 L-33,28 L-35,29 L-39,27 L-39,29 L-37,29 L-37,34 L-52,32 L-58,30 L-57,27 L-54,26 L-53,28 L-40,31 L-40,29 L-51,26 L-53,25 L-53,23 L-49,24 L-44,23 L-42,25 L-31,21 L-28,21 L-28,19 L-19,17 L-21,12 L-21,8 L-23,8 L-23,13 L-28,13 L-28,9 L-33,9 L-33,6 L-24,6 L-23,4 L-20,4 L-19,6 L-16,7 L-16,11 L-13,9 L-12,4 L-8,4 L-8,7 L-5,6 L-6,11 L-9,11 L-7,15 L-4,16 L-4,17 L-11,17 L-11,15 L-13,15 L-12,18 L-19,20 L-24,21 L-24,25 L-19,25 L-19,23 L-13,21 L-5,20 L-7,18 L1,16 L6,11 L4,7 L0,3 Z " fill="#605C62" transform="translate(94,42)"/>
<path d="M0,0 L67,0 L67,21 L56,21 L56,26 L53,25 L51,21 L46,17 L37,15 L36,14 L36,8 L32,7 L37,6 L37,3 L29,1 L28,4 L24,3 L24,6 L27,7 L27,10 L20,12 L9,11 L7,7 L-1,7 L-8,6 L-8,5 L-2,4 L-8,3 L-8,1 Z " fill="#030101" transform="translate(83,0)"/>
<path d="M0,0 L36,0 L36,5 L31,6 L29,4 L24,4 L25,10 L20,11 L19,14 L8,14 L9,16 L13,18 L12,21 L9,24 L8,33 L10,33 L13,30 L14,35 L12,38 L14,38 L12,43 L16,43 L17,46 L16,48 L19,48 L20,51 L20,58 L16,58 L16,60 L14,60 L12,55 L12,50 L8,49 L8,47 L0,47 Z " fill="#040101" transform="translate(0,0)"/>
<path d="M0,0 L9,0 L13,1 L26,2 L28,8 L19,9 L14,14 L11,14 L11,21 L13,21 L13,15 L22,15 L22,17 L17,17 L17,19 L22,19 L22,21 L14,21 L14,23 L6,22 L5,19 L3,19 L3,17 L9,18 L4,12 L1,11 L0,14 L1,18 L-3,18 L-4,22 L-2,25 L0,25 L3,22 L4,24 L9,24 L9,26 L6,26 L6,28 L11,27 L10,30 L4,29 L3,33 L-1,33 L-3,38 L-5,38 L-5,42 L-3,42 L-2,40 L1,41 L1,43 L3,43 L3,46 L-3,46 L-8,45 L-9,37 L-7,32 L-10,32 L-10,36 L-15,36 L-14,31 L-12,31 L-13,22 L-14,20 L-15,23 L-18,23 L-17,30 L-17,33 L-22,31 L-22,29 L-24,29 L-24,27 L-20,27 L-23,24 L-23,22 L-21,22 L-19,16 L-15,15 L-9,19 L-6,19 L-4,13 L-2,13 L-2,8 L1,8 L1,6 L4,6 L4,9 L8,9 L8,7 L10,7 L9,2 L0,3 Z " fill="#4F3C31" transform="translate(57,16)"/>
<path d="M0,0 L22,0 L22,1 L14,1 L14,3 L21,3 L19,6 L20,10 L14,10 L12,12 L5,13 L5,16 L-4,16 L-4,19 L-2,18 L5,18 L6,23 L4,23 L4,25 L0,25 L0,22 L-3,22 L-3,24 L-6,24 L-6,29 L-8,29 L-9,33 L-12,27 L-12,24 L-9,24 L-10,22 L-13,21 L-13,23 L-15,23 L-15,25 L-20,26 L-20,28 L-27,29 L-28,32 L-32,34 L-35,34 L-38,30 L-41,29 L-40,26 L-38,26 L-38,24 L-34,24 L-34,22 L-29,21 L-27,22 L-26,19 L-30,17 L-27,12 L-25,11 L-17,11 L-17,16 L-11,15 L-11,11 L-16,11 L-16,7 L-4,7 L-4,9 L-10,9 L-9,13 L0,11 L3,12 L3,7 L13,7 L13,3 L1,3 Z " fill="#221619" transform="translate(61,0)"/>
<path d="M0,0 L7,1 L9,3 L13,2 L13,0 L17,1 L20,2 L20,4 L24,5 L28,6 L30,15 L33,20 L35,26 L41,27 L41,30 L39,30 L39,32 L34,31 L33,36 L32,39 L30,39 L29,35 L27,34 L28,39 L27,42 L22,41 L24,40 L24,34 L26,29 L24,27 L24,29 L19,29 L18,24 L16,24 L16,26 L14,26 L12,22 L15,21 L15,16 L21,18 L22,23 L25,22 L22,18 L22,16 L20,15 L23,15 L26,18 L25,11 L21,10 L19,6 L14,4 L17,7 L17,9 L14,9 L13,7 L10,7 L10,9 L12,9 L12,14 L14,15 L14,17 L10,16 L4,14 L3,18 L-2,19 L-3,22 L-9,22 L-8,19 L-6,19 L-5,14 L-3,14 L-2,9 L-7,7 L-5,5 L2,8 L5,9 L5,6 L8,6 L5,3 L0,1 Z " fill="#4D494F" transform="translate(91,19)"/>
<path d="M0,0 L3,0 L3,3 L5,3 L5,1 L9,2 L9,4 L7,4 L7,10 L2,11 L2,12 L7,13 L7,16 L13,15 L13,19 L22,19 L22,21 L19,21 L19,24 L26,24 L27,27 L22,28 L17,25 L16,29 L8,29 L9,27 L7,26 L7,29 L5,29 L5,27 L1,27 L0,25 L-1,30 L-5,29 L-6,26 L-11,25 L-12,31 L-7,31 L-10,32 L-10,34 L-5,34 L-6,38 L-6,36 L-12,35 L-17,32 L-17,23 L-20,23 L-20,12 L-12,12 L-11,14 L-8,15 L-6,25 L-4,25 L-4,23 L0,23 L-1,13 L-4,13 L-2,3 L0,3 Z " fill="#271D1B" transform="translate(20,35)"/>
<path d="M0,0 L3,0 L4,7 L3,9 L7,10 L14,13 L15,11 L10,11 L10,9 L8,8 L8,1 L14,3 L16,6 L19,7 L19,3 L17,2 L21,1 L21,4 L25,4 L25,7 L30,9 L30,7 L36,7 L35,11 L33,11 L33,13 L41,14 L46,16 L46,17 L36,17 L26,14 L22,12 L22,10 L19,10 L19,13 L22,13 L22,16 L20,16 L20,20 L16,20 L16,22 L19,22 L19,26 L0,26 Z " fill="#050201" transform="translate(0,58)"/>
<path d="M0,0 L5,2 L5,0 L7,1 L8,6 L12,3 L19,3 L26,9 L27,12 L29,13 L29,8 L40,8 L40,17 L34,17 L34,14 L29,14 L29,17 L26,17 L23,12 L21,11 L21,9 L19,9 L19,6 L15,7 L16,9 L14,9 L14,11 L16,11 L17,14 L20,15 L21,20 L25,22 L29,24 L26,32 L25,30 L19,31 L19,29 L16,29 L14,26 L10,21 L9,14 L9,12 L4,11 L1,10 L1,8 L-3,7 L-6,6 L-5,9 L-10,10 L-11,8 L-7,5 L-2,5 L-1,1 Z " fill="#13101A" transform="translate(110,13)"/>
<path d="M0,0 L22,0 L23,2 L35,3 L35,7 L25,7 L25,12 L20,12 L19,13 L13,13 L12,9 L18,9 L18,7 L6,7 L6,11 L11,11 L11,15 L5,17 L4,13 L5,11 L-5,13 L-2,15 L-7,16 L-3,19 L-5,22 L-15,21 L-19,18 L-22,16 L-15,14 L-13,15 L-13,11 L-8,11 L-8,8 L-2,8 L-2,5 L0,5 Z " fill="#030102" transform="translate(39,0)"/>
<path d="M0,0 L3,1 L4,3 L9,5 L6,10 L4,11 L3,15 L-5,16 L-4,22 L-2,24 L-8,25 L-8,23 L-11,23 L-12,26 L-21,25 L-21,29 L-25,29 L-25,27 L-22,27 L-21,22 L-15,22 L-14,20 L-19,21 L-19,19 L-16,19 L-16,17 L-21,17 L-24,16 L-25,19 L-28,18 L-28,16 L-30,15 L-28,11 L-24,11 L-26,6 L-24,6 L-24,4 L-20,5 L-20,7 L-16,9 L-16,11 L-22,10 L-22,12 L-20,12 L-19,14 L-11,16 L-11,14 L-3,14 L-3,12 L-8,12 L-8,10 L-3,10 L-3,8 L-10,9 L-12,8 L-12,14 L-14,14 L-14,7 L-8,5 L-6,1 Z " fill="#090301" transform="translate(82,23)"/>
<path d="M0,0 L2,0 L2,7 L0,9 L-3,9 L-3,16 L-6,16 L-6,19 L-13,21 L-18,22 L-18,20 L-23,21 L-23,23 L-25,23 L-26,28 L-17,25 L-12,25 L-12,27 L-17,29 L-22,29 L-22,31 L-29,32 L-29,30 L-27,30 L-27,28 L-30,28 L-29,23 L-30,19 L-35,18 L-33,17 L-31,13 L-30,12 L-23,12 L-22,16 L-20,16 L-20,14 L-17,14 L-16,10 L-13,9 L-13,5 L-7,5 L-7,3 L-7,1 L-1,1 Z " fill="#2E292F" transform="translate(138,52)"/>
<path d="M0,0 L3,0 L3,2 L12,5 L21,7 L38,9 L38,14 L29,13 L29,15 L31,16 L0,16 L0,12 L-3,12 L-3,10 L1,10 L1,6 L3,6 L3,3 L0,3 Z " fill="#120906" transform="translate(19,68)"/>
<path d="M0,0 L8,0 L8,5 L13,4 L11,9 L16,9 L12,10 L12,12 L10,12 L10,14 L5,15 L5,17 L-2,18 L-3,21 L-7,23 L-10,23 L-13,19 L-16,18 L-15,15 L-13,15 L-13,13 L-9,13 L-9,11 L-4,10 L-2,11 L-1,8 L-5,6 L-2,1 Z " fill="#22181C" transform="translate(36,11)"/>
<path d="M0,0 L3,0 L3,5 L1,5 L1,8 L-4,9 L-5,12 L-10,11 L-10,15 L-15,16 L-16,17 L-12,20 L-7,21 L-9,22 L-9,24 L-13,24 L-13,26 L-17,29 L-17,27 L-24,29 L-26,34 L-29,33 L-28,24 L-26,21 L-24,21 L-24,19 L-27,18 L-28,14 L-22,13 L-17,13 L-14,10 L-11,10 L-12,4 L-7,4 L-6,2 L-5,5 L-1,5 Z " fill="#1F0A05" transform="translate(36,0)"/>
<path d="M0,0 L5,0 L5,3 L7,3 L7,5 L11,7 L12,11 L15,11 L15,8 L20,8 L20,11 L26,11 L26,25 L17,26 L15,27 L15,25 L12,25 L13,21 L14,18 L7,14 L7,12 L3,11 L6,11 L6,9 L2,8 L2,5 L0,5 L0,1 Z " fill="#030000" transform="translate(124,19)"/>
<path d="M0,0 L5,1 L6,5 L11,7 L12,14 L9,13 L8,12 L10,17 L12,18 L8,19 L7,14 L3,13 L1,12 L1,17 L-1,19 L-3,20 L-3,17 L-8,18 L-14,15 L-11,14 L-12,10 L-9,9 L0,13 L0,11 L-3,10 L-2,5 L-4,5 L-5,2 L0,3 L0,5 L3,5 L3,3 L0,2 Z " fill="#1F2224" transform="translate(105,23)"/>
<path d="M0,0 L5,0 L6,5 L8,6 L6,7 L5,10 L8,10 L8,12 L6,12 L6,14 L-14,14 L-13,11 L-10,12 L-10,10 L-12,10 L-12,5 L-4,2 Z " fill="#030204" transform="translate(103,70)"/>
<path d="M0,0 L5,0 L7,4 L11,5 L12,7 L12,13 L18,14 L17,22 L12,25 L11,27 L9,27 L10,30 L2,32 L-4,32 L-1,30 L6,27 L10,24 L9,20 L12,18 L11,17 L6,17 L5,20 L2,19 L4,19 L4,15 L2,14 L6,11 L4,7 L0,3 Z " fill="#5D5D68" transform="translate(94,42)"/>
<path d="M0,0 L7,1 L9,3 L15,3 L15,6 L17,7 L17,9 L14,9 L13,7 L10,7 L10,9 L12,9 L12,14 L14,15 L14,17 L10,16 L4,14 L3,18 L-2,19 L-3,22 L-9,22 L-8,19 L-6,19 L-5,14 L-3,14 L-2,9 L-7,7 L-5,5 L2,8 L5,9 L5,6 L8,6 L5,3 L0,1 Z " fill="#565964" transform="translate(91,19)"/>
<path d="M0,0 L2,0 L2,3 L6,2 L8,4 L3,5 L1,4 L2,8 L4,9 L-2,10 L-5,8 L-5,12 L-7,12 L-9,17 L-12,17 L-12,19 L-14,19 L-15,15 L-19,15 L-19,9 L-18,7 L-21,6 L-18,1 L-14,2 L-15,11 L-12,12 L-12,4 L-9,5 L-9,9 L-7,9 L-6,5 L-5,1 L0,2 Z " fill="#160B09" transform="translate(130,49)"/>
<path d="M0,0 L3,1 L1,2 L7,4 L12,5 L12,9 L7,11 L3,11 L3,13 L-13,13 L-10,12 L-10,10 L0,8 L0,6 L-11,9 L-14,9 L-13,4 L-11,4 L-11,2 L-6,1 L-6,3 L-1,1 Z " fill="#311E1F" transform="translate(126,71)"/>
<path d="M0,0 L4,1 L1,1 L1,3 L10,2 L10,6 L15,6 L15,1 L17,1 L19,6 L19,10 L14,12 L10,12 L11,15 L9,16 L9,14 L3,17 L1,17 L3,13 L4,10 L2,10 L2,8 L-4,9 L-4,5 L-2,5 Z " fill="#37281F" transform="translate(56,49)"/>
<path d="M0,0 L1,3 L3,4 L-2,5 L-2,8 L0,9 L-6,14 L-13,17 L-14,20 L-17,19 L-20,21 L-27,21 L-29,19 L-27,18 L-27,16 L-23,16 L-23,14 L-15,11 L-12,11 L-12,9 L-9,7 L-9,5 L-6,4 L-5,2 L0,2 Z " fill="#423D3F" transform="translate(105,57)"/>
<path d="M0,0 L6,0 L6,3 L12,2 L12,6 L21,6 L21,8 L18,8 L18,11 L25,11 L26,14 L21,15 L16,12 L15,16 L11,16 L11,12 L6,12 L5,11 L5,5 L3,5 L3,8 L1,8 Z " fill="#48332B" transform="translate(21,48)"/>
<path d="M0,0 L9,0 L13,1 L26,2 L28,8 L19,9 L15,13 L9,13 L9,2 L0,3 Z " fill="#473E43" transform="translate(57,16)"/>
<path d="M0,0 L7,0 L7,15 L-14,15 L-14,13 L-5,11 L-5,9 L-2,8 L1,9 Z " fill="#010100" transform="translate(143,69)"/>
<path d="M0,0 L7,1 L8,4 L15,3 L14,5 L12,5 L12,7 L5,8 L4,11 L0,13 L-3,13 L-6,9 L-9,8 L-8,5 L-6,5 L-6,3 L-2,3 L-2,1 Z " fill="#50403C" transform="translate(29,21)"/>
<path d="M0,0 L3,0 L4,2 L16,3 L16,7 L6,7 L6,12 L1,12 L0,13 L-6,13 L-7,9 L-1,9 L-1,7 L-8,7 L-8,5 L0,4 Z " fill="#1F1B21" transform="translate(58,0)"/>
<path d="M0,0 L3,0 L4,2 L7,3 L7,7 L10,5 L11,0 L15,0 L15,3 L18,2 L17,7 L14,7 L15,9 L6,10 L2,8 L2,4 L0,4 L0,9 L-5,9 L-5,5 L-10,5 L-10,2 L-1,2 Z " fill="#433831" transform="translate(71,46)"/>
<path d="M0,0 L3,1 L4,3 L9,5 L6,10 L2,14 L0,14 L1,10 L-3,10 L-3,8 L-10,9 L-12,8 L-12,14 L-14,14 L-14,7 L-8,5 L-6,1 Z " fill="#2A1C1D" transform="translate(82,23)"/>
<path d="M0,0 L5,2 L8,4 L8,6 L11,8 L8,8 L9,12 L6,12 L7,18 L7,21 L2,21 L3,16 L5,16 L4,7 L3,5 L2,8 L-1,8 L0,15 L0,18 L-5,16 L-5,14 L-7,14 L-7,12 L-3,12 L-6,9 L-6,7 L-4,7 L-2,1 Z " fill="#4B342E" transform="translate(40,31)"/>
<path d="M0,0 L6,1 L8,2 L8,5 L4,6 L7,7 L8,13 L11,16 L8,18 L6,18 L3,12 L3,14 L-6,12 L-5,9 L-2,9 L-3,6 L-5,5 L-5,2 L-1,2 Z " fill="#0E1011" transform="translate(112,1)"/>
<path d="M0,0 L7,1 L13,3 L34,6 L34,11 L25,10 L13,9 L13,8 L4,7 L3,5 L7,5 L3,4 L3,2 L0,2 Z " fill="#3A2D28" transform="translate(23,71)"/>
<path d="M0,0 L4,2 L9,6 L10,9 L12,10 L12,5 L23,5 L23,14 L17,14 L17,11 L12,11 L12,14 L9,14 L6,9 L4,8 L4,6 L2,6 Z " fill="#2C1F1F" transform="translate(127,16)"/>
<path d="M0,0 L3,0 L3,5 L1,5 L1,8 L-4,9 L-5,12 L-10,11 L-10,15 L-15,16 L-16,18 L-19,19 L-18,21 L-22,19 L-21,14 L-17,13 L-14,10 L-11,10 L-12,4 L-7,4 L-6,2 L-5,5 L-1,5 Z " fill="#170B12" transform="translate(36,0)"/>
<path d="M0,0 L5,0 L5,3 L7,3 L7,5 L11,7 L12,11 L15,11 L15,8 L20,8 L20,11 L26,11 L26,13 L20,13 L18,9 L16,9 L15,13 L13,13 L13,15 L10,16 L7,14 L7,12 L3,11 L6,11 L6,9 L2,8 L2,5 L0,5 L0,1 Z " fill="#110709" transform="translate(124,19)"/>
<path d="M0,0 L3,0 L5,6 L1,6 L-1,11 L-3,11 L-3,15 L-1,15 L0,13 L3,14 L3,16 L5,16 L5,19 L-1,19 L-6,18 L-7,10 L-5,5 L-7,5 L-7,2 L-1,2 Z " fill="#59423A" transform="translate(55,43)"/>
<path d="M0,0 L22,0 L22,1 L14,1 L14,3 L21,3 L19,6 L20,10 L14,10 L13,11 L4,11 L5,7 L13,7 L13,3 L1,3 Z " fill="#3E3A3E" transform="translate(61,0)"/>
<path d="M0,0 L2,0 L1,4 L3,7 L5,7 L8,4 L9,6 L14,6 L14,8 L11,8 L11,10 L16,9 L15,12 L9,11 L8,14 L6,13 L6,9 L3,11 L1,12 L-4,11 L-5,15 L-6,11 L-6,9 L-4,8 L-5,3 Z " fill="#402C24" transform="translate(52,34)"/>
<path d="M0,0 L4,1 L9,0 L11,2 L16,1 L19,2 L20,5 L18,6 L14,4 L14,6 L16,6 L16,11 L1,9 L-5,7 L-4,4 L-1,3 L0,5 L13,8 L13,6 L2,3 L0,2 Z " fill="#484344" transform="translate(41,65)"/>
<path d="M0,0 L7,0 L7,9 L0,9 L-1,13 L-6,13 L-6,9 L-3,9 L-4,2 L-1,2 Z " fill="#170D0A" transform="translate(143,60)"/>
<path d="M0,0 L3,4 L3,13 L1,13 L0,16 L-4,16 L-3,19 L-4,20 L-9,20 L-10,17 L-12,18 L-15,17 L-15,15 L-6,13 L-2,15 L-3,8 L-3,5 L0,5 Z " fill="#3D2620" transform="translate(42,34)"/>
<path d="M0,0 L10,1 L12,6 L18,6 L16,8 L9,8 L8,10 L-4,9 L-3,6 L-1,6 Z " fill="#1E1617" transform="translate(80,6)"/>
<path d="M0,0 L2,0 L2,3 L0,3 L0,5 L-5,6 L-5,8 L-7,8 L-8,13 L1,10 L6,10 L6,12 L1,14 L-4,14 L-4,16 L-11,17 L-11,15 L-9,15 L-9,13 L-12,13 L-11,6 L-10,5 L-5,5 L-5,2 L-1,2 Z " fill="#6F6866" transform="translate(120,67)"/>
<path d="M0,0 L4,1 L4,3 L1,3 L4,10 L3,15 L-2,14 L-9,9 L-9,7 L-7,7 L-7,5 L-2,4 L-2,2 L0,2 Z " fill="#160705" transform="translate(48,21)"/>
<path d="M0,0 L4,1 L7,2 L7,4 L11,5 L15,6 L17,15 L20,21 L18,22 L15,19 L12,15 L12,11 L8,10 L6,6 L0,2 Z " fill="#727A89" transform="translate(104,19)"/>
<path d="M0,0 L5,0 L7,4 L11,5 L12,7 L12,14 L9,14 L8,17 L6,17 L5,20 L2,19 L4,19 L4,15 L2,14 L6,11 L4,7 L0,3 Z " fill="#68656D" transform="translate(94,42)"/>
<path d="M0,0 L1,2 L3,2 L3,0 L5,0 L7,4 L11,5 L10,1 L14,5 L12,9 L8,8 L6,12 L2,12 L1,4 L-4,3 L-5,1 Z " fill="#424650" transform="translate(104,43)"/>
<path d="M0,0 L3,0 L3,2 L5,2 L5,4 L7,4 L8,0 L9,4 L6,13 L4,13 L3,9 L1,8 L2,13 L1,16 L-4,15 L-2,14 L-2,8 L0,3 Z " fill="#A7ABB6" transform="translate(117,45)"/>
<path d="M0,0 L6,2 L9,5 L9,13 L4,14 L3,17 L-3,17 L-2,14 L0,14 L1,9 L3,9 L4,4 L-1,2 Z " fill="#6B6770" transform="translate(85,24)"/>
<path d="M0,0 L3,0 L3,2 L5,3 L4,5 L7,5 L7,7 L13,8 L9,9 L4,10 L4,13 L9,14 L11,16 L0,16 L0,12 L-3,12 L-3,10 L1,10 L1,6 L3,6 L3,3 L0,3 Z " fill="#130D0A" transform="translate(19,68)"/>
<path d="M0,0 L6,1 L3,2 L3,4 L-4,7 L-8,7 L-8,9 L-12,9 L-12,11 L-10,12 L-14,13 L-21,13 L-20,9 L-14,6 L-4,4 L-3,1 Z " fill="#828188" transform="translate(90,64)"/>
<path d="M0,0 L7,0 L7,6 L0,6 L-1,9 L-4,8 L-3,14 L-8,13 L-8,7 L-3,4 L-2,1 Z " fill="#090504" transform="translate(143,54)"/>
<path d="M0,0 L4,1 L4,3 L8,5 L8,7 L2,6 L2,8 L4,8 L5,11 L0,12 L-1,15 L-4,14 L-4,12 L-6,11 L-4,7 L0,7 L-2,2 L0,2 Z " fill="#39231D" transform="translate(58,27)"/>
<path d="M0,0 L2,1 L1,5 L-8,5 L-8,9 L-1,9 L2,11 L-8,12 L-10,13 L-11,6 L-13,5 L-11,5 L-11,3 L-13,3 L-13,1 L-8,2 L-7,1 Z " fill="#07060D" transform="translate(68,68)"/>
<path d="M0,0 L4,0 L4,2 L11,2 L15,5 L16,10 L15,12 L11,11 L10,13 L5,7 L4,4 L2,3 L2,1 Z " fill="#6F6969" transform="translate(120,30)"/>
<path d="M0,0 L1,3 L3,4 L-2,5 L-2,8 L0,9 L-5,13 L-15,12 L-12,11 L-12,9 L-9,7 L-9,5 L-6,4 L-5,2 L0,2 Z " fill="#1C1B20" transform="translate(105,57)"/>
<path d="M0,0 L2,1 L3,5 L5,5 L5,7 L2,7 L1,9 L-10,9 L-10,3 L-1,1 Z " fill="#080504" transform="translate(88,75)"/>
<path d="M0,0 L6,0 L6,3 L12,2 L12,6 L14,6 L12,10 L8,9 L6,8 L5,10 L5,5 L3,5 L3,8 L1,8 Z " fill="#807C7D" transform="translate(21,48)"/>
<path d="M0,0 L6,2 L7,7 L9,7 L9,13 L4,13 L3,8 L1,8 L1,10 L-1,10 L-3,6 L0,5 Z " fill="#9597A0" transform="translate(106,35)"/>
<path d="M0,0 L12,0 L12,2 L6,2 L7,6 L11,6 L11,8 L9,8 L9,12 L2,13 L5,4 L0,4 Z " fill="#343639" transform="translate(45,7)"/>
<path d="M0,0 L11,4 L11,8 L9,10 L7,11 L7,8 L2,9 L-4,6 L-1,5 L-2,1 Z " fill="#271819" transform="translate(95,32)"/>
<path d="M0,0 L6,0 L12,2 L12,3 L5,3 L5,1 L3,2 L3,4 L6,5 L9,10 L12,12 L16,13 L16,7 L20,8 L17,16 L16,14 L10,15 L10,13 L7,13 L5,10 L1,5 Z " fill="#1F1F27" transform="translate(119,29)"/>
<path d="M0,0 L3,0 L3,3 L7,3 L8,1 L9,5 L8,8 L4,8 L3,6 L0,5 L-1,8 L0,12 L-6,12 L-5,7 L-3,7 L-3,2 L0,2 Z " fill="#443536" transform="translate(58,22)"/>
<path d="M0,0 L2,2 L7,1 L7,3 L10,3 L10,5 L13,5 L13,7 L11,7 L11,9 L-1,9 Z " fill="#140F14" transform="translate(98,75)"/>
<path d="M0,0 L2,0 L2,7 L0,9 L-3,9 L-3,15 L-5,15 L-7,9 L-9,8 L-5,7 L-4,5 L-6,5 L-7,1 L-1,1 Z " fill="#4E4E57" transform="translate(138,52)"/>
<path d="M0,0 L7,0 L8,5 L7,8 L1,9 L0,7 L-5,6 L-3,5 L-1,1 Z " fill="#1F181A" transform="translate(108,64)"/>
<path d="M0,0 L4,0 L7,3 L7,11 L13,11 L10,12 L10,14 L15,14 L14,18 L14,16 L8,15 L3,12 L3,3 L0,3 Z " fill="#584C4B" transform="translate(0,55)"/>
<path d="M0,0 L2,0 L2,2 L12,4 L15,6 L15,8 L2,6 L0,4 L-4,7 L-6,6 L-6,2 Z " fill="#0B0504" transform="translate(39,65)"/>
<path d="M0,0 L8,0 L5,1 L9,10 L8,19 L7,19 L7,11 L4,10 L4,8 L0,8 Z " fill="#34241F" transform="translate(0,47)"/>
<path d="M0,0 L5,0 L4,2 L11,5 L11,7 L8,7 L8,10 L11,11 L5,10 L-2,7 L0,5 Z " fill="#17141C" transform="translate(88,18)"/>
<path d="M0,0 L3,0 L3,3 L5,3 L5,1 L9,2 L9,4 L7,4 L7,7 L5,7 L5,9 L-3,9 L-2,3 L0,3 Z " fill="#514341" transform="translate(20,35)"/>
<path d="M0,0 L3,1 L1,2 L2,4 L-5,5 L-5,7 L-14,9 L-13,4 L-11,4 L-11,2 L-6,1 L-6,3 L-1,1 Z " fill="#2A2424" transform="translate(126,71)"/>
<path d="M0,0 L5,1 L6,6 L4,6 L4,9 L-2,11 L-3,7 L-2,5 L-4,5 L-5,2 L0,3 L0,5 L3,5 L3,3 L0,2 Z " fill="#4A4D54" transform="translate(105,23)"/>
<path d="M0,0 L2,2 L1,4 L4,4 L4,6 L2,6 L2,8 L-8,8 L-10,2 L-5,1 L-6,4 L0,4 Z " fill="#2E2016" transform="translate(88,37)"/>
<path d="M0,0 L16,0 L16,5 L7,4 L0,2 Z " fill="#54483E" transform="translate(41,77)"/>
<path d="M0,0 L2,1 L1,4 L-3,5 L-3,14 L-1,14 L-1,11 L1,11 L1,16 L-3,17 L-6,9 L-6,6 L-9,6 L-8,2 L-4,1 L0,2 Z " fill="#43444B" transform="translate(25,42)"/>
<path d="M0,0 L1,3 L0,5 L-2,5 L-1,9 L-8,8 L-9,10 L-15,9 L-12,7 L-9,6 L-11,4 L-3,2 Z " fill="#5C5556" transform="translate(98,56)"/>
<path d="M0,0 L6,1 L7,0 L14,1 L11,3 L7,4 L4,7 L-2,7 L-2,1 Z " fill="#958B8F" transform="translate(68,22)"/>
<path d="M0,0 L4,1 L4,3 L-2,5 L-6,5 L-6,7 L-11,7 L-12,3 L-6,1 Z " fill="#151318" transform="translate(81,60)"/>
<path d="M0,0 L4,0 L4,2 L8,2 L9,11 L8,9 L3,10 L1,9 L1,6 L4,6 L4,4 L0,3 Z " fill="#301810" transform="translate(38,50)"/>
<path d="M0,0 L12,0 L12,5 L3,6 L2,9 L2,3 Z " fill="#292113" transform="translate(138,49)"/>
<path d="M0,0 L4,1 L3,10 L3,14 L-1,14 L-1,8 L0,6 L-3,5 Z " fill="#070507" transform="translate(112,50)"/>
<path d="M0,0 L8,0 L10,2 L6,6 L5,9 L2,9 L2,6 L0,6 L0,3 L-3,2 L5,2 L0,1 Z " fill="#160C10" transform="translate(92,11)"/>
<path d="M0,0 L3,1 L2,3 L-2,3 L1,6 L1,8 L3,8 L2,11 L-1,11 L-4,7 L-7,6 L-6,3 L-4,3 L-4,1 Z " fill="#70635E" transform="translate(27,23)"/>
<path d="M0,0 L3,1 L6,3 L3,3 L4,7 L1,7 L2,13 L2,16 L-3,16 L-2,11 L0,11 Z " fill="#654F47" transform="translate(45,36)"/>
<path d="M0,0 L2,1 L1,4 L9,4 L9,5 L2,6 L2,9 L-5,9 L-8,8 L-8,6 L-3,4 L0,5 Z " fill="#342B30" transform="translate(64,7)"/>
<path d="M0,0 L7,1 L7,4 L0,4 L-1,8 L-6,8 L-6,4 L-3,4 L-3,2 L0,2 Z " fill="#2A1E1D" transform="translate(143,65)"/>
<path d="M0,0 L2,0 L2,2 L15,2 L15,4 L17,5 L2,5 L2,3 L-2,2 L0,2 Z " fill="#030000" transform="translate(33,79)"/>
<path d="M0,0 L5,2 L5,5 L-4,6 L-7,5 L-7,7 L-12,5 L-10,4 L-10,1 L-7,2 L-8,3 L-1,4 Z " fill="#422D22" transform="translate(37,60)"/>
<path d="M0,0 L3,0 L4,2 L12,3 L12,4 L3,5 L2,8 L-8,7 L-8,5 L0,4 Z " fill="#201B23" transform="translate(58,0)"/>
<path d="M0,0 L5,0 L1,3 L-10,8 L-10,6 L-17,6 L-19,4 L-6,4 L-6,2 Z " fill="#95949B" transform="translate(81,63)"/>
<path d="M0,0 L9,0 L9,5 L-3,5 L0,4 Z " fill="#140D07" transform="translate(141,44)"/>
<path d="M0,0 L4,2 L9,6 L12,12 L12,14 L9,14 L6,9 L4,8 L4,6 L2,6 Z " fill="#4C3E3E" transform="translate(127,16)"/>
<path d="M0,0 L4,0 L4,2 L-1,7 L-3,7 L-2,10 L-10,12 L-16,12 L-13,10 L-6,7 L-1,3 Z " fill="#82828D" transform="translate(106,62)"/>
<path d="M0,0 L8,1 L8,4 L6,7 L0,8 Z " fill="#311E19" transform="translate(50,60)"/>
<path d="M0,0 L13,1 L15,7 L12,6 L12,4 L7,4 L3,3 L-1,3 Z " fill="#8D8389" transform="translate(70,17)"/>
<path d="M0,0 L4,0 L4,4 L-9,5 L-11,3 L-9,1 Z " fill="#120F17" transform="translate(70,3)"/>
<path d="M0,0 L6,1 L3,2 L3,4 L-4,7 L-8,7 L-8,9 L-11,8 L-14,6 L-4,4 L-3,1 Z " fill="#737277" transform="translate(90,64)"/>
<path d="M0,0 L5,0 L4,4 L-9,6 L-9,4 Z " fill="#17171A" transform="translate(82,65)"/>
<path d="M0,0 L6,2 L3,5 L0,7 L-5,8 L-5,6 L-9,4 L-9,2 L-7,2 L-7,4 L-1,3 Z " fill="#332C26" transform="translate(90,55)"/>
<path d="M0,0 L8,0 L10,2 L10,7 L5,7 L5,3 L0,3 Z " fill="#524033" transform="translate(61,48)"/>
<path d="M0,0 L3,0 L3,5 L-7,7 L-9,7 L-8,4 L-6,4 L-6,2 Z " fill="#30272E" transform="translate(85,8)"/>
<path d="M0,0 L6,0 L7,3 L12,4 L14,6 L3,6 L3,2 L0,2 Z " fill="#514439" transform="translate(16,78)"/>
<path d="M0,0 L4,0 L4,2 L11,2 L14,5 L11,5 L10,7 L8,7 L7,9 L4,4 L2,3 L2,1 Z " fill="#665E64" transform="translate(120,30)"/>
<path d="M0,0 L2,0 L4,9 L7,15 L5,16 L2,13 L-1,9 Z " fill="#565A64" transform="translate(117,25)"/>
<path d="M0,0 L2,0 L1,4 L2,9 L-4,10 L-4,5 L-4,2 Z " fill="#4E3833" transform="translate(52,34)"/>
<path d="M0,0 L2,0 L2,3 L6,2 L8,4 L3,5 L-1,4 L-1,7 L-6,6 L-5,1 L0,2 Z " fill="#302B35" transform="translate(130,49)"/>
<path d="M0,0 L2,4 L-1,13 L-3,13 L-4,9 L-6,7 L-3,6 L-2,2 L-2,4 L0,4 Z " fill="#82818A" transform="translate(124,45)"/>
<path d="M0,0 L1,2 L5,3 L4,12 L2,12 L1,4 L-4,3 L-5,1 Z " fill="#21202B" transform="translate(104,43)"/>
<path d="M0,0 L1,4 L1,12 L-4,10 L-4,8 L-6,8 L-6,6 L-2,6 L-4,2 Z " fill="#6B5650" transform="translate(39,37)"/>
<path d="M0,0 L7,1 L7,4 L1,5 L-3,6 L-3,4 L-6,3 Z " fill="#827D80" transform="translate(63,63)"/>
<path d="M0,0 L9,0 L8,2 L6,2 L6,4 L-5,6 L-3,5 L-3,2 Z " fill="#60544D" transform="translate(35,24)"/>
<path d="M0,0 L2,0 L3,5 L2,7 L-9,7 L-9,5 L-1,5 L-2,1 Z " fill="#070607" transform="translate(76,77)"/>
<path d="M0,0 L4,1 L6,3 L6,11 L4,11 L1,6 Z " fill="#736158" transform="translate(5,48)"/>
<path d="M0,0 L12,0 L12,2 L1,2 L1,7 L-2,6 L-3,2 Z " fill="#170908" transform="translate(138,19)"/>
<path d="M0,0 L6,0 L8,2 L13,3 L11,4 L11,6 L7,6 L7,8 L5,8 L6,3 L1,2 Z " fill="#261A20" transform="translate(16,18)"/>
<path d="M0,0 L2,0 L3,1 L13,0 L13,2 L15,3 L9,3 L8,4 L-1,4 Z " fill="#5D5455" transform="translate(66,7)"/>
<path d="M0,0 L2,2 L12,4 L13,6 L3,6 L-3,4 L-2,1 Z " fill="#62544E" transform="translate(39,68)"/>
<path d="M0,0 L5,1 L5,3 L3,3 L3,7 L-4,8 L-2,3 L0,3 Z " fill="#616063" transform="translate(51,12)"/>
<path d="M0,0 L5,0 L5,3 L3,3 L2,6 L0,6 L-1,9 L-4,8 L-2,8 L-2,4 L-4,3 Z " fill="#858288" transform="translate(100,53)"/>
<path d="M0,0 L3,1 L3,8 L2,10 L-3,10 L-2,7 L1,8 L1,6 L-1,6 L-1,1 Z " fill="#0B0D16" transform="translate(92,74)"/>
<path d="M0,0 L4,1 L4,3 L6,3 L6,6 L0,6 L-5,5 L-5,2 L-2,1 L0,2 Z " fill="#99847A" transform="translate(54,56)"/>
<path d="M0,0 L6,2 L7,5 L5,5 L6,9 L0,7 Z " fill="#4C4F52" transform="translate(106,35)"/>
<path d="M0,0 L2,0 L2,3 L-3,5 L-6,8 L-9,8 L-9,6 L-7,6 L-6,2 Z " fill="#110D0C" transform="translate(129,64)"/>
<path d="M0,0 L3,0 L4,2 L7,3 L7,6 L2,8 L2,4 L-2,5 Z " fill="#66564B" transform="translate(71,46)"/>
<path d="M0,0 L5,0 L5,2 L7,3 L0,4 L-2,3 L-2,9 L-4,9 L-4,2 Z " fill="#180A09" transform="translate(72,28)"/>
<path d="M0,0 L4,1 L4,3 L8,5 L8,7 L-1,5 L-2,2 L0,2 Z " fill="#271210" transform="translate(58,27)"/>
<path d="M0,0 L4,1 L4,6 L0,5 L-4,6 L-2,5 L-2,3 L-7,3 L-7,2 Z " fill="#37292C" transform="translate(128,74)"/>
<path d="M0,0 L7,0 L9,1 L8,7 L7,5 L2,6 L2,4 L5,4 L5,2 L0,2 Z " fill="#1C0D08" transform="translate(61,38)"/>
<path d="M0,0 L3,4 L3,12 L0,11 L0,7 L-3,7 L-3,5 L0,5 Z " fill="#3D2620" transform="translate(42,34)"/>
<path d="M0,0 L2,1 L2,4 L6,5 L7,10 L9,10 L9,12 L6,12 L6,10 L3,9 L3,6 L1,6 Z " fill="#696C79" transform="translate(116,15)"/>
<path d="M0,0 L2,0 L2,4 L8,4 L9,9 L6,8 L5,10 L5,5 L3,5 L3,8 L1,8 Z " fill="#9BA8B5" transform="translate(21,48)"/>
<path d="M0,0 L5,0 L6,3 L11,8 L6,8 L5,4 L0,3 Z " fill="#0F0F19" transform="translate(114,21)"/>
<path d="M0,0 L1,3 L-3,3 L-5,7 L-9,6 L-9,2 Z " fill="#040206" transform="translate(106,14)"/>
<path d="M0,0 L4,1 L4,3 L2,4 L1,7 L-5,7 L-4,5 L-6,3 L-1,1 Z " fill="#0B0508" transform="translate(75,9)"/>
<path d="M0,0 L7,0 L7,2 L10,1 L9,4 L0,3 L0,7 L-4,7 L-4,5 L-1,5 Z " fill="#200F09" transform="translate(61,45)"/>
<path d="M0,0 L2,0 L1,8 L0,13 L-3,13 L-1,8 L-3,8 L-1,2 Z " fill="#402D25" transform="translate(15,30)"/>
<path d="M0,0 L6,1 L6,5 L0,7 L-1,3 Z " fill="#090809" transform="translate(44,10)"/>
<path d="M0,0 L5,0 L5,2 L2,2 L2,4 L-8,4 L-5,3 L-5,1 Z " fill="#0B0608" transform="translate(121,80)"/>
<path d="M0,0 L4,1 L4,3 L2,3 L2,5 L-8,5 L-8,3 L-1,1 Z " fill="#100C0A" transform="translate(107,79)"/>
<path d="M0,0 L9,0 L8,5 L0,5 L1,2 Z " fill="#211817" transform="translate(67,77)"/>
<path d="M0,0 L4,1 L4,4 L4,6 L6,6 L6,9 L3,9 L3,6 L1,6 L1,4 L-2,4 Z " fill="#362728" transform="translate(76,24)"/>
<path d="M0,0 L5,1 L5,3 L8,3 L7,6 L4,6 L3,9 L2,5 L3,3 L1,3 Z " fill="#0F121F" transform="translate(100,25)"/>
<path d="M0,0 L7,0 L8,5 L6,5 L6,7 L2,7 L3,3 L3,2 L-1,1 Z " fill="#3D3030" transform="translate(59,18)"/>
<path d="M0,0 L10,0 L10,2 L13,3 L13,4 L6,4 L6,2 L4,2 L3,4 L0,1 Z " fill="#695F57" transform="translate(77,55)"/>
<path d="M0,0 L11,0 L11,1 L5,1 L5,5 L0,5 Z " fill="#362525" transform="translate(139,21)"/>
<path d="M0,0 L7,1 L10,3 L10,5 L-3,3 Z " fill="#29201A" transform="translate(44,68)"/>
<path d="M0,0 L3,0 L4,7 L3,9 L0,9 Z " fill="#120B09" transform="translate(0,58)"/>
<path d="M0,0 L5,0 L6,6 L8,7 L7,10 L2,6 L0,3 Z " fill="#625A61" transform="translate(94,42)"/>
<path d="M0,0 L9,0 L8,4 L11,3 L11,5 L6,5 L5,2 L0,2 Z " fill="#1F0C06" transform="translate(74,33)"/>
<path d="M0,0 L5,0 L5,2 L-5,5 L-7,4 L-6,2 Z " fill="#707073" transform="translate(121,77)"/>
<path d="M0,0 L2,0 L2,3 L0,3 L0,5 L-5,7 L-8,7 L-8,5 L-5,5 L-5,2 L-1,2 Z " fill="#988E8A" transform="translate(120,67)"/>
<path d="M0,0 L2,1 L1,5 L-8,5 L-4,1 Z " fill="#171720" transform="translate(68,68)"/>
<path d="M0,0 L4,0 L3,5 L-6,6 L-3,3 L0,3 Z " fill="#030304" transform="translate(132,68)"/>
<path d="M0,0 L4,1 L1,9 L0,7 L-6,8 L-5,5 L0,6 Z " fill="#2F2529" transform="translate(135,36)"/>
<path d="M0,0 L3,1 L4,3 L7,5 L-3,5 L-4,3 L-2,3 L-2,1 Z " fill="#080609" transform="translate(82,23)"/>
<path d="M0,0 L5,0 L5,2 L-1,5 L-6,6 L-6,4 L-1,1 Z " fill="#777171" transform="translate(126,68)"/>
<path d="M0,0 L6,1 L6,3 L2,5 L-1,5 L-2,8 L-5,6 L-3,6 L-3,4 L0,4 Z " fill="#3F3029" transform="translate(121,62)"/>
<path d="M0,0 L1,2 L3,3 L-3,7 L-5,3 Z " fill="#393A48" transform="translate(102,63)"/>
<path d="M0,0 L10,0 L10,4 L6,3 L7,2 L5,1 L5,4 L3,4 L3,2 L0,2 Z " fill="#3A2F2B" transform="translate(22,60)"/>
<path d="M0,0 L2,0 L2,2 L9,2 L10,5 L5,6 L0,3 Z " fill="#6F584F" transform="translate(37,57)"/>
<path d="M0,0 L5,0 L6,4 L3,7 L1,7 L2,3 L0,3 Z " fill="#836F68" transform="translate(48,45)"/>
<path d="M0,0 L12,3 L12,4 L2,5 L0,6 Z " fill="#030102" transform="translate(58,75)"/>
<path d="M0,0 L1,2 L6,1 L5,3 L0,6 L-5,6 L-3,5 L-1,1 Z " fill="#474149" transform="translate(108,64)"/>
<path d="M0,0 L1,3 L3,4 L-4,7 L-6,6 L-5,2 L0,2 Z " fill="#0D0E16" transform="translate(105,57)"/>
<path d="M0,0 L2,0 L3,4 L5,5 L-1,6 L-5,5 L-5,2 L-2,1 L-2,3 L0,3 Z " fill="#05050D" transform="translate(129,53)"/>
<path d="M0,0 L1,4 L0,7 L-2,7 L-3,4 L-5,5 L-8,4 L-8,2 Z " fill="#211413" transform="translate(35,47)"/>
<path d="M0,0 L4,1 L2,6 L-4,6 L-3,3 L0,3 Z " fill="#7E6C61" transform="translate(86,35)"/>
<path d="M0,0 L5,1 L10,4 L10,6 L6,5 L1,3 Z " fill="#6C6469" transform="translate(95,30)"/>
<path d="M0,0 L2,0 L3,2 L7,4 L7,6 L4,6 L4,8 L1,7 Z " fill="#242837" transform="translate(110,15)"/>
<path d="M0,0 L3,0 L3,5 L1,5 L1,8 L-4,8 L-4,6 L-1,5 Z " fill="#433A3E" transform="translate(36,0)"/>
<path d="M0,0 L5,0 L2,1 L2,3 L7,3 L6,7 L6,5 L0,4 L-2,1 Z " fill="#413431" transform="translate(8,66)"/>
<path d="M0,0 L4,2 L3,8 L-2,7 L0,6 Z " fill="#888890" transform="translate(115,53)"/>
<path d="M0,0 L4,1 L3,7 L-3,6 Z " fill="#0B0D17" transform="translate(112,50)"/>
<path d="M0,0 L2,0 L2,4 L0,6 L-2,7 L-2,4 L-6,4 L-6,2 L-2,1 L0,2 Z " fill="#413132" transform="translate(104,36)"/>
<path d="M0,0 L1,3 L6,3 L6,6 L1,5 L-2,4 L-3,7 L-2,2 L0,2 Z " fill="#605249" transform="translate(88,31)"/>
<path d="M0,0 L3,2 L3,4 L6,5 L2,6 L2,8 L0,8 L-2,2 L0,2 Z " fill="#2C1E1C" transform="translate(23,30)"/>
<path d="M0,0 L2,0 L3,7 L-3,7 L-2,2 L0,2 Z " fill="#675654" transform="translate(55,27)"/>
<path d="M0,0 L7,2 L7,7 L5,5 L0,4 Z " fill="#372420" transform="translate(13,22)"/>
<path d="M0,0 L5,1 L5,3 L7,3 L6,6 L3,6 L0,3 Z " fill="#262A27" transform="translate(107,3)"/>
<path d="M0,0 L4,1 L1,2 L1,5 L3,6 L-3,7 L-2,2 L0,2 Z " fill="#1C1510" transform="translate(115,73)"/>
<path d="M0,0 L4,1 L1,1 L1,3 L8,2 L6,5 L0,6 L-1,2 Z " fill="#432D24" transform="translate(56,49)"/>
<path d="M0,0 L9,0 L8,4 L2,3 L0,5 L-1,1 Z " fill="#463D45" transform="translate(94,28)"/>
<path d="M0,0 L9,0 L11,3 L9,5 L9,2 L0,3 Z " fill="#6B6063" transform="translate(57,16)"/>
<path d="M0,0 L3,1 L3,7 L1,7 L1,4 L-4,3 L-4,1 Z " fill="#201217" transform="translate(12,13)"/>
<path d="M0,0 L2,1 L1,4 L9,4 L9,5 L2,6 L2,9 L-1,8 Z " fill="#3C353E" transform="translate(64,7)"/>
<path d="M0,0 L5,1 L5,5 L0,5 Z " fill="#352D2B" transform="translate(133,75)"/>
<path d="M0,0 L4,0 L3,5 L0,6 L0,3 L-4,2 L0,2 Z " fill="#0F0A0D" transform="translate(82,71)"/>
<path d="M0,0 L4,1 L4,3 L-4,2 L-5,4 L-11,3 L-11,2 Z " fill="#1B181B" transform="translate(81,60)"/>
<path d="M0,0 L2,0 L2,2 L5,3 L3,5 L3,3 L-3,6 L-5,6 L-3,2 Z " fill="#463736" transform="translate(62,60)"/>
<path d="M0,0 L5,0 L5,2 L7,4 L2,5 L0,4 Z " fill="#867C79" transform="translate(75,56)"/>
<path d="M0,0 L5,0 L4,5 L-2,6 Z " fill="#4E4641" transform="translate(84,48)"/>
<path d="M0,0 L4,4 L2,8 L0,7 L0,5 L-3,5 L-3,3 L1,4 Z " fill="#525967" transform="translate(114,44)"/>
<path d="M0,0 L6,2 L8,6 L5,5 L5,3 L2,3 L2,7 L0,7 Z " fill="#0E0605" transform="translate(8,59)"/>
<path d="M0,0 L8,0 L5,1 L7,8 L5,8 L4,4 L0,2 Z " fill="#4C3B34" transform="translate(0,47)"/>
<path d="M0,0 L2,0 L1,7 L-3,8 L-2,2 L0,2 Z " fill="#736059" transform="translate(20,36)"/>
<path d="M0,0 L4,0 L5,7 L2,6 L0,3 Z " fill="#101415" transform="translate(112,30)"/>
<path d="M0,0 L5,1 L5,3 L2,3 L2,6 L5,7 L-1,6 L-1,4 L1,4 Z " fill="#101018" transform="translate(94,22)"/>
<path d="M0,0 L4,1 L9,0 L10,2 L9,4 L0,2 Z " fill="#746760" transform="translate(41,65)"/>
<path d="M0,0 L3,1 L3,5 L5,6 L3,6 L3,8 L0,8 Z " fill="#443F42" transform="translate(118,53)"/>
<path d="M0,0 L1,0 L1,7 L-1,7 L-1,9 L-3,9 L-3,4 Z " fill="#514442" transform="translate(31,38)"/>
<path d="M0,0 L5,0 L5,2 L0,2 L0,5 L-3,5 L-3,1 Z " fill="#6C5951" transform="translate(74,31)"/>
<path d="M0,0 L7,1 L6,7 L4,4 L-2,2 Z " fill="#0B0203" transform="translate(15,20)"/>
<path d="M0,0 L0,3 L-1,5 L4,5 L0,7 L-6,6 L-1,1 Z " fill="#3C3C3F" transform="translate(48,15)"/>
<path d="M0,0 L5,1 L5,9 L2,6 Z " fill="#0E080E" transform="translate(81,15)"/>
<path d="M0,0 L2,0 L2,3 L4,3 L4,5 L1,5 L0,7 L-2,7 L-2,3 L0,3 Z " fill="#272A2E" transform="translate(89,77)"/>
<path d="M0,0 L1,2 L4,3 L1,7 L1,5 L-3,6 L-3,3 L0,3 Z " fill="#383033" transform="translate(104,76)"/>
<path d="M0,0 L3,1 L2,2 L7,3 L6,5 L3,4 L3,6 L-2,4 L0,3 Z " fill="#24130E" transform="translate(27,61)"/>
<path d="M0,0 L6,2 L3,5 L0,5 L-1,1 Z " fill="#3B332D" transform="translate(90,55)"/>
<path d="M0,0 L2,0 L2,3 L4,3 L4,5 L-2,6 L-2,2 L0,2 Z " fill="#321A12" transform="translate(54,52)"/>
<path d="M0,0 L3,2 L2,5 L-3,6 L-1,1 Z " fill="#1A1318" transform="translate(98,49)"/>
<path d="M0,0 L3,0 L3,2 L1,2 L1,4 L-7,4 L-5,2 Z " fill="#534840" transform="translate(89,41)"/>
<path d="M0,0 L7,0 L7,3 L9,4 L4,4 L0,2 Z " fill="#130607" transform="translate(95,40)"/>
<path d="M0,0 L5,0 L4,5 L1,4 L1,2 L-1,1 Z " fill="#1B0806" transform="translate(53,37)"/>
<path d="M0,0 L1,4 L0,8 L-3,8 L-4,2 Z " fill="#816962" transform="translate(39,37)"/>
<path d="M0,0 L2,4 L1,7 L-3,6 L-2,2 L0,2 Z " fill="#675755" transform="translate(65,23)"/>
<path d="M0,0 L5,0 L3,1 L4,5 L-2,6 L-2,4 L0,4 Z " fill="#2C2224" transform="translate(54,15)"/>
<path d="M0,0 L2,0 L2,4 L-5,5 L-5,3 Z " fill="#574F51" transform="translate(28,7)"/>
<path d="M0,0 L7,1 L7,4 L2,3 L0,2 Z " fill="#373C3A" transform="translate(113,2)"/>
<path d="M0,0 L7,1 L5,6 L3,5 L0,2 Z " fill="#5E595B" transform="translate(86,71)"/>
<path d="M0,0 L3,3 L3,5 L5,5 L3,11 L2,7 L0,5 Z " fill="#483F46" transform="translate(93,43)"/>
<path d="M0,0 L2,4 L0,4 L0,6 L2,7 L-2,7 L-4,5 L-1,5 L-2,1 Z " fill="#362522" transform="translate(95,32)"/>
<path d="M0,0 L4,0 L4,3 L0,4 L-5,2 L-5,1 Z " fill="#393842" transform="translate(91,23)"/>
<path d="M0,0 L4,2 L7,6 L7,8 L4,8 Z " fill="#625352" transform="translate(132,22)"/>
<path d="M0,0 L4,1 L4,3 L1,3 L2,7 L-1,6 L-2,2 L0,2 Z " fill="#160F11" transform="translate(48,21)"/>
<path d="M0,0 L7,0 L3,3 L-3,3 Z " fill="#40353B" transform="translate(36,11)"/>
<path d="M0,0 L4,2 L5,4 L-2,5 L-2,3 L0,3 Z " fill="#585756" transform="translate(111,79)"/>
<path d="M0,0 L5,0 L4,4 L-1,4 Z " fill="#333B41" transform="translate(79,80)"/>
<path d="M0,0 L6,1 L3,2 L3,4 L-2,5 L-2,3 L0,3 Z " fill="#A9A3A6" transform="translate(90,64)"/>
<path d="M0,0 L3,1 L0,6 L-2,6 L-3,2 L0,2 Z " fill="#140907" transform="translate(56,61)"/>
<path d="M0,0 L2,3 L2,6 L0,6 L-1,8 L-4,8 L-4,6 L-2,6 L-2,4 L0,4 Z " fill="#1E1113" transform="translate(123,55)"/>
<path d="M0,0 L4,0 L3,4 L0,3 L-4,3 L-4,1 Z " fill="#2A140F" transform="translate(66,56)"/>
<path d="M0,0 L2,1 L1,4 L-8,4 L-8,2 L-4,1 L0,2 Z " fill="#332521" transform="translate(25,42)"/>
<path d="M0,0 L6,0 L4,5 L3,3 L0,4 Z " fill="#34211F" transform="translate(32,33)"/>
<path d="M0,0 L2,0 L3,7 L2,5 L-3,5 L0,1 Z " fill="#727785" transform="translate(115,25)"/>
<path d="M0,0 L4,1 L1,1 L1,6 L-1,6 L-1,4 L-4,3 Z " fill="#34272C" transform="translate(54,23)"/>
<path d="M0,0 L3,0 L3,5 L-1,5 Z " fill="#0C0F11" transform="translate(84,79)"/>
<path d="M0,0 L8,0 L8,2 L2,3 L0,2 Z " fill="#9E928B" transform="translate(41,77)"/>
<path d="M0,0 L7,1 L7,4 L3,4 L3,2 L0,2 Z " fill="#6C5F5C" transform="translate(23,71)"/>
<path d="M0,0 L2,0 L2,2 L5,3 L-4,4 L-4,2 Z " fill="#23252A" transform="translate(77,67)"/>
<path d="M0,0 L5,1 L4,3 L2,3 L1,6 L-1,6 Z " fill="#A6A2A8" transform="translate(101,53)"/>
<path d="M0,0 L1,0 L1,8 L-1,8 L-3,3 Z " fill="#645348" transform="translate(10,51)"/>
<path d="M0,0 L1,3 L5,2 L7,4 L2,5 L-2,3 L0,3 Z " fill="#292128" transform="translate(131,49)"/>
<path d="M0,0 L4,1 L4,5 L0,5 Z " fill="#060101" transform="translate(0,49)"/>
<path d="M0,0 L3,0 L4,4 L0,4 L-1,7 L-2,5 Z " fill="#715D55" transform="translate(56,45)"/>
<path d="M0,0 L5,1 L4,4 L0,4 Z " fill="#796F6D" transform="translate(89,30)"/>
<path d="M0,0 L1,2 L-1,2 L-1,4 L-7,4 L-7,2 Z " fill="#180605" transform="translate(136,80)"/>
<path d="M0,0 L7,0 L9,2 L4,3 L0,2 Z " fill="#B0ACB1" transform="translate(71,74)"/>
<path d="M0,0 L4,1 L0,4 L-6,3 L-3,1 Z " fill="#4E4746" transform="translate(89,62)"/>
<path d="M0,0 L4,0 L4,2 L2,3 L-4,3 L-4,1 Z " fill="#0A090D" transform="translate(77,62)"/>
<path d="M0,0 L4,0 L5,3 L3,7 L3,3 L0,3 Z " fill="#51413B" transform="translate(0,55)"/>
<path d="M0,0 L2,0 L1,5 L-1,5 L-2,8 L-2,2 L0,2 Z " fill="#2E2420" transform="translate(142,50)"/>
<path d="M0,0 L3,2 L3,8 L0,5 L-1,1 Z " fill="#B3AEB3" transform="translate(128,35)"/>
<path d="M0,0 L4,1 L7,4 L4,4 L3,6 L2,2 L0,2 Z " fill="#5F4A42" transform="translate(41,32)"/>
<path d="M0,0 L2,0 L2,2 L0,2 L0,5 L-5,6 L-3,5 L-3,2 Z " fill="#B0A29B" transform="translate(35,24)"/>
<path d="M0,0 L4,1 L7,3 L5,3 L4,5 L0,2 Z " fill="#777C8B" transform="translate(104,19)"/>
<path d="M0,0 L3,1 L1,1 L2,4 L-3,5 L-4,3 Z " fill="#33323D" transform="translate(103,18)"/>
<path d="M0,0 L2,0 L1,4 L-6,4 L-2,2 Z " fill="#2F1A0F" transform="translate(64,51)"/>
<path d="M0,0 L2,4 L0,8 L-3,5 L0,4 Z " fill="#6E727E" transform="translate(121,47)"/>
<path d="M0,0 L4,0 L4,4 L0,4 Z " fill="#6A7684" transform="translate(23,48)"/>
<path d="M0,0 L3,1 L3,4 L-2,4 L-2,1 Z " fill="#755E54" transform="translate(44,48)"/>
<path d="M0,0 L5,1 L5,3 L3,3 L3,5 L0,5 Z " fill="#9E9599" transform="translate(127,46)"/>
<path d="M0,0 L3,0 L3,4 L-2,5 Z " fill="#7F6E63" transform="translate(71,46)"/>
<path d="M0,0 L4,0 L4,3 L6,3 L6,5 L2,5 L2,1 Z " fill="#130E0A" transform="translate(88,46)"/>
<path d="M0,0 L7,3 L7,5 L2,5 Z " fill="#968F98" transform="translate(98,44)"/>
<path d="M0,0 L1,4 L-4,3 L-5,1 Z " fill="#5A535D" transform="translate(104,43)"/>
<path d="M0,0 L2,0 L4,5 L2,6 L-1,3 Z " fill="#797F89" transform="translate(120,35)"/>
<path d="M0,0 L4,2 L1,2 L1,5 L-3,3 Z " fill="#564541" transform="translate(67,28)"/>
<path d="M0,0 L2,0 L2,6 L-1,6 Z " fill="#2B180F" transform="translate(9,26)"/>
<path d="M0,0 L5,1 L5,5 L3,5 L3,3 L0,2 Z " fill="#141824" transform="translate(105,23)"/>
<path d="M0,0 L5,0 L6,3 L1,4 Z " fill="#1B1B29" transform="translate(117,15)"/>
<path d="M0,0 L6,1 L4,3 L-1,3 Z " fill="#59585D" transform="translate(48,17)"/>
<path d="M0,0 L5,0 L3,4 L0,4 L-1,1 Z " fill="#161415" transform="translate(42,16)"/>
<path d="M0,0 L8,1 L6,3 L0,2 Z " fill="#2E2217" transform="translate(48,81)"/>
<path d="M0,0 L5,0 L4,3 L-3,3 L0,2 Z " fill="#1B1C1D" transform="translate(116,81)"/>
<path d="M0,0 L2,0 L3,3 L-4,3 L-4,1 Z " fill="#0A0506" transform="translate(103,81)"/>
<path d="M0,0 L4,0 L4,4 L0,3 Z " fill="#999396" transform="translate(135,55)"/>
<path d="M0,0 L5,1 L5,3 L0,4 Z " fill="#9B9CA5" transform="translate(107,55)"/>
<path d="M0,0 L6,2 L3,4 L-1,3 Z " fill="#5E5B5D" transform="translate(27,56)"/>
<path d="M0,0 L7,0 L6,3 L0,2 Z " fill="#766457" transform="translate(61,43)"/>
<path d="M0,0 L2,1 L2,4 L-3,5 L-3,2 L0,2 Z " fill="#100F18" transform="translate(119,41)"/>
<path d="M0,0 L4,2 L3,5 L-1,4 Z " fill="#1A0B05" transform="translate(90,37)"/>
<path d="M0,0 L3,1 L6,3 L2,3 L2,5 L0,5 Z " fill="#968179" transform="translate(45,36)"/>
<path d="M0,0 L2,0 L2,2 L7,3 L7,4 L-1,4 Z " fill="#5E5E68" transform="translate(66,7)"/>
<path d="M0,0 L6,0 L7,3 L2,3 L2,1 Z " fill="#0B0813" transform="translate(64,4)"/>
<path d="M0,0 L2,0 L2,2 L4,2 L4,4 L-1,4 Z " fill="#A69990" transform="translate(52,78)"/>
<path d="M0,0 L4,2 L6,4 L0,4 Z " fill="#0E0E09" transform="translate(138,74)"/>
<path d="M0,0 L6,0 L6,3 L0,2 Z " fill="#797277" transform="translate(64,64)"/>
<path d="M0,0 L1,3 L-1,3 L-2,5 L-4,1 Z " fill="#0E0302" transform="translate(46,62)"/>
<path d="M0,0 L5,0 L4,3 L0,3 Z " fill="#59473A" transform="translate(61,48)"/>
<path d="M0,0 L5,2 L4,5 L1,4 Z " fill="#95979D" transform="translate(106,35)"/>
<path d="M0,0 L3,1 L4,4 L-1,4 L-2,1 Z " fill="#251E27" transform="translate(82,23)"/>
<path d="M0,0 L3,1 L2,3 L-3,4 L-3,1 Z " fill="#8B7F80" transform="translate(27,23)"/>
<path d="M0,0 L7,1 L4,3 L0,3 Z " fill="#6B626A" transform="translate(75,22)"/>
<path d="M0,0 L2,1 L2,6 L-2,7 L0,6 L-1,1 Z " fill="#150D12" transform="translate(30,5)"/>
<path d="M0,0 L5,0 L4,3 L-1,3 Z " fill="#20140E" transform="translate(61,79)"/>
<path d="M0,0 L5,0 L5,2 L0,3 Z " fill="#8B8387" transform="translate(121,77)"/>
<path d="M0,0 L5,0 L5,2 L0,3 Z " fill="#84878B" transform="translate(126,68)"/>
<path d="M0,0 L5,0 L5,2 L0,4 Z " fill="#776760" transform="translate(122,63)"/>
<path d="M0,0 L4,1 L4,4 L0,4 Z " fill="#8B766C" transform="translate(32,60)"/>
<path d="M0,0 L3,1 L2,4 L-2,4 L-2,1 Z " fill="#7B665A" transform="translate(51,57)"/>
<path d="M0,0 L4,0 L3,3 L0,4 Z " fill="#4C352E" transform="translate(58,55)"/>
<path d="M0,0 L7,0 L3,3 L0,2 Z " fill="#46444A" transform="translate(27,49)"/>
<path d="M0,0 L3,1 L1,4 L-2,3 L-2,1 Z " fill="#473126" transform="translate(80,38)"/>
<path d="M0,0 L5,0 L6,3 L0,2 Z " fill="#140501" transform="translate(60,31)"/>
<path d="M0,0 L6,0 L6,2 L2,3 L0,2 Z " fill="#291B1A" transform="translate(25,26)"/>
<path d="M0,0 L1,3 L1,5 L-3,5 L-2,1 Z " fill="#342424" transform="translate(64,20)"/>
<path d="M0,0 L5,1 L3,2 L3,4 L-1,3 Z " fill="#282628" transform="translate(43,21)"/>
<path d="M0,0 L6,1 L4,3 L0,2 Z " fill="#0B0B0E" transform="translate(51,9)"/>
<path d="M0,0 L1,2 L3,3 L-1,4 L-4,2 L0,2 Z " fill="#766B62" transform="translate(49,77)"/>
<path d="M0,0 L5,1 L2,3 L-1,3 Z " fill="#090806" transform="translate(113,77)"/>
<path d="M0,0 L1,4 L0,6 L-3,6 L-3,4 L-1,4 Z " fill="#2E2721" transform="translate(123,66)"/>
<path d="M0,0 L4,1 L5,4 L3,5 L0,2 Z " fill="#2D3134" transform="translate(56,66)"/>
<path d="M0,0 L3,0 L3,2 L5,3 L3,4 L0,3 Z " fill="#312421" transform="translate(19,68)"/>
<path d="M0,0 L4,1 L0,4 L-2,3 L-2,1 Z " fill="#1C0E0A" transform="translate(35,68)"/>
<path d="M0,0 L3,0 L4,3 L-2,2 Z " fill="#7E7A7F" transform="translate(93,62)"/>
<path d="M0,0 L5,1 L2,4 L0,3 Z " fill="#22222C" transform="translate(96,62)"/>
<path d="M0,0 L5,2 L1,4 L-1,2 Z " fill="#22110C" transform="translate(37,60)"/>
<path d="M0,0 L3,1 L2,4 L-1,4 Z " fill="#414148" transform="translate(103,55)"/>
<path d="M0,0 L2,0 L2,7 L1,3 L-1,3 Z " fill="#5B5254" transform="translate(138,52)"/>
<path d="M0,0 L1,2 L5,3 L-1,4 L-1,1 Z " fill="#524436" transform="translate(76,52)"/>
<path d="M0,0 L2,0 L1,5 L-1,4 Z " fill="#492E28" transform="translate(40,41)"/>
<path d="M0,0 L1,2 L5,2 L5,4 L2,5 L0,3 Z " fill="#46322B" transform="translate(58,39)"/>
<path d="M0,0 L2,0 L2,4 L-3,3 L-2,1 L0,2 Z " fill="#453F43" transform="translate(104,36)"/>
<path d="M0,0 L2,4 L-4,4 L0,2 Z " fill="#78655F" transform="translate(56,30)"/>
<path d="M0,0 L5,0 L4,3 L1,3 Z " fill="#665755" transform="translate(25,31)"/>
<path d="M0,0 L2,0 L5,4 L0,4 Z " fill="#03030B" transform="translate(120,25)"/>
<path d="M0,0 L5,0 L4,3 L1,4 Z " fill="#211921" transform="translate(88,18)"/>
<path d="M0,0 L6,0 L5,3 L0,1 Z " fill="#514F53" transform="translate(69,8)"/>
<path d="M0,0 L2,0 L2,2 L5,3 L-1,3 Z " fill="#5C5A5E" transform="translate(110,72)"/>
<path d="M0,0 L4,2 L4,4 L0,3 Z " fill="#100C0B" transform="translate(50,69)"/>
<path d="M0,0 L4,0 L3,3 L0,3 Z " fill="#05050A" transform="translate(66,70)"/>
<path d="M0,0 L4,2 L-2,4 Z " fill="#4C3E3B" transform="translate(59,62)"/>
<path d="M0,0 L2,1 L1,4 L-2,4 L-2,1 Z " fill="#50505F" transform="translate(105,61)"/>
<path d="M0,0 L6,1 L3,4 L1,4 Z " fill="#3C3942" transform="translate(131,53)"/>
<path d="M0,0 L2,4 L-1,5 Z " fill="#595D6B" transform="translate(109,50)"/>
<path d="M0,0 L3,0 L3,4 L0,3 Z " fill="#240C08" transform="translate(42,42)"/>
<path d="M0,0 L3,0 L3,2 L-2,3 L-2,1 Z " fill="#100A0A" transform="translate(132,43)"/>
<path d="M0,0 L2,1 L2,4 L-2,3 L-2,1 Z " fill="#5C4741" transform="translate(51,38)"/>
<path d="M0,0 L3,0 L2,3 L-2,4 L-2,2 L0,2 Z " fill="#5D4943" transform="translate(36,36)"/>
<path d="M0,0 L4,2 L1,2 L0,5 L-1,1 Z " fill="#29252E" transform="translate(103,29)"/>
<path d="M0,0 L4,2 L2,6 Z " fill="#3D2E2F" transform="translate(127,16)"/>
<path d="M0,0 L5,0 L2,3 L0,3 Z " fill="#54494A" transform="translate(57,16)"/>
<path d="M0,0 L1,2 L4,2 L4,5 L0,3 Z " fill="#2F2427" transform="translate(22,10)"/>
<path d="M0,0 L5,0 L1,3 L-2,1 Z " fill="#78767A" transform="translate(81,63)"/>
<path d="M0,0 L4,0 L3,3 L0,2 Z " fill="#675E61" transform="translate(66,61)"/>
<path d="M0,0 L3,1 L2,5 L0,2 Z " fill="#484C54" transform="translate(118,53)"/>
<path d="M0,0 L3,3 L-1,4 Z " fill="#725D56" transform="translate(36,50)"/>
<path d="M0,0 L3,0 L2,4 L0,4 Z " fill="#160A08" transform="translate(47,48)"/>
<path d="M0,0 L4,0 L4,3 L0,2 Z " fill="#382621" transform="translate(0,47)"/>
<path d="M0,0 L3,1 L1,6 L0,2 Z " fill="#3F2822" transform="translate(46,43)"/>
<path d="M0,0 L5,1 L2,3 L0,3 Z " fill="#2A150F" transform="translate(58,36)"/>
<path d="M0,0 L3,1 L0,4 L-1,1 Z " fill="#302519" transform="translate(86,30)"/>
<path d="M0,0 L3,0 L2,4 L0,4 Z " fill="#3C3842" transform="translate(100,28)"/>
<path d="M0,0 L2,0 L3,3 L-1,4 Z " fill="#494A59" transform="translate(120,20)"/>
<path d="M0,0 L3,1 L1,4 L-1,4 Z " fill="#180D0D" transform="translate(22,22)"/>
<path d="M0,0 L4,1 L0,3 Z " fill="#2D262B" transform="translate(101,79)"/>
<path d="M0,0 L3,0 L3,3 L0,3 Z " fill="#574E4A" transform="translate(134,76)"/>
<path d="M0,0 L3,0 L3,3 L-1,1 Z " fill="#7D695F" transform="translate(57,59)"/>
<path d="M0,0 L3,0 L2,4 Z " fill="#0C0403" transform="translate(67,56)"/>
<path d="M0,0 L4,1 L3,3 L0,2 Z " fill="#191114" transform="translate(92,56)"/>
<path d="M0,0 L2,0 L1,4 L-1,4 Z " fill="#B19E96" transform="translate(50,48)"/>
<path d="M0,0 L3,1 L3,3 L-1,3 Z " fill="#79726A" transform="translate(84,48)"/>
<path d="M0,0 L2,1 L1,4 L-3,2 L0,2 Z " fill="#403434" transform="translate(25,42)"/>
<path d="M0,0 L3,2 L3,4 L0,4 Z " fill="#181920" transform="translate(126,38)"/>
<path d="M0,0 L5,1 L1,3 L-2,1 Z " fill="#0A0000" transform="translate(47,31)"/>
<path d="M0,0 L3,2 L3,4 L0,4 Z " fill="#574B4C" transform="translate(136,26)"/>
<path d="M0,0 L2,0 L1,3 L-2,3 L-2,1 Z " fill="#685D62" transform="translate(58,23)"/>
<path d="M0,0 L4,1 L4,3 L0,2 Z " fill="#ACB1BE" transform="translate(109,22)"/>
<path d="M0,0 L3,0 L3,3 L-1,1 Z " fill="#413130" transform="translate(140,22)"/>
<path d="M0,0 L3,1 L3,3 L-1,2 Z " fill="#23171D" transform="translate(107,10)"/>
<path d="M0,0 L3,0 L3,3 L0,2 Z " fill="#747682" transform="translate(132,61)"/>
<path d="M0,0 L4,2 L1,3 Z " fill="#423631" transform="translate(66,58)"/>
<path d="M0,0 L3,0 L3,2 L0,3 Z " fill="#4A352F" transform="translate(55,43)"/>
<path d="M0,0 L1,2 L3,3 L-1,4 Z " fill="#67554C" transform="translate(18,40)"/>
<path d="M0,0 L4,1 L2,3 L0,2 Z " fill="#554D53" transform="translate(132,38)"/>
<path d="M0,0 L3,1 L3,3 L0,4 L-1,2 Z " fill="#2C2F31" transform="translate(117,35)"/>
<path d="M0,0 L3,0 L3,3 L0,2 Z " fill="#988B8F" transform="translate(132,35)"/>
<path d="M0,0 L2,4 L-1,4 Z " fill="#928583" transform="translate(26,27)"/>
<path d="M0,0 L4,1 L1,3 Z " fill="#73717C" transform="translate(104,19)"/>
<path d="M0,0 L2,0 L2,3 L-1,3 Z " fill="#2B1E1C" transform="translate(35,19)"/>
<path d="M0,0 L1,3 L-2,3 Z " fill="#565555" transform="translate(125,69)"/>
<path d="M0,0 L2,1 L2,3 L-1,3 Z " fill="#B39C92" transform="translate(44,48)"/>
<path d="M0,0 L2,1 L1,4 L-1,1 Z " fill="#0D060B" transform="translate(30,5)"/>
<path d="M0,0 L2,1 L2,3 L-1,2 Z " fill="#6D5650" transform="translate(38,46)"/>
<path d="M0,0 L2,1 L2,3 L-1,2 Z " fill="#270F07" transform="translate(64,31)"/>
<path d="M0,0 L2,2 L-1,2 Z " fill="#867C81" transform="translate(76,17)"/>
</svg>
