<?xml version="1.0" encoding="UTF-8"?>
<!-- Generator: visioncortex VTracer 0.6.5 -->
<svg version="1.1" xmlns="http://www.w3.org/2000/svg" width="150" height="85">
<path d="M0,0 L150,0 L150,85 L0,85 Z " fill="#0D1016" transform="translate(0,0)"/>
<path d="M0,0 L40,0 L39,9 L41,10 L41,6 L58,6 L58,9 L51,12 L39,13 L37,20 L43,18 L46,17 L46,14 L51,14 L51,16 L56,17 L57,20 L54,21 L53,25 L41,25 L38,28 L42,30 L42,40 L33,40 L35,48 L35,59 L34,61 L39,59 L40,42 L44,40 L58,40 L59,47 L60,47 L61,53 L57,63 L55,63 L54,60 L53,65 L53,68 L62,70 L63,75 L61,78 L53,78 L50,79 L49,85 L0,85 Z " fill="#283843" transform="translate(0,0)"/>
<path d="M0,0 L5,0 L8,4 L9,9 L7,12 L11,14 L16,19 L17,24 L8,25 L7,27 L8,34 L10,34 L11,42 L9,49 L20,49 L24,56 L29,59 L29,61 L23,62 L18,58 L15,57 L19,64 L24,68 L23,69 L25,70 L25,72 L-23,72 L-23,49 L-8,48 L-8,39 L-4,38 L-3,47 L-5,47 L-3,50 L-3,56 L2,56 L2,45 L0,44 L0,37 L4,38 L4,35 L-1,33 L-5,29 L-4,23 L-11,22 L-12,27 L-13,28 L-18,28 L-18,21 L-16,21 L-13,12 L-8,10 L-12,9 L-12,3 L-11,1 L-5,1 L-2,2 Z " fill="#3D4C5E" transform="translate(23,13)"/>
<path d="M0,0 L5,0 L5,2 L10,3 L11,6 L8,7 L7,11 L-5,11 L-8,14 L-4,16 L-4,26 L-13,26 L-11,34 L-11,45 L-12,47 L-7,45 L-6,28 L-2,26 L12,26 L13,33 L14,33 L15,39 L11,49 L9,49 L8,46 L7,51 L7,54 L16,56 L17,61 L15,64 L7,64 L4,65 L3,71 L2,69 L-2,67 L-2,65 L-6,62 L-8,56 L-4,57 L0,60 L6,60 L5,58 L0,55 L-3,51 L-3,48 L-10,49 L-14,48 L-14,42 L-13,41 L-13,33 L-15,33 L-16,26 L-26,26 L-26,25 L-16,24 L-15,23 L-6,23 L-9,16 L-16,11 L-16,9 L-11,8 L-9,9 L-9,6 L-3,4 L0,3 Z " fill="#1F2C3C" transform="translate(46,14)"/>
<path d="M0,0 L2,0 L3,9 L1,9 L3,12 L3,18 L8,20 L9,19 L10,10 L14,10 L19,18 L21,22 L21,25 L16,23 L15,20 L13,20 L13,22 L11,22 L12,29 L17,31 L17,34 L-17,34 L-17,11 L-2,10 L-2,1 Z " fill="#4D687F" transform="translate(17,51)"/>
<path d="M0,0 L5,0 L5,8 L3,13 L2,19 L0,19 L0,26 L6,24 L7,20 L14,21 L14,27 L17,30 L22,33 L22,36 L18,35 L18,42 L21,43 L21,54 L19,55 L15,54 L13,45 L15,45 L14,36 L10,37 L10,46 L8,47 L-5,47 L-5,12 L0,12 L-1,4 Z " fill="#243244" transform="translate(5,15)"/>
<path d="M0,0 L5,0 L8,4 L9,9 L8,13 L14,18 L15,23 L9,23 L8,18 L3,20 L2,21 L-4,21 L-5,20 L-13,19 L-13,12 L-8,10 L-12,9 L-12,3 L-11,1 L-5,1 L-2,2 Z " fill="#3E525D" transform="translate(23,13)"/>
<path d="M0,0 L39,0 L39,5 L38,6 L0,6 Z " fill="#32404C" transform="translate(59,0)"/>
<path d="M0,0 L2,0 L3,9 L1,9 L3,12 L2,18 L0,20 L-17,20 L-17,11 L-2,10 L-2,1 Z " fill="#4C6276" transform="translate(17,51)"/>
<path d="M0,0 L1,3 L-2,6 L-11,6 L-11,16 L-3,16 L-3,17 L-10,18 L-14,19 L-14,36 L-16,38 L-20,38 L-20,25 L-21,23 L-21,17 L-13,16 L-13,7 L-16,5 L-15,2 L-10,1 L-1,1 Z " fill="#132031" transform="translate(54,23)"/>
<path d="M0,0 L4,3 L4,9 L-23,9 L-23,1 L-5,1 L-3,3 Z " fill="#516D83" transform="translate(23,76)"/>
<path d="M0,0 L19,0 L19,6 L57,5 L58,0 L60,0 L60,6 L58,7 L18,8 L18,6 L1,6 L1,10 L-2,9 L-1,1 Z " fill="#15232E" transform="translate(40,0)"/>
<path d="M0,0 L11,0 L18,6 L19,11 L13,11 L12,6 L7,8 L6,9 L0,9 L-1,8 L-9,7 L-9,1 L-1,1 Z " fill="#556A7E" transform="translate(19,25)"/>
<path d="M0,0 L9,0 L13,7 L9,11 L2,11 L0,14 L-6,14 L-8,13 L-8,11 L-6,11 L-4,7 L-3,3 L0,3 Z " fill="#1E2429" transform="translate(110,61)"/>
<path d="M0,0 L1,4 L2,8 L9,12 L9,15 L5,14 L5,21 L8,22 L8,33 L6,34 L2,33 L0,24 L2,24 L1,15 L-3,16 L-2,11 L0,11 L-3,2 L0,2 Z " fill="#313F51" transform="translate(18,36)"/>
<path d="M0,0 L5,0 L8,2 L8,4 L22,4 L23,0 L30,1 L31,4 L29,4 L29,6 L21,6 L21,9 L2,9 L2,2 L0,2 Z " fill="#1F2B32" transform="translate(98,76)"/>
<path d="M0,0 L9,3 L10,2 L16,2 L17,7 L15,10 L7,10 L4,11 L3,17 L2,15 L-2,13 L-2,11 L-6,8 L-8,2 L-4,3 L0,6 L6,6 L5,4 L0,1 Z " fill="#272E3A" transform="translate(46,68)"/>
<path d="M0,0 L7,0 L7,2 L11,3 L11,6 L9,6 L9,17 L4,17 L3,15 L-4,14 L-4,9 L2,9 L1,5 L3,2 L0,2 Z " fill="#14212F" transform="translate(4,42)"/>
<path d="M0,0 L14,0 L14,11 L4,11 L0,8 Z " fill="#0D1B27" transform="translate(4,0)"/>
<path d="M0,0 L6,0 L7,7 L8,7 L9,13 L5,23 L3,23 L2,20 L1,25 L1,28 L8,29 L4,30 L3,34 L3,31 L-4,29 L-4,25 L-2,19 L4,17 L4,3 L0,1 Z " fill="#1A2330" transform="translate(52,40)"/>
<path d="M0,0 L7,0 L9,1 L18,1 L18,3 L11,4 L8,9 L-6,9 L-6,7 L-11,5 L-11,4 L-2,3 Z " fill="#070E12" transform="translate(112,71)"/>
<path d="M0,0 L5,0 L5,8 L11,9 L12,12 L11,15 L14,15 L14,19 L19,21 L18,24 L12,23 L10,16 L9,13 L3,15 L1,16 L-5,14 L-5,13 L2,14 L2,10 L0,10 Z " fill="#384D57" transform="translate(19,0)"/>
<path d="M0,0 L18,0 L18,5 L13,10 L9,12 L6,6 L-2,4 Z " fill="#3A3A3A" transform="translate(132,15)"/>
<path d="M0,0 L12,0 L14,4 L14,9 L-3,9 L-3,6 L1,5 Z " fill="#1A262C" transform="translate(80,76)"/>
<path d="M0,0 L5,0 L5,8 L3,13 L2,19 L-1,20 L-2,25 L-5,25 L-5,12 L0,12 L-1,4 Z " fill="#1E2E35" transform="translate(5,15)"/>
<path d="M0,0 L8,0 L10,1 L10,6 L4,11 L2,14 L0,14 L0,12 L-3,12 L-3,5 L-1,4 Z " fill="#303032" transform="translate(116,19)"/>
<path d="M0,0 L5,0 L8,4 L9,9 L8,10 L-2,10 L-3,5 Z " fill="#5C737D" transform="translate(23,13)"/>
<path d="M0,0 L18,0 L18,5 L16,6 L0,5 Z " fill="#6F8BA2" transform="translate(0,63)"/>
<path d="M0,0 L2,1 L0,3 L-1,7 L-4,7 L-4,5 L-9,5 L-9,8 L-13,11 L-18,11 L-17,4 L-16,3 L-4,2 Z " fill="#13212D" transform="translate(55,9)"/>
<path d="M0,0 L8,0 L8,9 L-2,9 L-2,1 Z " fill="#3D4F5F" transform="translate(142,71)"/>
<path d="M0,0 L1,3 L-2,6 L-11,6 L-11,16 L-3,16 L-3,17 L-12,17 L-13,7 L-16,5 L-15,2 L-10,1 L-1,1 Z " fill="#181B29" transform="translate(54,23)"/>
<path d="M0,0 L2,0 L2,2 L6,3 L6,14 L4,15 L0,14 L-2,5 L0,5 Z " fill="#293A4C" transform="translate(20,55)"/>
<path d="M0,0 L2,0 L2,9 L0,10 L-13,10 L-13,4 L-6,4 L-5,7 L0,7 Z " fill="#3B536A" transform="translate(13,52)"/>
<path d="M0,0 L11,0 L11,6 L9,7 L1,7 L-1,4 Z " fill="#30373E" transform="translate(129,61)"/>
<path d="M0,0 L4,2 L9,7 L10,12 L1,13 L0,14 L-8,15 L-10,16 L-8,20 L-11,19 L-12,15 L-11,13 L-2,12 L-2,8 L2,8 L2,11 L8,11 L6,6 L0,1 Z " fill="#394B5E" transform="translate(30,25)"/>
<path d="M0,0 L1,3 L6,2 L6,9 L1,9 L0,7 L-7,6 L-7,1 Z " fill="#07162B" transform="translate(7,50)"/>
<path d="M0,0 L4,3 L4,9 L-6,9 L-7,5 L-5,2 L-2,2 Z " fill="#688398" transform="translate(23,76)"/>
<path d="M0,0 L3,0 L3,3 L-4,6 L-12,6 L-13,2 L-12,1 Z " fill="#3E4C58" transform="translate(55,6)"/>
<path d="M0,0 L8,0 L10,9 L0,6 L-2,1 Z " fill="#4F5E72" transform="translate(22,40)"/>
<path d="M0,0 L4,2 L8,10 L8,13 L3,11 L2,8 L-1,8 L-1,1 Z " fill="#4C5C6F" transform="translate(30,63)"/>
<path d="M0,0 L7,0 L7,4 L4,7 L-5,7 Z M8,0 Z " fill="#010509" transform="translate(113,72)"/>
<path d="M0,0 L18,0 L18,5 L16,6 L15,3 L1,2 L1,4 L8,4 L7,7 L-2,4 Z " fill="#272828" transform="translate(132,15)"/>
<path d="M0,0 L5,0 L7,3 L7,7 L-3,7 L-3,2 Z " fill="#2E2E35" transform="translate(113,62)"/>
<path d="M0,0 L4,0 L4,2 L1,3 L2,7 L-8,7 L-10,2 L-17,2 L-17,1 L-9,1 L-8,2 L-2,2 Z " fill="#4B5C71" transform="translate(27,31)"/>
<path d="M0,0 L6,0 L7,4 L1,11 L-1,11 L-1,2 Z " fill="#3B4148" transform="translate(117,22)"/>
<path d="M0,0 L4,0 L4,14 L0,15 Z " fill="#394753" transform="translate(0,0)"/>
<path d="M0,0 L2,0 L6,6 L6,9 L4,11 L-1,10 L-2,9 L-2,2 L0,2 Z " fill="#3B4F64" transform="translate(30,71)"/>
<path d="M0,0 L8,0 L7,4 L5,7 L-1,7 L-3,3 Z " fill="#597287" transform="translate(21,26)"/>
<path d="M0,0 L1,0 L1,5 L-1,7 L-18,7 L-18,4 L-1,4 Z " fill="#5D798F" transform="translate(18,64)"/>
<path d="M0,0 L4,1 L6,2 L7,7 L12,9 L12,12 L5,12 L3,5 L0,5 L-2,6 Z " fill="#587288" transform="translate(22,73)"/>
<path d="M0,0 L4,1 L8,6 L12,8 L12,10 L6,11 L0,4 Z " fill="#506173" transform="translate(40,64)"/>
<path d="M0,0 L6,1 L7,4 L7,9 L3,8 L-1,7 L-1,1 Z " fill="#465961" transform="translate(14,14)"/>
<path d="M0,0 L6,0 L6,10 L1,8 L0,7 Z " fill="#010713" transform="translate(6,0)"/>
<path d="M0,0 L7,1 L8,4 L6,4 L6,6 L-2,6 L-3,9 L-3,4 L-1,4 Z " fill="#1C272D" transform="translate(121,76)"/>
<path d="M0,0 L9,0 L13,7 L9,11 L2,11 L0,14 L-6,14 L-6,13 L-1,12 L1,9 L10,9 L8,1 L0,3 Z " fill="#161B20" transform="translate(110,61)"/>
<path d="M0,0 L7,5 L8,10 L2,10 L1,5 L-3,4 Z " fill="#4C677D" transform="translate(30,26)"/>
<path d="M0,0 L6,0 L6,9 L0,8 Z " fill="#303E4A" transform="translate(24,0)"/>
<path d="M0,0 L4,0 L3,3 L3,12 L1,12 L1,14 L-4,12 L-7,8 L-2,10 L-1,9 Z " fill="#485C71" transform="translate(27,61)"/>
<path d="M0,0 L1,0 L1,10 L3,10 L3,14 L-13,13 L-13,8 L-10,10 L0,11 Z " fill="#2A4048" transform="translate(18,0)"/>
<path d="M0,0 L11,0 L11,4 L-1,4 Z " fill="#566B7B" transform="translate(106,81)"/>
<path d="M0,0 L4,1 L2,5 L3,11 L-1,10 L-1,6 L-4,6 L-3,1 Z " fill="#2B3E47" transform="translate(34,9)"/>
<path d="M0,0 L7,0 L7,7 L5,7 L5,5 L-2,5 Z " fill="#526A7E" transform="translate(143,72)"/>
<path d="M0,0 L1,2 L3,2 L4,8 L-1,12 L-8,11 L-8,10 L1,9 L1,3 L-9,3 L-9,2 L0,2 Z " fill="#171D24" transform="translate(139,58)"/>
<path d="M0,0 L5,1 L4,6 L3,11 L0,11 Z " fill="#050E1F" transform="translate(0,29)"/>
<path d="M0,0 L7,0 L9,1 L9,4 L-4,4 L-4,2 Z " fill="#0A0B11" transform="translate(53,81)"/>
<path d="M0,0 L7,0 L8,1 L8,8 L-3,10 L-3,7 L5,7 L5,5 L7,5 L4,2 Z " fill="#151F24" transform="translate(122,75)"/>
<path d="M0,0 L5,1 L7,2 L6,7 L-1,7 Z " fill="#79909A" transform="translate(23,15)"/>
<path d="M0,0 L4,1 L8,4 L8,7 L10,8 L8,9 L3,7 L0,2 Z " fill="#1C2939" transform="translate(38,70)"/>
<path d="M0,0 L10,0 L10,5 L4,5 L4,3 L2,3 L2,1 Z " fill="#1C2028" transform="translate(140,80)"/>
<path d="M0,0 L1,0 L2,6 L-2,16 L-4,16 L-3,11 L-1,1 Z " fill="#181825" transform="translate(59,47)"/>
<path d="M0,0 L4,1 L4,9 L0,9 L-1,3 Z " fill="#18283C" transform="translate(21,59)"/>
<path d="M0,0 L4,1 L2,8 L-2,8 L-2,1 Z " fill="#061422" transform="translate(10,45)"/>
<path d="M0,0 L12,0 L12,3 L0,3 Z " fill="#495257" transform="translate(80,71)"/>
<path d="M0,0 L1,0 L1,5 L5,4 L5,0 L12,0 L13,2 L7,1 L6,6 L5,7 L0,7 Z " fill="#364457" transform="translate(5,34)"/>
<path d="M0,0 L9,0 L9,1 L1,1 L1,10 L-1,6 L-1,3 L-11,3 L-11,2 L-1,1 Z " fill="#2A384B" transform="translate(31,37)"/>
<path d="M0,0 L3,0 L2,5 L-2,5 L-3,8 L-7,5 L-7,3 L-2,2 L0,3 Z " fill="#293D46" transform="translate(37,20)"/>
<path d="M0,0 L3,0 L2,7 L-4,7 L-4,3 L-1,2 Z " fill="#1B2937" transform="translate(4,44)"/>
<path d="M0,0 L4,5 L4,9 L-1,8 L-1,1 Z " fill="#6C8091" transform="translate(30,63)"/>
<path d="M0,0 L9,3 L9,7 L1,8 L3,6 L6,6 L5,4 L0,1 Z " fill="#343F4D" transform="translate(46,68)"/>
<path d="M0,0 L10,0 L9,3 L0,3 Z " fill="#464F56" transform="translate(80,76)"/>
<path d="M0,0 L2,1 L2,5 L0,5 L-1,10 L-3,10 L-3,6 L-1,6 L-1,3 L-3,3 L-3,1 Z " fill="#202D3D" transform="translate(16,42)"/>
<path d="M0,0 L9,0 L10,2 L9,4 L13,3 L13,5 L8,5 L7,3 L0,2 Z " fill="#1B3046" transform="translate(0,54)"/>
<path d="M0,0 L4,0 L4,2 L1,3 L2,7 L-1,7 L-1,5 L-6,5 L-5,3 Z " fill="#42576C" transform="translate(27,31)"/>
<path d="M0,0 L3,0 L2,8 L0,8 L-1,4 L-5,3 L-5,1 Z " fill="#263542" transform="translate(5,26)"/>
<path d="M0,0 L7,0 L6,4 L1,5 Z " fill="#3F3F40" transform="translate(141,18)"/>
<path d="M0,0 L7,0 L7,4 L-1,3 Z " fill="#484F56" transform="translate(131,62)"/>
<path d="M0,0 L5,1 L5,5 L0,5 Z " fill="#2E363E" transform="translate(56,70)"/>
<path d="M0,0 L5,1 L2,6 L-1,6 L-1,1 Z " fill="#698293" transform="translate(23,26)"/>
<path d="M0,0 L4,1 L2,2 L5,5 L7,5 L8,8 L4,7 L0,6 Z " fill="#4E6069" transform="translate(13,15)"/>
<path d="M0,0 L4,0 L4,7 L1,7 Z " fill="#2A3845" transform="translate(47,15)"/>
<path d="M0,0 L2,0 L2,9 L-3,9 L-4,7 L0,7 Z " fill="#304358" transform="translate(13,52)"/>
<path d="M0,0 L5,1 L4,5 L0,5 L-1,1 Z " fill="#4C4E54" transform="translate(119,22)"/>
<path d="M0,0 L5,0 L5,2 L2,2 L2,7 L0,7 L-1,9 Z " fill="#1F3039" transform="translate(5,15)"/>
<path d="M0,0 L5,2 L6,6 L2,6 L0,3 Z " fill="#1A2C42" transform="translate(30,74)"/>
<path d="M0,0 L3,2 L12,3 L10,5 L0,5 Z " fill="#23323E" transform="translate(5,8)"/>
<path d="M0,0 L4,0 L3,4 L-4,4 L-4,2 L0,2 Z " fill="#253034" transform="translate(106,70)"/>
<path d="M0,0 L9,0 L11,3 L11,8 L9,4 L8,1 L0,3 Z " fill="#252129" transform="translate(110,61)"/>
<path d="M0,0 L6,0 L8,3 L-1,3 Z " fill="#0C1C1C" transform="translate(67,82)"/>
<path d="M0,0 L1,0 L1,9 L0,12 L-2,12 L-2,6 Z " fill="#263345" transform="translate(34,50)"/>
<path d="M0,0 L3,1 L4,6 L-2,6 L-1,3 L1,4 Z " fill="#455C71" transform="translate(34,30)"/>
<path d="M0,0 L1,0 L1,8 L-2,8 L-2,1 Z " fill="#1C2430" transform="translate(115,23)"/>
<path d="M0,0 L3,0 L5,4 L-2,4 L-2,1 Z " fill="#313439" transform="translate(88,81)"/>
<path d="M0,0 L5,2 L5,4 L-1,5 L-2,2 L0,2 Z " fill="#4B5A6D" transform="translate(47,70)"/>
<path d="M0,0 L3,0 L3,3 L-1,5 L-4,4 L-3,1 Z " fill="#33404E" transform="translate(55,6)"/>
<path d="M0,0 L6,0 L7,3 L0,3 Z " fill="#333E43" transform="translate(122,77)"/>
<path d="M0,0 L4,3 L3,6 L-3,4 Z " fill="#617B92" transform="translate(23,76)"/>
<path d="M0,0 L3,1 L2,7 L-2,8 L-5,6 L1,4 Z " fill="#22282F" transform="translate(60,70)"/>
<path d="M0,0 L5,0 L5,4 L0,4 Z " fill="#3E4248" transform="translate(113,64)"/>
<path d="M0,0 L4,1 L4,6 L2,7 L0,3 Z " fill="#07162B" transform="translate(33,43)"/>
<path d="M0,0 L2,4 L9,6 L9,7 L1,7 L-1,4 Z " fill="#252A31" transform="translate(129,61)"/>
<path d="M0,0 L5,2 L5,5 L0,5 Z " fill="#36474D" transform="translate(0,22)"/>
<path d="M0,0 L3,0 L3,6 L0,6 Z " fill="#5F7A91" transform="translate(0,79)"/>
<path d="M0,0 L3,1 L-2,6 L-4,5 L-3,2 Z " fill="#1B1D26" transform="translate(53,77)"/>
<path d="M0,0 L4,1 L1,2 L0,5 L1,8 L-2,8 L-1,1 Z " fill="#162631" transform="translate(39,12)"/>
<path d="M0,0 L3,1 L3,6 L0,7 Z " fill="#505F6D" transform="translate(0,8)"/>
<path d="M0,0 L2,3 L2,8 L-1,6 L-2,2 L0,2 Z " fill="#1D1D1D" transform="translate(92,77)"/>
<path d="M0,0 L4,1 L6,4 L3,4 L2,6 Z " fill="#18293E" transform="translate(38,70)"/>
<path d="M0,0 L3,0 L4,4 L0,5 Z " fill="#32414D" transform="translate(0,42)"/>
<path d="M0,0 L2,1 L3,6 L0,6 L-2,1 Z " fill="#49586C" transform="translate(22,40)"/>
<path d="M0,0 L6,0 L5,3 L0,3 Z " fill="#576773" transform="translate(46,8)"/>
<path d="M0,0 L5,1 L3,2 L3,5 L0,5 Z " fill="#1D2C35" transform="translate(83,80)"/>
<path d="M0,0 L3,0 L2,4 L-2,4 Z " fill="#30434E" transform="translate(103,81)"/>
<path d="M0,0 L6,1 L6,3 L0,3 Z " fill="#47576A" transform="translate(34,82)"/>
<path d="M0,0 L2,1 L2,5 L-2,5 L-1,1 Z " fill="#131E2E" transform="translate(51,64)"/>
<path d="M0,0 L2,1 L1,6 L-1,6 L-1,1 Z " fill="#0E1D31" transform="translate(23,61)"/>
<path d="M0,0 L1,2 L3,3 L1,5 L-4,4 L0,3 Z " fill="#37485B" transform="translate(36,77)"/>
<path d="M0,0 L2,1 L1,5 L-3,4 Z " fill="#62778A" transform="translate(21,26)"/>
<path d="M0,0 L5,0 L5,3 L1,3 Z " fill="#30353B" transform="translate(87,71)"/>
<path d="M0,0 L2,0 L3,5 L0,5 Z " fill="#6F8192" transform="translate(17,54)"/>
<path d="M0,0 L2,1 L2,5 L-1,5 Z " fill="#020A15" transform="translate(55,11)"/>
<path d="M0,0 L4,0 L4,3 L0,3 Z " fill="#698190" transform="translate(107,82)"/>
<path d="M0,0 L2,1 L2,5 L-1,4 Z " fill="#090909" transform="translate(96,80)"/>
<path d="M0,0 L4,1 L4,4 L0,3 Z " fill="#55687C" transform="translate(30,81)"/>
<path d="M0,0 L5,1 L3,4 L0,3 Z " fill="#2F2F2F" transform="translate(140,23)"/>
<path d="M0,0 L3,0 L2,5 L0,4 Z " fill="#12232C" transform="translate(7,17)"/>
<path d="M0,0 L2,1 L1,5 L1,3 L-3,1 Z " fill="#333C4A" transform="translate(47,80)"/>
<path d="M0,0 L2,1 L1,4 L-4,2 L-2,1 L0,2 Z " fill="#455468" transform="translate(38,74)"/>
<path d="M0,0 L1,2 L0,4 L-3,4 L-3,1 Z " fill="#243240" transform="translate(3,46)"/>
<path d="M0,0 L4,2 L4,3 L-1,3 Z " fill="#3E3F41" transform="translate(89,82)"/>
<path d="M0,0 L3,1 L3,3 L-1,3 Z " fill="#14252B" transform="translate(67,82)"/>
<path d="M0,0 L1,0 L1,5 L-2,6 Z " fill="#122337" transform="translate(12,52)"/>
<path d="M0,0 L1,0 L1,5 L-2,5 Z " fill="#010B18" transform="translate(11,47)"/>
<path d="M0,0 L3,1 L3,4 L0,3 Z " fill="#546F86" transform="translate(32,30)"/>
<path d="M0,0 L3,3 L-1,4 Z " fill="#92AAB1" transform="translate(25,16)"/>
<path d="M0,0 L4,1 L4,3 L0,2 Z " fill="#0C1A2E" transform="translate(41,74)"/>
<path d="M0,0 L4,2 L2,2 L1,4 Z " fill="#22374C" transform="translate(30,74)"/>
<path d="M0,0 L2,0 L2,3 L-2,2 Z " fill="#171D21" transform="translate(100,71)"/>
<path d="M0,0 L3,0 L3,3 L0,3 Z " fill="#3E454E" transform="translate(57,71)"/>
<path d="M0,0 L3,0 L3,3 L0,3 Z " fill="#53657A" transform="translate(44,69)"/>
<path d="M0,0 L3,2 L3,4 L0,4 Z " fill="#192633" transform="translate(54,16)"/>
<path d="M0,0 L3,0 L2,3 L-1,2 Z " fill="#445261" transform="translate(52,8)"/>
<path d="M0,0 L3,0 L3,3 L0,2 Z " fill="#53677B" transform="translate(35,73)"/>
</svg>
