<?xml version="1.0" encoding="UTF-8"?>
<!-- Generator: visioncortex VTracer 0.6.5 -->
<svg version="1.1" xmlns="http://www.w3.org/2000/svg" width="150" height="85">
<path d="M0,0 L150,0 L150,85 L0,85 Z " fill="#5C372B" transform="translate(0,0)"/>
<path d="M0,0 L35,0 L35,85 L-23,85 L-23,80 L-14,80 L-13,76 L-8,74 L-5,74 L-3,70 L5,69 L3,69 L-6,69 L-4,63 L-2,60 L-2,58 L0,58 L0,55 L9,57 L12,48 L13,43 L10,43 L10,41 L8,40 L13,40 L13,37 L9,35 L5,32 L5,25 L10,24 L11,24 L8,22 L6,17 L5,12 L3,13 L0,13 L-9,13 L-10,10 L-7,4 L0,3 Z " fill="#654D4D" transform="translate(115,0)"/>
<path d="M0,0 L13,0 L13,3 L6,4 L5,8 L4,12 L13,13 L14,9 L14,12 L17,12 L19,8 L19,16 L21,18 L22,22 L26,24 L26,33 L25,33 L25,25 L19,25 L18,32 L22,34 L26,37 L26,40 L23,41 L23,43 L26,43 L25,50 L22,57 L16,56 L13,55 L13,58 L11,58 L12,61 L7,69 L18,68 L19,66 L18,70 L10,71 L8,74 L0,76 L-1,80 L-10,80 L-10,85 L-52,85 L-50,79 L-48,72 L-51,73 L-52,75 L-57,75 L-59,71 L-71,70 L-71,73 L-69,73 L-69,78 L-72,77 L-74,73 L-79,72 L-79,68 L-81,67 L-59,67 L-60,58 L-62,58 L-61,48 L-65,48 L-65,44 L-60,44 L-58,40 L-60,40 L-60,30 L-57,30 L-57,40 L-55,39 L-53,30 L-52,30 L-52,43 L-54,47 L-53,56 L-52,60 L-37,63 L-36,67 L-33,66 L-32,64 L-28,63 L-25,60 L-46,60 L-46,56 L-49,56 L-50,44 L-46,45 L-46,48 L-43,49 L-42,53 L-26,54 L-21,60 L-17,62 L-19,67 L-23,69 L-21,72 L-21,76 L-3,76 L-5,70 L-7,70 L-11,64 L-11,62 L-14,61 L-10,60 L-9,55 L-4,50 L-2,50 L-2,47 L5,47 L6,50 L9,50 L9,44 L11,37 L8,37 L8,35 L10,35 L10,33 L5,33 L5,36 L3,36 L4,29 L6,28 L6,25 L0,22 L-1,18 L-2,15 L-2,8 Z " fill="#525161" transform="translate(102,0)"/>
<path d="M0,0 L5,0 L6,12 L10,12 L13,12 L13,21 L15,21 L15,18 L20,18 L20,20 L18,20 L18,22 L21,22 L21,28 L19,35 L16,35 L15,33 L8,32 L8,35 L0,42 L-1,43 L-9,43 L-12,42 L-15,37 L-29,36 L-32,32 L-32,23 L-29,23 L-33,17 L-33,14 L-30,14 L-30,10 L-22,6 L-20,6 L-21,2 L-20,1 Z " fill="#3A1C0D" transform="translate(92,15)"/>
<path d="M0,0 L13,0 L13,3 L6,4 L5,8 L4,12 L13,13 L14,9 L14,12 L17,12 L19,8 L19,16 L21,18 L22,22 L26,24 L26,33 L25,33 L25,25 L19,25 L18,32 L22,34 L26,37 L26,40 L23,41 L23,43 L26,43 L25,50 L22,57 L16,56 L13,55 L13,58 L11,58 L12,61 L6,70 L5,72 L-4,73 L-5,70 L-7,70 L-11,64 L-11,62 L-14,61 L-10,60 L-9,55 L-4,50 L-2,50 L-2,47 L5,47 L6,50 L9,50 L9,44 L11,37 L8,37 L8,35 L10,35 L10,33 L5,33 L5,36 L3,36 L4,29 L6,28 L6,25 L0,22 L-1,18 L-2,15 L-2,8 Z " fill="#6B514A" transform="translate(102,0)"/>
<path d="M0,0 L65,0 L65,6 L64,8 L64,15 L66,20 L66,22 L72,25 L71,29 L69,29 L68,31 L68,27 L62,29 L60,27 L60,15 L55,16 L35,17 L35,21 L27,25 L25,25 L25,29 L23,28 L24,26 L19,25 L19,18 L12,18 L12,7 L10,7 L10,5 L3,6 L2,11 L0,11 Z " fill="#63382A" transform="translate(37,0)"/>
<path d="M0,0 L19,0 L19,11 L21,11 L22,6 L29,5 L29,7 L31,7 L31,18 L38,18 L39,25 L43,26 L41,30 L38,30 L37,34 L35,30 L33,25 L27,22 L25,19 L24,22 L22,22 L21,30 L20,33 L14,34 L14,40 L17,40 L17,44 L11,44 L10,40 L8,40 L8,44 L4,43 L5,35 L6,34 L7,26 L11,21 L13,21 L15,14 L10,17 L4,24 L0,24 Z " fill="#6A4B47" transform="translate(18,0)"/>
<path d="M0,0 L10,0 L12,5 L21,6 L21,4 L28,4 L28,21 L-30,21 L-30,16 L-21,16 L-20,12 L-15,10 L-12,10 L-10,6 L-2,5 Z " fill="#302831" transform="translate(122,64)"/>
<path d="M0,0 L10,0 L16,1 L23,2 L23,6 L28,6 L31,11 L33,12 L33,7 L31,7 L31,4 L43,4 L45,6 L45,9 L50,9 L51,6 L54,6 L53,13 L50,19 L0,19 Z " fill="#3D6477" transform="translate(0,66)"/>
<path d="M0,0 L11,0 L11,26 L16,26 L16,27 L10,27 L10,29 L4,32 L3,35 L5,35 L7,51 L30,51 L30,62 L16,63 L10,63 L10,60 L0,60 Z " fill="#646572" transform="translate(0,0)"/>
<path d="M0,0 L7,0 L7,24 L12,22 L19,14 L22,14 L21,22 L17,23 L15,26 L14,34 L13,35 L12,43 L15,44 L15,49 L20,49 L21,56 L21,62 L19,62 L19,51 L-4,51 L-6,42 L-6,35 L-8,35 L-7,31 L-1,29 L0,26 Z " fill="#584D56" transform="translate(11,0)"/>
<path d="M0,0 L35,0 L35,13 L19,13 L19,22 L21,27 L21,34 L16,36 L13,35 L13,24 L8,22 L6,17 L5,12 L3,13 L0,13 L-9,13 L-10,10 L-7,4 L0,3 Z " fill="#363745" transform="translate(115,0)"/>
<path d="M0,0 L5,1 L6,4 L-1,4 L-1,16 L1,16 L0,20 L-2,22 L-2,20 L-6,20 L-6,24 L-2,24 L-2,32 L-3,34 L-1,34 L0,36 L0,43 L-13,44 L-31,44 L-33,43 L-43,42 L-43,36 L-33,36 L-33,39 L-27,38 L-11,38 L-12,25 L-17,25 L-17,16 L-15,16 L-14,19 L-8,20 L-8,16 L-11,16 L-11,10 L-5,9 L-4,3 L0,2 Z " fill="#3F2935" transform="translate(43,24)"/>
<path d="M0,0 L5,0 L6,3 L8,3 L8,34 L-4,35 L-5,29 L-5,27 L-9,27 L-10,30 L-13,31 L-11,20 L-10,18 L-3,18 L-4,16 L-4,5 L-2,1 Z " fill="#5A4648" transform="translate(142,20)"/>
<path d="M0,0 L5,0 L6,12 L10,12 L13,12 L13,21 L15,21 L15,18 L20,18 L20,20 L18,20 L18,22 L21,22 L21,28 L19,35 L16,35 L15,33 L8,32 L8,35 L1,41 L0,37 L2,33 L2,27 L0,27 L-1,14 L-3,14 L-3,9 L-1,7 L3,6 L3,1 Z " fill="#44250C" transform="translate(92,15)"/>
<path d="M0,0 L3,0 L3,10 L5,9 L7,0 L8,0 L8,13 L6,17 L7,26 L8,30 L18,32 L18,33 L7,34 L5,37 L11,38 L11,42 L8,45 L3,45 L1,41 L-11,40 L-11,43 L-9,43 L-9,48 L-12,47 L-14,43 L-19,42 L-19,38 L-21,37 L1,37 L0,28 L-2,28 L-1,18 L-5,18 L-5,14 L0,14 L2,10 L0,10 Z " fill="#464259" transform="translate(42,30)"/>
<path d="M0,0 L11,0 L11,26 L16,26 L16,27 L10,27 L10,29 L4,32 L3,34 L0,34 Z " fill="#676067" transform="translate(0,0)"/>
<path d="M0,0 L7,0 L7,24 L12,22 L19,14 L22,14 L21,22 L17,23 L15,26 L14,34 L11,41 L9,42 L9,34 L5,32 L5,26 L0,26 Z " fill="#453B42" transform="translate(11,0)"/>
<path d="M0,0 L2,0 L3,5 L7,4 L15,4 L15,18 L8,18 L8,20 L-1,20 L-3,18 L-3,14 L-8,14 L-7,7 L-1,2 Z " fill="#53515E" transform="translate(135,50)"/>
<path d="M0,0 L17,0 L17,8 L12,12 L6,22 L4,24 L0,24 Z " fill="#574E5D" transform="translate(18,0)"/>
<path d="M0,0 L16,0 L23,2 L25,7 L25,10 L15,10 L12,7 L7,7 L4,13 L0,13 L-9,13 L-10,10 L-7,4 L0,3 Z " fill="#474A59" transform="translate(115,0)"/>
<path d="M0,0 L4,1 L4,4 L7,5 L8,9 L24,10 L29,16 L33,18 L31,23 L26,26 L23,26 L22,23 L18,22 L18,20 L22,19 L25,16 L4,16 L4,12 L1,12 Z " fill="#725758" transform="translate(52,44)"/>
<path d="M0,0 L16,0 L17,4 L25,3 L26,7 L21,7 L20,12 L17,14 L12,14 L11,11 L5,11 L4,5 L-2,4 Z " fill="#6D636E" transform="translate(49,63)"/>
<path d="M0,0 L14,0 L15,11 L21,12 L26,12 L27,17 L26,22 L23,25 L19,25 L19,18 L12,18 L12,7 L10,7 L10,5 L3,6 L2,11 L0,11 Z " fill="#563221" transform="translate(37,0)"/>
<path d="M0,0 L12,0 L14,2 L14,5 L19,5 L20,2 L23,2 L22,9 L19,15 L11,15 L10,11 L3,9 L2,8 L2,3 L0,3 Z " fill="#37374E" transform="translate(31,70)"/>
<path d="M0,0 L3,1 L3,4 L7,5 L8,12 L6,12 L6,9 L2,8 L3,20 L6,20 L6,24 L27,24 L26,27 L22,29 L20,28 L19,31 L16,31 L15,27 L3,26 L-1,24 L-3,11 L-1,7 Z " fill="#5A4342" transform="translate(50,36)"/>
<path d="M0,0 L7,0 L7,17 L-7,17 L-6,12 L-3,12 L-3,8 L-7,7 L-8,3 L-7,2 L0,2 Z " fill="#051527" transform="translate(143,68)"/>
<path d="M0,0 L7,0 L7,2 L12,2 L12,6 L9,6 L8,11 L-20,11 L-20,8 L-14,6 L-3,5 L-3,3 L-1,3 Z " fill="#728FAB" transform="translate(128,74)"/>
<path d="M0,0 L5,0 L6,3 L9,4 L10,6 L10,26 L7,26 L6,18 L1,16 L-1,11 L-2,9 L-1,1 Z " fill="#232735" transform="translate(122,6)"/>
<path d="M0,0 L6,0 L6,2 L1,3 L0,5 L-2,5 L-2,7 L-4,8 L-13,9 L-19,10 L-19,13 L-35,13 L-35,8 L-26,8 L-26,6 L-18,4 L-16,5 L-7,5 L-5,1 Z " fill="#1E1427" transform="translate(127,72)"/>
<path d="M0,0 L10,0 L10,6 L9,8 L9,15 L11,20 L11,22 L17,25 L16,29 L14,29 L13,25 L7,26 L6,25 L6,16 L5,14 L0,14 Z " fill="#5A423E" transform="translate(92,0)"/>
<path d="M0,0 L8,2 L11,4 L12,21 L3,19 L3,22 L1,22 L2,15 L4,14 L4,11 L0,8 L-1,3 Z " fill="#906852" transform="translate(104,14)"/>
<path d="M0,0 L1,2 L3,2 L2,7 L-3,8 L-3,11 L-7,11 L-7,13 L-4,14 L-3,21 L-6,22 L-15,21 L-14,15 L-9,10 L-6,10 L-6,7 L-10,6 L-12,10 L-16,13 L-19,12 L-14,7 L-12,7 L-12,4 L-5,4 L-4,7 L-1,7 L-1,1 Z " fill="#614338" transform="translate(112,43)"/>
<path d="M0,0 L5,1 L5,3 L8,3 L7,10 L4,14 L-10,15 L-9,11 L-6,8 L-5,5 L-7,5 L-7,3 L-3,2 L-1,6 Z " fill="#836866" transform="translate(120,40)"/>
<path d="M0,0 L3,0 L3,10 L5,9 L7,0 L8,0 L8,13 L6,17 L5,28 L0,27 L-1,19 L-5,18 L-5,14 L0,14 L2,10 L0,10 Z " fill="#8D6652" transform="translate(42,30)"/>
<path d="M0,0 L5,1 L11,3 L12,9 L6,11 L3,14 L-6,14 L-4,8 L-2,5 L-2,3 L0,3 Z " fill="#61535E" transform="translate(115,55)"/>
<path d="M0,0 L5,0 L6,3 L8,3 L8,16 L-2,16 L-2,1 Z " fill="#16131B" transform="translate(142,20)"/>
<path d="M0,0 L16,0 L16,10 L14,10 L13,8 L6,8 L5,12 L1,12 L-1,9 Z " fill="#384F5E" transform="translate(134,13)"/>
<path d="M0,0 L13,0 L13,9 L7,13 L1,12 L0,11 Z " fill="#6B4633" transform="translate(51,0)"/>
<path d="M0,0 L16,0 L17,1 L18,9 L12,11 L7,10 L6,8 L0,5 Z " fill="#6F798E" transform="translate(11,52)"/>
<path d="M0,0 L10,0 L10,3 L16,2 L16,4 L24,3 L37,3 L38,6 L16,6 L16,8 L0,6 Z " fill="#191720" transform="translate(0,60)"/>
<path d="M0,0 L6,0 L7,5 L9,5 L9,7 L6,7 L7,14 L10,14 L10,18 L4,18 L3,14 L1,14 L1,18 L-3,17 L-2,9 L-1,8 Z " fill="#95755F" transform="translate(25,26)"/>
<path d="M0,0 L6,0 L6,24 L0,24 Z " fill="#37282A" transform="translate(12,0)"/>
<path d="M0,0 L7,1 L7,3 L9,3 L9,16 L7,18 L1,18 L0,17 Z " fill="#6F7481" transform="translate(0,11)"/>
<path d="M0,0 L13,0 L13,3 L6,4 L5,8 L4,12 L11,15 L12,17 L3,15 L2,18 L3,23 L0,22 L-1,18 L-2,15 L-2,8 Z " fill="#70534A" transform="translate(102,0)"/>
<path d="M0,0 L14,0 L14,8 L7,11 L1,11 L0,10 Z " fill="#B6ACC0" transform="translate(19,0)"/>
<path d="M0,0 L2,1 L3,4 L9,7 L12,15 L13,12 L15,12 L18,18 L12,18 L7,14 L4,22 L2,22 L2,12 L-1,12 L-1,10 L6,10 L4,7 L0,6 L0,8 L-3,8 L-3,4 L-1,4 Z " fill="#643F37" transform="translate(43,18)"/>
<path d="M0,0 L13,0 L11,3 L5,5 L1,6 L0,13 L-9,13 L-10,10 L-7,4 L0,3 Z " fill="#513535" transform="translate(115,0)"/>
<path d="M0,0 L1,0 L1,11 L8,11 L9,18 L13,19 L11,23 L8,23 L7,27 L5,23 L3,18 L-3,15 L-5,12 L-6,15 L-8,14 L-6,10 L-1,10 Z " fill="#684338" transform="translate(48,7)"/>
<path d="M0,0 L10,0 L16,2 L16,8 L13,9 L0,9 Z " fill="#3D3B4C" transform="translate(0,66)"/>
<path d="M0,0 L21,2 L21,7 L-3,7 L-1,1 Z " fill="#687389" transform="translate(53,78)"/>
<path d="M0,0 L20,0 L24,1 L24,3 L28,5 L0,5 Z " fill="#282A3A" transform="translate(0,80)"/>
<path d="M0,0 L4,1 L4,4 L6,4 L6,10 L10,12 L13,13 L25,14 L27,16 L4,16 L4,12 L1,12 Z " fill="#8A6356" transform="translate(52,44)"/>
<path d="M0,0 L19,0 L20,3 L12,3 L12,8 L0,8 Z " fill="#928897" transform="translate(80,77)"/>
<path d="M0,0 L11,0 L15,3 L15,7 L9,10 L4,9 L4,5 L-2,4 Z " fill="#A3A1AF" transform="translate(49,63)"/>
<path d="M0,0 L4,2 L3,10 L-1,10 L-4,19 L-10,19 L-7,8 L-2,8 L-1,1 Z " fill="#795C59" transform="translate(43,6)"/>
<path d="M0,0 L2,0 L2,10 L-5,10 L-5,12 L-10,12 L-10,6 L-7,2 Z " fill="#36536F" transform="translate(148,58)"/>
<path d="M0,0 L10,0 L10,13 L0,13 L2,12 L2,10 L4,10 L2,4 L0,4 Z " fill="#6A5556" transform="translate(140,38)"/>
<path d="M0,0 L4,2 L4,22 L6,24 L5,29 L3,28 L2,26 L-1,26 L-1,20 L-4,20 L-4,18 L-2,18 L-1,16 L2,18 L0,3 Z " fill="#785746" transform="translate(114,17)"/>
<path d="M0,0 L10,0 L14,4 L18,6 L18,8 L20,9 L10,9 L10,6 L0,6 Z " fill="#536175" transform="translate(0,54)"/>
<path d="M0,0 L7,0 L7,10 L0,10 L0,7 L-5,7 L-5,3 L0,2 Z " fill="#150B1B" transform="translate(143,68)"/>
<path d="M0,0 L5,2 L9,4 L16,6 L16,10 L5,10 L2,8 L2,6 L0,6 Z " fill="#546F86" transform="translate(26,75)"/>
<path d="M0,0 L4,0 L6,8 L11,7 L13,8 L12,12 L10,14 L6,14 L6,17 L3,16 L2,5 L0,5 Z " fill="#512F1D" transform="translate(89,24)"/>
<path d="M0,0 L3,0 L2,8 L-2,9 L-4,12 L-6,12 L-7,17 L-12,17 L-11,12 L-9,12 L-7,8 Z " fill="#2F2129" transform="translate(30,14)"/>
<path d="M0,0 L4,1 L4,3 L-2,4 L5,6 L5,8 L11,8 L10,13 L2,13 L1,9 L-5,6 L-6,2 Z " fill="#31293F" transform="translate(40,72)"/>
<path d="M0,0 L3,0 L6,5 L6,7 L9,8 L-9,8 L-6,7 L-8,1 Z " fill="#542D26" transform="translate(90,68)"/>
<path d="M0,0 L5,0 L5,6 L-8,7 L-20,7 L-22,5 L-3,4 L0,5 L-1,3 L-22,3 L-22,2 Z " fill="#2B263A" transform="translate(38,61)"/>
<path d="M0,0 L6,0 L8,6 L9,13 L0,13 L1,5 L2,3 L0,3 Z " fill="#666879" transform="translate(10,27)"/>
<path d="M0,0 L5,1 L6,4 L-1,4 L-2,18 L-4,17 L-3,12 L-7,12 L-6,16 L-11,16 L-11,10 L-5,9 L-4,3 L0,2 Z " fill="#3F1D15" transform="translate(43,24)"/>
<path d="M0,0 L6,0 L6,2 L1,3 L0,5 L-2,5 L-2,7 L-4,8 L-13,9 L-19,10 L-19,13 L-21,12 L-19,7 L-18,6 L-7,5 L-5,1 Z " fill="#404253" transform="translate(127,72)"/>
<path d="M0,0 L3,1 L3,4 L7,5 L8,12 L6,12 L6,9 L2,8 L3,16 L1,16 L-1,20 L-2,17 L-3,11 L-1,7 Z " fill="#744C3D" transform="translate(50,36)"/>
<path d="M0,0 L1,0 L1,8 L3,10 L4,14 L8,16 L8,25 L7,25 L7,17 L0,15 L0,10 L-6,9 L-10,5 L-5,5 L-4,1 L-4,4 L-1,4 Z " fill="#574443" transform="translate(120,8)"/>
<path d="M0,0 L9,0 L9,10 L0,10 Z " fill="#193247" transform="translate(0,0)"/>
<path d="M0,0 L5,2 L8,3 L9,8 L8,14 L3,14 L2,13 L1,6 L0,5 Z " fill="#1E1E28" transform="translate(122,8)"/>
<path d="M0,0 L1,0 L1,10 L3,10 L2,14 L0,16 L0,14 L-4,14 L-4,18 L0,19 L-5,19 L-5,16 L-13,15 L-12,13 L-6,14 L-5,6 L-1,6 L-1,11 L0,12 Z " fill="#6C4D49" transform="translate(41,30)"/>
<path d="M0,0 L2,0 L3,12 L0,13 L-1,22 L-4,24 L-6,24 L-7,26 L-9,25 L-6,21 L-4,21 L-2,14 L-8,17 L-6,12 L-1,8 Z " fill="#423949" transform="translate(35,0)"/>
<path d="M0,0 L3,0 L2,6 L-13,6 L-13,1 Z " fill="#4D596F" transform="translate(13,74)"/>
<path d="M0,0 L12,0 L12,9 L5,9 L3,6 L2,1 Z " fill="#332B38" transform="translate(138,0)"/>
<path d="M0,0 L10,0 L11,6 L6,6 L1,8 L-3,8 L-3,5 L-1,5 Z " fill="#38384A" transform="translate(70,70)"/>
<path d="M0,0 L1,0 L2,8 L6,9 L6,1 L8,5 L9,11 L19,13 L19,14 L8,15 L6,18 L8,19 L4,19 L3,16 L7,12 L2,13 L1,9 L-1,9 Z " fill="#685356" transform="translate(41,49)"/>
<path d="M0,0 L7,0 L8,5 L7,6 L2,6 L-2,4 L-12,4 L-13,1 Z " fill="#3A1405" transform="translate(88,16)"/>
<path d="M0,0 L2,0 L2,2 L7,2 L7,6 L4,6 L3,11 L-5,11 L-5,6 L0,3 Z " fill="#5E7A97" transform="translate(133,74)"/>
<path d="M0,0 L6,0 L8,4 L10,4 L11,7 L1,8 L0,11 L-3,12 L-1,1 Z " fill="#55362F" transform="translate(132,39)"/>
<path d="M0,0 L4,1 L2,14 L-2,12 L-3,11 L-3,6 L-5,6 L-4,2 Z " fill="#464654" transform="translate(8,29)"/>
<path d="M0,0 L2,4 L18,5 L21,9 L7,9 L0,5 Z " fill="#6F4A38" transform="translate(58,49)"/>
<path d="M0,0 L5,0 L5,3 L1,3 L0,11 L1,12 L8,13 L8,16 L-2,16 L-2,1 Z " fill="#272733" transform="translate(142,20)"/>
<path d="M0,0 L6,1 L7,4 L5,13 L3,14 L0,12 Z " fill="#698196" transform="translate(0,13)"/>
<path d="M0,0 L7,0 L4,7 L3,12 L0,12 L-3,5 L-3,2 Z " fill="#4B7188" transform="translate(135,57)"/>
<path d="M0,0 L2,0 L2,8 L-7,15 L-14,15 L-14,10 L-7,10 L-1,8 Z " fill="#857D8D" transform="translate(33,0)"/>
<path d="M0,0 L6,0 L6,4 L3,6 L-4,7 L-3,4 L-9,4 L-12,5 L-11,9 L-14,9 L-14,4 L-10,2 L0,1 Z " fill="#4E6478" transform="translate(144,54)"/>
<path d="M0,0 L2,0 L3,4 L2,9 L4,9 L4,17 L3,14 L1,14 L1,18 L-3,17 L-2,9 L-1,8 Z " fill="#896A66" transform="translate(25,26)"/>
<path d="M0,0 L7,0 L7,9 L2,10 L0,9 Z " fill="#8B6850" transform="translate(52,0)"/>
<path d="M0,0 L1,3 L0,4 L-8,5 L-10,8 L-18,10 L-20,14 L-21,10 L-22,7 L-13,6 L-12,3 L0,2 Z " fill="#54474F" transform="translate(120,66)"/>
<path d="M0,0 L4,1 L4,4 L0,6 L-2,9 L-4,9 L-6,14 L-9,14 L-9,7 L-3,4 Z " fill="#785F59" transform="translate(102,49)"/>
<path d="M0,0 L5,2 L6,9 L3,10 L-5,9 L-5,7 L-3,6 Z " fill="#583B39" transform="translate(103,55)"/>
<path d="M0,0 L10,1 L11,3 L10,9 L6,9 L5,7 L2,6 Z " fill="#74879E" transform="translate(12,53)"/>
<path d="M0,0 L2,0 L2,3 L7,3 L7,10 L2,12 L-1,11 L-1,8 L1,7 L1,4 L-2,3 Z " fill="#402B30" transform="translate(34,46)"/>
<path d="M0,0 L6,1 L6,8 L5,11 L1,9 L-1,8 L-1,1 Z " fill="#695C5B" transform="translate(121,24)"/>
<path d="M0,0 L1,3 L-1,9 L-7,10 L-8,14 L-8,9 L-5,9 L-5,7 L-7,7 L-8,3 L-6,3 L-6,1 Z " fill="#7B5744" transform="translate(39,24)"/>
<path d="M0,0 L13,0 L14,3 L-12,3 L-11,1 Z " fill="#061124" transform="translate(24,63)"/>
<path d="M0,0 L2,4 L2,11 L-3,13 L-6,12 L-6,4 L-5,4 L-5,9 L-2,9 L-3,4 L-2,2 L0,2 Z " fill="#402F39" transform="translate(134,23)"/>
<path d="M0,0 L13,0 L11,3 L5,5 L1,6 L0,9 L-2,5 L-4,3 L0,3 Z " fill="#3D3B49" transform="translate(115,0)"/>
<path d="M0,0 L7,1 L18,1 L20,3 L20,6 L31,7 L31,8 L21,8 L16,4 L3,3 L0,2 Z " fill="#583427" transform="translate(60,51)"/>
<path d="M0,0 L2,0 L2,24 L1,24 L1,13 L-9,11 L-7,9 L0,10 Z " fill="#514D55" transform="translate(9,0)"/>
<path d="M0,0 L8,0 L7,6 L-2,6 L-4,5 L-4,3 Z " fill="#201720" transform="translate(113,72)"/>
<path d="M0,0 L2,0 L2,4 L5,4 L5,8 L10,9 L10,10 L2,10 L-2,8 L-2,3 Z " fill="#4D2A2A" transform="translate(51,52)"/>
<path d="M0,0 L8,0 L9,7 L9,9 L7,9 L7,11 L5,11 L4,5 L0,4 Z " fill="#A2837B" transform="translate(37,44)"/>
<path d="M0,0 L3,3 L1,13 L5,15 L5,17 L0,16 L-2,13 L-2,4 L1,4 Z " fill="#442513" transform="translate(62,34)"/>
<path d="M0,0 L9,0 L8,3 L4,5 L-6,5 L-6,2 Z " fill="#7895B2" transform="translate(114,80)"/>
<path d="M0,0 L9,0 L9,2 L16,2 L16,4 L-3,4 L-2,1 Z " fill="#7E92AA" transform="translate(56,81)"/>
<path d="M0,0 L5,1 L5,3 L11,4 L9,8 L6,8 L5,12 L3,8 Z " fill="#72534E" transform="translate(50,22)"/>
<path d="M0,0 L3,0 L4,2 L4,9 L-2,11 L-2,1 Z " fill="#422512" transform="translate(59,13)"/>
<path d="M0,0 L3,0 L2,5 L1,6 L-6,6 L-6,4 L-15,3 L-13,1 L-7,1 L-4,2 L0,2 Z " fill="#232133" transform="translate(51,74)"/>
<path d="M0,0 L7,0 L7,6 L6,7 L-1,7 Z " fill="#221C25" transform="translate(123,65)"/>
<path d="M0,0 L9,0 L10,5 L12,6 L12,11 L9,10 L7,6 L2,5 L2,1 Z " fill="#414B5B" transform="translate(21,67)"/>
<path d="M0,0 L13,0 L13,3 L5,5 L0,5 Z " fill="#676876" transform="translate(102,0)"/>
<path d="M0,0 L6,1 L7,8 L-1,8 Z " fill="#868EA1" transform="translate(16,72)"/>
<path d="M0,0 L1,0 L1,8 L-2,15 L-4,16 L-4,8 L-7,7 L-6,4 L-1,4 Z " fill="#533C3F" transform="translate(24,26)"/>
<path d="M0,0 L5,1 L5,4 L0,4 L-1,9 L-6,11 L-8,10 L-8,8 L-5,8 L-5,6 L-3,6 L-1,2 Z " fill="#8A808B" transform="translate(70,66)"/>
<path d="M0,0 L7,0 L11,1 L12,6 L5,6 L0,2 Z " fill="#745C58" transform="translate(94,65)"/>
<path d="M0,0 L10,0 L16,2 L12,4 L0,4 Z " fill="#3C3541" transform="translate(0,66)"/>
<path d="M0,0 L2,0 L3,2 L4,15 L-5,13 L-5,16 L-7,16 L-6,9 L-5,12 L2,12 L0,4 Z " fill="#86624D" transform="translate(112,20)"/>
<path d="M0,0 L1,0 L2,8 L11,7 L12,0 L14,0 L14,8 L7,11 L1,11 L0,10 Z " fill="#A79EAF" transform="translate(19,0)"/>
<path d="M0,0 L5,0 L5,15 L2,15 L1,9 L-2,8 L3,6 L3,1 Z " fill="#422926" transform="translate(92,15)"/>
<path d="M0,0 L11,0 L11,3 L6,3 L5,3 L5,9 L4,5 L-2,4 Z " fill="#8C808C" transform="translate(49,63)"/>
<path d="M0,0 L3,0 L3,2 L13,2 L13,5 L1,6 Z " fill="#41343B" transform="translate(137,49)"/>
<path d="M0,0 L11,1 L11,7 L4,6 L3,3 Z " fill="#4F383F" transform="translate(14,43)"/>
<path d="M0,0 L3,3 L3,5 L9,8 L8,12 L6,12 L5,8 L-1,9 L-2,8 L-2,2 L0,2 Z " fill="#5D4139" transform="translate(100,17)"/>
<path d="M0,0 L19,0 L20,3 L12,3 L12,8 L11,8 L11,2 L1,2 L1,8 L0,8 Z " fill="#897B86" transform="translate(80,77)"/>
<path d="M0,0 L3,0 L4,12 L2,12 L2,14 L0,14 Z " fill="#968E98" transform="translate(0,36)"/>
<path d="M0,0 L3,0 L2,8 L-5,9 L-4,4 Z " fill="#1F1729" transform="translate(30,14)"/>
<path d="M0,0 L10,0 L12,5 L14,7 L15,12 L13,12 L13,10 L11,10 L11,8 L7,7 L8,1 L-1,2 Z " fill="#243647" transform="translate(122,64)"/>
<path d="M0,0 L3,1 L8,7 L2,8 L-3,3 L-4,1 Z " fill="#271109" transform="translate(64,29)"/>
<path d="M0,0 L5,1 L5,18 L0,19 L0,16 L2,16 L2,14 L4,14 L3,2 L0,2 Z " fill="#716E79" transform="translate(0,34)"/>
<path d="M0,0 L4,0 L6,4 L13,5 L13,6 L-5,6 L-5,5 L0,5 Z " fill="#3A1E21" transform="translate(86,70)"/>
<path d="M0,0 L3,0 L6,9 L0,9 L-1,8 Z " fill="#390E07" transform="translate(84,48)"/>
<path d="M0,0 L6,0 L7,2 L12,3 L12,5 L3,5 L-1,3 Z " fill="#444454" transform="translate(54,74)"/>
<path d="M0,0 L4,0 L4,4 L1,7 L-4,7 L-4,2 Z " fill="#55566B" transform="translate(49,68)"/>
<path d="M0,0 L2,0 L3,7 L5,6 L5,10 L-6,9 L-8,9 L-8,6 L-1,5 L1,6 Z " fill="#64545D" transform="translate(18,34)"/>
<path d="M0,0 L4,0 L4,5 L0,6 L0,10 L-8,9 L-7,7 L-1,8 Z " fill="#573632" transform="translate(36,36)"/>
<path d="M0,0 L2,4 L2,6 L-2,6 L-1,10 L-6,10 L-6,4 L0,3 Z " fill="#512F1B" transform="translate(38,30)"/>
<path d="M0,0 L5,0 L6,3 L0,2 L2,8 L3,15 L4,17 L1,16 L-1,11 L-2,9 L-1,1 Z " fill="#382F37" transform="translate(122,6)"/>
<path d="M0,0 L6,0 L6,2 L1,3 L0,5 L-2,5 L-2,7 L-4,8 L-12,8 L-12,7 L-5,6 L-2,1 Z " fill="#596578" transform="translate(127,72)"/>
<path d="M0,0 L7,1 L7,5 L11,6 L7,7 L0,5 Z " fill="#505D6D" transform="translate(16,67)"/>
<path d="M0,0 L10,1 L9,3 L3,3 L3,15 L1,15 Z " fill="#273341" transform="translate(131,10)"/>
<path d="M0,0 L3,0 L3,4 L0,5 L-13,5 L-13,3 L0,3 Z " fill="#414859" transform="translate(13,70)"/>
<path d="M0,0 L3,0 L2,5 L-2,8 L-5,8 L-6,4 L-3,3 Z " fill="#755E62" transform="translate(80,62)"/>
<path d="M0,0 L2,1 L3,9 L2,10 L-3,10 L-2,3 L0,3 Z " fill="#6D798F" transform="translate(26,52)"/>
<path d="M0,0 L4,1 L5,3 L4,7 L-2,7 L-2,2 L0,2 Z " fill="#817C8A" transform="translate(12,33)"/>
<path d="M0,0 L1,0 L2,8 L8,7 L9,8 L9,14 L8,10 L2,12 L0,10 Z " fill="#553526" transform="translate(97,17)"/>
<path d="M0,0 L2,1 L3,4 L8,8 L8,10 L6,10 L4,7 L0,6 L0,8 L-3,8 L-3,4 L-1,4 Z " fill="#4E2D25" transform="translate(43,18)"/>
<path d="M0,0 L1,0 L2,16 L3,21 L5,23 L0,24 Z " fill="#504450" transform="translate(18,0)"/>
<path d="M0,0 L4,0 L4,10 L0,9 Z " fill="#272B34" transform="translate(5,0)"/>
<path d="M0,0 L3,0 L3,2 L10,0 L9,5 L1,5 Z " fill="#5A4447" transform="translate(41,80)"/>
<path d="M0,0 L7,0 L7,3 L0,3 L0,5 L-5,5 L-3,1 Z " fill="#27314B" transform="translate(143,65)"/>
<path d="M0,0 L0,3 L-1,5 L-7,4 L-10,3 L-10,6 L-13,7 L-15,3 L-1,1 Z " fill="#755858" transform="translate(125,52)"/>
<path d="M0,0 L8,0 L12,3 L13,6 L19,7 L19,8 L12,8 L9,7 L6,2 L0,1 Z " fill="#452113" transform="translate(71,50)"/>
<path d="M0,0 L4,0 L5,7 L3,10 L1,9 L0,8 Z " fill="#431C09" transform="translate(90,42)"/>
<path d="M0,0 L3,1 L3,4 L7,5 L8,12 L6,12 L6,9 L1,8 Z " fill="#6E4431" transform="translate(50,36)"/>
<path d="M0,0 L3,0 L3,8 L-2,12 L-7,10 L-5,9 L-1,9 Z " fill="#775947" transform="translate(59,0)"/>
<path d="M0,0 L4,0 L4,15 L-1,14 L-1,12 L1,12 L2,3 L2,1 Z " fill="#88685F" transform="translate(43,43)"/>
<path d="M0,0 L5,1 L5,3 L8,3 L8,7 L5,8 L5,5 L0,5 Z " fill="#977664" transform="translate(120,40)"/>
<path d="M0,0 L4,1 L4,5 L2,5 L1,10 L-3,9 Z " fill="#756772" transform="translate(36,15)"/>
<path d="M0,0 L5,0 L5,6 L4,8 L0,7 Z " fill="#573E39" transform="translate(97,0)"/>
<path d="M0,0 L6,0 L6,4 L-3,4 L-3,1 Z " fill="#67788D" transform="translate(36,81)"/>
<path d="M0,0 L12,0 L12,5 L10,5 L10,3 L3,3 L3,1 Z " fill="#707F93" transform="translate(62,80)"/>
<path d="M0,0 L2,1 L-1,7 L-2,12 L-5,12 L-7,8 L-6,5 L-4,8 L-1,1 Z " fill="#436881" transform="translate(140,57)"/>
<path d="M0,0 L2,0 L3,4 L6,4 L6,8 L0,8 Z " fill="#9A7D76" transform="translate(29,36)"/>
<path d="M0,0 L6,0 L5,5 L0,6 L-1,3 Z " fill="#96755A" transform="translate(106,16)"/>
<path d="M0,0 L13,0 L13,6 L10,3 L3,2 L3,4 L1,3 L2,1 Z " fill="#3F5567" transform="translate(137,16)"/>
<path d="M0,0 L4,1 L4,3 L2,3 L1,7 L-3,7 L-4,3 L-3,1 Z " fill="#191A27" transform="translate(146,22)"/>
<path d="M0,0 L4,0 L4,8 L0,8 Z " fill="#997C63" transform="translate(54,0)"/>
<path d="M0,0 L10,1 L11,3 L9,4 L3,4 L0,2 Z " fill="#8697AD" transform="translate(12,53)"/>
<path d="M0,0 L5,0 L4,5 L3,7 L0,7 Z " fill="#7D615A" transform="translate(93,56)"/>
<path d="M0,0 L7,0 L10,5 L8,5 L7,3 L0,3 L-2,7 L-2,2 L0,2 Z " fill="#314958" transform="translate(140,18)"/>
<path d="M0,0 L6,1 L2,2 L2,7 L5,8 L6,14 L1,9 L-1,3 Z " fill="#88644A" transform="translate(104,14)"/>
<path d="M0,0 L1,2 L11,1 L7,5 L0,5 Z " fill="#716979" transform="translate(19,10)"/>
<path d="M0,0 L10,0 L10,5 L6,4 L6,2 L0,2 Z " fill="#3A160F" transform="translate(40,0)"/>
<path d="M0,0 L11,0 L9,2 L1,5 Z " fill="#212434" transform="translate(115,0)"/>
<path d="M0,0 L7,0 L5,5 L0,5 Z " fill="#4D373F" transform="translate(92,80)"/>
<path d="M0,0 L5,0 L4,5 L-2,5 L-1,1 Z " fill="#364D60" transform="translate(132,80)"/>
<path d="M0,0 L5,0 L4,2 L2,1 L0,5 L-4,8 L-7,7 L-2,2 L0,2 Z " fill="#6B5249" transform="translate(100,48)"/>
<path d="M0,0 L6,0 L3,2 L5,4 L-3,5 L-4,1 Z " fill="#554247" transform="translate(12,42)"/>
<path d="M0,0 L3,0 L3,5 L5,5 L6,1 L5,10 L2,11 L2,1 Z " fill="#6C4334" transform="translate(43,29)"/>
<path d="M0,0 L4,1 L5,4 L4,8 L1,8 Z " fill="#3A272B" transform="translate(110,4)"/>
<path d="M0,0 L3,0 L3,2 L9,2 L9,4 L0,6 Z " fill="#42292A" transform="translate(37,0)"/>
<path d="M0,0 L2,2 L2,7 L-4,7 L-2,2 L0,2 Z " fill="#3E333F" transform="translate(101,78)"/>
<path d="M0,0 L4,1 L6,0 L5,5 L-2,6 L-3,3 L0,3 Z " fill="#492A18" transform="translate(97,27)"/>
<path d="M0,0 L5,1 L4,5 L2,5 L1,9 L-1,1 Z " fill="#748598" transform="translate(2,14)"/>
<path d="M0,0 L10,0 L11,3 L2,3 L-1,1 Z " fill="#100920" transform="translate(27,63)"/>
<path d="M0,0 L13,0 L12,3 L8,5 L6,3 L8,3 L8,1 L0,1 Z " fill="#654B4B" transform="translate(64,60)"/>
<path d="M0,0 L9,0 L9,3 L0,3 Z " fill="#0C0A11" transform="translate(0,60)"/>
<path d="M0,0 L1,0 L1,5 L5,6 L-4,7 L-3,3 Z M5,4 Z " fill="#886B67" transform="translate(114,48)"/>
<path d="M0,0 L5,1 L4,4 L2,4 L1,7 L-3,6 L0,3 Z " fill="#6D5555" transform="translate(133,46)"/>
<path d="M0,0 L8,0 L7,7 L5,7 L5,3 L2,3 L2,1 Z " fill="#77584D" transform="translate(123,40)"/>
<path d="M0,0 L10,0 L8,2 L4,4 L3,6 L0,6 Z " fill="#595E69" transform="translate(0,28)"/>
<path d="M0,0 L8,0 L10,1 L10,3 L1,3 Z " fill="#3B1503" transform="translate(77,27)"/>
<path d="M0,0 L1,3 L-2,12 L-7,11 L-6,8 L-2,7 Z " fill="#64545D" transform="translate(35,15)"/>
<path d="M0,0 L2,0 L3,7 L-5,7 L-4,5 L-1,5 Z " fill="#64859A" transform="translate(20,73)"/>
<path d="M0,0 L2,1 L2,3 L4,3 L3,9 L1,10 L1,4 L-2,4 L-2,2 L0,2 Z " fill="#66402C" transform="translate(112,33)"/>
<path d="M0,0 L1,0 L1,7 L-4,9 L-7,7 L-3,6 Z " fill="#583C3F" transform="translate(135,27)"/>
<path d="M0,0 L4,0 L2,4 L-1,4 L-2,8 L-4,4 L-3,2 L0,3 Z " fill="#654845" transform="translate(57,26)"/>
<path d="M0,0 L7,0 L8,5 L7,6 L2,6 L4,4 L2,2 Z " fill="#361915" transform="translate(88,16)"/>
<path d="M0,0 L7,1 L7,3 L9,3 L9,8 L7,8 L6,4 L0,2 Z " fill="#636C7D" transform="translate(0,11)"/>
<path d="M0,0 L1,0 L1,5 L-6,5 L-6,2 Z " fill="#607793" transform="translate(114,80)"/>
<path d="M0,0 L5,2 L2,3 L2,6 L4,6 L4,10 L1,10 Z " fill="#3D3846" transform="translate(31,51)"/>
<path d="M0,0 L2,1 L3,2 L7,4 L6,5 L-1,5 L-1,3 L-3,3 L-3,1 Z " fill="#856657" transform="translate(116,42)"/>
<path d="M0,0 L4,1 L6,2 L6,5 L0,5 Z " fill="#593A32" transform="translate(122,35)"/>
<path d="M0,0 L3,0 L4,7 L1,9 Z " fill="#6B4839" transform="translate(117,33)"/>
<path d="M0,0 L2,0 L2,7 L-6,8 L-5,6 L0,5 L-1,1 Z " fill="#552A19" transform="translate(72,16)"/>
<path d="M0,0 L7,0 L4,2 L-1,3 L-3,7 L-4,2 Z " fill="#493B43" transform="translate(103,73)"/>
<path d="M0,0 L6,1 L6,4 L0,4 Z " fill="#0D0B14" transform="translate(124,67)"/>
<path d="M0,0 L5,0 L6,4 L10,3 L9,6 L4,5 Z " fill="#725D63" transform="translate(60,63)"/>
<path d="M0,0 L8,0 L8,3 L0,3 Z " fill="#354257" transform="translate(0,54)"/>
<path d="M0,0 L3,1 L1,5 L-4,4 L-4,1 Z " fill="#3B1C04" transform="translate(109,38)"/>
<path d="M0,0 L4,4 L5,8 L-2,8 L-3,6 L2,5 L0,3 Z " fill="#493028" transform="translate(58,30)"/>
<path d="M0,0 L1,0 L1,9 L0,12 L-6,13 L-1,8 Z " fill="#554E5F" transform="translate(35,0)"/>
<path d="M0,0 L5,0 L4,3 L-1,5 L-3,4 L-3,2 L0,2 Z " fill="#7D7683" transform="translate(65,72)"/>
<path d="M0,0 L5,0 L7,3 L-2,3 L-3,5 L-3,1 Z " fill="#472B47" transform="translate(33,67)"/>
<path d="M0,0 L10,0 L16,2 L12,4 L8,3 L8,1 L0,1 Z " fill="#2A2732" transform="translate(0,66)"/>
<path d="M0,0 L5,2 L6,9 L4,9 L2,4 Z " fill="#633D38" transform="translate(103,55)"/>
<path d="M0,0 L6,0 L6,4 L0,4 Z " fill="#5D6373" transform="translate(144,54)"/>
<path d="M0,0 L3,1 L2,15 L0,14 Z " fill="#4C2512" transform="translate(39,27)"/>
<path d="M0,0 L4,0 L4,7 L0,5 Z " fill="#543127" transform="translate(89,24)"/>
<path d="M0,0 L3,1 L4,5 L-1,5 L-3,1 Z " fill="#374756" transform="translate(135,1)"/>
<path d="M0,0 L2,0 L2,9 L-3,10 L-1,7 Z " fill="#24394B" transform="translate(3,0)"/>
<path d="M0,0 L2,0 L2,5 L-3,5 L-3,1 Z " fill="#3B3D4D" transform="translate(78,80)"/>
<path d="M0,0 L4,2 L3,7 L0,6 Z " fill="#5F8498" transform="translate(26,75)"/>
<path d="M0,0 L3,2 L3,5 L-2,5 L-2,1 Z " fill="#060715" transform="translate(140,70)"/>
<path d="M0,0 L6,1 L6,8 L4,9 L2,2 Z " fill="#5B5259" transform="translate(121,24)"/>
<path d="M0,0 L2,0 L2,10 L-1,11 L-4,9 L0,9 Z " fill="#745047" transform="translate(46,7)"/>
<path d="M0,0 L1,0 L1,6 L-1,7 L-3,6 L-3,1 Z " fill="#584952" transform="translate(119,6)"/>
<path d="M0,0 L8,0 L8,3 L1,3 Z " fill="#261D28" transform="translate(142,0)"/>
<path d="M0,0 L3,0 L3,7 L0,7 Z " fill="#C4BACE" transform="translate(28,0)"/>
<path d="M0,0 L4,1 L4,3 L-4,3 L-4,8 L-5,8 L-5,2 L0,2 Z " fill="#847885" transform="translate(96,77)"/>
<path d="M0,0 L1,3 L7,2 L6,4 L-2,5 L-2,2 L0,2 Z " fill="#404052" transform="translate(69,73)"/>
<path d="M0,0 L4,0 L4,2 L8,3 L1,5 L0,1 Z " fill="#4B5A72" transform="translate(140,56)"/>
<path d="M0,0 L1,0 L1,10 L3,10 L3,13 L-2,13 L0,12 Z " fill="#643E2D" transform="translate(41,30)"/>
<path d="M0,0 L1,0 L1,9 L-2,9 L-1,1 Z " fill="#382626" transform="translate(96,21)"/>
<path d="M0,0 L5,0 L1,2 L-1,2 L-2,7 L-4,7 L-4,2 Z " fill="#4F3536" transform="translate(41,4)"/>
<path d="M0,0 L4,2 L1,4 L-1,8 L-2,3 L-4,1 Z " fill="#261C2B" transform="translate(107,76)"/>
<path d="M0,0 L7,0 L7,3 L0,3 Z " fill="#070919" transform="translate(143,75)"/>
<path d="M0,0 L2,0 L2,2 L6,2 L6,4 L0,5 Z " fill="#876D73" transform="translate(115,48)"/>
<path d="M0,0 L1,2 L3,2 L2,7 L-1,8 L-1,1 Z " fill="#6C4F3E" transform="translate(112,43)"/>
<path d="M0,0 L1,0 L1,7 L-4,6 L-5,1 L-4,4 L-1,4 Z " fill="#504148" transform="translate(120,8)"/>
<path d="M0,0 L5,1 L5,3 L9,5 L2,4 Z " fill="#233D52" transform="translate(19,80)"/>
<path d="M0,0 L4,0 L2,4 L-3,5 Z " fill="#7F9BB7" transform="translate(130,75)"/>
<path d="M0,0 L4,0 L4,4 L-1,6 Z " fill="#626777" transform="translate(49,68)"/>
<path d="M0,0 L6,0 L7,3 L0,3 Z " fill="#726367" transform="translate(99,66)"/>
<path d="M0,0 L2,0 L0,4 L-2,4 L-3,8 L-4,6 L-3,1 Z " fill="#3C3949" transform="translate(46,61)"/>
<path d="M0,0 L4,0 L5,5 L0,4 Z " fill="#8B6E67" transform="translate(37,44)"/>
<path d="M0,0 L4,0 L3,5 L0,5 Z " fill="#432317" transform="translate(133,40)"/>
<path d="M0,0 L1,0 L1,11 L-2,13 L-1,8 Z " fill="#7D5D55" transform="translate(25,26)"/>
<path d="M0,0 L7,0 L6,6 L4,6 L4,1 L0,2 Z " fill="#5A352A" transform="translate(42,28)"/>
<path d="M0,0 L3,0 L5,3 L5,6 L8,7 L3,6 L2,1 Z " fill="#31566A" transform="translate(130,63)"/>
<path d="M0,0 L4,1 L4,5 L-2,5 L0,3 Z " fill="#372C3C" transform="translate(39,62)"/>
<path d="M0,0 L2,0 L2,7 L-1,7 Z " fill="#52657D" transform="translate(24,55)"/>
<path d="M0,0 L2,0 L4,4 L0,8 Z " fill="#6C4D52" transform="translate(110,57)"/>
<path d="M0,0 L3,1 L-1,4 L-2,7 L-4,7 L-3,2 Z " fill="#5A4D51" transform="translate(130,53)"/>
<path d="M0,0 L4,0 L4,4 L-1,3 Z " fill="#39232A" transform="translate(21,46)"/>
<path d="M0,0 L2,3 L4,3 L5,6 L-3,6 L0,5 Z " fill="#5B403D" transform="translate(138,40)"/>
<path d="M0,0 L1,3 L-1,8 L-3,9 L-3,1 Z " fill="#664C4C" transform="translate(107,4)"/>
<path d="M0,0 L5,2 L6,5 L1,4 Z " fill="#130F19" transform="translate(122,8)"/>
<path d="M0,0 L5,1 L4,4 L-1,4 Z " fill="#100C12" transform="translate(114,73)"/>
<path d="M0,0 L3,1 L4,6 L1,6 Z " fill="#513B3D" transform="translate(80,69)"/>
<path d="M0,0 L3,1 L3,5 L-3,7 L0,3 Z " fill="#91848F" transform="translate(61,65)"/>
<path d="M0,0 L8,1 L8,5 L7,3 L1,3 Z " fill="#A99BA4" transform="translate(53,64)"/>
<path d="M0,0 L4,0 L4,4 L-1,3 Z " fill="#9395A6" transform="translate(48,64)"/>
<path d="M0,0 L3,2 L-1,6 L-2,2 Z " fill="#49291C" transform="translate(94,50)"/>
<path d="M0,0 L1,3 L6,3 L6,4 L1,4 L1,7 L-1,7 Z " fill="#7D5A3F" transform="translate(106,29)"/>
<path d="M0,0 L7,1 L7,3 L0,3 Z " fill="#9C7D63" transform="translate(107,29)"/>
<path d="M0,0 L3,0 L1,5 L-1,6 L-2,2 Z " fill="#87583E" transform="translate(35,27)"/>
<path d="M0,0 L5,1 L6,5 L3,6 L2,2 Z " fill="#714E32" transform="translate(103,23)"/>
<path d="M0,0 L1,2 L3,2 L2,5 L-3,4 Z " fill="#2F222C" transform="translate(24,21)"/>
<path d="M0,0 L2,0 L2,6 L-1,6 Z " fill="#535867" transform="translate(128,58)"/>
<path d="M0,0 L4,3 L4,5 L-1,4 Z " fill="#553028" transform="translate(103,57)"/>
<path d="M0,0 L2,0 L3,5 L-2,4 L-2,2 L0,2 Z " fill="#876D72" transform="translate(44,53)"/>
<path d="M0,0 L1,2 L-4,2 L-4,5 L-7,6 L-6,2 Z " fill="#4C2E1C" transform="translate(104,45)"/>
<path d="M0,0 L3,1 L2,5 L0,8 Z " fill="#3B1603" transform="translate(90,42)"/>
<path d="M0,0 L2,0 L5,6 L-1,6 L1,5 Z " fill="#553836" transform="translate(56,30)"/>
<path d="M0,0 L2,0 L3,7 L0,7 Z " fill="#2B242B" transform="translate(129,25)"/>
<path d="M0,0 L2,1 L3,5 L-3,4 L-1,3 Z " fill="#977457" transform="translate(111,25)"/>
<path d="M0,0 L8,0 L8,1 L-2,3 Z " fill="#3C323C" transform="translate(112,70)"/>
<path d="M0,0 L5,1 L4,4 L0,4 Z " fill="#482019" transform="translate(51,55)"/>
<path d="M0,0 L3,1 L3,5 L0,6 Z " fill="#86553C" transform="translate(52,44)"/>
<path d="M0,0 L1,3 L3,4 L0,8 L-1,1 Z " fill="#835B48" transform="translate(47,39)"/>
<path d="M0,0 L3,1 L3,6 L0,5 Z " fill="#7E6F7A" transform="translate(16,34)"/>
<path d="M0,0 L3,0 L3,2 L1,2 L0,8 L-1,8 L-1,1 Z " fill="#383947" transform="translate(9,30)"/>
<path d="M0,0 L3,3 L3,7 L0,7 Z " fill="#684837" transform="translate(100,17)"/>
<path d="M0,0 L4,0 L4,3 L-1,3 Z " fill="#81879A" transform="translate(37,82)"/>
<path d="M0,0 L2,0 L1,5 L-1,5 L-2,1 Z " fill="#605058" transform="translate(49,80)"/>
<path d="M0,0 L5,0 L3,3 L1,3 L0,5 Z " fill="#61535B" transform="translate(92,80)"/>
<path d="M0,0 L4,2 L6,6 L3,5 L3,3 L1,3 Z " fill="#704E48" transform="translate(94,67)"/>
<path d="M0,0 L6,0 L6,2 L0,3 Z " fill="#515B66" transform="translate(10,60)"/>
<path d="M0,0 L1,2 L3,3 L2,6 L-1,7 Z " fill="#5B403C" transform="translate(130,44)"/>
<path d="M0,0 L1,0 L1,6 L-4,7 L-4,5 L-1,3 Z " fill="#58454B" transform="translate(39,8)"/>
<path d="M0,0 L3,0 L2,6 L0,5 Z " fill="#896A67" transform="translate(43,8)"/>
<path d="M0,0 L5,2 L5,4 L0,3 Z " fill="#4E5D73" transform="translate(30,77)"/>
<path d="M0,0 L2,0 L2,2 L4,2 L5,5 L0,4 Z " fill="#533437" transform="translate(38,56)"/>
<path d="M0,0 L2,3 L1,7 L-1,7 Z " fill="#92684F" transform="translate(55,45)"/>
<path d="M0,0 L3,1 L3,5 L0,4 Z " fill="#201012" transform="translate(21,25)"/>
<path d="M0,0 L3,0 L3,3 L-1,4 Z " fill="#0D0E20" transform="translate(51,74)"/>
<path d="M0,0 L4,1 L4,3 L6,4 L1,3 Z " fill="#472925" transform="translate(90,71)"/>
<path d="M0,0 L4,0 L4,3 L0,3 Z " fill="#998A95" transform="translate(70,66)"/>
<path d="M0,0 L1,0 L1,6 L-2,8 L-1,4 Z " fill="#4F2C0F" transform="translate(112,37)"/>
<path d="M0,0 L3,2 L1,6 L0,6 Z " fill="#543121" transform="translate(118,36)"/>
<path d="M0,0 L4,0 L4,3 L0,3 Z " fill="#775241" transform="translate(36,36)"/>
<path d="M0,0 L4,1 L5,3 L0,3 Z " fill="#9493A3" transform="translate(12,33)"/>
<path d="M0,0 L1,0 L1,5 L-2,5 L-1,1 Z " fill="#373A47" transform="translate(5,30)"/>
<path d="M0,0 L2,1 L0,4 L-3,4 L-3,1 Z " fill="#4E4E59" transform="translate(3,30)"/>
<path d="M0,0 L5,1 L3,2 L2,5 Z " fill="#744C42" transform="translate(50,22)"/>
<path d="M0,0 L2,1 L3,5 L-1,4 Z " fill="#583730" transform="translate(43,18)"/>
<path d="M0,0 L2,1 L2,3 L4,4 L0,5 Z " fill="#552A19" transform="translate(50,12)"/>
<path d="M0,0 L1,0 L1,5 L-2,5 Z " fill="#271723" transform="translate(99,80)"/>
<path d="M0,0 L3,3 L2,5 L-2,2 Z " fill="#49687C" transform="translate(27,72)"/>
<path d="M0,0 L4,0 L3,3 L0,3 Z " fill="#8D706B" transform="translate(94,56)"/>
<path d="M0,0 L2,1 L3,4 L-1,4 Z " fill="#866355" transform="translate(111,51)"/>
<path d="M0,0 L2,0 L1,4 L-2,3 Z " fill="#311C26" transform="translate(34,46)"/>
<path d="M0,0 L2,0 L4,4 L0,4 Z " fill="#472817" transform="translate(33,36)"/>
<path d="M0,0 L4,1 L4,3 L0,3 Z " fill="#482A1E" transform="translate(123,36)"/>
<path d="M0,0 L2,0 L2,4 L-2,2 Z " fill="#8C6954" transform="translate(114,31)"/>
<path d="M0,0 L2,4 L2,6 L0,6 L0,4 L-2,3 L0,3 Z " fill="#5D351F" transform="translate(38,30)"/>
<path d="M0,0 L1,0 L1,5 L-1,6 L-2,2 L0,2 Z " fill="#3D3842" transform="translate(134,23)"/>
<path d="M0,0 L5,0 L6,3 L0,1 Z " fill="#3A3543" transform="translate(122,6)"/>
<path d="M0,0 L3,0 L2,4 L0,4 Z " fill="#473136" transform="translate(99,0)"/>
<path d="M0,0 L3,0 L3,3 L-1,2 Z " fill="#351313" transform="translate(88,72)"/>
<path d="M0,0 L4,0 L3,4 Z " fill="#5B372B" transform="translate(76,54)"/>
<path d="M0,0 L5,0 L2,3 L0,2 Z " fill="#8A92A5" transform="translate(12,53)"/>
<path d="M0,0 L3,0 L3,3 L0,4 Z " fill="#91726D" transform="translate(125,44)"/>
<path d="M0,0 L2,0 L2,4 L-1,3 Z " fill="#563735" transform="translate(91,24)"/>
<path d="M0,0 L3,0 L4,3 L0,3 Z " fill="#444B5C" transform="translate(130,3)"/>
<path d="M0,0 L3,0 L3,2 L-1,3 Z " fill="#8896AD" transform="translate(117,80)"/>
<path d="M0,0 L3,0 L3,3 L0,3 Z " fill="#9EA5B8" transform="translate(17,75)"/>
<path d="M0,0 L4,0 L3,3 L1,3 Z " fill="#816C76" transform="translate(74,66)"/>
<path d="M0,0 L5,2 L5,3 L0,3 Z " fill="#5C535D" transform="translate(133,52)"/>
<path d="M0,0 L1,4 L-2,4 Z " fill="#341618" transform="translate(39,49)"/>
<path d="M0,0 L2,0 L3,3 L0,4 Z " fill="#967776" transform="translate(115,48)"/>
<path d="M0,0 L2,0 L2,3 L-2,2 Z " fill="#765A57" transform="translate(123,45)"/>
<path d="M0,0 L3,0 L3,3 L0,3 Z " fill="#372012" transform="translate(94,27)"/>
<path d="M0,0 L2,3 L2,5 L-1,5 Z " fill="#544448" transform="translate(122,19)"/>
<path d="M0,0 L2,0 L2,5 L-1,1 Z " fill="#624536" transform="translate(54,20)"/>
<path d="M0,0 L4,0 L4,3 L0,1 Z " fill="#260907" transform="translate(46,0)"/>
<path d="M0,0 L3,1 L3,3 L0,3 Z " fill="#7C6B77" transform="translate(97,77)"/>
<path d="M0,0 L2,0 L1,3 L-3,1 Z " fill="#47383E" transform="translate(46,61)"/>
<path d="M0,0 L3,2 L3,4 L0,3 Z " fill="#6B4132" transform="translate(48,46)"/>
<path d="M0,0 L4,1 L1,3 Z " fill="#633929" transform="translate(50,18)"/>
<path d="M0,0 L2,0 L2,3 L-1,3 Z " fill="#5C535D" transform="translate(118,8)"/>
<path d="M0,0 L3,1 L3,3 L0,3 Z " fill="#251820" transform="translate(111,4)"/>
<path d="M0,0 L2,0 L1,3 L-1,3 Z " fill="#6686A1" transform="translate(137,77)"/>
<path d="M0,0 L2,0 L1,3 L-1,3 Z " fill="#7594B3" transform="translate(135,76)"/>
<path d="M0,0 L2,0 L0,4 L-1,1 Z " fill="#87696A" transform="translate(80,62)"/>
<path d="M0,0 L3,1 L3,3 L0,2 Z " fill="#886A65" transform="translate(102,49)"/>
<path d="M0,0 L2,0 L1,3 L-1,1 Z " fill="#3A5B76" transform="translate(137,17)"/>
</svg>
