<?xml version="1.0" encoding="UTF-8"?>
<!-- Generator: visioncortex VTracer 0.6.5 -->
<svg version="1.1" xmlns="http://www.w3.org/2000/svg" width="100" height="87">
<path d="M0,0 L40,0 L41,5 L46,6 L46,8 L49,9 L54,14 L56,18 L58,19 L59,23 L61,24 L63,34 L65,36 L65,51 L63,51 L61,60 L57,68 L56,71 L54,71 L54,73 L51,76 L42,76 L37,72 L36,84 L31,86 L30,83 L26,84 L26,86 L23,85 L23,83 L21,83 L20,86 L8,86 L5,83 L5,75 L0,76 L-11,76 L-11,73 L-14,73 L-16,67 L-18,67 L-19,60 L-21,58 L-21,50 L-24,50 L-24,35 L-21,35 L-21,25 L-18,24 L-16,18 L-13,15 L-12,12 L-8,12 L-8,9 L-5,8 L-4,5 L0,5 Z " fill="#E8D7EB" transform="translate(28,0)"/>
<path d="M0,0 L7,6 L8,9 L10,10 L11,14 L13,15 L15,25 L17,27 L17,42 L15,42 L13,51 L9,59 L8,62 L6,62 L6,64 L3,67 L-6,67 L-11,63 L-12,75 L-17,77 L-18,74 L-22,75 L-22,77 L-25,76 L-25,74 L-27,74 L-28,77 L-37,77 L-38,71 L-34,68 L-31,70 L-21,69 L-21,67 L-17,68 L-17,71 L-15,71 L-15,62 L-18,62 L-19,58 L-21,64 L-26,64 L-26,60 L-29,60 L-29,64 L-34,64 L-35,63 L-35,57 L-32,57 L-32,54 L-30,53 L-29,49 L-26,49 L-26,54 L-23,54 L-23,56 L-19,55 L-18,53 L-18,55 L-14,55 L-14,53 L-17,53 L-18,49 L-20,48 L-20,43 L-17,43 L-17,40 L-14,40 L-14,37 L-5,37 L-5,39 L-2,39 L-2,42 L1,42 L1,50 L-2,50 L-2,53 L-5,53 L-5,56 L-14,56 L-14,58 L-6,58 L-6,61 L-2,61 L-2,64 L1,64 L1,61 L4,60 L5,57 L1,56 L1,53 L5,54 L5,56 L8,53 L5,53 L3,44 L4,40 L1,40 L1,37 L-1,37 L-1,35 L1,34 L4,24 L5,23 L6,11 L4,11 L1,6 L-2,2 L0,2 Z " fill="#794DC2" transform="translate(76,9)"/>
<path d="M0,0 L40,0 L41,5 L46,6 L46,8 L48,9 L44,10 L34,6 L15,5 L9,5 L7,7 L0,9 L-4,11 L-7,14 L-9,14 L-10,20 L-11,23 L-13,23 L-13,28 L-15,29 L-16,35 L-14,35 L-13,39 L-11,39 L-11,45 L-14,45 L-11,55 L-11,59 L-13,59 L-14,63 L-15,65 L-13,65 L-12,62 L-9,62 L-9,66 L-11,66 L-11,69 L-8,69 L-7,71 L-6,70 L-1,70 L0,67 L8,67 L8,65 L-2,65 L-2,62 L-5,62 L-5,59 L-8,59 L-8,51 L-5,51 L-5,48 L-2,48 L-2,46 L7,46 L7,48 L10,48 L10,51 L13,51 L13,57 L10,57 L10,62 L8,63 L11,65 L11,70 L8,70 L8,85 L5,83 L5,75 L0,76 L-11,76 L-11,73 L-14,73 L-16,67 L-18,67 L-19,60 L-21,58 L-21,50 L-24,50 L-24,35 L-21,35 L-21,25 L-18,24 L-16,18 L-13,15 L-12,12 L-8,12 L-8,9 L-5,8 L-4,5 L0,5 Z " fill="#B5603F" transform="translate(28,0)"/>
<path d="M0,0 L12,0 L17,1 L17,4 L22,5 L22,7 L24,7 L25,10 L27,11 L28,14 L31,15 L31,20 L26,20 L26,27 L25,30 L22,33 L19,33 L19,35 L16,38 L13,39 L5,39 L4,36 L1,36 L-3,31 L-6,29 L-7,21 L-11,20 L-11,15 L-7,14 L-7,11 L-4,11 L-4,6 L3,2 Z " fill="#CC46E9" transform="translate(39,4)"/>
<path d="M0,0 L7,2 L3,4 L-1,6 L-1,11 L-4,11 L-4,14 L-8,15 L-8,20 L-3,21 L-2,29 L1,31 L1,33 L4,34 L4,36 L7,36 L8,38 L19,38 L20,35 L22,35 L22,33 L25,33 L26,30 L28,30 L29,20 L34,20 L34,15 L30,14 L30,11 L27,10 L27,7 L25,7 L24,5 L20,4 L20,1 L26,1 L36,5 L33,7 L32,10 L34,10 L37,14 L37,19 L40,20 L39,25 L36,25 L35,35 L29,36 L29,39 L25,39 L24,42 L22,43 L4,43 L1,41 L1,39 L-3,39 L-4,37 L-7,36 L-7,32 L-10,31 L-10,25 L-13,25 L-14,21 L-11,20 L-11,14 L-10,12 L-8,12 L-6,8 L-4,3 L-1,2 Z " fill="#49C3D4" transform="translate(36,4)"/>
<path d="M0,0 L7,6 L8,9 L10,10 L11,14 L13,15 L15,25 L17,27 L17,42 L15,42 L13,51 L10,56 L7,55 L8,53 L5,53 L3,44 L4,40 L1,40 L1,37 L-1,37 L-1,35 L1,34 L4,24 L5,23 L6,11 L4,11 L1,6 L-2,2 L0,2 Z " fill="#BE5E37" transform="translate(76,9)"/>
<path d="M0,0 L4,0 L2,6 L0,9 L-2,9 L-3,17 L-5,19 L-5,22 L-2,22 L-1,28 L1,29 L2,36 L-5,36 L-5,39 L-8,39 L-8,42 L-11,42 L-11,48 L-13,46 L-14,38 L-11,38 L-11,32 L-13,32 L-14,28 L-16,28 L-16,22 L-13,21 L-13,16 L-11,16 L-9,7 L-5,6 L-3,2 L0,2 Z " fill="#D192E2" transform="translate(28,7)"/>
<path d="M0,0 L9,0 L9,2 L12,2 L12,5 L15,5 L15,11 L12,11 L12,16 L9,16 L9,19 L0,19 L0,16 L-3,16 L-3,13 L-6,13 L-6,5 L-3,5 L-3,2 L0,2 Z " fill="#160D16" transform="translate(26,46)"/>
<path d="M0,0 L9,0 L9,2 L12,2 L12,5 L15,5 L15,13 L12,13 L12,16 L9,16 L9,19 L1,19 L0,16 L-3,16 L-4,12 L-6,11 L-6,6 L-3,6 L-3,3 L0,3 Z " fill="#170E17" transform="translate(62,46)"/>
<path d="M0,0 L3,2 L2,4 L4,4 L5,1 L8,1 L8,5 L6,5 L6,8 L9,8 L10,10 L11,9 L16,9 L17,6 L25,6 L24,2 L28,4 L28,9 L25,9 L25,24 L22,22 L22,14 L17,15 L6,15 L6,12 L3,12 L1,6 L-1,6 L-2,3 Z " fill="#A75FDC" transform="translate(11,61)"/>
<path d="M0,0 L4,0 L2,6 L0,9 L-2,9 L-2,11 L-5,11 L-6,16 L-8,22 L-10,22 L-10,24 L-5,24 L-4,29 L-6,29 L-6,33 L-9,33 L-9,30 L-11,30 L-11,25 L-13,25 L-13,16 L-11,16 L-9,7 L-5,6 L-3,2 L0,2 Z " fill="#E7C9EB" transform="translate(28,7)"/>
<path d="M0,0 L3,0 L3,2 L7,0 L8,3 L6,3 L6,6 L3,6 L3,11 L19,11 L19,5 L22,6 L22,12 L19,13 L18,16 L17,15 L6,14 L6,16 L3,16 L3,13 L0,13 L-1,7 L-3,9 L-4,16 L-5,16 L-6,7 L-2,3 L0,3 Z " fill="#C7B2CF" transform="translate(38,17)"/>
<path d="M0,0 L2,0 L2,4 L6,8 L6,11 L8,11 L8,15 L5,15 L5,10 L3,10 L3,20 L5,20 L5,22 L1,24 L1,28 L3,29 L2,31 L0,31 L0,28 L-3,28 L-3,22 L-2,20 L1,20 L1,15 L-1,14 L-3,8 L-4,5 L-6,5 L-5,1 Z " fill="#E0B4E8" transform="translate(74,9)"/>
<path d="M0,0 L4,1 L4,4 L6,4 L6,10 L3,9 L3,7 L-1,8 L-1,10 L-4,9 L-4,7 L-6,7 L-7,10 L-16,10 L-17,4 L-13,1 L-10,3 L0,2 Z " fill="#B9B0C0" transform="translate(55,76)"/>
<path d="M0,0 L3,0 L3,5 L6,5 L6,8 L8,8 L8,15 L3,15 L3,11 L0,11 L0,15 L-5,15 L-6,14 L-6,8 L-3,8 L-3,5 L-1,4 Z " fill="#201321" transform="translate(47,58)"/>
<path d="M0,0 L5,0 L6,3 L8,3 L8,6 L11,6 L11,11 L-5,11 L-5,6 L-2,6 L-2,3 L0,3 Z " fill="#1D111E" transform="translate(46,17)"/>
<path d="M0,0 L1,3 L5,3 L5,6 L8,6 L8,9 L18,9 L18,11 L10,12 L9,14 L4,14 L3,16 L2,13 L-1,13 L-1,10 L1,10 L1,6 L-2,7 L-3,9 L-5,9 L-3,3 L-1,3 Z " fill="#ECDAED" transform="translate(18,56)"/>
<path d="M0,0 L11,0 L10,3 L10,1 L1,1 L1,4 L-2,4 L-2,7 L-5,7 L-5,12 L-2,13 L-2,17 L1,17 L1,19 L-8,20 L-8,18 L-11,18 L-11,13 L-14,12 L-11,12 L-11,10 L-6,9 L-6,6 L-3,6 L-3,3 L0,3 Z " fill="#9F88B8" transform="translate(61,45)"/>
<path d="M0,0 L3,1 L3,16 L1,16 L-1,25 L-4,30 L-7,29 L-5,23 L-3,23 L-3,12 L0,12 Z " fill="#DFAE4F" transform="translate(90,35)"/>
<path d="M0,0 L2,1 L2,5 L5,5 L5,14 L3,14 L2,11 L-1,10 L-1,12 L-7,13 L-10,8 L-9,3 L-6,3 L-6,7 L-1,6 Z " fill="#EAD1ED" transform="translate(56,66)"/>
<path d="M0,0 L2,0 L3,4 L5,4 L5,10 L2,10 L5,20 L5,24 L3,24 L3,27 L0,27 L0,15 L-2,7 Z " fill="#603758" transform="translate(12,35)"/>
<path d="M0,0 L1,2 L6,2 L5,5 L8,6 L7,22 L4,23 L4,9 L1,9 L0,5 L-1,10 L-2,10 L-2,4 L-4,3 L0,2 Z " fill="#9B56CE" transform="translate(57,62)"/>
<path d="M0,0 L2,0 L2,4 L4,4 L4,9 L6,9 L7,16 L9,16 L9,18 L7,18 L7,21 L4,21 L4,27 L2,25 L1,17 L4,17 L4,11 L2,11 L1,7 L-1,7 L-1,1 Z " fill="#A259D7" transform="translate(13,28)"/>
<path d="M0,0 L3,2 L2,4 L4,4 L5,1 L8,1 L8,5 L6,5 L6,8 L9,8 L11,12 L8,15 L6,15 L6,12 L3,12 L1,6 L-1,6 L-2,3 Z " fill="#AB55D7" transform="translate(11,61)"/>
<path d="M0,0 L3,2 L2,7 L0,7 L0,11 L-2,11 L-2,17 L1,18 L0,25 L-2,25 L-2,21 L-5,21 L-5,18 L-7,18 L-7,16 L-5,15 L-2,5 Z " fill="#9B57D5" transform="translate(82,28)"/>
<path d="M0,0 L7,0 L6,5 L-1,7 L-5,9 L-8,12 L-13,13 L-13,10 L-9,10 L-9,7 L-6,6 L-5,3 L-1,2 Z " fill="#CD9F6C" transform="translate(29,2)"/>
<path d="M0,0 L4,2 L4,7 L1,7 L1,22 L-2,20 L-2,10 L-5,6 L-5,4 L1,4 Z " fill="#A75BDD" transform="translate(35,63)"/>
<path d="M0,0 L2,0 L2,5 L5,5 L5,13 L3,18 L-2,18 L-3,13 L2,12 L2,10 L0,10 Z " fill="#EACDEE" transform="translate(77,19)"/>
<path d="M0,0 L3,1 L3,12 L6,13 L6,21 L4,24 L3,23 L3,15 L0,15 Z " fill="#E1B653" transform="translate(4,35)"/>
<path d="M0,0 L4,2 L4,6 L6,6 L7,8 L7,15 L9,15 L9,17 L5,19 L5,23 L7,24 L6,26 L4,26 L4,23 L1,23 L1,17 L2,15 L5,15 L5,10 L3,9 L1,3 Z " fill="#B060D9" transform="translate(70,14)"/>
<path d="M0,0 L2,4 L3,5 L3,11 L5,12 L3,12 L3,15 L-2,15 L-6,11 L-3,11 L-3,6 L0,6 Z " fill="#D2B0DC" transform="translate(41,51)"/>
<path d="M0,0 L3,0 L3,3 L5,3 L6,0 L8,1 L6,7 L4,7 L4,9 L6,9 L5,12 L5,10 L3,10 L3,6 L-4,6 L-4,2 L0,2 Z " fill="#DEA8E7" transform="translate(71,37)"/>
<path d="M0,0 L4,1 L4,3 L9,3 L7,9 L5,9 L5,11 L2,14 L0,14 L0,8 L3,7 L4,4 L0,3 Z " fill="#9A71B8" transform="translate(77,62)"/>
<path d="M0,0 L3,0 L3,5 L6,5 L4,10 L2,10 L3,16 L0,16 Z " fill="#DDA6E7" transform="translate(36,70)"/>
<path d="M0,0 L4,0 L2,6 L-4,8 L-6,8 L-6,11 L-10,12 L-9,7 L-5,6 L-3,2 L0,2 Z " fill="#B473D2" transform="translate(28,7)"/>
<path d="M0,0 L6,0 L7,3 L12,4 L12,6 L14,7 L10,8 L0,4 Z " fill="#BE7240" transform="translate(62,2)"/>
<path d="M0,0 L2,0 L2,6 L0,8 L0,11 L3,11 L3,18 L1,18 L0,14 L-5,13 L-5,11 L-3,10 Z " fill="#AF58DA" transform="translate(23,18)"/>
<path d="M0,0 L3,0 L4,9 L1,12 L-2,10 L-2,4 L0,4 Z " fill="#542F45" transform="translate(82,35)"/>
<path d="M0,0 L2,0 L2,9 L-2,16 L-5,15 L-3,9 L-1,9 L-1,2 Z " fill="#BC9561" transform="translate(88,49)"/>
<path d="M0,0 L2,0 L3,4 L5,4 L5,10 L-1,9 L-2,7 Z " fill="#60364E" transform="translate(12,35)"/>
<path d="M0,0 L2,0 L2,3 L5,2 L9,3 L9,7 L11,7 L12,10 L10,10 L10,8 L7,8 L7,5 L-4,5 L-4,3 L0,3 Z " fill="#F1E3F1" transform="translate(65,40)"/>
<path d="M0,0 L1,0 L1,14 L-2,14 L-4,5 L-1,5 Z " fill="#62385B" transform="translate(83,48)"/>
<path d="M0,0 L10,0 L9,5 L1,5 Z " fill="#D2A4DC" transform="translate(44,47)"/>
<path d="M0,0 L3,0 L1,7 L-3,9 L-4,16 L-5,16 L-6,7 L-2,3 L0,3 Z " fill="#CF65E4" transform="translate(38,17)"/>
<path d="M0,0 L1,4 L4,4 L5,1 L8,1 L8,5 L11,5 L11,7 L2,8 L0,5 Z " fill="#DDC4E1" transform="translate(51,57)"/>
<path d="M0,0 L11,0 L11,2 L8,3 L7,6 L3,6 L3,2 L0,2 Z " fill="#331D2C" transform="translate(44,31)"/>
<path d="M0,0 L6,0 L6,4 L4,4 L4,8 L1,8 Z " fill="#EED8F0" transform="translate(18,32)"/>
<path d="M0,0 L3,2 L2,7 L0,7 L0,11 L-4,12 L-2,5 Z " fill="#A85ADB" transform="translate(82,28)"/>
<path d="M0,0 L3,1 L-2,6 L-7,7 L-7,4 L-3,4 L-3,1 Z " fill="#D7A95C" transform="translate(23,8)"/>
<path d="M0,0 L3,0 L5,4 L2,7 L0,7 L0,4 L-3,4 L-3,2 Z " fill="#BBAFC2" transform="translate(17,69)"/>
<path d="M0,0 L3,0 L3,3 L7,3 L7,6 L3,7 L1,6 Z " fill="#AB62DD" transform="translate(67,67)"/>
<path d="M0,0 L2,0 L2,2 L-2,2 L-2,4 L0,4 L0,7 L-6,5 L-5,1 Z " fill="#DCBCC7" transform="translate(74,9)"/>
<path d="M0,0 L6,1 L6,6 L1,6 Z " fill="#6C4390" transform="translate(38,80)"/>
<path d="M0,0 L4,1 L4,3 L9,3 L9,5 L4,6 L4,4 L0,3 Z " fill="#AC6ED6" transform="translate(77,62)"/>
<path d="M0,0 L2,0 L2,3 L0,3 L-1,9 L-3,9 L-3,4 L-6,3 L-3,3 L-3,1 Z " fill="#C194CF" transform="translate(53,54)"/>
<path d="M0,0 L1,2 L5,3 L5,5 L-4,5 L-3,2 L-1,2 Z " fill="#7249B1" transform="translate(23,71)"/>
<path d="M0,0 L3,0 L3,9 L0,9 Z " fill="#C79853" transform="translate(7,25)"/>
<path d="M0,0 L2,1 L2,3 L0,3 L0,6 L-4,7 L-5,3 Z " fill="#B170CC" transform="translate(44,17)"/>
<path d="M0,0 L7,0 L7,3 L-3,3 Z " fill="#E2B5EA" transform="translate(46,11)"/>
<path d="M0,0 L3,0 L3,7 L0,8 L-1,4 Z " fill="#D4B1DB" transform="translate(47,69)"/>
<path d="M0,0 L2,0 L3,9 L0,9 Z " fill="#E2B752" transform="translate(87,25)"/>
<path d="M0,0 L2,4 L3,5 L3,11 L1,11 L0,9 Z " fill="#AC64D6" transform="translate(41,51)"/>
<path d="M0,0 L5,4 L5,7 L1,6 L-2,2 L0,2 Z " fill="#CE8642" transform="translate(76,9)"/>
<path d="M0,0 L4,0 L4,4 L0,5 L-1,7 Z " fill="#7046A4" transform="translate(54,79)"/>
<path d="M0,0 L2,0 L2,6 L0,8 L-1,10 L-2,5 Z " fill="#A964D4" transform="translate(23,18)"/>
<path d="M0,0 L1,3 L3,3 L3,9 L0,8 Z " fill="#B0A0BF" transform="translate(58,77)"/>
<path d="M0,0 L4,0 L3,4 L-4,5 Z " fill="#C481D9" transform="translate(26,10)"/>
<path d="M0,0 L1,2 L3,2 L3,6 L-1,6 L-1,1 Z " fill="#0E0910" transform="translate(13,38)"/>
<path d="M0,0 L3,0 L3,5 L-1,5 Z " fill="#EFDEF0" transform="translate(76,32)"/>
<path d="M0,0 L6,0 L6,3 L0,3 Z " fill="#DDBD70" transform="translate(62,2)"/>
<path d="M0,0 L5,0 L5,2 L3,2 L2,5 L0,5 Z " fill="#7148AA" transform="translate(46,81)"/>
<path d="M0,0 L1,3 L3,4 L1,4 L0,8 L-2,7 L-2,3 L0,3 Z " fill="#A564D8" transform="translate(55,54)"/>
<path d="M0,0 L2,1 L2,6 L-1,7 L-1,1 Z " fill="#DDC0E3" transform="translate(39,23)"/>
<path d="M0,0 L6,1 L8,3 L5,4 L3,7 L2,2 Z " fill="#8350C8" transform="translate(64,7)"/>
<path d="M0,0 L3,2 L2,6 L-1,6 L-2,3 Z " fill="#AD9EBF" transform="translate(11,61)"/>
<path d="M0,0 L2,1 L2,4 L4,4 L4,8 L1,8 Z " fill="#C67AD1" transform="translate(78,16)"/>
<path d="M0,0 L3,0 L3,3 L-1,3 L-2,6 L-3,2 L0,2 Z " fill="#B15ADD" transform="translate(55,76)"/>
<path d="M0,0 L1,4 L5,5 L4,8 L2,8 L0,5 Z " fill="#EDDDEE" transform="translate(51,57)"/>
<path d="M0,0 L5,1 L4,3 L-1,3 Z " fill="#C5B5CC" transform="translate(29,72)"/>
<path d="M0,0 L2,0 L3,7 L-1,3 Z " fill="#643D7E" transform="translate(65,67)"/>
<path d="M0,0 L4,0 L4,5 L1,5 Z " fill="#673D73" transform="translate(80,57)"/>
<path d="M0,0 L4,0 L3,4 L0,4 Z " fill="#C67BD9" transform="translate(67,39)"/>
<path d="M0,0 L3,0 L3,3 L1,3 L0,5 L0,3 L-3,2 Z " fill="#D5B5DC" transform="translate(25,13)"/>
<path d="M0,0 L3,3 L1,7 L-1,1 Z " fill="#AC9EAF" transform="translate(51,79)"/>
<path d="M0,0 L2,0 L1,4 L-3,4 L-3,2 Z " fill="#C495CF" transform="translate(17,69)"/>
<path d="M0,0 L4,2 L6,5 L2,5 L2,2 L0,2 Z " fill="#B75ED8" transform="translate(72,11)"/>
<path d="M0,0 L3,1 L1,8 L0,8 L0,2 L-2,1 Z " fill="#A57ECB" transform="translate(55,64)"/>
<path d="M0,0 L3,0 L3,3 L5,3 L5,6 L2,5 L2,1 Z " fill="#D5A8DE" transform="translate(23,62)"/>
<path d="M0,0 L4,0 L3,5 L2,3 L-1,2 Z " fill="#A26FCA" transform="translate(28,7)"/>
<path d="M0,0 L3,2 L3,5 L0,5 Z " fill="#B5A2C7" transform="translate(36,81)"/>
<path d="M0,0 L1,3 L3,3 L2,7 L0,5 Z " fill="#6E4499" transform="translate(33,78)"/>
<path d="M0,0 L4,1 L3,7 L2,7 Z " fill="#DEA6E8" transform="translate(42,54)"/>
<path d="M0,0 L2,0 L3,7 L0,3 Z " fill="#B951E3" transform="translate(74,20)"/>
<path d="M0,0 L2,1 L2,3 L-1,3 L-1,5 L-3,5 L-1,1 Z " fill="#DDC2E2" transform="translate(44,17)"/>
<path d="M0,0 L3,1 L3,4 L-1,3 Z " fill="#A259D9" transform="translate(41,77)"/>
<path d="M0,0 L5,1 L4,4 L2,4 Z " fill="#D4B5DB" transform="translate(79,61)"/>
<path d="M0,0 L5,1 L1,3 Z " fill="#704464" transform="translate(65,55)"/>
<path d="M0,0 L3,0 L3,4 L0,3 Z " fill="#0E0910" transform="translate(80,54)"/>
<path d="M0,0 L2,0 L2,3 L-2,4 Z " fill="#DAA7E4" transform="translate(34,21)"/>
<path d="M0,0 L1,2 L3,3 L-1,4 L-3,2 L0,2 Z " fill="#864342" transform="translate(73,6)"/>
<path d="M0,0 L2,1 L2,4 L-1,4 Z " fill="#563147" transform="translate(13,58)"/>
<path d="M0,0 L3,0 L3,3 L0,3 Z " fill="#E5CAE9" transform="translate(41,30)"/>
<path d="M0,0 L3,0 L3,3 L0,2 Z " fill="#844243" transform="translate(28,54)"/>
<path d="M0,0 L2,1 L2,3 L-1,4 Z " fill="#C08FD5" transform="translate(52,33)"/>
<path d="M0,0 L3,0 L2,3 L0,3 Z " fill="#E3B5EA" transform="translate(38,17)"/>
<path d="M0,0 L2,0 L1,3 L-1,3 Z " fill="#60364E" transform="translate(47,83)"/>
<path d="M0,0 L3,0 L2,3 L0,2 Z " fill="#5D3975" transform="translate(30,67)"/>
</svg>
