<?xml version="1.0" encoding="UTF-8"?>
<!-- Generator: visioncortex VTracer 0.6.5 -->
<svg version="1.1" xmlns="http://www.w3.org/2000/svg" width="167" height="167">
<path d="M0,0 L14,2 L56,10 L58,11 L64,32 L63,37 L51,62 L62,64 L70,67 L76,79 L74,83 L58,98 L50,105 L38,116 L28,125 L18,134 L10,141 L9,141 L9,129 L11,106 L12,102 L4,101 L-5,98 L-11,88 L-9,68 L-1,3 Z " fill="#C69900" transform="translate(51,13)"/>
<path d="M0,0 L14,2 L56,10 L58,11 L64,32 L64,34 L47,32 L8,26 L6,25 L0,1 Z " fill="#FEFD00" transform="translate(51,13)"/>
<path d="M0,0 L8,1 L19,4 L22,8 L26,17 L25,19 L-5,12 L-4,7 Z " fill="#FDFC00" transform="translate(101,75)"/>
</svg>
