<?xml version="1.0" encoding="UTF-8"?>
<!-- Generator: visioncortex VTracer 0.6.5 -->
<svg version="1.1" xmlns="http://www.w3.org/2000/svg" width="150" height="85">
<path d="M0,0 L150,0 L150,85 L0,85 Z " fill="#514041" transform="translate(0,0)"/>
<path d="M0,0 L65,0 L65,10 L57,15 L52,19 L45,18 L45,16 L47,16 L44,9 L40,9 L40,15 L37,15 L37,17 L39,17 L42,20 L42,24 L37,24 L35,29 L36,34 L41,37 L42,33 L47,33 L49,29 L58,27 L72,25 L81,25 L83,27 L89,28 L89,30 L92,31 L93,38 L95,39 L95,36 L97,35 L100,30 L101,29 L101,21 L104,20 L104,17 L109,16 L109,18 L113,18 L112,25 L109,30 L106,33 L102,33 L101,37 L98,37 L98,41 L93,42 L86,42 L84,46 L82,46 L81,41 L84,38 L84,33 L75,33 L75,30 L70,35 L63,35 L53,34 L48,37 L46,37 L46,39 L42,40 L45,43 L49,50 L49,57 L42,57 L39,50 L34,47 L33,45 L33,39 L31,39 L31,36 L23,40 L22,49 L17,49 L15,47 L17,56 L21,57 L20,62 L18,62 L18,69 L26,67 L26,69 L32,66 L31,55 L32,53 L37,54 L37,59 L42,60 L41,65 L38,65 L41,70 L40,75 L33,76 L32,78 L28,80 L24,79 L22,79 L19,79 L19,77 L8,77 L0,76 Z " fill="#624B4B" transform="translate(0,0)"/>
<path d="M0,0 L14,0 L14,85 L-76,85 L-76,82 L-57,82 L-58,79 L-57,78 L-49,78 L-48,82 L-45,82 L-45,76 L-36,74 L-31,72 L-30,70 L-20,70 L-15,67 L-11,66 L-6,60 L-3,56 L-7,58 L-11,57 L-13,56 L-13,58 L-17,59 L-20,62 L-30,63 L-42,67 L-44,66 L-43,62 L-35,59 L-33,55 L-26,54 L-26,51 L-31,51 L-31,46 L-22,44 L-21,41 L-24,39 L-22,30 L-22,26 L-17,25 L-17,21 L-13,21 L-13,18 L-15,18 L-17,13 L-21,12 L-21,10 L-23,10 L-25,14 L-29,9 L-30,4 L-23,2 L-19,4 L-18,8 L-14,9 L-11,12 L-7,14 L-6,16 L-2,17 L0,13 L12,13 L11,11 L4,10 L3,9 L3,4 L1,4 Z " fill="#514553" transform="translate(136,0)"/>
<path d="M0,0 L2,0 L2,3 L11,3 L12,8 L9,11 L9,17 L7,18 L5,22 L2,21 L0,17 L0,10 L-5,10 L-9,8 L-17,8 L-18,9 L-23,9 L-21,13 L-21,17 L-13,17 L-11,19 L1,20 L0,26 L-1,31 L6,32 L6,38 L-2,40 L-2,42 L12,43 L12,46 L6,45 L6,47 L16,47 L16,45 L25,45 L25,46 L18,46 L18,52 L15,52 L14,48 L6,49 L6,52 L-13,52 L-13,55 L-73,55 L-73,46 L-54,47 L-54,49 L-49,47 L-48,49 L-41,48 L-40,45 L-33,44 L-34,39 L-35,35 L-32,35 L-32,30 L-36,29 L-37,24 L-41,23 L-41,31 L-40,36 L-44,39 L-47,39 L-47,37 L-51,39 L-55,39 L-55,32 L-53,32 L-52,27 L-57,26 L-59,17 L-57,14 L-56,18 L-51,19 L-51,10 L-45,6 L-42,6 L-42,9 L-40,9 L-38,17 L-33,20 L-31,23 L-31,27 L-24,27 L-25,20 L-28,16 L-28,13 L-31,12 L-31,10 L-27,9 L-27,7 L-20,3 L-10,4 L-3,5 L-1,1 Z " fill="#60494A" transform="translate(73,30)"/>
<path d="M0,0 L14,0 L14,41 L10,40 L9,32 L8,25 L6,26 L7,39 L2,38 L2,35 L-6,35 L-5,40 L-2,40 L-3,43 L-7,43 L-8,48 L-11,55 L-20,56 L-17,51 L-15,51 L-16,47 L-13,46 L-16,43 L-17,46 L-19,46 L-19,41 L-16,38 L-16,36 L-20,35 L-20,33 L-13,33 L-13,29 L-9,28 L-9,26 L-12,26 L-12,24 L-10,23 L-10,21 L-12,20 L-12,18 L-15,18 L-17,13 L-21,12 L-21,10 L-23,10 L-25,14 L-29,9 L-30,4 L-23,2 L-19,4 L-18,8 L-14,9 L-11,12 L-7,14 L-6,16 L-2,17 L0,13 L12,13 L11,11 L4,10 L3,9 L3,4 L1,4 Z " fill="#47323F" transform="translate(136,0)"/>
<path d="M0,0 L65,0 L65,10 L57,15 L52,19 L45,18 L45,16 L47,16 L44,9 L40,9 L40,15 L37,15 L37,17 L39,17 L42,20 L42,24 L37,24 L35,29 L35,37 L32,38 L32,33 L28,34 L23,36 L27,31 L30,20 L29,14 L18,11 L17,13 L16,7 L0,9 Z " fill="#584754" transform="translate(0,0)"/>
<path d="M0,0 L3,0 L6,12 L10,13 L9,18 L7,18 L7,25 L15,23 L15,25 L21,22 L20,11 L21,9 L26,10 L26,15 L31,16 L30,21 L27,21 L30,26 L29,31 L22,32 L21,34 L17,36 L13,35 L11,35 L8,35 L8,33 L-3,33 L-11,32 L-11,27 L-4,26 L0,24 L4,24 L5,22 L1,22 L2,19 L5,19 L6,17 L3,18 L-2,15 L-3,16 L-8,16 L-9,15 L-9,9 L-3,7 L-2,9 L-1,1 Z " fill="#6A5457" transform="translate(11,44)"/>
<path d="M0,0 L1,0 L2,5 L11,6 L14,8 L15,14 L14,18 L12,19 L11,22 L9,22 L7,28 L1,32 L-2,25 L-2,22 L1,20 L3,16 L5,16 L5,12 L0,15 L-4,15 L-4,23 L-6,23 L-6,25 L-16,27 L-16,3 L-10,1 Z " fill="#3F3F51" transform="translate(16,6)"/>
<path d="M0,0 L20,0 L20,3 L23,3 L23,6 L16,6 L16,8 L21,8 L22,14 L13,16 L14,20 L15,22 L12,23 L5,23 L3,25 L-2,26 L-10,26 L-9,23 L-1,20 L7,20 L7,17 L-3,18 L-3,20 L-7,19 L-5,12 L-1,10 Z " fill="#462D2D" transform="translate(65,0)"/>
<path d="M0,0 L3,0 L3,2 L7,2 L6,9 L3,14 L0,17 L-4,17 L-5,21 L-8,21 L-8,25 L-13,26 L-20,26 L-22,30 L-24,30 L-25,25 L-22,22 L-23,16 L-29,16 L-30,11 L-34,11 L-34,14 L-37,14 L-38,17 L-55,16 L-56,14 L-55,12 L-34,9 L-25,9 L-23,11 L-17,12 L-17,14 L-14,15 L-13,22 L-11,23 L-11,20 L-9,19 L-6,14 L-5,13 L-5,5 L-2,4 L-2,1 Z " fill="#6B5554" transform="translate(106,16)"/>
<path d="M0,0 L3,1 L3,4 L1,4 L1,6 L-1,6 L-2,12 L-10,15 L-13,17 L-22,18 L-27,19 L-27,23 L-21,23 L-21,25 L-29,25 L-29,28 L-74,28 L-74,25 L-55,25 L-56,22 L-55,21 L-47,21 L-46,25 L-43,25 L-43,19 L-34,17 L-29,15 L-28,13 L-18,13 L-13,10 L-9,9 L-4,3 L0,2 Z " fill="#685561" transform="translate(134,57)"/>
<path d="M0,0 L6,0 L9,2 L9,4 L11,4 L11,7 L9,7 L9,9 L7,9 L8,11 L16,12 L16,14 L10,15 L9,17 L24,17 L24,19 L27,19 L27,17 L25,16 L33,15 L33,13 L23,12 L26,9 L28,9 L28,11 L42,12 L42,15 L36,14 L36,16 L46,16 L46,14 L55,14 L55,15 L48,15 L48,21 L45,21 L44,17 L36,18 L36,21 L5,21 L1,20 L1,16 L-4,17 L-5,20 L-11,20 L-10,16 L-2,14 L1,10 L6,11 L6,6 L1,6 L1,4 L-1,4 Z " fill="#4A4148" transform="translate(43,61)"/>
<path d="M0,0 L4,2 L5,6 L9,7 L12,10 L15,11 L16,20 L18,20 L19,23 L19,30 L13,30 L12,32 L15,35 L15,40 L11,41 L11,43 L7,41 L6,44 L4,44 L4,39 L7,36 L7,34 L3,33 L3,31 L10,31 L10,27 L14,26 L14,24 L11,24 L11,22 L13,21 L13,19 L11,18 L11,16 L8,16 L6,11 L2,10 L2,8 L0,8 L-2,12 L-6,7 L-7,2 Z " fill="#867A89" transform="translate(113,2)"/>
<path d="M0,0 L38,0 L38,5 L33,7 L25,8 L25,10 L30,12 L32,16 L32,21 L30,22 L29,14 L18,11 L17,13 L16,7 L0,9 Z " fill="#4F3F4F" transform="translate(0,0)"/>
<path d="M0,0 L4,0 L5,4 L11,4 L12,6 L3,6 L3,3 L-2,8 L-9,8 L-19,7 L-24,10 L-26,10 L-26,12 L-30,13 L-27,16 L-23,23 L-23,30 L-30,30 L-33,23 L-38,20 L-39,18 L-39,12 L-41,12 L-41,7 L-44,6 L-40,5 L-39,8 L-40,11 L-38,10 L-36,7 L-31,10 L-30,6 L-25,6 L-23,2 L-21,3 L-21,4 L-4,5 L-3,3 L0,3 Z " fill="#6A504B" transform="translate(72,27)"/>
<path d="M0,0 L22,0 L23,4 L25,4 L26,9 L33,10 L34,13 L22,14 L20,18 L15,16 L14,14 L8,11 L8,9 L4,8 Z " fill="#373845" transform="translate(114,0)"/>
<path d="M0,0 L2,0 L5,10 L5,15 L8,16 L8,45 L2,46 L4,40 L5,38 L7,38 L7,32 L1,33 L0,38 L-3,39 L-4,33 L-2,33 L-1,23 L1,21 L2,17 L0,18 L-1,22 L-6,22 L-6,26 L-8,26 L-8,20 L-6,14 L-3,14 L-2,11 L1,14 L-1,5 Z " fill="#433A3F" transform="translate(142,25)"/>
<path d="M0,0 L14,0 L14,41 L10,40 L9,24 L6,24 L3,17 L4,13 L12,13 L11,11 L4,10 L3,9 L3,4 L1,4 Z " fill="#805F6A" transform="translate(136,0)"/>
<path d="M0,0 L3,0 L5,11 L6,14 L5,16 L0,19 L-3,20 L-3,25 L-6,25 L-5,31 L-10,30 L-10,26 L-8,26 L-7,21 L-12,20 L-14,11 L-12,8 L-11,12 L-6,13 L-6,4 Z " fill="#523936" transform="translate(28,36)"/>
<path d="M0,0 L2,0 L2,3 L11,3 L12,8 L9,11 L9,17 L7,18 L5,22 L2,21 L0,17 L0,10 L-5,10 L-9,8 L-17,8 L-18,9 L-23,9 L-21,13 L-22,16 L-22,14 L-25,13 L-24,8 L-19,4 L-10,4 L-3,5 L-1,1 Z " fill="#674C42" transform="translate(73,30)"/>
<path d="M0,0 L4,0 L4,15 L-23,15 L-23,12 L-12,11 L-12,9 L-9,9 L-9,7 L-13,6 L-8,3 L-7,5 L-4,5 L-4,2 L0,2 Z " fill="#2C555F" transform="translate(146,70)"/>
<path d="M0,0 L2,1 L-1,6 L-8,8 L-7,11 L5,7 L17,6 L18,3 L22,3 L22,1 L28,2 L32,1 L30,6 L28,6 L27,9 L25,9 L24,11 L24,9 L22,9 L23,5 L19,4 L19,7 L16,7 L16,9 L8,9 L0,13 L-7,15 L-15,15 L-17,5 L-13,5 L-9,6 L-9,2 L-13,1 L-7,1 L-6,3 L-1,4 Z " fill="#4B3B48" transform="translate(101,55)"/>
<path d="M0,0 L4,2 L5,8 L3,8 L3,10 L8,11 L11,12 L9,16 L8,20 L5,20 L5,24 L-2,23 L-3,26 L-6,25 L-6,18 L-5,16 L0,16 L-2,12 L-3,9 L-5,9 L-5,7 L-2,7 L-2,1 Z " fill="#4B3635" transform="translate(42,8)"/>
<path d="M0,0 L6,0 L9,4 L11,3 L11,7 L8,7 L8,9 L10,9 L13,12 L13,16 L8,16 L6,21 L6,29 L3,30 L3,25 L-1,26 L-6,28 L-2,23 L1,14 L2,13 L1,5 L-1,1 Z " fill="#69545A" transform="translate(29,8)"/>
<path d="M0,0 L29,0 L30,2 L22,4 L24,11 L26,13 L28,10 L30,10 L30,12 L34,11 L34,13 L24,15 L20,11 L15,10 L14,13 L10,12 L9,9 L11,4 L0,3 Z " fill="#635760" transform="translate(85,0)"/>
<path d="M0,0 L19,1 L19,3 L24,1 L24,8 L27,9 L0,9 Z " fill="#474C4B" transform="translate(0,76)"/>
<path d="M0,0 L15,0 L15,10 L9,14 L3,14 L2,17 L-1,16 L-2,10 L0,10 L0,7 L6,6 L0,4 Z " fill="#947B83" transform="translate(50,0)"/>
<path d="M0,0 L5,1 L3,2 L3,5 L5,5 L5,8 L-2,11 L-7,12 L-14,12 L-25,15 L-28,13 L-28,10 L-24,9 L-16,7 L-11,4 L-3,5 L-3,3 L0,3 Z " fill="#3F303A" transform="translate(120,59)"/>
<path d="M0,0 L19,0 L19,2 L15,4 L24,6 L24,8 L18,10 L18,12 L15,12 L15,10 L0,10 L1,7 L7,7 L7,5 L-1,5 L-2,2 L0,2 Z " fill="#675653" transform="translate(52,68)"/>
<path d="M0,0 L9,0 L9,1 L2,1 L2,3 L7,3 L8,9 L-1,11 L0,15 L1,17 L-2,18 L-9,18 L-11,20 L-16,21 L-24,21 L-23,18 L-15,15 L-7,15 L-7,12 L-17,13 L-17,15 L-20,14 L-18,14 L-18,12 L-15,11 L-5,11 L-2,9 L-1,1 Z " fill="#513D38" transform="translate(79,5)"/>
<path d="M0,0 L7,0 L9,1 L9,10 L4,12 L-2,12 L-2,14 L-7,15 L-7,2 Z " fill="#2D2F43" transform="translate(7,8)"/>
<path d="M0,0 L5,0 L4,4 L-1,4 L-1,6 L0,7 L-1,10 L-5,10 L-5,15 L-20,15 L-20,12 L-12,12 L-12,10 L-18,10 L-18,6 L-13,4 L-4,3 Z " fill="#3C394C" transform="translate(125,70)"/>
<path d="M0,0 L6,0 L8,1 L7,7 L8,9 L11,9 L12,7 L14,7 L12,11 L9,16 L7,17 L0,17 L-1,16 L-2,5 L-7,5 L-7,3 L0,3 Z " fill="#5E5452" transform="translate(88,3)"/>
<path d="M0,0 L2,1 L0,5 L5,5 L6,3 L11,2 L11,6 L27,7 L27,10 L-6,10 L-9,9 L-9,4 L-1,3 Z " fill="#4D4C58" transform="translate(33,75)"/>
<path d="M0,0 L8,0 L16,4 L15,9 L13,10 L-4,9 L-6,5 L-6,2 Z " fill="#3D2D2D" transform="translate(56,37)"/>
<path d="M0,0 L7,0 L6,6 L5,11 L12,12 L12,18 L4,20 L4,18 L-2,18 L-1,14 L1,13 L1,11 L-3,9 L-3,1 Z " fill="#514949" transform="translate(67,50)"/>
<path d="M0,0 L3,1 L4,7 L3,10 L-7,11 L-19,15 L-21,14 L-20,10 L-12,7 L-10,3 L-1,1 Z " fill="#5F4D57" transform="translate(113,52)"/>
<path d="M0,0 L2,0 L2,4 L0,5 L-3,10 L-5,10 L-3,15 L-3,21 L-7,22 L-9,18 L-11,20 L-16,19 L-18,18 L-17,14 L-15,13 L-9,13 L-9,11 L-7,11 L-7,3 Z " fill="#645857" transform="translate(19,18)"/>
<path d="M0,0 L8,0 L8,4 L2,6 L1,8 L-3,10 L-7,9 L-9,9 L-12,9 L-15,5 L-12,4 L-12,2 L-14,1 Z " fill="#8B7F84" transform="translate(31,70)"/>
<path d="M0,0 L2,0 L2,2 L16,3 L16,6 L10,5 L10,7 L20,7 L20,5 L29,5 L29,6 L22,6 L22,12 L19,12 L18,8 L10,9 L10,12 L-15,12 L-15,11 L5,10 L1,10 L1,8 L-1,7 L7,6 L7,4 L-3,3 Z " fill="#504853" transform="translate(69,70)"/>
<path d="M0,0 L4,1 L5,5 L6,11 L9,11 L9,17 L8,17 L8,12 L6,13 L6,19 L0,16 L-2,14 L-3,9 L-7,8 L-9,3 L-7,1 L-6,3 L-2,4 Z " fill="#393545" transform="translate(136,13)"/>
<path d="M0,0 L6,1 L7,5 L4,5 L4,10 L2,17 L4,17 L4,13 L9,13 L10,8 L12,8 L11,13 L9,19 L6,18 L5,22 L4,20 L-1,19 L-3,18 L-3,14 L-1,14 L-2,10 L1,10 L2,6 L-1,6 L-2,1 Z " fill="#88717F" transform="translate(132,34)"/>
<path d="M0,0 L4,1 L3,5 L-1,7 L2,8 L2,10 L-1,10 L-1,12 L-4,13 L-12,13 L-12,16 L-15,16 L-15,11 L-11,10 L-10,8 L-13,9 L-13,7 L-11,7 L-11,5 L-3,3 L-3,1 Z " fill="#636474" transform="translate(135,69)"/>
<path d="M0,0 L8,0 L14,5 L16,8 L16,15 L9,15 L6,8 L1,5 Z " fill="#735756" transform="translate(33,42)"/>
<path d="M0,0 L2,0 L5,10 L5,15 L8,17 L0,18 L-1,22 L-6,22 L-6,26 L-8,26 L-8,20 L-6,14 L-3,14 L-2,11 L1,14 L-1,5 Z " fill="#3E2D3A" transform="translate(142,25)"/>
<path d="M0,0 L3,0 L3,6 L1,8 L4,12 L4,15 L8,16 L4,18 L-2,15 L-3,16 L-8,16 L-9,15 L-9,9 L-3,7 L-2,9 L-1,1 Z " fill="#94787B" transform="translate(11,44)"/>
<path d="M0,0 L2,1 L1,3 L10,5 L9,17 L3,17 L2,13 L0,13 Z " fill="#594F57" transform="translate(0,33)"/>
<path d="M0,0 L7,0 L7,5 L9,6 L9,9 L-1,9 L-9,8 L-9,3 L-2,2 Z " fill="#60555F" transform="translate(9,68)"/>
<path d="M0,0 L12,4 L12,7 L16,7 L15,10 L9,10 L7,12 L0,12 Z " fill="#5D464E" transform="translate(0,59)"/>
<path d="M0,0 L15,0 L15,6 L3,9 L0,9 Z " fill="#868899" transform="translate(0,0)"/>
<path d="M0,0 L4,2 L5,8 L3,8 L3,10 L8,11 L8,12 L2,12 L2,17 L-6,20 L-5,16 L0,16 L-2,12 L-3,9 L-5,9 L-5,7 L-2,7 L-2,1 Z " fill="#5C4951" transform="translate(42,8)"/>
<path d="M0,0 L5,1 L2,5 L5,8 L5,13 L1,14 L1,16 L-3,14 L-4,17 L-6,17 L-6,12 L-3,9 L-3,7 L-7,6 L-7,4 L0,4 Z " fill="#564E5B" transform="translate(123,29)"/>
<path d="M0,0 L18,0 L18,5 L17,6 L2,6 L0,3 Z " fill="#423040" transform="translate(20,0)"/>
<path d="M0,0 L6,0 L9,4 L11,3 L11,7 L8,7 L9,14 L4,16 L2,8 L-1,3 Z " fill="#715C6B" transform="translate(29,8)"/>
<path d="M0,0 L6,0 L5,7 L2,11 L-5,13 L-5,3 L0,2 Z " fill="#302D34" transform="translate(5,20)"/>
<path d="M0,0 L5,1 L7,7 L13,11 L14,12 L14,18 L9,17 L9,14 L2,14 L2,12 L-1,11 L3,11 L2,1 Z " fill="#624952" transform="translate(129,21)"/>
<path d="M0,0 L3,1 L3,4 L1,4 L1,6 L-1,6 L-2,12 L-10,15 L-16,16 L-15,13 L-9,9 L-4,3 L0,2 Z " fill="#9C94A5" transform="translate(134,57)"/>
<path d="M0,0 L1,4 L16,2 L19,5 L19,9 L8,10 L5,9 L5,6 L0,5 Z " fill="#11121E" transform="translate(119,2)"/>
<path d="M0,0 L2,2 L9,3 L10,6 L-2,7 L-4,11 L-9,9 L-10,7 L-16,4 L-16,2 L-18,1 L-14,1 L-14,4 L0,4 Z " fill="#2B2633" transform="translate(138,7)"/>
<path d="M0,0 L11,0 L11,11 L2,9 Z " fill="#628185" transform="translate(139,0)"/>
<path d="M0,0 L1,2 L4,3 L3,6 L1,6 L1,8 L4,8 L4,10 L0,11 L-1,15 L-1,13 L-7,13 L-8,8 L-4,7 L-4,3 L0,3 Z " fill="#594B58" transform="translate(123,18)"/>
<path d="M0,0 L13,0 L14,2 L6,4 L8,11 L10,13 L12,10 L14,10 L14,12 L18,11 L18,13 L8,15 L5,11 L4,7 L0,6 Z " fill="#655866" transform="translate(101,0)"/>
<path d="M0,0 L5,0 L6,5 L8,5 L8,8 L4,8 L4,12 L-2,12 L-1,3 L-3,3 L-3,1 Z " fill="#352734" transform="translate(115,13)"/>
<path d="M0,0 L4,1 L6,10 L3,12 L-5,12 L-4,8 L-2,8 L-1,1 Z " fill="#19110D" transform="translate(68,3)"/>
<path d="M0,0 L4,1 L5,6 L7,6 L7,10 L-3,12 L-3,9 L-2,2 Z " fill="#351B18" transform="translate(25,41)"/>
<path d="M0,0 L1,4 L2,6 L5,6 L6,4 L8,4 L6,8 L3,13 L1,14 L-6,14 L-7,13 L-7,8 L0,9 L-1,7 L-1,1 Z " fill="#5A5658" transform="translate(94,6)"/>
<path d="M0,0 L5,1 L5,3 L-1,5 L-1,7 L-4,7 L-4,5 L-19,5 L-18,2 Z " fill="#7F7070" transform="translate(71,73)"/>
<path d="M0,0 L7,0 L6,6 L2,10 L-3,9 L-3,1 Z " fill="#605356" transform="translate(67,50)"/>
<path d="M0,0 L2,1 L0,5 L-2,6 L10,7 L6,10 L-6,10 L-9,9 L-9,4 L-1,3 Z " fill="#68686B" transform="translate(33,75)"/>
<path d="M0,0 L19,1 L19,4 L9,6 L4,5 L4,3 L0,3 Z " fill="#28292E" transform="translate(0,76)"/>
<path d="M0,0 L4,0 L6,0 L6,6 L3,11 L-3,12 L-3,4 L0,4 Z " fill="#846F6E" transform="translate(106,19)"/>
<path d="M0,0 L2,0 L2,4 L11,5 L8,7 L2,7 L2,10 L0,10 L2,16 L4,16 L5,14 L9,15 L4,19 L-3,18 L-3,16 L-1,16 L-1,7 L0,5 Z " fill="#745D61" transform="translate(48,0)"/>
<path d="M0,0 L9,0 L10,7 L7,8 L5,4 L3,6 L-2,5 L-4,4 L-3,1 Z " fill="#817270" transform="translate(5,32)"/>
<path d="M0,0 L9,0 L9,2 L15,3 L15,5 L17,6 L13,5 L10,4 L2,4 L1,5 L-4,5 L-2,9 L-3,12 L-3,10 L-6,9 L-5,4 Z " fill="#503A37" transform="translate(54,34)"/>
<path d="M0,0 L5,1 L6,7 L8,8 L8,11 L1,11 L1,8 L-1,8 L-1,2 Z " fill="#7E6666" transform="translate(32,53)"/>
<path d="M0,0 L6,1 L10,0 L8,5 L6,5 L5,8 L3,8 L2,10 L2,8 L0,8 L1,4 L-3,3 L-3,6 L-6,6 L-6,8 L-8,7 L-7,5 L-5,5 L-4,2 L0,2 Z " fill="#3E313F" transform="translate(123,56)"/>
<path d="M0,0 L6,0 L6,6 L1,7 L1,11 L-4,12 L-3,8 Z " fill="#7F7C84" transform="translate(143,57)"/>
<path d="M0,0 L7,0 L3,3 L4,8 L1,10 L-12,11 L-10,7 L-10,9 L-1,7 L-3,5 L-2,1 Z " fill="#5C3F3C" transform="translate(80,14)"/>
<path d="M0,0 L7,1 L11,5 L11,7 L-4,7 L-4,4 L4,4 L4,2 L0,1 Z " fill="#261A23" transform="translate(109,78)"/>
<path d="M0,0 L9,0 L9,1 L2,1 L2,3 L7,3 L8,9 L-1,10 L-1,1 Z " fill="#532F34" transform="translate(79,5)"/>
<path d="M0,0 L3,1 L-3,4 L-14,4 L-14,6 L-24,6 L-24,4 L-18,4 L-18,3 L-25,2 L-25,1 L-6,2 Z " fill="#463C49" transform="translate(103,71)"/>
<path d="M0,0 L6,0 L9,2 L9,4 L11,4 L11,7 L9,7 L9,9 L6,9 L6,6 L1,6 L1,4 L-1,4 Z " fill="#4B3535" transform="translate(43,61)"/>
<path d="M0,0 L3,1 L4,7 L3,9 L-7,9 L-7,6 L-5,6 L-3,2 Z " fill="#675968" transform="translate(113,52)"/>
<path d="M0,0 L10,2 L11,7 L3,7 L-2,4 Z " fill="#180E0E" transform="translate(59,38)"/>
<path d="M0,0 L2,1 L-1,6 L-8,8 L-7,11 L-3,12 L-11,13 L-12,6 L-9,6 L-9,2 L-13,1 L-7,1 L-6,3 L-1,4 Z " fill="#52444D" transform="translate(101,55)"/>
<path d="M0,0 L3,0 L2,6 L-2,15 L-6,17 L-7,13 L-1,3 Z " fill="#160A10" transform="translate(26,17)"/>
<path d="M0,0 L4,0 L4,8 L-7,8 L-2,1 Z " fill="#766873" transform="translate(96,77)"/>
<path d="M0,0 L1,0 L2,6 L8,7 L7,11 L5,10 L6,8 L2,10 L-2,9 L-4,8 L-4,10 L-8,11 L-9,13 L-13,11 L-10,11 L-11,8 L-2,7 Z " fill="#52404F" transform="translate(127,48)"/>
<path d="M0,0 L2,0 L2,2 L5,2 L5,9 L8,9 L7,12 L3,12 L2,16 L2,13 L-2,12 L1,11 L1,4 L-4,4 L-1,3 Z " fill="#523F4F" transform="translate(126,31)"/>
<path d="M0,0 L5,1 L7,4 L7,22 L5,20 L5,11 L3,11 L3,4 L0,4 Z " fill="#9C7078" transform="translate(143,19)"/>
<path d="M0,0 L1,2 L3,3 L-25,4 L-29,2 L-23,1 L-1,1 Z " fill="#3C363E" transform="translate(73,78)"/>
<path d="M0,0 L4,0 L4,5 L1,5 L-1,9 L-5,11 L-5,3 Z " fill="#45495A" transform="translate(5,11)"/>
<path d="M0,0 L2,0 L5,8 L5,10 L8,10 L8,16 L7,16 L7,11 L5,12 L5,18 L-1,15 L-3,11 L1,11 L3,11 L1,5 Z " fill="#57343A" transform="translate(137,14)"/>
<path d="M0,0 L1,2 L-7,6 L-8,8 L-1,7 L4,6 L0,9 L-6,9 L-7,12 L-10,11 L-11,5 L-9,5 L-9,2 Z " fill="#8F737A" transform="translate(59,5)"/>
<path d="M0,0 L4,1 L4,6 L-11,6 L-11,3 L0,2 Z " fill="#06050B" transform="translate(134,79)"/>
<path d="M0,0 L1,0 L3,7 L7,8 L6,13 L4,13 L4,19 L2,19 L2,17 L-2,17 L-1,14 L2,14 L4,11 L1,10 L-2,4 L-2,1 Z " fill="#6D4E50" transform="translate(14,49)"/>
<path d="M0,0 L4,1 L1,1 L2,5 L0,5 L0,9 L7,11 L8,12 L9,9 L12,10 L11,15 L9,15 L9,20 L6,18 L8,18 L7,15 L5,13 L-1,11 L-1,4 Z " fill="#715E6D" transform="translate(129,43)"/>
<path d="M0,0 L0,3 L-3,8 L-2,11 L1,11 L-6,16 L-9,9 L-9,6 L-4,6 L-2,2 Z " fill="#48352E" transform="translate(23,22)"/>
<path d="M0,0 L2,0 L4,3 L3,8 L2,9 L-3,9 L-4,8 L-4,2 Z " fill="#8B696F" transform="translate(6,51)"/>
<path d="M0,0 L5,1 L3,2 L3,5 L5,5 L5,7 L-2,9 L-6,9 L-5,5 L-3,5 L-3,3 L0,3 Z " fill="#110811" transform="translate(120,59)"/>
<path d="M0,0 L7,0 L8,4 L17,3 L21,1 L21,4 L14,6 L6,6 L6,8 L4,8 Z " fill="#342D3B" transform="translate(114,0)"/>
<path d="M0,0 L2,2 L3,7 L-1,10 L-4,10 L-4,2 Z " fill="#5A4048" transform="translate(30,59)"/>
<path d="M0,0 L2,0 L5,10 L5,14 L0,16 L0,8 L-1,1 Z " fill="#3C1C21" transform="translate(142,25)"/>
<path d="M0,0 L4,0 L6,8 L8,8 L7,11 L0,8 Z " fill="#3A333E" transform="translate(0,38)"/>
<path d="M0,0 L11,0 L12,3 L11,4 L-1,4 Z " fill="#897574" transform="translate(54,68)"/>
<path d="M0,0 L6,0 L6,10 L0,8 Z " fill="#292E36" transform="translate(144,42)"/>
<path d="M0,0 L15,0 L16,3 L0,3 Z " fill="#A28F96" transform="translate(60,82)"/>
<path d="M0,0 L3,4 L6,5 L7,3 L6,7 L3,7 L3,9 L-1,7 L-2,10 L-4,10 L-4,5 Z " fill="#625565" transform="translate(121,36)"/>
<path d="M0,0 L2,1 L4,9 L8,9 L8,16 L7,13 L0,13 L0,11 L-3,10 L1,10 Z " fill="#685662" transform="translate(131,22)"/>
<path d="M0,0 L4,0 L5,2 L5,8 L1,13 L-2,12 L1,7 L3,7 L3,3 L-3,6 L-3,4 L-1,4 Z " fill="#4E4151" transform="translate(18,15)"/>
<path d="M0,0 L2,0 L2,7 L-2,9 L-10,10 L-11,7 L-16,8 L-19,6 L-2,6 L0,5 Z " fill="#4B3C3D" transform="translate(71,40)"/>
<path d="M0,0 L5,1 L6,3 L-5,5 L-11,5 L-9,2 Z " fill="#78615E" transform="translate(64,26)"/>
<path d="M0,0 L4,0 L5,2 L11,2 L10,6 L0,6 Z " fill="#3C2F31" transform="translate(0,79)"/>
<path d="M0,0 L2,0 L2,2 L9,2 L9,8 L1,10 L1,8 L-1,7 L7,6 L7,4 L-3,3 Z " fill="#564E4D" transform="translate(69,70)"/>
<path d="M0,0 L5,0 L6,6 L5,10 L3,11 L1,14 L2,9 L4,3 L1,3 L0,8 L-1,8 L-1,1 Z " fill="#342533" transform="translate(25,14)"/>
<path d="M0,0 L6,0 L6,8 L-2,4 L-2,1 Z " fill="#A6A4AD" transform="translate(144,3)"/>
<path d="M0,0 L6,1 L7,5 L4,8 L0,8 Z " fill="#432D35" transform="translate(0,62)"/>
<path d="M0,0 L5,0 L5,10 L2,10 L0,6 Z " fill="#756469" transform="translate(86,30)"/>
<path d="M0,0 L4,0 L4,3 L13,2 L13,4 L5,4 L5,7 L0,7 Z " fill="#664B4B" transform="translate(100,78)"/>
<path d="M0,0 L2,1 L1,5 L-8,8 L-14,8 L-13,3 L-10,4 L-8,5 L0,4 Z " fill="#4B2E2D" transform="translate(32,47)"/>
<path d="M0,0 L4,2 L5,7 L3,8 L3,3 L-4,4 L-4,9 L-6,7 L-7,2 Z " fill="#7B6D7D" transform="translate(113,2)"/>
<path d="M0,0 L10,0 L9,4 L8,5 L1,4 Z " fill="#302030" transform="translate(25,0)"/>
<path d="M0,0 L7,0 L7,2 L9,2 L9,5 L0,5 Z " fill="#4999AA" transform="translate(139,80)"/>
<path d="M0,0 L7,0 L7,3 L-3,5 L-9,5 L-9,3 L-3,3 L-3,1 Z " fill="#67524E" transform="translate(65,17)"/>
<path d="M0,0 L4,2 L4,7 L-2,8 L-2,1 Z " fill="#363133" transform="translate(42,8)"/>
<path d="M0,0 L9,0 L7,4 L3,4 L1,11 L-1,10 Z " fill="#4A3D3A" transform="translate(65,0)"/>
<path d="M0,0 L6,0 L4,4 L0,4 L-2,8 L-3,5 L-6,4 Z " fill="#8B646F" transform="translate(107,72)"/>
<path d="M0,0 L2,0 L0,4 L-7,7 L-11,7 L-10,4 L-5,1 Z " fill="#AAA3B4" transform="translate(129,66)"/>
<path d="M0,0 L4,1 L3,2 L10,2 L14,1 L18,4 L17,5 L0,4 L-1,2 Z " fill="#715755" transform="translate(51,28)"/>
<path d="M0,0 L5,0 L2,1 L2,6 L0,11 L3,11 L4,9 L4,12 L-2,12 L-1,3 L-3,3 L-3,1 Z " fill="#3F323C" transform="translate(115,13)"/>
<path d="M0,0 L9,1 L11,3 L7,4 L6,11 L5,11 L4,4 L-1,3 Z " fill="#453446" transform="translate(18,11)"/>
<path d="M0,0 L14,0 L12,3 L0,3 Z " fill="#7A7073" transform="translate(85,0)"/>
<path d="M0,0 L1,0 L2,5 L4,6 L-1,12 L-4,13 L-2,4 Z " fill="#6C5865" transform="translate(32,18)"/>
<path d="M0,0 L11,0 L12,2 L2,4 L-2,4 L-2,2 L0,2 Z " fill="#15151B" transform="translate(7,78)"/>
<path d="M0,0 L4,1 L4,8 L6,8 L7,17 L7,19 L4,18 L3,2 L0,2 Z " fill="#775157" transform="translate(142,22)"/>
<path d="M0,0 L4,0 L4,5 L6,6 L4,7 L3,14 L2,14 L0,6 Z " fill="#5E5556" transform="translate(44,0)"/>
<path d="M0,0 L5,0 L6,5 L4,7 L1,7 L-1,2 Z " fill="#564141" transform="translate(79,33)"/>
<path d="M0,0 L2,0 L3,8 L-4,7 L-3,5 L-1,5 L-1,3 L-4,3 L-4,1 Z " fill="#AA9FAE" transform="translate(128,23)"/>
<path d="M0,0 L6,1 L6,3 L-2,4 L-7,6 L-7,2 Z " fill="#272A3A" transform="translate(7,8)"/>
<path d="M0,0 L2,0 L2,2 L6,1 L5,4 L20,4 L20,5 L4,5 L-1,4 Z " fill="#53494F" transform="translate(47,74)"/>
<path d="M0,0 L7,0 L6,4 L-3,6 L-3,3 L0,3 Z " fill="#848C97" transform="translate(142,72)"/>
<path d="M0,0 L2,0 L2,4 L-1,4 L0,10 L-5,9 L-5,5 L-3,5 L-3,3 L-1,3 Z " fill="#573A3F" transform="translate(23,57)"/>
<path d="M0,0 L2,3 L2,5 L5,4 L4,9 L1,10 L-1,14 L0,3 L-2,2 Z " fill="#736362" transform="translate(10,35)"/>
<path d="M0,0 L5,0 L5,4 L0,5 L0,12 L-1,12 L-1,6 L-5,4 L-2,3 Z " fill="#5E453F" transform="translate(74,34)"/>
<path d="M0,0 L3,0 L2,7 L-1,9 L-3,5 Z " fill="#686467" transform="translate(97,4)"/>
<path d="M0,0 L7,0 L6,5 L-1,5 Z " fill="#B2B8C5" transform="translate(6,0)"/>
<path d="M0,0 L1,0 L1,5 L4,5 L4,7 L1,7 L1,12 L0,12 L0,7 L-2,6 L-1,4 L-5,3 Z " fill="#566071" transform="translate(138,73)"/>
<path d="M0,0 L2,1 L1,6 L-5,10 L-5,5 L-3,5 L-3,3 Z " fill="#513C37" transform="translate(99,25)"/>
<path d="M0,0 L4,2 L4,7 L2,7 L1,9 L-2,6 Z " fill="#432F3C" transform="translate(136,18)"/>
<path d="M0,0 L12,0 L11,2 L5,2 L4,5 L0,4 Z " fill="#8C6E77" transform="translate(50,0)"/>
<path d="M0,0 L12,0 L8,3 L-2,3 Z " fill="#68696F" transform="translate(31,82)"/>
<path d="M0,0 L2,1 L1,6 L0,9 L-6,10 L-3,5 L-1,5 L-2,1 Z " fill="#4B3B49" transform="translate(122,46)"/>
<path d="M0,0 L8,0 L5,4 L-3,4 L-2,1 Z " fill="#49312F" transform="translate(58,22)"/>
<path d="M0,0 L2,0 L2,4 L0,5 L-3,10 L-6,7 L-5,4 L0,3 Z " fill="#7A6B70" transform="translate(19,18)"/>
<path d="M0,0 L3,0 L3,7 L-3,8 L-1,2 Z " fill="#1D171F" transform="translate(147,63)"/>
<path d="M0,0 L7,0 L3,3 L4,8 L1,8 L-1,4 Z " fill="#634246" transform="translate(80,14)"/>
<path d="M0,0 L7,0 L7,2 L3,4 L-4,4 L-3,1 Z " fill="#AB969B" transform="translate(55,9)"/>
<path d="M0,0 L7,0 L7,3 L-5,3 L-5,1 Z " fill="#5F6174" transform="translate(53,82)"/>
<path d="M0,0 L2,0 L3,3 L5,5 L2,7 L-1,7 L-1,9 L-3,9 L-4,6 L-1,6 Z " fill="#504A5C" transform="translate(133,63)"/>
<path d="M0,0 L4,1 L5,6 L7,6 L6,10 L6,8 L4,8 L3,5 L-2,3 Z " fill="#382523" transform="translate(25,41)"/>
<path d="M0,0 L6,0 L7,4 L3,5 L-1,3 Z " fill="#A69FA4" transform="translate(2,33)"/>
<path d="M0,0 L3,1 L2,9 L-2,9 L-2,4 L0,4 Z " fill="#8C7274" transform="translate(106,19)"/>
<path d="M0,0 L1,2 L4,3 L3,6 L1,6 L1,8 L4,8 L4,10 L1,11 L-1,8 Z " fill="#6A5E6B" transform="translate(123,18)"/>
<path d="M0,0 L1,2 L-1,2 L-1,4 L4,5 L4,6 L-2,6 L-2,11 L-3,11 L-4,3 L-6,2 Z " fill="#524949" transform="translate(46,14)"/>
<path d="M0,0 L2,0 L4,9 L1,11 L-7,11 L-7,10 L1,9 L1,4 Z " fill="#2B1F1B" transform="translate(70,4)"/>
<path d="M0,0 L4,0 L4,3 L18,3 L14,5 L10,6 L3,4 L2,1 Z " fill="#24212F" transform="translate(120,8)"/>
<path d="M0,0 L5,0 L5,4 L1,4 L0,7 L-2,7 L-2,1 Z " fill="#948797" transform="translate(111,5)"/>
<path d="M0,0 L5,0 L4,4 L-1,4 L-2,6 L-2,4 L-4,3 Z " fill="#4B4F63" transform="translate(125,70)"/>
<path d="M0,0 L3,1 L0,7 L2,8 L-4,10 L-4,5 L0,4 Z " fill="#423D4A" transform="translate(144,64)"/>
<path d="M0,0 L7,0 L8,3 L4,5 L0,3 Z " fill="#765F5D" transform="translate(33,42)"/>
<path d="M0,0 L4,0 L2,4 L1,6 L-4,6 L-3,2 L0,2 Z " fill="#3F3432" transform="translate(49,20)"/>
<path d="M0,0 L2,0 L4,4 L9,6 L5,8 L0,5 Z " fill="#AF8B8F" transform="translate(10,54)"/>
<path d="M0,0 L6,0 L7,2 L4,2 L3,8 L-1,3 Z " fill="#73606F" transform="translate(29,8)"/>
<path d="M0,0 L1,3 L0,4 L-8,4 L-8,1 Z " fill="#3A2825" transform="translate(113,81)"/>
<path d="M0,0 L8,4 L9,8 L6,11 L4,10 L6,7 L6,4 L0,3 Z " fill="#4F363F" transform="translate(0,59)"/>
<path d="M0,0 L2,1 L3,7 L1,8 L-2,7 L-2,1 Z " fill="#92797C" transform="translate(33,54)"/>
<path d="M0,0 L4,2 L6,2 L6,4 L8,5 L-2,5 L-2,2 L0,2 Z " fill="#6A5862" transform="translate(108,56)"/>
<path d="M0,0 L3,0 L3,15 L1,13 Z " fill="#B79094" transform="translate(147,26)"/>
<path d="M0,0 L3,0 L4,6 L1,7 L-6,7 L-6,6 L0,6 Z " fill="#534E60" transform="translate(15,0)"/>
<path d="M0,0 L4,1 L3,7 L-1,6 Z " fill="#9B989C" transform="translate(25,73)"/>
<path d="M0,0 L4,1 L3,5 L-2,5 L-2,1 Z " fill="#777485" transform="translate(135,69)"/>
<path d="M0,0 L2,1 L1,7 L5,8 L0,8 L0,12 L-2,12 L-2,6 Z " fill="#5E4A5A" transform="translate(136,39)"/>
<path d="M0,0 L3,1 L2,6 L0,7 L-6,7 L-7,5 L1,5 Z " fill="#32252B" transform="translate(69,40)"/>
<path d="M0,0 L6,2 L6,5 L8,5 L8,7 L5,7 L4,5 L0,3 Z " fill="#291817" transform="translate(23,44)"/>
<path d="M0,0 L3,0 L4,4 L3,6 L-1,5 L-2,1 Z " fill="#928595" transform="translate(124,35)"/>
<path d="M0,0 L2,0 L2,3 L-2,6 L-4,6 L-4,8 L-9,9 L-3,2 L0,2 Z " fill="#3A3C4C" transform="translate(9,14)"/>
<path d="M0,0 L7,0 L7,3 L1,4 L-1,3 Z " fill="#988393" transform="translate(141,14)"/>
<path d="M0,0 L6,1 L6,4 L-3,4 Z " fill="#080815" transform="translate(131,6)"/>
<path d="M0,0 L6,0 L8,1 L8,3 L4,6 L2,6 L3,3 L0,2 Z " fill="#494A47" transform="translate(88,3)"/>
<path d="M0,0 L3,0 L5,5 L5,9 L9,10 L4,10 L3,9 L3,4 L1,4 Z " fill="#4F5560" transform="translate(136,0)"/>
<path d="M0,0 L3,1 L2,6 L-4,6 Z " fill="#8A7D87" transform="translate(96,79)"/>
<path d="M0,0 L4,0 L4,8 L-3,7 L-3,6 L2,6 L2,3 L0,2 Z " fill="#5E6C72" transform="translate(146,70)"/>
<path d="M0,0 L6,0 L9,2 L9,4 L11,4 L11,7 L9,7 L8,9 L7,3 L0,1 Z " fill="#563C3A" transform="translate(43,61)"/>
<path d="M0,0 L3,1 L3,4 L1,4 L0,6 L-5,5 L-4,2 L0,2 Z " fill="#867E8E" transform="translate(134,57)"/>
<path d="M0,0 L2,0 L1,5 L-2,9 L-4,7 L-6,7 L-6,5 L-1,5 Z " fill="#716673" transform="translate(142,42)"/>
<path d="M0,0 L3,1 L2,5 L-2,6 L-4,10 L-7,9 L-5,9 L-3,4 Z " fill="#59494F" transform="translate(102,10)"/>
<path d="M0,0 L3,0 L3,8 L0,7 L-1,2 Z " fill="#93798A" transform="translate(33,10)"/>
<path d="M0,0 L6,0 L3,1 L4,7 L0,6 Z " fill="#5B4E57" transform="translate(101,0)"/>
<path d="M0,0 L2,0 L4,10 L-2,9 L-2,7 L0,7 Z " fill="#504849" transform="translate(42,0)"/>
<path d="M0,0 L7,0 L9,3 L0,3 Z " fill="#8B858D" transform="translate(0,72)"/>
<path d="M0,0 L7,1 L5,3 L2,3 L2,5 L-2,4 Z " fill="#271616" transform="translate(59,38)"/>
<path d="M0,0 L4,1 L3,4 L-1,4 L-2,7 L-3,6 L-3,1 Z " fill="#404557" transform="translate(121,76)"/>
<path d="M0,0 L2,0 L2,10 L1,10 L1,4 L-5,3 L-1,1 Z " fill="#554F51" transform="translate(148,53)"/>
<path d="M0,0 L1,3 L4,2 L3,6 L-1,8 L-2,4 Z " fill="#291A19" transform="translate(21,26)"/>
<path d="M0,0 L5,1 L6,3 L-5,3 L-3,1 Z " fill="#85686A" transform="translate(64,26)"/>
<path d="M0,0 L4,0 L4,4 L6,4 L6,6 L1,6 Z " fill="#2B1F2C" transform="translate(117,14)"/>
<path d="M0,0 L1,2 L6,3 L6,9 L5,5 L1,5 L1,3 L-3,2 L0,2 Z " fill="#59494D" transform="translate(108,13)"/>
<path d="M0,0 L2,0 L2,6 L-8,8 L-8,6 L-1,4 Z " fill="#696B7D" transform="translate(13,0)"/>
<path d="M0,0 L4,1 L4,6 L1,6 L1,3 L-3,2 L0,2 Z " fill="#2A2D39" transform="translate(134,79)"/>
<path d="M0,0 L6,1 L6,3 L-2,4 L-2,2 L0,2 Z " fill="#8A8894" transform="translate(127,77)"/>
<path d="M0,0 L7,0 L7,3 L3,4 L2,6 L0,5 Z " fill="#6E5A5F" transform="translate(16,68)"/>
<path d="M0,0 L3,1 L3,3 L5,3 L4,6 L0,6 Z " fill="#351E27" transform="translate(0,62)"/>
<path d="M0,0 L5,0 L5,4 L1,5 Z " fill="#B2AFB9" transform="translate(143,58)"/>
<path d="M0,0 L6,0 L6,6 L3,5 L3,3 L1,2 L0,4 Z " fill="#181B21" transform="translate(144,42)"/>
<path d="M0,0 L1,3 L3,3 L4,7 L0,6 L-2,5 L-3,7 L-2,3 Z " fill="#513F3B" transform="translate(53,20)"/>
<path d="M0,0 L3,1 L3,11 L-1,10 L1,9 Z " fill="#382B29" transform="translate(72,4)"/>
<path d="M0,0 L1,2 L0,5 L-5,5 L-4,1 Z " fill="#505552" transform="translate(15,80)"/>
<path d="M0,0 L7,0 L3,2 L1,6 L0,6 Z " fill="#635864" transform="translate(91,76)"/>
<path d="M0,0 L2,0 L2,3 L-1,4 L-2,6 L-6,4 L-3,4 L-4,1 Z " fill="#594958" transform="translate(120,55)"/>
<path d="M0,0 L4,2 L2,6 L0,6 L-1,1 Z " fill="#695752" transform="translate(82,40)"/>
<path d="M0,0 L4,3 L-2,6 L-5,6 Z " fill="#4D4243" transform="translate(104,35)"/>
<path d="M0,0 L4,4 L4,9 L1,10 Z " fill="#7A6373" transform="translate(32,14)"/>
<path d="M0,0 L8,0 L8,2 L0,3 Z " fill="#47434F" transform="translate(122,0)"/>
<path d="M0,0 L7,0 L8,2 L3,3 L-3,2 Z " fill="#5B4D5D" transform="translate(107,0)"/>
<path d="M0,0 L1,2 L0,6 L-5,6 L-5,3 Z " fill="#695452" transform="translate(31,53)"/>
<path d="M0,0 L1,0 L1,7 L-1,7 L-1,9 L-4,9 L-2,5 Z " fill="#524646" transform="translate(11,22)"/>
<path d="M0,0 L1,0 L1,5 L-2,9 L-5,8 L-2,3 L0,3 Z " fill="#5D4E53" transform="translate(21,19)"/>
<path d="M0,0 L2,0 L2,4 L0,4 L2,11 L0,11 L-1,8 L-1,1 Z " fill="#756E6E" transform="translate(48,6)"/>
<path d="M0,0 L5,1 L5,4 L0,4 Z " fill="#706664" transform="translate(72,63)"/>
<path d="M0,0 L5,2 L7,2 L6,5 L1,4 Z " fill="#805F66" transform="translate(10,59)"/>
<path d="M0,0 L3,0 L1,5 L-5,3 L-4,1 Z " fill="#443746" transform="translate(130,56)"/>
<path d="M0,0 L3,1 L1,4 L-4,3 L-4,1 Z " fill="#5B5054" transform="translate(111,34)"/>
<path d="M0,0 L5,5 L5,8 L1,7 L-1,2 Z " fill="#453B49" transform="translate(128,14)"/>
<path d="M0,0 L8,0 L5,1 L5,3 L0,3 Z " fill="#292C38" transform="translate(123,82)"/>
<path d="M0,0 L2,1 L2,3 L4,3 L3,6 L-2,4 Z " fill="#443545" transform="translate(4,43)"/>
<path d="M0,0 L1,2 L-3,8 L-6,8 L-6,6 L-1,1 Z " fill="#3E3739" transform="translate(10,23)"/>
<path d="M0,0 L0,3 L-4,10 L-5,6 Z " fill="#3C2E30" transform="translate(23,22)"/>
<path d="M0,0 L4,4 L-4,4 Z " fill="#452F2D" transform="translate(76,18)"/>
<path d="M0,0 L6,1 L6,3 L-1,3 Z " fill="#131625" transform="translate(7,8)"/>
<path d="M0,0 L1,0 L1,10 L-1,11 L-2,7 Z " fill="#716263" transform="translate(64,0)"/>
<path d="M0,0 L5,0 L5,3 L0,4 Z " fill="#525568" transform="translate(0,0)"/>
<path d="M0,0 L5,1 L5,3 L-2,4 Z " fill="#7D736F" transform="translate(71,73)"/>
<path d="M0,0 L3,1 L4,4 L0,7 L-1,3 Z " fill="#827D7F" transform="translate(22,71)"/>
<path d="M0,0 L5,0 L5,3 L-1,3 Z " fill="#483C39" transform="translate(66,64)"/>
<path d="M0,0 L2,0 L2,2 L5,3 L-4,4 L-1,3 Z " fill="#413A48" transform="translate(126,31)"/>
<path d="M0,0 L2,0 L1,8 L-1,5 Z " fill="#4C2025" transform="translate(142,25)"/>
<path d="M0,0 L3,0 L3,4 L-2,4 Z " fill="#4D5567" transform="translate(6,12)"/>
<path d="M0,0 L7,0 L8,3 L1,3 Z " fill="#513040" transform="translate(140,10)"/>
<path d="M0,0 L3,0 L2,4 L-1,6 L-1,1 Z " fill="#736C6E" transform="translate(97,4)"/>
<path d="M0,0 L6,0 L6,2 L2,4 L0,3 Z " fill="#23131E" transform="translate(27,0)"/>
<path d="M0,0 L4,1 L4,3 L-4,3 Z " fill="#545769" transform="translate(43,82)"/>
<path d="M0,0 L1,3 L-1,5 L-4,5 L-4,1 Z " fill="#572E36" transform="translate(111,75)"/>
<path d="M0,0 L2,0 L2,4 L-3,4 L-2,1 Z " fill="#553839" transform="translate(30,61)"/>
<path d="M0,0 L4,0 L3,4 L-1,3 Z " fill="#746471" transform="translate(111,55)"/>
<path d="M0,0 L4,0 L4,4 L0,4 Z " fill="#9D8793" transform="translate(129,48)"/>
<path d="M0,0 L5,2 L6,0 L5,4 L0,4 Z " fill="#736272" transform="translate(122,39)"/>
<path d="M0,0 L4,1 L3,7 L0,3 Z " fill="#534138" transform="translate(14,28)"/>
<path d="M0,0 L5,0 L5,3 L0,3 Z " fill="#815D5C" transform="translate(76,28)"/>
<path d="M0,0 L4,1 L2,3 L-4,3 L-3,1 Z " fill="#321918" transform="translate(62,22)"/>
<path d="M0,0 L5,1 L5,4 L1,4 Z " fill="#4A3C45" transform="translate(103,11)"/>
<path d="M0,0 L2,0 L3,4 L5,4 L4,7 L1,6 Z " fill="#847778" transform="translate(48,10)"/>
<path d="M0,0 L2,1 L3,3 L-3,4 L-2,1 Z " fill="#9B92A2" transform="translate(121,69)"/>
<path d="M0,0 L5,0 L5,3 L0,3 Z " fill="#A08C93" transform="translate(33,70)"/>
<path d="M0,0 L6,0 L6,2 L1,3 Z " fill="#6F625F" transform="translate(65,68)"/>
<path d="M0,0 L3,3 L3,5 L-2,6 L-1,2 Z " fill="#6D6979" transform="translate(141,63)"/>
<path d="M0,0 L5,1 L5,6 L3,6 L2,1 Z " fill="#422D2C" transform="translate(46,64)"/>
<path d="M0,0 L2,3 L0,6 L-3,6 L-3,3 Z " fill="#3E2B38" transform="translate(125,49)"/>
<path d="M0,0 L5,0 L5,3 L0,3 Z " fill="#271A22" transform="translate(105,51)"/>
<path d="M0,0 L4,2 L4,4 L1,5 L-1,1 Z " fill="#7C6060" transform="translate(43,47)"/>
<path d="M0,0 L2,0 L0,5 L-2,6 L-2,1 Z " fill="#463431" transform="translate(96,29)"/>
<path d="M0,0 L1,0 L2,5 L6,7 L0,8 Z " fill="#79625F" transform="translate(103,23)"/>
<path d="M0,0 L2,0 L2,3 L-1,4 L-4,3 L-4,1 Z " fill="#A69DAD" transform="translate(128,23)"/>
<path d="M0,0 L3,0 L3,6 L-1,2 Z " fill="#6B4955" transform="translate(147,17)"/>
<path d="M0,0 L2,0 L4,4 L3,7 L0,4 Z " fill="#564656" transform="translate(137,14)"/>
<path d="M0,0 L3,0 L3,5 L0,5 Z " fill="#1C1419" transform="translate(40,10)"/>
<path d="M0,0 L3,0 L3,5 L1,6 L-2,3 L2,3 L2,1 Z " fill="#222736" transform="translate(11,8)"/>
<path d="M0,0 L9,0 L9,1 L2,1 L2,3 L-1,3 Z " fill="#5B3B40" transform="translate(79,5)"/>
<path d="M0,0 L5,0 L5,2 L-1,3 Z " fill="#C8D4DF" transform="translate(145,4)"/>
<path d="M0,0 L4,0 L3,3 L-2,3 Z " fill="#727578" transform="translate(31,82)"/>
<path d="M0,0 L4,0 L4,5 L2,5 L2,2 L0,2 Z " fill="#096E80" transform="translate(146,80)"/>
<path d="M0,0 L2,1 L-2,4 L-4,4 L-4,2 L-6,1 Z " fill="#625A5A" transform="translate(74,76)"/>
<path d="M0,0 L5,1 L5,3 L0,3 Z " fill="#2F2130" transform="translate(112,74)"/>
<path d="M0,0 L2,0 L3,5 L1,5 L1,3 L-2,4 L-2,2 L0,2 Z " fill="#62687C" transform="translate(124,74)"/>
<path d="M0,0 L4,1 L4,4 L0,3 Z " fill="#5E4E53" transform="translate(45,68)"/>
<path d="M0,0 L4,0 L3,3 L-2,3 Z " fill="#39302F" transform="translate(74,68)"/>
<path d="M0,0 L2,4 L3,6 L0,9 Z " fill="#898291" transform="translate(142,58)"/>
<path d="M0,0 L2,0 L2,3 L6,5 L1,4 L-1,3 Z " fill="#868489" transform="translate(2,33)"/>
<path d="M0,0 L4,0 L4,3 L-1,3 Z " fill="#392A29" transform="translate(46,23)"/>
<path d="M0,0 L4,1 L4,4 L0,4 Z " fill="#9B7986" transform="translate(143,19)"/>
<path d="M0,0 L5,0 L5,2 L2,2 L2,4 L0,4 Z " fill="#493D3D" transform="translate(44,20)"/>
<path d="M0,0 L3,0 L2,5 L0,5 Z " fill="#8F90A3" transform="translate(10,0)"/>
<path d="M0,0 L2,1 L1,4 L3,5 L-2,4 L-2,2 L0,2 Z " fill="#61504D" transform="translate(52,68)"/>
<path d="M0,0 L3,0 L3,5 L1,6 Z " fill="#1D161F" transform="translate(138,58)"/>
<path d="M0,0 L2,0 L2,4 L-2,5 Z " fill="#462726" transform="translate(23,57)"/>
<path d="M0,0 L4,1 L7,3 L1,3 Z " fill="#685261" transform="translate(128,52)"/>
<path d="M0,0 L5,0 L4,3 L0,2 Z " fill="#85706F" transform="translate(34,43)"/>
<path d="M0,0 L3,1 L3,4 L0,5 L-1,1 Z " fill="#594C5C" transform="translate(128,34)"/>
<path d="M0,0 L4,1 L2,4 L-1,3 Z " fill="#ADA4B5" transform="translate(123,13)"/>
<path d="M0,0 L2,0 L3,3 L1,3 L0,5 L-2,1 Z " fill="#7A6B7B" transform="translate(120,9)"/>
<path d="M0,0 L4,0 L2,4 L0,4 Z " fill="#4B4340" transform="translate(70,0)"/>
<path d="M0,0 L2,0 L4,5 L1,5 Z " fill="#22222D" transform="translate(116,80)"/>
<path d="M0,0 L3,2 L3,5 L0,5 Z " fill="#796C72" transform="translate(0,80)"/>
<path d="M0,0 L4,0 L4,6 L0,1 Z " fill="#4A3F48" transform="translate(0,79)"/>
<path d="M0,0 L2,0 L3,5 L0,4 Z " fill="#413A4A" transform="translate(135,62)"/>
<path d="M0,0 L3,0 L3,4 L0,4 Z " fill="#A38289" transform="translate(5,54)"/>
<path d="M0,0 L5,2 L2,4 L-1,3 Z " fill="#362F36" transform="translate(145,39)"/>
<path d="M0,0 L3,0 L2,5 L0,5 Z " fill="#6F606F" transform="translate(117,41)"/>
<path d="M0,0 L1,4 L3,4 L3,7 L0,6 Z " fill="#524946" transform="translate(92,32)"/>
<path d="M0,0 L3,0 L3,4 L0,4 Z " fill="#170B10" transform="translate(144,35)"/>
<path d="M0,0 L3,0 L3,4 L0,4 Z " fill="#856B6F" transform="translate(86,30)"/>
<path d="M0,0 L3,0 L2,4 L0,5 Z " fill="#5B5C6D" transform="translate(0,16)"/>
<path d="M0,0 L3,1 L1,2 L1,4 L-2,4 Z " fill="#463734" transform="translate(60,15)"/>
<path d="M0,0 L4,1 L0,4 Z " fill="#695766" transform="translate(29,8)"/>
<path d="M0,0 L5,0 L5,3 L1,2 Z " fill="#5C363B" transform="translate(80,0)"/>
<path d="M0,0 L5,1 L5,3 L0,2 Z " fill="#4ABCD0" transform="translate(143,82)"/>
<path d="M0,0 L4,0 L4,2 L-1,3 Z " fill="#9C7882" transform="translate(109,72)"/>
<path d="M0,0 L3,0 L3,3 L-1,3 Z " fill="#1F202F" transform="translate(127,70)"/>
<path d="M0,0 L2,0 L3,4 L-1,4 Z " fill="#20171F" transform="translate(115,64)"/>
<path d="M0,0 L3,0 L3,3 L1,3 L0,5 Z " fill="#4B3634" transform="translate(51,65)"/>
<path d="M0,0 L3,0 L3,3 L-1,4 Z " fill="#2B2932" transform="translate(147,63)"/>
<path d="M0,0 L0,3 L-4,4 L-3,1 Z " fill="#5A3F3F" transform="translate(30,59)"/>
<path d="M0,0 L3,1 L2,6 L0,4 Z " fill="#645359" transform="translate(138,52)"/>
<path d="M0,0 L3,2 L2,4 L-2,3 L0,2 Z " fill="#7A626F" transform="translate(133,50)"/>
<path d="M0,0 L3,0 L2,3 L-3,3 L0,2 Z " fill="#978494" transform="translate(133,42)"/>
<path d="M0,0 L3,1 L3,5 L1,5 Z " fill="#3D2926" transform="translate(69,40)"/>
<path d="M0,0 L5,1 L1,4 Z " fill="#36231F" transform="translate(19,30)"/>
<path d="M0,0 L5,1 L2,4 L0,4 Z " fill="#857E8C" transform="translate(123,29)"/>
<path d="M0,0 L3,0 L2,3 L-2,2 Z " fill="#4C3332" transform="translate(66,22)"/>
<path d="M0,0 L1,2 L0,4 L-3,4 L-3,1 Z " fill="#3B2E2D" transform="translate(63,11)"/>
<path d="M0,0 L2,0 L2,2 L4,3 L2,3 L1,6 Z " fill="#5A4345" transform="translate(86,8)"/>
<path d="M0,0 L2,1 L1,5 L-1,5 Z " fill="#070206" transform="translate(68,5)"/>
<path d="M0,0 L1,0 L1,5 L-3,6 Z " fill="#513846" transform="translate(37,0)"/>
<path d="M0,0 L6,0 L2,3 L0,3 Z " fill="#443340" transform="translate(101,0)"/>
<path d="M0,0 L2,0 L1,5 L-2,4 Z " fill="#433634" transform="translate(74,0)"/>
<path d="M0,0 L3,1 L3,4 L0,4 Z " fill="#988D98" transform="translate(96,79)"/>
<path d="M0,0 L3,0 L3,2 L1,2 L0,5 L-1,1 Z " fill="#242C41" transform="translate(120,74)"/>
<path d="M0,0 L2,0 L1,3 L-3,2 Z " fill="#514844" transform="translate(69,70)"/>
<path d="M0,0 L2,0 L1,3 L-4,3 Z " fill="#BFBAC9" transform="translate(129,66)"/>
<path d="M0,0 L2,0 L2,4 L-1,4 Z " fill="#686373" transform="translate(133,63)"/>
<path d="M0,0 L1,2 L3,2 L3,4 L-1,4 Z " fill="#211824" transform="translate(122,62)"/>
<path d="M0,0 L5,1 L2,3 L0,2 Z " fill="#160C15" transform="translate(120,59)"/>
<path d="M0,0 L2,0 L2,4 L-1,3 Z " fill="#1B252E" transform="translate(148,44)"/>
<path d="M0,0 L3,0 L2,4 L0,3 Z " fill="#493B38" transform="translate(80,35)"/>
<path d="M0,0 L2,0 L2,4 L-1,4 Z " fill="#6A5E5B" transform="translate(99,33)"/>
<path d="M0,0 L4,0 L4,3 L0,2 Z " fill="#362524" transform="translate(40,28)"/>
<path d="M0,0 L2,1 L2,4 L-1,4 Z " fill="#B09799" transform="translate(106,24)"/>
<path d="M0,0 L2,0 L2,4 L-1,4 Z " fill="#AFA8B9" transform="translate(114,5)"/>
<path d="M0,0 L3,0 L3,3 L0,4 Z " fill="#332A28" transform="translate(67,0)"/>
<path d="M0,0 L3,1 L2,3 L-2,2 L0,2 Z " fill="#413840" transform="translate(34,78)"/>
<path d="M0,0 L2,0 L1,4 L-1,4 Z " fill="#020102" transform="translate(120,61)"/>
<path d="M0,0 L2,0 L2,3 L-2,2 Z " fill="#433241" transform="translate(118,53)"/>
<path d="M0,0 L3,0 L3,3 L0,3 Z " fill="#2C1C26" transform="translate(138,41)"/>
<path d="M0,0 L3,0 L3,3 L0,3 Z " fill="#816668" transform="translate(135,31)"/>
<path d="M0,0 L1,2 L3,3 L-1,4 Z " fill="#442E2D" transform="translate(39,28)"/>
<path d="M0,0 L2,2 L1,6 L-1,2 Z " fill="#494151" transform="translate(128,14)"/>
<path d="M0,0 L1,3 L-2,4 Z " fill="#362E35" transform="translate(113,81)"/>
<path d="M0,0 L2,0 L2,3 L-1,3 Z " fill="#5D5059" transform="translate(47,74)"/>
<path d="M0,0 L2,0 L2,3 L-1,3 Z " fill="#9E9AAB" transform="translate(135,70)"/>
<path d="M0,0 L4,2 L2,2 L1,4 Z " fill="#625763" transform="translate(124,62)"/>
<path d="M0,0 L2,0 L1,3 L-2,2 Z " fill="#665755" transform="translate(67,61)"/>
<path d="M0,0 L3,1 L2,3 L-1,2 Z " fill="#44251D" transform="translate(22,50)"/>
<path d="M0,0 L3,0 L2,3 L0,3 Z " fill="#CFCCD9" transform="translate(128,26)"/>
<path d="M0,0 L3,0 L3,3 L0,2 Z " fill="#A397A7" transform="translate(125,18)"/>
<path d="M0,0 L2,0 L2,3 L-1,3 Z " fill="#61667A" transform="translate(6,12)"/>
<path d="M0,0 L2,0 L2,3 L-1,3 Z " fill="#6D6768" transform="translate(48,6)"/>
<path d="M0,0 L2,0 L1,3 L-1,3 Z " fill="#251717" transform="translate(142,52)"/>
<path d="M0,0 L2,1 L2,3 L-1,3 Z " fill="#958792" transform="translate(138,48)"/>
<path d="M0,0 L2,0 L1,3 L-1,3 Z " fill="#896872" transform="translate(51,14)"/>
</svg>
