<?xml version="1.0" encoding="UTF-8"?>
<!-- Generator: visioncortex VTracer 0.6.5 -->
<svg version="1.1" xmlns="http://www.w3.org/2000/svg" width="150" height="84">
<path d="M0,0 L150,0 L150,84 L0,84 Z " fill="#555F66" transform="translate(0,0)"/>
<path d="M0,0 L10,0 L10,2 L15,2 L15,0 L23,0 L27,1 L27,3 L30,3 L30,6 L38,7 L38,4 L49,5 L53,7 L53,10 L45,11 L46,16 L46,19 L52,18 L53,14 L58,16 L61,22 L62,26 L57,30 L53,30 L53,32 L47,32 L46,37 L49,38 L49,41 L53,41 L53,45 L46,45 L46,47 L40,47 L33,45 L34,48 L36,49 L36,51 L30,53 L23,53 L19,51 L19,47 L13,46 L13,45 L8,44 L8,42 L5,43 L4,45 L8,45 L8,47 L12,47 L12,50 L8,50 L8,48 L-2,48 L-11,44 L-11,41 L-14,41 L-15,39 L-15,30 L-19,30 L-20,21 L-16,19 L-9,19 L-8,16 L-7,15 L-14,13 L-13,6 L-9,4 L-2,2 Z " fill="#010203" transform="translate(52,15)"/>
<path d="M0,0 L10,0 L10,2 L15,2 L15,0 L23,0 L27,2 L18,3 L21,4 L20,8 L14,8 L14,10 L2,9 L2,11 L0,11 L0,17 L-6,17 L-7,15 L-14,13 L-13,6 L-9,4 L-2,2 Z " fill="#273137" transform="translate(52,15)"/>
<path d="M0,0 L1,4 L12,5 L13,10 L17,10 L17,8 L20,9 L19,11 L21,12 L15,14 L15,16 L20,16 L20,19 L14,19 L14,21 L8,19 L8,16 L5,16 L4,14 L4,5 L0,5 Z " fill="#070E13" transform="translate(33,40)"/>
<path d="M0,0 L12,1 L13,5 L11,5 L11,8 L18,8 L25,11 L21,13 L14,13 L10,11 L10,7 L4,6 L4,5 L-1,4 L-2,1 Z " fill="#091114" transform="translate(61,55)"/>
<path d="M0,0 L11,1 L15,3 L15,6 L7,7 L8,10 L4,10 L4,8 L6,8 L5,4 L-10,4 L-10,1 L0,3 Z " fill="#141B1F" transform="translate(90,19)"/>
<path d="M0,0 L10,0 L7,2 L5,2 L5,4 L-2,10 L-3,13 L-7,13 L-7,6 Z " fill="#03070C" transform="translate(52,15)"/>
<path d="M0,0 L1,3 L-4,7 L-8,7 L-8,9 L-14,9 L-15,14 L-17,10 L-17,5 L-9,4 L-8,2 L-8,5 L-5,5 L-5,1 L0,2 Z " fill="#0E1619" transform="translate(113,38)"/>
<path d="M0,0 L3,0 L3,2 L9,2 L11,4 L14,5 L14,9 L26,11 L22,13 L19,14 L12,9 L12,7 L7,8 L7,5 L3,5 L3,3 L-1,3 Z " fill="#5E686D" transform="translate(57,57)"/>
<path d="M0,0 L8,0 L12,2 L3,3 L6,4 L5,8 L-1,8 L-6,3 L-8,1 L0,2 Z " fill="#1A2023" transform="translate(67,15)"/>
<path d="M0,0 L5,2 L8,8 L8,11 L3,10 L2,5 L-7,6 L-4,4 L-1,4 Z " fill="#070C0F" transform="translate(105,29)"/>
<path d="M0,0 L7,1 L13,2 L14,0 L14,3 L8,5 L4,5 L4,7 L1,6 L3,6 L3,4 L0,3 Z " fill="#343D41" transform="translate(85,60)"/>
<path d="M0,0 L5,0 L4,2 L2,2 L2,9 L-3,9 L-3,3 Z " fill="#2A343B" transform="translate(43,19)"/>
<path d="M0,0 L1,3 L-4,7 L-8,7 L-9,9 L-11,5 L-9,5 L-8,2 L-8,5 L-5,5 L-5,1 L0,2 Z " fill="#2E383D" transform="translate(113,38)"/>
<path d="M0,0 L2,1 L1,7 L12,6 L12,10 L7,10 L-1,7 Z " fill="#444E54" transform="translate(39,21)"/>
<path d="M0,0 L8,0 L6,3 L-1,3 L-6,4 L-3,1 Z " fill="#677276" transform="translate(89,66)"/>
<path d="M0,0 L6,0 L8,4 L2,4 L-5,2 L-6,4 L-6,1 Z " fill="#081115" transform="translate(90,58)"/>
<path d="M0,0 L5,1 L6,3 L11,4 L9,6 L5,6 L5,4 L-1,4 Z " fill="#5C656C" transform="translate(57,17)"/>
<path d="M0,0 L4,0 L4,2 L8,2 L8,5 L4,5 L4,3 L-6,3 L-9,1 L0,1 Z " fill="#131D22" transform="translate(56,60)"/>
<path d="M0,0 L3,0 L5,7 L6,9 L2,9 L1,6 L-1,5 Z " fill="#3D474C" transform="translate(99,47)"/>
<path d="M0,0 L4,1 L2,2 L1,6 L-4,6 L-4,1 Z " fill="#747D84" transform="translate(88,16)"/>
<path d="M0,0 L8,1 L6,2 L6,4 L12,4 L12,6 L7,7 L2,2 Z " fill="#353C41" transform="translate(59,16)"/>
<path d="M0,0 L5,0 L3,1 L2,5 L-4,6 L-4,3 L-1,3 Z " fill="#353E43" transform="translate(102,28)"/>
<path d="M0,0 L9,1 L6,3 L1,3 L2,6 L-2,6 L-2,4 L0,4 Z " fill="#313A3F" transform="translate(96,23)"/>
<path d="M0,0 L5,1 L6,5 L0,5 Z " fill="#2D383D" transform="translate(39,45)"/>
<path d="M0,0 L10,0 L9,2 L1,2 L1,4 L-2,3 Z " fill="#6F787D" transform="translate(66,13)"/>
<path d="M0,0 L3,0 L3,2 L9,2 L8,4 L3,5 L3,3 L-1,3 Z " fill="#545D62" transform="translate(57,57)"/>
<path d="M0,0 L6,0 L4,5 L0,4 Z " fill="#5D656A" transform="translate(97,26)"/>
<path d="M0,0 L9,2 L9,4 L2,4 L-1,1 Z " fill="#070B0E" transform="translate(73,64)"/>
<path d="M0,0 L10,2 L10,3 L1,4 Z " fill="#747E85" transform="translate(42,61)"/>
<path d="M0,0 L6,0 L6,3 L0,3 Z " fill="#1D272E" transform="translate(47,56)"/>
<path d="M0,0 L3,0 L3,2 L7,3 L6,4 L1,4 Z " fill="#0C1316" transform="translate(91,27)"/>
<path d="M0,0 L1,2 L4,2 L4,5 L6,6 L1,5 Z " fill="#424D54" transform="translate(37,54)"/>
<path d="M0,0 L6,1 L2,6 L2,3 L-1,3 Z " fill="#1A252A" transform="translate(39,53)"/>
<path d="M0,0 L5,0 L6,3 L2,4 L2,1 Z " fill="#6C767C" transform="translate(62,61)"/>
<path d="M0,0 L5,1 L5,3 L0,3 Z " fill="#646E76" transform="translate(57,17)"/>
<path d="M0,0 L6,0 L6,3 L3,3 L3,1 Z " fill="#576065" transform="translate(39,29)"/>
<path d="M0,0 L4,0 L4,3 L0,3 Z " fill="#272E32" transform="translate(60,62)"/>
<path d="M0,0 L2,0 L2,5 L-2,3 L0,3 Z " fill="#0C141A" transform="translate(45,56)"/>
<path d="M0,0 L2,1 L2,5 L-1,5 Z " fill="#050C10" transform="translate(106,38)"/>
<path d="M0,0 L3,1 L3,4 L0,4 Z " fill="#050B0F" transform="translate(34,40)"/>
<path d="M0,0 L3,1 L2,4 L-1,3 Z " fill="#0D161B" transform="translate(90,19)"/>
<path d="M0,0 L7,0 L3,2 L0,2 Z " fill="#39434B" transform="translate(49,14)"/>
<path d="M0,0 L3,1 L1,3 L-2,3 L-2,1 Z " fill="#5B666B" transform="translate(97,63)"/>
<path d="M0,0 L5,1 L1,3 Z " fill="#606A72" transform="translate(37,59)"/>
<path d="M0,0 L4,0 L4,3 L1,3 Z " fill="#02080C" transform="translate(101,56)"/>
<path d="M0,0 L1,3 L-1,5 L-2,1 Z " fill="#0D161A" transform="translate(98,47)"/>
<path d="M0,0 L2,1 L2,3 L-1,3 Z " fill="#242F35" transform="translate(39,53)"/>
</svg>
