<?xml version="1.0" encoding="UTF-8"?>
<!-- Generator: visioncortex VTracer 0.6.5 -->
<svg version="1.1" xmlns="http://www.w3.org/2000/svg" width="150" height="85">
<path d="M0,0 L150,0 L150,85 L0,85 Z " fill="#413A57" transform="translate(0,0)"/>
<path d="M0,0 L73,0 L73,2 L70,2 L68,8 L70,8 L71,12 L69,13 L72,14 L72,12 L78,12 L76,19 L76,23 L77,30 L75,33 L74,39 L63,39 L60,41 L56,41 L55,46 L49,47 L42,45 L42,49 L48,51 L48,54 L44,54 L43,59 L49,61 L47,65 L33,65 L33,63 L25,63 L25,66 L28,66 L29,64 L29,72 L39,73 L39,75 L36,75 L37,80 L44,81 L46,79 L46,75 L54,75 L54,80 L52,82 L61,83 L62,85 L0,85 Z M73,22 Z " fill="#433B58" transform="translate(0,0)"/>
<path d="M0,0 L3,1 L5,5 L4,9 L1,13 L0,17 L2,17 L2,15 L6,17 L3,19 L2,23 L-5,27 L-3,30 L-1,28 L8,28 L10,30 L10,35 L6,36 L6,44 L5,46 L0,45 L0,49 L6,50 L6,45 L8,46 L8,49 L14,47 L17,44 L19,44 L19,42 L23,40 L24,38 L29,39 L29,37 L24,37 L24,34 L30,34 L29,32 L25,30 L25,22 L26,20 L33,19 L34,26 L38,28 L37,31 L44,31 L42,32 L43,34 L46,35 L47,41 L50,42 L51,49 L52,48 L52,42 L51,42 L51,37 L55,39 L56,42 L60,46 L63,46 L64,42 L70,42 L70,67 L-18,67 L-19,66 L-29,65 L-27,62 L-26,57 L-34,57 L-33,62 L-36,64 L-40,63 L-43,62 L-44,57 L-41,57 L-41,55 L-51,54 L-52,48 L-55,48 L-55,45 L-47,45 L-47,47 L-33,46 L-31,43 L-36,43 L-38,39 L-36,36 L-32,36 L-33,33 L-39,32 L-38,27 L-25,28 L-24,23 L-17,20 L-6,21 L-6,14 L-4,11 L-5,3 Z M46,34 Z " fill="#48415A" transform="translate(80,18)"/>
<path d="M0,0 L65,0 L65,7 L63,7 L63,11 L61,12 L60,18 L61,20 L59,24 L59,31 L57,37 L56,38 L41,38 L40,42 L37,42 L38,48 L36,53 L33,53 L32,49 L26,48 L26,45 L24,45 L23,35 L21,34 L19,34 L15,36 L11,34 L6,36 L0,36 Z " fill="#453E56" transform="translate(0,0)"/>
<path d="M0,0 L3,1 L5,5 L4,9 L1,13 L0,22 L-2,22 L-3,25 L-15,26 L-14,32 L-17,34 L-21,34 L-22,40 L-20,40 L-20,50 L-21,55 L-25,56 L-35,56 L-35,54 L-38,54 L-38,52 L-40,52 L-40,54 L-51,54 L-52,48 L-55,48 L-55,45 L-47,45 L-47,47 L-33,46 L-31,43 L-36,43 L-38,39 L-36,36 L-32,36 L-33,33 L-39,32 L-38,27 L-25,28 L-24,23 L-17,20 L-6,21 L-6,14 L-4,11 L-5,3 Z " fill="#5B5469" transform="translate(80,18)"/>
<path d="M0,0 L2,4 L4,5 L6,13 L7,9 L5,8 L6,5 L8,5 L8,3 L10,3 L11,10 L27,12 L27,10 L29,10 L28,15 L22,16 L20,21 L15,21 L15,27 L-13,27 L-14,25 L-21,24 L-21,13 L-15,11 L-6,8 L-2,9 L-2,4 Z " fill="#57546F" transform="translate(105,58)"/>
<path d="M0,0 L4,2 L5,5 L9,9 L12,9 L13,5 L19,5 L19,30 L-11,30 L-11,24 L-6,24 L-5,19 L-4,18 L2,18 L2,12 L1,11 L1,5 L0,5 Z " fill="#716490" transform="translate(131,55)"/>
<path d="M0,0 L16,0 L16,29 L6,29 L6,33 L2,32 L1,26 L-1,26 L-3,20 L-4,16 L-3,15 L2,15 L2,10 L-3,10 L-3,8 L0,8 Z " fill="#251F37" transform="translate(134,0)"/>
<path d="M0,0 L5,0 L4,5 L7,5 L7,1 L9,1 L9,5 L13,5 L13,2 L17,2 L17,7 L19,7 L20,13 L24,14 L24,10 L34,10 L34,16 L32,16 L32,24 L30,25 L29,30 L27,30 L26,33 L24,33 L24,30 L26,30 L26,23 L28,16 L26,16 L26,19 L24,19 L23,21 L23,18 L19,19 L19,16 L16,16 L15,19 L13,19 L13,16 L11,16 L11,14 L13,14 L13,10 L7,9 L7,16 L9,17 L9,21 L7,22 L8,25 L2,25 L3,21 L-1,22 L-1,12 L2,12 L2,9 L-3,9 L-1,8 L-1,3 L1,3 Z " fill="#493F5B" transform="translate(116,19)"/>
<path d="M0,0 L37,0 L36,6 L42,5 L41,9 L34,7 L34,3 L28,3 L26,8 L25,5 L21,5 L21,15 L19,17 L13,14 L11,15 L10,20 L7,20 L6,12 L0,12 Z " fill="#60656B" transform="translate(0,0)"/>
<path d="M0,0 L8,0 L13,3 L19,3 L23,2 L23,4 L33,5 L33,8 L22,7 L22,10 L32,10 L32,15 L0,15 Z " fill="#52536A" transform="translate(0,70)"/>
<path d="M0,0 L6,1 L8,4 L12,6 L12,8 L6,8 L6,11 L11,11 L11,13 L6,12 L4,16 L1,16 L1,18 L-3,19 L-4,22 L-10,23 L-11,20 L-12,24 L-18,23 L-18,19 L-13,20 L-12,10 L-8,8 L-6,4 L-4,4 L-3,1 Z " fill="#3F3953" transform="translate(98,44)"/>
<path d="M0,0 L3,3 L5,16 L3,17 L3,29 L0,29 L0,27 L-6,28 L-5,18 L-6,16 L-6,7 L-14,10 L-16,14 L-20,14 L-20,4 L-12,2 L-7,1 L-3,3 Z " fill="#272137" transform="translate(20,32)"/>
<path d="M0,0 L6,1 L6,5 L4,5 L4,7 L6,7 L6,10 L8,10 L9,6 L10,7 L10,13 L14,12 L14,16 L18,15 L18,20 L15,20 L14,23 L9,23 L9,19 L7,19 L7,17 L2,17 L3,21 L5,22 L5,25 L7,25 L7,32 L3,31 L3,25 L-1,24 L-1,22 L-7,22 L-8,20 L-6,18 L-9,17 L-9,13 L-4,12 L-3,9 L-4,14 L-5,16 L-3,16 L-2,14 L-2,16 L1,16 L-1,12 L2,12 L0,7 Z M3,24 Z " fill="#40374F" transform="translate(123,28)"/>
<path d="M0,0 L8,0 L8,16 L-17,16 L-16,12 L-12,11 L-12,13 L-8,13 L-8,9 L-6,9 L-6,6 L-3,5 L-2,2 L0,2 Z " fill="#3E4669" transform="translate(142,69)"/>
<path d="M0,0 L2,0 L3,9 L4,12 L2,21 L4,21 L5,25 L-4,24 L-1,22 L-6,21 L-7,14 L-12,14 L-12,7 L-8,6 L-6,2 Z " fill="#3A364A" transform="translate(12,39)"/>
<path d="M0,0 L9,0 L10,6 L13,7 L13,15 L11,16 L9,15 L9,18 L1,22 L3,15 L5,12 L-1,12 L0,15 L-5,14 L-3,11 L-3,8 L-5,8 L-4,4 L-3,2 L0,2 Z M0,22 Z " fill="#494157" transform="translate(73,0)"/>
<path d="M0,0 L3,1 L3,4 L9,5 L12,4 L12,13 L11,15 L6,15 L6,17 L4,17 L4,13 L0,13 L0,15 L2,15 L2,17 L-2,17 L-2,15 L-5,15 L-5,13 L-12,13 L-12,11 L-3,10 L-2,5 L0,5 Z " fill="#4D4560" transform="translate(109,1)"/>
<path d="M0,0 L11,0 L14,10 L16,15 L13,14 L11,15 L10,20 L7,20 L6,12 L0,12 Z " fill="#4C505A" transform="translate(0,0)"/>
<path d="M0,0 L5,0 L6,7 L11,7 L14,10 L17,11 L17,13 L21,14 L18,20 L14,18 L14,15 L0,15 Z " fill="#19142B" transform="translate(0,53)"/>
<path d="M0,0 L4,1 L4,4 L2,4 L2,7 L5,9 L5,11 L8,11 L9,8 L16,10 L16,12 L-10,12 L-11,5 L-15,6 L-14,2 L-5,2 L0,3 Z " fill="#5C5574" transform="translate(76,73)"/>
<path d="M0,0 L2,3 L2,6 L6,7 L6,3 L16,3 L16,9 L14,9 L14,17 L12,18 L11,23 L9,23 L8,26 L6,26 L6,23 L8,23 L8,16 L10,9 L8,9 L8,12 L6,12 L5,14 L5,11 L1,12 L1,9 L-1,9 Z " fill="#968AB3" transform="translate(134,26)"/>
<path d="M0,0 L14,0 L14,12 L8,12 L8,20 L4,20 L4,11 L7,11 L4,8 L4,5 L0,5 Z " fill="#4C4B5B" transform="translate(136,0)"/>
<path d="M0,0 L6,1 L8,4 L12,6 L12,8 L6,8 L6,11 L11,11 L11,13 L6,12 L4,16 L-2,14 L-3,16 L-4,12 L-4,2 Z " fill="#39314B" transform="translate(98,44)"/>
<path d="M0,0 L2,0 L3,9 L1,15 L-2,15 L-1,21 L-3,26 L-6,26 L-7,22 L-13,21 L-14,17 L-8,17 L-6,11 L-2,11 L-4,9 L-4,3 Z " fill="#534A5E" transform="translate(39,27)"/>
<path d="M0,0 L8,0 L8,2 L5,2 L3,8 L5,8 L6,12 L4,13 L0,23 L-3,27 L-3,23 L-5,23 L-6,15 L-4,11 L-2,11 L-2,7 L0,7 Z " fill="#36354B" transform="translate(65,0)"/>
<path d="M0,0 L5,0 L6,2 L12,1 L11,9 L6,9 L6,15 L-3,15 L-3,5 L-1,6 Z " fill="#2D242E" transform="translate(114,70)"/>
<path d="M0,0 L3,1 L3,9 L8,9 L8,7 L10,7 L10,11 L6,14 L3,13 L4,16 L-1,19 L-4,19 L-4,1 Z " fill="#323745" transform="translate(4,11)"/>
<path d="M0,0 L3,0 L3,2 L13,3 L13,6 L2,5 L2,8 L12,8 L12,13 L0,13 L0,11 L-11,11 L-10,6 L1,7 L1,2 L-1,1 Z " fill="#5C546D" transform="translate(20,72)"/>
<path d="M0,0 L2,0 L2,5 L6,5 L6,8 L9,9 L9,11 L6,11 L6,20 L5,16 L-1,18 L3,25 L6,26 L6,28 L16,28 L16,29 L6,29 L6,33 L2,32 L1,26 L-1,26 L-3,20 L-4,16 L-3,15 L2,15 L2,10 L-3,10 L-3,8 L0,8 Z " fill="#3A2C3A" transform="translate(134,0)"/>
<path d="M0,0 L3,1 L5,5 L4,9 L1,13 L0,22 L-10,22 L-6,21 L-6,14 L-4,11 L-5,3 Z " fill="#594868" transform="translate(80,18)"/>
<path d="M0,0 L15,2 L14,5 L2,6 L3,12 L0,14 L-4,14 L-5,16 L-4,12 L-1,12 L-2,10 L-10,9 L-8,8 L-7,3 Z " fill="#545473" transform="translate(63,38)"/>
<path d="M0,0 L12,0 L12,8 L9,8 L9,10 L14,10 L14,15 L6,17 L6,15 L8,15 L8,11 L1,11 L1,9 L4,9 L0,2 Z " fill="#433E56" transform="translate(122,0)"/>
<path d="M0,0 L4,1 L2,6 L5,7 L2,7 L2,10 L0,10 L0,14 L-4,14 L-4,12 L-8,14 L-9,17 L-14,17 L-14,11 L-9,11 L-8,6 L-7,5 L-1,5 Z " fill="#56618A" transform="translate(134,68)"/>
<path d="M0,0 L4,1 L2,11 L6,12 L6,20 L4,20 L4,22 L-2,22 L-3,19 L-3,8 L0,7 Z " fill="#645A85" transform="translate(104,63)"/>
<path d="M0,0 L2,0 L3,2 L9,3 L9,0 L11,0 L11,6 L10,7 L9,14 L6,14 L6,18 L-5,18 L-5,15 L-8,14 L-8,10 L-3,10 L-3,12 L-1,12 L-1,16 L4,15 L5,13 L8,13 L8,8 L4,9 L4,5 L0,6 Z " fill="#544B6A" transform="translate(133,35)"/>
<path d="M0,0 L2,2 L1,11 L-1,13 L-9,12 L-11,11 L-11,4 L-9,2 L-3,2 L-1,3 Z " fill="#464666" transform="translate(57,25)"/>
<path d="M0,0 L2,0 L3,7 L19,9 L19,7 L21,7 L20,12 L13,13 L12,11 L6,12 L6,9 L1,9 L1,17 L-1,15 L-2,24 L-5,24 L-5,22 L-3,22 L-3,10 L-1,6 L-3,5 L-2,2 L0,2 Z " fill="#3F3C50" transform="translate(113,61)"/>
<path d="M0,0 L15,0 L19,6 L19,9 L16,9 L16,11 L23,11 L23,13 L18,15 L14,15 L14,5 L11,7 L8,6 L5,5 L4,2 Z " fill="#474359" transform="translate(107,0)"/>
<path d="M0,0 L3,1 L1,1 L1,4 L6,4 L6,10 L1,13 L-8,12 L-10,9 L-8,9 L-7,4 L-10,5 L-9,2 L-3,2 L-2,5 L-3,7 L3,7 L4,8 L5,5 L-1,6 Z M-11,10 Z " fill="#464353" transform="translate(37,0)"/>
<path d="M0,0 L7,0 L7,5 L5,7 L14,8 L15,10 L-13,10 L-13,6 L0,7 Z " fill="#322E3D" transform="translate(47,75)"/>
<path d="M0,0 L1,0 L3,15 L-5,15 L-5,12 L-10,11 L-10,9 L-12,9 L-12,7 L-5,5 L0,5 Z " fill="#33354E" transform="translate(99,70)"/>
<path d="M0,0 L9,0 L12,5 L11,8 L10,7 L9,15 L2,15 L0,12 L6,11 L6,5 L-2,4 L-2,1 Z M-1,13 Z " fill="#3A3146" transform="translate(40,0)"/>
<path d="M0,0 L7,0 L7,7 L5,7 L5,9 L3,9 L3,6 L1,6 L-1,10 L-5,13 L-8,12 L-8,9 L-5,9 L-5,5 Z " fill="#544D62" transform="translate(58,0)"/>
<path d="M0,0 L19,0 L19,2 L14,4 L16,5 L16,7 L6,8 L5,6 L3,6 L3,4 L1,4 Z " fill="#4E4967" transform="translate(88,0)"/>
<path d="M0,0 L4,0 L5,7 L9,9 L8,11 L6,11 L6,9 L1,12 L-4,11 L-4,3 L-3,1 Z " fill="#4D4358" transform="translate(109,37)"/>
<path d="M0,0 L2,1 L2,7 L6,6 L6,10 L10,9 L10,14 L7,14 L6,17 L1,17 L1,13 L-1,12 L1,11 L0,6 L-2,5 L-2,8 L-4,8 L-3,1 L-2,4 L0,4 Z " fill="#3E3550" transform="translate(131,34)"/>
<path d="M0,0 L7,3 L14,5 L14,11 L16,11 L17,15 L8,14 L11,12 L6,11 L5,4 L0,4 Z " fill="#5A566D" transform="translate(0,49)"/>
<path d="M0,0 L8,0 L10,1 L11,8 L7,9 L5,8 L-1,8 L-3,9 L-2,1 Z " fill="#3A3454" transform="translate(43,37)"/>
<path d="M0,0 L4,0 L5,3 L2,7 L-2,8 L-4,12 L-8,12 L-8,2 Z " fill="#221D2F" transform="translate(8,34)"/>
<path d="M0,0 L8,0 L9,5 L20,6 L20,8 L0,8 Z " fill="#2D354E" transform="translate(0,77)"/>
<path d="M0,0 L4,0 L4,2 L2,2 L2,4 L5,5 L6,8 L3,8 L3,11 L-1,11 L-1,7 L-3,7 L-3,11 L-6,11 L-6,1 L-1,1 Z " fill="#483D4D" transform="translate(126,13)"/>
<path d="M0,0 L2,0 L2,2 L5,2 L5,4 L7,5 L7,10 L4,12 L0,11 L-3,10 L-4,5 L-1,5 L-1,3 L-5,2 L0,2 Z " fill="#424360" transform="translate(40,70)"/>
<path d="M0,0 L3,0 L2,4 L-4,8 L-10,11 L-15,11 L-15,24 L-18,24 L-22,19 L-21,17 L-19,17 L-19,20 L-16,20 L-16,10 L-5,5 L-2,2 L0,2 Z " fill="#4E4B64" transform="translate(99,60)"/>
<path d="M0,0 L5,0 L6,7 L11,7 L14,11 L0,11 Z " fill="#3A3149" transform="translate(0,53)"/>
<path d="M0,0 L6,0 L11,3 L11,5 L14,5 L15,2 L22,4 L22,6 L0,6 Z " fill="#56627F" transform="translate(70,79)"/>
<path d="M0,0 L6,1 L6,5 L4,5 L5,11 L4,14 L6,14 L6,11 L9,12 L9,16 L1,16 L-1,12 L2,12 L0,7 Z " fill="#1B1631" transform="translate(123,28)"/>
<path d="M0,0 L2,3 L2,8 L-2,12 L-9,10 L-9,5 L-1,1 Z " fill="#665E72" transform="translate(58,60)"/>
<path d="M0,0 L3,1 L4,3 L11,4 L11,9 L13,10 L13,13 L4,13 L3,10 L5,10 L3,6 L0,5 Z " fill="#241D31" transform="translate(28,50)"/>
<path d="M0,0 L3,0 L3,9 L-12,9 L-11,5 L-7,4 L-7,6 L-3,6 L-3,2 Z " fill="#1E2D4A" transform="translate(137,76)"/>
<path d="M0,0 L2,1 L3,5 L-1,6 Z M-4,6 L3,7 L4,11 L2,15 L-5,15 L-6,11 Z " fill="#3B314F" transform="translate(87,30)"/>
<path d="M0,0 L2,0 L2,11 L-5,11 L-5,14 L-8,14 L-7,7 L-2,2 Z " fill="#070517" transform="translate(148,49)"/>
<path d="M0,0 L2,0 L3,9 L1,15 L-5,16 L-5,14 L-1,12 L-4,9 L-4,3 Z " fill="#534E68" transform="translate(39,27)"/>
<path d="M0,0 L2,0 L2,14 L-3,18 L-5,18 L-6,25 L-8,25 L-8,18 L-6,18 L-5,14 L-3,14 L-3,9 L0,8 Z " fill="#52496D" transform="translate(148,35)"/>
<path d="M0,0 L2,0 L3,7 L5,9 L1,10 L1,15 L-3,16 L-3,1 Z " fill="#171027" transform="translate(3,13)"/>
<path d="M0,0 L4,2 L5,5 L9,9 L9,14 L4,14 L1,11 L1,5 L0,5 Z " fill="#71677C" transform="translate(131,55)"/>
<path d="M0,0 L2,3 L2,6 L6,7 L7,3 L8,5 L12,6 L11,12 L10,9 L8,9 L8,12 L6,12 L5,14 L5,11 L1,12 L1,9 L-1,9 Z " fill="#7A6B8A" transform="translate(134,26)"/>
<path d="M0,0 L6,0 L6,12 L0,12 Z " fill="#727276" transform="translate(144,0)"/>
<path d="M0,0 L5,0 L8,5 L7,10 L0,10 Z " fill="#5C626A" transform="translate(0,0)"/>
<path d="M0,0 L6,0 L6,2 L10,2 L10,4 L-1,4 L-4,6 L-8,6 L-9,11 L-15,12 L-22,10 L-22,9 L-16,9 L-10,10 L-11,5 L-4,3 Z M5,2 Z " fill="#473E65" transform="translate(64,35)"/>
<path d="M0,0 L5,0 L4,5 L7,5 L7,1 L9,1 L9,8 L2,10 L-3,9 L-1,8 L-1,3 L1,3 Z " fill="#4E4B69" transform="translate(116,19)"/>
<path d="M0,0 L9,1 L11,8 L2,7 L0,6 Z " fill="#766E81" transform="translate(118,62)"/>
<path d="M0,0 L1,0 L0,7 L-6,12 L-12,12 L-12,10 L-8,8 L-7,3 L-1,3 Z " fill="#393A62" transform="translate(65,28)"/>
<path d="M0,0 L4,0 L13,4 L15,5 L13,9 L6,8 L4,4 L0,3 Z " fill="#554A56" transform="translate(16,15)"/>
<path d="M0,0 L2,0 L2,5 L6,5 L6,8 L9,9 L9,11 L6,11 L6,13 L3,12 L3,10 L-3,10 L-3,8 L0,8 Z " fill="#262538" transform="translate(134,0)"/>
<path d="M0,0 L6,0 L7,4 L9,5 L8,7 L10,7 L10,12 L7,12 L5,11 L3,5 L0,3 Z " fill="#3B334B" transform="translate(82,0)"/>
<path d="M0,0 L16,0 L15,6 L21,5 L20,9 L13,7 L13,3 L7,3 L5,5 L5,2 L1,3 Z " fill="#6C6B6D" transform="translate(21,0)"/>
<path d="M0,0 L3,0 L2,5 L1,6 L-5,6 L-9,2 L-9,7 L-5,8 L-4,12 L-6,12 L-10,8 L-10,6 L-13,7 L-12,2 L-10,1 L-4,1 L-4,5 L-1,4 Z " fill="#383144" transform="translate(37,48)"/>
<path d="M0,0 L4,0 L5,2 L9,2 L10,6 L8,8 L8,5 L4,5 L3,12 L1,12 L0,10 L0,4 L-2,3 L0,3 Z " fill="#5C596E" transform="translate(17,0)"/>
<path d="M0,0 L11,0 L11,7 L2,5 Z " fill="#90869F" transform="translate(122,0)"/>
<path d="M0,0 L8,0 L8,2 L11,3 L10,8 L4,8 L3,3 L0,3 Z " fill="#70677E" transform="translate(25,63)"/>
<path d="M0,0 L0,3 L1,6 L6,7 L4,11 L-10,11 L-10,9 L-2,9 L-2,1 Z " fill="#4C445B" transform="translate(43,54)"/>
<path d="M0,0 L14,0 L16,4 L18,5 L19,1 L20,5 L19,6 L13,6 L8,3 L0,2 Z " fill="#39364D" transform="translate(0,68)"/>
<path d="M0,0 L2,3 L12,5 L14,6 L13,10 L13,7 L4,6 L4,12 L2,12 L1,5 L-3,4 L-2,1 Z " fill="#454F6F" transform="translate(114,56)"/>
<path d="M0,0 L8,0 L8,2 L5,2 L4,10 L2,13 L0,13 L-1,7 Z " fill="#3C3047" transform="translate(65,0)"/>
<path d="M0,0 L1,3 L4,3 L5,1 L5,9 L1,9 L1,11 L-1,11 L-1,9 L-4,9 L-3,5 L-1,5 Z " fill="#463C54" transform="translate(24,63)"/>
<path d="M0,0 L6,0 L6,7 L2,7 L1,10 L-4,11 L-4,8 L0,8 Z " fill="#2D2948" transform="translate(144,12)"/>
<path d="M0,0 L2,0 L3,9 L4,12 L3,19 L2,15 L-4,13 L-3,9 L1,9 L0,3 L-2,1 Z " fill="#363447" transform="translate(12,39)"/>
<path d="M0,0 L4,1 L6,2 L6,7 L2,8 L-2,6 L-2,1 Z " fill="#565474" transform="translate(50,29)"/>
<path d="M0,0 L5,1 L5,4 L2,4 L2,6 L9,6 L9,8 L4,10 L0,10 Z " fill="#1B1329" transform="translate(121,5)"/>
<path d="M0,0 L4,1 L3,5 L1,6 L0,9 L-5,9 L-5,3 L0,3 Z " fill="#475280" transform="translate(125,76)"/>
<path d="M0,0 L7,0 L9,3 L9,6 L4,6 L4,8 L2,8 L0,3 Z " fill="#5F546B" transform="translate(111,10)"/>
<path d="M0,0 L11,1 L11,3 L8,5 L-1,5 Z " fill="#827C9C" transform="translate(10,78)"/>
<path d="M0,0 L5,0 L5,2 L1,2 L2,9 L-3,10 L-4,4 L0,3 Z " fill="#141444" transform="translate(145,69)"/>
<path d="M0,0 L9,1 L9,5 L7,6 L1,6 L0,5 Z " fill="#63546E" transform="translate(81,47)"/>
<path d="M0,0 L1,0 L1,10 L-9,10 L-8,7 L-5,7 L-5,5 L-1,4 Z " fill="#547AA5" transform="translate(149,75)"/>
<path d="M0,0 L9,0 L9,2 L1,4 L-3,4 L-3,6 L-1,6 L-1,8 L4,9 L4,12 L2,12 L1,10 L-3,9 L-4,3 L-1,2 Z " fill="#4A4761" transform="translate(90,73)"/>
<path d="M0,0 L2,0 L2,2 L6,4 L7,9 L0,9 L-1,1 Z " fill="#453D54" transform="translate(25,54)"/>
<path d="M0,0 L3,1 L1,10 L-3,12 L-3,3 Z " fill="#3B344B" transform="translate(64,56)"/>
<path d="M0,0 L7,0 L7,5 L4,8 L0,7 Z " fill="#37314A" transform="translate(47,75)"/>
<path d="M0,0 L7,0 L7,9 L4,8 L4,5 L0,5 Z " fill="#38343E" transform="translate(136,0)"/>
<path d="M0,0 L1,2 L0,6 L-11,6 L-13,9 L-12,4 L-9,2 L-3,3 L-3,1 Z " fill="#5A5574" transform="translate(21,73)"/>
<path d="M0,0 L6,0 L7,3 L6,5 L12,5 L12,6 L5,6 L5,2 L3,2 L3,10 L-1,8 L1,7 L2,2 L-1,3 Z M-2,8 Z " fill="#52515A" transform="translate(28,2)"/>
<path d="M0,0 L1,3 L8,2 L9,6 L7,6 L7,8 L1,8 Z " fill="#3E5473" transform="translate(101,77)"/>
<path d="M0,0 L1,0 L1,9 L-1,9 L-1,4 L-11,4 L-11,1 L-4,1 L0,2 Z " fill="#483E4D" transform="translate(33,76)"/>
<path d="M0,0 L3,0 L4,2 L7,2 L8,9 L4,9 L2,4 L-1,4 Z " fill="#524D62" transform="translate(58,76)"/>
<path d="M0,0 L7,0 L9,4 L8,5 L0,5 Z " fill="#7E8193" transform="translate(0,71)"/>
<path d="M0,0 L2,2 L-4,8 L-6,11 L-6,7 L-9,8 L-8,4 L-9,1 L-3,3 Z " fill="#2F253D" transform="translate(20,32)"/>
<path d="M0,0 L6,0 L7,5 L6,6 L0,6 Z " fill="#615C85" transform="translate(70,79)"/>
<path d="M0,0 L1,3 L-2,5 L-3,4 L-5,7 L-6,12 L-11,11 L-8,8 L-5,1 L0,2 Z " fill="#3E405A" transform="translate(109,55)"/>
<path d="M0,0 L5,0 L5,8 L0,8 Z " fill="#1C1328" transform="translate(0,53)"/>
<path d="M0,0 L7,0 L6,7 L2,3 L3,8 L3,14 L1,14 L0,9 Z " fill="#655A71" transform="translate(130,53)"/>
<path d="M0,0 L6,0 L2,3 L0,10 L-5,10 L-2,7 L-2,1 Z " fill="#454864" transform="translate(67,43)"/>
<path d="M0,0 L3,0 L3,5 L-2,4 L-2,10 L-3,8 L-7,7 L-7,5 L-4,3 L0,3 Z M-10,7 L-7,8 Z " fill="#403858" transform="translate(125,24)"/>
<path d="M0,0 L2,1 L0,3 L-3,3 L-3,5 L0,6 L-1,9 L-1,7 L-3,7 L-3,11 L-6,11 L-6,1 L-1,1 Z " fill="#3C3247" transform="translate(126,13)"/>
<path d="M0,0 L6,0 L6,5 L-3,5 L-2,2 L0,2 Z " fill="#8E7982" transform="translate(26,80)"/>
<path d="M0,0 L7,1 L10,3 L7,4 L6,7 L-1,5 Z " fill="#514868" transform="translate(42,45)"/>
<path d="M0,0 L2,0 L3,4 L14,5 L14,7 L1,7 Z " fill="#363956" transform="translate(6,78)"/>
<path d="M0,0 L2,0 L1,5 L-6,6 L-7,4 L-12,4 L-12,2 L0,2 Z " fill="#312F47" transform="translate(132,68)"/>
<path d="M0,0 L0,3 L-1,6 L2,6 L2,4 L4,4 L3,8 L-4,9 L-4,3 Z M-2,6 Z " fill="#3E3655" transform="translate(64,66)"/>
<path d="M0,0 L4,0 L3,7 L2,10 L-1,10 L-1,1 Z " fill="#57495B" transform="translate(14,22)"/>
<path d="M0,0 L1,4 L-1,7 L1,7 L2,5 L4,10 L-5,8 L-5,4 L0,3 Z " fill="#31263F" transform="translate(119,37)"/>
<path d="M0,0 L5,0 L5,9 L3,9 L2,4 L-1,4 Z " fill="#252646" transform="translate(95,76)"/>
<path d="M0,0 L2,0 L3,7 L-3,9 L-4,3 L0,3 Z " fill="#594B60" transform="translate(110,39)"/>
<path d="M0,0 L5,0 L5,2 L7,2 L8,7 L6,7 L6,5 L3,6 L0,4 Z " fill="#50475F" transform="translate(125,45)"/>
<path d="M0,0 L4,0 L4,4 L2,5 L-4,5 L-4,1 Z " fill="#524B60" transform="translate(4,31)"/>
<path d="M0,0 L6,1 L6,3 L-1,7 L-3,7 L-3,3 L-1,3 Z " fill="#655B6E" transform="translate(76,2)"/>
<path d="M0,0 L2,0 L2,2 L6,2 L6,5 L-3,5 L-2,1 Z " fill="#2F3575" transform="translate(128,80)"/>
<path d="M0,0 L1,2 L0,5 L-5,5 L-5,11 L-7,11 L-7,2 L-5,1 L-3,3 Z " fill="#31324D" transform="translate(125,74)"/>
<path d="M0,0 L5,1 L6,2 L6,7 L2,6 L0,4 Z " fill="#8C7E94" transform="translate(132,62)"/>
<path d="M0,0 L3,0 L3,2 L1,3 L0,8 L-6,7 L-6,3 L-1,4 Z " fill="#34324B" transform="translate(86,60)"/>
<path d="M0,0 L2,0 L3,2 L6,2 L7,7 L6,9 L4,9 L4,5 L0,6 Z " fill="#5D4F6F" transform="translate(133,35)"/>
<path d="M0,0 L5,1 L5,6 L0,7 Z " fill="#050416" transform="translate(0,39)"/>
<path d="M0,0 L3,0 L7,0 L7,5 L0,5 Z " fill="#1C223F" transform="translate(111,80)"/>
<path d="M0,0 L4,0 L3,8 L2,9 L-5,9 L-4,6 L-4,8 L0,7 Z " fill="#2B3D61" transform="translate(146,71)"/>
<path d="M0,0 L2,1 L0,6 L7,5 L7,7 L0,7 L0,10 L-3,10 L-2,3 Z " fill="#302C43" transform="translate(143,53)"/>
<path d="M0,0 L3,0 L4,5 L1,7 L-3,7 L-4,9 L-3,5 L0,5 L-1,1 Z " fill="#4D516A" transform="translate(62,45)"/>
<path d="M0,0 L6,0 L4,5 L0,7 L-2,6 Z " fill="#3D3B49" transform="translate(72,12)"/>
<path d="M0,0 L6,0 L6,3 L5,10 L3,6 L3,3 L-1,4 Z " fill="#5A526E" transform="translate(62,75)"/>
<path d="M0,0 L4,0 L4,8 L1,8 L0,6 Z " fill="#504465" transform="translate(82,7)"/>
<path d="M0,0 L1,0 L1,11 L-2,11 L-6,6 L-5,4 L-3,4 L-3,7 L0,7 Z " fill="#3D4664" transform="translate(83,73)"/>
<path d="M0,0 L2,2 L2,7 L1,8 L-6,8 L-11,6 L-11,5 L-6,5 L-2,6 L0,4 Z " fill="#3A394F" transform="translate(46,75)"/>
<path d="M0,0 L4,1 L2,11 L-3,9 L0,7 Z " fill="#625F7D" transform="translate(104,63)"/>
<path d="M0,0 L1,2 L3,3 L-2,7 L-4,7 L-5,14 L-7,14 L-7,7 L-3,6 L-3,4 L-1,4 Z " fill="#3F3E53" transform="translate(147,46)"/>
<path d="M0,0 L2,0 L2,2 L12,2 L12,3 L2,3 L2,7 L-2,6 L-2,3 L0,3 Z " fill="#534768" transform="translate(138,26)"/>
<path d="M0,0 L2,0 L1,4 L-1,4 L-2,10 L-4,9 L-4,3 Z " fill="#544E64" transform="translate(39,27)"/>
<path d="M0,0 L2,3 L2,5 L5,6 L3,10 L-1,6 L-1,1 Z " fill="#68686D" transform="translate(16,7)"/>
<path d="M0,0 L0,3 L-3,3 L-3,6 L-10,7 L-10,1 L-9,5 Z " fill="#554C61" transform="translate(82,4)"/>
<path d="M0,0 L3,1 L24,2 L24,3 L0,3 Z " fill="#25212C" transform="translate(34,82)"/>
<path d="M0,0 L5,0 L7,3 L5,5 L0,5 Z " fill="#807A8F" transform="translate(118,62)"/>
<path d="M0,0 L2,2 L6,3 L5,9 L4,6 L2,6 L2,9 L0,8 L1,5 L-2,4 L0,4 Z " fill="#6D618C" transform="translate(140,29)"/>
<path d="M0,0 L4,3 L4,10 L3,6 L-6,7 L-5,5 L0,5 Z " fill="#383449" transform="translate(136,10)"/>
<path d="M0,0 L1,0 L1,8 L-3,8 L-3,10 L-7,10 L-8,5 L0,7 Z " fill="#5B536A" transform="translate(133,0)"/>
<path d="M0,0 L1,0 L4,10 L6,15 L4,15 L4,12 L0,11 Z " fill="#55555B" transform="translate(10,0)"/>
<path d="M0,0 L3,0 L3,2 L6,3 L6,6 L1,6 L0,5 Z " fill="#968FA9" transform="translate(7,54)"/>
<path d="M0,0 L3,0 L3,7 L-3,6 Z " fill="#797188" transform="translate(130,0)"/>
<path d="M0,0 L1,0 L2,8 L0,9 L-1,13 L-3,13 L-3,8 Z " fill="#9D92B9" transform="translate(146,35)"/>
<path d="M0,0 L7,0 L8,2 L7,4 L1,4 Z " fill="#282344" transform="translate(42,38)"/>
<path d="M0,0 L1,2 L-1,2 L0,6 L-5,9 L-8,8 L-4,7 L-4,2 Z " fill="#292038" transform="translate(8,21)"/>
<path d="M0,0 L3,0 L2,9 L-1,8 Z " fill="#745F73" transform="translate(129,21)"/>
<path d="M0,0 L2,2 L2,9 L1,5 L-1,5 L-1,7 L-3,7 L-3,2 Z " fill="#44434E" transform="translate(13,13)"/>
<path d="M0,0 L1,0 L1,6 L-4,7 L-4,2 Z " fill="#7B7D8B" transform="translate(4,3)"/>
<path d="M0,0 L3,1 L3,4 L7,5 L3,7 L0,7 Z " fill="#737088" transform="translate(109,1)"/>
<path d="M0,0 L1,2 L5,2 L5,4 L2,7 L-1,7 L-1,5 L-3,4 L0,3 Z " fill="#634A60" transform="translate(21,78)"/>
<path d="M0,0 L5,1 L4,9 L1,9 L1,2 Z " fill="#645A77" transform="translate(66,76)"/>
<path d="M0,0 L3,0 L3,5 L-5,5 L-4,2 Z " fill="#50518B" transform="translate(107,75)"/>
<path d="M0,0 L1,3 L-4,7 L-5,6 L-5,1 Z " fill="#192235" transform="translate(125,71)"/>
<path d="M0,0 L6,1 L8,2 L7,6 L7,3 L-2,2 L-2,7 L-3,7 L-3,1 Z " fill="#625D76" transform="translate(120,60)"/>
<path d="M0,0 L6,0 L7,4 L4,5 L-1,1 Z " fill="#584E64" transform="translate(79,55)"/>
<path d="M0,0 L1,0 L0,7 L-5,7 L-4,3 L-1,3 Z " fill="#3C3459" transform="translate(65,28)"/>
<path d="M0,0 L4,0 L4,5 L-3,5 Z " fill="#191728" transform="translate(146,19)"/>
<path d="M0,0 L6,1 L4,5 L0,5 L-1,1 Z " fill="#575167" transform="translate(25,19)"/>
<path d="M0,0 L6,0 L6,2 L2,2 L1,5 L-4,6 L-4,3 L0,3 Z " fill="#323046" transform="translate(144,17)"/>
<path d="M0,0 L2,0 L2,2 L4,3 L2,3 L1,8 L-2,8 L-1,1 Z " fill="#464C68" transform="translate(43,72)"/>
<path d="M0,0 L3,0 L3,8 L0,9 Z " fill="#514B6B" transform="translate(115,32)"/>
<path d="M0,0 L2,0 L2,4 L-2,7 L-5,5 L-3,5 L-3,3 L-6,2 L0,2 Z " fill="#35303E" transform="translate(12,18)"/>
<path d="M0,0 L2,0 L2,9 L-2,5 L-1,1 Z " fill="#584F65" transform="translate(119,5)"/>
<path d="M0,0 L10,0 L5,5 L5,2 L1,3 Z " fill="#6E6779" transform="translate(21,0)"/>
<path d="M0,0 L13,0 L9,2 L1,3 Z " fill="#827D99" transform="translate(94,0)"/>
<path d="M0,0 L2,0 L3,6 L-3,5 L-2,2 L0,2 Z " fill="#2D3859" transform="translate(113,61)"/>
<path d="M0,0 L2,0 L2,6 L-2,6 L-3,1 Z " fill="#50485C" transform="translate(10,41)"/>
<path d="M0,0 L1,4 L-1,10 L1,11 L-1,11 L-2,14 L-4,14 L-4,11 L-2,11 L-2,4 Z " fill="#837C9D" transform="translate(144,38)"/>
<path d="M0,0 L3,3 L-5,9 L-4,5 Z " fill="#40364E" transform="translate(22,23)"/>
<path d="M0,0 L8,1 L8,3 L3,5 L0,5 Z " fill="#0D0B1F" transform="translate(122,10)"/>
<path d="M0,0 L1,4 L1,7 L-4,7 L-3,3 Z " fill="#0D1C30" transform="translate(138,78)"/>
<path d="M0,0 L4,0 L5,5 L0,5 Z " fill="#857BAF" transform="translate(120,80)"/>
<path d="M0,0 L3,1 L3,8 L0,8 Z " fill="#2D2948" transform="translate(80,72)"/>
<path d="M0,0 L9,0 L5,5 L5,3 L0,3 Z " fill="#8377A4" transform="translate(141,29)"/>
<path d="M0,0 L5,1 L6,2 L6,8 L5,4 L-3,3 Z " fill="#504B6A" transform="translate(51,27)"/>
<path d="M0,0 L2,0 L3,5 L-2,10 L-2,6 L0,6 Z " fill="#4B3C4B" transform="translate(19,19)"/>
<path d="M0,0 L5,0 L6,3 L2,4 L2,6 L-1,7 Z " fill="#49425C" transform="translate(115,16)"/>
<path d="M0,0 L5,1 L6,6 L3,6 L0,2 Z " fill="#878097" transform="translate(114,10)"/>
<path d="M0,0 L4,2 L2,7 L0,7 L-1,1 Z " fill="#2E263E" transform="translate(65,6)"/>
<path d="M0,0 L7,0 L7,3 L1,3 L0,5 L-2,4 Z " fill="#514657" transform="translate(75,0)"/>
<path d="M0,0 L6,0 L6,2 L3,2 L3,7 L-1,3 Z " fill="#404E72" transform="translate(127,73)"/>
<path d="M0,0 L7,0 L8,3 L1,3 Z " fill="#2A2139" transform="translate(25,72)"/>
<path d="M0,0 L1,3 L4,3 L5,1 L5,8 L2,7 L3,5 L0,5 Z " fill="#554C61" transform="translate(24,63)"/>
<path d="M0,0 L2,0 L2,6 L-3,6 L-1,1 Z " fill="#544E77" transform="translate(148,63)"/>
<path d="M0,0 L2,1 L2,3 L4,4 L4,7 L-5,7 L-5,6 L0,5 Z " fill="#322941" transform="translate(37,56)"/>
<path d="M0,0 L8,0 L7,2 L3,4 L0,4 Z " fill="#56555B" transform="translate(50,56)"/>
<path d="M0,0 L2,0 L2,2 L6,1 L6,3 L8,3 L8,5 L10,6 L5,5 L0,2 Z " fill="#4C475C" transform="translate(0,47)"/>
<path d="M0,0 L4,0 L3,5 L-3,6 L-1,5 Z " fill="#4F4F6D" transform="translate(56,41)"/>
<path d="M0,0 L1,4 L0,8 L-3,8 L-2,1 Z " fill="#645E76" transform="translate(40,30)"/>
<path d="M0,0 L2,0 L2,5 L-4,5 L-3,2 L0,2 Z " fill="#728CB4" transform="translate(144,80)"/>
<path d="M0,0 L2,1 L2,5 L6,6 L-3,6 Z " fill="#3D3A4C" transform="translate(54,77)"/>
<path d="M0,0 L2,1 L3,5 L2,9 L-1,9 Z " fill="#261E27" transform="translate(116,71)"/>
<path d="M0,0 L6,0 L5,4 L1,4 Z " fill="#292445" transform="translate(47,75)"/>
<path d="M0,0 L1,0 L0,9 L-4,9 L-2,4 L0,4 Z " fill="#8C82A7" transform="translate(140,65)"/>
<path d="M0,0 L2,2 L3,8 L-1,7 L-1,1 Z " fill="#5E5573" transform="translate(107,67)"/>
<path d="M0,0 L4,0 L5,4 L4,6 L0,5 Z " fill="#5D5571" transform="translate(35,65)"/>
<path d="M0,0 L5,0 L6,4 L-3,3 Z " fill="#67607B" transform="translate(11,60)"/>
<path d="M0,0 L1,3 L7,3 L7,4 L0,5 L-1,8 L-2,3 L0,3 Z " fill="#443E51" transform="translate(25,45)"/>
<path d="M0,0 L2,4 L3,7 L-3,7 L-1,1 Z " fill="#4E445D" transform="translate(121,37)"/>
<path d="M0,0 L6,1 L5,5 L2,3 L0,7 Z " fill="#2F2642" transform="translate(123,28)"/>
<path d="M0,0 L2,0 L2,7 L-4,9 L-3,6 L-1,5 Z " fill="#5D516B" transform="translate(123,20)"/>
<path d="M0,0 L3,0 L3,7 L0,7 Z " fill="#615D76" transform="translate(140,13)"/>
<path d="M0,0 L5,0 L7,3 L-2,3 Z " fill="#454463" transform="translate(98,7)"/>
<path d="M0,0 L3,1 L1,1 L1,4 L6,4 L6,10 L4,9 L5,5 L-1,6 Z " fill="#514D58" transform="translate(37,0)"/>
<path d="M0,0 L2,1 L1,6 L-2,7 L-1,1 Z " fill="#322D44" transform="translate(63,61)"/>
<path d="M0,0 L1,0 L1,5 L-4,4 L-4,1 Z " fill="#31253E" transform="translate(87,40)"/>
<path d="M0,0 L3,1 L2,7 L0,7 L0,4 L-2,4 L-2,2 L0,2 Z " fill="#423C5D" transform="translate(129,31)"/>
<path d="M0,0 L4,1 L4,3 L-4,5 L-4,3 L-2,3 L-2,1 Z " fill="#5A566C" transform="translate(132,12)"/>
<path d="M0,0 L2,0 L0,5 L-3,6 L-5,8 L-4,4 L-3,2 L0,2 Z " fill="#3F344B" transform="translate(73,0)"/>
<path d="M0,0 L1,2 L3,2 L2,5 L-4,5 L-2,4 Z " fill="#6D6495" transform="translate(74,80)"/>
<path d="M0,0 L5,0 L6,5 L5,3 L0,3 Z " fill="#675F76" transform="translate(30,65)"/>
<path d="M0,0 L6,0 L6,3 L1,4 Z " fill="#121D2F" transform="translate(112,0)"/>
<path d="M0,0 L2,0 L3,4 L-3,4 L-2,1 Z " fill="#A98191" transform="translate(26,81)"/>
<path d="M0,0 L4,1 L5,8 L3,8 L1,2 Z " fill="#746583" transform="translate(135,61)"/>
<path d="M0,0 L3,0 L4,6 L1,6 Z " fill="#473D5C" transform="translate(16,60)"/>
<path d="M0,0 L8,0 L8,3 L2,2 Z " fill="#4A4862" transform="translate(101,24)"/>
<path d="M0,0 L4,0 L4,4 L6,5 L3,6 L0,1 Z " fill="#37272E" transform="translate(134,20)"/>
<path d="M0,0 L5,0 L8,4 L3,4 Z " fill="#5E5971" transform="translate(89,0)"/>
<path d="M0,0 L5,0 L5,5 L2,5 Z " fill="#42434A" transform="translate(5,0)"/>
<path d="M0,0 L1,2 L0,6 L-6,6 L-3,4 L-2,1 Z " fill="#6B5C7E" transform="translate(21,73)"/>
<path d="M0,0 L3,4 L0,4 L0,7 L-4,6 L-2,6 L-1,1 Z " fill="#574966" transform="translate(77,70)"/>
<path d="M0,0 L2,0 L2,6 L-1,6 L-1,1 Z " fill="#221D35" transform="translate(128,54)"/>
<path d="M0,0 L7,3 L5,6 L5,4 L0,4 Z " fill="#565065" transform="translate(0,49)"/>
<path d="M0,0 L3,0 L3,5 L-4,4 L0,3 Z " fill="#4F3E56" transform="translate(125,24)"/>
<path d="M0,0 L2,1 L2,3 L4,3 L2,7 L0,5 Z " fill="#322A48" transform="translate(111,75)"/>
<path d="M0,0 L3,1 L4,5 L0,5 Z " fill="#0A122D" transform="translate(0,80)"/>
<path d="M0,0 L2,1 L-2,7 L-4,7 L-2,2 Z " fill="#0C0F22" transform="translate(148,49)"/>
<path d="M0,0 L5,1 L4,5 L1,4 Z " fill="#423553" transform="translate(74,44)"/>
<path d="M0,0 L7,1 L7,2 L-3,3 Z " fill="#504D76" transform="translate(63,38)"/>
<path d="M0,0 L2,0 L2,5 L-3,3 L-3,1 Z " fill="#1B2137" transform="translate(3,13)"/>
<path d="M0,0 L1,2 L3,2 L2,7 L-1,6 Z " fill="#666C71" transform="translate(5,3)"/>
<path d="M0,0 L4,0 L4,4 L0,4 Z " fill="#0B0C1B" transform="translate(135,5)"/>
<path d="M0,0 L4,0 L4,4 L0,4 Z " fill="#656473" transform="translate(136,0)"/>
<path d="M0,0 L5,0 L5,3 L0,3 Z " fill="#272F59" transform="translate(129,82)"/>
<path d="M0,0 L5,2 L5,7 L0,2 Z " fill="#192441" transform="translate(0,78)"/>
<path d="M0,0 L4,1 L3,4 L-1,5 Z " fill="#5E556E" transform="translate(134,68)"/>
<path d="M0,0 L3,0 L5,7 L1,4 Z " fill="#72647B" transform="translate(124,63)"/>
<path d="M0,0 L4,1 L4,3 L-2,3 L-2,1 Z " fill="#67666A" transform="translate(52,52)"/>
<path d="M0,0 L3,1 L1,1 L1,5 L-3,4 L-4,2 L-1,2 Z " fill="#4D465C" transform="translate(138,48)"/>
<path d="M0,0 L4,0 L4,4 L0,3 Z " fill="#1B1633" transform="translate(146,13)"/>
<path d="M0,0 L6,0 L6,2 L0,3 Z " fill="#30243C" transform="translate(67,0)"/>
<path d="M0,0 L7,0 L5,3 L1,2 Z " fill="#4B4758" transform="translate(49,0)"/>
<path d="M0,0 L4,2 L-3,3 L-4,1 Z " fill="#595E85" transform="translate(64,40)"/>
<path d="M0,0 L2,0 L2,5 L-2,3 L0,2 Z M-3,3 Z " fill="#5A5866" transform="translate(29,7)"/>
<path d="M0,0 L3,0 L3,6 L2,3 L-1,3 Z " fill="#433A4A" transform="translate(21,8)"/>
<path d="M0,0 L3,0 L3,3 L5,3 L5,5 L2,5 Z " fill="#7E7089" transform="translate(122,0)"/>
<path d="M0,0 L3,0 L3,4 L-2,4 L0,3 Z " fill="#333548" transform="translate(118,0)"/>
<path d="M0,0 L3,1 L3,4 L1,4 L0,6 Z " fill="#3A4C70" transform="translate(107,79)"/>
<path d="M0,0 L5,1 L2,4 L0,4 Z " fill="#8285A0" transform="translate(118,63)"/>
<path d="M0,0 L4,2 L1,4 L-2,3 Z " fill="#574F6E" transform="translate(43,46)"/>
<path d="M0,0 L4,0 L4,3 L0,4 Z " fill="#1D172B" transform="translate(21,45)"/>
<path d="M0,0 L1,3 L-4,4 L-4,2 Z " fill="#1E1932" transform="translate(4,42)"/>
<path d="M0,0 L3,1 L3,5 L0,4 Z " fill="#28203D" transform="translate(129,39)"/>
<path d="M0,0 L2,0 L2,8 L1,8 L0,3 L-2,1 Z " fill="#362E43" transform="translate(12,39)"/>
<path d="M0,0 L3,0 L3,2 L-3,3 L-3,1 Z " fill="#3E3651" transform="translate(3,29)"/>
<path d="M0,0 L4,0 L4,3 L-1,3 Z " fill="#1E1935" transform="translate(146,19)"/>
<path d="M0,0 L2,0 L3,4 L0,6 Z " fill="#0C0C25" transform="translate(0,16)"/>
<path d="M0,0 L3,0 L3,7 L2,3 L0,3 Z " fill="#3D3C47" transform="translate(12,15)"/>
<path d="M0,0 L2,0 L3,6 L0,5 Z " fill="#5A4D6C" transform="translate(82,8)"/>
<path d="M0,0 L4,0 L3,4 L-2,2 Z " fill="#5E5A6A" transform="translate(38,5)"/>
<path d="M0,0 L3,0 L3,5 L1,5 Z " fill="#122031" transform="translate(97,80)"/>
<path d="M0,0 L3,0 L3,4 L0,5 Z " fill="#342841" transform="translate(20,64)"/>
<path d="M0,0 L5,0 L5,2 L1,4 Z " fill="#837594" transform="translate(145,61)"/>
<path d="M0,0 L4,0 L4,2 L0,5 Z " fill="#1E172A" transform="translate(95,55)"/>
<path d="M0,0 L6,0 L5,4 Z " fill="#140E26" transform="translate(1,38)"/>
<path d="M0,0 L4,1 L4,4 L0,3 Z " fill="#4E3F5C" transform="translate(136,29)"/>
<path d="M0,0 L1,2 L3,2 L2,6 L0,5 Z " fill="#61506B" transform="translate(128,24)"/>
<path d="M0,0 L4,1 L4,4 L1,4 Z " fill="#443240" transform="translate(134,25)"/>
<path d="M0,0 L4,1 L4,3 L-1,2 Z " fill="#271E2C" transform="translate(133,17)"/>
<path d="M0,0 L1,2 L4,3 L4,5 L0,4 Z " fill="#50515F" transform="translate(31,7)"/>
<path d="M0,0 L2,0 L2,5 L0,5 L-1,1 Z " fill="#4C4158" transform="translate(70,5)"/>
<path d="M0,0 L5,1 L5,3 L1,2 Z " fill="#4E607B" transform="translate(87,82)"/>
<path d="M0,0 L1,3 L1,5 L-2,5 L-1,1 Z " fill="#091427" transform="translate(136,80)"/>
<path d="M0,0 L3,1 L3,4 L0,4 Z " fill="#7180AF" transform="translate(126,76)"/>
<path d="M0,0 L1,2 L0,5 L-3,5 L-1,1 Z " fill="#2C3B58" transform="translate(125,74)"/>
<path d="M0,0 L5,0 L3,3 L0,2 Z " fill="#685A99" transform="translate(102,75)"/>
<path d="M0,0 L3,0 L3,3 L-1,4 Z " fill="#3B2E60" transform="translate(142,69)"/>
<path d="M0,0 L2,1 L2,4 L-1,5 Z " fill="#71667A" transform="translate(57,63)"/>
<path d="M0,0 L5,0 L6,3 L0,1 Z " fill="#3E3F52" transform="translate(8,51)"/>
<path d="M0,0 L3,0 L2,5 L0,2 Z " fill="#8F839C" transform="translate(134,33)"/>
<path d="M0,0 L2,0 L2,4 L-1,4 Z " fill="#60536D" transform="translate(80,20)"/>
<path d="M0,0 L6,1 L6,2 L-1,3 Z " fill="#5F5567" transform="translate(76,2)"/>
<path d="M0,0 L2,4 L-2,4 L-2,1 Z " fill="#403A45" transform="translate(40,0)"/>
<path d="M0,0 L2,0 L2,5 L-1,2 Z " fill="#342945" transform="translate(139,43)"/>
<path d="M0,0 L3,0 L3,2 L-2,3 L-2,1 Z " fill="#5D556A" transform="translate(36,40)"/>
<path d="M0,0 L3,0 L4,3 L0,3 Z " fill="#6C657A" transform="translate(111,10)"/>
<path d="M0,0 L2,0 L3,3 L-1,3 Z " fill="#43657F" transform="translate(104,82)"/>
<path d="M0,0 L2,0 L1,3 L-2,3 L-2,1 Z " fill="#737599" transform="translate(75,82)"/>
<path d="M0,0 L3,0 L3,3 L0,3 Z " fill="#6C6479" transform="translate(67,82)"/>
<path d="M0,0 L2,0 L2,4 L-1,3 Z " fill="#4E4A6C" transform="translate(78,77)"/>
<path d="M0,0 L3,0 L3,3 L0,3 Z " fill="#111523" transform="translate(120,72)"/>
<path d="M0,0 L4,1 L3,4 Z " fill="#81728A" transform="translate(135,61)"/>
<path d="M0,0 L3,0 L3,3 L0,3 Z " fill="#1B112C" transform="translate(140,60)"/>
<path d="M0,0 L1,4 L-2,3 L-2,1 Z " fill="#605E77" transform="translate(114,56)"/>
<path d="M0,0 Z M-1,1 L3,4 L0,5 Z " fill="#463D64" transform="translate(94,33)"/>
<path d="M0,0 L3,0 L3,3 L0,3 Z " fill="#312843" transform="translate(120,21)"/>
<path d="M0,0 L3,3 L-1,4 Z " fill="#4A3B49" transform="translate(24,14)"/>
<path d="M0,0 L2,0 L1,4 L-1,3 Z " fill="#342846" transform="translate(90,9)"/>
<path d="M0,0 L2,0 L1,4 L-1,4 Z " fill="#3D3B47" transform="translate(28,4)"/>
<path d="M0,0 L3,0 L3,3 L0,3 Z " fill="#2F2C3A" transform="translate(82,0)"/>
<path d="M0,0 L3,0 L3,3 L0,3 Z " fill="#555767" transform="translate(14,0)"/>
<path d="M0,0 L3,0 L3,3 L0,3 Z " fill="#3B414D" transform="translate(0,0)"/>
<path d="M0,0 L2,4 L-1,4 Z " fill="#B798A8" transform="translate(27,81)"/>
<path d="M0,0 L3,0 L2,3 L0,3 Z " fill="#7F7A8F" transform="translate(140,49)"/>
<path d="M0,0 L4,1 L3,3 L1,3 Z " fill="#493E55" transform="translate(114,45)"/>
<path d="M0,0 L2,0 L2,3 L-1,3 Z " fill="#3A2735" transform="translate(126,21)"/>
<path d="M0,0 L3,0 L2,3 L0,3 Z " fill="#64535B" transform="translate(15,22)"/>
<path d="M0,0 L2,0 L2,3 L-1,3 Z " fill="#040210" transform="translate(123,12)"/>
<path d="M0,0 L2,0 L2,3 L-1,3 Z " fill="#413A52" transform="translate(115,7)"/>
<path d="M0,0 L3,0 L2,3 L0,3 Z " fill="#6F6377" transform="translate(73,6)"/>
<path d="M0,0 L3,0 L3,3 L0,2 Z " fill="#7B758C" transform="translate(21,0)"/>
<path d="M0,0 L3,0 L2,3 L0,2 Z " fill="#352C4B" transform="translate(75,46)"/>
<path d="M0,0 L3,1 L2,3 L0,3 Z " fill="#363050" transform="translate(88,26)"/>
<path d="M0,0 L2,0 L1,3 L-1,1 Z " fill="#34506B" transform="translate(43,75)"/>
</svg>
