<?xml version="1.0" encoding="UTF-8"?>
<svg xmlns="http://www.w3.org/2000/svg" viewBox="0 0 320 320" width="30" height="30">
  <style>rect{shape-rendering:crispEdges}</style>
  <g fill="#7ef249">
    <rect x="100" y="10" width="10" height="10"/>
    <rect x="100" y="20" width="10" height="10"/>
    <rect x="50" y="50" width="10" height="10"/>
    <rect x="50" y="60" width="10" height="10"/>
  </g>
  <g fill="#7df149">
    <rect x="110" y="10" width="100" height="10"/>
    <rect x="60" y="50" width="10" height="10"/>
  </g>
  <g fill="#68b332">
    <rect x="110" y="20" width="10" height="10"/>
    <rect x="50" y="70" width="10" height="10"/>
    <rect x="50" y="80" width="10" height="10"/>
  </g>
  <g fill="#3d6417">
    <rect x="120" y="20" width="40" height="10"/>
    <rect x="110" y="30" width="10" height="10"/>
    <rect x="60" y="60" width="10" height="10"/>
    <rect x="60" y="70" width="10" height="10"/>
    <rect x="60" y="80" width="10" height="10"/>
  </g>
  <g fill="#20b75e">
    <rect x="160" y="20" width="10" height="10"/>
    <rect x="230" y="60" width="10" height="10"/>
  </g>
  <rect fill="#38e066" x="170" y="20" width="30" height="10"/>
  <g fill="#81f64a">
    <rect x="200" y="20" width="10" height="10"/>
    <rect x="70" y="30" width="40" height="10"/>
    <rect x="200" y="30" width="40" height="10"/>
    <rect x="250" y="50" width="10" height="10"/>
    <rect x="250" y="60" width="10" height="10"/>
  </g>
  <g fill="#1e2000">
    <rect x="120" y="30" width="40" height="10"/>
    <rect x="120" y="40" width="40" height="10"/>
    <rect x="90" y="50" width="70" height="10"/>
    <rect x="80" y="60" width="20" height="10"/>
    <rect x="70" y="70" width="30" height="10"/>
    <rect x="70" y="80" width="10" height="10"/>
  </g>
  <rect fill="#12934f" x="160" y="30" width="10" height="10"/>
  <g fill="#16d674">
    <rect x="170" y="30" width="10" height="10"/>
    <rect x="210" y="40" width="20" height="10"/>
    <rect x="240" y="60" width="10" height="10"/>
  </g>
  <g fill="#17d774">
    <rect x="180" y="30" width="20" height="10"/>
    <rect x="170" y="40" width="10" height="10"/>
    <rect x="200" y="40" width="10" height="10"/>
    <rect x="170" y="50" width="10" height="10"/>
    <rect x="200" y="50" width="10" height="10"/>
    <rect x="170" y="60" width="10" height="10"/>
    <rect x="200" y="60" width="10" height="10"/>
  </g>
  <g fill="#7cf24a">
    <rect x="70" y="40" width="10" height="10"/>
    <rect x="240" y="50" width="10" height="10"/>
  </g>
  <g fill="#1d1e00">
    <rect x="80" y="40" width="40" height="10"/>
    <rect x="80" y="50" width="10" height="10"/>
    <rect x="70" y="60" width="10" height="10"/>
    <rect x="100" y="60" width="60" height="10"/>
    <rect x="70" y="90" width="10" height="10"/>
  </g>
  <g fill="#216c2e">
    <rect x="160" y="40" width="10" height="10"/>
    <rect x="160" y="50" width="10" height="10"/>
    <rect x="160" y="60" width="10" height="10"/>
    <rect x="210" y="60" width="10" height="10"/>
  </g>
  <g fill="#010402">
    <rect x="180" y="40" width="20" height="10"/>
    <rect x="180" y="50" width="20" height="10"/>
    <rect x="180" y="60" width="20" height="10"/>
    <rect x="220" y="60" width="10" height="10"/>
  </g>
  <g fill="#6ded50">
    <rect x="230" y="40" width="10" height="10"/>
    <rect x="230" y="50" width="10" height="10"/>
  </g>
  <rect fill="#71ca3a" x="70" y="50" width="10" height="10"/>
  <rect fill="#14c66b" x="210" y="50" width="20" height="10"/>
  <g fill="#755408">
    <rect x="40" y="70" width="10" height="10"/>
    <rect x="30" y="90" width="40" height="10"/>
    <rect x="10" y="100" width="10" height="10"/>
    <rect x="30" y="100" width="30" height="10"/>
    <rect x="90" y="100" width="190" height="10"/>
    <rect x="10" y="110" width="40" height="10"/>
    <rect x="90" y="110" width="200" height="10"/>
    <rect x="0" y="120" width="50" height="10"/>
    <rect x="90" y="120" width="60" height="10"/>
    <rect x="160" y="120" width="130" height="10"/>
    <rect x="10" y="130" width="20" height="10"/>
    <rect x="90" y="130" width="200" height="10"/>
    <rect x="90" y="140" width="200" height="10"/>
    <rect x="90" y="150" width="200" height="10"/>
    <rect x="90" y="160" width="60" height="10"/>
    <rect x="250" y="160" width="40" height="10"/>
    <rect x="90" y="170" width="70" height="10"/>
    <rect x="270" y="170" width="20" height="10"/>
    <rect x="90" y="180" width="150" height="10"/>
    <rect x="270" y="180" width="20" height="10"/>
    <rect x="90" y="190" width="150" height="10"/>
    <rect x="270" y="190" width="20" height="10"/>
    <rect x="90" y="200" width="200" height="10"/>
    <rect x="90" y="210" width="200" height="10"/>
    <rect x="90" y="220" width="200" height="10"/>
    <rect x="90" y="230" width="200" height="10"/>
  </g>
  <g fill="#736a43">
    <rect x="100" y="70" width="60" height="10"/>
    <rect x="180" y="70" width="20" height="10"/>
    <rect x="220" y="70" width="10" height="10"/>
  </g>
  <g fill="#80774c">
    <rect x="160" y="70" width="10" height="10"/>
    <rect x="210" y="70" width="10" height="10"/>
    <rect x="280" y="80" width="10" height="10"/>
    <rect x="70" y="100" width="10" height="10"/>
  </g>
  <g fill="#748452">
    <rect x="170" y="70" width="10" height="10"/>
    <rect x="200" y="70" width="10" height="10"/>
    <rect x="230" y="70" width="20" height="10"/>
  </g>
  <rect fill="#82894c" x="250" y="70" width="10" height="10"/>
  <g fill="#82774d">
    <rect x="260" y="70" width="40" height="10"/>
    <rect x="110" y="80" width="170" height="10"/>
    <rect x="280" y="90" width="10" height="10"/>
    <rect x="300" y="90" width="10" height="10"/>
    <rect x="290" y="100" width="20" height="10"/>
    <rect x="70" y="110" width="10" height="10"/>
    <rect x="60" y="120" width="20" height="10"/>
    <rect x="40" y="130" width="40" height="10"/>
    <rect x="40" y="140" width="40" height="10"/>
    <rect x="30" y="150" width="50" height="10"/>
    <rect x="30" y="160" width="50" height="10"/>
    <rect x="30" y="170" width="50" height="10"/>
    <rect x="30" y="180" width="50" height="10"/>
    <rect x="250" y="180" width="10" height="10"/>
    <rect x="30" y="190" width="50" height="10"/>
    <rect x="250" y="190" width="10" height="10"/>
    <rect x="30" y="200" width="50" height="10"/>
    <rect x="30" y="210" width="50" height="10"/>
    <rect x="30" y="220" width="50" height="10"/>
    <rect x="30" y="230" width="50" height="10"/>
    <rect x="30" y="240" width="50" height="10"/>
    <rect x="30" y="250" width="260" height="10"/>
    <rect x="30" y="260" width="230" height="10"/>
    <rect x="30" y="270" width="220" height="10"/>
    <rect x="30" y="280" width="230" height="10"/>
  </g>
  <g fill="#755609">
    <rect x="40" y="80" width="10" height="10"/>
    <rect x="20" y="100" width="10" height="10"/>
  </g>
  <rect fill="#2b2c0a" x="80" y="80" width="20" height="10"/>
  <g fill="#83784e">
    <rect x="100" y="80" width="10" height="10"/>
    <rect x="90" y="90" width="190" height="10"/>
    <rect x="290" y="110" width="10" height="10"/>
    <rect x="290" y="120" width="10" height="10"/>
    <rect x="160" y="160" width="80" height="10"/>
    <rect x="260" y="260" width="10" height="10"/>
    <rect x="30" y="290" width="210" height="10"/>
  </g>
  <g fill="#4a5a1c">
    <rect x="290" y="80" width="10" height="10"/>
    <rect x="310" y="90" width="10" height="10"/>
    <rect x="310" y="100" width="10" height="10"/>
    <rect x="300" y="110" width="10" height="10"/>
  </g>
  <g fill="#5e6526">
    <rect x="80" y="90" width="10" height="10"/>
    <rect x="280" y="240" width="10" height="10"/>
  </g>
  <g fill="#755307">
    <rect x="60" y="100" width="10" height="10"/>
    <rect x="150" y="120" width="10" height="10"/>
    <rect x="30" y="130" width="10" height="10"/>
    <rect x="260" y="170" width="10" height="10"/>
    <rect x="260" y="180" width="10" height="10"/>
    <rect x="260" y="190" width="10" height="10"/>
  </g>
  <g fill="#7a6325">
    <rect x="80" y="100" width="10" height="10"/>
    <rect x="60" y="110" width="10" height="10"/>
    <rect x="80" y="110" width="10" height="10"/>
    <rect x="80" y="120" width="10" height="10"/>
    <rect x="80" y="130" width="10" height="10"/>
    <rect x="80" y="140" width="10" height="10"/>
    <rect x="80" y="150" width="10" height="10"/>
    <rect x="80" y="160" width="10" height="10"/>
    <rect x="80" y="170" width="10" height="10"/>
    <rect x="80" y="180" width="10" height="10"/>
    <rect x="80" y="190" width="10" height="10"/>
    <rect x="80" y="200" width="10" height="10"/>
    <rect x="80" y="210" width="10" height="10"/>
    <rect x="80" y="220" width="10" height="10"/>
    <rect x="80" y="230" width="10" height="10"/>
  </g>
  <g fill="#785c18">
    <rect x="280" y="100" width="10" height="10"/>
    <rect x="50" y="110" width="10" height="10"/>
    <rect x="150" y="160" width="10" height="10"/>
    <rect x="240" y="160" width="10" height="10"/>
    <rect x="160" y="170" width="80" height="10"/>
  </g>
  <g fill="#7b6529">
    <rect x="50" y="120" width="10" height="10"/>
    <rect x="90" y="240" width="190" height="10"/>
  </g>
  <g fill="#7d6a34">
    <rect x="30" y="140" width="10" height="10"/>
    <rect x="240" y="170" width="10" height="10"/>
  </g>
  <g fill="#7f6e3c">
    <rect x="250" y="170" width="10" height="10"/>
    <rect x="240" y="180" width="10" height="10"/>
    <rect x="240" y="190" width="10" height="10"/>
    <rect x="80" y="240" width="10" height="10"/>
  </g>
  <rect fill="#827c4d" x="250" y="270" width="10" height="10"/>
</svg>
