<?xml version="1.0" encoding="UTF-8"?>
<svg xmlns="http://www.w3.org/2000/svg" viewBox="0 0 320 320" width="60" height="60">
  <style>rect{shape-rendering:crispEdges}</style>
  <g fill="#beb493">
    <rect x="10" y="30" width="10" height="10"/>
    <rect x="280" y="30" width="20" height="10"/>
    <rect x="10" y="40" width="10" height="10"/>
    <rect x="280" y="40" width="20" height="10"/>
    <rect x="0" y="50" width="20" height="10"/>
    <rect x="280" y="50" width="20" height="10"/>
    <rect x="0" y="60" width="20" height="10"/>
    <rect x="50" y="60" width="10" height="10"/>
    <rect x="120" y="60" width="20" height="10"/>
    <rect x="180" y="60" width="10" height="10"/>
    <rect x="220" y="60" width="20" height="10"/>
    <rect x="280" y="60" width="20" height="10"/>
    <rect x="0" y="70" width="20" height="10"/>
    <rect x="50" y="70" width="30" height="10"/>
    <rect x="150" y="70" width="30" height="10"/>
    <rect x="230" y="70" width="10" height="10"/>
    <rect x="280" y="70" width="20" height="10"/>
    <rect x="0" y="80" width="20" height="10"/>
    <rect x="50" y="80" width="30" height="10"/>
    <rect x="150" y="80" width="30" height="10"/>
    <rect x="230" y="80" width="10" height="10"/>
    <rect x="280" y="80" width="20" height="10"/>
    <rect x="0" y="90" width="20" height="10"/>
    <rect x="280" y="90" width="20" height="10"/>
    <rect x="0" y="100" width="20" height="10"/>
    <rect x="250" y="100" width="10" height="10"/>
    <rect x="280" y="100" width="20" height="10"/>
    <rect x="0" y="110" width="20" height="10"/>
    <rect x="170" y="110" width="10" height="10"/>
    <rect x="230" y="110" width="30" height="10"/>
    <rect x="280" y="110" width="20" height="10"/>
    <rect x="0" y="120" width="20" height="10"/>
    <rect x="90" y="120" width="20" height="10"/>
    <rect x="170" y="120" width="20" height="10"/>
    <rect x="210" y="120" width="50" height="10"/>
    <rect x="280" y="120" width="20" height="10"/>
    <rect x="0" y="130" width="20" height="10"/>
    <rect x="90" y="130" width="20" height="10"/>
    <rect x="170" y="130" width="20" height="10"/>
    <rect x="230" y="130" width="30" height="10"/>
    <rect x="280" y="130" width="20" height="10"/>
    <rect x="0" y="140" width="20" height="10"/>
    <rect x="50" y="140" width="10" height="10"/>
    <rect x="90" y="140" width="20" height="10"/>
    <rect x="230" y="140" width="10" height="10"/>
    <rect x="280" y="140" width="20" height="10"/>
    <rect x="0" y="150" width="20" height="10"/>
    <rect x="50" y="150" width="10" height="10"/>
    <rect x="90" y="150" width="20" height="10"/>
    <rect x="140" y="150" width="10" height="10"/>
    <rect x="280" y="150" width="20" height="10"/>
    <rect x="0" y="160" width="20" height="10"/>
    <rect x="50" y="160" width="10" height="10"/>
    <rect x="100" y="160" width="10" height="10"/>
    <rect x="140" y="160" width="20" height="10"/>
    <rect x="280" y="160" width="20" height="10"/>
    <rect x="0" y="170" width="20" height="10"/>
    <rect x="50" y="170" width="10" height="10"/>
    <rect x="150" y="170" width="10" height="10"/>
    <rect x="170" y="170" width="10" height="10"/>
    <rect x="230" y="170" width="30" height="10"/>
    <rect x="280" y="170" width="20" height="10"/>
    <rect x="0" y="180" width="20" height="10"/>
    <rect x="50" y="180" width="10" height="10"/>
    <rect x="230" y="180" width="30" height="10"/>
    <rect x="280" y="180" width="20" height="10"/>
    <rect x="0" y="190" width="20" height="10"/>
    <rect x="50" y="190" width="10" height="10"/>
    <rect x="100" y="190" width="20" height="10"/>
    <rect x="230" y="190" width="30" height="10"/>
    <rect x="280" y="190" width="20" height="10"/>
    <rect x="0" y="200" width="20" height="10"/>
    <rect x="50" y="200" width="10" height="10"/>
    <rect x="90" y="200" width="20" height="10"/>
    <rect x="120" y="200" width="10" height="10"/>
    <rect x="150" y="200" width="40" height="10"/>
    <rect x="210" y="200" width="10" height="10"/>
    <rect x="250" y="200" width="10" height="10"/>
    <rect x="280" y="200" width="20" height="10"/>
    <rect x="0" y="210" width="20" height="10"/>
    <rect x="50" y="210" width="10" height="10"/>
    <rect x="90" y="210" width="20" height="10"/>
    <rect x="150" y="210" width="30" height="10"/>
    <rect x="240" y="210" width="20" height="10"/>
    <rect x="280" y="210" width="20" height="10"/>
    <rect x="0" y="220" width="20" height="10"/>
    <rect x="50" y="220" width="10" height="10"/>
    <rect x="90" y="220" width="20" height="10"/>
    <rect x="280" y="220" width="20" height="10"/>
    <rect x="0" y="230" width="20" height="10"/>
    <rect x="50" y="230" width="10" height="10"/>
    <rect x="110" y="230" width="10" height="10"/>
    <rect x="280" y="230" width="20" height="10"/>
    <rect x="0" y="240" width="20" height="10"/>
    <rect x="50" y="240" width="10" height="10"/>
    <rect x="140" y="240" width="40" height="10"/>
    <rect x="230" y="240" width="10" height="10"/>
    <rect x="280" y="240" width="20" height="10"/>
    <rect x="50" y="250" width="20" height="10"/>
    <rect x="160" y="250" width="30" height="10"/>
    <rect x="210" y="250" width="30" height="10"/>
    <rect x="50" y="260" width="40" height="10"/>
    <rect x="120" y="260" width="120" height="10"/>
    <rect x="50" y="270" width="20" height="10"/>
    <rect x="230" y="270" width="10" height="10"/>
    <rect x="260" y="270" width="10" height="10"/>
  </g>
  <g fill="#817e75">
    <rect x="20" y="30" width="10" height="10"/>
    <rect x="20" y="40" width="10" height="10"/>
    <rect x="20" y="50" width="10" height="10"/>
    <rect x="20" y="60" width="10" height="10"/>
    <rect x="20" y="70" width="10" height="10"/>
    <rect x="20" y="80" width="10" height="10"/>
    <rect x="20" y="90" width="10" height="10"/>
    <rect x="20" y="100" width="10" height="10"/>
    <rect x="20" y="110" width="10" height="10"/>
    <rect x="20" y="120" width="10" height="10"/>
    <rect x="20" y="130" width="10" height="10"/>
    <rect x="20" y="140" width="10" height="10"/>
    <rect x="20" y="150" width="10" height="10"/>
    <rect x="20" y="160" width="10" height="10"/>
    <rect x="20" y="170" width="10" height="10"/>
    <rect x="20" y="180" width="10" height="10"/>
    <rect x="20" y="190" width="10" height="10"/>
    <rect x="20" y="200" width="10" height="10"/>
    <rect x="20" y="210" width="10" height="10"/>
    <rect x="120" y="210" width="10" height="10"/>
    <rect x="20" y="220" width="10" height="10"/>
    <rect x="20" y="230" width="10" height="10"/>
    <rect x="20" y="240" width="10" height="10"/>
  </g>
  <g fill="#c1b895">
    <rect x="0" y="40" width="10" height="10"/>
    <rect x="220" y="240" width="10" height="10"/>
    <rect x="0" y="250" width="10" height="10"/>
    <rect x="280" y="250" width="10" height="10"/>
    <rect x="0" y="260" width="10" height="10"/>
  </g>
  <g fill="#9e9883">
    <rect x="300" y="40" width="10" height="10"/>
    <rect x="300" y="50" width="10" height="10"/>
    <rect x="300" y="60" width="10" height="10"/>
    <rect x="300" y="70" width="10" height="10"/>
    <rect x="300" y="80" width="10" height="10"/>
    <rect x="300" y="90" width="10" height="10"/>
    <rect x="300" y="100" width="10" height="10"/>
    <rect x="300" y="110" width="10" height="10"/>
    <rect x="300" y="120" width="10" height="10"/>
    <rect x="300" y="130" width="10" height="10"/>
    <rect x="300" y="140" width="10" height="10"/>
    <rect x="300" y="150" width="10" height="10"/>
    <rect x="300" y="160" width="10" height="10"/>
    <rect x="300" y="170" width="10" height="10"/>
    <rect x="300" y="180" width="10" height="10"/>
    <rect x="300" y="190" width="10" height="10"/>
    <rect x="300" y="200" width="10" height="10"/>
    <rect x="300" y="210" width="10" height="10"/>
    <rect x="110" y="220" width="20" height="10"/>
    <rect x="300" y="220" width="10" height="10"/>
    <rect x="300" y="230" width="10" height="10"/>
    <rect x="300" y="240" width="10" height="10"/>
    <rect x="300" y="260" width="10" height="10"/>
  </g>
  <g fill="#77756d">
    <rect x="310" y="40" width="10" height="10"/>
    <rect x="60" y="50" width="20" height="10"/>
    <rect x="150" y="50" width="30" height="10"/>
    <rect x="200" y="50" width="20" height="10"/>
    <rect x="310" y="50" width="10" height="10"/>
    <rect x="310" y="60" width="10" height="10"/>
    <rect x="310" y="70" width="10" height="10"/>
    <rect x="310" y="80" width="10" height="10"/>
    <rect x="310" y="90" width="10" height="10"/>
    <rect x="310" y="100" width="10" height="10"/>
    <rect x="310" y="110" width="10" height="10"/>
    <rect x="310" y="120" width="10" height="10"/>
    <rect x="310" y="130" width="10" height="10"/>
    <rect x="310" y="140" width="10" height="10"/>
  </g>
  <g fill="#554f43">
    <rect x="30" y="50" width="10" height="10"/>
    <rect x="40" y="60" width="10" height="10"/>
    <rect x="40" y="70" width="10" height="10"/>
    <rect x="40" y="80" width="10" height="10"/>
    <rect x="40" y="90" width="10" height="10"/>
    <rect x="40" y="100" width="10" height="10"/>
    <rect x="40" y="110" width="10" height="10"/>
    <rect x="40" y="120" width="10" height="10"/>
    <rect x="40" y="130" width="10" height="10"/>
    <rect x="40" y="140" width="10" height="10"/>
    <rect x="40" y="150" width="10" height="10"/>
    <rect x="40" y="160" width="10" height="10"/>
    <rect x="40" y="170" width="10" height="10"/>
    <rect x="40" y="240" width="10" height="10"/>
    <rect x="40" y="250" width="10" height="10"/>
  </g>
  <g fill="#534d40">
    <rect x="40" y="50" width="10" height="10"/>
    <rect x="70" y="280" width="10" height="10"/>
    <rect x="220" y="280" width="10" height="10"/>
  </g>
  <g fill="#b1ac9d">
    <rect x="50" y="50" width="10" height="10"/>
    <rect x="120" y="50" width="20" height="10"/>
    <rect x="220" y="50" width="20" height="10"/>
    <rect x="310" y="260" width="10" height="10"/>
  </g>
  <g fill="#8b8678">
    <rect x="80" y="50" width="10" height="10"/>
    <rect x="140" y="50" width="10" height="10"/>
    <rect x="180" y="180" width="10" height="10"/>
    <rect x="40" y="260" width="10" height="10"/>
    <rect x="280" y="270" width="10" height="10"/>
  </g>
  <g fill="#8f898e">
    <rect x="90" y="50" width="10" height="10"/>
    <rect x="200" y="180" width="10" height="10"/>
    <rect x="90" y="270" width="10" height="10"/>
  </g>
  <g fill="#4456dd">
    <rect x="100" y="50" width="10" height="10"/>
    <rect x="180" y="230" width="10" height="10"/>
    <rect x="210" y="230" width="10" height="10"/>
    <rect x="200" y="240" width="10" height="10"/>
  </g>
  <g fill="#bbb291">
    <rect x="110" y="50" width="10" height="10"/>
    <rect x="180" y="50" width="10" height="10"/>
    <rect x="260" y="50" width="10" height="10"/>
    <rect x="10" y="280" width="60" height="10"/>
    <rect x="230" y="280" width="70" height="10"/>
  </g>
  <rect fill="#86816e" x="190" y="50" width="10" height="10"/>
  <g fill="#666aa3">
    <rect x="240" y="50" width="20" height="10"/>
    <rect x="140" y="100" width="10" height="10"/>
    <rect x="110" y="110" width="40" height="10"/>
    <rect x="190" y="110" width="20" height="10"/>
    <rect x="120" y="120" width="30" height="10"/>
    <rect x="190" y="170" width="10" height="10"/>
    <rect x="200" y="210" width="10" height="10"/>
    <rect x="100" y="270" width="10" height="10"/>
  </g>
  <rect fill="#3a352d" x="270" y="50" width="10" height="10"/>
  <g fill="#5b5850">
    <rect x="30" y="60" width="10" height="10"/>
    <rect x="30" y="70" width="10" height="10"/>
    <rect x="30" y="80" width="10" height="10"/>
    <rect x="30" y="90" width="10" height="10"/>
    <rect x="30" y="100" width="10" height="10"/>
    <rect x="30" y="110" width="10" height="10"/>
    <rect x="30" y="120" width="10" height="10"/>
    <rect x="30" y="130" width="10" height="10"/>
    <rect x="30" y="140" width="10" height="10"/>
    <rect x="30" y="150" width="10" height="10"/>
    <rect x="30" y="160" width="10" height="10"/>
    <rect x="30" y="170" width="10" height="10"/>
    <rect x="30" y="180" width="10" height="10"/>
    <rect x="30" y="190" width="10" height="10"/>
    <rect x="30" y="200" width="10" height="10"/>
    <rect x="30" y="210" width="10" height="10"/>
    <rect x="30" y="220" width="10" height="10"/>
    <rect x="30" y="230" width="10" height="10"/>
    <rect x="30" y="240" width="10" height="10"/>
    <rect x="30" y="250" width="10" height="10"/>
    <rect x="300" y="250" width="10" height="10"/>
    <rect x="30" y="260" width="10" height="10"/>
  </g>
  <g fill="#a89c86">
    <rect x="60" y="60" width="20" height="10"/>
    <rect x="150" y="60" width="30" height="10"/>
    <rect x="200" y="60" width="20" height="10"/>
    <rect x="160" y="170" width="10" height="10"/>
    <rect x="180" y="170" width="10" height="10"/>
    <rect x="10" y="270" width="10" height="10"/>
    <rect x="270" y="270" width="10" height="10"/>
    <rect x="290" y="270" width="10" height="10"/>
  </g>
  <g fill="#b8a98c">
    <rect x="80" y="60" width="10" height="10"/>
    <rect x="110" y="150" width="10" height="10"/>
    <rect x="150" y="180" width="10" height="10"/>
    <rect x="170" y="180" width="10" height="10"/>
    <rect x="210" y="180" width="10" height="10"/>
    <rect x="150" y="190" width="10" height="10"/>
    <rect x="260" y="260" width="10" height="10"/>
  </g>
  <g fill="#9298b3">
    <rect x="90" y="60" width="10" height="10"/>
    <rect x="110" y="70" width="30" height="10"/>
    <rect x="90" y="110" width="20" height="10"/>
    <rect x="70" y="120" width="10" height="10"/>
    <rect x="190" y="120" width="10" height="10"/>
    <rect x="80" y="130" width="10" height="10"/>
    <rect x="80" y="140" width="10" height="10"/>
    <rect x="80" y="150" width="10" height="10"/>
    <rect x="100" y="170" width="20" height="10"/>
    <rect x="80" y="200" width="10" height="10"/>
    <rect x="80" y="210" width="10" height="10"/>
    <rect x="80" y="220" width="10" height="10"/>
    <rect x="250" y="220" width="10" height="10"/>
    <rect x="80" y="230" width="10" height="10"/>
    <rect x="90" y="260" width="10" height="10"/>
  </g>
  <g fill="#476beb">
    <rect x="100" y="60" width="10" height="10"/>
    <rect x="60" y="130" width="10" height="10"/>
    <rect x="100" y="180" width="30" height="10"/>
    <rect x="130" y="210" width="10" height="10"/>
    <rect x="100" y="240" width="10" height="10"/>
    <rect x="100" y="250" width="10" height="10"/>
    <rect x="100" y="260" width="10" height="10"/>
  </g>
  <g fill="#c0b693">
    <rect x="110" y="60" width="10" height="10"/>
    <rect x="50" y="90" width="10" height="10"/>
    <rect x="50" y="100" width="10" height="10"/>
    <rect x="50" y="110" width="10" height="10"/>
    <rect x="50" y="120" width="10" height="10"/>
    <rect x="50" y="130" width="10" height="10"/>
    <rect x="60" y="140" width="10" height="10"/>
    <rect x="170" y="140" width="20" height="10"/>
    <rect x="240" y="140" width="20" height="10"/>
    <rect x="60" y="150" width="10" height="10"/>
    <rect x="110" y="160" width="10" height="10"/>
    <rect x="120" y="190" width="10" height="10"/>
    <rect x="60" y="200" width="10" height="10"/>
    <rect x="190" y="200" width="20" height="10"/>
    <rect x="60" y="210" width="10" height="10"/>
    <rect x="60" y="220" width="10" height="10"/>
    <rect x="60" y="230" width="10" height="10"/>
    <rect x="60" y="240" width="10" height="10"/>
    <rect x="110" y="240" width="10" height="10"/>
    <rect x="70" y="250" width="20" height="10"/>
    <rect x="110" y="250" width="10" height="10"/>
    <rect x="190" y="250" width="20" height="10"/>
    <rect x="110" y="260" width="10" height="10"/>
  </g>
  <g fill="#b3aa8c">
    <rect x="140" y="60" width="10" height="10"/>
    <rect x="260" y="60" width="10" height="10"/>
    <rect x="260" y="70" width="10" height="10"/>
    <rect x="260" y="80" width="10" height="10"/>
    <rect x="260" y="90" width="10" height="10"/>
    <rect x="260" y="100" width="10" height="10"/>
    <rect x="260" y="110" width="10" height="10"/>
    <rect x="260" y="120" width="10" height="10"/>
    <rect x="260" y="130" width="10" height="10"/>
    <rect x="260" y="140" width="10" height="10"/>
    <rect x="220" y="180" width="10" height="10"/>
    <rect x="180" y="190" width="10" height="10"/>
    <rect x="220" y="210" width="20" height="10"/>
    <rect x="120" y="230" width="10" height="10"/>
    <rect x="130" y="240" width="10" height="10"/>
  </g>
  <g fill="#aea68d">
    <rect x="190" y="60" width="10" height="10"/>
    <rect x="260" y="150" width="10" height="10"/>
    <rect x="260" y="160" width="10" height="10"/>
    <rect x="260" y="170" width="10" height="10"/>
    <rect x="260" y="180" width="10" height="10"/>
    <rect x="260" y="190" width="10" height="10"/>
    <rect x="240" y="200" width="10" height="10"/>
    <rect x="260" y="200" width="10" height="10"/>
    <rect x="260" y="210" width="10" height="10"/>
    <rect x="260" y="220" width="10" height="10"/>
    <rect x="260" y="230" width="10" height="10"/>
    <rect x="260" y="240" width="10" height="10"/>
    <rect x="260" y="250" width="10" height="10"/>
    <rect x="40" y="270" width="10" height="10"/>
  </g>
  <g fill="#647bd4">
    <rect x="240" y="60" width="10" height="10"/>
    <rect x="240" y="70" width="10" height="10"/>
    <rect x="240" y="80" width="10" height="10"/>
    <rect x="190" y="160" width="10" height="10"/>
    <rect x="130" y="230" width="10" height="10"/>
    <rect x="240" y="240" width="10" height="10"/>
    <rect x="240" y="250" width="10" height="10"/>
    <rect x="240" y="260" width="10" height="10"/>
  </g>
  <g fill="#7085cd">
    <rect x="250" y="60" width="10" height="10"/>
    <rect x="90" y="70" width="10" height="10"/>
    <rect x="250" y="70" width="10" height="10"/>
    <rect x="140" y="80" width="10" height="10"/>
    <rect x="250" y="80" width="10" height="10"/>
    <rect x="250" y="90" width="10" height="10"/>
    <rect x="200" y="120" width="10" height="10"/>
    <rect x="140" y="130" width="10" height="10"/>
    <rect x="190" y="140" width="10" height="10"/>
    <rect x="250" y="150" width="10" height="10"/>
    <rect x="130" y="170" width="10" height="10"/>
    <rect x="210" y="170" width="20" height="10"/>
    <rect x="140" y="180" width="10" height="10"/>
    <rect x="140" y="190" width="10" height="10"/>
    <rect x="190" y="190" width="10" height="10"/>
    <rect x="140" y="200" width="10" height="10"/>
    <rect x="140" y="210" width="10" height="10"/>
    <rect x="150" y="220" width="30" height="10"/>
    <rect x="220" y="220" width="30" height="10"/>
    <rect x="250" y="230" width="10" height="10"/>
    <rect x="250" y="240" width="10" height="10"/>
    <rect x="250" y="250" width="10" height="10"/>
    <rect x="250" y="260" width="10" height="10"/>
  </g>
  <g fill="#3b362d">
    <rect x="270" y="60" width="10" height="10"/>
    <rect x="270" y="70" width="10" height="10"/>
    <rect x="270" y="80" width="10" height="10"/>
    <rect x="270" y="90" width="10" height="10"/>
    <rect x="270" y="100" width="10" height="10"/>
    <rect x="270" y="110" width="10" height="10"/>
    <rect x="270" y="120" width="10" height="10"/>
    <rect x="270" y="130" width="10" height="10"/>
    <rect x="270" y="140" width="10" height="10"/>
    <rect x="270" y="150" width="10" height="10"/>
    <rect x="270" y="160" width="10" height="10"/>
    <rect x="270" y="170" width="10" height="10"/>
    <rect x="270" y="180" width="10" height="10"/>
    <rect x="270" y="190" width="10" height="10"/>
    <rect x="270" y="200" width="10" height="10"/>
    <rect x="270" y="210" width="10" height="10"/>
    <rect x="270" y="220" width="10" height="10"/>
    <rect x="270" y="230" width="10" height="10"/>
    <rect x="270" y="240" width="10" height="10"/>
    <rect x="10" y="250" width="10" height="10"/>
    <rect x="270" y="250" width="10" height="10"/>
  </g>
  <g fill="#a5a5a5">
    <rect x="80" y="70" width="10" height="10"/>
    <rect x="80" y="110" width="10" height="10"/>
    <rect x="130" y="150" width="10" height="10"/>
    <rect x="130" y="160" width="10" height="10"/>
    <rect x="160" y="160" width="30" height="10"/>
    <rect x="230" y="160" width="20" height="10"/>
    <rect x="140" y="170" width="10" height="10"/>
    <rect x="90" y="250" width="10" height="10"/>
    <rect x="240" y="270" width="20" height="10"/>
  </g>
  <g fill="#3a64f6">
    <rect x="100" y="70" width="10" height="10"/>
    <rect x="70" y="140" width="10" height="10"/>
    <rect x="70" y="150" width="10" height="10"/>
    <rect x="70" y="200" width="10" height="10"/>
    <rect x="70" y="210" width="10" height="10"/>
    <rect x="70" y="220" width="10" height="10"/>
    <rect x="70" y="230" width="10" height="10"/>
    <rect x="240" y="230" width="10" height="10"/>
    <rect x="70" y="240" width="10" height="10"/>
  </g>
  <g fill="#b0aea0">
    <rect x="140" y="70" width="10" height="10"/>
    <rect x="90" y="230" width="20" height="10"/>
  </g>
  <g fill="#b28a7b">
    <rect x="180" y="70" width="50" height="10"/>
    <rect x="180" y="110" width="10" height="10"/>
  </g>
  <g fill="#5873d5">
    <rect x="80" y="80" width="10" height="10"/>
    <rect x="80" y="100" width="10" height="10"/>
    <rect x="200" y="170" width="10" height="10"/>
    <rect x="200" y="190" width="10" height="10"/>
  </g>
  <g fill="#3a63f6">
    <rect x="90" y="80" width="50" height="10"/>
    <rect x="90" y="90" width="50" height="10"/>
    <rect x="90" y="100" width="50" height="10"/>
    <rect x="70" y="130" width="10" height="10"/>
    <rect x="120" y="130" width="20" height="10"/>
    <rect x="120" y="140" width="10" height="10"/>
    <rect x="120" y="150" width="10" height="10"/>
    <rect x="170" y="150" width="80" height="10"/>
    <rect x="120" y="160" width="10" height="10"/>
    <rect x="200" y="160" width="20" height="10"/>
    <rect x="120" y="170" width="10" height="10"/>
    <rect x="130" y="180" width="10" height="10"/>
  </g>
  <g fill="#8d0c36">
    <rect x="180" y="80" width="10" height="10"/>
    <rect x="180" y="100" width="10" height="10"/>
    <rect x="60" y="160" width="10" height="10"/>
    <rect x="210" y="210" width="10" height="10"/>
    <rect x="180" y="240" width="10" height="10"/>
  </g>
  <g fill="#8a002d">
    <rect x="190" y="80" width="40" height="10"/>
    <rect x="190" y="90" width="40" height="10"/>
    <rect x="190" y="100" width="40" height="10"/>
    <rect x="60" y="170" width="30" height="10"/>
    <rect x="60" y="180" width="30" height="10"/>
    <rect x="60" y="190" width="30" height="10"/>
    <rect x="210" y="240" width="10" height="10"/>
  </g>
  <g fill="#3561f9">
    <rect x="60" y="90" width="30" height="10"/>
    <rect x="140" y="90" width="40" height="10"/>
    <rect x="230" y="90" width="20" height="10"/>
    <rect x="60" y="100" width="10" height="10"/>
    <rect x="60" y="110" width="10" height="10"/>
    <rect x="60" y="120" width="10" height="10"/>
    <rect x="130" y="140" width="40" height="10"/>
    <rect x="200" y="140" width="30" height="10"/>
    <rect x="160" y="150" width="10" height="10"/>
    <rect x="220" y="160" width="10" height="10"/>
    <rect x="80" y="240" width="20" height="10"/>
  </g>
  <g fill="#791a5e">
    <rect x="180" y="90" width="10" height="10"/>
    <rect x="70" y="160" width="10" height="10"/>
    <rect x="90" y="180" width="10" height="10"/>
    <rect x="200" y="230" width="10" height="10"/>
  </g>
  <g fill="#b4ad98">
    <rect x="70" y="100" width="10" height="10"/>
    <rect x="70" y="110" width="10" height="10"/>
    <rect x="80" y="120" width="10" height="10"/>
    <rect x="150" y="130" width="20" height="10"/>
    <rect x="190" y="130" width="40" height="10"/>
    <rect x="150" y="150" width="10" height="10"/>
    <rect x="250" y="160" width="10" height="10"/>
  </g>
  <g fill="#7a7871">
    <rect x="150" y="100" width="10" height="10"/>
    <rect x="150" y="110" width="10" height="10"/>
    <rect x="110" y="130" width="10" height="10"/>
    <rect x="190" y="180" width="10" height="10"/>
    <rect x="120" y="240" width="10" height="10"/>
    <rect x="120" y="250" width="10" height="10"/>
    <rect x="150" y="250" width="10" height="10"/>
    <rect x="300" y="270" width="10" height="10"/>
    <rect x="80" y="280" width="140" height="10"/>
  </g>
  <g fill="#797771">
    <rect x="160" y="100" width="10" height="10"/>
    <rect x="160" y="110" width="10" height="10"/>
    <rect x="110" y="120" width="10" height="10"/>
    <rect x="110" y="140" width="10" height="10"/>
    <rect x="160" y="180" width="10" height="10"/>
    <rect x="160" y="190" width="20" height="10"/>
    <rect x="210" y="190" width="20" height="10"/>
    <rect x="110" y="200" width="10" height="10"/>
    <rect x="220" y="200" width="20" height="10"/>
    <rect x="110" y="210" width="10" height="10"/>
    <rect x="20" y="250" width="10" height="10"/>
    <rect x="130" y="250" width="20" height="10"/>
    <rect x="10" y="260" width="10" height="10"/>
    <rect x="270" y="260" width="10" height="10"/>
  </g>
  <g fill="#bab297">
    <rect x="170" y="100" width="10" height="10"/>
    <rect x="230" y="100" width="20" height="10"/>
  </g>
  <rect fill="#a6686a" x="210" y="110" width="20" height="10"/>
  <g fill="#928d7c">
    <rect x="150" y="120" width="20" height="10"/>
    <rect x="20" y="270" width="20" height="10"/>
    <rect x="70" y="270" width="20" height="10"/>
    <rect x="110" y="270" width="120" height="10"/>
  </g>
  <g fill="#79776f">
    <rect x="310" y="150" width="10" height="10"/>
    <rect x="310" y="160" width="10" height="10"/>
    <rect x="310" y="170" width="10" height="10"/>
    <rect x="310" y="180" width="10" height="10"/>
    <rect x="310" y="190" width="10" height="10"/>
    <rect x="310" y="200" width="10" height="10"/>
    <rect x="310" y="210" width="10" height="10"/>
    <rect x="310" y="220" width="10" height="10"/>
    <rect x="310" y="230" width="10" height="10"/>
    <rect x="310" y="240" width="10" height="10"/>
    <rect x="310" y="250" width="10" height="10"/>
    <rect x="290" y="260" width="10" height="10"/>
  </g>
  <g fill="#8e2248">
    <rect x="80" y="160" width="20" height="10"/>
    <rect x="90" y="170" width="10" height="10"/>
    <rect x="90" y="190" width="10" height="10"/>
    <rect x="180" y="210" width="10" height="10"/>
  </g>
  <g fill="#4e483c">
    <rect x="40" y="180" width="10" height="10"/>
    <rect x="40" y="190" width="10" height="10"/>
    <rect x="40" y="200" width="10" height="10"/>
    <rect x="40" y="210" width="10" height="10"/>
    <rect x="40" y="220" width="10" height="10"/>
    <rect x="40" y="230" width="10" height="10"/>
    <rect x="290" y="250" width="10" height="10"/>
    <rect x="20" y="260" width="10" height="10"/>
  </g>
  <g fill="#4c6ee8">
    <rect x="130" y="190" width="10" height="10"/>
    <rect x="130" y="200" width="10" height="10"/>
    <rect x="130" y="220" width="20" height="10"/>
    <rect x="140" y="230" width="40" height="10"/>
    <rect x="220" y="230" width="20" height="10"/>
  </g>
  <g fill="#5f3497">
    <rect x="190" y="210" width="10" height="10"/>
    <rect x="180" y="220" width="40" height="10"/>
    <rect x="190" y="230" width="10" height="10"/>
    <rect x="190" y="240" width="10" height="10"/>
  </g>
  <rect fill="#3e3930" x="280" y="260" width="10" height="10"/>
</svg>
