<?xml version="1.0" encoding="UTF-8"?>
<svg xmlns="http://www.w3.org/2000/svg" viewBox="0 0 320 320" width="300" height="300">
  <style>rect{shape-rendering:crispEdges}</style>
  <g fill="#49e4f0">
    <rect x="160" y="30" width="10" height="10"/>
    <rect x="170" y="40" width="10" height="10"/>
    <rect x="190" y="80" width="10" height="10"/>
    <rect x="110" y="210" width="10" height="10"/>
    <rect x="120" y="220" width="10" height="10"/>
    <rect x="110" y="230" width="20" height="10"/>
  </g>
  <g fill="#9ecfff">
    <rect x="140" y="40" width="10" height="10"/>
    <rect x="160" y="40" width="10" height="10"/>
    <rect x="130" y="50" width="10" height="10"/>
    <rect x="190" y="60" width="10" height="10"/>
    <rect x="180" y="70" width="10" height="10"/>
    <rect x="200" y="70" width="10" height="10"/>
  </g>
  <g fill="#fbbdff">
    <rect x="150" y="40" width="10" height="10"/>
    <rect x="140" y="50" width="20" height="10"/>
    <rect x="130" y="60" width="20" height="10"/>
    <rect x="110" y="70" width="20" height="10"/>
    <rect x="100" y="80" width="20" height="10"/>
    <rect x="210" y="80" width="10" height="10"/>
    <rect x="90" y="90" width="20" height="10"/>
  </g>
  <g fill="#f599ff">
    <rect x="160" y="50" width="20" height="10"/>
    <rect x="170" y="60" width="20" height="10"/>
    <rect x="190" y="70" width="10" height="10"/>
    <rect x="200" y="80" width="10" height="10"/>
    <rect x="210" y="90" width="20" height="10"/>
  </g>
  <g fill="#63eaff">
    <rect x="180" y="50" width="10" height="10"/>
    <rect x="110" y="90" width="10" height="10"/>
    <rect x="120" y="110" width="10" height="10"/>
    <rect x="110" y="120" width="10" height="10"/>
    <rect x="110" y="130" width="10" height="10"/>
    <rect x="110" y="140" width="10" height="10"/>
    <rect x="110" y="150" width="10" height="10"/>
    <rect x="100" y="210" width="10" height="10"/>
    <rect x="100" y="220" width="20" height="10"/>
    <rect x="130" y="230" width="10" height="10"/>
    <rect x="120" y="240" width="30" height="10"/>
    <rect x="130" y="250" width="10" height="10"/>
    <rect x="140" y="260" width="10" height="10"/>
  </g>
  <g fill="#caf1ff">
    <rect x="120" y="60" width="10" height="10"/>
    <rect x="130" y="70" width="10" height="10"/>
    <rect x="150" y="70" width="20" height="10"/>
    <rect x="100" y="190" width="10" height="10"/>
    <rect x="100" y="200" width="10" height="10"/>
  </g>
  <g fill="#27a6de">
    <rect x="150" y="60" width="20" height="10"/>
    <rect x="140" y="70" width="10" height="10"/>
    <rect x="220" y="210" width="10" height="10"/>
    <rect x="210" y="220" width="10" height="10"/>
    <rect x="200" y="230" width="10" height="10"/>
    <rect x="190" y="240" width="10" height="10"/>
    <rect x="180" y="250" width="10" height="10"/>
    <rect x="170" y="260" width="10" height="10"/>
  </g>
  <g fill="#7feaff">
    <rect x="170" y="70" width="10" height="10"/>
    <rect x="120" y="90" width="20" height="10"/>
    <rect x="190" y="90" width="10" height="10"/>
    <rect x="110" y="100" width="20" height="10"/>
    <rect x="110" y="110" width="10" height="10"/>
    <rect x="90" y="210" width="10" height="10"/>
    <rect x="140" y="250" width="10" height="10"/>
    <rect x="150" y="260" width="10" height="10"/>
  </g>
  <g fill="#ebf4ff">
    <rect x="120" y="80" width="10" height="10"/>
    <rect x="100" y="100" width="10" height="10"/>
    <rect x="100" y="110" width="10" height="10"/>
    <rect x="100" y="120" width="10" height="10"/>
    <rect x="100" y="130" width="10" height="10"/>
    <rect x="100" y="140" width="10" height="10"/>
    <rect x="100" y="150" width="10" height="10"/>
    <rect x="100" y="160" width="10" height="10"/>
    <rect x="100" y="170" width="10" height="10"/>
    <rect x="100" y="180" width="10" height="10"/>
  </g>
  <g fill="#96f8ff">
    <rect x="130" y="80" width="60" height="10"/>
    <rect x="150" y="90" width="20" height="10"/>
    <rect x="150" y="250" width="10" height="10"/>
  </g>
  <g fill="#76faff">
    <rect x="140" y="90" width="10" height="10"/>
    <rect x="170" y="90" width="20" height="10"/>
    <rect x="130" y="100" width="40" height="10"/>
  </g>
  <g fill="#3bd1ee">
    <rect x="200" y="90" width="10" height="10"/>
    <rect x="190" y="220" width="10" height="10"/>
    <rect x="220" y="220" width="10" height="10"/>
    <rect x="180" y="230" width="10" height="10"/>
    <rect x="150" y="240" width="20" height="10"/>
    <rect x="160" y="270" width="10" height="10"/>
  </g>
  <g fill="#fcf7ff">
    <rect x="90" y="100" width="10" height="10"/>
    <rect x="90" y="110" width="10" height="10"/>
    <rect x="90" y="120" width="10" height="10"/>
    <rect x="90" y="130" width="10" height="10"/>
    <rect x="90" y="140" width="10" height="10"/>
    <rect x="90" y="150" width="10" height="10"/>
    <rect x="90" y="160" width="10" height="10"/>
    <rect x="90" y="170" width="10" height="10"/>
    <rect x="90" y="180" width="10" height="10"/>
    <rect x="90" y="190" width="10" height="10"/>
    <rect x="90" y="200" width="10" height="10"/>
  </g>
  <g fill="#63fbff">
    <rect x="170" y="100" width="10" height="10"/>
    <rect x="130" y="110" width="50" height="10"/>
    <rect x="120" y="120" width="10" height="10"/>
    <rect x="140" y="120" width="30" height="10"/>
    <rect x="150" y="130" width="10" height="10"/>
    <rect x="140" y="140" width="10" height="10"/>
  </g>
  <g fill="#53f4fc">
    <rect x="180" y="100" width="10" height="10"/>
    <rect x="120" y="130" width="10" height="10"/>
    <rect x="140" y="130" width="10" height="10"/>
    <rect x="120" y="140" width="10" height="10"/>
    <rect x="110" y="160" width="20" height="10"/>
    <rect x="90" y="220" width="10" height="10"/>
    <rect x="150" y="270" width="10" height="10"/>
  </g>
  <g fill="#2bc6de">
    <rect x="190" y="100" width="20" height="10"/>
    <rect x="200" y="110" width="10" height="10"/>
    <rect x="200" y="120" width="10" height="10"/>
    <rect x="200" y="190" width="10" height="10"/>
    <rect x="200" y="200" width="10" height="10"/>
    <rect x="190" y="210" width="10" height="10"/>
  </g>
  <g fill="#5b61f1">
    <rect x="210" y="100" width="20" height="10"/>
    <rect x="210" y="110" width="20" height="10"/>
    <rect x="210" y="120" width="20" height="10"/>
    <rect x="210" y="130" width="10" height="10"/>
  </g>
  <g fill="#2dd6c6">
    <rect x="180" y="110" width="10" height="10"/>
    <rect x="180" y="120" width="10" height="10"/>
    <rect x="180" y="130" width="10" height="10"/>
    <rect x="180" y="140" width="10" height="10"/>
    <rect x="180" y="150" width="10" height="10"/>
    <rect x="180" y="160" width="10" height="10"/>
    <rect x="190" y="190" width="10" height="10"/>
    <rect x="180" y="200" width="10" height="10"/>
    <rect x="170" y="210" width="20" height="10"/>
    <rect x="150" y="220" width="20" height="10"/>
  </g>
  <g fill="#2cced3">
    <rect x="190" y="110" width="10" height="10"/>
    <rect x="190" y="120" width="10" height="10"/>
    <rect x="190" y="130" width="10" height="10"/>
    <rect x="190" y="140" width="10" height="10"/>
    <rect x="190" y="150" width="10" height="10"/>
    <rect x="200" y="170" width="10" height="10"/>
    <rect x="200" y="180" width="10" height="10"/>
    <rect x="190" y="200" width="10" height="10"/>
    <rect x="170" y="220" width="10" height="10"/>
  </g>
  <g fill="#32f8ef">
    <rect x="130" y="120" width="10" height="10"/>
    <rect x="130" y="130" width="10" height="10"/>
    <rect x="130" y="140" width="10" height="10"/>
    <rect x="120" y="150" width="10" height="10"/>
    <rect x="160" y="190" width="10" height="10"/>
  </g>
  <g fill="#2ee5cb">
    <rect x="170" y="120" width="10" height="10"/>
    <rect x="170" y="130" width="10" height="10"/>
    <rect x="170" y="140" width="10" height="10"/>
    <rect x="140" y="150" width="10" height="10"/>
    <rect x="140" y="160" width="10" height="10"/>
    <rect x="140" y="170" width="10" height="10"/>
    <rect x="180" y="170" width="10" height="10"/>
    <rect x="140" y="180" width="10" height="10"/>
    <rect x="140" y="190" width="10" height="10"/>
    <rect x="180" y="190" width="10" height="10"/>
    <rect x="140" y="200" width="10" height="10"/>
  </g>
  <g fill="#2ff4de">
    <rect x="160" y="130" width="10" height="10"/>
    <rect x="150" y="140" width="20" height="10"/>
    <rect x="150" y="150" width="20" height="10"/>
    <rect x="150" y="160" width="20" height="10"/>
    <rect x="150" y="170" width="30" height="10"/>
    <rect x="150" y="180" width="30" height="10"/>
    <rect x="150" y="190" width="10" height="10"/>
    <rect x="150" y="200" width="20" height="10"/>
  </g>
  <g fill="#2dd4ed">
    <rect x="200" y="130" width="10" height="10"/>
    <rect x="200" y="140" width="10" height="10"/>
    <rect x="110" y="170" width="10" height="10"/>
    <rect x="110" y="180" width="10" height="10"/>
    <rect x="110" y="190" width="10" height="10"/>
    <rect x="110" y="200" width="20" height="10"/>
    <rect x="120" y="210" width="10" height="10"/>
    <rect x="200" y="210" width="10" height="10"/>
    <rect x="130" y="220" width="10" height="10"/>
    <rect x="180" y="220" width="10" height="10"/>
    <rect x="140" y="230" width="40" height="10"/>
  </g>
  <g fill="#3c36da">
    <rect x="220" y="130" width="10" height="10"/>
    <rect x="210" y="140" width="20" height="10"/>
    <rect x="210" y="150" width="10" height="10"/>
    <rect x="210" y="160" width="10" height="10"/>
    <rect x="210" y="170" width="10" height="10"/>
  </g>
  <g fill="#2eded0">
    <rect x="130" y="150" width="10" height="10"/>
    <rect x="130" y="160" width="10" height="10"/>
    <rect x="130" y="170" width="10" height="10"/>
    <rect x="130" y="180" width="10" height="10"/>
    <rect x="190" y="180" width="10" height="10"/>
    <rect x="130" y="190" width="10" height="10"/>
    <rect x="130" y="200" width="10" height="10"/>
    <rect x="140" y="210" width="10" height="10"/>
  </g>
  <g fill="#2feed5">
    <rect x="170" y="150" width="10" height="10"/>
    <rect x="170" y="160" width="10" height="10"/>
    <rect x="180" y="180" width="10" height="10"/>
    <rect x="170" y="190" width="10" height="10"/>
    <rect x="170" y="200" width="10" height="10"/>
    <rect x="150" y="210" width="20" height="10"/>
  </g>
  <g fill="#2dd9e2">
    <rect x="200" y="150" width="10" height="10"/>
    <rect x="200" y="160" width="10" height="10"/>
    <rect x="120" y="180" width="10" height="10"/>
    <rect x="120" y="190" width="10" height="10"/>
    <rect x="130" y="210" width="10" height="10"/>
  </g>
  <g fill="#1b6db7">
    <rect x="220" y="150" width="10" height="10"/>
    <rect x="220" y="160" width="10" height="10"/>
    <rect x="210" y="210" width="10" height="10"/>
    <rect x="200" y="220" width="10" height="10"/>
    <rect x="190" y="230" width="10" height="10"/>
    <rect x="180" y="240" width="10" height="10"/>
    <rect x="170" y="250" width="10" height="10"/>
    <rect x="160" y="260" width="10" height="10"/>
  </g>
  <g fill="#2dddd5">
    <rect x="190" y="160" width="10" height="10"/>
    <rect x="120" y="170" width="10" height="10"/>
    <rect x="190" y="170" width="10" height="10"/>
    <rect x="140" y="220" width="10" height="10"/>
  </g>
  <g fill="#143fa6">
    <rect x="220" y="170" width="10" height="10"/>
    <rect x="210" y="180" width="20" height="10"/>
    <rect x="210" y="190" width="20" height="10"/>
    <rect x="210" y="200" width="20" height="10"/>
    <rect x="170" y="240" width="10" height="10"/>
    <rect x="160" y="250" width="10" height="10"/>
  </g>
</svg>
