<?xml version="1.0" encoding="UTF-8"?>
<!-- Generator: visioncortex VTracer 0.6.5 -->
<svg version="1.1" xmlns="http://www.w3.org/2000/svg" width="60" height="60">
<path d="M0,0 L7,0 L10,6 L10,12 L20,15 L24,28 L24,33 L33,33 L33,58 L-27,58 L-27,33 L-18,32 L-14,16 L-4,11 L-3,4 L-2,1 Z M-8,28 L-8,32 L-6,31 Z M14,31 Z " fill="#0A0C10" transform="translate(27,2)"/>
<path d="M0,0 L7,0 L10,6 L10,12 L20,15 L24,28 L24,30 L22,30 L22,28 L15,28 L14,25 L8,26 L6,25 L7,34 L14,33 L11,36 L5,36 L5,38 L9,39 L18,42 L19,44 L30,46 L30,47 L-26,47 L-23,45 L-16,44 L-13,43 L-5,43 L-3,42 L-2,37 L2,36 L1,34 L0,20 L7,18 L6,13 L2,13 L2,15 L5,15 L5,17 L0,17 L0,11 L-2,11 L-2,9 L1,8 L-2,7 L-2,1 Z " fill="#0F0E11" transform="translate(27,2)"/>
<path d="M0,0 L8,1 L14,3 L15,5 L26,7 L26,8 L-6,8 L-7,6 L-2,5 L-2,3 L0,3 Z " fill="#1D1518" transform="translate(31,41)"/>
<path d="M0,0 L8,0 L9,1 L10,10 L8,10 L8,12 L4,12 L4,14 L7,14 L7,16 L2,16 L2,10 L0,10 L0,8 L3,7 L0,6 Z " fill="#15191E" transform="translate(25,3)"/>
<path d="M0,0 L1,0 L1,6 L5,6 L7,2 L9,2 L10,4 L12,4 L12,6 L24,5 L25,8 L18,9 L13,9 L13,10 L0,12 Z " fill="#101016" transform="translate(0,37)"/>
<path d="M0,0 L5,0 L5,3 L9,5 L7,6 L10,7 L9,11 L11,11 L11,13 L5,13 L3,9 L-3,7 L-3,2 Z " fill="#090C0F" transform="translate(16,16)"/>
<path d="M0,0 L6,0 L6,2 L8,3 L6,6 L5,6 L4,11 L-3,11 L-2,2 Z " fill="#0D0F14" transform="translate(43,30)"/>
<path d="M0,0 L7,1 L8,4 L10,5 L10,10 L8,7 L6,10 L6,7 L5,10 L3,10 L1,4 Z " fill="#0D1116" transform="translate(11,31)"/>
<path d="M0,0 L3,1 L3,3 L6,4 L2,4 L2,7 L-1,9 L-4,9 L-5,4 L-2,1 Z " fill="#13131F" transform="translate(29,37)"/>
<path d="M0,0 L4,1 L5,11 L0,11 Z " fill="#25100A" transform="translate(44,18)"/>
<path d="M0,0 L5,0 L4,4 L1,4 L0,6 L4,6 L4,8 L-6,8 L-7,6 L-2,5 L-2,3 L0,3 Z " fill="#1F1618" transform="translate(31,41)"/>
<path d="M0,0 L4,0 L3,2 L1,1 L2,8 L1,12 L6,12 L7,8 L8,15 L6,15 L6,13 L-1,13 L-1,1 Z " fill="#130C0A" transform="translate(43,17)"/>
<path d="M0,0 L3,1 L3,13 L0,12 Z " fill="#330F07" transform="translate(29,23)"/>
<path d="M0,0 L5,1 L4,5 L-1,7 L-1,5 L-5,5 L-4,2 L-1,2 Z " fill="#191316" transform="translate(36,42)"/>
<path d="M0,0 L6,0 L7,1 L7,6 L2,4 L-1,3 Z " fill="#282E34" transform="translate(27,3)"/>
<path d="M0,0 L7,1 L7,3 L4,5 L1,5 Z " fill="#121217" transform="translate(24,41)"/>
<path d="M0,0 L5,0 L4,4 L6,4 L6,6 L0,6 Z " fill="#491307" transform="translate(21,23)"/>
<path d="M0,0 L5,0 L4,4 L-2,4 L0,3 Z " fill="#1D1415" transform="translate(31,41)"/>
<path d="M0,0 L5,1 L5,3 L3,3 L3,5 L-2,5 L-2,3 L0,2 Z " fill="#181D24" transform="translate(30,10)"/>
<path d="M0,0 L3,0 L2,5 L-1,5 Z " fill="#1E1314" transform="translate(41,43)"/>
<path d="M0,0 L6,1 L6,4 L1,3 Z " fill="#0D1116" transform="translate(12,31)"/>
<path d="M0,0 L3,0 L3,4 L-2,4 L-2,2 L0,2 Z " fill="#0C0F14" transform="translate(14,25)"/>
<path d="M0,0 L4,0 L3,4 L0,4 Z " fill="#5A270C" transform="translate(44,25)"/>
<path d="M0,0 L4,1 L4,6 L1,5 L2,2 L0,2 Z " fill="#14181D" transform="translate(15,17)"/>
<path d="M0,0 L3,0 L3,5 L0,4 Z " fill="#250C08" transform="translate(29,31)"/>
<path d="M0,0 L1,2 L3,2 L3,5 L-1,4 Z " fill="#090D10" transform="translate(14,17)"/>
<path d="M0,0 L7,0 L8,1 L8,7 L7,7 L6,2 L0,1 Z " fill="#111319" transform="translate(27,2)"/>
<path d="M0,0 L3,1 L3,5 L0,4 Z " fill="#5B290F" transform="translate(44,18)"/>
<path d="M0,0 L1,2 L5,2 L5,4 L-1,4 Z " fill="#31120A" transform="translate(22,25)"/>
<path d="M0,0 L4,0 L3,2 L1,1 L0,5 L-1,1 Z " fill="#090C11" transform="translate(43,17)"/>
<path d="M0,0 L3,1 L3,3 L6,4 L2,4 L2,2 L-1,1 Z " fill="#1B1417" transform="translate(29,37)"/>
<path d="M0,0 L2,0 L2,3 L-3,2 Z " fill="#151920" transform="translate(47,31)"/>
<path d="M0,0 L4,0 L3,4 L3,2 L0,2 Z " fill="#0E1118" transform="translate(29,15)"/>
<path d="M0,0 L3,0 L3,3 L0,3 Z " fill="#4B2117" transform="translate(41,43)"/>
<path d="M0,0 L6,0 L6,2 L0,1 Z " fill="#0E1218" transform="translate(28,9)"/>
<path d="M0,0 L2,1 L1,3 L3,4 L1,4 L0,6 Z " fill="#14181D" transform="translate(25,3)"/>
<path d="M0,0 L4,0 L3,3 L0,2 Z " fill="#303639" transform="translate(28,3)"/>
<path d="M0,0 L3,0 L3,3 L0,2 Z " fill="#152638" transform="translate(25,41)"/>
<path d="M0,0 L4,0 L4,2 L0,2 Z " fill="#46221A" transform="translate(32,41)"/>
<path d="M0,0 L4,2 L0,3 Z " fill="#0F1319" transform="translate(43,32)"/>
<path d="M0,0 L5,1 L1,3 Z " fill="#15191F" transform="translate(12,31)"/>
<path d="M0,0 L5,2 L1,3 Z " fill="#0C1115" transform="translate(13,21)"/>
<path d="M0,0 L5,0 L3,2 L0,2 Z " fill="#1F0B07" transform="translate(29,20)"/>
<path d="M0,0 L1,0 L1,7 L0,7 Z " fill="#130A07" transform="translate(32,29)"/>
<path d="M0,0 L1,3 L4,4 L0,4 Z " fill="#2D130B" transform="translate(43,26)"/>
<path d="M0,0 L3,1 L2,4 L2,2 L0,2 Z " fill="#1B2026" transform="translate(15,17)"/>
<path d="M0,0 L4,1 L0,1 Z " fill="#461F16" transform="translate(32,43)"/>
<path d="M0,0 L2,0 L2,3 L0,3 Z " fill="#12151B" transform="translate(15,26)"/>
<path d="M0,0 L4,0 L3,3 L3,1 Z " fill="#481E0B" transform="translate(44,25)"/>
<path d="M0,0 L4,0 L3,2 L0,2 Z " fill="#2D1309" transform="translate(43,17)"/>
<path d="M0,0 L3,0 L3,2 L0,2 Z " fill="#23282F" transform="translate(29,17)"/>
<path d="M0,0 L2,4 L0,3 Z " fill="#111E2E" transform="translate(24,41)"/>
<path d="M0,0 L4,2 L0,2 Z " fill="#12141A" transform="translate(31,39)"/>
<path d="M0,0 L2,1 L2,3 L0,3 Z " fill="#101319" transform="translate(14,38)"/>
<path d="M0,0 L1,4 L-1,1 Z " fill="#0B0E12" transform="translate(40,36)"/>
<path d="M0,0 L1,4 L-1,3 Z " fill="#2D130A" transform="translate(48,25)"/>
<path d="M0,0 L4,2 L0,2 Z " fill="#20252C" transform="translate(28,13)"/>
<path d="M0,0 L3,1 L1,3 Z " fill="#1A1F27" transform="translate(26,12)"/>
<path d="M0,0 L3,1 L0,2 Z " fill="#030707" transform="translate(26,9)"/>
<path d="M0,0 L2,0 L1,3 Z " fill="#0B0E13" transform="translate(24,9)"/>
<path d="M0,0 L1,0 L1,5 L0,5 Z " fill="#14191E" transform="translate(34,4)"/>
<path d="M0,0 L1,3 L-1,3 Z " fill="#271F20" transform="translate(27,3)"/>
<path d="M0,0 L3,1 L0,2 Z " fill="#53261A" transform="translate(32,41)"/>
<path d="M0,0 L2,0 L2,2 L0,2 Z " fill="#28475E" transform="translate(25,41)"/>
<path d="M0,0 L4,1 Z " fill="#14191F" transform="translate(42,36)"/>
<path d="M0,0 L2,2 L0,3 Z " fill="#1C0E09" transform="translate(43,23)"/>
<path d="M0,0 L3,1 L0,2 Z " fill="#171215" transform="translate(20,22)"/>
<path d="M0,0 L2,0 L2,2 L0,2 Z " fill="#131115" transform="translate(15,20)"/>
<path d="M0,0 L1,4 Z " fill="#51240C" transform="translate(46,19)"/>
<path d="M0,0 L2,0 L2,2 L0,2 Z " fill="#3A1005" transform="translate(32,9)"/>
<path d="M0,0 L2,0 L2,2 L0,2 Z " fill="#191E22" transform="translate(26,7)"/>
<path d="M0,0 L3,1 Z " fill="#39150F" transform="translate(41,46)"/>
<path d="M0,0 L3,1 Z " fill="#13161C" transform="translate(15,34)"/>
<path d="M0,0 L3,1 Z " fill="#0F1219" transform="translate(44,31)"/>
<path d="M0,0 L3,1 Z " fill="#0C1115" transform="translate(14,31)"/>
<path d="M0,0 L3,1 Z " fill="#4D200B" transform="translate(44,28)"/>
<path d="M0,0 L2,2 L0,2 Z " fill="#210D09" transform="translate(21,27)"/>
<path d="M0,0 Z " fill="#3C180A" transform="translate(43,26)"/>
<path d="M0,0 Z " fill="#2D140C" transform="translate(47,19)"/>
<path d="M0,0 L2,2 L0,2 Z " fill="#1C0C08" transform="translate(26,19)"/>
<path d="M0,0 L2,1 L0,2 Z " fill="#57250B" transform="translate(44,18)"/>
<path d="M0,0 L2,1 L0,2 Z " fill="#11171C" transform="translate(25,3)"/>
<path d="M0,0 Z " fill="#281211" transform="translate(44,44)"/>
<path d="M0,0 Z " fill="#331813" transform="translate(40,44)"/>
<path d="M0,0 Z " fill="#602210" transform="translate(43,43)"/>
<path d="M0,0 Z " fill="#7D2F15" transform="translate(42,43)"/>
<path d="M0,0 Z " fill="#682815" transform="translate(41,43)"/>
<path d="M0,0 L2,1 Z " fill="#391914" transform="translate(33,44)"/>
<path d="M0,0 L2,1 Z " fill="#0D1623" transform="translate(26,44)"/>
<path d="M0,0 L2,1 Z " fill="#612818" transform="translate(33,42)"/>
<path d="M0,0 Z " fill="#172B3F" transform="translate(24,41)"/>
<path d="M0,0 L2,1 Z " fill="#883C21" transform="translate(33,41)"/>
<path d="M0,0 L2,1 Z " fill="#284C66" transform="translate(25,41)"/>
<path d="M0,0 L2,1 Z " fill="#422019" transform="translate(33,40)"/>
<path d="M0,0 L2,1 Z " fill="#141526" transform="translate(25,40)"/>
<path d="M0,0 Z " fill="#13161B" transform="translate(20,39)"/>
<path d="M0,0 L2,1 Z " fill="#0B0F13" transform="translate(12,30)"/>
<path d="M0,0 Z " fill="#240D09" transform="translate(26,27)"/>
<path d="M0,0 Z " fill="#1F1110" transform="translate(25,25)"/>
<path d="M0,0 Z " fill="#521404" transform="translate(23,25)"/>
<path d="M0,0 L2,1 Z " fill="#3F1107" transform="translate(24,23)"/>
<path d="M0,0 L2,1 Z " fill="#1B1416" transform="translate(21,22)"/>
<path d="M0,0 Z " fill="#1C120F" transform="translate(43,20)"/>
<path d="M0,0 Z " fill="#2B120B" transform="translate(15,20)"/>
<path d="M0,0 Z " fill="#130C0A" transform="translate(14,20)"/>
<path d="M0,0 L2,1 Z " fill="#200D09" transform="translate(32,20)"/>
<path d="M0,0 Z " fill="#1D2326" transform="translate(17,19)"/>
<path d="M0,0 Z " fill="#38180B" transform="translate(46,17)"/>
<path d="M0,0 Z " fill="#1D2129" transform="translate(31,17)"/>
<path d="M0,0 Z " fill="#161B22" transform="translate(28,17)"/>
<path d="M0,0 Z " fill="#13181D" transform="translate(15,17)"/>
<path d="M0,0 L2,1 Z " fill="#301509" transform="translate(44,17)"/>
<path d="M0,0 Z " fill="#13181E" transform="translate(27,13)"/>
<path d="M0,0 Z " fill="#21262B" transform="translate(30,10)"/>
<path d="M0,0 L2,1 Z " fill="#2B120B" transform="translate(32,9)"/>
<path d="M0,0 Z " fill="#391914" transform="translate(41,46)"/>
<path d="M0,0 Z " fill="#33130C" transform="translate(33,44)"/>
<path d="M0,0 Z " fill="#110F13" transform="translate(31,44)"/>
<path d="M0,0 Z " fill="#451C13" transform="translate(43,43)"/>
<path d="M0,0 Z " fill="#65301F" transform="translate(42,43)"/>
<path d="M0,0 Z " fill="#4E1D10" transform="translate(41,43)"/>
<path d="M0,0 Z " fill="#211414" transform="translate(40,43)"/>
<path d="M0,0 Z " fill="#223F58" transform="translate(25,42)"/>
<path d="M0,0 Z " fill="#53261A" transform="translate(35,41)"/>
<path d="M0,0 Z " fill="#93482B" transform="translate(33,41)"/>
<path d="M0,0 Z " fill="#682E1C" transform="translate(32,41)"/>
<path d="M0,0 Z " fill="#192D42" transform="translate(27,41)"/>
<path d="M0,0 Z " fill="#1B1416" transform="translate(35,40)"/>
<path d="M0,0 Z " fill="#211718" transform="translate(32,40)"/>
<path d="M0,0 Z " fill="#0C1115" transform="translate(45,33)"/>
<path d="M0,0 Z " fill="#130C0A" transform="translate(47,29)"/>
<path d="M0,0 Z " fill="#421308" transform="translate(25,27)"/>
<path d="M0,0 Z " fill="#431208" transform="translate(22,27)"/>
<path d="M0,0 Z " fill="#3F1B0A" transform="translate(44,25)"/>
<path d="M0,0 Z " fill="#1D0D09" transform="translate(31,24)"/>
<path d="M0,0 Z " fill="#521605" transform="translate(22,24)"/>
<path d="M0,0 Z " fill="#2B120B" transform="translate(21,24)"/>
<path d="M0,0 Z " fill="#230D09" transform="translate(43,23)"/>
<path d="M0,0 Z " fill="#32130C" transform="translate(24,23)"/>
<path d="M0,0 Z " fill="#1C120F" transform="translate(23,23)"/>
<path d="M0,0 Z " fill="#3F1B0C" transform="translate(46,22)"/>
<path d="M0,0 Z " fill="#361A0D" transform="translate(44,22)"/>
<path d="M0,0 Z " fill="#2B120B" transform="translate(21,22)"/>
<path d="M0,0 Z " fill="#31180D" transform="translate(43,20)"/>
<path d="M0,0 Z " fill="#24110A" transform="translate(16,20)"/>
<path d="M0,0 Z " fill="#7C1E06" transform="translate(15,20)"/>
<path d="M0,0 Z " fill="#2B120B" transform="translate(14,20)"/>
<path d="M0,0 Z " fill="#221109" transform="translate(47,19)"/>
<path d="M0,0 Z " fill="#49210D" transform="translate(44,19)"/>
<path d="M0,0 Z " fill="#130C0A" transform="translate(43,19)"/>
<path d="M0,0 Z " fill="#252A2E" transform="translate(17,19)"/>
<path d="M0,0 Z " fill="#131115" transform="translate(16,19)"/>
<path d="M0,0 Z " fill="#250C07" transform="translate(15,19)"/>
<path d="M0,0 Z " fill="#130C0A" transform="translate(14,19)"/>
<path d="M0,0 Z " fill="#12141A" transform="translate(18,18)"/>
<path d="M0,0 Z " fill="#060B0B" transform="translate(46,17)"/>
<path d="M0,0 Z " fill="#431C0A" transform="translate(44,17)"/>
<path d="M0,0 Z " fill="#12141A" transform="translate(17,17)"/>
<path d="M0,0 Z " fill="#050A0A" transform="translate(14,17)"/>
<path d="M0,0 Z " fill="#171C23" transform="translate(32,14)"/>
<path d="M0,0 Z " fill="#232731" transform="translate(28,13)"/>
<path d="M0,0 Z " fill="#0A0C0E" transform="translate(30,12)"/>
<path d="M0,0 Z " fill="#12141A" transform="translate(29,12)"/>
<path d="M0,0 Z " fill="#161C23" transform="translate(31,11)"/>
<path d="M0,0 Z " fill="#0E1219" transform="translate(28,11)"/>
<path d="M0,0 Z " fill="#191E25" transform="translate(25,11)"/>
<path d="M0,0 Z " fill="#0B0D12" transform="translate(31,10)"/>
<path d="M0,0 Z " fill="#272C33" transform="translate(30,10)"/>
<path d="M0,0 Z " fill="#361A14" transform="translate(32,9)"/>
<path d="M0,0 Z " fill="#252A2F" transform="translate(28,8)"/>
<path d="M0,0 Z " fill="#20252A" transform="translate(26,7)"/>
<path d="M0,0 Z " fill="#2E3032" transform="translate(26,5)"/>
<path d="M0,0 Z " fill="#05090B" transform="translate(34,3)"/>
<path d="M0,0 Z " fill="#191E22" transform="translate(33,3)"/>
<path d="M0,0 Z " fill="#262D30" transform="translate(32,3)"/>
<path d="M0,0 Z " fill="#292F34" transform="translate(28,3)"/>
<path d="M0,0 Z " fill="#291A1B" transform="translate(27,3)"/>
<path d="M0,0 Z " fill="#1B1416" transform="translate(26,3)"/>
<path d="M0,0 Z " fill="#050A0A" transform="translate(25,3)"/>
<path d="M0,0 Z " fill="#04080A" transform="translate(33,2)"/>
<path d="M0,0 Z " fill="#0A0D16" transform="translate(32,2)"/>
<path d="M0,0 Z " fill="#0C0C0C" transform="translate(27,2)"/>
</svg>
