<?xml version="1.0" encoding="UTF-8"?>
<svg xmlns="http://www.w3.org/2000/svg" viewBox="0 0 320 320" width="60" height="60">
  <style>rect{shape-rendering:crispEdges}</style>
  <g fill="#2b4b16">
    <rect x="10" y="110" width="10" height="10"/>
    <rect x="70" y="110" width="10" height="10"/>
    <rect x="40" y="120" width="10" height="10"/>
    <rect x="100" y="120" width="20" height="10"/>
    <rect x="50" y="130" width="10" height="10"/>
    <rect x="150" y="140" width="10" height="10"/>
    <rect x="230" y="150" width="10" height="10"/>
    <rect x="250" y="160" width="10" height="10"/>
    <rect x="290" y="170" width="10" height="10"/>
    <rect x="250" y="180" width="10" height="10"/>
    <rect x="220" y="190" width="10" height="10"/>
    <rect x="280" y="190" width="10" height="10"/>
  </g>
  <g fill="#9dcb1f">
    <rect x="20" y="110" width="10" height="10"/>
    <rect x="240" y="160" width="10" height="10"/>
  </g>
  <g fill="#27681a">
    <rect x="30" y="110" width="10" height="10"/>
    <rect x="90" y="120" width="10" height="10"/>
    <rect x="210" y="180" width="10" height="10"/>
  </g>
  <rect fill="#4b6c29" x="50" y="120" width="10" height="10"/>
  <g fill="#304e1b">
    <rect x="60" y="120" width="20" height="10"/>
    <rect x="100" y="130" width="10" height="10"/>
    <rect x="30" y="140" width="10" height="10"/>
    <rect x="220" y="160" width="10" height="10"/>
  </g>
  <g fill="#179115">
    <rect x="80" y="120" width="10" height="10"/>
    <rect x="270" y="190" width="10" height="10"/>
  </g>
  <g fill="#319226">
    <rect x="10" y="130" width="10" height="10"/>
    <rect x="290" y="180" width="10" height="10"/>
  </g>
  <g fill="#789247">
    <rect x="20" y="130" width="10" height="10"/>
    <rect x="50" y="140" width="10" height="10"/>
  </g>
  <rect fill="#8b8c4a" x="30" y="130" width="10" height="10"/>
  <rect fill="#5b6820" x="40" y="130" width="10" height="10"/>
  <g fill="#386164">
    <rect x="70" y="130" width="10" height="10"/>
    <rect x="230" y="180" width="10" height="10"/>
  </g>
  <g fill="#4f375a">
    <rect x="80" y="130" width="10" height="10"/>
    <rect x="160" y="150" width="10" height="10"/>
    <rect x="160" y="160" width="10" height="10"/>
  </g>
  <g fill="#51552f">
    <rect x="90" y="130" width="10" height="10"/>
    <rect x="40" y="140" width="10" height="10"/>
  </g>
  <rect fill="#2a2d19" x="110" y="130" width="10" height="10"/>
  <g fill="#20211b">
    <rect x="120" y="130" width="10" height="10"/>
    <rect x="130" y="140" width="20" height="10"/>
  </g>
  <g fill="#a0a528">
    <rect x="130" y="130" width="10" height="10"/>
    <rect x="20" y="140" width="10" height="10"/>
    <rect x="190" y="150" width="10" height="10"/>
  </g>
  <rect fill="#97635b" x="60" y="140" width="10" height="10"/>
  <g fill="#8f3c51">
    <rect x="70" y="140" width="10" height="10"/>
    <rect x="140" y="150" width="10" height="10"/>
  </g>
  <rect fill="#956334" x="80" y="140" width="10" height="10"/>
  <g fill="#6d3633">
    <rect x="90" y="140" width="10" height="10"/>
    <rect x="150" y="150" width="10" height="10"/>
    <rect x="170" y="160" width="10" height="10"/>
  </g>
  <rect fill="#5d3a1f" x="100" y="140" width="20" height="10"/>
  <rect fill="#573024" x="120" y="140" width="10" height="10"/>
  <g fill="#637198">
    <rect x="70" y="150" width="10" height="10"/>
    <rect x="110" y="150" width="10" height="10"/>
  </g>
  <rect fill="#739367" x="80" y="150" width="10" height="10"/>
  <g fill="#c9c14f">
    <rect x="90" y="150" width="10" height="10"/>
    <rect x="210" y="160" width="10" height="10"/>
  </g>
  <rect fill="#4f65a5" x="100" y="150" width="10" height="10"/>
  <g fill="#a1a162">
    <rect x="120" y="150" width="10" height="10"/>
    <rect x="190" y="170" width="10" height="10"/>
    <rect x="230" y="170" width="10" height="10"/>
  </g>
  <rect fill="#90514c" x="130" y="150" width="10" height="10"/>
  <rect fill="#302a66" x="170" y="150" width="10" height="10"/>
  <rect fill="#afbb69" x="200" y="150" width="10" height="10"/>
  <g fill="#dbdb31">
    <rect x="210" y="150" width="10" height="10"/>
    <rect x="240" y="190" width="10" height="10"/>
  </g>
  <g fill="#a8ac28">
    <rect x="140" y="160" width="10" height="10"/>
    <rect x="220" y="170" width="10" height="10"/>
    <rect x="230" y="190" width="10" height="10"/>
  </g>
  <g fill="#75704f">
    <rect x="150" y="160" width="10" height="10"/>
    <rect x="230" y="160" width="10" height="10"/>
    <rect x="200" y="170" width="20" height="10"/>
  </g>
  <g fill="#a6aea3">
    <rect x="180" y="160" width="10" height="10"/>
    <rect x="200" y="160" width="10" height="10"/>
    <rect x="200" y="180" width="10" height="10"/>
  </g>
  <g fill="#e5e5e4">
    <rect x="190" y="160" width="10" height="10"/>
    <rect x="180" y="180" width="20" height="10"/>
  </g>
  <rect fill="#d8dc5b" x="180" y="170" width="10" height="10"/>
  <g fill="#e7e829">
    <rect x="240" y="170" width="10" height="10"/>
    <rect x="220" y="180" width="10" height="10"/>
    <rect x="310" y="180" width="10" height="10"/>
    <rect x="290" y="200" width="10" height="10"/>
  </g>
  <rect fill="#2fd12d" x="250" y="170" width="20" height="10"/>
  <rect fill="#1ca71b" x="270" y="170" width="10" height="10"/>
  <g fill="#67a428">
    <rect x="280" y="170" width="10" height="10"/>
    <rect x="240" y="180" width="10" height="10"/>
  </g>
  <rect fill="#41e540" x="300" y="180" width="10" height="10"/>
  <rect fill="#2aae20" x="260" y="190" width="10" height="10"/>
</svg>
