<?xml version="1.0" encoding="UTF-8"?>
<!-- Generator: visioncortex VTracer 0.6.5 -->
<svg version="1.1" xmlns="http://www.w3.org/2000/svg" width="120" height="120">
<path d="M0,0 L120,0 L120,120 L0,120 Z " fill="#0C001A" transform="translate(0,0)"/>
<path d="M0,0 L8,0 L14,2 L16,3 L16,5 L20,6 L19,7 L24,10 L27,14 L27,17 L30,18 L32,22 L34,23 L36,30 L38,37 L39,40 L37,46 L38,55 L36,61 L33,67 L28,70 L25,73 L23,73 L22,77 L17,77 L17,80 L7,83 L7,85 L4,85 L3,88 L2,86 L-2,86 L-2,80 L4,73 L5,73 L5,80 L8,74 L9,70 L6,71 L3,67 L4,58 L2,57 L1,62 L0,66 L-2,66 L-1,58 L-2,55 L-7,54 L-7,52 L-11,53 L-14,45 L-17,43 L-17,39 L-15,39 L-16,36 L-18,34 L-13,34 L-13,24 L-10,25 L-9,28 L-7,29 L-8,25 L-7,23 L-1,25 L-1,20 L1,19 L3,24 L3,27 L5,27 L6,25 L8,28 L11,28 L11,35 L13,35 L13,38 L16,39 L15,41 L17,43 L16,45 L14,45 L14,48 L16,48 L17,51 L11,49 L14,55 L15,58 L20,58 L19,55 L19,52 L24,53 L25,54 L25,61 L23,61 L23,66 L27,59 L26,51 L25,48 L23,48 L24,43 L29,44 L25,40 L25,37 L29,35 L30,30 L25,34 L20,34 L21,29 L23,29 L23,23 L22,20 L20,20 L21,26 L18,28 L15,28 L15,15 L13,22 L9,22 L7,19 L5,21 L4,16 L5,9 L3,6 L3,3 L0,3 Z " fill="#10001A" transform="translate(61,16)"/>
<path d="M0,0 L5,3 L6,10 L5,16 L8,14 L10,18 L12,18 L14,10 L16,11 L16,20 L15,24 L20,22 L20,16 L22,16 L24,19 L23,25 L21,26 L20,30 L27,28 L30,24 L31,29 L27,33 L25,33 L25,36 L29,38 L31,40 L30,43 L27,40 L24,40 L23,44 L25,44 L28,50 L27,57 L23,64 L22,60 L23,57 L25,57 L24,50 L19,48 L22,54 L21,58 L20,54 L15,54 L11,48 L11,45 L16,46 L16,44 L14,44 L14,41 L16,41 L16,39 L14,37 L15,35 L13,34 L13,31 L11,31 L10,25 L5,23 L3,23 L0,16 L0,22 L-4,21 L-7,19 L-7,25 L-10,24 L-12,21 L-13,30 L-16,31 L-15,35 L-16,39 L-12,42 L-10,48 L-7,48 L-7,50 L-2,50 L0,54 L-1,59 L-2,62 L0,62 L1,57 L2,53 L5,54 L4,63 L7,66 L9,66 L8,73 L4,77 L4,70 L-1,76 L-1,82 L0,84 L-3,83 L-3,81 L-5,81 L-5,67 L-7,67 L-7,65 L-9,65 L-9,71 L-13,73 L-12,68 L-14,63 L-15,59 L-17,59 L-18,63 L-19,59 L-19,55 L-20,56 L-20,64 L-18,68 L-23,63 L-24,55 L-22,48 L-27,50 L-28,56 L-30,56 L-31,49 L-25,41 L-31,41 L-33,39 L-32,36 L-28,37 L-27,34 L-30,31 L-30,29 L-23,30 L-23,25 L-25,25 L-27,22 L-27,15 L-25,15 L-23,21 L-16,25 L-16,19 L-18,17 L-18,12 L-12,5 L-11,8 L-13,8 L-13,15 L-8,17 L-8,14 L-4,14 L1,8 L1,3 Z " fill="#040008" transform="translate(61,20)"/>
<path d="M0,0 L3,1 L4,4 L7,5 L8,2 L10,3 L14,3 L14,6 L20,7 L24,14 L24,23 L23,27 L20,27 L20,30 L14,30 L13,33 L9,31 L6,30 L6,28 L2,29 L-1,21 L-4,19 L-4,15 L-2,15 L-3,12 L-5,10 L0,10 Z " fill="#0E0017" transform="translate(48,40)"/>
<path d="M0,0 L4,1 L5,1 L13,0 L15,3 L15,8 L9,15 L5,14 L5,17 L0,16 L-1,15 L0,8 L2,8 L1,6 L-4,12 L-4,17 L-2,19 L-3,25 L-7,23 L-11,19 L-11,13 L-10,11 L-5,10 L-6,3 Z " fill="#1C0026" transform="translate(48,20)"/>
<path d="M0,0 L7,1 L10,4 L11,10 L7,15 L5,16 L-2,16 L-6,12 L-6,4 L-3,1 Z " fill="#030006" transform="translate(58,50)"/>
<path d="M0,0 L2,4 L3,8 L5,8 L6,6 L8,9 L11,9 L11,16 L13,16 L13,19 L16,20 L15,22 L17,24 L16,26 L14,26 L14,29 L16,29 L17,32 L11,30 L11,35 L7,32 L10,32 L10,19 L7,15 L7,12 L1,11 L1,8 L-4,9 L-5,8 L-7,10 L-8,6 L-7,4 L-1,6 L-1,1 Z " fill="#0D0017" transform="translate(61,35)"/>
<path d="M0,0 L8,0 L14,5 L15,7 L15,13 L12,18 L8,20 L0,20 L-5,16 L-7,13 L-7,7 L-4,2 Z M2,2 L-3,5 L-4,6 L-4,14 L0,18 L7,18 L12,14 L13,9 L10,4 L7,2 Z " fill="#C1957C" transform="translate(56,48)"/>
<path d="M0,0 L4,1 L2,1 L0,6 L0,12 L4,17 L6,18 L14,18 L18,17 L20,12 L20,4 L22,5 L22,14 L21,18 L18,18 L18,21 L12,21 L11,24 L7,22 L4,21 L4,19 L0,20 L-3,12 L-4,9 L-2,2 L0,2 Z " fill="#3E0138" transform="translate(50,49)"/>
<path d="M0,0 L6,0 L7,4 L3,9 L-1,8 L-1,11 L-6,10 L-6,5 L-4,4 L-2,5 L-2,2 L0,2 Z " fill="#2A0030" transform="translate(54,26)"/>
<path d="M0,0 L3,2 L5,8 L8,8 L8,10 L13,10 L12,17 L10,23 L8,23 L9,11 L3,10 L2,6 L-1,7 Z " fill="#0C0015" transform="translate(46,60)"/>
<path d="M0,0 L6,0 L7,7 L5,10 L1,8 L0,6 L-2,8 L-3,3 L0,2 Z " fill="#22002A" transform="translate(68,29)"/>
<path d="M0,0 L6,0 L7,2 L5,2 L6,7 L4,14 L2,13 L3,4 L1,3 L0,8 L-1,12 L-3,12 L-2,2 Z " fill="#0C0014" transform="translate(62,70)"/>
<path d="M0,0 L5,0 L5,2 L7,2 L7,7 L0,6 L-2,2 L0,2 Z " fill="#1A0024" transform="translate(31,43)"/>
<path d="M0,0 L1,3 L7,4 L9,10 L3,6 L-7,6 L-7,4 L-2,2 Z " fill="#2F0032" transform="translate(61,43)"/>
<path d="M0,0 L2,1 L2,10 L1,14 L-5,16 L-14,16 L-14,15 L-2,13 L0,8 Z " fill="#7A2051" transform="translate(70,53)"/>
<path d="M0,0 L6,1 L6,3 L18,2 L18,4 L12,4 L11,7 L7,5 L4,4 L4,2 L0,3 Z " fill="#2F0030" transform="translate(50,66)"/>
<path d="M0,0 L3,0 L3,5 L-4,6 L-3,1 Z " fill="#25002C" transform="translate(85,44)"/>
<path d="M0,0 L4,2 L6,5 L6,11 L3,14 L3,7 L0,2 Z " fill="#C58670" transform="translate(65,50)"/>
<path d="M0,0 L8,0 L10,2 L7,3 L-4,4 L-4,2 Z " fill="#BC8079" transform="translate(56,48)"/>
<path d="M0,0 L5,0 L4,5 L-1,6 Z " fill="#21002A" transform="translate(77,38)"/>
<path d="M0,0 L2,0 L2,3 L4,3 L5,6 L-1,4 L-1,9 L-5,6 L-2,6 L-2,2 L0,2 Z " fill="#090010" transform="translate(73,61)"/>
<path d="M0,0 L3,0 L3,3 L6,4 L5,6 L1,6 L0,8 Z " fill="#12001C" transform="translate(72,55)"/>
<path d="M0,0 L0,3 L-2,10 L-4,10 L-4,4 Z " fill="#CDA177" transform="translate(53,51)"/>
<path d="M0,0 L0,3 L1,9 L-2,8 L-5,3 L-2,3 L-2,1 Z " fill="#0D0014" transform="translate(45,53)"/>
<path d="M0,0 L1,0 L3,6 L5,10 L1,9 L-2,3 L0,3 Z " fill="#44023A" transform="translate(48,56)"/>
<path d="M0,0 L1,4 L0,6 L-4,4 L-5,1 L-1,2 Z " fill="#2A0031" transform="translate(45,39)"/>
<path d="M0,0 L1,4 L-1,4 L-1,7 L-6,6 L-2,5 Z " fill="#110019" transform="translate(54,30)"/>
<path d="M0,0 L2,1 L0,6 L-3,8 L-2,4 Z " fill="#0C0014" transform="translate(50,70)"/>
<path d="M0,0 L3,1 L-2,2 L-2,4 L-6,4 L-7,6 L-7,3 L-3,3 L-3,1 Z " fill="#28002E" transform="translate(56,45)"/>
<path d="M0,0 L2,0 L2,2 L-1,3 L-10,3 L-10,2 Z " fill="#3D0138" transform="translate(66,66)"/>
<path d="M0,0 L3,0 L3,2 L-3,2 L-4,5 L-5,3 L-4,1 Z " fill="#340036" transform="translate(65,68)"/>
<path d="M0,0 L1,2 L-1,7 L-3,6 L-3,2 Z " fill="#15001F" transform="translate(47,53)"/>
<path d="M0,0 L6,1 L5,3 L-2,4 L0,3 Z " fill="#170021" transform="translate(55,42)"/>
<path d="M0,0 L4,0 L3,5 L1,5 Z " fill="#2B0031" transform="translate(70,32)"/>
<path d="M0,0 L10,0 L8,2 L1,2 Z " fill="#0D0013" transform="translate(55,64)"/>
<path d="M0,0 L3,1 L3,4 L-2,3 Z " fill="#26002D" transform="translate(34,45)"/>
<path d="M0,0 L10,0 L10,1 L0,2 Z " fill="#6D164B" transform="translate(54,47)"/>
<path d="M0,0 L6,0 L7,2 L3,3 Z " fill="#14001E" transform="translate(62,70)"/>
<path d="M0,0 L1,0 L1,7 L-3,4 L0,4 Z " fill="#14001D" transform="translate(71,63)"/>
<path d="M0,0 L2,0 L2,4 L-1,4 Z " fill="#27002F" transform="translate(69,63)"/>
<path d="M0,0 L1,4 L-4,4 Z " fill="#C3917F" transform="translate(67,62)"/>
<path d="M0,0 L2,3 L1,8 L0,8 Z " fill="#120311" transform="translate(67,54)"/>
<path d="M0,0 L4,0 L6,5 L0,1 Z " fill="#590D43" transform="translate(64,48)"/>
<path d="M0,0 L3,1 L1,2 L-6,2 L-6,1 Z " fill="#CC8C78" transform="translate(63,66)"/>
<path d="M0,0 L1,2 L0,9 L-1,9 L-1,1 Z " fill="#2F1524" transform="translate(53,53)"/>
<path d="M0,0 L1,0 L0,8 L-2,7 Z " fill="#400138" transform="translate(48,51)"/>
<path d="M0,0 L4,2 L-2,3 L-2,1 Z " fill="#B59675" transform="translate(54,49)"/>
<path d="M0,0 L2,4 L1,6 L-2,1 Z " fill="#14001E" transform="translate(70,48)"/>
<path d="M0,0 L3,2 L3,4 L0,4 Z " fill="#170021" transform="translate(46,60)"/>
<path d="M0,0 L1,4 L4,5 L0,5 L-1,1 Z " fill="#1D0026" transform="translate(62,41)"/>
<path d="M0,0 L2,0 L1,5 L0,5 Z " fill="#0A0011" transform="translate(52,85)"/>
<path d="M0,0 L3,0 L2,4 L0,3 Z " fill="#0D0014" transform="translate(34,53)"/>
<path d="M0,0 L0,3 L-3,5 L-1,1 Z " fill="#0C0013" transform="translate(61,29)"/>
<path d="M0,0 L3,0 L2,2 L-1,2 Z " fill="#17011F" transform="translate(51,68)"/>
<path d="M0,0 L7,0 L7,1 L0,1 Z " fill="#721F4F" transform="translate(56,68)"/>
<path d="M0,0 L4,2 L1,3 Z " fill="#320035" transform="translate(49,63)"/>
<path d="M0,0 L5,0 L2,2 L0,2 Z " fill="#BB7175" transform="translate(56,48)"/>
<path d="M0,0 L2,4 L1,6 L0,5 Z " fill="#0E0017" transform="translate(43,32)"/>
<path d="M0,0 L2,1 L1,3 L-1,3 Z " fill="#22002A" transform="translate(57,70)"/>
<path d="M0,0 L3,1 L0,3 Z " fill="#0A0011" transform="translate(68,68)"/>
<path d="M0,0 L3,0 L3,2 L0,2 Z " fill="#22002A" transform="translate(65,68)"/>
<path d="M0,0 L6,0 L6,1 L0,1 Z " fill="#815E53" transform="translate(57,66)"/>
<path d="M0,0 L3,3 L0,3 Z " fill="#370037" transform="translate(72,57)"/>
<path d="M0,0 L1,0 L1,6 L0,6 Z " fill="#A87371" transform="translate(49,55)"/>
<path d="M0,0 L3,1 L1,3 Z " fill="#200027" transform="translate(72,55)"/>
<path d="M0,0 L1,0 L1,6 L0,6 Z " fill="#B26071" transform="translate(70,55)"/>
<path d="M0,0 L1,2 L-1,5 Z " fill="#25002C" transform="translate(47,53)"/>
<path d="M0,0 L4,1 L1,1 L0,3 Z " fill="#1E0028" transform="translate(49,48)"/>
<path d="M0,0 L4,0 L4,2 Z " fill="#220029" transform="translate(48,35)"/>
<path d="M0,0 L2,3 L1,5 Z " fill="#170021" transform="translate(65,32)"/>
<path d="M0,0 L2,0 L1,3 Z " fill="#14001D" transform="translate(56,73)"/>
<path d="M0,0 L5,0 L5,1 L0,1 Z " fill="#450239" transform="translate(58,46)"/>
<path d="M0,0 L3,0 L3,2 L0,1 Z " fill="#1D0026" transform="translate(42,43)"/>
<path d="M0,0 L3,1 L0,2 Z " fill="#27002E" transform="translate(55,33)"/>
<path d="M0,0 L2,0 L2,2 L0,2 Z " fill="#4B043C" transform="translate(59,69)"/>
<path d="M0,0 L3,2 L0,2 Z " fill="#420136" transform="translate(53,66)"/>
<path d="M0,0 L3,1 L0,2 Z " fill="#C38479" transform="translate(63,66)"/>
<path d="M0,0 L1,2 L-2,1 Z " fill="#C69E7C" transform="translate(65,64)"/>
<path d="M0,0 L2,0 L2,2 L0,2 Z " fill="#3D0138" transform="translate(70,61)"/>
<path d="M0,0 L1,4 Z " fill="#D5AA7C" transform="translate(50,57)"/>
<path d="M0,0 L1,4 Z " fill="#761C49" transform="translate(48,56)"/>
<path d="M0,0 L2,3 L0,3 Z " fill="#BC957F" transform="translate(50,54)"/>
<path d="M0,0 L2,1 L1,3 Z " fill="#601248" transform="translate(70,53)"/>
<path d="M0,0 L0,3 Z " fill="#473934" transform="translate(53,53)"/>
<path d="M0,0 L4,1 Z " fill="#95785A" transform="translate(58,49)"/>
<path d="M0,0 L4,1 Z " fill="#2B0032" transform="translate(64,48)"/>
<path d="M0,0 L2,0 L2,2 L0,2 Z " fill="#4B043C" transform="translate(54,47)"/>
<path d="M0,0 L2,0 L2,2 L0,2 Z " fill="#2C0032" transform="translate(78,40)"/>
<path d="M0,0 L1,4 Z " fill="#1B0025" transform="translate(45,39)"/>
<path d="M0,0 L1,4 Z " fill="#1B0024" transform="translate(81,38)"/>
<path d="M0,0 L1,2 L-2,1 Z " fill="#11001B" transform="translate(57,34)"/>
<path d="M0,0 L2,2 L0,2 Z " fill="#0A0014" transform="translate(63,71)"/>
<path d="M0,0 L2,1 L0,2 Z " fill="#0A0014" transform="translate(58,71)"/>
<path d="M0,0 L3,1 Z " fill="#210028" transform="translate(62,70)"/>
<path d="M0,0 L3,1 Z " fill="#691447" transform="translate(56,68)"/>
<path d="M0,0 L2,0 L1,2 Z " fill="#BE7C71" transform="translate(55,66)"/>
<path d="M0,0 L2,2 L0,2 Z " fill="#5D0F46" transform="translate(51,64)"/>
<path d="M0,0 L1,2 L-1,1 Z " fill="#5D1146" transform="translate(69,63)"/>
<path d="M0,0 L2,0 L1,2 Z " fill="#08000E" transform="translate(55,64)"/>
<path d="M0,0 L1,2 L-1,1 Z " fill="#C69E7C" transform="translate(67,62)"/>
<path d="M0,0 L2,0 L1,2 Z " fill="#05000A" transform="translate(53,62)"/>
<path d="M0,0 L2,2 L0,2 Z " fill="#2D0031" transform="translate(47,61)"/>
<path d="M0,0 Z " fill="#24002C" transform="translate(72,60)"/>
<path d="M0,0 Z " fill="#620D43" transform="translate(72,57)"/>
<path d="M0,0 Z " fill="#6E1F46" transform="translate(68,57)"/>
<path d="M0,0 Z " fill="#9B5464" transform="translate(51,57)"/>
<path d="M0,0 L1,2 L-1,1 Z " fill="#4F043C" transform="translate(47,57)"/>
<path d="M0,0 L2,0 L1,2 Z " fill="#2A002F" transform="translate(44,58)"/>
<path d="M0,0 L2,0 L1,2 Z " fill="#2D0032" transform="translate(70,52)"/>
<path d="M0,0 L1,2 L-1,1 Z " fill="#0C0014" transform="translate(55,51)"/>
<path d="M0,0 L2,2 L0,2 Z " fill="#0E0016" transform="translate(32,51)"/>
<path d="M0,0 L3,1 Z " fill="#0F0014" transform="translate(82,50)"/>
<path d="M0,0 L2,1 L0,2 Z " fill="#9E4D63" transform="translate(52,50)"/>
<path d="M0,0 L2,0 L1,2 Z " fill="#2A002E" transform="translate(68,49)"/>
<path d="M0,0 Z " fill="#0A0012" transform="translate(80,47)"/>
<path d="M0,0 L3,1 Z " fill="#AC5C68" transform="translate(61,48)"/>
<path d="M0,0 L3,1 Z " fill="#6B1549" transform="translate(61,47)"/>
<path d="M0,0 L1,2 L-1,1 Z " fill="#2A002F" transform="translate(61,43)"/>
<path d="M0,0 Z " fill="#0C0014" transform="translate(75,32)"/>
<path d="M0,0 L2,2 L0,2 Z " fill="#06000B" transform="translate(59,18)"/>
<path d="M0,0 Z " fill="#0A0011" transform="translate(49,86)"/>
<path d="M0,0 Z " fill="#0A0011" transform="translate(76,80)"/>
<path d="M0,0 Z " fill="#0A0011" transform="translate(77,78)"/>
<path d="M0,0 Z " fill="#160020" transform="translate(55,70)"/>
<path d="M0,0 L2,1 Z " fill="#620E44" transform="translate(59,69)"/>
<path d="M0,0 Z " fill="#1A0024" transform="translate(53,68)"/>
<path d="M0,0 L2,1 Z " fill="#370035" transform="translate(65,68)"/>
<path d="M0,0 L2,1 Z " fill="#52063E" transform="translate(63,68)"/>
<path d="M0,0 L2,1 Z " fill="#88335C" transform="translate(59,68)"/>
<path d="M0,0 L2,1 Z " fill="#400138" transform="translate(54,68)"/>
<path d="M0,0 L2,1 Z " fill="#721D4E" transform="translate(64,67)"/>
<path d="M0,0 L2,1 Z " fill="#C17D71" transform="translate(61,67)"/>
<path d="M0,0 L2,1 Z " fill="#C38071" transform="translate(57,67)"/>
<path d="M0,0 L2,1 Z " fill="#2A002E" transform="translate(68,66)"/>
<path d="M0,0 L2,1 Z " fill="#641248" transform="translate(66,66)"/>
<path d="M0,0 L2,1 Z " fill="#44023A" transform="translate(68,65)"/>
<path d="M0,0 L2,1 Z " fill="#8A6755" transform="translate(63,65)"/>
<path d="M0,0 Z " fill="#19021E" transform="translate(71,63)"/>
<path d="M0,0 Z " fill="#320035" transform="translate(70,63)"/>
<path d="M0,0 Z " fill="#2A002E" transform="translate(49,63)"/>
<path d="M0,0 Z " fill="#C19481" transform="translate(68,62)"/>
<path d="M0,0 Z " fill="#751A4C" transform="translate(50,62)"/>
<path d="M0,0 Z " fill="#66194C" transform="translate(70,61)"/>
<path d="M0,0 Z " fill="#52093E" transform="translate(49,61)"/>
<path d="M0,0 Z " fill="#BF9673" transform="translate(68,60)"/>
<path d="M0,0 Z " fill="#44023A" transform="translate(48,60)"/>
<path d="M0,0 Z " fill="#19021E" transform="translate(46,60)"/>
<path d="M0,0 Z " fill="#B26073" transform="translate(70,59)"/>
<path d="M0,0 Z " fill="#44023A" transform="translate(72,55)"/>
<path d="M0,0 Z " fill="#D39B77" transform="translate(69,55)"/>
<path d="M0,0 Z " fill="#904760" transform="translate(68,55)"/>
<path d="M0,0 Z " fill="#9B5469" transform="translate(49,55)"/>
<path d="M0,0 Z " fill="#1D0E1B" transform="translate(67,54)"/>
<path d="M0,0 Z " fill="#D0A67D" transform="translate(51,54)"/>
<path d="M0,0 Z " fill="#CA9676" transform="translate(50,54)"/>
<path d="M0,0 Z " fill="#1E0125" transform="translate(72,53)"/>
<path d="M0,0 Z " fill="#862E59" transform="translate(70,53)"/>
<path d="M0,0 Z " fill="#B7807C" transform="translate(69,53)"/>
<path d="M0,0 Z " fill="#BD9372" transform="translate(68,53)"/>
<path d="M0,0 Z " fill="#05000A" transform="translate(66,53)"/>
<path d="M0,0 Z " fill="#19021E" transform="translate(53,53)"/>
<path d="M0,0 Z " fill="#C5896E" transform="translate(51,52)"/>
<path d="M0,0 Z " fill="#2E0031" transform="translate(48,51)"/>
<path d="M0,0 L2,1 Z " fill="#0C0014" transform="translate(35,50)"/>
<path d="M0,0 L2,1 Z " fill="#17011F" transform="translate(84,49)"/>
<path d="M0,0 L2,1 Z " fill="#C3947B" transform="translate(56,49)"/>
<path d="M0,0 L2,1 Z " fill="#B2696E" transform="translate(54,49)"/>
<path d="M0,0 L2,1 Z " fill="#160020" transform="translate(86,48)"/>
<path d="M0,0 L2,1 Z " fill="#660F46" transform="translate(64,48)"/>
<path d="M0,0 L2,1 Z " fill="#AE5D69" transform="translate(56,48)"/>
<path d="M0,0 Z " fill="#1E0028" transform="translate(81,46)"/>
<path d="M0,0 L2,1 Z " fill="#1A0024" transform="translate(66,47)"/>
<path d="M0,0 L2,1 Z " fill="#3D0138" transform="translate(64,47)"/>
<path d="M0,0 L2,1 Z " fill="#832956" transform="translate(59,47)"/>
<path d="M0,0 L2,1 Z " fill="#370036" transform="translate(56,46)"/>
<path d="M0,0 L2,1 Z " fill="#0F0018" transform="translate(43,44)"/>
<path d="M0,0 Z " fill="#14001E" transform="translate(35,43)"/>
<path d="M0,0 Z " fill="#0C0014" transform="translate(76,38)"/>
<path d="M0,0 L2,1 Z " fill="#15011D" transform="translate(71,38)"/>
<path d="M0,0 Z " fill="#160020" transform="translate(73,36)"/>
<path d="M0,0 Z " fill="#15011D" transform="translate(36,36)"/>
<path d="M0,0 Z " fill="#1C0026" transform="translate(52,33)"/>
<path d="M0,0 Z " fill="#190121" transform="translate(54,32)"/>
<path d="M0,0 Z " fill="#1A0024" transform="translate(55,29)"/>
<path d="M0,0 Z " fill="#2A002E" transform="translate(61,72)"/>
<path d="M0,0 Z " fill="#160021" transform="translate(60,72)"/>
<path d="M0,0 Z " fill="#19021E" transform="translate(59,71)"/>
<path d="M0,0 Z " fill="#3C0136" transform="translate(59,70)"/>
<path d="M0,0 Z " fill="#1A0024" transform="translate(58,70)"/>
<path d="M0,0 Z " fill="#0C0014" transform="translate(38,70)"/>
<path d="M0,0 Z " fill="#44023A" transform="translate(61,69)"/>
<path d="M0,0 Z " fill="#220226" transform="translate(50,69)"/>
<path d="M0,0 Z " fill="#0C0014" transform="translate(39,69)"/>
<path d="M0,0 Z " fill="#2A002E" transform="translate(67,68)"/>
<path d="M0,0 Z " fill="#620D43" transform="translate(63,68)"/>
<path d="M0,0 Z " fill="#6D184A" transform="translate(61,68)"/>
<path d="M0,0 Z " fill="#2A002E" transform="translate(53,68)"/>
<path d="M0,0 Z " fill="#0C001A" transform="translate(35,68)"/>
<path d="M0,0 Z " fill="#1E0028" transform="translate(68,67)"/>
<path d="M0,0 Z " fill="#5B0C42" transform="translate(66,67)"/>
<path d="M0,0 Z " fill="#8A395E" transform="translate(64,67)"/>
<path d="M0,0 Z " fill="#AD646B" transform="translate(63,67)"/>
<path d="M0,0 Z " fill="#A85D64" transform="translate(56,67)"/>
<path d="M0,0 Z " fill="#802955" transform="translate(55,67)"/>
<path d="M0,0 Z " fill="#681045" transform="translate(54,67)"/>
<path d="M0,0 Z " fill="#3D0138" transform="translate(68,66)"/>
<path d="M0,0 Z " fill="#8A395E" transform="translate(66,66)"/>
<path d="M0,0 Z " fill="#B66A6C" transform="translate(65,66)"/>
<path d="M0,0 Z " fill="#BB7C71" transform="translate(63,66)"/>
<path d="M0,0 Z " fill="#8D5B5C" transform="translate(62,66)"/>
<path d="M0,0 Z " fill="#966659" transform="translate(57,66)"/>
<path d="M0,0 Z " fill="#9E525F" transform="translate(54,66)"/>
<path d="M0,0 Z " fill="#721D4E" transform="translate(53,66)"/>
<path d="M0,0 Z " fill="#52063E" transform="translate(52,66)"/>
<path d="M0,0 Z " fill="#3D0138" transform="translate(51,66)"/>
<path d="M0,0 Z " fill="#0C0014" transform="translate(32,66)"/>
<path d="M0,0 Z " fill="#641248" transform="translate(68,65)"/>
<path d="M0,0 Z " fill="#97566B" transform="translate(67,65)"/>
<path d="M0,0 Z " fill="#5B2B41" transform="translate(63,65)"/>
<path d="M0,0 Z " fill="#220226" transform="translate(62,65)"/>
<path d="M0,0 Z " fill="#20031F" transform="translate(57,65)"/>
<path d="M0,0 Z " fill="#553540" transform="translate(56,65)"/>
<path d="M0,0 Z " fill="#9E7262" transform="translate(55,65)"/>
<path d="M0,0 Z " fill="#C38479" transform="translate(54,65)"/>
<path d="M0,0 Z " fill="#AF7271" transform="translate(53,65)"/>
<path d="M0,0 Z " fill="#843C5C" transform="translate(52,65)"/>
<path d="M0,0 Z " fill="#1E0028" transform="translate(49,65)"/>
<path d="M0,0 Z " fill="#8A4564" transform="translate(68,64)"/>
<path d="M0,0 Z " fill="#C9A37E" transform="translate(66,64)"/>
<path d="M0,0 Z " fill="#7A5D55" transform="translate(65,64)"/>
<path d="M0,0 Z " fill="#230E21" transform="translate(64,64)"/>
<path d="M0,0 Z " fill="#33172B" transform="translate(55,64)"/>
<path d="M0,0 Z " fill="#8D5B5C" transform="translate(54,64)"/>
<path d="M0,0 Z " fill="#CC967E" transform="translate(53,64)"/>
<path d="M0,0 Z " fill="#7E3459" transform="translate(51,64)"/>
<path d="M0,0 Z " fill="#4B043C" transform="translate(50,64)"/>
<path d="M0,0 Z " fill="#24002C" transform="translate(71,63)"/>
<path d="M0,0 Z " fill="#4B043C" transform="translate(70,63)"/>
<path d="M0,0 Z " fill="#8A395E" transform="translate(69,63)"/>
<path d="M0,0 Z " fill="#7A5D55" transform="translate(66,63)"/>
<path d="M0,0 Z " fill="#1D0E1B" transform="translate(65,63)"/>
<path d="M0,0 Z " fill="#2D1424" transform="translate(54,63)"/>
<path d="M0,0 Z " fill="#986864" transform="translate(53,63)"/>
<path d="M0,0 Z " fill="#D1AA83" transform="translate(52,63)"/>
<path d="M0,0 Z " fill="#AB766F" transform="translate(51,63)"/>
<path d="M0,0 Z " fill="#3C0136" transform="translate(49,63)"/>
<path d="M0,0 Z " fill="#0C0014" transform="translate(35,63)"/>
<path d="M0,0 Z " fill="#1E0028" transform="translate(72,62)"/>
<path d="M0,0 Z " fill="#B37279" transform="translate(69,62)"/>
<path d="M0,0 Z " fill="#D8AC7C" transform="translate(68,62)"/>
<path d="M0,0 Z " fill="#85685A" transform="translate(67,62)"/>
<path d="M0,0 Z " fill="#1D0E1B" transform="translate(66,62)"/>
<path d="M0,0 Z " fill="#3B2A31" transform="translate(53,62)"/>
<path d="M0,0 Z " fill="#A57F73" transform="translate(52,62)"/>
<path d="M0,0 Z " fill="#D39D79" transform="translate(51,62)"/>
<path d="M0,0 Z " fill="#974A66" transform="translate(50,62)"/>
<path d="M0,0 Z " fill="#4C0A40" transform="translate(71,61)"/>
<path d="M0,0 Z " fill="#8B355C" transform="translate(70,61)"/>
<path d="M0,0 Z " fill="#C19481" transform="translate(69,61)"/>
<path d="M0,0 Z " fill="#311927" transform="translate(67,61)"/>
<path d="M0,0 Z " fill="#110115" transform="translate(53,61)"/>
<path d="M0,0 Z " fill="#613D4C" transform="translate(52,61)"/>
<path d="M0,0 Z " fill="#A87873" transform="translate(50,61)"/>
<path d="M0,0 Z " fill="#6D184A" transform="translate(49,61)"/>
<path d="M0,0 Z " fill="#0C0014" transform="translate(76,60)"/>
<path d="M0,0 Z " fill="#1E0028" transform="translate(73,60)"/>
<path d="M0,0 Z " fill="#320035" transform="translate(72,60)"/>
<path d="M0,0 Z " fill="#66194C" transform="translate(71,60)"/>
<path d="M0,0 Z " fill="#D39D79" transform="translate(69,60)"/>
<path d="M0,0 Z " fill="#98626A" transform="translate(68,60)"/>
<path d="M0,0 Z " fill="#1C0C16" transform="translate(67,60)"/>
<path d="M0,0 Z " fill="#3C2D2E" transform="translate(52,60)"/>
<path d="M0,0 Z " fill="#BC8F7D" transform="translate(51,60)"/>
<path d="M0,0 Z " fill="#CF9C75" transform="translate(50,60)"/>
<path d="M0,0 Z " fill="#94425D" transform="translate(49,60)"/>
<path d="M0,0 Z " fill="#5A093F" transform="translate(48,60)"/>
<path d="M0,0 Z " fill="#24002C" transform="translate(46,60)"/>
<path d="M0,0 Z " fill="#220226" transform="translate(75,59)"/>
<path d="M0,0 Z " fill="#4B043C" transform="translate(72,59)"/>
<path d="M0,0 Z " fill="#B36E79" transform="translate(70,59)"/>
<path d="M0,0 Z " fill="#863355" transform="translate(68,59)"/>
<path d="M0,0 Z " fill="#AD636F" transform="translate(51,59)"/>
<path d="M0,0 Z " fill="#3C0136" transform="translate(46,59)"/>
<path d="M0,0 Z " fill="#220226" transform="translate(74,58)"/>
<path d="M0,0 Z " fill="#250B1D" transform="translate(52,58)"/>
<path d="M0,0 Z " fill="#7D1F4C" transform="translate(48,58)"/>
<path d="M0,0 Z " fill="#160021" transform="translate(43,58)"/>
<path d="M0,0 Z " fill="#2A002E" transform="translate(73,57)"/>
<path d="M0,0 Z " fill="#52063E" transform="translate(72,57)"/>
<path d="M0,0 Z " fill="#B56274" transform="translate(70,57)"/>
<path d="M0,0 Z " fill="#76254B" transform="translate(68,57)"/>
<path d="M0,0 Z " fill="#AD636F" transform="translate(51,57)"/>
<path d="M0,0 Z " fill="#320035" transform="translate(46,57)"/>
<path d="M0,0 Z " fill="#0C0014" transform="translate(33,57)"/>
<path d="M0,0 Z " fill="#6E1D4F" transform="translate(71,56)"/>
<path d="M0,0 Z " fill="#1C0C16" transform="translate(67,56)"/>
<path d="M0,0 Z " fill="#3C2D2E" transform="translate(52,56)"/>
<path d="M0,0 Z " fill="#C79A7A" transform="translate(50,56)"/>
<path d="M0,0 Z " fill="#6A1345" transform="translate(48,56)"/>
<path d="M0,0 Z " fill="#110115" transform="translate(34,56)"/>
<path d="M0,0 Z " fill="#320035" transform="translate(72,55)"/>
<path d="M0,0 Z " fill="#A9516A" transform="translate(70,55)"/>
<path d="M0,0 Z " fill="#9C6D6E" transform="translate(68,55)"/>
<path d="M0,0 Z " fill="#933C5E" transform="translate(49,55)"/>
<path d="M0,0 Z " fill="#52063E" transform="translate(48,55)"/>
<path d="M0,0 Z " fill="#4C0A40" transform="translate(71,54)"/>
<path d="M0,0 Z " fill="#3B212F" transform="translate(67,54)"/>
<path d="M0,0 Z " fill="#704954" transform="translate(52,54)"/>
<path d="M0,0 Z " fill="#A36A70" transform="translate(50,54)"/>
<path d="M0,0 Z " fill="#741D4B" transform="translate(49,54)"/>
<path d="M0,0 Z " fill="#6D174B" transform="translate(70,53)"/>
<path d="M0,0 Z " fill="#AB5B71" transform="translate(69,53)"/>
<path d="M0,0 Z " fill="#CFA17C" transform="translate(68,53)"/>
<path d="M0,0 Z " fill="#AA8765" transform="translate(67,53)"/>
<path d="M0,0 Z " fill="#231A16" transform="translate(66,53)"/>
<path d="M0,0 Z " fill="#5A4B40" transform="translate(53,53)"/>
<path d="M0,0 Z " fill="#7E2953" transform="translate(50,53)"/>
<path d="M0,0 Z " fill="#52063E" transform="translate(49,53)"/>
<path d="M0,0 Z " fill="#0C001A" transform="translate(88,52)"/>
<path d="M0,0 Z " fill="#4B043C" transform="translate(70,52)"/>
<path d="M0,0 Z " fill="#822C58" transform="translate(69,52)"/>
<path d="M0,0 Z " fill="#B56871" transform="translate(68,52)"/>
<path d="M0,0 Z " fill="#D8A679" transform="translate(67,52)"/>
<path d="M0,0 Z " fill="#9E8165" transform="translate(66,52)"/>
<path d="M0,0 Z " fill="#261D1B" transform="translate(65,52)"/>
<path d="M0,0 Z " fill="#5B4342" transform="translate(54,52)"/>
<path d="M0,0 Z " fill="#97475E" transform="translate(51,52)"/>
<path d="M0,0 Z " fill="#5B0C42" transform="translate(50,52)"/>
<path d="M0,0 Z " fill="#2B0032" transform="translate(70,51)"/>
<path d="M0,0 Z " fill="#590D43" transform="translate(69,51)"/>
<path d="M0,0 Z " fill="#893058" transform="translate(68,51)"/>
<path d="M0,0 Z " fill="#B87C79" transform="translate(67,51)"/>
<path d="M0,0 Z " fill="#D6AC7F" transform="translate(66,51)"/>
<path d="M0,0 Z " fill="#A78460" transform="translate(65,51)"/>
<path d="M0,0 Z " fill="#3C1E31" transform="translate(64,51)"/>
<path d="M0,0 Z " fill="#0C0014" transform="translate(63,51)"/>
<path d="M0,0 Z " fill="#50413E" transform="translate(55,51)"/>
<path d="M0,0 Z " fill="#D4A27C" transform="translate(53,51)"/>
<path d="M0,0 Z " fill="#A2646D" transform="translate(52,51)"/>
<path d="M0,0 Z " fill="#6C1848" transform="translate(51,51)"/>
<path d="M0,0 Z " fill="#0C0014" transform="translate(90,50)"/>
<path d="M0,0 Z " fill="#3D0138" transform="translate(69,50)"/>
<path d="M0,0 Z " fill="#5D0F46" transform="translate(68,50)"/>
<path d="M0,0 Z " fill="#8D3A60" transform="translate(67,50)"/>
<path d="M0,0 Z " fill="#DCA87D" transform="translate(65,50)"/>
<path d="M0,0 Z " fill="#B58F6D" transform="translate(64,50)"/>
<path d="M0,0 Z " fill="#815659" transform="translate(63,50)"/>
<path d="M0,0 Z " fill="#401438" transform="translate(62,50)"/>
<path d="M0,0 Z " fill="#110115" transform="translate(61,50)"/>
<path d="M0,0 Z " fill="#230E21" transform="translate(58,50)"/>
<path d="M0,0 Z " fill="#6E4C54" transform="translate(57,50)"/>
<path d="M0,0 Z " fill="#968264" transform="translate(56,50)"/>
<path d="M0,0 Z " fill="#BC8976" transform="translate(54,50)"/>
<path d="M0,0 Z " fill="#752652" transform="translate(52,50)"/>
<path d="M0,0 Z " fill="#52063E" transform="translate(51,50)"/>
<path d="M0,0 Z " fill="#0C0014" transform="translate(86,49)"/>
<path d="M0,0 Z " fill="#19021E" transform="translate(81,49)"/>
<path d="M0,0 Z " fill="#3C0136" transform="translate(68,49)"/>
<path d="M0,0 Z " fill="#7B2352" transform="translate(66,49)"/>
<path d="M0,0 Z " fill="#A55564" transform="translate(65,49)"/>
<path d="M0,0 Z " fill="#BC7072" transform="translate(64,49)"/>
<path d="M0,0 Z " fill="#AA7C70" transform="translate(62,49)"/>
<path d="M0,0 Z " fill="#907656" transform="translate(60,49)"/>
<path d="M0,0 Z " fill="#A17B66" transform="translate(58,49)"/>
<path d="M0,0 Z " fill="#8F3B57" transform="translate(54,49)"/>
<path d="M0,0 Z " fill="#661147" transform="translate(53,49)"/>
<path d="M0,0 Z " fill="#4B043C" transform="translate(52,49)"/>
<path d="M0,0 Z " fill="#2B0032" transform="translate(50,49)"/>
<path d="M0,0 Z " fill="#4B043C" transform="translate(66,48)"/>
<path d="M0,0 Z " fill="#802152" transform="translate(64,48)"/>
<path d="M0,0 Z " fill="#9F4B66" transform="translate(63,48)"/>
<path d="M0,0 Z " fill="#B66E72" transform="translate(58,48)"/>
<path d="M0,0 Z " fill="#9A435F" transform="translate(56,48)"/>
<path d="M0,0 Z " fill="#751A4C" transform="translate(55,48)"/>
<path d="M0,0 Z " fill="#5A093F" transform="translate(54,48)"/>
<path d="M0,0 Z " fill="#3C0136" transform="translate(53,48)"/>
<path d="M0,0 Z " fill="#0C0014" transform="translate(89,47)"/>
<path d="M0,0 Z " fill="#2B0032" transform="translate(66,47)"/>
<path d="M0,0 Z " fill="#52093E" transform="translate(64,47)"/>
<path d="M0,0 Z " fill="#721F4F" transform="translate(58,47)"/>
<path d="M0,0 Z " fill="#631046" transform="translate(56,47)"/>
<path d="M0,0 Z " fill="#3D0138" transform="translate(54,47)"/>
<path d="M0,0 Z " fill="#12001C" transform="translate(81,46)"/>
<path d="M0,0 Z " fill="#520940" transform="translate(60,46)"/>
<path d="M0,0 Z " fill="#19021E" transform="translate(82,45)"/>
<path d="M0,0 Z " fill="#24002C" transform="translate(62,45)"/>
<path d="M0,0 Z " fill="#1A0024" transform="translate(36,45)"/>
<path d="M0,0 Z " fill="#0C0014" transform="translate(83,44)"/>
<path d="M0,0 Z " fill="#0C0014" transform="translate(36,44)"/>
<path d="M0,0 Z " fill="#0C0014" transform="translate(79,43)"/>
<path d="M0,0 Z " fill="#160021" transform="translate(78,43)"/>
<path d="M0,0 Z " fill="#1A0024" transform="translate(60,43)"/>
<path d="M0,0 Z " fill="#160021" transform="translate(42,43)"/>
<path d="M0,0 Z " fill="#0C0014" transform="translate(41,43)"/>
<path d="M0,0 Z " fill="#19021E" transform="translate(80,42)"/>
<path d="M0,0 Z " fill="#12001C" transform="translate(45,42)"/>
<path d="M0,0 Z " fill="#1A0024" transform="translate(41,42)"/>
<path d="M0,0 Z " fill="#0C0014" transform="translate(40,42)"/>
<path d="M0,0 Z " fill="#12001C" transform="translate(37,39)"/>
<path d="M0,0 Z " fill="#0C0014" transform="translate(70,38)"/>
<path d="M0,0 Z " fill="#0C0014" transform="translate(45,38)"/>
<path d="M0,0 Z " fill="#1A0024" transform="translate(44,38)"/>
<path d="M0,0 Z " fill="#12001C" transform="translate(77,37)"/>
<path d="M0,0 Z " fill="#1A0024" transform="translate(70,37)"/>
<path d="M0,0 Z " fill="#1E0028" transform="translate(43,37)"/>
<path d="M0,0 Z " fill="#05000A" transform="translate(81,36)"/>
<path d="M0,0 Z " fill="#110115" transform="translate(49,36)"/>
<path d="M0,0 Z " fill="#12001C" transform="translate(74,35)"/>
<path d="M0,0 Z " fill="#0C0014" transform="translate(55,35)"/>
<path d="M0,0 Z " fill="#160021" transform="translate(48,35)"/>
<path d="M0,0 Z " fill="#0C0014" transform="translate(34,35)"/>
<path d="M0,0 Z " fill="#110115" transform="translate(69,33)"/>
<path d="M0,0 Z " fill="#1E0028" transform="translate(57,33)"/>
<path d="M0,0 Z " fill="#110115" transform="translate(65,31)"/>
<path d="M0,0 Z " fill="#12001C" transform="translate(59,31)"/>
<path d="M0,0 Z " fill="#24002C" transform="translate(58,31)"/>
<path d="M0,0 Z " fill="#2B0032" transform="translate(55,31)"/>
<path d="M0,0 Z " fill="#1E0028" transform="translate(48,31)"/>
<path d="M0,0 Z " fill="#0C0014" transform="translate(44,31)"/>
<path d="M0,0 Z " fill="#19021E" transform="translate(66,30)"/>
<path d="M0,0 Z " fill="#160021" transform="translate(60,30)"/>
<path d="M0,0 Z " fill="#0C0014" transform="translate(66,29)"/>
<path d="M0,0 Z " fill="#12001C" transform="translate(45,29)"/>
<path d="M0,0 Z " fill="#110115" transform="translate(46,28)"/>
<path d="M0,0 Z " fill="#05000A" transform="translate(73,27)"/>
</svg>
