<?xml version="1.0" encoding="UTF-8"?>
<!-- Generator: visioncortex VTracer 0.6.5 -->
<svg version="1.1" xmlns="http://www.w3.org/2000/svg" width="120" height="120">
<path d="M0,0 L116,0 L117,1 L118,119 L-2,119 L-1,1 Z " fill="#333222" transform="translate(2,1)"/>
<path d="M0,0 L8,0 L8,3 L11,3 L11,6 L16,6 L16,8 L19,9 L19,11 L24,11 L24,19 L21,19 L21,30 L19,30 L19,38 L21,38 L21,43 L19,43 L19,60 L16,60 L16,73 L14,73 L14,57 L7,57 L6,59 L8,59 L8,62 L-10,62 L-10,60 L3,60 L2,52 L0,50 L0,43 L-5,44 L-6,52 L-10,52 L-10,54 L-24,54 L-24,52 L-26,52 L-28,42 L-45,41 L-45,43 L-43,43 L-43,46 L-40,46 L-40,52 L-37,52 L-37,57 L-40,57 L-39,62 L-37,62 L-37,60 L-35,60 L-35,65 L-32,65 L-32,71 L-29,71 L-29,76 L-26,76 L-26,78 L-24,78 L-24,81 L-19,81 L-19,85 L-24,85 L-24,82 L-32,81 L-32,84 L-29,84 L-29,90 L-27,90 L-27,98 L-21,98 L-21,107 L-74,107 L-74,86 L-73,84 L-71,84 L-71,82 L-66,82 L-66,79 L-61,79 L-61,76 L-53,76 L-53,73 L-48,73 L-48,70 L-45,70 L-45,68 L-43,68 L-42,65 L-40,65 L-40,63 L-43,62 L-43,60 L-45,60 L-45,57 L-48,57 L-48,52 L-50,52 L-50,41 L-48,41 L-48,33 L-45,33 L-45,38 L-27,38 L-27,35 L-6,35 L-5,40 L2,40 L3,36 L16,36 L16,24 L13,24 L12,22 L3,21 L4,19 L16,19 L16,16 L19,16 L16,13 L16,11 L13,11 L13,8 L7,6 L6,3 L0,3 Z " fill="#0C0C00" transform="translate(74,13)"/>
<path d="M0,0 L17,0 L19,3 L19,11 L21,11 L21,13 L35,13 L35,11 L39,11 L39,3 L40,2 L45,2 L46,9 L48,11 L48,19 L35,19 L35,21 L53,21 L53,18 L51,18 L52,15 L59,16 L58,29 L56,29 L56,22 L53,22 L52,25 L52,22 L50,22 L50,26 L29,27 L29,30 L53,30 L53,37 L51,38 L50,43 L29,45 L31,46 L31,48 L29,48 L29,52 L27,52 L27,54 L29,54 L32,57 L32,62 L29,62 L29,66 L24,66 L24,57 L18,57 L18,49 L16,49 L16,43 L13,43 L13,40 L21,41 L21,44 L26,44 L26,40 L21,40 L21,37 L19,37 L19,35 L16,35 L16,30 L13,30 L13,24 L10,24 L10,19 L8,19 L8,21 L6,21 L5,16 L8,16 L8,11 L5,11 L5,5 L2,5 L2,2 L0,2 Z " fill="#463613" transform="translate(29,54)"/>
<path d="M0,0 L2,0 L2,2 L7,2 L8,5 L15,5 L15,8 L21,8 L21,10 L27,10 L27,13 L29,13 L29,18 L32,18 L32,26 L34,26 L35,33 L-27,33 L-27,29 L-24,29 L-24,24 L-27,23 L-27,21 L-29,21 L-29,19 L-27,19 L-27,15 L-25,15 L-25,13 L-29,11 L-20,10 L-6,10 L-6,7 L-4,7 L-4,5 L-1,2 Z " fill="#000000" transform="translate(85,87)"/>
<path d="M0,0 L23,0 L23,3 L26,3 L26,5 L38,5 L39,8 L42,8 L42,20 L29,20 L28,25 L21,25 L20,24 L20,19 L-1,19 L-1,22 L-6,22 L-6,8 L-4,8 L-3,3 L-1,3 Z " fill="#6D5522" transform="translate(48,29)"/>
<path d="M0,0 L1,3 L-1,3 L-1,5 L1,5 L1,19 L-2,19 L-1,27 L1,27 L2,23 L3,19 L4,0 L6,0 L9,5 L9,7 L11,7 L12,13 L9,16 L11,16 L14,19 L14,24 L12,24 L12,28 L-23,28 L-23,24 L-20,24 L-20,19 L-23,18 L-23,16 L-25,16 L-25,14 L-23,14 L-23,10 L-21,10 L-21,8 L-25,6 L-16,5 L-2,5 L-2,2 L0,2 Z " fill="#060500" transform="translate(81,92)"/>
<path d="M0,0 L5,0 L5,2 L3,2 L3,13 L5,13 L5,18 L7,18 L7,23 L5,23 L5,21 L3,21 L2,14 L-1,13 L-1,11 L-5,11 L-7,18 L-8,26 L0,26 L0,29 L-2,29 L-3,32 L-5,32 L-5,37 L-3,37 L-1,42 L-5,42 L-8,38 L-8,32 L-6,31 L-11,28 L-12,15 L-14,18 L-16,18 L-20,18 L-22,23 L-21,24 L-21,29 L-18,29 L-18,35 L-15,35 L-15,42 L-13,42 L-13,44 L-34,44 L-34,23 L-33,21 L-31,21 L-31,19 L-26,19 L-26,16 L-21,16 L-21,13 L-13,13 L-13,10 L-8,10 L-8,7 L-5,7 L-5,5 L-3,5 L-2,2 L0,2 Z " fill="#000000" transform="translate(34,76)"/>
<path d="M0,0 L17,0 L19,3 L19,10 L18,10 L18,5 L16,5 L16,8 L12,8 L13,13 L16,13 L16,19 L18,19 L19,29 L21,30 L21,35 L26,36 L26,38 L34,38 L34,40 L50,40 L50,43 L29,45 L31,46 L31,48 L29,48 L29,52 L27,52 L27,54 L29,54 L32,57 L32,62 L29,62 L29,66 L24,66 L24,57 L18,57 L18,49 L16,49 L16,43 L13,43 L13,40 L21,41 L21,44 L26,44 L26,40 L21,40 L21,37 L19,37 L19,35 L16,35 L16,30 L13,30 L13,24 L10,24 L10,19 L8,19 L8,21 L6,21 L5,16 L8,16 L8,11 L5,11 L5,5 L2,5 L2,2 L0,2 Z " fill="#433311" transform="translate(29,54)"/>
<path d="M0,0 L116,0 L117,1 L117,112 L115,112 L115,2 L1,2 L1,93 L0,93 Z " fill="#33332E" transform="translate(2,1)"/>
<path d="M0,0 L26,0 L26,3 L32,3 L33,5 L39,8 L39,11 L42,11 L42,13 L45,14 L45,16 L42,16 L42,19 L30,20 L26,21 L27,18 L31,14 L26,13 L26,11 L21,11 L21,14 L15,14 L15,11 L5,11 L5,6 L2,6 L2,8 L0,8 L0,11 L-3,11 L-3,8 L-8,8 L-8,6 L-6,6 L-6,3 L0,3 Z " fill="#272811" transform="translate(48,13)"/>
<path d="M0,0 L26,0 L26,3 L0,3 L0,6 L-6,6 L-6,9 L-8,9 L-8,11 L-3,11 L-3,14 L0,14 L0,11 L2,11 L2,9 L5,9 L5,14 L15,14 L15,17 L21,17 L21,14 L26,14 L27,16 L31,17 L29,21 L23,22 L23,19 L0,20 L-1,22 L-3,22 L-4,27 L-6,27 L-6,22 L-3,19 L-6,19 L-6,17 L-9,16 L-9,14 L-14,14 L-14,17 L-17,17 L-17,19 L-19,19 L-19,24 L-22,24 L-22,35 L-24,35 L-24,19 L-22,19 L-22,17 L-19,17 L-19,11 L-17,11 L-16,8 L-14,8 L-14,6 L-9,6 L-9,3 L-1,3 Z " fill="#111100" transform="translate(48,10)"/>
<path d="M0,0 L5,0 L8,3 L8,5 L11,5 L10,8 L8,8 L8,27 L-5,27 L-5,22 L-11,22 L-11,6 L-10,6 L-10,21 L-8,21 L-8,10 L-5,10 L-5,5 L-3,5 L-3,3 L0,3 Z " fill="#111600" transform="translate(34,24)"/>
<path d="M0,0 L2,0 L5,5 L5,7 L7,7 L8,13 L5,16 L7,16 L10,19 L10,24 L8,24 L8,28 L-11,28 L-11,24 L-14,24 L-14,18 L-11,17 L-9,18 L-11,13 L-10,8 L-3,8 L-3,19 L-6,19 L-5,27 L-3,27 L-2,23 L-1,19 Z " fill="#111100" transform="translate(85,92)"/>
<path d="M0,0 L7,0 L7,3 L27,3 L27,5 L32,5 L32,8 L34,8 L34,11 L32,11 L32,14 L25,14 L16,13 L0,13 L0,11 L-3,11 L-3,3 L0,3 Z M11,9 L11,11 L22,12 L26,11 L26,9 Z " fill="#997743" transform="translate(53,32)"/>
<path d="M0,0 L2,0 L2,2 L16,2 L16,0 L18,0 L18,4 L-3,5 L-3,8 L21,8 L21,15 L18,18 L2,18 L2,16 L-3,16 L-3,13 L-6,13 L-6,3 L0,2 Z " fill="#887033" transform="translate(61,76)"/>
<path d="M0,0 L2,0 L2,17 L-1,17 L-1,30 L-3,30 L-3,14 L-10,14 L-11,16 L-9,16 L-9,19 L-27,19 L-27,17 L-14,17 L-15,9 L-17,7 L-16,3 L-16,6 L-12,6 L-12,9 L-11,6 L-6,6 L-6,4 L-2,1 Z " fill="#000000" transform="translate(91,56)"/>
<path d="M0,0 L5,1 L7,4 L8,11 L10,12 L12,21 L-4,21 L-4,9 L-3,4 L-1,4 Z " fill="#111100" transform="translate(4,99)"/>
<path d="M0,0 L14,0 L14,2 L26,2 L27,5 L30,5 L30,16 L16,16 L16,19 L14,19 L14,21 L11,21 L11,16 L9,16 L8,13 L9,12 L18,13 L25,14 L25,11 L27,11 L27,8 L25,8 L25,5 L20,5 L20,3 L0,3 Z M4,9 L19,9 L19,11 L14,12 L4,11 Z " fill="#6B5522" transform="translate(60,32)"/>
<path d="M0,0 L8,1 L8,6 L14,6 L14,8 L16,8 L16,12 L14,12 L14,14 L16,14 L19,17 L19,22 L16,22 L16,26 L11,26 L11,17 L5,17 L5,9 L3,9 L3,3 L0,3 Z " fill="#222211" transform="translate(42,94)"/>
<path d="M0,0 L2,0 L3,5 L5,6 L5,8 L10,8 L15,11 L15,14 L13,14 L13,17 L10,17 L10,19 L8,19 L8,27 L5,27 L5,25 L2,24 L2,14 L0,14 L0,8 L-3,8 L-4,3 L0,3 Z " fill="#665522" transform="translate(45,59)"/>
<path d="M0,0 L9,0 L14,2 L14,8 L16,8 L16,11 L12,11 L12,13 L-2,13 L-2,11 L-4,10 L-2,10 L-2,2 Z " fill="#111100" transform="translate(52,54)"/>
<path d="M0,0 L5,1 L10,3 L12,6 L12,19 L10,19 L11,25 L2,25 L4,16 L2,16 L4,7 L2,7 Z " fill="#101100" transform="translate(94,95)"/>
<path d="M0,0 L9,0 L7,2 L7,6 L17,6 L17,9 L26,9 L26,11 L21,11 L21,14 L15,14 L15,11 L5,11 L5,6 L2,6 L2,8 L0,8 L0,11 L-3,11 L-3,8 L-8,8 L-8,6 L-6,6 L-6,3 L0,3 Z " fill="#333312" transform="translate(48,13)"/>
<path d="M0,0 L6,0 L6,7 L8,7 L8,10 L6,10 L5,15 L2,16 L2,18 L0,18 L1,15 L3,15 L3,8 L-21,8 L-21,5 L-18,4 L0,4 Z " fill="#635222" transform="translate(79,76)"/>
<path d="M0,0 L5,0 L5,6 L8,6 L8,11 L11,11 L11,13 L13,13 L13,16 L18,16 L18,20 L13,20 L13,17 L5,16 L5,19 L8,19 L7,22 L4,21 L4,16 L2,16 L2,11 L0,11 Z " fill="#151100" transform="translate(37,78)"/>
<path d="M0,0 L5,0 L5,4 L8,4 L8,12 L10,12 L11,19 L0,19 Z " fill="#040000" transform="translate(109,101)"/>
<path d="M0,0 L26,0 L26,3 L0,3 L0,6 L-6,6 L-6,8 L-13,10 L-16,16 L-19,16 L-19,11 L-17,11 L-16,8 L-14,8 L-14,6 L-9,6 L-9,3 L-1,3 Z " fill="#000000" transform="translate(48,10)"/>
<path d="M0,0 L6,0 L7,8 L5,8 L5,14 L2,16 L-2,16 L-2,14 L-5,14 L-5,9 L-8,8 L-8,5 L-3,3 L0,3 Z " fill="#323311" transform="translate(34,29)"/>
<path d="M0,0 L7,0 L7,11 L4,11 L5,19 L-1,20 L-1,16 L-4,16 L-4,10 L-1,9 L1,10 L-1,5 Z " fill="#111100" transform="translate(75,100)"/>
<path d="M0,0 L10,0 L10,3 L16,3 L16,0 L21,0 L22,2 L26,3 L24,7 L18,8 L18,5 L-6,6 L-4,2 Z " fill="#111E00" transform="translate(53,24)"/>
<path d="M0,0 L17,0 L19,3 L19,10 L18,10 L18,5 L16,5 L16,8 L9,7 L7,6 L7,11 L5,11 L5,5 L2,5 L2,2 L0,2 Z " fill="#111100" transform="translate(29,54)"/>
<path d="M0,0 L116,0 L116,1 L0,1 Z " fill="#333322" transform="translate(2,1)"/>
<path d="M0,0 L15,0 L16,2 L21,3 L21,5 L26,5 L26,8 L29,8 L29,11 L31,11 L31,13 L26,13 L26,10 L21,10 L21,8 L18,8 L18,5 L10,5 L10,2 L0,2 Z " fill="#66663F" transform="translate(56,16)"/>
<path d="M0,0 L8,1 L8,6 L14,6 L14,8 L16,8 L16,11 L13,11 L13,14 L8,14 L8,11 L5,11 L5,9 L3,9 L3,3 L0,3 Z " fill="#777745" transform="translate(42,94)"/>
<path d="M0,0 L5,0 L7,5 L8,6 L8,14 L0,14 L0,8 L-2,7 L0,7 Z " fill="#7F6533" transform="translate(69,59)"/>
<path d="M0,0 L2,0 L3,5 L5,5 L6,10 L8,11 L9,18 L11,18 L11,16 L13,16 L13,19 L6,19 L5,16 L3,16 L3,13 L0,13 Z " fill="#2B1F0C" transform="translate(26,57)"/>
<path d="M0,0 L9,0 L7,2 L7,8 L5,8 L5,6 L2,6 L2,8 L0,8 L0,11 L-3,11 L-3,8 L-8,8 L-8,6 L-6,6 L-6,3 L0,3 Z " fill="#323311" transform="translate(48,13)"/>
<path d="M0,0 L10,0 L10,3 L8,3 L8,6 L5,6 L5,8 L3,8 L3,16 L0,16 Z " fill="#887233" transform="translate(50,70)"/>
<path d="M0,0 L15,0 L15,2 L10,3 L0,2 Z M5,3 L14,4 L15,7 L12,7 L12,10 L10,10 L10,12 L7,12 L7,7 L5,7 L4,4 Z " fill="#997744" transform="translate(64,41)"/>
<path d="M0,0 L5,0 L5,2 L7,2 L7,5 L10,5 L10,11 L13,11 L13,16 L10,16 L10,14 L7,13 L7,8 L5,8 L4,3 L2,3 L2,11 L0,11 Z " fill="#151100" transform="translate(24,54)"/>
<path d="M0,0 L7,0 L7,7 L4,10 L1,10 L1,7 L3,7 L2,5 L-11,5 L-11,3 Z " fill="#887735" transform="translate(75,84)"/>
<path d="M0,0 L3,0 L3,3 L-18,5 L-16,6 L-16,8 L-20,8 L-20,6 L-26,6 L-26,4 L-21,4 L-20,1 Z " fill="#333311" transform="translate(76,94)"/>
<path d="M0,0 L23,0 L23,3 L0,3 L0,6 L-3,6 L-3,3 L-1,3 Z " fill="#443311" transform="translate(48,29)"/>
<path d="M0,0 L5,0 L8,3 L8,5 L11,5 L10,8 L8,8 L8,13 L6,11 L6,5 L0,5 L0,8 L-3,8 L-4,10 L-5,5 L-3,5 L-3,3 L0,3 Z " fill="#333311" transform="translate(34,24)"/>
<path d="M0,0 L2,0 L5,12 L5,16 L7,16 L7,19 L0,19 Z " fill="#111100" transform="translate(109,101)"/>
<path d="M0,0 L16,0 L16,2 L18,2 L18,7 L21,7 L21,5 L23,5 L23,2 L37,2 L37,3 L24,3 L23,8 L16,8 L15,7 L15,2 L0,2 Z " fill="#333511" transform="translate(53,46)"/>
<path d="M0,0 L3,0 L3,3 L6,3 L6,5 L8,5 L8,8 L13,8 L13,12 L8,12 L8,9 L3,9 L3,6 L0,6 Z " fill="#181100" transform="translate(42,86)"/>
<path d="M0,0 L7,0 L7,11 L4,11 L4,8 L2,8 L2,5 L-1,5 Z " fill="#333317" transform="translate(75,100)"/>
<path d="M0,0 L21,0 L21,3 L0,3 Z " fill="#111100" transform="translate(47,48)"/>
<path d="M0,0 L9,0 L9,2 L12,3 L-1,3 L-1,5 L9,5 L9,8 L17,8 L17,9 L8,9 L8,6 L-2,6 L-2,2 L-7,2 L-7,1 Z " fill="#333311" transform="translate(57,13)"/>
<path d="M0,0 L11,0 L11,18 L9,18 L9,2 L2,2 L1,4 L3,4 L3,7 L1,7 Z " fill="#443311" transform="translate(79,68)"/>
<path d="M0,0 L3,0 L3,14 L-10,14 L-10,13 L-4,11 L1,11 L1,8 L-2,8 L-2,6 L0,6 Z " fill="#111100" transform="translate(39,37)"/>
<path d="M0,0 L7,0 L7,2 L2,2 L2,4 L-5,6 L-8,12 L-11,12 L-11,7 L-9,7 L-8,4 L-6,4 L-6,2 L0,2 Z " fill="#000000" transform="translate(40,14)"/>
<path d="M0,0 L6,0 L6,2 L0,3 L0,13 L3,13 L3,16 L0,16 L0,14 L-5,13 L-5,10 L-2,10 L-2,2 L0,2 Z " fill="#675522" transform="translate(55,76)"/>
<path d="M0,0 L8,1 L7,14 L5,14 L5,7 L2,7 L1,10 L0,6 L2,6 L2,3 L0,3 Z " fill="#665522" transform="translate(80,69)"/>
<path d="M0,0 L10,0 L9,3 L6,2 L6,5 L-6,6 L-4,2 Z " fill="#1E2200" transform="translate(53,24)"/>
<path d="M0,0 L2,0 L2,3 L5,3 L5,17 L2,16 L2,6 L0,6 Z " fill="#665522" transform="translate(45,67)"/>
<path d="M0,0 L2,0 L2,7 L-11,7 L-11,2 L-6,3 L-6,5 L0,5 Z " fill="#222211" transform="translate(61,57)"/>
<path d="M0,0 L6,0 L6,9 L1,8 Z " fill="#000000" transform="translate(47,111)"/>
<path d="M0,0 L1,0 L1,15 L3,16 L-2,16 L-2,2 L0,2 Z " fill="#333311" transform="translate(44,35)"/>
<path d="M0,0 L14,0 L14,2 L17,3 L0,3 Z " fill="#665522" transform="translate(60,32)"/>
<path d="M0,0 L7,0 L7,2 L10,2 L10,5 L12,5 L12,7 L7,7 L7,4 L2,4 L2,1 Z " fill="#777544" transform="translate(75,22)"/>
<path d="M0,0 L5,0 L5,5 L3,5 L3,7 L0,7 L0,5 L-3,5 L-3,2 L0,2 Z " fill="#666641" transform="translate(34,30)"/>
<path d="M0,0 L5,0 L5,2 L8,2 L8,5 L10,5 L9,7 L7,6 L7,11 L5,11 L5,5 L2,5 L2,2 L0,2 Z " fill="#292207" transform="translate(29,54)"/>
<path d="M0,0 L4,0 L4,3 L7,3 L7,5 L5,5 L5,8 L-1,7 Z " fill="#A48844" transform="translate(80,38)"/>
<path d="M0,0 L3,0 L3,11 L-8,11 L-8,9 L0,9 L2,10 Z " fill="#665122" transform="translate(87,37)"/>
<path d="M0,0 L1,2 L6,1 L9,2 L9,5 L3,7 L-2,7 L0,3 Z " fill="#22250F" transform="translate(31,43)"/>
<path d="M0,0 L11,0 L11,3 L-2,3 L-2,1 Z " fill="#574411" transform="translate(66,86)"/>
<path d="M0,0 L18,0 L18,2 L0,2 Z " fill="#111100" transform="translate(61,81)"/>
<path d="M0,0 L2,4 L2,7 L-4,8 L-8,7 L-8,5 L-3,5 L-3,3 Z " fill="#1F2211" transform="translate(88,57)"/>
<path d="M0,0 L13,0 L14,2 L1,2 L1,5 L-2,5 L-2,2 L0,2 Z " fill="#554413" transform="translate(47,30)"/>
<path d="M0,0 L2,0 L2,6 L-6,6 L-6,2 L-1,3 Z " fill="#0E0C00" transform="translate(64,114)"/>
<path d="M0,0 L5,0 L5,7 L0,7 Z " fill="#666643" transform="translate(53,113)"/>
<path d="M0,0 L17,0 L17,2 L-1,2 Z " fill="#090000" transform="translate(57,11)"/>
<path d="M0,0 L10,0 L10,1 L3,2 L5,3 L5,5 L1,5 L1,3 L-5,3 L-5,1 Z " fill="#110000" transform="translate(55,97)"/>
<path d="M0,0 L2,0 L2,3 L5,3 L5,5 L2,5 L2,8 L5,8 L4,11 L1,10 L1,5 L-1,5 Z " fill="#333B22" transform="translate(40,89)"/>
<path d="M0,0 L4,0 L4,2 L6,2 L6,5 L1,6 L-2,3 L-2,1 Z " fill="#887744" transform="translate(52,100)"/>
<path d="M0,0 L1,3 L-1,3 L-1,5 L1,5 L1,8 L-6,9 L-10,10 L-10,8 L-5,6 L-2,5 L-2,2 L0,2 Z " fill="#111100" transform="translate(81,92)"/>
<path d="M0,0 L2,0 L3,5 L5,5 L4,10 L3,8 L0,8 Z " fill="#33220F" transform="translate(26,57)"/>
<path d="M0,0 L5,0 L6,1 L6,8 L5,8 L5,3 L3,3 L3,6 L0,6 Z " fill="#443511" transform="translate(42,56)"/>
<path d="M0,0 L7,0 L7,2 L5,2 L5,5 L7,5 L7,8 L2,8 L2,5 L4,5 L4,2 Z " fill="#5D4822" transform="translate(56,68)"/>
<path d="M0,0 L5,0 L7,5 L8,8 L5,8 L5,5 L1,5 Z " fill="#775522" transform="translate(69,59)"/>
<path d="M0,0 L15,0 L15,2 L0,2 Z " fill="#775522" transform="translate(64,41)"/>
<path d="M0,0 L2,0 L2,15 L0,15 Z " fill="#000000" transform="translate(24,30)"/>
<path d="M0,0 L2,0 L2,2 L5,2 L5,9 L2,9 Z " fill="#555530" transform="translate(72,111)"/>
<path d="M0,0 L14,0 L14,1 L1,1 L0,6 L-7,6 L-7,5 L-2,5 L-2,3 L0,3 Z " fill="#443311" transform="translate(76,48)"/>
<path d="M0,0 L6,0 L5,4 L-2,5 L-2,3 L0,3 Z " fill="#222211" transform="translate(42,16)"/>
<path d="M0,0 L14,0 L14,2 L0,2 Z " fill="#664922" transform="translate(63,76)"/>
<path d="M0,0 L3,0 L3,2 L21,2 L21,3 L0,3 Z " fill="#443311" transform="translate(58,81)"/>
<path d="M0,0 L6,0 L6,8 L5,8 L5,3 L3,3 L3,5 L1,5 Z " fill="#332206" transform="translate(34,70)"/>
<path d="M0,0 L3,0 L3,4 L5,4 L5,0 L7,0 L7,5 L5,5 L5,7 L2,7 L2,2 L0,2 Z " fill="#7F5F33" transform="translate(69,46)"/>
<path d="M0,0 L5,0 L5,2 L18,2 L18,3 L2,3 L0,2 Z " fill="#665522" transform="translate(58,92)"/>
<path d="M0,0 L2,0 L2,13 L0,13 Z " fill="#000000" transform="translate(88,73)"/>
<path d="M0,0 L13,0 L13,2 L0,2 Z " fill="#222200" transform="translate(64,73)"/>
<path d="M0,0 L13,0 L13,2 L0,2 Z " fill="#111100" transform="translate(77,49)"/>
<path d="M0,0 L26,0 L26,1 L0,1 Z " fill="#221111" transform="translate(48,10)"/>
<path d="M0,0 L8,0 L8,5 L5,5 L5,2 L0,2 Z " fill="#444422" transform="translate(53,111)"/>
<path d="M0,0 L10,1 L12,3 L0,3 Z " fill="#111100" transform="translate(59,26)"/>
<path d="M0,0 L3,0 L4,9 L1,9 Z " fill="#111100" transform="translate(76,110)"/>
<path d="M0,0 L3,0 L3,2 L6,2 L6,5 L0,5 Z " fill="#937744" transform="translate(71,65)"/>
<path d="M0,0 L12,0 L12,2 L0,2 Z " fill="#000000" transform="translate(51,65)"/>
<path d="M0,0 L1,2 L11,2 L11,5 L19,5 L19,6 L10,6 L10,3 L0,3 Z " fill="#555522" transform="translate(55,16)"/>
<path d="M0,0 L13,0 L10,2 L0,2 Z " fill="#887744" transform="translate(62,84)"/>
<path d="M0,0 L9,0 L10,3 L3,3 L3,1 Z " fill="#393311" transform="translate(77,34)"/>
<path d="M0,0 L2,0 L2,11 L0,11 Z " fill="#000000" transform="translate(24,54)"/>
<path d="M0,0 L5,0 L5,4 L-1,4 Z " fill="#111100" transform="translate(69,116)"/>
<path d="M0,0 L2,0 L2,10 L0,10 L-1,1 Z " fill="#000000" transform="translate(93,32)"/>
<path d="M0,0 L8,0 L8,3 L0,2 Z " fill="#333311" transform="translate(66,13)"/>
<path d="M0,0 L3,0 L3,6 L0,7 Z " fill="#443311" transform="translate(82,76)"/>
<path d="M0,0 L5,0 L5,3 L0,3 L-1,6 L-1,1 Z " fill="#554411" transform="translate(69,56)"/>
<path d="M0,0 L1,2 L3,2 L3,5 L-2,5 L-2,3 L-5,2 L0,2 Z " fill="#333322" transform="translate(87,27)"/>
<path d="M0,0 L3,1 L1,2 L-15,2 L-15,1 Z " fill="#443311" transform="translate(76,94)"/>
<path d="M0,0 L8,1 L8,3 L0,3 Z " fill="#444422" transform="translate(42,94)"/>
<path d="M0,0 L5,0 L8,3 L0,3 Z " fill="#665522" transform="translate(50,67)"/>
<path d="M0,0 L5,0 L5,5 L2,5 L2,2 L0,2 Z " fill="#846633" transform="translate(45,65)"/>
<path d="M0,0 L1,2 L17,2 L17,3 L0,3 Z " fill="#776633" transform="translate(60,32)"/>
<path d="M0,0 L3,0 L3,3 L5,3 L5,5 L0,4 Z " fill="#111100" transform="translate(42,86)"/>
<path d="M0,0 L1,0 L1,16 L0,14 L-2,13 L0,13 Z " fill="#332211" transform="translate(87,73)"/>
<path d="M0,0 L3,0 L3,2 L5,2 L4,4 L2,3 L2,8 L0,8 L-1,1 Z " fill="#332D11" transform="translate(34,57)"/>
<path d="M0,0 L7,0 L7,3 L0,2 Z " fill="#000000" transform="translate(53,57)"/>
<path d="M0,0 L2,0 L2,2 L5,3 L5,5 L0,5 Z " fill="#283311" transform="translate(88,24)"/>
<path d="M0,0 L3,0 L3,2 L0,5 L-3,5 L-3,2 Z " fill="#886633" transform="translate(79,89)"/>
<path d="M0,0 L11,0 L11,1 L1,1 L1,3 L-2,3 L-2,1 Z " fill="#6A5522" transform="translate(66,86)"/>
<path d="M0,0 L1,0 L1,17 L0,17 Z " fill="#111111" transform="translate(92,56)"/>
<path d="M0,0 L1,2 L3,2 L3,7 L0,7 Z " fill="#4C3311" transform="translate(68,46)"/>
<path d="M0,0 L6,0 L4,3 L-1,3 Z " fill="#172211" transform="translate(30,47)"/>
<path d="M0,0 L3,0 L3,8 L1,8 Z " fill="#413311" transform="translate(87,37)"/>
<path d="M0,0 L2,2 L0,2 L-1,7 L-3,7 L-3,2 Z " fill="#111400" transform="translate(45,30)"/>
<path d="M0,0 L2,2 L6,3 L5,6 L0,5 Z " fill="#222200" transform="translate(73,24)"/>
<path d="M0,0 L3,0 L3,2 L8,2 L8,5 L6,5 L6,3 L1,3 Z " fill="#665533" transform="translate(74,24)"/>
<path d="M0,0 L5,0 L5,5 L3,5 L3,2 L0,2 Z " fill="#666633" transform="translate(74,103)"/>
<path d="M0,0 L16,0 L16,1 L0,1 Z " fill="#775533" transform="translate(61,80)"/>
<path d="M0,0 L2,0 L2,8 L0,8 Z " fill="#665533" transform="translate(85,75)"/>
<path d="M0,0 L6,0 L4,1 L4,4 L0,4 Z " fill="#886633" transform="translate(54,72)"/>
<path d="M0,0 L1,0 L1,16 L0,16 Z " fill="#886633" transform="translate(50,70)"/>
<path d="M0,0 L1,0 L1,16 L0,16 Z " fill="#222211" transform="translate(23,30)"/>
<path d="M0,0 L5,0 L6,3 L0,3 Z " fill="#222411" transform="translate(34,24)"/>
<path d="M0,0 L2,0 L2,2 L7,2 L7,3 L2,4 L-1,5 Z " fill="#70703D" transform="translate(75,19)"/>
<path d="M0,0 L5,2 L5,8 L4,8 L4,3 L-1,3 Z " fill="#4E5522" transform="translate(75,100)"/>
<path d="M0,0 L15,0 L15,1 L0,1 Z " fill="#8B7733" transform="translate(63,79)"/>
<path d="M0,0 L3,0 L3,5 L0,5 Z " fill="#000000" transform="translate(26,65)"/>
<path d="M0,0 L15,0 L15,1 L0,1 Z " fill="#886633" transform="translate(64,40)"/>
<path d="M0,0 L1,0 L1,12 L3,13 L0,13 Z " fill="#554411" transform="translate(44,38)"/>
<path d="M0,0 L1,0 L1,5 L0,3 L-7,3 L-8,5 L-8,2 L0,2 Z " fill="#110D00" transform="translate(47,11)"/>
<path d="M0,0 L2,0 L2,3 L4,3 L4,5 L0,5 Z " fill="#444422" transform="translate(48,105)"/>
<path d="M0,0 L7,0 L7,2 L0,2 Z " fill="#000000" transform="translate(80,57)"/>
<path d="M0,0 L4,1 L3,5 L0,5 Z " fill="#997733" transform="translate(52,36)"/>
<path d="M0,0 L1,0 L1,5 L5,5 L6,3 L6,6 L0,6 Z " fill="#332A11" transform="translate(47,105)"/>
<path d="M0,0 L1,0 L1,13 L0,13 Z " fill="#332222" transform="translate(90,73)"/>
<path d="M0,0 L8,1 L7,4 L7,2 L0,3 Z " fill="#664422" transform="translate(80,69)"/>
<path d="M0,0 L3,0 L3,5 L1,5 Z " fill="#333311" transform="translate(34,70)"/>
<path d="M0,0 L1,0 L1,7 L3,7 L3,9 L0,9 Z " fill="#111100" transform="translate(77,66)"/>
<path d="M0,0 L3,0 L3,2 L5,3 L3,3 L2,5 L2,3 L0,3 Z " fill="#222200" transform="translate(26,54)"/>
<path d="M0,0 L13,0 L13,1 L0,1 Z " fill="#222206" transform="translate(77,48)"/>
<path d="M0,0 L2,0 L1,5 L-2,5 L-2,2 L0,2 Z " fill="#554422" transform="translate(47,30)"/>
<path d="M0,0 L1,0 L1,7 L-1,7 L-1,1 Z " fill="#000000" transform="translate(96,24)"/>
<path d="M0,0 L13,0 L13,1 L0,1 Z " fill="#3D4422" transform="translate(56,15)"/>
<path d="M0,0 L2,0 L2,6 L0,6 Z " fill="#666633" transform="translate(74,114)"/>
<path d="M0,0 L3,0 L3,5 L1,5 Z " fill="#000000" transform="translate(44,106)"/>
<path d="M0,0 L3,0 L3,5 L1,5 Z " fill="#000000" transform="translate(41,100)"/>
<path d="M0,0 L1,3 L4,3 L3,6 L0,5 Z " fill="#111100" transform="translate(41,94)"/>
<path d="M0,0 L12,0 L12,1 L0,1 Z " fill="#665522" transform="translate(64,94)"/>
<path d="M0,0 L1,0 L1,12 L0,12 Z " fill="#333333" transform="translate(91,74)"/>
<path d="M0,0 L1,0 L1,12 L0,12 Z " fill="#443311" transform="translate(43,38)"/>
<path d="M0,0 L3,0 L3,4 L0,4 Z " fill="#000000" transform="translate(29,22)"/>
<path d="M0,0 L11,0 L11,1 L0,1 Z " fill="#111100" transform="translate(65,97)"/>
<path d="M0,0 L7,0 L7,1 L2,1 L2,3 L0,3 Z " fill="#333322" transform="translate(1,94)"/>
<path d="M0,0 L2,0 L1,3 L-1,3 L-1,5 L-3,5 L-2,2 L0,2 Z " fill="#333311" transform="translate(82,89)"/>
<path d="M0,0 L5,0 L5,3 L2,3 L2,1 Z " fill="#554411" transform="translate(53,89)"/>
<path d="M0,0 L1,0 L1,6 L0,8 L-2,8 Z " fill="#221300" transform="translate(39,81)"/>
<path d="M0,0 L2,0 L2,5 L0,6 Z " fill="#222211" transform="translate(37,81)"/>
<path d="M0,0 L11,0 L11,1 L0,1 Z " fill="#443411" transform="translate(69,75)"/>
<path d="M0,0 L1,3 L-3,4 L-2,1 Z " fill="#222200" transform="translate(77,30)"/>
<path d="M0,0 L1,2 L9,2 L9,3 L0,3 Z " fill="#444422" transform="translate(65,19)"/>
<path d="M0,0 L3,0 L3,2 L6,3 L1,3 Z " fill="#444411" transform="translate(71,16)"/>
<path d="M0,0 L5,0 L5,2 L0,2 Z " fill="#444422" transform="translate(50,98)"/>
<path d="M0,0 L7,1 L7,3 L0,1 Z " fill="#997733" transform="translate(59,90)"/>
<path d="M0,0 L8,0 L8,1 L1,1 L0,3 Z " fill="#111100" transform="translate(13,89)"/>
<path d="M0,0 L2,0 L2,5 L0,5 Z " fill="#665522" transform="translate(82,84)"/>
<path d="M0,0 L1,0 L1,10 L0,10 Z " fill="#554422" transform="translate(47,73)"/>
<path d="M0,0 L5,0 L5,2 L0,2 Z " fill="#1A1100" transform="translate(64,73)"/>
<path d="M0,0 L10,0 L10,1 L0,1 Z " fill="#221100" transform="translate(80,67)"/>
<path d="M0,0 L1,0 L1,10 L0,10 Z " fill="#222211" transform="translate(23,54)"/>
<path d="M0,0 L5,0 L5,2 L0,2 Z " fill="#332211" transform="translate(29,54)"/>
<path d="M0,0 L8,0 L8,1 L1,1 L0,3 Z " fill="#222200" transform="translate(47,48)"/>
<path d="M0,0 L5,1 L5,3 L2,3 L2,1 Z " fill="#886B33" transform="translate(74,45)"/>
<path d="M0,0 L5,0 L5,2 L0,2 Z " fill="#665522" transform="translate(80,35)"/>
<path d="M0,0 L2,2 L2,7 L0,5 Z " fill="#222B11" transform="translate(40,30)"/>
<path d="M0,0 L6,0 L6,5 L5,1 L0,1 Z " fill="#444422" transform="translate(34,29)"/>
<path d="M0,0 L2,4 L0,4 L-1,6 L-2,2 L0,2 Z " fill="#666633" transform="translate(37,31)"/>
<path d="M0,0 L10,0 L10,1 L0,1 Z " fill="#332211" transform="translate(61,29)"/>
<path d="M0,0 L4,0 L4,2 L-1,3 Z " fill="#222211" transform="translate(48,27)"/>
<path d="M0,0 L5,0 L5,2 L0,2 Z " fill="#000000" transform="translate(85,19)"/>
<path d="M0,0 L10,0 L10,1 L0,1 Z " fill="#776644" transform="translate(56,17)"/>
<path d="M0,0 L6,0 L5,3 L0,1 Z " fill="#222211" transform="translate(68,13)"/>
<path d="M0,0 L2,1 L2,5 L0,5 Z " fill="#333322" transform="translate(77,114)"/>
<path d="M0,0 L3,0 L3,3 L0,3 Z " fill="#666644" transform="translate(42,94)"/>
<path d="M0,0 L2,0 L2,3 L-1,4 Z " fill="#222211" transform="translate(40,86)"/>
<path d="M0,0 L3,0 L3,3 L0,3 Z " fill="#554411" transform="translate(58,81)"/>
<path d="M0,0 L1,0 L1,9 L0,9 Z " fill="#8E7744" transform="translate(51,77)"/>
<path d="M0,0 L2,0 L2,3 L-3,3 L0,2 Z " fill="#554422" transform="translate(61,73)"/>
<path d="M0,0 L1,3 L3,3 L2,6 L0,4 Z " fill="#443311" transform="translate(74,59)"/>
<path d="M0,0 L3,0 L3,3 L0,3 Z " fill="#886E33" transform="translate(71,59)"/>
<path d="M0,0 L1,0 L1,8 L-1,7 Z " fill="#332222" transform="translate(25,46)"/>
<path d="M0,0 L2,0 L1,7 L0,7 Z " fill="#221100" transform="translate(90,35)"/>
<path d="M0,0 L1,0 L1,9 L0,9 Z " fill="#332222" transform="translate(95,32)"/>
<path d="M0,0 L3,0 L3,3 L0,3 Z " fill="#222211" transform="translate(45,21)"/>
<path d="M0,0 L5,0 L5,2 L0,1 Z " fill="#776644" transform="translate(70,19)"/>
<path d="M0,0 L9,0 L9,1 L0,1 Z " fill="#222211" transform="translate(48,13)"/>
<path d="M0,0 L1,0 L1,6 L-1,3 Z " fill="#333311" transform="translate(52,113)"/>
<path d="M0,0 L2,0 L2,5 L0,3 Z " fill="#414422" transform="translate(72,111)"/>
<path d="M0,0 L2,0 L0,5 L-1,2 Z " fill="#111100" transform="translate(51,111)"/>
<path d="M0,0 L2,0 L2,7 L1,7 Z " fill="#111100" transform="translate(115,105)"/>
<path d="M0,0 L4,0 L4,2 L0,2 Z " fill="#333315" transform="translate(56,100)"/>
<path d="M0,0 L2,0 L2,4 L0,4 Z " fill="#777755" transform="translate(45,98)"/>
<path d="M0,0 L6,0 L5,3 L5,1 L0,1 Z " fill="#131111" transform="translate(106,97)"/>
<path d="M0,0 L4,0 L4,2 L0,2 Z " fill="#000000" transform="translate(51,95)"/>
<path d="M0,0 L1,2 L6,2 L6,3 L0,3 Z " fill="#222211" transform="translate(100,92)"/>
<path d="M0,0 L1,0 L1,8 L0,8 Z " fill="#886633" transform="translate(52,78)"/>
<path d="M0,0 L1,0 L1,5 L3,6 L0,6 Z " fill="#333311" transform="translate(42,78)"/>
<path d="M0,0 L5,0 L2,1 L1,4 Z " fill="#554411" transform="translate(80,75)"/>
<path d="M0,0 L1,2 L6,2 L6,3 L0,3 Z " fill="#332A11" transform="translate(63,73)"/>
<path d="M0,0 L8,0 L8,1 L0,1 Z " fill="#665522" transform="translate(69,72)"/>
<path d="M0,0 L4,0 L4,2 L0,2 Z " fill="#554415" transform="translate(64,70)"/>
<path d="M0,0 L2,0 L2,4 L0,4 Z " fill="#111100" transform="translate(34,66)"/>
<path d="M0,0 L1,0 L1,5 L-1,5 Z " fill="#554011" transform="translate(70,48)"/>
<path d="M0,0 L1,0 L1,8 L0,8 Z " fill="#886633" transform="translate(50,35)"/>
<path d="M0,0 L7,1 L7,2 L0,2 Z " fill="#775522" transform="translate(61,32)"/>
<path d="M0,0 L1,3 L-5,3 L-5,2 L0,2 Z " fill="#444F22" transform="translate(87,27)"/>
<path d="M0,0 L1,0 L1,8 L0,8 Z " fill="#111111" transform="translate(97,24)"/>
<path d="M0,0 L3,0 L3,3 L0,2 Z " fill="#333319" transform="translate(74,24)"/>
<path d="M0,0 L2,2 L1,4 L-1,4 Z " fill="#333322" transform="translate(65,22)"/>
<path d="M0,0 L5,1 L5,3 L3,3 L3,1 Z " fill="#222209" transform="translate(50,18)"/>
<path d="M0,0 L7,0 L5,2 L0,1 Z " fill="#333322" transform="translate(50,14)"/>
<path d="M0,0 L8,0 L8,1 L0,1 Z " fill="#110C00" transform="translate(74,13)"/>
<path d="M0,0 L2,3 L2,5 L0,5 Z " fill="#333311" transform="translate(71,111)"/>
<path d="M0,0 L1,2 L3,2 L2,5 L2,3 L0,3 Z " fill="#555533" transform="translate(55,100)"/>
<path d="M0,0 L4,1 L0,2 Z " fill="#333315" transform="translate(71,100)"/>
<path d="M0,0 L3,0 L3,2 L0,3 Z " fill="#665522" transform="translate(79,89)"/>
<path d="M0,0 L1,0 L1,5 L0,3 L-2,2 L0,2 Z " fill="#221100" transform="translate(87,84)"/>
<path d="M0,0 L3,1 L1,1 L1,4 L-1,3 Z " fill="#776633" transform="translate(57,72)"/>
<path d="M0,0 L5,0 L2,2 L0,2 Z " fill="#887733" transform="translate(55,71)"/>
<path d="M0,0 L1,0 L1,7 L0,7 Z " fill="#3F3311" transform="translate(47,57)"/>
<path d="M0,0 L7,0 L7,1 L0,1 Z " fill="#332211" transform="translate(69,53)"/>
<path d="M0,0 L1,0 L1,7 L0,7 Z " fill="#222200" transform="translate(41,39)"/>
<path d="M0,0 L1,0 L1,7 L0,7 Z " fill="#444411" transform="translate(88,38)"/>
<path d="M0,0 L2,2 L0,2 L-1,5 Z " fill="#222200" transform="translate(45,30)"/>
<path d="M0,0 L3,1 L1,1 L0,4 Z " fill="#111100" transform="translate(58,116)"/>
<path d="M0,0 L3,0 L3,2 L0,2 Z " fill="#333311" transform="translate(74,111)"/>
<path d="M0,0 L2,0 L2,3 L0,3 Z " fill="#111100" transform="translate(53,108)"/>
<path d="M0,0 L1,0 L1,6 L0,6 Z " fill="#222211" transform="translate(47,105)"/>
<path d="M0,0 L2,0 L2,3 L0,3 Z " fill="#333311" transform="translate(48,105)"/>
<path d="M0,0 L2,0 L2,3 L0,3 Z " fill="#000000" transform="translate(71,103)"/>
<path d="M0,0 L1,2 L-1,2 L-2,4 L-2,1 Z " fill="#111100" transform="translate(60,101)"/>
<path d="M0,0 L3,0 L3,2 L0,2 Z " fill="#444422" transform="translate(42,92)"/>
<path d="M0,0 L6,0 L6,1 L0,1 Z " fill="#222222" transform="translate(93,91)"/>
<path d="M0,0 L3,0 L3,2 L0,2 Z " fill="#222200" transform="translate(42,84)"/>
<path d="M0,0 L2,0 L2,5 L0,1 Z " fill="#333300" transform="translate(82,76)"/>
<path d="M0,0 L3,0 L3,2 L0,2 Z " fill="#775522" transform="translate(58,76)"/>
<path d="M0,0 L2,0 L2,3 L0,3 Z " fill="#443300" transform="translate(80,72)"/>
<path d="M0,0 L3,0 L3,2 L0,2 Z " fill="#443308" transform="translate(58,73)"/>
<path d="M0,0 L2,0 L2,3 L0,3 Z " fill="#000000" transform="translate(29,70)"/>
<path d="M0,0 L2,0 L2,3 L0,3 Z " fill="#332200" transform="translate(61,70)"/>
<path d="M0,0 L2,4 L0,5 Z " fill="#110000" transform="translate(90,68)"/>
<path d="M0,0 L1,0 L1,5 L-1,4 Z " fill="#333311" transform="translate(89,68)"/>
<path d="M0,0 L1,0 L1,6 L0,6 Z " fill="#222211" transform="translate(92,67)"/>
<path d="M0,0 L2,0 L2,3 L0,3 Z " fill="#998844" transform="translate(72,65)"/>
<path d="M0,0 L2,0 L2,3 L0,3 Z " fill="#443B11" transform="translate(66,62)"/>
<path d="M0,0 L1,0 L1,5 L-1,4 Z " fill="#221100" transform="translate(41,57)"/>
<path d="M0,0 L2,2 L-3,2 Z " fill="#221100" transform="translate(45,54)"/>
<path d="M0,0 L3,0 L3,2 L0,2 Z " fill="#6E5522" transform="translate(71,51)"/>
<path d="M0,0 L1,0 L1,6 L0,6 Z " fill="#333333" transform="translate(24,47)"/>
<path d="M0,0 L6,0 L6,1 L0,1 Z " fill="#997733" transform="translate(68,43)"/>
<path d="M0,0 L1,0 L1,6 L0,6 Z " fill="#22220C" transform="translate(39,37)"/>
<path d="M0,0 L2,0 L2,3 L0,3 Z " fill="#776633" transform="translate(85,37)"/>
<path d="M0,0 L1,0 L1,6 L0,6 Z " fill="#333333" transform="translate(96,33)"/>
<path d="M0,0 L1,2 L4,3 L0,3 Z " fill="#886633" transform="translate(60,32)"/>
<path d="M0,0 L1,2 L4,3 L0,3 Z " fill="#222200" transform="translate(71,29)"/>
<path d="M0,0 L2,0 L2,2 L4,3 L1,3 Z " fill="#222211" transform="translate(88,24)"/>
<path d="M0,0 L6,0 L6,1 L0,1 Z " fill="#222211" transform="translate(63,26)"/>
<path d="M0,0 L3,0 L3,2 L0,2 Z " fill="#444422" transform="translate(82,22)"/>
<path d="M0,0 L1,0 L1,5 L-1,4 Z " fill="#332222" transform="translate(28,22)"/>
<path d="M0,0 L3,0 L3,2 L0,2 Z " fill="#111100" transform="translate(87,22)"/>
<path d="M0,0 L4,2 L0,2 Z " fill="#444422" transform="translate(77,19)"/>
<path d="M0,0 L5,0 L5,1 L0,1 Z " fill="#555533" transform="translate(53,113)"/>
<path d="M0,0 L1,0 L1,5 L0,5 Z " fill="#333322" transform="translate(60,111)"/>
<path d="M0,0 L1,2 L3,3 L0,3 Z " fill="#333311" transform="translate(79,108)"/>
<path d="M0,0 L2,0 L2,2 L-1,1 Z " fill="#222211" transform="translate(72,109)"/>
<path d="M0,0 L5,0 L5,1 L0,1 Z " fill="#6B6644" transform="translate(50,107)"/>
<path d="M0,0 L3,1 L0,2 Z " fill="#6E6E44" transform="translate(74,103)"/>
<path d="M0,0 L3,0 L2,3 L2,1 Z " fill="#665533" transform="translate(45,102)"/>
<path d="M0,0 L5,0 L5,1 L0,1 Z " fill="#111100" transform="translate(74,99)"/>
<path d="M0,0 L2,0 L2,2 L-1,1 Z " fill="#222211" transform="translate(80,98)"/>
<path d="M0,0 L1,2 L3,3 L0,3 Z " fill="#111100" transform="translate(55,97)"/>
<path d="M0,0 L5,0 L5,1 L0,1 Z " fill="#333311" transform="translate(50,98)"/>
<path d="M0,0 L5,0 L5,1 L0,1 Z " fill="#110000" transform="translate(71,97)"/>
<path d="M0,0 L5,0 L5,1 L0,1 Z " fill="#222211" transform="translate(50,97)"/>
<path d="M0,0 L5,0 L5,1 L0,1 Z " fill="#777144" transform="translate(45,97)"/>
<path d="M0,0 L3,0 L2,3 L2,1 Z " fill="#333311" transform="translate(42,97)"/>
<path d="M0,0 L1,3 L-2,2 L0,2 Z " fill="#111100" transform="translate(81,92)"/>
<path d="M0,0 L5,0 L5,1 L0,1 Z " fill="#222211" transform="translate(45,94)"/>
<path d="M0,0 L5,0 L5,1 L0,1 Z " fill="#221C11" transform="translate(3,94)"/>
<path d="M0,0 L3,0 L3,2 L0,1 Z " fill="#110000" transform="translate(15,92)"/>
<path d="M0,0 L5,0 L5,1 L0,1 Z " fill="#886633" transform="translate(58,91)"/>
<path d="M0,0 L5,0 L5,1 L0,1 Z " fill="#333333" transform="translate(94,90)"/>
<path d="M0,0 L2,0 L1,3 Z " fill="#332200" transform="translate(82,89)"/>
<path d="M0,0 L1,3 L-2,2 L0,2 Z " fill="#886633" transform="translate(81,86)"/>
<path d="M0,0 L5,0 L5,1 L0,1 Z " fill="#111100" transform="translate(21,86)"/>
<path d="M0,0 L1,0 L1,5 L0,5 Z " fill="#111100" transform="translate(36,81)"/>
<path d="M0,0 L1,3 L-2,2 L0,2 Z " fill="#110000" transform="translate(31,79)"/>
<path d="M0,0 L5,0 L5,1 L0,1 Z " fill="#665522" transform="translate(61,80)"/>
<path d="M0,0 L2,0 L1,3 Z " fill="#775522" transform="translate(53,78)"/>
<path d="M0,0 L4,2 L0,2 Z " fill="#776622" transform="translate(70,70)"/>
<path d="M0,0 L2,1 L2,3 L0,3 Z " fill="#554422" transform="translate(80,69)"/>
<path d="M0,0 L1,0 L1,5 L0,5 Z " fill="#332211" transform="translate(79,68)"/>
<path d="M0,0 L5,0 L5,1 L0,1 Z " fill="#554419" transform="translate(56,68)"/>
<path d="M0,0 L5,0 L5,1 L0,1 Z " fill="#554422" transform="translate(50,67)"/>
<path d="M0,0 L1,0 L1,5 L0,5 Z " fill="#332211" transform="translate(68,57)"/>
<path d="M0,0 L2,0 L2,2 L-1,1 Z " fill="#665022" transform="translate(72,57)"/>
<path d="M0,0 L1,0 L1,5 L0,5 Z " fill="#111100" transform="translate(92,56)"/>
<path d="M0,0 L5,0 L5,1 L0,1 Z " fill="#332211" transform="translate(69,56)"/>
<path d="M0,0 L5,0 L5,1 L0,1 Z " fill="#333311" transform="translate(42,56)"/>
<path d="M0,0 L1,0 L1,5 L0,5 Z " fill="#221111" transform="translate(95,51)"/>
<path d="M0,0 L1,0 L1,5 L0,5 Z " fill="#110000" transform="translate(90,43)"/>
<path d="M0,0 L2,1 L2,3 L0,3 Z " fill="#333322" transform="translate(30,39)"/>
<path d="M0,0 L5,0 L5,1 L0,1 Z " fill="#887733" transform="translate(80,37)"/>
<path d="M0,0 L4,1 Z M-1,1 Z " fill="#775522" transform="translate(49,34)"/>
<path d="M0,0 L3,1 L1,1 L0,3 Z " fill="#222211" transform="translate(26,34)"/>
<path d="M0,0 L1,2 L3,3 L0,3 Z " fill="#555533" transform="translate(31,32)"/>
<path d="M0,0 L5,0 L5,1 L0,1 Z " fill="#887733" transform="translate(53,32)"/>
<path d="M0,0 L5,0 L5,1 L0,1 Z " fill="#664422" transform="translate(53,31)"/>
<path d="M0,0 L4,0 L3,2 Z " fill="#112200" transform="translate(73,29)"/>
<path d="M0,0 L5,0 L5,1 L0,1 Z " fill="#445533" transform="translate(34,29)"/>
<path d="M0,0 L5,0 L5,1 L0,1 Z " fill="#555533" transform="translate(77,21)"/>
<path d="M0,0 L3,1 L0,2 Z " fill="#222211" transform="translate(82,19)"/>
<path d="M0,0 L5,0 L5,1 L0,1 Z " fill="#222211" transform="translate(85,18)"/>
<path d="M0,0 L4,1 L1,2 Z " fill="#776644" transform="translate(67,17)"/>
<path d="M0,0 L3,1 L0,2 Z " fill="#333311" transform="translate(74,16)"/>
<path d="M0,0 L1,4 Z " fill="#555533" transform="translate(74,116)"/>
<path d="M0,0 L1,4 Z " fill="#666633" transform="translate(57,116)"/>
<path d="M0,0 L2,0 L2,2 L0,2 Z " fill="#333311" transform="translate(53,111)"/>
<path d="M0,0 L3,2 L0,2 Z " fill="#333311" transform="translate(56,109)"/>
<path d="M0,0 L2,0 L2,2 L0,2 Z " fill="#444422" transform="translate(80,108)"/>
<path d="M0,0 L2,0 L2,2 L0,2 Z " fill="#222200" transform="translate(77,108)"/>
<path d="M0,0 L2,0 L1,3 Z " fill="#222200" transform="translate(75,105)"/>
<path d="M0,0 L2,0 L2,2 L0,2 Z " fill="#333311" transform="translate(45,103)"/>
<path d="M0,0 L1,4 Z " fill="#222222" transform="translate(114,101)"/>
<path d="M0,0 L2,2 L-1,1 Z " fill="#444422" transform="translate(75,100)"/>
<path d="M0,0 L2,0 L2,2 L0,2 Z " fill="#777755" transform="translate(42,95)"/>
<path d="M0,0 L4,1 Z " fill="#554411" transform="translate(60,94)"/>
<path d="M0,0 L2,0 L2,2 L0,2 Z " fill="#554411" transform="translate(58,92)"/>
<path d="M0,0 L2,0 L2,2 L0,2 Z " fill="#665522" transform="translate(77,92)"/>
<path d="M0,0 L2,0 L2,2 L0,2 Z " fill="#000000" transform="translate(48,92)"/>
<path d="M0,0 L2,0 L2,2 L0,2 Z " fill="#222200" transform="translate(45,92)"/>
<path d="M0,0 L2,2 L0,3 Z " fill="#222211" transform="translate(39,91)"/>
<path d="M0,0 L1,3 L-1,2 Z " fill="#1C1100" transform="translate(84,89)"/>
<path d="M0,0 L3,2 L0,2 Z " fill="#222211" transform="translate(42,90)"/>
<path d="M0,0 L4,1 Z " fill="#222222" transform="translate(9,91)"/>
<path d="M0,0 L2,0 L2,2 L0,2 Z " fill="#997733" transform="translate(72,90)"/>
<path d="M0,0 L2,0 L2,2 L0,2 Z " fill="#000000" transform="translate(45,89)"/>
<path d="M0,0 L4,1 Z " fill="#111100" transform="translate(88,89)"/>
<path d="M0,0 L2,0 L2,2 L0,2 Z " fill="#665522" transform="translate(56,89)"/>
<path d="M0,0 L2,0 L2,2 L0,2 Z " fill="#000000" transform="translate(42,87)"/>
<path d="M0,0 L2,0 L2,2 L0,2 Z " fill="#111100" transform="translate(37,87)"/>
<path d="M0,0 L2,0 L2,2 L0,2 Z " fill="#443311" transform="translate(85,84)"/>
<path d="M0,0 L2,0 L2,2 L0,2 Z " fill="#222200" transform="translate(77,81)"/>
<path d="M0,0 L1,4 Z " fill="#775533" transform="translate(86,78)"/>
<path d="M0,0 L2,0 L2,2 L0,2 Z " fill="#221100" transform="translate(37,79)"/>
<path d="M0,0 L2,0 L2,2 L0,2 Z " fill="#776633" transform="translate(77,76)"/>
<path d="M0,0 L2,0 L2,2 L0,2 Z " fill="#554411" transform="translate(56,76)"/>
<path d="M0,0 L2,0 L2,2 L0,2 Z " fill="#332200" transform="translate(35,73)"/>
<path d="M0,0 L2,0 L2,2 L0,2 Z " fill="#000000" transform="translate(32,73)"/>
<path d="M0,0 L3,1 L0,2 Z " fill="#332211" transform="translate(73,73)"/>
<path d="M0,0 L4,1 Z " fill="#332200" transform="translate(69,73)"/>
<path d="M0,0 L2,0 L2,2 L0,2 Z " fill="#221100" transform="translate(37,73)"/>
<path d="M0,0 L2,0 L2,2 L0,2 Z " fill="#443311" transform="translate(34,71)"/>
<path d="M0,0 L2,0 L1,3 Z " fill="#110000" transform="translate(34,66)"/>
<path d="M0,0 L1,4 Z " fill="#332222" transform="translate(25,65)"/>
<path d="M0,0 L2,0 L2,2 L0,2 Z " fill="#554422" transform="translate(42,65)"/>
<path d="M0,0 L2,0 L2,2 L0,2 Z " fill="#000000" transform="translate(64,62)"/>
<path d="M0,0 L2,0 L2,2 L0,2 Z " fill="#665533" transform="translate(45,59)"/>
<path d="M0,0 L1,4 Z " fill="#111111" transform="translate(89,57)"/>
<path d="M0,0 L2,0 L1,3 Z " fill="#110B00" transform="translate(46,54)"/>
<path d="M0,0 L4,1 Z " fill="#333311" transform="translate(30,55)"/>
<path d="M0,0 L1,4 Z " fill="#332211" transform="translate(68,49)"/>
<path d="M0,0 L2,0 L2,2 L0,2 Z " fill="#554411" transform="translate(74,51)"/>
<path d="M0,0 L4,1 Z " fill="#111111" transform="translate(29,50)"/>
<path d="M0,0 L1,4 Z " fill="#887744" transform="translate(73,46)"/>
<path d="M0,0 L2,0 L2,2 L0,2 Z " fill="#775522" transform="translate(74,46)"/>
<path d="M0,0 L2,0 L2,2 L0,2 Z " fill="#665522" transform="translate(69,46)"/>
<path d="M0,0 L2,0 L2,2 L0,2 Z " fill="#333311" transform="translate(37,46)"/>
<path d="M0,0 L4,1 Z " fill="#887733" transform="translate(79,45)"/>
<path d="M0,0 L1,4 Z " fill="#665522" transform="translate(45,43)"/>
<path d="M0,0 L4,1 Z " fill="#776622" transform="translate(75,42)"/>
<path d="M0,0 L2,0 L2,2 L0,2 Z " fill="#222200" transform="translate(90,35)"/>
<path d="M0,0 L2,0 L1,3 Z " fill="#222205" transform="translate(86,34)"/>
<path d="M0,0 L2,0 L2,2 L0,2 Z " fill="#443311" transform="translate(74,32)"/>
<path d="M0,0 L2,0 L2,2 L0,2 Z " fill="#443311" transform="translate(45,32)"/>
<path d="M0,0 L2,0 L2,2 L0,2 Z " fill="#554422" transform="translate(47,30)"/>
<path d="M0,0 L1,4 Z " fill="#112200" transform="translate(28,30)"/>
<path d="M0,0 L4,1 Z " fill="#334422" transform="translate(85,30)"/>
<path d="M0,0 L2,0 L2,2 L0,2 Z " fill="#444422" transform="translate(80,27)"/>
<path d="M0,0 L2,0 L2,2 L0,2 Z " fill="#000000" transform="translate(27,27)"/>
<path d="M0,0 L1,4 Z " fill="#333333" transform="translate(27,22)"/>
<path d="M0,0 L2,0 L2,2 L0,2 Z " fill="#000000" transform="translate(90,22)"/>
<path d="M0,0 L1,4 Z " fill="#112200" transform="translate(52,21)"/>
<path d="M0,0 L3,0 L2,2 Z " fill="#333311" transform="translate(79,19)"/>
<path d="M0,0 L2,3 L0,3 Z " fill="#555522" transform="translate(55,16)"/>
<path d="M0,0 L2,0 L2,2 L0,2 Z " fill="#000000" transform="translate(82,16)"/>
<path d="M0,0 L4,1 Z " fill="#222222" transform="translate(35,15)"/>
<path d="M0,0 L3,1 Z " fill="#000000" transform="translate(34,119)"/>
<path d="M0,0 Z " fill="#221111" transform="translate(52,116)"/>
<path d="M0,0 L2,2 L0,2 Z " fill="#222211" transform="translate(77,114)"/>
<path d="M0,0 L2,0 L1,2 Z " fill="#000000" transform="translate(74,106)"/>
<path d="M0,0 L3,1 Z " fill="#222211" transform="translate(55,105)"/>
<path d="M0,0 L3,1 Z " fill="#5D5D33" transform="translate(74,102)"/>
<path d="M0,0 Z " fill="#222211" transform="translate(44,100)"/>
<path d="M0,0 L2,0 L1,2 Z " fill="#887755" transform="translate(45,98)"/>
<path d="M0,0 Z " fill="#222211" transform="translate(41,94)"/>
<path d="M0,0 L3,1 Z " fill="#554411" transform="translate(76,94)"/>
<path d="M0,0 L1,2 L-1,1 Z " fill="#333322" transform="translate(41,92)"/>
<path d="M0,0 Z " fill="#775522" transform="translate(79,89)"/>
<path d="M0,0 L1,2 L-1,1 Z " fill="#444433" transform="translate(40,89)"/>
<path d="M0,0 L3,1 Z " fill="#333333" transform="translate(9,90)"/>
<path d="M0,0 L3,1 Z " fill="#664411" transform="translate(74,88)"/>
<path d="M0,0 Z " fill="#443311" transform="translate(84,86)"/>
<path d="M0,0 L3,1 Z " fill="#665522" transform="translate(58,83)"/>
<path d="M0,0 L3,1 Z " fill="#221111" transform="translate(26,83)"/>
<path d="M0,0 Z " fill="#554411" transform="translate(79,81)"/>
<path d="M0,0 L3,1 Z " fill="#886633" transform="translate(58,80)"/>
<path d="M0,0 Z " fill="#997744" transform="translate(51,77)"/>
<path d="M0,0 Z " fill="#664422" transform="translate(81,76)"/>
<path d="M0,0 Z " fill="#887733" transform="translate(61,76)"/>
<path d="M0,0 L2,0 L1,2 Z " fill="#997733" transform="translate(51,76)"/>
<path d="M0,0 L3,1 Z " fill="#554411" transform="translate(58,75)"/>
<path d="M0,0 Z " fill="#554411" transform="translate(47,73)"/>
<path d="M0,0 Z " fill="#554422" transform="translate(87,70)"/>
<path d="M0,0 L2,2 L0,2 Z " fill="#775522" transform="translate(50,68)"/>
<path d="M0,0 L3,1 Z " fill="#111100" transform="translate(26,69)"/>
<path d="M0,0 Z " fill="#333333" transform="translate(24,66)"/>
<path d="M0,0 Z " fill="#221100" transform="translate(28,65)"/>
<path d="M0,0 L2,1 L0,2 Z " fill="#665533" transform="translate(66,65)"/>
<path d="M0,0 L3,1 Z " fill="#111100" transform="translate(87,64)"/>
<path d="M0,0 Z " fill="#110000" transform="translate(77,63)"/>
<path d="M0,0 L2,2 L0,2 Z " fill="#5D4422" transform="translate(74,63)"/>
<path d="M0,0 Z " fill="#554422" transform="translate(41,62)"/>
<path d="M0,0 L2,1 L0,2 Z " fill="#332211" transform="translate(66,62)"/>
<path d="M0,0 Z " fill="#110000" transform="translate(76,59)"/>
<path d="M0,0 Z " fill="#222211" transform="translate(74,59)"/>
<path d="M0,0 L2,0 L1,2 Z " fill="#997744" transform="translate(72,60)"/>
<path d="M0,0 L1,2 L-1,1 Z " fill="#112211" transform="translate(62,60)"/>
<path d="M0,0 L3,1 Z " fill="#886633" transform="translate(71,59)"/>
<path d="M0,0 L3,1 Z " fill="#001100" transform="translate(57,56)"/>
<path d="M0,0 L3,1 Z " fill="#222211" transform="translate(42,55)"/>
<path d="M0,0 L2,1 L0,2 Z " fill="#111100" transform="translate(26,54)"/>
<path d="M0,0 Z " fill="#333311" transform="translate(47,48)"/>
<path d="M0,0 L3,1 Z " fill="#332211" transform="translate(77,48)"/>
<path d="M0,0 Z " fill="#222200" transform="translate(41,47)"/>
<path d="M0,0 Z " fill="#5D4422" transform="translate(89,45)"/>
<path d="M0,0 L3,1 Z " fill="#886633" transform="translate(68,45)"/>
<path d="M0,0 Z " fill="#998844" transform="translate(84,43)"/>
<path d="M0,0 Z " fill="#554422" transform="translate(88,42)"/>
<path d="M0,0 L2,1 L0,2 Z " fill="#776633" transform="translate(85,43)"/>
<path d="M0,0 L3,1 Z " fill="#775522" transform="translate(81,35)"/>
<path d="M0,0 L3,1 Z " fill="#443311" transform="translate(77,34)"/>
<path d="M0,0 L3,1 Z " fill="#665522" transform="translate(74,34)"/>
<path d="M0,0 L3,1 Z " fill="#222211" transform="translate(42,29)"/>
<path d="M0,0 Z " fill="#666633" transform="translate(84,24)"/>
<path d="M0,0 L2,0 L1,2 Z " fill="#444422" transform="translate(75,24)"/>
<path d="M0,0 L2,1 L0,2 Z " fill="#444422" transform="translate(82,22)"/>
<path d="M0,0 L3,1 Z " fill="#333311" transform="translate(82,21)"/>
<path d="M0,0 L3,1 Z " fill="#777744" transform="translate(72,19)"/>
<path d="M0,0 L2,2 L0,2 Z " fill="#222208" transform="translate(79,17)"/>
<path d="M0,0 L3,1 Z " fill="#444422" transform="translate(74,18)"/>
<path d="M0,0 L2,1 L0,2 Z " fill="#666633" transform="translate(66,18)"/>
<path d="M0,0 Z " fill="#333322" transform="translate(48,16)"/>
<path d="M0,0 L3,1 Z " fill="#110000" transform="translate(74,15)"/>
<path d="M0,0 L3,1 Z " fill="#444422" transform="translate(56,15)"/>
<path d="M0,0 L3,1 Z " fill="#333322" transform="translate(63,14)"/>
<path d="M0,0 Z " fill="#111111" transform="translate(39,13)"/>
<path d="M0,0 L3,1 Z " fill="#333333" transform="translate(35,14)"/>
<path d="M0,0 L3,1 Z " fill="#222211" transform="translate(56,10)"/>
<path d="M0,0 L2,1 Z " fill="#000000" transform="translate(77,119)"/>
<path d="M0,0 L2,1 Z " fill="#444422" transform="translate(53,119)"/>
<path d="M0,0 L2,1 Z " fill="#001100" transform="translate(0,119)"/>
<path d="M0,0 L2,1 Z " fill="#555533" transform="translate(53,118)"/>
<path d="M0,0 Z " fill="#110000" transform="translate(104,116)"/>
<path d="M0,0 Z " fill="#333322" transform="translate(72,114)"/>
<path d="M0,0 Z " fill="#222211" transform="translate(60,114)"/>
<path d="M0,0 Z " fill="#222211" transform="translate(51,114)"/>
<path d="M0,0 Z " fill="#001100" transform="translate(83,113)"/>
<path d="M0,0 L2,1 Z " fill="#776644" transform="translate(55,114)"/>
<path d="M0,0 L2,1 Z " fill="#111111" transform="translate(117,113)"/>
<path d="M0,0 L2,1 Z " fill="#555522" transform="translate(53,113)"/>
<path d="M0,0 Z " fill="#222211" transform="translate(76,111)"/>
<path d="M0,0 Z " fill="#333322" transform="translate(74,111)"/>
<path d="M0,0 Z " fill="#223311" transform="translate(53,111)"/>
<path d="M0,0 Z " fill="#111100" transform="translate(82,109)"/>
<path d="M0,0 L2,1 Z " fill="#111100" transform="translate(59,110)"/>
<path d="M0,0 Z " fill="#111100" transform="translate(58,108)"/>
<path d="M0,0 Z " fill="#333311" transform="translate(52,108)"/>
<path d="M0,0 L2,1 Z " fill="#222211" transform="translate(77,108)"/>
<path d="M0,0 L2,1 Z " fill="#222222" transform="translate(115,105)"/>
<path d="M0,0 L2,1 Z " fill="#333311" transform="translate(75,105)"/>
<path d="M0,0 L2,1 Z " fill="#444422" transform="translate(48,105)"/>
<path d="M0,0 L2,1 Z " fill="#666644" transform="translate(74,104)"/>
<path d="M0,0 Z " fill="#111100" transform="translate(58,103)"/>
<path d="M0,0 Z " fill="#666633" transform="translate(57,103)"/>
<path d="M0,0 L2,1 Z " fill="#777744" transform="translate(55,104)"/>
<path d="M0,0 L2,1 Z " fill="#221111" transform="translate(58,102)"/>
<path d="M0,0 L2,1 Z " fill="#554422" transform="translate(45,102)"/>
<path d="M0,0 Z " fill="#222211" transform="translate(71,100)"/>
<path d="M0,0 L2,1 Z " fill="#111100" transform="translate(112,100)"/>
<path d="M0,0 L2,1 Z " fill="#111100" transform="translate(56,99)"/>
<path d="M0,0 L2,1 Z " fill="#111100" transform="translate(1,97)"/>
<path d="M0,0 Z " fill="#111100" transform="translate(105,95)"/>
<path d="M0,0 Z " fill="#332211" transform="translate(55,95)"/>
<path d="M0,0 Z " fill="#111100" transform="translate(50,95)"/>
<path d="M0,0 L2,1 Z " fill="#888855" transform="translate(42,95)"/>
<path d="M0,0 L2,1 Z " fill="#333322" transform="translate(45,94)"/>
<path d="M0,0 L2,1 Z " fill="#111100" transform="translate(39,94)"/>
<path d="M0,0 Z " fill="#222211" transform="translate(100,92)"/>
<path d="M0,0 Z " fill="#222211" transform="translate(81,92)"/>
<path d="M0,0 Z " fill="#554411" transform="translate(79,92)"/>
<path d="M0,0 Z " fill="#886633" transform="translate(63,92)"/>
<path d="M0,0 Z " fill="#333311" transform="translate(50,92)"/>
<path d="M0,0 Z " fill="#333322" transform="translate(44,92)"/>
<path d="M0,0 Z " fill="#110000" transform="translate(8,92)"/>
<path d="M0,0 L2,1 Z " fill="#554422" transform="translate(58,92)"/>
<path d="M0,0 Z " fill="#111100" transform="translate(92,90)"/>
<path d="M0,0 L2,1 Z " fill="#444411" transform="translate(80,91)"/>
<path d="M0,0 L2,1 Z " fill="#222200" transform="translate(48,91)"/>
<path d="M0,0 Z " fill="#221100" transform="translate(47,89)"/>
<path d="M0,0 L2,1 Z " fill="#333300" transform="translate(82,89)"/>
<path d="M0,0 L2,1 Z " fill="#110000" transform="translate(45,89)"/>
<path d="M0,0 Z " fill="#221111" transform="translate(87,87)"/>
<path d="M0,0 L2,1 Z " fill="#664411" transform="translate(67,88)"/>
<path d="M0,0 Z " fill="#886633" transform="translate(63,87)"/>
<path d="M0,0 Z " fill="#554411" transform="translate(50,87)"/>
<path d="M0,0 L2,1 Z " fill="#332211" transform="translate(40,88)"/>
<path d="M0,0 L2,1 Z " fill="#333333" transform="translate(88,87)"/>
<path d="M0,0 L2,1 Z " fill="#222222" transform="translate(88,86)"/>
<path d="M0,0 L2,1 Z " fill="#111100" transform="translate(85,86)"/>
<path d="M0,0 L2,1 Z " fill="#776633" transform="translate(64,86)"/>
<path d="M0,0 L2,1 Z " fill="#222200" transform="translate(40,86)"/>
<path d="M0,0 L2,1 Z " fill="#001100" transform="translate(31,86)"/>
<path d="M0,0 Z " fill="#332200" transform="translate(44,84)"/>
<path d="M0,0 Z " fill="#332222" transform="translate(25,84)"/>
<path d="M0,0 L2,1 Z " fill="#554422" transform="translate(85,83)"/>
<path d="M0,0 L2,1 Z " fill="#444411" transform="translate(82,83)"/>
<path d="M0,0 L2,1 Z " fill="#554422" transform="translate(48,83)"/>
<path d="M0,0 Z " fill="#443311" transform="translate(60,81)"/>
<path d="M0,0 Z " fill="#332222" transform="translate(28,81)"/>
<path d="M0,0 L2,1 Z " fill="#332200" transform="translate(77,81)"/>
<path d="M0,0 L2,1 Z " fill="#221100" transform="translate(75,81)"/>
<path d="M0,0 L2,1 Z " fill="#775522" transform="translate(77,80)"/>
<path d="M0,0 Z " fill="#110000" transform="translate(36,79)"/>
<path d="M0,0 Z " fill="#221111" transform="translate(31,79)"/>
<path d="M0,0 Z " fill="#775522" transform="translate(79,78)"/>
<path d="M0,0 Z " fill="#887733" transform="translate(50,77)"/>
<path d="M0,0 L2,1 Z " fill="#111100" transform="translate(32,78)"/>
<path d="M0,0 Z " fill="#665522" transform="translate(63,76)"/>
<path d="M0,0 Z " fill="#776622" transform="translate(60,76)"/>
<path d="M0,0 Z " fill="#665522" transform="translate(55,76)"/>
<path d="M0,0 Z " fill="#222200" transform="translate(39,76)"/>
<path d="M0,0 Z " fill="#111100" transform="translate(34,76)"/>
<path d="M0,0 L2,1 Z " fill="#665533" transform="translate(61,75)"/>
<path d="M0,0 L2,1 Z " fill="#665522" transform="translate(56,75)"/>
<path d="M0,0 L2,1 Z " fill="#222211" transform="translate(32,75)"/>
<path d="M0,0 Z " fill="#110000" transform="translate(89,73)"/>
<path d="M0,0 Z " fill="#333300" transform="translate(80,73)"/>
<path d="M0,0 Z " fill="#222200" transform="translate(79,73)"/>
<path d="M0,0 Z " fill="#332200" transform="translate(63,73)"/>
<path d="M0,0 Z " fill="#443311" transform="translate(58,73)"/>
<path d="M0,0 Z " fill="#332211" transform="translate(35,73)"/>
<path d="M0,0 Z " fill="#221111" transform="translate(31,73)"/>
<path d="M0,0 L2,1 Z " fill="#222211" transform="translate(88,72)"/>
<path d="M0,0 Z " fill="#665533" transform="translate(86,71)"/>
<path d="M0,0 L2,1 Z " fill="#443311" transform="translate(80,72)"/>
<path d="M0,0 Z " fill="#333311" transform="translate(79,71)"/>
<path d="M0,0 L2,1 Z " fill="#554422" transform="translate(45,72)"/>
<path d="M0,0 L2,1 Z " fill="#111100" transform="translate(29,72)"/>
<path d="M0,0 Z " fill="#554411" transform="translate(81,70)"/>
<path d="M0,0 L2,1 Z " fill="#886622" transform="translate(72,71)"/>
<path d="M0,0 Z " fill="#776633" transform="translate(69,70)"/>
<path d="M0,0 Z " fill="#665522" transform="translate(68,70)"/>
<path d="M0,0 Z " fill="#222200" transform="translate(31,70)"/>
<path d="M0,0 Z " fill="#332222" transform="translate(28,70)"/>
<path d="M0,0 L2,1 Z " fill="#110000" transform="translate(29,70)"/>
<path d="M0,0 Z " fill="#887733" transform="translate(71,68)"/>
<path d="M0,0 Z " fill="#887744" transform="translate(76,67)"/>
<path d="M0,0 Z " fill="#444411" transform="translate(44,67)"/>
<path d="M0,0 L2,1 Z " fill="#221111" transform="translate(80,67)"/>
<path d="M0,0 Z " fill="#221111" transform="translate(92,65)"/>
<path d="M0,0 Z " fill="#665522" transform="translate(76,65)"/>
<path d="M0,0 Z " fill="#776633" transform="translate(74,65)"/>
<path d="M0,0 Z " fill="#221100" transform="translate(63,65)"/>
<path d="M0,0 L2,1 Z " fill="#222211" transform="translate(48,64)"/>
<path d="M0,0 L2,1 Z " fill="#332211" transform="translate(34,64)"/>
<path d="M0,0 L2,1 Z " fill="#222200" transform="translate(26,64)"/>
<path d="M0,0 L2,1 Z " fill="#111111" transform="translate(24,64)"/>
<path d="M0,0 L2,1 Z " fill="#223311" transform="translate(84,63)"/>
<path d="M0,0 Z " fill="#554422" transform="translate(68,62)"/>
<path d="M0,0 L2,1 Z " fill="#554422" transform="translate(43,61)"/>
<path d="M0,0 L2,1 Z " fill="#332200" transform="translate(40,61)"/>
<path d="M0,0 L2,1 Z " fill="#221100" transform="translate(29,61)"/>
<path d="M0,0 Z " fill="#332200" transform="translate(26,60)"/>
<path d="M0,0 L2,1 Z " fill="#665522" transform="translate(69,59)"/>
<path d="M0,0 Z " fill="#111100" transform="translate(74,57)"/>
<path d="M0,0 Z " fill="#222211" transform="translate(68,57)"/>
<path d="M0,0 Z " fill="#222211" transform="translate(47,57)"/>
<path d="M0,0 L2,1 Z " fill="#222211" transform="translate(93,56)"/>
<path d="M0,0 L2,1 Z " fill="#222211" transform="translate(69,56)"/>
<path d="M0,0 L2,1 Z " fill="#332211" transform="translate(45,56)"/>
<path d="M0,0 L2,1 Z " fill="#222200" transform="translate(35,56)"/>
<path d="M0,0 L2,1 Z " fill="#110000" transform="translate(63,55)"/>
<path d="M0,0 L2,1 Z " fill="#222211" transform="translate(74,53)"/>
<path d="M0,0 L2,1 Z " fill="#222211" transform="translate(24,53)"/>
<path d="M0,0 Z " fill="#332211" transform="translate(76,51)"/>
<path d="M0,0 Z " fill="#665522" transform="translate(71,51)"/>
<path d="M0,0 Z " fill="#554422" transform="translate(69,51)"/>
<path d="M0,0 L2,1 Z " fill="#111100" transform="translate(93,51)"/>
<path d="M0,0 L2,1 Z " fill="#665522" transform="translate(74,50)"/>
<path d="M0,0 Z " fill="#332200" transform="translate(68,49)"/>
<path d="M0,0 L2,1 Z " fill="#554422" transform="translate(45,50)"/>
<path d="M0,0 L2,1 Z " fill="#332211" transform="translate(42,50)"/>
<path d="M0,0 L2,1 Z " fill="#111100" transform="translate(29,50)"/>
<path d="M0,0 L2,1 Z " fill="#776622" transform="translate(45,49)"/>
<path d="M0,0 L2,1 Z " fill="#112200" transform="translate(53,48)"/>
<path d="M0,0 L2,1 Z " fill="#222200" transform="translate(37,48)"/>
<path d="M0,0 Z " fill="#775522" transform="translate(79,46)"/>
<path d="M0,0 Z " fill="#776633" transform="translate(76,46)"/>
<path d="M0,0 Z " fill="#776622" transform="translate(74,46)"/>
<path d="M0,0 Z " fill="#887733" transform="translate(73,46)"/>
<path d="M0,0 Z " fill="#887744" transform="translate(72,46)"/>
<path d="M0,0 Z " fill="#554411" transform="translate(68,46)"/>
<path d="M0,0 Z " fill="#554422" transform="translate(52,46)"/>
<path d="M0,0 L2,1 Z " fill="#664422" transform="translate(50,47)"/>
<path d="M0,0 L2,1 Z " fill="#775522" transform="translate(69,46)"/>
<path d="M0,0 L2,1 Z " fill="#886633" transform="translate(74,45)"/>
<path d="M0,0 Z " fill="#443322" transform="translate(89,43)"/>
<path d="M0,0 Z " fill="#776633" transform="translate(52,43)"/>
<path d="M0,0 Z " fill="#333322" transform="translate(32,43)"/>
<path d="M0,0 Z " fill="#775533" transform="translate(87,41)"/>
<path d="M0,0 Z " fill="#886633" transform="translate(63,41)"/>
<path d="M0,0 L2,1 Z " fill="#223311" transform="translate(29,42)"/>
<path d="M0,0 Z " fill="#997733" transform="translate(57,39)"/>
<path d="M0,0 Z " fill="#221100" transform="translate(41,39)"/>
<path d="M0,0 L2,1 Z " fill="#665522" transform="translate(85,37)"/>
<path d="M0,0 L2,1 Z " fill="#112200" transform="translate(40,37)"/>
<path d="M0,0 L2,1 Z " fill="#334422" transform="translate(34,37)"/>
<path d="M0,0 L2,1 Z " fill="#222211" transform="translate(27,37)"/>
<path d="M0,0 Z " fill="#222200" transform="translate(90,35)"/>
<path d="M0,0 Z " fill="#886633" transform="translate(79,35)"/>
<path d="M0,0 Z " fill="#555533" transform="translate(36,35)"/>
<path d="M0,0 Z " fill="#334422" transform="translate(33,35)"/>
<path d="M0,0 Z " fill="#997733" transform="translate(55,34)"/>
<path d="M0,0 L2,1 Z " fill="#886633" transform="translate(72,34)"/>
<path d="M0,0 L2,1 Z " fill="#886633" transform="translate(51,34)"/>
<path d="M0,0 L2,1 Z " fill="#554411" transform="translate(45,34)"/>
<path d="M0,0 L2,1 Z " fill="#445533" transform="translate(37,34)"/>
<path d="M0,0 L2,1 Z " fill="#555533" transform="translate(32,34)"/>
<path d="M0,0 Z " fill="#332211" transform="translate(76,32)"/>
<path d="M0,0 Z " fill="#886633" transform="translate(60,32)"/>
<path d="M0,0 Z " fill="#775533" transform="translate(52,32)"/>
<path d="M0,0 Z " fill="#664422" transform="translate(51,32)"/>
<path d="M0,0 L2,1 Z " fill="#887744" transform="translate(58,32)"/>
<path d="M0,0 Z " fill="#443311" transform="translate(47,30)"/>
<path d="M0,0 Z " fill="#666633" transform="translate(34,30)"/>
<path d="M0,0 L2,1 Z " fill="#444422" transform="translate(32,31)"/>
<path d="M0,0 L2,1 Z " fill="#334422" transform="translate(82,29)"/>
<path d="M0,0 L2,1 Z " fill="#223311" transform="translate(80,29)"/>
<path d="M0,0 L2,1 Z " fill="#555522" transform="translate(34,29)"/>
<path d="M0,0 L2,1 Z " fill="#222211" transform="translate(29,29)"/>
<path d="M0,0 Z " fill="#222211" transform="translate(92,27)"/>
<path d="M0,0 Z " fill="#555533" transform="translate(87,27)"/>
<path d="M0,0 Z " fill="#666644" transform="translate(82,27)"/>
<path d="M0,0 Z " fill="#333311" transform="translate(79,27)"/>
<path d="M0,0 Z " fill="#112200" transform="translate(58,27)"/>
<path d="M0,0 Z " fill="#223311" transform="translate(41,27)"/>
<path d="M0,0 Z " fill="#223311" transform="translate(31,27)"/>
<path d="M0,0 L2,1 Z " fill="#444422" transform="translate(85,26)"/>
<path d="M0,0 L2,1 Z " fill="#555533" transform="translate(77,26)"/>
<path d="M0,0 L2,1 Z " fill="#333311" transform="translate(75,26)"/>
<path d="M0,0 L2,1 Z " fill="#222211" transform="translate(27,26)"/>
<path d="M0,0 Z " fill="#666644" transform="translate(77,24)"/>
<path d="M0,0 Z " fill="#223311" transform="translate(68,24)"/>
<path d="M0,0 L2,1 Z " fill="#333322" transform="translate(85,24)"/>
<path d="M0,0 L2,1 Z " fill="#332222" transform="translate(93,23)"/>
<path d="M0,0 Z " fill="#222200" transform="translate(87,22)"/>
<path d="M0,0 L2,1 Z " fill="#666644" transform="translate(75,23)"/>
<path d="M0,0 Z " fill="#222200" transform="translate(47,22)"/>
<path d="M0,0 L2,1 Z " fill="#333322" transform="translate(53,22)"/>
<path d="M0,0 L2,1 Z " fill="#222211" transform="translate(85,21)"/>
<path d="M0,0 L2,1 Z " fill="#665533" transform="translate(77,21)"/>
<path d="M0,0 L2,1 Z " fill="#111111" transform="translate(29,21)"/>
<path d="M0,0 Z " fill="#222211" transform="translate(90,19)"/>
<path d="M0,0 Z " fill="#666633" transform="translate(76,19)"/>
<path d="M0,0 Z " fill="#334411" transform="translate(64,19)"/>
<path d="M0,0 Z " fill="#111111" transform="translate(31,19)"/>
<path d="M0,0 L2,1 Z " fill="#223311" transform="translate(45,19)"/>
<path d="M0,0 L2,1 Z " fill="#333311" transform="translate(77,18)"/>
<path d="M0,0 L2,1 Z " fill="#555522" transform="translate(72,18)"/>
<path d="M0,0 L2,1 Z " fill="#111111" transform="translate(32,18)"/>
<path d="M0,0 Z " fill="#555522" transform="translate(71,16)"/>
<path d="M0,0 Z " fill="#555533" transform="translate(55,16)"/>
<path d="M0,0 L2,1 Z " fill="#444422" transform="translate(72,16)"/>
<path d="M0,0 L2,1 Z " fill="#332222" transform="translate(82,15)"/>
<path d="M0,0 L2,1 Z " fill="#333322" transform="translate(69,15)"/>
<path d="M0,0 L2,1 Z " fill="#223311" transform="translate(69,14)"/>
<path d="M0,0 L2,1 Z " fill="#223311" transform="translate(61,13)"/>
<path d="M0,0 Z " fill="#111111" transform="translate(47,11)"/>
<path d="M0,0 Z " fill="#001100" transform="translate(104,119)"/>
<path d="M0,0 Z " fill="#111100" transform="translate(77,119)"/>
<path d="M0,0 Z " fill="#444422" transform="translate(76,119)"/>
<path d="M0,0 Z " fill="#221100" transform="translate(58,119)"/>
<path d="M0,0 Z " fill="#555533" transform="translate(55,119)"/>
<path d="M0,0 Z " fill="#111100" transform="translate(52,119)"/>
<path d="M0,0 Z " fill="#110000" transform="translate(16,119)"/>
<path d="M0,0 Z " fill="#000000" transform="translate(0,119)"/>
<path d="M0,0 Z " fill="#110000" transform="translate(96,118)"/>
<path d="M0,0 Z " fill="#222211" transform="translate(78,118)"/>
<path d="M0,0 Z " fill="#333311" transform="translate(77,118)"/>
<path d="M0,0 Z " fill="#110000" transform="translate(60,118)"/>
<path d="M0,0 Z " fill="#666633" transform="translate(54,117)"/>
<path d="M0,0 Z " fill="#222200" transform="translate(73,116)"/>
<path d="M0,0 Z " fill="#111100" transform="translate(60,116)"/>
<path d="M0,0 Z " fill="#222211" transform="translate(58,116)"/>
<path d="M0,0 Z " fill="#222211" transform="translate(52,116)"/>
<path d="M0,0 Z " fill="#222211" transform="translate(71,115)"/>
<path d="M0,0 Z " fill="#333322" transform="translate(59,115)"/>
<path d="M0,0 Z " fill="#333311" transform="translate(52,115)"/>
<path d="M0,0 Z " fill="#001100" transform="translate(14,115)"/>
<path d="M0,0 Z " fill="#112200" transform="translate(78,114)"/>
<path d="M0,0 Z " fill="#555533" transform="translate(76,114)"/>
<path d="M0,0 Z " fill="#666644" transform="translate(75,114)"/>
<path d="M0,0 Z " fill="#110000" transform="translate(63,114)"/>
<path d="M0,0 Z " fill="#332211" transform="translate(60,114)"/>
<path d="M0,0 Z " fill="#001100" transform="translate(26,114)"/>
<path d="M0,0 Z " fill="#444422" transform="translate(76,113)"/>
<path d="M0,0 Z " fill="#334422" transform="translate(72,113)"/>
<path d="M0,0 Z " fill="#333311" transform="translate(60,113)"/>
<path d="M0,0 Z " fill="#444422" transform="translate(53,113)"/>
<path d="M0,0 Z " fill="#222211" transform="translate(52,113)"/>
<path d="M0,0 Z " fill="#110000" transform="translate(116,112)"/>
<path d="M0,0 Z " fill="#001100" transform="translate(113,112)"/>
<path d="M0,0 Z " fill="#332211" transform="translate(81,110)"/>
<path d="M0,0 Z " fill="#222211" transform="translate(79,110)"/>
<path d="M0,0 Z " fill="#110000" transform="translate(65,110)"/>
<path d="M0,0 Z " fill="#221100" transform="translate(59,110)"/>
<path d="M0,0 Z " fill="#222211" transform="translate(58,110)"/>
<path d="M0,0 Z " fill="#222211" transform="translate(52,110)"/>
<path d="M0,0 Z " fill="#001100" transform="translate(12,110)"/>
<path d="M0,0 Z " fill="#000000" transform="translate(75,109)"/>
<path d="M0,0 Z " fill="#443322" transform="translate(51,109)"/>
<path d="M0,0 Z " fill="#001100" transform="translate(11,109)"/>
<path d="M0,0 Z " fill="#110000" transform="translate(82,108)"/>
<path d="M0,0 Z " fill="#443322" transform="translate(81,108)"/>
<path d="M0,0 Z " fill="#110000" transform="translate(68,108)"/>
<path d="M0,0 Z " fill="#110000" transform="translate(63,108)"/>
<path d="M0,0 Z " fill="#444422" transform="translate(79,107)"/>
<path d="M0,0 Z " fill="#556633" transform="translate(77,107)"/>
<path d="M0,0 Z " fill="#001100" transform="translate(74,107)"/>
<path d="M0,0 Z " fill="#666633" transform="translate(54,107)"/>
<path d="M0,0 Z " fill="#666633" transform="translate(50,107)"/>
<path d="M0,0 Z " fill="#110000" transform="translate(28,107)"/>
<path d="M0,0 Z " fill="#445533" transform="translate(79,106)"/>
<path d="M0,0 Z " fill="#666644" transform="translate(78,106)"/>
<path d="M0,0 Z " fill="#887755" transform="translate(51,106)"/>
<path d="M0,0 Z " fill="#221111" transform="translate(115,105)"/>
<path d="M0,0 Z " fill="#111100" transform="translate(114,105)"/>
<path d="M0,0 Z " fill="#222211" transform="translate(75,105)"/>
<path d="M0,0 Z " fill="#001100" transform="translate(73,105)"/>
<path d="M0,0 Z " fill="#222211" transform="translate(57,105)"/>
<path d="M0,0 Z " fill="#444422" transform="translate(55,105)"/>
<path d="M0,0 Z " fill="#333311" transform="translate(47,105)"/>
<path d="M0,0 Z " fill="#001100" transform="translate(25,105)"/>
<path d="M0,0 Z " fill="#555544" transform="translate(74,104)"/>
<path d="M0,0 Z " fill="#777755" transform="translate(48,104)"/>
<path d="M0,0 Z " fill="#333333" transform="translate(115,103)"/>
<path d="M0,0 Z " fill="#666644" transform="translate(74,103)"/>
<path d="M0,0 Z " fill="#666644" transform="translate(57,103)"/>
<path d="M0,0 Z " fill="#443311" transform="translate(46,103)"/>
<path d="M0,0 Z " fill="#001100" transform="translate(23,103)"/>
<path d="M0,0 Z " fill="#444422" transform="translate(79,102)"/>
<path d="M0,0 Z " fill="#555533" transform="translate(74,102)"/>
<path d="M0,0 Z " fill="#110000" transform="translate(66,102)"/>
<path d="M0,0 Z " fill="#222211" transform="translate(58,102)"/>
<path d="M0,0 Z " fill="#555522" transform="translate(57,102)"/>
<path d="M0,0 Z " fill="#666633" transform="translate(55,102)"/>
<path d="M0,0 Z " fill="#666633" transform="translate(47,102)"/>
<path d="M0,0 Z " fill="#221111" transform="translate(44,102)"/>
<path d="M0,0 Z " fill="#110000" transform="translate(41,102)"/>
<path d="M0,0 Z " fill="#110000" transform="translate(23,102)"/>
<path d="M0,0 Z " fill="#333333" transform="translate(115,101)"/>
<path d="M0,0 Z " fill="#222200" transform="translate(60,101)"/>
<path d="M0,0 Z " fill="#333322" transform="translate(58,101)"/>
<path d="M0,0 Z " fill="#332222" transform="translate(114,100)"/>
<path d="M0,0 Z " fill="#110000" transform="translate(111,100)"/>
<path d="M0,0 Z " fill="#110000" transform="translate(92,100)"/>
<path d="M0,0 Z " fill="#333322" transform="translate(76,100)"/>
<path d="M0,0 Z " fill="#333322" transform="translate(74,100)"/>
<path d="M0,0 Z " fill="#111100" transform="translate(60,100)"/>
<path d="M0,0 Z " fill="#222211" transform="translate(55,99)"/>
<path d="M0,0 Z " fill="#554422" transform="translate(50,99)"/>
<path d="M0,0 Z " fill="#333322" transform="translate(44,99)"/>
<path d="M0,0 Z " fill="#110000" transform="translate(7,99)"/>
<path d="M0,0 Z " fill="#221111" transform="translate(81,98)"/>
<path d="M0,0 Z " fill="#333322" transform="translate(54,98)"/>
<path d="M0,0 Z " fill="#334422" transform="translate(50,98)"/>
<path d="M0,0 Z " fill="#222200" transform="translate(43,98)"/>
<path d="M0,0 Z " fill="#112200" transform="translate(42,98)"/>
<path d="M0,0 Z " fill="#001100" transform="translate(39,98)"/>
<path d="M0,0 Z " fill="#111100" transform="translate(11,98)"/>
<path d="M0,0 Z " fill="#222211" transform="translate(111,97)"/>
<path d="M0,0 Z " fill="#111111" transform="translate(106,97)"/>
<path d="M0,0 Z " fill="#110000" transform="translate(105,97)"/>
<path d="M0,0 Z " fill="#110000" transform="translate(100,97)"/>
<path d="M0,0 Z " fill="#111111" transform="translate(80,97)"/>
<path d="M0,0 Z " fill="#221100" transform="translate(55,97)"/>
<path d="M0,0 Z " fill="#333311" transform="translate(50,97)"/>
<path d="M0,0 Z " fill="#666633" transform="translate(49,97)"/>
<path d="M0,0 Z " fill="#776644" transform="translate(45,97)"/>
<path d="M0,0 Z " fill="#444422" transform="translate(44,97)"/>
<path d="M0,0 Z " fill="#110000" transform="translate(99,96)"/>
<path d="M0,0 Z " fill="#110000" transform="translate(89,96)"/>
<path d="M0,0 Z " fill="#443311" transform="translate(49,96)"/>
<path d="M0,0 Z " fill="#665533" transform="translate(44,96)"/>
<path d="M0,0 Z " fill="#778855" transform="translate(42,96)"/>
<path d="M0,0 Z " fill="#222222" transform="translate(2,96)"/>
<path d="M0,0 Z " fill="#110000" transform="translate(88,95)"/>
<path d="M0,0 Z " fill="#443322" transform="translate(49,95)"/>
<path d="M0,0 Z " fill="#666644" transform="translate(44,95)"/>
<path d="M0,0 Z " fill="#888866" transform="translate(42,95)"/>
<path d="M0,0 Z " fill="#332222" transform="translate(2,95)"/>
<path d="M0,0 Z " fill="#111111" transform="translate(100,94)"/>
<path d="M0,0 Z " fill="#111100" transform="translate(81,94)"/>
<path d="M0,0 Z " fill="#222211" transform="translate(79,94)"/>
<path d="M0,0 Z " fill="#554422" transform="translate(76,94)"/>
<path d="M0,0 Z " fill="#554422" transform="translate(63,94)"/>
<path d="M0,0 Z " fill="#333311" transform="translate(55,94)"/>
<path d="M0,0 Z " fill="#222200" transform="translate(50,94)"/>
<path d="M0,0 Z " fill="#332211" transform="translate(47,94)"/>
<path d="M0,0 Z " fill="#333311" transform="translate(45,94)"/>
<path d="M0,0 Z " fill="#555533" transform="translate(44,94)"/>
<path d="M0,0 Z " fill="#111111" transform="translate(7,94)"/>
<path d="M0,0 Z " fill="#222211" transform="translate(3,94)"/>
<path d="M0,0 Z " fill="#887744" transform="translate(75,93)"/>
<path d="M0,0 Z " fill="#887744" transform="translate(73,93)"/>
<path d="M0,0 Z " fill="#887744" transform="translate(64,93)"/>
<path d="M0,0 Z " fill="#664422" transform="translate(60,93)"/>
<path d="M0,0 Z " fill="#444433" transform="translate(43,93)"/>
<path d="M0,0 Z " fill="#222222" transform="translate(100,92)"/>
<path d="M0,0 Z " fill="#110000" transform="translate(99,92)"/>
<path d="M0,0 Z " fill="#443311" transform="translate(80,92)"/>
<path d="M0,0 Z " fill="#775522" transform="translate(77,92)"/>
<path d="M0,0 Z " fill="#997733" transform="translate(71,92)"/>
<path d="M0,0 Z " fill="#332211" transform="translate(50,92)"/>
<path d="M0,0 Z " fill="#333311" transform="translate(41,92)"/>
<path d="M0,0 Z " fill="#223311" transform="translate(40,92)"/>
<path d="M0,0 Z " fill="#110000" transform="translate(20,92)"/>
<path d="M0,0 Z " fill="#111100" transform="translate(8,92)"/>
<path d="M0,0 Z " fill="#332222" transform="translate(99,91)"/>
<path d="M0,0 Z " fill="#221100" transform="translate(83,91)"/>
<path d="M0,0 Z " fill="#222200" transform="translate(82,91)"/>
<path d="M0,0 Z " fill="#554411" transform="translate(80,91)"/>
<path d="M0,0 Z " fill="#665522" transform="translate(79,91)"/>
<path d="M0,0 Z " fill="#887733" transform="translate(63,91)"/>
<path d="M0,0 Z " fill="#776633" transform="translate(58,91)"/>
<path d="M0,0 Z " fill="#333311" transform="translate(50,91)"/>
<path d="M0,0 Z " fill="#222200" transform="translate(44,91)"/>
<path d="M0,0 Z " fill="#334422" transform="translate(40,91)"/>
<path d="M0,0 Z " fill="#222211" transform="translate(12,91)"/>
<path d="M0,0 Z " fill="#332222" transform="translate(8,91)"/>
<path d="M0,0 Z " fill="#554422" transform="translate(81,90)"/>
<path d="M0,0 Z " fill="#221100" transform="translate(43,90)"/>
<path d="M0,0 Z " fill="#333322" transform="translate(39,90)"/>
<path d="M0,0 Z " fill="#110000" transform="translate(21,90)"/>
<path d="M0,0 Z " fill="#222211" transform="translate(92,89)"/>
<path d="M0,0 Z " fill="#443311" transform="translate(82,89)"/>
<path d="M0,0 Z " fill="#776622" transform="translate(79,89)"/>
<path d="M0,0 Z " fill="#222200" transform="translate(47,89)"/>
<path d="M0,0 Z " fill="#333322" transform="translate(41,89)"/>
<path d="M0,0 Z " fill="#444422" transform="translate(40,89)"/>
<path d="M0,0 Z " fill="#110000" transform="translate(34,89)"/>
<path d="M0,0 Z " fill="#221111" transform="translate(13,89)"/>
<path d="M0,0 Z " fill="#664422" transform="translate(83,88)"/>
<path d="M0,0 Z " fill="#665522" transform="translate(76,88)"/>
<path d="M0,0 Z " fill="#776633" transform="translate(55,88)"/>
<path d="M0,0 Z " fill="#665511" transform="translate(53,88)"/>
<path d="M0,0 Z " fill="#664422" transform="translate(51,88)"/>
<path d="M0,0 Z " fill="#110000" transform="translate(42,88)"/>
<path d="M0,0 Z " fill="#333311" transform="translate(40,88)"/>
<path d="M0,0 Z " fill="#001100" transform="translate(33,88)"/>
<path d="M0,0 Z " fill="#001100" transform="translate(27,88)"/>
<path d="M0,0 Z " fill="#222222" transform="translate(20,88)"/>
<path d="M0,0 Z " fill="#222211" transform="translate(87,87)"/>
<path d="M0,0 Z " fill="#664411" transform="translate(76,87)"/>
<path d="M0,0 Z " fill="#776633" transform="translate(63,87)"/>
<path d="M0,0 Z " fill="#554422" transform="translate(50,87)"/>
<path d="M0,0 Z " fill="#332211" transform="translate(40,87)"/>
<path d="M0,0 Z " fill="#110000" transform="translate(27,87)"/>
<path d="M0,0 Z " fill="#332222" transform="translate(20,87)"/>
<path d="M0,0 Z " fill="#333333" transform="translate(19,87)"/>
<path d="M0,0 Z " fill="#221111" transform="translate(87,86)"/>
<path d="M0,0 Z " fill="#775522" transform="translate(66,86)"/>
<path d="M0,0 Z " fill="#886633" transform="translate(63,86)"/>
<path d="M0,0 Z " fill="#221100" transform="translate(44,86)"/>
<path d="M0,0 Z " fill="#222211" transform="translate(40,86)"/>
<path d="M0,0 Z " fill="#221100" transform="translate(38,86)"/>
<path d="M0,0 Z " fill="#222200" transform="translate(37,86)"/>
<path d="M0,0 Z " fill="#110000" transform="translate(36,86)"/>
<path d="M0,0 Z " fill="#110000" transform="translate(28,86)"/>
<path d="M0,0 Z " fill="#111111" transform="translate(21,86)"/>
<path d="M0,0 Z " fill="#887733" transform="translate(81,85)"/>
<path d="M0,0 Z " fill="#997744" transform="translate(62,85)"/>
<path d="M0,0 Z " fill="#997733" transform="translate(61,85)"/>
<path d="M0,0 Z " fill="#887744" transform="translate(51,85)"/>
<path d="M0,0 Z " fill="#776633" transform="translate(50,85)"/>
<path d="M0,0 Z " fill="#110000" transform="translate(29,85)"/>
<path d="M0,0 Z " fill="#333333" transform="translate(24,84)"/>
<path d="M0,0 Z " fill="#222211" transform="translate(87,83)"/>
<path d="M0,0 Z " fill="#554411" transform="translate(82,83)"/>
<path d="M0,0 Z " fill="#776633" transform="translate(80,83)"/>
<path d="M0,0 Z " fill="#665522" transform="translate(79,83)"/>
<path d="M0,0 Z " fill="#553311" transform="translate(78,83)"/>
<path d="M0,0 Z " fill="#664422" transform="translate(60,83)"/>
<path d="M0,0 Z " fill="#332211" transform="translate(42,83)"/>
<path d="M0,0 Z " fill="#111111" transform="translate(28,83)"/>
<path d="M0,0 Z " fill="#554411" transform="translate(84,82)"/>
<path d="M0,0 Z " fill="#333333" transform="translate(27,82)"/>
<path d="M0,0 Z " fill="#444411" transform="translate(84,81)"/>
<path d="M0,0 Z " fill="#554422" transform="translate(79,81)"/>
<path d="M0,0 Z " fill="#221100" transform="translate(61,81)"/>
<path d="M0,0 Z " fill="#111100" transform="translate(29,81)"/>
<path d="M0,0 Z " fill="#776622" transform="translate(77,80)"/>
<path d="M0,0 Z " fill="#665533" transform="translate(65,80)"/>
<path d="M0,0 Z " fill="#776633" transform="translate(60,80)"/>
<path d="M0,0 Z " fill="#997733" transform="translate(67,79)"/>
<path d="M0,0 Z " fill="#887744" transform="translate(56,79)"/>
<path d="M0,0 Z " fill="#222211" transform="translate(31,79)"/>
<path d="M0,0 Z " fill="#333333" transform="translate(30,79)"/>
<path d="M0,0 Z " fill="#554422" transform="translate(81,78)"/>
<path d="M0,0 Z " fill="#776622" transform="translate(57,78)"/>
<path d="M0,0 Z " fill="#776622" transform="translate(53,78)"/>
<path d="M0,0 Z " fill="#332222" transform="translate(31,78)"/>
<path d="M0,0 Z " fill="#443300" transform="translate(82,76)"/>
<path d="M0,0 Z " fill="#333333" transform="translate(32,76)"/>
<path d="M0,0 Z " fill="#554422" transform="translate(84,75)"/>
<path d="M0,0 Z " fill="#444411" transform="translate(77,75)"/>
<path d="M0,0 Z " fill="#333311" transform="translate(68,75)"/>
<path d="M0,0 Z " fill="#443311" transform="translate(63,75)"/>
<path d="M0,0 Z " fill="#664422" transform="translate(60,75)"/>
<path d="M0,0 Z " fill="#775522" transform="translate(56,75)"/>
<path d="M0,0 Z " fill="#776633" transform="translate(55,75)"/>
<path d="M0,0 Z " fill="#221100" transform="translate(34,75)"/>
<path d="M0,0 Z " fill="#222222" transform="translate(32,75)"/>
<path d="M0,0 Z " fill="#332222" transform="translate(31,75)"/>
<path d="M0,0 Z " fill="#222211" transform="translate(73,74)"/>
<path d="M0,0 Z " fill="#222200" transform="translate(37,74)"/>
<path d="M0,0 Z " fill="#221100" transform="translate(68,73)"/>
<path d="M0,0 Z " fill="#332211" transform="translate(63,73)"/>
<path d="M0,0 Z " fill="#553311" transform="translate(58,73)"/>
<path d="M0,0 Z " fill="#332200" transform="translate(39,73)"/>
<path d="M0,0 Z " fill="#110000" transform="translate(33,73)"/>
<path d="M0,0 Z " fill="#222222" transform="translate(92,72)"/>
<path d="M0,0 Z " fill="#111111" transform="translate(91,72)"/>
<path d="M0,0 Z " fill="#111100" transform="translate(90,72)"/>
<path d="M0,0 Z " fill="#332211" transform="translate(88,72)"/>
<path d="M0,0 Z " fill="#443322" transform="translate(87,72)"/>
<path d="M0,0 Z " fill="#444411" transform="translate(80,72)"/>
<path d="M0,0 Z " fill="#554422" transform="translate(76,72)"/>
<path d="M0,0 Z " fill="#554411" transform="translate(68,72)"/>
<path d="M0,0 Z " fill="#554422" transform="translate(60,72)"/>
<path d="M0,0 Z " fill="#886633" transform="translate(57,72)"/>
<path d="M0,0 Z " fill="#664422" transform="translate(47,72)"/>
<path d="M0,0 Z " fill="#222200" transform="translate(38,72)"/>
<path d="M0,0 Z " fill="#222211" transform="translate(31,72)"/>
<path d="M0,0 Z " fill="#221111" transform="translate(29,72)"/>
<path d="M0,0 Z " fill="#775522" transform="translate(76,71)"/>
<path d="M0,0 Z " fill="#554422" transform="translate(66,71)"/>
<path d="M0,0 Z " fill="#997744" transform="translate(59,71)"/>
<path d="M0,0 Z " fill="#553311" transform="translate(44,71)"/>
<path d="M0,0 Z " fill="#333333" transform="translate(27,71)"/>
<path d="M0,0 Z " fill="#554422" transform="translate(82,70)"/>
<path d="M0,0 Z " fill="#776633" transform="translate(76,70)"/>
<path d="M0,0 Z " fill="#776633" transform="translate(71,70)"/>
<path d="M0,0 Z " fill="#887733" transform="translate(59,70)"/>
<path d="M0,0 Z " fill="#222222" transform="translate(28,70)"/>
<path d="M0,0 Z " fill="#444422" transform="translate(80,69)"/>
<path d="M0,0 Z " fill="#664422" transform="translate(68,69)"/>
<path d="M0,0 Z " fill="#444411" transform="translate(63,69)"/>
<path d="M0,0 Z " fill="#664422" transform="translate(56,69)"/>
<path d="M0,0 Z " fill="#333311" transform="translate(37,69)"/>
<path d="M0,0 Z " fill="#332200" transform="translate(30,69)"/>
<path d="M0,0 Z " fill="#222211" transform="translate(29,69)"/>
<path d="M0,0 Z " fill="#443322" transform="translate(80,68)"/>
<path d="M0,0 Z " fill="#998844" transform="translate(75,68)"/>
<path d="M0,0 Z " fill="#664422" transform="translate(61,68)"/>
<path d="M0,0 Z " fill="#554411" transform="translate(56,68)"/>
<path d="M0,0 Z " fill="#887733" transform="translate(48,68)"/>
<path d="M0,0 Z " fill="#000000" transform="translate(35,68)"/>
<path d="M0,0 Z " fill="#110000" transform="translate(28,68)"/>
<path d="M0,0 Z " fill="#222200" transform="translate(88,67)"/>
<path d="M0,0 Z " fill="#222211" transform="translate(80,67)"/>
<path d="M0,0 Z " fill="#111100" transform="translate(79,67)"/>
<path d="M0,0 Z " fill="#886633" transform="translate(76,67)"/>
<path d="M0,0 Z " fill="#887744" transform="translate(75,67)"/>
<path d="M0,0 Z " fill="#665522" transform="translate(68,67)"/>
<path d="M0,0 Z " fill="#333311" transform="translate(62,67)"/>
<path d="M0,0 Z " fill="#553311" transform="translate(55,67)"/>
<path d="M0,0 Z " fill="#444422" transform="translate(53,67)"/>
<path d="M0,0 Z " fill="#554411" transform="translate(44,67)"/>
<path d="M0,0 Z " fill="#111100" transform="translate(28,67)"/>
<path d="M0,0 Z " fill="#776633" transform="translate(67,66)"/>
<path d="M0,0 Z " fill="#221111" transform="translate(50,66)"/>
<path d="M0,0 Z " fill="#554411" transform="translate(42,66)"/>
<path d="M0,0 Z " fill="#664422" transform="translate(76,65)"/>
<path d="M0,0 Z " fill="#665522" transform="translate(66,65)"/>
<path d="M0,0 Z " fill="#221100" transform="translate(50,65)"/>
<path d="M0,0 Z " fill="#776633" transform="translate(49,65)"/>
<path d="M0,0 Z " fill="#222200" transform="translate(36,65)"/>
<path d="M0,0 Z " fill="#333311" transform="translate(30,65)"/>
<path d="M0,0 Z " fill="#110000" transform="translate(26,65)"/>
<path d="M0,0 Z " fill="#664422" transform="translate(68,64)"/>
<path d="M0,0 Z " fill="#221100" transform="translate(65,64)"/>
<path d="M0,0 Z " fill="#554422" transform="translate(47,64)"/>
<path d="M0,0 Z " fill="#554411" transform="translate(41,64)"/>
<path d="M0,0 Z " fill="#333311" transform="translate(36,64)"/>
<path d="M0,0 Z " fill="#332222" transform="translate(23,64)"/>
<path d="M0,0 Z " fill="#554422" transform="translate(74,63)"/>
<path d="M0,0 Z " fill="#665522" transform="translate(73,63)"/>
<path d="M0,0 Z " fill="#443311" transform="translate(67,63)"/>
<path d="M0,0 Z " fill="#110000" transform="translate(63,63)"/>
<path d="M0,0 Z " fill="#665533" transform="translate(43,63)"/>
<path d="M0,0 Z " fill="#110000" transform="translate(25,63)"/>
<path d="M0,0 Z " fill="#112211" transform="translate(80,62)"/>
<path d="M0,0 Z " fill="#332211" transform="translate(76,62)"/>
<path d="M0,0 Z " fill="#775533" transform="translate(69,62)"/>
<path d="M0,0 Z " fill="#444422" transform="translate(68,62)"/>
<path d="M0,0 Z " fill="#222211" transform="translate(66,62)"/>
<path d="M0,0 Z " fill="#332211" transform="translate(47,62)"/>
<path d="M0,0 Z " fill="#332211" transform="translate(74,61)"/>
<path d="M0,0 Z " fill="#887744" transform="translate(73,61)"/>
<path d="M0,0 Z " fill="#333311" transform="translate(68,61)"/>
<path d="M0,0 Z " fill="#112200" transform="translate(55,61)"/>
<path d="M0,0 Z " fill="#554411" transform="translate(43,61)"/>
<path d="M0,0 Z " fill="#444411" transform="translate(42,61)"/>
<path d="M0,0 Z " fill="#222200" transform="translate(40,61)"/>
<path d="M0,0 Z " fill="#332211" transform="translate(39,61)"/>
<path d="M0,0 Z " fill="#222200" transform="translate(77,60)"/>
<path d="M0,0 Z " fill="#887733" transform="translate(71,60)"/>
<path d="M0,0 Z " fill="#775533" transform="translate(46,60)"/>
<path d="M0,0 Z " fill="#222200" transform="translate(39,60)"/>
<path d="M0,0 Z " fill="#333311" transform="translate(38,60)"/>
<path d="M0,0 Z " fill="#112211" transform="translate(87,59)"/>
<path d="M0,0 Z " fill="#001100" transform="translate(83,59)"/>
<path d="M0,0 Z " fill="#221100" transform="translate(77,59)"/>
<path d="M0,0 Z " fill="#221111" transform="translate(74,59)"/>
<path d="M0,0 Z " fill="#776633" transform="translate(71,59)"/>
<path d="M0,0 Z " fill="#112200" transform="translate(63,59)"/>
<path d="M0,0 Z " fill="#665522" transform="translate(45,59)"/>
<path d="M0,0 Z " fill="#221100" transform="translate(39,59)"/>
<path d="M0,0 Z " fill="#333311" transform="translate(36,59)"/>
<path d="M0,0 Z " fill="#221100" transform="translate(33,59)"/>
<path d="M0,0 Z " fill="#112200" transform="translate(51,58)"/>
<path d="M0,0 Z " fill="#332211" transform="translate(33,58)"/>
<path d="M0,0 Z " fill="#221100" transform="translate(29,58)"/>
<path d="M0,0 Z " fill="#221111" transform="translate(78,57)"/>
<path d="M0,0 Z " fill="#664422" transform="translate(73,57)"/>
<path d="M0,0 Z " fill="#554422" transform="translate(71,57)"/>
<path d="M0,0 Z " fill="#332200" transform="translate(33,57)"/>
<path d="M0,0 Z " fill="#332222" transform="translate(95,56)"/>
<path d="M0,0 Z " fill="#110000" transform="translate(74,56)"/>
<path d="M0,0 Z " fill="#111100" transform="translate(68,56)"/>
<path d="M0,0 Z " fill="#222211" transform="translate(34,56)"/>
<path d="M0,0 Z " fill="#222211" transform="translate(26,56)"/>
<path d="M0,0 Z " fill="#110000" transform="translate(90,55)"/>
<path d="M0,0 Z " fill="#110000" transform="translate(77,55)"/>
<path d="M0,0 Z " fill="#222200" transform="translate(44,55)"/>
<path d="M0,0 Z " fill="#221100" transform="translate(26,55)"/>
<path d="M0,0 Z " fill="#110000" transform="translate(78,54)"/>
<path d="M0,0 Z " fill="#110000" transform="translate(51,54)"/>
<path d="M0,0 Z " fill="#111100" transform="translate(46,54)"/>
<path d="M0,0 Z " fill="#111100" transform="translate(76,53)"/>
<path d="M0,0 Z " fill="#111100" transform="translate(68,53)"/>
<path d="M0,0 Z " fill="#222222" transform="translate(24,53)"/>
<path d="M0,0 Z " fill="#222211" transform="translate(95,51)"/>
<path d="M0,0 Z " fill="#443311" transform="translate(76,50)"/>
<path d="M0,0 Z " fill="#887733" transform="translate(72,50)"/>
<path d="M0,0 Z " fill="#776633" transform="translate(71,50)"/>
<path d="M0,0 Z " fill="#222211" transform="translate(47,50)"/>
<path d="M0,0 Z " fill="#443311" transform="translate(44,50)"/>
<path d="M0,0 Z " fill="#222211" transform="translate(42,50)"/>
<path d="M0,0 Z " fill="#776633" transform="translate(74,49)"/>
<path d="M0,0 Z " fill="#666622" transform="translate(45,49)"/>
<path d="M0,0 Z " fill="#221100" transform="translate(41,49)"/>
<path d="M0,0 Z " fill="#111111" transform="translate(92,48)"/>
<path d="M0,0 Z " fill="#222200" transform="translate(89,48)"/>
<path d="M0,0 Z " fill="#332211" transform="translate(85,48)"/>
<path d="M0,0 Z " fill="#222211" transform="translate(79,48)"/>
<path d="M0,0 Z " fill="#554422" transform="translate(76,48)"/>
<path d="M0,0 Z " fill="#554411" transform="translate(70,48)"/>
<path d="M0,0 Z " fill="#333311" transform="translate(68,48)"/>
<path d="M0,0 Z " fill="#112200" transform="translate(61,48)"/>
<path d="M0,0 Z " fill="#443311" transform="translate(47,48)"/>
<path d="M0,0 Z " fill="#112200" transform="translate(36,48)"/>
<path d="M0,0 Z " fill="#112200" transform="translate(34,48)"/>
<path d="M0,0 Z " fill="#112211" transform="translate(29,48)"/>
<path d="M0,0 Z " fill="#776633" transform="translate(88,46)"/>
<path d="M0,0 Z " fill="#775522" transform="translate(87,46)"/>
<path d="M0,0 Z " fill="#554422" transform="translate(68,46)"/>
<path d="M0,0 Z " fill="#334411" transform="translate(53,46)"/>
<path d="M0,0 Z " fill="#112200" transform="translate(41,46)"/>
<path d="M0,0 Z " fill="#222222" transform="translate(25,46)"/>
<path d="M0,0 Z " fill="#554422" transform="translate(89,45)"/>
<path d="M0,0 Z " fill="#887733" transform="translate(84,45)"/>
<path d="M0,0 Z " fill="#997744" transform="translate(83,45)"/>
<path d="M0,0 Z " fill="#997733" transform="translate(78,45)"/>
<path d="M0,0 Z " fill="#887744" transform="translate(73,45)"/>
<path d="M0,0 Z " fill="#776633" transform="translate(68,45)"/>
<path d="M0,0 Z " fill="#222200" transform="translate(39,45)"/>
<path d="M0,0 Z " fill="#222211" transform="translate(31,45)"/>
<path d="M0,0 Z " fill="#222222" transform="translate(23,45)"/>
<path d="M0,0 Z " fill="#997744" transform="translate(84,43)"/>
<path d="M0,0 Z " fill="#223311" transform="translate(36,43)"/>
<path d="M0,0 Z " fill="#333322" transform="translate(35,43)"/>
<path d="M0,0 Z " fill="#112200" transform="translate(30,43)"/>
<path d="M0,0 Z " fill="#111111" transform="translate(94,42)"/>
<path d="M0,0 Z " fill="#997744" transform="translate(86,42)"/>
<path d="M0,0 Z " fill="#998844" transform="translate(85,42)"/>
<path d="M0,0 Z " fill="#887744" transform="translate(51,42)"/>
<path d="M0,0 Z " fill="#222200" transform="translate(39,42)"/>
<path d="M0,0 Z " fill="#776633" transform="translate(87,41)"/>
<path d="M0,0 Z " fill="#AA8855" transform="translate(86,41)"/>
<path d="M0,0 Z " fill="#887744" transform="translate(86,40)"/>
<path d="M0,0 Z " fill="#997744" transform="translate(85,40)"/>
<path d="M0,0 Z " fill="#776622" transform="translate(86,39)"/>
<path d="M0,0 Z " fill="#333322" transform="translate(38,39)"/>
<path d="M0,0 Z " fill="#332211" transform="translate(89,37)"/>
<path d="M0,0 Z " fill="#444411" transform="translate(87,37)"/>
<path d="M0,0 Z " fill="#886633" transform="translate(84,37)"/>
<path d="M0,0 Z " fill="#997733" transform="translate(79,37)"/>
<path d="M0,0 Z " fill="#443311" transform="translate(44,37)"/>
<path d="M0,0 Z " fill="#332211" transform="translate(42,37)"/>
<path d="M0,0 Z " fill="#222211" transform="translate(39,37)"/>
<path d="M0,0 Z " fill="#333322" transform="translate(36,37)"/>
<path d="M0,0 Z " fill="#112200" transform="translate(26,37)"/>
<path d="M0,0 Z " fill="#112200" transform="translate(42,36)"/>
<path d="M0,0 Z " fill="#222211" transform="translate(91,35)"/>
<path d="M0,0 Z " fill="#112200" transform="translate(90,35)"/>
<path d="M0,0 Z " fill="#444411" transform="translate(85,35)"/>
<path d="M0,0 Z " fill="#223311" transform="translate(41,35)"/>
<path d="M0,0 Z " fill="#222211" transform="translate(86,34)"/>
<path d="M0,0 Z " fill="#332200" transform="translate(85,34)"/>
<path d="M0,0 Z " fill="#444422" transform="translate(77,34)"/>
<path d="M0,0 Z " fill="#664422" transform="translate(76,34)"/>
<path d="M0,0 Z " fill="#775522" transform="translate(74,34)"/>
<path d="M0,0 Z " fill="#887733" transform="translate(60,34)"/>
<path d="M0,0 Z " fill="#776633" transform="translate(51,34)"/>
<path d="M0,0 Z " fill="#775533" transform="translate(50,34)"/>
<path d="M0,0 Z " fill="#664422" transform="translate(47,34)"/>
<path d="M0,0 Z " fill="#333322" transform="translate(39,34)"/>
<path d="M0,0 Z " fill="#555533" transform="translate(37,34)"/>
<path d="M0,0 Z " fill="#444422" transform="translate(31,34)"/>
<path d="M0,0 Z " fill="#554411" transform="translate(74,33)"/>
<path d="M0,0 Z " fill="#775522" transform="translate(72,33)"/>
<path d="M0,0 Z " fill="#775522" transform="translate(48,33)"/>
<path d="M0,0 Z " fill="#222222" transform="translate(95,32)"/>
<path d="M0,0 Z " fill="#110000" transform="translate(92,32)"/>
<path d="M0,0 Z " fill="#112200" transform="translate(85,32)"/>
<path d="M0,0 Z " fill="#112200" transform="translate(77,32)"/>
<path d="M0,0 Z " fill="#776633" transform="translate(60,32)"/>
<path d="M0,0 Z " fill="#886633" transform="translate(55,32)"/>
<path d="M0,0 Z " fill="#775522" transform="translate(52,32)"/>
<path d="M0,0 Z " fill="#222200" transform="translate(28,32)"/>
<path d="M0,0 Z " fill="#222211" transform="translate(97,31)"/>
<path d="M0,0 Z " fill="#333311" transform="translate(89,31)"/>
<path d="M0,0 Z " fill="#332200" transform="translate(71,31)"/>
<path d="M0,0 Z " fill="#554411" transform="translate(60,31)"/>
<path d="M0,0 Z " fill="#554422" transform="translate(52,31)"/>
<path d="M0,0 Z " fill="#222211" transform="translate(44,31)"/>
<path d="M0,0 Z " fill="#334422" transform="translate(32,31)"/>
<path d="M0,0 Z " fill="#333322" transform="translate(31,31)"/>
<path d="M0,0 Z " fill="#221100" transform="translate(46,30)"/>
<path d="M0,0 Z " fill="#333322" transform="translate(33,30)"/>
<path d="M0,0 Z " fill="#222200" transform="translate(90,29)"/>
<path d="M0,0 Z " fill="#444422" transform="translate(84,29)"/>
<path d="M0,0 Z " fill="#333322" transform="translate(82,29)"/>
<path d="M0,0 Z " fill="#333311" transform="translate(60,29)"/>
<path d="M0,0 Z " fill="#444411" transform="translate(48,29)"/>
<path d="M0,0 Z " fill="#332211" transform="translate(47,29)"/>
<path d="M0,0 Z " fill="#222200" transform="translate(44,29)"/>
<path d="M0,0 Z " fill="#334422" transform="translate(39,29)"/>
<path d="M0,0 Z " fill="#444422" transform="translate(34,29)"/>
<path d="M0,0 Z " fill="#221111" transform="translate(24,29)"/>
<path d="M0,0 Z " fill="#222200" transform="translate(47,28)"/>
<path d="M0,0 Z " fill="#222211" transform="translate(31,27)"/>
<path d="M0,0 Z " fill="#112200" transform="translate(92,26)"/>
<path d="M0,0 Z " fill="#666644" transform="translate(84,26)"/>
<path d="M0,0 Z " fill="#555533" transform="translate(79,26)"/>
<path d="M0,0 Z " fill="#445522" transform="translate(77,26)"/>
<path d="M0,0 Z " fill="#223311" transform="translate(75,26)"/>
<path d="M0,0 Z " fill="#222211" transform="translate(74,26)"/>
<path d="M0,0 Z " fill="#112200" transform="translate(40,26)"/>
<path d="M0,0 Z " fill="#222211" transform="translate(39,26)"/>
<path d="M0,0 Z " fill="#112200" transform="translate(33,26)"/>
<path d="M0,0 Z " fill="#222222" transform="translate(27,26)"/>
<path d="M0,0 Z " fill="#332222" transform="translate(26,26)"/>
<path d="M0,0 Z " fill="#223311" transform="translate(63,25)"/>
<path d="M0,0 Z " fill="#112200" transform="translate(51,25)"/>
<path d="M0,0 Z " fill="#112200" transform="translate(39,25)"/>
<path d="M0,0 Z " fill="#222211" transform="translate(97,24)"/>
<path d="M0,0 Z " fill="#110000" transform="translate(95,24)"/>
<path d="M0,0 Z " fill="#665533" transform="translate(84,24)"/>
<path d="M0,0 Z " fill="#666644" transform="translate(83,24)"/>
<path d="M0,0 Z " fill="#776644" transform="translate(82,24)"/>
<path d="M0,0 Z " fill="#333322" transform="translate(74,24)"/>
<path d="M0,0 Z " fill="#222200" transform="translate(69,24)"/>
<path d="M0,0 Z " fill="#222200" transform="translate(62,24)"/>
<path d="M0,0 Z " fill="#332222" transform="translate(95,23)"/>
<path d="M0,0 Z " fill="#222211" transform="translate(93,23)"/>
<path d="M0,0 Z " fill="#555522" transform="translate(82,23)"/>
<path d="M0,0 Z " fill="#555533" transform="translate(74,23)"/>
<path d="M0,0 Z " fill="#333333" transform="translate(94,22)"/>
<path d="M0,0 Z " fill="#111100" transform="translate(92,22)"/>
<path d="M0,0 Z " fill="#334422" transform="translate(84,22)"/>
<path d="M0,0 Z " fill="#445522" transform="translate(82,22)"/>
<path d="M0,0 Z " fill="#222211" transform="translate(92,21)"/>
<path d="M0,0 Z " fill="#111100" transform="translate(87,21)"/>
<path d="M0,0 Z " fill="#333322" transform="translate(82,21)"/>
<path d="M0,0 Z " fill="#776644" transform="translate(76,21)"/>
<path d="M0,0 Z " fill="#334422" transform="translate(65,21)"/>
<path d="M0,0 Z " fill="#112200" transform="translate(44,21)"/>
<path d="M0,0 Z " fill="#110000" transform="translate(31,21)"/>
<path d="M0,0 Z " fill="#221111" transform="translate(84,20)"/>
<path d="M0,0 Z " fill="#334422" transform="translate(80,20)"/>
<path d="M0,0 Z " fill="#666644" transform="translate(70,20)"/>
<path d="M0,0 Z " fill="#222211" transform="translate(54,20)"/>
<path d="M0,0 Z " fill="#222211" transform="translate(49,20)"/>
<path d="M0,0 Z " fill="#333333" transform="translate(91,19)"/>
<path d="M0,0 Z " fill="#222222" transform="translate(90,19)"/>
<path d="M0,0 Z " fill="#333322" transform="translate(79,19)"/>
<path d="M0,0 Z " fill="#110000" transform="translate(34,19)"/>
<path d="M0,0 Z " fill="#221111" transform="translate(85,18)"/>
<path d="M0,0 Z " fill="#666644" transform="translate(70,18)"/>
<path d="M0,0 Z " fill="#776633" transform="translate(68,18)"/>
<path d="M0,0 Z " fill="#555533" transform="translate(65,18)"/>
<path d="M0,0 Z " fill="#444422" transform="translate(55,18)"/>
<path d="M0,0 Z " fill="#223311" transform="translate(54,18)"/>
<path d="M0,0 Z " fill="#221111" transform="translate(32,18)"/>
<path d="M0,0 Z " fill="#333333" transform="translate(86,17)"/>
<path d="M0,0 Z " fill="#222200" transform="translate(79,17)"/>
<path d="M0,0 Z " fill="#223311" transform="translate(47,17)"/>
<path d="M0,0 Z " fill="#001100" transform="translate(41,17)"/>
<path d="M0,0 Z " fill="#111111" transform="translate(84,16)"/>
<path d="M0,0 Z " fill="#110000" transform="translate(83,16)"/>
<path d="M0,0 Z " fill="#221111" transform="translate(79,16)"/>
<path d="M0,0 Z " fill="#111111" transform="translate(42,16)"/>
<path d="M0,0 Z " fill="#111100" transform="translate(34,16)"/>
<path d="M0,0 Z " fill="#222211" transform="translate(82,15)"/>
<path d="M0,0 Z " fill="#111100" transform="translate(74,15)"/>
<path d="M0,0 Z " fill="#111100" transform="translate(39,15)"/>
<path d="M0,0 Z " fill="#333333" transform="translate(83,14)"/>
<path d="M0,0 Z " fill="#111100" transform="translate(74,13)"/>
<path d="M0,0 Z " fill="#110000" transform="translate(45,13)"/>
<path d="M0,0 Z " fill="#222211" transform="translate(39,13)"/>
<path d="M0,0 Z " fill="#333333" transform="translate(75,11)"/>
<path d="M0,0 Z " fill="#110000" transform="translate(73,11)"/>
<path d="M0,0 Z " fill="#222211" transform="translate(47,11)"/>
<path d="M0,0 Z " fill="#222211" transform="translate(73,10)"/>
<path d="M0,0 Z " fill="#111111" transform="translate(72,10)"/>
<path d="M0,0 Z " fill="#222211" transform="translate(70,10)"/>
<path d="M0,0 Z " fill="#332222" transform="translate(47,10)"/>
</svg>
