<?xml version="1.0" encoding="UTF-8"?>
<!-- Generator: visioncortex VTracer 0.6.5 -->
<svg version="1.1" xmlns="http://www.w3.org/2000/svg" width="119" height="120">
<path d="M0,0 L119,0 L119,120 L0,120 Z " fill="#3D382F" transform="translate(0,0)"/>
<path d="M0,0 L3,2 L8,3 L9,13 L16,14 L16,17 L34,17 L35,13 L37,13 L37,9 L39,9 L39,13 L41,13 L41,15 L48,16 L48,18 L52,18 L56,22 L57,32 L59,32 L59,38 L61,38 L61,47 L63,47 L63,55 L77,55 L77,64 L74,64 L74,78 L-30,78 L-30,64 L-33,64 L-33,55 L-26,55 L-26,41 L-25,32 L-23,32 L-23,26 L-21,26 L-20,22 L-19,20 L-17,20 L-17,18 L-10,15 L-4,15 L-4,13 L-2,13 L-1,9 L1,9 Z " fill="#15170F" transform="translate(38,42)"/>
<path d="M0,0 L3,2 L8,3 L9,13 L16,14 L16,17 L18,18 L17,20 L20,20 L19,24 L17,24 L17,26 L20,26 L19,36 L17,39 L18,42 L20,43 L20,47 L17,47 L17,45 L11,44 L13,48 L17,49 L17,51 L20,51 L19,55 L5,56 L75,57 L75,62 L-19,62 L-19,57 L-8,56 L-7,53 L-13,52 L-14,53 L-19,53 L-19,51 L-14,48 L-13,47 L-8,47 L-9,38 L-8,31 L-6,28 L-8,28 L-8,26 L-10,26 L-10,22 L-15,22 L-14,19 L-17,18 L-10,15 L-4,15 L-4,13 L-2,13 L-1,9 L1,9 Z " fill="#181C12" transform="translate(38,42)"/>
<path d="M0,0 L19,0 L29,4 L34,9 L36,8 L36,28 L33,35 L24,37 L22,35 L22,29 L18,29 L17,36 L7,36 L7,35 L14,35 L14,33 L16,33 L16,29 L14,29 L14,31 L9,32 L6,30 L5,34 L4,29 L-4,29 L-4,27 L-8,28 L-9,34 L-10,34 L-10,23 L-12,23 L-12,12 L-9,8 L-6,8 L-4,4 L-2,4 L-2,2 L0,2 Z " fill="#1E2018" transform="translate(46,7)"/>
<path d="M0,0 L43,0 L44,1 L44,11 L43,12 L0,12 Z " fill="#10110B" transform="translate(43,108)"/>
<path d="M0,0 L94,0 L94,5 L0,5 Z " fill="#322112" transform="translate(19,99)"/>
<path d="M0,0 L14,0 L14,2 L20,2 L21,6 L24,6 L24,8 L26,8 L26,10 L24,11 L13,10 L13,8 L8,8 L3,6 L3,4 L5,4 L5,2 L0,2 Z M0,10 L11,10 L18,11 L24,13 L24,16 L26,16 L26,21 L18,22 L15,25 L13,24 L13,21 L-2,21 L-2,11 Z " fill="#876F3F" transform="translate(51,9)"/>
<path d="M0,0 L1,0 L1,9 L3,9 L2,13 L0,19 L-9,21 L-11,19 L-11,13 L-15,13 L-16,20 L-26,20 L-26,19 L-19,19 L-19,17 L-17,17 L-17,13 L-19,13 L-19,15 L-24,16 L-27,14 L-28,18 L-29,13 L-37,13 L-37,11 L-41,12 L-42,18 L-43,18 L-43,7 L-41,7 L-41,9 L-35,9 L-30,11 L-30,9 L-16,9 L-16,11 L-10,11 L-10,9 L0,9 Z " fill="#13150E" transform="translate(79,23)"/>
<path d="M0,0 L2,4 L4,4 L4,1 L8,1 L8,4 L21,4 L21,6 L26,6 L26,7 L6,7 L6,17 L21,17 L21,20 L23,21 L20,21 L20,19 L6,19 L6,21 L-5,19 L-5,17 L-7,17 L-7,7 L-4,6 L-4,4 Z " fill="#1C2016" transform="translate(43,13)"/>
<path d="M0,0 L3,0 L4,8 L13,8 L13,11 L24,13 L24,15 L13,15 L13,17 L24,17 L24,19 L15,19 L15,21 L21,21 L20,24 L9,24 L7,23 L7,20 L2,19 L0,15 L0,6 L-3,6 L-2,2 L0,3 Z " fill="#624B28" transform="translate(47,36)"/>
<path d="M0,0 L2,0 L2,4 L0,4 L0,6 L3,7 L4,0 L8,0 L10,7 L13,10 L13,17 L15,17 L15,19 L13,20 L12,23 L7,24 L8,21 L2,21 L2,19 L11,19 L11,17 L0,17 L0,15 L11,15 L11,13 L2,12 L0,11 L0,8 L-9,8 L-8,1 L0,2 Z " fill="#413620" transform="translate(60,36)"/>
<path d="M0,0 L14,0 L14,2 L20,2 L21,6 L24,6 L24,8 L26,8 L26,10 L24,11 L13,10 L13,8 L8,8 L3,6 L3,4 L5,4 L5,2 L0,2 Z M0,10 L11,10 L18,11 L24,13 L24,14 L16,14 L15,13 L-2,12 Z " fill="#424831" transform="translate(51,9)"/>
<path d="M0,0 L15,0 L15,12 L0,12 Z " fill="#442C18" transform="translate(93,108)"/>
<path d="M0,0 L12,0 L12,12 L0,12 Z " fill="#402A17" transform="translate(25,108)"/>
<path d="M0,0 L15,0 L15,2 L4,2 L4,4 L15,4 L15,6 L6,6 L6,8 L12,8 L12,10 L2,10 L2,8 L0,8 Z " fill="#7B6337" transform="translate(56,49)"/>
<path d="M0,0 L4,0 L4,2 L9,2 L9,5 L7,5 L6,8 L9,8 L11,21 L9,21 L8,19 L8,11 L3,11 L1,9 L-1,11 L-1,1 Z " fill="#42321C" transform="translate(38,34)"/>
<path d="M0,0 L1,2 L4,2 L4,4 L6,4 L6,6 L4,7 L-7,6 L-7,4 L-4,2 L0,2 Z M-20,6 L-9,6 L-2,7 L4,9 L4,10 L-4,10 L-5,9 L-22,8 Z " fill="#494128" transform="translate(71,13)"/>
<path d="M0,0 L2,0 L2,2 L8,2 L13,4 L13,2 L25,3 L25,4 L16,4 L16,6 L24,6 L24,8 L19,9 L16,7 L15,11 L14,6 L6,6 L6,4 L2,5 L1,11 L0,11 Z " fill="#16160F" transform="translate(36,30)"/>
<path d="M0,0 L15,0 L15,12 L6,12 L6,10 L13,10 L12,3 L2,3 L2,12 L0,12 Z " fill="#352213" transform="translate(93,108)"/>
<path d="M0,0 L5,0 L6,5 L4,10 L6,10 L6,13 L2,13 L2,11 L-2,11 L-3,3 L0,2 Z " fill="#2B3225" transform="translate(39,17)"/>
<path d="M0,0 L18,0 L18,14 L16,14 L16,2 L1,2 L1,14 L0,14 Z " fill="#1E160C" transform="translate(92,106)"/>
<path d="M0,0 L4,1 L2,1 L1,5 L-3,5 L-5,9 L-7,9 L-7,11 L-9,12 L-10,22 L-12,22 L-12,11 L-9,7 L-6,7 L-4,3 L-2,3 L-2,1 Z " fill="#14160F" transform="translate(46,8)"/>
<path d="M0,0 L7,0 L7,8 L-2,10 L-4,7 L-2,7 L-1,4 L3,4 L3,2 L0,2 Z " fill="#1A1E15" transform="translate(72,34)"/>
<path d="M0,0 L3,0 L3,5 L5,5 L6,9 L9,9 L9,11 L6,12 L4,10 L4,16 L0,12 L-1,3 Z " fill="#12140C" transform="translate(41,46)"/>
<path d="M0,0 L2,1 L2,9 L1,7 L-3,9 L-8,4 L-7,3 L-13,2 L-13,1 Z M-5,8 Z " fill="#19190F" transform="translate(69,59)"/>
<path d="M0,0 L5,1 L12,3 L11,7 L8,7 L8,9 L3,8 L3,5 L1,5 Z " fill="#53593C" transform="translate(46,59)"/>
<path d="M0,0 L2,0 L2,9 L17,9 L17,12 L19,13 L16,13 L16,11 L2,11 L2,13 L0,13 L-1,2 Z " fill="#423A23" transform="translate(47,21)"/>
<path d="M0,0 L15,0 L16,3 L16,13 L13,13 L12,2 L1,1 L1,13 L0,13 Z " fill="#25190E" transform="translate(24,107)"/>
<path d="M0,0 L1,2 L4,2 L3,12 L-1,10 L-1,8 L-4,8 L-5,4 L-3,4 L-3,2 L0,2 Z " fill="#262A1D" transform="translate(54,66)"/>
<path d="M0,0 L2,0 L2,5 L-6,6 L-9,9 L-11,8 L-11,5 L-23,5 L-22,3 L-11,3 L0,4 Z " fill="#655632" transform="translate(75,25)"/>
<path d="M0,0 L4,0 L6,10 L2,11 L2,9 L-2,9 Z " fill="#5F4A28" transform="translate(64,36)"/>
<path d="M0,0 L7,1 L7,3 L5,3 L5,5 L10,6 L10,7 L2,7 L2,4 L-2,4 L-2,7 L-4,7 L-5,3 L-2,3 L-2,1 Z " fill="#242C21" transform="translate(49,10)"/>
<path d="M0,0 L3,0 L4,6 L1,6 L1,10 L3,10 L3,17 L1,18 L0,15 L0,6 L-3,6 L-2,2 L0,3 Z " fill="#5B4424" transform="translate(47,36)"/>
<path d="M0,0 L7,0 L7,6 L-4,6 L-4,5 L2,4 L-12,3 L-12,2 L0,2 Z " fill="#7E6639" transform="translate(68,23)"/>
<path d="M0,0 L2,0 L2,2 L9,2 L7,3 L5,13 L4,11 L2,11 L2,3 L0,3 Z " fill="#7F6639" transform="translate(49,42)"/>
<path d="M0,0 L5,0 L6,5 L4,8 L0,8 L-1,2 Z " fill="#39402C" transform="translate(39,17)"/>
<path d="M0,0 L4,2 L6,2 L7,0 L10,1 L10,4 L12,5 L10,7 L2,4 L1,7 Z " fill="#262215" transform="translate(44,55)"/>
<path d="M0,0 L15,0 L15,2 L4,2 L4,4 L2,4 L2,8 L0,8 Z " fill="#745D33" transform="translate(56,49)"/>
<path d="M0,0 L2,0 L2,9 L-8,9 L-8,11 L-10,10 L-8,7 L0,7 L0,2 L-2,1 Z " fill="#383826" transform="translate(77,23)"/>
<path d="M0,0 L10,1 L10,2 L1,2 L1,4 L9,4 L9,6 L4,7 L1,5 L0,9 L0,3 L-2,2 Z " fill="#0E0F0A" transform="translate(51,32)"/>
<path d="M0,0 L13,0 L13,4 L7,4 L7,2 L0,2 Z " fill="#686D4A" transform="translate(58,11)"/>
<path d="M0,0 L4,1 L2,8 L7,8 L7,10 L0,12 Z " fill="#372313" transform="translate(25,108)"/>
<path d="M0,0 L4,0 L4,2 L8,2 L8,4 L11,3 L13,1 L12,6 L4,5 L2,4 L2,1 Z " fill="#362C18" transform="translate(58,43)"/>
<path d="M0,0 L1,2 L6,2 L6,5 L4,5 L3,9 L1,9 L1,7 L-1,7 Z " fill="#322A18" transform="translate(41,34)"/>
<path d="M0,0 L14,0 L14,2 L7,2 L7,4 L5,4 L5,2 L0,2 Z " fill="#515639" transform="translate(51,9)"/>
<path d="M0,0 L2,0 L2,3 L7,4 L7,5 L-2,5 L-3,9 L-3,3 Z " fill="#5A4324" transform="translate(58,44)"/>
<path d="M0,0 L3,0 L3,6 L-1,6 L-1,4 L-3,4 L-3,9 L-4,9 L-4,3 L0,2 Z " fill="#171C16" transform="translate(66,70)"/>
<path d="M0,0 L8,1 L5,7 L0,8 L0,6 L2,6 L3,2 L0,2 Z " fill="#11130C" transform="translate(55,60)"/>
<path d="M0,0 L1,2 L4,2 L4,4 L6,4 L6,6 L0,6 L0,4 L-2,4 L-2,2 L0,2 Z " fill="#464E36" transform="translate(71,13)"/>
<path d="M0,0 L2,0 L3,3 L1,9 L-1,9 Z " fill="#1A2119" transform="translate(63,74)"/>
<path d="M0,0 L1,4 L3,5 L-1,9 L-2,7 L-4,7 L-4,5 L0,5 Z " fill="#10110B" transform="translate(81,61)"/>
<path d="M0,0 L4,2 L3,6 L-1,5 Z " fill="#192019" transform="translate(61,64)"/>
<path d="M0,0 L1,0 L1,7 L0,5 L-3,5 L-4,1 Z " fill="#424832" transform="translate(70,61)"/>
<path d="M0,0 L9,0 L9,3 L0,2 Z " fill="#614827" transform="translate(62,55)"/>
<path d="M0,0 L3,0 L3,9 L1,9 Z " fill="#796036" transform="translate(72,44)"/>
<path d="M0,0 L2,0 L2,9 L0,9 L0,2 L-2,1 Z " fill="#352B19" transform="translate(77,23)"/>
<path d="M0,0 Z M-7,1 L0,1 L6,3 L6,4 L-2,4 L-7,2 Z " fill="#3C341E" transform="translate(69,19)"/>
<path d="M0,0 L4,0 L8,4 L7,8 L6,6 L4,6 L3,1 Z M2,3 Z " fill="#1F2018" transform="translate(86,60)"/>
<path d="M0,0 L2,0 L2,5 L-4,5 L-2,4 L-2,2 L0,2 Z " fill="#383F2C" transform="translate(75,36)"/>
<path d="M0,0 L5,0 L6,5 L0,2 Z " fill="#2D3527" transform="translate(39,17)"/>
<path d="M0,0 L4,0 L4,6 L0,2 Z " fill="#595F40" transform="translate(52,72)"/>
<path d="M0,0 L2,4 L2,9 L1,7 L-1,7 Z " fill="#282213" transform="translate(41,34)"/>
<path d="M0,0 L2,0 L2,4 L-6,4 L-5,2 L0,2 Z " fill="#282F22" transform="translate(60,36)"/>
<path d="M0,0 L7,1 L7,3 L-1,3 Z " fill="#323A29" transform="translate(49,10)"/>
<path d="M0,0 L3,0 L3,6 L1,6 Z " fill="#3C422E" transform="translate(66,70)"/>
<path d="M0,0 L6,0 L5,3 L0,2 Z " fill="#10110B" transform="translate(36,66)"/>
<path d="M0,0 L3,0 L3,4 L-2,4 L0,3 Z " fill="#4D391F" transform="translate(47,36)"/>
<path d="M0,0 L4,3 L4,5 L1,5 Z " fill="#12150E" transform="translate(47,65)"/>
<path d="M0,0 L4,4 L2,4 L1,7 Z " fill="#2C3123" transform="translate(44,55)"/>
<path d="M0,0 L2,0 L2,3 L-6,2 L-6,1 Z " fill="#3D321D" transform="translate(77,42)"/>
<path d="M0,0 L1,4 L-4,5 Z " fill="#332716" transform="translate(70,44)"/>
<path d="M0,0 L4,0 L3,3 L0,3 Z " fill="#495036" transform="translate(40,21)"/>
<path d="M0,0 L3,0 L1,4 Z " fill="#12150D" transform="translate(36,70)"/>
<path d="M0,0 L2,2 L0,3 L-2,1 Z " fill="#1C1C13" transform="translate(69,59)"/>
</svg>
