<?xml version="1.0" encoding="UTF-8"?>
<!-- Generator: visioncortex VTracer 0.6.5 -->
<svg version="1.1" xmlns="http://www.w3.org/2000/svg" width="120" height="120">
<path d="M0,0 L120,0 L120,120 L0,120 Z " fill="#0F0A0F" transform="translate(0,0)"/>
<path d="M0,0 L120,0 L120,89 L110,88 L110,86 L103,86 L103,84 L98,84 L92,82 L92,80 L88,79 L87,75 L85,75 L85,66 L87,62 L89,62 L89,49 L91,49 L91,39 L94,38 L96,34 L99,33 L99,24 L96,19 L93,16 L90,15 L90,13 L86,13 L86,11 L77,10 L77,8 L72,8 L72,6 L42,6 L42,8 L35,11 L30,11 L30,13 L26,13 L26,15 L21,18 L18,21 L18,29 L19,33 L21,33 L25,37 L25,40 L22,40 L23,60 L25,60 L27,66 L30,66 L30,69 L27,69 L27,71 L21,73 L17,73 L17,75 L12,75 L12,77 L8,77 L8,79 L3,80 L3,82 L1,82 L0,84 Z " fill="#310015" transform="translate(0,0)"/>
<path d="M0,0 L7,0 L9,5 L7,5 L7,8 L11,9 L15,0 L19,0 L24,5 L25,0 L32,0 L32,2 L34,2 L35,5 L39,0 L41,8 L41,14 L40,16 L34,16 L34,18 L32,18 L32,21 L30,21 L29,16 L27,16 L29,22 L29,27 L26,26 L25,31 L20,32 L21,25 L15,25 L16,27 L18,27 L18,30 L16,30 L16,32 L13,32 L13,26 L11,26 L11,32 L9,32 L9,23 L7,22 L6,27 L4,32 L2,32 L2,25 L4,25 L6,19 L9,18 L9,14 L6,14 L5,18 L4,20 L2,20 L2,23 L0,23 L-1,18 L-5,17 L-5,13 L-8,13 L-8,11 L-10,11 L-9,3 L-7,3 L-7,7 L-5,7 L-4,10 L-3,10 L-4,5 Z " fill="#141219" transform="translate(46,46)"/>
<path d="M0,0 L6,1 L6,5 L4,5 L3,7 L0,5 L0,8 L5,9 L8,6 L10,6 L10,4 L7,4 L7,1 L13,1 L13,6 L18,5 L20,6 L20,12 L18,15 L16,15 L14,19 L1,18 L-2,17 L-4,14 L-4,10 L-6,10 L-5,6 L-1,4 Z M-7,10 Z " fill="#1A1419" transform="translate(55,81)"/>
<path d="M0,0 L7,0 L9,5 L7,5 L7,8 L11,9 L15,0 L19,0 L24,7 L23,9 L20,7 L20,5 L15,5 L13,11 L11,11 L11,14 L6,14 L5,18 L4,20 L2,20 L2,23 L0,23 L-1,18 L-5,17 L-5,13 L-8,13 L-8,11 L-10,11 L-9,3 L-7,3 L-7,7 L-5,7 L-4,10 L-3,10 L-4,5 Z " fill="#1D232C" transform="translate(46,46)"/>
<path d="M0,0 L7,1 L7,8 L9,8 L8,10 L5,8 L5,5 L3,5 L3,1 L1,1 L0,9 L2,9 L2,11 L5,11 L5,15 L10,15 L10,21 L12,21 L12,18 L14,18 L16,12 L19,12 L19,16 L17,17 L14,23 L12,23 L12,30 L14,30 L14,38 L12,38 L11,41 L10,36 L12,36 L12,31 L10,31 L9,34 L8,34 L8,24 L5,17 L3,14 L0,13 L0,11 L-2,11 L-3,5 L-2,1 Z " fill="#15121B" transform="translate(36,48)"/>
<path d="M0,0 L3,0 L5,4 L7,5 L10,10 L11,14 L12,13 L10,8 L9,7 L9,1 L13,3 L16,9 L16,15 L13,15 L12,19 L9,17 L9,15 L7,15 L6,9 L1,7 Z " fill="#360D0D" transform="translate(13,84)"/>
<path d="M0,0 L7,0 L9,5 L7,5 L7,8 L11,10 L6,12 L-1,12 L-1,10 L-3,10 L-4,5 Z " fill="#110D14" transform="translate(46,46)"/>
<path d="M0,0 L1,2 L0,7 L2,10 L2,15 L4,15 L3,19 L-1,12 L-3,11 L-1,18 L1,24 L-1,24 L-4,19 L-5,15 L-8,14 L-9,10 L-5,12 L-8,6 L-7,3 Z " fill="#1E0909" transform="translate(25,74)"/>
<path d="M0,0 L3,1 L-2,6 L-9,9 L-7,14 L-7,17 L-12,15 L-14,10 L-17,12 L-18,16 L-19,13 L-21,13 L-22,10 L-19,10 L-19,8 L-15,8 L-15,6 L-10,6 L-10,4 L-5,2 L0,2 Z " fill="#120507" transform="translate(27,69)"/>
<path d="M0,0 L8,2 L8,0 L15,2 L14,6 L11,13 L6,12 L2,7 Z " fill="#14111A" transform="translate(37,101)"/>
<path d="M0,0 L10,1 L10,3 L5,3 L5,5 L3,5 L5,11 L5,16 L2,15 L1,20 L-4,21 L-3,14 L0,8 Z " fill="#1C1F27" transform="translate(70,57)"/>
<path d="M0,0 L2,0 L2,2 L4,2 L4,7 L6,7 L6,5 L8,5 L9,9 L11,9 L11,12 L9,12 L9,14 L6,14 L6,8 L4,8 L4,14 L2,14 L2,5 L0,4 L-1,9 L-3,14 L-5,14 L-5,7 L-3,7 L-1,1 Z " fill="#1F1918" transform="translate(53,64)"/>
<path d="M0,0 L2,1 L-3,5 L-9,5 L-8,3 Z M-19,5 L-9,5 L-12,10 L-18,12 L-22,13 L-21,9 L-19,9 Z " fill="#15111A" transform="translate(45,8)"/>
<path d="M0,0 L4,0 L5,6 L7,6 L7,11 L4,12 L3,7 L-1,12 L-3,9 L-3,5 L-1,5 Z " fill="#0E090D" transform="translate(62,53)"/>
<path d="M0,0 L7,1 L7,8 L9,8 L8,10 L5,8 L5,5 L3,5 L3,1 L1,1 L0,9 L2,9 L2,11 L5,12 L-2,11 L-3,5 L-2,1 Z " fill="#1A1E26" transform="translate(36,48)"/>
<path d="M0,0 L5,0 L5,2 L1,2 L0,7 L-2,7 L-1,15 L-2,20 L-4,20 L-4,15 L-6,15 L-6,9 L-4,9 L-4,6 L-2,6 Z " fill="#293942" transform="translate(61,51)"/>
<path d="M0,0 L2,2 L1,9 L-4,9 L-4,11 L-6,11 L-6,14 L-8,14 L-9,7 L-4,7 L-4,5 L-2,5 L-2,3 L0,3 Z " fill="#27353D" transform="translate(84,53)"/>
<path d="M0,0 L7,0 L9,5 L7,5 L7,7 L0,7 L-1,1 Z " fill="#33525E" transform="translate(46,46)"/>
<path d="M0,0 L6,2 L6,4 L13,4 L13,9 L5,8 L5,6 L3,6 L0,2 Z " fill="#130F19" transform="translate(17,109)"/>
<path d="M0,0 L2,0 L2,4 L4,4 L5,7 L9,11 L9,13 L4,13 L4,10 L1,10 L1,8 L-1,8 Z " fill="#283640" transform="translate(37,49)"/>
<path d="M0,0 L5,1 L9,0 L9,7 L2,7 L2,4 L0,4 Z " fill="#20242A" transform="translate(55,91)"/>
<path d="M0,0 L6,1 L6,5 L4,5 L3,7 L0,5 L0,8 L4,8 L4,10 L0,10 L-1,14 L-2,5 Z " fill="#1B0F10" transform="translate(55,81)"/>
<path d="M0,0 L4,0 L9,7 L8,9 L5,7 L5,5 L0,5 L-2,10 L-3,7 Z " fill="#161820" transform="translate(61,46)"/>
<path d="M0,0 L4,2 L5,5 L5,12 L2,18 L0,18 L0,13 L2,13 L3,6 L1,6 Z " fill="#293843" transform="translate(66,53)"/>
<path d="M0,0 L2,0 L3,6 L2,11 L-3,12 L-2,5 Z " fill="#1E1615" transform="translate(69,66)"/>
<path d="M0,0 L1,0 L2,10 L0,10 L0,12 L-6,11 L-5,9 L-3,6 L0,6 Z " fill="#1E0909" transform="translate(29,93)"/>
<path d="M0,0 L2,0 L2,3 L0,3 L-1,9 L-3,14 L-5,14 L-5,7 L-3,7 L-1,1 Z " fill="#20252A" transform="translate(53,64)"/>
<path d="M0,0 L1,2 L3,2 L4,7 L6,7 L7,4 L8,9 L5,9 L4,15 L3,15 L2,8 L0,4 Z " fill="#16141D" transform="translate(72,60)"/>
<path d="M0,0 L7,0 L6,5 L0,5 Z " fill="#344E5B" transform="translate(73,48)"/>
<path d="M0,0 L2,0 L4,5 L2,5 L3,12 L0,8 L-2,2 Z " fill="#240A0B" transform="translate(11,79)"/>
<path d="M0,0 L2,2 L3,14 L1,16 L1,9 L-2,9 Z " fill="#191B23" transform="translate(84,46)"/>
<path d="M0,0 L7,0 L7,4 L0,4 Z " fill="#538C9C" transform="translate(46,49)"/>
<path d="M0,0 L4,1 L7,4 L7,10 L4,7 L4,4 L2,4 L2,2 L0,2 Z " fill="#16141D" transform="translate(23,42)"/>
<path d="M0,0 L4,1 L4,8 L6,8 L5,10 L2,8 L2,5 L0,5 Z " fill="#15171F" transform="translate(39,48)"/>
<path d="M0,0 L2,1 L3,4 L5,5 L5,9 L2,9 L2,7 L0,7 Z " fill="#212930" transform="translate(59,62)"/>
<path d="M0,0 L4,2 L5,6 L4,11 L3,11 L3,6 L1,6 Z " fill="#232E37" transform="translate(66,53)"/>
<path d="M0,0 L5,2 L5,5 L1,6 Z " fill="#14101A" transform="translate(72,108)"/>
<path d="M0,0 L3,0 L3,5 L-2,5 L-1,1 Z " fill="#232C31" transform="translate(61,91)"/>
<path d="M0,0 L3,0 L4,4 L8,6 L4,7 L0,2 Z " fill="#130F19" transform="translate(37,93)"/>
<path d="M0,0 L6,0 L5,5 L0,3 Z " fill="#2D251B" transform="translate(62,82)"/>
<path d="M0,0 L4,1 L5,4 L-2,4 L-2,2 L0,2 Z " fill="#130F19" transform="translate(62,116)"/>
<path d="M0,0 L2,1 L1,7 L-2,8 L-1,3 Z " fill="#1A1820" transform="translate(73,88)"/>
<path d="M0,0 L7,0 L7,2 L2,2 L2,5 L0,5 Z " fill="#202C34" transform="translate(71,46)"/>
<path d="M0,0 L2,1 L1,8 L-1,8 L-1,3 L-3,2 Z " fill="#28343F" transform="translate(58,63)"/>
<path d="M0,0 L3,0 L5,0 L5,3 L3,3 L3,5 L0,5 Z " fill="#3A3324" transform="translate(59,73)"/>
<path d="M0,0 L2,1 L0,5 L-4,5 L-4,3 Z " fill="#130F19" transform="translate(107,113)"/>
<path d="M0,0 L1,0 L1,7 L-2,6 L-1,1 Z " fill="#232D32" transform="translate(68,89)"/>
<path d="M0,0 L3,0 L3,4 L1,4 L0,6 L-1,3 Z " fill="#231C16" transform="translate(58,82)"/>
<path d="M0,0 L4,2 L5,7 L2,6 Z " fill="#260A0A" transform="translate(15,91)"/>
<path d="M0,0 L5,0 L0,5 Z " fill="#17141D" transform="translate(80,62)"/>
<path d="M0,0 L5,2 L6,4 L0,3 Z " fill="#130F19" transform="translate(11,114)"/>
<path d="M0,0 L3,0 L3,2 L1,2 L1,5 L-1,5 L-2,1 Z " fill="#232C35" transform="translate(77,62)"/>
<path d="M0,0 L3,3 L3,5 L-2,5 L-2,3 L0,2 Z " fill="#26333B" transform="translate(43,57)"/>
<path d="M0,0 L4,2 L5,5 L2,5 L2,3 L0,3 Z " fill="#324854" transform="translate(39,55)"/>
<path d="M0,0 L5,0 L5,3 L0,2 Z " fill="#5691A2" transform="translate(73,49)"/>
<path d="M0,0 L2,1 L2,6 L0,6 L-1,2 Z " fill="#202830" transform="translate(71,63)"/>
<path d="M0,0 L2,0 L0,5 L-1,1 Z " fill="#100B12" transform="translate(47,69)"/>
<path d="M0,0 L2,1 L2,3 L-3,3 Z " fill="#232E36" transform="translate(58,63)"/>
<path d="M0,0 L3,1 L2,3 L0,3 Z " fill="#130F19" transform="translate(4,107)"/>
</svg>
