<?xml version="1.0" encoding="UTF-8"?>
<!-- Generator: visioncortex VTracer 0.6.5 -->
<svg version="1.1" xmlns="http://www.w3.org/2000/svg" width="118" height="120">
<path d="M0,0 L118,0 L118,120 L0,120 Z " fill="#017878" transform="translate(0,0)"/>
<path d="M0,0 L25,0 L25,2 L33,3 L33,5 L35,5 L35,7 L39,8 L40,10 L46,10 L46,21 L45,25 L40,29 L40,34 L43,37 L43,46 L41,45 L41,40 L39,40 L39,37 L30,36 L26,37 L25,46 L25,48 L25,53 L20,54 L20,56 L27,54 L28,52 L35,53 L34,59 L31,63 L29,63 L28,66 L26,66 L26,69 L27,67 L34,66 L37,68 L37,70 L39,70 L39,75 L41,75 L42,80 L46,81 L53,85 L54,95 L56,95 L58,106 L59,108 L-40,108 L-40,100 L-36,84 L-29,80 L-26,80 L-26,78 L-24,78 L-24,76 L-19,75 L-18,64 L-14,62 L-13,59 L-10,59 L-11,54 L-15,53 L-16,48 L-18,48 L-19,46 L-19,38 L-21,38 L-21,33 L-23,33 L-23,21 L-21,21 L-21,17 L-19,17 L-19,6 L-16,5 L-16,7 L-11,8 L-11,6 L-8,3 L0,2 Z M40,45 Z " fill="#030C15" transform="translate(47,12)"/>
<path d="M0,0 L25,0 L25,2 L33,3 L33,5 L35,5 L35,7 L39,8 L40,10 L46,10 L46,21 L45,25 L40,29 L40,34 L43,37 L43,46 L41,45 L41,40 L39,40 L39,37 L30,36 L26,37 L25,46 L25,48 L25,53 L20,54 L20,56 L27,54 L28,52 L35,53 L34,59 L31,63 L29,63 L28,66 L26,66 L25,70 L14,70 L8,66 L8,64 L2,64 L0,60 L-3,59 L-3,56 L-5,56 L-5,53 L-11,53 L-11,51 L-13,52 L-15,53 L-16,48 L-18,48 L-19,46 L-19,38 L-21,38 L-21,33 L-23,33 L-23,21 L-21,21 L-21,17 L-19,17 L-19,6 L-16,5 L-16,7 L-11,8 L-11,6 L-8,3 L0,2 Z M40,45 Z " fill="#010C13" transform="translate(47,12)"/>
<path d="M0,0 L3,1 L3,3 L9,3 L9,6 L11,6 L12,9 L16,13 L22,14 L23,17 L21,17 L22,20 L28,23 L28,25 L33,25 L33,27 L24,27 L24,29 L36,29 L41,27 L44,22 L46,19 L50,20 L51,27 L50,30 L48,31 L46,36 L44,39 L44,42 L40,45 L38,45 L38,47 L27,47 L26,44 L21,43 L17,41 L17,39 L13,38 L7,35 L7,33 L2,32 L0,28 L-3,26 L-4,23 L-4,14 L0,12 L1,9 L4,9 L3,4 L1,4 Z " fill="#090C12" transform="translate(33,62)"/>
<path d="M0,0 L2,3 L2,5 L6,6 L13,10 L14,20 L16,20 L18,31 L19,33 L-11,33 L-11,20 L-9,20 L-9,14 L-6,10 L-4,10 L-4,6 L-2,6 Z " fill="#0A0E1D" transform="translate(87,87)"/>
<path d="M0,0 L4,1 L5,3 L11,3 L11,14 L10,18 L5,22 L5,27 L8,30 L8,39 L6,38 L6,33 L4,33 L4,30 L-5,29 L-9,30 L-10,39 L-12,39 L-12,35 L-16,35 L-17,40 L-18,37 L-17,31 L-12,32 L-10,27 L-8,25 L1,25 L1,20 L-16,20 L-16,18 L-23,17 L-25,14 L-30,13 L-29,9 L-23,12 L-23,14 L-19,15 L-19,10 L-21,9 L-18,9 L-18,11 L-6,11 L-6,13 L-2,9 L0,5 Z M5,38 Z " fill="#020C12" transform="translate(82,19)"/>
<path d="M0,0 L4,0 L6,6 L6,11 L1,12 L1,14 L8,12 L9,10 L16,11 L15,17 L12,21 L10,21 L9,24 L7,24 L6,28 L-5,28 L-11,24 L-11,22 L-13,22 L-17,18 L-19,17 L-19,10 L-5,11 L-3,7 Z " fill="#6F5034" transform="translate(66,54)"/>
<path d="M0,0 L5,1 L9,4 L9,6 L11,6 L11,8 L17,9 L17,11 L30,10 L35,8 L38,3 L40,0 L44,1 L45,8 L44,11 L42,12 L41,15 L38,17 L35,17 L35,19 L31,20 L21,20 L16,17 L8,14 L8,12 L3,11 L1,7 Z " fill="#261513" transform="translate(39,81)"/>
<path d="M0,0 L3,1 L1,1 L-1,5 L-3,9 L-5,9 L-6,13 L-9,22 L-7,25 L-4,24 L-4,27 L-1,27 L-1,25 L1,25 L3,15 L7,15 L7,17 L5,17 L3,27 L1,27 L1,33 L5,33 L5,42 L3,42 L3,38 L1,38 L1,42 L-2,42 L-2,36 L-5,35 L-5,33 L-10,33 L-10,35 L-12,35 L-12,42 L-13,42 L-13,34 L-15,34 L-15,29 L-17,29 L-17,17 L-15,17 L-15,13 L-13,13 L-13,11 L-11,11 L-11,8 L-4,4 Z " fill="#010A0C" transform="translate(41,16)"/>
<path d="M0,0 L6,0 L9,2 L9,5 L11,5 L12,14 L9,18 L7,18 L6,26 L4,27 L4,31 L0,32 L-1,35 L-1,32 L-3,32 L-4,35 L-5,33 L-1,28 L3,24 L5,18 L-2,18 L-6,21 L-10,21 L-11,18 L-5,18 L-7,11 L-5,11 L-5,4 L-2,1 Z M10,10 Z " fill="#0E1616" transform="translate(77,47)"/>
<path d="M0,0 L2,4 L4,5 L2,6 L4,16 L9,17 L9,19 L15,20 L22,24 L36,24 L36,22 L42,20 L39,25 L39,28 L35,31 L33,31 L33,33 L22,33 L21,30 L16,29 L12,27 L12,25 L8,24 L2,21 L2,19 L-1,19 L-2,12 L0,12 L-1,5 L-2,1 Z " fill="#150F13" transform="translate(38,76)"/>
<path d="M0,0 L2,0 L4,4 L10,6 L16,10 L18,17 L19,25 L5,25 L5,19 L10,17 L10,15 L7,14 L7,12 L0,11 Z " fill="#0A0F20" transform="translate(34,95)"/>
<path d="M0,0 L5,0 L8,3 L8,9 L11,9 L11,5 L13,5 L14,10 L17,12 L17,14 L19,15 L16,15 L16,22 L21,24 L22,27 L17,26 L16,23 L13,22 L13,19 L11,19 L11,16 L5,16 L5,14 L3,15 L1,16 L0,11 L-2,11 L-2,2 L0,2 Z " fill="#271B22" transform="translate(31,49)"/>
<path d="M0,0 L9,1 L10,4 L12,4 L12,11 L10,11 L9,15 L1,16 L-2,15 L-2,13 L-4,13 L-5,11 L-4,2 Z " fill="#318774" transform="translate(52,47)"/>
<path d="M0,0 L9,0 L11,1 L11,3 L17,4 L17,6 L34,6 L35,8 L27,10 L23,16 L19,16 L17,10 L15,10 L12,7 L4,7 L2,10 L0,10 L0,12 L-3,13 L-2,6 L0,6 Z " fill="#714F34" transform="translate(47,35)"/>
<path d="M0,0 L4,3 L5,9 L8,6 L8,17 L10,17 L11,13 L14,11 L14,17 L16,17 L18,23 L3,23 L3,18 L1,18 L1,16 L-4,15 L-5,12 L-3,12 L-3,10 L0,10 L1,4 Z " fill="#010A11" transform="translate(88,97)"/>
<path d="M0,0 L4,0 L6,6 L6,11 L1,12 L1,14 L8,12 L7,14 L9,15 L9,17 L7,18 L-7,18 L-12,16 L-12,12 L-15,11 L-5,11 L-3,7 Z " fill="#6A4C32" transform="translate(66,54)"/>
<path d="M0,0 L2,3 L2,5 L6,6 L13,10 L14,20 L16,20 L17,27 L15,27 L14,22 L11,27 L9,27 L8,18 L5,20 L4,13 L2,11 L-1,11 L-2,7 Z " fill="#030F1A" transform="translate(87,87)"/>
<path d="M0,0 L1,0 L1,11 L-20,11 L-20,1 L-15,3 L-2,3 Z " fill="#000D18" transform="translate(74,109)"/>
<path d="M0,0 L2,0 L0,4 L-3,8 L-5,8 L-5,10 L-13,13 L-18,12 L-26,9 L-30,7 L-30,5 L-33,5 L-33,2 L-30,2 L-30,4 L-24,5 L-24,7 L-11,6 L-3,3 Z " fill="#341A16" transform="translate(80,85)"/>
<path d="M0,0 L8,2 L9,5 L7,5 L8,8 L14,11 L14,13 L19,13 L19,15 L10,15 L10,17 L18,17 L18,18 L9,18 L9,16 L3,15 L4,13 L8,14 L9,13 L6,13 L6,11 L2,10 L-2,7 L-2,2 Z " fill="#141017" transform="translate(47,74)"/>
<path d="M0,0 L4,1 L6,5 L10,4 L9,11 L7,11 L7,13 L-1,14 L-4,10 L-4,3 L0,2 Z " fill="#34927A" transform="translate(77,49)"/>
<path d="M0,0 L26,0 L26,3 L22,6 L20,6 L20,8 L9,8 L8,5 L3,4 L2,1 Z " fill="#1F1213" transform="translate(51,101)"/>
<path d="M0,0 L3,1 L3,3 L9,3 L9,6 L11,6 L12,9 L14,10 L13,19 L20,23 L20,25 L23,25 L22,27 L15,25 L15,23 L11,21 L9,20 L9,18 L7,18 L6,11 L5,8 L8,8 L8,5 L1,4 Z " fill="#04090B" transform="translate(33,62)"/>
<path d="M0,0 L2,1 L-2,2 L-2,4 L3,7 L4,10 L6,10 L11,24 L12,28 L14,28 L14,24 L18,23 L18,29 L7,29 L7,21 L3,11 L-3,7 L-9,9 L-7,5 L-3,3 L-3,1 Z " fill="#000A0F" transform="translate(21,91)"/>
<path d="M0,0 L4,1 L6,4 L6,9 L2,13 L-4,12 L-5,4 L-3,1 Z " fill="#59C799" transform="translate(55,48)"/>
<path d="M0,0 L2,0 L4,9 L13,13 L13,15 L15,15 L15,19 L8,22 L6,24 L7,19 L10,17 L10,15 L7,14 L7,12 L0,11 Z " fill="#171222" transform="translate(34,95)"/>
<path d="M0,0 L7,0 L8,2 L15,4 L15,6 L32,6 L32,11 L25,11 L25,10 L30,9 L13,8 L13,6 L7,5 L7,3 L0,3 Z " fill="#362220" transform="translate(51,33)"/>
<path d="M0,0 L4,1 L3,5 L0,11 L-3,12 L-3,10 L-10,11 L-15,10 L-15,8 L-18,7 L-5,8 L-5,6 L-1,6 Z " fill="#100F1D" transform="translate(79,20)"/>
<path d="M0,0 L1,3 L-1,6 L-4,6 L-5,11 L0,12 L1,18 L-1,18 L-2,16 L-5,14 L-8,10 L-7,5 L-3,3 Z " fill="#1B1324" transform="translate(89,101)"/>
<path d="M0,0 L6,0 L9,2 L9,5 L11,5 L11,10 L9,7 L6,7 L3,3 L0,2 L0,4 L-4,5 L-4,11 L-5,11 L-5,4 L-2,1 Z " fill="#185D56" transform="translate(77,47)"/>
<path d="M0,0 L5,0 L0,4 L-6,9 L-9,9 L-9,12 L-11,11 L-11,3 L-8,2 L-8,4 L-3,5 L-3,3 Z " fill="#011C1F" transform="translate(39,15)"/>
<path d="M0,0 L5,1 L2,2 L2,9 L7,11 L8,14 L3,13 L2,10 L-1,9 L-2,4 Z " fill="#332023" transform="translate(45,62)"/>
<path d="M0,0 L5,0 L6,5 L5,7 L0,7 L0,5 L-2,5 L-2,1 Z " fill="#35997E" transform="translate(53,51)"/>
<path d="M0,0 L5,0 L5,3 L2,3 L2,7 L-5,11 L-6,17 L-7,17 L-7,9 L-3,7 L-2,4 L1,4 Z " fill="#012123" transform="translate(36,67)"/>
<path d="M0,0 L4,2 L5,12 L7,12 L8,19 L6,19 L5,14 L3,15 L2,5 L0,5 Z " fill="#011C21" transform="translate(96,95)"/>
<path d="M0,0 L5,0 L8,3 L8,6 L5,5 L5,3 L0,3 L0,8 L2,8 L2,5 L5,6 L3,9 L-1,9 L-1,2 Z " fill="#371E22" transform="translate(31,49)"/>
<path d="M0,0 L3,1 L3,6 L0,7 L0,9 L-4,9 L-6,6 L-5,2 L-3,6 L-2,3 L1,3 Z " fill="#54C095" transform="translate(80,51)"/>
<path d="M0,0 L5,0 L8,3 L8,9 L3,8 L4,3 L2,2 L2,5 L0,5 Z " fill="#17111B" transform="translate(31,52)"/>
<path d="M0,0 L4,1 L4,5 L1,7 L2,9 L-2,7 L-4,8 L-4,3 L0,2 Z " fill="#3A9F82" transform="translate(77,49)"/>
<path d="M0,0 L9,1 L10,4 L12,4 L12,11 L11,11 L10,6 L7,4 L7,2 L-3,3 L-4,5 L-4,2 Z " fill="#14544F" transform="translate(52,47)"/>
<path d="M0,0 L5,1 L5,5 L-2,8 L-4,10 L-3,5 L0,3 Z " fill="#201527" transform="translate(44,109)"/>
<path d="M0,0 L0,3 L0,12 L2,13 L-1,13 L-1,11 L-3,11 L-4,9 L-4,3 L-2,3 L-2,1 Z " fill="#2B816F" transform="translate(51,49)"/>
<path d="M0,0 L5,1 L7,6 L6,12 L5,12 L5,7 L3,7 L2,5 L-1,4 Z " fill="#051116" transform="translate(59,44)"/>
<path d="M0,0 L3,1 L-1,7 L-12,7 L-9,5 L-1,4 Z " fill="#151A17" transform="translate(62,58)"/>
<path d="M0,0 L12,0 L12,2 L7,4 L0,2 Z " fill="#371B18" transform="translate(61,103)"/>
<path d="M0,0 L4,1 L3,5 L5,6 L1,10 L-3,10 L-4,7 L2,7 Z " fill="#372521" transform="translate(70,58)"/>
<path d="M0,0 L4,1 L1,2 L1,8 L2,10 L0,10 L0,12 L-3,13 L-2,6 L0,6 Z " fill="#503529" transform="translate(47,35)"/>
<path d="M0,0 L4,1 L4,3 L16,2 L19,1 L19,3 L17,4 L3,4 L0,3 Z " fill="#2C201C" transform="translate(56,68)"/>
<path d="M0,0 L8,0 L7,3 L-3,5 Z " fill="#17181D" transform="translate(51,44)"/>
<path d="M0,0 L2,0 L2,5 L0,5 L0,13 L-3,13 L-3,7 L-1,7 Z " fill="#231919" transform="translate(45,36)"/>
<path d="M0,0 L1,0 L2,8 L4,8 L4,10 L7,10 L7,12 L2,11 L-2,6 L0,6 Z " fill="#081417" transform="translate(46,52)"/>
<path d="M0,0 L4,1 L6,5 L4,8 L3,4 L-4,4 L-3,1 Z " fill="#4EB790" transform="translate(55,48)"/>
<path d="M0,0 L5,2 L5,4 L7,4 L7,6 L2,5 L-1,1 Z " fill="#211314" transform="translate(42,94)"/>
<path d="M0,0 L9,0 L9,4 L8,2 L-1,2 Z " fill="#060909" transform="translate(52,42)"/>
<path d="M0,0 L5,1 L2,2 L2,9 L0,8 Z " fill="#412723" transform="translate(45,62)"/>
<path d="M0,0 L2,4 L3,8 L-2,8 L-1,1 Z " fill="#00080B" transform="translate(31,77)"/>
<path d="M0,0 L8,0 L9,2 L1,3 Z " fill="#694831" transform="translate(73,41)"/>
<path d="M0,0 L2,1 L2,3 L4,3 L4,8 L1,5 L1,3 L-1,2 Z " fill="#051617" transform="translate(82,79)"/>
<path d="M0,0 L4,1 L4,3 L2,3 L2,6 L0,6 Z " fill="#00080B" transform="translate(9,106)"/>
<path d="M0,0 L6,0 L7,2 L3,3 L-2,2 Z " fill="#0C4B4A" transform="translate(77,47)"/>
<path d="M0,0 L2,1 L2,6 L-2,7 Z " fill="#32937D" transform="translate(61,52)"/>
<path d="M0,0 L1,4 L0,7 L-2,6 L-1,3 L-3,3 L-3,1 Z " fill="#278170" transform="translate(86,53)"/>
<path d="M0,0 L2,0 L1,7 L-1,6 Z " fill="#00080B" transform="translate(85,87)"/>
<path d="M0,0 L5,0 L5,3 L0,2 Z " fill="#0F5754" transform="translate(81,49)"/>
<path d="M0,0 L2,4 L2,6 L-1,7 Z " fill="#482D27" transform="translate(45,41)"/>
<path d="M0,0 L1,4 L-3,5 L-2,2 Z " fill="#19302D" transform="translate(82,69)"/>
<path d="M0,0 L3,1 L1,4 L-2,3 L0,3 Z " fill="#2A1924" transform="translate(33,54)"/>
<path d="M0,0 L4,1 L2,5 Z " fill="#23211C" transform="translate(70,58)"/>
<path d="M0,0 L3,0 L3,2 L0,3 Z " fill="#3BA183" transform="translate(78,52)"/>
<path d="M0,0 L3,1 L1,3 Z " fill="#152723" transform="translate(62,58)"/>
</svg>
