<?xml version="1.0" encoding="UTF-8"?>
<!-- Generator: visioncortex VTracer 0.6.5 -->
<svg version="1.1" xmlns="http://www.w3.org/2000/svg" width="150" height="84">
<path d="M0,0 L150,0 L150,84 L0,84 Z " fill="#3C4C57" transform="translate(0,0)"/>
<path d="M0,0 L150,0 L150,60 L148,60 L148,57 L144,58 L144,60 L146,60 L146,62 L143,62 L143,58 L141,58 L142,67 L140,67 L140,65 L135,64 L135,67 L126,69 L126,71 L129,72 L117,72 L118,69 L123,70 L123,67 L128,67 L128,65 L123,66 L116,66 L115,71 L111,72 L111,67 L114,65 L115,61 L115,59 L113,59 L114,55 L115,50 L113,50 L113,48 L115,48 L116,45 L115,43 L107,39 L107,42 L109,43 L105,42 L101,42 L102,37 L84,34 L78,36 L76,36 L76,38 L81,38 L80,40 L68,39 L67,35 L63,35 L63,38 L60,39 L63,40 L63,42 L58,42 L58,47 L53,46 L48,47 L45,46 L48,44 L46,43 L47,40 L52,39 L53,41 L56,40 L54,37 L46,37 L45,40 L43,39 L43,33 L50,33 L53,32 L52,26 L49,26 L49,28 L43,28 L43,31 L39,31 L40,24 L44,24 L44,22 L53,21 L53,18 L59,17 L59,15 L51,15 L51,17 L48,17 L48,15 L44,15 L44,18 L39,18 L39,16 L31,15 L32,8 L30,8 L31,5 L39,4 L39,2 L26,3 L27,11 L25,15 L21,15 L23,20 L28,21 L28,17 L30,17 L30,23 L28,23 L28,26 L20,26 L19,28 L16,27 L19,15 L16,14 L20,14 L21,9 L23,9 L23,7 L21,7 L21,5 L24,5 L23,2 L20,1 L19,4 L11,7 L12,9 L5,12 L2,17 L0,17 Z " fill="#030306" transform="translate(0,0)"/>
<path d="M0,0 L2,1 L3,8 L-6,9 L-8,8 L-8,14 L-6,14 L-5,12 L3,11 L5,15 L0,17 L1,14 L-4,16 L-5,18 L-2,19 L-4,21 L1,21 L4,20 L6,21 L7,17 L12,17 L12,15 L8,14 L10,12 L12,13 L12,10 L16,10 L17,13 L29,14 L25,13 L25,11 L35,8 L52,11 L50,17 L52,17 L53,15 L56,17 L56,14 L60,15 L65,18 L66,21 L64,21 L64,23 L62,23 L62,25 L65,24 L65,29 L62,34 L66,33 L64,38 L63,41 L61,42 L62,46 L64,46 L65,41 L77,40 L77,42 L72,42 L72,45 L67,45 L66,47 L75,46 L79,45 L79,48 L71,49 L75,51 L54,51 L53,52 L42,52 L39,50 L31,48 L31,45 L23,46 L23,53 L18,52 L16,50 L20,48 L16,47 L16,45 L11,45 L11,42 L7,43 L5,40 L2,39 L2,36 L-2,36 L-2,34 L-8,32 L-13,30 L-13,17 L-18,16 L-21,15 L-21,12 L-16,13 L-14,7 L-14,3 L-12,3 L-12,6 L-8,6 L-8,3 L-2,3 L-2,1 Z " fill="#101114" transform="translate(51,25)"/>
<path d="M0,0 L150,0 L150,21 L140,22 L140,24 L138,24 L138,26 L132,26 L133,23 L139,22 L139,19 L130,18 L130,20 L125,19 L125,16 L128,15 L125,14 L125,12 L117,12 L110,11 L110,9 L106,9 L106,7 L101,7 L97,5 L93,8 L91,12 L81,11 L79,11 L79,13 L79,17 L84,17 L83,20 L74,20 L70,17 L62,15 L65,19 L65,21 L57,22 L53,20 L53,18 L59,17 L59,15 L51,15 L51,17 L48,17 L48,15 L44,15 L44,18 L39,18 L39,16 L31,15 L32,8 L30,8 L31,5 L39,4 L39,2 L26,3 L27,11 L25,15 L21,15 L23,20 L28,21 L28,17 L30,17 L30,23 L28,23 L28,26 L20,26 L19,28 L16,27 L19,15 L16,14 L20,14 L21,9 L23,9 L23,7 L21,7 L21,5 L24,5 L23,2 L20,1 L19,4 L11,7 L12,9 L5,12 L2,17 L0,17 Z " fill="#0A0C0F" transform="translate(0,0)"/>
<path d="M0,0 L2,0 L2,3 L4,3 L4,27 L-127,27 L-130,25 L-130,22 L-134,22 L-134,20 L-131,20 L-131,16 L-129,16 L-130,13 L-139,11 L-138,8 L-129,8 L-127,14 L-116,17 L-113,17 L-120,15 L-117,11 L-117,13 L-112,14 L-104,16 L-101,20 L-100,15 L-96,16 L-95,10 L-97,10 L-97,12 L-103,14 L-106,13 L-106,11 L-102,11 L-102,7 L-98,6 L-98,3 L-101,2 L-99,1 L-97,2 L-97,4 L-93,4 L-93,7 L-89,8 L-88,10 L-82,9 L-84,13 L-79,13 L-79,15 L-74,15 L-77,19 L-72,21 L-72,14 L-70,13 L-64,13 L-64,16 L-56,17 L-53,19 L-42,19 L-41,18 L-24,18 L-30,17 L-30,16 L-16,16 L-16,13 L-20,12 L-15,10 L-11,10 L-11,7 L-6,8 L-6,10 L-4,10 L-5,1 L-3,1 L-3,5 L0,5 L0,3 L-2,3 L-2,1 Z " fill="#5B6876" transform="translate(146,57)"/>
<path d="M0,0 L9,0 L9,2 L21,4 L25,6 L31,7 L34,10 L34,12 L30,12 L29,17 L34,17 L34,21 L32,21 L32,24 L29,24 L28,29 L18,29 L2,27 L-2,25 L-2,23 L0,23 L0,21 L-2,21 L-2,19 L-4,19 L-5,22 L-8,21 L-7,13 L-9,13 L-10,17 L-12,17 L-11,12 L-7,5 L-5,6 L-6,8 L1,8 L1,6 L-2,7 L-2,5 L0,5 Z " fill="#51585E" transform="translate(69,40)"/>
<path d="M0,0 L10,0 L13,5 L16,9 L28,11 L31,12 L30,16 L33,17 L33,20 L40,21 L40,25 L37,25 L37,22 L29,21 L27,21 L26,24 L28,25 L27,28 L34,31 L30,32 L19,28 L17,23 L8,23 L7,25 L16,26 L17,30 L15,30 L15,34 L12,34 L12,36 L16,36 L16,39 L19,40 L19,41 L0,41 Z " fill="#46515B" transform="translate(0,43)"/>
<path d="M0,0 L19,3 L17,9 L19,9 L20,7 L23,9 L23,6 L27,7 L32,10 L33,13 L31,13 L31,15 L29,15 L29,17 L32,16 L32,21 L29,26 L33,25 L31,30 L30,33 L28,34 L29,38 L31,38 L32,33 L44,32 L44,34 L39,34 L39,37 L34,37 L33,39 L42,38 L46,37 L46,40 L38,41 L42,43 L28,43 L30,42 L30,40 L26,41 L19,39 L19,38 L25,37 L13,36 L14,31 L17,31 L17,28 L19,28 L19,24 L14,24 L15,19 L19,19 L18,15 L8,13 L-1,11 L-7,10 L-6,7 L-4,6 L-8,5 L-8,3 Z " fill="#2A2F35" transform="translate(84,33)"/>
<path d="M0,0 L65,0 L61,2 L60,4 L53,4 L53,6 L46,6 L45,9 L45,7 L40,7 L40,10 L35,11 L35,13 L40,11 L46,11 L54,8 L61,8 L59,11 L69,11 L71,13 L70,14 L51,15 L51,17 L48,17 L48,15 L44,15 L44,18 L39,18 L39,16 L31,15 L32,8 L30,8 L31,5 L39,4 L39,2 L26,3 L27,11 L25,15 L21,15 L23,20 L28,21 L28,17 L30,17 L30,23 L28,23 L28,26 L20,26 L19,28 L16,27 L19,15 L16,14 L20,14 L21,9 L23,9 L23,7 L21,7 L21,5 L24,5 L23,2 L20,1 L19,4 L11,7 L12,9 L5,12 L2,17 L0,17 Z " fill="#22252D" transform="translate(0,0)"/>
<path d="M0,0 L2,0 L2,3 L4,3 L4,27 L-33,27 L-33,22 L-37,21 L-38,18 L-24,18 L-30,17 L-30,16 L-16,16 L-16,13 L-20,12 L-15,10 L-11,10 L-11,7 L-6,8 L-6,10 L-4,10 L-5,1 L-3,1 L-3,5 L0,5 L0,3 L-2,3 L-2,1 Z " fill="#616875" transform="translate(146,57)"/>
<path d="M0,0 L4,1 L4,4 L1,4 L1,6 L3,6 L3,8 L1,8 L-1,14 L-1,20 L-3,26 L0,28 L1,32 L-3,33 L-4,38 L-20,39 L-20,16 L-18,14 L-13,9 L-9,7 L-11,5 L-1,2 Z " fill="#424953" transform="translate(20,1)"/>
<path d="M0,0 L8,1 L8,3 L13,3 L10,7 L15,9 L15,2 L17,1 L23,1 L23,4 L31,5 L34,7 L45,7 L49,6 L51,9 L54,10 L55,13 L54,15 L12,15 L5,13 L5,11 L10,11 L10,9 L3,9 L1,8 L0,10 L-4,8 L-4,3 L-6,2 L0,1 Z " fill="#1F2B3B" transform="translate(59,69)"/>
<path d="M0,0 L38,0 L38,19 L33,19 L32,15 L34,15 L34,13 L28,13 L28,15 L26,15 L24,8 L29,7 L30,9 L33,10 L33,8 L30,8 L31,4 L26,3 L26,5 L22,6 L23,12 L22,14 L18,12 L18,10 L0,8 L-2,7 L-1,1 Z " fill="#030407" transform="translate(112,0)"/>
<path d="M0,0 L5,2 L11,3 L14,6 L14,8 L10,8 L9,13 L14,13 L14,17 L12,17 L12,20 L9,20 L8,25 L-2,25 L-7,24 L-10,22 L-13,19 L-6,20 L-8,10 L-6,6 L0,3 Z " fill="#707D84" transform="translate(89,44)"/>
<path d="M0,0 L11,0 L11,2 L3,4 L2,6 L4,6 L3,13 L8,12 L12,14 L11,16 L16,16 L16,13 L20,13 L20,15 L23,15 L23,13 L31,13 L31,15 L25,16 L26,19 L25,20 L16,20 L16,22 L12,22 L11,26 L10,23 L7,23 L5,29 L4,31 L2,31 L2,29 L0,28 L2,24 L4,24 L4,22 L2,22 L2,15 L0,15 L0,19 L-5,19 L-7,17 L-7,13 L-3,13 L-1,4 L-3,3 Z " fill="#525F67" transform="translate(28,2)"/>
<path d="M0,0 L19,0 L15,2 L14,4 L7,4 L7,6 L0,6 L-1,9 L-1,7 L-6,7 L-6,10 L-11,11 L-11,13 L-6,11 L0,11 L8,8 L15,8 L13,11 L23,11 L25,13 L24,14 L5,15 L5,17 L2,17 L2,15 L-2,15 L-2,18 L-7,18 L-7,16 L-15,15 L-14,8 L-16,8 L-15,5 L-6,5 L-6,3 L-1,2 Z " fill="#030406" transform="translate(46,0)"/>
<path d="M0,0 L4,1 L4,3 L2,3 L2,10 L4,10 L6,4 L7,2 L11,1 L11,5 L9,5 L10,10 L7,16 L2,14 L2,17 L7,18 L8,20 L6,21 L5,24 L8,24 L9,32 L6,32 L6,29 L4,29 L1,24 L-4,23 L-3,17 L-11,14 L-11,10 L-8,9 L-9,3 L-5,2 L0,3 Z " fill="#484F5E" transform="translate(28,23)"/>
<path d="M0,0 L5,0 L3,7 L21,9 L27,14 L27,6 L31,5 L31,3 L38,4 L35,8 L38,8 L38,10 L34,9 L34,7 L30,9 L31,15 L33,15 L33,13 L39,13 L39,15 L37,15 L38,18 L43,19 L43,21 L33,22 L33,24 L31,24 L31,26 L25,26 L26,23 L32,22 L32,19 L23,18 L23,20 L18,19 L18,16 L21,15 L18,14 L18,12 L10,12 L3,11 L3,9 L-1,9 L-2,4 L2,4 L2,2 L0,2 Z " fill="#282B30" transform="translate(107,0)"/>
<path d="M0,0 L3,0 L3,21 L1,21 L1,18 L-3,19 L-3,21 L-1,21 L-1,23 L-4,23 L-4,19 L-6,19 L-5,28 L-7,28 L-7,26 L-12,25 L-12,28 L-16,27 L-14,27 L-14,23 L-19,22 L-18,18 L-16,17 L-16,19 L-12,17 L-13,14 L-12,7 L-11,7 L-11,13 L-7,13 L-6,3 Z " fill="#120F15" transform="translate(147,39)"/>
<path d="M0,0 L2,1 L3,8 L-6,9 L-8,8 L-8,14 L-6,14 L-5,12 L3,11 L5,15 L0,17 L1,14 L-4,16 L-5,18 L-2,19 L-6,20 L-6,17 L-8,17 L-6,23 L-3,24 L-2,27 L-6,29 L-13,29 L-13,17 L-18,16 L-21,15 L-21,12 L-16,13 L-14,7 L-14,3 L-12,3 L-12,6 L-8,6 L-8,3 L-2,3 L-2,1 Z " fill="#2D2329" transform="translate(51,25)"/>
<path d="M0,0 L9,0 L11,6 L22,9 L28,9 L28,13 L29,11 L33,12 L31,18 L24,19 L11,19 L8,17 L8,14 L4,14 L4,12 L7,12 L7,8 L9,8 L8,5 L-1,3 Z " fill="#5B6778" transform="translate(8,65)"/>
<path d="M0,0 L4,1 L6,6 L6,0 L8,0 L9,2 L9,11 L10,14 L20,16 L18,17 L18,20 L16,20 L16,22 L11,23 L11,25 L14,26 L2,26 L3,23 L8,24 L8,21 L13,21 L13,19 L8,20 L1,20 L0,25 L-4,26 L-4,21 L-1,19 L0,15 L0,13 L-2,13 L-1,9 L0,4 L-2,4 L-2,2 L0,2 Z M7,11 Z " fill="#010204" transform="translate(115,46)"/>
<path d="M0,0 L4,1 L4,4 L1,4 L1,6 L3,6 L3,8 L1,8 L-2,17 L-5,17 L-5,19 L-7,19 L-5,23 L-7,27 L-10,28 L-19,28 L-16,23 L-15,19 L-10,20 L-10,17 L-13,18 L-12,12 L-12,8 L-9,7 L-11,5 L-1,2 Z " fill="#5F626D" transform="translate(20,1)"/>
<path d="M0,0 L4,2 L4,5 L8,5 L8,3 L14,3 L15,1 L15,4 L17,5 L17,8 L13,9 L13,13 L9,13 L9,9 L2,8 L2,5 L-3,4 L0,3 Z M-3,7 L-2,9 L6,10 L6,13 L9,13 L9,15 L18,14 L18,12 L20,12 L19,18 L22,19 L17,19 L16,20 L14,24 L11,20 L11,18 L5,18 L-2,15 L-2,13 L-6,12 L-4,8 Z " fill="#667282" transform="translate(31,55)"/>
<path d="M0,0 L29,1 L28,3 L23,4 L33,5 L33,7 L24,8 L23,9 L12,9 L9,7 L1,5 L1,2 L-7,3 L-7,10 L-12,9 L-14,7 L-10,5 L-12,4 L-12,1 Z " fill="#161F25" transform="translate(81,68)"/>
<path d="M0,0 L8,1 L8,3 L13,3 L10,7 L15,9 L15,2 L17,1 L23,1 L23,4 L29,5 L29,7 L16,5 L16,8 L21,9 L21,11 L19,11 L20,15 L12,15 L5,13 L5,11 L10,11 L10,9 L3,9 L1,8 L0,10 L-4,8 L-4,3 L-6,2 L0,1 Z " fill="#6D717E" transform="translate(59,69)"/>
<path d="M0,0 L19,3 L17,9 L19,9 L20,7 L20,10 L23,12 L25,20 L24,23 L22,23 L21,15 L15,13 L15,8 L8,7 L6,9 L14,10 L14,11 L-1,11 L-7,10 L-6,7 L-4,6 L-8,5 L-8,3 Z " fill="#2A272D" transform="translate(84,33)"/>
<path d="M0,0 L6,0 L6,2 L11,2 L9,5 L1,9 L0,11 L-6,12 L-7,10 L-5,9 L-14,10 L-20,12 L-30,13 L-30,11 L-25,10 L-25,7 L-20,7 L-19,6 L-12,6 L-12,4 L-5,4 L-4,1 Z " fill="#2A282F" transform="translate(65,0)"/>
<path d="M0,0 L2,0 L2,13 L-21,13 L-22,9 L-16,8 L-15,6 L-7,5 L-5,1 Z " fill="#62697A" transform="translate(148,71)"/>
<path d="M0,0 L36,0 L36,2 L38,2 L38,4 L34,4 L34,7 L30,6 L26,5 L22,5 L22,7 L10,6 L10,4 L4,4 L0,2 Z " fill="#14161B" transform="translate(71,0)"/>
<path d="M0,0 L10,0 L11,4 L9,4 L9,8 L6,8 L6,10 L10,10 L10,13 L13,14 L13,15 L-1,15 L-1,7 L-4,7 L-4,4 L0,2 Z " fill="#353F4D" transform="translate(6,69)"/>
<path d="M0,0 L5,0 L4,2 L1,3 L-1,7 L0,13 L6,14 L5,6 L7,5 L8,17 L2,17 L8,19 L7,21 L-4,20 L-8,18 L-8,16 L-6,16 L-6,14 L-8,14 L-6,3 L-2,2 Z " fill="#535A64" transform="translate(75,47)"/>
<path d="M0,0 L10,0 L8,6 L6,6 L6,10 L4,10 L4,12 L0,12 L0,14 L3,15 L0,16 L-4,14 L-5,8 L-7,8 L-5,2 Z " fill="#EDF1F4" transform="translate(88,48)"/>
<path d="M0,0 L9,1 L17,8 L17,14 L10,13 L10,11 L3,10 L-1,10 L-1,1 Z " fill="#65707B" transform="translate(1,48)"/>
<path d="M0,0 L14,0 L18,1 L16,9 L0,10 Z " fill="#04050C" transform="translate(0,30)"/>
<path d="M0,0 L4,0 L4,2 L1,5 L7,5 L7,3 L9,3 L9,1 L12,0 L19,0 L19,9 L12,10 L11,8 L8,11 L6,7 L3,7 L4,9 L1,10 L-4,8 L-4,5 L0,5 L0,3 L-4,3 L-4,1 Z " fill="#202326" transform="translate(131,21)"/>
<path d="M0,0 L4,0 L5,3 L15,4 L15,5 L6,5 L6,10 L7,11 L7,13 L3,14 L0,13 L-1,12 L-5,17 L-7,17 L-8,20 L-10,20 L-10,16 L-8,16 L-8,12 L-10,12 L-10,10 L-6,11 L-5,7 L0,7 L0,5 L-4,4 L-2,2 L0,3 Z " fill="#222220" transform="translate(63,35)"/>
<path d="M0,0 L11,0 L16,2 L16,8 L21,9 L21,11 L23,11 L23,9 L29,8 L31,14 L28,15 L16,13 L10,6 L10,3 L0,3 Z " fill="#707C83" transform="translate(0,40)"/>
<path d="M0,0 L4,0 L4,2 L7,2 L7,0 L15,0 L15,2 L9,3 L10,6 L9,7 L0,7 L0,9 L-4,9 L-5,13 L-6,10 L-9,10 L-11,16 L-12,18 L-14,18 L-14,16 L-16,15 L-14,11 L-9,6 L-5,4 L-4,7 L-1,8 L0,4 L-3,5 L-4,3 L0,3 Z " fill="#4C4F53" transform="translate(44,15)"/>
<path d="M0,0 L9,0 L11,6 L21,9 L23,15 L17,13 L17,16 L11,16 L11,14 L9,14 L9,11 L7,11 L7,8 L9,8 L8,5 L-1,3 Z " fill="#65707F" transform="translate(8,65)"/>
<path d="M0,0 L7,1 L9,4 L14,5 L15,2 L21,2 L22,6 L19,7 L18,9 L15,9 L15,7 L6,7 L1,8 L1,10 L-3,9 L-4,8 L-4,1 Z " fill="#04080F" transform="translate(4,57)"/>
<path d="M0,0 L9,2 L12,2 L21,3 L21,5 L16,5 L16,7 L22,7 L23,9 L-4,9 L-4,7 L0,6 L3,5 L4,3 L1,3 Z " fill="#0E1624" transform="translate(48,75)"/>
<path d="M0,0 L7,1 L9,7 L13,8 L14,9 L14,17 L16,17 L16,15 L18,15 L17,18 L12,18 L12,23 L9,24 L9,22 L11,22 L11,18 L6,18 L7,13 L11,13 L10,9 L0,7 L-2,5 L-2,4 L-8,3 L-8,2 L-1,1 Z " fill="#404346" transform="translate(92,39)"/>
<path d="M0,0 L12,0 L12,3 L19,4 L19,5 L14,5 L13,9 L18,9 L17,11 L5,10 L4,6 L0,6 L-1,9 L-1,7 L-3,7 L-2,4 L3,3 L3,1 Z " fill="#070507" transform="translate(63,29)"/>
<path d="M0,0 L5,2 L11,3 L14,6 L14,8 L10,8 L9,13 L14,13 L14,17 L12,17 L12,20 L5,20 L3,14 L5,14 L5,10 L7,10 L9,4 L0,4 Z " fill="#7E8085" transform="translate(89,44)"/>
<path d="M0,0 L3,0 L1,5 L10,4 L8,8 L7,10 L17,9 L18,11 L13,14 L7,15 L7,13 L4,11 L5,8 L1,9 L-4,9 L-4,11 L-8,11 L-7,6 L-3,3 L0,3 Z " fill="#1B1418" transform="translate(70,21)"/>
<path d="M0,0 L7,0 L13,2 L13,0 L23,3 L33,4 L34,6 L16,6 L15,8 L5,6 L5,4 L0,3 Z " fill="#6F7684" transform="translate(75,74)"/>
<path d="M0,0 L4,1 L4,3 L2,3 L2,7 L-1,9 L-5,9 L-4,13 L-1,13 L-2,16 L-11,14 L-11,10 L-8,9 L-9,3 L-5,2 L0,3 Z " fill="#77808E" transform="translate(28,23)"/>
<path d="M0,0 L5,0 L3,7 L21,9 L23,10 L23,14 L18,14 L18,12 L10,12 L3,11 L3,9 L-1,9 L-2,4 L2,4 L2,2 L0,2 Z " fill="#52565B" transform="translate(107,0)"/>
<path d="M0,0 L10,0 L13,5 L16,9 L28,11 L30,14 L19,13 L12,9 L7,6 L0,6 Z " fill="#293541" transform="translate(0,43)"/>
<path d="M0,0 L2,0 L2,2 L4,2 L4,4 L2,4 L2,6 L13,8 L16,10 L9,11 L4,10 L4,13 L2,13 L2,11 L-3,11 L-3,8 L-7,9 L-9,6 L-12,4 L-8,4 L-8,1 L-6,2 L-7,4 L-3,5 L1,6 Z " fill="#0E0E15" transform="translate(65,59)"/>
<path d="M0,0 L5,0 L5,2 L0,2 L0,5 L-5,5 L-6,7 L3,6 L7,5 L7,8 L-1,9 L3,11 L-11,11 L-9,10 L-9,8 L-13,9 L-20,7 L-16,6 L-8,6 L-7,1 Z " fill="#3A3F4C" transform="translate(123,65)"/>
<path d="M0,0 L3,0 L3,2 L8,2 L8,8 L6,8 L6,5 L2,6 L2,8 L4,8 L4,10 L1,10 L1,6 L-1,6 L0,15 L-2,15 L-2,13 L-7,12 L-7,15 L-11,14 L-9,14 L-9,11 L-7,11 L-6,6 L-4,5 L2,5 Z " fill="#1E222D" transform="translate(142,52)"/>
<path d="M0,0 L4,1 L4,4 L1,4 L1,6 L3,6 L3,8 L1,8 L0,13 L-2,13 L-2,11 L-9,12 L-10,8 L-9,7 L-11,5 L-1,2 Z " fill="#5A5B62" transform="translate(20,1)"/>
<path d="M0,0 L19,0 L15,2 L14,4 L7,4 L7,6 L-10,6 L-6,5 L-6,3 L-1,2 Z " fill="#030306" transform="translate(46,0)"/>
<path d="M0,0 L1,2 L6,3 L14,5 L18,11 L18,14 L16,14 L16,16 L4,16 L4,15 L11,15 L11,10 L8,10 L8,6 L-2,4 Z " fill="#4B586B" transform="translate(28,68)"/>
<path d="M0,0 L4,2 L4,5 L8,5 L8,3 L14,3 L15,1 L15,4 L17,5 L17,8 L13,9 L13,13 L10,13 L9,9 L2,8 L2,5 L-3,4 L0,3 Z " fill="#708092" transform="translate(31,55)"/>
<path d="M0,0 L9,1 L7,2 L5,6 L13,7 L13,8 L-2,8 L-8,7 L-7,4 L-5,3 L-9,1 Z " fill="#2A2A29" transform="translate(85,36)"/>
<path d="M0,0 L6,0 L6,2 L1,3 L1,5 L-1,6 L-1,14 L-7,13 L-9,10 L-8,6 L-7,3 L-1,1 Z " fill="#1D2128" transform="translate(82,47)"/>
<path d="M0,0 L2,1 L1,3 L3,3 L4,7 L4,11 L6,12 L6,5 L7,5 L7,13 L3,14 L2,17 L-1,16 L0,8 L-2,8 L-3,12 L-5,12 L-4,7 Z " fill="#585A5F" transform="translate(62,45)"/>
<path d="M0,0 L2,1 L3,8 L-6,9 L-8,8 L-8,14 L-6,15 L-10,14 L-9,7 L-14,7 L-14,3 L-12,3 L-12,6 L-8,6 L-8,3 L-2,3 L-2,1 Z " fill="#322C2D" transform="translate(51,25)"/>
<path d="M0,0 L12,0 L13,2 L1,2 L1,4 L-8,7 L-18,8 L-18,6 L-13,5 L-13,2 L-8,2 L-7,1 Z " fill="#666B6F" transform="translate(53,5)"/>
<path d="M0,0 L4,0 L4,2 L10,4 L7,5 L7,7 L9,8 L1,10 L-4,10 L-2,6 L-1,4 L-8,6 L-6,3 L-1,3 Z " fill="#060507" transform="translate(81,21)"/>
<path d="M0,0 L4,0 L4,9 L-11,9 L-11,7 L-8,7 L-7,4 L-2,3 Z " fill="#616B7C" transform="translate(146,75)"/>
<path d="M0,0 L6,0 L6,2 L9,3 L9,6 L1,5 L1,2 L-7,3 L-7,10 L-12,9 L-14,7 L-10,5 L-12,4 L-12,1 Z " fill="#47444F" transform="translate(81,68)"/>
<path d="M0,0 L9,0 L15,1 L14,3 L5,4 L5,6 L-1,6 L-1,9 L-5,9 L-4,2 L0,2 Z " fill="#1F1E1C" transform="translate(44,22)"/>
<path d="M0,0 L1,4 L-1,10 L2,12 L3,16 L0,16 L0,14 L-18,13 L-18,10 L-16,11 L-8,11 L-5,10 L-4,8 L-6,7 L-4,6 L-5,3 L-3,3 L-3,1 Z " fill="#3B4353" transform="translate(18,17)"/>
<path d="M0,0 L1,2 L-1,6 L5,6 L3,11 L2,14 L-8,13 L-7,6 L-2,6 L-1,1 Z " fill="#1A1F23" transform="translate(112,52)"/>
<path d="M0,0 L5,3 L8,6 L6,7 L5,10 L8,10 L9,18 L6,18 L6,15 L4,15 L1,10 L-4,9 L-4,8 L4,8 L4,6 L-1,7 Z " fill="#667480" transform="translate(28,37)"/>
<path d="M0,0 L1,3 L3,4 L2,6 L10,5 L10,3 L13,3 L13,5 L18,6 L18,8 L14,9 L0,8 L-2,7 L-1,1 Z " fill="#121619" transform="translate(112,0)"/>
<path d="M0,0 L15,1 L14,4 L14,2 L9,2 L9,5 L4,6 L4,8 L9,7 L7,8 L7,10 L0,10 L1,3 L-1,3 Z " fill="#2F3B41" transform="translate(31,5)"/>
<path d="M0,0 L6,1 L7,5 L10,5 L9,9 L5,8 L4,6 L-2,11 L-4,10 L-4,4 Z " fill="#4C5966" transform="translate(34,14)"/>
<path d="M0,0 L6,1 L6,3 L14,2 L15,5 L12,5 L12,7 L16,7 L16,9 L5,9 L5,4 L1,3 Z " fill="#4F677D" transform="translate(108,75)"/>
<path d="M0,0 L2,0 L2,3 L4,3 L4,12 L-4,10 L-5,1 L-3,1 L-3,5 L0,5 L0,3 L-2,3 L-2,1 Z " fill="#5B616C" transform="translate(146,57)"/>
<path d="M0,0 L1,2 L5,3 L5,6 L3,6 L2,9 L-2,7 L-8,7 L-9,10 L-11,9 L-11,3 L-4,3 L-1,1 Z " fill="#1B0D0D" transform="translate(54,30)"/>
<path d="M0,0 L7,1 L8,3 L12,5 L5,8 L2,13 L0,13 Z " fill="#05070B" transform="translate(0,4)"/>
<path d="M0,0 L3,3 L8,4 L9,1 L15,1 L16,5 L13,6 L12,8 L9,8 L9,6 L-1,6 L-1,4 L-3,3 Z " fill="#05080A" transform="translate(10,58)"/>
<path d="M0,0 L2,0 L2,6 L0,6 L0,9 L-8,9 L-9,11 L-12,10 L-10,4 L0,4 Z " fill="#0B101D" transform="translate(28,17)"/>
<path d="M0,0 L14,0 L18,1 L18,3 L11,3 L8,2 L8,4 L-7,3 L-7,1 Z " fill="#33363D" transform="translate(87,0)"/>
<path d="M0,0 L7,0 L13,3 L10,8 L4,8 L4,6 L2,6 L2,3 L0,3 Z " fill="#8893A1" transform="translate(15,73)"/>
<path d="M0,0 L2,3 L5,4 L5,2 L9,3 L6,3 L6,5 L2,5 L1,9 L0,6 L-3,6 L-5,12 L-6,14 L-8,14 L-8,12 L-10,11 L-8,7 L-3,2 Z " fill="#343C43" transform="translate(38,19)"/>
<path d="M0,0 L15,0 L15,1 L6,1 L9,5 L9,7 L1,8 L-3,6 L-3,4 L3,3 L3,1 Z " fill="#15181B" transform="translate(56,14)"/>
<path d="M0,0 L2,1 L1,5 L-3,4 L-3,6 L-7,6 L-7,9 L-12,9 L-13,4 L-11,4 L-11,2 L-5,2 Z " fill="#0C0F13" transform="translate(51,9)"/>
<path d="M0,0 L4,0 L4,4 L2,4 L2,7 L5,7 L6,12 L5,15 L0,15 Z " fill="#586373" transform="translate(0,69)"/>
<path d="M0,0 L2,0 L3,2 L3,8 L6,9 L5,13 L7,14 L4,16 L1,15 L0,13 L-2,13 L-1,9 L0,4 L-2,4 L-2,2 L0,2 Z " fill="#030405" transform="translate(115,46)"/>
<path d="M0,0 L3,1 L3,3 L7,4 L4,4 L6,9 L3,9 L3,11 L-3,13 L-6,12 L-6,10 L-2,10 L-2,6 L2,5 L2,2 L-1,1 Z " fill="#454D5E" transform="translate(46,58)"/>
<path d="M0,0 L11,1 L11,2 L2,2 L2,4 L4,5 L-11,5 L-12,1 L0,2 Z " fill="#222C3C" transform="translate(90,79)"/>
<path d="M0,0 L5,0 L4,2 L1,3 L-1,7 L0,11 L1,14 L-3,13 L-6,11 L-6,3 L-2,2 Z " fill="#818B9C" transform="translate(75,47)"/>
<path d="M0,0 L10,0 L14,2 L12,2 L11,6 L9,6 L8,9 L4,9 L4,7 L7,7 L6,5 L-2,5 L-2,3 L6,2 L0,1 Z " fill="#8697AB" transform="translate(116,73)"/>
<path d="M0,0 L7,0 L7,8 L1,7 L1,5 L-4,5 L-2,4 Z " fill="#010304" transform="translate(143,21)"/>
<path d="M0,0 L6,0 L6,3 L9,4 L6,4 L7,10 L6,11 L0,11 L1,15 L-2,15 L-1,10 L1,10 L2,6 L0,4 L4,4 L4,1 Z " fill="#7A89A0" transform="translate(126,69)"/>
<path d="M0,0 L5,0 L5,2 L3,2 L4,6 L-4,6 L-11,4 L-11,2 L-1,1 Z " fill="#5E6F82" transform="translate(75,78)"/>
<path d="M0,0 L6,1 L11,5 L11,8 L1,6 L1,4 L-2,4 Z " fill="#7A8493" transform="translate(4,48)"/>
<path d="M0,0 L3,0 L3,2 L7,3 L8,5 L14,4 L10,9 L1,8 L1,3 Z " fill="#3D434E" transform="translate(50,62)"/>
<path d="M0,0 L4,0 L5,3 L15,4 L15,5 L5,5 L3,9 L1,9 L0,5 L-4,4 L-2,2 L0,3 Z " fill="#1D1B1A" transform="translate(63,35)"/>
<path d="M0,0 L7,0 L7,5 L5,5 L4,13 L9,12 L9,14 L2,14 L3,7 L4,5 L1,5 L1,2 L-1,1 Z " fill="#464F5E" transform="translate(23,31)"/>
<path d="M0,0 L3,1 L3,5 L5,5 L5,3 L7,3 L6,6 L1,6 L1,11 L-2,12 L-2,10 L0,10 L0,6 L-5,6 L-4,1 Z " fill="#636A6E" transform="translate(103,51)"/>
<path d="M0,0 L11,0 L11,2 L3,4 L2,6 L4,6 L2,12 L0,9 L-1,1 Z " fill="#637074" transform="translate(28,2)"/>
<path d="M0,0 L4,0 L6,6 L3,7 L-9,5 L-10,3 L-2,3 L-2,1 Z " fill="#4E5F6F" transform="translate(25,48)"/>
<path d="M0,0 L5,1 L9,2 L9,4 L12,4 L13,8 L7,7 L2,5 L2,3 L0,3 Z " fill="#818D9A" transform="translate(27,65)"/>
<path d="M0,0 L7,3 L6,7 L4,9 L-3,9 L0,4 Z " fill="#677380" transform="translate(4,20)"/>
<path d="M0,0 L2,3 L3,6 L6,7 L7,11 L4,10 L4,12 L0,11 L-6,8 L-6,7 L1,8 L0,6 Z " fill="#7A8A97" transform="translate(82,56)"/>
<path d="M0,0 L12,0 L12,9 L9,9 L8,7 L5,5 L5,3 L7,2 L0,1 Z " fill="#13171B" transform="translate(138,0)"/>
<path d="M0,0 L1,4 L2,12 L-4,12 L-2,14 L-6,13 L-9,12 L-11,7 L0,9 L-1,1 Z " fill="#707F8F" transform="translate(81,52)"/>
<path d="M0,0 L5,1 L6,3 L6,1 L9,0 L9,4 L12,3 L11,8 L9,8 L9,6 L2,7 L1,3 L2,2 Z " fill="#4C4E59" transform="translate(9,6)"/>
<path d="M0,0 L6,0 L6,2 L11,2 L9,5 L2,6 L2,2 L-4,3 L-4,1 Z " fill="#343940" transform="translate(65,0)"/>
<path d="M0,0 L8,0 L8,1 L2,1 L2,7 L-6,7 L-7,3 L-1,2 Z " fill="#5C6475" transform="translate(133,77)"/>
<path d="M0,0 L4,2 L5,3 L5,8 L11,9 L10,14 L9,16 L7,16 L7,13 L4,11 L2,3 L-1,1 Z " fill="#414245" transform="translate(104,42)"/>
<path d="M0,0 L3,0 L3,6 L-3,6 L-3,10 L-5,10 L-5,2 Z " fill="#201F25" transform="translate(147,39)"/>
<path d="M0,0 L9,0 L9,5 L0,6 Z " fill="#0A1117" transform="translate(0,43)"/>
<path d="M0,0 L4,0 L5,2 L8,3 L9,1 L9,6 L3,6 L3,8 L1,8 L-1,1 Z " fill="#080B0F" transform="translate(137,7)"/>
<path d="M0,0 L9,2 L5,3 L6,9 L-4,9 L-4,7 L0,6 L3,5 L4,3 L1,3 Z " fill="#2E3C46" transform="translate(48,75)"/>
<path d="M0,0 L2,0 L4,9 L-1,9 L-1,7 L-3,7 L-3,1 Z " fill="#010205" transform="translate(50,52)"/>
<path d="M0,0 L3,1 L3,2 L-2,3 L-3,5 L2,5 L2,6 L-4,6 L-3,9 L-6,10 L-6,6 L-10,6 L-9,2 L-5,4 L-5,2 Z " fill="#3A4653" transform="translate(10,63)"/>
<path d="M0,0 L3,0 L3,2 L8,2 L8,8 L6,8 L6,5 L2,6 L2,8 L4,8 L4,10 L1,10 L1,6 L-1,5 L2,5 Z " fill="#39313B" transform="translate(142,52)"/>
<path d="M0,0 L2,1 L4,6 L4,0 L6,0 L7,2 L6,11 L5,13 L3,13 L3,9 L1,8 Z " fill="#202024" transform="translate(117,46)"/>
<path d="M0,0 L17,0 L16,3 L11,3 L11,5 L7,4 L10,4 L10,2 L0,2 Z " fill="#3B4346" transform="translate(29,0)"/>
<path d="M0,0 L15,0 L15,2 L6,3 L5,4 L-1,4 Z " fill="#0C141F" transform="translate(99,73)"/>
<path d="M0,0 L2,1 L1,5 L3,6 L1,6 L1,14 L3,14 L3,16 L0,15 L-1,6 L-4,6 L-3,2 Z " fill="#50555E" transform="translate(37,41)"/>
<path d="M0,0 L10,1 L11,4 L9,5 L3,5 L1,7 L-3,6 L0,5 L-1,3 L1,3 Z " fill="#6B7072" transform="translate(79,43)"/>
<path d="M0,0 L9,1 L9,3 L4,4 L4,6 L-3,6 L0,2 Z " fill="#070B12" transform="translate(6,69)"/>
<path d="M0,0 L1,2 L3,3 L-2,4 L-2,6 L1,7 L-11,7 L-10,4 L-5,5 L-5,2 L0,2 Z " fill="#141317" transform="translate(128,65)"/>
<path d="M0,0 L3,1 L1,4 L4,4 L6,9 L-1,10 L-1,1 Z " fill="#1E2A3A" transform="translate(1,48)"/>
<path d="M0,0 L5,1 L5,4 L-1,4 L0,8 L-4,8 L-4,3 L-6,2 L0,1 Z " fill="#99A4AF" transform="translate(59,69)"/>
<path d="M0,0 L1,0 L2,12 L-2,12 L-4,6 L-2,6 L-2,2 L0,2 Z " fill="#9BA5B2" transform="translate(96,52)"/>
<path d="M0,0 L7,2 L7,0 L9,0 L7,5 L5,7 L3,7 L2,10 L0,10 L0,6 L2,6 L2,2 L0,2 Z " fill="#232223" transform="translate(53,45)"/>
<path d="M0,0 L7,1 L8,4 L5,6 L1,5 L2,3 L-4,3 L-4,1 Z " fill="#919AA7" transform="translate(142,67)"/>
<path d="M0,0 L6,0 L6,2 L9,3 L9,6 L1,5 L1,2 L-2,1 Z " fill="#333336" transform="translate(81,68)"/>
<path d="M0,0 L5,0 L6,2 L1,5 L-5,6 L-5,4 L-8,2 L-7,1 Z " fill="#1F1C1E" transform="translate(82,30)"/>
<path d="M0,0 L3,0 L3,7 L-6,6 L-1,1 Z " fill="#798595" transform="translate(146,75)"/>
<path d="M0,0 L6,1 L6,3 L14,2 L15,5 L12,5 L11,7 L11,4 L2,4 Z " fill="#6E8BA4" transform="translate(108,75)"/>
<path d="M0,0 L4,0 L4,2 L7,2 L7,0 L15,0 L15,2 L9,3 L10,6 L8,7 L7,4 L0,1 Z " fill="#35393D" transform="translate(44,15)"/>
<path d="M0,0 L12,0 L13,2 L1,2 L1,4 L-6,5 L-2,1 Z " fill="#585960" transform="translate(53,5)"/>
<path d="M0,0 L5,0 L3,7 L5,8 L-1,9 L-2,4 L2,4 L2,2 L0,2 Z " fill="#3A3E42" transform="translate(107,0)"/>
<path d="M0,0 L3,1 L3,4 L11,5 L7,6 L7,8 L10,9 L7,10 L3,8 L2,2 L0,2 Z " fill="#C2D0DD" transform="translate(81,54)"/>
<path d="M0,0 L2,4 L2,8 L4,9 L4,2 L5,2 L5,10 L4,11 L-1,11 L-1,1 Z " fill="#606875" transform="translate(64,48)"/>
<path d="M0,0 L9,1 L8,4 L3,4 L3,6 L-2,5 L-3,2 Z " fill="#202529" transform="translate(115,11)"/>
<path d="M0,0 L5,0 L5,3 L12,4 L12,8 L9,8 L9,5 L4,5 L2,1 Z " fill="#3A4859" transform="translate(28,60)"/>
<path d="M0,0 L9,0 L9,4 L-1,3 Z " fill="#758493" transform="translate(8,65)"/>
<path d="M0,0 L2,0 L2,3 L4,4 L1,6 L-3,6 L-4,10 L-5,1 L-3,1 L-3,5 L0,5 L0,3 L-2,3 L-2,1 Z " fill="#444754" transform="translate(146,57)"/>
<path d="M0,0 L4,2 L4,5 L9,6 L6,8 L2,8 L2,5 L-3,4 L0,3 Z " fill="#637989" transform="translate(31,55)"/>
<path d="M0,0 L1,2 L18,4 L18,5 L3,5 L-3,4 L-2,1 Z " fill="#2E312C" transform="translate(80,39)"/>
<path d="M0,0 L7,1 L7,4 L-2,4 L-8,3 L-8,2 L-1,1 Z " fill="#525357" transform="translate(92,39)"/>
<path d="M0,0 L4,2 L4,4 L-1,6 L0,3 L-4,5 L-6,4 L-6,1 Z " fill="#543C37" transform="translate(52,36)"/>
<path d="M0,0 L2,0 L2,2 L0,2 L2,6 L0,10 L-5,11 L-3,8 L-3,1 Z " fill="#6A7484" transform="translate(13,18)"/>
<path d="M0,0 L3,0 L2,6 L-1,6 L-1,9 L-4,9 L-4,5 L-2,3 Z " fill="#5B616A" transform="translate(4,12)"/>
<path d="M0,0 L8,0 L13,3 L13,5 L5,4 L5,2 L0,1 Z " fill="#262A2F" transform="translate(96,9)"/>
<path d="M0,0 L1,0 L1,5 L5,6 L-10,6 L-6,5 L-6,3 L-1,2 Z " fill="#1A1C20" transform="translate(46,0)"/>
<path d="M0,0 L2,0 L2,4 L3,2 L7,3 L5,9 L1,8 Z " fill="#616C81" transform="translate(34,74)"/>
<path d="M0,0 L6,2 L3,7 L-3,7 L-3,5 L-5,5 L-5,2 L-3,2 L-3,4 L0,4 L0,6 L2,6 Z " fill="#7F8A9A" transform="translate(22,74)"/>
<path d="M0,0 L2,1 L2,5 L6,6 L-1,7 L-4,5 L-2,4 L-4,3 L-4,1 Z " fill="#71818F" transform="translate(92,59)"/>
<path d="M0,0 L2,1 L1,3 L5,4 L7,6 L4,8 L0,7 L-1,5 L-4,3 L0,3 Z " fill="#1D2024" transform="translate(57,60)"/>
<path d="M0,0 L4,0 L3,6 L1,6 L2,10 L0,10 L-2,7 L-1,3 Z " fill="#151D2C" transform="translate(75,50)"/>
<path d="M0,0 L6,2 L8,10 L7,13 L5,13 L4,5 L1,4 Z " fill="#202124" transform="translate(101,43)"/>
<path d="M0,0 L4,3 L2,3 L2,6 L0,6 L0,8 L-5,7 L-5,4 L0,2 Z " fill="#15191D" transform="translate(130,12)"/>
<path d="M0,0 L2,0 L2,2 L9,2 L13,3 L13,5 L5,5 L0,3 Z " fill="#20232F" transform="translate(75,74)"/>
<path d="M0,0 L16,0 L15,2 L3,3 Z " fill="#0C141B" transform="translate(94,69)"/>
<path d="M0,0 L6,0 L6,2 L10,3 L11,7 L6,7 L4,2 Z " fill="#2A373E" transform="translate(13,64)"/>
<path d="M0,0 L6,1 L6,3 L-9,3 L-9,1 Z " fill="#697D92" transform="translate(103,81)"/>
<path d="M0,0 L9,1 L9,3 L4,3 L4,5 L-3,3 L-3,1 Z " fill="#384554" transform="translate(60,77)"/>
<path d="M0,0 L6,0 L6,4 L4,4 L4,7 L1,7 Z " fill="#7A8592" transform="translate(97,57)"/>
<path d="M0,0 L3,0 L3,4 L9,4 L5,8 L1,7 Z " fill="#5D676E" transform="translate(15,41)"/>
<path d="M0,0 L7,2 L7,3 L1,4 L-8,4 L-6,2 Z " fill="#403E40" transform="translate(84,33)"/>
<path d="M0,0 L4,0 L4,2 L10,4 L10,5 L2,6 L1,3 L-1,3 Z " fill="#181819" transform="translate(81,21)"/>
<path d="M0,0 L5,1 L5,4 L3,4 L3,8 L0,8 L0,10 L4,11 L-1,11 L0,5 L3,1 Z " fill="#3E4852" transform="translate(12,69)"/>
<path d="M0,0 L8,1 L7,3 L-4,5 L-3,1 Z " fill="#141719" transform="translate(51,22)"/>
<path d="M0,0 L1,2 L5,2 L5,4 L10,4 L11,6 L7,6 L7,8 L4,7 L2,4 L-1,2 Z " fill="#0F1418" transform="translate(105,7)"/>
<path d="M0,0 L8,0 L12,2 L7,3 L-4,4 L-4,2 Z " fill="#445768" transform="translate(96,79)"/>
<path d="M0,0 L3,0 L3,3 L8,4 L9,7 L4,6 L1,5 Z " fill="#0A0B0E" transform="translate(57,58)"/>
<path d="M0,0 L2,0 L2,2 L6,1 L6,6 L1,6 L0,5 Z " fill="#151B21" transform="translate(19,39)"/>
<path d="M0,0 L6,2 L8,4 L1,6 L1,3 L-2,2 Z " fill="#0D0D10" transform="translate(66,32)"/>
<path d="M0,0 L7,1 L3,6 L2,8 L0,8 Z " fill="#090B10" transform="translate(0,9)"/>
<path d="M0,0 L10,3 L10,5 L-3,3 L-3,1 Z " fill="#A6A7AF" transform="translate(78,71)"/>
<path d="M0,0 L1,2 L-2,2 L-2,7 L-11,4 L-11,3 L-5,2 L-5,1 Z " fill="#121823" transform="translate(49,51)"/>
<path d="M0,0 L4,1 L1,1 L1,3 L-1,3 L-1,5 L-7,5 L-6,2 Z " fill="#303338" transform="translate(139,21)"/>
<path d="M0,0 L4,0 L5,2 L8,2 L7,5 L2,4 L1,6 L-1,4 L1,4 Z " fill="#6B7481" transform="translate(58,73)"/>
<path d="M0,0 L2,1 L3,8 L-1,8 L-2,3 L0,3 Z " fill="#131B25" transform="translate(78,53)"/>
<path d="M0,0 L4,1 L4,3 L2,3 L2,7 L-1,8 L-2,5 L-5,3 L0,3 Z " fill="#6E7888" transform="translate(28,23)"/>
<path d="M0,0 L7,1 L4,5 L7,5 L7,7 L3,6 L0,3 Z " fill="#4D5257" transform="translate(138,3)"/>
<path d="M0,0 L6,0 L6,3 L9,4 L6,4 L6,7 L3,6 L0,4 L4,4 L4,1 Z " fill="#808692" transform="translate(126,69)"/>
<path d="M0,0 L4,0 L6,3 L6,7 L3,7 L3,4 L1,4 Z " fill="#7A8E9F" transform="translate(31,48)"/>
<path d="M0,0 L6,0 L8,5 L6,4 L6,2 L0,3 L0,5 L-2,5 L-1,1 Z " fill="#1A2431" transform="translate(23,46)"/>
<path d="M0,0 L5,1 L5,3 L-3,4 L-6,2 Z " fill="#15191B" transform="translate(60,18)"/>
<path d="M0,0 L8,1 L10,5 L6,4 L0,1 Z " fill="#9EA7B6" transform="translate(76,63)"/>
<path d="M0,0 L2,0 L2,5 L0,12 L-3,8 L-2,4 L1,4 Z " fill="#2F3B41" transform="translate(25,59)"/>
<path d="M0,0 L3,1 L3,3 L7,4 L4,4 L6,9 L2,8 L1,5 L2,2 L-1,1 Z " fill="#424754" transform="translate(46,58)"/>
<path d="M0,0 L3,3 L7,4 L7,6 L-1,6 L-1,4 L-3,3 Z " fill="#101926" transform="translate(10,58)"/>
<path d="M0,0 L4,2 L6,4 L4,5 L-3,5 L-3,3 L-1,3 Z " fill="#80899A" transform="translate(137,72)"/>
<path d="M0,0 L4,1 L4,7 L-1,5 Z " fill="#505F67" transform="translate(51,70)"/>
<path d="M0,0 L4,1 L5,6 L1,5 L-1,4 Z " fill="#59697B" transform="translate(26,49)"/>
<path d="M0,0 L2,0 L2,6 L-2,5 L-4,4 L-3,1 Z " fill="#1A0706" transform="translate(50,39)"/>
<path d="M0,0 L4,0 L4,6 L0,7 Z " fill="#40393F" transform="translate(38,32)"/>
<path d="M0,0 L1,2 L5,3 L5,6 L3,6 L2,9 L0,5 L2,5 L2,3 L-1,2 Z " fill="#321210" transform="translate(54,30)"/>
<path d="M0,0 L8,2 L8,4 L0,4 Z " fill="#3A3F43" transform="translate(107,17)"/>
<path d="M0,0 L7,0 L7,3 L-7,3 L-7,2 L0,2 Z " fill="#16171D" transform="translate(60,2)"/>
<path d="M0,0 L2,0 L1,6 L4,7 L-1,7 L-2,2 L0,2 Z " fill="#8895A5" transform="translate(49,67)"/>
<path d="M0,0 L5,1 L2,4 L-2,5 L-2,2 L-4,1 Z " fill="#010107" transform="translate(4,57)"/>
<path d="M0,0 L9,0 L9,2 L2,3 L0,2 Z " fill="#666767" transform="translate(69,40)"/>
<path d="M0,0 L1,0 L2,8 L3,10 L-1,10 L-1,4 L-4,3 L0,3 Z " fill="#252936" transform="translate(20,11)"/>
<path d="M0,0 L6,0 L8,1 L8,5 L3,5 L4,2 Z " fill="#404449" transform="translate(122,9)"/>
<path d="M0,0 L4,0 L3,4 L4,6 L3,8 L1,8 L-1,1 Z " fill="#13171B" transform="translate(137,7)"/>
<path d="M0,0 L4,2 L4,4 L-2,4 L-2,2 L-6,1 Z " fill="#3C4240" transform="translate(76,42)"/>
<path d="M0,0 L3,0 L3,2 L5,2 L3,7 L0,5 Z " fill="#0D0B10" transform="translate(116,40)"/>
<path d="M0,0 L9,1 L7,3 L-2,3 L-2,1 Z " fill="#0F1013" transform="translate(85,36)"/>
<path d="M0,0 L2,0 L2,2 L7,2 L7,5 L2,5 L0,3 Z " fill="#636D79" transform="translate(21,16)"/>
<path d="M0,0 L8,0 L7,2 L4,2 L4,4 L1,4 Z " fill="#303E54" transform="translate(126,80)"/>
<path d="M0,0 L5,0 L5,2 L3,2 L4,5 L0,5 L0,3 L-3,2 Z " fill="#7D899A" transform="translate(75,78)"/>
<path d="M0,0 L2,1 L-2,5 L-10,4 L-10,1 L-2,3 L-2,1 Z " fill="#19222C" transform="translate(12,72)"/>
<path d="M0,0 L1,4 L2,12 L-4,10 L0,9 L-1,1 Z " fill="#505964" transform="translate(81,52)"/>
<path d="M0,0 L5,0 L6,4 L0,3 Z " fill="#748190" transform="translate(15,48)"/>
<path d="M0,0 L9,1 L9,2 L4,2 L4,4 L1,4 Z " fill="#3B3F4E" transform="translate(78,80)"/>
<path d="M0,0 L2,0 L2,2 L-2,3 L-3,5 L-6,5 L-6,1 Z " fill="#212433" transform="translate(141,77)"/>
<path d="M0,0 L1,2 L6,3 L6,5 L-2,4 Z " fill="#657282" transform="translate(28,68)"/>
<path d="M0,0 L2,0 L0,7 L-1,9 L-3,9 L-3,5 L0,5 L-1,1 Z " fill="#4A5264" transform="translate(135,68)"/>
<path d="M0,0 L5,0 L5,2 L7,3 L4,5 L1,4 Z " fill="#0B0E14" transform="translate(115,57)"/>
<path d="M0,0 L2,1 L1,3 L-2,3 L-2,5 L-7,5 L-5,4 L-4,1 Z " fill="#393B41" transform="translate(115,58)"/>
<path d="M0,0 L2,0 L4,10 L0,9 Z " fill="#42474F" transform="translate(61,52)"/>
<path d="M0,0 L3,1 L1,4 L4,4 L3,6 L0,5 L-1,9 L-1,1 Z " fill="#3A4959" transform="translate(1,48)"/>
<path d="M0,0 L6,1 L6,3 L-2,4 Z " fill="#96A2B0" transform="translate(4,48)"/>
<path d="M0,0 L7,2 L7,5 L0,3 Z " fill="#343745" transform="translate(30,37)"/>
<path d="M0,0 L3,0 L3,3 L-1,3 L-1,6 L-3,6 L-3,4 L-5,3 L0,2 Z " fill="#0C1013" transform="translate(118,15)"/>
<path d="M0,0 L5,1 L3,4 L-2,4 L-2,2 L-4,1 Z " fill="#404B57" transform="translate(25,14)"/>
<path d="M0,0 L3,4 L3,6 L-1,7 L-1,5 L-3,5 L-3,3 L0,3 Z " fill="#32383E" transform="translate(24,2)"/>
<path d="M0,0 L3,0 L3,3 L-5,3 L-5,1 Z " fill="#070917" transform="translate(87,81)"/>
<path d="M0,0 L6,0 L9,3 L0,2 Z " fill="#17212F" transform="translate(10,81)"/>
<path d="M0,0 L2,0 L2,6 L0,9 L-3,4 L-1,4 L0,2 L-2,1 Z " fill="#5A667A" transform="translate(45,70)"/>
<path d="M0,0 L9,0 L8,4 L6,4 L6,2 L0,2 Z " fill="#54616B" transform="translate(89,65)"/>
<path d="M0,0 L3,0 L3,2 L6,2 L6,5 L2,5 Z " fill="#80848F" transform="translate(50,62)"/>
<path d="M0,0 L2,0 L3,7 L1,7 L0,4 L-2,4 L-2,2 L0,2 Z " fill="#0A090B" transform="translate(115,46)"/>
<path d="M0,0 L6,0 L4,3 L2,3 L2,5 L0,5 Z " fill="#363330" transform="translate(58,42)"/>
<path d="M0,0 L4,1 L7,3 L7,5 L0,3 Z " fill="#474448" transform="translate(107,39)"/>
<path d="M0,0 L4,3 L4,5 L2,5 L2,7 L-1,7 Z " fill="#748091" transform="translate(28,37)"/>
<path d="M0,0 L1,4 L-2,6 L-4,5 L-4,1 L0,2 Z " fill="#5A6474" transform="translate(34,19)"/>
<path d="M0,0 L1,4 L3,4 L2,7 L-3,6 L-2,2 L0,3 Z " fill="#566370" transform="translate(30,11)"/>
<path d="M0,0 L2,1 L3,8 L-1,10 L0,4 Z " fill="#63656D" transform="translate(8,9)"/>
<path d="M0,0 L3,0 L2,6 L4,6 L3,11 L1,8 Z " fill="#74818A" transform="translate(27,3)"/>
<path d="M0,0 L8,0 L6,1 L6,3 L1,3 Z " fill="#70757A" transform="translate(1,0)"/>
<path d="M0,0 L9,0 L8,3 L5,4 L5,2 L0,1 Z " fill="#13191C" transform="translate(20,0)"/>
<path d="M0,0 L3,0 L4,3 L3,5 L-1,5 Z " fill="#244156" transform="translate(110,79)"/>
<path d="M0,0 L2,0 L3,6 L1,6 L1,3 L-3,3 L-3,1 Z " fill="#5A6576" transform="translate(15,76)"/>
<path d="M0,0 L5,1 L5,3 L-4,4 Z " fill="#160E19" transform="translate(139,54)"/>
<path d="M0,0 L5,0 L4,2 L-1,5 L-3,5 L-1,1 Z " fill="#939BA9" transform="translate(75,47)"/>
<path d="M0,0 L1,3 L1,9 L0,5 L-3,5 L-2,1 Z " fill="#555B64" transform="translate(36,42)"/>
<path d="M0,0 L2,0 L3,5 L2,7 L0,7 L0,5 L-2,4 Z " fill="#1F2738" transform="translate(30,26)"/>
<path d="M0,0 L2,1 L1,4 L1,2 L-1,2 L0,7 L-3,6 L-4,3 L-2,3 L-2,1 Z " fill="#272423" transform="translate(51,25)"/>
<path d="M0,0 L1,4 L-1,4 L-2,7 L-3,7 L-3,1 Z " fill="#747F8C" transform="translate(38,24)"/>
<path d="M0,0 L6,0 L6,2 L4,2 L4,4 L0,3 Z " fill="#23272B" transform="translate(140,13)"/>
<path d="M0,0 L4,2 L1,4 L1,7 L-1,7 L-2,1 Z " fill="#1F2328" transform="translate(136,5)"/>
<path d="M0,0 L1,0 L1,7 L-3,7 L-1,2 Z " fill="#90A4B8" transform="translate(148,75)"/>
<path d="M0,0 L2,0 L2,5 L-2,5 L-2,1 Z " fill="#272938" transform="translate(139,58)"/>
<path d="M0,0 L3,0 L3,2 L7,2 L7,4 L0,3 Z " fill="#3C4652" transform="translate(11,58)"/>
<path d="M0,0 L1,3 L-4,5 L-6,4 L-6,2 L0,2 Z " fill="#647388" transform="translate(45,56)"/>
<path d="M0,0 L4,0 L4,2 L7,1 L7,6 L6,3 L0,2 Z " fill="#1D1D1E" transform="translate(109,48)"/>
<path d="M0,0 L3,2 L3,6 L-1,4 Z " fill="#313233" transform="translate(103,46)"/>
<path d="M0,0 L5,0 L5,3 L-2,2 Z " fill="#293344" transform="translate(23,23)"/>
<path d="M0,0 L4,0 L5,3 L-4,3 L0,2 Z " fill="#050709" transform="translate(40,3)"/>
<path d="M0,0 L4,0 L3,6 L1,6 Z " fill="#0F191D" transform="translate(53,78)"/>
<path d="M0,0 L5,1 L5,4 L1,3 Z " fill="#64778C" transform="translate(108,75)"/>
<path d="M0,0 L9,2 L9,3 L1,3 Z " fill="#253339" transform="translate(48,75)"/>
<path d="M0,0 L5,0 L5,3 L-1,4 Z " fill="#53555F" transform="translate(117,67)"/>
<path d="M0,0 L3,1 L3,5 L-1,5 Z " fill="#353C44" transform="translate(99,52)"/>
<path d="M0,0 L3,2 L3,7 L1,7 L-1,4 Z " fill="#2F384C" transform="translate(74,53)"/>
<path d="M0,0 L2,0 L3,3 L7,5 L0,5 Z " fill="#32343E" transform="translate(38,49)"/>
<path d="M0,0 L2,1 L1,4 L-4,4 L-4,1 L0,2 Z " fill="#0E161E" transform="translate(14,35)"/>
<path d="M0,0 L2,0 L5,4 L5,7 L3,7 L0,2 Z " fill="#0C1014" transform="translate(116,31)"/>
<path d="M0,0 L1,4 L-1,3 Z M-2,4 L-1,6 L1,6 L1,9 L-2,9 Z " fill="#454E5E" transform="translate(34,27)"/>
<path d="M0,0 L2,0 L2,3 L5,4 L5,6 L1,5 Z " fill="#43474D" transform="translate(136,12)"/>
<path d="M0,0 L2,0 L2,3 L5,3 L4,7 L2,7 Z " fill="#747782" transform="translate(9,10)"/>
<path d="M0,0 L5,1 L5,3 L-1,3 Z " fill="#1F2125" transform="translate(84,8)"/>
<path d="M0,0 L6,0 L7,3 L2,2 Z " fill="#222535" transform="translate(67,75)"/>
<path d="M0,0 L5,1 L5,4 L1,4 Z " fill="#A3A8B4" transform="translate(59,69)"/>
<path d="M0,0 L2,0 L4,5 L1,5 L1,3 L-1,3 Z " fill="#444F5A" transform="translate(68,58)"/>
<path d="M0,0 L7,3 L7,4 L0,4 Z " fill="#8D9095" transform="translate(89,44)"/>
<path d="M0,0 L1,2 L3,2 L2,6 L-1,5 Z " fill="#352F36" transform="translate(39,42)"/>
<path d="M0,0 L2,1 L2,7 L-1,7 Z " fill="#050709" transform="translate(40,24)"/>
<path d="M0,0 L3,1 L2,5 L0,5 L0,3 L-3,4 L-4,2 L0,2 Z " fill="#3E464E" transform="translate(44,16)"/>
<path d="M0,0 L4,1 L4,3 L1,3 L1,5 L-1,5 Z " fill="#0F1B20" transform="translate(33,8)"/>
<path d="M0,0 L4,0 L4,4 L0,3 Z " fill="#6F7B84" transform="translate(0,69)"/>
<path d="M0,0 L2,1 L1,5 L-5,4 L-1,2 Z " fill="#101216" transform="translate(113,61)"/>
<path d="M0,0 L5,0 L6,4 L2,3 L2,1 Z " fill="#1B2831" transform="translate(28,60)"/>
<path d="M0,0 L2,0 L2,2 L4,2 L4,4 L2,4 L1,6 Z " fill="#20252B" transform="translate(65,59)"/>
<path d="M0,0 L2,0 L0,6 L-2,6 L-1,1 Z " fill="#75747A" transform="translate(59,51)"/>
<path d="M0,0 L3,0 L3,5 L0,4 Z " fill="#252E3C" transform="translate(65,52)"/>
<path d="M0,0 L1,2 L3,2 L2,6 L-1,3 Z " fill="#3E5669" transform="translate(31,50)"/>
<path d="M0,0 L1,0 L1,6 L3,7 L-1,9 Z " fill="#1B141C" transform="translate(135,46)"/>
<path d="M0,0 L2,0 L3,6 L1,7 Z " fill="#181217" transform="translate(43,42)"/>
<path d="M0,0 L4,2 L0,6 L0,3 L-2,2 L0,2 Z " fill="#626C79" transform="translate(32,40)"/>
<path d="M0,0 L2,0 L1,6 L-1,6 L-1,1 Z " fill="#171D2E" transform="translate(33,24)"/>
<path d="M0,0 L3,0 L3,2 L5,3 L-1,3 L-2,1 Z " fill="#0E0F10" transform="translate(85,26)"/>
<path d="M0,0 L2,4 L1,7 L-2,6 Z " fill="#151C30" transform="translate(18,21)"/>
<path d="M0,0 L3,0 L1,5 L-3,3 L0,3 Z " fill="#111111" transform="translate(70,21)"/>
<path d="M0,0 L3,0 L2,4 L-2,3 L-2,1 Z " fill="#2B3949" transform="translate(32,17)"/>
<path d="M0,0 L2,3 L4,3 L4,6 L0,6 Z " fill="#1A1F24" transform="translate(21,9)"/>
<path d="M0,0 L3,0 L3,2 L1,2 L1,4 L3,5 L1,5 L0,7 L-1,1 Z " fill="#5F606D" transform="translate(14,5)"/>
<path d="M0,0 L3,0 L3,4 L-1,3 Z " fill="#758394" transform="translate(36,79)"/>
<path d="M0,0 L6,2 L2,4 Z " fill="#788397" transform="translate(22,74)"/>
<path d="M0,0 L3,4 L-1,6 L-1,1 Z " fill="#13161E" transform="translate(112,66)"/>
<path d="M0,0 L4,1 L4,3 L0,5 Z " fill="#777F8D" transform="translate(146,68)"/>
<path d="M0,0 L4,2 L0,4 L0,2 L-2,1 Z " fill="#0B0E0F" transform="translate(129,63)"/>
<path d="M0,0 L5,1 L5,3 L0,2 Z " fill="#020607" transform="translate(61,62)"/>
<path d="M0,0 L6,2 L6,4 L2,3 Z " fill="#505D6C" transform="translate(5,54)"/>
<path d="M0,0 L7,0 L7,2 L3,3 L0,2 Z " fill="#30353C" transform="translate(63,46)"/>
<path d="M0,0 L4,1 L0,4 L-2,2 Z " fill="#3B4653" transform="translate(20,45)"/>
<path d="M0,0 L5,1 L5,4 L1,4 Z " fill="#111114" transform="translate(101,43)"/>
<path d="M0,0 L2,0 L3,4 L-3,2 Z " fill="#0B0A0B" transform="translate(88,31)"/>
<path d="M0,0 L4,1 L4,3 L-1,3 Z " fill="#404144" transform="translate(133,23)"/>
<path d="M0,0 L3,0 L2,5 L0,5 Z " fill="#0E1423" transform="translate(0,22)"/>
<path d="M0,0 L3,0 L2,5 L0,5 Z " fill="#93969B" transform="translate(4,12)"/>
<path d="M0,0 L7,1 L3,3 L1,3 Z " fill="#32363A" transform="translate(105,6)"/>
<path d="M0,0 L2,0 L2,2 L4,3 L-3,3 Z " fill="#21262B" transform="translate(78,1)"/>
<path d="M0,0 L5,0 L1,4 L-1,1 Z " fill="#030307" transform="translate(15,0)"/>
<path d="M0,0 L2,0 L2,3 L-3,3 L-3,1 Z " fill="#727C91" transform="translate(133,81)"/>
<path d="M0,0 L5,2 L5,3 L-1,3 Z " fill="#262531" transform="translate(118,69)"/>
<path d="M0,0 L4,1 L4,3 L-1,3 Z " fill="#677382" transform="translate(51,70)"/>
<path d="M0,0 L4,2 L5,5 L2,5 Z " fill="#66707F" transform="translate(70,59)"/>
<path d="M0,0 L2,0 L1,4 L-1,6 L-1,1 Z " fill="#040405" transform="translate(56,51)"/>
<path d="M0,0 L3,1 L4,4 L0,4 Z " fill="#3A4045" transform="translate(45,48)"/>
<path d="M0,0 L2,0 L1,4 L-3,3 Z " fill="#929BAC" transform="translate(4,25)"/>
<path d="M0,0 L3,1 L1,4 L-1,4 L-1,2 L-3,1 Z " fill="#100D10" transform="translate(76,27)"/>
<path d="M0,0 L4,0 L4,3 L0,3 Z " fill="#272B2F" transform="translate(127,26)"/>
<path d="M0,0 L3,0 L3,3 L-1,4 Z " fill="#050505" transform="translate(48,23)"/>
<path d="M0,0 L4,1 L-1,3 L-4,1 Z " fill="#26272B" transform="translate(58,19)"/>
<path d="M0,0 L4,2 L3,3 L-2,3 L-2,1 Z " fill="#050508" transform="translate(55,17)"/>
<path d="M0,0 L1,4 L-3,3 L-3,1 Z " fill="#474C5C" transform="translate(18,17)"/>
<path d="M0,0 L4,0 L4,3 L0,3 Z " fill="#323335" transform="translate(75,13)"/>
<path d="M0,0 L3,0 L3,4 L0,4 Z " fill="#52718B" transform="translate(113,80)"/>
<path d="M0,0 L1,0 L1,5 L-3,3 Z " fill="#4A4C58" transform="translate(73,71)"/>
<path d="M0,0 L5,0 L5,3 L2,3 L2,1 Z " fill="#757D91" transform="translate(43,60)"/>
<path d="M0,0 L2,0 L0,5 L-2,5 Z " fill="#424648" transform="translate(113,53)"/>
<path d="M0,0 L1,2 L3,3 L-1,5 L-2,3 Z " fill="#242932" transform="translate(80,49)"/>
<path d="M0,0 L4,1 L1,4 Z " fill="#14171B" transform="translate(138,28)"/>
<path d="M0,0 L3,0 L2,6 L0,2 Z " fill="#151414" transform="translate(41,25)"/>
<path d="M0,0 L4,1 L4,3 L1,4 Z " fill="#768090" transform="translate(28,23)"/>
<path d="M0,0 L4,0 L3,3 L0,3 Z " fill="#6B6E7E" transform="translate(15,15)"/>
<path d="M0,0 L4,1 L4,3 L0,3 Z " fill="#404549" transform="translate(125,16)"/>
<path d="M0,0 L5,0 L3,1 L3,3 L-1,1 Z " fill="#3E3F48" transform="translate(92,1)"/>
<path d="M0,0 L2,3 L-2,3 L-2,1 Z " fill="#8C8D99" transform="translate(64,72)"/>
<path d="M0,0 L2,0 L2,4 L-1,3 Z " fill="#313A4F" transform="translate(148,71)"/>
<path d="M0,0 L3,0 L3,2 L5,3 L0,2 Z " fill="#5F5A66" transform="translate(64,70)"/>
<path d="M0,0 L2,4 L-3,5 Z " fill="#262B36" transform="translate(110,67)"/>
<path d="M0,0 L4,1 L4,3 L0,3 Z " fill="#3B464C" transform="translate(92,69)"/>
<path d="M0,0 L2,0 L2,4 L-1,4 Z " fill="#A4ADBA" transform="translate(49,67)"/>
<path d="M0,0 L4,1 L4,3 L0,3 Z " fill="#7A838F" transform="translate(135,64)"/>
<path d="M0,0 L2,0 L2,2 L4,4 L0,4 L-1,1 Z " fill="#1B1E26" transform="translate(49,57)"/>
<path d="M0,0 L2,0 L2,3 L-2,3 L-2,1 Z " fill="#585560" transform="translate(146,57)"/>
<path d="M0,0 L3,1 L3,3 L-1,3 Z " fill="#8897A8" transform="translate(26,49)"/>
<path d="M0,0 L5,1 L2,2 L1,4 L1,2 L-1,1 Z " fill="#1B191F" transform="translate(144,50)"/>
<path d="M0,0 L3,0 L2,4 L0,3 Z " fill="#828B98" transform="translate(15,48)"/>
<path d="M0,0 L3,1 L1,4 L-1,4 Z " fill="#455262" transform="translate(1,48)"/>
<path d="M0,0 L2,0 L1,4 L-1,5 Z " fill="#8692A2" transform="translate(9,23)"/>
<path d="M0,0 L0,3 L-2,5 L-2,1 Z " fill="#2B3647" transform="translate(38,19)"/>
<path d="M0,0 L3,1 L2,4 L0,4 Z " fill="#161920" transform="translate(0,13)"/>
<path d="M0,0 L3,1 L3,3 L-1,3 Z " fill="#3B3F45" transform="translate(68,3)"/>
<path d="M0,0 L2,4 L-1,4 Z " fill="#5D6F87" transform="translate(125,80)"/>
<path d="M0,0 L2,1 L2,4 L-1,3 Z " fill="#000002" transform="translate(56,80)"/>
<path d="M0,0 L5,1 L5,3 L0,1 Z " fill="#04080D" transform="translate(94,69)"/>
<path d="M0,0 L2,0 L2,4 L0,4 L-1,1 Z " fill="#22202A" transform="translate(67,68)"/>
<path d="M0,0 L2,4 L-1,4 Z " fill="#111927" transform="translate(22,67)"/>
<path d="M0,0 L3,3 L0,4 L-1,2 Z " fill="#828D9E" transform="translate(73,57)"/>
<path d="M0,0 L4,1 L4,3 L0,2 Z " fill="#4C4C4E" transform="translate(110,45)"/>
<path d="M0,0 L2,0 L2,4 L-1,3 Z " fill="#464D60" transform="translate(30,26)"/>
<path d="M0,0 L4,2 L-1,3 Z " fill="#909296" transform="translate(49,6)"/>
<path d="M0,0 L4,1 L0,3 Z " fill="#3C3F46" transform="translate(72,2)"/>
<path d="M0,0 L4,3 L1,4 Z " fill="#3E4C5D" transform="translate(46,72)"/>
<path d="M0,0 L3,1 L2,3 L-1,2 Z " fill="#8C98A7" transform="translate(33,67)"/>
<path d="M0,0 L2,1 L2,3 L-2,2 Z " fill="#8D949A" transform="translate(84,65)"/>
<path d="M0,0 L3,1 L3,3 L0,3 Z " fill="#070911" transform="translate(77,57)"/>
<path d="M0,0 L3,1 L3,3 L0,3 Z " fill="#231925" transform="translate(141,54)"/>
<path d="M0,0 L2,0 L1,3 L-2,2 Z " fill="#565E6A" transform="translate(71,48)"/>
<path d="M0,0 L2,3 L2,5 L-1,4 Z " fill="#29242B" transform="translate(42,44)"/>
<path d="M0,0 L3,1 L-1,3 Z " fill="#636160" transform="translate(61,42)"/>
<path d="M0,0 L3,0 L2,3 L0,3 Z " fill="#4A3638" transform="translate(46,37)"/>
<path d="M0,0 L2,0 L2,3 L-1,3 Z " fill="#7B8393" transform="translate(6,26)"/>
<path d="M0,0 L2,0 L2,3 L-1,3 Z " fill="#060A13" transform="translate(25,8)"/>
<path d="M0,0 L3,1 L3,3 L0,2 Z " fill="#56748E" transform="translate(120,77)"/>
<path d="M0,0 L3,1 L3,3 L0,2 Z " fill="#9CADC2" transform="translate(37,70)"/>
<path d="M0,0 L3,1 L3,3 L0,2 Z " fill="#232735" transform="translate(49,64)"/>
<path d="M0,0 L3,1 L2,3 L0,3 Z " fill="#152934" transform="translate(36,56)"/>
<path d="M0,0 L3,1 L3,3 L0,2 Z " fill="#828A91" transform="translate(102,53)"/>
<path d="M0,0 L2,2 L-1,3 Z " fill="#2B0B09" transform="translate(47,40)"/>
<path d="M0,0 L2,0 L1,3 L-1,1 Z " fill="#2F0D0C" transform="translate(50,39)"/>
<path d="M0,0 L2,0 L1,3 L-1,1 Z " fill="#060B0F" transform="translate(113,29)"/>
<path d="M0,0 L2,1 L2,3 L-1,2 Z " fill="#56595F" transform="translate(135,23)"/>
</svg>
