<?xml version="1.0" encoding="UTF-8"?>
<svg xmlns="http://www.w3.org/2000/svg" viewBox="0 0 320 320" width="120" height="120">
  <style>rect{shape-rendering:crispEdges}</style>
  <g fill="#000000">
    <rect x="0" y="0" width="180" height="10"/>
    <rect x="260" y="0" width="50" height="10"/>
    <rect x="0" y="10" width="170" height="10"/>
    <rect x="290" y="10" width="20" height="10"/>
    <rect x="0" y="20" width="150" height="10"/>
    <rect x="300" y="20" width="10" height="10"/>
    <rect x="0" y="30" width="140" height="10"/>
    <rect x="300" y="30" width="10" height="10"/>
    <rect x="0" y="40" width="140" height="10"/>
    <rect x="300" y="40" width="10" height="10"/>
    <rect x="0" y="50" width="130" height="10"/>
    <rect x="0" y="60" width="130" height="10"/>
    <rect x="0" y="70" width="130" height="10"/>
    <rect x="190" y="70" width="50" height="10"/>
    <rect x="0" y="80" width="130" height="10"/>
    <rect x="190" y="80" width="70" height="10"/>
    <rect x="0" y="90" width="130" height="10"/>
    <rect x="190" y="90" width="70" height="10"/>
    <rect x="0" y="100" width="130" height="10"/>
    <rect x="200" y="100" width="60" height="10"/>
    <rect x="0" y="110" width="140" height="10"/>
    <rect x="200" y="110" width="60" height="10"/>
    <rect x="0" y="120" width="140" height="10"/>
    <rect x="200" y="120" width="60" height="10"/>
    <rect x="0" y="130" width="90" height="10"/>
    <rect x="130" y="130" width="10" height="10"/>
    <rect x="200" y="130" width="60" height="10"/>
    <rect x="0" y="140" width="40" height="10"/>
    <rect x="200" y="140" width="40" height="10"/>
    <rect x="0" y="150" width="30" height="10"/>
    <rect x="200" y="150" width="30" height="10"/>
    <rect x="300" y="150" width="10" height="10"/>
    <rect x="0" y="160" width="30" height="10"/>
    <rect x="190" y="160" width="40" height="10"/>
    <rect x="290" y="160" width="20" height="10"/>
    <rect x="0" y="170" width="30" height="10"/>
    <rect x="190" y="170" width="50" height="10"/>
    <rect x="280" y="170" width="30" height="10"/>
    <rect x="0" y="180" width="10" height="10"/>
    <rect x="190" y="180" width="50" height="10"/>
    <rect x="270" y="180" width="40" height="10"/>
    <rect x="190" y="190" width="120" height="10"/>
    <rect x="200" y="200" width="110" height="10"/>
    <rect x="200" y="210" width="110" height="10"/>
    <rect x="200" y="220" width="110" height="10"/>
    <rect x="190" y="230" width="120" height="10"/>
    <rect x="0" y="240" width="10" height="10"/>
    <rect x="190" y="240" width="120" height="10"/>
    <rect x="0" y="250" width="30" height="10"/>
    <rect x="170" y="250" width="140" height="10"/>
    <rect x="0" y="260" width="30" height="10"/>
    <rect x="170" y="260" width="140" height="10"/>
    <rect x="0" y="270" width="40" height="10"/>
    <rect x="170" y="270" width="140" height="10"/>
    <rect x="0" y="280" width="50" height="10"/>
    <rect x="160" y="280" width="150" height="10"/>
    <rect x="0" y="290" width="60" height="10"/>
    <rect x="150" y="290" width="160" height="10"/>
    <rect x="0" y="300" width="70" height="10"/>
    <rect x="150" y="300" width="160" height="10"/>
    <rect x="0" y="310" width="80" height="10"/>
    <rect x="120" y="310" width="190" height="10"/>
  </g>
  <g fill="#5b4a3a">
    <rect x="180" y="0" width="10" height="10"/>
    <rect x="250" y="70" width="10" height="10"/>
    <rect x="140" y="150" width="10" height="10"/>
    <rect x="290" y="150" width="10" height="10"/>
  </g>
  <g fill="#675443">
    <rect x="190" y="0" width="70" height="10"/>
    <rect x="260" y="10" width="20" height="10"/>
    <rect x="290" y="30" width="10" height="10"/>
    <rect x="290" y="40" width="10" height="10"/>
    <rect x="130" y="50" width="10" height="10"/>
    <rect x="130" y="60" width="10" height="10"/>
    <rect x="130" y="70" width="10" height="10"/>
    <rect x="130" y="80" width="10" height="10"/>
    <rect x="130" y="90" width="10" height="10"/>
    <rect x="170" y="160" width="10" height="10"/>
  </g>
  <g fill="#695544">
    <rect x="170" y="10" width="10" height="10"/>
    <rect x="280" y="20" width="10" height="10"/>
    <rect x="190" y="50" width="50" height="10"/>
    <rect x="300" y="50" width="10" height="10"/>
    <rect x="300" y="60" width="10" height="10"/>
    <rect x="170" y="70" width="10" height="10"/>
    <rect x="300" y="70" width="10" height="10"/>
    <rect x="170" y="80" width="10" height="10"/>
    <rect x="260" y="80" width="10" height="10"/>
    <rect x="300" y="80" width="10" height="10"/>
    <rect x="170" y="90" width="10" height="10"/>
    <rect x="260" y="90" width="10" height="10"/>
    <rect x="300" y="90" width="10" height="10"/>
    <rect x="260" y="100" width="10" height="10"/>
    <rect x="300" y="100" width="10" height="10"/>
    <rect x="260" y="110" width="10" height="10"/>
    <rect x="300" y="110" width="10" height="10"/>
    <rect x="260" y="120" width="10" height="10"/>
    <rect x="300" y="120" width="10" height="10"/>
    <rect x="300" y="130" width="10" height="10"/>
    <rect x="180" y="150" width="10" height="10"/>
    <rect x="130" y="160" width="10" height="10"/>
    <rect x="130" y="170" width="10" height="10"/>
    <rect x="170" y="170" width="10" height="10"/>
    <rect x="250" y="170" width="20" height="10"/>
    <rect x="150" y="190" width="20" height="10"/>
  </g>
  <g fill="#eed5ad">
    <rect x="180" y="10" width="10" height="10"/>
    <rect x="250" y="10" width="10" height="10"/>
    <rect x="180" y="20" width="10" height="10"/>
    <rect x="240" y="20" width="20" height="10"/>
    <rect x="170" y="30" width="10" height="10"/>
    <rect x="160" y="40" width="10" height="10"/>
    <rect x="260" y="40" width="10" height="10"/>
    <rect x="260" y="150" width="10" height="10"/>
  </g>
  <g fill="#fbebd0">
    <rect x="190" y="10" width="60" height="10"/>
    <rect x="190" y="20" width="50" height="10"/>
  </g>
  <g fill="#2e2217">
    <rect x="280" y="10" width="10" height="10"/>
    <rect x="150" y="30" width="10" height="10"/>
    <rect x="190" y="60" width="50" height="10"/>
    <rect x="130" y="100" width="10" height="10"/>
    <rect x="190" y="100" width="10" height="10"/>
    <rect x="300" y="140" width="10" height="10"/>
    <rect x="240" y="150" width="10" height="10"/>
    <rect x="280" y="160" width="10" height="10"/>
    <rect x="240" y="170" width="10" height="10"/>
    <rect x="250" y="180" width="20" height="10"/>
    <rect x="10" y="190" width="10" height="10"/>
  </g>
  <g fill="#0c0805">
    <rect x="150" y="20" width="10" height="10"/>
    <rect x="140" y="30" width="10" height="10"/>
    <rect x="180" y="70" width="10" height="10"/>
    <rect x="180" y="80" width="10" height="10"/>
    <rect x="180" y="90" width="10" height="10"/>
    <rect x="30" y="150" width="10" height="10"/>
    <rect x="230" y="150" width="10" height="10"/>
    <rect x="180" y="160" width="10" height="10"/>
    <rect x="180" y="170" width="10" height="10"/>
    <rect x="270" y="170" width="10" height="10"/>
    <rect x="180" y="180" width="10" height="10"/>
    <rect x="240" y="180" width="10" height="10"/>
    <rect x="0" y="190" width="10" height="10"/>
    <rect x="180" y="190" width="10" height="10"/>
    <rect x="190" y="220" width="10" height="10"/>
    <rect x="180" y="230" width="10" height="10"/>
    <rect x="180" y="240" width="10" height="10"/>
    <rect x="60" y="290" width="10" height="10"/>
    <rect x="140" y="300" width="10" height="10"/>
  </g>
  <g fill="#382e25">
    <rect x="160" y="20" width="10" height="10"/>
    <rect x="290" y="20" width="10" height="10"/>
    <rect x="180" y="60" width="10" height="10"/>
    <rect x="190" y="110" width="10" height="10"/>
    <rect x="190" y="120" width="10" height="10"/>
    <rect x="190" y="130" width="10" height="10"/>
    <rect x="190" y="140" width="10" height="10"/>
    <rect x="250" y="140" width="10" height="10"/>
    <rect x="190" y="150" width="10" height="10"/>
  </g>
  <g fill="#aa9477">
    <rect x="170" y="20" width="10" height="10"/>
    <rect x="270" y="20" width="10" height="10"/>
    <rect x="140" y="80" width="10" height="10"/>
    <rect x="140" y="90" width="10" height="10"/>
  </g>
  <g fill="#99866e">
    <rect x="260" y="20" width="10" height="10"/>
    <rect x="280" y="30" width="10" height="10"/>
    <rect x="280" y="40" width="10" height="10"/>
    <rect x="150" y="100" width="10" height="10"/>
    <rect x="140" y="160" width="10" height="10"/>
    <rect x="140" y="170" width="10" height="10"/>
  </g>
  <g fill="#766451">
    <rect x="160" y="30" width="10" height="10"/>
    <rect x="240" y="50" width="10" height="10"/>
  </g>
  <g fill="#ead1a9">
    <rect x="180" y="30" width="80" height="10"/>
    <rect x="150" y="50" width="10" height="10"/>
    <rect x="270" y="50" width="10" height="10"/>
    <rect x="150" y="60" width="10" height="10"/>
    <rect x="150" y="70" width="10" height="10"/>
    <rect x="290" y="70" width="10" height="10"/>
    <rect x="290" y="80" width="10" height="10"/>
    <rect x="290" y="90" width="10" height="10"/>
    <rect x="290" y="100" width="10" height="10"/>
    <rect x="290" y="110" width="10" height="10"/>
    <rect x="290" y="120" width="10" height="10"/>
    <rect x="270" y="130" width="10" height="10"/>
  </g>
  <g fill="#dcc194">
    <rect x="260" y="30" width="10" height="10"/>
    <rect x="270" y="40" width="10" height="10"/>
    <rect x="280" y="50" width="10" height="10"/>
    <rect x="280" y="60" width="20" height="10"/>
    <rect x="280" y="130" width="10" height="10"/>
    <rect x="260" y="140" width="20" height="10"/>
    <rect x="250" y="160" width="20" height="10"/>
  </g>
  <g fill="#d8bb8d">
    <rect x="270" y="30" width="10" height="10"/>
    <rect x="170" y="40" width="10" height="10"/>
    <rect x="160" y="50" width="10" height="10"/>
    <rect x="290" y="50" width="10" height="10"/>
    <rect x="160" y="110" width="10" height="10"/>
    <rect x="160" y="120" width="10" height="10"/>
    <rect x="160" y="130" width="10" height="10"/>
    <rect x="290" y="130" width="10" height="10"/>
    <rect x="160" y="140" width="10" height="10"/>
    <rect x="160" y="150" width="10" height="10"/>
    <rect x="270" y="150" width="10" height="10"/>
  </g>
  <g fill="#46392d">
    <rect x="140" y="40" width="10" height="10"/>
    <rect x="240" y="60" width="10" height="10"/>
    <rect x="180" y="100" width="10" height="10"/>
    <rect x="140" y="110" width="10" height="10"/>
    <rect x="140" y="120" width="10" height="10"/>
    <rect x="140" y="130" width="10" height="10"/>
    <rect x="140" y="140" width="10" height="10"/>
    <rect x="230" y="160" width="10" height="10"/>
  </g>
  <g fill="#84705a">
    <rect x="150" y="40" width="10" height="10"/>
    <rect x="170" y="60" width="10" height="10"/>
    <rect x="250" y="60" width="10" height="10"/>
    <rect x="150" y="110" width="10" height="10"/>
    <rect x="150" y="120" width="10" height="10"/>
    <rect x="150" y="130" width="10" height="10"/>
    <rect x="150" y="140" width="10" height="10"/>
    <rect x="150" y="150" width="10" height="10"/>
    <rect x="240" y="160" width="10" height="10"/>
    <rect x="140" y="180" width="30" height="10"/>
  </g>
  <g fill="#b5a58c">
    <rect x="180" y="40" width="10" height="10"/>
    <rect x="160" y="60" width="10" height="10"/>
  </g>
  <g fill="#a99c87">
    <rect x="190" y="40" width="70" height="10"/>
    <rect x="170" y="50" width="10" height="10"/>
    <rect x="250" y="50" width="20" height="10"/>
    <rect x="260" y="60" width="10" height="10"/>
    <rect x="160" y="70" width="10" height="10"/>
    <rect x="260" y="70" width="20" height="10"/>
    <rect x="160" y="80" width="10" height="10"/>
    <rect x="270" y="80" width="10" height="10"/>
    <rect x="160" y="90" width="10" height="10"/>
    <rect x="270" y="90" width="10" height="10"/>
    <rect x="270" y="100" width="10" height="10"/>
    <rect x="170" y="110" width="10" height="10"/>
    <rect x="270" y="110" width="10" height="10"/>
    <rect x="170" y="120" width="10" height="10"/>
    <rect x="270" y="120" width="10" height="10"/>
    <rect x="170" y="130" width="10" height="10"/>
    <rect x="260" y="130" width="10" height="10"/>
    <rect x="170" y="140" width="10" height="10"/>
    <rect x="170" y="150" width="10" height="10"/>
    <rect x="150" y="160" width="20" height="10"/>
    <rect x="150" y="170" width="20" height="10"/>
  </g>
  <g fill="#cbb592">
    <rect x="140" y="50" width="10" height="10"/>
    <rect x="140" y="60" width="10" height="10"/>
    <rect x="270" y="60" width="10" height="10"/>
    <rect x="140" y="70" width="10" height="10"/>
    <rect x="280" y="70" width="10" height="10"/>
    <rect x="150" y="80" width="10" height="10"/>
    <rect x="280" y="80" width="10" height="10"/>
    <rect x="150" y="90" width="10" height="10"/>
    <rect x="280" y="90" width="10" height="10"/>
    <rect x="160" y="100" width="10" height="10"/>
    <rect x="280" y="100" width="10" height="10"/>
    <rect x="280" y="110" width="10" height="10"/>
    <rect x="280" y="120" width="10" height="10"/>
  </g>
  <g fill="#725e4c">
    <rect x="180" y="50" width="10" height="10"/>
    <rect x="140" y="100" width="10" height="10"/>
    <rect x="180" y="110" width="10" height="10"/>
    <rect x="180" y="120" width="10" height="10"/>
    <rect x="180" y="130" width="10" height="10"/>
    <rect x="180" y="140" width="10" height="10"/>
    <rect x="250" y="150" width="10" height="10"/>
    <rect x="270" y="160" width="10" height="10"/>
  </g>
  <g fill="#191008">
    <rect x="240" y="70" width="10" height="10"/>
    <rect x="240" y="140" width="10" height="10"/>
    <rect x="10" y="180" width="10" height="10"/>
    <rect x="140" y="290" width="10" height="10"/>
    <rect x="120" y="300" width="10" height="10"/>
  </g>
  <g fill="#8b7b67">
    <rect x="170" y="100" width="10" height="10"/>
    <rect x="290" y="140" width="10" height="10"/>
    <rect x="280" y="150" width="10" height="10"/>
  </g>
  <g fill="#461f05">
    <rect x="90" y="130" width="10" height="10"/>
    <rect x="30" y="200" width="10" height="10"/>
    <rect x="140" y="240" width="20" height="10"/>
    <rect x="120" y="260" width="10" height="10"/>
    <rect x="120" y="270" width="10" height="10"/>
    <rect x="100" y="280" width="20" height="10"/>
  </g>
  <g fill="#492006">
    <rect x="100" y="130" width="30" height="10"/>
    <rect x="70" y="150" width="20" height="10"/>
    <rect x="60" y="170" width="10" height="10"/>
    <rect x="40" y="190" width="10" height="10"/>
    <rect x="150" y="230" width="30" height="10"/>
    <rect x="130" y="240" width="10" height="10"/>
    <rect x="160" y="240" width="10" height="10"/>
    <rect x="120" y="250" width="20" height="10"/>
    <rect x="110" y="270" width="10" height="10"/>
    <rect x="120" y="280" width="10" height="10"/>
  </g>
  <g fill="#291708">
    <rect x="40" y="140" width="50" height="10"/>
    <rect x="130" y="140" width="10" height="10"/>
    <rect x="20" y="180" width="10" height="10"/>
    <rect x="190" y="200" width="10" height="10"/>
    <rect x="190" y="210" width="10" height="10"/>
    <rect x="180" y="220" width="10" height="10"/>
    <rect x="10" y="240" width="10" height="10"/>
    <rect x="30" y="260" width="10" height="10"/>
    <rect x="70" y="300" width="10" height="10"/>
    <rect x="130" y="300" width="10" height="10"/>
  </g>
  <g fill="#4a270a">
    <rect x="90" y="140" width="10" height="10"/>
    <rect x="130" y="150" width="10" height="10"/>
    <rect x="140" y="230" width="10" height="10"/>
    <rect x="110" y="260" width="10" height="10"/>
    <rect x="40" y="270" width="10" height="10"/>
    <rect x="160" y="270" width="10" height="10"/>
    <rect x="50" y="280" width="10" height="10"/>
    <rect x="150" y="280" width="10" height="10"/>
    <rect x="110" y="310" width="10" height="10"/>
  </g>
  <g fill="#6a3815">
    <rect x="100" y="140" width="10" height="10"/>
    <rect x="60" y="150" width="10" height="10"/>
    <rect x="50" y="170" width="10" height="10"/>
    <rect x="20" y="190" width="10" height="10"/>
    <rect x="60" y="190" width="10" height="10"/>
    <rect x="120" y="190" width="10" height="10"/>
    <rect x="80" y="200" width="10" height="10"/>
    <rect x="120" y="200" width="20" height="10"/>
    <rect x="70" y="210" width="10" height="10"/>
    <rect x="120" y="210" width="10" height="10"/>
    <rect x="150" y="210" width="10" height="10"/>
    <rect x="70" y="220" width="10" height="10"/>
    <rect x="120" y="220" width="10" height="10"/>
    <rect x="160" y="220" width="20" height="10"/>
    <rect x="60" y="230" width="20" height="10"/>
    <rect x="110" y="230" width="10" height="10"/>
    <rect x="60" y="240" width="50" height="10"/>
    <rect x="70" y="250" width="20" height="10"/>
    <rect x="80" y="260" width="10" height="10"/>
  </g>
  <g fill="#75492a">
    <rect x="110" y="140" width="20" height="10"/>
    <rect x="140" y="190" width="10" height="10"/>
  </g>
  <rect fill="#b99e69" x="280" y="140" width="10" height="10"/>
  <g fill="#6f4815">
    <rect x="40" y="150" width="20" height="10"/>
    <rect x="80" y="270" width="10" height="10"/>
    <rect x="60" y="280" width="10" height="10"/>
    <rect x="110" y="300" width="10" height="10"/>
  </g>
  <g fill="#5a2e10">
    <rect x="90" y="150" width="10" height="10"/>
    <rect x="70" y="160" width="20" height="10"/>
    <rect x="70" y="170" width="10" height="10"/>
    <rect x="50" y="180" width="10" height="10"/>
    <rect x="50" y="190" width="10" height="10"/>
    <rect x="40" y="200" width="10" height="10"/>
    <rect x="30" y="210" width="10" height="10"/>
    <rect x="130" y="210" width="20" height="10"/>
    <rect x="130" y="220" width="10" height="10"/>
    <rect x="120" y="230" width="20" height="10"/>
    <rect x="110" y="240" width="20" height="10"/>
    <rect x="90" y="250" width="30" height="10"/>
    <rect x="90" y="260" width="10" height="10"/>
    <rect x="90" y="270" width="10" height="10"/>
  </g>
  <g fill="#79451b">
    <rect x="100" y="150" width="10" height="10"/>
    <rect x="90" y="160" width="10" height="10"/>
    <rect x="80" y="170" width="20" height="10"/>
    <rect x="40" y="180" width="10" height="10"/>
    <rect x="80" y="180" width="10" height="10"/>
    <rect x="120" y="180" width="10" height="10"/>
    <rect x="70" y="190" width="50" height="10"/>
    <rect x="60" y="200" width="20" height="10"/>
    <rect x="40" y="210" width="30" height="10"/>
    <rect x="40" y="220" width="10" height="10"/>
    <rect x="50" y="230" width="10" height="10"/>
    <rect x="40" y="260" width="10" height="10"/>
    <rect x="90" y="300" width="20" height="10"/>
  </g>
  <g fill="#905b35">
    <rect x="110" y="150" width="10" height="10"/>
    <rect x="110" y="160" width="20" height="10"/>
    <rect x="130" y="180" width="10" height="10"/>
    <rect x="130" y="190" width="10" height="10"/>
    <rect x="140" y="200" width="10" height="10"/>
    <rect x="160" y="200" width="10" height="10"/>
    <rect x="160" y="210" width="20" height="10"/>
    <rect x="40" y="230" width="10" height="10"/>
  </g>
  <g fill="#976631">
    <rect x="120" y="150" width="10" height="10"/>
    <rect x="120" y="170" width="10" height="10"/>
    <rect x="150" y="200" width="10" height="10"/>
    <rect x="170" y="200" width="10" height="10"/>
    <rect x="50" y="240" width="10" height="10"/>
  </g>
  <g fill="#58350d">
    <rect x="30" y="160" width="10" height="10"/>
    <rect x="30" y="170" width="10" height="10"/>
    <rect x="30" y="180" width="10" height="10"/>
    <rect x="30" y="190" width="10" height="10"/>
    <rect x="0" y="200" width="10" height="10"/>
    <rect x="0" y="210" width="10" height="10"/>
    <rect x="0" y="220" width="10" height="10"/>
    <rect x="20" y="240" width="10" height="10"/>
    <rect x="170" y="240" width="10" height="10"/>
    <rect x="30" y="250" width="10" height="10"/>
    <rect x="160" y="250" width="10" height="10"/>
    <rect x="160" y="260" width="10" height="10"/>
    <rect x="130" y="280" width="20" height="10"/>
    <rect x="70" y="290" width="20" height="10"/>
    <rect x="120" y="290" width="20" height="10"/>
    <rect x="80" y="300" width="10" height="10"/>
    <rect x="80" y="310" width="30" height="10"/>
  </g>
  <g fill="#eedd64">
    <rect x="40" y="160" width="20" height="10"/>
    <rect x="90" y="200" width="20" height="10"/>
    <rect x="40" y="240" width="10" height="10"/>
    <rect x="50" y="250" width="20" height="10"/>
  </g>
  <g fill="#d8a131">
    <rect x="60" y="160" width="10" height="10"/>
    <rect x="80" y="210" width="10" height="10"/>
    <rect x="60" y="260" width="10" height="10"/>
  </g>
  <g fill="#88571c">
    <rect x="100" y="160" width="10" height="10"/>
    <rect x="10" y="200" width="10" height="10"/>
    <rect x="10" y="210" width="10" height="10"/>
    <rect x="10" y="220" width="10" height="10"/>
    <rect x="110" y="220" width="10" height="10"/>
    <rect x="10" y="230" width="10" height="10"/>
    <rect x="130" y="260" width="10" height="10"/>
    <rect x="50" y="270" width="10" height="10"/>
  </g>
  <g fill="#b27929">
    <rect x="40" y="170" width="10" height="10"/>
    <rect x="20" y="200" width="10" height="10"/>
    <rect x="20" y="210" width="10" height="10"/>
    <rect x="100" y="210" width="20" height="10"/>
    <rect x="20" y="220" width="10" height="10"/>
    <rect x="100" y="220" width="10" height="10"/>
    <rect x="20" y="230" width="10" height="10"/>
    <rect x="80" y="230" width="20" height="10"/>
    <rect x="30" y="240" width="10" height="10"/>
    <rect x="40" y="250" width="10" height="10"/>
    <rect x="140" y="250" width="10" height="10"/>
    <rect x="130" y="270" width="10" height="10"/>
    <rect x="150" y="270" width="10" height="10"/>
    <rect x="90" y="290" width="30" height="10"/>
  </g>
  <g fill="#6f3d17">
    <rect x="100" y="170" width="20" height="10"/>
    <rect x="70" y="180" width="10" height="10"/>
    <rect x="90" y="180" width="30" height="10"/>
    <rect x="50" y="200" width="10" height="10"/>
    <rect x="50" y="220" width="20" height="10"/>
  </g>
  <g fill="#552b0d">
    <rect x="60" y="180" width="10" height="10"/>
    <rect x="170" y="190" width="10" height="10"/>
    <rect x="180" y="200" width="10" height="10"/>
    <rect x="180" y="210" width="10" height="10"/>
    <rect x="140" y="220" width="20" height="10"/>
    <rect x="0" y="230" width="10" height="10"/>
    <rect x="100" y="260" width="10" height="10"/>
    <rect x="100" y="270" width="10" height="10"/>
    <rect x="90" y="280" width="10" height="10"/>
  </g>
  <rect fill="#573112" x="170" y="180" width="10" height="10"/>
  <g fill="#e8bb43">
    <rect x="110" y="200" width="10" height="10"/>
    <rect x="30" y="230" width="10" height="10"/>
    <rect x="70" y="270" width="10" height="10"/>
    <rect x="80" y="280" width="10" height="10"/>
  </g>
  <g fill="#ba832c">
    <rect x="90" y="210" width="10" height="10"/>
    <rect x="30" y="220" width="10" height="10"/>
    <rect x="80" y="220" width="20" height="10"/>
    <rect x="150" y="250" width="10" height="10"/>
    <rect x="50" y="260" width="10" height="10"/>
    <rect x="70" y="260" width="10" height="10"/>
    <rect x="140" y="260" width="20" height="10"/>
    <rect x="60" y="270" width="10" height="10"/>
    <rect x="140" y="270" width="10" height="10"/>
    <rect x="70" y="280" width="10" height="10"/>
  </g>
  <rect fill="#9d681e" x="100" y="230" width="10" height="10"/>
</svg>
