<?xml version="1.0" encoding="UTF-8"?>
<!-- Generator: visioncortex VTracer 0.6.5 -->
<svg version="1.1" xmlns="http://www.w3.org/2000/svg" width="150" height="85">
<path d="M0,0 L150,0 L150,85 L0,85 Z " fill="#3E3642" transform="translate(0,0)"/>
<path d="M0,0 L77,0 L77,10 L69,10 L65,8 L67,12 L67,22 L61,36 L59,36 L58,20 L57,17 L48,18 L43,21 L39,23 L38,25 L37,40 L36,43 L36,51 L40,52 L43,47 L45,43 L47,43 L47,47 L51,47 L52,40 L42,40 L42,36 L47,36 L47,38 L51,38 L51,36 L53,36 L53,31 L55,32 L55,40 L60,40 L60,42 L58,42 L58,45 L56,45 L54,50 L51,51 L50,54 L48,54 L48,52 L43,56 L40,60 L35,58 L29,53 L29,51 L16,53 L-2,54 L-8,57 L-19,57 L-19,50 L-24,50 L-24,57 L-29,58 L-33,56 L-31,55 L-33,49 L-32,43 L-27,36 L-27,23 L-24,18 L-16,19 L-14,23 L-7,22 L-3,20 Z " fill="#493F51" transform="translate(73,0)"/>
<path d="M0,0 L45,0 L45,10 L37,10 L33,8 L35,12 L35,22 L29,36 L27,36 L26,20 L25,17 L16,18 L11,21 L7,23 L6,25 L5,40 L4,43 L4,51 L8,52 L11,47 L13,43 L15,43 L15,47 L19,47 L20,40 L10,40 L10,36 L15,36 L15,38 L19,38 L19,36 L21,36 L21,31 L23,32 L23,40 L28,40 L28,42 L26,42 L26,45 L24,45 L22,50 L19,51 L18,54 L16,54 L16,52 L11,56 L9,59 L7,59 L7,57 L4,57 L4,55 L2,55 L1,51 L-1,51 L-4,42 L-5,41 L-5,27 L-3,22 L-1,22 L-1,20 L-5,19 L-3,19 L-3,17 L-6,17 L-8,15 L-13,16 L-17,13 L-17,9 L-11,10 L-10,12 L0,10 L5,7 L0,7 Z " fill="#5A504C" transform="translate(105,0)"/>
<path d="M0,0 L12,2 L12,32 L4,33 L2,34 L-10,32 L-11,24 L-12,28 L-14,28 L-14,30 L-18,30 L-18,28 L-23,28 L-23,32 L-13,32 L-14,39 L-18,39 L-18,35 L-20,35 L-22,42 L-25,45 L-29,44 L-30,43 L-30,35 L-29,32 L-28,17 L-24,13 L-18,10 L-13,8 L-8,8 L-6,12 L-6,28 L-4,28 L-1,18 L1,14 L1,4 Z " fill="#51413C" transform="translate(138,8)"/>
<path d="M0,0 L6,0 L9,3 L6,11 L3,15 L1,15 L1,18 L-4,21 L-13,21 L-13,23 L-15,23 L-15,25 L-25,26 L-30,25 L-31,28 L-70,28 L-70,14 L-61,14 L-61,21 L-52,21 L-50,22 L-45,22 L-45,24 L-42,24 L-42,26 L-39,26 L-38,23 L-41,22 L-41,20 L-36,21 L-20,21 L-21,16 L-30,15 L-31,6 L-28,3 L-5,2 L-3,8 L-3,11 L1,11 Z " fill="#2A2736" transform="translate(70,57)"/>
<path d="M0,0 L4,1 L4,3 L11,5 L16,10 L15,15 L18,25 L27,25 L28,26 L28,31 L11,32 L11,30 L7,30 L10,33 L9,37 L6,36 L6,34 L3,34 L3,32 L-3,33 L-4,32 L-13,31 L-13,24 L-21,25 L-22,24 L-22,11 L-19,12 L-5,12 L-6,9 L-2,2 Z " fill="#48413E" transform="translate(22,47)"/>
<path d="M0,0 L3,1 L1,2 L-1,6 L-9,6 L-9,14 L-5,13 L-4,8 L2,7 L5,8 L5,6 L8,6 L8,8 L10,8 L11,21 L8,24 L3,25 L-1,26 L-3,25 L-3,31 L-52,31 L-51,28 L-47,27 L-44,28 L-36,28 L-36,26 L-34,26 L-34,24 L-25,23 L-20,21 L-20,18 L-18,18 L-16,14 L-13,6 L-13,4 L-21,3 L-20,5 L-20,14 L-24,14 L-27,4 L-22,1 Z " fill="#363038" transform="translate(91,54)"/>
<path d="M0,0 L3,0 L2,4 L0,4 L-2,8 L-4,11 L-5,22 L-17,20 L-23,19 L-23,25 L-18,26 L-18,29 L-21,30 L-21,41 L-44,41 L-44,35 L-38,34 L-33,33 L-31,33 L-31,18 L-33,18 L-33,16 L-36,16 L-36,18 L-45,18 L-45,23 L-50,24 L-50,16 L-42,15 L-40,11 L-36,7 L-30,7 L-26,11 L-26,13 L-19,15 L-13,8 L-11,8 L-11,10 L-3,4 L-2,2 L0,2 Z " fill="#2F2932" transform="translate(132,44)"/>
<path d="M0,0 L19,0 L19,4 L11,5 L9,10 L20,10 L29,11 L30,15 L27,16 L24,36 L20,37 L19,41 L17,44 L12,43 L10,40 L10,30 L8,19 L7,12 L1,12 L1,7 L4,7 L4,3 L0,2 Z " fill="#292328" transform="translate(19,0)"/>
<path d="M0,0 L25,0 L25,7 L28,6 L41,6 L41,7 L30,8 L23,12 L15,13 L14,10 L8,9 L8,13 L12,15 L16,16 L17,14 L19,14 L19,17 L22,17 L22,19 L24,20 L24,22 L22,23 L20,28 L17,32 L15,30 L13,30 L13,28 L6,28 L2,26 L2,15 L-1,14 Z M13,27 Z " fill="#433A39" transform="translate(80,0)"/>
<path d="M0,0 L12,2 L12,32 L4,33 L2,34 L-10,32 L-10,15 L-7,16 L-6,28 L-4,28 L-1,18 L1,14 L1,4 Z " fill="#361B1B" transform="translate(138,8)"/>
<path d="M0,0 L4,1 L9,4 L8,14 L17,15 L18,19 L27,19 L28,20 L28,25 L11,26 L11,24 L7,24 L10,27 L9,31 L6,30 L6,28 L3,28 L3,26 L-3,27 L-4,26 L-13,25 L-13,18 L-15,17 L-11,16 L-1,16 L6,21 L6,14 L3,14 L-1,7 L-3,6 L-1,1 Z " fill="#685455" transform="translate(22,53)"/>
<path d="M0,0 L19,0 L18,5 L15,14 L12,20 L14,20 L13,24 L11,27 L2,27 L2,24 L0,24 Z " fill="#775A5D" transform="translate(0,0)"/>
<path d="M0,0 L1,2 L10,3 L10,27 L5,28 L4,25 L-2,24 L-2,27 L-4,27 L-4,29 L-15,30 L-15,25 L-12,22 L-11,20 L-2,20 L-2,4 Z " fill="#39373D" transform="translate(140,45)"/>
<path d="M0,0 L5,1 L9,3 L9,5 L14,7 L14,17 L8,31 L6,31 L5,15 L4,12 L-5,13 L-9,15 L-14,14 L-13,6 L-12,3 L-1,2 Z " fill="#604844" transform="translate(126,5)"/>
<path d="M0,0 L45,0 L45,10 L37,10 L33,8 L34,11 L30,10 L30,8 L26,7 L21,5 L21,7 L0,7 Z " fill="#382125" transform="translate(105,0)"/>
<path d="M0,0 L1,0 L1,22 L-1,23 L-11,23 L-12,14 L-17,15 L-17,4 L-11,3 L-4,2 Z " fill="#2C2126" transform="translate(17,25)"/>
<path d="M0,0 L4,1 L4,5 L1,5 L1,10 L7,10 L7,15 L6,11 L4,11 L3,16 L3,19 L1,31 L1,42 L-1,47 L-4,50 L-12,49 L-14,47 L-15,40 L-19,38 L-14,37 L-13,39 L-13,46 L-1,45 L-2,24 L-6,26 L-16,28 L-19,27 L-19,22 L-17,22 L-17,25 L-8,24 L-5,18 L-7,18 L-4,9 L-2,3 Z " fill="#3D3032" transform="translate(19,2)"/>
<path d="M0,0 L6,0 L8,11 L7,15 L-5,15 L-6,11 L-18,10 L-18,7 L-16,7 L-16,2 L-15,1 Z " fill="#1A1E29" transform="translate(58,62)"/>
<path d="M0,0 L3,0 L2,4 L0,4 L-2,8 L-4,11 L-5,22 L-17,20 L-23,19 L-23,25 L-18,26 L-18,29 L-23,31 L-27,22 L-26,18 L-24,16 L-26,13 L-19,15 L-13,8 L-11,8 L-11,10 L-3,4 L-2,2 L0,2 Z " fill="#332E3A" transform="translate(132,44)"/>
<path d="M0,0 L19,0 L19,4 L11,5 L9,10 L20,10 L29,11 L30,15 L27,17 L23,17 L23,15 L16,17 L11,17 L9,12 L10,20 L7,17 L7,12 L1,12 L1,7 L4,7 L4,3 L0,2 Z " fill="#312B2B" transform="translate(19,0)"/>
<path d="M0,0 L17,0 L19,4 L18,11 L14,12 L13,11 L-10,10 L-9,5 L-8,4 L0,4 Z " fill="#4B4545" transform="translate(38,0)"/>
<path d="M0,0 L6,0 L7,4 L12,3 L12,16 L-4,16 L-3,11 L-4,9 L-9,7 L-9,5 L-2,5 L-2,3 L0,3 Z " fill="#88829D" transform="translate(138,69)"/>
<path d="M0,0 L11,0 L16,4 L19,4 L19,6 L29,7 L38,7 L39,5 L30,4 L30,3 L39,3 L40,4 L40,9 L23,10 L23,8 L19,8 L22,11 L21,15 L18,14 L18,12 L15,12 L15,10 L9,11 L8,10 L-1,9 L-1,2 L-3,1 Z " fill="#504245" transform="translate(10,69)"/>
<path d="M0,0 L14,0 L11,19 L1,20 L0,15 L-2,15 L-2,13 L2,12 L0,6 L2,1 Z " fill="#382234" transform="translate(58,0)"/>
<path d="M0,0 L5,3 L7,7 L9,9 L5,11 L7,20 L10,23 L10,33 L-4,33 L0,29 L2,23 L2,11 L-1,6 L-5,7 L-3,1 Z " fill="#282128" transform="translate(101,52)"/>
<path d="M0,0 L5,1 L6,8 L12,10 L17,10 L19,9 L17,16 L18,19 L3,19 L0,17 Z M19,8 Z " fill="#423948" transform="translate(0,41)"/>
<path d="M0,0 L2,1 L2,9 L7,9 L7,11 L5,11 L5,14 L3,14 L1,19 L-2,20 L-3,23 L-5,23 L-5,21 L-10,25 L-12,28 L-14,28 L-15,24 L-12,22 L-8,12 L-6,12 L-6,16 L-2,16 L-1,9 L-11,9 L-11,5 L-6,5 L-6,7 L-2,7 L-2,5 L0,5 Z " fill="#6D6068" transform="translate(126,31)"/>
<path d="M0,0 L1,0 L1,5 L5,4 L6,6 L11,8 L12,11 L10,11 L10,15 L-5,15 L-5,12 L-11,12 L-11,10 L-9,10 L-8,5 L-3,5 L-3,1 Z " fill="#3D4550" transform="translate(124,70)"/>
<path d="M0,0 L4,1 L4,3 L11,5 L16,10 L15,15 L16,21 L8,21 L7,19 L8,10 L3,7 L-1,8 L-3,12 L0,13 L0,16 L-4,14 L-6,9 L-2,2 Z " fill="#514654" transform="translate(22,47)"/>
<path d="M0,0 L16,0 L16,5 L11,5 L11,11 L9,11 L9,13 L4,17 L2,17 L1,20 L0,20 Z " fill="#5F5673" transform="translate(0,0)"/>
<path d="M0,0 L7,0 L7,12 L6,14 L10,15 L10,20 L2,21 L1,19 L-2,20 L-1,4 Z " fill="#4B4245" transform="translate(73,0)"/>
<path d="M0,0 L9,0 L9,7 L17,7 L15,14 L0,14 Z " fill="#39304A" transform="translate(0,71)"/>
<path d="M0,0 L5,1 L16,1 L15,5 L11,5 L10,8 L-14,8 L-14,3 L-11,1 L-9,2 L-4,2 L-4,4 L-1,4 L-1,6 L2,6 L3,3 L0,2 Z " fill="#3C3239" transform="translate(29,77)"/>
<path d="M0,0 L13,2 L19,4 L19,7 L-18,7 L-17,4 L-13,3 L-10,4 L-2,4 L-2,2 L0,2 Z " fill="#3E344A" transform="translate(57,78)"/>
<path d="M0,0 L5,0 L7,4 L7,16 L6,16 L5,8 L3,7 L2,10 L2,6 L-4,7 L-5,14 L-12,14 L-13,10 L-12,7 L-6,3 L-4,1 Z " fill="#4C3A3B" transform="translate(125,16)"/>
<path d="M0,0 L9,1 L10,2 L10,10 L5,10 L4,15 L2,15 L2,17 L8,17 L8,20 L0,20 L-1,8 L3,8 L3,5 L0,5 Z " fill="#534C5E" transform="translate(111,65)"/>
<path d="M0,0 L5,1 L7,5 L4,5 L4,3 L1,3 L0,8 L-6,12 L-8,14 L-14,14 L-13,6 L-12,3 L-1,2 Z " fill="#736F6E" transform="translate(126,5)"/>
<path d="M0,0 L2,0 L3,2 L3,14 L1,19 L-2,18 L-4,16 L-4,19 L-6,19 L-7,13 L-5,2 Z " fill="#23191F" transform="translate(14,28)"/>
<path d="M0,0 L12,2 L12,14 L1,16 L1,4 Z " fill="#2E2F32" transform="translate(138,8)"/>
<path d="M0,0 L21,0 L21,8 L13,8 L7,6 L6,3 L0,2 Z " fill="#706B89" transform="translate(129,0)"/>
<path d="M0,0 L9,0 L9,17 L4,18 L3,15 L1,14 L1,11 L3,11 L3,5 Z " fill="#221922" transform="translate(141,55)"/>
<path d="M0,0 L12,0 L7,5 L6,20 L4,23 L4,8 L0,7 L-2,13 L-4,12 L-3,3 L0,2 Z " fill="#644C44" transform="translate(104,20)"/>
<path d="M0,0 L10,0 L11,5 L18,5 L20,6 L19,9 L10,9 L0,7 Z " fill="#5E545B" transform="translate(29,68)"/>
<path d="M0,0 L6,0 L7,4 L10,5 L5,8 L1,8 L1,13 L-4,14 L-3,11 L-4,9 L-9,7 L-9,5 L-2,5 L-2,3 L0,3 Z " fill="#4F5061" transform="translate(138,69)"/>
<path d="M0,0 L1,4 L-1,21 L-6,23 L-13,24 L-15,19 L-20,20 L-22,19 L-20,15 L-15,16 L-13,20 L-3,19 L-3,11 L-1,2 Z " fill="#42333F" transform="translate(72,0)"/>
<path d="M0,0 L11,0 L16,4 L17,8 L9,9 L7,7 L0,6 L-1,3 L-3,1 Z " fill="#635D75" transform="translate(10,69)"/>
<path d="M0,0 L1,0 L2,13 L5,18 L5,23 L-1,18 L-4,15 L-6,9 L-5,5 L-3,5 L-2,2 Z " fill="#504B50" transform="translate(99,28)"/>
<path d="M0,0 L4,0 L5,13 L2,16 L-3,17 L-7,18 L-9,16 L-4,16 L-2,6 L1,2 Z " fill="#3C353F" transform="translate(97,62)"/>
<path d="M0,0 L3,1 L4,4 L4,16 L2,20 L0,20 L-3,8 L-1,1 Z " fill="#43434D" transform="translate(23,19)"/>
<path d="M0,0 L1,0 L2,11 L-8,10 L-10,15 L-16,16 L-17,12 L-26,10 L-26,14 L-28,14 L-28,8 L-25,7 L-10,11 L-10,6 L-8,5 L-8,9 L-1,8 Z " fill="#484959" transform="translate(137,55)"/>
<path d="M0,0 L17,0 L18,4 L15,6 L11,6 L11,4 L4,6 L-1,6 L-2,2 Z " fill="#261F1F" transform="translate(31,11)"/>
<path d="M0,0 L1,0 L0,12 L-2,15 L-5,15 L-5,12 L-11,12 L-11,10 L-9,10 L-8,5 L-3,5 L-3,1 Z " fill="#343B40" transform="translate(124,70)"/>
<path d="M0,0 L8,0 L9,1 L9,6 L7,6 L7,8 L-4,9 L-4,4 Z " fill="#232737" transform="translate(129,66)"/>
<path d="M0,0 L3,1 L3,7 L-2,7 L-2,14 L-8,14 L-8,8 L-5,5 L-4,1 Z " fill="#46413F" transform="translate(90,71)"/>
<path d="M0,0 L9,0 L9,3 L11,3 L10,7 L8,9 L1,9 Z " fill="#6A6363" transform="translate(39,0)"/>
<path d="M0,0 L13,0 L13,2 L15,2 L15,7 L6,7 L0,2 Z " fill="#53514F" transform="translate(88,0)"/>
<path d="M0,0 L4,1 L4,5 L1,5 L0,12 L-2,15 L-4,14 L-4,22 L-7,24 L-5,18 L-7,18 L-4,9 L-2,3 Z " fill="#42323D" transform="translate(19,2)"/>
<path d="M0,0 L5,0 L7,5 L-16,5 L-15,2 L-11,1 L-8,2 L0,2 Z " fill="#544B58" transform="translate(55,80)"/>
<path d="M0,0 L1,0 L2,15 L0,20 L-3,23 L-11,22 L-13,20 L-14,13 L-18,11 L-13,10 L-12,12 L-12,19 L0,18 Z " fill="#322936" transform="translate(18,29)"/>
<path d="M0,0 L6,0 L9,3 L6,11 L2,13 Z " fill="#272228" transform="translate(70,57)"/>
<path d="M0,0 L3,0 L3,2 L6,2 L6,0 L8,0 L8,2 L13,4 L11,9 L7,7 L0,6 L-6,8 L-3,5 L-1,5 Z " fill="#645E67" transform="translate(127,8)"/>
<path d="M0,0 L1,3 L3,3 L3,5 L5,5 L6,10 L3,12 L-3,10 L-5,5 Z " fill="#3D383F" transform="translate(79,67)"/>
<path d="M0,0 L3,0 L6,5 L14,5 L16,10 L10,7 L-4,7 L-5,4 Z " fill="#514C4A" transform="translate(10,63)"/>
<path d="M0,0 L7,4 L8,1 L9,5 L8,11 L5,14 L2,14 L2,5 Z " fill="#5D5558" transform="translate(131,13)"/>
<path d="M0,0 L4,2 L4,7 L9,6 L6,10 L7,13 L1,14 L0,13 Z " fill="#464043" transform="translate(0,58)"/>
<path d="M0,0 L1,3 L1,16 L-5,21 L-9,25 L-8,20 L-7,17 L-3,16 L-2,5 Z " fill="#322D40" transform="translate(46,20)"/>
<path d="M0,0 L3,0 L2,12 L1,16 L-2,17 L-3,11 L-4,8 L-2,8 L-1,2 Z " fill="#2D2636" transform="translate(42,20)"/>
<path d="M0,0 L4,1 L6,4 L19,6 L19,8 L11,8 L7,6 L8,9 L4,8 L4,6 L0,5 L-5,3 L-6,5 L-6,2 L0,1 Z " fill="#4C4558" transform="translate(131,2)"/>
<path d="M0,0 L2,0 L2,7 L-1,8 L-1,12 L-1,14 L-5,14 L-6,8 L-3,2 Z " fill="#625D6A" transform="translate(134,50)"/>
<path d="M0,0 L3,0 L1,11 L6,11 L6,12 L-5,12 L-5,7 L-1,3 Z " fill="#605C5B" transform="translate(111,8)"/>
<path d="M0,0 L8,0 L7,5 L4,6 L4,10 L0,11 Z " fill="#433550" transform="translate(0,0)"/>
<path d="M0,0 L4,0 L4,14 L0,15 L-3,11 L0,11 L-1,8 L3,8 L3,1 L-2,4 L-5,11 L-6,11 L-6,6 L-2,1 Z " fill="#574B55" transform="translate(133,49)"/>
<path d="M0,0 L6,1 L6,3 L4,4 L2,9 L-1,13 L-3,11 L-5,11 L-3,4 L0,3 Z " fill="#534245" transform="translate(98,19)"/>
<path d="M0,0 L2,1 L1,3 L-3,4 L-25,5 L-29,6 L-26,3 L-23,2 L-5,1 Z " fill="#3F3748" transform="translate(94,51)"/>
<path d="M0,0 L2,0 L2,10 L-5,10 L-6,6 L-5,3 Z " fill="#45332B" transform="translate(118,20)"/>
<path d="M0,0 L3,1 L3,9 L-2,12 L-12,14 L-15,13 L-15,8 L-13,8 L-13,11 L-4,10 L-1,8 Z " fill="#422324" transform="translate(15,16)"/>
<path d="M0,0 L4,0 L3,4 L1,7 L-8,7 L-6,3 L-4,1 Z " fill="#8F6B6E" transform="translate(10,20)"/>
<path d="M0,0 L2,1 L3,11 L2,12 L-3,12 L-3,1 Z " fill="#1B1215" transform="translate(13,30)"/>
<path d="M0,0 L1,4 L-4,9 L-7,10 L-8,13 L-9,13 L-9,4 L-1,2 Z " fill="#644C53" transform="translate(9,7)"/>
<path d="M0,0 L2,1 L2,9 L7,9 L7,11 L5,11 L5,14 L3,14 L2,17 L-1,17 Z " fill="#846B6F" transform="translate(126,31)"/>
<path d="M0,0 L7,0 L9,4 L11,6 L9,6 L9,8 L7,8 L6,11 L5,6 L2,6 Z " fill="#3E3433" transform="translate(80,0)"/>
<path d="M0,0 L19,0 L18,3 L10,4 L7,5 L6,3 L0,2 Z " fill="#1E1618" transform="translate(19,0)"/>
<path d="M0,0 L4,2 L3,9 L1,11 L-2,8 L-4,3 Z " fill="#3A364F" transform="translate(59,38)"/>
<path d="M0,0 L2,0 L3,11 L7,9 L9,7 L8,11 L6,14 L1,13 L-1,10 Z " fill="#2C2734" transform="translate(30,30)"/>
<path d="M0,0 L5,1 L5,3 L8,1 L17,0 L17,2 L9,3 L6,4 L5,8 L0,9 L0,6 L2,6 L2,1 Z " fill="#2E2827" transform="translate(21,2)"/>
<path d="M0,0 L13,0 L10,1 L10,3 L5,6 L3,6 L3,8 L0,8 L2,1 Z " fill="#271725" transform="translate(58,0)"/>
<path d="M0,0 L5,0 L5,2 L9,2 L9,0 L11,0 L11,10 L10,12 L5,12 L9,11 L10,4 L0,4 Z " fill="#644F51" transform="translate(115,36)"/>
<path d="M0,0 L2,2 L-3,12 L-10,12 L-8,8 L-2,5 Z " fill="#9E7E85" transform="translate(13,7)"/>
<path d="M0,0 L3,0 L3,4 L2,6 L0,6 L0,8 L-5,9 L-6,3 L-5,1 L0,2 Z " fill="#484246" transform="translate(96,60)"/>
<path d="M0,0 L4,1 L5,4 L8,4 L9,8 L11,8 L11,10 L14,10 L15,13 L10,11 L4,6 L4,4 L-2,4 L0,3 Z " fill="#484141" transform="translate(98,47)"/>
<path d="M0,0 L10,0 L10,3 L0,4 L-5,5 L-5,1 Z " fill="#1B1414" transform="translate(36,12)"/>
<path d="M0,0 L6,1 L8,0 L9,3 L7,3 L7,7 L0,7 Z " fill="#36393C" transform="translate(127,78)"/>
<path d="M0,0 L12,2 L12,3 L5,3 L4,13 L2,13 L1,4 Z " fill="#2E3738" transform="translate(138,8)"/>
<path d="M0,0 L5,0 L5,10 L1,9 L0,8 Z " fill="#706968" transform="translate(75,0)"/>
<path d="M0,0 L6,0 L7,10 L5,9 L4,5 L2,5 L0,8 L-1,1 Z " fill="#5C4549" transform="translate(121,22)"/>
<path d="M0,0 L3,0 L2,5 L-1,12 L-3,8 L-5,13 L-9,14 L-7,13 L-7,11 L-5,11 L-5,5 L0,5 Z " fill="#786C82" transform="translate(16,0)"/>
<path d="M0,0 L1,2 L10,3 L10,7 L0,7 Z " fill="#302828" transform="translate(140,45)"/>
<path d="M0,0 L2,2 L2,15 L-1,17 L-8,18 L-9,16 L-4,14 L0,14 Z " fill="#342C39" transform="translate(101,63)"/>
<path d="M0,0 L6,0 L6,2 L4,2 L4,4 L-2,9 L-5,8 L-3,4 Z " fill="#90888B" transform="translate(119,9)"/>
<path d="M0,0 L1,0 L1,9 L-7,9 L-3,2 L0,2 Z " fill="#18141E" transform="translate(149,76)"/>
<path d="M0,0 L4,1 L5,4 L8,4 L8,11 L6,11 L4,5 L-1,5 Z " fill="#503B3E" transform="translate(20,63)"/>
<path d="M0,0 L7,0 L7,6 L1,6 L1,4 L-1,4 Z " fill="#6E5F68" transform="translate(143,41)"/>
<path d="M0,0 L1,0 L2,11 L-8,10 L-8,12 L-14,12 L-15,10 L-10,11 L-10,6 L-8,5 L-8,9 L-1,8 Z " fill="#444452" transform="translate(137,55)"/>
<path d="M0,0 L4,1 L9,4 L9,9 L5,8 L5,5 L0,4 L-3,6 L-1,1 Z " fill="#5B545F" transform="translate(22,53)"/>
<path d="M0,0 L3,0 L2,4 L0,4 L-2,8 L-6,12 L-8,12 L-6,6 L-2,2 L0,2 Z " fill="#3C2B33" transform="translate(132,44)"/>
<path d="M0,0 L6,0 L5,7 L0,8 Z " fill="#2B2628" transform="translate(82,60)"/>
<path d="M0,0 L4,0 L7,5 L7,7 L4,7 L3,4 L-6,5 L-10,7 L-7,3 Z " fill="#4F4F4D" transform="translate(127,13)"/>
<path d="M0,0 L9,0 L9,3 L11,3 L10,7 L8,9 L1,9 L1,7 L7,8 L7,1 L1,1 L1,6 L0,6 Z " fill="#5D5757" transform="translate(39,0)"/>
<path d="M0,0 L10,1 L11,4 L-2,4 L-2,1 Z " fill="#2E1C12" transform="translate(17,81)"/>
<path d="M0,0 L1,0 L2,8 L1,9 L-7,9 L-7,5 L-1,4 Z " fill="#4C4645" transform="translate(38,0)"/>
<path d="M0,0 L5,5 L4,11 L2,11 L1,14 L0,8 Z " fill="#2E292C" transform="translate(140,55)"/>
<path d="M0,0 L7,1 L4,2 L4,7 L1,7 L2,4 L-1,4 L-1,6 L-3,6 L-4,9 L-5,7 L-4,5 L-2,5 L-2,2 L0,2 Z " fill="#533C3E" transform="translate(133,40)"/>
<path d="M0,0 L3,1 L8,1 L8,3 L11,3 L11,5 L15,5 L15,7 L10,6 L10,4 L-2,4 Z " fill="#493533" transform="translate(17,78)"/>
<path d="M0,0 L8,0 L8,5 L0,5 Z " fill="#3C3D52" transform="translate(0,80)"/>
<path d="M0,0 L3,1 L3,15 L1,15 L0,8 Z " fill="#241210" transform="translate(128,23)"/>
<path d="M0,0 L5,1 L6,4 L4,7 L0,6 L-2,2 Z " fill="#675A64" transform="translate(22,56)"/>
<path d="M0,0 L5,0 L6,4 L-5,4 L-5,2 Z " fill="#615F62" transform="translate(70,81)"/>
<path d="M0,0 L3,1 L4,9 L2,5 L2,3 L0,3 L-1,13 L-3,10 L-1,1 Z " fill="#433E41" transform="translate(23,19)"/>
<path d="M0,0 L1,3 L8,3 L11,6 L10,8 L9,7 L0,6 Z " fill="#463E55" transform="translate(9,72)"/>
<path d="M0,0 L12,0 L13,4 L0,2 Z " fill="#725B5D" transform="translate(111,0)"/>
<path d="M0,0 L5,0 L7,5 L-1,5 Z " fill="#72616D" transform="translate(55,80)"/>
<path d="M0,0 L3,1 L3,9 L0,9 L0,11 L-2,11 L-2,8 L0,8 Z " fill="#2D1C1D" transform="translate(123,26)"/>
<path d="M0,0 L6,0 L6,4 L5,6 L1,4 L-1,3 Z " fill="#5F606F" transform="translate(133,11)"/>
<path d="M0,0 L4,4 L4,6 L-4,7 L-9,3 L-3,4 L1,5 Z " fill="#69575F" transform="translate(23,71)"/>
<path d="M0,0 L3,1 L3,6 L-3,6 L-2,1 Z " fill="#4A414B" transform="translate(90,71)"/>
<path d="M0,0 L5,0 L5,3 L7,3 L6,7 L3,7 L2,4 L0,3 Z " fill="#140F18" transform="translate(142,66)"/>
<path d="M0,0 L1,0 L2,7 L-2,12 L-4,12 L-5,8 L-2,6 Z " fill="#6A6867" transform="translate(116,47)"/>
<path d="M0,0 L3,0 L3,4 L-6,4 L-6,1 Z " fill="#857175" transform="translate(35,70)"/>
<path d="M0,0 L8,0 L7,6 L4,6 L4,2 L0,2 Z " fill="#483538" transform="translate(117,40)"/>
<path d="M0,0 L7,0 L7,4 L1,4 L0,6 Z " fill="#23302A" transform="translate(143,11)"/>
<path d="M0,0 L1,0 L2,8 L6,10 L5,13 L0,13 Z " fill="#5A5353" transform="translate(74,0)"/>
<path d="M0,0 L1,0 L0,12 L-3,15 L-2,7 L-3,5 L-1,5 L-1,2 L-3,1 Z " fill="#353C4C" transform="translate(124,70)"/>
<path d="M0,0 L3,0 L3,9 L0,10 Z " fill="#4F4655" transform="translate(0,42)"/>
<path d="M0,0 L7,0 L7,1 L1,1 L1,5 L9,5 L9,6 L-2,6 L-1,1 Z " fill="#3E3838" transform="translate(30,4)"/>
<path d="M0,0 L2,1 L2,4 L5,4 L4,9 L0,8 Z " fill="#514A49" transform="translate(80,2)"/>
<path d="M0,0 L12,1 L12,4 L4,4 L4,2 L0,1 Z " fill="#8484A3" transform="translate(138,4)"/>
<path d="M0,0 L6,0 L6,2 L9,3 L9,4 L2,4 L1,7 Z " fill="#4C343B" transform="translate(123,0)"/>
<path d="M0,0 L2,0 L2,2 L8,2 L8,5 L0,5 Z " fill="#555356" transform="translate(111,80)"/>
<path d="M0,0 L5,0 L3,4 L-3,5 L-3,1 Z " fill="#261928" transform="translate(12,78)"/>
<path d="M0,0 L5,0 L5,3 L2,3 L0,4 L-6,4 L-4,1 Z " fill="#443F3E" transform="translate(125,16)"/>
<path d="M0,0 L4,0 L3,5 L-1,5 L-4,1 Z " fill="#271F33" transform="translate(4,72)"/>
<path d="M0,0 L7,2 L7,8 L4,7 L3,3 L0,3 Z " fill="#6D6A7D" transform="translate(114,66)"/>
<path d="M0,0 L1,3 L-2,7 L4,7 L4,8 L-4,8 L-5,6 L-3,2 Z " fill="#5D484B" transform="translate(34,60)"/>
<path d="M0,0 L2,0 L2,2 L5,2 L8,5 L8,7 L3,6 L0,4 Z " fill="#7A7574" transform="translate(88,9)"/>
<path d="M0,0 L2,0 L2,3 L12,2 L12,4 L3,6 L0,5 Z " fill="#513837" transform="translate(0,24)"/>
<path d="M0,0 L10,0 L10,3 L0,2 Z " fill="#202A55" transform="translate(140,0)"/>
<path d="M0,0 L4,0 L4,3 L6,4 L3,4 L2,8 L2,6 L0,6 Z " fill="#413756" transform="translate(0,0)"/>
<path d="M0,0 L3,0 L5,6 L0,7 Z " fill="#2D2A27" transform="translate(105,0)"/>
<path d="M0,0 L2,3 L5,3 L3,5 L-5,5 L-4,2 L0,2 Z " fill="#7A7081" transform="translate(139,80)"/>
<path d="M0,0 L1,3 L4,4 L-1,7 L-3,7 L-3,5 L-5,5 L-4,2 L0,3 Z " fill="#38344A" transform="translate(144,70)"/>
<path d="M0,0 L2,1 L3,10 L0,14 Z " fill="#7B6164" transform="translate(126,31)"/>
<path d="M0,0 L4,1 L6,2 L6,5 L1,5 Z " fill="#111527" transform="translate(130,68)"/>
<path d="M0,0 L9,0 L9,2 L0,3 Z " fill="#7A6366" transform="translate(29,68)"/>
<path d="M0,0 L7,2 L7,3 L0,3 L0,7 L-2,7 L-2,1 Z " fill="#474151" transform="translate(111,62)"/>
<path d="M0,0 L2,1 L3,7 L-3,7 L-1,3 Z " fill="#493D40" transform="translate(35,60)"/>
<path d="M0,0 L6,0 L5,4 L0,5 Z " fill="#3E3A35" transform="translate(4,60)"/>
<path d="M0,0 L2,0 L1,10 L-1,10 L-1,2 Z " fill="#796F70" transform="translate(118,43)"/>
<path d="M0,0 L8,0 L5,1 L5,3 L-1,4 Z " fill="#210C1B" transform="translate(63,0)"/>
<path d="M0,0 L2,0 L3,5 L2,8 L0,8 L-1,1 Z " fill="#323741" transform="translate(67,60)"/>
<path d="M0,0 L3,0 L3,10 L1,10 L0,1 Z " fill="#3B3E43" transform="translate(139,11)"/>
<path d="M0,0 L3,1 L3,6 L-1,6 L-1,1 Z " fill="#62584C" transform="translate(84,79)"/>
<path d="M0,0 L1,0 L1,5 L-9,4 L-9,3 L-1,1 Z " fill="#312D3F" transform="translate(69,75)"/>
<path d="M0,0 L5,0 L5,4 L0,4 Z " fill="#6D6B6B" transform="translate(96,2)"/>
<path d="M0,0 L1,3 L7,2 L7,5 L0,5 L-1,2 Z " fill="#3A2834" transform="translate(8,80)"/>
<path d="M0,0 L7,0 L7,3 L0,3 Z " fill="#63616E" transform="translate(40,73)"/>
<path d="M0,0 L5,0 L6,3 L5,4 L0,4 Z " fill="#524A6A" transform="translate(63,44)"/>
<path d="M0,0 L2,0 L3,7 L0,8 Z " fill="#251D1D" transform="translate(0,30)"/>
<path d="M0,0 L4,1 L1,1 L2,7 L-3,7 L-3,5 L-1,5 Z " fill="#3D3643" transform="translate(116,75)"/>
<path d="M0,0 L2,0 L3,5 L-1,5 L-3,1 Z " fill="#86747F" transform="translate(21,71)"/>
<path d="M0,0 L3,1 L3,7 L0,7 Z " fill="#58494C" transform="translate(0,58)"/>
<path d="M0,0 L4,0 L5,4 L1,4 L-1,1 Z " fill="#343048" transform="translate(56,40)"/>
<path d="M0,0 L5,0 L5,4 L0,4 Z " fill="#745F5C" transform="translate(115,36)"/>
<path d="M0,0 L1,2 L-1,10 L-4,10 L-3,6 Z " fill="#696464" transform="translate(113,9)"/>
<path d="M0,0 L3,1 L4,4 L-3,4 L-2,1 Z " fill="#636271" transform="translate(42,81)"/>
<path d="M0,0 L2,0 L2,3 L0,3 Z M-1,3 L1,5 L0,7 L-4,6 L-4,4 Z " fill="#2D3240" transform="translate(121,72)"/>
<path d="M0,0 L4,0 L4,4 L-1,4 Z " fill="#645048" transform="translate(116,32)"/>
<path d="M0,0 L3,0 L3,4 L-3,4 L-3,2 Z " fill="#A8848A" transform="translate(7,22)"/>
<path d="M0,0 L4,1 L3,6 L0,5 Z " fill="#453A34" transform="translate(16,62)"/>
<path d="M0,0 L2,0 L2,5 L-2,5 L-2,1 Z " fill="#36231C" transform="translate(117,23)"/>
<path d="M0,0 L4,1 L6,5 L3,5 L3,3 L0,3 Z " fill="#958089" transform="translate(127,5)"/>
<path d="M0,0 L3,0 L3,2 L11,2 L11,3 L1,4 Z " fill="#46393A" transform="translate(108,0)"/>
<path d="M0,0 L2,0 L4,3 L3,6 L-1,4 Z " fill="#4E4B4A" transform="translate(91,61)"/>
<path d="M0,0 L2,0 L2,3 L-6,3 L-5,1 Z " fill="#1B1A1A" transform="translate(148,49)"/>
<path d="M0,0 L1,4 L-2,7 L-4,7 L-3,3 Z " fill="#473348" transform="translate(9,7)"/>
<path d="M0,0 L1,0 L1,6 L-3,7 L-1,6 L-1,4 L-5,3 L-1,2 Z " fill="#837677" transform="translate(126,5)"/>
<path d="M0,0 L11,0 L11,1 L3,1 L3,3 L0,3 Z " fill="#3D292A" transform="translate(110,3)"/>
<path d="M0,0 L6,0 L6,3 L1,3 Z " fill="#211918" transform="translate(80,0)"/>
<path d="M0,0 L4,0 L4,4 L0,4 Z " fill="#1F1618" transform="translate(77,81)"/>
<path d="M0,0 L2,0 L3,5 L-1,5 Z " fill="#2B1915" transform="translate(33,80)"/>
<path d="M0,0 L2,3 L2,5 L-3,6 L-2,1 Z " fill="#504D58" transform="translate(137,77)"/>
<path d="M0,0 L3,2 L-1,4 L0,6 L-3,5 L-4,2 Z " fill="#736572" transform="translate(20,69)"/>
<path d="M0,0 L5,0 L5,2 L7,3 L0,3 Z " fill="#595A57" transform="translate(7,67)"/>
<path d="M0,0 L2,0 L2,6 L0,6 L-3,2 L0,2 Z " fill="#535060" transform="translate(133,58)"/>
<path d="M0,0 L3,0 L3,4 L-2,4 Z " fill="#84757D" transform="translate(131,52)"/>
<path d="M0,0 L2,0 L1,3 L-2,6 L-4,6 L-2,1 Z " fill="#2B1E2B" transform="translate(128,50)"/>
<path d="M0,0 L2,2 L2,8 L-1,10 L1,4 L-1,4 Z " fill="#5A3735" transform="translate(13,16)"/>
<path d="M0,0 L4,0 L2,4 L-1,6 Z " fill="#7C7575" transform="translate(115,9)"/>
<path d="M0,0 L4,0 L4,4 L0,4 Z " fill="#453E5E" transform="translate(11,0)"/>
<path d="M0,0 L6,0 L6,2 L0,3 Z " fill="#545668" transform="translate(121,68)"/>
<path d="M0,0 L4,1 L4,4 L2,3 L1,6 Z " fill="#3F2B2B" transform="translate(126,20)"/>
<path d="M0,0 L5,0 L5,3 L0,3 Z " fill="#575251" transform="translate(31,6)"/>
<path d="M0,0 L5,0 L5,3 L0,2 Z " fill="#747083" transform="translate(139,70)"/>
<path d="M0,0 L1,0 L1,5 L-6,5 L-2,3 Z " fill="#302C3A" transform="translate(118,58)"/>
<path d="M0,0 L2,0 L2,6 L0,6 L0,2 L-2,1 Z " fill="#736169" transform="translate(134,50)"/>
<path d="M0,0 L4,0 L4,2 L2,3 L0,7 Z " fill="#59453A" transform="translate(100,20)"/>
<path d="M0,0 L4,0 L4,3 L-1,3 Z " fill="#6E6C7F" transform="translate(133,11)"/>
<path d="M0,0 L2,2 L0,7 L-2,7 Z " fill="#A0868E" transform="translate(13,7)"/>
<path d="M0,0 L3,1 L3,4 L-2,3 Z " fill="#664E51" transform="translate(121,0)"/>
<path d="M0,0 L1,0 L0,7 L-2,8 L-1,3 Z " fill="#3A4447" transform="translate(123,77)"/>
<path d="M0,0 L4,1 L3,5 L1,5 Z " fill="#362829" transform="translate(35,80)"/>
<path d="M0,0 L2,0 L1,6 L-1,5 L0,3 L-2,2 L0,2 Z " fill="#746E86" transform="translate(148,72)"/>
<path d="M0,0 L2,0 L2,3 L-3,3 L-4,1 Z " fill="#958488" transform="translate(35,70)"/>
<path d="M0,0 L5,0 L4,3 L0,3 Z " fill="#0D090E" transform="translate(142,66)"/>
<path d="M0,0 L2,0 L3,4 L0,5 L-1,1 Z " fill="#646064" transform="translate(112,54)"/>
<path d="M0,0 L2,0 L1,4 L-2,4 L-2,1 Z " fill="#715758" transform="translate(135,23)"/>
<path d="M0,0 L3,1 L-2,5 L-2,2 Z " fill="#6A4545" transform="translate(4,20)"/>
<path d="M0,0 L2,0 L2,3 L-3,3 L-3,1 Z " fill="#4D4463" transform="translate(68,82)"/>
<path d="M0,0 L3,0 L3,4 L0,4 Z " fill="#565957" transform="translate(129,81)"/>
<path d="M0,0 L2,0 L2,4 L-2,3 Z " fill="#515755" transform="translate(124,81)"/>
<path d="M0,0 L3,0 L3,4 L0,4 Z " fill="#837785" transform="translate(111,75)"/>
<path d="M0,0 L3,1 L3,3 L-2,3 L-2,1 Z " fill="#504753" transform="translate(90,74)"/>
<path d="M0,0 L2,0 L3,5 L0,5 Z " fill="#272020" transform="translate(83,63)"/>
<path d="M0,0 L3,2 L2,5 L-2,2 Z " fill="#3D3735" transform="translate(128,17)"/>
<path d="M0,0 L2,0 L3,2 L6,4 L1,4 Z " fill="#635F5D" transform="translate(93,3)"/>
<path d="M0,0 L4,1 L4,4 L1,4 Z " fill="#4C444A" transform="translate(19,2)"/>
<path d="M0,0 L4,0 L4,3 L0,3 Z " fill="#26233F" transform="translate(4,0)"/>
<path d="M0,0 L3,0 L3,4 L0,4 Z " fill="#5C5473" transform="translate(0,0)"/>
<path d="M0,0 L1,2 L3,2 L1,6 L0,6 Z " fill="#B6AEC9" transform="translate(140,78)"/>
<path d="M0,0 L4,0 L3,3 L0,3 Z " fill="#B7B0CC" transform="translate(144,75)"/>
<path d="M0,0 L4,0 L3,3 L0,2 Z " fill="#3F2B2A" transform="translate(29,77)"/>
<path d="M0,0 L2,4 L-2,4 Z " fill="#544043" transform="translate(34,63)"/>
<path d="M0,0 L2,0 L0,4 L-2,4 Z " fill="#AC8A91" transform="translate(7,15)"/>
<path d="M0,0 L1,3 L-2,4 L-2,1 Z " fill="#362329" transform="translate(17,81)"/>
<path d="M0,0 L3,0 L3,3 L0,3 Z " fill="#3A373B" transform="translate(78,62)"/>
<path d="M0,0 L3,0 L2,3 L-1,3 Z " fill="#79666E" transform="translate(126,45)"/>
<path d="M0,0 L3,0 L3,3 L0,3 Z " fill="#331C1C" transform="translate(132,44)"/>
<path d="M0,0 L3,0 L3,3 L0,3 Z " fill="#82656B" transform="translate(0,12)"/>
<path d="M0,0 L4,1 L3,3 L0,2 Z " fill="#29263A" transform="translate(138,8)"/>
<path d="M0,0 L2,0 L1,3 L-2,3 L-2,1 Z " fill="#211A1C" transform="translate(23,7)"/>
<path d="M0,0 L2,0 L2,3 L-1,3 Z " fill="#44373C" transform="translate(13,82)"/>
<path d="M0,0 L3,0 L3,3 L0,2 Z " fill="#292431" transform="translate(117,76)"/>
<path d="M0,0 L2,0 L2,3 L-1,3 Z " fill="#141A2E" transform="translate(126,72)"/>
<path d="M0,0 L2,4 L-1,4 Z " fill="#4D3336" transform="translate(13,16)"/>
<path d="M0,0 L1,2 L3,3 L-1,4 Z " fill="#573E4B" transform="translate(6,10)"/>
<path d="M0,0 L2,0 L2,3 L-1,3 Z " fill="#6B5B71" transform="translate(6,7)"/>
<path d="M0,0 L3,0 L3,3 L0,2 Z " fill="#251E1E" transform="translate(89,6)"/>
<path d="M0,0 L2,2 L0,5 L-1,1 Z " fill="#303133" transform="translate(141,64)"/>
<path d="M0,0 L3,1 L3,3 L0,2 Z " fill="#291F28" transform="translate(144,62)"/>
<path d="M0,0 L2,1 L2,3 L-1,3 Z " fill="#817584" transform="translate(131,7)"/>
<path d="M0,0 L2,2 L-1,3 Z " fill="#958FA8" transform="translate(13,7)"/>
</svg>
