<?xml version="1.0" encoding="UTF-8"?>
<!-- Generator: visioncortex VTracer 0.6.5 -->
<svg version="1.1" xmlns="http://www.w3.org/2000/svg" width="150" height="85">
<path d="M0,0 L150,0 L150,85 L0,85 Z " fill="#151F29" transform="translate(0,0)"/>
<path d="M0,0 L20,0 L20,85 L-7,85 L-7,81 L-11,82 L-12,80 L-11,77 L-6,77 L-6,75 L-3,75 L-1,66 L-7,65 L-7,63 L-4,61 L-3,54 L0,55 L0,52 L-2,52 L-1,45 L-5,45 L-6,39 L-4,39 L-4,37 L-2,37 L-1,35 L1,35 L1,26 L-1,26 L-1,33 L-4,33 L-5,28 L-5,21 L-4,20 L3,21 L5,39 L8,39 L8,20 L11,17 L18,15 L13,13 L11,8 L6,8 L6,2 L3,4 L0,4 Z " fill="#2F363A" transform="translate(130,0)"/>
<path d="M0,0 L5,1 L6,6 L1,7 L1,12 L-2,13 L-3,20 L2,17 L5,17 L5,19 L14,14 L16,14 L16,37 L-11,37 L-11,33 L-15,34 L-16,32 L-15,29 L-10,29 L-10,27 L-7,27 L-5,18 L-11,17 L-11,15 L-8,13 L-7,6 L-3,7 L-1,3 Z " fill="#404C54" transform="translate(134,48)"/>
<path d="M0,0 L20,0 L20,44 L17,41 L13,40 L12,44 L12,35 L9,36 L8,33 L8,20 L11,17 L18,15 L13,13 L11,8 L6,8 L6,2 L3,4 L0,4 Z " fill="#323B3A" transform="translate(130,0)"/>
<path d="M0,0 L5,2 L17,5 L19,5 L18,3 L22,4 L22,12 L20,13 L19,9 L17,13 L17,17 L21,18 L21,19 L16,19 L17,28 L14,28 L12,25 L12,18 L3,19 L2,17 L0,18 L1,8 L-3,12 L-6,12 L-6,10 L-11,8 L-10,5 L-6,4 L-2,6 L1,5 L-2,3 Z M-5,8 Z M-6,9 Z " fill="#1D2833" transform="translate(97,57)"/>
<path d="M0,0 L5,1 L5,5 L11,4 L15,3 L16,5 L15,10 L13,10 L13,12 L17,13 L16,19 L13,20 L14,25 L0,25 Z " fill="#212930" transform="translate(0,60)"/>
<path d="M0,0 L21,0 L22,2 L25,3 L25,9 L23,9 L22,13 L20,14 L13,12 L10,12 L10,10 L0,11 Z " fill="#191C20" transform="translate(0,0)"/>
<path d="M0,0 L6,0 L5,4 L7,4 L7,12 L-2,17 L-4,17 L-4,15 L-9,18 L-12,18 L-12,13 L-7,12 L-7,6 L0,5 Z " fill="#293535" transform="translate(143,50)"/>
<path d="M0,0 L2,0 L2,11 L-3,13 L-4,16 L-9,15 L-16,14 L-17,9 L-13,8 L-12,3 L-9,3 L-9,5 Z " fill="#4C5554" transform="translate(148,62)"/>
<path d="M0,0 L20,0 L20,13 L13,13 L11,8 L6,8 L6,2 L3,4 L0,4 Z " fill="#2F415D" transform="translate(130,0)"/>
<path d="M0,0 L6,0 L6,2 L8,2 L9,7 L2,9 L-4,9 L-5,10 L-2,10 L1,14 L1,16 L-4,16 L-9,15 L-10,7 L-7,5 L-6,2 Z " fill="#2F343D" transform="translate(104,0)"/>
<path d="M0,0 L2,0 L2,12 L-14,12 L-14,10 L-11,10 L-11,7 L-18,7 L-18,3 L-9,3 L-4,4 Z " fill="#29353B" transform="translate(148,73)"/>
<path d="M0,0 L10,0 L10,7 L-13,7 L-14,4 L-16,4 L-16,2 L-7,1 L-7,3 L-2,1 Z " fill="#2A373A" transform="translate(36,78)"/>
<path d="M0,0 L4,0 L5,5 L2,6 L3,11 L-11,11 L-11,2 L-7,1 L-7,3 L0,2 Z " fill="#2C3037" transform="translate(11,74)"/>
<path d="M0,0 L8,0 L9,2 L12,3 L12,8 L4,9 L3,10 L-2,10 L-4,5 L0,3 Z " fill="#2D2F32" transform="translate(13,0)"/>
<path d="M0,0 L7,1 L8,11 L8,20 L4,20 L3,15 L5,15 L5,6 L3,6 L3,13 L0,13 L-1,8 L-1,1 Z " fill="#3A444F" transform="translate(126,20)"/>
<path d="M0,0 L6,0 L6,11 L-5,11 L-6,15 L-6,7 L-3,4 L4,2 Z " fill="#263428" transform="translate(144,13)"/>
<path d="M0,0 L5,0 L6,19 L2,20 L1,19 L0,11 Z " fill="#1B2522" transform="translate(133,20)"/>
<path d="M0,0 L7,6 L7,10 L5,13 L0,13 L-3,10 Z " fill="#273035" transform="translate(56,40)"/>
<path d="M0,0 L2,0 L4,5 L8,7 L2,7 L1,8 L4,8 L7,12 L7,14 L2,14 L-3,13 L-4,5 L-1,3 Z " fill="#1D222C" transform="translate(98,2)"/>
<path d="M0,0 L8,0 L5,3 L-5,7 L-6,8 L-18,8 L-18,5 L-6,4 Z " fill="#020910" transform="translate(72,0)"/>
<path d="M0,0 L5,0 L5,2 L10,4 L10,6 L-8,6 L-6,2 Z " fill="#0B1013" transform="translate(81,54)"/>
<path d="M0,0 L10,0 L11,5 L10,7 L0,7 Z " fill="#27333D" transform="translate(30,5)"/>
<path d="M0,0 L2,0 L2,7 L-3,9 L-4,12 L-9,11 L-11,9 L-9,9 L-9,7 L-4,5 L-3,2 L0,2 Z " fill="#2A2E35" transform="translate(148,66)"/>
<path d="M0,0 L5,0 L5,2 L9,1 L12,2 L11,7 L-5,5 L-5,1 Z " fill="#090B0F" transform="translate(5,10)"/>
<path d="M0,0 L5,0 L5,4 L11,2 L11,4 L9,5 L6,11 L1,9 L0,8 Z " fill="#343C5B" transform="translate(125,0)"/>
<path d="M0,0 L4,1 L3,7 L1,7 L1,9 L5,10 L5,14 L3,14 L3,11 L0,11 L0,8 L-5,7 L-4,3 Z " fill="#1E3337" transform="translate(12,63)"/>
<path d="M0,0 L5,1 L6,6 L1,7 L1,12 L-2,12 L-3,5 Z " fill="#4B5659" transform="translate(134,48)"/>
<path d="M0,0 L6,0 L5,4 L7,4 L7,10 L0,10 L-1,7 Z " fill="#1E2122" transform="translate(143,50)"/>
<path d="M0,0 L2,0 L2,12 L-5,12 L-5,7 L-1,3 Z " fill="#0E1516" transform="translate(148,73)"/>
<path d="M0,0 L7,1 L5,10 L1,11 L0,7 Z " fill="#16322E" transform="translate(122,65)"/>
<path d="M0,0 L12,0 L11,7 L6,6 L6,2 L3,4 L0,4 Z " fill="#4D5778" transform="translate(130,0)"/>
<path d="M0,0 L4,0 L6,4 L9,6 L9,8 L2,9 L1,6 L-2,5 L-1,1 Z " fill="#080E14" transform="translate(102,52)"/>
<path d="M0,0 L3,0 L5,9 L5,18 L1,18 L0,13 L2,13 L2,2 L0,2 Z " fill="#545D60" transform="translate(129,22)"/>
<path d="M0,0 L1,4 L0,8 L3,8 L3,10 L1,10 L1,14 L8,14 L8,17 L5,17 L4,19 L0,15 L0,10 L-5,11 L-5,9 L-2,9 Z " fill="#303E3E" transform="translate(129,66)"/>
<path d="M0,0 L5,0 L5,9 L0,10 Z " fill="#3C3F41" transform="translate(0,0)"/>
<path d="M0,0 L10,1 L10,3 L2,7 L2,5 L-2,5 Z " fill="#313A37" transform="translate(140,59)"/>
<path d="M0,0 L7,0 L10,2 L10,5 L0,5 Z " fill="#79596E" transform="translate(0,80)"/>
<path d="M0,0 L3,0 L3,16 L1,16 L0,13 Z " fill="#020604" transform="translate(134,22)"/>
<path d="M0,0 L7,3 L4,8 L1,8 L1,6 L-4,4 L-3,1 Z M2,4 Z M1,5 Z " fill="#1C2D37" transform="translate(90,61)"/>
<path d="M0,0 L2,0 L2,9 L-5,10 L-5,5 L-2,4 Z " fill="#242F32" transform="translate(140,35)"/>
<path d="M0,0 L1,0 L1,5 L-19,5 L-17,2 L0,3 Z " fill="#081822" transform="translate(110,80)"/>
<path d="M0,0 L10,0 L9,4 L5,5 L0,5 Z " fill="#2F3034" transform="translate(0,16)"/>
<path d="M0,0 L2,0 L4,9 L4,12 L1,12 L-1,9 Z " fill="#2A3941" transform="translate(110,73)"/>
<path d="M0,0 L9,1 L11,5 L13,6 L13,8 L9,8 L8,5 L-1,3 Z " fill="#383D43" transform="translate(1,77)"/>
<path d="M0,0 L5,0 L6,2 L9,3 L9,7 L5,6 L0,3 Z " fill="#354049" transform="translate(16,0)"/>
<path d="M0,0 L8,0 L8,7 L6,4 L2,5 L0,5 Z " fill="#272D35" transform="translate(38,78)"/>
<path d="M0,0 L3,1 L2,12 L-4,11 L-4,9 L-1,7 Z " fill="#2A4142" transform="translate(127,54)"/>
<path d="M0,0 L1,4 L-12,4 L-12,1 L-1,1 Z " fill="#364547" transform="translate(44,81)"/>
<path d="M0,0 L7,0 L7,5 L0,5 Z " fill="#677085" transform="translate(143,8)"/>
<path d="M0,0 L5,1 L5,5 L-2,5 L-3,1 Z " fill="#464C55" transform="translate(105,2)"/>
<path d="M0,0 L4,1 L7,4 L7,5 L-2,5 L-1,1 Z " fill="#26211F" transform="translate(16,80)"/>
<path d="M0,0 L5,0 L6,3 L-1,5 L-4,5 L-2,1 Z " fill="#030607" transform="translate(81,54)"/>
<path d="M0,0 L8,1 L11,4 L7,7 L7,3 L3,5 L0,4 Z " fill="#323B44" transform="translate(107,13)"/>
<path d="M0,0 L1,3 L-4,5 L-4,7 L-8,7 L-6,2 Z " fill="#5E6369" transform="translate(149,70)"/>
<path d="M0,0 L9,1 L11,5 L7,4 L6,7 L3,4 L3,2 L0,2 Z " fill="#0A1019" transform="translate(99,8)"/>
<path d="M0,0 L2,0 L4,7 L7,8 L6,11 L1,9 L0,8 Z " fill="#2C3544" transform="translate(125,0)"/>
<path d="M0,0 L8,3 L9,10 L7,10 L7,7 L4,7 L4,3 L0,2 Z " fill="#1D2933" transform="translate(21,0)"/>
<path d="M0,0 L2,0 L1,7 L-2,9 L-3,4 Z " fill="#0A1929" transform="translate(96,65)"/>
<path d="M0,0 L4,1 L-1,4 L-12,4 L-11,2 L-1,1 Z " fill="#212D36" transform="translate(68,0)"/>
<path d="M0,0 L7,0 L7,3 L3,5 L0,5 Z " fill="#0C1F1B" transform="translate(5,71)"/>
<path d="M0,0 L2,0 L2,4 L0,4 L0,6 L-6,6 L-5,3 Z " fill="#868A92" transform="translate(148,62)"/>
<path d="M0,0 L8,1 L8,4 L0,4 Z " fill="#424B56" transform="translate(32,6)"/>
<path d="M0,0 L1,3 L5,3 L5,7 L-1,7 L-1,2 L-3,1 Z " fill="#233343" transform="translate(118,78)"/>
<path d="M0,0 L5,1 L4,6 L0,6 Z " fill="#3E3F45" transform="translate(143,40)"/>
<path d="M0,0 L11,0 L13,1 L12,7 L10,6 L9,3 L10,1 L0,1 Z " fill="#24262B" transform="translate(0,15)"/>
<path d="M0,0 L1,0 L1,7 L6,7 L6,8 L1,8 L0,12 L-1,8 L-6,8 L-5,6 L-1,7 Z " fill="#424E62" transform="translate(142,0)"/>
<path d="M0,0 L5,0 L5,8 L4,4 L0,5 L-1,3 Z " fill="#364154" transform="translate(119,77)"/>
<path d="M0,0 L6,0 L2,3 L-3,4 L-3,2 L-10,3 L-8,1 Z " fill="#1F292D" transform="translate(32,77)"/>
<path d="M0,0 L8,0 L5,3 L0,4 L-3,2 Z " fill="#07121B" transform="translate(72,0)"/>
<path d="M0,0 L5,0 L5,5 L0,5 Z " fill="#36343B" transform="translate(118,35)"/>
<path d="M0,0 L0,3 L-3,6 L-4,11 L-7,11 L-5,4 Z " fill="#1A2227" transform="translate(147,74)"/>
<path d="M0,0 L3,3 L1,5 L0,11 L-3,10 Z " fill="#1E2C37" transform="translate(56,40)"/>
<path d="M0,0 L2,0 L7,5 L8,7 L3,6 L0,3 Z " fill="#596069" transform="translate(96,9)"/>
<path d="M0,0 L2,0 L2,4 L6,6 L-1,6 L-1,1 Z " fill="#0F1525" transform="translate(134,4)"/>
<path d="M0,0 L2,0 L1,4 L-1,10 L-4,7 L-2,3 L0,3 Z " fill="#252729" transform="translate(13,0)"/>
<path d="M0,0 L3,0 L3,7 L0,8 Z " fill="#52585A" transform="translate(0,0)"/>
<path d="M0,0 L2,0 L2,5 L-4,5 L-3,2 Z " fill="#081109" transform="translate(148,80)"/>
<path d="M0,0 L1,3 L-1,6 L-7,6 L-7,4 L-1,1 Z " fill="#182839" transform="translate(141,79)"/>
<path d="M0,0 L5,0 L5,4 L0,4 Z " fill="#646E6C" transform="translate(132,70)"/>
<path d="M0,0 L2,4 L1,6 L-4,4 L-4,1 Z " fill="#2D3B46" transform="translate(110,61)"/>
<path d="M0,0 L4,0 L4,2 L8,3 L3,5 L3,3 L-1,3 Z " fill="#424A4D" transform="translate(139,61)"/>
<path d="M0,0 L2,2 L2,5 L4,6 L0,7 L0,10 L-2,10 Z " fill="#455858" transform="translate(130,55)"/>
<path d="M0,0 L4,0 L5,4 L0,3 L1,6 L-2,5 L-1,1 Z " fill="#101316" transform="translate(102,52)"/>
<path d="M0,0 L5,0 L5,7 L3,7 L3,4 L-2,3 L0,2 Z " fill="#2B2E2E" transform="translate(145,47)"/>
<path d="M0,0 L2,0 L2,7 L-1,8 L-2,2 L0,2 Z " fill="#303134" transform="translate(126,37)"/>
<path d="M0,0 L6,0 L6,5 L4,6 L0,5 L0,3 L4,2 Z " fill="#333E35" transform="translate(144,13)"/>
<path d="M0,0 L9,4 L9,5 L1,5 Z " fill="#151C1A" transform="translate(140,11)"/>
<path d="M0,0 L3,0 L3,2 L6,1 L7,4 L5,5 L0,4 Z " fill="#606968" transform="translate(136,65)"/>
<path d="M0,0 L5,1 L5,5 L1,5 Z " fill="#2D2D34" transform="translate(0,60)"/>
<path d="M0,0 L2,4 L1,6 L-4,4 L-3,1 Z " fill="#2D3B46" transform="translate(90,61)"/>
<path d="M0,0 L4,2 L3,6 L-1,4 Z " fill="#273742" transform="translate(57,43)"/>
<path d="M0,0 L1,0 L1,6 L-4,8 L-3,4 Z " fill="#202B36" transform="translate(4,44)"/>
<path d="M0,0 L6,0 L6,3 L-1,3 Z " fill="#0F1921" transform="translate(103,75)"/>
<path d="M0,0 L5,0 L5,4 L0,4 Z " fill="#2B393F" transform="translate(75,61)"/>
<path d="M0,0 L3,1 L2,5 L-1,5 L-1,3 L-5,1 Z " fill="#393A41" transform="translate(25,79)"/>
<path d="M0,0 L2,1 L-2,5 L-4,5 L-5,7 L-5,2 Z " fill="#42484B" transform="translate(143,68)"/>
<path d="M0,0 L3,1 L2,5 L-2,5 L-2,1 Z " fill="#566084" transform="translate(138,1)"/>
<path d="M0,0 L4,2 L5,4 L-3,4 Z " fill="#122922" transform="translate(69,81)"/>
<path d="M0,0 L4,1 L4,4 L0,5 Z " fill="#18312A" transform="translate(64,80)"/>
<path d="M0,0 L5,0 L5,4 L0,3 Z " fill="#8F7388" transform="translate(0,80)"/>
<path d="M0,0 L5,0 L5,3 L-1,3 Z " fill="#0F1814" transform="translate(58,82)"/>
<path d="M0,0 L4,0 L4,2 L2,2 L4,7 L1,8 Z " fill="#2E353D" transform="translate(94,7)"/>
<path d="M0,0 L5,0 L6,3 L0,3 Z " fill="#425C54" transform="translate(32,82)"/>
<path d="M0,0 L1,3 L-3,5 L-3,3 L-6,2 Z " fill="#50545B" transform="translate(149,70)"/>
<path d="M0,0 L4,0 L4,3 L1,3 L0,5 L-1,2 Z " fill="#334253" transform="translate(133,80)"/>
<path d="M0,0 L4,1 L7,3 L7,5 L3,5 L2,2 Z " fill="#503C43" transform="translate(7,80)"/>
<path d="M0,0 L4,0 L4,4 L0,3 Z " fill="#304242" transform="translate(11,74)"/>
<path d="M0,0 L3,0 L1,4 L-2,7 L-2,3 L0,3 Z " fill="#162A23" transform="translate(126,67)"/>
<path d="M0,0 L4,0 L3,4 L0,4 Z " fill="#60698D" transform="translate(130,0)"/>
<path d="M0,0 L4,1 L4,3 L-2,3 L-1,1 Z " fill="#1B1A19" transform="translate(16,80)"/>
<path d="M0,0 L2,0 L2,4 L5,5 L0,4 L-2,2 L0,2 Z " fill="#343B40" transform="translate(139,73)"/>
<path d="M0,0 L1,2 L0,5 L-4,6 L-4,3 Z " fill="#25332B" transform="translate(127,70)"/>
<path d="M0,0 L5,1 L5,3 L2,4 L0,3 Z " fill="#254847" transform="translate(7,67)"/>
<path d="M0,0 L1,0 L1,5 L-2,6 L-2,1 Z " fill="#040C14" transform="translate(8,42)"/>
<path d="M0,0 L4,1 L4,4 L0,4 Z " fill="#181A1E" transform="translate(13,16)"/>
<path d="M0,0 L5,4 L-1,5 L-1,2 Z " fill="#212B33" transform="translate(20,4)"/>
<path d="M0,0 L2,0 L3,3 L1,5 L-1,4 Z " fill="#30393D" transform="translate(36,78)"/>
<path d="M0,0 L1,2 L5,2 L4,5 L2,5 L2,3 L-1,2 Z " fill="#333B3B" transform="translate(137,62)"/>
<path d="M0,0 L3,3 L-1,4 L-2,1 Z " fill="#020407" transform="translate(104,54)"/>
<path d="M0,0 L4,1 L5,3 L0,4 Z " fill="#3A3B40" transform="translate(0,17)"/>
<path d="M0,0 L4,1 L4,3 L-1,3 Z " fill="#82889A" transform="translate(144,9)"/>
<path d="M0,0 L5,2 L4,4 L-1,2 Z " fill="#1A2127" transform="translate(17,8)"/>
<path d="M0,0 L2,0 L2,3 L-3,3 L-3,1 Z " fill="#1B3B3B" transform="translate(30,82)"/>
<path d="M0,0 L5,0 L5,3 L1,2 Z " fill="#313F49" transform="translate(119,77)"/>
<path d="M0,0 L4,0 L4,3 L0,3 Z " fill="#646A6F" transform="translate(136,50)"/>
<path d="M0,0 L4,0 L4,3 L0,3 Z " fill="#404549" transform="translate(16,0)"/>
<path d="M0,0 L4,2 L3,3 L-2,3 L0,2 Z " fill="#2C2623" transform="translate(52,82)"/>
<path d="M0,0 L3,1 L3,4 L0,4 Z " fill="#162229" transform="translate(130,76)"/>
<path d="M0,0 L4,0 L4,3 L0,2 Z " fill="#777F7E" transform="translate(131,71)"/>
<path d="M0,0 L2,0 L0,5 L-2,5 Z " fill="#11211E" transform="translate(136,60)"/>
<path d="M0,0 L4,1 L1,1 L0,5 L-2,3 Z " fill="#1F2A32" transform="translate(74,60)"/>
<path d="M0,0 L3,1 L1,5 L0,5 Z " fill="#292C34" transform="translate(136,10)"/>
<path d="M0,0 L4,1 L-2,4 Z " fill="#17212B" transform="translate(68,0)"/>
<path d="M0,0 L3,1 L3,3 L-1,3 Z " fill="#474A53" transform="translate(1,77)"/>
<path d="M0,0 L2,0 L2,3 L-2,3 L-2,1 Z " fill="#0B140E" transform="translate(146,57)"/>
<path d="M0,0 L2,0 L2,4 L-1,3 Z " fill="#5F686B" transform="translate(133,53)"/>
<path d="M0,0 L4,0 L4,3 L1,3 Z " fill="#464A50" transform="translate(143,40)"/>
<path d="M0,0 L1,2 L4,2 L3,5 L0,3 Z " fill="#1C2230" transform="translate(132,8)"/>
<path d="M0,0 L2,0 L2,4 L-1,3 Z " fill="#515762" transform="translate(106,3)"/>
<path d="M0,0 L3,1 L3,3 L-1,2 Z " fill="#112823" transform="translate(77,82)"/>
<path d="M0,0 L3,1 L2,3 L-1,3 Z " fill="#404851" transform="translate(25,81)"/>
<path d="M0,0 L2,0 L2,3 L-2,2 Z " fill="#1E373B" transform="translate(5,67)"/>
<path d="M0,0 L3,0 L3,2 L-1,3 Z " fill="#5B6364" transform="translate(139,61)"/>
<path d="M0,0 L2,1 L2,3 L-2,3 L-2,1 Z " fill="#383C44" transform="translate(145,37)"/>
<path d="M0,0 L3,0 L3,3 L0,3 Z " fill="#757D96" transform="translate(137,3)"/>
<path d="M0,0 L3,1 L3,3 L0,3 Z " fill="#2A504B" transform="translate(32,82)"/>
<path d="M0,0 L3,0 L3,3 L0,2 Z " fill="#535D64" transform="translate(126,77)"/>
<path d="M0,0 L2,0 L2,3 L-1,3 Z " fill="#010304" transform="translate(78,56)"/>
<path d="M0,0 L3,1 L3,3 L0,2 Z " fill="#3D3E45" transform="translate(0,60)"/>
<path d="M0,0 L3,1 L3,3 L0,2 Z " fill="#23242A" transform="translate(97,57)"/>
</svg>
