<?xml version="1.0" encoding="UTF-8"?>
<!-- Generator: visioncortex VTracer 0.6.5 -->
<svg version="1.1" xmlns="http://www.w3.org/2000/svg" width="150" height="85">
<path d="M0,0 L150,0 L150,85 L0,85 Z " fill="#141F2B" transform="translate(0,0)"/>
<path d="M0,0 L8,0 L8,17 L12,18 L9,19 L8,23 L16,24 L16,62 L-42,62 L-41,49 L-39,46 L-36,46 L-34,40 L-45,38 L-45,37 L-34,36 L-31,36 L-30,33 L-23,32 L-19,33 L-19,36 L-15,32 L-16,29 L-18,28 L-17,25 L-13,24 L-11,27 L-11,30 L-6,31 L-6,16 L-3,17 L-3,22 L0,22 L0,17 L2,17 L3,15 L6,15 L6,5 L3,5 L3,13 L1,13 L0,9 Z " fill="#41494D" transform="translate(134,23)"/>
<path d="M0,0 L1,0 L1,7 L8,4 L11,3 L11,30 L-41,30 L-41,22 L-20,21 L-20,13 L-22,9 L-22,5 L-12,5 L-3,7 L-3,2 Z " fill="#304356" transform="translate(139,55)"/>
<path d="M0,0 L40,0 L40,17 L38,16 L36,10 L33,10 L36,15 L36,20 L34,21 L32,20 L32,18 L28,19 L25,17 L25,19 L22,20 L21,23 L16,25 L6,21 L6,17 L10,17 L10,15 L8,15 L5,7 L0,4 Z " fill="#2C313C" transform="translate(110,0)"/>
<path d="M0,0 L2,0 L2,6 L9,6 L8,12 L16,12 L17,17 L10,17 L10,23 L15,21 L17,19 L21,19 L21,26 L15,26 L14,27 L20,28 L25,28 L26,31 L0,31 Z M16,11 Z " fill="#2D343F" transform="translate(0,54)"/>
<path d="M0,0 L7,0 L10,9 L12,10 L12,16 L11,17 L-10,17 L-10,25 L-16,25 L-15,12 L-13,9 L-10,9 L-9,6 L-3,6 L-1,4 Z " fill="#6B5153" transform="translate(108,60)"/>
<path d="M0,0 L1,0 L1,7 L8,4 L11,3 L11,14 L9,16 L4,16 L0,11 L-13,11 L-14,16 L-16,16 L-16,20 L-14,20 L-14,22 L-12,22 L-12,18 L-10,17 L-2,17 L-2,20 L-7,22 L-7,24 L-12,24 L-13,26 L-18,27 L-19,26 L-20,13 L-22,9 L-22,5 L-12,5 L-3,7 L-3,2 Z " fill="#313439" transform="translate(139,55)"/>
<path d="M0,0 L3,1 L1,1 L0,6 L-2,10 L-4,14 L-7,16 L-7,22 L-4,23 L-20,22 L-17,32 L-20,31 L-22,26 L-22,22 L-29,22 L-30,27 L-32,29 L-37,29 L-37,25 L-48,23 L-48,22 L-37,21 L-34,21 L-33,18 L-26,17 L-22,18 L-22,21 L-18,17 L-19,14 L-21,13 L-20,10 L-16,9 L-14,12 L-14,15 L-9,16 L-9,1 L-6,2 L-6,7 L-3,7 L-3,2 L-1,2 Z M-6,12 Z " fill="#3C3840" transform="translate(137,38)"/>
<path d="M0,0 L26,0 L26,2 L30,2 L30,7 L25,8 L25,11 L23,11 L22,14 L17,13 L11,10 L11,8 L8,10 L0,10 Z " fill="#110F20" transform="translate(0,0)"/>
<path d="M0,0 L18,0 L18,4 L23,6 L25,8 L26,15 L28,15 L28,17 L20,17 L12,10 L11,6 L8,7 L8,12 L7,15 L2,14 L0,9 Z " fill="#08101C" transform="translate(92,0)"/>
<path d="M0,0 L4,1 L8,5 L11,4 L11,1 L13,2 L12,6 L14,7 L25,7 L25,5 L22,4 L22,2 L26,4 L29,8 L25,12 L18,13 L18,15 L10,16 L6,15 L2,11 L-1,11 L-1,1 Z " fill="#292B29" transform="translate(61,42)"/>
<path d="M0,0 L14,0 L18,4 L18,6 L25,4 L25,10 L12,15 L7,15 L7,12 L12,10 L12,7 L2,8 L2,12 L0,12 L0,10 L-2,10 L-2,6 L0,6 Z " fill="#303D4C" transform="translate(125,65)"/>
<path d="M0,0 L3,0 L7,7 L7,37 L-1,36 L0,32 L2,31 L0,30 L0,13 L3,13 L3,7 L0,3 Z " fill="#0B1018" transform="translate(143,10)"/>
<path d="M0,0 L2,3 L5,6 L5,12 L4,13 L-17,13 L-17,21 L-23,21 L-22,8 L-20,5 L-17,5 L-16,2 L-15,2 L-14,11 L2,11 L2,7 L0,6 Z " fill="#544A5D" transform="translate(115,64)"/>
<path d="M0,0 L19,0 L19,6 L11,5 L10,8 L0,8 Z " fill="#393C4E" transform="translate(98,77)"/>
<path d="M0,0 L3,0 L3,10 L-19,10 L-18,6 L-7,6 L-5,6 L-3,1 Z " fill="#162B51" transform="translate(147,75)"/>
<path d="M0,0 L4,1 L8,5 L11,4 L11,1 L13,2 L12,6 L17,8 L16,10 L12,9 L8,8 L7,14 L5,14 L2,11 L-1,11 L-1,1 Z " fill="#293034" transform="translate(61,42)"/>
<path d="M0,0 L5,0 L5,3 L7,3 L5,12 L5,17 L0,18 L-1,12 L0,10 L-2,2 Z " fill="#253044" transform="translate(80,61)"/>
<path d="M0,0 L13,0 L11,1 L11,5 L25,5 L26,7 L0,7 Z " fill="#3F4C60" transform="translate(0,78)"/>
<path d="M0,0 L3,1 L5,6 L4,10 L6,14 L5,19 L4,19 L4,12 L-1,14 L-3,16 L-7,16 L-7,10 L0,10 L-1,5 L-3,5 L-2,2 L0,2 Z M-1,4 Z " fill="#22363B" transform="translate(17,61)"/>
<path d="M0,0 L4,0 L5,2 L5,16 L0,15 L-4,6 L-3,4 L-1,4 Z " fill="#362930" transform="translate(123,38)"/>
<path d="M0,0 L1,2 L13,2 L13,7 L8,6 L8,3 L3,3 L3,8 L-9,8 L-9,3 L-1,1 Z " fill="#253D3E" transform="translate(41,77)"/>
<path d="M0,0 L2,0 L5,3 L13,6 L11,10 L13,11 L10,12 L3,7 L-9,6 L-9,2 L-1,1 Z " fill="#080716" transform="translate(9,8)"/>
<path d="M0,0 L8,0 L8,20 L5,21 L6,5 L3,5 L3,13 L1,13 L0,9 Z " fill="#59626F" transform="translate(134,23)"/>
<path d="M0,0 L7,0 L9,1 L9,3 L7,3 L7,6 L2,7 L1,15 L-3,16 L-5,10 L-3,10 L-2,5 L2,4 L2,1 Z " fill="#081A24" transform="translate(90,62)"/>
<path d="M0,0 L1,0 L1,6 L-12,11 L-17,11 L-17,8 L-14,6 L-9,6 L-9,1 L-1,1 Z " fill="#5B7287" transform="translate(149,69)"/>
<path d="M0,0 L10,0 L10,17 L8,16 L6,12 L6,5 L0,4 Z " fill="#42445E" transform="translate(140,0)"/>
<path d="M0,0 L6,0 L6,2 L10,2 L10,7 L5,8 L5,11 L3,11 L2,14 L0,14 L0,12 L-2,12 L0,7 L4,7 L4,3 L0,3 Z " fill="#2B3542" transform="translate(20,0)"/>
<path d="M0,0 L8,0 L6,3 L-6,8 L-18,8 L-18,5 L-6,4 Z " fill="#02050F" transform="translate(77,0)"/>
<path d="M0,0 L3,0 L3,10 L0,10 L-1,13 L-3,12 L-3,17 L-6,17 L-7,7 L-4,4 L-3,8 L0,8 Z " fill="#1A232D" transform="translate(137,28)"/>
<path d="M0,0 L1,3 L-1,6 L-4,7 L-6,15 L-7,22 L-10,22 L-11,19 L-18,17 L-15,15 L-13,11 L-12,14 L-9,14 L-8,8 L-5,5 L-2,5 L-2,2 L0,2 Z " fill="#1C293E" transform="translate(99,63)"/>
<path d="M0,0 L4,2 L4,4 L2,4 L0,14 L-6,12 L-7,6 L-2,2 L0,2 Z " fill="#4B4F5A" transform="translate(136,48)"/>
<path d="M0,0 L7,5 L7,7 L-11,7 L-11,5 Z " fill="#040708" transform="translate(89,53)"/>
<path d="M0,0 L4,0 L4,7 L-2,7 L-3,8 L3,9 L8,9 L5,11 L-6,10 L-7,4 L-2,2 Z " fill="#2E3C49" transform="translate(17,73)"/>
<path d="M0,0 L1,2 L-3,7 L-2,12 L-1,12 L-1,19 L-7,19 L-6,6 L-4,3 L-1,3 Z " fill="#344553" transform="translate(99,66)"/>
<path d="M0,0 L7,0 L6,3 L2,2 L1,8 L1,12 L-8,12 L-8,7 L-2,5 Z " fill="#60464A" transform="translate(108,60)"/>
<path d="M0,0 L6,0 L6,4 L11,6 L13,8 L14,14 L10,13 L10,7 L1,6 L1,4 L-2,3 Z " fill="#1A1F2B" transform="translate(104,0)"/>
<path d="M0,0 L12,0 L14,4 L11,5 L0,5 Z " fill="#484E59" transform="translate(127,65)"/>
<path d="M0,0 L9,1 L9,6 L7,8 L2,8 L-1,4 Z " fill="#160C13" transform="translate(141,63)"/>
<path d="M0,0 L4,4 L9,6 L13,12 L5,12 L2,8 L0,4 Z " fill="#4A4F5B" transform="translate(101,8)"/>
<path d="M0,0 L1,3 L-3,6 L-3,4 L-8,5 L-14,4 L-15,8 L-20,8 L-20,4 L-17,4 L-16,1 L-6,2 Z " fill="#374A5E" transform="translate(143,77)"/>
<path d="M0,0 L10,0 L17,1 L13,3 L13,6 L9,8 L8,12 L5,13 L8,4 L6,4 L6,1 L0,3 L-2,4 Z " fill="#1B2B34" transform="translate(79,60)"/>
<path d="M0,0 L5,1 L5,9 L-1,11 L-3,7 Z " fill="#475C76" transform="translate(145,49)"/>
<path d="M0,0 L10,0 L12,1 L12,5 L0,5 Z " fill="#373646" transform="translate(0,15)"/>
<path d="M0,0 L4,0 L3,8 L6,8 L8,9 L3,12 L0,12 L-1,6 L-4,7 L-2,2 L0,2 Z " fill="#40495A" transform="translate(140,50)"/>
<path d="M0,0 L4,1 L12,3 L15,4 L15,6 L10,8 L0,4 Z " fill="#3C4956" transform="translate(116,17)"/>
<path d="M0,0 L6,0 L6,7 L5,10 L0,10 Z " fill="#5D5E6D" transform="translate(0,0)"/>
<path d="M0,0 L2,1 L2,3 L7,3 L7,6 L-9,6 L-10,3 L-1,2 Z " fill="#654E5B" transform="translate(110,69)"/>
<path d="M0,0 L5,0 L6,2 L6,8 L-6,8 L-6,3 L-1,3 L0,6 L4,7 L4,2 L0,2 Z " fill="#233440" transform="translate(50,77)"/>
<path d="M0,0 L9,0 L12,1 L12,5 L9,5 L9,3 L5,4 L4,7 L2,7 L0,3 Z " fill="#232728" transform="translate(118,60)"/>
<path d="M0,0 L13,1 L16,4 L17,6 L11,6 L10,3 L2,4 L-3,3 Z " fill="#28252E" transform="translate(15,79)"/>
<path d="M0,0 L2,4 L5,5 L4,7 L1,7 L1,5 L-3,5 L-4,9 L-6,9 L-6,11 L-11,14 L-13,15 L-12,11 L-6,7 L-2,1 Z M-14,15 Z " fill="#282C35" transform="translate(126,33)"/>
<path d="M0,0 L8,0 L8,3 L3,5 L3,7 L-1,7 L-1,1 Z " fill="#071626" transform="translate(129,72)"/>
<path d="M0,0 L4,1 L6,3 L6,6 L4,6 L4,8 L-1,8 L-1,1 Z " fill="#273946" transform="translate(61,42)"/>
<path d="M0,0 L8,0 L7,6 L0,6 Z " fill="#282C39" transform="translate(99,79)"/>
<path d="M0,0 L7,1 L8,7 L6,9 L0,3 Z " fill="#051526" transform="translate(63,39)"/>
<path d="M0,0 L1,0 L1,6 L-4,7 L-4,5 L-9,5 L-9,1 L-1,1 Z " fill="#344F5E" transform="translate(149,69)"/>
<path d="M0,0 L3,1 L3,4 L17,4 L18,6 L0,6 Z " fill="#555D7C" transform="translate(8,79)"/>
<path d="M0,0 L7,2 L6,7 L0,7 Z " fill="#0E0B13" transform="translate(0,70)"/>
<path d="M0,0 L1,2 L9,3 L9,6 L-2,6 Z " fill="#203638" transform="translate(141,44)"/>
<path d="M0,0 L2,1 L3,6 L2,13 L-1,13 L-2,3 Z " fill="#151F24" transform="translate(132,32)"/>
<path d="M0,0 L3,0 L7,8 L6,9 L5,22 L4,22 L3,7 L0,3 Z " fill="#1D181E" transform="translate(143,10)"/>
<path d="M0,0 L4,3 L4,8 L2,9 L0,8 L0,6 L-3,5 L-3,1 Z " fill="#352F30" transform="translate(142,12)"/>
<path d="M0,0 L4,1 L-2,5 L-10,5 L-13,3 L-12,2 L-1,1 Z " fill="#212C39" transform="translate(73,0)"/>
<path d="M0,0 L6,0 L6,2 L14,2 L14,4 L-1,4 Z " fill="#253546" transform="translate(129,81)"/>
<path d="M0,0 L2,1 L2,5 L7,5 L3,6 L2,12 L0,12 L0,10 L-2,10 L-2,6 L0,6 Z " fill="#3B4753" transform="translate(125,65)"/>
<path d="M0,0 L2,0 L2,4 L8,5 L7,8 L5,8 L3,11 L0,6 Z " fill="#343D54" transform="translate(138,0)"/>
<path d="M0,0 L8,0 L8,6 L7,2 L1,1 L1,7 L3,7 L3,13 L1,13 L0,9 Z " fill="#404A57" transform="translate(134,23)"/>
<path d="M0,0 L3,0 L1,9 L-9,7 L-7,5 L-3,6 L-1,4 Z " fill="#1C3456" transform="translate(144,76)"/>
<path d="M0,0 L1,0 L1,6 L-4,9 L-7,8 L-6,3 L0,4 Z " fill="#1D3245" transform="translate(127,73)"/>
<path d="M0,0 L1,2 L0,5 L3,4 L3,10 L-1,11 L-3,5 L-1,5 Z " fill="#0E1A34" transform="translate(88,67)"/>
<path d="M0,0 L1,0 L1,9 L-3,11 L-4,5 L-2,2 L0,2 Z " fill="#46565E" transform="translate(99,68)"/>
<path d="M0,0 L2,0 L2,6 L-10,6 L-11,4 L-2,2 Z " fill="#302935" transform="translate(148,58)"/>
<path d="M0,0 L5,0 L5,7 L3,8 L0,5 Z " fill="#33404C" transform="translate(80,61)"/>
<path d="M0,0 L2,0 L2,6 L9,6 L8,11 L6,11 L6,8 L0,7 Z " fill="#444752" transform="translate(0,54)"/>
<path d="M0,0 L6,0 L5,5 L0,6 Z " fill="#162823" transform="translate(10,71)"/>
<path d="M0,0 L7,0 L7,5 L0,4 Z " fill="#4B5887" transform="translate(140,0)"/>
<path d="M0,0 L5,1 L6,6 L0,6 Z " fill="#2E3341" transform="translate(67,79)"/>
<path d="M0,0 L6,1 L5,6 L0,6 Z " fill="#23212F" transform="translate(0,61)"/>
<path d="M0,0 L4,0 L4,2 L8,3 L8,5 L0,5 Z " fill="#141222" transform="translate(76,80)"/>
<path d="M0,0 L3,1 L0,4 L-2,4 L-3,8 L-6,9 L-8,8 L-8,5 L-3,3 Z " fill="#292C33" transform="translate(106,52)"/>
<path d="M0,0 L7,6 L10,9 L10,11 L6,9 L0,4 Z " fill="#737984" transform="translate(101,8)"/>
<path d="M0,0 L1,0 L3,6 L4,8 L0,6 L-1,4 L0,9 L-3,10 L-4,2 Z " fill="#2D323D" transform="translate(103,5)"/>
<path d="M0,0 L1,0 L1,7 L-4,7 L-5,3 L0,2 Z " fill="#575A69" transform="translate(134,53)"/>
<path d="M0,0 L3,1 L1,1 L0,6 L-2,10 L-6,10 L-6,7 L-3,7 L-3,2 L-1,2 Z " fill="#353537" transform="translate(137,38)"/>
<path d="M0,0 L8,0 L6,3 L0,4 L-3,2 Z " fill="#06101D" transform="translate(77,0)"/>
<path d="M0,0 L7,2 L8,4 L-3,4 L-3,2 Z " fill="#376455" transform="translate(35,81)"/>
<path d="M0,0 L4,2 L7,6 L3,8 L-3,8 L-3,6 L3,5 L3,3 L0,2 Z " fill="#2A3036" transform="translate(83,44)"/>
<path d="M0,0 L5,1 L5,4 L-3,4 L-2,1 Z " fill="#243051" transform="translate(3,81)"/>
<path d="M0,0 L5,1 L1,2 L1,4 L3,5 L2,7 L-3,7 L-3,3 L0,3 Z " fill="#2D3F52" transform="translate(126,78)"/>
<path d="M0,0 L6,0 L6,4 L-1,4 Z " fill="#42434A" transform="translate(109,56)"/>
<path d="M0,0 L4,1 L7,3 L7,6 L3,5 L0,4 Z " fill="#3A414D" transform="translate(116,17)"/>
<path d="M0,0 L8,2 L8,5 L2,5 L0,3 Z " fill="#02030D" transform="translate(104,7)"/>
<path d="M0,0 L2,0 L2,7 L1,10 L-4,10 L-4,8 L-1,7 Z " fill="#403C4C" transform="translate(4,0)"/>
<path d="M0,0 L1,4 L-2,7 L-7,7 L-5,6 L-5,3 L-1,2 Z " fill="#553A3A" transform="translate(107,60)"/>
<path d="M0,0 L9,0 L8,3 L0,3 Z " fill="#232B38" transform="translate(0,20)"/>
<path d="M0,0 L5,2 L6,9 L4,10 L4,3 L-1,4 Z " fill="#202F33" transform="translate(17,70)"/>
<path d="M0,0 L3,1 L3,5 L-3,5 L-3,2 L0,2 Z " fill="#151E28" transform="translate(135,17)"/>
<path d="M0,0 L5,0 L4,5 L1,6 L1,4 L-2,3 Z " fill="#14191A" transform="translate(104,0)"/>
<path d="M0,0 L2,1 L1,4 L-1,4 L-1,6 L-7,7 L-7,4 L-2,4 L-2,2 L0,2 Z " fill="#2D363B" transform="translate(67,46)"/>
<path d="M0,0 L3,0 L3,7 L-1,8 Z " fill="#231F2F" transform="translate(6,0)"/>
<path d="M0,0 L5,1 L5,4 L-1,4 Z " fill="#566475" transform="translate(109,81)"/>
<path d="M0,0 L8,0 L8,3 L3,5 L2,7 L2,3 L4,2 Z " fill="#192737" transform="translate(129,72)"/>
<path d="M0,0 L6,1 L4,3 L-1,5 L-1,3 L-6,3 L-6,2 Z " fill="#222E3A" transform="translate(6,65)"/>
<path d="M0,0 L8,2 L10,3 L8,5 L3,5 Z " fill="#14212B" transform="translate(140,66)"/>
<path d="M0,0 L2,0 L5,10 L2,9 L0,4 Z " fill="#4A3638" transform="translate(115,60)"/>
<path d="M0,0 L5,0 L5,4 L0,4 Z " fill="#191F30" transform="translate(99,81)"/>
<path d="M0,0 L5,1 L5,4 L0,4 Z " fill="#656C77" transform="translate(127,66)"/>
<path d="M0,0 Z M-2,1 L0,1 L1,6 L-4,5 Z " fill="#314D51" transform="translate(16,65)"/>
<path d="M0,0 L2,1 L1,3 L5,3 L5,1 L7,1 L7,5 L-1,4 Z " fill="#0E2325" transform="translate(143,42)"/>
<path d="M0,0 L3,1 L1,3 L0,10 L-2,10 L-1,1 Z " fill="#1E2B39" transform="translate(60,40)"/>
<path d="M0,0 L2,4 L5,5 L4,7 L1,7 L1,5 L-2,5 L-2,1 Z " fill="#2C363C" transform="translate(126,33)"/>
<path d="M0,0 L2,0 L2,8 L-1,6 L-1,1 Z " fill="#8089AC" transform="translate(148,5)"/>
<path d="M0,0 L5,0 L5,4 L0,4 Z " fill="#3F4856" transform="translate(25,3)"/>
<path d="M0,0 L5,0 L5,5 L1,4 Z " fill="#27344A" transform="translate(112,78)"/>
<path d="M0,0 L1,4 L-10,2 L-10,1 Z " fill="#364146" transform="translate(99,59)"/>
<path d="M0,0 L5,1 L3,5 L0,4 Z " fill="#5B6E89" transform="translate(145,52)"/>
<path d="M0,0 L4,1 L4,3 L2,3 L2,5 L-2,3 L-2,1 Z " fill="#34434C" transform="translate(63,45)"/>
<path d="M0,0 L3,1 L3,8 L0,5 Z " fill="#4E4B50" transform="translate(128,39)"/>
<path d="M0,0 L4,1 L6,0 L8,1 L8,3 L0,3 Z " fill="#364D61" transform="translate(114,82)"/>
<path d="M0,0 L4,0 L4,4 L-1,3 Z " fill="#31424E" transform="translate(50,80)"/>
<path d="M0,0 L6,2 L5,7 L3,7 L3,2 L0,2 Z " fill="#201E27" transform="translate(1,70)"/>
<path d="M0,0 L1,0 L1,5 L-3,7 L-2,2 Z " fill="#09191E" transform="translate(15,58)"/>
<path d="M0,0 L4,0 L4,4 L-1,4 Z " fill="#313B53" transform="translate(140,50)"/>
<path d="M0,0 L1,4 L4,5 L4,6 L-3,6 L-1,5 Z " fill="#212630" transform="translate(109,0)"/>
<path d="M0,0 L0,3 L-5,4 L-8,2 L-3,1 L-1,1 Z " fill="#2B3D50" transform="translate(143,80)"/>
<path d="M0,0 L5,0 L5,3 L-1,3 Z " fill="#19222F" transform="translate(129,82)"/>
<path d="M0,0 L1,2 L6,2 L3,4 L-2,4 L-2,1 Z " fill="#505F72" transform="translate(134,76)"/>
<path d="M0,0 L4,1 L4,3 L-6,3 L-6,2 L0,2 Z " fill="#383644" transform="translate(6,75)"/>
<path d="M0,0 L2,1 L1,5 L-5,4 L-2,1 Z " fill="#283D44" transform="translate(12,66)"/>
<path d="M0,0 L2,1 L0,5 L-5,6 L-3,2 Z " fill="#464954" transform="translate(134,50)"/>
<path d="M0,0 L4,1 L2,5 L4,5 L3,7 L0,5 Z " fill="#181627" transform="translate(16,7)"/>
<path d="M0,0 L6,1 L5,4 L0,3 Z " fill="#313E6F" transform="translate(140,4)"/>
<path d="M0,0 L4,0 L4,4 L0,4 Z " fill="#363949" transform="translate(68,80)"/>
<path d="M0,0 L7,0 L4,3 L0,3 Z " fill="#1A2C30" transform="translate(34,77)"/>
<path d="M0,0 L4,0 L4,4 L0,4 Z " fill="#303539" transform="translate(130,61)"/>
<path d="M0,0 L1,0 L1,5 L-3,5 L-2,1 Z " fill="#2E3549" transform="translate(139,55)"/>
<path d="M0,0 L3,1 L2,5 L-1,5 L0,3 L-2,2 L0,2 Z " fill="#1E242E" transform="translate(120,12)"/>
<path d="M0,0 L6,0 L6,3 L1,3 Z " fill="#0C1835" transform="translate(83,82)"/>
<path d="M0,0 L1,0 L1,5 L-3,5 L-3,2 Z " fill="#607B92" transform="translate(149,69)"/>
<path d="M0,0 L5,1 L5,4 L-1,3 Z " fill="#3E516A" transform="translate(145,49)"/>
<path d="M0,0 L4,0 L4,4 L0,3 Z " fill="#6D7AB0" transform="translate(142,0)"/>
<path d="M0,0 L2,1 L2,4 L-3,4 L-3,2 Z " fill="#3D6D4C" transform="translate(35,81)"/>
<path d="M0,0 L2,0 L4,5 L0,5 Z " fill="#0A1F2B" transform="translate(44,80)"/>
<path d="M0,0 L2,1 L1,5 L-3,2 Z " fill="#2C4B4D" transform="translate(41,79)"/>
<path d="M0,0 L3,1 L1,1 L0,6 L-3,4 L-3,2 L-1,2 Z " fill="#313D40" transform="translate(137,38)"/>
<path d="M0,0 L4,1 L6,5 L2,3 Z " fill="#828793" transform="translate(105,14)"/>
<path d="M0,0 L1,3 L4,3 L3,6 L1,6 L1,4 L-1,4 Z " fill="#2B2E3C" transform="translate(19,8)"/>
<path d="M0,0 L3,0 L4,5 L1,4 Z " fill="#1C3038" transform="translate(46,80)"/>
<path d="M0,0 L8,1 L8,2 L1,3 Z " fill="#131623" transform="translate(106,6)"/>
<path d="M0,0 L5,1 L2,4 Z " fill="#0B130E" transform="translate(28,80)"/>
<path d="M0,0 L3,1 L2,4 L-3,3 Z " fill="#1A2939" transform="translate(15,79)"/>
<path d="M0,0 L3,1 L0,4 L-2,4 L-2,1 Z " fill="#041511" transform="translate(13,72)"/>
<path d="M0,0 L1,2 L-1,5 L-3,5 L-4,2 Z " fill="#5E3E44" transform="translate(106,65)"/>
<path d="M0,0 L4,0 L4,3 L0,3 Z " fill="#0C0919" transform="translate(0,63)"/>
<path d="M0,0 L1,0 L1,6 L-2,6 Z " fill="#263035" transform="translate(141,44)"/>
<path d="M0,0 L4,0 L4,3 L0,3 Z " fill="#3F4855" transform="translate(20,8)"/>
<path d="M0,0 L3,0 L3,4 L0,4 Z " fill="#111C47" transform="translate(147,0)"/>
<path d="M0,0 Z M-1,1 L0,5 L-3,6 L-3,2 Z " fill="#191E25" transform="translate(108,0)"/>
<path d="M0,0 L3,0 L3,3 L-1,3 Z " fill="#304770" transform="translate(147,82)"/>
<path d="M0,0 L3,0 L3,3 L-1,3 Z " fill="#475873" transform="translate(95,82)"/>
<path d="M0,0 L4,1 L4,3 L0,3 Z " fill="#091426" transform="translate(80,82)"/>
<path d="M0,0 L4,1 L1,4 Z " fill="#47536B" transform="translate(0,79)"/>
<path d="M0,0 L3,0 L2,4 L0,4 Z " fill="#3E5053" transform="translate(17,74)"/>
<path d="M0,0 L3,1 L2,4 L-1,3 Z " fill="#2B344B" transform="translate(81,74)"/>
<path d="M0,0 L3,0 L2,4 L-1,2 Z " fill="#342D30" transform="translate(7,72)"/>
<path d="M0,0 L4,0 L3,3 L0,3 Z " fill="#293F3D" transform="translate(142,47)"/>
<path d="M0,0 L2,0 L2,4 L-1,4 Z " fill="#422A30" transform="translate(124,44)"/>
<path d="M0,0 L2,1 L2,4 L-1,5 Z " fill="#6B7377" transform="translate(140,39)"/>
<path d="M0,0 L4,1 L3,5 L3,3 L0,2 Z " fill="#282938" transform="translate(12,17)"/>
<path d="M0,0 L3,0 L3,2 L-1,3 L-2,1 Z " fill="#010204" transform="translate(147,66)"/>
<path d="M0,0 L3,0 L2,4 L0,3 Z " fill="#2A1A27" transform="translate(124,49)"/>
<path d="M0,0 L2,0 L3,3 L-1,3 Z " fill="#0B1123" transform="translate(101,82)"/>
<path d="M0,0 L2,0 L3,3 L-1,3 Z " fill="#0E1B3D" transform="translate(4,82)"/>
<path d="M0,0 L3,0 L3,3 L0,3 Z " fill="#151A20" transform="translate(127,62)"/>
<path d="M0,0 L3,0 L3,3 L0,3 Z " fill="#848A97" transform="translate(131,57)"/>
<path d="M0,0 L3,1 L3,3 L0,3 Z " fill="#3D4F57" transform="translate(81,62)"/>
<path d="M0,0 L2,0 L2,3 L-1,3 Z " fill="#030707" transform="translate(145,42)"/>
<path d="M0,0 L3,1 L3,3 L0,3 Z " fill="#101C43" transform="translate(143,7)"/>
<path d="M0,0 L3,0 L2,3 L0,2 Z " fill="#0A2425" transform="translate(30,78)"/>
</svg>
