<?xml version="1.0" encoding="UTF-8"?>
<!-- Generator: visioncortex VTracer 0.6.5 -->
<svg version="1.1" xmlns="http://www.w3.org/2000/svg" width="150" height="84">
<path d="M0,0 L150,0 L150,84 L0,84 Z " fill="#010304" transform="translate(0,0)"/>
<path d="M0,0 L69,0 L69,9 L68,10 L56,10 L37,11 L32,12 L32,14 L29,16 L22,18 L13,21 L13,28 L12,32 L11,41 L17,43 L21,45 L21,50 L26,52 L33,52 L33,54 L38,55 L46,58 L46,60 L60,57 L69,57 L77,58 L77,60 L85,60 L85,62 L88,61 L101,62 L109,65 L120,67 L120,73 L135,73 L135,75 L143,75 L150,78 L150,84 L0,84 Z " fill="#3C464C" transform="translate(0,0)"/>
<path d="M0,0 L41,0 L41,2 L43,2 L43,4 L45,4 L50,12 L50,21 L49,30 L46,30 L45,36 L41,38 L40,41 L30,41 L25,36 L24,35 L24,30 L35,30 L34,24 L28,23 L26,22 L26,18 L18,18 L7,13 L4,11 L4,8 L2,8 L0,5 Z " fill="#374342" transform="translate(73,0)"/>
<path d="M0,0 L6,0 L6,2 L9,1 L22,2 L30,5 L41,7 L41,13 L56,13 L56,15 L64,15 L71,18 L71,24 L-1,24 Z " fill="#475759" transform="translate(79,60)"/>
<path d="M0,0 L69,0 L69,9 L68,10 L56,10 L37,11 L32,12 L32,14 L29,16 L22,18 L17,19 L16,17 L11,16 L10,19 L4,22 L1,29 L0,29 Z " fill="#333F44" transform="translate(0,0)"/>
<path d="M0,0 L2,0 L2,2 L12,2 L12,9 L17,6 L24,6 L24,4 L27,4 L27,8 L34,6 L41,6 L42,4 L42,27 L35,25 L27,24 L27,22 L12,22 L12,16 L1,15 L-7,12 L-13,11 L-14,7 L-7,1 Z " fill="#010203" transform="translate(108,51)"/>
<path d="M0,0 L4,0 L4,24 L3,26 L-6,28 L-11,28 L-11,24 L-14,24 L-14,26 L-23,28 L-26,29 L-26,22 L-36,22 L-36,20 L-27,16 L-18,15 L-18,10 L-11,8 L-11,6 L-5,4 Z " fill="#484D50" transform="translate(146,31)"/>
<path d="M0,0 L9,1 L9,7 L24,7 L24,9 L32,9 L39,12 L39,18 L1,18 L2,13 L-2,13 L-2,10 L3,9 L-2,9 L-2,4 L1,5 Z " fill="#3B474B" transform="translate(111,66)"/>
<path d="M0,0 L19,0 L20,5 L25,6 L30,17 L32,18 L32,20 L36,21 L36,30 L34,26 L34,24 L28,23 L26,22 L26,18 L18,18 L7,13 L4,11 L4,8 L2,8 L0,5 Z " fill="#212C2D" transform="translate(73,0)"/>
<path d="M0,0 L5,1 L4,5 L-1,9 L-3,9 L-3,11 L5,11 L8,9 L9,18 L8,23 L5,23 L5,21 L1,21 L0,25 L5,25 L4,30 L1,36 L-9,36 L-14,31 L-15,30 L-15,25 L-3,25 L-3,16 L-7,15 L-7,7 L-3,4 L-1,4 Z " fill="#383F41" transform="translate(112,5)"/>
<path d="M0,0 L35,0 L35,9 L34,10 L22,10 L-2,11 L-1,9 L-1,1 Z " fill="#434F4D" transform="translate(34,0)"/>
<path d="M0,0 L6,0 L8,4 L8,8 L11,9 L16,22 L16,24 L-1,24 Z " fill="#6B7378" transform="translate(79,60)"/>
<path d="M0,0 L3,0 L3,4 L7,4 L7,6 L-1,6 L-1,9 L3,10 L-1,10 L0,14 L-6,17 L-10,16 L-11,19 L-16,21 L-16,14 L-26,14 L-26,12 L-17,8 L-8,7 L-7,3 L-1,3 Z M3,8 Z " fill="#4C5053" transform="translate(136,39)"/>
<path d="M0,0 L4,0 L4,9 L2,9 L2,24 L-15,24 L-14,21 L-10,17 L-8,17 L-6,7 Z " fill="#5E686C" transform="translate(72,60)"/>
<path d="M0,0 L2,1 L2,3 L5,4 L6,6 L14,9 L22,10 L23,11 L39,13 L39,14 L29,15 L29,13 L21,13 L21,11 L4,11 L-3,12 L-4,13 L-10,13 L-11,11 L-18,9 L-19,7 L-13,8 L-12,2 L-6,2 L-5,5 L1,4 Z " fill="#0C161A" transform="translate(56,47)"/>
<path d="M0,0 L4,1 L4,4 L2,4 L3,9 L8,13 L8,15 L14,14 L18,15 L19,11 L23,10 L22,13 L20,13 L18,17 L15,17 L14,22 L11,22 L12,16 L7,21 L5,24 L0,23 L1,17 L3,13 L-1,10 L-4,9 L-4,3 Z " fill="#13181C" transform="translate(95,26)"/>
<path d="M0,0 L5,0 L8,2 L8,4 L12,5 L16,9 L17,14 L18,17 L20,17 L19,20 L9,20 L8,15 L6,15 L5,8 L2,3 L0,2 Z " fill="#536366" transform="translate(90,64)"/>
<path d="M0,0 L12,0 L18,2 L19,5 L18,7 L-2,8 L-4,10 L-10,10 L-9,6 L-6,6 L-6,3 L-4,3 L-4,1 Z " fill="#081216" transform="translate(57,20)"/>
<path d="M0,0 L6,0 L13,4 L13,6 L18,7 L20,11 L23,12 L23,15 L14,14 L8,11 L7,8 L1,6 L0,5 Z " fill="#3A4442" transform="translate(73,0)"/>
<path d="M0,0 L9,0 L9,9 L8,10 L-21,10 L-21,9 L-7,8 L-6,1 L-1,2 L0,8 L2,8 Z " fill="#46514F" transform="translate(60,0)"/>
<path d="M0,0 L9,0 L17,1 L17,3 L19,3 L19,22 L18,27 L14,27 L14,12 L16,12 L16,3 L4,2 L-7,2 L-7,1 Z " fill="#354044" transform="translate(60,57)"/>
<path d="M0,0 L4,5 L4,14 L3,23 L0,23 L-1,29 L-5,30 L-4,26 L-2,26 L-2,23 L-7,23 L-6,18 L-2,19 L-2,21 L1,21 L1,11 L0,8 L-2,10 L-9,9 L-4,5 L-2,5 L-2,3 L0,3 Z " fill="#232D2E" transform="translate(119,7)"/>
<path d="M0,0 L6,0 L7,4 L5,4 L5,9 L9,10 L9,11 L4,11 L4,16 L1,17 L2,24 L-1,24 Z " fill="#576165" transform="translate(79,60)"/>
<path d="M0,0 L13,0 L14,5 L19,6 L20,13 L16,12 L11,7 L7,6 L7,4 L1,2 Z " fill="#232C2E" transform="translate(79,0)"/>
<path d="M0,0 L10,0 L12,5 L12,9 L16,11 L6,11 L1,6 L0,5 Z " fill="#222729" transform="translate(97,30)"/>
<path d="M0,0 L1,3 L6,5 L13,5 L13,7 L18,8 L19,10 L-1,9 L-5,8 L-3,3 L0,3 Z " fill="#2D373C" transform="translate(20,47)"/>
<path d="M0,0 L4,0 L11,8 L9,9 L9,11 L0,14 Z " fill="#010305" transform="translate(0,6)"/>
<path d="M0,0 L5,1 L4,5 L-1,9 L-3,9 L-1,12 L2,13 L2,15 L-5,14 L-7,13 L-7,7 L-3,4 L-1,4 Z " fill="#455958" transform="translate(112,5)"/>
<path d="M0,0 L9,0 L12,1 L12,3 L14,4 L13,5 L-6,5 L-6,2 L0,2 Z " fill="#253034" transform="translate(60,21)"/>
<path d="M0,0 L2,0 L2,2 L0,2 L0,10 L-1,17 L0,21 L7,22 L6,26 L-4,21 L-4,10 L-2,1 Z " fill="#162026" transform="translate(15,20)"/>
<path d="M0,0 L5,1 L8,6 L8,13 L10,13 L11,18 L7,18 L1,3 Z " fill="#3A494C" transform="translate(88,66)"/>
<path d="M0,0 L8,0 L18,2 L19,3 L35,5 L35,6 L25,7 L25,5 L17,5 L17,3 L0,3 L-8,4 L-8,2 L-1,1 Z " fill="#1B2529" transform="translate(60,55)"/>
<path d="M0,0 L4,2 L5,5 L8,6 L8,9 L-1,8 L-7,5 L-8,1 L2,4 Z " fill="#384445" transform="translate(88,6)"/>
<path d="M0,0 L6,0 L7,3 L9,4 L4,6 L3,10 L8,10 L8,11 L2,11 L1,9 L-6,7 L-7,5 L-1,6 Z " fill="#162024" transform="translate(44,49)"/>
<path d="M0,0 L5,1 L6,7 L8,8 L2,9 L-15,9 L-15,8 L-1,7 Z " fill="#303D3C" transform="translate(54,1)"/>
<path d="M0,0 L4,0 L5,9 L2,11 L-7,11 L-7,10 L-1,9 Z " fill="#081010" transform="translate(69,0)"/>
<path d="M0,0 L1,0 L1,6 L-1,6 L-2,12 L-6,13 L-5,9 L-3,9 L-3,6 L-8,6 L-7,1 L-3,2 L-3,4 L0,4 Z " fill="#2E3435" transform="translate(120,24)"/>
<path d="M0,0 L5,0 L6,4 L11,5 L12,8 L21,10 L21,11 L14,10 L5,6 L2,4 L2,1 Z " fill="#111E1F" transform="translate(75,7)"/>
<path d="M0,0 L2,1 L1,3 L-1,3 L-3,7 L-6,7 L-7,12 L-10,12 L-9,6 L-12,7 L-11,4 L-3,5 L-2,1 Z " fill="#0A0E12" transform="translate(116,36)"/>
<path d="M0,0 L4,1 L1,1 L0,5 L-10,9 L-11,11 L-18,12 L-17,9 L-11,8 L-11,6 L-5,4 Z " fill="#303437" transform="translate(146,31)"/>
<path d="M0,0 L1,3 L6,4 L8,1 L10,1 L11,4 L14,6 L14,8 L10,8 L10,6 L3,7 L0,5 Z " fill="#111A1F" transform="translate(23,46)"/>
<path d="M0,0 L6,0 L7,4 L7,11 L0,5 Z " fill="#454B4C" transform="translate(97,30)"/>
<path d="M0,0 L7,1 L9,2 L11,9 L8,7 L6,9 L6,7 L4,7 L2,2 L0,2 Z " fill="#4B5C5E" transform="translate(102,64)"/>
<path d="M0,0 L4,4 L4,8 L1,8 L1,6 L-3,6 L-5,8 L-6,2 Z " fill="#444C4D" transform="translate(116,20)"/>
<path d="M0,0 L7,0 L11,3 L10,5 L2,3 L2,5 L0,5 L-1,7 L-3,1 Z " fill="#4A5256" transform="translate(88,61)"/>
<path d="M0,0 L1,3 L-6,8 L-8,14 L-9,14 L-9,5 L-7,3 L0,2 Z " fill="#242B32" transform="translate(9,15)"/>
<path d="M0,0 L2,1 L1,5 L6,4 L6,7 L-5,7 L-4,4 Z " fill="#515B5F" transform="translate(62,77)"/>
<path d="M0,0 L11,0 L11,5 L5,4 L0,1 Z " fill="#030505" transform="translate(79,0)"/>
<path d="M0,0 L8,1 L9,9 L4,5 L4,3 L0,3 Z " fill="#293534" transform="translate(0,3)"/>
<path d="M0,0 L5,0 L2,2 L1,10 L-3,11 L-3,17 L-6,18 L-8,16 L-4,16 L-4,9 L-1,8 Z " fill="#091317" transform="translate(47,38)"/>
<path d="M0,0 L2,0 L2,2 L9,2 L7,4 L-1,4 L-4,5 L-4,3 L-7,2 L-7,1 Z " fill="#14181E" transform="translate(108,51)"/>
<path d="M0,0 L4,2 L7,7 L7,12 L4,11 L1,3 Z " fill="#2A383B" transform="translate(88,66)"/>
<path d="M0,0 L2,1 L1,3 L4,2 L6,5 L9,6 L9,8 L2,7 L0,6 Z " fill="#465150" transform="translate(105,12)"/>
<path d="M0,0 L8,2 L10,6 L4,5 L0,3 Z " fill="#495251" transform="translate(80,4)"/>
<path d="M0,0 L1,0 L1,16 L-2,17 L-2,10 Z " fill="#1D272B" transform="translate(77,61)"/>
<path d="M0,0 L12,0 L12,1 L3,1 L3,3 L-3,3 L-3,6 L-5,6 L-4,1 Z " fill="#101C1E" transform="translate(57,20)"/>
<path d="M0,0 L15,0 L15,4 L8,2 L0,1 Z " fill="#151A1F" transform="translate(135,74)"/>
<path d="M0,0 L3,1 L4,11 L0,7 L-4,5 L0,5 Z " fill="#252B2C" transform="translate(90,0)"/>
<path d="M0,0 L2,0 L2,8 L1,9 L-5,9 L-2,7 Z " fill="#354240" transform="translate(67,1)"/>
<path d="M0,0 L3,0 L4,6 L-6,4 L-2,3 L-2,1 Z " fill="#081015" transform="translate(108,60)"/>
<path d="M0,0 L3,1 L2,3 L-7,5 L-12,5 L-12,3 L-10,2 L0,2 Z " fill="#24292C" transform="translate(147,54)"/>
<path d="M0,0 L8,0 L8,2 L0,2 Z M-6,2 L0,2 L-3,5 L-6,5 Z " fill="#2D383B" transform="translate(60,21)"/>
<path d="M0,0 L10,2 L9,5 L3,3 L0,4 L-4,2 Z M2,3 Z " fill="#485256" transform="translate(33,56)"/>
<path d="M0,0 L2,0 L2,8 L3,8 L3,13 L1,13 L0,15 Z " fill="#323C40" transform="translate(74,69)"/>
<path d="M0,0 L6,2 L6,4 L8,4 L8,6 L12,7 L7,7 L1,4 Z " fill="#2D3A3B" transform="translate(80,7)"/>
<path d="M0,0 L2,1 L1,8 L-2,8 L-2,2 Z " fill="#515C60" transform="translate(54,76)"/>
<path d="M0,0 L7,1 L9,2 L9,8 L7,9 L8,3 L0,2 Z " fill="#465054" transform="translate(55,60)"/>
<path d="M0,0 L2,2 L5,11 L5,13 L3,13 L3,8 L0,7 Z " fill="#556064" transform="translate(90,71)"/>
<path d="M0,0 L4,1 L8,6 L6,9 L6,7 L4,7 L2,2 L0,2 Z " fill="#546567" transform="translate(102,64)"/>
<path d="M0,0 L1,2 L3,3 L2,4 L-14,4 L-14,3 L0,2 Z " fill="#182226" transform="translate(71,22)"/>
<path d="M0,0 L5,0 L6,5 L7,7 L2,6 L2,2 Z " fill="#354447" transform="translate(96,62)"/>
<path d="M0,0 L2,0 L3,5 L5,6 L-1,6 L-1,1 Z " fill="#263333" transform="translate(57,3)"/>
<path d="M0,0 L6,2 L5,5 L-3,3 Z " fill="#4C5C5E" transform="translate(93,61)"/>
<path d="M0,0 L2,1 L1,3 L-1,3 L-3,7 L-7,6 L-3,5 L-2,1 Z " fill="#191C21" transform="translate(116,36)"/>
<path d="M0,0 L4,1 L2,2 L2,5 L-2,5 L-1,1 Z " fill="#232B2E" transform="translate(95,28)"/>
<path d="M0,0 L6,0 L6,3 L3,4 L0,3 Z " fill="#545F63" transform="translate(114,68)"/>
<path d="M0,0 L3,1 L6,3 L5,4 L-1,4 Z " fill="#020C10" transform="translate(48,26)"/>
<path d="M0,0 L1,3 L-9,7 L-7,3 L0,2 Z " fill="#141E28" transform="translate(9,15)"/>
<path d="M0,0 L6,0 L5,2 L2,1 L3,6 L0,5 Z " fill="#35393B" transform="translate(97,30)"/>
<path d="M0,0 L2,0 L2,2 L7,2 L7,3 L-3,3 L-3,1 Z " fill="#3C4044" transform="translate(113,50)"/>
<path d="M0,0 L1,4 L-4,4 L-4,1 Z " fill="#283237" transform="translate(49,49)"/>
<path d="M0,0 L4,0 L4,3 L2,3 L2,5 L4,6 L0,5 Z " fill="#353839" transform="translate(92,0)"/>
<path d="M0,0 L4,0 L4,4 L0,4 Z " fill="#4E5554" transform="translate(74,0)"/>
<path d="M0,0 L4,0 L3,4 L0,5 Z " fill="#2F3A41" transform="translate(26,73)"/>
<path d="M0,0 L5,0 L5,3 L0,3 Z " fill="#030C11" transform="translate(47,56)"/>
<path d="M0,0 L5,0 L5,3 L-1,2 Z " fill="#404F51" transform="translate(115,71)"/>
<path d="M0,0 L3,1 L3,5 L0,5 Z " fill="#1B1E20" transform="translate(90,0)"/>
<path d="M0,0 L1,4 L4,4 L5,7 L1,6 L0,5 Z " fill="#2F3B39" transform="translate(73,0)"/>
<path d="M0,0 L1,0 L2,7 L-1,8 Z " fill="#515B5F" transform="translate(65,69)"/>
<path d="M0,0 L4,2 L3,6 L0,2 Z " fill="#293739" transform="translate(88,66)"/>
<path d="M0,0 L3,0 L2,3 L-5,2 L-5,1 Z " fill="#111B1F" transform="translate(107,62)"/>
<path d="M0,0 L5,1 L6,3 L0,2 Z " fill="#293338" transform="translate(33,54)"/>
<path d="M0,0 L1,0 L1,7 L-3,2 L0,2 Z " fill="#323839" transform="translate(103,34)"/>
<path d="M0,0 L4,1 L1,1 L1,4 L-3,3 Z " fill="#1E2225" transform="translate(146,31)"/>
<path d="M0,0 L3,0 L3,5 L1,5 Z " fill="#3A4745" transform="translate(59,3)"/>
<path d="M0,0 L5,1 L5,4 L2,3 L2,1 Z " fill="#455557" transform="translate(104,64)"/>
<path d="M0,0 L3,3 L1,3 L0,7 L-1,2 Z " fill="#5E676B" transform="translate(83,61)"/>
<path d="M0,0 L3,0 L4,4 L0,4 Z " fill="#0B1419" transform="translate(30,47)"/>
<path d="M0,0 L3,1 L2,4 L-1,4 Z " fill="#434A4B" transform="translate(109,31)"/>
<path d="M0,0 L4,1 L5,5 L2,4 L2,1 Z " fill="#0A1818" transform="translate(75,7)"/>
<path d="M0,0 L5,1 L5,3 L1,2 Z " fill="#414F54" transform="translate(12,16)"/>
<path d="M0,0 L3,2 L3,4 L0,4 Z " fill="#313B40" transform="translate(96,80)"/>
<path d="M0,0 L2,3 L0,7 L-1,2 Z " fill="#334345" transform="translate(92,70)"/>
<path d="M0,0 L2,0 L1,4 L-1,4 Z " fill="#323D41" transform="translate(63,68)"/>
<path d="M0,0 L1,4 L-2,4 Z " fill="#2D3135" transform="translate(149,41)"/>
<path d="M0,0 L3,1 L2,3 L-1,3 Z " fill="#0B0E12" transform="translate(140,30)"/>
<path d="M0,0 L2,0 L1,3 L-2,4 Z " fill="#0F151D" transform="translate(2,18)"/>
<path d="M0,0 L2,0 L1,3 L-1,3 Z M-2,3 Z " fill="#0E1116" transform="translate(96,54)"/>
<path d="M0,0 L2,0 L2,3 L-1,3 Z " fill="#000000" transform="translate(105,42)"/>
<path d="M0,0 L2,0 L1,3 L-2,1 Z " fill="#1C2426" transform="translate(112,14)"/>
</svg>
