<?xml version="1.0" encoding="UTF-8"?>
<!-- Generator: visioncortex VTracer 0.6.5 -->
<svg version="1.1" xmlns="http://www.w3.org/2000/svg" width="150" height="85">
<path d="M0,0 L150,0 L150,85 L0,85 Z " fill="#10141C" transform="translate(0,0)"/>
<path d="M0,0 L45,0 L44,10 L46,10 L43,19 L39,23 L31,22 L30,26 L34,26 L34,31 L30,35 L30,43 L32,46 L32,53 L31,57 L32,60 L35,63 L35,67 L39,65 L38,62 L40,62 L41,57 L46,58 L51,67 L58,68 L59,67 L65,67 L67,71 L65,80 L67,80 L68,78 L69,83 L62,84 L60,82 L60,77 L63,77 L62,73 L55,73 L55,75 L50,73 L45,68 L42,67 L45,73 L48,76 L55,78 L55,80 L57,80 L56,84 L55,85 L0,85 Z " fill="#21313E" transform="translate(0,0)"/>
<path d="M0,0 L11,2 L11,5 L7,9 L8,21 L10,21 L10,26 L8,26 L7,34 L13,35 L14,41 L18,39 L17,36 L19,36 L20,31 L25,32 L30,41 L37,42 L38,41 L44,41 L46,45 L44,54 L46,54 L47,52 L48,57 L41,58 L39,56 L39,51 L42,51 L41,47 L34,47 L34,49 L29,47 L24,42 L21,41 L24,47 L27,50 L34,52 L34,54 L36,54 L35,58 L34,59 L-21,59 L-21,46 L-10,44 L-5,44 L-3,47 L4,46 L6,47 L4,41 L3,38 L-2,36 L-3,30 L5,31 L4,23 L3,18 L-1,18 L-1,1 Z " fill="#2B3747" transform="translate(21,26)"/>
<path d="M0,0 L34,0 L35,10 L37,10 L36,14 L40,15 L41,19 L40,20 L28,20 L27,13 L15,13 L12,14 L10,20 L4,21 L6,26 L16,28 L16,31 L12,35 L10,40 L0,40 Z " fill="#385058" transform="translate(0,0)"/>
<path d="M0,0 L4,0 L5,7 L4,15 L3,17 L4,27 L5,31 L10,33 L13,37 L13,42 L4,43 L2,39 L-7,41 L-14,41 L-14,9 L-4,9 L-2,3 Z " fill="#121F31" transform="translate(14,31)"/>
<path d="M0,0 L11,2 L11,5 L7,9 L8,21 L10,21 L10,26 L8,26 L7,34 L13,35 L15,45 L17,46 L17,44 L19,44 L19,47 L17,48 L16,51 L12,50 L9,46 L6,45 L3,40 L3,38 L-2,36 L-3,30 L5,31 L4,23 L3,18 L-1,18 L-1,1 Z " fill="#3B485A" transform="translate(21,26)"/>
<path d="M0,0 L5,0 L6,5 L12,4 L13,8 L19,9 L19,11 L24,12 L25,15 L-11,15 L-11,2 Z M12,3 Z " fill="#3E4C5A" transform="translate(11,70)"/>
<path d="M0,0 L3,0 L4,6 L-1,10 L-2,12 L-11,12 L-11,14 L-9,14 L-9,20 L-14,21 L1,22 L1,27 L-24,27 L-25,25 L-31,24 L-30,22 L-27,23 L-26,20 L-19,20 L-19,14 L-15,13 L-15,11 L-7,10 L-6,6 L-3,3 L-1,3 Z " fill="#212830" transform="translate(117,58)"/>
<path d="M0,0 L26,0 L26,8 L24,8 L24,10 L19,11 L6,12 L3,13 L2,15 L0,15 Z " fill="#546F77" transform="translate(0,0)"/>
<path d="M0,0 L3,1 L1,7 L10,7 L11,5 L11,8 L15,8 L16,13 L16,21 L17,26 L16,27 L1,27 L3,22 L1,22 L1,20 L-6,19 L-12,12 L-12,9 L-8,10 L-1,16 L1,17 L1,15 L8,15 L9,19 L6,19 L8,25 L15,25 L13,22 L11,22 L12,11 L5,9 L4,13 L4,10 L-3,10 L-5,8 L-4,4 Z " fill="#222631" transform="translate(54,58)"/>
<path d="M0,0 L5,1 L6,7 L2,8 L4,13 L14,15 L14,18 L10,22 L8,27 L-2,27 L-2,2 L0,2 Z " fill="#2D3E4A" transform="translate(2,13)"/>
<path d="M0,0 L3,1 L5,6 L8,7 L16,7 L19,5 L24,6 L24,11 L21,12 L20,15 L1,15 L0,8 L-5,7 L-6,4 Z " fill="#060C0F" transform="translate(118,70)"/>
<path d="M0,0 L5,1 L7,2 L7,4 L12,6 L15,10 L15,15 L6,16 L4,12 L-5,14 L-12,14 L-12,9 L1,8 Z " fill="#0C141D" transform="translate(12,58)"/>
<path d="M0,0 L47,0 L46,2 L5,3 L-4,8 L-14,8 L-15,3 L-14,2 L-2,1 Z " fill="#2C3946" transform="translate(67,0)"/>
<path d="M0,0 L6,0 L7,7 L0,13 L-10,13 L-12,11 L-12,6 L-9,3 L-1,2 Z " fill="#21292C" transform="translate(134,65)"/>
<path d="M0,0 L4,0 L3,6 L4,10 L9,12 L9,17 L7,18 L-3,18 L-4,13 L-12,13 L-12,10 L-2,8 L-2,3 Z " fill="#1B0F06" transform="translate(71,30)"/>
<path d="M0,0 L2,4 L0,8 L-4,8 L-4,11 L-6,11 L-2,15 L-2,21 L-11,21 L-11,5 L-1,5 Z " fill="#283645" transform="translate(11,35)"/>
<path d="M0,0 L4,1 L4,9 L1,12 L-9,13 L-10,2 L0,3 Z " fill="#0C222C" transform="translate(23,13)"/>
<path d="M0,0 L15,0 L15,7 L10,10 L3,10 L0,7 Z " fill="#78969D" transform="translate(4,0)"/>
<path d="M0,0 L9,1 L10,4 L12,4 L12,6 L14,6 L15,11 L17,12 L17,10 L19,10 L19,13 L17,14 L16,17 L12,16 L9,12 L6,11 L3,6 L3,4 L0,3 Z " fill="#435367" transform="translate(21,60)"/>
<path d="M0,0 L6,0 L8,4 L6,13 L8,13 L9,11 L10,16 L3,17 L1,15 L1,10 L4,10 L3,6 L-4,6 L-4,8 L-9,6 L-9,5 L-2,4 L-1,1 Z " fill="#313842" transform="translate(59,67)"/>
<path d="M0,0 L3,0 L4,6 L-1,10 L-2,12 L-11,12 L-11,19 L-17,19 L-16,14 L-15,11 L-7,10 L-6,6 L-3,3 L-1,3 Z " fill="#232A2F" transform="translate(117,58)"/>
<path d="M0,0 L2,0 L2,4 L6,4 L8,9 L8,17 L4,18 L0,16 L-1,18 L-2,7 Z " fill="#2D3A4B" transform="translate(18,40)"/>
<path d="M0,0 L22,0 L20,2 L8,3 L9,10 L2,9 L-1,10 L-1,1 Z M7,10 Z " fill="#15232F" transform="translate(45,0)"/>
<path d="M0,0 L1,2 L6,4 L9,8 L9,13 L0,14 L-2,10 L-9,11 L-6,8 L0,8 Z " fill="#19283B" transform="translate(18,60)"/>
<path d="M0,0 L5,1 L6,6 L2,8 L0,12 L-4,14 L-4,1 Z " fill="#35393F" transform="translate(137,14)"/>
<path d="M0,0 L2,0 L2,8 L1,10 L-1,10 L-1,12 L-14,14 L-16,20 L-20,18 L-20,14 L-23,12 L-16,11 L-7,10 L-4,9 L-2,10 L-2,8 L0,8 Z " fill="#445E67" transform="translate(26,0)"/>
<path d="M0,0 L11,2 L11,5 L7,9 L7,17 L5,16 L5,6 L1,6 L1,14 L-1,14 L-1,1 Z " fill="#313F51" transform="translate(21,26)"/>
<path d="M0,0 L5,0 L5,2 L10,3 L12,7 L15,8 L11,10 L4,9 L4,7 L0,5 Z " fill="#263340" transform="translate(56,10)"/>
<path d="M0,0 L4,0 L5,10 L8,15 L8,19 L5,18 L4,14 L2,14 L2,12 L-2,12 L-2,8 L0,8 Z " fill="#465469" transform="translate(22,32)"/>
<path d="M0,0 L4,1 L3,6 L0,7 L0,9 L-7,9 L-11,7 L-11,4 L-2,2 Z " fill="#3C474A" transform="translate(136,66)"/>
<path d="M0,0 L4,0 L3,10 L-3,13 L-12,13 L-12,10 L-2,8 L-2,3 Z " fill="#19160E" transform="translate(71,30)"/>
<path d="M0,0 L6,1 L10,7 L16,8 L16,11 L14,12 L8,12 L2,4 L0,3 Z " fill="#4F5F70" transform="translate(41,60)"/>
<path d="M0,0 L3,0 L3,6 L2,8 L-8,8 L-8,2 Z " fill="#404E63" transform="translate(8,32)"/>
<path d="M0,0 L10,0 L11,5 L0,7 Z " fill="#41474E" transform="translate(0,60)"/>
<path d="M0,0 L8,0 L8,2 L10,2 L9,6 L8,7 L2,7 L-1,1 Z " fill="#4A5564" transform="translate(47,78)"/>
<path d="M0,0 L9,0 L6,9 L3,9 L3,5 L-2,5 Z " fill="#293D46" transform="translate(37,10)"/>
<path d="M0,0 L1,0 L0,8 L2,8 L3,6 L4,11 L-3,12 L-5,10 L-5,5 L-2,5 Z " fill="#2D3039" transform="translate(65,72)"/>
<path d="M0,0 L4,0 L5,5 L5,13 L6,18 L2,19 L3,14 L0,14 L1,3 Z " fill="#1D1C1D" transform="translate(65,66)"/>
<path d="M0,0 L2,0 L3,7 L7,8 L12,7 L12,0 L15,0 L15,7 L10,10 L3,10 L0,7 Z " fill="#628086" transform="translate(4,0)"/>
<path d="M0,0 L3,0 L3,6 L-5,6 L-5,4 L-7,4 L-6,1 Z " fill="#262A32" transform="translate(147,49)"/>
<path d="M0,0 L4,1 L10,6 L10,9 L4,8 L0,3 Z " fill="#1D2738" transform="translate(42,67)"/>
<path d="M0,0 L11,0 L11,4 L-1,4 Z " fill="#5D7281" transform="translate(106,81)"/>
<path d="M0,0 L3,0 L4,6 L13,7 L13,14 L12,14 L12,9 L-4,9 L-6,7 L2,7 L2,1 Z " fill="#121D24" transform="translate(106,71)"/>
<path d="M0,0 L12,0 L13,1 L13,8 L3,9 L6,7 L11,7 L10,3 L0,2 Z " fill="#202B37" transform="translate(0,58)"/>
<path d="M0,0 L14,0 L14,5 L13,1 L2,1 L1,5 L-7,5 L-6,2 L-1,2 Z " fill="#3B4D58" transform="translate(104,80)"/>
<path d="M0,0 L10,0 L10,4 L0,4 Z " fill="#4D5B68" transform="translate(54,3)"/>
<path d="M0,0 L8,0 L6,4 L5,6 L5,14 L3,13 L3,3 L-1,3 Z " fill="#39465B" transform="translate(23,29)"/>
<path d="M0,0 L5,0 L5,8 L0,7 Z " fill="#5F7580" transform="translate(21,0)"/>
<path d="M0,0 L7,0 L5,1 L5,7 L2,7 L1,5 L-5,4 L-4,2 L-1,3 Z " fill="#1B1C28" transform="translate(91,78)"/>
<path d="M0,0 L5,1 L4,4 L0,3 L0,6 L4,8 L6,12 L2,9 L-2,8 L-3,5 L-1,5 Z " fill="#324156" transform="translate(41,57)"/>
<path d="M0,0 L5,1 L3,8 L-1,9 L-1,1 Z " fill="#051420" transform="translate(16,16)"/>
<path d="M0,0 L14,0 L12,4 L11,1 L1,1 L1,5 L10,5 L10,6 L0,6 L-1,1 Z " fill="#313F4C" transform="translate(53,2)"/>
<path d="M0,0 L5,1 L8,3 L4,5 L6,10 L4,10 L-1,4 Z " fill="#3E4856" transform="translate(43,75)"/>
<path d="M0,0 L3,1 L4,4 L-2,6 L-4,2 L-11,3 L-10,1 L-3,1 L-1,1 Z " fill="#232E3B" transform="translate(20,68)"/>
<path d="M0,0 L5,1 L6,7 L1,7 L0,4 L-2,4 L-2,2 L0,2 Z " fill="#364F57" transform="translate(2,13)"/>
<path d="M0,0 L4,1 L3,4 L1,4 L5,8 L5,14 L-2,14 L-2,13 L4,13 L2,9 L0,8 Z " fill="#192736" transform="translate(4,42)"/>
<path d="M0,0 L11,1 L10,3 L-2,5 L-5,2 Z " fill="#130810" transform="translate(98,32)"/>
<path d="M0,0 L2,0 L3,7 L-3,7 L-2,2 Z " fill="#434A4E" transform="translate(103,70)"/>
<path d="M0,0 L3,0 L2,5 L1,6 L-5,6 L-4,2 Z " fill="#47546C" transform="translate(8,32)"/>
<path d="M0,0 L3,0 L6,4 L6,8 L1,7 Z " fill="#1A283C" transform="translate(30,74)"/>
<path d="M0,0 L2,0 L4,5 L4,9 L-1,8 L-1,1 Z " fill="#6A7D8D" transform="translate(29,62)"/>
<path d="M0,0 L6,2 L7,7 L6,4 L2,4 L2,7 L-2,5 L-2,3 L0,3 Z " fill="#0B1925" transform="translate(7,43)"/>
<path d="M0,0 L10,0 L8,4 L1,4 L-1,1 Z " fill="#1B1F2D" transform="translate(61,19)"/>
<path d="M0,0 L4,0 L5,9 L0,7 Z " fill="#33424E" transform="translate(30,0)"/>
<path d="M0,0 L5,1 L6,5 L0,7 Z " fill="#596775" transform="translate(0,73)"/>
<path d="M0,0 L3,0 L4,10 L0,10 Z " fill="#344E56" transform="translate(0,0)"/>
<path d="M0,0 L9,0 L10,3 L-1,3 Z " fill="#180C1A" transform="translate(83,82)"/>
<path d="M0,0 L10,0 L10,3 L8,4 L2,4 Z " fill="#475365" transform="translate(47,68)"/>
<path d="M0,0 L9,1 L7,7 L0,3 Z " fill="#556576" transform="translate(21,60)"/>
<path d="M0,0 L3,1 L1,8 L-5,7 L-4,4 Z " fill="#192334" transform="translate(54,58)"/>
<path d="M0,0 L3,0 L4,6 L-1,5 L-5,9 L-7,9 L-5,5 L-1,3 Z " fill="#1E2228" transform="translate(117,58)"/>
<path d="M0,0 L4,0 L6,4 L5,9 L1,5 Z " fill="#010B17" transform="translate(9,47)"/>
<path d="M0,0 L8,0 L7,4 L0,4 Z " fill="#030A15" transform="translate(0,68)"/>
<path d="M0,0 L2,0 L2,3 L-3,7 L-3,4 L-10,6 L-7,3 Z " fill="#39475A" transform="translate(14,28)"/>
<path d="M0,0 L4,0 L4,7 L0,8 Z " fill="#6D8C92" transform="translate(12,0)"/>
<path d="M0,0 L4,1 L6,2 L6,5 L0,6 Z " fill="#474E55" transform="translate(0,61)"/>
<path d="M0,0 L1,3 L-7,3 L-7,8 L-10,8 L-10,2 L0,2 Z " fill="#313E4E" transform="translate(10,38)"/>
<path d="M0,0 L2,1 L1,7 L0,5 L-7,4 L-8,2 L-3,3 L-2,1 L0,2 Z " fill="#292F3B" transform="translate(55,73)"/>
<path d="M0,0 L8,0 L9,3 L0,3 Z " fill="#0E1B27" transform="translate(0,82)"/>
<path d="M0,0 L3,0 L3,11 L2,13 L0,13 L1,2 Z " fill="#25262C" transform="translate(65,67)"/>
<path d="M0,0 L4,1 L5,3 L3,3 L4,10 L3,8 L1,8 L1,3 L-1,2 Z " fill="#253548" transform="translate(27,71)"/>
<path d="M0,0 L4,0 L4,6 L0,6 Z " fill="#263447" transform="translate(0,28)"/>
<path d="M0,0 L2,1 L1,5 L-2,6 L-3,10 L-5,7 L-3,7 L-2,3 L0,3 Z " fill="#2C3D50" transform="translate(40,70)"/>
<path d="M0,0 L2,3 L3,7 L-1,11 L-1,9 L-6,9 L-6,8 L0,8 Z " fill="#16212E" transform="translate(18,60)"/>
<path d="M0,0 L3,0 L3,8 L5,9 L2,9 L2,6 L0,6 Z " fill="#1D2732" transform="translate(130,20)"/>
<path d="M0,0 L1,0 L0,7 L-6,8 L-2,4 Z " fill="#162732" transform="translate(26,17)"/>
<path d="M0,0 L1,0 L1,5 L-6,5 L-5,2 L0,2 Z " fill="#060515" transform="translate(149,80)"/>
<path d="M0,0 L7,0 L7,2 L4,4 L0,3 Z " fill="#5F6D7B" transform="translate(50,80)"/>
<path d="M0,0 L4,1 L7,3 L6,5 L4,4 L2,6 L0,3 Z " fill="#19293E" transform="translate(42,67)"/>
<path d="M0,0 L3,0 L2,5 L-2,5 L-2,1 Z " fill="#4B5057" transform="translate(137,18)"/>
<path d="M0,0 L3,0 L4,4 L3,6 L-3,6 L1,4 Z " fill="#515F6C" transform="translate(5,74)"/>
<path d="M0,0 L4,0 L4,4 L0,6 L-1,3 Z " fill="#192A35" transform="translate(7,20)"/>
<path d="M0,0 L2,1 L2,3 L6,4 L5,6 L-1,5 Z " fill="#4E6670" transform="translate(31,14)"/>
<path d="M0,0 L6,0 L8,5 L4,4 L4,2 L0,2 Z " fill="#14222E" transform="translate(57,8)"/>
<path d="M0,0 L4,0 L4,5 L0,4 Z " fill="#353942" transform="translate(60,78)"/>
<path d="M0,0 L1,2 L5,4 L5,6 L1,6 L-1,1 Z " fill="#323E4C" transform="translate(42,79)"/>
<path d="M0,0 L1,0 L3,7 L-1,8 L-1,2 Z " fill="#212E3F" transform="translate(29,52)"/>
<path d="M0,0 L5,1 L4,4 L-1,3 Z " fill="#2F3B4C" transform="translate(41,57)"/>
<path d="M0,0 L4,1 L5,4 L-1,4 Z " fill="#3C4551" transform="translate(31,81)"/>
<path d="M0,0 L4,2 L4,5 L0,5 Z " fill="#39484E" transform="translate(0,22)"/>
<path d="M0,0 L6,1 L2,3 L-6,3 L-5,1 Z " fill="#39545C" transform="translate(19,10)"/>
<path d="M0,0 L5,0 L2,5 L0,5 Z " fill="#5A767E" transform="translate(0,10)"/>
<path d="M0,0 L4,1 L3,4 L0,5 Z " fill="#708290" transform="translate(0,74)"/>
<path d="M0,0 L5,0 L5,3 L0,3 Z " fill="#475261" transform="translate(60,68)"/>
<path d="M0,0 L3,1 L4,6 L2,6 L2,4 L0,4 Z " fill="#303D4E" transform="translate(31,60)"/>
<path d="M0,0 L5,0 L6,4 L3,5 L2,2 Z " fill="#31454F" transform="translate(35,15)"/>
<path d="M0,0 L5,1 L5,3 L-1,3 Z " fill="#2B3B49" transform="translate(98,82)"/>
<path d="M0,0 L3,1 L3,5 L0,5 Z " fill="#5F6E7C" transform="translate(10,80)"/>
<path d="M0,0 L4,2 L-1,6 L-2,3 L0,3 Z " fill="#111F2B" transform="translate(7,43)"/>
<path d="M0,0 L1,2 L-1,7 L-3,5 L-3,2 Z " fill="#1B2D38" transform="translate(44,12)"/>
<path d="M0,0 L2,0 L2,2 L4,3 L3,5 L0,4 Z " fill="#2D3B4F" transform="translate(35,67)"/>
<path d="M0,0 L4,1 L4,3 L-1,3 Z " fill="#4D5B73" transform="translate(4,35)"/>
<path d="M0,0 L4,1 L4,4 L1,4 Z " fill="#29434B" transform="translate(3,13)"/>
<path d="M0,0 L2,0 L1,4 L-2,4 Z " fill="#485255" transform="translate(136,68)"/>
<path d="M0,0 L3,0 L2,3 L-2,3 L-2,1 Z " fill="#2B3537" transform="translate(112,66)"/>
<path d="M0,0 L6,1 L6,3 L1,2 Z " fill="#2B394D" transform="translate(49,65)"/>
<path d="M0,0 L5,1 L2,3 L-2,2 Z " fill="#1A1F27" transform="translate(145,47)"/>
<path d="M0,0 L5,2 L5,4 L0,2 Z " fill="#1B1D29" transform="translate(145,76)"/>
<path d="M0,0 L3,0 L3,3 L-1,3 Z " fill="#5C656C" transform="translate(102,73)"/>
<path d="M0,0 L2,1 L2,6 L0,3 L-3,1 Z " fill="#37535A" transform="translate(6,11)"/>
<path d="M0,0 L5,0 L5,3 L0,1 Z " fill="#2E3949" transform="translate(50,72)"/>
<path d="M0,0 L3,1 L3,4 L0,4 Z " fill="#0F1B2E" transform="translate(45,70)"/>
<path d="M0,0 L3,1 L-1,3 Z M-3,3 L-1,4 Z " fill="#283443" transform="translate(21,70)"/>
<path d="M0,0 L4,1 L4,3 L0,2 Z " fill="#657786" transform="translate(42,61)"/>
<path d="M0,0 L3,0 L3,3 L0,3 Z " fill="#192738" transform="translate(0,29)"/>
<path d="M0,0 L2,0 L2,3 L-1,3 Z " fill="#0C0905" transform="translate(83,82)"/>
<path d="M0,0 L4,1 L2,3 L0,2 Z " fill="#010205" transform="translate(114,73)"/>
<path d="M0,0 L1,3 L-2,4 Z " fill="#15262C" transform="translate(8,21)"/>
<path d="M0,0 L2,1 L2,3 L-1,2 Z " fill="#536377" transform="translate(6,35)"/>
</svg>
