<svg width="160" height="160" viewBox="0 0 160 160" fill="none" xmlns="http://www.w3.org/2000/svg">
<g clip-path="url(#clip0_28_11194)">
<path d="M93.5544 0.355515V3.34218H99.0196V5.08441C104.153 5.06366 109.297 5.10514 114.43 5.08441V10.5496H124.614V15.7658H128.586V20.4844H134.051V25.9496H139.266V31.4147H143.985V36.1333H149.451C149.44 39.6903 149.471 43.2578 149.451 46.8147C151.265 46.8147 153.101 46.8147 154.916 46.8147V62.474H159.635V98.2622H154.916V113.673H149.451V123.12H143.985V128.585H139.266V133.802H134.051V138.519H128.586V143.985H124.614V149.45H114.43V154.169C109.297 154.149 104.153 154.189 99.0196 154.169C97.2047 154.169 95.3691 154.169 93.5544 154.169V149.45H88.0892V143.985H80.384C80.3736 143.238 80.3944 142.491 80.384 141.745H78.144C78.1336 140.677 78.144 139.589 78.144 138.509C76.3292 138.509 74.4936 138.509 72.6789 138.509V133.79H83.3603V138.509H103.738V133.79H121.627V123.11C122.622 123.11 123.618 123.12 124.614 123.11C124.614 124.924 124.614 126.76 124.614 128.575H128.586C128.586 126.76 128.586 124.924 128.586 123.11C129.581 123.099 130.577 123.11 131.572 123.11V118.391C131.998 118.318 133.957 118.484 134.061 118.391C134.176 118.277 133.947 116.265 134.061 116.151C134.186 116.027 136.924 116.276 137.048 116.151C137.473 115.726 135.896 112.895 139.288 113.662V98.2518H144.007V69.4222C143.696 69.3703 142.596 69.5051 142.513 69.4222C142.265 69.1733 142.7 63.3658 142.513 62.4636C143.011 62.4429 143.509 62.474 144.007 62.4636V54.0118C144.505 53.9289 147.118 54.1258 147.231 54.0118C147.345 53.8978 147.118 51.6369 147.231 51.5229C147.345 51.4089 149.358 51.6369 149.471 51.5229C149.637 51.3569 149.471 47.4889 149.471 46.8044C146.08 46.794 142.678 46.8147 139.278 46.8044C139.278 49.2 139.278 51.6163 139.278 54.0118H137.038C136.964 53.597 137.141 51.6267 137.038 51.5229C136.934 51.4192 134.527 51.6058 134.051 51.5229V42.0756C133.004 42.4074 132.277 41.6814 131.458 41.5674C130.639 41.4533 129.529 41.7644 128.762 41.5363C127.994 41.3081 128.004 40.1051 127.486 39.5867C126.771 38.8711 125.526 39.1407 124.614 39.0992V41.5881H119.148V36.1229C119.148 36.0089 121.388 36.2369 121.388 36.1229V32.2756C121.388 31.1244 119.646 31.5185 119.034 31.394C118.671 31.3214 118.412 31.0207 118.018 30.9274C117.489 30.7925 116.774 31.1347 116.421 30.5436V26.3229C116.421 26.3229 116.079 25.9496 116.048 25.9496H109.214V23.7096H93.5544C93.5751 22.6414 93.5544 21.5525 93.5544 20.474C96.9455 20.474 100.347 20.474 103.748 20.474C103.769 18.9081 103.717 17.3214 103.748 15.7556H109.214V10.5392C108.135 10.5392 107.057 10.5496 105.978 10.5392C103.666 10.5185 101.332 10.5392 99.0196 10.5392C99.0196 8.72441 99.0196 6.88885 99.0196 5.07403C97.2047 5.07403 95.3691 5.07403 93.5544 5.07403C93.5544 6.88885 93.5544 8.72441 93.5544 10.5392C93.5544 12.354 93.5544 14.0236 93.5544 15.7556C93.5544 17.3214 93.5544 18.9081 93.5544 20.474C92.5589 20.474 91.5633 20.474 90.5678 20.474V15.7556H83.3603C83.3603 17.3214 83.3603 18.9081 83.3603 20.474C83.3603 21.5525 83.3603 22.6311 83.3603 23.7096H78.144V15.7556H62.4847V20.474H57.0196C57.1025 20.7229 56.7707 21.0133 56.7707 21.0963V25.9392H50.0611V31.4044H41.6091V36.1229H36.8907V39.1096C35.6566 38.7985 34.7855 39.3896 33.7691 39.597C32.95 39.7629 31.4255 39.2236 31.4255 40.7274V46.8147L25.9603 46.5658C25.9603 46.8147 25.9603 47.0636 25.9603 47.3125H21.2418C21.2418 50.5378 21.2625 53.7733 21.2418 57.0089C21.2418 58.8236 21.2418 60.6592 21.2418 62.474H16.0255V69.4325H21.2418V90.1836C21.2418 90.1836 20.8996 90.5569 20.8685 90.5569H16.0255V93.2947H20.6196C20.7129 93.2947 21.024 93.5436 21.2003 93.5851L21.2418 108.954C20.4951 108.964 19.7485 108.944 19.0018 108.954V113.683C18.0166 113.693 17.0107 113.662 16.0255 113.683C15.6211 113.683 13.63 113.59 13.5366 113.683C13.4225 113.797 13.6507 116.058 13.5366 116.172C13.4329 116.276 11.0373 116.099 10.5499 116.172C10.5395 115.342 10.5603 114.512 10.5499 113.683H5.8314C5.78991 108.55 5.88324 103.406 5.8314 98.2725C5.8314 97.7747 5.94547 95.1511 5.8314 95.0369C5.73806 94.9436 3.98547 95.1096 3.5914 95.0369V88.0785H0.366211V62.4844H5.8314V46.8251H10.5499V36.1436H16.0151V31.4251H21.2314V25.96H25.95V20.4947H31.4151V15.7763H36.8803V10.56H47.064V5.09478H62.4744V0.355515H93.5544Z" fill="#7A7871"/>
<path d="M0.366211 88.0785L3.60177 88.0785V95.0369C3.99584 95.0992 5.74844 94.9436 5.84177 95.0369C5.95584 95.1511 5.84177 97.7747 5.84177 98.2725H0.366211V88.0785Z" fill="#BEB493"/>
<path d="M99.0201 0.355558L93.5544 0.355515V3.34218H99.0196L99.0201 0.355558Z" fill="#BEB493"/>
<path d="M36.901 128.585C36.901 130.317 36.901 132.07 36.901 133.802C42.0343 133.822 47.178 133.77 52.3114 133.802C53.8773 133.802 55.464 133.802 57.0299 133.802V138.521C60.6699 138.521 64.3203 138.509 67.9603 138.521V143.985H78.144C78.144 145.064 78.1232 146.142 78.144 147.22C78.1543 147.967 78.1336 148.714 78.144 149.46H83.3603V154.179H78.144V159.644C72.9276 159.644 67.701 159.644 62.4847 159.644V154.179H47.0743V149.46H36.8907V143.996C36.144 143.996 35.3973 144.017 34.6507 143.996V141.756H31.4151C31.3943 140.687 31.4254 139.599 31.4151 138.521H25.9498V133.802H21.2314C21.2314 133.055 21.2521 132.309 21.2314 131.562H29.1854C29.1854 130.577 29.1751 129.571 29.1854 128.575H36.8907L36.901 128.585Z" fill="#7A7871"/>
<path d="M25.9605 57.0089C25.9605 58.8237 25.9605 60.6593 25.9605 62.474C27.039 62.474 28.1176 62.4637 29.1961 62.474C29.5072 64.1851 28.7501 67.8356 29.2272 69.2771C29.4968 70.1067 30.959 69.1629 31.1768 70.3037C31.3323 71.1022 31.322 76.2044 31.1768 77.0029C30.9487 78.206 29.922 77.6562 29.4345 77.9882C29.0612 78.2371 29.0509 82.2296 29.4345 82.4889C29.9427 82.8311 30.9279 82.2607 31.1768 83.4844C31.2909 84.0549 31.405 85.3096 31.4465 85.9526C31.6745 89.3955 30.8554 94.8296 31.4465 97.8889C31.4983 98.1482 32.2657 99.2785 32.442 99.3822C32.7945 99.5793 33.282 99.4651 33.6657 99.6415C34.0494 99.8178 34.5576 100.575 35.1798 100.855C35.802 101.135 36.4761 100.741 36.6523 101.612C37.0568 103.572 36.0301 102.939 35.159 103.354C34.1739 103.831 34.8687 107.803 34.6612 108.944C33.5932 108.923 32.5043 108.954 31.4257 108.944V113.662C33.2405 113.642 35.0761 113.683 36.8909 113.662C37.8865 113.652 38.882 113.662 39.8776 113.662V108.933C40.4479 108.923 41.039 108.954 41.6198 108.933C42.605 108.902 43.6109 108.933 44.6065 108.933C44.6376 111.329 44.5545 113.745 44.6065 116.141C44.6168 116.887 44.5961 117.634 44.6065 118.381C45.2701 118.36 45.9338 118.412 46.5976 118.381C46.5354 118.806 46.6909 120.776 46.5976 120.87C46.2345 121.202 43.8701 120.507 44.6065 123.11C45.0316 123.182 46.9916 123.006 47.0954 123.11C47.2923 123.307 46.9501 127.817 47.0954 128.575C43.7043 128.554 40.3027 128.575 36.9116 128.575C36.8909 125.184 36.922 121.782 36.9116 118.391H31.4465V123.11C31.0523 123.172 29.2998 123.016 29.2065 123.11C29.0094 123.307 29.2168 127.797 29.2065 128.575C29.1961 129.571 29.2065 130.566 29.2065 131.562H21.2523C21.2316 130.566 21.2523 129.571 21.2523 128.575V123.11H25.9709V118.391H21.2523V113.673C22.3205 113.642 23.4094 113.714 24.4879 113.673C24.5812 113.994 24.3634 116.162 24.4879 116.162H29.2065V108.954C28.1279 108.954 27.0494 108.964 25.9709 108.954C24.405 108.933 22.8183 108.923 21.2523 108.954L21.2109 93.5851C21.0345 93.554 20.7234 93.2949 20.6301 93.2949H16.0361V90.5571H20.879C20.879 90.5571 21.2523 90.2148 21.2523 90.1837V69.4326H16.0361V62.474H21.2523C21.2523 60.6593 21.2523 58.8237 21.2523 57.0089H25.9709H25.9605Z" fill="#BEB493"/>
<path d="M25.9601 47.3229C25.9601 47.074 25.9497 46.8251 25.9601 46.5763L31.4253 46.8251V40.7378C31.4253 39.234 32.9601 39.7733 33.769 39.6074C34.7749 39.4 35.646 38.8193 36.8904 39.12V36.1333H41.609V31.4149H50.0608V25.9496H56.7704V21.1067C56.7704 21.0237 57.1024 20.7333 57.0193 20.4844H62.4846V15.766H78.1437V23.72H83.3601C83.3601 24.4667 83.3601 25.2133 83.3601 25.96C81.6282 25.96 79.8757 25.9393 78.1437 25.96C77.5526 25.96 75.1779 25.846 74.9497 25.9911C74.5557 26.24 74.6801 28.3867 74.6697 28.9363C71.0919 29.0089 67.4726 28.594 64.0401 29.6207C63.729 29.714 63.086 29.6207 63.0031 29.6933C62.8268 29.8489 63.2312 31.0311 62.2564 31.3007C59.1557 32.1926 56.2001 31.7674 53.0268 32.0163C52.3735 32.4726 53.2757 35.8326 52.3838 36.4029C51.2431 37.1289 45.6949 36.154 45.2075 36.8593C45.0208 37.1289 45.0104 38.1244 45.2075 38.3837C45.446 38.7051 46.1926 38.5496 46.5868 38.7363C47.4164 39.1407 46.9912 40.7896 47.0846 41.5882H44.5957V46.8044C40.2401 46.3482 42.086 48.3911 41.609 50.9007C41.329 52.4149 37.3882 50.5689 36.569 52.3318C36.4031 52.674 36.4342 53.4104 36.3615 53.4829C36.289 53.5556 35.6771 53.5349 35.3971 53.6282C35.1586 53.7007 34.8268 54.0118 34.7749 54.0118H29.1853V56.9985C28.1171 56.9778 27.0282 56.9985 25.9497 56.9985C25.9393 53.7837 25.8564 50.5171 25.9497 47.3022L25.9601 47.3229Z" fill="#BEB493"/>
<path d="M80.384 143.985H88.0892V149.45H93.5544V154.169C95.3691 154.169 97.2047 154.169 99.0196 154.169L99.0197 159.634C92.0715 159.634 85.1026 159.634 78.1441 159.634V154.169H83.3604V149.45H78.1441C78.1337 148.703 78.1544 147.957 78.1441 147.21H80.3841C80.3633 146.142 80.4048 145.053 80.3841 143.975L80.384 143.985Z" fill="#3D382F"/>
<path d="M21.2418 108.954C22.8078 108.923 24.3944 108.933 25.9603 108.954V113.673C25.4625 113.683 24.9647 113.652 24.4669 113.673C23.3989 113.714 22.31 113.642 21.2314 113.673V118.391H25.95V123.11H21.2314V128.575H16.0151V123.11H10.5499C10.5499 121.544 10.5603 119.957 10.5499 118.391H16.0151V113.673C17.0107 113.652 18.0062 113.683 19.0018 113.673V108.944C19.738 108.944 20.4951 108.964 21.2418 108.944V108.954Z" fill="#3D382F"/>
<path d="M16.0253 113.673V118.391H10.5601C10.5601 117.644 10.5704 116.898 10.5601 116.151C11.0371 116.078 13.4431 116.255 13.5468 116.151C13.6608 116.037 13.4326 113.776 13.5468 113.662C13.6297 113.579 15.6312 113.662 16.0357 113.662L16.0253 113.673Z" fill="#BEB493"/>
<path d="M31.4253 141.755H34.6608V143.995C33.5822 143.975 32.5038 144.006 31.4253 143.995C31.4253 143.248 31.446 142.502 31.4253 141.755Z" fill="#BEB493"/>
<path d="M99.0196 5.07403C99.0196 6.88885 99.0196 8.72441 99.0196 10.5392C101.332 10.5392 103.666 10.5185 105.978 10.5392C105.906 11.0163 106.082 13.4222 105.979 13.526C105.875 13.6296 103.853 13.4118 103.739 13.526C103.656 13.6089 103.739 15.3511 103.739 15.766C103.707 17.3318 103.759 18.9185 103.739 20.4844C100.347 20.4844 96.9459 20.4844 93.5445 20.4844C93.5445 21.5629 93.5652 22.6415 93.5445 23.72C93.5341 24.4667 93.5548 25.2133 93.5445 25.96C92.6319 25.96 91.7192 25.9496 90.8067 25.96C88.3281 25.9911 85.829 25.9496 83.3504 25.96C83.3401 29.3511 83.3504 32.7526 83.3504 36.1437H80.3637V31.4251C79.617 31.4149 78.8704 31.4356 78.1237 31.4251V25.96C79.8556 25.9393 81.6081 25.96 83.3401 25.96C83.3401 25.2133 83.3401 24.4667 83.3401 23.72C83.3401 22.6415 83.3401 21.5629 83.3401 20.4844H90.5474C91.543 20.4844 92.5385 20.4844 93.5341 20.4844C93.5341 18.9185 93.5341 17.3318 93.5341 15.766H98.9992C98.9992 14.034 98.9992 12.2815 98.9992 10.5496H93.5341C93.5341 8.73481 93.5341 6.89925 93.5341 5.08443C95.349 5.08443 97.1845 5.08443 98.9992 5.08443L99.0196 5.07403Z" fill="#3D382F"/>
<path d="M57.0191 67.203C57.0086 69.0178 57.0191 70.8533 57.0191 72.6682H52.3006C52.3006 70.8533 52.3109 69.0178 52.3006 67.203C53.8664 67.203 55.4531 67.203 57.0191 67.203Z" fill="#3D382F"/>
<path d="M41.6191 62.4844C41.6191 64.0503 41.6191 65.637 41.6191 67.2029H31.4353C31.4353 65.637 31.4353 64.0503 31.4353 62.4844C34.8264 62.4947 38.2279 62.4844 41.6191 62.4844Z" fill="#3D382F"/>
<path d="M29.1963 57.0089C29.943 57.0193 30.6897 56.9985 31.4363 57.0089C31.4363 58.8237 31.426 60.6593 31.4363 62.474C30.6897 62.474 29.9427 62.474 29.1961 62.474C28.1176 62.4637 27.039 62.474 25.9605 62.474C25.9605 60.6593 25.9605 58.8237 25.9605 57.0089C27.0287 57.0089 28.1178 56.9882 29.1963 57.0089Z" fill="#3D382F"/>
<path d="M47.085 62.4844C48.8168 62.4844 50.5694 62.4844 52.3012 62.4844C52.3012 64.0503 52.3006 65.6371 52.3006 67.203C50.5686 67.203 48.8168 67.2029 47.085 67.2029C47.085 65.637 47.085 64.0503 47.085 62.4844Z" fill="#3D382F"/>
<path d="M25.9601 47.3229C25.8668 50.5378 25.9496 53.794 25.96 57.0193H21.2415C21.2518 53.794 21.2415 50.5585 21.2415 47.3229H25.9601Z" fill="#3D382F"/>
<path d="M41.6191 62.4844C41.6295 60.6696 41.6191 58.834 41.6191 57.0193H47.0843C47.0843 58.834 47.0745 60.6696 47.085 62.4844C45.2701 62.4844 43.4339 62.4844 41.6191 62.4844Z" fill="#3D382F"/>
<path d="M83.3712 20.4844C83.3712 18.9185 83.3712 17.3318 83.3712 15.766H90.5785V20.4844H83.3712Z" fill="#BEB493"/>
<path d="M99.0196 10.5392C99.0196 12.2711 99.0201 14.0237 99.0201 15.7556L93.5544 15.7556C93.5544 14.0133 93.5544 12.2711 93.5544 10.5392H99.0196Z" fill="#BEB493"/>
<path d="M93.5544 23.7096H109.214V25.9496H116.048C116.048 25.9496 116.421 26.2918 116.421 26.3229V30.5436C116.774 31.1347 117.489 30.7925 118.018 30.9274C118.412 31.0311 118.671 31.3214 119.034 31.394C119.636 31.5185 121.388 31.1244 121.388 32.2756V36.1229C121.388 36.2369 119.148 36.0089 119.148 36.1229V41.5881H124.614V39.0992C125.526 39.1407 126.76 38.8711 127.486 39.5867C128.016 40.1156 127.964 41.2978 128.762 41.5363C129.56 41.7747 130.649 41.4636 131.458 41.5674C132.267 41.6711 133.004 42.4074 134.051 42.0756V51.5229C134.517 51.6058 136.924 51.4192 137.038 51.5229C137.131 51.6162 136.964 53.5867 137.038 54.0118H139.278C139.278 56.8222 139.298 59.6429 139.277 62.4637C140.345 62.4637 141.434 62.5051 142.513 62.4636C142.7 63.3658 142.265 69.1836 142.513 69.4222C142.596 69.5051 143.696 69.3703 144.007 69.4222V98.2518H139.288V113.662C135.896 112.895 137.473 115.726 137.048 116.151C136.924 116.276 134.186 116.027 134.061 116.151C133.947 116.265 134.176 118.277 134.061 118.391C133.967 118.484 131.998 118.318 131.572 118.391V123.11C130.577 123.11 129.581 123.099 128.586 123.11C128.616 116.649 128.585 110.188 128.585 103.727C129.104 103.727 134.05 103.997 134.05 103.727V88.0682C132.235 88.0682 130.4 88.0682 128.585 88.0682C128.596 86.2533 128.534 84.4178 128.585 82.6029C128.606 81.8356 128.378 79.9067 129.082 79.4918C130.192 78.8385 133.718 80.3318 133.562 78.3718H129.218C129.134 78.3718 128.626 78.1022 128.585 77.9571C128.347 76.9407 128.606 73.9644 128.585 72.6578C128.564 70.8429 128.574 69.0074 128.585 67.1926C132.143 67.1822 135.71 67.1926 139.277 67.1926C139.277 65.6267 139.277 64.04 139.277 62.474C135.72 62.4949 132.153 62.4637 128.585 62.474C128.585 64.04 128.585 65.6267 128.585 67.1926C126.273 67.1926 123.939 67.1926 121.627 67.1926C121.523 61.9867 121.699 56.7496 121.627 51.5333H119.138V47.1882C119.138 46.5763 115.477 46.8563 114.793 46.8149C114.357 46.7837 112.034 46.5451 111.92 46.4622C111.391 46.0993 111.827 42.4593 111.692 41.5985C112.604 41.5882 113.517 41.5985 114.429 41.5985V36.1333H105.978V41.5985C105.231 41.5882 104.484 41.6089 103.738 41.5985V34.7644C103.738 34.3082 105.086 34.4533 105.48 34.2667C106.393 33.8415 105.998 31.4044 105.355 31.4044H90.5673L90.8161 25.9393C91.7288 25.9289 92.6414 25.9393 93.5539 25.9393C93.5539 25.1926 93.5332 24.446 93.5539 23.6993L93.5544 23.7096Z" fill="#BEB493"/>
<path d="M52.3006 131.562H60.2546L60.3998 128.575C61.6546 128.596 63.3035 128.616 64.5064 128.937C65.5331 129.218 65.0872 130.669 65.2324 130.815C65.2946 130.877 66.6531 130.773 67.0679 130.846C68.7998 131.126 70.1375 131.862 72.0457 131.55C72.8546 131.416 73.2798 130.794 74.2961 130.794C75.0531 130.794 76.6917 130.98 77.5109 131.074C81.5139 131.53 84.9257 131.52 88.9495 131.053C89.9553 130.94 95.3168 131.302 95.545 131.053C95.6902 130.908 95.1406 129.166 96.2086 128.865L103.738 128.451C104.785 127.642 103.779 124.198 104.474 123.711C105.355 123.099 109.244 123.462 110.551 123.327C111.567 123.224 113.009 122.601 114.149 122.57C114.409 122.27 113.869 119.615 114.409 118.785C114.72 118.308 115.809 118.516 116.058 118.142C116.379 117.676 115.871 116.618 116.514 116.11C117.157 115.601 118.215 116.11 118.671 115.778C119.252 115.373 118.204 113.787 120.278 113.631C122.705 113.455 121.751 115.083 122.373 115.529C122.798 115.83 124.043 115.55 124.624 115.643C124.624 118.121 124.613 120.621 124.624 123.099C123.628 123.11 122.632 123.099 121.637 123.099V133.78H103.748V138.499H83.3702V133.78H72.6886V138.499C71.1228 138.499 69.5361 138.499 67.9702 138.499C64.3302 138.489 60.6798 138.499 57.0398 138.499V133.78C55.4739 133.78 53.8872 133.78 52.3213 133.78V131.54L52.3006 131.562Z" fill="#BEB493"/>
<path d="M149.471 46.8251C149.471 47.5096 149.637 51.3778 149.471 51.5437C149.357 51.6578 147.345 51.4296 147.231 51.5437C147.117 51.6578 147.345 53.9185 147.231 54.0326C147.117 54.1467 144.493 53.9496 143.995 54.0326V62.4844C143.508 62.4949 143 62.4637 142.502 62.4844C141.434 62.526 140.346 62.4844 139.266 62.4844C139.288 59.674 139.266 56.8429 139.266 54.0326C139.266 51.6371 139.266 49.2207 139.266 46.8251C142.658 46.8356 146.059 46.8149 149.461 46.8251H149.471Z" fill="#3D382F"/>
<path d="M72.679 138.519C74.4939 138.519 76.3294 138.519 78.1443 138.519C78.1443 139.599 78.1339 140.677 78.1443 141.755C78.1443 142.502 78.1443 143.248 78.1443 143.995H67.9501V138.531C69.5161 138.531 71.1027 138.531 72.6687 138.531L72.679 138.519Z" fill="#3D382F"/>
<path d="M128.596 123.12C128.596 124.935 128.596 126.77 128.596 128.585H124.624C124.624 126.77 124.624 124.935 124.624 123.12C125.941 123.099 127.279 123.141 128.596 123.12Z" fill="#3D382F"/>
<path d="M78.1443 141.755H80.3845C80.3845 142.502 80.3638 143.248 80.3845 143.995C80.4052 145.074 80.3741 146.152 80.3845 147.23H78.1445C78.1238 146.152 78.1443 145.074 78.1443 143.995C78.1443 143.248 78.1443 142.502 78.1443 141.755Z" fill="#BEB493"/>
<path d="M105.978 10.5392C107.057 10.5496 108.135 10.5392 109.214 10.5392V15.7556H103.748C103.748 15.3407 103.665 13.5985 103.748 13.5156C103.852 13.4015 105.874 13.6296 105.988 13.5156C106.102 13.4015 105.915 11.0163 105.988 10.5289L105.978 10.5392Z" fill="#BEB493"/>
<path d="M29.1966 128.585C29.1966 127.807 28.9995 123.307 29.1966 123.12C29.2899 123.027 31.0424 123.193 31.4366 123.12V118.402H36.9017C36.9121 121.793 36.8803 125.194 36.901 128.585C40.2921 128.585 43.6944 128.565 47.0855 128.585C48.8173 128.585 50.5699 128.585 52.3017 128.585C52.3017 129.581 52.3017 130.577 52.3017 131.572V133.812C47.1684 133.78 42.0246 133.832 36.8913 133.812C36.8913 132.08 36.8913 130.328 36.8913 128.596H29.1862L29.1966 128.585Z" fill="#3D382F"/>
<path d="M78.1444 25.9496V29.1851H74.9088V31.4251C74.1622 31.4356 73.4155 31.4149 72.6688 31.4251V41.6193C74.4837 41.6193 76.3193 41.6193 78.1341 41.6193C78.1341 44.9274 78.1444 48.246 78.1341 51.5644H67.9399C67.9399 52.3837 67.9504 53.2237 67.9399 54.0533C67.9192 55.0489 67.9399 56.0444 67.9399 57.04C66.8615 57.04 65.783 57.0193 64.7044 57.04C63.9577 57.0504 63.2111 57.0296 62.4644 57.04C62.4644 57.7867 62.4852 58.5333 62.4644 59.28C62.4437 60.3482 62.4644 61.4371 62.4644 62.5156C60.6497 62.5363 58.8141 62.5051 56.9992 62.5156C56.9992 64.0815 56.9992 65.6682 56.9992 67.234C55.4333 67.234 53.8466 67.234 52.2808 67.234C52.2808 65.6682 52.2808 64.0815 52.2808 62.5156C50.5488 62.5156 48.7963 62.5156 47.0644 62.5156C47.0541 60.7007 47.0644 58.8651 47.0644 57.0504H41.5992C41.5992 58.8651 41.6097 60.7007 41.5992 62.5156C38.2081 62.5156 34.8066 62.526 31.4155 62.5156C31.4052 60.7007 31.4155 58.8651 31.4155 57.0504C30.6688 57.0504 29.9222 57.0711 29.1755 57.0504V54.0637H34.7652C34.7652 54.0637 35.1488 53.7526 35.3874 53.68C35.6777 53.5867 36.2792 53.6074 36.3519 53.5349C36.4244 53.4622 36.4037 52.726 36.5592 52.3837C37.3785 50.6207 41.3088 52.4667 41.5992 50.9526C42.0763 48.4429 40.2304 46.4 44.5859 46.8563V41.64H47.0748C46.9815 40.8415 47.4066 39.1926 46.577 38.7882C46.183 38.5911 45.4363 38.7571 45.1977 38.4356C45.0008 38.166 45.0111 37.1807 45.1977 36.9111C45.6955 36.1956 51.2333 37.1704 52.3741 36.4549C53.2763 35.8844 52.3741 32.5244 53.017 32.0682C56.1904 31.8193 59.1459 32.234 62.2466 31.3526C63.2215 31.0726 62.817 29.9007 62.9933 29.7451C63.0763 29.6622 63.7192 29.766 64.0304 29.6726C67.4526 28.646 71.0822 29.0504 74.66 28.9882C74.6704 28.4385 74.5459 26.2918 74.9399 26.0429C75.1681 25.8978 77.543 26.0222 78.1341 26.0118L78.1444 25.9496ZM57.0199 46.8251C57.0199 45.0933 57.0199 43.3407 57.0199 41.6089H52.3015V46.8251C53.8674 46.8251 55.4541 46.8251 57.0199 46.8251C57.0199 48.3911 57.0199 49.9778 57.0199 51.5437C58.8348 51.5126 60.6704 51.5749 62.4852 51.5437C62.8999 51.5437 64.6837 51.6682 64.7252 51.3985V46.8149C63.9785 46.8149 63.2319 46.8356 62.4852 46.8149C60.6704 46.7837 58.8348 46.8251 57.0199 46.8149V46.8251Z" fill="#7A7C7C" fill-opacity="0.4"/>
<path d="M31.4255 62.4844C31.4255 64.0503 31.4255 65.637 31.4255 67.2029H41.6093C41.6093 65.637 41.6093 64.0503 41.6093 62.4844C43.424 62.4844 45.2596 62.4844 47.0744 62.4844C47.0744 64.0503 47.0744 65.637 47.0744 67.2029C48.8062 67.2029 50.5589 67.2029 52.2907 67.2029C52.3011 69.0178 52.2907 70.8533 52.2907 72.6682C52.3114 79.6267 52.2803 86.5851 52.2907 93.5436C53.8566 93.554 55.4433 93.5229 57.0092 93.5436C57.0092 95.1096 57.0092 96.6963 57.0092 98.2622C58.824 98.2622 60.6596 98.2622 62.4744 98.2622C62.4744 99.0089 62.4537 99.7556 62.4744 100.502C62.4951 101.581 62.464 102.659 62.4744 103.738C63.2211 103.738 63.9678 103.717 64.7144 103.738C65.7826 103.758 66.8715 103.738 67.95 103.738C67.9604 105.47 67.95 107.222 67.95 108.954C69.5159 108.954 71.1026 108.954 72.6685 108.954C74.4833 108.964 76.3189 108.954 78.1336 108.954C78.1336 110.52 78.1336 112.107 78.1336 113.673H83.35C83.35 112.107 83.35 110.52 83.35 108.954C84.9158 108.954 86.5025 108.954 88.0685 108.954C89.8833 108.954 91.7189 108.954 93.5336 108.954C93.5336 107.222 93.5336 105.47 93.5336 103.738C95.3485 103.738 97.184 103.738 98.9989 103.738V98.2725H103.717C103.717 96.7067 103.717 95.12 103.717 93.554C104.464 93.554 105.211 93.554 105.957 93.554C107.036 93.5436 108.114 93.554 109.193 93.554C109.193 91.7392 109.193 89.9036 109.193 88.0889C113.331 88.0681 117.479 88.0889 121.617 88.0889V100.513H124.603C124.583 101.581 124.603 102.67 124.603 103.748C124.583 107.72 124.603 111.702 124.603 115.674C124.023 115.581 122.778 115.871 122.353 115.56C121.731 115.124 122.685 113.496 120.258 113.662C118.184 113.807 119.232 115.394 118.651 115.809C118.194 116.13 117.106 115.653 116.494 116.141C115.882 116.628 116.359 117.707 116.037 118.173C115.778 118.547 114.689 118.339 114.388 118.816C113.849 119.646 114.388 122.301 114.129 122.601C112.999 122.622 111.547 123.244 110.531 123.358C109.224 123.493 105.325 123.13 104.454 123.742C103.759 124.23 104.765 127.672 103.717 128.481L96.1885 128.897C95.11 129.197 95.6596 130.94 95.5248 131.084C95.2966 131.323 89.9351 130.96 88.9293 131.084C84.916 131.55 81.4937 131.562 77.4907 131.105C76.6611 131.012 75.0329 130.825 74.2758 130.825C73.2596 130.825 72.8344 131.448 72.0255 131.582C70.1173 131.893 68.7796 131.157 67.0478 130.877C66.6329 130.815 65.2744 130.918 65.2122 130.846C65.0669 130.701 65.5129 129.238 64.4862 128.969C63.2833 128.648 61.6447 128.637 60.3796 128.606L60.2344 131.592H52.2804C52.2804 130.597 52.2804 129.601 52.2804 128.606C50.5485 128.606 48.7958 128.606 47.064 128.606C46.9189 127.849 47.2611 123.327 47.064 123.141C46.9707 123.047 45.0004 123.213 44.5751 123.141C43.8285 120.538 46.1929 121.233 46.5662 120.901C46.6596 120.818 46.504 118.837 46.5662 118.412C46.7322 118.412 46.898 118.422 47.064 118.412V116.172H44.5751C44.5233 113.776 44.6062 111.36 44.5751 108.964C45.4048 108.964 46.2344 108.964 47.064 108.964C50.3722 108.964 53.6907 108.964 57.0092 108.964C57.0092 105.407 56.9989 101.84 57.0092 98.2725C53.7011 98.2622 50.3825 98.2829 47.064 98.2725C47.064 100.087 47.064 101.923 47.064 103.738H41.5989V108.954C41.018 108.975 40.4373 108.944 39.8566 108.954V113.683C38.8715 113.683 37.8655 113.673 36.8803 113.683V108.964C36.1336 108.964 35.3869 108.985 34.6403 108.964C34.8478 107.824 34.1529 103.852 35.138 103.375C35.9989 102.96 37.0255 103.593 36.6315 101.633C36.4551 100.751 35.7914 101.156 35.1589 100.876C34.5262 100.596 34.0493 99.8489 33.6448 99.6622C33.2404 99.4756 32.7633 99.6 32.4211 99.4029C32.2448 99.3096 31.4773 98.1689 31.4255 97.9096C30.8344 94.8503 31.6537 89.4163 31.4255 85.9733C31.384 85.3407 31.27 84.0858 31.1559 83.5051C30.9071 82.2918 29.9218 82.8518 29.4137 82.5096C29.03 82.2504 29.0404 78.2578 29.4137 78.0089C29.9115 77.677 30.9278 78.2267 31.1559 77.0236C31.3115 76.2147 31.3115 71.1229 31.1559 70.3244C30.9382 69.1836 29.4758 70.1274 29.2062 69.2978C28.7291 67.8563 29.4862 64.2058 29.1751 62.4947C29.9218 62.4947 30.6685 62.4947 31.4151 62.4947L31.4255 62.4844Z" fill="#7A7C7C" fill-opacity="0.4"/>
<path d="M47.0846 103.727V108.944C46.2549 108.944 45.4253 108.944 44.5957 108.944C43.6104 108.944 42.6046 108.913 41.609 108.944V103.727H47.0846Z" fill="#3D382F"/>
<path d="M25.9603 108.954C27.0389 108.964 28.117 108.954 29.1954 108.954V116.161H24.477C24.3525 116.161 24.5703 113.994 24.477 113.673C24.9747 113.652 25.4725 113.683 25.9703 113.673L25.9709 108.954L25.9603 108.954Z" fill="#7A7C7C" fill-opacity="0.4"/>
<path d="M34.6606 108.954C35.4072 108.964 36.1539 108.944 36.9006 108.954V113.673C35.0857 113.693 33.2502 113.652 31.4353 113.673V108.954C32.5035 108.964 33.5924 108.933 34.6709 108.954H34.6606Z" fill="#3D382F"/>
<path d="M44.5966 116.161H47.0855V118.401C46.9195 118.412 46.7535 118.401 46.5877 118.401C45.9344 118.433 45.2602 118.381 44.5966 118.401C44.5966 117.655 44.6173 116.908 44.5966 116.161Z" fill="#7A7871"/>
<path d="M90.8166 25.9496L90.5677 31.4149H105.356C105.999 31.4149 106.403 33.8415 105.48 34.2771C105.086 34.4637 103.738 34.3185 103.738 34.7749V41.6089C104.485 41.6193 105.231 41.5985 105.978 41.6089C107.876 41.6504 109.794 41.64 111.692 41.6089C111.837 42.4593 111.402 46.1096 111.92 46.4726C112.045 46.5556 114.357 46.794 114.793 46.8251C115.477 46.8667 119.138 46.5867 119.138 47.1985V51.5437H121.627C121.7 56.7496 121.523 61.9867 121.627 67.2029C120.797 67.2029 119.968 67.2029 119.138 67.2029C117.572 67.2029 115.986 67.2029 114.42 67.2029V69.2978L119.138 69.4429V72.6785C120.953 72.6682 122.788 72.6785 124.603 72.6785H128.576C128.586 73.9851 128.327 76.9511 128.576 77.9778C128.606 78.1229 129.124 78.3926 129.208 78.3926H133.553C133.718 80.3526 130.182 78.8593 129.073 79.5126C128.367 79.9274 128.596 81.8563 128.576 82.6237H119.128V72.6785C117.562 72.6785 115.975 72.6785 114.409 72.6785V82.6237C112.677 82.6237 110.925 82.6237 109.193 82.6237C109.193 79.3156 109.203 75.9971 109.193 72.6785C109.193 70.8637 109.193 69.0282 109.193 67.2133C108.114 67.2133 107.036 67.2237 105.957 67.2133C105.211 67.2133 104.464 67.2133 103.717 67.2133C103.717 65.6474 103.717 64.0607 103.717 62.4949C102.151 62.4949 100.565 62.4949 98.9989 62.4949C98.9989 60.68 98.9989 58.8444 98.9989 57.0296C97.184 57.0296 95.3484 57.0296 93.5336 57.0296C93.5336 55.2149 93.5336 53.3793 93.5336 51.5644C93.5336 51.0149 93.6477 46.8771 93.3884 46.8356H90.5469C90.5262 48.4118 90.578 49.9882 90.5469 51.5644C90.5366 52.394 90.5469 53.2237 90.5469 54.0533H88.058C88.0477 53.2237 88.0684 52.394 88.058 51.5644H83.3396C83.3291 48.2563 83.3396 44.9378 83.3396 41.6296C83.3396 39.8149 83.3396 37.9793 83.3396 36.1644C83.3396 32.7733 83.3291 29.3718 83.3396 25.9807C85.818 25.9704 88.3173 26.0118 90.7958 25.9807L90.8166 25.9496Z" fill="#7A7C7C" fill-opacity="0.4"/>
<path d="M128.596 82.6133C128.545 84.4282 128.607 86.2638 128.596 88.0785C130.412 88.0785 132.247 88.0785 134.061 88.0785V103.738C134.061 104.007 129.105 103.738 128.596 103.738C128.596 110.198 128.626 116.659 128.596 123.12C127.279 123.141 125.941 123.099 124.624 123.12C124.614 120.642 124.625 118.142 124.625 115.664C124.625 111.692 124.604 107.71 124.625 103.738H128.596C128.596 101.923 128.596 100.087 128.596 98.2726C128.596 96.7067 128.596 95.12 128.596 93.554C128.596 91.7393 128.586 89.9038 128.596 88.0889C127.279 88.0889 125.942 88.0889 124.625 88.0889C124.625 86.274 124.625 84.4385 124.625 82.6237H128.596V82.6133Z" fill="#3D382F"/>
<path d="M139.277 62.4844C139.277 64.0504 139.277 65.6371 139.277 67.2029C135.72 67.2029 132.153 67.1926 128.585 67.2029C128.574 69.0178 128.564 70.8533 128.585 72.6682H124.613V69.4326H121.626C121.626 68.686 121.647 67.9393 121.627 67.1926C123.939 67.1926 126.273 67.1926 128.585 67.1926C128.585 65.6267 128.585 64.04 128.585 62.474C132.143 62.4637 135.71 62.4949 139.277 62.474V62.4844Z" fill="#3D382F"/>
<path d="M105.978 41.6089L105.978 36.1437H114.43V41.6089C113.517 41.6089 112.605 41.5985 111.692 41.6089C109.794 41.64 107.876 41.6504 105.978 41.6089Z" fill="#7A7871"/>
<path d="M57.0201 98.2622C57.0097 101.819 57.0201 105.387 57.0201 108.954C53.7119 108.954 50.3934 108.954 47.0748 108.954V103.738C47.0748 101.923 47.0748 100.087 47.0748 98.2726C50.383 98.283 53.7015 98.2622 57.0201 98.2726V98.2622Z" fill="#BEB493"/>
<path d="M114.43 82.6133C115.996 82.6133 117.583 82.6133 119.149 82.6133H124.614C124.614 84.4282 124.614 86.2638 124.614 88.0785C123.618 88.0785 122.623 88.0785 121.627 88.0785C117.49 88.0785 113.341 88.0578 109.204 88.0785C109.204 89.8933 109.204 91.7289 109.204 93.5438C108.125 93.5438 107.047 93.5333 105.968 93.5438V88.0785C107.036 88.0578 108.125 88.0785 109.204 88.0785C109.204 86.2638 109.204 84.4282 109.204 82.6133C110.935 82.6133 112.688 82.6133 114.42 82.6133H114.43Z" fill="#3D382F"/>
<path d="M124.614 88.0785C124.614 89.8933 124.613 91.7289 124.613 93.5436H128.595C128.595 95.1096 128.595 96.6963 128.595 98.2622H124.613C124.613 99.0089 124.634 99.7556 124.613 100.502H121.626L121.627 88.0785C122.623 88.0785 123.618 88.0785 124.614 88.0785Z" fill="#BEB493"/>
<path d="M80.3838 108.954C81.3793 108.954 82.3749 108.954 83.3704 108.954C83.3704 110.52 83.3704 112.107 83.3704 113.673H78.1542C78.1542 112.107 78.1542 110.52 78.1542 108.954C78.9008 108.954 79.6475 108.954 80.3942 108.954H80.3838Z" fill="#BEB493"/>
<path d="M128.595 98.2622C128.595 100.077 128.596 101.913 128.596 103.727H124.625C124.625 102.649 124.604 101.57 124.625 100.492C124.635 99.7453 124.614 98.9986 124.625 98.2519H128.607L128.595 98.2622Z" fill="#BEB493"/>
<path d="M78.1444 29.1851L78.1446 31.4251C77.0764 31.4044 75.9874 31.4044 74.9088 31.4251V29.1851H78.1444Z" fill="#BEB493"/>
<path d="M119.149 72.6682L119.149 82.6133C117.583 82.6133 115.996 82.6133 114.43 82.6133L114.43 72.6682C115.996 72.6682 117.583 72.6682 119.149 72.6682Z" fill="#BEB493"/>
<path d="M121.637 67.203C121.647 67.9497 121.626 68.6964 121.637 69.443H124.623V72.6682C122.809 72.6682 120.973 72.6578 119.158 72.6682V67.203C119.988 67.203 120.817 67.203 121.647 67.203H121.637Z" fill="#3D382F"/>
<path d="M119.149 67.203V69.443L114.42 69.2978V67.2029C115.996 67.2029 117.573 67.2133 119.149 67.203Z" fill="#7A7871"/>
<path d="M128.596 88.0785C128.586 89.8933 128.595 91.7289 128.595 93.5436H124.613C124.613 91.7289 124.614 89.8933 124.614 88.0785C125.931 88.0785 127.269 88.0785 128.586 88.0785L128.596 88.0785Z" fill="#BEB493"/>
<path d="M105.979 93.5438C105.232 93.5438 104.485 93.5438 103.739 93.5438C103.739 95.1096 103.739 96.6963 103.739 98.2622H99.0201V103.727C97.2052 103.727 95.3697 103.727 93.5549 103.727C93.5652 100.834 93.5549 97.92 93.5549 95.0267H99.0201C99.0719 94.7156 98.9371 93.6163 99.0201 93.5333C99.186 93.3674 103.054 93.5333 103.739 93.5333C103.749 91.7185 103.739 89.883 103.739 88.0682C104.485 88.0682 105.232 88.0889 105.979 88.0682V93.5438Z" fill="#3D382F"/>
<path d="M57.0191 72.6682C56.9984 79.6267 57.0198 86.5851 57.0198 93.5436C57.5176 93.5436 60.1412 93.4296 60.2554 93.5436C60.3383 93.6267 60.2034 94.726 60.2554 95.0371H64.725V98.2725H67.9605C67.9605 100.087 67.9501 101.923 67.9605 103.738C66.882 103.738 65.8034 103.758 64.725 103.738V100.502H62.485C62.4746 99.7556 62.4954 99.0089 62.485 98.2622C60.6701 98.2622 58.8348 98.2622 57.0201 98.2622C57.0201 96.6964 57.0198 95.1096 57.0198 93.5436C55.4539 93.5229 53.8672 93.554 52.3012 93.5436C52.2909 86.5851 52.3213 79.6267 52.3006 72.6682H57.0191Z" fill="#3D382F"/>
<path d="M93.5549 103.727C93.5549 105.459 93.5542 107.212 93.5542 108.944C91.7394 108.944 89.9039 108.944 88.089 108.944V103.727C89.9039 103.727 91.7401 103.727 93.5549 103.727Z" fill="#3D382F"/>
<path d="M78.1434 103.727C78.1434 105.459 78.133 107.212 78.1434 108.944C76.3285 108.944 74.493 108.954 72.6781 108.944V103.727C74.493 103.727 76.3285 103.727 78.1434 103.727Z" fill="#3D382F"/>
<path d="M88.089 103.727V108.944C86.5231 108.944 84.937 108.944 83.3712 108.944C83.3712 107.948 83.3712 106.953 83.3712 105.957V103.717C84.937 103.717 86.5237 103.717 88.0897 103.717L88.089 103.727Z" fill="#3D382F"/>
<path d="M72.6781 103.727V108.944C71.1123 108.944 69.5262 108.944 67.9603 108.944C67.9603 107.212 67.9707 105.459 67.9603 103.727C69.5262 103.727 71.1123 103.727 72.6781 103.727Z" fill="#3D382F"/>
<path d="M62.4951 100.502H64.7351V103.738C63.9884 103.727 63.2418 103.748 62.4951 103.738C62.4847 102.659 62.5158 101.581 62.4951 100.502Z" fill="#3D382F"/>
<path d="M74.9182 31.4149C75.9863 31.394 77.0752 31.394 78.1538 31.4149C78.1538 34.806 78.1538 38.2074 78.1538 41.5985H83.37C83.37 44.9067 83.3596 48.2251 83.37 51.5437C83.37 53.3585 83.37 55.194 83.37 57.0089C84.936 57.0089 86.5227 57.0089 88.0885 57.0089C89.9034 57.0193 91.7389 57.0089 93.5538 57.0089C93.5538 58.8237 93.5538 60.6593 93.5538 62.474C95.3685 62.474 97.2041 62.4637 99.0189 62.474C99.0189 64.04 99.0189 65.6267 99.0189 67.1926C100.585 67.1926 102.172 67.1822 103.737 67.1926C103.769 72.326 103.717 77.4696 103.737 82.6029C105.552 82.6029 107.388 82.6029 109.203 82.6029C109.203 84.4178 109.203 86.2533 109.203 88.0682C108.124 88.0682 107.046 88.0474 105.967 88.0682C105.22 88.0785 104.474 88.0578 103.727 88.0682C103.727 89.8829 103.737 91.7185 103.727 93.5333C103.043 93.5333 99.1745 93.3674 99.0085 93.5333C98.9256 93.6162 99.0605 94.7156 99.0085 95.0267H93.5434C93.5434 97.92 93.5538 100.834 93.5434 103.727C91.7285 103.727 89.893 103.727 88.0782 103.727C86.5123 103.727 84.9256 103.727 83.3596 103.727C81.6278 103.727 79.8752 103.727 78.1434 103.727C76.4114 103.727 74.493 103.727 72.6781 103.727C71.1123 103.727 69.5262 103.727 67.9603 103.727C67.9498 101.913 67.9596 100.077 67.9596 98.2622H64.7241L64.725 95.0371H60.2554C60.2034 94.726 60.3383 93.6267 60.2554 93.5436C60.1412 93.4296 57.5176 93.5436 57.0198 93.5436C57.0198 86.5851 56.9984 79.6267 57.0191 72.6682C57.0191 70.8533 57.0086 69.0178 57.0191 67.203C58.8339 67.203 60.6693 67.2029 62.4841 67.2029C62.4841 65.6371 62.4738 64.0504 62.4841 62.4844C64.2989 62.4637 66.1345 62.4949 67.9493 62.4844C67.9493 60.6696 67.9389 58.834 67.9493 57.0193C69.5152 57.0193 71.1018 57.0193 72.6678 57.0193C74.4827 57.0193 76.3182 57.0193 78.133 57.0193C78.133 55.2044 78.133 53.3689 78.133 51.554C78.1434 48.246 78.133 44.9274 78.133 41.6089C76.3182 41.6089 74.4827 41.6089 72.6678 41.6089V31.4149C73.4145 31.4149 74.1611 31.4356 74.9078 31.4149H74.9182ZM83.37 72.6682H78.1538V77.8844H72.6885V82.6029H78.1538V88.0682H83.37V82.6029H88.0885V77.8844H83.37V72.6682Z" fill="#BEB493"/>
<path d="M78.144 51.5437C78.144 53.3585 78.144 55.194 78.144 57.0089C76.3293 57.0089 74.4937 57.0089 72.6789 57.0089V54.0222H67.9604C67.9707 53.1926 67.95 52.3629 67.9604 51.5333H78.1544L78.144 51.5437Z" fill="#3D382F"/>
<path d="M67.9604 57.0089C67.95 58.8236 67.9604 60.6592 67.9604 62.474C66.1455 62.474 64.31 62.4533 62.4951 62.474C62.4951 64.04 62.4951 65.6267 62.4951 67.1925C60.6804 67.1925 58.8448 67.1925 57.03 67.1925C57.03 65.6267 57.03 64.04 57.03 62.474C58.8448 62.474 60.6804 62.4947 62.4951 62.474C62.4951 61.3956 62.4744 60.317 62.4951 59.2385H64.7351V56.9985C65.8033 56.9778 66.8922 56.9985 67.9707 56.9985L67.9604 57.0089Z" fill="#3D382F"/>
<path d="M67.9608 54.0326H72.6792V57.0193C71.1134 57.0193 69.5267 57.0193 67.9608 57.0193C67.9608 56.0237 67.9401 55.0282 67.9608 54.0326Z" fill="#3D382F"/>
<path d="M64.7243 57.0089V59.2489H62.4843C62.4947 58.5022 62.474 57.7556 62.4843 57.0089C63.231 57.0089 63.9777 57.0296 64.7243 57.0089Z" fill="#3D382F"/>
<path d="M78.144 31.4149C78.8907 31.4253 79.6373 31.4044 80.384 31.4149V36.1333H83.3707C83.3707 37.9482 83.37 39.7837 83.37 41.5985H78.1538C78.1538 38.2074 78.1538 34.806 78.1538 31.4149H78.144Z" fill="#3D382F"/>
<path d="M93.5538 57.0089C95.3685 57.0089 97.2052 57.0089 99.0201 57.0089C99.0201 58.8237 99.0085 60.6593 99.0189 62.474C100.585 62.474 102.173 62.474 103.739 62.474C103.739 64.04 103.737 65.6267 103.737 67.1926C104.484 67.1926 105.232 67.1926 105.979 67.1926V72.6578H109.214C109.225 75.966 109.214 79.2844 109.214 82.6029C107.399 82.6029 105.564 82.6029 103.749 82.6029C103.728 77.4696 103.78 72.326 103.749 67.1926C102.183 67.1926 100.596 67.1926 99.0305 67.1926C99.0305 65.6267 99.0305 64.04 99.0305 62.474C97.2156 62.474 95.3801 62.474 93.5652 62.474C93.5652 60.6593 93.5652 58.8237 93.5652 57.0089H93.5538Z" fill="#3D382F"/>
<path d="M83.37 51.5437L88.0897 51.5437C88.0897 52.3733 88.069 53.2029 88.0897 54.0326C88.1104 55.0282 88.0792 56.0237 88.0897 57.0193C86.5237 57.0193 84.937 57.0193 83.3712 57.0193C83.3712 55.2044 83.3712 53.3689 83.3712 51.554L83.37 51.5437Z" fill="#3D382F"/>
<path d="M93.5549 51.5437C93.5549 53.3585 93.5538 55.194 93.5538 57.0089C91.7389 57.0089 89.9034 57.0193 88.0885 57.0089C88.0782 56.0133 88.1105 55.0178 88.0898 54.0222H90.5787C90.5787 53.1926 90.5683 52.3629 90.5787 51.5333H93.5653L93.5549 51.5437Z" fill="#3D382F"/>
<path d="M105.978 67.203C107.057 67.2133 108.135 67.203 109.214 67.203C109.214 69.0178 109.214 70.8533 109.214 72.6682H105.978V67.203Z" fill="#3D382F"/>
<path d="M90.5675 51.5437C90.5882 49.9778 90.5468 48.3911 90.5675 46.8251H93.409C93.6682 46.8563 93.5549 51.0044 93.5549 51.5437H90.5675Z" fill="#BEB493"/>
<path d="M83.3709 103.727V105.967H80.3843L80.3838 108.954C79.6371 108.954 78.8909 108.954 78.1443 108.954C78.1338 107.222 78.1443 105.47 78.1443 103.738C79.8761 103.738 81.6287 103.738 83.3605 103.738L83.3709 103.727Z" fill="#3D382F"/>
<path d="M83.3709 105.967C83.3709 106.963 83.3704 107.958 83.3704 108.954C82.3749 108.954 81.3793 108.954 80.3838 108.954L80.3843 105.967H83.3709Z" fill="#7A7871"/>
<path d="M83.37 72.6682V77.8844H88.0885L88.0885 82.6133H83.37V88.0785H78.1434V82.6133H72.6781V77.8844H78.1434V72.6682L83.37 72.6682Z" fill="#3D382F"/>
<path d="M57.0199 46.8251C55.4541 46.8251 53.8674 46.8251 52.3015 46.8251V41.6089H57.0199C57.0199 43.3407 57.0199 45.0933 57.0199 46.8251C58.8348 46.8356 60.6695 46.7942 62.4842 46.8253L62.4852 51.5437C60.6704 51.5749 58.8348 51.5229 57.0199 51.5437C57.0199 49.9778 57.0304 48.3911 57.0199 46.8251Z" fill="#7A7871"/>
<path d="M62.4944 46.8251C63.241 46.8356 63.9877 46.8149 64.7344 46.8251V51.4089C64.693 51.6785 62.9092 51.5437 62.4944 51.554V46.8251Z" fill="#BEB493"/>
</g>
<defs>
<clipPath id="clip0_28_11194">
<rect width="160" height="160" fill="white"/>
</clipPath>
</defs>
</svg>
