<svg width="161" height="160" viewBox="0 0 161 160" fill="none" xmlns="http://www.w3.org/2000/svg">
<path d="M73.751 20H80.251V26.5H66.751V20H73.751Z" fill="#41B65A"/>
<path d="M66.751 6.5V13.5H60.251V6.5H66.751Z" fill="#329848"/>
<path d="M46.751 33.5V40H40.251V46.5H33.751V40H40.251V33.5H46.751Z" fill="#329848"/>
<path d="M33.751 6.5V13.5H39.951L40.251 6.5H53.751V13.5H60.251V20H53.751V13.5H46.751V20H40.251C38.101 20 33.801 19.75 33.751 20.3V26.5H40.251V33.5H20.251V66.5H13.751V26.5H20.251V20H26.751V6.5H33.751Z" fill="#329848"/>
<path d="M26.751 6.5V13.5H20.251V6.5H26.751Z" fill="#41B65A"/>
<path d="M60.251 6.5V13.5H53.751V6.5H60.251Z" fill="#88D55A"/>
<path d="M66.751 13.5H73.751V20H60.251V13.5H66.751Z" fill="#88D55A"/>
<path d="M40.251 6.5L39.951 13.5H33.751V6.5H40.251Z" fill="#41B65A"/>
<path d="M20.251 13.5V26.5H13.751V40H6.75098V26.5H13.751V13.5H20.251Z" fill="#88D55A"/>
<path d="M13.751 40V53.5H6.75098V40H13.751Z" fill="#41B65A"/>
<path d="M26.751 53.5V60H33.751V66.5H26.751V60H20.251V53.5H26.751Z" fill="#186A5A"/>
<path d="M53.751 26.5V33.5H46.751V26.5H53.751Z" fill="#002724"/>
<path d="M60.251 20V26.5H53.751V20H60.251Z" fill="#186A5A"/>
<path d="M66.751 20V26.5H60.251V20H66.751Z" fill="#002724"/>
<path d="M40.251 33.5V40H26.751V33.5H40.251Z" fill="#41B65A"/>
<path d="M40.251 20V26.5H46.751V33.5H40.251V26.5H33.751V20.3C33.751 19.8 39.301 20 40.251 20Z" fill="#41B65A"/>
<path d="M26.751 33.5V46.5H20.251V33.5H26.751Z" fill="#07423C"/>
<path d="M53.751 13.5V20H46.751V13.5H53.751Z" fill="#41B65A"/>
<path d="M26.751 46.5V53.5H33.751V60H26.751V53.5H20.251V46.5H26.751Z" fill="#0E524B"/>
<path d="M46.751 20V26.5H40.251V20H46.751Z" fill="#07423C"/>
<path d="M33.751 40V53.5H26.751V40H33.751Z" fill="#002724"/>
<path d="M53.751 20V26.5H46.751V20H53.751Z" fill="#0E524B"/>
<path d="M73.751 80H86.751V86.5H100.251V93.5H80.251V86.5H73.751V80Z" fill="#EA4D00"/>
<path d="M113.751 80V86.5H120.251V93.5H106.751V106.5H113.751V113.5H120.251V120H126.751V126.5H133.751V133.5H140.251V140H146.751V146.5H153.751V153.5H146.751V146.5H140.251V140H133.751V133.5H126.751V126.5H120.251V120H113.751V113.5H106.751V106.5H100.251V93.5H106.751V80H113.751Z" fill="#EA4D00"/>
<path d="M113.751 120V126.5H120.251V133.5H126.751V140H133.751V146.5H140.251V153.5H133.751V146.5H126.751V140H120.251V133.5H113.751V126.5H106.751V120H113.751Z" fill="#E91C5B"/>
<path d="M80.251 33.5V40H66.751V53.5H60.251V60H66.751V66.5H80.251V73.5H73.751V86.5H80.251V93.5H100.251V106.5H106.751V113.5H113.751V120H120.251V126.5H126.751V133.5H133.751V140H140.251V146.5H146.751V153.5H140.251V146.5H133.751V140H126.751V133.5H120.251V126.5H113.751V120H100.251V113.5H93.751V106.5H86.751V100H73.751V93.5H66.751V86.5H60.251V80H53.751V73.5H66.751V66.5H60.251V60H53.751V73.5H46.751V60H40.251V46.5H46.751V40H53.751V33.5H80.251Z" fill="#BF350B"/>
<path d="M106.751 86.5V93.5H100.251V86.5H106.751Z" fill="#BF350B"/>
<path d="M153.751 133.5V140H146.751V133.5H153.751Z" fill="#FE9E00"/>
<path d="M113.751 100V106.5H120.251V113.5H126.751V120H133.751V126.5H140.251V133.5H146.751V140H153.751V146.5H146.751V140H140.251V133.5H133.751V126.5H126.751V120H120.251V113.5H113.751V106.5H106.751V100H113.751Z" fill="#DF7400"/>
<path d="M66.751 93.5V100H80.251V106.5H93.751V113.5H100.251V120H106.751V126.5H100.251V120H93.751V113.5H80.251V106.5H66.751V100H60.251V93.5H66.751Z" fill="#F05CC8"/>
<path d="M40.251 60H46.751V73.5H53.751V80H60.251V86.5H66.751V93.5H73.751V100H66.751V93.5H53.751V86.5H46.751V80H40.251V60Z" fill="#E91C5B"/>
<path d="M86.751 33.5V40H80.251V33.5H86.751Z" fill="#DF7400"/>
<path d="M106.751 73.5H113.751V80H100.251V73.5H106.751Z" fill="#FE9E00"/>
<path d="M100.251 80V86.5H93.751V80H100.251Z" fill="#FE9E00"/>
<path d="M100.251 53.5V60H106.751V66.5H100.251V73.5H86.751V66.5H100.251V60H93.751V53.5H100.251Z" fill="#FE9E00"/>
<path d="M106.751 66.5V73.5H100.251V66.5H106.751Z" fill="#DF7400"/>
<path d="M106.751 80V86.5H100.251V80H106.751Z" fill="#DF7400"/>
<path d="M86.751 66.5V73.5H100.251V80H93.751V86.5H86.751V80H73.751V73.5H80.251V66.5H86.751Z" fill="#DF7400"/>
<path d="M120.251 93.5V100H106.751V93.5H120.251Z" fill="#FE9E00"/>
<path d="M120.251 100H126.751V106.5H133.751V113.5H126.751V106.5H113.751V100H120.251Z" fill="#FED100"/>
<path d="M100.251 46.5V53.5H93.751V46.5H100.251Z" fill="#DF7400"/>
<path d="M126.751 106.5V113.5H140.251V126.5H133.751V120H126.751V113.5H120.251V106.5H126.751Z" fill="#FE9E00"/>
<path d="M146.751 126.5V133.5H140.251V126.5H146.751Z" fill="#FED100"/>
<path d="M80.251 40H93.751V46.5H73.751V60H66.751V46.5H73.751V40H80.251Z" fill="#FE9E00"/>
<path d="M80.251 100H86.751V106.5H80.251V100Z" fill="#E91C5B"/>
<path d="M60.251 60V66.5H66.751V73.5H53.751V60H60.251Z" fill="#EA4D00"/>
<path d="M73.751 40V46.5H66.751V40H73.751Z" fill="#DF7400"/>
<path d="M66.751 53.5V60H73.751V53.5H80.251V60H73.751V66.5H66.751V60H60.251V53.5H66.751Z" fill="#DF7400"/>
<path d="M93.751 46.5V60H100.251V66.5H93.751V60H86.751V53.5H73.751V46.5H93.751Z" fill="#FED100"/>
<path d="M80.251 60H93.751V66.5H73.751V60H80.251Z" fill="#EA4D00"/>
<path d="M80.251 53.5H86.751V60H80.251V53.5Z" fill="#FE9E00"/>
</svg>
