<svg width="161" height="160" viewBox="0 0 161 160" fill="none" xmlns="http://www.w3.org/2000/svg">
<g clip-path="url(#clip0_28_11268)">
<path d="M6.75 13.5V6.5H13.75V13.5H33.75V6.5H66.75V13.5H80.25V20H86.75V26.5H93.75V20H100.25V13.5H133.75V20H140.25V26.5H146.75V33.5H153.75V46.5H160.25V66.5H153.75C153.8 59.85 153.75 53.15 153.75 46.5H146.75V33.5H140.25V26.5H133.75V20H120.25C113.6 20 106.9 20 100.25 20V26.5H93.75V33.5H113.75V40H100.25V46.5H113.75V53.5C120.4 53.5 127.1 53.5 133.75 53.5V60H146.75V66.5H153.75V73.5H146.75V66.5H133.75V60H113.75V53.5H100.25V46.5H93.75V40H80.25V46.5H73.75V53.5H60.25V46.5H73.75V40H80.25V33.5H66.75V26.5H80.25V20H66.75V13.5H33.75V20H13.75V13.5H6.75C6.7 20.15 6.7 26.85 6.75 33.5H20.25V40H26.75V46.5H33.75V53.5C42.55 53.6 51.45 53.5 60.25 53.5V60H33.75V53.5H26.75V46.5H20.25V40H6.75V33.5H0.25V13.5H6.75Z" fill="#056160"/>
<path d="M13.75 13.5V26.5H60.25V33.5H6.75C6.7 26.85 6.7 20.15 6.75 13.5H13.75Z" fill="#22AB7D"/>
<path d="M66.75 13.5V20C71.25 20 75.75 20 80.25 20V26.5H60.25V20H46.75V13.5H66.75Z" fill="#22AB7D"/>
<path d="M66.75 33.5H80.25V40H73.75V46.5H60.25V53.5C51.45 53.5 42.55 53.6 33.75 53.5V46.5H46.75V40H60.25V33.5H66.75Z" fill="#22AB7D"/>
<path d="M120.25 20V40H140.25V46.5H100.25V40H113.75V33.5H93.75V26.5H100.25V20C106.9 20 113.6 20 120.25 20Z" fill="#22AB7D"/>
<path d="M146.75 46.5H153.75C153.75 53.15 153.8 59.85 153.75 66.5H146.75V60H133.75V53.5H140.25V46.5H146.75Z" fill="#22AB7D"/>
<path d="M33.75 33.5V40H46.75V46.5H26.75V40H20.25V33.5H33.75Z" fill="#37D57A"/>
<path d="M146.75 40H140.25V46.5H146.75V40Z" fill="#37D57A"/>
<path d="M140.25 46.5V53.5H133.75C127.1 53.5 120.4 53.5 113.75 53.5V46.5H140.25Z" fill="#37D57A"/>
<path d="M60.25 33.5V40H53.75V33.5H60.25Z" fill="#37D57A"/>
<path d="M66.75 26.5V33.5H60.25V26.5H66.75Z" fill="#37D57A"/>
<path d="M46.75 20H60.25V26.5H46.75V20Z" fill="#37D57A"/>
<path d="M46.75 13.5V26.5H26.75V20H33.75V13.5H46.75Z" fill="#78F075"/>
<path d="M133.75 20V26.5H140.25V33.5H146.75V40H133.75V33.5H126.75V26.5H120.25V20H133.75Z" fill="#78F075"/>
<path d="M26.75 20V26.5H13.75V20H26.75Z" fill="#37D57A"/>
<path d="M53.75 33.5V40H33.75V33.5H53.75Z" fill="#78F075"/>
<path d="M120.25 26.5H126.75V33.5H133.75V40H120.25V26.5Z" fill="#37D57A"/>
<path d="M100.25 60H106.75V66.5H100.25V60Z" fill="#510045"/>
<path d="M66.75 80V86.5H60.25V93.5H53.75V100H46.75V93.5H53.75V86.5H60.25V80H66.75Z" fill="#510045"/>
<path d="M80.25 40H93.75V46.5H100.25V60H93.75C93.75 55.5 93.8 51 93.75 46.5H86.75V60H80.25V40Z" fill="#510045"/>
<path d="M80.25 60V73.5H73.75V60H80.25Z" fill="#510045"/>
<path d="M113.75 80H120.25V106.5H113.75V120H106.75V106.5H113.75V80Z" fill="#510045"/>
<path d="M73.75 73.5V80H66.75V73.5H73.75Z" fill="#510045"/>
<path d="M106.75 66.5H113.75V80H106.75C106.75 75.5 106.8 71 106.75 66.5Z" fill="#510045"/>
<path d="M126.75 100V106.5H133.75V113.5H140.25C140.3 120.15 140.25 126.85 140.25 133.5H133.75V113.5H126.75V120H120.25V133.5C111.45 133.6 102.55 133.5 93.75 133.5V126.5H86.75V113.5H93.75V126.5H113.75V120H120.25V100H126.75Z" fill="#B50341"/>
<path d="M93.75 133.5V140H100.25V146.5H113.75V153.5H100.25V146.5H93.75V140H86.75V133.5H93.75Z" fill="#B50341"/>
<path d="M140.25 133.5V140H133.75V146.5H126.75V153.5H113.75V146.5H126.75V140H133.75V133.5H140.25Z" fill="#DB3FCA"/>
<path d="M100.25 106.5H106.75V120H100.25V113.5H93.75V106.5H100.25Z" fill="#FEA790"/>
<path d="M66.75 86.5V93.5H73.75V100H80.25C80.3 106.65 80.3 113.35 80.25 120H73.75V100H66.75V106.5H60.25V120C53.6 120.05 46.9 120 40.25 120H33.75V126.5H40.25V133.5H53.75V140H40.25V133.5H33.75V126.5H26.75V120H33.75V113.5H26.75V100H33.75V113.5H53.75V106.5H60.25V86.5H66.75Z" fill="#B50341"/>
<path d="M93.75 126.5V133.5H86.75V126.5H93.75Z" fill="#920068"/>
<path d="M133.75 113.5V120H126.75V133.5H120.25V140H93.75V133.5C102.55 133.5 111.45 133.6 120.25 133.5V120H126.75V113.5H133.75Z" fill="#920068"/>
<path d="M80.25 120V126.5H73.75V133.5H66.75V140H53.75V133.5H66.75V126.5H73.75V120H80.25Z" fill="#DB3FCA"/>
<path d="M33.75 113.5V120H26.75V113.5H33.75Z" fill="#920068"/>
<path d="M53.75 86.5V93.5H40.25V86.5H53.75Z" fill="#B50341"/>
<path d="M40.25 93.5H46.75V106.5H33.75V93.5H40.25Z" fill="#FEA790"/>
<path d="M113.75 100V106.5H100.25V100H113.75Z" fill="#B50341"/>
<path d="M120.25 106.5V120H113.75V126.5H93.75V113.5H100.25V120H113.75V106.5H120.25Z" fill="#F01A51"/>
<path d="M133.75 120V140H126.75V146.5H100.25V140H120.25V133.5H126.75C126.75 129 126.7 124.5 126.75 120H133.75Z" fill="#670157"/>
<path d="M73.75 113.5V126.5H66.75V133.5H40.25V126.5H33.75V120H40.25V126.5H60.25V120H66.75V113.5H73.75Z" fill="#670157"/>
<path d="M73.75 100V113.5H66.75V120H60.25V126.5H40.25V120C46.9 120 53.6 120.05 60.25 120V106.5H66.75V100H73.75Z" fill="#920068"/>
<path d="M60.25 93.5V106.5H53.75V113.5H33.75V106.5H53.75V93.5H60.25Z" fill="#F01A51"/>
<path d="M53.75 100V106.5H46.75V100H53.75Z" fill="#FE5353"/>
</g>
<defs>
<clipPath id="clip0_28_11268">
<rect width="160.5" height="160" fill="white"/>
</clipPath>
</defs>
</svg>
