<svg width="105" height="160" viewBox="0 0 105 160" fill="none" xmlns="http://www.w3.org/2000/svg">
<g clip-path="url(#clip0_28_11314)">
<path d="M104.119 94.034C104.157 109.574 104.089 125.159 104.119 140.698H95.055L95.0625 150.479H85.2436V159.521H19.6211V150.472L10.5645 150.479V140.691L0.753163 140.698C0.745616 134.683 0.775805 128.645 0.753163 122.63C4.01354 122.6 7.30411 122.676 10.5645 122.63C13.5758 122.585 16.6098 122.66 19.6211 122.63V112.842H85.2587V122.63H95.0701C95.0927 113.106 95.0323 103.551 95.0701 94.0265H104.127L104.119 94.034Z" fill="#007979"/>
<path d="M19.6211 47.3775V57.1586C16.6098 57.1661 13.5758 57.1208 10.5645 57.1586C10.5569 60.1624 10.572 63.1889 10.5645 66.1926C10.4966 84.9925 10.6173 103.838 10.5645 122.638C7.30411 122.683 4.01354 122.608 0.753163 122.638C0.670144 100.827 0.813541 78.9699 0.753163 57.1586C4.01354 57.1359 7.30411 57.1963 10.5645 57.1586C10.572 53.9058 10.5192 50.6228 10.5645 47.3775H19.6211Z" fill="#3862F7"/>
<path d="M48.2928 0.698242L48.2852 10.502L56.9117 10.5095L57.3419 0.698242H66.4135V19.5284H38.4664V0.698242H48.2928Z" fill="#3862F7"/>
<path d="M95.0701 47.3775C95.1154 50.6303 95.0625 53.9058 95.0701 57.1586C98.0814 57.1963 101.115 57.1284 104.127 57.1586C104.142 69.4379 104.096 81.7624 104.127 94.0416H95.0701C95.1078 84.7737 95.1078 75.4605 95.0701 66.1926C95.0625 63.1889 95.0776 60.1624 95.0701 57.1586C91.8097 57.1133 88.5191 57.1661 85.2588 57.1586V47.3775H95.0701Z" fill="#3862F7"/>
<path d="M85.2588 57.1586C88.5191 57.1661 91.8097 57.1133 95.0701 57.1586C95.0776 60.1624 95.0625 63.1889 95.0701 66.1926L76.2172 66.1925V57.1586C79.2135 57.1661 82.2474 57.151 85.2588 57.1586Z" fill="#007760"/>
<path d="M76.2172 66.1925V75.2265H29.4098V66.1925C45.0022 66.1925 60.6173 66.1925 76.2172 66.1925Z" fill="#007760"/>
<path d="M19.6211 57.1586C22.8815 57.151 26.172 57.1661 29.4173 57.1586V66.1926H10.5645C10.572 63.1889 10.5569 60.1624 10.5645 57.1586C13.5758 57.1208 16.6098 57.1661 19.6211 57.1586Z" fill="#007760"/>
<path d="M76.2172 47.3775V57.1586C60.6249 57.1058 45.0022 57.1058 29.4098 57.1586V47.3775H76.2172Z" fill="#007760"/>
<path d="M38.4664 19.5284V28.5624C47.772 28.5322 57.1003 28.5322 66.406 28.5624V19.5284L76.2172 19.5133V28.5548C79.2135 28.5925 82.255 28.5246 85.2587 28.5548V38.3435L95.0701 38.3359C95.0927 41.3397 95.0248 44.3661 95.0701 47.3699H76.2172V28.5548C72.9418 28.5095 69.6588 28.5624 66.406 28.5548V38.3359H38.4588V28.5548C35.4626 28.5624 32.4286 28.5171 29.4022 28.5548V47.3699H10.5494C10.5871 44.3661 10.5192 41.3397 10.5494 38.3359H19.6135L19.606 28.5548C22.8664 28.5322 26.1569 28.5925 29.4022 28.5548V19.5133L38.4588 19.5284L38.4664 19.5284Z" fill="#007760"/>
<path d="M57.3419 0.698242L56.9117 10.5095L48.2852 10.502L48.2928 0.698242H57.3419Z" fill="#320017"/>
<path d="M76.2172 57.1586V66.1925C60.6249 66.1925 45.0098 66.1925 29.4098 66.1925V57.1586C45.0022 57.1058 60.6249 57.1058 76.2172 57.1586Z" fill="#ADEDFF"/>
<path d="M29.4173 47.3775L29.4173 57.1586C26.172 57.1661 22.8815 57.151 19.6211 57.1586V47.3775H29.4173Z" fill="#ADEDFF"/>
<path d="M85.2588 47.3775V57.1586C82.2474 57.151 79.2135 57.1661 76.2172 57.1586V47.3775H85.2588Z" fill="#ADEDFF"/>
<path d="M38.4664 28.5548V38.3359H66.4135V28.5548C69.6588 28.5624 72.9494 28.5095 76.2248 28.5548V47.37H29.4173V28.5548C32.4362 28.5171 35.4777 28.5624 38.4739 28.5548H38.4664Z" fill="#ADEDFF"/>
<path d="M29.4173 66.1926L29.4173 75.2265H76.2248V66.1925H95.0776C95.1154 75.4605 95.1154 84.7737 95.0776 94.0416C95.0399 103.566 95.1003 113.121 95.0776 122.645H85.2588V112.857H19.6211V122.645C16.6173 122.668 13.5758 122.6 10.5645 122.645C10.6173 103.845 10.4966 85.0001 10.5645 66.2001H29.4173L29.4173 66.1926Z" fill="#ADEDFF"/>
<path d="M66.4135 19.5284V28.5624C57.1079 28.5322 47.7796 28.5322 38.4739 28.5624V19.5284L66.4135 19.5284Z" fill="#1E1E1E"/>
</g>
<defs>
<clipPath id="clip0_28_11314">
<rect width="104.151" height="160" fill="white"/>
</clipPath>
</defs>
</svg>
