<?xml version="1.0" encoding="UTF-8"?>
<!-- Generator: visioncortex VTracer 0.6.5 -->
<svg version="1.1" xmlns="http://www.w3.org/2000/svg" width="100" height="100">
<path d="M0,0 L9,1 L20,1 L19,7 L30,7 L31,11 L29,12 L28,16 L33,17 L33,21 L22,21 L22,23 L14,23 L17,26 L17,29 L14,28 L14,26 L12,26 L11,30 L9,30 L9,34 L7,35 L12,39 L15,44 L17,45 L17,39 L14,38 L14,33 L18,33 L19,29 L20,27 L23,27 L23,24 L37,24 L40,27 L41,32 L45,33 L45,40 L43,40 L43,45 L41,46 L43,47 L43,56 L39,56 L39,59 L37,59 L37,62 L34,62 L34,65 L31,65 L31,70 L29,70 L28,73 L25,73 L25,76 L18,76 L17,73 L12,73 L12,76 L7,76 L6,72 L8,72 L9,69 L12,69 L12,67 L6,65 L6,67 L1,67 L2,63 L3,61 L9,61 L9,56 L11,56 L11,54 L8,53 L6,48 L2,47 L0,38 L-5,39 L-6,34 L-3,34 L-3,31 L-6,30 L-6,24 L-10,23 L-10,14 L-6,14 L-6,8 L-3,8 L-3,4 L0,4 Z M18,70 L20,72 L20,70 Z " fill="#020017" transform="translate(27,12)"/>
<path d="M0,0 L5,1 L6,4 L12,4 L11,8 L18,10 L19,11 L25,11 L26,17 L13,17 L13,20 L6,20 L6,23 L3,23 L3,26 L0,26 L0,29 L-4,28 L-5,24 L-10,23 L-10,14 L-6,14 L-6,8 L-3,8 L-3,4 L0,4 Z " fill="#2B0039" transform="translate(27,12)"/>
<path d="M0,0 L5,1 L6,2 L6,8 L9,8 L9,13 L6,13 L6,17 L3,17 L3,20 L-1,20 L-2,24 L-6,23 L-6,20 L-9,19 L-9,14 L-6,14 L-6,8 L-3,8 L-3,4 L0,4 Z " fill="#EF3CD9" transform="translate(27,12)"/>
<path d="M0,0 L1,0 L2,5 L4,6 L4,9 L8,9 L9,6 L13,6 L13,3 L16,3 L16,9 L13,9 L13,12 L10,12 L10,15 L6,14 L5,10 L0,9 Z " fill="#8C0081" transform="translate(17,26)"/>
<path d="M0,0 L3,4 L6,5 L6,2 L9,2 L9,9 L6,9 L6,11 L9,11 L9,13 L0,14 L0,10 L3,10 L3,7 L0,6 Z " fill="#0B0123" transform="translate(21,36)"/>
<path d="M0,0 L8,1 L8,3 L3,3 L3,9 L0,9 L0,7 L-3,7 L-3,3 L0,3 Z " fill="#A20292" transform="translate(36,22)"/>
<path d="M0,0 L2,0 L2,10 L0,10 L0,13 L-4,12 L-3,4 L-1,3 Z " fill="#FE9DFE" transform="translate(28,16)"/>
<path d="M0,0 L5,1 L6,2 L6,8 L3,8 L3,4 L1,4 L0,8 L-3,8 L-3,4 L0,4 Z " fill="#ED1CCD" transform="translate(27,12)"/>
<path d="M0,0 L4,0 L5,5 L3,12 L0,11 Z " fill="#FD65F0" transform="translate(21,20)"/>
<path d="M0,0 L7,0 L7,6 L0,6 Z " fill="#760071" transform="translate(50,50)"/>
<path d="M0,0 L9,0 L11,1 L11,6 L8,5 L9,2 L3,2 L3,6 L0,5 Z " fill="#17123A" transform="translate(55,60)"/>
<path d="M0,0 L11,0 L10,5 L7,5 L4,6 L4,2 L-2,2 Z " fill="#000016" transform="translate(36,13)"/>
<path d="M0,0 L3,0 L6,3 L7,11 L5,11 L2,5 L0,4 Z " fill="#27001D" transform="translate(45,57)"/>
<path d="M0,0 L6,0 L5,4 L11,6 L7,7 L3,6 L3,4 L0,4 Z " fill="#6C006B" transform="translate(33,16)"/>
<path d="M0,0 L3,0 L4,5 L8,6 L7,10 L3,9 L3,6 L0,5 Z " fill="#E007BE" transform="translate(18,26)"/>
<path d="M0,0 L6,0 L5,6 L0,5 Z " fill="#090423" transform="translate(58,62)"/>
<path d="M0,0 L7,1 L8,4 L10,4 L11,2 L12,5 L11,8 L5,6 L6,2 L0,2 Z " fill="#210032" transform="translate(33,14)"/>
<path d="M0,0 L5,0 L5,6 L0,6 Z " fill="#AC0297" transform="translate(61,50)"/>
<path d="M0,0 L3,4 L6,5 L6,2 L9,2 L9,8 L7,8 L7,6 L0,6 Z " fill="#290038" transform="translate(21,36)"/>
<path d="M0,0 L10,0 L10,6 L8,7 L7,1 L1,1 L0,4 Z " fill="#14002A" transform="translate(45,22)"/>
<path d="M0,0 L5,0 L1,1 L1,7 L-6,7 L-6,4 L-3,4 L-3,6 L0,6 Z " fill="#600062" transform="translate(39,25)"/>
<path d="M0,0 L4,1 L-1,4 L-5,4 L-5,1 Z " fill="#120128" transform="translate(45,28)"/>
<path d="M0,0 L5,0 L5,4 L0,4 Z " fill="#DD0DBD" transform="translate(52,51)"/>
<path d="M0,0 L4,1 L4,5 L0,5 Z " fill="#7E0076" transform="translate(49,24)"/>
<path d="M0,0 L2,0 L2,2 L5,2 L5,5 L1,4 Z " fill="#6A0069" transform="translate(22,36)"/>
<path d="M0,0 L6,0 L6,3 L0,3 Z " fill="#1F0031" transform="translate(33,32)"/>
<path d="M0,0 L3,0 L3,5 L0,6 Z " fill="#E914C8" transform="translate(21,20)"/>
<path d="M0,0 L3,0 L3,5 L0,5 Z " fill="#9E018F" transform="translate(30,29)"/>
<path d="M0,0 L3,0 L3,5 L0,5 Z " fill="#E605C1" transform="translate(33,20)"/>
<path d="M0,0 L3,0 L3,5 L0,5 Z " fill="#FD51E8" transform="translate(30,20)"/>
<path d="M0,0 L2,0 L2,6 L-1,5 Z " fill="#FE85FA" transform="translate(28,16)"/>
<path d="M0,0 L5,1 L5,3 L0,3 Z " fill="#BA01A2" transform="translate(27,12)"/>
<path d="M0,0 L3,0 L3,4 L0,4 Z " fill="#C70CAE" transform="translate(24,16)"/>
<path d="M0,0 L3,0 L3,2 L6,3 L1,3 Z " fill="#6E006C" transform="translate(27,32)"/>
<path d="M0,0 L3,1 L3,4 L0,4 Z " fill="#8B0081" transform="translate(27,34)"/>
<path d="M0,0 L3,0 L3,4 L1,4 Z " fill="#EB2ACF" transform="translate(30,25)"/>
<path d="M0,0 L3,1 L3,3 L0,3 Z " fill="#FA5EEC" transform="translate(28,26)"/>
<path d="M0,0 L3,0 L2,3 L0,3 Z " fill="#C101A6" transform="translate(21,20)"/>
<path d="M0,0 L2,0 L2,3 L-2,1 Z " fill="#2D003B" transform="translate(42,19)"/>
<path d="M0,0 Z " fill="#020018" transform="translate(71,53)"/>
</svg>
