<?xml version="1.0" encoding="UTF-8"?>
<!-- Generator: visioncortex VTracer 0.6.5 -->
<svg version="1.1" xmlns="http://www.w3.org/2000/svg" width="240" height="240">
<path d="M0,0 L38,0 L45,3 L51,4 L51,6 L56,7 L56,9 L60,9 L60,11 L65,12 L69,16 L69,18 L71,18 L73,23 L73,29 L71,29 L70,34 L63,41 L62,43 L61,54 L59,54 L59,59 L61,59 L61,67 L58,70 L55,75 L54,82 L59,82 L59,86 L64,86 L65,89 L69,90 L69,92 L95,92 L95,76 L147,76 L147,143 L133,143 L136,149 L134,154 L130,166 L131,175 L135,187 L135,195 L132,200 L147,200 L147,220 L145,221 L144,233 L-93,233 L-93,107 L-88,107 L-88,97 L-80,97 L-79,94 L-69,94 L-69,92 L-47,91 L-42,88 L-40,88 L-40,86 L-36,85 L-35,82 L-25,82 L-25,80 L-14,79 L-15,75 L-19,74 L-19,72 L-21,72 L-23,67 L-23,61 L-25,61 L-26,59 L-26,44 L-22,42 L-22,39 L-24,38 L-24,36 L-27,35 L-27,33 L-29,33 L-29,29 L-31,29 L-31,18 L-29,18 L-27,14 L-24,11 L-20,11 L-20,9 L-11,6 L-9,6 L-9,4 L0,2 Z M98,79 L98,80 L146,80 L146,79 Z " fill="#0F090D" transform="translate(93,7)"/>
<path d="M0,0 L48,0 L48,58 L27,58 L23,53 L20,52 L20,49 L0,49 Z " fill="#DCA192" transform="translate(191,87)"/>
<path d="M0,0 L137,0 L137,14 L0,14 L-1,13 L-1,1 Z " fill="#211710" transform="translate(103,210)"/>
<path d="M0,0 L11,0 L11,3 L13,3 L13,6 L11,6 L11,9 L2,9 L3,12 L1,15 L9,15 L9,13 L15,12 L18,13 L18,11 L20,11 L21,6 L30,6 L34,9 L34,13 L36,13 L36,15 L43,14 L43,12 L49,11 L49,5 L51,4 L52,11 L54,11 L54,18 L52,18 L52,20 L45,20 L45,22 L42,22 L41,25 L41,22 L39,22 L39,20 L36,20 L36,18 L34,18 L34,24 L32,24 L31,29 L29,29 L29,31 L27,31 L27,27 L25,27 L25,32 L20,32 L20,36 L23,36 L23,34 L25,34 L25,38 L23,38 L23,40 L18,40 L18,32 L16,32 L16,40 L13,40 L13,38 L11,38 L11,36 L13,36 L14,31 L15,29 L13,29 L13,27 L11,27 L10,32 L9,36 L7,36 L7,40 L5,40 L6,31 L7,29 L9,29 L9,24 L13,23 L13,18 L9,18 L9,20 L7,20 L7,25 L5,25 L4,28 L2,27 L1,22 L-4,21 L-5,18 L-11,17 L-13,16 L-15,10 L-13,4 L-6,3 L-2,4 L-2,6 L0,6 Z " fill="#1A1C24" transform="translate(96,57)"/>
<path d="M0,0 L10,0 L10,13 L12,13 L14,16 L15,20 L17,22 L13,28 L15,29 L14,36 L10,39 L1,39 L1,44 L6,44 L5,47 L1,49 L-4,48 L-3,40 L-4,35 L-4,32 L-6,32 L-6,30 L-9,30 L-9,22 L-6,22 L-6,19 L-3,19 L-4,10 L0,10 Z " fill="#14101A" transform="translate(24,127)"/>
<path d="M0,0 L1,3 L-1,3 L1,12 L2,13 L2,19 L4,19 L4,24 L6,24 L7,37 L5,39 L-2,38 L-4,33 L-6,33 L-9,27 L-10,24 L-13,24 L-15,19 L-17,19 L-19,12 L-22,12 L-23,7 L-15,6 L-10,12 L-7,15 L-7,10 L-9,10 L-10,4 L-6,2 Z " fill="#21090A" transform="translate(72,92)"/>
<path d="M0,0 L11,0 L11,3 L13,3 L13,6 L11,6 L11,9 L2,9 L3,12 L1,15 L9,15 L9,13 L15,12 L18,13 L18,11 L20,11 L20,15 L18,15 L18,22 L20,22 L20,25 L18,25 L18,31 L16,31 L16,25 L11,26 L13,18 L9,18 L9,20 L7,20 L7,25 L5,25 L4,28 L2,27 L1,22 L-4,21 L-5,18 L-11,17 L-13,16 L-15,10 L-13,4 L-6,3 L-2,4 L-2,6 L0,6 Z " fill="#171921" transform="translate(96,57)"/>
<path d="M0,0 L2,0 L2,5 L4,5 L4,2 L11,2 L11,4 L13,4 L13,2 L16,2 L15,9 L13,9 L13,11 L17,9 L24,9 L24,19 L20,20 L20,16 L18,16 L18,24 L17,25 L8,25 L8,23 L0,23 L-7,19 L-9,17 L-8,9 L-3,9 L-1,13 L1,13 L1,11 L4,11 L4,9 L2,9 L-1,4 Z " fill="#19161C" transform="translate(110,100)"/>
<path d="M0,0 L136,0 L136,3 L86,4 L6,4 L0,2 Z " fill="#332015" transform="translate(104,210)"/>
<path d="M0,0 L52,0 L52,63 L27,64 L18,63 L13,60 L7,60 L3,60 L3,56 L4,55 L22,55 L23,53 L23,56 L27,57 L30,60 L30,62 L51,62 L51,3 L3,3 L3,17 L0,17 Z M27,62 Z " fill="#140C0D" transform="translate(188,83)"/>
<path d="M0,0 L2,0 L2,8 L-2,14 L-4,24 L-7,30 L-10,36 L-12,43 L-14,43 L-14,37 L-16,37 L-16,23 L-18,23 L-18,18 L-21,18 L-22,13 L-20,13 L-20,7 L-18,7 L-18,9 L-15,9 L-15,11 L-9,11 L-9,9 L-2,9 L-2,7 L0,7 Z " fill="#120C13" transform="translate(150,68)"/>
<path d="M0,0 L25,0 L25,15 L1,16 L0,14 Z " fill="#2E2015" transform="translate(109,188)"/>
<path d="M0,0 L37,0 L37,9 L0,9 Z " fill="#76554D" transform="translate(197,113)"/>
<path d="M0,0 L43,1 L44,2 L44,7 L43,8 L-2,8 L-1,1 Z " fill="#2B1D13" transform="translate(4,232)"/>
<path d="M0,0 L5,0 L6,1 L25,2 L29,3 L30,9 L-13,9 L-13,2 L-9,1 Z " fill="#1F150E" transform="translate(204,231)"/>
<path d="M0,0 L4,3 L8,10 L10,11 L11,24 L9,26 L2,25 L0,20 L-2,20 L-5,14 L-9,8 L-10,2 L-6,3 L-6,6 L-2,6 L-2,11 L0,11 L0,13 L2,13 L2,17 L4,17 L4,11 L2,11 L2,6 L0,6 Z " fill="#24090A" transform="translate(68,105)"/>
<path d="M0,0 L4,0 L6,6 L7,10 L11,10 L11,14 L22,13 L20,17 L18,17 L18,22 L16,22 L15,25 L13,24 L12,19 L7,18 L6,15 L0,14 L-2,13 L-4,7 L-2,1 Z " fill="#212A32" transform="translate(85,60)"/>
<path d="M0,0 L1,0 L1,29 L-24,30 L-33,29 L-38,26 L-44,26 L-48,26 L-48,22 L-47,21 L-29,21 L-28,19 L-28,22 L-24,23 L-21,26 L-21,28 L0,28 Z M-24,28 Z " fill="#4E3E40" transform="translate(239,117)"/>
<path d="M0,0 L2,0 L4,3 L9,3 L10,9 L14,7 L14,2 L16,2 L16,0 L20,0 L20,5 L16,6 L16,11 L14,11 L12,22 L14,22 L14,30 L11,36 L10,36 L10,30 L12,23 L9,23 L9,29 L6,29 L7,19 L5,9 L2,4 L0,3 Z " fill="#15121B" transform="translate(89,75)"/>
<path d="M0,0 L6,0 L8,3 L8,7 L12,8 L25,9 L24,14 L0,14 Z " fill="#1E140F" transform="translate(0,210)"/>
<path d="M0,0 L3,0 L3,3 L6,2 L10,3 L10,0 L19,2 L18,6 L16,13 L14,13 L13,17 L10,17 L10,15 L7,15 L7,12 L5,12 L5,10 L3,10 L1,4 Z " fill="#15111A" transform="translate(87,126)"/>
<path d="M0,0 L20,0 L18,5 L16,6 L0,7 L-1,8 L-10,8 L-10,2 L0,2 Z " fill="#010001" transform="translate(24,99)"/>
<path d="M0,0 L21,0 L21,8 L0,8 Z " fill="#6F5049" transform="translate(197,97)"/>
<path d="M0,0 L2,1 L2,2 L5,2 L5,8 L7,8 L7,2 L9,2 L11,8 L14,9 L9,9 L9,13 L12,13 L12,11 L14,11 L14,15 L12,15 L12,17 L7,17 L7,9 L5,9 L5,17 L2,17 L2,15 L0,15 L0,13 L2,13 L3,8 L4,6 L2,6 L2,4 L0,4 L-1,9 L-2,13 L-4,13 L-4,17 L-6,17 L-5,8 L-4,6 L-2,6 L-2,1 Z " fill="#1C181A" transform="translate(107,80)"/>
<path d="M0,0 L5,0 L5,2 L7,2 L7,7 L9,7 L9,13 L7,13 L7,15 L5,15 L5,9 L3,9 L3,14 L1,14 L1,16 L-2,16 L-2,13 L-4,13 L-4,6 L-2,6 L-2,2 L0,2 Z " fill="#100C10" transform="translate(118,66)"/>
<path d="M0,0 L43,1 L44,2 L44,7 L42,8 L40,4 L37,3 L24,3 L5,4 L5,6 L8,7 L5,8 L-2,8 L-1,1 Z " fill="#1F150F" transform="translate(4,232)"/>
<path d="M0,0 L2,0 L2,5 L4,5 L4,2 L11,2 L11,4 L13,4 L13,2 L16,2 L15,9 L11,9 L12,13 L6,13 L5,15 L4,14 L4,9 L2,9 L-1,4 Z " fill="#170A0A" transform="translate(110,100)"/>
<path d="M0,0 L16,1 L22,3 L22,6 L-8,6 L-8,5 L-2,5 L-2,1 Z " fill="#2C1E14" transform="translate(206,234)"/>
<path d="M0,0 L2,0 L2,2 L5,2 L5,4 L11,4 L11,2 L17,2 L15,6 L12,7 L9,5 L9,9 L6,9 L6,16 L4,17 L2,16 L2,11 L-1,11 L-2,6 L0,6 Z " fill="#17161E" transform="translate(130,75)"/>
<path d="M0,0 L24,0 L26,1 L26,5 L2,4 L-1,1 Z " fill="#010001" transform="translate(164,99)"/>
<path d="M0,0 L4,0 L4,2 L6,2 L8,5 L8,11 L6,11 L6,14 L3,16 L0,16 Z " fill="#100A11" transform="translate(70,52)"/>
<path d="M0,0 L2,0 L2,8 L0,8 L-1,13 L-3,13 L-3,15 L-5,15 L-5,11 L-7,11 L-7,15 L-10,15 L-12,12 L-12,9 L-9,9 L-9,7 L-7,7 L-7,2 L-5,2 L-5,8 L-1,6 Z " fill="#212A30" transform="translate(128,73)"/>
<path d="M0,0 L4,0 L9,0 L9,8 L4,9 L0,9 L0,5 L-2,5 L-2,1 Z " fill="#20232A" transform="translate(112,113)"/>
<path d="M0,0 L5,1 L10,5 L17,6 L17,12 L10,10 L5,7 L5,5 L3,5 L3,3 L0,2 Z " fill="#130E18" transform="translate(61,136)"/>
<path d="M0,0 L4,1 L4,4 L8,4 L8,9 L10,9 L10,11 L12,11 L11,16 L6,13 L1,6 Z " fill="#3C0E0E" transform="translate(58,107)"/>
<path d="M0,0 L2,0 L2,4 L0,4 L0,11 L2,11 L2,14 L0,14 L0,20 L-2,20 L-2,14 L-7,15 L-5,7 L-3,6 L-2,2 L0,2 Z " fill="#2C3F49" transform="translate(114,68)"/>
<path d="M0,0 L9,0 L11,3 L11,6 L9,6 L9,8 L2,8 L2,6 L0,6 Z " fill="#212E35" transform="translate(130,57)"/>
<path d="M0,0 L9,0 L9,5 L2,5 L1,8 L-6,8 L-6,6 L-1,1 Z " fill="#14111A" transform="translate(156,166)"/>
<path d="M0,0 L2,2 L1,7 L-5,7 L-5,9 L-8,9 L-9,12 L-9,9 L-11,9 L-12,5 L-6,4 L-5,2 Z " fill="#293741" transform="translate(146,70)"/>
<path d="M0,0 L6,0 L4,4 L0,4 L-1,7 L-8,11 L-11,11 L-9,6 L-7,6 L-7,4 L-2,2 Z " fill="#16131C" transform="translate(78,16)"/>
<path d="M0,0 L20,0 L21,3 L0,3 Z " fill="#3B2D1E" transform="translate(111,200)"/>
<path d="M0,0 L7,0 L11,1 L11,4 L9,4 L9,6 L0,6 L-1,1 Z " fill="#518797" transform="translate(98,59)"/>
<path d="M0,0 L4,3 L8,10 L8,16 L4,15 L4,11 L2,11 L2,6 L0,6 Z " fill="#380D0D" transform="translate(68,105)"/>
<path d="M0,0 L2,0 L4,6 L5,10 L7,10 L8,14 L5,15 L1,10 L-2,10 L-2,6 L0,6 Z " fill="#2B3A43" transform="translate(87,60)"/>
<path d="M0,0 L5,0 L6,6 L0,6 L-1,11 L-3,11 L-3,4 L0,4 Z " fill="#181921" transform="translate(117,57)"/>
<path d="M0,0 L3,1 L3,4 L-2,8 L-5,11 L-9,12 L-10,9 L-6,8 L-3,2 Z " fill="#120E18" transform="translate(137,121)"/>
<path d="M0,0 L2,0 L2,6 L0,6 L0,11 L2,11 L2,14 L-2,13 L-4,7 L-2,1 Z " fill="#191B24" transform="translate(85,60)"/>
<path d="M0,0 L10,1 L10,3 L-4,4 L-10,4 L-10,2 Z " fill="#101017" transform="translate(104,46)"/>
<path d="M0,0 L12,0 L13,5 L0,3 Z " fill="#292E38" transform="translate(193,139)"/>
<path d="M0,0 L8,0 L10,4 L10,9 L8,9 L8,5 L6,5 L6,3 L1,3 L1,5 L-1,5 Z " fill="#2E404B" transform="translate(117,63)"/>
<path d="M0,0 L2,0 L2,8 L0,8 L-1,13 L-3,13 L-3,15 L-5,15 L-5,9 L-1,6 Z " fill="#283741" transform="translate(128,73)"/>
<path d="M0,0 L1,0 L2,6 L4,7 L4,13 L2,13 L0,11 L0,7 L-2,7 L-2,9 L-5,9 L-5,5 L0,5 Z " fill="#1F1711" transform="translate(121,84)"/>
<path d="M0,0 L3,0 L3,2 L5,2 L5,0 L8,0 L7,7 L5,7 L5,5 L0,5 Z " fill="#292016" transform="translate(118,102)"/>
<path d="M0,0 L7,0 L10,2 L10,4 L-1,4 Z " fill="#130E19" transform="translate(98,167)"/>
<path d="M0,0 L2,0 L2,5 L4,5 L4,2 L7,2 L7,7 L4,7 L4,9 L2,9 L-1,4 Z " fill="#221814" transform="translate(110,100)"/>
<path d="M0,0 L1,0 L2,5 L7,4 L7,7 L5,7 L5,13 L3,13 L3,7 L-2,8 Z " fill="#252F38" transform="translate(109,75)"/>
<path d="M0,0 L4,0 L4,2 L6,2 L8,5 L8,11 L6,11 L6,7 L4,7 L4,5 L2,5 L2,2 L0,2 Z " fill="#18161E" transform="translate(70,52)"/>
<path d="M0,0 L3,1 L-4,4 L-5,7 L-12,7 L-8,3 Z M-13,7 Z " fill="#141018" transform="translate(98,8)"/>
<path d="M0,0 L3,0 L2,6 L-4,6 L-4,2 Z " fill="#232E33" transform="translate(118,114)"/>
<path d="M0,0 L2,0 L4,5 L4,11 L2,11 L2,7 L-1,7 L-2,2 L0,2 Z " fill="#1F242B" transform="translate(130,79)"/>
<path d="M0,0 L18,0 L18,1 L1,1 L1,4 L3,5 L-1,5 L-1,1 Z " fill="#17151D" transform="translate(192,138)"/>
<path d="M0,0 L2,0 L2,2 L5,2 L5,0 L7,0 L7,4 L5,4 L5,6 L0,6 Z " fill="#393323" transform="translate(114,91)"/>
<path d="M0,0 L4,0 L4,4 L9,4 L8,7 L-1,4 Z " fill="#020101" transform="translate(148,89)"/>
<path d="M0,0 L11,0 L11,3 L2,3 L2,6 L0,6 Z " fill="#273A46" transform="translate(96,57)"/>
<path d="M0,0 L2,0 L2,7 L0,7 L0,11 L-2,11 L-1,2 Z " fill="#222B30" transform="translate(103,86)"/>
<path d="M0,0 L2,0 L2,9 L0,9 L0,7 L-2,7 L-2,2 L0,2 Z " fill="#253136" transform="translate(125,111)"/>
<path d="M0,0 L7,0 L7,4 L0,4 Z " fill="#4E8292" transform="translate(132,61)"/>
<path d="M0,0 L3,0 L3,9 L0,9 Z " fill="#3F2E21" transform="translate(131,188)"/>
<path d="M0,0 L9,0 L9,2 L0,4 Z " fill="#010001" transform="translate(58,89)"/>
<path d="M0,0 L4,1 L-1,7 L-3,5 L-2,1 Z " fill="#242E36" transform="translate(103,73)"/>
<path d="M0,0 L1,3 L4,4 L3,8 L3,6 L-1,6 L-1,2 L-3,1 Z " fill="#212A31" transform="translate(88,69)"/>
<path d="M0,0 L3,0 L3,6 L0,6 L0,4 L-2,4 L-2,2 L0,2 Z " fill="#2B2118" transform="translate(109,91)"/>
<path d="M0,0 L2,1 L3,2 L3,4 L0,4 L-1,9 L-2,9 L-2,1 Z " fill="#1D1F26" transform="translate(107,80)"/>
<path d="M0,0 L8,0 L8,2 L1,3 L1,5 L-1,5 Z " fill="#26343D" transform="translate(117,63)"/>
<path d="M0,0 L5,0 L6,4 L0,4 Z " fill="#131119" transform="translate(117,57)"/>
<path d="M0,0 L4,2 L7,3 L7,5 L3,6 L0,2 Z " fill="#130E19" transform="translate(54,142)"/>
<path d="M0,0 L8,0 L9,4 L7,4 L7,2 L0,2 Z " fill="#36535F" transform="translate(132,59)"/>
<path d="M0,0 L3,0 L2,4 L4,4 L4,9 L2,8 L0,4 Z " fill="#1C1E27" transform="translate(103,109)"/>
<path d="M0,0 L2,0 L2,2 L4,2 L5,6 L2,7 L0,4 Z " fill="#304550" transform="translate(90,68)"/>
<path d="M0,0 L3,1 L2,4 L4,4 L3,7 L0,7 Z " fill="#15101A" transform="translate(70,61)"/>
<path d="M0,0 L4,0 L5,6 L0,3 Z " fill="#130F19" transform="translate(87,116)"/>
<path d="M0,0 L9,0 L8,2 L2,2 L2,4 L0,4 Z " fill="#202731" transform="translate(132,73)"/>
<path d="M0,0 L6,0 L6,3 L0,3 Z " fill="#2C1D13" transform="translate(0,210)"/>
<path d="M0,0 L1,2 L5,2 L5,7 L1,5 Z " fill="#1E232C" transform="translate(134,77)"/>
<path d="M0,0 L2,0 L2,2 L4,2 L4,7 L2,7 L2,4 L0,4 Z " fill="#131119" transform="translate(130,75)"/>
<path d="M0,0 L1,4 L3,5 L1,5 L1,11 L0,11 L0,5 L-2,4 L0,4 Z M-2,11 L0,12 L-2,13 Z " fill="#1F272F" transform="translate(127,68)"/>
<path d="M0,0 L3,3 L3,5 L-3,5 L-2,2 L0,2 Z " fill="#120D18" transform="translate(120,143)"/>
<path d="M0,0 L1,0 L1,7 L-1,7 L-2,9 L-1,2 Z " fill="#1B2028" transform="translate(149,68)"/>
<path d="M0,0 L1,0 L1,7 L-2,8 L-3,4 L-1,4 Z " fill="#2D0B0C" transform="translate(76,116)"/>
<path d="M0,0 L2,0 L1,6 L-3,4 L-3,2 L-1,2 Z " fill="#110E18" transform="translate(42,112)"/>
<path d="M0,0 L1,2 L3,2 L3,8 L0,5 Z " fill="#1B212A" transform="translate(89,60)"/>
<path d="M0,0 L2,0 L2,5 L-2,4 L-2,2 L0,2 Z " fill="#22282E" transform="translate(125,111)"/>
<path d="M0,0 L3,0 L3,5 L0,4 Z " fill="#1F1613" transform="translate(127,100)"/>
<path d="M0,0 L2,2 L1,7 L-1,7 L-1,1 Z " fill="#243138" transform="translate(146,70)"/>
<path d="M0,0 L2,0 L2,4 L-2,5 L-2,2 L0,2 Z " fill="#27333D" transform="translate(114,68)"/>
<path d="M0,0 L6,0 L6,3 L0,2 Z " fill="#2B4552" transform="translate(101,57)"/>
<path d="M0,0 L4,0 L5,3 L0,3 Z " fill="#121117" transform="translate(85,57)"/>
<path d="M0,0 L1,0 L1,6 L-2,6 L-2,3 L0,3 Z " fill="#2D2529" transform="translate(210,136)"/>
<path d="M0,0 L3,0 L3,4 L0,4 Z " fill="#2A3A43" transform="translate(118,84)"/>
<path d="M0,0 L2,0 L3,3 L-1,4 Z " fill="#221A1B" transform="translate(216,143)"/>
<path d="M0,0 L4,1 L4,3 L0,2 Z " fill="#1C1215" transform="translate(211,139)"/>
<path d="M0,0 L3,0 L3,3 L0,4 Z " fill="#352C20" transform="translate(118,102)"/>
<path d="M0,0 L2,0 L2,4 L-1,4 Z " fill="#19161D" transform="translate(110,82)"/>
<path d="M0,0 L2,0 L3,4 L0,4 Z " fill="#364F5B" transform="translate(90,68)"/>
<path d="M0,0 L4,1 L3,3 L0,2 Z " fill="#130E19" transform="translate(45,134)"/>
</svg>
