<?xml version="1.0" encoding="UTF-8"?>
<!-- Generator: visioncortex VTracer 0.6.5 -->
<svg version="1.1" xmlns="http://www.w3.org/2000/svg" width="150" height="85">
<path d="M0,0 L150,0 L150,85 L0,85 Z " fill="#0C0C10" transform="translate(0,0)"/>
<path d="M0,0 L4,1 L13,1 L19,2 L23,5 L32,11 L36,14 L34,18 L32,16 L35,23 L39,21 L39,24 L42,25 L42,37 L39,38 L33,45 L25,46 L23,50 L20,53 L10,55 L4,55 L3,53 L-10,53 L-17,56 L-18,58 L-26,58 L-27,56 L-27,41 L-34,36 L-41,35 L-42,30 L-44,30 L-44,28 L-38,25 L-37,23 L-32,23 L-31,17 L-30,15 L-28,15 L-28,7 L-26,6 L-11,5 L-7,1 Z M34,24 L34,28 L36,28 Z " fill="#625555" transform="translate(78,15)"/>
<path d="M0,0 L7,0 L10,2 L22,3 L23,5 L30,9 L32,13 L30,18 L27,21 L24,22 L15,22 L15,18 L11,18 L11,25 L13,25 L12,32 L9,32 L9,35 L12,36 L9,36 L9,39 L35,40 L44,39 L48,37 L47,40 L44,43 L34,45 L28,45 L27,43 L14,43 L7,46 L6,48 L-2,48 L-3,46 L-3,30 L3,31 L3,26 L6,26 L5,17 L2,17 L-1,9 L-1,2 Z M10,1 Z " fill="#443131" transform="translate(54,25)"/>
<path d="M0,0 L4,1 L13,1 L19,2 L23,5 L32,11 L36,14 L34,18 L32,16 L35,23 L39,21 L39,24 L42,25 L42,37 L39,38 L33,45 L29,44 L34,40 L34,34 L28,23 L27,22 L26,14 L21,12 L21,23 L14,23 L13,20 L11,19 L16,20 L20,22 L17,19 L13,16 L14,12 L15,9 L12,8 L12,6 L5,8 L4,6 L5,4 L-5,4 L-6,1 Z M34,24 L34,28 L36,28 Z M11,8 Z M10,9 Z " fill="#605254" transform="translate(78,15)"/>
<path d="M0,0 L1,3 L4,3 L4,5 L6,5 L6,7 L3,7 L3,10 L6,11 L3,11 L3,14 L29,15 L38,14 L42,12 L41,15 L38,18 L28,20 L22,20 L21,18 L8,18 L1,21 L0,23 L-8,23 L-9,21 L-9,5 L-3,6 L-3,1 Z " fill="#3C3439" transform="translate(60,50)"/>
<path d="M0,0 L5,0 L3,4 L0,7 L-17,8 L-17,16 L-19,16 L-21,24 L-26,25 L-26,27 L-33,29 L-33,31 L-31,31 L-32,35 L-32,32 L-38,32 L-39,28 L-33,26 L-31,20 L-34,20 L-34,16 L-31,16 L-29,13 L-29,16 L-27,16 L-25,19 L-24,17 L-22,17 L-22,8 L-21,6 L-9,5 L-8,3 L-6,3 L-6,1 L-1,1 Z " fill="#383334" transform="translate(67,14)"/>
<path d="M0,0 L4,1 L13,1 L19,2 L23,5 L32,11 L36,14 L34,18 L32,16 L35,24 L33,28 L30,22 L27,12 L15,11 L14,8 L12,8 L12,6 L5,8 L4,6 L5,4 L-5,4 L-6,1 Z M11,8 Z M10,9 Z " fill="#443D3E" transform="translate(78,15)"/>
<path d="M0,0 L17,0 L17,3 L26,4 L34,10 L33,25 L32,25 L32,17 L26,17 L26,22 L24,23 L24,16 L18,16 L18,10 L19,7 L21,7 L21,5 L18,5 L16,7 L15,3 L1,2 Z M31,25 Z " fill="#201D23" transform="translate(18,46)"/>
<path d="M0,0 L7,0 L12,5 L12,11 L17,9 L21,12 L20,13 L2,14 L-5,13 L-5,6 L-2,6 L-2,4 L0,4 Z " fill="#7C6E6E" transform="translate(68,51)"/>
<path d="M0,0 L5,0 L5,2 L7,2 L8,7 L13,12 L13,16 L10,16 L10,21 L3,19 L-3,14 L-6,9 L-6,7 L-1,8 L4,12 L8,13 L3,7 L-1,5 L3,5 L3,3 L0,3 Z " fill="#726A6C" transform="translate(47,35)"/>
<path d="M0,0 L1,3 L0,6 L3,6 L4,12 L8,14 L8,16 L3,15 L-2,11 L-6,10 L-3,14 L-3,17 L1,19 L4,23 L0,21 L-3,19 L-10,18 L-11,13 L-13,13 L-13,11 L-7,8 L-6,6 L-1,6 Z " fill="#5C4D4C" transform="translate(47,32)"/>
<path d="M0,0 L1,3 L4,3 L4,5 L6,5 L6,7 L3,7 L3,10 L6,11 L3,11 L3,14 L10,14 L14,16 L1,16 L-2,15 L-2,21 L-6,20 L-7,16 L-5,16 L-5,14 L-2,14 L-2,9 L-7,6 L-5,5 L-3,6 L-3,1 Z " fill="#605557" transform="translate(60,50)"/>
<path d="M0,0 L7,1 L10,3 L9,10 L5,13 L-2,13 L-3,11 L-3,1 Z " fill="#382420" transform="translate(73,32)"/>
<path d="M0,0 L4,1 L5,2 L6,10 L10,16 L13,22 L13,27 L10,28 L9,23 L6,21 L6,18 L3,19 L2,12 L0,10 Z " fill="#786A6A" transform="translate(100,27)"/>
<path d="M0,0 L4,1 L1,1 L-1,8 L-5,12 L-15,13 L-23,10 L-24,9 L-33,9 L-40,11 L-42,15 L-50,15 L-51,13 L-43,13 L-41,9 L-35,7 L-22,7 L-21,10 L-5,8 L-4,5 L-2,4 Z " fill="#211D23" transform="translate(103,60)"/>
<path d="M0,0 L4,3 L5,7 L-1,7 L-1,5 L-9,7 L-12,6 L-12,8 L-14,8 L-15,11 L-27,11 L-26,9 L-15,9 L-15,5 L-13,5 L-12,2 L-8,2 L-7,1 Z " fill="#1F1C20" transform="translate(73,9)"/>
<path d="M0,0 L5,0 L3,4 L0,7 L-17,8 L-17,16 L-19,16 L-21,20 L-19,7 L-18,6 L-9,5 L-8,3 L-6,3 L-6,1 L-1,1 Z " fill="#444143" transform="translate(67,14)"/>
<path d="M0,0 L3,0 L2,3 L5,4 L5,16 L2,17 L-4,24 L-8,23 L-2,18 L0,14 L2,14 L2,11 L-2,11 L-2,9 L4,9 L4,7 L-2,5 Z " fill="#4F4547" transform="translate(115,36)"/>
<path d="M0,0 L0,3 L-3,6 L-13,8 L-19,8 L-20,6 L-27,5 L-27,3 L-12,3 L-3,2 Z " fill="#312C33" transform="translate(101,62)"/>
<path d="M0,0 L9,0 L15,1 L19,4 L28,10 L32,13 L30,17 L26,11 L10,4 L6,2 L0,1 Z " fill="#292425" transform="translate(82,16)"/>
<path d="M0,0 L7,0 L10,2 L22,3 L22,5 L10,5 L5,2 L1,4 L2,10 L6,13 L6,15 L4,15 L4,17 L2,17 L-1,9 L-1,2 Z M10,1 Z " fill="#533E3C" transform="translate(54,25)"/>
<path d="M0,0 L6,1 L16,4 L19,12 L21,17 L19,21 L16,15 L13,5 L1,4 Z " fill="#4E4446" transform="translate(92,22)"/>
<path d="M0,0 L4,0 L4,4 L16,3 L17,0 L19,3 L19,6 L5,6 L1,5 L0,7 Z " fill="#574441" transform="translate(65,43)"/>
<path d="M0,0 L5,0 L5,2 L7,2 L8,7 L12,11 L9,14 L5,13 L8,13 L3,7 L-1,5 L3,5 L3,3 L0,3 Z " fill="#735C5B" transform="translate(47,35)"/>
<path d="M0,0 L5,0 L7,2 L11,3 L12,0 L14,1 L14,4 L10,4 L10,7 L5,6 Z " fill="#A39898" transform="translate(45,46)"/>
<path d="M0,0 L2,0 L2,5 L4,5 L5,8 L0,7 L0,13 L-4,12 L-5,8 L-3,8 L-3,6 L0,6 Z " fill="#464349" transform="translate(58,58)"/>
<path d="M0,0 L3,1 L2,6 L-1,6 L-1,8 L-3,8 L-1,12 L2,14 L-3,14 L-4,12 L-4,2 Z " fill="#3B3840" transform="translate(56,58)"/>
<path d="M0,0 L9,0 L9,1 L-5,4 L-7,8 L-15,8 L-16,6 L-8,6 L-6,2 Z " fill="#1C1316" transform="translate(68,67)"/>
<path d="M0,0 L1,3 L4,3 L4,5 L6,6 L-1,6 L-1,8 L-6,7 L-7,5 L-3,6 L-3,1 Z " fill="#5A4E4F" transform="translate(60,50)"/>
<path d="M0,0 L18,1 L14,5 L11,3 L2,3 L2,7 L0,7 Z " fill="#63514F" transform="translate(66,48)"/>
<path d="M0,0 L23,0 L23,2 L10,4 L8,2 L0,1 Z " fill="#433F45" transform="translate(74,65)"/>
<path d="M0,0 L5,2 L4,6 L3,7 L-2,7 L-3,1 Z " fill="#402826" transform="translate(57,28)"/>
<path d="M0,0 L5,0 L5,2 L0,2 L-2,6 L-9,6 L-8,3 L-6,3 L-6,1 L-1,1 Z " fill="#443636" transform="translate(67,14)"/>
<path d="M0,0 L3,0 L3,11 L5,11 L5,13 L2,12 L0,14 Z " fill="#151518" transform="translate(59,0)"/>
<path d="M0,0 L1,2 L3,2 L3,4 L1,4 L1,6 L4,6 L4,9 L-3,9 L-3,2 L0,2 Z " fill="#72686A" transform="translate(66,55)"/>
<path d="M0,0 L4,2 L6,5 L1,5 L2,17 L9,16 L9,18 L1,18 L0,16 Z " fill="#2D282D" transform="translate(51,55)"/>
<path d="M0,0 L17,0 L18,4 L16,7 L15,3 L1,2 Z " fill="#1D1318" transform="translate(18,46)"/>
<path d="M0,0 L5,1 L14,5 L19,9 L17,13 L13,7 L0,1 Z " fill="#332E30" transform="translate(95,20)"/>
<path d="M0,0 L2,4 L0,12 L-1,14 L-3,13 L-1,7 L-4,7 L-4,3 L-1,3 Z " fill="#2D2728" transform="translate(37,27)"/>
<path d="M0,0 L14,0 L13,2 L11,2 L10,5 L4,4 L5,2 L0,1 Z " fill="#584B4D" transform="translate(52,21)"/>
<path d="M0,0 L5,0 L5,2 L3,2 L3,4 L5,4 L4,8 L4,5 L-2,5 L-3,1 Z " fill="#372C30" transform="translate(31,41)"/>
<path d="M0,0 L4,0 L4,6 L-1,7 L-1,1 Z " fill="#877B7D" transform="translate(71,58)"/>
<path d="M0,0 L15,0 L15,2 L3,3 L0,2 Z " fill="#1A1C24" transform="translate(124,42)"/>
<path d="M0,0 L2,0 L1,3 L-6,6 L-11,7 L-10,4 L-6,4 L-5,1 L-1,1 Z " fill="#705F5C" transform="translate(108,56)"/>
<path d="M0,0 L8,0 L6,3 L4,3 L3,7 L1,7 Z " fill="#655F60" transform="translate(50,22)"/>
<path d="M0,0 L2,1 L3,5 L-3,5 L-3,3 L-9,4 L-10,2 L-4,1 Z " fill="#2F2224" transform="translate(75,11)"/>
<path d="M0,0 L10,2 L10,3 L-5,4 L-6,1 Z " fill="#423636" transform="translate(78,15)"/>
<path d="M0,0 L4,2 L11,8 L8,8 L4,5 L-3,4 L0,3 Z " fill="#423838" transform="translate(40,46)"/>
<path d="M0,0 L0,3 L-7,5 L-13,4 L-9,2 L-1,1 Z " fill="#16151D" transform="translate(99,68)"/>
<path d="M0,0 L3,0 L2,7 L0,7 L0,9 L-2,9 L-2,2 L0,2 Z " fill="#261E23" transform="translate(39,51)"/>
<path d="M0,0 L4,0 L4,2 L8,4 L8,6 L3,5 L0,3 Z " fill="#574646" transform="translate(47,42)"/>
<path d="M0,0 L4,4 L3,6 L0,4 L0,7 L-4,7 L-3,3 Z " fill="#67534F" transform="translate(40,42)"/>
<path d="M0,0 L1,3 L-2,4 L-8,11 L-12,10 L-6,5 L-3,2 L0,2 Z " fill="#3B2C2D" transform="translate(119,49)"/>
<path d="M0,0 L5,2 L4,4 L-5,4 L-6,2 Z " fill="#847675" transform="translate(84,60)"/>
<path d="M0,0 L4,1 L7,4 L4,7 L0,6 L3,6 L0,2 Z " fill="#846E6E" transform="translate(52,42)"/>
<path d="M0,0 L3,4 L6,6 L1,7 L-2,9 L-1,1 Z M-3,9 Z " fill="#3F3031" transform="translate(39,30)"/>
<path d="M0,0 L2,1 L1,3 L3,5 L0,5 L-2,7 L-6,6 L-1,1 Z M0,6 Z " fill="#26191A" transform="translate(117,52)"/>
<path d="M0,0 L1,4 L-2,4 L-2,9 L-7,7 L-4,6 L-4,3 L0,3 Z " fill="#7D6F6F" transform="translate(59,47)"/>
<path d="M0,0 L2,0 L2,8 L-1,8 L-1,1 Z " fill="#7F696B" transform="translate(101,29)"/>
<path d="M0,0 L2,1 L1,4 L-8,3 L-7,1 Z " fill="#211819" transform="translate(73,9)"/>
<path d="M0,0 L3,0 L2,3 L5,4 L5,6 L-2,5 Z " fill="#3D3537" transform="translate(115,36)"/>
<path d="M0,0 L5,1 L2,4 L-3,5 L-2,2 L0,2 Z " fill="#352E30" transform="translate(61,15)"/>
<path d="M0,0 L4,1 L-1,5 L-3,4 L-3,2 Z " fill="#594643" transform="translate(37,41)"/>
<path d="M0,0 L8,0 L6,2 L0,4 Z " fill="#302527" transform="translate(60,67)"/>
<path d="M0,0 L9,0 L9,2 L4,4 L3,2 Z " fill="#71615E" transform="translate(76,54)"/>
<path d="M0,0 L5,1 L8,4 L3,4 L2,1 Z " fill="#584344" transform="translate(89,34)"/>
<path d="M0,0 L5,1 L4,4 L0,3 Z " fill="#371C1A" transform="translate(55,30)"/>
<path d="M0,0 L2,1 L2,6 L-1,7 Z " fill="#756767" transform="translate(111,48)"/>
<path d="M0,0 L2,1 L2,3 L0,3 L-1,5 L-2,3 L-6,1 Z " fill="#7D6867" transform="translate(52,39)"/>
<path d="M0,0 L3,1 L3,4 L-2,5 L-3,3 L0,3 Z " fill="#908080" transform="translate(56,46)"/>
<path d="M0,0 L6,1 L3,2 L2,4 L-3,2 Z " fill="#655858" transform="translate(44,40)"/>
<path d="M0,0 L4,0 L3,3 L-1,3 Z " fill="#726566" transform="translate(98,60)"/>
<path d="M0,0 L1,3 L-1,7 L-3,6 L-1,1 Z " fill="#382625" transform="translate(37,34)"/>
<path d="M0,0 L1,4 L0,6 L-2,6 L-1,1 Z " fill="#413C44" transform="translate(39,54)"/>
<path d="M0,0 L5,1 L6,4 L2,2 Z " fill="#21171D" transform="translate(77,67)"/>
<path d="M0,0 L3,0 L3,3 L1,3 L0,5 Z " fill="#373339" transform="translate(52,60)"/>
<path d="M0,0 L5,0 L6,2 L2,3 Z " fill="#8D8384" transform="translate(45,46)"/>
<path d="M0,0 L3,0 L3,4 L0,4 Z " fill="#291C1D" transform="translate(33,30)"/>
<path d="M0,0 L3,0 L3,3 L-1,2 Z " fill="#524545" transform="translate(41,38)"/>
<path d="M0,0 L2,0 L2,4 L-1,4 Z " fill="#332627" transform="translate(43,31)"/>
<path d="M0,0 L2,0 L2,4 L-1,3 Z " fill="#807272" transform="translate(101,29)"/>
<path d="M0,0 L2,0 L2,3 L-2,2 Z " fill="#474953" transform="translate(55,67)"/>
<path d="M0,0 L2,1 L2,3 L-2,3 L-2,1 Z " fill="#9D9191" transform="translate(53,50)"/>
<path d="M0,0 L3,0 L3,3 L0,3 Z " fill="#7A6B69" transform="translate(47,35)"/>
<path d="M0,0 L2,0 L1,4 L-1,3 Z " fill="#574544" transform="translate(51,30)"/>
<path d="M0,0 L3,1 L3,3 L-1,2 Z " fill="#625759" transform="translate(116,42)"/>
<path d="M0,0 L2,0 L0,4 L-1,1 Z " fill="#212328" transform="translate(38,22)"/>
</svg>
