<?xml version="1.0" encoding="UTF-8"?>
<!-- Generator: visioncortex VTracer 0.6.5 -->
<svg version="1.1" xmlns="http://www.w3.org/2000/svg" width="150" height="85">
<path d="M0,0 L150,0 L150,85 L0,85 Z " fill="#281D18" transform="translate(0,0)"/>
<path d="M0,0 L60,0 L60,13 L57,22 L57,29 L50,38 L44,38 L41,35 L41,22 L40,20 L40,11 L32,11 L32,20 L26,23 L27,25 L27,40 L29,40 L31,46 L38,49 L39,51 L39,58 L50,58 L64,61 L68,60 L97,60 L98,65 L111,67 L118,74 L122,75 L123,71 L123,65 L126,62 L136,62 L137,65 L140,66 L140,70 L137,70 L137,79 L133,79 L133,85 L0,85 Z " fill="#423941" transform="translate(0,0)"/>
<path d="M0,0 L2,2 L3,10 L7,13 L13,15 L14,23 L25,26 L28,33 L28,36 L26,36 L26,38 L24,39 L23,43 L34,43 L34,41 L43,43 L46,47 L46,50 L-24,50 L-24,15 L-20,15 L-16,24 L-15,26 L-9,26 L-10,24 L-10,17 L-4,19 L-4,15 L-9,15 L-8,10 L-6,6 L-1,5 Z " fill="#3E4857" transform="translate(24,35)"/>
<path d="M0,0 L3,0 L3,20 L2,26 L0,27 L-2,33 L-5,33 L-4,38 L8,40 L13,45 L20,47 L19,50 L17,50 L19,54 L23,56 L37,56 L38,52 L41,52 L42,49 L49,48 L52,50 L52,56 L51,57 L42,57 L42,65 L50,65 L51,67 L43,67 L37,65 L37,60 L5,61 L3,62 L-10,59 L-21,58 L-23,49 L-29,47 L-31,45 L-31,40 L-33,40 L-34,25 L-35,22 L-28,20 L-28,11 L-20,11 L-19,20 L-18,27 L-18,35 L-16,37 L-10,37 L-4,29 L-4,22 L-1,13 Z " fill="#412D31" transform="translate(60,0)"/>
<path d="M0,0 L17,0 L17,20 L37,20 L37,40 L17,40 L17,30 L7,30 L8,40 L10,43 L18,46 L20,49 L17,50 L17,55 L14,53 L14,50 L17,47 L8,45 L5,41 L-7,39 L-8,38 L-8,33 L-5,32 L-3,26 L-1,20 Z " fill="#2F1D26" transform="translate(63,0)"/>
<path d="M0,0 L32,0 L33,5 L46,7 L53,14 L57,15 L58,11 L58,5 L61,2 L71,2 L72,5 L75,6 L75,10 L72,10 L72,19 L68,19 L68,25 L37,25 L34,20 L35,14 L32,13 L13,12 L-2,13 L-6,12 L-7,9 L-6,8 L-5,1 Z " fill="#404754" transform="translate(65,60)"/>
<path d="M0,0 L5,5 L8,10 L21,12 L22,13 L28,13 L34,9 L35,10 L34,25 L37,26 L37,28 L46,26 L48,32 L47,33 L0,33 Z " fill="#4C5462" transform="translate(0,52)"/>
<path d="M0,0 L33,0 L33,13 L30,22 L30,29 L23,38 L17,38 L14,35 L14,22 L13,20 L13,11 L5,11 L5,20 L-1,20 L-5,13 L-5,8 L0,7 Z " fill="#6F483B" transform="translate(27,0)"/>
<path d="M0,0 L43,0 L43,21 L13,20 L12,13 L3,13 L3,11 L0,10 Z " fill="#252326" transform="translate(107,0)"/>
<path d="M0,0 L5,0 L5,47 L-12,47 L-12,41 L-8,41 L-8,32 L-5,32 L-6,28 L-9,25 L-19,25 L-21,27 L-21,35 L-23,38 L-28,36 L-34,29 L-29,31 L-30,26 L-27,26 L-25,21 L-23,20 L-9,20 L-7,18 L-4,18 L-5,12 L-5,4 L-3,2 L0,2 Z " fill="#3A353F" transform="translate(145,38)"/>
<path d="M0,0 L32,0 L33,5 L46,7 L51,13 L46,12 L34,12 L33,14 L32,13 L13,12 L-2,13 L-6,12 L-7,9 L-6,8 L-5,1 Z " fill="#59494B" transform="translate(65,60)"/>
<path d="M0,0 L30,0 L30,20 L10,20 L10,10 L0,10 Z " fill="#47160B" transform="translate(70,20)"/>
<path d="M0,0 L4,1 L4,5 L6,5 L7,17 L12,18 L13,19 L23,20 L24,21 L26,31 L26,38 L16,37 L16,35 L6,35 L5,27 L4,24 L-2,23 L-1,11 L-1,1 Z " fill="#20232C" transform="translate(34,22)"/>
<path d="M0,0 L10,0 L10,10 L30,10 L30,12 L38,13 L38,14 L31,16 L30,18 L32,18 L31,22 L28,22 L27,27 L13,27 L10,24 L10,20 L12,18 L7,15 L2,13 L0,10 Z " fill="#26242A" transform="translate(70,30)"/>
<path d="M0,0 L6,0 L11,5 L18,7 L17,10 L15,10 L17,14 L21,16 L35,16 L36,12 L39,12 L40,9 L47,8 L50,10 L50,16 L49,17 L40,17 L40,25 L48,25 L49,27 L41,27 L35,25 L35,20 L3,21 L1,22 L-2,20 L-1,19 L8,18 L10,17 L10,13 L2,12 L-2,7 L-2,1 Z " fill="#513635" transform="translate(62,40)"/>
<path d="M0,0 L7,1 L7,4 L11,5 L12,6 L14,4 L13,9 L15,9 L15,17 L17,17 L16,22 L15,25 L20,25 L20,29 L15,28 L15,34 L16,37 L9,37 L5,31 L4,25 L0,25 Z " fill="#47373D" transform="translate(0,25)"/>
<path d="M0,0 L3,1 L4,3 L4,18 L6,18 L8,24 L15,27 L16,29 L16,36 L27,36 L37,38 L37,46 L37,49 L40,50 L47,51 L45,52 L45,54 L47,55 L40,55 L35,54 L35,56 L33,57 L26,57 L24,56 L25,51 L27,51 L27,49 L29,49 L26,41 L26,39 L17,38 L14,36 L14,28 L6,26 L3,23 L2,15 L1,14 L0,18 L-4,19 L-3,14 L-4,10 L-1,1 Z " fill="#383F4D" transform="translate(23,22)"/>
<path d="M0,0 L10,0 L11,8 L15,12 L15,28 L11,32 L10,30 L7,29 L7,26 L0,25 Z " fill="#574256" transform="translate(0,0)"/>
<path d="M0,0 L6,1 L6,3 L14,3 L13,17 L6,26 L0,26 L-3,23 L-3,10 L-4,8 L-4,1 Z " fill="#473642" transform="translate(44,12)"/>
<path d="M0,0 L8,0 L9,9 L10,16 L10,24 L14,29 L9,28 L8,25 L8,16 L6,16 L5,12 L2,12 L2,25 L0,34 L6,35 L8,38 L8,46 L18,46 L18,47 L7,47 L5,38 L-1,36 L-3,34 L-3,29 L-5,29 L-6,14 L-7,11 L0,9 Z " fill="#2A303D" transform="translate(32,11)"/>
<path d="M0,0 L8,0 L9,20 L11,23 L19,26 L21,29 L18,30 L18,35 L15,33 L15,30 L18,27 L9,25 L6,21 L-6,19 L-7,18 L-7,13 L-4,12 L-2,6 Z " fill="#3D231C" transform="translate(62,20)"/>
<path d="M0,0 L7,0 L8,1 L18,2 L21,7 L13,12 L12,15 L0,15 Z " fill="#353C49" transform="translate(0,70)"/>
<path d="M0,0 L5,0 L4,5 L3,8 L8,8 L8,12 L3,11 L3,17 L4,20 L-3,20 L-7,14 L-8,8 L-12,8 L-12,2 L-1,1 Z " fill="#333C4C" transform="translate(12,42)"/>
<path d="M0,0 L4,2 L4,8 L3,9 L-6,9 L-6,17 L2,17 L3,19 L-5,19 L-11,17 L-11,12 L-28,12 L-28,6 L-25,8 L-11,8 L-10,4 L-7,4 L-6,1 Z " fill="#43332F" transform="translate(108,48)"/>
<path d="M0,0 L6,0 L7,1 L7,10 L11,10 L11,12 L20,10 L22,16 L21,17 L0,17 L0,14 L-3,13 L-2,10 L2,11 L0,6 Z " fill="#545C6A" transform="translate(26,68)"/>
<path d="M0,0 L21,0 L18,3 L12,7 L10,7 L10,9 L3,9 L3,18 L0,18 L-5,13 L-5,8 L0,7 Z " fill="#885D41" transform="translate(27,0)"/>
<path d="M0,0 L21,0 L22,5 L27,6 L25,8 L-4,7 L-3,1 Z " fill="#614644" transform="translate(76,60)"/>
<path d="M0,0 L5,0 L5,19 L-5,20 L-5,4 L-3,2 L0,2 Z " fill="#3A343E" transform="translate(145,38)"/>
<path d="M0,0 L4,1 L4,5 L6,5 L7,17 L10,17 L12,22 L11,25 L8,25 L7,22 L2,23 L1,22 L1,15 L-1,14 L-1,1 Z " fill="#1A1F26" transform="translate(34,22)"/>
<path d="M0,0 L5,5 L8,10 L13,12 L20,13 L22,18 L13,18 L0,16 Z " fill="#626B79" transform="translate(0,52)"/>
<path d="M0,0 L2,0 L2,2 L5,1 L12,1 L12,6 L10,6 L10,8 L4,8 L4,6 L-1,5 L-16,5 L-17,6 L-18,17 L-22,17 L-27,11 L-22,13 L-23,8 L-20,8 L-18,3 L-16,2 L-2,2 Z " fill="#2E2D34" transform="translate(138,56)"/>
<path d="M0,0 L10,0 L10,10 L12,10 L12,15 L3,14 L0,10 Z " fill="#27280E" transform="translate(70,30)"/>
<path d="M0,0 L4,2 L5,4 L5,20 L1,24 L0,22 L-3,21 L-3,18 L-10,17 L-10,15 L-3,14 L-2,12 L0,12 Z " fill="#565052" transform="translate(10,8)"/>
<path d="M0,0 L3,0 L3,13 L2,15 L-7,15 L-7,13 L-17,13 L-17,11 L-24,11 L-24,10 L-17,8 L-8,6 L-4,10 L-1,11 Z " fill="#5F3A33" transform="translate(57,0)"/>
<path d="M0,0 L9,1 L9,14 L-1,14 L-2,13 L-2,4 Z " fill="#39251F" transform="translate(141,7)"/>
<path d="M0,0 L5,1 L6,2 L6,11 L3,14 L3,12 L-2,13 L-1,17 L-7,17 L-7,11 L-3,11 L-3,2 L0,2 Z " fill="#2C2630" transform="translate(140,68)"/>
<path d="M0,0 L9,2 L12,6 L12,9 L-9,9 L-8,4 L-1,4 Z " fill="#4F545E" transform="translate(58,76)"/>
<path d="M0,0 L4,0 L8,9 L9,11 L15,11 L14,9 L14,2 L20,4 L20,0 L22,0 L21,5 L16,6 L17,9 L30,10 L30,13 L27,15 L18,14 L8,13 L0,2 Z " fill="#364050" transform="translate(0,50)"/>
<path d="M0,0 L7,0 L7,16 L5,17 L0,17 L-1,16 Z " fill="#3B1D12" transform="translate(63,20)"/>
<path d="M0,0 L12,0 L12,8 L9,10 L2,10 L0,8 Z " fill="#3D302C" transform="translate(110,0)"/>
<path d="M0,0 L7,0 L13,2 L13,6 L15,7 L8,9 L0,9 Z " fill="#1A202D" transform="translate(0,70)"/>
<path d="M0,0 L3,1 L4,3 L4,15 L1,14 L0,18 L-4,19 L-3,14 L-4,10 L-1,1 Z " fill="#403F4F" transform="translate(23,22)"/>
<path d="M0,0 L4,4 L12,6 L13,10 L10,12 L0,13 Z " fill="#482D26" transform="translate(60,47)"/>
<path d="M0,0 L6,0 L9,5 L6,5 L5,10 L9,11 L10,13 L2,12 L-2,7 L-2,1 Z " fill="#563325" transform="translate(62,40)"/>
<path d="M0,0 L14,0 L20,1 L18,2 L19,9 L10,9 L7,3 L0,1 Z " fill="#47464F" transform="translate(60,76)"/>
<path d="M0,0 L15,0 L17,3 L15,5 L14,3 L4,3 L2,5 L2,13 L0,16 L-4,14 L-3,13 L-2,2 Z " fill="#313948" transform="translate(122,60)"/>
<path d="M0,0 L8,0 L9,9 L10,16 L8,15 L6,9 L0,9 Z " fill="#3C2A22" transform="translate(32,11)"/>
<path d="M0,0 L3,0 L3,13 L-8,13 L-10,8 L-4,8 L-3,9 L-2,7 L0,7 Z " fill="#4D3D45" transform="translate(147,72)"/>
<path d="M0,0 L7,0 L10,6 L10,8 L7,9 L0,9 L-1,8 L-1,1 Z " fill="#4E5865" transform="translate(42,62)"/>
<path d="M0,0 L8,0 L9,5 L4,9 L-1,9 L-2,2 Z " fill="#6E616B" transform="translate(45,26)"/>
<path d="M0,0 L7,0 L8,2 L8,9 L2,11 L0,11 Z " fill="#313A47" transform="translate(0,10)"/>
<path d="M0,0 L8,0 L8,7 L4,8 L4,15 L0,12 Z " fill="#693F2D" transform="translate(19,0)"/>
<path d="M0,0 L8,0 L8,11 L4,10 L4,8 L0,7 Z " fill="#572828" transform="translate(11,0)"/>
<path d="M0,0 L2,0 L1,5 L-1,9 L-2,17 L-5,17 L-8,12 L-7,7 L-4,7 Z " fill="#1D2534" transform="translate(15,42)"/>
<path d="M0,0 L8,0 L9,1 L9,7 L4,13 L-2,13 L-5,10 L-5,2 L-1,1 L-2,8 L-2,10 L4,8 L7,6 L7,2 L0,1 Z " fill="#574A4D" transform="translate(46,25)"/>
<path d="M0,0 L8,0 L8,8 L-1,7 Z M-2,7 Z " fill="#342B31" transform="translate(142,0)"/>
<path d="M0,0 L3,0 L4,8 L5,9 L12,9 L14,8 L12,13 L3,13 L3,11 L0,10 Z " fill="#372821" transform="translate(107,0)"/>
<path d="M0,0 L3,0 L3,2 L9,2 L10,6 L8,6 L7,11 L6,9 L0,8 Z " fill="#322129" transform="translate(0,28)"/>
<path d="M0,0 L9,0 L9,2 L11,2 L11,7 L2,6 L0,4 Z " fill="#221406" transform="translate(71,38)"/>
<path d="M0,0 L6,1 L6,3 L4,4 L5,6 L2,6 L2,8 L-3,10 L-4,8 L-4,1 Z " fill="#483238" transform="translate(44,12)"/>
<path d="M0,0 L1,0 L1,7 L5,8 L5,10 L9,11 L12,15 L9,16 L8,22 L6,22 L3,10 L0,8 Z " fill="#533933" transform="translate(10,0)"/>
<path d="M0,0 L7,0 L7,5 L5,5 L5,7 L-1,7 L-1,5 L-4,4 L-3,1 Z " fill="#3A2D2D" transform="translate(143,57)"/>
<path d="M0,0 L4,1 L4,6 L5,8 L2,15 L1,13 L-1,13 L-1,1 Z " fill="#312830" transform="translate(16,29)"/>
<path d="M0,0 L7,0 L7,8 L0,8 L-1,3 Z " fill="#472819" transform="translate(143,10)"/>
<path d="M0,0 L7,2 L7,5 L1,7 L-3,7 L-3,9 L-7,8 L-7,5 L-1,3 Z " fill="#444F5E" transform="translate(23,51)"/>
<path d="M0,0 L3,0 L3,8 L1,8 L2,15 L-4,15 L-4,9 L0,9 Z " fill="#2B303E" transform="translate(137,70)"/>
<path d="M0,0 L3,2 L17,3 L17,6 L0,6 Z " fill="#3B313B" transform="translate(80,54)"/>
<path d="M0,0 L3,1 L3,13 L-3,16 L-3,8 L0,7 Z " fill="#646467" transform="translate(11,12)"/>
<path d="M0,0 L11,0 L9,6 L7,8 L2,6 Z " fill="#533C43" transform="translate(47,15)"/>
<path d="M0,0 L7,0 L7,7 L6,8 L0,8 Z " fill="#4C3D36" transform="translate(112,0)"/>
<path d="M0,0 L3,0 L3,8 L12,10 L8,12 L-1,12 L-2,8 L-1,7 Z " fill="#484851" transform="translate(60,61)"/>
<path d="M0,0 L6,0 L9,6 L10,15 L14,20 L9,19 L8,16 L8,7 L6,7 L5,3 L2,3 L1,9 L0,9 L-1,1 Z " fill="#27282D" transform="translate(32,20)"/>
<path d="M0,0 L17,0 L16,4 L0,3 Z " fill="#554142" transform="translate(80,60)"/>
<path d="M0,0 L4,2 L4,8 L3,9 L-6,9 L-6,8 L-1,7 L-1,4 L-7,3 L-6,1 Z " fill="#41281E" transform="translate(108,48)"/>
<path d="M0,0 L5,0 L5,2 L9,3 L7,4 L8,10 L-1,5 Z " fill="#64433C" transform="translate(68,45)"/>
<path d="M0,0 L3,2 L3,7 L-6,7 L-6,2 Z " fill="#5D6371" transform="translate(128,78)"/>
<path d="M0,0 L5,0 L8,5 L4,8 L-5,7 L-5,6 L0,5 Z " fill="#292E3B" transform="translate(13,72)"/>
<path d="M0,0 L7,0 L7,7 L0,7 Z " fill="#5E4963" transform="translate(0,0)"/>
<path d="M0,0 L2,0 L1,5 L-16,5 L-18,8 L-20,8 L-18,3 L-16,2 L-2,2 Z " fill="#292B35" transform="translate(138,56)"/>
<path d="M0,0 L5,0 L6,4 L-10,4 L-9,1 L-4,2 L-2,3 L-2,1 Z " fill="#665E66" transform="translate(62,81)"/>
<path d="M0,0 L2,0 L2,5 L0,7 L-11,7 L-11,2 L-7,4 L-1,5 Z " fill="#464D59" transform="translate(11,37)"/>
<path d="M0,0 L5,1 L5,9 L2,9 L-1,5 Z " fill="#9E7558" transform="translate(25,9)"/>
<path d="M0,0 L5,0 L6,3 L10,4 L10,7 L-1,8 L2,4 Z " fill="#414553" transform="translate(18,72)"/>
<path d="M0,0 L3,0 L3,10 L-2,9 L-2,2 L0,2 Z " fill="#55243A" transform="translate(147,40)"/>
<path d="M0,0 L6,1 L6,5 L1,4 L1,10 L2,13 L-4,12 L-4,10 L-1,10 L-1,2 Z " fill="#27303E" transform="translate(14,49)"/>
<path d="M0,0 L3,0 L3,10 L1,10 L0,13 L-7,13 L-7,11 L0,9 Z " fill="#434955" transform="translate(7,10)"/>
<path d="M0,0 L7,0 L8,4 L7,5 L0,5 L-1,1 Z " fill="#222633" transform="translate(49,74)"/>
<path d="M0,0 L10,1 L9,8 L5,7 L3,3 Z " fill="#391A0D" transform="translate(108,47)"/>
<path d="M0,0 L1,3 L3,3 L4,7 L3,8 L-4,8 L-3,3 Z " fill="#4B5564" transform="translate(19,42)"/>
<path d="M0,0 L5,1 L8,4 L5,4 L4,7 L-1,6 Z " fill="#633825" transform="translate(63,41)"/>
<path d="M0,0 L5,0 L5,2 L2,2 L2,4 L0,4 L0,6 L-3,9 L-5,12 L-5,4 L-3,2 L0,2 Z " fill="#362931" transform="translate(145,38)"/>
<path d="M0,0 L1,0 L3,8 L-5,8 L-8,5 L-3,4 Z " fill="#46353B" transform="translate(53,33)"/>
<path d="M0,0 L2,1 L2,4 L6,5 L6,7 L4,7 L4,9 L0,8 L-2,7 L-1,2 Z " fill="#363949" transform="translate(36,70)"/>
<path d="M0,0 L6,1 L8,0 L8,4 L10,4 L10,6 L4,6 L0,3 Z " fill="#383842" transform="translate(0,36)"/>
<path d="M0,0 L10,0 L10,3 L8,4 L2,4 L0,3 Z " fill="#1D2634" transform="translate(20,60)"/>
<path d="M0,0 L2,1 L-2,8 L-5,8 L-5,14 L-7,13 L-8,5 L-2,5 Z " fill="#252D3B" transform="translate(13,42)"/>
<path d="M0,0 L6,2 L8,7 L7,10 L4,10 L4,6 L2,6 L2,3 L0,3 Z " fill="#1E1B1D" transform="translate(38,37)"/>
<path d="M0,0 L5,0 L6,5 L-1,6 L-1,1 Z " fill="#8D7E8B" transform="translate(46,27)"/>
<path d="M0,0 L8,0 L8,6 L6,7 L6,5 L0,4 Z " fill="#4D2A18" transform="translate(32,11)"/>
<path d="M0,0 L5,0 L5,7 L0,8 Z " fill="#74482B" transform="translate(22,0)"/>
<path d="M0,0 L6,0 L4,1 L5,8 L0,8 Z " fill="#4C4A4F" transform="translate(74,77)"/>
<path d="M0,0 L7,0 L7,5 L0,5 Z " fill="#070919" transform="translate(0,73)"/>
<path d="M0,0 L5,0 L7,5 L-2,5 L-7,4 L-7,3 L2,2 Z " fill="#5C6472" transform="translate(15,65)"/>
<path d="M0,0 L6,0 L6,5 L5,6 L0,6 Z " fill="#9C7154" transform="translate(32,0)"/>
<path d="M0,0 L6,1 L2,3 L2,5 L-5,4 L-6,6 L-8,6 L-7,2 L0,2 Z " fill="#565A68" transform="translate(58,79)"/>
<path d="M0,0 L8,0 L12,2 L18,3 L18,4 L8,4 L7,3 L0,2 Z " fill="#3F4956" transform="translate(0,68)"/>
<path d="M0,0 L4,0 L8,9 L9,11 L12,13 L7,12 L0,2 Z " fill="#485261" transform="translate(0,50)"/>
<path d="M0,0 L7,0 L7,4 L-2,4 Z " fill="#777E8D" transform="translate(36,81)"/>
<path d="M0,0 L3,0 L5,5 L2,8 L-1,7 L-1,1 Z " fill="#382B28" transform="translate(19,15)"/>
<path d="M0,0 L8,0 L9,1 L9,7 L4,11 L1,12 L-2,10 L4,8 L7,6 L7,2 L0,1 Z " fill="#5E4D57" transform="translate(46,25)"/>
<path d="M0,0 L4,2 L5,4 L5,10 L4,10 L4,5 L2,5 L1,11 L3,12 L0,13 Z " fill="#685550" transform="translate(10,8)"/>
<path d="M0,0 L5,1 L5,3 L1,3 L1,8 L-3,8 L-3,4 L-1,3 Z " fill="#6A7280" transform="translate(31,77)"/>
<path d="M0,0 L7,0 L10,4 L7,5 L7,10 L4,8 L4,5 L7,2 L0,1 Z " fill="#442A24" transform="translate(73,45)"/>
<path d="M0,0 L12,0 L17,6 L12,5 L11,1 L1,2 Z " fill="#514A4B" transform="translate(99,67)"/>
<path d="M0,0 L7,0 L7,4 L0,5 Z " fill="#273342" transform="translate(0,13)"/>
<path d="M0,0 L7,0 L7,4 L0,4 Z " fill="#46464E" transform="translate(88,81)"/>
<path d="M0,0 L5,0 L6,4 L5,5 L0,5 Z " fill="#6A4B42" transform="translate(102,51)"/>
<path d="M0,0 L4,2 L4,5 L-3,5 L-2,1 Z " fill="#32353C" transform="translate(98,80)"/>
<path d="M0,0 L2,0 L2,10 L-4,10 L-1,7 Z " fill="#574548" transform="translate(148,75)"/>
<path d="M0,0 L6,0 L7,3 L-2,4 L-4,1 Z " fill="#595656" transform="translate(104,68)"/>
<path d="M0,0 L1,0 L1,9 L-5,9 L-8,4 L-4,6 L-2,7 Z " fill="#5C4B44" transform="translate(31,11)"/>
<path d="M0,0 L4,1 L4,7 L0,6 Z " fill="#747B8A" transform="translate(26,68)"/>
<path d="M0,0 L10,2 L10,3 L0,5 L-2,7 L-3,5 L-2,1 Z " fill="#282328" transform="translate(120,55)"/>
<path d="M0,0 L7,0 L7,2 L5,2 L4,5 L0,5 Z " fill="#3C404E" transform="translate(0,80)"/>
<path d="M0,0 L3,0 L3,3 L10,4 L10,5 L1,4 L-5,3 L-1,1 Z " fill="#313A48" transform="translate(17,60)"/>
<path d="M0,0 L3,3 L0,10 L-1,8 L-3,8 L-3,6 L-1,6 Z " fill="#282E3A" transform="translate(18,34)"/>
<path d="M0,0 L8,0 L5,3 L0,5 Z " fill="#845B51" transform="translate(40,0)"/>
<path d="M0,0 L5,1 L6,4 L-1,4 Z " fill="#2D3036" transform="translate(81,81)"/>
<path d="M0,0 L2,0 L2,7 L-2,6 L-2,4 L-6,2 L0,2 Z " fill="#4E3D3D" transform="translate(148,62)"/>
<path d="M0,0 L5,1 L5,7 L3,7 L0,2 Z " fill="#0F1523" transform="translate(7,52)"/>
<path d="M0,0 L4,0 L4,8 L2,8 L2,3 L-1,4 Z " fill="#4A464E" transform="translate(11,34)"/>
<path d="M0,0 L3,1 L3,6 L0,7 L-1,1 Z " fill="#0C0814" transform="translate(141,72)"/>
<path d="M0,0 L15,0 L15,1 L2,2 L-2,4 Z " fill="#2B3240" transform="translate(122,60)"/>
<path d="M0,0 L5,0 L6,2 L5,4 L0,4 Z " fill="#1C0A02" transform="translate(73,40)"/>
<path d="M0,0 L1,3 L-4,4 L-6,6 L-8,1 L-2,1 L-1,2 Z " fill="#3E353D" transform="translate(145,79)"/>
<path d="M0,0 L2,0 L1,5 L-1,8 L-3,8 L-2,3 Z " fill="#151C2A" transform="translate(15,42)"/>
<path d="M0,0 L8,0 L7,5 L6,3 L0,2 Z " fill="#342A32" transform="translate(0,34)"/>
<path d="M0,0 L3,1 L3,10 L2,7 L0,7 Z " fill="#716360" transform="translate(11,12)"/>
<path d="M0,0 L3,3 L3,6 L-3,4 L-5,1 L0,3 Z " fill="#2E2827" transform="translate(116,66)"/>
<path d="M0,0 L6,2 L6,3 L-4,3 L-4,1 Z " fill="#354050" transform="translate(24,57)"/>
<path d="M0,0 L1,2 L3,3 L-1,5 L-2,7 L-4,7 L-4,2 L0,2 Z " fill="#5A6371" transform="translate(36,78)"/>
<path d="M0,0 L3,1 L-2,6 L-8,6 L-8,5 L0,3 Z " fill="#374250" transform="translate(30,60)"/>
<path d="M0,0 L6,0 L5,3 L0,4 L-1,1 Z " fill="#34241F" transform="translate(143,59)"/>
<path d="M0,0 L1,0 L3,7 L6,11 L1,10 L0,7 Z " fill="#392F31" transform="translate(40,29)"/>
<path d="M0,0 L2,3 L3,10 L1,9 L-1,3 Z " fill="#382C32" transform="translate(39,17)"/>
<path d="M0,0 L4,3 L4,5 L8,6 L3,7 L3,4 L0,3 Z " fill="#4A4142" transform="translate(22,15)"/>
<path d="M0,0 L6,1 L6,3 L-2,3 L-2,1 Z " fill="#533434" transform="translate(44,12)"/>
<path d="M0,0 L1,4 L7,3 L5,6 L0,6 Z " fill="#7F6D6E" transform="translate(44,29)"/>
<path d="M0,0 L5,0 L5,3 L-1,3 Z " fill="#8D8F9D" transform="translate(125,82)"/>
<path d="M0,0 L5,1 L5,8 L4,8 L3,3 L0,3 Z " fill="#1B1A22" transform="translate(140,70)"/>
<path d="M0,0 L4,1 L3,5 L0,5 Z " fill="#747C8B" transform="translate(0,57)"/>
<path d="M0,0 L7,1 L7,3 L0,3 Z " fill="#48444A" transform="translate(0,25)"/>
<path d="M0,0 L5,1 L6,3 L-1,3 Z " fill="#737A89" transform="translate(53,82)"/>
<path d="M0,0 L3,0 L5,3 L9,5 L3,5 Z " fill="#3D190C" transform="translate(68,40)"/>
<path d="M0,0 L3,0 L3,5 L-1,6 Z " fill="#373A49" transform="translate(20,35)"/>
<path d="M0,0 L5,0 L5,3 L0,3 Z " fill="#161722" transform="translate(134,82)"/>
<path d="M0,0 L3,0 L2,4 L1,6 L-1,6 Z " fill="#3C2E2C" transform="translate(98,52)"/>
<path d="M0,0 L5,0 L1,5 L-1,5 Z " fill="#674132" transform="translate(68,45)"/>
<path d="M0,0 L2,0 L2,5 L-3,5 L-2,3 L0,3 Z " fill="#251915" transform="translate(80,40)"/>
<path d="M0,0 L3,2 L2,5 L-1,5 Z " fill="#AE876D" transform="translate(26,10)"/>
<path d="M0,0 L3,0 L3,4 L-1,3 Z " fill="#272C39" transform="translate(37,75)"/>
<path d="M0,0 L3,4 L-1,7 L-3,6 L-1,4 Z " fill="#303545" transform="translate(18,73)"/>
<path d="M0,0 L3,3 L3,6 L-1,5 Z " fill="#3B231A" transform="translate(112,52)"/>
<path d="M0,0 L4,1 L3,5 L0,4 Z " fill="#503329" transform="translate(107,51)"/>
<path d="M0,0 L1,3 L4,3 L4,5 L-1,5 Z " fill="#3C4655" transform="translate(16,45)"/>
<path d="M0,0 L3,0 L2,6 L0,6 Z " fill="#443E46" transform="translate(8,34)"/>
<path d="M0,0 L5,0 L5,3 L0,2 Z " fill="#392F2C" transform="translate(115,64)"/>
<path d="M0,0 L3,0 L3,5 L1,5 Z " fill="#661F35" transform="translate(147,45)"/>
<path d="M0,0 L5,0 L4,4 Z " fill="#877370" transform="translate(25,15)"/>
<path d="M0,0 L4,2 L4,4 L0,4 Z " fill="#373F4C" transform="translate(20,81)"/>
<path d="M0,0 L5,0 L1,4 L-1,4 Z " fill="#5F6775" transform="translate(51,81)"/>
<path d="M0,0 L1,4 L-4,3 L-2,1 L0,2 Z " fill="#2E303B" transform="translate(59,56)"/>
<path d="M0,0 L4,1 L4,3 L0,3 Z " fill="#636469" transform="translate(74,82)"/>
<path d="M0,0 L3,1 L2,4 L-1,3 Z " fill="#47424A" transform="translate(147,65)"/>
<path d="M0,0 L3,1 L4,4 L0,3 Z " fill="#513C39" transform="translate(97,62)"/>
<path d="M0,0 L4,0 L3,3 L0,3 Z " fill="#20150B" transform="translate(104,61)"/>
<path d="M0,0 L2,0 L3,4 L0,4 L-1,1 Z " fill="#734E42" transform="translate(71,46)"/>
<path d="M0,0 L2,0 L2,4 L-1,4 Z " fill="#5F606A" transform="translate(11,37)"/>
<path d="M0,0 L3,0 L3,3 L-1,3 Z " fill="#9D919D" transform="translate(48,28)"/>
<path d="M0,0 L4,1 L4,4 L1,3 Z " fill="#211711" transform="translate(112,65)"/>
<path d="M0,0 L3,0 L3,3 L0,3 Z " fill="#727B89" transform="translate(16,82)"/>
<path d="M0,0 L3,0 L3,3 L0,3 Z " fill="#5A5C63" transform="translate(91,82)"/>
<path d="M0,0 L3,0 L3,3 L0,3 Z " fill="#4C4F5A" transform="translate(0,82)"/>
<path d="M0,0 L4,0 L4,3 L0,1 Z " fill="#0F1623" transform="translate(51,76)"/>
<path d="M0,0 L3,3 L-1,4 Z " fill="#36323D" transform="translate(18,34)"/>
<path d="M0,0 L4,1 L0,3 Z " fill="#1B1318" transform="translate(16,29)"/>
<path d="M0,0 L2,0 L2,3 L-1,3 Z " fill="#596371" transform="translate(14,82)"/>
<path d="M0,0 L3,0 L2,3 L0,3 Z " fill="#1A2231" transform="translate(17,50)"/>
<path d="M0,0 L3,3 L0,4 Z " fill="#362B2C" transform="translate(80,46)"/>
<path d="M0,0 L2,1 L2,4 L0,4 L-1,1 Z " fill="#453838" transform="translate(16,18)"/>
<path d="M0,0 L2,1 L2,3 L-1,3 Z " fill="#473D46" transform="translate(141,82)"/>
<path d="M0,0 L3,0 L2,3 L0,2 Z " fill="#44434C" transform="translate(113,79)"/>
<path d="M0,0 L2,0 L1,3 L-1,1 Z " fill="#746661" transform="translate(28,16)"/>
</svg>
