<?xml version="1.0" encoding="UTF-8"?>
<!-- Generator: visioncortex VTracer 0.6.5 -->
<svg version="1.1" xmlns="http://www.w3.org/2000/svg" width="150" height="84">
<path d="M0,0 L150,0 L150,84 L0,84 Z " fill="#000101" transform="translate(0,0)"/>
<path d="M0,0 L14,3 L15,6 L19,6 L19,12 L26,12 L28,7 L31,7 L29,21 L20,21 L16,20 L15,25 L27,26 L25,30 L18,30 L18,32 L6,32 L0,34 L1,30 L-4,30 L-4,28 L1,26 L3,19 L7,17 L8,16 L15,16 L11,15 L11,13 L14,13 L13,9 L11,6 L5,5 L6,13 L3,13 L3,8 L-3,7 L-3,10 L2,11 L2,17 L0,17 L-1,15 L-8,15 L-12,18 L-14,18 L-14,25 L-18,25 L-20,20 L-29,22 L-28,17 L-25,17 L-25,15 L-22,15 L-22,13 L-20,13 L-20,16 L-16,16 L-17,13 L-17,3 L-11,1 L-4,2 Z " fill="#0E1615" transform="translate(71,30)"/>
<path d="M0,0 L8,0 L8,3 L16,2 L18,0 L24,0 L24,7 L17,9 L13,10 L12,14 L7,18 L0,17 L-2,13 L-5,13 L-8,7 Z " fill="#181812" transform="translate(126,64)"/>
<path d="M0,0 L7,0 L6,2 L5,3 L6,6 L11,7 L11,13 L9,13 L8,11 L1,11 L-3,14 L-5,14 L-5,21 L-9,21 L-11,16 L-20,18 L-19,13 L-16,13 L-16,11 L-13,11 L-13,9 L-11,9 L-11,12 L-7,12 L-8,3 Z " fill="#142127" transform="translate(62,34)"/>
<path d="M0,0 L8,0 L8,3 L11,3 L10,6 L8,6 L8,8 L1,8 L1,15 L9,15 L9,17 L3,18 L-2,15 L-2,13 L-5,13 L-8,7 Z " fill="#0C1411" transform="translate(126,64)"/>
<path d="M0,0 L5,3 L7,7 L12,10 L12,12 L17,12 L16,15 L13,17 L10,17 L10,14 L0,14 Z " fill="#0A1216" transform="translate(0,49)"/>
<path d="M0,0 L7,0 L6,2 L5,3 L6,6 L11,7 L11,13 L9,13 L8,11 L-2,10 L-3,1 Z " fill="#15191A" transform="translate(62,34)"/>
<path d="M0,0 L6,0 L5,7 L0,9 L-4,9 L-5,15 L-9,16 L-8,12 L-13,12 L-13,10 L-6,9 L-5,6 L-2,5 L-2,1 Z " fill="#282C29" transform="translate(80,48)"/>
<path d="M0,0 L9,1 L11,3 L19,4 L18,6 L15,7 L2,6 L-3,5 L-6,4 L-5,2 Z " fill="#151516" transform="translate(33,71)"/>
<path d="M0,0 L2,0 L3,2 L6,4 L3,4 L3,6 L8,6 L9,10 L10,8 L10,11 L-2,12 L-2,8 L1,7 L1,4 L-2,4 Z " fill="#0D1013" transform="translate(64,54)"/>
<path d="M0,0 L7,0 L14,1 L19,2 L17,4 L13,7 L10,6 L9,4 L7,5 L-2,5 Z " fill="#09110F" transform="translate(77,24)"/>
<path d="M0,0 L3,0 L2,10 L-1,9 L-1,11 L-10,11 L-9,5 L-2,5 Z " fill="#0A120B" transform="translate(99,37)"/>
<path d="M0,0 L3,0 L3,8 L2,10 L11,10 L11,8 L13,8 L13,13 L4,13 L0,11 Z " fill="#1E2725" transform="translate(87,38)"/>
<path d="M0,0 L2,0 L0,5 L3,6 L3,8 L6,8 L6,11 L8,12 L4,12 L2,7 L-7,9 L-6,4 L-3,4 L-3,2 L0,2 Z " fill="#121922" transform="translate(49,43)"/>
<path d="M0,0 L11,1 L12,7 L9,6 L8,4 L2,3 L3,11 L0,11 L-1,4 Z " fill="#141B18" transform="translate(74,32)"/>
<path d="M0,0 L9,0 L9,6 L2,7 L0,6 Z " fill="#110807" transform="translate(0,19)"/>
<path d="M0,0 L4,0 L7,6 L7,8 L5,8 L4,6 L0,5 L-1,9 L-4,10 L-5,8 L-2,3 Z " fill="#031110" transform="translate(19,19)"/>
<path d="M0,0 L7,0 L6,2 L5,3 L5,6 L2,6 L2,8 L-3,7 L-3,1 Z " fill="#314646" transform="translate(62,34)"/>
<path d="M0,0 L5,3 L7,8 L5,8 L5,6 L2,6 L2,8 L4,8 L5,12 L3,13 L0,12 Z " fill="#05131D" transform="translate(0,49)"/>
<path d="M0,0 L5,0 L5,2 L14,5 L14,9 L11,9 L8,6 L4,5 L4,3 L0,3 Z " fill="#191918" transform="translate(16,55)"/>
<path d="M0,0 L7,0 L8,3 L7,9 L5,9 L5,6 L2,6 L-1,3 Z " fill="#2B2930" transform="translate(50,45)"/>
<path d="M0,0 L7,1 L7,2 L-1,3 L0,7 L-4,9 L-5,11 L-7,10 L-5,3 L-1,1 Z " fill="#0F1515" transform="translate(79,46)"/>
<path d="M0,0 L6,0 L5,7 L1,6 L-2,3 L-2,1 Z " fill="#343D38" transform="translate(80,48)"/>
<path d="M0,0 L11,0 L13,2 L10,4 L3,3 Z " fill="#262825" transform="translate(120,0)"/>
<path d="M0,0 L7,0 L8,4 L-3,4 L-1,3 Z " fill="#1D1115" transform="translate(20,80)"/>
<path d="M0,0 L1,3 L4,3 L3,6 L1,6 L1,8 L-8,7 L-5,5 L0,3 Z " fill="#080B0B" transform="translate(133,64)"/>
<path d="M0,0 L6,1 L6,3 L1,5 L-4,6 L-3,1 Z " fill="#060F17" transform="translate(58,31)"/>
<path d="M0,0 L5,1 L4,6 L0,7 L-1,1 Z " fill="#0D1109" transform="translate(139,34)"/>
<path d="M0,0 L8,0 L9,3 L7,4 L0,4 Z " fill="#0C150D" transform="translate(78,6)"/>
<path d="M0,0 L2,1 L-2,3 L-3,10 L-3,13 L-5,13 L-8,7 Z " fill="#020C11" transform="translate(126,64)"/>
<path d="M0,0 L7,0 L6,4 L-1,4 Z " fill="#1C2A2E" transform="translate(76,25)"/>
<path d="M0,0 L8,0 L5,4 L-3,4 L-2,1 Z " fill="#010401" transform="translate(80,56)"/>
<path d="M0,0 L3,1 L3,4 L6,5 L1,8 L-1,4 Z " fill="#0A1819" transform="translate(57,40)"/>
<path d="M0,0 L3,0 L3,2 L7,3 L8,6 L3,7 L2,2 L0,2 Z " fill="#17262B" transform="translate(2,55)"/>
<path d="M0,0 L5,0 L5,3 L2,5 L-2,4 Z " fill="#10131A" transform="translate(128,64)"/>
<path d="M0,0 L3,0 L3,3 L0,4 L-8,3 L-8,1 Z " fill="#081311" transform="translate(87,63)"/>
<path d="M0,0 L5,0 L6,4 L1,5 Z " fill="#34393A" transform="translate(36,50)"/>
<path d="M0,0 L4,3 L4,10 L3,6 L-2,5 L-2,2 L0,2 Z " fill="#080D10" transform="translate(70,35)"/>
<path d="M0,0 L3,0 L2,7 L3,11 L0,11 L-1,4 Z " fill="#323639" transform="translate(74,32)"/>
<path d="M0,0 L4,0 L4,5 L-3,4 Z " fill="#1D1313" transform="translate(5,19)"/>
<path d="M0,0 L4,0 L4,6 L0,7 Z " fill="#111510" transform="translate(60,0)"/>
<path d="M0,0 L6,0 L6,4 L0,4 L-1,1 Z " fill="#1F221A" transform="translate(144,64)"/>
<path d="M0,0 L2,4 L-1,6 L-7,6 L-6,3 L-3,4 L-3,2 L0,2 Z " fill="#253232" transform="translate(67,38)"/>
<path d="M0,0 L7,1 L7,3 L4,3 L4,5 L-1,4 Z " fill="#4B5F5D" transform="translate(60,37)"/>
<path d="M0,0 L8,0 L8,3 L0,3 Z " fill="#1A1F1B" transform="translate(94,5)"/>
<path d="M0,0 L4,1 L4,3 L9,4 L9,5 L0,4 Z " fill="#242525" transform="translate(37,73)"/>
<path d="M0,0 L3,0 L3,7 L0,8 Z " fill="#171A1B" transform="translate(0,74)"/>
<path d="M0,0 L7,0 L7,3 L-1,3 Z " fill="#0A0B0F" transform="translate(41,19)"/>
<path d="M0,0 L8,0 L7,3 L0,3 Z " fill="#1D211B" transform="translate(67,10)"/>
<path d="M0,0 L6,0 L8,3 L5,4 L0,3 Z " fill="#141214" transform="translate(41,9)"/>
<path d="M0,0 L4,1 L1,1 L1,4 L-6,5 L-5,2 Z " fill="#0E0D0D" transform="translate(33,71)"/>
<path d="M0,0 L1,4 L-2,5 L-2,3 L-10,3 L-11,6 L-11,2 L-1,1 Z " fill="#080E07" transform="translate(77,7)"/>
<path d="M0,0 L3,2 L2,4 L5,4 L4,7 L-2,5 L0,4 Z " fill="#02070E" transform="translate(73,25)"/>
<path d="M0,0 L7,0 L3,4 L0,4 Z " fill="#191D17" transform="translate(10,62)"/>
<path d="M0,0 L6,0 L4,3 L-2,3 L-3,1 Z " fill="#1C1D1D" transform="translate(90,57)"/>
<path d="M0,0 L3,0 L1,8 L-1,8 L-1,2 Z " fill="#171813" transform="translate(99,37)"/>
<path d="M0,0 L5,3 L7,8 L5,8 L4,4 L0,5 Z " fill="#050916" transform="translate(0,49)"/>
<path d="M0,0 L3,0 L3,8 L1,7 L2,5 L0,5 Z " fill="#2E3630" transform="translate(87,38)"/>
<path d="M0,0 L4,4 L1,7 L1,4 L-7,4 L-7,3 L0,3 Z " fill="#0F120E" transform="translate(102,5)"/>
<path d="M0,0 L6,0 L6,3 L0,3 Z " fill="#1B1815" transform="translate(99,77)"/>
<path d="M0,0 L3,0 L3,2 L6,2 L6,5 L8,6 L4,6 L2,1 Z " fill="#100C13" transform="translate(49,49)"/>
<path d="M0,0 L7,1 L7,2 L-1,3 L0,6 L-2,6 L-1,1 Z " fill="#1E2627" transform="translate(79,46)"/>
<path d="M0,0 L4,0 L4,4 L0,4 Z " fill="#1E1F17" transform="translate(137,69)"/>
<path d="M0,0 L3,0 L3,4 L-2,4 L-2,2 L0,2 Z " fill="#15171B" transform="translate(64,62)"/>
<path d="M0,0 L6,0 L4,5 L2,5 L2,1 Z " fill="#031109" transform="translate(90,42)"/>
<path d="M0,0 L2,1 L6,3 L-1,5 Z " fill="#0D120B" transform="translate(76,57)"/>
<path d="M0,0 L1,4 L-1,6 L-4,6 L-4,3 L0,3 Z " fill="#081007" transform="translate(143,35)"/>
<path d="M0,0 L4,0 L3,3 L-2,3 L-2,1 Z " fill="#19221B" transform="translate(80,7)"/>
<path d="M0,0 L1,0 L1,5 L3,5 L3,8 L-1,6 Z " fill="#252522" transform="translate(134,70)"/>
<path d="M0,0 L2,0 L2,5 L-2,4 L-2,2 L0,2 Z " fill="#181C19" transform="translate(98,46)"/>
<path d="M0,0 L4,2 L1,4 L-4,4 L0,3 Z " fill="#131713" transform="translate(129,0)"/>
<path d="M0,0 L5,1 L5,3 L0,2 Z " fill="#080C0F" transform="translate(111,58)"/>
<path d="M0,0 L2,0 L1,5 L-1,4 Z " fill="#0F1316" transform="translate(66,47)"/>
<path d="M0,0 L5,0 L3,3 L-1,1 Z " fill="#08100D" transform="translate(106,30)"/>
<path d="M0,0 L3,1 L3,4 L0,4 Z " fill="#221A1C" transform="translate(33,80)"/>
<path d="M0,0 L4,0 L4,3 L0,2 Z " fill="#171B22" transform="translate(126,66)"/>
<path d="M0,0 L3,3 L-1,5 Z " fill="#1D211B" transform="translate(79,52)"/>
<path d="M0,0 L2,0 L3,4 L0,4 Z " fill="#27292B" transform="translate(74,39)"/>
<path d="M0,0 L3,0 L3,3 L0,3 Z " fill="#292A26" transform="translate(27,61)"/>
<path d="M0,0 L4,2 L0,3 Z " fill="#100C12" transform="translate(16,52)"/>
<path d="M0,0 L2,2 L1,5 L-1,4 Z " fill="#364A48" transform="translate(60,37)"/>
<path d="M0,0 L3,0 L3,3 L0,3 Z " fill="#151A12" transform="translate(140,35)"/>
<path d="M0,0 L2,0 L2,3 L-3,2 Z " fill="#232223" transform="translate(46,19)"/>
<path d="M0,0 L3,2 L0,5 L-1,1 Z " fill="#0A0B09" transform="translate(103,7)"/>
<path d="M0,0 L3,0 L2,3 L0,3 Z " fill="#2E3231" transform="translate(10,62)"/>
<path d="M0,0 L2,0 L1,3 L-1,3 Z " fill="#0C0D10" transform="translate(39,27)"/>
</svg>
