<?xml version="1.0" encoding="UTF-8"?>
<!-- Generator: visioncortex VTracer 0.6.5 -->
<svg version="1.1" xmlns="http://www.w3.org/2000/svg" width="150" height="84">
<path d="M0,0 L150,0 L150,84 L0,84 Z " fill="#1D191D" transform="translate(0,0)"/>
<path d="M0,0 L88,0 L88,3 L85,3 L85,5 L80,6 L80,8 L78,8 L78,13 L75,14 L70,12 L70,14 L72,14 L72,19 L65,22 L61,22 L60,24 L60,21 L55,23 L52,23 L52,25 L50,26 L50,29 L52,28 L63,28 L63,30 L65,30 L65,33 L58,35 L61,30 L56,32 L49,32 L49,28 L45,29 L47,34 L45,34 L45,32 L42,32 L43,37 L42,40 L40,40 L40,37 L38,37 L39,40 L41,41 L43,45 L48,45 L49,46 L49,38 L45,38 L45,36 L55,35 L53,36 L53,39 L51,39 L52,44 L57,43 L58,45 L53,46 L52,48 L54,48 L54,46 L56,46 L56,51 L63,51 L66,50 L66,47 L73,47 L75,48 L73,53 L72,55 L69,55 L70,52 L67,51 L66,58 L68,59 L67,61 L71,61 L71,58 L74,58 L74,56 L77,56 L78,52 L79,55 L87,57 L87,55 L81,55 L80,53 L86,53 L86,50 L81,49 L81,44 L88,46 L91,46 L96,48 L97,45 L100,45 L99,49 L101,49 L101,44 L104,45 L104,37 L108,38 L108,40 L116,38 L116,44 L112,42 L111,49 L109,49 L109,51 L103,54 L101,58 L94,60 L87,62 L86,64 L91,65 L90,67 L81,70 L76,74 L77,79 L79,79 L78,82 L68,84 L0,84 Z " fill="#301B16" transform="translate(0,0)"/>
<path d="M0,0 L18,0 L19,3 L33,4 L33,6 L35,7 L30,8 L29,10 L22,10 L17,11 L16,12 L16,14 L19,13 L19,15 L25,16 L25,19 L27,19 L27,21 L29,21 L28,26 L27,24 L23,24 L23,22 L19,21 L19,19 L17,19 L18,15 L11,14 L2,14 L-1,16 L-11,15 L-11,17 L-7,17 L-7,21 L-5,21 L-6,18 L6,18 L7,16 L8,20 L13,19 L13,17 L16,18 L14,19 L18,23 L18,25 L8,24 L6,23 L6,25 L10,27 L14,28 L14,30 L16,30 L17,35 L26,34 L26,36 L30,37 L30,35 L34,37 L34,46 L33,50 L38,50 L38,52 L34,52 L32,61 L34,65 L34,70 L30,70 L29,68 L26,66 L28,63 L23,65 L25,61 L27,61 L27,57 L30,57 L29,50 L32,49 L32,45 L26,46 L24,52 L24,54 L26,54 L26,56 L23,56 L22,60 L21,62 L18,61 L17,63 L20,64 L18,65 L17,69 L15,69 L14,65 L8,66 L8,68 L-2,73 L-5,73 L-5,75 L1,76 L1,79 L-3,80 L-3,84 L-20,84 L-18,82 L-10,81 L-9,79 L-11,79 L-11,75 L-13,74 L-10,73 L-9,70 L-3,67 L2,66 L-3,65 L-1,61 L8,58 L14,56 L14,53 L18,51 L21,51 L21,49 L23,49 L24,42 L27,43 L28,38 L24,40 L20,40 L19,38 L16,37 L17,46 L14,45 L13,49 L11,49 L12,45 L9,46 L8,48 L3,47 L0,47 L-6,45 L-7,49 L-2,49 L-1,51 L-2,53 L-7,54 L-1,55 L-1,57 L-9,56 L-11,56 L-14,56 L-14,58 L-17,58 L-17,61 L-21,61 L-22,56 L-21,51 L-16,51 L-19,55 L-16,55 L-14,50 L-13,48 L-22,47 L-22,50 L-25,52 L-35,52 L-32,51 L-32,46 L-34,46 L-34,48 L-36,48 L-35,45 L-37,45 L-38,41 L-37,39 L-35,39 L-35,36 L-43,36 L-43,38 L-39,38 L-38,47 L-40,47 L-40,45 L-46,46 L-47,41 L-51,39 L-50,36 L-47,37 L-48,40 L-46,40 L-47,34 L-46,32 L-43,32 L-43,29 L-39,28 L-39,32 L-32,31 L-27,30 L-28,34 L-23,33 L-23,30 L-25,30 L-25,28 L-38,29 L-39,25 L-36,25 L-36,23 L-28,21 L-27,22 L-17,19 L-16,17 L-18,16 L-16,16 L-16,14 L-18,14 L-18,12 L-11,13 L-10,8 L-8,8 L-8,6 L-13,6 L-13,5 L-3,5 L-3,3 L0,3 Z " fill="#090403" transform="translate(88,0)"/>
<path d="M0,0 L5,2 L7,3 L7,8 L11,10 L9,10 L8,13 L7,10 L-1,14 L2,15 L4,20 L8,22 L8,24 L10,24 L9,20 L14,21 L15,23 L23,23 L23,25 L27,26 L27,28 L21,28 L16,26 L15,29 L18,28 L17,31 L13,29 L6,25 L0,24 L0,27 L-9,25 L-9,28 L0,30 L0,33 L7,33 L7,35 L13,36 L17,38 L18,35 L22,35 L22,37 L28,37 L28,34 L39,36 L39,39 L44,40 L44,42 L32,39 L32,37 L30,37 L30,39 L22,40 L22,42 L30,43 L30,45 L22,44 L15,42 L15,44 L35,47 L39,47 L39,43 L48,42 L53,43 L53,41 L56,41 L55,38 L58,36 L58,38 L60,39 L62,34 L62,33 L60,33 L61,30 L72,30 L72,28 L66,28 L65,26 L71,26 L71,23 L66,22 L66,17 L73,19 L76,19 L81,21 L82,18 L85,18 L84,22 L86,22 L86,17 L89,18 L89,10 L93,11 L93,13 L101,11 L101,17 L97,15 L96,22 L94,22 L94,24 L88,27 L86,31 L79,33 L72,35 L71,37 L76,38 L75,40 L66,43 L61,47 L62,52 L64,52 L63,55 L53,57 L-15,57 L-15,12 L-4,10 L-7,7 L-6,2 L-2,1 L-3,6 L0,3 Z " fill="#2E3032" transform="translate(15,27)"/>
<path d="M0,0 L5,2 L7,3 L7,8 L11,10 L9,10 L8,13 L7,10 L-1,14 L2,15 L4,20 L8,22 L8,24 L10,24 L9,20 L14,21 L15,23 L23,23 L23,25 L27,26 L27,28 L21,28 L16,26 L15,29 L18,28 L17,31 L13,29 L6,25 L0,24 L0,27 L-9,25 L-9,28 L0,30 L0,33 L7,33 L7,35 L13,36 L17,38 L18,35 L22,35 L22,37 L28,37 L28,34 L39,36 L39,39 L44,40 L44,42 L32,39 L32,37 L30,37 L30,39 L22,40 L22,42 L30,43 L30,45 L22,44 L15,42 L15,44 L35,47 L39,47 L39,43 L54,44 L56,48 L56,51 L49,51 L51,50 L51,48 L42,50 L24,49 L25,51 L11,50 L0,48 L-1,45 L-6,45 L-7,44 L-12,44 L-12,42 L-15,42 L-15,12 L-4,10 L-7,7 L-6,2 L-2,1 L-3,6 L0,3 Z " fill="#949096" transform="translate(15,27)"/>
<path d="M0,0 L4,1 L2,1 L2,4 L0,4 L1,9 L6,8 L7,10 L2,11 L1,13 L3,13 L3,11 L5,11 L5,16 L12,16 L15,15 L15,12 L22,12 L24,13 L22,18 L21,20 L18,20 L19,17 L16,16 L15,23 L17,24 L16,26 L20,26 L20,23 L23,23 L23,21 L26,21 L27,17 L28,20 L33,21 L29,23 L25,23 L24,25 L27,24 L28,26 L26,26 L24,31 L21,30 L20,33 L17,33 L17,35 L10,35 L4,36 L3,40 L-16,38 L-21,36 L-21,34 L-14,35 L-6,37 L-6,35 L-14,34 L-14,32 L-6,31 L-6,29 L-4,29 L-4,31 L6,33 L8,34 L7,32 L3,31 L3,28 L-4,28 L-7,27 L-8,30 L-14,29 L-14,27 L-18,28 L-19,30 L-29,27 L-29,25 L-36,25 L-36,22 L-43,21 L-45,20 L-45,17 L-36,19 L-36,16 L-30,16 L-22,21 L-21,21 L-22,18 L-19,17 L-15,19 L-9,20 L-10,17 L-7,16 L-8,13 L-6,10 L-3,10 L-2,11 L-2,3 L-6,3 L-6,1 Z " fill="#3A3A47" transform="translate(51,35)"/>
<path d="M0,0 L20,0 L20,49 L16,49 L15,56 L13,57 L12,61 L10,61 L10,64 L6,68 L5,70 L2,70 L1,63 L4,59 L-1,63 L-2,66 L-5,66 L-5,68 L-7,68 L-6,64 L-4,64 L-4,62 L-2,62 L-2,59 L0,59 L0,52 L5,53 L7,54 L9,46 L8,42 L2,41 L2,44 L0,44 L0,42 L-6,41 L-5,39 L5,39 L1,35 L1,33 L-1,33 L-1,30 L-4,29 L-1,28 L1,28 L1,30 L3,30 L-1,26 L-1,23 L-3,23 L-5,19 L0,20 L3,25 L8,30 L9,34 L5,33 L4,35 L10,36 L10,34 L18,34 L18,30 L15,30 L14,23 L10,21 L7,19 L0,19 L-9,16 L-10,12 L-5,12 L-5,14 L1,15 L-7,10 L-7,9 L0,9 L10,13 L5,8 L1,7 L1,5 L3,4 Z " fill="#131727" transform="translate(130,0)"/>
<path d="M0,0 L48,0 L48,3 L45,3 L45,5 L40,6 L40,8 L38,8 L38,13 L35,14 L30,12 L30,14 L32,14 L32,19 L25,22 L21,22 L20,24 L20,21 L15,23 L5,25 L-3,26 L-7,23 L-7,21 L-10,24 L-10,18 L-12,18 L-12,16 L-10,16 L-10,14 L-3,13 L-3,11 L0,11 Z " fill="#201310" transform="translate(40,0)"/>
<path d="M0,0 L4,0 L4,35 L-46,35 L-46,33 L-50,32 L-44,30 L-44,28 L-41,27 L-40,24 L-36,24 L-36,21 L-29,21 L-29,23 L-31,24 L-33,28 L-36,28 L-37,31 L-39,32 L-36,33 L-36,31 L-33,31 L-32,28 L-27,26 L-24,25 L-24,23 L-18,22 L-18,14 L-12,9 L-12,12 L-14,14 L-14,21 L-11,21 L-9,16 L-6,15 L-6,12 L-4,12 L-3,7 Z " fill="#1E2E3D" transform="translate(146,49)"/>
<path d="M0,0 L6,0 L4,1 L3,5 L7,7 L8,8 L8,4 L5,4 L5,2 L12,1 L12,3 L14,3 L15,8 L24,7 L24,9 L28,10 L28,8 L32,10 L32,19 L31,23 L36,23 L36,25 L32,25 L30,34 L32,38 L32,43 L28,43 L27,41 L24,39 L26,36 L21,38 L23,34 L25,34 L25,30 L28,30 L27,23 L30,22 L30,18 L24,19 L22,25 L22,27 L24,27 L24,29 L21,29 L20,33 L19,35 L16,34 L15,36 L18,37 L16,38 L15,42 L13,42 L12,38 L6,39 L6,41 L-4,46 L-7,46 L-7,48 L-1,49 L-1,52 L-5,53 L-5,57 L-22,57 L-20,55 L-12,54 L-11,52 L-13,52 L-13,48 L-15,47 L-12,46 L-11,43 L-5,40 L0,39 L-5,38 L-3,34 L6,31 L12,29 L12,26 L16,24 L19,24 L19,22 L21,22 L22,15 L25,16 L26,11 L22,13 L18,13 L17,11 L14,10 L13,14 L13,8 L11,8 L11,13 L3,12 L3,8 L-5,9 L-3,5 L-2,1 Z " fill="#141520" transform="translate(90,27)"/>
<path d="M0,0 L6,0 L6,4 L4,5 L4,12 L1,12 L1,16 L-3,20 L2,18 L1,21 L5,25 L7,25 L7,17 L9,16 L10,11 L12,11 L12,15 L14,14 L14,17 L12,17 L12,19 L10,19 L9,23 L11,23 L11,21 L15,22 L14,26 L8,27 L8,29 L4,32 L0,33 L-1,35 L-4,35 L-4,37 L-8,36 L-4,32 L-1,31 L1,27 L3,27 L3,25 L-4,25 L-4,28 L-8,28 L-9,32 L-12,32 L-12,34 L-10,35 L-16,36 L-14,37 L-14,39 L-29,39 L-29,35 L-31,34 L-25,34 L-25,31 L-31,30 L-31,28 L-21,23 L-18,23 L-18,21 L-12,20 L-11,24 L-9,24 L-9,19 L-7,19 L-9,18 L-8,15 L-7,17 L-5,17 L-3,11 L0,11 L0,9 L-2,9 L-3,6 Z " fill="#76889A" transform="translate(114,45)"/>
<path d="M0,0 L5,0 L5,2 L3,3 L3,6 L5,5 L16,5 L16,7 L18,7 L18,10 L11,12 L14,7 L9,9 L2,9 L2,5 L-2,6 L0,11 L-2,11 L-2,9 L-5,9 L-4,14 L-5,17 L-7,17 L-7,14 L-9,14 L-8,17 L-6,18 L-4,22 L-2,24 L-3,28 L-7,30 L-9,29 L-9,27 L-17,28 L-18,25 L-22,25 L-21,29 L-24,28 L-24,26 L-29,25 L-30,19 L-34,18 L-30,16 L-25,13 L-24,16 L-22,12 L-13,9 L-13,7 L-10,5 L-13,5 L-13,2 L-2,1 Z " fill="#5D4641" transform="translate(47,23)"/>
<path d="M0,0 L3,0 L3,2 L9,1 L9,3 L14,3 L15,5 L34,8 L39,8 L37,6 L59,8 L60,13 L54,15 L0,15 Z " fill="#04071A" transform="translate(0,69)"/>
<path d="M0,0 L5,2 L7,3 L7,8 L11,10 L9,10 L8,13 L7,10 L-1,14 L2,15 L4,20 L8,22 L8,24 L10,24 L9,20 L14,21 L15,23 L23,23 L23,25 L27,26 L27,28 L21,28 L16,26 L15,29 L18,28 L17,31 L13,29 L6,25 L0,24 L0,27 L-9,25 L-9,28 L-7,29 L-9,30 L-9,32 L-7,33 L-10,33 L-10,35 L-13,35 L-13,29 L-15,28 L-15,12 L-4,10 L-7,7 L-6,2 L-2,1 L-3,6 L0,3 Z " fill="#4B3634" transform="translate(15,27)"/>
<path d="M0,0 L18,0 L19,3 L33,4 L33,6 L35,7 L30,8 L29,10 L22,10 L17,11 L16,12 L16,14 L19,13 L19,15 L25,16 L25,19 L27,19 L27,21 L29,21 L28,26 L27,24 L23,24 L23,22 L19,21 L19,19 L17,19 L18,15 L11,14 L-5,14 L-8,11 L-7,6 L-13,6 L-13,5 L-3,5 L-3,3 L0,3 Z " fill="#05030A" transform="translate(88,0)"/>
<path d="M0,0 L2,0 L2,2 L7,4 L7,7 L9,7 L9,9 L13,11 L13,13 L3,14 L2,15 L8,16 L8,18 L10,18 L10,15 L16,16 L16,19 L18,20 L15,28 L9,27 L8,33 L3,35 L4,30 L2,30 L2,37 L-3,36 L0,26 L4,26 L4,24 L-1,24 L0,16 L-2,15 L0,15 L0,13 L-2,12 L5,12 L5,10 L0,9 Z " fill="#495266" transform="translate(122,26)"/>
<path d="M0,0 L3,0 L3,2 L13,2 L16,3 L17,5 L25,4 L25,6 L45,9 L49,9 L49,5 L64,6 L66,10 L66,13 L59,13 L61,12 L61,10 L52,12 L34,11 L35,13 L21,12 L10,10 L9,7 L4,7 L3,6 L-2,6 L-2,4 L-5,4 L-5,2 L0,2 Z " fill="#C2D3DF" transform="translate(5,65)"/>
<path d="M0,0 L7,0 L7,3 L13,3 L12,5 L3,8 L-2,12 L-1,17 L1,17 L0,20 L-10,22 L-24,22 L-22,20 L-18,20 L-18,18 L-20,17 L-19,15 L-21,14 L-12,13 L-12,15 L-7,16 L-8,11 L-10,10 L-19,9 L-15,7 L-10,8 L-10,6 L-7,6 L-8,3 L-5,1 L-5,3 L-3,4 L-3,2 L0,2 Z " fill="#303B4D" transform="translate(78,62)"/>
<path d="M0,0 L7,0 L7,11 L4,11 L4,13 L-3,14 L-3,16 L-5,16 L-5,18 L-3,18 L-2,23 L0,20 L2,21 L2,24 L1,28 L7,27 L4,30 L1,30 L1,32 L-8,36 L-9,34 L-7,34 L-7,32 L-10,32 L-10,30 L-4,29 L-4,22 L-6,22 L-6,18 L-12,18 L-13,20 L-18,20 L-17,17 L-14,17 L-14,15 L-11,13 L-8,13 L-8,11 L-11,11 L-11,8 L-1,7 L-3,12 L0,12 Z " fill="#2D1B15" transform="translate(33,0)"/>
<path d="M0,0 L2,0 L2,4 L9,3 L14,2 L13,6 L16,7 L14,7 L15,12 L13,13 L15,18 L10,18 L15,19 L15,21 L9,23 L9,18 L7,18 L7,20 L5,20 L6,17 L4,17 L3,13 L4,11 L6,11 L6,8 L-2,8 L-2,10 L2,10 L3,19 L1,19 L1,17 L-5,18 L-6,13 L-10,11 L-9,8 L-6,9 L-7,12 L-5,12 L-6,6 L-5,4 L-2,4 L-2,1 Z " fill="#211210" transform="translate(47,28)"/>
<path d="M0,0 L2,4 L7,3 L7,1 L10,2 L8,3 L12,7 L12,9 L2,8 L0,7 L0,9 L-5,10 L-7,9 L-7,6 L-10,7 L-13,6 L-14,10 L-8,10 L-10,12 L-12,11 L-12,16 L-18,18 L-27,20 L-25,14 L-29,12 L-29,9 L-24,8 L-23,11 L-19,10 L-16,7 L-16,1 L-13,1 L-13,5 L-11,5 L-12,2 L0,2 Z " fill="#301C17" transform="translate(94,16)"/>
<path d="M0,0 L9,0 L16,2 L15,6 L17,6 L17,8 L21,9 L21,11 L23,11 L23,14 L27,15 L26,18 L24,18 L24,16 L19,14 L19,12 L17,12 L20,15 L20,17 L22,17 L22,19 L17,20 L14,19 L14,17 L12,17 L12,15 L9,16 L4,12 L4,10 L11,10 L16,12 L16,10 L12,8 L13,5 L11,4 L11,6 L6,7 L4,5 L-5,6 L-7,6 L-7,8 L-9,8 L-9,4 L-13,4 L-13,2 L-2,2 Z " fill="#423635" transform="translate(90,13)"/>
<path d="M0,0 L3,0 L3,6 L4,9 L8,10 L14,12 L15,15 L18,17 L18,19 L16,19 L16,17 L13,18 L9,17 L9,15 L7,15 L8,22 L7,24 L12,25 L12,27 L7,27 L3,24 L3,26 L-1,25 L-1,23 L-10,24 L-10,21 L-3,21 L-3,19 L-5,19 L-5,17 L-8,16 L-8,14 L-6,14 L-6,16 L-1,18 L-1,20 L2,17 L-2,16 L-2,13 L1,12 L2,10 L0,10 L0,8 L-2,8 L-2,5 L-4,5 L-4,3 L0,3 Z " fill="#1B1824" transform="translate(115,11)"/>
<path d="M0,0 L7,0 L7,2 L5,3 L3,7 L0,7 L-1,10 L-3,11 L0,12 L0,10 L3,10 L4,7 L9,5 L12,4 L12,2 L21,0 L21,3 L18,4 L17,7 L14,9 L13,14 L-10,14 L-10,12 L-14,11 L-8,9 L-8,7 L-5,6 L-4,3 L0,3 Z " fill="#080F1B" transform="translate(110,70)"/>
<path d="M0,0 L2,1 L1,5 L5,10 L13,9 L15,10 L15,12 L17,12 L16,8 L21,9 L22,11 L30,11 L30,13 L34,14 L34,16 L28,16 L23,14 L22,17 L25,16 L24,19 L20,17 L13,13 L7,12 L7,15 L-2,13 L-2,16 L0,17 L-2,18 L-2,20 L0,21 L-3,21 L-3,23 L-6,23 L-6,17 L-8,16 L-8,10 L-6,10 L-5,8 L-2,8 L-2,10 L0,10 L-1,5 L-5,5 L-4,1 Z " fill="#989AA2" transform="translate(8,39)"/>
<path d="M0,0 L4,0 L4,2 L17,3 L27,6 L46,8 L48,10 L0,10 Z " fill="#716E75" transform="translate(0,74)"/>
<path d="M0,0 L4,0 L4,2 L2,3 L8,4 L8,7 L1,5 L1,7 L3,7 L3,12 L-4,15 L-8,15 L-9,17 L-9,14 L-14,16 L-24,18 L-32,19 L-31,16 L-28,14 L-24,14 L-24,12 L-17,11 L-17,13 L-14,13 L-14,11 L-10,11 L-9,9 L-14,10 L-21,10 L-21,8 L-16,7 L-7,7 L-5,7 L-3,6 L-3,4 L-1,3 Z " fill="#736461" transform="translate(69,7)"/>
<path d="M0,0 L25,0 L25,3 L22,3 L22,5 L17,6 L17,8 L15,8 L15,13 L14,11 L8,11 L7,9 L10,9 L10,7 L6,7 L5,11 L3,11 L4,14 L-1,16 L-1,14 L-3,13 L0,10 L-2,9 Z " fill="#47332D" transform="translate(63,0)"/>
<path d="M0,0 L2,0 L2,18 L-24,18 L-24,16 L-15,15 L-13,10 L-9,10 L-8,7 L-3,4 L-1,4 Z " fill="#0C1628" transform="translate(148,66)"/>
<path d="M0,0 L4,1 L3,10 L2,11 L4,13 L2,14 L1,18 L-1,18 L-1,21 L-5,25 L-6,27 L-9,27 L-10,20 L-7,16 L-12,20 L-13,23 L-16,23 L-16,25 L-18,25 L-17,21 L-15,21 L-15,19 L-13,19 L-13,16 L-11,16 L-11,9 L-3,10 L-2,7 L0,7 Z " fill="#051121" transform="translate(141,43)"/>
<path d="M0,0 L6,0 L4,1 L3,5 L7,7 L8,8 L8,4 L5,4 L5,2 L12,1 L12,3 L14,3 L15,8 L24,7 L24,9 L26,9 L26,11 L22,13 L18,13 L17,11 L14,10 L13,14 L13,8 L11,8 L11,13 L3,12 L3,8 L-5,9 L-3,5 L-2,1 Z " fill="#221C21" transform="translate(90,27)"/>
<path d="M0,0 L14,0 L14,2 L12,2 L12,6 L14,6 L14,11 L10,11 L10,13 L7,14 L6,16 L0,16 Z " fill="#A89287" transform="translate(0,0)"/>
<path d="M0,0 L6,1 L12,2 L17,6 L18,13 L21,13 L21,17 L13,17 L13,19 L7,18 L7,13 L9,16 L11,16 L8,11 L3,6 L3,3 L0,3 Z " fill="#737887" transform="translate(127,17)"/>
<path d="M0,0 L1,2 L7,1 L11,4 L9,4 L9,7 L15,5 L15,7 L9,10 L5,9 L5,7 L3,7 L2,9 L4,9 L3,14 L7,13 L7,18 L12,19 L12,22 L0,23 Z " fill="#1D0C09" transform="translate(0,16)"/>
<path d="M0,0 L17,0 L17,12 L14,12 L16,7 L11,8 L6,8 L6,11 L9,11 L9,13 L4,13 L4,11 L-1,12 Z " fill="#816A63" transform="translate(16,0)"/>
<path d="M0,0 L3,0 L3,2 L13,2 L16,3 L17,5 L25,4 L26,9 L21,11 L10,10 L9,7 L4,7 L3,6 L-2,6 L-2,4 L-5,4 L-5,2 L0,2 Z " fill="#909EA6" transform="translate(5,65)"/>
<path d="M0,0 L6,0 L9,3 L8,7 L12,9 L12,11 L15,11 L15,8 L22,9 L29,12 L28,14 L22,13 L22,11 L18,12 L17,14 L7,11 L7,9 L0,9 L0,6 L-7,5 L-9,4 L-9,1 L0,3 Z " fill="#0B0E12" transform="translate(15,51)"/>
<path d="M0,0 L3,1 L2,7 L5,7 L5,5 L8,5 L8,7 L17,7 L30,12 L29,15 L21,16 L21,13 L8,12 L8,10 L5,10 L5,12 L0,12 Z " fill="#24303D" transform="translate(0,55)"/>
<path d="M0,0 L2,0 L2,2 L7,4 L7,7 L9,7 L9,9 L13,11 L13,13 L3,14 L2,15 L6,16 L4,23 L-1,24 L0,16 L-2,15 L0,15 L0,13 L-2,12 L5,12 L5,10 L0,9 Z " fill="#6B6F7A" transform="translate(122,26)"/>
<path d="M0,0 L4,1 L2,1 L2,4 L0,4 L1,9 L6,8 L7,10 L2,11 L1,13 L3,13 L3,11 L5,11 L5,16 L0,15 L-2,14 L-1,19 L1,19 L1,21 L-6,23 L-8,20 L-10,17 L-7,16 L-8,13 L-6,10 L-3,10 L-2,11 L-2,3 L-6,3 L-6,1 Z " fill="#4F413F" transform="translate(51,35)"/>
<path d="M0,0 L1,3 L6,0 L11,0 L9,2 L5,4 L2,4 L2,6 L8,7 L8,10 L4,11 L4,15 L-13,15 L-11,13 L-3,12 L-2,10 L-4,10 L-4,6 L-6,5 L-3,4 L-2,1 Z " fill="#282F40" transform="translate(81,69)"/>
<path d="M0,0 L2,0 L2,4 L4,3 L4,6 L2,6 L2,8 L0,8 L-1,12 L1,12 L1,10 L5,11 L4,15 L-2,16 L-2,18 L-6,21 L-10,22 L-11,24 L-14,24 L-14,26 L-18,25 L-14,21 L-11,20 L-9,16 L-7,16 L-7,14 L-14,14 L-12,12 L-10,13 L-10,11 L-6,12 L-5,14 L-3,14 L-3,6 L-1,5 Z " fill="#616E7F" transform="translate(124,56)"/>
<path d="M0,0 L22,0 L27,5 L23,5 L23,7 L28,8 L32,11 L32,13 L26,12 L17,7 L16,3 L6,3 L0,1 Z " fill="#3A4456" transform="translate(108,0)"/>
<path d="M0,0 L4,1 L-2,4 L-3,6 L-4,7 L-2,7 L-2,5 L4,4 L4,2 L6,2 L4,6 L2,8 L-4,10 L1,12 L3,16 L-12,16 L-12,12 L-14,11 L-8,11 L-8,8 L-10,8 L-9,5 L-1,1 Z " fill="#8090A0" transform="translate(97,68)"/>
<path d="M0,0 L12,0 L11,4 L5,4 L6,7 L9,6 L9,8 L15,9 L15,12 L17,12 L17,14 L19,14 L18,19 L17,17 L13,17 L13,15 L9,14 L9,12 L7,12 L8,8 L-3,6 L-1,5 Z " fill="#120E12" transform="translate(98,7)"/>
<path d="M0,0 L5,0 L6,3 L11,4 L13,9 L13,11 L7,12 L6,9 L3,8 L2,3 L2,2 L-2,3 L-3,6 L1,6 L2,11 L0,11 L0,9 L-3,9 L-4,12 L-6,11 L-6,1 Z " fill="#706D71" transform="translate(6,38)"/>
<path d="M0,0 L14,0 L14,2 L10,3 L8,5 L5,4 L5,6 L3,6 L2,9 L-6,9 L-3,12 L-3,10 L3,11 L2,13 L-5,14 L-8,11 L-7,6 L-13,6 L-13,5 L-3,5 L-3,3 L0,3 Z " fill="#050202" transform="translate(88,0)"/>
<path d="M0,0 L2,0 L2,11 L6,11 L6,13 L8,14 L5,15 L5,17 L-3,20 L-7,19 L-7,17 L-13,18 L-13,16 L-8,16 L-7,13 L-4,13 L-4,11 L0,11 L0,6 L-2,6 L-2,2 L0,2 Z " fill="#36201A" transform="translate(14,0)"/>
<path d="M0,0 L3,0 L3,9 L2,14 L2,17 L-3,18 L-3,20 L-7,21 L-10,24 L-10,18 L-12,18 L-12,16 L-10,16 L-10,14 L-3,13 L-3,11 L0,11 Z " fill="#A79791" transform="translate(40,0)"/>
<path d="M0,0 L7,0 L7,3 L13,3 L12,5 L3,8 L-2,12 L-4,12 L-6,9 L-9,7 L-7,7 L-8,3 L-5,1 L-5,3 L-3,4 L-3,2 L0,2 Z " fill="#93A0AB" transform="translate(78,62)"/>
<path d="M0,0 L3,0 L3,2 L9,1 L9,3 L14,3 L15,5 L22,6 L22,9 L31,9 L32,12 L22,11 L17,9 L4,7 L4,5 L0,5 Z " fill="#2D3946" transform="translate(0,69)"/>
<path d="M0,0 L9,0 L16,2 L15,5 L11,4 L11,6 L6,7 L4,5 L-5,6 L-7,6 L-7,8 L-9,8 L-9,4 L-13,4 L-13,2 L-2,2 Z " fill="#4A3833" transform="translate(90,13)"/>
<path d="M0,0 L12,0 L12,10 L10,10 L9,7 L7,11 L4,13 L-3,14 L-3,12 L0,10 L5,10 L5,7 L0,7 Z " fill="#959093" transform="translate(46,0)"/>
<path d="M0,0 L6,0 L6,4 L4,5 L4,12 L1,12 L1,16 L-5,21 L-9,21 L-8,19 L-9,16 L-7,15 L-7,17 L-5,17 L-3,11 L0,11 L0,9 L-2,9 L-3,6 Z " fill="#6F7D8E" transform="translate(114,45)"/>
<path d="M0,0 L2,0 L3,5 L1,8 L-2,8 L-2,10 L2,10 L3,19 L1,19 L1,17 L-5,18 L-6,13 L-10,11 L-9,8 L-6,9 L-7,12 L-5,12 L-6,6 L-5,4 L-2,4 L-2,1 Z " fill="#331C18" transform="translate(47,28)"/>
<path d="M0,0 L3,0 L1,4 L-2,5 L-1,10 L0,17 L-3,20 L-8,19 L-8,17 L-13,15 L-14,12 L-12,12 L-11,10 L-10,13 L-6,14 L-6,8 L-2,1 Z " fill="#0A0101" transform="translate(37,31)"/>
<path d="M0,0 L2,0 L2,3 L0,3 L-1,7 L-8,11 L-9,13 L-13,13 L-15,18 L-24,19 L-25,21 L-25,16 L-23,14 L-13,11 L-11,9 L-8,9 L-7,6 Z " fill="#758BA0" transform="translate(148,63)"/>
<path d="M0,0 L4,1 L4,3 L12,1 L12,7 L8,5 L7,12 L5,12 L5,14 L-2,15 L-2,11 L0,9 Z " fill="#3A373E" transform="translate(104,37)"/>
<path d="M0,0 L9,1 L16,3 L35,5 L37,7 L9,7 L9,5 L4,5 L4,3 L0,2 Z " fill="#9AACBE" transform="translate(11,77)"/>
<path d="M0,0 L7,3 L7,7 L12,7 L13,11 L7,10 L-1,7 L-1,10 L-4,10 L-8,6 L-8,2 L-3,3 L1,5 L-2,2 Z " fill="#59545D" transform="translate(31,52)"/>
<path d="M0,0 L2,0 L0,4 L-7,6 L-14,8 L-16,10 L-16,8 L-25,10 L-24,6 L-26,6 L-25,3 L-10,3 L-8,2 L-2,1 Z " fill="#43444A" transform="translate(101,54)"/>
<path d="M0,0 L20,0 L20,6 L10,6 L10,8 L7,8 L7,4 L1,2 Z " fill="#000108" transform="translate(130,0)"/>
<path d="M0,0 L2,0 L3,3 L9,5 L6,7 L12,8 L12,10 L4,9 L2,9 L-1,9 L-1,11 L-4,11 L-4,14 L-8,14 L-9,9 L-8,4 L-3,4 L-6,8 L-3,8 L-1,3 Z " fill="#1A1517" transform="translate(75,47)"/>
<path d="M0,0 L6,2 L15,5 L14,9 L-5,7 L-10,5 L-10,3 L-3,4 L5,6 L5,4 L-3,3 L-3,1 Z " fill="#545864" transform="translate(40,66)"/>
<path d="M0,0 L7,0 L9,1 L7,6 L6,8 L3,8 L4,5 L1,4 L0,11 L2,12 L1,14 L6,14 L2,16 L-9,13 L-9,11 L-3,11 L-2,7 L0,7 L-1,5 L-3,4 L0,3 Z " fill="#1F1D20" transform="translate(66,47)"/>
<path d="M0,0 L5,0 L5,6 L3,9 L9,9 L5,11 L2,14 L-6,14 L-4,5 L-2,7 L-2,10 L0,10 Z " fill="#230D08" transform="translate(58,0)"/>
<path d="M0,0 L2,0 L2,2 L15,4 L16,1 L25,1 L26,4 L23,4 L23,6 L16,6 L12,7 L9,6 L8,8 L1,5 L-4,3 L0,2 Z " fill="#050A19" transform="translate(45,64)"/>
<path d="M0,0 L7,0 L7,2 L5,3 L3,7 L0,7 L-1,10 L-7,11 L-7,13 L-10,14 L-10,12 L-14,11 L-8,9 L-8,7 L-5,6 L-4,3 L0,3 Z " fill="#222F3F" transform="translate(110,70)"/>
<path d="M0,0 L6,0 L6,2 L10,2 L9,9 L5,11 L0,11 Z " fill="#0D0403" transform="translate(0,0)"/>
<path d="M0,0 L7,2 L10,2 L15,4 L16,1 L19,1 L18,7 L15,7 L15,10 L13,10 L13,8 L8,8 L8,6 L0,5 Z " fill="#666464" transform="translate(81,44)"/>
<path d="M0,0 L11,2 L11,5 L16,6 L16,8 L4,5 L4,3 L2,3 L2,5 L-4,6 L-4,4 L-9,7 L-15,4 L-13,3 L-11,4 L-10,1 L-6,1 L-6,3 L0,3 Z " fill="#797D85" transform="translate(43,61)"/>
<path d="M0,0 L1,3 L-1,4 L-2,7 L-8,7 L-8,9 L-4,9 L-4,12 L-12,11 L-18,9 L-17,7 L-11,7 L-10,4 L-8,4 L-8,2 Z " fill="#87858C" transform="translate(65,51)"/>
<path d="M0,0 L1,3 L4,5 L3,7 L1,7 L4,11 L4,13 L3,16 L1,15 L1,13 L-4,12 L-5,6 L-9,5 L-5,3 Z " fill="#3E271E" transform="translate(22,36)"/>
<path d="M0,0 L7,0 L11,4 L17,6 L18,8 L6,9 L-2,7 L-3,3 L2,3 L2,5 L8,6 L0,1 Z " fill="#0C0C19" transform="translate(123,9)"/>
<path d="M0,0 L3,0 L3,7 L8,7 L8,10 L0,12 L0,14 L10,11 L10,15 L5,15 L5,17 L3,17 L3,15 L1,15 L1,17 L-1,16 L-2,13 Z " fill="#2B1F1D" transform="translate(43,0)"/>
<path d="M0,0 L3,0 L3,6 L4,9 L8,10 L13,12 L13,14 L8,14 L4,10 L4,12 L6,12 L6,18 L4,14 L2,14 L2,10 L0,10 L0,8 L-2,8 L-2,5 L-4,5 L-4,3 L0,3 Z " fill="#53515B" transform="translate(115,11)"/>
<path d="M0,0 L5,3 L7,7 L9,9 L8,13 L4,15 L2,14 L2,12 L-3,12 L0,9 L-1,3 Z " fill="#483028" transform="translate(36,38)"/>
<path d="M0,0 L6,0 L4,1 L3,5 L7,7 L7,10 L10,11 L10,13 L3,12 L3,8 L-5,9 L-3,5 L-2,1 Z " fill="#272524" transform="translate(90,27)"/>
<path d="M0,0 L4,0 L4,8 L1,8 L1,11 L-1,11 L-1,14 L-4,14 L-6,19 L-7,21 L-9,21 L-9,18 L-7,18 L-6,12 L-4,12 L-3,7 Z " fill="#4D5D70" transform="translate(146,49)"/>
<path d="M0,0 L1,3 L3,7 L10,7 L7,10 L-3,9 L-1,13 L-6,15 L-8,11 L-10,10 L-8,10 L-8,8 L-10,8 L-10,6 L-3,7 L-2,2 L0,2 Z " fill="#201212" transform="translate(80,6)"/>
<path d="M0,0 L3,0 L3,2 L8,3 L8,5 L3,5 L3,8 L5,9 L3,10 L3,12 L5,13 L2,13 L2,15 L-1,15 L-1,9 L-3,8 L-3,2 L-1,2 Z " fill="#737D85" transform="translate(3,47)"/>
<path d="M0,0 L12,2 L17,2 L15,0 L28,1 L26,3 L20,4 L20,7 L13,7 L10,6 L9,4 L0,3 Z " fill="#394A5C" transform="translate(22,75)"/>
<path d="M0,0 L6,1 L12,2 L17,6 L18,13 L21,13 L21,16 L16,14 L14,9 L11,7 L11,5 L6,4 L6,6 L3,6 L3,3 L0,3 Z " fill="#9AA2B3" transform="translate(127,17)"/>
<path d="M0,0 L5,1 L6,3 L14,3 L14,5 L18,6 L18,8 L12,8 L7,6 L6,9 L9,8 L8,11 L4,9 L-1,6 L1,2 Z " fill="#7C8290" transform="translate(24,47)"/>
<path d="M0,0 L13,0 L13,4 L3,8 L0,8 Z " fill="#28110D" transform="translate(17,0)"/>
<path d="M0,0 L5,1 L8,6 L13,11 L14,15 L10,14 L9,16 L6,16 L6,14 L4,14 L4,11 L1,10 L4,9 L6,9 L6,11 L8,11 L4,7 L4,4 L2,4 Z " fill="#171B29" transform="translate(125,19)"/>
<path d="M0,0 L7,0 L7,11 L1,12 Z " fill="#030101" transform="translate(33,0)"/>
<path d="M0,0 L9,0 L8,3 L-2,5 L-16,5 L-14,3 L-10,3 L-10,1 Z " fill="#788699" transform="translate(70,79)"/>
<path d="M0,0 L5,0 L15,4 L14,7 L6,8 L6,5 L1,4 L0,3 L-5,3 L-6,1 Z " fill="#0D1922" transform="translate(15,63)"/>
<path d="M0,0 L14,0 L14,3 L11,3 L11,5 L2,6 L3,8 L0,8 Z " fill="#7D706F" transform="translate(74,0)"/>
<path d="M0,0 L0,3 L-2,5 L-2,12 L1,12 L3,7 L6,7 L5,9 L3,9 L2,13 L-2,17 L-5,17 L-5,15 L-3,15 L-3,12 L-6,13 L-6,5 Z " fill="#32414E" transform="translate(134,58)"/>
<path d="M0,0 L2,0 L2,5 L-2,6 L-2,9 L-7,8 L-9,7 L-8,11 L-12,13 L-12,8 L-13,6 L-10,6 L-9,4 L-7,4 L-7,2 L-4,3 L-4,5 L0,5 L0,3 L-3,2 Z " fill="#200B05" transform="translate(24,20)"/>
<path d="M0,0 L1,0 L1,6 L4,7 L-5,9 L-7,10 L-7,8 L-10,7 L-8,7 L-8,5 L-11,5 L-11,2 L-1,1 L-3,6 L0,6 Z " fill="#32221C" transform="translate(33,6)"/>
<path d="M0,0 L4,1 L7,5 L5,5 L6,8 L4,10 L0,11 L-1,13 L-4,13 L-4,15 L-8,14 L-4,10 L-1,9 L1,5 L3,5 L3,3 L-4,3 L-2,1 L0,2 Z " fill="#384555" transform="translate(114,67)"/>
<path d="M0,0 L5,1 L7,3 L6,7 L8,8 L5,8 L2,8 L-1,11 L-2,14 L-5,14 L-5,16 L-7,16 L-6,12 L-4,12 L-4,10 L-2,10 L-2,7 L0,7 Z " fill="#0A1321" transform="translate(130,52)"/>
<path d="M0,0 L1,0 L1,8 L-10,9 L-12,9 L-12,5 L-5,5 L-5,3 Z " fill="#080612" transform="translate(149,32)"/>
<path d="M0,0 L13,1 L15,5 L15,8 L8,8 L10,7 L10,5 L4,5 L2,4 L2,2 L0,2 Z " fill="#7B8C9D" transform="translate(56,70)"/>
<path d="M0,0 L2,0 L2,11 L6,11 L6,13 L8,14 L5,15 L5,17 L1,18 L2,15 L4,15 L4,13 L-4,13 L-4,11 L0,11 L0,6 L-2,6 L-2,2 L0,2 Z " fill="#4C3530" transform="translate(14,0)"/>
<path d="M0,0 L2,0 L2,2 L7,4 L7,6 L10,5 L11,12 L7,11 L7,9 L-2,10 L-2,7 L5,7 L5,5 L3,5 L3,3 L0,2 Z " fill="#2E272A" transform="translate(107,25)"/>
<path d="M0,0 L2,0 L2,12 L-5,11 L-4,7 L-6,6 L-1,4 Z " fill="#14243B" transform="translate(148,66)"/>
<path d="M0,0 L4,0 L4,8 L6,6 L10,6 L10,8 L8,8 L8,13 L7,11 L1,11 L0,9 L3,9 L3,7 L0,7 Z " fill="#372B2C" transform="translate(70,0)"/>
<path d="M0,0 L1,3 L3,3 L3,5 L8,5 L13,3 L12,7 L8,9 L6,14 L5,14 L5,9 L1,10 L2,5 L0,5 Z " fill="#341D18" transform="translate(2,20)"/>
<path d="M0,0 L6,0 L6,2 L9,3 L-5,7 L-8,7 L-7,4 L-4,2 L0,2 Z " fill="#8D776F" transform="translate(45,19)"/>
<path d="M0,0 L3,0 L3,2 L1,2 L2,6 L5,7 L5,9 L7,9 L7,11 L0,13 L-2,10 L-4,7 L-1,6 L-2,3 Z " fill="#6F6265" transform="translate(45,45)"/>
<path d="M0,0 L2,0 L2,2 L-2,3 L-3,6 L1,6 L2,11 L0,11 L0,9 L-3,9 L-4,12 L-6,11 L-6,1 Z " fill="#5F656C" transform="translate(6,38)"/>
<path d="M0,0 L2,4 L7,3 L7,1 L10,2 L8,3 L12,7 L12,9 L-1,7 Z " fill="#24110D" transform="translate(94,16)"/>
<path d="M0,0 L3,0 L3,9 L2,15 L-3,16 L-3,14 L-6,13 L-3,13 L-3,11 L0,11 Z " fill="#76635F" transform="translate(40,0)"/>
<path d="M0,0 L3,0 L6,6 L9,7 L8,10 L0,12 L2,6 L-2,4 L-2,1 Z " fill="#210F0C" transform="translate(67,24)"/>
<path d="M0,0 L5,1 L14,5 L16,9 L10,8 L1,3 Z " fill="#7D869A" transform="translate(124,4)"/>
<path d="M0,0 L4,0 L4,3 L2,3 L3,9 L0,9 L0,6 L-7,5 L-9,4 L-9,1 L0,3 Z " fill="#39414C" transform="translate(15,51)"/>
<path d="M0,0 L2,1 L2,3 L4,3 L5,1 L7,2 L6,7 L4,7 L4,9 L-3,10 L-3,6 L-1,4 Z " fill="#7D7E87" transform="translate(105,42)"/>
<path d="M0,0 L6,0 L7,4 L6,10 L1,9 L1,5 L-1,5 Z " fill="#4B342D" transform="translate(25,35)"/>
<path d="M0,0 L8,0 L9,2 L10,3 L10,11 L13,12 L12,15 L11,12 L8,12 L7,5 L3,3 Z " fill="#363B4C" transform="translate(137,18)"/>
<path d="M0,0 L3,0 L6,3 L6,5 L10,5 L9,8 L3,6 L-2,6 L-2,4 L-5,4 L-5,2 L0,2 Z " fill="#C2C4CB" transform="translate(5,65)"/>
<path d="M0,0 L3,3 L4,1 L5,7 L7,8 L4,11 L2,11 L0,8 L-3,6 L-1,6 L-2,2 Z " fill="#768092" transform="translate(72,63)"/>
<path d="M0,0 L3,1 L4,3 L9,4 L10,2 L11,5 L14,7 L14,9 L12,9 L12,7 L9,8 L5,7 L5,5 L3,5 L4,11 L1,12 L2,2 L0,2 Z " fill="#484B5E" transform="translate(119,21)"/>
<path d="M0,0 L5,2 L8,1 L8,3 L6,3 L7,9 L5,9 L5,5 L-1,5 L-2,7 L-7,7 L-6,4 L-3,4 L-3,2 Z " fill="#140806" transform="translate(22,13)"/>
<path d="M0,0 L6,1 L5,5 L1,5 L0,7 L-6,5 L-6,3 L-9,2 L-5,1 Z " fill="#3B394A" transform="translate(110,9)"/>
<path d="M0,0 L9,0 L12,1 L12,6 L7,6 L6,8 L5,6 L6,3 L2,3 L2,1 Z " fill="#6A7880" transform="translate(9,67)"/>
<path d="M0,0 L6,0 L7,2 L6,4 L9,5 L7,6 L6,10 L4,10 L3,6 L-2,5 L-2,3 L2,3 L0,2 Z " fill="#3B4555" transform="translate(99,59)"/>
<path d="M0,0 L6,0 L6,7 L2,7 L1,12 L-2,12 L0,11 Z " fill="#1D2232" transform="translate(144,42)"/>
<path d="M0,0 L3,0 L3,12 L0,12 L2,7 L-4,8 L-4,6 L-6,5 L0,4 Z " fill="#77665F" transform="translate(30,0)"/>
<path d="M0,0 L4,2 L3,5 L-6,6 L-7,8 L-7,3 L-5,1 Z " fill="#54697D" transform="translate(130,76)"/>
<path d="M0,0 L2,0 L2,2 L12,4 L12,6 L9,6 L8,8 L1,5 L-4,3 L0,2 Z " fill="#181D2A" transform="translate(45,64)"/>
<path d="M0,0 L4,0 L4,2 L2,3 L8,4 L8,7 L1,5 L1,7 L3,7 L3,9 L-3,8 L-3,4 L-1,3 Z " fill="#736561" transform="translate(69,7)"/>
<path d="M0,0 L4,1 L3,7 L-6,7 L-4,3 Z " fill="#414B58" transform="translate(120,77)"/>
<path d="M0,0 L3,0 L2,3 L-5,6 L-12,10 L-16,10 L-16,8 L-6,3 L-3,3 L-3,1 Z " fill="#8E9AA6" transform="translate(99,65)"/>
<path d="M0,0 L3,0 L1,4 L-2,5 L-1,10 L-3,14 L-3,10 L-5,10 L-6,12 L-5,6 L-2,1 Z " fill="#210C0A" transform="translate(37,31)"/>
<path d="M0,0 L8,2 L6,5 L8,7 L-4,6 L-4,4 L0,3 Z " fill="#B4C4D2" transform="translate(30,71)"/>
<path d="M0,0 L7,0 L7,3 L16,3 L17,6 L7,5 L2,3 L2,1 Z " fill="#06070A" transform="translate(15,75)"/>
<path d="M0,0 L5,2 L5,4 L7,4 L7,6 L2,7 L-1,6 L-1,4 L-3,4 L-4,1 Z " fill="#9A9599" transform="translate(105,26)"/>
<path d="M0,0 L2,0 L2,5 L-4,6 L-4,8 L-1,8 L-1,10 L-5,11 L-5,6 L-7,5 L-5,5 L-5,2 L0,2 Z " fill="#3C2618" transform="translate(27,24)"/>
<path d="M0,0 L9,0 L9,4 L-2,4 L-2,1 Z " fill="#41586E" transform="translate(141,80)"/>
<path d="M0,0 L3,0 L3,2 L5,2 L5,4 L1,6 L-3,6 L-6,3 L-6,1 Z " fill="#080406" transform="translate(111,34)"/>
<path d="M0,0 L11,0 L11,5 L2,5 L3,2 Z " fill="#040A18" transform="translate(139,0)"/>
<path d="M0,0 L6,2 L6,4 L8,4 L8,7 L12,8 L11,11 L9,11 L9,9 L4,7 L4,5 L2,5 Z " fill="#665B5E" transform="translate(105,20)"/>
<path d="M0,0 L2,0 L3,2 L7,4 L1,6 L-3,6 L-4,8 L-4,5 L-9,6 L-7,4 L-3,2 L0,2 Z " fill="#564038" transform="translate(64,16)"/>
<path d="M0,0 L5,0 L5,10 L3,10 L2,7 L0,8 Z " fill="#755C55" transform="translate(53,0)"/>
<path d="M0,0 L6,0 L7,4 L7,6 L0,6 Z " fill="#181417" transform="translate(0,78)"/>
<path d="M0,0 L2,0 L2,3 L-1,4 L-2,7 L-8,6 L-9,4 L-7,4 L-7,2 Z " fill="#040C14" transform="translate(129,70)"/>
<path d="M0,0 L9,1 L9,6 L3,6 L3,3 L1,3 Z " fill="#9BA3AB" transform="translate(5,56)"/>
<path d="M0,0 L5,0 L5,3 L5,6 L1,8 L-1,7 L-1,5 L-6,5 L-3,3 L1,3 L2,1 Z " fill="#3E2D2F" transform="translate(39,45)"/>
<path d="M0,0 L7,0 L6,4 L0,4 L1,6 L-3,6 L-3,1 Z " fill="#161627" transform="translate(103,7)"/>
<path d="M0,0 L4,0 L4,3 L10,5 L10,7 L-1,8 L0,3 L2,2 Z " fill="#071326" transform="translate(140,73)"/>
<path d="M0,0 L7,0 L7,2 L5,3 L4,6 L-1,6 L-3,8 L-3,4 L-1,3 Z " fill="#0D1928" transform="translate(110,70)"/>
<path d="M0,0 L5,1 L8,5 L7,8 L4,8 L0,4 Z " fill="#22232C" transform="translate(23,54)"/>
<path d="M0,0 L5,0 L5,2 L-2,4 L-13,5 L-13,2 L-2,1 Z " fill="#523932" transform="translate(47,23)"/>
<path d="M0,0 L2,2 L2,5 L6,6 L6,9 L-2,9 Z " fill="#0F0707" transform="translate(54,5)"/>
<path d="M0,0 L2,0 L0,6 L-4,7 L-6,8 L-6,5 L-9,4 L-5,3 L-4,1 Z " fill="#A0B3C3" transform="translate(114,63)"/>
<path d="M0,0 L6,2 L6,4 L14,3 L9,7 L9,5 L0,7 L1,3 L-1,3 Z " fill="#606B74" transform="translate(76,57)"/>
<path d="M0,0 L4,2 L12,3 L8,4 L8,6 L3,7 L3,5 L1,5 L1,3 L-2,2 L0,2 Z " fill="#2B2224" transform="translate(49,49)"/>
<path d="M0,0 L2,0 L1,8 L3,8 L3,10 L0,10 L-1,13 L-1,10 L-4,9 L-4,5 L-2,5 L-2,3 L0,3 Z " fill="#262E3E" transform="translate(111,46)"/>
<path d="M0,0 L12,0 L19,3 L16,4 L3,2 Z " fill="#5E5254" transform="translate(108,0)"/>
<path d="M0,0 L5,1 L3,8 L-1,9 Z " fill="#7E8391" transform="translate(123,41)"/>
<path d="M0,0 L12,3 L12,4 L5,4 L5,6 L-4,5 L-6,2 L2,4 Z " fill="#41495F" transform="translate(138,9)"/>
<path d="M0,0 L7,1 L7,5 L1,7 L2,4 L0,4 L-1,1 Z " fill="#0D0100" transform="translate(71,19)"/>
<path d="M0,0 L3,0 L3,6 L-1,7 L-1,9 L-4,9 L-2,3 L0,3 Z " fill="#152031" transform="translate(147,57)"/>
<path d="M0,0 L4,1 L1,2 L0,4 L3,4 L1,8 L-5,8 L-5,7 L0,6 L-5,5 L-3,1 Z " fill="#272D35" transform="translate(90,60)"/>
<path d="M0,0 L5,0 L3,2 L4,10 L0,10 L-1,5 Z " fill="#100A0B" transform="translate(67,51)"/>
<path d="M0,0 L9,0 L9,2 L11,2 L11,5 L4,7 L7,2 L0,1 Z " fill="#503A31" transform="translate(54,28)"/>
<path d="M0,0 L4,0 L5,5 L-1,7 L-1,4 L-3,3 L-1,3 Z " fill="#38241F" transform="translate(77,27)"/>
<path d="M0,0 L1,2 L0,4 L2,4 L2,6 L-2,5 L-7,3 L-7,5 L-10,4 L-10,2 L-5,1 Z " fill="#292222" transform="translate(92,7)"/>
<path d="M0,0 L15,1 L11,3 L9,4 L3,4 L0,2 Z " fill="#2F4056" transform="translate(45,80)"/>
<path d="M0,0 L6,2 L4,3 L0,4 L-3,6 L-9,6 L-6,5 L-5,2 Z " fill="#171D24" transform="translate(119,75)"/>
<path d="M0,0 L1,3 L-1,3 L-2,7 L-6,8 L-10,6 L-2,2 Z " fill="#9AAEC0" transform="translate(102,72)"/>
<path d="M0,0 L5,0 L5,6 L4,8 L2,8 L2,6 L-3,5 L0,3 Z " fill="#131A25" transform="translate(105,54)"/>
<path d="M0,0 L4,1 L2,1 L2,4 L0,4 L-1,11 L-2,11 L-2,3 L-6,3 L-6,1 Z " fill="#786866" transform="translate(51,35)"/>
<path d="M0,0 L4,0 L3,3 L-6,6 L-9,6 L-7,2 Z " fill="#170906" transform="translate(57,30)"/>
<path d="M0,0 L3,0 L3,11 L0,11 Z " fill="#291814" transform="translate(37,0)"/>
<path d="M0,0 L3,0 L2,11 L-3,10 Z " fill="#3D465A" transform="translate(122,52)"/>
<path d="M0,0 L6,1 L4,6 L3,8 L0,8 L0,4 Z " fill="#534546" transform="translate(69,47)"/>
<path d="M0,0 L6,1 L6,4 L1,3 L0,6 L0,4 L-2,4 L-3,7 L-3,4 L-5,4 L-4,1 L-2,1 L-2,3 L0,3 Z " fill="#3B4152" transform="translate(132,41)"/>
<path d="M0,0 L3,0 L3,5 L7,7 L5,7 L4,10 L3,7 L-1,8 Z " fill="#A7917F" transform="translate(19,30)"/>
<path d="M0,0 L4,0 L4,7 L1,8 L-2,7 L0,7 Z " fill="#534645" transform="translate(66,0)"/>
<path d="M0,0 L12,1 L9,3 L1,3 L2,5 L-3,3 Z " fill="#8A99AA" transform="translate(38,73)"/>
<path d="M0,0 L6,2 L5,5 L-3,6 L-3,1 Z " fill="#1F2227" transform="translate(24,65)"/>
<path d="M0,0 L3,0 L2,5 L-1,5 L-3,10 L-4,12 L-6,12 L-6,9 L-4,9 L-3,3 L0,2 Z " fill="#6C8192" transform="translate(143,58)"/>
<path d="M0,0 L4,2 L3,6 L0,6 L0,8 L2,9 L-2,8 L-2,3 L0,3 Z " fill="#161B27" transform="translate(19,51)"/>
<path d="M0,0 L6,0 L6,2 L2,2 L1,8 L-2,7 L-3,2 L-1,2 Z " fill="#141729" transform="translate(120,50)"/>
<path d="M0,0 L3,0 L4,4 L2,4 L2,7 L-2,7 L-3,2 L-1,2 Z " fill="#9EA7B0" transform="translate(3,47)"/>
<path d="M0,0 L2,0 L4,8 L6,9 L1,9 L0,3 L-4,2 Z " fill="#201211" transform="translate(17,39)"/>
<path d="M0,0 L2,0 L2,2 L7,4 L7,6 L3,6 L3,9 L0,9 Z " fill="#707381" transform="translate(122,26)"/>
<path d="M0,0 L6,1 L6,4 L2,5 L1,10 L0,10 L0,4 L-2,4 L-2,2 L0,2 Z " fill="#655851" transform="translate(30,14)"/>
<path d="M0,0 L9,1 L11,3 L7,5 L4,4 L0,2 Z " fill="#9CA4AE" transform="translate(11,77)"/>
<path d="M0,0 L7,1 L13,3 L13,5 L2,3 L0,2 Z " fill="#43434A" transform="translate(30,69)"/>
<path d="M0,0 L3,4 L5,3 L12,3 L11,6 L5,6 L3,7 L0,4 Z " fill="#594E51" transform="translate(43,53)"/>
<path d="M0,0 L1,3 L-2,5 L-10,5 L-8,4 L-8,2 Z " fill="#5E514F" transform="translate(65,51)"/>
<path d="M0,0 L1,3 L0,4 L2,6 L0,7 L-1,11 L-4,12 L-3,5 L-5,4 L0,2 Z " fill="#051429" transform="translate(143,50)"/>
<path d="M0,0 L8,0 L8,3 L-4,4 Z " fill="#0F0A0B" transform="translate(4,35)"/>
<path d="M0,0 L1,4 L3,4 L2,8 L1,6 L-13,6 L-11,4 L-3,3 L0,2 Z " fill="#191C2E" transform="translate(143,13)"/>
<path d="M0,0 L8,0 L8,4 L2,4 L0,3 Z " fill="#020511" transform="translate(142,8)"/>
<path d="M0,0 L2,3 L7,4 L3,6 L-1,6 L-4,9 L-6,9 L-6,6 L-3,6 L-3,4 L0,4 Z " fill="#424346" transform="translate(77,52)"/>
<path d="M0,0 L3,1 L3,7 L1,11 L-2,11 L-2,7 L0,7 Z " fill="#AC9786" transform="translate(15,27)"/>
<path d="M0,0 L2,1 L2,4 L-11,4 L-9,2 L-1,1 Z " fill="#030712" transform="translate(79,80)"/>
<path d="M0,0 L8,0 L9,4 L-1,4 L2,2 Z " fill="#142036" transform="translate(51,77)"/>
<path d="M0,0 L2,0 L0,4 L-2,6 L-9,8 L-8,5 L-6,5 L-6,3 L0,2 Z " fill="#3D4D5F" transform="translate(101,70)"/>
<path d="M0,0 L1,3 L8,3 L8,6 L10,7 L3,6 L0,5 Z " fill="#8C9EA7" transform="translate(14,57)"/>
<path d="M0,0 L6,0 L5,2 L2,3 L-1,9 L-3,6 Z " fill="#555E73" transform="translate(114,45)"/>
<path d="M0,0 L1,2 L5,3 L2,11 L0,11 L0,6 L2,6 L2,4 L0,4 Z " fill="#77889B" transform="translate(135,43)"/>
<path d="M0,0 L3,0 L3,3 L5,3 L5,5 L7,5 L6,10 L5,8 L1,8 L2,1 Z " fill="#151318" transform="translate(110,16)"/>
<path d="M0,0 L7,0 L7,4 L3,5 L-1,2 Z " fill="#363235" transform="translate(120,17)"/>
<path d="M0,0 L9,0 L7,4 L6,6 L4,6 L4,2 L0,2 Z " fill="#7B6D6D" transform="translate(77,15)"/>
<path d="M0,0 L5,0 L5,2 L9,3 L9,5 L3,5 L0,3 Z " fill="#070405" transform="translate(120,12)"/>
<path d="M0,0 L8,0 L6,2 L-1,5 L-6,5 L-5,3 L-1,2 Z " fill="#1E3047" transform="translate(42,76)"/>
<path d="M0,0 L6,0 L6,4 L1,4 L-2,4 L-1,2 L-3,1 Z " fill="#42556A" transform="translate(60,75)"/>
<path d="M0,0 L9,2 L8,4 L0,5 L-1,1 Z " fill="#6A747E" transform="translate(82,63)"/>
<path d="M0,0 L4,0 L4,3 L9,4 L9,6 L0,4 Z " fill="#8F97A3" transform="translate(50,63)"/>
<path d="M0,0 L3,1 L4,4 L2,8 L-2,8 L-1,6 L-2,2 Z " fill="#010518" transform="translate(137,54)"/>
<path d="M0,0 L1,4 L5,6 L5,8 L4,11 L2,10 L2,8 L0,7 L-1,1 Z " fill="#575357" transform="translate(21,41)"/>
<path d="M0,0 L7,2 L8,4 L0,5 Z " fill="#2C2826" transform="translate(81,44)"/>
<path d="M0,0 L3,0 L3,3 L9,2 L6,5 L-1,4 Z " fill="#382623" transform="translate(31,25)"/>
<path d="M0,0 L6,1 L10,2 L6,4 L6,6 L3,6 L3,3 L0,3 Z " fill="#8C93A2" transform="translate(127,17)"/>
<path d="M0,0 L3,0 L3,4 L-3,6 L-5,4 L-3,2 Z " fill="#5A423B" transform="translate(90,13)"/>
<path d="M0,0 L4,1 L-2,4 L-3,6 L-9,7 L-9,5 L-1,1 Z " fill="#3D4E5D" transform="translate(97,68)"/>
<path d="M0,0 L8,0 L8,2 L2,2 L2,4 L-4,4 L-3,2 L-1,2 Z " fill="#706D71" transform="translate(55,56)"/>
<path d="M0,0 L3,0 L5,0 L5,2 L3,2 L3,4 L-4,5 L-4,1 Z " fill="#818690" transform="translate(106,47)"/>
<path d="M0,0 L2,0 L2,3 L-1,5 L-8,6 L-8,4 L-5,2 L0,2 Z " fill="#6B6263" transform="translate(51,8)"/>
<path d="M0,0 L4,0 L3,7 L-3,9 L0,6 Z " fill="#553E37" transform="translate(6,2)"/>
<path d="M0,0 L3,1 L3,8 L-1,8 L-2,5 L1,4 Z " fill="#2A3243" transform="translate(119,62)"/>
<path d="M0,0 L5,0 L7,6 L0,4 Z " fill="#201A1F" transform="translate(38,55)"/>
<path d="M0,0 L3,0 L3,4 L1,4 L1,9 L-1,10 L-2,7 L0,7 L-1,5 L-3,4 L0,3 Z " fill="#312221" transform="translate(66,47)"/>
<path d="M0,0 L5,0 L6,9 L4,9 L4,7 L1,6 L3,4 L0,2 Z " fill="#311F1D" transform="translate(44,38)"/>
<path d="M0,0 L2,2 L0,11 L-2,12 L-5,10 L-1,8 L-1,2 Z " fill="#826D5E" transform="translate(18,28)"/>
<path d="M0,0 L6,0 L4,1 L4,3 L-4,3 L-5,5 L-7,1 L0,2 Z " fill="#252030" transform="translate(140,34)"/>
<path d="M0,0 L5,0 L5,2 L7,2 L8,7 L5,7 L5,5 L3,5 L3,2 L0,1 Z " fill="#131220" transform="translate(126,28)"/>
<path d="M0,0 L3,0 L2,3 L-4,5 L-6,3 L-5,1 Z " fill="#755D56" transform="translate(45,26)"/>
<path d="M0,0 L2,1 L2,3 L-1,6 L-4,6 L-4,8 L-8,7 L-4,3 L-1,2 Z " fill="#8997A6" transform="translate(114,74)"/>
<path d="M0,0 L4,1 L2,4 L-5,5 L-4,2 L0,2 Z " fill="#192737" transform="translate(139,74)"/>
<path d="M0,0 L2,1 L1,3 L3,4 L-2,9 L-4,9 L-2,3 Z " fill="#293E51" transform="translate(142,63)"/>
<path d="M0,0 L1,4 L-1,4 L-1,6 L-6,7 L-8,5 L-3,2 L0,3 Z " fill="#38353B" transform="translate(96,51)"/>
<path d="M0,0 L2,3 L5,4 L5,9 L4,7 L-1,5 L-2,2 L0,2 Z " fill="#151216" transform="translate(25,41)"/>
<path d="M0,0 L4,1 L2,5 L-2,6 L-3,2 L0,2 Z " fill="#2E1711" transform="translate(52,23)"/>
<path d="M0,0 L3,1 L4,7 L4,11 L1,12 L2,2 L0,2 Z " fill="#404756" transform="translate(119,21)"/>
<path d="M0,0 L5,1 L5,3 L3,3 L2,5 L2,3 L-4,5 L-4,2 Z " fill="#856D64" transform="translate(13,18)"/>
<path d="M0,0 L1,2 L6,1 L6,4 L2,5 L1,10 L0,10 Z " fill="#0B0301" transform="translate(0,16)"/>
<path d="M0,0 L5,1 L5,4 L7,5 L2,6 L0,5 L1,3 L0,2 Z " fill="#060307" transform="translate(107,16)"/>
<path d="M0,0 L1,3 L-1,4 L-2,7 L-5,7 L-4,2 Z " fill="#8694AA" transform="translate(119,46)"/>
<path d="M0,0 L1,3 L3,3 L5,6 L5,9 L1,10 L2,5 L0,5 Z " fill="#4E362F" transform="translate(2,20)"/>
<path d="M0,0 L3,0 L2,3 L5,4 L5,1 L10,1 L6,5 L0,5 Z " fill="#7B665D" transform="translate(0,11)"/>
<path d="M0,0 L5,1 L5,4 L0,5 L0,3 L-3,2 L0,2 Z " fill="#5F4E4A" transform="translate(37,11)"/>
<path d="M0,0 L3,0 L3,7 L0,8 Z " fill="#463833" transform="translate(43,0)"/>
<path d="M0,0 L13,2 L13,3 L0,3 Z " fill="#3F505C" transform="translate(23,81)"/>
<path d="M0,0 L4,0 L5,4 L0,4 L-1,6 L-1,1 Z " fill="#6E7F89" transform="translate(124,78)"/>
<path d="M0,0 L3,0 L3,2 L-3,5 L-7,5 L-7,3 Z " fill="#BCCAD7" transform="translate(90,70)"/>
<path d="M0,0 L3,0 L3,6 L-1,6 Z " fill="#42424D" transform="translate(147,43)"/>
<path d="M0,0 L2,2 L2,7 L-2,6 L-3,3 Z " fill="#322831" transform="translate(116,30)"/>
<path d="M0,0 L7,0 L6,2 L4,1 L5,5 L1,7 L1,2 Z " fill="#2C170F" transform="translate(11,26)"/>
<path d="M0,0 L5,1 L5,3 L3,3 L3,5 L-1,4 L-2,2 L0,2 Z " fill="#767C8D" transform="translate(133,21)"/>
<path d="M0,0 L8,0 L8,2 L6,2 L6,5 L4,5 L4,2 L0,2 Z " fill="#836D63" transform="translate(6,0)"/>
<path d="M0,0 L4,1 L3,4 L0,4 L-1,8 L-2,5 L-2,2 L0,2 Z " fill="#545763" transform="translate(61,61)"/>
<path d="M0,0 L2,0 L2,3 L4,3 L4,5 L2,5 L1,9 L-1,3 Z " fill="#4C5C70" transform="translate(133,44)"/>
<path d="M0,0 L3,1 L2,6 L-2,6 L-1,1 Z " fill="#08050B" transform="translate(119,38)"/>
<path d="M0,0 L4,1 L7,3 L7,5 L0,4 Z " fill="#413C3F" transform="translate(93,35)"/>
<path d="M0,0 L3,0 L2,4 L1,6 L-2,6 L-1,1 Z " fill="#836C66" transform="translate(10,28)"/>
<path d="M0,0 L1,4 L3,4 L2,9 L-1,9 Z " fill="#2B1811" transform="translate(1,21)"/>
<path d="M0,0 L1,2 L3,2 L3,7 L1,7 L1,5 L-3,4 L-3,1 Z " fill="#403F45" transform="translate(116,23)"/>
<path d="M0,0 L4,1 L9,3 L9,5 L4,5 Z " fill="#7F828C" transform="translate(119,20)"/>
<path d="M0,0 L5,0 L7,3 L2,5 Z " fill="#3E2924" transform="translate(82,18)"/>
<path d="M0,0 L5,0 L5,4 L0,5 Z " fill="#301F1A" transform="translate(25,0)"/>
<path d="M0,0 L3,0 L3,2 L7,2 L7,4 L0,4 Z " fill="#1E2836" transform="translate(87,80)"/>
<path d="M0,0 L2,0 L2,3 L-7,3 L-7,1 Z " fill="#92A8BC" transform="translate(148,81)"/>
<path d="M0,0 L3,1 L3,2 L-8,4 L-10,2 L-9,1 Z " fill="#49586B" transform="translate(75,80)"/>
<path d="M0,0 L5,0 L6,3 L-4,2 Z " fill="#17202B" transform="translate(26,78)"/>
<path d="M0,0 L3,3 L4,1 L5,7 L3,7 L3,4 L-1,5 L-2,2 Z " fill="#6F7889" transform="translate(72,63)"/>
<path d="M0,0 L5,2 L2,5 L-4,2 L-2,1 L0,2 Z " fill="#545559" transform="translate(32,63)"/>
<path d="M0,0 L2,4 L1,8 L1,6 L-4,8 L-2,4 L0,4 Z " fill="#344051" transform="translate(115,57)"/>
<path d="M0,0 L5,2 L4,5 L-1,4 L-2,1 Z " fill="#344051" transform="translate(31,52)"/>
<path d="M0,0 L7,2 L7,4 L0,3 Z " fill="#3B3F43" transform="translate(6,52)"/>
<path d="M0,0 L1,2 L5,4 L5,6 L-2,7 L-2,5 L1,4 Z " fill="#545564" transform="translate(130,33)"/>
<path d="M0,0 L3,1 L3,5 L6,5 L6,8 L1,6 Z " fill="#A5ADBC" transform="translate(142,25)"/>
<path d="M0,0 L6,0 L4,1 L3,4 L-2,3 L-2,1 Z " fill="#413A3A" transform="translate(90,27)"/>
<path d="M0,0 L3,0 L3,5 L-2,4 L-2,1 Z " fill="#32201C" transform="translate(67,24)"/>
<path d="M0,0 L2,0 L1,4 L-5,5 L-5,2 L0,2 Z " fill="#7E685B" transform="translate(27,24)"/>
<path d="M0,0 L3,1 L4,5 L1,6 L1,4 L-2,4 L-2,2 L0,2 Z " fill="#0C0100" transform="translate(17,22)"/>
<path d="M0,0 L4,0 L4,3 L6,3 L6,5 L0,4 Z " fill="#8D7870" transform="translate(66,11)"/>
<path d="M0,0 L3,0 L3,7 L0,8 Z " fill="#564443" transform="translate(53,0)"/>
<path d="M0,0 L5,0 L5,4 L0,3 Z " fill="#5A7085" transform="translate(145,74)"/>
<path d="M0,0 L6,0 L5,3 L-1,3 L-2,1 Z " fill="#8C9FB1" transform="translate(63,71)"/>
<path d="M0,0 L3,1 L3,3 L7,3 L6,6 L1,5 Z " fill="#BFCED9" transform="translate(8,67)"/>
<path d="M0,0 L1,2 L5,3 L4,5 L-1,6 L0,4 L-1,1 Z " fill="#637386" transform="translate(106,60)"/>
<path d="M0,0 L6,1 L6,5 L-1,3 Z " fill="#808E95" transform="translate(22,62)"/>
<path d="M0,0 L0,3 L-4,5 L-4,8 L-6,8 L-5,4 Z " fill="#505E70" transform="translate(134,58)"/>
<path d="M0,0 L3,1 L3,4 L-2,6 L-3,3 L0,1 Z " fill="#8FA1B4" transform="translate(112,57)"/>
<path d="M0,0 L7,0 L7,2 L5,4 L2,4 L2,2 L0,2 Z " fill="#4E595F" transform="translate(80,57)"/>
<path d="M0,0 L3,0 L3,7 L0,7 Z " fill="#7F8B9E" transform="translate(147,50)"/>
<path d="M0,0 L5,1 L7,3 L1,5 Z " fill="#0A1A2D" transform="translate(130,52)"/>
<path d="M0,0 L4,1 L5,6 L1,4 Z " fill="#A7A0A3" transform="translate(10,41)"/>
<path d="M0,0 L3,0 L3,5 L-2,4 Z " fill="#010106" transform="translate(147,35)"/>
<path d="M0,0 L3,1 L1,2 L5,6 L5,8 L0,7 Z " fill="#1F1517" transform="translate(101,17)"/>
<path d="M0,0 L4,0 L5,3 L0,5 L0,3 L-2,2 Z " fill="#705A51" transform="translate(62,11)"/>
<path d="M0,0 L4,2 L4,3 L-1,3 L-1,5 L-5,3 L-4,1 L0,2 Z " fill="#403944" transform="translate(124,6)"/>
<path d="M0,0 L2,0 L2,5 L-2,6 L-2,2 L0,2 Z " fill="#331E1B" transform="translate(14,0)"/>
<path d="M0,0 L8,0 L8,5 L4,4 L5,1 L0,1 Z " fill="#2E232C" transform="translate(116,3)"/>
<path d="M0,0 L8,0 L9,4 L0,1 Z " fill="#16141B" transform="translate(120,0)"/>
<path d="M0,0 L3,1 L3,7 L0,7 Z " fill="#4A382F" transform="translate(0,1)"/>
<path d="M0,0 L3,0 L3,6 L0,6 Z " fill="#130401" transform="translate(60,0)"/>
<path d="M0,0 L8,0 L7,3 L1,3 Z " fill="#0E131B" transform="translate(13,81)"/>
<path d="M0,0 L5,0 L8,4 L4,4 L4,2 L0,2 Z " fill="#070F1A" transform="translate(0,72)"/>
<path d="M0,0 L4,1 L5,4 L-4,3 L-2,1 L0,2 Z " fill="#3A4958" transform="translate(114,67)"/>
<path d="M0,0 L6,2 L2,4 L-3,3 L-3,1 Z " fill="#393D47" transform="translate(40,66)"/>
<path d="M0,0 L5,0 L6,3 L3,3 L3,5 L-2,5 L2,4 L2,2 Z " fill="#0D1323" transform="translate(65,65)"/>
<path d="M0,0 L4,2 L0,3 L-5,3 L-6,1 Z " fill="#050C16" transform="translate(15,63)"/>
<path d="M0,0 L8,0 L5,1 L5,3 L0,3 Z " fill="#3E4855" transform="translate(0,64)"/>
<path d="M0,0 L2,2 L0,2 L-2,7 L-5,6 L-2,1 Z " fill="#3A3F4B" transform="translate(77,59)"/>
<path d="M0,0 L3,1 L2,7 L0,7 Z " fill="#3E4754" transform="translate(0,55)"/>
<path d="M0,0 L2,1 L2,7 L-1,7 L-3,6 L-3,4 L0,4 Z " fill="#04050F" transform="translate(22,53)"/>
<path d="M0,0 L5,0 L6,2 L5,4 L-1,3 Z " fill="#0D0B0A" transform="translate(81,49)"/>
<path d="M0,0 L3,0 L2,6 L-3,5 L-3,3 L-1,3 Z " fill="#504F4E" transform="translate(97,45)"/>
<path d="M0,0 L1,4 L-4,5 L-6,3 L-5,2 L0,2 Z " fill="#0F0505" transform="translate(100,19)"/>
<path d="M0,0 L2,0 L2,2 L5,2 L5,0 L8,1 L7,3 L5,3 L5,5 L2,4 Z " fill="#6B615C" transform="translate(50,18)"/>
<path d="M0,0 L9,0 L9,2 L6,3 L0,1 Z " fill="#0F0201" transform="translate(9,13)"/>
<path d="M0,0 L2,0 L2,2 L4,2 L4,4 L6,4 L6,6 L0,5 Z " fill="#A1B4C6" transform="translate(54,70)"/>
<path d="M0,0 L6,0 L6,2 L1,2 L1,4 L-1,4 Z " fill="#A6B0B5" transform="translate(22,70)"/>
<path d="M0,0 L1,2 L3,3 L1,3 L2,8 L0,8 L-1,1 Z " fill="#020812" transform="translate(132,62)"/>
<path d="M0,0 L7,1 L7,3 L1,3 Z " fill="#AEB4BD" transform="translate(5,56)"/>
<path d="M0,0 L2,0 L3,3 L6,5 L3,5 L3,7 L0,7 Z " fill="#626D78" transform="translate(2,55)"/>
<path d="M0,0 L4,1 L1,1 L0,6 L-5,6 L-2,5 L-2,3 L0,3 Z " fill="#585D66" transform="translate(15,51)"/>
<path d="M0,0 L4,1 L4,5 L1,6 Z " fill="#03030F" transform="translate(141,43)"/>
<path d="M0,0 L5,0 L5,3 L0,4 L-1,1 Z " fill="#424750" transform="translate(107,41)"/>
<path d="M0,0 L6,0 L4,1 L4,4 L7,5 L3,5 L0,2 Z " fill="#131013" transform="translate(105,35)"/>
<path d="M0,0 L3,0 L1,4 L-1,5 L-3,3 Z " fill="#35201D" transform="translate(37,31)"/>
<path d="M0,0 L3,0 L4,3 L1,4 L-3,3 L-3,1 Z " fill="#250F06" transform="translate(26,29)"/>
<path d="M0,0 L6,2 L5,4 L1,4 L1,2 L-2,1 Z " fill="#47404B" transform="translate(103,10)"/>
<path d="M0,0 L5,1 L3,3 L4,5 L0,5 Z " fill="#26202B" transform="translate(100,8)"/>
<path d="M0,0 L6,0 L4,6 L3,2 L0,1 Z " fill="#190804" transform="translate(0,0)"/>
<path d="M0,0 L5,0 L6,3 L-1,3 Z " fill="#93A8BC" transform="translate(61,81)"/>
<path d="M0,0 L2,0 L2,3 L-1,3 L-1,5 L-4,5 L-4,3 L-2,3 L-2,1 Z " fill="#ADBAC6" transform="translate(123,69)"/>
<path d="M0,0 L3,0 L4,5 L2,6 L2,4 L-1,3 Z " fill="#929DA5" transform="translate(5,65)"/>
<path d="M0,0 L6,0 L6,3 L0,2 Z " fill="#3C3B47" transform="translate(99,59)"/>
<path d="M0,0 L3,0 L4,3 L-2,5 L-2,3 L0,3 Z " fill="#1D1C1D" transform="translate(97,52)"/>
<path d="M0,0 L5,1 L6,5 L3,5 Z " fill="#A2ACB9" transform="translate(24,47)"/>
<path d="M0,0 L3,0 L5,5 L2,5 Z " fill="#51403D" transform="translate(14,42)"/>
<path d="M0,0 L5,1 L2,2 L1,6 L0,6 Z " fill="#9CA3AF" transform="translate(123,41)"/>
<path d="M0,0 L4,0 L4,6 L0,3 Z " fill="#735B50" transform="translate(24,37)"/>
<path d="M0,0 L4,1 L2,1 L2,4 L0,4 L-1,6 L-2,1 Z " fill="#574443" transform="translate(51,35)"/>
<path d="M0,0 L3,0 L3,6 L1,6 L-1,2 Z " fill="#250F0C" transform="translate(42,32)"/>
<path d="M0,0 L1,3 L3,4 L1,6 L-5,6 L-1,4 Z " fill="#2F1B13" transform="translate(61,22)"/>
<path d="M0,0 L6,1 L6,5 L1,3 Z " fill="#877D76" transform="translate(95,14)"/>
<path d="M0,0 L5,1 L6,4 L1,3 Z " fill="#929AA9" transform="translate(124,4)"/>
<path d="M0,0 L2,4 L5,5 L5,7 L0,7 Z " fill="#726667" transform="translate(46,0)"/>
<path d="M0,0 L3,0 L3,5 L-1,4 Z " fill="#100301" transform="translate(22,0)"/>
<path d="M0,0 L2,4 L-5,4 L-3,1 Z " fill="#101924" transform="translate(121,80)"/>
<path d="M0,0 L4,1 L1,2 L1,4 L-2,4 L-2,1 Z " fill="#0A1C35" transform="translate(44,78)"/>
<path d="M0,0 L3,0 L3,2 L0,2 L0,4 L-4,3 Z " fill="#94A6B9" transform="translate(135,74)"/>
<path d="M0,0 L1,3 L-1,5 L-5,4 L-3,4 L-2,1 Z " fill="#2C3141" transform="translate(81,69)"/>
<path d="M0,0 L6,1 L4,5 L3,2 L0,1 Z " fill="#92A6B9" transform="translate(105,66)"/>
<path d="M0,0 L7,2 L6,4 L0,3 Z " fill="#1E2129" transform="translate(37,61)"/>
<path d="M0,0 L7,3 L6,5 L0,3 Z " fill="#16151D" transform="translate(95,58)"/>
<path d="M0,0 L4,2 L5,6 L3,6 L0,2 Z " fill="#666A72" transform="translate(24,56)"/>
<path d="M0,0 L2,0 L0,4 L-4,4 L-4,2 Z " fill="#6A686C" transform="translate(101,54)"/>
<path d="M0,0 L5,0 L1,6 L-1,5 Z " fill="#1E0D0E" transform="translate(67,51)"/>
<path d="M0,0 L2,3 L5,4 L4,7 L0,5 Z " fill="#624943" transform="translate(36,42)"/>
<path d="M0,0 L4,1 L5,6 L0,4 L2,3 L2,1 Z " fill="#201A17" transform="translate(91,42)"/>
<path d="M0,0 L2,0 L2,7 L0,7 L-1,3 Z " fill="#0F0D15" transform="translate(118,27)"/>
<path d="M0,0 L6,1 L6,3 L4,3 L3,5 L3,3 L1,3 Z " fill="#878187" transform="translate(101,27)"/>
<path d="M0,0 L6,2 L5,5 L3,5 L3,3 L0,2 Z " fill="#B4A9AB" transform="translate(111,26)"/>
<path d="M0,0 L2,0 L1,4 L-3,5 L-2,1 Z " fill="#5E463D" transform="translate(13,23)"/>
<path d="M0,0 L3,1 L3,3 L1,3 L0,5 L0,2 L-5,3 L-3,1 Z " fill="#5C4942" transform="translate(60,19)"/>
<path d="M0,0 L4,4 L1,4 L0,6 L-2,2 L0,2 Z " fill="#191213" transform="translate(119,13)"/>
<path d="M0,0 L4,1 L2,5 L-1,4 Z " fill="#2B293A" transform="translate(108,11)"/>
<path d="M0,0 L6,0 L6,3 L0,2 Z " fill="#584B48" transform="translate(82,0)"/>
<path d="M0,0 L5,0 L4,3 L0,3 Z " fill="#04050C" transform="translate(110,81)"/>
<path d="M0,0 L2,0 L2,4 L-2,4 L-2,1 Z " fill="#18182B" transform="translate(83,80)"/>
<path d="M0,0 L4,2 L1,2 L0,5 L-2,5 Z " fill="#1C2938" transform="translate(109,75)"/>
<path d="M0,0 L9,0 L5,3 L0,1 Z " fill="#374451" transform="translate(8,62)"/>
<path d="M0,0 L1,2 L3,3 L2,4 L-4,4 L-3,2 L0,2 Z " fill="#000000" transform="translate(94,59)"/>
<path d="M0,0 L2,0 L1,3 L-3,5 L-4,2 Z " fill="#312D36" transform="translate(73,60)"/>
<path d="M0,0 L3,2 L3,5 L-2,4 Z " fill="#11181C" transform="translate(24,58)"/>
<path d="M0,0 L4,0 L3,4 L0,4 Z " fill="#48363A" transform="translate(46,47)"/>
<path d="M0,0 L3,1 L3,3 L-2,4 L-3,2 Z " fill="#513B36" transform="translate(59,36)"/>
<path d="M0,0 L4,0 L4,6 L2,2 L0,2 Z " fill="#7F8B9A" transform="translate(117,23)"/>
<path d="M0,0 L5,1 L4,4 L0,2 Z " fill="#949AAC" transform="translate(139,22)"/>
<path d="M0,0 L7,0 L5,2 L0,3 Z " fill="#160301" transform="translate(62,22)"/>
<path d="M0,0 L5,1 L7,5 L3,3 Z " fill="#4E5264" transform="translate(137,18)"/>
<path d="M0,0 L5,1 L6,3 L-2,2 Z " fill="#2E2834" transform="translate(126,13)"/>
<path d="M0,0 L5,0 L3,4 L0,3 Z " fill="#130604" transform="translate(27,7)"/>
<path d="M0,0 L5,0 L5,3 L-1,2 Z " fill="#B2C4D6" transform="translate(93,77)"/>
<path d="M0,0 L5,0 L5,3 L0,2 Z " fill="#0B131C" transform="translate(9,73)"/>
<path d="M0,0 L3,0 L3,2 L7,3 L0,3 Z " fill="#606B74" transform="translate(0,69)"/>
<path d="M0,0 L5,0 L4,3 L0,3 Z " fill="#B7C6D2" transform="translate(77,67)"/>
<path d="M0,0 L7,2 L3,4 L0,2 Z " fill="#383036" transform="translate(45,59)"/>
<path d="M0,0 L6,2 L2,3 L-1,3 Z " fill="#71797C" transform="translate(76,57)"/>
<path d="M0,0 L3,0 L2,5 L0,5 Z " fill="#6D8193" transform="translate(135,49)"/>
<path d="M0,0 L2,0 L3,5 L-1,5 Z " fill="#0E182A" transform="translate(130,45)"/>
<path d="M0,0 L5,5 L0,5 Z " fill="#42403D" transform="translate(81,44)"/>
<path d="M0,0 L6,0 L4,3 L0,3 Z " fill="#060812" transform="translate(30,48)"/>
<path d="M0,0 L3,1 L2,4 L-2,6 Z " fill="#5F6573" transform="translate(109,43)"/>
<path d="M0,0 L3,0 L3,3 L-1,4 L-1,1 Z " fill="#0B0302" transform="translate(55,40)"/>
<path d="M0,0 L2,1 L-1,4 L-4,3 L-4,1 Z " fill="#B7B9C0" transform="translate(8,39)"/>
<path d="M0,0 L5,0 L6,5 L4,5 Z " fill="#110F14" transform="translate(93,31)"/>
<path d="M0,0 L2,0 L2,5 L0,5 L0,3 L-2,2 Z " fill="#636064" transform="translate(117,18)"/>
<path d="M0,0 L5,2 L5,4 L0,4 Z " fill="#67554F" transform="translate(67,15)"/>
<path d="M0,0 L5,1 L4,4 L2,4 L2,2 L0,2 Z " fill="#777983" transform="translate(111,14)"/>
<path d="M0,0 L4,1 L4,3 L-2,2 Z " fill="#8E97AD" transform="translate(136,10)"/>
<path d="M0,0 L2,0 L2,5 L-2,4 Z " fill="#806963" transform="translate(12,6)"/>
<path d="M0,0 L7,0 L3,3 L1,3 Z " fill="#01020B" transform="translate(110,70)"/>
<path d="M0,0 L3,0 L4,3 L0,4 Z " fill="#0E1322" transform="translate(82,68)"/>
<path d="M0,0 L2,0 L1,3 L-4,3 L-3,1 Z " fill="#767B89" transform="translate(35,56)"/>
<path d="M0,0 L4,4 L2,4 L1,6 L-1,3 Z " fill="#2E1B1A" transform="translate(53,36)"/>
<path d="M0,0 L5,0 L5,3 L0,2 Z " fill="#463334" transform="translate(44,38)"/>
<path d="M0,0 L4,1 L2,2 L1,5 Z " fill="#595557" transform="translate(104,37)"/>
<path d="M0,0 L5,1 L5,3 L0,3 Z " fill="#866F67" transform="translate(52,28)"/>
<path d="M0,0 L6,1 L3,3 L0,3 Z " fill="#67504B" transform="translate(34,25)"/>
<path d="M0,0 L3,2 L1,2 L0,5 L-2,1 Z " fill="#382D33" transform="translate(104,18)"/>
<path d="M0,0 L5,1 L1,3 L-1,4 Z " fill="#7E736B" transform="translate(32,18)"/>
<path d="M0,0 L5,0 L4,3 L0,2 Z " fill="#332826" transform="translate(55,16)"/>
<path d="M0,0 L5,0 L4,3 L0,2 Z " fill="#584E51" transform="translate(101,15)"/>
<path d="M0,0 L8,1 L5,3 L0,1 Z " fill="#4D413F" transform="translate(95,13)"/>
<path d="M0,0 L1,4 L-2,5 L-2,1 Z " fill="#0D0403" transform="translate(45,7)"/>
<path d="M0,0 L2,0 L0,4 L-3,4 L-2,2 L0,2 Z " fill="#48596D" transform="translate(101,70)"/>
<path d="M0,0 L5,2 L5,4 L2,4 L2,2 L0,2 Z " fill="#A9A9AE" transform="translate(28,65)"/>
<path d="M0,0 L5,1 L5,3 L0,2 Z " fill="#979EAB" transform="translate(54,66)"/>
<path d="M0,0 L5,0 L0,4 L0,2 L-2,1 Z " fill="#6D757E" transform="translate(85,60)"/>
<path d="M0,0 L5,1 L5,3 L1,3 Z " fill="#867A7D" transform="translate(47,53)"/>
<path d="M0,0 L4,0 L3,3 L0,3 Z " fill="#7D7F8A" transform="translate(125,32)"/>
<path d="M0,0 L4,1 L4,3 L0,4 Z " fill="#4B3622" transform="translate(22,31)"/>
<path d="M0,0 L4,2 L1,4 L-1,2 Z " fill="#7B635C" transform="translate(40,27)"/>
<path d="M0,0 L3,1 L1,1 L0,6 L-2,3 Z " fill="#24100B" transform="translate(64,24)"/>
<path d="M0,0 L4,0 L3,3 L0,3 Z " fill="#BFAB9F" transform="translate(46,20)"/>
<path d="M0,0 L1,2 L5,3 L3,5 L0,3 Z " fill="#37201A" transform="translate(8,15)"/>
<path d="M0,0 L2,1 L2,4 L-2,4 Z " fill="#201C1E" transform="translate(51,11)"/>
<path d="M0,0 L3,0 L4,4 L0,3 Z " fill="#523B32" transform="translate(22,8)"/>
<path d="M0,0 L4,0 L4,3 L0,2 Z " fill="#ACAFB7" transform="translate(11,77)"/>
<path d="M0,0 L2,3 L0,4 L-3,2 Z " fill="#5E7489" transform="translate(143,68)"/>
<path d="M0,0 L3,0 L2,4 L-1,3 Z " fill="#A8B9CC" transform="translate(143,58)"/>
<path d="M0,0 L1,4 L-2,4 L-2,1 Z " fill="#8C8C97" transform="translate(124,46)"/>
<path d="M0,0 L2,0 L2,4 L-1,3 Z " fill="#6F646B" transform="translate(116,33)"/>
<path d="M0,0 L3,1 L1,5 L0,5 Z " fill="#210F09" transform="translate(82,27)"/>
<path d="M0,0 L4,2 L1,4 L-1,2 Z " fill="#5C565A" transform="translate(98,25)"/>
<path d="M0,0 L4,1 L4,3 L0,3 Z " fill="#3B231A" transform="translate(20,22)"/>
<path d="M0,0 L3,1 L0,3 L-4,1 Z " fill="#2F201D" transform="translate(87,13)"/>
<path d="M0,0 L3,1 L3,3 L1,3 L0,5 Z " fill="#030000" transform="translate(73,14)"/>
<path d="M0,0 L2,4 L-1,6 Z " fill="#180F0E" transform="translate(54,5)"/>
<path d="M0,0 L4,1 L3,3 L0,3 Z " fill="#271D19" transform="translate(88,0)"/>
<path d="M0,0 L3,0 L4,3 L0,2 Z " fill="#494B5B" transform="translate(73,76)"/>
<path d="M0,0 L3,0 L3,3 L0,3 Z " fill="#7D93A9" transform="translate(147,74)"/>
<path d="M0,0 L2,2 L-2,4 Z " fill="#687481" transform="translate(118,73)"/>
<path d="M0,0 L2,0 L0,4 L-2,3 Z " fill="#0B1823" transform="translate(136,70)"/>
<path d="M0,0 L3,0 L3,3 L-1,1 Z " fill="#A1AEBF" transform="translate(72,67)"/>
<path d="M0,0 L3,1 L3,4 L0,3 Z " fill="#8B9AAB" transform="translate(112,57)"/>
<path d="M0,0 L4,1 L2,5 Z " fill="#191B24" transform="translate(27,57)"/>
<path d="M0,0 L4,0 L3,3 L1,3 Z " fill="#433D44" transform="translate(51,56)"/>
<path d="M0,0 L3,0 L3,3 L0,3 Z " fill="#DBE1E8" transform="translate(2,51)"/>
<path d="M0,0 L3,0 L3,3 L0,3 Z " fill="#8D8787" transform="translate(90,48)"/>
<path d="M0,0 L3,2 L-2,3 L-2,1 Z " fill="#705950" transform="translate(29,33)"/>
<path d="M0,0 L3,1 L3,3 L0,4 Z " fill="#373741" transform="translate(120,29)"/>
<path d="M0,0 L3,0 L3,3 L0,3 Z " fill="#A28A80" transform="translate(10,28)"/>
<path d="M0,0 L3,0 L3,3 L0,3 Z " fill="#080201" transform="translate(81,22)"/>
<path d="M0,0 L3,0 L3,3 L-1,1 Z " fill="#070100" transform="translate(34,22)"/>
<path d="M0,0 L5,1 L1,3 L-1,3 Z " fill="#462D27" transform="translate(66,18)"/>
<path d="M0,0 L3,0 L2,4 Z " fill="#8D7F7A" transform="translate(90,13)"/>
<path d="M0,0 L3,3 L0,4 Z " fill="#6D5852" transform="translate(89,14)"/>
<path d="M0,0 L4,2 L-1,4 Z " fill="#4D362D" transform="translate(63,12)"/>
<path d="M0,0 L2,0 L2,3 L-2,2 Z " fill="#BBA79E" transform="translate(3,12)"/>
<path d="M0,0 L2,0 L0,4 L0,2 L-3,1 Z " fill="#7F716D" transform="translate(37,12)"/>
<path d="M0,0 L1,4 L-2,3 L-2,1 Z " fill="#221C22" transform="translate(84,8)"/>
<path d="M0,0 L2,3 L-2,4 Z " fill="#271C24" transform="translate(118,7)"/>
<path d="M0,0 L2,0 L2,3 L-1,3 Z " fill="#829196" transform="translate(21,81)"/>
<path d="M0,0 L3,0 L3,3 L0,2 Z " fill="#0D1423" transform="translate(119,67)"/>
<path d="M0,0 L2,0 L1,3 L-2,2 Z " fill="#ABBDCD" transform="translate(114,63)"/>
<path d="M0,0 L2,0 L0,4 L-1,1 Z " fill="#0A0F1C" transform="translate(126,57)"/>
<path d="M0,0 L3,0 L2,3 L0,3 Z " fill="#868F9E" transform="translate(122,52)"/>
<path d="M0,0 L1,3 L-2,4 L-2,1 Z " fill="#717687" transform="translate(26,50)"/>
<path d="M0,0 L2,1 L0,5 L-1,2 Z " fill="#586075" transform="translate(112,49)"/>
<path d="M0,0 L3,1 L3,3 L0,3 Z " fill="#626567" transform="translate(8,49)"/>
<path d="M0,0 L3,0 L2,3 L0,3 Z " fill="#241E22" transform="translate(0,34)"/>
<path d="M0,0 L2,3 L-1,4 Z " fill="#494146" transform="translate(113,29)"/>
<path d="M0,0 L3,1 L-1,3 Z " fill="#231009" transform="translate(13,30)"/>
<path d="M0,0 L3,1 L0,3 L-2,1 Z " fill="#363439" transform="translate(115,17)"/>
<path d="M0,0 L3,1 L3,3 L0,2 Z " fill="#2C313E" transform="translate(13,81)"/>
<path d="M0,0 L2,0 L2,3 L-1,2 Z " fill="#010208" transform="translate(129,70)"/>
<path d="M0,0 L2,4 L-1,3 Z " fill="#747580" transform="translate(5,65)"/>
<path d="M0,0 L3,1 L2,3 L0,3 Z " fill="#524D52" transform="translate(105,32)"/>
<path d="M0,0 L2,0 L1,3 L-1,3 Z " fill="#847F85" transform="translate(115,28)"/>
<path d="M0,0 L2,0 L1,3 L-1,3 Z " fill="#3F2E2B" transform="translate(78,0)"/>
<path d="M0,0 L3,1 L1,3 Z " fill="#1F2225" transform="translate(78,53)"/>
<path d="M0,0 L2,2 L-1,3 Z " fill="#462D28" transform="translate(43,45)"/>
<path d="M0,0 L2,2 L0,3 L-2,1 Z " fill="#2C2222" transform="translate(26,44)"/>
<path d="M0,0 L3,1 L1,3 Z " fill="#5B5553" transform="translate(55,18)"/>
<path d="M0,0 L2,0 L1,3 L-1,1 Z " fill="#1E130D" transform="translate(30,7)"/>
</svg>
