<?xml version="1.0" encoding="UTF-8"?>
<!-- Generator: visioncortex VTracer 0.6.5 -->
<svg version="1.1" xmlns="http://www.w3.org/2000/svg" width="150" height="84">
<path d="M0,0 L150,0 L150,84 L0,84 Z " fill="#010101" transform="translate(0,0)"/>
<path d="M0,0 L7,0 L10,3 L7,4 L8,7 L10,8 L10,10 L12,10 L11,16 L9,16 L9,18 L5,20 L5,25 L6,25 L6,33 L8,33 L8,31 L16,31 L16,33 L9,33 L9,35 L18,34 L18,32 L22,33 L21,21 L26,20 L28,23 L29,21 L32,22 L32,30 L26,28 L27,32 L29,34 L26,37 L24,37 L25,43 L22,46 L20,46 L20,52 L18,52 L17,50 L12,50 L16,49 L16,45 L10,46 L10,44 L12,44 L12,42 L18,40 L22,36 L24,36 L24,34 L18,37 L15,37 L15,39 L2,40 L-4,39 L-10,41 L-12,41 L-10,36 L-8,35 L-9,32 L-13,35 L-16,35 L-15,32 L-11,28 L-9,28 L-9,30 L-6,29 L-6,32 L-4,32 L-4,34 L0,32 L0,30 L2,30 L2,16 L0,15 L2,15 L0,9 L-3,8 L-3,6 L-5,6 L-5,8 L-3,9 L-3,11 L-7,13 L-7,16 L-13,16 L-15,11 L-15,5 L-12,6 L-12,4 L-8,4 L-8,6 L-6,7 L-6,2 Z " fill="#16181B" transform="translate(81,19)"/>
<path d="M0,0 L3,0 L3,6 L5,7 L3,12 L1,12 L2,15 L-1,15 L1,20 L4,21 L4,23 L7,24 L6,26 L1,25 L1,37 L-3,36 L-3,38 L-5,39 L-12,39 L-12,37 L-5,37 L-5,35 L-13,35 L-13,37 L-15,37 L-15,35 L-17,34 L-15,34 L-17,30 L-17,24 L-15,22 L-12,22 L-12,20 L-10,20 L-9,14 L-11,14 L-11,12 L-14,11 L-14,8 L-10,6 L-4,8 L-4,11 L0,11 L0,6 L2,6 L2,3 L0,3 Z " fill="#0E0C10" transform="translate(102,15)"/>
<path d="M0,0 L6,0 L2,1 L2,4 L8,4 L3,8 L2,11 L-3,11 L0,10 L0,8 L-4,8 L-4,10 L-6,10 L-5,19 L0,19 L2,15 L5,15 L5,13 L2,12 L3,10 L5,10 L5,12 L9,13 L9,16 L12,17 L10,17 L10,26 L8,30 L6,30 L6,23 L2,23 L2,30 L-2,30 L-1,22 L-3,22 L-4,27 L-13,27 L-13,30 L-17,30 L-17,28 L-15,28 L-15,25 L-22,25 L-22,20 L-17,18 L-15,15 L-13,15 L-13,19 L-16,19 L-16,21 L-13,20 L-13,22 L-7,22 L-8,13 L-13,14 L-13,12 L-8,10 L-9,8 L-14,8 L-14,6 L-10,5 L-14,3 L-13,2 L0,2 Z " fill="#141113" transform="translate(73,15)"/>
<path d="M0,0 L3,0 L2,7 L10,6 L10,0 L11,0 L11,5 L13,5 L13,7 L17,9 L16,13 L20,13 L20,15 L-4,15 L-4,12 L-26,11 L-26,7 L-8,6 L-2,2 L0,2 Z " fill="#171712" transform="translate(35,69)"/>
<path d="M0,0 L5,2 L6,6 L10,4 L15,4 L15,6 L13,7 L12,10 L11,22 L14,22 L15,29 L15,38 L11,38 L11,36 L8,36 L8,34 L5,34 L6,29 L11,29 L10,19 L1,25 L-1,25 L0,18 L4,18 L4,11 L2,6 Z " fill="#171611" transform="translate(106,46)"/>
<path d="M0,0 L5,1 L6,3 L7,1 L10,2 L10,10 L4,8 L5,12 L7,14 L4,17 L2,17 L3,23 L0,26 L-2,26 L-2,32 L-4,32 L-5,30 L-10,30 L-6,29 L-6,25 L-12,26 L-12,24 L-10,24 L-10,22 L-4,20 L0,16 L2,16 L2,14 L-7,18 L-9,17 L-6,16 L-6,14 L-4,14 L-4,12 L0,13 L-1,1 Z " fill="#2C342F" transform="translate(103,39)"/>
<path d="M0,0 L4,1 L7,3 L7,20 L5,21 L-2,21 L-2,19 L5,19 L5,17 L-3,17 L-3,19 L-5,19 L-5,17 L-7,16 L-5,16 L-7,12 L-7,6 L-5,4 L-2,4 L-2,2 L0,2 Z " fill="#040403" transform="translate(92,33)"/>
<path d="M0,0 L5,0 L4,3 L2,3 L2,5 L9,4 L9,7 L6,8 L5,10 L0,10 L0,7 L-22,6 L-23,3 L0,2 Z " fill="#1F2620" transform="translate(31,74)"/>
<path d="M0,0 L4,1 L4,7 L8,9 L8,11 L11,12 L10,14 L5,13 L5,25 L1,24 L1,9 L-2,8 L-2,5 L0,4 Z " fill="#161C17" transform="translate(98,27)"/>
<path d="M0,0 L2,0 L2,2 L0,2 L-1,5 L-5,8 L-10,8 L-10,10 L-12,11 L-19,11 L-20,6 L-19,5 L-7,5 L-7,3 Z " fill="#12110F" transform="translate(103,53)"/>
<path d="M0,0 L11,0 L11,8 L9,8 L8,12 L1,10 L3,5 L0,4 Z " fill="#19180F" transform="translate(0,52)"/>
<path d="M0,0 L6,0 L2,1 L2,4 L8,4 L3,8 L2,11 L-3,11 L0,10 L0,8 L-6,8 L-6,6 L-10,5 L-14,3 L-13,2 L0,2 Z " fill="#120B18" transform="translate(73,15)"/>
<path d="M0,0 L2,0 L2,4 L-1,4 L-1,6 L2,5 L2,7 L6,8 L6,10 L2,11 L2,15 L-2,15 L-2,13 L0,13 L0,10 L-7,10 L-7,5 L-2,3 Z " fill="#13101A" transform="translate(58,30)"/>
<path d="M0,0 L4,0 L4,2 L1,2 L1,4 L9,5 L9,7 L5,9 L5,12 L-1,12 L-3,7 L-3,1 L0,2 Z " fill="#3F494B" transform="translate(69,23)"/>
<path d="M0,0 L5,2 L6,4 L3,7 L1,7 L1,13 L-1,13 L-2,11 L-7,11 L-3,10 L-3,6 L-9,7 L-9,5 L-7,5 L-7,3 L-1,1 Z " fill="#241C19" transform="translate(100,58)"/>
<path d="M0,0 L3,0 L4,3 L4,12 L0,12 L0,10 L-3,10 L-3,8 L-6,8 L-5,3 L0,3 Z " fill="#041210" transform="translate(117,72)"/>
<path d="M0,0 L14,0 L20,4 L19,6 L15,5 L4,5 L0,4 Z " fill="#0E0D0D" transform="translate(54,67)"/>
<path d="M0,0 L5,2 L6,6 L10,4 L15,4 L15,6 L13,7 L10,18 L9,18 L9,10 L4,11 L2,6 Z " fill="#1A0F0E" transform="translate(106,46)"/>
<path d="M0,0 L13,0 L13,6 L6,6 L-2,3 L0,2 Z " fill="#0A0D12" transform="translate(137,45)"/>
<path d="M0,0 L5,1 L5,5 L0,6 L0,10 L-6,10 L-5,5 L-3,4 L-2,1 Z " fill="#0F1415" transform="translate(32,26)"/>
<path d="M0,0 L3,0 L4,2 L4,10 L-1,9 L-2,12 L-3,11 L-5,14 L-6,10 L-2,9 L-3,3 Z " fill="#0A0808" transform="translate(107,55)"/>
<path d="M0,0 L2,4 L6,8 L3,11 L1,11 L0,14 L-3,13 L-1,10 L1,10 L1,8 L-8,12 L-10,11 L-7,10 L-7,8 L-5,8 L-5,6 L0,7 Z " fill="#5B5657" transform="translate(104,45)"/>
<path d="M0,0 L2,0 L2,2 L7,1 L8,10 L2,10 L-1,9 L-1,7 L2,7 L2,3 L-1,4 Z " fill="#020505" transform="translate(58,27)"/>
<path d="M0,0 L8,0 L8,4 L3,6 L-2,5 L-2,7 L-8,7 L-8,6 L-3,6 L-3,1 Z " fill="#212830" transform="translate(78,20)"/>
<path d="M0,0 L5,0 L4,3 L2,3 L2,5 L-21,5 L-21,3 L0,2 Z " fill="#272F2A" transform="translate(31,74)"/>
<path d="M0,0 L11,1 L12,5 L-4,5 L-4,2 L0,2 Z " fill="#191919" transform="translate(64,60)"/>
<path d="M0,0 L9,3 L10,7 L12,5 L13,12 L11,12 L9,10 L4,8 L4,5 L2,5 Z " fill="#565755" transform="translate(112,33)"/>
<path d="M0,0 L3,1 L2,7 L0,7 L0,9 L-6,11 L-7,13 L-7,7 L-9,6 L-7,6 L-7,4 L-3,3 L-1,4 Z " fill="#41393F" transform="translate(90,28)"/>
<path d="M0,0 L4,1 L5,6 L2,9 L-1,9 L-3,5 L-6,4 L-6,2 Z M-5,5 L-3,6 Z " fill="#050C16" transform="translate(46,28)"/>
<path d="M0,0 L2,1 L-2,5 L-3,8 L-5,9 L-12,9 L-11,4 L-6,5 L-6,3 L-1,1 Z " fill="#0A0E15" transform="translate(70,51)"/>
<path d="M0,0 L8,0 L8,7 L3,7 L-1,3 Z " fill="#11170D" transform="translate(142,60)"/>
<path d="M0,0 L8,0 L8,2 L1,2 L1,4 L8,4 L6,6 L7,8 L-2,7 L-2,2 L0,2 Z " fill="#293031" transform="translate(89,50)"/>
<path d="M0,0 L5,1 L6,5 L4,5 L4,12 L2,9 L0,10 L-2,2 Z " fill="#161110" transform="translate(121,31)"/>
<path d="M0,0 L7,0 L7,4 L3,4 L2,9 L-2,10 Z " fill="#110E0E" transform="translate(44,52)"/>
<path d="M0,0 L2,0 L1,10 L3,10 L3,12 L7,12 L7,14 L3,15 L3,17 L-1,16 Z " fill="#121216" transform="translate(44,0)"/>
<path d="M0,0 L2,3 L3,10 L3,13 L-3,14 L-5,12 L-3,12 L-3,10 L-1,10 L-1,2 Z " fill="#2D282B" transform="translate(84,39)"/>
<path d="M0,0 L8,0 L7,4 L11,4 L11,6 L1,6 L2,1 Z " fill="#211B18" transform="translate(44,78)"/>
<path d="M0,0 L2,0 L2,2 L6,3 L6,6 L9,7 L2,8 L-1,5 L2,5 L2,3 L-1,2 Z " fill="#0A0A11" transform="translate(76,25)"/>
<path d="M0,0 L8,0 L8,2 L10,2 L10,4 L8,4 L7,9 L6,7 L1,8 L1,6 L6,4 L5,2 L0,2 Z " fill="#1E2128" transform="translate(59,21)"/>
<path d="M0,0 L6,0 L6,3 L1,2 L1,14 L-3,12 L-1,1 Z " fill="#221F1A" transform="translate(102,38)"/>
<path d="M0,0 L9,2 L9,5 L-4,5 L-1,3 Z " fill="#261F25" transform="translate(74,31)"/>
<path d="M0,0 L4,0 L6,2 L8,2 L7,5 L0,4 L-4,5 L-5,2 Z " fill="#322D28" transform="translate(77,54)"/>
<path d="M0,0 L6,0 L8,5 L0,4 Z " fill="#1A1919" transform="translate(54,67)"/>
<path d="M0,0 L3,1 L2,9 L-1,9 L-2,1 Z " fill="#281C17" transform="translate(113,55)"/>
<path d="M0,0 L3,1 L3,7 L2,9 L-1,9 L-1,1 Z " fill="#26241A" transform="translate(7,53)"/>
<path d="M0,0 L6,0 L2,1 L2,4 L8,4 L3,8 L3,6 L0,6 L0,4 L-2,4 L-2,2 L0,2 Z " fill="#14111A" transform="translate(73,15)"/>
<path d="M0,0 L5,1 L5,3 L0,6 L-2,6 L-2,3 L-6,1 Z " fill="#615F61" transform="translate(100,61)"/>
<path d="M0,0 L7,0 L7,5 L2,5 Z " fill="#1E2125" transform="translate(143,45)"/>
<path d="M0,0 L1,2 L5,3 L5,5 L1,6 L0,10 L0,4 L-5,3 L-5,2 L0,2 Z " fill="#2F2D31" transform="translate(59,35)"/>
<path d="M0,0 L4,1 L3,3 L5,4 L2,5 L1,7 L-2,6 Z " fill="#121315" transform="translate(94,27)"/>
<path d="M0,0 L1,0 L1,6 L4,7 L0,7 L-4,6 L-2,1 Z " fill="#150D0B" transform="translate(5,56)"/>
<path d="M0,0 L3,1 L3,9 L-1,7 Z " fill="#4F5051" transform="translate(110,40)"/>
<path d="M0,0 L4,1 L2,7 L-2,8 L-2,5 L0,4 Z " fill="#1A1E1D" transform="translate(98,27)"/>
<path d="M0,0 L2,0 L2,2 L7,1 L7,5 L2,6 L2,3 L-1,4 Z " fill="#040911" transform="translate(58,27)"/>
<path d="M0,0 L5,1 L5,5 L1,6 Z " fill="#0E1314" transform="translate(32,26)"/>
<path d="M0,0 L2,2 L2,10 L-1,10 L-1,2 Z " fill="#10201E" transform="translate(118,74)"/>
<path d="M0,0 L3,2 L0,5 L-2,5 L-3,8 L-6,7 L-4,4 L-2,4 L-2,1 Z " fill="#413E44" transform="translate(107,51)"/>
<path d="M0,0 L3,1 L5,2 L5,6 L0,6 Z " fill="#2C231F" transform="translate(90,69)"/>
<path d="M0,0 L3,1 L3,4 L1,4 L1,6 L-3,5 L-3,2 Z " fill="#120F12" transform="translate(91,21)"/>
<path d="M0,0 L6,1 L6,3 L8,4 L-1,4 Z " fill="#120D0C" transform="translate(32,11)"/>
<path d="M0,0 L4,3 L0,4 L-3,8 L-6,7 L-4,6 L-4,3 Z " fill="#040709" transform="translate(71,52)"/>
<path d="M0,0 L5,0 L7,4 L1,4 Z " fill="#39343A" transform="translate(67,31)"/>
<path d="M0,0 L5,0 L5,4 L0,5 Z " fill="#01101F" transform="translate(45,32)"/>
<path d="M0,0 L5,1 L5,6 L0,6 L3,5 L3,3 L-1,2 Z " fill="#080B0E" transform="translate(70,20)"/>
<path d="M0,0 L8,1 L8,3 L-1,3 Z " fill="#000000" transform="translate(37,81)"/>
<path d="M0,0 L4,1 L6,2 L6,4 L-1,4 Z " fill="#10161D" transform="translate(59,55)"/>
<path d="M0,0 L3,0 L3,6 L-1,6 L-2,2 L0,2 Z " fill="#1A1E19" transform="translate(91,39)"/>
<path d="M0,0 L2,0 L1,7 L0,9 L-2,9 L-1,1 Z " fill="#1F151B" transform="translate(81,36)"/>
<path d="M0,0 L4,0 L5,7 L3,6 L1,9 Z " fill="#3D3A3B" transform="translate(102,43)"/>
<path d="M0,0 L7,0 L8,3 L1,3 Z " fill="#1B211B" transform="translate(104,2)"/>
<path d="M0,0 L6,0 L6,4 L2,4 L2,2 L0,2 Z " fill="#262C1D" transform="translate(144,62)"/>
<path d="M0,0 L7,0 L6,3 L0,3 Z " fill="#444443" transform="translate(67,62)"/>
<path d="M0,0 L5,0 L4,4 L-1,4 Z " fill="#060603" transform="translate(85,58)"/>
<path d="M0,0 L5,0 L2,10 L1,10 L1,2 Z " fill="#22110E" transform="translate(114,54)"/>
<path d="M0,0 L2,0 L2,4 L8,4 L8,5 L0,5 L0,3 L-2,2 Z " fill="#191C1F" transform="translate(85,53)"/>
<path d="M0,0 L3,0 L3,5 L-3,4 L-2,2 L0,2 Z " fill="#131315" transform="translate(35,69)"/>
<path d="M0,0 L7,0 L9,3 L6,4 L4,3 L4,1 Z " fill="#151413" transform="translate(65,69)"/>
<path d="M0,0 L3,0 L2,5 L-1,6 Z " fill="#38362F" transform="translate(106,65)"/>
<path d="M0,0 L6,0 L6,3 L0,3 Z " fill="#281914" transform="translate(0,53)"/>
<path d="M0,0 L1,3 L-1,5 L-5,4 L-5,2 Z " fill="#2D2B25" transform="translate(77,54)"/>
<path d="M0,0 L1,0 L2,7 L0,7 L-2,5 L-3,1 L-1,2 Z " fill="#3D3837" transform="translate(123,38)"/>
<path d="M0,0 L1,0 L1,5 L-2,5 L-2,3 L-4,3 L-4,1 Z " fill="#050102" transform="translate(79,37)"/>
<path d="M0,0 L3,1 L2,7 L-1,8 Z " fill="#535557" transform="translate(90,28)"/>
<path d="M0,0 L2,3 L3,8 L-1,6 Z " fill="#2B2126" transform="translate(84,39)"/>
<path d="M0,0 L1,0 L1,6 L-3,6 L-2,1 Z " fill="#292126" transform="translate(74,39)"/>
<path d="M0,0 L6,1 L6,3 L0,4 Z " fill="#555F5E" transform="translate(68,26)"/>
<path d="M0,0 L1,3 L-5,4 L-5,1 Z " fill="#141114" transform="translate(29,11)"/>
<path d="M0,0 L3,0 L3,4 L-1,5 Z " fill="#3B312D" transform="translate(46,79)"/>
<path d="M0,0 L4,1 L3,6 L1,5 Z " fill="#07070D" transform="translate(106,46)"/>
<path d="M0,0 L4,1 L4,3 L-1,5 L-1,3 L-3,2 L0,2 Z " fill="#3A3F43" transform="translate(74,27)"/>
<path d="M0,0 L4,0 L3,4 L3,2 L-2,3 L-2,1 Z " fill="#202932" transform="translate(62,26)"/>
<path d="M0,0 L5,0 L6,2 L0,3 Z " fill="#3A434A" transform="translate(81,20)"/>
<path d="M0,0 L7,0 L10,3 L5,2 L0,1 Z " fill="#252C32" transform="translate(81,19)"/>
<path d="M0,0 L5,0 L1,6 L0,6 Z " fill="#120402" transform="translate(0,56)"/>
<path d="M0,0 L2,0 L2,2 L0,2 L-1,5 L-2,3 L-4,2 Z " fill="#2E2323" transform="translate(103,53)"/>
<path d="M0,0 L4,0 L4,4 L0,3 Z " fill="#1F2525" transform="translate(47,52)"/>
<path d="M0,0 L3,1 L3,6 L0,5 Z " fill="#3E343A" transform="translate(84,46)"/>
<path d="M0,0 L4,1 L4,3 L-1,3 Z " fill="#505055" transform="translate(98,27)"/>
<path d="M0,0 L3,1 L2,5 L0,5 Z " fill="#31302C" transform="translate(7,57)"/>
<path d="M0,0 L3,1 L2,4 L-1,3 Z " fill="#331E1C" transform="translate(113,55)"/>
<path d="M0,0 L2,4 L3,7 L0,7 Z " fill="#787578" transform="translate(104,45)"/>
<path d="M0,0 L6,2 L3,3 L2,5 Z " fill="#313432" transform="translate(112,33)"/>
<path d="M0,0 L5,1 L2,5 Z " fill="#0B110B" transform="translate(102,0)"/>
<path d="M0,0 L3,0 L3,4 L0,4 Z " fill="#0B1B17" transform="translate(117,80)"/>
<path d="M0,0 L5,2 L6,4 L2,3 L0,2 Z " fill="#2B282B" transform="translate(100,58)"/>
<path d="M0,0 L3,0 L2,4 L0,4 Z " fill="#0B0F10" transform="translate(51,52)"/>
<path d="M0,0 L2,1 L2,5 L-1,4 Z " fill="#262529" transform="translate(107,42)"/>
<path d="M0,0 L3,0 L3,3 L-1,3 Z " fill="#343437" transform="translate(27,32)"/>
<path d="M0,0 L2,0 L3,3 L-1,4 Z " fill="#191916" transform="translate(70,56)"/>
<path d="M0,0 L4,1 L-1,3 Z " fill="#070C07" transform="translate(37,81)"/>
<path d="M0,0 L3,0 L3,3 L0,3 Z " fill="#493D3B" transform="translate(91,71)"/>
<path d="M0,0 L3,0 L3,3 L0,3 Z " fill="#151B1A" transform="translate(117,69)"/>
<path d="M0,0 L2,0 L1,3 L-2,3 L-2,1 Z " fill="#5E5D5C" transform="translate(72,62)"/>
<path d="M0,0 L3,0 L1,4 Z " fill="#080506" transform="translate(98,56)"/>
<path d="M0,0 L3,0 L3,3 L0,3 Z " fill="#423D37" transform="translate(78,54)"/>
<path d="M0,0 L2,0 L1,3 L-2,2 Z " fill="#7B7375" transform="translate(103,56)"/>
<path d="M0,0 L3,1 L3,3 L0,3 Z " fill="#16191C" transform="translate(141,45)"/>
<path d="M0,0 L2,0 L2,3 L-1,3 Z " fill="#2B2D37" transform="translate(58,30)"/>
<path d="M0,0 L2,0 L0,4 L-1,1 Z " fill="#13141A" transform="translate(58,27)"/>
<path d="M0,0 L3,1 L3,3 L0,3 Z " fill="#161618" transform="translate(42,23)"/>
<path d="M0,0 L3,1 L3,3 L0,2 Z " fill="#30262E" transform="translate(77,33)"/>
</svg>
