<?xml version="1.0" encoding="UTF-8"?>
<!-- Generator: visioncortex VTracer 0.6.5 -->
<svg version="1.1" xmlns="http://www.w3.org/2000/svg" width="150" height="84">
<path d="M0,0 L150,0 L150,84 L0,84 Z " fill="#000101" transform="translate(0,0)"/>
<path d="M0,0 L9,0 L9,5 L11,5 L12,1 L22,1 L23,4 L25,4 L26,8 L34,11 L33,19 L32,23 L23,24 L24,28 L28,30 L14,30 L15,26 L20,26 L20,23 L14,23 L12,21 L11,16 L7,16 L7,18 L5,18 L6,21 L4,21 L4,23 L-1,25 L-1,27 L-3,27 L-4,21 L-2,21 L-2,19 L-4,19 L-4,17 L-14,17 L-14,8 L-10,6 L3,6 L3,2 L0,2 Z M10,18 Z " fill="#121A1A" transform="translate(68,28)"/>
<path d="M0,0 L4,0 L6,4 L6,17 L2,19 L-4,18 L-10,16 L-12,7 L-12,3 L-4,3 L-5,15 L-3,15 L-3,8 Z " fill="#131B20" transform="translate(144,34)"/>
<path d="M0,0 L5,2 L13,5 L12,13 L11,17 L2,18 L3,22 L7,24 L-7,24 L-6,20 L-1,20 L-1,17 L-7,17 L-7,16 L7,16 L7,14 L1,14 L3,13 L2,4 L-1,4 Z " fill="#111512" transform="translate(89,34)"/>
<path d="M0,0 L5,0 L5,3 L2,4 L3,7 L7,7 L7,15 L2,17 L2,19 L0,19 L-1,13 L1,13 L1,11 L-1,11 L-1,9 L-7,8 L-6,2 Z " fill="#243737" transform="translate(65,36)"/>
<path d="M0,0 L9,0 L15,2 L16,5 L21,4 L22,2 L27,2 L26,7 L20,9 L13,9 L10,6 L1,4 Z " fill="#161E1D" transform="translate(31,70)"/>
<path d="M0,0 L4,2 L6,7 L5,12 L2,12 L2,14 L0,14 L1,17 L-1,17 L-1,11 L-5,11 L-8,7 L-5,6 L-3,7 L-2,5 L-2,8 L1,8 L0,6 Z " fill="#090F12" transform="translate(73,32)"/>
<path d="M0,0 L4,0 L6,4 L6,17 L2,19 L-2,18 L1,18 L1,12 L4,12 L4,5 L0,5 L-2,8 L-1,1 Z " fill="#190D06" transform="translate(144,34)"/>
<path d="M0,0 L4,0 L4,8 L-1,10 L-1,12 L-3,12 L-4,6 L-2,6 L-2,4 L-4,4 L-4,2 L0,2 Z " fill="#2A2F30" transform="translate(68,43)"/>
<path d="M0,0 L3,0 L4,3 L7,5 L6,9 L3,6 L-2,5 L-2,10 L-7,9 L-7,4 L-2,4 Z " fill="#14150E" transform="translate(143,66)"/>
<path d="M0,0 L5,1 L4,8 L1,8 L1,14 L-1,14 L-2,11 L-2,4 Z " fill="#2B2721" transform="translate(144,38)"/>
<path d="M0,0 L9,0 L12,1 L12,5 L15,5 L14,8 L10,6 L1,4 Z " fill="#252021" transform="translate(31,70)"/>
<path d="M0,0 L3,1 L4,8 L3,14 L0,14 L-1,12 L-1,2 Z " fill="#2D3531" transform="translate(80,31)"/>
<path d="M0,0 L3,0 L3,4 L-2,8 L-8,7 L-9,3 L-2,2 Z " fill="#101110" transform="translate(91,8)"/>
<path d="M0,0 L2,0 L3,5 L5,5 L5,3 L10,1 L9,5 L6,5 L6,7 L4,7 L4,10 L1,9 L0,5 L-1,1 Z " fill="#0C1114" transform="translate(62,50)"/>
<path d="M0,0 L8,0 L7,6 L6,3 L2,4 L5,13 L2,13 L0,4 Z " fill="#131716" transform="translate(132,37)"/>
<path d="M0,0 L7,0 L8,5 L7,6 L2,6 L0,4 Z " fill="#221D15" transform="translate(0,37)"/>
<path d="M0,0 L5,0 L5,7 L1,7 L-1,5 Z " fill="#1F251F" transform="translate(86,38)"/>
<path d="M0,0 L4,0 L4,9 L1,11 L0,10 Z " fill="#10140F" transform="translate(51,0)"/>
<path d="M0,0 L18,2 L18,4 L8,4 L0,2 Z " fill="#403D3F" transform="translate(31,80)"/>
<path d="M0,0 L8,0 L8,2 L16,3 L16,4 L3,4 L3,1 Z " fill="#161012" transform="translate(23,80)"/>
<path d="M0,0 L7,1 L6,6 L0,6 Z " fill="#070F10" transform="translate(120,58)"/>
<path d="M0,0 L4,0 L6,4 L6,10 L4,11 L4,5 L0,5 L-2,8 L-1,1 Z " fill="#161813" transform="translate(144,34)"/>
<path d="M0,0 L9,0 L14,2 L14,3 L0,3 Z " fill="#1A1D1F" transform="translate(82,55)"/>
<path d="M0,0 L2,0 L2,7 L1,10 L-3,11 L-4,5 L0,6 Z M-5,7 Z " fill="#0B120E" transform="translate(83,39)"/>
<path d="M0,0 L2,0 L2,8 L-4,11 L-4,6 L0,5 Z " fill="#060C06" transform="translate(92,0)"/>
<path d="M0,0 L9,0 L14,1 L14,2 L9,2 L9,5 L1,5 L1,4 L6,4 L6,1 L0,1 Z " fill="#080D0F" transform="translate(82,50)"/>
<path d="M0,0 L3,1 L4,9 L2,10 L0,9 Z " fill="#06090A" transform="translate(75,34)"/>
<path d="M0,0 L5,0 L5,4 L5,6 L0,6 Z " fill="#080D0E" transform="translate(67,72)"/>
<path d="M0,0 L2,0 L2,9 L0,9 L-2,1 Z " fill="#242A2A" transform="translate(136,40)"/>
<path d="M0,0 L7,1 L7,5 L1,5 Z " fill="#3F504F" transform="translate(61,40)"/>
<path d="M0,0 L5,0 L3,6 L0,6 Z " fill="#111C23" transform="translate(54,39)"/>
<path d="M0,0 L4,2 L4,7 L8,8 L1,8 L3,4 L0,4 Z " fill="#0D0F0F" transform="translate(43,71)"/>
<path d="M0,0 L11,0 L10,2 L1,3 Z " fill="#0D0F0B" transform="translate(62,0)"/>
<path d="M0,0 L9,0 L9,3 L0,2 Z " fill="#160E0F" transform="translate(0,11)"/>
<path d="M0,0 L8,0 L7,3 L6,1 L1,1 L0,4 L-4,3 Z " fill="#060F0E" transform="translate(52,71)"/>
<path d="M0,0 L5,0 L5,3 L-3,3 L-3,1 Z " fill="#495C5A" transform="translate(65,36)"/>
<path d="M0,0 L10,0 L11,2 L4,3 L4,1 Z " fill="#030B12" transform="translate(58,34)"/>
<path d="M0,0 L5,0 L4,7 L2,3 L0,2 L-1,4 Z " fill="#1B2521" transform="translate(80,29)"/>
<path d="M0,0 L6,0 L7,3 L0,3 Z " fill="#1F1F1B" transform="translate(59,13)"/>
<path d="M0,0 L3,0 L3,2 L1,2 L1,5 L-3,6 L-2,2 Z " fill="#0E0503" transform="translate(44,20)"/>
<path d="M0,0 L1,3 L0,7 L-3,7 L-2,2 L0,2 Z " fill="#242119" transform="translate(148,39)"/>
<path d="M0,0 L4,0 L5,4 L0,4 Z " fill="#252725" transform="translate(96,39)"/>
<path d="M0,0 L5,0 L6,3 L0,3 Z " fill="#2E271D" transform="translate(31,20)"/>
<path d="M0,0 L4,1 L4,4 L1,5 Z " fill="#131316" transform="translate(20,65)"/>
<path d="M0,0 L4,1 L4,5 L0,4 Z " fill="#151612" transform="translate(13,46)"/>
<path d="M0,0 L8,1 L7,3 L3,3 L3,1 Z " fill="#0D0C0D" transform="translate(33,74)"/>
<path d="M0,0 L4,2 L3,6 L0,3 Z " fill="#0D0E08" transform="translate(146,69)"/>
<path d="M0,0 L4,0 L4,6 L0,1 Z " fill="#212526" transform="translate(68,43)"/>
<path d="M0,0 L2,0 L3,5 L0,5 L-1,1 Z " fill="#424A45" transform="translate(81,33)"/>
<path d="M0,0 L2,0 L2,5 L-1,5 Z " fill="#353C37" transform="translate(86,38)"/>
<path d="M0,0 L4,0 L4,3 L0,3 Z " fill="#141C1B" transform="translate(54,72)"/>
<path d="M0,0 L4,1 L3,4 L0,3 Z " fill="#0E1014" transform="translate(73,57)"/>
<path d="M0,0 L4,0 L4,3 L0,2 Z " fill="#1D1B1C" transform="translate(84,12)"/>
<path d="M0,0 L4,0 L3,3 L0,2 Z " fill="#262828" transform="translate(42,75)"/>
<path d="M0,0 L3,0 L2,4 L0,3 Z " fill="#1A1517" transform="translate(31,70)"/>
<path d="M0,0 L4,1 L3,3 L0,3 Z " fill="#141E22" transform="translate(122,60)"/>
<path d="M0,0 L2,0 L2,4 L-1,3 Z " fill="#17171B" transform="translate(64,56)"/>
<path d="M0,0 L2,0 L2,3 L-3,3 Z " fill="#111518" transform="translate(70,51)"/>
<path d="M0,0 L5,1 L5,3 L1,2 Z " fill="#0C1618" transform="translate(59,44)"/>
<path d="M0,0 L5,0 L5,3 L0,1 Z " fill="#2D383B" transform="translate(65,36)"/>
<path d="M0,0 L5,0 L2,3 L0,2 Z " fill="#151410" transform="translate(62,0)"/>
<path d="M0,0 L2,0 L1,4 L-1,4 Z " fill="#353D39" transform="translate(89,42)"/>
<path d="M0,0 L2,4 L-1,4 Z " fill="#141D21" transform="translate(72,36)"/>
<path d="M0,0 L3,0 L3,3 L0,3 Z " fill="#141315" transform="translate(41,9)"/>
<path d="M0,0 L2,0 L2,3 L-1,3 Z " fill="#373B3C" transform="translate(66,49)"/>
</svg>
