<?xml version="1.0" encoding="UTF-8"?>
<!-- Generator: visioncortex VTracer 0.6.5 -->
<svg version="1.1" xmlns="http://www.w3.org/2000/svg" width="150" height="84">
<path d="M0,0 L150,0 L150,84 L0,84 Z " fill="#030201" transform="translate(0,0)"/>
<path d="M0,0 L10,0 L10,5 L9,6 L1,6 L1,8 L18,8 L14,10 L18,11 L19,15 L13,14 L8,17 L8,19 L7,20 L22,20 L24,23 L30,25 L38,27 L38,25 L35,25 L35,22 L30,21 L30,19 L37,20 L40,16 L44,18 L55,22 L59,25 L70,27 L71,29 L77,30 L78,35 L77,37 L72,38 L69,35 L69,32 L65,31 L66,37 L68,37 L68,39 L70,39 L71,40 L77,42 L77,44 L75,44 L75,46 L72,45 L71,52 L66,52 L66,55 L64,55 L63,48 L64,46 L60,46 L58,52 L60,52 L60,54 L58,54 L58,57 L60,58 L56,66 L48,70 L44,69 L49,66 L49,64 L55,64 L56,57 L57,55 L55,55 L54,52 L52,57 L49,59 L51,61 L48,61 L48,63 L41,65 L41,61 L38,62 L37,64 L30,66 L30,68 L38,68 L38,73 L34,74 L21,74 L20,72 L27,71 L27,67 L17,68 L13,68 L15,75 L17,75 L17,80 L16,81 L9,80 L8,81 L1,81 L0,79 L-8,79 L-6,77 L-15,75 L-16,73 L1,74 L-5,73 L-5,71 L0,70 L1,67 L-8,68 L-11,67 L-11,69 L-13,69 L-16,66 L-16,64 L-12,64 L-11,62 L-17,62 L-22,60 L-23,58 L-23,51 L-22,50 L-22,47 L-24,47 L-24,52 L-27,52 L-28,50 L-31,49 L-28,47 L-25,36 L-27,36 L-27,39 L-29,39 L-29,37 L-38,36 L-38,33 L-30,32 L-30,31 L-23,31 L-23,28 L-20,25 L-22,25 L-22,23 L-20,22 L-21,19 L-13,19 L-15,21 L-14,25 L-15,26 L-13,27 L-12,22 L-11,15 L-17,15 L-17,14 L-7,13 L-3,11 Z " fill="#3D261D" transform="translate(52,0)"/>
<path d="M0,0 L52,0 L52,5 L49,12 L41,15 L41,22 L39,27 L36,26 L38,22 L36,21 L37,20 L31,19 L33,23 L30,23 L30,25 L32,25 L31,28 L29,28 L29,31 L24,32 L24,33 L14,33 L14,36 L21,36 L23,37 L23,39 L25,39 L25,36 L27,36 L27,41 L24,48 L24,49 L27,52 L28,47 L30,47 L30,50 L33,51 L30,52 L30,60 L32,60 L33,58 L33,61 L39,61 L41,62 L40,65 L36,64 L36,66 L39,67 L39,69 L41,69 L41,67 L53,67 L52,71 L47,71 L47,73 L50,72 L59,74 L59,75 L45,75 L37,74 L40,75 L42,80 L40,80 L40,84 L0,84 Z " fill="#020000" transform="translate(0,0)"/>
<path d="M0,0 L2,0 L2,5 L-1,13 L-4,13 L-3,16 L-5,17 L-4,18 L6,18 L7,21 L5,22 L4,25 L0,25 L0,27 L-5,29 L-9,29 L-8,26 L-9,26 L-13,26 L-13,28 L-17,28 L-17,33 L-18,30 L-23,32 L-23,35 L-93,35 L-93,31 L-92,30 L-93,26 L-86,28 L-86,29 L-80,29 L-80,32 L-73,32 L-72,30 L-65,31 L-64,26 L-66,26 L-66,24 L-68,23 L-68,19 L-64,18 L-54,18 L-54,22 L-60,24 L-43,24 L-43,22 L-45,21 L-43,21 L-43,19 L-51,19 L-51,17 L-48,15 L-44,15 L-43,12 L-40,12 L-39,15 L-33,14 L-32,9 L-29,5 L-27,2 L-26,6 L-24,6 L-26,15 L-31,16 L-33,19 L-36,20 L-32,19 L-28,17 L-25,17 L-23,10 L-23,8 L-23,5 L-20,6 L-20,8 L-15,9 L-15,11 L-13,11 L-13,6 L-11,9 L-7,8 L-7,10 L-9,10 L-10,15 L-12,15 L-12,18 L-9,18 L-9,16 L-5,12 L-4,6 L-6,5 L-3,3 L0,3 Z " fill="#050507" transform="translate(133,49)"/>
<path d="M0,0 L4,2 L15,6 L19,9 L30,11 L31,13 L37,14 L38,19 L37,21 L32,22 L29,19 L29,16 L25,15 L26,21 L28,21 L28,23 L30,23 L31,24 L37,26 L37,28 L35,28 L35,30 L32,29 L31,36 L26,36 L26,39 L24,39 L23,32 L24,30 L20,30 L18,36 L20,36 L20,38 L18,38 L18,41 L20,42 L16,50 L8,54 L4,53 L9,50 L9,48 L15,48 L16,41 L17,39 L15,39 L14,36 L12,41 L9,43 L11,45 L8,45 L8,47 L1,49 L1,45 L-2,45 L-2,43 L-13,44 L-14,39 L-2,38 L2,42 L5,39 L0,40 L0,38 L5,36 L9,35 L7,27 L4,27 L5,24 L11,25 L8,21 L8,19 L5,18 L5,16 L1,16 L1,14 L-2,15 L-5,24 L-10,24 L-10,21 L-8,20 L-18,21 L-17,17 L-19,16 L-14,15 L-13,16 L-12,13 L-15,13 L-15,10 L-24,11 L-23,15 L-25,15 L-26,18 L-28,18 L-29,14 L-33,13 L-32,9 L-33,6 L-35,7 L-41,7 L-37,5 L-31,4 L-18,4 L-16,7 L-10,9 L-2,11 L-2,9 L-5,9 L-5,6 L-10,5 L-10,3 L-3,4 Z " fill="#1D1F23" transform="translate(92,16)"/>
<path d="M0,0 L48,0 L47,2 L43,2 L43,4 L46,4 L46,7 L44,8 L45,13 L48,13 L50,17 L50,21 L57,23 L57,25 L51,24 L49,23 L48,25 L38,20 L33,18 L29,18 L27,21 L20,19 L20,21 L25,21 L26,23 L25,25 L28,25 L28,27 L22,27 L15,24 L12,23 L12,20 L-3,21 L-5,20 L-4,16 L-4,19 L-1,15 L4,13 L9,15 L8,11 L3,10 L3,9 L-9,8 L-9,6 L-1,5 Z " fill="#0C0605" transform="translate(62,0)"/>
<path d="M0,0 L9,0 L6,1 L6,6 L10,6 L11,2 L20,2 L20,4 L22,4 L22,7 L19,7 L19,4 L14,12 L19,14 L18,19 L22,20 L21,23 L19,23 L19,27 L14,27 L15,28 L20,28 L21,25 L25,23 L30,24 L30,26 L41,22 L43,23 L42,25 L35,27 L35,29 L43,29 L43,34 L39,35 L26,35 L25,33 L32,32 L32,28 L22,29 L18,29 L20,36 L22,36 L22,41 L21,42 L14,41 L13,42 L6,42 L5,40 L-3,40 L-1,38 L-10,36 L-11,34 L6,35 L0,34 L0,32 L5,31 L6,28 L-3,29 L-6,28 L-6,30 L-8,30 L-11,27 L-11,25 L-7,25 L-6,23 L-12,23 L-17,21 L-17,15 L-14,14 L-8,16 L-6,16 L-5,18 L-3,18 L-2,16 L1,21 L3,22 L2,15 L0,15 L1,10 L3,10 L2,7 L0,6 Z " fill="#2B160F" transform="translate(47,39)"/>
<path d="M0,0 L10,0 L10,2 L15,2 L15,4 L13,4 L13,11 L17,12 L17,15 L19,15 L19,20 L21,20 L21,22 L27,21 L26,17 L23,17 L24,13 L27,14 L27,17 L35,17 L32,18 L34,23 L40,23 L42,28 L40,28 L40,32 L0,32 Z " fill="#020100" transform="translate(0,52)"/>
<path d="M0,0 L4,2 L15,6 L19,9 L19,14 L21,15 L20,18 L16,16 L16,14 L14,14 L15,18 L12,16 L9,16 L9,18 L5,18 L5,16 L1,16 L1,14 L-2,15 L-5,24 L-10,24 L-10,21 L-8,20 L-18,21 L-17,17 L-19,16 L-14,15 L-13,16 L-12,13 L-15,13 L-15,10 L-24,11 L-23,15 L-25,15 L-26,18 L-28,18 L-29,14 L-33,13 L-32,9 L-33,6 L-35,7 L-41,7 L-37,5 L-31,4 L-18,4 L-16,7 L-10,9 L-2,11 L-2,9 L-5,9 L-5,6 L-10,5 L-10,3 L-3,4 Z " fill="#635B5A" transform="translate(92,16)"/>
<path d="M0,0 L2,0 L2,5 L-1,13 L-4,13 L-3,16 L-5,17 L-4,18 L6,18 L7,21 L5,22 L4,25 L0,25 L0,27 L-5,29 L-9,29 L-8,26 L-9,26 L-13,26 L-13,28 L-17,28 L-17,33 L-18,30 L-23,32 L-23,35 L-28,35 L-28,33 L-31,33 L-31,25 L-26,26 L-25,22 L-22,23 L-18,22 L-21,17 L-21,15 L-24,18 L-26,17 L-22,9 L-23,5 L-20,6 L-20,8 L-15,9 L-15,11 L-13,11 L-13,6 L-11,9 L-7,8 L-7,10 L-9,10 L-10,15 L-12,15 L-12,18 L-9,18 L-9,16 L-5,12 L-4,6 L-6,5 L-3,3 L0,3 Z " fill="#191719" transform="translate(133,49)"/>
<path d="M0,0 L10,0 L10,5 L9,6 L1,6 L1,8 L18,8 L14,10 L18,11 L19,15 L13,14 L8,17 L8,19 L6,19 L3,22 L7,22 L9,26 L9,28 L9,30 L11,31 L4,32 L4,35 L4,37 L-1,38 L1,30 L-3,29 L4,26 L5,25 L3,24 L3,26 L-9,26 L-9,28 L-12,28 L-11,15 L-17,15 L-17,14 L-7,13 L-3,11 Z " fill="#221D21" transform="translate(52,0)"/>
<path d="M0,0 L5,0 L7,5 L10,7 L16,7 L18,4 L18,7 L24,7 L26,8 L25,11 L21,10 L21,12 L24,13 L24,15 L26,15 L26,13 L38,13 L37,17 L32,17 L32,19 L35,18 L44,20 L44,21 L30,21 L22,20 L18,22 L17,16 L12,15 L12,12 L9,12 L8,15 L11,15 L12,19 L6,20 L6,18 L4,18 L4,13 L2,13 L1,10 L-2,9 L-2,2 L0,2 Z " fill="#110503" transform="translate(15,54)"/>
<path d="M0,0 L2,1 L1,3 L-6,5 L-6,7 L2,7 L2,12 L-2,13 L-15,13 L-16,11 L-9,10 L-9,6 L-19,7 L-23,7 L-21,14 L-19,14 L-19,19 L-20,20 L-27,19 L-28,20 L-35,20 L-36,18 L-44,18 L-42,16 L-51,14 L-52,12 L-35,13 L-35,11 L-27,11 L-27,9 L-33,8 L-31,6 L-27,5 L-26,6 L-21,6 L-20,3 L-16,1 L-11,2 L-11,4 Z " fill="#2A201B" transform="translate(88,61)"/>
<path d="M0,0 L11,0 L11,4 L5,6 L14,7 L14,10 L18,10 L18,12 L13,13 L15,17 L-28,17 L-28,13 L-27,12 L-28,8 L-21,10 L-21,11 L-15,11 L-15,14 L-8,14 L-7,12 L0,13 L1,8 L-1,8 L-1,6 L-3,5 L-3,1 Z " fill="#090503" transform="translate(68,67)"/>
<path d="M0,0 L1,0 L2,5 L5,3 L5,1 L7,0 L21,0 L21,6 L9,7 L6,8 L4,7 L4,10 L-1,12 L1,17 L-3,23 L-5,23 L-5,25 L-8,25 L-8,22 L-6,22 L-5,17 L-3,17 L-3,15 L-6,16 L-8,18 L-11,18 L-11,16 L-16,15 L-17,10 L-19,10 L-17,3 L-12,3 L-13,8 L-13,13 L-11,13 L-11,10 L-6,10 L-6,1 L-2,4 L-2,2 L0,2 Z " fill="#251E13" transform="translate(129,42)"/>
<path d="M0,0 L3,0 L3,3 L14,3 L14,5 L18,6 L17,9 L21,11 L21,12 L15,12 L16,16 L27,16 L27,18 L17,22 L14,22 L14,20 L7,21 L4,24 L0,26 L-3,25 L-2,23 L3,23 L3,19 L6,16 L1,15 L2,10 L-3,9 L0,3 Z " fill="#433225" transform="translate(63,43)"/>
<path d="M0,0 L3,0 L3,2 L7,2 L7,4 L12,5 L12,8 L13,11 L7,11 L6,13 L9,13 L12,19 L11,22 L2,24 L2,26 L7,24 L7,27 L3,29 L0,26 L0,22 L6,18 L3,17 L0,16 L-1,21 L-3,23 L-6,23 L-5,19 L-4,16 L-7,16 L-7,14 L-9,14 L-9,12 L-3,12 L-3,7 Z " fill="#342E2B" transform="translate(90,30)"/>
<path d="M0,0 L7,1 L8,4 L10,5 L10,10 L14,10 L14,12 L16,12 L16,14 L14,14 L14,17 L16,18 L12,26 L4,30 L0,29 L5,26 L5,24 L11,24 L12,17 L13,15 L11,15 L10,12 L8,17 L5,19 L7,21 L4,21 L4,23 L-3,25 L-3,21 L-6,21 L-6,19 L-17,20 L-18,15 L-6,14 L-2,18 L1,15 L-4,16 L-4,14 L1,12 L5,11 L3,3 L0,3 Z " fill="#6D676E" transform="translate(96,40)"/>
<path d="M0,0 L9,0 L6,1 L6,6 L10,6 L11,2 L20,2 L20,4 L22,4 L22,7 L19,7 L19,4 L14,12 L19,14 L18,19 L22,20 L22,22 L18,22 L18,24 L11,24 L11,22 L8,22 L6,19 L6,16 L9,17 L10,19 L13,17 L13,15 L7,15 L7,11 L5,11 L5,15 L0,15 L1,10 L3,10 L2,7 L0,6 Z " fill="#402B22" transform="translate(47,39)"/>
<path d="M0,0 L7,0 L7,8 L10,12 L7,12 L7,14 L9,14 L8,17 L6,17 L6,20 L1,21 L1,22 L-9,22 L-10,25 L-10,17 L-7,15 L-7,9 L-3,8 L-2,2 Z " fill="#090506" transform="translate(23,11)"/>
<path d="M0,0 L5,0 L9,2 L9,5 L7,6 L8,11 L11,11 L13,15 L13,19 L20,21 L20,23 L14,22 L12,21 L11,23 L1,18 L-4,16 L-5,12 L-6,9 L-2,9 L-2,7 L-6,5 L-5,2 L0,2 Z " fill="#090F0E" transform="translate(99,2)"/>
<path d="M0,0 L2,1 L2,4 L4,4 L2,13 L-3,14 L-5,17 L-8,18 L-8,22 L-10,22 L-9,31 L-16,31 L-15,25 L-19,22 L-15,22 L-15,20 L-17,19 L-15,19 L-15,17 L-23,17 L-23,15 L-20,13 L-16,13 L-15,10 L-12,10 L-11,13 L-5,12 L-4,7 L-1,3 Z " fill="#2E2928" transform="translate(105,51)"/>
<path d="M0,0 L12,0 L12,8 L0,8 L1,11 L5,12 L5,14 L3,14 L3,23 L-1,24 L1,19 L-9,20 L-11,18 L-9,14 L-6,14 L-5,7 L-2,1 Z " fill="#221610" transform="translate(138,48)"/>
<path d="M0,0 L8,0 L6,2 L7,6 L6,7 L8,8 L9,4 L9,6 L11,7 L9,7 L9,9 L12,9 L12,7 L24,7 L24,5 L27,6 L24,9 L20,10 L22,11 L21,16 L14,13 L14,11 L8,12 L2,12 L3,15 L-2,17 L-2,14 L-5,15 L-6,20 L-8,20 L-8,18 L-17,17 L-17,14 L-9,13 L-9,12 L-2,12 L-2,9 L1,6 L-1,6 L-1,4 L1,3 Z " fill="#241B1D" transform="translate(31,19)"/>
<path d="M0,0 L5,1 L2,2 L2,5 L7,5 L7,7 L1,7 L1,9 L3,9 L3,11 L6,11 L5,15 L4,18 L9,15 L8,13 L10,13 L10,11 L16,11 L16,14 L12,17 L10,17 L10,19 L4,20 L-1,18 L1,14 L-3,13 L-3,11 L-12,12 L-12,5 L-8,3 L-5,1 Z " fill="#100702" transform="translate(80,35)"/>
<path d="M0,0 L11,1 L12,3 L18,4 L19,9 L18,11 L13,12 L10,9 L10,6 L6,5 L5,9 L-2,10 L0,11 L0,13 L2,13 L2,18 L-2,19 L-4,14 L-6,14 L-7,16 L-11,11 L-10,6 L-6,5 L-5,6 L-5,4 L-3,4 L-1,7 L0,6 L-1,2 Z " fill="#5C5658" transform="translate(111,26)"/>
<path d="M0,0 L8,0 L8,2 L6,2 L6,4 L4,4 L3,7 L0,7 L0,9 L3,8 L5,13 L5,16 L8,17 L8,24 L4,23 L2,21 L-3,21 L-4,9 L-7,10 L-12,6 L-11,3 L-6,3 L-4,3 L-4,1 Z " fill="#34241E" transform="translate(37,30)"/>
<path d="M0,0 L15,0 L15,5 L12,12 L8,14 L-1,14 L-1,13 L7,13 L7,11 L10,10 L2,8 L2,10 L-6,9 L-6,7 L0,7 L0,5 L-7,5 L-7,1 Z " fill="#151010" transform="translate(37,0)"/>
<path d="M0,0 L5,0 L7,5 L12,9 L12,11 L9,12 L8,15 L11,15 L12,19 L6,20 L6,18 L4,18 L4,13 L2,13 L1,10 L-2,9 L-2,2 L0,2 Z " fill="#3C2E24" transform="translate(15,54)"/>
<path d="M0,0 L2,1 L1,3 L-6,5 L-6,7 L2,7 L2,12 L-2,13 L-15,13 L-16,11 L-9,10 L-9,6 L-18,7 L-18,5 L-20,5 L-20,3 L-16,1 L-11,2 L-11,4 Z " fill="#827F82" transform="translate(88,61)"/>
<path d="M0,0 L4,0 L4,2 L8,3 L7,6 L11,8 L11,9 L5,9 L6,13 L17,13 L17,15 L7,19 L4,19 L4,17 L2,17 L1,11 L4,11 L4,8 L2,8 L2,4 L0,4 L-1,8 L-3,7 L-3,4 L-10,5 L-10,2 L-1,2 Z " fill="#625245" transform="translate(73,46)"/>
<path d="M0,0 L7,1 L4,2 L4,4 L7,4 L6,8 L2,7 L1,12 L-1,15 L-5,15 L-6,18 L-6,16 L-9,15 L-15,13 L-15,11 L-13,11 L-13,9 L-7,11 L-5,12 L-5,2 Z " fill="#2E2018" transform="translate(73,25)"/>
<path d="M0,0 L3,1 L3,3 L8,4 L8,6 L10,6 L10,1 L12,4 L16,3 L16,5 L14,5 L13,10 L11,10 L10,15 L8,15 L8,17 L6,17 L6,15 L4,15 L2,10 L-1,13 L-3,12 L1,4 Z " fill="#191416" transform="translate(110,54)"/>
<path d="M0,0 L17,0 L16,6 L11,7 L12,11 L10,11 L9,14 L7,14 L6,10 L2,9 L3,5 L2,2 L0,3 L-6,3 L-2,1 Z " fill="#5C5249" transform="translate(57,20)"/>
<path d="M0,0 L5,0 L6,5 L4,5 L3,8 L0,8 L-1,11 L-2,9 L-5,9 L-5,7 L-16,8 L-17,3 L-5,2 L-1,6 L2,3 L-3,4 L-3,2 Z " fill="#665E55" transform="translate(95,52)"/>
<path d="M0,0 L9,2 L10,4 L12,4 L13,2 L16,7 L20,9 L16,10 L14,9 L13,12 L12,10 L13,8 L3,9 L-2,7 L-2,1 Z " fill="#667078" transform="translate(32,53)"/>
<path d="M0,0 L12,0 L12,6 L0,7 L-3,12 L-4,12 L-3,2 Z " fill="#0A0501" transform="translate(138,48)"/>
<path d="M0,0 L9,0 L6,1 L6,6 L8,7 L6,8 L11,8 L11,13 L7,15 L7,11 L5,11 L5,15 L0,15 L1,10 L3,10 L2,7 L0,6 Z " fill="#654F45" transform="translate(47,39)"/>
<path d="M0,0 L6,2 L6,4 L4,4 L4,6 L1,5 L0,12 L-5,12 L-5,15 L-7,15 L-8,8 L-8,5 L-8,2 L0,2 Z " fill="#5D5D63" transform="translate(123,40)"/>
<path d="M0,0 L14,0 L14,5 L-2,6 L-2,8 L0,9 L-4,9 L-5,11 L-6,7 L-3,6 L-3,2 Z " fill="#140C05" transform="translate(136,37)"/>
<path d="M0,0 L4,0 L5,2 L8,3 L8,1 L10,2 L12,3 L12,5 L17,5 L20,4 L21,9 L21,12 L17,10 L17,8 L15,8 L16,12 L13,10 L10,10 L9,12 L9,7 L7,6 L3,6 L3,4 L1,4 Z " fill="#151A1E" transform="translate(91,22)"/>
<path d="M0,0 L1,2 L-1,3 L-1,6 L-3,8 L1,9 L-2,11 L-16,11 L-17,8 L-11,6 L-10,4 L-6,4 L-6,2 Z " fill="#100906" transform="translate(126,73)"/>
<path d="M0,0 L3,0 L3,2 L7,2 L7,4 L12,5 L12,8 L13,11 L7,11 L7,9 L0,9 L-2,8 L-1,1 Z " fill="#2B1A1A" transform="translate(90,30)"/>
<path d="M0,0 L4,0 L4,3 L1,3 L1,5 L-2,5 L2,6 L1,9 L-1,9 L-2,12 L-4,16 L-7,16 L-6,3 L-12,3 L-12,2 L-2,1 Z " fill="#2F2E2E" transform="translate(47,12)"/>
<path d="M0,0 L12,2 L12,5 L16,5 L16,7 L11,8 L13,12 L7,12 L6,9 L2,9 L3,5 L0,2 Z " fill="#0E0709" transform="translate(70,72)"/>
<path d="M0,0 L17,0 L16,4 L15,7 L4,5 L3,3 L3,6 L0,5 Z " fill="#120B09" transform="translate(63,0)"/>
<path d="M0,0 L1,2 L18,2 L14,4 L18,5 L19,9 L13,8 L7,10 L7,8 L1,9 L2,6 L12,5 L11,4 L0,4 Z " fill="#423E42" transform="translate(52,6)"/>
<path d="M0,0 L5,1 L4,6 L8,7 L8,9 L4,9 L4,11 L-3,11 L-3,9 L-6,9 L-8,6 L-8,3 L-5,4 L-4,6 L-1,5 Z " fill="#776259" transform="translate(61,52)"/>
<path d="M0,0 L10,2 L7,3 L7,5 L10,5 L11,7 L14,6 L14,8 L16,8 L19,14 L16,14 L16,12 L14,12 L13,10 L12,12 L10,12 L10,10 L6,9 L3,6 L3,4 L0,4 Z " fill="#2A251F" transform="translate(125,16)"/>
<path d="M0,0 L7,0 L11,6 L-7,7 L-6,1 Z " fill="#251916" transform="translate(76,10)"/>
<path d="M0,0 L4,0 L4,3 L5,1 L15,1 L14,4 L12,6 L3,7 L0,6 L0,8 L-2,8 L-5,5 L-5,3 L-1,3 Z " fill="#402C21" transform="translate(41,61)"/>
<path d="M0,0 L6,0 L6,3 L2,6 L0,6 L0,8 L-6,9 L-11,7 L-9,3 L-13,1 L-4,1 L-6,7 L-1,4 L-2,2 L0,2 Z " fill="#342C23" transform="translate(90,46)"/>
<path d="M0,0 L7,0 L6,6 L2,10 L-4,12 L-5,10 L-3,10 L-2,2 Z " fill="#180D11" transform="translate(23,11)"/>
<path d="M0,0 L8,0 L8,2 L6,2 L6,4 L2,5 L-2,5 L-2,7 L-4,7 L-4,9 L-7,10 L-12,6 L-11,3 L-6,3 L-4,3 L-4,1 Z " fill="#786A63" transform="translate(37,30)"/>
<path d="M0,0 L9,1 L7,8 L10,9 L8,10 L1,10 L-2,6 L-1,5 L4,5 L4,3 L-3,4 Z " fill="#090509" transform="translate(82,74)"/>
<path d="M0,0 L2,1 L2,4 L4,4 L2,13 L-3,14 L-5,15 L-8,14 L-8,12 L-5,12 L-4,7 L-1,3 Z " fill="#2B2C33" transform="translate(105,51)"/>
<path d="M0,0 L4,3 L5,13 L3,13 L3,10 L1,10 L1,15 L-2,15 L-3,13 L-6,12 L-3,10 Z " fill="#3F322B" transform="translate(27,37)"/>
<path d="M0,0 L2,0 L4,4 L4,6 L4,8 L6,9 L-1,10 L-1,13 L-1,15 L-6,16 L-4,8 L-8,7 L-1,4 L0,3 L-2,1 Z " fill="#42312A" transform="translate(57,22)"/>
<path d="M0,0 L2,0 L2,5 L-1,13 L-4,13 L-3,16 L-10,20 L-12,20 L-12,18 L-9,18 L-9,16 L-5,12 L-4,6 L-6,5 L-3,3 L0,3 Z " fill="#525255" transform="translate(133,49)"/>
<path d="M0,0 L1,3 L7,3 L9,5 L3,5 L2,11 L-5,11 L-5,8 L-7,7 L-5,7 L-6,4 L-1,3 Z " fill="#1A100C" transform="translate(32,58)"/>
<path d="M0,0 L1,4 L2,12 L7,12 L8,16 L-3,16 L-4,20 L-4,13 L-1,12 L-2,9 L-2,1 Z " fill="#161414" transform="translate(33,38)"/>
<path d="M0,0 L5,0 L4,5 L4,10 L8,10 L8,15 L6,15 L6,13 L1,12 L0,7 L-2,7 Z " fill="#0A0E15" transform="translate(112,45)"/>
<path d="M0,0 L11,0 L11,2 L2,4 L6,6 L6,8 L-8,9 L-8,7 L-3,6 L-3,1 Z " fill="#1A1311" transform="translate(55,64)"/>
<path d="M0,0 L8,1 L8,9 L-3,10 L-2,6 L-4,5 L1,4 L2,5 L3,2 L0,2 Z " fill="#56453A" transform="translate(77,27)"/>
<path d="M0,0 L4,0 L5,3 L3,4 L2,7 L-2,7 L-2,9 L-7,11 L-11,11 L-10,8 L-7,8 L-7,6 L-3,5 L-2,1 Z " fill="#312824" transform="translate(135,67)"/>
<path d="M0,0 L4,1 L1,6 L5,6 L5,8 L2,8 L2,10 L-6,9 L-6,7 L0,7 L0,5 L-7,5 L-7,1 Z " fill="#221A16" transform="translate(37,0)"/>
<path d="M0,0 L10,0 L10,2 L15,2 L15,4 L13,4 L13,6 L0,5 Z " fill="#190E02" transform="translate(0,52)"/>
<path d="M0,0 L9,3 L17,7 L18,9 L16,9 L15,11 L10,10 L10,8 L7,9 L8,5 L1,4 Z " fill="#465860" transform="translate(93,17)"/>
<path d="M0,0 L6,4 L9,9 L5,11 L0,10 L-1,12 L-5,9 L0,9 Z " fill="#130F15" transform="translate(123,43)"/>
<path d="M0,0 L3,0 L6,3 L6,5 L3,5 L3,7 L8,8 L8,5 L10,5 L10,7 L12,7 L12,12 L8,13 L6,8 L4,8 L3,10 L-1,5 Z " fill="#93969D" transform="translate(101,32)"/>
<path d="M0,0 L8,0 L7,4 L2,4 L2,6 L5,5 L14,7 L14,8 L0,8 L-4,6 L0,5 L1,3 L-2,3 L-2,1 Z " fill="#040100" transform="translate(45,67)"/>
<path d="M0,0 L6,0 L9,4 L7,6 L0,6 L-4,7 L-7,8 L-6,4 L-3,4 L-2,2 L0,2 Z " fill="#0F0200" transform="translate(43,32)"/>
<path d="M0,0 L3,1 L2,3 L-2,3 L-1,7 L-4,9 L-14,9 L-14,7 L-6,7 L-6,5 L-12,4 L-10,2 L-6,1 L-5,2 L0,2 Z " fill="#5E5753" transform="translate(67,65)"/>
<path d="M0,0 L1,2 L3,2 L3,4 L1,4 L1,7 L3,8 L-1,16 L-9,20 L-13,19 L-8,16 L-8,14 L-2,14 L-1,1 Z " fill="#727278" transform="translate(109,50)"/>
<path d="M0,0 L3,1 L0,4 L-4,5 L-2,6 L-3,11 L-10,8 L-11,4 L-10,2 L0,2 Z " fill="#1D1312" transform="translate(55,24)"/>
<path d="M0,0 L2,3 L2,5 L4,6 L4,3 L7,4 L13,6 L9,9 L-9,8 L-9,6 L-1,5 Z " fill="#161416" transform="translate(62,0)"/>
<path d="M0,0 L2,0 L3,8 L-8,8 L-7,5 L-3,1 Z " fill="#3B302D" transform="translate(52,18)"/>
<path d="M0,0 L2,0 L5,4 L7,3 L8,1 L10,2 L10,5 L7,6 L6,10 L1,10 L1,5 L-2,4 L-1,1 Z " fill="#212028" transform="translate(105,40)"/>
<path d="M0,0 L2,1 L1,7 L-2,9 L0,11 L-3,11 L-3,13 L-10,15 L-8,10 L-5,9 L-4,7 L-2,7 L-3,2 Z " fill="#8A878C" transform="translate(103,50)"/>
<path d="M0,0 L5,0 L2,4 L-2,4 L-2,6 L-6,6 L-6,11 L-7,8 L-14,9 L-14,7 L-4,3 L-2,3 L-2,1 Z " fill="#646361" transform="translate(122,71)"/>
<path d="M0,0 L5,2 L8,7 L10,8 L11,6 L14,7 L13,9 L11,8 L11,11 L7,10 L7,12 L5,11 L6,9 L4,9 L4,7 L2,7 L0,3 Z " fill="#101315" transform="translate(116,30)"/>
<path d="M0,0 L9,0 L9,5 L8,6 L0,6 Z " fill="#5C595E" transform="translate(53,0)"/>
<path d="M0,0 L5,0 L6,5 L4,5 L3,8 L0,8 L-1,11 L-2,9 L-5,9 L-4,6 L0,5 L2,3 L-3,4 L-3,2 Z " fill="#6A6464" transform="translate(95,52)"/>
<path d="M0,0 L3,0 L4,6 L8,6 L9,10 L3,11 L3,9 L1,9 Z " fill="#605752" transform="translate(18,63)"/>
<path d="M0,0 L2,0 L2,2 L6,2 L6,7 L1,10 L1,8 L-1,8 L-2,3 Z " fill="#1A0A06" transform="translate(19,40)"/>
<path d="M0,0 L5,1 L2,2 L2,5 L7,5 L7,7 L1,7 L0,9 L-4,5 L-3,1 Z " fill="#22140C" transform="translate(80,35)"/>
<path d="M0,0 L6,0 L4,3 L3,8 L1,8 L1,6 L-8,5 L-8,2 L0,1 Z " fill="#2B1D1A" transform="translate(22,31)"/>
<path d="M0,0 L4,4 L4,6 L6,6 L6,3 L8,4 L8,7 L5,7 L6,12 L2,15 L-1,7 L3,7 L3,5 L-1,3 Z " fill="#151314" transform="translate(94,4)"/>
<path d="M0,0 L7,0 L8,3 L11,0 L13,1 L12,6 L6,4 L4,3 L4,5 L-1,4 L-2,1 Z " fill="#210F0A" transform="translate(56,31)"/>
<path d="M0,0 L5,0 L5,2 L-5,6 L-8,6 L-8,4 L-10,3 L-8,3 L-8,1 Z " fill="#161315" transform="translate(85,59)"/>
<path d="M0,0 L7,0 L9,1 L9,3 L11,3 L11,0 L13,0 L13,5 L12,6 L7,6 L7,4 L4,5 L4,2 L0,2 Z " fill="#170502" transform="translate(14,36)"/>
<path d="M0,0 L3,0 L3,2 L1,2 L0,7 L-2,7 L-3,12 L-5,12 L-5,14 L-7,14 L-7,12 L-9,11 L-5,9 L-4,6 L-2,6 Z " fill="#87807E" transform="translate(123,57)"/>
<path d="M0,0 L3,3 L4,5 L8,7 L4,8 L2,7 L1,10 L0,8 L1,6 L-5,7 L-4,1 L0,2 Z " fill="#7C675E" transform="translate(44,55)"/>
<path d="M0,0 L7,1 L4,2 L4,4 L7,4 L6,8 L4,7 L0,6 L-3,5 L-2,1 Z " fill="#18110B" transform="translate(73,25)"/>
<path d="M0,0 L4,1 L4,3 L6,3 L6,5 L11,6 L14,7 L14,9 L8,8 L6,7 L5,9 L2,6 L2,2 L0,2 Z " fill="#29282B" transform="translate(105,16)"/>
<path d="M0,0 L7,1 L11,7 L11,9 L8,9 L6,7 L3,5 L3,3 L0,3 Z " fill="#4B3E3D" transform="translate(114,14)"/>
<path d="M0,0 L4,1 L4,4 L7,5 L7,12 L3,11 L3,7 L1,6 L3,5 L0,2 Z " fill="#715B52" transform="translate(38,42)"/>
<path d="M0,0 L4,0 L4,10 L0,11 L2,6 L-2,6 L-2,2 L0,2 Z " fill="#2F1A16" transform="translate(137,61)"/>
<path d="M0,0 L1,2 L6,2 L6,4 L9,5 L7,9 L1,9 Z " fill="#33211D" transform="translate(33,42)"/>
<path d="M0,0 L3,0 L5,8 L0,9 L-2,8 L-1,1 Z " fill="#271A15" transform="translate(90,30)"/>
<path d="M0,0 L5,0 L8,7 L2,6 L-2,4 L-2,2 L0,2 Z " fill="#51412F" transform="translate(15,54)"/>
<path d="M0,0 L4,0 L5,5 L4,7 L-3,6 L-2,2 Z " fill="#1D1612" transform="translate(41,0)"/>
<path d="M0,0 L10,0 L8,2 L2,3 L2,7 L-3,6 L-3,1 Z " fill="#230F0A" transform="translate(56,39)"/>
<path d="M0,0 L2,1 L2,4 L5,4 L7,8 L6,12 L6,10 L4,10 L-1,5 L-4,5 L-2,1 Z " fill="#0B1117" transform="translate(105,9)"/>
<path d="M0,0 L5,1 L6,4 L0,7 L-1,9 L-5,11 L-8,10 L-7,8 L-2,8 L-2,4 L0,3 Z " fill="#403430" transform="translate(68,58)"/>
<path d="M0,0 L4,2 L2,3 L2,5 L4,5 L5,9 L-1,8 L-3,6 L-1,6 L-2,1 Z " fill="#0E1921" transform="translate(103,13)"/>
<path d="M0,0 L3,0 L3,3 L10,3 L9,6 L0,5 L0,8 L5,8 L5,9 L-3,9 L0,3 Z " fill="#29190F" transform="translate(63,43)"/>
<path d="M0,0 L11,1 L7,3 L5,7 L4,4 L1,4 L0,6 L-1,2 Z " fill="#474D54" transform="translate(111,26)"/>
<path d="M0,0 L5,1 L4,4 L7,4 L7,6 L1,6 L-6,3 L-6,2 L0,1 Z " fill="#363332" transform="translate(83,21)"/>
<path d="M0,0 L3,1 L2,5 L-9,5 L-8,2 L0,2 Z " fill="#050201" transform="translate(60,79)"/>
<path d="M0,0 L2,0 L2,6 L0,10 L-5,10 L-5,7 L-2,7 L-2,3 L0,3 Z " fill="#7F7469" transform="translate(87,30)"/>
<path d="M0,0 L2,0 L2,2 L4,2 L7,8 L4,8 L4,6 L2,6 L1,4 L0,6 L-2,6 L-2,4 L-5,4 L-5,2 Z " fill="#362D2B" transform="translate(137,22)"/>
<path d="M0,0 L9,0 L12,1 L12,4 L2,3 L0,2 Z " fill="#867B71" transform="translate(56,77)"/>
<path d="M0,0 L11,0 L11,4 L4,5 L4,2 L-2,2 Z " fill="#1E1F22" transform="translate(68,67)"/>
<path d="M0,0 L1,0 L1,7 L-1,12 L-4,11 L-2,7 L-4,6 L-3,5 L-9,4 L-9,3 L0,3 Z " fill="#161014" transform="translate(40,15)"/>
<path d="M0,0 L1,2 L3,3 L0,4 L-1,8 L-2,6 L-8,6 L-7,2 L-4,3 L0,2 Z " fill="#463E37" transform="translate(115,69)"/>
<path d="M0,0 L6,2 L6,3 L0,3 L1,8 L-1,8 L-1,10 L-3,10 L-4,5 L-1,5 Z " fill="#4B3F35" transform="translate(78,52)"/>
<path d="M0,0 L6,2 L8,5 L-1,5 L-2,2 L0,2 Z " fill="#6A5448" transform="translate(60,34)"/>
<path d="M0,0 L2,1 L2,4 L9,6 L7,7 L7,9 L3,8 L3,6 L-2,5 L-1,1 Z " fill="#363943" transform="translate(92,16)"/>
<path d="M0,0 L4,0 L4,2 L12,2 L12,4 L3,3 L3,6 L0,5 Z " fill="#605957" transform="translate(63,0)"/>
<path d="M0,0 L5,0 L5,5 L0,6 L-5,5 L-4,3 L0,2 Z " fill="#A29EA0" transform="translate(85,68)"/>
<path d="M0,0 L3,0 L3,3 L0,3 L-1,6 L-8,7 L-8,5 L-5,3 L-1,3 Z " fill="#101113" transform="translate(90,61)"/>
<path d="M0,0 L1,0 L2,5 L7,4 L6,7 L4,7 L3,10 L-2,4 L-2,2 L0,2 Z " fill="#3A3436" transform="translate(129,42)"/>
<path d="M0,0 L8,0 L8,4 L0,4 Z " fill="#100704" transform="translate(40,80)"/>
<path d="M0,0 L5,0 L5,5 L0,6 L-2,4 Z " fill="#090605" transform="translate(129,62)"/>
<path d="M0,0 L3,1 L4,4 L3,6 L7,5 L7,7 L1,9 L-1,7 L1,4 Z " fill="#554F52" transform="translate(110,54)"/>
<path d="M0,0 L5,1 L2,9 L-1,8 Z " fill="#7A655B" transform="translate(61,52)"/>
<path d="M0,0 L6,2 L6,4 L4,4 L4,6 L-5,4 L-2,2 L0,2 Z " fill="#726E73" transform="translate(123,40)"/>
<path d="M0,0 L4,1 L1,4 L-7,4 L-7,1 Z " fill="#483F3A" transform="translate(37,0)"/>
<path d="M0,0 L7,0 L6,4 L2,6 L0,3 Z " fill="#020101" transform="translate(45,0)"/>
<path d="M0,0 L2,2 L2,10 L-1,10 L-2,1 Z " fill="#1A100E" transform="translate(97,72)"/>
<path d="M0,0 L2,0 L2,3 L-1,3 L-2,7 L-8,8 L-7,5 L-4,5 L-4,3 L0,2 Z " fill="#574D4D" transform="translate(132,70)"/>
<path d="M0,0 L2,1 L1,3 L-6,5 L-6,7 L-10,6 L-10,4 Z " fill="#75767A" transform="translate(88,61)"/>
<path d="M0,0 L1,3 L7,3 L9,5 L3,5 L3,8 L0,8 L-2,4 Z " fill="#232120" transform="translate(32,58)"/>
<path d="M0,0 L1,0 L2,6 L-1,9 L-2,7 L-6,6 L-3,6 L-3,4 L-7,5 L-6,2 L-2,3 L-2,5 L0,5 Z " fill="#221711" transform="translate(120,55)"/>
<path d="M0,0 L2,1 L0,6 L-4,7 L-6,5 L-4,1 L0,2 Z " fill="#74777B" transform="translate(39,55)"/>
<path d="M0,0 L15,0 L13,1 L13,3 L0,2 Z " fill="#2F1F0C" transform="translate(0,55)"/>
<path d="M0,0 L11,1 L12,6 L11,4 L0,3 Z " fill="#0F0B0E" transform="translate(111,23)"/>
<path d="M0,0 L4,1 L1,2 L0,5 L-2,9 L-5,9 L-5,4 L-2,4 L-2,2 L0,2 Z " fill="#5F5D5F" transform="translate(45,19)"/>
<path d="M0,0 L9,0 L9,2 L2,3 L2,5 L-2,3 Z " fill="#8F8278" transform="translate(64,20)"/>
<path d="M0,0 L4,0 L4,2 L-1,3 L1,7 L-4,7 L-3,1 Z " fill="#2A1F24" transform="translate(82,77)"/>
<path d="M0,0 L11,0 L11,2 L0,4 L-3,1 Z " fill="#130704" transform="translate(55,64)"/>
<path d="M0,0 L1,2 L3,2 L3,4 L0,7 L-7,8 L-6,4 L-3,4 L-2,2 L0,2 Z " fill="#190A06" transform="translate(43,32)"/>
<path d="M0,0 L5,0 L7,4 L8,9 L4,7 L4,4 L1,3 Z " fill="#918E91" transform="translate(117,28)"/>
<path d="M0,0 L8,2 L8,7 L6,7 L6,5 L1,4 Z " fill="#150B09" transform="translate(112,53)"/>
<path d="M0,0 L7,0 L10,2 L9,6 L7,5 L7,2 L0,3 Z " fill="#5A4638" transform="translate(63,48)"/>
<path d="M0,0 L2,4 L5,7 L0,8 L-1,11 L-1,9 L-4,8 L-1,5 Z " fill="#372418" transform="translate(68,32)"/>
<path d="M0,0 L3,0 L6,3 L6,5 L3,5 L3,7 L-1,5 Z " fill="#78777A" transform="translate(101,32)"/>
<path d="M0,0 L2,0 L1,3 L-2,6 L-8,8 L-9,6 L-5,5 L-5,3 Z " fill="#534A4E" transform="translate(27,15)"/>
<path d="M0,0 L2,0 L1,6 L4,7 L2,8 L-5,8 L-6,5 L0,6 Z " fill="#1D150F" transform="translate(88,76)"/>
<path d="M0,0 L3,1 L3,3 L5,4 L5,7 L0,7 Z " fill="#22323E" transform="translate(105,77)"/>
<path d="M0,0 L5,0 L5,2 L2,2 L3,7 L1,6 L1,4 L-3,3 L-4,1 Z " fill="#271A0F" transform="translate(72,55)"/>
<path d="M0,0 L1,2 L3,2 L3,4 L1,4 L1,7 L3,8 L-1,12 L-1,1 Z " fill="#999BA3" transform="translate(109,50)"/>
<path d="M0,0 L5,0 L5,2 L7,2 L7,5 L4,5 L4,2 L2,5 L-1,4 Z " fill="#6F5C50" transform="translate(62,41)"/>
<path d="M0,0 L5,1 L5,5 L0,7 L0,4 L-2,3 Z " fill="#3A2F2C" transform="translate(29,29)"/>
<path d="M0,0 L4,2 L6,3 L6,5 L2,6 L-2,4 Z " fill="#8C8078" transform="translate(61,25)"/>
<path d="M0,0 L7,1 L10,3 L9,6 L5,6 L5,3 L0,2 Z " fill="#616166" transform="translate(82,19)"/>
<path d="M0,0 L9,3 L10,7 L8,7 L8,5 L1,4 Z " fill="#73747D" transform="translate(93,17)"/>
<path d="M0,0 L5,0 L5,3 L9,5 L2,5 L2,2 L-1,1 Z " fill="#44362F" transform="translate(51,76)"/>
<path d="M0,0 L5,1 L5,3 L7,3 L6,7 L2,6 L3,2 L-1,3 Z " fill="#424349" transform="translate(115,36)"/>
<path d="M0,0 L4,1 L1,4 L0,8 L-8,8 L-4,6 L-1,6 L-1,1 Z " fill="#463D39" transform="translate(94,66)"/>
<path d="M0,0 L4,0 L4,5 L0,7 Z " fill="#826C62" transform="translate(54,47)"/>
<path d="M0,0 L9,0 L7,4 L4,5 L4,2 Z " fill="#2F2316" transform="translate(77,47)"/>
<path d="M0,0 L3,0 L3,2 L8,3 L7,7 L5,6 L6,4 L3,4 L2,6 L2,3 L0,3 Z " fill="#A2A4AE" transform="translate(115,42)"/>
<path d="M0,0 L1,4 L0,12 L-2,9 L-2,1 Z " fill="#1F130E" transform="translate(33,38)"/>
<path d="M0,0 L3,0 L2,3 L3,7 L-2,8 Z " fill="#68544C" transform="translate(53,30)"/>
<path d="M0,0 L3,4 L0,4 L0,6 L2,6 L1,9 L-3,8 L-1,3 Z " fill="#140A0F" transform="translate(30,19)"/>
<path d="M0,0 L4,2 L5,6 L4,4 L0,6 L0,3 L-3,3 L-3,1 Z " fill="#110D0B" transform="translate(135,18)"/>
<path d="M0,0 L11,0 L11,3 L0,2 Z " fill="#342A27" transform="translate(67,0)"/>
<path d="M0,0 L1,4 L4,5 L2,9 L1,6 L-3,5 L-5,1 L0,2 Z " fill="#646067" transform="translate(105,46)"/>
<path d="M0,0 L5,0 L4,7 L2,8 L1,5 L-1,3 Z " fill="#503A32" transform="translate(40,38)"/>
<path d="M0,0 L2,0 L3,5 L3,8 L-1,6 L-1,3 L-4,2 L0,2 Z " fill="#1D2222" transform="translate(109,26)"/>
<path d="M0,0 L8,0 L4,2 L4,5 L-1,5 L1,3 Z " fill="#3F353A" transform="translate(31,19)"/>
<path d="M0,0 L7,0 L11,6 L5,6 L6,1 L0,1 Z " fill="#241512" transform="translate(76,10)"/>
<path d="M0,0 L4,0 L4,5 L-4,5 L0,4 Z " fill="#6F6D6F" transform="translate(58,0)"/>
<path d="M0,0 L2,2 L0,4 L4,5 L1,7 L-3,7 L-2,1 Z " fill="#2F2121" transform="translate(123,77)"/>
<path d="M0,0 L7,1 L6,4 L4,4 L3,6 L3,2 L0,3 L-3,1 Z " fill="#2F2320" transform="translate(38,53)"/>
<path d="M0,0 L4,3 L4,5 L-2,6 L-2,1 Z " fill="#35271C" transform="translate(15,57)"/>
<path d="M0,0 L4,1 L5,5 L2,4 L1,7 L-1,1 Z " fill="#2B1409" transform="translate(56,53)"/>
<path d="M0,0 L2,3 L1,10 L0,8 L-3,7 Z " fill="#5E483E" transform="translate(60,46)"/>
<path d="M0,0 L3,1 L3,4 L0,5 L-1,9 L-3,9 L-4,6 L0,2 Z " fill="#4D515A" transform="translate(112,41)"/>
<path d="M0,0 L4,1 L6,2 L5,7 L3,6 L3,3 L-1,3 Z " fill="#2A1A19" transform="translate(47,28)"/>
<path d="M0,0 L5,0 L4,4 L-1,4 Z " fill="#372823" transform="translate(77,11)"/>
<path d="M0,0 L1,3 L-5,6 L-5,1 Z " fill="#1D1419" transform="translate(29,11)"/>
<path d="M0,0 L5,0 L5,5 L4,3 L-3,4 Z " fill="#12080E" transform="translate(82,74)"/>
<path d="M0,0 L2,0 L2,5 L-4,6 L-3,3 L0,3 Z " fill="#16130F" transform="translate(118,69)"/>
<path d="M0,0 L3,1 L4,3 L7,3 L6,6 L2,6 L0,3 Z " fill="#553E32" transform="translate(53,55)"/>
<path d="M0,0 L2,0 L2,2 L4,3 L1,6 L-2,6 L-1,2 Z " fill="#5F574E" transform="translate(86,47)"/>
<path d="M0,0 L3,1 L9,3 L5,6 L0,5 Z " fill="#29211E" transform="translate(66,3)"/>
<path d="M0,0 L4,0 L5,6 L3,6 L3,4 L0,3 Z " fill="#272A27" transform="translate(95,4)"/>
<path d="M0,0 L5,1 L7,2 L7,4 L0,3 Z " fill="#343A36" transform="translate(100,2)"/>
<path d="M0,0 L6,0 L6,3 L-1,3 Z " fill="#1F2225" transform="translate(9,77)"/>
<path d="M0,0 L6,1 L7,4 L1,5 Z " fill="#505156" transform="translate(79,67)"/>
<path d="M0,0 L3,0 L3,2 L1,2 L0,7 L-4,6 L-2,6 Z " fill="#74695F" transform="translate(123,57)"/>
<path d="M0,0 L6,0 L4,2 L5,4 L1,5 Z " fill="#7D746F" transform="translate(78,55)"/>
<path d="M0,0 L2,0 L2,2 L7,0 L7,3 L3,5 L0,2 Z " fill="#423A35" transform="translate(90,54)"/>
<path d="M0,0 L3,1 L3,4 L-3,5 L-2,1 Z " fill="#504842" transform="translate(84,55)"/>
<path d="M0,0 L9,3 L8,6 L8,4 L5,5 L3,7 L3,2 L0,2 Z " fill="#4A3E3A" transform="translate(118,53)"/>
<path d="M0,0 L2,2 L2,5 L4,5 L3,9 L0,7 Z " fill="#353238" transform="translate(123,43)"/>
<path d="M0,0 L5,1 L6,4 L0,4 Z " fill="#251B1F" transform="translate(97,37)"/>
<path d="M0,0 L5,0 L5,2 L2,2 L2,4 L4,5 L1,5 L0,8 Z " fill="#22100E" transform="translate(13,28)"/>
<path d="M0,0 L7,1 L8,3 L4,3 L3,5 L3,3 L0,3 Z " fill="#3C302E" transform="translate(114,14)"/>
<path d="M0,0 L3,0 L4,6 L2,5 L2,3 L-2,3 L-2,1 Z " fill="#20130E" transform="translate(74,78)"/>
<path d="M0,0 L5,2 L6,6 L2,6 Z " fill="#594837" transform="translate(17,55)"/>
<path d="M0,0 L3,2 L2,5 L-2,6 L-2,2 L0,2 Z " fill="#160F12" transform="translate(99,47)"/>
<path d="M0,0 L4,1 L4,4 L7,5 L4,6 L0,2 Z " fill="#69534A" transform="translate(38,42)"/>
<path d="M0,0 L2,0 L3,4 L-6,4 L-5,2 L0,2 Z " fill="#311B14" transform="translate(56,35)"/>
<path d="M0,0 L4,1 L7,4 L5,4 L4,6 L2,3 L0,3 Z " fill="#7F8F97" transform="translate(104,22)"/>
<path d="M0,0 L4,1 L4,3 L6,3 L7,6 L2,5 L2,2 L0,2 Z " fill="#5B6971" transform="translate(105,16)"/>
<path d="M0,0 L5,0 L6,4 L-2,2 Z " fill="#67615E" transform="translate(65,11)"/>
<path d="M0,0 L6,1 L2,3 L1,5 L-2,3 Z " fill="#291F20" transform="translate(126,70)"/>
<path d="M0,0 L5,0 L2,4 L-2,4 L-2,1 Z " fill="#5D5756" transform="translate(122,71)"/>
<path d="M0,0 L4,1 L5,3 L0,4 L-3,3 L-3,1 Z " fill="#19181B" transform="translate(100,62)"/>
<path d="M0,0 L5,0 L5,3 L0,4 Z " fill="#130D0A" transform="translate(91,46)"/>
<path d="M0,0 L5,0 L5,3 L7,4 L2,4 L2,2 L0,2 Z " fill="#6F6358" transform="translate(81,42)"/>
<path d="M0,0 L2,0 L1,7 L-1,7 L-2,3 Z " fill="#38231B" transform="translate(19,40)"/>
<path d="M0,0 L2,3 L-1,6 L-5,5 L-3,5 L-2,1 Z " fill="#28140F" transform="translate(39,38)"/>
<path d="M0,0 L4,1 L3,2 L6,5 L1,5 Z " fill="#1F1519" transform="translate(16,20)"/>
<path d="M0,0 L4,1 L4,4 L-3,3 L0,2 Z " fill="#675B4F" transform="translate(64,77)"/>
<path d="M0,0 L3,0 L3,5 L-2,4 L0,3 Z " fill="#150F10" transform="translate(90,67)"/>
<path d="M0,0 L5,1 L5,3 L-2,5 Z " fill="#9F9B9E" transform="translate(95,60)"/>
<path d="M0,0 L4,0 L4,3 L-2,5 Z " fill="#7F7062" transform="translate(73,46)"/>
<path d="M0,0 L1,0 L1,9 L-2,6 Z " fill="#2C170F" transform="translate(45,39)"/>
<path d="M0,0 L7,1 L7,3 L0,3 Z " fill="#38231D" transform="translate(14,33)"/>
<path d="M0,0 L3,0 L4,5 L-2,5 L0,1 Z " fill="#6B7378" transform="translate(112,30)"/>
<path d="M0,0 L4,1 L3,5 L0,4 Z " fill="#1B0E10" transform="translate(129,31)"/>
<path d="M0,0 L2,1 L1,3 L4,3 L4,5 L-2,5 Z " fill="#17161B" transform="translate(86,22)"/>
<path d="M0,0 L2,0 L3,4 L-4,3 L-3,1 Z " fill="#3A3133" transform="translate(52,18)"/>
<path d="M0,0 L6,0 L4,3 L-2,4 L-2,1 Z " fill="#070502" transform="translate(80,17)"/>
<path d="M0,0 L5,0 L6,3 L-2,3 Z " fill="#291C15" transform="translate(46,76)"/>
<path d="M0,0 L10,2 L10,3 L2,4 Z " fill="#3E3A3E" transform="translate(70,72)"/>
<path d="M0,0 L4,0 L5,3 L0,4 Z " fill="#5D4C46" transform="translate(135,67)"/>
<path d="M0,0 L4,2 L4,5 L0,6 Z " fill="#584B47" transform="translate(34,45)"/>
<path d="M0,0 L2,0 L3,4 L2,9 L0,6 Z " fill="#655249" transform="translate(25,42)"/>
<path d="M0,0 L2,0 L2,6 L-2,4 L-1,1 Z " fill="#434249" transform="translate(105,40)"/>
<path d="M0,0 L2,0 L2,2 L4,2 L4,7 L1,7 Z " fill="#80868D" transform="translate(109,37)"/>
<path d="M0,0 L2,1 L3,6 L-3,4 L-3,2 L0,2 Z " fill="#4A4E53" transform="translate(107,35)"/>
<path d="M0,0 L3,0 L3,3 L-1,4 L-3,3 L-3,1 Z " fill="#22201B" transform="translate(132,21)"/>
<path d="M0,0 L4,0 L4,3 L-2,3 L-2,1 Z " fill="#413E40" transform="translate(47,12)"/>
<path d="M0,0 L6,0 L6,2 L0,3 Z " fill="#080B0F" transform="translate(107,75)"/>
<path d="M0,0 L2,0 L3,4 L-3,5 L-2,3 L0,4 Z " fill="#3C322D" transform="translate(24,69)"/>
<path d="M0,0 L3,0 L3,3 L-5,4 L-1,2 Z " fill="#605F62" transform="translate(90,64)"/>
<path d="M0,0 L2,0 L2,5 L-1,6 Z " fill="#585A62" transform="translate(131,55)"/>
<path d="M0,0 L6,2 L7,5 L5,5 L5,3 L0,3 Z " fill="#302D30" transform="translate(123,53)"/>
<path d="M0,0 L5,1 L4,4 L-1,3 Z " fill="#090201" transform="translate(36,50)"/>
<path d="M0,0 L2,0 L3,5 L-1,5 Z " fill="#8B766B" transform="translate(48,49)"/>
<path d="M0,0 L3,0 L3,4 L-1,3 L-2,1 Z " fill="#27272C" transform="translate(113,50)"/>
<path d="M0,0 L3,0 L4,5 L0,4 Z " fill="#615B5C" transform="translate(91,39)"/>
<path d="M0,0 L5,0 L5,3 L0,3 Z " fill="#766357" transform="translate(82,37)"/>
<path d="M0,0 L2,0 L2,2 L0,2 L0,4 L-4,5 L-3,1 Z " fill="#594B44" transform="translate(43,30)"/>
<path d="M0,0 L3,1 L4,4 L0,4 L0,2 L-2,1 Z " fill="#705D51" transform="translate(75,31)"/>
<path d="M0,0 L3,2 L4,4 L0,5 L-1,1 Z " fill="#424143" transform="translate(98,27)"/>
<path d="M0,0 L1,2 L3,2 L3,4 L5,4 L4,6 L-1,3 Z " fill="#3E383F" transform="translate(91,24)"/>
<path d="M0,0 L1,4 L0,5 L-6,5 L-2,2 L0,2 Z " fill="#3B322B" transform="translate(73,20)"/>
<path d="M0,0 L8,0 L7,4 L5,2 L0,1 Z " fill="#110604" transform="translate(45,67)"/>
<path d="M0,0 L4,1 L4,4 L6,5 L1,4 Z " fill="#050303" transform="translate(112,53)"/>
<path d="M0,0 L3,0 L3,5 L-1,3 Z " fill="#726660" transform="translate(26,33)"/>
<path d="M0,0 L3,1 L3,3 L-2,4 Z " fill="#9D8D84" transform="translate(37,30)"/>
<path d="M0,0 L3,0 L3,6 L1,6 Z " fill="#42342A" transform="translate(82,28)"/>
<path d="M0,0 L5,1 L4,5 L2,4 Z " fill="#28190F" transform="translate(75,28)"/>
<path d="M0,0 L3,0 L3,4 L0,4 L-1,1 Z " fill="#07090D" transform="translate(110,80)"/>
<path d="M0,0 L5,0 L4,3 L0,4 Z " fill="#291E1A" transform="translate(33,72)"/>
<path d="M0,0 L2,0 L3,4 L-1,4 Z " fill="#292625" transform="translate(108,71)"/>
<path d="M0,0 L5,1 L3,4 L0,4 Z " fill="#0F0401" transform="translate(138,56)"/>
<path d="M0,0 L3,0 L2,4 L-2,3 Z " fill="#4B3829" transform="translate(67,50)"/>
<path d="M0,0 L3,1 L3,5 L0,4 Z " fill="#7A675D" transform="translate(69,32)"/>
<path d="M0,0 L3,4 L3,5 L-2,5 L-1,2 Z " fill="#3C3435" transform="translate(46,21)"/>
<path d="M0,0 L6,0 L6,1 L1,1 L1,4 L-2,3 Z " fill="#0E060B" transform="translate(23,11)"/>
<path d="M0,0 L3,0 L3,4 L0,4 Z " fill="#191E29" transform="translate(102,78)"/>
<path d="M0,0 L3,0 L3,4 L0,4 Z " fill="#615A57" transform="translate(93,78)"/>
<path d="M0,0 L4,0 L4,3 L0,3 Z " fill="#333233" transform="translate(89,79)"/>
<path d="M0,0 L4,2 L0,3 L-2,3 L-2,1 Z " fill="#35261E" transform="translate(49,70)"/>
<path d="M0,0 L5,0 L5,2 L1,3 Z " fill="#8E8C90" transform="translate(85,68)"/>
<path d="M0,0 L3,0 L3,4 L0,4 Z " fill="#5A4E46" transform="translate(18,63)"/>
<path d="M0,0 L7,1 L7,3 L3,2 Z " fill="#444349" transform="translate(100,61)"/>
<path d="M0,0 L1,2 L3,2 L3,5 L-1,5 Z " fill="#70594F" transform="translate(59,58)"/>
<path d="M0,0 L4,1 L0,5 Z " fill="#B8B8BF" transform="translate(108,57)"/>
<path d="M0,0 L6,0 L1,4 Z " fill="#3A2419" transform="translate(66,55)"/>
<path d="M0,0 L5,1 L4,4 L1,4 Z " fill="#8A868D" transform="translate(101,44)"/>
<path d="M0,0 L4,2 L2,3 L2,5 L0,5 Z " fill="#44372B" transform="translate(87,37)"/>
<path d="M0,0 L3,1 L2,4 L-2,3 Z " fill="#2C1913" transform="translate(38,33)"/>
<path d="M0,0 L3,1 L2,3 L4,4 L1,5 L-1,3 Z " fill="#7B6A61" transform="translate(33,31)"/>
<path d="M0,0 L3,1 L4,5 L2,5 L2,3 L-1,3 Z " fill="#8D99A1" transform="translate(99,19)"/>
<path d="M0,0 L4,1 L0,4 L-2,3 Z " fill="#2F2523" transform="translate(71,13)"/>
<path d="M0,0 L4,1 L4,3 L0,3 Z " fill="#4C3D33" transform="translate(79,81)"/>
<path d="M0,0 L4,0 L3,3 L0,3 Z " fill="#2E2624" transform="translate(94,70)"/>
<path d="M0,0 L1,0 L1,5 L-2,5 L-2,2 L0,2 Z " fill="#342C27" transform="translate(123,62)"/>
<path d="M0,0 L4,1 L2,2 L2,4 L0,4 Z " fill="#5F5656" transform="translate(75,58)"/>
<path d="M0,0 L2,0 L0,5 L-2,4 Z " fill="#919FA7" transform="translate(35,56)"/>
<path d="M0,0 L1,2 L3,2 L2,5 L-1,4 Z " fill="#AB958B" transform="translate(61,56)"/>
<path d="M0,0 L2,0 L2,2 L4,2 L3,5 L0,2 Z " fill="#1B0B04" transform="translate(21,56)"/>
<path d="M0,0 L2,1 L1,5 L-2,4 Z " fill="#18181E" transform="translate(105,51)"/>
<path d="M0,0 L2,0 L1,5 L-1,5 Z " fill="#B2AFB2" transform="translate(117,50)"/>
<path d="M0,0 L2,0 L0,4 L-2,4 L-2,1 Z " fill="#130803" transform="translate(83,48)"/>
<path d="M0,0 L2,1 L1,6 L-1,4 Z " fill="#352622" transform="translate(27,37)"/>
<path d="M0,0 L4,0 L4,2 L2,2 L1,4 Z " fill="#5B4C48" transform="translate(118,17)"/>
<path d="M0,0 L3,0 L4,3 L0,3 Z " fill="#372920" transform="translate(40,81)"/>
<path d="M0,0 L2,0 L2,2 L4,3 L-1,3 Z " fill="#140C05" transform="translate(63,81)"/>
<path d="M0,0 L1,0 L1,5 L-2,5 Z " fill="#2C2321" transform="translate(18,67)"/>
<path d="M0,0 L3,1 L3,3 L-1,3 Z " fill="#442E29" transform="translate(136,64)"/>
<path d="M0,0 L4,1 L0,4 Z " fill="#666064" transform="translate(94,66)"/>
<path d="M0,0 L3,1 L3,4 L-1,2 Z " fill="#5F5A5F" transform="translate(74,62)"/>
<path d="M0,0 L4,0 L2,4 L2,2 L0,2 Z " fill="#4D3C32" transform="translate(41,61)"/>
<path d="M0,0 L2,4 L1,6 L-1,6 Z " fill="#645E5C" transform="translate(40,56)"/>
<path d="M0,0 L5,0 L3,1 L3,3 L0,2 Z " fill="#3D2D1D" transform="translate(10,55)"/>
<path d="M0,0 L3,1 L3,3 L-1,3 Z " fill="#3C271E" transform="translate(56,53)"/>
<path d="M0,0 L3,2 L-2,3 L-2,1 Z " fill="#615853" transform="translate(92,51)"/>
<path d="M0,0 L3,1 L1,4 L-1,4 Z " fill="#AD978C" transform="translate(55,50)"/>
<path d="M0,0 L3,4 L0,5 L-1,2 Z " fill="#656B72" transform="translate(116,46)"/>
<path d="M0,0 L3,0 L4,4 L0,2 Z " fill="#564F55" transform="translate(96,43)"/>
<path d="M0,0 L0,3 L-3,4 L-3,1 Z " fill="#493528" transform="translate(81,37)"/>
<path d="M0,0 L3,2 L-1,3 L-3,1 Z " fill="#3F3538" transform="translate(99,34)"/>
<path d="M0,0 L2,1 L1,4 L-1,4 L-2,1 Z " fill="#47352A" transform="translate(65,30)"/>
<path d="M0,0 L4,1 L2,1 L2,3 L-1,3 Z " fill="#2C2023" transform="translate(47,28)"/>
<path d="M0,0 L3,0 L2,4 L0,3 Z " fill="#564D51" transform="translate(88,27)"/>
<path d="M0,0 L2,1 L1,5 L-1,5 Z " fill="#0F0507" transform="translate(137,25)"/>
<path d="M0,0 L3,1 L2,4 L-1,1 Z " fill="#273842" transform="translate(108,21)"/>
<path d="M0,0 L4,1 L1,4 Z " fill="#231A18" transform="translate(47,21)"/>
<path d="M0,0 L3,1 L1,2 L1,4 L-1,4 Z " fill="#28343F" transform="translate(104,14)"/>
<path d="M0,0 L3,1 L3,3 L0,4 Z " fill="#2F414D" transform="translate(105,77)"/>
<path d="M0,0 L2,0 L3,3 L0,4 Z " fill="#0A0200" transform="translate(95,73)"/>
<path d="M0,0 L2,0 L2,3 L-2,2 Z " fill="#81766D" transform="translate(118,74)"/>
<path d="M0,0 L1,2 L-3,4 L-3,1 Z " fill="#2F2D2B" transform="translate(117,64)"/>
<path d="M0,0 L4,0 L4,3 L0,1 Z " fill="#110602" transform="translate(68,56)"/>
<path d="M0,0 L3,1 L2,5 Z " fill="#726151" transform="translate(17,55)"/>
<path d="M0,0 L2,0 L2,3 L-2,2 Z " fill="#4E4243" transform="translate(95,49)"/>
<path d="M0,0 L3,0 L3,3 L0,3 Z " fill="#888C95" transform="translate(115,42)"/>
<path d="M0,0 L3,0 L3,3 L0,3 Z " fill="#635044" transform="translate(66,43)"/>
<path d="M0,0 L3,0 L3,3 L0,3 Z " fill="#180402" transform="translate(53,41)"/>
<path d="M0,0 L1,4 L-1,5 L-2,2 Z " fill="#75675C" transform="translate(88,32)"/>
<path d="M0,0 L4,1 L0,3 Z " fill="#657981" transform="translate(104,22)"/>
<path d="M0,0 L3,1 L2,5 Z " fill="#130605" transform="translate(120,13)"/>
<path d="M0,0 L2,4 L-3,3 L0,2 Z " fill="#4E4342" transform="translate(69,11)"/>
<path d="M0,0 L3,1 L3,3 L0,3 Z " fill="#353139" transform="translate(110,54)"/>
<path d="M0,0 L3,1 L3,3 L0,3 Z " fill="#775F54" transform="translate(53,55)"/>
<path d="M0,0 L3,0 L3,3 L0,2 Z " fill="#130F0F" transform="translate(49,15)"/>
<path d="M0,0 L3,1 L3,3 L0,2 Z " fill="#4D3E32" transform="translate(24,62)"/>
<path d="M0,0 L2,0 L2,3 L-1,2 Z " fill="#7D685E" transform="translate(63,60)"/>
<path d="M0,0 L3,1 L2,3 L0,3 Z " fill="#282223" transform="translate(95,54)"/>
<path d="M0,0 L3,1 L2,3 L0,3 Z " fill="#312123" transform="translate(123,53)"/>
<path d="M0,0 L3,1 L3,3 L0,2 Z " fill="#29120B" transform="translate(47,45)"/>
<path d="M0,0 L2,0 L1,3 L-2,1 Z " fill="#33291F" transform="translate(57,22)"/>
<path d="M0,0 L2,2 L0,3 L-2,1 Z " fill="#696159" transform="translate(90,56)"/>
<path d="M0,0 L3,2 L0,3 Z " fill="#5B504B" transform="translate(30,37)"/>
<path d="M0,0 L2,1 L2,3 L-1,2 Z " fill="#0D060D" transform="translate(94,14)"/>
<path d="M0,0 L2,2 L-1,2 Z " fill="#091309" transform="translate(143,76)"/>
</svg>
