<?xml version="1.0" encoding="UTF-8"?>
<svg xmlns="http://www.w3.org/2000/svg" viewBox="0 0 320 320" width="30" height="30">
  <style>rect{shape-rendering:crispEdges}</style>
  <g fill="#c69900">
    <rect x="150" y="0" width="10" height="10"/>
    <rect x="170" y="0" width="10" height="10"/>
    <rect x="180" y="30" width="10" height="10"/>
    <rect x="210" y="60" width="10" height="10"/>
    <rect x="210" y="70" width="10" height="10"/>
    <rect x="210" y="150" width="10" height="10"/>
    <rect x="250" y="180" width="10" height="10"/>
    <rect x="180" y="190" width="10" height="10"/>
    <rect x="240" y="190" width="30" height="10"/>
    <rect x="200" y="200" width="10" height="10"/>
    <rect x="250" y="200" width="10" height="10"/>
    <rect x="200" y="210" width="10" height="10"/>
    <rect x="200" y="220" width="10" height="10"/>
    <rect x="180" y="230" width="30" height="10"/>
    <rect x="180" y="240" width="10" height="10"/>
    <rect x="20" y="250" width="10" height="10"/>
    <rect x="170" y="250" width="10" height="10"/>
    <rect x="30" y="260" width="30" height="10"/>
    <rect x="140" y="260" width="30" height="10"/>
    <rect x="40" y="270" width="20" height="10"/>
    <rect x="140" y="270" width="20" height="10"/>
    <rect x="60" y="280" width="80" height="10"/>
    <rect x="300" y="280" width="10" height="10"/>
    <rect x="70" y="290" width="60" height="10"/>
    <rect x="220" y="310" width="10" height="10"/>
  </g>
  <g fill="#ca9c00">
    <rect x="160" y="0" width="10" height="10"/>
    <rect x="180" y="0" width="10" height="10"/>
    <rect x="170" y="10" width="10" height="10"/>
    <rect x="190" y="50" width="10" height="10"/>
    <rect x="110" y="60" width="10" height="10"/>
    <rect x="110" y="70" width="10" height="10"/>
    <rect x="210" y="160" width="10" height="10"/>
    <rect x="200" y="170" width="10" height="10"/>
    <rect x="240" y="180" width="10" height="10"/>
    <rect x="230" y="190" width="10" height="10"/>
    <rect x="270" y="190" width="10" height="10"/>
    <rect x="240" y="200" width="10" height="10"/>
    <rect x="300" y="200" width="10" height="10"/>
    <rect x="10" y="230" width="10" height="10"/>
    <rect x="300" y="230" width="10" height="10"/>
    <rect x="10" y="240" width="10" height="10"/>
    <rect x="10" y="250" width="10" height="10"/>
    <rect x="180" y="250" width="10" height="10"/>
    <rect x="20" y="260" width="10" height="10"/>
    <rect x="170" y="260" width="10" height="10"/>
    <rect x="130" y="270" width="10" height="10"/>
    <rect x="270" y="280" width="10" height="10"/>
    <rect x="200" y="290" width="10" height="10"/>
    <rect x="240" y="290" width="20" height="10"/>
    <rect x="210" y="310" width="10" height="10"/>
  </g>
  <g fill="#98812e">
    <rect x="160" y="10" width="10" height="10"/>
    <rect x="90" y="80" width="20" height="10"/>
    <rect x="230" y="80" width="10" height="10"/>
    <rect x="220" y="140" width="10" height="10"/>
    <rect x="220" y="190" width="10" height="10"/>
    <rect x="210" y="210" width="10" height="10"/>
    <rect x="240" y="210" width="30" height="10"/>
    <rect x="300" y="210" width="10" height="10"/>
    <rect x="190" y="240" width="10" height="10"/>
    <rect x="160" y="270" width="10" height="10"/>
    <rect x="130" y="290" width="10" height="10"/>
  </g>
  <rect fill="#ddb100" x="160" y="20" width="10" height="10"/>
  <g fill="#d6aa00">
    <rect x="170" y="20" width="10" height="10"/>
    <rect x="190" y="40" width="10" height="10"/>
    <rect x="210" y="140" width="10" height="10"/>
    <rect x="110" y="150" width="10" height="10"/>
    <rect x="190" y="170" width="10" height="10"/>
    <rect x="190" y="200" width="10" height="10"/>
    <rect x="190" y="210" width="10" height="10"/>
    <rect x="190" y="220" width="10" height="10"/>
    <rect x="60" y="270" width="70" height="10"/>
  </g>
  <g fill="#ffd900">
    <rect x="140" y="30" width="40" height="10"/>
    <rect x="70" y="160" width="50" height="10"/>
    <rect x="20" y="190" width="10" height="10"/>
    <rect x="20" y="230" width="10" height="10"/>
    <rect x="110" y="260" width="10" height="10"/>
  </g>
  <g fill="#f6cd05">
    <rect x="120" y="40" width="10" height="10"/>
    <rect x="40" y="170" width="20" height="10"/>
    <rect x="180" y="170" width="10" height="10"/>
    <rect x="40" y="180" width="20" height="10"/>
    <rect x="180" y="180" width="10" height="10"/>
    <rect x="0" y="200" width="20" height="10"/>
    <rect x="0" y="210" width="20" height="10"/>
    <rect x="0" y="220" width="10" height="10"/>
    <rect x="30" y="250" width="10" height="10"/>
  </g>
  <g fill="#c49902">
    <rect x="130" y="40" width="10" height="10"/>
    <rect x="200" y="40" width="10" height="10"/>
    <rect x="190" y="60" width="10" height="10"/>
    <rect x="40" y="280" width="20" height="10"/>
    <rect x="140" y="280" width="20" height="10"/>
    <rect x="210" y="280" width="10" height="10"/>
    <rect x="260" y="290" width="10" height="10"/>
    <rect x="280" y="290" width="10" height="10"/>
  </g>
  <g fill="#34322b">
    <rect x="140" y="40" width="30" height="10"/>
    <rect x="130" y="140" width="20" height="10"/>
    <rect x="120" y="150" width="30" height="10"/>
    <rect x="70" y="170" width="10" height="10"/>
  </g>
  <g fill="#2a2a2a">
    <rect x="170" y="40" width="10" height="10"/>
    <rect x="140" y="50" width="40" height="10"/>
    <rect x="120" y="60" width="70" height="10"/>
    <rect x="120" y="70" width="10" height="10"/>
    <rect x="120" y="80" width="10" height="10"/>
    <rect x="110" y="90" width="20" height="10"/>
    <rect x="110" y="100" width="20" height="10"/>
    <rect x="110" y="110" width="20" height="10"/>
    <rect x="110" y="120" width="20" height="10"/>
    <rect x="110" y="130" width="20" height="10"/>
    <rect x="120" y="140" width="10" height="10"/>
    <rect x="60" y="170" width="10" height="10"/>
  </g>
  <g fill="#ffd500">
    <rect x="180" y="40" width="10" height="10"/>
    <rect x="200" y="60" width="10" height="10"/>
    <rect x="200" y="70" width="10" height="10"/>
    <rect x="210" y="90" width="10" height="10"/>
    <rect x="210" y="100" width="10" height="10"/>
    <rect x="210" y="110" width="10" height="10"/>
    <rect x="210" y="120" width="10" height="10"/>
    <rect x="210" y="130" width="10" height="10"/>
    <rect x="200" y="150" width="10" height="10"/>
    <rect x="200" y="160" width="10" height="10"/>
    <rect x="180" y="200" width="10" height="10"/>
    <rect x="180" y="210" width="10" height="10"/>
    <rect x="10" y="220" width="10" height="10"/>
    <rect x="180" y="220" width="10" height="10"/>
    <rect x="170" y="230" width="10" height="10"/>
    <rect x="40" y="250" width="20" height="10"/>
    <rect x="140" y="250" width="20" height="10"/>
    <rect x="60" y="260" width="50" height="10"/>
    <rect x="120" y="260" width="10" height="10"/>
  </g>
  <g fill="#a7912f">
    <rect x="120" y="50" width="10" height="10"/>
    <rect x="180" y="50" width="10" height="10"/>
    <rect x="190" y="80" width="20" height="10"/>
    <rect x="30" y="190" width="10" height="10"/>
    <rect x="30" y="230" width="10" height="10"/>
    <rect x="300" y="240" width="10" height="10"/>
  </g>
  <g fill="#72601c">
    <rect x="130" y="50" width="10" height="10"/>
    <rect x="110" y="80" width="10" height="10"/>
  </g>
  <g fill="#ddb201">
    <rect x="200" y="50" width="10" height="10"/>
    <rect x="220" y="90" width="10" height="10"/>
    <rect x="220" y="100" width="10" height="10"/>
    <rect x="220" y="110" width="10" height="10"/>
    <rect x="220" y="120" width="10" height="10"/>
    <rect x="220" y="130" width="10" height="10"/>
    <rect x="200" y="140" width="10" height="10"/>
  </g>
  <g fill="#4e4937">
    <rect x="130" y="70" width="10" height="10"/>
    <rect x="130" y="80" width="10" height="10"/>
    <rect x="130" y="90" width="10" height="10"/>
    <rect x="130" y="100" width="10" height="10"/>
    <rect x="130" y="110" width="10" height="10"/>
    <rect x="130" y="120" width="10" height="10"/>
    <rect x="130" y="130" width="10" height="10"/>
  </g>
  <g fill="#82774d">
    <rect x="140" y="70" width="50" height="10"/>
    <rect x="140" y="80" width="50" height="10"/>
    <rect x="140" y="90" width="70" height="10"/>
    <rect x="140" y="100" width="70" height="10"/>
    <rect x="140" y="110" width="70" height="10"/>
    <rect x="140" y="120" width="70" height="10"/>
    <rect x="140" y="130" width="70" height="10"/>
    <rect x="150" y="140" width="40" height="10"/>
    <rect x="150" y="150" width="40" height="10"/>
    <rect x="120" y="160" width="70" height="10"/>
    <rect x="120" y="170" width="60" height="10"/>
    <rect x="140" y="180" width="40" height="10"/>
    <rect x="40" y="190" width="20" height="10"/>
    <rect x="140" y="190" width="40" height="10"/>
    <rect x="20" y="200" width="10" height="10"/>
    <rect x="170" y="200" width="10" height="10"/>
    <rect x="210" y="200" width="10" height="10"/>
    <rect x="20" y="210" width="10" height="10"/>
    <rect x="170" y="210" width="10" height="10"/>
    <rect x="150" y="230" width="10" height="10"/>
    <rect x="270" y="290" width="10" height="10"/>
  </g>
  <g fill="#d0ae13">
    <rect x="190" y="70" width="10" height="10"/>
    <rect x="190" y="150" width="10" height="10"/>
    <rect x="190" y="160" width="10" height="10"/>
    <rect x="30" y="240" width="10" height="10"/>
    <rect x="160" y="240" width="10" height="10"/>
  </g>
  <g fill="#e5b901">
    <rect x="210" y="80" width="10" height="10"/>
    <rect x="20" y="240" width="10" height="10"/>
    <rect x="170" y="240" width="10" height="10"/>
    <rect x="160" y="250" width="10" height="10"/>
    <rect x="130" y="260" width="10" height="10"/>
  </g>
  <g fill="#c89c02">
    <rect x="220" y="80" width="10" height="10"/>
    <rect x="30" y="180" width="10" height="10"/>
    <rect x="190" y="180" width="10" height="10"/>
    <rect x="260" y="180" width="10" height="10"/>
    <rect x="260" y="200" width="10" height="10"/>
    <rect x="280" y="220" width="10" height="10"/>
    <rect x="280" y="260" width="10" height="10"/>
    <rect x="30" y="270" width="10" height="10"/>
    <rect x="230" y="280" width="10" height="10"/>
    <rect x="60" y="290" width="10" height="10"/>
  </g>
  <g fill="#c29702">
    <rect x="90" y="90" width="10" height="10"/>
    <rect x="230" y="90" width="10" height="10"/>
    <rect x="90" y="100" width="10" height="10"/>
    <rect x="230" y="100" width="10" height="10"/>
    <rect x="90" y="110" width="10" height="10"/>
    <rect x="230" y="110" width="10" height="10"/>
    <rect x="90" y="120" width="10" height="10"/>
    <rect x="230" y="120" width="10" height="10"/>
    <rect x="90" y="130" width="20" height="10"/>
    <rect x="230" y="130" width="10" height="10"/>
    <rect x="110" y="140" width="10" height="10"/>
    <rect x="240" y="170" width="20" height="10"/>
    <rect x="290" y="220" width="10" height="10"/>
    <rect x="0" y="230" width="10" height="10"/>
    <rect x="0" y="240" width="10" height="10"/>
    <rect x="0" y="250" width="10" height="10"/>
    <rect x="290" y="260" width="10" height="10"/>
    <rect x="220" y="280" width="10" height="10"/>
    <rect x="290" y="290" width="10" height="10"/>
    <rect x="230" y="310" width="10" height="10"/>
  </g>
  <g fill="#9f8011">
    <rect x="100" y="90" width="10" height="10"/>
    <rect x="100" y="100" width="10" height="10"/>
    <rect x="100" y="110" width="10" height="10"/>
    <rect x="100" y="120" width="10" height="10"/>
  </g>
  <g fill="#d0b222">
    <rect x="190" y="140" width="10" height="10"/>
    <rect x="160" y="230" width="10" height="10"/>
    <rect x="40" y="240" width="10" height="10"/>
    <rect x="150" y="240" width="10" height="10"/>
  </g>
  <rect fill="#daae00" x="60" y="160" width="10" height="10"/>
  <g fill="#c69a00">
    <rect x="30" y="170" width="10" height="10"/>
    <rect x="230" y="270" width="10" height="10"/>
    <rect x="190" y="290" width="10" height="10"/>
    <rect x="210" y="300" width="30" height="10"/>
  </g>
  <g fill="#877b4a">
    <rect x="80" y="170" width="40" height="10"/>
    <rect x="280" y="190" width="10" height="10"/>
  </g>
  <g fill="#c59901">
    <rect x="260" y="170" width="10" height="10"/>
    <rect x="200" y="180" width="10" height="10"/>
    <rect x="210" y="270" width="20" height="10"/>
    <rect x="270" y="270" width="10" height="10"/>
    <rect x="300" y="270" width="10" height="10"/>
    <rect x="30" y="280" width="10" height="10"/>
  </g>
  <g fill="#293049">
    <rect x="60" y="180" width="20" height="10"/>
    <rect x="100" y="200" width="10" height="10"/>
    <rect x="100" y="210" width="10" height="10"/>
  </g>
  <g fill="#7b714b">
    <rect x="80" y="180" width="10" height="10"/>
    <rect x="290" y="190" width="10" height="10"/>
    <rect x="20" y="220" width="10" height="10"/>
    <rect x="170" y="220" width="10" height="10"/>
  </g>
  <g fill="#867c54">
    <rect x="90" y="180" width="10" height="10"/>
    <rect x="130" y="180" width="10" height="10"/>
    <rect x="40" y="230" width="10" height="10"/>
    <rect x="300" y="250" width="10" height="10"/>
  </g>
  <rect fill="#8e845b" x="100" y="180" width="30" height="10"/>
  <g fill="#a7a59a">
    <rect x="60" y="190" width="10" height="10"/>
    <rect x="60" y="240" width="10" height="10"/>
    <rect x="130" y="240" width="10" height="10"/>
    <rect x="60" y="250" width="10" height="10"/>
  </g>
  <rect fill="#797c86" x="70" y="190" width="10" height="10"/>
  <g fill="#040e33">
    <rect x="80" y="190" width="10" height="10"/>
    <rect x="90" y="200" width="10" height="10"/>
    <rect x="90" y="210" width="10" height="10"/>
    <rect x="90" y="220" width="30" height="10"/>
    <rect x="110" y="230" width="10" height="10"/>
    <rect x="110" y="240" width="10" height="10"/>
    <rect x="110" y="250" width="10" height="10"/>
  </g>
  <g fill="#a6a6a6">
    <rect x="90" y="190" width="10" height="10"/>
    <rect x="110" y="190" width="20" height="10"/>
    <rect x="40" y="200" width="50" height="10"/>
    <rect x="110" y="200" width="50" height="10"/>
    <rect x="40" y="210" width="40" height="10"/>
    <rect x="120" y="210" width="40" height="10"/>
    <rect x="40" y="220" width="40" height="10"/>
    <rect x="120" y="220" width="40" height="10"/>
    <rect x="50" y="230" width="40" height="10"/>
    <rect x="120" y="230" width="20" height="10"/>
    <rect x="70" y="240" width="30" height="10"/>
    <rect x="120" y="240" width="10" height="10"/>
    <rect x="70" y="250" width="30" height="10"/>
    <rect x="120" y="250" width="10" height="10"/>
  </g>
  <g fill="#a7a7a8">
    <rect x="100" y="190" width="10" height="10"/>
    <rect x="80" y="210" width="10" height="10"/>
    <rect x="80" y="220" width="10" height="10"/>
    <rect x="90" y="230" width="10" height="10"/>
    <rect x="140" y="230" width="10" height="10"/>
  </g>
  <g fill="#949490">
    <rect x="130" y="190" width="10" height="10"/>
    <rect x="30" y="200" width="10" height="10"/>
    <rect x="30" y="210" width="10" height="10"/>
    <rect x="100" y="230" width="10" height="10"/>
    <rect x="100" y="240" width="10" height="10"/>
  </g>
  <g fill="#928c73">
    <rect x="160" y="200" width="10" height="10"/>
    <rect x="160" y="210" width="10" height="10"/>
    <rect x="160" y="220" width="10" height="10"/>
  </g>
  <rect fill="#656667" x="110" y="210" width="10" height="10"/>
  <rect fill="#9fa0a1" x="30" y="220" width="10" height="10"/>
  <g fill="#d4bd4f">
    <rect x="50" y="240" width="10" height="10"/>
    <rect x="140" y="240" width="10" height="10"/>
    <rect x="130" y="250" width="10" height="10"/>
  </g>
  <rect fill="#7d808a" x="100" y="250" width="10" height="10"/>
</svg>
