<?xml version="1.0" encoding="UTF-8"?>
<!-- Generator: visioncortex VTracer 0.6.5 -->
<svg version="1.1" xmlns="http://www.w3.org/2000/svg" width="150" height="84">
<path d="M0,0 L150,0 L150,84 L0,84 Z " fill="#020407" transform="translate(0,0)"/>
<path d="M0,0 L21,0 L45,2 L50,6 L48,7 L60,8 L61,10 L66,12 L64,17 L60,15 L53,13 L56,19 L55,22 L36,23 L23,23 L26,32 L29,34 L29,37 L39,36 L48,37 L55,36 L59,38 L59,44 L51,44 L51,46 L67,46 L74,47 L78,46 L98,45 L100,44 L111,44 L111,68 L-39,68 L-39,46 L-30,46 L-31,39 L-32,35 L-28,29 L-27,22 L-24,21 L-24,15 L-22,15 L-22,13 L-18,13 L-17,20 L-19,22 L-19,30 L-16,33 L-15,38 L-11,39 L-5,44 L1,48 L2,51 L20,51 L20,47 L5,46 L-1,41 L-5,37 L-9,31 L-9,19 L-6,11 L-4,8 L3,8 L4,4 L-6,4 L-5,1 Z " fill="#161C22" transform="translate(39,16)"/>
<path d="M0,0 L4,0 L5,7 L3,9 L3,17 L6,20 L7,25 L11,26 L17,31 L23,35 L24,38 L41,39 L43,40 L43,42 L52,42 L53,39 L43,38 L42,33 L37,30 L37,27 L33,25 L31,24 L29,17 L30,12 L37,12 L41,14 L41,23 L46,21 L47,22 L48,31 L57,35 L58,36 L58,43 L67,43 L67,45 L81,46 L81,48 L90,48 L101,53 L103,55 L-17,55 L-17,33 L-8,33 L-9,26 L-10,22 L-6,16 L-5,9 L-2,8 L-2,2 L0,2 Z " fill="#354045" transform="translate(17,29)"/>
<path d="M0,0 L26,0 L43,1 L44,4 L48,6 L20,7 L15,8 L14,10 L24,10 L23,14 L16,15 L14,18 L12,25 L12,37 L17,44 L17,46 L22,48 L25,51 L38,52 L40,53 L40,57 L22,57 L17,52 L11,48 L8,45 L5,44 L2,38 L0,36 L0,28 L2,26 L2,19 L-2,19 L-2,21 L-4,21 L-4,27 L-6,28 L-7,35 L-11,41 L-9,50 L-10,52 L-19,52 L-19,5 L-11,4 L-2,1 Z " fill="#020305" transform="translate(19,10)"/>
<path d="M0,0 L10,3 L21,9 L42,11 L46,13 L46,15 L70,14 L73,13 L73,11 L85,11 L85,28 L55,28 L45,23 L33,21 L33,19 L21,19 L19,18 L19,16 L10,16 L9,9 L0,3 Z " fill="#010304" transform="translate(65,56)"/>
<path d="M0,0 L105,0 L105,2 L90,2 L90,4 L96,5 L96,7 L94,8 L95,10 L73,9 L72,8 L60,7 L45,7 L15,9 L6,11 L0,11 Z " fill="#050607" transform="translate(0,0)"/>
<path d="M0,0 L6,1 L7,2 L7,8 L-1,8 L-1,10 L15,10 L22,11 L26,10 L46,9 L48,8 L59,8 L59,15 L47,15 L47,17 L44,19 L20,19 L20,17 L6,15 L-5,14 L-11,11 L-13,8 L-13,3 L-9,2 Z " fill="#364144" transform="translate(91,52)"/>
<path d="M0,0 L16,0 L16,28 L15,30 L13,30 L12,34 L4,41 L2,43 L-1,43 L-3,49 L-8,51 L-11,51 L-11,49 L-6,48 L-6,45 L-3,45 L-3,38 L1,31 L1,20 L-3,14 L3,8 L4,3 L0,2 Z " fill="#798585" transform="translate(123,0)"/>
<path d="M0,0 L15,0 L27,1 L29,3 L46,4 L54,8 L62,10 L69,15 L68,19 L59,17 L54,13 L45,10 L27,9 L27,7 L18,7 L17,6 L0,5 L-26,5 L-30,7 L-37,9 L-45,9 L-45,5 L-30,2 Z " fill="#4A5056" transform="translate(45,6)"/>
<path d="M0,0 L19,0 L28,1 L28,3 L25,4 L18,5 L18,7 L24,8 L24,9 L6,9 L-1,6 L-1,9 L5,9 L5,10 L0,11 L3,20 L6,22 L6,25 L16,24 L22,25 L18,27 L17,27 L17,32 L18,34 L13,32 L3,28 L5,32 L8,34 L3,33 L2,32 L1,23 L-4,24 L-4,15 L-14,13 L-12,6 L-10,4 L-4,4 Z " fill="#1F282F" transform="translate(62,28)"/>
<path d="M0,0 L3,0 L3,2 L13,2 L15,3 L27,4 L27,6 L36,6 L47,11 L49,13 L6,13 L5,7 L3,4 L3,9 L-2,10 L-3,12 L-6,12 L-5,5 Z " fill="#526364" transform="translate(71,71)"/>
<path d="M0,0 L8,0 L8,17 L13,24 L13,26 L18,28 L21,31 L34,32 L36,33 L36,37 L18,37 L13,32 L9,28 L9,26 L5,24 L3,20 L1,20 L-2,15 L-2,8 L-1,7 Z " fill="#010306" transform="translate(23,30)"/>
<path d="M0,0 L21,0 L45,2 L50,6 L48,7 L60,8 L61,10 L66,12 L64,17 L60,15 L57,14 L57,12 L52,12 L51,11 L28,9 L24,5 L-3,3 L-3,1 Z " fill="#161C20" transform="translate(39,16)"/>
<path d="M0,0 L25,1 L33,5 L41,7 L48,12 L47,16 L38,14 L33,10 L24,7 L6,6 L6,4 L1,4 L-1,1 Z " fill="#6F7980" transform="translate(66,9)"/>
<path d="M0,0 L12,0 L10,4 L3,7 L2,9 L0,9 L0,7 L-6,6 L-8,17 L-11,24 L-9,24 L-9,29 L-12,28 L-15,24 L-15,12 L-12,4 L-10,1 Z " fill="#3D444A" transform="translate(45,23)"/>
<path d="M0,0 L18,0 L24,1 L25,0 L48,0 L47,4 L45,4 L45,7 L21,7 L21,5 L0,2 Z " fill="#515A5E" transform="translate(90,64)"/>
<path d="M0,0 L15,0 L15,2 L10,3 L1,3 L1,5 L8,6 L11,8 L11,13 L6,13 L6,11 L1,11 L1,8 L-6,9 L-9,10 L-8,13 L-14,11 L-31,10 L-31,9 L-11,9 L-12,7 L-9,7 L-9,5 L-15,4 L-15,2 L-13,1 L-3,1 L0,2 Z " fill="#535455" transform="translate(105,0)"/>
<path d="M0,0 L19,0 L28,1 L28,3 L25,4 L18,5 L18,7 L24,8 L24,9 L6,9 L2,7 L-10,8 L-10,4 L-4,4 Z " fill="#343D43" transform="translate(62,28)"/>
<path d="M0,0 L1,0 L2,11 L5,9 L7,4 L10,2 L14,3 L13,9 L11,9 L10,13 L2,20 L0,22 L-3,22 L-5,28 L-10,30 L-13,30 L-13,28 L-8,27 L-8,24 L-5,24 L-5,17 L-1,10 Z " fill="#4E565B" transform="translate(125,21)"/>
<path d="M0,0 L7,0 L11,2 L11,11 L15,10 L16,15 L13,18 L7,17 L7,15 L3,13 L1,12 L-1,5 Z " fill="#464C54" transform="translate(47,41)"/>
<path d="M0,0 L6,0 L6,8 L8,8 L8,13 L7,10 L-1,10 L-1,17 L-2,18 L-2,25 L0,30 L2,30 L6,35 L10,39 L7,39 L3,35 L0,34 L-3,28 L-5,26 L-5,18 L-3,16 L-3,9 L-7,8 L-4,3 Z " fill="#151E23" transform="translate(24,20)"/>
<path d="M0,0 L9,0 L9,2 L18,2 L29,7 L31,9 L5,9 L5,5 L3,5 L0,2 Z " fill="#353F44" transform="translate(89,75)"/>
<path d="M0,0 L21,0 L44,3 L40,5 L33,6 L34,8 L26,8 L24,5 L-3,3 L-3,1 Z " fill="#5D666D" transform="translate(39,16)"/>
<path d="M0,0 L4,1 L3,8 L-1,14 L1,23 L0,25 L-9,25 L-9,14 L-8,12 L-3,11 L-1,4 Z " fill="#020506" transform="translate(9,37)"/>
<path d="M0,0 L5,1 L3,2 L1,7 L-1,12 L-4,12 L-3,22 L1,26 L2,30 L-1,31 L-1,29 L-6,28 L-8,26 L-9,13 L-2,5 Z " fill="#010408" transform="translate(49,29)"/>
<path d="M0,0 L2,0 L2,2 L29,3 L31,7 L26,7 L23,11 L28,11 L27,14 L22,16 L18,14 L19,13 L15,11 L22,8 L23,6 L16,7 L8,7 L9,3 L-1,3 Z " fill="#182129" transform="translate(34,17)"/>
<path d="M0,0 L9,0 L9,2 L27,2 L33,5 L32,8 L22,7 L21,6 L-3,4 L-3,3 L2,2 Z " fill="#050A0C" transform="translate(63,13)"/>
<path d="M0,0 L16,0 L16,16 L15,16 L14,5 L7,6 L6,9 L0,14 L-2,16 L-2,13 L3,8 L4,3 L0,2 Z " fill="#5D6A6B" transform="translate(123,0)"/>
<path d="M0,0 L12,3 L21,9 L20,13 L11,11 L6,7 L0,5 L2,4 L2,2 L0,2 Z " fill="#676F75" transform="translate(93,12)"/>
<path d="M0,0 L3,0 L3,2 L12,2 L13,11 L11,8 L7,7 L8,4 L3,4 L3,9 L-2,10 L-3,12 L-6,12 L-5,5 Z M10,8 Z " fill="#596468" transform="translate(71,71)"/>
<path d="M0,0 L7,1 L30,3 L30,6 L-3,5 L-1,1 Z " fill="#020508" transform="translate(60,23)"/>
<path d="M0,0 L2,0 L2,3 L12,2 L18,3 L14,5 L13,5 L13,10 L14,12 L9,10 L-1,6 Z " fill="#1E272D" transform="translate(66,50)"/>
<path d="M0,0 L4,1 L0,5 L0,9 L-2,9 L-2,12 L1,10 L5,9 L7,9 L7,4 L9,5 L11,11 L10,13 L-3,13 L-5,8 L-5,5 L-2,2 L0,2 Z " fill="#4D595C" transform="translate(67,71)"/>
<path d="M0,0 L6,1 L6,3 L8,3 L9,0 L10,2 L6,9 L3,10 L2,12 L-1,13 L-1,2 Z " fill="#02070E" transform="translate(39,29)"/>
<path d="M0,0 L16,0 L17,2 L22,4 L20,9 L16,7 L13,6 L13,4 L8,4 L0,1 Z " fill="#494E55" transform="translate(83,24)"/>
<path d="M0,0 L1,0 L1,8 L-4,8 L-6,10 L-8,15 L-11,16 L-12,14 L-12,6 L-11,6 L-10,12 L-7,1 L-3,2 L-3,5 L0,5 Z " fill="#6A7477" transform="translate(138,16)"/>
<path d="M0,0 L9,0 L9,2 L18,2 L23,4 L23,5 L18,5 L17,4 L10,3 L10,9 L5,9 L5,5 L3,5 L0,2 Z " fill="#293539" transform="translate(89,75)"/>
<path d="M0,0 L12,0 L10,4 L8,5 L-8,5 L-5,2 Z " fill="#5C666A" transform="translate(45,23)"/>
<path d="M0,0 L18,1 L18,4 L5,5 L-2,3 Z " fill="#647273" transform="translate(115,64)"/>
<path d="M0,0 L2,1 L1,8 L-3,14 L-1,23 L-2,25 L-11,25 L-11,23 L-3,23 L-5,15 L-7,15 L-7,13 L-4,12 L-3,6 L-1,6 Z " fill="#1C2429" transform="translate(11,37)"/>
<path d="M0,0 L5,0 L5,5 L-5,9 L-10,9 L-5,4 Z " fill="#383F45" transform="translate(145,41)"/>
<path d="M0,0 L6,0 L13,3 L13,4 L4,6 L5,9 L-1,7 L-18,6 L-18,5 L2,5 L1,3 L4,3 L4,1 Z " fill="#252C32" transform="translate(92,4)"/>
<path d="M0,0 L2,0 L2,2 L11,2 L26,4 L26,5 L20,5 L20,7 L8,7 L9,3 L-1,3 Z " fill="#0E1318" transform="translate(34,17)"/>
<path d="M0,0 L9,0 L9,2 L27,2 L30,4 L25,5 L7,3 L7,5 L-3,4 L-3,3 L2,2 Z " fill="#1C242A" transform="translate(63,13)"/>
<path d="M0,0 L7,0 L9,3 L0,6 L-8,6 L-8,2 Z " fill="#373F45" transform="translate(8,9)"/>
<path d="M0,0 L5,0 L5,3 L9,5 L10,8 L1,8 L-1,6 L-1,1 Z " fill="#425153" transform="translate(79,54)"/>
<path d="M0,0 L7,0 L7,3 L22,3 L22,5 L6,5 L0,3 Z " fill="#89929A" transform="translate(66,9)"/>
<path d="M0,0 L19,0 L19,2 L25,3 L25,4 L7,4 L0,1 Z " fill="#283036" transform="translate(61,33)"/>
<path d="M0,0 L11,0 L12,2 L5,3 L6,6 L1,5 L-16,4 L-16,3 L-1,2 Z " fill="#3B444B" transform="translate(61,7)"/>
<path d="M0,0 L15,0 L15,2 L10,3 L1,3 L0,5 L-4,3 L-13,2 L-13,1 L-3,1 L0,2 Z " fill="#253030" transform="translate(105,0)"/>
<path d="M0,0 L5,1 L7,4 L21,6 L22,8 L16,8 L16,6 L4,6 L2,5 L2,3 L-5,3 L-1,1 Z " fill="#182327" transform="translate(82,69)"/>
<path d="M0,0 L6,0 L6,8 L8,8 L8,13 L7,10 L3,9 L4,1 L1,2 L-5,9 L-7,8 L-4,3 Z " fill="#0A1218" transform="translate(24,20)"/>
<path d="M0,0 L8,0 L15,1 L11,3 L4,4 L5,6 L-3,6 L-5,2 L0,1 Z " fill="#444C52" transform="translate(68,18)"/>
<path d="M0,0 L2,2 L1,11 L3,11 L3,16 L0,15 L-2,9 L-2,1 Z " fill="#4F5359" transform="translate(33,36)"/>
<path d="M0,0 L4,0 L5,7 L3,9 L2,16 L0,16 L0,9 L1,7 L3,7 L3,3 L0,3 L-1,8 L-2,8 L-2,2 L0,2 Z " fill="#2E393E" transform="translate(17,29)"/>
<path d="M0,0 L2,0 L2,2 L-3,3 L-3,5 L2,4 L0,8 L-9,9 L-6,3 Z " fill="#12171D" transform="translate(115,46)"/>
<path d="M0,0 L4,0 L4,9 L1,9 L1,12 L3,12 L1,17 L0,17 Z " fill="#0C1117" transform="translate(0,30)"/>
<path d="M0,0 L5,3 L5,8 L-2,14 L-2,9 L-1,8 Z " fill="#303F3F" transform="translate(122,0)"/>
<path d="M0,0 L2,1 L-1,3 L0,7 L-1,8 L-10,8 L-10,6 L-4,1 Z " fill="#22282E" transform="translate(138,46)"/>
<path d="M0,0 L7,0 L2,4 L-1,5 L-3,13 L-3,24 L-5,23 L-5,11 L-2,3 Z " fill="#282F34" transform="translate(35,24)"/>
<path d="M0,0 L12,3 L15,6 L8,5 L8,7 L0,5 L2,4 L2,2 L0,2 Z " fill="#535C62" transform="translate(93,12)"/>
<path d="M0,0 L12,0 L12,3 L6,4 L4,8 L4,3 L0,2 Z " fill="#435353" transform="translate(123,0)"/>
<path d="M0,0 L6,1 L6,7 L0,7 L0,5 L-3,4 L-3,2 L-1,2 Z " fill="#4F585D" transform="translate(91,52)"/>
<path d="M0,0 L2,3 L3,14 L-1,14 L-2,12 L0,12 L0,7 L-2,7 L-1,1 Z " fill="#24292F" transform="translate(36,40)"/>
<path d="M0,0 L4,2 L4,9 L13,9 L13,10 L3,10 L3,8 L-2,8 Z " fill="#263236" transform="translate(71,63)"/>
<path d="M0,0 L3,0 L3,4 L1,4 L0,13 L-2,14 L-4,13 L-4,7 L-1,4 Z " fill="#3B474C" transform="translate(17,32)"/>
<path d="M0,0 L3,1 L2,6 L-9,6 L-12,4 L-9,2 L-1,2 Z " fill="#090F13" transform="translate(96,18)"/>
<path d="M0,0 L13,0 L12,3 L-3,3 L-4,1 Z " fill="#6A7176" transform="translate(48,7)"/>
<path d="M0,0 L11,0 L13,1 L13,4 L7,4 L4,2 L-6,2 L-6,1 Z " fill="#0B1318" transform="translate(75,32)"/>
<path d="M0,0 L6,0 L6,2 L15,2 L15,4 L0,4 Z " fill="#191E22" transform="translate(135,78)"/>
<path d="M0,0 L3,0 L2,7 L-2,8 L-4,11 L-4,8 L-6,8 L-5,5 Z " fill="#202A2E" transform="translate(25,21)"/>
<path d="M0,0 L16,0 L15,4 L13,5 L0,5 L0,4 L11,3 L11,2 L0,1 Z " fill="#556566" transform="translate(122,64)"/>
<path d="M0,0 L6,1 L6,3 L8,3 L9,0 L10,2 L7,7 L2,9 L3,1 Z " fill="#1B242B" transform="translate(39,29)"/>
<path d="M0,0 L2,0 L2,9 L3,14 L1,23 L0,23 Z " fill="#2C393B" transform="translate(139,0)"/>
<path d="M0,0 L6,0 L6,5 L-3,5 Z " fill="#4F5459" transform="translate(144,60)"/>
<path d="M0,0 L4,2 L4,7 L-1,7 L-1,5 L-6,5 L-6,3 L-1,3 Z " fill="#283536" transform="translate(112,6)"/>
<path d="M0,0 L2,0 L1,6 L-1,6 L-1,12 L-5,13 L-5,15 L-3,16 L-9,15 L-8,12 L-3,11 L-1,4 Z " fill="#0A0E15" transform="translate(9,37)"/>
<path d="M0,0 L8,0 L9,9 L7,6 L3,5 L3,2 Z M6,6 Z " fill="#5A6A6B" transform="translate(75,73)"/>
<path d="M0,0 L1,0 L1,6 L-6,5 L-6,1 Z " fill="#333A41" transform="translate(75,53)"/>
<path d="M0,0 L1,0 L1,8 L-1,12 L-8,13 L-8,11 L-3,10 L-3,7 L0,7 Z " fill="#32383F" transform="translate(120,38)"/>
<path d="M0,0 L10,0 L12,4 L7,4 L3,6 L4,3 L1,2 Z " fill="#1B232A" transform="translate(53,20)"/>
<path d="M0,0 L8,1 L8,5 L1,5 Z " fill="#283136" transform="translate(18,64)"/>
<path d="M0,0 L7,2 L5,7 L1,5 L-1,1 Z " fill="#565C63" transform="translate(98,26)"/>
<path d="M0,0 L7,1 L8,5 L5,6 L-1,3 Z " fill="#3B4A4A" transform="translate(104,4)"/>
<path d="M0,0 L9,0 L9,2 L6,3 L-5,3 L-2,1 Z " fill="#353A40" transform="translate(81,29)"/>
<path d="M0,0 L6,0 L6,5 L0,5 Z " fill="#4A5559" transform="translate(99,79)"/>
<path d="M0,0 L16,0 L16,1 L4,3 L-2,3 L0,2 Z " fill="#535960" transform="translate(15,8)"/>
<path d="M0,0 L2,1 L4,7 L3,9 L-1,9 Z " fill="#323D41" transform="translate(74,75)"/>
<path d="M0,0 L3,0 L1,4 L-5,4 L-7,3 L-7,1 Z " fill="#6F787F" transform="translate(54,23)"/>
<path d="M0,0 L16,0 L19,2 L14,3 L0,1 Z " fill="#182326" transform="translate(74,15)"/>
<path d="M0,0 L3,1 L1,2 L0,5 L-9,3 L-9,1 Z " fill="#061111" transform="translate(115,2)"/>
<path d="M0,0 L6,0 L6,2 L13,2 L13,3 L-2,3 L0,2 Z " fill="#0B1115" transform="translate(122,52)"/>
<path d="M0,0 L3,0 L3,7 L0,8 L-1,1 Z " fill="#0B0F16" transform="translate(113,30)"/>
<path d="M0,0 L12,0 L10,4 L8,4 L8,2 L2,1 L1,4 Z " fill="#2F393E" transform="translate(37,28)"/>
<path d="M0,0 L11,0 L12,2 L5,3 L3,4 L3,2 L0,2 Z " fill="#4D5359" transform="translate(61,7)"/>
<path d="M0,0 L5,0 L5,4 L-2,4 Z " fill="#1B262B" transform="translate(40,80)"/>
<path d="M0,0 L5,0 L5,4 L-2,4 Z " fill="#697075" transform="translate(145,41)"/>
<path d="M0,0 L6,0 L4,2 L1,3 L-7,3 L-7,1 Z " fill="#677075" transform="translate(75,29)"/>
<path d="M0,0 L3,0 L4,3 L6,4 L3,9 L1,9 L0,3 Z " fill="#455356" transform="translate(76,75)"/>
<path d="M0,0 L2,1 L3,9 L4,14 L0,10 Z " fill="#181D24" transform="translate(45,41)"/>
<path d="M0,0 L5,1 L4,4 L-1,6 L-1,1 Z " fill="#1B242A" transform="translate(36,71)"/>
<path d="M0,0 L5,1 L5,4 L-5,3 L-1,1 Z " fill="#0A161A" transform="translate(82,69)"/>
<path d="M0,0 L4,2 L6,3 L7,0 L8,2 L7,5 L2,5 L0,3 Z " fill="#1C2229" transform="translate(97,30)"/>
<path d="M0,0 L4,1 L1,2 L-5,9 L-7,8 L-4,3 Z " fill="#12161D" transform="translate(24,20)"/>
<path d="M0,0 L7,1 L6,5 L3,5 L0,2 Z " fill="#2D3D40" transform="translate(89,75)"/>
<path d="M0,0 L8,0 L7,3 L0,3 Z " fill="#4B575B" transform="translate(61,64)"/>
<path d="M0,0 L10,1 L10,5 L7,5 L7,3 L0,2 Z " fill="#394449" transform="translate(61,62)"/>
<path d="M0,0 L2,1 L1,5 L3,5 L3,10 L0,9 L-1,5 Z " fill="#40464B" transform="translate(33,42)"/>
<path d="M0,0 L7,0 L7,3 L-2,3 Z " fill="#0B0F14" transform="translate(83,26)"/>
<path d="M0,0 L6,2 L6,5 L0,5 L2,4 L2,2 L0,2 Z " fill="#606A70" transform="translate(93,12)"/>
<path d="M0,0 L2,2 L0,2 L0,4 L-6,4 L-8,1 Z " fill="#121E21" transform="translate(69,67)"/>
<path d="M0,0 L1,2 L6,2 L4,6 L1,6 Z " fill="#2E3B3F" transform="translate(9,54)"/>
<path d="M0,0 L7,0 L9,3 L0,3 Z " fill="#3E474E" transform="translate(8,9)"/>
<path d="M0,0 L3,1 L1,1 L2,7 L0,7 L0,5 L-3,4 L-3,2 L-1,2 Z " fill="#414B4F" transform="translate(91,52)"/>
<path d="M0,0 L7,0 L7,3 L1,3 Z " fill="#05070C" transform="translate(81,33)"/>
<path d="M0,0 L1,0 L2,7 L-2,10 L-2,5 Z " fill="#1D2B2B" transform="translate(122,4)"/>
<path d="M0,0 L11,0 L8,3 L2,2 Z " fill="#2C3137" transform="translate(106,63)"/>
<path d="M0,0 L4,1 L2,3 L2,1 Z M1,3 L2,3 L2,8 L0,8 L-1,10 L0,4 Z " fill="#03080D" transform="translate(1,41)"/>
<path d="M0,0 L1,0 L1,5 L-6,7 L-5,4 Z " fill="#33393F" transform="translate(149,36)"/>
<path d="M0,0 L3,0 L2,3 L0,3 L1,7 L-1,7 L-1,3 L-3,2 Z " fill="#3F4C50" transform="translate(62,73)"/>
<path d="M0,0 L3,0 L3,6 L0,6 Z " fill="#434C51" transform="translate(13,39)"/>
<path d="M0,0 L4,0 L4,6 L7,7 L2,9 L3,1 Z " fill="#131C21" transform="translate(39,29)"/>
<path d="M0,0 L6,0 L5,3 L0,3 Z " fill="#000102" transform="translate(90,18)"/>
<path d="M0,0 L8,0 L7,4 L5,4 L5,2 L0,1 Z " fill="#667375" transform="translate(75,73)"/>
<path d="M0,0 L3,1 L2,6 L0,7 Z " fill="#24272D" transform="translate(0,30)"/>
<path d="M0,0 L4,1 L4,3 L6,3 L6,5 L1,6 Z " fill="#20292D" transform="translate(112,19)"/>
<path d="M0,0 L4,0 L4,2 L2,2 L2,5 L-3,5 L0,4 Z " fill="#071214" transform="translate(116,9)"/>
<path d="M0,0 L6,0 L5,4 L0,2 Z " fill="#495158" transform="translate(70,55)"/>
<path d="M0,0 L2,0 L2,5 L-1,7 Z " fill="#545D62" transform="translate(35,28)"/>
<path d="M0,0 L1,0 L1,6 L-4,6 L-3,3 L0,3 Z " fill="#6D797A" transform="translate(137,10)"/>
<path d="M0,0 L6,1 L5,3 L0,3 Z " fill="#6E7578" transform="translate(114,65)"/>
<path d="M0,0 L6,1 L6,3 L0,3 Z " fill="#0A1419" transform="translate(61,34)"/>
<path d="M0,0 L5,0 L1,4 L-1,4 Z " fill="#212A31" transform="translate(57,29)"/>
<path d="M0,0 L4,1 L4,5 L0,3 Z " fill="#8A9198" transform="translate(99,28)"/>
<path d="M0,0 L3,1 L1,3 L-1,8 L-2,6 Z M-3,8 Z " fill="#5F6A6C" transform="translate(131,23)"/>
<path d="M0,0 L4,2 L4,5 L0,5 Z " fill="#131F22" transform="translate(141,11)"/>
<path d="M0,0 L4,2 L5,5 L1,4 Z " fill="#091017" transform="translate(65,56)"/>
<path d="M0,0 L2,1 L2,6 L-2,4 L0,3 Z " fill="#30363C" transform="translate(36,49)"/>
<path d="M0,0 L6,1 L6,3 L0,2 Z " fill="#8D979E" transform="translate(47,24)"/>
<path d="M0,0 L4,0 L4,2 L7,3 L3,4 L2,1 Z " fill="#414B51" transform="translate(60,9)"/>
<path d="M0,0 L6,0 L4,4 L2,3 L3,1 Z " fill="#3B4249" transform="translate(54,22)"/>
<path d="M0,0 L7,1 L4,3 L0,2 Z " fill="#394648" transform="translate(86,15)"/>
<path d="M0,0 L5,1 L5,3 L0,3 Z " fill="#818A90" transform="translate(90,13)"/>
<path d="M0,0 L1,2 L3,2 L3,4 L-2,4 L-3,2 L0,2 Z " fill="#0D1217" transform="translate(96,5)"/>
<path d="M0,0 L2,4 L-1,5 L-1,3 L-4,2 L0,2 Z " fill="#03070E" transform="translate(49,55)"/>
<path d="M0,0 L5,0 L5,2 L0,3 Z " fill="#6E787E" transform="translate(66,9)"/>
<path d="M0,0 L4,0 L4,3 L0,3 Z " fill="#3E4E4D" transform="translate(131,0)"/>
<path d="M0,0 L7,0 L3,1 L3,3 L0,2 Z " fill="#596869" transform="translate(123,0)"/>
<path d="M0,0 L4,1 L3,4 L0,2 Z " fill="#3E4B4F" transform="translate(18,47)"/>
<path d="M0,0 L4,1 L2,4 L0,4 Z " fill="#374046" transform="translate(45,28)"/>
<path d="M0,0 L2,0 L2,2 L5,3 L-1,3 Z " fill="#292F35" transform="translate(34,17)"/>
<path d="M0,0 L3,1 L3,4 L0,3 Z " fill="#464C51" transform="translate(33,48)"/>
<path d="M0,0 L3,1 L2,4 L0,3 Z " fill="#020B0F" transform="translate(87,70)"/>
<path d="M0,0 L4,1 L3,3 L0,2 Z " fill="#444F53" transform="translate(65,64)"/>
<path d="M0,0 L3,0 L2,3 L-1,2 Z " fill="#14191E" transform="translate(135,51)"/>
<path d="M0,0 L3,1 L3,3 L0,3 Z " fill="#212C30" transform="translate(73,81)"/>
<path d="M0,0 L1,3 L-2,3 L-2,1 Z " fill="#172229" transform="translate(60,34)"/>
<path d="M0,0 L3,1 L1,2 L0,4 L-1,1 Z " fill="#686F74" transform="translate(98,26)"/>
<path d="M0,0 L1,2 L3,3 L0,4 L-1,2 Z " fill="#536364" transform="translate(79,75)"/>
<path d="M0,0 L2,0 L1,3 L-1,1 Z " fill="#050A10" transform="translate(90,50)"/>
</svg>
