<?xml version="1.0" encoding="UTF-8"?>
<!-- Generator: visioncortex VTracer 0.6.5 -->
<svg version="1.1" xmlns="http://www.w3.org/2000/svg" width="150" height="84">
<path d="M0,0 L150,0 L150,84 L0,84 Z " fill="#010305" transform="translate(0,0)"/>
<path d="M0,0 L5,1 L4,9 L8,14 L17,17 L27,18 L34,21 L34,23 L49,23 L49,19 L55,18 L88,22 L97,24 L98,25 L109,27 L118,29 L120,32 L133,34 L133,36 L131,36 L132,38 L139,39 L146,42 L146,45 L-4,45 L-4,1 Z " fill="#3A4449" transform="translate(4,39)"/>
<path d="M0,0 L54,0 L57,6 L57,15 L56,22 L52,23 L52,28 L48,33 L43,38 L41,38 L41,40 L31,40 L30,35 L25,34 L22,30 L12,26 L4,26 L1,24 L-14,24 L-15,25 L-28,25 L-28,21 L-24,20 L-23,16 L-26,14 L-10,14 L-14,15 L-14,17 L-5,17 L3,18 L3,20 L13,20 L15,21 L15,23 L31,24 L32,25 L33,23 L36,23 L33,17 L27,15 L26,11 L11,9 L2,4 Z " fill="#273236" transform="translate(74,0)"/>
<path d="M0,0 L9,0 L25,3 L26,4 L37,6 L46,8 L48,11 L61,13 L61,15 L59,15 L60,17 L67,18 L74,21 L74,24 L-2,24 L-2,11 L0,11 Z " fill="#334043" transform="translate(76,60)"/>
<path d="M0,0 L4,0 L4,5 L10,4 L12,8 L25,7 L25,30 L11,27 L10,24 L12,24 L12,22 L-3,21 L-3,17 L-12,16 L-23,14 L-26,12 L-26,7 L-23,4 L-17,5 L-17,3 L-1,1 Z " fill="#010204" transform="translate(125,51)"/>
<path d="M0,0 L29,0 L32,6 L32,15 L31,22 L27,23 L27,28 L24,32 L19,34 L17,37 L15,37 L15,39 L12,38 L11,35 L8,32 L12,29 L15,28 L13,21 L11,18 L9,12 L5,11 L0,1 Z " fill="#273032" transform="translate(99,0)"/>
<path d="M0,0 L3,0 L3,24 L-5,26 L-10,26 L-12,24 L-12,21 L-18,22 L-18,17 L-23,19 L-36,20 L-36,17 L-18,10 L-16,8 L-4,4 L-2,4 Z " fill="#4A4F52" transform="translate(147,34)"/>
<path d="M0,0 L55,0 L55,3 L24,5 L18,6 L18,8 L9,11 L3,15 L1,15 L1,22 L0,22 Z " fill="#2F3C43" transform="translate(0,0)"/>
<path d="M0,0 L26,0 L26,3 L21,4 L14,5 L13,9 L14,10 L25,10 L29,7 L29,22 L25,21 L22,20 L18,21 L18,19 L12,20 L9,12 L5,11 L0,1 Z " fill="#485D5B" transform="translate(99,0)"/>
<path d="M0,0 L2,3 L6,8 L6,10 L11,8 L21,8 L26,10 L29,11 L29,12 L7,11 L7,15 L-8,15 L-8,13 L-21,10 L-26,10 L-35,6 L-36,4 L-22,5 L-21,6 L-16,6 L-13,5 L-13,8 L-4,11 L-4,4 Z " fill="#0F191D" transform="translate(46,47)"/>
<path d="M0,0 L25,0 L30,9 L30,11 L35,12 L37,18 L37,20 L35,20 L33,17 L27,15 L26,11 L11,9 L2,4 Z " fill="#273133" transform="translate(74,0)"/>
<path d="M0,0 L6,1 L8,2 L8,5 L13,7 L13,3 L19,4 L22,5 L22,9 L24,10 L23,12 L17,14 L17,16 L20,17 L20,20 L8,20 L6,17 L5,6 L1,4 Z " fill="#4D5D5F" transform="translate(91,64)"/>
<path d="M0,0 L7,1 L7,5 L9,5 L9,7 L12,10 L15,17 L15,21 L-1,21 L-1,4 Z " fill="#596266" transform="translate(80,63)"/>
<path d="M0,0 L4,0 L4,11 L2,11 L2,24 L-15,24 L-14,21 L-10,20 L-7,9 L-3,3 Z " fill="#5B6469" transform="translate(72,60)"/>
<path d="M0,0 L3,1 L2,4 L-5,8 L-12,9 L-11,13 L-5,13 L-4,15 L-10,16 L-10,25 L-12,24 L-12,21 L-18,22 L-18,17 L-23,19 L-36,20 L-36,17 L-18,10 L-16,8 L-4,4 L-2,4 Z " fill="#2E3235" transform="translate(147,34)"/>
<path d="M0,0 L7,2 L13,5 L15,9 L20,10 L22,14 L31,15 L31,13 L35,11 L34,14 L32,14 L31,17 L26,17 L25,20 L25,23 L23,23 L22,19 L17,24 L12,24 L13,20 L15,19 L14,18 L13,11 L5,7 Z " fill="#131B1E" transform="translate(84,25)"/>
<path d="M0,0 L3,1 L5,8 L-2,12 L1,15 L2,18 L4,19 L4,17 L9,12 L12,13 L7,18 L5,18 L5,20 L-5,20 L-6,16 L-7,10 L-6,8 L-18,5 L-18,4 L-5,4 L-4,5 L-3,3 L0,3 Z " fill="#1F2427" transform="translate(110,20)"/>
<path d="M0,0 L9,0 L25,3 L26,5 L20,4 L4,3 L3,24 L-2,24 L-2,11 L0,11 Z " fill="#273135" transform="translate(76,60)"/>
<path d="M0,0 L1,0 L1,15 L-3,14 L-6,13 L-10,14 L-10,12 L-16,13 L-14,10 L-14,6 L-12,6 L-12,4 L-3,3 Z " fill="#3C4344" transform="translate(127,7)"/>
<path d="M0,0 L5,0 L8,0 L11,0 L10,4 L8,9 L4,11 L2,14 L0,14 L0,16 L-3,15 L-4,12 L-7,9 L-3,6 L0,5 Z " fill="#3B4243" transform="translate(114,23)"/>
<path d="M0,0 L10,0 L12,1 L12,3 L22,6 L27,8 L28,16 L22,14 L19,10 L9,6 L1,4 Z " fill="#2B3234" transform="translate(77,20)"/>
<path d="M0,0 L19,0 L22,4 L30,8 L41,9 L45,11 L45,13 L30,11 L25,10 L25,8 L21,7 L18,3 L18,1 L11,4 L-8,4 L-8,3 L0,3 Z " fill="#101C1D" transform="translate(55,0)"/>
<path d="M0,0 L14,1 L15,2 L20,2 L23,1 L23,4 L27,5 L28,7 L36,7 L36,11 L28,11 L28,9 L15,6 L10,6 L1,2 Z " fill="#222A30" transform="translate(10,51)"/>
<path d="M0,0 L6,1 L8,7 L8,13 L-4,13 L-4,7 L-2,6 Z " fill="#676F74" transform="translate(84,71)"/>
<path d="M0,0 L1,0 L2,5 L8,6 L9,5 L21,5 L20,2 L26,2 L27,8 L33,8 L29,10 L24,8 L9,8 L8,9 L-5,9 L-5,5 L-1,4 Z M0,5 Z " fill="#202B30" transform="translate(51,16)"/>
<path d="M0,0 L9,0 L16,5 L16,2 L20,2 L23,6 L23,8 L13,8 L3,5 Z " fill="#333E40" transform="translate(74,0)"/>
<path d="M0,0 L20,2 L15,6 L9,15 L7,15 L8,11 L10,4 L-2,4 L-2,1 Z " fill="#323C40" transform="translate(55,57)"/>
<path d="M0,0 L0,3 L-2,3 L-3,6 L-8,6 L-9,9 L-9,12 L-11,12 L-12,8 L-17,13 L-22,13 L-21,9 L-19,8 L-19,5 L-13,5 L-12,3 L-3,4 L-3,2 Z " fill="#0D1115" transform="translate(118,36)"/>
<path d="M0,0 L5,0 L4,3 L-2,4 L-3,7 L-16,8 L-16,5 L-9,2 Z " fill="#3B4044" transform="translate(127,46)"/>
<path d="M0,0 L13,0 L11,4 L7,6 L7,11 L5,11 L0,1 Z " fill="#374444" transform="translate(99,0)"/>
<path d="M0,0 L9,0 L10,2 L4,3 L4,12 L2,11 L2,8 L-4,9 L-4,4 Z " fill="#25282D" transform="translate(133,47)"/>
<path d="M0,0 L22,0 L22,3 L1,3 Z " fill="#3A4848" transform="translate(21,0)"/>
<path d="M0,0 L2,0 L2,3 L6,4 L7,6 L15,6 L15,10 L7,10 L7,8 L5,8 L2,5 L-6,3 L-6,2 Z " fill="#161E25" transform="translate(31,52)"/>
<path d="M0,0 L4,1 L6,5 L8,5 L8,8 L0,8 L-1,5 L-3,4 L-3,2 Z " fill="#3A4549" transform="translate(111,76)"/>
<path d="M0,0 L12,0 L12,3 L1,4 L-19,4 L-19,3 L0,3 Z " fill="#1C2B2B" transform="translate(43,0)"/>
<path d="M0,0 L2,0 L3,4 L14,7 L16,9 L7,9 L1,7 L-1,5 Z " fill="#0E161D" transform="translate(8,43)"/>
<path d="M0,0 L6,0 L7,6 L13,6 L9,8 L4,6 L-10,5 L-10,4 L1,3 Z " fill="#111B1F" transform="translate(71,18)"/>
<path d="M0,0 L10,0 L15,2 L18,3 L18,4 L-4,3 L-5,7 L-5,5 L-7,4 L-3,1 Z " fill="#182226" transform="translate(57,55)"/>
<path d="M0,0 L1,0 L2,7 L-1,10 L-2,13 L3,12 L3,15 L-8,15 L-7,12 L-3,11 Z " fill="#4F595D" transform="translate(65,69)"/>
<path d="M0,0 L1,3 L5,2 L9,5 L9,7 L7,7 L8,12 L4,12 L2,6 L0,5 Z " fill="#444D4F" transform="translate(106,6)"/>
<path d="M0,0 L9,2 L20,3 L24,5 L24,7 L9,5 L4,4 L4,2 L0,1 Z " fill="#0E191B" transform="translate(76,6)"/>
<path d="M0,0 L2,0 L1,5 L-2,7 L-12,6 L-12,8 L-14,7 L-12,4 L-5,3 L0,3 Z " fill="#2C4240" transform="translate(125,0)"/>
<path d="M0,0 L5,4 L9,16 L5,16 L0,3 Z " fill="#2E3B3E" transform="translate(90,68)"/>
<path d="M0,0 L2,0 L2,9 L-12,7 L-12,6 L-7,6 L-7,4 L-2,3 Z " fill="#0E1419" transform="translate(97,54)"/>
<path d="M0,0 L5,0 L6,2 L1,2 L0,23 L-4,22 L-2,22 L-1,1 Z " fill="#3E474B" transform="translate(79,61)"/>
<path d="M0,0 L4,0 L8,8 L8,10 L3,10 L4,5 L0,4 L-1,1 Z " fill="#2B3741" transform="translate(6,74)"/>
<path d="M0,0 L7,1 L13,2 L13,5 L5,6 L5,2 L0,1 Z " fill="#3E4A4E" transform="translate(108,67)"/>
<path d="M0,0 L1,3 L8,3 L8,4 L1,6 L-2,8 L-5,8 L-4,4 L0,2 Z " fill="#0C151B" transform="translate(45,22)"/>
<path d="M0,0 L3,1 L3,5 L0,5 L0,8 L-3,8 L-4,11 L-5,6 L-3,3 L0,3 Z " fill="#14191D" transform="translate(110,20)"/>
<path d="M0,0 L6,0 L6,6 L1,11 L-1,11 L-1,8 L4,5 L5,1 L2,3 L-1,3 Z " fill="#475054" transform="translate(58,62)"/>
<path d="M0,0 L6,0 L7,2 L1,3 L1,12 L-1,11 L-1,3 Z " fill="#303537" transform="translate(136,47)"/>
<path d="M0,0 L4,1 L5,5 L9,6 L-4,6 L-6,4 L1,4 Z " fill="#0D1116" transform="translate(95,18)"/>
<path d="M0,0 L14,1 L14,2 L5,3 L4,4 L-2,4 L-2,1 Z " fill="#2A3438" transform="translate(55,57)"/>
<path d="M0,0 L3,1 L-2,6 L-4,6 L-4,8 L-9,8 L-11,2 L-8,3 L-7,6 L-5,7 L-5,5 Z " fill="#282E30" transform="translate(119,32)"/>
<path d="M0,0 L8,0 L8,3 L3,4 L-3,4 L-2,2 L0,2 Z " fill="#425755" transform="translate(117,0)"/>
<path d="M0,0 L5,0 L4,3 L-5,5 L-3,1 Z " fill="#4B4E53" transform="translate(127,46)"/>
<path d="M0,0 L7,0 L12,4 L12,6 L8,6 L8,4 L2,2 Z " fill="#464F50" transform="translate(76,0)"/>
<path d="M0,0 L4,2 L3,7 L2,9 L0,9 L0,3 Z " fill="#4F595D" transform="translate(52,75)"/>
<path d="M0,0 L3,0 L3,4 L1,4 L-1,8 L-7,8 L-3,6 L0,3 L-2,2 Z " fill="#373B3F" transform="translate(132,43)"/>
<path d="M0,0 L10,0 L9,3 L2,3 L0,2 Z " fill="#3C4344" transform="translate(77,20)"/>
<path d="M0,0 L8,0 L10,2 L7,2 L7,5 L2,3 Z " fill="#2F3638" transform="translate(83,0)"/>
<path d="M0,0 L11,0 L14,3 L6,1 L6,3 L3,3 L2,5 L2,1 Z " fill="#454F53" transform="translate(85,63)"/>
<path d="M0,0 L3,0 L4,5 L10,5 L6,7 L1,5 L1,3 L-1,3 Z " fill="#1D2628" transform="translate(74,19)"/>
<path d="M0,0 L3,0 L3,3 L-5,4 L-10,5 L-6,2 Z " fill="#0B1619" transform="translate(15,8)"/>
<path d="M0,0 L5,0 L5,3 L2,4 L-8,4 L-8,3 L0,3 Z " fill="#111E1E" transform="translate(55,0)"/>
<path d="M0,0 L8,0 L9,5 L1,2 Z " fill="#1C2729" transform="translate(100,13)"/>
<path d="M0,0 L7,2 L10,5 L3,5 Z " fill="#323D3E" transform="translate(74,0)"/>
<path d="M0,0 L8,0 L8,3 L0,3 Z " fill="#394647" transform="translate(47,0)"/>
<path d="M0,0 L4,0 L7,4 L7,6 L1,4 Z " fill="#3D4748" transform="translate(90,2)"/>
<path d="M0,0 L2,4 L4,7 L4,11 L1,11 Z " fill="#505B5F" transform="translate(91,73)"/>
<path d="M0,0 L6,0 L7,2 L4,2 L4,4 L0,4 Z " fill="#0C1116" transform="translate(104,52)"/>
<path d="M0,0 L2,0 L2,4 L-6,4 L-6,2 L0,2 Z " fill="#272F35" transform="translate(44,58)"/>
<path d="M0,0 L1,3 L3,4 L-9,3 L-8,1 L-1,1 Z " fill="#31393A" transform="translate(87,21)"/>
<path d="M0,0 L2,0 L1,5 L0,7 L-3,7 L-1,1 Z " fill="#313B3F" transform="translate(57,77)"/>
<path d="M0,0 L4,2 L4,9 L3,9 L2,4 L-1,2 Z " fill="#0B1215" transform="translate(95,32)"/>
<path d="M0,0 L1,2 L-3,6 L-5,6 L-5,3 Z " fill="#4D575B" transform="translate(62,67)"/>
<path d="M0,0 L2,0 L3,4 L-7,3 L-7,2 Z " fill="#0C151A" transform="translate(109,62)"/>
<path d="M0,0 L3,0 L2,3 L-1,2 L-1,5 L-4,4 Z " fill="#353C3D" transform="translate(111,29)"/>
<path d="M0,0 L6,1 L6,3 L0,4 Z " fill="#171A20" transform="translate(129,52)"/>
<path d="M0,0 L3,1 L2,4 L-2,4 Z " fill="#282D30" transform="translate(147,34)"/>
<path d="M0,0 L5,0 L1,5 Z " fill="#545B60" transform="translate(80,63)"/>
<path d="M0,0 L7,1 L8,3 L3,2 Z " fill="#1F272E" transform="translate(28,56)"/>
<path d="M0,0 L7,0 L3,1 L3,3 L0,2 Z " fill="#435054" transform="translate(101,66)"/>
<path d="M0,0 L4,0 L4,3 L0,3 Z " fill="#2F3C3C" transform="translate(60,0)"/>
<path d="M0,0 L4,2 L-2,3 L-2,1 Z " fill="#30393E" transform="translate(10,53)"/>
<path d="M0,0 L3,1 L1,6 L-1,4 Z " fill="#242A2C" transform="translate(105,32)"/>
<path d="M0,0 L3,1 L3,4 L0,4 Z " fill="#697075" transform="translate(84,65)"/>
<path d="M0,0 L4,5 L0,4 Z " fill="#091717" transform="translate(72,1)"/>
<path d="M0,0 L2,0 L2,3 L-2,2 Z " fill="#0A1219" transform="translate(31,52)"/>
<path d="M0,0 L3,0 L3,3 L-1,1 Z " fill="#2C3035" transform="translate(132,50)"/>
<path d="M0,0 L2,3 L0,6 L-1,1 Z " fill="#0C1013" transform="translate(106,25)"/>
<path d="M0,0 L3,1 L2,3 L0,3 Z " fill="#444B4C" transform="translate(110,31)"/>
</svg>
