<?xml version="1.0" encoding="UTF-8"?>
<!-- Generator: visioncortex VTracer 0.6.5 -->
<svg version="1.1" xmlns="http://www.w3.org/2000/svg" width="150" height="84">
<path d="M0,0 L150,0 L150,84 L0,84 Z " fill="#677176" transform="translate(0,0)"/>
<path d="M0,0 L150,0 L150,36 L144,36 L140,32 L140,30 L137,29 L135,23 L131,24 L124,21 L123,19 L120,18 L120,15 L112,15 L106,12 L105,9 L99,11 L93,10 L90,8 L66,7 L65,6 L45,6 L42,5 L41,9 L36,12 L33,12 L33,14 L30,14 L30,17 L20,21 L18,21 L18,24 L16,24 L15,29 L8,31 L6,36 L6,45 L8,45 L12,53 L15,55 L15,57 L22,58 L22,60 L26,61 L27,68 L45,70 L47,75 L53,77 L60,78 L60,84 L0,84 Z " fill="#020203" transform="translate(0,0)"/>
<path d="M0,0 L19,2 L21,7 L27,9 L34,10 L34,16 L4,16 L1,11 L-4,6 L-1,3 Z " fill="#030508" transform="translate(26,68)"/>
<path d="M0,0 L1,0 L1,23 L-30,23 L-29,18 L-18,15 L-14,14 L-14,11 L-10,7 L-1,4 Z " fill="#010202" transform="translate(149,61)"/>
<path d="M0,0 L4,1 L1,1 L0,5 L-5,12 L-9,13 L-10,26 L-6,32 L2,33 L2,36 L10,38 L9,43 L6,44 L5,46 L5,41 L2,40 L2,38 L-5,37 L-11,30 L-12,25 L-14,25 L-15,16 L-13,11 L-10,9 L-5,9 L-4,4 L-2,4 L-2,1 Z " fill="#41494F" transform="translate(20,20)"/>
<path d="M0,0 L19,2 L21,7 L12,7 L13,12 L8,11 L6,10 L8,14 L10,16 L4,16 L1,11 L-4,6 L-1,3 Z " fill="#262A2D" transform="translate(26,68)"/>
<path d="M0,0 L10,0 L9,4 L20,5 L22,9 L6,8 L3,8 L3,6 L-3,9 L-11,9 L-11,3 L-10,1 Z " fill="#76827F" transform="translate(54,5)"/>
<path d="M0,0 L3,0 L3,17 L-3,17 L-7,13 L-7,11 L-10,10 L-12,5 L-6,6 L-5,3 L0,2 Z " fill="#141719" transform="translate(147,19)"/>
<path d="M0,0 L4,1 L6,5 L11,3 L14,3 L14,6 L7,8 L5,13 L5,22 L7,22 L7,25 L5,24 L0,23 L-1,23 L-1,1 Z " fill="#1F2226" transform="translate(1,23)"/>
<path d="M0,0 L2,1 L0,6 L-9,9 L-11,12 L-13,12 L-13,15 L-19,18 L-28,20 L-29,24 L-32,24 L-32,16 L-28,15 L-21,16 L-20,11 L-12,11 L-11,6 L-9,6 L-9,4 L-2,3 L-2,1 Z " fill="#3A4349" transform="translate(148,60)"/>
<path d="M0,0 L4,0 L5,2 L10,4 L17,4 L23,0 L25,0 L25,2 L23,2 L24,11 L33,14 L29,16 L22,13 L21,11 L18,10 L18,7 L10,7 L4,4 L3,1 L-1,2 Z " fill="#2C2F30" transform="translate(102,8)"/>
<path d="M0,0 L8,1 L8,4 L16,6 L15,11 L12,12 L11,14 L11,9 L8,8 L8,6 L1,5 Z " fill="#475158" transform="translate(14,52)"/>
<path d="M0,0 L20,0 L16,2 L9,2 L9,4 L27,4 L27,5 L20,6 L0,6 L0,5 L5,4 Z " fill="#27292A" transform="translate(45,0)"/>
<path d="M0,0 L14,0 L13,2 L9,3 L7,6 L-2,6 L-2,1 Z " fill="#1C1D1D" transform="translate(7,15)"/>
<path d="M0,0 L2,0 L2,2 L-4,5 L-13,7 L-14,11 L-17,11 L-17,3 L-13,2 L-3,3 L-3,1 Z " fill="#303A3F" transform="translate(133,73)"/>
<path d="M0,0 L3,1 L-2,9 L-10,10 L-10,15 L-13,15 L-16,16 L-18,14 L-12,12 L-12,9 L-9,9 L-9,7 L-2,4 Z " fill="#505456" transform="translate(42,5)"/>
<path d="M0,0 L3,0 L8,6 L9,8 L15,9 L15,12 L9,12 L5,8 L5,6 L2,5 Z " fill="#3E484E" transform="translate(135,24)"/>
<path d="M0,0 L16,1 L18,6 L15,5 L3,4 L3,2 L0,1 Z " fill="#434C53" transform="translate(29,69)"/>
<path d="M0,0 L6,2 L14,3 L14,6 L4,6 L0,3 Z " fill="#090C0E" transform="translate(32,78)"/>
<path d="M0,0 L2,0 L2,3 L6,5 L8,10 L10,12 L4,12 L1,7 L0,6 Z " fill="#2A2D2E" transform="translate(26,72)"/>
<path d="M0,0 L3,1 L3,3 L10,4 L10,6 L14,7 L14,14 L11,13 L11,8 L8,6 L1,4 Z " fill="#1A1F23" transform="translate(12,54)"/>
<path d="M0,0 L2,0 L1,4 L-4,7 L-7,7 L-7,9 L-10,9 L-9,4 L-1,3 Z " fill="#1F2021" transform="translate(40,5)"/>
<path d="M0,0 L0,3 L-1,5 L-2,16 L-4,16 L-5,7 L-3,2 Z " fill="#2F363D" transform="translate(10,29)"/>
<path d="M0,0 L4,1 L1,1 L0,5 L-4,11 L-8,10 L-5,9 L-4,4 L-2,4 L-2,1 Z " fill="#3F4547" transform="translate(20,20)"/>
<path d="M0,0 L6,0 L7,9 L4,9 L4,3 L-3,3 Z " fill="#444B51" transform="translate(56,75)"/>
<path d="M0,0 L10,0 L11,2 L3,2 L-2,7 L-6,6 L-1,4 Z " fill="#5B6666" transform="translate(68,23)"/>
<path d="M0,0 L3,0 L3,7 L-3,7 L-2,2 L0,2 Z " fill="#262727" transform="translate(147,19)"/>
<path d="M0,0 L6,1 L5,6 L2,7 L1,9 L1,4 Z " fill="#585F63" transform="translate(24,57)"/>
<path d="M0,0 L6,0 L4,5 L-1,5 L-2,2 L0,2 Z " fill="#2C2D2D" transform="translate(9,15)"/>
<path d="M0,0 L3,0 L3,3 L6,4 L5,7 L0,6 Z " fill="#0E0E0E" transform="translate(8,0)"/>
<path d="M0,0 L5,0 L5,5 L0,5 L-1,1 Z " fill="#010203" transform="translate(145,26)"/>
<path d="M0,0 L8,0 L8,1 L1,3 L-8,3 L-9,1 Z " fill="#666F6E" transform="translate(54,5)"/>
<path d="M0,0 L2,1 L1,2 L-7,3 L-12,6 L-12,1 Z " fill="#6C7776" transform="translate(70,15)"/>
<path d="M0,0 L2,1 L0,6 L-10,9 L-10,7 L-1,4 Z " fill="#2E3337" transform="translate(148,60)"/>
<path d="M0,0 L1,3 L-5,6 L-8,6 L-8,8 L-10,8 L-9,5 L-7,5 L-7,3 L0,2 Z " fill="#505659" transform="translate(146,61)"/>
<path d="M0,0 L10,1 L9,3 L1,3 L-1,1 Z " fill="#5E6867" transform="translate(59,13)"/>
<path d="M0,0 L2,3 L7,1 L10,1 L10,4 L0,5 Z " fill="#181A1C" transform="translate(5,25)"/>
<path d="M0,0 L11,0 L11,1 L2,3 L0,7 Z " fill="#20272C" transform="translate(118,77)"/>
<path d="M0,0 L3,1 L-6,6 L-8,5 L-6,2 Z " fill="#13181C" transform="translate(145,66)"/>
<path d="M0,0 L10,4 L10,5 L-1,4 Z " fill="#616A69" transform="translate(64,5)"/>
<path d="M0,0 L3,4 L2,8 L-2,10 L-2,7 L0,6 Z " fill="#5A6063" transform="translate(134,23)"/>
<path d="M0,0 L3,0 L8,6 L7,8 L6,5 L2,5 Z " fill="#36393B" transform="translate(135,24)"/>
<path d="M0,0 L1,4 L4,5 L1,5 L0,7 L-4,7 L-4,4 L-1,3 Z " fill="#0D0E0E" transform="translate(4,17)"/>
<path d="M0,0 L6,0 L8,3 L3,4 Z " fill="#0A0E12" transform="translate(14,59)"/>
<path d="M0,0 L3,2 L3,6 L-1,6 Z " fill="#838889" transform="translate(44,6)"/>
<path d="M0,0 L3,3 L6,9 L2,7 L0,3 Z " fill="#353D44" transform="translate(8,45)"/>
<path d="M0,0 L3,1 L6,4 L6,6 L1,4 Z " fill="#181B1D" transform="translate(32,78)"/>
<path d="M0,0 L2,0 L2,3 L4,3 L3,6 L0,5 Z " fill="#404242" transform="translate(26,72)"/>
<path d="M0,0 L3,0 L3,2 L6,2 L6,4 L2,5 L2,1 Z " fill="#5F6666" transform="translate(120,23)"/>
<path d="M0,0 L4,1 L1,1 L1,4 L-2,4 L-2,1 Z " fill="#333738" transform="translate(20,20)"/>
<path d="M0,0 L3,1 L1,3 L-3,3 L-3,1 Z " fill="#626867" transform="translate(24,20)"/>
<path d="M0,0 L5,0 L1,4 Z " fill="#778183" transform="translate(58,17)"/>
<path d="M0,0 L3,0 L1,6 L0,6 Z " fill="#2F3233" transform="translate(120,12)"/>
<path d="M0,0 L4,2 L4,4 L0,3 Z " fill="#151718" transform="translate(26,68)"/>
<path d="M0,0 L4,1 L3,3 L0,3 Z " fill="#121313" transform="translate(137,17)"/>
<path d="M0,0 L4,0 L3,3 L0,2 Z " fill="#91969B" transform="translate(51,74)"/>
<path d="M0,0 L2,0 L2,4 L0,4 L-1,1 Z " fill="#272C30" transform="translate(2,30)"/>
<path d="M0,0 L4,1 L4,3 L0,1 Z " fill="#454E55" transform="translate(43,72)"/>
<path d="M0,0 L3,1 L2,3 L0,3 Z " fill="#121314" transform="translate(32,78)"/>
<path d="M0,0 L2,0 L1,3 L-2,1 Z " fill="#393B3C" transform="translate(28,75)"/>
</svg>
