<?xml version="1.0" encoding="UTF-8"?>
<!-- Generator: visioncortex VTracer 0.6.5 -->
<svg version="1.1" xmlns="http://www.w3.org/2000/svg" width="120" height="68">
<path d="M0,0 L120,0 L120,68 L0,68 Z " fill="#171B25" transform="translate(0,0)"/>
<path d="M0,0 L50,0 L49,12 L45,13 L44,13 L43,16 L37,16 L38,7 L33,7 L31,10 L26,12 L21,11 L14,9 L14,11 L19,12 L19,14 L22,15 L22,24 L17,32 L13,30 L8,25 L8,18 L10,14 L10,12 L8,12 L8,8 L0,8 Z " fill="#3E3B4C" transform="translate(0,0)"/>
<path d="M0,0 L13,0 L13,26 L4,27 L-14,26 L-13,17 L-12,16 L-12,6 L-11,5 L-2,5 Z M-14,18 Z " fill="#0C0D19" transform="translate(107,0)"/>
<path d="M0,0 L8,0 L8,4 L10,4 L11,8 L9,10 L9,18 L6,18 L5,25 L2,27 L2,25 L0,25 Z " fill="#3F4150" transform="translate(0,8)"/>
<path d="M0,0 L7,0 L10,2 L10,11 L5,19 L1,17 L-4,12 L-4,7 L-1,4 Z " fill="#4C5864" transform="translate(12,13)"/>
<path d="M0,0 L3,0 L3,5 L2,6 L0,16 L-4,21 L-11,24 L-13,23 L-11,18 L-8,13 L-8,4 L-10,2 L-4,2 Z " fill="#1B2532" transform="translate(29,11)"/>
<path d="M0,0 L8,0 L7,12 L3,13 L2,13 L1,16 L-5,16 L-4,7 L-9,7 L-11,10 L-16,12 L-21,11 L-19,10 L-17,11 L-17,9 L-13,8 L-11,4 L-1,3 Z " fill="#2C3743" transform="translate(42,0)"/>
<path d="M0,0 L7,0 L7,15 L8,16 L9,13 L11,14 L11,16 L13,16 L13,18 L16,18 L16,20 L0,20 Z " fill="#3D4B56" transform="translate(0,48)"/>
<path d="M0,0 L11,0 L11,9 L1,9 L-4,6 L-2,1 Z " fill="#000510" transform="translate(109,3)"/>
<path d="M0,0 L2,0 L2,12 L-9,12 L-8,6 L-3,5 L-1,1 Z " fill="#0B0C16" transform="translate(118,56)"/>
<path d="M0,0 L5,1 L5,3 L14,3 L15,7 L-2,7 L-2,2 Z " fill="#374A5B" transform="translate(24,61)"/>
<path d="M0,0 L3,0 L3,2 L5,2 L6,6 L2,12 L-3,13 L-3,3 Z " fill="#252837" transform="translate(5,10)"/>
<path d="M0,0 L4,1 L4,12 L0,17 L-5,17 L-1,9 Z " fill="#2D3B47" transform="translate(22,15)"/>
<path d="M0,0 L8,0 L8,6 L10,6 L10,10 L8,10 L8,8 L0,8 Z " fill="#585566" transform="translate(0,0)"/>
<path d="M0,0 L3,1 L3,3 L5,3 L5,5 L8,5 L8,7 L-8,7 L-8,3 L0,3 Z " fill="#424447" transform="translate(8,61)"/>
<path d="M0,0 L14,0 L12,4 L1,4 Z " fill="#363646" transform="translate(93,0)"/>
<path d="M0,0 L3,0 L2,9 L-1,13 L-1,4 L-6,3 L-8,1 L-2,1 Z " fill="#272C3B" transform="translate(27,12)"/>
<path d="M0,0 L12,0 L11,4 L0,4 Z " fill="#4A5562" transform="translate(30,0)"/>
<path d="M0,0 L6,1 L5,8 L2,10 L2,8 L0,8 Z " fill="#2F3D49" transform="translate(0,25)"/>
<path d="M0,0 L10,0 L10,4 L-2,4 Z " fill="#010A16" transform="translate(50,64)"/>
<path d="M0,0 L5,0 L5,4 L-1,8 L-3,11 L-4,5 Z " fill="#666E7C" transform="translate(13,14)"/>
<path d="M0,0 L6,3 L6,6 L2,8 L-6,8 L-6,3 L-5,6 L1,5 Z " fill="#21262B" transform="translate(42,10)"/>
<path d="M0,0 L4,1 L3,6 L0,14 L-4,15 L-1,9 Z " fill="#394551" transform="translate(22,15)"/>
<path d="M0,0 L8,0 L8,4 L-2,4 L-2,2 L0,2 Z " fill="#0E060B" transform="translate(112,64)"/>
<path d="M0,0 L6,0 L6,6 L0,6 Z " fill="#615E6F" transform="translate(0,0)"/>
<path d="M0,0 L8,0 L9,4 L0,4 Z " fill="#26394D" transform="translate(30,64)"/>
<path d="M0,0 L5,0 L3,4 L2,7 L-2,7 L-1,2 Z " fill="#02050D" transform="translate(6,14)"/>
<path d="M0,0 L2,3 L2,6 L7,6 L7,7 L2,7 L1,12 L-2,14 L0,8 L0,6 L-2,6 L-2,4 L0,4 Z " fill="#3D404F" transform="translate(10,6)"/>
<path d="M0,0 Z M-2,1 L0,1 L0,3 L-2,4 L-3,9 L-7,8 L-8,7 L-8,2 L-5,4 Z " fill="#586672" transform="translate(16,18)"/>
<path d="M0,0 L1,2 L7,0 L8,5 L-1,4 Z " fill="#293743" transform="translate(1,21)"/>
<path d="M0,0 L1,4 L-3,7 L-8,8 L-9,5 L-2,3 Z " fill="#1F2D39" transform="translate(25,27)"/>
<path d="M0,0 L2,3 L2,6 L-3,6 L-2,2 Z " fill="#272A35" transform="translate(105,62)"/>
<path d="M0,0 L4,1 L4,3 L0,3 L-2,7 L-2,2 Z " fill="#171727" transform="translate(6,11)"/>
<path d="M0,0 L4,0 L4,4 L-1,4 Z " fill="#50687E" transform="translate(24,64)"/>
<path d="M0,0 L3,1 L3,5 L-1,5 Z " fill="#05121E" transform="translate(7,27)"/>
<path d="M0,0 L4,1 L4,5 L0,5 Z " fill="#4B5965" transform="translate(0,27)"/>
<path d="M0,0 L6,3 L6,6 L1,6 Z " fill="#1F2B35" transform="translate(42,10)"/>
<path d="M0,0 L6,1 L7,3 L0,3 Z " fill="#2B3945" transform="translate(61,65)"/>
<path d="M0,0 L2,0 L2,5 L-1,4 Z " fill="#55636F" transform="translate(14,26)"/>
<path d="M0,0 L2,3 L2,6 L-2,6 L-2,4 L0,4 Z " fill="#4B4859" transform="translate(10,6)"/>
<path d="M0,0 L1,3 L-2,7 L-3,2 Z " fill="#6A7884" transform="translate(12,18)"/>
<path d="M0,0 L2,1 L2,4 L-1,4 Z " fill="#353843" transform="translate(105,64)"/>
<path d="M0,0 L3,1 L-1,3 L-2,1 Z " fill="#11131E" transform="translate(112,61)"/>
<path d="M0,0 L4,2 L-1,3 Z " fill="#0D1925" transform="translate(3,20)"/>
<path d="M0,0 L2,2 L0,4 L-2,2 Z " fill="#283642" transform="translate(41,8)"/>
</svg>
