<?xml version="1.0" encoding="UTF-8"?>
<!-- Generator: visioncortex VTracer 0.6.5 -->
<svg version="1.1" xmlns="http://www.w3.org/2000/svg" width="150" height="85">
<path d="M0,0 L150,0 L150,85 L0,85 Z " fill="#0D0B10" transform="translate(0,0)"/>
<path d="M0,0 L3,1 L7,9 L6,13 L1,15 L1,12 L-3,12 L-3,1 Z " fill="#2A3437" transform="translate(86,39)"/>
<path d="M0,0 L4,1 L7,6 L8,11 L4,14 L2,14 L2,11 L-1,10 L-1,2 Z " fill="#1F2A2D" transform="translate(60,40)"/>
<path d="M0,0 L3,1 L5,5 L4,10 L0,9 Z " fill="#293436" transform="translate(61,42)"/>
<path d="M0,0 L5,1 L4,6 L0,7 L0,5 L-3,4 Z " fill="#1C2427" transform="translate(40,47)"/>
<path d="M0,0 L3,1 L3,3 L-2,3 L-2,9 L0,9 L-1,12 L-3,12 L-3,1 Z " fill="#171F22" transform="translate(86,39)"/>
<path d="M0,0 L3,4 L4,9 L0,12 L-2,12 L-1,9 L1,8 Z " fill="#1A2426" transform="translate(89,42)"/>
<path d="M0,0 L2,1 L4,6 L3,10 L-2,12 L-1,9 L1,10 Z " fill="#192325" transform="translate(64,42)"/>
<path d="M0,0 L3,1 L2,6 L0,6 Z " fill="#2F393D" transform="translate(61,42)"/>
<path d="M0,0 L4,1 L2,4 L0,4 Z " fill="#2B2F35" transform="translate(40,50)"/>
<path d="M0,0 L3,1 L3,4 L0,3 Z " fill="#02070A" transform="translate(42,43)"/>
<path d="M0,0 L1,4 L-2,3 Z " fill="#1A181D" transform="translate(39,48)"/>
</svg>
