<?xml version="1.0" encoding="UTF-8"?>
<!-- Generator: visioncortex VTracer 0.6.5 -->
<svg version="1.1" xmlns="http://www.w3.org/2000/svg" width="150" height="84">
<path d="M0,0 L150,0 L150,84 L0,84 Z " fill="#644F3E" transform="translate(0,0)"/>
<path d="M0,0 L47,0 L47,4 L75,4 L74,7 L60,7 L73,9 L79,13 L84,15 L84,18 L86,18 L86,23 L89,22 L89,25 L92,25 L93,29 L97,31 L95,32 L89,30 L85,28 L85,30 L88,30 L87,35 L89,35 L89,40 L86,39 L86,36 L84,36 L84,44 L89,44 L90,42 L90,44 L92,43 L91,38 L96,40 L97,35 L101,33 L103,35 L102,41 L101,43 L99,43 L100,37 L98,37 L98,47 L94,46 L94,48 L90,48 L89,50 L79,50 L76,49 L75,39 L76,37 L72,36 L73,34 L68,35 L60,34 L60,37 L57,37 L58,42 L56,42 L56,40 L48,41 L48,45 L50,46 L48,46 L48,48 L54,48 L53,44 L55,44 L55,46 L61,46 L64,49 L62,50 L68,51 L68,53 L64,53 L64,55 L69,55 L68,57 L59,57 L60,51 L57,51 L57,56 L55,52 L46,52 L46,54 L54,55 L55,60 L57,60 L57,62 L51,63 L44,60 L44,62 L47,63 L47,66 L48,67 L48,72 L53,71 L52,69 L53,67 L48,66 L48,64 L52,64 L56,65 L56,67 L61,68 L61,70 L61,71 L68,71 L67,74 L56,75 L56,77 L59,78 L58,80 L62,79 L62,76 L75,72 L86,71 L90,70 L90,68 L86,70 L78,70 L78,68 L81,68 L78,67 L78,65 L88,64 L93,65 L92,68 L94,68 L94,65 L101,63 L104,61 L108,61 L109,57 L115,57 L115,54 L117,54 L118,48 L115,49 L117,45 L120,46 L121,51 L119,51 L120,57 L116,59 L115,61 L100,67 L90,73 L87,75 L85,76 L85,79 L81,81 L80,84 L0,84 Z " fill="#685D47" transform="translate(0,0)"/>
<path d="M0,0 L16,0 L16,2 L31,1 L34,4 L31,5 L34,8 L31,8 L31,12 L35,12 L37,8 L39,9 L38,12 L47,13 L53,16 L54,20 L47,18 L43,18 L42,20 L47,22 L53,23 L52,28 L50,28 L55,30 L54,21 L57,21 L56,15 L54,14 L54,12 L58,12 L58,15 L63,17 L69,21 L69,25 L64,24 L62,20 L62,22 L64,27 L64,30 L66,31 L64,31 L66,37 L63,37 L62,42 L60,42 L59,40 L58,43 L58,47 L56,48 L56,50 L60,47 L62,47 L64,52 L66,51 L68,52 L68,50 L63,49 L61,44 L66,45 L68,40 L75,41 L76,35 L78,34 L78,27 L76,27 L76,24 L74,24 L74,19 L72,19 L69,12 L74,14 L79,19 L80,24 L82,24 L81,27 L87,28 L87,30 L89,30 L90,36 L88,36 L88,33 L85,33 L85,36 L81,36 L80,38 L78,38 L78,45 L81,45 L81,49 L79,49 L78,55 L74,56 L72,60 L70,67 L68,67 L68,69 L50,76 L45,76 L47,81 L38,81 L38,84 L33,84 L34,80 L38,79 L37,75 L42,73 L47,69 L53,66 L56,66 L57,64 L65,61 L68,61 L70,57 L73,57 L72,51 L73,50 L72,46 L69,47 L68,49 L72,47 L71,52 L70,54 L68,54 L68,57 L62,57 L61,61 L54,64 L51,65 L47,65 L47,68 L45,68 L45,66 L39,65 L33,66 L31,65 L31,67 L36,67 L33,69 L31,68 L31,70 L43,68 L43,70 L39,72 L28,73 L23,75 L15,76 L15,79 L11,80 L11,78 L9,77 L9,75 L20,73 L21,71 L11,72 L12,70 L14,70 L14,68 L9,67 L8,65 L5,64 L4,66 L1,64 L2,66 L6,67 L7,72 L1,72 L-1,66 L-1,63 L-3,62 L-3,60 L6,62 L10,62 L10,60 L8,60 L7,56 L-1,54 L-1,52 L5,51 L8,52 L9,54 L10,51 L13,51 L13,53 L15,54 L12,54 L12,57 L21,56 L17,55 L17,53 L21,53 L21,51 L14,51 L15,48 L11,46 L10,49 L10,46 L8,46 L8,44 L6,44 L7,48 L1,48 L1,41 L9,40 L9,42 L11,42 L10,37 L13,37 L13,34 L26,34 L26,36 L29,37 L29,43 L28,45 L34,45 L34,46 L29,46 L29,49 L42,49 L47,48 L47,46 L51,47 L50,42 L51,37 L53,37 L52,43 L54,43 L55,35 L51,35 L49,40 L45,39 L46,44 L37,44 L36,40 L37,36 L39,36 L39,39 L41,39 L42,35 L40,35 L41,30 L38,30 L38,28 L42,29 L49,31 L45,27 L45,25 L42,25 L41,23 L39,23 L39,18 L37,18 L37,15 L30,13 L26,10 L11,8 L13,6 L27,6 L28,4 L7,5 L0,4 Z " fill="#30251D" transform="translate(47,0)"/>
<path d="M0,0 L2,0 L2,4 L30,4 L29,7 L15,7 L28,9 L34,13 L39,15 L39,18 L41,18 L41,23 L44,22 L44,25 L47,25 L48,29 L52,31 L50,32 L44,30 L40,28 L40,30 L43,30 L42,35 L44,35 L44,40 L41,39 L41,36 L39,36 L39,44 L44,44 L45,42 L45,44 L47,43 L46,38 L51,40 L52,35 L56,33 L58,35 L57,41 L56,43 L54,43 L55,37 L53,37 L53,47 L49,46 L49,48 L45,48 L44,50 L34,50 L31,49 L30,39 L31,37 L27,36 L28,34 L23,35 L15,34 L15,37 L12,37 L13,42 L11,42 L11,40 L3,41 L3,45 L5,46 L3,46 L3,48 L9,48 L8,44 L10,44 L10,46 L16,46 L19,49 L17,50 L23,51 L23,53 L19,53 L19,55 L24,55 L23,57 L14,57 L15,51 L12,51 L12,56 L10,52 L1,52 L-10,43 L-9,50 L-11,50 L-11,48 L-13,48 L-16,45 L-17,42 L-19,41 L-18,38 L-15,38 L-15,41 L-12,41 L-11,36 L-7,35 L-8,33 L-11,33 L-12,28 L-14,28 L-13,32 L-17,33 L-16,28 L-14,26 L-13,22 L-9,23 L-9,26 L-6,26 L-4,22 L-1,21 L-7,20 L-6,17 L-4,17 L-4,14 L0,15 L-2,12 L-5,13 L-4,8 L-6,8 L-6,4 L-1,2 Z " fill="#796544" transform="translate(45,0)"/>
<path d="M0,0 L3,1 L3,3 L5,3 L6,7 L6,11 L9,11 L9,15 L11,15 L14,26 L15,30 L15,36 L13,36 L13,38 L11,38 L11,36 L7,37 L7,30 L5,30 L6,26 L2,25 L4,31 L1,39 L3,40 L-1,42 L-4,42 L-6,46 L-1,44 L2,44 L2,46 L-1,48 L-3,59 L1,58 L4,53 L11,51 L11,54 L16,54 L16,57 L14,57 L14,60 L20,61 L20,56 L22,55 L22,69 L-43,69 L-43,66 L-35,65 L-36,61 L-23,57 L-13,54 L-13,52 L-11,52 L-10,45 L-5,40 L-3,40 L-2,34 L0,34 L0,30 L-2,30 L-3,32 L-4,28 L-3,23 L-1,23 L0,20 L4,21 L4,18 L7,18 L7,21 L9,21 L8,15 L6,15 L6,13 L2,14 L-1,11 L1,11 L1,9 L-1,9 L-3,4 L-4,1 L-2,1 L3,6 L0,3 Z " fill="#342C1E" transform="translate(128,15)"/>
<path d="M0,0 L11,0 L11,70 L9,76 L3,75 L3,72 L5,72 L5,69 L0,69 L-1,67 L-7,69 L-10,74 L-14,74 L-13,63 L-9,61 L-9,59 L-15,62 L-18,61 L-15,57 L-9,55 L-10,52 L-8,45 L-11,38 L-9,37 L-9,40 L-5,41 L-6,45 L-4,45 L-3,51 L0,51 L0,53 L2,53 L2,51 L4,51 L3,42 L0,33 L0,30 L-2,30 L-2,26 L-5,26 L-6,23 L-4,23 L-3,15 L0,15 L0,13 L-4,12 L-4,10 L-8,9 L-7,5 L-4,4 L-4,6 L1,6 L0,2 Z " fill="#0F0C0F" transform="translate(139,0)"/>
<path d="M0,0 L13,0 L13,2 L16,3 L16,9 L15,11 L21,11 L21,12 L16,12 L16,15 L23,16 L23,18 L20,18 L20,20 L27,20 L26,22 L33,20 L33,29 L38,30 L34,31 L34,34 L32,34 L32,32 L26,31 L20,32 L18,31 L18,33 L23,33 L20,35 L18,34 L18,36 L30,34 L30,36 L26,38 L15,39 L10,41 L2,42 L2,45 L-2,46 L-2,44 L-4,43 L-4,41 L7,39 L8,37 L-2,38 L-1,36 L1,36 L1,34 L-4,33 L-5,31 L-8,30 L-9,32 L-12,30 L-11,32 L-7,33 L-6,38 L-12,38 L-14,32 L-14,29 L-16,28 L-16,26 L-7,28 L-3,28 L-3,26 L-5,26 L-6,22 L-14,20 L-14,18 L-8,17 L-5,18 L-4,20 L-3,17 L0,17 L0,19 L2,20 L-1,20 L-1,23 L8,22 L4,21 L4,19 L8,19 L8,17 L1,17 L2,14 L-2,12 L-3,15 L-3,12 L-5,12 L-5,10 L-7,10 L-6,14 L-12,14 L-12,7 L-4,6 L-4,8 L-2,8 L-3,3 L0,3 Z " fill="#615534" transform="translate(60,34)"/>
<path d="M0,0 L34,0 L34,2 L26,3 L23,8 L21,8 L21,10 L19,10 L19,12 L23,12 L23,14 L26,14 L26,12 L35,12 L35,14 L32,14 L30,19 L27,20 L26,27 L24,28 L24,23 L17,26 L14,26 L14,30 L17,31 L15,49 L13,49 L13,45 L7,44 L5,38 L9,39 L10,42 L12,42 L12,39 L10,39 L10,35 L6,33 L4,29 L8,25 L9,21 L3,19 L3,23 L0,23 Z " fill="#564B4A" transform="translate(0,0)"/>
<path d="M0,0 L11,0 L10,3 L5,4 L6,7 L8,8 L6,13 L10,11 L11,15 L7,14 L7,17 L4,20 L11,20 L10,22 L6,24 L5,26 L2,26 L1,23 L-2,22 L-3,27 L-5,29 L-6,33 L-3,32 L-4,30 L-3,28 L-1,28 L0,33 L3,33 L4,31 L4,35 L0,37 L-1,41 L-4,41 L-4,38 L-7,39 L-8,41 L-5,42 L-5,45 L-2,46 L-2,48 L0,48 L0,50 L2,50 L0,43 L2,42 L2,44 L6,46 L12,51 L12,52 L4,52 L3,57 L2,53 L-3,51 L-3,49 L-5,49 L-8,44 L-10,43 L-9,49 L-14,47 L-17,45 L-15,48 L-15,53 L-17,53 L-19,48 L-19,36 L-18,31 L-20,30 L-20,26 L-10,23 L-9,27 L-8,20 L-4,18 L-2,14 L1,14 L1,12 L-5,13 L-8,12 L-8,14 L-11,14 L-11,12 L-15,12 L-15,10 L-13,10 L-13,8 L-11,7 L-9,2 L0,2 Z " fill="#2F1F17" transform="translate(34,0)"/>
<path d="M0,0 L7,5 L7,3 L8,0 L12,2 L13,6 L15,6 L15,8 L20,10 L21,13 L21,8 L30,9 L30,11 L38,12 L39,17 L41,17 L41,19 L35,20 L28,17 L28,19 L31,20 L31,23 L32,24 L32,29 L37,28 L36,26 L37,24 L32,23 L32,21 L36,21 L40,22 L40,24 L45,25 L45,27 L45,28 L52,28 L51,31 L40,32 L40,34 L38,34 L38,32 L36,32 L35,34 L34,32 L30,32 L31,34 L17,32 L17,29 L21,30 L21,27 L12,26 L3,23 L-3,21 L-4,18 L5,20 L5,18 L12,19 L12,21 L19,21 L21,24 L23,23 L23,21 L27,17 L23,19 L22,17 L18,15 L17,19 L7,16 L6,11 L4,10 L0,2 Z " fill="#A29283" transform="translate(16,43)"/>
<path d="M0,0 L2,0 L2,4 L30,4 L29,7 L15,7 L13,8 L4,8 L3,10 L15,11 L15,9 L18,9 L18,12 L30,12 L29,15 L6,15 L6,17 L15,16 L27,16 L31,17 L31,20 L35,21 L35,23 L22,22 L26,20 L21,20 L21,24 L27,25 L25,27 L18,28 L15,26 L15,23 L8,23 L6,22 L6,24 L9,24 L9,26 L-1,27 L0,25 L2,25 L2,23 L-2,24 L-2,26 L-4,26 L-2,30 L-2,36 L-6,37 L-5,31 L-8,30 L-8,33 L-11,33 L-12,28 L-14,28 L-13,32 L-17,33 L-16,28 L-14,26 L-13,22 L-9,23 L-9,26 L-6,26 L-4,22 L-1,21 L-7,20 L-6,17 L-4,17 L-4,14 L0,15 L-2,12 L-5,13 L-4,8 L-6,8 L-6,4 L-1,2 Z " fill="#766550" transform="translate(45,0)"/>
<path d="M0,0 L16,0 L16,2 L31,1 L34,4 L31,5 L34,8 L31,8 L31,12 L35,12 L37,8 L39,9 L38,12 L47,13 L53,16 L54,20 L47,18 L43,18 L42,20 L47,22 L53,23 L52,28 L50,28 L55,30 L54,21 L57,21 L56,15 L54,14 L54,12 L58,12 L58,15 L63,17 L69,21 L69,25 L64,24 L62,20 L62,22 L64,28 L60,28 L60,33 L55,34 L51,35 L49,40 L45,39 L46,44 L37,44 L36,40 L37,36 L39,36 L39,39 L41,39 L42,35 L40,35 L41,30 L38,30 L38,28 L42,29 L49,31 L45,27 L45,25 L42,25 L41,23 L39,23 L39,18 L37,18 L37,15 L30,13 L26,10 L11,8 L13,6 L27,6 L28,4 L7,5 L0,4 Z " fill="#625444" transform="translate(47,0)"/>
<path d="M0,0 L3,1 L4,6 L2,6 L3,12 L-1,14 L-2,16 L-17,22 L-27,28 L-30,30 L-32,31 L-32,34 L-36,36 L-37,39 L-80,39 L-82,37 L-77,36 L-83,34 L-83,33 L-72,33 L-61,34 L-61,32 L-58,33 L-59,35 L-55,34 L-55,31 L-42,27 L-31,26 L-27,25 L-27,23 L-31,25 L-39,25 L-39,23 L-36,23 L-39,22 L-39,20 L-29,19 L-24,20 L-25,23 L-23,23 L-23,20 L-16,18 L-13,16 L-9,16 L-8,12 L-2,12 L-2,9 L0,9 L1,3 L-2,4 Z " fill="#6D625B" transform="translate(117,45)"/>
<path d="M0,0 L3,1 L3,4 L5,4 L5,2 L13,2 L19,5 L19,7 L24,9 L24,11 L26,11 L26,16 L28,16 L28,19 L30,19 L31,27 L28,27 L27,33 L20,32 L19,38 L14,37 L15,41 L20,42 L20,44 L16,45 L14,42 L14,39 L7,43 L8,39 L10,39 L9,33 L11,28 L12,28 L12,34 L14,34 L14,29 L17,28 L15,19 L13,14 L12,11 L16,13 L16,16 L21,17 L20,13 L15,10 L10,7 L10,4 L6,4 L6,6 L9,7 L10,15 L9,13 L6,13 L8,23 L2,21 L0,18 L4,18 L5,15 L1,16 L-6,12 L-5,9 L1,10 L6,12 L5,8 L-1,6 L-3,4 L-1,3 Z " fill="#5A4131" transform="translate(95,8)"/>
<path d="M0,0 L1,3 L5,4 L4,8 L6,8 L7,14 L10,14 L10,16 L12,16 L12,14 L19,14 L19,9 L21,9 L21,33 L19,39 L13,38 L13,35 L15,35 L15,32 L10,32 L9,30 L3,32 L0,37 L-4,37 L-3,26 L1,24 L1,22 L-5,25 L-8,24 L-5,20 L1,18 L0,15 L2,8 L-1,1 Z " fill="#3C2E2B" transform="translate(129,37)"/>
<path d="M0,0 L12,3 L17,5 L22,6 L23,10 L18,8 L18,11 L28,11 L30,11 L33,10 L39,11 L39,13 L41,13 L41,15 L22,15 L27,17 L27,18 L22,19 L22,20 L-15,20 L-15,6 L-9,6 L-6,8 L-6,10 L1,12 L10,15 L10,13 L4,12 L4,10 L1,9 L2,6 L11,11 L12,12 L13,10 L17,10 L17,7 L10,6 L6,7 L4,4 L-1,3 Z " fill="#625048" transform="translate(15,64)"/>
<path d="M0,0 L3,1 L3,3 L5,3 L6,7 L6,11 L9,11 L9,15 L11,15 L14,26 L15,30 L15,36 L13,36 L13,38 L11,38 L11,36 L7,37 L7,30 L5,30 L6,26 L2,25 L4,31 L1,39 L3,40 L-1,42 L-4,42 L-6,46 L-8,52 L-10,52 L-11,59 L-13,61 L-17,61 L-17,59 L-15,58 L-20,57 L-17,55 L-13,54 L-13,52 L-11,52 L-10,45 L-5,40 L-3,40 L-2,34 L0,34 L0,30 L-2,30 L-3,32 L-4,28 L-3,23 L-1,23 L0,20 L4,21 L4,18 L7,18 L7,21 L9,21 L8,15 L6,15 L6,13 L2,14 L-1,11 L1,11 L1,9 L-1,9 L-3,4 L-4,1 L-2,1 L3,6 L0,3 Z " fill="#C3CAC2" transform="translate(128,15)"/>
<path d="M0,0 L11,0 L10,3 L5,4 L6,7 L8,8 L6,13 L10,11 L11,15 L7,14 L7,17 L4,20 L11,20 L10,22 L6,24 L5,26 L2,26 L1,23 L-2,22 L-3,27 L-5,28 L-5,22 L-4,21 L-6,20 L-7,24 L-8,20 L-4,18 L-2,14 L1,14 L1,12 L-5,13 L-8,12 L-8,14 L-11,14 L-11,12 L-15,12 L-15,10 L-13,10 L-13,8 L-11,7 L-9,2 L0,2 Z " fill="#453233" transform="translate(34,0)"/>
<path d="M0,0 L3,0 L3,2 L0,4 L-2,9 L-8,13 L-10,25 L-42,25 L-42,22 L-34,21 L-35,17 L-22,13 L-13,13 L-14,15 L-16,15 L-16,17 L-11,15 L-10,10 L-9,8 L-7,8 L-7,3 Z " fill="#856E6A" transform="translate(127,59)"/>
<path d="M0,0 L16,0 L16,2 L31,1 L34,4 L31,5 L34,8 L31,8 L31,12 L35,12 L37,8 L39,9 L38,12 L47,13 L53,16 L54,20 L47,18 L43,18 L42,20 L46,21 L46,26 L42,25 L41,23 L39,23 L39,18 L37,18 L37,15 L30,13 L26,10 L11,8 L13,6 L27,6 L28,4 L7,5 L0,4 Z " fill="#342213" transform="translate(47,0)"/>
<path d="M0,0 L3,0 L3,3 L15,3 L14,6 L-9,6 L-9,8 L0,7 L12,7 L16,8 L16,11 L20,12 L20,14 L7,13 L11,11 L6,11 L6,15 L12,16 L10,18 L3,19 L0,17 L0,14 L-7,14 L-7,12 L-14,10 L-18,8 L-13,7 L-13,4 L-5,2 L0,2 Z " fill="#432F1A" transform="translate(60,9)"/>
<path d="M0,0 L24,2 L30,6 L35,8 L35,14 L33,17 L27,17 L27,19 L30,20 L30,22 L26,23 L28,24 L28,28 L26,28 L26,25 L20,24 L20,22 L17,21 L21,19 L17,17 L17,13 L15,12 L24,12 L22,14 L31,16 L31,14 L27,13 L27,10 L11,10 L4,11 L2,10 L2,8 L25,8 L25,6 L14,5 L14,2 L11,2 L11,4 L1,4 L-1,3 Z " fill="#82714F" transform="translate(49,7)"/>
<path d="M0,0 L13,0 L13,2 L16,3 L15,13 L10,14 L10,16 L8,16 L8,12 L6,12 L6,16 L1,17 L2,14 L-2,12 L-3,15 L-3,12 L-5,12 L-5,10 L-7,10 L-6,14 L-12,14 L-12,7 L-4,6 L-4,8 L-2,8 L-3,3 L0,3 Z " fill="#3C3229" transform="translate(60,34)"/>
<path d="M0,0 L3,1 L2,3 L5,4 L3,8 L-1,7 L-1,15 L-3,15 L-3,17 L-8,17 L-8,21 L-6,22 L-8,22 L-8,24 L-2,24 L-3,20 L-1,20 L-1,22 L5,22 L8,25 L6,26 L12,27 L12,29 L8,29 L8,31 L13,31 L12,33 L3,33 L4,27 L1,27 L1,32 L-1,28 L-10,28 L-17,22 L-17,17 L-10,16 L-5,13 L-6,8 L-3,6 Z " fill="#AC977B" transform="translate(56,24)"/>
<path d="M0,0 L7,0 L3,1 L3,3 L0,3 L0,5 L-2,5 L-2,7 L1,8 L-3,10 L-3,8 L-8,8 L-8,11 L2,11 L2,9 L9,8 L8,10 L6,9 L6,11 L11,11 L8,13 L6,12 L6,14 L18,12 L18,14 L14,16 L3,17 L-2,19 L-10,20 L-10,23 L-14,24 L-14,22 L-16,21 L-16,19 L-5,17 L-4,15 L-14,16 L-13,14 L-11,14 L-11,12 L-16,11 L-16,7 L-14,7 L-14,9 L-10,7 L-9,4 L0,2 Z " fill="#2C2119" transform="translate(72,56)"/>
<path d="M0,0 L4,0 L4,2 L6,3 L4,3 L6,9 L3,9 L2,14 L0,14 L-1,12 L-2,15 L-2,19 L-5,20 L-8,17 L-8,24 L-10,27 L-7,30 L-11,32 L-14,32 L-14,26 L-19,29 L-24,28 L-27,26 L-27,24 L-24,24 L-24,22 L-17,20 L-13,20 L-13,18 L-9,19 L-10,14 L-9,9 L-7,9 L-8,15 L-6,15 L-5,5 L-1,5 Z " fill="#65523C" transform="translate(107,28)"/>
<path d="M0,0 L6,2 L7,4 L11,3 L10,8 L9,10 L7,10 L7,13 L1,13 L0,17 L-7,20 L-9,21 L-16,20 L-15,16 L-9,13 L-12,10 L-10,8 L-9,1 L-6,2 L-5,6 L-1,3 L1,3 L3,8 L5,7 L7,8 L7,6 L2,5 Z " fill="#191005" transform="translate(108,44)"/>
<path d="M0,0 L6,1 L6,3 L4,3 L4,5 L-1,8 L-3,8 L-3,11 L4,10 L4,8 L10,7 L11,5 L11,8 L17,7 L17,16 L15,22 L9,21 L9,18 L11,18 L11,15 L6,15 L5,13 L-1,15 L-4,20 L-8,20 L-7,9 L-3,7 L-2,2 Z " fill="#291412" transform="translate(133,54)"/>
<path d="M0,0 L11,0 L11,20 L3,20 L2,17 L0,16 L0,13 L-4,12 L-4,10 L-8,9 L-7,5 L-4,4 L-4,6 L1,6 L0,2 Z " fill="#090B07" transform="translate(139,0)"/>
<path d="M0,0 L3,1 L3,4 L5,4 L5,2 L13,2 L19,5 L19,7 L23,9 L24,14 L17,12 L12,8 L10,7 L10,4 L6,4 L6,6 L9,7 L10,15 L9,13 L6,13 L8,23 L2,21 L0,18 L4,18 L5,15 L1,16 L-6,12 L-5,9 L1,10 L6,12 L5,8 L-1,6 L-3,4 L-1,3 Z " fill="#A89575" transform="translate(95,8)"/>
<path d="M0,0 L2,0 L2,2 L0,3 L4,4 L3,7 L5,8 L7,15 L1,18 L-6,18 L-7,22 L-10,20 L-9,27 L-11,27 L-11,25 L-13,25 L-16,22 L-17,19 L-19,18 L-18,15 L-15,15 L-15,18 L-12,18 L-11,13 L-7,12 L-8,7 L-4,8 L-6,14 L-3,13 L-3,7 L-4,3 L-2,3 L-2,1 Z " fill="#685335" transform="translate(45,23)"/>
<path d="M0,0 L2,0 L1,4 L3,4 L3,9 L0,8 L0,5 L-2,5 L-2,13 L3,13 L4,11 L4,13 L6,12 L5,7 L10,9 L11,4 L15,2 L17,4 L16,10 L15,12 L13,12 L14,6 L12,6 L12,16 L8,15 L8,17 L4,17 L3,19 L-7,19 L-10,18 L-10,15 L-4,14 L-5,9 L-4,4 L-2,4 L-2,2 L0,2 Z " fill="#9E8A69" transform="translate(86,31)"/>
<path d="M0,0 L4,0 L4,2 L6,2 L6,4 L12,4 L14,7 L20,6 L25,8 L25,11 L21,11 L20,14 L16,11 L10,8 L10,10 L12,11 L12,13 L18,14 L18,16 L10,15 L2,11 L-1,8 L-7,7 L-3,6 L-5,1 Z " fill="#B8BECC" transform="translate(7,63)"/>
<path d="M0,0 L2,0 L4,4 L4,7 L2,7 L2,15 L0,19 L-2,19 L-2,21 L1,22 L3,26 L-2,24 L-5,22 L-3,25 L-3,30 L-5,30 L-7,25 L-7,13 L-6,8 L-8,7 L-8,3 Z " fill="#3A2925" transform="translate(22,23)"/>
<path d="M0,0 L1,4 L3,4 L3,10 L2,8 L-2,7 L0,13 L-3,21 L-1,22 L-5,24 L-8,24 L-10,28 L-12,34 L-14,34 L-15,41 L-17,43 L-21,43 L-21,41 L-19,40 L-24,39 L-21,37 L-17,36 L-17,34 L-15,34 L-14,27 L-9,22 L-7,22 L-6,16 L-4,16 L-4,12 L-6,12 L-7,14 L-8,10 L-7,5 L-5,5 L-4,2 L0,3 Z " fill="#766A62" transform="translate(132,33)"/>
<path d="M0,0 L9,3 L10,1 L13,5 L13,7 L16,6 L21,9 L21,12 L12,10 L14,13 L13,16 L13,14 L11,14 L11,12 L2,13 L4,18 L0,18 Z " fill="#352021" transform="translate(0,51)"/>
<path d="M0,0 L5,0 L5,3 L3,3 L3,6 L9,7 L9,2 L11,1 L11,15 L-9,15 L-9,13 L-6,13 L-6,11 L-4,11 L-3,7 Z " fill="#6A6F82" transform="translate(139,69)"/>
<path d="M0,0 L28,0 L28,2 L31,3 L28,3 L29,5 L33,7 L22,7 L24,6 L21,6 L19,8 L15,5 L17,9 L11,8 L11,5 L3,5 L2,2 L0,2 Z " fill="#151523" transform="translate(111,0)"/>
<path d="M0,0 L3,1 L2,3 L5,5 L4,8 L0,8 L0,10 L3,10 L3,12 L-20,12 L-20,9 L-12,8 L-13,4 Z " fill="#736F68" transform="translate(105,72)"/>
<path d="M0,0 L7,1 L8,3 L9,0 L12,0 L12,2 L14,3 L11,3 L11,6 L16,5 L20,7 L17,7 L17,9 L15,9 L14,13 L10,14 L10,12 L8,12 L7,14 L4,13 L3,15 L0,13 L1,15 L5,16 L6,21 L0,21 L-2,15 L-2,12 L-4,11 L-4,9 L5,11 L9,11 L9,9 L7,9 L6,5 L-2,3 L-2,1 Z " fill="#6B5941" transform="translate(48,51)"/>
<path d="M0,0 L15,0 L15,14 L11,14 L9,7 L7,7 L6,10 L4,10 L4,12 L0,13 Z " fill="#422E21" transform="translate(0,0)"/>
<path d="M0,0 L2,0 L3,2 L6,2 L6,0 L10,2 L15,5 L15,7 L19,8 L19,10 L17,12 L16,16 L15,18 L12,17 L14,17 L13,13 L11,13 L8,10 L8,13 L11,14 L11,16 L7,14 L2,8 L2,6 L-1,6 L-2,1 Z " fill="#211419" transform="translate(120,5)"/>
<path d="M0,0 L5,2 L10,7 L11,12 L13,12 L12,15 L18,16 L18,18 L20,18 L21,24 L19,24 L19,21 L16,21 L16,24 L12,24 L11,26 L9,26 L8,28 L6,26 L7,23 L9,22 L9,15 L7,15 L7,12 L5,12 L5,7 L3,7 Z " fill="#1A1815" transform="translate(116,12)"/>
<path d="M0,0 L4,0 L8,1 L8,3 L13,4 L13,6 L13,7 L20,7 L19,10 L8,11 L8,13 L6,13 L6,11 L4,11 L3,13 L2,11 L-2,11 L-1,13 L-9,11 L-9,8 L-4,8 L-2,4 L-6,3 L-6,1 L0,3 L0,8 L5,7 L4,5 L5,3 L0,2 Z " fill="#92876D" transform="translate(48,64)"/>
<path d="M0,0 L2,0 L2,4 L4,4 L4,9 L8,10 L8,12 L10,13 L10,15 L3,14 L2,20 L-3,19 L-2,23 L3,24 L3,26 L-1,27 L-3,24 L-3,21 L-10,25 L-9,21 L-7,21 L-8,15 L-6,10 L-5,10 L-5,16 L-3,16 L-3,11 L0,10 L-1,3 L1,3 Z " fill="#755E59" transform="translate(112,26)"/>
<path d="M0,0 L6,0 L9,2 L9,4 L11,5 L9,5 L10,9 L19,12 L19,14 L0,14 Z " fill="#708479" transform="translate(0,70)"/>
<path d="M0,0 L8,1 L8,21 L6,21 L6,26 L1,27 L0,19 L2,19 L3,6 L-1,5 Z " fill="#110B12" transform="translate(142,25)"/>
<path d="M0,0 L13,0 L13,2 L16,3 L16,9 L15,11 L9,10 L3,10 L1,7 L0,5 L-3,5 L-3,3 L0,3 Z " fill="#1E171C" transform="translate(60,34)"/>
<path d="M0,0 L4,0 L5,2 L11,1 L10,4 L8,5 L16,5 L18,4 L18,6 L23,7 L19,8 L19,11 L17,11 L17,9 L11,8 L-1,8 L-1,10 L-6,11 L-11,10 L-11,7 L-6,7 L-5,6 L-5,4 L-3,4 L-3,2 L0,2 Z " fill="#605445" transform="translate(75,57)"/>
<path d="M0,0 L19,0 L23,4 L25,8 L24,5 L30,7 L32,12 L28,13 L22,12 L21,9 L19,12 L15,12 L15,8 L17,7 L14,5 L15,3 L17,4 L17,2 L0,2 Z " fill="#624D39" transform="translate(63,0)"/>
<path d="M0,0 L2,0 L2,2 L7,3 L8,6 L11,5 L11,8 L22,10 L24,10 L25,7 L31,11 L34,10 L32,14 L30,14 L31,18 L27,18 L26,14 L19,14 L19,12 L12,11 L6,8 L4,8 L0,2 Z " fill="#4F4230" transform="translate(9,50)"/>
<path d="M0,0 L3,0 L3,2 L9,4 L5,6 L-2,7 L0,12 L-9,12 L-9,15 L-14,15 L-13,11 L-9,10 L-10,6 L-5,4 Z " fill="#281C13" transform="translate(94,69)"/>
<path d="M0,0 L2,0 L2,15 L1,16 L-4,16 L-8,16 L-11,16 L-11,18 L-18,19 L-18,16 L-15,14 L-9,12 L-8,10 L-2,8 Z " fill="#726460" transform="translate(148,46)"/>
<path d="M0,0 L4,1 L6,2 L5,7 L3,7 L2,12 L7,16 L7,20 L9,20 L9,23 L7,23 L5,20 L1,19 L1,15 L-3,15 L-3,4 L0,4 Z " fill="#201814" transform="translate(3,19)"/>
<path d="M0,0 L19,0 L19,2 L11,3 L8,8 L6,8 L6,10 L1,12 L0,11 Z " fill="#A4A2AD" transform="translate(15,0)"/>
<path d="M0,0 L4,1 L10,3 L11,12 L7,11 L8,16 L-1,16 L-2,12 L-1,8 L1,8 L1,11 L3,11 L4,7 L2,7 L3,2 L0,2 Z " fill="#87754E" transform="translate(85,28)"/>
<path d="M0,0 L6,1 L6,3 L4,3 L4,5 L-1,8 L-3,8 L-3,11 L1,11 L-1,15 L-4,20 L-8,20 L-7,9 L-3,7 L-2,2 Z " fill="#1F170F" transform="translate(133,54)"/>
<path d="M0,0 L4,1 L5,9 L4,7 L1,7 L3,17 L-3,15 L-5,12 L-1,12 L0,9 L-4,10 L-11,6 L-10,3 L-4,4 L1,6 L0,2 L-2,1 Z " fill="#716545" transform="translate(100,14)"/>
<path d="M0,0 L6,2 L13,5 L16,5 L14,1 L16,1 L18,4 L26,8 L26,11 L18,10 L18,12 L16,12 L15,9 L11,8 L7,7 L9,9 L5,8 L2,3 L-1,1 Z " fill="#271910" transform="translate(82,0)"/>
<path d="M0,0 L7,5 L7,3 L8,0 L12,2 L13,6 L15,6 L15,8 L17,8 L17,12 L12,11 L8,9 L8,7 L6,7 L10,11 L13,13 L7,15 L6,11 L4,10 L0,2 Z " fill="#96877B" transform="translate(16,43)"/>
<path d="M0,0 L3,1 L3,6 L6,6 L6,10 L4,10 L3,16 L1,16 L0,10 L-2,10 L-3,7 L-8,9 L-7,1 L0,2 Z " fill="#090402" transform="translate(122,39)"/>
<path d="M0,0 L4,1 L4,4 L7,4 L7,2 L10,2 L10,7 L11,8 L11,14 L7,15 L8,9 L5,8 L5,11 L2,11 L1,6 L-1,6 L0,10 L-4,11 L-3,6 L-1,4 Z " fill="#796858" transform="translate(32,22)"/>
<path d="M0,0 L7,0 L3,1 L3,3 L0,3 L0,5 L-2,5 L-2,7 L1,8 L-3,10 L-3,8 L-8,8 L-8,11 L-3,11 L-3,12 L-10,12 L-11,16 L-14,15 L-11,14 L-11,12 L-16,11 L-16,7 L-14,7 L-14,9 L-10,7 L-9,4 L0,2 Z " fill="#2E2219" transform="translate(72,56)"/>
<path d="M0,0 L4,0 L4,3 L8,4 L8,6 L-5,5 L-1,3 L-6,3 L-6,7 L0,8 L-2,10 L-9,11 L-12,9 L-12,6 L-16,5 L-9,5 L-10,2 L-9,1 Z " fill="#5B471A" transform="translate(72,17)"/>
<path d="M0,0 L2,1 L9,1 L11,0 L13,1 L13,4 L8,5 L7,8 L0,9 L0,12 L-2,12 L-2,10 L-6,10 L-6,8 L-4,8 L-4,6 L-2,5 Z " fill="#140D17" transform="translate(25,2)"/>
<path d="M0,0 L1,3 L4,4 L4,6 L6,6 L6,8 L8,8 L6,1 L8,0 L8,2 L12,4 L18,9 L18,10 L10,10 L9,15 L8,11 L3,9 L3,7 L1,7 L-1,2 Z " fill="#493520" transform="translate(28,42)"/>
<path d="M0,0 L1,0 L1,6 L-3,14 L-5,14 L-5,16 L-8,16 L-8,11 L-6,11 L-6,8 L-9,7 L-6,2 Z " fill="#382A1F" transform="translate(138,66)"/>
<path d="M0,0 L4,0 L4,2 L6,3 L4,3 L6,9 L3,9 L2,14 L0,14 L-1,12 L-2,15 L-3,18 L-5,17 L-5,5 L-1,5 Z " fill="#341F0F" transform="translate(107,28)"/>
<path d="M0,0 L16,0 L16,2 L25,2 L26,4 L13,5 L0,4 Z " fill="#200F04" transform="translate(47,0)"/>
<path d="M0,0 L6,2 L7,4 L11,3 L10,8 L9,10 L7,10 L7,13 L2,13 L-2,11 L-1,3 L1,3 L3,8 L5,7 L7,8 L7,6 L2,5 Z " fill="#4D3724" transform="translate(108,44)"/>
<path d="M0,0 L4,0 L4,4 L1,5 L0,12 L-2,13 L-2,8 L-4,9 L-11,9 L-10,6 L-8,6 L-8,4 Z " fill="#898069" transform="translate(26,15)"/>
<path d="M0,0 L5,0 L4,2 L11,0 L11,7 L9,9 L0,9 L4,4 L-3,6 L-3,3 L-1,3 Z " fill="#867661" transform="translate(82,54)"/>
<path d="M0,0 L2,0 L2,4 L4,4 L4,9 L8,10 L8,12 L10,13 L10,15 L3,14 L3,17 L1,17 L-1,12 L-3,11 L0,10 L-1,3 L1,3 Z " fill="#5D4640" transform="translate(112,26)"/>
<path d="M0,0 L7,1 L11,4 L18,6 L19,9 L10,9 L10,7 L1,5 Z " fill="#1C1B1C" transform="translate(9,75)"/>
<path d="M0,0 L3,0 L3,2 L0,4 L-2,9 L-8,13 L-10,21 L-12,21 L-11,11 L-9,8 L-7,8 L-7,3 Z " fill="#63503D" transform="translate(127,59)"/>
<path d="M0,0 L5,0 L6,8 L2,11 L0,14 L-1,13 L-1,8 L2,8 L2,6 L-4,7 L-7,6 L-8,8 L-8,5 L-1,4 Z " fill="#2B191D" transform="translate(33,6)"/>
<path d="M0,0 L16,0 L16,3 L21,4 L27,7 L26,10 L15,4 L14,1 L12,1 L15,6 L10,5 L4,3 Z " fill="#62564A" transform="translate(84,0)"/>
<path d="M0,0 L3,0 L3,4 L7,3 L7,5 L9,6 L6,7 L6,9 L-1,9 L-1,11 L-7,11 L-7,9 L-4,9 L-4,7 L-2,7 L-1,3 Z " fill="#B89981" transform="translate(137,73)"/>
<path d="M0,0 L2,0 L3,7 L1,7 L-1,11 L-3,18 L-5,18 L-5,20 L-11,22 L-11,20 L-9,19 L-7,14 L-8,12 L-5,12 L-3,8 L0,8 L-1,2 Z " fill="#321C16" transform="translate(120,49)"/>
<path d="M0,0 L17,0 L17,2 L20,3 L17,3 L18,5 L22,7 L11,7 L13,6 L13,4 L3,3 Z " fill="#786D71" transform="translate(122,0)"/>
<path d="M0,0 L5,0 L5,8 L8,8 L8,10 L6,10 L6,12 L-1,12 L-1,3 Z " fill="#1D1312" transform="translate(118,72)"/>
<path d="M0,0 L9,2 L9,0 L16,1 L16,3 L22,4 L19,7 L12,6 L2,4 Z " fill="#9C8974" transform="translate(12,61)"/>
<path d="M0,0 L3,1 L2,3 L5,5 L4,8 L0,8 L0,10 L3,10 L3,12 L-3,12 L-3,10 L-8,10 L-5,7 L-2,8 L-1,4 L-11,5 L-8,3 Z " fill="#A59B95" transform="translate(105,72)"/>
<path d="M0,0 L3,1 L1,2 L1,5 L6,6 L6,13 L4,19 L1,16 L-1,5 L-3,4 L-1,3 Z " fill="#210D0A" transform="translate(140,25)"/>
<path d="M0,0 L4,1 L0,6 L-1,11 L-3,11 L-4,18 L-6,20 L-10,20 L-10,18 L-8,17 L-13,16 L-10,14 L-6,13 L-6,11 L-4,11 L-3,4 Z " fill="#D0BCAF" transform="translate(121,56)"/>
<path d="M0,0 L2,0 L1,4 L-5,5 L-5,7 L-10,9 L-16,6 L-16,4 L-13,4 L-13,2 L-4,1 Z " fill="#2C1A0B" transform="translate(96,48)"/>
<path d="M0,0 L24,2 L25,5 L14,5 L14,2 L11,2 L11,4 L1,4 L-1,3 Z " fill="#A58F82" transform="translate(49,7)"/>
<path d="M0,0 L9,1 L9,3 L17,4 L18,8 L16,7 L16,5 L11,7 L3,8 L1,6 Z " fill="#927E65" transform="translate(37,51)"/>
<path d="M0,0 L4,1 L4,14 L2,14 L2,10 L-4,9 L-6,3 L-2,4 L-1,7 L1,7 L1,4 L-1,4 Z " fill="#C0B5B7" transform="translate(11,35)"/>
<path d="M0,0 L3,0 L3,3 L15,3 L14,6 L-9,6 L-9,5 L-2,5 L-2,3 L-5,2 L0,2 Z " fill="#5E483E" transform="translate(60,9)"/>
<path d="M0,0 L5,0 L5,14 L1,14 L0,6 L-3,5 L-1,4 Z " fill="#060102" transform="translate(10,0)"/>
<path d="M0,0 L5,0 L8,3 L6,4 L12,5 L12,7 L8,7 L8,9 L13,9 L12,11 L3,11 L4,5 L0,6 Z " fill="#9D8C6A" transform="translate(56,46)"/>
<path d="M0,0 L6,2 L6,7 L13,8 L13,10 L10,10 L9,12 L8,10 L4,10 L5,12 L-3,10 L-3,7 L2,7 L4,3 L0,2 Z " fill="#867868" transform="translate(42,65)"/>
<path d="M0,0 L2,0 L2,2 L0,3 L4,4 L3,7 L5,9 L1,10 L4,12 L4,14 L-1,15 L-2,14 L-3,7 L-4,3 L-2,3 L-2,1 Z " fill="#473A19" transform="translate(45,23)"/>
<path d="M0,0 L2,0 L1,4 L-1,4 L-1,7 L-3,7 L-3,13 L-5,16 L-7,16 L-6,8 L-8,7 L-8,3 Z " fill="#211A0D" transform="translate(22,23)"/>
<path d="M0,0 L5,2 L10,7 L11,12 L13,12 L13,14 L10,15 L10,11 L8,11 L7,15 L7,12 L5,12 L5,7 L3,7 Z " fill="#4E3528" transform="translate(116,12)"/>
<path d="M0,0 L4,0 L4,2 L6,2 L6,4 L8,5 L7,8 L-3,6 L-5,1 Z " fill="#9B9DAF" transform="translate(7,63)"/>
<path d="M0,0 L5,0 L9,1 L9,3 L11,3 L11,5 L-3,5 L-11,4 L-11,2 L1,2 Z " fill="#54432E" transform="translate(45,74)"/>
<path d="M0,0 L12,3 L17,5 L22,6 L23,10 L13,7 L10,7 L5,6 L4,4 L-1,3 Z " fill="#30251F" transform="translate(15,64)"/>
<path d="M0,0 L5,1 L5,3 L3,3 L3,5 L1,5 L2,10 L-2,15 L-6,14 L-4,13 L-3,5 L-1,4 Z " fill="#C6B9B0" transform="translate(12,15)"/>
<path d="M0,0 L3,1 L3,3 L5,3 L6,7 L5,10 L3,10 L4,13 L2,14 L-1,11 L1,11 L1,9 L-1,9 L-3,4 L-4,1 L-2,1 L3,6 L0,3 Z " fill="#BEACB4" transform="translate(128,15)"/>
<path d="M0,0 L10,0 L9,3 L6,3 L5,6 L-3,7 L-3,10 L-7,11 L-7,9 L-9,8 L-9,6 L2,4 L3,2 L-2,2 Z " fill="#362D28" transform="translate(65,69)"/>
<path d="M0,0 L1,0 L1,9 L-1,11 L-4,11 L-3,6 L-7,4 L-6,2 L-8,1 Z " fill="#20110E" transform="translate(149,61)"/>
<path d="M0,0 L2,0 L2,2 L7,3 L8,6 L11,5 L11,8 L20,10 L20,11 L12,11 L6,8 L4,8 L0,2 Z " fill="#3B291C" transform="translate(9,50)"/>
<path d="M0,0 L3,0 L3,2 L8,3 L8,5 L12,7 L10,8 L4,6 L-1,4 L-2,7 L-5,6 L-4,2 L-1,2 Z " fill="#A89376" transform="translate(85,24)"/>
<path d="M0,0 L2,0 L2,2 L6,3 L13,5 L12,12 L1,9 L3,7 L6,6 L0,2 Z " fill="#7D715D" transform="translate(22,50)"/>
<path d="M0,0 L3,1 L4,6 L2,6 L3,12 L-1,14 L-2,16 L-7,16 L-5,12 L-2,12 L-2,9 L0,9 L1,3 L-2,4 Z " fill="#9C8371" transform="translate(117,45)"/>
<path d="M0,0 L2,4 L3,8 L5,4 L5,10 L3,10 L3,12 L1,12 L1,10 L-3,11 L-3,4 L-5,4 L-4,2 L-1,3 Z " fill="#72726C" transform="translate(138,41)"/>
<path d="M0,0 L4,1 L2,13 L-2,14 L-3,6 L-1,6 Z " fill="#0C0505" transform="translate(145,38)"/>
<path d="M0,0 L12,0 L10,1 L10,3 L5,3 L1,5 L-7,5 L-7,3 Z " fill="#AE9A93" transform="translate(75,72)"/>
<path d="M0,0 L3,3 L9,2 L14,4 L14,7 L10,7 L9,10 L5,7 L-1,4 Z " fill="#8D8B8C" transform="translate(18,67)"/>
<path d="M0,0 L5,1 L5,3 L8,4 L2,5 L2,7 L-3,8 L-8,7 L-8,4 L-3,4 L-2,3 L-2,1 Z " fill="#4E4648" transform="translate(72,60)"/>
<path d="M0,0 L7,1 L8,3 L9,0 L12,0 L12,2 L14,3 L11,3 L11,6 L14,7 L7,6 L-2,3 L-2,1 Z " fill="#826C4E" transform="translate(48,51)"/>
<path d="M0,0 L2,3 L2,10 L-1,10 L-7,7 L-6,4 L-3,4 L-3,2 Z " fill="#BCA896" transform="translate(7,8)"/>
<path d="M0,0 L10,5 L10,9 L12,9 L13,11 L16,12 L16,14 L12,14 L10,11 L3,9 L5,8 L9,9 L9,7 L3,6 L3,4 L0,3 Z " fill="#7E6D70" transform="translate(16,70)"/>
<path d="M0,0 L4,2 L3,8 L2,10 L0,10 L1,4 L-1,4 L-1,9 L-8,8 L-7,5 L-3,7 L-2,2 Z " fill="#AE9C7B" transform="translate(99,33)"/>
<path d="M0,0 L8,0 L8,2 L14,3 L14,6 L16,7 L11,8 L12,5 L7,6 L6,3 L1,2 Z " fill="#7D6C44" transform="translate(61,29)"/>
<path d="M0,0 L3,1 L5,5 L6,8 L4,9 L2,14 L0,13 L-3,9 L-1,7 Z " fill="#392612" transform="translate(99,45)"/>
<path d="M0,0 L13,0 L12,5 L8,6 L2,5 L3,1 Z " fill="#3B311D" transform="translate(60,34)"/>
<path d="M0,0 L12,0 L12,2 L3,3 L3,6 L-6,6 L-3,2 L0,2 Z " fill="#2E180C" transform="translate(60,16)"/>
<path d="M0,0 L19,0 L23,4 L21,5 L19,4 L19,6 L14,5 L15,3 L17,4 L17,2 L0,2 Z " fill="#92826E" transform="translate(63,0)"/>
<path d="M0,0 L4,1 L3,4 L-2,7 L-9,3 L-9,1 Z " fill="#66484A" transform="translate(76,76)"/>
<path d="M0,0 L1,3 L2,4 L3,7 L6,8 L8,6 L8,11 L2,11 L-4,6 L-2,1 Z " fill="#A59481" transform="translate(8,25)"/>
<path d="M0,0 L6,2 L9,5 L9,7 L2,5 L-2,5 L-3,7 L-1,8 L-4,8 L-4,4 L-6,3 Z " fill="#5D4A30" transform="translate(92,13)"/>
<path d="M0,0 L11,0 L11,5 L0,5 Z " fill="#1A131A" transform="translate(139,0)"/>
<path d="M0,0 L9,3 L7,6 L4,4 L5,6 L9,7 L10,12 L4,12 L2,6 L2,3 L0,2 Z " fill="#67544C" transform="translate(44,60)"/>
<path d="M0,0 L2,0 L2,2 L5,1 L10,4 L10,7 L1,5 L3,8 L2,11 L2,9 L0,9 L0,7 L-3,7 L-3,5 L1,3 Z " fill="#96817B" transform="translate(11,56)"/>
<path d="M0,0 L4,1 L4,8 L6,9 L-3,8 L-3,2 Z " fill="#715C40" transform="translate(78,37)"/>
<path d="M0,0 L3,0 L3,6 L5,10 L3,14 L1,14 L1,11 L-2,11 L-3,8 L-1,8 Z " fill="#180201" transform="translate(136,15)"/>
<path d="M0,0 L2,0 L2,2 L4,2 L4,0 L10,0 L9,4 L3,5 L1,9 L-3,8 L0,8 L0,6 L2,6 L2,4 L-2,3 L0,2 Z " fill="#1F0F0D" transform="translate(137,51)"/>
<path d="M0,0 L1,3 L5,4 L4,8 L6,8 L5,15 L1,16 L2,8 L-1,1 Z " fill="#110E0B" transform="translate(129,37)"/>
<path d="M0,0 L2,0 L2,5 L5,4 L5,7 L8,8 L4,8 L4,6 L1,6 L0,9 L-5,10 L-8,8 L-8,6 L-2,5 Z " fill="#6F5D3E" transform="translate(84,18)"/>
<path d="M0,0 L5,0 L9,1 L11,1 L11,3 L7,4 L9,5 L9,9 L7,9 L7,6 L1,5 L1,3 L-2,2 Z " fill="#B6A47F" transform="translate(68,26)"/>
<path d="M0,0 L4,2 L7,4 L8,10 L3,8 L-3,4 L-3,2 L0,2 Z " fill="#9EA3A4" transform="translate(126,5)"/>
<path d="M0,0 L2,1 L9,1 L11,0 L13,1 L13,4 L4,6 L0,6 Z " fill="#070203" transform="translate(25,2)"/>
<path d="M0,0 L5,0 L5,2 L11,4 L11,6 L14,7 L14,9 L17,10 L12,10 L11,8 L4,4 L0,3 Z " fill="#3D2416" transform="translate(100,0)"/>
<path d="M0,0 L11,0 L10,3 L5,4 L4,6 L4,3 L0,4 L-7,4 L-4,2 L0,2 Z " fill="#402C2A" transform="translate(34,0)"/>
<path d="M0,0 L3,1 L1,2 L0,17 L-3,17 L-4,10 L-2,10 L-2,4 L0,4 Z " fill="#130906" transform="translate(28,20)"/>
<path d="M0,0 L2,0 L2,4 L9,4 L8,6 L-2,8 L-2,6 L-4,6 L-4,3 L-1,2 Z " fill="#A3928C" transform="translate(45,0)"/>
<path d="M0,0 L8,0 L9,5 L0,5 Z " fill="#92BBA3" transform="translate(0,79)"/>
<path d="M0,0 L2,0 L2,12 L0,12 L0,15 L-2,15 L-3,9 Z " fill="#C6AF9F" transform="translate(148,46)"/>
<path d="M0,0 L12,0 L11,4 L3,4 L0,3 Z " fill="#9C8867" transform="translate(76,46)"/>
<path d="M0,0 L2,0 L2,2 L7,2 L8,4 L-1,4 L-1,7 L-6,7 L-5,3 Z " fill="#1C1010" transform="translate(86,77)"/>
<path d="M0,0 L5,0 L4,2 L0,4 L-3,6 L-11,6 L-14,7 L-14,4 L-2,3 L-2,1 Z " fill="#231916" transform="translate(76,64)"/>
<path d="M0,0 L1,4 L4,3 L5,8 L7,8 L8,5 L8,8 L11,9 L11,13 L8,13 L7,11 L5,11 L3,6 L0,6 Z " fill="#776458" transform="translate(12,45)"/>
<path d="M0,0 L1,3 L-1,6 L2,9 L-2,11 L-5,11 L-5,5 L-7,4 L-1,3 Z " fill="#7C6853" transform="translate(98,49)"/>
<path d="M0,0 L2,0 L2,3 L7,3 L9,8 L0,8 L-1,4 Z " fill="#604E2D" transform="translate(84,36)"/>
<path d="M0,0 L3,2 L3,5 L1,5 L1,10 L-1,7 L-2,14 L-5,13 L-4,5 L-2,5 L-2,2 L0,2 Z " fill="#483B31" transform="translate(23,25)"/>
<path d="M0,0 L4,0 L4,3 L8,4 L8,6 L-5,5 L-1,3 L-9,2 L-9,1 Z " fill="#4B371D" transform="translate(72,17)"/>
<path d="M0,0 L10,0 L10,6 L3,4 L0,2 Z " fill="#3F4E4D" transform="translate(140,9)"/>
<path d="M0,0 L12,0 L14,2 L12,3 L8,2 L8,4 L0,4 Z " fill="#5A4533" transform="translate(47,0)"/>
<path d="M0,0 L7,1 L8,5 L7,3 L5,3 L6,7 L0,7 Z " fill="#796642" transform="translate(48,41)"/>
<path d="M0,0 L5,1 L5,6 L2,6 L3,11 L1,11 L1,9 L-2,8 L0,8 Z " fill="#83715A" transform="translate(55,31)"/>
<path d="M0,0 L1,4 L3,4 L3,10 L2,8 L-2,7 L-3,7 L-6,7 L-7,10 L-7,5 L-5,5 L-4,2 L0,3 Z " fill="#647972" transform="translate(132,33)"/>
<path d="M0,0 L5,1 L5,5 L2,5 L2,7 L0,7 L-1,10 L-3,4 L-5,3 L-5,1 L-2,1 L-2,3 L0,3 Z " fill="#44392E" transform="translate(58,39)"/>
<path d="M0,0 L10,0 L10,4 L0,4 L-1,6 L-2,2 Z " fill="#221F26" transform="translate(140,5)"/>
<path d="M0,0 L2,0 L2,2 L6,1 L8,2 L8,4 L13,4 L13,5 L6,5 L5,9 L2,8 L5,7 L5,5 L0,4 Z " fill="#4B4034" transform="translate(56,63)"/>
<path d="M0,0 L7,1 L6,6 L1,7 L-1,8 Z " fill="#2C1B13" transform="translate(115,40)"/>
<path d="M0,0 L6,2 L9,2 L11,5 L7,6 L3,4 L3,8 L0,8 Z " fill="#7C7373" transform="translate(0,15)"/>
<path d="M0,0 L10,0 L10,2 L2,3 L-1,8 L-3,8 L-2,3 Z " fill="#5F5B64" transform="translate(24,0)"/>
<path d="M0,0 L4,2 L5,5 L4,7 L-2,7 L-2,1 Z " fill="#947875" transform="translate(2,55)"/>
<path d="M0,0 L2,0 L4,3 L4,6 L9,7 L9,9 L5,10 L3,7 L3,4 L-4,8 L-3,4 L-1,4 Z " fill="#8D7763" transform="translate(106,43)"/>
<path d="M0,0 L7,1 L7,3 L9,3 L10,9 L8,9 L8,6 L1,5 Z " fill="#2E211B" transform="translate(127,27)"/>
<path d="M0,0 L16,0 L16,2 L3,3 Z " fill="#B4B3B4" transform="translate(50,80)"/>
<path d="M0,0 L4,1 L5,5 L1,7 L0,10 L-3,9 L-1,9 L-1,7 L-4,6 L-1,5 Z " fill="#7B5D55" transform="translate(80,74)"/>
<path d="M0,0 L4,1 L4,2 L11,2 L13,4 L8,5 L8,6 L3,6 L3,4 L0,4 Z " fill="#2D1D1D" transform="translate(29,78)"/>
<path d="M0,0 L1,2 L4,3 L3,6 L-1,5 L0,7 L3,9 L-2,11 L-4,4 Z " fill="#7E6767" transform="translate(43,60)"/>
<path d="M0,0 L3,1 L2,3 L5,4 L3,8 L-4,8 Z " fill="#A18C6E" transform="translate(56,24)"/>
<path d="M0,0 L7,1 L9,5 L0,5 L0,3 L-3,2 L0,2 Z " fill="#3C2A21" transform="translate(19,79)"/>
<path d="M0,0 L2,0 L1,4 L3,4 L3,9 L0,8 L0,5 L-2,5 L-3,10 L-5,11 L-4,4 L-2,4 L-2,2 L0,2 Z " fill="#C5B391" transform="translate(86,31)"/>
<path d="M0,0 L5,5 L1,6 L1,11 L-2,12 L-2,4 L1,4 Z " fill="#4A3928" transform="translate(106,22)"/>
<path d="M0,0 L4,2 L4,5 L8,6 L9,11 L7,11 L7,7 L6,10 L4,10 L1,5 Z " fill="#9F8F7E" transform="translate(107,19)"/>
<path d="M0,0 L2,0 L4,3 L12,7 L12,10 L8,9 L8,7 L1,6 L1,3 Z " fill="#402C1A" transform="translate(96,1)"/>
<path d="M0,0 L15,0 L14,3 L4,3 L0,2 Z " fill="#8A7661" transform="translate(60,4)"/>
<path d="M0,0 L1,3 L0,6 L-2,6 L-2,8 L-8,10 L-8,8 L-6,7 L-4,2 Z " fill="#422F32" transform="translate(117,61)"/>
<path d="M0,0 L6,1 L6,3 L4,3 L4,5 L-2,7 L-3,3 Z " fill="#080100" transform="translate(133,54)"/>
<path d="M0,0 L3,0 L3,6 L2,8 L-2,7 L-5,3 Z " fill="#2D1F1D" transform="translate(73,37)"/>
<path d="M0,0 L1,2 L4,2 L4,6 L6,6 L7,12 L4,11 L3,6 L1,6 L1,4 L-2,3 L-2,1 Z " fill="#C8B6AA" transform="translate(133,24)"/>
<path d="M0,0 L7,1 L6,6 L4,6 L5,8 L0,7 L-1,4 Z " fill="#635645" transform="translate(93,22)"/>
<path d="M0,0 L5,2 L11,6 L11,10 L6,9 L4,3 L1,3 Z " fill="#413227" transform="translate(105,15)"/>
<path d="M0,0 L23,0 L23,2 L9,2 L2,3 L0,2 Z " fill="#836E59" transform="translate(51,15)"/>
<path d="M0,0 L6,0 L6,2 L8,2 L12,6 L12,8 L8,7 L6,6 L6,4 L0,2 Z " fill="#8C7268" transform="translate(105,0)"/>
<path d="M0,0 L4,0 L4,4 L6,5 L6,8 L3,7 L3,6 L-4,5 L-2,4 L-2,1 Z " fill="#5F535E" transform="translate(64,75)"/>
<path d="M0,0 L3,0 L3,2 L9,4 L5,6 L-5,5 Z " fill="#413329" transform="translate(94,69)"/>
<path d="M0,0 L4,0 L2,4 L0,8 L-3,8 L-3,1 Z " fill="#050503" transform="translate(130,65)"/>
<path d="M0,0 L6,0 L6,1 L1,1 L1,4 L8,5 L8,7 L4,7 L4,10 L0,10 L0,7 L3,7 L3,5 L0,5 Z " fill="#81704F" transform="translate(75,45)"/>
<path d="M0,0 L5,0 L5,7 L3,7 L3,9 L1,9 Z " fill="#AC9678" transform="translate(50,32)"/>
<path d="M0,0 L7,0 L9,2 L9,5 L3,5 L2,2 L0,2 Z " fill="#110909" transform="translate(111,0)"/>
<path d="M0,0 L4,0 L8,1 L9,5 L8,7 L4,6 L5,3 L0,2 Z " fill="#CEC3B0" transform="translate(48,64)"/>
<path d="M0,0 L2,0 L3,6 L5,6 L5,3 L7,3 L6,7 L1,7 L-3,5 L-1,5 L-3,1 Z " fill="#74554A" transform="translate(143,55)"/>
<path d="M0,0 L2,0 L2,7 L-2,8 L-4,4 Z " fill="#B4A48F" transform="translate(91,54)"/>
<path d="M0,0 L1,0 L1,5 L-5,7 L-7,8 L-8,4 L-7,2 L-2,1 L-1,2 Z " fill="#877553" transform="translate(103,28)"/>
<path d="M0,0 L4,1 L4,4 L1,4 L1,6 L-1,6 L0,10 L-4,11 L-3,6 L-1,4 Z " fill="#8F7F77" transform="translate(32,22)"/>
<path d="M0,0 L2,0 L2,2 L6,3 L6,5 L4,7 L3,11 L2,13 L-1,12 L1,12 L0,9 L2,9 Z " fill="#684F51" transform="translate(133,10)"/>
<path d="M0,0 L2,1 L2,6 L-2,9 L-4,12 L-5,11 L-5,6 L-1,6 Z " fill="#291317" transform="translate(37,8)"/>
<path d="M0,0 L7,0 L7,4 L2,6 L0,7 Z " fill="#210F07" transform="translate(0,0)"/>
<path d="M0,0 L8,0 L8,4 L-1,3 Z " fill="#1B0F0A" transform="translate(97,69)"/>
<path d="M0,0 L3,0 L5,3 L7,4 L5,6 L-4,5 L-3,2 Z " fill="#706056" transform="translate(32,64)"/>
<path d="M0,0 L4,0 L8,4 L8,6 L2,7 L1,4 L-2,2 Z " fill="#C0AB9B" transform="translate(49,56)"/>
<path d="M0,0 L1,0 L3,8 L2,14 L0,13 L-1,5 L-4,4 L-1,3 Z " fill="#A09482" transform="translate(140,36)"/>
<path d="M0,0 L2,0 L2,2 L5,1 L4,5 L2,5 L1,8 L-2,7 L-3,4 L-1,3 Z " fill="#0F0404" transform="translate(4,21)"/>
<path d="M0,0 L5,0 L4,4 L-7,4 L-7,2 L0,2 Z " fill="#1D1824" transform="translate(143,80)"/>
<path d="M0,0 L5,0 L8,3 L8,5 L0,5 Z " fill="#040109" transform="translate(0,71)"/>
<path d="M0,0 L6,2 L10,5 L6,7 L2,5 L0,5 Z " fill="#4B3628" transform="translate(0,51)"/>
<path d="M0,0 L3,0 L3,2 L1,2 L1,5 L-3,5 L-4,8 L-4,6 L-6,6 L-6,2 L0,2 Z " fill="#B9A99B" transform="translate(39,24)"/>
<path d="M0,0 L6,1 L8,2 L7,4 L5,3 L5,5 L8,6 L6,7 L-1,3 Z " fill="#C1B49C" transform="translate(90,17)"/>
<path d="M0,0 L3,1 L3,4 L5,4 L4,8 L0,7 L-1,2 Z " fill="#050201" transform="translate(139,16)"/>
<path d="M0,0 L8,4 L9,8 L5,7 L4,5 L-1,3 L-2,1 Z " fill="#49484C" transform="translate(126,11)"/>
<path d="M0,0 L1,3 L-2,3 L-2,7 L0,8 L-5,9 L-6,3 Z " fill="#B09C7B" transform="translate(50,38)"/>
<path d="M0,0 L4,0 L4,4 L-1,7 L-3,7 L-4,3 L-1,3 Z " fill="#B4AB9F" transform="translate(26,15)"/>
<path d="M0,0 L9,0 L9,2 L6,2 L4,6 L4,3 L-2,5 L-3,2 L0,2 Z " fill="#645558" transform="translate(26,12)"/>
<path d="M0,0 L1,0 L1,14 L-3,14 L-4,10 L-2,9 Z " fill="#241A1C" transform="translate(14,0)"/>
<path d="M0,0 L6,1 L5,6 L1,6 L1,4 L-2,4 L-2,2 L0,2 Z " fill="#343B3F" transform="translate(107,78)"/>
<path d="M0,0 L3,1 L2,6 L0,6 L0,8 L-3,8 L-3,3 Z " fill="#171313" transform="translate(133,74)"/>
<path d="M0,0 L8,1 L6,2 L6,6 L1,7 L2,4 Z " fill="#4F432F" transform="translate(60,44)"/>
<path d="M0,0 L5,0 L7,6 L3,5 L2,7 L0,3 Z " fill="#92806C" transform="translate(91,41)"/>
<path d="M0,0 L2,0 L2,2 L5,2 L6,9 L3,8 L3,6 L0,5 Z " fill="#90746C" transform="translate(116,30)"/>
<path d="M0,0 L9,0 L7,2 L8,6 L2,5 L2,1 Z " fill="#83704D" transform="translate(64,19)"/>
<path d="M0,0 L5,2 L7,8 L0,6 L0,4 L2,4 L2,2 L0,2 Z " fill="#E7DCCF" transform="translate(112,14)"/>
<path d="M0,0 L7,1 L7,5 L0,5 Z " fill="#12201B" transform="translate(143,15)"/>
<path d="M0,0 L6,2 L4,3 L4,5 L6,5 L6,7 L3,8 L0,5 L-1,1 Z " fill="#C0AE97" transform="translate(108,11)"/>
<path d="M0,0 L7,0 L8,4 L10,5 L6,4 L2,2 L3,6 L-1,4 Z " fill="#6A5444" transform="translate(115,11)"/>
<path d="M0,0 L6,2 L8,7 L4,8 L2,7 L1,2 Z " fill="#644D3B" transform="translate(87,5)"/>
<path d="M0,0 L6,0 L9,2 L9,4 L11,5 L9,5 L9,7 L0,7 L0,6 L8,6 L8,4 L5,3 L5,1 L0,1 Z " fill="#434659" transform="translate(0,70)"/>
<path d="M0,0 L6,0 L5,2 L3,2 L3,4 L5,5 L5,7 L2,7 L1,5 L-2,3 Z " fill="#6C595A" transform="translate(108,72)"/>
<path d="M0,0 L3,0 L2,5 L5,5 L5,9 L-1,8 L-1,5 L1,5 Z " fill="#2A130B" transform="translate(143,67)"/>
<path d="M0,0 L5,0 L2,4 L-1,4 L-2,6 L-5,5 L-5,2 Z " fill="#050101" transform="translate(110,62)"/>
<path d="M0,0 L3,1 L3,4 L-1,7 L-7,6 L-5,4 L-1,4 Z " fill="#584C44" transform="translate(109,57)"/>
<path d="M0,0 L2,0 L1,8 L-4,9 L-3,5 Z " fill="#231303" transform="translate(106,48)"/>
<path d="M0,0 L2,0 L2,5 L1,6 L3,7 L3,9 L-1,8 L-4,7 L-3,4 L0,4 Z " fill="#C0AD9B" transform="translate(6,45)"/>
<path d="M0,0 L2,2 L7,2 L7,4 L5,4 L6,7 L-1,7 Z " fill="#8A7653" transform="translate(77,31)"/>
<path d="M0,0 L5,1 L5,3 L8,3 L8,5 L2,5 L2,3 L-3,3 Z " fill="#99A0A5" transform="translate(100,79)"/>
<path d="M0,0 L3,2 L4,1 L9,2 L13,1 L13,3 L11,4 L0,4 Z " fill="#9A8388" transform="translate(66,80)"/>
<path d="M0,0 L5,0 L5,3 L3,3 L4,7 L1,8 L1,4 L-1,3 Z " fill="#876B4D" transform="translate(139,69)"/>
<path d="M0,0 L1,2 L7,3 L4,6 L-3,5 L-3,2 L0,2 Z " fill="#9C8879" transform="translate(27,62)"/>
<path d="M0,0 L2,0 L3,5 L6,5 L7,3 L7,7 L2,9 L2,5 L0,4 L-1,2 Z " fill="#4A341C" transform="translate(31,28)"/>
<path d="M0,0 L5,1 L1,3 L6,5 L6,7 L-1,7 L-1,1 Z " fill="#897B53" transform="translate(61,27)"/>
<path d="M0,0 L9,1 L10,3 L1,4 L-1,3 Z " fill="#B8A591" transform="translate(49,7)"/>
<path d="M0,0 L2,0 L2,7 L0,7 L0,9 L-3,9 L-3,7 L-1,7 L-2,3 Z " fill="#7A7D8F" transform="translate(127,75)"/>
<path d="M0,0 L11,0 L14,3 L0,2 Z " fill="#2D1C15" transform="translate(34,76)"/>
<path d="M0,0 L5,4 L9,6 L10,9 L8,10 L5,7 L-1,4 Z " fill="#A4A9AB" transform="translate(18,67)"/>
<path d="M0,0 L7,1 L7,2 L2,2 L4,7 L0,7 Z " fill="#575060" transform="translate(0,62)"/>
<path d="M0,0 L2,0 L3,8 L-3,6 L-5,3 L-1,3 Z " fill="#BFAF94" transform="translate(100,23)"/>
<path d="M0,0 L5,0 L3,5 L1,5 L1,3 L-6,4 L-5,2 Z " fill="#40332A" transform="translate(100,75)"/>
<path d="M0,0 L4,0 L3,2 L-2,5 L-6,5 L-6,2 Z " fill="#7C7168" transform="translate(101,63)"/>
<path d="M0,0 L2,0 L6,4 L9,6 L3,8 L2,4 L0,3 Z " fill="#B4A797" transform="translate(20,50)"/>
<path d="M0,0 L4,1 L4,11 L3,11 L3,5 L-1,4 Z " fill="#9F9594" transform="translate(11,35)"/>
<path d="M0,0 L1,3 L-1,5 L1,6 L2,10 L-2,8 L-4,4 Z " fill="#634F40" transform="translate(8,25)"/>
<path d="M0,0 L5,0 L5,3 L-5,3 L-7,1 Z " fill="#685459" transform="translate(42,81)"/>
<path d="M0,0 L8,0 L14,2 L13,4 L6,3 L0,1 Z " fill="#B09B91" transform="translate(34,78)"/>
<path d="M0,0 L9,4 L9,6 L3,6 L3,4 L0,3 Z " fill="#5D5347" transform="translate(16,70)"/>
<path d="M0,0 L4,2 L7,1 L5,5 L3,5 L4,9 L0,9 L0,7 L2,7 Z " fill="#493A2E" transform="translate(36,59)"/>
<path d="M0,0 L10,2 L11,6 L9,5 L9,3 L3,5 L0,3 Z " fill="#9B826A" transform="translate(44,53)"/>
<path d="M0,0 L4,1 L4,3 L7,4 L7,8 L5,8 L5,6 L3,6 L0,3 Z " fill="#B6A28A" transform="translate(29,42)"/>
<path d="M0,0 L3,1 L1,9 L-2,6 L-2,1 Z " fill="#4F3B2B" transform="translate(143,35)"/>
<path d="M0,0 L2,0 L2,4 L4,5 L3,9 L0,10 L-1,3 L1,3 Z " fill="#523D2A" transform="translate(112,26)"/>
<path d="M0,0 L2,0 L5,11 L1,10 Z " fill="#190803" transform="translate(124,23)"/>
<path d="M0,0 L4,0 L2,5 L0,7 L-4,6 L-2,5 Z " fill="#C7BAAA" transform="translate(10,23)"/>
<path d="M0,0 L8,0 L8,6 L5,5 L5,2 L0,2 Z " fill="#877254" transform="translate(100,10)"/>
<path d="M0,0 L7,1 L7,5 L1,3 Z " fill="#301F29" transform="translate(67,77)"/>
<path d="M0,0 L5,4 L5,9 L2,9 Z " fill="#1F150F" transform="translate(33,57)"/>
<path d="M0,0 L2,0 L5,7 L4,8 L-1,8 Z " fill="#634F3C" transform="translate(107,47)"/>
<path d="M0,0 L6,1 L6,3 L0,4 L-2,3 L-2,1 Z " fill="#563E25" transform="translate(48,51)"/>
<path d="M0,0 L3,4 L4,7 L2,8 L0,13 L-2,12 Z " fill="#49341D" transform="translate(101,46)"/>
<path d="M0,0 L3,1 L3,3 L1,3 L1,10 L-1,10 L-1,1 Z " fill="#E1CFD8" transform="translate(1,38)"/>
<path d="M0,0 L2,0 L2,3 L5,4 L3,4 L2,7 L-2,5 Z " fill="#45392D" transform="translate(12,27)"/>
<path d="M0,0 L4,1 L4,5 L-6,4 L-6,3 L1,3 Z " fill="#67532F" transform="translate(62,19)"/>
<path d="M0,0 L2,0 L3,5 L-1,6 L-5,4 L0,3 Z " fill="#362510" transform="translate(47,13)"/>
<path d="M0,0 L4,1 L2,6 L-2,6 L-2,2 Z " fill="#79644F" transform="translate(80,6)"/>
<path d="M0,0 L8,1 L6,2 L8,6 L2,5 L2,2 L0,2 Z " fill="#514F55" transform="translate(120,3)"/>
<path d="M0,0 L2,0 L2,2 L4,3 L1,4 L1,6 L-2,6 L-2,1 Z " fill="#CCB8B5" transform="translate(142,76)"/>
<path d="M0,0 L4,2 L3,4 L-5,4 L-5,2 Z " fill="#968388" transform="translate(73,73)"/>
<path d="M0,0 L3,1 L2,3 L0,3 L0,5 L-5,4 L-5,2 Z " fill="#877A6D" transform="translate(135,68)"/>
<path d="M0,0 L2,0 L1,4 L0,6 L-5,6 L-3,2 L0,2 Z " fill="#C1AAAC" transform="translate(115,55)"/>
<path d="M0,0 L3,1 L1,6 L0,4 L-5,4 L-5,2 Z " fill="#332116" transform="translate(107,55)"/>
<path d="M0,0 L7,0 L3,1 L3,3 L0,4 L-7,4 L-3,2 L0,2 Z " fill="#473A1D" transform="translate(72,56)"/>
<path d="M0,0 L1,4 L-2,5 L-8,3 L-6,1 Z " fill="#7F725B" transform="translate(31,56)"/>
<path d="M0,0 L5,2 L6,5 L1,6 L0,5 Z " fill="#5D482A" transform="translate(43,32)"/>
<path d="M0,0 L4,1 L7,4 L6,9 L3,5 L3,2 L0,2 Z " fill="#58441E" transform="translate(85,28)"/>
<path d="M0,0 L5,1 L5,3 L3,3 L4,6 L2,7 L-1,4 L1,4 Z " fill="#DAC6C7" transform="translate(128,22)"/>
<path d="M0,0 L5,1 L6,7 L3,6 L3,4 L1,4 Z " fill="#DBCBB6" transform="translate(118,24)"/>
<path d="M0,0 L5,0 L2,4 L8,4 L4,6 L0,7 Z " fill="#6C6350" transform="translate(13,20)"/>
<path d="M0,0 L3,1 L5,2 L9,3 L6,5 L1,4 Z " fill="#6B6253" transform="translate(92,76)"/>
<path d="M0,0 L10,0 L9,3 L3,4 L3,2 L-2,2 Z " fill="#403633" transform="translate(65,69)"/>
<path d="M0,0 L7,1 L10,3 L4,4 L0,2 Z " fill="#A1897D" transform="translate(43,58)"/>
<path d="M0,0 L3,1 L1,1 L1,3 L3,4 L-2,6 L-5,4 L-5,2 L0,2 Z " fill="#614F2D" transform="translate(88,51)"/>
<path d="M0,0 L3,0 L3,3 L6,3 L5,5 L0,6 L-1,1 Z " fill="#6E5E41" transform="translate(72,47)"/>
<path d="M0,0 L6,2 L7,6 L2,5 Z " fill="#65503C" transform="translate(108,44)"/>
<path d="M0,0 L2,1 L3,7 L1,11 L-3,10 L0,10 Z " fill="#33241E" transform="translate(21,31)"/>
<path d="M0,0 L2,0 L2,7 L-1,7 L-2,1 Z " fill="#301A06" transform="translate(31,34)"/>
<path d="M0,0 L4,2 L1,3 L0,8 L-2,8 L-2,1 Z " fill="#291410" transform="translate(109,34)"/>
<path d="M0,0 L4,0 L5,6 L8,7 L6,7 L5,9 L2,3 L0,2 Z " fill="#675947" transform="translate(101,12)"/>
<path d="M0,0 L3,1 L3,3 L1,3 L1,5 L4,6 L-3,6 L-2,3 L0,3 Z " fill="#685551" transform="translate(41,14)"/>
<path d="M0,0 L4,1 L3,4 L5,4 L5,6 L1,6 L1,3 L-1,3 Z " fill="#C5B49B" transform="translate(75,14)"/>
<path d="M0,0 L5,0 L4,5 L2,5 L2,3 L-2,3 L-2,1 Z " fill="#070607" transform="translate(21,9)"/>
<path d="M0,0 L4,1 L10,4 L9,7 L0,2 Z " fill="#BBA390" transform="translate(101,3)"/>
<path d="M0,0 L5,1 L6,4 L2,3 L0,6 L0,3 L-3,2 Z " fill="#554738" transform="translate(75,1)"/>
<path d="M0,0 L3,1 L2,5 L-2,6 L-1,2 Z " fill="#0B0706" transform="translate(147,66)"/>
<path d="M0,0 L5,0 L8,1 L8,3 L5,4 L0,3 Z " fill="#847A79" transform="translate(64,64)"/>
<path d="M0,0 L5,1 L5,3 L8,4 L6,5 L-1,4 Z " fill="#382E22" transform="translate(93,60)"/>
<path d="M0,0 L6,1 L6,5 L1,4 Z " fill="#E7DDCC" transform="translate(27,50)"/>
<path d="M0,0 L2,0 L3,5 L2,6 L-4,6 L-4,4 L1,4 Z " fill="#C2AF8C" transform="translate(53,44)"/>
<path d="M0,0 L4,1 L4,4 L6,5 L-3,4 Z " fill="#594626" transform="translate(78,41)"/>
<path d="M0,0 L3,1 L4,9 L3,7 L1,7 Z " fill="#8D7E6D" transform="translate(101,14)"/>
<path d="M0,0 L3,1 L3,3 L-3,6 L-6,6 L-6,4 L0,1 Z " fill="#3D3629" transform="translate(21,14)"/>
<path d="M0,0 L4,1 L3,3 L-6,3 L-5,1 Z " fill="#473329" transform="translate(71,12)"/>
<path d="M0,0 L5,0 L7,4 L-4,4 L-4,3 L3,3 L3,1 Z " fill="#523C2E" transform="translate(55,11)"/>
<path d="M0,0 L5,0 L5,2 L8,3 L4,4 L0,3 Z " fill="#170A06" transform="translate(100,0)"/>
<path d="M0,0 L3,0 L3,7 L0,7 Z " fill="#575B74" transform="translate(15,0)"/>
<path d="M0,0 L3,0 L3,3 L1,3 L1,10 L-2,10 L-2,8 L0,8 Z " fill="#2B2634" transform="translate(129,74)"/>
<path d="M0,0 L4,2 L3,5 L1,5 L1,3 L-1,3 L-2,5 L-4,4 L-4,2 L0,2 Z " fill="#746455" transform="translate(57,60)"/>
<path d="M0,0 L2,0 L2,2 L6,2 L7,6 L3,6 L0,2 Z " fill="#190A03" transform="translate(9,50)"/>
<path d="M0,0 L3,0 L2,7 L-2,5 L-2,3 L0,3 Z " fill="#1E0F0A" transform="translate(22,39)"/>
<path d="M0,0 L3,0 L4,3 L7,4 L6,7 L6,5 L1,4 L-1,3 Z " fill="#6C5747" transform="translate(27,38)"/>
<path d="M0,0 L3,1 L2,5 L1,5 L-2,5 L-3,8 L-3,3 L-1,3 Z " fill="#7C6A5D" transform="translate(128,35)"/>
<path d="M0,0 L2,0 L2,6 L-4,4 L-4,2 L0,2 Z " fill="#877A57" transform="translate(68,51)"/>
<path d="M0,0 L1,4 L-6,5 L-8,3 L-4,3 L-4,1 L0,2 Z " fill="#5A4631" transform="translate(98,45)"/>
<path d="M0,0 L1,3 L4,4 L4,6 L6,7 L1,7 L-1,2 Z " fill="#513F34" transform="translate(28,42)"/>
<path d="M0,0 L1,4 L5,5 L5,8 L3,8 L3,5 L1,5 L1,7 L-1,7 L-2,4 L0,4 Z " fill="#82685F" transform="translate(115,31)"/>
<path d="M0,0 L5,1 L5,4 L0,4 Z " fill="#6D5C41" transform="translate(55,31)"/>
<path d="M0,0 L1,2 L3,2 L4,8 L2,8 L2,5 L-2,3 L0,3 Z " fill="#544F44" transform="translate(133,28)"/>
<path d="M0,0 L4,1 L4,3 L8,5 L6,6 L2,5 Z " fill="#BAA68C" transform="translate(89,26)"/>
<path d="M0,0 L2,2 L2,6 L-2,6 L-3,3 L-1,3 Z " fill="#321C23" transform="translate(136,20)"/>
<path d="M0,0 L1,2 L3,2 L3,7 L5,8 L0,7 Z " fill="#A18C75" transform="translate(118,17)"/>
<path d="M0,0 L5,2 L7,6 L2,5 Z " fill="#1D0B04" transform="translate(116,12)"/>
<path d="M0,0 L4,1 L5,5 L-1,3 Z " fill="#3A2F12" transform="translate(96,15)"/>
<path d="M0,0 L2,3 L2,9 L1,5 L-2,5 L-3,2 Z " fill="#B0988B" transform="translate(7,8)"/>
<path d="M0,0 L10,0 L13,3 L7,2 L0,1 Z " fill="#222025" transform="translate(124,0)"/>
<path d="M0,0 L7,1 L7,3 L0,3 Z " fill="#1B0B08" transform="translate(21,81)"/>
<path d="M0,0 L1,2 L4,2 L2,7 L0,7 L-1,2 Z " fill="#2D2833" transform="translate(123,73)"/>
<path d="M0,0 L4,1 L4,3 L1,5 L-3,4 L-1,4 Z " fill="#80735D" transform="translate(57,67)"/>
<path d="M0,0 L3,0 L4,2 L7,4 L2,6 Z " fill="#675C56" transform="translate(39,65)"/>
<path d="M0,0 L3,0 L3,2 L-1,5 L-4,5 L-3,2 Z " fill="#998373" transform="translate(127,59)"/>
<path d="M0,0 L5,0 L1,1 L1,5 L-3,6 L-3,3 L-1,3 Z " fill="#938260" transform="translate(82,54)"/>
<path d="M0,0 L3,0 L3,4 L-2,4 L-3,2 Z " fill="#442B27" transform="translate(112,53)"/>
<path d="M0,0 L2,0 L3,3 L1,3 L-1,7 L-2,7 L-2,2 L0,2 Z " fill="#190A05" transform="translate(116,41)"/>
<path d="M0,0 L2,0 L2,3 L4,3 L4,6 L-1,5 Z " fill="#8F7D56" transform="translate(84,36)"/>
<path d="M0,0 L2,0 L1,5 L-3,6 L-4,4 L-1,3 L-2,1 Z " fill="#463738" transform="translate(71,34)"/>
<path d="M0,0 L3,0 L2,5 L-1,5 Z " fill="#B5A187" transform="translate(40,32)"/>
<path d="M0,0 L1,0 L1,5 L-1,8 L-3,8 L-2,1 Z " fill="#261912" transform="translate(18,31)"/>
<path d="M0,0 L2,1 L3,6 L2,9 L0,9 L-1,4 Z " fill="#74664F" transform="translate(116,21)"/>
<path d="M0,0 L8,0 L9,3 L4,3 L4,1 Z " fill="#8B7E71" transform="translate(65,9)"/>
<path d="M0,0 L6,1 L4,2 L4,4 L0,5 Z " fill="#412915" transform="translate(0,8)"/>
<path d="M0,0 L2,0 L2,2 L4,2 L4,4 L-2,4 L-3,2 L0,2 Z " fill="#2C2218" transform="translate(52,75)"/>
<path d="M0,0 L8,1 L8,3 L0,2 Z " fill="#D3BFAF" transform="translate(17,76)"/>
<path d="M0,0 L2,4 L0,6 L-4,6 L-4,4 Z " fill="#BAA59E" transform="translate(115,70)"/>
<path d="M0,0 L2,0 L2,2 L0,2 L0,4 L-7,4 L-4,2 Z " fill="#DECBC3" transform="translate(115,68)"/>
<path d="M0,0 L3,1 L1,1 L1,3 L4,4 L0,6 L0,4 L-3,3 L-1,3 Z " fill="#382D2A" transform="translate(69,60)"/>
<path d="M0,0 L4,0 L4,4 L2,4 L1,7 Z " fill="#1D1B17" transform="translate(124,45)"/>
<path d="M0,0 L2,0 L2,6 L5,7 L1,7 L1,5 L-1,5 Z " fill="#493A2B" transform="translate(10,45)"/>
<path d="M0,0 L7,5 L6,7 L3,7 L0,2 Z " fill="#9F8D86" transform="translate(16,43)"/>
<path d="M0,0 L1,4 L-1,8 L-3,8 L-2,2 Z " fill="#8A795E" transform="translate(102,35)"/>
<path d="M0,0 L2,0 L3,3 L-1,6 L-2,2 Z " fill="#927C5F" transform="translate(35,35)"/>
<path d="M0,0 L4,1 L2,9 L0,8 Z " fill="#604D39" transform="translate(37,30)"/>
<path d="M0,0 L7,0 L7,2 L0,3 Z " fill="#998D91" transform="translate(27,0)"/>
<path d="M0,0 L6,1 L6,3 L0,3 Z " fill="#7F7D82" transform="translate(85,81)"/>
<path d="M0,0 L5,1 L5,4 L0,4 Z " fill="#0B0403" transform="translate(118,80)"/>
<path d="M0,0 L7,0 L7,2 L0,3 Z " fill="#CDC2CB" transform="translate(59,80)"/>
<path d="M0,0 L1,0 L1,7 L-2,7 L-2,2 Z " fill="#545364" transform="translate(149,77)"/>
<path d="M0,0 L3,0 L3,2 L6,3 L3,4 L0,4 Z " fill="#090916" transform="translate(9,75)"/>
<path d="M0,0 L3,0 L3,2 L8,4 L6,5 L0,3 Z " fill="#C4B19F" transform="translate(39,72)"/>
<path d="M0,0 L7,0 L6,3 L1,3 Z " fill="#7C6D61" transform="translate(61,71)"/>
<path d="M0,0 L8,0 L8,2 L5,2 L4,4 L3,2 L0,2 Z " fill="#AB9F85" transform="translate(47,73)"/>
<path d="M0,0 L2,0 L3,3 L-5,3 L-5,1 Z " fill="#60554A" transform="translate(83,67)"/>
<path d="M0,0 L1,3 L-1,3 L-1,5 L-6,6 L-5,4 L-3,4 L-2,1 Z " fill="#97807F" transform="translate(141,57)"/>
<path d="M0,0 L2,0 L2,3 L0,3 L0,6 L-3,5 L-1,5 L-3,1 Z " fill="#7F6159" transform="translate(143,55)"/>
<path d="M0,0 L4,1 L7,4 L2,4 L2,2 L0,2 Z " fill="#6B5341" transform="translate(40,54)"/>
<path d="M0,0 L1,0 L2,8 L-2,10 L-2,7 L0,7 Z " fill="#846C60" transform="translate(2,41)"/>
<path d="M0,0 L5,0 L5,3 L0,3 Z " fill="#CFBC9D" transform="translate(83,46)"/>
<path d="M0,0 L2,0 L3,7 L0,6 Z " fill="#2C2122" transform="translate(3,42)"/>
<path d="M0,0 L5,1 L7,5 L2,3 Z " fill="#342520" transform="translate(18,44)"/>
<path d="M0,0 L2,0 L3,2 L3,8 L1,7 Z " fill="#D0C3B3" transform="translate(139,42)"/>
<path d="M0,0 L3,1 L4,5 L1,5 L1,3 L-2,2 Z " fill="#A5916A" transform="translate(68,26)"/>
<path d="M0,0 L3,0 L4,5 L-1,3 Z " fill="#DBD6D6" transform="translate(130,10)"/>
<path d="M0,0 L2,0 L2,5 L-2,4 L-2,1 Z " fill="#180D0D" transform="translate(120,5)"/>
<path d="M0,0 L2,0 L2,3 L4,4 L0,7 Z " fill="#321C0E" transform="translate(0,0)"/>
<path d="M0,0 L4,0 L2,4 L0,7 Z " fill="#878893" transform="translate(20,0)"/>
<path d="M0,0 L4,1 L3,5 L0,4 Z " fill="#140908" transform="translate(29,78)"/>
<path d="M0,0 L2,0 L1,3 L-5,6 L-5,4 Z " fill="#9A8B6E" transform="translate(123,66)"/>
<path d="M0,0 L6,1 L6,3 L2,5 Z " fill="#CAB7A7" transform="translate(21,61)"/>
<path d="M0,0 L7,2 L7,4 L-1,2 Z " fill="#4D362A" transform="translate(14,59)"/>
<path d="M0,0 L2,0 L2,7 L-2,2 Z " fill="#A49178" transform="translate(91,54)"/>
<path d="M0,0 L2,1 L2,3 L5,2 L5,4 L-2,5 L-2,3 L0,2 Z " fill="#4F392D" transform="translate(15,53)"/>
<path d="M0,0 L2,0 L3,6 L-1,4 Z " fill="#5B4432" transform="translate(120,49)"/>
<path d="M0,0 L3,1 L1,1 L1,4 L-3,4 L-3,1 Z " fill="#9B8B68" transform="translate(78,51)"/>
<path d="M0,0 L2,2 L2,7 L0,7 L-1,2 Z " fill="#31231B" transform="translate(17,46)"/>
<path d="M0,0 L5,1 L5,3 L1,4 L-1,3 Z " fill="#493D32" transform="translate(70,44)"/>
<path d="M0,0 L3,0 L3,2 L1,2 L0,7 L-2,3 L0,3 Z " fill="#C5BFB2" transform="translate(126,40)"/>
<path d="M0,0 L4,0 L4,3 L2,3 L1,6 Z " fill="#2F1E09" transform="translate(56,43)"/>
<path d="M0,0 L4,1 L5,3 L3,3 L2,6 Z " fill="#B4A88B" transform="translate(5,38)"/>
<path d="M0,0 L2,0 L2,3 L4,3 L4,6 L2,6 L-2,1 Z " fill="#4E453B" transform="translate(8,36)"/>
<path d="M0,0 L5,1 L1,4 L-1,4 Z " fill="#110B06" transform="translate(5,34)"/>
<path d="M0,0 L5,0 L7,3 L2,3 Z " fill="#655327" transform="translate(61,29)"/>
<path d="M0,0 L4,0 L4,2 L6,3 L1,4 Z " fill="#291A0A" transform="translate(107,28)"/>
<path d="M0,0 L3,1 L2,3 L5,4 L3,5 L-1,4 Z " fill="#AD9B78" transform="translate(56,24)"/>
<path d="M0,0 L6,0 L4,4 L0,2 Z " fill="#55421D" transform="translate(76,24)"/>
<path d="M0,0 L3,0 L2,5 L0,6 Z " fill="#362720" transform="translate(29,22)"/>
<path d="M0,0 L5,0 L1,5 L-1,5 Z " fill="#231412" transform="translate(38,21)"/>
<path d="M0,0 L4,0 L4,4 L0,3 Z " fill="#010101" transform="translate(146,20)"/>
<path d="M0,0 L3,0 L3,3 L-3,4 Z " fill="#291504" transform="translate(57,18)"/>
<path d="M0,0 L2,0 L3,5 L0,5 L-1,1 Z " fill="#F7EEE6" transform="translate(6,13)"/>
<path d="M0,0 L1,0 L1,5 L-2,6 L-3,2 L-1,2 Z " fill="#170B11" transform="translate(121,75)"/>
<path d="M0,0 L4,1 L5,4 L2,4 L2,2 L-1,1 Z " fill="#876D64" transform="translate(80,74)"/>
<path d="M0,0 L6,0 L1,4 L-1,2 Z " fill="#877663" transform="translate(86,71)"/>
<path d="M0,0 L2,0 L2,3 L5,4 L-1,4 Z " fill="#4F4434" transform="translate(49,68)"/>
<path d="M0,0 L4,0 L5,3 L-2,2 Z " fill="#0F0501" transform="translate(98,70)"/>
<path d="M0,0 L3,0 L4,3 L-1,4 L-2,1 Z " fill="#BDBBBC" transform="translate(15,67)"/>
<path d="M0,0 L6,2 L6,4 L0,2 Z " fill="#B8ABA8" transform="translate(42,65)"/>
<path d="M0,0 L5,1 L5,4 L1,3 L2,1 Z " fill="#160301" transform="translate(141,62)"/>
<path d="M0,0 L1,3 L-1,6 L-4,4 Z " fill="#846B6A" transform="translate(117,61)"/>
<path d="M0,0 L3,1 L3,4 L-1,5 Z " fill="#7A686B" transform="translate(109,57)"/>
<path d="M0,0 L3,0 L2,3 L-3,4 Z " fill="#51402E" transform="translate(83,58)"/>
<path d="M0,0 L4,1 L0,5 L-1,2 Z " fill="#C2AB9C" transform="translate(121,56)"/>
<path d="M0,0 L2,2 L1,6 L0,8 L-2,6 L-2,1 Z " fill="#6E604A" transform="translate(33,54)"/>
<path d="M0,0 L2,0 L1,5 L-2,4 Z " fill="#1A0F05" transform="translate(106,48)"/>
<path d="M0,0 L1,3 L3,4 L-2,5 L-1,1 Z " fill="#968561" transform="translate(47,42)"/>
<path d="M0,0 L3,0 L4,4 L0,5 Z " fill="#4C3918" transform="translate(48,42)"/>
<path d="M0,0 L6,1 L5,3 L0,3 Z " fill="#05030C" transform="translate(65,40)"/>
<path d="M0,0 L2,0 L2,2 L4,2 L4,4 L0,5 Z " fill="#DEC9B7" transform="translate(116,30)"/>
<path d="M0,0 L2,0 L3,6 L0,4 L-1,2 Z " fill="#534134" transform="translate(31,28)"/>
<path d="M0,0 L6,0 L4,1 L4,3 L0,3 Z " fill="#0B0501" transform="translate(14,27)"/>
<path d="M0,0 L1,2 L4,2 L3,5 L3,3 L-1,4 L-2,1 Z " fill="#A58F96" transform="translate(133,24)"/>
<path d="M0,0 L1,3 L-4,5 L-2,1 Z " fill="#190B06" transform="translate(8,22)"/>
<path d="M0,0 L4,1 L2,4 L1,6 L-1,5 Z " fill="#7A6C61" transform="translate(105,20)"/>
<path d="M0,0 L2,0 L2,3 L-3,4 L-2,1 Z " fill="#D1C9B3" transform="translate(18,20)"/>
<path d="M0,0 L3,1 L3,4 L-3,4 L0,3 Z " fill="#3D2711" transform="translate(60,18)"/>
<path d="M0,0 L4,1 L6,0 L7,3 L3,4 Z " fill="#978679" transform="translate(4,17)"/>
<path d="M0,0 L3,0 L3,5 L0,5 Z " fill="#566C62" transform="translate(143,15)"/>
<path d="M0,0 L4,1 L3,4 L-1,3 Z " fill="#A99981" transform="translate(90,17)"/>
<path d="M0,0 L2,0 L2,2 L4,2 L4,4 L1,5 L1,3 L-1,3 Z " fill="#A09375" transform="translate(79,15)"/>
<path d="M0,0 L5,0 L6,3 L0,2 Z " fill="#A8B9B5" transform="translate(140,9)"/>
<path d="M0,0 L1,4 L-1,6 L-3,5 L-2,1 Z " fill="#140A0F" transform="translate(134,4)"/>
<path d="M0,0 L3,0 L3,2 L1,2 L1,4 L-3,3 Z " fill="#9C8463" transform="translate(3,4)"/>
<path d="M0,0 L4,1 L6,3 L0,3 Z " fill="#8B7569" transform="translate(33,72)"/>
<path d="M0,0 L6,1 L3,3 L1,2 L0,4 L-2,2 Z " fill="#3D342C" transform="translate(77,66)"/>
<path d="M0,0 L4,2 L1,2 L1,5 L-1,5 Z " fill="#9F9281" transform="translate(86,64)"/>
<path d="M0,0 L7,1 L3,2 L2,4 Z " fill="#AB9693" transform="translate(12,61)"/>
<path d="M0,0 L4,0 L4,2 L-2,3 L-2,1 Z " fill="#4A4039" transform="translate(72,60)"/>
<path d="M0,0 L5,1 L6,3 L2,4 L2,2 L0,2 Z " fill="#76624A" transform="translate(94,55)"/>
<path d="M0,0 L6,0 L5,4 L4,2 L0,2 Z " fill="#4F3424" transform="translate(141,51)"/>
<path d="M0,0 L2,0 L3,3 L2,6 L0,6 Z " fill="#BAAB9E" transform="translate(129,43)"/>
<path d="M0,0 L3,1 L2,4 L-2,4 Z " fill="#83725C" transform="translate(117,45)"/>
<path d="M0,0 L1,3 L4,4 L3,6 L0,5 L-1,1 Z " fill="#2C2928" transform="translate(129,37)"/>
<path d="M0,0 L1,2 L4,3 L2,3 L1,6 L1,4 L-1,4 Z " fill="#39281F" transform="translate(141,32)"/>
<path d="M0,0 L3,3 L2,5 L-1,5 Z " fill="#736457" transform="translate(29,28)"/>
<path d="M0,0 L2,1 L2,6 L1,4 L-2,3 Z " fill="#190C17" transform="translate(144,30)"/>
<path d="M0,0 L2,1 L1,4 L-5,2 L-2,1 L0,2 Z " fill="#82724E" transform="translate(51,28)"/>
<path d="M0,0 L1,0 L1,5 L-3,4 L-2,1 Z " fill="#412F28" transform="translate(92,21)"/>
<path d="M0,0 L4,1 L4,4 L0,3 Z " fill="#30201F" transform="translate(131,15)"/>
<path d="M0,0 L5,0 L5,3 L0,2 Z " fill="#1C0801" transform="translate(86,12)"/>
<path d="M0,0 L2,0 L2,2 L4,2 L4,4 L2,4 L1,6 Z " fill="#7E605D" transform="translate(133,10)"/>
<path d="M0,0 L2,1 L1,5 L-2,5 L-1,1 Z " fill="#3F2A1B" transform="translate(84,8)"/>
<path d="M0,0 L4,0 L3,2 L1,1 L0,4 L-2,4 L-2,1 Z " fill="#837164" transform="translate(42,9)"/>
<path d="M0,0 L6,2 L7,4 L2,3 Z " fill="#806B5C" transform="translate(87,5)"/>
<path d="M0,0 L2,2 L5,6 L1,5 L-1,1 Z " fill="#372415" transform="translate(86,3)"/>
<path d="M0,0 L5,1 L1,5 Z " fill="#2F2930" transform="translate(129,3)"/>
<path d="M0,0 L5,0 L4,2 L2,2 L2,4 L0,4 Z " fill="#261A15" transform="translate(47,0)"/>
<path d="M0,0 L5,0 L5,2 L8,3 L3,3 Z " fill="#A48F84" transform="translate(134,0)"/>
<path d="M0,0 L3,1 L2,4 L-1,4 Z " fill="#58362E" transform="translate(77,76)"/>
<path d="M0,0 L4,0 L3,3 L0,4 L-1,1 Z " fill="#5B473C" transform="translate(85,74)"/>
<path d="M0,0 L5,0 L2,4 L0,4 Z " fill="#13060A" transform="translate(110,62)"/>
<path d="M0,0 L2,1 L2,4 L-3,5 Z " fill="#462B1D" transform="translate(124,57)"/>
<path d="M0,0 L3,0 L3,3 L-2,3 Z " fill="#EADBCB" transform="translate(49,56)"/>
<path d="M0,0 L3,1 L3,3 L5,4 L2,4 L0,3 Z " fill="#B39C87" transform="translate(44,53)"/>
<path d="M0,0 L2,3 L1,6 L-1,5 Z " fill="#1F1108" transform="translate(103,40)"/>
<path d="M0,0 L3,1 L2,5 L0,5 Z " fill="#6E626C" transform="translate(143,35)"/>
<path d="M0,0 L2,0 L2,2 L4,3 L-1,4 Z " fill="#76643E" transform="translate(73,33)"/>
<path d="M0,0 L2,2 L2,5 L-1,5 Z " fill="#483415" transform="translate(94,32)"/>
<path d="M0,0 L4,0 L4,2 L2,2 L3,5 L1,5 Z " fill="#9E8B65" transform="translate(80,33)"/>
<path d="M0,0 L1,0 L1,5 L-3,4 L-2,2 Z " fill="#7F726A" transform="translate(15,31)"/>
<path d="M0,0 L3,1 L2,4 L1,3 L-1,6 L-1,1 Z " fill="#423B1E" transform="translate(1,33)"/>
<path d="M0,0 L4,4 L0,5 Z " fill="#1F111B" transform="translate(0,25)"/>
<path d="M0,0 L2,0 L2,4 L-2,3 L-2,1 Z " fill="#2D1C0D" transform="translate(114,21)"/>
<path d="M0,0 L4,1 L4,3 L1,4 L-1,1 Z " fill="#918477" transform="translate(110,15)"/>
<path d="M0,0 L4,1 L4,3 L6,4 L2,3 L0,2 Z " fill="#84706F" transform="translate(119,12)"/>
<path d="M0,0 L3,0 L4,5 L1,4 Z " fill="#9B876D" transform="translate(104,11)"/>
<path d="M0,0 L5,1 L6,3 L1,2 Z " fill="#A38F86" transform="translate(93,3)"/>
<path d="M0,0 L4,0 L3,3 L-1,2 Z " fill="#311D0B" transform="translate(55,2)"/>
<path d="M0,0 L4,0 L3,2 L0,4 L0,2 L-2,1 Z " fill="#554C51" transform="translate(64,75)"/>
<path d="M0,0 L3,1 L3,3 L0,4 L-3,2 L0,2 Z " fill="#AB978E" transform="translate(16,73)"/>
<path d="M0,0 L3,0 L3,3 L-1,4 Z " fill="#B18B68" transform="translate(137,73)"/>
<path d="M0,0 L7,1 L3,3 L0,2 Z " fill="#53443A" transform="translate(96,72)"/>
<path d="M0,0 L4,0 L5,3 L0,2 Z " fill="#A89790" transform="translate(48,64)"/>
<path d="M0,0 L4,1 L4,3 L0,3 Z " fill="#31211B" transform="translate(134,64)"/>
<path d="M0,0 L5,1 L1,4 Z " fill="#3C261E" transform="translate(5,54)"/>
<path d="M0,0 L1,2 L3,3 L2,5 L-2,3 L0,3 Z " fill="#715F3A" transform="translate(79,52)"/>
<path d="M0,0 L3,2 L2,5 L1,3 L-2,2 L0,2 Z " fill="#5D463C" transform="translate(9,52)"/>
<path d="M0,0 L3,0 L3,2 L5,3 L0,3 Z " fill="#735E3D" transform="translate(57,51)"/>
<path d="M0,0 L2,0 L1,4 L-4,2 Z " fill="#433113" transform="translate(87,49)"/>
<path d="M0,0 L3,1 L2,5 L0,3 Z " fill="#817555" transform="translate(71,48)"/>
<path d="M0,0 L3,0 L3,2 L5,3 L0,3 Z " fill="#AC9878" transform="translate(76,46)"/>
<path d="M0,0 L3,1 L3,3 L0,4 Z " fill="#C9BAA4" transform="translate(1,38)"/>
<path d="M0,0 L2,2 L2,5 L0,5 L0,3 L-3,2 L0,2 Z " fill="#7A6548" transform="translate(56,37)"/>
<path d="M0,0 L3,0 L3,2 L1,2 L1,4 L-1,4 Z " fill="#DDCBB4" transform="translate(52,37)"/>
<path d="M0,0 L3,1 L1,5 L-1,3 Z " fill="#220C07" transform="translate(123,35)"/>
<path d="M0,0 L4,0 L3,3 L0,3 Z " fill="#DCC8AD" transform="translate(50,32)"/>
<path d="M0,0 L3,1 L4,5 L0,3 Z " fill="#7C6858" transform="translate(6,30)"/>
<path d="M0,0 L4,1 L3,4 L0,3 Z " fill="#D5C49F" transform="translate(80,27)"/>
<path d="M0,0 L4,0 L4,2 L2,2 L1,4 L1,2 L-1,1 Z " fill="#988873" transform="translate(41,22)"/>
<path d="M0,0 L4,0 L3,3 L0,4 Z " fill="#9F947F" transform="translate(9,21)"/>
<path d="M0,0 L3,2 L3,5 L0,5 Z " fill="#100C1B" transform="translate(117,0)"/>
<path d="M0,0 L2,1 L2,3 L-3,3 Z " fill="#B1B2B9" transform="translate(100,79)"/>
<path d="M0,0 L1,2 L0,4 L-4,2 Z " fill="#897481" transform="translate(115,75)"/>
<path d="M0,0 L5,0 L3,1 L3,3 L0,2 Z " fill="#A29082" transform="translate(82,72)"/>
<path d="M0,0 L3,3 L2,5 L-1,4 Z " fill="#9C9C89" transform="translate(18,67)"/>
<path d="M0,0 L4,0 L2,4 Z " fill="#120E08" transform="translate(130,65)"/>
<path d="M0,0 L2,0 L0,4 L-2,4 Z " fill="#5B473E" transform="translate(41,60)"/>
<path d="M0,0 L2,0 L2,3 L-4,2 Z " fill="#655A45" transform="translate(76,58)"/>
<path d="M0,0 L4,1 L2,3 L-1,2 Z " fill="#59413A" transform="translate(9,58)"/>
<path d="M0,0 L4,1 L4,3 L0,3 Z " fill="#150703" transform="translate(0,51)"/>
<path d="M0,0 L1,3 L0,5 L-2,5 L-1,1 Z " fill="#2F1C0F" transform="translate(118,47)"/>
<path d="M0,0 L5,1 L5,3 L2,3 L2,1 Z " fill="#A19584" transform="translate(22,49)"/>
<path d="M0,0 L2,1 L1,4 L-2,3 L-2,1 Z " fill="#D1C3B7" transform="translate(112,42)"/>
<path d="M0,0 L1,2 L3,2 L3,4 L-1,3 Z " fill="#291608" transform="translate(35,42)"/>
<path d="M0,0 L4,1 L3,4 L0,3 Z " fill="#BAA694" transform="translate(29,42)"/>
<path d="M0,0 L5,2 L5,3 L0,3 Z " fill="#F1E6E3" transform="translate(8,41)"/>
<path d="M0,0 L3,2 L-3,4 Z " fill="#908056" transform="translate(72,31)"/>
<path d="M0,0 L3,4 L3,6 L0,5 Z " fill="#72624A" transform="translate(40,26)"/>
<path d="M0,0 L3,0 L2,4 L0,4 Z " fill="#200A07" transform="translate(136,15)"/>
<path d="M0,0 L3,1 L3,4 L0,3 Z " fill="#B9A484" transform="translate(101,14)"/>
<path d="M0,0 L4,0 L4,3 L0,2 Z " fill="#624D2C" transform="translate(101,12)"/>
<path d="M0,0 L3,0 L3,2 L-2,3 Z " fill="#5C4433" transform="translate(57,5)"/>
<path d="M0,0 L4,2 L4,4 L0,2 Z " fill="#CDCFD1" transform="translate(126,5)"/>
<path d="M0,0 L5,1 L5,3 L1,2 Z " fill="#D7C0B7" transform="translate(112,5)"/>
<path d="M0,0 L5,1 L4,3 L0,1 Z " fill="#2D2F41" transform="translate(118,0)"/>
<path d="M0,0 L4,1 L0,3 Z " fill="#79736E" transform="translate(97,78)"/>
<path d="M0,0 L2,0 L1,3 L-3,2 Z " fill="#311E16" transform="translate(86,77)"/>
<path d="M0,0 L3,0 L3,3 L0,3 Z " fill="#55545C" transform="translate(129,74)"/>
<path d="M0,0 L3,1 L0,4 L-1,2 Z " fill="#8F7C69" transform="translate(105,72)"/>
<path d="M0,0 L3,1 L2,3 L-1,3 Z " fill="#2B0B06" transform="translate(141,66)"/>
<path d="M0,0 L3,0 L2,3 L-1,2 Z " fill="#2B1F22" transform="translate(109,66)"/>
<path d="M0,0 L3,0 L3,3 L0,3 Z " fill="#A0968D" transform="translate(95,65)"/>
<path d="M0,0 L3,1 L3,3 L-1,3 Z " fill="#211808" transform="translate(30,60)"/>
<path d="M0,0 L1,3 L0,5 L-2,4 Z " fill="#504020" transform="translate(101,54)"/>
<path d="M0,0 L2,4 L-1,6 Z " fill="#604D41" transform="translate(19,50)"/>
<path d="M0,0 L5,1 L2,3 L0,2 Z " fill="#453923" transform="translate(31,49)"/>
<path d="M0,0 L3,1 L3,3 L-1,2 Z " fill="#2B1509" transform="translate(40,48)"/>
<path d="M0,0 L3,0 L1,4 Z " fill="#DFCCB2" transform="translate(45,47)"/>
<path d="M0,0 L4,1 L4,3 L0,2 Z " fill="#584341" transform="translate(16,41)"/>
<path d="M0,0 L3,0 L3,3 L0,3 Z " fill="#130402" transform="translate(22,39)"/>
<path d="M0,0 L2,0 L1,4 L-1,4 Z " fill="#D4CBC4" transform="translate(11,35)"/>
<path d="M0,0 L3,1 L2,5 L-1,1 Z " fill="#5F5952" transform="translate(128,35)"/>
<path d="M0,0 L2,0 L1,4 L-1,3 Z " fill="#756661" transform="translate(19,35)"/>
<path d="M0,0 L4,2 L1,4 Z " fill="#917F56" transform="translate(95,32)"/>
<path d="M0,0 L3,1 L3,4 L0,3 Z " fill="#48392B" transform="translate(127,27)"/>
<path d="M0,0 L5,2 L2,4 Z " fill="#2D1710" transform="translate(116,12)"/>
<path d="M0,0 L2,4 L-2,2 Z " fill="#382915" transform="translate(43,11)"/>
<path d="M0,0 L2,1 L2,4 L-1,4 Z " fill="#563E28" transform="translate(87,8)"/>
<path d="M0,0 L3,0 L2,3 L-1,2 Z " fill="#3B2916" transform="translate(42,0)"/>
<path d="M0,0 L3,0 L2,3 L0,3 Z " fill="#498671" transform="translate(9,81)"/>
<path d="M0,0 L2,3 L-1,4 Z " fill="#6E6461" transform="translate(104,76)"/>
<path d="M0,0 L4,1 L3,3 L1,3 Z " fill="#8E8082" transform="translate(143,75)"/>
<path d="M0,0 L2,0 L0,4 L-1,1 Z " fill="#4F5060" transform="translate(125,75)"/>
<path d="M0,0 L1,4 L-2,3 Z " fill="#3E3C45" transform="translate(147,72)"/>
<path d="M0,0 L3,1 L1,2 L0,4 L-1,1 Z " fill="#1A0A07" transform="translate(8,56)"/>
<path d="M0,0 L4,2 L1,3 L-1,1 Z " fill="#39250B" transform="translate(90,49)"/>
<path d="M0,0 L3,2 L-1,3 Z " fill="#847367" transform="translate(20,47)"/>
<path d="M0,0 L4,0 L3,3 Z " fill="#7B6F56" transform="translate(91,41)"/>
<path d="M0,0 L2,1 L1,5 L-1,1 Z " fill="#8D775C" transform="translate(42,36)"/>
<path d="M0,0 L2,4 L-2,2 L0,2 Z " fill="#A38979" transform="translate(120,32)"/>
<path d="M0,0 L4,2 L1,3 Z " fill="#372411" transform="translate(94,27)"/>
<path d="M0,0 L3,0 L2,3 L0,3 Z " fill="#E8DCCD" transform="translate(33,26)"/>
<path d="M0,0 L4,1 L4,3 L0,1 Z " fill="#4E3645" transform="translate(127,18)"/>
<path d="M0,0 L2,0 L2,3 L-1,3 Z " fill="#B9A796" transform="translate(95,8)"/>
<path d="M0,0 L2,1 L1,4 L-1,4 Z " fill="#150403" transform="translate(37,8)"/>
<path d="M0,0 L3,0 L2,3 L0,3 Z " fill="#100602" transform="translate(39,0)"/>
<path d="M0,0 L3,3 L0,3 Z " fill="#2F2612" transform="translate(33,57)"/>
<path d="M0,0 L2,1 L2,3 L-1,3 Z " fill="#7D684E" transform="translate(37,56)"/>
<path d="M0,0 L2,0 L2,3 L-1,2 Z " fill="#352511" transform="translate(106,48)"/>
<path d="M0,0 L2,0 L3,3 L0,3 Z " fill="#755A55" transform="translate(106,43)"/>
<path d="M0,0 L3,1 L3,3 L0,2 Z " fill="#442F15" transform="translate(79,37)"/>
<path d="M0,0 L2,2 L0,4 L0,2 L-2,1 Z " fill="#442824" transform="translate(126,34)"/>
<path d="M0,0 L2,0 L1,3 L-2,1 Z " fill="#51401B" transform="translate(71,34)"/>
<path d="M0,0 L2,0 L1,3 L-1,3 Z " fill="#DAD0BC" transform="translate(12,23)"/>
<path d="M0,0 L3,3 L0,3 Z " fill="#664D52" transform="translate(124,18)"/>
<path d="M0,0 L3,1 L2,3 L0,3 Z " fill="#B1A892" transform="translate(23,19)"/>
<path d="M0,0 L2,2 L0,3 L-2,1 Z " fill="#A08B75" transform="translate(6,48)"/>
<path d="M0,0 L3,1 L1,3 Z " fill="#312218" transform="translate(12,31)"/>
</svg>
