<?xml version="1.0" encoding="UTF-8"?>
<!-- Generator: visioncortex VTracer 0.6.5 -->
<svg version="1.1" xmlns="http://www.w3.org/2000/svg" width="150" height="84">
<path d="M0,0 L150,0 L150,84 L0,84 Z " fill="#4A4953" transform="translate(0,0)"/>
<path d="M0,0 L41,0 L40,5 L47,4 L46,6 L44,5 L44,10 L34,12 L32,13 L37,12 L47,12 L51,14 L63,12 L64,11 L76,11 L82,14 L82,17 L77,16 L76,20 L80,22 L83,25 L69,23 L68,20 L71,21 L72,19 L74,19 L75,13 L73,13 L73,15 L70,16 L64,13 L63,20 L65,20 L65,22 L58,21 L58,18 L55,18 L55,20 L46,21 L40,24 L33,25 L33,22 L40,20 L45,18 L48,18 L48,16 L31,18 L31,20 L26,24 L25,27 L32,28 L34,34 L35,38 L41,39 L41,37 L46,33 L48,33 L47,30 L44,30 L44,33 L42,33 L42,35 L36,37 L37,29 L43,27 L49,27 L46,23 L62,23 L62,25 L52,26 L52,30 L57,31 L53,33 L50,33 L50,35 L46,35 L46,37 L51,36 L51,39 L54,38 L60,39 L59,41 L56,42 L56,44 L54,45 L54,47 L51,48 L55,49 L55,52 L57,52 L57,54 L59,52 L59,48 L62,47 L63,48 L65,46 L66,48 L68,48 L68,53 L70,53 L70,48 L73,48 L73,46 L78,45 L78,48 L80,47 L81,44 L78,44 L78,42 L76,42 L76,40 L83,41 L85,38 L87,38 L88,35 L86,35 L86,33 L84,33 L85,36 L78,36 L78,33 L72,35 L71,33 L73,32 L73,28 L68,27 L69,24 L74,24 L74,26 L79,27 L80,29 L86,30 L84,25 L84,23 L79,20 L79,18 L87,18 L90,23 L92,23 L92,25 L94,25 L94,27 L96,27 L96,34 L98,37 L96,37 L96,39 L92,41 L92,43 L89,43 L88,44 L85,43 L83,49 L85,52 L83,53 L83,55 L80,55 L80,57 L77,59 L83,61 L83,63 L81,64 L88,66 L90,61 L96,59 L95,62 L90,64 L90,66 L95,66 L94,69 L90,72 L88,72 L87,74 L86,77 L81,76 L78,75 L78,77 L81,78 L67,82 L75,83 L75,81 L87,79 L89,76 L90,77 L101,76 L101,74 L111,71 L114,71 L115,67 L116,70 L114,75 L111,74 L99,79 L110,78 L110,80 L105,82 L104,84 L0,84 Z " fill="#020106" transform="translate(0,0)"/>
<path d="M0,0 L53,0 L53,84 L31,84 L34,81 L39,81 L39,78 L44,78 L44,76 L36,76 L36,74 L39,74 L39,72 L42,72 L42,70 L47,68 L47,65 L43,66 L42,62 L36,64 L34,68 L31,68 L31,70 L26,72 L26,67 L26,64 L26,59 L30,55 L32,55 L34,51 L36,45 L31,46 L31,37 L33,33 L28,28 L25,22 L22,25 L20,24 L17,19 L17,17 L25,19 L20,16 L20,14 L18,14 L18,12 L15,11 L15,8 L18,8 L7,3 L8,6 L5,6 L5,4 L0,3 Z " fill="#0C0A0E" transform="translate(97,0)"/>
<path d="M0,0 L8,0 L11,5 L13,5 L13,7 L15,7 L15,9 L17,9 L17,16 L19,19 L17,19 L17,21 L13,23 L13,25 L10,25 L9,26 L6,25 L4,31 L6,34 L4,35 L4,37 L1,37 L1,39 L-2,41 L4,43 L4,45 L2,46 L9,48 L11,43 L17,41 L16,44 L11,46 L11,48 L16,48 L15,51 L11,54 L9,54 L8,56 L7,59 L2,58 L-1,57 L-1,59 L2,60 L-12,64 L-4,65 L-4,63 L8,61 L10,58 L11,59 L22,58 L22,56 L32,53 L35,53 L36,49 L37,52 L35,57 L32,56 L20,61 L31,60 L31,62 L26,64 L25,66 L-19,66 L-28,64 L-24,60 L-30,58 L-30,60 L-32,61 L-31,64 L-36,65 L-46,65 L-48,63 L-40,59 L-39,58 L-35,57 L-38,54 L-16,54 L-15,51 L-22,50 L-22,48 L-24,50 L-24,52 L-31,51 L-35,51 L-35,49 L-41,48 L-46,45 L-53,42 L-55,38 L-50,41 L-45,42 L-45,37 L-41,39 L-40,41 L-33,43 L-34,41 L-42,37 L-48,35 L-48,33 L-42,34 L-44,27 L-39,22 L-39,25 L-36,26 L-36,28 L-38,28 L-39,35 L-32,37 L-33,32 L-31,33 L-31,27 L-29,27 L-28,23 L-31,23 L-30,18 L-28,18 L-28,21 L-25,20 L-19,21 L-20,23 L-23,24 L-23,26 L-25,27 L-25,29 L-28,30 L-24,31 L-24,34 L-22,34 L-22,36 L-20,34 L-20,30 L-17,29 L-16,30 L-14,28 L-13,30 L-11,30 L-11,35 L-9,35 L-9,30 L-6,30 L-6,28 L-1,27 L-1,30 L1,29 L2,26 L-1,26 L-1,24 L-3,24 L-3,22 L4,23 L6,20 L8,20 L9,17 L7,17 L7,15 L5,15 L6,18 L-1,18 L-1,15 L-7,17 L-8,15 L-6,14 L-6,10 L-11,9 L-10,6 L-5,6 L-5,8 L0,9 L1,11 L7,12 L5,7 L5,5 L0,2 Z " fill="#585761" transform="translate(79,18)"/>
<path d="M0,0 L27,0 L27,3 L20,3 L20,4 L26,5 L26,6 L19,7 L19,8 L30,8 L37,9 L36,6 L32,6 L31,3 L29,3 L29,1 L40,4 L40,2 L50,5 L50,8 L50,10 L52,12 L50,12 L50,14 L54,13 L58,16 L57,19 L56,19 L56,21 L58,22 L57,24 L61,25 L61,27 L55,25 L55,27 L53,27 L53,25 L51,25 L51,23 L48,24 L46,19 L38,18 L38,20 L43,22 L45,28 L45,31 L38,29 L38,27 L33,26 L28,25 L28,27 L32,28 L33,32 L32,34 L34,34 L35,32 L38,35 L43,35 L43,33 L45,33 L45,35 L47,35 L46,39 L44,39 L42,42 L35,40 L35,42 L37,42 L37,44 L40,44 L39,48 L37,48 L36,46 L34,47 L32,46 L32,48 L30,49 L29,53 L27,53 L27,48 L24,49 L22,51 L20,48 L18,48 L19,52 L21,54 L16,54 L16,52 L14,52 L14,49 L9,49 L10,47 L13,47 L12,44 L15,44 L14,41 L18,40 L10,39 L10,36 L5,37 L5,35 L9,35 L9,33 L13,31 L11,30 L11,26 L21,25 L21,23 L7,24 L8,27 L0,28 L-3,30 L-5,37 L-2,35 L1,35 L2,29 L7,29 L7,33 L2,37 L0,37 L0,39 L-6,39 L-8,37 L-9,28 L-16,28 L-17,26 L-15,23 L-13,23 L-12,20 L-10,20 L-10,18 L-1,16 L7,16 L7,18 L-3,22 L-8,22 L-8,25 L4,21 L5,20 L14,20 L14,18 L17,18 L18,20 L22,21 L24,22 L24,20 L22,20 L23,13 L32,15 L32,13 L34,13 L33,19 L31,19 L30,22 L29,20 L27,20 L28,22 L41,24 L35,20 L36,16 L41,17 L40,14 L37,14 L37,12 L23,12 L17,14 L10,15 L6,13 L-4,13 L-13,15 L-10,12 L-4,10 L3,10 L3,5 L-2,6 Z " fill="#3C3B47" transform="translate(41,0)"/>
<path d="M0,0 L41,0 L40,5 L47,4 L46,6 L44,5 L44,10 L34,12 L32,13 L37,12 L47,12 L51,14 L63,12 L64,11 L76,11 L82,14 L82,17 L77,16 L76,20 L80,22 L83,25 L69,23 L68,20 L71,21 L72,19 L74,19 L75,13 L73,13 L73,15 L70,16 L64,13 L63,20 L65,20 L65,22 L58,21 L58,18 L55,18 L55,20 L46,21 L40,24 L33,25 L33,22 L40,20 L45,18 L48,18 L48,16 L31,18 L31,20 L26,24 L25,27 L32,28 L34,34 L35,38 L41,39 L41,37 L46,33 L48,33 L47,30 L44,30 L44,33 L42,33 L42,35 L36,37 L37,29 L43,27 L49,27 L46,23 L62,23 L62,25 L52,26 L52,30 L57,31 L53,33 L50,33 L50,35 L46,35 L46,37 L49,38 L48,41 L51,41 L51,46 L48,45 L49,52 L47,51 L47,55 L42,54 L40,53 L41,46 L43,46 L39,41 L34,46 L34,44 L30,44 L29,47 L25,45 L21,27 L19,27 L19,25 L17,25 L17,23 L15,23 L15,25 L10,24 L8,20 L0,20 Z " fill="#080B1D" transform="translate(0,0)"/>
<path d="M0,0 L12,0 L13,3 L17,4 L17,6 L19,5 L19,3 L24,4 L30,7 L31,9 L27,8 L28,11 L30,12 L30,14 L32,14 L33,16 L38,19 L36,20 L29,17 L32,21 L32,24 L35,24 L35,21 L39,23 L41,28 L43,32 L46,33 L44,34 L43,46 L48,45 L47,51 L40,59 L38,59 L40,66 L40,70 L43,70 L43,68 L47,66 L50,63 L54,62 L55,65 L59,65 L59,68 L54,70 L54,72 L51,72 L51,74 L48,74 L48,76 L56,76 L56,78 L51,78 L51,81 L43,84 L19,84 L21,80 L25,80 L25,78 L13,80 L16,77 L27,73 L27,75 L29,75 L29,72 L32,70 L33,61 L30,59 L30,57 L28,59 L28,61 L22,63 L16,63 L19,61 L21,61 L21,59 L25,59 L25,57 L31,54 L33,54 L35,50 L35,47 L37,43 L40,43 L39,32 L40,30 L28,27 L29,31 L25,29 L20,22 L20,20 L25,21 L23,15 L17,15 L9,10 L13,9 L15,9 L13,7 L8,5 L7,2 L1,2 Z " fill="#06070C" transform="translate(85,0)"/>
<path d="M0,0 L2,1 L1,6 L3,6 L4,4 L4,6 L6,6 L10,15 L13,17 L13,23 L10,23 L10,28 L14,30 L10,31 L13,33 L13,36 L10,36 L12,38 L6,38 L6,40 L4,40 L4,42 L13,44 L10,41 L15,42 L16,45 L21,44 L21,48 L14,48 L3,44 L3,46 L6,46 L6,48 L10,49 L18,52 L18,53 L-12,53 L-12,4 L-10,4 L-10,10 L-7,10 L-6,3 L-3,2 L-3,20 L2,21 L3,18 L4,20 L7,20 L7,22 L9,21 L8,18 L9,16 L7,16 L7,14 L5,14 L5,9 L1,10 L1,8 L-2,8 L-2,4 L0,4 Z " fill="#36313D" transform="translate(12,31)"/>
<path d="M0,0 L3,1 L4,5 L-1,7 L-1,10 L8,10 L8,12 L4,14 L2,13 L2,16 L1,17 L9,18 L10,14 L16,14 L15,16 L19,17 L18,13 L23,13 L25,8 L31,6 L30,9 L25,11 L25,13 L30,13 L29,16 L25,19 L23,19 L22,21 L21,24 L16,23 L13,22 L13,24 L16,25 L2,29 L10,30 L10,28 L22,26 L24,23 L25,24 L36,23 L36,21 L46,18 L49,18 L50,14 L51,17 L49,22 L46,21 L34,26 L45,25 L45,27 L40,29 L39,31 L-5,31 L-14,29 L-10,25 L-16,23 L-16,25 L-18,26 L-17,29 L-22,30 L-32,30 L-34,28 L-26,24 L-25,23 L-21,22 L-24,19 L-2,19 L-1,16 L-8,15 L-4,14 L-6,12 L-8,12 L-11,6 L-10,11 L-12,12 L-12,9 L-17,9 L-18,3 L-17,2 L-2,1 Z " fill="#322C3B" transform="translate(65,53)"/>
<path d="M0,0 L17,0 L24,2 L26,5 L31,7 L35,11 L27,10 L35,14 L40,15 L42,21 L37,20 L41,26 L42,29 L45,29 L45,27 L53,28 L57,30 L58,44 L54,44 L52,48 L52,51 L48,55 L39,58 L34,58 L34,54 L31,54 L30,50 L27,52 L24,52 L25,49 L27,49 L28,46 L34,43 L33,39 L37,42 L37,45 L42,45 L42,49 L41,53 L44,53 L44,51 L46,51 L47,47 L52,46 L52,39 L55,38 L54,33 L51,33 L50,33 L49,37 L44,38 L42,38 L42,33 L36,31 L34,31 L34,29 L32,29 L31,34 L29,34 L29,30 L31,30 L31,27 L28,27 L28,25 L34,27 L34,25 L30,24 L28,19 L27,17 L30,18 L31,16 L26,15 L23,14 L23,11 L21,9 L23,6 L14,4 L13,4 L4,2 L2,1 L2,3 L9,5 L10,9 L-9,9 L-8,6 L-7,5 L-9,4 L-6,2 L0,3 Z " fill="#3A3742" transform="translate(68,0)"/>
<path d="M0,0 L2,0 L2,3 L0,3 L0,5 L4,4 L6,6 L3,9 L3,10 L10,11 L12,17 L13,21 L19,22 L19,20 L24,16 L26,16 L25,13 L22,13 L22,16 L20,16 L20,18 L14,20 L15,12 L21,10 L27,10 L24,6 L40,6 L40,8 L30,9 L30,13 L35,14 L31,16 L28,16 L28,18 L24,18 L24,20 L27,21 L26,24 L29,24 L29,29 L26,28 L27,35 L25,34 L25,38 L20,37 L18,36 L19,29 L21,29 L17,24 L12,29 L12,27 L8,27 L7,30 L3,28 L-1,10 L-3,10 L-3,8 L-5,8 L-5,6 L-7,6 L-7,8 L-12,7 L-13,2 L-7,3 L-6,1 L-6,4 L-3,4 L-3,1 Z " fill="#373241" transform="translate(22,17)"/>
<path d="M0,0 L2,1 L3,5 L7,6 L7,4 L9,4 L9,6 L11,6 L11,8 L14,7 L18,26 L19,31 L18,36 L15,36 L14,39 L14,35 L17,35 L17,29 L13,27 L10,21 L10,18 L5,18 L5,13 L4,16 L2,16 L2,20 L5,20 L5,22 L9,21 L9,26 L11,26 L11,28 L13,28 L14,34 L11,34 L11,32 L7,31 L6,33 L1,32 L0,29 L1,14 L-1,15 L-3,22 L-6,22 L-6,16 L-8,16 L-8,1 Z " fill="#0A0A15" transform="translate(8,19)"/>
<path d="M0,0 L2,0 L3,3 L7,3 L7,6 L2,8 L2,10 L-1,10 L-1,12 L-4,12 L-4,14 L4,14 L4,16 L-1,16 L-1,19 L-9,22 L-33,22 L-31,18 L-27,18 L-27,16 L-39,18 L-36,15 L-25,11 L-25,13 L-23,13 L-22,10 L-22,12 L-15,10 L-14,6 L-13,9 L-9,8 L-9,6 L-5,4 L-2,1 Z " fill="#2A2130" transform="translate(137,62)"/>
<path d="M0,0 L2,0 L2,3 L5,2 L11,3 L10,5 L7,6 L7,8 L5,9 L5,11 L2,12 L6,13 L6,16 L8,16 L8,18 L10,16 L10,12 L13,11 L15,18 L14,19 L-1,20 L-1,22 L1,24 L-1,24 L-1,26 L4,26 L5,26 L5,23 L7,24 L8,29 L10,29 L11,27 L12,31 L6,31 L6,34 L-1,33 L-5,33 L-5,31 L-11,30 L-16,27 L-23,24 L-25,20 L-20,23 L-15,24 L-15,19 L-11,21 L-10,23 L-3,25 L-4,23 L-12,19 L-18,17 L-18,15 L-12,16 L-14,9 L-9,4 L-9,7 L-6,8 L-6,10 L-8,10 L-9,17 L-2,19 L-3,14 L-1,15 L-1,9 L1,9 L2,5 L-1,5 Z " fill="#4F485C" transform="translate(49,36)"/>
<path d="M0,0 L9,2 L9,0 L11,0 L10,6 L8,6 L7,9 L6,7 L2,11 L1,13 L-2,13 L-2,10 L-16,11 L-15,14 L-23,15 L-26,17 L-28,24 L-25,22 L-22,22 L-21,16 L-16,16 L-16,20 L-21,24 L-23,24 L-23,26 L-29,26 L-31,24 L-32,15 L-39,15 L-40,13 L-38,10 L-36,10 L-35,7 L-33,7 L-33,5 L-24,3 L-16,3 L-16,5 L-26,9 L-31,9 L-31,12 L-19,8 L-18,7 L-9,7 L-9,5 L-6,5 L-5,7 L-1,8 L1,9 L1,7 L-1,7 Z " fill="#0A1013" transform="translate(64,13)"/>
<path d="M0,0 L3,0 L3,3 L1,3 L1,7 L3,7 L4,2 L6,2 L6,4 L9,3 L15,6 L14,11 L21,9 L21,3 L23,4 L23,6 L26,6 L26,10 L28,11 L24,12 L24,19 L19,21 L18,24 L16,24 L16,26 L13,26 L12,21 L14,18 L9,18 L6,13 L7,17 L3,19 L0,19 L-1,23 L-6,24 L-5,13 L0,12 L0,8 L-1,3 Z " fill="#060509" transform="translate(96,27)"/>
<path d="M0,0 L14,0 L14,31 L11,39 L5,39 L6,33 L9,33 L9,30 L7,19 L3,15 L1,11 L-6,6 L-6,4 L-9,3 L-9,1 L-5,3 L-1,3 L4,5 L3,1 Z " fill="#1E3438" transform="translate(136,0)"/>
<path d="M0,0 L27,0 L27,3 L20,3 L20,4 L26,5 L26,6 L19,7 L19,8 L30,8 L40,10 L40,13 L37,14 L37,12 L23,12 L17,14 L10,15 L6,13 L-4,13 L-13,15 L-10,12 L-4,10 L3,10 L3,5 L-2,6 Z " fill="#37293A" transform="translate(41,0)"/>
<path d="M0,0 L2,1 L1,6 L3,6 L4,4 L4,6 L6,6 L10,15 L13,17 L13,23 L10,23 L10,28 L14,30 L10,31 L13,33 L13,36 L10,36 L12,38 L5,37 L2,34 L4,31 L0,28 L0,26 L2,26 L0,23 L-8,21 L-10,16 L-9,15 L-12,13 L-12,4 L-10,4 L-10,10 L-7,10 L-6,3 L-3,2 L-3,20 L2,21 L3,18 L4,20 L7,20 L7,22 L9,21 L8,18 L9,16 L7,16 L7,14 L5,14 L5,9 L1,10 L1,8 L-2,8 L-2,4 L0,4 Z " fill="#685E60" transform="translate(12,31)"/>
<path d="M0,0 L12,0 L18,3 L18,6 L13,5 L12,9 L16,11 L19,14 L5,12 L4,9 L7,10 L8,8 L10,8 L11,2 L9,2 L9,4 L6,5 L0,2 L-1,9 L1,9 L1,11 L-6,10 L-6,7 L-9,7 L-9,9 L-18,10 L-24,13 L-31,14 L-31,11 L-24,9 L-19,7 L-16,7 L-16,5 L-31,7 L-30,4 L-34,3 L-27,1 L-17,1 L-13,3 L-1,1 Z " fill="#282B2A" transform="translate(64,11)"/>
<path d="M0,0 L7,0 L10,3 L24,5 L25,8 L30,8 L29,10 L21,11 L14,16 L29,16 L27,12 L30,12 L30,10 L38,11 L34,15 L41,17 L41,18 L11,18 L-1,13 L-1,11 L-4,11 L-4,9 L9,12 L14,13 L14,9 L9,10 L6,7 L4,7 L8,10 L-1,8 L-3,7 L-3,5 L-1,5 L-1,3 L3,2 Z " fill="#1E2C32" transform="translate(19,66)"/>
<path d="M0,0 L30,0 L33,1 L34,5 L36,6 L32,5 L29,4 L25,4 L21,1 L24,4 L24,6 L28,8 L33,12 L33,15 L29,15 L28,17 L18,12 L15,10 L15,8 L11,7 L0,1 Z " fill="#04050A" transform="translate(106,0)"/>
<path d="M0,0 L1,3 L-1,8 L-4,7 L-16,12 L-5,11 L-5,13 L-10,15 L-11,17 L-55,17 L-64,15 L-60,13 L-55,13 L-57,11 L-49,11 L-49,13 L-47,14 L-48,15 L-40,16 L-40,14 L-28,12 L-26,9 L-25,10 L-14,9 L-14,7 L-4,4 L-1,4 Z " fill="#393A49" transform="translate(115,67)"/>
<path d="M0,0 L3,0 L4,8 L8,10 L8,15 L3,20 L1,20 L1,23 L-2,23 L-4,27 L0,25 L8,16 L12,15 L10,19 L6,23 L4,23 L2,27 L5,26 L7,26 L7,24 L9,24 L11,20 L16,19 L16,21 L12,25 L16,25 L15,30 L11,31 L10,27 L4,29 L2,33 L-1,33 L-1,35 L-6,37 L-6,32 L-6,29 L-6,24 L-2,20 L0,20 L2,16 L4,10 L-1,11 L-1,2 Z " fill="#938894" transform="translate(129,35)"/>
<path d="M0,0 L1,0 L1,25 L-21,25 L-18,22 L-13,22 L-13,19 L-8,19 L-8,17 L-16,17 L-16,15 L-13,15 L-13,13 L-10,13 L-10,11 L-5,9 L-5,6 L-2,6 L-1,2 Z " fill="#9D9FA9" transform="translate(149,59)"/>
<path d="M0,0 L9,0 L21,7 L24,8 L24,10 L28,12 L37,16 L41,21 L41,23 L37,21 L31,16 L30,20 L30,18 L28,19 L29,25 L28,23 L24,22 L23,25 L20,24 L17,19 L17,17 L25,19 L20,16 L20,14 L18,14 L18,12 L15,11 L15,8 L18,8 L7,3 L8,6 L5,6 L5,4 L0,3 Z " fill="#7D929F" transform="translate(97,0)"/>
<path d="M0,0 L3,0 L3,2 L6,3 L6,11 L3,12 L0,15 L-3,15 L-3,17 L1,18 L1,20 L-6,21 L-5,23 L-19,24 L-19,26 L-28,26 L-27,24 L-18,21 L-16,20 L-16,18 L-10,19 L-8,18 L-7,16 L0,11 L1,9 L-4,9 L-4,7 L1,5 L0,3 L-4,5 L-6,9 L-12,9 L-14,6 L-11,6 L-12,4 L-16,2 L-9,3 L-9,6 L-7,6 L-7,1 L-1,1 Z " fill="#141723" transform="translate(94,57)"/>
<path d="M0,0 L23,0 L23,3 L20,3 L20,5 L15,7 L12,10 L7,11 L7,14 L0,15 L0,10 L-7,11 L-2,7 L0,7 Z " fill="#030203" transform="translate(11,0)"/>
<path d="M0,0 L7,0 L6,5 L13,4 L12,6 L10,5 L10,10 L0,12 L-5,14 L0,15 L-1,18 L-3,18 L-3,20 L-8,22 L-12,22 L-12,20 L-10,20 L-10,17 L-15,18 L-15,21 L-25,19 L-24,16 L-16,16 L-10,14 L-8,14 L-8,12 L2,8 L3,6 L0,6 L0,8 L-6,9 L-5,5 L-3,5 L-3,3 L0,3 Z " fill="#5A555C" transform="translate(34,0)"/>
<path d="M0,0 L4,1 L4,3 L10,2 L13,3 L13,5 L16,5 L15,9 L13,9 L12,7 L10,8 L8,7 L8,9 L6,10 L5,14 L3,14 L3,9 L0,10 L-2,12 L-4,9 L-6,9 L-5,13 L-3,15 L-8,15 L-8,13 L-10,13 L-10,10 L-15,10 L-14,8 L-11,8 L-12,5 L-9,5 L-10,2 L-2,1 L0,2 Z " fill="#221D30" transform="translate(65,39)"/>
<path d="M0,0 L4,2 L4,7 L9,6 L9,8 L7,8 L7,10 L10,11 L10,13 L18,14 L19,17 L17,18 L20,22 L20,24 L15,24 L15,22 L11,22 L10,25 L1,25 L1,23 L3,23 L3,20 L9,19 L9,17 L0,17 L0,14 L-6,14 L-6,13 L4,12 L4,8 L0,8 L-1,5 Z " fill="#4C4657" transform="translate(64,46)"/>
<path d="M0,0 L12,0 L13,3 L17,4 L17,6 L19,5 L19,3 L24,4 L30,7 L31,9 L27,8 L29,12 L29,16 L26,16 L25,19 L23,15 L17,15 L9,10 L13,9 L15,9 L13,7 L8,5 L7,2 L1,2 Z " fill="#050508" transform="translate(85,0)"/>
<path d="M0,0 L17,0 L24,2 L26,5 L31,7 L35,11 L27,10 L30,13 L28,14 L28,12 L23,11 L21,9 L23,6 L14,4 L13,4 L4,2 L2,1 L2,3 L9,5 L10,9 L-9,9 L-8,6 L-7,5 L-9,4 L-6,2 L0,3 Z " fill="#5D5965" transform="translate(68,0)"/>
<path d="M0,0 L3,0 L3,3 L1,3 L1,7 L3,7 L4,2 L6,2 L6,4 L9,3 L11,5 L12,12 L10,18 L6,14 L7,17 L3,19 L0,19 L-1,23 L-6,24 L-5,13 L0,12 L0,8 L-1,3 Z " fill="#16131F" transform="translate(96,27)"/>
<path d="M0,0 L2,0 L2,2 L4,2 L4,4 L7,3 L11,22 L12,27 L11,32 L8,32 L7,35 L7,31 L10,31 L10,25 L6,23 L2,14 L0,5 L-4,6 L-5,8 L-9,7 L-9,3 L-4,1 L0,2 Z " fill="#05060A" transform="translate(15,23)"/>
<path d="M0,0 L2,3 L2,6 L4,6 L6,9 L12,12 L15,20 L16,21 L16,27 L10,31 L3,39 L1,41 L-2,40 L1,36 L4,36 L4,33 L6,33 L8,29 L11,28 L9,22 L6,19 L6,13 L3,12 L4,11 L-1,6 L-2,1 Z " fill="#362B2E" transform="translate(126,22)"/>
<path d="M0,0 L2,1 L-2,5 L-4,5 L-4,7 L1,7 L0,10 L-4,13 L-6,13 L-7,15 L-8,18 L-13,17 L-16,16 L-16,18 L-13,19 L-19,19 L-19,16 L-24,16 L-23,12 L-20,12 L-19,8 L-13,8 L-14,10 L-10,11 L-11,7 L-6,7 L-4,2 Z " fill="#555764" transform="translate(94,59)"/>
<path d="M0,0 L2,0 L2,3 L0,3 L0,5 L4,4 L6,6 L3,9 L3,10 L10,11 L11,15 L9,15 L8,20 L4,21 L2,23 L-1,10 L-3,10 L-3,8 L-5,8 L-5,6 L-7,6 L-7,8 L-12,7 L-13,2 L-7,3 L-6,1 L-6,4 L-3,4 L-3,1 Z " fill="#2C2D33" transform="translate(22,17)"/>
<path d="M0,0 L8,4 L8,16 L5,22 L2,22 L3,17 L-1,17 L1,13 L3,13 L3,11 L-3,14 L-4,16 L-6,16 L-6,18 L-11,21 L-14,20 L-9,15 L-7,15 L-5,11 L-2,9 Z " fill="#0E0C10" transform="translate(142,43)"/>
<path d="M0,0 L5,1 L7,2 L7,4 L12,5 L14,9 L21,10 L25,13 L0,13 Z " fill="#070C0F" transform="translate(0,71)"/>
<path d="M0,0 L4,1 L6,2 L6,5 L4,6 L4,8 L7,8 L7,5 L9,5 L9,22 L6,30 L0,30 L1,24 L4,24 L4,21 L2,10 L-2,6 L-2,2 L0,2 Z " fill="#968E7F" transform="translate(141,9)"/>
<path d="M0,0 L9,1 L11,4 L13,4 L14,2 L17,5 L22,5 L22,3 L24,3 L24,5 L26,5 L25,9 L23,9 L21,12 L14,10 L13,12 L9,14 L9,12 L7,11 L8,7 L8,4 L4,4 L4,6 L-9,7 L-9,5 L-6,4 L2,4 Z " fill="#545160" transform="translate(62,30)"/>
<path d="M0,0 L2,0 L3,3 L7,3 L7,6 L2,8 L2,10 L-1,10 L-1,12 L-4,12 L-4,14 L-1,15 L-6,16 L-12,15 L-13,11 L-17,10 L-15,10 L-14,6 L-13,9 L-9,8 L-9,6 L-5,4 L-2,1 Z " fill="#1E2E41" transform="translate(137,62)"/>
<path d="M0,0 L2,2 L2,8 L1,12 L-2,13 L-2,9 L-3,12 L-11,15 L-16,15 L-16,17 L-22,18 L-23,16 L-26,15 L-26,13 L-21,12 L-20,9 L-17,10 L-19,10 L-19,12 L-15,12 L-14,9 L-10,9 L-9,6 L-7,6 L-7,4 L-3,5 L-6,6 L-6,9 L-3,7 L0,7 L-1,3 Z " fill="#111024" transform="translate(117,59)"/>
<path d="M0,0 L18,0 L21,2 L19,2 L19,4 L8,4 L8,6 L6,7 L7,10 L2,11 L-8,11 L-10,9 L-2,5 L-1,4 L3,3 Z " fill="#696B71" transform="translate(41,72)"/>
<path d="M0,0 L9,3 L17,6 L28,5 L31,7 L31,5 L29,4 L33,3 L33,5 L40,6 L39,10 L9,8 L2,5 Z " fill="#111111" transform="translate(24,63)"/>
<path d="M0,0 L11,0 L11,7 L6,10 L11,10 L10,13 L0,15 Z " fill="#827E55" transform="translate(0,0)"/>
<path d="M0,0 L9,2 L9,0 L11,0 L10,6 L8,6 L7,9 L6,7 L2,11 L1,13 L-2,13 L-2,10 L-13,11 L-18,10 L-18,9 L-9,8 L-9,5 L-6,5 L-5,7 L-1,8 L1,9 L1,7 L-1,7 Z " fill="#1E242E" transform="translate(64,13)"/>
<path d="M0,0 L13,1 L17,3 L17,5 L14,6 L14,4 L0,4 L-6,6 L-13,7 L-17,5 L-27,5 L-36,7 L-33,4 L-27,2 L-12,2 L-13,5 L-3,1 Z " fill="#09070E" transform="translate(64,8)"/>
<path d="M0,0 L5,3 L15,5 L16,9 L22,9 L27,7 L30,8 L30,3 L32,4 L33,9 L35,9 L36,7 L37,11 L31,11 L31,14 L24,13 L20,13 L20,11 L14,10 L9,7 L2,4 Z " fill="#727170" transform="translate(24,56)"/>
<path d="M0,0 L16,0 L16,2 L6,3 L7,8 L3,8 L2,10 L1,7 L-2,7 L-2,10 L-4,10 L-4,12 L-10,14 L-9,6 L-3,4 L3,4 Z " fill="#2F3533" transform="translate(46,23)"/>
<path d="M0,0 L2,0 L2,2 L6,1 L6,6 L8,6 L8,8 L10,8 L11,14 L8,14 L8,12 L4,11 L3,13 L-2,12 L-3,9 L-3,2 L-2,4 L0,4 L-1,1 Z " fill="#0A0A0D" transform="translate(11,39)"/>
<path d="M0,0 L5,1 L6,5 L10,7 L6,8 L9,10 L9,13 L6,13 L8,15 L1,14 L-2,11 L0,8 L-4,5 L-3,3 L1,2 Z " fill="#626268" transform="translate(16,54)"/>
<path d="M0,0 L12,3 L13,7 L7,9 L3,8 L3,6 L-3,7 L-2,9 L-8,9 L-9,4 L-3,4 L-3,2 Z " fill="#0F1E30" transform="translate(63,72)"/>
<path d="M0,0 L1,0 L1,13 L-3,14 L-4,16 L-16,17 L-16,15 L-13,15 L-13,13 L-10,13 L-10,11 L-5,9 L-5,6 L-2,6 L-1,2 Z " fill="#C6C0CD" transform="translate(149,59)"/>
<path d="M0,0 L4,1 L8,4 L8,8 L10,9 L10,11 L15,13 L18,14 L18,16 L22,17 L30,20 L30,21 L22,20 L14,17 L10,13 L7,12 L7,10 L0,8 Z " fill="#7E707F" transform="translate(0,63)"/>
<path d="M0,0 L3,0 L3,2 L6,3 L6,11 L4,11 L4,7 L2,7 L2,9 L-4,9 L-4,7 L1,5 L0,3 L-4,5 L-6,9 L-12,9 L-14,6 L-11,6 L-12,4 L-16,2 L-9,3 L-9,6 L-7,6 L-7,1 L-1,1 Z " fill="#0E0F21" transform="translate(94,57)"/>
<path d="M0,0 L2,0 L2,2 L-2,6 L2,6 L1,11 L-3,12 L-4,8 L-10,10 L-12,14 L-15,14 L-15,16 L-20,18 L-20,13 L-13,10 L-9,7 L-7,7 L-7,5 L-5,5 L-3,1 Z " fill="#B5BAC9" transform="translate(143,54)"/>
<path d="M0,0 L4,3 L4,0 L10,1 L10,6 L7,5 L8,12 L6,11 L6,15 L1,14 L-1,13 L0,6 L2,6 L0,3 Z " fill="#1F1A27" transform="translate(41,40)"/>
<path d="M0,0 L8,1 L12,3 L11,6 L9,5 L9,3 L7,3 L8,6 L6,6 L5,6 L4,10 L-1,11 L-3,11 L-3,6 L-7,3 L-6,1 L-1,2 L0,2 Z " fill="#4A4553" transform="translate(113,27)"/>
<path d="M0,0 L4,2 L2,2 L2,4 L6,3 L10,6 L9,9 L8,9 L8,11 L10,12 L9,14 L13,15 L13,17 L7,15 L7,17 L5,17 L5,15 L3,15 L2,7 L-1,6 L0,3 L-3,3 L-3,1 Z " fill="#171321" transform="translate(89,10)"/>
<path d="M0,0 L2,0 L2,2 L4,2 L4,9 L-1,12 L-5,13 L-4,11 L-2,11 L-2,8 L0,7 L-3,6 L-3,8 L-6,11 L-10,12 L-11,14 L-15,14 L-15,12 L-13,12 L-12,9 L-9,6 L-5,4 L0,4 L-1,1 Z " fill="#726979" transform="translate(113,57)"/>
<path d="M0,0 L2,0 L2,5 L4,5 L5,8 L1,10 L-2,10 L-3,14 L-8,15 L-7,4 L-2,3 L-2,1 Z " fill="#110E13" transform="translate(98,36)"/>
<path d="M0,0 L6,1 L3,2 L3,4 L5,3 L16,3 L16,1 L20,1 L21,7 L18,7 L15,6 L15,8 L1,6 L1,3 L-4,4 L-4,2 L0,2 Z " fill="#39394C" transform="translate(50,33)"/>
<path d="M0,0 L2,1 L2,3 L5,3 L5,7 L7,8 L3,9 L1,9 L-3,10 L-8,11 L-7,15 L-11,15 L-11,10 L-10,7 L-11,1 L-6,3 L-7,8 L0,6 Z " fill="#09060D" transform="translate(117,30)"/>
<path d="M0,0 L2,0 L4,3 L7,4 L6,8 L14,7 L14,9 L10,9 L10,11 L8,13 L6,17 L4,17 L3,10 L0,7 L1,3 L-3,4 L-4,2 Z " fill="#0A1023" transform="translate(96,50)"/>
<path d="M0,0 L5,1 L9,3 L9,6 L4,5 L3,9 L7,11 L10,14 L-4,12 L-5,9 L-2,10 L-1,8 L1,8 L2,2 L0,2 L0,4 L-3,5 L-6,2 Z " fill="#43444A" transform="translate(73,11)"/>
<path d="M0,0 L4,2 L2,3 L4,7 L13,10 L14,13 L10,12 L8,11 L9,14 L3,15 L0,14 Z " fill="#0D0B10" transform="translate(0,44)"/>
<path d="M0,0 L2,1 L1,6 L3,6 L4,4 L4,6 L6,6 L10,15 L13,17 L13,23 L10,23 L9,25 L7,22 L9,21 L8,18 L9,16 L7,16 L7,14 L5,14 L5,9 L1,10 L1,8 L-2,8 L-2,4 L0,4 Z " fill="#363842" transform="translate(12,31)"/>
<path d="M0,0 L2,3 L2,6 L4,6 L6,9 L12,12 L11,19 L8,19 L7,21 L6,19 L6,13 L3,12 L4,11 L-1,6 L-2,1 Z " fill="#6A565F" transform="translate(126,22)"/>
<path d="M0,0 L1,2 L6,1 L6,4 L4,4 L4,6 L-2,8 L-9,11 L-8,8 L-4,8 L-4,6 L-16,8 L-13,5 L-2,1 L-2,3 L0,3 Z " fill="#422B3A" transform="translate(114,72)"/>
<path d="M0,0 L7,0 L10,3 L24,5 L25,8 L30,8 L29,10 L21,11 L17,13 L17,8 L7,5 L3,3 Z " fill="#49454A" transform="translate(19,66)"/>
<path d="M0,0 L9,0 L21,7 L20,12 L22,13 L16,12 L15,8 L18,8 L7,3 L8,6 L5,6 L5,4 L0,3 Z " fill="#9CA1A7" transform="translate(97,0)"/>
<path d="M0,0 L5,1 L11,2 L13,5 L18,7 L22,11 L14,10 L17,13 L15,14 L15,12 L10,11 L8,9 L10,6 L1,4 Z " fill="#656071" transform="translate(81,0)"/>
<path d="M0,0 L8,1 L18,4 L19,4 L19,9 L16,10 L16,6 L10,7 L7,4 L5,4 L9,7 L0,5 L-2,4 L-2,2 L0,2 Z " fill="#0C0911" transform="translate(18,69)"/>
<path d="M0,0 L2,0 L5,4 L6,14 L2,14 L0,18 L0,21 L-2,24 L-6,23 L-6,18 L0,16 L0,9 L3,8 L0,2 Z " fill="#4D515E" transform="translate(120,30)"/>
<path d="M0,0 L14,0 L14,10 L9,8 L4,5 L3,1 Z " fill="#49545E" transform="translate(136,0)"/>
<path d="M0,0 L6,1 L6,3 L9,3 L8,7 L6,7 L5,5 L3,6 L1,5 L1,7 L-1,8 L-2,12 L-4,12 L-5,2 Z " fill="#1E2539" transform="translate(72,41)"/>
<path d="M0,0 L2,0 L0,4 L-4,8 L-6,8 L-8,12 L-10,16 L-15,17 L-16,9 L-11,5 L-9,6 L-9,8 L-12,8 L-14,12 L-10,10 L-2,1 Z " fill="#6C5C6E" transform="translate(139,50)"/>
<path d="M0,0 L8,0 L9,3 L9,5 L10,7 L7,7 L6,11 L4,11 L4,8 L-4,8 L-6,6 L-1,5 L-1,3 L2,3 L2,1 Z " fill="#202232" transform="translate(81,52)"/>
<path d="M0,0 L3,1 L1,1 L1,3 L5,4 L7,7 L4,7 L4,12 L1,12 L0,13 L-3,12 L-4,14 L-6,14 L-4,7 L-1,7 L0,4 L-2,4 L-3,1 Z " fill="#736D7A" transform="translate(88,31)"/>
<path d="M0,0 L6,0 L6,2 L11,3 L12,5 L16,6 L15,9 L13,9 L13,7 L11,7 L12,11 L10,12 L10,9 L4,11 L3,9 L5,8 L5,4 L0,3 Z " fill="#5A585E" transform="translate(68,24)"/>
<path d="M0,0 L2,0 L2,3 L8,2 L8,0 L11,0 L10,3 L4,6 L0,6 L0,8 L-6,9 L-8,8 L-8,5 L-5,4 L-3,2 L-2,3 Z " fill="#393A39" transform="translate(26,6)"/>
<path d="M0,0 L3,3 L6,4 L5,11 L3,17 L-3,17 L-2,11 L1,11 L1,8 Z " fill="#524941" transform="translate(144,22)"/>
<path d="M0,0 L4,0 L4,2 L0,4 L-2,3 L-2,6 L-3,7 L2,8 L2,11 L-5,11 L-5,6 L-12,5 L-8,4 L-8,2 Z " fill="#28282E" transform="translate(69,63)"/>
<path d="M0,0 L3,1 L4,3 L9,3 L9,1 L11,1 L11,3 L13,3 L12,7 L10,7 L8,10 L5,9 L5,7 L1,7 L1,4 L-3,3 L0,2 Z " fill="#302C3B" transform="translate(75,32)"/>
<path d="M0,0 L5,5 L2,6 L1,9 L-3,9 L-3,7 L-5,7 L-6,12 L-8,12 L-8,8 L-6,8 L-6,5 L-9,5 L-9,3 L-3,5 L-3,3 L-5,2 Z " fill="#514E5D" transform="translate(105,22)"/>
<path d="M0,0 L17,0 L17,3 L10,3 L10,4 L16,5 L16,6 L6,6 L4,5 L4,3 L1,4 Z " fill="#09080B" transform="translate(51,0)"/>
<path d="M0,0 L1,0 L1,16 L-4,14 L-8,12 L-8,9 L-2,8 L-1,2 Z " fill="#030305" transform="translate(149,31)"/>
<path d="M0,0 L2,1 L0,8 L3,6 L6,6 L7,0 L12,0 L12,4 L7,8 L5,8 L5,10 L-1,10 L-3,8 L-3,1 Z " fill="#181725" transform="translate(36,29)"/>
<path d="M0,0 L5,1 L7,5 L11,6 L3,9 L-2,10 L-3,3 Z " fill="#473C42" transform="translate(53,3)"/>
<path d="M0,0 L12,1 L19,5 L23,6 L24,9 L16,8 L7,4 L1,2 Z " fill="#383537" transform="translate(21,61)"/>
<path d="M0,0 L2,0 L0,16 L-2,16 L-2,13 L-7,11 L-7,2 L-5,2 L-5,8 L-2,8 L-1,1 Z " fill="#878789" transform="translate(7,33)"/>
<path d="M0,0 L11,3 L11,1 L21,4 L21,7 L18,9 L11,6 L4,4 L2,5 L2,2 L0,2 Z " fill="#222129" transform="translate(70,1)"/>
<path d="M0,0 L8,0 L8,2 L10,3 L9,4 L17,5 L17,6 L2,6 L-7,4 L-3,2 L2,2 Z " fill="#646E88" transform="translate(58,78)"/>
<path d="M0,0 L4,2 L5,6 L0,6 L0,4 L-4,4 L-5,7 L-14,7 L-14,5 L-12,5 L-12,2 L-1,1 Z " fill="#6D697B" transform="translate(79,64)"/>
<path d="M0,0 L1,3 L-1,8 L-4,7 L-16,12 L-17,13 L-22,13 L-23,10 L-14,9 L-14,7 L-4,4 L-1,4 Z " fill="#7A6A79" transform="translate(115,67)"/>
<path d="M0,0 L2,2 L2,8 L1,12 L-2,13 L-2,9 L-3,12 L-9,13 L-11,10 L-9,6 L-7,6 L-7,4 L-3,5 L-6,6 L-6,9 L-3,7 L0,7 L-1,3 Z " fill="#201826" transform="translate(117,59)"/>
<path d="M0,0 L3,1 L3,3 L7,5 L11,6 L11,9 L9,9 L9,12 L5,11 L5,9 L3,9 L1,6 L-2,5 L-1,2 Z " fill="#65707A" transform="translate(128,16)"/>
<path d="M0,0 L1,0 L3,7 L1,9 L0,13 L-4,15 L-7,15 L-5,9 L-4,6 L-3,3 L0,4 Z " fill="#150D14" transform="translate(122,59)"/>
<path d="M0,0 L4,2 L5,4 L19,7 L19,9 L14,10 L10,11 L6,10 L6,6 L0,5 Z " fill="#686772" transform="translate(34,55)"/>
<path d="M0,0 L4,1 L4,4 L2,4 L2,9 L-2,12 L-3,4 L-8,4 L-8,2 L-2,1 L0,2 Z " fill="#0D172D" transform="translate(65,39)"/>
<path d="M0,0 L4,1 L3,3 L5,4 L3,9 L-1,10 L-1,8 L-5,7 L-4,5 L-2,5 L-2,3 L-5,4 L-5,2 Z " fill="#797885" transform="translate(75,49)"/>
<path d="M0,0 L8,0 L11,5 L13,5 L14,9 L8,7 L7,10 L5,9 L5,5 L0,2 Z " fill="#5C5B5B" transform="translate(79,18)"/>
<path d="M0,0 L6,0 L6,2 L2,2 L2,4 L7,6 L9,12 L9,15 L2,13 L3,9 L5,8 L-1,4 Z " fill="#232124" transform="translate(77,16)"/>
<path d="M0,0 L9,0 L11,1 L11,3 L14,4 L12,6 L10,6 L12,7 L12,9 L7,7 L3,4 L0,3 Z " fill="#636171" transform="translate(0,58)"/>
<path d="M0,0 L2,0 L2,7 L9,8 L13,12 L3,10 L-1,8 L3,12 L-1,11 L-4,8 L-3,5 L0,5 Z " fill="#1E1D2A" transform="translate(26,50)"/>
<path d="M0,0 L2,1 L3,7 L2,8 L-8,9 L-10,8 L-9,2 L-6,2 L-6,5 L-4,5 L-4,7 L-2,5 L-2,1 Z " fill="#7C758B" transform="translate(61,47)"/>
<path d="M0,0 L12,0 L13,3 L17,4 L16,9 L8,5 L7,2 L1,2 Z " fill="#2B2538" transform="translate(85,0)"/>
<path d="M0,0 L10,3 L7,0 L12,1 L13,4 L18,3 L18,7 L11,7 L1,3 Z " fill="#615F5E" transform="translate(15,72)"/>
<path d="M0,0 L5,0 L5,2 L0,4 L-1,6 L-15,6 L-11,4 Z " fill="#827E8F" transform="translate(105,78)"/>
<path d="M0,0 L4,3 L4,6 L9,6 L9,8 L4,9 L4,11 L-2,11 L-2,6 L1,4 Z " fill="#56515E" transform="translate(101,39)"/>
<path d="M0,0 L1,3 L-2,6 L0,7 L-1,9 L-4,8 L-4,6 L-6,8 L-6,10 L-12,12 L-18,12 L-15,10 L-13,10 L-13,8 L-9,8 L-9,6 L-3,3 L-1,3 Z " fill="#0D0D1C" transform="translate(119,51)"/>
<path d="M0,0 L6,1 L6,3 L3,3 L3,6 L1,6 L1,8 L-5,10 L-4,2 Z " fill="#494C56" transform="translate(41,27)"/>
<path d="M0,0 L9,0 L6,2 L2,3 L0,2 L-1,9 L1,9 L1,11 L-2,10 L-4,4 L-10,4 L-6,2 Z " fill="#292737" transform="translate(64,11)"/>
<path d="M0,0 L6,0 L6,2 L12,1 L12,3 L6,5 L6,3 L3,3 L3,5 L-6,5 L-7,3 L-3,2 L-1,3 Z " fill="#3F3938" transform="translate(124,78)"/>
<path d="M0,0 L5,1 L10,5 L12,6 L13,11 L14,13 L10,13 L10,11 L5,9 L8,8 L8,6 L4,4 L0,2 Z " fill="#0E0910" transform="translate(0,61)"/>
<path d="M0,0 L2,0 L2,3 L5,2 L11,3 L10,5 L7,6 L7,8 L5,10 L2,10 L2,5 L-1,5 Z " fill="#5D5C74" transform="translate(49,36)"/>
<path d="M0,0 L13,0 L16,1 L17,5 L19,6 L15,5 L12,4 L8,4 L4,1 L3,3 Z " fill="#27383E" transform="translate(123,0)"/>
<path d="M0,0 L2,0 L2,2 L7,4 L10,5 L10,7 L14,8 L22,11 L22,12 L14,11 L6,8 L2,4 L-1,2 Z " fill="#787176" transform="translate(8,72)"/>
<path d="M0,0 L10,2 L12,8 L8,7 L6,6 L6,8 L4,8 L4,6 L2,5 L2,2 L0,2 Z " fill="#5C545D" transform="translate(98,13)"/>
<path d="M0,0 L2,3 L5,2 L6,5 L4,5 L4,7 L10,5 L14,6 L11,6 L11,8 L14,9 L9,10 L3,9 L2,5 L-2,4 L0,4 Z " fill="#4A3A47" transform="translate(122,68)"/>
<path d="M0,0 L2,0 L2,2 L5,3 L5,11 L3,11 L3,7 L1,7 L1,9 L-5,9 L-5,7 L0,5 Z " fill="#070A20" transform="translate(95,57)"/>
<path d="M0,0 L5,1 L6,5 L10,7 L8,8 L-1,6 L-4,5 L-3,3 L1,2 Z " fill="#BDC0C4" transform="translate(16,54)"/>
<path d="M0,0 L2,1 L14,3 L14,6 L7,5 L2,4 L2,7 L-1,7 L-2,3 Z " fill="#333939" transform="translate(67,21)"/>
<path d="M0,0 L1,2 L-2,2 L-2,4 L-5,4 L-5,7 L-15,5 L-14,2 L-6,2 Z " fill="#525B67" transform="translate(24,14)"/>
<path d="M0,0 L7,1 L10,0 L10,2 L13,2 L13,5 L16,6 L14,8 L14,6 L8,6 L0,1 Z " fill="#4D4A4C" transform="translate(94,9)"/>
<path d="M0,0 L4,0 L3,6 L1,12 L0,10 L-7,11 L-2,7 L0,7 Z " fill="#16141E" transform="translate(11,0)"/>
<path d="M0,0 L1,0 L1,12 L-8,12 L-8,10 L-2,8 L-1,2 Z " fill="#0F0B1A" transform="translate(149,72)"/>
<path d="M0,0 L2,4 L6,3 L10,4 L18,3 L18,5 L11,7 L7,7 L7,5 L-2,5 L-2,1 Z " fill="#221B1B" transform="translate(123,73)"/>
<path d="M0,0 L2,0 L2,2 L-2,6 L2,6 L1,11 L-3,12 L-4,11 L-4,5 L-4,2 Z " fill="#7E9EAB" transform="translate(143,54)"/>
<path d="M0,0 L1,3 L4,4 L4,6 L2,6 L1,11 L-1,12 L-1,9 L-3,9 L-4,5 Z " fill="#7B7482" transform="translate(39,40)"/>
<path d="M0,0 L6,0 L9,7 L8,11 L3,6 L0,2 Z " fill="#0A080F" transform="translate(105,20)"/>
<path d="M0,0 L4,2 L-3,3 L-3,5 L-7,5 L-7,7 L-4,8 L-6,11 L-8,10 L-8,13 L-10,13 L-10,9 L-8,9 L-8,7 L-10,6 L-7,3 L-4,3 L-4,1 Z " fill="#5C5867" transform="translate(53,30)"/>
<path d="M0,0 L3,0 L3,7 L0,11 L-6,8 L-4,4 L-1,4 Z " fill="#6C687C" transform="translate(31,32)"/>
<path d="M0,0 L4,1 L6,2 L6,5 L4,6 L4,8 L1,9 L-2,6 L-2,2 L0,2 Z " fill="#7B8A94" transform="translate(141,9)"/>
<path d="M0,0 L2,1 L2,3 L5,3 L5,7 L7,8 L3,9 L1,9 L-3,10 L-6,9 L-5,7 L0,6 Z " fill="#211E27" transform="translate(117,30)"/>
<path d="M0,0 L8,2 L11,2 L12,8 L11,6 L7,5 L6,8 L3,7 L0,2 Z " fill="#7E8A92" transform="translate(114,17)"/>
<path d="M0,0 L2,0 L2,2 L4,4 L2,4 L2,7 L8,6 L6,7 L6,10 L1,9 L-1,5 L-3,5 L-2,2 L0,2 Z " fill="#202726" transform="translate(31,18)"/>
<path d="M0,0 L5,1 L11,4 L12,6 L8,5 L7,8 L3,7 L3,5 L0,4 Z " fill="#2A2735" transform="translate(104,3)"/>
<path d="M0,0 L4,0 L4,7 L1,9 L-3,9 L-2,5 Z " fill="#9B989A" transform="translate(7,0)"/>
<path d="M0,0 L1,0 L1,13 L-2,12 L-2,9 L0,9 L0,7 L-4,7 L-4,11 L-10,12 L-7,9 L-5,9 L-5,6 L-2,6 L-1,2 Z " fill="#83818C" transform="translate(149,59)"/>
<path d="M0,0 L2,1 L3,6 L5,6 L6,4 L7,8 L1,8 L1,11 L-2,10 L-2,6 L-6,5 L-3,4 L0,5 Z " fill="#514F52" transform="translate(54,59)"/>
<path d="M0,0 L4,1 L4,3 L9,4 L9,2 L11,2 L12,6 L4,6 L0,5 L-4,6 L-3,3 L-1,3 Z " fill="#504F59" transform="translate(96,46)"/>
<path d="M0,0 L7,0 L9,5 L5,6 L5,3 L-4,4 L-4,1 Z " fill="#4F525B" transform="translate(53,15)"/>
<path d="M0,0 L13,1 L13,3 L8,4 L-2,4 L-4,2 Z " fill="#5A8095" transform="translate(35,79)"/>
<path d="M0,0 L2,0 L1,4 L0,6 L-4,7 L-5,9 L-9,9 L-9,7 L-7,7 L-6,4 L-3,1 Z " fill="#726982" transform="translate(107,62)"/>
<path d="M0,0 L2,0 L2,2 L5,2 L4,7 L3,4 L0,4 L-1,9 L-5,8 L-2,1 L0,1 Z " fill="#3D3842" transform="translate(87,41)"/>
<path d="M0,0 L2,1 L1,6 L3,6 L4,4 L4,6 L6,6 L7,11 L1,10 L1,8 L-2,8 L-2,4 L0,4 Z " fill="#646764" transform="translate(12,31)"/>
<path d="M0,0 L12,1 L16,3 L16,5 L13,6 L13,4 L-1,3 Z " fill="#0D0B13" transform="translate(65,8)"/>
<path d="M0,0 L2,1 L3,3 L2,6 L-1,8 L0,10 L-5,11 L-5,7 L-8,7 L-9,4 L0,4 Z " fill="#3D3E47" transform="translate(107,47)"/>
<path d="M0,0 L6,1 L11,2 L10,6 L9,4 L5,4 L4,7 L0,5 Z " fill="#393640" transform="translate(25,40)"/>
<path d="M0,0 L5,0 L4,6 L-9,7 L-9,5 L-6,4 L2,4 Z " fill="#5B5466" transform="translate(62,30)"/>
<path d="M0,0 L3,0 L8,5 L9,8 L3,7 L-1,3 Z " fill="#353C49" transform="translate(124,7)"/>
<path d="M0,0 L4,0 L4,8 L2,11 L0,11 Z " fill="#101413" transform="translate(19,0)"/>
<path d="M0,0 L9,3 L14,6 L14,8 L7,7 L6,4 L2,4 Z " fill="#272435" transform="translate(32,53)"/>
<path d="M0,0 L1,3 L-2,7 L-4,7 L-4,9 L-9,12 L-12,11 L-7,6 L-5,6 L-3,2 Z " fill="#17121F" transform="translate(140,52)"/>
<path d="M0,0 L2,0 L4,5 L7,10 L2,11 L3,7 L-1,6 L-2,3 Z " fill="#090809" transform="translate(122,23)"/>
<path d="M0,0 L7,0 L7,3 L3,5 L4,9 L0,9 Z " fill="#000007" transform="translate(0,21)"/>
<path d="M0,0 L11,3 L13,4 L13,6 L15,7 L7,6 L3,4 L3,2 L0,2 Z " fill="#1A1415" transform="translate(15,75)"/>
<path d="M0,0 L5,1 L5,3 L7,3 L8,9 L5,8 L4,5 L0,7 L-1,4 Z " fill="#120F19" transform="translate(29,43)"/>
<path d="M0,0 L2,1 L3,8 L1,14 L-2,10 L0,9 L-1,5 L-3,5 L-3,2 L0,2 Z " fill="#302C3B" transform="translate(105,31)"/>
<path d="M0,0 L2,4 L2,10 L-2,10 L-2,5 L-4,8 L-4,1 Z " fill="#29292A" transform="translate(15,27)"/>
<path d="M0,0 L3,1 L4,4 L11,5 L11,7 L0,7 Z " fill="#7F8E9C" transform="translate(0,77)"/>
<path d="M0,0 L14,0 L12,2 L8,3 L-1,3 L-2,1 Z " fill="#6F7381" transform="translate(78,80)"/>
<path d="M0,0 L3,1 L1,1 L1,3 L4,4 L-1,6 L4,7 L1,9 L-2,9 L-3,7 L-6,6 L-6,4 L-1,3 Z " fill="#454F5D" transform="translate(97,68)"/>
<path d="M0,0 L2,2 L0,2 L-1,13 L-4,11 L-4,2 Z " fill="#201F24" transform="translate(129,32)"/>
<path d="M0,0 L6,2 L6,4 L2,5 L1,7 L-3,6 L-3,2 Z " fill="#010103" transform="translate(9,24)"/>
<path d="M0,0 L7,1 L8,4 L11,5 L11,7 L14,7 L14,10 L9,8 L4,5 L3,1 Z " fill="#B6BFC8" transform="translate(136,0)"/>
<path d="M0,0 L3,1 L1,7 L-3,9 L-2,5 L-1,3 L-5,4 L-9,2 L-1,1 Z " fill="#968198" transform="translate(146,73)"/>
<path d="M0,0 L2,1 L-2,5 L-4,5 L-4,7 L1,7 L-3,9 L-6,10 L-6,8 L-10,7 L-6,7 L-4,2 Z " fill="#27283C" transform="translate(94,59)"/>
<path d="M0,0 L12,0 L15,1 L15,3 L6,4 L6,1 L0,1 Z " fill="#817888" transform="translate(58,59)"/>
<path d="M0,0 L2,0 L0,5 L-7,12 L-10,11 L-7,7 L-4,7 L-4,4 L-2,4 Z " fill="#100B11" transform="translate(134,51)"/>
<path d="M0,0 L1,3 L3,3 L3,5 L0,5 L0,7 L-5,6 L-6,1 L0,2 Z " fill="#373F43" transform="translate(15,18)"/>
<path d="M0,0 L4,2 L8,2 L12,4 L9,6 L11,7 L11,9 L7,8 L3,5 L3,3 L0,2 Z " fill="#497078" transform="translate(127,1)"/>
<path d="M0,0 L2,0 L4,3 L7,4 L5,8 L4,8 L0,6 L1,3 L-3,4 L-4,2 Z " fill="#252731" transform="translate(96,50)"/>
<path d="M0,0 L6,0 L10,1 L12,2 L11,3 L3,4 L-1,6 Z " fill="#33333B" transform="translate(37,73)"/>
<path d="M0,0 L5,3 L15,5 L16,8 L12,9 L2,4 Z " fill="#5B5965" transform="translate(24,56)"/>
<path d="M0,0 L4,2 L4,7 L9,6 L9,8 L6,9 L0,8 L-1,5 Z " fill="#4A4554" transform="translate(64,46)"/>
<path d="M0,0 L2,0 L5,4 L5,12 L0,11 L0,9 L3,8 L0,2 Z " fill="#6B6A6E" transform="translate(120,30)"/>
<path d="M0,0 L5,0 L5,2 L-5,5 L-7,5 L-7,2 Z " fill="#434B51" transform="translate(40,20)"/>
<path d="M0,0 L4,2 L2,2 L2,4 L6,3 L7,6 L0,7 L-1,5 L0,3 L-3,3 L-3,1 Z " fill="#100F1B" transform="translate(89,10)"/>
<path d="M0,0 L6,0 L5,6 L2,8 L0,4 Z " fill="#0A0B15" transform="translate(127,45)"/>
<path d="M0,0 L4,0 L11,1 L15,5 L1,3 Z " fill="#666767" transform="translate(68,20)"/>
<path d="M0,0 L9,3 L7,6 L2,6 L0,3 Z " fill="#0D1114" transform="translate(64,13)"/>
<path d="M0,0 L5,1 L7,5 L11,6 L3,8 L3,3 L-1,3 Z " fill="#252129" transform="translate(53,3)"/>
<path d="M0,0 L7,0 L7,4 L0,5 Z " fill="#787B87" transform="translate(34,0)"/>
<path d="M0,0 L8,0 L8,3 L2,3 L1,6 L-2,5 Z " fill="#0E0517" transform="translate(41,0)"/>
<path d="M0,0 L2,0 L2,2 L7,0 L11,1 L9,3 L-1,5 Z " fill="#0E1011" transform="translate(127,70)"/>
<path d="M0,0 L3,1 L4,5 L1,6 L1,4 L-6,5 L-6,3 L-2,3 L-2,1 Z " fill="#171224" transform="translate(65,53)"/>
<path d="M0,0 L4,0 L5,6 L-1,6 Z " fill="#3A3B45" transform="translate(142,33)"/>
<path d="M0,0 L5,2 L6,0 L6,14 L4,14 L4,4 L1,5 Z " fill="#2B2024" transform="translate(5,29)"/>
<path d="M0,0 L5,0 L4,3 L2,3 L2,5 L-3,7 L-4,4 L-2,4 L-2,2 L0,2 Z " fill="#989798" transform="translate(29,15)"/>
<path d="M0,0 L3,0 L3,2 L5,3 L2,7 L0,6 L-1,8 L-1,6 L-3,6 L-2,4 Z " fill="#727B7F" transform="translate(118,8)"/>
<path d="M0,0 L4,1 L-3,5 L-8,5 L-9,2 Z " fill="#A7ACB9" transform="translate(101,75)"/>
<path d="M0,0 L8,1 L4,5 L-3,3 L0,2 Z " fill="#141621" transform="translate(49,76)"/>
<path d="M0,0 L5,1 L5,3 L8,1 L12,2 L7,6 L4,6 L4,3 L0,2 Z " fill="#5E6272" transform="translate(83,66)"/>
<path d="M0,0 L2,2 L2,8 L1,12 L-2,13 L-2,9 L-4,12 L-5,9 L-3,7 L0,7 L-1,3 Z " fill="#423942" transform="translate(117,59)"/>
<path d="M0,0 L4,0 L4,2 L0,4 L-8,4 L-8,2 Z " fill="#15111A" transform="translate(69,63)"/>
<path d="M0,0 L2,0 L2,5 L4,5 L5,8 L0,9 L-2,5 Z " fill="#0C0A11" transform="translate(98,36)"/>
<path d="M0,0 L2,0 L2,3 L-12,3 L-12,1 Z " fill="#18182D" transform="translate(67,35)"/>
<path d="M0,0 L1,2 L8,2 L9,6 L6,7 L6,5 L0,4 Z " fill="#0B0A10" transform="translate(65,26)"/>
<path d="M0,0 L1,2 L3,2 L4,4 L9,7 L7,8 L0,5 L-1,7 L-3,6 L-3,4 L0,4 Z " fill="#141824" transform="translate(114,12)"/>
<path d="M0,0 L3,0 L2,3 L-8,7 L-10,7 L-9,4 L-4,4 L-4,2 L0,2 Z " fill="#0A0909" transform="translate(34,6)"/>
<path d="M0,0 L6,0 L8,1 L7,5 L1,4 L2,1 Z " fill="#07070A" transform="translate(56,68)"/>
<path d="M0,0 L12,1 L12,3 L0,3 Z " fill="#9A9A9C" transform="translate(41,61)"/>
<path d="M0,0 L3,1 L2,4 L5,6 L5,8 L0,7 L-2,6 L-2,3 L0,3 Z " fill="#14101B" transform="translate(42,47)"/>
<path d="M0,0 L4,1 L4,4 L2,4 L2,9 L0,10 L0,6 L-2,5 Z " fill="#09172C" transform="translate(65,39)"/>
<path d="M0,0 L5,1 L7,5 L9,5 L10,9 L3,7 L2,2 Z " fill="#817F86" transform="translate(83,18)"/>
<path d="M0,0 L6,2 L10,7 L10,9 L6,7 L0,2 Z " fill="#7A767A" transform="translate(128,14)"/>
<path d="M0,0 L8,1 L12,4 L2,4 L2,1 Z " fill="#0F0D0F" transform="translate(13,80)"/>
<path d="M0,0 L4,2 L5,0 L9,2 L9,4 L1,5 L1,3 L-2,2 L0,2 Z " fill="#1B2127" transform="translate(86,73)"/>
<path d="M0,0 L5,1 L5,3 L-2,5 L-6,5 L-6,3 L-3,3 L-3,1 Z " fill="#B2ADB5" transform="translate(139,71)"/>
<path d="M0,0 L1,4 L-2,10 L-5,10 L-4,4 L-2,4 L-2,2 L0,2 Z " fill="#323D3D" transform="translate(149,55)"/>
<path d="M0,0 L2,1 L3,7 L2,8 L-4,8 L-2,5 L-2,1 Z " fill="#6D6678" transform="translate(61,47)"/>
<path d="M0,0 L2,0 L2,2 L7,2 L8,7 L5,7 L5,5 L-2,4 L1,3 Z " fill="#303248" transform="translate(55,41)"/>
<path d="M0,0 L4,1 L8,2 L7,5 L5,5 L5,3 L3,3 L4,7 L2,8 Z " fill="#928C9B" transform="translate(76,28)"/>
<path d="M0,0 L7,1 L11,3 L10,6 L8,5 L8,3 L6,3 L7,6 L5,6 L2,3 L2,1 Z " fill="#3E3C3F" transform="translate(114,27)"/>
<path d="M0,0 L3,0 L1,6 L-5,5 Z " fill="#ADAAC2" transform="translate(142,76)"/>
<path d="M0,0 L5,0 L3,6 L0,7 L-1,1 Z " fill="#100B18" transform="translate(48,55)"/>
<path d="M0,0 L2,0 L0,4 L-4,8 L-6,8 L-6,10 L-8,10 L-6,6 L-2,1 Z " fill="#908996" transform="translate(139,50)"/>
<path d="M0,0 L3,1 L4,6 L6,5 L5,11 L2,11 L2,5 L0,5 Z " fill="#353F45" transform="translate(0,30)"/>
<path d="M0,0 L2,0 L3,3 L-1,5 L-1,8 L-6,7 L-7,3 L-5,3 L-5,5 L-1,2 Z " fill="#514B5B" transform="translate(86,28)"/>
<path d="M0,0 L1,3 L5,4 L6,7 L8,8 L4,8 L3,10 L2,4 L-1,3 Z " fill="#0C121B" transform="translate(125,18)"/>
<path d="M0,0 L2,1 L2,3 L11,4 L11,5 L-1,5 Z " fill="#293E48" transform="translate(49,79)"/>
<path d="M0,0 L3,2 L1,6 L-5,8 L-4,5 L0,5 L0,3 L-5,3 L-2,1 Z " fill="#5A4C5F" transform="translate(110,75)"/>
<path d="M0,0 L6,0 L5,2 L2,2 L2,4 L5,5 L0,6 L-1,6 L-1,1 Z " fill="#191A29" transform="translate(75,67)"/>
<path d="M0,0 L8,0 L4,1 L4,3 L11,2 L11,4 L3,4 L-1,1 Z " fill="#433B4F" transform="translate(55,55)"/>
<path d="M0,0 L4,0 L5,6 L2,6 L-1,5 L-1,7 L-4,6 L-3,4 L3,4 L3,1 L0,2 Z " fill="#2C2E40" transform="translate(66,34)"/>
<path d="M0,0 L1,2 L4,1 L7,16 L5,16 L3,6 L0,3 Z " fill="#16151D" transform="translate(18,25)"/>
<path d="M0,0 L2,0 L2,5 L0,5 L0,8 L-2,8 L-2,5 L-5,5 L-5,3 L0,3 Z " fill="#B9B8B5" transform="translate(148,14)"/>
<path d="M0,0 L3,0 L3,3 L-7,6 L-7,4 L-3,2 L0,2 Z " fill="#4C525D" transform="translate(136,66)"/>
<path d="M0,0 L1,4 L-3,9 L-7,11 L-5,6 L-1,4 Z " fill="#ADA6B0" transform="translate(135,46)"/>
<path d="M0,0 L3,2 L3,4 L6,5 L4,6 L-6,4 L-6,2 L0,3 Z " fill="#4A4354" transform="translate(37,49)"/>
<path d="M0,0 L2,4 L-6,6 L-7,3 L-4,3 L-4,1 Z " fill="#494C5C" transform="translate(77,45)"/>
<path d="M0,0 L3,1 L3,5 L5,5 L5,7 L1,7 L1,4 L-3,3 L0,2 Z " fill="#312B42" transform="translate(75,32)"/>
<path d="M0,0 L5,2 L5,4 L3,4 L3,7 L0,7 Z " fill="#3D2D39" transform="translate(133,32)"/>
<path d="M0,0 L3,3 L1,3 L1,5 L-5,7 L-5,3 L0,2 Z " fill="#72727F" transform="translate(41,30)"/>
<path d="M0,0 L3,0 L3,4 L-1,6 L-1,3 L-4,4 L-4,1 Z " fill="#444852" transform="translate(62,26)"/>
<path d="M0,0 L2,3 L2,6 L4,6 L2,10 L-2,5 L-1,1 Z " fill="#363F48" transform="translate(126,22)"/>
<path d="M0,0 L5,2 L6,6 L4,8 L3,6 L0,4 Z " fill="#4D4D58" transform="translate(77,5)"/>
<path d="M0,0 L6,0 L6,3 L3,3 L3,5 L0,6 Z " fill="#171B19" transform="translate(28,0)"/>
<path d="M0,0 L7,0 L7,4 L3,4 L3,2 L1,2 L0,5 Z " fill="#473E75" transform="translate(0,0)"/>
<path d="M0,0 L4,1 L4,4 L6,4 L6,8 L3,7 L2,4 L0,3 Z " fill="#456163" transform="translate(0,74)"/>
<path d="M0,0 L4,1 L3,4 L-2,6 L-5,6 L-5,4 L-1,2 Z " fill="#2B2533" transform="translate(133,64)"/>
<path d="M0,0 L5,0 L4,2 L1,2 L1,4 L-4,6 L-4,1 Z " fill="#948696" transform="translate(127,66)"/>
<path d="M0,0 L5,2 L6,6 L9,7 L3,6 Z " fill="#181420" transform="translate(24,63)"/>
<path d="M0,0 L2,0 L4,3 L7,4 L6,7 L1,6 Z " fill="#29222B" transform="translate(8,45)"/>
<path d="M0,0 L5,0 L5,4 L0,7 L0,3 Z " fill="#1A1B23" transform="translate(43,29)"/>
<path d="M0,0 L7,0 L6,3 L1,5 L2,2 L-2,1 Z " fill="#555051" transform="translate(32,13)"/>
<path d="M0,0 L6,1 L10,3 L9,6 L1,2 Z " fill="#211E27" transform="translate(94,9)"/>
<path d="M0,0 L2,0 L3,4 L-3,6 L-7,4 L-3,3 L-1,4 Z " fill="#35484D" transform="translate(73,75)"/>
<path d="M0,0 L4,1 L1,1 L1,3 L6,2 L6,5 L-1,4 L-1,1 Z " fill="#61697B" transform="translate(40,76)"/>
<path d="M0,0 L7,2 L5,3 L4,5 L0,5 L0,3 L-3,4 L-3,2 Z " fill="#363F4A" transform="translate(63,72)"/>
<path d="M0,0 L5,1 L7,2 L7,5 L3,5 L3,3 L0,3 Z " fill="#070606" transform="translate(30,66)"/>
<path d="M0,0 L2,0 L2,2 L-2,6 L2,6 L1,8 L-3,7 L-3,4 L-5,3 Z " fill="#7E8593" transform="translate(143,54)"/>
<path d="M0,0 L10,0 L6,2 L6,4 L0,4 Z " fill="#74717F" transform="translate(99,46)"/>
<path d="M0,0 L4,1 L4,3 L7,3 L6,7 L4,7 L1,3 L-1,2 Z " fill="#333546" transform="translate(74,41)"/>
<path d="M0,0 L3,1 L3,5 L1,5 L1,8 L-2,8 L-3,5 L0,5 Z " fill="#4D5C60" transform="translate(147,9)"/>
<path d="M0,0 L7,2 L6,5 L3,6 L1,5 Z " fill="#262435" transform="translate(85,4)"/>
<path d="M0,0 L9,0 L5,1 L5,4 L0,3 Z " fill="#756A97" transform="translate(97,0)"/>
<path d="M0,0 L8,1 L8,3 L2,2 L3,5 L0,5 Z " fill="#ABA3C2" transform="translate(102,1)"/>
<path d="M0,0 L6,1 L7,5 L1,5 Z " fill="#313A52" transform="translate(54,76)"/>
<path d="M0,0 L4,1 L0,2 L0,4 L-7,5 L-4,2 Z " fill="#272739" transform="translate(105,75)"/>
<path d="M0,0 L2,0 L1,7 L-2,7 L-3,1 Z " fill="#2C2C4A" transform="translate(102,60)"/>
<path d="M0,0 L11,2 L12,4 L2,3 Z " fill="#53525E" transform="translate(21,61)"/>
<path d="M0,0 L3,0 L3,2 L5,2 L5,5 L2,5 L1,7 L-1,4 L1,3 Z " fill="#23232F" transform="translate(20,49)"/>
<path d="M0,0 L5,1 L5,4 L3,4 L3,6 L0,6 L-1,1 Z " fill="#171B20" transform="translate(109,47)"/>
<path d="M0,0 L2,0 L1,5 L3,9 L-2,8 Z " fill="#211E29" transform="translate(96,37)"/>
<path d="M0,0 L7,1 L7,4 L0,3 Z " fill="#42413F" transform="translate(74,23)"/>
<path d="M0,0 L1,2 L-2,2 L-2,4 L-5,4 L-5,7 L-7,7 L-6,2 Z " fill="#9C9EA3" transform="translate(24,14)"/>
<path d="M0,0 L5,1 L8,2 L8,4 L1,4 Z " fill="#A4A1AD" transform="translate(81,0)"/>
<path d="M0,0 L4,1 L1,1 L1,3 L4,4 L-1,5 L-3,4 L-3,1 Z " fill="#575855" transform="translate(132,73)"/>
<path d="M0,0 L7,1 L9,5 L0,2 Z " fill="#D3CFDA" transform="translate(0,69)"/>
<path d="M0,0 L1,2 L-5,5 L-11,5 L-7,2 Z " fill="#332E41" transform="translate(82,61)"/>
<path d="M0,0 L2,1 L2,7 L-2,7 L-2,2 Z " fill="#211E27" transform="translate(108,38)"/>
<path d="M0,0 L2,0 L0,9 L-2,9 L-1,1 Z " fill="#BEB7BB" transform="translate(7,33)"/>
<path d="M0,0 L4,5 L5,7 L4,9 L2,9 L2,7 L0,7 Z " fill="#282433" transform="translate(92,18)"/>
<path d="M0,0 L2,1 L1,4 L7,4 L7,5 L-3,6 L-5,4 L0,3 Z " fill="#383D42" transform="translate(48,15)"/>
<path d="M0,0 L7,0 L7,3 L0,3 Z " fill="#50575D" transform="translate(0,17)"/>
<path d="M0,0 L6,0 L6,2 L2,2 L2,4 L5,5 L2,6 L-1,4 Z " fill="#151617" transform="translate(77,16)"/>
<path d="M0,0 L6,2 L10,6 L5,5 L0,3 Z " fill="#A09CA7" transform="translate(93,5)"/>
<path d="M0,0 L3,0 L3,3 L1,3 L1,5 L-3,5 L-1,1 Z " fill="#130A16" transform="translate(113,78)"/>
<path d="M0,0 L5,1 L7,3 L6,5 L0,3 Z " fill="#282D36" transform="translate(0,71)"/>
<path d="M0,0 L2,1 L2,3 L6,5 L2,6 L2,4 L-3,2 Z " fill="#151217" transform="translate(8,68)"/>
<path d="M0,0 L7,2 L7,5 L1,4 Z " fill="#858390" transform="translate(18,62)"/>
<path d="M0,0 L7,0 L9,2 L3,3 L0,2 Z " fill="#1E212E" transform="translate(0,56)"/>
<path d="M0,0 L3,1 L3,3 L0,3 L-2,7 L-4,8 L-4,4 Z " fill="#827985" transform="translate(127,55)"/>
<path d="M0,0 L10,3 L10,5 L5,4 L0,1 Z " fill="#7B7686" transform="translate(36,53)"/>
<path d="M0,0 L1,3 L-2,6 L0,7 L-1,9 L-4,8 L-5,5 L-1,3 Z " fill="#191E1E" transform="translate(119,51)"/>
<path d="M0,0 L3,0 L3,3 L1,4 L2,6 L-3,7 Z " fill="#57595A" transform="translate(16,51)"/>
<path d="M0,0 L2,1 L5,0 L6,4 L2,5 L0,5 Z " fill="#211C24" transform="translate(141,50)"/>
<path d="M0,0 L4,1 L3,3 L-5,4 L-5,2 Z " fill="#9493A0" transform="translate(75,49)"/>
<path d="M0,0 L3,0 L3,5 L-1,5 Z " fill="#A3979B" transform="translate(129,35)"/>
<path d="M0,0 L4,2 L3,4 L7,5 L7,7 L2,5 L0,3 Z " fill="#151221" transform="translate(95,20)"/>
<path d="M0,0 L7,0 L7,2 L-3,3 L0,2 Z " fill="#4C515B" transform="translate(55,23)"/>
<path d="M0,0 L2,1 L4,7 L3,11 L-1,1 Z " fill="#201D29" transform="translate(110,20)"/>
<path d="M0,0 L3,1 L3,3 L7,5 L3,6 L0,3 Z " fill="#121419" transform="translate(128,16)"/>
<path d="M0,0 L3,1 L2,4 L-5,6 L-6,4 L-1,2 Z " fill="#483D41" transform="translate(37,6)"/>
<path d="M0,0 L4,0 L4,3 L-2,4 L-4,2 Z " fill="#8FA2B3" transform="translate(35,79)"/>
<path d="M0,0 L1,3 L4,2 L4,4 L-5,4 L-6,2 L-2,1 L0,2 Z " fill="#35303F" transform="translate(123,79)"/>
<path d="M0,0 L5,1 L4,5 L-1,4 Z " fill="#565B67" transform="translate(71,71)"/>
<path d="M0,0 L4,3 L9,5 L9,6 L2,5 L-1,2 Z " fill="#878195" transform="translate(15,63)"/>
<path d="M0,0 L2,0 L2,2 L6,4 L8,5 L8,7 L3,5 L0,2 Z " fill="#9D94A1" transform="translate(4,60)"/>
<path d="M0,0 L5,1 L5,4 L2,5 L2,3 L0,2 Z " fill="#585C65" transform="translate(105,53)"/>
<path d="M0,0 L5,1 L6,4 L2,5 Z " fill="#939496" transform="translate(16,54)"/>
<path d="M0,0 L1,3 L-1,7 L-6,4 L-6,2 L-1,3 Z " fill="#848189" transform="translate(15,49)"/>
<path d="M0,0 L4,2 L4,7 L1,7 Z " fill="#77716E" transform="translate(138,41)"/>
<path d="M0,0 L7,0 L5,1 L5,4 L0,3 Z " fill="#181F23" transform="translate(32,24)"/>
<path d="M0,0 L2,0 L3,6 L-1,6 L-2,3 Z " fill="#010203" transform="translate(122,23)"/>
<path d="M0,0 L6,1 L7,4 L3,5 L3,2 L0,2 Z " fill="#6B7180" transform="translate(55,16)"/>
<path d="M0,0 L1,2 L4,2 L4,6 L0,6 L-1,2 Z " fill="#2D2D3D" transform="translate(85,11)"/>
<path d="M0,0 L3,0 L3,2 L5,2 L5,4 L0,5 Z " fill="#8F9194" transform="translate(0,10)"/>
<path d="M0,0 L6,0 L8,1 L7,4 L1,2 Z " fill="#121021" transform="translate(106,0)"/>
<path d="M0,0 L3,1 L1,1 L1,3 L4,4 L-2,5 L-3,3 L-1,3 Z " fill="#35364B" transform="translate(97,68)"/>
<path d="M0,0 L7,0 L9,4 L3,4 L3,2 Z " fill="#544E61" transform="translate(19,66)"/>
<path d="M0,0 L2,0 L2,2 L5,3 L5,7 L3,7 L3,4 L0,3 Z " fill="#C4BCC1" transform="translate(2,42)"/>
<path d="M0,0 L4,0 L4,3 L8,4 L0,4 Z " fill="#3C3A52" transform="translate(72,36)"/>
<path d="M0,0 L2,1 L1,7 L-2,8 L-2,4 L0,4 Z " fill="#969090" transform="translate(12,31)"/>
<path d="M0,0 L3,0 L3,3 L1,3 L1,8 L-1,7 Z " fill="#3F3E47" transform="translate(96,27)"/>
<path d="M0,0 L5,1 L5,3 L3,3 L2,7 L2,5 L0,4 L0,1 Z " fill="#3F434C" transform="translate(28,29)"/>
<path d="M0,0 L5,0 L5,3 L3,3 L3,6 L0,5 L2,5 L2,3 L0,3 Z " fill="#484B52" transform="translate(134,22)"/>
<path d="M0,0 L2,0 L1,9 L0,7 L-2,7 Z " fill="#42454C" transform="translate(19,18)"/>
<path d="M0,0 L3,1 L4,7 L3,5 L-2,3 L-3,1 Z " fill="#5E6A75" transform="translate(122,18)"/>
<path d="M0,0 L6,0 L6,3 L0,3 Z " fill="#696663" transform="translate(40,12)"/>
<path d="M0,0 L4,1 L6,2 L5,5 L-2,3 L0,2 Z " fill="#859BA0" transform="translate(141,9)"/>
<path d="M0,0 L2,0 L2,3 L4,4 L-1,5 L-3,7 L-2,3 Z " fill="#312F2D" transform="translate(26,6)"/>
<path d="M0,0 L2,0 L2,2 L7,4 L7,6 L2,4 L-1,2 Z " fill="#908E93" transform="translate(8,72)"/>
<path d="M0,0 L3,4 L3,5 L-2,5 L-2,1 Z " fill="#060309" transform="translate(123,73)"/>
<path d="M0,0 L5,1 L5,4 L0,3 Z " fill="#2E2F3E" transform="translate(66,70)"/>
<path d="M0,0 L6,1 L3,4 L-2,5 L-2,3 L0,3 Z " fill="#545261" transform="translate(67,66)"/>
<path d="M0,0 L4,0 L4,3 L9,3 L9,4 L1,5 L3,1 L0,2 Z " fill="#49454F" transform="translate(60,60)"/>
<path d="M0,0 L2,1 L-2,5 L-5,6 L-4,2 Z " fill="#454A5D" transform="translate(94,59)"/>
<path d="M0,0 L3,1 L3,4 L-3,5 L-5,3 L0,2 Z " fill="#302E3E" transform="translate(80,55)"/>
<path d="M0,0 L4,0 L4,5 L0,4 Z " fill="#3A3349" transform="translate(47,41)"/>
<path d="M0,0 L3,0 L3,7 L1,7 L1,5 L-1,4 Z " fill="#8F8C9E" transform="translate(31,32)"/>
<path d="M0,0 L5,0 L4,4 L1,5 Z " fill="#696272" transform="translate(113,33)"/>
<path d="M0,0 L2,0 L1,5 L-1,9 L-2,2 L0,2 Z " fill="#020305" transform="translate(4,31)"/>
<path d="M0,0 L4,2 L1,3 L0,6 L-3,6 L-3,4 L-1,3 Z " fill="#777284" transform="translate(106,25)"/>
<path d="M0,0 L5,1 L8,3 L1,4 Z " fill="#020409" transform="translate(129,26)"/>
<path d="M0,0 L6,1 L6,4 L2,5 L2,2 L0,2 Z " fill="#A6A2A8" transform="translate(98,13)"/>
<path d="M0,0 L8,0 L7,3 L2,4 L2,2 L0,2 Z " fill="#555975" transform="translate(3,10)"/>
<path d="M0,0 L2,0 L3,5 L-2,6 Z " fill="#2C272F" transform="translate(53,7)"/>
<path d="M0,0 L5,0 L5,4 L0,3 Z " fill="#7F7C85" transform="translate(76,0)"/>
<path d="M0,0 L1,3 L3,4 L-4,3 L-4,1 Z " fill="#0D1118" transform="translate(86,76)"/>
<path d="M0,0 L8,4 L5,5 L0,2 Z " fill="#7D6F72" transform="translate(15,72)"/>
<path d="M0,0 L4,0 L4,3 L-2,4 Z " fill="#6E6D6C" transform="translate(48,65)"/>
<path d="M0,0 L4,4 L0,4 L-3,2 Z " fill="#3E404F" transform="translate(90,54)"/>
<path d="M0,0 L1,3 L-3,6 L-5,4 Z " fill="#413E4E" transform="translate(140,52)"/>
<path d="M0,0 L8,0 L8,2 L2,3 L2,1 Z " fill="#33323E" transform="translate(81,52)"/>
<path d="M0,0 L1,3 L4,4 L3,6 L1,5 L0,7 L-2,7 Z " fill="#696271" transform="translate(84,38)"/>
<path d="M0,0 L5,1 L4,3 L0,5 L0,3 L-2,2 Z " fill="#44475F" transform="translate(71,39)"/>
<path d="M0,0 L2,0 L2,3 L5,2 L5,4 L-1,5 Z " fill="#938CA3" transform="translate(49,36)"/>
<path d="M0,0 L2,1 L2,3 L2,6 L-2,4 L-2,1 Z " fill="#14131B" transform="translate(28,31)"/>
<path d="M0,0 L5,1 L4,4 L-1,3 Z " fill="#353242" transform="translate(107,28)"/>
<path d="M0,0 L5,1 L5,4 L-1,3 Z " fill="#6B686B" transform="translate(87,25)"/>
<path d="M0,0 L7,0 L5,3 L2,3 L-2,1 Z " fill="#141212" transform="translate(45,10)"/>
<path d="M0,0 L3,0 L4,6 L2,4 L-2,2 L0,2 Z " fill="#797282" transform="translate(89,2)"/>
<path d="M0,0 L5,0 L7,4 L3,4 L3,1 Z " fill="#1D2435" transform="translate(140,0)"/>
<path d="M0,0 L3,1 L4,3 L-2,4 L-3,2 L0,2 Z " fill="#21292A" transform="translate(49,76)"/>
<path d="M0,0 L5,0 L4,4 L0,2 Z " fill="#233237" transform="translate(68,75)"/>
<path d="M0,0 L3,0 L4,5 L-1,3 Z " fill="#3C3D4D" transform="translate(84,69)"/>
<path d="M0,0 L7,0 L6,3 L2,2 Z " fill="#8A898A" transform="translate(41,72)"/>
<path d="M0,0 L3,1 L4,5 L-1,5 Z " fill="#8B8AA0" transform="translate(80,65)"/>
<path d="M0,0 L1,0 L1,5 L-3,7 L-4,3 L0,4 Z " fill="#1F1C24" transform="translate(122,59)"/>
<path d="M0,0 L5,1 L7,4 L4,4 L0,2 Z " fill="#2D242E" transform="translate(0,61)"/>
<path d="M0,0 L2,0 L4,5 L2,6 L2,4 L-2,2 Z " fill="#263C56" transform="translate(137,62)"/>
<path d="M0,0 L5,0 L5,2 L1,2 L1,4 L-2,3 L-2,1 Z " fill="#181930" transform="translate(105,57)"/>
<path d="M0,0 L4,0 L3,4 L-1,3 Z " fill="#565E61" transform="translate(115,50)"/>
<path d="M0,0 L2,2 L2,6 L-1,7 L-2,4 Z " fill="#060707" transform="translate(143,45)"/>
<path d="M0,0 L2,1 L2,3 L4,3 L4,5 L0,6 Z " fill="#565D6A" transform="translate(128,40)"/>
<path d="M0,0 L4,2 L3,6 L0,4 Z " fill="#746A77" transform="translate(129,30)"/>
<path d="M0,0 L2,1 L1,6 L0,4 L-3,3 L0,2 Z " fill="#4A4656" transform="translate(105,31)"/>
<path d="M0,0 L5,0 L5,3 L0,2 Z " fill="#13121F" transform="translate(131,29)"/>
<path d="M0,0 L3,1 L2,5 L4,5 L4,7 L1,6 Z " fill="#434956" transform="translate(61,15)"/>
<path d="M0,0 L2,0 L1,6 L-2,5 L-2,2 L0,2 Z " fill="#1C1C22" transform="translate(73,13)"/>
<path d="M0,0 L4,0 L3,3 L-1,4 Z " fill="#ABACAC" transform="translate(29,5)"/>
<path d="M0,0 L3,0 L3,3 L-3,3 L-2,1 Z " fill="#211731" transform="translate(107,81)"/>
<path d="M0,0 L4,1 L5,3 L0,4 Z " fill="#474048" transform="translate(124,78)"/>
<path d="M0,0 L2,3 L1,5 L-3,5 L-3,3 L-1,3 Z " fill="#6A6780" transform="translate(101,66)"/>
<path d="M0,0 L3,1 L1,4 L-3,2 Z " fill="#06050B" transform="translate(122,64)"/>
<path d="M0,0 L6,1 L8,5 L0,1 Z " fill="#111115" transform="translate(29,62)"/>
<path d="M0,0 L2,0 L2,2 L5,3 L3,3 L2,6 L0,5 Z " fill="#010112" transform="translate(95,57)"/>
<path d="M0,0 L2,0 L2,2 L4,2 L4,5 L0,3 Z " fill="#636262" transform="translate(113,57)"/>
<path d="M0,0 L6,0 L8,4 L5,4 L5,1 L0,1 Z " fill="#14151B" transform="translate(6,53)"/>
<path d="M0,0 L3,2 L3,6 L-1,5 Z " fill="#332F3F" transform="translate(64,46)"/>
<path d="M0,0 L4,2 L3,6 L1,6 Z " fill="#312F3E" transform="translate(67,47)"/>
<path d="M0,0 L4,1 L4,6 L2,7 L2,3 L0,2 Z " fill="#080B22" transform="translate(63,42)"/>
<path d="M0,0 L4,0 L4,2 L2,4 L-1,4 Z " fill="#9A95A9" transform="translate(52,42)"/>
<path d="M0,0 L3,4 L2,6 L-2,4 Z " fill="#908F99" transform="translate(27,36)"/>
<path d="M0,0 L2,0 L3,5 L0,5 L-1,2 Z " fill="#6B7077" transform="translate(142,33)"/>
<path d="M0,0 L3,0 L2,4 L0,7 Z " fill="#57555A" transform="translate(11,28)"/>
<path d="M0,0 L5,2 L5,4 L0,4 Z " fill="#171F1F" transform="translate(44,23)"/>
<path d="M0,0 L9,1 L6,3 L0,1 Z " fill="#3E4448" transform="translate(46,23)"/>
<path d="M0,0 L4,1 L7,4 L-1,2 Z " fill="#767675" transform="translate(76,21)"/>
<path d="M0,0 L1,3 L3,3 L3,5 L-3,5 L-1,4 Z " fill="#1C242A" transform="translate(15,18)"/>
<path d="M0,0 L2,0 L2,3 L0,3 L0,6 L-2,6 L-1,1 Z " fill="#1C1D1E" transform="translate(22,17)"/>
<path d="M0,0 L3,0 L3,3 L0,4 L-3,1 Z " fill="#555660" transform="translate(70,12)"/>
<path d="M0,0 L5,0 L3,1 L2,5 L0,3 Z " fill="#3F5B60" transform="translate(139,12)"/>
<path d="M0,0 L4,2 L3,4 L-1,4 Z " fill="#CBD5E0" transform="translate(122,11)"/>
<path d="M0,0 L5,1 L5,4 L2,5 L2,3 L0,3 Z " fill="#25272F" transform="translate(76,9)"/>
<path d="M0,0 L3,1 L3,5 L0,5 Z " fill="#3E2E3E" transform="translate(44,5)"/>
<path d="M0,0 L4,0 L5,4 L7,5 L3,4 L2,1 Z " fill="#0B0D11" transform="translate(135,1)"/>
<path d="M0,0 L4,0 L4,2 L6,3 L1,3 Z " fill="#0E110E" transform="translate(24,79)"/>
<path d="M0,0 L4,1 L5,4 L-1,3 Z " fill="#3A444A" transform="translate(88,76)"/>
<path d="M0,0 L2,1 L2,3 L-4,4 Z " fill="#725A69" transform="translate(118,73)"/>
<path d="M0,0 L1,0 L1,6 L-2,6 L-1,2 Z " fill="#887D72" transform="translate(149,59)"/>
<path d="M0,0 L2,0 L2,3 L-4,3 L-3,1 Z " fill="#9791AF" transform="translate(107,62)"/>
<path d="M0,0 L5,1 L5,4 L0,2 Z " fill="#98959E" transform="translate(8,60)"/>
<path d="M0,0 L4,1 L3,3 L-1,4 Z " fill="#6D6A79" transform="translate(75,55)"/>
<path d="M0,0 L3,1 L4,3 L-1,4 Z " fill="#434857" transform="translate(103,54)"/>
<path d="M0,0 L3,1 L3,3 L0,3 L0,5 L-2,4 Z " fill="#4C4F5A" transform="translate(80,52)"/>
<path d="M0,0 L5,0 L5,3 L0,2 Z " fill="#A5A7B6" transform="translate(120,39)"/>
<path d="M0,0 L5,2 L3,5 L3,3 L-1,3 Z " fill="#524B5C" transform="translate(33,39)"/>
<path d="M0,0 L1,4 L-3,4 L-3,2 Z " fill="#100E1A" transform="translate(83,37)"/>
<path d="M0,0 L2,1 L1,4 L-3,3 L-3,1 Z " fill="#1F202F" transform="translate(36,29)"/>
<path d="M0,0 L5,0 L5,4 L3,4 L3,2 L0,1 Z " fill="#7F7A89" transform="translate(62,30)"/>
<path d="M0,0 L3,0 L2,4 L-1,4 Z " fill="#080C12" transform="translate(63,22)"/>
<path d="M0,0 L7,0 L3,2 L-1,3 Z " fill="#030305" transform="translate(33,18)"/>
<path d="M0,0 L4,3 L-3,3 L-3,1 Z " fill="#141A2A" transform="translate(3,14)"/>
<path d="M0,0 L3,0 L3,3 L5,4 L-1,5 L2,1 Z " fill="#393A39" transform="translate(37,12)"/>
<path d="M0,0 L4,1 L6,3 L0,3 Z " fill="#0F0D0F" transform="translate(101,6)"/>
<path d="M0,0 L2,0 L2,2 L5,3 L0,4 Z " fill="#7C728C" transform="translate(1,2)"/>
<path d="M0,0 L1,4 L-3,6 L-2,2 L0,2 Z " fill="#473F67" transform="translate(146,76)"/>
<path d="M0,0 L3,1 L2,5 L-1,4 Z " fill="#625767" transform="translate(12,67)"/>
<path d="M0,0 L4,0 L4,2 L2,2 L2,4 L0,4 Z " fill="#CFCFD7" transform="translate(145,66)"/>
<path d="M0,0 L3,1 L2,3 L-3,4 Z " fill="#C3BECE" transform="translate(131,63)"/>
<path d="M0,0 L4,1 L4,4 L1,3 Z " fill="#44394B" transform="translate(123,63)"/>
<path d="M0,0 L2,0 L2,3 L-3,3 L-3,1 Z " fill="#0A0A0B" transform="translate(64,64)"/>
<path d="M0,0 L2,0 L2,2 L5,1 L5,3 L1,4 Z " fill="#6A879B" transform="translate(139,62)"/>
<path d="M0,0 L4,4 L2,4 L1,6 L-1,2 Z " fill="#534E5C" transform="translate(46,56)"/>
<path d="M0,0 L3,0 L2,5 L1,3 L-1,3 Z " fill="#020109" transform="translate(50,55)"/>
<path d="M0,0 L5,2 L5,3 L-2,2 Z " fill="#5E5A68" transform="translate(101,44)"/>
<path d="M0,0 L5,1 L5,3 L0,2 Z " fill="#615B70" transform="translate(76,40)"/>
<path d="M0,0 L4,0 L4,2 L2,2 L2,4 L0,4 Z " fill="#0F0D19" transform="translate(39,35)"/>
<path d="M0,0 L2,1 L0,5 L-2,5 L-2,1 Z " fill="#787480" transform="translate(148,30)"/>
<path d="M0,0 L6,1 L2,4 L0,4 Z " fill="#5D5B69" transform="translate(36,33)"/>
<path d="M0,0 L4,0 L4,3 L0,3 Z " fill="#0E1112" transform="translate(52,27)"/>
<path d="M0,0 L4,0 L4,3 L0,3 Z " fill="#060C08" transform="translate(26,23)"/>
<path d="M0,0 L3,0 L2,3 L-4,3 L0,2 Z " fill="#110D10" transform="translate(34,6)"/>
<path d="M0,0 L3,1 L1,1 L1,3 L3,3 L3,5 L-1,4 Z " fill="#1A1F2A" transform="translate(124,7)"/>
<path d="M0,0 L4,0 L4,3 L0,3 Z " fill="#CFCAC1" transform="translate(4,6)"/>
<path d="M0,0 L3,0 L3,4 L0,4 Z " fill="#271B1E" transform="translate(4,0)"/>
<path d="M0,0 L3,0 L2,4 L0,5 Z " fill="#737F82" transform="translate(34,0)"/>
<path d="M0,0 L2,0 L2,4 L-2,2 Z " fill="#B9B9C9" transform="translate(139,78)"/>
<path d="M0,0 L3,1 L2,3 L-2,3 L-2,1 Z " fill="#334E61" transform="translate(44,78)"/>
<path d="M0,0 L3,0 L3,3 L-1,3 Z " fill="#645A5F" transform="translate(15,77)"/>
<path d="M0,0 L3,1 L2,5 L0,5 Z " fill="#ABC1C8" transform="translate(0,77)"/>
<path d="M0,0 L5,4 L-1,4 Z " fill="#646972" transform="translate(76,74)"/>
<path d="M0,0 L4,1 L4,3 L0,3 Z " fill="#48595C" transform="translate(0,74)"/>
<path d="M0,0 L2,3 L-3,4 L-3,2 L0,2 Z " fill="#9DA09C" transform="translate(136,72)"/>
<path d="M0,0 L4,1 L4,3 L-1,2 Z " fill="#392F47" transform="translate(103,68)"/>
<path d="M0,0 L3,0 L3,3 L-2,3 L0,2 Z " fill="#647D95" transform="translate(136,66)"/>
<path d="M0,0 L2,1 L0,4 L-2,4 L-3,1 Z " fill="#8E908C" transform="translate(46,65)"/>
<path d="M0,0 L2,1 L0,5 L-3,4 Z " fill="#291623" transform="translate(127,58)"/>
<path d="M0,0 L4,2 L1,2 L1,4 L-1,4 Z " fill="#6D6B79" transform="translate(7,58)"/>
<path d="M0,0 L3,1 L3,3 L-2,2 Z " fill="#1A1826" transform="translate(43,58)"/>
<path d="M0,0 L3,1 L1,5 L-1,1 Z " fill="#292C39" transform="translate(100,53)"/>
<path d="M0,0 L3,1 L2,4 L-1,5 Z " fill="#09050E" transform="translate(42,47)"/>
<path d="M0,0 L3,1 L3,3 L-1,4 Z " fill="#34303C" transform="translate(111,34)"/>
<path d="M0,0 L3,0 L3,3 L1,3 L0,5 Z " fill="#45484A" transform="translate(48,28)"/>
<path d="M0,0 L2,0 L3,3 L1,3 L0,5 L-1,1 Z " fill="#413C4E" transform="translate(102,26)"/>
<path d="M0,0 L3,1 L1,4 L-2,4 L-2,2 L0,2 Z " fill="#6C6D6A" transform="translate(24,18)"/>
<path d="M0,0 L4,2 L5,4 L0,3 Z " fill="#8A9EAD" transform="translate(118,14)"/>
<path d="M0,0 L4,1 L1,3 L-3,1 Z " fill="#201E25" transform="translate(16,14)"/>
<path d="M0,0 L3,1 L3,3 L5,4 L2,5 Z " fill="#091825" transform="translate(127,3)"/>
<path d="M0,0 L4,1 L4,4 L1,4 Z " fill="#070511" transform="translate(85,4)"/>
<path d="M0,0 L2,3 L1,6 L-2,5 Z " fill="#171320" transform="translate(41,0)"/>
<path d="M0,0 L5,0 L5,3 L0,1 Z " fill="#BECAD9" transform="translate(145,0)"/>
<path d="M0,0 L2,0 L2,3 L-3,2 Z " fill="#182B3E" transform="translate(61,75)"/>
<path d="M0,0 L3,0 L2,3 L-3,2 Z " fill="#614F57" transform="translate(140,74)"/>
<path d="M0,0 L4,2 L-1,3 Z " fill="#220F18" transform="translate(116,71)"/>
<path d="M0,0 L4,1 L3,3 L0,3 Z " fill="#0D1129" transform="translate(133,64)"/>
<path d="M0,0 L2,4 L-2,4 L-2,2 L0,2 Z " fill="#616162" transform="translate(59,63)"/>
<path d="M0,0 L4,0 L2,4 Z " fill="#1B1620" transform="translate(59,61)"/>
<path d="M0,0 L2,2 L-1,4 L-4,3 Z " fill="#32273C" transform="translate(132,60)"/>
<path d="M0,0 L1,4 L-2,5 L-2,2 L0,2 Z " fill="#56433F" transform="translate(149,55)"/>
<path d="M0,0 L3,0 L3,3 L-1,2 Z " fill="#181720" transform="translate(83,47)"/>
<path d="M0,0 L2,0 L1,5 L-1,1 Z " fill="#7E7784" transform="translate(38,47)"/>
<path d="M0,0 L4,1 L4,3 L0,3 Z " fill="#4E4C52" transform="translate(96,46)"/>
<path d="M0,0 L2,0 L3,5 L0,3 Z " fill="#191016" transform="translate(8,45)"/>
<path d="M0,0 L5,0 L2,1 L2,3 L-1,2 Z " fill="#212C46" transform="translate(63,38)"/>
<path d="M0,0 L4,1 L4,3 L0,3 Z " fill="#262035" transform="translate(76,36)"/>
<path d="M0,0 L5,1 L4,4 Z " fill="#3C3B3A" transform="translate(80,22)"/>
<path d="M0,0 L4,2 L1,4 Z " fill="#02020C" transform="translate(95,20)"/>
<path d="M0,0 L4,2 L4,4 L0,2 Z " fill="#A7A1A7" transform="translate(134,19)"/>
<path d="M0,0 L2,4 L-2,3 L-1,1 Z " fill="#514A55" transform="translate(108,17)"/>
<path d="M0,0 L4,2 L4,4 L-1,2 Z " fill="#545159" transform="translate(105,5)"/>
<path d="M0,0 L4,1 L3,3 L0,3 Z " fill="#2E1F2D" transform="translate(47,7)"/>
<path d="M0,0 L3,0 L2,4 L0,3 Z " fill="#64616C" transform="translate(38,0)"/>
<path d="M0,0 L3,0 L3,3 L0,4 Z " fill="#4D4A53" transform="translate(11,0)"/>
<path d="M0,0 L2,1 L2,3 L-3,3 L-3,1 Z " fill="#787789" transform="translate(101,79)"/>
<path d="M0,0 L2,4 L1,6 L-1,6 Z " fill="#32373F" transform="translate(33,75)"/>
<path d="M0,0 L4,1 L0,3 Z " fill="#454753" transform="translate(91,67)"/>
<path d="M0,0 L2,0 L3,3 L-1,3 Z " fill="#545251" transform="translate(42,67)"/>
<path d="M0,0 L2,4 L-1,5 Z " fill="#2E2939" transform="translate(67,54)"/>
<path d="M0,0 L3,1 L-1,4 Z " fill="#514856" transform="translate(37,45)"/>
<path d="M0,0 L2,0 L2,3 L-2,2 Z " fill="#090D1D" transform="translate(67,35)"/>
<path d="M0,0 L2,0 L0,5 L-1,1 Z " fill="#565861" transform="translate(25,35)"/>
<path d="M0,0 L2,0 L1,4 L-1,3 Z " fill="#373542" transform="translate(24,32)"/>
<path d="M0,0 L3,0 L3,3 L0,3 Z " fill="#211F29" transform="translate(96,27)"/>
<path d="M0,0 L1,2 L3,3 L-1,4 L-2,2 L0,2 Z " fill="#4F4E56" transform="translate(93,25)"/>
<path d="M0,0 L1,2 L3,2 L3,4 L-1,3 Z " fill="#0E120F" transform="translate(25,24)"/>
<path d="M0,0 L3,2 L-2,3 L-2,1 Z " fill="#4C4D4B" transform="translate(25,21)"/>
<path d="M0,0 L4,2 L2,4 Z " fill="#5E6477" transform="translate(114,17)"/>
<path d="M0,0 L3,1 L3,4 L1,4 Z " fill="#484A4F" transform="translate(79,13)"/>
<path d="M0,0 L4,0 L3,3 L0,2 Z " fill="#161215" transform="translate(100,12)"/>
<path d="M0,0 L3,1 L2,4 L-1,3 Z " fill="#352532" transform="translate(37,6)"/>
<path d="M0,0 L3,0 L3,3 L0,3 Z " fill="#020504" transform="translate(31,0)"/>
<path d="M0,0 L2,2 L-1,3 L-3,1 Z " fill="#425762" transform="translate(69,78)"/>
<path d="M0,0 L2,2 L-1,4 L-1,1 Z " fill="#5A4E61" transform="translate(130,59)"/>
<path d="M0,0 L3,1 L0,4 Z " fill="#69606A" transform="translate(123,59)"/>
<path d="M0,0 L3,1 L3,3 L-1,1 Z " fill="#4E455D" transform="translate(55,55)"/>
<path d="M0,0 L4,2 L1,3 Z " fill="#515361" transform="translate(8,55)"/>
<path d="M0,0 L1,3 L-1,4 L-3,2 Z " fill="#544E60" transform="translate(140,52)"/>
<path d="M0,0 L3,2 L3,4 L0,3 Z " fill="#635C6E" transform="translate(46,50)"/>
<path d="M0,0 L3,1 L2,3 L-1,2 Z " fill="#14121C" transform="translate(112,37)"/>
<path d="M0,0 L3,0 L1,4 Z " fill="#484853" transform="translate(127,28)"/>
<path d="M0,0 L3,1 L1,4 Z " fill="#0E111C" transform="translate(64,13)"/>
<path d="M0,0 L2,1 L2,3 L-2,2 Z " fill="#1C1A24" transform="translate(131,12)"/>
<path d="M0,0 L3,0 L2,3 L0,3 Z " fill="#CDCECE" transform="translate(8,0)"/>
<path d="M0,0 L4,2 L0,3 Z " fill="#26334C" transform="translate(132,66)"/>
<path d="M0,0 L2,0 L1,3 L-2,1 Z " fill="#171818" transform="translate(55,66)"/>
<path d="M0,0 L4,1 L2,3 Z " fill="#3D414C" transform="translate(21,61)"/>
<path d="M0,0 L2,0 L2,3 L-1,2 Z " fill="#747776" transform="translate(113,57)"/>
<path d="M0,0 L2,3 L0,4 L-2,2 L0,2 Z " fill="#332835" transform="translate(132,53)"/>
<path d="M0,0 L3,1 L1,4 Z " fill="#696377" transform="translate(49,50)"/>
<path d="M0,0 L2,0 L2,3 L-1,2 Z " fill="#000005" transform="translate(147,48)"/>
<path d="M0,0 L2,0 L1,3 L-1,3 Z " fill="#353A41" transform="translate(115,47)"/>
<path d="M0,0 L2,0 L1,3 L-1,3 Z " fill="#29262C" transform="translate(94,47)"/>
<path d="M0,0 L3,0 L2,3 L0,2 Z " fill="#16131E" transform="translate(28,47)"/>
<path d="M0,0 L3,1 L3,3 L0,2 Z " fill="#CCC8CC" transform="translate(128,38)"/>
<path d="M0,0 L3,0 L2,3 L0,2 Z " fill="#343240" transform="translate(42,33)"/>
<path d="M0,0 L2,0 L3,3 L0,3 Z " fill="#4B484E" transform="translate(86,28)"/>
<path d="M0,0 L2,0 L1,3 L-2,1 Z " fill="#2C3236" transform="translate(45,18)"/>
<path d="M0,0 L3,1 L3,3 L0,2 Z " fill="#152321" transform="translate(144,8)"/>
<path d="M0,0 L1,2 L3,3 L0,4 L-1,2 Z " fill="#315D65" transform="translate(138,8)"/>
<path d="M0,0 L2,3 L-1,3 Z " fill="#767180" transform="translate(15,63)"/>
<path d="M0,0 L3,2 L0,3 Z " fill="#9493B1" transform="translate(134,61)"/>
<path d="M0,0 L3,1 L1,3 Z " fill="#B6B5BC" transform="translate(11,61)"/>
<path d="M0,0 L3,1 L1,3 Z " fill="#CACACF" transform="translate(20,58)"/>
<path d="M0,0 L3,1 L1,3 Z " fill="#625D6E" transform="translate(68,54)"/>
<path d="M0,0 L3,1 L1,3 Z " fill="#63616D" transform="translate(129,30)"/>
<path d="M0,0 L2,2 L0,4 L-1,1 Z " fill="#44414B" transform="translate(89,20)"/>
<path d="M0,0 L2,2 L-1,3 Z " fill="#4A5F5F" transform="translate(143,6)"/>
<path d="M0,0 L2,1 L2,3 L-1,2 Z " fill="#A29DAF" transform="translate(110,3)"/>
<path d="M0,0 L2,2 L-1,2 Z " fill="#291622" transform="translate(145,52)"/>
<path d="M0,0 L2,2 L-1,2 Z " fill="#0F0E1E" transform="translate(89,14)"/>
</svg>
