<?xml version="1.0" encoding="UTF-8"?>
<!-- Generator: visioncortex VTracer 0.6.5 -->
<svg version="1.1" xmlns="http://www.w3.org/2000/svg" width="150" height="85">
<path d="M0,0 L150,0 L150,85 L0,85 Z " fill="#0E151D" transform="translate(0,0)"/>
<path d="M0,0 L32,0 L32,8 L28,13 L22,16 L21,17 L0,17 Z " fill="#424554" transform="translate(0,0)"/>
<path d="M0,0 L2,0 L4,3 L9,5 L14,10 L14,12 L16,12 L17,9 L17,16 L20,17 L20,18 L-3,18 L-3,2 Z " fill="#3C4A56" transform="translate(3,67)"/>
<path d="M0,0 L8,0 L12,1 L12,4 L18,5 L18,18 L15,19 L15,17 L12,17 L12,11 L6,14 L4,16 L0,16 Z " fill="#26333F" transform="translate(0,24)"/>
<path d="M0,0 L29,0 L28,2 L24,2 L23,5 L17,9 L0,9 Z " fill="#313343" transform="translate(0,0)"/>
<path d="M0,0 L15,0 L17,3 L20,4 L19,8 L12,7 L12,5 L0,4 Z " fill="#091420" transform="translate(0,20)"/>
<path d="M0,0 L3,0 L3,8 L-1,13 L-7,16 L-8,17 L-29,17 L-29,15 L-9,14 L-2,11 L-1,1 Z " fill="#343B49" transform="translate(29,0)"/>
<path d="M0,0 L20,0 L20,3 L16,5 L0,5 Z " fill="#120F1E" transform="translate(0,0)"/>
<path d="M0,0 L2,0 L2,2 L9,1 L9,9 L1,9 L-3,7 L-3,3 L-1,3 Z " fill="#272F36" transform="translate(141,57)"/>
<path d="M0,0 L5,1 L8,7 L-7,7 L-7,2 L-4,2 L-4,5 L0,5 Z " fill="#2A3743" transform="translate(7,78)"/>
<path d="M0,0 L7,0 L8,5 L4,9 L2,9 L2,11 L0,11 Z " fill="#4D5B67" transform="translate(0,27)"/>
<path d="M0,0 L4,1 L10,7 L13,8 L13,10 L16,11 L16,12 L8,12 L3,5 L0,4 Z " fill="#6D7F8A" transform="translate(7,73)"/>
<path d="M0,0 L6,0 L12,4 L12,5 L-6,5 L-2,1 Z " fill="#1C2632" transform="translate(78,80)"/>
<path d="M0,0 L20,0 L20,3 L0,3 Z " fill="#222434" transform="translate(0,17)"/>
<path d="M0,0 L3,0 L1,4 L-2,7 L-20,7 L-20,5 L-4,4 L0,3 Z " fill="#232434" transform="translate(20,0)"/>
<path d="M0,0 L5,0 L5,11 L1,10 Z " fill="#32404C" transform="translate(12,29)"/>
<path d="M0,0 L5,0 L6,1 L6,8 L0,8 Z " fill="#1D2A30" transform="translate(132,77)"/>
<path d="M0,0 L5,1 L9,3 L8,7 L1,6 L1,4 L-1,4 Z " fill="#00020A" transform="translate(11,21)"/>
<path d="M0,0 L2,0 L2,4 L5,5 L2,5 L2,10 L-2,10 L-2,7 L-5,7 L-5,4 L0,4 Z " fill="#4F5D69" transform="translate(5,73)"/>
<path d="M0,0 L3,0 L3,3 L-1,5 L-17,5 L-17,3 L-1,2 Z " fill="#1A1829" transform="translate(17,0)"/>
<path d="M0,0 L2,0 L1,4 L0,6 L2,6 L2,8 L9,8 L9,9 L1,9 L-3,7 L-3,3 L-1,3 Z " fill="#1F242B" transform="translate(141,57)"/>
<path d="M0,0 L3,1 L4,6 L-1,5 L-3,4 L-3,2 Z " fill="#1C3B40" transform="translate(23,79)"/>
<path d="M0,0 L1,3 L0,4 L-9,4 L-9,2 Z " fill="#010209" transform="translate(123,81)"/>
<path d="M0,0 L6,0 L9,3 L-2,3 Z " fill="#28333F" transform="translate(78,82)"/>
<path d="M0,0 L3,0 L3,7 L0,6 Z " fill="#44525E" transform="translate(13,30)"/>
<path d="M0,0 L5,0 L6,5 L3,5 L3,2 L0,2 Z " fill="#5E6C78" transform="translate(0,78)"/>
<path d="M0,0 L3,1 L3,5 L-1,5 Z " fill="#2F4A4B" transform="translate(134,80)"/>
<path d="M0,0 L5,0 L5,3 L-1,3 L-2,1 Z " fill="#323A3F" transform="translate(145,60)"/>
<path d="M0,0 L2,0 L3,5 L5,6 L0,6 Z " fill="#192632" transform="translate(8,79)"/>
<path d="M0,0 L0,3 L-3,6 L-7,6 L-7,4 L-1,1 Z " fill="#25333F" transform="translate(7,34)"/>
<path d="M0,0 L4,4 L5,7 L1,6 Z " fill="#3C4A56" transform="translate(10,78)"/>
<path d="M0,0 L5,1 L2,2 L2,6 L-1,5 Z " fill="#273541" transform="translate(10,27)"/>
<path d="M0,0 L2,0 L3,6 L1,6 L1,4 L-1,4 Z " fill="#020915" transform="translate(11,21)"/>
<path d="M0,0 L6,0 L6,3 L0,1 Z " fill="#131D2A" transform="translate(15,20)"/>
<path d="M0,0 L5,1 L4,3 L0,3 Z " fill="#5F6E7A" transform="translate(0,70)"/>
<path d="M0,0 L3,0 L2,4 L0,4 Z " fill="#768490" transform="translate(7,73)"/>
<path d="M0,0 L3,1 L2,4 L0,4 Z " fill="#212F3B" transform="translate(0,73)"/>
<path d="M0,0 L3,0 L3,3 L0,2 Z " fill="#7F8F9A" transform="translate(13,80)"/>
</svg>
