<?xml version="1.0" encoding="UTF-8"?>
<!-- Generator: visioncortex VTracer 0.6.5 -->
<svg version="1.1" xmlns="http://www.w3.org/2000/svg" width="150" height="84">
<path d="M0,0 L150,0 L150,84 L0,84 Z " fill="#000103" transform="translate(0,0)"/>
<path d="M0,0 L39,0 L39,3 L33,4 L32,8 L26,11 L23,14 L24,24 L25,25 L25,30 L21,30 L19,25 L15,24 L16,28 L18,29 L21,39 L19,42 L18,37 L15,37 L15,50 L19,49 L21,51 L21,54 L14,54 L11,50 L11,30 L7,31 L6,42 L0,42 Z " fill="#202C32" transform="translate(0,0)"/>
<path d="M0,0 L3,1 L4,3 L9,3 L14,6 L16,7 L16,9 L29,11 L37,13 L36,15 L26,18 L21,21 L15,18 L12,12 L12,9 L10,9 L9,12 L6,10 L6,7 L-2,8 L0,11 L6,11 L6,15 L9,15 L9,19 L11,19 L11,21 L15,21 L15,23 L12,23 L14,28 L16,29 L16,31 L-8,31 L-8,1 L-5,2 L-5,4 L0,4 Z M20,21 L22,23 L20,23 Z " fill="#09141A" transform="translate(8,53)"/>
<path d="M0,0 L5,0 L4,5 L8,6 L7,11 L6,16 L-1,19 L-55,19 L-56,16 L-63,15 L-67,13 L-67,11 L-54,11 L-54,13 L-43,13 L-46,12 L-44,6 L-40,6 L-41,10 L-31,11 L-24,10 L-19,15 L-8,14 L-7,12 L-17,12 L-16,7 L-12,6 L-11,6 L-4,4 L-4,2 Z " fill="#051313" transform="translate(114,65)"/>
<path d="M0,0 L5,1 L5,4 L8,5 L9,3 L11,3 L15,12 L20,14 L20,17 L23,18 L27,16 L34,16 L37,17 L39,13 L48,12 L47,17 L38,17 L38,19 L49,21 L50,25 L15,25 L15,23 L12,22 L11,17 L14,17 L14,15 L10,15 L10,13 L8,13 L8,9 L5,9 L5,5 L-1,6 L-4,1 Z " fill="#030509" transform="translate(9,59)"/>
<path d="M0,0 L4,0 L4,3 L-2,4 L-3,8 L-9,11 L-12,14 L-11,24 L-10,25 L-10,30 L-14,30 L-16,25 L-20,24 L-19,28 L-17,29 L-14,39 L-16,42 L-17,37 L-20,37 L-20,50 L-16,49 L-14,51 L-14,54 L-21,54 L-24,50 L-24,30 L-28,31 L-29,42 L-33,41 L-30,41 L-30,32 L-29,29 L-26,29 L-26,26 L-24,26 L-23,19 L-26,20 L-26,17 L-24,17 L-24,15 L-18,14 L-14,12 L-14,10 L-10,9 L-8,6 L-4,6 L-4,3 L-2,3 L-2,1 Z " fill="#0C191B" transform="translate(35,0)"/>
<path d="M0,0 L29,0 L26,2 L22,4 L21,9 L19,9 L19,11 L17,11 L17,13 L15,13 L16,9 L18,9 L16,5 L12,4 L9,8 L8,13 L7,20 L5,20 L5,22 L0,26 Z " fill="#020E16" transform="translate(0,0)"/>
<path d="M0,0 L5,0 L4,5 L8,6 L7,11 L6,16 L-1,19 L-6,19 L-7,16 L-12,16 L-8,14 L-7,12 L-17,12 L-16,7 L-12,6 L-11,6 L-4,4 L-4,2 Z " fill="#060F11" transform="translate(114,65)"/>
<path d="M0,0 L4,2 L8,7 L17,12 L24,16 L24,18 L0,18 Z " fill="#07121F" transform="translate(0,66)"/>
<path d="M0,0 L4,0 L4,2 L17,4 L25,6 L24,8 L14,11 L9,14 L3,11 L0,5 Z M8,14 L10,16 L8,16 Z " fill="#12191F" transform="translate(20,60)"/>
<path d="M0,0 L8,0 L8,10 L-11,10 L-11,6 L-7,6 L-7,4 L-1,4 Z " fill="#031010" transform="translate(142,74)"/>
<path d="M0,0 L3,0 L2,5 L-7,5 L-7,7 L4,9 L5,13 L-11,13 L-12,10 L-18,9 L-18,7 L-10,7 L-9,8 L-7,2 Z " fill="#061212" transform="translate(54,71)"/>
<path d="M0,0 L3,0 L3,2 L1,3 L3,6 L9,6 L9,10 L12,10 L12,14 L14,14 L14,16 L18,16 L18,18 L15,18 L16,22 L12,21 L2,15 L-3,9 L-5,7 L-1,8 L3,11 L4,14 L10,15 L10,12 L8,12 L8,10 L3,10 L-2,5 L-1,1 Z " fill="#1D2B32" transform="translate(5,58)"/>
<path d="M0,0 L2,0 L2,6 L-3,12 L-5,12 L-5,15 L-3,15 L-3,19 L-7,19 L-7,21 L-9,21 L-9,19 L-15,20 L-14,15 L-11,15 L-11,13 L-7,10 L-5,10 L-3,6 L-1,6 Z " fill="#0E1518" transform="translate(148,48)"/>
<path d="M0,0 L4,2 L8,7 L17,12 L24,16 L24,18 L15,18 L15,16 L11,14 L7,11 L7,9 L3,7 L0,5 Z " fill="#6F828E" transform="translate(0,66)"/>
<path d="M0,0 L6,0 L4,1 L4,3 L2,3 L2,6 L-2,6 L-4,10 L-6,11 L-8,10 L-8,12 L-12,15 L-14,14 L-12,11 L-10,11 L-10,9 L-8,9 L-8,7 L-10,6 L-8,6 L-7,3 Z " fill="#44535A" transform="translate(29,0)"/>
<path d="M0,0 L13,0 L13,2 L22,4 L22,6 L17,6 L17,8 L12,8 L11,5 L4,4 L0,2 Z " fill="#263032" transform="translate(47,76)"/>
<path d="M0,0 L15,0 L15,2 L13,2 L13,4 L18,5 L18,8 L7,8 L8,5 L5,3 L0,2 Z " fill="#122121" transform="translate(73,76)"/>
<path d="M0,0 L5,0 L4,5 L6,7 L6,10 L2,11 L2,6 L-5,6 L-6,10 L-9,10 L-9,7 L-7,7 L-6,4 L-4,4 L-4,2 Z " fill="#1A1D21" transform="translate(114,65)"/>
<path d="M0,0 L7,0 L8,4 L10,5 L9,9 L3,9 L1,7 L3,7 L3,5 L0,5 Z " fill="#010204" transform="translate(109,71)"/>
<path d="M0,0 L5,0 L9,4 L12,6 L12,8 L4,8 L4,6 L1,5 Z " fill="#14171E" transform="translate(20,76)"/>
<path d="M0,0 L4,0 L5,7 L3,7 L3,9 L-2,13 L-2,5 Z " fill="#141F27" transform="translate(2,13)"/>
<path d="M0,0 L5,1 L12,6 L12,7 L0,7 Z " fill="#3E5060" transform="translate(0,77)"/>
<path d="M0,0 L5,5 L6,8 L4,11 L3,6 L0,6 L0,8 L-2,8 L-3,12 L-3,1 Z " fill="#172325" transform="translate(15,31)"/>
<path d="M0,0 L3,1 L3,3 L10,4 L9,6 L7,6 L7,10 L2,10 L0,5 Z " fill="#29353E" transform="translate(20,60)"/>
<path d="M0,0 L3,0 L5,11 L4,13 L0,13 L-1,5 Z " fill="#04080C" transform="translate(15,37)"/>
<path d="M0,0 L6,0 L7,2 L6,4 L2,4 L2,6 L-4,6 L-4,2 L0,2 Z " fill="#0B1416" transform="translate(135,78)"/>
<path d="M0,0 L1,0 L1,9 L-2,10 L-4,12 L-4,9 L-6,9 L-6,6 L-4,6 L-2,2 Z " fill="#080D0F" transform="translate(149,54)"/>
<path d="M0,0 L8,0 L11,2 L11,4 L13,4 L13,6 L7,6 L6,3 L0,2 Z " fill="#141D1F" transform="translate(36,78)"/>
<path d="M0,0 L6,0 L6,5 L-3,5 Z " fill="#000101" transform="translate(144,79)"/>
<path d="M0,0 L3,1 L4,3 L9,3 L14,7 L12,7 L11,9 L1,4 Z " fill="#132023" transform="translate(8,53)"/>
<path d="M0,0 L3,1 L3,3 L7,2 L9,4 L9,7 L2,7 Z " fill="#1C272E" transform="translate(12,47)"/>
<path d="M0,0 L1,0 L2,6 L4,6 L4,15 L2,16 L1,18 L0,17 Z " fill="#111A1D" transform="translate(11,33)"/>
<path d="M0,0 L2,1 L1,6 L-1,9 L-1,6 L-5,6 L-6,11 L-7,11 L-7,6 Z " fill="#09151C" transform="translate(7,7)"/>
<path d="M0,0 L2,0 L2,2 L9,3 L16,6 L15,8 L8,8 L7,5 L1,3 Z " fill="#19232B" transform="translate(22,60)"/>
<path d="M0,0 L3,0 L4,10 L0,12 Z " fill="#4D5B5C" transform="translate(0,30)"/>
<path d="M0,0 L7,0 L8,4 L2,5 L0,4 Z " fill="#101316" transform="translate(45,4)"/>
<path d="M0,0 L9,0 L9,3 L6,3 L6,5 L4,5 L4,3 L-1,4 Z " fill="#242C2F" transform="translate(135,64)"/>
<path d="M0,0 L6,2 L9,4 L9,6 L0,6 L0,4 L2,3 Z " fill="#526471" transform="translate(15,78)"/>
<path d="M0,0 L4,0 L3,4 L7,5 L3,5 L3,7 L-2,6 Z " fill="#0D1417" transform="translate(70,71)"/>
<path d="M0,0 L3,0 L4,4 L-1,6 L-4,1 Z " fill="#000405" transform="translate(9,59)"/>
<path d="M0,0 L3,0 L4,4 L0,6 L-4,4 L-2,4 L-2,1 Z " fill="#051321" transform="translate(23,50)"/>
<path d="M0,0 L1,2 L-1,3 L-2,10 L-4,6 L-6,6 L-5,2 Z " fill="#202D34" transform="translate(17,7)"/>
<path d="M0,0 L2,0 L2,6 L-2,10 L-4,10 L-3,6 L-1,6 Z " fill="#292B30" transform="translate(148,48)"/>
<path d="M0,0 L5,0 L6,4 L1,5 L-1,1 Z " fill="#0C1B1A" transform="translate(26,13)"/>
<path d="M0,0 L8,1 L9,4 L1,4 Z " fill="#1D2E2E" transform="translate(99,80)"/>
<path d="M0,0 L9,1 L10,3 L6,3 L5,5 L3,3 L-2,3 Z " fill="#020A15" transform="translate(14,54)"/>
<path d="M0,0 L8,0 L8,3 L-1,3 Z " fill="#010304" transform="translate(51,81)"/>
<path d="M0,0 L1,3 L5,5 L8,8 L8,10 L4,8 L0,6 Z " fill="#010A0B" transform="translate(0,59)"/>
<path d="M0,0 L7,0 L6,4 L0,4 Z " fill="#243434" transform="translate(95,62)"/>
<path d="M0,0 L4,0 L4,3 L-2,4 L-3,7 L-2,1 Z M-4,7 Z M-7,8 L-4,9 Z " fill="#0F1718" transform="translate(35,0)"/>
<path d="M0,0 L5,0 L5,2 L2,2 L1,5 L-3,5 L-3,2 Z " fill="#313338" transform="translate(114,65)"/>
<path d="M0,0 L4,1 L4,4 L-5,4 L-5,2 L0,2 Z " fill="#151C1F" transform="translate(69,80)"/>
<path d="M0,0 L6,0 L8,1 L8,3 L1,4 Z " fill="#41474B" transform="translate(61,79)"/>
<path d="M0,0 L6,0 L11,2 L11,4 L5,3 L0,2 Z M11,1 Z " fill="#1A292A" transform="translate(73,76)"/>
<path d="M0,0 L1,4 L4,4 L4,8 L6,8 L6,10 L2,8 L2,6 L0,6 L0,4 L-3,3 L0,3 Z " fill="#1B2126" transform="translate(13,64)"/>
<path d="M0,0 L6,0 L4,1 L4,3 L2,3 L2,6 L-2,5 L0,5 L0,3 L-3,1 Z " fill="#353F44" transform="translate(29,0)"/>
<path d="M0,0 L4,1 L6,4 L5,6 L1,5 Z " fill="#02050B" transform="translate(20,76)"/>
<path d="M0,0 L5,0 L5,4 L-1,4 Z " fill="#111E1F" transform="translate(145,74)"/>
<path d="M0,0 L4,1 L4,6 L0,6 Z " fill="#171A1D" transform="translate(21,24)"/>
<path d="M0,0 L6,0 L5,4 L0,4 Z " fill="#212629" transform="translate(34,7)"/>
<path d="M0,0 L6,0 L8,1 L7,4 L7,2 L-1,4 Z " fill="#17191D" transform="translate(112,63)"/>
<path d="M0,0 L4,0 L5,5 L0,4 Z " fill="#182329" transform="translate(2,13)"/>
<path d="M0,0 L4,2 L5,4 L3,4 L3,6 L0,6 Z " fill="#13202F" transform="translate(0,71)"/>
<path d="M0,0 L5,0 L3,5 L-1,4 Z " fill="#4A545D" transform="translate(6,21)"/>
<path d="M0,0 L4,1 L7,4 L0,4 Z " fill="#13212F" transform="translate(0,80)"/>
<path d="M0,0 L3,1 L3,3 L6,3 L6,6 L1,4 Z " fill="#35424C" transform="translate(20,60)"/>
<path d="M0,0 L5,5 L5,6 L0,6 L-2,3 L0,2 Z " fill="#677A87" transform="translate(13,76)"/>
<path d="M0,0 L3,0 L3,2 L5,3 L-2,7 L0,3 Z " fill="#0F1719" transform="translate(136,67)"/>
<path d="M0,0 L4,1 L0,5 L-2,5 L-1,1 Z " fill="#52606B" transform="translate(26,2)"/>
<path d="M0,0 L5,1 L6,5 L1,3 Z " fill="#778A97" transform="translate(8,75)"/>
<path d="M0,0 L4,2 L7,4 L5,4 L4,6 L0,2 Z " fill="#111E29" transform="translate(15,56)"/>
<path d="M0,0 L4,2 L4,4 L1,4 L0,7 L-1,5 Z " fill="#020D0C" transform="translate(24,16)"/>
<path d="M0,0 L2,4 L0,4 L0,10 L-1,10 L-1,4 L-3,3 L0,2 Z " fill="#1F2E2F" transform="translate(21,10)"/>
<path d="M0,0 L3,0 L3,2 L1,2 L1,4 L-1,4 L-1,6 L-3,6 L-2,2 L0,2 Z " fill="#0E171B" transform="translate(18,7)"/>
<path d="M0,0 L6,1 L7,4 L3,3 L0,2 Z " fill="#132423" transform="translate(47,76)"/>
<path d="M0,0 L5,2 L3,5 L-1,4 Z " fill="#040A0D" transform="translate(74,71)"/>
<path d="M0,0 L1,2 L6,2 L7,0 L9,4 L6,5 L6,3 L0,3 Z " fill="#031012" transform="translate(2,55)"/>
<path d="M0,0 L4,2 L4,5 L0,4 Z " fill="#34434F" transform="translate(17,49)"/>
<path d="M0,0 L1,4 L-4,6 L-2,2 Z " fill="#010205" transform="translate(149,54)"/>
<path d="M0,0 L3,2 L3,5 L-2,4 L-2,2 L0,2 Z " fill="#2B3033" transform="translate(15,31)"/>
<path d="M0,0 L3,0 L3,3 L-2,4 Z " fill="#2E383B" transform="translate(10,64)"/>
<path d="M0,0 L4,1 L2,4 L-1,3 Z " fill="#132021" transform="translate(26,13)"/>
<path d="M0,0 L3,1 L3,4 L-1,4 Z " fill="#0B111A" transform="translate(25,80)"/>
<path d="M0,0 L5,0 L4,3 L0,3 Z " fill="#162726" transform="translate(137,79)"/>
<path d="M0,0 L3,3 L6,5 L0,4 L-1,1 Z " fill="#0C1114" transform="translate(60,74)"/>
<path d="M0,0 L4,2 L4,4 L-1,3 Z " fill="#151C1F" transform="translate(69,74)"/>
<path d="M0,0 L3,1 L2,6 L0,5 Z " fill="#15171A" transform="translate(18,36)"/>
<path d="M0,0 L5,2 L3,6 L2,2 L0,2 Z " fill="#293539" transform="translate(11,11)"/>
<path d="M0,0 L5,1 L5,3 L0,2 Z " fill="#0D1D1C" transform="translate(98,74)"/>
<path d="M0,0 L4,2 L3,7 L1,4 Z " fill="#1E2A31" transform="translate(20,63)"/>
<path d="M0,0 L2,0 L3,6 L-2,1 Z " fill="#0D1315" transform="translate(16,29)"/>
<path d="M0,0 L0,3 L-3,6 L-2,1 Z " fill="#040A11" transform="translate(3,20)"/>
<path d="M0,0 L2,0 L0,5 L-2,5 L-2,2 L0,2 Z " fill="#081219" transform="translate(11,15)"/>
<path d="M0,0 L3,0 L3,3 L-1,3 Z " fill="#1F2427" transform="translate(132,81)"/>
<path d="M0,0 L2,0 L3,4 L0,4 Z " fill="#37383C" transform="translate(21,24)"/>
<path d="M0,0 L3,0 L3,3 L-1,3 Z " fill="#2C2F33" transform="translate(47,5)"/>
<path d="M0,0 L3,0 L2,4 L0,4 Z " fill="#071516" transform="translate(6,51)"/>
<path d="M0,0 L2,0 L0,5 L-1,1 Z " fill="#404B53" transform="translate(9,21)"/>
<path d="M0,0 L3,0 L3,3 L0,3 Z " fill="#33383C" transform="translate(117,72)"/>
<path d="M0,0 L4,2 L0,3 Z " fill="#324353" transform="translate(5,80)"/>
<path d="M0,0 L3,0 L3,3 L0,2 Z " fill="#010A16" transform="translate(3,75)"/>
<path d="M0,0 L3,0 L2,3 L0,3 Z " fill="#414448" transform="translate(111,67)"/>
<path d="M0,0 L3,0 L3,3 L0,2 Z " fill="#010814" transform="translate(27,66)"/>
<path d="M0,0 L3,1 L2,4 Z " fill="#233039" transform="translate(15,56)"/>
<path d="M0,0 L2,2 L0,3 L-3,1 Z " fill="#051717" transform="translate(3,63)"/>
<path d="M0,0 L2,1 L2,3 L-1,3 Z " fill="#152026" transform="translate(8,12)"/>
</svg>
