<?xml version="1.0" encoding="UTF-8"?>
<!-- Generator: visioncortex VTracer 0.6.5 -->
<svg version="1.1" xmlns="http://www.w3.org/2000/svg" width="150" height="85">
<path d="M0,0 L150,0 L150,85 L0,85 Z " fill="#1C2B2F" transform="translate(0,0)"/>
<path d="M0,0 L25,0 L25,85 L-10,85 L-8,82 L2,81 L2,75 L9,73 L9,70 L13,70 L13,73 L15,73 L15,70 L19,70 L19,63 L21,57 L16,60 L11,61 L10,60 L10,54 L12,53 L13,44 L15,40 L16,45 L18,36 L21,30 L17,29 L17,32 L15,32 L16,37 L10,37 L10,44 L8,44 L8,46 L5,46 L4,50 L2,50 L3,43 L7,42 L7,40 L5,40 L5,37 L8,37 L8,33 L10,33 L10,30 L7,29 L7,22 L7,20 L5,20 L3,27 L0,28 L1,37 L-1,43 L-5,46 L-6,40 L-5,42 L-3,42 L-4,37 L-2,37 L-5,33 L-7,29 L-6,23 L-3,21 L2,21 L2,16 L-5,16 L-5,13 L-3,13 L-3,8 L0,8 L1,10 L4,11 L1,4 Z M-6,16 Z " fill="#556370" transform="translate(125,0)"/>
<path d="M0,0 Z M-2,1 L0,2 L-2,5 L-2,8 L-7,13 L-9,13 L-9,15 L-11,15 L-14,32 L-15,35 L-6,31 L-3,28 L0,29 L-1,48 L2,46 L9,46 L10,49 L7,49 L7,51 L9,51 L8,55 L3,57 L2,61 L-19,61 L-19,13 L-14,13 L-11,9 L-9,9 L-7,5 Z " fill="#213839" transform="translate(19,24)"/>
<path d="M0,0 L2,0 L7,11 L7,13 L5,13 L7,17 L9,18 L10,15 L14,22 L19,26 L20,30 L17,29 L17,32 L15,32 L16,37 L10,37 L10,44 L8,44 L8,46 L5,46 L4,50 L2,50 L3,43 L7,42 L7,40 L5,40 L5,37 L8,37 L8,33 L10,33 L10,30 L7,29 L7,22 L7,20 L5,20 L3,27 L0,28 L1,37 L-1,43 L-5,46 L-6,40 L-5,42 L-3,42 L-4,37 L-2,37 L-5,33 L-7,29 L-6,23 L-3,21 L2,21 L2,16 L-5,16 L-5,13 L-3,13 L-3,8 L0,8 L1,10 L4,11 L1,4 Z M-6,16 Z " fill="#293541" transform="translate(125,0)"/>
<path d="M0,0 L46,0 L46,10 L45,11 L28,11 L26,5 L20,4 L14,5 L13,10 L7,12 L1,12 L-1,8 Z " fill="#313B40" transform="translate(74,0)"/>
<path d="M0,0 L18,0 L18,7 L12,10 L9,10 L9,15 L18,17 L17,23 L15,26 L12,25 L12,19 L9,21 L9,19 L5,20 L3,20 L0,22 Z M8,21 Z " fill="#101F20" transform="translate(0,0)"/>
<path d="M0,0 L6,1 L6,8 L24,9 L25,12 L-9,13 L-8,16 L-13,19 L-21,20 L-23,17 L-22,12 L-12,11 L-12,9 L-4,9 L-5,5 L-3,1 Z " fill="#080F15" transform="translate(94,3)"/>
<path d="M0,0 L2,0 L1,4 L0,8 L5,8 L5,15 L9,15 L10,12 L14,13 L17,18 L15,19 L14,23 L17,23 L17,25 L12,25 L11,24 L3,23 L1,21 L-5,21 L-10,17 L-9,13 L-7,13 L-7,11 L-2,11 L-3,4 Z M-11,17 Z " fill="#333D4B" transform="translate(116,42)"/>
<path d="M0,0 L8,0 L11,1 L19,1 L21,2 L28,2 L38,1 L40,2 L40,4 L44,4 L44,7 L-3,7 L-2,3 L0,3 Z " fill="#11191F" transform="translate(50,78)"/>
<path d="M0,0 L19,0 L19,24 L16,23 L16,20 L12,19 L11,16 L13,16 L5,6 L0,2 Z " fill="#141612" transform="translate(131,0)"/>
<path d="M0,0 L20,0 L20,8 L17,11 L13,13 L7,12 L1,5 Z " fill="#264446" transform="translate(20,0)"/>
<path d="M0,0 L2,1 L2,4 L10,4 L13,7 L17,8 L18,6 L20,7 L20,5 L25,5 L25,8 L22,9 L21,13 L0,13 Z " fill="#345950" transform="translate(0,72)"/>
<path d="M0,0 Z M-2,1 L0,2 L-2,5 L-2,8 L-7,13 L-9,13 L-9,15 L-11,15 L-13,28 L-16,31 L-18,37 L-19,37 L-19,13 L-14,13 L-11,9 L-9,9 L-7,5 Z " fill="#334247" transform="translate(19,24)"/>
<path d="M0,0 L1,3 L-5,5 L-6,11 L-16,13 L-18,15 L-32,15 L-33,8 L-31,7 L-21,7 L-18,8 L-17,11 L-16,10 L-8,10 L-9,3 L-8,2 L0,2 Z " fill="#072A32" transform="translate(133,70)"/>
<path d="M0,0 L2,0 L2,7 L4,3 L5,3 L5,24 L-4,25 L-5,20 L-2,8 L0,2 Z " fill="#58746E" transform="translate(145,28)"/>
<path d="M0,0 L5,0 L6,1 L6,13 L1,14 L-4,9 L-6,7 L-6,2 Z " fill="#2B4748" transform="translate(11,58)"/>
<path d="M0,0 L1,0 L1,15 L-18,15 L-16,10 L-11,10 L-11,8 L-9,8 L-9,10 L-3,9 L-2,2 Z " fill="#181C23" transform="translate(149,70)"/>
<path d="M0,0 L1,0 L2,13 L11,12 L11,18 L9,18 L9,21 L7,21 L7,17 L2,20 L-3,21 L-4,20 L-4,14 L-2,13 L-1,4 Z " fill="#3A4552" transform="translate(139,40)"/>
<path d="M0,0 L6,1 L6,8 L24,9 L24,10 L-12,10 L-12,9 L-4,9 L-5,5 L-3,1 Z " fill="#191C25" transform="translate(94,3)"/>
<path d="M0,0 L5,1 L4,12 L0,17 L-2,20 L-4,19 L-4,4 Z " fill="#2A3A40" transform="translate(4,18)"/>
<path d="M0,0 L4,2 L7,5 L8,13 L2,13 L2,20 L0,20 L0,22 L-3,22 L-4,26 L-6,26 L-5,19 L-1,18 L-1,16 L-3,16 L-3,13 L0,13 L0,9 L2,9 L2,6 L0,5 Z " fill="#2E3640" transform="translate(133,24)"/>
<path d="M0,0 L5,0 L5,2 L8,2 L10,7 L6,10 L-4,8 L-5,4 L-4,2 Z " fill="#233637" transform="translate(13,8)"/>
<path d="M0,0 L4,0 L4,2 L8,4 L16,13 L16,15 L11,16 L6,12 L5,8 L3,8 L0,2 Z " fill="#7C8A8E" transform="translate(127,0)"/>
<path d="M0,0 L6,0 L11,5 L12,8 L14,8 L14,11 L2,10 L0,7 Z " fill="#133132" transform="translate(0,65)"/>
<path d="M0,0 L4,1 L7,5 L6,9 L1,15 L-5,16 L-5,13 L-3,13 L-1,1 Z " fill="#0A1A1A" transform="translate(9,43)"/>
<path d="M0,0 L41,1 L41,3 L-2,3 L-2,1 Z " fill="#060912" transform="translate(52,82)"/>
<path d="M0,0 L4,3 L5,0 L9,7 L14,11 L15,15 L12,14 L12,17 L10,17 L7,12 L3,9 L3,14 L2,14 L2,7 L2,5 L-1,5 Z " fill="#2F414B" transform="translate(130,15)"/>
<path d="M0,0 L17,0 L14,2 L15,6 L2,6 L-1,9 L-3,8 L0,3 Z " fill="#1D1E25" transform="translate(85,15)"/>
<path d="M0,0 L12,0 L12,11 L14,13 L13,16 L5,6 L0,2 Z " fill="#232E30" transform="translate(131,0)"/>
<path d="M0,0 L4,0 L4,3 L1,3 L1,5 L3,5 L1,9 L0,10 L-14,10 L-12,7 L-2,6 L-1,1 Z " fill="#6E757F" transform="translate(129,75)"/>
<path d="M0,0 L6,0 L7,1 L7,6 L2,7 L-9,4 L-9,2 Z " fill="#323632" transform="translate(93,23)"/>
<path d="M0,0 L5,1 L6,6 L1,8 L1,10 L-5,10 L-6,8 L-9,6 L0,5 L-1,1 Z " fill="#040914" transform="translate(132,62)"/>
<path d="M0,0 L5,0 L5,3 L2,4 L1,8 L-16,8 L-12,4 L-8,4 L-6,6 L-2,6 L-2,3 L0,3 Z " fill="#46585E" transform="translate(20,77)"/>
<path d="M0,0 L4,1 L7,6 L2,9 L-4,9 L-4,5 Z " fill="#545F6D" transform="translate(126,54)"/>
<path d="M0,0 L1,4 L3,4 L3,11 L-6,12 L-7,7 L-3,5 L-3,9 L-1,9 L-1,1 Z " fill="#667176" transform="translate(147,41)"/>
<path d="M0,0 L3,0 L3,5 L2,7 L1,13 L-3,13 L-4,16 L-3,3 Z " fill="#121736" transform="translate(143,57)"/>
<path d="M0,0 L10,0 L10,1 L4,2 L5,5 L3,7 L3,13 L-1,13 L-2,8 L0,6 L0,3 L-4,2 Z " fill="#121D2A" transform="translate(122,67)"/>
<path d="M0,0 L4,2 L4,11 L1,21 L0,21 Z " fill="#425354" transform="translate(0,40)"/>
<path d="M0,0 L4,1 L2,7 L-1,18 L-4,15 L-4,9 L-7,8 L-4,7 L-1,8 L-2,3 L0,3 Z " fill="#192F2F" transform="translate(142,29)"/>
<path d="M0,0 L8,0 L8,7 L3,8 L-1,4 Z " fill="#526F6F" transform="translate(7,60)"/>
<path d="M0,0 L2,0 L7,11 L7,13 L5,13 L4,15 L-3,14 L-3,8 L0,8 L1,10 L4,11 L1,4 Z " fill="#425057" transform="translate(125,0)"/>
<path d="M0,0 L6,0 L7,3 L9,4 L9,11 L8,16 L5,15 L6,8 L4,8 L3,3 L1,3 Z " fill="#6B8786" transform="translate(141,20)"/>
<path d="M0,0 L7,0 L8,3 L5,3 L5,5 L7,5 L6,9 L4,10 L4,7 L-1,7 L-2,4 Z " fill="#24333A" transform="translate(21,70)"/>
<path d="M0,0 L5,0 L5,10 L3,12 L0,12 Z " fill="#1F2F30" transform="translate(0,0)"/>
<path d="M0,0 L1,3 L-5,5 L-6,11 L-16,13 L-19,15 L-19,12 L-16,10 L-8,10 L-9,3 L-8,2 L0,2 Z " fill="#283745" transform="translate(133,70)"/>
<path d="M0,0 L2,4 L4,8 L4,16 L7,17 L3,17 L3,10 L-2,10 L-1,5 L0,2 L-5,6 L-6,4 L-3,1 Z " fill="#2B3239" transform="translate(118,40)"/>
<path d="M0,0 L2,0 L4,7 L7,8 L9,12 L6,11 L4,14 L3,10 L0,10 L-1,7 Z " fill="#1B3033" transform="translate(18,0)"/>
<path d="M0,0 L2,0 L2,12 L-2,13 L-4,5 L0,3 Z " fill="#597190" transform="translate(148,58)"/>
<path d="M0,0 L7,0 L10,1 L10,5 L0,5 Z " fill="#354748" transform="translate(10,10)"/>
<path d="M0,0 L1,0 L1,9 L-3,13 L-8,12 L-9,10 L-3,9 L-2,2 Z " fill="#192938" transform="translate(149,70)"/>
<path d="M0,0 L6,0 L7,5 L6,6 L-1,6 L-1,1 Z " fill="#13131D" transform="translate(92,5)"/>
<path d="M0,0 L5,0 L5,7 L-1,10 L-4,9 L-1,7 Z " fill="#132323" transform="translate(13,0)"/>
<path d="M0,0 L3,0 L4,5 L2,11 L-2,14 L-3,8 L-2,10 L0,10 L-1,5 L1,5 Z " fill="#434A52" transform="translate(122,32)"/>
<path d="M0,0 L4,0 L4,3 L6,3 L6,5 L3,7 L0,7 L0,5 L-5,6 L-7,8 L-6,4 L0,3 Z " fill="#4B566F" transform="translate(134,70)"/>
<path d="M0,0 L5,0 L7,3 L7,8 L0,6 Z " fill="#041819" transform="translate(0,65)"/>
<path d="M0,0 L15,1 L15,3 L-2,3 L-2,1 Z " fill="#100F14" transform="translate(52,82)"/>
<path d="M0,0 L1,0 L2,13 L6,14 L1,18 L-2,17 L-2,15 L0,15 Z " fill="#4B555F" transform="translate(139,40)"/>
<path d="M0,0 L7,0 L10,2 L10,4 L-1,4 Z " fill="#20685D" transform="translate(103,81)"/>
<path d="M0,0 L4,1 L6,3 L10,4 L11,2 L13,4 L11,4 L11,7 L6,8 L5,5 L1,3 Z " fill="#2A4E4F" transform="translate(7,76)"/>
<path d="M0,0 L5,0 L5,7 L0,8 Z " fill="#010608" transform="translate(6,0)"/>
<path d="M0,0 L1,0 L1,6 L3,7 L2,14 L1,15 L-5,15 L-3,13 L1,13 L1,11 L-1,11 L-2,6 Z " fill="#3C4E60" transform="translate(145,65)"/>
<path d="M0,0 L8,0 L7,5 L1,5 Z " fill="#526F6F" transform="translate(22,0)"/>
<path d="M0,0 L5,0 L4,5 L2,8 L-1,7 L-1,1 Z " fill="#08161D" transform="translate(13,18)"/>
<path d="M0,0 L1,2 L4,2 L4,12 L2,12 L2,8 L-1,9 Z " fill="#415352" transform="translate(142,38)"/>
<path d="M0,0 L6,0 L7,2 L6,4 L-3,5 L-1,1 Z " fill="#262C28" transform="translate(87,20)"/>
<path d="M0,0 L4,2 L6,0 L8,4 L6,5 L6,7 L8,7 L9,12 L2,6 Z " fill="#526A6D" transform="translate(136,16)"/>
<path d="M0,0 L2,0 L6,7 L6,11 L2,10 L2,8 L-1,8 L-1,6 L1,4 Z " fill="#28373E" transform="translate(123,0)"/>
<path d="M0,0 L10,0 L12,2 L16,2 L16,0 L18,0 L18,4 L11,5 L8,2 L0,1 Z " fill="#214345" transform="translate(2,75)"/>
<path d="M0,0 L3,4 L2,7 L-3,7 L-4,9 L-3,2 Z " fill="#273038" transform="translate(112,46)"/>
<path d="M0,0 L6,2 L6,5 L-3,5 L-1,1 Z " fill="#152231" transform="translate(28,80)"/>
<path d="M0,0 L4,2 L7,5 L7,8 L3,8 L0,5 Z " fill="#68757F" transform="translate(133,24)"/>
<path d="M0,0 L5,0 L6,6 L2,6 L2,10 L0,10 L1,5 L1,3 Z " fill="#2B3447" transform="translate(130,55)"/>
<path d="M0,0 L3,0 L3,8 L0,11 Z M-1,11 Z " fill="#223138" transform="translate(71,0)"/>
<path d="M0,0 L7,1 L7,4 L-1,4 Z " fill="#2C4745" transform="translate(37,81)"/>
<path d="M0,0 L3,1 L3,8 L0,12 Z " fill="#576569" transform="translate(0,42)"/>
<path d="M0,0 L1,4 L-9,4 L-7,1 Z " fill="#4F5860" transform="translate(124,81)"/>
<path d="M0,0 L8,0 L8,5 L4,5 L4,2 L0,2 Z " fill="#20222A" transform="translate(90,80)"/>
<path d="M0,0 L3,2 L0,2 L0,5 L2,5 L2,7 L-2,8 L-2,13 L-3,13 L-3,5 Z " fill="#222932" transform="translate(130,35)"/>
<path d="M0,0 L2,0 L2,2 L8,2 L8,8 L5,7 L5,4 L1,3 Z " fill="#253B3B" transform="translate(142,16)"/>
<path d="M0,0 L2,1 L3,5 L5,7 L10,7 L10,10 L4,10 L0,5 Z " fill="#345253" transform="translate(5,60)"/>
<path d="M0,0 L1,3 L4,3 L4,8 L-1,8 Z " fill="#264445" transform="translate(1,57)"/>
<path d="M0,0 L4,0 L5,5 L0,5 L0,3 L-3,4 L-3,1 Z " fill="#2D3E43" transform="translate(136,32)"/>
<path d="M0,0 L5,0 L3,6 L1,7 L-1,6 Z " fill="#313B43" transform="translate(121,23)"/>
<path d="M0,0 L6,0 L7,4 L0,4 Z " fill="#01070D" transform="translate(74,16)"/>
<path d="M0,0 L4,0 L4,2 L7,3 L3,8 L0,2 Z " fill="#69787E" transform="translate(127,0)"/>
<path d="M0,0 L2,1 L-2,6 L-6,6 L-5,1 Z " fill="#1F2A3B" transform="translate(27,79)"/>
<path d="M0,0 L4,1 L7,6 L4,7 L1,6 L0,3 Z " fill="#454F5F" transform="translate(126,54)"/>
<path d="M0,0 L4,1 L5,4 L5,15 L3,16 L3,5 L0,3 Z " fill="#38474A" transform="translate(0,37)"/>
<path d="M0,0 L2,0 L5,4 L4,7 L0,6 L-1,1 Z " fill="#909EA4" transform="translate(132,4)"/>
<path d="M0,0 L7,0 L7,2 L11,3 L11,5 L5,7 L5,1 L0,1 Z " fill="#1E2E3F" transform="translate(110,75)"/>
<path d="M0,0 L2,1 L0,7 L3,8 L1,11 L-1,11 L-2,4 Z " fill="#293439" transform="translate(120,22)"/>
<path d="M0,0 L1,4 L3,4 L3,9 L0,9 L-1,1 Z " fill="#97A5A5" transform="translate(147,41)"/>
<path d="M0,0 L2,0 L1,7 L-1,7 L-1,5 L-4,5 L-4,2 Z " fill="#414851" transform="translate(134,35)"/>
<path d="M0,0 L3,0 L3,7 L0,9 Z " fill="#374748" transform="translate(0,0)"/>
<path d="M0,0 L4,0 L4,4 L-4,4 Z " fill="#436A5B" transform="translate(8,81)"/>
<path d="M0,0 L1,0 L1,9 L-2,10 L-2,3 Z " fill="#6990AF" transform="translate(149,60)"/>
<path d="M0,0 L3,0 L5,5 L0,6 Z " fill="#1F2E34" transform="translate(120,0)"/>
<path d="M0,0 L10,0 L9,3 L6,3 L6,1 L1,2 L-1,4 Z " fill="#414C60" transform="translate(128,74)"/>
<path d="M0,0 L3,0 L3,7 L-2,8 L0,6 Z " fill="#466365" transform="translate(12,60)"/>
<path d="M0,0 L2,0 L1,4 L-1,8 L-3,4 Z " fill="#363C42" transform="translate(116,42)"/>
<path d="M0,0 Z M-2,1 L0,2 L-6,9 L-9,9 L-7,5 Z " fill="#2C3B42" transform="translate(19,24)"/>
<path d="M0,0 L2,0 L1,3 L-5,4 L-7,1 Z " fill="#1F222A" transform="translate(147,79)"/>
<path d="M0,0 L5,1 L4,5 L0,5 Z " fill="#233E2C" transform="translate(0,80)"/>
<path d="M0,0 L6,0 L7,2 L4,3 L2,3 L-1,5 Z " fill="#1B2B2E" transform="translate(1,17)"/>
<path d="M0,0 L5,1 L5,4 L0,4 L-1,1 Z " fill="#06070E" transform="translate(93,6)"/>
<path d="M0,0 L3,1 L3,3 L-6,3 L-5,1 Z " fill="#3A5858" transform="translate(18,82)"/>
<path d="M0,0 L5,1 L5,4 L-1,4 Z " fill="#010507" transform="translate(135,81)"/>
<path d="M0,0 L3,1 L-3,8 L-6,8 L-1,3 Z " fill="#172727" transform="translate(16,48)"/>
<path d="M0,0 L8,0 L8,2 L2,4 Z " fill="#0A101F" transform="translate(129,50)"/>
<path d="M0,0 L3,0 L3,5 L-2,3 Z " fill="#46505F" transform="translate(109,55)"/>
<path d="M0,0 L1,3 L5,4 L0,8 Z " fill="#556269" transform="translate(140,50)"/>
<path d="M0,0 L1,3 L-2,5 L-7,5 L-6,3 L0,2 Z " fill="#172030" transform="translate(137,50)"/>
<path d="M0,0 L4,1 L4,9 L2,8 L1,3 L-1,1 Z " fill="#2A3036" transform="translate(99,2)"/>
<path d="M0,0 L7,0 L9,2 L2,2 L-1,4 Z " fill="#0F504A" transform="translate(103,81)"/>
<path d="M0,0 L6,0 L5,2 L2,1 L1,5 L-2,4 Z " fill="#0F1418" transform="translate(133,80)"/>
<path d="M0,0 L7,2 L5,4 L0,4 Z " fill="#4D726C" transform="translate(0,76)"/>
<path d="M0,0 L1,2 L0,5 L4,6 L-2,6 L-2,2 Z " fill="#495360" transform="translate(124,57)"/>
<path d="M0,0 L3,0 L3,6 L1,6 L1,2 L-2,3 L-2,1 Z " fill="#505A5D" transform="translate(143,44)"/>
<path d="M0,0 L3,2 L3,4 L-2,5 L-4,2 L0,2 Z " fill="#718185" transform="translate(140,11)"/>
<path d="M0,0 L6,0 L5,3 L0,3 Z " fill="#495B5D" transform="translate(13,11)"/>
<path d="M0,0 L5,1 L5,3 L-1,3 Z " fill="#688985" transform="translate(144,37)"/>
<path d="M0,0 L2,3 L-1,6 L-3,6 L-2,2 Z " fill="#213036" transform="translate(6,32)"/>
<path d="M0,0 L5,1 L5,3 L-1,3 Z " fill="#081327" transform="translate(28,82)"/>
<path d="M0,0 L5,2 L5,4 L0,4 Z " fill="#54626B" transform="translate(123,9)"/>
<path d="M0,0 L2,0 L5,6 L4,8 L0,3 Z " fill="#4D5B62" transform="translate(125,0)"/>
<path d="M0,0 L3,1 L3,5 L0,5 Z " fill="#0B2B2B" transform="translate(98,80)"/>
<path d="M0,0 L1,4 L-1,8 L-1,5 L-4,4 Z " fill="#2A334E" transform="translate(139,65)"/>
<path d="M0,0 L2,0 L1,7 L0,4 L-2,3 Z " fill="#28343C" transform="translate(146,53)"/>
<path d="M0,0 L1,2 L-2,2 L-4,6 L-5,2 Z " fill="#657677" transform="translate(143,14)"/>
<path d="M0,0 L5,1 L2,2 L1,4 L-1,1 Z " fill="#0C1327" transform="translate(132,62)"/>
<path d="M0,0 L2,1 L1,5 L-3,4 L-3,2 Z " fill="#3B4451" transform="translate(121,58)"/>
<path d="M0,0 L4,1 L4,3 L-1,4 Z " fill="#223135" transform="translate(8,39)"/>
<path d="M0,0 L3,0 L4,5 L2,5 L2,3 L0,3 Z " fill="#4B545B" transform="translate(122,32)"/>
<path d="M0,0 L4,0 L2,4 L0,4 Z " fill="#39424F" transform="translate(122,23)"/>
<path d="M0,0 L3,0 L3,3 L-2,3 Z " fill="#6D8189" transform="translate(117,82)"/>
<path d="M0,0 L4,0 L6,4 L1,3 Z " fill="#3A6259" transform="translate(4,77)"/>
<path d="M0,0 L3,0 L2,4 L0,5 Z " fill="#35424A" transform="translate(25,75)"/>
<path d="M0,0 L3,1 L3,7 L1,6 Z " fill="#233B3D" transform="translate(139,25)"/>
<path d="M0,0 L5,0 L4,3 L0,2 Z " fill="#6B8B89" transform="translate(23,0)"/>
<path d="M0,0 L3,1 L-1,5 Z " fill="#283940" transform="translate(22,80)"/>
<path d="M0,0 L3,1 L3,3 L-2,3 Z " fill="#4C786A" transform="translate(9,82)"/>
<path d="M0,0 L3,0 L3,5 L-1,1 Z " fill="#151E36" transform="translate(143,57)"/>
<path d="M0,0 L4,0 L4,3 L0,2 Z " fill="#222C3D" transform="translate(130,55)"/>
<path d="M0,0 L2,1 L2,4 L-1,4 Z " fill="#253136" transform="translate(96,81)"/>
<path d="M0,0 L3,0 L2,4 L-1,1 Z " fill="#617D7D" transform="translate(10,62)"/>
<path d="M0,0 L3,0 L3,4 L1,4 Z " fill="#46505F" transform="translate(115,52)"/>
<path d="M0,0 L2,1 L1,4 L-2,4 Z " fill="#95A2A6" transform="translate(142,46)"/>
<path d="M0,0 L2,0 L1,4 L-1,5 Z " fill="#444B53" transform="translate(130,42)"/>
<path d="M0,0 L2,0 L1,4 L-1,4 Z " fill="#434A51" transform="translate(116,42)"/>
<path d="M0,0 L4,0 L4,3 L0,1 Z " fill="#2A2D36" transform="translate(140,80)"/>
<path d="M0,0 L3,2 L1,2 L0,4 L0,2 L-3,1 Z " fill="#4B5667" transform="translate(137,76)"/>
<path d="M0,0 L3,0 L3,3 L0,3 Z " fill="#7A8795" transform="translate(130,75)"/>
<path d="M0,0 L3,1 L3,4 L1,4 Z " fill="#252F3F" transform="translate(113,55)"/>
<path d="M0,0 L3,0 L3,2 L-1,3 Z " fill="#21262E" transform="translate(117,45)"/>
<path d="M0,0 L3,1 L0,4 L-1,2 Z " fill="#406458" transform="translate(144,34)"/>
<path d="M0,0 L4,2 L1,3 L-1,1 Z " fill="#1D2939" transform="translate(130,19)"/>
<path d="M0,0 L3,1 L3,4 L1,4 Z " fill="#18272D" transform="translate(121,1)"/>
<path d="M0,0 L2,0 L2,3 L-1,3 Z " fill="#8F979C" transform="translate(126,82)"/>
<path d="M0,0 L3,0 L2,3 L0,3 Z " fill="#354056" transform="translate(135,74)"/>
<path d="M0,0 L3,0 L2,3 L0,3 Z " fill="#4F5868" transform="translate(109,55)"/>
<path d="M0,0 L2,4 L-1,4 Z " fill="#212938" transform="translate(130,46)"/>
<path d="M0,0 L3,1 L1,3 Z " fill="#050917" transform="translate(130,51)"/>
</svg>
