<?xml version="1.0" encoding="UTF-8"?>
<!-- Generator: visioncortex VTracer 0.6.5 -->
<svg version="1.1" xmlns="http://www.w3.org/2000/svg" width="150" height="85">
<path d="M0,0 L150,0 L150,85 L0,85 Z " fill="#1D2B32" transform="translate(0,0)"/>
<path d="M0,0 L43,0 L44,3 L48,4 L53,6 L54,10 L58,12 L58,15 L65,11 L67,11 L67,14 L71,15 L70,17 L72,18 L72,20 L75,20 L75,34 L67,32 L67,34 L64,37 L67,35 L74,35 L76,36 L76,38 L73,38 L73,40 L69,40 L69,38 L67,38 L67,40 L63,40 L62,35 L63,31 L65,31 L65,29 L63,29 L62,21 L60,21 L59,23 L59,19 L49,18 L44,14 L42,8 L35,9 L35,7 L38,7 L38,5 L34,7 L29,10 L24,11 L24,19 L27,17 L30,17 L30,15 L32,15 L31,11 L35,10 L35,14 L36,16 L35,20 L31,21 L33,22 L33,25 L28,25 L28,23 L22,22 L21,33 L26,33 L27,40 L25,45 L15,47 L6,46 L4,47 L5,49 L7,50 L7,53 L9,53 L9,50 L13,50 L15,56 L26,56 L26,61 L21,63 L18,72 L17,73 L16,80 L13,80 L13,78 L5,78 L2,75 L-2,77 L-2,75 L-7,75 L-7,80 L-12,81 L-17,80 L-17,78 L-9,78 L-10,76 L-13,75 L-14,64 L-10,63 L-11,61 L-15,60 L-15,52 L-10,51 L-9,49 L-17,51 L-25,51 L-27,50 L-27,46 L-9,44 L-8,43 L3,42 L0,35 L1,29 L5,27 L2,20 L-1,19 L-2,15 L0,14 L0,11 L-3,11 L-3,9 L-11,9 L-10,4 L-3,4 L-3,2 L0,2 Z " fill="#0D1F26" transform="translate(57,0)"/>
<path d="M0,0 L50,0 L50,85 L6,85 L4,80 L15,81 L14,75 L4,76 L4,78 L-2,77 L3,73 L8,71 L5,65 L10,63 L16,65 L17,67 L18,63 L15,62 L15,60 L19,60 L20,58 L23,58 L23,60 L27,59 L27,62 L24,62 L25,67 L30,66 L30,61 L29,59 L31,59 L30,50 L32,46 L21,48 L21,46 L19,46 L19,50 L13,51 L13,49 L8,48 L7,44 L10,44 L10,46 L13,46 L14,40 L17,40 L17,33 L15,33 L14,35 L12,35 L11,30 L13,30 L13,21 L16,21 L19,21 L20,23 L20,29 L22,29 L22,31 L20,31 L20,40 L24,40 L24,38 L26,38 L26,40 L30,40 L30,38 L33,38 L33,36 L24,36 L21,37 L22,34 L24,34 L24,32 L30,32 L31,33 L32,20 L29,20 L29,18 L26,17 L27,15 L24,14 L24,11 L17,15 L15,15 L14,12 L10,10 L10,6 L5,5 L1,3 L0,6 Z " fill="#26323C" transform="translate(100,0)"/>
<path d="M0,0 L1,2 L12,1 L12,3 L3,4 L1,7 L9,7 L8,11 L12,11 L12,13 L22,12 L21,9 L12,8 L16,6 L28,6 L27,10 L30,12 L30,20 L28,22 L27,31 L22,34 L17,40 L22,50 L29,52 L29,71 L27,74 L17,73 L15,72 L15,70 L11,70 L10,72 L7,72 L7,70 L3,71 L-8,71 L-8,5 L-3,6 L-6,11 L-3,10 L-1,3 Z " fill="#1A2B32" transform="translate(8,7)"/>
<path d="M0,0 L43,0 L44,3 L48,4 L53,6 L54,10 L58,12 L58,15 L65,11 L67,11 L67,14 L71,15 L70,17 L72,18 L72,20 L75,20 L75,34 L67,32 L67,34 L64,37 L67,35 L74,35 L76,36 L76,38 L73,38 L73,40 L69,40 L69,38 L67,38 L67,40 L63,40 L62,35 L63,31 L65,31 L65,29 L63,29 L62,21 L60,21 L59,23 L59,19 L49,18 L44,14 L42,8 L35,9 L35,7 L38,7 L38,5 L34,7 L29,10 L24,11 L24,19 L27,17 L30,17 L30,15 L32,15 L31,11 L35,10 L35,14 L36,16 L35,20 L31,21 L33,22 L33,25 L28,25 L28,23 L22,22 L21,32 L14,30 L13,26 L18,25 L17,20 L15,20 L15,23 L13,23 L13,20 L2,20 L-1,19 L-2,15 L0,14 L0,11 L-3,11 L-3,9 L-11,9 L-10,4 L-3,4 L-3,2 L0,2 Z M15,27 Z " fill="#1B272C" transform="translate(57,0)"/>
<path d="M0,0 L5,0 L8,3 L11,4 L11,6 L13,5 L15,2 L15,5 L17,5 L17,1 L19,1 L19,3 L25,1 L30,1 L29,7 L29,14 L28,15 L29,15 L29,21 L28,22 L23,22 L22,17 L25,17 L25,14 L21,15 L21,13 L18,13 L17,17 L17,15 L13,15 L13,17 L17,18 L16,23 L14,22 L14,20 L6,19 L4,21 L6,26 L0,30 L-2,32 L2,33 L2,31 L12,30 L13,36 L3,36 L4,40 L-34,40 L-34,38 L-24,37 L-22,38 L-22,33 L-20,33 L-20,22 L-15,21 L-10,19 L-7,18 L-5,21 L-5,15 L-2,15 L-2,1 Z M-17,22 Z " fill="#212C2E" transform="translate(102,45)"/>
<path d="M0,0 L5,2 L5,10 L3,12 L2,21 L-3,24 L-8,30 L-3,40 L4,42 L4,61 L2,64 L-8,63 L-10,62 L-10,60 L-14,60 L-15,62 L-18,62 L-18,60 L-22,61 L-33,61 L-33,57 L-18,57 L-20,52 L-19,51 L-18,42 L-14,41 L-15,38 L-18,37 L-18,30 L-17,34 L-15,34 L-15,23 L-13,23 L-15,16 L-15,11 L-17,9 L-13,6 L-3,5 L-3,3 L0,3 Z " fill="#0A1C21" transform="translate(33,17)"/>
<path d="M0,0 L50,0 L50,29 L49,31 L48,40 L44,40 L44,30 L43,27 L45,27 L44,25 L42,25 L39,19 L35,19 L35,16 L27,15 L24,14 L24,11 L17,15 L15,15 L14,12 L10,10 L10,6 L5,5 L1,3 L0,6 Z " fill="#303038" transform="translate(100,0)"/>
<path d="M0,0 L14,0 L15,3 L19,4 L24,6 L25,10 L29,12 L29,15 L36,11 L38,11 L38,14 L42,15 L41,17 L43,18 L43,20 L46,20 L46,34 L38,32 L38,34 L35,37 L38,35 L45,35 L47,36 L47,38 L44,38 L44,40 L40,40 L40,38 L38,38 L38,40 L34,40 L33,35 L34,31 L36,31 L36,29 L34,29 L33,21 L31,21 L30,23 L30,19 L20,18 L15,14 L13,8 L6,9 L6,7 L9,7 L9,5 L5,7 L1,9 L0,3 Z " fill="#1D322F" transform="translate(86,0)"/>
<path d="M0,0 L6,0 L6,15 L-38,15 L-40,10 L-29,11 L-30,9 L-30,2 L-25,3 L-24,8 L-14,8 L-14,5 L-10,5 L-10,3 L-3,1 Z " fill="#2A394F" transform="translate(144,70)"/>
<path d="M0,0 L2,0 L3,3 L5,4 L4,7 L-3,7 L-2,9 L4,10 L4,14 L11,15 L11,13 L21,12 L22,18 L12,18 L13,22 L-25,22 L-25,20 L-15,19 L-13,20 L-13,15 L-11,15 L-11,4 L-6,3 L-1,1 Z M-8,4 Z " fill="#17252C" transform="translate(93,63)"/>
<path d="M0,0 L3,0 L4,5 L3,9 L5,9 L5,6 L7,6 L7,9 L13,10 L17,16 L18,28 L14,35 L11,34 L12,28 L8,29 L-2,27 L-6,27 L-7,30 L-2,32 L-2,34 L-7,34 L-11,29 L-13,28 L-13,31 L-15,31 L-15,28 L-19,28 L-18,24 L-14,23 L-6,24 L3,22 L4,13 L4,11 L-1,11 L-1,2 Z " fill="#162A30" transform="translate(79,22)"/>
<path d="M0,0 L50,0 L50,6 L42,6 L39,6 L35,6 L37,10 L30,11 L32,5 L35,5 L35,1 L30,4 L28,4 L27,9 L28,10 L27,13 L24,13 L24,11 L17,15 L15,15 L14,12 L10,10 L10,6 L5,5 L1,3 L0,6 Z " fill="#2C3E40" transform="translate(100,0)"/>
<path d="M0,0 L1,2 L12,1 L12,3 L3,4 L1,7 L9,7 L8,11 L12,11 L12,13 L22,12 L21,9 L12,8 L16,6 L28,6 L26,10 L25,13 L22,13 L22,15 L10,18 L10,20 L11,23 L12,33 L10,33 L10,39 L9,39 L9,21 L1,23 L-2,20 L-2,18 L-8,18 L-8,5 L-3,6 L-6,11 L-3,10 L-1,3 Z " fill="#1C2C33" transform="translate(8,7)"/>
<path d="M0,0 L11,0 L12,6 L9,6 L9,3 L5,6 L-3,7 L-4,18 L-6,18 L-6,23 L-18,23 L-18,25 L-31,25 L-28,21 L-35,20 L-36,15 L-31,15 L-31,17 L-26,14 L-24,17 L-16,18 L-16,20 L-13,20 L-13,13 L-8,7 L-7,4 L0,3 Z M-1,7 Z " fill="#203035" transform="translate(86,60)"/>
<path d="M0,0 L6,0 L6,2 L9,3 L9,5 L17,3 L18,13 L18,26 L16,26 L15,23 L14,28 L13,28 L13,20 L0,20 Z " fill="#222F3A" transform="translate(0,25)"/>
<path d="M0,0 L2,0 L2,2 L8,0 L13,0 L12,6 L12,13 L11,14 L12,14 L12,20 L11,21 L6,21 L5,16 L8,16 L8,13 L4,14 L4,12 L1,12 L0,16 L-2,11 L-10,9 L-10,4 L-15,4 L-16,1 L-9,2 L-6,3 L-6,5 L-4,4 L-2,1 L-2,4 L0,4 Z " fill="#19232E" transform="translate(119,46)"/>
<path d="M0,0 L14,0 L15,3 L19,4 L24,6 L25,10 L29,12 L30,16 L31,23 L30,19 L20,18 L15,14 L13,8 L6,9 L6,7 L9,7 L9,5 L5,7 L1,9 L0,3 Z " fill="#091627" transform="translate(86,0)"/>
<path d="M0,0 L4,4 L6,6 L12,6 L20,11 L20,12 L-19,12 L-19,5 L-4,4 L-4,6 L-1,6 Z " fill="#19313C" transform="translate(19,73)"/>
<path d="M0,0 L5,0 L5,15 L1,15 L1,21 L-1,22 L-2,25 L-5,26 L-8,25 L-8,27 L-17,30 L-12,20 L-6,22 L-7,17 L-5,17 L-5,11 L-4,4 Z " fill="#40464F" transform="translate(145,41)"/>
<path d="M0,0 L9,0 L9,6 L11,5 L27,5 L30,6 L30,10 L34,11 L33,12 L26,12 L25,9 L9,9 L7,11 L5,18 L2,18 L4,14 L0,12 Z " fill="#273244" transform="translate(0,0)"/>
<path d="M0,0 L4,0 L4,14 L-5,15 L-6,17 L-12,17 L-12,19 L-16,19 L-16,22 L-26,22 L-25,19 L-20,17 L-19,14 L-14,13 L-9,12 L-9,10 L-3,10 L-2,6 L0,6 Z " fill="#191F32" transform="translate(146,56)"/>
<path d="M0,0 L18,0 L20,4 L23,4 L22,8 L21,13 L15,15 L14,12 L10,10 L10,6 L5,5 L1,3 L0,6 Z " fill="#292F3E" transform="translate(100,0)"/>
<path d="M0,0 L3,0 L4,5 L3,9 L5,9 L5,6 L7,6 L7,9 L13,10 L17,16 L18,28 L14,35 L11,34 L12,23 L10,13 L8,13 L8,11 L-1,11 L-1,2 Z " fill="#37494D" transform="translate(79,22)"/>
<path d="M0,0 L29,0 L29,9 L28,10 L21,10 L21,6 L0,6 Z " fill="#182A3B" transform="translate(9,0)"/>
<path d="M0,0 L4,2 L8,3 L15,4 L15,7 L13,7 L12,12 L15,12 L13,16 L8,16 L7,12 L4,12 L3,16 L-1,15 L-1,12 L1,10 L-3,8 L-4,5 Z " fill="#021121" transform="translate(63,28)"/>
<path d="M0,0 L6,0 L7,6 L-3,6 L-2,10 L-40,10 L-40,8 L-28,7 L-27,6 L-20,6 L-13,8 L-12,6 L-10,6 L-10,4 L-3,3 Z " fill="#101B24" transform="translate(108,75)"/>
<path d="M0,0 L8,0 L8,15 L7,17 L6,26 L2,26 L2,16 L1,13 L3,13 L2,11 L0,11 L-2,5 Z " fill="#191916" transform="translate(142,14)"/>
<path d="M0,0 L3,1 L3,3 L7,4 L8,5 L9,14 L16,13 L16,15 L9,16 L8,13 L4,13 L3,15 L0,15 L0,13 L-4,14 L-15,14 L-15,10 L0,10 L-2,5 Z " fill="#0F212E" transform="translate(15,64)"/>
<path d="M0,0 L3,3 L11,4 L11,6 L14,5 L15,1 L18,0 L17,9 L9,9 L9,11 L-4,11 L-1,7 L-8,6 L-9,1 L-4,1 L-4,3 Z " fill="#203139" transform="translate(59,74)"/>
<path d="M0,0 L1,2 L7,3 L8,6 L10,7 L11,4 L13,7 L14,24 L12,25 L10,18 L8,18 L6,22 L5,22 L4,15 L4,7 L1,7 L1,5 L-2,4 Z " fill="#3E4148" transform="translate(128,13)"/>
<path d="M0,0 L1,2 L4,1 L4,4 L2,4 L2,6 L4,7 L3,17 L7,17 L7,8 L9,6 L9,18 L4,19 L2,22 L0,22 L0,26 L-4,25 L-5,22 L-7,22 L-7,15 L-5,13 L-4,17 L0,14 Z " fill="#344048" transform="translate(141,23)"/>
<path d="M0,0 L6,0 L6,2 L9,3 L9,5 L17,3 L18,13 L17,15 L14,15 L13,10 L8,10 L8,8 L0,7 Z " fill="#2E3644" transform="translate(0,25)"/>
<path d="M0,0 L6,0 L6,6 L0,6 L-3,10 L-23,10 L-23,9 L-14,9 L-14,5 L-10,5 L-10,3 L-3,1 Z " fill="#373F53" transform="translate(144,70)"/>
<path d="M0,0 L4,0 L4,8 L2,9 L0,8 L-1,14 L-4,14 L-4,12 L-10,14 L-14,14 L-13,9 L-7,10 L-11,6 L-11,4 L-7,4 L-6,6 L-3,7 L-3,1 L-2,3 L0,3 Z " fill="#101B1C" transform="translate(114,32)"/>
<path d="M0,0 L2,3 L10,4 L10,12 L-2,12 L-4,8 L-5,4 L-1,3 Z " fill="#242430" transform="translate(140,2)"/>
<path d="M0,0 L2,0 L2,19 L-3,20 L-4,17 L-4,3 Z " fill="#061720" transform="translate(35,59)"/>
<path d="M0,0 L3,0 L4,3 L8,5 L9,9 L10,16 L9,12 L-1,11 L-5,3 L-5,1 L0,2 Z " fill="#041025" transform="translate(107,7)"/>
<path d="M0,0 L13,1 L13,8 L12,10 L3,9 L0,7 Z " fill="#1E2F33" transform="translate(0,53)"/>
<path d="M0,0 L5,0 L6,1 L6,10 L-11,10 L-7,6 L-4,5 Z " fill="#191F2A" transform="translate(144,75)"/>
<path d="M0,0 L21,1 L26,5 L0,5 Z " fill="#0B1908" transform="translate(9,80)"/>
<path d="M0,0 L1,0 L1,10 L-1,10 L-1,13 L-8,12 L-10,11 L-10,9 L-8,9 L-6,2 Z " fill="#091A1B" transform="translate(112,20)"/>
<path d="M0,0 L3,0 L4,5 L3,9 L5,9 L5,6 L7,6 L7,9 L13,10 L17,16 L17,23 L15,21 L12,12 L9,11 L8,13 L8,11 L-1,11 L-1,2 Z " fill="#2F3943" transform="translate(79,22)"/>
<path d="M0,0 L5,0 L4,6 L5,10 L-10,10 L-10,8 L0,8 L0,6 L-6,6 L-5,3 L-2,3 L-2,1 Z " fill="#2E3F4E" transform="translate(10,64)"/>
<path d="M0,0 L5,0 L4,7 L3,8 L8,9 L8,11 L6,11 L6,13 L9,13 L9,15 L0,14 L-1,1 Z " fill="#1E2539" transform="translate(41,20)"/>
<path d="M0,0 L3,0 L3,4 L4,6 L3,10 L-1,11 L1,12 L1,15 L-4,15 L-4,13 L-8,12 L-7,8 L-2,7 L-2,5 L0,5 L-1,1 Z " fill="#132027" transform="translate(89,10)"/>
<path d="M0,0 L8,0 L8,4 L17,4 L18,8 L16,9 L8,9 L8,7 L4,7 L5,3 L0,2 Z " fill="#2C3239" transform="translate(12,11)"/>
<path d="M0,0 L11,1 L12,11 L10,11 L10,8 L4,8 L1,5 L-1,4 Z " fill="#28373F" transform="translate(73,48)"/>
<path d="M0,0 L3,0 L3,15 L-1,15 L-1,19 L-3,19 L-5,15 L-5,10 L-3,10 L-3,13 L0,13 L-1,6 L-1,1 Z " fill="#586570" transform="translate(147,41)"/>
<path d="M0,0 L2,0 L2,2 L5,2 L6,8 L6,16 L4,17 L2,10 L0,10 L-2,14 L-3,14 L-3,9 Z " fill="#414F54" transform="translate(136,21)"/>
<path d="M0,0 L3,3 L10,4 L10,6 L8,7 L-1,7 L-8,6 L-9,1 L-4,1 L-4,3 Z " fill="#2D4047" transform="translate(59,74)"/>
<path d="M0,0 L3,0 L4,7 L0,8 L-1,10 L-10,13 L-5,3 L1,5 Z " fill="#444854" transform="translate(138,58)"/>
<path d="M0,0 L7,1 L6,4 L0,6 L-8,6 L-10,5 L-10,1 Z " fill="#081B21" transform="translate(40,45)"/>
<path d="M0,0 L5,0 L4,6 L3,15 L-1,15 L-1,5 L-2,2 L0,2 Z " fill="#111A18" transform="translate(145,25)"/>
<path d="M0,0 L4,1 L1,1 L0,4 L-3,5 L-17,5 L-16,1 Z " fill="#343443" transform="translate(136,80)"/>
<path d="M0,0 L13,0 L15,4 L18,4 L18,7 L12,6 L9,7 L4,4 L4,1 Z " fill="#232943" transform="translate(105,0)"/>
<path d="M0,0 L7,0 L12,4 L-13,4 L-13,2 L-1,1 Z " fill="#0A151A" transform="translate(81,81)"/>
<path d="M0,0 L8,0 L11,2 L9,6 L7,2 L3,1 L3,4 L-7,5 L-7,7 L-13,6 L-8,2 L-7,1 Z " fill="#1F3648" transform="translate(111,71)"/>
<path d="M0,0 L14,0 L14,6 L6,6 L4,3 L0,2 Z " fill="#374461" transform="translate(136,0)"/>
<path d="M0,0 L8,1 L8,4 L5,6 L-4,6 L-6,5 L-6,2 L-8,1 L-2,1 Z " fill="#172C3B" transform="translate(50,79)"/>
<path d="M0,0 L5,2 L6,6 L6,13 L4,13 L3,8 L-5,7 L-4,2 Z " fill="#263630" transform="translate(66,10)"/>
<path d="M0,0 L2,0 L2,4 L-6,5 L-7,7 L-9,7 L-9,5 L-11,5 L-11,9 L-16,10 L-15,5 L-8,2 Z " fill="#38424D" transform="translate(130,41)"/>
<path d="M0,0 L3,1 L4,4 L2,11 L-2,12 L-4,6 L-3,2 Z " fill="#011010" transform="translate(29,26)"/>
<path d="M0,0 L3,0 L3,2 L5,3 L3,3 L2,13 L-5,11 L-6,7 L-1,6 L-2,1 Z M-4,8 Z " fill="#17222E" transform="translate(76,19)"/>
<path d="M0,0 L11,0 L12,3 L16,5 L0,6 Z " fill="#232A3A" transform="translate(9,0)"/>
<path d="M0,0 L12,0 L10,4 L9,7 L6,7 L6,9 L-2,10 L2,7 L6,6 L5,3 L-4,2 Z " fill="#1C2226" transform="translate(24,13)"/>
<path d="M0,0 L12,0 L10,7 L7,7 L7,5 L-1,5 Z " fill="#0B191C" transform="translate(47,4)"/>
<path d="M0,0 L8,0 L9,2 L12,3 L11,6 L7,6 L9,10 L2,11 L4,5 L7,5 L7,1 L2,4 L0,4 Z " fill="#354150" transform="translate(128,0)"/>
<path d="M0,0 L10,0 L12,3 L12,7 L7,7 L3,5 L3,3 L0,2 Z " fill="#37444C" transform="translate(45,35)"/>
<path d="M0,0 L4,1 L16,4 L16,10 L12,9 L12,7 L3,4 L0,2 Z " fill="#233233" transform="translate(95,29)"/>
<path d="M0,0 L13,0 L12,5 L5,5 L0,3 Z " fill="#162538" transform="translate(20,0)"/>
<path d="M0,0 L4,2 L4,4 L7,4 L7,8 L2,8 L2,11 L4,11 L3,15 L1,15 L0,8 L-2,8 L-2,5 L2,5 L3,3 L0,3 Z " fill="#1C2D2E" transform="translate(125,16)"/>
<path d="M0,0 L1,2 L12,1 L12,3 L3,4 L1,7 L4,7 L5,11 L2,11 L2,13 L-2,11 Z " fill="#142431" transform="translate(8,7)"/>
<path d="M0,0 L6,0 L9,3 L9,7 L0,7 Z " fill="#3E5758" transform="translate(0,78)"/>
<path d="M0,0 L2,1 L1,11 L5,11 L5,2 L7,0 L7,12 L2,13 L0,16 L-3,16 L-1,11 Z " fill="#213226" transform="translate(143,29)"/>
<path d="M0,0 L2,3 L8,4 L6,10 L5,11 L0,11 Z " fill="#3A4461" transform="translate(0,0)"/>
<path d="M0,0 L6,0 L8,1 L8,3 L13,3 L13,8 L8,7 L8,4 L0,4 Z " fill="#1C2532" transform="translate(0,32)"/>
<path d="M0,0 L2,0 L2,4 L-2,8 L-3,11 L-5,11 L-6,14 L-9,12 L-6,12 L-7,10 L-8,8 L-6,7 L-5,3 Z " fill="#1B2932" transform="translate(133,1)"/>
<path d="M0,0 L4,2 L4,8 L-6,8 L-5,5 L0,3 Z " fill="#091525" transform="translate(126,70)"/>
<path d="M0,0 L3,0 L2,7 L6,7 L7,11 L2,10 L-1,12 L-3,7 L-1,7 L-1,1 Z " fill="#2C3440" transform="translate(132,52)"/>
<path d="M0,0 L3,0 L3,3 L5,3 L5,0 L7,0 L9,6 L-1,6 L-2,2 L0,2 Z " fill="#08121B" transform="translate(67,20)"/>
<path d="M0,0 L7,2 L7,6 L-1,6 L-3,2 Z " fill="#3E4551" transform="translate(108,63)"/>
<path d="M0,0 L6,0 L8,4 L7,6 L1,6 L-1,2 Z " fill="#2B3C46" transform="translate(32,52)"/>
<path d="M0,0 L7,1 L4,5 L10,5 L10,7 L0,7 Z " fill="#0B1921" transform="translate(0,65)"/>
<path d="M0,0 L5,0 L5,10 L3,9 L-5,9 L-5,7 L1,6 L2,3 L0,3 Z " fill="#030F13" transform="translate(127,24)"/>
<path d="M0,0 L8,0 L9,3 L7,4 L-9,4 L-9,3 L0,3 Z " fill="#596676" transform="translate(130,76)"/>
<path d="M0,0 L9,1 L9,4 L11,4 L10,7 L1,3 L0,6 Z " fill="#2C3845" transform="translate(100,0)"/>
<path d="M0,0 L8,0 L8,3 L11,2 L11,5 L0,4 Z " fill="#303946" transform="translate(0,36)"/>
<path d="M0,0 L14,0 L13,3 L0,3 Z " fill="#313B4C" transform="translate(11,5)"/>
<path d="M0,0 L5,2 L4,7 L0,7 L0,5 L-3,5 L-2,1 Z " fill="#02090F" transform="translate(63,70)"/>
<path d="M0,0 L1,2 L4,1 L4,4 L2,4 L2,17 L0,22 L0,24 L-2,24 L-2,18 L0,18 Z " fill="#2E3A34" transform="translate(141,23)"/>
<path d="M0,0 L6,2 L3,3 L3,6 L6,6 L5,9 L-2,9 L-1,6 L1,6 Z " fill="#081319" transform="translate(122,13)"/>
<path d="M0,0 L3,0 L3,11 L0,10 L-1,1 Z " fill="#5A696C" transform="translate(147,41)"/>
<path d="M0,0 L4,0 L4,7 L3,9 L-1,9 Z " fill="#0C1B21" transform="translate(9,54)"/>
<path d="M0,0 L2,1 L2,8 L0,5 L-10,3 L-10,1 Z " fill="#04111A" transform="translate(10,44)"/>
<path d="M0,0 L5,0 L3,4 L-3,8 L-4,4 Z " fill="#252E37" transform="translate(125,67)"/>
<path d="M0,0 L10,0 L9,4 L0,3 Z " fill="#2F3F46" transform="translate(0,50)"/>
<path d="M0,0 L10,0 L10,3 L5,5 L1,5 Z " fill="#0F1727" transform="translate(137,7)"/>
<path d="M0,0 L10,1 L12,7 L9,6 L10,3 L0,3 Z " fill="#16272D" transform="translate(0,47)"/>
<path d="M0,0 L4,0 L4,7 L-3,7 L-3,4 L1,4 Z " fill="#2C3852" transform="translate(146,6)"/>
<path d="M0,0 L7,1 L10,2 L10,5 L6,8 L6,3 L1,3 Z " fill="#121E22" transform="translate(103,47)"/>
<path d="M0,0 L4,0 L4,8 L2,9 L-1,7 L3,6 L2,4 L-2,4 L-3,7 L-3,1 L-2,3 L0,3 Z " fill="#182329" transform="translate(114,32)"/>
<path d="M0,0 L2,0 L2,2 L4,2 L5,9 L1,9 L0,7 Z " fill="#122923" transform="translate(121,22)"/>
<path d="M0,0 L5,0 L2,9 L1,6 L2,4 L-5,5 L-3,4 L-3,2 L0,2 Z " fill="#122324" transform="translate(57,0)"/>
<path d="M0,0 L6,0 L9,1 L16,0 L16,2 L14,3 L5,3 L0,2 Z " fill="#53646B" transform="translate(53,78)"/>
<path d="M0,0 L7,1 L7,4 L-3,4 L-2,1 Z " fill="#060B0D" transform="translate(99,81)"/>
<path d="M0,0 L6,1 L10,7 L10,14 L8,12 L5,3 L2,2 L1,4 Z " fill="#27373C" transform="translate(86,31)"/>
<path d="M0,0 L3,3 L2,8 L1,6 L-7,5 L-7,3 L0,3 Z " fill="#2B3143" transform="translate(7,27)"/>
<path d="M0,0 L2,0 L2,2 L7,1 L5,6 L1,5 L-2,4 L-2,1 Z " fill="#2A3A3C" transform="translate(52,9)"/>
<path d="M0,0 L3,1 L5,6 L-1,10 L-6,12 L-6,10 L-3,9 L-2,7 L0,7 L0,5 L2,5 Z " fill="#203137" transform="translate(103,65)"/>
<path d="M0,0 L1,0 L1,6 L3,6 L2,11 L-2,11 L-1,6 Z " fill="#334045" transform="translate(92,45)"/>
<path d="M0,0 L3,0 L3,10 L0,10 Z " fill="#081606" transform="translate(144,30)"/>
<path d="M0,0 L2,0 L2,2 L5,2 L4,6 L-1,8 L-1,2 Z " fill="#49525E" transform="translate(136,21)"/>
<path d="M0,0 L4,1 L4,9 L0,10 Z " fill="#1C3045" transform="translate(34,0)"/>
<path d="M0,0 L8,0 L8,6 L6,6 L6,4 L3,4 L3,1 L1,1 L0,3 Z " fill="#171627" transform="translate(142,14)"/>
<path d="M0,0 L4,1 L4,8 L1,8 L0,7 Z " fill="#19231D" transform="translate(74,9)"/>
<path d="M0,0 L7,0 L10,1 L10,3 L-1,3 Z " fill="#242F34" transform="translate(120,82)"/>
<path d="M0,0 L6,0 L14,5 L10,6 L0,1 Z " fill="#293844" transform="translate(25,79)"/>
<path d="M0,0 L7,2 L8,5 L0,5 Z " fill="#334146" transform="translate(0,60)"/>
<path d="M0,0 L1,0 L1,13 L0,15 L-3,14 L-3,7 L-2,11 L0,11 Z " fill="#0E2125" transform="translate(18,40)"/>
<path d="M0,0 L2,0 L2,7 L-4,6 L-3,2 Z " fill="#010516" transform="translate(63,30)"/>
<path d="M0,0 L3,0 L4,3 L6,4 L6,6 L3,6 L3,4 L-2,6 L-2,2 L0,2 Z " fill="#262D3F" transform="translate(42,34)"/>
<path d="M0,0 L4,1 L11,4 L11,6 L4,5 L0,2 Z " fill="#2A3A3A" transform="translate(95,29)"/>
<path d="M0,0 L8,0 L7,4 L-1,4 Z " fill="#051011" transform="translate(50,4)"/>
<path d="M0,0 L2,0 L2,6 L-5,5 L-5,2 Z " fill="#425162" transform="translate(148,70)"/>
<path d="M0,0 L1,2 L0,9 L-7,8 L-3,5 L-2,1 Z " fill="#404F55" transform="translate(76,74)"/>
<path d="M0,0 L4,0 L5,6 L-1,4 Z " fill="#2B403E" transform="translate(73,48)"/>
<path d="M0,0 L3,0 L2,7 L1,12 L0,12 L-1,1 Z " fill="#35454E" transform="translate(13,41)"/>
<path d="M0,0 L1,2 L4,2 L5,13 L3,13 L2,8 L3,3 L-3,4 L-2,2 L0,2 Z " fill="#213239" transform="translate(13,38)"/>
<path d="M0,0 L8,0 L8,2 L6,2 L6,4 L1,4 Z " fill="#01071D" transform="translate(70,33)"/>
<path d="M0,0 L7,0 L7,4 L1,4 Z " fill="#232948" transform="translate(1,0)"/>
<path d="M0,0 L15,1 L15,2 L3,2 L3,5 L0,5 Z " fill="#0F2229" transform="translate(9,80)"/>
<path d="M0,0 L4,4 L5,6 L9,8 L1,8 L0,7 Z " fill="#223336" transform="translate(19,73)"/>
<path d="M0,0 L10,0 L10,2 L8,3 L1,3 Z " fill="#05171C" transform="translate(3,75)"/>
<path d="M0,0 L2,0 L2,3 L5,3 L4,7 L-1,6 Z " fill="#110B17" transform="translate(143,15)"/>
<path d="M0,0 L1,2 L6,4 L4,7 L1,7 L1,5 L-2,4 Z " fill="#3C3D48" transform="translate(128,13)"/>
<path d="M0,0 L5,1 L9,5 L8,8 L5,5 L2,4 Z " fill="#43555B" transform="translate(118,0)"/>
<path d="M0,0 L8,0 L8,2 L5,2 L5,4 L-1,3 Z " fill="#384549" transform="translate(49,0)"/>
<path d="M0,0 L4,0 L4,4 L-4,4 Z " fill="#110F17" transform="translate(146,81)"/>
<path d="M0,0 L6,1 L8,2 L8,4 L10,5 L4,5 L2,4 L2,1 Z " fill="#2D3247" transform="translate(42,80)"/>
<path d="M0,0 L9,0 L8,3 L0,3 Z " fill="#06141A" transform="translate(12,82)"/>
<path d="M0,0 L1,3 L-1,6 L-4,6 L-5,9 L-10,9 L-6,5 L-3,4 Z " fill="#292537" transform="translate(143,76)"/>
<path d="M0,0 L2,0 L2,3 L-3,4 L-8,3 L-8,1 Z " fill="#071119" transform="translate(48,77)"/>
<path d="M0,0 L3,1 L3,3 L7,4 L7,6 L1,6 Z " fill="#192D3D" transform="translate(15,64)"/>
<path d="M0,0 L4,0 L2,6 L-2,5 Z " fill="#101B24" transform="translate(135,54)"/>
<path d="M0,0 L6,0 L6,3 L-3,5 L-2,2 L0,2 Z " fill="#2A4239" transform="translate(124,32)"/>
<path d="M0,0 L1,2 L6,3 L6,5 L3,5 L3,7 L-1,5 Z " fill="#082327" transform="translate(7,13)"/>
<path d="M0,0 L4,1 L5,5 L-2,6 Z " fill="#433B4D" transform="translate(132,5)"/>
<path d="M0,0 L7,0 L7,4 L0,3 Z " fill="#566A96" transform="translate(143,2)"/>
<path d="M0,0 L7,1 L9,3 L-2,3 Z " fill="#040D14" transform="translate(84,82)"/>
<path d="M0,0 L6,0 L7,6 L3,5 L2,1 Z " fill="#16283C" transform="translate(108,75)"/>
<path d="M0,0 L1,3 L3,3 L3,5 L-2,8 L-4,7 Z " fill="#3B4248" transform="translate(132,63)"/>
<path d="M0,0 L2,2 L3,9 L-2,9 L-2,6 L0,6 Z " fill="#21343B" transform="translate(88,35)"/>
<path d="M0,0 L3,1 L4,8 L1,8 Z " fill="#182735" transform="translate(136,30)"/>
<path d="M0,0 L1,0 L2,11 L1,14 L-1,14 L-2,9 L0,9 Z " fill="#253036" transform="translate(113,21)"/>
<path d="M0,0 L2,0 L2,2 L0,2 L1,8 L-2,9 L-4,2 Z " fill="#16212A" transform="translate(122,11)"/>
<path d="M0,0 L6,0 L6,6 L2,7 L4,3 L0,1 Z " fill="#1A3846" transform="translate(0,11)"/>
<path d="M0,0 L7,0 L6,4 L1,4 Z " fill="#0D1B2E" transform="translate(25,0)"/>
<path d="M0,0 L1,2 L3,2 L3,4 L-2,7 L-4,7 L-3,1 L0,2 Z " fill="#16262B" transform="translate(10,18)"/>
<path d="M0,0 L2,0 L2,4 L-3,8 L-3,2 Z " fill="#343148" transform="translate(133,1)"/>
<path d="M0,0 L3,3 L4,11 L1,11 L0,9 Z " fill="#253439" transform="translate(12,45)"/>
<path d="M0,0 L8,0 L7,3 L1,3 Z " fill="#020F16" transform="translate(32,47)"/>
<path d="M0,0 L6,0 L8,1 L8,3 L3,4 L0,2 Z " fill="#08201E" transform="translate(125,35)"/>
<path d="M0,0 L8,0 L8,3 L2,3 L0,2 Z " fill="#47565C" transform="translate(12,11)"/>
<path d="M0,0 L8,0 L8,3 L1,4 Z " fill="#172538" transform="translate(91,0)"/>
<path d="M0,0 L4,1 L4,3 L2,4 L-5,4 Z " fill="#606E7D" transform="translate(135,76)"/>
<path d="M0,0 L2,1 L2,8 L-1,7 L-1,5 L-4,6 L-4,4 Z " fill="#394D42" transform="translate(145,41)"/>
<path d="M0,0 L3,0 L3,2 L5,3 L1,3 L1,6 L-1,6 L-2,1 Z " fill="#262F36" transform="translate(76,19)"/>
<path d="M0,0 L2,1 L1,4 L-5,6 L-3,1 Z " fill="#313A48" transform="translate(120,9)"/>
<path d="M0,0 L12,0 L12,2 L7,2 L4,3 L4,1 Z " fill="#181E36" transform="translate(105,0)"/>
<path d="M0,0 L1,2 L4,3 L5,9 L2,9 L0,5 Z " fill="#304159" transform="translate(115,73)"/>
<path d="M0,0 L2,0 L2,8 L-1,8 Z " fill="#020B19" transform="translate(16,71)"/>
<path d="M0,0 L4,1 L4,4 L-1,5 Z " fill="#373E49" transform="translate(120,64)"/>
<path d="M0,0 L3,0 L5,7 L0,7 Z " fill="#273B35" transform="translate(77,49)"/>
<path d="M0,0 L2,4 L1,9 L-3,8 Z " fill="#202B45" transform="translate(46,20)"/>
<path d="M0,0 L5,0 L6,3 L-1,3 Z " fill="#455372" transform="translate(109,82)"/>
<path d="M0,0 L4,0 L3,5 L0,5 Z " fill="#07161A" transform="translate(0,55)"/>
<path d="M0,0 L5,0 L5,4 L0,3 Z " fill="#3C4F56" transform="translate(33,53)"/>
<path d="M0,0 L3,0 L2,4 L-3,4 L-2,1 Z " fill="#060E14" transform="translate(84,17)"/>
<path d="M0,0 L2,3 L6,5 L0,6 L-5,5 L-1,3 Z " fill="#18233D" transform="translate(140,2)"/>
<path d="M0,0 L4,0 L4,2 L6,2 L5,5 L0,3 Z " fill="#5F6A7D" transform="translate(105,2)"/>
<path d="M0,0 L6,0 L4,5 L2,5 Z " fill="#2C333A" transform="translate(104,80)"/>
<path d="M0,0 L5,0 L4,4 L0,3 Z " fill="#020D16" transform="translate(62,40)"/>
<path d="M0,0 L4,0 L3,5 L0,5 Z " fill="#36414B" transform="translate(14,35)"/>
<path d="M0,0 L6,0 L6,3 L0,3 Z " fill="#050A1E" transform="translate(0,32)"/>
<path d="M0,0 L4,1 L4,5 L-2,4 Z " fill="#162427" transform="translate(109,25)"/>
<path d="M0,0 L3,1 L3,8 L1,8 L-1,1 Z " fill="#2A3734" transform="translate(69,15)"/>
<path d="M0,0 L3,0 L4,6 L3,4 L-1,4 Z " fill="#333F45" transform="translate(17,14)"/>
<path d="M0,0 L5,1 L1,7 L0,7 Z " fill="#092B33" transform="translate(0,12)"/>
<path d="M0,0 L8,0 L6,4 L0,1 Z " fill="#1F2839" transform="translate(110,9)"/>
<path d="M0,0 L6,2 L3,3 L3,5 L-1,4 Z " fill="#18223A" transform="translate(104,4)"/>
<path d="M0,0 L6,0 L4,4 L0,4 Z " fill="#1A2E32" transform="translate(0,74)"/>
<path d="M0,0 L4,2 L1,3 L-1,6 L-3,2 Z " fill="#343941" transform="translate(108,63)"/>
<path d="M0,0 L3,0 L6,4 L3,5 L0,3 Z " fill="#2F393D" transform="translate(107,44)"/>
<path d="M0,0 L4,1 L4,4 L-1,4 Z " fill="#233A41" transform="translate(61,46)"/>
<path d="M0,0 L6,0 L5,3 L0,3 Z " fill="#102029" transform="translate(6,42)"/>
<path d="M0,0 L1,0 L1,8 L-2,8 L-1,1 Z " fill="#122626" transform="translate(34,30)"/>
<path d="M0,0 L3,0 L3,4 L2,6 L-1,5 Z " fill="#08181E" transform="translate(89,10)"/>
<path d="M0,0 L5,1 L5,6 L2,5 L4,5 L3,3 L0,2 Z " fill="#4A566A" transform="translate(135,74)"/>
<path d="M0,0 L3,0 L3,2 L6,3 L-2,4 Z " fill="#283142" transform="translate(144,67)"/>
<path d="M0,0 L5,0 L5,3 L-1,3 Z " fill="#0C161F" transform="translate(127,46)"/>
<path d="M0,0 L2,1 L2,3 L6,3 L6,5 L1,5 Z " fill="#0D1526" transform="translate(44,30)"/>
<path d="M0,0 L1,0 L1,5 L-2,7 L-3,4 Z " fill="#293237" transform="translate(40,28)"/>
<path d="M0,0 L4,0 L2,4 L-1,4 Z " fill="#363A42" transform="translate(24,16)"/>
<path d="M0,0 L5,1 L5,6 L3,5 L3,2 L0,2 Z " fill="#2A2224" transform="translate(132,14)"/>
<path d="M0,0 L2,0 L3,3 L7,5 L0,5 Z " fill="#1F3146" transform="translate(18,0)"/>
<path d="M0,0 L5,0 L1,4 L-1,4 Z " fill="#071C29" transform="translate(54,81)"/>
<path d="M0,0 L5,0 L5,3 L0,3 Z " fill="#54746F" transform="translate(3,82)"/>
<path d="M0,0 L2,1 L2,8 L-1,4 Z " fill="#01060A" transform="translate(10,44)"/>
<path d="M0,0 L4,1 L3,4 L0,4 L0,2 L-2,1 Z " fill="#1A2528" transform="translate(110,42)"/>
<path d="M0,0 L3,0 L3,7 L0,5 Z " fill="#172831" transform="translate(55,30)"/>
<path d="M0,0 L4,0 L4,3 L-2,3 Z " fill="#212B36" transform="translate(73,27)"/>
<path d="M0,0 L1,0 L1,6 L-1,7 L-2,2 Z M-2,7 Z " fill="#1F2A26" transform="translate(39,21)"/>
<path d="M0,0 L6,0 L6,4 L2,2 Z " fill="#102425" transform="translate(121,0)"/>
<path d="M0,0 L1,4 L-5,3 L-2,1 Z " fill="#1E323C" transform="translate(38,77)"/>
<path d="M0,0 L0,3 L-1,5 L2,6 L-2,6 L-2,3 L-4,2 Z " fill="#2A333E" transform="translate(132,69)"/>
<path d="M0,0 L4,0 L3,5 L0,2 Z " fill="#212934" transform="translate(115,63)"/>
<path d="M0,0 L5,2 L5,4 L1,4 Z " fill="#18222B" transform="translate(109,58)"/>
<path d="M0,0 L5,1 L5,3 L-1,3 Z " fill="#0B1816" transform="translate(101,41)"/>
<path d="M0,0 L3,3 L2,8 L1,6 L-1,5 L1,5 Z " fill="#252B3C" transform="translate(7,27)"/>
<path d="M0,0 L3,2 L3,5 L-1,5 Z " fill="#373C50" transform="translate(111,4)"/>
<path d="M0,0 L5,0 L4,3 L-1,3 Z " fill="#303C55" transform="translate(1,8)"/>
<path d="M0,0 L6,0 L4,4 L4,2 L0,2 Z " fill="#303A56" transform="translate(2,4)"/>
<path d="M0,0 L2,1 L2,4 L-3,4 Z " fill="#010416" transform="translate(125,74)"/>
<path d="M0,0 L2,0 L1,4 L-4,4 Z " fill="#62708B" transform="translate(148,70)"/>
<path d="M0,0 L3,1 L2,5 L0,5 L-1,1 Z " fill="#555B64" transform="translate(135,63)"/>
<path d="M0,0 L2,1 L2,5 L0,5 L-3,1 Z " fill="#34473F" transform="translate(76,49)"/>
<path d="M0,0 L1,0 L1,5 L-3,3 Z " fill="#273537" transform="translate(107,50)"/>
<path d="M0,0 L4,0 L5,3 L3,6 L1,2 Z " fill="#192332" transform="translate(114,15)"/>
<path d="M0,0 L5,2 L5,3 L-2,2 Z " fill="#13202A" transform="translate(30,82)"/>
<path d="M0,0 L5,1 L1,4 Z " fill="#182436" transform="translate(121,71)"/>
<path d="M0,0 L2,1 L0,4 L2,5 L-2,6 Z " fill="#231A2A" transform="translate(144,62)"/>
<path d="M0,0 L3,0 L2,5 L0,5 Z " fill="#02050A" transform="translate(0,65)"/>
<path d="M0,0 L4,0 L4,3 L0,3 Z " fill="#3C4C51" transform="translate(4,51)"/>
<path d="M0,0 L2,4 L-2,5 Z " fill="#1B2B20" transform="translate(142,40)"/>
<path d="M0,0 L4,2 L4,3 L-1,3 L-2,1 Z " fill="#081D33" transform="translate(61,37)"/>
<path d="M0,0 L5,0 L5,2 L0,3 Z " fill="#010310" transform="translate(73,33)"/>
<path d="M0,0 L3,0 L3,6 L2,3 L0,3 Z " fill="#0A1D1E" transform="translate(127,24)"/>
<path d="M0,0 L4,1 L2,4 L0,4 Z " fill="#564F5D" transform="translate(130,16)"/>
<path d="M0,0 L3,0 L3,3 L-2,4 L0,3 Z " fill="#1E2A26" transform="translate(49,14)"/>
<path d="M0,0 L3,0 L3,5 L2,3 L0,3 Z " fill="#4D5762" transform="translate(138,58)"/>
<path d="M0,0 L3,0 L3,4 L0,3 Z " fill="#03080B" transform="translate(10,54)"/>
<path d="M0,0 L2,0 L2,4 L-2,3 Z " fill="#061E1B" transform="translate(78,40)"/>
<path d="M0,0 L1,2 L-2,5 L-3,2 Z " fill="#3C4E4A" transform="translate(141,37)"/>
<path d="M0,0 L1,2 L3,2 L2,6 L0,4 Z " fill="#2A3647" transform="translate(132,24)"/>
<path d="M0,0 L2,0 L1,4 L-2,4 L-2,2 L0,2 Z " fill="#010A11" transform="translate(67,20)"/>
<path d="M0,0 L3,1 L2,3 L-3,2 Z " fill="#090A07" transform="translate(145,19)"/>
<path d="M0,0 L4,0 L4,3 L0,2 Z " fill="#020610" transform="translate(111,12)"/>
<path d="M0,0 L3,2 L3,4 L-1,3 Z " fill="#0C2534" transform="translate(112,77)"/>
<path d="M0,0 L1,0 L1,5 L-2,5 Z " fill="#0E1822" transform="translate(133,69)"/>
<path d="M0,0 L2,0 L2,3 L-2,4 Z " fill="#464F55" transform="translate(130,67)"/>
<path d="M0,0 L2,0 L2,6 L-1,2 Z " fill="#092534" transform="translate(14,68)"/>
<path d="M0,0 L2,0 L3,4 L-1,3 Z " fill="#0A0912" transform="translate(145,63)"/>
<path d="M0,0 L2,0 L1,4 L-1,4 Z " fill="#131C21" transform="translate(127,62)"/>
<path d="M0,0 L2,0 L2,3 L-2,3 L-2,1 Z " fill="#363C45" transform="translate(125,59)"/>
<path d="M0,0 L3,1 L3,4 L0,3 Z " fill="#808F95" transform="translate(147,43)"/>
<path d="M0,0 L4,1 L3,3 L0,3 Z " fill="#363E4B" transform="translate(10,30)"/>
<path d="M0,0 L2,0 L2,2 L4,3 L-1,3 Z " fill="#2E4444" transform="translate(10,11)"/>
<path d="M0,0 Z M-3,1 L0,1 L0,4 L-3,4 Z " fill="#2F3741" transform="translate(23,10)"/>
<path d="M0,0 L1,2 L3,2 L3,4 L-1,4 Z " fill="#020609" transform="translate(50,4)"/>
<path d="M0,0 L2,0 L3,3 L0,5 Z " fill="#282036" transform="translate(130,4)"/>
<path d="M0,0 L4,1 L3,3 L0,3 Z " fill="#27353B" transform="translate(45,0)"/>
<path d="M0,0 L4,0 L4,3 L1,3 Z " fill="#05142A" transform="translate(26,0)"/>
<path d="M0,0 L2,1 L2,3 L-2,3 L-2,1 Z " fill="#192C35" transform="translate(46,75)"/>
<path d="M0,0 L2,1 L2,4 L-1,4 Z " fill="#0A1328" transform="translate(148,65)"/>
<path d="M0,0 L3,0 L3,3 L0,3 Z " fill="#3B4C57" transform="translate(12,64)"/>
<path d="M0,0 L3,1 L3,4 L1,4 Z " fill="#353F46" transform="translate(111,31)"/>
<path d="M0,0 L3,0 L2,4 Z " fill="#021013" transform="translate(109,22)"/>
<path d="M0,0 L3,0 L3,3 L0,3 Z " fill="#0A171B" transform="translate(87,22)"/>
<path d="M0,0 L2,1 L2,3 L-2,3 L-2,1 Z " fill="#434E55" transform="translate(120,9)"/>
<path d="M0,0 L5,1 L3,2 L2,4 Z " fill="#354353" transform="translate(118,0)"/>
<path d="M0,0 L2,0 L2,3 L-1,3 Z " fill="#172933" transform="translate(52,69)"/>
<path d="M0,0 L3,1 L3,3 L0,3 Z " fill="#283A40" transform="translate(111,55)"/>
<path d="M0,0 L3,0 L2,3 L0,3 Z " fill="#33444C" transform="translate(80,49)"/>
<path d="M0,0 L3,0 L3,3 L0,2 Z " fill="#808E9A" transform="translate(147,49)"/>
<path d="M0,0 L2,0 L2,3 L-1,3 Z " fill="#4C5D5A" transform="translate(142,46)"/>
<path d="M0,0 L3,0 L2,3 L0,3 Z " fill="#4A5157" transform="translate(107,44)"/>
<path d="M0,0 L3,1 L3,3 L0,3 Z " fill="#0B1823" transform="translate(137,35)"/>
<path d="M0,0 L3,0 L2,3 L0,3 Z " fill="#29403D" transform="translate(126,28)"/>
<path d="M0,0 L4,0 L3,3 Z " fill="#2E3D43" transform="translate(54,12)"/>
<path d="M0,0 L3,0 L3,3 L0,2 Z " fill="#152129" transform="translate(120,4)"/>
<path d="M0,0 L3,0 L2,3 L0,2 Z " fill="#19212C" transform="translate(115,63)"/>
<path d="M0,0 L3,0 L2,3 L0,2 Z " fill="#53706E" transform="translate(124,5)"/>
</svg>
