<?xml version="1.0" encoding="UTF-8"?>
<!-- Generator: visioncortex VTracer 0.6.5 -->
<svg version="1.1" xmlns="http://www.w3.org/2000/svg" width="150" height="38">
<path d="M0,0 L150,0 L150,38 L0,38 Z " fill="#020202" transform="translate(0,0)"/>
<path d="M0,0 L7,0 L7,2 L9,2 L9,0 L20,0 L20,2 L22,3 L32,3 L35,4 L37,6 L44,9 L45,13 L47,14 L48,19 L50,20 L50,25 L-30,25 L-28,16 L-21,7 L-19,7 L-18,4 L-16,7 L-15,3 L-13,3 L-12,4 L-2,3 Z " fill="#0A0A0A" transform="translate(65,13)"/>
<path d="M0,0 L9,0 L17,5 L20,10 L20,13 L-11,13 L-10,9 L-6,3 Z " fill="#182020" transform="translate(70,25)"/>
<path d="M0,0 L11,0 L11,2 L13,3 L23,3 L26,4 L26,7 L13,8 L6,7 L5,8 L-3,8 L-3,3 L0,2 Z " fill="#202020" transform="translate(74,13)"/>
<path d="M0,0 L9,0 L17,5 L19,8 L18,12 L17,8 L12,6 L9,6 L9,4 L6,5 L5,4 L-3,3 Z " fill="#263738" transform="translate(70,25)"/>
<path d="M0,0 L16,0 L19,1 L19,4 L6,5 L0,4 Z " fill="#A7A7A7" transform="translate(81,16)"/>
<path d="M0,0 L2,0 L3,1 L13,0 L18,0 L18,4 L6,5 L0,4 Z " fill="#A1A1A1" transform="translate(50,16)"/>
<path d="M0,0 L9,1 L7,5 L7,3 L-1,5 L-4,9 L-5,11 L-7,11 L-6,7 L-2,1 Z " fill="#1C2827" transform="translate(66,27)"/>
<path d="M0,0 L9,1 L9,4 L2,4 L-4,2 Z " fill="#0A0A0A" transform="translate(85,13)"/>
<path d="M0,0 L7,0 L7,2 L10,2 L9,4 L7,4 L5,7 L3,7 L3,3 L-1,2 Z " fill="#181818" transform="translate(65,13)"/>
<path d="M0,0 L6,1 L6,4 L-2,4 L-2,1 Z " fill="#9A9A9A" transform="translate(94,16)"/>
<path d="M0,0 L2,0 L3,1 L10,0 L10,2 L6,4 L0,4 Z " fill="#979797" transform="translate(50,16)"/>
<path d="M0,0 L7,1 L7,4 L0,4 Z " fill="#A4A4A4" transform="translate(71,16)"/>
<path d="M0,0 L4,1 L4,4 L0,4 Z " fill="#9C9C9C" transform="translate(81,16)"/>
<path d="M0,0 L5,0 L5,4 L2,4 L2,1 Z " fill="#717171" transform="translate(63,16)"/>
<path d="M0,0 L2,0 L2,2 L4,3 L-3,3 Z " fill="#283B3B" transform="translate(70,25)"/>
<path d="M0,0 L3,1 L2,3 L0,3 Z " fill="#929292" transform="translate(92,17)"/>
</svg>
