<?xml version="1.0" encoding="UTF-8"?>
<!-- Generator: visioncortex VTracer 0.6.5 -->
<svg version="1.1" xmlns="http://www.w3.org/2000/svg" width="150" height="85">
<path d="M0,0 L150,0 L150,85 L0,85 Z " fill="#181C23" transform="translate(0,0)"/>
<path d="M0,0 L50,0 L50,85 L18,85 L18,80 L25,81 L25,75 L27,73 L25,73 L24,75 L18,75 L18,72 L10,71 L6,73 L4,75 L3,68 L0,62 L8,62 L10,58 L19,56 L18,51 L12,52 L10,54 L6,54 L6,51 L3,50 L6,45 L6,41 L16,41 L17,42 L20,38 L22,39 L23,35 L26,34 L26,32 L28,32 L28,30 L26,30 L27,25 L29,25 L27,20 L27,16 L25,16 L25,14 L29,14 L29,11 L22,12 L19,14 L15,12 L15,19 L9,23 L9,27 L5,26 L3,25 L2,11 L-1,12 L0,8 L4,9 L6,14 L10,17 L13,17 L14,11 L10,12 L9,4 L7,2 L6,4 L2,4 L2,1 Z " fill="#1D2B3B" transform="translate(100,0)"/>
<path d="M0,0 L6,0 L8,5 L8,8 L5,8 L5,11 L8,10 L9,13 L6,14 L6,23 L5,28 L11,28 L13,29 L13,27 L11,27 L11,25 L13,25 L14,20 L16,20 L16,29 L18,29 L18,19 L21,19 L22,21 L21,31 L19,31 L18,34 L18,32 L16,32 L16,35 L18,35 L17,39 L14,43 L3,42 L4,46 L5,49 L12,48 L12,50 L14,50 L14,52 L12,52 L12,59 L10,62 L10,65 L6,66 L5,69 L10,69 L10,73 L6,74 L5,77 L-8,77 L-8,72 L-1,73 L-1,67 L1,65 L-1,65 L-2,67 L-8,67 L-8,64 L-16,63 L-20,65 L-22,67 L-23,60 L-26,54 L-18,54 L-16,50 L-7,48 L-8,43 L-14,44 L-16,46 L-20,46 L-20,43 L-23,42 L-20,37 L-20,33 L-10,33 L-9,34 L-6,30 L-4,31 L-3,27 L0,26 L0,24 L2,24 L2,22 L0,22 L1,17 L3,17 L1,12 L1,8 L-1,8 L-1,6 L3,6 L3,3 L0,3 Z " fill="#1E2735" transform="translate(126,8)"/>
<path d="M0,0 L1,2 L3,2 L3,6 L5,6 L5,8 L13,8 L13,32 L11,34 L18,35 L21,33 L28,33 L29,39 L30,42 L29,43 L21,43 L21,49 L20,50 L0,50 Z " fill="#172026" transform="translate(0,35)"/>
<path d="M0,0 L4,0 L6,3 L6,37 L-13,37 L-12,33 L-8,33 L-8,29 L-13,29 L-12,25 L-8,25 L-9,21 L-7,19 L-6,12 L-4,12 L-4,10 L-6,10 L-6,8 L-13,9 L-16,5 L-15,1 L-11,2 L-11,5 L0,6 Z " fill="#1C232E" transform="translate(144,48)"/>
<path d="M0,0 L6,0 L7,4 L10,3 L10,5 L6,6 L4,13 L12,14 L12,8 L16,4 L29,6 L32,8 L30,11 L25,11 L25,9 L20,9 L20,17 L13,19 L9,18 L9,20 L13,20 L14,23 L14,35 L10,36 L8,32 L11,29 L8,30 L-1,30 L-3,29 L-3,25 L-5,25 L-6,23 L-6,16 L1,18 L-1,9 L-2,6 L0,6 Z M12,23 Z " fill="#11151B" transform="translate(6,12)"/>
<path d="M0,0 L6,0 L8,5 L8,8 L5,8 L5,11 L8,10 L9,13 L6,14 L6,23 L5,28 L11,28 L13,29 L13,27 L11,27 L11,25 L13,25 L14,20 L16,20 L16,29 L18,29 L18,19 L21,19 L22,21 L21,31 L19,31 L18,34 L18,32 L16,32 L16,35 L18,35 L17,39 L14,43 L6,42 L6,40 L1,42 L-3,41 L-2,28 L0,24 L2,24 L2,22 L0,22 L1,17 L3,17 L1,12 L1,8 L-1,8 L-1,6 L3,6 L3,3 L0,3 Z " fill="#333B4D" transform="translate(126,8)"/>
<path d="M0,0 L37,0 L36,5 L32,9 L32,14 L35,14 L35,17 L33,17 L32,21 L29,21 L30,17 L29,16 L25,16 L25,9 L20,10 L20,8 L12,9 L10,8 L10,10 L4,10 L2,8 L-1,8 Z " fill="#21262F" transform="translate(48,0)"/>
<path d="M0,0 L7,0 L8,6 L9,9 L8,10 L0,10 L0,16 L-1,17 L-21,17 L-21,4 L-13,4 L-13,6 L-10,6 L-11,2 L-3,2 Z " fill="#182230" transform="translate(21,68)"/>
<path d="M0,0 L2,0 L1,4 L14,2 L19,1 L19,3 L27,2 L29,10 L37,10 L38,8 L38,14 L0,14 L1,12 L4,12 L4,7 L0,7 L-1,1 Z " fill="#121A23" transform="translate(53,71)"/>
<path d="M0,0 L3,0 L3,3 L-1,3 L-1,5 L1,5 L3,10 L3,14 L1,14 L0,19 L2,19 L2,21 L0,21 L0,23 L2,24 L-3,25 L-4,28 L-7,29 L-9,32 L-13,31 L-20,30 L-20,32 L-22,32 L-22,29 L-24,29 L-24,26 L-17,26 L-17,24 L-21,24 L-21,22 L-11,18 L-9,17 L-8,19 L-2,20 L-2,10 L-5,9 L-6,12 L-6,3 L0,1 Z M-22,28 L-22,29 L-16,29 L-16,28 Z " fill="#22292C" transform="translate(126,11)"/>
<path d="M0,0 L15,0 L15,5 L17,5 L17,7 L12,9 L10,11 L6,11 L6,18 L4,18 L6,21 L7,30 L1,29 L0,28 Z " fill="#101A2A" transform="translate(0,0)"/>
<path d="M0,0 L6,1 L2,3 L-1,4 L-1,1 Z M-7,1 L-3,2 L-1,9 L3,10 L3,17 L2,20 L-4,20 L-6,18 L-11,21 L-16,21 L-16,17 L-13,17 L-13,13 L-15,12 L-9,8 L-7,8 Z " fill="#0C1C28" transform="translate(122,11)"/>
<path d="M0,0 L40,0 L40,7 L28,8 L28,5 L24,5 L24,7 L15,8 L13,9 L12,5 L6,5 L7,1 L0,1 Z " fill="#2A2930" transform="translate(110,0)"/>
<path d="M0,0 L4,0 L4,3 L7,2 L16,2 L16,10 L7,11 L8,13 L11,15 L3,16 L1,17 L-1,14 L-3,14 L-3,11 L0,11 L-2,4 L-8,3 L-9,6 L-9,2 L0,2 Z " fill="#262A34" transform="translate(134,5)"/>
<path d="M0,0 L6,3 L6,27 L0,27 L0,22 L-4,22 L-3,13 L-1,9 L2,9 L2,6 L0,6 Z " fill="#141A2D" transform="translate(144,58)"/>
<path d="M0,0 L4,1 L3,4 L3,13 L7,13 L7,18 L3,20 L-3,20 L-8,17 L-9,9 L-4,8 L-2,3 Z " fill="#1F242D" transform="translate(50,65)"/>
<path d="M0,0 L1,2 L3,2 L3,6 L5,6 L5,8 L13,8 L12,32 L10,32 L9,17 L8,18 L1,18 L0,16 Z " fill="#2A2F35" transform="translate(0,35)"/>
<path d="M0,0 L10,0 L20,2 L20,14 L16,15 L14,11 L17,8 L14,9 L5,9 L3,8 L3,4 L1,4 Z " fill="#010204" transform="translate(0,33)"/>
<path d="M0,0 L4,0 L3,5 L2,7 L8,9 L11,12 L16,14 L16,16 L-2,16 L-2,9 L-1,7 L-6,6 L-6,3 Z " fill="#2C3A3F" transform="translate(94,69)"/>
<path d="M0,0 L2,0 L2,3 L8,3 L9,0 L12,1 L11,3 L9,3 L9,9 L2,8 L2,13 L-5,13 L-6,10 L-13,7 L-13,4 L0,3 Z " fill="#121822" transform="translate(116,72)"/>
<path d="M0,0 L7,0 L8,6 L9,9 L8,10 L0,10 L0,16 L-3,17 L-3,10 L-2,9 L-10,6 L-11,2 L-3,2 Z " fill="#2F353C" transform="translate(21,68)"/>
<path d="M0,0 L3,1 L3,5 L5,6 L4,7 L-5,9 L-7,11 L-13,11 L-15,7 L-17,7 L-16,3 L-9,2 L-9,4 L-4,2 Z " fill="#10181F" transform="translate(115,50)"/>
<path d="M0,0 L1,3 L4,4 L3,7 L8,7 L8,11 L4,12 L3,15 L-10,15 L-10,10 L-3,11 L-3,5 L-1,4 Z " fill="#1F252D" transform="translate(128,70)"/>
<path d="M0,0 L12,0 L12,5 L9,8 L6,8 L6,6 L4,6 L4,8 L1,11 L0,17 L-3,20 L-6,20 L-6,18 L-4,18 L-5,7 L0,5 L4,4 L3,1 Z " fill="#1B2A3A" transform="translate(138,15)"/>
<path d="M0,0 L2,0 L3,5 L8,2 L14,4 L14,7 L9,8 L1,8 L2,11 L9,14 L8,17 L8,15 L1,13 L0,10 L-4,9 L-6,8 L-4,3 Z " fill="#17232F" transform="translate(102,68)"/>
<path d="M0,0 L5,0 L5,2 L7,2 L7,4 L5,4 L5,11 L3,14 L3,17 L-4,17 L-3,11 L-1,10 L-1,6 L-3,6 L-2,2 Z " fill="#292D36" transform="translate(133,56)"/>
<path d="M0,0 L22,0 L24,4 L24,7 L15,8 L13,9 L12,5 L6,5 L7,1 L0,1 Z " fill="#141523" transform="translate(110,0)"/>
<path d="M0,0 L5,0 L6,3 L8,3 L8,5 L18,4 L19,2 L19,8 L-3,8 L-2,1 Z " fill="#031625" transform="translate(72,77)"/>
<path d="M0,0 L2,0 L3,7 L6,8 L7,4 L10,5 L10,7 L8,7 L8,9 L11,10 L5,11 L2,10 L-2,12 L-4,14 L-5,7 L-8,1 Z " fill="#292D3B" transform="translate(108,61)"/>
<path d="M0,0 L2,0 L2,4 L5,4 L5,12 L3,11 L3,9 L-1,9 L0,16 L-7,15 L-12,14 L-12,11 L-5,11 L-1,4 L-3,4 L-3,1 Z " fill="#2A2D3C" transform="translate(145,39)"/>
<path d="M0,0 L10,0 L10,7 L4,10 L4,13 L0,13 L0,10 L-3,9 L0,4 Z " fill="#30353B" transform="translate(106,41)"/>
<path d="M0,0 L10,0 L10,3 L12,3 L12,6 L10,6 L10,10 L4,10 L2,8 L-1,8 Z " fill="#282835" transform="translate(48,0)"/>
<path d="M0,0 L5,1 L5,8 L3,8 L3,10 L-1,9 L-1,7 L-8,9 L-10,5 L-7,1 Z M-9,6 Z " fill="#21262D" transform="translate(73,65)"/>
<path d="M0,0 L3,3 L3,11 L7,10 L6,16 L2,17 L-3,12 L-5,4 L-2,3 Z " fill="#1D1927" transform="translate(107,1)"/>
<path d="M0,0 L3,0 L3,3 L6,2 L15,2 L15,9 L3,9 L3,6 L1,6 Z " fill="#36373F" transform="translate(135,5)"/>
<path d="M0,0 L6,0 L8,5 L8,8 L5,8 L5,11 L8,10 L9,13 L6,14 L5,18 L1,19 L1,17 L3,17 L1,12 L1,8 L-1,8 L-1,6 L3,6 L3,3 L0,3 Z " fill="#303D3F" transform="translate(126,8)"/>
<path d="M0,0 L11,0 L12,3 L14,4 L13,8 L4,10 L3,9 L3,4 L0,4 Z M7,7 Z " fill="#09171F" transform="translate(15,0)"/>
<path d="M0,0 L1,2 L5,1 L13,1 L9,2 L9,6 L13,6 L13,11 L0,11 L1,7 L5,7 L5,3 L0,3 Z " fill="#152730" transform="translate(131,74)"/>
<path d="M0,0 L15,0 L15,4 L10,5 L10,7 L0,7 Z " fill="#293C39" transform="translate(0,0)"/>
<path d="M0,0 L4,0 L3,8 L5,8 L5,11 L2,11 L0,18 L-5,20 L-9,20 L-9,17 L-5,16 L-2,11 L-1,11 Z " fill="#121921" transform="translate(141,56)"/>
<path d="M0,0 L6,0 L8,1 L8,3 L3,5 L1,7 L-5,8 L-6,11 L-9,11 L-9,3 L1,3 Z " fill="#303638" transform="translate(9,4)"/>
<path d="M0,0 L10,0 L18,2 L18,3 L6,5 L6,7 L14,8 L14,9 L5,9 L3,8 L3,4 L1,4 Z " fill="#070C10" transform="translate(0,33)"/>
<path d="M0,0 L6,3 L6,14 L0,15 L-1,9 L2,9 L2,6 L0,6 Z " fill="#12171F" transform="translate(144,58)"/>
<path d="M0,0 L2,0 L2,3 L4,3 L4,8 L7,8 L7,11 L5,11 L4,15 L1,15 L2,11 L1,10 L-3,10 L-2,2 Z " fill="#292E37" transform="translate(76,6)"/>
<path d="M0,0 L5,0 L4,7 L1,8 L-8,4 L-8,1 Z " fill="#041118" transform="translate(111,75)"/>
<path d="M0,0 L6,0 L7,3 L12,5 L11,8 L4,8 L2,10 L-2,10 L-1,7 L2,7 L2,5 L0,5 Z " fill="#252B3C" transform="translate(86,0)"/>
<path d="M0,0 L8,1 L10,7 L10,10 L3,10 Z " fill="#07131E" transform="translate(7,75)"/>
<path d="M0,0 L6,0 L7,3 L6,9 L0,9 L-2,8 L-1,1 Z " fill="#161E2B" transform="translate(12,17)"/>
<path d="M0,0 L7,0 L8,3 L12,2 L12,5 L5,8 L2,8 L-1,3 Z " fill="#050911" transform="translate(89,10)"/>
<path d="M0,0 L5,0 L5,3 L9,2 L10,8 L1,8 L0,4 Z " fill="#2F3C4A" transform="translate(111,2)"/>
<path d="M0,0 L4,0 L6,3 L6,13 L1,11 Z " fill="#27222E" transform="translate(144,48)"/>
<path d="M0,0 L4,1 L6,6 L6,17 L9,17 L9,19 L5,18 L3,17 L2,3 L-1,4 Z " fill="#2C2D39" transform="translate(100,8)"/>
<path d="M0,0 L1,2 L4,2 L4,4 L2,4 L2,6 L4,7 L-1,8 L-2,11 L-5,12 L-7,15 L-8,14 L-8,8 L-7,6 L-1,6 Z " fill="#171C29" transform="translate(124,28)"/>
<path d="M0,0 L4,1 L4,10 L-1,11 L-3,9 L-1,3 L-3,3 L-3,1 Z " fill="#070B0F" transform="translate(21,19)"/>
<path d="M0,0 L4,1 L4,5 L10,4 L20,3 L20,5 L18,5 L18,7 L14,8 L3,7 L1,6 Z " fill="#050C13" transform="translate(50,37)"/>
<path d="M0,0 L3,0 L5,9 L-3,9 L-9,8 L-5,6 L-2,3 L2,3 L2,1 Z " fill="#272E2D" transform="translate(15,4)"/>
<path d="M0,0 L3,1 L1,1 L2,3 L2,12 L0,12 L0,14 L3,14 L4,11 L6,11 L5,7 L7,5 L7,12 L5,12 L5,14 L7,14 L7,16 L-1,15 L-1,1 Z " fill="#26333A" transform="translate(132,21)"/>
<path d="M0,0 L7,0 L8,7 L0,7 Z " fill="#194454" transform="translate(2,78)"/>
<path d="M0,0 L1,2 L6,3 L6,6 L8,7 L4,10 L0,9 L-2,3 Z " fill="#393D47" transform="translate(46,75)"/>
<path d="M0,0 L4,1 L4,8 L3,11 L-1,11 L-1,7 L-3,7 L-3,4 L0,4 Z " fill="#051B21" transform="translate(121,20)"/>
<path d="M0,0 L5,0 L5,2 L3,2 L4,13 L0,14 Z " fill="#2C2A33" transform="translate(85,15)"/>
<path d="M0,0 L7,0 L7,7 L0,6 L-1,1 Z " fill="#171A21" transform="translate(143,0)"/>
<path d="M0,0 L10,0 L10,5 L5,6 L1,4 Z " fill="#11070D" transform="translate(122,0)"/>
<path d="M0,0 L1,0 L1,19 L-2,19 L-2,1 Z " fill="#161F30" transform="translate(149,24)"/>
<path d="M0,0 L5,2 L3,10 L-1,8 L-2,5 L-4,4 L-4,1 Z " fill="#2C3138" transform="translate(85,31)"/>
<path d="M0,0 L2,0 L2,4 L5,4 L5,12 L2,9 L-2,7 L-1,4 L-3,4 L-3,1 Z " fill="#2E3341" transform="translate(145,39)"/>
<path d="M0,0 L4,0 L3,5 L2,6 L-6,6 L-6,3 Z " fill="#383B43" transform="translate(94,69)"/>
<path d="M0,0 L6,0 L8,2 L8,6 L0,6 Z " fill="#081617" transform="translate(0,0)"/>
<path d="M0,0 L3,0 L4,4 L7,5 L7,9 L1,8 L0,7 Z " fill="#22273A" transform="translate(0,21)"/>
<path d="M0,0 L8,1 L8,6 L0,6 L1,2 L-1,1 Z " fill="#474549" transform="translate(142,8)"/>
<path d="M0,0 L10,0 L17,1 L16,4 L16,2 L11,2 L12,7 L10,7 L7,2 L6,4 L2,4 L2,1 Z " fill="#0D2C37" transform="translate(100,0)"/>
<path d="M0,0 L2,0 L2,13 L1,10 L-5,10 L-6,7 L0,8 L0,6 L-2,6 L-2,4 L0,4 Z " fill="#465563" transform="translate(139,29)"/>
<path d="M0,0 L5,0 L6,5 L4,8 L2,8 L0,10 Z " fill="#202020" transform="translate(26,21)"/>
<path d="M0,0 L8,0 L8,1 L1,2 L2,6 L-3,6 L-3,12 L-5,12 L-6,8 L-4,8 L-4,2 Z " fill="#10121C" transform="translate(88,9)"/>
<path d="M0,0 L5,0 L7,2 L7,9 L4,9 L4,4 L0,4 Z " fill="#2D4554" transform="translate(140,76)"/>
<path d="M0,0 L4,1 L3,9 L0,12 L-3,12 L-3,10 L-1,10 Z " fill="#0C171F" transform="translate(135,23)"/>
<path d="M0,0 L5,0 L9,1 L7,5 L-1,5 Z " fill="#15131B" transform="translate(23,80)"/>
<path d="M0,0 L12,0 L12,2 L10,2 L10,5 L4,4 L3,1 Z " fill="#191822" transform="translate(138,15)"/>
<path d="M0,0 L5,1 L6,5 L4,5 L3,8 L0,8 Z " fill="#41464C" transform="translate(0,7)"/>
<path d="M0,0 L3,0 L3,4 L-1,5 L-2,8 L-6,8 L-6,4 Z " fill="#354C55" transform="translate(133,77)"/>
<path d="M0,0 L2,0 L2,6 L4,6 L4,8 L-1,8 L-3,4 L-5,4 L-5,2 Z " fill="#010409" transform="translate(103,53)"/>
<path d="M0,0 L4,0 L4,5 L-3,7 L-6,9 L-4,5 Z " fill="#09141B" transform="translate(113,52)"/>
<path d="M0,0 L6,0 L7,1 L7,7 L3,7 L3,3 L0,3 Z " fill="#3B4254" transform="translate(126,8)"/>
<path d="M0,0 L1,0 L0,10 L-3,8 L-3,5 L-5,5 L-5,2 Z " fill="#425859" transform="translate(131,25)"/>
<path d="M0,0 L5,0 L5,2 L3,2 L3,6 L-3,6 L-3,2 Z " fill="#2E383E" transform="translate(55,4)"/>
<path d="M0,0 L3,3 L2,8 L-1,9 L-5,4 L-2,3 Z " fill="#041825" transform="translate(107,1)"/>
<path d="M0,0 L9,1 L9,3 L7,4 L-1,4 Z " fill="#090E17" transform="translate(51,60)"/>
<path d="M0,0 L2,1 L3,8 L-4,12 L-3,7 L-1,5 Z " fill="#1E2A33" transform="translate(40,29)"/>
<path d="M0,0 L8,0 L7,5 L1,4 Z " fill="#061820" transform="translate(103,76)"/>
<path d="M0,0 L8,1 L8,6 L4,8 L1,7 L4,5 L3,1 Z " fill="#2A3138" transform="translate(49,77)"/>
<path d="M0,0 L2,0 L3,3 L7,4 L7,7 L5,7 L5,9 L1,8 Z " fill="#344049" transform="translate(80,73)"/>
<path d="M0,0 L4,0 L3,8 L5,8 L5,11 L1,11 Z " fill="#050B18" transform="translate(141,56)"/>
<path d="M0,0 L6,1 L2,3 L-1,4 L-1,1 Z M-7,1 L-3,2 L-2,5 L-7,4 Z " fill="#0C1324" transform="translate(122,11)"/>
<path d="M0,0 L2,0 L2,4 L-10,4 L-6,1 Z " fill="#020813" transform="translate(142,81)"/>
<path d="M0,0 L8,0 L8,4 L1,4 Z " fill="#080D15" transform="translate(66,61)"/>
<path d="M0,0 L6,0 L4,1 L3,5 L-4,6 L-4,3 L-1,3 Z " fill="#191D2B" transform="translate(76,0)"/>
<path d="M0,0 L7,1 L8,4 L-1,4 Z " fill="#4A6068" transform="translate(96,81)"/>
<path d="M0,0 L10,0 L9,2 L6,2 L6,5 L1,4 Z " fill="#262B32" transform="translate(10,70)"/>
<path d="M0,0 L3,0 L3,2 L7,2 L7,5 L-2,4 L-2,2 L0,2 Z " fill="#171413" transform="translate(12,30)"/>
<path d="M0,0 L6,0 L6,6 L4,7 L4,4 L0,3 L-2,1 Z " fill="#1B2935" transform="translate(26,0)"/>
<path d="M0,0 L2,0 L1,4 L7,4 L7,7 L0,7 L-1,1 Z " fill="#0B1118" transform="translate(53,71)"/>
<path d="M0,0 L1,0 L1,8 L-3,9 L-5,5 Z " fill="#04090E" transform="translate(19,39)"/>
<path d="M0,0 L2,0 L2,2 L6,1 L5,7 L1,8 L-1,5 L2,5 Z " fill="#101528" transform="translate(108,10)"/>
<path d="M0,0 L3,0 L3,9 L0,9 L-1,1 Z " fill="#122C3B" transform="translate(147,76)"/>
<path d="M0,0 L4,1 L4,8 L2,8 L2,10 L-1,9 L-1,6 L1,6 Z " fill="#282D34" transform="translate(74,65)"/>
<path d="M0,0 L4,1 L4,5 L7,6 L1,6 L-1,4 Z " fill="#101628" transform="translate(129,49)"/>
<path d="M0,0 L4,0 L3,7 L-1,7 Z " fill="#363A3F" transform="translate(24,70)"/>
<path d="M0,0 L4,1 L4,5 L-2,5 L-4,3 Z " fill="#121E28" transform="translate(112,57)"/>
<path d="M0,0 L3,3 L3,9 L0,9 L-1,1 Z " fill="#496476" transform="translate(145,26)"/>
<path d="M0,0 L3,1 L2,5 L1,7 L-3,7 L-2,3 Z " fill="#303941" transform="translate(76,9)"/>
<path d="M0,0 L7,1 L7,4 L1,5 Z " fill="#424D57" transform="translate(143,68)"/>
<path d="M0,0 L1,2 L4,2 L4,4 L2,4 L2,6 L4,7 L-2,8 L-4,6 L-1,6 Z " fill="#0F242E" transform="translate(124,28)"/>
<path d="M0,0 L6,0 L6,4 L0,4 Z " fill="#2C3042" transform="translate(12,22)"/>
<path d="M0,0 L4,1 L5,5 L-1,5 Z " fill="#377D8F" transform="translate(4,80)"/>
<path d="M0,0 L8,0 L8,3 L0,3 Z " fill="#353F47" transform="translate(119,82)"/>
<path d="M0,0 L8,0 L8,3 L1,3 L-1,1 Z " fill="#1F2B39" transform="translate(115,31)"/>
<path d="M0,0 L3,0 L2,5 L-2,6 L-2,1 Z " fill="#1E2538" transform="translate(82,0)"/>
<path d="M0,0 L6,0 L5,4 L0,4 Z " fill="#3A3A43" transform="translate(102,63)"/>
<path d="M0,0 L2,0 L2,9 L-2,9 Z " fill="#010306" transform="translate(22,21)"/>
<path d="M0,0 L9,0 L9,4 L4,3 L4,1 Z " fill="#1E222A" transform="translate(26,9)"/>
<path d="M0,0 L11,0 L10,4 L6,5 L7,1 L0,1 Z " fill="#0C202C" transform="translate(110,0)"/>
<path d="M0,0 L1,3 L0,4 L-8,4 L-8,10 L-9,10 L-9,3 L-2,3 L-2,1 Z " fill="#2C2D30" transform="translate(29,74)"/>
<path d="M0,0 L3,0 L3,3 L-1,3 L-2,8 L-3,5 L-6,5 L-5,3 L0,1 Z " fill="#18202B" transform="translate(126,11)"/>
<path d="M0,0 L5,0 L4,4 L-2,5 Z " fill="#020813" transform="translate(24,4)"/>
<path d="M0,0 L3,0 L3,3 L1,3 L0,7 L-2,7 L-3,4 L-1,4 Z " fill="#242B32" transform="translate(47,70)"/>
<path d="M0,0 L5,1 L5,3 L-4,3 L-4,1 Z " fill="#071016" transform="translate(4,69)"/>
<path d="M0,0 L5,0 L5,5 L1,4 Z " fill="#392C29" transform="translate(132,0)"/>
<path d="M0,0 L4,1 L4,4 L-4,4 L-3,2 L0,2 Z " fill="#2B3546" transform="translate(123,49)"/>
<path d="M0,0 L4,0 L4,7 L1,4 L1,2 L-1,1 Z " fill="#3C3C44" transform="translate(146,44)"/>
<path d="M0,0 L1,0 L0,11 L-1,11 L-2,1 Z " fill="#1A2A3B" transform="translate(149,24)"/>
<path d="M0,0 L3,0 L4,8 L0,5 Z " fill="#070B1B" transform="translate(6,21)"/>
<path d="M0,0 L5,0 L5,2 L3,2 L2,6 L0,5 Z " fill="#28262F" transform="translate(85,15)"/>
<path d="M0,0 L5,0 L5,4 L0,4 Z " fill="#070C13" transform="translate(145,3)"/>
<path d="M0,0 L2,0 L2,2 L6,2 L6,4 L-3,3 L-4,1 Z " fill="#161517" transform="translate(103,33)"/>
<path d="M0,0 L3,1 L1,4 L-4,4 L-3,1 Z " fill="#222834" transform="translate(48,24)"/>
<path d="M0,0 L4,1 L2,5 L-1,5 Z M-2,5 Z " fill="#272C30" transform="translate(28,24)"/>
<path d="M0,0 L3,1 L3,4 L-2,3 L-3,7 L-4,2 Z " fill="#1D242B" transform="translate(137,20)"/>
<path d="M0,0 L1,4 L-4,7 L-5,4 L0,3 Z " fill="#1A313B" transform="translate(136,78)"/>
<path d="M0,0 L5,0 L5,5 L2,4 L2,2 L0,2 Z " fill="#071217" transform="translate(120,76)"/>
<path d="M0,0 L1,0 L1,9 L-2,8 L-1,2 Z " fill="#04050B" transform="translate(149,52)"/>
<path d="M0,0 L6,2 L6,5 L1,4 Z " fill="#313546" transform="translate(0,25)"/>
<path d="M0,0 L11,0 L11,3 L6,2 L0,1 Z " fill="#0C242B" transform="translate(15,0)"/>
<path d="M0,0 L7,1 L7,3 L1,3 Z " fill="#2D465A" transform="translate(103,82)"/>
<path d="M0,0 L1,0 L1,6 L-3,6 L-2,2 L0,2 Z " fill="#021215" transform="translate(90,79)"/>
<path d="M0,0 L3,0 L3,7 L1,7 Z " fill="#112938" transform="translate(9,78)"/>
<path d="M0,0 L5,0 L5,3 L-1,3 Z " fill="#181F28" transform="translate(127,62)"/>
<path d="M0,0 L2,1 L0,6 L-3,4 L-5,4 L-5,2 Z " fill="#060B10" transform="translate(103,53)"/>
<path d="M0,0 L3,0 L3,5 L0,6 Z " fill="#1E1823" transform="translate(144,48)"/>
<path d="M0,0 L3,1 L2,6 L-1,6 Z " fill="#3A4252" transform="translate(126,32)"/>
<path d="M0,0 L5,0 L5,2 L9,1 L8,4 L2,2 Z " fill="#060B12" transform="translate(58,33)"/>
<path d="M0,0 L4,0 L3,4 L-1,3 Z " fill="#0A0E16" transform="translate(106,28)"/>
<path d="M0,0 L1,2 L5,0 L8,1 L6,3 L-1,3 Z " fill="#11141C" transform="translate(90,16)"/>
<path d="M0,0 L2,0 L2,3 L5,4 L3,6 L0,6 Z " fill="#082430" transform="translate(100,1)"/>
<path d="M0,0 L5,0 L2,3 L-4,3 Z " fill="#07141E" transform="translate(136,82)"/>
<path d="M0,0 L1,3 L-1,3 L-1,5 L-5,4 L-5,2 L0,2 Z " fill="#1D333D" transform="translate(86,77)"/>
<path d="M0,0 L4,1 L4,4 L-1,4 Z " fill="#162B35" transform="translate(112,71)"/>
<path d="M0,0 L3,0 L2,6 L0,6 Z " fill="#0B2336" transform="translate(142,31)"/>
<path d="M0,0 L2,0 L2,5 L-4,4 Z " fill="#2A2D34" transform="translate(4,12)"/>
<path d="M0,0 L5,0 L5,3 L0,3 Z " fill="#041410" transform="translate(15,1)"/>
<path d="M0,0 L6,0 L5,4 L2,4 L2,1 Z " fill="#1D3942" transform="translate(100,0)"/>
<path d="M0,0 L2,1 L2,4 L-3,4 L-3,2 Z " fill="#161E25" transform="translate(51,73)"/>
<path d="M0,0 L2,1 L2,5 L5,6 L1,6 L1,3 L-2,2 Z " fill="#262B31" transform="translate(105,48)"/>
<path d="M0,0 L4,0 L4,3 L-1,3 Z " fill="#262D34" transform="translate(85,46)"/>
<path d="M0,0 L3,1 L2,5 L-1,4 Z " fill="#12131B" transform="translate(102,43)"/>
<path d="M0,0 L3,1 L1,9 L0,9 Z " fill="#252B32" transform="translate(87,32)"/>
<path d="M0,0 L2,1 L0,2 Z M-1,2 L1,3 L1,6 L-3,5 Z " fill="#2A292F" transform="translate(135,67)"/>
<path d="M0,0 L3,0 L2,5 L0,4 Z " fill="#3A434C" transform="translate(147,61)"/>
<path d="M0,0 L4,1 L4,4 L0,4 Z " fill="#040709" transform="translate(142,63)"/>
<path d="M0,0 L4,0 L5,3 L0,3 Z " fill="#040810" transform="translate(50,61)"/>
<path d="M0,0 L3,1 L0,4 L-3,5 L-4,3 L-1,2 Z " fill="#23252D" transform="translate(92,49)"/>
<path d="M0,0 L2,0 L1,4 L-3,4 L-3,2 L0,2 Z " fill="#2B3142" transform="translate(131,44)"/>
<path d="M0,0 L1,4 L-2,5 L-4,3 Z " fill="#273545" transform="translate(149,20)"/>
<path d="M0,0 L2,0 L2,4 L-2,4 Z " fill="#1F2436" transform="translate(15,18)"/>
<path d="M0,0 L5,1 L5,3 L0,3 Z " fill="#32403F" transform="translate(12,4)"/>
<path d="M0,0 L5,0 L5,2 L0,3 Z " fill="#314F5D" transform="translate(111,2)"/>
<path d="M0,0 L3,1 L4,4 L0,3 L-2,1 Z " fill="#142A35" transform="translate(26,0)"/>
<path d="M0,0 L3,1 L2,3 L-4,3 L-2,1 L0,2 Z " fill="#25222C" transform="translate(34,82)"/>
<path d="M0,0 L2,0 L2,5 L-1,5 Z " fill="#260E0C" transform="translate(23,80)"/>
<path d="M0,0 L4,0 L4,3 L0,3 Z " fill="#061626" transform="translate(146,73)"/>
<path d="M0,0 L3,0 L3,4 L0,4 Z " fill="#3E3D43" transform="translate(129,69)"/>
<path d="M0,0 L2,1 L-1,6 L-2,2 Z " fill="#35343A" transform="translate(134,66)"/>
<path d="M0,0 L2,3 L2,5 L-1,5 L-2,2 Z " fill="#2A2E34" transform="translate(94,62)"/>
<path d="M0,0 L6,2 L4,4 L1,4 Z " fill="#11151F" transform="translate(73,60)"/>
<path d="M0,0 L4,2 L4,4 L0,4 Z " fill="#161B24" transform="translate(0,28)"/>
<path d="M0,0 L2,4 L-3,6 L-3,4 L-1,3 Z " fill="#384C49" transform="translate(130,21)"/>
<path d="M0,0 L5,1 L5,4 L2,4 L2,1 Z " fill="#302F38" transform="translate(136,10)"/>
<path d="M0,0 L3,1 L4,4 L1,6 Z " fill="#273D37" transform="translate(9,4)"/>
<path d="M0,0 L1,2 L3,2 L3,5 L0,5 Z " fill="#1A1E25" transform="translate(0,35)"/>
<path d="M0,0 L4,0 L4,3 L0,2 Z " fill="#191D2E" transform="translate(134,11)"/>
<path d="M0,0 L3,1 L3,3 L-3,3 L0,2 Z " fill="#514B4E" transform="translate(147,10)"/>
<path d="M0,0 L2,0 L2,4 L-1,4 Z " fill="#2C3544" transform="translate(81,2)"/>
<path d="M0,0 L3,0 L3,4 L0,3 Z " fill="#20272C" transform="translate(147,65)"/>
<path d="M0,0 L5,2 L5,3 L-1,3 Z " fill="#071220" transform="translate(131,52)"/>
<path d="M0,0 L4,2 L0,3 Z " fill="#030C13" transform="translate(112,53)"/>
<path d="M0,0 L3,0 L2,3 L-1,3 Z " fill="#393B43" transform="translate(1,12)"/>
<path d="M0,0 L4,0 L3,3 L0,2 Z " fill="#28282E" transform="translate(32,10)"/>
<path d="M0,0 L3,0 L3,3 L0,3 Z " fill="#688793" transform="translate(127,82)"/>
<path d="M0,0 L3,0 L3,3 L0,3 Z " fill="#5A747D" transform="translate(133,77)"/>
<path d="M0,0 L3,0 L3,3 L0,3 Z " fill="#080B0D" transform="translate(132,73)"/>
<path d="M0,0 L4,1 L3,3 L0,2 Z " fill="#292D38" transform="translate(124,65)"/>
<path d="M0,0 L2,1 L2,3 L0,3 L-1,5 Z " fill="#3F5967" transform="translate(145,26)"/>
<path d="M0,0 L3,0 L3,3 L0,3 Z " fill="#020C0D" transform="translate(122,21)"/>
<path d="M0,0 L3,1 L3,3 L0,4 Z " fill="#0A0D1B" transform="translate(106,6)"/>
<path d="M0,0 L2,4 L-1,4 Z " fill="#232835" transform="translate(142,69)"/>
<path d="M0,0 L3,0 L2,3 L0,3 Z " fill="#32373D" transform="translate(12,71)"/>
<path d="M0,0 L2,0 L0,4 L-1,1 Z " fill="#021216" transform="translate(123,26)"/>
<path d="M0,0 L1,3 L-2,4 Z " fill="#080C10" transform="translate(9,14)"/>
<path d="M0,0 L2,0 L2,3 L-1,3 Z " fill="#434958" transform="translate(130,12)"/>
<path d="M0,0 L3,1 L-1,3 Z " fill="#14162A" transform="translate(76,0)"/>
<path d="M0,0 L2,0 L1,4 L-1,1 Z " fill="#243343" transform="translate(29,0)"/>
<path d="M0,0 L3,0 L2,3 L0,2 Z " fill="#01050B" transform="translate(112,76)"/>
<path d="M0,0 L3,1 L2,3 L0,3 Z " fill="#3D424A" transform="translate(16,72)"/>
<path d="M0,0 L2,0 L1,3 L-1,3 Z " fill="#34333B" transform="translate(86,25)"/>
</svg>
