<?xml version="1.0" encoding="UTF-8"?>
<!-- Generator: visioncortex VTracer 0.6.5 -->
<svg version="1.1" xmlns="http://www.w3.org/2000/svg" width="150" height="85">
<path d="M0,0 L150,0 L150,85 L0,85 Z " fill="#473A46" transform="translate(0,0)"/>
<path d="M0,0 L62,0 L62,85 L-31,85 L-30,82 L-22,81 L-22,83 L-18,83 L-16,78 L-14,75 L-13,70 L-16,70 L-16,73 L-24,72 L-24,75 L-30,75 L-32,72 L-33,65 L-25,63 L-20,64 L-20,66 L-12,67 L-10,69 L-10,74 L-2,73 L2,72 L2,70 L9,67 L2,67 L1,69 L-4,69 L-4,67 L7,61 L16,60 L17,64 L20,64 L21,58 L18,58 L18,52 L22,53 L22,55 L25,55 L25,64 L21,67 L13,70 L11,70 L11,72 L21,70 L27,66 L30,63 L31,60 L33,60 L33,57 L36,57 L37,55 L42,54 L44,48 L41,48 L41,51 L32,51 L25,50 L25,47 L22,46 L22,44 L18,44 L18,42 L15,43 L13,41 L16,40 L17,38 L23,40 L24,36 L26,36 L26,27 L24,27 L23,30 L20,30 L20,33 L16,33 L15,28 L17,28 L17,26 L15,26 L16,23 L19,22 L20,19 L16,19 L16,16 L22,14 L21,12 L17,11 L7,11 L7,8 L4,7 L4,5 L1,5 Z " fill="#524753" transform="translate(88,0)"/>
<path d="M0,0 L6,0 L7,5 L10,5 L13,8 L13,11 L16,10 L23,10 L28,12 L29,15 L22,16 L22,19 L26,19 L25,23 L22,24 L21,26 L23,26 L23,28 L21,28 L22,33 L26,33 L26,30 L29,30 L30,26 L33,27 L33,38 L32,36 L30,36 L30,41 L23,39 L20,41 L24,42 L24,44 L28,44 L31,47 L31,50 L45,50 L47,51 L47,48 L50,48 L50,53 L46,56 L39,57 L39,60 L37,60 L36,64 L34,64 L32,68 L24,72 L17,72 L17,70 L29,65 L30,64 L31,55 L28,55 L28,53 L24,52 L24,58 L27,58 L26,64 L23,64 L22,60 L13,62 L4,67 L2,67 L2,69 L7,69 L8,66 L16,66 L13,69 L8,70 L8,72 L4,74 L-4,75 L-6,73 L-4,73 L-6,68 L-14,66 L-14,64 L-25,65 L-29,66 L-30,68 L-32,66 L-34,59 L-35,52 L-38,50 L-38,52 L-45,54 L-45,57 L-44,59 L-49,58 L-50,54 L-54,52 L-53,45 L-59,44 L-60,40 L-67,38 L-67,37 L-55,38 L-51,36 L-53,42 L-43,40 L-40,38 L-34,38 L-34,27 L-29,21 L-27,20 L-26,16 L-24,16 L-24,24 L-27,29 L-31,29 L-30,35 L-25,36 L-24,27 L-22,24 L-19,24 L-19,21 L-17,20 L-16,11 L-15,13 L-8,13 L-8,11 L-6,11 L-6,17 L-7,21 L-5,22 L-5,19 L1,15 L3,12 L3,9 L1,8 Z " fill="#453C4B" transform="translate(82,0)"/>
<path d="M0,0 L52,0 L53,2 L53,8 L56,9 L55,14 L49,19 L47,19 L47,22 L44,21 L46,11 L44,11 L44,13 L37,13 L36,15 L36,20 L33,21 L33,24 L30,25 L28,34 L27,36 L22,36 L21,35 L21,29 L25,29 L27,24 L28,16 L26,16 L25,21 L20,26 L19,27 L18,38 L10,40 L3,42 L-1,42 L0,37 L3,34 L5,34 L5,31 L2,33 L-4,33 L-4,29 L6,26 L6,28 L10,28 L10,21 L18,20 L18,14 L11,14 L12,11 L2,10 L4,8 L10,8 L10,6 L15,6 L15,4 L3,4 L0,3 Z " fill="#514652" transform="translate(30,0)"/>
<path d="M0,0 L16,0 L16,11 L21,11 L22,16 L24,17 L24,20 L27,21 L27,24 L24,24 L24,26 L11,29 L10,32 L8,32 L8,36 L10,36 L10,38 L4,39 L4,34 L1,34 L0,37 Z " fill="#524555" transform="translate(0,0)"/>
<path d="M0,0 L2,0 L2,4 L5,4 L5,2 L10,3 L12,5 L11,12 L9,12 L10,16 L-36,16 L-36,1 L-31,2 L-7,1 L-7,5 L-4,4 L-3,2 L0,2 Z " fill="#685C64" transform="translate(36,69)"/>
<path d="M0,0 L48,0 L48,26 L43,25 L39,21 L35,20 L32,17 L29,16 L29,12 L25,11 L22,6 L20,5 L20,3 L18,3 L20,6 L20,10 L12,10 L9,9 L7,6 L4,5 L5,1 L3,1 L3,8 L0,8 Z " fill="#433643" transform="translate(102,0)"/>
<path d="M0,0 L14,0 L14,8 L17,8 L16,3 L17,1 L19,1 L18,5 L22,6 L23,9 L34,10 L32,3 L34,3 L34,5 L38,7 L40,11 L43,12 L43,16 L48,17 L49,20 L55,21 L57,25 L62,26 L62,32 L60,36 L58,36 L57,43 L53,44 L52,48 L48,50 L45,50 L45,47 L42,47 L42,43 L47,44 L52,44 L51,35 L49,35 L49,26 L50,22 L42,21 L41,18 L39,17 L38,20 L34,18 L30,16 L30,13 L28,13 L28,15 L24,15 L23,11 L7,11 L7,8 L4,7 L4,5 L1,5 Z " fill="#6C6474" transform="translate(88,0)"/>
<path d="M0,0 L5,1 L5,3 L13,4 L15,6 L15,11 L23,10 L27,9 L27,7 L32,7 L32,9 L37,10 L37,15 L41,15 L42,22 L-6,22 L-5,19 L3,18 L3,20 L7,20 L9,15 L11,12 L12,7 L9,7 L9,10 L1,9 L1,12 L-5,12 L-7,9 L-8,2 Z " fill="#53546B" transform="translate(63,63)"/>
<path d="M0,0 L7,1 L17,1 L17,19 L12,19 L11,20 L5,20 L4,13 L1,12 L-8,12 L-13,11 L-12,4 L-3,2 Z " fill="#46353C" transform="translate(43,39)"/>
<path d="M0,0 L3,1 L3,4 L9,4 L11,5 L11,16 L10,18 L12,18 L13,27 L6,28 L1,26 L1,28 L-5,29 L-5,24 L-4,23 L-4,21 L-2,21 L-1,14 L-5,16 L-7,15 L-7,13 L-4,13 L-5,3 L-1,2 Z " fill="#42363E" transform="translate(127,17)"/>
<path d="M0,0 L14,0 L14,3 L29,4 L29,6 L24,7 L10,7 L12,12 L12,15 L19,15 L19,20 L17,20 L17,25 L10,26 L9,24 L11,24 L11,21 L6,21 L8,20 L8,17 L5,16 L5,11 L0,11 Z " fill="#2D2530" transform="translate(16,0)"/>
<path d="M0,0 L4,0 L3,5 L0,5 L-1,11 L-5,11 L-5,13 L-8,13 L-9,18 L-2,17 L0,13 L3,12 L3,9 L5,9 L5,18 L2,18 L1,23 L-6,25 L-10,31 L-12,31 L-11,20 L-10,18 L-13,19 L-14,21 L-18,20 L-16,17 L-12,15 L-17,17 L-21,18 L-21,9 L-20,8 L-7,8 L-1,7 Z " fill="#5D5D6D" transform="translate(145,49)"/>
<path d="M0,0 L7,0 L10,2 L19,3 L22,8 L22,10 L24,10 L23,13 L20,12 L20,9 L12,9 L8,5 L8,12 L5,12 L4,15 L1,15 L1,11 L-1,12 L-23,13 L-28,11 L-28,4 L-19,3 L-15,4 L-14,10 L-3,11 L-3,8 L4,7 L7,9 L7,4 L1,3 Z " fill="#43333F" transform="translate(28,59)"/>
<path d="M0,0 L3,0 L1,13 L3,13 L5,9 L9,5 L14,4 L15,0 L18,0 L18,18 L-3,18 L-4,9 L-3,7 L-5,7 L-4,3 L-1,3 Z " fill="#21202B" transform="translate(132,67)"/>
<path d="M0,0 L5,0 L8,3 L8,6 L22,6 L24,7 L24,4 L27,4 L27,9 L23,12 L16,13 L16,16 L14,16 L13,20 L11,20 L9,24 L1,28 L-6,28 L-6,26 L6,21 L7,20 L8,11 L6,11 L6,8 L1,6 L-2,5 L-2,1 Z " fill="#3E343F" transform="translate(105,44)"/>
<path d="M0,0 L1,0 L1,26 L-1,26 L-1,29 L-6,34 L-13,35 L-12,30 L-9,30 L-9,28 L-5,28 L-4,22 L-1,22 L0,17 L-4,17 L-5,24 L-11,26 L-18,26 L-18,23 L-16,23 L-16,21 L-13,21 L-12,16 L-9,15 L-8,12 L-4,11 L-3,4 L-1,4 Z " fill="#3A2F3D" transform="translate(149,32)"/>
<path d="M0,0 L11,0 L11,11 L16,11 L17,16 L19,17 L18,21 L21,23 L18,23 L18,25 L8,23 L2,20 L2,14 L4,14 L4,8 L6,3 L1,3 Z " fill="#6B586A" transform="translate(5,0)"/>
<path d="M0,0 L3,0 L3,6 L8,6 L10,7 L10,9 L12,9 L12,7 L15,7 L17,19 L23,20 L22,25 L15,24 L14,27 L13,24 L9,20 L8,15 L6,14 L5,11 L3,10 L1,21 L-1,21 L-1,3 Z " fill="#3B3135" transform="translate(1,34)"/>
<path d="M0,0 L2,0 L2,8 L9,4 L13,6 L6,9 L5,15 L7,15 L7,26 L3,26 L2,17 L1,14 L-6,13 L-7,16 L-8,15 L-14,17 L-20,17 L-21,15 L-14,12 L-11,9 L-7,7 L-4,4 L-3,1 Z " fill="#5D576C" transform="translate(122,59)"/>
<path d="M0,0 L18,0 L18,21 L12,19 L10,13 L4,11 L3,8 L3,1 Z " fill="#482E39" transform="translate(132,0)"/>
<path d="M0,0 L6,0 L7,5 L10,5 L13,8 L13,11 L16,10 L23,10 L21,15 L19,15 L18,19 L12,19 L12,16 L10,16 L8,20 L3,19 L2,14 L3,9 L1,8 Z " fill="#524658" transform="translate(82,0)"/>
<path d="M0,0 L1,0 L3,9 L6,9 L7,7 L7,9 L9,9 L9,6 L17,7 L17,4 L20,4 L19,11 L15,17 L11,17 L11,15 L3,17 L2,19 L-7,19 L-7,16 L-2,14 L-3,8 L-1,8 Z " fill="#4E3948" transform="translate(55,66)"/>
<path d="M0,0 L1,2 L-1,2 L-1,4 L1,4 L0,6 L-2,5 L-2,10 L4,9 L4,7 L6,7 L6,11 L9,11 L9,14 L12,14 L12,17 L9,17 L9,19 L7,19 L7,21 L0,23 L-3,24 L-3,21 L0,21 L1,19 L6,18 L8,12 L5,12 L5,15 L-4,15 L-11,14 L-11,11 L-14,10 L-14,8 L-18,8 L-18,6 L-21,7 L-23,5 L-20,4 L-19,2 L-11,4 L-9,4 L-9,9 L-4,7 L-4,2 Z " fill="#544A52" transform="translate(124,36)"/>
<path d="M0,0 L5,0 L3,9 L6,9 L7,3 L11,4 L10,9 L9,12 L7,12 L6,19 L2,20 L1,24 L-3,26 L-6,26 L-6,23 L-9,23 L-9,19 L-4,20 L1,20 L0,11 L-2,11 L-2,2 L0,2 Z " fill="#746D87" transform="translate(139,24)"/>
<path d="M0,0 L29,0 L29,5 L21,4 L23,9 L22,10 L2,10 L4,8 L10,8 L10,6 L15,6 L15,4 L3,4 L0,3 Z " fill="#61515E" transform="translate(30,0)"/>
<path d="M0,0 L2,3 L3,6 L3,13 L-5,15 L-12,17 L-16,17 L-15,12 L-12,9 L-10,9 L-10,7 L-8,7 L-8,4 L-2,4 L-2,2 L0,2 Z " fill="#575063" transform="translate(45,25)"/>
<path d="M0,0 L2,0 L2,4 L5,4 L5,2 L10,3 L12,5 L11,12 L9,12 L10,16 L-7,16 L-7,13 L7,11 L-2,11 L-2,8 L0,7 Z " fill="#877378" transform="translate(36,69)"/>
<path d="M0,0 L5,1 L5,3 L8,0 L11,1 L11,4 L14,4 L15,0 L15,4 L20,5 L21,8 L27,9 L29,13 L34,14 L34,16 L30,15 L29,21 L26,21 L27,14 L28,12 L23,12 L22,14 L22,10 L14,9 L13,6 L11,5 L10,8 L6,6 L2,4 L2,1 Z " fill="#715E6D" transform="translate(116,12)"/>
<path d="M0,0 L4,0 L4,5 L11,5 L15,6 L14,11 L9,15 L7,15 L7,18 L4,17 L6,7 L2,8 L-5,6 L-6,8 L-7,5 L-3,1 Z " fill="#746466" transform="translate(70,4)"/>
<path d="M0,0 L6,1 L8,4 L8,13 L-1,13 L-1,8 L-11,8 L-11,5 L-7,3 L-1,4 Z " fill="#3B303C" transform="translate(117,72)"/>
<path d="M0,0 L4,1 L4,3 L7,3 L7,12 L3,15 L-5,16 L-7,15 L-7,13 L-14,13 L-14,11 L-11,9 L-2,8 L-1,12 L2,12 L3,6 L0,6 Z " fill="#6D6371" transform="translate(106,52)"/>
<path d="M0,0 L4,0 L3,5 L0,5 L-1,11 L-5,11 L-5,13 L-7,13 L-7,11 L-9,11 L-9,15 L-14,15 L-18,18 L-21,18 L-21,9 L-20,8 L-7,8 L-1,7 Z " fill="#746678" transform="translate(145,49)"/>
<path d="M0,0 L3,1 L3,4 L9,4 L11,5 L10,9 L10,7 L6,6 L6,13 L3,14 L-3,15 L-5,16 L-7,15 L-7,13 L-4,13 L-5,3 L-1,2 Z " fill="#483940" transform="translate(127,17)"/>
<path d="M0,0 L3,1 L4,3 L12,4 L12,7 L16,7 L17,2 L19,2 L19,8 L18,10 L16,10 L18,17 L12,18 L12,21 L9,20 L9,17 L11,17 L11,10 L9,8 L5,7 L5,9 L2,9 L2,5 L0,5 Z " fill="#614D58" transform="translate(36,64)"/>
<path d="M0,0 L5,1 L5,4 L8,4 L7,10 L1,9 L1,12 L-5,12 L-7,9 L-8,2 Z " fill="#635262" transform="translate(63,63)"/>
<path d="M0,0 L9,3 L12,6 L27,8 L27,10 L20,11 L8,11 L4,10 L4,8 L0,8 Z " fill="#7D6C74" transform="translate(0,70)"/>
<path d="M0,0 L10,0 L11,2 L11,8 L14,9 L13,12 L13,10 L2,9 L2,4 L-7,7 L-9,11 L-11,11 L-10,7 L-7,3 L0,2 Z " fill="#694C53" transform="translate(72,0)"/>
<path d="M0,0 L4,1 L12,5 L12,8 L15,10 L12,10 L12,12 L2,10 L-4,7 L-4,1 Z " fill="#7F6B7D" transform="translate(11,13)"/>
<path d="M0,0 L3,0 L5,9 L6,10 L6,20 L5,22 L3,22 L3,19 L0,19 L-1,22 L-1,1 Z " fill="#584451" transform="translate(1,15)"/>
<path d="M0,0 L6,0 L6,4 L0,4 L3,7 L7,7 L14,6 L14,9 L-17,9 L-16,6 L-8,5 L-8,7 L-4,7 L-2,2 Z " fill="#6F575F" transform="translate(74,76)"/>
<path d="M0,0 L5,0 L6,3 L11,3 L10,8 L8,8 L8,13 L4,13 L4,15 L0,16 Z " fill="#4C3A50" transform="translate(0,0)"/>
<path d="M0,0 L14,0 L13,2 L10,2 L10,4 L15,4 L15,6 L20,6 L20,9 L15,8 L-1,6 L-6,4 L-6,1 Z " fill="#413745" transform="translate(13,71)"/>
<path d="M0,0 L4,0 L4,4 L6,4 L6,10 L3,10 L3,12 L9,11 L9,16 L4,18 L4,23 L2,23 L-1,20 L-1,6 L2,7 L1,2 Z " fill="#5D525C" transform="translate(117,20)"/>
<path d="M0,0 L2,0 L2,2 L6,4 L8,8 L10,9 L10,13 L7,13 L6,10 L4,9 L3,12 L1,12 L0,10 L-4,9 L-4,12 L-8,12 L-9,8 L-14,7 L-13,2 L-9,4 L-9,6 L2,7 Z " fill="#776570" transform="translate(120,3)"/>
<path d="M0,0 L8,1 L10,3 L10,8 L17,8 L18,15 L15,18 L10,17 L7,17 L6,14 L12,14 L12,10 L6,10 L7,4 L4,4 L4,7 L2,7 L3,1 Z " fill="#594F5F" transform="translate(68,66)"/>
<path d="M0,0 L3,3 L11,0 L11,2 L8,2 L8,5 L6,5 L5,9 L3,9 L1,13 L-7,17 L-14,17 L-14,15 L-2,10 L-1,9 Z " fill="#494151" transform="translate(113,55)"/>
<path d="M0,0 L4,0 L4,3 L7,3 L9,0 L14,2 L16,8 L22,10 L22,15 L17,14 L13,10 L9,9 L6,6 L3,5 L3,1 Z " fill="#342839" transform="translate(128,11)"/>
<path d="M0,0 L4,1 L4,4 L11,4 L11,9 L9,9 L9,14 L2,15 L1,13 L3,13 L3,9 L1,9 Z " fill="#271E29" transform="translate(24,11)"/>
<path d="M0,0 L16,0 L16,5 L10,4 L10,8 L14,9 L12,10 L9,9 L7,6 L4,5 L5,1 L3,1 L3,8 L0,8 Z " fill="#45363A" transform="translate(102,0)"/>
<path d="M0,0 L6,0 L9,9 L10,13 L6,13 L6,11 L0,11 Z " fill="#635658" transform="translate(4,49)"/>
<path d="M0,0 L13,0 L13,2 L6,3 L4,7 L2,11 L5,11 L5,18 L2,17 L1,15 Z " fill="#623B47" transform="translate(59,0)"/>
<path d="M0,0 L5,2 L5,9 L0,9 L0,7 L-7,7 L-7,1 Z " fill="#170219" transform="translate(7,62)"/>
<path d="M0,0 L2,0 L2,2 L8,2 L9,3 L14,3 L15,10 L7,10 L5,5 L0,5 Z " fill="#676478" transform="translate(90,75)"/>
<path d="M0,0 L10,2 L13,4 L13,13 L7,11 L5,5 L1,3 Z " fill="#957A77" transform="translate(137,8)"/>
<path d="M0,0 L4,0 L4,2 L10,3 L17,4 L18,7 L0,7 Z " fill="#2B1918" transform="translate(0,78)"/>
<path d="M0,0 L3,1 L1,1 L1,3 L6,3 L7,0 L15,0 L12,3 L7,4 L7,6 L3,8 L-5,9 L-7,7 L-3,5 L-2,3 L0,3 Z " fill="#453A4B" transform="translate(83,66)"/>
<path d="M0,0 L5,0 L8,3 L10,7 L12,7 L11,11 L6,11 L6,8 L1,6 L-2,5 L-2,1 Z " fill="#342932" transform="translate(105,44)"/>
<path d="M0,0 L2,3 L1,7 L3,7 L4,16 L-3,17 L-4,15 L-2,15 L-2,11 L-4,11 L-4,7 L-6,6 L0,6 L-1,2 Z " fill="#715F64" transform="translate(136,28)"/>
<path d="M0,0 L2,0 L2,5 L0,5 L0,8 L-5,13 L-12,14 L-11,9 L-8,9 L-8,7 L-4,7 L-3,1 Z " fill="#423041" transform="translate(148,53)"/>
<path d="M0,0 L6,0 L7,13 L3,12 L3,9 L-1,9 L-1,2 Z " fill="#1F1623" transform="translate(129,2)"/>
<path d="M0,0 L2,0 L3,4 L7,4 L6,12 L1,12 L0,8 L-5,8 L-5,5 L1,3 Z " fill="#615056" transform="translate(109,11)"/>
<path d="M0,0 L1,2 L8,2 L8,0 L10,0 L10,6 L7,9 L0,9 L-1,3 Z " fill="#564241" transform="translate(66,11)"/>
<path d="M0,0 L4,1 L3,11 L-3,11 L-2,15 L-4,15 L-7,12 L-6,7 L-1,7 Z " fill="#1F1319" transform="translate(133,23)"/>
<path d="M0,0 L3,0 L3,2 L9,3 L11,7 L16,8 L16,10 L12,9 L11,15 L8,15 L9,8 L10,6 L5,6 L4,8 L4,4 L0,3 Z " fill="#8C7B88" transform="translate(134,18)"/>
<path d="M0,0 L6,0 L7,5 L9,5 L8,9 L9,12 L5,12 L5,9 L1,8 Z " fill="#362A41" transform="translate(82,0)"/>
<path d="M0,0 L4,1 L4,3 L7,3 L7,12 L2,15 L1,12 L3,6 L0,6 Z " fill="#5F565F" transform="translate(106,52)"/>
<path d="M0,0 L5,1 L4,6 L6,6 L6,17 L2,17 L1,8 L0,6 L2,6 L2,4 L0,4 Z " fill="#383444" transform="translate(123,68)"/>
<path d="M0,0 L3,0 L3,10 L-4,10 L-3,7 L-5,6 L-5,8 L-8,8 L-8,11 L-12,13 L-10,9 L-6,5 L-1,4 Z " fill="#3A4150" transform="translate(147,67)"/>
<path d="M0,0 L14,0 L14,1 L8,2 L14,3 L14,4 L9,4 L9,7 L2,7 L0,4 Z " fill="#493E49" transform="translate(26,7)"/>
<path d="M0,0 L2,0 L2,4 L5,4 L5,7 L8,7 L8,10 L5,10 L5,12 L3,12 L3,14 L-4,16 L-7,17 L-7,14 L-4,14 L-3,12 L2,11 L4,5 L1,5 L1,8 L-3,6 L-1,6 Z " fill="#5C4D60" transform="translate(128,43)"/>
<path d="M0,0 L3,2 L3,8 L2,9 L-7,9 L-7,5 L-2,3 Z " fill="#312334" transform="translate(43,39)"/>
<path d="M0,0 L9,1 L8,7 L5,7 L5,10 L1,10 L0,5 L2,5 L2,3 L0,3 Z " fill="#584F53" transform="translate(103,23)"/>
<path d="M0,0 L5,0 L7,4 L0,5 L2,10 L-5,11 L-9,8 L-4,7 L-3,4 L-1,3 Z " fill="#50454D" transform="translate(104,11)"/>
<path d="M0,0 L1,4 L6,4 L7,9 L9,10 L8,13 L8,11 L3,10 L-1,7 L-6,7 L-3,4 L-5,2 Z " fill="#726173" transform="translate(15,7)"/>
<path d="M0,0 L1,0 L2,5 L12,2 L12,9 L0,9 Z " fill="#161426" transform="translate(130,76)"/>
<path d="M0,0 L3,1 L3,12 L2,10 L0,10 L0,15 L-3,14 L-4,10 Z " fill="#3E3239" transform="translate(112,26)"/>
<path d="M0,0 L21,0 L21,2 L19,3 L0,3 Z " fill="#86737D" transform="translate(34,0)"/>
<path d="M0,0 L2,0 L3,6 L14,6 L16,5 L16,8 L-6,9 L-11,7 L-11,6 L-4,6 L-4,8 L1,8 Z " fill="#322032" transform="translate(11,63)"/>
<path d="M0,0 L2,0 L2,4 L5,3 L6,1 L9,1 L10,6 L6,8 L1,7 L1,5 L-4,5 L-4,3 L-1,2 Z " fill="#676269" transform="translate(27,70)"/>
<path d="M0,0 L2,0 L2,6 L-3,7 L-6,7 L-6,14 L-13,13 L-12,10 L-8,9 L-7,5 L-5,4 L1,5 Z " fill="#483944" transform="translate(46,14)"/>
<path d="M0,0 L3,0 L3,5 L4,10 L-2,10 L-6,8 L-6,4 L0,5 Z " fill="#35262F" transform="translate(118,0)"/>
<path d="M0,0 L3,0 L2,7 L-2,13 L-6,12 L-3,12 L-3,4 L-8,4 L-8,2 L0,3 Z " fill="#5E4957" transform="translate(72,70)"/>
<path d="M0,0 L4,0 L5,6 L-5,6 L-6,8 L-7,5 L-3,1 Z " fill="#755F60" transform="translate(70,4)"/>
<path d="M0,0 L5,0 L5,11 L0,11 Z " fill="#47364A" transform="translate(16,0)"/>
<path d="M0,0 L3,0 L3,6 L6,6 L6,8 L3,8 L1,12 L0,21 L-1,21 L-1,3 Z " fill="#282028" transform="translate(1,34)"/>
<path d="M0,0 L2,0 L2,7 L-1,8 L-3,12 L-9,10 L-9,8 L-5,8 L-3,4 L0,3 Z " fill="#8C8CA2" transform="translate(148,58)"/>
<path d="M0,0 L1,0 L1,6 L-2,6 L-3,9 L-6,9 L-6,5 L-10,4 L-10,2 L-3,1 L0,3 Z " fill="#423843" transform="translate(35,65)"/>
<path d="M0,0 L10,1 L10,5 L5,6 L2,8 L-1,8 L-1,6 L1,6 Z " fill="#928A9E" transform="translate(125,59)"/>
<path d="M0,0 L9,3 L10,6 L5,6 L4,10 L4,8 L0,8 Z " fill="#5B4F5D" transform="translate(0,70)"/>
<path d="M0,0 L1,3 L4,2 L11,2 L9,7 L7,7 L6,11 L3,11 L3,8 L5,7 L3,6 L3,4 L-1,4 Z " fill="#5E5360" transform="translate(94,8)"/>
<path d="M0,0 L5,0 L8,5 L8,7 L10,7 L9,10 L6,9 L6,6 L1,5 L-2,1 Z " fill="#392633" transform="translate(42,62)"/>
<path d="M0,0 L9,0 L9,6 L8,4 L-2,6 L-1,1 Z " fill="#5B5059" transform="translate(96,56)"/>
<path d="M0,0 L5,1 L13,0 L11,1 L10,5 L6,7 L3,7 L3,4 L0,4 Z " fill="#8B7A82" transform="translate(130,43)"/>
<path d="M0,0 L0,3 L-5,5 L-5,7 L3,8 L0,10 L-10,9 L-10,3 L-1,1 Z " fill="#3B2F41" transform="translate(41,40)"/>
<path d="M0,0 L6,0 L6,4 L8,5 L-2,5 L-3,3 L-10,2 L-10,1 Z " fill="#5F4D4F" transform="translate(20,80)"/>
<path d="M0,0 L0,3 L-4,7 L-4,12 L-7,12 L-7,8 L-16,7 L-16,5 L-9,4 L-6,7 L-6,4 Z " fill="#544A54" transform="translate(83,15)"/>
<path d="M0,0 L10,0 L7,1 L7,3 L12,3 L12,5 L17,5 L17,8 L12,7 L4,6 L6,2 L1,2 Z " fill="#4E4751" transform="translate(16,72)"/>
<path d="M0,0 L2,0 L4,6 L10,8 L10,13 L5,12 L1,7 L3,7 L0,2 Z " fill="#59474B" transform="translate(140,13)"/>
<path d="M0,0 L4,2 L4,4 L9,5 L9,10 L5,10 L4,6 L-1,5 Z " fill="#97868B" transform="translate(107,5)"/>
<path d="M0,0 L10,0 L10,7 L5,7 L4,4 L1,3 Z " fill="#A28985" transform="translate(140,0)"/>
<path d="M0,0 L2,0 L0,4 L-3,7 L-6,8 L-13,8 L-13,6 L-1,1 Z " fill="#453D4E" transform="translate(112,64)"/>
<path d="M0,0 L9,2 L9,3 L2,3 L1,5 L1,10 L-6,10 L-5,5 L-1,8 L-1,2 Z " fill="#645151" transform="translate(65,10)"/>
<path d="M0,0 L7,2 L9,4 L9,7 L6,8 L6,6 L2,6 L2,4 L-1,5 L-3,3 L0,2 Z " fill="#50474D" transform="translate(104,38)"/>
<path d="M0,0 L1,0 L1,7 L-1,12 L-2,12 L-2,6 L-7,5 L-6,2 Z " fill="#292024" transform="translate(15,43)"/>
<path d="M0,0 L1,2 L8,2 L8,4 L14,5 L14,6 L6,6 L6,4 L-1,4 L-2,6 L-7,6 L-7,4 Z " fill="#594F5E" transform="translate(91,63)"/>
<path d="M0,0 L3,1 L3,4 L9,4 L9,5 L3,5 L3,12 L0,12 L-1,2 Z " fill="#56444D" transform="translate(127,17)"/>
<path d="M0,0 L4,0 L3,4 L1,6 L-5,6 L-5,2 Z " fill="#544B57" transform="translate(31,27)"/>
<path d="M0,0 L4,0 L4,3 L19,4 L19,6 L2,5 L0,4 Z " fill="#423540" transform="translate(26,0)"/>
<path d="M0,0 L1,4 L15,5 L15,7 L1,7 L0,11 Z " fill="#2E222D" transform="translate(25,0)"/>
<path d="M0,0 L11,0 L11,4 L0,4 Z " fill="#69667E" transform="translate(90,0)"/>
<path d="M0,0 L3,1 L3,4 L5,5 L0,5 L0,16 L-2,15 L-1,12 L-3,11 L-1,2 Z " fill="#565052" transform="translate(4,44)"/>
<path d="M0,0 L5,0 L3,8 L-2,7 L-2,2 L0,2 Z " fill="#A594A6" transform="translate(139,24)"/>
<path d="M0,0 L10,1 L15,3 L15,5 L6,5 L5,2 L1,2 L0,4 Z " fill="#8E7E8F" transform="translate(8,15)"/>
<path d="M0,0 L6,0 L5,5 L1,7 L-2,7 Z " fill="#6A6370" transform="translate(79,10)"/>
<path d="M0,0 L4,1 L5,2 L5,10 L2,10 L2,6 L0,6 Z " fill="#2E2338" transform="translate(0,0)"/>
<path d="M0,0 L5,1 L4,6 L1,10 L-1,10 Z " fill="#6B6C7D" transform="translate(134,70)"/>
<path d="M0,0 L4,1 L6,4 L6,9 L1,8 Z " fill="#181522" transform="translate(119,72)"/>
<path d="M0,0 L4,1 L4,7 L-3,6 L-3,3 Z " fill="#5A4756" transform="translate(43,52)"/>
<path d="M0,0 L2,0 L2,4 L5,4 L6,2 L7,5 L3,6 L2,8 L9,8 L9,9 L1,10 L-2,11 L-2,8 L0,7 Z " fill="#7C7178" transform="translate(36,69)"/>
<path d="M0,0 L4,1 L6,5 L3,6 L-4,6 L-3,3 L0,2 Z " fill="#988D92" transform="translate(42,71)"/>
<path d="M0,0 L5,0 L5,6 L3,5 L4,2 L0,2 L-1,9 L-2,6 L-5,6 L-5,3 Z " fill="#614954" transform="translate(145,47)"/>
<path d="M0,0 L2,0 L2,4 L-4,7 L-14,8 L-13,5 L-5,6 L-3,2 Z " fill="#4D485A" transform="translate(43,34)"/>
<path d="M0,0 L8,0 L7,4 L7,2 L3,1 L3,8 L-1,8 Z " fill="#403139" transform="translate(130,22)"/>
<path d="M0,0 L5,1 L9,4 L6,4 L6,6 L1,5 L-3,3 L-3,1 Z " fill="#7F7282" transform="translate(17,19)"/>
<path d="M0,0 L4,1 L4,3 L-14,4 L-12,2 Z " fill="#826F79" transform="translate(46,6)"/>
<path d="M0,0 L4,0 L5,5 L-4,5 L-4,2 Z " fill="#322D3B" transform="translate(110,75)"/>
<path d="M0,0 L3,1 L3,6 L-4,5 L-8,3 L-7,2 L0,2 Z " fill="#331E2E" transform="translate(65,74)"/>
<path d="M0,0 L3,1 L4,9 L2,12 L0,12 Z " fill="#786C75" transform="translate(116,28)"/>
<path d="M0,0 L5,1 L5,3 L8,0 L11,1 L11,4 L8,4 L7,7 L2,4 L2,1 Z " fill="#725E68" transform="translate(116,12)"/>
<path d="M0,0 L6,0 L8,6 L4,5 L5,1 L3,1 L3,8 L0,8 Z " fill="#5F4F53" transform="translate(102,0)"/>
<path d="M0,0 L2,0 L4,6 L-2,7 L-2,10 L-5,9 L-5,6 L-1,5 Z " fill="#63464B" transform="translate(50,75)"/>
<path d="M0,0 L3,0 L3,3 L-2,5 L-8,5 L-8,3 L-5,1 Z " fill="#7F717E" transform="translate(100,60)"/>
<path d="M0,0 L3,0 L3,3 L7,4 L6,7 L0,7 Z " fill="#897E7F" transform="translate(4,53)"/>
<path d="M0,0 L3,0 L3,5 L-1,8 L-5,7 L-3,5 L-4,2 L0,3 Z " fill="#433145" transform="translate(129,48)"/>
<path d="M0,0 L1,4 L3,5 L-1,6 L-1,9 L2,9 L1,13 L-1,13 L-4,7 L-4,4 L-1,3 Z " fill="#422E38" transform="translate(141,44)"/>
<path d="M0,0 L8,1 L10,3 L10,6 L8,6 L8,4 L4,4 L4,7 L2,7 L3,1 Z " fill="#695869" transform="translate(68,66)"/>
<path d="M0,0 L6,1 L5,4 L-3,5 L-3,1 Z " fill="#9D8C9B" transform="translate(65,66)"/>
<path d="M0,0 L3,0 L3,10 L2,12 L0,12 Z " fill="#7D6B79" transform="translate(4,25)"/>
<path d="M0,0 L4,2 L1,2 L1,12 L0,12 L-1,6 L-6,7 L-5,5 L-3,5 L-3,2 L0,2 Z " fill="#191C2A" transform="translate(142,73)"/>
<path d="M0,0 L5,0 L5,3 L0,5 L-6,5 L-7,3 Z " fill="#786F81" transform="translate(108,71)"/>
<path d="M0,0 L7,1 L7,4 L5,4 L4,7 L2,6 L2,3 L-2,2 Z " fill="#695F72" transform="translate(111,68)"/>
<path d="M0,0 L4,2 L5,5 L7,6 L7,10 L4,10 L3,7 L0,4 Z " fill="#93808F" transform="translate(123,6)"/>
<path d="M0,0 L4,1 L1,2 L1,6 L9,5 L9,8 L3,7 L3,10 L1,10 L0,7 Z " fill="#7C6A7A" transform="translate(61,65)"/>
<path d="M0,0 L7,1 L8,5 L2,6 L2,3 L0,3 Z " fill="#94899A" transform="translate(93,5)"/>
<path d="M0,0 L4,1 L5,5 L-4,6 Z " fill="#312236" transform="translate(122,50)"/>
<path d="M0,0 L5,1 L6,7 L8,7 L7,9 L5,8 L7,12 L4,11 L3,8 L3,1 Z " fill="#564856" transform="translate(132,0)"/>
<path d="M0,0 L6,0 L6,5 L0,5 Z " fill="#5B454D" transform="translate(110,80)"/>
<path d="M0,0 L6,1 L4,2 L4,4 L13,3 L12,5 L2,5 L0,4 L0,2 L-2,1 Z " fill="#453F50" transform="translate(95,68)"/>
<path d="M0,0 L5,0 L4,4 L1,4 L1,7 L-2,7 L-2,2 Z " fill="#423441" transform="translate(82,62)"/>
<path d="M0,0 L2,0 L3,2 L6,3 L5,8 L1,8 Z " fill="#9A91A4" transform="translate(139,35)"/>
<path d="M0,0 L4,1 L4,3 L6,4 L3,4 L4,8 L2,8 L-1,5 Z " fill="#23191E" transform="translate(127,30)"/>
<path d="M0,0 L5,1 L5,3 L1,2 L0,8 L-3,8 L-3,3 L0,2 Z " fill="#756073" transform="translate(145,25)"/>
<path d="M0,0 L3,1 L3,3 L8,3 L8,7 L2,8 Z " fill="#3C2B3D" transform="translate(3,0)"/>
<path d="M0,0 L1,0 L1,7 L-4,7 L-5,5 L-4,2 Z " fill="#090610" transform="translate(141,78)"/>
<path d="M0,0 L1,0 L1,6 L-1,6 L0,11 L-4,11 L-3,4 L-1,4 Z " fill="#443D52" transform="translate(149,32)"/>
<path d="M0,0 L4,1 L4,5 L1,5 L1,8 L-4,7 L-1,6 Z " fill="#9B889B" transform="translate(146,27)"/>
<path d="M0,0 L4,0 L4,3 L1,3 L1,5 L-8,5 L-8,3 L-10,2 L-3,3 L0,4 Z " fill="#574E5D" transform="translate(23,21)"/>
<path d="M0,0 L9,0 L9,1 L2,2 L0,4 L0,2 L-4,2 L-3,5 L-12,5 L-12,4 L-5,4 L-5,1 Z " fill="#473641" transform="translate(40,10)"/>
<path d="M0,0 L4,0 L4,4 L6,4 L6,6 L-1,6 L-1,3 L1,3 Z " fill="#2B2136" transform="translate(85,1)"/>
<path d="M0,0 L1,3 L5,3 L5,8 L0,8 Z " fill="#3D4858" transform="translate(105,77)"/>
<path d="M0,0 L5,0 L6,7 L2,7 L2,1 Z " fill="#484659" transform="translate(80,74)"/>
<path d="M0,0 L3,0 L4,7 L-1,7 Z " fill="#5F6F85" transform="translate(101,78)"/>
<path d="M0,0 L9,0 L13,4 L12,7 L10,7 L8,3 L0,1 Z " fill="#5C4A5B" transform="translate(68,65)"/>
<path d="M0,0 L5,0 L7,4 L3,5 L0,4 Z " fill="#554659" transform="translate(27,53)"/>
<path d="M0,0 L2,1 L1,5 L5,4 L5,2 L7,2 L8,0 L7,5 L6,7 L1,7 L0,6 Z " fill="#4C4752" transform="translate(51,29)"/>
<path d="M0,0 L6,0 L8,6 L5,6 L5,3 L0,3 Z " fill="#756972" transform="translate(104,16)"/>
<path d="M0,0 L8,0 L8,4 L1,3 Z " fill="#463533" transform="translate(67,14)"/>
<path d="M0,0 L3,0 L3,6 L-2,7 L-6,7 L-6,4 L0,5 Z " fill="#3F3238" transform="translate(118,0)"/>
<path d="M0,0 L6,1 L6,5 L0,5 Z " fill="#615864" transform="translate(91,80)"/>
<path d="M0,0 L1,0 L1,7 L4,7 L3,13 L0,13 Z " fill="#4F474F" transform="translate(105,51)"/>
<path d="M0,0 L3,0 L2,5 L-3,5 L-4,2 Z " fill="#33242C" transform="translate(21,54)"/>
<path d="M0,0 L3,3 L1,8 L-5,8 L-4,4 L-4,7 L0,7 L-2,3 Z " fill="#4A4055" transform="translate(91,5)"/>
<path d="M0,0 L10,0 L10,2 L8,3 L1,3 Z " fill="#887E8F" transform="translate(45,0)"/>
<path d="M0,0 L4,1 L3,8 L0,8 Z " fill="#596377" transform="translate(97,77)"/>
<path d="M0,0 L5,0 L5,7 L3,7 L3,4 L0,4 Z " fill="#6E6463" transform="translate(4,49)"/>
<path d="M0,0 L2,0 L3,5 L6,5 L6,7 L1,8 Z " fill="#1F1722" transform="translate(24,11)"/>
<path d="M0,0 L10,2 L6,3 L7,9 L5,5 L1,3 Z " fill="#6F626D" transform="translate(137,8)"/>
<path d="M0,0 L4,2 L4,7 L0,7 Z " fill="#4A5564" transform="translate(125,78)"/>
<path d="M0,0 L4,0 L4,2 L8,3 L3,4 L2,7 L0,7 Z " fill="#3B2A2A" transform="translate(0,78)"/>
<path d="M0,0 L3,0 L3,5 L0,5 L0,8 L-3,8 L-3,6 L-1,6 Z " fill="#64575F" transform="translate(108,25)"/>
<path d="M0,0 L2,0 L2,4 L4,4 L2,9 L0,10 Z " fill="#372C43" transform="translate(0,6)"/>
<path d="M0,0 L6,0 L6,4 L0,4 Z " fill="#9D8B9B" transform="translate(74,76)"/>
<path d="M0,0 L10,1 L10,2 L4,2 L4,4 L1,5 Z " fill="#888195" transform="translate(125,59)"/>
<path d="M0,0 L2,0 L4,5 L4,9 L6,10 L1,10 L3,9 L3,6 L0,5 Z " fill="#3D3443" transform="translate(21,11)"/>
<path d="M0,0 L1,2 L6,3 L5,6 L10,6 L10,8 L4,7 L4,5 L0,3 Z " fill="#765C5C" transform="translate(140,1)"/>
<path d="M0,0 L5,0 L7,2 L6,5 L3,2 L3,5 L-1,3 L-2,1 Z " fill="#372835" transform="translate(42,62)"/>
<path d="M0,0 L4,0 L4,4 L6,4 L6,10 L4,9 L5,7 L3,7 L1,2 Z " fill="#5B4D56" transform="translate(117,20)"/>
<path d="M0,0 L5,0 L3,5 L0,6 Z " fill="#513845" transform="translate(59,0)"/>
<path d="M0,0 L3,1 L3,4 L10,5 L10,6 L0,6 Z " fill="#453C48" transform="translate(0,55)"/>
<path d="M0,0 L2,3 L2,11 L0,11 L0,7 L-3,6 L0,6 L-1,2 Z " fill="#56424D" transform="translate(136,28)"/>
<path d="M0,0 L3,0 L3,4 L1,5 L0,10 L-1,10 L-1,1 Z " fill="#635266" transform="translate(1,15)"/>
<path d="M0,0 L2,0 L2,5 L6,5 L5,8 L5,6 L-2,5 Z " fill="#635261" transform="translate(80,4)"/>
<path d="M0,0 L7,1 L8,3 L4,3 L4,5 L1,5 Z " fill="#6A5A62" transform="translate(37,68)"/>
<path d="M0,0 L11,0 L12,3 L7,3 L7,1 L0,1 Z " fill="#210E25" transform="translate(0,68)"/>
<path d="M0,0 L4,0 L3,5 L0,5 L-1,7 Z " fill="#866C74" transform="translate(145,49)"/>
<path d="M0,0 L4,1 L3,5 L-2,5 L-2,2 L0,2 Z " fill="#332731" transform="translate(113,50)"/>
<path d="M0,0 L7,0 L7,6 L6,3 L0,2 Z " fill="#746073" transform="translate(9,0)"/>
<path d="M0,0 L5,0 L4,2 L1,1 L1,4 L-4,4 L-3,1 Z " fill="#73545C" transform="translate(61,81)"/>
<path d="M0,0 L3,1 L4,10 L2,10 L0,6 L2,6 L2,4 L0,4 Z " fill="#464253" transform="translate(123,68)"/>
<path d="M0,0 L8,0 L5,3 L0,3 Z " fill="#2B2332" transform="translate(90,66)"/>
<path d="M0,0 L3,0 L3,3 L6,3 L6,6 L3,6 L2,8 L1,6 L2,1 Z " fill="#5A4656" transform="translate(130,47)"/>
<path d="M0,0 L1,0 L1,7 L-1,7 L-1,5 L-4,5 L-4,3 Z " fill="#12060B" transform="translate(15,43)"/>
<path d="M0,0 L1,2 L-1,2 L-1,4 L1,4 L0,6 L-2,5 L-2,10 L-3,10 L-4,2 Z " fill="#4A4350" transform="translate(124,36)"/>
<path d="M0,0 L4,1 L4,4 L7,5 L1,4 L-2,2 L0,2 Z " fill="#726173" transform="translate(10,18)"/>
<path d="M0,0 L4,2 L4,5 L-1,5 Z " fill="#9E8F97" transform="translate(107,5)"/>
<path d="M0,0 L2,0 L1,9 L4,10 L0,10 L-1,2 Z " fill="#78686F" transform="translate(105,1)"/>
<path d="M0,0 L4,0 L4,2 L7,2 L8,7 L5,7 L6,3 L1,3 Z " fill="#5C495A" transform="translate(5,0)"/>
<path d="M0,0 L3,0 L3,5 L-2,5 L-2,3 L0,3 Z " fill="#382738" transform="translate(72,70)"/>
<path d="M0,0 L3,0 L2,9 L1,9 L1,4 L-2,3 Z " fill="#3D3848" transform="translate(132,67)"/>
<path d="M0,0 L5,0 L5,3 L-2,3 L-2,1 Z " fill="#292231" transform="translate(101,69)"/>
<path d="M0,0 L7,0 L6,4 L0,3 Z " fill="#70626D" transform="translate(114,47)"/>
<path d="M0,0 L3,0 L3,4 L-2,5 Z " fill="#4B3D51" transform="translate(124,45)"/>
<path d="M0,0 L3,0 L3,2 L0,4 L-4,4 L-4,1 Z " fill="#2C2430" transform="translate(28,34)"/>
<path d="M0,0 L4,1 L4,3 L6,4 L4,4 L3,6 L3,4 L-1,4 Z " fill="#8A788D" transform="translate(138,31)"/>
<path d="M0,0 L4,1 L4,6 L1,5 Z " fill="#584543" transform="translate(60,12)"/>
<path d="M0,0 L5,0 L5,1 L11,2 L11,3 L0,3 Z " fill="#645662" transform="translate(29,8)"/>
<path d="M0,0 L4,0 L4,3 L10,3 L10,4 L3,4 L0,3 Z " fill="#705F69" transform="translate(30,0)"/>
<path d="M0,0 L4,1 L4,5 L0,5 Z " fill="#1B1323" transform="translate(0,0)"/>
<path d="M0,0 L3,0 L3,2 L6,2 L6,4 L-1,4 Z " fill="#363544" transform="translate(144,73)"/>
<path d="M0,0 L2,1 L2,3 L5,4 L3,4 L1,8 L-1,7 L0,4 Z " fill="#4F495B" transform="translate(113,60)"/>
<path d="M0,0 L4,2 L4,6 L6,7 L3,7 L3,4 L0,4 Z " fill="#816F77" transform="translate(130,43)"/>
<path d="M0,0 Z M-1,1 L1,2 L1,6 L-4,5 Z " fill="#281B2A" transform="translate(43,42)"/>
<path d="M0,0 L3,0 L3,2 L-2,3 L-2,5 L-5,4 L-3,1 Z " fill="#2B1F2A" transform="translate(130,40)"/>
<path d="M0,0 L3,3 L3,5 L-3,5 L-4,2 L0,3 Z " fill="#483741" transform="translate(140,15)"/>
<path d="M0,0 L3,0 L3,3 L0,5 L-3,5 L-3,3 L-1,3 Z " fill="#948C8E" transform="translate(80,12)"/>
<path d="M0,0 L2,2 L2,8 L4,9 L1,9 L1,4 L-3,5 Z " fill="#4F3B50" transform="translate(81,0)"/>
<path d="M0,0 L5,1 L5,3 L0,5 Z " fill="#898395" transform="translate(134,70)"/>
<path d="M0,0 L6,0 L4,3 L-1,3 Z " fill="#261E2F" transform="translate(83,70)"/>
<path d="M0,0 L5,1 L5,4 L0,4 Z " fill="#7D6E80" transform="translate(0,70)"/>
<path d="M0,0 L3,1 L3,6 L0,6 Z " fill="#8D7C8C" transform="translate(57,66)"/>
<path d="M0,0 L2,0 L1,5 L-1,6 L-2,1 Z " fill="#675F6E" transform="translate(111,60)"/>
<path d="M0,0 L3,1 L2,7 L0,7 Z " fill="#0E060D" transform="translate(134,23)"/>
<path d="M0,0 L5,0 L3,4 L0,4 Z " fill="#765969" transform="translate(76,0)"/>
<path d="M0,0 L4,0 L4,4 L0,4 Z " fill="#464148" transform="translate(21,81)"/>
<path d="M0,0 L4,0 L3,4 L-1,4 Z " fill="#10080B" transform="translate(3,81)"/>
<path d="M0,0 L1,4 L-4,4 L-4,1 Z " fill="#3D444F" transform="translate(124,81)"/>
<path d="M0,0 L9,1 L10,4 L1,2 Z " fill="#46312E" transform="translate(8,81)"/>
<path d="M0,0 L5,1 L5,5 L0,3 Z " fill="#5F515B" transform="translate(30,63)"/>
<path d="M0,0 L5,0 L4,3 L-1,3 Z " fill="#958A8B" transform="translate(6,57)"/>
<path d="M0,0 L3,1 L3,6 L0,6 Z " fill="#7A676B" transform="translate(147,11)"/>
<path d="M0,0 L4,0 L3,5 L0,3 Z " fill="#93888D" transform="translate(143,11)"/>
<path d="M0,0 L4,0 L4,5 L0,3 Z " fill="#625264" transform="translate(17,11)"/>
<path d="M0,0 L3,1 L0,6 L3,6 L2,8 L-1,7 L-1,1 Z " fill="#61494B" transform="translate(61,5)"/>
<path d="M0,0 L7,1 L4,3 L2,6 L2,3 L0,3 Z " fill="#8B8397" transform="translate(93,5)"/>
<path d="M0,0 L6,0 L6,2 L-1,3 Z " fill="#1F1621" transform="translate(129,2)"/>
<path d="M0,0 L5,1 L3,4 L0,4 Z " fill="#9A96AB" transform="translate(90,0)"/>
<path d="M0,0 L3,0 L3,5 L0,5 Z " fill="#514655" transform="translate(88,80)"/>
<path d="M0,0 L5,2 L2,6 L0,4 Z " fill="#4F3F52" transform="translate(50,62)"/>
<path d="M0,0 L1,2 L4,2 L3,6 L1,6 L-1,1 Z " fill="#3B222C" transform="translate(139,51)"/>
<path d="M0,0 L3,1 L3,5 L0,6 Z " fill="#685C65" transform="translate(17,39)"/>
<path d="M0,0 L1,2 L3,2 L3,4 L-3,5 L-3,3 L-1,3 Z " fill="#50444E" transform="translate(7,34)"/>
<path d="M0,0 L4,2 L4,5 L0,4 Z " fill="#A393A2" transform="translate(123,6)"/>
<path d="M0,0 L7,0 L7,2 L2,3 L0,2 Z " fill="#AEA49A" transform="translate(143,0)"/>
<path d="M0,0 L1,4 L-4,4 L-3,1 Z " fill="#6B555B" transform="translate(114,81)"/>
<path d="M0,0 L5,0 L5,3 L0,3 Z " fill="#4E2D31" transform="translate(48,82)"/>
<path d="M0,0 L7,1 L3,2 L3,4 L0,4 Z " fill="#3C2F3A" transform="translate(117,80)"/>
<path d="M0,0 L1,2 L4,3 L1,3 L1,5 L-5,3 L-5,2 L0,2 Z " fill="#3B3242" transform="translate(89,67)"/>
<path d="M0,0 L7,0 L7,3 L0,1 Z " fill="#3D2C41" transform="translate(0,69)"/>
<path d="M0,0 L6,1 L2,2 L2,4 L0,4 L0,2 L-2,1 Z " fill="#4C4455" transform="translate(95,68)"/>
<path d="M0,0 L3,1 L1,1 L1,3 L6,3 L6,4 L-1,5 Z " fill="#423A4A" transform="translate(137,62)"/>
<path d="M0,0 L4,2 L-4,4 Z " fill="#7A7082" transform="translate(131,63)"/>
<path d="M0,0 L2,0 L2,4 L-3,4 L-3,2 L0,2 Z " fill="#160D16" transform="translate(141,61)"/>
<path d="M0,0 L2,1 L2,3 L-3,4 L-3,1 Z " fill="#36273D" transform="translate(134,54)"/>
<path d="M0,0 L3,1 L4,4 L0,5 Z " fill="#3E3445" transform="translate(122,41)"/>
<path d="M0,0 L4,0 L4,5 L2,4 L2,2 L-1,1 Z " fill="#453641" transform="translate(116,23)"/>
<path d="M0,0 L4,0 L4,3 L0,4 Z " fill="#43303B" transform="translate(122,20)"/>
<path d="M0,0 L2,0 L2,5 L-1,5 Z " fill="#4D5463" transform="translate(108,80)"/>
<path d="M0,0 L5,0 L3,1 L3,4 L0,3 Z " fill="#6B494A" transform="translate(45,81)"/>
<path d="M0,0 L4,1 L4,4 L1,4 Z " fill="#160C15" transform="translate(111,76)"/>
<path d="M0,0 L3,0 L3,3 L-2,3 L-2,1 Z " fill="#6F6170" transform="translate(86,66)"/>
<path d="M0,0 L1,2 L4,3 L-2,4 L-4,2 Z " fill="#665765" transform="translate(91,63)"/>
<path d="M0,0 L3,1 L3,4 L0,5 L-1,1 Z " fill="#62545C" transform="translate(20,47)"/>
<path d="M0,0 L2,2 L2,6 L0,6 L-1,1 Z " fill="#665C67" transform="translate(119,37)"/>
<path d="M0,0 L3,1 L3,5 L0,4 Z " fill="#CDBCCD" transform="translate(138,27)"/>
<path d="M0,0 L2,3 L1,6 L-2,7 L-2,4 L0,4 Z " fill="#362733" transform="translate(35,16)"/>
<path d="M0,0 L4,2 L2,2 L2,5 L-1,4 Z " fill="#67575A" transform="translate(75,17)"/>
<path d="M0,0 L2,0 L3,5 L0,5 Z " fill="#594F62" transform="translate(94,14)"/>
<path d="M0,0 L5,0 L5,3 L-1,2 Z " fill="#3E2C2B" transform="translate(70,14)"/>
<path d="M0,0 L6,1 L6,4 L1,2 Z " fill="#4E4044" transform="translate(144,8)"/>
<path d="M0,0 L4,1 L4,3 L-1,3 Z " fill="#8A7A86" transform="translate(46,6)"/>
<path d="M0,0 L1,0 L1,5 L-2,5 L-3,2 Z " fill="#140514" transform="translate(131,4)"/>
<path d="M0,0 L4,0 L4,4 L1,4 Z " fill="#442831" transform="translate(136,0)"/>
<path d="M0,0 L4,0 L4,3 L0,3 Z " fill="#7F798D" transform="translate(84,82)"/>
<path d="M0,0 L4,0 L4,3 L0,3 Z " fill="#8B7A85" transform="translate(6,77)"/>
<path d="M0,0 L3,2 L3,4 L-1,5 Z " fill="#8C7D86" transform="translate(45,72)"/>
<path d="M0,0 L5,0 L4,3 L1,3 Z " fill="#382E40" transform="translate(105,68)"/>
<path d="M0,0 L3,2 L2,4 L-2,3 Z " fill="#50485B" transform="translate(129,66)"/>
<path d="M0,0 L5,0 L4,3 L1,3 Z " fill="#655A66" transform="translate(98,64)"/>
<path d="M0,0 L2,0 L2,2 L0,2 L-1,5 L-3,5 L-1,1 Z " fill="#584352" transform="translate(17,60)"/>
<path d="M0,0 L2,0 L2,2 L4,2 L4,4 L0,4 Z " fill="#241920" transform="translate(109,48)"/>
<path d="M0,0 L3,0 L3,4 L0,4 Z " fill="#1E161E" transform="translate(142,44)"/>
<path d="M0,0 L3,0 L3,4 L0,4 Z " fill="#84787F" transform="translate(108,25)"/>
<path d="M0,0 L3,0 L1,4 L-3,3 L0,3 Z " fill="#1A131D" transform="translate(28,21)"/>
<path d="M0,0 L4,0 L4,2 L-1,3 Z " fill="#160E19" transform="translate(26,16)"/>
<path d="M0,0 L5,0 L3,3 L0,3 Z " fill="#60434D" transform="translate(75,5)"/>
<path d="M0,0 L2,0 L2,5 L-1,5 Z " fill="#514649" transform="translate(116,0)"/>
<path d="M0,0 L3,0 L3,3 L-1,3 Z " fill="#4B4346" transform="translate(144,82)"/>
<path d="M0,0 L3,0 L3,3 L-1,3 Z " fill="#8395AA" transform="translate(101,82)"/>
<path d="M0,0 L4,1 L4,3 L0,3 Z " fill="#917370" transform="translate(62,82)"/>
<path d="M0,0 L2,2 L2,5 L-1,5 Z " fill="#798397" transform="translate(126,80)"/>
<path d="M0,0 L1,4 L-1,5 L-1,3 L-3,2 Z " fill="#706B7F" transform="translate(96,77)"/>
<path d="M0,0 L3,2 L2,5 L0,5 Z " fill="#544556" transform="translate(78,67)"/>
<path d="M0,0 L3,2 L3,4 L-1,3 Z " fill="#291B26" transform="translate(45,63)"/>
<path d="M0,0 L3,0 L3,3 L-2,2 Z " fill="#4C383E" transform="translate(147,23)"/>
<path d="M0,0 L3,0 L4,4 L0,3 Z " fill="#847380" transform="translate(134,18)"/>
<path d="M0,0 L3,0 L2,4 L0,4 Z " fill="#9D8897" transform="translate(124,16)"/>
<path d="M0,0 L3,1 L3,4 L0,4 Z " fill="#634F5E" transform="translate(124,12)"/>
<path d="M0,0 L4,2 L1,3 L-1,5 Z " fill="#7A7076" transform="translate(79,10)"/>
<path d="M0,0 L4,0 L4,3 L0,2 Z " fill="#A392A1" transform="translate(45,0)"/>
<path d="M0,0 L4,0 L3,3 L0,3 Z " fill="#522A36" transform="translate(60,0)"/>
<path d="M0,0 L3,0 L4,3 L0,3 Z " fill="#886B6B" transform="translate(71,82)"/>
<path d="M0,0 L4,1 L3,4 L0,2 Z " fill="#60454C" transform="translate(74,80)"/>
<path d="M0,0 L4,1 L3,3 L0,3 Z " fill="#493F4A" transform="translate(0,75)"/>
<path d="M0,0 L3,1 L3,4 L0,4 Z " fill="#514659" transform="translate(123,68)"/>
<path d="M0,0 L2,0 L2,4 L-1,4 Z " fill="#28161E" transform="translate(148,53)"/>
<path d="M0,0 L6,0 L2,3 L0,2 Z " fill="#3A343D" transform="translate(114,56)"/>
<path d="M0,0 L1,4 L-2,5 L-1,1 Z " fill="#1F111C" transform="translate(2,35)"/>
<path d="M0,0 L3,1 L3,3 L-2,3 L0,2 Z " fill="#655761" transform="translate(112,20)"/>
<path d="M0,0 L3,0 L3,3 L-1,2 Z " fill="#4B3B45" transform="translate(105,12)"/>
<path d="M0,0 L4,2 L4,4 L0,3 Z " fill="#6D5F6D" transform="translate(98,10)"/>
<path d="M0,0 L2,0 L2,4 L-1,4 Z " fill="#988FA0" transform="translate(99,0)"/>
<path d="M0,0 L2,0 L3,4 L-1,2 Z " fill="#57434F" transform="translate(50,75)"/>
<path d="M0,0 L3,0 L3,3 L0,3 Z " fill="#403140" transform="translate(72,70)"/>
<path d="M0,0 L4,1 L3,3 L0,3 Z " fill="#1A111F" transform="translate(128,70)"/>
<path d="M0,0 L3,0 L3,3 L0,3 Z " fill="#645060" transform="translate(21,67)"/>
<path d="M0,0 L3,0 L3,3 L0,3 Z " fill="#28303D" transform="translate(147,67)"/>
<path d="M0,0 L3,0 L3,3 L0,3 Z " fill="#655062" transform="translate(16,66)"/>
<path d="M0,0 L3,0 L3,3 L0,3 Z " fill="#685968" transform="translate(27,54)"/>
<path d="M0,0 L3,0 L3,3 L0,3 Z " fill="#423A3F" transform="translate(115,42)"/>
<path d="M0,0 L2,3 L2,5 L-1,4 Z " fill="#3E2E3C" transform="translate(136,28)"/>
<path d="M0,0 L3,0 L3,3 L0,3 Z " fill="#39303F" transform="translate(37,25)"/>
<path d="M0,0 L4,1 L4,3 L1,3 Z " fill="#644E4D" transform="translate(146,20)"/>
<path d="M0,0 L3,4 L0,5 L-1,3 Z " fill="#4C4248" transform="translate(108,19)"/>
<path d="M0,0 L3,0 L3,3 L0,3 Z " fill="#796F80" transform="translate(97,16)"/>
<path d="M0,0 L4,2 L0,3 Z " fill="#24161B" transform="translate(112,4)"/>
<path d="M0,0 L4,1 L4,3 L0,2 Z " fill="#494359" transform="translate(94,3)"/>
<path d="M0,0 L3,0 L1,4 Z " fill="#181115" transform="translate(118,0)"/>
<path d="M0,0 L3,0 L3,3 L0,3 Z " fill="#5E555E" transform="translate(30,0)"/>
<path d="M0,0 L2,0 L2,3 L-1,3 Z " fill="#635667" transform="translate(58,82)"/>
<path d="M0,0 L3,0 L2,3 L0,3 Z " fill="#2A1F25" transform="translate(21,81)"/>
<path d="M0,0 L3,0 L3,3 L0,2 Z " fill="#A599AA" transform="translate(132,61)"/>
<path d="M0,0 L3,0 L2,3 L0,3 Z " fill="#C5B0BF" transform="translate(146,50)"/>
<path d="M0,0 L3,0 L2,3 L0,3 Z " fill="#352C3D" transform="translate(64,44)"/>
<path d="M0,0 L2,0 L2,3 L-1,3 Z " fill="#5C494F" transform="translate(137,40)"/>
<path d="M0,0 L2,0 L2,3 L-1,3 Z " fill="#33293A" transform="translate(33,31)"/>
<path d="M0,0 L3,0 L3,3 L0,2 Z " fill="#53495B" transform="translate(93,29)"/>
<path d="M0,0 L4,0 L3,3 Z " fill="#584550" transform="translate(117,20)"/>
<path d="M0,0 L3,0 L2,3 L0,3 Z " fill="#A3919C" transform="translate(121,12)"/>
<path d="M0,0 L2,4 L-1,4 Z " fill="#453449" transform="translate(5,8)"/>
<path d="M0,0 L3,1 L3,3 L0,3 Z " fill="#42323B" transform="translate(102,5)"/>
<path d="M0,0 L3,1 L2,3 L0,3 Z " fill="#3A3144" transform="translate(60,48)"/>
<path d="M0,0 L3,1 L0,3 Z " fill="#423B4A" transform="translate(16,27)"/>
<path d="M0,0 L3,1 L3,3 L0,2 Z " fill="#6B5F73" transform="translate(137,8)"/>
<path d="M0,0 L2,0 L2,3 L-1,2 Z " fill="#B3A096" transform="translate(148,4)"/>
<path d="M0,0 L2,0 L1,3 L-1,1 Z " fill="#4A3642" transform="translate(53,82)"/>
</svg>
