<?xml version="1.0" encoding="UTF-8"?>
<!-- Generator: visioncortex VTracer 0.6.5 -->
<svg version="1.1" xmlns="http://www.w3.org/2000/svg" width="150" height="85">
<path d="M0,0 L150,0 L150,85 L0,85 Z " fill="#583D34" transform="translate(0,0)"/>
<path d="M0,0 L3,0 L4,4 L3,9 L4,12 L21,12 L21,10 L23,10 L23,14 L27,14 L27,6 L35,3 L37,4 L37,2 L48,3 L48,11 L52,12 L52,15 L55,16 L57,10 L60,10 L60,20 L57,25 L55,25 L55,29 L58,29 L58,39 L59,44 L57,47 L52,50 L50,52 L44,52 L43,55 L49,54 L50,55 L62,55 L62,60 L63,63 L58,63 L57,61 L42,61 L40,63 L36,63 L36,59 L26,59 L26,67 L31,66 L31,68 L33,68 L33,70 L41,72 L41,70 L46,68 L56,69 L57,73 L61,73 L61,70 L57,70 L57,67 L63,67 L69,69 L69,72 L79,73 L82,75 L87,74 L87,80 L-25,80 L-25,35 L-21,33 L-18,30 L-13,30 L-14,22 L-12,17 L-6,16 L-6,12 L-15,14 L-20,15 L-21,13 L-19,13 L-18,7 L-12,4 L-12,6 L-8,6 L-7,2 Z " fill="#4E392A" transform="translate(25,5)"/>
<path d="M0,0 L3,0 L4,4 L3,9 L4,12 L21,12 L21,10 L23,10 L23,14 L27,14 L27,6 L35,3 L37,4 L37,2 L48,3 L48,11 L52,12 L52,15 L55,16 L57,10 L60,10 L60,20 L57,25 L55,25 L55,29 L58,29 L57,34 L53,36 L45,38 L42,39 L27,39 L24,37 L24,33 L30,30 L32,30 L32,28 L47,28 L36,27 L38,26 L37,23 L31,22 L27,23 L26,26 L23,24 L26,23 L24,18 L15,15 L15,17 L6,18 L4,17 L2,18 L1,26 L3,27 L0,28 L2,32 L-1,34 L-3,41 L-5,45 L-7,47 L-7,50 L-1,52 L5,52 L5,55 L3,55 L3,57 L-3,58 L-4,54 L-7,54 L-7,66 L-16,64 L-15,67 L-25,67 L-25,35 L-21,33 L-18,30 L-13,30 L-14,22 L-12,17 L-6,16 L-6,12 L-15,14 L-20,15 L-21,13 L-19,13 L-18,7 L-12,4 L-12,6 L-8,6 L-7,2 Z " fill="#503A29" transform="translate(25,5)"/>
<path d="M0,0 L105,0 L105,3 L102,3 L102,5 L105,5 L105,10 L110,12 L115,12 L115,15 L122,18 L121,28 L118,28 L119,32 L116,39 L113,40 L110,39 L110,37 L108,37 L108,33 L105,33 L105,30 L112,27 L117,26 L118,22 L110,22 L110,20 L108,20 L107,15 L107,21 L109,23 L109,26 L106,26 L103,23 L102,9 L98,10 L98,7 L90,7 L87,9 L88,12 L100,14 L98,17 L92,18 L88,17 L88,27 L85,27 L85,15 L82,16 L80,21 L76,20 L76,17 L73,16 L73,8 L68,9 L62,7 L62,9 L58,10 L53,12 L52,19 L48,19 L48,15 L46,15 L46,17 L37,18 L29,18 L27,14 L28,5 L18,8 L17,11 L12,10 L7,12 L5,19 L10,18 L19,17 L19,21 L13,22 L12,30 L12,35 L5,36 L3,40 L0,40 Z " fill="#5B3F3A" transform="translate(0,0)"/>
<path d="M0,0 L7,0 L7,43 L1,43 L0,48 L-7,49 L-14,47 L-15,43 L-23,44 L-24,34 L-20,33 L-22,27 L-21,26 L-8,26 L-8,18 L-14,14 L-17,9 L-17,3 L-10,2 L-9,7 L-1,6 L-1,1 Z " fill="#4C4A4F" transform="translate(143,4)"/>
<path d="M0,0 L45,0 L45,4 L38,5 L37,10 L29,11 L28,7 L21,7 L23,14 L26,19 L31,22 L30,30 L17,31 L18,37 L14,38 L15,48 L15,54 L13,56 L9,57 L8,60 L1,60 L-4,59 L-5,55 L-7,55 L-7,52 L-3,50 L1,50 L1,52 L6,51 L6,45 L9,41 L11,41 L11,35 L13,30 L13,28 L16,28 L16,18 L7,15 L9,13 L4,13 L-1,10 L0,5 L-3,5 L-3,3 L0,3 Z " fill="#473B44" transform="translate(105,0)"/>
<path d="M0,0 L4,1 L6,3 L10,4 L11,8 L23,8 L24,11 L28,12 L28,16 L24,17 L24,22 L22,22 L22,27 L-18,27 L-18,14 L-9,13 L-9,11 L0,13 L-1,9 L-1,1 Z " fill="#3A2B2B" transform="translate(18,58)"/>
<path d="M0,0 L48,0 L48,6 L47,8 L51,7 L50,11 L46,12 L43,9 L34,9 L29,11 L27,12 L28,5 L18,8 L17,11 L12,10 L7,12 L5,19 L10,18 L19,17 L19,21 L13,22 L12,30 L12,35 L5,36 L3,40 L0,40 Z " fill="#4E3D37" transform="translate(0,0)"/>
<path d="M0,0 L6,0 L6,37 L-29,37 L-29,31 L-19,31 L-17,26 L-12,26 L-11,15 L-9,14 L-4,15 L-5,11 L-3,11 L-2,6 Z " fill="#25262C" transform="translate(144,48)"/>
<path d="M0,0 L6,0 L8,1 L8,4 L12,3 L13,7 L13,17 L16,18 L16,20 L19,20 L18,17 L16,15 L16,8 L20,10 L18,10 L18,14 L20,14 L20,16 L28,16 L27,20 L20,23 L15,24 L15,27 L18,27 L18,29 L12,29 L12,32 L15,32 L17,38 L14,39 L14,41 L10,41 L10,39 L8,39 L10,34 L-1,35 L-1,38 L-6,37 L-5,34 L-2,34 L-2,28 L0,28 L-2,23 L-1,12 L8,10 L9,9 L0,7 L-2,6 L-2,4 L-6,3 Z " fill="#503B2D" transform="translate(90,6)"/>
<path d="M0,0 L3,0 L3,2 L5,2 L5,4 L13,6 L13,4 L18,2 L28,3 L29,7 L33,7 L33,4 L29,4 L29,1 L35,1 L41,3 L41,6 L51,7 L54,9 L59,8 L59,14 L8,14 L8,12 L0,11 L-1,6 L-5,6 L-5,4 Z " fill="#3B3232" transform="translate(53,71)"/>
<path d="M0,0 L4,1 L4,5 L18,6 L18,1 L20,0 L25,1 L25,2 L19,2 L19,7 L17,9 L16,13 L14,13 L15,17 L9,17 L8,26 L7,28 L2,28 L1,34 L-10,33 L-9,38 L-13,39 L-14,34 L-17,33 L-15,23 L-13,25 L-13,28 L-11,29 L-13,29 L-12,31 L-1,32 L-2,27 L-10,26 L-11,24 L-9,24 L-7,18 L-3,18 L-2,14 L-5,12 L-10,12 L-12,14 L-11,10 L-6,8 L-6,2 Z " fill="#5D4949" transform="translate(125,46)"/>
<path d="M0,0 L7,1 L9,3 L8,7 L5,9 L5,7 L3,7 L1,13 L0,14 L8,15 L9,16 L9,21 L-2,21 L-4,14 L-5,20 L-7,20 L-5,24 L-9,23 L-21,20 L-21,17 L-27,16 L-27,13 L-24,13 L-25,6 L-22,6 L-22,4 L-20,4 L-19,9 L-16,10 L-15,3 L-6,2 L-1,3 Z " fill="#4C3F36" transform="translate(115,57)"/>
<path d="M0,0 L5,1 L7,4 L12,7 L11,15 L-2,16 L-1,22 L-5,23 L-4,33 L-4,39 L-6,41 L-10,42 L-11,45 L-18,45 L-23,44 L-24,40 L-26,40 L-26,37 L-22,35 L-18,35 L-18,37 L-13,36 L-13,30 L-10,26 L-8,26 L-8,20 L-6,15 L-6,13 L-3,13 L-2,2 L0,2 Z " fill="#4C3327" transform="translate(124,15)"/>
<path d="M0,0 L11,0 L11,4 L16,4 L16,7 L18,7 L18,12 L18,14 L21,15 L21,12 L28,11 L28,17 L22,17 L21,22 L14,23 L7,21 L6,17 L-2,18 L-3,8 L1,7 L-1,1 Z " fill="#735C64" transform="translate(122,30)"/>
<path d="M0,0 L6,0 L11,4 L11,8 L9,9 L10,11 L6,12 L4,18 L-1,21 L-13,21 L-15,17 L-15,13 L-13,12 L-14,11 L-14,3 L-10,1 L-9,2 L0,2 Z " fill="#4B3B2A" transform="translate(40,20)"/>
<path d="M0,0 L4,1 L1,1 L1,13 L2,17 L0,17 L0,23 L-3,24 L-3,26 L1,27 L1,25 L-1,24 L1,23 L12,23 L10,27 L7,29 L2,28 L2,30 L-1,32 L4,33 L5,30 L7,32 L5,35 L9,35 L9,37 L3,39 L3,37 L-2,36 L-3,40 L-5,42 L-10,44 L-20,43 L-19,39 L-13,39 L-9,35 L-6,34 L-5,31 L-6,23 L-5,17 L-8,17 L-8,13 L-6,13 L-5,9 L-3,8 L-3,10 L0,10 Z " fill="#614539" transform="translate(88,17)"/>
<path d="M0,0 L5,0 L5,3 L2,3 L2,5 L5,5 L5,10 L10,12 L15,12 L15,15 L22,18 L21,28 L18,28 L19,32 L16,39 L13,40 L10,39 L10,37 L8,37 L8,33 L5,33 L5,30 L12,27 L17,26 L18,22 L10,22 L10,20 L8,20 L7,15 L7,21 L9,23 L9,26 L6,26 L3,23 L2,9 L0,8 L2,8 L2,6 L0,6 Z " fill="#403747" transform="translate(100,0)"/>
<path d="M0,0 L5,1 L6,5 L12,4 L12,6 L10,6 L10,10 L5,12 L4,19 L0,19 L0,15 L-2,15 L-2,17 L-11,18 L-19,18 L-21,12 L-18,9 L-8,8 L-3,9 L-2,11 L1,12 L3,7 L-1,8 Z " fill="#624D3E" transform="translate(48,0)"/>
<path d="M0,0 L17,0 L26,1 L25,6 L21,8 L13,10 L10,11 L-5,11 L-8,9 L-8,5 L-2,2 L0,2 Z " fill="#433221" transform="translate(57,33)"/>
<path d="M0,0 L1,0 L1,25 L-20,25 L-19,21 L-17,20 L-17,17 L-14,17 L-14,10 L-9,6 L-9,15 L-5,15 L-5,11 L-3,10 Z " fill="#2F3641" transform="translate(149,60)"/>
<path d="M0,0 L8,0 L8,5 L4,7 L0,7 L0,11 L-7,11 L-8,16 L-10,17 L-23,17 L-20,14 L-18,14 L-18,5 L-14,3 L-2,3 L-2,1 Z " fill="#53413A" transform="translate(70,42)"/>
<path d="M0,0 L5,0 L6,1 L7,10 L3,14 L3,18 L7,18 L7,24 L1,25 L1,21 L-7,21 L-6,23 L-3,24 L-3,28 L-8,28 L-9,25 L-13,24 L-13,18 L-9,16 L-6,13 L-1,13 L-2,5 Z " fill="#382412" transform="translate(13,22)"/>
<path d="M0,0 L8,0 L7,25 L4,25 L3,18 L2,22 L-3,23 L-6,21 L-6,3 L-1,4 L-1,7 L4,7 L4,3 L0,2 Z " fill="#584A39" transform="translate(6,43)"/>
<path d="M0,0 L28,0 L28,6 L27,8 L31,7 L30,11 L26,12 L23,9 L14,9 L9,11 L7,12 L8,5 L0,5 Z " fill="#57352C" transform="translate(20,0)"/>
<path d="M0,0 L5,1 L5,9 L11,11 L17,11 L17,14 L15,14 L15,16 L9,17 L8,13 L5,13 L5,25 L-4,23 L-3,26 L-13,26 L-13,18 L-5,19 L-4,14 L-3,14 L-3,22 L0,22 Z " fill="#453525" transform="translate(13,46)"/>
<path d="M0,0 L7,1 L14,1 L14,6 L15,9 L10,9 L9,7 L-6,7 L-8,9 L-12,9 L-12,5 L-22,6 L-26,7 L-27,3 L-25,1 L-10,1 Z " fill="#49332E" transform="translate(73,59)"/>
<path d="M0,0 L4,0 L4,7 L8,9 L12,11 L18,12 L18,15 L21,15 L21,19 L19,20 L7,20 L6,15 L8,15 L7,13 L2,13 L-5,10 L-4,6 L-1,1 Z " fill="#534131" transform="translate(22,45)"/>
<path d="M0,0 L5,0 L7,2 L6,6 L3,8 L3,6 L1,6 L-1,12 L-2,13 L6,14 L7,15 L7,20 L-4,20 L-7,11 L-10,10 L-11,7 L-14,7 L-14,3 L-9,3 L-9,6 L-2,2 Z " fill="#7F6B72" transform="translate(117,58)"/>
<path d="M0,0 L5,1 L7,4 L12,7 L11,15 L-2,16 L-2,21 L-5,22 L-6,15 L-6,13 L-3,13 L-2,2 L0,2 Z " fill="#503D32" transform="translate(124,15)"/>
<path d="M0,0 L5,0 L4,4 L8,6 L8,3 L15,2 L15,8 L9,8 L8,13 L1,14 L-6,12 L-7,6 L-6,3 Z " fill="#67656A" transform="translate(135,39)"/>
<path d="M0,0 L3,0 L4,6 L16,8 L14,11 L8,12 L4,11 L4,21 L1,21 L1,9 L-4,9 L-4,7 L-7,9 L-10,9 L-10,2 L-6,1 L-6,3 L0,2 Z " fill="#795B4D" transform="translate(84,6)"/>
<path d="M0,0 L9,2 L10,7 L9,13 L6,13 L7,17 L4,24 L1,25 L-2,24 L-2,22 L-4,22 L-4,18 L-7,18 L-7,15 L-2,13 L5,12 L6,10 L8,10 L6,6 L0,5 L-1,1 Z " fill="#7B6259" transform="translate(112,15)"/>
<path d="M0,0 L9,0 L9,23 L4,23 L3,17 L1,17 L2,5 L0,4 Z " fill="#04060A" transform="translate(141,12)"/>
<path d="M0,0 L4,1 L4,6 L5,7 L5,15 L8,15 L7,18 L-6,18 L-6,16 L-18,16 L-18,14 L-9,13 L-9,11 L0,13 L-1,9 L-1,1 Z " fill="#4F3C33" transform="translate(18,58)"/>
<path d="M0,0 L9,0 L18,1 L18,3 L22,4 L23,8 L0,8 Z " fill="#2F3943" transform="translate(0,77)"/>
<path d="M0,0 L8,1 L10,3 L10,7 L8,8 L9,10 L5,11 L3,17 L-2,19 L-6,19 L-7,15 L-2,13 L-1,2 Z " fill="#4D3E3B" transform="translate(41,21)"/>
<path d="M0,0 L25,0 L25,4 L18,5 L17,10 L10,11 L10,5 L3,5 L0,2 Z " fill="#4C3A39" transform="translate(125,0)"/>
<path d="M0,0 L6,1 L7,2 L7,14 L-9,14 L-7,13 L-7,9 L-3,8 Z " fill="#262329" transform="translate(33,71)"/>
<path d="M0,0 L6,0 L7,2 L14,2 L18,1 L19,6 L24,6 L24,8 L22,8 L22,15 L28,13 L28,15 L30,16 L28,21 L24,20 L24,17 L21,16 L21,8 L16,9 L10,7 L10,9 L6,9 L6,6 L8,6 L8,4 L2,5 Z M24,5 Z " fill="#655144" transform="translate(52,0)"/>
<path d="M0,0 L13,0 L14,4 L9,7 L6,8 L-6,8 L-7,4 Z " fill="#2F1E0D" transform="translate(58,35)"/>
<path d="M0,0 L4,2 L24,1 L24,4 L17,4 L17,6 L8,7 L7,4 L3,4 L2,15 L-1,15 L-3,14 L-2,4 Z " fill="#56351A" transform="translate(23,16)"/>
<path d="M0,0 L3,0 L2,4 L-4,8 L-5,10 L-12,11 L-16,15 L-21,14 L-19,13 L-18,7 L-12,4 L-12,6 L-8,6 L-7,2 Z " fill="#42281E" transform="translate(25,5)"/>
<path d="M0,0 L9,0 L13,1 L14,6 L15,10 L19,10 L19,13 L15,13 L14,9 L8,10 L5,9 L4,7 L0,7 L-1,1 Z " fill="#5F4C3E" transform="translate(67,65)"/>
<path d="M0,0 L13,0 L12,7 L7,7 L9,6 L8,1 L6,1 L6,3 L3,3 L3,6 L5,7 L4,10 L1,10 L1,12 L-6,12 L-8,8 L-7,6 L-11,5 L-5,5 L-1,7 L1,8 L-1,3 Z " fill="#4C3C35" transform="translate(87,60)"/>
<path d="M0,0 L7,2 L7,7 L15,8 L15,10 L-6,10 L-6,5 L-3,5 L-3,2 Z " fill="#494E51" transform="translate(46,75)"/>
<path d="M0,0 L14,0 L14,9 L9,10 L1,8 Z " fill="#404C50" transform="translate(111,0)"/>
<path d="M0,0 L7,1 L9,1 L9,3 L6,5 L5,9 L2,9 L1,19 L-3,19 L-4,14 L-4,12 L-2,11 L-3,10 L-3,2 Z " fill="#584736" transform="translate(29,21)"/>
<path d="M0,0 L5,0 L7,5 L7,8 L9,8 L9,13 L8,14 L3,14 L-2,7 L-2,1 Z " fill="#817176" transform="translate(128,6)"/>
<path d="M0,0 L6,0 L6,2 L8,2 L8,4 L14,4 L14,6 L10,10 L10,16 L9,17 L4,17 L4,7 L3,3 L0,3 Z " fill="#68503F" transform="translate(102,35)"/>
<path d="M0,0 L1,3 L5,3 L6,7 L3,7 L2,11 L-12,11 L-12,5 L-2,5 Z " fill="#39302D" transform="translate(127,74)"/>
<path d="M0,0 L1,3 L12,2 L11,10 L9,12 L-1,11 L0,16 L-4,17 L-5,12 L-8,11 L-6,1 L-4,3 L-4,6 L-2,7 L-4,7 L-3,9 L8,10 L7,5 L-1,4 L-2,2 L0,2 Z " fill="#464B48" transform="translate(116,68)"/>
<path d="M0,0 L14,0 L14,6 L16,6 L16,8 L14,8 L14,10 L12,10 L12,7 L4,7 L1,8 L1,6 L-1,5 Z " fill="#5D4545" transform="translate(86,0)"/>
<path d="M0,0 L3,0 L3,3 L13,4 L16,6 L21,5 L21,11 L5,11 L5,7 L7,5 L2,4 L2,1 Z " fill="#353739" transform="translate(91,74)"/>
<path d="M0,0 L7,0 L7,3 L10,3 L10,7 L8,8 L-4,8 L-5,3 L-3,3 L-3,1 Z " fill="#584541" transform="translate(33,57)"/>
<path d="M0,0 L1,3 L6,3 L6,9 L-1,10 L-1,13 L-4,14 L-6,10 L-4,10 L-4,5 L-6,5 L-6,2 L0,2 Z " fill="#393735" transform="translate(144,32)"/>
<path d="M0,0 L2,1 L1,6 L2,9 L10,9 L10,10 L0,11 L-4,9 L-5,12 L-8,12 L-8,9 L-16,10 L-14,7 L-7,7 L-5,3 Z " fill="#52362A" transform="translate(27,8)"/>
<path d="M0,0 L6,0 L6,4 L0,5 L-1,10 L-6,10 L-9,8 L-9,5 Z " fill="#534042" transform="translate(13,17)"/>
<path d="M0,0 L3,0 L4,9 L2,9 L2,7 L-1,9 L-4,9 L-4,7 L-7,9 L-10,9 L-10,2 L-6,1 L-6,3 L0,2 Z " fill="#66554D" transform="translate(84,6)"/>
<path d="M0,0 L5,0 L0,4 L-4,7 L-7,7 L-7,4 L-12,4 L-12,8 L-8,7 L-8,11 L-5,12 L-9,14 L-11,16 L-10,10 L-13,10 L-13,12 L-15,12 L-15,3 L-6,2 L-1,3 Z " fill="#695350" transform="translate(115,57)"/>
<path d="M0,0 L3,0 L5,3 L5,9 L13,10 L14,13 L4,13 L-1,10 L0,5 L-3,5 L-3,3 L0,3 Z " fill="#3F2932" transform="translate(105,0)"/>
<path d="M0,0 L12,0 L12,5 L5,6 L3,10 L0,10 Z " fill="#795F4E" transform="translate(0,30)"/>
<path d="M0,0 L9,2 L10,7 L9,13 L6,13 L7,17 L4,20 L4,15 L-2,14 L-2,13 L5,12 L6,10 L8,10 L6,6 L0,5 L-1,1 Z " fill="#685351" transform="translate(112,15)"/>
<path d="M0,0 L6,1 L6,2 L0,2 L0,7 L-2,9 L-3,13 L-5,13 L-4,17 L-10,17 L-11,26 L-12,28 L-16,27 L-15,24 L-11,20 L-13,20 L-13,15 L-7,14 L-6,11 L-4,11 L-3,6 L-1,6 L-1,1 Z " fill="#3B3D43" transform="translate(144,46)"/>
<path d="M0,0 L12,0 L12,2 L20,2 L20,4 L25,6 L24,11 L21,7 L18,6 L18,4 L9,4 L0,3 Z " fill="#423C41" transform="translate(0,74)"/>
<path d="M0,0 L4,2 L12,3 L13,4 L13,9 L2,9 L0,2 Z " fill="#686562" transform="translate(111,69)"/>
<path d="M0,0 L3,1 L1,1 L2,9 L7,10 L7,13 L5,13 L4,16 L0,17 L-1,20 L-2,14 L3,14 L3,10 L-2,9 L-2,7 L-14,6 L-14,5 L0,4 Z " fill="#453534" transform="translate(43,60)"/>
<path d="M0,0 L5,1 L6,5 L12,4 L12,6 L10,6 L10,9 L3,9 L3,7 L-1,8 Z " fill="#664E51" transform="translate(48,0)"/>
<path d="M0,0 L4,1 L2,7 L-1,7 L-1,9 L-9,9 L-8,2 L-6,2 L-5,5 L-2,2 L0,2 Z " fill="#333743" transform="translate(126,62)"/>
<path d="M0,0 L6,0 L8,1 L8,4 L12,3 L13,9 L11,9 L11,7 L3,6 L-1,5 L-2,1 Z " fill="#422C26" transform="translate(90,6)"/>
<path d="M0,0 L4,0 L4,6 L3,8 L7,7 L6,11 L2,12 L-1,9 L-10,8 L-10,7 L-1,5 Z " fill="#6A3E37" transform="translate(44,0)"/>
<path d="M0,0 L4,0 L4,3 L6,3 L7,7 L6,10 L-1,9 L-2,5 L-4,5 L-4,2 Z " fill="#442C1B" transform="translate(102,50)"/>
<path d="M0,0 L4,2 L3,4 L15,2 L15,6 L9,6 L3,9 L0,8 Z " fill="#2B2E37" transform="translate(75,76)"/>
<path d="M0,0 L5,0 L5,2 L1,2 L3,7 L2,9 L-6,9 L-7,6 L-6,3 Z " fill="#786B72" transform="translate(135,39)"/>
<path d="M0,0 L6,0 L6,4 L5,6 L8,6 L8,8 L10,8 L10,10 L3,9 L3,6 L-3,5 L-3,2 L0,2 Z " fill="#5A504A" transform="translate(91,68)"/>
<path d="M0,0 L1,0 L1,9 L-11,9 L-11,5 L-3,3 Z " fill="#272F36" transform="translate(149,76)"/>
<path d="M0,0 L2,4 L-1,8 L-7,9 L-7,7 L-14,6 L-13,3 L-8,1 L-7,3 L-2,3 Z M-9,5 Z " fill="#53403E" transform="translate(85,0)"/>
<path d="M0,0 L2,0 L3,5 L6,6 L6,1 L7,1 L7,8 L9,8 L9,6 L12,6 L11,12 L4,11 L4,8 L-2,7 L-3,2 L0,2 Z " fill="#574744" transform="translate(93,61)"/>
<path d="M0,0 L10,0 L10,3 L6,5 L5,10 L0,8 Z " fill="#6B504E" transform="translate(0,7)"/>
<path d="M0,0 L5,0 L2,10 L4,11 L1,11 L1,15 L-3,15 L-3,8 L0,8 Z " fill="#10151D" transform="translate(143,60)"/>
<path d="M0,0 L7,0 L7,5 L8,8 L3,8 L2,6 L-5,4 L-5,2 Z " fill="#40312C" transform="translate(80,60)"/>
<path d="M0,0 L3,1 L2,6 L0,8 L-12,8 L-12,6 L-5,6 L-5,2 Z " fill="#4C3B2A" transform="translate(75,47)"/>
<path d="M0,0 L12,0 L12,6 L0,5 Z " fill="#65585C" transform="translate(20,0)"/>
<path d="M0,0 L11,0 L11,4 L4,5 L3,9 L-1,8 Z " fill="#3F2D27" transform="translate(139,0)"/>
<path d="M0,0 L7,1 L7,3 L12,3 L14,8 L8,8 L8,6 L0,5 Z " fill="#363B3E" transform="translate(53,77)"/>
<path d="M0,0 L9,0 L9,8 L3,8 L2,5 L0,4 Z " fill="#1D2C3D" transform="translate(141,12)"/>
<path d="M0,0 L9,0 L12,2 L11,5 L1,6 L-1,5 Z " fill="#896354" transform="translate(31,10)"/>
<path d="M0,0 L1,4 L-3,5 L-3,9 L-6,9 L-6,13 L-8,13 L-9,18 L-11,17 L-11,12 L-8,8 L-6,8 L-6,2 L-3,2 L0,3 Z " fill="#4C323C" transform="translate(122,33)"/>
<path d="M0,0 L7,2 L10,3 L10,6 L-9,5 L-9,3 L0,2 Z " fill="#5F4A43" transform="translate(9,69)"/>
<path d="M0,0 L4,0 L4,3 L2,3 L1,7 L-5,7 L-5,12 L-3,12 L-5,16 L-7,16 L-8,19 L-8,16 L-11,15 L-8,15 L-7,9 L-9,7 L-1,4 L1,2 Z " fill="#3F4249" transform="translate(136,54)"/>
<path d="M0,0 L10,0 L12,1 L11,4 L3,5 L-1,6 L-2,2 Z " fill="#342629" transform="translate(48,60)"/>
<path d="M0,0 L2,0 L2,2 L6,3 L7,7 L-4,7 L-3,2 Z " fill="#455D6C" transform="translate(16,78)"/>
<path d="M0,0 L6,0 L8,1 L8,4 L2,4 L3,10 L0,10 L0,15 L-2,15 L-3,8 L1,7 L-1,1 Z " fill="#704E4C" transform="translate(122,30)"/>
<path d="M0,0 L4,1 L9,0 L9,3 L7,3 L8,7 L7,8 L0,8 Z " fill="#413727" transform="translate(0,64)"/>
<path d="M0,0 L10,0 L10,2 L6,3 L-2,2 L-1,4 L2,5 L2,9 L-3,9 L-4,6 L-8,4 L-3,4 L-3,1 Z " fill="#4A3725" transform="translate(8,41)"/>
<path d="M0,0 L7,1 L6,5 L-5,6 L-6,3 Z " fill="#190A01" transform="translate(60,36)"/>
<path d="M0,0 L4,2 L2,2 L2,6 L4,6 L4,8 L12,8 L11,12 L6,13 L3,12 L2,9 L0,7 Z " fill="#474044" transform="translate(106,14)"/>
<path d="M0,0 L2,0 L3,2 L3,8 L0,9 L-8,7 L-7,4 L-1,3 Z " fill="#726B73" transform="translate(120,1)"/>
<path d="M0,0 L3,0 L1,13 L-5,13 L-5,9 L-3,8 L-2,4 L0,4 Z " fill="#3E2020" transform="translate(116,42)"/>
<path d="M0,0 L4,1 L1,1 L1,13 L2,17 L0,17 L-2,13 L-6,14 L-5,17 L-8,17 L-8,13 L-6,13 L-5,9 L-3,8 L-3,10 L0,10 Z " fill="#5F4738" transform="translate(88,17)"/>
<path d="M0,0 L3,0 L3,2 L8,1 L9,6 L13,5 L13,8 L8,9 L8,11 L3,11 L2,9 L8,8 L7,4 L2,3 L1,6 L-2,3 Z " fill="#503E32" transform="translate(58,66)"/>
<path d="M0,0 L3,0 L3,11 L1,11 L0,14 L-4,14 L-3,8 L-2,6 L1,6 Z " fill="#7E6F79" transform="translate(124,34)"/>
<path d="M0,0 L1,2 L6,2 L6,5 L8,5 L8,7 L2,8 L0,7 L-5,6 Z " fill="#6C5151" transform="translate(132,32)"/>
<path d="M0,0 L3,0 L3,6 L-3,6 L-4,11 L-6,10 L-7,5 L-4,4 L-4,1 Z " fill="#4F5D59" transform="translate(147,41)"/>
<path d="M0,0 L2,0 L2,3 L4,3 L4,8 L-7,8 L-7,4 L-3,5 L0,4 Z " fill="#4E4645" transform="translate(140,26)"/>
<path d="M0,0 L5,0 L5,2 L-3,6 L-5,8 L-11,9 L-10,5 L-6,3 L-2,3 L-2,1 Z " fill="#432A21" transform="translate(107,26)"/>
<path d="M0,0 L2,1 L2,5 L8,5 L10,7 L10,10 L8,10 L7,13 L2,13 L3,11 L7,11 L8,7 L0,7 L0,5 L-2,5 L-2,1 Z " fill="#55494E" transform="translate(110,15)"/>
<path d="M0,0 L3,2 L8,3 L8,10 L3,10 L2,4 L0,4 Z " fill="#232226" transform="translate(142,25)"/>
<path d="M0,0 L6,1 L5,7 L-4,7 L-3,3 Z " fill="#43545A" transform="translate(133,78)"/>
<path d="M0,0 L2,0 L2,6 L0,6 L0,10 L-4,12 L-5,7 L-4,2 L-1,2 Z " fill="#545C63" transform="translate(140,20)"/>
<path d="M0,0 L4,1 L4,11 L1,11 L-1,10 Z " fill="#33210D" transform="translate(21,20)"/>
<path d="M0,0 L2,0 L2,8 L6,9 L6,12 L9,14 L7,17 L2,17 L2,12 L4,9 L1,9 Z M9,11 Z " fill="#5C4334" transform="translate(71,8)"/>
<path d="M0,0 L2,1 L3,9 L0,12 L-5,12 L-6,8 L-1,6 Z " fill="#564844" transform="translate(40,28)"/>
<path d="M0,0 L3,2 L4,10 L6,12 L6,15 L3,15 L0,12 Z " fill="#5C4E4E" transform="translate(103,11)"/>
<path d="M0,0 L7,0 L7,6 L-1,6 L-1,1 Z " fill="#533F38" transform="translate(143,4)"/>
<path d="M0,0 L6,0 L9,3 L8,6 L0,6 Z " fill="#3D3328" transform="translate(0,0)"/>
<path d="M0,0 L4,1 L4,4 L6,4 L5,10 L3,10 L3,4 L1,5 L-1,9 L-3,9 L-2,3 Z " fill="#1A181D" transform="translate(34,74)"/>
<path d="M0,0 L5,0 L5,9 L1,9 L-2,5 Z " fill="#0B0B0E" transform="translate(145,50)"/>
<path d="M0,0 L10,0 L10,1 L1,1 L1,5 L4,6 L3,14 L2,14 L2,9 L0,9 L-1,13 L-2,4 Z " fill="#303844" transform="translate(140,11)"/>
<path d="M0,0 L1,0 L1,7 L-7,8 L-7,2 Z " fill="#483624" transform="translate(71,9)"/>
<path d="M0,0 L8,0 L8,6 L10,6 L10,8 L8,8 L8,10 L6,10 L6,7 L4,7 L4,4 Z " fill="#644C41" transform="translate(92,0)"/>
<path d="M0,0 L3,0 L3,2 L5,2 L5,4 L7,4 L7,6 L-5,6 L-5,4 Z " fill="#322722" transform="translate(53,71)"/>
<path d="M0,0 L5,1 L3,10 L-2,11 L-2,9 L0,8 L-1,3 Z " fill="#675442" transform="translate(27,24)"/>
<path d="M0,0 L8,0 L8,6 L0,6 Z " fill="#3B3938" transform="translate(115,79)"/>
<path d="M0,0 L4,3 L4,5 L-2,5 L-2,10 L-6,10 L-6,5 L-3,5 L-3,2 Z " fill="#696766" transform="translate(46,75)"/>
<path d="M0,0 L12,1 L11,3 L7,4 L3,8 L1,8 L0,3 L3,2 Z " fill="#554B4E" transform="translate(129,51)"/>
<path d="M0,0 L2,1 L1,5 L5,5 L6,13 L2,15 L2,13 L4,13 L3,10 L-1,9 L-2,1 Z " fill="#403432" transform="translate(46,60)"/>
<path d="M0,0 L5,1 L5,4 L8,5 L8,7 L0,7 Z " fill="#63503E" transform="translate(0,46)"/>
<path d="M0,0 L6,0 L6,5 L-2,6 L-1,1 Z " fill="#5D4C3B" transform="translate(72,42)"/>
<path d="M0,0 L6,1 L4,4 L2,4 L3,10 L8,11 L4,13 L0,11 Z " fill="#51402F" transform="translate(0,53)"/>
<path d="M0,0 L7,0 L8,2 L3,5 L1,7 L-4,6 L-2,5 L-2,3 L0,3 Z " fill="#341D14" transform="translate(8,13)"/>
<path d="M0,0 L1,0 L1,5 L7,5 L11,6 L17,5 L17,7 L8,8 L0,8 L-2,2 Z " fill="#6A4836" transform="translate(29,10)"/>
<path d="M0,0 L4,1 L4,6 L8,7 L7,8 L1,8 L-1,5 Z " fill="#493B40" transform="translate(125,46)"/>
<path d="M0,0 L5,1 L4,9 L0,8 Z " fill="#262E38" transform="translate(131,21)"/>
<path d="M0,0 L2,1 L1,8 L-1,10 L-3,9 L-4,2 Z " fill="#2C1B09" transform="translate(127,17)"/>
<path d="M0,0 L3,3 L2,5 L-1,4 L-1,6 L-4,7 L-13,4 L-9,2 L-1,3 Z " fill="#555A5E" transform="translate(125,11)"/>
<path d="M0,0 L8,1 L10,4 L-6,4 L-2,1 Z " fill="#3E3F48" transform="translate(84,81)"/>
<path d="M0,0 L1,0 L1,13 L-4,13 L-5,15 L-5,11 L-3,10 Z " fill="#40494F" transform="translate(149,60)"/>
<path d="M0,0 L6,0 L6,9 L0,13 L2,9 L3,5 L0,3 Z " fill="#555155" transform="translate(120,55)"/>
<path d="M0,0 L3,2 L1,5 L5,5 L5,7 L-1,9 L-1,7 L-3,7 L-4,3 L0,3 Z " fill="#734C40" transform="translate(92,47)"/>
<path d="M0,0 L1,3 L-1,5 L-5,5 L-4,9 L0,10 L-7,10 L-9,9 L-8,6 L-6,4 L-3,4 L-2,1 Z " fill="#4D4037" transform="translate(39,31)"/>
<path d="M0,0 L3,1 L3,7 L-2,8 L-3,5 L-2,1 Z " fill="#2D1B0A" transform="translate(16,22)"/>
<path d="M0,0 L4,0 L6,5 L14,5 L14,6 L4,7 L-1,3 Z " fill="#603722" transform="translate(23,12)"/>
<path d="M0,0 L5,0 L4,4 L-8,4 L-8,1 L0,2 Z " fill="#949BA1" transform="translate(145,73)"/>
<path d="M0,0 L4,2 L12,3 L13,5 L7,6 L7,4 L3,4 L2,6 L-1,4 Z " fill="#552A12" transform="translate(23,16)"/>
<path d="M0,0 L5,1 L5,4 L3,4 L2,7 L-2,8 L-3,11 L-4,5 L1,5 Z " fill="#494141" transform="translate(45,69)"/>
<path d="M0,0 L8,0 L8,4 L0,4 L-2,3 L-2,1 Z " fill="#6D5453" transform="translate(32,60)"/>
<path d="M0,0 L10,0 L12,5 L9,5 L6,3 L-4,3 L-4,1 Z " fill="#775247" transform="translate(34,8)"/>
<path d="M0,0 L4,1 L2,7 L-3,7 L-3,2 Z " fill="#526168" transform="translate(3,78)"/>
<path d="M0,0 L1,3 L12,2 L12,6 L10,6 L9,9 L7,5 L-1,4 L-2,2 L0,2 Z " fill="#545559" transform="translate(116,68)"/>
<path d="M0,0 L2,2 L0,9 L-5,10 L-7,10 L-8,7 L-6,6 L-1,7 L-2,3 L0,3 Z " fill="#2D2F37" transform="translate(141,56)"/>
<path d="M0,0 L1,0 L1,5 L-6,6 L-8,10 L-11,10 L-11,7 L-4,3 L0,2 Z " fill="#6C4934" transform="translate(11,30)"/>
<path d="M0,0 L6,1 L8,2 L8,5 L0,5 L-1,1 Z " fill="#6E7279" transform="translate(112,15)"/>
<path d="M0,0 L9,0 L10,7 L5,7 L4,3 Z " fill="#655F52" transform="translate(6,0)"/>
<path d="M0,0 L12,0 L10,4 L5,4 L3,2 L0,3 Z " fill="#5B4649" transform="translate(73,0)"/>
<path d="M0,0 L5,0 L5,2 L1,6 L1,12 L0,13 L-5,13 L-1,12 L-1,1 Z " fill="#634444" transform="translate(111,39)"/>
<path d="M0,0 L5,0 L5,5 L-3,5 L-2,1 Z " fill="#565F5C" transform="translate(145,35)"/>
<path d="M0,0 L5,1 L5,7 L2,8 L0,7 Z " fill="#9B8073" transform="translate(110,29)"/>
<path d="M0,0 L4,2 L4,6 L-3,6 L-3,1 L0,2 Z " fill="#57453B" transform="translate(47,22)"/>
<path d="M0,0 L3,0 L5,3 L5,6 L1,8 L0,6 L-3,5 L-3,3 L0,3 Z " fill="#22232A" transform="translate(105,0)"/>
<path d="M0,0 L5,0 L5,5 L2,7 L-2,6 L0,5 Z " fill="#65372C" transform="translate(39,0)"/>
<path d="M0,0 L10,0 L6,4 L0,4 L-1,1 Z " fill="#4E525C" transform="translate(138,77)"/>
<path d="M0,0 L5,0 L7,7 L3,6 L-1,4 Z " fill="#403C3B" transform="translate(103,74)"/>
<path d="M0,0 L2,2 L1,10 L0,8 L-2,8 L-4,2 Z " fill="#6D5A49" transform="translate(86,29)"/>
<path d="M0,0 L3,1 L3,9 L6,9 L5,12 L0,12 L1,2 Z " fill="#4C3734" transform="translate(20,64)"/>
<path d="M0,0 L5,2 L5,5 L-5,5 L-2,2 L0,2 Z " fill="#5D463E" transform="translate(52,54)"/>
<path d="M0,0 L11,1 L11,3 L-2,3 Z " fill="#48626A" transform="translate(50,82)"/>
<path d="M0,0 L1,0 L1,8 L7,9 L6,11 L0,9 L1,12 L-2,11 L-2,7 L0,7 L-1,1 Z " fill="#4A3D2C" transform="translate(9,60)"/>
<path d="M0,0 L3,0 L3,8 L-1,8 L-1,1 Z " fill="#69584C" transform="translate(107,43)"/>
<path d="M0,0 L6,1 L6,2 L-1,4 L-6,6 L-5,10 L-8,9 L-8,5 L-2,2 L0,2 Z " fill="#3B2715" transform="translate(57,33)"/>
<path d="M0,0 L4,2 L3,6 L0,8 L0,6 L-2,6 L-3,8 L-2,4 L0,4 Z " fill="#716C74" transform="translate(120,58)"/>
<path d="M0,0 L1,0 L3,9 L-3,8 L-3,2 Z " fill="#341D0B" transform="translate(104,51)"/>
<path d="M0,0 L4,0 L5,5 L3,5 L3,3 L0,5 L-3,5 L-4,1 Z " fill="#9A7D71" transform="translate(83,10)"/>
<path d="M0,0 L6,0 L7,7 L4,7 L4,3 L0,3 Z " fill="#A4979F" transform="translate(126,7)"/>
<path d="M0,0 L6,0 L8,1 L7,5 L7,2 L3,3 L2,5 L-1,5 L-2,1 Z " fill="#4A302B" transform="translate(90,6)"/>
<path d="M0,0 L3,2 L10,3 L11,6 L9,9 L8,5 L1,5 L1,8 L-1,7 Z " fill="#57424B" transform="translate(125,2)"/>
<path d="M0,0 L2,1 L2,6 L-4,6 L-4,2 Z " fill="#262227" transform="translate(100,79)"/>
<path d="M0,0 L3,0 L1,10 L-7,10 L-7,9 L0,9 L0,6 L-3,5 L-1,4 Z " fill="#5C4743" transform="translate(19,66)"/>
<path d="M0,0 L2,0 L5,5 L6,7 L-1,7 Z " fill="#474146" transform="translate(118,64)"/>
<path d="M0,0 L5,0 L3,6 L2,8 L0,8 Z " fill="#151317" transform="translate(143,60)"/>
<path d="M0,0 L8,0 L7,4 L0,3 Z " fill="#6D5760" transform="translate(4,22)"/>
<path d="M0,0 L7,1 L9,1 L9,3 L4,5 L-2,3 L-3,6 L-2,1 Z " fill="#5A3F2C" transform="translate(29,21)"/>
<path d="M0,0 L4,0 L6,8 L8,10 L4,9 L0,3 Z " fill="#7B6F5F" transform="translate(126,10)"/>
<path d="M0,0 L8,1 L6,4 L0,5 L-3,3 L0,2 Z " fill="#674E3D" transform="translate(92,13)"/>
<path d="M0,0 L5,0 L5,3 L2,3 L2,5 L5,5 L4,9 L3,6 L0,6 Z " fill="#3C3B41" transform="translate(100,0)"/>
<path d="M0,0 L1,2 L-1,7 L-7,7 L-5,6 L-5,2 Z " fill="#2B2316" transform="translate(31,78)"/>
<path d="M0,0 L9,0 L10,4 L5,6 L6,2 L0,3 Z " fill="#494B51" transform="translate(0,77)"/>
<path d="M0,0 L5,0 L6,5 L0,5 Z " fill="#5B4938" transform="translate(60,69)"/>
<path d="M0,0 L1,0 L2,9 L-3,11 L-5,12 L-4,5 L0,6 Z " fill="#5B3B36" transform="translate(32,0)"/>
<path d="M0,0 L1,0 L1,7 L-5,7 L-3,3 Z " fill="#06080C" transform="translate(149,78)"/>
<path d="M0,0 L12,0 L8,2 L7,3 L0,3 Z " fill="#4C373C" transform="translate(0,74)"/>
<path d="M0,0 L8,1 L8,4 L-1,4 Z " fill="#5F4D3C" transform="translate(18,51)"/>
<path d="M0,0 L3,0 L1,13 L-1,12 L0,6 L-2,7 L-2,4 L0,4 Z " fill="#3E2631" transform="translate(116,42)"/>
<path d="M0,0 L2,3 L2,5 L-1,5 L-1,10 L-3,10 L-4,3 L0,2 Z " fill="#6B575E" transform="translate(123,35)"/>
<path d="M0,0 L6,0 L6,4 L-1,4 Z " fill="#5D4742" transform="translate(13,17)"/>
<path d="M0,0 L4,0 L4,2 L2,2 L2,5 L-4,5 L-4,2 Z " fill="#706652" transform="translate(56,4)"/>
<path d="M0,0 L5,0 L10,5 L0,3 Z " fill="#6A5454" transform="translate(87,0)"/>
<path d="M0,0 L2,0 L2,2 L4,2 L2,6 L0,6 L-1,9 L-1,6 L-4,5 L-1,5 Z " fill="#474952" transform="translate(129,64)"/>
<path d="M0,0 L10,0 L7,2 L3,2 L3,5 L0,6 L-2,2 L0,2 Z " fill="#394341" transform="translate(140,40)"/>
<path d="M0,0 L2,2 L2,5 L4,6 L2,6 L3,9 L0,9 L-1,11 L-1,7 Z " fill="#565A56" transform="translate(110,69)"/>
<path d="M0,0 L7,1 L7,4 L0,4 Z " fill="#685547" transform="translate(12,71)"/>
<path d="M0,0 L3,0 L3,8 L1,8 L0,5 L-2,4 Z " fill="#474948" transform="translate(107,69)"/>
<path d="M0,0 L2,1 L0,6 L-6,4 L-3,1 Z " fill="#756660" transform="translate(96,68)"/>
<path d="M0,0 L11,0 L10,3 L9,1 L3,3 L0,4 L0,2 L-2,1 Z " fill="#643C39" transform="translate(89,40)"/>
<path d="M0,0 L6,0 L6,3 L0,2 L0,6 L4,7 L0,8 L-1,7 L-1,1 Z " fill="#0B131E" transform="translate(144,20)"/>
<path d="M0,0 L5,0 L5,9 L2,9 L2,1 Z " fill="#725D64" transform="translate(120,0)"/>
<path d="M0,0 L7,0 L7,4 L2,4 Z " fill="#1C0E09" transform="translate(143,0)"/>
<path d="M0,0 L7,0 L7,4 L2,4 Z " fill="#2E110C" transform="translate(125,0)"/>
<path d="M0,0 L3,0 L4,8 L10,8 L10,9 L2,9 Z " fill="#45454D" transform="translate(108,0)"/>
<path d="M0,0 L8,0 L8,3 L0,3 Z " fill="#351F1B" transform="translate(65,62)"/>
<path d="M0,0 L3,1 L-1,5 L-9,7 L-9,3 L-3,3 Z " fill="#4A484E" transform="translate(135,55)"/>
<path d="M0,0 L1,0 L1,12 L-1,14 L-4,13 L-2,13 L-1,2 Z " fill="#523643" transform="translate(119,42)"/>
<path d="M0,0 L2,0 L2,5 L-4,6 L-4,2 L0,2 Z " fill="#5C4736" transform="translate(104,45)"/>
<path d="M0,0 L3,0 L3,6 L-1,5 L-2,1 Z " fill="#7D8D90" transform="translate(147,41)"/>
<path d="M0,0 L2,1 L2,5 L8,5 L8,6 L0,6 L-2,5 L-2,1 Z " fill="#53585D" transform="translate(110,15)"/>
<path d="M0,0 L3,0 L3,8 L0,8 Z " fill="#482A1E" transform="translate(82,15)"/>
<path d="M0,0 L2,0 L3,2 L3,8 L0,9 Z " fill="#988E97" transform="translate(120,1)"/>
<path d="M0,0 L7,0 L8,3 L-1,3 Z " fill="#6798B1" transform="translate(14,82)"/>
<path d="M0,0 L8,0 L8,3 L1,3 Z " fill="#63503F" transform="translate(6,43)"/>
<path d="M0,0 L5,0 L4,4 L2,5 L-1,4 Z " fill="#734845" transform="translate(93,41)"/>
<path d="M0,0 L1,4 L-3,5 L-4,9 L-6,6 L-5,1 L0,3 Z " fill="#5A3D3C" transform="translate(122,33)"/>
<path d="M0,0 L2,1 L2,3 L4,2 L10,2 L11,4 L1,5 Z " fill="#5B433E" transform="translate(0,26)"/>
<path d="M0,0 L2,1 L1,6 L3,6 L4,12 L2,12 L0,9 Z " fill="#342229" transform="translate(0,17)"/>
<path d="M0,0 L7,0 L7,3 L2,4 L-1,2 Z " fill="#43373C" transform="translate(110,23)"/>
<path d="M0,0 L6,2 L5,4 L7,6 L2,5 L3,8 L1,8 L1,3 Z " fill="#3C2C33" transform="translate(0,15)"/>
<path d="M0,0 L5,0 L5,4 L0,5 Z " fill="#735B56" transform="translate(0,7)"/>
<path d="M0,0 L5,0 L5,4 L-1,4 Z " fill="#383026" transform="translate(15,0)"/>
<path d="M0,0 L7,2 L7,4 L0,5 Z " fill="#1E130B" transform="translate(0,0)"/>
<path d="M0,0 L4,1 L7,0 L7,4 L1,4 Z " fill="#7D7672" transform="translate(115,73)"/>
<path d="M0,0 L1,3 L3,3 L5,1 L5,6 L-1,6 Z " fill="#5B4A3A" transform="translate(83,34)"/>
<path d="M0,0 L2,0 L3,3 L1,3 L1,5 L-7,7 L-5,4 L-1,2 Z " fill="#4A3625" transform="translate(104,24)"/>
<path d="M0,0 L8,0 L8,3 L2,3 L0,2 Z " fill="#968790" transform="translate(22,0)"/>
<path d="M0,0 L4,1 L3,4 L-4,4 L-4,2 Z " fill="#352715" transform="translate(4,68)"/>
<path d="M0,0 L7,0 L3,2 L3,4 L6,7 L0,5 Z " fill="#402D1E" transform="translate(31,42)"/>
<path d="M0,0 L3,0 L3,2 L6,3 L6,6 L3,6 L0,3 Z " fill="#66564C" transform="translate(103,20)"/>
<path d="M0,0 L13,0 L13,1 L3,1 L2,4 L-1,1 Z " fill="#46404B" transform="translate(137,10)"/>
<path d="M0,0 L4,2 L4,5 L-4,5 L0,4 Z " fill="#513028" transform="translate(132,0)"/>
<path d="M0,0 L8,0 L8,3 L2,3 Z " fill="#573F3F" transform="translate(92,0)"/>
<path d="M0,0 L8,1 L8,3 L1,3 L-1,1 Z " fill="#3A2B32" transform="translate(8,75)"/>
<path d="M0,0 L7,0 L8,2 L0,3 Z " fill="#24181A" transform="translate(50,61)"/>
<path d="M0,0 L5,0 L4,4 L0,5 Z " fill="#64545B" transform="translate(119,48)"/>
<path d="M0,0 L1,2 L6,2 L5,5 L2,6 L-1,2 Z " fill="#775555" transform="translate(132,32)"/>
<path d="M0,0 L5,0 L3,5 L-1,6 L-1,4 L2,4 Z " fill="#876861" transform="translate(128,30)"/>
<path d="M0,0 L2,2 L-1,4 L-8,5 L-10,3 L-1,1 Z " fill="#6A5440" transform="translate(46,12)"/>
<path d="M0,0 L4,1 L5,3 L2,5 L-1,5 Z " fill="#756B5F" transform="translate(75,10)"/>
<path d="M0,0 L4,4 L6,6 L1,7 L0,3 L-2,2 L0,2 Z " fill="#553B41" transform="translate(102,6)"/>
<path d="M0,0 L7,0 L7,3 L0,3 Z " fill="#1A202A" transform="translate(104,82)"/>
<path d="M0,0 L3,1 L4,5 L1,5 L0,3 L-3,4 L-3,2 Z " fill="#3C2B28" transform="translate(69,73)"/>
<path d="M0,0 L4,1 L1,9 L-1,11 L0,6 L2,1 Z " fill="#323439" transform="translate(146,59)"/>
<path d="M0,0 L3,0 L3,5 L-1,5 L-2,2 L0,2 Z " fill="#111116" transform="translate(147,54)"/>
<path d="M0,0 L4,0 L3,4 L2,6 L0,6 Z " fill="#211D1E" transform="translate(131,21)"/>
<path d="M0,0 L10,1 L7,3 L2,4 L2,1 Z " fill="#493834" transform="translate(15,4)"/>
<path d="M0,0 L6,0 L3,3 L1,7 Z " fill="#36414E" transform="translate(10,78)"/>
<path d="M0,0 L4,3 L4,5 L-2,4 Z " fill="#57585B" transform="translate(46,75)"/>
<path d="M0,0 L2,0 L2,5 L-1,4 L-2,7 L-2,1 Z " fill="#4C515A" transform="translate(138,70)"/>
<path d="M0,0 L3,0 L2,3 L-2,2 Z M-3,3 L-2,6 L-5,6 L-5,4 Z " fill="#392C2A" transform="translate(53,71)"/>
<path d="M0,0 L2,1 L1,10 L-1,9 L-2,3 L0,3 Z " fill="#6F6258" transform="translate(120,17)"/>
<path d="M0,0 L2,1 L-2,5 L-7,4 L-4,2 Z " fill="#322427" transform="translate(11,15)"/>
<path d="M0,0 L3,3 L2,5 L-1,4 L-2,6 L-5,4 L-1,3 Z " fill="#5A5348" transform="translate(125,11)"/>
<path d="M0,0 L9,2 L8,4 L3,4 Z " fill="#584736" transform="translate(62,7)"/>
<path d="M0,0 L2,0 L2,7 L-1,8 Z " fill="#714949" transform="translate(48,0)"/>
<path d="M0,0 L4,2 L4,5 L0,5 Z " fill="#79A2AF" transform="translate(0,80)"/>
<path d="M0,0 L3,0 L3,4 L-1,7 Z " fill="#8C7984" transform="translate(117,58)"/>
<path d="M0,0 L5,0 L3,4 L0,4 Z " fill="#866965" transform="translate(103,61)"/>
<path d="M0,0 L6,0 L7,2 L1,3 Z " fill="#7A6863" transform="translate(32,60)"/>
<path d="M0,0 L3,0 L2,5 L-1,5 Z " fill="#60513D" transform="translate(5,58)"/>
<path d="M0,0 L9,1 L5,3 L0,2 Z " fill="#65575F" transform="translate(129,49)"/>
<path d="M0,0 L5,0 L5,4 L0,3 Z " fill="#634434" transform="translate(102,35)"/>
<path d="M0,0 L7,0 L7,1 L0,3 L-4,4 Z " fill="#291706" transform="translate(58,35)"/>
<path d="M0,0 L6,0 L2,2 L1,7 L-1,5 Z " fill="#433A36" transform="translate(44,30)"/>
<path d="M0,0 L1,2 L5,1 L6,5 L-1,4 Z " fill="#402D1E" transform="translate(123,24)"/>
<path d="M0,0 L5,0 L5,3 L-1,3 Z " fill="#432E1B" transform="translate(42,17)"/>
<path d="M0,0 L7,2 L7,4 L2,3 L0,2 Z " fill="#32212C" transform="translate(112,9)"/>
<path d="M0,0 L3,0 L3,3 L-1,5 L-5,4 L-1,2 Z " fill="#75605A" transform="translate(84,6)"/>
<path d="M0,0 L5,0 L3,4 L0,4 Z " fill="#607479" transform="translate(111,0)"/>
<path d="M0,0 L1,3 L5,3 L6,7 L3,7 L0,4 Z " fill="#282F33" transform="translate(127,74)"/>
<path d="M0,0 L2,0 L2,2 L6,3 L-2,4 Z " fill="#35363C" transform="translate(80,76)"/>
<path d="M0,0 L4,2 L1,7 L0,7 Z " fill="#332C30" transform="translate(75,76)"/>
<path d="M0,0 L4,0 L4,4 L1,5 Z " fill="#482724" transform="translate(118,32)"/>
<path d="M0,0 L4,2 L3,6 L1,6 Z " fill="#AD9591" transform="translate(110,29)"/>
<path d="M0,0 L1,2 L4,2 L4,4 L-3,4 Z " fill="#523624" transform="translate(104,31)"/>
<path d="M0,0 L2,0 L1,8 L0,8 L-1,3 L-3,1 Z " fill="#452F1F" transform="translate(19,20)"/>
<path d="M0,0 L8,0 L6,2 L0,3 Z " fill="#121925" transform="translate(142,12)"/>
<path d="M0,0 L7,0 L7,3 L0,2 Z " fill="#3C2A17" transform="translate(65,12)"/>
<path d="M0,0 L5,0 L6,3 L1,3 Z " fill="#A8867D" transform="translate(31,10)"/>
<path d="M0,0 L5,0 L5,3 L1,4 Z " fill="#614C44" transform="translate(5,7)"/>
<path d="M0,0 L2,1 L1,5 L-3,4 L-2,1 Z " fill="#463430" transform="translate(141,4)"/>
<path d="M0,0 L3,0 L3,5 L0,5 Z " fill="#413D34" transform="translate(44,80)"/>
<path d="M0,0 L5,0 L5,3 L0,3 Z " fill="#9A8A91" transform="translate(110,65)"/>
<path d="M0,0 L2,1 L0,5 L-3,5 L-3,1 Z " fill="#542D30" transform="translate(113,55)"/>
<path d="M0,0 L4,1 L3,5 L0,5 Z " fill="#5D3128" transform="translate(94,46)"/>
<path d="M0,0 L2,0 L2,3 L4,3 L3,5 L-2,5 L0,4 Z " fill="#363A3E" transform="translate(140,26)"/>
<path d="M0,0 L4,1 L4,5 L1,5 Z " fill="#2F2A30" transform="translate(146,28)"/>
<path d="M0,0 L1,0 L1,7 L-2,7 Z " fill="#251403" transform="translate(23,22)"/>
<path d="M0,0 L5,1 L4,3 L-1,4 Z " fill="#403824" transform="translate(124,15)"/>
<path d="M0,0 L4,0 L5,3 L-1,3 Z " fill="#603D31" transform="translate(23,12)"/>
<path d="M0,0 L1,4 L-5,4 L-2,1 Z " fill="#604B41" transform="translate(149,6)"/>
<path d="M0,0 L2,0 L2,3 L0,3 L-1,5 L-3,4 L-3,2 Z " fill="#6B5948" transform="translate(76,70)"/>
<path d="M0,0 L2,0 L2,6 L-2,3 Z " fill="#463A35" transform="translate(58,66)"/>
<path d="M0,0 L5,0 L0,4 L-3,4 Z " fill="#70565D" transform="translate(115,57)"/>
<path d="M0,0 L5,0 L4,3 L-1,3 Z " fill="#57373A" transform="translate(93,37)"/>
<path d="M0,0 L1,0 L1,6 L-4,7 Z " fill="#5E554E" transform="translate(40,31)"/>
<path d="M0,0 L5,0 L4,3 L0,3 Z " fill="#604E4D" transform="translate(45,25)"/>
<path d="M0,0 L4,0 L4,3 L-1,3 Z " fill="#655150" transform="translate(79,1)"/>
<path d="M0,0 L3,1 L2,6 L0,5 Z " fill="#38423E" transform="translate(115,79)"/>
<path d="M0,0 L2,0 L3,5 L0,6 Z " fill="#49514A" transform="translate(113,79)"/>
<path d="M0,0 L3,1 L3,5 L0,5 Z " fill="#374249" transform="translate(53,77)"/>
<path d="M0,0 L6,1 L5,3 L0,3 Z " fill="#7E858E" transform="translate(137,74)"/>
<path d="M0,0 L2,1 L0,5 L-2,5 L-2,1 Z " fill="#040407" transform="translate(146,61)"/>
<path d="M0,0 L3,1 L3,3 L-2,3 L-3,1 Z " fill="#504648" transform="translate(123,51)"/>
<path d="M0,0 L3,0 L3,3 L-3,2 Z " fill="#58372B" transform="translate(88,47)"/>
<path d="M0,0 L0,3 L-4,4 L-4,1 Z " fill="#6A4E40" transform="translate(109,29)"/>
<path d="M0,0 L1,3 L3,4 L0,5 L-1,7 L-2,4 Z " fill="#4F3F2C" transform="translate(25,28)"/>
<path d="M0,0 L6,0 L5,2 L0,3 Z " fill="#3F2314" transform="translate(99,30)"/>
<path d="M0,0 L5,0 L4,3 L0,3 Z " fill="#1D1004" transform="translate(123,19)"/>
<path d="M0,0 L4,1 L4,4 L0,3 Z " fill="#A4948F" transform="translate(132,16)"/>
<path d="M0,0 L5,2 L4,5 L2,5 Z " fill="#7E6452" transform="translate(38,10)"/>
<path d="M0,0 L4,2 L4,4 L-2,4 L1,3 Z " fill="#947568" transform="translate(36,10)"/>
<path d="M0,0 L4,0 L4,5 L2,5 Z " fill="#664635" transform="translate(134,0)"/>
<path d="M0,0 L3,0 L3,4 L0,4 Z " fill="#80A1AB" transform="translate(134,81)"/>
<path d="M0,0 L3,0 L3,4 L0,4 Z " fill="#1B1A1E" transform="translate(99,81)"/>
<path d="M0,0 L3,1 L2,6 L0,3 Z " fill="#363838" transform="translate(22,79)"/>
<path d="M0,0 L4,0 L4,3 L0,3 Z " fill="#747376" transform="translate(82,75)"/>
<path d="M0,0 L4,3 L4,5 L0,5 Z " fill="#202A33" transform="translate(140,70)"/>
<path d="M0,0 L3,1 L1,1 L2,6 L-1,6 Z " fill="#4A3E3B" transform="translate(43,60)"/>
<path d="M0,0 L4,1 L1,3 L-2,3 L-2,1 Z " fill="#6D6F74" transform="translate(138,50)"/>
<path d="M0,0 L3,1 L3,5 L1,5 L1,2 L-1,1 Z " fill="#37292E" transform="translate(126,48)"/>
<path d="M0,0 L3,0 L3,4 L0,4 Z " fill="#301E0E" transform="translate(7,46)"/>
<path d="M0,0 L2,2 L2,7 L0,6 L-1,1 Z " fill="#495456" transform="translate(141,45)"/>
<path d="M0,0 L5,0 L3,3 L0,3 Z " fill="#5C4836" transform="translate(0,37)"/>
<path d="M0,0 L3,0 L3,4 L-1,2 Z " fill="#919DA0" transform="translate(147,36)"/>
<path d="M0,0 L3,0 L3,4 L0,4 Z " fill="#5F7278" transform="translate(136,22)"/>
<path d="M0,0 L3,0 L1,4 L-1,5 Z " fill="#5C4436" transform="translate(57,15)"/>
<path d="M0,0 L3,1 L1,3 L-4,4 L-4,2 Z " fill="#715F51" transform="translate(97,14)"/>
<path d="M0,0 L4,0 L4,3 L0,3 Z " fill="#8F7E80" transform="translate(126,10)"/>
<path d="M0,0 L3,0 L5,4 L0,3 Z " fill="#223337" transform="translate(105,0)"/>
<path d="M0,0 L5,0 L5,2 L1,3 Z " fill="#393127" transform="translate(103,74)"/>
<path d="M0,0 L3,0 L2,5 L0,2 Z " fill="#51525B" transform="translate(123,58)"/>
<path d="M0,0 L3,0 L2,4 L0,4 Z " fill="#735E4E" transform="translate(0,47)"/>
<path d="M0,0 L3,0 L3,4 L0,3 Z " fill="#48321E" transform="translate(101,42)"/>
<path d="M0,0 L3,0 L4,3 L0,4 Z " fill="#4C3836" transform="translate(133,30)"/>
<path d="M0,0 L5,1 L2,4 L0,4 Z " fill="#3A2716" transform="translate(13,29)"/>
<path d="M0,0 L5,0 L5,2 L2,3 L0,2 Z " fill="#6B5152" transform="translate(13,17)"/>
<path d="M0,0 L3,0 L3,3 L-1,3 Z " fill="#3D2426" transform="translate(25,5)"/>
<path d="M0,0 L3,1 L2,4 L0,4 Z " fill="#2B343B" transform="translate(56,78)"/>
<path d="M0,0 L1,4 L-1,6 L-1,2 Z " fill="#403E41" transform="translate(126,74)"/>
<path d="M0,0 L4,1 L4,3 L0,3 Z " fill="#181D22" transform="translate(128,74)"/>
<path d="M0,0 L3,0 L2,4 L0,4 Z " fill="#56413C" transform="translate(19,66)"/>
<path d="M0,0 L3,1 L1,5 Z " fill="#685652" transform="translate(129,54)"/>
<path d="M0,0 L3,4 L-1,4 Z " fill="#5C6567" transform="translate(139,46)"/>
<path d="M0,0 L3,0 L2,4 L0,4 Z " fill="#9A7874" transform="translate(124,34)"/>
<path d="M0,0 L3,3 L2,5 L0,5 Z " fill="#796656" transform="translate(85,31)"/>
<path d="M0,0 L2,0 L2,3 L-3,3 Z " fill="#483C44" transform="translate(10,18)"/>
<path d="M0,0 L4,1 L3,3 L0,3 Z " fill="#896B68" transform="translate(0,9)"/>
<path d="M0,0 L4,1 L3,3 L0,3 Z " fill="#7A6A64" transform="translate(52,6)"/>
<path d="M0,0 L3,0 L3,3 L-1,2 Z " fill="#435657" transform="translate(102,0)"/>
<path d="M0,0 L4,0 L4,3 L0,2 Z " fill="#A79CA4" transform="translate(26,0)"/>
<path d="M0,0 L4,1 L2,4 Z " fill="#4A231D" transform="translate(125,0)"/>
<path d="M0,0 L3,0 L3,3 L0,3 Z " fill="#846762" transform="translate(16,72)"/>
<path d="M0,0 L3,0 L3,3 L0,3 Z " fill="#675545" transform="translate(63,71)"/>
<path d="M0,0 L2,0 L0,5 L-1,1 Z " fill="#2B292F" transform="translate(146,65)"/>
<path d="M0,0 L3,0 L3,3 L0,3 Z " fill="#251305" transform="translate(0,40)"/>
<path d="M0,0 L2,3 L2,5 L-1,5 Z " fill="#7C5F64" transform="translate(123,35)"/>
<path d="M0,0 L4,2 L0,3 Z " fill="#533B3F" transform="translate(28,5)"/>
<path d="M0,0 L3,0 L3,3 L0,3 Z " fill="#5D3D2E" transform="translate(97,0)"/>
<path d="M0,0 L2,0 L2,3 L-1,3 Z " fill="#5F757B" transform="translate(132,82)"/>
<path d="M0,0 L3,1 L3,3 L0,3 Z " fill="#6D96A8" transform="translate(19,82)"/>
<path d="M0,0 L2,0 L2,3 L-1,3 Z " fill="#2A3636" transform="translate(118,82)"/>
<path d="M0,0 L3,0 L2,3 L0,3 Z " fill="#766354" transform="translate(12,71)"/>
<path d="M0,0 L3,1 L3,3 L0,3 Z " fill="#151A21" transform="translate(136,65)"/>
<path d="M0,0 L3,1 L2,3 L-1,2 Z " fill="#432D1A" transform="translate(43,42)"/>
<path d="M0,0 L3,2 L2,4 L-1,1 Z " fill="#4C270E" transform="translate(23,18)"/>
<path d="M0,0 L2,1 L2,3 L-1,3 Z " fill="#20211F" transform="translate(45,82)"/>
<path d="M0,0 L2,0 L2,3 L-1,2 Z " fill="#393222" transform="translate(5,66)"/>
<path d="M0,0 L3,1 L3,3 L0,2 Z " fill="#282427" transform="translate(131,27)"/>
<path d="M0,0 L3,1 L2,3 L0,3 Z " fill="#0A1018" transform="translate(132,22)"/>
<path d="M0,0 L2,0 L2,3 L-1,2 Z " fill="#676062" transform="translate(81,1)"/>
<path d="M0,0 L2,2 L-1,3 Z " fill="#425859" transform="translate(114,82)"/>
<path d="M0,0 L2,2 L-1,3 Z " fill="#4C353A" transform="translate(106,10)"/>
</svg>
