<?xml version="1.0" encoding="UTF-8"?>
<!-- Generator: visioncortex VTracer 0.6.5 -->
<svg version="1.1" xmlns="http://www.w3.org/2000/svg" width="150" height="84">
<path d="M0,0 L150,0 L150,84 L0,84 Z " fill="#000102" transform="translate(0,0)"/>
<path d="M0,0 L3,1 L2,6 L-1,7 L1,12 L4,12 L5,15 L8,12 L8,6 L11,6 L11,13 L9,17 L1,19 L-1,26 L-3,24 L-4,28 L-6,30 L-9,29 L-9,31 L-13,31 L-14,26 L-13,24 L-11,24 L-11,22 L-14,24 L-17,31 L-22,31 L-21,27 L-19,26 L-19,23 L-21,22 L-23,23 L-29,24 L-24,25 L-24,32 L-31,32 L-31,30 L-27,30 L-27,27 L-35,27 L-38,27 L-43,26 L-41,30 L-45,30 L-44,36 L-47,38 L-47,36 L-49,36 L-49,33 L-47,33 L-49,29 L-49,26 L-45,26 L-45,23 L-41,23 L-41,25 L-37,23 L-30,21 L-21,18 L-21,16 L-19,16 L-18,8 L-16,7 L-14,11 L-14,5 L-10,3 L-8,6 L-8,10 L-6,10 L-7,2 L-3,3 Z M-4,10 Z " fill="#0A0D0C" transform="translate(107,31)"/>
<path d="M0,0 L3,0 L3,5 L3,7 L6,6 L6,10 L15,11 L15,17 L14,18 L5,18 L5,11 L3,11 L2,20 L0,22 L0,27 L-7,26 L-7,28 L-15,28 L-15,20 L-13,20 L-13,18 L-6,18 L-4,12 L0,11 L-1,9 L-1,1 Z " fill="#030B10" transform="translate(15,34)"/>
<path d="M0,0 L4,1 L9,6 L9,8 L5,8 L5,6 L2,7 L2,15 L8,19 L9,26 L5,28 L2,35 L-1,37 L-1,34 L-7,33 L-6,26 L-3,21 L-2,17 L-4,17 L-3,13 L0,13 L0,11 L-2,11 L-2,9 L-4,9 L-6,6 L-6,3 L-2,2 L-1,3 Z " fill="#050F14" transform="translate(126,19)"/>
<path d="M0,0 L4,5 L4,7 L2,7 L0,13 L4,11 L4,9 L6,9 L6,7 L9,7 L9,10 L7,10 L7,12 L10,11 L10,14 L6,13 L6,15 L3,17 L0,24 L-5,24 L-4,20 L-2,19 L-2,16 L-4,15 L-6,16 L-12,17 L-7,18 L-7,25 L-14,25 L-14,23 L-10,23 L-10,20 L-18,20 L-21,20 L-26,19 L-24,23 L-28,23 L-27,29 L-30,31 L-30,29 L-32,29 L-32,26 L-30,26 L-32,22 L-32,19 L-28,19 L-28,16 L-24,16 L-24,18 L-20,16 L-13,14 L-4,11 L-4,9 L-2,9 L-1,1 Z " fill="#141410" transform="translate(90,38)"/>
<path d="M0,0 L5,0 L6,2 L10,3 L10,8 L7,9 L8,10 L8,15 L6,16 L4,19 L1,19 L0,24 L-3,25 L-6,24 L-6,22 L-3,22 L-3,19 L-10,20 L-10,22 L-18,21 L-22,20 L-22,18 L-18,18 L-18,14 L-14,13 L-15,18 L-5,16 L-5,13 L-2,13 L-1,10 L1,10 L1,8 L3,8 L4,2 L-1,2 Z " fill="#1C2223" transform="translate(55,17)"/>
<path d="M0,0 L12,0 L12,5 L36,5 L36,10 L6,10 L6,5 L0,4 Z " fill="#0E1619" transform="translate(80,74)"/>
<path d="M0,0 L11,1 L12,3 L11,6 L9,6 L9,8 L12,6 L20,6 L19,13 L18,14 L11,14 L9,10 L5,8 L4,4 L-1,4 Z M12,1 L14,2 Z " fill="#01090F" transform="translate(21,56)"/>
<path d="M0,0 L7,0 L8,5 L5,6 L6,14 L0,14 L0,8 L1,6 L-1,6 L-1,1 Z " fill="#061017" transform="translate(51,70)"/>
<path d="M0,0 L4,0 L4,9 L2,10 L-4,10 L-5,7 L-9,6 L-7,3 L-2,3 L-2,1 Z " fill="#0A151B" transform="translate(116,58)"/>
<path d="M0,0 L2,0 L2,4 L11,5 L11,11 L10,12 L1,12 L1,5 L-1,5 Z " fill="#1A2625" transform="translate(19,40)"/>
<path d="M0,0 L1,0 L1,5 L-1,6 L-3,9 L-6,9 L-7,14 L-10,15 L-13,14 L-13,12 L-10,12 L-10,9 L-14,8 L-11,8 L-11,5 L-2,1 L0,2 Z " fill="#0C1010" transform="translate(62,27)"/>
<path d="M0,0 L4,0 L4,2 L10,0 L14,1 L14,3 L8,3 L4,4 L2,3 L4,7 L0,7 L1,13 L-2,15 L-2,13 L-4,13 L-4,10 L-2,10 L-4,6 L-4,3 L0,3 Z " fill="#192329" transform="translate(62,54)"/>
<path d="M0,0 L4,1 L9,6 L9,8 L5,8 L5,6 L1,6 L1,11 L-2,11 L-2,9 L-4,9 L-6,6 L-6,3 L-2,2 L-1,3 Z " fill="#141716" transform="translate(126,19)"/>
<path d="M0,0 L1,4 L4,5 L-1,5 L-3,9 L-8,11 L-9,14 L-15,14 L-15,12 L-11,11 L-10,7 L-12,7 L-12,5 L-9,4 L-8,6 L-3,5 L-3,2 L0,2 Z " fill="#252B30" transform="translate(39,11)"/>
<path d="M0,0 L3,3 L3,10 L0,13 L-2,13 L-1,16 L-6,17 L-4,11 L-2,11 L-3,2 Z " fill="#040605" transform="translate(96,34)"/>
<path d="M0,0 L5,1 L11,5 L11,7 L-4,7 L-4,3 L0,3 Z " fill="#0A1919" transform="translate(4,77)"/>
<path d="M0,0 L5,0 L3,7 L-2,8 L-3,13 L-6,12 L-5,5 Z " fill="#0F1B23" transform="translate(126,38)"/>
<path d="M0,0 L5,0 L6,2 L10,3 L10,8 L3,10 L1,8 L3,8 L4,2 L-1,2 Z " fill="#0B1015" transform="translate(55,17)"/>
<path d="M0,0 L4,0 L4,2 L7,1 L7,4 L5,5 L3,12 L1,10 L-1,12 L-1,3 L2,4 L2,2 L0,2 Z " fill="#171B1C" transform="translate(103,45)"/>
<path d="M0,0 L2,0 L2,2 L6,3 L6,5 L8,5 L8,7 L3,8 L3,10 L1,10 L0,6 L-3,4 Z " fill="#070E0B" transform="translate(48,54)"/>
<path d="M0,0 L4,1 L-1,3 L-1,6 L5,5 L4,7 L-1,8 L0,11 L-6,9 L-6,4 L-2,3 L-2,1 Z " fill="#081110" transform="translate(63,47)"/>
<path d="M0,0 L11,1 L10,5 L4,6 L4,4 L-1,4 Z " fill="#101C22" transform="translate(21,56)"/>
<path d="M0,0 L8,0 L8,7 L0,6 Z " fill="#071212" transform="translate(0,28)"/>
<path d="M0,0 L2,1 Z M-2,1 L0,2 L-1,5 L-3,5 L-3,7 L0,5 L5,6 L2,8 L-3,10 L-8,5 L-2,4 Z " fill="#020B11" transform="translate(33,57)"/>
<path d="M0,0 L7,0 L10,3 L10,5 L1,5 Z " fill="#0D161C" transform="translate(92,7)"/>
<path d="M0,0 L2,0 L1,6 L6,7 L6,9 L-2,8 L-6,7 L-6,5 L-2,5 L-2,1 Z " fill="#0F1B1D" transform="translate(39,30)"/>
<path d="M0,0 L7,2 L6,6 L2,6 L-1,6 L-1,1 Z " fill="#0A1010" transform="translate(69,26)"/>
<path d="M0,0 L3,0 L3,3 L1,3 L1,5 L4,4 L4,7 L0,6 L0,8 L-5,9 L-3,5 L-2,2 L0,2 Z " fill="#202222" transform="translate(96,45)"/>
<path d="M0,0 L7,0 L7,5 L0,5 L-1,1 Z " fill="#222A2E" transform="translate(143,36)"/>
<path d="M0,0 L9,0 L9,4 L0,4 Z " fill="#2D393D" transform="translate(106,80)"/>
<path d="M0,0 L7,0 L5,3 L1,3 L1,5 L-7,5 L-7,3 L0,2 Z " fill="#2E3B40" transform="translate(7,57)"/>
<path d="M0,0 L8,0 L8,4 L-1,4 Z " fill="#253134" transform="translate(95,80)"/>
<path d="M0,0 L2,0 L1,4 L5,5 L5,7 L-2,8 L-2,2 L0,2 Z " fill="#030B10" transform="translate(2,52)"/>
<path d="M0,0 L1,0 L1,8 L3,11 L-3,11 L-5,10 L-4,6 L-1,6 Z " fill="#0D0E0A" transform="translate(127,26)"/>
<path d="M0,0 L3,1 L2,3 L4,4 L5,10 L2,12 L2,10 L0,10 L0,7 L2,7 L0,3 Z " fill="#0F1511" transform="translate(58,57)"/>
<path d="M0,0 L1,0 L1,5 L4,5 L4,7 L2,7 L2,9 L-2,9 L-3,4 L-2,2 L0,2 Z " fill="#131819" transform="translate(96,53)"/>
<path d="M0,0 L8,1 L8,6 L3,6 L3,3 L0,2 Z " fill="#404D4C" transform="translate(21,45)"/>
<path d="M0,0 L8,0 L8,1 L1,2 L1,5 L8,6 L8,8 L0,8 L-1,7 L-1,1 Z " fill="#0C171C" transform="translate(142,35)"/>
<path d="M0,0 L1,4 L4,5 L-1,5 L-2,8 L-6,7 L-6,9 L-8,9 L-8,6 L-3,5 L-3,2 L0,2 Z " fill="#171E25" transform="translate(39,11)"/>
<path d="M0,0 L6,0 L6,5 L-1,4 Z " fill="#15222A" transform="translate(4,52)"/>
<path d="M0,0 L3,0 L3,7 L1,11 L-1,11 L0,2 Z " fill="#101717" transform="translate(115,37)"/>
<path d="M0,0 L5,0 L3,5 L-1,6 L-2,3 Z " fill="#1A242A" transform="translate(126,38)"/>
<path d="M0,0 L2,0 L4,6 L-2,6 L-1,1 Z " fill="#182330" transform="translate(53,78)"/>
<path d="M0,0 L0,3 L3,4 L2,6 L-1,5 L-2,8 L-7,8 L-7,6 L-3,6 L-2,2 Z " fill="#081015" transform="translate(108,61)"/>
<path d="M0,0 L2,1 L2,6 L-2,7 L-3,2 Z " fill="#131712" transform="translate(96,34)"/>
<path d="M0,0 L4,1 L7,2 L7,4 L-1,4 Z " fill="#010708" transform="translate(5,80)"/>
<path d="M0,0 L3,3 L3,4 L-4,5 L-6,1 L-1,1 Z " fill="#03080A" transform="translate(70,56)"/>
<path d="M0,0 L2,4 L2,6 L-3,5 L-4,1 Z " fill="#1F2C2F" transform="translate(45,47)"/>
<path d="M0,0 L3,0 L4,7 L2,9 L0,6 Z " fill="#0E161C" transform="translate(102,0)"/>
<path d="M0,0 L8,0 L7,3 L0,3 Z " fill="#253033" transform="translate(81,75)"/>
<path d="M0,0 L6,1 L8,2 L8,4 L3,5 Z " fill="#0F1111" transform="translate(92,23)"/>
<path d="M0,0 L6,1 L4,2 L4,5 L0,5 Z " fill="#04090A" transform="translate(0,75)"/>
<path d="M0,0 L4,0 L4,7 L2,7 L1,4 L-1,2 Z " fill="#2D383C" transform="translate(116,58)"/>
<path d="M0,0 L2,0 L4,5 L5,7 L4,9 L2,9 L0,5 Z " fill="#353F42" transform="translate(37,49)"/>
<path d="M0,0 L6,2 L6,6 L2,5 Z " fill="#262927" transform="translate(120,23)"/>
<path d="M0,0 L3,1 L3,5 L-4,5 L-4,3 L0,3 Z " fill="#131E1D" transform="translate(80,58)"/>
<path d="M0,0 L4,2 L7,5 L7,7 L3,7 L2,2 L0,2 Z " fill="#202323" transform="translate(128,20)"/>
<path d="M0,0 L5,1 L2,3 L-3,5 L-3,2 Z " fill="#131F26" transform="translate(33,62)"/>
<path d="M0,0 L4,0 L4,2 L7,1 L7,4 L2,5 L2,2 L0,2 Z " fill="#292B2A" transform="translate(103,45)"/>
<path d="M0,0 L3,2 L2,6 L-1,6 L-1,1 Z " fill="#171A16" transform="translate(102,35)"/>
<path d="M0,0 L8,0 L8,3 L2,4 L3,2 Z " fill="#060D0D" transform="translate(42,30)"/>
<path d="M0,0 L3,1 L3,4 L8,4 L8,5 L-1,5 Z " fill="#212F31" transform="translate(21,47)"/>
<path d="M0,0 L2,0 L1,7 L-2,6 L-2,1 Z " fill="#071013" transform="translate(39,30)"/>
<path d="M0,0 L5,0 L6,4 L0,3 Z " fill="#192429" transform="translate(52,71)"/>
<path d="M0,0 L2,0 L4,5 L2,5 L2,7 L0,7 Z " fill="#1C1F1D" transform="translate(90,40)"/>
<path d="M0,0 L6,0 L6,3 L0,3 Z " fill="#2C3839" transform="translate(144,37)"/>
<path d="M0,0 L6,0 L6,2 L-2,3 Z " fill="#030F13" transform="translate(67,68)"/>
<path d="M0,0 L5,1 L3,5 L2,3 L0,3 Z " fill="#252624" transform="translate(58,64)"/>
<path d="M0,0 L5,1 L5,4 L0,3 Z " fill="#313C42" transform="translate(20,57)"/>
<path d="M0,0 L2,0 L3,5 L2,7 L0,7 Z " fill="#212D32" transform="translate(15,45)"/>
<path d="M0,0 L4,0 L4,3 L-2,4 L-2,2 L0,2 Z " fill="#2E3B3F" transform="translate(2,30)"/>
<path d="M0,0 L2,0 L2,4 L-3,4 L-2,1 L0,2 Z " fill="#1E2B35" transform="translate(113,80)"/>
<path d="M0,0 L3,0 L4,3 L1,4 L-1,3 Z " fill="#151611" transform="translate(123,33)"/>
<path d="M0,0 L3,1 L2,5 L0,5 L-1,1 Z " fill="#222526" transform="translate(49,59)"/>
<path d="M0,0 L2,0 L1,5 L-3,4 Z " fill="#1C2223" transform="translate(48,54)"/>
<path d="M0,0 L3,1 L3,4 L-1,4 Z " fill="#485A56" transform="translate(25,47)"/>
<path d="M0,0 Z M-2,0 L0,1 L-1,4 L-4,4 L-4,1 Z " fill="#080908" transform="translate(60,32)"/>
<path d="M0,0 L2,0 L1,3 L-1,3 L0,6 L-2,6 L-1,1 Z " fill="#111B27" transform="translate(53,78)"/>
<path d="M0,0 L5,1 L6,3 L0,2 Z " fill="#2B3131" transform="translate(60,58)"/>
<path d="M0,0 L4,0 L4,2 L-1,3 Z " fill="#373632" transform="translate(92,51)"/>
<path d="M0,0 L3,0 L3,3 L0,4 L-2,2 L0,2 Z " fill="#181919" transform="translate(96,45)"/>
<path d="M0,0 L5,1 L5,3 L0,2 Z " fill="#1A2124" transform="translate(60,21)"/>
<path d="M0,0 L4,0 L4,4 L2,4 Z " fill="#2B3942" transform="translate(99,80)"/>
<path d="M0,0 L3,1 L4,5 L0,3 Z " fill="#263231" transform="translate(35,41)"/>
<path d="M0,0 L2,0 L1,5 L-1,5 Z " fill="#1D1F1C" transform="translate(95,36)"/>
<path d="M0,0 L3,0 L2,4 L0,3 Z " fill="#232D33" transform="translate(112,62)"/>
<path d="M0,0 L3,0 L2,4 L0,3 Z " fill="#121F25" transform="translate(120,47)"/>
<path d="M0,0 L4,0 L3,3 L0,2 Z " fill="#27353D" transform="translate(124,41)"/>
<path d="M0,0 L3,0 L3,3 L0,3 Z " fill="#263537" transform="translate(0,81)"/>
<path d="M0,0 L4,1 L-1,3 Z " fill="#08121B" transform="translate(63,47)"/>
<path d="M0,0 L3,0 L2,3 L-1,2 Z " fill="#070C0C" transform="translate(79,29)"/>
<path d="M0,0 L3,0 L3,3 L0,2 Z " fill="#1A2B2B" transform="translate(5,77)"/>
<path d="M0,0 L3,1 L2,4 Z " fill="#090F12" transform="translate(64,57)"/>
<path d="M0,0 L2,1 L2,3 L-2,2 Z " fill="#041017" transform="translate(13,58)"/>
<path d="M0,0 L3,0 L3,3 L0,2 Z " fill="#343C3E" transform="translate(123,26)"/>
<path d="M0,0 L3,1 L1,4 Z " fill="#0B0E0E" transform="translate(96,51)"/>
<path d="M0,0 L2,0 L1,3 L-1,3 Z " fill="#181B1B" transform="translate(53,39)"/>
</svg>
