<?xml version="1.0" encoding="UTF-8"?>
<!-- Generator: visioncortex VTracer 0.6.5 -->
<svg version="1.1" xmlns="http://www.w3.org/2000/svg" width="150" height="84">
<path d="M0,0 L150,0 L150,84 L0,84 Z " fill="#262831" transform="translate(0,0)"/>
<path d="M0,0 L3,0 L3,3 L6,3 L6,5 L9,6 L9,10 L4,11 L4,8 L2,8 L4,14 L11,16 L12,19 L11,21 L13,22 L13,25 L13,27 L21,26 L21,30 L19,30 L20,34 L15,34 L16,40 L13,41 L12,44 L10,44 L10,46 L8,46 L8,44 L4,44 L4,47 L6,47 L6,50 L10,50 L10,54 L8,54 L8,51 L5,51 L4,57 L2,58 L2,60 L-112,60 L-112,33 L-96,32 L-95,34 L-87,37 L-87,39 L-85,40 L-92,43 L-89,44 L-89,48 L-84,48 L-76,51 L-76,48 L-81,48 L-77,45 L-72,43 L-67,44 L-67,42 L-60,42 L-62,44 L-42,45 L-36,46 L-35,42 L-31,41 L-31,39 L-38,41 L-51,41 L-52,35 L-49,34 L-49,32 L-53,34 L-53,30 L-42,31 L-39,33 L-41,36 L-35,36 L-35,34 L-27,33 L-26,37 L-28,40 L-25,42 L-18,41 L-20,41 L-22,41 L-22,34 L-15,33 L-10,32 L-9,30 L-23,31 L-27,28 L-29,30 L-37,33 L-37,26 L-32,25 L-32,23 L-25,22 L-16,20 L-4,21 L-4,17 L-4,15 L1,16 L1,14 L-3,13 L-4,7 L-2,6 L-2,4 L-6,2 L-6,1 Z " fill="#101B2A" transform="translate(112,24)"/>
<path d="M0,0 L1,3 L8,2 L8,5 L6,5 L6,7 L9,7 L9,9 L5,9 L5,13 L9,13 L14,16 L13,24 L11,24 L11,27 L4,27 L4,31 L-5,32 L-5,34 L-9,35 L-9,41 L-6,39 L-2,39 L0,35 L1,37 L5,39 L18,39 L17,42 L12,43 L5,43 L6,47 L5,50 L9,49 L10,47 L9,51 L1,52 L-2,49 L0,44 L0,42 L-8,43 L-8,45 L-11,46 L-14,45 L-13,42 L-22,40 L-26,40 L-25,42 L-22,41 L-22,43 L-24,44 L-24,50 L-11,49 L-10,48 L-4,48 L-4,50 L-8,52 L-9,55 L-23,55 L-36,54 L-35,52 L-40,51 L-40,53 L-47,54 L-51,56 L-49,57 L-49,60 L-56,59 L-62,57 L-62,53 L-67,52 L-63,50 L-60,48 L-61,46 L-69,43 L-69,41 L-72,42 L-85,42 L-85,33 L-76,32 L-76,30 L-71,31 L-69,32 L-69,36 L-58,37 L-52,42 L-52,44 L-55,47 L-46,48 L-40,49 L-40,47 L-38,47 L-38,45 L-44,46 L-50,44 L-48,41 L-40,41 L-37,42 L-38,37 L-48,37 L-48,35 L-45,35 L-45,32 L-41,30 L-40,26 L-47,26 L-49,30 L-46,30 L-46,33 L-51,33 L-51,31 L-53,30 L-53,25 L-49,25 L-48,21 L-46,18 L-40,18 L-40,16 L-37,16 L-37,13 L-39,12 L-37,9 L-32,9 L-28,9 L-12,8 L-8,9 L-8,7 L-2,3 Z " fill="#000203" transform="translate(85,15)"/>
<path d="M0,0 L37,0 L37,66 L31,66 L29,63 L29,47 L30,45 L28,45 L28,48 L25,48 L25,44 L19,44 L16,42 L17,37 L19,37 L20,39 L22,34 L22,30 L20,29 L20,33 L15,34 L14,27 L12,27 L12,24 L7,22 L7,20 L3,20 L3,14 L5,12 L-9,11 L-8,5 L-5,5 L-4,1 Z " fill="#416175" transform="translate(113,0)"/>
<path d="M0,0 L5,1 L9,2 L9,4 L16,5 L18,8 L15,9 L16,11 L22,13 L24,14 L24,18 L18,17 L18,21 L24,22 L23,27 L23,30 L19,30 L18,24 L13,21 L9,22 L10,17 L14,17 L14,15 L11,15 L11,13 L13,13 L13,10 L6,11 L5,9 L0,14 L-3,15 L-3,17 L-15,17 L-23,18 L-26,16 L-27,18 L-32,17 L-32,21 L-32,24 L-35,24 L-35,26 L-41,26 L-43,30 L-44,33 L-48,33 L-48,38 L-45,39 L-46,41 L-41,41 L-41,38 L-44,38 L-43,34 L-40,33 L-35,34 L-35,39 L-40,40 L-40,43 L-43,43 L-43,45 L-35,44 L-33,45 L-33,47 L-30,48 L-32,48 L-32,50 L-43,50 L-44,51 L-39,53 L-33,53 L-33,55 L-35,55 L-35,57 L-45,56 L-50,55 L-49,52 L-47,52 L-52,47 L-53,46 L-62,45 L-64,44 L-64,40 L-71,38 L-71,40 L-80,41 L-80,20 L-67,21 L-62,23 L-63,26 L-61,26 L-63,31 L-61,33 L-61,38 L-58,38 L-57,34 L-50,33 L-50,30 L-52,29 L-53,31 L-55,30 L-55,28 L-50,27 L-52,22 L-46,18 L-44,18 L-44,16 L-42,16 L-42,18 L-40,18 L-41,22 L-37,18 L-35,18 L-35,16 L-23,12 L-20,12 L-21,8 L-25,7 L-25,2 L-9,2 L-9,9 L-1,9 L3,10 L3,7 L-2,6 L-4,5 L-3,2 L0,2 Z " fill="#4B4146" transform="translate(80,7)"/>
<path d="M0,0 L3,0 L3,3 L6,3 L6,5 L9,6 L9,10 L4,11 L4,8 L2,8 L4,14 L11,16 L12,19 L11,21 L13,22 L13,25 L13,27 L21,26 L21,30 L19,30 L20,34 L15,34 L16,40 L13,41 L12,44 L10,44 L10,46 L8,46 L8,44 L4,44 L4,47 L6,47 L6,50 L10,50 L10,54 L8,54 L8,51 L5,51 L4,57 L-1,57 L-1,59 L-4,59 L-7,56 L-12,55 L-12,54 L-1,52 L2,47 L0,47 L0,49 L-4,49 L-4,51 L-9,51 L-9,46 L-4,44 L-5,40 L-10,40 L-8,36 L-7,33 L-14,37 L-18,38 L-18,40 L-22,41 L-22,34 L-15,33 L-10,32 L-9,30 L-23,31 L-27,28 L-29,30 L-37,33 L-37,26 L-32,25 L-32,23 L-25,22 L-16,20 L-4,21 L-4,17 L-4,15 L1,16 L1,14 L-3,13 L-4,7 L-2,6 L-2,4 L-6,2 L-6,1 Z " fill="#3B4E5C" transform="translate(112,24)"/>
<path d="M0,0 L8,0 L8,2 L17,4 L18,9 L23,8 L24,16 L29,14 L31,16 L32,16 L32,23 L35,24 L34,17 L35,15 L39,15 L39,17 L41,17 L42,15 L42,18 L45,18 L45,20 L38,22 L36,23 L36,25 L29,29 L30,34 L25,35 L25,37 L30,36 L31,40 L30,41 L23,41 L22,45 L19,45 L17,39 L14,37 L18,37 L19,33 L17,33 L17,31 L13,29 L0,27 Z " fill="#1D1411" transform="translate(0,0)"/>
<path d="M0,0 L5,1 L7,2 L7,6 L18,7 L24,12 L24,14 L21,17 L30,18 L36,19 L36,17 L38,17 L38,15 L32,16 L26,14 L28,11 L36,11 L39,12 L38,8 L39,7 L39,2 L43,4 L46,5 L46,9 L53,6 L60,6 L60,8 L57,8 L57,10 L50,10 L51,12 L54,11 L54,13 L52,14 L52,20 L65,19 L66,18 L72,18 L72,20 L68,22 L67,25 L53,25 L40,24 L41,22 L36,21 L36,23 L29,24 L25,26 L27,27 L27,30 L20,29 L14,27 L14,23 L9,22 L13,20 L16,18 L15,16 L7,13 L7,11 L4,12 L-9,12 L-9,3 L0,2 Z " fill="#1B1412" transform="translate(9,45)"/>
<path d="M0,0 L11,1 L14,3 L12,6 L18,6 L18,4 L26,3 L27,7 L25,10 L28,12 L23,17 L16,18 L15,20 L-4,20 L-22,18 L-21,20 L-6,22 L-5,26 L-17,26 L-28,23 L-29,22 L-42,23 L-47,22 L-49,17 L-52,17 L-52,15 L-54,14 L-51,11 L-55,9 L-55,6 L-51,6 L-49,10 L-45,11 L-45,8 L-49,7 L-50,6 L-59,5 L-59,3 L-43,2 L-42,4 L-34,7 L-34,9 L-32,10 L-39,13 L-36,14 L-36,18 L-31,18 L-23,21 L-23,18 L-28,18 L-24,15 L-19,13 L-14,14 L-14,12 L-7,12 L-9,14 L11,15 L17,16 L18,12 L22,11 L22,9 L15,11 L2,11 L1,5 L4,4 L4,2 L0,4 Z " fill="#47423E" transform="translate(59,54)"/>
<path d="M0,0 L30,0 L30,31 L17,31 L14,23 L10,22 L9,15 L6,15 L6,13 L11,13 L11,11 L9,11 L4,5 L1,5 Z " fill="#0A111C" transform="translate(120,0)"/>
<path d="M0,0 L5,1 L9,2 L9,4 L16,5 L18,8 L15,9 L16,11 L22,13 L24,14 L24,18 L18,17 L18,21 L24,22 L23,27 L23,30 L19,30 L18,24 L13,21 L9,22 L10,17 L14,17 L14,15 L11,15 L11,13 L13,13 L13,10 L6,11 L5,9 L0,14 L-3,15 L-3,17 L-15,17 L-23,18 L-25,15 L-23,15 L-23,12 L-20,12 L-21,8 L-25,7 L-25,2 L-9,2 L-9,9 L-1,9 L3,10 L3,7 L-2,6 L-4,5 L-3,2 L0,2 Z " fill="#1B2225" transform="translate(80,7)"/>
<path d="M0,0 L20,0 L20,8 L28,7 L31,7 L31,11 L28,11 L28,13 L37,12 L37,10 L35,8 L45,6 L45,8 L54,8 L52,10 L47,9 L48,14 L51,15 L52,19 L39,23 L37,23 L37,25 L33,29 L31,29 L32,25 L30,25 L29,21 L37,20 L37,18 L31,17 L31,15 L27,15 L27,24 L23,23 L22,20 L20,15 L16,16 L15,8 L10,9 L9,4 L2,3 L0,2 Z " fill="#060403" transform="translate(8,0)"/>
<path d="M0,0 L9,0 L11,2 L15,2 L14,7 L9,5 L8,1 L4,1 L6,5 L8,6 L7,12 L10,12 L12,17 L22,17 L31,16 L31,18 L38,19 L40,22 L46,23 L46,25 L0,25 Z " fill="#0C0505" transform="translate(0,59)"/>
<path d="M0,0 L1,0 L1,6 L-1,7 L-1,9 L1,9 L1,15 L4,16 L6,17 L5,12 L12,12 L9,17 L10,21 L5,22 L5,24 L10,23 L11,27 L10,28 L3,28 L2,32 L-1,32 L-3,26 L-6,24 L-2,24 L-1,20 L-3,20 L-3,18 L-7,16 L-20,14 L-20,3 L-7,2 Z " fill="#050405" transform="translate(20,13)"/>
<path d="M0,0 L47,0 L47,6 L45,7 L44,12 L43,9 L41,10 L32,10 L32,9 L25,8 L25,6 L20,8 L19,9 L17,10 L17,12 L12,14 L7,14 L8,11 L11,11 L11,7 L4,8 L0,8 Z " fill="#010102" transform="translate(28,0)"/>
<path d="M0,0 L5,0 L7,4 L13,4 L13,22 L-23,22 L-23,20 L-26,19 L-21,19 L-20,13 L-17,13 L-17,16 L-15,16 L-15,14 L-7,14 L-7,12 L0,13 L3,14 L4,9 L7,5 L2,5 L2,7 L-2,7 Z " fill="#010305" transform="translate(137,62)"/>
<path d="M0,0 L1,3 L14,3 L14,38 L8,38 L6,35 L6,19 L7,17 L5,17 L5,20 L2,20 L2,16 L-4,16 L-7,14 L-6,9 L-4,9 L-3,11 L-1,6 L-1,2 Z " fill="#394850" transform="translate(136,28)"/>
<path d="M0,0 L4,2 L7,3 L7,7 L14,4 L21,4 L21,6 L18,6 L18,8 L11,8 L12,10 L15,9 L15,11 L13,12 L13,18 L26,17 L27,16 L33,16 L33,18 L29,20 L28,23 L14,23 L1,22 L2,20 L-3,19 L-3,21 L-7,19 L-6,17 L-3,17 L-3,15 L-1,15 L-1,13 L-7,14 L-13,12 L-11,9 L-3,9 L0,10 L-1,6 L0,5 Z " fill="#1F1E24" transform="translate(48,47)"/>
<path d="M0,0 L2,0 L2,8 L3,11 L0,11 L0,14 L3,14 L3,18 L-29,18 L-29,16 L-38,16 L-37,14 L-29,15 L-28,13 L-24,12 L-23,8 L-9,6 L-7,5 L-8,3 L0,2 Z " fill="#060D1C" transform="translate(99,66)"/>
<path d="M0,0 L7,1 L7,5 L10,5 L10,2 L12,2 L11,19 L6,20 L4,26 L8,26 L8,24 L13,24 L11,28 L9,33 L6,34 L6,32 L-1,31 L-1,33 L-9,33 L-9,31 L-13,31 L-13,28 L-15,28 L-15,25 L-11,25 L-11,27 L-9,27 L-9,25 L-7,25 L-6,21 L0,20 L1,18 L7,17 L4,13 L6,13 L6,11 L4,11 L6,2 L-1,2 Z " fill="#1A252C" transform="translate(131,43)"/>
<path d="M0,0 L5,0 L5,4 L3,4 L4,8 L-1,8 L0,14 L-3,15 L-4,18 L-6,18 L-6,20 L-8,20 L-8,18 L-12,18 L-12,21 L-10,21 L-10,24 L-6,24 L-6,28 L-8,28 L-8,25 L-11,25 L-12,31 L-17,31 L-17,33 L-20,33 L-23,30 L-28,29 L-28,28 L-17,26 L-14,21 L-16,21 L-16,23 L-20,23 L-20,25 L-25,25 L-25,20 L-19,19 L-19,16 L-14,16 L-12,11 L-8,9 L-3,9 L-4,4 Z " fill="#697E8D" transform="translate(128,50)"/>
<path d="M0,0 L13,1 L18,3 L17,6 L19,6 L17,11 L19,15 L10,18 L9,20 L0,21 Z " fill="#080303" transform="translate(0,27)"/>
<path d="M0,0 L11,1 L14,3 L12,6 L18,6 L18,4 L26,3 L27,7 L25,10 L28,12 L23,17 L16,18 L15,20 L5,20 L7,18 L10,19 L10,17 L1,17 L-1,18 L-11,16 L-11,14 L-14,14 L-14,12 L-7,12 L-9,14 L11,15 L17,16 L18,12 L22,11 L22,9 L15,11 L2,11 L1,5 L4,4 L4,2 L0,4 Z " fill="#415361" transform="translate(59,54)"/>
<path d="M0,0 L5,1 L9,2 L9,4 L16,5 L18,8 L15,9 L16,11 L22,13 L24,14 L24,18 L18,17 L18,21 L24,22 L23,27 L23,30 L19,30 L18,24 L13,21 L9,22 L10,17 L14,17 L14,15 L11,15 L11,13 L13,13 L13,10 L9,10 L8,8 L-1,7 L-4,5 L-3,2 L0,2 Z " fill="#2E3E4C" transform="translate(80,7)"/>
<path d="M0,0 L2,0 L3,5 L8,6 L8,8 L18,7 L19,10 L28,9 L30,10 L30,12 L33,13 L31,13 L31,15 L20,15 L19,16 L24,18 L30,18 L30,20 L28,20 L28,22 L18,21 L13,20 L14,17 L16,17 L11,12 L10,11 L1,10 L-1,9 L-1,5 L-7,3 L-7,2 Z " fill="#77675D" transform="translate(17,42)"/>
<path d="M0,0 L2,0 L2,2 L11,2 L9,4 L4,3 L5,8 L8,9 L9,13 L-4,17 L-6,17 L-6,19 L-10,23 L-12,23 L-11,19 L-13,19 L-14,15 L-6,14 L-6,12 L-9,12 L-9,8 L-11,7 L-6,6 L-6,4 L-8,2 Z " fill="#050A0F" transform="translate(51,6)"/>
<path d="M0,0 L9,0 L9,2 L13,2 L14,7 L17,5 L21,5 L23,1 L24,3 L28,5 L41,5 L40,8 L35,9 L28,9 L29,13 L28,16 L32,15 L33,13 L32,17 L24,18 L21,15 L23,10 L23,8 L15,9 L15,11 L12,12 L9,11 L10,8 L4,6 L4,4 L7,4 L7,2 L-2,4 L-7,5 L-7,3 Z " fill="#070E18" transform="translate(62,49)"/>
<path d="M0,0 L8,1 L8,3 L15,3 L19,4 L21,3 L29,4 L29,6 L24,7 L15,7 L-3,5 L-2,7 L13,9 L14,13 L2,13 L-9,10 L-13,9 L-14,7 L-18,6 L-18,1 L-17,5 L-12,5 L-4,8 L-4,5 L-9,5 L-5,2 Z " fill="#5B6B77" transform="translate(40,67)"/>
<path d="M0,0 L6,0 L7,5 L14,11 L14,21 L1,21 L-2,13 L-5,12 L-5,7 L1,9 L4,12 L4,15 L8,15 L8,11 L6,11 L6,9 L2,7 L2,5 L0,5 Z " fill="#030203" transform="translate(136,10)"/>
<path d="M0,0 L2,0 L2,2 L10,3 L13,6 L10,7 L11,13 L15,14 L15,16 L10,15 L10,17 L12,18 L11,22 L-2,21 L-11,23 L-9,22 L-9,18 L-2,18 L-2,15 L0,15 L0,10 L1,13 L3,13 L4,11 L4,10 L5,7 L6,5 L0,4 Z " fill="#0E1217" transform="translate(98,24)"/>
<path d="M0,0 L5,0 L3,4 L5,4 L5,10 L8,11 L10,12 L9,7 L16,7 L13,12 L14,16 L9,17 L9,19 L14,18 L15,22 L14,23 L7,23 L6,27 L3,27 L1,21 L-2,19 L2,19 L3,15 L1,14 L3,14 L4,8 L-1,7 L-2,3 Z " fill="#27120E" transform="translate(16,18)"/>
<path d="M0,0 L3,2 L8,2 L9,5 L4,5 L4,8 L6,8 L6,10 L-7,11 L-11,8 L-13,10 L-21,13 L-21,6 L-16,5 L-16,3 L-9,2 Z " fill="#1D2D3C" transform="translate(96,44)"/>
<path d="M0,0 L11,0 L23,2 L26,6 L30,8 L25,9 L33,10 L33,12 L9,12 L9,10 L3,10 L2,7 L17,8 L16,4 L1,3 Z " fill="#2F2F3A" transform="translate(37,72)"/>
<path d="M0,0 L4,2 L4,9 L7,10 L6,3 L7,1 L11,1 L11,3 L13,3 L14,1 L14,4 L17,4 L17,6 L10,8 L8,9 L8,11 L3,13 L3,12 L-3,11 L-3,13 L-1,14 L-2,16 L-5,15 L-7,14 L-7,8 L-10,9 L-9,5 L-7,5 L-5,1 Z " fill="#332726" transform="translate(28,14)"/>
<path d="M0,0 L7,0 L7,2 L9,3 L8,5 L11,5 L12,3 L12,7 L16,9 L17,12 L12,11 L7,10 L-9,11 L-8,5 L-5,5 L-4,1 Z " fill="#436375" transform="translate(113,0)"/>
<path d="M0,0 L1,2 L8,3 L10,6 L16,7 L16,9 L-15,9 L-17,8 L-16,5 L-11,6 L-11,4 L-7,3 L-13,3 L-13,2 Z " fill="#0B0C14" transform="translate(30,75)"/>
<path d="M0,0 L1,2 L3,2 L5,6 L9,7 L9,9 L14,11 L14,14 L16,15 L14,18 L12,18 L12,20 L10,20 L10,17 L6,16 L7,14 L4,14 L4,11 L-4,13 L-7,14 L-11,12 L-7,12 L-7,10 L-2,10 L-2,4 Z " fill="#2E303A" transform="translate(111,13)"/>
<path d="M0,0 L1,3 L8,2 L8,5 L6,5 L6,7 L9,7 L9,9 L5,9 L5,13 L9,13 L6,14 L5,17 L-7,14 L-8,11 L-4,12 L-5,8 L-8,7 L-2,3 Z " fill="#11171A" transform="translate(85,15)"/>
<path d="M0,0 L5,0 L5,4 L3,4 L4,8 L-1,8 L0,14 L-3,15 L-4,18 L-6,18 L-6,20 L-8,20 L-8,18 L-12,18 L-13,21 L-13,12 L-8,9 L-3,9 L-4,4 Z " fill="#4C6274" transform="translate(128,50)"/>
<path d="M0,0 L4,1 L5,7 L9,8 L6,10 L4,10 L4,12 L-9,12 L-9,3 L0,2 Z " fill="#050708" transform="translate(9,45)"/>
<path d="M0,0 L2,1 L2,6 L7,5 L7,1 L10,2 L8,3 L9,5 L12,7 L9,8 L7,13 L6,9 L4,9 L3,8 L-1,15 L-3,14 L-3,12 L-9,12 L-12,9 L-12,4 L-10,4 L-9,6 L-3,5 L-3,3 Z " fill="#111A27" transform="translate(126,28)"/>
<path d="M0,0 L7,1 L7,6 L2,7 L2,10 L-1,10 L-2,12 L-4,10 L-11,11 L-13,10 L-13,8 L-18,7 L-18,5 L-16,5 L-15,1 L-10,1 L-10,5 L-8,5 L-8,7 L1,8 L1,5 L-2,5 L-1,1 Z " fill="#29100C" transform="translate(38,40)"/>
<path d="M0,0 L6,0 L6,4 L12,5 L13,7 L12,9 L10,9 L10,12 L5,14 L4,16 L0,16 Z " fill="#6C6B6C" transform="translate(0,0)"/>
<path d="M0,0 L13,1 L13,10 L11,10 L11,12 L0,10 Z " fill="#263C4B" transform="translate(0,27)"/>
<path d="M0,0 L4,1 L11,4 L17,6 L18,9 L17,11 L19,11 L20,17 L14,16 L14,14 L5,11 L5,9 L7,7 L0,3 Z " fill="#0D0C0F" transform="translate(90,7)"/>
<path d="M0,0 L3,0 L4,8 L5,9 L5,23 L-1,23 L-3,20 L-3,11 L0,11 Z " fill="#29475A" transform="translate(145,43)"/>
<path d="M0,0 L1,0 L1,10 L-16,10 L-16,8 L-19,7 L-14,7 L-13,1 L-10,1 L-10,4 L-8,4 L-8,2 L0,2 Z " fill="#051217" transform="translate(130,74)"/>
<path d="M0,0 L11,0 L11,2 L6,1 L7,4 L5,4 L3,9 L1,12 L8,14 L8,17 L-4,17 L-5,12 L-3,12 L-3,7 L0,6 Z " fill="#040910" transform="translate(75,0)"/>
<path d="M0,0 L4,0 L4,2 L19,2 L20,1 L26,1 L26,3 L22,5 L21,8 L7,8 L1,6 Z " fill="#0C1826" transform="translate(55,62)"/>
<path d="M0,0 L16,0 L15,4 L14,6 L8,6 L8,9 L11,9 L11,13 L4,14 L4,11 L4,6 L0,5 Z " fill="#29363B" transform="translate(55,9)"/>
<path d="M0,0 L2,0 L2,2 L6,3 L5,11 L12,11 L12,18 L3,21 L1,26 L-4,25 L-4,23 L-1,23 L1,18 L6,17 L6,12 L4,12 L4,6 L-1,7 Z " fill="#151D26" transform="translate(113,41)"/>
<path d="M0,0 L3,0 L3,3 L6,3 L6,5 L9,6 L9,10 L4,11 L4,8 L2,8 L3,15 L-3,13 L-4,7 L-2,6 L-2,4 L-6,2 L-6,1 Z " fill="#616D7A" transform="translate(112,24)"/>
<path d="M0,0 L2,0 L1,7 L-4,8 L-4,10 L-18,12 L-23,12 L-23,8 L-9,6 L-7,5 L-8,3 L0,2 Z " fill="#486372" transform="translate(99,66)"/>
<path d="M0,0 L9,0 L9,2 L13,2 L14,7 L21,4 L23,6 L22,8 L15,9 L15,11 L12,12 L9,11 L10,8 L4,6 L4,4 L7,4 L7,2 L-2,4 L-7,5 L-7,3 Z " fill="#101B24" transform="translate(62,49)"/>
<path d="M0,0 L3,1 L1,4 L2,6 L1,9 L-7,10 L-9,14 L-6,14 L-6,17 L-11,17 L-11,15 L-13,14 L-13,9 L-9,9 L-8,5 L-6,2 L0,2 Z " fill="#1C1D1A" transform="translate(45,31)"/>
<path d="M0,0 L5,1 L9,2 L9,4 L16,5 L18,8 L17,9 L9,10 L8,8 L-1,7 L-4,5 L-3,2 L0,2 Z " fill="#6F7784" transform="translate(80,7)"/>
<path d="M0,0 L5,0 L5,2 L8,2 L7,5 L5,4 L7,11 L-1,11 L0,9 L-5,8 L-5,10 L-9,8 L-8,6 L-5,6 L-5,4 L-3,4 L-2,1 Z " fill="#3A3439" transform="translate(50,58)"/>
<path d="M0,0 L3,0 L4,2 L12,5 L12,7 L14,8 L10,9 L2,9 L1,6 L-3,5 L-4,4 L-13,3 L-13,1 Z " fill="#80737E" transform="translate(13,56)"/>
<path d="M0,0 L28,0 L27,2 L17,3 L17,7 L10,6 L9,2 L6,2 L7,7 L5,7 L4,5 L1,5 Z " fill="#2D2C37" transform="translate(120,0)"/>
<path d="M0,0 L7,1 L7,5 L10,5 L10,2 L12,2 L11,19 L4,21 L2,20 L2,18 L7,17 L4,13 L6,13 L6,11 L4,11 L6,2 L-1,2 Z " fill="#463539" transform="translate(131,43)"/>
<path d="M0,0 L9,0 L11,2 L15,2 L14,7 L9,5 L8,1 L4,1 L6,5 L8,6 L7,12 L10,13 L4,12 L0,11 Z " fill="#0E2234" transform="translate(0,59)"/>
<path d="M0,0 L8,2 L9,5 L8,7 L10,8 L10,11 L10,13 L12,14 L7,15 L3,14 L4,6 L0,5 L0,3 L-2,3 L-3,12 L-6,12 L-4,8 L-2,1 Z " fill="#3C414B" transform="translate(115,38)"/>
<path d="M0,0 L2,0 L2,2 L6,2 L7,5 L6,7 L9,8 L-1,10 L-1,12 L-5,16 L-7,16 L-6,12 L-8,12 L-9,8 L-1,7 Z " fill="#101215" transform="translate(46,13)"/>
<path d="M0,0 L12,0 L12,2 L5,6 L1,6 L0,8 L-8,11 L-8,4 L-3,3 L-3,1 Z " fill="#1F2A31" transform="translate(83,46)"/>
<path d="M0,0 L4,1 L4,7 L3,11 L4,9 L8,9 L6,14 L2,16 L-1,15 L0,14 L-3,13 L-4,8 L-10,8 L-11,5 L0,6 L0,2 Z " fill="#5F636E" transform="translate(108,39)"/>
<path d="M0,0 L5,3 L5,6 L7,6 L11,10 L11,12 L13,12 L13,16 L9,16 L6,11 L0,8 L0,13 L-2,11 L-2,6 L-5,6 L-5,4 L0,4 L0,2 L-2,1 Z " fill="#242222" transform="translate(131,9)"/>
<path d="M0,0 L4,0 L4,5 L1,5 L1,7 L-14,7 L-14,2 L-1,1 Z " fill="#506776" transform="translate(90,77)"/>
<path d="M0,0 L3,1 L3,6 L8,6 L8,4 L12,4 L12,2 L14,2 L13,6 L11,8 L5,10 L8,12 L8,14 L14,13 L14,15 L2,15 L2,11 L-1,11 L-1,8 L2,8 L0,5 Z " fill="#243647" transform="translate(100,69)"/>
<path d="M0,0 L2,0 L3,5 L8,6 L9,12 L6,12 L6,16 L1,17 L0,10 L-2,10 L-2,8 L1,8 L-1,2 Z " fill="#53606E" transform="translate(127,17)"/>
<path d="M0,0 L6,1 L7,6 L5,10 L3,10 L3,12 L5,13 L4,15 L1,14 L-1,13 L-1,7 L-4,8 L-3,4 L-1,4 Z " fill="#5B504E" transform="translate(22,15)"/>
<path d="M0,0 L6,2 L9,5 L9,8 L13,8 L14,5 L15,9 L10,11 L9,13 L19,13 L19,14 L6,14 L3,6 L0,5 Z " fill="#0E1618" transform="translate(131,17)"/>
<path d="M0,0 L7,0 L7,15 L5,14 L5,6 L2,6 L2,17 L-1,17 Z " fill="#3C6676" transform="translate(143,37)"/>
<path d="M0,0 L2,0 L2,6 L0,7 L-1,12 L-2,9 L-4,10 L-13,10 L-13,9 L-20,8 L-20,6 L-7,6 L-7,4 L-1,3 Z " fill="#1E232E" transform="translate(73,0)"/>
<path d="M0,0 L1,2 L3,2 L3,9 L5,9 L6,5 L10,5 L8,9 L7,12 L3,12 L3,17 L6,18 L1,19 L1,17 L-1,17 L-1,13 L1,12 L1,9 L-1,8 L-2,10 L-4,9 L-4,7 L1,6 L-1,1 Z " fill="#42342E" transform="translate(29,28)"/>
<path d="M0,0 L5,2 L6,4 L5,6 L8,5 L9,3 L11,3 L11,8 L10,9 L12,11 L3,10 L1,5 L-2,5 L-2,3 L-4,2 Z " fill="#A3A2A4" transform="translate(9,66)"/>
<path d="M0,0 L6,1 L6,2 L14,3 L14,5 L-10,5 L-10,3 L-16,3 L-16,2 L0,2 Z " fill="#1F1E27" transform="translate(56,79)"/>
<path d="M0,0 L3,0 L3,3 L1,3 L1,5 L4,5 L4,7 L0,7 L0,11 L4,11 L1,12 L0,15 L-8,13 L-4,12 L-7,8 L-5,7 L-3,8 L-2,1 Z " fill="#030B10" transform="translate(90,17)"/>
<path d="M0,0 L2,0 L1,7 L3,7 L4,14 L-1,14 L-1,16 L-5,15 L-4,11 L-5,8 L-3,7 L0,1 Z " fill="#060B15" transform="translate(128,35)"/>
<path d="M0,0 L5,1 L4,4 L6,4 L4,9 L6,13 L-3,16 L-4,14 L1,14 L0,12 L-3,10 L-2,8 L0,8 Z " fill="#351D1B" transform="translate(13,29)"/>
<path d="M0,0 L6,1 L11,3 L9,4 L7,3 L8,9 L7,10 L0,10 Z " fill="#0E0B10" transform="translate(0,70)"/>
<path d="M0,0 L2,0 L3,3 L6,2 L6,0 L12,0 L11,3 L9,2 L11,11 L8,11 L8,7 L2,7 L-1,5 Z " fill="#474E50" transform="translate(130,37)"/>
<path d="M0,0 L7,0 L5,2 L25,3 L30,5 L29,8 L19,8 L21,6 L24,7 L24,5 L15,5 L13,6 L3,4 L3,2 L0,2 Z " fill="#445967" transform="translate(45,66)"/>
<path d="M0,0 L3,2 L2,4 L5,6 L0,11 L-9,11 L-6,10 L-5,6 L-1,5 L-1,3 L-6,3 L-6,2 L0,2 Z " fill="#293243" transform="translate(82,60)"/>
<path d="M0,0 L3,0 L1,7 L-1,9 L-8,9 L-8,6 L-10,6 L-10,3 L-6,3 L-6,5 L-4,5 L-4,3 L-2,3 L-2,1 Z " fill="#051219" transform="translate(126,65)"/>
<path d="M0,0 L9,0 L14,1 L14,5 L17,6 L15,6 L17,10 L10,10 L12,8 L11,6 L3,3 L3,1 Z " fill="#3A292A" transform="translate(13,55)"/>
<path d="M0,0 L10,0 L6,1 L5,5 L0,8 L-8,8 L-8,4 L-4,4 L-4,2 L-1,2 L-1,4 L2,4 L2,1 Z " fill="#060914" transform="translate(103,0)"/>
<path d="M0,0 L2,0 L3,5 L7,6 L7,10 L1,10 L-1,9 L-1,5 L-7,3 L-7,2 Z " fill="#9B8C89" transform="translate(17,42)"/>
<path d="M0,0 L5,0 L7,4 L3,4 L2,2 L-3,7 L-7,8 L-13,5 L-13,3 L-4,2 L0,3 Z " fill="#606A72" transform="translate(83,14)"/>
<path d="M0,0 L12,1 L16,2 L18,1 L26,2 L26,4 L21,5 L12,5 L5,4 L4,2 L0,2 Z " fill="#8B97A4" transform="translate(43,69)"/>
<path d="M0,0 L2,0 L2,2 L10,4 L9,11 L6,14 L-2,16 L-1,13 L4,12 L4,9 L6,9 L6,6 L0,4 Z " fill="#2E2B2C" transform="translate(6,0)"/>
<path d="M0,0 L19,0 L18,4 L9,3 L6,2 L5,5 L-1,5 L-1,3 L4,3 L4,1 Z " fill="#44434E" transform="translate(54,0)"/>
<path d="M0,0 L2,0 L2,2 L10,3 L12,4 L12,6 L9,6 L9,12 L6,13 L4,10 L5,7 L6,5 L0,4 Z " fill="#0D1727" transform="translate(98,24)"/>
<path d="M0,0 L11,1 L14,3 L12,6 L15,7 L6,7 L6,4 L4,4 L4,2 L0,4 Z " fill="#4A4348" transform="translate(59,54)"/>
<path d="M0,0 L3,1 L1,2 L2,4 L5,6 L2,7 L0,12 L-1,8 L-3,8 L-4,7 L-8,14 L-9,14 L-8,5 L0,4 Z " fill="#242E3C" transform="translate(133,29)"/>
<path d="M0,0 L4,0 L5,3 L4,5 L6,5 L7,11 L1,10 L1,8 L-7,6 L-6,4 L-1,5 L1,6 L2,2 L0,2 Z " fill="#17191B" transform="translate(103,13)"/>
<path d="M0,0 L2,0 L2,2 L7,2 L7,5 L4,3 L4,8 L6,9 L-3,8 L-7,8 L-7,6 L-4,6 L-4,3 L0,1 Z " fill="#181011" transform="translate(44,44)"/>
<path d="M0,0 L5,0 L7,4 L13,4 L9,6 L7,9 L5,8 L7,5 L2,5 L2,7 L-2,7 Z " fill="#141E27" transform="translate(137,62)"/>
<path d="M0,0 L8,0 L8,2 L1,5 L-6,6 L-7,1 Z " fill="#706D69" transform="translate(37,0)"/>
<path d="M0,0 L9,0 L9,3 L0,5 L-5,5 L-5,1 Z " fill="#70909F" transform="translate(81,73)"/>
<path d="M0,0 L7,0 L7,4 L5,4 L5,8 L-1,8 L-2,4 Z " fill="#98929C" transform="translate(5,30)"/>
<path d="M0,0 L7,0 L12,5 L8,6 L5,4 L-10,5 L-10,3 L0,3 Z " fill="#4E7282" transform="translate(118,6)"/>
<path d="M0,0 L3,0 L5,6 L7,7 L7,9 L-3,9 L-3,7 L-6,6 L-1,6 Z " fill="#08171D" transform="translate(117,75)"/>
<path d="M0,0 L4,1 L1,1 L2,7 L6,8 L6,10 L1,9 L1,11 L-1,11 L-1,9 L-7,8 L-7,10 L-11,9 L-9,9 L-9,4 L-8,7 L-6,7 L-5,5 L0,6 Z " fill="#2D2D35" transform="translate(107,30)"/>
<path d="M0,0 L2,2 L2,5 L-7,8 L-9,13 L-14,12 L-14,10 L-11,10 L-9,5 L-3,3 L-1,4 Z " fill="#142130" transform="translate(123,54)"/>
<path d="M0,0 L12,3 L14,5 L14,8 L7,7 L1,5 Z " fill="#2C2A2C" transform="translate(22,67)"/>
<path d="M0,0 L6,0 L11,1 L13,1 L13,3 L11,3 L11,5 L1,4 L-4,3 L-4,1 Z " fill="#9C8F8D" transform="translate(34,59)"/>
<path d="M0,0 L3,0 L4,8 L5,13 L0,13 L-2,14 L-2,11 L0,11 Z " fill="#2C566A" transform="translate(145,43)"/>
<path d="M0,0 L2,0 L2,4 L4,5 L3,7 L-1,8 L-2,11 L-4,11 L-5,6 L-3,2 Z " fill="#261412" transform="translate(36,26)"/>
<path d="M0,0 L8,1 L8,2 L3,2 L3,4 L7,3 L8,5 L-9,5 L-5,2 Z " fill="#726E73" transform="translate(40,67)"/>
<path d="M0,0 L2,0 L1,4 L-3,5 L-12,5 L-12,1 Z " fill="#485B65" transform="translate(69,9)"/>
<path d="M0,0 L9,0 L9,2 L13,2 L14,0 L14,3 L7,3 L7,6 L1,6 L0,3 Z " fill="#495C6F" transform="translate(111,3)"/>
<path d="M0,0 L4,0 L5,4 L-7,4 L-11,3 L-11,1 Z " fill="#83909D" transform="translate(49,76)"/>
<path d="M0,0 L12,0 L12,2 L5,6 L3,6 L3,4 L-2,4 L-2,2 L0,2 Z " fill="#3F4B54" transform="translate(83,46)"/>
<path d="M0,0 L4,0 L4,6 L8,6 L8,8 L6,9 L0,9 Z " fill="#433A3D" transform="translate(0,39)"/>
<path d="M0,0 L1,0 L1,7 L3,8 L-6,7 L-6,9 L-8,8 L-5,3 L-5,1 L0,2 Z " fill="#1B2A34" transform="translate(86,0)"/>
<path d="M0,0 L5,1 L1,3 L-3,9 L0,10 L-8,10 L-8,7 L-7,5 L-1,2 Z " fill="#21323F" transform="translate(105,55)"/>
<path d="M0,0 L4,0 L4,3 L13,3 L12,6 L3,6 L2,3 L-1,3 Z " fill="#6F808F" transform="translate(61,58)"/>
<path d="M0,0 L1,4 L4,1 L8,1 L6,6 L2,8 L-1,7 L0,6 L-3,5 L-2,1 L0,2 Z " fill="#5F7480" transform="translate(108,47)"/>
<path d="M0,0 L2,1 L1,5 L4,6 L4,9 L2,9 L2,12 L-1,13 L-1,7 L-4,8 L-3,4 L-1,4 Z " fill="#796E6B" transform="translate(22,15)"/>
<path d="M0,0 L4,0 L4,2 L6,2 L7,0 L7,3 L10,3 L10,5 L0,6 L-1,2 Z " fill="#5B4E4B" transform="translate(35,15)"/>
<path d="M0,0 L4,0 L4,2 L14,3 L10,5 L10,7 L8,7 L8,5 L1,6 Z " fill="#080F18" transform="translate(55,62)"/>
<path d="M0,0 L2,2 L1,4 L-6,5 L-6,7 L-9,8 L-12,7 L-11,2 L-9,2 L-9,4 L-4,1 Z " fill="#11202F" transform="translate(83,53)"/>
<path d="M0,0 L7,1 L10,3 L10,7 L3,6 L3,4 L0,3 Z " fill="#768590" transform="translate(94,18)"/>
<path d="M0,0 L5,0 L3,4 L5,4 L6,11 L4,12 L4,8 L-1,7 L-2,3 Z " fill="#1E1410" transform="translate(16,18)"/>
<path d="M0,0 L2,1 L1,6 L-5,6 L-5,4 L-14,4 L-13,2 L-5,3 L-4,1 Z " fill="#050B13" transform="translate(75,78)"/>
<path d="M0,0 L2,0 L4,3 L3,7 L0,8 L-10,6 L-6,4 L1,3 Z " fill="#16110F" transform="translate(28,61)"/>
<path d="M0,0 L5,0 L5,2 L8,2 L7,5 L3,6 L3,4 L-2,5 L-5,4 L-3,4 L-2,1 Z " fill="#474550" transform="translate(50,58)"/>
<path d="M0,0 L4,2 L7,3 L7,7 L4,7 L4,9 L0,8 L0,5 Z " fill="#464549" transform="translate(48,47)"/>
<path d="M0,0 L1,2 L0,4 L4,6 L-1,6 L-1,8 L-4,8 L-7,5 L-12,4 L-12,3 L-1,1 Z " fill="#59707F" transform="translate(112,75)"/>
<path d="M0,0 L4,0 L6,4 L10,5 L18,5 L18,6 L7,8 L7,6 L4,7 L4,5 L0,3 Z " fill="#515D67" transform="translate(4,60)"/>
<path d="M0,0 L7,1 L7,6 L-2,5 L-1,1 Z " fill="#5C5048" transform="translate(38,40)"/>
<path d="M0,0 L7,0 L4,5 L5,9 L1,10 L0,5 L0,2 Z " fill="#191217" transform="translate(25,25)"/>
<path d="M0,0 L2,0 L6,9 L5,11 L-2,10 L-2,8 L1,8 L-1,2 Z " fill="#486877" transform="translate(127,17)"/>
<path d="M0,0 L4,1 L5,5 L-4,5 L-6,4 L-5,1 L0,2 Z " fill="#131119" transform="translate(19,79)"/>
<path d="M0,0 L7,1 L7,5 L10,5 L10,2 L12,2 L10,11 L7,11 L6,2 L-1,2 Z " fill="#382F38" transform="translate(131,43)"/>
<path d="M0,0 L5,1 L5,3 L-6,6 L-9,5 L-7,5 L-7,1 Z " fill="#142027" transform="translate(96,41)"/>
<path d="M0,0 L2,0 L3,2 L7,2 L8,8 L3,8 L0,5 Z " fill="#202A36" transform="translate(114,32)"/>
<path d="M0,0 L6,0 L9,2 L9,4 L15,3 L15,5 L3,5 L3,1 Z " fill="#1B2D3B" transform="translate(99,79)"/>
<path d="M0,0 L11,0 L16,2 L16,3 L1,3 Z " fill="#1E1E24" transform="translate(37,72)"/>
<path d="M0,0 L2,2 L0,6 L1,8 L-11,9 L-10,6 L-2,4 Z " fill="#01030B" transform="translate(96,61)"/>
<path d="M0,0 L4,0 L4,5 L1,5 L1,7 L-3,7 L-3,2 Z " fill="#6B8795" transform="translate(90,77)"/>
<path d="M0,0 L5,0 L6,4 L-1,7 L-4,7 L-2,3 Z " fill="#6A8494" transform="translate(106,57)"/>
<path d="M0,0 L2,1 L2,4 L4,4 L4,7 L-1,7 L-2,11 L-2,6 L-5,6 L-5,4 L0,4 L0,2 L-2,1 Z " fill="#222E3A" transform="translate(131,9)"/>
<path d="M0,0 L2,0 L2,5 L1,6 L3,8 L-6,7 L-7,4 L-3,5 L-2,2 Z " fill="#7B716E" transform="translate(18,69)"/>
<path d="M0,0 L9,0 L11,2 L15,2 L14,7 L9,5 L8,1 L3,2 Z " fill="#37424D" transform="translate(0,59)"/>
<path d="M0,0 L3,1 L-2,2 L1,6 L-3,5 L-4,4 L-13,3 L-13,1 Z " fill="#6F7D88" transform="translate(13,56)"/>
<path d="M0,0 L3,0 L5,4 L6,6 L8,7 L3,8 L-1,7 Z " fill="#202C35" transform="translate(119,45)"/>
<path d="M0,0 L7,0 L7,2 L9,3 L7,5 L7,3 L-5,4 L-4,1 Z " fill="#384355" transform="translate(113,0)"/>
<path d="M0,0 L6,0 L6,2 L8,2 L7,5 L0,5 Z " fill="#2C1F22" transform="translate(0,75)"/>
<path d="M0,0 L5,1 L7,4 L3,4 L3,6 L-2,6 L-2,1 Z " fill="#667889" transform="translate(105,69)"/>
<path d="M0,0 L8,0 L8,2 L10,3 L8,3 L8,5 L3,4 L-2,3 Z " fill="#170F13" transform="translate(37,56)"/>
<path d="M0,0 L3,0 L3,5 L-2,6 L-2,4 L-6,2 L-6,1 Z " fill="#818997" transform="translate(112,24)"/>
<path d="M0,0 L14,0 L11,3 L10,8 L8,4 L6,4 L6,1 L0,1 Z " fill="#32414E" transform="translate(106,11)"/>
<path d="M0,0 L8,0 L7,2 L4,2 L3,6 L-1,5 L-1,2 Z " fill="#01050A" transform="translate(122,76)"/>
<path d="M0,0 L4,0 L4,5 L7,5 L7,8 L2,8 L2,6 L0,5 Z " fill="#20140F" transform="translate(32,40)"/>
<path d="M0,0 L6,2 L7,3 L7,8 L0,5 Z " fill="#04090C" transform="translate(131,17)"/>
<path d="M0,0 L2,0 L2,2 L6,2 L7,5 L6,7 L9,8 L4,7 L-1,5 Z " fill="#1D2227" transform="translate(46,13)"/>
<path d="M0,0 L6,0 L6,8 L0,3 Z " fill="#333235" transform="translate(144,13)"/>
<path d="M0,0 L2,0 L2,2 L-3,4 L-4,6 L-8,6 L-8,1 Z " fill="#5D5A5D" transform="translate(8,10)"/>
<path d="M0,0 L1,0 L0,8 L-7,7 L-6,4 L0,2 Z " fill="#6F8696" transform="translate(124,60)"/>
<path d="M0,0 L5,0 L6,5 L1,5 L-3,6 L-3,4 L-1,4 Z " fill="#361F1C" transform="translate(23,41)"/>
<path d="M0,0 L3,0 L3,2 L7,2 L6,6 L0,6 Z " fill="#435967" transform="translate(87,0)"/>
<path d="M0,0 L7,0 L7,2 L4,2 L4,4 L-3,4 L-5,5 L-5,2 Z " fill="#2D3138" transform="translate(62,51)"/>
<path d="M0,0 L5,2 L7,8 L1,6 Z " fill="#8C91A0" transform="translate(108,31)"/>
<path d="M0,0 L10,1 L10,9 L8,9 L8,11 L5,10 L7,10 L7,6 L9,6 L9,2 L2,2 L1,5 Z " fill="#596471" transform="translate(3,28)"/>
<path d="M0,0 L5,0 L3,1 L3,3 L-2,5 L-7,5 L-6,2 Z " fill="#494441" transform="translate(42,9)"/>
<path d="M0,0 L9,0 L9,1 L2,1 L3,6 L6,7 L0,8 Z " fill="#423E3C" transform="translate(28,0)"/>
<path d="M0,0 L7,0 L9,2 L6,2 L7,7 L5,7 L4,5 L1,5 Z " fill="#1A1C26" transform="translate(120,0)"/>
<path d="M0,0 L5,0 L5,4 L3,4 L4,8 L0,8 L1,2 L-1,1 Z " fill="#4C5963" transform="translate(128,50)"/>
<path d="M0,0 L2,0 L2,10 L-1,10 L-1,1 Z " fill="#172222" transform="translate(148,74)"/>
<path d="M0,0 L12,0 L12,2 L-2,3 L-2,1 Z " fill="#66717D" transform="translate(37,75)"/>
<path d="M0,0 L6,2 L6,5 L-6,5 L-3,3 Z " fill="#0E1019" transform="translate(77,12)"/>
<path d="M0,0 L9,2 L7,7 L4,8 L4,3 L0,3 Z " fill="#2A2B2E" transform="translate(103,10)"/>
<path d="M0,0 L4,1 L10,3 L8,4 L7,7 L0,3 Z " fill="#0D0F1B" transform="translate(90,7)"/>
<path d="M0,0 L2,0 L2,2 L7,4 L9,7 L7,10 L4,9 L6,9 L6,6 L0,4 Z " fill="#514E52" transform="translate(6,0)"/>
<path d="M0,0 L6,1 L6,4 L0,5 L-1,1 Z " fill="#04040B" transform="translate(137,2)"/>
<path d="M0,0 L7,0 L5,2 L15,4 L13,6 L3,4 L3,2 L0,2 Z " fill="#69686F" transform="translate(45,66)"/>
<path d="M0,0 L4,1 L4,3 L6,3 L6,1 L10,0 L10,4 L3,4 L-2,3 Z " fill="#0C1F2C" transform="translate(59,66)"/>
<path d="M0,0 L5,0 L3,4 L6,5 L-3,5 L-3,3 Z " fill="#505F6C" transform="translate(68,56)"/>
<path d="M0,0 L4,0 L2,4 L1,7 L-3,7 L-3,4 L-1,4 Z " fill="#9E8F7E" transform="translate(35,33)"/>
<path d="M0,0 L7,0 L7,4 L0,4 Z " fill="#23475D" transform="translate(143,33)"/>
<path d="M0,0 L5,0 L6,2 L3,5 L2,7 L0,7 L0,4 L-2,3 Z " fill="#0A0F1C" transform="translate(48,24)"/>
<path d="M0,0 L3,1 L3,4 L5,4 L4,8 L-2,6 L-2,11 L-3,11 L-3,5 L2,5 L2,2 L0,2 Z " fill="#191F24" transform="translate(133,11)"/>
<path d="M0,0 L5,0 L7,4 L3,4 L2,2 L-1,6 L-3,6 L-4,3 L0,3 Z " fill="#3A3E4A" transform="translate(83,14)"/>
<path d="M0,0 L2,0 L1,4 L-3,4 L-3,6 L-7,4 L-6,2 Z " fill="#392B2D" transform="translate(48,62)"/>
<path d="M0,0 L3,1 L3,3 L9,3 L8,5 L0,6 L-2,3 L0,3 Z " fill="#222529" transform="translate(57,19)"/>
<path d="M0,0 L2,0 L2,6 L0,7 L-2,5 L-2,3 L-9,2 L-9,1 Z " fill="#345A6E" transform="translate(120,9)"/>
<path d="M0,0 L6,0 L4,1 L3,6 L0,6 L0,2 L-2,1 Z " fill="#201D1D" transform="translate(42,12)"/>
<path d="M0,0 L7,2 L7,5 L-1,5 Z " fill="#110F19" transform="translate(59,1)"/>
<path d="M0,0 L7,2 L7,4 L1,5 L-2,2 L0,2 Z " fill="#524C4F" transform="translate(20,72)"/>
<path d="M0,0 L5,1 L5,5 L-1,6 Z " fill="#798C9B" transform="translate(109,66)"/>
<path d="M0,0 L7,0 L7,4 L10,5 L4,4 L0,3 Z " fill="#4A525A" transform="translate(0,67)"/>
<path d="M0,0 L4,0 L3,6 L0,7 L-1,2 Z " fill="#657384" transform="translate(125,52)"/>
<path d="M0,0 L5,0 L5,2 L8,3 L6,3 L6,5 L2,4 L-1,1 Z " fill="#9D9499" transform="translate(42,52)"/>
<path d="M0,0 L4,0 L3,5 L3,8 L-1,8 Z " fill="#505662" transform="translate(100,29)"/>
<path d="M0,0 L2,0 L2,2 L-2,5 L-10,4 L-8,2 Z " fill="#5A6069" transform="translate(55,20)"/>
<path d="M0,0 L3,0 L5,5 L5,8 L1,6 Z " fill="#090C14" transform="translate(126,2)"/>
<path d="M0,0 L4,0 L3,4 L-1,5 L-5,3 Z " fill="#191714" transform="translate(41,2)"/>
<path d="M0,0 L6,0 L8,1 L8,4 L5,4 L5,2 L2,2 L2,4 L-1,3 Z " fill="#222230" transform="translate(97,0)"/>
<path d="M0,0 L4,1 L2,2 L1,11 L-1,11 L-1,1 Z " fill="#030C0E" transform="translate(146,73)"/>
<path d="M0,0 L2,0 L1,7 L-4,7 L-4,4 L-2,4 L-2,2 L0,2 Z " fill="#5A6F7E" transform="translate(99,66)"/>
<path d="M0,0 L2,0 L1,7 L5,8 L-1,8 L-3,5 L-2,1 L-2,4 L0,4 Z " fill="#1C374B" transform="translate(145,58)"/>
<path d="M0,0 L4,0 L8,2 L4,4 L0,6 Z " fill="#3F525E" transform="translate(75,51)"/>
<path d="M0,0 L4,0 L4,4 L7,5 L2,6 L2,4 L0,4 Z " fill="#8E7B6E" transform="translate(28,41)"/>
<path d="M0,0 L2,0 L1,6 L-1,6 L-2,12 L-4,11 L-5,8 L-3,7 L0,1 Z " fill="#121A27" transform="translate(128,35)"/>
<path d="M0,0 L5,1 L4,7 L1,7 Z " fill="#2C1009" transform="translate(13,29)"/>
<path d="M0,0 L2,0 L2,2 L4,2 L4,4 L-1,5 L-6,7 L-6,4 L0,2 Z " fill="#63534F" transform="translate(36,23)"/>
<path d="M0,0 L5,1 L7,3 L11,5 L3,6 L2,2 L0,2 Z " fill="#292B34" transform="translate(56,75)"/>
<path d="M0,0 L6,1 L2,4 L-7,4 L-3,2 Z " fill="#1B2F3C" transform="translate(88,69)"/>
<path d="M0,0 L5,0 L3,4 L-2,6 Z " fill="#39444D" transform="translate(139,67)"/>
<path d="M0,0 L5,2 L5,4 L-3,4 L-4,1 Z " fill="#9E90A5" transform="translate(15,57)"/>
<path d="M0,0 L5,0 L6,4 L0,4 L-2,3 L-2,1 Z " fill="#6D7D8D" transform="translate(80,57)"/>
<path d="M0,0 L5,1 L13,0 L12,2 L4,5 L4,3 L0,2 Z " fill="#0C0F13" transform="translate(54,23)"/>
<path d="M0,0 L2,0 L2,4 L-8,3 L-5,1 Z " fill="#13161C" transform="translate(51,6)"/>
<path d="M0,0 L11,1 L11,3 L2,3 L2,1 Z " fill="#04030D" transform="translate(35,81)"/>
<path d="M0,0 L2,0 L1,3 L-11,3 L-7,1 Z " fill="#1F3344" transform="translate(88,76)"/>
<path d="M0,0 L5,1 L3,2 L5,6 L-2,6 L0,4 L-1,1 Z " fill="#403433" transform="translate(25,59)"/>
<path d="M0,0 L5,0 L5,3 L2,3 L2,6 L-1,6 Z " fill="#010304" transform="translate(136,63)"/>
<path d="M0,0 L8,0 L4,5 L1,4 Z " fill="#060B0C" transform="translate(127,59)"/>
<path d="M0,0 L5,1 L4,5 L4,3 L0,4 L-4,3 L-4,1 Z " fill="#060E1A" transform="translate(70,52)"/>
<path d="M0,0 L3,1 L2,4 L-5,5 L-5,3 L-3,3 L-3,1 Z " fill="#6A7988" transform="translate(96,50)"/>
<path d="M0,0 L6,1 L5,4 L7,5 L4,7 L4,4 L1,4 Z " fill="#717A87" transform="translate(118,41)"/>
<path d="M0,0 L4,0 L4,2 L8,3 L5,5 L0,5 L2,3 L0,2 Z " fill="#020102" transform="translate(102,39)"/>
<path d="M0,0 L5,1 L2,7 L0,7 Z M5,0 Z " fill="#0C0101" transform="translate(20,38)"/>
<path d="M0,0 L3,1 L2,5 L-4,5 L-1,1 Z " fill="#190806" transform="translate(28,36)"/>
<path d="M0,0 L8,1 L5,8 L4,8 L4,2 L0,2 Z " fill="#2A191B" transform="translate(0,37)"/>
<path d="M0,0 L4,1 L3,4 L5,4 L5,6 L0,6 Z " fill="#1C1C1B" transform="translate(0,16)"/>
<path d="M0,0 L5,0 L5,4 L-1,4 L-2,1 Z " fill="#426B84" transform="translate(113,5)"/>
<path d="M0,0 L5,1 L4,5 L0,5 Z " fill="#31353F" transform="translate(130,1)"/>
<path d="M0,0 L7,0 L8,3 L0,3 Z " fill="#030000" transform="translate(0,81)"/>
<path d="M0,0 L1,2 L0,5 L-5,5 L-5,1 Z " fill="#567284" transform="translate(81,73)"/>
<path d="M0,0 L4,0 L6,6 L2,6 L2,3 L0,3 Z " fill="#132332" transform="translate(116,68)"/>
<path d="M0,0 L5,1 L8,2 L6,4 L-3,4 L0,3 Z " fill="#2B3141" transform="translate(76,67)"/>
<path d="M0,0 L1,4 L-2,11 L-4,11 L-1,1 Z " fill="#131015" transform="translate(136,45)"/>
<path d="M0,0 L7,0 L9,1 L9,3 L6,3 L5,6 L4,1 Z " fill="#03040E" transform="translate(101,27)"/>
<path d="M0,0 L8,0 L8,2 L3,2 L3,4 L6,4 L6,6 L2,6 L2,2 L0,2 Z " fill="#3A4E5D" transform="translate(123,11)"/>
<path d="M0,0 L2,0 L1,4 L-3,5 L-4,1 Z " fill="#5A6E7C" transform="translate(69,9)"/>
<path d="M0,0 L2,0 L2,6 L-6,5 L-6,4 L-1,3 Z " fill="#29323C" transform="translate(73,0)"/>
<path d="M0,0 L3,0 L3,4 L-2,4 L-2,2 L-5,1 Z " fill="#020508" transform="translate(116,80)"/>
<path d="M0,0 L11,1 L11,2 L6,3 L4,5 L4,3 L0,2 Z " fill="#363D4A" transform="translate(49,73)"/>
<path d="M0,0 L6,0 L6,5 L4,5 L4,3 L0,3 Z " fill="#2C383F" transform="translate(129,67)"/>
<path d="M0,0 L0,3 L-1,4 L-7,4 L-6,1 Z " fill="#978FA3" transform="translate(22,61)"/>
<path d="M0,0 L5,1 L1,3 L-1,6 L-6,7 L-6,5 L-1,2 Z " fill="#08141F" transform="translate(105,55)"/>
<path d="M0,0 L2,0 L2,3 L-1,3 L-1,5 L-7,3 L-7,2 Z " fill="#9D9091" transform="translate(17,42)"/>
<path d="M0,0 L3,1 L1,2 L2,4 L5,6 L-1,7 L-2,4 L0,4 Z " fill="#1F2632" transform="translate(133,29)"/>
<path d="M0,0 L1,3 L3,4 L1,7 L-1,7 L-1,9 L-3,9 L-3,6 L-1,6 Z " fill="#2B3644" transform="translate(124,24)"/>
<path d="M0,0 L3,0 L3,4 L3,7 L0,7 L0,4 L-2,3 Z " fill="#464B57" transform="translate(45,24)"/>
<path d="M0,0 L5,0 L3,1 L3,4 L-2,4 L-3,1 Z " fill="#120705" transform="translate(40,20)"/>
<path d="M0,0 L2,2 L2,11 L-1,11 L0,4 L-1,1 Z " fill="#3E3437" transform="translate(28,14)"/>
<path d="M0,0 L7,0 L3,4 L1,4 L1,2 L-3,1 Z " fill="#324A5C" transform="translate(119,18)"/>
<path d="M0,0 L4,1 L1,1 L0,7 L-4,5 L-3,2 L0,2 Z " fill="#656A77" transform="translate(80,7)"/>
<path d="M0,0 L7,0 L7,4 L5,4 L4,6 L3,4 L4,2 L0,2 Z " fill="#0C1C2A" transform="translate(90,0)"/>
<path d="M0,0 L3,0 L3,5 L-3,5 L-1,4 Z " fill="#98A9B7" transform="translate(113,75)"/>
<path d="M0,0 L4,0 L4,2 L6,2 L6,0 L10,2 L10,3 L2,3 Z " fill="#000208" transform="translate(60,75)"/>
<path d="M0,0 L7,2 L6,4 L4,3 L4,5 L1,5 Z " fill="#47403B" transform="translate(22,67)"/>
<path d="M0,0 L6,0 L8,1 L7,4 L6,2 L1,3 L-2,2 L0,2 Z " fill="#5C555D" transform="translate(47,60)"/>
<path d="M0,0 L2,0 L2,2 L0,2 L-1,6 L-4,5 L-3,1 Z " fill="#04080E" transform="translate(123,52)"/>
<path d="M0,0 L2,1 L3,4 L7,6 L5,7 L0,5 L0,2 L-4,1 Z " fill="#806E5E" transform="translate(34,49)"/>
<path d="M0,0 L2,0 L2,6 L4,6 L3,10 L3,7 L-1,7 Z " fill="#303942" transform="translate(115,47)"/>
<path d="M0,0 L3,3 L3,5 L-2,7 L-2,2 Z " fill="#40352C" transform="translate(38,35)"/>
<path d="M0,0 L1,0 L1,6 L4,7 L4,10 L0,10 Z " fill="#525F6A" transform="translate(0,27)"/>
<path d="M0,0 L3,0 L4,5 L-1,6 Z " fill="#8B90A0" transform="translate(81,8)"/>
<path d="M0,0 L2,1 L-3,6 L-5,6 L-5,3 L-7,2 Z " fill="#110F1A" transform="translate(148,0)"/>
<path d="M0,0 L4,0 L4,2 L0,4 L-1,6 L-3,6 L-2,2 Z " fill="#020410" transform="translate(77,63)"/>
<path d="M0,0 L2,2 L2,5 L-8,5 L-4,3 L-1,4 Z " fill="#1D2838" transform="translate(123,54)"/>
<path d="M0,0 L3,0 L4,4 L-2,6 L-1,2 Z " fill="#707D8A" transform="translate(115,54)"/>
<path d="M0,0 L5,0 L1,1 L1,4 L-2,4 L-3,6 L-5,2 L0,2 Z " fill="#36211A" transform="translate(39,46)"/>
<path d="M0,0 L2,0 L3,2 L7,2 L4,3 L3,6 L0,4 Z " fill="#162022" transform="translate(87,26)"/>
<path d="M0,0 L1,3 L4,3 L4,5 L-3,6 L-2,2 L0,2 Z " fill="#453A35" transform="translate(41,15)"/>
<path d="M0,0 L1,0 L1,6 L-4,5 Z " fill="#000002" transform="translate(149,1)"/>
<path d="M0,0 L5,0 L6,2 L-1,3 L-2,1 Z " fill="#030201" transform="translate(31,67)"/>
<path d="M0,0 L1,3 L-4,5 L-8,4 L-7,2 L0,2 Z " fill="#16202B" transform="translate(94,62)"/>
<path d="M0,0 L5,0 L4,4 L0,3 Z " fill="#CDC8CC" transform="translate(17,48)"/>
<path d="M0,0 L2,0 L2,3 L4,4 L2,8 L-1,2 Z " fill="#040B1A" transform="translate(121,34)"/>
<path d="M0,0 L5,2 L5,5 L2,6 L0,3 Z " fill="#1B1A29" transform="translate(102,31)"/>
<path d="M0,0 L5,1 L5,4 L1,5 Z " fill="#231A19" transform="translate(25,30)"/>
<path d="M0,0 L1,3 L3,4 L-1,6 L-5,5 Z " fill="#1B1A21" transform="translate(85,15)"/>
<path d="M0,0 L4,1 L3,5 L-3,3 L0,2 Z " fill="#020302" transform="translate(101,14)"/>
<path d="M0,0 L5,1 L5,3 L9,4 L2,4 L0,3 Z " fill="#5E707E" transform="translate(84,8)"/>
<path d="M0,0 L2,0 L1,3 L-6,3 L-6,1 Z " fill="#261615" transform="translate(6,77)"/>
<path d="M0,0 L5,0 L5,3 L0,4 Z " fill="#0B1D2C" transform="translate(70,74)"/>
<path d="M0,0 L4,2 L2,4 L-3,3 Z " fill="#00060F" transform="translate(123,70)"/>
<path d="M0,0 L6,0 L6,2 L-1,3 L-2,1 Z " fill="#6C7283" transform="translate(79,66)"/>
<path d="M0,0 L4,2 L4,4 L-2,5 Z " fill="#160F0B" transform="translate(29,55)"/>
<path d="M0,0 L4,1 L4,7 L2,7 L2,2 L0,2 Z " fill="#868489" transform="translate(108,39)"/>
<path d="M0,0 L2,0 L2,7 L0,7 L-1,2 Z " fill="#130B08" transform="translate(32,30)"/>
<path d="M0,0 L7,0 L3,5 L1,5 L2,1 Z " fill="#231C1C" transform="translate(38,24)"/>
<path d="M0,0 L4,1 L5,8 L3,9 L3,4 L0,3 Z " fill="#4D4746" transform="translate(17,21)"/>
<path d="M0,0 L4,1 L5,6 L1,4 Z " fill="#3F565F" transform="translate(131,22)"/>
<path d="M0,0 L3,0 L3,2 L1,2 L1,5 L-2,6 L-1,1 Z " fill="#AB9F9F" transform="translate(23,22)"/>
<path d="M0,0 L2,1 L-2,4 L-7,3 L-7,1 Z " fill="#424852" transform="translate(77,16)"/>
<path d="M0,0 L2,3 L1,9 L-1,5 L-2,1 Z " fill="#1A0F0B" transform="translate(30,11)"/>
<path d="M0,0 L1,4 L-6,4 L-5,2 Z " fill="#010306" transform="translate(78,4)"/>
<path d="M0,0 L2,2 L0,6 L-6,6 L-2,4 Z " fill="#030C14" transform="translate(96,61)"/>
<path d="M0,0 L1,0 L1,5 L-2,7 L-3,3 L0,2 Z " fill="#98A8B7" transform="translate(124,60)"/>
<path d="M0,0 L2,0 L2,2 L0,2 L0,4 L-6,4 L-3,3 L-3,1 Z " fill="#7E7578" transform="translate(45,60)"/>
<path d="M0,0 L5,1 L5,5 L2,5 L2,1 Z " fill="#535E6B" transform="translate(123,59)"/>
<path d="M0,0 L5,0 L6,4 L3,4 L3,2 L-1,1 Z " fill="#627986" transform="translate(106,57)"/>
<path d="M0,0 L5,0 L4,5 L0,1 Z " fill="#0A0705" transform="translate(39,33)"/>
<path d="M0,0 L2,1 L4,7 L1,6 L-1,1 Z " fill="#120908" transform="translate(22,28)"/>
<path d="M0,0 L1,2 L3,2 L4,5 L-1,6 L-1,3 Z " fill="#3A3A42" transform="translate(60,17)"/>
<path d="M0,0 L6,0 L6,3 L0,2 Z " fill="#010304" transform="translate(45,10)"/>
<path d="M0,0 L5,0 L5,3 L0,3 Z " fill="#787679" transform="translate(7,5)"/>
<path d="M0,0 L6,1 L6,3 L1,3 L0,5 Z " fill="#120D10" transform="translate(52,0)"/>
<path d="M0,0 L3,0 L4,4 L-1,5 Z " fill="#32414C" transform="translate(117,75)"/>
<path d="M0,0 L5,0 L5,3 L-1,2 Z " fill="#384148" transform="translate(31,72)"/>
<path d="M0,0 L4,2 L3,4 L-1,4 Z " fill="#687B8A" transform="translate(71,70)"/>
<path d="M0,0 L1,2 L5,2 L5,4 L-2,4 L-2,2 L0,2 Z " fill="#51616F" transform="translate(77,58)"/>
<path d="M0,0 L5,1 L3,4 L-2,3 Z " fill="#362523" transform="translate(37,56)"/>
<path d="M0,0 L5,1 L3,2 L3,4 L-3,2 Z " fill="#293640" transform="translate(88,51)"/>
<path d="M0,0 L1,2 L6,3 L5,6 L0,4 Z " fill="#736053" transform="translate(24,48)"/>
<path d="M0,0 L4,0 L2,4 L-1,4 Z " fill="#838D98" transform="translate(112,48)"/>
<path d="M0,0 L1,0 L1,5 L-1,5 L-1,7 L-4,6 L-2,6 L-2,2 L0,2 Z " fill="#68534E" transform="translate(12,32)"/>
<path d="M0,0 L2,1 L1,4 L3,5 L-1,6 L-1,1 Z " fill="#5A5A64" transform="translate(117,13)"/>
<path d="M0,0 L4,1 L5,4 L0,3 Z " fill="#788390" transform="translate(125,8)"/>
<path d="M0,0 L2,1 L-2,5 L-4,4 L-3,1 Z " fill="#415262" transform="translate(108,4)"/>
<path d="M0,0 L3,0 L3,4 L-1,4 Z " fill="#565B71" transform="translate(83,80)"/>
<path d="M0,0 L5,1 L2,2 L2,4 L-3,4 L0,3 Z " fill="#2C4151" transform="translate(93,72)"/>
<path d="M0,0 L1,4 L6,4 L6,7 L0,5 Z " fill="#676765" transform="translate(22,68)"/>
<path d="M0,0 L5,0 L1,2 L1,4 L-1,4 L-2,1 Z " fill="#010913" transform="translate(64,65)"/>
<path d="M0,0 L6,0 L2,1 L2,3 L-3,3 Z " fill="#0C1D2B" transform="translate(97,65)"/>
<path d="M0,0 L2,0 L0,7 L-2,7 Z " fill="#1E1C23" transform="translate(141,45)"/>
<path d="M0,0 L2,0 L2,5 L-1,5 Z " fill="#55606D" transform="translate(130,37)"/>
<path d="M0,0 L2,0 L2,5 L-3,5 L-1,4 Z " fill="#383940" transform="translate(43,28)"/>
<path d="M0,0 L3,1 L3,4 L-4,3 L0,2 Z " fill="#4B535F" transform="translate(104,23)"/>
<path d="M0,0 L5,2 L4,5 L1,5 Z " fill="#232636" transform="translate(120,0)"/>
<path d="M0,0 L4,1 L3,4 L0,4 Z " fill="#B0AAA7" transform="translate(31,2)"/>
<path d="M0,0 L2,0 L2,2 L6,4 L0,4 Z " fill="#424042" transform="translate(6,0)"/>
<path d="M0,0 L3,0 L4,4 L0,3 Z " fill="#6C717D" transform="translate(50,76)"/>
<path d="M0,0 L3,1 L2,4 L-1,4 Z " fill="#34444D" transform="translate(128,71)"/>
<path d="M0,0 L5,0 L5,2 L1,3 L-2,1 Z " fill="#09141C" transform="translate(91,49)"/>
<path d="M0,0 L1,4 L-3,5 L-2,1 L0,2 Z " fill="#8A9DAD" transform="translate(108,47)"/>
<path d="M0,0 L2,1 L1,7 L-1,7 Z " fill="#3F4B55" transform="translate(119,45)"/>
<path d="M0,0 L3,1 L3,3 L-3,4 L-3,2 Z " fill="#091327" transform="translate(102,46)"/>
<path d="M0,0 L7,1 L5,3 L1,2 Z " fill="#657381" transform="translate(97,44)"/>
<path d="M0,0 L2,0 L1,5 L-2,5 L-1,1 Z " fill="#8C7B70" transform="translate(38,40)"/>
<path d="M0,0 L2,0 L4,5 L0,4 Z " fill="#070911" transform="translate(113,41)"/>
<path d="M0,0 L3,0 L2,5 L1,3 L-2,2 L0,2 Z " fill="#1E0D0A" transform="translate(19,30)"/>
<path d="M0,0 L5,2 L4,5 L4,3 L0,3 Z " fill="#0C151F" transform="translate(94,29)"/>
<path d="M0,0 L2,0 L1,6 L-1,6 Z " fill="#111929" transform="translate(122,24)"/>
<path d="M0,0 L4,5 L-1,4 L-2,1 Z " fill="#332C2E" transform="translate(16,21)"/>
<path d="M0,0 L2,1 L-1,5 L-3,5 L-4,2 L0,2 Z " fill="#303338" transform="translate(83,15)"/>
<path d="M0,0 L5,1 L4,5 L2,5 L2,1 Z " fill="#1B0F0C" transform="translate(40,13)"/>
<path d="M0,0 L2,1 L0,4 L-4,4 L-4,2 Z " fill="#4F5F67" transform="translate(108,7)"/>
<path d="M0,0 L5,1 L3,2 L3,4 L0,3 Z " fill="#697785" transform="translate(122,6)"/>
<path d="M0,0 L3,0 L2,4 L0,5 Z " fill="#465C6B" transform="translate(76,79)"/>
<path d="M0,0 L3,0 L3,4 L0,4 Z " fill="#15292F" transform="translate(127,78)"/>
<path d="M0,0 L1,0 L1,5 L-2,5 L-3,2 L0,2 Z " fill="#5E8390" transform="translate(93,77)"/>
<path d="M0,0 L3,0 L3,4 L0,4 Z " fill="#8DA0AF" transform="translate(111,67)"/>
<path d="M0,0 L8,1 L8,2 L2,3 L0,2 Z " fill="#8F8586" transform="translate(40,67)"/>
<path d="M0,0 L3,1 L1,4 L4,5 L0,5 L-1,1 Z " fill="#303F50" transform="translate(70,56)"/>
<path d="M0,0 L2,0 L2,5 L-1,5 Z " fill="#4E3D44" transform="translate(136,49)"/>
<path d="M0,0 L4,0 L4,2 L6,3 L3,5 L2,3 L3,1 Z " fill="#5B7282" transform="translate(101,50)"/>
<path d="M0,0 L4,2 L-3,3 L-3,1 Z " fill="#24120D" transform="translate(40,49)"/>
<path d="M0,0 L3,0 L3,5 L1,5 L1,3 L-1,3 Z " fill="#1E0B09" transform="translate(24,45)"/>
<path d="M0,0 L3,0 L3,3 L1,3 L0,6 Z " fill="#AA9FA0" transform="translate(16,45)"/>
<path d="M0,0 L3,0 L4,4 L0,3 Z " fill="#9B8F88" transform="translate(41,42)"/>
<path d="M0,0 L4,0 L4,3 L0,3 Z " fill="#695B55" transform="translate(0,39)"/>
<path d="M0,0 L4,0 L2,4 L1,2 L-1,1 Z " fill="#706057" transform="translate(35,33)"/>
<path d="M0,0 L2,0 L2,2 L-3,4 L-3,1 Z " fill="#948382" transform="translate(33,26)"/>
<path d="M0,0 L4,2 L4,4 L0,3 Z " fill="#2F2823" transform="translate(137,17)"/>
<path d="M0,0 L2,0 L3,4 L-1,5 Z " fill="#3B3B40" transform="translate(46,13)"/>
<path d="M0,0 L3,0 L2,4 L-1,3 Z " fill="#414754" transform="translate(97,0)"/>
<path d="M0,0 L2,0 L2,4 L-2,3 Z " fill="#596D79" transform="translate(79,80)"/>
<path d="M0,0 L4,1 L1,4 Z " fill="#607F8F" transform="translate(87,73)"/>
<path d="M0,0 L2,3 L2,6 L-1,6 Z " fill="#090D11" transform="translate(136,63)"/>
<path d="M0,0 L4,1 L4,3 L1,4 Z " fill="#6D7A8A" transform="translate(120,59)"/>
<path d="M0,0 L5,0 L4,3 L0,2 Z " fill="#4C4A55" transform="translate(63,56)"/>
<path d="M0,0 L3,0 L2,5 L0,2 Z " fill="#81909F" transform="translate(126,52)"/>
<path d="M0,0 L4,2 L4,3 L-1,3 Z " fill="#52606B" transform="translate(79,51)"/>
<path d="M0,0 L4,1 L3,3 L-1,2 Z " fill="#A08E7D" transform="translate(30,51)"/>
<path d="M0,0 L3,0 L3,3 L-2,3 L0,2 Z " fill="#0A0101" transform="translate(36,45)"/>
<path d="M0,0 L3,0 L2,4 L0,4 Z " fill="#1A4659" transform="translate(145,43)"/>
<path d="M0,0 L4,1 L1,3 L-2,2 Z " fill="#0C0B0C" transform="translate(106,41)"/>
<path d="M0,0 L3,1 L4,5 L0,3 Z " fill="#777C89" transform="translate(111,34)"/>
<path d="M0,0 L5,1 L1,4 Z " fill="#3D5460" transform="translate(127,28)"/>
<path d="M0,0 L3,2 L2,4 L-1,3 L-2,1 Z " fill="#4A4148" transform="translate(24,26)"/>
<path d="M0,0 L2,1 L2,3 L-3,4 L-2,1 Z " fill="#0E161A" transform="translate(58,16)"/>
<path d="M0,0 L2,1 L1,5 L-1,5 Z " fill="#6A5E59" transform="translate(22,15)"/>
<path d="M0,0 L4,1 L3,3 L0,3 Z " fill="#698492" transform="translate(95,70)"/>
<path d="M0,0 L2,4 L-2,3 Z " fill="#546574" transform="translate(84,57)"/>
<path d="M0,0 L6,0 L3,3 Z " fill="#111B22" transform="translate(79,50)"/>
<path d="M0,0 L4,1 L4,4 L0,2 Z " fill="#3D4C5B" transform="translate(104,45)"/>
<path d="M0,0 L1,4 L-2,5 Z " fill="#07040A" transform="translate(136,45)"/>
<path d="M0,0 L3,1 L3,3 L-1,4 Z " fill="#3C221E" transform="translate(16,39)"/>
<path d="M0,0 L5,1 L2,2 L1,4 Z " fill="#321F1C" transform="translate(13,29)"/>
<path d="M0,0 L2,0 L1,4 L-1,5 Z " fill="#42545D" transform="translate(90,24)"/>
<path d="M0,0 L3,0 L2,4 L0,3 Z " fill="#4B3B32" transform="translate(24,16)"/>
<path d="M0,0 L4,0 L4,2 L0,3 Z " fill="#061115" transform="translate(63,15)"/>
<path d="M0,0 L3,0 L3,3 L-1,2 Z " fill="#353943" transform="translate(132,13)"/>
<path d="M0,0 L4,0 L4,3 L0,2 Z " fill="#28232B" transform="translate(98,8)"/>
<path d="M0,0 L4,2 L0,3 Z " fill="#030812" transform="translate(66,75)"/>
<path d="M0,0 L1,4 L-2,4 Z " fill="#8FA4B3" transform="translate(106,70)"/>
<path d="M0,0 L2,0 L3,3 L-2,2 Z " fill="#3F5162" transform="translate(108,61)"/>
<path d="M0,0 L2,0 L2,4 L0,4 L-1,1 Z " fill="#4D3939" transform="translate(25,59)"/>
<path d="M0,0 L4,2 L2,2 L1,4 Z " fill="#020001" transform="translate(43,57)"/>
<path d="M0,0 L3,0 L3,3 L0,3 Z " fill="#080E15" transform="translate(77,55)"/>
<path d="M0,0 L3,0 L3,3 L0,3 Z " fill="#0C141F" transform="translate(116,35)"/>
<path d="M0,0 L3,0 L3,3 L0,3 Z " fill="#0E0F1C" transform="translate(116,24)"/>
<path d="M0,0 L3,1 L3,3 L-1,3 Z " fill="#161620" transform="translate(113,20)"/>
<path d="M0,0 L1,4 L-2,3 L-2,1 Z " fill="#272D2B" transform="translate(65,18)"/>
<path d="M0,0 L2,0 L2,2 L4,3 L-1,2 Z " fill="#B3B6C3" transform="translate(92,12)"/>
<path d="M0,0 L3,1 L3,3 L0,3 Z " fill="#13141C" transform="translate(20,79)"/>
<path d="M0,0 L4,2 L2,4 L0,3 Z " fill="#7C7770" transform="translate(10,66)"/>
<path d="M0,0 L2,3 L-1,4 Z " fill="#394952" transform="translate(91,61)"/>
<path d="M0,0 L2,1 L1,4 L-1,4 Z " fill="#374752" transform="translate(103,54)"/>
<path d="M0,0 L2,0 L2,3 L-2,1 Z " fill="#8C7D7C" transform="translate(17,42)"/>
<path d="M0,0 L3,1 L3,3 L0,3 Z " fill="#0F0302" transform="translate(11,40)"/>
<path d="M0,0 L3,1 L-1,3 Z " fill="#120708" transform="translate(29,25)"/>
<path d="M0,0 L3,0 L2,3 L0,3 Z " fill="#050205" transform="translate(98,11)"/>
<path d="M0,0 L2,0 L1,4 L-1,1 Z " fill="#465360" transform="translate(69,9)"/>
<path d="M0,0 L3,1 L3,3 L0,3 Z " fill="#4A4D5A" transform="translate(131,2)"/>
<path d="M0,0 L4,2 L1,3 Z " fill="#121311" transform="translate(36,66)"/>
<path d="M0,0 L3,0 L2,3 L0,2 Z " fill="#090F1D" transform="translate(128,42)"/>
<path d="M0,0 L3,1 L1,3 Z " fill="#33251A" transform="translate(29,55)"/>
</svg>
