<?xml version="1.0" encoding="UTF-8"?>
<!-- Generator: visioncortex VTracer 0.6.5 -->
<svg version="1.1" xmlns="http://www.w3.org/2000/svg" width="150" height="84">
<path d="M0,0 L150,0 L150,84 L0,84 Z " fill="#2D1A16" transform="translate(0,0)"/>
<path d="M0,0 L11,0 L12,6 L11,8 L14,8 L15,6 L16,9 L20,12 L20,16 L15,15 L16,21 L18,21 L21,27 L29,28 L29,83 L-51,83 L-51,75 L-46,75 L-46,73 L-31,70 L-28,68 L-29,65 L-25,63 L-22,63 L-22,61 L-16,61 L-15,58 L-20,59 L-26,63 L-30,64 L-32,66 L-36,67 L-34,60 L-31,60 L-31,58 L-24,58 L-21,57 L-22,55 L-32,56 L-33,52 L-37,52 L-37,50 L-41,50 L-40,53 L-44,53 L-44,55 L-48,56 L-50,51 L-47,48 L-36,45 L-30,47 L-29,44 L-26,44 L-26,46 L-21,45 L-21,43 L-18,43 L-17,47 L-20,49 L-16,48 L-13,47 L-13,43 L-14,40 L-19,40 L-24,41 L-21,40 L-22,29 L-26,30 L-26,24 L-20,23 L-22,21 L-22,18 L-15,18 L-11,20 L-10,16 L-9,14 L-13,13 L-15,11 L-15,8 L-10,8 L-10,6 L-5,4 L-3,1 Z " fill="#221F25" transform="translate(121,1)"/>
<path d="M0,0 L44,0 L44,29 L36,29 L33,24 L33,22 L31,22 L29,15 L35,17 L33,12 L29,9 L26,9 L26,1 L15,2 L12,3 L10,6 L5,7 L5,9 L2,10 L0,9 L3,14 L6,15 L4,21 L-7,19 L-6,22 L-4,24 L-5,25 L-11,25 L-10,30 L-7,30 L-6,34 L-6,41 L-1,40 L4,45 L2,49 L-2,51 L-7,50 L-3,47 L-3,44 L-6,44 L-6,46 L-11,47 L-11,45 L-14,46 L-15,48 L-23,47 L-32,50 L-34,50 L-33,56 L-29,56 L-29,54 L-26,53 L-26,51 L-22,51 L-22,53 L-18,53 L-17,56 L-6,55 L-6,59 L-11,60 L-16,59 L-16,61 L-19,63 L-21,68 L-15,64 L-8,61 L-3,58 L3,59 L-1,60 L-1,62 L-7,62 L-7,64 L-13,67 L-12,70 L-14,72 L-31,74 L-31,76 L-36,76 L-36,84 L-64,84 L-63,81 L-56,80 L-54,81 L-53,79 L-42,81 L-42,79 L-50,79 L-51,76 L-54,75 L-44,75 L-42,75 L-37,73 L-30,72 L-27,71 L-27,67 L-36,68 L-36,71 L-44,71 L-56,68 L-58,65 L-57,62 L-54,62 L-54,64 L-52,64 L-52,62 L-49,62 L-48,64 L-37,64 L-29,62 L-24,61 L-23,57 L-31,60 L-35,62 L-44,61 L-46,59 L-51,60 L-52,55 L-63,58 L-63,60 L-68,60 L-69,57 L-68,55 L-61,56 L-61,54 L-59,53 L-65,51 L-65,49 L-74,50 L-74,47 L-81,48 L-81,46 L-74,45 L-74,38 L-71,39 L-71,42 L-66,43 L-63,39 L-67,39 L-67,35 L-68,30 L-63,30 L-62,29 L-61,27 L-56,29 L-56,26 L-58,25 L-56,22 L-49,23 L-49,21 L-28,20 L-26,21 L-26,23 L-17,21 L-17,23 L-15,23 L-15,19 L-3,17 L-3,14 L-7,13 L-11,11 L-10,7 L-5,8 L-5,5 L-1,5 Z " fill="#000103" transform="translate(106,0)"/>
<path d="M0,0 L8,1 L13,3 L14,1 L15,6 L9,6 L14,7 L14,10 L21,12 L22,14 L32,14 L32,17 L41,16 L41,18 L48,19 L47,21 L45,21 L45,23 L38,22 L38,26 L43,27 L43,25 L51,22 L54,22 L56,26 L61,25 L63,27 L73,28 L76,25 L83,24 L84,28 L80,30 L75,31 L69,32 L58,32 L57,29 L54,29 L54,31 L49,30 L50,34 L63,37 L70,38 L70,35 L79,34 L79,38 L76,40 L64,42 L63,44 L60,42 L59,44 L59,42 L55,43 L56,45 L64,46 L64,48 L56,48 L52,48 L43,48 L42,51 L0,51 Z " fill="#0D0B0A" transform="translate(0,33)"/>
<path d="M0,0 L7,0 L11,5 L11,7 L21,6 L22,9 L27,13 L26,17 L20,18 L20,15 L18,15 L19,22 L27,24 L29,16 L30,16 L29,25 L28,27 L26,27 L24,33 L19,31 L18,24 L15,24 L15,28 L13,28 L12,31 L10,31 L11,34 L13,32 L17,32 L20,42 L15,42 L15,44 L13,44 L12,42 L10,49 L12,49 L13,46 L20,44 L25,44 L26,37 L30,35 L34,35 L34,39 L32,39 L32,42 L30,42 L30,44 L27,44 L27,49 L25,49 L25,51 L23,51 L23,53 L21,53 L20,55 L19,53 L14,52 L14,56 L16,56 L16,58 L21,58 L21,63 L17,65 L-29,65 L-29,57 L-24,57 L-24,55 L-9,52 L-6,50 L-7,47 L-3,45 L0,45 L0,43 L6,43 L7,40 L2,41 L-4,45 L-8,46 L-10,48 L-14,49 L-12,42 L-9,42 L-9,40 L-2,40 L1,39 L0,37 L-10,38 L-11,34 L-15,34 L-15,32 L-19,32 L-18,35 L-22,35 L-22,37 L-26,38 L-28,33 L-25,30 L-14,27 L-8,29 L-7,26 L-4,26 L-4,28 L1,27 L1,25 L4,25 L5,29 L2,31 L6,30 L9,29 L9,25 L8,22 L3,22 L-2,23 L1,22 L0,11 L-4,12 L-4,6 L2,5 L0,3 Z " fill="#1E2D3B" transform="translate(99,19)"/>
<path d="M0,0 L60,0 L59,5 L55,5 L55,8 L50,8 L50,11 L57,14 L57,17 L48,19 L45,19 L45,23 L40,24 L42,22 L34,23 L34,21 L11,21 L11,23 L4,22 L4,26 L4,29 L-1,28 L0,31 L-2,31 L-3,35 L-3,30 L-8,30 L-6,35 L-5,37 L-7,37 L-7,39 L-3,39 L-5,43 L-8,44 L-12,42 L-12,39 L-9,37 L-15,37 L-16,34 L-13,34 L-13,32 L-11,32 L-11,30 L-9,29 L-7,25 L-4,24 L-3,21 L8,19 L8,12 L2,12 L2,15 L0,15 Z " fill="#060A10" transform="translate(46,0)"/>
<path d="M0,0 L4,0 L4,3 L8,4 L8,6 L13,4 L22,5 L28,6 L29,11 L33,11 L33,9 L36,8 L36,6 L40,6 L40,8 L44,8 L45,11 L56,10 L56,14 L51,15 L46,14 L46,16 L43,18 L41,23 L47,19 L54,16 L59,13 L65,14 L61,15 L61,17 L55,17 L55,19 L49,22 L50,25 L48,27 L31,29 L31,31 L26,31 L26,39 L-2,39 L-1,36 L6,35 L8,36 L9,34 L20,36 L20,34 L12,34 L11,31 L8,30 L18,30 L20,30 L25,28 L32,27 L35,26 L35,22 L26,23 L26,26 L18,26 L6,23 L4,20 L5,17 L8,17 L8,19 L10,19 L10,17 L13,17 L14,19 L25,19 L33,17 L38,16 L39,12 L31,15 L27,17 L18,16 L16,14 L11,15 L10,10 L-1,13 L-1,15 L-6,15 L-7,12 L-6,10 L1,11 L1,9 L3,8 L-3,6 L-1,4 Z " fill="#050B15" transform="translate(44,45)"/>
<path d="M0,0 L4,0 L4,3 L11,5 L12,7 L22,7 L22,10 L31,9 L31,11 L38,12 L37,14 L35,14 L35,16 L28,15 L28,19 L33,20 L33,18 L41,15 L44,15 L46,19 L51,18 L53,20 L63,21 L66,18 L73,17 L74,21 L70,23 L65,24 L59,25 L48,25 L47,22 L44,22 L44,24 L39,23 L40,27 L52,30 L51,34 L34,34 L23,32 L23,30 L19,31 L17,29 L26,25 L31,26 L31,24 L28,24 L28,22 L14,20 L14,18 L19,17 L19,15 L16,14 L13,10 L4,10 L4,8 L2,8 L-1,1 Z " fill="#34333B" transform="translate(10,40)"/>
<path d="M0,0 L10,0 L10,35 L0,40 L-3,41 L-2,35 L2,35 L2,31 L-4,31 L-6,38 L-11,38 L-12,43 L-15,43 L-14,36 L-13,33 L-10,33 L-10,29 L-1,28 L1,25 L1,21 L-3,23 L-3,14 L-5,14 L-5,12 L-9,11 L-9,9 L-9,4 L-7,3 L-6,5 L-4,3 L0,3 Z " fill="#484A59" transform="translate(140,36)"/>
<path d="M0,0 L7,0 L11,5 L11,7 L21,6 L22,9 L27,13 L26,17 L20,18 L20,15 L18,15 L19,22 L27,24 L29,16 L30,16 L29,25 L28,27 L26,27 L24,33 L19,31 L18,24 L15,24 L14,28 L13,22 L10,22 L10,24 L13,25 L12,28 L10,28 L8,22 L3,22 L-2,23 L1,22 L0,11 L-4,12 L-4,6 L2,5 L0,3 Z " fill="#34343D" transform="translate(99,19)"/>
<path d="M0,0 L11,0 L12,6 L11,8 L14,8 L15,6 L16,9 L20,12 L20,16 L15,15 L16,21 L18,21 L21,27 L29,28 L29,30 L17,30 L16,33 L14,33 L14,35 L12,35 L11,28 L8,29 L8,24 L5,23 L5,21 L-1,19 L0,14 L3,13 L11,13 L13,14 L13,12 L-7,12 L-8,9 L-11,10 L-10,6 L-5,4 L-3,1 Z " fill="#477085" transform="translate(121,1)"/>
<path d="M0,0 L22,0 L22,15 L17,18 L15,18 L18,21 L21,22 L21,25 L24,26 L22,29 L19,26 L13,24 L4,24 L4,22 L0,22 Z " fill="#040406" transform="translate(0,0)"/>
<path d="M0,0 L7,1 L8,3 L26,3 L28,4 L28,6 L18,6 L15,7 L15,11 L21,12 L21,15 L23,16 L24,20 L26,20 L27,27 L29,27 L29,25 L31,25 L32,21 L44,22 L44,27 L34,27 L34,30 L30,31 L28,34 L26,31 L24,34 L22,34 L22,30 L20,34 L12,33 L10,27 L11,25 L13,25 L14,27 L19,26 L19,23 L16,21 L14,19 L14,16 L4,17 L2,12 L4,12 L5,8 L6,6 L2,5 L0,3 Z " fill="#17212F" transform="translate(106,9)"/>
<path d="M0,0 L4,0 L4,3 L8,4 L8,6 L13,4 L22,5 L28,6 L29,11 L33,11 L33,9 L36,8 L36,6 L40,6 L40,8 L44,8 L45,11 L56,10 L56,14 L51,15 L46,14 L46,16 L40,18 L36,17 L39,15 L39,12 L31,15 L27,17 L18,16 L16,14 L11,15 L10,10 L-1,13 L-1,15 L-6,15 L-7,12 L-6,10 L1,11 L1,9 L3,8 L-3,6 L-1,4 Z " fill="#101C25" transform="translate(44,45)"/>
<path d="M0,0 L18,0 L18,29 L10,29 L7,24 L7,22 L5,22 L3,15 L9,17 L7,12 L3,9 L0,9 Z " fill="#222025" transform="translate(132,0)"/>
<path d="M0,0 L26,0 L26,1 L15,2 L12,3 L10,6 L5,7 L5,9 L2,10 L0,9 L3,14 L6,15 L4,21 L-7,19 L-6,22 L-4,24 L-5,25 L-11,25 L-11,28 L-20,29 L-23,28 L-24,22 L-17,21 L-17,23 L-15,23 L-15,19 L-3,17 L-3,14 L-7,13 L-11,11 L-10,7 L-5,8 L-5,5 L-1,5 Z " fill="#0F1619" transform="translate(106,0)"/>
<path d="M0,0 L6,0 L6,4 L3,6 L-9,8 L-10,10 L-13,8 L-14,10 L-14,8 L-18,9 L-17,11 L-9,12 L-9,14 L-17,14 L-21,14 L-30,14 L-31,17 L-34,17 L-34,15 L-40,15 L-42,12 L-49,10 L-49,7 L-52,7 L-52,5 L-46,5 L-46,7 L-41,6 L-41,4 L-43,3 L-40,3 L-40,5 L-12,7 L-10,3 L-3,4 L-3,1 Z " fill="#292E39" transform="translate(73,67)"/>
<path d="M0,0 L2,0 L3,3 L8,6 L8,8 L11,8 L11,10 L5,12 L7,12 L7,16 L11,18 L11,19 L1,20 L1,22 L5,22 L5,24 L-3,23 L-3,21 L-10,20 L-10,1 Z " fill="#5B7788" transform="translate(10,52)"/>
<path d="M0,0 L4,0 L4,4 L2,4 L2,7 L0,7 L0,9 L-3,9 L-3,14 L-5,14 L-5,16 L-7,16 L-7,18 L-9,18 L-10,20 L-11,18 L-16,17 L-16,21 L-14,21 L-14,23 L-9,23 L-9,28 L-13,30 L-27,30 L-27,28 L-20,25 L-20,22 L-25,23 L-25,25 L-30,25 L-30,19 L-24,18 L-23,16 L-19,16 L-17,11 L-10,9 L-5,9 L-4,2 Z " fill="#576F7F" transform="translate(129,54)"/>
<path d="M0,0 L7,1 L7,3 L24,3 L24,5 L31,6 L33,9 L39,10 L39,12 L0,12 Z " fill="#0D0D16" transform="translate(0,72)"/>
<path d="M0,0 L1,0 L2,9 L6,11 L7,8 L10,12 L14,12 L14,20 L19,21 L19,23 L11,25 L11,27 L9,27 L8,29 L2,28 L2,25 L-1,25 L-1,22 L-6,21 L-7,18 L-3,15 L0,15 Z " fill="#251E25" transform="translate(22,0)"/>
<path d="M0,0 L8,1 L13,3 L14,1 L15,6 L9,6 L12,12 L12,15 L14,15 L14,17 L23,16 L27,21 L29,22 L29,24 L25,25 L22,22 L19,21 L19,19 L10,20 L0,20 Z " fill="#0B0707" transform="translate(0,33)"/>
<path d="M0,0 L8,0 L9,3 L5,7 L3,7 L3,5 L-20,5 L-20,7 L-27,6 L-27,10 L-27,13 L-32,12 L-31,15 L-33,15 L-34,19 L-34,14 L-39,14 L-37,19 L-36,21 L-38,21 L-38,23 L-34,23 L-36,27 L-39,28 L-43,26 L-43,23 L-40,21 L-46,21 L-47,18 L-44,18 L-44,16 L-42,16 L-42,14 L-40,13 L-38,9 L-35,8 L-34,5 L-20,2 L-11,2 L-2,3 L-2,1 Z " fill="#454F5E" transform="translate(77,16)"/>
<path d="M0,0 L22,0 L22,13 L15,13 L15,20 L12,20 L12,13 L8,13 L6,9 L5,11 L0,9 Z " fill="#020102" transform="translate(23,0)"/>
<path d="M0,0 L4,0 L4,3 L11,5 L12,7 L22,7 L22,10 L31,9 L31,11 L38,12 L37,14 L35,14 L35,16 L28,15 L28,19 L33,21 L33,22 L25,22 L14,20 L14,18 L19,17 L19,15 L16,14 L13,10 L4,10 L4,8 L2,8 L-1,1 Z " fill="#88766A" transform="translate(10,40)"/>
<path d="M0,0 L17,0 L17,7 L15,7 L15,13 L18,13 L18,16 L20,17 L19,18 L9,19 L8,12 L2,12 L2,15 L0,15 Z " fill="#02060A" transform="translate(46,0)"/>
<path d="M0,0 L6,0 L6,4 L2,4 L1,10 L11,4 L14,4 L14,17 L-7,17 L-7,7 L-2,7 Z " fill="#010406" transform="translate(136,67)"/>
<path d="M0,0 L1,0 L1,6 L-6,8 L-1,8 L-3,9 L-2,12 L4,13 L4,15 L-25,15 L-25,7 L-2,4 L-2,2 L0,2 Z " fill="#0E1828" transform="translate(95,69)"/>
<path d="M0,0 L7,1 L8,3 L26,3 L28,4 L28,6 L18,6 L15,7 L15,11 L21,12 L18,13 L19,17 L21,17 L20,21 L16,22 L14,19 L14,16 L4,17 L2,12 L4,12 L5,8 L6,6 L2,5 L0,3 Z " fill="#28272B" transform="translate(106,9)"/>
<path d="M0,0 L4,0 L4,3 L8,4 L8,6 L21,6 L21,8 L18,8 L18,10 L26,11 L25,13 L23,13 L23,16 L18,16 L16,14 L11,15 L10,10 L-1,13 L-1,15 L-6,15 L-7,12 L-6,10 L1,11 L1,9 L3,8 L-3,6 L-1,4 Z " fill="#2B2E34" transform="translate(44,45)"/>
<path d="M0,0 L2,0 L3,4 L1,4 L1,6 L10,3 L12,2 L13,8 L15,8 L18,14 L26,15 L26,17 L14,17 L13,20 L11,20 L11,22 L9,22 L8,15 L5,16 L5,11 L2,10 L2,8 L-4,6 L-3,1 Z " fill="#416272" transform="translate(124,14)"/>
<path d="M0,0 L1,0 L1,15 L3,15 L3,12 L9,12 L10,19 L9,20 L-2,21 L-3,25 L-6,26 L-8,30 L-14,31 L-14,27 L-12,27 L-12,25 L-7,23 L-4,23 L-4,21 L-7,20 L-7,13 L0,13 Z " fill="#1D1B25" transform="translate(45,0)"/>
<path d="M0,0 L7,0 L11,5 L11,7 L21,6 L22,9 L27,13 L26,17 L20,18 L20,15 L18,15 L18,23 L14,21 L12,19 L12,15 L16,15 L16,10 L7,8 L4,6 L4,4 L0,3 Z " fill="#656D7A" transform="translate(99,19)"/>
<path d="M0,0 L3,0 L4,6 L2,9 L0,9 L1,12 L3,10 L7,10 L10,20 L5,20 L5,22 L3,22 L2,20 L-2,24 L-6,26 L-11,26 L-11,24 L-9,24 L-9,22 L-4,21 L-2,14 L-6,15 L-4,8 L2,6 L2,3 L0,2 Z " fill="#324453" transform="translate(109,41)"/>
<path d="M0,0 L26,0 L26,1 L15,2 L12,3 L10,6 L5,7 L5,9 L2,10 L0,9 L0,11 L-3,11 L-3,14 L-7,13 L-11,11 L-10,7 L-5,8 L-5,5 L-1,5 Z " fill="#01040D" transform="translate(106,0)"/>
<path d="M0,0 L3,0 L5,7 L7,6 L8,12 L12,13 L10,20 L-2,22 L-3,26 L-8,26 L-5,25 L-5,19 L-2,17 L-2,20 L0,20 L0,18 L4,17 L4,13 L2,12 L2,8 L-3,10 L-5,11 L-5,7 L-2,4 L0,4 Z " fill="#090F16" transform="translate(114,43)"/>
<path d="M0,0 L6,0 L6,2 L4,2 L4,6 L1,6 L-1,16 L3,15 L3,21 L-10,21 L-9,19 L-6,19 L-6,14 L-11,14 L-11,12 L-13,12 L-13,8 L-8,8 L-4,9 L-4,7 L-2,7 L-2,5 L0,5 Z " fill="#0C1C26" transform="translate(126,63)"/>
<path d="M0,0 L4,0 L4,4 L2,4 L2,7 L0,7 L0,9 L-3,9 L-3,14 L-5,14 L-5,16 L-7,16 L-7,18 L-9,18 L-10,20 L-11,18 L-16,17 L-17,21 L-18,14 L-17,11 L-10,9 L-5,9 L-4,2 Z " fill="#566777" transform="translate(129,54)"/>
<path d="M0,0 L9,2 L9,4 L19,4 L26,6 L25,9 L8,9 L-3,7 L-3,5 L-7,6 L-9,4 Z " fill="#6D7F8B" transform="translate(36,65)"/>
<path d="M0,0 L18,0 L18,5 L15,5 L16,10 L15,11 L10,11 L6,7 L7,11 L3,9 L0,9 Z " fill="#191623" transform="translate(132,0)"/>
<path d="M0,0 L2,3 L6,8 L9,8 L9,10 L-1,15 L-4,16 L-3,10 L1,10 L1,6 L-5,6 L-7,13 L-12,13 L-13,18 L-16,18 L-15,11 L-14,8 L-11,8 L-11,4 L-2,3 Z " fill="#212E34" transform="translate(141,61)"/>
<path d="M0,0 L2,0 L2,5 L12,5 L12,7 L14,7 L13,11 L11,14 L6,14 L7,17 L5,17 L5,15 L1,15 L1,13 L-2,13 L-3,9 L-2,7 L0,7 Z M12,2 Z " fill="#1B2230" transform="translate(63,0)"/>
<path d="M0,0 L11,0 L12,6 L11,8 L14,8 L15,6 L15,9 L9,9 L9,6 L-1,7 L-1,9 L-6,11 L-1,11 L-1,12 L-7,12 L-8,9 L-11,10 L-10,6 L-5,4 L-3,1 Z " fill="#3D5263" transform="translate(121,1)"/>
<path d="M0,0 L10,0 L11,3 L13,3 L13,5 L18,5 L18,9 L-10,9 L-9,6 L-2,5 L0,6 L1,4 L12,6 L12,4 L4,4 L3,1 Z " fill="#03070E" transform="translate(52,75)"/>
<path d="M0,0 L7,1 L7,3 L13,4 L14,9 L10,9 L11,12 L0,12 Z " fill="#06060C" transform="translate(0,72)"/>
<path d="M0,0 L27,0 L27,2 L23,2 L23,4 L17,6 L10,7 L10,5 L0,5 Z M10,2 L11,5 Z " fill="#131424" transform="translate(65,0)"/>
<path d="M0,0 L5,0 L5,2 L10,2 L11,5 L18,8 L18,11 L9,11 L8,9 L4,9 L4,7 L-1,7 L-1,5 L-3,4 L-2,2 L0,2 Z " fill="#757D8A" transform="translate(85,6)"/>
<path d="M0,0 L6,1 L8,5 L6,5 L5,9 L5,4 L0,4 L2,9 L3,11 L1,11 L1,13 L5,13 L3,17 L0,18 L-4,16 L-4,13 L-1,11 L-7,11 L-8,8 L-5,8 L-5,6 L-3,6 L-3,4 L-1,3 Z " fill="#3C3947" transform="translate(38,26)"/>
<path d="M0,0 L1,0 L2,9 L7,11 L9,21 L0,22 L0,18 L-2,18 L-3,20 L-3,15 L0,15 Z " fill="#403A39" transform="translate(22,0)"/>
<path d="M0,0 L5,0 L5,5 L-1,6 L-1,8 L-3,8 L-3,6 L-11,7 L-12,4 L-21,6 L-19,2 L-12,3 L-12,1 Z " fill="#0D1015" transform="translate(69,20)"/>
<path d="M0,0 L9,1 L15,2 L16,7 L20,7 L20,5 L25,5 L23,6 L22,9 L17,12 L14,13 L10,12 L10,9 L12,8 L5,6 L5,4 L8,4 L8,2 L-1,2 Z " fill="#0E1A28" transform="translate(57,49)"/>
<path d="M0,0 L17,0 L17,7 L0,6 Z " fill="#010205" transform="translate(46,0)"/>
<path d="M0,0 L6,0 L6,2 L19,3 L24,4 L24,8 L14,8 L3,5 L3,2 L0,2 Z " fill="#737F8B" transform="translate(21,72)"/>
<path d="M0,0 L1,0 L1,6 L-5,7 L-6,9 L-25,11 L-25,7 L-2,4 L-2,2 L0,2 Z " fill="#6D93A1" transform="translate(95,69)"/>
<path d="M0,0 L12,0 L12,5 L9,6 L9,8 L0,10 Z " fill="#5A595B" transform="translate(0,0)"/>
<path d="M0,0 L4,0 L5,4 L1,6 L-4,7 L-18,7 L-22,4 L-22,2 L-18,1 L-16,3 L-6,4 L-3,1 Z " fill="#596D7A" transform="translate(79,57)"/>
<path d="M0,0 L2,1 L2,4 L5,3 L3,7 L-5,11 L-12,14 L-14,16 L-18,17 L-16,10 L-13,10 L-13,8 L-6,8 L-3,7 L-1,2 L-4,1 Z " fill="#384754" transform="translate(103,51)"/>
<path d="M0,0 L5,1 L8,5 L6,9 L2,11 L-3,10 L1,7 L1,4 L-2,4 L-2,6 L-7,7 L-7,5 L-10,6 L-11,8 L-15,6 L-12,4 L-2,2 Z " fill="#05070A" transform="translate(102,40)"/>
<path d="M0,0 L8,0 L5,3 L2,2 L2,9 L-5,10 L-5,12 L-8,11 L-6,11 L-8,1 Z " fill="#402823" transform="translate(30,36)"/>
<path d="M0,0 L1,0 L0,9 L-1,11 L-3,11 L-5,17 L-10,15 L-11,8 L-14,8 L-15,12 L-16,7 L-10,6 L-2,8 Z " fill="#323844" transform="translate(128,35)"/>
<path d="M0,0 L4,0 L6,9 L4,9 L4,11 L-7,9 L-7,6 L-2,5 L-2,2 L0,2 Z " fill="#8E8085" transform="translate(7,24)"/>
<path d="M0,0 L1,2 L4,3 L2,3 L2,6 L-3,7 L-6,6 L-4,12 L-4,16 L-7,16 L-11,11 L-10,6 L-12,6 L-12,4 L-4,3 L-1,3 Z " fill="#120201" transform="translate(28,31)"/>
<path d="M0,0 L7,1 L7,13 L3,14 L-1,8 Z " fill="#3B5E74" transform="translate(143,56)"/>
<path d="M0,0 L3,0 L4,6 L2,9 L0,9 L1,12 L3,10 L7,11 L4,16 L-3,18 L-2,14 L-6,15 L-4,8 L2,6 L2,3 L0,2 Z " fill="#5B6E7B" transform="translate(109,41)"/>
<path d="M0,0 L6,0 L6,4 L2,4 L1,10 L4,9 L2,13 L-1,14 L-2,12 L-7,11 L-7,7 L-2,7 Z " fill="#18252D" transform="translate(136,67)"/>
<path d="M0,0 L2,0 L2,3 L11,2 L11,4 L18,5 L17,7 L15,7 L15,9 L8,8 L6,12 L1,10 L3,7 L6,6 L1,4 Z " fill="#493A38" transform="translate(30,47)"/>
<path d="M0,0 L11,0 L12,2 L15,1 L20,2 L20,4 L14,5 L10,4 L10,2 L6,2 L7,5 L3,5 L3,7 L-1,8 L-3,3 Z " fill="#1A262E" transform="translate(74,49)"/>
<path d="M0,0 L12,1 L12,6 L2,6 L2,9 L-3,10 L-3,7 L-1,6 L-2,4 Z " fill="#2C2F40" transform="translate(138,30)"/>
<path d="M0,0 L9,2 L10,7 L6,6 L7,14 L3,14 L2,10 L-1,9 L0,5 L2,4 L0,3 Z " fill="#0E0F1B" transform="translate(104,26)"/>
<path d="M0,0 L3,1 L1,4 L-3,4 L-3,12 L-5,12 L-5,14 L-11,13 L-11,9 L-12,4 L-7,4 L-6,3 L-5,1 L0,3 Z " fill="#0D1421" transform="translate(50,26)"/>
<path d="M0,0 L3,1 L3,4 L8,5 L10,4 L10,7 L8,7 L8,11 L6,12 L0,12 L0,9 L-7,10 L-7,8 L0,7 Z " fill="#281714" transform="translate(32,38)"/>
<path d="M0,0 L5,0 L5,7 L-7,9 L-8,13 L-13,13 L-10,12 L-10,6 L-7,4 L-7,7 L-5,7 L-5,5 L-1,4 Z " fill="#111C2B" transform="translate(119,56)"/>
<path d="M0,0 L7,0 L7,2 L11,1 L11,5 L13,6 L11,10 L14,11 L14,13 L9,12 L9,8 L6,8 L4,5 L0,3 Z " fill="#352425" transform="translate(12,52)"/>
<path d="M0,0 L3,0 L3,15 L-4,10 L-6,10 L-9,5 L-9,2 L-5,4 L-5,6 L0,5 Z " fill="#141C27" transform="translate(147,5)"/>
<path d="M0,0 L13,0 L12,5 L8,5 L8,8 L2,8 L2,6 L0,6 Z " fill="#3A5560" transform="translate(93,0)"/>
<path d="M0,0 L1,2 L3,3 L2,6 L7,7 L7,8 L2,8 L2,12 L4,13 L3,16 L-1,16 L-1,10 L0,8 L-2,8 L-4,5 L-7,6 L-7,2 Z " fill="#414F62" transform="translate(102,23)"/>
<path d="M0,0 L2,1 L4,2 L12,1 L10,2 L10,4 L7,5 L5,4 L5,6 L2,6 L2,9 L-2,8 L-6,6 L-5,2 L0,3 Z " fill="#1B2932" transform="translate(101,5)"/>
<path d="M0,0 L6,0 L6,6 L3,7 L2,10 L-12,11 L-10,9 L-3,8 L-3,6 L-1,5 Z " fill="#241F20" transform="translate(12,0)"/>
<path d="M0,0 L7,0 L11,5 L11,7 L21,6 L22,10 L18,8 L11,9 L4,6 L4,4 L0,3 Z " fill="#6C7985" transform="translate(99,19)"/>
<path d="M0,0 L6,2 L10,4 L10,6 L6,8 L5,3 L-6,6 L-6,8 L-11,8 L-12,5 L-11,3 L-4,4 L-4,2 L0,2 Z " fill="#181419" transform="translate(49,52)"/>
<path d="M0,0 L4,4 L5,11 L3,11 L2,14 L0,14 L1,7 L-5,6 L-6,9 L-8,2 L-2,4 L-2,2 L0,2 Z " fill="#2E3640" transform="translate(143,13)"/>
<path d="M0,0 L5,0 L5,13 L-1,13 Z " fill="#14181C" transform="translate(40,0)"/>
<path d="M0,0 L8,1 L9,4 L16,4 L16,5 L6,6 L6,10 L1,11 L3,9 L-1,8 L0,3 L3,3 L3,1 Z " fill="#1F2229" transform="translate(85,13)"/>
<path d="M0,0 L6,0 L5,5 L4,6 L-1,6 L0,9 L-2,9 L-2,7 L-6,7 L-7,3 L-5,3 L-5,1 Z " fill="#4A5F6A" transform="translate(70,8)"/>
<path d="M0,0 L6,0 L6,5 L-12,5 L-12,2 L-1,1 Z " fill="#4A6676" transform="translate(83,79)"/>
<path d="M0,0 L9,2 L11,6 L14,6 L14,8 L2,8 L3,4 L0,3 Z " fill="#837084" transform="translate(7,54)"/>
<path d="M0,0 L4,0 L4,2 L6,2 L6,0 L9,0 L10,2 L15,4 L13,5 L12,8 L2,6 L0,3 Z " fill="#071825" transform="translate(48,62)"/>
<path d="M0,0 L2,1 L2,3 L4,4 L3,7 L3,11 L-4,11 L-5,6 L-4,4 L-2,4 Z " fill="#030813" transform="translate(129,42)"/>
<path d="M0,0 L5,1 L5,4 L3,4 L3,6 L-2,7 L-2,9 L-7,9 L-7,3 L-1,2 Z " fill="#8598A8" transform="translate(106,70)"/>
<path d="M0,0 L6,0 L6,2 L4,2 L5,6 L2,6 L2,8 L5,9 L-4,9 L-8,8 L-8,6 L1,4 L-2,1 Z " fill="#4A5058" transform="translate(19,66)"/>
<path d="M0,0 L10,4 L7,7 L-6,7 L-6,4 L-8,4 L-8,9 L-9,9 L-9,4 L-12,3 L-2,2 L-1,4 L3,5 L0,2 Z " fill="#1A1513" transform="translate(23,60)"/>
<path d="M0,0 L1,4 L-5,7 L-7,7 L-7,9 L-10,9 L-10,7 L-16,7 L-15,4 L-5,4 L-5,2 Z " fill="#314151" transform="translate(109,75)"/>
<path d="M0,0 L5,0 L5,2 L14,2 L12,4 L12,9 L10,7 L7,8 L7,10 L5,10 L5,5 L2,5 L2,2 L0,2 Z " fill="#484F59" transform="translate(2,60)"/>
<path d="M0,0 L4,0 L4,5 L1,5 L2,10 L1,11 L-4,11 L-5,4 L0,4 Z " fill="#242331" transform="translate(146,0)"/>
<path d="M0,0 L6,1 L2,2 L2,4 L-4,4 L-4,6 L-10,9 L-9,12 L-13,11 L-19,11 L-18,8 L-18,10 L-12,6 L-5,3 Z " fill="#05111B" transform="translate(103,58)"/>
<path d="M0,0 L7,0 L7,7 L0,6 L0,11 L-3,7 L-3,4 L-1,2 Z " fill="#36454F" transform="translate(143,50)"/>
<path d="M0,0 L1,0 L1,15 L3,15 L3,12 L6,12 L6,15 L-2,18 L-7,17 L-7,13 L0,13 Z " fill="#424348" transform="translate(45,0)"/>
<path d="M0,0 L11,2 L15,4 L12,5 L12,8 L7,8 L5,6 L2,5 L4,5 L4,3 L1,4 Z " fill="#444B5A" transform="translate(55,53)"/>
<path d="M0,0 L8,0 L11,3 L12,5 L24,8 L20,9 L7,7 L7,5 L3,4 L3,2 L0,2 Z " fill="#2F2A2F" transform="translate(38,62)"/>
<path d="M0,0 L4,0 L4,8 L-3,11 L-8,12 L-11,10 L-4,10 L-3,6 L0,6 Z " fill="#150B09" transform="translate(18,0)"/>
<path d="M0,0 L3,1 L2,4 L7,6 L7,8 L-3,7 L-3,5 L-7,6 L-9,4 Z " fill="#6B666B" transform="translate(36,65)"/>
<path d="M0,0 L2,0 L2,3 L4,4 L7,10 L3,9 L3,6 L-1,7 L-1,11 L-5,10 L-7,8 L-5,8 L-5,6 L-3,6 L-2,1 Z " fill="#0C0B0C" transform="translate(45,39)"/>
<path d="M0,0 L4,1 L1,1 L1,3 L-1,3 L-1,5 L10,2 L10,6 L12,8 L10,9 L7,8 L6,10 L6,8 L4,8 L4,6 L-3,6 L-3,2 L0,2 Z " fill="#334454" transform="translate(99,62)"/>
<path d="M0,0 L10,0 L10,5 L0,5 L-4,3 L0,3 Z " fill="#3C4454" transform="translate(140,36)"/>
<path d="M0,0 L4,4 L8,4 L8,11 L6,11 L6,13 L3,13 L0,3 Z " fill="#373941" transform="translate(28,8)"/>
<path d="M0,0 L9,0 L9,2 L13,3 L14,5 L7,6 L1,3 Z " fill="#02050B" transform="translate(15,75)"/>
<path d="M0,0 L4,0 L4,3 L10,5 L9,9 L2,8 L-1,1 Z " fill="#9F9293" transform="translate(10,40)"/>
<path d="M0,0 L8,3 L7,5 L-10,5 L-9,2 L-2,1 L0,2 Z " fill="#141018" transform="translate(52,79)"/>
<path d="M0,0 L6,0 L6,4 L3,6 L-6,7 L-6,5 L-4,4 L-3,1 Z " fill="#272B3C" transform="translate(73,67)"/>
<path d="M0,0 L3,0 L5,2 L8,2 L8,4 L-2,9 L-5,10 L-4,4 L0,4 Z " fill="#142535" transform="translate(142,67)"/>
<path d="M0,0 L4,0 L4,2 L6,1 L13,1 L13,6 L11,2 L7,2 L7,4 L5,4 L5,7 L0,8 Z " fill="#475966" transform="translate(0,22)"/>
<path d="M0,0 L4,1 L4,3 L-4,5 L-4,7 L-6,7 L-7,9 L-13,8 L-12,4 L-10,5 L-11,7 L-6,3 Z " fill="#655C66" transform="translate(37,20)"/>
<path d="M0,0 L5,0 L13,4 L13,5 L5,5 L-6,3 L-6,1 Z " fill="#948786" transform="translate(30,57)"/>
<path d="M0,0 L7,0 L7,7 L0,7 Z " fill="#38515A" transform="translate(143,43)"/>
<path d="M0,0 L1,3 L-1,5 L1,7 L-1,7 L-1,9 L-10,9 L-12,5 L-8,5 L-7,4 L-2,3 Z " fill="#0E1D2B" transform="translate(76,10)"/>
<path d="M0,0 L8,1 L4,9 L0,9 Z " fill="#2E2120" transform="translate(0,33)"/>
<path d="M0,0 L3,1 L1,2 L0,5 L-4,7 L-9,7 L-9,5 L-7,5 L-8,1 L-2,1 L0,2 Z " fill="#49657B" transform="translate(134,13)"/>
<path d="M0,0 L8,0 L9,3 L5,7 L3,7 L2,3 L-2,3 L-2,1 Z " fill="#4B565F" transform="translate(77,16)"/>
<path d="M0,0 L22,1 L21,3 L0,3 Z " fill="#404751" transform="translate(57,18)"/>
<path d="M0,0 L14,0 L14,2 L10,2 L10,4 L4,6 L3,2 L0,2 Z " fill="#01060C" transform="translate(78,0)"/>
<path d="M0,0 L8,0 L8,5 L6,6 L0,6 Z " fill="#6C6C6D" transform="translate(0,0)"/>
<path d="M0,0 L6,0 L4,4 L-2,7 L-7,7 L-7,5 L-5,5 L-5,3 L0,2 Z " fill="#6D8593" transform="translate(105,60)"/>
<path d="M0,0 L2,0 L2,3 L-3,2 L-2,5 L0,6 L-1,10 L-3,10 L-3,8 L-6,8 L-4,3 L-10,3 L-10,1 Z " fill="#657887" transform="translate(10,52)"/>
<path d="M0,0 L2,0 L3,2 L9,1 L9,3 L6,3 L7,6 L6,8 L1,8 L-1,2 Z " fill="#222E3B" transform="translate(117,34)"/>
<path d="M0,0 L9,0 L11,3 L10,5 L13,5 L14,3 L14,6 L8,6 L8,3 L-2,3 L0,2 Z " fill="#46586D" transform="translate(122,4)"/>
<path d="M0,0 L11,0 L10,4 L-4,4 L-3,1 Z " fill="#384151" transform="translate(121,1)"/>
<path d="M0,0 L4,1 L4,5 L1,6 L-1,8 L-5,9 L-3,2 L0,2 Z " fill="#546973" transform="translate(90,59)"/>
<path d="M0,0 L4,2 L10,3 L9,6 L1,6 L-3,3 L-3,1 Z " fill="#6F8392" transform="translate(60,58)"/>
<path d="M0,0 L4,0 L4,2 L8,2 L7,7 L5,8 L0,6 L0,2 Z " fill="#040C16" transform="translate(80,51)"/>
<path d="M0,0 L1,0 L1,6 L-5,7 L-6,9 L-10,8 L-9,6 L-11,5 L-2,4 L-2,2 L0,2 Z " fill="#647D8C" transform="translate(95,69)"/>
<path d="M0,0 L2,3 L2,6 L6,7 L4,9 L-1,7 L-2,9 L-2,7 L-4,6 L-4,2 L0,2 Z " fill="#263038" transform="translate(120,49)"/>
<path d="M0,0 L1,0 L1,6 L3,6 L3,8 L-2,8 L-2,6 L-7,6 L-7,4 L-4,4 L-5,1 L0,2 Z " fill="#192A36" transform="translate(92,0)"/>
<path d="M0,0 L2,0 L2,3 L-2,3 L-3,6 L-6,6 L-6,4 L-12,4 L-13,1 L0,2 Z " fill="#2E303D" transform="translate(45,78)"/>
<path d="M0,0 L6,0 L6,4 L2,4 L0,8 L-3,7 Z " fill="#0A1018" transform="translate(136,67)"/>
<path d="M0,0 L4,2 L2,6 L5,7 L5,9 L0,8 L0,4 L-3,4 L-4,1 Z " fill="#392D2C" transform="translate(21,56)"/>
<path d="M0,0 L6,2 L3,9 L-1,8 L-1,1 Z " fill="#6A7581" transform="translate(120,43)"/>
<path d="M0,0 L12,1 L12,5 L4,5 L3,3 L0,2 Z " fill="#171625" transform="translate(138,30)"/>
<path d="M0,0 L4,4 L4,6 L6,6 L5,9 L-4,10 L-1,7 Z " fill="#020715" transform="translate(77,6)"/>
<path d="M0,0 L2,0 L2,4 L6,6 L6,7 L-3,8 L-6,4 L-2,2 L-2,5 L0,5 Z " fill="#645E5C" transform="translate(15,64)"/>
<path d="M0,0 L9,1 L11,2 L11,4 L13,4 L13,6 L5,6 L5,4 L8,4 L8,2 L-1,2 Z " fill="#08111D" transform="translate(57,49)"/>
<path d="M0,0 L4,2 L2,5 L6,5 L6,7 L-2,6 L-2,4 L-4,4 L-4,2 Z " fill="#8B8482" transform="translate(9,69)"/>
<path d="M0,0 L2,3 L3,6 L-5,6 L-5,8 L-8,8 L-8,6 L-10,6 L-10,4 L-2,3 Z " fill="#3B393F" transform="translate(141,61)"/>
<path d="M0,0 L3,4 L4,6 L12,7 L12,9 L3,9 L1,8 L1,6 L-1,6 Z " fill="#353942" transform="translate(138,22)"/>
<path d="M0,0 L7,1 L4,2 L5,6 L7,6 L6,10 L2,11 L1,8 L3,8 L0,2 Z " fill="#313442" transform="translate(120,20)"/>
<path d="M0,0 L4,0 L5,4 L2,6 L0,8 L-3,8 L-2,2 L0,2 Z " fill="#9697A3" transform="translate(7,24)"/>
<path d="M0,0 L4,1 L9,4 L7,10 L5,10 L3,5 L4,3 L0,3 Z " fill="#030405" transform="translate(103,11)"/>
<path d="M0,0 L7,1 L9,3 L9,7 L5,6 L4,4 L-1,2 Z " fill="#6A7783" transform="translate(132,10)"/>
<path d="M0,0 L8,1 L8,2 L3,2 L3,6 L-2,6 L-2,4 L-4,3 L-3,1 Z " fill="#182738" transform="translate(67,74)"/>
<path d="M0,0 L3,0 L3,2 L14,3 L16,6 L2,5 L2,1 Z " fill="#302F39" transform="translate(30,70)"/>
<path d="M0,0 L3,1 L2,8 L0,8 L-1,10 L-2,8 L-6,7 L-6,5 L0,4 Z " fill="#8499A8" transform="translate(120,64)"/>
<path d="M0,0 L7,0 L6,2 L9,3 L9,5 L11,6 L4,6 L4,4 L1,4 Z " fill="#1C1A1A" transform="translate(23,68)"/>
<path d="M0,0 L6,2 L5,6 L-1,7 L-1,1 Z " fill="#5A6876" transform="translate(120,30)"/>
<path d="M0,0 L8,1 L8,5 L0,5 Z " fill="#8EA3B3" transform="translate(111,77)"/>
<path d="M0,0 L5,0 L5,2 L10,2 L10,5 L5,5 L4,1 L1,1 L0,7 L-1,5 L-3,4 L-2,2 L0,2 Z " fill="#566A78" transform="translate(85,6)"/>
<path d="M0,0 L2,0 L1,8 L-8,11 L-12,10 L-3,8 L-3,6 L-1,5 Z " fill="#393739" transform="translate(12,0)"/>
<path d="M0,0 L9,2 L10,7 L6,6 L6,4 L0,3 Z " fill="#0A0B11" transform="translate(104,26)"/>
<path d="M0,0 L5,0 L3,1 L3,4 L-4,3 L-4,5 L-8,4 L-7,1 Z " fill="#575D6A" transform="translate(54,19)"/>
<path d="M0,0 L3,0 L3,2 L10,3 L7,6 L2,5 L-1,2 Z " fill="#998E90" transform="translate(38,49)"/>
<path d="M0,0 L5,0 L6,6 L4,8 L1,7 L1,5 Z " fill="#17121A" transform="translate(38,30)"/>
<path d="M0,0 L13,0 L13,1 L7,1 L7,4 L-1,3 Z " fill="#111B2B" transform="translate(106,0)"/>
<path d="M0,0 L4,0 L4,6 L-2,6 L-1,1 Z " fill="#131F21" transform="translate(146,78)"/>
<path d="M0,0 L6,0 L6,2 L11,2 L8,6 L3,5 L3,2 L0,2 Z " fill="#4D6573" transform="translate(21,72)"/>
<path d="M0,0 L7,1 L7,3 L3,5 L2,9 L-1,8 Z " fill="#56788A" transform="translate(143,56)"/>
<path d="M0,0 L9,0 L7,3 L5,3 L5,5 L0,5 L-1,2 Z " fill="#020104" transform="translate(38,55)"/>
<path d="M0,0 L8,1 L9,3 L5,3 L5,5 L1,6 L-1,1 Z " fill="#445662" transform="translate(72,51)"/>
<path d="M0,0 L3,0 L3,2 L8,2 L8,5 L6,5 L6,7 L3,7 L3,3 L1,3 L0,5 Z " fill="#7E716E" transform="translate(19,15)"/>
<path d="M0,0 L12,0 L14,1 L14,3 L4,3 L0,4 Z " fill="#224050" transform="translate(120,12)"/>
<path d="M0,0 L12,0 L12,2 L8,3 L0,3 Z " fill="#13181E" transform="translate(46,6)"/>
<path d="M0,0 L7,2 L7,4 L10,4 L10,6 L8,6 L7,8 L6,5 L0,4 Z " fill="#B5ACB5" transform="translate(37,66)"/>
<path d="M0,0 L3,2 L5,4 L7,6 L3,7 L3,5 L-1,5 L-1,3 L-7,3 L-7,2 Z " fill="#182334" transform="translate(76,62)"/>
<path d="M0,0 L6,1 L6,5 L-1,5 L-2,3 Z " fill="#04080F" transform="translate(126,48)"/>
<path d="M0,0 L4,0 L4,3 L6,4 L1,6 L3,7 L-3,6 L-1,4 Z " fill="#2D2B2F" transform="translate(44,45)"/>
<path d="M0,0 L2,0 L3,4 L1,4 L1,6 L-4,6 L-3,1 Z " fill="#525564" transform="translate(124,14)"/>
<path d="M0,0 L5,1 L0,5 L-2,5 L-1,9 L-3,9 L-4,11 L-6,9 L-3,8 L-2,1 Z " fill="#160E10" transform="translate(17,13)"/>
<path d="M0,0 L7,0 L7,4 L0,5 Z " fill="#000006" transform="translate(65,0)"/>
<path d="M0,0 L10,0 L7,2 L1,3 L-8,3 L-4,1 Z " fill="#283C4B" transform="translate(83,72)"/>
<path d="M0,0 L3,0 L4,6 L2,9 L-2,9 L-3,11 L-5,9 L0,6 L2,6 L2,3 L0,2 Z " fill="#717680" transform="translate(109,41)"/>
<path d="M0,0 L6,1 L5,5 L3,9 L0,3 Z " fill="#02060A" transform="translate(138,19)"/>
<path d="M0,0 L4,2 L4,6 L7,7 L4,8 L-3,4 L-3,2 Z " fill="#4C4747" transform="translate(18,16)"/>
<path d="M0,0 L8,1 L8,4 L1,5 Z " fill="#060B0F" transform="translate(54,14)"/>
<path d="M0,0 L3,0 L4,7 L2,8 L2,6 L-6,5 L-2,3 L0,3 Z " fill="#1C2024" transform="translate(51,12)"/>
<path d="M0,0 L4,0 L4,4 L2,4 L2,7 L0,7 L0,9 L-2,8 L0,2 L-3,1 Z " fill="#4C5965" transform="translate(129,54)"/>
<path d="M0,0 L6,0 L4,5 L2,5 L2,7 L4,8 L1,8 Z " fill="#425C6D" transform="translate(0,55)"/>
<path d="M0,0 L5,0 L5,4 L-2,3 L-2,8 L-3,8 L-4,2 Z " fill="#233C46" transform="translate(145,53)"/>
<path d="M0,0 L1,0 L1,5 L3,8 L-3,6 L-3,3 L-8,4 L-8,2 L-1,1 Z " fill="#6D5C59" transform="translate(17,37)"/>
<path d="M0,0 L7,0 L9,1 L9,3 L-4,3 L0,2 Z " fill="#04070C" transform="translate(44,17)"/>
<path d="M0,0 L8,0 L8,2 L5,4 L1,4 L0,6 Z " fill="#241E2A" transform="translate(132,0)"/>
<path d="M0,0 L6,0 L6,5 L0,5 Z " fill="#60868E" transform="translate(83,79)"/>
<path d="M0,0 L5,4 L13,5 L13,6 L2,6 L1,3 L-3,4 L-3,1 Z " fill="#445765" transform="translate(56,59)"/>
<path d="M0,0 L2,2 L10,3 L6,5 L3,5 L-6,5 L-6,4 L-1,4 Z " fill="#746058" transform="translate(20,45)"/>
<path d="M0,0 L2,2 L3,9 L0,9 L-4,4 L-2,2 L-1,4 Z " fill="#1B0806" transform="translate(21,38)"/>
<path d="M0,0 L2,0 L1,6 L-4,7 L-5,4 L-2,4 L-2,2 L0,2 Z " fill="#887B7B" transform="translate(35,30)"/>
<path d="M0,0 L2,0 L2,9 L-3,4 L-3,1 Z " fill="#010308" transform="translate(148,11)"/>
<path d="M0,0 L5,0 L6,3 L8,4 L5,5 L4,4 L4,6 L2,6 L2,4 L0,4 Z " fill="#122434" transform="translate(113,71)"/>
<path d="M0,0 L5,0 L5,2 L13,2 L19,4 L15,5 L2,3 L2,1 Z " fill="#253C49" transform="translate(43,66)"/>
<path d="M0,0 L4,0 L3,6 L0,7 L-1,2 Z " fill="#6C7A8A" transform="translate(125,56)"/>
<path d="M0,0 L2,3 L-3,4 L-3,2 L-6,3 L-7,5 L-11,3 L-8,1 Z " fill="#1A2529" transform="translate(98,43)"/>
<path d="M0,0 L4,0 L4,6 L0,7 Z " fill="#947F75" transform="translate(27,38)"/>
<path d="M0,0 L4,4 L8,4 L7,8 L2,8 L0,3 Z " fill="#2D2B2E" transform="translate(28,8)"/>
<path d="M0,0 L4,2 L0,4 L-1,5 L4,5 L4,6 L-2,6 L-3,3 L-6,4 L-6,2 L0,2 Z " fill="#455D69" transform="translate(116,7)"/>
<path d="M0,0 L2,0 L4,5 L2,5 L2,8 L-3,7 L-3,5 L0,4 Z " fill="#1E1E27" transform="translate(13,76)"/>
<path d="M0,0 L1,0 L1,7 L-4,9 L-4,6 L-7,5 L-6,3 L0,3 Z " fill="#152435" transform="translate(96,72)"/>
<path d="M0,0 L1,2 L3,3 L-1,5 L-1,3 L-5,6 L-7,6 L-7,2 Z " fill="#364854" transform="translate(102,23)"/>
<path d="M0,0 L3,2 L4,8 L0,8 L-2,3 L0,3 Z " fill="#141517" transform="translate(110,18)"/>
<path d="M0,0 L10,1 L10,3 L0,3 Z " fill="#05040D" transform="translate(29,81)"/>
<path d="M0,0 L4,0 L4,2 L6,2 L6,4 L-1,4 L-2,1 Z " fill="#010919" transform="translate(99,68)"/>
<path d="M0,0 L6,0 L6,4 L3,4 L3,6 L-2,5 L-2,3 L3,3 L3,1 Z " fill="#576369" transform="translate(2,67)"/>
<path d="M0,0 L4,1 L1,1 L1,3 L-1,3 L-1,5 L5,5 L4,8 L4,6 L-3,6 L-3,2 L0,2 Z " fill="#283D4C" transform="translate(99,62)"/>
<path d="M0,0 L4,1 L4,6 L2,4 L-1,5 L-1,7 L-3,7 L-2,1 Z " fill="#454443" transform="translate(10,63)"/>
<path d="M0,0 L6,1 L4,5 L3,3 L-4,4 Z " fill="#696269" transform="translate(43,59)"/>
<path d="M0,0 L1,0 L0,7 L-4,8 L-3,4 L-2,1 Z " fill="#09060F" transform="translate(141,56)"/>
<path d="M0,0 L3,1 L3,3 L-2,5 L-6,4 L-6,2 Z " fill="#6B7582" transform="translate(94,52)"/>
<path d="M0,0 L3,0 L3,5 L5,5 L4,8 L-2,6 L1,4 L-1,3 Z " fill="#263641" transform="translate(92,45)"/>
<path d="M0,0 L2,2 L6,4 L-1,5 L-1,3 L-6,2 L-6,1 Z " fill="#8D98A7" transform="translate(117,26)"/>
<path d="M0,0 L12,0 L11,3 L5,4 L5,2 L0,1 Z " fill="#364F61" transform="translate(121,20)"/>
<path d="M0,0 L3,1 L4,3 L7,4 L7,6 L0,7 L-3,5 L1,4 L2,2 L0,2 Z " fill="#131520" transform="translate(81,10)"/>
<path d="M0,0 L4,1 L2,1 L2,3 L-1,4 L-3,3 L-4,5 L-7,2 L-4,1 Z " fill="#0E171F" transform="translate(109,6)"/>
<path d="M0,0 L3,2 L0,4 L-7,4 L-6,1 Z " fill="#0D0914" transform="translate(49,80)"/>
<path d="M0,0 L6,0 L6,2 L3,2 L3,4 L-4,4 L-1,3 Z " fill="#01050B" transform="translate(122,80)"/>
<path d="M0,0 L2,2 L6,1 L8,2 L7,5 L0,4 L-1,1 Z " fill="#00050E" transform="translate(117,73)"/>
<path d="M0,0 L5,0 L4,4 L-1,6 Z " fill="#3B444C" transform="translate(138,71)"/>
<path d="M0,0 L6,0 L5,3 L-1,4 L-2,1 Z " fill="#63697A" transform="translate(73,67)"/>
<path d="M0,0 L3,1 L-6,6 L-7,2 Z " fill="#435662" transform="translate(100,58)"/>
<path d="M0,0 L2,1 L1,3 L6,0 L6,2 L8,3 L6,3 L5,5 L-1,4 Z " fill="#443F44" transform="translate(25,24)"/>
<path d="M0,0 L5,0 L5,5 L0,4 Z " fill="#545860" transform="translate(38,13)"/>
<path d="M0,0 L3,0 L3,2 L6,3 L1,3 L2,6 L0,6 L0,4 L-4,4 L-4,2 L0,2 Z " fill="#34424C" transform="translate(68,11)"/>
<path d="M0,0 L4,2 L4,4 L6,5 L5,8 L3,8 L0,3 Z " fill="#070B12" transform="translate(138,7)"/>
<path d="M0,0 L5,0 L5,2 L8,3 L2,3 L2,6 L0,6 Z " fill="#0F1216" transform="translate(46,9)"/>
<path d="M0,0 L1,2 L3,2 L3,4 L5,4 L4,7 L-3,6 L-3,4 L0,4 Z " fill="#282B2E" transform="translate(130,65)"/>
<path d="M0,0 L2,1 L1,4 L-4,5 L-4,3 L-6,2 Z " fill="#050A11" transform="translate(99,55)"/>
<path d="M0,0 L11,2 L11,3 L5,3 L5,6 L2,5 L4,5 L4,3 L1,4 Z " fill="#4A4952" transform="translate(55,53)"/>
<path d="M0,0 L6,0 L5,4 L0,4 Z " fill="#C8C0C3" transform="translate(14,45)"/>
<path d="M0,0 L3,1 L3,8 L-2,8 L0,7 Z " fill="#070201" transform="translate(32,38)"/>
<path d="M0,0 L6,3 L7,7 L4,7 L4,4 L0,3 Z " fill="#171722" transform="translate(116,21)"/>
<path d="M0,0 L2,0 L3,4 L5,5 L4,9 L4,6 L-1,6 Z " fill="#675853" transform="translate(23,11)"/>
<path d="M0,0 L3,0 L4,5 L-2,6 Z " fill="#525B67" transform="translate(115,56)"/>
<path d="M0,0 L2,0 L4,5 L-1,7 L-4,4 L-1,3 Z " fill="#373E4D" transform="translate(43,21)"/>
<path d="M0,0 L8,1 L8,3 L0,3 Z " fill="#94AABA" transform="translate(52,71)"/>
<path d="M0,0 L6,0 L6,2 L4,2 L5,5 L3,5 L3,3 L-2,2 Z " fill="#3D3635" transform="translate(19,66)"/>
<path d="M0,0 L6,0 L6,2 L4,2 L3,6 L1,6 Z " fill="#183851" transform="translate(144,59)"/>
<path d="M0,0 L5,2 L1,5 L-4,4 Z " fill="#1E2937" transform="translate(103,46)"/>
<path d="M0,0 L1,0 L0,7 L-3,6 L-3,1 Z " fill="#030B17" transform="translate(126,36)"/>
<path d="M0,0 L4,2 L3,4 L5,4 L5,7 L1,5 Z " fill="#959AAA" transform="translate(111,34)"/>
<path d="M0,0 L2,0 L2,3 L5,3 L5,6 L0,5 L-1,2 Z " fill="#1A1F2E" transform="translate(104,31)"/>
<path d="M0,0 L4,0 L5,4 L3,7 L0,6 L0,3 L3,3 L3,1 Z " fill="#2D3037" transform="translate(85,13)"/>
<path d="M0,0 L5,1 L7,2 L7,4 L0,3 Z " fill="#9AA7B5" transform="translate(95,12)"/>
<path d="M0,0 L7,0 L4,1 L4,3 L2,3 L2,5 L0,5 L-1,1 Z " fill="#343F44" transform="translate(61,8)"/>
<path d="M0,0 L5,0 L3,6 L-1,4 Z " fill="#030509" transform="translate(119,56)"/>
<path d="M0,0 L2,3 L0,5 L-6,5 L-4,2 Z " fill="#576374" transform="translate(75,59)"/>
<path d="M0,0 L1,2 L5,3 L5,5 L-2,5 L-2,3 L0,3 Z " fill="#2A3538" transform="translate(131,58)"/>
<path d="M0,0 L4,0 L2,4 L-1,5 L-3,4 L-3,2 L-1,2 Z " fill="#958584" transform="translate(39,39)"/>
<path d="M0,0 L5,0 L3,7 L0,4 Z " fill="#050000" transform="translate(18,36)"/>
<path d="M0,0 L2,4 L4,4 L3,9 L1,7 L1,3 L-3,4 Z " fill="#172630" transform="translate(98,27)"/>
<path d="M0,0 L1,0 L1,5 L-1,5 L-2,8 L-4,8 L-3,2 L-1,3 Z " fill="#323135" transform="translate(147,19)"/>
<path d="M0,0 L9,0 L6,3 L0,2 Z " fill="#20242B" transform="translate(59,21)"/>
<path d="M0,0 L4,0 L4,3 L1,3 L-1,7 L-1,1 Z " fill="#010409" transform="translate(94,18)"/>
<path d="M0,0 L4,0 L4,2 L11,3 L11,4 L2,4 Z " fill="#1C2230" transform="translate(64,15)"/>
<path d="M0,0 L3,0 L3,7 L0,6 Z " fill="#130303" transform="translate(60,0)"/>
<path d="M0,0 L0,3 L-2,5 L-5,5 L-5,1 Z " fill="#627587" transform="translate(75,75)"/>
<path d="M0,0 L6,0 L6,2 L-3,3 L-3,1 Z " fill="#261F21" transform="translate(14,71)"/>
<path d="M0,0 L5,0 L5,2 L3,2 L3,5 L0,5 Z " fill="#030809" transform="translate(127,63)"/>
<path d="M0,0 L2,0 L5,3 L5,5 L1,6 L0,5 Z " fill="#0E0805" transform="translate(24,52)"/>
<path d="M0,0 L2,0 L2,4 L-4,6 L-3,1 Z " fill="#869AA9" transform="translate(107,50)"/>
<path d="M0,0 L8,0 L7,2 L-1,4 Z " fill="#57656E" transform="translate(86,48)"/>
<path d="M0,0 L2,0 L2,5 L-1,4 L-2,6 L-3,2 Z " fill="#736463" transform="translate(37,37)"/>
<path d="M0,0 L2,0 L5,3 L4,6 L0,6 Z " fill="#575A67" transform="translate(101,33)"/>
<path d="M0,0 L4,1 L3,4 L5,6 L0,6 Z " fill="#161515" transform="translate(0,11)"/>
<path d="M0,0 L1,3 L0,5 L-4,5 L-4,1 Z " fill="#4D5F6A" transform="translate(75,8)"/>
<path d="M0,0 L4,1 L4,4 L-1,4 Z " fill="#071621" transform="translate(96,7)"/>
<path d="M0,0 L3,1 L-1,5 L-5,4 L-5,2 L0,2 Z " fill="#1E404D" transform="translate(100,0)"/>
<path d="M0,0 L7,0 L5,4 L1,3 L2,1 Z " fill="#496676" transform="translate(84,74)"/>
<path d="M0,0 L6,0 L8,2 L6,2 L5,5 L4,2 L0,2 Z " fill="#01070F" transform="translate(55,65)"/>
<path d="M0,0 L6,1 L6,4 L0,3 Z " fill="#A799B4" transform="translate(7,54)"/>
<path d="M0,0 L4,1 L3,4 L-5,4 L-1,3 Z " fill="#26384B" transform="translate(98,52)"/>
<path d="M0,0 L3,1 L0,3 L-3,2 L-3,9 L-5,8 L-4,1 Z " fill="#26140F" transform="translate(35,36)"/>
<path d="M0,0 L2,0 L3,3 L1,3 L1,5 L-5,4 Z " fill="#2F3035" transform="translate(44,35)"/>
<path d="M0,0 L6,0 L6,3 L0,3 Z " fill="#120C1C" transform="translate(144,32)"/>
<path d="M0,0 L9,0 L5,3 L0,3 Z " fill="#373B43" transform="translate(57,18)"/>
<path d="M0,0 L2,4 L4,4 L3,7 L0,7 L-1,3 Z " fill="#000106" transform="translate(79,8)"/>
<path d="M0,0 L3,0 L4,5 L0,5 Z " fill="#3D3F4C" transform="translate(142,5)"/>
<path d="M0,0 L4,1 L3,5 L0,5 Z " fill="#7190A1" transform="translate(111,77)"/>
<path d="M0,0 L6,0 L6,3 L1,3 Z " fill="#040507" transform="translate(136,67)"/>
<path d="M0,0 L2,0 L1,3 L-6,3 L-6,1 Z " fill="#A197AA" transform="translate(15,59)"/>
<path d="M0,0 L6,1 L2,2 L2,4 L-3,3 Z " fill="#101E28" transform="translate(103,58)"/>
<path d="M0,0 L1,3 L4,4 L-1,6 L-3,7 L-3,3 Z " fill="#36414C" transform="translate(112,47)"/>
<path d="M0,0 L3,0 L4,4 L-2,4 L-2,2 L0,2 Z " fill="#53626F" transform="translate(100,44)"/>
<path d="M0,0 L2,0 L1,5 L-2,5 L-2,1 Z " fill="#11080A" transform="translate(33,26)"/>
<path d="M0,0 L3,0 L3,6 L0,5 Z " fill="#030205" transform="translate(42,0)"/>
<path d="M0,0 L6,0 L5,4 L3,4 L3,2 L0,2 Z " fill="#57747F" transform="translate(21,72)"/>
<path d="M0,0 L5,0 L5,3 L0,3 Z " fill="#36404A" transform="translate(129,71)"/>
<path d="M0,0 L6,1 L4,2 L4,4 L0,4 Z " fill="#667986" transform="translate(63,70)"/>
<path d="M0,0 L5,0 L4,3 L1,4 L-1,2 Z " fill="#162836" transform="translate(61,67)"/>
<path d="M0,0 L5,0 L3,1 L3,3 L-2,4 L-2,1 Z " fill="#43566B" transform="translate(114,64)"/>
<path d="M0,0 L4,0 L4,2 L6,3 L3,3 L3,5 L1,5 Z " fill="#040810" transform="translate(48,62)"/>
<path d="M0,0 L4,0 L4,2 L6,2 L6,4 L1,3 Z " fill="#292C3B" transform="translate(131,48)"/>
<path d="M0,0 L5,0 L6,3 L4,3 L4,5 L2,4 Z " fill="#4F4952" transform="translate(45,49)"/>
<path d="M0,0 L5,0 L6,3 L0,3 Z " fill="#331D17" transform="translate(32,47)"/>
<path d="M0,0 L4,1 L0,5 L-2,5 L-3,2 L0,2 Z " fill="#292C3C" transform="translate(128,29)"/>
<path d="M0,0 L5,1 L5,3 L-1,5 Z " fill="#19232E" transform="translate(76,2)"/>
<path d="M0,0 L6,2 L6,4 L-1,3 Z " fill="#1E2934" transform="translate(106,0)"/>
<path d="M0,0 L2,0 L3,7 L0,7 Z " fill="#2B222A" transform="translate(63,0)"/>
<path d="M0,0 L1,2 L4,2 L4,4 L2,4 L1,6 L0,3 L-2,2 L0,2 Z " fill="#9D9BA5" transform="translate(43,68)"/>
<path d="M0,0 L1,3 L0,4 L-6,4 L-5,1 L-5,3 Z " fill="#18252B" transform="translate(90,65)"/>
<path d="M0,0 L5,0 L5,3 L1,4 Z " fill="#294354" transform="translate(145,66)"/>
<path d="M0,0 L5,0 L5,4 L0,2 Z " fill="#2F3446" transform="translate(2,60)"/>
<path d="M0,0 L3,0 L3,4 L1,4 L0,7 Z " fill="#0B0912" transform="translate(134,52)"/>
<path d="M0,0 L5,2 L4,4 L-1,4 Z " fill="#0F1921" transform="translate(123,51)"/>
<path d="M0,0 L2,3 L2,5 L-1,5 L-3,7 L-2,2 L0,2 Z " fill="#171E28" transform="translate(127,44)"/>
<path d="M0,0 L2,2 L2,6 L-1,6 L-1,1 Z " fill="#54606F" transform="translate(132,39)"/>
<path d="M0,0 L1,0 L1,7 L0,5 L-2,5 L-2,1 Z " fill="#131C24" transform="translate(46,30)"/>
<path d="M0,0 L1,2 L4,3 L2,3 L1,6 L-2,3 Z " fill="#1A0907" transform="translate(28,31)"/>
<path d="M0,0 L3,1 L3,4 L1,4 L1,6 L-2,5 L0,5 Z " fill="#6A5550" transform="translate(10,29)"/>
<path d="M0,0 L2,0 L2,3 L4,4 L-1,5 Z " fill="#A8A6B3" transform="translate(5,27)"/>
<path d="M0,0 L6,1 L6,4 L0,2 Z " fill="#78828E" transform="translate(77,16)"/>
<path d="M0,0 L3,0 L2,5 L-2,3 L0,3 Z " fill="#292C30" transform="translate(51,12)"/>
<path d="M0,0 L5,0 L5,3 L0,3 Z " fill="#2B2E32" transform="translate(46,6)"/>
<path d="M0,0 L5,0 L5,3 L0,3 Z " fill="#0B0713" transform="translate(141,0)"/>
<path d="M0,0 L5,0 L4,3 L-1,4 Z " fill="#5B8591" transform="translate(81,75)"/>
<path d="M0,0 L6,0 L6,4 L3,3 L3,1 Z " fill="#020309" transform="translate(52,75)"/>
<path d="M0,0 L5,1 L5,3 L-3,2 Z " fill="#6D6C73" transform="translate(10,73)"/>
<path d="M0,0 L3,4 L2,6 L0,5 L-3,2 Z " fill="#71655D" transform="translate(12,66)"/>
<path d="M0,0 L2,1 L0,5 L-2,4 L-1,2 L-4,1 Z " fill="#5B6F83" transform="translate(103,51)"/>
<path d="M0,0 L7,1 L4,4 Z " fill="#A098A0" transform="translate(41,51)"/>
<path d="M0,0 L4,0 L4,3 L-1,3 Z " fill="#A28E7B" transform="translate(26,49)"/>
<path d="M0,0 L2,0 L2,3 L5,4 L0,5 L-1,2 Z " fill="#242F3D" transform="translate(117,34)"/>
<path d="M0,0 L2,3 L0,5 L-3,4 L-3,1 Z " fill="#1E1D20" transform="translate(42,33)"/>
<path d="M0,0 L2,0 L2,3 L0,3 L0,5 L-2,5 L-2,1 Z " fill="#5E6C7C" transform="translate(135,31)"/>
<path d="M0,0 L5,1 L5,3 L0,3 Z " fill="#708391" transform="translate(120,32)"/>
<path d="M0,0 L2,0 L2,4 L-2,4 L-2,1 Z " fill="#686872" transform="translate(2,29)"/>
<path d="M0,0 L2,2 L2,8 L1,6 L-1,6 Z " fill="#3A525A" transform="translate(138,22)"/>
<path d="M0,0 L1,2 L4,2 L4,4 L-2,5 Z " fill="#04111A" transform="translate(95,21)"/>
<path d="M0,0 L3,1 L1,6 L-1,6 L-2,3 Z " fill="#161B21" transform="translate(69,20)"/>
<path d="M0,0 L2,0 L2,6 L-1,6 Z " fill="#261410" transform="translate(16,0)"/>
<path d="M0,0 L3,0 L3,2 L5,3 L-1,3 Z " fill="#03080C" transform="translate(29,71)"/>
<path d="M0,0 L2,0 L1,5 L-2,4 L-2,1 Z " fill="#000007" transform="translate(69,66)"/>
<path d="M0,0 L5,0 L5,2 L7,3 L2,3 L2,1 Z " fill="#4B4A50" transform="translate(43,66)"/>
<path d="M0,0 L2,4 L5,5 L0,5 L-1,2 Z " fill="#1F171C" transform="translate(38,55)"/>
<path d="M0,0 L2,3 L-1,6 L-4,5 L-2,4 Z " fill="#333E47" transform="translate(115,52)"/>
<path d="M0,0 L4,1 L1,4 L-1,4 Z " fill="#87939F" transform="translate(112,51)"/>
<path d="M0,0 L3,0 L3,3 L-2,3 L-2,1 Z " fill="#0B1019" transform="translate(119,38)"/>
<path d="M0,0 L5,0 L0,4 L-2,3 Z " fill="#101521" transform="translate(50,22)"/>
<path d="M0,0 L2,0 L0,4 L-3,5 L-1,1 Z " fill="#16111A" transform="translate(29,22)"/>
<path d="M0,0 L4,1 L4,3 L0,4 L0,2 L-2,1 Z " fill="#4C4955" transform="translate(37,20)"/>
<path d="M0,0 L3,0 L3,2 L1,2 L1,4 L-2,4 Z " fill="#B7A7A8" transform="translate(24,18)"/>
<path d="M0,0 L3,0 L3,3 L-2,3 L-2,1 Z " fill="#57677B" transform="translate(127,17)"/>
<path d="M0,0 L5,0 L4,3 L0,3 Z " fill="#675C68" transform="translate(121,17)"/>
<path d="M0,0 L2,0 L3,3 L1,3 L0,5 L0,3 L-2,3 L-2,1 Z " fill="#2C363B" transform="translate(111,10)"/>
<path d="M0,0 L4,0 L3,4 L-1,3 Z " fill="#262C3B" transform="translate(133,6)"/>
<path d="M0,0 L4,0 L4,3 L0,3 Z " fill="#5F6A7C" transform="translate(71,81)"/>
<path d="M0,0 L4,1 L4,3 L0,4 L0,1 Z " fill="#0E121F" transform="translate(28,78)"/>
<path d="M0,0 L4,0 L3,3 L0,4 Z " fill="#6B7D8E" transform="translate(99,73)"/>
<path d="M0,0 L3,1 L6,3 L0,3 Z " fill="#848087" transform="translate(35,68)"/>
<path d="M0,0 L1,0 L1,5 L4,6 L0,7 L-2,5 L0,5 Z " fill="#0F1B1F" transform="translate(126,63)"/>
<path d="M0,0 L1,0 L1,6 L-2,7 Z " fill="#4A5761" transform="translate(87,61)"/>
<path d="M0,0 L6,0 L6,2 L2,3 L2,1 Z " fill="#070C1A" transform="translate(69,65)"/>
<path d="M0,0 L6,1 L5,4 L3,4 L3,2 L0,2 Z " fill="#3F312F" transform="translate(38,62)"/>
<path d="M0,0 L2,3 L-2,4 L-3,1 Z " fill="#73818E" transform="translate(60,58)"/>
<path d="M0,0 L4,1 L4,5 L1,4 Z " fill="#404350" transform="translate(47,58)"/>
<path d="M0,0 L3,0 L4,3 L-1,3 Z " fill="#B8ABAB" transform="translate(33,58)"/>
<path d="M0,0 L4,0 L4,3 L0,3 Z " fill="#6C5C5A" transform="translate(0,35)"/>
<path d="M0,0 L2,1 L1,6 L-1,4 Z " fill="#040C19" transform="translate(131,30)"/>
<path d="M0,0 L5,0 L5,3 L2,3 L2,1 Z " fill="#091010" transform="translate(90,28)"/>
<path d="M0,0 L3,0 L3,2 L6,3 L0,3 Z " fill="#334E58" transform="translate(68,11)"/>
<path d="M0,0 L3,0 L2,5 L1,3 L-1,2 Z " fill="#656B76" transform="translate(83,8)"/>
<path d="M0,0 L4,2 L2,4 L-1,3 Z " fill="#1B181F" transform="translate(52,79)"/>
<path d="M0,0 L2,0 L1,5 L-1,4 Z " fill="#8896A4" transform="translate(127,56)"/>
<path d="M0,0 L4,1 L4,3 L1,4 Z " fill="#4C4445" transform="translate(55,53)"/>
<path d="M0,0 L4,0 L3,3 L-1,1 Z " fill="#B4A5A6" transform="translate(10,40)"/>
<path d="M0,0 L4,4 L-1,3 Z " fill="#3F3838" transform="translate(37,33)"/>
<path d="M0,0 L2,0 L2,4 L-1,4 Z " fill="#153644" transform="translate(2,24)"/>
<path d="M0,0 L3,1 L2,4 L0,4 L0,2 L-2,1 Z " fill="#2E252F" transform="translate(35,24)"/>
<path d="M0,0 L1,2 L3,3 L1,3 L0,5 L-2,2 Z " fill="#4B434C" transform="translate(30,24)"/>
<path d="M0,0 L3,0 L3,4 L0,4 Z " fill="#2B3138" transform="translate(33,15)"/>
<path d="M0,0 L3,0 L3,4 L0,3 Z " fill="#4F3B34" transform="translate(25,12)"/>
<path d="M0,0 L2,0 L2,3 L-2,3 L-2,1 Z " fill="#475D6D" transform="translate(104,81)"/>
<path d="M0,0 L2,1 L2,3 L-3,3 Z " fill="#79838D" transform="translate(39,75)"/>
<path d="M0,0 L3,1 L3,4 L0,4 Z " fill="#8FA2B2" transform="translate(108,70)"/>
<path d="M0,0 L2,0 L2,3 L-2,4 Z " fill="#83929E" transform="translate(115,58)"/>
<path d="M0,0 L2,3 L-3,4 Z " fill="#0B1923" transform="translate(98,43)"/>
<path d="M0,0 L4,0 L4,2 L0,3 Z " fill="#AC9B93" transform="translate(27,38)"/>
<path d="M0,0 L6,1 L2,3 L0,3 Z " fill="#0E1728" transform="translate(104,26)"/>
<path d="M0,0 L3,0 L3,3 L-1,2 Z " fill="#0F171D" transform="translate(59,15)"/>
<path d="M0,0 L4,0 L3,4 L0,1 Z " fill="#161F24" transform="translate(32,12)"/>
<path d="M0,0 L4,0 L4,2 L0,3 Z " fill="#757376" transform="translate(0,7)"/>
<path d="M0,0 L3,0 L2,4 L0,3 Z " fill="#020207" transform="translate(147,5)"/>
<path d="M0,0 L2,0 L0,4 L0,2 L-3,1 Z " fill="#232F33" transform="translate(27,70)"/>
<path d="M0,0 L3,1 L0,4 L-1,1 Z " fill="#575062" transform="translate(46,60)"/>
<path d="M0,0 L3,0 L4,3 L0,2 Z " fill="#536070" transform="translate(63,58)"/>
<path d="M0,0 L2,0 L2,3 L-3,2 Z " fill="#8F8393" transform="translate(10,52)"/>
<path d="M0,0 L3,1 L3,3 L-1,2 Z " fill="#6E8091" transform="translate(94,52)"/>
<path d="M0,0 L4,1 L3,3 L0,2 Z " fill="#02060A" transform="translate(80,51)"/>
<path d="M0,0 L3,0 L3,3 L0,3 Z " fill="#191B25" transform="translate(114,43)"/>
<path d="M0,0 L3,1 L0,3 L-3,1 Z " fill="#2F2622" transform="translate(35,36)"/>
<path d="M0,0 L3,0 L3,3 L0,3 Z " fill="#2B293A" transform="translate(106,34)"/>
<path d="M0,0 L5,0 L4,3 Z " fill="#565365" transform="translate(39,25)"/>
<path d="M0,0 L2,0 L3,3 L-1,3 Z " fill="#171D24" transform="translate(111,23)"/>
<path d="M0,0 L1,4 L-2,3 L-2,1 Z " fill="#3C383B" transform="translate(119,16)"/>
<path d="M0,0 L3,1 L2,4 L0,3 Z " fill="#4C5661" transform="translate(83,16)"/>
<path d="M0,0 L4,1 L0,3 Z " fill="#232123" transform="translate(0,11)"/>
<path d="M0,0 L3,0 L3,3 L0,3 Z " fill="#5E7682" transform="translate(71,9)"/>
<path d="M0,0 L2,1 L1,4 L-1,3 Z " fill="#577F8B" transform="translate(82,80)"/>
<path d="M0,0 L2,0 L2,3 L-1,3 Z " fill="#3C4D56" transform="translate(126,76)"/>
<path d="M0,0 L2,0 L2,3 L-1,3 Z " fill="#8A9DAC" transform="translate(100,76)"/>
<path d="M0,0 L2,2 L-2,3 L-2,1 Z " fill="#1D2530" transform="translate(81,66)"/>
<path d="M0,0 L3,1 L3,3 L0,3 Z " fill="#2E2B2E" transform="translate(133,60)"/>
<path d="M0,0 L2,1 L2,3 L-2,2 Z " fill="#000208" transform="translate(99,55)"/>
<path d="M0,0 L2,0 L2,3 L-2,1 Z " fill="#030F22" transform="translate(101,48)"/>
<path d="M0,0 L3,0 L2,3 L0,3 Z " fill="#AD9DA3" transform="translate(40,39)"/>
<path d="M0,0 L2,0 L2,3 L-1,3 Z " fill="#4E6873" transform="translate(102,1)"/>
<path d="M0,0 L3,0 L3,3 L0,2 Z " fill="#43424D" transform="translate(147,0)"/>
<path d="M0,0 L4,2 L1,3 Z " fill="#6B8A98" transform="translate(79,75)"/>
<path d="M0,0 L3,1 L3,3 L0,2 Z " fill="#8C9DAB" transform="translate(76,59)"/>
<path d="M0,0 L3,1 L3,3 L0,2 Z " fill="#767176" transform="translate(48,49)"/>
<path d="M0,0 L3,0 L2,3 L0,2 Z " fill="#010103" transform="translate(40,31)"/>
<path d="M0,0 L4,2 L1,3 Z " fill="#261B19" transform="translate(24,29)"/>
<path d="M0,0 L2,1 L2,3 L-1,2 Z " fill="#020708" transform="translate(90,24)"/>
</svg>
