<?xml version="1.0" encoding="UTF-8"?>
<!-- Generator: visioncortex VTracer 0.6.5 -->
<svg version="1.1" xmlns="http://www.w3.org/2000/svg" width="150" height="84">
<path d="M0,0 L150,0 L150,84 L0,84 Z " fill="#493614" transform="translate(0,0)"/>
<path d="M0,0 L150,0 L150,84 L114,84 L114,82 L107,82 L107,80 L114,80 L114,71 L117,68 L119,63 L124,58 L132,55 L137,52 L141,51 L141,44 L139,35 L137,30 L137,27 L134,27 L134,25 L130,23 L126,18 L127,30 L130,30 L131,28 L134,28 L135,32 L133,32 L133,34 L131,34 L130,43 L128,43 L126,40 L125,43 L128,44 L128,50 L131,49 L132,54 L128,54 L128,51 L126,52 L123,57 L120,58 L118,60 L120,49 L117,48 L117,47 L115,48 L114,44 L118,38 L120,38 L120,42 L122,37 L124,36 L124,27 L122,27 L119,20 L120,18 L118,18 L118,16 L114,15 L114,13 L110,12 L108,11 L107,13 L101,10 L97,10 L97,13 L89,11 L89,13 L95,14 L103,19 L105,22 L105,26 L107,26 L107,24 L110,25 L113,35 L115,40 L110,41 L109,43 L111,43 L111,46 L108,45 L107,38 L105,38 L105,44 L106,47 L102,48 L102,51 L106,48 L109,49 L109,51 L106,53 L108,54 L107,56 L111,56 L111,54 L115,54 L115,50 L117,50 L116,57 L110,57 L110,60 L102,62 L94,66 L89,67 L90,64 L95,59 L99,59 L99,49 L96,49 L96,52 L91,55 L84,57 L84,54 L77,55 L77,53 L80,53 L80,51 L76,51 L76,54 L71,54 L71,52 L76,49 L82,49 L86,49 L89,49 L89,51 L87,51 L87,53 L90,52 L90,49 L95,49 L95,46 L99,46 L99,44 L101,44 L98,41 L98,38 L100,38 L100,40 L103,40 L103,32 L105,31 L103,25 L101,21 L93,24 L85,24 L85,18 L82,16 L74,15 L74,17 L79,18 L79,20 L83,20 L84,24 L81,27 L80,30 L82,30 L82,37 L78,36 L78,34 L76,34 L77,38 L76,40 L78,40 L78,38 L80,38 L79,44 L84,44 L84,42 L88,41 L87,44 L86,47 L73,48 L73,46 L67,46 L67,48 L56,48 L55,44 L56,43 L53,42 L53,44 L48,44 L48,42 L53,40 L57,40 L56,33 L69,34 L68,30 L72,30 L72,33 L77,33 L75,30 L74,28 L72,28 L67,28 L64,26 L65,22 L70,24 L75,24 L76,22 L70,22 L70,19 L63,19 L63,23 L57,24 L39,25 L37,27 L37,22 L46,20 L44,19 L44,17 L41,17 L40,19 L35,21 L30,23 L31,20 L28,19 L31,19 L31,15 L27,15 L25,18 L19,19 L19,21 L12,20 L11,24 L10,26 L8,26 L7,31 L10,31 L10,29 L14,26 L16,26 L16,24 L24,24 L24,29 L23,33 L23,35 L27,34 L27,29 L29,30 L29,33 L36,34 L36,36 L27,39 L30,45 L30,47 L28,47 L25,44 L25,49 L20,47 L20,43 L16,42 L14,34 L11,34 L11,41 L6,39 L5,48 L2,45 L3,40 L0,38 Z " fill="#3A291C" transform="translate(0,0)"/>
<path d="M0,0 L8,1 L11,3 L15,3 L18,4 L18,6 L22,7 L22,9 L24,9 L25,13 L26,18 L28,18 L29,27 L26,29 L24,34 L23,31 L24,29 L22,29 L20,34 L19,36 L20,38 L24,36 L24,40 L23,49 L28,46 L30,42 L32,42 L32,45 L36,45 L34,41 L32,41 L31,35 L29,34 L30,30 L32,31 L32,34 L34,34 L34,27 L35,25 L37,25 L37,23 L39,23 L38,19 L35,21 L33,24 L33,21 L31,21 L29,8 L34,13 L38,16 L38,18 L41,18 L45,30 L46,40 L45,42 L40,45 L32,48 L29,49 L24,54 L21,60 L19,64 L18,71 L11,71 L11,73 L19,72 L18,75 L-12,75 L-12,72 L4,71 L-3,68 L1,65 L8,64 L8,62 L18,59 L19,56 L14,58 L17,54 L20,53 L21,51 L16,53 L11,53 L11,55 L6,57 L5,59 L-5,61 L-13,60 L-13,55 L-9,55 L-9,53 L-19,52 L-18,50 L-20,49 L-20,51 L-22,51 L-22,48 L-34,49 L-35,50 L-42,50 L-40,54 L-39,62 L-44,61 L-44,63 L-42,64 L-43,65 L-58,66 L-58,64 L-63,64 L-61,59 L-62,57 L-57,58 L-57,60 L-55,60 L-56,56 L-55,55 L-49,55 L-49,60 L-50,61 L-47,61 L-48,55 L-49,52 L-55,49 L-54,46 L-52,46 L-52,44 L-55,44 L-56,37 L-58,35 L-58,32 L-54,32 L-54,34 L-52,34 L-53,29 L-49,31 L-46,29 L-46,22 L-49,21 L-49,19 L-40,18 L-38,17 L-34,19 L-41,21 L-39,23 L-39,31 L-48,33 L-48,35 L-43,35 L-43,33 L-39,34 L-40,39 L-29,39 L-29,37 L-23,37 L-23,39 L-20,38 L-10,38 L-11,35 L-8,32 L-12,33 L-12,35 L-17,35 L-16,29 L-18,29 L-18,31 L-20,31 L-20,25 L-18,25 L-18,27 L-14,28 L-15,24 L-14,21 L-16,21 L-15,17 L-13,13 L-13,11 L-17,11 L-17,9 L-22,8 L-22,6 L-14,6 L-10,9 L-10,14 L-2,14 L2,12 L5,12 L8,15 L10,22 L7,23 L8,27 L7,31 L4,31 L4,29 L2,29 L2,32 L5,33 L5,35 L3,35 L3,37 L-1,37 L-1,40 L-5,41 L-6,44 L-9,44 L-9,42 L-7,42 L-7,40 L-14,42 L-14,40 L-21,42 L-25,43 L-25,45 L-20,45 L-20,42 L-16,42 L-16,44 L-19,44 L-19,46 L-12,45 L-12,48 L-5,45 L-3,43 L0,43 L0,40 L3,40 L4,48 L3,50 L-2,52 L-7,58 L-2,56 L8,51 L14,51 L14,48 L18,47 L20,48 L21,41 L19,41 L19,45 L15,45 L15,47 L11,47 L10,45 L10,42 L13,42 L12,40 L6,42 L6,39 L9,37 L8,33 L9,29 L11,29 L13,36 L15,37 L15,34 L13,34 L14,31 L19,31 L16,26 L13,16 L11,15 L11,17 L9,17 L6,10 L-3,5 L-7,4 L-7,2 L-1,3 L1,4 Z " fill="#95896B" transform="translate(96,9)"/>
<path d="M0,0 L3,1 L5,8 L8,8 L6,4 L6,1 L9,2 L10,12 L17,12 L18,14 L23,14 L23,12 L21,12 L21,10 L27,12 L33,13 L38,16 L40,23 L39,25 L41,26 L34,26 L36,24 L37,19 L31,20 L31,24 L29,24 L29,22 L25,22 L26,24 L24,24 L23,28 L28,28 L28,30 L43,28 L42,25 L46,25 L45,16 L43,13 L51,14 L52,12 L66,11 L64,15 L66,15 L66,13 L69,14 L69,15 L77,17 L77,19 L73,19 L73,24 L84,24 L91,23 L93,19 L97,19 L97,17 L107,15 L106,18 L101,21 L105,20 L104,24 L94,26 L94,28 L85,31 L84,32 L92,34 L90,36 L78,37 L74,36 L74,39 L25,39 L22,37 L14,35 L15,32 L18,32 L18,30 L11,31 L0,27 L0,24 L6,23 L6,26 L10,26 L11,28 L18,28 L18,25 L13,26 L8,23 L8,21 L1,21 L0,17 L-4,13 L-7,8 L-9,7 L-8,5 L-5,6 L0,12 L1,15 L3,16 L3,19 L12,20 L19,22 L23,18 L21,18 L20,20 L9,14 L7,13 L7,16 L3,15 L2,13 L4,13 L4,10 L0,9 L-1,5 L1,5 Z " fill="#5F5742" transform="translate(10,45)"/>
<path d="M0,0 L8,1 L11,3 L15,3 L18,4 L18,6 L22,7 L22,9 L24,9 L25,13 L26,18 L28,18 L29,27 L26,29 L24,34 L23,31 L24,29 L22,29 L20,34 L19,36 L20,38 L24,36 L24,40 L23,49 L28,46 L30,42 L32,42 L32,45 L36,45 L34,41 L32,41 L31,35 L29,34 L30,30 L32,31 L32,34 L34,34 L34,27 L35,25 L37,25 L37,23 L39,23 L38,19 L35,21 L33,24 L33,21 L31,21 L29,8 L34,13 L38,16 L38,18 L41,18 L45,30 L46,40 L45,42 L40,45 L32,48 L29,49 L24,54 L21,60 L19,64 L18,71 L11,71 L11,73 L19,72 L18,75 L-12,75 L-12,72 L4,71 L-3,68 L1,65 L8,64 L8,62 L18,59 L19,56 L14,58 L17,54 L20,53 L21,51 L14,52 L14,48 L18,47 L20,48 L21,41 L19,41 L19,45 L15,45 L15,47 L11,47 L10,45 L10,42 L13,42 L12,40 L6,42 L6,39 L9,37 L8,33 L9,29 L11,29 L13,36 L15,37 L15,34 L13,34 L14,31 L19,31 L16,26 L13,16 L11,15 L11,17 L9,17 L6,10 L-3,5 L-7,4 L-7,2 L-1,3 L1,4 Z " fill="#2B262A" transform="translate(96,9)"/>
<path d="M0,0 L18,0 L18,7 L16,13 L14,13 L15,17 L14,19 L20,17 L21,13 L20,11 L23,11 L25,6 L30,3 L42,3 L43,8 L41,8 L42,13 L43,12 L55,12 L55,14 L50,15 L50,17 L41,17 L40,19 L35,21 L30,23 L31,20 L28,19 L31,19 L31,15 L27,15 L25,18 L19,19 L19,21 L12,20 L11,24 L10,26 L8,26 L7,31 L10,31 L10,29 L14,26 L16,26 L16,24 L24,24 L24,29 L23,33 L23,35 L27,34 L27,29 L29,30 L29,33 L36,34 L36,36 L27,39 L30,45 L30,47 L28,47 L25,44 L25,49 L20,47 L20,43 L16,42 L14,34 L11,34 L11,41 L6,39 L5,48 L2,45 L3,40 L0,38 Z " fill="#241D15" transform="translate(0,0)"/>
<path d="M0,0 L19,0 L19,2 L14,1 L14,3 L19,4 L19,7 L23,7 L23,5 L28,7 L37,12 L36,8 L38,8 L38,10 L40,10 L45,15 L46,20 L41,16 L40,14 L33,13 L30,11 L29,13 L23,10 L19,10 L19,13 L11,11 L11,13 L17,14 L25,19 L27,22 L27,26 L29,26 L29,24 L32,25 L35,35 L37,40 L32,41 L31,43 L33,43 L33,46 L30,45 L29,38 L27,38 L27,44 L28,47 L24,48 L24,51 L28,48 L31,49 L31,51 L28,53 L30,54 L29,56 L33,56 L33,54 L37,54 L37,50 L39,50 L38,57 L32,57 L32,60 L24,62 L16,66 L11,67 L12,64 L17,59 L21,59 L21,49 L18,49 L18,52 L13,55 L6,57 L6,54 L-1,55 L-1,53 L2,53 L2,51 L-2,51 L-2,54 L-7,54 L-7,52 L-2,49 L4,49 L8,49 L11,49 L11,51 L9,51 L9,53 L12,52 L12,49 L17,49 L17,46 L21,46 L21,44 L23,44 L20,41 L20,38 L22,38 L22,40 L25,40 L25,32 L27,31 L25,25 L23,21 L15,24 L7,24 L7,18 L6,15 L8,15 L9,11 L-3,11 L-4,7 L2,7 L2,9 L4,9 L3,5 L10,5 L4,2 Z " fill="#52432F" transform="translate(78,0)"/>
<path d="M0,0 L3,0 L3,2 L5,3 L4,11 L3,15 L0,12 L0,16 L-2,16 L0,20 L3,21 L2,25 L5,26 L6,23 L16,28 L19,30 L22,29 L20,33 L16,34 L7,31 L2,30 L2,27 L-1,26 L-2,21 L-6,19 L-6,17 L-10,18 L-7,19 L-3,25 L-3,27 L0,28 L0,32 L7,32 L7,34 L11,35 L15,36 L17,36 L18,40 L10,40 L9,37 L5,37 L5,34 L-1,35 L-1,38 L5,39 L10,41 L17,41 L17,43 L14,44 L13,46 L23,48 L24,50 L-11,50 L-11,4 L-7,6 L-8,12 L-7,11 L-5,5 L-1,6 Z " fill="#4F6976" transform="translate(11,34)"/>
<path d="M0,0 L21,0 L30,5 L35,9 L38,10 L38,17 L40,17 L41,24 L37,27 L37,25 L33,23 L29,18 L30,30 L33,30 L34,28 L37,28 L38,32 L36,32 L36,34 L34,34 L33,43 L31,43 L29,40 L28,43 L31,44 L31,50 L34,49 L35,54 L31,54 L31,51 L29,52 L26,57 L23,58 L21,60 L23,49 L20,48 L20,47 L18,48 L17,44 L21,38 L23,38 L23,42 L25,37 L27,36 L27,27 L25,27 L22,20 L23,18 L21,18 L21,16 L17,14 L21,13 L26,18 L26,16 L21,12 L21,10 L19,10 L19,8 L17,8 L18,12 L13,10 L4,5 L4,7 L0,7 L0,4 L-5,3 L-5,1 L0,2 Z " fill="#23150D" transform="translate(97,0)"/>
<path d="M0,0 L5,1 L5,2 L-2,4 L0,6 L0,14 L-9,16 L-9,18 L-4,18 L-4,16 L0,17 L-1,19 L-1,23 L1,24 L0,26 L4,25 L11,25 L11,27 L9,28 L9,32 L-1,33 L-2,34 L0,40 L0,45 L-5,44 L-5,46 L-3,47 L-4,48 L-19,49 L-19,47 L-24,47 L-22,42 L-23,40 L-18,41 L-18,43 L-16,43 L-17,39 L-16,38 L-10,38 L-10,43 L-11,44 L-8,44 L-9,38 L-10,35 L-16,32 L-15,29 L-13,29 L-13,27 L-16,27 L-17,20 L-19,18 L-19,15 L-15,15 L-15,17 L-13,17 L-14,12 L-10,14 L-7,12 L-7,5 L-10,4 L-10,2 L-1,1 Z " fill="#8B7B61" transform="translate(57,26)"/>
<path d="M0,0 L32,0 L32,42 L31,45 L28,44 L27,41 L28,34 L24,35 L23,37 L21,30 L19,30 L19,27 L17,26 L19,22 L19,17 L17,17 L16,12 L17,10 L13,9 L8,5 L0,1 Z " fill="#0A0402" transform="translate(118,0)"/>
<path d="M0,0 L13,0 L13,7 L11,13 L9,13 L10,17 L9,19 L15,17 L16,13 L15,11 L18,11 L20,6 L25,3 L37,3 L38,8 L36,8 L37,13 L38,12 L50,12 L50,14 L45,15 L45,17 L36,17 L35,19 L30,21 L25,23 L26,20 L23,19 L26,19 L26,15 L22,15 L20,18 L14,19 L14,21 L7,20 L6,23 L2,22 L3,19 L3,21 L5,21 L6,16 L5,13 L3,13 L3,9 L-2,12 L-4,12 L-3,9 L-1,9 L-1,7 L-4,7 L-4,4 L-1,3 Z " fill="#080201" transform="translate(5,0)"/>
<path d="M0,0 L2,0 L1,3 L-4,6 L0,5 L-1,9 L-11,11 L-11,13 L-20,16 L-21,17 L-13,19 L-15,21 L-27,22 L-31,21 L-31,24 L-37,24 L-37,22 L-34,22 L-32,18 L-29,18 L-29,14 L-25,12 L-39,13 L-47,14 L-49,13 L-49,11 L-55,11 L-57,7 L-53,6 L-52,7 L-42,5 L-39,3 L-33,4 L-33,8 L-21,9 L-14,8 L-12,4 L-8,4 L-8,2 Z " fill="#231109" transform="translate(115,60)"/>
<path d="M0,0 L8,0 L12,3 L12,8 L20,8 L24,6 L27,6 L30,9 L32,16 L26,18 L23,15 L23,19 L21,19 L21,17 L19,17 L19,15 L14,14 L14,20 L19,21 L19,25 L23,24 L23,28 L10,27 L10,29 L5,29 L6,23 L4,23 L4,25 L2,25 L2,19 L4,19 L4,21 L8,22 L7,18 L8,15 L6,15 L7,11 L9,7 L9,5 L5,5 L5,3 L0,2 Z " fill="#8A6F4D" transform="translate(74,15)"/>
<path d="M0,0 L2,0 L2,37 L-19,37 L-18,33 L-16,33 L-15,29 L-12,29 L-11,24 L-5,22 L-5,18 L-8,17 L-5,17 L-5,15 L-12,15 L-9,12 L-5,11 L-3,6 L0,5 L-1,2 Z " fill="#404442" transform="translate(148,47)"/>
<path d="M0,0 L2,0 L2,6 L1,10 L4,11 L5,8 L12,6 L15,6 L15,10 L12,10 L11,15 L8,16 L7,19 L5,19 L4,23 L-11,23 L-11,21 L-18,21 L-18,19 L-11,19 L-11,10 L-8,7 L-6,2 L-2,1 Z " fill="#180C14" transform="translate(125,61)"/>
<path d="M0,0 L7,0 L2,5 L1,7 L-3,9 L-4,11 L-7,11 L-7,13 L-40,13 L-43,12 L-43,10 L-48,9 L-51,8 L-51,6 L-41,6 L-37,8 L-12,8 L-12,7 L-19,7 L-19,2 Z " fill="#593D3B" transform="translate(85,71)"/>
<path d="M0,0 L5,1 L5,2 L-2,4 L0,6 L0,14 L-9,16 L-9,18 L-4,18 L-4,16 L0,17 L-1,19 L-1,23 L1,24 L0,26 L4,25 L11,25 L11,27 L9,28 L9,32 L2,32 L-1,30 L-1,27 L-4,27 L-4,25 L-14,24 L-13,27 L-16,27 L-17,20 L-19,18 L-19,15 L-15,15 L-15,17 L-13,17 L-14,12 L-10,14 L-7,12 L-7,5 L-10,4 L-10,2 L-1,1 Z " fill="#978460" transform="translate(57,26)"/>
<path d="M0,0 L19,0 L19,2 L14,1 L14,3 L19,4 L19,7 L23,7 L23,5 L28,7 L37,12 L36,8 L38,8 L38,10 L40,10 L45,15 L46,20 L41,16 L40,14 L33,13 L30,11 L29,13 L23,10 L19,10 L19,13 L11,11 L11,13 L17,14 L20,16 L20,18 L9,18 L6,17 L6,15 L8,15 L9,11 L-3,11 L-4,7 L2,7 L2,9 L4,9 L3,5 L10,5 L4,2 Z " fill="#3D2920" transform="translate(78,0)"/>
<path d="M0,0 L5,1 L5,3 L7,3 L7,5 L9,5 L9,1 L12,2 L12,4 L15,3 L16,7 L15,11 L12,11 L12,9 L10,9 L10,12 L13,13 L13,15 L11,15 L11,17 L7,17 L7,20 L3,21 L2,24 L-1,24 L-1,22 L1,22 L1,20 L-6,22 L-6,20 L-13,22 L-17,23 L-17,25 L-13,26 L-19,26 L-19,22 L-31,23 L-32,19 L-21,19 L-21,17 L-15,17 L-15,19 L-12,18 L-2,18 L-3,15 L0,13 L9,14 L9,10 L5,11 L5,7 L0,6 Z " fill="#91795B" transform="translate(88,29)"/>
<path d="M0,0 L8,1 L11,3 L15,3 L16,8 L19,8 L19,11 L21,11 L21,15 L23,15 L25,18 L25,21 L27,21 L26,26 L23,25 L21,23 L21,25 L19,25 L19,27 L16,26 L13,16 L11,15 L11,17 L9,17 L6,10 L-3,5 L-7,4 L-7,2 L-1,3 L1,4 Z " fill="#483321" transform="translate(96,9)"/>
<path d="M0,0 L7,0 L7,3 L13,3 L12,6 L7,6 L4,6 L4,3 L2,3 L1,7 L9,8 L13,7 L13,9 L12,10 L14,11 L14,14 L11,15 L9,14 L9,11 L5,11 L7,16 L-2,15 L-7,14 L-9,11 L-7,9 L-16,9 L-15,12 L-16,14 L-18,14 L-18,9 L-24,8 L-24,11 L-27,12 L-29,11 L-30,5 L-29,3 L-26,3 L-25,6 L-24,5 L0,4 Z " fill="#736342" transform="translate(63,19)"/>
<path d="M0,0 L5,1 L4,8 L11,4 L17,3 L17,5 L21,6 L15,8 L7,8 L7,20 L2,19 L1,16 L0,20 L-4,21 L-5,16 L-3,10 L-11,10 L-11,12 L-15,15 L-17,15 L-17,17 L-20,17 L-19,12 L-17,12 L-15,6 L-8,7 L-8,5 L-2,3 Z " fill="#393221" transform="translate(27,14)"/>
<path d="M0,0 L3,0 L3,2 L5,3 L4,11 L3,15 L0,12 L0,16 L-2,16 L0,20 L3,21 L2,25 L5,26 L6,23 L16,28 L19,30 L22,29 L20,33 L16,34 L7,31 L2,30 L2,27 L-1,26 L-2,21 L-6,19 L-6,17 L-8,17 L-11,13 L-11,4 L-7,6 L-8,12 L-7,11 L-5,5 L-1,6 Z " fill="#958E75" transform="translate(11,34)"/>
<path d="M0,0 L2,0 L3,7 L6,7 L7,5 L10,5 L11,9 L9,9 L9,11 L7,11 L6,20 L4,20 L2,17 L1,20 L4,21 L4,27 L7,26 L8,31 L4,31 L4,28 L2,29 L-1,34 L-4,35 L-6,37 L-4,26 L-7,25 L-7,24 L-9,25 L-10,21 L-6,15 L-4,15 L-4,19 L-2,14 L0,13 Z " fill="#24160D" transform="translate(124,23)"/>
<path d="M0,0 L2,1 L0,4 L2,4 L2,2 L5,3 L5,4 L13,6 L13,8 L9,8 L9,13 L6,11 L8,8 L2,8 L-5,11 L-12,12 L-12,10 L-16,11 L-14,14 L-8,15 L-8,17 L-11,18 L-21,18 L-22,14 L-18,14 L-19,5 L-21,2 L-13,3 L-12,1 Z " fill="#595040" transform="translate(74,56)"/>
<path d="M0,0 L3,1 L5,8 L8,8 L6,4 L6,1 L9,2 L10,12 L17,12 L18,14 L23,14 L23,12 L21,12 L21,10 L27,12 L33,13 L38,16 L40,23 L39,25 L41,26 L34,26 L36,24 L37,19 L31,20 L31,24 L29,24 L29,22 L27,22 L27,20 L21,18 L20,20 L9,14 L7,13 L7,16 L3,15 L2,13 L4,13 L4,10 L0,9 L-1,5 L1,5 Z " fill="#695742" transform="translate(10,45)"/>
<path d="M0,0 L8,0 L8,5 L7,9 L7,11 L11,10 L11,5 L13,6 L13,9 L20,10 L20,12 L11,15 L14,21 L14,23 L12,23 L9,20 L9,25 L4,23 L4,19 L0,18 L1,7 L-4,7 L-4,4 L0,2 Z " fill="#2C1B14" transform="translate(16,24)"/>
<path d="M0,0 L9,1 L13,2 L13,4 L19,4 L19,15 L17,15 L17,13 L11,13 L11,15 L0,15 L-1,11 L0,10 L-3,9 L-3,11 L-8,11 L-8,9 L-3,7 L1,7 Z " fill="#2E291B" transform="translate(56,33)"/>
<path d="M0,0 L13,0 L13,7 L11,13 L9,13 L10,17 L9,19 L15,17 L16,13 L18,12 L18,14 L22,15 L20,18 L14,19 L14,21 L7,20 L6,23 L2,22 L3,19 L3,21 L5,21 L6,16 L5,13 L3,13 L3,9 L-2,12 L-4,12 L-3,9 L-1,9 L-1,7 L-4,7 L-4,4 L-1,3 Z " fill="#473E36" transform="translate(5,0)"/>
<path d="M0,0 L1,2 L5,2 L6,6 L3,9 L2,12 L4,12 L4,19 L0,18 L0,16 L-2,16 L-1,20 L-2,22 L0,22 L0,20 L2,20 L1,26 L6,26 L6,24 L10,23 L9,26 L8,29 L-3,30 L-4,26 L-3,19 L-9,19 L-10,12 L-6,12 L-6,15 L-1,15 L-3,12 L-4,10 L-6,10 L-11,10 L-14,8 L-13,4 L-8,6 L-3,6 L-2,2 L0,2 Z " fill="#6C5933" transform="translate(78,18)"/>
<path d="M0,0 L7,1 L10,4 L10,6 L18,7 L22,8 L22,11 L27,12 L30,14 L0,14 Z " fill="#040202" transform="translate(0,70)"/>
<path d="M0,0 L2,1 L4,3 L4,6 L7,6 L7,10 L0,10 L0,12 L8,11 L7,14 L-23,14 L-23,11 L-7,10 L-14,7 L-10,4 L-3,3 L-3,1 Z " fill="#605252" transform="translate(107,70)"/>
<path d="M0,0 L26,0 L26,15 L21,14 L18,12 L18,10 L14,9 L9,6 L1,2 Z " fill="#22222B" transform="translate(124,0)"/>
<path d="M0,0 L2,0 L2,17 L-17,17 L-15,13 L-13,10 L-10,11 L-7,9 L-6,6 L-4,6 L-4,2 L0,2 Z " fill="#8EA4B7" transform="translate(148,67)"/>
<path d="M0,0 L2,0 L2,2 L6,3 L6,5 L8,5 L9,9 L10,14 L12,14 L13,23 L10,25 L8,30 L7,27 L8,25 L6,25 L4,30 L2,34 L-1,34 L-1,30 L-3,30 L-2,27 L3,27 L2,23 L3,21 L5,21 L4,17 L7,19 L7,21 L10,20 L11,17 L9,17 L7,11 L5,11 L5,7 L3,7 L3,4 L0,4 L-1,1 Z " fill="#97806F" transform="translate(112,13)"/>
<path d="M0,0 L5,3 L7,6 L7,10 L9,10 L9,8 L12,9 L14,14 L14,21 L8,19 L8,14 L3,7 L3,5 L-5,8 L-13,8 L-13,1 L0,2 Z " fill="#322513" transform="translate(98,16)"/>
<path d="M0,0 L5,0 L6,2 L1,4 L2,10 L7,11 L7,15 L11,14 L11,18 L-2,17 L-2,19 L-7,19 L-6,13 L-8,13 L-8,15 L-10,15 L-10,9 L-8,9 L-8,11 L-4,11 L-1,4 L-3,4 L-3,2 L0,2 Z " fill="#9C875D" transform="translate(86,25)"/>
<path d="M0,0 L6,1 L6,5 L7,9 L-8,11 L-10,10 L-10,8 L-16,8 L-18,4 L-14,3 L-13,4 L-3,2 Z " fill="#2F2621" transform="translate(76,63)"/>
<path d="M0,0 L2,2 L0,2 L1,7 L2,6 L14,6 L14,8 L9,9 L9,11 L0,11 L-1,13 L-6,15 L-11,17 L-10,14 L-13,13 L-10,13 L-10,9 L-14,7 L-12,6 L-1,6 L-1,1 Z " fill="#352619" transform="translate(41,6)"/>
<path d="M0,0 L7,2 L7,4 L10,4 L10,7 L15,9 L15,10 L8,10 L8,14 L3,16 L1,12 L-5,9 L-4,6 L-2,6 L-3,1 Z " fill="#7E6947" transform="translate(46,49)"/>
<path d="M0,0 L4,2 L3,5 L0,5 L-1,10 L-4,11 L-5,14 L-7,14 L-8,18 L-16,18 L-17,13 L-12,12 L-12,9 L-9,9 L-8,4 L0,1 Z " fill="#34281E" transform="translate(137,66)"/>
<path d="M0,0 L4,5 L8,4 L8,12 L11,15 L10,12 L12,12 L12,17 L10,17 L10,22 L7,24 L5,29 L0,30 L1,27 L3,27 L3,23 L-1,22 L3,21 L3,14 L1,5 Z " fill="#3E2C26" transform="translate(138,30)"/>
<path d="M0,0 L3,0 L3,3 L7,3 L8,5 L15,5 L17,4 L17,6 L24,8 L21,9 L21,11 L26,12 L29,13 L29,15 L32,16 L22,16 L19,14 L11,12 L12,9 L15,9 L15,7 L8,8 L-3,4 L-3,1 Z " fill="#5C5F61" transform="translate(13,68)"/>
<path d="M0,0 L2,0 L1,3 L-4,6 L0,5 L-1,9 L-11,11 L-11,13 L-20,13 L-22,12 L-21,9 L-14,8 L-12,4 L-8,4 L-8,2 Z " fill="#231C1C" transform="translate(115,60)"/>
<path d="M0,0 L10,0 L14,2 L31,2 L31,4 L33,4 L33,7 L11,7 L8,6 L8,4 L3,3 L0,2 Z " fill="#6D6865" transform="translate(34,77)"/>
<path d="M0,0 L1,4 L6,4 L6,1 L12,1 L13,5 L12,7 L14,7 L14,5 L17,5 L18,12 L13,15 L11,14 L11,17 L9,17 L9,15 L5,14 L9,14 L8,11 L10,11 L9,8 L1,8 L0,7 Z " fill="#60502D" transform="translate(33,26)"/>
<path d="M0,0 L5,5 L9,8 L9,10 L12,10 L15,18 L15,25 L11,26 L9,22 L12,22 L12,19 L6,23 L6,20 L8,20 L7,17 L8,15 L10,15 L9,11 L6,13 L4,16 L4,13 L2,13 Z " fill="#E7DBD5" transform="translate(125,17)"/>
<path d="M0,0 L2,1 L2,5 L0,5 L2,9 L5,10 L4,14 L7,15 L8,12 L18,17 L21,19 L24,18 L22,22 L18,23 L9,20 L4,19 L4,16 L1,15 L0,10 L-3,9 L-1,8 L-2,5 L1,4 Z " fill="#C1AA92" transform="translate(9,45)"/>
<path d="M0,0 L5,0 L4,4 L1,4 L1,7 L4,7 L4,9 L1,12 L6,9 L8,9 L8,13 L11,12 L12,18 L10,21 L8,21 L7,17 L5,18 L4,21 L0,21 Z " fill="#A68F7D" transform="translate(0,0)"/>
<path d="M0,0 L9,0 L9,5 L3,14 L2,17 L-1,19 L-4,19 L-4,13 L-2,13 Z " fill="#9590B8" transform="translate(18,0)"/>
<path d="M0,0 L5,1 L4,5 L0,7 L2,8 L2,10 L-2,11 L-2,9 L-12,9 L-13,13 L-17,15 L-17,17 L-20,17 L-19,12 L-17,12 L-15,6 L-8,7 L-8,5 L-2,3 Z " fill="#9F977B" transform="translate(27,14)"/>
<path d="M0,0 L13,0 L13,7 L11,13 L8,13 L7,15 L7,6 L2,8 L-2,5 L-2,7 L-4,7 L-4,4 L-1,3 Z " fill="#09090A" transform="translate(5,0)"/>
<path d="M0,0 L3,0 L3,5 L11,4 L10,7 L-15,7 L-14,5 L-18,4 L-18,2 L-15,1 Z " fill="#5E544C" transform="translate(63,73)"/>
<path d="M0,0 L4,2 L14,4 L16,6 L15,8 L19,7 L26,7 L26,9 L24,10 L24,14 L17,14 L14,12 L14,9 L11,9 L11,7 L3,6 Z " fill="#AA9674" transform="translate(42,44)"/>
<path d="M0,0 L8,1 L11,4 L6,5 L10,6 L11,9 L15,11 L14,14 L13,13 L11,17 L9,17 L6,10 L-3,5 L-7,4 L-7,2 L-1,3 L1,4 Z " fill="#BAA78C" transform="translate(96,9)"/>
<path d="M0,0 L7,1 L10,0 L10,2 L12,3 L8,4 L-3,4 L-2,10 L-16,12 L-18,14 L-18,9 L-9,7 L-11,6 L-11,4 L-5,4 L-5,2 Z " fill="#6F5E48" transform="translate(55,13)"/>
<path d="M0,0 L3,1 L5,8 L8,8 L6,4 L6,1 L9,2 L10,12 L17,12 L19,16 L13,16 L7,13 L7,16 L3,15 L2,13 L4,13 L4,10 L0,9 L-1,5 L1,5 Z " fill="#432F22" transform="translate(10,45)"/>
<path d="M0,0 L8,0 L8,5 L7,8 L3,7 L5,20 L0,18 L1,7 L-4,7 L-4,4 L0,2 Z " fill="#352015" transform="translate(16,24)"/>
<path d="M0,0 L2,0 L1,7 L-5,7 L-5,10 L-13,12 L-21,16 L-26,17 L-25,14 L-20,9 L-8,6 L-4,6 L-4,4 L0,4 Z " fill="#2B201A" transform="translate(115,50)"/>
<path d="M0,0 L4,2 L5,0 L5,3 L7,3 L11,10 L7,8 L5,7 L5,9 L7,9 L7,11 L2,12 L1,9 L-6,9 L-6,3 L-2,4 L-2,2 L0,2 Z " fill="#C5B4A1" transform="translate(26,48)"/>
<path d="M0,0 L4,0 L4,2 L6,2 L6,4 L10,5 L12,6 L12,8 L16,8 L13,5 L10,2 L15,2 L19,5 L19,7 L21,7 L21,9 L17,8 L18,12 L13,10 L4,5 L4,7 L0,7 L0,4 L-5,3 L-5,1 L0,2 Z " fill="#A5978C" transform="translate(97,0)"/>
<path d="M0,0 L8,0 L12,3 L12,8 L21,8 L23,9 L23,11 L12,10 L12,12 L9,12 L9,14 L11,14 L9,21 L7,18 L8,15 L6,15 L7,11 L9,7 L9,5 L5,5 L5,3 L0,2 Z " fill="#806A47" transform="translate(74,15)"/>
<path d="M0,0 L5,0 L5,3 L13,2 L12,5 L-18,5 L-18,2 L-2,1 Z " fill="#85848E" transform="translate(102,79)"/>
<path d="M0,0 L4,1 L4,4 L-1,3 L-2,7 L-5,7 L-5,12 L-2,13 L-6,15 L-8,14 L-8,11 L-12,9 L-13,6 L-5,3 L-3,3 L-3,1 Z " fill="#735E46" transform="translate(39,33)"/>
<path d="M0,0 L2,0 L2,2 L5,2 L6,0 L12,2 L12,9 L10,11 L9,5 L6,5 L6,12 L1,10 L0,19 L-3,16 L-2,11 L-2,8 L1,8 L1,6 L3,6 L4,7 L4,3 L0,2 Z " fill="#685744" transform="translate(5,29)"/>
<path d="M0,0 L6,0 L8,2 L18,6 L20,9 L18,14 L21,15 L21,24 L23,25 L19,24 L19,17 L17,17 L16,12 L17,10 L13,9 L8,5 L0,1 Z " fill="#2F1D14" transform="translate(118,0)"/>
<path d="M0,0 L2,0 L4,7 L7,10 L10,11 L10,16 L6,16 L6,18 L2,18 L1,16 L1,13 L4,13 L3,11 L-3,13 L-3,10 L0,8 L-1,4 Z " fill="#62523C" transform="translate(105,38)"/>
<path d="M0,0 L6,0 L8,2 L3,2 L3,4 L-2,6 L-3,8 L-13,10 L-16,8 L-15,1 L-11,1 L-12,4 L-15,7 L-10,5 Z " fill="#524C3F" transform="translate(104,60)"/>
<path d="M0,0 L2,1 L2,7 L5,6 L6,11 L2,11 L2,8 L0,9 L-3,14 L-6,15 L-8,17 L-6,7 L-4,6 L-4,4 L-2,4 L-2,1 Z " fill="#2B1E19" transform="translate(126,43)"/>
<path d="M0,0 L8,0 L16,3 L19,6 L12,6 L12,9 L10,9 L10,7 L4,7 L5,11 L-3,11 L-3,9 L2,8 L3,5 L8,4 L8,2 L0,1 Z " fill="#80685E" transform="translate(70,0)"/>
<path d="M0,0 L17,0 L16,2 L11,2 L11,6 L5,7 L-5,7 L-5,6 L1,6 Z " fill="#493723" transform="translate(52,17)"/>
<path d="M0,0 L9,1 L7,3 L9,5 L3,8 L-1,7 L-1,5 L-10,6 L-10,1 Z " fill="#947879" transform="translate(76,72)"/>
<path d="M0,0 L2,2 L6,0 L6,4 L5,13 L6,16 L-4,16 L-4,12 L0,11 L2,12 L3,5 L-5,3 L-3,1 L0,2 Z " fill="#786356" transform="translate(114,45)"/>
<path d="M0,0 L3,0 L2,4 L-1,6 L-3,11 L-5,15 L-6,18 L-9,18 L-9,15 L-12,14 L-9,11 L-6,10 L-5,7 L-10,9 L-7,5 L-3,3 L0,3 Z " fill="#C4B5A2" transform="translate(120,58)"/>
<path d="M0,0 L1,0 L2,10 L1,12 L-3,14 L-6,14 L-7,4 L-5,2 L0,3 Z " fill="#9898A2" transform="translate(140,39)"/>
<path d="M0,0 L5,2 L5,6 L9,7 L10,3 L13,4 L12,8 L9,9 L9,11 L4,11 L3,6 L1,5 L4,13 L-1,12 L-1,1 Z " fill="#8A7C6B" transform="translate(15,41)"/>
<path d="M0,0 L3,1 L4,11 L-1,10 L-1,12 L1,13 L0,14 L-13,13 L-13,12 L-4,10 L-4,5 L1,3 Z " fill="#B19E8C" transform="translate(53,60)"/>
<path d="M0,0 L3,1 L3,2 L9,3 L9,10 L4,8 L1,9 L-6,7 L-6,5 Z " fill="#20171C" transform="translate(134,59)"/>
<path d="M0,0 L3,2 L2,4 L3,5 L8,12 L8,14 L10,15 L8,16 L0,16 Z " fill="#8C796B" transform="translate(0,47)"/>
<path d="M0,0 L6,0 L6,2 L8,3 L5,3 L6,6 L4,6 L4,8 L8,9 L2,9 L2,5 L-10,6 L-11,2 L0,2 Z " fill="#5E5331" transform="translate(67,46)"/>
<path d="M0,0 L3,0 L4,3 L5,2 L28,1 L28,3 L22,4 L9,4 L6,5 L5,8 L2,9 L0,8 L-1,2 Z " fill="#A6997E" transform="translate(34,22)"/>
<path d="M0,0 L11,0 L11,11 L7,9 L7,7 L3,6 L0,3 Z " fill="#060504" transform="translate(139,3)"/>
<path d="M0,0 L7,0 L9,1 L9,5 L16,5 L16,7 L0,7 Z " fill="#777962" transform="translate(0,77)"/>
<path d="M0,0 L2,0 L1,4 L-1,5 L-2,8 L-4,8 L-4,10 L-6,10 L-6,14 L-11,15 L-11,10 L-8,7 L-6,2 L-2,1 Z " fill="#584A2A" transform="translate(125,61)"/>
<path d="M0,0 L4,1 L9,7 L10,10 L12,11 L12,14 L21,15 L24,16 L22,20 L17,18 L17,16 L10,16 L9,12 L5,8 L2,3 L0,2 Z " fill="#302D25" transform="translate(1,50)"/>
<path d="M0,0 L2,0 L2,9 L-12,9 L-12,7 L-6,6 L-5,3 Z " fill="#1D1D2F" transform="translate(148,75)"/>
<path d="M0,0 L6,0 L10,0 L13,0 L13,2 L11,2 L11,4 L13,5 L11,5 L10,8 L8,8 L8,5 L1,6 L1,4 L4,4 L4,2 L0,2 L0,5 L-5,5 L-5,3 Z " fill="#4A3D18" transform="translate(76,49)"/>
<path d="M0,0 L5,0 L14,5 L19,9 L22,10 L22,17 L17,12 L18,10 L13,8 L6,6 L6,4 L2,3 L0,2 Z " fill="#C8C0B9" transform="translate(113,0)"/>
<path d="M0,0 L2,0 L2,2 L6,1 L7,0 L15,0 L14,7 L13,5 L10,5 L10,7 L7,8 L-1,2 Z " fill="#17120F" transform="translate(60,37)"/>
<path d="M0,0 L2,0 L4,2 L6,2 L6,4 L22,4 L26,6 L0,7 L-1,3 Z " fill="#A48F72" transform="translate(44,0)"/>
<path d="M0,0 L2,0 L2,11 L1,13 L-8,15 L-12,14 L-5,11 L-3,6 L0,5 L-1,2 Z " fill="#917D75" transform="translate(148,47)"/>
<path d="M0,0 L4,1 L12,5 L11,1 L13,1 L13,3 L15,3 L20,8 L21,13 L16,9 L15,7 L8,6 L5,4 L4,6 L-5,2 L-5,1 Z " fill="#422E1B" transform="translate(103,7)"/>
<path d="M0,0 L2,1 L0,4 L-2,4 L-2,6 L-4,6 L-5,12 L-7,12 L-7,14 L-12,14 L-13,9 L-8,8 L-8,5 L-5,5 L-5,2 Z " fill="#6B656D" transform="translate(133,70)"/>
<path d="M0,0 L8,0 L8,3 L4,3 L5,7 L1,8 L1,6 L3,6 L3,4 L-4,6 L-4,4 L-14,6 L-14,4 L-10,2 L0,2 Z " fill="#B19F79" transform="translate(86,45)"/>
<path d="M0,0 L14,1 L14,2 L9,2 L9,4 L13,5 L13,7 L10,9 L5,9 L5,6 L-2,4 Z " fill="#55422F" transform="translate(65,13)"/>
<path d="M0,0 L4,2 L3,8 L4,7 L6,7 L7,5 L7,7 L9,7 L10,11 L8,13 L8,15 L5,15 L5,13 L3,13 L0,9 Z " fill="#998373" transform="translate(0,38)"/>
<path d="M0,0 L7,1 L9,0 L14,1 L18,1 L18,3 L15,4 L14,6 L24,8 L25,10 L17,9 L12,7 L12,4 L4,3 L0,2 Z " fill="#807D7E" transform="translate(10,74)"/>
<path d="M0,0 L5,3 L9,4 L9,10 L7,12 L0,11 L1,3 Z " fill="#17170C" transform="translate(141,11)"/>
<path d="M0,0 L1,3 L10,5 L13,6 L13,8 L16,9 L6,9 L3,7 L-5,5 L-4,2 L0,2 Z " fill="#241F2A" transform="translate(29,75)"/>
<path d="M0,0 L1,2 L10,1 L10,7 L1,7 L0,4 L-7,3 L-8,1 L0,2 Z " fill="#433924" transform="translate(61,57)"/>
<path d="M0,0 L3,0 L4,8 L3,10 L-3,12 L-3,10 L-5,10 L-6,6 L-3,3 L0,3 Z " fill="#746248" transform="translate(96,49)"/>
<path d="M0,0 L2,0 L2,5 L6,5 L5,9 L3,9 L3,12 L0,12 L0,10 L2,10 L-1,7 L-2,6 L-2,11 L-5,15 L-5,4 L-1,4 Z " fill="#2E1C11" transform="translate(5,17)"/>
<path d="M0,0 L9,1 L9,6 L-2,7 L-6,8 L-5,5 Z " fill="#220B11" transform="translate(31,6)"/>
<path d="M0,0 L6,1 L18,7 L18,9 L22,10 L26,15 L21,14 L18,12 L18,10 L14,9 L9,6 L1,2 Z " fill="#A09998" transform="translate(124,0)"/>
<path d="M0,0 L3,1 L4,5 L1,5 L1,7 L-8,7 L-10,6 L-9,3 Z " fill="#170E0C" transform="translate(103,66)"/>
<path d="M0,0 L13,2 L13,5 L8,7 L0,7 Z " fill="#574222" transform="translate(85,17)"/>
<path d="M0,0 L7,1 L8,6 L6,7 L7,10 L3,8 L-3,5 L-2,2 L0,2 Z " fill="#D1BD9D" transform="translate(44,53)"/>
<path d="M0,0 L3,1 L3,3 L0,5 L2,6 L1,9 L-7,11 L-7,1 L-5,1 L-5,3 Z " fill="#3E2E1F" transform="translate(106,48)"/>
<path d="M0,0 L12,0 L12,2 L17,4 L17,6 L12,4 L9,4 L12,6 L12,8 L8,8 L8,6 L2,4 L2,2 L0,2 Z " fill="#252225" transform="translate(101,0)"/>
<path d="M0,0 L4,2 L7,5 L8,2 L10,2 L11,9 L7,12 L7,10 L3,8 L0,2 Z " fill="#6A5259" transform="translate(127,15)"/>
<path d="M0,0 L3,0 L4,4 L5,8 L6,6 L10,7 L10,9 L12,10 L9,11 L9,13 L7,13 L7,15 L4,14 L1,4 Z " fill="#695942" transform="translate(108,21)"/>
<path d="M0,0 L2,0 L2,2 L8,3 L11,5 L11,7 L0,7 L-3,6 L-3,4 L-1,4 Z " fill="#47361E" transform="translate(87,11)"/>
<path d="M0,0 L5,0 L6,2 L1,4 L2,14 L-3,12 L-3,15 L-5,15 L-4,11 L-1,4 L-3,4 L-3,2 L0,2 Z " fill="#B49D73" transform="translate(86,25)"/>
<path d="M0,0 L13,0 L11,2 L3,4 L-7,4 L-7,1 Z " fill="#A08F7B" transform="translate(49,8)"/>
<path d="M0,0 L17,0 L17,3 L3,4 L0,5 Z " fill="#4A4244" transform="translate(27,0)"/>
<path d="M0,0 L2,1 L0,5 L2,6 L-2,8 L-3,11 L-3,7 L-5,7 L-7,11 L-9,14 L-11,14 L-10,10 L-8,10 L-7,6 L-4,6 L-3,1 Z " fill="#867161" transform="translate(140,70)"/>
<path d="M0,0 L4,5 L8,4 L8,11 L6,13 L4,17 L1,5 Z " fill="#3D3125" transform="translate(138,30)"/>
<path d="M0,0 L5,2 L10,0 L10,7 L8,9 L5,8 L5,4 L0,7 L-2,7 L-1,4 L1,4 Z " fill="#736C5E" transform="translate(3,5)"/>
<path d="M0,0 L19,0 L19,2 L14,1 L14,3 L18,5 L17,7 L7,3 L0,1 Z " fill="#271513" transform="translate(78,0)"/>
<path d="M0,0 L1,2 L9,3 L9,1 L13,0 L12,3 L11,6 L0,7 L-1,3 Z " fill="#726242" transform="translate(75,41)"/>
<path d="M0,0 L2,0 L2,2 L6,3 L6,5 L8,5 L9,9 L11,16 L7,13 L7,11 L5,11 L5,7 L3,7 L3,4 L0,4 L-1,1 Z " fill="#E6D5C5" transform="translate(112,13)"/>
<path d="M0,0 L5,1 L9,4 L13,5 L14,11 L6,5 L8,10 L3,5 Z " fill="#171313" transform="translate(121,10)"/>
<path d="M0,0 L3,0 L3,2 L-4,3 L-4,5 L5,4 L5,5 L-2,7 L-8,7 L-11,4 Z " fill="#97857F" transform="translate(104,72)"/>
<path d="M0,0 L5,1 L5,3 L7,3 L7,5 L9,5 L7,11 L5,11 L5,7 L0,6 Z " fill="#5F4628" transform="translate(88,29)"/>
<path d="M0,0 L2,0 L4,5 L10,6 L10,8 L7,9 L-3,9 L-4,5 L0,5 Z " fill="#776658" transform="translate(56,65)"/>
<path d="M0,0 L4,0 L4,10 L3,13 L0,12 L-1,9 L0,2 L-2,1 Z " fill="#061107" transform="translate(146,32)"/>
<path d="M0,0 L2,3 L6,2 L4,7 L3,10 L0,12 L-3,12 L-3,6 L-1,6 Z " fill="#656473" transform="translate(17,7)"/>
<path d="M0,0 L3,0 L3,5 L11,4 L10,7 L-7,7 L-5,5 L0,4 L-5,3 L-3,1 Z " fill="#322526" transform="translate(63,73)"/>
<path d="M0,0 L5,1 L5,2 L-5,4 L-5,6 L-2,6 L-2,11 L-4,11 L-4,9 L-7,8 L-7,5 L-10,4 L-10,2 L-1,1 Z " fill="#B3A07E" transform="translate(57,26)"/>
<path d="M0,0 L4,0 L4,2 L6,3 L3,3 L2,7 L-2,9 L-2,11 L-5,11 L-4,6 L-2,6 Z " fill="#BFAA9B" transform="translate(12,20)"/>
<path d="M0,0 L3,0 L3,3 L8,4 L11,6 L-3,6 L-3,4 L-10,4 L-10,1 L-8,1 L-8,3 L-1,3 L2,4 Z " fill="#1E1C1A" transform="translate(19,78)"/>
<path d="M0,0 L3,1 L3,2 L11,4 L11,6 L7,6 L7,11 L4,9 L6,6 L-3,6 L-3,4 L-1,4 Z " fill="#645C4D" transform="translate(76,58)"/>
<path d="M0,0 L6,1 L5,4 L7,5 L7,7 L14,7 L14,8 L3,8 L2,4 L3,3 L0,2 L0,4 L-5,4 L-5,2 Z " fill="#4D3E1C" transform="translate(53,40)"/>
<path d="M0,0 L6,2 L10,3 L12,3 L13,7 L5,7 L4,4 L0,4 Z " fill="#8C978D" transform="translate(16,67)"/>
<path d="M0,0 L6,1 L4,3 L6,4 L6,6 L-6,6 L-7,2 L-1,2 L-1,4 L1,4 Z " fill="#3B1D1B" transform="translate(81,5)"/>
<path d="M0,0 L8,1 L11,4 L5,5 L5,3 L4,4 L0,6 L-7,4 L-7,2 L-1,3 L1,4 Z " fill="#938170" transform="translate(96,9)"/>
<path d="M0,0 L5,1 L5,3 L7,3 L7,5 L5,6 L5,8 L13,7 L10,9 L4,9 L4,7 L-1,7 L1,2 Z " fill="#736A4D" transform="translate(34,66)"/>
<path d="M0,0 L10,0 L10,2 L14,4 L12,5 L10,12 L8,12 L7,7 L9,1 L1,1 L0,3 Z " fill="#59473A" transform="translate(15,23)"/>
<path d="M0,0 L2,0 L2,4 L5,3 L6,9 L4,12 L2,12 L1,7 L1,4 L-3,4 L-3,2 Z " fill="#E6DABF" transform="translate(6,9)"/>
<path d="M0,0 L1,4 L6,4 L7,1 L11,6 L9,8 L1,8 L0,7 Z " fill="#666041" transform="translate(33,26)"/>
<path d="M0,0 L2,2 L10,3 L10,5 L1,5 L-2,4 L-3,6 L-7,4 L-3,1 Z " fill="#382616" transform="translate(65,9)"/>
<path d="M0,0 L19,0 L19,1 L7,4 L4,4 L4,2 L1,3 Z " fill="#2B1805" transform="translate(46,0)"/>
<path d="M0,0 L2,0 L4,2 L5,6 L0,4 L-1,13 L-4,10 L-3,5 L-3,2 L0,2 Z " fill="#474634" transform="translate(6,35)"/>
<path d="M0,0 L2,0 L4,5 L4,12 L0,13 L-2,9 L1,9 Z " fill="#E6D9C7" transform="translate(136,30)"/>
<path d="M0,0 L3,1 L3,3 L6,2 L7,6 L6,10 L3,10 L3,8 L1,8 L2,4 L0,4 Z " fill="#836B4C" transform="translate(97,30)"/>
<path d="M0,0 L8,0 L16,3 L19,6 L9,5 L5,4 L8,4 L8,2 L0,1 Z " fill="#8D7A78" transform="translate(70,0)"/>
<path d="M0,0 L4,3 L3,5 L-4,5 L-4,3 L-11,3 L-11,1 Z " fill="#0C0C0A" transform="translate(118,79)"/>
<path d="M0,0 L4,1 L12,3 L10,5 L-2,6 Z " fill="#564C4C" transform="translate(90,76)"/>
<path d="M0,0 L7,1 L9,2 L9,4 L3,5 L6,7 L0,7 Z " fill="#131B25" transform="translate(0,70)"/>
<path d="M0,0 L12,0 L9,1 L9,3 L17,4 L17,5 L9,6 L8,4 L-2,2 Z " fill="#160D0A" transform="translate(36,74)"/>
<path d="M0,0 L2,0 L6,4 L6,10 L4,10 L4,8 L2,8 L2,6 L-2,5 Z " fill="#3A2821" transform="translate(35,59)"/>
<path d="M0,0 L4,2 L4,4 L6,5 L4,6 L5,9 L3,9 L2,12 L0,7 Z " fill="#48351F" transform="translate(19,31)"/>
<path d="M0,0 L6,0 L8,4 L5,4 L4,7 L0,7 Z " fill="#826C5A" transform="translate(0,14)"/>
<path d="M0,0 L1,4 L8,2 L13,2 L11,3 L11,5 L13,5 L13,7 L8,8 L7,5 L0,5 Z " fill="#867262" transform="translate(20,52)"/>
<path d="M0,0 L3,0 L3,3 L9,3 L8,6 L3,6 L0,6 L0,3 L-3,3 L-3,1 Z " fill="#806E4F" transform="translate(67,19)"/>
<path d="M0,0 L4,1 L4,3 L6,3 L6,1 L8,2 L7,4 L1,5 L1,7 L-4,7 L-2,3 Z " fill="#CFBAAC" transform="translate(135,77)"/>
<path d="M0,0 L6,0 L6,2 L8,2 L8,5 L6,5 L6,3 L-3,3 L-10,2 L-10,1 Z " fill="#BBB9BE" transform="translate(59,79)"/>
<path d="M0,0 L2,1 L2,5 L0,5 L2,9 L5,10 L5,13 L1,15 L0,10 L-3,9 L-1,8 L-2,5 L1,4 Z " fill="#735F4E" transform="translate(9,45)"/>
<path d="M0,0 L6,2 L7,8 L5,7 L5,5 L-2,4 L-3,1 Z " fill="#503A1A" transform="translate(46,49)"/>
<path d="M0,0 L5,2 L4,5 L4,3 L2,3 L3,11 L4,13 L-1,12 L-1,1 Z " fill="#705E4E" transform="translate(15,41)"/>
<path d="M0,0 L5,2 L11,2 L10,5 L2,6 L-1,4 Z " fill="#4F3A16" transform="translate(65,22)"/>
<path d="M0,0 L3,1 L13,1 L9,3 L8,4 L-1,4 L-2,1 Z " fill="#1C1209" transform="translate(60,66)"/>
<path d="M0,0 L6,0 L8,7 L7,9 L9,10 L2,10 L4,8 L5,3 L0,3 Z " fill="#7B6655" transform="translate(42,61)"/>
<path d="M0,0 L4,2 L2,8 L0,8 L-1,10 L-6,6 L-1,4 L2,4 L2,2 L0,2 Z " fill="#523C2D" transform="translate(31,55)"/>
<path d="M0,0 L4,1 L1,2 L1,6 L-4,9 L-8,10 L-8,8 L-5,6 L-5,3 L0,3 Z " fill="#2C1905" transform="translate(95,46)"/>
<path d="M0,0 L4,2 L14,4 L14,6 L3,6 Z " fill="#CDB995" transform="translate(42,44)"/>
<path d="M0,0 L4,2 L4,4 L0,4 L0,10 L-4,9 L-4,4 L-1,3 Z " fill="#4C381C" transform="translate(38,36)"/>
<path d="M0,0 L5,3 L7,6 L7,12 L3,7 L3,5 L0,5 L0,3 L-3,2 L0,2 Z " fill="#4C3620" transform="translate(98,16)"/>
<path d="M0,0 L12,0 L11,2 L0,4 L-3,3 Z " fill="#311E0B" transform="translate(57,17)"/>
<path d="M0,0 L11,1 L13,2 L13,4 L8,5 L-1,2 Z " fill="#645542" transform="translate(65,0)"/>
<path d="M0,0 L4,0 L4,2 L2,3 L1,6 L-1,6 L-2,10 L-5,10 L-5,8 L-3,8 L-3,6 L-5,5 L-2,2 L0,2 Z " fill="#120F10" transform="translate(131,74)"/>
<path d="M0,0 L3,0 L3,3 L7,3 L7,6 L1,5 L-3,4 L-3,1 Z " fill="#6A7475" transform="translate(13,68)"/>
<path d="M0,0 L5,1 L6,4 L12,5 L14,8 L5,6 L5,4 L0,3 Z " fill="#BBCAD5" transform="translate(4,68)"/>
<path d="M0,0 L7,1 L7,3 L2,4 L1,6 L-3,5 L-2,1 Z " fill="#040202" transform="translate(128,66)"/>
<path d="M0,0 L2,0 L1,4 L-1,5 L-2,8 L-4,8 L-4,4 L-6,4 L-6,8 L-8,7 L-6,2 L-2,1 Z " fill="#7B6A4B" transform="translate(125,61)"/>
<path d="M0,0 L8,1 L11,3 L10,6 L2,5 L2,2 L0,2 Z " fill="#B2A29A" transform="translate(11,59)"/>
<path d="M0,0 L2,0 L2,3 L8,2 L10,0 L12,0 L12,5 L11,3 L4,5 L4,7 L-1,6 L-1,3 L1,3 Z " fill="#655339" transform="translate(29,44)"/>
<path d="M0,0 L3,4 L-1,6 L-2,9 L-2,7 L-7,7 L-4,2 L0,2 Z " fill="#5D492E" transform="translate(103,42)"/>
<path d="M0,0 L1,3 L-13,5 L-15,7 L-15,2 L-7,1 L0,2 Z " fill="#5E543E" transform="translate(52,20)"/>
<path d="M0,0 L4,2 L4,6 L7,6 L7,9 L9,10 L6,11 L0,4 Z " fill="#8F7B5F" transform="translate(108,11)"/>
<path d="M0,0 L8,0 L10,1 L10,3 L17,4 L14,6 L7,4 L7,3 L0,3 Z " fill="#32261A" transform="translate(83,69)"/>
<path d="M0,0 L3,0 L1,6 L-1,6 L-1,9 L-5,10 L-5,6 L-3,6 L-3,4 L-1,4 Z " fill="#3C2C20" transform="translate(124,65)"/>
<path d="M0,0 L6,1 L8,6 L3,7 L3,5 L0,5 Z " fill="#695744" transform="translate(55,60)"/>
<path d="M0,0 L4,1 L3,6 L-6,5 L-6,3 L0,2 Z " fill="#907A54" transform="translate(53,42)"/>
<path d="M0,0 L5,1 L5,3 L7,3 L8,7 L6,7 L6,5 L4,5 L4,3 L-1,2 L-2,8 L-3,4 L-3,1 Z " fill="#9E845E" transform="translate(89,27)"/>
<path d="M0,0 L6,1 L8,4 L7,7 L4,8 L2,6 L6,6 L6,3 L0,4 L-3,2 Z " fill="#826B49" transform="translate(88,42)"/>
<path d="M0,0 L4,1 L4,4 L-1,7 L-3,6 L-2,4 L-5,3 L-2,3 L-2,1 Z " fill="#160F05" transform="translate(33,16)"/>
<path d="M0,0 L6,0 L8,2 L13,4 L12,7 L8,5 L0,1 Z " fill="#392B27" transform="translate(118,0)"/>
<path d="M0,0 L1,0 L1,6 L6,6 L6,7 L-4,7 L-4,2 L0,2 Z " fill="#7E7463" transform="translate(87,62)"/>
<path d="M0,0 L6,0 L8,2 L3,2 L3,4 L-2,5 L-6,3 Z " fill="#514F51" transform="translate(104,60)"/>
<path d="M0,0 L1,0 L2,6 L1,8 L-5,10 L-5,8 L-7,8 L-6,5 L-1,5 L-2,3 L0,3 Z " fill="#665845" transform="translate(98,51)"/>
<path d="M0,0 L2,0 L3,6 L-3,10 L-4,6 Z " fill="#38231A" transform="translate(118,38)"/>
<path d="M0,0 L4,1 L4,4 L-1,3 L-1,6 L-5,6 L-5,3 L-3,3 L-3,1 Z " fill="#B4A686" transform="translate(39,33)"/>
<path d="M0,0 L2,0 L2,6 L0,8 L-4,7 L-4,3 L0,3 Z " fill="#3C3D37" transform="translate(148,15)"/>
<path d="M0,0 L8,0 L11,2 L11,4 L2,3 L0,2 Z " fill="#937F66" transform="translate(74,15)"/>
<path d="M0,0 L6,1 L15,6 L15,8 L9,6 L1,2 Z " fill="#AB9B92" transform="translate(124,0)"/>
<path d="M0,0 L2,1 L2,3 L4,4 L2,5 L-6,5 L-6,2 Z " fill="#7B7370" transform="translate(6,58)"/>
<path d="M0,0 L2,0 L3,3 L5,5 L-1,7 L-3,9 L-3,7 L-6,6 L-2,4 Z " fill="#8F8079" transform="translate(126,51)"/>
<path d="M0,0 L3,0 L3,2 L5,3 L5,6 L3,6 L3,4 L-6,5 L-5,2 L0,2 Z " fill="#3E3727" transform="translate(70,42)"/>
<path d="M0,0 L4,1 L6,6 L4,6 L1,3 L1,8 L-4,6 L0,4 Z " fill="#41312B" transform="translate(24,41)"/>
<path d="M0,0 L2,1 L2,3 L0,3 L1,5 L4,2 L6,2 L6,5 L3,5 L2,10 L-1,7 Z " fill="#6C766F" transform="translate(131,34)"/>
<path d="M0,0 L6,1 L5,6 L4,4 L1,4 L1,6 L-2,7 L-3,4 L0,4 Z " fill="#090507" transform="translate(69,38)"/>
<path d="M0,0 L1,2 L0,3 L2,4 L2,7 L-1,8 L-3,7 L-3,4 L-6,3 Z " fill="#AC976C" transform="translate(75,26)"/>
<path d="M0,0 L4,2 L7,5 L6,11 L3,7 L4,5 L2,5 L2,3 L-2,1 Z " fill="#5E443A" transform="translate(116,13)"/>
<path d="M0,0 L2,0 L2,9 L-4,9 L-3,7 L-2,7 Z " fill="#020106" transform="translate(148,75)"/>
<path d="M0,0 L5,0 L5,4 L2,7 L-1,6 L-1,1 Z " fill="#0E0403" transform="translate(136,53)"/>
<path d="M0,0 L2,0 L2,2 L6,3 L4,3 L5,6 L8,8 L5,9 L0,4 Z " fill="#412F15" transform="translate(33,49)"/>
<path d="M0,0 L1,3 L1,9 L-5,13 L-5,10 L-3,10 L-4,7 L-3,5 L-1,5 L-2,2 L0,2 Z " fill="#A6A899" transform="translate(136,27)"/>
<path d="M0,0 L9,1 L7,3 L-6,3 L-6,2 Z " fill="#B8A2A0" transform="translate(76,72)"/>
<path d="M0,0 L3,1 L1,2 L0,6 L5,6 L1,9 L-3,7 L-2,2 L0,2 Z " fill="#454031" transform="translate(33,67)"/>
<path d="M0,0 L2,1 L0,6 L-5,7 L-7,8 L-5,4 L-3,1 Z " fill="#2B1F18" transform="translate(128,56)"/>
<path d="M0,0 L10,1 L9,4 L2,4 Z " fill="#C1AD8B" transform="translate(57,54)"/>
<path d="M0,0 L2,1 L2,4 L4,4 L5,10 L2,11 L1,5 L-1,4 Z " fill="#AC9F99" transform="translate(126,39)"/>
<path d="M0,0 L1,0 L1,5 L-1,6 L-2,11 L-4,14 L-4,3 L0,3 Z " fill="#40303D" transform="translate(4,18)"/>
<path d="M0,0 L4,2 L5,10 L3,10 L3,14 L1,14 L2,3 L0,2 Z " fill="#5A4639" transform="translate(121,13)"/>
<path d="M0,0 L7,0 L8,5 L1,5 L2,3 L0,2 Z " fill="#7B6F61" transform="translate(44,17)"/>
<path d="M0,0 L2,0 L2,2 L12,4 L13,6 L5,5 L0,3 Z " fill="#726D77" transform="translate(22,78)"/>
<path d="M0,0 L8,0 L8,4 L10,4 L11,7 L9,7 L9,5 L4,3 L0,1 Z " fill="#050C0C" transform="translate(2,74)"/>
<path d="M0,0 L8,0 L8,1 L13,2 L13,3 L5,4 L0,3 Z " fill="#413B36" transform="translate(70,69)"/>
<path d="M0,0 L2,1 L1,4 L6,4 L6,5 L-1,6 L-3,5 L-3,3 L-9,3 L-9,2 L-1,1 Z " fill="#3C3329" transform="translate(69,68)"/>
<path d="M0,0 L3,1 L4,11 L1,9 L1,7 L-3,4 L1,3 Z " fill="#AE9986" transform="translate(53,60)"/>
<path d="M0,0 L3,0 L2,4 L-8,3 L-8,1 Z " fill="#BCC5CE" transform="translate(8,62)"/>
<path d="M0,0 L2,1 L0,4 L3,5 L-2,8 L-6,8 L-5,5 Z " fill="#3C3424" transform="translate(95,59)"/>
<path d="M0,0 L3,1 L2,6 L-3,6 L-4,1 L0,2 Z " fill="#9B8576" transform="translate(24,50)"/>
<path d="M0,0 L3,0 L3,2 L1,2 L1,4 L3,5 L1,5 L0,8 L-2,8 L-2,5 L-4,4 L-1,4 L-1,2 L-3,1 Z " fill="#68562D" transform="translate(86,49)"/>
<path d="M0,0 L5,1 L4,7 L1,7 L1,3 L-1,3 Z " fill="#AB9487" transform="translate(110,40)"/>
<path d="M0,0 L3,0 L4,0 L4,6 L-1,4 L-1,7 L-3,7 L-2,3 Z " fill="#DBC6A1" transform="translate(84,33)"/>
<path d="M0,0 L7,1 L12,4 L12,5 L3,4 L3,2 L0,2 Z " fill="#A2956E" transform="translate(58,30)"/>
<path d="M0,0 L2,0 L2,2 L4,2 L9,7 L10,12 L5,8 L0,2 Z " fill="#26120D" transform="translate(114,8)"/>
<path d="M0,0 L6,1 L7,4 L-2,4 L-2,2 L0,2 Z " fill="#241206" transform="translate(91,14)"/>
<path d="M0,0 L5,0 L10,3 L10,5 L3,4 L0,2 Z " fill="#CBBFC1" transform="translate(113,0)"/>
<path d="M0,0 L7,0 L9,1 L9,4 L0,3 Z " fill="#799E68" transform="translate(0,77)"/>
<path d="M0,0 L5,1 L3,5 L-2,5 L-2,1 Z " fill="#97918D" transform="translate(112,56)"/>
<path d="M0,0 L2,1 L0,4 L-2,4 L-2,6 L-4,5 L-5,2 L-12,3 L-8,1 Z " fill="#695C3B" transform="translate(74,56)"/>
<path d="M0,0 L2,0 L4,5 L1,5 L1,9 L-3,10 L-1,4 L1,4 L1,2 L-1,1 Z " fill="#1D0D06" transform="translate(23,36)"/>
<path d="M0,0 L2,0 L2,2 L5,3 L5,5 L3,5 L2,9 L-1,10 Z " fill="#17090F" transform="translate(2,22)"/>
<path d="M0,0 L6,3 L6,6 L8,8 L4,7 L0,4 Z " fill="#7E7F7A" transform="translate(125,7)"/>
<path d="M0,0 L6,0 L8,1 L8,3 L6,3 L6,5 L1,5 Z " fill="#343436" transform="translate(120,79)"/>
<path d="M0,0 L9,0 L6,2 L6,4 L0,5 Z " fill="#9A8784" transform="translate(66,73)"/>
<path d="M0,0 L6,0 L6,5 L0,4 Z " fill="#B5A298" transform="translate(41,64)"/>
<path d="M0,0 L3,1 L6,4 L-4,6 L-2,2 Z " fill="#2D2024" transform="translate(134,59)"/>
<path d="M0,0 L4,1 L9,7 L9,9 L5,8 L2,3 L0,2 Z " fill="#311E12" transform="translate(1,50)"/>
<path d="M0,0 L2,0 L3,3 L7,2 L7,6 L-1,5 Z " fill="#BDA687" transform="translate(90,37)"/>
<path d="M0,0 L5,0 L7,4 L2,4 L1,7 Z " fill="#4D411C" transform="translate(56,33)"/>
<path d="M0,0 L4,0 L2,4 L-3,5 L-3,1 Z " fill="#6A552C" transform="translate(79,23)"/>
<path d="M0,0 L4,2 L4,11 L6,12 L2,11 L2,4 L0,4 Z " fill="#361718" transform="translate(135,13)"/>
<path d="M0,0 L7,1 L7,3 L4,5 L-1,5 Z " fill="#3D2911" transform="translate(71,17)"/>
<path d="M0,0 L6,1 L9,7 L7,8 L4,6 L4,3 L0,2 Z " fill="#604D33" transform="translate(102,12)"/>
<path d="M0,0 L5,1 L4,5 L-2,4 Z " fill="#A6977E" transform="translate(27,14)"/>
<path d="M0,0 L9,1 L9,2 L2,3 L-7,3 L-4,1 Z " fill="#533F23" transform="translate(60,1)"/>
<path d="M0,0 L10,0 L10,2 L13,3 L3,3 Z " fill="#130A0B" transform="translate(32,81)"/>
<path d="M0,0 L3,0 L2,5 L0,5 L-1,7 L-3,3 Z " fill="#0E1A1C" transform="translate(147,61)"/>
<path d="M0,0 L4,1 L4,4 L6,5 L5,6 L0,6 Z " fill="#3D260C" transform="translate(88,29)"/>
<path d="M0,0 L6,1 L5,5 L3,5 L3,3 L-1,3 Z M1,5 L3,5 L2,7 Z " fill="#674F3F" transform="translate(81,10)"/>
<path d="M0,0 L12,0 L12,2 L1,3 L-3,4 L-2,1 Z " fill="#331A13" transform="translate(28,10)"/>
<path d="M0,0 L2,1 L-1,9 L-3,9 L-3,7 L-6,6 L-3,6 L-1,1 Z " fill="#180D10" transform="translate(26,5)"/>
<path d="M0,0 L5,0 L9,3 L9,5 L11,5 L11,7 L7,5 L0,1 Z " fill="#C5B9B5" transform="translate(107,2)"/>
<path d="M0,0 L4,1 L9,3 L9,6 L5,6 L5,3 L0,2 Z " fill="#6B6A64" transform="translate(92,1)"/>
<path d="M0,0 L2,0 L4,2 L6,2 L6,4 L1,4 L1,6 L5,7 L0,7 L-1,3 Z " fill="#837156" transform="translate(44,0)"/>
<path d="M0,0 L8,0 L8,3 L0,3 Z " fill="#667487" transform="translate(142,0)"/>
<path d="M0,0 L5,1 L7,4 L0,5 Z " fill="#E4D1C2" transform="translate(49,65)"/>
<path d="M0,0 L3,0 L3,7 L-1,5 L-3,1 Z " fill="#080703" transform="translate(140,62)"/>
<path d="M0,0 L7,0 L6,3 L-1,4 L-1,1 Z " fill="#706B66" transform="translate(95,64)"/>
<path d="M0,0 L2,0 L3,6 L1,6 L1,8 L-1,8 L-2,5 Z " fill="#0F0201" transform="translate(143,44)"/>
<path d="M0,0 L2,0 L5,3 L4,0 L6,0 L6,5 L4,5 L4,7 L2,7 L1,2 L-1,1 Z " fill="#312F22" transform="translate(144,42)"/>
<path d="M0,0 L5,1 L5,3 L8,4 L4,6 L2,5 L2,2 L0,2 Z " fill="#A29076" transform="translate(29,42)"/>
<path d="M0,0 L2,0 L1,3 L0,6 L-7,5 L-5,3 L-2,3 L-2,1 Z " fill="#59451E" transform="translate(86,41)"/>
<path d="M0,0 L2,0 L2,2 L5,2 L5,0 L7,0 L7,4 L5,4 L5,6 L3,6 L0,3 Z " fill="#47331A" transform="translate(98,38)"/>
<path d="M0,0 L4,0 L4,2 L6,3 L3,3 L3,5 L-1,6 Z " fill="#DCCBBA" transform="translate(12,20)"/>
<path d="M0,0 L3,0 L3,3 L-1,5 L-6,4 L-3,3 L-3,1 Z " fill="#BAAD93" transform="translate(22,18)"/>
<path d="M0,0 L2,1 L1,6 L-5,6 L-5,4 L-2,4 Z " fill="#24170F" transform="translate(83,78)"/>
<path d="M0,0 L1,2 L5,2 L4,5 L-2,5 L-2,1 Z " fill="#251822" transform="translate(116,75)"/>
<path d="M0,0 L1,2 L6,2 L6,3 L-4,4 L-8,2 L-5,1 L0,2 Z " fill="#544125" transform="translate(61,57)"/>
<path d="M0,0 L3,0 L3,3 L9,2 L9,5 L2,5 Z " fill="#80714C" transform="translate(81,54)"/>
<path d="M0,0 L1,4 L6,4 L6,6 L-1,6 L-1,4 L-3,3 L0,2 Z " fill="#867754" transform="translate(68,51)"/>
<path d="M0,0 L2,0 L1,9 L-2,8 L-2,5 L0,5 L-1,2 Z " fill="#D2CDC6" transform="translate(148,47)"/>
<path d="M0,0 L5,1 L5,6 L4,2 L2,2 L3,5 L0,7 L-1,4 Z " fill="#AF9773" transform="translate(88,35)"/>
<path d="M0,0 L3,1 L2,8 L0,4 L0,2 L-3,2 L-4,5 L-4,1 Z " fill="#837557" transform="translate(14,32)"/>
<path d="M0,0 L5,0 L6,6 L4,5 L4,3 L2,3 L2,5 L0,5 Z " fill="#121209" transform="translate(4,32)"/>
<path d="M0,0 L3,4 L-3,4 L-3,6 L-6,5 L-5,2 Z " fill="#614F3E" transform="translate(55,13)"/>
<path d="M0,0 L8,1 L6,3 L-1,5 L-3,3 L0,3 Z " fill="#69777C" transform="translate(10,65)"/>
<path d="M0,0 L2,2 L2,5 L-3,7 L-3,4 L-1,5 L-4,1 Z " fill="#806D54" transform="translate(52,58)"/>
<path d="M0,0 L1,0 L2,10 L-1,11 L-1,6 L-2,3 L0,3 Z " fill="#B2A19B" transform="translate(140,39)"/>
<path d="M0,0 L4,3 L4,9 L-1,5 L1,5 Z " fill="#B8A483" transform="translate(43,38)"/>
<path d="M0,0 L4,2 L3,7 L0,8 Z " fill="#DCCEB7" transform="translate(0,38)"/>
<path d="M0,0 L3,0 L3,2 L5,3 L1,7 Z " fill="#B5AB92" transform="translate(11,34)"/>
<path d="M0,0 L1,2 L1,8 L-3,8 L-3,2 Z " fill="#594B30" transform="translate(106,30)"/>
<path d="M0,0 L5,0 L6,4 L4,6 L4,4 L0,2 Z " fill="#4E4120" transform="translate(40,27)"/>
<path d="M0,0 L5,0 L4,4 L1,4 L0,7 Z " fill="#555258" transform="translate(0,0)"/>
<path d="M0,0 L8,1 L9,3 L0,3 Z " fill="#979694" transform="translate(84,81)"/>
<path d="M0,0 L8,1 L8,3 L0,3 Z " fill="#8C7572" transform="translate(67,81)"/>
<path d="M0,0 L3,0 L2,4 L-2,4 L-2,6 L-4,6 L-2,2 Z " fill="#C7C4CA" transform="translate(143,74)"/>
<path d="M0,0 L9,1 L9,3 L5,4 L0,2 Z " fill="#A29390" transform="translate(34,77)"/>
<path d="M0,0 L4,0 L6,0 L4,4 L0,5 L-2,3 L0,3 Z " fill="#9A826B" transform="translate(27,63)"/>
<path d="M0,0 L2,0 L1,3 L-3,5 L-7,4 L-3,1 Z " fill="#14100E" transform="translate(115,60)"/>
<path d="M0,0 L3,1 L4,8 L3,6 L0,6 L-1,8 L-1,5 L1,5 Z " fill="#443123" transform="translate(10,45)"/>
<path d="M0,0 L2,0 L2,5 L0,10 L-2,7 L-1,1 Z " fill="#5A4A3C" transform="translate(143,37)"/>
<path d="M0,0 L5,2 L4,7 L2,7 L2,5 L0,5 Z " fill="#7D6A4B" transform="translate(99,22)"/>
<path d="M0,0 L6,0 L5,4 L3,5 L2,3 L-2,1 Z " fill="#6A5344" transform="translate(29,12)"/>
<path d="M0,0 L2,0 L1,5 L-4,4 Z " fill="#150803" transform="translate(88,76)"/>
<path d="M0,0 L1,3 L-1,4 L0,7 L-4,5 L-6,3 L-4,1 L0,2 Z " fill="#B9A489" transform="translate(51,56)"/>
<path d="M0,0 L4,2 L5,4 L0,6 L-1,3 Z " fill="#887249" transform="translate(83,37)"/>
<path d="M0,0 L8,0 L8,2 L1,3 Z " fill="#251607" transform="translate(28,34)"/>
<path d="M0,0 L3,0 L3,2 L7,3 L0,5 L-1,3 Z " fill="#473D2E" transform="translate(41,17)"/>
<path d="M0,0 L3,1 L3,3 L5,4 L4,6 L-1,5 L-2,3 L0,2 Z " fill="#C9B4A0" transform="translate(98,11)"/>
<path d="M0,0 L4,0 L4,7 L-1,2 Z " fill="#E2D4CF" transform="translate(131,10)"/>
<path d="M0,0 L4,2 L2,6 L-2,7 L-1,4 L1,4 Z " fill="#5E5046" transform="translate(3,5)"/>
<path d="M0,0 L1,4 L2,6 L-2,6 L-2,4 L-5,3 L-2,1 Z " fill="#654B43" transform="translate(89,5)"/>
<path d="M0,0 L4,2 L3,5 L2,3 L-8,2 L-8,1 Z " fill="#71575A" transform="translate(73,79)"/>
<path d="M0,0 L7,0 L4,3 L-3,2 Z " fill="#6A5A4E" transform="translate(85,71)"/>
<path d="M0,0 L2,1 L1,3 L3,3 L3,5 L-5,5 L-1,3 L-3,1 Z " fill="#B1A386" transform="translate(90,56)"/>
<path d="M0,0 L6,1 L8,3 L1,4 Z " fill="#806D4C" transform="translate(56,48)"/>
<path d="M0,0 L7,0 L7,3 L0,3 Z " fill="#CBB38F" transform="translate(87,45)"/>
<path d="M0,0 L3,2 L3,9 L1,9 Z " fill="#211A13" transform="translate(127,34)"/>
<path d="M0,0 L5,1 L3,8 L1,5 L2,2 L0,2 Z " fill="#8F784F" transform="translate(80,28)"/>
<path d="M0,0 L3,0 L3,5 L-1,5 Z " fill="#0D0401" transform="translate(21,24)"/>
<path d="M0,0 L4,1 L5,3 L-2,3 L-5,1 Z " fill="#1C130B" transform="translate(103,7)"/>
<path d="M0,0 L6,0 L4,4 L1,4 Z " fill="#311B14" transform="translate(74,7)"/>
<path d="M0,0 L6,0 L10,4 L5,3 L0,1 Z " fill="#A88E8B" transform="translate(79,2)"/>
<path d="M0,0 L12,0 L9,2 L1,3 L-2,1 Z " fill="#2C2214" transform="translate(36,74)"/>
<path d="M0,0 L5,0 L5,4 L0,5 Z " fill="#79645B" transform="translate(114,71)"/>
<path d="M0,0 L10,0 L6,2 L1,3 Z " fill="#221D12" transform="translate(63,67)"/>
<path d="M0,0 L7,0 L5,4 L0,2 Z " fill="#212315" transform="translate(18,66)"/>
<path d="M0,0 L7,0 L7,2 L1,3 Z " fill="#685635" transform="translate(37,53)"/>
<path d="M0,0 L2,2 L1,5 L-4,6 L-4,4 L-2,4 L-2,1 Z " fill="#43342B" transform="translate(126,43)"/>
<path d="M0,0 L1,0 L1,6 L3,6 L3,9 L0,8 L-1,2 Z " fill="#352517" transform="translate(108,37)"/>
<path d="M0,0 L1,4 L1,9 L-1,9 L-1,7 L-5,6 L-1,6 L-2,3 L0,3 Z " fill="#756142" transform="translate(43,34)"/>
<path d="M0,0 L2,2 L1,9 L0,7 L-2,6 L0,6 L-1,2 Z " fill="#9A8776" transform="translate(115,34)"/>
<path d="M0,0 L3,0 L4,4 L2,4 L1,6 L1,4 L-1,3 Z " fill="#443D2C" transform="translate(131,28)"/>
<path d="M0,0 L3,3 L2,6 L-2,7 L-2,4 L0,4 L-1,1 Z " fill="#9E8D6F" transform="translate(103,26)"/>
<path d="M0,0 L3,1 L1,1 L1,6 L-1,7 L-1,3 L-3,3 L-3,1 Z " fill="#A28866" transform="translate(98,21)"/>
<path d="M0,0 L7,1 L7,3 L0,3 Z " fill="#948064" transform="translate(91,18)"/>
<path d="M0,0 L4,2 L7,5 L7,7 L3,5 L3,3 L0,2 Z " fill="#C6C0C7" transform="translate(127,15)"/>
<path d="M0,0 L2,1 L0,4 L-2,4 L-2,6 L-4,6 L-4,2 Z " fill="#87837F" transform="translate(133,70)"/>
<path d="M0,0 L6,1 L6,5 L3,6 L2,2 Z " fill="#413830" transform="translate(76,63)"/>
<path d="M0,0 L5,2 L4,5 L1,5 L1,2 L-1,1 Z " fill="#7E6B59" transform="translate(17,60)"/>
<path d="M0,0 L3,0 L3,2 L-1,4 L-5,4 L-5,2 Z " fill="#413111" transform="translate(82,51)"/>
<path d="M0,0 L3,1 L4,8 L1,6 Z " fill="#2B1D0F" transform="translate(16,46)"/>
<path d="M0,0 L5,2 L4,5 L4,3 L2,3 L2,5 L-1,4 Z " fill="#595236" transform="translate(15,41)"/>
<path d="M0,0 L2,1 L1,9 L-2,6 Z " fill="#3C2E1F" transform="translate(4,39)"/>
<path d="M0,0 L1,3 L3,4 L1,4 L1,6 L-2,6 L-1,1 Z " fill="#0F0201" transform="translate(123,40)"/>
<path d="M0,0 L2,3 L2,7 L-2,6 Z " fill="#665832" transform="translate(49,31)"/>
<path d="M0,0 L4,0 L3,6 L1,5 Z " fill="#67572D" transform="translate(68,30)"/>
<path d="M0,0 L4,1 L1,1 L2,5 L1,7 L-3,6 L-1,6 Z " fill="#665334" transform="translate(63,19)"/>
<path d="M0,0 L5,0 L5,3 L7,4 L4,5 Z " fill="#A78E79" transform="translate(110,17)"/>
<path d="M0,0 L2,0 L2,3 L6,3 L6,1 L9,2 L8,4 L2,5 Z " fill="#323127" transform="translate(95,4)"/>
<path d="M0,0 L1,0 L1,5 L-3,3 L-3,5 L-5,5 L-5,2 Z " fill="#181511" transform="translate(6,2)"/>
<path d="M0,0 L3,0 L3,6 L0,6 Z " fill="#635D82" transform="translate(18,0)"/>
<path d="M0,0 L5,0 L4,3 L-1,3 Z " fill="#271705" transform="translate(62,60)"/>
<path d="M0,0 L0,3 L-7,4 L-4,1 Z " fill="#8A7770" transform="translate(143,58)"/>
<path d="M0,0 L7,1 L4,3 L-2,3 L0,2 Z " fill="#AB9573" transform="translate(44,53)"/>
<path d="M0,0 L2,0 L2,2 L4,3 L1,3 L2,6 L0,6 L0,4 L-2,4 L-2,2 L0,2 Z " fill="#6C6140" transform="translate(71,46)"/>
<path d="M0,0 L6,1 L6,3 L2,4 Z " fill="#E7EAE7" transform="translate(134,39)"/>
<path d="M0,0 L4,1 L5,5 L0,3 Z " fill="#31260B" transform="translate(16,39)"/>
<path d="M0,0 L2,3 L0,4 Z M3,0 L7,0 L6,2 L3,5 L2,1 Z " fill="#32221B" transform="translate(121,38)"/>
<path d="M0,0 L3,0 L3,6 L0,5 Z " fill="#523E17" transform="translate(79,31)"/>
<path d="M0,0 L4,4 L4,6 L1,7 L0,2 Z " fill="#E0D0BF" transform="translate(116,30)"/>
<path d="M0,0 L2,0 L3,6 L0,7 Z " fill="#392618" transform="translate(124,23)"/>
<path d="M0,0 L3,0 L3,4 L-3,4 Z " fill="#2B0E0D" transform="translate(14,26)"/>
<path d="M0,0 L2,0 L4,6 L-1,4 Z " fill="#554120" transform="translate(65,22)"/>
<path d="M0,0 L4,1 L2,3 L-5,2 L-5,1 Z " fill="#443223" transform="translate(57,10)"/>
<path d="M0,0 L3,1 L3,3 L5,4 L3,6 L3,4 L-1,3 Z " fill="#5F5C55" transform="translate(139,6)"/>
<path d="M0,0 L2,0 L2,2 L7,4 L7,6 L2,4 Z " fill="#1E1414" transform="translate(111,0)"/>
<path d="M0,0 L11,0 L11,1 L3,2 L0,3 Z " fill="#070512" transform="translate(139,3)"/>
<path d="M0,0 L1,0 L1,5 L-3,9 L-3,4 L-1,3 Z " fill="#6E6068" transform="translate(26,0)"/>
<path d="M0,0 L4,0 L4,2 L6,3 L3,4 L-1,2 Z " fill="#807E81" transform="translate(97,0)"/>
<path d="M0,0 L4,2 L4,3 L-3,3 L-3,1 Z " fill="#19121C" transform="translate(139,81)"/>
<path d="M0,0 L2,0 L2,6 L-1,5 Z " fill="#060716" transform="translate(148,75)"/>
<path d="M0,0 L3,0 L3,2 L1,3 L-5,3 L-3,1 Z " fill="#2A241B" transform="translate(63,73)"/>
<path d="M0,0 L2,1 L2,5 L-3,3 Z " fill="#BAA690" transform="translate(111,69)"/>
<path d="M0,0 L3,1 L2,3 L4,4 L-3,4 Z " fill="#4F362A" transform="translate(47,67)"/>
<path d="M0,0 L5,0 L5,2 L-1,3 Z " fill="#110B05" transform="translate(96,60)"/>
<path d="M0,0 L5,5 L2,6 L-1,1 Z " fill="#C2ADA1" transform="translate(1,45)"/>
<path d="M0,0 L4,1 L6,5 L2,4 Z " fill="#E4DFCC" transform="translate(6,39)"/>
<path d="M0,0 L7,0 L5,1 L3,5 L3,2 L0,1 Z " fill="#B4A57F" transform="translate(47,29)"/>
<path d="M0,0 L4,4 L2,8 L2,5 L0,5 Z " fill="#A49483" transform="translate(127,25)"/>
<path d="M0,0 L3,1 L2,5 L-1,5 Z " fill="#AEADAC" transform="translate(15,14)"/>
<path d="M0,0 L4,1 L8,3 L0,3 Z " fill="#A5917F" transform="translate(49,8)"/>
<path d="M0,0 L5,0 L4,4 L2,4 L2,2 L0,2 Z " fill="#1B0D07" transform="translate(35,7)"/>
<path d="M0,0 L5,1 L5,3 L0,4 Z " fill="#4C3931" transform="translate(73,1)"/>
<path d="M0,0 L6,1 L8,4 L2,2 Z " fill="#D9DDE0" transform="translate(10,72)"/>
<path d="M0,0 L3,1 L3,4 L1,4 L1,6 L-1,6 Z " fill="#3D4B51" transform="translate(141,69)"/>
<path d="M0,0 L2,0 L1,4 L-5,4 L-1,3 Z " fill="#130E09" transform="translate(113,65)"/>
<path d="M0,0 L5,1 L5,3 L0,3 Z " fill="#242015" transform="translate(74,64)"/>
<path d="M0,0 L4,0 L3,3 L-1,5 Z " fill="#726A53" transform="translate(89,61)"/>
<path d="M0,0 L6,2 L6,4 L1,3 Z " fill="#443422" transform="translate(41,58)"/>
<path d="M0,0 L6,2 L5,5 L0,3 Z " fill="#B29D8E" transform="translate(16,57)"/>
<path d="M0,0 L7,2 L7,3 L1,3 Z " fill="#2A170E" transform="translate(22,58)"/>
<path d="M0,0 L2,1 L2,3 L4,4 L0,5 L-1,1 Z " fill="#5B544D" transform="translate(6,58)"/>
<path d="M0,0 L3,0 L1,4 L-1,4 L-1,2 L-3,1 Z " fill="#1A1313" transform="translate(106,57)"/>
<path d="M0,0 L4,2 L3,5 L1,5 L0,3 Z " fill="#746556" transform="translate(106,51)"/>
<path d="M0,0 L4,2 L4,5 L1,5 Z " fill="#403E44" transform="translate(136,43)"/>
<path d="M0,0 L5,5 L3,7 L0,4 Z " fill="#786F4E" transform="translate(39,27)"/>
<path d="M0,0 L3,1 L2,6 L-1,3 Z " fill="#54442E" transform="translate(107,24)"/>
<path d="M0,0 L3,0 L2,3 L-3,3 L-3,1 Z " fill="#A28F6E" transform="translate(73,22)"/>
<path d="M0,0 L3,0 L3,4 L-1,4 Z " fill="#8B8871" transform="translate(34,22)"/>
<path d="M0,0 L2,0 L3,6 L-1,2 Z " fill="#463237" transform="translate(132,15)"/>
<path d="M0,0 L3,1 L1,4 L-4,5 Z " fill="#736A51" transform="translate(24,14)"/>
<path d="M0,0 L5,1 L5,3 L-1,3 Z " fill="#2B1B0D" transform="translate(115,81)"/>
<path d="M0,0 L2,0 L2,3 L4,4 L-3,3 L0,2 Z " fill="#867466" transform="translate(109,73)"/>
<path d="M0,0 L3,1 L4,3 L-4,2 Z " fill="#43362E" transform="translate(49,75)"/>
<path d="M0,0 L4,0 L4,2 L2,3 L0,6 Z " fill="#0E0905" transform="translate(131,74)"/>
<path d="M0,0 L1,4 L0,6 L-4,4 Z " fill="#E0EDF2" transform="translate(149,68)"/>
<path d="M0,0 L4,1 L4,3 L2,3 L2,5 L0,5 Z " fill="#A49A8D" transform="translate(83,64)"/>
<path d="M0,0 L3,1 L4,5 L-1,3 Z " fill="#080404" transform="translate(103,66)"/>
<path d="M0,0 L5,0 L5,4 L2,3 L2,1 Z " fill="#1A0706" transform="translate(136,53)"/>
<path d="M0,0 L5,1 L5,3 L1,4 Z " fill="#7A727A" transform="translate(136,48)"/>
<path d="M0,0 L1,0 L1,5 L-4,3 Z " fill="#332B19" transform="translate(24,44)"/>
<path d="M0,0 L3,0 L3,2 L5,3 L-2,3 L0,2 Z " fill="#2C271A" transform="translate(70,42)"/>
<path d="M0,0 L3,1 L1,1 L1,5 L-2,5 L-2,2 L0,2 Z " fill="#9E8E6C" transform="translate(36,34)"/>
<path d="M0,0 L5,0 L4,4 L2,4 Z " fill="#937752" transform="translate(92,26)"/>
<path d="M0,0 L4,0 L4,2 L1,2 L0,4 L-2,2 Z " fill="#826D44" transform="translate(82,25)"/>
<path d="M0,0 L3,2 L1,7 L-1,3 Z " fill="#1A0A03" transform="translate(139,17)"/>
<path d="M0,0 L4,2 L2,5 L2,3 L-2,1 Z " fill="#806759" transform="translate(116,13)"/>
<path d="M0,0 L2,0 L2,2 L6,3 L1,4 Z " fill="#3B2614" transform="translate(87,11)"/>
<path d="M0,0 L2,3 L2,7 L-2,5 L0,5 L0,3 L-2,2 L0,2 Z " fill="#604D46" transform="translate(118,4)"/>
<path d="M0,0 L5,0 L5,3 L0,2 Z " fill="#050408" transform="translate(101,0)"/>
<path d="M0,0 L2,3 L2,6 L-2,5 Z " fill="#40362F" transform="translate(90,76)"/>
<path d="M0,0 L6,0 L1,4 Z " fill="#7E6559" transform="translate(79,76)"/>
<path d="M0,0 L4,0 L4,3 L0,3 Z " fill="#262B23" transform="translate(16,71)"/>
<path d="M0,0 L5,0 L2,3 L-1,3 Z " fill="#4F4D4A" transform="translate(130,69)"/>
<path d="M0,0 L6,2 L2,3 L-1,3 Z " fill="#B8C2B7" transform="translate(21,70)"/>
<path d="M0,0 L2,0 L4,6 L1,7 Z " fill="#7A6858" transform="translate(56,65)"/>
<path d="M0,0 L5,0 L5,2 L0,3 Z " fill="#0E0904" transform="translate(83,69)"/>
<path d="M0,0 L2,0 L2,3 L0,3 L0,5 L-2,5 Z " fill="#301E12" transform="translate(35,59)"/>
<path d="M0,0 L3,0 L3,3 L-2,2 Z " fill="#F6E9CE" transform="translate(48,55)"/>
<path d="M0,0 L3,0 L2,5 L-1,4 Z " fill="#877B5B" transform="translate(79,55)"/>
<path d="M0,0 L5,4 L2,5 L-1,2 Z " fill="#4D3B1F" transform="translate(36,53)"/>
<path d="M0,0 L3,0 L4,3 L0,3 Z " fill="#241005" transform="translate(10,51)"/>
<path d="M0,0 L3,0 L2,5 L0,5 Z " fill="#856F55" transform="translate(96,49)"/>
<path d="M0,0 L5,1 L5,3 L0,2 Z " fill="#8A7B6C" transform="translate(110,50)"/>
<path d="M0,0 L5,1 L1,3 L-3,3 L-3,1 Z " fill="#6B552F" transform="translate(46,49)"/>
<path d="M0,0 L8,1 L8,2 L1,3 Z " fill="#6C5B39" transform="translate(74,45)"/>
<path d="M0,0 L6,1 L2,3 L-1,1 Z " fill="#8D754F" transform="translate(86,43)"/>
<path d="M0,0 L1,0 L1,5 L-2,5 L-1,1 Z " fill="#D1C1AE" transform="translate(139,35)"/>
<path d="M0,0 L2,0 L1,5 L-1,5 L-2,2 L0,2 Z " fill="#70605B" transform="translate(24,30)"/>
<path d="M0,0 L5,1 L5,3 L0,3 Z " fill="#6A522F" transform="translate(92,23)"/>
<path d="M0,0 L3,0 L3,4 L0,4 Z " fill="#50524E" transform="translate(145,19)"/>
<path d="M0,0 L3,0 L3,3 L-2,2 Z " fill="#C1B698" transform="translate(22,18)"/>
<path d="M0,0 L3,1 L3,4 L0,5 Z " fill="#7D655D" transform="translate(0,15)"/>
<path d="M0,0 L3,1 L2,4 L1,3 L-1,5 L-2,3 Z " fill="#A18C74" transform="translate(103,14)"/>
<path d="M0,0 L1,0 L1,6 L-3,4 L0,3 Z " fill="#28231F" transform="translate(149,8)"/>
<path d="M0,0 L4,1 L4,4 L0,3 Z " fill="#6B5E50" transform="translate(93,7)"/>
<path d="M0,0 L3,1 L2,5 L0,4 Z " fill="#3F3933" transform="translate(122,6)"/>
<path d="M0,0 L4,2 L4,4 L0,4 Z " fill="#3F3028" transform="translate(109,4)"/>
<path d="M0,0 L2,1 L4,4 L0,5 Z " fill="#887A77" transform="translate(66,73)"/>
<path d="M0,0 L1,2 L3,3 L-2,4 Z " fill="#606D52" transform="translate(25,67)"/>
<path d="M0,0 L3,0 L3,3 L-1,3 Z " fill="#201A0E" transform="translate(90,64)"/>
<path d="M0,0 L4,0 L4,2 L-1,3 Z " fill="#827D83" transform="translate(131,62)"/>
<path d="M0,0 L4,0 L4,2 L-1,3 Z " fill="#A18C7C" transform="translate(29,57)"/>
<path d="M0,0 L6,0 L6,3 L0,1 Z " fill="#685731" transform="translate(76,49)"/>
<path d="M0,0 L3,1 L3,3 L-1,4 Z " fill="#2C1B0B" transform="translate(106,48)"/>
<path d="M0,0 L2,1 L2,4 L-1,5 Z " fill="#BBA683" transform="translate(42,45)"/>
<path d="M0,0 L3,4 L1,8 Z " fill="#373437" transform="translate(130,41)"/>
<path d="M0,0 L2,0 L2,5 L0,5 L-1,1 Z " fill="#182924" transform="translate(148,32)"/>
<path d="M0,0 L5,1 L2,3 L0,3 Z " fill="#C0A47E" transform="translate(87,25)"/>
<path d="M0,0 L5,0 L6,3 L0,2 Z " fill="#675B40" transform="translate(13,18)"/>
<path d="M0,0 L3,3 L2,8 L1,8 Z " fill="#9A8981" transform="translate(125,17)"/>
<path d="M0,0 L6,1 L2,3 L0,2 Z " fill="#462F18" transform="translate(46,0)"/>
<path d="M0,0 L4,1 L4,4 L1,3 Z " fill="#5C7556" transform="translate(5,77)"/>
<path d="M0,0 L3,0 L3,2 L0,3 L-3,1 Z " fill="#35473F" transform="translate(13,68)"/>
<path d="M0,0 L5,1 L5,3 L1,2 Z " fill="#92876E" transform="translate(34,66)"/>
<path d="M0,0 L4,1 L4,3 L0,3 Z " fill="#617C88" transform="translate(0,67)"/>
<path d="M0,0 L4,1 L4,3 L0,2 Z " fill="#2B180C" transform="translate(6,56)"/>
<path d="M0,0 L5,2 L5,4 L1,2 Z " fill="#DECFC2" transform="translate(20,51)"/>
<path d="M0,0 L2,3 L2,5 L-1,5 Z " fill="#110A0D" transform="translate(130,49)"/>
<path d="M0,0 L2,1 L1,4 L-2,4 L-2,2 L0,2 Z " fill="#8F7950" transform="translate(89,49)"/>
<path d="M0,0 L4,1 L4,3 L0,2 Z " fill="#E7D9CA" transform="translate(6,46)"/>
<path d="M0,0 L2,1 L2,4 L-1,4 Z " fill="#614F33" transform="translate(106,42)"/>
<path d="M0,0 L5,1 L5,3 L1,2 Z " fill="#A58F76" transform="translate(94,43)"/>
<path d="M0,0 L2,1 L2,4 L-1,4 Z " fill="#C8B8B1" transform="translate(126,39)"/>
<path d="M0,0 L2,0 L2,3 L-2,3 L-2,1 Z " fill="#D8C4A6" transform="translate(95,39)"/>
<path d="M0,0 L2,0 L2,5 L1,3 L-1,3 Z " fill="#171212" transform="translate(67,37)"/>
<path d="M0,0 L5,1 L1,3 L-1,1 Z " fill="#807C61" transform="translate(3,37)"/>
<path d="M0,0 L4,1 L4,3 L0,2 Z " fill="#352D0F" transform="translate(40,27)"/>
<path d="M0,0 L2,0 L2,4 L-1,3 Z " fill="#4D3528" transform="translate(115,21)"/>
<path d="M0,0 L4,2 L-2,4 L-2,1 Z " fill="#6F593B" transform="translate(69,21)"/>
<path d="M0,0 L4,1 L4,3 L-1,2 Z " fill="#4B4430" transform="translate(27,19)"/>
<path d="M0,0 L1,2 L3,3 L2,5 L0,5 L-1,2 Z " fill="#C5B595" transform="translate(8,16)"/>
<path d="M0,0 L3,1 L3,4 L0,4 Z " fill="#5D3D40" transform="translate(135,13)"/>
<path d="M0,0 L4,2 L2,6 Z " fill="#2C3023" transform="translate(141,11)"/>
<path d="M0,0 L4,1 L0,3 L-2,1 Z " fill="#7A6851" transform="translate(62,8)"/>
<path d="M0,0 L5,1 L5,3 L1,2 Z " fill="#D2C5C4" transform="translate(124,0)"/>
<path d="M0,0 L3,1 L2,3 L-1,3 Z " fill="#84929A" transform="translate(124,81)"/>
<path d="M0,0 L3,1 L2,3 L-1,3 Z " fill="#A29A79" transform="translate(112,81)"/>
<path d="M0,0 L3,0 L3,2 L-1,3 Z " fill="#F1F6F8" transform="translate(143,74)"/>
<path d="M0,0 L3,0 L2,3 L-1,2 Z " fill="#463D28" transform="translate(124,65)"/>
<path d="M0,0 L2,1 L1,4 L-2,3 Z " fill="#6A6857" transform="translate(95,64)"/>
<path d="M0,0 L4,0 L2,4 Z " fill="#DAC9BA" transform="translate(42,65)"/>
<path d="M0,0 L2,0 L1,3 L-2,3 L-2,1 Z " fill="#AA988A" transform="translate(125,61)"/>
<path d="M0,0 L3,1 L3,3 L-1,3 Z " fill="#CAB2AC" transform="translate(145,57)"/>
<path d="M0,0 L4,1 L3,4 L0,1 Z " fill="#533E18" transform="translate(90,49)"/>
<path d="M0,0 L2,2 L2,5 L0,5 L-1,2 Z " fill="#210807" transform="translate(142,47)"/>
<path d="M0,0 L4,1 L0,3 Z " fill="#988568" transform="translate(102,48)"/>
<path d="M0,0 L2,1 L2,4 L-1,4 Z " fill="#96A2AB" transform="translate(134,41)"/>
<path d="M0,0 L2,0 L1,5 L-1,2 Z " fill="#190D02" transform="translate(73,39)"/>
<path d="M0,0 L4,1 L0,4 L-1,1 Z " fill="#584137" transform="translate(27,38)"/>
<path d="M0,0 L4,2 L0,3 Z " fill="#675428" transform="translate(72,33)"/>
<path d="M0,0 L2,0 L3,3 L0,4 Z " fill="#342509" transform="translate(45,34)"/>
<path d="M0,0 L3,0 L3,3 L-1,1 Z " fill="#2B241C" transform="translate(131,28)"/>
<path d="M0,0 L4,2 L0,4 Z " fill="#574D47" transform="translate(25,25)"/>
<path d="M0,0 L4,1 L0,3 Z " fill="#3D290A" transform="translate(88,20)"/>
<path d="M0,0 L2,0 L2,3 L-1,4 Z " fill="#252319" transform="translate(142,18)"/>
<path d="M0,0 L3,0 L3,2 L-1,3 Z " fill="#493322" transform="translate(2,9)"/>
<path d="M0,0 L2,0 L2,3 L-1,3 Z " fill="#8E7265" transform="translate(134,81)"/>
<path d="M0,0 L3,0 L2,3 L0,3 Z " fill="#7F766C" transform="translate(45,81)"/>
<path d="M0,0 L3,0 L2,3 L0,3 Z " fill="#A29684" transform="translate(59,71)"/>
<path d="M0,0 L3,0 L3,3 L0,2 Z " fill="#80685B" transform="translate(11,55)"/>
<path d="M0,0 L3,1 L3,3 L0,3 Z " fill="#49392C" transform="translate(120,50)"/>
<path d="M0,0 L3,0 L3,3 L0,2 Z " fill="#241403" transform="translate(35,43)"/>
<path d="M0,0 L3,1 L3,3 L0,3 Z " fill="#090807" transform="translate(144,14)"/>
<path d="M0,0 L4,0 L3,3 Z " fill="#3C2A1F" transform="translate(118,11)"/>
<path d="M0,0 L2,0 L1,3 L-1,3 Z " fill="#B59E8B" transform="translate(50,67)"/>
<path d="M0,0 L2,0 L2,3 L-1,2 Z " fill="#867B74" transform="translate(97,64)"/>
<path d="M0,0 L2,1 L2,3 L-1,3 Z " fill="#947E5C" transform="translate(93,52)"/>
<path d="M0,0 L2,1 L2,3 L-2,1 Z " fill="#675044" transform="translate(9,53)"/>
<path d="M0,0 L3,0 L2,3 L0,2 Z " fill="#595A64" transform="translate(131,41)"/>
<path d="M0,0 L2,2 L0,4 L0,2 L-2,1 Z " fill="#7D655A" transform="translate(115,39)"/>
<path d="M0,0 L3,1 L2,3 L0,3 Z " fill="#685635" transform="translate(38,36)"/>
<path d="M0,0 L2,2 L0,5 L-1,1 Z " fill="#483C26" transform="translate(112,24)"/>
<path d="M0,0 L3,1 L2,3 L0,3 Z " fill="#1E1527" transform="translate(0,22)"/>
<path d="M0,0 L3,2 L0,3 L-2,1 Z " fill="#898578" transform="translate(106,5)"/>
<path d="M0,0 L3,1 L1,3 Z " fill="#C5B29E" transform="translate(116,34)"/>
<path d="M0,0 L3,1 L1,3 Z " fill="#979898" transform="translate(127,15)"/>
<path d="M0,0 L2,1 L2,3 L-1,2 Z " fill="#73685E" transform="translate(139,7)"/>
<path d="M0,0 L2,2 L-1,2 Z " fill="#AB9571" transform="translate(61,51)"/>
<path d="M0,0 L2,2 L-1,2 Z " fill="#402F28" transform="translate(126,43)"/>
</svg>
