<?xml version="1.0" encoding="UTF-8"?>
<!-- Generator: visioncortex VTracer 0.6.5 -->
<svg version="1.1" xmlns="http://www.w3.org/2000/svg" width="30" height="30">
<path d="M0,0 L160,0 L160,90 L0,90 Z " fill="#000203" transform="translate(0,0)"/>
<path d="M0,0 L8,0 L10,8 L12,8 L13,32 L14,37 L18,38 L21,40 L21,42 L26,41 L30,40 L30,42 L36,44 L57,46 L57,49 L59,49 L59,51 L61,50 L69,50 L71,52 L77,53 L128,54 L128,76 L-32,76 L-32,44 L-23,44 L-21,45 L-21,47 L-16,47 L-15,41 L-13,37 L-13,32 L-14,29 L-20,29 L-28,26 L-27,22 L-25,22 L-24,16 L-23,12 L-17,11 L-13,6 L-7,5 L-6,2 Z " fill="#374246" transform="translate(32,14)"/>
<path d="M0,0 L22,0 L22,46 L14,46 L14,48 L6,49 L5,50 L0,50 L-1,54 L-10,54 L-10,56 L-20,57 L-24,59 L-30,58 L-30,55 L-28,55 L-28,53 L-21,50 L-15,48 L-14,44 L-5,41 L0,37 L3,37 L2,35 L-3,36 L-7,39 L-7,36 L-4,32 L-1,27 L2,26 L-1,15 L-1,6 Z " fill="#010403" transform="translate(138,0)"/>
<path d="M0,0 L13,1 L64,2 L64,24 L10,24 L7,18 L6,6 L0,5 Z " fill="#415052" transform="translate(96,66)"/>
<path d="M0,0 L19,0 L22,1 L22,3 L27,2 L35,2 L39,4 L51,5 L52,8 L60,12 L67,11 L73,10 L80,11 L81,3 L83,3 L83,9 L81,13 L74,13 L74,16 L71,18 L0,18 Z " fill="#040A0C" transform="translate(0,72)"/>
<path d="M0,0 L8,0 L8,22 L-43,22 L-50,20 L-51,15 L-48,9 L-42,8 L-44,9 L-44,12 L-38,12 L-34,10 L-24,10 L-24,8 L-15,8 L-14,4 L-8,2 L0,2 Z " fill="#020304" transform="translate(152,46)"/>
<path d="M0,0 L28,0 L32,5 L40,9 L40,11 L48,12 L53,19 L53,31 L51,32 L49,27 L44,22 L41,19 L34,18 L29,12 L22,12 L22,14 L24,15 L20,17 L-1,18 L-7,20 L-11,20 L-11,16 L-8,14 L-11,8 L-11,4 L-4,2 Z " fill="#3E4A48" transform="translate(61,10)"/>
<path d="M0,0 L11,0 L11,13 L3,13 L3,15 L-5,16 L-6,17 L-11,17 L-12,21 L-21,21 L-21,23 L-31,24 L-35,26 L-41,25 L-41,22 L-39,22 L-39,20 L-32,17 L-26,15 L-25,11 L-16,8 L-12,5 L-3,2 Z " fill="#494D51" transform="translate(149,33)"/>
<path d="M0,0 L30,0 L38,5 L51,6 L54,9 L54,10 L-4,10 L-4,4 L0,4 Z " fill="#29353A" transform="translate(4,80)"/>
<path d="M0,0 L13,1 L15,2 L31,3 L33,6 L37,7 L36,9 L21,9 L21,7 L12,6 L12,3 L10,3 L10,7 L14,8 L22,12 L20,15 L21,20 L22,24 L10,24 L7,18 L6,6 L0,5 Z " fill="#546265" transform="translate(96,66)"/>
<path d="M0,0 L5,0 L5,3 L9,3 L9,8 L11,8 L14,14 L16,26 L-10,26 L-10,22 L-2,23 L-1,20 Z " fill="#6C757A" transform="translate(85,64)"/>
<path d="M0,0 L4,0 L5,2 L12,4 L20,5 L17,2 L22,3 L22,5 L30,6 L35,13 L35,25 L33,26 L31,21 L26,16 L23,13 L16,12 L11,6 L4,6 L4,8 L6,9 L2,11 L-19,12 L-25,13 L-24,11 L-19,9 L-1,8 L-1,2 Z " fill="#31393A" transform="translate(79,16)"/>
<path d="M0,0 L6,0 L6,2 L8,1 L15,1 L14,22 L12,25 L4,24 L5,27 L0,28 L1,26 L3,26 L3,23 L10,23 L12,13 L10,13 L9,20 L3,20 L-2,18 L-1,13 L2,6 L-1,8 L-4,16 L-6,15 L-4,10 L-4,1 Z M-3,4 Z " fill="#414B4F" transform="translate(71,62)"/>
<path d="M0,0 L18,0 L18,8 L17,10 L15,10 L13,14 L8,18 L6,26 L4,26 L0,13 L-1,6 Z " fill="#2A3B36" transform="translate(138,0)"/>
<path d="M0,0 L19,0 L22,1 L22,3 L27,2 L35,2 L39,4 L51,5 L51,8 L40,8 L35,5 L22,5 L22,8 L4,8 L4,12 L0,12 Z " fill="#05120F" transform="translate(0,72)"/>
<path d="M0,0 L3,1 L0,4 L-3,5 L-5,8 L-6,19 L-4,19 L-2,24 L-3,27 L-4,24 L-10,24 L-18,21 L-17,17 L-15,17 L-14,11 L-13,7 L-7,6 L-3,1 Z " fill="#242D2D" transform="translate(22,19)"/>
<path d="M0,0 L5,0 L5,3 L9,3 L9,8 L11,8 L14,14 L16,26 L13,26 L11,12 L4,14 L3,18 L0,19 Z " fill="#5A6267" transform="translate(85,64)"/>
<path d="M0,0 L30,0 L38,4 L42,9 L33,8 L25,5 L25,3 L0,4 Z " fill="#515353" transform="translate(58,13)"/>
<path d="M0,0 L5,1 L9,6 L16,7 L22,14 L26,17 L27,20 L28,9 L29,9 L29,21 L25,27 L22,27 L22,29 L19,29 L20,21 L21,17 L19,14 L16,13 L16,9 L9,9 L7,8 L7,6 L3,6 L3,1 L-3,2 Z " fill="#121B1D" transform="translate(86,21)"/>
<path d="M0,0 L6,0 L10,3 L23,4 L26,7 L26,8 L0,8 L0,6 L-3,5 Z " fill="#374345" transform="translate(32,82)"/>
<path d="M0,0 L1,0 L1,10 L0,18 L-6,18 L-11,16 L-10,11 L-6,10 L-6,5 Z " fill="#5C666A" transform="translate(80,64)"/>
<path d="M0,0 L2,2 L5,10 L5,15 L7,15 L7,17 L4,17 L5,24 L9,25 L5,27 L1,26 L4,26 L3,24 L-2,25 L-6,28 L-6,25 L-3,21 L0,16 L3,15 L0,4 Z " fill="#0C1816" transform="translate(137,11)"/>
<path d="M0,0 L3,0 L3,2 L9,4 L30,6 L30,8 L21,9 L18,10 L18,8 L10,10 L10,8 L0,5 L-2,2 Z " fill="#1F292D" transform="translate(59,54)"/>
<path d="M0,0 L19,0 L22,1 L22,3 L27,2 L35,2 L39,4 L51,5 L51,8 L40,8 L35,5 L20,4 L16,2 L0,2 Z " fill="#192625" transform="translate(0,72)"/>
<path d="M0,0 L6,0 L8,3 L6,10 L-4,10 L-4,4 L0,4 Z " fill="#2C3744" transform="translate(4,80)"/>
<path d="M0,0 L9,1 L6,3 L3,3 L3,5 L5,6 L1,8 L-20,9 L-26,10 L-25,8 L-20,6 L0,6 Z " fill="#202F2E" transform="translate(80,19)"/>
<path d="M0,0 L28,0 L32,6 L27,4 L20,3 L-2,2 Z " fill="#252525" transform="translate(61,10)"/>
<path d="M0,0 L2,4 L5,2 L9,2 L9,4 L13,5 L13,6 L-9,6 L-9,2 L-1,3 Z " fill="#636C71" transform="translate(84,84)"/>
<path d="M0,0 L2,0 L2,6 L-1,13 L-3,17 L-6,18 L-11,15 L-20,14 L-20,12 L-11,12 L-9,13 L-9,15 L-4,15 L-3,9 Z M-6,16 Z " fill="#172521" transform="translate(20,46)"/>
<path d="M0,0 L1,0 L2,24 L3,29 L7,30 L10,32 L10,34 L12,35 L7,34 L1,31 L-1,27 Z " fill="#181F26" transform="translate(43,22)"/>
<path d="M0,0 L2,0 L2,21 L1,23 L-7,22 L-6,25 L-11,26 L-10,24 L-8,24 L-8,21 L-1,21 L1,11 L-1,11 L-1,16 L-2,16 L-2,10 L-1,9 Z " fill="#2E383C" transform="translate(82,64)"/>
<path d="M0,0 L5,0 L5,8 L4,10 L2,10 L1,13 L-4,14 L-2,10 L-1,9 Z " fill="#33443F" transform="translate(151,0)"/>
<path d="M0,0 L4,1 L2,1 L2,4 L8,5 L8,6 L-1,6 L-1,12 L2,13 L-3,13 L-5,11 L-4,6 L-2,1 Z " fill="#141A20" transform="translate(106,54)"/>
<path d="M0,0 L5,0 L12,8 L12,13 L8,12 L8,8 L5,7 L5,5 L-1,4 Z " fill="#464D4E" transform="translate(100,22)"/>
<path d="M0,0 L2,1 L1,3 L-6,6 L-9,10 L-15,10 L-16,16 L-17,16 L-17,10 L-14,7 L-8,6 L-8,3 L-6,2 L0,2 Z " fill="#101419" transform="translate(24,16)"/>
<path d="M0,0 L4,1 L6,13 L8,19 L3,19 L1,11 L3,12 L2,4 Z " fill="#354245" transform="translate(98,71)"/>
<path d="M0,0 L10,0 L10,3 L4,4 L4,8 L0,8 Z " fill="#000102" transform="translate(0,76)"/>
<path d="M0,0 L5,0 L11,7 L10,9 L8,9 L8,6 L0,5 L-1,2 Z " fill="#3C4651" transform="translate(27,17)"/>
<path d="M0,0 L9,0 L10,4 L-4,4 L-4,1 Z " fill="#000302" transform="translate(26,76)"/>
<path d="M0,0 L7,3 L11,8 L2,7 L-5,5 L-5,4 L0,4 Z " fill="#404B48" transform="translate(89,14)"/>
<path d="M0,0 L9,0 L9,4 L-4,4 Z " fill="#515C5B" transform="translate(151,34)"/>
<path d="M0,0 L4,0 L9,7 L9,19 L7,20 L8,8 L4,6 L0,2 Z " fill="#272C2D" transform="translate(105,22)"/>
<path d="M0,0 L5,2 L7,5 L8,15 L5,12 L2,5 L2,2 L0,2 Z " fill="#2A3B3D" transform="translate(94,70)"/>
<path d="M0,0 L8,0 L8,2 L3,2 L8,8 L7,11 L7,9 L3,7 L0,4 L-6,3 L-6,2 Z " fill="#2B2F36" transform="translate(32,14)"/>
<path d="M0,0 L6,0 L6,5 L-3,5 L-2,1 Z " fill="#121D1C" transform="translate(154,28)"/>
<path d="M0,0 L1,4 L-11,7 L-12,11 L-18,12 L-14,10 L-13,6 L-4,3 Z " fill="#24262B" transform="translate(137,38)"/>
<path d="M0,0 L10,0 L5,5 L3,5 L3,7 L0,6 L1,2 Z " fill="#1A262F" transform="translate(10,80)"/>
<path d="M0,0 L13,1 L12,3 L10,3 L9,7 L9,4 L2,2 L2,5 L0,5 Z " fill="#49595C" transform="translate(96,66)"/>
<path d="M0,0 L3,1 L2,2 L2,11 L-2,13 L-4,12 L-4,10 L-1,10 L-1,1 Z " fill="#040E12" transform="translate(57,44)"/>
<path d="M0,0 L13,1 L13,3 L16,4 L15,7 L12,5 L5,2 L-2,2 Z " fill="#4A5458" transform="translate(48,58)"/>
<path d="M0,0 L1,0 L1,5 L-8,5 L-8,1 L0,2 Z " fill="#4F595D" transform="translate(83,85)"/>
<path d="M0,0 L4,0 L5,2 L12,4 L10,5 L1,3 L1,8 L-1,8 L-1,2 Z " fill="#36433F" transform="translate(79,16)"/>
<path d="M0,0 L4,0 L4,6 L1,10 L-1,10 Z " fill="#081813" transform="translate(156,0)"/>
<path d="M0,0 L2,0 L2,6 L0,10 L-7,10 L-8,8 L-1,8 Z " fill="#141E22" transform="translate(81,75)"/>
<path d="M0,0 L5,1 L5,3 L7,4 L3,3 Z M-4,3 L4,4 L3,7 L-2,6 Z " fill="#36403E" transform="translate(96,18)"/>
<path d="M0,0 L12,1 L13,3 L-6,3 L-6,1 Z " fill="#3F494D" transform="translate(46,56)"/>
<path d="M0,0 L5,1 L6,4 L-4,4 L-3,2 L0,2 Z " fill="#2D373B" transform="translate(52,86)"/>
<path d="M0,0 L2,1 L4,13 L1,13 Z " fill="#546063" transform="translate(97,77)"/>
<path d="M0,0 L2,2 L3,8 L1,7 L1,5 L-5,5 Z " fill="#14221F" transform="translate(17,38)"/>
<path d="M0,0 L4,2 L9,4 L9,7 L4,6 Z " fill="#21302F" transform="translate(90,21)"/>
<path d="M0,0 L6,4 L11,5 L11,7 L13,8 L8,7 L2,4 Z " fill="#20292F" transform="translate(42,49)"/>
<path d="M0,0 L3,4 L-2,9 L-5,9 L-1,3 Z " fill="#090E0F" transform="translate(135,29)"/>
<path d="M0,0 L4,1 L7,5 L-2,3 Z " fill="#48515B" transform="translate(29,17)"/>
<path d="M0,0 L9,0 L8,2 L2,2 L1,6 Z " fill="#1D1E1E" transform="translate(48,12)"/>
<path d="M0,0 L4,1 L5,4 L5,11 L3,9 L1,3 Z " fill="#435557" transform="translate(98,71)"/>
<path d="M0,0 L4,2 L8,8 L2,6 Z " fill="#192223" transform="translate(100,28)"/>
<path d="M0,0 L5,1 L8,4 L2,4 Z " fill="#4D5855" transform="translate(92,18)"/>
<path d="M0,0 L1,3 L-6,3 L-5,6 L-10,7 L-9,5 L-7,5 L-7,2 L0,2 Z " fill="#263034" transform="translate(81,83)"/>
<path d="M0,0 L5,0 L5,4 L0,4 Z " fill="#525857" transform="translate(84,14)"/>
<path d="M0,0 L11,0 L11,1 L2,2 L-3,3 Z " fill="#2D3737" transform="translate(149,33)"/>
<path d="M0,0 L2,0 L3,5 L6,6 L4,7 L0,5 Z " fill="#6F767B" transform="translate(90,68)"/>
<path d="M0,0 L2,0 L2,2 L-1,2 L-3,6 L-7,3 Z " fill="#373B3F" transform="translate(117,50)"/>
<path d="M0,0 L2,1 L-2,4 L-7,3 L-6,1 Z " fill="#3D3E43" transform="translate(132,43)"/>
<path d="M0,0 L4,2 L4,5 L0,8 L1,2 Z " fill="#0F1416" transform="translate(106,36)"/>
<path d="M0,0 L4,0 L4,5 L0,3 Z " fill="#222A2A" transform="translate(136,29)"/>
<path d="M0,0 L1,4 L-4,4 L-4,2 L-6,1 L-1,1 Z " fill="#04100C" transform="translate(15,57)"/>
<path d="M0,0 L1,2 L4,2 L5,5 L-1,4 Z " fill="#0E1C18" transform="translate(5,36)"/>
<path d="M0,0 L3,4 L4,7 L0,8 Z " fill="#172725" transform="translate(50,18)"/>
<path d="M0,0 L11,1 L11,2 L2,3 L2,1 Z " fill="#141A20" transform="translate(89,62)"/>
<path d="M0,0 L1,0 L1,5 L-3,5 L-3,2 L0,2 Z " fill="#434D51" transform="translate(83,85)"/>
<path d="M0,0 L6,0 L4,3 L0,2 Z " fill="#0F181D" transform="translate(53,54)"/>
<path d="M0,0 L2,1 L0,5 L-3,5 Z " fill="#212F2B" transform="translate(17,58)"/>
<path d="M0,0 L2,0 L2,4 L-1,4 Z " fill="#28383B" transform="translate(149,86)"/>
<path d="M0,0 L4,1 L5,3 L0,2 Z " fill="#050E12" transform="translate(57,87)"/>
<path d="M0,0 L4,0 L3,3 L0,3 Z " fill="#414C57" transform="translate(6,81)"/>
<path d="M0,0 L1,4 L-3,4 L-3,2 Z " fill="#111C28" transform="translate(3,80)"/>
<path d="M0,0 L1,0 L1,5 L-2,5 Z " fill="#495357" transform="translate(73,69)"/>
<path d="M0,0 L4,4 L-1,4 Z " fill="#323F3D" transform="translate(23,71)"/>
<path d="M0,0 L4,2 L0,4 Z " fill="#43504F" transform="translate(25,70)"/>
<path d="M0,0 L5,2 L5,3 L-1,3 Z " fill="#5A5D63" transform="translate(110,54)"/>
<path d="M0,0 L1,3 L-3,5 L-1,1 Z " fill="#0C1014" transform="translate(112,43)"/>
<path d="M0,0 L2,0 L0,5 L-1,1 Z " fill="#2F393D" transform="translate(71,68)"/>
<path d="M0,0 L3,1 L-1,4 L-1,1 Z " fill="#151619" transform="translate(132,35)"/>
<path d="M0,0 L3,0 L2,3 L-1,1 Z " fill="#505A5E" transform="translate(61,62)"/>
<path d="M0,0 L1,3 L-2,4 Z " fill="#3E4F4A" transform="translate(149,10)"/>
</svg>
