<?xml version="1.0" encoding="UTF-8"?>
<!-- Generator: visioncortex VTracer 0.6.5 -->
<svg version="1.1" xmlns="http://www.w3.org/2000/svg" width="3840" height="3840">
<path d="M0,0 L39,0 L39,38 L922,38 L922,192 L999,192 L999,537 L1191,537 L1191,806 L1114,806 L1114,844 L1152,844 L1152,960 L1114,960 L1114,998 L1152,998 L1152,1036 L1114,1036 L1114,1152 L1152,1152 L1152,1190 L1114,1190 L1114,1305 L1037,1305 L1037,1267 L999,1267 L999,1382 L1152,1382 L1152,1651 L1229,1651 L1229,1689 L1383,1689 L1383,1881 L1537,1881 L1537,2035 L1460,2035 L1460,2073 L1383,2073 L1383,2150 L1537,2150 L1537,2304 L1383,2304 L1383,2188 L1344,2188 L1344,2150 L1229,2150 L1229,2342 L1152,2342 L1152,2649 L1114,2649 L1114,2419 L1076,2419 L1076,2380 L999,2380 L999,2150 L922,2150 L922,2534 L999,2534 L999,2803 L423,2803 L423,2841 L384,2841 L384,2534 L269,2534 L269,2803 L-345,2803 L-345,2496 L-307,2496 L-307,2534 L-230,2534 L-230,2457 L-268,2457 L-268,2419 L-345,2419 L-345,2150 L-499,2150 L-499,1536 L-345,1536 L-345,1267 L-230,1267 L-230,1152 L-115,1152 L-115,960 L-153,960 L-153,921 L-192,921 L-192,806 L-345,806 L-345,537 L-115,537 L-115,192 L0,192 Z " fill="#000017" transform="translate(1475,628)"/>
<path d="M0,0 L39,0 L39,192 L193,192 L193,346 L116,346 L116,384 L39,384 L39,461 L193,461 L193,615 L39,615 L39,499 L0,499 L0,461 L-115,461 L-115,653 L-192,653 L-192,960 L-230,960 L-230,730 L-268,730 L-268,691 L-345,691 L-345,346 L-422,346 L-422,77 L0,77 Z " fill="#B600A2" transform="translate(2819,2317)"/>
<path d="M0,0 L423,0 L423,77 L576,77 L576,346 L653,346 L653,384 L768,384 L768,461 L423,461 L423,384 L538,384 L538,115 L77,115 L77,346 L-38,346 L-38,269 L0,269 Z " fill="#1A153C" transform="translate(2051,1933)"/>
<path d="M0,0 L346,0 L346,269 L0,269 Z " fill="#B3009F" transform="translate(1629,1511)"/>
<path d="M0,0 L307,0 L307,269 L0,269 Z " fill="#EF00C5" transform="translate(2397,2394)"/>
<path d="M0,0 L692,0 L692,115 L39,115 L39,38 L0,38 Z " fill="#26001D" transform="translate(1667,1050)"/>
<path d="M0,0 L39,0 L39,192 L193,192 L193,346 L116,346 L116,384 L39,384 L39,461 L193,461 L193,615 L39,615 L39,499 L0,499 L0,461 L-38,461 L-38,307 L0,307 Z " fill="#A40098" transform="translate(2819,2317)"/>
<path d="M0,0 L269,0 L269,269 L0,269 Z " fill="#D700B6" transform="translate(2205,1511)"/>
<path d="M0,0 L269,0 L269,230 L-38,230 L-38,38 L0,38 Z " fill="#100A30" transform="translate(1744,820)"/>
<path d="M0,0 L230,0 L230,192 L153,192 L153,499 L115,499 L115,269 L77,269 L77,230 L0,230 Z " fill="#620064" transform="translate(2474,2778)"/>
<path d="M0,0 L192,0 L192,76 L230,76 L230,153 L384,153 L384,192 L345,192 L345,230 L307,230 L307,345 L192,345 L192,230 L115,230 L115,192 L76,192 L76,153 L115,153 L115,76 L0,76 Z " fill="#150019" transform="translate(1399,1972)"/>
<path d="M0,0 L115,0 L115,269 L0,269 Z " fill="#890080" transform="translate(1629,1511)"/>
<path d="M0,0 L115,0 L115,269 L0,269 Z " fill="#FA1ED1" transform="translate(1744,1511)"/>
<path d="M0,0 L39,0 L39,614 L77,614 L77,653 L39,653 L39,691 L0,691 Z " fill="#000003" transform="translate(1091,474)"/>
<path d="M0,0 L38,0 L38,38 L153,38 L153,115 L-192,115 L-192,38 L0,38 Z " fill="#3A004A" transform="translate(2666,2279)"/>
<path d="M0,0 L38,0 L38,39 L230,39 L230,77 L153,77 L153,384 L115,384 L115,154 L77,154 L77,115 L0,115 Z " fill="#290039" transform="translate(2474,2893)"/>
<path d="M0,0 L230,0 L230,115 L0,115 Z " fill="#AC0099" transform="translate(2474,2663)"/>
<path d="M0,0 L193,0 L193,154 L39,154 L39,38 L0,38 Z " fill="#7D007F" transform="translate(2819,2778)"/>
<path d="M0,0 L116,0 L116,153 L77,153 L77,192 L0,192 Z " fill="#FE2CD8" transform="translate(2243,1511)"/>
<path d="M0,0 L77,0 L77,269 L0,269 Z " fill="#FF53EE" transform="translate(2627,2394)"/>
<path d="M0,0 L77,0 L77,269 L0,269 Z " fill="#BC00A5" transform="translate(2397,2394)"/>
<path d="M0,0 L77,0 L77,269 L0,269 Z " fill="#300041" transform="translate(2128,1511)"/>
<path d="M0,0 L231,0 L231,77 L0,77 Z " fill="#150E35" transform="translate(2128,2317)"/>
<path d="M0,0 L153,0 L153,269 L192,269 L192,307 L115,307 L115,38 L0,38 Z " fill="#12002B" transform="translate(2474,2010)"/>
<path d="M0,0 L77,0 L77,192 L0,192 Z " fill="#AD0099" transform="translate(2397,1549)"/>
<path d="M0,0 L39,0 L39,346 L0,346 Z " fill="#000018" transform="translate(1091,474)"/>
<path d="M0,0 L77,0 L77,77 L38,77 L38,269 L0,269 Z " fill="#FF2EE3" transform="translate(2474,2394)"/>
<path d="M0,0 L77,0 L77,115 L-38,115 L-38,38 L0,38 Z " fill="#080129" transform="translate(2397,2087)"/>
<path d="M0,0 L115,0 L115,38 L38,38 L38,192 L-39,192 L-39,153 L0,153 Z " fill="#F026CF" transform="translate(2359,1511)"/>
<path d="M0,0 L38,0 L38,39 L115,39 L115,154 L77,154 L77,115 L0,115 Z " fill="#060020" transform="translate(2474,2893)"/>
<path d="M0,0 L77,0 L77,154 L38,154 L38,115 L0,115 Z " fill="#41004A" transform="translate(2474,2778)"/>
<path d="M0,0 L116,0 L116,115 L39,115 L39,38 L0,38 Z " fill="#18001A" transform="translate(2243,1050)"/>
<path d="M0,0 L38,0 L38,115 L-77,115 L-77,38 L0,38 Z " fill="#790079" transform="translate(2666,2778)"/>
<path d="M0,0 L38,0 L38,269 L0,269 Z " fill="#F60BCC" transform="translate(2589,2394)"/>
<path d="M0,0 L38,0 L38,269 L0,269 Z " fill="#250030" transform="translate(2359,2394)"/>
<path d="M0,0 L38,0 L38,269 L0,269 Z " fill="#A90099" transform="translate(2205,1511)"/>
<path d="M0,0 L38,0 L38,269 L0,269 Z " fill="#CE00B3" transform="translate(1629,1511)"/>
<path d="M0,0 L116,0 L116,77 L0,77 Z " fill="#F41ACE" transform="translate(2243,1511)"/>
<path d="M0,0 L116,0 L116,153 L77,153 L77,38 L0,38 Z " fill="#C200A7" transform="translate(1859,1511)"/>
<path d="M0,0 L115,0 L115,77 L0,77 Z " fill="#9B0091" transform="translate(2858,2816)"/>
<path d="M0,0 L77,0 L77,115 L0,115 Z " fill="#D400B6" transform="translate(2627,2663)"/>
<path d="M0,0 L77,0 L77,115 L0,115 Z " fill="#AA009A" transform="translate(2704,2663)"/>
<path d="M0,0 L77,0 L77,115 L0,115 Z " fill="#3F004C" transform="translate(2128,1511)"/>
<path d="M0,0 L39,0 L39,192 L0,192 Z " fill="#720077" transform="translate(2819,2317)"/>
<path d="M0,0 L192,0 L192,38 L0,38 Z " fill="#120C32" transform="translate(2128,2010)"/>
<path d="M0,0 L38,0 L38,192 L0,192 Z " fill="#030024" transform="translate(2013,2010)"/>
<path d="M0,0 L38,0 L38,192 L0,192 Z " fill="#6A0067" transform="translate(1706,1549)"/>
<path d="M0,0 L39,0 L39,154 L0,154 Z " fill="#850087" transform="translate(2973,2509)"/>
<path d="M0,0 L154,0 L153,39 L0,39 Z " fill="#090026" transform="translate(2090,1280)"/>
<path d="M0,0 L153,0 L153,39 L0,39 Z " fill="#55005E" transform="translate(2551,2893)"/>
<path d="M0,0 L77,0 L77,77 L0,77 Z " fill="#1D002D" transform="translate(2397,2701)"/>
<path d="M0,0 L77,0 L77,77 L0,77 Z " fill="#640069" transform="translate(2474,2317)"/>
<path d="M0,0 L77,0 L77,77 L0,77 Z " fill="#0F092F" transform="translate(2282,2317)"/>
<path d="M0,0 L77,0 L77,77 L0,77 Z " fill="#25001D" transform="translate(1514,2048)"/>
<path d="M0,0 L38,0 L38,39 L77,39 L77,77 L38,77 L38,115 L0,115 Z " fill="#00001B" transform="translate(2474,2893)"/>
<path d="M0,0 L76,0 L76,77 L0,77 Z " fill="#3B004C" transform="translate(2551,2317)"/>
<path d="M0,0 L38,0 L38,77 L77,77 L77,115 L0,115 Z " fill="#1F0035" transform="translate(2589,2202)"/>
<path d="M0,0 L115,0 L115,38 L38,38 L38,77 L0,77 Z " fill="#D206BD" transform="translate(2359,1511)"/>
<path d="M0,0 L38,0 L38,153 L0,153 Z " fill="#240033" transform="translate(2589,3124)"/>
<path d="M0,0 L153,0 L153,38 L0,38 Z " fill="#12002D" transform="translate(2474,2010)"/>
<path d="M0,0 L39,0 L39,116 L0,116 Z " fill="#510056" transform="translate(2512,2816)"/>
<path d="M0,0 L116,0 L116,39 L0,39 Z " fill="#FD3EED" transform="translate(2243,1741)"/>
<path d="M0,0 L116,0 L116,39 L0,39 Z " fill="#BE00A8" transform="translate(1859,1741)"/>
<path d="M0,0 L115,0 L115,39 L0,39 Z " fill="#E000C1" transform="translate(2359,1741)"/>
<path d="M0,0 L115,0 L115,39 L0,39 Z " fill="#FF51F5" transform="translate(1744,1741)"/>
<path d="M0,0 L116,0 L116,38 L0,38 Z " fill="#E64BEB" transform="translate(2243,1511)"/>
<path d="M0,0 L116,0 L116,38 L0,38 Z " fill="#D705BF" transform="translate(1859,1511)"/>
<path d="M0,0 L38,0 L38,116 L0,116 Z " fill="#000000" transform="translate(2589,1472)"/>
<path d="M0,0 L38,0 L38,115 L0,115 Z " fill="#DE00BE" transform="translate(2474,2663)"/>
<path d="M0,0 L115,0 L115,38 L0,38 Z " fill="#E152EA" transform="translate(1744,1511)"/>
<path d="M0,0 L77,0 L77,39 L0,39 Z " fill="#AD009B" transform="translate(2397,2624)"/>
<path d="M0,0 L39,0 L39,77 L0,77 Z " fill="#7B007B" transform="translate(2819,2432)"/>
<path d="M0,0 L39,0 L39,77 L0,77 Z " fill="#F714CF" transform="translate(2512,2394)"/>
<path d="M0,0 L39,0 L39,77 L0,77 Z " fill="#1C143B" transform="translate(2128,2317)"/>
<path d="M0,0 L39,0 L39,77 L0,77 Z " fill="#060027" transform="translate(2243,2125)"/>
<path d="M0,0 L77,0 L77,39 L0,39 Z " fill="#AD009B" transform="translate(1667,1741)"/>
<path d="M0,0 L39,0 L39,77 L0,77 Z " fill="#A20094" transform="translate(1859,1664)"/>
<path d="M0,0 L77,0 L77,39 L0,39 Z " fill="#F600CC" transform="translate(1744,1549)"/>
<path d="M0,0 L38,0 L38,77 L0,77 Z " fill="#000000" transform="translate(1130,3469)"/>
<path d="M0,0 L38,0 L38,77 L0,77 Z " fill="#240024" transform="translate(2589,3354)"/>
<path d="M0,0 L77,0 L77,38 L0,38 Z " fill="#000000" transform="translate(2627,2932)"/>
<path d="M0,0 L77,0 L77,38 L0,38 Z " fill="#6A0068" transform="translate(2589,2778)"/>
<path d="M0,0 L77,0 L77,38 L0,38 Z " fill="#350042" transform="translate(2474,2778)"/>
<path d="M0,0 L38,0 L38,77 L0,77 Z " fill="#BF00A4" transform="translate(2589,2701)"/>
<path d="M0,0 L77,0 L77,38 L0,38 Z " fill="#990099" transform="translate(2858,2663)"/>
<path d="M0,0 L77,0 L77,38 L0,38 Z " fill="#A20091" transform="translate(2704,2471)"/>
<path d="M0,0 L38,0 L38,77 L0,77 Z " fill="#F91BCF" transform="translate(2589,2394)"/>
<path d="M0,0 L38,0 L38,77 L0,77 Z " fill="#FF4BF6" transform="translate(2474,2394)"/>
<path d="M0,0 L77,0 L77,38 L0,38 Z " fill="#FF64FF" transform="translate(2627,2394)"/>
<path d="M0,0 L38,0 L38,77 L0,77 Z " fill="#53005A" transform="translate(2551,2317)"/>
<path d="M0,0 L38,0 L38,77 L0,77 Z " fill="#93008E" transform="translate(2474,2317)"/>
<path d="M0,0 L38,0 L38,77 L0,77 Z " fill="#050027" transform="translate(2359,2317)"/>
<path d="M0,0 L38,0 L38,77 L0,77 Z " fill="#0D042B" transform="translate(2013,2125)"/>
<path d="M0,0 L38,0 L38,77 L0,77 Z " fill="#210035" transform="translate(2589,2048)"/>
<path d="M0,0 L77,0 L77,38 L0,38 Z " fill="#090025" transform="translate(2243,2010)"/>
<path d="M0,0 L77,0 L77,38 L0,38 Z " fill="#200020" transform="translate(2512,1895)"/>
<path d="M0,0 L77,0 L77,38 L0,38 Z " fill="#D700BF" transform="translate(2397,1511)"/>
<path d="M0,0 L77,0 L77,38 L0,38 Z " fill="#A10095" transform="translate(1667,1511)"/>
<path d="M0,0 L38,0 L38,77 L0,77 Z " fill="#000000" transform="translate(2589,858)"/>
<path d="M0,0 L77,0 L77,38 L0,38 Z " fill="#08002B" transform="translate(1744,820)"/>
<path d="M0,0 L38,0 L38,76 L0,76 Z " fill="#000040" transform="translate(2589,1012)"/>
<path d="M0,0 L39,0 L39,39 L0,39 Z " fill="#390043" transform="translate(2512,2893)"/>
<path d="M0,0 L39,0 L39,39 L0,39 Z " fill="#68006E" transform="translate(2819,2317)"/>
<path d="M0,0 L39,0 L39,39 L0,39 Z " fill="#D400BB" transform="translate(2435,1741)"/>
<path d="M0,0 L39,0 L39,39 L0,39 Z " fill="#FF32E9" transform="translate(2243,1741)"/>
<path d="M0,0 L39,0 L39,39 L0,39 Z " fill="#40004E" transform="translate(2128,1741)"/>
<path d="M0,0 L39,0 L39,39 L0,39 Z " fill="#D400BA" transform="translate(1936,1741)"/>
<path d="M0,0 L39,0 L39,39 L0,39 Z " fill="#F61BD0" transform="translate(2320,1664)"/>
<path d="M0,0 L39,0 L39,39 L0,39 Z " fill="#F61BD5" transform="translate(2243,1664)"/>
<path d="M0,0 L39,0 L39,39 L0,39 Z " fill="#F10CCC" transform="translate(2243,1549)"/>
<path d="M0,0 L39,0 L39,38 L0,38 Z " fill="#000000" transform="translate(1859,3431)"/>
<path d="M0,0 L39,0 L39,38 L0,38 Z " fill="#260040" transform="translate(2512,2970)"/>
<path d="M0,0 L38,0 L38,39 L0,39 Z " fill="#000000" transform="translate(2781,2893)"/>
<path d="M0,0 L38,0 L38,39 L0,39 Z " fill="#5F006C" transform="translate(2666,2893)"/>
<path d="M0,0 L38,0 L38,39 L0,39 Z " fill="#4D0057" transform="translate(2551,2893)"/>
<path d="M0,0 L38,0 L38,39 L0,39 Z " fill="#16002F" transform="translate(2474,2893)"/>
<path d="M0,0 L38,0 L38,39 L0,39 Z " fill="#FE26D6" transform="translate(2589,2624)"/>
<path d="M0,0 L38,0 L38,39 L0,39 Z " fill="#FB00CF" transform="translate(2551,2624)"/>
<path d="M0,0 L39,0 L39,38 L0,38 Z " fill="#0C0024" transform="translate(1360,2586)"/>
<path d="M0,0 L38,0 L38,39 L0,39 Z " fill="#99008F" transform="translate(2935,2509)"/>
<path d="M0,0 L39,0 L39,38 L0,38 Z " fill="#8B008D" transform="translate(2819,2471)"/>
<path d="M0,0 L39,0 L39,38 L0,38 Z " fill="#FF2CDF" transform="translate(2512,2394)"/>
<path d="M0,0 L39,0 L39,38 L0,38 Z " fill="#6E0073" transform="translate(2512,2356)"/>
<path d="M0,0 L39,0 L39,38 L0,38 Z " fill="#000000" transform="translate(2627,2279)"/>
<path d="M0,0 L39,0 L39,38 L0,38 Z " fill="#090023" transform="translate(2512,2279)"/>
<path d="M0,0 L38,0 L38,39 L0,39 Z " fill="#000000" transform="translate(2589,1933)"/>
<path d="M0,0 L38,0 L38,39 L0,39 Z " fill="#D919C4" transform="translate(2359,1741)"/>
<path d="M0,0 L38,0 L38,39 L0,39 Z " fill="#C500B2" transform="translate(2205,1741)"/>
<path d="M0,0 L38,0 L38,39 L0,39 Z " fill="#FF42EF" transform="translate(1821,1741)"/>
<path d="M0,0 L38,0 L38,39 L0,39 Z " fill="#990088" transform="translate(1706,1741)"/>
<path d="M0,0 L38,0 L38,39 L0,39 Z " fill="#E900C0" transform="translate(1629,1741)"/>
<path d="M0,0 L39,0 L39,38 L0,38 Z " fill="#C200AB" transform="translate(2243,1703)"/>
<path d="M0,0 L38,0 L38,39 L0,39 Z " fill="#E90FC8" transform="translate(2359,1664)"/>
<path d="M0,0 L38,0 L38,39 L0,39 Z " fill="#000000" transform="translate(1322,1549)"/>
<path d="M0,0 L39,0 L39,38 L0,38 Z " fill="#E243E5" transform="translate(2243,1511)"/>
<path d="M0,0 L39,0 L39,38 L0,38 Z " fill="#E40FCF" transform="translate(1936,1511)"/>
<path d="M0,0 L38,0 L38,39 L0,39 Z " fill="#000000" transform="translate(1130,1472)"/>
<path d="M0,0 L38,0 L38,39 L0,39 Z " fill="#000000" transform="translate(1130,1088)"/>
<path d="M0,0 L39,0 L39,38 L0,38 Z " fill="#000000" transform="translate(1360,666)"/>
<path d="M0,0 L39,0 L39,38 L0,38 Z " fill="#000000" transform="translate(1475,628)"/>
<path d="M0,0 L38,0 L38,38 L0,38 Z " fill="#330033" transform="translate(2589,3354)"/>
<path d="M0,0 L38,0 L38,38 L0,38 Z " fill="#000000" transform="translate(1130,3124)"/>
<path d="M0,0 L38,0 L38,38 L0,38 Z " fill="#000000" transform="translate(2589,3047)"/>
<path d="M0,0 L38,0 L38,38 L0,38 Z " fill="#000000" transform="translate(1207,3047)"/>
<path d="M0,0 L38,0 L38,38 L0,38 Z " fill="#000000" transform="translate(2474,2970)"/>
<path d="M0,0 L38,0 L38,38 L0,38 Z " fill="#2F0040" transform="translate(2589,2932)"/>
<path d="M0,0 L38,0 L38,38 L0,38 Z " fill="#18002A" transform="translate(2551,2932)"/>
<path d="M0,0 L38,0 L38,38 L0,38 Z " fill="#54005B" transform="translate(2551,2778)"/>
<path d="M0,0 L38,0 L38,38 L0,38 Z " fill="#850079" transform="translate(2858,2663)"/>
<path d="M0,0 L38,0 L38,38 L0,38 Z " fill="#F90ACF" transform="translate(2589,2471)"/>
<path d="M0,0 L38,0 L38,38 L0,38 Z " fill="#A1009A" transform="translate(2781,2394)"/>
<path d="M0,0 L38,0 L38,38 L0,38 Z " fill="#BB00AC" transform="translate(2743,2394)"/>
<path d="M0,0 L38,0 L38,38 L0,38 Z " fill="#FB25D7" transform="translate(2589,2394)"/>
<path d="M0,0 L38,0 L38,38 L0,38 Z " fill="#FF63FF" transform="translate(2474,2394)"/>
<path d="M0,0 L38,0 L38,38 L0,38 Z " fill="#600062" transform="translate(2551,2356)"/>
<path d="M0,0 L38,0 L38,38 L0,38 Z " fill="#A80099" transform="translate(2474,2356)"/>
<path d="M0,0 L38,0 L38,38 L0,38 Z " fill="#550055" transform="translate(2666,2279)"/>
<path d="M0,0 L38,0 L38,38 L0,38 Z " fill="#000080" transform="translate(2589,2010)"/>
<path d="M0,0 L38,0 L38,38 L0,38 Z " fill="#0F072D" transform="translate(2282,2010)"/>
<path d="M0,0 L38,0 L38,38 L0,38 Z " fill="#330033" transform="translate(2551,1895)"/>
<path d="M0,0 L38,0 L38,38 L0,38 Z " fill="#000000" transform="translate(2589,1780)"/>
<path d="M0,0 L38,0 L38,38 L0,38 Z " fill="#000000" transform="translate(1245,1780)"/>
<path d="M0,0 L38,0 L38,38 L0,38 Z " fill="#C700B1" transform="translate(1629,1703)"/>
<path d="M0,0 L38,0 L38,38 L0,38 Z " fill="#000000" transform="translate(2589,1626)"/>
<path d="M0,0 L38,0 L38,38 L0,38 Z " fill="#EB17CA" transform="translate(2359,1588)"/>
<path d="M0,0 L38,0 L38,38 L0,38 Z " fill="#DF00BE" transform="translate(1629,1588)"/>
<path d="M0,0 L38,0 L38,38 L0,38 Z " fill="#B837C5" transform="translate(2359,1511)"/>
<path d="M0,0 L38,0 L38,38 L0,38 Z " fill="#940082" transform="translate(1706,1511)"/>
<path d="M0,0 L38,0 L38,38 L0,38 Z " fill="#000000" transform="translate(2666,1434)"/>
<path d="M0,0 L38,0 L38,38 L0,38 Z " fill="#0D0027" transform="translate(2090,1396)"/>
<path d="M0,0 L38,0 L38,38 L0,38 Z " fill="#000027" transform="translate(2589,1012)"/>
<path d="M0,0 L38,0 L38,38 L0,38 Z " fill="#000020" transform="translate(2589,858)"/>
</svg>
