<?xml version="1.0" encoding="UTF-8"?>
<!-- Generator: visioncortex VTracer 0.6.5 -->
<svg version="1.1" xmlns="http://www.w3.org/2000/svg" width="150" height="150">
<path d="M0,0 L48,0 L48,4 L52,4 L53,13 L57,14 L57,32 L71,32 L71,36 L75,37 L74,41 L70,41 L70,45 L62,46 L61,49 L57,49 L57,67 L53,67 L53,85 L57,86 L57,90 L61,90 L61,94 L70,94 L70,99 L79,99 L79,103 L83,103 L84,107 L88,108 L88,121 L92,121 L92,138 L91,139 L-50,139 L-50,103 L-45,103 L-44,99 L-37,98 L-35,95 L-27,94 L-26,90 L-23,89 L-22,86 L-19,85 L-18,81 L-14,81 L-14,77 L-10,76 L-10,68 L-14,67 L-14,63 L-18,62 L-18,50 L-14,49 L-14,41 L-22,41 L-23,36 L-28,35 L-28,32 L-10,31 L-9,9 L-5,9 L-4,4 L0,4 Z " fill="#09080D" transform="translate(50,11)"/>
<path d="M0,0 L5,0 L5,9 L9,9 L9,0 L14,0 L14,5 L18,5 L18,9 L22,9 L22,2 L31,2 L31,9 L36,9 L36,4 L39,4 L39,2 L44,2 L45,9 L48,9 L48,2 L57,2 L57,10 L49,10 L49,18 L36,18 L36,13 L31,13 L31,10 L27,10 L27,14 L31,14 L31,18 L27,18 L27,23 L22,23 L23,36 L36,36 L36,41 L44,41 L44,36 L49,36 L48,45 L44,45 L44,50 L27,50 L28,54 L31,54 L31,58 L23,58 L23,63 L18,63 L18,68 L14,68 L14,85 L9,85 L9,90 L-45,90 L-45,54 L-40,54 L-39,50 L-32,49 L-30,46 L-22,45 L-21,41 L-18,40 L-17,37 L-14,36 L-13,32 L-9,32 L-9,28 L-5,27 L-5,19 L-9,18 L-9,4 L-4,4 L-4,13 L0,13 Z " fill="#0F1014" transform="translate(45,60)"/>
<path d="M0,0 L2,1 L0,5 L-3,6 L-4,32 L5,32 L5,36 L10,37 L10,41 L6,41 L6,45 L1,45 L1,53 L6,53 L6,58 L10,58 L10,63 L-40,63 L-40,27 L-35,27 L-34,23 L-27,22 L-25,19 L-17,18 L-16,14 L-13,13 L-12,10 L-9,9 L-8,5 L-4,5 L-4,1 Z " fill="#0C0E13" transform="translate(40,87)"/>
<path d="M0,0 L48,0 L48,4 L52,4 L52,22 L-5,22 L-5,18 L-1,17 Z " fill="#0F1116" transform="translate(50,11)"/>
<path d="M0,0 L5,0 L5,5 L9,5 L9,9 L13,9 L13,2 L22,2 L22,9 L27,9 L27,4 L30,4 L30,2 L35,2 L36,9 L39,9 L39,2 L48,2 L48,10 L40,10 L40,18 L27,18 L27,13 L22,13 L22,10 L18,10 L18,14 L22,14 L22,18 L18,18 L18,23 L13,23 L14,36 L27,36 L27,41 L35,41 L35,36 L40,36 L39,45 L13,45 L13,41 L9,41 L9,36 L5,36 L5,27 L0,27 L0,18 L9,18 L9,13 L5,13 L5,9 L0,9 Z " fill="#56391D" transform="translate(54,60)"/>
<path d="M0,0 L2,1 L0,5 L-3,6 L-4,32 L5,32 L5,36 L10,37 L10,41 L6,41 L6,45 L1,45 L2,41 L-8,41 L-8,14 L-12,15 L-14,19 L-17,19 L-17,23 L-26,23 L-26,27 L-34,28 L-35,45 L-40,46 L-40,27 L-35,27 L-34,23 L-27,22 L-25,19 L-17,18 L-16,14 L-13,13 L-12,10 L-9,9 L-8,5 L-4,5 L-4,1 Z " fill="#060409" transform="translate(40,87)"/>
<path d="M0,0 L4,0 L4,27 L8,26 L14,27 L13,31 L9,31 L9,45 L4,45 L4,36 L-1,35 L-1,26 L-5,26 L-5,21 L-9,22 L-9,17 L-14,17 L-14,9 L-5,9 L-5,5 L-2,4 Z " fill="#181D1D" transform="translate(28,101)"/>
<path d="M0,0 L5,0 L5,9 L14,9 L14,13 L18,13 L18,18 L9,18 L9,27 L14,27 L14,36 L9,36 L9,32 L5,32 L5,18 L-9,18 L-9,4 L-4,4 L-4,13 L0,13 Z " fill="#2F2012" transform="translate(45,60)"/>
<path d="M0,0 L4,0 L4,17 L9,18 L9,22 L4,22 L4,27 L0,27 L0,22 L-4,22 L-4,17 L-9,17 L-9,9 L-4,9 L-4,5 L0,5 Z " fill="#181C1C" transform="translate(50,123)"/>
<path d="M0,0 L30,0 L30,9 L26,9 L26,4 L21,4 L21,9 L13,9 L13,4 L0,4 Z " fill="#291D12" transform="translate(68,92)"/>
<path d="M0,0 L5,0 L5,14 L1,14 L1,17 L3,18 L-9,18 L-9,4 L-4,4 L-4,13 L0,13 Z " fill="#362416" transform="translate(45,60)"/>
<path d="M0,0 L4,0 L4,19 L3,19 L3,9 L-1,9 L0,16 L-5,17 L-5,13 L-14,13 L-14,9 L-5,9 L-5,5 L-2,4 Z " fill="#0E1116" transform="translate(28,101)"/>
<path d="M0,0 L9,0 L9,8 L1,8 L1,16 L-8,16 L-8,12 L-4,12 L-4,3 L-3,7 L0,7 Z " fill="#55331B" transform="translate(93,62)"/>
<path d="M0,0 L5,0 L5,12 L1,12 L1,16 L-3,16 L-3,11 L-8,11 L-8,7 L-3,7 L-3,2 L0,2 Z " fill="#573A1D" transform="translate(84,62)"/>
<path d="M0,0 L4,0 L4,5 L-3,6 L-4,9 L14,9 L14,10 L-5,10 L-5,5 L-19,5 L-19,1 Z " fill="#0D1015" transform="translate(59,42)"/>
<path d="M0,0 L9,0 L9,4 L22,5 L22,6 L13,6 L13,13 L9,13 L9,9 L5,9 L5,4 L0,4 Z " fill="#29130D" transform="translate(54,56)"/>
<path d="M0,0 L4,0 L4,5 L9,5 L9,9 L-31,9 L-31,8 L0,8 Z " fill="#040308" transform="translate(41,141)"/>
<path d="M0,0 L17,0 L17,4 L0,4 Z " fill="#2E1F13" transform="translate(72,105)"/>
<path d="M0,0 L4,0 L4,13 L0,14 L-1,13 L-1,1 Z " fill="#06050A" transform="translate(55,114)"/>
<path d="M0,0 L5,0 L5,13 L0,13 Z " fill="#54391E" transform="translate(45,60)"/>
<path d="M0,0 L8,0 L8,7 L0,7 Z " fill="#BE2020" transform="translate(94,62)"/>
<path d="M0,0 L8,0 L8,7 L0,7 Z " fill="#BB1F1E" transform="translate(68,62)"/>
<path d="M0,0 L4,0 L4,3 L9,3 L9,8 L22,8 L22,9 L8,9 L4,8 L4,4 L0,4 Z " fill="#21160E" transform="translate(72,70)"/>
<path d="M0,0 L3,0 L3,14 L-1,13 L-1,1 Z " fill="#070509" transform="translate(33,60)"/>
<path d="M0,0 L4,0 L5,5 L4,13 L0,13 Z " fill="#060409" transform="translate(50,101)"/>
<path d="M0,0 L2,1 L1,8 L0,9 L-8,9 L-8,4 L0,4 Z " fill="#06060B" transform="translate(67,20)"/>
<path d="M0,0 L1,0 L1,16 L-4,16 L-4,8 L0,8 Z " fill="#280E0E" transform="translate(102,62)"/>
<path d="M0,0 L5,0 L4,9 L0,9 Z " fill="#47301B" transform="translate(89,96)"/>
<path d="M0,0 L4,0 L4,5 L0,5 L0,8 L-5,8 L-5,4 L0,4 Z " fill="#221812" transform="translate(41,56)"/>
<path d="M0,0 L6,0 L5,5 L1,6 L-2,5 L-2,1 Z " fill="#140E0A" transform="translate(53,96)"/>
<path d="M0,0 L7,1 L7,5 L-1,5 Z " fill="#070508" transform="translate(64,105)"/>
<path d="M0,0 L4,0 L4,9 L0,9 Z " fill="#A46F2F" transform="translate(85,65)"/>
<path d="M0,0 L4,0 L4,8 L0,9 Z " fill="#060409" transform="translate(37,132)"/>
<path d="M0,0 L4,0 L4,8 L0,8 Z " fill="#593B1E" transform="translate(36,65)"/>
<path d="M0,0 L5,0 L4,4 L0,4 L0,13 L-1,13 L-1,1 Z " fill="#0F1216" transform="translate(37,128)"/>
<path d="M0,0 L5,0 L5,5 L0,5 Z " fill="#E10B1D" transform="translate(96,62)"/>
<path d="M0,0 L5,0 L5,5 L0,5 Z " fill="#E30B1C" transform="translate(70,62)"/>
<path d="M0,0 L4,0 L4,5 L-1,5 Z " fill="#07050A" transform="translate(46,15)"/>
<path d="M0,0 L5,0 L4,5 L0,4 Z " fill="#06050A" transform="translate(14,141)"/>
<path d="M0,0 L4,0 L5,8 L4,4 L0,4 Z " fill="#2A1D10" transform="translate(72,70)"/>
<path d="M0,0 L4,1 L4,5 L-1,5 Z " fill="#0D1015" transform="translate(68,127)"/>
<path d="M0,0 L3,0 L4,5 L-1,5 Z " fill="#0D0F14" transform="translate(33,123)"/>
<path d="M0,0 L4,0 L4,5 L0,5 Z " fill="#322216" transform="translate(59,96)"/>
<path d="M0,0 L5,0 L5,4 L0,4 Z " fill="#381810" transform="translate(76,65)"/>
<path d="M0,0 L1,0 L1,6 L-3,6 L-2,1 Z " fill="#312115" transform="translate(101,72)"/>
<path d="M0,0 L5,0 L4,4 L0,4 Z " fill="#060409" transform="translate(14,119)"/>
<path d="M0,0 L1,0 L1,5 L-3,5 L-3,1 Z " fill="#2D1E10" transform="translate(66,64)"/>
<path d="M0,0 L4,0 L4,4 L0,4 Z " fill="#0E1015" transform="translate(116,110)"/>
<path d="M0,0 L4,0 L4,4 L0,4 Z " fill="#302012" transform="translate(89,101)"/>
<path d="M0,0 L4,0 L4,4 L0,4 Z " fill="#2A1D14" transform="translate(63,101)"/>
<path d="M0,0 L4,0 L4,4 L0,4 Z " fill="#080407" transform="translate(59,101)"/>
<path d="M0,0 L4,0 L4,4 L0,4 Z " fill="#5C3D1F" transform="translate(41,74)"/>
<path d="M0,0 L4,0 L4,4 L0,4 Z " fill="#070408" transform="translate(36,74)"/>
<path d="M0,0 L4,0 L4,4 L0,4 Z " fill="#2A1E16" transform="translate(41,56)"/>
<path d="M0,0 L3,0 L3,5 L0,5 Z " fill="#18110A" transform="translate(77,73)"/>
<path d="M0,0 L4,0 L3,4 L0,4 Z " fill="#070507" transform="translate(41,61)"/>
<path d="M0,0 L4,0 L3,3 L1,3 L0,5 Z " fill="#271C11" transform="translate(98,70)"/>
<path d="M0,0 L4,0 L3,4 L0,2 Z " fill="#080508" transform="translate(54,97)"/>
<path d="M0,0 L3,0 L3,4 L0,4 Z " fill="#261B10" transform="translate(90,65)"/>
<path d="M0,0 L4,0 L4,3 L0,3 Z " fill="#FE011B" transform="translate(96,63)"/>
<path d="M0,0 L4,0 L4,3 L0,3 Z " fill="#603F20" transform="translate(85,62)"/>
<path d="M0,0 L4,0 L4,3 L0,3 Z " fill="#FC011B" transform="translate(70,63)"/>
<path d="M0,0 L3,0 L3,3 L0,3 Z " fill="#5B3D20" transform="translate(90,97)"/>
</svg>
