<?xml version="1.0" encoding="UTF-8"?>
<!-- Generator: visioncortex VTracer 0.6.5 -->
<svg version="1.1" xmlns="http://www.w3.org/2000/svg" width="150" height="85">
<path d="M0,0 L150,0 L150,85 L0,85 Z " fill="#56606E" transform="translate(0,0)"/>
<path d="M0,0 L65,0 L65,18 L47,19 L35,18 L35,16 L29,16 L29,10 L27,10 L27,8 L10,7 L8,6 L8,3 L1,3 Z " fill="#7E8996" transform="translate(33,0)"/>
<path d="M0,0 L48,0 L48,17 L29,18 L20,18 L18,17 L2,15 L2,17 L0,17 Z " fill="#424D5A" transform="translate(102,0)"/>
<path d="M0,0 L4,0 L4,2 L6,2 L7,11 L13,12 L23,10 L24,8 L22,8 L24,3 L34,3 L32,4 L32,8 L28,8 L28,10 L31,10 L31,12 L37,14 L37,17 L42,16 L42,18 L13,18 L12,21 L10,21 L10,23 L7,23 L5,28 L2,32 L-16,32 L-19,28 L-19,21 L-18,18 L-5,17 L-4,13 L1,12 L2,5 L-3,6 L-12,2 L-8,1 L-2,1 Z M-13,2 Z " fill="#3F4956" transform="translate(96,42)"/>
<path d="M0,0 L8,0 L8,13 L-20,13 L-30,11 L-31,8 L-22,7 L-20,5 L-5,4 L-2,3 Z " fill="#1E2936" transform="translate(142,3)"/>
<path d="M0,0 L18,0 L18,12 L0,12 Z " fill="#222D3A" transform="translate(80,62)"/>
<path d="M0,0 L8,0 L8,3 L0,4 L-4,6 L-6,7 L-19,8 L-19,12 L8,12 L8,13 L-20,13 L-30,11 L-31,8 L-22,7 L-20,5 L-5,4 L-2,3 Z " fill="#2B3643" transform="translate(142,3)"/>
<path d="M0,0 L16,0 L16,3 L19,5 L3,6 L0,7 L-1,3 L-14,6 L-17,9 L-19,9 L-17,5 L-11,1 Z " fill="#737E8B" transform="translate(122,61)"/>
<path d="M0,0 L6,0 L8,2 L7,8 L7,15 L9,16 L8,18 L1,18 L2,15 L0,15 Z M6,15 Z " fill="#313B47" transform="translate(30,5)"/>
<path d="M0,0 L30,0 L30,2 L28,3 L13,4 L11,6 L2,6 L0,4 Z " fill="#5D6875" transform="translate(110,0)"/>
<path d="M0,0 L10,0 L10,2 L15,0 L22,0 L23,4 L28,3 L28,5 L2,5 L2,3 L-2,2 Z " fill="#2E3845" transform="translate(110,55)"/>
<path d="M0,0 L10,0 L10,3 L2,4 L0,7 L-3,8 L-18,9 L-20,11 L-29,11 L-28,14 L-32,13 L-30,9 L-20,9 L-20,7 L-18,6 L-3,5 L0,4 Z " fill="#3F4A57" transform="translate(140,0)"/>
<path d="M0,0 L10,0 L8,1 L8,5 L4,5 L4,7 L7,7 L5,11 L0,12 L0,10 L-9,9 L-9,8 L-1,7 L0,5 L-2,5 Z " fill="#47525F" transform="translate(120,45)"/>
<path d="M0,0 L2,4 L9,5 L9,6 L4,6 L4,10 L8,12 L8,14 L0,14 L-1,11 L-4,10 L-4,4 L0,2 Z M5,11 Z " fill="#282F3A" transform="translate(24,46)"/>
<path d="M0,0 L22,0 L22,12 L20,13 L20,2 L2,2 L2,12 L-1,10 L-1,3 Z " fill="#2B3643" transform="translate(78,60)"/>
<path d="M0,0 L5,0 L5,3 L24,5 L24,7 L26,7 L27,19 L28,21 L27,23 L24,23 L23,19 L23,7 L10,6 L3,3 Z " fill="#6B7683" transform="translate(36,3)"/>
<path d="M0,0 L2,0 L4,5 L13,5 L15,3 L32,2 L32,4 L29,6 L14,7 L12,8 L4,8 L0,5 Z " fill="#4F5A67" transform="translate(108,0)"/>
<path d="M0,0 L15,0 L18,3 L19,10 L17,11 L16,9 L16,3 L0,3 L-4,4 L-17,4 L-13,2 Z " fill="#616C79" transform="translate(41,61)"/>
<path d="M0,0 L14,0 L16,5 L0,5 Z " fill="#081320" transform="translate(82,67)"/>
<path d="M0,0 L11,0 L14,2 L10,5 L7,5 L7,7 L0,7 Z " fill="#45505D" transform="translate(110,35)"/>
<path d="M0,0 L10,0 L7,2 L8,9 L8,11 L6,11 L6,8 L0,8 Z " fill="#333E4B" transform="translate(0,28)"/>
<path d="M0,0 L14,0 L15,7 L13,5 L0,4 Z " fill="#17222F" transform="translate(83,63)"/>
<path d="M0,0 L28,0 L30,2 L12,3 L0,2 Z " fill="#6E7986" transform="translate(68,16)"/>
<path d="M0,0 L4,0 L4,13 L-1,11 L-1,2 Z " fill="#5B6673" transform="translate(23,4)"/>
<path d="M0,0 L2,0 L3,4 L2,7 L-8,7 L-8,3 Z " fill="#65707D" transform="translate(8,20)"/>
<path d="M0,0 L11,0 L9,6 L2,6 L0,4 Z " fill="#6C7784" transform="translate(110,0)"/>
<path d="M0,0 L13,0 L14,11 L12,8 L11,3 L-2,3 Z " fill="#3D4754" transform="translate(45,10)"/>
<path d="M0,0 L4,1 L5,6 L3,12 L0,12 Z " fill="#283340" transform="translate(32,6)"/>
<path d="M0,0 L10,0 L8,5 L-1,5 Z " fill="#4C5764" transform="translate(87,19)"/>
<path d="M0,0 L17,0 L17,1 L2,2 L0,4 L-9,4 L-8,7 L-12,6 L-10,2 L0,2 Z " fill="#37424F" transform="translate(120,7)"/>
<path d="M0,0 L4,0 L4,2 L6,2 L7,9 L5,7 L4,4 L-1,3 L-1,5 L-6,4 L-12,2 L-8,1 L-2,1 Z M-13,2 Z " fill="#424D5A" transform="translate(96,42)"/>
<path d="M0,0 L2,4 L-2,2 L0,2 Z M-3,3 L-2,3 L-2,9 L2,10 L2,12 L8,11 L8,14 L0,14 L-1,11 L-4,10 L-4,4 Z " fill="#313944" transform="translate(24,46)"/>
<path d="M0,0 L14,0 L14,1 L2,2 L2,12 L-1,10 L-1,3 Z " fill="#303B48" transform="translate(78,60)"/>
<path d="M0,0 L12,0 L10,4 L5,4 L5,6 L3,6 L3,3 L1,3 Z " fill="#444F5C" transform="translate(18,0)"/>
<path d="M0,0 L4,1 L6,3 L1,3 L1,17 L-1,18 L-1,1 Z " fill="#495461" transform="translate(29,2)"/>
<path d="M0,0 L12,0 L12,1 L-1,4 L-4,7 L-6,7 L-4,3 Z " fill="#7C8794" transform="translate(109,63)"/>
<path d="M0,0 L5,0 L6,8 L3,11 L-3,11 L-3,10 L2,9 L3,2 L-2,3 L0,2 Z " fill="#313C49" transform="translate(95,45)"/>
<path d="M0,0 L3,0 L3,6 L4,8 L3,10 L0,10 L-1,6 Z " fill="#5E6976" transform="translate(60,16)"/>
<path d="M0,0 L8,0 L9,5 L5,5 L5,3 L2,3 L2,1 Z M-1,1 Z " fill="#394451" transform="translate(39,30)"/>
<path d="M0,0 L6,0 L6,4 L2,4 L1,6 L0,5 Z " fill="#36414E" transform="translate(122,46)"/>
<path d="M0,0 L4,0 L4,3 L7,4 L-4,4 L-4,2 L0,2 Z " fill="#424C59" transform="translate(51,18)"/>
<path d="M0,0 L8,0 L8,3 L-1,3 Z " fill="#2E3946" transform="translate(142,3)"/>
<path d="M0,0 L6,0 L6,4 L0,4 Z " fill="#6B7683" transform="translate(122,39)"/>
<path d="M0,0 L8,0 L6,4 L1,4 Z " fill="#3B4552" transform="translate(112,36)"/>
<path d="M0,0 L7,0 L5,4 L0,3 Z " fill="#87929F" transform="translate(111,0)"/>
<path d="M0,0 L2,0 L3,9 L0,10 Z " fill="#202A36" transform="translate(32,8)"/>
<path d="M0,0 L9,0 L8,2 L0,3 Z " fill="#707B88" transform="translate(0,23)"/>
<path d="M0,0 L7,1 L7,3 L-1,3 Z " fill="#1C2734" transform="translate(125,57)"/>
<path d="M0,0 L2,0 L4,5 L10,6 L10,7 L3,7 L0,5 Z " fill="#5B6673" transform="translate(108,0)"/>
<path d="M0,0 L10,0 L10,2 L1,3 Z " fill="#323D4A" transform="translate(18,0)"/>
<path d="M0,0 L3,1 L-3,9 L-4,7 Z " fill="#606B78" transform="translate(103,65)"/>
<path d="M0,0 L8,0 L8,3 L0,3 Z " fill="#3B434F" transform="translate(24,57)"/>
<path d="M0,0 L7,0 L6,3 L-1,3 Z " fill="#3E4854" transform="translate(32,20)"/>
<path d="M0,0 L3,1 L2,4 L-5,5 Z " fill="#76818E" transform="translate(118,0)"/>
<path d="M0,0 L3,4 L3,9 L0,7 Z " fill="#39424F" transform="translate(77,63)"/>
<path d="M0,0 L4,1 L4,3 L8,5 L3,4 L0,2 Z " fill="#5D6875" transform="translate(30,0)"/>
<path d="M0,0 L4,2 L0,5 L-2,5 Z " fill="#4D5865" transform="translate(120,35)"/>
<path d="M0,0 L4,1 L6,5 L2,4 Z " fill="#4B5663" transform="translate(36,5)"/>
<path d="M0,0 L3,0 L3,5 L1,5 Z " fill="#4B5663" transform="translate(47,30)"/>
<path d="M0,0 L3,1 L2,4 L-1,4 Z " fill="#6D7885" transform="translate(61,22)"/>
<path d="M0,0 L5,0 L6,4 L2,2 Z " fill="#67727F" transform="translate(36,3)"/>
<path d="M0,0 L4,1 L3,3 L0,4 Z " fill="#242F3C" transform="translate(0,29)"/>
<path d="M0,0 L3,1 L2,3 L-2,2 Z " fill="#333E4B" transform="translate(110,55)"/>
<path d="M0,0 L4,1 L-1,3 Z " fill="#35404D" transform="translate(142,3)"/>
<path d="M0,0 L2,1 L2,3 L-2,3 L-2,1 Z " fill="#3F4A57" transform="translate(46,32)"/>
</svg>
