<?xml version="1.0" encoding="UTF-8"?>
<!-- Generator: visioncortex VTracer 0.6.5 -->
<svg version="1.1" xmlns="http://www.w3.org/2000/svg" width="150" height="85">
<path d="M0,0 L150,0 L150,85 L0,85 Z " fill="#616A78" transform="translate(0,0)"/>
<path d="M0,0 L11,0 L11,2 L13,3 L10,5 L-4,5 L-2,1 Z " fill="#656E7B" transform="translate(50,58)"/>
<path d="M0,0 L13,0 L10,3 L0,4 Z " fill="#585E6D" transform="translate(0,60)"/>
<path d="M0,0 L4,1 L1,3 L-13,3 L-12,1 Z " fill="#707A87" transform="translate(59,60)"/>
<path d="M0,0 L8,0 L7,5 L-1,3 Z " fill="#596471" transform="translate(92,0)"/>
<path d="M0,0 L7,0 L9,1 L8,3 L-2,3 L-3,1 Z " fill="#6C7683" transform="translate(71,59)"/>
<path d="M0,0 L8,0 L6,4 L1,3 Z " fill="#4B5563" transform="translate(17,0)"/>
<path d="M0,0 L5,0 L2,6 L0,7 Z " fill="#313947" transform="translate(0,0)"/>
<path d="M0,0 L5,0 L4,6 L1,6 Z M0,6 Z M-1,7 Z " fill="#515B68" transform="translate(139,0)"/>
<path d="M0,0 L5,0 L5,3 L0,2 Z M6,0 Z " fill="#515665" transform="translate(0,60)"/>
<path d="M0,0 L4,2 L-1,3 L-7,2 L-7,1 Z " fill="#5B6472" transform="translate(99,56)"/>
<path d="M0,0 L4,0 L2,5 L0,4 Z " fill="#48525F" transform="translate(141,33)"/>
</svg>
