<?xml version="1.0" encoding="UTF-8"?>
<!-- Generator: visioncortex VTracer 0.6.5 -->
<svg version="1.1" xmlns="http://www.w3.org/2000/svg" width="150" height="84">
<path d="M0,0 L150,0 L150,84 L0,84 Z " fill="#010101" transform="translate(0,0)"/>
<path d="M0,0 L9,0 L7,4 L6,8 L10,12 L9,14 L14,14 L13,16 L7,16 L6,22 L10,22 L15,28 L15,32 L17,30 L18,21 L21,20 L21,13 L24,5 L27,4 L27,2 L32,2 L33,6 L38,6 L40,9 L45,10 L45,12 L48,13 L48,15 L60,15 L60,18 L51,19 L47,25 L43,28 L43,34 L40,35 L39,37 L38,46 L36,49 L67,49 L67,46 L72,45 L73,46 L82,47 L83,52 L89,52 L90,56 L89,60 L93,58 L97,51 L101,50 L103,47 L108,47 L108,50 L112,49 L113,45 L114,42 L116,42 L118,36 L122,37 L124,43 L127,42 L127,73 L-23,73 L-23,16 L-17,17 L-16,15 L-14,15 L-14,13 L-9,14 L-7,15 L-7,19 L-4,19 L-4,21 L-2,21 L-4,32 L0,30 L-1,26 L3,25 L5,29 L7,28 L7,26 L4,23 L1,19 L-1,19 L-1,17 L-5,15 L-4,8 Z M122,43 Z " fill="#101318" transform="translate(23,11)"/>
<path d="M0,0 L3,0 L3,2 L-1,5 L-1,11 L-4,12 L-5,14 L-6,23 L-8,26 L23,26 L23,23 L28,22 L29,23 L38,24 L39,29 L45,29 L46,33 L45,37 L49,35 L53,28 L57,27 L59,24 L64,24 L64,27 L68,26 L69,22 L70,19 L72,19 L74,13 L78,14 L80,20 L83,19 L83,50 L-10,50 L-16,48 L-16,47 L-9,47 L-7,48 L0,48 L1,47 L-9,45 L-10,41 L-12,41 L-12,43 L-18,42 L-18,44 L-25,42 L-27,40 L-27,39 L-28,43 L-19,45 L-18,47 L-21,48 L-29,45 L-34,43 L-45,42 L-46,41 L-46,34 L-41,38 L-40,37 L-42,33 L-39,35 L-39,30 L-53,27 L-53,25 L-58,25 L-57,23 L-49,24 L-50,20 L-47,20 L-43,24 L-35,27 L-35,29 L-37,29 L-37,31 L-33,32 L-30,35 L-23,36 L-19,37 L-18,34 L-16,34 L-17,39 L-8,38 L-7,36 L7,33 L11,31 L11,28 L5,29 L-7,28 L-7,32 L-16,32 L-17,29 L-14,29 L-13,26 L-16,24 L-16,18 L-19,17 L-16,17 L-16,11 L-9,11 L-13,6 L-16,4 L-16,1 L-11,3 L-8,4 L-8,2 Z M78,20 Z " fill="#14141A" transform="translate(67,34)"/>
<path d="M0,0 L113,0 L114,4 L120,4 L120,11 L116,11 L116,13 L105,13 L105,15 L89,15 L75,13 L75,22 L81,21 L81,19 L98,19 L97,22 L94,24 L93,28 L87,28 L84,25 L73,24 L73,26 L71,26 L67,21 L62,20 L61,17 L56,17 L55,13 L53,13 L52,15 L52,13 L50,13 L50,15 L48,16 L45,24 L44,31 L42,32 L41,41 L37,44 L36,37 L33,35 L33,33 L29,33 L30,27 L36,26 L32,25 L30,21 L28,17 L32,11 L23,11 L21,17 L19,24 L20,27 L22,28 L22,30 L25,29 L28,34 L28,36 L31,37 L30,40 L28,40 L26,37 L24,39 L25,40 L22,43 L19,43 L20,35 L21,32 L19,32 L19,30 L16,30 L16,26 L9,24 L9,26 L7,26 L6,29 L2,28 L0,27 Z " fill="#1A1213" transform="translate(0,0)"/>
<path d="M0,0 L3,1 L4,7 L7,7 L8,9 L11,10 L11,12 L14,12 L15,17 L17,17 L16,12 L26,8 L29,8 L30,14 L35,15 L31,19 L28,19 L29,21 L38,22 L38,18 L56,18 L56,21 L52,24 L38,26 L37,29 L28,29 L29,24 L27,24 L26,28 L15,26 L12,24 L12,22 L8,21 L8,19 L10,19 L10,17 L2,15 L-2,12 L-2,10 L-5,10 L-4,14 L-12,14 L-8,15 L-8,17 L6,19 L7,20 L7,26 L4,25 L7,29 L3,28 L0,26 L0,31 L15,33 L20,36 L25,37 L26,36 L17,33 L18,28 L21,29 L21,32 L27,34 L27,32 L33,33 L33,31 L35,31 L36,34 L48,37 L45,39 L38,39 L35,39 L35,40 L-22,40 L-22,8 L-19,8 L-19,10 L-16,8 L-15,4 L-10,4 L-7,7 L-6,9 L-4,9 L-5,3 L-1,3 Z " fill="#222A2D" transform="translate(22,44)"/>
<path d="M0,0 L4,1 L6,7 L9,6 L9,37 L-67,37 L-67,30 L-73,31 L-80,30 L-80,28 L-72,29 L-67,28 L-66,28 L-72,26 L-72,24 L-64,24 L-63,21 L-54,21 L-57,25 L-62,26 L-54,26 L-47,25 L-44,25 L-36,26 L-36,27 L-43,29 L-47,31 L-49,30 L-49,33 L-42,31 L-40,29 L-30,28 L-30,25 L-24,23 L-23,20 L-21,20 L-19,14 L-17,14 L-15,11 L-10,11 L-10,14 L-6,13 L-5,9 L-4,6 L-2,6 Z M4,7 Z " fill="#12171C" transform="translate(141,47)"/>
<path d="M0,0 L36,0 L36,10 L33,9 L33,11 L23,11 L21,17 L19,24 L20,27 L22,28 L22,30 L25,29 L28,34 L28,36 L31,37 L30,40 L28,40 L26,37 L24,39 L25,40 L22,43 L19,43 L20,35 L21,32 L19,32 L19,30 L16,30 L16,26 L9,24 L9,26 L7,26 L6,29 L2,28 L0,27 Z " fill="#030505" transform="translate(0,0)"/>
<path d="M0,0 L53,0 L54,4 L60,4 L60,11 L56,11 L56,13 L45,13 L45,15 L29,15 L23,13 L14,12 L12,11 L12,9 L10,7 L9,5 L0,4 Z " fill="#251310" transform="translate(60,0)"/>
<path d="M0,0 L5,0 L6,4 L11,4 L13,7 L18,8 L18,10 L21,11 L21,13 L33,13 L33,16 L24,17 L21,21 L13,23 L9,23 L9,25 L4,24 L1,22 L2,25 L8,30 L8,32 L2,32 L-1,25 L-1,21 L-4,21 L-5,24 L-7,24 L-6,11 L-3,3 L0,2 Z " fill="#32221B" transform="translate(50,13)"/>
<path d="M0,0 L5,1 L7,2 L7,6 L10,6 L10,8 L12,8 L10,20 L13,20 L13,26 L12,23 L9,24 L9,29 L4,27 L3,24 L-2,24 L-2,29 L-6,30 L-6,28 L-9,28 L-9,3 L-3,4 L-2,2 L0,2 Z " fill="#404A48" transform="translate(9,24)"/>
<path d="M0,0 L5,1 L5,4 L8,4 L8,9 L3,11 L3,17 L6,18 L8,13 L10,13 L11,9 L18,9 L17,15 L16,13 L14,13 L14,15 L12,16 L9,24 L8,31 L6,32 L5,41 L1,44 L0,37 L-3,35 L-3,33 L-7,33 L-6,27 L0,26 L-4,25 L-6,21 L-8,17 L-3,9 L-1,9 Z " fill="#0C0909" transform="translate(36,0)"/>
<path d="M0,0 L9,0 L6,4 L1,5 L9,5 L16,4 L19,4 L27,5 L27,6 L20,8 L16,10 L14,9 L14,12 L21,10 L23,8 L35,6 L33,10 L24,14 L18,14 L18,16 L-4,16 L-4,9 L-10,10 L-17,9 L-17,7 L-9,8 L-4,7 L-3,7 L-9,5 L-9,3 L-1,3 Z " fill="#4A4F56" transform="translate(78,68)"/>
<path d="M0,0 L24,0 L24,6 L21,7 L18,14 L14,15 L14,19 L11,19 L11,21 L13,21 L13,23 L7,22 L5,15 L0,15 Z " fill="#2E3A45" transform="translate(0,0)"/>
<path d="M0,0 L2,0 L1,8 L3,8 L3,6 L7,6 L8,2 L12,1 L19,2 L23,1 L23,14 L-5,14 L-9,10 L-15,9 L-11,6 L-9,6 L-9,4 L-3,3 L-3,1 Z " fill="#55606D" transform="translate(127,70)"/>
<path d="M0,0 L7,0 L8,5 L14,5 L15,9 L14,13 L18,11 L22,4 L24,3 L23,7 L22,9 L20,9 L19,13 L13,14 L13,17 L3,19 L-1,22 L-6,22 L-6,19 L-1,18 L1,16 L-3,14 L-4,15 L-11,16 L-20,16 L-19,14 L-14,14 L-14,12 L-9,14 L-8,9 L-17,9 L-17,7 L-2,6 L-1,5 L5,5 L5,2 L0,1 Z " fill="#170C0B" transform="translate(98,58)"/>
<path d="M0,0 L5,1 L5,8 L7,8 L7,10 L20,10 L20,6 L38,6 L38,9 L34,12 L20,14 L19,17 L10,17 L11,12 L9,12 L8,16 L-3,14 L-6,12 L-6,10 L-9,9 L-9,8 L-2,7 Z " fill="#373E48" transform="translate(40,56)"/>
<path d="M0,0 L3,0 L3,2 L-1,5 L-1,11 L-4,12 L-5,14 L-6,23 L-8,26 L0,27 L0,28 L-7,28 L-7,32 L-16,32 L-17,29 L-14,29 L-13,26 L-16,24 L-16,18 L-19,17 L-16,17 L-16,11 L-9,11 L-13,6 L-16,4 L-16,1 L-11,3 L-8,4 L-8,2 Z " fill="#15171C" transform="translate(67,34)"/>
<path d="M0,0 L3,1 L3,4 L9,6 L9,4 L15,5 L15,3 L17,3 L18,6 L30,9 L27,11 L20,11 L17,11 L17,12 L-10,12 L-21,7 L-23,3 L-20,3 L-20,6 L-18,6 L-18,4 L-7,4 L1,7 L7,9 L8,8 L-1,5 Z " fill="#51555A" transform="translate(40,72)"/>
<path d="M0,0 L9,0 L7,4 L6,8 L10,12 L9,14 L14,14 L13,16 L7,16 L6,22 L10,22 L11,27 L13,27 L12,35 L8,34 L7,28 L7,26 L4,23 L1,19 L-1,19 L-1,17 L-5,15 L-4,8 Z " fill="#24282B" transform="translate(23,11)"/>
<path d="M0,0 L3,0 L4,4 L8,4 L8,7 L14,7 L14,9 L28,11 L29,12 L29,18 L26,17 L29,21 L25,20 L22,18 L22,16 L20,16 L20,21 L16,20 L16,16 L11,15 L11,12 L8,12 L8,10 L4,10 L4,14 L8,16 L0,16 Z " fill="#586167" transform="translate(0,52)"/>
<path d="M0,0 L9,0 L14,1 L30,2 L30,7 L28,9 L20,12 L18,17 L7,17 L8,13 L-2,13 L-2,11 L9,11 L12,14 L18,15 L19,10 L22,9 L22,7 L6,6 L7,9 L0,9 L-1,4 Z " fill="#180709" transform="translate(75,13)"/>
<path d="M0,0 L4,1 L11,4 L11,7 L4,9 L-11,9 L-11,11 L-2,11 L-3,16 L-7,14 L-7,13 L-14,13 L-15,15 L-23,15 L-23,17 L-30,16 L-31,14 L-25,12 L-18,11 L-14,9 L-14,6 L-20,7 L-25,6 L-24,4 L-2,4 L-2,1 Z " fill="#261615" transform="translate(92,56)"/>
<path d="M0,0 L5,1 L7,12 L13,16 L13,21 L8,19 L7,16 L2,16 L2,21 L-2,22 L-2,20 L-5,20 L-5,9 L-3,9 L-2,2 L0,2 Z " fill="#060B09" transform="translate(5,32)"/>
<path d="M0,0 L3,0 L7,4 L15,7 L15,9 L13,9 L13,11 L15,11 L17,15 L21,17 L21,23 L5,22 L4,21 L4,14 L9,18 L10,17 L8,13 L11,15 L11,10 L-3,7 L-3,5 L-8,5 L-7,3 L1,4 Z " fill="#11161D" transform="translate(17,54)"/>
<path d="M0,0 L8,0 L8,5 L10,5 L10,7 L12,7 L12,9 L18,10 L22,14 L0,14 Z " fill="#5B6268" transform="translate(0,70)"/>
<path d="M0,0 L4,1 L6,7 L9,6 L9,19 L1,19 L-1,15 L-5,13 L-6,10 L-4,6 L-2,6 Z M4,7 Z " fill="#06080A" transform="translate(141,47)"/>
<path d="M0,0 L10,2 L10,3 L3,5 L-1,7 L-3,6 L-3,9 L4,7 L6,5 L18,3 L16,7 L7,11 L1,11 L1,13 L-11,13 L-10,10 L-17,9 L-17,7 L-5,7 L-5,3 L-8,2 L-1,1 Z " fill="#282B2E" transform="translate(95,71)"/>
<path d="M0,0 L3,0 L3,3 L8,4 L9,5 L15,5 L15,8 L11,9 L11,13 L8,13 L8,15 L10,15 L10,17 L4,16 L2,9 L-3,9 L-3,1 Z " fill="#352923" transform="translate(3,6)"/>
<path d="M0,0 L3,0 L4,6 L9,7 L5,11 L2,11 L3,14 L-1,14 L-1,12 L-3,12 L-4,5 L-8,4 L-8,10 L-12,12 L-18,13 L-18,11 L-16,11 L-16,9 L-18,8 L-16,8 L-15,4 L-12,4 L-11,9 L-9,9 L-10,4 Z " fill="#2B3038" transform="translate(48,52)"/>
<path d="M0,0 L18,0 L18,3 L14,6 L0,8 L-1,11 L-6,11 L-6,8 L-4,8 L-4,6 L-8,6 L-8,4 L0,4 Z " fill="#352B30" transform="translate(60,62)"/>
<path d="M0,0 L1,2 L4,3 L4,9 L3,10 L2,19 L-2,22 L-3,15 L-6,13 L-6,11 L-10,11 L-9,5 L0,4 Z " fill="#020306" transform="translate(39,22)"/>
<path d="M0,0 L5,1 L7,2 L7,6 L10,7 L3,7 L2,12 L0,9 L-4,8 L-4,10 L-6,10 L-7,17 L-9,17 L-9,3 L-3,4 L-2,2 L0,2 Z " fill="#182220" transform="translate(9,24)"/>
<path d="M0,0 L2,0 L1,8 L3,9 L1,12 L-1,12 L-1,14 L-5,14 L-9,10 L-15,9 L-11,6 L-9,6 L-9,4 L-3,3 L-3,1 Z " fill="#222931" transform="translate(127,70)"/>
<path d="M0,0 L17,0 L16,3 L13,5 L12,9 L6,9 L3,6 L-6,5 L-6,3 L0,2 Z " fill="#32170C" transform="translate(81,19)"/>
<path d="M0,0 L23,0 L24,2 L22,4 L22,7 L14,7 L9,5 L0,4 Z " fill="#341720" transform="translate(60,0)"/>
<path d="M0,0 L12,0 L12,2 L6,2 L6,5 L12,5 L12,9 L7,10 L6,13 L3,16 L2,18 L-2,17 L-1,11 L3,9 L4,4 L1,4 Z " fill="#2C2726" transform="translate(40,0)"/>
<path d="M0,0 L2,0 L5,3 L12,4 L16,5 L17,2 L19,2 L18,7 L22,8 L20,11 L17,10 L17,12 L10,10 L8,8 L8,7 L7,11 L16,13 L17,15 L14,16 L6,13 L5,10 L6,5 L1,3 Z " fill="#1C212B" transform="translate(32,66)"/>
<path d="M0,0 L7,1 L8,3 L3,3 L3,5 L12,5 L11,10 L7,8 L7,7 L0,7 L-1,9 L-9,9 L-9,11 L-16,10 L-17,8 L-11,6 L-4,5 L0,3 Z " fill="#362D2D" transform="translate(78,62)"/>
<path d="M0,0 L17,0 L17,6 L11,8 L10,10 L5,10 L3,8 L3,4 L9,4 L9,2 L1,2 Z " fill="#040101" transform="translate(92,0)"/>
<path d="M0,0 L2,0 L2,3 L7,1 L10,2 L4,9 L-1,11 L1,15 L3,16 L-2,17 L-3,20 L-5,20 L-4,7 L-3,5 L0,3 Z " fill="#40353C" transform="translate(48,17)"/>
<path d="M0,0 L6,0 L6,7 L2,7 L2,10 L6,11 L-4,13 L-8,16 L-13,16 L-13,13 L-8,12 L-3,9 L-2,4 L0,4 Z " fill="#191517" transform="translate(105,64)"/>
<path d="M0,0 L7,0 L7,4 L13,4 L16,6 L16,9 L10,12 L8,14 L4,10 L4,7 L0,8 L0,6 L4,6 L4,2 L0,2 Z " fill="#040302" transform="translate(53,0)"/>
<path d="M0,0 L5,1 L7,5 L6,14 L0,13 L0,11 L-4,9 L-4,5 L-2,4 Z " fill="#2D3736" transform="translate(22,17)"/>
<path d="M0,0 L5,2 L6,6 L14,7 L14,11 L8,10 L8,8 L3,8 L3,10 L-1,9 L-1,12 L-6,13 L-4,12 L-4,8 L-7,7 L-3,7 L-3,5 L-1,5 Z " fill="#3B4354" transform="translate(136,59)"/>
<path d="M0,0 L15,0 L15,6 L13,8 L6,9 L-3,9 L-2,7 L3,7 L3,5 L8,7 L9,2 L0,2 Z " fill="#1D0B09" transform="translate(81,65)"/>
<path d="M0,0 L8,1 L12,0 L12,7 L3,8 L-1,7 L-3,5 L-3,1 Z " fill="#515C69" transform="translate(138,71)"/>
<path d="M0,0 L3,0 L7,4 L12,6 L12,9 L5,9 L-3,7 L-3,5 L-8,5 L-7,3 L1,4 Z " fill="#0D1219" transform="translate(17,54)"/>
<path d="M0,0 L2,0 L0,4 L-9,8 L-15,8 L-15,10 L-19,10 L-19,7 L-12,4 L-10,2 Z " fill="#444F51" transform="translate(111,74)"/>
<path d="M0,0 L9,0 L14,1 L14,2 L9,3 L9,6 L6,6 L7,9 L0,9 L-1,4 Z " fill="#1E0A05" transform="translate(75,13)"/>
<path d="M0,0 L5,0 L5,2 L11,3 L6,7 L6,5 L-4,5 L-5,9 L-9,9 L-9,11 L-11,11 L-10,7 L-6,6 L-6,4 L-4,4 L-4,1 L0,2 Z " fill="#202638" transform="translate(139,67)"/>
<path d="M0,0 L5,0 L5,2 L19,4 L20,5 L20,11 L17,10 L20,14 L16,13 L13,11 L13,9 L11,8 L12,4 L4,3 Z " fill="#343D44" transform="translate(9,59)"/>
<path d="M0,0 L4,0 L5,6 L9,6 L9,10 L2,11 L-3,11 L-1,10 Z " fill="#341923" transform="translate(109,0)"/>
<path d="M0,0 L16,0 L15,4 L7,6 L2,6 L0,4 Z " fill="#4B261B" transform="translate(56,30)"/>
<path d="M0,0 L8,0 L8,5 L10,5 L10,7 L12,8 L0,8 Z " fill="#31393D" transform="translate(0,70)"/>
<path d="M0,0 L2,0 L7,5 L8,8 L3,7 L0,5 L1,8 L7,13 L7,15 L1,15 L-2,8 L-2,3 L0,3 Z " fill="#48332D" transform="translate(51,30)"/>
<path d="M0,0 L6,0 L5,3 L13,4 L13,5 L6,5 L6,9 L-3,9 L-4,6 L-1,6 L0,3 L2,2 Z " fill="#181518" transform="translate(54,57)"/>
<path d="M0,0 L16,0 L16,3 L13,5 L0,4 Z " fill="#4F363A" transform="translate(62,62)"/>
<path d="M0,0 L3,1 L4,7 L7,7 L8,9 L11,10 L10,16 L5,15 L5,10 L3,9 L3,7 L-1,8 Z " fill="#4E555C" transform="translate(22,44)"/>
<path d="M0,0 L9,0 L9,6 L6,7 L3,11 L3,7 L0,7 Z " fill="#2E2B2E" transform="translate(15,0)"/>
<path d="M0,0 L9,0 L6,4 L1,5 L4,7 L1,8 L-9,5 L-9,3 L-1,3 Z " fill="#513B40" transform="translate(78,68)"/>
<path d="M0,0 L4,1 L5,2 L5,7 L-1,8 L-2,13 L-6,13 L-5,9 L-4,6 L-2,6 Z " fill="#14151A" transform="translate(141,47)"/>
<path d="M0,0 L5,2 L6,3 L6,8 L1,6 L0,3 L-5,3 L-5,8 L-9,9 L-9,7 L-12,6 L-8,5 L-6,2 Z " fill="#151F1F" transform="translate(12,45)"/>
<path d="M0,0 L2,0 L3,5 L8,6 L4,10 L1,10 L2,13 L-2,12 L-2,6 L-3,2 L0,2 Z " fill="#32393F" transform="translate(49,53)"/>
<path d="M0,0 L5,0 L6,4 L10,5 L9,8 L7,8 L7,6 L0,7 L0,4 L-2,4 L-1,8 L-5,9 L-3,3 L0,2 Z " fill="#473E38" transform="translate(50,13)"/>
<path d="M0,0 L3,0 L3,2 L-3,5 L-8,6 L-9,8 L-13,6 L-16,4 L-16,1 L-11,3 L-8,4 L-8,2 Z " fill="#291816" transform="translate(67,34)"/>
<path d="M0,0 L8,1 L9,5 L7,5 L7,11 L3,10 L3,6 L-2,5 L-2,4 L3,4 L3,2 L0,2 Z " fill="#525D5D" transform="translate(13,62)"/>
<path d="M0,0 L6,0 L6,7 L2,7 L2,9 L-7,9 L-9,8 L-8,3 L-5,2 L-6,6 L4,6 L4,2 L0,2 Z " fill="#240C13" transform="translate(114,4)"/>
<path d="M0,0 L2,0 L2,5 L0,5 L0,7 L-3,7 L-3,5 L-7,5 L-8,9 L-10,9 L-15,9 L-11,6 L-9,6 L-9,4 L-3,3 L-3,1 Z " fill="#576270" transform="translate(127,70)"/>
<path d="M0,0 L9,0 L9,3 L5,4 L5,8 L-1,9 L-1,4 L1,4 Z " fill="#2F2A26" transform="translate(9,11)"/>
<path d="M0,0 L3,0 L3,3 L8,2 L8,4 L15,5 L15,7 L19,7 L19,9 L13,9 L2,4 Z " fill="#9FA5AB" transform="translate(17,75)"/>
<path d="M0,0 L7,1 L7,3 L11,3 L11,5 L9,5 L9,8 L5,8 L6,3 L4,3 L3,7 L1,7 L1,5 L3,5 L3,3 L-3,4 L-3,2 L0,2 Z " fill="#60666E" transform="translate(45,65)"/>
<path d="M0,0 L4,1 L4,7 L-9,6 L-9,4 L-2,4 L-2,1 Z " fill="#2F2827" transform="translate(92,56)"/>
<path d="M0,0 L15,0 L13,3 L8,4 L0,4 Z " fill="#070000" transform="translate(84,15)"/>
<path d="M0,0 L1,3 L-1,6 L-3,6 L-4,10 L-10,11 L-10,13 L-14,13 L-14,10 L-10,10 L-10,3 L-16,3 L-16,2 L-9,2 L-8,6 L-9,10 L-5,8 L-1,1 Z " fill="#0E0E13" transform="translate(121,61)"/>
<path d="M0,0 L2,0 L2,3 L7,1 L10,2 L5,7 L-1,9 L-3,10 L-3,5 L0,3 Z " fill="#5F5354" transform="translate(48,17)"/>
<path d="M0,0 L1,0 L1,7 L4,7 L3,12 L-2,12 L-4,10 L-8,8 L-3,6 L0,7 Z " fill="#585658" transform="translate(14,0)"/>
<path d="M0,0 L4,0 L5,3 L9,5 L9,8 L12,8 L12,10 L7,10 L7,8 L4,8 L4,5 L0,5 Z " fill="#6C757B" transform="translate(4,56)"/>
<path d="M0,0 L8,0 L7,3 L4,5 L3,9 L-2,8 L-2,5 L0,5 Z " fill="#332020" transform="translate(90,19)"/>
<path d="M0,0 L1,3 L7,4 L7,5 L2,6 L1,8 L-4,8 L-6,6 L-6,2 L0,2 Z " fill="#150302" transform="translate(101,2)"/>
<path d="M0,0 L7,1 L8,3 L3,3 L3,5 L12,5 L11,10 L7,8 L7,7 L1,6 L-3,4 L0,3 Z " fill="#403433" transform="translate(78,62)"/>
<path d="M0,0 L6,0 L3,8 L-2,8 L-3,2 Z " fill="#0D0101" transform="translate(98,64)"/>
<path d="M0,0 L2,0 L4,3 L9,4 L9,6 L12,7 L15,11 L10,11 L3,6 L0,2 Z " fill="#302622" transform="translate(59,17)"/>
<path d="M0,0 L7,0 L7,4 L13,4 L16,6 L16,9 L13,8 L14,6 L4,6 L4,2 L0,2 Z " fill="#150506" transform="translate(53,0)"/>
<path d="M0,0 L1,0 L1,6 L4,5 L5,10 L7,10 L6,15 L3,14 L0,10 Z " fill="#262629" transform="translate(42,31)"/>
<path d="M0,0 L7,1 L7,8 L1,7 L1,5 L-1,5 Z " fill="#4A5456" transform="translate(21,23)"/>
<path d="M0,0 L3,1 L3,4 L1,4 L1,9 L6,10 L6,12 L0,11 L-2,4 L-7,4 L-7,3 L-1,3 Z " fill="#1B1816" transform="translate(7,11)"/>
<path d="M0,0 L7,1 L7,4 L10,4 L12,2 L13,8 L9,9 L9,5 L7,5 L6,7 L4,6 L3,8 L2,5 L5,4 L-1,4 Z " fill="#2A313C" transform="translate(120,65)"/>
<path d="M0,0 L2,0 L1,5 L5,6 L3,9 L0,8 L0,10 L-7,8 L-9,6 L-1,6 Z " fill="#313840" transform="translate(49,68)"/>
<path d="M0,0 L5,0 L6,6 L8,6 L8,8 L1,7 L1,4 L-1,3 Z " fill="#626C6E" transform="translate(7,48)"/>
<path d="M0,0 L2,0 L3,5 L6,8 L5,10 L10,10 L9,12 L3,12 L2,15 L1,11 Z " fill="#1D1F24" transform="translate(27,15)"/>
<path d="M0,0 L1,0 L1,10 L-7,10 L-9,6 L-1,5 L-1,2 Z " fill="#2E2524" transform="translate(149,56)"/>
<path d="M0,0 L2,0 L0,5 L2,5 L2,7 L-2,6 L-2,9 L-7,10 L-5,9 L-5,5 L-8,4 L-4,4 L-4,2 Z " fill="#565D6B" transform="translate(137,62)"/>
<path d="M0,0 L7,0 L6,6 L5,4 L3,4 L3,6 L0,7 L-1,4 Z " fill="#081412" transform="translate(47,9)"/>
<path d="M0,0 L5,3 L5,5 L-6,5 L-7,2 Z " fill="#020405" transform="translate(117,79)"/>
<path d="M0,0 L5,0 L5,3 L2,6 L1,8 L-3,7 L-2,1 Z " fill="#181714" transform="translate(41,10)"/>
<path d="M0,0 L5,1 L5,8 L-1,7 Z " fill="#3E464D" transform="translate(40,56)"/>
<path d="M0,0 L8,0 L12,2 L21,4 L21,5 L14,5 L8,3 L0,2 Z " fill="#5D4E4A" transform="translate(75,10)"/>
<path d="M0,0 L5,3 L5,5 L-4,5 L-4,3 L-9,3 L-8,1 L0,2 Z " fill="#010307" transform="translate(18,56)"/>
<path d="M0,0 L6,2 L4,8 L-1,7 Z " fill="#080A0F" transform="translate(31,47)"/>
<path d="M0,0 L3,1 L1,1 L1,3 L-2,3 L0,8 L0,13 L-3,12 L-4,5 L-6,3 L-4,1 Z " fill="#272C33" transform="translate(48,52)"/>
<path d="M0,0 L3,0 L3,4 L-11,4 L-17,2 L-17,1 L-10,1 L-8,2 L-1,2 Z " fill="#19191E" transform="translate(68,80)"/>
<path d="M0,0 L4,1 L1,5 L4,5 L4,8 L-4,8 L-4,6 L-2,6 Z " fill="#505D69" transform="translate(130,76)"/>
<path d="M0,0 L8,0 L8,4 L0,5 L1,2 L-1,1 Z " fill="#48494E" transform="translate(82,74)"/>
<path d="M0,0 L8,6 L10,8 L1,8 L0,7 Z " fill="#06070A" transform="translate(21,68)"/>
<path d="M0,0 L3,3 L4,5 L3,10 L-2,10 L-2,4 L0,4 Z " fill="#283231" transform="translate(16,33)"/>
<path d="M0,0 L4,0 L6,6 L0,8 Z " fill="#050201" transform="translate(37,2)"/>
<path d="M0,0 L3,1 L4,5 L2,12 L0,12 Z " fill="#555F5F" transform="translate(0,29)"/>
<path d="M0,0 L9,1 L12,1 L10,3 L3,4 L-6,4 L-5,2 L0,2 Z " fill="#271012" transform="translate(84,70)"/>
<path d="M0,0 L3,0 L3,2 L5,2 L4,6 L3,6 L5,9 L1,8 L-1,7 Z " fill="#5F6770" transform="translate(24,64)"/>
<path d="M0,0 L8,1 L9,4 L12,5 L0,4 Z " fill="#654348" transform="translate(62,62)"/>
<path d="M0,0 L9,1 L7,2 L7,4 L4,4 L4,6 L0,6 Z " fill="#464E54" transform="translate(38,63)"/>
<path d="M0,0 L1,3 L3,4 L1,7 L-1,7 L-2,9 L-2,6 L-4,6 L-5,1 L0,2 Z " fill="#38424D" transform="translate(127,75)"/>
<path d="M0,0 L4,0 L4,3 L2,4 L2,6 L-3,6 L-4,4 L-2,1 Z " fill="#17171E" transform="translate(125,60)"/>
<path d="M0,0 L3,0 L3,5 L1,7 L-4,6 L-4,1 L-3,3 L0,3 Z " fill="#1E2328" transform="translate(55,52)"/>
<path d="M0,0 L5,0 L5,5 L-1,6 L-2,3 Z " fill="#261A22" transform="translate(59,39)"/>
<path d="M0,0 L4,0 L4,2 L8,2 L8,5 L0,5 Z " fill="#31282A" transform="translate(110,4)"/>
<path d="M0,0 L7,0 L7,4 L0,5 Z " fill="#626E79" transform="translate(0,0)"/>
<path d="M0,0 L7,0 L7,3 L11,5 L11,10 L10,8 L7,8 L6,2 L0,1 Z " fill="#20252B" transform="translate(19,43)"/>
<path d="M0,0 L3,0 L6,7 L6,10 L3,9 L3,7 L1,7 Z " fill="#1A0C0D" transform="translate(46,34)"/>
<path d="M0,0 L5,1 L6,4 L2,4 L0,4 L0,7 L-3,7 L-2,2 L0,2 Z " fill="#3A4343" transform="translate(9,24)"/>
<path d="M0,0 L12,5 L12,6 L4,6 L0,3 Z " fill="#1F232A" transform="translate(18,78)"/>
<path d="M0,0 L11,0 L13,2 L10,3 L3,3 Z " fill="#7B8288" transform="translate(57,80)"/>
<path d="M0,0 L1,3 L11,4 L11,6 L3,6 L1,7 L1,4 L-3,4 L-3,2 Z " fill="#404953" transform="translate(7,52)"/>
<path d="M0,0 L6,2 L6,8 L5,5 L-3,4 L-1,3 Z " fill="#3E4749" transform="translate(16,42)"/>
<path d="M0,0 L8,0 L9,3 L0,4 Z " fill="#510E0B" transform="translate(58,32)"/>
<path d="M0,0 L6,0 L6,1 L0,3 L-3,5 L-8,5 L-8,2 L-3,1 Z " fill="#070F0F" transform="translate(100,75)"/>
<path d="M0,0 L2,0 L0,4 L-1,5 L-9,5 L-9,3 Z " fill="#464E54" transform="translate(111,74)"/>
<path d="M0,0 L3,2 L3,4 L-5,5 L-5,7 L-7,7 L-7,5 L-11,4 L-1,2 Z " fill="#101015" transform="translate(60,70)"/>
<path d="M0,0 L11,1 L11,3 L0,3 Z " fill="#030507" transform="translate(0,81)"/>
<path d="M0,0 L6,0 L8,2 L7,6 L2,6 L2,3 L4,3 L4,1 Z " fill="#393D44" transform="translate(52,67)"/>
<path d="M0,0 L4,0 L4,6 L1,7 L-1,9 Z " fill="#211C1F" transform="translate(20,0)"/>
<path d="M0,0 L7,0 L5,1 L5,3 L-1,6 L-3,5 Z " fill="#242A35" transform="translate(113,73)"/>
<path d="M0,0 L3,0 L3,5 L-5,5 L-2,1 Z " fill="#444146" transform="translate(147,71)"/>
<path d="M0,0 L4,0 L4,2 L10,3 L5,7 L4,5 L0,3 Z " fill="#070507" transform="translate(140,67)"/>
<path d="M0,0 L4,0 L4,2 L7,2 L7,5 L0,4 Z " fill="#34403D" transform="translate(4,62)"/>
<path d="M0,0 L4,0 L4,5 L0,6 L-1,1 Z " fill="#222125" transform="translate(107,64)"/>
<path d="M0,0 L8,1 L6,5 L-2,5 L-2,4 L3,4 L3,2 L0,2 Z " fill="#677172" transform="translate(13,62)"/>
<path d="M0,0 L5,1 L12,5 L12,6 L7,6 L7,4 L4,4 L4,2 L0,2 Z " fill="#80868E" transform="translate(33,77)"/>
<path d="M0,0 L4,0 L4,3 L8,5 L0,5 Z " fill="#677170" transform="translate(0,63)"/>
<path d="M0,0 L7,2 L7,5 L0,5 Z " fill="#2E2220" transform="translate(96,58)"/>
<path d="M0,0 L6,0 L6,1 L1,1 L1,6 L-3,7 L-3,5 L-6,4 L-2,3 Z " fill="#293334" transform="translate(6,47)"/>
<path d="M0,0 L7,0 L7,4 L-1,4 Z " fill="#3D2A27" transform="translate(75,3)"/>
<path d="M0,0 L12,1 L12,2 L-1,4 Z " fill="#4C373A" transform="translate(62,66)"/>
<path d="M0,0 L4,2 L4,6 L6,7 L1,6 L-1,5 Z " fill="#1A1F28" transform="translate(23,53)"/>
<path d="M0,0 L3,1 L-2,6 L-5,6 L-4,2 Z " fill="#CBC1AD" transform="translate(55,18)"/>
<path d="M0,0 L3,1 L5,6 L1,7 L-1,4 Z " fill="#1F251D" transform="translate(55,9)"/>
<path d="M0,0 L2,1 L1,2 L-4,2 L-4,4 L0,5 L-4,6 L-9,5 L-5,1 Z " fill="#2F373C" transform="translate(106,75)"/>
<path d="M0,0 L8,0 L8,3 L0,3 Z " fill="#778181" transform="translate(0,70)"/>
<path d="M0,0 L3,1 L0,4 L-9,4 L-6,2 Z " fill="#251215" transform="translate(77,66)"/>
<path d="M0,0 L2,0 L2,3 L4,3 L3,12 L2,12 L1,6 L-1,5 Z " fill="#18111B" transform="translate(41,19)"/>
<path d="M0,0 L4,2 L3,7 L1,7 L1,5 L3,5 L3,3 L-3,4 L-3,2 L0,2 Z " fill="#788088" transform="translate(45,65)"/>
<path d="M0,0 L3,0 L3,2 L13,1 L14,3 L0,3 Z " fill="#24242C" transform="translate(37,81)"/>
<path d="M0,0 L2,0 L1,4 L-3,4 L-3,6 L-5,6 L-4,2 Z " fill="#0C131C" transform="translate(133,72)"/>
<path d="M0,0 L2,0 L4,4 L-5,4 L-5,2 Z " fill="#070A0D" transform="translate(56,62)"/>
<path d="M0,0 L6,0 L4,4 L4,7 L2,7 L1,2 L-2,1 Z " fill="#1A1E25" transform="translate(35,54)"/>
<path d="M0,0 L8,0 L7,3 L3,5 L3,2 L0,2 Z " fill="#26151B" transform="translate(90,19)"/>
<path d="M0,0 L8,3 L5,5 L-3,2 Z " fill="#1E2228" transform="translate(41,77)"/>
<path d="M0,0 L3,2 L5,0 L6,7 L2,6 L2,4 Z " fill="#2E353D" transform="translate(25,67)"/>
<path d="M0,0 L3,3 L4,8 L0,7 Z " fill="#525C5B" transform="translate(11,37)"/>
<path d="M0,0 L3,0 L3,2 L-3,5 L-5,5 L-4,1 Z " fill="#200B05" transform="translate(67,34)"/>
<path d="M0,0 L5,0 L7,3 L-2,3 L0,2 Z " fill="#858C91" transform="translate(15,81)"/>
<path d="M0,0 L9,0 L9,1 L2,3 L-3,3 L-3,1 Z " fill="#565557" transform="translate(96,73)"/>
<path d="M0,0 L8,0 L7,5 L3,3 Z " fill="#46282B" transform="translate(82,67)"/>
<path d="M0,0 L2,1 L2,5 L-4,3 L-5,1 Z " fill="#3E454E" transform="translate(36,63)"/>
<path d="M0,0 L4,0 L4,5 L0,5 Z " fill="#3D3230" transform="translate(92,58)"/>
<path d="M0,0 L3,1 L2,6 L-2,6 L-1,2 Z " fill="#192528" transform="translate(137,54)"/>
<path d="M0,0 L4,1 L1,5 L-3,5 L-1,1 Z " fill="#180302" transform="translate(74,29)"/>
<path d="M0,0 L6,0 L5,4 L0,3 Z " fill="#451712" transform="translate(66,30)"/>
<path d="M0,0 L4,0 L5,4 L1,4 L0,6 Z " fill="#1A191A" transform="translate(109,0)"/>
<path d="M0,0 L5,1 L5,4 L0,4 Z " fill="#222A32" transform="translate(135,80)"/>
<path d="M0,0 L1,0 L1,10 L0,7 L-3,7 L-1,2 Z " fill="#3D4652" transform="translate(134,74)"/>
<path d="M0,0 L6,1 L6,3 L-3,4 L-2,1 Z " fill="#78848F" transform="translate(144,75)"/>
<path d="M0,0 L3,1 L3,5 L-5,6 L-4,4 L-1,2 Z " fill="#2A2626" transform="translate(103,70)"/>
<path d="M0,0 L2,0 L1,6 L-2,6 L-3,2 L0,2 Z " fill="#353C42" transform="translate(49,53)"/>
<path d="M0,0 L2,0 L2,4 L5,3 L5,7 L1,6 Z " fill="#1D2129" transform="translate(30,39)"/>
<path d="M0,0 L2,0 L2,5 L-2,5 L-2,3 L-4,2 Z " fill="#2D3635" transform="translate(24,25)"/>
<path d="M0,0 L9,0 L9,2 L1,3 Z " fill="#360803" transform="translate(81,19)"/>
<path d="M0,0 L7,0 L8,3 L11,4 L6,4 L4,2 Z " fill="#564843" transform="translate(6,8)"/>
<path d="M0,0 L6,0 L6,5 L4,6 L4,2 L0,2 Z " fill="#1E1A1C" transform="translate(114,4)"/>
<path d="M0,0 L8,1 L9,4 L3,3 L3,1 Z " fill="#575F66" transform="translate(22,76)"/>
<path d="M0,0 L2,0 L2,5 L-1,5 L-6,5 L-2,2 L0,2 Z " fill="#515965" transform="translate(118,74)"/>
<path d="M0,0 L4,0 L4,2 L7,2 L7,4 L2,4 L2,2 L0,2 Z " fill="#9BA4A7" transform="translate(9,62)"/>
<path d="M0,0 L5,1 L5,6 L2,7 L3,1 Z " fill="#363C42" transform="translate(40,56)"/>
<path d="M0,0 L6,0 L7,3 L-1,2 L-1,5 L-3,4 L-2,1 Z " fill="#0C0B0F" transform="translate(91,55)"/>
<path d="M0,0 L8,0 L8,1 L1,3 L-3,2 Z " fill="#0E1315" transform="translate(109,79)"/>
<path d="M0,0 L7,0 L6,3 L0,2 Z " fill="#040808" transform="translate(0,74)"/>
<path d="M0,0 L4,0 L4,4 L-1,3 Z " fill="#6C4C4F" transform="translate(146,66)"/>
<path d="M0,0 L6,2 L6,4 L0,4 Z " fill="#6B5147" transform="translate(52,41)"/>
<path d="M0,0 L2,3 L3,8 L0,6 L0,4 L-2,4 L-2,2 L0,2 Z " fill="#3A2F2D" transform="translate(45,36)"/>
<path d="M0,0 L6,0 L6,3 L1,3 Z " fill="#451610" transform="translate(84,21)"/>
<path d="M0,0 L5,1 L5,3 L0,4 Z " fill="#424949" transform="translate(8,16)"/>
<path d="M0,0 L3,0 L2,5 L-1,5 Z " fill="#302B27" transform="translate(39,12)"/>
<path d="M0,0 L7,0 L7,3 L0,2 Z " fill="#2B2B2C" transform="translate(45,6)"/>
<path d="M0,0 L3,0 L3,7 L2,5 L0,5 Z " fill="#232A36" transform="translate(11,0)"/>
<path d="M0,0 L5,1 L7,2 L7,4 L1,3 Z " fill="#0A0D10" transform="translate(11,76)"/>
<path d="M0,0 L7,0 L7,2 L1,3 L-1,1 Z " fill="#6A5D62" transform="translate(82,74)"/>
<path d="M0,0 L6,2 L6,4 L1,4 Z " fill="#070A10" transform="translate(42,70)"/>
<path d="M0,0 L2,3 L2,8 L-1,7 L-1,1 Z " fill="#21272D" transform="translate(46,57)"/>
<path d="M0,0 L4,0 L3,4 L0,4 Z " fill="#555F5E" transform="translate(17,32)"/>
<path d="M0,0 L4,0 L4,5 L2,5 L-1,1 Z " fill="#211119" transform="translate(47,27)"/>
<path d="M0,0 L1,3 L6,4 L6,6 L0,5 Z " fill="#232627" transform="translate(7,17)"/>
<path d="M0,0 L1,0 L1,5 L3,5 L3,7 L-1,7 Z " fill="#4E5761" transform="translate(136,73)"/>
<path d="M0,0 L2,2 L1,5 L-3,5 L-3,1 Z " fill="#626D81" transform="translate(138,71)"/>
<path d="M0,0 L6,0 L6,2 L3,2 L3,4 L1,4 Z " fill="#596169" transform="translate(39,65)"/>
<path d="M0,0 L3,0 L2,4 L0,3 L0,5 L-2,4 Z " fill="#22252F" transform="translate(133,61)"/>
<path d="M0,0 L6,0 L6,2 L9,3 L3,3 L3,1 Z " fill="#77595D" transform="translate(65,64)"/>
<path d="M0,0 L8,1 L4,3 L-1,2 Z " fill="#141B22" transform="translate(10,57)"/>
<path d="M0,0 L2,1 L2,6 L-3,4 L0,3 Z " fill="#162021" transform="translate(16,47)"/>
<path d="M0,0 L4,2 L5,6 L0,3 Z " fill="#250E07" transform="translate(51,35)"/>
<path d="M0,0 L2,1 L0,5 L-3,6 L-2,2 Z " fill="#0C1815" transform="translate(24,29)"/>
<path d="M0,0 L9,1 L5,3 L0,2 Z " fill="#33221A" transform="translate(60,28)"/>
<path d="M0,0 L2,0 L3,4 L1,4 L0,7 L-2,6 Z " fill="#3B342D" transform="translate(53,13)"/>
<path d="M0,0 L4,0 L4,4 L0,4 Z " fill="#4C413B" transform="translate(0,10)"/>
<path d="M0,0 L3,0 L3,3 L-3,3 L-3,1 Z " fill="#0A0A09" transform="translate(3,6)"/>
<path d="M0,0 L3,0 L3,5 L0,6 Z " fill="#27313D" transform="translate(7,0)"/>
<path d="M0,0 L4,0 L3,4 L0,4 Z " fill="#364651" transform="translate(0,0)"/>
<path d="M0,0 L3,0 L3,3 L6,4 L3,5 L0,2 Z " fill="#5D666C" transform="translate(17,75)"/>
<path d="M0,0 L4,0 L4,4 L1,4 Z " fill="#020706" transform="translate(10,68)"/>
<path d="M0,0 L2,0 L2,2 L5,2 L5,4 L0,3 Z " fill="#828A92" transform="translate(10,52)"/>
<path d="M0,0 L3,0 L4,4 L0,4 Z " fill="#8A9298" transform="translate(0,52)"/>
<path d="M0,0 L3,1 L4,4 L1,4 L0,6 Z M-1,6 Z " fill="#464E54" transform="translate(22,44)"/>
<path d="M0,0 L3,1 L1,1 L2,5 L-2,6 Z " fill="#393231" transform="translate(47,16)"/>
<path d="M0,0 L4,0 L4,5 L0,2 Z " fill="#26130A" transform="translate(77,14)"/>
<path d="M0,0 L3,1 L3,4 L-1,4 Z " fill="#130905" transform="translate(7,11)"/>
<path d="M0,0 L6,0 L6,3 L2,2 Z " fill="#3E444C" transform="translate(27,76)"/>
<path d="M0,0 L3,0 L3,4 L-1,3 Z " fill="#656F70" transform="translate(17,69)"/>
<path d="M0,0 L6,0 L3,3 L0,3 Z " fill="#65484C" transform="translate(81,68)"/>
<path d="M0,0 L2,1 L2,4 L-2,4 Z " fill="#181917" transform="translate(146,58)"/>
<path d="M0,0 L5,2 L3,4 L0,4 Z " fill="#434F59" transform="translate(136,59)"/>
<path d="M0,0 L1,4 L-3,4 L-4,1 L-1,2 Z " fill="#251F1C" transform="translate(48,41)"/>
<path d="M0,0 L1,3 L-2,5 L-2,1 Z M-5,5 L-2,6 Z " fill="#0E1311" transform="translate(16,14)"/>
<path d="M0,0 L3,0 L3,2 L5,3 L1,4 Z " fill="#7D848C" transform="translate(22,77)"/>
<path d="M0,0 L1,3 L3,4 L-2,5 L-2,3 L0,3 Z " fill="#2B3743" transform="translate(127,75)"/>
<path d="M0,0 L4,0 L4,3 L0,3 Z " fill="#000001" transform="translate(107,71)"/>
<path d="M0,0 L3,0 L3,4 L0,4 Z " fill="#3A393E" transform="translate(107,66)"/>
<path d="M0,0 L4,0 L4,3 L0,3 Z " fill="#212D2B" transform="translate(4,62)"/>
<path d="M0,0 L6,1 L1,5 Z " fill="#293034" transform="translate(51,58)"/>
<path d="M0,0 L3,0 L3,3 L-2,4 Z " fill="#1D1E23" transform="translate(126,60)"/>
<path d="M0,0 L3,0 L3,3 L5,4 L0,3 Z " fill="#2C3139" transform="translate(24,56)"/>
<path d="M0,0 L4,1 L4,4 L0,3 Z " fill="#131317" transform="translate(141,47)"/>
<path d="M0,0 L5,1 L2,3 L-1,2 Z " fill="#4D545B" transform="translate(65,80)"/>
<path d="M0,0 L4,4 L0,3 L-2,1 Z " fill="#475059" transform="translate(25,69)"/>
<path d="M0,0 L3,0 L3,3 L-1,3 Z " fill="#251B16" transform="translate(100,60)"/>
<path d="M0,0 L6,0 L2,3 L0,3 Z " fill="#671111" transform="translate(60,32)"/>
<path d="M0,0 L4,1 L4,3 L0,3 Z " fill="#1A2025" transform="translate(0,81)"/>
<path d="M0,0 L4,1 L4,3 L0,2 Z " fill="#687173" transform="translate(49,76)"/>
<path d="M0,0 L2,0 L3,4 L0,4 Z " fill="#343C46" transform="translate(0,56)"/>
<path d="M0,0 L3,1 L3,4 L0,3 Z " fill="#170502" transform="translate(49,40)"/>
<path d="M0,0 L2,3 L2,5 L-1,5 Z " fill="#283432" transform="translate(7,26)"/>
<path d="M0,0 L4,2 L0,3 Z " fill="#666D76" transform="translate(18,81)"/>
<path d="M0,0 L4,1 L0,3 Z " fill="#6F7984" transform="translate(130,76)"/>
<path d="M0,0 L3,0 L3,3 L0,3 Z " fill="#7D848D" transform="translate(50,70)"/>
<path d="M0,0 L3,0 L3,3 L0,3 Z " fill="#020307" transform="translate(128,63)"/>
<path d="M0,0 L2,0 L3,3 L0,4 Z " fill="#7B848B" transform="translate(4,56)"/>
<path d="M0,0 L1,4 L-2,3 L-2,1 Z " fill="#252528" transform="translate(143,49)"/>
<path d="M0,0 L3,0 L3,3 L0,3 Z " fill="#675758" transform="translate(46,30)"/>
<path d="M0,0 L2,2 L0,4 L0,2 L-3,1 Z " fill="#372C2D" transform="translate(144,65)"/>
<path d="M0,0 L2,0 L2,3 L-1,3 Z " fill="#06110F" transform="translate(14,47)"/>
<path d="M0,0 L2,0 L2,3 L-1,3 Z " fill="#3A2A27" transform="translate(55,2)"/>
<path d="M0,0 L2,2 L0,3 L-3,1 Z " fill="#434953" transform="translate(41,77)"/>
<path d="M0,0 L2,0 L1,3 L-1,3 Z " fill="#4A525A" transform="translate(111,74)"/>
<path d="M0,0 L2,0 L0,4 L-1,1 Z " fill="#0A121D" transform="translate(133,72)"/>
<path d="M0,0 L3,1 L2,3 L0,3 Z " fill="#3E424A" transform="translate(54,70)"/>
<path d="M0,0 L2,0 L1,3 L-1,3 Z " fill="#838996" transform="translate(137,62)"/>
<path d="M0,0 L3,1 L2,3 L0,3 Z " fill="#667070" transform="translate(0,29)"/>
<path d="M0,0 L3,1 L3,3 L0,2 Z " fill="#09070B" transform="translate(69,9)"/>
<path d="M0,0 L2,2 L-1,3 Z " fill="#090D0D" transform="translate(6,21)"/>
</svg>
