<svg width="72" height="72" viewBox="0 0 72 72" fill="none" xmlns="http://www.w3.org/2000/svg">
<path d="M45.8554 14.3999V18.3149H49.7704V22.2299H53.6854V26.1449H57.6004V45.8549H53.6854V49.7699H49.7704V53.6849H45.8554V49.7699H49.7704V45.8549H53.6854V41.9399V30.0599V26.1449H49.7704V22.2299H45.8554V18.3149H41.9404H38.0254H30.0604H26.1454V22.2299H22.2304V26.1449H18.3154V30.0599V38.0249V41.9399V45.8549H22.2304V49.7699H26.1454V53.6849H30.0604H41.9404H45.8554V57.5999H26.1454V53.6849H22.2304V49.7699H18.3154V45.8549H14.4004V26.1449H18.3154V22.2299H22.2304V18.3149H26.1454V14.3999H45.8554Z" fill="#0D0D0D"/>
<path d="M41.9404 18.3149V22.2299H49.7704V26.1449V30.0599H53.6854V41.9399H49.7704V49.7699H41.9404V53.6849H30.0604V49.7699H22.2304V45.8549V41.9399H18.3154V38.0249L22.2304 38.0249V41.9399C23.5399 41.9399 24.8494 41.9399 26.1454 41.9399C26.1454 43.2494 26.1454 44.5589 26.1454 45.8549C27.4549 45.8549 28.7644 45.8549 30.0604 45.8549C30.0604 47.1644 30.0604 48.4604 30.0604 49.7699H41.9404C41.9404 48.4604 41.9404 47.1509 41.9404 45.8549C43.2499 45.8549 44.5594 45.8549 45.8554 45.8549C45.8554 44.5454 45.8554 43.2359 45.8554 41.9399C47.1649 41.9399 48.4609 41.9399 49.7704 41.9399V30.0599C48.4609 30.0599 47.1514 30.0599 45.8554 30.0599C45.8554 28.7504 45.8554 27.4409 45.8554 26.1449C44.5459 26.1449 43.2364 26.1449 41.9404 26.1449C41.9404 24.8354 41.9404 23.5394 41.9404 22.2299H38.0254L38.0254 18.3149H41.9404Z" fill="#D3CD9C"/>
<path d="M53.6854 26.1449H49.7704V30.0599H53.6854V26.1449Z" fill="#857E46"/>
<path d="M53.6854 41.9399H49.7704V45.8549H53.6854V41.9399Z" fill="#857E46"/>
<path d="M30.0604 49.7699H26.1454V53.6849H30.0604V49.7699Z" fill="#857E46"/>
<path d="M45.8554 49.7699H41.9404V53.6849H45.8554V49.7699Z" fill="#857E46"/>
<path d="M38.0254 18.3149H30.0604V22.2299H38.0254L38.0254 18.3149Z" fill="#EBEDD2"/>
<path d="M45.8554 18.3149H41.9404V22.2299H45.8554V18.3149Z" fill="#857E46"/>
<path d="M30.0604 18.3149H26.1454V22.2299H30.0604V18.3149Z" fill="#857E46"/>
<path d="M22.2304 30.0599H18.3154V38.0249L22.2304 38.0249V30.0599Z" fill="#EBEDD2"/>
<path d="M22.2304 26.1449H18.3154V30.0599H22.2304V26.1449Z" fill="#857E46"/>
<path d="M22.2304 41.9399H18.3154V45.8549H22.2304V41.9399Z" fill="#857E46"/>
<path d="M26.1454 22.2299V26.1449H22.2304V22.2299H26.1454Z" fill="#D3CD9C"/>
<path d="M49.7704 30.0599V41.9399C48.4609 41.9399 47.1514 41.9399 45.8554 41.9399C45.8554 43.2494 45.8554 44.5589 45.8554 45.8549C44.5459 45.8549 43.2364 45.8549 41.9404 45.8549C41.9404 47.1644 41.9404 48.4604 41.9404 49.7699H33.9754V45.8549C36.6214 45.8549 39.2944 45.8549 41.9404 45.8549C41.9404 44.5454 41.9404 43.2359 41.9404 41.9399C43.2499 41.9399 44.5594 41.9399 45.8554 41.9399C45.8554 40.6304 45.8554 39.3344 45.8554 38.0249C45.8554 36.7154 45.8554 35.3249 45.8554 33.9749C45.8554 32.6249 45.8554 31.3694 45.8554 30.0599C47.1649 30.0599 48.4609 30.0599 49.7704 30.0599Z" fill="#0094B5"/>
<path d="M33.9754 22.2299V26.1449H30.0604C30.0604 24.8354 30.0604 23.5394 30.0604 22.2299H33.9754Z" fill="#007FCB"/>
<path d="M30.0604 26.1449C30.0604 27.4544 30.0604 28.7504 30.0604 30.0599H26.1454C26.1454 31.3694 26.1454 32.6654 26.1454 33.9749C26.1454 36.6344 26.1454 39.2939 26.1454 41.9399C27.4549 41.9399 28.7644 41.9399 30.0604 41.9399C30.0604 43.2494 30.0604 44.5589 30.0604 45.8549C31.3699 45.8549 32.6659 45.8549 33.9754 45.8549V49.7699H30.0604C30.0604 48.4604 30.0604 47.1509 30.0604 45.8549C28.7509 45.8549 27.4414 45.8549 26.1454 45.8549C26.1454 44.5454 26.1454 43.2359 26.1454 41.9399C24.8359 41.9399 23.5399 41.9399 22.2304 41.9399V30.0599H26.1454C26.1454 28.7504 26.1454 27.4544 26.1454 26.1449H30.0604Z" fill="#007FCB"/>
<path d="M38.0254 22.2299C38.0254 23.5394 38.0254 24.8489 38.0254 26.1449C38.0254 28.7504 38.0254 31.3694 38.0254 33.9749C39.3349 33.9749 40.6444 33.9749 41.9404 33.9749V38.0249C39.2809 38.0249 36.6214 38.0249 33.9754 38.0249C33.9754 35.3654 33.9754 32.7059 33.9754 30.0599C33.9754 27.4139 33.9754 27.4544 33.9754 26.1449V22.2299H38.0254Z" fill="#2C2111"/>
<path d="M41.9404 22.2299C41.9404 23.5394 41.9404 24.8489 41.9404 26.1449C43.2499 26.1449 44.5594 26.1449 45.8554 26.1449C45.8554 27.4544 45.8554 28.7639 45.8554 30.0599C44.5459 30.0599 43.2364 30.0599 41.9404 30.0599C41.9404 28.7504 41.9404 27.4409 41.9404 26.1449H38.0254C38.0254 24.8354 38.0254 23.5394 38.0254 22.2299H41.9404Z" fill="#007FCB"/>
<path d="M33.9754 26.1449C33.9754 27.4544 33.9754 28.7504 33.9754 30.0599H30.0604C30.0604 28.7504 30.0604 27.4544 30.0604 26.1449H33.9754Z" fill="#FEFEFE"/>
<path d="M30.0604 22.2299C30.0604 23.5394 30.0604 24.8489 30.0604 26.1449H26.1454C26.1454 27.4544 26.1454 28.7504 26.1454 30.0599H22.2304V26.1449H26.1454V22.2299H30.0604Z" fill="#FEFEFE"/>
<path d="M33.9754 30.0599C33.9754 32.7194 33.9754 35.3789 33.9754 38.0249C36.6349 38.0249 39.2944 38.0249 41.9404 38.0249H45.8554C45.8554 39.3344 45.8554 40.6304 45.8554 41.9399C44.5459 41.9399 43.2364 41.9399 41.9404 41.9399C41.9404 43.2494 41.9404 44.5589 41.9404 45.8549C39.2944 45.8549 36.6214 45.8549 33.9754 45.8549C31.3294 45.8549 31.3699 45.8549 30.0604 45.8549C30.0604 44.5454 30.0604 43.2359 30.0604 41.9399C28.7509 41.9399 27.4414 41.9399 26.1454 41.9399C26.1454 39.2939 26.1454 36.6344 26.1454 33.9749H30.0604C30.0604 32.6789 30.0604 31.3694 30.0604 30.0599H33.9754Z" fill="#72C6FE"/>
<path d="M41.9404 26.1449C41.9404 27.4544 41.9404 28.7639 41.9404 30.0599C43.2499 30.0599 44.5594 30.0599 45.8554 30.0599C45.8554 31.3694 45.8554 32.6654 45.8554 33.9749H41.9404C40.6309 33.9749 39.3214 33.9749 38.0254 33.9749C38.0254 31.3694 38.0254 28.7504 38.0254 26.1449H41.9404Z" fill="#72C6FE"/>
<path d="M45.8554 33.9749C45.8554 35.3249 45.8554 36.6749 45.8554 38.0249H41.9404V33.9749H45.8554Z" fill="#746442"/>
<path d="M30.0604 30.0599C30.0604 31.3694 30.0604 32.6789 30.0604 33.9749H26.1454C26.1454 32.6654 26.1454 31.3559 26.1454 30.0599H30.0604Z" fill="#C1DBFE"/>
</svg>
