<?xml version="1.0" encoding="UTF-8"?>
<!-- Generator: visioncortex VTracer 0.6.5 -->
<svg version="1.1" xmlns="http://www.w3.org/2000/svg" width="120" height="120">
<path d="M0,0 L120,0 L120,120 L0,120 Z " fill="#000000" transform="translate(0,0)"/>
<path d="M0,0 L18,0 L30,4 L30,6 L34,8 L36,12 L35,17 L31,21 L30,34 L27,41 L29,41 L29,43 L32,43 L32,45 L35,46 L46,46 L47,39 L48,38 L73,38 L73,40 L48,40 L48,58 L46,58 L48,68 L52,71 L52,73 L48,74 L47,76 L56,77 L56,79 L47,79 L48,82 L50,83 L51,90 L56,92 L56,89 L62,88 L63,89 L64,101 L45,102 L5,103 L4,108 L2,104 L4,97 L8,98 L30,98 L31,95 L33,94 L34,90 L46,90 L46,84 L32,84 L36,82 L37,74 L37,67 L35,67 L36,61 L32,59 L31,62 L26,67 L23,71 L24,76 L20,80 L22,84 L17,84 L17,77 L9,76 L6,69 L1,69 L-4,63 L-5,59 L-7,58 L-8,63 L-12,62 L-9,60 L-10,53 L-11,51 L-10,42 L-13,42 L-13,40 L-8,40 L-8,38 L-11,37 L-13,31 L-13,22 L-11,22 L-16,15 L-16,9 L-11,5 L-2,1 Z " fill="#010004" transform="translate(47,3)"/>
<path d="M0,0 L120,0 L120,41 L95,42 L94,49 L93,50 L82,50 L79,48 L79,46 L76,46 L76,44 L74,44 L75,39 L76,33 L77,24 L82,18 L81,12 L77,9 L77,7 L72,6 L65,4 L47,4 L38,8 L32,12 L32,18 L36,23 L36,25 L34,25 L36,37 L37,40 L39,41 L39,43 L29,44 L29,46 L24,49 L7,50 L6,53 L3,53 L3,58 L0,58 Z " fill="#320011" transform="translate(0,0)"/>
<path d="M0,0 L2,1 L2,7 L6,11 L6,13 L9,12 L11,18 L14,20 L24,20 L27,17 L32,8 L33,4 L39,5 L39,7 L42,8 L53,8 L54,1 L55,0 L80,0 L80,2 L55,2 L55,20 L53,20 L55,30 L59,33 L59,35 L55,36 L54,38 L63,39 L63,41 L54,41 L55,44 L57,45 L58,52 L63,54 L63,51 L69,50 L70,51 L71,63 L52,64 L12,65 L11,70 L9,66 L11,59 L15,60 L37,60 L38,57 L40,56 L41,52 L53,52 L53,46 L39,46 L43,44 L44,36 L44,29 L42,29 L43,23 L39,21 L38,24 L33,29 L30,33 L31,38 L27,42 L29,46 L24,46 L24,39 L16,38 L13,31 L8,31 L3,25 L2,21 L0,20 L-1,25 L-5,24 L-2,22 L-3,15 L-4,13 L-3,4 L-6,4 L-6,2 L0,2 Z " fill="#000000" transform="translate(40,41)"/>
<path d="M0,0 L25,0 L25,69 L-44,69 L-44,63 L-43,62 L-3,61 L15,60 L14,49 L8,49 L8,52 L2,50 L2,43 L-1,42 L-1,39 L8,39 L8,37 L-1,36 L0,33 L4,33 L-1,28 L-2,18 L0,18 Z " fill="#0F0009" transform="translate(95,43)"/>
<path d="M0,0 L5,2 L3,8 L5,8 L6,17 L5,23 L4,24 L14,25 L14,31 L2,32 L2,36 L-1,37 L-2,39 L-11,40 L-24,40 L-28,38 L-29,44 L-31,47 L-34,45 L-34,50 L-38,50 L-39,45 L-40,47 L-39,51 L-44,51 L-44,45 L-50,45 L-49,40 L-66,39 L-70,37 L-73,34 L-73,32 L-64,29 L-53,30 L-45,33 L-36,36 L-30,40 L-30,32 L-37,32 L-37,28 L-31,28 L-31,15 L-27,9 L-23,13 L-23,17 L-15,18 L-15,25 L-11,23 L-13,21 L-9,17 L-10,11 L-8,11 L-6,7 Z " fill="#100109" transform="translate(79,62)"/>
<path d="M0,0 L24,0 L24,30 L13,30 L9,26 L0,25 Z " fill="#DDAA99" transform="translate(96,43)"/>
<path d="M0,0 L5,0 L5,4 L2,4 L2,7 L7,4 L9,4 L10,0 L14,1 L14,3 L17,4 L20,7 L20,4 L18,4 L18,1 L22,1 L23,4 L24,2 L26,2 L27,8 L26,10 L20,12 L18,9 L15,15 L13,15 L14,11 L16,11 L13,5 L11,5 L10,11 L12,12 L12,15 L7,14 L5,18 L4,24 L7,27 L9,27 L7,22 L15,22 L15,26 L19,25 L20,29 L16,33 L6,33 L2,30 L0,25 L-2,25 L-5,19 L-4,15 L-1,17 L-2,10 L-6,8 L-8,4 L-7,1 L-1,1 Z " fill="#110D11" transform="translate(48,29)"/>
<path d="M0,0 L18,0 L30,4 L32,10 L34,11 L33,16 L29,14 L29,12 L26,14 L18,14 L15,11 L16,8 L11,6 L7,8 L8,12 L4,14 L-3,14 L-5,14 L-12,15 L-15,12 L-13,6 L-8,3 Z " fill="#100310" transform="translate(47,3)"/>
<path d="M0,0 L68,0 L68,7 L-1,7 L-1,1 Z " fill="#22110D" transform="translate(52,105)"/>
<path d="M0,0 L3,1 L5,4 L5,7 L3,8 L2,11 L4,11 L6,4 L10,7 L14,6 L12,10 L10,11 L14,12 L13,17 L10,23 L8,23 L8,21 L3,23 L4,18 L-3,19 L-2,23 L-5,24 L-5,21 L-8,20 L-6,11 L-4,9 L1,11 L1,8 L-2,7 L-1,1 Z " fill="#110511" transform="translate(59,33)"/>
<path d="M0,0 L22,0 L22,16 L3,16 L3,12 L21,12 L21,10 L11,10 L11,9 L0,8 Z " fill="#DDAA99" transform="translate(96,45)"/>
<path d="M0,0 L1,0 L1,25 L10,25 L14,28 L14,30 L25,30 L25,31 L16,31 L16,33 L5,31 L5,33 L14,35 L17,34 L14,43 L12,43 L12,45 L0,43 L-1,39 L8,39 L8,37 L-1,36 L0,33 L4,33 L-1,28 L-2,18 L0,18 Z " fill="#110F11" transform="translate(95,43)"/>
<path d="M0,0 L5,0 L6,4 L8,8 L10,14 L9,16 L7,16 L6,23 L1,26 L-3,25 L-3,18 L-5,16 L-5,11 L-3,8 L-2,4 L0,4 L-1,1 Z " fill="#110611" transform="translate(12,63)"/>
<path d="M0,0 L5,0 L5,4 L2,4 L2,7 L7,4 L9,4 L10,0 L14,1 L14,3 L17,4 L20,7 L20,4 L18,4 L18,1 L22,1 L23,4 L24,2 L26,2 L27,8 L26,10 L20,12 L18,9 L15,15 L13,15 L14,11 L16,11 L13,5 L11,5 L10,11 L12,12 L12,15 L8,15 L8,12 L6,12 L5,10 L1,11 L-6,6 L-5,1 Z " fill="#1A202A" transform="translate(48,29)"/>
<path d="M0,0 L7,0 L7,29 L0,29 L0,21 L-2,15 L-1,8 Z " fill="#300011" transform="translate(113,75)"/>
<path d="M0,0 L5,3 L8,6 L16,7 L21,13 L10,15 L6,14 L0,14 L-2,9 L-4,9 L-5,2 Z " fill="#110011" transform="translate(26,61)"/>
<path d="M0,0 L8,1 L8,10 L10,14 L9,21 L4,19 L1,16 L-2,10 L-2,8 L-5,7 L-17,6 L-17,5 L-5,4 L0,2 Z " fill="#0C0000" transform="translate(29,44)"/>
<path d="M0,0 L24,0 L29,6 L-2,6 L-1,1 Z " fill="#110000" transform="translate(3,114)"/>
<path d="M0,0 L4,4 L4,8 L12,9 L12,16 L1,16 L-4,15 L-4,6 Z " fill="#100011" transform="translate(52,71)"/>
<path d="M0,0 L9,0 L9,7 L-17,7 L-16,2 L-14,1 Z " fill="#110000" transform="translate(111,113)"/>
<path d="M0,0 L3,0 L5,3 L18,3 L32,5 L34,7 L0,7 Z " fill="#110000" transform="translate(0,105)"/>
<path d="M0,0 L13,0 L13,7 L12,8 L1,8 Z " fill="#332212" transform="translate(54,94)"/>
<path d="M0,0 L4,2 L4,4 L6,4 L6,6 L11,8 L14,11 L10,18 L6,16 L3,12 L2,5 Z " fill="#110411" transform="translate(40,54)"/>
<path d="M0,0 L1,4 L2,3 L3,7 L9,6 L11,6 L12,3 L14,10 L13,14 L13,12 L8,14 L9,9 L2,10 L3,14 L0,15 L0,12 L-3,11 L-1,2 Z " fill="#0A0000" transform="translate(54,42)"/>
<path d="M0,0 L2,4 L1,6 L-1,5 L-1,7 L1,8 L-1,13 L-4,17 L-8,16 L-10,10 L-8,10 L-7,7 L-3,6 L-1,1 Z " fill="#100011" transform="translate(73,54)"/>
<path d="M0,0 L3,0 L3,2 L5,2 L5,5 L9,3 L12,6 L13,13 L11,15 L6,12 L1,4 Z " fill="#250000" transform="translate(26,50)"/>
<path d="M0,0 L1,0 L1,25 L10,25 L14,29 L8,30 L-1,28 L-2,18 L0,18 Z " fill="#110000" transform="translate(95,43)"/>
<path d="M0,0 L2,4 L69,5 L69,6 L0,6 Z " fill="#11110D" transform="translate(51,106)"/>
<path d="M0,0 L14,0 L15,3 L21,4 L19,7 L15,7 L15,5 L7,5 L-1,2 Z " fill="#111111" transform="translate(11,93)"/>
<path d="M0,0 L18,0 L18,4 L0,4 Z " fill="#664444" transform="translate(99,57)"/>
<path d="M0,0 L24,0 L24,30 L13,30 L13,29 L23,29 L23,1 L0,1 Z " fill="#AA6666" transform="translate(96,43)"/>
<path d="M0,0 L5,0 L5,5 L-4,5 L-13,4 L-13,1 L-5,1 Z M-3,2 Z M-4,3 Z " fill="#221109" transform="translate(115,106)"/>
<path d="M0,0 L1,0 L1,5 L12,5 L12,6 L20,7 L20,8 L1,8 L1,13 L-1,13 L-1,5 Z " fill="#E7AA99" transform="translate(97,48)"/>
<path d="M0,0 L19,0 L18,3 L-1,3 Z " fill="#221111" transform="translate(5,117)"/>
<path d="M0,0 L25,0 L25,2 L0,2 L0,8 L-1,8 L-1,1 Z " fill="#110011" transform="translate(95,41)"/>
<path d="M0,0 L18,0 L30,4 L30,6 L25,5 L17,2 L1,2 L-4,5 L-9,5 L-8,3 Z " fill="#150003" transform="translate(47,3)"/>
<path d="M0,0 L27,0 L27,2 L0,2 Z " fill="#110000" transform="translate(36,118)"/>
<path d="M0,0 L3,0 L5,3 L12,4 L12,7 L0,7 Z " fill="#111100" transform="translate(0,105)"/>
<path d="M0,0 L23,0 L23,24 L22,24 L22,1 L0,1 Z " fill="#EEAA99" transform="translate(96,44)"/>
<path d="M0,0 L9,0 L9,5 L0,5 Z " fill="#221111" transform="translate(56,94)"/>
<path d="M0,0 L4,2 L4,5 L-5,7 L-4,2 Z " fill="#110011" transform="translate(22,54)"/>
<path d="M0,0 L12,0 L13,3 L-4,3 L0,2 Z " fill="#221111" transform="translate(101,117)"/>
<path d="M0,0 L1,4 L-1,4 L-1,6 L1,6 L0,11 L-7,13 L-4,8 L-3,3 L-1,3 Z " fill="#000011" transform="translate(22,76)"/>
<path d="M0,0 L4,2 L4,7 L4,9 L3,13 L0,11 Z " fill="#110812" transform="translate(35,26)"/>
<path d="M0,0 L38,0 L38,1 L0,1 Z " fill="#110000" transform="translate(52,104)"/>
<path d="M0,0 L8,0 L7,6 L2,6 Z " fill="#110000" transform="translate(55,51)"/>
<path d="M0,0 L4,1 L4,3 L6,3 L6,10 L3,7 L2,4 L2,9 L-1,7 L-1,1 Z " fill="#11000D" transform="translate(42,41)"/>
<path d="M0,0 L9,0 L9,4 L1,5 Z " fill="#221F22" transform="translate(55,56)"/>
<path d="M0,0 L4,1 L4,4 L5,5 L7,5 L6,8 L0,8 Z " fill="#110011" transform="translate(56,66)"/>
<path d="M0,0 L8,0 L11,3 L3,4 L-2,3 Z " fill="#101111" transform="translate(50,18)"/>
<path d="M0,0 L33,0 L33,1 L0,1 Z " fill="#331B11" transform="translate(53,105)"/>
<path d="M0,0 L21,0 L21,1 L3,2 L2,4 L-1,3 Z " fill="#111100" transform="translate(2,116)"/>
<path d="M0,0 L10,0 L10,3 L0,3 Z " fill="#664444" transform="translate(99,49)"/>
<path d="M0,0 L10,0 L12,3 L6,4 L-1,2 Z " fill="#22222D" transform="translate(97,69)"/>
<path d="M0,0 L3,1 L4,6 L-2,7 L-1,1 Z " fill="#000000" transform="translate(59,33)"/>
<path d="M0,0 L7,0 L12,1 L8,3 L3,4 L0,3 Z " fill="#000011" transform="translate(12,100)"/>
<path d="M0,0 L25,0 L25,1 L0,1 Z " fill="#331C11" transform="translate(95,105)"/>
<path d="M0,0 L11,0 L11,1 L1,1 L1,4 L11,4 L11,5 L0,5 Z " fill="#BB8877" transform="translate(98,48)"/>
<path d="M0,0 L1,0 L1,25 L0,25 Z " fill="#553333" transform="translate(95,43)"/>
<path d="M0,0 L1,0 L1,14 L-10,14 L-10,13 L0,13 Z " fill="#AA7777" transform="translate(119,59)"/>
<path d="M0,0 L13,0 L16,1 L16,4 L13,4 L12,2 L0,1 Z " fill="#111100" transform="translate(101,116)"/>
<path d="M0,0 L19,0 L19,1 L1,1 L0,5 Z " fill="#CC8888" transform="translate(98,56)"/>
<path d="M0,0 L1,4 L-17,4 L-17,3 L0,3 Z " fill="#886655" transform="translate(116,57)"/>
<path d="M0,0 L5,0 L5,4 L0,3 Z " fill="#66B2C3" transform="translate(48,29)"/>
<path d="M0,0 L3,0 L3,3 L5,3 L4,6 L-1,5 Z " fill="#151511" transform="translate(55,43)"/>
<path d="M0,0 L3,0 L2,2 L-2,8 L-3,4 Z " fill="#111622" transform="translate(53,41)"/>
<path d="M0,0 L5,1 L7,5 L3,5 L2,3 L-1,3 Z " fill="#111515" transform="translate(59,31)"/>
<path d="M0,0 L3,0 L4,3 L3,6 L0,5 Z " fill="#221111" transform="translate(0,105)"/>
<path d="M0,0 L2,0 L2,2 L5,3 L4,6 L1,5 Z " fill="#000000" transform="translate(45,30)"/>
<path d="M0,0 L3,1 L3,5 L-2,5 L0,4 Z " fill="#110000" transform="translate(68,74)"/>
<path d="M0,0 L1,0 L1,16 L0,16 Z " fill="#885555" transform="translate(119,43)"/>
<path d="M0,0 L1,3 L-1,4 L-3,7 L-3,4 L-5,3 Z " fill="#111E22" transform="translate(63,37)"/>
<path d="M0,0 L4,4 L2,5 L1,8 L0,6 Z " fill="#111119" transform="translate(65,37)"/>
<path d="M0,0 L8,0 L8,5 L5,4 L5,2 L0,1 Z " fill="#111120" transform="translate(47,35)"/>
<path d="M0,0 L16,0 L16,1 L0,1 Z " fill="#110611" transform="translate(48,4)"/>
<path d="M0,0 L10,0 L8,3 L8,1 L-2,2 Z " fill="#000011" transform="translate(40,74)"/>
<path d="M0,0 L9,0 L9,2 L0,2 Z " fill="#221111" transform="translate(96,68)"/>
<path d="M0,0 L3,0 L3,3 L5,4 L0,4 L-1,2 Z " fill="#110006" transform="translate(79,54)"/>
<path d="M0,0 L4,1 L0,2 L0,7 L-3,6 L-1,6 L-1,1 Z " fill="#1D0011" transform="translate(3,51)"/>
<path d="M0,0 L2,4 L1,7 L-1,7 L-1,1 Z " fill="#110000" transform="translate(64,41)"/>
<path d="M0,0 L1,0 L1,7 L-2,6 L-2,2 L0,2 Z " fill="#000011" transform="translate(109,92)"/>
<path d="M0,0 L14,0 L14,1 L0,1 Z " fill="#111122" transform="translate(50,5)"/>
<path d="M0,0 L5,1 L5,3 L0,4 Z " fill="#191100" transform="translate(96,116)"/>
<path d="M0,0 L1,0 L1,6 L-3,7 L-4,5 L-1,4 Z " fill="#110000" transform="translate(39,59)"/>
<path d="M0,0 L3,0 L5,1 L2,5 L0,5 Z " fill="#111111" transform="translate(67,47)"/>
<path d="M0,0 L4,1 L3,5 L0,3 Z " fill="#110011" transform="translate(35,34)"/>
<path d="M0,0 L12,0 L12,1 L0,1 Z " fill="#220000" transform="translate(12,49)"/>
<path d="M0,0 L9,0 L8,2 L0,1 Z " fill="#110011" transform="translate(65,23)"/>
<path d="M0,0 L7,1 L5,3 L1,2 Z " fill="#110000" transform="translate(3,106)"/>
<path d="M0,0 L11,0 L11,1 L0,1 Z " fill="#222211" transform="translate(55,101)"/>
<path d="M0,0 L1,2 L2,8 L-1,6 L-1,1 Z " fill="#110011" transform="translate(8,73)"/>
<path d="M0,0 L11,0 L11,1 L0,1 Z " fill="#220000" transform="translate(82,49)"/>
<path d="M0,0 L11,0 L11,1 L0,1 Z " fill="#EEAA99" transform="translate(98,47)"/>
<path d="M0,0 L3,0 L5,2 L0,4 Z " fill="#000000" transform="translate(57,36)"/>
<path d="M0,0 L11,0 L11,1 L0,1 Z " fill="#000011" transform="translate(58,25)"/>
<path d="M0,0 L6,2 L3,3 L-1,2 Z " fill="#111111" transform="translate(64,12)"/>
<path d="M0,0 L10,0 L10,1 L0,1 Z " fill="#222211" transform="translate(103,119)"/>
<path d="M0,0 L10,0 L10,1 L0,1 Z " fill="#BB8877" transform="translate(109,72)"/>
<path d="M0,0 L10,0 L10,1 L0,1 Z " fill="#997766" transform="translate(99,52)"/>
<path d="M0,0 L4,0 L4,3 L0,2 Z " fill="#221A11" transform="translate(59,51)"/>
<path d="M0,0 L6,3 L4,5 L0,2 Z " fill="#111322" transform="translate(45,37)"/>
<path d="M0,0 L3,0 L2,3 L-2,1 Z " fill="#222433" transform="translate(49,37)"/>
<path d="M0,0 L2,1 L1,6 L-1,5 Z " fill="#222233" transform="translate(73,33)"/>
<path d="M0,0 L9,0 L9,1 L0,1 Z " fill="#BB8877" transform="translate(96,67)"/>
<path d="M0,0 L9,0 L9,1 L0,1 Z " fill="#EEAA99" transform="translate(97,66)"/>
<path d="M0,0 L1,0 L1,9 L0,9 Z " fill="#554433" transform="translate(95,59)"/>
<path d="M0,0 L3,3 L2,5 L0,5 Z " fill="#220000" transform="translate(33,49)"/>
<path d="M0,0 L6,0 L6,2 L0,1 Z " fill="#110011" transform="translate(50,20)"/>
<path d="M0,0 L3,0 L1,4 Z " fill="#111111" transform="translate(48,10)"/>
<path d="M0,0 L2,0 L2,4 L0,4 Z " fill="#110000" transform="translate(89,116)"/>
<path d="M0,0 L2,1 L1,6 L-1,2 Z " fill="#110000" transform="translate(50,105)"/>
<path d="M0,0 L4,0 L4,2 L0,2 Z " fill="#111111" transform="translate(75,85)"/>
<path d="M0,0 L8,0 L8,1 L0,1 Z " fill="#221111" transform="translate(112,73)"/>
<path d="M0,0 L1,2 L5,3 L-1,3 Z " fill="#EEAA99" transform="translate(111,69)"/>
<path d="M0,0 L3,2 L3,4 L0,3 Z " fill="#440000" transform="translate(30,55)"/>
<path d="M0,0 L3,0 L2,3 L0,3 Z " fill="#333322" transform="translate(57,46)"/>
<path d="M0,0 L3,0 L3,3 L0,2 Z " fill="#1D2222" transform="translate(57,41)"/>
<path d="M0,0 L4,4 L1,4 Z " fill="#223344" transform="translate(45,34)"/>
<path d="M0,0 L3,1 L2,5 L2,2 L0,2 Z " fill="#000011" transform="translate(72,29)"/>
<path d="M0,0 L4,0 L4,2 L0,2 Z " fill="#5599AA" transform="translate(66,30)"/>
<path d="M0,0 L3,0 L3,2 L-1,3 Z " fill="#223333" transform="translate(59,31)"/>
<path d="M0,0 L2,0 L2,5 L0,3 Z " fill="#111111" transform="translate(45,30)"/>
<path d="M0,0 L4,2 L1,2 L0,4 Z " fill="#111111" transform="translate(65,28)"/>
<path d="M0,0 L1,0 L1,7 L0,7 Z " fill="#330011" transform="translate(119,113)"/>
<path d="M0,0 L2,1 L2,3 L-1,3 Z " fill="#000000" transform="translate(71,115)"/>
<path d="M0,0 L7,0 L7,1 L0,1 Z " fill="#111122" transform="translate(97,83)"/>
<path d="M0,0 L3,1 L-1,3 Z " fill="#222222" transform="translate(106,70)"/>
<path d="M0,0 L2,1 L1,4 L-1,1 Z " fill="#330000" transform="translate(33,58)"/>
<path d="M0,0 L3,0 L3,3 L0,2 Z " fill="#11110C" transform="translate(55,51)"/>
<path d="M0,0 L4,1 L2,4 L2,1 Z " fill="#222233" transform="translate(54,40)"/>
<path d="M0,0 L1,0 L1,7 L0,7 Z " fill="#220005" transform="translate(33,26)"/>
<path d="M0,0 L5,0 L1,1 L0,3 Z " fill="#335555" transform="translate(48,29)"/>
<path d="M0,0 L4,1 L3,4 Z " fill="#111111" transform="translate(67,28)"/>
<path d="M0,0 L6,0 L5,2 L0,1 Z " fill="#11222D" transform="translate(48,28)"/>
<path d="M0,0 L4,2 L-1,2 Z " fill="#110011" transform="translate(46,20)"/>
<path d="M0,0 L4,2 L-1,2 Z " fill="#110011" transform="translate(58,15)"/>
<path d="M0,0 L6,0 L6,1 L0,1 Z " fill="#331111" transform="translate(114,105)"/>
<path d="M0,0 L4,2 L0,2 Z " fill="#111122" transform="translate(99,71)"/>
<path d="M0,0 L3,1 L2,4 L2,2 L0,2 Z " fill="#000000" transform="translate(23,63)"/>
<path d="M0,0 L3,0 L3,2 L0,2 Z " fill="#222533" transform="translate(57,58)"/>
<path d="M0,0 L1,4 L-1,3 Z " fill="#111122" transform="translate(52,55)"/>
<path d="M0,0 L2,1 L0,5 Z " fill="#BB8877" transform="translate(98,48)"/>
<path d="M0,0 L2,0 L2,3 L0,3 Z " fill="#222211" transform="translate(61,46)"/>
<path d="M0,0 L1,0 L1,6 L0,6 Z " fill="#110000" transform="translate(94,43)"/>
<path d="M0,0 L1,0 L1,6 L0,6 Z " fill="#220011" transform="translate(77,24)"/>
<path d="M0,0 L6,0 L6,1 L0,1 Z " fill="#000000" transform="translate(65,22)"/>
<path d="M0,0 L4,1 L2,2 Z " fill="#000011" transform="translate(27,101)"/>
<path d="M0,0 L3,1 L0,2 Z " fill="#222211" transform="translate(56,97)"/>
<path d="M0,0 L2,1 L2,3 L0,3 Z " fill="#000011" transform="translate(7,96)"/>
<path d="M0,0 L3,1 L0,2 Z " fill="#000011" transform="translate(67,80)"/>
<path d="M0,0 L5,0 L5,1 L0,1 Z " fill="#000011" transform="translate(59,79)"/>
<path d="M0,0 L1,0 L1,5 L0,5 Z " fill="#111111" transform="translate(56,69)"/>
<path d="M0,0 L3,1 L-1,2 Z " fill="#222226" transform="translate(97,69)"/>
<path d="M0,0 L2,1 L-1,3 Z " fill="#000000" transform="translate(69,63)"/>
<path d="M0,0 L1,2 L-3,1 Z " fill="#111122" transform="translate(60,59)"/>
<path d="M0,0 L5,0 L5,1 L0,1 Z " fill="#110000" transform="translate(7,50)"/>
<path d="M0,0 L1,0 L1,5 L0,5 Z " fill="#EEAA99" transform="translate(97,48)"/>
<path d="M0,0 L1,0 L1,5 L0,5 Z " fill="#000011" transform="translate(41,43)"/>
<path d="M0,0 L5,0 L5,1 L0,1 Z " fill="#110000" transform="translate(29,44)"/>
<path d="M0,0 L2,1 L1,4 Z " fill="#112222" transform="translate(65,41)"/>
<path d="M0,0 L2,0 L1,3 Z " fill="#222222" transform="translate(51,43)"/>
<path d="M0,0 L5,0 L5,1 L0,1 Z " fill="#110000" transform="translate(34,43)"/>
<path d="M0,0 L3,0 L2,3 L2,1 Z " fill="#110000" transform="translate(37,40)"/>
<path d="M0,0 L1,4 L-1,3 Z " fill="#110811" transform="translate(75,34)"/>
<path d="M0,0 L1,4 L-1,1 Z " fill="#223333" transform="translate(62,32)"/>
<path d="M0,0 L2,1 L-1,3 Z " fill="#000000" transform="translate(59,33)"/>
<path d="M0,0 L4,1 L0,2 Z " fill="#110011" transform="translate(61,20)"/>
<path d="M0,0 L1,0 L1,5 L0,5 Z " fill="#220011" transform="translate(30,13)"/>
<path d="M0,0 L3,1 L-1,2 Z " fill="#220011" transform="translate(39,6)"/>
<path d="M0,0 L4,1 Z " fill="#332211" transform="translate(109,119)"/>
<path d="M0,0 L1,4 Z " fill="#220000" transform="translate(118,116)"/>
<path d="M0,0 L2,0 L1,3 Z " fill="#221100" transform="translate(113,117)"/>
<path d="M0,0 L1,4 Z " fill="#110011" transform="translate(107,94)"/>
<path d="M0,0 L1,4 Z " fill="#111100" transform="translate(67,94)"/>
<path d="M0,0 L2,0 L2,2 L0,2 Z " fill="#000011" transform="translate(56,77)"/>
<path d="M0,0 L2,0 L2,2 L0,2 Z " fill="#000011" transform="translate(100,74)"/>
<path d="M0,0 L2,0 L2,2 L0,2 Z " fill="#000000" transform="translate(78,72)"/>
<path d="M0,0 L4,1 Z " fill="#222733" transform="translate(98,70)"/>
<path d="M0,0 L4,1 Z " fill="#111122" transform="translate(100,69)"/>
<path d="M0,0 L2,0 L2,2 L0,2 Z " fill="#111111" transform="translate(66,69)"/>
<path d="M0,0 L3,1 L0,2 Z " fill="#111111" transform="translate(96,68)"/>
<path d="M0,0 L1,4 Z " fill="#DD9988" transform="translate(117,57)"/>
<path d="M0,0 L1,4 Z " fill="#BB8877" transform="translate(98,57)"/>
<path d="M0,0 L4,1 Z " fill="#221111" transform="translate(58,56)"/>
<path d="M0,0 L3,0 L2,2 Z " fill="#110000" transform="translate(76,46)"/>
<path d="M0,0 L2,3 L0,3 Z " fill="#110000" transform="translate(63,45)"/>
<path d="M0,0 L2,2 L0,3 Z " fill="#110011" transform="translate(70,40)"/>
<path d="M0,0 L3,1 L0,1 Z " fill="#222A33" transform="translate(67,39)"/>
<path d="M0,0 L1,3 L-1,2 Z " fill="#111616" transform="translate(63,37)"/>
<path d="M0,0 L1,4 Z " fill="#111119" transform="translate(57,36)"/>
<path d="M0,0 L0,3 Z " fill="#222233" transform="translate(57,34)"/>
<path d="M0,0 L2,1 L-1,1 Z " fill="#111122" transform="translate(53,34)"/>
<path d="M0,0 L2,1 L1,3 Z " fill="#334455" transform="translate(45,34)"/>
<path d="M0,0 L1,4 Z " fill="#220011" transform="translate(77,33)"/>
<path d="M0,0 L2,1 L1,3 Z " fill="#111111" transform="translate(35,32)"/>
<path d="M0,0 L4,1 Z " fill="#334455" transform="translate(66,32)"/>
<path d="M0,0 L2,3 L0,3 Z " fill="#000011" transform="translate(64,30)"/>
<path d="M0,0 L4,1 Z " fill="#335555" transform="translate(49,32)"/>
<path d="M0,0 L1,4 Z " fill="#111122" transform="translate(42,30)"/>
<path d="M0,0 L2,1 L0,3 Z " fill="#222233" transform="translate(43,30)"/>
<path d="M0,0 L2,0 L2,2 L0,2 Z " fill="#111111" transform="translate(72,29)"/>
<path d="M0,0 L4,1 Z " fill="#000011" transform="translate(67,16)"/>
<path d="M0,0 L4,1 Z " fill="#000011" transform="translate(47,16)"/>
<path d="M0,0 L3,1 L0,1 Z " fill="#000011" transform="translate(71,13)"/>
<path d="M0,0 L2,1 L0,2 Z " fill="#221100" transform="translate(3,117)"/>
<path d="M0,0 L3,1 Z " fill="#221111" transform="translate(4,110)"/>
<path d="M0,0 L1,2 L-1,1 Z " fill="#110000" transform="translate(40,109)"/>
<path d="M0,0 L2,0 L1,2 Z " fill="#221100" transform="translate(118,108)"/>
<path d="M0,0 L3,1 Z " fill="#221100" transform="translate(67,107)"/>
<path d="M0,0 L3,1 Z " fill="#110000" transform="translate(0,104)"/>
<path d="M0,0 Z " fill="#000000" transform="translate(110,96)"/>
<path d="M0,0 Z " fill="#442A22" transform="translate(66,94)"/>
<path d="M0,0 L3,1 Z " fill="#111122" transform="translate(14,94)"/>
<path d="M0,0 L3,1 Z " fill="#000011" transform="translate(19,91)"/>
<path d="M0,0 Z " fill="#000000" transform="translate(109,85)"/>
<path d="M0,0 L3,1 Z " fill="#111111" transform="translate(10,86)"/>
<path d="M0,0 L3,1 Z " fill="#111111" transform="translate(79,84)"/>
<path d="M0,0 Z " fill="#000011" transform="translate(9,83)"/>
<path d="M0,0 Z " fill="#000011" transform="translate(64,81)"/>
<path d="M0,0 Z " fill="#110000" transform="translate(113,77)"/>
<path d="M0,0 L3,1 Z " fill="#000000" transform="translate(51,78)"/>
<path d="M0,0 L2,0 L1,2 Z " fill="#110000" transform="translate(111,74)"/>
<path d="M0,0 L3,1 Z " fill="#000011" transform="translate(32,74)"/>
<path d="M0,0 L3,1 Z " fill="#111122" transform="translate(103,73)"/>
<path d="M0,0 L2,2 L0,2 Z " fill="#222222" transform="translate(107,70)"/>
<path d="M0,0 L2,1 L0,2 Z " fill="#221122" transform="translate(105,69)"/>
<path d="M0,0 L2,2 L0,2 Z " fill="#110011" transform="translate(64,59)"/>
<path d="M0,0 Z " fill="#775555" transform="translate(116,57)"/>
<path d="M0,0 L2,0 L1,2 Z " fill="#221111" transform="translate(63,55)"/>
<path d="M0,0 Z " fill="#000000" transform="translate(67,53)"/>
<path d="M0,0 L3,1 Z " fill="#110011" transform="translate(3,52)"/>
<path d="M0,0 Z " fill="#DD9988" transform="translate(109,49)"/>
<path d="M0,0 Z " fill="#885555" transform="translate(108,49)"/>
<path d="M0,0 L2,0 L1,2 Z " fill="#110000" transform="translate(68,43)"/>
<path d="M0,0 L1,2 L-1,1 Z " fill="#110011" transform="translate(64,41)"/>
<path d="M0,0 Z " fill="#223344" transform="translate(56,41)"/>
<path d="M0,0 L2,0 L1,2 Z " fill="#223344" transform="translate(61,41)"/>
<path d="M0,0 L2,1 L0,2 Z " fill="#112222" transform="translate(49,40)"/>
<path d="M0,0 L1,2 L-1,1 Z " fill="#111919" transform="translate(59,39)"/>
<path d="M0,0 Z " fill="#22333B" transform="translate(64,37)"/>
<path d="M0,0 L2,2 L0,2 Z " fill="#111111" transform="translate(60,36)"/>
<path d="M0,0 Z " fill="#112222" transform="translate(74,34)"/>
<path d="M0,0 Z " fill="#000000" transform="translate(35,34)"/>
<path d="M0,0 Z " fill="#220011" transform="translate(34,34)"/>
<path d="M0,0 L2,0 L1,2 Z " fill="#110011" transform="translate(48,34)"/>
<path d="M0,0 L2,1 L0,2 Z " fill="#55AABB" transform="translate(49,30)"/>
<path d="M0,0 L3,1 Z " fill="#223344" transform="translate(66,29)"/>
<path d="M0,0 L3,1 Z " fill="#335566" transform="translate(50,29)"/>
<path d="M0,0 L3,1 Z " fill="#111111" transform="translate(70,24)"/>
<path d="M0,0 Z " fill="#220011" transform="translate(83,15)"/>
<path d="M0,0 Z " fill="#111100" transform="translate(23,118)"/>
<path d="M0,0 L2,1 Z " fill="#111100" transform="translate(118,111)"/>
<path d="M0,0 L2,1 Z " fill="#221111" transform="translate(52,110)"/>
<path d="M0,0 L2,1 Z " fill="#221100" transform="translate(10,110)"/>
<path d="M0,0 Z " fill="#000011" transform="translate(40,107)"/>
<path d="M0,0 L2,1 Z " fill="#000000" transform="translate(8,108)"/>
<path d="M0,0 Z " fill="#110000" transform="translate(3,102)"/>
<path d="M0,0 L2,1 Z " fill="#110000" transform="translate(25,101)"/>
<path d="M0,0 Z " fill="#221111" transform="translate(66,99)"/>
<path d="M0,0 Z " fill="#111111" transform="translate(54,99)"/>
<path d="M0,0 Z " fill="#000011" transform="translate(5,94)"/>
<path d="M0,0 L2,1 Z " fill="#332211" transform="translate(54,94)"/>
<path d="M0,0 L2,1 Z " fill="#110000" transform="translate(13,91)"/>
<path d="M0,0 L2,1 Z " fill="#110000" transform="translate(13,88)"/>
<path d="M0,0 L2,1 Z " fill="#110000" transform="translate(95,86)"/>
<path d="M0,0 Z " fill="#000011" transform="translate(56,82)"/>
<path d="M0,0 L2,1 Z " fill="#111122" transform="translate(107,80)"/>
<path d="M0,0 L2,1 Z " fill="#110011" transform="translate(94,78)"/>
<path d="M0,0 Z " fill="#000011" transform="translate(93,77)"/>
<path d="M0,0 L2,1 Z " fill="#111111" transform="translate(102,77)"/>
<path d="M0,0 L2,1 Z " fill="#000011" transform="translate(97,75)"/>
<path d="M0,0 L2,1 Z " fill="#BB8877" transform="translate(109,72)"/>
<path d="M0,0 L2,1 Z " fill="#111111" transform="translate(74,70)"/>
<path d="M0,0 Z " fill="#110011" transform="translate(16,67)"/>
<path d="M0,0 L2,1 Z " fill="#110000" transform="translate(59,66)"/>
<path d="M0,0 L2,1 Z " fill="#110011" transform="translate(54,61)"/>
<path d="M0,0 L2,1 Z " fill="#112222" transform="translate(57,60)"/>
<path d="M0,0 L2,1 Z " fill="#222222" transform="translate(62,59)"/>
<path d="M0,0 Z " fill="#223333" transform="translate(62,57)"/>
<path d="M0,0 Z " fill="#110000" transform="translate(38,56)"/>
<path d="M0,0 Z " fill="#441100" transform="translate(31,56)"/>
<path d="M0,0 L2,1 Z " fill="#000011" transform="translate(82,56)"/>
<path d="M0,0 L2,1 Z " fill="#111111" transform="translate(58,56)"/>
<path d="M0,0 Z " fill="#110000" transform="translate(37,54)"/>
<path d="M0,0 Z " fill="#110000" transform="translate(27,54)"/>
<path d="M0,0 Z " fill="#110000" transform="translate(48,53)"/>
<path d="M0,0 L2,1 Z " fill="#110000" transform="translate(20,54)"/>
<path d="M0,0 L2,1 Z " fill="#221111" transform="translate(61,53)"/>
<path d="M0,0 L2,1 Z " fill="#110011" transform="translate(46,53)"/>
<path d="M0,0 Z " fill="#110000" transform="translate(36,52)"/>
<path d="M0,0 Z " fill="#110000" transform="translate(26,52)"/>
<path d="M0,0 Z " fill="#111100" transform="translate(58,51)"/>
<path d="M0,0 Z " fill="#222211" transform="translate(57,51)"/>
<path d="M0,0 Z " fill="#221111" transform="translate(64,50)"/>
<path d="M0,0 Z " fill="#110011" transform="translate(39,49)"/>
<path d="M0,0 L2,1 Z " fill="#110000" transform="translate(79,48)"/>
<path d="M0,0 Z " fill="#000011" transform="translate(72,47)"/>
<path d="M0,0 L2,1 Z " fill="#111111" transform="translate(61,48)"/>
<path d="M0,0 L2,1 Z " fill="#222211" transform="translate(57,48)"/>
<path d="M0,0 Z " fill="#221111" transform="translate(54,46)"/>
<path d="M0,0 Z " fill="#110011" transform="translate(45,46)"/>
<path d="M0,0 Z " fill="#221111" transform="translate(64,45)"/>
<path d="M0,0 L2,1 Z " fill="#333322" transform="translate(58,46)"/>
<path d="M0,0 Z " fill="#111111" transform="translate(52,45)"/>
<path d="M0,0 Z " fill="#220011" transform="translate(76,44)"/>
<path d="M0,0 Z " fill="#111100" transform="translate(58,44)"/>
<path d="M0,0 Z " fill="#222233" transform="translate(51,44)"/>
<path d="M0,0 Z " fill="#220011" transform="translate(28,44)"/>
<path d="M0,0 Z " fill="#885555" transform="translate(119,43)"/>
<path d="M0,0 Z " fill="#553333" transform="translate(95,43)"/>
<path d="M0,0 Z " fill="#110011" transform="translate(65,43)"/>
<path d="M0,0 Z " fill="#223344" transform="translate(59,42)"/>
<path d="M0,0 Z " fill="#000000" transform="translate(54,42)"/>
<path d="M0,0 Z " fill="#222222" transform="translate(65,41)"/>
<path d="M0,0 Z " fill="#110011" transform="translate(72,39)"/>
<path d="M0,0 Z " fill="#222233" transform="translate(60,39)"/>
<path d="M0,0 L2,1 Z " fill="#110000" transform="translate(41,40)"/>
<path d="M0,0 L2,1 Z " fill="#111122" transform="translate(72,38)"/>
<path d="M0,0 Z " fill="#224444" transform="translate(56,37)"/>
<path d="M0,0 Z " fill="#220011" transform="translate(35,37)"/>
<path d="M0,0 L2,1 Z " fill="#222233" transform="translate(52,36)"/>
<path d="M0,0 L2,1 Z " fill="#223333" transform="translate(71,35)"/>
<path d="M0,0 Z " fill="#223344" transform="translate(63,34)"/>
<path d="M0,0 Z " fill="#111122" transform="translate(62,34)"/>
<path d="M0,0 Z " fill="#111111" transform="translate(58,34)"/>
<path d="M0,0 L2,1 Z " fill="#111122" transform="translate(55,34)"/>
<path d="M0,0 L2,1 Z " fill="#111111" transform="translate(53,34)"/>
<path d="M0,0 Z " fill="#110011" transform="translate(40,33)"/>
<path d="M0,0 Z " fill="#223333" transform="translate(58,32)"/>
<path d="M0,0 L2,1 Z " fill="#224444" transform="translate(60,32)"/>
<path d="M0,0 L2,1 Z " fill="#335566" transform="translate(49,32)"/>
<path d="M0,0 Z " fill="#110011" transform="translate(38,31)"/>
<path d="M0,0 Z " fill="#112222" transform="translate(70,30)"/>
<path d="M0,0 Z " fill="#336677" transform="translate(69,30)"/>
<path d="M0,0 Z " fill="#447788" transform="translate(66,30)"/>
<path d="M0,0 Z " fill="#224444" transform="translate(65,30)"/>
<path d="M0,0 Z " fill="#111111" transform="translate(64,30)"/>
<path d="M0,0 Z " fill="#112222" transform="translate(54,30)"/>
<path d="M0,0 Z " fill="#446677" transform="translate(53,30)"/>
<path d="M0,0 Z " fill="#55AABB" transform="translate(52,30)"/>
<path d="M0,0 L2,1 Z " fill="#558899" transform="translate(67,30)"/>
<path d="M0,0 L2,1 Z " fill="#110011" transform="translate(45,30)"/>
<path d="M0,0 Z " fill="#000011" transform="translate(39,29)"/>
<path d="M0,0 L2,1 Z " fill="#111111" transform="translate(43,29)"/>
<path d="M0,0 L2,1 Z " fill="#000011" transform="translate(59,28)"/>
<path d="M0,0 L2,1 Z " fill="#112222" transform="translate(48,28)"/>
<path d="M0,0 L2,1 Z " fill="#001111" transform="translate(45,24)"/>
<path d="M0,0 Z " fill="#220011" transform="translate(82,18)"/>
<path d="M0,0 Z " fill="#110000" transform="translate(32,18)"/>
<path d="M0,0 L2,1 Z " fill="#000011" transform="translate(44,14)"/>
<path d="M0,0 L2,1 Z " fill="#110000" transform="translate(75,8)"/>
<path d="M0,0 L2,1 Z " fill="#111111" transform="translate(54,8)"/>
<path d="M0,0 L2,1 Z " fill="#000000" transform="translate(40,7)"/>
<path d="M0,0 L2,1 Z " fill="#110000" transform="translate(38,7)"/>
<path d="M0,0 L2,1 Z " fill="#110011" transform="translate(43,6)"/>
<path d="M0,0 L2,1 Z " fill="#110011" transform="translate(66,5)"/>
<path d="M0,0 L2,1 Z " fill="#110000" transform="translate(43,5)"/>
<path d="M0,0 Z " fill="#221100" transform="translate(96,119)"/>
<path d="M0,0 Z " fill="#110000" transform="translate(1,118)"/>
<path d="M0,0 Z " fill="#110000" transform="translate(1,116)"/>
<path d="M0,0 Z " fill="#220011" transform="translate(119,113)"/>
<path d="M0,0 Z " fill="#000011" transform="translate(44,112)"/>
<path d="M0,0 Z " fill="#111100" transform="translate(92,111)"/>
<path d="M0,0 Z " fill="#111100" transform="translate(62,111)"/>
<path d="M0,0 Z " fill="#111100" transform="translate(12,110)"/>
<path d="M0,0 Z " fill="#221100" transform="translate(7,110)"/>
<path d="M0,0 Z " fill="#221100" transform="translate(0,110)"/>
<path d="M0,0 Z " fill="#111111" transform="translate(52,109)"/>
<path d="M0,0 Z " fill="#000011" transform="translate(47,108)"/>
<path d="M0,0 Z " fill="#000011" transform="translate(38,108)"/>
<path d="M0,0 Z " fill="#000011" transform="translate(34,107)"/>
<path d="M0,0 Z " fill="#111111" transform="translate(3,107)"/>
<path d="M0,0 Z " fill="#110000" transform="translate(45,106)"/>
<path d="M0,0 Z " fill="#111100" transform="translate(3,106)"/>
<path d="M0,0 Z " fill="#332211" transform="translate(95,105)"/>
<path d="M0,0 Z " fill="#222211" transform="translate(94,105)"/>
<path d="M0,0 Z " fill="#332211" transform="translate(53,105)"/>
<path d="M0,0 Z " fill="#110000" transform="translate(3,105)"/>
<path d="M0,0 Z " fill="#110011" transform="translate(48,102)"/>
<path d="M0,0 Z " fill="#111122" transform="translate(46,102)"/>
<path d="M0,0 Z " fill="#221111" transform="translate(65,101)"/>
<path d="M0,0 Z " fill="#110000" transform="translate(54,101)"/>
<path d="M0,0 Z " fill="#110011" transform="translate(113,100)"/>
<path d="M0,0 Z " fill="#221100" transform="translate(66,99)"/>
<path d="M0,0 Z " fill="#331111" transform="translate(65,99)"/>
<path d="M0,0 Z " fill="#221111" transform="translate(54,99)"/>
<path d="M0,0 Z " fill="#110011" transform="translate(43,99)"/>
<path d="M0,0 Z " fill="#111122" transform="translate(41,99)"/>
<path d="M0,0 Z " fill="#442222" transform="translate(55,97)"/>
<path d="M0,0 Z " fill="#111111" transform="translate(67,96)"/>
<path d="M0,0 Z " fill="#110000" transform="translate(38,96)"/>
<path d="M0,0 Z " fill="#000011" transform="translate(106,94)"/>
<path d="M0,0 Z " fill="#442222" transform="translate(66,94)"/>
<path d="M0,0 Z " fill="#222211" transform="translate(64,94)"/>
<path d="M0,0 Z " fill="#111100" transform="translate(66,93)"/>
<path d="M0,0 Z " fill="#111100" transform="translate(55,93)"/>
<path d="M0,0 Z " fill="#000011" transform="translate(7,93)"/>
<path d="M0,0 Z " fill="#000011" transform="translate(26,92)"/>
<path d="M0,0 Z " fill="#000011" transform="translate(103,91)"/>
<path d="M0,0 Z " fill="#000000" transform="translate(70,86)"/>
<path d="M0,0 Z " fill="#111122" transform="translate(106,85)"/>
<path d="M0,0 Z " fill="#000000" transform="translate(110,84)"/>
<path d="M0,0 Z " fill="#000011" transform="translate(68,84)"/>
<path d="M0,0 Z " fill="#000011" transform="translate(110,83)"/>
<path d="M0,0 Z " fill="#110011" transform="translate(94,82)"/>
<path d="M0,0 Z " fill="#000000" transform="translate(56,82)"/>
<path d="M0,0 Z " fill="#110011" transform="translate(103,81)"/>
<path d="M0,0 Z " fill="#000011" transform="translate(9,81)"/>
<path d="M0,0 Z " fill="#220011" transform="translate(113,80)"/>
<path d="M0,0 Z " fill="#000011" transform="translate(102,80)"/>
<path d="M0,0 Z " fill="#111122" transform="translate(15,80)"/>
<path d="M0,0 Z " fill="#111122" transform="translate(105,79)"/>
<path d="M0,0 Z " fill="#000011" transform="translate(52,79)"/>
<path d="M0,0 Z " fill="#000011" transform="translate(105,76)"/>
<path d="M0,0 Z " fill="#000011" transform="translate(94,76)"/>
<path d="M0,0 Z " fill="#000000" transform="translate(101,75)"/>
<path d="M0,0 Z " fill="#000000" transform="translate(111,74)"/>
<path d="M0,0 Z " fill="#110011" transform="translate(110,74)"/>
<path d="M0,0 Z " fill="#000011" transform="translate(55,74)"/>
<path d="M0,0 Z " fill="#000011" transform="translate(25,74)"/>
<path d="M0,0 Z " fill="#000011" transform="translate(21,74)"/>
<path d="M0,0 Z " fill="#000011" transform="translate(62,73)"/>
<path d="M0,0 Z " fill="#000011" transform="translate(20,73)"/>
<path d="M0,0 Z " fill="#886666" transform="translate(119,72)"/>
<path d="M0,0 Z " fill="#776655" transform="translate(109,72)"/>
<path d="M0,0 Z " fill="#221111" transform="translate(108,72)"/>
<path d="M0,0 Z " fill="#111122" transform="translate(107,72)"/>
<path d="M0,0 Z " fill="#000011" transform="translate(96,72)"/>
<path d="M0,0 Z " fill="#000011" transform="translate(70,72)"/>
<path d="M0,0 Z " fill="#000011" transform="translate(63,72)"/>
<path d="M0,0 Z " fill="#110000" transform="translate(46,72)"/>
<path d="M0,0 Z " fill="#CC9988" transform="translate(109,71)"/>
<path d="M0,0 Z " fill="#553333" transform="translate(108,71)"/>
<path d="M0,0 Z " fill="#110000" transform="translate(67,71)"/>
<path d="M0,0 Z " fill="#110000" transform="translate(53,71)"/>
<path d="M0,0 Z " fill="#000011" transform="translate(51,71)"/>
<path d="M0,0 Z " fill="#000011" transform="translate(9,71)"/>
<path d="M0,0 Z " fill="#CC9999" transform="translate(108,70)"/>
<path d="M0,0 Z " fill="#554433" transform="translate(107,70)"/>
<path d="M0,0 Z " fill="#110011" transform="translate(106,70)"/>
<path d="M0,0 Z " fill="#222222" transform="translate(104,70)"/>
<path d="M0,0 Z " fill="#223333" transform="translate(98,70)"/>
<path d="M0,0 Z " fill="#222222" transform="translate(96,70)"/>
<path d="M0,0 Z " fill="#111111" transform="translate(95,70)"/>
<path d="M0,0 Z " fill="#110000" transform="translate(62,70)"/>
<path d="M0,0 Z " fill="#000011" transform="translate(50,70)"/>
<path d="M0,0 Z " fill="#EEAA99" transform="translate(108,69)"/>
<path d="M0,0 Z " fill="#BB8877" transform="translate(107,69)"/>
<path d="M0,0 Z " fill="#664444" transform="translate(106,69)"/>
<path d="M0,0 Z " fill="#332233" transform="translate(105,69)"/>
<path d="M0,0 Z " fill="#111111" transform="translate(104,69)"/>
<path d="M0,0 Z " fill="#111122" transform="translate(96,69)"/>
<path d="M0,0 Z " fill="#110011" transform="translate(95,69)"/>
<path d="M0,0 Z " fill="#111111" transform="translate(76,69)"/>
<path d="M0,0 Z " fill="#110011" transform="translate(46,69)"/>
<path d="M0,0 Z " fill="#886666" transform="translate(105,68)"/>
<path d="M0,0 Z " fill="#111111" transform="translate(77,68)"/>
<path d="M0,0 Z " fill="#110000" transform="translate(73,68)"/>
<path d="M0,0 Z " fill="#111111" transform="translate(65,68)"/>
<path d="M0,0 Z " fill="#110000" transform="translate(42,68)"/>
<path d="M0,0 Z " fill="#000011" transform="translate(9,68)"/>
<path d="M0,0 Z " fill="#DD9988" transform="translate(105,67)"/>
<path d="M0,0 Z " fill="#443333" transform="translate(95,67)"/>
<path d="M0,0 Z " fill="#110000" transform="translate(74,67)"/>
<path d="M0,0 Z " fill="#000000" transform="translate(26,67)"/>
<path d="M0,0 Z " fill="#110000" transform="translate(21,67)"/>
<path d="M0,0 Z " fill="#000011" transform="translate(52,66)"/>
<path d="M0,0 Z " fill="#110000" transform="translate(20,66)"/>
<path d="M0,0 Z " fill="#000011" transform="translate(83,65)"/>
<path d="M0,0 Z " fill="#000011" transform="translate(77,64)"/>
<path d="M0,0 Z " fill="#110000" transform="translate(62,64)"/>
<path d="M0,0 Z " fill="#000011" transform="translate(78,63)"/>
<path d="M0,0 Z " fill="#000011" transform="translate(11,63)"/>
<path d="M0,0 Z " fill="#000011" transform="translate(81,62)"/>
<path d="M0,0 Z " fill="#000011" transform="translate(62,62)"/>
<path d="M0,0 Z " fill="#330000" transform="translate(35,62)"/>
<path d="M0,0 Z " fill="#000011" transform="translate(71,61)"/>
<path d="M0,0 Z " fill="#110011" transform="translate(63,61)"/>
<path d="M0,0 Z " fill="#111111" transform="translate(46,61)"/>
<path d="M0,0 Z " fill="#110000" transform="translate(25,61)"/>
<path d="M0,0 Z " fill="#996666" transform="translate(116,60)"/>
<path d="M0,0 Z " fill="#885555" transform="translate(115,60)"/>
<path d="M0,0 Z " fill="#111122" transform="translate(62,60)"/>
<path d="M0,0 Z " fill="#000011" transform="translate(52,60)"/>
<path d="M0,0 Z " fill="#000011" transform="translate(41,60)"/>
<path d="M0,0 Z " fill="#110000" transform="translate(69,59)"/>
<path d="M0,0 Z " fill="#110011" transform="translate(66,59)"/>
<path d="M0,0 Z " fill="#110000" transform="translate(64,59)"/>
<path d="M0,0 Z " fill="#112222" transform="translate(62,59)"/>
<path d="M0,0 Z " fill="#111111" transform="translate(44,59)"/>
<path d="M0,0 Z " fill="#220000" transform="translate(31,59)"/>
<path d="M0,0 Z " fill="#996666" transform="translate(119,58)"/>
<path d="M0,0 Z " fill="#110000" transform="translate(80,58)"/>
<path d="M0,0 Z " fill="#111122" transform="translate(65,58)"/>
<path d="M0,0 Z " fill="#221122" transform="translate(60,58)"/>
<path d="M0,0 Z " fill="#223333" transform="translate(57,58)"/>
<path d="M0,0 Z " fill="#222233" transform="translate(55,58)"/>
<path d="M0,0 Z " fill="#330011" transform="translate(33,58)"/>
<path d="M0,0 Z " fill="#330000" transform="translate(31,58)"/>
<path d="M0,0 Z " fill="#885555" transform="translate(116,57)"/>
<path d="M0,0 Z " fill="#222233" transform="translate(59,57)"/>
<path d="M0,0 Z " fill="#221122" transform="translate(57,57)"/>
<path d="M0,0 Z " fill="#111111" transform="translate(50,57)"/>
<path d="M0,0 Z " fill="#000011" transform="translate(44,57)"/>
<path d="M0,0 Z " fill="#440000" transform="translate(36,57)"/>
<path d="M0,0 Z " fill="#330000" transform="translate(30,57)"/>
<path d="M0,0 Z " fill="#110000" transform="translate(29,57)"/>
<path d="M0,0 Z " fill="#CC9988" transform="translate(116,56)"/>
<path d="M0,0 Z " fill="#DD9988" transform="translate(98,56)"/>
<path d="M0,0 Z " fill="#110011" transform="translate(78,56)"/>
<path d="M0,0 Z " fill="#110000" transform="translate(77,56)"/>
<path d="M0,0 Z " fill="#110011" transform="translate(57,56)"/>
<path d="M0,0 Z " fill="#110011" transform="translate(54,56)"/>
<path d="M0,0 Z " fill="#000011" transform="translate(49,56)"/>
<path d="M0,0 Z " fill="#220000" transform="translate(37,56)"/>
<path d="M0,0 Z " fill="#220000" transform="translate(29,56)"/>
<path d="M0,0 Z " fill="#110000" transform="translate(28,56)"/>
<path d="M0,0 Z " fill="#221122" transform="translate(63,55)"/>
<path d="M0,0 Z " fill="#111111" transform="translate(62,55)"/>
<path d="M0,0 Z " fill="#110011" transform="translate(56,55)"/>
<path d="M0,0 Z " fill="#111111" transform="translate(51,55)"/>
<path d="M0,0 Z " fill="#330000" transform="translate(31,55)"/>
<path d="M0,0 Z " fill="#441100" transform="translate(30,55)"/>
<path d="M0,0 Z " fill="#220000" transform="translate(31,54)"/>
<path d="M0,0 Z " fill="#AA7777" transform="translate(108,52)"/>
<path d="M0,0 Z " fill="#CC9988" transform="translate(98,52)"/>
<path d="M0,0 Z " fill="#111100" transform="translate(56,52)"/>
<path d="M0,0 Z " fill="#000011" transform="translate(45,52)"/>
<path d="M0,0 Z " fill="#775555" transform="translate(108,51)"/>
<path d="M0,0 Z " fill="#332222" transform="translate(59,51)"/>
<path d="M0,0 Z " fill="#332211" transform="translate(57,51)"/>
<path d="M0,0 Z " fill="#110000" transform="translate(40,51)"/>
<path d="M0,0 Z " fill="#220000" transform="translate(6,51)"/>
<path d="M0,0 Z " fill="#110000" transform="translate(71,50)"/>
<path d="M0,0 Z " fill="#111111" transform="translate(64,50)"/>
<path d="M0,0 Z " fill="#110000" transform="translate(57,50)"/>
<path d="M0,0 Z " fill="#000011" transform="translate(47,50)"/>
<path d="M0,0 Z " fill="#000011" transform="translate(44,50)"/>
<path d="M0,0 Z " fill="#220011" transform="translate(6,50)"/>
<path d="M0,0 Z " fill="#110000" transform="translate(93,49)"/>
<path d="M0,0 Z " fill="#110000" transform="translate(81,49)"/>
<path d="M0,0 Z " fill="#110000" transform="translate(23,49)"/>
<path d="M0,0 Z " fill="#220011" transform="translate(11,49)"/>
<path d="M0,0 Z " fill="#AA8877" transform="translate(107,48)"/>
<path d="M0,0 Z " fill="#CC9988" transform="translate(98,48)"/>
<path d="M0,0 Z " fill="#220011" transform="translate(81,48)"/>
<path d="M0,0 Z " fill="#111100" transform="translate(59,48)"/>
<path d="M0,0 Z " fill="#221111" transform="translate(57,48)"/>
<path d="M0,0 Z " fill="#111111" transform="translate(55,48)"/>
<path d="M0,0 Z " fill="#110000" transform="translate(54,48)"/>
<path d="M0,0 Z " fill="#111111" transform="translate(51,48)"/>
<path d="M0,0 Z " fill="#111122" transform="translate(46,48)"/>
<path d="M0,0 Z " fill="#110000" transform="translate(24,48)"/>
<path d="M0,0 Z " fill="#220011" transform="translate(23,48)"/>
<path d="M0,0 Z " fill="#111100" transform="translate(64,47)"/>
<path d="M0,0 Z " fill="#111100" transform="translate(60,47)"/>
<path d="M0,0 Z " fill="#443322" transform="translate(58,47)"/>
<path d="M0,0 Z " fill="#000000" transform="translate(52,47)"/>
<path d="M0,0 Z " fill="#110000" transform="translate(26,47)"/>
<path d="M0,0 Z " fill="#220011" transform="translate(25,47)"/>
<path d="M0,0 Z " fill="#220000" transform="translate(78,46)"/>
<path d="M0,0 Z " fill="#332211" transform="translate(58,46)"/>
<path d="M0,0 Z " fill="#110000" transform="translate(47,46)"/>
<path d="M0,0 Z " fill="#220011" transform="translate(26,46)"/>
<path d="M0,0 Z " fill="#110011" transform="translate(66,45)"/>
<path d="M0,0 Z " fill="#111111" transform="translate(64,45)"/>
<path d="M0,0 Z " fill="#111100" transform="translate(61,45)"/>
<path d="M0,0 Z " fill="#221111" transform="translate(59,45)"/>
<path d="M0,0 Z " fill="#222211" transform="translate(57,45)"/>
<path d="M0,0 Z " fill="#221111" transform="translate(55,45)"/>
<path d="M0,0 Z " fill="#111100" transform="translate(54,45)"/>
<path d="M0,0 Z " fill="#111122" transform="translate(50,45)"/>
<path d="M0,0 Z " fill="#111122" transform="translate(67,44)"/>
<path d="M0,0 Z " fill="#222222" transform="translate(66,44)"/>
<path d="M0,0 Z " fill="#111111" transform="translate(59,44)"/>
<path d="M0,0 Z " fill="#111111" transform="translate(50,44)"/>
<path d="M0,0 Z " fill="#110011" transform="translate(44,44)"/>
<path d="M0,0 Z " fill="#663333" transform="translate(119,43)"/>
<path d="M0,0 Z " fill="#442222" transform="translate(95,43)"/>
<path d="M0,0 Z " fill="#111111" transform="translate(65,43)"/>
<path d="M0,0 Z " fill="#110011" transform="translate(63,43)"/>
<path d="M0,0 Z " fill="#111122" transform="translate(60,43)"/>
<path d="M0,0 Z " fill="#222233" transform="translate(56,43)"/>
<path d="M0,0 Z " fill="#111111" transform="translate(53,43)"/>
<path d="M0,0 Z " fill="#112222" transform="translate(51,43)"/>
<path d="M0,0 Z " fill="#220011" transform="translate(33,43)"/>
<path d="M0,0 Z " fill="#110000" transform="translate(70,42)"/>
<path d="M0,0 Z " fill="#110011" transform="translate(69,42)"/>
<path d="M0,0 Z " fill="#111122" transform="translate(63,42)"/>
<path d="M0,0 Z " fill="#000011" transform="translate(54,42)"/>
<path d="M0,0 Z " fill="#112222" transform="translate(52,42)"/>
<path d="M0,0 Z " fill="#111122" transform="translate(49,42)"/>
<path d="M0,0 Z " fill="#220011" transform="translate(94,41)"/>
<path d="M0,0 Z " fill="#112222" transform="translate(68,41)"/>
<path d="M0,0 Z " fill="#222233" transform="translate(65,41)"/>
<path d="M0,0 Z " fill="#111122" transform="translate(64,41)"/>
<path d="M0,0 Z " fill="#223333" transform="translate(61,41)"/>
<path d="M0,0 Z " fill="#222233" transform="translate(59,41)"/>
<path d="M0,0 Z " fill="#112222" transform="translate(57,41)"/>
<path d="M0,0 Z " fill="#112222" transform="translate(53,41)"/>
<path d="M0,0 Z " fill="#110011" transform="translate(51,41)"/>
<path d="M0,0 Z " fill="#110000" transform="translate(43,41)"/>
<path d="M0,0 Z " fill="#112222" transform="translate(65,40)"/>
<path d="M0,0 Z " fill="#223333" transform="translate(57,40)"/>
<path d="M0,0 Z " fill="#222222" transform="translate(54,40)"/>
<path d="M0,0 Z " fill="#111122" transform="translate(53,40)"/>
<path d="M0,0 Z " fill="#222222" transform="translate(50,40)"/>
<path d="M0,0 Z " fill="#110011" transform="translate(46,40)"/>
<path d="M0,0 Z " fill="#220000" transform="translate(37,40)"/>
<path d="M0,0 Z " fill="#000000" transform="translate(73,39)"/>
<path d="M0,0 Z " fill="#111122" transform="translate(70,39)"/>
<path d="M0,0 Z " fill="#222222" transform="translate(69,39)"/>
<path d="M0,0 Z " fill="#222233" transform="translate(67,39)"/>
<path d="M0,0 Z " fill="#111111" transform="translate(62,39)"/>
<path d="M0,0 Z " fill="#111111" transform="translate(59,39)"/>
<path d="M0,0 Z " fill="#000011" transform="translate(58,39)"/>
<path d="M0,0 Z " fill="#112222" transform="translate(57,39)"/>
<path d="M0,0 Z " fill="#112222" transform="translate(54,39)"/>
<path d="M0,0 Z " fill="#112233" transform="translate(49,39)"/>
<path d="M0,0 Z " fill="#110011" transform="translate(45,39)"/>
<path d="M0,0 Z " fill="#220000" transform="translate(75,38)"/>
<path d="M0,0 Z " fill="#112222" transform="translate(72,38)"/>
<path d="M0,0 Z " fill="#222233" transform="translate(71,38)"/>
<path d="M0,0 Z " fill="#223333" transform="translate(70,38)"/>
<path d="M0,0 Z " fill="#111122" transform="translate(66,38)"/>
<path d="M0,0 Z " fill="#112222" transform="translate(60,38)"/>
<path d="M0,0 Z " fill="#110011" transform="translate(44,38)"/>
<path d="M0,0 Z " fill="#220011" transform="translate(76,37)"/>
<path d="M0,0 Z " fill="#111111" transform="translate(74,37)"/>
<path d="M0,0 Z " fill="#112233" transform="translate(73,37)"/>
<path d="M0,0 Z " fill="#222233" transform="translate(66,37)"/>
<path d="M0,0 Z " fill="#223333" transform="translate(64,37)"/>
<path d="M0,0 Z " fill="#334444" transform="translate(56,37)"/>
<path d="M0,0 Z " fill="#223333" transform="translate(55,37)"/>
<path d="M0,0 Z " fill="#112222" transform="translate(52,37)"/>
<path d="M0,0 Z " fill="#223333" transform="translate(51,37)"/>
<path d="M0,0 Z " fill="#223333" transform="translate(48,37)"/>
<path d="M0,0 Z " fill="#112222" transform="translate(45,37)"/>
<path d="M0,0 Z " fill="#111122" transform="translate(74,36)"/>
<path d="M0,0 Z " fill="#222233" transform="translate(70,36)"/>
<path d="M0,0 Z " fill="#112222" transform="translate(69,36)"/>
<path d="M0,0 Z " fill="#112222" transform="translate(63,36)"/>
<path d="M0,0 Z " fill="#000011" transform="translate(62,36)"/>
<path d="M0,0 Z " fill="#110011" transform="translate(60,36)"/>
<path d="M0,0 Z " fill="#110000" transform="translate(58,36)"/>
<path d="M0,0 Z " fill="#111122" transform="translate(57,36)"/>
<path d="M0,0 Z " fill="#223344" transform="translate(56,36)"/>
<path d="M0,0 Z " fill="#222222" transform="translate(52,36)"/>
<path d="M0,0 Z " fill="#112222" transform="translate(51,36)"/>
<path d="M0,0 Z " fill="#222233" transform="translate(44,36)"/>
<path d="M0,0 Z " fill="#112222" transform="translate(43,36)"/>
<path d="M0,0 Z " fill="#222222" transform="translate(71,35)"/>
<path d="M0,0 Z " fill="#111122" transform="translate(70,35)"/>
<path d="M0,0 Z " fill="#111122" transform="translate(64,35)"/>
<path d="M0,0 Z " fill="#111111" transform="translate(52,35)"/>
<path d="M0,0 Z " fill="#000011" transform="translate(51,35)"/>
<path d="M0,0 Z " fill="#112222" transform="translate(47,35)"/>
<path d="M0,0 Z " fill="#222233" transform="translate(43,35)"/>
<path d="M0,0 Z " fill="#112222" transform="translate(42,35)"/>
<path d="M0,0 Z " fill="#111111" transform="translate(41,35)"/>
<path d="M0,0 Z " fill="#112222" transform="translate(72,34)"/>
<path d="M0,0 Z " fill="#223333" transform="translate(63,34)"/>
<path d="M0,0 Z " fill="#112222" transform="translate(62,34)"/>
<path d="M0,0 Z " fill="#223333" transform="translate(57,34)"/>
<path d="M0,0 Z " fill="#110011" transform="translate(53,34)"/>
<path d="M0,0 Z " fill="#000011" transform="translate(52,34)"/>
<path d="M0,0 Z " fill="#001111" transform="translate(47,34)"/>
<path d="M0,0 Z " fill="#112233" transform="translate(46,34)"/>
<path d="M0,0 Z " fill="#110000" transform="translate(35,34)"/>
<path d="M0,0 Z " fill="#000000" transform="translate(75,33)"/>
<path d="M0,0 Z " fill="#111111" transform="translate(74,33)"/>
<path d="M0,0 Z " fill="#110011" transform="translate(71,33)"/>
<path d="M0,0 Z " fill="#110011" transform="translate(68,33)"/>
<path d="M0,0 Z " fill="#112222" transform="translate(61,33)"/>
<path d="M0,0 Z " fill="#111111" transform="translate(59,33)"/>
<path d="M0,0 Z " fill="#111122" transform="translate(57,33)"/>
<path d="M0,0 Z " fill="#000011" transform="translate(47,33)"/>
<path d="M0,0 Z " fill="#222233" transform="translate(45,33)"/>
<path d="M0,0 Z " fill="#334444" transform="translate(44,33)"/>
<path d="M0,0 Z " fill="#112233" transform="translate(42,33)"/>
<path d="M0,0 Z " fill="#110000" transform="translate(34,33)"/>
<path d="M0,0 Z " fill="#220011" transform="translate(33,33)"/>
<path d="M0,0 Z " fill="#220011" transform="translate(76,32)"/>
<path d="M0,0 Z " fill="#112222" transform="translate(73,32)"/>
<path d="M0,0 Z " fill="#110011" transform="translate(70,32)"/>
<path d="M0,0 Z " fill="#222233" transform="translate(69,32)"/>
<path d="M0,0 Z " fill="#334455" transform="translate(68,32)"/>
<path d="M0,0 Z " fill="#223333" transform="translate(66,32)"/>
<path d="M0,0 Z " fill="#000000" transform="translate(64,32)"/>
<path d="M0,0 Z " fill="#111111" transform="translate(63,32)"/>
<path d="M0,0 Z " fill="#112233" transform="translate(62,32)"/>
<path d="M0,0 Z " fill="#334455" transform="translate(60,32)"/>
<path d="M0,0 Z " fill="#223344" transform="translate(59,32)"/>
<path d="M0,0 Z " fill="#222233" transform="translate(58,32)"/>
<path d="M0,0 Z " fill="#112222" transform="translate(53,32)"/>
<path d="M0,0 Z " fill="#336677" transform="translate(51,32)"/>
<path d="M0,0 Z " fill="#223344" transform="translate(49,32)"/>
<path d="M0,0 Z " fill="#112222" transform="translate(45,32)"/>
<path d="M0,0 Z " fill="#111122" transform="translate(73,31)"/>
<path d="M0,0 Z " fill="#111111" transform="translate(62,31)"/>
<path d="M0,0 Z " fill="#222233" transform="translate(61,31)"/>
<path d="M0,0 Z " fill="#111122" transform="translate(58,31)"/>
<path d="M0,0 Z " fill="#110011" transform="translate(57,31)"/>
<path d="M0,0 Z " fill="#447788" transform="translate(49,31)"/>
<path d="M0,0 Z " fill="#222233" transform="translate(48,31)"/>
<path d="M0,0 Z " fill="#111122" transform="translate(45,31)"/>
<path d="M0,0 Z " fill="#220000" transform="translate(76,30)"/>
<path d="M0,0 Z " fill="#334455" transform="translate(65,30)"/>
<path d="M0,0 Z " fill="#110011" transform="translate(64,30)"/>
<path d="M0,0 Z " fill="#111111" transform="translate(61,30)"/>
<path d="M0,0 Z " fill="#000011" transform="translate(57,30)"/>
<path d="M0,0 Z " fill="#223333" transform="translate(54,30)"/>
<path d="M0,0 Z " fill="#447788" transform="translate(53,30)"/>
<path d="M0,0 Z " fill="#5599AA" transform="translate(52,30)"/>
<path d="M0,0 Z " fill="#66AABB" transform="translate(51,30)"/>
<path d="M0,0 Z " fill="#559999" transform="translate(49,30)"/>
<path d="M0,0 Z " fill="#335566" transform="translate(48,30)"/>
<path d="M0,0 Z " fill="#111111" transform="translate(45,30)"/>
<path d="M0,0 Z " fill="#110011" transform="translate(41,30)"/>
<path d="M0,0 Z " fill="#110011" transform="translate(72,29)"/>
<path d="M0,0 Z " fill="#001111" transform="translate(70,29)"/>
<path d="M0,0 Z " fill="#112222" transform="translate(69,29)"/>
<path d="M0,0 Z " fill="#112222" transform="translate(65,29)"/>
<path d="M0,0 Z " fill="#000011" transform="translate(61,29)"/>
<path d="M0,0 Z " fill="#110011" transform="translate(58,29)"/>
<path d="M0,0 Z " fill="#111111" transform="translate(54,29)"/>
<path d="M0,0 Z " fill="#223344" transform="translate(53,29)"/>
<path d="M0,0 Z " fill="#223344" transform="translate(48,29)"/>
<path d="M0,0 Z " fill="#000011" transform="translate(42,29)"/>
<path d="M0,0 Z " fill="#000011" transform="translate(73,28)"/>
<path d="M0,0 Z " fill="#001111" transform="translate(65,28)"/>
<path d="M0,0 Z " fill="#110011" transform="translate(59,28)"/>
<path d="M0,0 Z " fill="#110000" transform="translate(58,28)"/>
<path d="M0,0 Z " fill="#000011" transform="translate(54,28)"/>
<path d="M0,0 Z " fill="#112222" transform="translate(50,28)"/>
<path d="M0,0 Z " fill="#111111" transform="translate(48,28)"/>
<path d="M0,0 Z " fill="#000011" transform="translate(43,28)"/>
<path d="M0,0 Z " fill="#111122" transform="translate(36,27)"/>
<path d="M0,0 Z " fill="#220000" transform="translate(33,26)"/>
<path d="M0,0 Z " fill="#110000" transform="translate(34,25)"/>
<path d="M0,0 Z " fill="#220011" transform="translate(33,25)"/>
<path d="M0,0 Z " fill="#110011" transform="translate(56,24)"/>
<path d="M0,0 Z " fill="#110011" transform="translate(40,24)"/>
<path d="M0,0 Z " fill="#220000" transform="translate(35,24)"/>
<path d="M0,0 Z " fill="#220011" transform="translate(34,24)"/>
<path d="M0,0 Z " fill="#220000" transform="translate(78,23)"/>
<path d="M0,0 Z " fill="#110011" transform="translate(75,23)"/>
<path d="M0,0 Z " fill="#110011" transform="translate(62,23)"/>
<path d="M0,0 Z " fill="#110011" transform="translate(60,23)"/>
<path d="M0,0 Z " fill="#220011" transform="translate(35,23)"/>
<path d="M0,0 Z " fill="#220011" transform="translate(79,22)"/>
<path d="M0,0 Z " fill="#000000" transform="translate(56,22)"/>
<path d="M0,0 Z " fill="#110000" transform="translate(35,22)"/>
<path d="M0,0 Z " fill="#220011" transform="translate(34,22)"/>
<path d="M0,0 Z " fill="#220000" transform="translate(80,21)"/>
<path d="M0,0 Z " fill="#110000" transform="translate(79,21)"/>
<path d="M0,0 Z " fill="#110000" transform="translate(34,21)"/>
<path d="M0,0 Z " fill="#220011" transform="translate(33,21)"/>
<path d="M0,0 Z " fill="#220011" transform="translate(81,20)"/>
<path d="M0,0 Z " fill="#110000" transform="translate(80,20)"/>
<path d="M0,0 Z " fill="#110000" transform="translate(33,20)"/>
<path d="M0,0 Z " fill="#220011" transform="translate(32,20)"/>
<path d="M0,0 Z " fill="#110000" transform="translate(81,19)"/>
<path d="M0,0 Z " fill="#110000" transform="translate(79,18)"/>
<path d="M0,0 Z " fill="#001111" transform="translate(57,18)"/>
<path d="M0,0 Z " fill="#110011" transform="translate(50,18)"/>
<path d="M0,0 Z " fill="#001111" transform="translate(49,18)"/>
<path d="M0,0 Z " fill="#110011" transform="translate(36,18)"/>
<path d="M0,0 Z " fill="#220011" transform="translate(31,18)"/>
<path d="M0,0 Z " fill="#110000" transform="translate(82,17)"/>
<path d="M0,0 Z " fill="#110000" transform="translate(31,17)"/>
<path d="M0,0 Z " fill="#000011" transform="translate(77,16)"/>
<path d="M0,0 Z " fill="#110000" transform="translate(76,16)"/>
<path d="M0,0 Z " fill="#000011" transform="translate(64,16)"/>
<path d="M0,0 Z " fill="#000011" transform="translate(56,16)"/>
<path d="M0,0 Z " fill="#000011" transform="translate(53,16)"/>
<path d="M0,0 Z " fill="#000000" transform="translate(74,15)"/>
<path d="M0,0 Z " fill="#220000" transform="translate(82,14)"/>
<path d="M0,0 Z " fill="#000000" transform="translate(73,14)"/>
<path d="M0,0 Z " fill="#111111" transform="translate(50,14)"/>
<path d="M0,0 Z " fill="#000000" transform="translate(44,14)"/>
<path d="M0,0 Z " fill="#111111" transform="translate(39,14)"/>
<path d="M0,0 Z " fill="#000011" transform="translate(32,14)"/>
<path d="M0,0 Z " fill="#110011" transform="translate(54,12)"/>
<path d="M0,0 Z " fill="#110000" transform="translate(31,12)"/>
<path d="M0,0 Z " fill="#111111" transform="translate(52,11)"/>
<path d="M0,0 Z " fill="#111122" transform="translate(35,11)"/>
<path d="M0,0 Z " fill="#110000" transform="translate(32,11)"/>
<path d="M0,0 Z " fill="#000000" transform="translate(78,10)"/>
<path d="M0,0 Z " fill="#110000" transform="translate(33,10)"/>
<path d="M0,0 Z " fill="#110011" transform="translate(76,9)"/>
<path d="M0,0 Z " fill="#110011" transform="translate(36,9)"/>
<path d="M0,0 Z " fill="#000000" transform="translate(75,8)"/>
<path d="M0,0 Z " fill="#110011" transform="translate(74,8)"/>
<path d="M0,0 Z " fill="#111111" transform="translate(63,8)"/>
<path d="M0,0 Z " fill="#110011" transform="translate(38,8)"/>
<path d="M0,0 Z " fill="#220000" transform="translate(36,8)"/>
<path d="M0,0 Z " fill="#110000" transform="translate(73,7)"/>
<path d="M0,0 Z " fill="#110011" transform="translate(72,7)"/>
<path d="M0,0 Z " fill="#111122" transform="translate(70,7)"/>
<path d="M0,0 Z " fill="#220000" transform="translate(38,7)"/>
<path d="M0,0 Z " fill="#110000" transform="translate(71,6)"/>
<path d="M0,0 Z " fill="#111122" transform="translate(46,6)"/>
<path d="M0,0 Z " fill="#000011" transform="translate(43,6)"/>
<path d="M0,0 Z " fill="#110000" transform="translate(42,6)"/>
<path d="M0,0 Z " fill="#220000" transform="translate(41,6)"/>
<path d="M0,0 Z " fill="#000011" transform="translate(45,5)"/>
<path d="M0,0 Z " fill="#220000" transform="translate(43,5)"/>
<path d="M0,0 Z " fill="#220000" transform="translate(68,4)"/>
<path d="M0,0 Z " fill="#110011" transform="translate(60,4)"/>
<path d="M0,0 Z " fill="#000011" transform="translate(48,4)"/>
<path d="M0,0 Z " fill="#000000" transform="translate(47,4)"/>
<path d="M0,0 Z " fill="#220000" transform="translate(45,4)"/>
<path d="M0,0 Z " fill="#220011" transform="translate(46,3)"/>
</svg>
