<?xml version="1.0" encoding="UTF-8"?>
<svg xmlns="http://www.w3.org/2000/svg" viewBox="0 0 320 320" width="300" height="300">
  <style>rect{shape-rendering:crispEdges}</style>
  <g fill="#8a002e">
    <rect x="0" y="0" width="320" height="10"/>
    <rect x="0" y="10" width="320" height="10"/>
    <rect x="0" y="20" width="320" height="10"/>
    <rect x="0" y="30" width="120" height="10"/>
    <rect x="200" y="30" width="120" height="10"/>
    <rect x="0" y="40" width="90" height="10"/>
    <rect x="230" y="40" width="90" height="10"/>
    <rect x="0" y="50" width="80" height="10"/>
    <rect x="240" y="50" width="80" height="10"/>
    <rect x="0" y="60" width="80" height="10"/>
    <rect x="260" y="60" width="60" height="10"/>
    <rect x="0" y="70" width="70" height="10"/>
    <rect x="260" y="70" width="60" height="10"/>
    <rect x="0" y="80" width="60" height="10"/>
    <rect x="260" y="80" width="60" height="10"/>
    <rect x="0" y="90" width="60" height="10"/>
    <rect x="250" y="90" width="70" height="10"/>
    <rect x="0" y="100" width="60" height="10"/>
    <rect x="250" y="100" width="70" height="10"/>
    <rect x="0" y="110" width="60" height="10"/>
    <rect x="250" y="110" width="70" height="10"/>
    <rect x="0" y="120" width="70" height="10"/>
    <rect x="250" y="120" width="70" height="10"/>
    <rect x="0" y="130" width="70" height="10"/>
    <rect x="250" y="130" width="70" height="10"/>
    <rect x="0" y="140" width="60" height="10"/>
    <rect x="250" y="140" width="70" height="10"/>
    <rect x="0" y="150" width="60" height="10"/>
    <rect x="250" y="150" width="70" height="10"/>
    <rect x="0" y="160" width="60" height="10"/>
    <rect x="250" y="160" width="70" height="10"/>
    <rect x="0" y="170" width="70" height="10"/>
    <rect x="250" y="170" width="70" height="10"/>
    <rect x="0" y="180" width="70" height="10"/>
    <rect x="250" y="180" width="70" height="10"/>
    <rect x="0" y="190" width="80" height="10"/>
    <rect x="240" y="190" width="80" height="10"/>
    <rect x="0" y="200" width="90" height="10"/>
    <rect x="240" y="200" width="80" height="10"/>
    <rect x="0" y="210" width="80" height="10"/>
    <rect x="240" y="210" width="80" height="10"/>
    <rect x="0" y="220" width="70" height="10"/>
    <rect x="240" y="220" width="80" height="10"/>
    <rect x="0" y="230" width="60" height="10"/>
    <rect x="230" y="230" width="90" height="10"/>
    <rect x="0" y="240" width="20" height="10"/>
    <rect x="270" y="240" width="50" height="10"/>
    <rect x="0" y="250" width="10" height="10"/>
    <rect x="280" y="250" width="40" height="10"/>
    <rect x="300" y="260" width="20" height="10"/>
    <rect x="300" y="270" width="20" height="10"/>
    <rect x="310" y="280" width="10" height="10"/>
    <rect x="310" y="290" width="10" height="10"/>
  </g>
  <g fill="#400713">
    <rect x="120" y="30" width="10" height="10"/>
    <rect x="150" y="30" width="40" height="10"/>
    <rect x="250" y="80" width="10" height="10"/>
    <rect x="250" y="240" width="20" height="10"/>
  </g>
  <g fill="#110c02">
    <rect x="130" y="30" width="20" height="10"/>
    <rect x="190" y="30" width="10" height="10"/>
    <rect x="230" y="50" width="10" height="10"/>
    <rect x="250" y="60" width="10" height="10"/>
    <rect x="240" y="120" width="10" height="10"/>
    <rect x="60" y="160" width="10" height="10"/>
    <rect x="210" y="170" width="30" height="10"/>
    <rect x="70" y="180" width="10" height="10"/>
    <rect x="240" y="180" width="10" height="10"/>
    <rect x="230" y="190" width="10" height="10"/>
    <rect x="90" y="220" width="10" height="10"/>
    <rect x="60" y="230" width="10" height="10"/>
    <rect x="110" y="230" width="10" height="10"/>
    <rect x="10" y="250" width="10" height="10"/>
    <rect x="220" y="250" width="10" height="10"/>
    <rect x="0" y="260" width="10" height="10"/>
    <rect x="160" y="260" width="10" height="10"/>
    <rect x="180" y="260" width="10" height="10"/>
    <rect x="220" y="260" width="10" height="10"/>
    <rect x="290" y="260" width="10" height="10"/>
    <rect x="250" y="300" width="10" height="10"/>
    <rect x="310" y="300" width="10" height="10"/>
    <rect x="210" y="310" width="10" height="10"/>
    <rect x="310" y="310" width="10" height="10"/>
  </g>
  <g fill="#0d0a00">
    <rect x="90" y="40" width="10" height="10"/>
    <rect x="80" y="50" width="10" height="10"/>
    <rect x="250" y="70" width="10" height="10"/>
    <rect x="60" y="90" width="10" height="10"/>
    <rect x="60" y="110" width="10" height="10"/>
    <rect x="240" y="110" width="10" height="10"/>
    <rect x="60" y="140" width="10" height="10"/>
    <rect x="60" y="150" width="10" height="10"/>
    <rect x="240" y="150" width="10" height="10"/>
    <rect x="240" y="160" width="10" height="10"/>
    <rect x="70" y="170" width="10" height="10"/>
    <rect x="240" y="170" width="10" height="10"/>
    <rect x="90" y="200" width="10" height="10"/>
    <rect x="90" y="230" width="10" height="10"/>
    <rect x="220" y="240" width="10" height="10"/>
    <rect x="140" y="250" width="10" height="10"/>
    <rect x="210" y="250" width="10" height="10"/>
    <rect x="240" y="250" width="10" height="10"/>
    <rect x="190" y="260" width="20" height="10"/>
    <rect x="190" y="270" width="10" height="10"/>
    <rect x="220" y="270" width="10" height="10"/>
    <rect x="250" y="270" width="10" height="10"/>
    <rect x="120" y="280" width="10" height="10"/>
    <rect x="220" y="280" width="10" height="10"/>
    <rect x="240" y="280" width="10" height="10"/>
    <rect x="120" y="290" width="10" height="10"/>
    <rect x="280" y="310" width="10" height="10"/>
  </g>
  <g fill="#121002">
    <rect x="100" y="40" width="10" height="10"/>
    <rect x="220" y="40" width="10" height="10"/>
    <rect x="70" y="70" width="10" height="10"/>
    <rect x="70" y="120" width="10" height="10"/>
    <rect x="70" y="130" width="10" height="10"/>
    <rect x="240" y="130" width="10" height="10"/>
    <rect x="130" y="140" width="10" height="10"/>
    <rect x="140" y="150" width="20" height="10"/>
    <rect x="210" y="150" width="20" height="10"/>
    <rect x="80" y="210" width="20" height="10"/>
    <rect x="60" y="240" width="10" height="10"/>
    <rect x="230" y="240" width="20" height="10"/>
    <rect x="60" y="250" width="10" height="10"/>
    <rect x="270" y="250" width="10" height="10"/>
    <rect x="20" y="260" width="10" height="10"/>
    <rect x="60" y="260" width="10" height="10"/>
    <rect x="150" y="260" width="10" height="10"/>
    <rect x="170" y="260" width="10" height="10"/>
    <rect x="280" y="260" width="10" height="10"/>
    <rect x="60" y="270" width="30" height="10"/>
    <rect x="110" y="270" width="10" height="10"/>
    <rect x="280" y="270" width="10" height="10"/>
    <rect x="280" y="280" width="10" height="10"/>
    <rect x="300" y="280" width="10" height="10"/>
    <rect x="70" y="290" width="10" height="10"/>
    <rect x="160" y="290" width="10" height="10"/>
    <rect x="180" y="290" width="10" height="10"/>
    <rect x="220" y="290" width="10" height="10"/>
    <rect x="300" y="290" width="10" height="10"/>
    <rect x="160" y="300" width="10" height="10"/>
    <rect x="210" y="300" width="10" height="10"/>
    <rect x="280" y="300" width="10" height="10"/>
    <rect x="40" y="310" width="10" height="10"/>
    <rect x="130" y="310" width="10" height="10"/>
  </g>
  <g fill="#434722">
    <rect x="110" y="40" width="20" height="10"/>
    <rect x="200" y="40" width="10" height="10"/>
    <rect x="110" y="50" width="10" height="10"/>
    <rect x="140" y="50" width="10" height="10"/>
    <rect x="220" y="50" width="10" height="10"/>
    <rect x="230" y="60" width="10" height="10"/>
    <rect x="130" y="70" width="20" height="10"/>
    <rect x="230" y="70" width="10" height="10"/>
    <rect x="110" y="80" width="10" height="10"/>
    <rect x="200" y="80" width="20" height="10"/>
    <rect x="100" y="100" width="10" height="10"/>
    <rect x="80" y="130" width="10" height="10"/>
    <rect x="80" y="150" width="10" height="10"/>
    <rect x="130" y="160" width="20" height="10"/>
    <rect x="230" y="160" width="10" height="10"/>
    <rect x="200" y="190" width="10" height="10"/>
    <rect x="100" y="220" width="10" height="10"/>
    <rect x="120" y="240" width="10" height="10"/>
    <rect x="130" y="260" width="10" height="10"/>
  </g>
  <g fill="#645e2d">
    <rect x="130" y="40" width="10" height="10"/>
    <rect x="170" y="50" width="10" height="10"/>
    <rect x="80" y="70" width="10" height="10"/>
    <rect x="210" y="240" width="10" height="10"/>
    <rect x="200" y="250" width="10" height="10"/>
    <rect x="120" y="270" width="10" height="10"/>
  </g>
  <g fill="#606638">
    <rect x="140" y="40" width="10" height="10"/>
    <rect x="150" y="50" width="20" height="10"/>
    <rect x="210" y="50" width="10" height="10"/>
    <rect x="170" y="60" width="10" height="10"/>
    <rect x="200" y="60" width="10" height="10"/>
    <rect x="90" y="70" width="20" height="10"/>
    <rect x="80" y="90" width="10" height="10"/>
    <rect x="100" y="90" width="10" height="10"/>
    <rect x="80" y="100" width="20" height="10"/>
    <rect x="80" y="110" width="20" height="10"/>
    <rect x="140" y="120" width="40" height="10"/>
    <rect x="140" y="260" width="10" height="10"/>
    <rect x="210" y="270" width="10" height="10"/>
    <rect x="210" y="280" width="10" height="10"/>
    <rect x="130" y="290" width="10" height="10"/>
    <rect x="150" y="300" width="10" height="10"/>
    <rect x="190" y="300" width="10" height="10"/>
  </g>
  <g fill="#a59661">
    <rect x="150" y="40" width="40" height="10"/>
    <rect x="220" y="60" width="10" height="10"/>
    <rect x="90" y="80" width="20" height="10"/>
    <rect x="90" y="90" width="10" height="10"/>
    <rect x="120" y="160" width="10" height="10"/>
    <rect x="180" y="170" width="10" height="10"/>
    <rect x="150" y="200" width="10" height="10"/>
    <rect x="150" y="210" width="10" height="10"/>
    <rect x="200" y="270" width="10" height="10"/>
    <rect x="140" y="300" width="10" height="10"/>
    <rect x="140" y="310" width="10" height="10"/>
  </g>
  <g fill="#81703c">
    <rect x="190" y="40" width="10" height="10"/>
    <rect x="210" y="70" width="10" height="10"/>
    <rect x="80" y="80" width="10" height="10"/>
    <rect x="180" y="80" width="10" height="10"/>
    <rect x="230" y="110" width="10" height="10"/>
    <rect x="120" y="150" width="10" height="10"/>
    <rect x="180" y="150" width="10" height="10"/>
    <rect x="110" y="160" width="10" height="10"/>
    <rect x="200" y="170" width="10" height="10"/>
    <rect x="210" y="180" width="10" height="10"/>
    <rect x="180" y="230" width="20" height="10"/>
    <rect x="110" y="240" width="10" height="10"/>
    <rect x="120" y="250" width="10" height="10"/>
    <rect x="210" y="290" width="10" height="10"/>
    <rect x="200" y="310" width="10" height="10"/>
  </g>
  <g fill="#2b2a0f">
    <rect x="210" y="40" width="10" height="10"/>
    <rect x="70" y="80" width="10" height="10"/>
    <rect x="100" y="210" width="10" height="10"/>
    <rect x="70" y="260" width="10" height="10"/>
    <rect x="90" y="280" width="10" height="10"/>
    <rect x="10" y="290" width="20" height="10"/>
    <rect x="90" y="290" width="20" height="10"/>
    <rect x="200" y="290" width="10" height="10"/>
    <rect x="230" y="290" width="10" height="10"/>
    <rect x="100" y="300" width="20" height="10"/>
    <rect x="230" y="300" width="20" height="10"/>
    <rect x="20" y="310" width="10" height="10"/>
    <rect x="100" y="310" width="20" height="10"/>
    <rect x="230" y="310" width="10" height="10"/>
  </g>
  <g fill="#221f0a">
    <rect x="90" y="50" width="10" height="10"/>
    <rect x="80" y="60" width="10" height="10"/>
    <rect x="200" y="130" width="10" height="10"/>
    <rect x="90" y="140" width="10" height="10"/>
    <rect x="140" y="140" width="10" height="10"/>
    <rect x="200" y="140" width="10" height="10"/>
    <rect x="230" y="140" width="10" height="10"/>
    <rect x="80" y="160" width="10" height="10"/>
    <rect x="80" y="170" width="10" height="10"/>
    <rect x="160" y="270" width="20" height="10"/>
    <rect x="190" y="280" width="10" height="10"/>
    <rect x="170" y="290" width="10" height="10"/>
    <rect x="120" y="300" width="10" height="10"/>
  </g>
  <g fill="#23240b">
    <rect x="100" y="50" width="10" height="10"/>
    <rect x="130" y="50" width="10" height="10"/>
    <rect x="110" y="70" width="10" height="10"/>
    <rect x="220" y="160" width="10" height="10"/>
    <rect x="40" y="250" width="20" height="10"/>
    <rect x="70" y="250" width="10" height="10"/>
    <rect x="90" y="250" width="10" height="10"/>
    <rect x="40" y="260" width="10" height="10"/>
    <rect x="20" y="270" width="10" height="10"/>
    <rect x="40" y="270" width="10" height="10"/>
    <rect x="100" y="270" width="10" height="10"/>
    <rect x="240" y="270" width="10" height="10"/>
    <rect x="50" y="280" width="10" height="10"/>
    <rect x="110" y="280" width="10" height="10"/>
    <rect x="160" y="280" width="10" height="10"/>
    <rect x="270" y="280" width="10" height="10"/>
    <rect x="50" y="290" width="10" height="10"/>
    <rect x="250" y="290" width="10" height="10"/>
    <rect x="270" y="290" width="10" height="10"/>
    <rect x="260" y="300" width="20" height="10"/>
    <rect x="0" y="310" width="10" height="10"/>
    <rect x="240" y="310" width="10" height="10"/>
    <rect x="270" y="310" width="10" height="10"/>
  </g>
  <g fill="#65592d">
    <rect x="120" y="50" width="10" height="10"/>
    <rect x="190" y="80" width="10" height="10"/>
    <rect x="70" y="90" width="10" height="10"/>
    <rect x="110" y="100" width="10" height="10"/>
    <rect x="80" y="140" width="10" height="10"/>
    <rect x="90" y="150" width="10" height="10"/>
    <rect x="90" y="160" width="20" height="10"/>
    <rect x="110" y="210" width="10" height="10"/>
    <rect x="220" y="210" width="10" height="10"/>
    <rect x="150" y="250" width="10" height="10"/>
    <rect x="200" y="300" width="10" height="10"/>
  </g>
  <g fill="#b6a36c">
    <rect x="180" y="50" width="20" height="10"/>
    <rect x="210" y="60" width="10" height="10"/>
    <rect x="220" y="70" width="10" height="10"/>
    <rect x="200" y="120" width="10" height="10"/>
    <rect x="120" y="130" width="10" height="10"/>
    <rect x="120" y="170" width="10" height="10"/>
    <rect x="180" y="180" width="10" height="10"/>
    <rect x="140" y="190" width="10" height="10"/>
    <rect x="160" y="200" width="10" height="10"/>
    <rect x="160" y="230" width="10" height="10"/>
    <rect x="130" y="270" width="10" height="10"/>
    <rect x="140" y="280" width="10" height="10"/>
  </g>
  <g fill="#8f7b45">
    <rect x="200" y="50" width="10" height="10"/>
    <rect x="130" y="80" width="10" height="10"/>
    <rect x="160" y="80" width="20" height="10"/>
    <rect x="110" y="170" width="10" height="10"/>
    <rect x="120" y="180" width="10" height="10"/>
    <rect x="150" y="180" width="20" height="10"/>
    <rect x="150" y="190" width="10" height="10"/>
    <rect x="170" y="200" width="30" height="10"/>
    <rect x="130" y="230" width="10" height="10"/>
    <rect x="150" y="240" width="10" height="10"/>
  </g>
  <g fill="#393719">
    <rect x="90" y="60" width="10" height="10"/>
    <rect x="180" y="60" width="10" height="10"/>
    <rect x="190" y="70" width="20" height="10"/>
    <rect x="220" y="80" width="10" height="10"/>
    <rect x="240" y="90" width="10" height="10"/>
    <rect x="80" y="120" width="20" height="10"/>
    <rect x="130" y="130" width="10" height="10"/>
    <rect x="210" y="130" width="30" height="10"/>
    <rect x="70" y="140" width="10" height="10"/>
    <rect x="120" y="140" width="10" height="10"/>
    <rect x="130" y="150" width="10" height="10"/>
    <rect x="160" y="150" width="10" height="10"/>
    <rect x="230" y="150" width="10" height="10"/>
    <rect x="170" y="160" width="10" height="10"/>
    <rect x="80" y="190" width="10" height="10"/>
    <rect x="100" y="190" width="10" height="10"/>
    <rect x="110" y="220" width="10" height="10"/>
    <rect x="100" y="230" width="10" height="10"/>
    <rect x="110" y="260" width="10" height="10"/>
    <rect x="210" y="260" width="10" height="10"/>
    <rect x="190" y="290" width="10" height="10"/>
    <rect x="130" y="300" width="10" height="10"/>
  </g>
  <g fill="#2e3213">
    <rect x="100" y="60" width="10" height="10"/>
    <rect x="140" y="60" width="30" height="10"/>
    <rect x="190" y="60" width="10" height="10"/>
    <rect x="150" y="70" width="40" height="10"/>
    <rect x="110" y="90" width="10" height="10"/>
    <rect x="230" y="90" width="10" height="10"/>
    <rect x="70" y="100" width="10" height="10"/>
    <rect x="240" y="100" width="10" height="10"/>
    <rect x="70" y="110" width="10" height="10"/>
    <rect x="100" y="110" width="10" height="10"/>
    <rect x="90" y="130" width="20" height="10"/>
    <rect x="140" y="130" width="40" height="10"/>
    <rect x="110" y="140" width="10" height="10"/>
    <rect x="170" y="150" width="10" height="10"/>
    <rect x="160" y="160" width="10" height="10"/>
  </g>
  <g fill="#25290c">
    <rect x="110" y="60" width="30" height="10"/>
    <rect x="120" y="70" width="10" height="10"/>
    <rect x="100" y="150" width="10" height="10"/>
    <rect x="150" y="160" width="10" height="10"/>
    <rect x="210" y="160" width="10" height="10"/>
    <rect x="90" y="260" width="10" height="10"/>
    <rect x="0" y="280" width="30" height="10"/>
    <rect x="0" y="290" width="10" height="10"/>
    <rect x="70" y="310" width="10" height="10"/>
  </g>
  <g fill="#23230e">
    <rect x="240" y="60" width="10" height="10"/>
    <rect x="150" y="140" width="10" height="10"/>
    <rect x="90" y="240" width="20" height="10"/>
    <rect x="230" y="260" width="10" height="10"/>
    <rect x="250" y="260" width="30" height="10"/>
    <rect x="180" y="270" width="10" height="10"/>
    <rect x="260" y="270" width="10" height="10"/>
    <rect x="290" y="270" width="10" height="10"/>
    <rect x="40" y="280" width="10" height="10"/>
    <rect x="60" y="280" width="20" height="10"/>
    <rect x="170" y="280" width="20" height="10"/>
    <rect x="290" y="280" width="10" height="10"/>
    <rect x="40" y="290" width="10" height="10"/>
    <rect x="240" y="290" width="10" height="10"/>
    <rect x="260" y="290" width="10" height="10"/>
    <rect x="290" y="290" width="10" height="10"/>
    <rect x="290" y="300" width="10" height="10"/>
  </g>
  <g fill="#5d4e21">
    <rect x="240" y="70" width="10" height="10"/>
    <rect x="120" y="80" width="10" height="10"/>
    <rect x="230" y="80" width="10" height="10"/>
    <rect x="100" y="120" width="10" height="10"/>
    <rect x="70" y="150" width="10" height="10"/>
    <rect x="70" y="160" width="10" height="10"/>
    <rect x="80" y="180" width="10" height="10"/>
    <rect x="90" y="190" width="10" height="10"/>
    <rect x="170" y="190" width="30" height="10"/>
    <rect x="210" y="190" width="10" height="10"/>
    <rect x="200" y="280" width="10" height="10"/>
  </g>
  <g fill="#0a0401">
    <rect x="60" y="80" width="10" height="10"/>
    <rect x="60" y="100" width="10" height="10"/>
    <rect x="180" y="140" width="20" height="10"/>
    <rect x="130" y="170" width="40" height="10"/>
    <rect x="230" y="200" width="10" height="10"/>
    <rect x="230" y="210" width="10" height="10"/>
    <rect x="70" y="220" width="10" height="10"/>
    <rect x="230" y="220" width="10" height="10"/>
    <rect x="130" y="250" width="10" height="10"/>
    <rect x="150" y="270" width="10" height="10"/>
  </g>
  <g fill="#a5894f">
    <rect x="140" y="80" width="20" height="10"/>
    <rect x="120" y="90" width="10" height="10"/>
    <rect x="210" y="90" width="20" height="10"/>
    <rect x="120" y="100" width="10" height="10"/>
    <rect x="120" y="110" width="20" height="10"/>
    <rect x="120" y="120" width="10" height="10"/>
    <rect x="180" y="120" width="10" height="10"/>
    <rect x="230" y="120" width="10" height="10"/>
    <rect x="180" y="160" width="10" height="10"/>
    <rect x="220" y="190" width="10" height="10"/>
    <rect x="200" y="200" width="10" height="10"/>
    <rect x="140" y="210" width="10" height="10"/>
    <rect x="190" y="210" width="20" height="10"/>
    <rect x="140" y="220" width="10" height="10"/>
    <rect x="170" y="230" width="10" height="10"/>
    <rect x="200" y="240" width="10" height="10"/>
  </g>
  <g fill="#26250f">
    <rect x="240" y="80" width="10" height="10"/>
    <rect x="100" y="140" width="10" height="10"/>
    <rect x="210" y="140" width="20" height="10"/>
    <rect x="200" y="150" width="10" height="10"/>
    <rect x="0" y="270" width="10" height="10"/>
    <rect x="270" y="270" width="10" height="10"/>
    <rect x="80" y="280" width="10" height="10"/>
    <rect x="260" y="280" width="10" height="10"/>
    <rect x="80" y="300" width="10" height="10"/>
    <rect x="170" y="300" width="10" height="10"/>
    <rect x="30" y="310" width="10" height="10"/>
    <rect x="90" y="310" width="10" height="10"/>
    <rect x="120" y="310" width="10" height="10"/>
    <rect x="170" y="310" width="20" height="10"/>
    <rect x="290" y="310" width="10" height="10"/>
  </g>
  <g fill="#c6a66e">
    <rect x="130" y="90" width="30" height="10"/>
    <rect x="130" y="100" width="30" height="10"/>
    <rect x="200" y="100" width="10" height="10"/>
    <rect x="140" y="110" width="70" height="10"/>
    <rect x="190" y="120" width="10" height="10"/>
    <rect x="190" y="160" width="10" height="10"/>
    <rect x="130" y="190" width="10" height="10"/>
    <rect x="140" y="200" width="10" height="10"/>
    <rect x="210" y="220" width="10" height="10"/>
    <rect x="150" y="230" width="10" height="10"/>
    <rect x="210" y="230" width="10" height="10"/>
    <rect x="170" y="240" width="30" height="10"/>
  </g>
  <g fill="#ccaf77">
    <rect x="160" y="90" width="50" height="10"/>
    <rect x="160" y="100" width="40" height="10"/>
    <rect x="210" y="100" width="20" height="10"/>
    <rect x="210" y="110" width="20" height="10"/>
    <rect x="190" y="170" width="10" height="10"/>
    <rect x="190" y="180" width="20" height="10"/>
    <rect x="130" y="220" width="10" height="10"/>
    <rect x="150" y="220" width="30" height="10"/>
    <rect x="190" y="220" width="20" height="10"/>
  </g>
  <g fill="#75602c">
    <rect x="230" y="100" width="10" height="10"/>
    <rect x="110" y="110" width="10" height="10"/>
    <rect x="110" y="120" width="10" height="10"/>
    <rect x="110" y="130" width="10" height="10"/>
    <rect x="180" y="130" width="10" height="10"/>
    <rect x="110" y="150" width="10" height="10"/>
    <rect x="100" y="170" width="10" height="10"/>
    <rect x="170" y="170" width="10" height="10"/>
    <rect x="100" y="180" width="20" height="10"/>
    <rect x="170" y="180" width="10" height="10"/>
    <rect x="220" y="180" width="20" height="10"/>
    <rect x="110" y="190" width="20" height="10"/>
    <rect x="160" y="190" width="10" height="10"/>
    <rect x="110" y="200" width="20" height="10"/>
    <rect x="220" y="200" width="10" height="10"/>
    <rect x="120" y="210" width="10" height="10"/>
    <rect x="120" y="220" width="10" height="10"/>
    <rect x="120" y="230" width="10" height="10"/>
    <rect x="130" y="240" width="20" height="10"/>
    <rect x="160" y="250" width="40" height="10"/>
  </g>
  <g fill="#9e8249">
    <rect x="130" y="120" width="10" height="10"/>
    <rect x="210" y="120" width="20" height="10"/>
    <rect x="190" y="150" width="10" height="10"/>
    <rect x="130" y="180" width="20" height="10"/>
    <rect x="210" y="200" width="10" height="10"/>
    <rect x="160" y="210" width="30" height="10"/>
    <rect x="210" y="210" width="10" height="10"/>
    <rect x="220" y="220" width="10" height="10"/>
    <rect x="140" y="230" width="10" height="10"/>
    <rect x="200" y="230" width="10" height="10"/>
    <rect x="220" y="230" width="10" height="10"/>
    <rect x="160" y="240" width="10" height="10"/>
  </g>
  <g fill="#c1ad79">
    <rect x="190" y="130" width="10" height="10"/>
    <rect x="130" y="200" width="10" height="10"/>
    <rect x="130" y="210" width="10" height="10"/>
    <rect x="180" y="220" width="10" height="10"/>
    <rect x="110" y="250" width="10" height="10"/>
    <rect x="120" y="260" width="10" height="10"/>
    <rect x="140" y="270" width="10" height="10"/>
    <rect x="130" y="280" width="10" height="10"/>
  </g>
  <g fill="#1c1d07">
    <rect x="160" y="140" width="10" height="10"/>
    <rect x="90" y="170" width="10" height="10"/>
    <rect x="70" y="230" width="20" height="10"/>
    <rect x="40" y="240" width="20" height="10"/>
    <rect x="70" y="240" width="20" height="10"/>
    <rect x="230" y="250" width="10" height="10"/>
    <rect x="250" y="250" width="20" height="10"/>
    <rect x="10" y="260" width="10" height="10"/>
    <rect x="30" y="260" width="10" height="10"/>
    <rect x="100" y="260" width="10" height="10"/>
    <rect x="240" y="260" width="10" height="10"/>
    <rect x="250" y="280" width="10" height="10"/>
    <rect x="140" y="290" width="10" height="10"/>
    <rect x="220" y="300" width="10" height="10"/>
    <rect x="300" y="300" width="10" height="10"/>
    <rect x="50" y="310" width="10" height="10"/>
    <rect x="80" y="310" width="10" height="10"/>
    <rect x="150" y="310" width="20" height="10"/>
    <rect x="190" y="310" width="10" height="10"/>
    <rect x="250" y="310" width="10" height="10"/>
    <rect x="300" y="310" width="10" height="10"/>
  </g>
  <g fill="#181603">
    <rect x="170" y="140" width="10" height="10"/>
    <rect x="240" y="140" width="10" height="10"/>
    <rect x="200" y="160" width="10" height="10"/>
    <rect x="90" y="180" width="10" height="10"/>
    <rect x="100" y="200" width="10" height="10"/>
    <rect x="80" y="220" width="10" height="10"/>
    <rect x="20" y="240" width="20" height="10"/>
    <rect x="20" y="250" width="20" height="10"/>
    <rect x="100" y="250" width="10" height="10"/>
    <rect x="30" y="270" width="10" height="10"/>
    <rect x="30" y="280" width="10" height="10"/>
    <rect x="150" y="280" width="10" height="10"/>
    <rect x="30" y="290" width="10" height="10"/>
    <rect x="150" y="290" width="10" height="10"/>
    <rect x="280" y="290" width="10" height="10"/>
    <rect x="40" y="300" width="10" height="10"/>
    <rect x="70" y="300" width="10" height="10"/>
    <rect x="180" y="300" width="10" height="10"/>
  </g>
  <g fill="#25270c">
    <rect x="80" y="250" width="10" height="10"/>
    <rect x="50" y="260" width="10" height="10"/>
    <rect x="80" y="260" width="10" height="10"/>
    <rect x="10" y="270" width="10" height="10"/>
    <rect x="50" y="270" width="10" height="10"/>
    <rect x="90" y="270" width="10" height="10"/>
    <rect x="230" y="270" width="10" height="10"/>
    <rect x="100" y="280" width="10" height="10"/>
    <rect x="230" y="280" width="10" height="10"/>
    <rect x="60" y="290" width="10" height="10"/>
    <rect x="80" y="290" width="10" height="10"/>
    <rect x="110" y="290" width="10" height="10"/>
    <rect x="0" y="300" width="40" height="10"/>
    <rect x="50" y="300" width="20" height="10"/>
    <rect x="90" y="300" width="10" height="10"/>
    <rect x="10" y="310" width="10" height="10"/>
    <rect x="60" y="310" width="10" height="10"/>
    <rect x="220" y="310" width="10" height="10"/>
    <rect x="260" y="310" width="10" height="10"/>
  </g>
</svg>
