<?xml version="1.0" encoding="UTF-8"?>
<!-- Generator: visioncortex VTracer 0.6.5 -->
<svg version="1.1" xmlns="http://www.w3.org/2000/svg" width="60" height="60">
<path d="M0,0 L60,0 L60,60 L0,60 Z " fill="#10090F" transform="translate(0,0)"/>
<path d="M0,0 L60,0 L60,45 L49,42 L44,40 L43,38 L43,32 L44,30 L45,20 L49,15 L48,10 L36,4 L21,4 L11,9 L10,10 L11,17 L12,20 L12,27 L14,32 L15,35 L4,39 L0,41 Z " fill="#310015" transform="translate(0,0)"/>
<path d="M0,0 L15,0 L27,6 L29,9 L28,14 L25,17 L24,27 L21,30 L17,31 L16,34 L15,31 L12,32 L13,27 L12,25 L10,25 L9,30 L11,30 L11,32 L6,32 L5,40 L6,41 L16,41 L16,45 L14,45 L14,47 L5,46 L2,44 L1,40 L-1,40 L-2,37 L-4,36 L-6,32 L-9,28 L-10,24 L-10,15 L-12,12 L-12,7 L-7,3 Z " fill="#0F0B12" transform="translate(21,3)"/>
<path d="M0,0 L1,4 L4,4 L9,6 L10,4 L15,4 L15,8 L23,5 L28,5 L27,8 L25,9 L31,8 L31,12 L28,13 L26,18 L24,17 L24,15 L21,16 L22,11 L21,9 L19,9 L18,14 L20,14 L20,16 L15,16 L14,24 L15,25 L25,25 L25,29 L23,29 L23,31 L14,30 L11,28 L10,24 L8,24 L7,21 L5,20 L3,16 L0,12 L-1,8 L-1,1 Z " fill="#120C13" transform="translate(12,19)"/>
<path d="M0,0 L4,0 L4,3 L12,0 L17,0 L16,3 L14,4 L20,3 L20,7 L17,8 L15,13 L13,12 L13,10 L10,11 L11,6 L10,4 L8,4 L7,9 L9,9 L9,11 L4,11 L1,15 L2,10 L2,9 L0,10 L0,8 L-5,6 L-4,2 L3,5 L3,3 L0,3 Z " fill="#232D36" transform="translate(23,24)"/>
<path d="M0,0 L2,0 L5,8 L5,14 L1,13 L-4,7 L-5,3 L-1,4 Z " fill="#270A0B" transform="translate(10,38)"/>
<path d="M0,0 L3,1 L4,5 L3,8 L3,13 L5,13 L5,15 L-2,16 L-2,14 L1,14 L1,12 L-4,12 L-3,8 L1,8 L1,6 L-1,6 L-1,1 Z " fill="#201915" transform="translate(31,27)"/>
<path d="M0,0 L4,0 L4,3 L6,3 L5,10 L1,15 L2,10 L2,9 L0,10 L0,8 L-5,6 L-4,2 L3,5 L3,3 L0,3 Z " fill="#283741" transform="translate(23,24)"/>
<path d="M0,0 L12,0 L12,4 L10,4 L10,6 L1,5 Z " fill="#1C1C21" transform="translate(25,44)"/>
<path d="M0,0 L1,4 L-2,5 L-4,10 L-7,7 L-6,2 Z " fill="#1A1C24" transform="translate(42,27)"/>
<path d="M0,0 L5,0 L1,1 L1,4 L4,4 L4,6 L-1,5 L-3,4 L-5,6 L-4,1 L-1,2 Z " fill="#171B23" transform="translate(22,23)"/>
<path d="M0,0 L5,0 L4,3 L0,5 L-2,1 Z " fill="#273741" transform="translate(35,24)"/>
<path d="M0,0 L3,1 L4,5 L-1,5 Z " fill="#0E090E" transform="translate(31,27)"/>
<path d="M0,0 L1,4 L-4,6 L-5,3 Z " fill="#243139" transform="translate(42,27)"/>
<path d="M0,0 L4,3 L3,6 L0,3 Z " fill="#3A0D0D" transform="translate(7,43)"/>
<path d="M0,0 L5,0 L4,4 L3,2 L0,1 Z " fill="#202931" transform="translate(20,30)"/>
<path d="M0,0 L2,0 L0,5 L-1,1 Z " fill="#1D232B" transform="translate(18,24)"/>
<path d="M0,0 L2,4 L-1,3 Z " fill="#131219" transform="translate(33,28)"/>
<path d="M0,0 L2,0 L1,4 L-1,1 Z " fill="#15151C" transform="translate(41,24)"/>
<path d="M0,0 L2,2 L0,4 L0,2 L-2,1 Z " fill="#1D222B" transform="translate(32,31)"/>
</svg>
