<?xml version="1.0" encoding="UTF-8"?>
<!-- Generator: visioncortex VTracer 0.6.5 -->
<svg version="1.1" xmlns="http://www.w3.org/2000/svg" width="150" height="84">
<path d="M0,0 L150,0 L150,84 L0,84 Z " fill="#010507" transform="translate(0,0)"/>
<path d="M0,0 L31,0 L31,84 L-4,84 L-4,82 L-2,82 L-1,80 L1,81 L1,77 L-3,77 L-3,79 L-10,81 L-10,79 L-7,79 L-6,76 L1,75 L4,75 L4,73 L10,74 L10,72 L17,69 L19,65 L23,64 L24,60 L25,58 L27,58 L26,56 L26,48 L23,49 L21,57 L17,57 L18,61 L14,62 L15,57 L16,55 L19,55 L19,50 L21,50 L21,46 L22,45 L25,43 L24,39 L25,30 L22,30 L22,28 L20,29 L21,30 L21,38 L17,36 L15,32 L15,29 L12,29 L11,26 L16,28 L16,25 L14,25 L14,21 L12,21 L12,19 L14,18 L14,12 L10,10 L0,1 Z " fill="#262D30" transform="translate(119,0)"/>
<path d="M0,0 L31,0 L31,34 L28,30 L26,25 L26,22 L24,23 L23,30 L22,28 L20,29 L21,30 L21,38 L17,36 L15,32 L15,29 L12,29 L11,26 L16,28 L16,25 L14,25 L14,21 L12,21 L12,19 L14,18 L14,12 L10,10 L0,1 Z " fill="#141E1F" transform="translate(119,0)"/>
<path d="M0,0 L2,0 L1,5 L-1,5 L-1,7 L-3,7 L-3,4 L-8,5 L-10,11 L-12,11 L-12,13 L-6,12 L-6,17 L-10,17 L-10,20 L-16,22 L-17,25 L-25,25 L-33,27 L-33,33 L-42,35 L-45,36 L-55,35 L-53,40 L-74,40 L-74,36 L-82,36 L-83,34 L-75,34 L-75,32 L-71,32 L-71,34 L-64,34 L-64,32 L-59,32 L-55,32 L-50,32 L-50,30 L-46,30 L-44,26 L-41,26 L-41,28 L-37,27 L-36,24 L-32,23 L-30,21 L-30,23 L-28,23 L-30,19 L-32,20 L-44,20 L-42,17 L-39,17 L-39,19 L-37,19 L-37,17 L-27,15 L-25,16 L-25,13 L-22,13 L-20,16 L-16,16 L-17,6 L-15,6 L-14,8 L-8,3 L-7,1 L-3,2 L-1,3 Z " fill="#0C201E" transform="translate(135,44)"/>
<path d="M0,0 L7,1 L17,1 L28,4 L29,0 L30,2 L35,3 L36,10 L43,10 L52,13 L52,14 L-5,14 L-5,2 Z " fill="#070B0D" transform="translate(5,70)"/>
<path d="M0,0 L37,0 L35,4 L38,4 L38,6 L36,6 L36,10 L31,12 L30,18 L23,20 L20,22 L17,22 L17,19 L21,18 L22,14 L24,10 L27,9 L28,6 L34,6 L34,4 L27,5 L26,7 L17,8 L15,13 L17,13 L17,18 L7,18 L5,17 L0,17 Z " fill="#081217" transform="translate(0,0)"/>
<path d="M0,0 L2,0 L3,4 L6,3 L9,5 L10,10 L18,10 L18,7 L16,6 L21,6 L22,11 L15,21 L15,25 L17,25 L17,27 L12,27 L7,25 L7,27 L3,27 L3,29 L-1,29 L-1,2 Z " fill="#0B1822" transform="translate(1,40)"/>
<path d="M0,0 L7,1 L17,1 L28,4 L29,0 L30,2 L35,3 L36,10 L43,10 L52,13 L52,14 L31,14 L31,12 L24,13 L21,7 L17,5 L17,3 L-5,4 L-5,2 Z " fill="#101D20" transform="translate(5,70)"/>
<path d="M0,0 L16,0 L14,4 L17,4 L17,6 L15,6 L15,10 L10,12 L9,18 L2,20 L-1,22 L-4,22 L-4,19 L0,18 L1,14 L3,10 L6,9 L7,6 L13,6 L13,4 L1,5 Z " fill="#0F1B1C" transform="translate(21,0)"/>
<path d="M0,0 L21,0 L21,2 L16,2 L16,7 L11,7 L9,11 L4,10 L2,9 L3,12 L0,15 Z " fill="#010304" transform="translate(0,0)"/>
<path d="M0,0 L2,0 L2,14 L-19,14 L-18,12 L-13,9 Z " fill="#050507" transform="translate(148,70)"/>
<path d="M0,0 L2,0 L1,5 L-1,5 L-1,7 L-3,7 L-3,4 L-8,5 L-10,11 L-12,11 L-12,13 L-6,12 L-6,17 L-10,17 L-10,20 L-16,21 L-16,19 L-20,19 L-20,17 L-16,16 L-17,6 L-15,6 L-14,8 L-8,3 L-7,1 L-3,2 L-1,3 Z " fill="#2C3A3B" transform="translate(135,44)"/>
<path d="M0,0 L6,0 L7,8 L8,12 L4,12 L4,14 L9,16 L8,21 L4,21 L4,23 L0,23 Z " fill="#173037" transform="translate(0,46)"/>
<path d="M0,0 L22,0 L22,11 L17,11 L14,5 L4,6 L0,3 Z " fill="#020506" transform="translate(128,0)"/>
<path d="M0,0 L4,0 L4,2 L8,4 L10,7 L10,15 L4,16 L-2,13 L-2,11 L-4,11 L-3,8 L-1,9 Z " fill="#151E20" transform="translate(117,21)"/>
<path d="M0,0 L6,0 L6,3 L8,3 L7,8 L4,8 L4,10 L11,8 L11,6 L15,6 L15,10 L10,11 L10,13 L-9,13 L-7,11 L-2,11 L0,5 L3,4 L4,2 L0,2 Z " fill="#122020" transform="translate(105,71)"/>
<path d="M0,0 L3,0 L5,3 L5,6 L9,6 L9,8 L11,9 L9,9 L8,12 L2,12 L2,6 L-2,6 L-3,9 L-6,6 L-7,7 L-19,7 L-17,4 L-14,4 L-14,6 L-12,6 L-12,4 L-2,2 L0,3 Z " fill="#0D1618" transform="translate(110,57)"/>
<path d="M0,0 L1,3 L-1,6 L-8,8 L-22,8 L-24,6 L-24,3 L-12,3 L-5,1 L-1,2 Z " fill="#000303" transform="translate(104,76)"/>
<path d="M0,0 L2,0 L7,12 L7,28 L3,30 L3,26 L5,25 L6,20 L2,19 L1,18 L1,8 L-1,8 L-1,1 Z " fill="#3C4346" transform="translate(143,22)"/>
<path d="M0,0 L1,0 L1,5 L3,5 L3,9 L5,9 L6,12 L9,13 L9,28 L6,24 L4,19 L4,16 L2,16 L-2,6 L-2,1 Z " fill="#040607" transform="translate(141,6)"/>
<path d="M0,0 L6,3 L6,8 L3,9 L3,13 L7,11 L7,15 L5,15 L5,17 L2,17 L2,9 L-1,10 L-3,18 L-7,18 L-6,22 L-10,23 L-9,18 L-8,16 L-5,16 L-5,11 L-3,11 L-3,7 L-2,6 L1,4 Z " fill="#131B1D" transform="translate(143,39)"/>
<path d="M0,0 L2,0 L3,4 L6,3 L9,5 L9,10 L7,10 L10,21 L9,23 L15,24 L17,25 L17,27 L12,27 L8,25 L8,22 L4,21 L3,18 L7,18 L4,10 L5,6 L-1,6 Z " fill="#273339" transform="translate(1,40)"/>
<path d="M0,0 L4,0 L4,2 L11,2 L12,0 L12,3 L3,4 L2,6 L10,5 L11,4 L20,3 L22,8 L1,8 L1,4 L-7,4 L-8,2 L0,2 Z " fill="#131E1F" transform="translate(60,76)"/>
<path d="M0,0 L2,0 L2,4 L7,5 L6,14 L3,17 L-1,15 L-1,8 L0,5 L-4,9 L-6,10 L-5,5 L-1,3 Z " fill="#061215" transform="translate(23,21)"/>
<path d="M0,0 L7,1 L17,1 L22,3 L28,5 L27,9 L29,9 L28,13 L24,13 L21,7 L17,5 L17,3 L-5,4 L-5,2 Z " fill="#233031" transform="translate(5,70)"/>
<path d="M0,0 L7,0 L14,6 L11,7 L11,9 L5,11 L5,9 L3,9 L3,7 L-2,6 L-3,1 L1,3 Z " fill="#070E0F" transform="translate(112,0)"/>
<path d="M0,0 L2,0 L4,3 L4,6 L1,6 L1,9 L5,10 L4,14 L-4,11 L-4,8 L-6,7 L-3,2 Z " fill="#010A0B" transform="translate(25,49)"/>
<path d="M0,0 L3,0 L3,2 L7,1 L6,5 L9,7 L9,9 L5,11 L5,9 L1,7 L-7,10 L-10,9 L-10,7 L-6,5 L0,4 Z " fill="#1A2425" transform="translate(101,8)"/>
<path d="M0,0 L4,0 L4,2 L-1,3 Z M-4,3 L-1,3 L-1,5 L1,5 L0,9 L-4,8 L-4,10 L-13,12 L-13,10 L-11,9 L-10,4 Z " fill="#061414" transform="translate(89,66)"/>
<path d="M0,0 L3,1 L1,5 L-1,9 L-11,9 L-9,3 L-9,1 L-2,2 Z " fill="#0E1919" transform="translate(11,8)"/>
<path d="M0,0 L3,1 L-1,5 L-14,7 L-15,8 L-23,8 L-22,5 L-13,4 L-13,2 L-8,3 L0,2 Z " fill="#213130" transform="translate(85,74)"/>
<path d="M0,0 L10,0 L10,5 L6,5 L6,8 L0,9 L0,7 L-4,7 L-4,5 L0,4 Z " fill="#131C1E" transform="translate(119,56)"/>
<path d="M0,0 L2,0 L2,3 L4,3 L4,1 L7,0 L8,7 L2,6 L-3,9 L-7,9 L-7,7 L-5,6 L-5,3 L-3,3 L-3,1 Z " fill="#091A19" transform="translate(130,48)"/>
<path d="M0,0 L5,0 L6,5 L3,10 L-2,10 L-3,14 L-5,5 L2,5 L2,1 Z " fill="#222F30" transform="translate(17,46)"/>
<path d="M0,0 L4,4 L3,9 L5,9 L5,17 L1,15 L-1,11 L-1,8 L-4,8 L-5,5 L0,7 L-1,2 Z " fill="#0D1517" transform="translate(135,21)"/>
<path d="M0,0 L2,0 L2,7 L-1,7 L-2,11 L-5,14 L-9,14 L-8,10 L-6,10 L-5,6 L-4,4 L-2,4 L-2,2 L0,2 Z " fill="#363B3E" transform="translate(148,54)"/>
<path d="M0,0 L6,0 L7,11 L3,11 L3,8 L0,8 Z " fill="#070F10" transform="translate(0,46)"/>
<path d="M0,0 L10,0 L10,5 L5,8 L0,3 Z " fill="#0C191A" transform="translate(61,3)"/>
<path d="M0,0 L5,1 L7,3 L7,6 L5,6 L5,12 L2,12 L0,8 Z " fill="#1A2426" transform="translate(118,22)"/>
<path d="M0,0 L4,0 L4,4 L-1,5 L-1,7 L-12,7 L-8,6 L-10,2 L-7,2 L-7,4 L0,2 Z " fill="#020607" transform="translate(116,77)"/>
<path d="M0,0 L9,0 L12,5 L12,8 L7,7 L0,1 Z " fill="#3F4A4C" transform="translate(119,0)"/>
<path d="M0,0 L1,3 L-1,6 L-7,7 L-14,5 L-11,2 L-5,1 L-1,2 Z " fill="#02100F" transform="translate(104,76)"/>
<path d="M0,0 L4,0 L4,5 L-4,8 L-8,8 L-8,5 L-5,4 L-3,2 L-3,4 L-1,3 Z " fill="#162324" transform="translate(108,63)"/>
<path d="M0,0 L2,0 L5,10 L4,17 L2,17 L2,11 L1,8 L-1,8 L-1,1 Z " fill="#626B6E" transform="translate(143,22)"/>
<path d="M0,0 L4,0 L3,9 L-2,9 L-2,1 Z " fill="#162326" transform="translate(26,26)"/>
<path d="M0,0 L1,0 L1,5 L-13,14 L-14,11 L-12,9 L-9,9 L-9,7 L-3,4 L-1,4 Z " fill="#4F5559" transform="translate(149,65)"/>
<path d="M0,0 L4,2 L5,7 L3,9 L-2,9 L-1,2 Z " fill="#273235" transform="translate(7,25)"/>
<path d="M0,0 L2,0 L2,4 L9,4 L18,7 L18,8 L4,8 L1,5 Z " fill="#061315" transform="translate(39,76)"/>
<path d="M0,0 L2,0 L0,11 L-4,11 L-3,15 L-7,16 L-6,11 L-5,9 L-2,9 L-2,4 L0,4 Z " fill="#314141" transform="translate(140,46)"/>
<path d="M0,0 L6,0 L7,3 L6,5 L12,6 L14,7 L14,9 L9,9 L5,7 L5,4 L1,3 Z " fill="#41565D" transform="translate(4,58)"/>
<path d="M0,0 L6,0 L10,2 L10,4 L1,6 L-2,6 Z " fill="#1C3231" transform="translate(92,73)"/>
<path d="M0,0 L3,0 L3,2 L7,1 L6,5 L9,7 L9,9 L5,11 L5,9 L3,9 L3,4 L0,3 Z " fill="#1B2527" transform="translate(101,8)"/>
<path d="M0,0 L4,0 L6,5 L9,6 L10,12 L8,12 L7,8 L5,8 L5,6 L2,5 Z " fill="#354041" transform="translate(133,10)"/>
<path d="M0,0 L3,0 L3,4 L-4,8 L-8,9 L-8,6 L-2,2 Z " fill="#435051" transform="translate(25,13)"/>
<path d="M0,0 L8,0 L8,4 L3,4 L2,7 L0,7 Z " fill="#283332" transform="translate(0,0)"/>
<path d="M0,0 L9,0 L11,3 L1,5 Z " fill="#354243" transform="translate(21,0)"/>
<path d="M0,0 L1,0 L1,7 L-9,7 L-8,5 L-5,5 L-5,3 Z " fill="#1B1E22" transform="translate(149,77)"/>
<path d="M0,0 L3,0 L3,3 L0,3 L0,5 L-5,8 L-9,9 L-7,5 L-5,5 L-5,3 Z " fill="#0C0B0E" transform="translate(140,69)"/>
<path d="M0,0 L2,0 L3,5 L-5,6 L-5,2 Z " fill="#151C1E" transform="translate(85,62)"/>
<path d="M0,0 L7,1 L14,1 L15,3 L-5,4 L-5,2 Z " fill="#3D4244" transform="translate(5,70)"/>
<path d="M0,0 L5,0 L5,12 L2,8 L0,3 Z " fill="#06090B" transform="translate(145,22)"/>
<path d="M0,0 L2,0 L2,2 L10,2 L10,3 L3,3 L3,10 L1,10 L-1,6 Z " fill="#101C1C" transform="translate(9,48)"/>
<path d="M0,0 L5,5 L3,5 L4,10 L0,13 L0,9 L-2,9 L-2,7 L0,6 Z " fill="#141E20" transform="translate(133,12)"/>
<path d="M0,0 L9,0 L8,3 L4,3 L4,5 L0,5 Z " fill="#2E464B" transform="translate(0,64)"/>
<path d="M0,0 L4,1 L5,3 L2,3 L2,6 L-4,7 L-4,5 L-6,4 L-1,3 Z " fill="#4F5A5B" transform="translate(123,58)"/>
<path d="M0,0 L7,1 L7,5 L3,5 L2,9 Z " fill="#455358" transform="translate(12,51)"/>
<path d="M0,0 L6,0 L8,1 L6,8 L3,4 L0,3 Z " fill="#0C1919" transform="translate(0,22)"/>
<path d="M0,0 L8,0 L8,5 L7,2 L4,5 L-2,3 L0,2 Z " fill="#171F21" transform="translate(130,42)"/>
<path d="M0,0 L6,3 L6,8 L3,8 L-2,6 L1,4 Z " fill="#1C2326" transform="translate(143,39)"/>
<path d="M0,0 L3,0 L2,3 L-2,5 L-8,5 L-4,1 Z " fill="#504F54" transform="translate(131,79)"/>
<path d="M0,0 L12,0 L8,2 L7,3 L-1,3 Z " fill="#2B292F" transform="translate(63,79)"/>
<path d="M0,0 L3,0 L2,5 L1,8 L-3,8 L-2,4 Z " fill="#0B0E10" transform="translate(147,61)"/>
<path d="M0,0 L7,1 L8,6 L0,3 Z " fill="#061213" transform="translate(22,57)"/>
<path d="M0,0 L1,3 L6,2 L6,4 L8,5 L5,6 L5,4 L-1,7 L-5,5 L-2,4 Z " fill="#1D2023" transform="translate(138,65)"/>
<path d="M0,0 L5,1 L5,3 L1,4 L-7,4 L-5,2 L0,2 Z " fill="#243233" transform="translate(103,80)"/>
<path d="M0,0 L3,1 L1,5 L-1,9 L-4,9 L-4,6 L-2,6 Z " fill="#1C2A2F" transform="translate(11,8)"/>
<path d="M0,0 L4,4 L2,9 L0,9 L-1,2 Z " fill="#464F51" transform="translate(135,21)"/>
<path d="M0,0 L8,0 L7,5 L2,3 Z " fill="#4D5A5C" transform="translate(119,0)"/>
<path d="M0,0 L4,0 L4,3 L1,5 L-3,4 L-2,1 Z " fill="#3F4548" transform="translate(131,71)"/>
<path d="M0,0 L2,0 L1,3 L-5,5 L-9,5 L-8,2 L-1,1 Z " fill="#273636" transform="translate(109,66)"/>
<path d="M0,0 L4,2 L7,3 L8,7 L6,9 L5,4 L0,3 Z " fill="#030F13" transform="translate(20,64)"/>
<path d="M0,0 L2,0 L3,4 L-4,5 L-5,7 L-4,3 Z " fill="#071315" transform="translate(25,49)"/>
<path d="M0,0 L4,0 L5,2 L10,2 L9,4 L0,4 Z " fill="#121E21" transform="translate(17,2)"/>
<path d="M0,0 L2,0 L3,4 L-8,3 L-7,1 Z " fill="#111518" transform="translate(78,79)"/>
<path d="M0,0 L1,2 L3,3 L1,3 L0,6 L-4,6 L-4,2 L0,2 Z " fill="#222D2E" transform="translate(118,63)"/>
<path d="M0,0 L5,1 L5,6 L2,6 Z " fill="#3F494A" transform="translate(118,28)"/>
<path d="M0,0 L2,0 L0,4 L-2,4 L-4,10 L-6,10 L-5,5 L-1,3 Z " fill="#0D181D" transform="translate(23,21)"/>
<path d="M0,0 L10,2 L10,3 L-2,3 Z " fill="#172626" transform="translate(47,81)"/>
<path d="M0,0 L4,0 L4,2 L-1,3 Z M-4,3 L-1,3 L0,6 L-4,7 L-4,4 Z " fill="#061012" transform="translate(89,66)"/>
<path d="M0,0 L9,0 L5,4 L-2,2 Z " fill="#0D1F1E" transform="translate(92,79)"/>
<path d="M0,0 L1,2 L3,3 L1,3 L1,6 L-6,5 L-7,3 L-1,4 Z " fill="#0B1818" transform="translate(34,70)"/>
<path d="M0,0 L5,1 L0,5 L-4,5 L-4,3 L0,2 Z " fill="#050F0F" transform="translate(127,52)"/>
<path d="M0,0 L2,0 L2,8 L-2,8 L-1,2 Z " fill="#434F53" transform="translate(7,25)"/>
<path d="M0,0 L3,1 L2,4 L-5,6 L-5,4 L-1,2 Z " fill="#091718" transform="translate(131,63)"/>
<path d="M0,0 L3,0 L3,3 L8,2 L8,4 L0,5 Z " fill="#16232C" transform="translate(0,54)"/>
<path d="M0,0 L1,0 L1,7 L-3,9 L-3,5 L-1,4 Z " fill="#515A5C" transform="translate(149,43)"/>
<path d="M0,0 L2,1 L-2,5 L-5,6 L-4,2 Z " fill="#635E65" transform="translate(140,73)"/>
<path d="M0,0 L3,0 L3,2 L10,2 L10,3 L-2,3 Z " fill="#10191B" transform="translate(93,61)"/>
<path d="M0,0 L2,0 L3,5 L2,9 L0,9 Z " fill="#646C6E" transform="translate(145,30)"/>
<path d="M0,0 L3,3 L-1,6 L-3,6 L-1,1 Z " fill="#081012" transform="translate(90,16)"/>
<path d="M0,0 L2,0 L2,2 L4,2 L4,6 L0,5 Z " fill="#6E787A" transform="translate(146,13)"/>
<path d="M0,0 L2,0 L0,4 L-5,5 L-5,3 L-3,3 L-2,1 L0,2 Z " fill="#3F494A" transform="translate(120,79)"/>
<path d="M0,0 L7,0 L5,3 L0,3 Z " fill="#1B2527" transform="translate(80,70)"/>
<path d="M0,0 L4,1 L2,4 L-2,3 L-6,1 Z " fill="#101B1C" transform="translate(101,12)"/>
<path d="M0,0 L2,0 L1,5 L-2,6 L-2,2 L0,2 Z " fill="#50595B" transform="translate(148,54)"/>
<path d="M0,0 L6,0 L5,3 L0,3 Z " fill="#000305" transform="translate(0,46)"/>
<path d="M0,0 L1,0 L1,8 L-2,7 L-2,2 Z " fill="#0D1618" transform="translate(126,28)"/>
<path d="M0,0 L1,2 L3,3 L2,10 L1,10 L1,4 L-1,4 Z " fill="#192224" transform="translate(140,20)"/>
<path d="M0,0 L5,2 L6,6 L4,6 L4,4 L2,4 L2,2 L0,2 Z " fill="#455152" transform="translate(113,5)"/>
<path d="M0,0 L4,0 L4,3 L-1,4 Z " fill="#202D2F" transform="translate(30,6)"/>
<path d="M0,0 L2,0 L2,3 L-5,4 L-5,2 Z " fill="#49464A" transform="translate(5,70)"/>
<path d="M0,0 L2,1 L0,4 L-4,3 L-5,1 Z " fill="#1B2728" transform="translate(39,65)"/>
<path d="M0,0 L8,0 L4,1 L4,3 L0,3 Z " fill="#243133" transform="translate(0,66)"/>
<path d="M0,0 L1,2 L3,3 L-3,4 L-3,2 L-5,1 Z " fill="#3B4345" transform="translate(122,61)"/>
<path d="M0,0 L2,0 L3,7 L1,7 Z " fill="#000205" transform="translate(9,51)"/>
<path d="M0,0 L2,0 L2,8 L-1,6 Z " fill="#525A5C" transform="translate(138,30)"/>
<path d="M0,0 L5,0 L5,4 L3,4 L3,2 L1,2 L0,4 Z " fill="#303B3C" transform="translate(145,11)"/>
<path d="M0,0 L4,0 L4,4 L0,4 Z " fill="#354243" transform="translate(146,0)"/>
<path d="M0,0 L5,1 L4,5 L2,5 Z " fill="#324048" transform="translate(29,78)"/>
<path d="M0,0 L2,0 L1,5 L-2,6 Z " fill="#6A7678" transform="translate(135,44)"/>
<path d="M0,0 L4,2 L1,4 L-2,4 L-2,1 Z " fill="#202D31" transform="translate(19,18)"/>
<path d="M0,0 L5,1 L5,3 L2,4 L-1,2 Z " fill="#071112" transform="translate(107,11)"/>
<path d="M0,0 L6,0 L2,4 L0,3 Z " fill="#071112" transform="translate(128,0)"/>
<path d="M0,0 L4,1 L6,2 L5,4 L0,3 Z " fill="#121F20" transform="translate(22,57)"/>
<path d="M0,0 L2,0 L2,5 L-4,2 Z " fill="#2D3C3C" transform="translate(127,56)"/>
<path d="M0,0 L4,2 L2,5 L-1,5 Z " fill="#0B1718" transform="translate(17,43)"/>
<path d="M0,0 L1,3 L-1,3 L-1,5 L-4,5 L-3,2 Z " fill="#485153" transform="translate(149,77)"/>
<path d="M0,0 L2,0 L2,3 L5,4 L0,4 Z " fill="#0C1315" transform="translate(80,64)"/>
<path d="M0,0 L3,1 L2,4 L-2,5 L-2,3 L0,3 Z " fill="#576567" transform="translate(123,51)"/>
<path d="M0,0 L3,3 L-5,2 L-5,1 Z " fill="#101C1F" transform="translate(10,33)"/>
<path d="M0,0 L5,2 L5,7 L1,2 Z " fill="#051111" transform="translate(8,24)"/>
<path d="M0,0 L3,0 L3,2 L5,2 L5,4 L0,3 Z " fill="#4D595A" transform="translate(101,8)"/>
<path d="M0,0 L2,1 L1,4 L-3,3 Z " fill="#0C1012" transform="translate(122,80)"/>
<path d="M0,0 L4,1 L-1,3 L-3,1 Z " fill="#2B2E31" transform="translate(136,69)"/>
<path d="M0,0 L5,1 L5,3 L0,3 Z " fill="#020506" transform="translate(113,62)"/>
<path d="M0,0 L3,0 L4,4 L0,3 Z " fill="#151D1F" transform="translate(110,57)"/>
<path d="M0,0 L2,2 L2,5 L0,5 L-1,7 Z " fill="#475152" transform="translate(145,25)"/>
<path d="M0,0 L3,1 L3,7 L2,3 L0,3 Z " fill="#151F20" transform="translate(142,8)"/>
<path d="M0,0 L4,1 L4,4 L1,4 Z " fill="#2B3636" transform="translate(2,9)"/>
<path d="M0,0 L2,0 L2,4 L-2,3 Z " fill="#010203" transform="translate(148,80)"/>
<path d="M0,0 L5,0 L1,4 Z " fill="#030E10" transform="translate(80,79)"/>
<path d="M0,0 L3,0 L4,3 L0,4 Z " fill="#172827" transform="translate(133,58)"/>
<path d="M0,0 L2,0 L2,2 L4,3 L0,4 Z " fill="#2A3F47" transform="translate(2,58)"/>
<path d="M0,0 L3,0 L3,6 L0,2 Z " fill="#192224" transform="translate(147,28)"/>
<path d="M0,0 L2,1 L1,4 L-2,4 Z " fill="#394647" transform="translate(23,15)"/>
<path d="M0,0 L3,1 L2,5 L0,3 Z " fill="#040F11" transform="translate(113,13)"/>
<path d="M0,0 L3,0 L3,3 L-1,3 Z " fill="#182526" transform="translate(67,4)"/>
<path d="M0,0 L4,2 L4,3 L-1,3 Z " fill="#3C4C52" transform="translate(38,81)"/>
<path d="M0,0 L4,1 L3,3 L0,3 Z " fill="#141316" transform="translate(0,74)"/>
<path d="M0,0 L3,1 L3,4 L0,4 Z " fill="#000105" transform="translate(4,53)"/>
<path d="M0,0 L2,0 L2,4 L-1,3 Z " fill="#35424B" transform="translate(17,52)"/>
<path d="M0,0 L3,1 L2,5 L0,2 Z " fill="#000103" transform="translate(136,17)"/>
<path d="M0,0 L1,3 L-3,4 L-3,2 Z " fill="#3F4B4E" transform="translate(10,13)"/>
<path d="M0,0 L4,1 L2,4 L2,2 L0,2 Z " fill="#1A2833" transform="translate(34,80)"/>
<path d="M0,0 L2,0 L3,4 L0,3 Z " fill="#768082" transform="translate(145,30)"/>
<path d="M0,0 L2,0 L2,4 L0,4 L-1,1 Z " fill="#061012" transform="translate(104,6)"/>
<path d="M0,0 L3,0 L2,3 L0,3 Z " fill="#494A4E" transform="translate(141,65)"/>
<path d="M0,0 L2,1 L1,4 L-1,3 Z " fill="#08111A" transform="translate(3,41)"/>
<path d="M0,0 L2,0 L1,3 L-1,3 Z " fill="#213030" transform="translate(109,66)"/>
<path d="M0,0 L2,0 L1,3 L-1,1 Z " fill="#2D413F" transform="translate(124,49)"/>
</svg>
