<?xml version="1.0" encoding="UTF-8"?>
<!-- Generator: visioncortex VTracer 0.6.5 -->
<svg version="1.1" xmlns="http://www.w3.org/2000/svg" width="150" height="85">
<path d="M0,0 L150,0 L150,85 L0,85 Z " fill="#0F1114" transform="translate(0,0)"/>
<path d="M0,0 L5,1 L14,2 L20,2 L20,0 L24,1 L25,2 L26,10 L25,16 L31,18 L35,18 L36,22 L39,22 L40,18 L43,19 L43,21 L44,24 L46,23 L46,30 L45,35 L44,40 L42,42 L36,42 L35,35 L37,35 L37,33 L34,35 L33,40 L26,38 L25,39 L4,40 L1,45 L-1,44 L0,40 L-1,35 L0,34 L20,33 L19,30 L2,30 L-1,29 L-1,20 L1,11 L3,9 L1,8 L3,8 L3,3 L0,3 Z M24,17 Z " fill="#262E33" transform="translate(57,18)"/>
<path d="M0,0 L32,0 L31,4 L30,8 L-5,8 L-4,3 L0,3 Z " fill="#16161B" transform="translate(60,77)"/>
<path d="M0,0 L29,0 L29,8 L-4,8 L-3,3 L-1,3 Z " fill="#1E191C" transform="translate(121,77)"/>
<path d="M0,0 L2,1 L3,9 L2,15 L8,17 L12,17 L13,21 L16,21 L17,17 L20,18 L17,24 L13,25 L9,21 L-2,21 L-1,2 Z M1,16 Z " fill="#17252A" transform="translate(80,19)"/>
<path d="M0,0 L19,0 L21,4 L20,5 L0,6 L-2,9 L-3,5 L0,1 Z " fill="#191A1F" transform="translate(57,47)"/>
<path d="M0,0 L9,0 L9,5 L-15,5 L-12,2 L-1,1 Z " fill="#0F080D" transform="translate(141,80)"/>
<path d="M0,0 L5,0 L5,2 L8,2 L8,0 L11,0 L11,5 L-5,5 Z " fill="#180B13" transform="translate(67,80)"/>
<path d="M0,0 L11,0 L11,2 L6,3 L5,6 L-3,6 L-2,1 Z " fill="#32252A" transform="translate(120,79)"/>
<path d="M0,0 L24,0 L21,1 L21,3 L11,4 L1,1 L0,5 Z " fill="#151B1E" transform="translate(56,17)"/>
<path d="M0,0 L20,0 L20,1 L0,2 L0,4 L4,5 L2,10 L-1,10 L0,6 L-1,1 Z " fill="#25252A" transform="translate(57,52)"/>
<path d="M0,0 L5,2 L5,6 L-4,6 L-4,3 Z " fill="#322429" transform="translate(84,79)"/>
<path d="M0,0 L5,1 L14,2 L17,3 L13,5 L5,5 L3,6 L3,3 L0,3 Z " fill="#25272E" transform="translate(57,18)"/>
<path d="M0,0 L8,0 L8,5 L-1,4 Z " fill="#170C08" transform="translate(142,80)"/>
<path d="M0,0 L4,0 L7,6 L-2,6 L-2,4 L0,4 Z " fill="#27242D" transform="translate(30,79)"/>
<path d="M0,0 L1,0 L1,20 L-1,21 L-2,9 Z " fill="#111F26" transform="translate(103,41)"/>
<path d="M0,0 L6,1 L6,5 L-1,5 Z " fill="#221B20" transform="translate(56,80)"/>
<path d="M0,0 L2,2 L1,11 L-1,16 L-2,12 L-1,2 Z " fill="#231826" transform="translate(58,29)"/>
<path d="M0,0 L10,1 L11,5 L2,3 L0,2 Z " fill="#0F2022" transform="translate(82,35)"/>
<path d="M0,0 L3,1 L5,8 L2,6 L-1,6 L-1,1 Z " fill="#221E20" transform="translate(101,24)"/>
<path d="M0,0 L9,0 L7,7 L6,3 L0,2 Z " fill="#1F1A1F" transform="translate(83,78)"/>
<path d="M0,0 L5,0 L4,5 L1,4 L-1,3 Z " fill="#24333D" transform="translate(95,55)"/>
<path d="M0,0 L3,1 L3,5 L-2,5 L-2,1 Z " fill="#17232F" transform="translate(107,80)"/>
<path d="M0,0 L2,0 L3,5 L-1,5 Z " fill="#251D22" transform="translate(118,80)"/>
<path d="M0,0 L9,0 L7,3 L0,1 Z " fill="#18252B" transform="translate(65,20)"/>
<path d="M0,0 L4,0 L4,3 L0,3 Z " fill="#332A30" transform="translate(56,82)"/>
<path d="M0,0 L4,5 L1,6 Z " fill="#201D28" transform="translate(33,79)"/>
<path d="M0,0 L1,4 L-3,3 L-3,1 Z " fill="#162124" transform="translate(87,51)"/>
<path d="M0,0 L3,0 L2,3 L-1,3 Z " fill="#364852" transform="translate(95,55)"/>
<path d="M0,0 L2,0 L3,4 L0,4 Z " fill="#313135" transform="translate(100,26)"/>
<path d="M0,0 L2,0 L1,3 L-2,2 Z " fill="#16242D" transform="translate(94,52)"/>
</svg>
