<?xml version="1.0" encoding="UTF-8"?>
<!-- Generator: visioncortex VTracer 0.6.5 -->
<svg version="1.1" xmlns="http://www.w3.org/2000/svg" width="150" height="85">
<path d="M0,0 L150,0 L150,85 L0,85 Z " fill="#0D1014" transform="translate(0,0)"/>
<path d="M0,0 L12,1 L12,3 L18,1 L24,0 L27,9 L27,20 L34,20 L36,22 L40,23 L41,12 L43,11 L43,8 L47,8 L47,13 L45,13 L44,19 L42,23 L40,27 L39,29 L42,31 L42,33 L44,34 L44,43 L39,44 L37,43 L36,42 L32,45 L31,44 L24,43 L24,40 L5,41 L2,46 L0,45 L0,35 L22,34 L23,31 L17,32 L2,32 L2,30 L0,30 Z M42,22 Z " fill="#28242A" transform="translate(56,17)"/>
<path d="M0,0 Z M-20,1 L-8,1 L-5,4 L0,1 L-2,5 L-3,7 L0,9 L0,11 L2,12 L2,21 L-3,22 L-5,21 L-6,20 L-10,23 L-11,22 L-18,21 L-18,18 L-37,19 L-40,24 L-42,23 L-42,13 L-20,12 L-19,10 L-19,4 Z " fill="#292D32" transform="translate(98,39)"/>
<path d="M0,0 L5,1 L5,3 L19,3 L20,0 L23,0 L22,4 L22,19 L20,22 L3,22 L3,2 L0,2 Z " fill="#212F34" transform="translate(57,18)"/>
<path d="M0,0 L2,3 L3,7 L3,18 L10,18 L12,20 L16,21 L17,10 L19,9 L19,6 L23,6 L23,11 L21,11 L20,17 L15,24 L12,25 L10,22 L-3,21 L-2,18 L-2,2 L0,2 Z " fill="#152326" transform="translate(80,19)"/>
<path d="M0,0 L13,0 L15,3 L12,8 L-1,8 Z " fill="#1F1C21" transform="translate(124,77)"/>
<path d="M0,0 L12,1 L12,3 L18,1 L24,0 L21,1 L20,5 L10,5 L6,4 L5,2 L1,1 L1,3 L4,3 L5,11 L4,15 L2,15 L2,23 L1,23 Z " fill="#211727" transform="translate(56,17)"/>
<path d="M0,0 L7,0 L7,5 L3,5 L4,8 L-1,8 L-1,5 L-20,6 L-23,11 L-25,10 L-25,4 L-1,4 Z " fill="#232D30" transform="translate(81,52)"/>
<path d="M0,0 L4,1 L4,3 L6,4 L6,13 L1,14 L-1,13 Z " fill="#2C3D44" transform="translate(94,47)"/>
<path d="M0,0 L3,0 L3,24 L0,22 Z " fill="#1A272E" transform="translate(100,40)"/>
<path d="M0,0 L3,1 L2,5 L5,6 L1,9 L-1,8 L-1,6 L-5,6 L-5,4 L-7,3 Z M-9,4 L-7,5 Z " fill="#28201B" transform="translate(112,29)"/>
<path d="M0,0 L8,1 L8,3 L14,1 L20,0 L17,1 L16,5 L6,5 L2,4 Z " fill="#151F22" transform="translate(60,17)"/>
<path d="M0,0 L6,0 L6,5 L-7,5 L-7,3 L-1,1 Z " fill="#04090E" transform="translate(144,80)"/>
<path d="M0,0 L7,0 L10,3 L10,5 L0,5 Z " fill="#373028" transform="translate(0,80)"/>
<path d="M0,0 L2,3 L3,7 L3,18 L0,16 Z " fill="#112223" transform="translate(80,19)"/>
<path d="M0,0 L7,0 L10,2 L13,8 L10,8 L9,4 L0,3 Z " fill="#1F1C19" transform="translate(0,77)"/>
<path d="M0,0 L7,0 L7,5 L0,5 Z " fill="#312A25" transform="translate(128,80)"/>
<path d="M0,0 L1,0 L2,7 L1,8 L-4,8 L-3,2 Z " fill="#1C2329" transform="translate(91,77)"/>
<path d="M0,0 L10,0 L10,3 L7,7 L7,2 L0,2 Z " fill="#272423" transform="translate(128,78)"/>
<path d="M0,0 L4,1 L3,6 L-2,6 L-2,1 Z " fill="#1C2228" transform="translate(116,79)"/>
<path d="M0,0 L4,1 L4,3 L6,4 L5,5 L-1,5 Z " fill="#272429" transform="translate(48,80)"/>
<path d="M0,0 L5,1 L3,6 L0,6 Z " fill="#1F1F23" transform="translate(56,56)"/>
<path d="M0,0 L4,1 L4,7 L-1,6 L-1,4 L1,2 Z " fill="#31444C" transform="translate(95,51)"/>
<path d="M0,0 L2,0 L2,5 L-1,5 L-4,3 L-4,1 Z " fill="#2B3538" transform="translate(88,56)"/>
<path d="M0,0 L4,1 L4,4 L2,5 L2,8 L-1,7 Z " fill="#28373D" transform="translate(94,47)"/>
<path d="M0,0 L5,0 L5,2 L2,5 L0,5 Z " fill="#3A3332" transform="translate(128,80)"/>
<path d="M0,0 L2,1 L1,5 L-3,4 Z " fill="#343539" transform="translate(85,46)"/>
<path d="M0,0 L4,0 L4,5 L1,5 Z " fill="#2B2A2E" transform="translate(99,25)"/>
<path d="M0,0 L3,1 L1,3 L-4,3 L-5,5 L-5,2 Z " fill="#111315" transform="translate(141,80)"/>
<path d="M0,0 L4,0 L4,3 L0,3 Z " fill="#223137" transform="translate(87,82)"/>
<path d="M0,0 L3,0 L3,3 L0,4 Z " fill="#142023" transform="translate(85,52)"/>
<path d="M0,0 L2,0 L2,4 L-1,4 Z " fill="#233036" transform="translate(116,81)"/>
<path d="M0,0 L4,0 L3,3 L0,3 Z " fill="#0D0706" transform="translate(105,23)"/>
<path d="M0,0 L2,0 L2,4 L-1,3 Z " fill="#2C3C42" transform="translate(88,56)"/>
<path d="M0,0 L4,0 L4,2 L1,3 Z " fill="#465964" transform="translate(94,55)"/>
<path d="M0,0 L2,0 L2,3 L-1,3 Z " fill="#3D383B" transform="translate(49,82)"/>
<path d="M0,0 L3,1 L2,3 L-1,2 Z " fill="#33373B" transform="translate(84,40)"/>
<path d="M0,0 L3,0 L2,3 L0,2 Z " fill="#2F2C30" transform="translate(56,60)"/>
</svg>
