<?xml version="1.0" encoding="UTF-8"?>
<!-- Generator: visioncortex VTracer 0.6.5 -->
<svg version="1.1" xmlns="http://www.w3.org/2000/svg" width="150" height="84">
<path d="M0,0 L150,0 L150,84 L0,84 Z " fill="#5A5C65" transform="translate(0,0)"/>
<path d="M0,0 L66,0 L66,73 L57,75 L51,72 L51,69 L45,70 L45,72 L33,72 L37,68 L36,65 L41,62 L44,61 L45,63 L48,64 L50,58 L51,56 L47,60 L45,60 L45,58 L40,61 L36,62 L35,64 L31,60 L36,60 L39,59 L40,55 L38,55 L36,59 L36,56 L34,46 L34,44 L32,45 L35,53 L35,55 L32,55 L31,49 L29,49 L28,51 L23,48 L23,46 L16,46 L15,45 L2,45 L-2,45 L-2,44 L-7,44 L-8,45 L-6,47 L-12,46 L-11,43 L-13,43 L-15,49 L-18,49 L-20,55 L-22,56 L-22,50 L-26,50 L-26,59 L-21,59 L-20,63 L-15,64 L-9,68 L4,68 L4,70 L-1,71 L9,71 L16,72 L18,71 L29,71 L29,73 L21,75 L-1,75 L5,76 L5,78 L-6,77 L-8,76 L-8,78 L-1,79 L0,81 L-13,80 L-15,78 L-27,76 L-27,75 L-10,75 L-10,71 L-16,71 L-17,68 L-21,69 L-21,67 L-28,66 L-24,65 L-24,62 L-31,63 L-36,64 L-38,60 L-36,60 L-37,57 L-43,55 L-44,53 L-47,52 L-48,54 L-47,48 L-42,47 L-42,45 L-50,45 L-50,41 L-43,39 L-43,35 L-35,36 L-35,34 L-33,34 L-33,31 L-39,32 L-39,34 L-46,34 L-45,30 L-49,28 L-49,26 L-41,26 L-38,27 L-39,24 L-38,23 L-41,22 L-39,17 L-30,15 L-30,13 L-24,12 L-22,12 L-17,10 L-9,9 L-6,11 L-9,11 L-9,13 L-12,13 L-12,15 L-8,15 L-7,12 L2,13 L2,11 L8,11 L5,8 L0,7 L0,5 L19,3 L0,2 Z " fill="#030405" transform="translate(84,0)"/>
<path d="M0,0 L84,0 L84,2 L105,2 L103,4 L96,5 L84,5 L84,7 L91,8 L92,11 L86,11 L86,13 L77,13 L76,15 L72,15 L72,13 L75,13 L75,10 L65,12 L60,14 L60,12 L54,13 L55,16 L45,17 L43,22 L47,23 L46,27 L35,26 L35,28 L43,29 L39,31 L38,34 L45,34 L45,32 L51,31 L51,34 L49,34 L49,36 L41,35 L41,39 L37,41 L34,41 L34,45 L42,45 L42,47 L37,48 L37,50 L35,50 L35,52 L33,53 L34,57 L39,58 L39,60 L31,61 L34,64 L32,65 L32,63 L25,62 L25,58 L30,59 L30,48 L27,48 L29,56 L21,54 L21,52 L15,52 L15,49 L8,50 L8,45 L12,46 L14,47 L14,45 L12,45 L12,43 L14,43 L15,41 L9,43 L9,38 L2,39 L0,43 Z " fill="#010304" transform="translate(0,0)"/>
<path d="M0,0 L7,0 L8,4 L13,3 L12,6 L10,5 L10,7 L12,7 L12,9 L6,7 L6,12 L13,11 L13,14 L19,14 L19,16 L22,15 L22,17 L27,18 L25,15 L25,10 L28,10 L29,19 L28,21 L23,20 L24,23 L29,25 L29,28 L31,29 L28,30 L24,28 L17,28 L24,29 L28,31 L28,33 L30,33 L30,31 L35,33 L36,38 L28,37 L23,36 L23,40 L25,40 L25,38 L28,38 L28,40 L38,40 L38,37 L40,36 L39,34 L48,34 L50,37 L44,38 L46,44 L46,46 L-2,46 L-2,5 Z " fill="#6A737C" transform="translate(2,38)"/>
<path d="M0,0 L8,0 L14,1 L15,4 L0,2 L0,4 L-2,4 L-2,6 L1,4 L6,3 L11,5 L11,7 L17,7 L20,9 L25,10 L24,13 L20,17 L24,18 L24,20 L21,20 L20,22 L17,21 L17,19 L10,19 L9,18 L-4,18 L-8,18 L-8,17 L-13,17 L-14,18 L-12,20 L-18,19 L-17,16 L-19,16 L-21,22 L-24,22 L-26,28 L-28,29 L-28,23 L-32,23 L-32,32 L-27,32 L-26,36 L-21,37 L-15,41 L-2,41 L-2,43 L-7,44 L3,44 L10,45 L12,44 L23,44 L23,46 L15,48 L-7,48 L-1,49 L-1,51 L-12,50 L-14,49 L-14,51 L-7,52 L-6,54 L-19,53 L-21,51 L-33,49 L-33,48 L-16,48 L-16,44 L-22,44 L-23,41 L-27,42 L-27,40 L-34,39 L-30,38 L-30,35 L-37,36 L-42,37 L-44,33 L-42,33 L-43,30 L-47,29 L-49,23 L-47,20 L-42,20 L-38,15 L-37,11 L-39,11 L-39,8 L-32,6 L-28,14 L-23,14 L-19,12 L-18,5 L-14,5 L-14,7 L-11,6 L-12,9 L5,11 L9,12 L10,11 L8,10 L-3,9 L-5,8 L-3,2 Z " fill="#070507" transform="translate(90,27)"/>
<path d="M0,0 L2,1 L0,3 L2,3 L4,1 L11,1 L10,3 L13,2 L26,2 L27,3 L34,4 L34,6 L38,7 L40,14 L38,14 L40,20 L37,21 L37,19 L35,19 L35,21 L29,24 L26,27 L24,27 L24,25 L20,26 L20,28 L17,28 L17,26 L2,27 L-4,23 L-9,21 L-10,17 L-15,17 L-16,11 L-15,8 L-11,8 L-10,13 L-7,7 L-4,7 L-3,3 Z " fill="#696F6F" transform="translate(73,42)"/>
<path d="M0,0 L25,0 L27,5 L31,2 L34,3 L41,2 L41,4 L36,4 L40,8 L45,9 L51,8 L51,10 L47,10 L47,12 L45,12 L44,16 L40,15 L36,17 L34,19 L33,15 L28,16 L28,18 L25,18 L24,16 L20,15 L21,10 L22,9 L27,9 L27,11 L30,12 L30,8 L21,7 L17,7 L15,14 L13,14 L17,26 L19,24 L25,25 L26,22 L30,22 L30,26 L26,26 L26,28 L22,27 L23,30 L21,35 L24,37 L22,37 L22,39 L20,40 L18,43 L17,40 L12,37 L13,32 L8,34 L4,34 L4,30 L0,30 Z " fill="#313032" transform="translate(0,0)"/>
<path d="M0,0 L4,1 L1,3 L-2,3 L1,4 L1,7 L8,9 L10,4 L17,3 L13,5 L12,8 L19,8 L19,6 L25,5 L25,8 L23,8 L23,10 L15,9 L15,13 L11,15 L8,15 L8,19 L16,19 L16,21 L11,22 L11,24 L9,24 L9,26 L7,27 L8,31 L13,32 L13,34 L5,35 L8,38 L6,39 L6,37 L-1,36 L-1,32 L4,33 L4,22 L1,22 L3,30 L-5,28 L-5,26 L-11,26 L-11,23 L-18,24 L-18,19 L-14,20 L-12,21 L-12,19 L-14,19 L-14,17 L-12,17 L-11,15 L-17,17 L-17,12 L-24,13 L-26,17 L-26,4 L-22,4 L-21,8 L-17,6 L-13,6 L-13,11 L-7,14 L-4,13 L-6,7 L-4,3 L-4,1 L0,2 Z " fill="#2A2124" transform="translate(26,26)"/>
<path d="M0,0 L7,0 L8,4 L13,3 L12,6 L10,5 L10,7 L12,7 L12,9 L6,7 L6,12 L13,11 L13,14 L19,14 L19,16 L22,15 L22,17 L27,18 L25,15 L25,10 L28,10 L29,19 L28,21 L23,20 L24,23 L29,25 L29,28 L31,29 L28,30 L24,28 L13,28 L13,30 L9,30 L9,28 L5,29 L5,31 L9,32 L9,35 L2,35 L1,25 L1,20 L0,15 L-2,14 L-2,5 Z " fill="#757F8A" transform="translate(2,38)"/>
<path d="M0,0 L4,2 L3,4 L5,13 L6,12 L8,12 L7,16 L3,18 L2,19 L4,19 L9,16 L13,15 L13,17 L15,17 L17,13 L19,13 L17,19 L16,21 L12,20 L12,18 L7,22 L4,22 L4,24 L6,25 L3,28 L9,29 L9,30 L-5,31 L-3,30 L-3,28 L-8,29 L-14,29 L-19,30 L-26,29 L-34,29 L-33,27 L-28,27 L-28,25 L-26,25 L-26,27 L-23,27 L-24,24 L-19,24 L-19,26 L-15,25 L-14,22 L-8,20 L-8,18 L-3,19 L-5,16 L-5,13 L-3,13 L-5,7 L-1,6 L0,12 L3,12 L1,9 L-1,1 Z " fill="#1C1C1F" transform="translate(116,43)"/>
<path d="M0,0 L8,0 L7,7 L7,10 L9,10 L8,16 L4,18 L-2,18 L-7,19 L-10,17 L-19,18 L-20,11 L-25,13 L-29,13 L-29,10 L-21,8 L-21,2 L-14,2 L-15,4 L-15,10 L-13,13 L-6,15 L-6,13 L-9,13 L-9,6 L-7,2 Z " fill="#8C9299" transform="translate(97,47)"/>
<path d="M0,0 L9,0 L14,2 L14,6 L10,5 L11,3 L5,5 L4,9 L9,10 L9,12 L12,12 L12,10 L17,9 L19,11 L23,10 L24,17 L19,17 L19,19 L21,20 L19,20 L19,22 L22,23 L20,24 L19,29 L16,30 L11,27 L11,24 L8,25 L8,23 L13,21 L14,16 L10,17 L7,20 L6,18 L3,18 L1,22 L-3,12 L-3,8 L-1,8 Z " fill="#2A2D30" transform="translate(16,6)"/>
<path d="M0,0 L8,0 L14,1 L15,4 L0,2 L0,4 L-2,4 L-2,6 L1,4 L6,3 L11,5 L11,7 L17,7 L20,9 L25,10 L24,13 L20,17 L24,18 L24,20 L21,20 L20,22 L17,21 L17,19 L10,19 L9,18 L-4,18 L-8,18 L-8,17 L-13,16 L-10,15 L-10,11 L-2,11 L-2,13 L9,12 L10,11 L8,10 L-3,9 L-5,8 L-3,2 Z " fill="#2D2C29" transform="translate(90,27)"/>
<path d="M0,0 L47,0 L43,2 L37,2 L38,4 L53,5 L54,9 L48,8 L36,8 L35,10 L26,12 L22,12 L22,10 L26,10 L26,8 L18,10 L12,7 L11,4 L16,4 L16,2 L8,4 L8,2 L2,6 L0,4 Z " fill="#0D1214" transform="translate(25,0)"/>
<path d="M0,0 L2,1 L0,3 L2,3 L6,3 L6,5 L9,6 L5,8 L3,7 L3,13 L0,15 L-5,15 L-5,18 L4,16 L6,21 L5,23 L9,22 L13,26 L2,27 L-4,23 L-9,21 L-10,17 L-15,17 L-16,11 L-15,8 L-11,8 L-10,13 L-7,7 L-4,7 L-3,3 Z " fill="#393536" transform="translate(73,42)"/>
<path d="M0,0 L10,2 L13,3 L17,3 L17,6 L22,7 L22,10 L-21,10 L-22,6 L-24,6 L-24,4 L-2,1 Z " fill="#684038" transform="translate(128,74)"/>
<path d="M0,0 L10,0 L12,5 L16,2 L19,3 L26,2 L26,4 L21,4 L25,8 L30,9 L36,8 L36,10 L32,10 L32,12 L30,12 L29,16 L25,15 L21,17 L19,19 L18,15 L13,16 L13,18 L10,18 L9,16 L5,15 L6,10 L7,9 L12,9 L12,11 L15,12 L15,8 L6,7 L2,7 L0,5 Z " fill="#46494B" transform="translate(15,0)"/>
<path d="M0,0 L4,0 L4,2 L7,1 L6,4 L23,6 L25,8 L18,9 L16,8 L16,6 L8,6 L8,10 L5,10 L4,13 L6,15 L0,14 L1,11 L-1,11 L-3,17 L-6,17 L-8,23 L-10,24 L-10,18 L-15,19 L-16,14 L-16,11 L-14,11 L-15,9 L-19,10 L-19,6 L-21,6 L-21,3 L-14,1 L-10,9 L-5,9 L-1,7 Z " fill="#1E1D17" transform="translate(72,32)"/>
<path d="M0,0 L2,1 L2,3 L6,5 L11,10 L11,7 L9,6 L9,4 L12,4 L12,6 L16,8 L16,12 L18,12 L17,16 L15,16 L13,20 L12,22 L10,22 L10,20 L5,23 L1,24 L0,26 L-4,22 L1,22 L4,21 L5,17 L3,17 L1,21 L1,18 L-1,8 L0,4 Z " fill="#0D0B0B" transform="translate(119,38)"/>
<path d="M0,0 L1,2 L3,2 L4,0 L5,2 L9,3 L9,5 L16,7 L16,10 L14,10 L16,13 L21,12 L28,12 L28,15 L24,15 L24,13 L18,17 L12,18 L12,19 L6,20 L-1,16 L0,13 L-1,12 L-2,10 L7,10 L7,8 L2,7 L0,3 Z " fill="#4A4D4F" transform="translate(32,50)"/>
<path d="M0,0 L2,3 L4,6 L5,4 L11,5 L12,2 L16,2 L16,6 L12,6 L12,8 L8,7 L9,10 L7,15 L10,17 L8,17 L8,19 L6,20 L4,23 L3,20 L-2,17 L-1,12 L-6,14 L-10,14 L-10,10 L-14,9 L-5,9 L-4,5 L-2,5 L-2,3 L0,3 Z " fill="#3E4346" transform="translate(14,20)"/>
<path d="M0,0 L4,0 L5,4 L9,2 L13,2 L13,7 L19,10 L23,14 L23,17 L21,17 L21,19 L16,19 L16,21 L23,21 L25,22 L24,25 L21,24 L21,22 L15,22 L15,19 L8,20 L8,15 L12,16 L14,17 L14,15 L12,15 L12,13 L14,13 L15,11 L9,13 L9,8 L2,9 L0,13 Z " fill="#3E444B" transform="translate(0,30)"/>
<path d="M0,0 L2,1 L12,1 L19,2 L21,1 L32,1 L32,3 L24,5 L2,5 L8,6 L8,8 L-3,7 L-5,6 L-5,8 L2,9 L3,11 L-10,10 L-12,8 L-24,6 L-24,5 L-7,5 L-7,2 Z " fill="#282832" transform="translate(81,70)"/>
<path d="M0,0 L5,1 L7,0 L9,2 L6,2 L6,4 L11,5 L11,7 L16,7 L16,5 L18,5 L18,3 L21,3 L22,5 L27,7 L25,11 L22,12 L15,12 L11,10 L11,8 L9,8 L9,10 L5,10 L5,6 L-4,8 L-12,6 L-12,4 L-4,4 L-1,5 L-2,2 Z " fill="#050203" transform="translate(47,22)"/>
<path d="M0,0 L11,0 L10,2 L-2,5 L-7,7 L-7,5 L-13,6 L-12,9 L-22,10 L-24,15 L-20,16 L-21,20 L-30,19 L-32,18 L-32,16 L-27,16 L-29,8 L-24,7 L-23,8 L-22,5 L-7,2 Z " fill="#444648" transform="translate(67,7)"/>
<path d="M0,0 L4,0 L4,3 L10,5 L19,4 L19,12 L8,12 L8,11 L14,11 L14,8 L8,9 L5,7 L-3,6 L-11,8 L-21,9 L-27,8 L-26,5 L-2,3 L-2,1 Z " fill="#7C7B80" transform="translate(131,69)"/>
<path d="M0,0 L2,1 L1,2 L7,2 L12,1 L12,3 L6,6 L1,5 L3,14 L5,15 L5,17 L0,17 L-1,15 L-5,14 L-5,11 L-8,11 L-15,10 L-13,5 L-4,3 L-4,1 Z " fill="#121416" transform="translate(58,12)"/>
<path d="M0,0 L8,0 L14,1 L15,4 L0,2 L0,4 L-2,4 L-2,6 L1,4 L6,3 L11,5 L11,7 L17,7 L18,12 L17,14 L11,12 L9,16 L5,15 L10,11 L8,10 L-3,9 L-5,8 L-3,2 Z " fill="#211A1C" transform="translate(90,27)"/>
<path d="M0,0 L3,0 L4,9 L3,11 L-2,10 L-1,13 L-3,14 L-4,11 L-5,16 L-12,13 L-14,8 L-19,7 L-19,4 L-14,3 L-6,4 L-6,6 L-3,5 L-3,7 L2,8 L0,5 Z " fill="#525962" transform="translate(27,48)"/>
<path d="M0,0 L6,1 L13,10 L13,12 L15,12 L15,20 L10,18 L8,23 L4,21 L0,17 L0,15 L5,17 L9,17 L8,14 L0,12 L0,9 L8,10 L6,5 L1,2 Z " fill="#040608" transform="translate(135,6)"/>
<path d="M0,0 L4,0 L4,12 L-5,14 L-11,11 L-11,8 L-15,7 L-9,5 L-6,6 L-6,4 L-3,5 L-2,1 Z " fill="#212629" transform="translate(146,61)"/>
<path d="M0,0 L27,0 L27,5 L18,8 L13,8 L11,4 L16,4 L16,2 L8,4 L8,2 L2,6 L0,4 Z " fill="#1C2023" transform="translate(25,0)"/>
<path d="M0,0 L6,0 L5,5 L3,7 L3,10 L1,10 L0,15 L-1,16 L-9,16 L-8,9 L-5,9 L-5,4 L-3,4 L-3,1 Z " fill="#676668" transform="translate(9,8)"/>
<path d="M0,0 L9,0 L11,3 L5,4 L7,10 L7,12 L-15,12 L-15,10 L-12,8 L-2,8 L-1,3 L1,2 Z " fill="#5F6F7F" transform="translate(41,72)"/>
<path d="M0,0 L4,1 L4,7 L0,7 L0,9 L3,9 L3,11 L-6,11 L-11,12 L-18,11 L-26,11 L-25,9 L-20,9 L-20,7 L-18,7 L-18,9 L-15,9 L-16,6 L-11,6 L-11,8 L-7,7 L-6,4 L0,2 Z " fill="#32373B" transform="translate(108,61)"/>
<path d="M0,0 L2,2 L2,4 L10,5 L10,7 L16,7 L16,9 L21,9 L21,10 L-4,10 L-5,6 L-10,6 L-10,5 L-5,5 L-7,1 Z " fill="#383D4C" transform="translate(52,74)"/>
<path d="M0,0 L4,0 L4,2 L7,1 L6,4 L23,6 L25,8 L18,9 L16,8 L16,6 L8,6 L8,10 L5,10 L4,13 L6,15 L0,14 L1,11 L-7,12 L-7,10 L-1,7 Z " fill="#151515" transform="translate(72,32)"/>
<path d="M0,0 L12,0 L12,2 L33,2 L31,4 L24,5 L10,5 L10,2 L5,3 L-2,3 L-2,5 L-9,5 L-10,2 Z " fill="#363C3E" transform="translate(72,0)"/>
<path d="M0,0 L7,1 L7,3 L2,6 L-10,8 L-16,8 L-15,6 L-18,6 L-19,10 L-21,10 L-22,6 L-24,6 L-24,4 L-2,1 Z " fill="#2C1410" transform="translate(128,74)"/>
<path d="M0,0 L7,0 L13,2 L17,3 L20,4 L29,4 L29,6 L21,7 L21,13 L14,14 L11,13 L11,11 L8,11 L8,13 L6,13 L6,9 L18,10 L18,6 L13,4 L13,6 L11,6 L11,4 L-2,2 Z " fill="#292D2F" transform="translate(19,65)"/>
<path d="M0,0 L5,0 L6,2 L24,4 L25,2 L26,7 L18,6 L13,5 L13,9 L15,9 L15,7 L18,7 L18,9 L27,9 L27,11 L17,12 L14,13 L14,15 L12,15 L12,10 L11,6 L6,6 L0,3 Z " fill="#4B5660" transform="translate(12,69)"/>
<path d="M0,0 L17,0 L17,3 L20,3 L20,5 L-10,5 L-10,3 L0,3 Z " fill="#191F2A" transform="translate(85,79)"/>
<path d="M0,0 L8,0 L6,4 L5,7 L3,7 L3,11 L-4,11 L-6,8 L-5,3 Z " fill="#F8FAF6" transform="translate(97,47)"/>
<path d="M0,0 L5,1 L10,2 L12,6 L11,11 L5,11 L5,7 L-4,7 L-4,3 L0,2 Z " fill="#767F81" transform="translate(13,73)"/>
<path d="M0,0 L11,0 L26,1 L26,2 L31,3 L31,4 L25,4 L25,6 L27,6 L28,10 L26,10 L26,8 L23,8 L23,5 L11,6 L11,2 L4,2 Z " fill="#566069" transform="translate(79,74)"/>
<path d="M0,0 L4,1 L2,2 L3,9 L10,9 L10,5 L12,5 L13,2 L14,8 L16,8 L15,14 L12,14 L12,10 L6,10 L7,13 L-2,11 L-2,4 Z " fill="#9BA2A7" transform="translate(90,49)"/>
<path d="M0,0 L4,1 L1,2 L-1,13 L2,13 L2,15 L-5,14 L-8,10 L-8,4 Z " fill="#2E3237" transform="translate(89,47)"/>
<path d="M0,0 L6,0 L7,2 L18,3 L18,7 L0,7 Z " fill="#576363" transform="translate(0,77)"/>
<path d="M0,0 L2,1 L12,1 L19,2 L21,1 L32,1 L32,3 L24,5 L9,5 L-5,3 L-1,1 Z " fill="#11151A" transform="translate(81,70)"/>
<path d="M0,0 L4,2 L3,4 L5,13 L6,12 L8,12 L7,16 L3,18 L-2,16 L-2,14 L-4,14 L-5,16 L-5,13 L-3,13 L-5,7 L-1,6 L0,12 L3,12 L1,9 L-1,1 Z " fill="#474947" transform="translate(116,43)"/>
<path d="M0,0 L2,0 L4,5 L0,5 L-2,10 L2,11 L1,15 L-8,14 L-10,13 L-10,11 L-5,11 L-7,3 L-2,2 L-1,3 Z " fill="#303235" transform="translate(45,12)"/>
<path d="M0,0 L1,2 L3,2 L4,0 L5,2 L9,3 L9,5 L13,7 L13,11 L10,13 L3,13 L4,10 L7,10 L7,8 L2,7 L0,3 Z " fill="#6D5F6B" transform="translate(32,50)"/>
<path d="M0,0 L7,0 L8,4 L13,3 L12,6 L10,5 L10,7 L12,7 L12,9 L6,7 L5,9 L6,1 L1,1 L1,7 L4,7 L4,12 L3,13 L-2,13 L-2,5 Z " fill="#686869" transform="translate(2,38)"/>
<path d="M0,0 L3,0 L3,2 L0,4 L6,2 L16,2 L16,4 L3,6 L2,9 L-3,9 L-4,6 L-7,6 L-6,3 L0,2 Z " fill="#1A0B0E" transform="translate(72,19)"/>
<path d="M0,0 L2,0 L2,3 L8,4 L8,5 L-2,4 L-2,6 L1,7 L-2,8 L-3,11 L-4,10 L-12,10 L-11,12 L-15,13 L-14,8 L-6,8 L-6,6 L-12,5 L-8,3 L-3,2 Z " fill="#645554" transform="translate(54,63)"/>
<path d="M0,0 L2,0 L4,5 L3,7 L7,6 L11,10 L0,11 L-6,7 L-10,4 L-10,2 L-6,3 L-4,6 L2,9 L2,7 L0,7 L-1,3 L-3,4 L-5,2 Z " fill="#4F545E" transform="translate(75,58)"/>
<path d="M0,0 L2,3 L4,6 L3,11 L2,16 L4,17 L0,18 L-1,13 L-1,10 L1,10 L0,8 L-4,9 L-4,5 L-6,5 L-6,2 Z " fill="#231014" transform="translate(57,33)"/>
<path d="M0,0 L1,0 L1,5 L3,5 L3,9 L8,11 L6,12 L5,17 L-1,16 L-3,12 L-3,8 L-1,8 Z " fill="#050507" transform="translate(16,6)"/>
<path d="M0,0 L5,0 L5,11 L12,10 L12,13 L5,13 L4,15 L1,14 L1,19 L-1,18 L-1,14 L-3,12 L2,11 L3,6 L0,6 Z " fill="#6B747F" transform="translate(3,39)"/>
<path d="M0,0 L11,1 L11,3 L15,4 L17,11 L15,11 L17,17 L14,18 L13,15 L13,7 L9,6 L10,9 L7,9 L8,4 L9,2 L1,2 Z " fill="#84837C" transform="translate(96,45)"/>
<path d="M0,0 L4,2 L6,5 L3,8 L-2,7 L-3,11 L-2,15 L-4,15 L-5,13 L-8,12 L-9,14 L-8,8 L-3,7 L-3,5 L-9,5 L-9,4 L-2,3 L1,4 Z " fill="#111412" transform="translate(45,40)"/>
<path d="M0,0 L3,1 L4,11 L4,19 L2,23 L0,23 Z " fill="#525A66" transform="translate(0,52)"/>
<path d="M0,0 L3,0 L3,2 L6,3 L4,4 L3,9 L0,10 L-5,7 L-5,4 L-8,5 L-8,3 L-2,1 L0,2 Z " fill="#211416" transform="translate(32,26)"/>
<path d="M0,0 L9,0 L12,1 L12,3 L14,3 L14,1 L18,3 L18,5 L14,6 L0,4 Z " fill="#717A80" transform="translate(18,68)"/>
<path d="M0,0 L1,0 L3,10 L8,11 L8,13 L0,14 L3,17 L1,18 L1,16 L-6,15 L-6,11 L-1,12 L-1,1 Z " fill="#191B23" transform="translate(31,47)"/>
<path d="M0,0 L5,0 L6,3 L17,3 L17,5 L12,6 L12,8 L10,8 L10,10 L8,10 L5,6 L5,3 L3,3 L3,5 L0,5 Z " fill="#3F3D37" transform="translate(25,42)"/>
<path d="M0,0 L7,1 L9,2 L9,4 L15,4 L16,9 L15,11 L9,9 L7,13 L3,12 L8,8 L6,6 L8,6 L7,4 L-1,2 Z " fill="#171918" transform="translate(92,30)"/>
<path d="M0,0 L6,0 L7,7 L7,10 L9,19 L6,19 L5,13 L3,13 L2,15 L1,11 L4,11 L4,9 L0,8 L2,4 L5,1 L0,1 Z " fill="#242321" transform="translate(110,36)"/>
<path d="M0,0 L1,3 L11,4 L7,5 L7,7 L5,7 L5,9 L-7,9 L-3,5 L-4,2 Z " fill="#16181C" transform="translate(124,63)"/>
<path d="M0,0 L2,0 L0,6 L-1,8 L-5,7 L-5,5 L-10,9 L-13,9 L-13,11 L-17,11 L-16,6 L-13,6 L-8,3 L-4,2 L-4,4 L-2,4 Z " fill="#1B1E21" transform="translate(133,56)"/>
<path d="M0,0 L3,0 L2,6 L0,7 L-1,10 L-10,10 L-10,5 L-2,4 Z " fill="#25141C" transform="translate(10,19)"/>
<path d="M0,0 L5,0 L1,2 L0,5 L7,5 L7,3 L13,2 L13,5 L11,5 L11,7 L3,6 L3,10 L-1,10 L-2,8 L-2,1 Z " fill="#343939" transform="translate(38,29)"/>
<path d="M0,0 L9,0 L9,5 L6,6 L6,8 L0,8 Z " fill="#5F5F60" transform="translate(0,0)"/>
<path d="M0,0 L6,1 L11,8 L11,11 L9,11 L10,15 L0,12 L0,9 L8,10 L6,5 L1,2 Z " fill="#25292C" transform="translate(135,6)"/>
<path d="M0,0 L4,0 L5,4 L9,2 L13,2 L12,5 L9,7 L2,7 L1,13 L0,13 Z " fill="#141213" transform="translate(0,30)"/>
<path d="M0,0 L2,1 L2,3 L6,5 L11,10 L13,14 L13,17 L10,18 L6,9 L1,6 Z " fill="#282321" transform="translate(119,38)"/>
<path d="M0,0 L2,1 L0,3 L2,6 L1,10 L-1,14 L-2,14 L-2,9 L-6,11 L-8,13 L-7,7 L-4,7 L-3,3 Z " fill="#5F5E5B" transform="translate(73,42)"/>
<path d="M0,0 L10,0 L9,5 L6,7 L2,7 L0,5 Z " fill="#5D5E60" transform="translate(15,0)"/>
<path d="M0,0 L4,0 L4,3 L9,4 L9,7 L-3,7 L-3,1 Z " fill="#242D35" transform="translate(141,77)"/>
<path d="M0,0 L4,0 L4,2 L7,3 L3,5 L1,4 L1,10 L-2,12 L-7,12 L-8,14 L-8,11 L-5,11 L-5,7 L-7,6 L-3,5 L-3,10 L-1,6 Z " fill="#484849" transform="translate(75,45)"/>
<path d="M0,0 L11,0 L9,2 L5,3 L-2,3 L-2,5 L-9,5 L-10,2 Z " fill="#545F63" transform="translate(72,0)"/>
<path d="M0,0 L4,0 L4,4 L0,4 L0,6 L-4,5 L-3,8 L-8,9 L-7,2 L-1,3 Z " fill="#505767" transform="translate(26,22)"/>
<path d="M0,0 L3,0 L3,3 L10,4 L9,7 L6,7 L6,9 L3,9 L2,7 L-2,6 L-1,1 Z " fill="#57595B" transform="translate(22,9)"/>
<path d="M0,0 L4,2 L3,9 L-4,9 L-5,4 L-3,2 L0,2 Z " fill="#66534C" transform="translate(135,75)"/>
<path d="M0,0 L2,0 L5,3 L8,5 L8,9 L5,9 L5,6 L-1,8 L-1,3 L-8,3 L-8,2 L-1,1 Z " fill="#525150" transform="translate(10,35)"/>
<path d="M0,0 L5,1 L2,2 L2,4 L-7,5 L-8,6 L-15,6 L-13,4 L-6,1 Z " fill="#070C0D" transform="translate(73,9)"/>
<path d="M0,0 L3,1 L3,5 L6,5 L8,9 L10,10 L9,13 L3,10 L1,5 L-4,4 L-4,1 Z " fill="#3D444C" transform="translate(12,51)"/>
<path d="M0,0 L5,0 L5,5 L4,3 L-2,4 L-2,6 L-9,6 L-8,2 Z " fill="#010404" transform="translate(47,28)"/>
<path d="M0,0 L6,1 L12,3 L11,6 L-1,4 L-3,3 L-3,1 Z " fill="#66686A" transform="translate(61,70)"/>
<path d="M0,0 L1,4 L7,4 L8,8 L10,9 L7,10 L3,8 L-3,7 L-1,1 Z " fill="#696D73" transform="translate(23,58)"/>
<path d="M0,0 L4,1 L2,2 L3,7 L5,11 L7,13 L-2,11 L-2,4 Z " fill="#CCD5D8" transform="translate(90,49)"/>
<path d="M0,0 L4,3 L3,7 L5,7 L5,12 L4,10 L2,10 L0,14 L0,11 L-2,1 Z " fill="#2D2C25" transform="translate(120,45)"/>
<path d="M0,0 L7,1 L7,3 L3,5 L-9,5 L-8,2 Z " fill="#190F13" transform="translate(128,74)"/>
<path d="M0,0 L2,0 L4,6 L3,7 L5,9 L-1,8 L0,5 L-8,6 L-8,4 Z " fill="#212018" transform="translate(73,38)"/>
<path d="M0,0 L4,1 L4,4 L2,4 L4,7 L9,6 L16,6 L16,9 L12,9 L12,7 L7,10 L1,8 Z " fill="#2F312E" transform="translate(44,56)"/>
<path d="M0,0 L6,0 L6,2 L9,1 L11,5 L3,6 L3,4 L0,4 Z " fill="#6F7985" transform="translate(15,52)"/>
<path d="M0,0 L8,1 L13,2 L14,0 L15,4 L8,5 L5,4 L5,2 L2,2 L2,4 L0,4 Z " fill="#171E29" transform="translate(25,74)"/>
<path d="M0,0 L3,0 L3,6 L-6,8 L-8,6 L-1,2 Z " fill="#923422" transform="translate(147,67)"/>
<path d="M0,0 L3,1 L2,2 L2,11 L-1,12 L-2,8 L-4,7 L-3,2 L0,2 Z " fill="#9AA0A9" transform="translate(80,49)"/>
<path d="M0,0 L5,1 L1,2 L2,4 L10,4 L8,5 L8,7 L6,8 L4,11 L3,8 L-2,5 L-2,3 L0,3 Z " fill="#4F5656" transform="translate(14,32)"/>
<path d="M0,0 L11,0 L18,1 L18,3 L15,4 L14,6 L11,6 L11,2 L4,2 Z " fill="#676E7C" transform="translate(79,74)"/>
<path d="M0,0 L1,4 L7,3 L12,4 L12,5 L6,5 L6,9 L3,8 L3,6 L-3,6 L-3,4 L-1,4 Z " fill="#646E74" transform="translate(3,71)"/>
<path d="M0,0 L4,1 L5,4 L3,7 L5,8 L0,12 Z " fill="#7B8591" transform="translate(4,53)"/>
<path d="M0,0 L2,0 L2,5 L-7,8 L-12,8 L-14,4 L-5,5 Z " fill="#2D3134" transform="translate(50,0)"/>
<path d="M0,0 L4,2 L1,2 L1,7 L3,11 L1,11 L1,9 L-4,11 L-8,11 L-8,8 L0,6 Z " fill="#656669" transform="translate(76,49)"/>
<path d="M0,0 L1,4 L-2,9 L-6,9 L-6,5 L-10,4 L-1,4 Z " fill="#39343A" transform="translate(10,25)"/>
<path d="M0,0 L5,1 L5,5 L3,7 L2,9 L-2,9 Z " fill="#746B6E" transform="translate(4,12)"/>
<path d="M0,0 L9,0 L14,1 L10,2 L10,4 L1,4 Z " fill="#4F3D36" transform="translate(121,80)"/>
<path d="M0,0 L12,0 L18,1 L18,5 L13,4 L6,2 L0,1 Z " fill="#140609" transform="translate(57,75)"/>
<path d="M0,0 L2,0 L3,3 L8,5 L11,5 L10,9 L12,9 L12,11 L6,9 L4,5 L0,4 Z " fill="#181618" transform="translate(65,56)"/>
<path d="M0,0 L4,1 L6,4 L12,6 L16,6 L16,9 L10,9 L4,5 L0,2 Z " fill="#4F4847" transform="translate(65,60)"/>
<path d="M0,0 L2,0 L2,3 L5,2 L6,6 L8,7 L8,9 L3,9 L2,7 L-2,6 Z " fill="#0E1011" transform="translate(55,20)"/>
<path d="M0,0 L4,0 L4,2 L1,3 L-1,5 L-7,5 L-8,7 L-12,7 L-12,5 L-9,5 L-9,3 Z " fill="#4D565A" transform="translate(84,8)"/>
<path d="M0,0 L3,0 L5,9 L4,13 L2,8 L-1,8 L-2,4 Z " fill="#0D1417" transform="translate(115,25)"/>
<path d="M0,0 L1,0 L1,5 L3,5 L3,9 L7,11 L-3,12 L-3,8 L-1,8 Z " fill="#0C0C0C" transform="translate(16,6)"/>
<path d="M0,0 L2,1 L-1,4 L5,5 L5,6 L-9,7 L-6,5 L-5,1 Z " fill="#3E4043" transform="translate(120,67)"/>
<path d="M0,0 L1,0 L1,8 L4,8 L5,6 L5,11 L4,12 L-1,12 L-1,4 Z " fill="#55565A" transform="translate(1,39)"/>
<path d="M0,0 L3,0 L2,5 L-6,6 L-4,1 Z " fill="#020305" transform="translate(49,16)"/>
<path d="M0,0 L4,1 L3,3 L5,4 L3,6 L-6,5 L-6,2 L-2,3 Z " fill="#2A312B" transform="translate(101,39)"/>
<path d="M0,0 L1,0 L1,6 L-10,6 L-10,5 L-4,5 L-4,2 L-7,1 Z " fill="#5B6771" transform="translate(149,75)"/>
<path d="M0,0 L11,0 L10,2 L0,4 L-4,4 L-4,2 Z " fill="#434F52" transform="translate(67,7)"/>
<path d="M0,0 L4,0 L4,2 L12,4 L12,6 L5,5 L0,3 Z " fill="#727A8C" transform="translate(48,78)"/>
<path d="M0,0 L2,0 L2,4 L-1,4 L-2,7 L-5,7 L-5,4 L-9,3 L-3,1 L0,2 Z " fill="#282C34" transform="translate(140,65)"/>
<path d="M0,0 L7,0 L13,2 L15,4 L13,4 L13,6 L11,6 L11,4 L-2,2 Z " fill="#2E3439" transform="translate(19,65)"/>
<path d="M0,0 L5,0 L5,10 L3,10 L3,6 L0,6 Z " fill="#878989" transform="translate(3,39)"/>
<path d="M0,0 L1,0 L2,8 L0,9 L-1,12 L-4,12 L-2,3 L0,3 Z " fill="#695F66" transform="translate(14,20)"/>
<path d="M0,0 L2,1 L1,4 L5,4 L6,2 L8,6 L7,7 L-1,7 Z " fill="#594E54" transform="translate(1,17)"/>
<path d="M0,0 L5,0 L1,2 L-5,2 L-4,5 L-7,5 L-7,7 L-11,6 L-11,4 L-7,1 Z " fill="#273233" transform="translate(67,0)"/>
<path d="M0,0 L10,1 L10,3 L15,3 L15,4 L2,4 L2,1 Z " fill="#141420" transform="translate(58,80)"/>
<path d="M0,0 L6,1 L7,5 L3,7 L3,4 L-3,3 Z " fill="#030202" transform="translate(57,58)"/>
<path d="M0,0 L4,1 L8,0 L8,3 L4,5 L-1,5 Z " fill="#020503" transform="translate(63,37)"/>
<path d="M0,0 L14,0 L14,1 L7,2 L5,4 L0,5 Z " fill="#010304" transform="translate(53,0)"/>
<path d="M0,0 L14,0 L14,2 L5,3 L-1,2 Z " fill="#8A99A1" transform="translate(105,75)"/>
<path d="M0,0 L9,0 L11,3 L-1,4 L1,2 Z " fill="#828891" transform="translate(41,72)"/>
<path d="M0,0 L13,1 L9,4 L0,4 L-1,1 Z " fill="#33333A" transform="translate(54,73)"/>
<path d="M0,0 L4,1 L6,8 L3,8 L3,6 L-4,6 L0,4 Z " fill="#414441" transform="translate(104,40)"/>
<path d="M0,0 L6,0 L2,1 L3,4 L-6,5 L-10,5 L-8,3 L-2,1 Z " fill="#394234" transform="translate(92,40)"/>
<path d="M0,0 L5,3 L4,7 L0,8 L0,4 L-2,4 L-2,1 Z " fill="#361C20" transform="translate(53,34)"/>
<path d="M0,0 L5,0 L5,2 L3,2 L4,8 L1,8 L0,10 Z " fill="#080506" transform="translate(0,9)"/>
<path d="M0,0 L9,0 L11,1 L11,3 L0,3 Z " fill="#364143" transform="translate(6,81)"/>
<path d="M0,0 L5,0 L6,2 L11,3 L8,4 L8,6 L1,4 Z " fill="#4F595F" transform="translate(12,69)"/>
<path d="M0,0 L13,0 L11,4 L6,5 L7,2 L-1,2 Z " fill="#5C625B" transform="translate(86,44)"/>
<path d="M0,0 L10,0 L10,2 L5,3 L-3,3 L-3,1 Z " fill="#282628" transform="translate(78,21)"/>
<path d="M0,0 L4,0 L4,3 L6,4 L-3,5 L-6,3 L-2,3 L-2,1 Z " fill="#5A5A5C" transform="translate(131,69)"/>
<path d="M0,0 L3,1 L2,13 L0,14 Z " fill="#232D39" transform="translate(0,58)"/>
<path d="M0,0 L3,0 L4,4 L2,4 L4,10 L1,11 L0,8 Z " fill="#798185" transform="translate(109,52)"/>
<path d="M0,0 L2,0 L2,3 L-1,3 L1,11 L-3,10 L-4,5 L-3,2 L0,2 Z " fill="#0E0E10" transform="translate(28,45)"/>
<path d="M0,0 L3,0 L4,5 L-3,5 L-4,1 Z " fill="#383439" transform="translate(51,11)"/>
<path d="M0,0 L11,1 L15,4 L1,3 Z " fill="#817A88" transform="translate(53,76)"/>
<path d="M0,0 L5,0 L5,3 L0,5 L-5,6 L-3,2 L0,2 Z " fill="#672C17" transform="translate(142,67)"/>
<path d="M0,0 L4,1 L8,4 L7,12 L6,8 L4,8 L3,3 Z " fill="#13100E" transform="translate(119,44)"/>
<path d="M0,0 L3,1 L10,0 L10,2 L0,4 L-3,5 L-1,1 Z " fill="#56585A" transform="translate(31,2)"/>
<path d="M0,0 L1,2 L5,1 L6,3 L12,4 L11,8 L10,6 L3,4 L-2,4 L-2,1 Z " fill="#474839" transform="translate(62,67)"/>
<path d="M0,0 L5,0 L8,3 L6,8 L9,9 L4,8 L3,5 L5,5 L4,2 Z " fill="#231D1C" transform="translate(43,55)"/>
<path d="M0,0 L2,1 L2,3 L6,5 L8,9 L3,7 L0,4 Z " fill="#423D3D" transform="translate(119,38)"/>
<path d="M0,0 L6,0 L5,7 L4,9 L0,8 L2,4 L5,1 L0,1 Z " fill="#171719" transform="translate(110,36)"/>
<path d="M0,0 L5,0 L7,2 L7,5 L2,5 Z " fill="#8A9194" transform="translate(18,77)"/>
<path d="M0,0 L4,3 L3,5 L2,4 L-6,4 L-5,6 L-9,7 L-8,2 L0,2 Z " fill="#55595F" transform="translate(48,69)"/>
<path d="M0,0 L2,0 L0,4 L-3,4 L-3,6 L-7,6 L-6,1 L-3,1 Z " fill="#48494B" transform="translate(123,61)"/>
<path d="M0,0 L3,0 L3,2 L1,3 L4,5 L-5,6 L-3,2 L0,2 Z " fill="#0D1511" transform="translate(54,57)"/>
<path d="M0,0 L9,0 L17,2 L17,3 L10,4 L8,3 L8,1 L0,1 Z " fill="#232220" transform="translate(80,37)"/>
<path d="M0,0 Z M-1,1 L3,2 L3,7 L-1,8 L-1,6 L-4,5 L-2,4 Z " fill="#0D0B08" transform="translate(77,35)"/>
<path d="M0,0 L2,1 L2,3 L4,4 L2,7 L-1,6 L-3,1 Z " fill="#1C0708" transform="translate(32,29)"/>
<path d="M0,0 L5,2 L8,5 L8,8 L4,6 L0,2 Z " fill="#282C2F" transform="translate(135,21)"/>
<path d="M0,0 L6,0 L5,4 L2,6 L0,4 Z " fill="#0D0D0E" transform="translate(25,0)"/>
<path d="M0,0 L2,0 L2,3 L-10,3 L-10,1 Z " fill="#292A3A" transform="translate(85,81)"/>
<path d="M0,0 L9,3 L6,6 L3,4 L-4,2 Z " fill="#6E6A6C" transform="translate(46,66)"/>
<path d="M0,0 L1,2 L8,2 L9,6 L7,7 L0,3 Z " fill="#505657" transform="translate(31,63)"/>
<path d="M0,0 L6,0 L6,3 L9,6 L7,7 L7,5 L0,4 Z " fill="#272C32" transform="translate(25,58)"/>
<path d="M0,0 L2,0 L1,4 L-3,6 L-7,4 L-6,1 L-3,1 L-2,3 Z " fill="#4A4B4A" transform="translate(122,55)"/>
<path d="M0,0 L3,0 L4,9 L2,11 L0,5 Z " fill="#74787D" transform="translate(27,48)"/>
<path d="M0,0 L4,0 L3,5 L-5,4 L-5,2 L0,2 Z " fill="#282E34" transform="translate(21,47)"/>
<path d="M0,0 L6,1 L5,8 L3,9 L2,3 L0,2 Z " fill="#090909" transform="translate(59,47)"/>
<path d="M0,0 L4,0 L3,3 L0,5 L-5,5 L-4,2 Z " fill="#23231F" transform="translate(9,32)"/>
<path d="M0,0 L7,2 L7,3 L1,3 L1,5 L3,5 L4,9 L2,9 L2,7 L-1,7 Z " fill="#684757" transform="translate(103,75)"/>
<path d="M0,0 L5,1 L10,2 L10,4 L4,5 L0,2 Z " fill="#7A8387" transform="translate(13,73)"/>
<path d="M0,0 L9,0 L9,4 L3,3 Z " fill="#8A929A" transform="translate(18,68)"/>
<path d="M0,0 L5,0 L1,1 L1,4 L3,5 L0,6 L0,4 L-7,3 L-7,2 Z " fill="#1E0C08" transform="translate(63,63)"/>
<path d="M0,0 L2,1 L-1,2 L-1,4 L2,4 L3,8 L1,8 L0,6 L-3,5 L-4,7 L-3,1 Z " fill="#2C2412" transform="translate(40,47)"/>
<path d="M0,0 L7,0 L8,3 L-4,2 Z " fill="#4E4C4E" transform="translate(92,33)"/>
<path d="M0,0 L6,0 L9,2 L9,4 L3,4 L3,6 L1,6 L2,3 L5,3 L5,1 L0,2 Z " fill="#111A1C" transform="translate(83,7)"/>
<path d="M0,0 L8,0 L5,3 L-3,3 Z " fill="#090A0C" transform="translate(120,69)"/>
<path d="M0,0 L3,0 L6,0 L6,4 L-1,6 Z " fill="#4D494B" transform="translate(64,52)"/>
<path d="M0,0 L2,0 L0,9 L2,10 L-2,11 L-3,8 Z " fill="#211A1A" transform="translate(59,40)"/>
<path d="M0,0 L3,0 L1,4 L0,7 L-2,7 L-3,11 L-3,5 Z " fill="#DADBD0" transform="translate(102,47)"/>
<path d="M0,0 L5,0 L6,4 L3,3 L3,5 L0,5 Z " fill="#554C4C" transform="translate(25,42)"/>
<path d="M0,0 L4,0 L4,3 L2,3 L2,5 L-2,5 L-2,1 Z " fill="#7A7F80" transform="translate(47,31)"/>
<path d="M0,0 L5,1 L5,4 L1,3 L-3,5 L-5,7 L-5,3 Z " fill="#737578" transform="translate(39,12)"/>
<path d="M0,0 L9,0 L10,2 L2,4 L2,2 L0,2 Z " fill="#3A3B3D" transform="translate(31,0)"/>
<path d="M0,0 L6,0 L6,4 L0,4 Z " fill="#2E3235" transform="translate(9,0)"/>
<path d="M0,0 L4,0 L4,4 L-3,4 L-3,2 Z " fill="#687380" transform="translate(29,80)"/>
<path d="M0,0 L2,3 L0,5 L-3,5 L-4,7 L-8,3 L-3,3 L0,2 Z " fill="#0F0E0F" transform="translate(123,57)"/>
<path d="M0,0 L2,1 L1,4 L-5,6 L-5,2 Z " fill="#0D0909" transform="translate(39,39)"/>
<path d="M0,0 L2,4 L2,6 L4,7 L0,8 L-4,4 L-3,2 L-1,2 Z " fill="#21191A" transform="translate(35,33)"/>
<path d="M0,0 L4,1 L3,5 L-1,7 Z " fill="#0A0B0E" transform="translate(83,28)"/>
<path d="M0,0 L2,0 L4,5 L0,5 L-2,10 L-4,7 L-1,4 Z " fill="#282A2D" transform="translate(45,12)"/>
<path d="M0,0 L3,1 L2,7 L-4,6 L-4,4 L0,4 Z " fill="#1C0809" transform="translate(101,18)"/>
<path d="M0,0 L4,1 L3,5 L0,6 L-2,1 Z " fill="#35383C" transform="translate(40,14)"/>
<path d="M0,0 L3,0 L2,5 L-2,6 L-1,1 Z " fill="#898A89" transform="translate(22,9)"/>
<path d="M0,0 L2,0 L1,5 L5,6 L5,8 L0,8 Z " fill="#8B949F" transform="translate(6,64)"/>
<path d="M0,0 L1,3 L6,5 L2,6 L-2,6 Z " fill="#514047" transform="translate(44,61)"/>
<path d="M0,0 L4,1 L7,2 L6,4 L-1,5 L-1,2 Z " fill="#70787D" transform="translate(91,61)"/>
<path d="M0,0 L2,0 L3,2 L6,4 L-2,5 L-5,3 L0,2 Z " fill="#130406" transform="translate(56,30)"/>
<path d="M0,0 L3,0 L2,5 L4,6 L-1,7 Z " fill="#797E85" transform="translate(19,24)"/>
<path d="M0,0 L5,4 L4,6 L0,4 L-2,8 L-4,4 L-1,3 Z " fill="#0E1216" transform="translate(145,20)"/>
<path d="M0,0 L7,1 L8,4 L0,3 Z " fill="#484D50" transform="translate(135,15)"/>
<path d="M0,0 L3,0 L3,3 L6,3 L6,5 L0,5 Z " fill="#28222E" transform="translate(99,79)"/>
<path d="M0,0 L5,0 L4,3 L-4,3 L-4,1 Z " fill="#856C57" transform="translate(118,81)"/>
<path d="M0,0 L2,0 L3,6 L-2,6 Z " fill="#080A0D" transform="translate(126,61)"/>
<path d="M0,0 L6,0 L6,2 L11,3 L11,4 L3,4 L3,2 L0,1 Z " fill="#535456" transform="translate(30,60)"/>
<path d="M0,0 L2,0 L2,2 L4,3 L5,7 L0,6 Z " fill="#242A2C" transform="translate(112,57)"/>
<path d="M0,0 L4,1 L4,5 L0,5 Z " fill="#121315" transform="translate(8,45)"/>
<path d="M0,0 L2,0 L2,2 L0,2 L0,4 L-5,4 L-6,1 Z " fill="#676F77" transform="translate(21,45)"/>
<path d="M0,0 L4,1 L5,2 L5,7 L3,7 L3,4 L0,3 Z " fill="#1B1A1B" transform="translate(20,40)"/>
<path d="M0,0 L6,0 L4,1 L4,3 L2,4 L0,7 L-1,2 Z " fill="#6E767D" transform="translate(18,36)"/>
<path d="M0,0 L2,0 L2,6 L0,6 L0,3 L-1,5 L-3,5 L-3,1 Z " fill="#282C2E" transform="translate(57,17)"/>
<path d="M0,0 L7,1 L5,2 L4,5 L2,5 L2,2 L0,2 Z " fill="#1E1D2A" transform="translate(85,79)"/>
<path d="M0,0 L7,0 L6,3 L0,3 Z " fill="#9098A0" transform="translate(13,63)"/>
<path d="M0,0 L1,0 L1,5 L4,5 L4,7 L-3,6 L-4,4 L0,4 Z " fill="#363A3C" transform="translate(87,55)"/>
<path d="M0,0 L4,1 L5,4 L0,5 Z " fill="#89929E" transform="translate(4,53)"/>
<path d="M0,0 L7,0 L7,3 L0,2 Z " fill="#535557" transform="translate(35,23)"/>
<path d="M0,0 L3,3 L3,6 L1,6 L2,10 L0,9 L-1,1 Z " fill="#1C2124" transform="translate(143,11)"/>
<path d="M0,0 L8,1 L8,5 L4,4 L5,2 L0,1 Z " fill="#0B0B0C" transform="translate(22,7)"/>
<path d="M0,0 L6,0 L6,3 L-1,3 Z " fill="#0B1013" transform="translate(111,9)"/>
<path d="M0,0 L5,0 L7,2 L11,4 L6,5 L6,3 L0,1 Z " fill="#51354A" transform="translate(64,77)"/>
<path d="M0,0 L2,4 L-7,3 L-7,1 L0,2 Z " fill="#020510" transform="translate(38,74)"/>
<path d="M0,0 L6,0 L6,2 L3,3 L2,5 L-1,5 L-1,3 L1,3 Z " fill="#4B474F" transform="translate(91,75)"/>
<path d="M0,0 L2,1 L2,4 L-7,4 L-7,2 L0,2 Z " fill="#6E7983" transform="translate(11,71)"/>
<path d="M0,0 L3,0 L3,5 L-3,4 Z " fill="#AA4D49" transform="translate(147,67)"/>
<path d="M0,0 L7,1 L7,3 L0,3 Z " fill="#10121B" transform="translate(32,57)"/>
<path d="M0,0 L4,1 L4,7 L1,6 Z " fill="#0B0F15" transform="translate(83,51)"/>
<path d="M0,0 L4,2 L3,8 L1,8 L-1,1 Z " fill="#5D5B5B" transform="translate(116,43)"/>
<path d="M0,0 L4,0 L3,3 L-3,4 L-3,2 Z " fill="#313028" transform="translate(68,40)"/>
<path d="M0,0 L3,0 L2,6 L-2,4 Z " fill="#291C21" transform="translate(10,19)"/>
<path d="M0,0 L1,0 L1,9 L-2,8 L-3,4 L0,4 Z " fill="#645A5E" transform="translate(9,13)"/>
<path d="M0,0 L4,0 L4,2 L-2,5 L-4,5 L-4,2 Z " fill="#343E3F" transform="translate(66,13)"/>
<path d="M0,0 L1,4 L-6,4 L-6,2 Z " fill="#72767A" transform="translate(137,80)"/>
<path d="M0,0 L2,4 L-1,6 L-3,5 L-4,2 Z " fill="#232325" transform="translate(124,63)"/>
<path d="M0,0 L3,1 L6,5 L0,4 L-2,1 Z " fill="#616970" transform="translate(84,63)"/>
<path d="M0,0 L3,0 L1,4 L-3,5 L-4,2 L-2,1 L-2,3 L0,3 Z " fill="#0D1114" transform="translate(136,60)"/>
<path d="M0,0 L4,1 L3,6 L0,5 Z " fill="#3A3D3A" transform="translate(105,51)"/>
<path d="M0,0 L3,0 L3,7 L1,7 Z " fill="#2D2A2A" transform="translate(132,46)"/>
<path d="M0,0 L5,1 L5,5 L2,5 L2,2 L0,2 Z " fill="#232B2E" transform="translate(13,39)"/>
<path d="M0,0 L5,0 L5,5 L4,3 L-1,2 Z " fill="#1B1F20" transform="translate(47,28)"/>
<path d="M0,0 L10,2 L10,3 L0,4 Z " fill="#171515" transform="translate(13,14)"/>
<path d="M0,0 L8,0 L5,3 L0,2 Z " fill="#040B0C" transform="translate(70,3)"/>
<path d="M0,0 L6,1 L5,6 L3,6 L2,2 L0,2 Z " fill="#4A191E" transform="translate(104,78)"/>
<path d="M0,0 L1,2 L5,3 L0,4 L0,8 L-2,8 L-2,2 Z " fill="#232326" transform="translate(115,65)"/>
<path d="M0,0 L2,0 L2,5 L0,4 L-3,4 L-5,2 Z " fill="#47484B" transform="translate(75,58)"/>
<path d="M0,0 L1,0 L2,8 L-1,8 L-1,1 Z " fill="#8E9799" transform="translate(89,52)"/>
<path d="M0,0 L3,2 L3,5 L5,7 L0,6 Z " fill="#24292C" transform="translate(82,52)"/>
<path d="M0,0 L3,0 L2,8 L1,6 L-1,5 Z " fill="#8D9398" transform="translate(77,51)"/>
<path d="M0,0 L1,4 L-4,9 L-3,3 L0,3 Z " fill="#848484" transform="translate(69,46)"/>
<path d="M0,0 L2,0 L1,3 L-1,3 L-1,5 L-4,4 L-3,1 Z " fill="#0A0A06" transform="translate(69,43)"/>
<path d="M0,0 L4,5 L-1,6 L-4,4 L-1,3 Z " fill="#515A61" transform="translate(19,40)"/>
<path d="M0,0 L3,0 L1,9 L0,9 Z " fill="#0C0C0A" transform="translate(0,34)"/>
<path d="M0,0 L6,0 L5,3 L0,3 Z " fill="#2A1B20" transform="translate(69,25)"/>
<path d="M0,0 L3,0 L2,5 L-1,5 L-2,1 Z " fill="#11060A" transform="translate(7,24)"/>
<path d="M0,0 L6,0 L6,2 L0,4 Z " fill="#0E1012" transform="translate(9,4)"/>
<path d="M0,0 L6,2 L7,4 L1,5 Z " fill="#707887" transform="translate(77,60)"/>
<path d="M0,0 L0,3 L-5,4 L-5,1 Z " fill="#6E6D6F" transform="translate(73,56)"/>
<path d="M0,0 L1,2 L3,2 L4,0 L4,6 L1,5 Z " fill="#807D6F" transform="translate(32,50)"/>
<path d="M0,0 L1,0 L1,7 L3,8 L0,8 L0,4 L-2,4 L-2,1 Z " fill="#271A1E" transform="translate(53,34)"/>
<path d="M0,0 L1,3 L3,4 L0,7 L-2,3 L0,3 Z " fill="#3A404C" transform="translate(23,19)"/>
<path d="M0,0 L4,0 L4,2 L1,3 L-1,5 L-1,2 L-4,1 Z " fill="#3B4548" transform="translate(84,8)"/>
<path d="M0,0 L4,0 L4,4 L0,4 Z " fill="#777878" transform="translate(5,0)"/>
<path d="M0,0 L5,0 L8,3 L1,3 Z " fill="#374549" transform="translate(62,2)"/>
<path d="M0,0 L4,2 L-5,3 L-4,1 Z " fill="#351309" transform="translate(117,79)"/>
<path d="M0,0 L4,0 L4,4 L0,3 Z " fill="#606578" transform="translate(48,78)"/>
<path d="M0,0 L6,0 L4,3 L0,3 Z " fill="#868F95" transform="translate(9,77)"/>
<path d="M0,0 L10,0 L7,1 L7,3 L0,1 Z " fill="#5F6A6F" transform="translate(13,72)"/>
<path d="M0,0 L7,0 L3,2 L-2,3 Z " fill="#434548" transform="translate(105,67)"/>
<path d="M0,0 L5,0 L5,3 L0,3 Z " fill="#31393B" transform="translate(145,64)"/>
<path d="M0,0 L2,0 L0,6 L-3,6 Z " fill="#313235" transform="translate(133,56)"/>
<path d="M0,0 L3,1 L2,10 L1,10 Z " fill="#37414B" transform="translate(0,58)"/>
<path d="M0,0 L2,1 L1,6 L-1,6 L-2,3 Z " fill="#524D43" transform="translate(34,46)"/>
<path d="M0,0 L5,0 L5,3 L0,3 Z " fill="#53504C" transform="translate(82,38)"/>
<path d="M0,0 L4,1 L-3,4 L-4,1 L0,2 Z " fill="#393E48" transform="translate(26,26)"/>
<path d="M0,0 L1,4 L0,7 L-3,7 L-1,1 Z " fill="#4A3F48" transform="translate(10,25)"/>
<path d="M0,0 L2,0 L3,4 L-2,4 Z " fill="#0B1012" transform="translate(37,19)"/>
<path d="M0,0 L1,3 L-2,5 L-6,2 Z " fill="#1C1F21" transform="translate(53,19)"/>
<path d="M0,0 L5,0 L2,1 L2,3 L4,4 L0,5 L-1,2 Z " fill="#283032" transform="translate(61,8)"/>
<path d="M0,0 L6,0 L5,5 L3,5 L3,1 Z " fill="#54585B" transform="translate(9,8)"/>
<path d="M0,0 L4,0 L3,4 L0,4 Z " fill="#353435" transform="translate(0,2)"/>
<path d="M0,0 L6,1 L6,3 L0,3 Z " fill="#687275" transform="translate(18,81)"/>
<path d="M0,0 L2,1 L2,4 L-3,4 L-2,1 Z " fill="#120A14" transform="translate(92,80)"/>
<path d="M0,0 L3,1 L3,3 L6,4 L2,5 L2,3 L0,3 Z " fill="#4B4F53" transform="translate(95,64)"/>
<path d="M0,0 L2,4 L2,6 L-1,6 L-2,2 Z " fill="#93999E" transform="translate(23,58)"/>
<path d="M0,0 L4,0 L4,3 L0,4 Z " fill="#474747" transform="translate(58,50)"/>
<path d="M0,0 L4,3 L4,5 L1,5 L-2,1 Z " fill="#423D3A" transform="translate(120,45)"/>
<path d="M0,0 L4,1 L2,3 L2,1 Z M0,3 L2,3 L1,6 L-2,5 Z " fill="#100C0C" transform="translate(73,18)"/>
<path d="M0,0 L3,0 L3,2 L-2,5 L-3,2 L0,2 Z " fill="#222423" transform="translate(72,19)"/>
<path d="M0,0 L2,0 L1,4 L-4,5 Z " fill="#42484B" transform="translate(50,0)"/>
<path d="M0,0 L2,4 L2,5 L-3,5 L-2,2 L0,2 Z " fill="#36414C" transform="translate(36,71)"/>
<path d="M0,0 L4,0 L4,3 L6,4 L2,3 L0,2 Z " fill="#5F6066" transform="translate(131,69)"/>
<path d="M0,0 L5,0 L5,3 L0,2 Z " fill="#6C3033" transform="translate(142,67)"/>
<path d="M0,0 L2,0 L2,4 L-4,3 L-3,1 L0,2 Z " fill="#1E1A1F" transform="translate(140,65)"/>
<path d="M0,0 L3,2 L2,4 L-2,3 L-2,1 Z " fill="#070C10" transform="translate(138,63)"/>
<path d="M0,0 L5,0 L5,3 L0,2 Z " fill="#575F64" transform="translate(96,59)"/>
<path d="M0,0 L4,1 L4,4 L0,3 Z " fill="#9E894F" transform="translate(41,56)"/>
<path d="M0,0 L5,0 L5,3 L1,4 Z " fill="#292928" transform="translate(57,53)"/>
<path d="M0,0 L2,1 L2,3 L4,3 L4,5 L0,5 Z " fill="#272520" transform="translate(119,47)"/>
<path d="M0,0 L2,0 L2,2 L4,3 L0,4 L-2,2 L0,2 Z " fill="#727679" transform="translate(83,46)"/>
<path d="M0,0 L2,0 L2,5 L-2,4 Z " fill="#0B080A" transform="translate(112,40)"/>
<path d="M0,0 L2,0 L2,4 L-2,5 L-2,2 L0,2 Z " fill="#17140E" transform="translate(78,38)"/>
<path d="M0,0 L2,2 L6,4 L-1,4 Z " fill="#121C18" transform="translate(39,30)"/>
<path d="M0,0 L1,0 L0,7 L-2,7 L-2,3 L0,3 Z " fill="#8A7F81" transform="translate(14,20)"/>
<path d="M0,0 L3,0 L3,4 L0,4 L-1,1 Z " fill="#4E5052" transform="translate(25,14)"/>
<path d="M0,0 L2,0 L1,5 L0,3 L-4,3 L-3,1 L0,2 Z " fill="#171B1F" transform="translate(60,5)"/>
<path d="M0,0 L4,2 L4,4 L1,4 L1,2 L-1,1 Z " fill="#9DA5AC" transform="translate(21,77)"/>
<path d="M0,0 L5,0 L5,3 L1,2 Z " fill="#879EA5" transform="translate(98,75)"/>
<path d="M0,0 L5,1 L5,3 L0,2 Z " fill="#8C949A" transform="translate(13,73)"/>
<path d="M0,0 L5,1 L5,3 L0,3 Z " fill="#1B1F21" transform="translate(94,68)"/>
<path d="M0,0 L4,0 L4,3 L0,3 Z " fill="#33343B" transform="translate(77,66)"/>
<path d="M0,0 L4,1 L4,4 L1,4 Z " fill="#504A49" transform="translate(44,56)"/>
<path d="M0,0 L1,0 L1,6 L-3,4 L-1,4 Z " fill="#574C54" transform="translate(37,52)"/>
<path d="M0,0 L3,0 L3,4 L0,4 Z " fill="#111112" transform="translate(67,52)"/>
<path d="M0,0 L6,0 L2,2 L-2,2 Z " fill="#444737" transform="translate(84,43)"/>
<path d="M0,0 L4,0 L3,3 L0,4 L0,1 Z " fill="#272426" transform="translate(111,37)"/>
<path d="M0,0 L2,0 L5,4 L2,5 L1,2 L-1,1 Z " fill="#3E3E3D" transform="translate(10,35)"/>
<path d="M0,0 L3,0 L3,4 L-1,2 Z " fill="#42393F" transform="translate(23,31)"/>
<path d="M0,0 L4,0 L3,4 L0,3 Z " fill="#767F89" transform="translate(26,22)"/>
<path d="M0,0 L4,0 L4,3 L0,3 Z " fill="#8F8D8E" transform="translate(5,13)"/>
<path d="M0,0 L1,3 L-2,4 L-5,2 Z " fill="#12110F" transform="translate(93,12)"/>
<path d="M0,0 L4,0 L4,3 L1,4 Z " fill="#595D60" transform="translate(47,12)"/>
<path d="M0,0 L2,4 L-2,4 L-2,1 Z " fill="#727374" transform="translate(19,3)"/>
<path d="M0,0 L6,1 L6,3 L1,2 Z " fill="#1B1F22" transform="translate(110,3)"/>
<path d="M0,0 L1,3 L-1,6 L-3,6 L-3,3 Z " fill="#575757" transform="translate(24,0)"/>
<path d="M0,0 L3,1 L3,4 L0,4 Z " fill="#070D16" transform="translate(96,80)"/>
<path d="M0,0 L2,0 L1,3 L-3,3 L-3,1 Z " fill="#656668" transform="translate(123,61)"/>
<path d="M0,0 L2,2 L2,5 L-1,5 Z " fill="#7B8088" transform="translate(106,58)"/>
<path d="M0,0 L4,2 L3,4 L0,4 Z " fill="#798490" transform="translate(11,56)"/>
<path d="M0,0 L3,0 L3,3 L1,3 L0,5 Z " fill="#4B4A4E" transform="translate(27,48)"/>
<path d="M0,0 L1,0 L1,5 L-2,4 L-2,1 Z " fill="#0E1215" transform="translate(132,13)"/>
<path d="M0,0 L3,2 L-3,3 L-3,1 Z " fill="#3B383B" transform="translate(42,9)"/>
<path d="M0,0 L4,1 L4,3 L0,3 Z " fill="#444F52" transform="translate(13,81)"/>
<path d="M0,0 L4,0 L3,3 L0,2 Z " fill="#957586" transform="translate(146,73)"/>
<path d="M0,0 L4,0 L4,2 L0,3 Z " fill="#232321" transform="translate(52,71)"/>
<path d="M0,0 L5,1 L4,4 Z " fill="#17191B" transform="translate(115,60)"/>
<path d="M0,0 L3,0 L3,3 L-1,3 Z " fill="#5F666D" transform="translate(12,49)"/>
<path d="M0,0 L5,1 L5,3 L2,3 L2,1 Z " fill="#57534F" transform="translate(105,45)"/>
<path d="M0,0 L3,0 L1,4 L-1,3 Z " fill="#43374C" transform="translate(31,45)"/>
<path d="M0,0 L2,0 L3,4 L0,4 Z " fill="#1B2528" transform="translate(31,15)"/>
<path d="M0,0 L2,0 L0,4 L-2,4 Z " fill="#949796" transform="translate(30,3)"/>
<path d="M0,0 L4,1 L4,3 L1,3 Z " fill="#637889" transform="translate(34,81)"/>
<path d="M0,0 L2,4 L-2,3 L0,2 Z " fill="#0C1423" transform="translate(38,74)"/>
<path d="M0,0 L3,0 L3,2 L-1,3 Z " fill="#8E989F" transform="translate(33,71)"/>
<path d="M0,0 L2,1 L0,5 L-1,2 Z " fill="#848A97" transform="translate(5,60)"/>
<path d="M0,0 L3,1 L2,3 L-1,3 Z " fill="#6B6E6B" transform="translate(116,56)"/>
<path d="M0,0 L3,4 L-1,4 Z " fill="#68727B" transform="translate(23,53)"/>
<path d="M0,0 L3,2 L3,4 L0,4 Z " fill="#0E0F0C" transform="translate(116,51)"/>
<path d="M0,0 L4,1 L4,3 L0,2 Z " fill="#727C87" transform="translate(15,46)"/>
<path d="M0,0 L2,1 L1,4 L-2,3 Z " fill="#010602" transform="translate(39,39)"/>
<path d="M0,0 L3,1 L2,4 L0,4 Z " fill="#232427" transform="translate(105,34)"/>
<path d="M0,0 L2,0 L2,3 L-1,3 Z " fill="#9DA2A8" transform="translate(25,69)"/>
<path d="M0,0 L3,0 L2,3 L0,3 Z " fill="#1C2124" transform="translate(136,60)"/>
<path d="M0,0 L3,0 L3,2 L0,3 Z " fill="#383B3D" transform="translate(125,59)"/>
<path d="M0,0 L4,0 L3,3 Z " fill="#4F565E" transform="translate(18,58)"/>
<path d="M0,0 L3,0 L3,3 L0,2 Z " fill="#99A4AF" transform="translate(4,53)"/>
<path d="M0,0 L3,0 L3,3 L0,2 Z " fill="#959796" transform="translate(109,52)"/>
<path d="M0,0 L3,0 L2,3 L0,3 Z " fill="#64625A" transform="translate(69,40)"/>
<path d="M0,0 L3,1 L2,4 Z " fill="#2F3437" transform="translate(140,8)"/>
<path d="M0,0 L3,0 L2,3 L0,2 Z " fill="#0D0606" transform="translate(70,62)"/>
<path d="M0,0 L3,1 L3,3 L0,2 Z " fill="#605C59" transform="translate(65,60)"/>
<path d="M0,0 L2,1 L1,4 L-1,2 Z " fill="#181F20" transform="translate(107,53)"/>
<path d="M0,0 L3,1 L3,3 L0,2 Z " fill="#1D2627" transform="translate(45,40)"/>
<path d="M0,0 L3,0 L2,3 L0,2 Z " fill="#141315" transform="translate(96,8)"/>
</svg>
