<svg width="160" height="160" viewBox="0 0 160 160" fill="none" xmlns="http://www.w3.org/2000/svg">
<g clip-path="url(#clip0_28_11513)">
<path d="M133.25 26.5H113.489V46.5H133.25V26.5Z" fill="#FF0073"/>
<path d="M33.5 146.5H133.5V153.5H26.5V146.5H33.5Z" fill="#FEFEFE"/>
<path d="M153.5 140C153.5 144.5 153.5 149 153.5 153.5H146.5V140H153.5Z" fill="#FEF7DF"/>
<path d="M153.5 133.5C153.5 135.65 153.5 137.85 153.5 140H146.5C146.5 137.85 146.5 135.65 146.5 133.5H153.5Z" fill="#FEBD00"/>
<path d="M20 6.5V13.5C17.85 13.5 15.65 13.5 13.5 13.5H6.5V6.5C11 6.5 15.5 6.5 20 6.5Z" fill="#FEF7DF"/>
<path d="M26.5 6.5V13.5C24.35 13.5 22.15 13.5 20 13.5V6.5C22.15 6.5 24.35 6.5 26.5 6.5Z" fill="#FEBD00"/>
<path d="M20 133.5V140H13.5V146.5H20V140H26.5V146.5H20V160H13.5V153.5V146.5H6.5H0V140H13.5V133.5H20Z" fill="#E4E4E4"/>
<path d="M33.5 133.5V140V146.5H26.5V153.5V160H20V146.5H26.5V140V133.5H33.5Z" fill="#CBC9C9"/>
<path d="M20 126.5H26.5V133.5H20H13.5V140H0V133.5H6.5H13.5V126.5H20Z" fill="#CBC9C9"/>
<path d="M140 100V133.5H133.5V126.5C133.5 119.85 133.5 113.15 133.5 106.5C133.5 99.85 133.5 102.15 133.5 100C135.65 100 137.85 100 140 100Z" fill="#3D382F"/>
<path d="M60 20C60 22.15 60 24.35 60 26.5C57.85 26.5 55.65 26.5 53.5 26.5C46.85 26.5 40.15 26.5 33.5 26.5H26.5V20H60Z" fill="#3D382F"/>
<path d="M73.5 13.5C77.85 13.5 82.2 13.5 86.5 13.5C86.5 15.65 86.5 17.85 86.5 20C88.85 20 91.2 20 93.5 20C93.5 22.15 93.5 24.35 93.5 26.5H86.5C86.5 24.35 86.5 22.15 86.5 20C82.2 20 77.85 20 73.5 20V13.5Z" fill="#1D202B"/>
<path d="M133.5 66.5C135.65 66.5 137.85 66.5 140 66.5C140 68.85 140 71.2 140 73.5C142.15 73.5 144.35 73.5 146.5 73.5C146.5 77.85 146.5 82.2 146.5 86.5H140C140 82.15 140 77.8 140 73.5C137.85 73.5 135.65 73.5 133.5 73.5V66.5Z" fill="#1D202B"/>
<path d="M13.5 26.5V133.5H6.5V26.5H13.5Z" fill="#FEFEFE"/>
<path d="M13.5 146.5H6.5V153.5H13.5V146.5Z" fill="#4D4032"/>
<path d="M146.5 146.5H133.5V153.5H146.5V146.5Z" fill="#FEBD00"/>
<path d="M13.5 13.5H6.5V26.5H13.5V13.5Z" fill="#FEBD00"/>
<path d="M20 140H13.5V146.5H20V140Z" fill="#695338"/>
<path d="M33.5 126.5C33.5 128.85 33.5 131.15 33.5 133.5H26.5V126.5C28.85 126.5 31.15 126.5 33.5 126.5Z" fill="#695338"/>
<path d="M26.5 133.5H20V140H26.5V133.5Z" fill="#695338"/>
<path d="M133.5 106.5C133.5 113.15 133.5 119.85 133.5 126.5H126.5C126.5 119.85 126.5 113.15 126.5 106.5H133.5Z" fill="#695338"/>
<path d="M133.5 126.5V140C131.15 140 128.85 140 126.5 140V126.5H133.5Z" fill="#4D4032"/>
<path d="M133.5 93.5C133.5 95.65 133.5 97.85 133.5 100C133.5 102.15 133.5 104.35 133.5 106.5H126.5C126.5 102.15 126.5 97.85 126.5 93.5H133.5Z" fill="#4D4032"/>
<path d="M140 86.5C140 91 140 95.5 140 100C137.85 100 135.65 100 133.5 100C133.5 97.85 133.5 95.65 133.5 93.5C133.5 91.35 133.5 88.85 133.5 86.5H140Z" fill="#FEE259"/>
<path d="M53.5 26.5V33.5C46.85 33.5 40.15 33.5 33.5 33.5V26.5C40.15 26.5 46.85 26.5 53.5 26.5Z" fill="#695338"/>
<path d="M26.5 26.5H33.5V33.5H20C20 31.15 20 28.85 20 26.5H26.5Z" fill="#4D4032"/>
<path d="M60 26.5C62.15 26.5 64.35 26.5 66.5 26.5V33.5C62.15 33.5 57.85 33.5 53.5 33.5V26.5C55.65 26.5 57.85 26.5 60 26.5Z" fill="#4D4032"/>
<path d="M73.5 20V26.5C71.15 26.5 68.85 26.5 66.5 26.5C64.15 26.5 62.15 26.5 60 26.5C60 24.35 60 22.15 60 20C64.5 20 69 20 73.5 20Z" fill="#FEE259"/>
<path d="M133.5 33.5C135.65 33.5 137.85 33.5 140 33.5C140 37.85 140 42.2 140 46.5C137.85 46.5 135.65 46.5 133.5 46.5C133.5 44.35 133.5 42.15 133.5 40C133.5 37.85 133.5 35.65 133.5 33.5Z" fill="#FEE259"/>
<path d="M113.5 20C117.85 20 122.2 20 126.5 20C126.5 22.15 126.5 24.35 126.5 26.5C124.35 26.5 122.15 26.5 120 26.5C117.85 26.5 115.65 26.5 113.5 26.5C113.5 24.35 113.5 22.15 113.5 20Z" fill="#FEE259"/>
<path d="M133.5 26.5C133.5 28.85 133.5 31.15 133.5 33.5C131.15 33.5 128.85 33.5 126.5 33.5C126.5 31.15 126.5 28.85 126.5 26.5C128.85 26.5 131.15 26.5 133.5 26.5Z" fill="#FEE259"/>
<path d="M113.5 26.5C113.5 28.85 113.5 31.15 113.5 33.5H106.5V26.5H113.5Z" fill="#FEF7DF"/>
<path d="M106.5 26.5V33.5H100C100 31.15 100 28.85 100 26.5H106.5Z" fill="#FEE259"/>
<path d="M133.5 46.5V53.5H126.5C126.5 51.15 126.5 48.85 126.5 46.5C128.85 46.5 131.15 46.5 133.5 46.5Z" fill="#FEF7DF"/>
<path d="M133.5 53.5V60C131.15 60 128.85 60 126.5 60V53.5H133.5Z" fill="#FEE259"/>
<path d="M86.5 20C86.5 22.15 86.5 24.35 86.5 26.5C86.5 28.65 86.5 31.2 86.5 33.5C84.35 33.5 82.15 33.5 80 33.5C80 31.15 80 28.8 80 26.5C77.85 26.5 75.65 26.5 73.5 26.5V20C77.85 20 82.2 20 86.5 20Z" fill="#585F7A"/>
<path d="M133.5 73.5C135.65 73.5 137.85 73.5 140 73.5C140 77.8 140 82.15 140 86.5H133.5C133.5 84.35 133.5 82.15 133.5 80C131.15 80 128.8 80 126.5 80C126.5 77.85 126.5 75.65 126.5 73.5C128.85 73.5 131.2 73.5 133.5 73.5Z" fill="#585F7A"/>
<path d="M20 13.5C20 17.85 20 22.15 20 26.5H13.5V13.5C15.65 13.5 17.85 13.5 20 13.5Z" fill="#CB6D00"/>
<path d="M146.5 140V146.5H133.5V140C137.85 140 142.15 140 146.5 140Z" fill="#CB6D00"/>
<path d="M120 60C120 62.15 120 64.35 120 66.5C122.15 66.5 124.35 66.5 126.5 66.5C128.65 66.5 131.15 66.5 133.5 66.5V73.5C131.15 73.5 128.8 73.5 126.5 73.5C126.5 75.65 126.5 77.85 126.5 80C124.35 80 122.15 80 120 80V73.5C117.85 73.5 115.65 73.5 113.5 73.5V60H120Z" fill="#464C65"/>
<path d="M93.5 26.5C93.5 28.85 93.5 31.15 93.5 33.5C93.5 35.85 93.5 37.85 93.5 40C95.65 40 97.85 40 100 40V46.5H86.5C86.5 44.35 86.5 42.15 86.5 40H80C80 37.85 80 35.65 80 33.5C82.15 33.5 84.35 33.5 86.5 33.5C86.5 31.15 86.5 28.8 86.5 26.5H93.5Z" fill="#464C65"/>
<path d="M126.5 53.5V66.5C124.35 66.5 122.15 66.5 120 66.5C120 64.35 120 62.15 120 60C120 57.85 120 55.65 120 53.5H126.5Z" fill="#FEBD00"/>
<path d="M100 33.5H106.5V40C104.35 40 102.15 40 100 40C97.85 40 95.65 40 93.5 40C93.5 37.85 93.5 35.65 93.5 33.5H100Z" fill="#FEBD00"/>
<path d="M126.5 86.5C126.5 88.85 126.5 91.15 126.5 93.5C126.5 97.85 126.5 102.15 126.5 106.5C126.5 113.15 126.5 119.85 126.5 126.5V140C124.35 140 122.15 140 120 140C120 126.65 120 113.3 120 100V86.5H126.5Z" fill="#3D382F"/>
<path d="M126.5 80C128.85 80 131.2 80 133.5 80C133.5 82.15 133.5 84.35 133.5 86.5C133.5 88.65 133.5 91.15 133.5 93.5H126.5C126.5 91.15 126.5 88.85 126.5 86.5C126.5 84.15 126.5 82.15 126.5 80Z" fill="#FEF7DF"/>
<path d="M33.5 33.5C40.15 33.5 46.85 33.5 53.5 33.5C60.15 33.5 62.15 33.5 66.5 33.5C70.85 33.5 71.15 33.5 73.5 33.5V40H60C46.65 40 33.3 40 20 40C20 37.85 20 35.65 20 33.5H33.5Z" fill="#3D382F"/>
<path d="M73.5 26.5C75.65 26.5 77.85 26.5 80 26.5C80 28.85 80 31.2 80 33.5C77.85 33.5 75.65 33.5 73.5 33.5C71.35 33.5 68.85 33.5 66.5 33.5V26.5C68.85 26.5 71.15 26.5 73.5 26.5Z" fill="#FEF7DF"/>
<path d="M133.5 40C133.5 42.15 133.5 44.35 133.5 46.5C131.15 46.5 128.85 46.5 126.5 46.5C126.5 48.85 126.5 51.15 126.5 53.5H120C120 51.15 120 48.85 120 46.5C122.15 46.5 124.35 46.5 126.5 46.5C126.5 44.35 126.5 42.15 126.5 40H133.5Z" fill="#CB6D00"/>
<path d="M120 26.5V33.5C117.85 33.5 115.65 33.5 113.5 33.5V40C111.15 40 108.85 40 106.5 40V33.5H113.5C113.5 31.15 113.5 28.85 113.5 26.5C115.65 26.5 117.85 26.5 120 26.5Z" fill="#CB6D00"/>
<path d="M106.5 40V53.5H100V40C102.15 40 104.35 40 106.5 40Z" fill="#3D382F"/>
<path d="M113.5 53.5H120C120 55.65 120 57.85 120 60H106.5V53.5H113.5Z" fill="#3D382F"/>
<path d="M100 53.5V60C97.85 60 95.65 60 93.5 60C93.5 62.15 93.5 64.35 93.5 66.5C91.15 66.5 88.85 66.5 86.5 66.5C86.5 68.85 86.5 71.15 86.5 73.5C84.35 73.5 82.15 73.5 80 73.5C80 75.65 80 77.85 80 80C77.85 80 75.65 80 73.5 80C73.5 82.15 73.5 84.35 73.5 86.5C71.15 86.5 68.85 86.5 66.5 86.5C66.5 88.85 66.5 91.15 66.5 93.5C64.35 93.5 62.15 93.5 60 93.5C60 95.65 60 97.85 60 100C57.85 100 55.65 100 53.5 100C53.5 102.15 53.5 104.35 53.5 106.5C55.65 106.5 57.85 106.5 60 106.5C60 104.35 60 102.15 60 100C62.15 100 64.35 100 66.5 100C66.5 97.85 66.5 95.65 66.5 93.5C68.85 93.5 71.15 93.5 73.5 93.5C73.5 91.15 73.5 88.85 73.5 86.5C75.65 86.5 77.85 86.5 80 86.5C80 84.35 80 82.15 80 80C82.15 80 84.35 80 86.5 80C86.5 77.85 86.5 75.65 86.5 73.5C88.85 73.5 91.15 73.5 93.5 73.5C93.5 71.15 93.5 68.85 93.5 66.5C95.65 66.5 97.85 66.5 100 66.5C100 64.35 100 62.15 100 60H106.5C106.5 62.15 106.5 64.35 106.5 66.5H100C100 68.85 100 71.15 100 73.5H93.5C93.5 75.65 93.5 77.85 93.5 80H86.5C86.5 82.15 86.5 84.35 86.5 86.5C84.35 86.5 82.15 86.5 80 86.5C80 88.85 80 91.2 80 93.5C77.85 93.5 75.65 93.5 73.5 93.5C73.5 95.65 73.5 97.85 73.5 100C71.15 100 68.8 100 66.5 100C66.5 102.15 66.5 104.35 66.5 106.5C64.35 106.5 62.15 106.5 60 106.5C60 108.85 60 111.2 60 113.5C57.85 113.5 55.65 113.5 53.5 113.5C53.5 115.65 53.5 117.85 53.5 120C51.15 120 48.8 120 46.5 120C46.5 122.15 46.5 124.35 46.5 126.5C44.35 126.5 42.15 126.5 40 126.5C40 124.35 40 122.15 40 120C42.15 120 44.35 120 46.5 120C46.5 117.85 46.5 115.65 46.5 113.5C48.85 113.5 51.15 113.5 53.5 113.5C53.5 111.15 53.5 108.85 53.5 106.5C51.15 106.5 48.85 106.5 46.5 106.5C46.5 108.85 46.5 111.15 46.5 113.5C44.35 113.5 42.15 113.5 40 113.5C40 115.65 40 117.85 40 120C37.85 120 35.65 120 33.5 120C33.5 117.85 33.5 115.65 33.5 113.5C35.65 113.5 37.85 113.5 40 113.5C40 111.15 40 108.8 40 106.5C42.15 106.5 44.35 106.5 46.5 106.5C46.5 104.35 46.5 102.15 46.5 100C48.85 100 51.2 100 53.5 100C53.5 97.85 53.5 95.65 53.5 93.5C55.65 93.5 57.85 93.5 60 93.5C60 91.15 60 88.8 60 86.5C62.15 86.5 64.35 86.5 66.5 86.5C66.5 84.35 66.5 82.15 66.5 80C68.85 80 71.2 80 73.5 80C73.5 77.85 73.5 75.65 73.5 73.5C75.65 73.5 77.85 73.5 80 73.5V66.5C82.15 66.5 84.35 66.5 86.5 66.5V60C88.85 60 91.15 60 93.5 60V53.5C95.65 53.5 97.85 53.5 100 53.5Z" fill="#3D382F"/>
<path d="M106.5 80C106.5 82.15 106.5 84.35 106.5 86.5C108.85 86.5 111.15 86.5 113.5 86.5C113.5 84.35 113.5 82.15 113.5 80C115.65 80 117.85 80 120 80C122.15 80 124.35 80 126.5 80C126.5 82.15 126.5 84.35 126.5 86.5H113.5C113.5 88.85 113.5 91.15 113.5 93.5H106.5C106.5 91.15 106.5 88.85 106.5 86.5C104.35 86.5 102.15 86.5 100 86.5C100 84.35 100 82.15 100 80H106.5Z" fill="#FEBD00"/>
<path d="M113.5 73.5V80C111.15 80 108.85 80 106.5 80C106.5 77.85 106.5 75.65 106.5 73.5C108.85 73.5 111.15 73.5 113.5 73.5Z" fill="#FEBD00"/>
<path d="M113.5 66.5V73.5C111.15 73.5 108.85 73.5 106.5 73.5C106.5 71.15 106.5 68.85 106.5 66.5H113.5Z" fill="#1D202B"/>
<path d="M66.5 93.5C66.5 95.65 66.5 97.85 66.5 100C64.35 100 62.15 100 60 100C60 97.85 60 95.65 60 93.5C62.15 93.5 64.35 93.5 66.5 93.5Z" fill="#4D4032"/>
<path d="M73.5 86.5C73.5 88.85 73.5 91.15 73.5 93.5C71.15 93.5 68.85 93.5 66.5 93.5C66.5 91.15 66.5 88.85 66.5 86.5C68.85 86.5 71.15 86.5 73.5 86.5Z" fill="#4D4032"/>
<path d="M100 46.5V53.5C97.85 53.5 95.65 53.5 93.5 53.5V46.5H100Z" fill="#4D4032"/>
<path d="M106.5 53.5H100V60H106.5V53.5Z" fill="#4D4032"/>
<path d="M100 60C100 62.15 100 64.35 100 66.5C97.85 66.5 95.65 66.5 93.5 66.5C93.5 64.35 93.5 62.15 93.5 60C95.65 60 97.85 60 100 60Z" fill="#4D4032"/>
<path d="M113.5 60V66.5H106.5C106.5 64.35 106.5 62.15 106.5 60H113.5Z" fill="#4D4032"/>
<path d="M60 100C60 102.15 60 104.35 60 106.5C57.85 106.5 55.65 106.5 53.5 106.5C53.5 104.35 53.5 102.15 53.5 100C55.65 100 57.85 100 60 100Z" fill="#4D4032"/>
<path d="M93.5 66.5C93.5 68.85 93.5 71.15 93.5 73.5C91.15 73.5 88.85 73.5 86.5 73.5C86.5 71.15 86.5 68.85 86.5 66.5C88.85 66.5 91.15 66.5 93.5 66.5Z" fill="#4D4032"/>
<path d="M113.5 46.5H106.5V53.5H113.5V46.5Z" fill="#4D4032"/>
<path d="M86.5 73.5C86.5 75.65 86.5 77.85 86.5 80C84.35 80 82.15 80 80 80C80 77.85 80 75.65 80 73.5C82.15 73.5 84.35 73.5 86.5 73.5Z" fill="#4D4032"/>
<path d="M80 80C80 82.15 80 84.35 80 86.5C77.85 86.5 75.65 86.5 73.5 86.5C73.5 84.35 73.5 82.15 73.5 80C75.65 80 77.85 80 80 80Z" fill="#4D4032"/>
<path d="M106.5 66.5C106.5 68.85 106.5 71.15 106.5 73.5C106.5 75.85 106.5 77.85 106.5 80H100C100 77.85 100 75.65 100 73.5C100 71.35 100 68.85 100 66.5H106.5Z" fill="#CB6D00"/>
<path d="M113.5 80C113.5 82.15 113.5 84.35 113.5 86.5C111.15 86.5 108.85 86.5 106.5 86.5C106.5 84.35 106.5 82.15 106.5 80C108.85 80 111.15 80 113.5 80Z" fill="#CB6D00"/>
<path d="M113.5 73.5C115.65 73.5 117.85 73.5 120 73.5V80C117.85 80 115.65 80 113.5 80V73.5Z" fill="#CB6D00"/>
<path d="M80 33.5C80 35.65 80 37.85 80 40C80 42.15 80 44.35 80 46.5C77.85 46.5 75.65 46.5 73.5 46.5C73.5 48.85 73.5 51.15 73.5 53.5C75.65 53.5 77.85 53.5 80 53.5V60C77.85 60 75.65 60 73.5 60C73.5 57.85 73.5 55.65 73.5 53.5C71.15 53.5 68.85 53.5 66.5 53.5V46.5C68.85 46.5 71.15 46.5 73.5 46.5V33.5C75.65 33.5 77.85 33.5 80 33.5Z" fill="#FEBD00"/>
<path d="M86.5 46.5C86.5 48.85 86.5 51.15 86.5 53.5C84.35 53.5 82.15 53.5 80 53.5C80 51.15 80 48.85 80 46.5H86.5Z" fill="#FEBD00"/>
<path d="M93.5 46.5V53.5C91.15 53.5 88.85 53.5 86.5 53.5C86.5 51.15 86.5 48.85 86.5 46.5H93.5Z" fill="#1D202B"/>
<path d="M80 40H86.5C86.5 42.15 86.5 44.35 86.5 46.5H80C80 44.35 80 42.15 80 40Z" fill="#CB6D00"/>
<path d="M80 46.5C80 48.85 80 51.15 80 53.5C77.85 53.5 75.65 53.5 73.5 53.5C73.5 51.15 73.5 48.85 73.5 46.5C75.65 46.5 77.85 46.5 80 46.5Z" fill="#CB6D00"/>
<path d="M86.5 53.5C88.85 53.5 91.15 53.5 93.5 53.5V60C91.15 60 88.85 60 86.5 60C84.15 60 82.15 60 80 60V53.5C82.15 53.5 84.35 53.5 86.5 53.5Z" fill="#CB6D00"/>
<path d="M33.5 120C33.5 122.15 33.5 124.35 33.5 126.5C35.65 126.5 37.85 126.5 40 126.5C40 131 40 135.5 40 140H33.5V133.5C33.5 131.15 33.5 128.85 33.5 126.5C31.15 126.5 28.85 126.5 26.5 126.5H20V120C24.5 120 29 120 33.5 120Z" fill="#AAA3A5"/>
<path d="M120 86.5V93.5H113.5C113.5 95.65 113.5 97.85 113.5 100C111.15 100 108.85 100 106.5 100C106.5 97.85 106.5 95.65 106.5 93.5H113.5C113.5 91.15 113.5 88.85 113.5 86.5H120Z" fill="#FEE259"/>
<path d="M73.5 40V46.5C71.15 46.5 68.85 46.5 66.5 46.5V53.5C64.35 53.5 62.15 53.5 60 53.5C60 51.15 60 48.85 60 46.5C62.15 46.5 64.35 46.5 66.5 46.5V40H73.5Z" fill="#FEE259"/>
<path d="M126.5 33.5C126.5 35.65 126.5 37.85 126.5 40H120V33.5C122.15 33.5 124.35 33.5 126.5 33.5Z" fill="#FEF7DF"/>
<path d="M53.5 106.5C53.5 108.85 53.5 111.15 53.5 113.5C51.15 113.5 48.85 113.5 46.5 113.5C46.5 111.15 46.5 108.85 46.5 106.5C48.85 106.5 51.15 106.5 53.5 106.5Z" fill="#5B4935"/>
<path d="M46.5 113.5C46.5 115.65 46.5 117.85 46.5 120C44.35 120 42.15 120 40 120C40 117.85 40 115.65 40 113.5C42.15 113.5 44.35 113.5 46.5 113.5Z" fill="#5B4935"/>
<path d="M40 120C40 122.15 40 124.35 40 126.5C37.85 126.5 35.65 126.5 33.5 126.5C33.5 124.35 33.5 122.15 33.5 120C35.65 120 37.85 120 40 120Z" fill="#5B4935"/>
<path d="M120 40C120 42.15 120 44.35 120 46.5H113.5V40C115.65 40 117.85 40 120 40Z" fill="#FEBD00"/>
</g>
<defs>
<clipPath id="clip0_28_11513">
<rect width="160" height="160" fill="white"/>
</clipPath>
</defs>
</svg>
