<svg width="160" height="160" viewBox="0 0 160 160" fill="none" xmlns="http://www.w3.org/2000/svg">
<g clip-path="url(#clip0_28_11684)">
<path d="M120 0V6.5C124.5 6.5 129 6.5 133.5 6.5V0H146.5V6.5C148.85 6.5 151.2 6.5 153.5 6.5C153.5 8.85 153.5 11.2 153.5 13.5H160V20H153.5C153.5 22.15 153.5 24.35 153.5 26.5C151.15 26.5 148.8 26.5 146.5 26.5C146.5 28.85 146.5 31.15 146.5 33.5C148.85 33.5 151.2 33.5 153.5 33.5C153.5 35.65 153.5 37.85 153.5 40H160V46.5H153.5C153.5 48.85 153.5 51.2 153.5 53.5C151.15 53.5 148.8 53.5 146.5 53.5C146.5 55.65 146.5 57.85 146.5 60H133.5C133.5 57.85 133.5 55.65 133.5 53.5C131.15 53.5 128.85 53.5 126.5 53.5V80C124.35 80 122.15 80 120 80C120 82.15 120 84.35 120 86.5C117.85 86.5 115.65 86.5 113.5 86.5V80C115.65 80 117.85 80 120 80C120 77.85 120 75.65 120 73.5C117.85 73.5 115.65 73.5 113.5 73.5V66.5C115.65 66.5 117.85 66.5 120 66.5C120 62.15 120 57.8 120 53.5C120 51.15 120 48.85 120 46.5C122.15 46.5 124.35 46.5 126.5 46.5H133.5C133.5 48.85 133.5 51.15 133.5 53.5C135.65 53.5 137.85 53.5 140 53.5C142.15 53.5 144.35 53.5 146.5 53.5C146.5 51.15 146.5 48.85 146.5 46.5C148.85 46.5 151.15 46.5 153.5 46.5C153.5 44.35 153.5 42.15 153.5 40H146.5C146.5 37.85 146.5 35.65 146.5 33.5C144.35 33.5 142.15 33.5 140 33.5C140 31.15 140 28.85 140 26.5C142.15 26.5 144.35 26.5 146.5 26.5V20C148.85 20 151.15 20 153.5 20C153.5 17.85 153.5 15.65 153.5 13.5H146.5V6.5C144.35 6.5 142.15 6.5 140 6.5C137.85 6.5 135.65 6.5 133.5 6.5C133.5 8.85 133.5 11.15 133.5 13.5H120C120 11.15 120 8.85 120 6.5C117.85 6.5 115.65 6.5 113.5 6.5C111.35 6.5 108.85 6.5 106.5 6.5C106.5 8.85 106.5 11.15 106.5 13.5C104.35 13.5 102.15 13.45 100 13.5C100 15.65 100 17.85 100 20C102.15 20 104.35 20 106.5 20V26.5C108.85 26.5 111.2 26.5 113.5 26.5C113.5 28.85 113.5 31.2 113.5 33.5C111.15 33.5 108.85 33.5 106.5 33.5C106.5 35.65 106.5 37.85 106.5 40C104.35 40 102.15 40 100 40C97.85 40 95.65 40 93.5 40C91.35 40 88.85 40 86.5 40C84.15 40 82.15 40 80 40C80 42.15 80 44.35 80 46.5H73.5C73.5 44.35 73.5 42.15 73.5 40C75.65 40 77.85 40 80 40C80 37.85 80 35.65 80 33.5C88.85 33.5 97.7 33.5 106.5 33.5C106.5 31.15 106.5 28.85 106.5 26.5C104.35 26.5 102.15 26.5 100 26.5C100 24.35 100 22.15 100 20C97.85 20 95.65 20 93.5 20V13.8C93.55 13.25 99 13.55 100 13.5C100 11.15 100 8.8 100 6.5C102.15 6.5 104.35 6.5 106.5 6.5V0H120Z" fill="#674415"/>
<path d="M113.5 6.5C113.5 8.85 113.5 11.15 113.5 13.5C113.5 15.85 113.5 17.85 113.5 20C111.15 20 108.8 20 106.5 20C104.2 20 102.15 20 100 20C100 17.85 100 15.65 100 13.5C102.15 13.5 104.35 13.5 106.5 13.5C106.5 11.15 106.5 8.85 106.5 6.5C108.85 6.5 111.15 6.5 113.5 6.5Z" fill="#FEED6F"/>
<path d="M120 6.5C120 8.85 120 11.15 120 13.5H126.5C126.5 15.65 126.5 17.85 126.5 20C124.35 20 122.15 20 120 20C120 17.85 120 15.65 120 13.5H113.5C113.5 11.15 113.5 8.85 113.5 6.5C115.65 6.5 117.85 6.5 120 6.5Z" fill="#C77629"/>
<path d="M146.5 6.5V13.5H153.5C153.5 15.65 153.5 17.85 153.5 20C151.15 20 148.85 20 146.5 20V26.5C144.35 26.5 142.15 26.5 140 26.5C140 28.85 140 31.15 140 33.5C142.15 33.5 144.35 33.5 146.5 33.5C146.5 35.65 146.5 37.85 146.5 40H153.5C153.5 42.15 153.5 44.35 153.5 46.5C151.15 46.5 148.85 46.5 146.5 46.5C146.5 48.85 146.5 51.15 146.5 53.5C144.35 53.5 142.15 53.5 140 53.5V46.5C142.15 46.5 144.35 46.5 146.5 46.5C146.5 44.35 146.5 42.15 146.5 40C144.35 40 142.15 40 140 40V33.5H133.5C133.5 31.15 133.5 28.8 133.5 26.5C135.65 26.5 137.85 26.5 140 26.5C140 24.35 140 22.15 140 20C142.15 20 144.35 20 146.5 20V13.5H140V6.5C142.15 6.5 144.35 6.5 146.5 6.5Z" fill="#C77629"/>
<path d="M140 6.5V13.5H133.5C133.5 15.65 133.5 17.85 133.5 20C131.15 20 128.8 20 126.5 20C126.5 22.15 126.5 24.35 126.5 26.5H120V33.5C117.85 33.5 115.65 33.5 113.5 33.5C113.5 35.65 113.5 37.85 113.5 40C111.15 40 108.8 40 106.5 40C106.5 42.15 106.5 44.35 106.5 46.5H100V40C102.15 40 104.35 40 106.5 40C106.5 37.85 106.5 35.65 106.5 33.5C108.85 33.5 111.15 33.5 113.5 33.5C113.5 31.15 113.5 28.8 113.5 26.5C111.15 26.5 108.8 26.5 106.5 26.5V20C108.85 20 111.2 20 113.5 20C113.5 17.85 113.5 15.65 113.5 13.5H120C120 15.65 120 17.85 120 20C122.15 20 124.35 20 126.5 20C126.5 17.85 126.5 15.65 126.5 13.5H133.5C133.5 11.15 133.5 8.85 133.5 6.5C135.65 6.5 137.85 6.5 140 6.5Z" fill="#FEF8C9"/>
<path d="M93.5 40V53.5H100V60H106.5V66.5C108.8 66.5 111.15 66.5 113.5 66.5V73.5C109 73.5 104.5 73.5 100 73.5C100 71.15 100 68.8 100 66.5C97.85 66.5 95.65 66.5 93.5 66.5C93.5 64.35 93.5 62.15 93.5 60C91.15 60 88.8 60 86.5 60C86.5 55.5 86.5 51 86.5 46.5V40C88.85 40 91.15 40 93.5 40Z" fill="#C77629"/>
<path d="M100 40V46.5H106.5C106.5 48.85 106.5 51.2 106.5 53.5C108.85 53.5 111.15 53.5 113.5 53.5H120C120 57.85 120 62.2 120 66.5C117.85 66.5 115.65 66.5 113.5 66.5C111.35 66.5 108.8 66.5 106.5 66.5V60H100V53.5H93.5V40C95.65 40 97.85 40 100 40Z" fill="#E5B061"/>
<path d="M140 13.5H146.5V20C144.35 20 142.15 20 140 20C140 22.15 140 24.35 140 26.5C137.85 26.5 135.65 26.5 133.5 26.5C133.5 28.85 133.5 31.2 133.5 33.5C133.5 35.8 133.5 37.85 133.5 40C131.15 40 128.85 40 126.5 40C124.15 40 122.15 40 120 40C120 42.15 120 44.35 120 46.5C117.85 46.5 115.65 46.5 113.5 46.5V53.5C111.15 53.5 108.85 53.5 106.5 53.5C106.5 51.15 106.5 48.8 106.5 46.5C106.5 44.2 106.5 42.15 106.5 40C108.85 40 111.2 40 113.5 40C113.5 37.85 113.5 35.65 113.5 33.5C115.65 33.5 117.85 33.5 120 33.5V26.5H126.5C126.5 24.35 126.5 22.15 126.5 20C128.85 20 131.2 20 133.5 20C133.5 17.85 133.5 15.65 133.5 13.5H140Z" fill="#FEED6F"/>
<path d="M140 40C142.15 40 144.35 40 146.5 40C146.5 42.15 146.5 44.35 146.5 46.5C144.35 46.5 142.15 46.5 140 46.5V53.5C137.85 53.5 135.65 53.5 133.5 53.5C133.5 51.15 133.5 48.85 133.5 46.5C133.5 44.15 133.5 42.15 133.5 40C135.65 40 137.85 40 140 40Z" fill="#FEED6F"/>
<path d="M126.5 40V46.5C124.35 46.5 122.15 46.5 120 46.5C120 48.85 120 51.15 120 53.5H113.5V46.5C115.65 46.5 117.85 46.5 120 46.5C120 44.35 120 42.15 120 40C122.15 40 124.35 40 126.5 40Z" fill="#C77629"/>
<path d="M140 33.5V40C137.85 40 135.65 40 133.5 40C133.5 37.85 133.5 35.65 133.5 33.5H140Z" fill="#FEF8C9"/>
<path d="M133.5 40C133.5 42.15 133.5 44.35 133.5 46.5H126.5V40C128.85 40 131.15 40 133.5 40Z" fill="#FEF8C9"/>
<path d="M86.5 40V46.5H80C80 48.85 80 51.15 80 53.5H73.5C73.5 51.15 73.5 48.85 73.5 46.5H80C80 44.35 80 42.15 80 40C82.15 40 84.35 40 86.5 40Z" fill="#D5D5D5"/>
<path d="M93.5 66.5C95.65 66.5 97.85 66.5 100 66.5C100 68.85 100 71.2 100 73.5C104.5 73.5 109 73.5 113.5 73.5V80C111.15 80 108.85 80 106.5 80C104.15 80 102.15 80 100 80C100 77.85 100 75.65 100 73.5C97.85 73.5 95.65 73.5 93.5 73.5C93.5 71.15 93.5 68.8 93.5 66.5Z" fill="#D5D5D5"/>
<path d="M86.5 46.5C86.5 51 86.5 55.5 86.5 60C88.85 60 91.2 60 93.5 60C93.5 62.15 93.5 64.35 93.5 66.5C91.15 66.5 88.8 66.5 86.5 66.5C86.5 64.35 86.5 62.15 86.5 60C84.35 60 82.15 60 80 60C80 57.85 80 55.65 80 53.5C80 51.35 80 48.85 80 46.5H86.5Z" fill="#FEFEFE"/>
<path d="M80 53.5C80 55.65 80 57.85 80 60C82.15 60 84.35 60 86.5 60C86.5 62.15 86.5 64.35 86.5 66.5C88.85 66.5 91.2 66.5 93.5 66.5C93.5 68.85 93.5 71.2 93.5 73.5C95.65 73.5 97.85 73.5 100 73.5C100 75.65 100 77.85 100 80C102.15 80 104.35 80 106.5 80V86.5C104.35 86.5 102.15 86.5 100 86.5C100 84.35 100 82.15 100 80C97.85 80 95.65 80 93.5 80C91.35 80 88.85 80 86.5 80V73.5C84.35 73.5 82.15 73.5 80 73.5C80 71.15 80 68.8 80 66.5C77.85 66.5 75.65 66.5 73.5 66.5C73.5 62.15 73.5 57.85 73.5 53.5H80Z" fill="#674415"/>
<path d="M26.4995 66.5C26.4995 68.85 26.4995 71.15 26.4995 73.5C24.3495 73.5 22.1495 73.5 19.9995 73.5C19.9995 75.65 19.9995 77.85 19.9995 80C17.8495 80 15.6495 80 13.4995 80C13.4995 88.8 13.4995 97.7 13.4995 106.5H6.49952C6.49952 97.7 6.39952 88.8 6.49952 80C8.84952 80 11.1495 80 13.4995 80C13.4995 77.85 13.4995 75.65 13.4995 73.5C15.6495 73.5 17.8495 73.5 19.9995 73.5C19.9995 71.15 19.9995 68.85 19.9995 66.5C22.1495 66.5 24.3495 66.5 26.4995 66.5Z" fill="#FEFEFE"/>
<path d="M33.5 60C33.5 62.15 33.5 64.35 33.5 66.5C31.15 66.5 28.8495 66.5 26.4995 66.5C26.4995 64.35 26.5 62.15 26.5 60C28.85 60 31.15 60 33.5 60Z" fill="#FEFEFE"/>
<path d="M40 60C46.65 60 53.35 60 60 60C60 62.15 60 64.35 60 66.5C60 68.65 60 71.2 60 73.5C55.5 73.5 51 73.5 46.5 73.5C42 73.5 37.85 73.5 33.5 73.5V66.5C35.65 66.5 37.85 66.5 40 66.5C40 64.35 40 62.15 40 60Z" fill="#FEFEFE"/>
<path d="M13.4995 106.5C13.4995 108.85 13.5 111.15 13.5 113.5C15.65 113.5 17.85 113.5 20 113.5C20 115.65 20 117.85 20 120C22.15 120 24.35 120 26.5 120C26.5 122.15 26.5 124.35 26.5 126.5C28.85 126.5 31.15 126.5 33.5 126.5C33.5 128.85 33.5 131.15 33.5 133.5C31.15 133.5 28.85 133.5 26.5 133.5C26.5 131.15 26.5 128.85 26.5 126.5C24.35 126.5 22.15 126.5 20 126.5C20 124.35 20 122.15 20 120C17.85 120 15.65 120 13.5 120C13.5 117.85 13.5 115.65 13.5 113.5C11.15 113.5 8.85002 113.5 6.50002 113.5C6.50002 111.15 6.49952 108.85 6.49952 106.5H13.4995Z" fill="#D5D5D5"/>
<path d="M46.5 140C46.5 142.15 46.5 144.35 46.5 146.5C53.15 146.5 59.85 146.5 66.5 146.5V153.5C59.85 153.5 53.15 153.55 46.5 153.5C46.5 151.15 46.5 148.85 46.5 146.5C44.35 146.5 42.15 146.5 40 146.5C40 144.35 40 142.15 40 140C42.15 140 44.35 140 46.5 140Z" fill="#D5D5D5"/>
<path d="M106.5 113.5C106.5 117.85 106.5 122.2 106.5 126.5C104.35 126.5 102.15 126.5 100 126.5C100 128.85 100 131.15 100 133.5C97.85 133.5 95.65 133.5 93.5 133.5C93.5 135.65 93.5 137.85 93.5 140C91.15 140 88.85 140 86.5 140C86.5 142.15 86.5 144.35 86.5 146.5C82.2 146.5 77.85 146.5 73.5 146.5C73.5 148.85 73.5 151.15 73.5 153.5C71.15 153.5 68.85 153.5 66.5 153.5V146.5C68.85 146.5 71.15 146.5 73.5 146.5C73.5 144.35 73.5 142.15 73.5 140C75.65 140 77.85 140 80 140C82.15 140 84.35 140 86.5 140C86.5 137.85 86.5 135.65 86.5 133.5C88.85 133.5 91.15 133.5 93.5 133.5C93.5 131.15 93.5 128.85 93.5 126.5C95.65 126.5 97.85 126.5 100 126.5C100 124.35 100 122.15 100 120C100 117.85 100 115.65 100 113.5H106.5Z" fill="#9C9C9C"/>
<path d="M113.5 73.5C115.65 73.5 117.85 73.5 120 73.5C120 75.65 120 77.85 120 80C117.85 80 115.65 80 113.5 80V86.5C111.2 86.5 108.8 86.5 106.5 86.5C106.5 95.5 106.5 104.5 106.5 113.5H100C100 109 100 104.5 100 100C100 95.5 100 95.65 100 93.5H93.5V80C95.65 80 97.85 80 100 80C100 82.15 100 84.35 100 86.5C102.15 86.5 104.35 86.5 106.5 86.5V80C108.85 80 111.15 80 113.5 80V73.5Z" fill="#828282"/>
<path d="M40 53.5C40 55.65 40 57.85 40 60C37.85 60 35.65 60 33.5 60C33.5 57.85 33.5 55.65 33.5 53.5C35.65 53.5 37.85 53.5 40 53.5Z" fill="#D5D5D5"/>
<path d="M66.5 46.5C66.5 48.85 66.5 51.15 66.5 53.5C57.65 53.5 48.85 53.5 40 53.5C40 51.15 40 48.85 40 46.5C48.8 46.4 57.7 46.5 66.5 46.5Z" fill="#D5D5D5"/>
<path d="M73.5 53.5C73.5 57.85 73.5 62.15 73.5 66.5C75.65 66.5 77.85 66.5 80 66.5C80 68.85 80 71.2 80 73.5C82.15 73.5 84.35 73.5 86.5 73.5V80C84.35 80 82.15 80 80 80C80 77.85 80 75.65 80 73.5C77.85 73.5 75.65 73.5 73.5 73.5C73.5 71.15 73.5 68.85 73.5 66.5C71.15 66.5 68.85 66.5 66.5 66.5C66.5 62.2 66.5 57.85 66.5 53.5H73.5Z" fill="#FEFEFE"/>
<path d="M40 133.5C40 135.65 40 137.85 40 140C37.85 140 35.65 140 33.5 140C33.5 137.85 33.5 135.65 33.5 133.5C35.65 133.5 37.85 133.5 40 133.5Z" fill="#FEFEFE"/>
<path d="M26.4995 73.5C26.4995 75.65 26.5 77.85 26.5 80C24.35 80 22.1495 80 19.9995 80C19.9995 84.5 20 89 20 93.5C20 100.15 20 106.85 20 113.5C22.15 113.5 24.35 113.5 26.5 113.5C26.5 115.65 26.5 117.85 26.5 120C28.85 120 31.2 120 33.5 120C33.5 122.15 33.5 124.35 33.5 126.5C35.65 126.5 37.85 126.5 40 126.5C40 128.85 40 131.2 40 133.5C42.15 133.5 44.35 133.5 46.5 133.5C46.5 135.65 46.5 137.85 46.5 140C48.85 140 51.15 140 53.5 140C55.85 140 57.85 140 60 140C64.5 140 69 140 73.5 140C73.5 142.15 73.5 144.35 73.5 146.5C71.15 146.5 68.85 146.5 66.5 146.5C59.85 146.5 53.15 146.5 46.5 146.5C46.5 144.35 46.5 142.15 46.5 140C44.35 140 42.15 140 40 140C40 137.85 40 135.65 40 133.5C37.85 133.5 35.65 133.5 33.5 133.5C33.5 131.15 33.5 128.85 33.5 126.5C31.15 126.5 28.85 126.5 26.5 126.5C26.5 124.35 26.5 122.15 26.5 120C24.35 120 22.15 120 20 120C20 117.85 20 115.65 20 113.5C17.85 113.5 15.65 113.5 13.5 113.5C13.5 111.15 13.4995 108.85 13.4995 106.5C13.4995 97.7 13.4995 88.8 13.4995 80C15.6495 80 17.8495 80 19.9995 80C19.9995 77.85 19.9995 75.65 19.9995 73.5C22.1495 73.5 24.3495 73.5 26.4995 73.5Z" fill="#36A6D7"/>
<path d="M46.5 80C48.85 80 51.2 80 53.5 80V86.5C55.65 86.5 57.85 86.5 60 86.5V93.5H66.5V100H100C100 104.5 100 109 100 113.5H93.5C89 113.5 84.5 113.5 80 113.5C73.35 113.5 66.65 113.5 60 113.5C60 111.15 60 108.8 60 106.5H53.5V100C51.15 100 48.85 100 46.5 100C46.5 99.05 46.75 93.55 46.2 93.5H40C40 95.65 40 97.85 40 100C40 104.5 40 109 40 113.5H33.5V100H26.5V93.5C27.25 93.5 33.5 93.85 33.5 93.5V86.5H40V80C42.15 80 44.35 80 46.5 80Z" fill="#81F3FE"/>
<path d="M73.5 120V126.5C71.2 126.5 68.85 126.5 66.5 126.5C64.15 126.5 62.15 126.5 60 126.5C60 124.35 60 122.15 60 120C64.5 120 69 120 73.5 120Z" fill="#81F3FE"/>
<path d="M60 113.5C60 115.65 60 117.85 60 120C57.85 120 55.65 120 53.5 120V126.5H46.5V120C48.85 120 51.15 120 53.5 120V113.5C55.65 113.5 57.85 113.5 60 113.5Z" fill="#81F3FE"/>
<path d="M80 73.5C80 75.65 80 77.85 80 80C82.15 80 84.35 80 86.5 80C88.65 80 91.15 80 93.5 80V93.5H100C100 95.65 100 97.85 100 100H66.5V93.5H60V86.5C62.15 86.5 64.35 86.5 66.5 86.5V80H73.5C73.5 77.85 73.5 75.65 73.5 73.5C75.65 73.5 77.85 73.5 80 73.5Z" fill="#61D2DC"/>
<path d="M100 113.5C100 115.65 100 117.85 100 120H93.5V113.5H100Z" fill="#51E4F3"/>
<path d="M100 120C100 122.15 100 124.35 100 126.5C97.85 126.5 95.65 126.5 93.5 126.5C93.5 128.85 93.5 131.15 93.5 133.5C91.15 133.5 88.85 133.5 86.5 133.5C86.5 135.65 86.5 137.85 86.5 140C84.35 140 82.15 140 80 140V133.5C82.15 133.5 84.35 133.5 86.5 133.5C86.5 131.15 86.5 128.85 86.5 126.5C88.85 126.5 91.15 126.5 93.5 126.5V120H100Z" fill="#36A6D7"/>
<path d="M93.5 120V126.5C91.15 126.5 88.85 126.5 86.5 126.5C86.5 128.85 86.5 131.15 86.5 133.5C84.35 133.5 82.15 133.5 80 133.5V140C77.85 140 75.65 140 73.5 140C73.5 137.85 73.5 135.65 73.5 133.5C75.65 133.5 77.85 133.5 80 133.5C80 131.15 80 128.85 80 126.5C82.15 126.5 84.35 126.5 86.5 126.5V120H93.5Z" fill="#45B7E9"/>
<path d="M26.5 93.5V100H33.5V113.5H40C40 115.65 40 117.85 40 120C42.15 120 44.35 120 46.5 120V126.5H53.5V140C51.15 140 48.85 140 46.5 140C46.5 137.85 46.5 135.65 46.5 133.5C44.35 133.5 42.15 133.5 40 133.5C40 131.15 40 128.8 40 126.5C37.85 126.5 35.65 126.5 33.5 126.5C33.5 124.35 33.5 122.15 33.5 120C31.15 120 28.8 120 26.5 120C26.5 117.85 26.5 115.65 26.5 113.5C24.35 113.5 22.15 113.5 20 113.5C20 106.85 20 100.15 20 93.5H26.5Z" fill="#45B7E9"/>
<path d="M33.5 73.5C37.85 73.5 42.15 73.5 46.5 73.5V80C44.35 80 42.15 80 40 80V86.5H33.5V93.5C33.5 93.85 27.25 93.5 26.5 93.5H20C20 89 19.9995 84.5 19.9995 80C22.1495 80 24.35 80 26.5 80C26.5 77.85 26.4995 75.65 26.4995 73.5C28.8495 73.5 31.15 73.5 33.5 73.5Z" fill="#D0FDFE"/>
<path d="M80 120H86.5V126.5C84.35 126.5 82.15 126.5 80 126.5C80 128.85 80 131.15 80 133.5C77.85 133.5 75.65 133.5 73.5 133.5C73.5 135.65 73.5 137.85 73.5 140C69 140 64.5 140 60 140V133.5C62.15 133.5 64.35 133.5 66.5 133.5V126.5C68.8 126.5 71.15 126.5 73.5 126.5V120H80Z" fill="#D0FDFE"/>
<path d="M60 133.5V140C57.85 140 55.65 140 53.5 140V133.5C55.65 133.5 57.85 133.5 60 133.5Z" fill="#FEFEFE"/>
<path d="M46.5 100C46.5 104.5 46.5 109 46.5 113.5C48.85 113.5 51.2 113.5 53.5 113.5V120C51.15 120 48.85 120 46.5 120C44.15 120 42.15 120 40 120C40 117.85 40 115.65 40 113.5C40 109 40 104.5 40 100H46.5Z" fill="#D0FDFE"/>
<path d="M60 120C60 122.15 60 124.35 60 126.5C62.15 126.5 64.35 126.5 66.5 126.5V133.5C64.35 133.5 62.15 133.5 60 133.5C57.85 133.5 55.65 133.5 53.5 133.5V120C55.65 120 57.85 120 60 120Z" fill="#51E4F3"/>
<path d="M40 100C40 97.85 40 95.65 40 93.5H46.2C46.7 93.55 46.5 99.05 46.5 100C48.85 100 51.15 100 53.5 100V106.5H60C60 108.85 60 111.2 60 113.5C57.85 113.5 55.65 113.5 53.5 113.5C51.35 113.5 48.8 113.5 46.5 113.5C46.5 109 46.5 104.5 46.5 100H40Z" fill="#51E4F3"/>
<path d="M80 113.5V120H73.5C69 120 64.5 120 60 120C60 117.85 60 115.65 60 113.5C66.65 113.5 73.35 113.5 80 113.5Z" fill="#51E4F3"/>
<path d="M93.5 113.5V120H80V113.5C84.5 113.5 89 113.5 93.5 113.5Z" fill="#FEFEFE"/>
</g>
<defs>
<clipPath id="clip0_28_11684">
<rect width="160" height="160" fill="white"/>
</clipPath>
</defs>
</svg>
