<?xml version="1.0" encoding="UTF-8"?>
<!-- Generator: visioncortex VTracer 0.6.5 -->
<svg version="1.1" xmlns="http://www.w3.org/2000/svg" width="150" height="84">
<path d="M0,0 L150,0 L150,84 L0,84 Z " fill="#2E2E3B" transform="translate(0,0)"/>
<path d="M0,0 L78,0 L78,84 L-42,84 L-45,83 L-45,81 L-43,81 L-43,79 L-35,79 L-31,76 L-24,76 L-23,78 L-17,78 L-17,76 L-24,75 L-28,74 L-28,72 L-22,73 L-22,71 L-26,70 L-24,69 L-24,67 L-29,66 L-29,65 L-15,64 L-15,66 L-13,66 L-14,69 L-20,69 L-22,68 L-22,70 L-14,71 L-5,73 L-5,71 L2,70 L2,68 L-10,71 L-13,71 L-13,69 L-1,66 L-1,64 L-6,65 L-6,62 L-8,62 L-8,60 L-11,60 L-11,57 L-6,58 L-5,59 L4,60 L4,63 L8,62 L13,61 L14,65 L13,68 L16,68 L17,72 L20,72 L21,70 L19,69 L22,67 L27,67 L27,69 L24,70 L33,70 L35,67 L36,68 L37,66 L39,66 L41,62 L45,60 L42,65 L44,65 L44,63 L48,62 L49,56 L54,49 L54,46 L56,46 L57,53 L58,49 L60,49 L61,53 L57,58 L51,60 L50,63 L52,63 L53,64 L58,59 L61,55 L65,55 L66,51 L62,51 L62,47 L57,45 L52,41 L50,41 L50,43 L52,43 L52,45 L47,45 L48,48 L47,49 L46,58 L44,59 L44,45 L46,45 L44,42 L44,39 L40,39 L40,35 L35,34 L35,36 L33,36 L32,40 L30,33 L28,32 L28,35 L24,36 L25,41 L24,43 L26,44 L27,48 L24,49 L23,51 L31,51 L28,53 L34,53 L34,50 L31,50 L31,42 L36,41 L40,45 L42,44 L42,54 L38,55 L38,59 L22,59 L22,61 L27,63 L27,65 L20,64 L20,60 L16,58 L4,57 L3,59 L-4,58 L-2,54 L2,54 L2,51 L-3,51 L-3,54 L-8,54 L-13,52 L-14,49 L-12,48 L-15,45 L-22,44 L-22,42 L-13,40 L-15,38 L-22,39 L-23,37 L-21,36 L-13,36 L-12,33 L-10,33 L-10,35 L-5,35 L-5,33 L-7,33 L-7,31 L-12,31 L-16,32 L-16,29 L-14,28 L-7,28 L-7,30 L-3,30 L-3,32 L0,32 L1,34 L5,35 L7,30 L1,32 L0,28 L6,27 L11,30 L10,38 L6,39 L6,41 L9,41 L9,44 L5,44 L5,46 L9,48 L3,47 L4,49 L9,50 L7,51 L7,53 L11,53 L11,55 L16,55 L18,48 L22,48 L22,41 L20,40 L21,38 L19,38 L17,36 L15,36 L15,31 L20,30 L13,29 L15,28 L15,26 L9,25 L9,23 L6,23 L6,21 L11,23 L14,25 L14,23 L10,21 L4,18 L-2,18 L-1,15 L-6,14 L-6,12 L-13,12 L-11,9 L-5,9 L0,7 L9,11 L8,8 L13,9 L15,10 L14,6 L9,6 L8,2 L2,2 Z " fill="#161523" transform="translate(72,0)"/>
<path d="M0,0 L7,0 L12,2 L13,4 L19,5 L27,10 L27,12 L23,10 L19,8 L19,10 L22,10 L22,12 L28,13 L29,16 L34,17 L34,18 L28,18 L29,21 L28,23 L31,22 L32,25 L34,25 L36,31 L35,36 L33,38 L33,35 L31,35 L29,42 L24,42 L24,40 L20,40 L20,38 L16,36 L16,34 L20,34 L18,33 L18,31 L22,31 L22,28 L19,28 L19,26 L22,25 L23,17 L15,14 L14,19 L20,17 L19,22 L20,24 L14,22 L13,19 L10,19 L10,17 L6,17 L6,15 L-3,16 L-3,19 L1,17 L6,18 L6,20 L8,20 L8,22 L3,22 L3,20 L0,23 L-8,24 L-9,25 L0,24 L0,27 L-9,29 L-9,31 L-2,31 L-1,34 L2,35 L0,39 L5,40 L10,41 L10,38 L15,38 L15,41 L11,42 L10,44 L16,46 L17,43 L29,44 L33,47 L33,51 L40,52 L39,50 L34,49 L35,46 L51,46 L51,42 L54,41 L54,32 L52,33 L48,29 L44,29 L45,33 L44,37 L47,37 L47,40 L40,41 L41,39 L36,38 L37,35 L40,35 L37,30 L36,23 L41,22 L41,19 L44,20 L46,23 L48,23 L48,21 L53,22 L53,26 L57,26 L59,32 L57,32 L58,45 L59,36 L60,32 L65,32 L65,30 L63,30 L63,28 L66,27 L70,31 L75,34 L75,38 L79,38 L78,43 L76,44 L76,42 L74,42 L72,46 L68,51 L66,51 L66,53 L64,52 L65,50 L63,50 L64,46 L65,45 L70,45 L71,42 L73,42 L73,36 L71,36 L70,41 L69,41 L69,33 L65,40 L62,45 L61,49 L57,50 L57,52 L55,52 L56,48 L52,53 L50,53 L49,56 L48,55 L46,58 L37,57 L38,55 L40,56 L40,54 L33,56 L33,60 L29,59 L29,55 L25,56 L26,49 L21,49 L20,51 L17,50 L17,47 L8,47 L6,45 L2,44 L2,47 L5,47 L5,49 L7,49 L7,52 L12,51 L12,53 L3,56 L0,56 L0,58 L9,55 L15,55 L15,57 L8,58 L8,60 L-4,58 L-9,57 L-9,55 L-1,55 L0,53 L-11,51 L-11,49 L-15,48 L-12,47 L-12,45 L-17,44 L-15,42 L-20,40 L-17,36 L-13,37 L-12,34 L-10,34 L-11,39 L-11,41 L-9,41 L-11,46 L-6,47 L-6,49 L-3,50 L-4,47 L1,47 L1,44 L-4,44 L-4,42 L-2,41 L-3,38 L-2,35 L-12,33 L-13,29 L-15,32 L-19,30 L-22,29 L-25,30 L-24,25 L-18,23 L-18,27 L-15,23 L-12,26 L-12,21 L-8,20 L-8,18 L-10,18 L-10,16 L0,12 L17,12 L18,7 L15,7 L15,9 L10,9 L10,5 L6,6 L5,10 L-3,10 L-3,12 L-8,11 L-6,10 L-6,8 L-3,8 L-3,5 L0,2 Z " fill="#565365" transform="translate(59,13)"/>
<path d="M0,0 L72,0 L80,2 L81,5 L86,6 L87,10 L81,9 L81,11 L72,8 L65,7 L65,5 L77,5 L72,3 L59,1 L59,3 L56,2 L55,4 L45,5 L45,8 L47,8 L47,5 L58,5 L58,7 L54,7 L54,9 L58,9 L58,11 L56,12 L57,15 L50,14 L49,17 L44,18 L42,16 L44,16 L44,14 L49,12 L50,10 L38,13 L37,14 L32,14 L35,12 L37,12 L37,10 L32,9 L29,12 L31,13 L26,14 L26,12 L24,13 L25,15 L23,15 L23,17 L16,20 L16,22 L20,23 L16,25 L15,28 L13,28 L12,32 L10,32 L11,27 L12,25 L7,25 L6,28 L4,28 L5,32 L3,32 L3,35 L0,35 Z " fill="#333636" transform="translate(0,0)"/>
<path d="M0,0 L5,1 L9,3 L8,11 L4,12 L4,14 L7,14 L7,17 L3,17 L3,19 L7,21 L1,20 L2,22 L7,23 L5,24 L5,26 L9,26 L9,28 L14,28 L16,21 L20,21 L20,14 L18,13 L19,11 L17,11 L17,7 L21,8 L23,14 L22,16 L24,17 L25,21 L22,22 L21,24 L29,24 L26,26 L32,26 L32,23 L29,23 L29,15 L34,14 L38,18 L40,17 L40,27 L36,28 L36,32 L20,32 L20,34 L25,36 L25,38 L18,37 L18,33 L14,31 L2,30 L1,32 L-6,31 L-4,27 L0,27 L0,24 L-5,24 L-5,27 L-10,27 L-15,25 L-16,22 L-14,21 L-17,18 L-24,17 L-24,15 L-15,13 L-17,11 L-24,12 L-25,10 L-23,9 L-15,9 L-14,6 L-12,6 L-12,8 L-7,8 L-7,6 L-9,6 L-9,4 L-14,4 L-18,5 L-18,2 L-16,1 L-9,1 L-9,3 L-5,3 L-5,5 L-2,5 L-1,7 L3,8 L5,3 L-1,5 L-2,1 Z " fill="#2D2D42" transform="translate(74,27)"/>
<path d="M0,0 L2,0 L2,3 L6,3 L5,7 L3,9 L4,19 L9,20 L9,22 L6,23 L9,27 L9,29 L11,30 L7,30 L6,31 L12,34 L16,36 L16,38 L6,37 L5,38 L0,37 L0,35 L-6,34 L-5,27 L2,28 L-2,24 L-3,26 L-7,24 L-7,21 L-11,21 L-9,23 L-10,26 L-14,23 L-9,30 L-10,32 L-13,32 L-6,37 L-3,38 L-3,42 L16,42 L16,43 L10,44 L8,48 L-4,48 L-11,46 L-20,45 L-20,12 L-14,12 L-14,7 L-9,8 L-7,11 L-3,9 L-3,3 Z " fill="#0C0E1A" transform="translate(20,26)"/>
<path d="M0,0 L47,0 L47,2 L42,2 L47,9 L47,12 L50,13 L50,14 L44,14 L40,12 L40,9 L45,10 L40,7 L38,2 L30,1 L32,10 L37,11 L40,13 L40,15 L48,17 L53,23 L53,25 L57,27 L57,29 L62,29 L62,41 L60,41 L61,49 L59,49 L59,51 L55,50 L55,46 L57,45 L58,33 L56,33 L55,39 L53,40 L53,32 L51,29 L50,42 L47,42 L47,27 L43,25 L39,25 L35,21 L32,20 L31,16 L28,15 L26,12 L19,10 L16,7 L16,9 L11,9 L12,6 L10,5 L10,7 L2,6 Z " fill="#2B2227" transform="translate(86,0)"/>
<path d="M0,0 L14,0 L16,2 L16,5 L24,7 L24,5 L29,6 L25,7 L25,9 L30,9 L30,7 L33,8 L33,10 L40,11 L42,15 L46,16 L46,20 L51,21 L53,24 L57,24 L61,27 L62,34 L60,43 L56,44 L53,42 L52,39 L52,32 L48,32 L48,28 L45,29 L45,21 L43,19 L43,16 L37,16 L31,14 L28,11 L28,14 L23,12 L23,15 L18,13 L11,14 L7,14 L5,16 L-4,15 L-6,14 L-6,12 L-13,12 L-11,9 L-5,9 L0,7 L9,11 L8,8 L13,9 L15,10 L14,6 L9,6 L8,2 L2,2 Z " fill="#261F2E" transform="translate(72,0)"/>
<path d="M0,0 L10,1 L15,5 L15,2 L18,2 L17,5 L20,6 L20,8 L14,7 L14,9 L21,10 L25,11 L25,13 L22,14 L14,14 L18,12 L12,12 L10,15 L-1,14 L-1,16 L-3,16 L-3,18 L0,19 L-30,19 L-30,6 L-21,6 L-14,8 L-2,8 L0,4 L-3,3 L-3,1 Z " fill="#677484" transform="translate(30,65)"/>
<path d="M0,0 L1,3 L4,3 L4,6 L0,7 L0,9 L2,9 L2,11 L5,12 L-2,12 L-1,17 L-3,18 L-3,15 L-5,16 L-7,17 L-8,19 L-10,15 L-14,17 L-15,21 L-13,20 L-12,18 L-7,22 L-5,22 L-3,19 L-2,23 L8,26 L8,31 L10,33 L6,33 L6,35 L11,35 L11,38 L7,39 L7,41 L2,41 L4,40 L4,38 L-1,37 L0,33 L-5,31 L-1,29 L0,25 L-3,28 L-7,27 L-8,30 L-12,29 L-13,25 L-17,24 L-18,17 L-23,18 L-26,15 L-22,15 L-21,11 L-19,11 L-20,6 L-12,2 L-8,1 L-1,1 Z " fill="#19202C" transform="translate(49,22)"/>
<path d="M0,0 L4,0 L4,3 L-5,5 L-5,7 L2,7 L3,10 L6,11 L4,15 L9,16 L14,17 L14,14 L19,14 L19,17 L15,18 L14,20 L20,22 L21,19 L26,19 L30,21 L30,24 L25,25 L24,27 L21,26 L21,23 L12,23 L10,21 L6,20 L6,23 L9,23 L9,25 L11,25 L11,28 L16,27 L16,29 L7,32 L4,32 L4,34 L13,31 L19,31 L19,33 L12,34 L12,36 L0,34 L-5,33 L-5,31 L3,31 L4,29 L-7,27 L-7,25 L-11,24 L-8,23 L-8,21 L-13,20 L-11,18 L-16,16 L-13,12 L-9,13 L-8,10 L-6,10 L-7,15 L-7,17 L-5,17 L-7,22 L-2,23 L-2,25 L1,26 L0,23 L5,23 L5,20 L0,20 L0,18 L2,17 L1,14 L2,11 L-7,9 L-6,4 Z " fill="#5E5B6E" transform="translate(55,37)"/>
<path d="M0,0 L4,1 L6,2 L7,5 L11,5 L15,7 L15,9 L9,9 L8,13 L7,15 L13,16 L14,18 L17,18 L18,16 L24,18 L29,19 L27,16 L22,15 L17,10 L23,11 L21,6 L32,7 L39,10 L37,12 L40,13 L40,15 L38,16 L41,17 L41,19 L44,20 L37,21 L38,25 L34,23 L29,21 L20,21 L20,23 L10,23 L10,19 L5,18 L-1,13 L3,11 L-1,6 L-1,4 L3,6 L1,2 Z " fill="#131420" transform="translate(7,45)"/>
<path d="M0,0 L4,4 L4,11 L6,5 L8,5 L8,18 L5,18 L5,22 L9,23 L9,21 L11,21 L10,19 L10,13 L12,13 L12,1 L7,1 L7,0 L14,0 L14,30 L12,30 L12,33 L7,36 L6,38 L3,37 L5,29 L2,29 L2,31 L-2,30 L-1,33 L-12,41 L-13,39 L-11,39 L-11,36 L-6,31 L-3,27 L1,27 L2,23 L-2,23 L-2,19 L-7,17 L-3,13 L0,14 Z " fill="#413344" transform="translate(136,28)"/>
<path d="M0,0 L5,1 L6,2 L15,3 L15,6 L19,5 L24,4 L25,8 L24,12 L23,16 L19,15 L18,17 L16,16 L4,21 L-4,21 L-4,19 L-2,17 L-14,14 L-15,12 L-13,12 L-13,10 L-18,9 L-18,8 L-4,7 L-4,9 L-2,9 L-3,12 L-9,12 L-11,11 L-11,13 L-3,14 L6,16 L6,14 L13,13 L13,11 L1,14 L-2,14 L-2,12 L10,9 L10,7 L5,8 L5,5 L3,5 L3,3 L0,3 Z " fill="#282C39" transform="translate(61,57)"/>
<path d="M0,0 L29,0 L37,2 L38,5 L43,6 L44,10 L38,9 L38,11 L29,8 L22,7 L22,5 L34,5 L29,3 L16,1 L16,3 L13,2 L12,4 L2,5 L2,8 L4,8 L4,5 L15,5 L15,7 L11,7 L11,9 L15,9 L15,11 L13,12 L14,15 L7,14 L6,17 L1,18 L-1,16 L1,16 L1,14 L6,12 L7,10 L-5,13 L-6,14 L-11,14 L-8,12 L-6,12 L-6,10 L-10,10 L-10,8 L-1,6 Z " fill="#5F615D" transform="translate(43,0)"/>
<path d="M0,0 L1,3 L-1,6 L1,7 L-3,12 L-6,15 L-8,15 L-8,17 L-15,20 L-16,22 L-35,22 L-35,20 L-39,20 L-39,18 L-29,16 L-29,14 L-22,13 L-22,11 L-15,9 L-15,7 L-13,7 L-13,9 L-3,3 L-1,3 Z " fill="#04060D" transform="translate(135,62)"/>
<path d="M0,0 L4,1 L6,7 L5,9 L7,10 L8,14 L5,15 L4,17 L12,17 L9,19 L15,19 L15,16 L12,16 L12,8 L17,7 L21,11 L23,10 L23,20 L19,21 L19,25 L5,25 L3,23 L0,21 L1,18 L3,18 L3,7 L1,6 L2,4 L0,4 Z " fill="#0C0B20" transform="translate(91,34)"/>
<path d="M0,0 L3,1 L3,3 L9,4 L15,5 L18,10 L18,17 L20,17 L22,26 L18,28 L18,23 L14,16 L13,10 L10,7 L1,4 L1,6 L6,7 L8,12 L4,12 L4,10 L1,12 L-2,12 L-3,12 L-4,16 L-5,12 L-7,11 L-8,9 L-8,11 L-10,11 L-10,9 L-17,9 L-19,6 L-11,6 L-9,7 L-11,5 L-20,4 L-20,2 L-12,2 L-9,1 L-9,3 L-5,4 L-5,1 L0,3 Z " fill="#494451" transform="translate(100,11)"/>
<path d="M0,0 L2,0 L2,21 L-22,21 L-17,16 L-12,11 L-10,8 L-7,8 L-7,6 L-2,3 Z " fill="#040A0C" transform="translate(148,63)"/>
<path d="M0,0 L7,0 L8,2 L34,2 L35,4 L36,6 L31,8 L-11,8 L-14,7 L-14,5 L-12,5 L-12,3 L-4,3 Z " fill="#2B2430" transform="translate(41,76)"/>
<path d="M0,0 L3,0 L5,4 L10,5 L15,5 L15,7 L12,8 L15,12 L15,14 L17,15 L13,15 L12,16 L18,19 L22,21 L22,23 L12,22 L11,23 L6,22 L6,20 L0,19 L1,12 L8,13 L4,9 L3,11 L-1,9 L-2,2 Z " fill="#0A0B18" transform="translate(14,41)"/>
<path d="M0,0 L3,1 L5,4 L7,4 L7,2 L12,3 L12,7 L16,7 L18,13 L16,13 L16,27 L15,27 L13,13 L11,14 L7,10 L3,10 L4,14 L3,18 L6,18 L6,21 L-1,22 L0,20 L-5,19 L-4,16 L-1,16 L-4,11 L-5,4 L0,3 Z " fill="#454455" transform="translate(100,32)"/>
<path d="M0,0 L3,0 L2,8 L4,9 L5,6 L10,4 L10,1 L12,1 L12,6 L5,12 L3,12 L3,14 L0,14 L-2,19 L-12,27 L-19,27 L-19,22 L-17,24 L-14,22 L-11,22 L-11,20 L-9,20 L-8,17 L-6,17 L-5,14 L-3,14 L-4,12 L-6,11 L-3,8 L-3,6 L-7,10 L-13,12 L-8,7 L-4,3 L-4,1 L0,2 Z " fill="#A599A3" transform="translate(138,57)"/>
<path d="M0,0 L9,0 L9,3 L15,3 L20,5 L22,8 L30,10 L30,12 L32,12 L34,17 L36,17 L36,19 L46,22 L49,24 L51,34 L50,42 L47,42 L47,27 L43,25 L39,25 L35,21 L32,20 L31,16 L28,15 L26,12 L19,10 L16,7 L16,9 L11,9 L12,6 L10,5 L10,7 L2,6 Z " fill="#656171" transform="translate(86,0)"/>
<path d="M0,0 L1,0 L2,15 L-7,18 L-8,20 L-11,21 L-14,24 L-17,24 L-18,21 L-16,16 L-13,16 L-13,9 L-4,5 Z " fill="#8A7F82" transform="translate(20,0)"/>
<path d="M0,0 L6,0 L8,6 L7,11 L5,13 L5,10 L3,10 L1,17 L-4,17 L-4,15 L-8,15 L-8,13 L-12,11 L-12,9 L-8,9 L-10,8 L-10,6 L-6,6 L-6,3 L-4,3 L-4,1 Z " fill="#706E83" transform="translate(87,38)"/>
<path d="M0,0 L8,6 L10,7 L10,11 L14,11 L13,16 L11,17 L11,15 L9,15 L7,19 L3,24 L1,24 L1,26 L-1,25 L0,23 L-2,23 L-1,19 L0,18 L5,18 L6,15 L8,15 L8,9 L6,9 L5,14 L4,14 L4,6 L0,13 L-4,15 L-4,17 L-6,17 L-6,9 L-5,5 L0,5 L0,3 L-2,3 L-2,1 Z " fill="#5A526B" transform="translate(124,40)"/>
<path d="M0,0 L10,1 L15,5 L15,2 L18,2 L17,5 L20,6 L20,8 L14,7 L14,9 L21,10 L25,11 L25,13 L22,14 L14,14 L18,12 L-1,10 L-6,10 L-2,8 L0,4 L-3,3 L-3,1 Z " fill="#A9B0C0" transform="translate(30,65)"/>
<path d="M0,0 L2,0 L3,7 L4,3 L6,3 L7,7 L3,12 L-3,14 L-7,20 L-5,21 L-8,23 L-14,25 L-19,26 L-21,30 L-24,29 L-25,27 L-24,25 L-21,24 L-19,21 L-18,22 L-17,20 L-15,20 L-13,16 L-9,14 L-12,19 L-10,19 L-10,17 L-6,16 L-5,10 L0,3 Z " fill="#090D17" transform="translate(126,46)"/>
<path d="M0,0 L6,0 L5,3 L0,4 L1,7 L3,7 L3,9 L1,9 L1,11 L-10,13 L-14,14 L-14,10 L-22,11 L-22,9 L-17,8 L-17,5 L-8,4 L-3,1 Z " fill="#060509" transform="translate(44,10)"/>
<path d="M0,0 L1,2 L3,2 L4,6 L3,7 L5,9 L1,10 L1,8 L-1,8 L-1,10 L-5,12 L-8,12 L-8,14 L-15,15 L-15,17 L-25,19 L-25,21 L-21,21 L-21,23 L-28,23 L-28,20 L-34,20 L-34,16 L-24,14 L-20,14 L-20,16 L-15,13 L-14,11 L-8,8 L-1,6 L-1,2 Z " fill="#586272" transform="translate(121,61)"/>
<path d="M0,0 L2,1 L2,4 L12,7 L12,12 L14,14 L10,14 L10,16 L15,16 L15,19 L11,20 L11,22 L6,22 L8,21 L8,19 L3,18 L4,14 L-1,12 L3,10 L4,6 L1,9 L-3,8 L-4,11 L-8,10 L-9,7 L-3,6 L-1,7 L-2,4 Z " fill="#363240" transform="translate(45,41)"/>
<path d="M0,0 L4,2 L6,3 L7,10 L5,19 L1,20 L-2,18 L-3,15 L-3,8 L-6,8 L-5,3 L-1,2 Z " fill="#050611" transform="translate(127,24)"/>
<path d="M0,0 L1,2 L3,2 L2,5 L-4,5 L-6,4 L-6,6 L2,7 L7,9 L12,9 L21,6 L21,3 L23,3 L24,5 L29,5 L28,9 L24,8 L23,10 L21,9 L9,14 L1,14 L1,12 L3,10 L-9,7 L-10,5 L-8,5 L-8,3 L-13,2 L-13,1 Z " fill="#131225" transform="translate(56,64)"/>
<path d="M0,0 L2,0 L2,2 L5,3 L7,7 L9,5 L12,5 L13,12 L6,12 L5,11 L4,13 L-2,14 L-3,12 L-10,11 L-10,9 L-1,7 L-3,5 L-10,6 L-11,4 L-9,3 L-1,3 Z " fill="#1F243F" transform="translate(60,33)"/>
<path d="M0,0 L13,0 L13,21 L10,21 L10,17 L6,17 L4,9 L4,2 L0,2 Z " fill="#392F2E" transform="translate(137,0)"/>
<path d="M0,0 L5,1 L1,2 L1,4 L6,4 L6,2 L9,3 L9,5 L16,6 L18,10 L22,11 L22,15 L27,16 L29,19 L32,19 L30,22 L26,23 L24,27 L24,23 L21,24 L21,16 L19,14 L19,11 L13,11 L7,9 L4,6 L4,9 L-1,7 Z " fill="#120E19" transform="translate(96,5)"/>
<path d="M0,0 L1,3 L4,2 L8,3 L12,2 L14,3 L14,5 L16,5 L16,7 L11,7 L11,5 L8,8 L0,9 L-1,10 L1,12 L-2,14 L-4,18 L-5,14 L-7,17 L-11,15 L-14,14 L-17,15 L-16,10 L-10,8 L-10,12 L-7,8 L-4,11 L-4,6 L0,5 L0,3 L-2,3 L-2,1 Z " fill="#53485E" transform="translate(51,28)"/>
<path d="M0,0 L20,0 L19,3 L17,3 L16,6 L7,9 L7,11 L1,11 L0,13 Z " fill="#4C5152" transform="translate(0,0)"/>
<path d="M0,0 L6,0 L10,3 L10,7 L17,8 L16,6 L11,5 L12,2 L21,2 L23,3 L22,6 L17,10 L10,12 L10,16 L6,15 L6,11 L2,12 L3,5 L3,1 Z " fill="#5C6177" transform="translate(82,57)"/>
<path d="M0,0 L3,0 L3,3 L13,3 L14,6 L5,6 L6,7 L13,8 L13,10 L15,10 L14,7 L17,8 L18,12 L16,12 L16,18 L8,17 L10,16 L10,14 L4,13 L4,11 L1,11 L1,9 L6,11 L9,13 L9,11 L5,9 L-1,6 L-7,6 L-7,2 L1,3 Z " fill="#353040" transform="translate(77,12)"/>
<path d="M0,0 L4,1 L6,2 L7,5 L11,5 L15,7 L15,9 L9,9 L8,13 L7,15 L13,16 L16,19 L19,22 L14,21 L10,21 L10,19 L5,18 L-1,13 L3,11 L-1,6 L-1,4 L3,6 L1,2 Z " fill="#8A8C9D" transform="translate(7,45)"/>
<path d="M0,0 L28,0 L36,2 L37,5 L42,6 L43,10 L37,9 L37,11 L28,8 L21,7 L21,5 L33,5 L28,3 L15,1 L15,3 L12,2 L11,4 L0,3 Z " fill="#604E5A" transform="translate(44,0)"/>
<path d="M0,0 L26,2 L26,4 L18,5 L8,5 L4,4 L4,6 L9,6 L10,7 L25,9 L25,10 L0,10 Z " fill="#14182B" transform="translate(0,74)"/>
<path d="M0,0 L3,1 L3,7 L1,7 L1,4 L-3,8 L-3,13 L-8,16 L-10,15 L-11,12 L-15,11 L-15,16 L-21,16 L-21,13 L-18,13 L-18,10 L-16,10 L-17,6 L-14,3 L-9,3 L-11,10 L-9,9 L-8,6 L-2,3 L0,3 Z " fill="#74787F" transform="translate(21,22)"/>
<path d="M0,0 L4,2 L4,0 L17,1 L23,4 L23,5 L10,4 L10,6 L15,6 L12,9 L6,9 L1,12 L0,10 L3,10 L3,8 L-1,8 L-1,6 L3,6 L3,4 L-2,5 L-8,4 L-8,7 L-14,8 L-11,6 L-11,3 L0,3 Z " fill="#1B1926" transform="translate(55,1)"/>
<path d="M0,0 L1,3 L4,3 L4,6 L0,7 L0,5 L-9,7 L-15,7 L-14,11 L-16,11 L-16,13 L-14,14 L-20,16 L-20,18 L-25,17 L-26,15 L-22,15 L-21,11 L-19,11 L-20,6 L-12,2 L-8,1 L-1,1 Z " fill="#03060F" transform="translate(49,22)"/>
<path d="M0,0 L2,0 L2,3 L6,3 L5,7 L3,9 L4,21 L-1,20 L-3,15 L-12,14 L-11,10 L-8,9 L-7,11 L-3,9 L-3,3 Z " fill="#0F1020" transform="translate(20,26)"/>
<path d="M0,0 L4,4 L4,11 L6,5 L8,5 L8,18 L5,18 L5,22 L7,22 L7,24 L5,24 L4,27 L3,27 L3,20 L-1,20 L-4,16 L-3,13 L0,14 Z " fill="#18101C" transform="translate(136,28)"/>
<path d="M0,0 L1,2 L6,3 L7,6 L9,6 L10,11 L6,10 L6,12 L4,12 L3,16 L1,9 L-1,8 L-1,11 L-6,12 L-10,10 L-11,12 L-14,12 L-14,7 L-8,7 L-4,9 L-3,1 Z " fill="#231F2F" transform="translate(101,24)"/>
<path d="M0,0 L18,0 L20,2 L22,12 L21,10 L13,9 L8,5 L2,4 L-4,3 L0,2 Z " fill="#5D6177" transform="translate(95,0)"/>
<path d="M0,0 L6,0 L6,2 L11,2 L11,14 L9,14 L10,22 L8,22 L8,24 L4,23 L4,19 L6,18 L7,6 L5,6 L4,12 L2,13 L2,5 Z " fill="#898393" transform="translate(137,27)"/>
<path d="M0,0 L2,1 L0,6 L-3,7 L4,8 L6,15 L9,16 L10,20 L12,21 L0,20 L-2,17 L2,17 L2,15 L-3,15 L-5,9 L-5,4 Z " fill="#303547" transform="translate(27,31)"/>
<path d="M0,0 L5,4 L7,3 L7,13 L3,14 L3,18 L1,18 L1,15 L-1,14 L0,8 L-4,9 L-4,1 Z " fill="#040711" transform="translate(107,41)"/>
<path d="M0,0 L14,0 L16,2 L16,5 L24,7 L23,15 L16,13 L14,6 L9,6 L8,2 L2,2 Z " fill="#110410" transform="translate(72,0)"/>
<path d="M0,0 L5,0 L6,2 L7,4 L2,6 L-20,6 L-24,4 L-11,4 L-17,3 L-28,2 L-28,1 Z " fill="#0F0F1A" transform="translate(70,78)"/>
<path d="M0,0 L1,2 L3,3 L2,8 L5,6 L5,1 L8,1 L9,9 L6,10 L6,12 L8,12 L8,14 L3,14 L4,17 L3,18 L2,27 L0,28 L0,14 L2,14 L0,11 L0,7 L-3,6 L0,4 L-1,2 Z " fill="#353B47" transform="translate(116,31)"/>
<path d="M0,0 L0,3 L-3,4 L-3,6 L-6,6 L-8,11 L-18,19 L-25,19 L-25,14 L-23,16 L-20,14 L-17,14 L-17,12 L-15,12 L-14,9 L-12,9 L-11,6 L-7,6 L-6,2 Z " fill="#C2C4D6" transform="translate(144,65)"/>
<path d="M0,0 L1,3 L-1,6 L1,7 L-3,12 L-6,15 L-8,15 L-8,17 L-15,20 L-16,22 L-19,22 L-19,17 L-18,16 L-12,16 L-11,13 L-8,13 L-8,11 L-10,11 L-8,6 L-3,3 L-1,3 Z " fill="#09050A" transform="translate(135,62)"/>
<path d="M0,0 L4,1 L5,4 L7,4 L7,6 L17,9 L20,11 L22,21 L21,29 L18,29 L18,14 L14,12 L10,12 L6,8 L3,7 L2,3 L0,2 Z " fill="#B9ABB6" transform="translate(115,13)"/>
<path d="M0,0 L7,0 L12,2 L11,7 L10,5 L6,6 L5,10 L-3,10 L-3,12 L-8,11 L-6,10 L-6,8 L-3,8 L-3,5 L0,2 Z " fill="#39364D" transform="translate(59,13)"/>
<path d="M0,0 L1,4 L20,4 L20,5 L14,6 L12,10 L0,10 L-3,9 L-3,5 L-1,4 Z " fill="#040613" transform="translate(16,64)"/>
<path d="M0,0 L5,0 L5,4 L7,4 L7,6 L10,7 L3,7 L4,12 L2,13 L2,10 L0,11 L-2,12 L-3,14 L-4,10 L-2,4 L-8,5 L-8,3 Z " fill="#493D53" transform="translate(44,27)"/>
<path d="M0,0 L5,1 L5,5 L9,5 L8,10 L6,11 L6,9 L4,9 L2,13 L-2,18 L-4,18 L-4,20 L-6,19 L-5,17 L-7,17 L-6,13 L-5,12 L0,12 L1,9 L3,9 L3,3 L1,3 L0,6 Z " fill="#A5AEB9" transform="translate(129,46)"/>
<path d="M0,0 L6,0 L7,2 L6,5 L3,5 L3,7 L0,7 L0,14 L6,14 L5,17 L3,17 L4,21 L2,21 L2,24 L-1,24 L-1,2 Z " fill="#271E1E" transform="translate(1,11)"/>
<path d="M0,0 L9,0 L16,2 L37,4 L38,6 L11,5 L0,3 Z " fill="#79728E" transform="translate(0,71)"/>
<path d="M0,0 L8,1 L10,6 L14,7 L16,10 L10,8 L10,11 L12,11 L12,13 L7,11 L2,9 L0,4 Z " fill="#07070A" transform="translate(116,1)"/>
<path d="M0,0 L9,1 L12,6 L12,13 L14,13 L16,22 L12,24 L12,19 L8,12 L7,6 L4,3 L0,1 Z " fill="#5E6575" transform="translate(106,15)"/>
<path d="M0,0 L2,1 L2,3 L11,1 L11,3 L2,6 L-1,6 L-1,8 L8,5 L14,5 L14,7 L7,8 L7,10 L-5,8 L-10,7 L-10,5 L-2,5 L-1,3 L-3,3 L-3,1 Z " fill="#616274" transform="translate(60,63)"/>
<path d="M0,0 L11,0 L17,2 L13,4 L13,6 L24,4 L29,2 L30,4 L33,6 L26,7 L8,7 L11,6 L11,4 L4,3 L0,2 Z " fill="#2B293C" transform="translate(44,72)"/>
<path d="M0,0 L7,2 L15,2 L15,4 L22,5 L26,6 L26,8 L23,9 L15,9 L19,7 L0,5 L-5,5 L-1,3 Z " fill="#404156" transform="translate(29,70)"/>
<path d="M0,0 L9,0 L9,4 L14,4 L14,2 L17,2 L16,7 L12,8 L3,8 L-3,7 L-2,5 L4,5 L3,2 Z " fill="#1B162D" transform="translate(60,18)"/>
<path d="M0,0 L4,2 L0,2 L0,4 L4,6 L-1,5 L-4,4 L-3,8 L-12,9 L-12,7 L-15,8 L-17,6 L-17,4 L-13,4 L-12,1 L-11,3 L-4,3 L-4,1 Z " fill="#1B294C" transform="translate(77,42)"/>
<path d="M0,0 L2,0 L1,5 L1,7 L3,7 L1,12 L6,13 L5,18 L1,17 L1,15 L-3,14 L0,13 L0,11 L-5,10 L-3,8 L-8,6 L-5,2 L-1,3 Z " fill="#413E4A" transform="translate(47,47)"/>
<path d="M0,0 L8,0 L11,3 L9,4 L12,5 L12,7 L6,6 L6,9 L1,8 L-3,6 L-1,2 Z " fill="#0D0C18" transform="translate(35,53)"/>
<path d="M0,0 L4,1 L4,5 L8,5 L10,11 L8,11 L8,25 L7,25 L5,11 L3,12 L-1,6 L1,6 Z " fill="#292D40" transform="translate(108,34)"/>
<path d="M0,0 L1,4 L6,5 L4,6 L4,8 L8,8 L8,10 L-5,10 L-1,9 L-1,6 L-6,6 L-6,9 L-11,9 L-16,7 L-17,4 L-8,4 L-7,5 L-1,5 L-2,1 Z " fill="#353753" transform="translate(75,45)"/>
<path d="M0,0 L2,1 L1,3 L4,3 L6,12 L7,16 L4,16 L6,18 L2,18 L0,13 L0,9 L-2,9 L-4,4 L-2,4 L-1,6 Z " fill="#060A1A" transform="translate(110,21)"/>
<path d="M0,0 L7,0 L7,22 L3,24 L2,27 L0,23 L2,23 L2,21 L4,21 L3,19 L3,13 L5,13 L5,1 L0,1 Z " fill="#3F384C" transform="translate(143,28)"/>
<path d="M0,0 L11,4 L16,10 L16,12 L19,14 L14,15 L12,17 L12,11 L3,8 L6,7 L7,5 L1,4 Z " fill="#534E47" transform="translate(123,13)"/>
<path d="M0,0 L4,0 L4,2 L8,2 L8,8 L0,8 L-5,4 L-6,1 L0,2 Z " fill="#050606" transform="translate(133,0)"/>
<path d="M0,0 L1,0 L1,8 L-1,8 L-1,11 L-6,14 L-7,16 L-10,15 L-9,9 L-7,9 L-5,5 Z " fill="#060513" transform="translate(149,50)"/>
<path d="M0,0 L2,1 L3,9 L1,12 L-4,11 L-6,7 L-6,2 Z " fill="#020209" transform="translate(130,32)"/>
<path d="M0,0 L11,1 L7,2 L5,6 L4,8 L8,9 L14,11 L14,13 L8,13 L6,10 L1,9 L-4,4 L2,5 Z " fill="#2B2D3A" transform="translate(28,51)"/>
<path d="M0,0 L4,1 L1,2 L1,5 L3,5 L5,9 L5,13 L8,14 L11,18 L10,20 L6,18 L3,15 L0,16 Z " fill="#04070B" transform="translate(0,38)"/>
<path d="M0,0 L12,0 L12,2 L7,2 L12,9 L12,12 L15,13 L15,14 L9,14 L5,12 L5,9 L10,10 L5,7 L3,4 L3,1 Z " fill="#6C696D" transform="translate(121,0)"/>
<path d="M0,0 L11,1 L17,4 L17,5 L4,4 L4,6 L9,6 L6,9 L0,7 L-1,2 Z " fill="#423F4A" transform="translate(61,1)"/>
<path d="M0,0 L3,0 L3,3 L13,3 L14,6 L5,6 L9,9 L9,11 L5,9 L-1,6 L-7,6 L-7,2 L1,3 Z " fill="#161125" transform="translate(77,12)"/>
<path d="M0,0 L1,0 L1,10 L-7,11 L-9,12 L-13,11 L-13,9 L-4,5 Z " fill="#A7A2A6" transform="translate(20,0)"/>
<path d="M0,0 L5,0 L5,2 L2,3 L8,3 L9,10 L7,10 L7,8 L1,9 L-3,8 L-1,8 L-1,3 L-3,2 Z " fill="#262D3E" transform="translate(94,67)"/>
<path d="M0,0 L28,0 L29,2 L18,2 L15,1 L15,3 L12,2 L11,4 L0,3 Z " fill="#A09AA6" transform="translate(44,0)"/>
<path d="M0,0 L4,1 L3,2 L3,8 L-6,8 L-6,6 L-10,6 L-10,4 L0,2 Z " fill="#11182E" transform="translate(106,76)"/>
<path d="M0,0 L4,0 L4,3 L-5,5 L-5,7 L2,7 L3,10 L6,11 L3,12 L-7,9 L-6,4 Z " fill="#8B839D" transform="translate(55,37)"/>
<path d="M0,0 L2,1 L2,3 L4,3 L4,5 L-1,7 L-4,7 L-4,9 L-8,10 L-8,6 L-8,2 L-4,1 L-2,1 Z " fill="#615D6F" transform="translate(82,71)"/>
<path d="M0,0 L1,2 L-2,2 L1,4 L0,5 L-1,12 L-7,12 L-7,6 L-9,5 L-3,3 L-3,1 Z " fill="#03051A" transform="translate(116,72)"/>
<path d="M0,0 L1,0 L1,8 L-1,8 L0,16 L-2,16 L-2,18 L-6,17 L-6,13 L-4,12 L-3,6 L-2,1 Z " fill="#C4C3D4" transform="translate(147,33)"/>
<path d="M0,0 L3,0 L5,4 L7,5 L7,9 L4,9 L3,11 L-1,9 L-2,2 Z " fill="#02030D" transform="translate(14,41)"/>
<path d="M0,0 L1,2 L3,2 L4,4 L7,5 L8,9 L10,10 L-2,9 L-4,6 L0,6 L-2,2 Z " fill="#636675" transform="translate(29,42)"/>
<path d="M0,0 L2,1 L2,4 L5,0 L7,1 L8,6 L5,9 L1,7 L-2,6 L-5,7 L-4,2 Z " fill="#56556A" transform="translate(39,36)"/>
<path d="M0,0 L1,3 L4,3 L4,6 L0,7 L0,5 L-9,7 L-12,6 L-10,4 L-12,2 L-8,1 L-1,1 Z " fill="#110E21" transform="translate(49,22)"/>
<path d="M0,0 L5,1 L6,2 L15,3 L12,8 L5,8 L5,5 L3,5 L3,3 L0,3 Z " fill="#181B35" transform="translate(61,57)"/>
<path d="M0,0 L5,0 L9,2 L9,5 L4,6 L3,8 L0,7 L0,4 L-5,4 L-5,2 L-1,3 Z " fill="#606372" transform="translate(76,56)"/>
<path d="M0,0 L2,1 L2,3 L4,4 L3,6 L6,5 L7,8 L-1,9 L-1,11 L-6,11 L-6,9 L-3,8 L-2,2 L0,2 Z " fill="#615B6E" transform="translate(84,30)"/>
<path d="M0,0 L6,0 L6,2 L4,3 L5,6 L-2,5 L-3,8 L-8,9 L-10,7 L-8,7 L-8,5 L-2,2 L0,2 Z " fill="#585C68" transform="translate(52,9)"/>
<path d="M0,0 L2,0 L2,6 L3,10 L-7,10 L-4,8 L-4,6 L-9,6 L-9,3 L-9,2 L-2,2 L-5,4 L1,4 Z " fill="#1D1F32" transform="translate(105,49)"/>
<path d="M0,0 L5,4 L7,3 L7,11 L6,11 L6,6 L3,6 L2,4 L1,7 L1,13 L0,13 L0,8 L-4,9 L-4,1 Z " fill="#0C1121" transform="translate(107,41)"/>
<path d="M0,0 L2,0 L2,3 L6,3 L5,7 L1,12 L-1,12 L-3,3 Z " fill="#14171C" transform="translate(20,26)"/>
<path d="M0,0 L11,0 L11,2 L7,2 L7,4 L5,4 L5,6 L-3,6 L-9,7 L-9,5 L0,3 Z " fill="#635F71" transform="translate(47,5)"/>
<path d="M0,0 L5,1 L9,3 L8,11 L6,11 L6,9 L3,8 L5,3 L-1,5 L-2,1 Z " fill="#30293E" transform="translate(74,27)"/>
<path d="M0,0 L7,1 L7,3 L0,5 L-1,7 L1,8 L-4,9 L-6,4 L-5,1 Z " fill="#020102" transform="translate(30,5)"/>
<path d="M0,0 L14,0 L16,2 L16,6 L9,6 L8,2 L2,2 Z " fill="#190E11" transform="translate(72,0)"/>
<path d="M0,0 L2,0 L2,5 L-3,9 L-5,9 L-10,9 L-11,13 L-13,13 L-12,8 L-9,3 L-8,7 L-6,8 L-5,5 L0,3 Z " fill="#8B8BAC" transform="translate(148,58)"/>
<path d="M0,0 L2,1 L2,4 L7,5 L5,6 L6,9 L4,9 L4,6 L1,9 L-3,8 L-4,11 L-8,10 L-9,7 L-3,6 L-1,7 L-2,4 Z " fill="#302E44" transform="translate(45,41)"/>
<path d="M0,0 L2,0 L3,2 L8,2 L7,6 L3,5 L2,7 L0,6 L-7,8 L-15,8 L-15,7 L-8,5 L0,3 Z " fill="#0A0D1A" transform="translate(77,67)"/>
<path d="M0,0 L1,4 L4,4 L4,6 L1,6 L0,14 L2,15 L-3,14 L-4,13 L-4,5 L-2,5 L-1,7 Z " fill="#16121E" transform="translate(97,19)"/>
<path d="M0,0 L11,1 L12,3 L6,4 L-3,4 L-4,6 L-7,6 L-6,2 Z " fill="#6E6A7E" transform="translate(59,25)"/>
<path d="M0,0 L5,2 L6,7 L5,11 L4,7 L2,6 L1,4 L1,6 L-1,6 L-1,4 L-8,4 L-10,1 L-2,1 L0,2 Z " fill="#454050" transform="translate(91,16)"/>
<path d="M0,0 L3,0 L3,3 L6,3 L6,6 L9,6 L9,9 L2,10 L3,8 L-2,7 L-1,4 L2,4 Z " fill="#35374E" transform="translate(97,44)"/>
<path d="M0,0 L7,1 L7,4 L4,5 L4,7 L-2,8 L-6,5 L-1,3 Z " fill="#1E182C" transform="translate(50,47)"/>
<path d="M0,0 L5,0 L4,4 L2,4 L1,8 L-2,7 L-2,4 L-8,5 L-8,3 Z " fill="#282734" transform="translate(44,27)"/>
<path d="M0,0 L1,3 L3,3 L3,0 L6,1 L7,3 L10,3 L8,6 L4,7 L2,11 L2,7 L-1,8 Z " fill="#1D1F33" transform="translate(118,21)"/>
<path d="M0,0 L3,0 L4,3 L6,3 L6,5 L4,5 L4,7 L-8,9 L-8,7 L-5,6 L-4,3 L0,3 Z " fill="#1D1C27" transform="translate(41,14)"/>
<path d="M0,0 L14,0 L12,4 L6,5 L3,3 L2,5 L2,2 L0,2 Z " fill="#5E5A5B" transform="translate(21,0)"/>
<path d="M0,0 L3,1 L2,3 L0,3 L0,5 L-7,8 L-8,10 L-11,10 L-11,5 L-10,4 L-4,4 L-3,1 Z " fill="#1B1F2B" transform="translate(127,74)"/>
<path d="M0,0 L4,1 L3,6 L0,9 L-3,8 L-3,6 L-5,5 L-3,5 L-2,1 Z " fill="#101520" transform="translate(82,61)"/>
<path d="M0,0 L5,1 L5,5 L9,5 L8,10 L6,11 L6,9 L4,9 L3,11 L3,3 L1,3 L0,6 Z " fill="#AF9BB1" transform="translate(129,46)"/>
<path d="M0,0 L10,1 L11,3 L10,5 L0,5 L-3,3 L-3,1 Z " fill="#69707D" transform="translate(30,65)"/>
<path d="M0,0 L6,0 L10,3 L9,8 L3,9 L3,1 Z " fill="#545969" transform="translate(82,57)"/>
<path d="M0,0 L7,0 L7,2 L11,2 L11,4 L14,4 L15,9 L13,9 L10,5 L5,3 L-2,4 L-2,1 Z " fill="#121021" transform="translate(58,28)"/>
<path d="M0,0 L6,0 L7,2 L6,5 L3,5 L3,7 L0,7 L0,12 L-1,12 L-1,2 Z " fill="#080C08" transform="translate(1,11)"/>
<path d="M0,0 L1,2 L3,2 L2,5 L-7,4 L-13,2 L-13,1 Z " fill="#06070F" transform="translate(56,64)"/>
<path d="M0,0 L9,0 L11,1 L10,4 L4,8 L4,4 L-1,3 Z " fill="#6C6D8A" transform="translate(94,59)"/>
<path d="M0,0 L4,2 L7,7 L6,12 L11,13 L11,14 L6,14 L0,9 L4,7 L0,2 Z " fill="#CAC1CE" transform="translate(6,49)"/>
<path d="M0,0 L5,1 L5,3 L0,3 L1,6 L0,7 L-1,16 L-3,17 L-3,3 Z " fill="#0C0D1D" transform="translate(119,42)"/>
<path d="M0,0 L5,0 L5,2 L10,3 L11,6 L6,7 L0,3 Z " fill="#010202" transform="translate(135,15)"/>
<path d="M0,0 L5,0 L4,3 L8,4 L8,8 L4,8 L3,6 L-2,7 Z " fill="#343244" transform="translate(84,39)"/>
<path d="M0,0 L1,2 L8,2 L17,6 L17,9 L12,8 L6,4 L-4,3 L0,2 Z " fill="#07080E" transform="translate(95,0)"/>
<path d="M0,0 L2,0 L2,13 L0,13 L-1,10 L-5,9 L-4,2 L-2,6 Z " fill="#4E4153" transform="translate(142,33)"/>
<path d="M0,0 L19,0 L17,1 L17,3 L20,4 L8,3 L0,2 Z " fill="#B2BDCD" transform="translate(10,80)"/>
<path d="M0,0 L3,0 L3,2 L5,2 L4,5 L2,5 L2,10 L-4,10 L-4,7 L-1,7 L-1,4 L1,4 Z " fill="#909094" transform="translate(4,28)"/>
<path d="M0,0 L4,1 L5,4 L9,5 L9,9 L12,9 L12,13 L10,13 L10,10 L6,8 L6,5 L0,5 Z " fill="#1E1924" transform="translate(109,11)"/>
<path d="M0,0 L4,0 L3,3 L1,3 L0,6 L-8,8 L-8,6 L-6,6 L-4,2 Z " fill="#1C191B" transform="translate(16,0)"/>
<path d="M0,0 L10,0 L7,4 L4,4 L4,6 L0,7 Z " fill="#0A120C" transform="translate(0,0)"/>
<path d="M0,0 L12,3 L12,4 L3,5 L3,7 L-7,7 L-6,5 L-4,6 L-3,4 L-1,4 Z " fill="#262C33" transform="translate(24,61)"/>
<path d="M0,0 L4,2 L4,4 L6,5 L3,8 L-2,8 L-2,2 L0,2 Z " fill="#425056" transform="translate(2,52)"/>
<path d="M0,0 L8,0 L8,8 L5,8 L5,4 L1,4 Z " fill="#39333B" transform="translate(142,13)"/>
<path d="M0,0 L5,0 L7,10 L6,8 L1,8 L2,4 L-3,3 L0,2 Z " fill="#55515B" transform="translate(110,2)"/>
<path d="M0,0 L0,3 L-3,4 L-3,6 L-6,6 L-8,11 L-10,12 L-11,6 L-7,6 L-6,2 Z " fill="#D1CEE4" transform="translate(144,65)"/>
<path d="M0,0 L2,0 L3,4 L-8,12 L-9,10 L-7,10 L-7,7 L-2,2 Z " fill="#20252A" transform="translate(132,57)"/>
<path d="M0,0 L4,1 L6,2 L7,5 L11,5 L15,7 L15,9 L6,8 Z " fill="#D2C3D1" transform="translate(7,45)"/>
<path d="M0,0 L6,0 L6,10 L5,10 L5,5 L-1,5 L-1,1 Z " fill="#817970" transform="translate(144,0)"/>
<path d="M0,0 L7,2 L7,4 L-9,4 L-8,2 Z " fill="#384568" transform="translate(81,80)"/>
<path d="M0,0 L5,0 L5,3 L1,4 L0,6 L-8,5 L-9,2 L-6,1 L0,3 Z " fill="#626483" transform="translate(69,51)"/>
<path d="M0,0 L1,3 L0,5 L2,6 L-1,6 L-2,11 L-7,11 L-8,8 L-4,8 L-6,7 L-6,5 L-2,5 L-2,2 L0,2 Z " fill="#4E5163" transform="translate(83,39)"/>
<path d="M0,0 L3,0 L3,4 L6,4 L6,11 L1,10 L1,2 Z " fill="#130D18" transform="translate(144,17)"/>
<path d="M0,0 L9,1 L11,5 L10,11 L7,8 L7,6 L4,3 L0,1 Z " fill="#817F8D" transform="translate(106,15)"/>
<path d="M0,0 L2,0 L2,5 L0,5 L0,7 L-8,7 L-10,5 L-3,5 L-3,1 Z " fill="#595B6A" transform="translate(113,54)"/>
<path d="M0,0 L7,1 L9,6 L11,7 L11,9 L9,9 L8,12 L7,12 L7,5 L3,5 Z " fill="#020206" transform="translate(132,43)"/>
<path d="M0,0 L4,1 L6,7 L5,9 L7,10 L6,12 L4,12 L3,7 L1,6 L2,4 L0,4 Z " fill="#1E1C2E" transform="translate(91,34)"/>
<path d="M0,0 L3,0 L4,7 L3,13 L2,13 L1,6 L-4,5 L-3,2 Z " fill="#1E1B24" transform="translate(130,27)"/>
<path d="M0,0 L7,1 L3,4 L1,4 L2,9 L-2,8 L-2,5 L-4,4 L-2,4 L-2,2 L0,2 Z " fill="#292730" transform="translate(28,24)"/>
<path d="M0,0 L1,2 L5,2 L5,4 L3,5 L4,7 L-6,7 L-3,4 L-2,1 Z " fill="#2A262B" transform="translate(32,8)"/>
<path d="M0,0 L1,2 L-1,6 L-8,9 L-16,10 L-16,8 L-6,5 L-2,3 Z " fill="#3A3E4E" transform="translate(75,61)"/>
<path d="M0,0 L5,3 L8,6 L8,8 L0,8 L-2,6 L-1,4 L2,4 L2,2 L0,2 Z " fill="#13152B" transform="translate(36,40)"/>
<path d="M0,0 L6,0 L3,1 L3,3 L6,3 L5,6 L-5,6 L-5,4 L0,3 Z " fill="#1E2028" transform="translate(27,15)"/>
<path d="M0,0 L2,0 L2,8 L-4,8 L-3,3 L0,2 Z " fill="#5984A1" transform="translate(148,76)"/>
<path d="M0,0 L11,0 L18,2 L18,3 L8,3 L-4,2 Z " fill="#A4A4B6" transform="translate(20,74)"/>
<path d="M0,0 L5,4 L1,5 L-1,9 L-4,8 L-5,6 L-4,4 L-1,3 Z " fill="#0D131B" transform="translate(106,67)"/>
<path d="M0,0 L2,0 L1,5 L1,8 L-4,7 L-8,5 L-5,2 L-1,3 Z " fill="#787A89" transform="translate(47,47)"/>
<path d="M0,0 L1,4 L-1,5 L0,7 L-10,7 L-9,3 L-6,2 L-5,4 L-1,2 Z " fill="#2C2537" transform="translate(18,33)"/>
<path d="M0,0 L9,1 L13,2 L13,4 L10,5 L2,5 L6,3 L0,2 Z " fill="#888496" transform="translate(42,74)"/>
<path d="M0,0 L3,1 L4,4 L2,4 L2,6 L7,8 L7,10 L0,9 L-1,2 Z " fill="#1F203D" transform="translate(92,55)"/>
<path d="M0,0 L6,0 L6,3 L5,4 L7,6 L6,9 L2,6 L1,8 Z " fill="#40383D" transform="translate(4,43)"/>
<path d="M0,0 L5,1 L5,3 L7,3 L7,5 L2,5 L2,3 L-1,6 L-4,5 L-3,2 Z " fill="#525767" transform="translate(60,30)"/>
<path d="M0,0 L5,2 L4,5 L-3,9 L-4,7 L-1,7 L-1,5 L-5,5 L-5,3 L-1,3 Z " fill="#282536" transform="translate(59,4)"/>
<path d="M0,0 L6,0 L13,3 L9,5 L4,3 L3,5 L0,5 Z " fill="#302936" transform="translate(87,31)"/>
<path d="M0,0 L2,0 L1,9 L0,11 L-5,11 L-1,4 Z " fill="#0E0B1C" transform="translate(126,46)"/>
<path d="M0,0 L6,0 L7,2 L6,8 L5,8 L5,2 L3,2 L2,8 L0,9 Z " fill="#5B4B5B" transform="translate(139,31)"/>
<path d="M0,0 L3,1 L4,7 L-2,7 L-2,9 L-7,10 L-6,7 L0,6 L0,2 Z " fill="#3E3C48" transform="translate(23,11)"/>
<path d="M0,0 L1,2 L5,4 L5,6 L-1,4 L-10,3 L-10,1 L-2,1 Z " fill="#5A5164" transform="translate(90,12)"/>
<path d="M0,0 L6,0 L8,2 L12,3 L12,4 L6,4 L5,6 L4,4 L2,5 L1,3 L-2,1 Z " fill="#5E5566" transform="translate(81,27)"/>
<path d="M0,0 L5,0 L3,7 L6,6 L4,10 L1,7 L2,5 L0,5 L-1,2 Z " fill="#5F585C" transform="translate(7,25)"/>
<path d="M0,0 L5,0 L5,2 L7,3 L4,5 L-2,5 L-2,1 Z " fill="#636B82" transform="translate(89,76)"/>
<path d="M0,0 L2,4 L2,7 L0,7 L0,5 L-6,6 L-10,5 L-8,5 L-8,3 L0,2 Z " fill="#343F4E" transform="translate(101,70)"/>
<path d="M0,0 L18,0 L18,1 L9,3 L6,4 L0,1 Z " fill="#010206" transform="translate(18,68)"/>
<path d="M0,0 L4,1 L4,4 L2,5 L1,12 L-2,9 L0,9 L-2,5 Z " fill="#2F2C45" transform="translate(90,48)"/>
<path d="M0,0 L3,0 L4,7 L-1,7 L-2,4 Z " fill="#161D3C" transform="translate(69,38)"/>
<path d="M0,0 L3,0 L3,4 L1,4 L1,6 L-1,6 L-1,8 L-3,8 L-4,2 Z " fill="#4A4E57" transform="translate(27,20)"/>
<path d="M0,0 L0,3 L-5,4 L-12,5 L-11,2 Z " fill="#514E5F" transform="translate(45,20)"/>
<path d="M0,0 L5,0 L4,5 L-2,6 Z " fill="#030208" transform="translate(11,64)"/>
<path d="M0,0 L2,0 L3,4 L-1,9 L-6,9 L-4,8 L-3,3 L-1,4 Z " fill="#2B283B" transform="translate(130,49)"/>
<path d="M0,0 L3,0 L4,8 L-1,10 Z " fill="#1D222E" transform="translate(121,32)"/>
<path d="M0,0 L8,0 L8,2 L1,3 L1,5 L-3,4 L-2,1 Z " fill="#161322" transform="translate(12,11)"/>
<path d="M0,0 L8,0 L5,2 L6,4 L2,4 L1,6 L-2,3 Z " fill="#151523" transform="translate(35,53)"/>
<path d="M0,0 L2,2 L-2,3 L-3,6 L-5,6 L-6,10 L-8,10 L-7,5 L-5,4 L-4,1 Z " fill="#0A0709" transform="translate(18,22)"/>
<path d="M0,0 L5,0 L5,2 L7,3 L6,5 L2,5 L2,3 L-2,3 L-2,1 Z " fill="#121924" transform="translate(98,79)"/>
<path d="M0,0 L9,0 L9,2 L11,3 L0,3 Z " fill="#A6ADC3" transform="translate(0,71)"/>
<path d="M0,0 L6,1 L10,0 L9,4 L1,4 Z " fill="#1B2327" transform="translate(19,70)"/>
<path d="M0,0 L2,0 L2,6 L-1,6 L-4,8 L-7,8 L-7,6 L-2,3 Z " fill="#161A36" transform="translate(148,63)"/>
<path d="M0,0 L3,0 L3,2 L5,2 L4,6 L1,6 L-1,4 L-4,4 L-4,2 Z " fill="#454357" transform="translate(61,60)"/>
<path d="M0,0 L2,0 L1,4 L-3,5 L-10,6 L-11,4 L-9,3 L-1,3 Z " fill="#1E202E" transform="translate(60,33)"/>
<path d="M0,0 L9,0 L9,2 L4,4 L6,6 L1,5 Z " fill="#5B5D6F" transform="translate(86,0)"/>
<path d="M0,0 L3,0 L4,4 L7,6 L1,7 L-1,5 Z " fill="#242B37" transform="translate(85,68)"/>
<path d="M0,0 L2,0 L2,3 L-1,5 L-2,9 L-6,7 L-5,4 L-2,4 Z " fill="#5F5E74" transform="translate(106,62)"/>
<path d="M0,0 L3,2 L2,10 L-1,10 L-1,2 Z " fill="#ACA4AF" transform="translate(134,32)"/>
<path d="M0,0 L3,0 L3,4 L1,3 Z M-7,2 L0,3 L1,6 L-7,6 Z " fill="#312B40" transform="translate(77,12)"/>
<path d="M0,0 L6,1 L8,4 L6,5 L-3,4 Z " fill="#0D0B1B" transform="translate(71,11)"/>
<path d="M0,0 L2,0 L2,3 L5,4 L4,10 L0,8 Z " fill="#24231F" transform="translate(21,2)"/>
<path d="M0,0 L7,0 L13,2 L13,4 L0,2 Z " fill="#97969C" transform="translate(65,5)"/>
<path d="M0,0 L3,0 L3,5 L-4,7 Z " fill="#444669" transform="translate(138,71)"/>
<path d="M0,0 L3,0 L3,5 L1,5 L1,7 L-2,6 L-3,3 Z " fill="#0E2225" transform="translate(147,71)"/>
<path d="M0,0 L7,0 L5,2 L5,6 L1,5 Z " fill="#484F5E" transform="translate(87,67)"/>
<path d="M0,0 L2,2 L-2,4 L-3,6 L-6,7 L-6,10 L-11,10 L-10,8 L-8,9 L-7,5 Z " fill="#363850" transform="translate(107,60)"/>
<path d="M0,0 L4,0 L4,2 L10,3 L10,4 L1,5 Z " fill="#948A9E" transform="translate(77,23)"/>
<path d="M0,0 L6,0 L7,3 L-1,3 L-7,4 L-7,2 Z " fill="#828186" transform="translate(45,8)"/>
<path d="M0,0 L2,0 L1,4 L-1,4 L-2,7 L-6,2 L-2,1 L0,2 Z " fill="#4D4C50" transform="translate(133,0)"/>
<path d="M0,0 L2,1 L-1,2 L-1,4 L3,4 L3,6 L-4,6 L-3,1 Z " fill="#3C4150" transform="translate(97,78)"/>
<path d="M0,0 L2,4 L-4,7 L-7,6 L-7,4 Z " fill="#030816" transform="translate(148,67)"/>
<path d="M0,0 L4,0 L4,2 L-3,4 L-11,4 L-11,3 L-4,1 Z " fill="#040511" transform="translate(73,71)"/>
<path d="M0,0 L9,1 L9,4 L3,4 L3,2 L-1,1 Z " fill="#16131B" transform="translate(51,56)"/>
<path d="M0,0 L2,3 L-1,3 L-1,5 L2,5 L2,7 L-6,7 L-6,5 L-3,5 L-2,1 Z " fill="#2D2D43" transform="translate(79,36)"/>
<path d="M0,0 L2,0 L2,4 L6,3 L6,5 L3,5 L2,8 L-1,5 Z " fill="#252A40" transform="translate(32,39)"/>
<path d="M0,0 L4,1 L3,3 L6,4 L0,4 L0,7 L-3,7 L-3,4 L-1,3 Z " fill="#110E18" transform="translate(33,17)"/>
<path d="M0,0 L5,1 L7,6 L3,6 L3,4 L0,3 Z " fill="#696572" transform="translate(101,17)"/>
<path d="M0,0 L5,1 L8,2 L8,6 L4,6 L3,2 L0,1 Z " fill="#220D20" transform="translate(80,8)"/>
<path d="M0,0 L4,2 L11,1 L7,5 L0,5 Z " fill="#888CA7" transform="translate(119,79)"/>
<path d="M0,0 L8,2 L8,4 L1,4 L-2,3 L-2,1 Z " fill="#62646B" transform="translate(29,80)"/>
<path d="M0,0 L2,1 L0,5 L-2,8 L-6,9 L-6,6 L-4,6 L-2,2 Z " fill="#1C1D28" transform="translate(115,60)"/>
<path d="M0,0 L3,0 L3,2 L-6,5 L-7,1 Z " fill="#9395A6" transform="translate(68,64)"/>
<path d="M0,0 L2,0 L3,4 L1,4 L1,6 L-3,5 L-3,1 Z " fill="#938497" transform="translate(144,45)"/>
<path d="M0,0 L6,0 L7,5 L1,5 L0,3 L2,3 L2,1 Z " fill="#535060" transform="translate(87,38)"/>
<path d="M0,0 L1,3 L-2,6 L1,7 L-1,7 L-1,9 L-6,8 L-7,6 L-3,6 L-2,2 L0,2 Z " fill="#060C19" transform="translate(30,31)"/>
<path d="M0,0 L3,0 L3,5 L-2,8 L-4,7 L-3,5 L0,5 Z " fill="#635B6B" transform="translate(15,30)"/>
<path d="M0,0 L1,2 L3,2 L3,4 L6,5 L-1,6 L-3,7 L-4,4 L-2,4 L-2,2 L0,2 Z " fill="#15101C" transform="translate(48,29)"/>
<path d="M0,0 L8,1 L7,4 L-2,3 Z " fill="#0B0C18" transform="translate(61,9)"/>
<path d="M0,0 L3,0 L3,2 L7,2 L7,4 L-6,4 L-2,3 L-2,1 Z " fill="#3F4156" transform="translate(76,51)"/>
<path d="M0,0 L4,2 L0,2 L0,4 L4,6 L-1,5 L-4,4 L-4,1 Z " fill="#313951" transform="translate(77,42)"/>
<path d="M0,0 L3,0 L2,5 L-2,6 L-11,6 L-11,5 L0,4 Z " fill="#2A213C" transform="translate(74,20)"/>
<path d="M0,0 L8,0 L9,5 L5,6 L5,4 L2,3 L7,3 L7,1 L0,1 Z " fill="#564D5F" transform="translate(13,10)"/>
<path d="M0,0 L5,0 L3,4 L-3,5 L-4,3 L0,2 Z " fill="#4F544A" transform="translate(30,0)"/>
<path d="M0,0 L1,4 L2,6 L-1,6 L-2,10 L-4,10 L-3,5 Z " fill="#5B4F68" transform="translate(139,61)"/>
<path d="M0,0 L6,0 L6,2 L8,3 L1,4 L-1,2 Z " fill="#010319" transform="translate(95,55)"/>
<path d="M0,0 L2,1 L2,3 L5,3 L6,9 L4,9 L3,6 L-1,4 Z " fill="#00020D" transform="translate(108,44)"/>
<path d="M0,0 L4,0 L4,2 L0,3 L0,5 L-5,4 L-3,3 L-3,1 Z " fill="#676775" transform="translate(56,20)"/>
<path d="M0,0 L9,0 L8,4 L2,4 L4,3 L4,1 Z " fill="#4D475F" transform="translate(56,19)"/>
<path d="M0,0 L6,0 L6,2 L4,4 L-3,4 L-2,2 L0,2 Z " fill="#474654" transform="translate(52,9)"/>
<path d="M0,0 L4,0 L3,6 L-1,6 Z " fill="#101615" transform="translate(39,0)"/>
<path d="M0,0 L3,0 L2,3 L5,4 L5,6 L-2,5 L-2,2 L0,3 Z " fill="#797D8F" transform="translate(45,67)"/>
<path d="M0,0 L4,1 L2,4 L-5,4 L-5,2 Z " fill="#0E1324" transform="translate(71,61)"/>
<path d="M0,0 L6,2 L8,7 L3,5 L0,4 Z " fill="#5C6172" transform="translate(110,37)"/>
<path d="M0,0 L4,1 L6,4 L3,4 L2,7 L-1,4 L2,3 L2,1 Z " fill="#2D2E43" transform="translate(65,32)"/>
<path d="M0,0 L1,3 L4,3 L4,6 L0,7 L0,5 L-3,6 L-3,4 L0,4 L-1,1 Z " fill="#191627" transform="translate(49,22)"/>
<path d="M0,0 L6,0 L5,3 L0,4 L0,2 L-3,1 Z " fill="#17161D" transform="translate(44,10)"/>
<path d="M0,0 L8,0 L13,2 L13,3 L4,2 Z " fill="#1F1919" transform="translate(65,3)"/>
<path d="M0,0 L7,0 L8,3 L0,3 Z " fill="#88879A" transform="translate(44,0)"/>
<path d="M0,0 L2,0 L2,3 L-5,7 L-7,6 Z " fill="#ADA8B0" transform="translate(132,62)"/>
<path d="M0,0 L3,0 L3,2 L5,2 L5,4 L-2,5 Z " fill="#4B506E" transform="translate(69,46)"/>
<path d="M0,0 L3,1 L6,3 L6,1 L8,2 L9,4 L3,5 L3,3 L0,3 Z " fill="#3C3F4B" transform="translate(50,22)"/>
<path d="M0,0 L5,1 L8,2 L8,4 L1,4 Z " fill="#7C788C" transform="translate(63,13)"/>
<path d="M0,0 L8,0 L8,2 L1,3 Z " fill="#5D5766" transform="translate(142,13)"/>
<path d="M0,0 L3,0 L2,7 L-1,6 L-1,1 Z " fill="#03020A" transform="translate(93,8)"/>
<path d="M0,0 L1,2 L8,2 L10,4 L8,5 L2,4 L-4,3 L0,2 Z " fill="#16192F" transform="translate(95,0)"/>
<path d="M0,0 L1,0 L1,6 L-1,12 L-2,12 L-2,5 L-3,4 L-3,2 L0,2 Z " fill="#010315" transform="translate(117,72)"/>
<path d="M0,0 L1,2 L-2,2 L1,4 L-1,7 L-4,7 L-5,3 L-3,3 L-3,1 Z " fill="#101830" transform="translate(116,72)"/>
<path d="M0,0 L2,2 L2,5 L-3,5 L-3,1 Z " fill="#524F61" transform="translate(77,72)"/>
<path d="M0,0 L1,3 L-2,7 L-6,8 L-6,5 L-1,3 Z " fill="#30272B" transform="translate(135,62)"/>
<path d="M0,0 L2,0 L1,5 L-4,5 L-3,2 Z " fill="#635F75" transform="translate(87,50)"/>
<path d="M0,0 L5,1 L4,6 L3,3 L1,3 L0,6 Z " fill="#94879F" transform="translate(129,46)"/>
<path d="M0,0 L5,1 L6,3 L4,5 L0,3 Z " fill="#1A151D" transform="translate(13,47)"/>
<path d="M0,0 L1,2 L3,2 L6,5 L5,7 L-2,3 Z " fill="#979EAE" transform="translate(29,42)"/>
<path d="M0,0 L2,0 L2,8 L-1,7 Z " fill="#2D1D2B" transform="translate(142,33)"/>
<path d="M0,0 L3,1 L4,8 L2,8 L0,3 Z " fill="#645F70" transform="translate(100,32)"/>
<path d="M0,0 L7,0 L4,2 L1,4 L-2,4 L-2,1 Z " fill="#1A1928" transform="translate(58,28)"/>
<path d="M0,0 L4,0 L5,3 L-4,4 L-4,2 Z " fill="#424552" transform="translate(40,28)"/>
<path d="M0,0 L4,0 L4,2 L2,2 L2,7 L-1,7 Z " fill="#BCBAC1" transform="translate(13,28)"/>
<path d="M0,0 L4,0 L5,5 L0,5 Z " fill="#16111F" transform="translate(87,23)"/>
<path d="M0,0 L6,0 L7,2 L6,5 L3,5 L2,2 Z " fill="#29271D" transform="translate(1,11)"/>
<path d="M0,0 L4,0 L5,6 L2,6 Z " fill="#0D0309" transform="translate(143,7)"/>
<path d="M0,0 L6,0 L5,2 L-2,5 L-1,1 Z " fill="#645B71" transform="translate(10,0)"/>
<path d="M0,0 L2,1 L-1,6 L-6,6 L-1,1 Z " fill="#192242" transform="translate(132,78)"/>
<path d="M0,0 L6,0 L8,2 L-2,3 L0,2 Z " fill="#0B0B1A" transform="translate(78,78)"/>
<path d="M0,0 L4,1 L2,3 L-5,3 L-5,1 Z " fill="#0F0E19" transform="translate(5,59)"/>
<path d="M0,0 L4,2 L5,6 L3,7 L3,5 L-1,3 Z " fill="#6E697A" transform="translate(11,51)"/>
<path d="M0,0 L4,2 L4,4 L-2,4 L-4,1 Z " fill="#5F5D6A" transform="translate(18,50)"/>
<path d="M0,0 L1,4 L6,5 L6,6 L-1,7 L-2,3 L-2,1 Z " fill="#1C2138" transform="translate(75,45)"/>
<path d="M0,0 L3,2 L2,7 L0,9 Z " fill="#646177" transform="translate(92,42)"/>
<path d="M0,0 L3,0 L2,3 L0,3 L0,5 L-4,5 L-3,1 Z " fill="#4E5466" transform="translate(28,41)"/>
<path d="M0,0 L2,0 L1,5 L3,6 L-2,5 L-3,3 Z " fill="#030205" transform="translate(96,28)"/>
<path d="M0,0 L4,1 L3,4 L-1,5 L-2,1 Z " fill="#372F45" transform="translate(74,27)"/>
<path d="M0,0 L4,0 L3,3 L-1,5 L-5,3 L0,1 Z " fill="#584F6A" transform="translate(70,26)"/>
<path d="M0,0 L5,2 L5,7 L1,6 L3,6 L0,2 Z " fill="#24201E" transform="translate(136,19)"/>
<path d="M0,0 L2,0 L2,8 L1,8 L1,3 L-5,3 L-3,1 Z " fill="#6D5F4F" transform="translate(148,2)"/>
<path d="M0,0 L4,1 L4,3 L-8,3 L-8,2 L0,2 Z " fill="#67728A" transform="translate(84,81)"/>
<path d="M0,0 L4,1 L8,0 L7,4 L3,3 L0,2 Z " fill="#050512" transform="translate(32,57)"/>
<path d="M0,0 L6,1 L6,4 L-1,3 Z " fill="#121333" transform="translate(69,55)"/>
<path d="M0,0 L3,0 L2,5 L0,7 L0,5 L-2,4 L0,4 Z " fill="#6C5A6C" transform="translate(141,52)"/>
<path d="M0,0 L3,0 L2,4 L0,4 L0,6 L-2,6 Z " fill="#AEAABE" transform="translate(120,51)"/>
<path d="M0,0 L6,0 L6,3 L3,3 L1,5 Z " fill="#23222B" transform="translate(4,43)"/>
<path d="M0,0 L4,5 L6,7 L1,6 L-1,1 Z " fill="#3B3E4E" transform="translate(18,40)"/>
<path d="M0,0 L5,1 L3,6 L1,6 Z " fill="#020410" transform="translate(18,32)"/>
<path d="M0,0 L2,1 L0,6 L-3,6 L-2,1 Z " fill="#555B66" transform="translate(27,31)"/>
<path d="M0,0 L1,3 L4,2 L5,4 L3,6 L0,5 L0,3 L-2,3 L-2,1 Z " fill="#373241" transform="translate(51,28)"/>
<path d="M0,0 L1,3 L2,4 L1,7 L-2,7 L-3,4 Z " fill="#B6B1B7" transform="translate(5,17)"/>
<path d="M0,0 L5,0 L4,3 L-1,4 Z " fill="#74809B" transform="translate(13,14)"/>
<path d="M0,0 L7,0 L7,2 L9,3 L6,3 L5,5 L3,2 Z " fill="#8B8293" transform="translate(109,10)"/>
<path d="M0,0 L5,0 L6,4 L-2,3 L-2,1 Z " fill="#4E3846" transform="translate(81,6)"/>
<path d="M0,0 L11,1 L11,2 L-1,3 Z " fill="#38323C" transform="translate(61,1)"/>
<path d="M0,0 L6,0 L6,2 L3,2 L3,4 L0,4 Z " fill="#97969D" transform="translate(107,0)"/>
<path d="M0,0 L4,0 L4,2 L9,2 L9,3 L0,3 Z " fill="#353D52" transform="translate(0,78)"/>
<path d="M0,0 L1,2 L3,2 L2,5 L-4,5 L0,4 L0,2 L-3,1 Z " fill="#202035" transform="translate(56,64)"/>
<path d="M0,0 L6,0 L7,3 L0,2 Z " fill="#0E0F27" transform="translate(92,62)"/>
<path d="M0,0 L2,0 L3,5 L2,7 L-1,6 Z M1,2 Z " fill="#161226" transform="translate(140,59)"/>
<path d="M0,0 L4,0 L6,5 L1,5 L3,4 L3,2 L0,1 Z " fill="#2D2B37" transform="translate(50,58)"/>
<path d="M0,0 L3,1 L2,7 L0,7 Z " fill="#6A8083" transform="translate(2,52)"/>
<path d="M0,0 L5,5 L4,7 L0,5 L-1,2 Z " fill="#1D1F26" transform="translate(6,51)"/>
<path d="M0,0 L4,0 L4,2 L7,3 L5,5 L5,3 L2,4 L0,2 Z " fill="#3B3E5E" transform="translate(60,46)"/>
<path d="M0,0 L6,0 L7,3 L3,4 Z " fill="#9D99B1" transform="translate(119,45)"/>
<path d="M0,0 L1,0 L1,11 L0,9 L-2,9 Z " fill="#0D1429" transform="translate(149,34)"/>
<path d="M0,0 L4,0 L4,3 L-1,4 L-2,1 Z " fill="#65657C" transform="translate(55,37)"/>
<path d="M0,0 L2,0 L2,2 L0,2 L-1,6 L-4,5 L-3,2 Z " fill="#747684" transform="translate(60,30)"/>
<path d="M0,0 L2,0 L4,8 L1,7 L-1,1 Z " fill="#D4C7D1" transform="translate(133,25)"/>
<path d="M0,0 L6,0 L7,2 L1,3 Z " fill="#786E8A" transform="translate(64,26)"/>
<path d="M0,0 L8,4 L5,5 L1,4 Z " fill="#8E838A" transform="translate(123,13)"/>
<path d="M0,0 L4,1 L6,5 L0,3 Z " fill="#9399A5" transform="translate(126,9)"/>
<path d="M0,0 L4,0 L3,4 L-2,3 L-2,1 Z " fill="#C6A8AA" transform="translate(9,8)"/>
<path d="M0,0 L1,2 L5,3 L-3,5 L-3,3 L-1,3 Z " fill="#2A1C2D" transform="translate(11,3)"/>
<path d="M0,0 L1,3 L10,3 L10,4 L2,5 L0,6 L-1,3 Z " fill="#444553" transform="translate(43,0)"/>
<path d="M0,0 L5,4 L-3,4 L-3,2 Z " fill="#302F47" transform="translate(72,74)"/>
<path d="M0,0 L5,1 L3,4 L0,3 Z " fill="#040B10" transform="translate(102,72)"/>
<path d="M0,0 L5,1 L5,4 L0,4 Z " fill="#7B7E8B" transform="translate(80,57)"/>
<path d="M0,0 L4,0 L4,4 L0,4 Z " fill="#2F2A41" transform="translate(88,43)"/>
<path d="M0,0 L1,2 L3,2 L4,9 L3,5 L0,5 Z " fill="#4E485E" transform="translate(146,41)"/>
<path d="M0,0 L1,2 L3,2 L4,7 L0,6 Z " fill="#201F33" transform="translate(107,28)"/>
<path d="M0,0 L6,0 L6,3 L2,4 Z " fill="#AD97A9" transform="translate(137,27)"/>
<path d="M0,0 L1,4 L0,6 L-5,6 L-5,4 L0,3 Z " fill="#070B13" transform="translate(27,15)"/>
<path d="M0,0 L2,0 L2,5 L-2,5 L-2,2 L0,2 Z " fill="#0A1019" transform="translate(53,16)"/>
<path d="M0,0 L4,1 L6,7 L3,7 L2,3 L0,2 Z " fill="#A99DAB" transform="translate(115,13)"/>
<path d="M0,0 L5,1 L5,4 L1,3 Z " fill="#08050D" transform="translate(105,11)"/>
<path d="M0,0 L7,1 L3,4 L0,3 Z " fill="#080612" transform="translate(89,6)"/>
<path d="M0,0 L6,1 L6,6 L4,6 L3,3 L0,2 Z " fill="#281E2C" transform="translate(82,0)"/>
<path d="M0,0 L7,0 L2,4 Z " fill="#0B0F17" transform="translate(119,78)"/>
<path d="M0,0 L4,1 L1,1 L0,4 L-4,3 Z " fill="#060B23" transform="translate(136,77)"/>
<path d="M0,0 L2,0 L2,2 L4,3 L1,5 L-2,5 L-2,3 L0,3 Z " fill="#9EA7C1" transform="translate(92,76)"/>
<path d="M0,0 L5,0 L5,2 L-1,3 Z " fill="#8C8A99" transform="translate(81,74)"/>
<path d="M0,0 L2,0 L3,5 L-4,3 L0,2 Z " fill="#9EA5B2" transform="translate(40,68)"/>
<path d="M0,0 L5,0 L6,4 L3,5 L3,1 Z " fill="#363A4A" transform="translate(82,57)"/>
<path d="M0,0 L1,2 L6,3 L6,5 L1,4 L-1,1 Z " fill="#4B4F6F" transform="translate(65,55)"/>
<path d="M0,0 L4,1 L7,3 L7,5 L2,3 Z " fill="#413F4F" transform="translate(24,55)"/>
<path d="M0,0 L1,0 L1,5 L-3,5 L-3,2 Z " fill="#05020C" transform="translate(149,50)"/>
<path d="M0,0 L1,3 L-6,4 L-5,2 Z " fill="#4C4E5D" transform="translate(105,50)"/>
<path d="M0,0 L7,0 L7,2 L1,3 Z " fill="#0A0C24" transform="translate(58,49)"/>
<path d="M0,0 L5,0 L5,2 L0,4 L0,2 L-2,1 Z " fill="#1F222C" transform="translate(24,46)"/>
<path d="M0,0 L2,0 L3,4 L-1,5 Z " fill="#717489" transform="translate(101,42)"/>
<path d="M0,0 L1,4 L-4,4 L-4,1 Z " fill="#07122F" transform="translate(64,39)"/>
<path d="M0,0 L2,1 L0,4 L-5,4 L-5,2 Z " fill="#838093" transform="translate(83,37)"/>
<path d="M0,0 L4,1 L3,6 L2,4 L0,4 Z " fill="#1B1624" transform="translate(91,34)"/>
<path d="M0,0 L3,1 L1,7 L0,7 Z " fill="#AA97AB" transform="translate(139,33)"/>
<path d="M0,0 L1,3 L3,4 L-3,4 L-3,1 Z " fill="#616D7B" transform="translate(3,34)"/>
<path d="M0,0 L2,1 L2,3 L4,4 L3,6 L1,6 L1,4 L-1,4 Z " fill="#878092" transform="translate(84,30)"/>
<path d="M0,0 L7,1 L6,3 L2,3 L0,5 Z " fill="#6B5B5F" transform="translate(135,25)"/>
<path d="M0,0 L2,0 L1,5 L-2,5 Z " fill="#070A10" transform="translate(9,20)"/>
<path d="M0,0 L2,0 L2,2 L0,2 L0,4 L-4,4 L-3,1 Z " fill="#121421" transform="translate(45,17)"/>
<path d="M0,0 L3,1 L2,3 L4,4 L-1,5 Z " fill="#1B1617" transform="translate(27,9)"/>
<path d="M0,0 L5,0 L5,3 L0,3 Z " fill="#B6C1BC" transform="translate(0,7)"/>
<path d="M0,0 L1,2 L0,5 L-3,5 L-3,1 Z " fill="#92C4E0" transform="translate(147,79)"/>
<path d="M0,0 L6,0 L5,3 L-1,2 Z " fill="#8E8EA4" transform="translate(62,70)"/>
<path d="M0,0 L2,1 L1,6 L0,4 L-3,3 L-1,3 Z " fill="#2A303E" transform="translate(83,63)"/>
<path d="M0,0 L3,2 L0,3 L-1,5 L-3,5 L-3,1 Z " fill="#180E1C" transform="translate(11,62)"/>
<path d="M0,0 L3,0 L2,5 L-1,4 Z " fill="#514F5C" transform="translate(50,60)"/>
<path d="M0,0 L2,0 L2,5 L-1,6 L-2,3 L0,3 Z " fill="#676A90" transform="translate(148,58)"/>
<path d="M0,0 L4,0 L4,2 L2,2 L2,5 L0,5 Z " fill="#2C314F" transform="translate(146,56)"/>
<path d="M0,0 L3,2 L3,4 L-2,3 L-2,1 Z " fill="#80819E" transform="translate(62,52)"/>
<path d="M0,0 L2,0 L1,5 L-2,4 Z " fill="#616074" transform="translate(47,47)"/>
<path d="M0,0 L7,1 L6,3 L1,3 Z " fill="#545868" transform="translate(75,47)"/>
<path d="M0,0 L4,3 L3,7 L3,4 L-2,2 Z " fill="#271D32" transform="translate(131,43)"/>
<path d="M0,0 L3,4 L1,6 L0,3 L-2,3 L-2,1 Z " fill="#666172" transform="translate(124,40)"/>
<path d="M0,0 L5,0 L3,1 L3,4 L0,4 Z " fill="#333437" transform="translate(0,31)"/>
<path d="M0,0 L5,0 L5,3 L0,2 Z " fill="#22202E" transform="translate(145,25)"/>
<path d="M0,0 L7,2 L7,4 L0,2 Z " fill="#130E19" transform="translate(101,15)"/>
<path d="M0,0 L1,2 L5,3 L-3,4 L-2,1 Z " fill="#3B3B35" transform="translate(32,8)"/>
<path d="M0,0 L7,1 L7,3 L2,3 Z " fill="#12190E" transform="translate(30,5)"/>
<path d="M0,0 L5,0 L5,3 L-1,2 Z " fill="#8C8DA3" transform="translate(90,3)"/>
<path d="M0,0 L6,2 L6,4 L-1,2 Z " fill="#726D6C" transform="translate(73,1)"/>
<path d="M0,0 L4,0 L4,4 L0,2 Z " fill="#6F6F82" transform="translate(100,67)"/>
<path d="M0,0 L2,2 L1,4 L3,5 L1,6 L-2,4 L0,4 L0,2 L-2,1 Z " fill="#131B2A" transform="translate(118,62)"/>
<path d="M0,0 L1,4 L-3,5 L-2,2 Z " fill="#394053" transform="translate(91,60)"/>
<path d="M0,0 L4,1 L3,4 L-2,3 L-2,1 Z " fill="#1D232D" transform="translate(82,61)"/>
<path d="M0,0 L5,0 L4,3 L-1,3 Z " fill="#5F617D" transform="translate(94,59)"/>
<path d="M0,0 L6,1 L5,4 L0,2 Z " fill="#3E2639" transform="translate(133,55)"/>
<path d="M0,0 L7,0 L6,3 L0,1 Z " fill="#16151F" transform="translate(44,52)"/>
<path d="M0,0 L3,1 L3,3 L1,3 L0,6 L-1,2 Z " fill="#120611" transform="translate(140,49)"/>
<path d="M0,0 L2,1 L3,3 L1,4 L-1,7 L-1,1 Z " fill="#5D5F79" transform="translate(119,48)"/>
<path d="M0,0 L3,1 L4,4 L0,5 L-1,3 Z " fill="#0E111A" transform="translate(21,47)"/>
<path d="M0,0 L1,0 L1,7 L-2,7 L-2,4 L0,4 Z " fill="#7D7384" transform="translate(135,35)"/>
<path d="M0,0 L2,0 L1,6 L-2,5 Z " fill="#06081E" transform="translate(69,38)"/>
<path d="M0,0 L3,1 L4,5 L0,5 Z " fill="#463E4B" transform="translate(87,31)"/>
<path d="M0,0 L1,2 L3,2 L3,4 L5,5 L0,5 Z " fill="#0D0B08" transform="translate(0,26)"/>
<path d="M0,0 L3,4 L2,6 L-1,5 Z " fill="#090E20" transform="translate(122,27)"/>
<path d="M0,0 L3,1 L3,4 L-1,5 Z " fill="#383044" transform="translate(121,21)"/>
<path d="M0,0 L3,1 L4,5 L0,5 Z " fill="#5A5F71" transform="translate(9,15)"/>
<path d="M0,0 L4,2 L4,4 L-2,3 L0,2 Z " fill="#242125" transform="translate(128,12)"/>
<path d="M0,0 L3,0 L4,5 L1,5 Z " fill="#332737" transform="translate(141,8)"/>
<path d="M0,0 L5,1 L6,4 L3,4 L3,2 L0,1 Z " fill="#1A0C17" transform="translate(80,8)"/>
<path d="M0,0 L5,1 L5,3 L0,3 Z " fill="#D2CED2" transform="translate(15,7)"/>
<path d="M0,0 L5,1 L5,3 L-1,2 Z " fill="#918792" transform="translate(73,6)"/>
<path d="M0,0 L1,2 L3,3 L2,4 L-4,4 L0,2 Z " fill="#6E7072" transform="translate(42,4)"/>
<path d="M0,0 L7,0 L6,3 L3,3 L3,1 Z " fill="#0C0A08" transform="translate(26,6)"/>
<path d="M0,0 L2,4 L-3,4 L-3,2 Z " fill="#01020A" transform="translate(148,67)"/>
<path d="M0,0 L5,1 L5,4 L1,2 Z " fill="#141A24" transform="translate(40,66)"/>
<path d="M0,0 L2,2 L0,5 L0,3 L-3,3 L-3,1 Z " fill="#67677E" transform="translate(60,63)"/>
<path d="M0,0 L6,3 L2,4 Z " fill="#808486" transform="translate(20,63)"/>
<path d="M0,0 L3,1 L3,5 L1,5 L1,2 L-1,1 Z " fill="#090B19" transform="translate(107,54)"/>
<path d="M0,0 L4,1 L5,5 L3,5 L3,3 L0,2 Z " fill="#120E1F" transform="translate(77,33)"/>
<path d="M0,0 L6,1 L7,3 L4,4 Z " fill="#0D0A19" transform="translate(76,28)"/>
<path d="M0,0 L3,1 L2,4 L-1,4 Z " fill="#5E5D6C" transform="translate(53,27)"/>
<path d="M0,0 L4,1 L4,4 L1,4 Z " fill="#363547" transform="translate(103,26)"/>
<path d="M0,0 L1,4 L0,6 L-2,6 L-1,1 Z " fill="#322C3B" transform="translate(99,27)"/>
<path d="M0,0 L3,3 L3,5 L-1,5 Z " fill="#525160" transform="translate(105,18)"/>
<path d="M0,0 L4,0 L4,2 L-1,3 Z " fill="#765F74" transform="translate(17,18)"/>
<path d="M0,0 L4,0 L3,4 L1,4 Z " fill="#565568" transform="translate(59,13)"/>
<path d="M0,0 L3,1 L2,4 L-3,3 L0,2 Z " fill="#3D3F4D" transform="translate(110,2)"/>
<path d="M0,0 L3,0 L3,3 L-1,3 Z " fill="#0C1228" transform="translate(90,81)"/>
<path d="M0,0 L3,0 L3,3 L-1,3 Z " fill="#373D4D" transform="translate(105,81)"/>
<path d="M0,0 L2,1 L0,4 L-3,4 L-3,2 Z " fill="#383B5A" transform="translate(144,67)"/>
<path d="M0,0 L3,0 L1,5 L0,5 Z " fill="#AD99AA" transform="translate(138,57)"/>
<path d="M0,0 L2,0 L1,4 L-1,5 Z " fill="#BEBCC9" transform="translate(130,55)"/>
<path d="M0,0 L2,0 L3,4 L0,5 Z " fill="#160F19" transform="translate(130,49)"/>
<path d="M0,0 L2,4 L4,5 L0,5 L-1,2 Z " fill="#54586C" transform="translate(35,47)"/>
<path d="M0,0 L4,1 L6,3 L3,4 Z " fill="#8D808C" transform="translate(7,45)"/>
<path d="M0,0 L4,2 L2,2 L1,5 L0,5 Z " fill="#373B4E" transform="translate(111,41)"/>
<path d="M0,0 L3,3 L1,3 L0,5 L-1,1 Z " fill="#272739" transform="translate(41,36)"/>
<path d="M0,0 L3,2 L1,6 Z " fill="#32212A" transform="translate(136,28)"/>
<path d="M0,0 L3,0 L1,5 L0,5 Z " fill="#7B7682" transform="translate(15,30)"/>
<path d="M0,0 L4,1 L6,4 L1,2 Z " fill="#1D1814" transform="translate(131,21)"/>
<path d="M0,0 L3,1 L3,3 L-3,3 L0,2 Z " fill="#506D6A" transform="translate(4,4)"/>
<path d="M0,0 L5,0 L3,1 L2,4 Z " fill="#30242D" transform="translate(129,3)"/>
<path d="M0,0 L5,0 L4,4 Z " fill="#333943" transform="translate(102,0)"/>
<path d="M0,0 L4,1 L1,4 L-1,3 Z " fill="#222A35" transform="translate(6,0)"/>
<path d="M0,0 L2,1 L2,4 L-2,3 L0,2 Z " fill="#282C3A" transform="translate(48,67)"/>
<path d="M0,0 L2,0 L3,4 L-1,3 Z " fill="#151016" transform="translate(132,57)"/>
<path d="M0,0 L2,0 L3,4 L-1,2 Z " fill="#070A1E" transform="translate(35,44)"/>
<path d="M0,0 L2,4 L-1,5 Z " fill="#7D7D90" transform="translate(107,34)"/>
<path d="M0,0 L3,1 L1,2 L0,4 L-2,2 Z " fill="#0B1326" transform="translate(62,35)"/>
<path d="M0,0 L4,0 L2,4 Z " fill="#575364" transform="translate(45,27)"/>
<path d="M0,0 L3,1 L1,4 L1,2 L-2,3 L-2,1 Z " fill="#555564" transform="translate(6,19)"/>
<path d="M0,0 L4,1 L4,3 L0,2 Z " fill="#9B99A8" transform="translate(142,13)"/>
<path d="M0,0 L4,0 L3,3 L0,3 Z " fill="#000103" transform="translate(40,12)"/>
<path d="M0,0 L4,0 L4,3 L1,3 Z " fill="#1B090A" transform="translate(143,7)"/>
<path d="M0,0 L3,1 L2,5 L2,3 L0,3 Z " fill="#180C1B" transform="translate(89,9)"/>
<path d="M0,0 L3,2 L-1,3 L-2,1 Z " fill="#96C4CC" transform="translate(23,80)"/>
<path d="M0,0 L4,2 L0,3 Z " fill="#9896B4" transform="translate(101,59)"/>
<path d="M0,0 L3,1 L2,3 L-1,3 Z " fill="#140F29" transform="translate(92,52)"/>
<path d="M0,0 L2,0 L2,4 L-1,3 Z " fill="#1C141F" transform="translate(142,37)"/>
<path d="M0,0 L2,1 L2,3 L-2,3 L-2,1 Z " fill="#6C6571" transform="translate(89,35)"/>
<path d="M0,0 L1,4 L-2,4 Z " fill="#A09BA6" transform="translate(14,31)"/>
<path d="M0,0 L2,0 L2,3 L-2,2 Z " fill="#040508" transform="translate(24,29)"/>
<path d="M0,0 L2,0 L0,4 L-2,3 L-2,1 Z " fill="#0A0614" transform="translate(96,28)"/>
<path d="M0,0 L2,0 L1,3 L-4,2 Z " fill="#514B64" transform="translate(69,28)"/>
<path d="M0,0 L4,0 L4,2 L1,3 Z " fill="#7A778A" transform="translate(56,20)"/>
<path d="M0,0 L3,0 L3,3 L0,3 Z " fill="#110A21" transform="translate(66,18)"/>
<path d="M0,0 L5,1 L1,3 L-1,3 Z " fill="#4D3943" transform="translate(123,16)"/>
<path d="M0,0 L4,1 L4,3 L0,2 Z " fill="#848393" transform="translate(63,13)"/>
<path d="M0,0 L5,1 L3,3 Z " fill="#09050F" transform="translate(74,13)"/>
<path d="M0,0 L4,1 L2,1 L2,3 L-1,2 Z " fill="#655C71" transform="translate(57,0)"/>
<path d="M0,0 L4,1 L4,3 L0,1 Z " fill="#89868B" transform="translate(14,51)"/>
<path d="M0,0 L3,1 L2,4 Z " fill="#2A1B25" transform="translate(8,48)"/>
<path d="M0,0 L1,4 L-2,3 Z " fill="#81899B" transform="translate(29,42)"/>
<path d="M0,0 L3,0 L3,3 L0,2 Z " fill="#0C0B1B" transform="translate(88,43)"/>
<path d="M0,0 L3,0 L3,3 L0,2 Z " fill="#746F87" transform="translate(41,42)"/>
<path d="M0,0 L3,1 L3,3 L-1,1 Z " fill="#17172A" transform="translate(17,37)"/>
<path d="M0,0 L2,2 L0,4 L-2,1 Z " fill="#45404F" transform="translate(54,30)"/>
<path d="M0,0 L3,0 L2,3 L0,3 Z " fill="#181316" transform="translate(10,29)"/>
<path d="M0,0 L4,1 L4,3 L0,1 Z " fill="#838078" transform="translate(135,22)"/>
<path d="M0,0 L3,0 L2,3 L0,3 Z " fill="#433C4C" transform="translate(74,20)"/>
<path d="M0,0 L3,1 L-1,3 Z " fill="#796E88" transform="translate(71,18)"/>
<path d="M0,0 L4,1 L4,3 L0,1 Z " fill="#817C87" transform="translate(91,15)"/>
<path d="M0,0 L3,1 L3,3 L0,3 Z " fill="#18131F" transform="translate(102,7)"/>
<path d="M0,0 L4,1 L4,3 L0,1 Z " fill="#B3B0B8" transform="translate(127,5)"/>
<path d="M0,0 L3,3 L0,4 Z " fill="#362C41" transform="translate(55,1)"/>
<path d="M0,0 L2,1 L2,3 L-1,3 Z " fill="#01010A" transform="translate(34,61)"/>
<path d="M0,0 L2,1 L2,3 L-1,3 Z " fill="#594A58" transform="translate(11,51)"/>
<path d="M0,0 L2,1 L2,3 L-2,1 Z " fill="#1F1725" transform="translate(131,43)"/>
<path d="M0,0 L3,1 L2,3 L0,3 Z " fill="#131428" transform="translate(39,43)"/>
<path d="M0,0 L2,0 L1,3 L-1,3 Z " fill="#162026" transform="translate(117,39)"/>
<path d="M0,0 L3,1 L2,3 L0,3 Z " fill="#05040A" transform="translate(92,34)"/>
<path d="M0,0 L3,1 L2,3 L-1,2 Z " fill="#4D4D5C" transform="translate(42,34)"/>
<path d="M0,0 L1,2 L3,3 L0,4 L-1,2 Z " fill="#21283A" transform="translate(116,31)"/>
<path d="M0,0 L2,0 L1,3 L-1,3 Z " fill="#060814" transform="translate(42,18)"/>
<path d="M0,0 L2,1 L2,3 L-2,1 Z " fill="#221B2D" transform="translate(89,15)"/>
<path d="M0,0 L2,0 L2,3 L-1,2 Z " fill="#191720" transform="translate(98,11)"/>
<path d="M0,0 L3,1 L1,3 Z " fill="#969198" transform="translate(6,49)"/>
<path d="M0,0 L2,1 L2,3 L-1,2 Z " fill="#091130" transform="translate(68,41)"/>
</svg>
