<?xml version="1.0" encoding="UTF-8"?>
<!-- Generator: visioncortex VTracer 0.6.5 -->
<svg version="1.1" xmlns="http://www.w3.org/2000/svg" width="60" height="60">
<path d="M0,0 L8,0 L13,3 L13,5 L16,5 L16,9 L16,11 L14,11 L14,14 L16,15 L15,21 L23,26 L28,36 L29,40 L35,41 L35,58 L-25,58 L-25,41 L-19,40 L-17,35 L-12,25 L-5,21 L-6,15 L-4,13 L-6,7 L-4,3 L-1,2 Z " fill="#0A0804" transform="translate(25,2)"/>
<path d="M0,0 L8,0 L13,3 L13,5 L16,5 L16,9 L16,11 L14,11 L14,14 L16,15 L15,21 L23,26 L24,30 L20,29 L19,39 L15,40 L13,40 L9,41 L1,41 L1,37 L-1,37 L-1,29 L-3,29 L-3,22 L-1,25 L-1,27 L9,25 L10,18 L7,15 L2,15 L-2,19 L-5,16 L-6,18 L-5,14 L-5,11 L-6,7 L-4,3 L-1,2 Z " fill="#0B0805" transform="translate(25,2)"/>
<path d="M0,0 L2,1 L1,4 L-2,7 L-3,11 L-2,18 L-6,20 L-4,26 L3,26 L5,29 L10,29 L12,24 L13,27 L20,27 L21,24 L23,25 L23,28 L29,27 L34,28 L38,27 L38,20 L39,17 L46,17 L46,34 L-14,34 L-14,17 L-8,16 L-6,11 L-1,1 Z " fill="#030403" transform="translate(14,26)"/>
<path d="M0,0 L7,1 L9,4 L8,11 L3,13 L-3,13 L-4,11 L-5,15 L-3,15 L-3,23 L-1,24 L-4,25 L-5,19 L-6,19 L-7,25 L-11,23 L-11,29 L-14,28 L-14,22 L-17,21 L-15,15 L-12,14 L-11,10 L-7,6 L-7,2 L-3,3 Z " fill="#130D08" transform="translate(27,16)"/>
<path d="M0,0 L2,1 L3,6 L5,6 L4,10 L6,10 L5,15 L7,15 L7,18 L13,13 L14,17 L13,19 L6,19 L3,22 L-2,22 L-4,18 L-11,19 L-13,17 L-13,12 L-10,10 L-10,4 L-8,2 L-7,6 L-7,10 L-5,11 L-5,5 L-2,6 Z " fill="#0D0D0A" transform="translate(21,34)"/>
<path d="M0,0 L2,3 L2,6 L9,6 L11,7 L11,9 L13,9 L13,17 L17,13 L19,13 L19,11 L21,11 L22,17 L18,18 L16,18 L12,19 L4,19 L4,15 L2,15 L2,7 L0,7 Z " fill="#070603" transform="translate(22,24)"/>
<path d="M0,0 L8,0 L13,3 L13,5 L16,5 L16,9 L16,11 L14,11 L13,16 L12,16 L12,9 L7,9 L8,6 L0,6 L-5,11 L-6,7 L-4,3 L-1,2 Z " fill="#050401" transform="translate(25,2)"/>
<path d="M0,0 L2,1 L4,4 L4,9 L1,9 L1,6 L-1,6 L0,9 L-6,10 L-7,9 L-9,12 L-11,12 L-11,9 L-13,9 L-12,4 L-14,4 L-13,2 L-2,2 Z " fill="#0C0907" transform="translate(39,40)"/>
<path d="M0,0 L7,1 L9,4 L8,11 L3,11 L4,8 L0,7 L-2,2 Z " fill="#23140C" transform="translate(27,16)"/>
<path d="M0,0 L4,1 L4,7 L-1,7 L-2,8 L-10,9 L-11,5 L-2,2 Z " fill="#090804" transform="translate(47,46)"/>
<path d="M0,0 L2,1 L3,6 L5,6 L3,12 L-3,13 L-5,5 L-2,6 Z " fill="#1E2927" transform="translate(21,34)"/>
<path d="M0,0 L3,3 L2,12 L0,12 L-2,16 L-4,16 L-4,6 L-2,6 L-2,9 L0,8 L-1,7 Z " fill="#160F09" transform="translate(39,25)"/>
<path d="M0,0 L2,4 L3,9 L4,14 L2,16 L-4,15 L-4,10 L-1,8 L-1,2 Z " fill="#283E35" transform="translate(12,36)"/>
<path d="M0,0 L4,1 L6,11 L-1,10 L-2,6 Z " fill="#19100A" transform="translate(45,31)"/>
<path d="M0,0 L10,2 L10,6 L1,6 L-1,7 L-3,6 L-2,2 Z " fill="#301516" transform="translate(26,11)"/>
<path d="M0,0 L5,1 L6,6 L3,6 L0,9 L-2,9 L-2,6 L-4,6 L-4,3 Z " fill="#28140E" transform="translate(30,43)"/>
<path d="M0,0 L4,0 L2,8 L-1,8 L-1,14 L-4,13 L-3,6 L-1,2 Z " fill="#0A0804" transform="translate(17,31)"/>
<path d="M0,0 L5,1 L9,2 L10,11 L3,13 L1,9 L8,11 L6,4 L1,3 Z " fill="#0E0C09" transform="translate(43,42)"/>
<path d="M0,0 L8,1 L6,5 L10,6 L4,7 L0,7 Z " fill="#261214" transform="translate(24,22)"/>
<path d="M0,0 L5,1 L4,6 L-1,6 L-2,1 Z " fill="#32513E" transform="translate(20,50)"/>
<path d="M0,0 L4,1 L4,7 L-1,7 L-2,4 Z " fill="#1A261A" transform="translate(47,46)"/>
<path d="M0,0 L2,1 L3,6 L5,6 L4,9 L1,8 L0,10 L-1,8 L-1,1 Z " fill="#263B33" transform="translate(21,34)"/>
<path d="M0,0 L1,3 L4,3 L5,6 L1,7 L-2,6 L-2,1 Z " fill="#273B32" transform="translate(10,45)"/>
<path d="M0,0 L7,1 L6,5 L5,2 L2,3 L0,6 L-2,2 Z " fill="#923C09" transform="translate(27,16)"/>
<path d="M0,0 L2,3 L2,13 L1,11 L-6,12 L-7,10 L-2,10 L-1,5 Z " fill="#0C0C08" transform="translate(16,41)"/>
<path d="M0,0 L2,1 L2,7 L4,8 L1,9 L0,3 L-1,3 L-2,9 L-4,7 L-2,1 Z " fill="#15150D" transform="translate(22,32)"/>
<path d="M0,0 L4,1 L3,5 L1,4 L-3,5 L-1,1 Z " fill="#5D2507" transform="translate(32,45)"/>
<path d="M0,0 L4,1 L8,3 L1,5 L-1,4 Z " fill="#1E0F1A" transform="translate(24,13)"/>
<path d="M0,0 L5,1 L5,6 L2,6 Z " fill="#1B120B" transform="translate(38,43)"/>
<path d="M0,0 L4,2 L5,5 L0,6 Z " fill="#632504" transform="translate(24,22)"/>
<path d="M0,0 L3,0 L4,4 L3,5 L-2,5 Z " fill="#96410A" transform="translate(29,18)"/>
<path d="M0,0 L6,2 L6,5 L0,4 Z " fill="#211017" transform="translate(20,18)"/>
<path d="M0,0 L3,0 L2,6 L-1,6 L-2,2 L0,2 Z " fill="#221309" transform="translate(47,34)"/>
<path d="M0,0 L5,0 L5,3 L1,4 Z " fill="#1D2923" transform="translate(36,51)"/>
<path d="M0,0 L2,0 L1,4 L-4,4 L-5,2 L0,2 Z " fill="#1D2825" transform="translate(23,52)"/>
<path d="M0,0 L1,4 L-5,5 L-7,1 L0,3 Z " fill="#121712" transform="translate(51,50)"/>
<path d="M0,0 L1,2 L-1,3 L-10,3 L-6,1 Z " fill="#110A0B" transform="translate(34,27)"/>
<path d="M0,0 L3,0 L3,4 L0,5 Z " fill="#233B26" transform="translate(47,46)"/>
<path d="M0,0 L4,4 L0,6 Z " fill="#271314" transform="translate(35,44)"/>
<path d="M0,0 L3,1 L3,6 L1,5 Z " fill="#2A4237" transform="translate(16,39)"/>
<path d="M0,0 L5,1 L3,2 L2,4 Z " fill="#1D120A" transform="translate(43,42)"/>
<path d="M0,0 L5,0 L5,2 L0,3 Z " fill="#26150B" transform="translate(36,35)"/>
<path d="M0,0 L5,1 L4,5 Z " fill="#E26105" transform="translate(29,16)"/>
<path d="M0,0 L2,0 L2,4 L-2,3 Z " fill="#231114" transform="translate(34,13)"/>
<path d="M0,0 L0,3 L-5,3 L-6,1 L-1,1 Z " fill="#191F1D" transform="translate(15,50)"/>
<path d="M0,0 L2,4 L-1,5 L-2,2 Z " fill="#160D0B" transform="translate(33,47)"/>
<path d="M0,0 L2,0 L2,2 L4,2 L3,5 L3,3 L0,3 Z " fill="#2A4136" transform="translate(11,45)"/>
<path d="M0,0 L2,1 L-3,5 L-3,2 Z " fill="#5C2407" transform="translate(29,44)"/>
<path d="M0,0 L5,1 L1,4 Z " fill="#411B11" transform="translate(30,43)"/>
<path d="M0,0 L2,0 L3,4 L0,4 Z " fill="#251409" transform="translate(38,27)"/>
<path d="M0,0 L3,1 L2,5 L0,5 Z " fill="#120C08" transform="translate(21,22)"/>
<path d="M0,0 L3,0 L2,4 L0,3 Z " fill="#4D1E0B" transform="translate(33,46)"/>
<path d="M0,0 L2,0 L2,5 L0,4 Z " fill="#080804" transform="translate(13,40)"/>
<path d="M0,0 L1,0 L1,7 L-1,3 Z " fill="#3A6743" transform="translate(21,34)"/>
<path d="M0,0 L4,2 L2,3 L-3,2 Z " fill="#060502" transform="translate(30,13)"/>
<path d="M0,0 L4,1 L0,3 Z " fill="#461B16" transform="translate(24,13)"/>
<path d="M0,0 L2,1 L1,5 L0,5 Z " fill="#090804" transform="translate(17,46)"/>
<path d="M0,0 L2,0 L2,3 L-1,3 Z " fill="#211309" transform="translate(19,28)"/>
<path d="M0,0 L2,1 L3,3 L-1,3 Z " fill="#662603" transform="translate(31,24)"/>
<path d="M0,0 L3,3 L1,3 L0,5 Z " fill="#501E0D" transform="translate(24,23)"/>
<path d="M0,0 L5,0 L4,2 L0,1 Z " fill="#080501" transform="translate(27,23)"/>
<path d="M0,0 L2,0 L2,3 L-1,3 Z " fill="#441500" transform="translate(29,18)"/>
<path d="M0,0 L4,2 L2,3 L-1,1 Z " fill="#271217" transform="translate(26,11)"/>
<path d="M0,0 L6,1 L6,2 L1,2 Z " fill="#181F1B" transform="translate(18,54)"/>
<path d="M0,0 L3,1 L1,2 L0,4 Z " fill="#283F34" transform="translate(22,50)"/>
<path d="M0,0 L1,4 L-2,2 Z " fill="#060702" transform="translate(24,46)"/>
<path d="M0,0 L1,3 L3,4 L0,5 Z " fill="#0C1207" transform="translate(23,36)"/>
<path d="M0,0 L2,4 L-1,3 Z " fill="#1E120B" transform="translate(20,25)"/>
<path d="M0,0 L2,2 L1,5 Z " fill="#23121B" transform="translate(34,18)"/>
<path d="M0,0 L3,2 L2,4 L0,3 Z " fill="#1A0E0B" transform="translate(24,19)"/>
<path d="M0,0 L2,1 L0,4 Z " fill="#EA890D" transform="translate(26,17)"/>
<path d="M0,0 L2,0 L0,4 L-1,1 Z " fill="#0F0B0B" transform="translate(23,17)"/>
<path d="M0,0 L3,0 L3,2 L0,2 Z " fill="#23332D" transform="translate(37,51)"/>
<path d="M0,0 L3,1 L1,3 Z " fill="#202E28" transform="translate(22,42)"/>
<path d="M0,0 L1,0 L1,6 L0,6 Z " fill="#040401" transform="translate(15,39)"/>
<path d="M0,0 L1,0 L1,5 L0,5 Z " fill="#1C2423" transform="translate(8,46)"/>
<path d="M0,0 L3,1 L-1,2 Z " fill="#180E0E" transform="translate(36,48)"/>
<path d="M0,0 L2,0 L1,3 Z " fill="#2E4B33" transform="translate(24,40)"/>
<path d="M0,0 L0,3 L-2,1 Z " fill="#3A1713" transform="translate(34,24)"/>
<path d="M0,0 L2,4 L0,4 Z " fill="#953503" transform="translate(31,18)"/>
<path d="M0,0 L2,0 L2,2 L-1,1 Z " fill="#421C09" transform="translate(33,15)"/>
<path d="M0,0 L4,2 L0,1 Z " fill="#D76306" transform="translate(27,16)"/>
<path d="M0,0 L2,1 L-1,1 Z " fill="#12120D" transform="translate(39,54)"/>
<path d="M0,0 L1,3 L-1,2 Z " fill="#2E4A3A" transform="translate(21,51)"/>
<path d="M0,0 L2,3 L0,3 Z " fill="#253731" transform="translate(18,51)"/>
<path d="M0,0 L4,1 Z " fill="#0C0908" transform="translate(11,53)"/>
<path d="M0,0 L4,1 Z " fill="#10130F" transform="translate(37,50)"/>
<path d="M0,0 L1,2 L-2,1 Z " fill="#191F1D" transform="translate(20,45)"/>
<path d="M0,0 L0,3 Z " fill="#2A4236" transform="translate(10,45)"/>
<path d="M0,0 L3,1 L0,2 Z " fill="#6C2804" transform="translate(32,45)"/>
<path d="M0,0 L1,4 Z " fill="#121410" transform="translate(13,40)"/>
<path d="M0,0 L1,4 Z " fill="#13160E" transform="translate(11,40)"/>
<path d="M0,0 L1,4 Z " fill="#32523E" transform="translate(21,37)"/>
<path d="M0,0 L2,0 L2,2 L0,2 Z " fill="#3C1B06" transform="translate(47,34)"/>
<path d="M0,0 L2,0 L2,2 L0,2 Z " fill="#2B160A" transform="translate(19,28)"/>
<path d="M0,0 L3,1 L0,1 Z " fill="#120C07" transform="translate(43,27)"/>
<path d="M0,0 L1,4 Z " fill="#130D0A" transform="translate(35,23)"/>
<path d="M0,0 L2,3 L0,3 Z " fill="#190D13" transform="translate(36,20)"/>
<path d="M0,0 L2,0 L1,3 Z " fill="#060502" transform="translate(39,17)"/>
<path d="M0,0 L2,0 L1,3 Z " fill="#110A10" transform="translate(34,17)"/>
<path d="M0,0 L2,0 L2,2 L0,2 Z " fill="#271314" transform="translate(20,18)"/>
<path d="M0,0 L4,1 Z " fill="#5D2804" transform="translate(28,15)"/>
<path d="M0,0 L3,1 L0,1 Z " fill="#2B1506" transform="translate(31,14)"/>
<path d="M0,0 L3,1 Z " fill="#19231C" transform="translate(21,55)"/>
<path d="M0,0 Z " fill="#1C2423" transform="translate(16,47)"/>
<path d="M0,0 Z " fill="#642608" transform="translate(26,46)"/>
<path d="M0,0 L3,1 Z " fill="#213423" transform="translate(47,46)"/>
<path d="M0,0 L2,1 L0,2 Z " fill="#32533F" transform="translate(11,45)"/>
<path d="M0,0 L2,1 L0,2 Z " fill="#381817" transform="translate(30,45)"/>
<path d="M0,0 L2,1 L0,2 Z " fill="#213423" transform="translate(16,39)"/>
<path d="M0,0 L3,1 Z " fill="#3B1C0B" transform="translate(38,35)"/>
<path d="M0,0 L2,1 L0,2 Z " fill="#1B2816" transform="translate(20,33)"/>
<path d="M0,0 Z " fill="#1D1C11" transform="translate(22,32)"/>
<path d="M0,0 Z " fill="#431E0F" transform="translate(24,25)"/>
<path d="M0,0 L2,0 L1,2 Z " fill="#53210B" transform="translate(24,22)"/>
<path d="M0,0 L2,0 L1,2 Z " fill="#3C1B1D" transform="translate(34,21)"/>
<path d="M0,0 Z " fill="#B95009" transform="translate(33,17)"/>
<path d="M0,0 L3,1 Z " fill="#D35C05" transform="translate(29,16)"/>
<path d="M0,0 L2,1 L0,2 Z " fill="#421C09" transform="translate(26,15)"/>
<path d="M0,0 L2,1 L0,2 Z " fill="#622807" transform="translate(25,14)"/>
<path d="M0,0 L2,1 L0,2 Z " fill="#100B0A" transform="translate(24,11)"/>
<path d="M0,0 L2,1 Z " fill="#18201C" transform="translate(37,54)"/>
<path d="M0,0 L2,1 Z " fill="#23332D" transform="translate(20,54)"/>
<path d="M0,0 L2,1 Z " fill="#212E2B" transform="translate(18,54)"/>
<path d="M0,0 Z " fill="#121512" transform="translate(41,52)"/>
<path d="M0,0 Z " fill="#0C0907" transform="translate(35,52)"/>
<path d="M0,0 Z " fill="#171C1A" transform="translate(17,52)"/>
<path d="M0,0 L2,1 Z " fill="#2B4338" transform="translate(37,52)"/>
<path d="M0,0 Z " fill="#365B42" transform="translate(21,51)"/>
<path d="M0,0 L2,1 Z " fill="#1C1112" transform="translate(28,51)"/>
<path d="M0,0 L2,1 Z " fill="#212E2B" transform="translate(9,51)"/>
<path d="M0,0 L2,1 Z " fill="#1D2A24" transform="translate(22,50)"/>
<path d="M0,0 L2,1 Z " fill="#2E4A3A" transform="translate(20,50)"/>
<path d="M0,0 L2,1 Z " fill="#1D2A24" transform="translate(18,50)"/>
<path d="M0,0 Z " fill="#141B14" transform="translate(45,48)"/>
<path d="M0,0 L2,1 Z " fill="#3E1B0C" transform="translate(33,49)"/>
<path d="M0,0 Z " fill="#213423" transform="translate(50,47)"/>
<path d="M0,0 L2,1 Z " fill="#27140B" transform="translate(41,48)"/>
<path d="M0,0 Z " fill="#341905" transform="translate(33,47)"/>
<path d="M0,0 Z " fill="#1B0E14" transform="translate(25,47)"/>
<path d="M0,0 Z " fill="#6B2904" transform="translate(27,46)"/>
<path d="M0,0 Z " fill="#19231C" transform="translate(8,46)"/>
<path d="M0,0 Z " fill="#301807" transform="translate(39,44)"/>
<path d="M0,0 Z " fill="#3B1A19" transform="translate(35,44)"/>
<path d="M0,0 Z " fill="#0E110C" transform="translate(24,44)"/>
<path d="M0,0 L2,1 Z " fill="#1D0F17" transform="translate(33,43)"/>
<path d="M0,0 Z " fill="#141B14" transform="translate(25,42)"/>
<path d="M0,0 L2,1 Z " fill="#050B0D" transform="translate(0,43)"/>
<path d="M0,0 Z " fill="#335240" transform="translate(24,41)"/>
<path d="M0,0 Z " fill="#1C2A20" transform="translate(19,41)"/>
<path d="M0,0 Z " fill="#181F1B" transform="translate(16,41)"/>
<path d="M0,0 Z " fill="#324D3E" transform="translate(12,41)"/>
<path d="M0,0 Z " fill="#2C443A" transform="translate(18,40)"/>
<path d="M0,0 Z " fill="#2E4A3A" transform="translate(17,40)"/>
<path d="M0,0 L2,1 Z " fill="#3B1B08" transform="translate(46,39)"/>
<path d="M0,0 Z " fill="#203125" transform="translate(13,38)"/>
<path d="M0,0 Z " fill="#213923" transform="translate(11,38)"/>
<path d="M0,0 L2,1 Z " fill="#13170D" transform="translate(16,38)"/>
<path d="M0,0 Z " fill="#2C180A" transform="translate(45,36)"/>
<path d="M0,0 Z " fill="#2E4A3A" transform="translate(22,35)"/>
<path d="M0,0 Z " fill="#2F1705" transform="translate(47,34)"/>
<path d="M0,0 Z " fill="#477D51" transform="translate(21,34)"/>
<path d="M0,0 Z " fill="#4A2106" transform="translate(19,28)"/>
<path d="M0,0 L2,1 Z " fill="#2B150B" transform="translate(24,28)"/>
<path d="M0,0 L2,1 Z " fill="#3A1613" transform="translate(26,27)"/>
<path d="M0,0 L2,1 Z " fill="#451B0E" transform="translate(32,26)"/>
<path d="M0,0 Z " fill="#491D08" transform="translate(30,25)"/>
<path d="M0,0 Z " fill="#371817" transform="translate(29,25)"/>
<path d="M0,0 Z " fill="#4F1D0B" transform="translate(28,25)"/>
<path d="M0,0 Z " fill="#1B0E14" transform="translate(35,23)"/>
<path d="M0,0 Z " fill="#522004" transform="translate(32,22)"/>
<path d="M0,0 Z " fill="#100A05" transform="translate(20,20)"/>
<path d="M0,0 Z " fill="#3B1C0B" transform="translate(34,18)"/>
<path d="M0,0 Z " fill="#B05C0F" transform="translate(25,18)"/>
<path d="M0,0 Z " fill="#441D08" transform="translate(20,18)"/>
<path d="M0,0 L2,1 Z " fill="#672101" transform="translate(29,18)"/>
<path d="M0,0 L2,1 Z " fill="#1E110B" transform="translate(34,17)"/>
<path d="M0,0 L2,1 Z " fill="#A54107" transform="translate(29,17)"/>
<path d="M0,0 L2,1 Z " fill="#E0810E" transform="translate(26,17)"/>
<path d="M0,0 L2,1 Z " fill="#070802" transform="translate(27,14)"/>
<path d="M0,0 L2,1 Z " fill="#3B1A19" transform="translate(32,13)"/>
<path d="M0,0 L2,1 Z " fill="#461C18" transform="translate(24,13)"/>
<path d="M0,0 L2,1 Z " fill="#150C11" transform="translate(34,12)"/>
<path d="M0,0 L2,1 Z " fill="#361819" transform="translate(32,12)"/>
<path d="M0,0 L2,1 Z " fill="#150C11" transform="translate(29,11)"/>
<path d="M0,0 Z " fill="#121512" transform="translate(23,55)"/>
<path d="M0,0 Z " fill="#0D0A0A" transform="translate(36,54)"/>
<path d="M0,0 Z " fill="#181E1C" transform="translate(24,54)"/>
<path d="M0,0 Z " fill="#263B33" transform="translate(20,54)"/>
<path d="M0,0 Z " fill="#1C2423" transform="translate(18,54)"/>
<path d="M0,0 Z " fill="#0E110C" transform="translate(17,54)"/>
<path d="M0,0 Z " fill="#23332D" transform="translate(37,53)"/>
<path d="M0,0 Z " fill="#172213" transform="translate(48,52)"/>
<path d="M0,0 Z " fill="#2C443A" transform="translate(19,52)"/>
<path d="M0,0 Z " fill="#141B14" transform="translate(10,52)"/>
<path d="M0,0 Z " fill="#1C2423" transform="translate(40,51)"/>
<path d="M0,0 Z " fill="#141B14" transform="translate(36,51)"/>
<path d="M0,0 Z " fill="#130D0A" transform="translate(33,51)"/>
<path d="M0,0 Z " fill="#253631" transform="translate(24,51)"/>
<path d="M0,0 Z " fill="#1D2A24" transform="translate(14,51)"/>
<path d="M0,0 Z " fill="#181E1C" transform="translate(9,51)"/>
<path d="M0,0 Z " fill="#0D0A0A" transform="translate(8,51)"/>
<path d="M0,0 Z " fill="#0E110C" transform="translate(44,50)"/>
<path d="M0,0 Z " fill="#130D0A" transform="translate(34,50)"/>
<path d="M0,0 Z " fill="#2B1515" transform="translate(33,50)"/>
<path d="M0,0 Z " fill="#210F0C" transform="translate(30,50)"/>
<path d="M0,0 Z " fill="#162018" transform="translate(24,50)"/>
<path d="M0,0 Z " fill="#23332D" transform="translate(22,50)"/>
<path d="M0,0 Z " fill="#253631" transform="translate(20,50)"/>
<path d="M0,0 Z " fill="#141B14" transform="translate(18,50)"/>
<path d="M0,0 Z " fill="#14120C" transform="translate(16,50)"/>
<path d="M0,0 Z " fill="#1C2423" transform="translate(15,50)"/>
<path d="M0,0 Z " fill="#23332D" transform="translate(9,50)"/>
<path d="M0,0 Z " fill="#171C1A" transform="translate(8,50)"/>
<path d="M0,0 Z " fill="#241114" transform="translate(35,49)"/>
<path d="M0,0 Z " fill="#1B0E14" transform="translate(26,49)"/>
<path d="M0,0 Z " fill="#171C1A" transform="translate(16,49)"/>
<path d="M0,0 Z " fill="#23332D" transform="translate(15,49)"/>
<path d="M0,0 Z " fill="#1C2423" transform="translate(12,49)"/>
<path d="M0,0 Z " fill="#14120C" transform="translate(45,48)"/>
<path d="M0,0 Z " fill="#130D0A" transform="translate(38,48)"/>
<path d="M0,0 Z " fill="#451C12" transform="translate(35,48)"/>
<path d="M0,0 Z " fill="#632705" transform="translate(34,48)"/>
<path d="M0,0 Z " fill="#451E0B" transform="translate(31,48)"/>
<path d="M0,0 Z " fill="#6F2A05" transform="translate(30,48)"/>
<path d="M0,0 Z " fill="#31160B" transform="translate(27,48)"/>
<path d="M0,0 Z " fill="#451C12" transform="translate(26,48)"/>
<path d="M0,0 Z " fill="#172213" transform="translate(50,47)"/>
<path d="M0,0 Z " fill="#1A0E0B" transform="translate(33,47)"/>
<path d="M0,0 Z " fill="#4A1E05" transform="translate(32,47)"/>
<path d="M0,0 Z " fill="#31160B" transform="translate(25,47)"/>
<path d="M0,0 Z " fill="#253631" transform="translate(9,47)"/>
<path d="M0,0 Z " fill="#182216" transform="translate(49,46)"/>
<path d="M0,0 Z " fill="#1C2B1C" transform="translate(47,46)"/>
<path d="M0,0 Z " fill="#4E1D0D" transform="translate(26,46)"/>
<path d="M0,0 Z " fill="#1A0E0B" transform="translate(25,46)"/>
<path d="M0,0 Z " fill="#121512" transform="translate(23,46)"/>
<path d="M0,0 Z " fill="#171C1A" transform="translate(18,46)"/>
<path d="M0,0 Z " fill="#141B14" transform="translate(16,46)"/>
<path d="M0,0 Z " fill="#212E2B" transform="translate(15,46)"/>
<path d="M0,0 Z " fill="#2C443A" transform="translate(12,46)"/>
<path d="M0,0 Z " fill="#1C2423" transform="translate(9,46)"/>
<path d="M0,0 Z " fill="#14120C" transform="translate(8,46)"/>
<path d="M0,0 Z " fill="#1B0E14" transform="translate(36,45)"/>
<path d="M0,0 Z " fill="#642608" transform="translate(32,45)"/>
<path d="M0,0 Z " fill="#5A2309" transform="translate(28,45)"/>
<path d="M0,0 Z " fill="#341613" transform="translate(27,45)"/>
<path d="M0,0 Z " fill="#1A0E0B" transform="translate(26,45)"/>
<path d="M0,0 Z " fill="#121512" transform="translate(15,45)"/>
<path d="M0,0 Z " fill="#202E27" transform="translate(14,45)"/>
<path d="M0,0 Z " fill="#375848" transform="translate(12,45)"/>
<path d="M0,0 Z " fill="#1C2423" transform="translate(10,45)"/>
<path d="M0,0 Z " fill="#0D0A0A" transform="translate(9,45)"/>
<path d="M0,0 Z " fill="#23121B" transform="translate(35,44)"/>
<path d="M0,0 Z " fill="#3B1A19" transform="translate(34,44)"/>
<path d="M0,0 Z " fill="#54210D" transform="translate(33,44)"/>
<path d="M0,0 Z " fill="#2B1515" transform="translate(28,44)"/>
<path d="M0,0 Z " fill="#1A0E0B" transform="translate(27,44)"/>
<path d="M0,0 Z " fill="#181E1C" transform="translate(24,44)"/>
<path d="M0,0 Z " fill="#2A4236" transform="translate(18,44)"/>
<path d="M0,0 Z " fill="#171C1A" transform="translate(17,44)"/>
<path d="M0,0 Z " fill="#121512" transform="translate(14,44)"/>
<path d="M0,0 Z " fill="#212E2B" transform="translate(13,44)"/>
<path d="M0,0 Z " fill="#212E2B" transform="translate(11,44)"/>
<path d="M0,0 Z " fill="#130D0A" transform="translate(35,43)"/>
<path d="M0,0 Z " fill="#23121B" transform="translate(29,43)"/>
<path d="M0,0 Z " fill="#130D0A" transform="translate(28,43)"/>
<path d="M0,0 Z " fill="#253631" transform="translate(24,43)"/>
<path d="M0,0 Z " fill="#263B33" transform="translate(21,43)"/>
<path d="M0,0 Z " fill="#212E2B" transform="translate(17,43)"/>
<path d="M0,0 Z " fill="#14120C" transform="translate(16,43)"/>
<path d="M0,0 Z " fill="#181E1C" transform="translate(13,43)"/>
<path d="M0,0 Z " fill="#171C1A" transform="translate(11,43)"/>
<path d="M0,0 Z " fill="#0D0A0A" transform="translate(33,42)"/>
<path d="M0,0 Z " fill="#0D0A0A" transform="translate(29,42)"/>
<path d="M0,0 Z " fill="#19231C" transform="translate(25,42)"/>
<path d="M0,0 Z " fill="#253C29" transform="translate(25,41)"/>
<path d="M0,0 Z " fill="#477D51" transform="translate(24,41)"/>
<path d="M0,0 Z " fill="#264126" transform="translate(23,41)"/>
<path d="M0,0 Z " fill="#355C37" transform="translate(24,40)"/>
<path d="M0,0 Z " fill="#172213" transform="translate(23,40)"/>
<path d="M0,0 Z " fill="#253C29" transform="translate(18,40)"/>
<path d="M0,0 Z " fill="#396544" transform="translate(17,40)"/>
<path d="M0,0 Z " fill="#213423" transform="translate(12,40)"/>
<path d="M0,0 Z " fill="#1B2816" transform="translate(25,39)"/>
<path d="M0,0 Z " fill="#131C0E" transform="translate(24,39)"/>
<path d="M0,0 Z " fill="#2E4B33" transform="translate(17,39)"/>
<path d="M0,0 Z " fill="#32543E" transform="translate(12,39)"/>
<path d="M0,0 Z " fill="#1D2A24" transform="translate(11,38)"/>
<path d="M0,0 Z " fill="#120C06" transform="translate(39,37)"/>
<path d="M0,0 Z " fill="#121512" transform="translate(11,37)"/>
<path d="M0,0 Z " fill="#3B1C0B" transform="translate(45,36)"/>
<path d="M0,0 Z " fill="#190E05" transform="translate(40,36)"/>
<path d="M0,0 Z " fill="#131C0E" transform="translate(19,36)"/>
<path d="M0,0 Z " fill="#293C2F" transform="translate(12,36)"/>
<path d="M0,0 Z " fill="#3B1C0B" transform="translate(40,35)"/>
<path d="M0,0 Z " fill="#522C11" transform="translate(38,35)"/>
<path d="M0,0 Z " fill="#2B442E" transform="translate(22,35)"/>
<path d="M0,0 Z " fill="#375D39" transform="translate(20,35)"/>
<path d="M0,0 Z " fill="#416F47" transform="translate(21,34)"/>
<path d="M0,0 Z " fill="#2B442E" transform="translate(21,33)"/>
<path d="M0,0 Z " fill="#131C0E" transform="translate(20,33)"/>
<path d="M0,0 Z " fill="#23140C" transform="translate(22,32)"/>
<path d="M0,0 Z " fill="#120C06" transform="translate(18,31)"/>
<path d="M0,0 Z " fill="#1B120B" transform="translate(43,27)"/>
<path d="M0,0 Z " fill="#1B0E14" transform="translate(34,27)"/>
<path d="M0,0 Z " fill="#2B1515" transform="translate(33,27)"/>
<path d="M0,0 Z " fill="#2B1515" transform="translate(30,27)"/>
<path d="M0,0 Z " fill="#56230D" transform="translate(25,27)"/>
<path d="M0,0 Z " fill="#451E0B" transform="translate(24,27)"/>
<path d="M0,0 Z " fill="#52210A" transform="translate(32,26)"/>
<path d="M0,0 Z " fill="#6D2908" transform="translate(25,26)"/>
<path d="M0,0 Z " fill="#2B150B" transform="translate(29,25)"/>
<path d="M0,0 Z " fill="#3B1A19" transform="translate(24,25)"/>
<path d="M0,0 Z " fill="#4E1D0D" transform="translate(33,24)"/>
<path d="M0,0 Z " fill="#6F2A05" transform="translate(32,24)"/>
<path d="M0,0 Z " fill="#4A1D02" transform="translate(31,24)"/>
<path d="M0,0 Z " fill="#4A1D02" transform="translate(27,24)"/>
<path d="M0,0 Z " fill="#501E10" transform="translate(34,23)"/>
<path d="M0,0 Z " fill="#7E2F03" transform="translate(33,23)"/>
<path d="M0,0 Z " fill="#120C06" transform="translate(27,23)"/>
<path d="M0,0 Z " fill="#552209" transform="translate(26,23)"/>
<path d="M0,0 Z " fill="#7C2C02" transform="translate(25,23)"/>
<path d="M0,0 Z " fill="#722B0A" transform="translate(34,22)"/>
<path d="M0,0 Z " fill="#572108" transform="translate(33,22)"/>
<path d="M0,0 Z " fill="#210F0C" transform="translate(32,22)"/>
<path d="M0,0 Z " fill="#74350B" transform="translate(31,22)"/>
<path d="M0,0 Z " fill="#6E3109" transform="translate(27,22)"/>
<path d="M0,0 Z " fill="#210F0C" transform="translate(26,22)"/>
<path d="M0,0 Z " fill="#69280A" transform="translate(24,22)"/>
<path d="M0,0 Z " fill="#2B150B" transform="translate(23,22)"/>
<path d="M0,0 Z " fill="#3B1914" transform="translate(34,21)"/>
<path d="M0,0 Z " fill="#7E390D" transform="translate(32,21)"/>
<path d="M0,0 Z " fill="#CC540A" transform="translate(31,21)"/>
<path d="M0,0 Z " fill="#9D3905" transform="translate(30,21)"/>
<path d="M0,0 Z " fill="#832D03" transform="translate(29,21)"/>
<path d="M0,0 Z " fill="#983705" transform="translate(28,21)"/>
<path d="M0,0 Z " fill="#C25207" transform="translate(27,21)"/>
<path d="M0,0 Z " fill="#6E3109" transform="translate(26,21)"/>
<path d="M0,0 Z " fill="#1A0E0B" transform="translate(25,21)"/>
<path d="M0,0 Z " fill="#3B1A19" transform="translate(24,21)"/>
<path d="M0,0 Z " fill="#130D0A" transform="translate(34,20)"/>
<path d="M0,0 Z " fill="#662E0C" transform="translate(33,20)"/>
<path d="M0,0 Z " fill="#CA5707" transform="translate(32,20)"/>
<path d="M0,0 Z " fill="#5E1E01" transform="translate(30,20)"/>
<path d="M0,0 Z " fill="#C7670F" transform="translate(26,20)"/>
<path d="M0,0 Z " fill="#582908" transform="translate(25,20)"/>
<path d="M0,0 Z " fill="#150C11" transform="translate(23,20)"/>
<path d="M0,0 Z " fill="#B64D08" transform="translate(33,19)"/>
<path d="M0,0 Z " fill="#341504" transform="translate(30,19)"/>
<path d="M0,0 Z " fill="#0B0905" transform="translate(29,19)"/>
<path d="M0,0 Z " fill="#341504" transform="translate(28,19)"/>
<path d="M0,0 Z " fill="#893A05" transform="translate(27,19)"/>
<path d="M0,0 Z " fill="#341504" transform="translate(24,19)"/>
<path d="M0,0 Z " fill="#A53D05" transform="translate(31,18)"/>
<path d="M0,0 Z " fill="#3A1704" transform="translate(29,18)"/>
<path d="M0,0 Z " fill="#A7500B" transform="translate(27,18)"/>
<path d="M0,0 Z " fill="#9A5111" transform="translate(25,18)"/>
<path d="M0,0 Z " fill="#210F0C" transform="translate(24,18)"/>
<path d="M0,0 Z " fill="#4E2113" transform="translate(20,18)"/>
<path d="M0,0 Z " fill="#10090D" transform="translate(39,17)"/>
<path d="M0,0 Z " fill="#8B3C0F" transform="translate(33,17)"/>
<path d="M0,0 Z " fill="#923804" transform="translate(29,17)"/>
<path d="M0,0 Z " fill="#AD4F08" transform="translate(28,17)"/>
<path d="M0,0 Z " fill="#B6610E" transform="translate(26,17)"/>
<path d="M0,0 Z " fill="#4D230B" transform="translate(25,17)"/>
<path d="M0,0 Z " fill="#3B1914" transform="translate(35,16)"/>
<path d="M0,0 Z " fill="#803A10" transform="translate(32,16)"/>
<path d="M0,0 Z " fill="#C7580D" transform="translate(31,16)"/>
<path d="M0,0 Z " fill="#BA5D0C" transform="translate(27,16)"/>
<path d="M0,0 Z " fill="#190E05" transform="translate(25,16)"/>
<path d="M0,0 Z " fill="#32161A" transform="translate(24,16)"/>
<path d="M0,0 Z " fill="#060502" transform="translate(20,16)"/>
<path d="M0,0 Z " fill="#6D2B0B" transform="translate(34,15)"/>
<path d="M0,0 Z " fill="#0C0609" transform="translate(32,15)"/>
<path d="M0,0 Z " fill="#492009" transform="translate(31,15)"/>
<path d="M0,0 Z " fill="#451E06" transform="translate(27,15)"/>
<path d="M0,0 Z " fill="#221105" transform="translate(26,15)"/>
<path d="M0,0 Z " fill="#5B2608" transform="translate(25,15)"/>
<path d="M0,0 Z " fill="#150C11" transform="translate(36,14)"/>
<path d="M0,0 Z " fill="#461C19" transform="translate(34,14)"/>
<path d="M0,0 Z " fill="#2B150B" transform="translate(33,14)"/>
<path d="M0,0 Z " fill="#190E05" transform="translate(31,14)"/>
<path d="M0,0 Z " fill="#221105" transform="translate(27,14)"/>
<path d="M0,0 Z " fill="#722B0D" transform="translate(25,14)"/>
<path d="M0,0 Z " fill="#2C141C" transform="translate(34,13)"/>
<path d="M0,0 Z " fill="#4B1F12" transform="translate(32,13)"/>
<path d="M0,0 Z " fill="#522115" transform="translate(26,13)"/>
<path d="M0,0 Z " fill="#2C141C" transform="translate(24,13)"/>
<path d="M0,0 Z " fill="#130D0A" transform="translate(23,13)"/>
<path d="M0,0 Z " fill="#241114" transform="translate(31,12)"/>
<path d="M0,0 Z " fill="#1B0E14" transform="translate(24,12)"/>
<path d="M0,0 Z " fill="#1B0E14" transform="translate(27,11)"/>
</svg>
