<?xml version="1.0" encoding="UTF-8"?>
<!-- Generator: visioncortex VTracer 0.6.5 -->
<svg version="1.1" xmlns="http://www.w3.org/2000/svg" width="240" height="240">
<path d="M0,0 L240,0 L240,240 L0,240 Z " fill="#0A030A" transform="translate(0,0)"/>
<path d="M0,0 L4,0 L4,5 L13,5 L19,6 L18,8 L25,10 L25,14 L33,15 L33,19 L41,19 L41,24 L46,24 L46,28 L50,28 L50,33 L58,33 L58,37 L50,37 L50,42 L61,43 L61,46 L46,46 L46,42 L33,42 L33,38 L28,38 L28,33 L9,33 L9,29 L-22,29 L-22,33 L-26,33 L-26,38 L-29,38 L-29,42 L-33,42 L-33,34 L-30,34 L-30,24 L-26,24 L-26,20 L-18,19 L-18,15 L0,15 L0,19 L13,19 L13,24 L20,24 L20,29 L33,29 L33,33 L41,33 L41,37 L49,37 L49,33 L42,33 L42,28 L33,28 L33,24 L29,24 L29,19 L17,19 L17,15 L8,14 L8,10 L0,10 Z " fill="#300B0B" transform="translate(55,128)"/>
<path d="M0,0 L4,0 L4,5 L13,5 L19,6 L18,8 L25,10 L25,14 L33,15 L33,19 L41,19 L41,24 L46,24 L46,28 L50,28 L50,33 L58,33 L58,37 L50,37 L50,42 L49,38 L41,38 L41,37 L49,37 L49,33 L42,33 L42,28 L33,28 L33,24 L29,24 L29,19 L17,19 L17,15 L8,14 L8,10 L0,10 Z " fill="#250908" transform="translate(55,128)"/>
<path d="M0,0 L18,0 L18,4 L30,4 L30,13 L26,13 L26,9 L5,9 L5,13 L-4,13 L-4,18 L-8,18 L-8,23 L-11,23 L-11,27 L-15,27 L-15,19 L-12,19 L-12,9 L-8,9 L-8,5 L0,4 Z " fill="#521314" transform="translate(37,143)"/>
<path d="M0,0 L4,1 L1,1 L1,9 L5,10 L1,10 L0,19 L-8,19 L-8,29 L-12,29 L-12,33 L-16,33 L-16,37 L-21,38 L-21,22 L-18,22 L-17,15 L-12,10 L-8,10 L-8,5 L-4,5 L-4,2 L0,2 Z " fill="#300B0B" transform="translate(21,161)"/>
<path d="M0,0 L7,0 L6,12 L-1,14 L-1,21 L-6,22 L-6,27 L-14,28 L-14,35 L-18,36 L-19,35 L-19,23 L-18,18 L-10,17 L-10,13 L-6,13 L-5,8 L-3,8 L-2,4 Z " fill="#180606" transform="translate(19,190)"/>
<path d="M0,0 L13,0 L13,14 L17,14 L17,10 L21,10 L21,15 L17,15 L17,19 L4,19 L4,14 L0,14 Z " fill="#EEC167" transform="translate(108,99)"/>
<path d="M0,0 L1,0 L1,5 L5,5 L5,14 L9,14 L9,23 L14,23 L15,28 L17,29 L17,33 L6,33 L5,23 L1,22 L0,10 L-5,9 L-5,4 L-3,1 Z " fill="#101318" transform="translate(95,38)"/>
<path d="M0,0 L9,0 L10,15 L13,16 L13,22 L12,18 L8,18 L8,20 L6,21 L6,23 L4,23 L4,18 L-4,18 L-4,4 L0,4 Z " fill="#19120D" transform="translate(155,100)"/>
<path d="M0,0 L5,0 L1,1 L0,10 L-8,10 L-8,20 L-12,20 L-12,24 L-16,24 L-16,28 L-21,29 L-21,13 L-18,13 L-17,6 L-13,2 L-12,2 L-12,10 L-14,11 L-16,10 L-16,19 L-9,19 L-9,9 L-6,7 L-4,5 L0,5 Z " fill="#280A09" transform="translate(21,170)"/>
<path d="M0,0 L1,0 L1,5 L5,5 L4,10 L-34,10 L-34,9 L-25,9 L-25,5 L-4,5 L-4,9 L0,9 Z " fill="#370D0C" transform="translate(67,147)"/>
<path d="M0,0 L1,0 L1,24 L-8,24 L-12,23 L-12,14 L0,14 Z " fill="#142025" transform="translate(150,104)"/>
<path d="M0,0 L4,0 L4,5 L12,5 L12,10 L20,10 L21,12 L20,14 L8,14 L8,10 L0,10 Z " fill="#370D0D" transform="translate(55,128)"/>
<path d="M0,0 L8,0 L8,14 L0,14 Z " fill="#E2AF54" transform="translate(151,104)"/>
<path d="M0,0 L9,0 L8,4 L4,4 L4,9 L0,9 L0,18 L-5,18 L-6,16 L-4,16 L-4,5 L-1,4 Z " fill="#11181C" transform="translate(159,152)"/>
<path d="M0,0 L16,0 L16,4 L3,4 L3,14 L-1,14 L-1,1 Z " fill="#4A2A04" transform="translate(105,95)"/>
<path d="M0,0 L8,1 L7,4 L4,4 L4,9 L-20,9 L-21,5 L-29,5 L-29,4 L-16,4 L-16,8 L-1,7 L-1,6 L-7,5 L-7,4 L0,4 Z " fill="#220908" transform="translate(117,166)"/>
<path d="M0,0 L20,0 L21,3 L17,6 L0,5 Z " fill="#16252A" transform="translate(55,180)"/>
<path d="M0,0 L14,0 L13,4 L4,5 L3,9 L-4,9 L-4,4 L0,4 Z " fill="#1B0707" transform="translate(33,157)"/>
<path d="M0,0 L7,0 L7,4 L11,5 L7,5 L7,9 L4,10 L-1,11 L-2,4 L-4,2 Z " fill="#16232A" transform="translate(131,76)"/>
<path d="M0,0 L5,0 L5,5 L8,5 L8,10 L4,10 L4,14 L0,14 Z " fill="#583305" transform="translate(121,99)"/>
<path d="M0,0 L4,0 L4,9 L0,9 L-1,14 L-5,14 L-5,5 L0,5 Z " fill="#101319" transform="translate(147,43)"/>
<path d="M0,0 L1,0 L2,7 L1,10 L8,11 L9,9 L9,15 L5,15 L5,20 L0,20 Z " fill="#0F1316" transform="translate(205,169)"/>
<path d="M0,0 L3,0 L3,9 L-1,9 L-1,11 L-5,11 L-5,14 L-9,14 L-9,10 L-5,10 L-5,5 L-1,5 Z " fill="#1C0707" transform="translate(22,152)"/>
<path d="M0,0 L18,0 L18,4 L0,4 Z " fill="#471111" transform="translate(37,143)"/>
<path d="M0,0 L8,0 L8,13 L4,13 L4,4 L0,4 Z " fill="#9A640F" transform="translate(155,100)"/>
<path d="M0,0 L1,0 L1,8 L-1,9 L-3,8 L-3,18 L-8,18 L-8,11 L-5,11 L-4,4 Z " fill="#170606" transform="translate(8,172)"/>
<path d="M0,0 L13,0 L9,2 L5,5 L5,10 L0,10 Z " fill="#17272B" transform="translate(63,203)"/>
<path d="M0,0 L9,0 L7,5 L5,10 L1,9 Z " fill="#17292D" transform="translate(116,184)"/>
<path d="M0,0 L4,0 L4,9 L3,12 L-3,12 L-3,9 L0,9 Z " fill="#F5BD5B" transform="translate(155,104)"/>
<path d="M0,0 L13,0 L13,4 L0,4 Z " fill="#8A5507" transform="translate(108,95)"/>
<path d="M0,0 L9,0 L11,1 L11,3 L7,5 L3,5 L3,8 L-1,8 L-1,4 L2,3 L3,1 Z " fill="#160606" transform="translate(122,166)"/>
<path d="M0,0 L7,0 L8,3 L4,6 L-13,5 L-13,4 L0,4 Z " fill="#152126" transform="translate(68,180)"/>
<path d="M0,0 L9,0 L9,5 L0,5 Z " fill="#182C2E" transform="translate(192,184)"/>
<path d="M0,0 L5,0 L4,10 L1,10 L0,14 Z " fill="#DB9B3E" transform="translate(108,99)"/>
<path d="M0,0 L8,0 L8,5 L-3,5 Z " fill="#0F1216" transform="translate(80,217)"/>
<path d="M0,0 L10,0 L11,2 L10,4 L-1,4 Z " fill="#3E0F0F" transform="translate(65,138)"/>
<path d="M0,0 L4,1 L1,3 L1,5 L-1,6 L-7,6 L-7,14 L-8,14 L-8,5 L-4,5 L-4,1 Z " fill="#421010" transform="translate(33,147)"/>
<path d="M0,0 L15,0 L15,5 L8,4 L11,3 L11,1 L0,1 Z " fill="#160605" transform="translate(68,161)"/>
<path d="M0,0 L1,0 L1,19 L-4,18 L-3,14 L0,14 Z " fill="#28241B" transform="translate(150,104)"/>
<path d="M0,0 L7,0 L7,4 L-2,4 Z " fill="#440F0F" transform="translate(48,143)"/>
<path d="M0,0 L6,1 L6,5 L-2,5 L-2,1 Z " fill="#370D0C" transform="translate(78,142)"/>
<path d="M0,0 L11,0 L11,4 L3,3 L3,1 L0,2 Z " fill="#070303" transform="translate(60,143)"/>
<path d="M0,0 L9,0 L9,5 L5,5 L4,1 L0,3 Z " fill="#131D21" transform="translate(71,212)"/>
<path d="M0,0 L5,0 L1,1 L0,10 L-4,10 L-4,5 L0,5 Z " fill="#1B0706" transform="translate(21,170)"/>
<path d="M0,0 L1,0 L1,13 L-2,13 L-2,5 L0,5 Z " fill="#845105" transform="translate(162,100)"/>
<path d="M0,0 L8,0 L8,4 L-3,4 L-3,3 L3,2 Z " fill="#3B0E0D" transform="translate(55,152)"/>
<path d="M0,0 L13,0 L9,2 L4,4 L4,1 L1,1 L0,5 Z " fill="#11161A" transform="translate(63,203)"/>
<path d="M0,0 L7,0 L7,4 L1,4 Z " fill="#080304" transform="translate(109,166)"/>
<path d="M0,0 L5,1 L5,5 L2,6 L-1,5 Z " fill="#330C0C" transform="translate(95,151)"/>
<path d="M0,0 L3,0 L3,9 L0,9 Z " fill="#FCCE6E" transform="translate(117,100)"/>
<path d="M0,0 L5,0 L5,5 L0,5 Z " fill="#1C3B3C" transform="translate(116,184)"/>
<path d="M0,0 L3,0 L3,9 L0,8 Z " fill="#784504" transform="translate(105,100)"/>
<path d="M0,0 L4,1 L4,14 L3,14 L3,4 L0,4 Z " fill="#22150A" transform="translate(126,100)"/>
<path d="M0,0 L5,1 L5,5 L0,5 Z " fill="#182D2D" transform="translate(205,184)"/>
<path d="M0,0 L4,0 L4,5 L-4,5 L0,4 Z " fill="#B08133" transform="translate(125,109)"/>
<path d="M0,0 L1,0 L1,12 L-3,13 L-3,9 L0,9 Z " fill="#F4B654" transform="translate(112,100)"/>
<path d="M0,0 L4,0 L4,5 L-4,5 L0,4 Z " fill="#432908" transform="translate(159,95)"/>
<path d="M0,0 L2,2 L0,3 L-17,2 L-17,1 Z " fill="#12191C" transform="translate(72,183)"/>
<path d="M0,0 L4,0 L4,4 L-3,5 Z " fill="#141F23" transform="translate(80,217)"/>
<path d="M0,0 L4,0 L4,5 L0,5 Z " fill="#152325" transform="translate(184,184)"/>
<path d="M0,0 L7,0 L3,1 L3,5 L-1,4 Z " fill="#1C0707" transform="translate(26,147)"/>
<path d="M0,0 L7,1 L5,2 L5,4 L0,4 Z " fill="#080304" transform="translate(72,147)"/>
<path d="M0,0 L4,0 L4,5 L0,5 Z " fill="#250908" transform="translate(55,128)"/>
<path d="M0,0 L4,0 L4,5 L0,5 Z " fill="#F3E089" transform="translate(155,104)"/>
<path d="M0,0 L4,0 L4,5 L0,5 Z " fill="#744606" transform="translate(121,99)"/>
<path d="M0,0 L2,0 L2,5 L-2,5 L-2,1 Z " fill="#1B3737" transform="translate(199,184)"/>
<path d="M0,0 L4,0 L4,5 L0,5 Z " fill="#150605" transform="translate(9,166)"/>
<path d="M0,0 L3,1 L3,5 L-1,5 Z " fill="#180605" transform="translate(34,142)"/>
<path d="M0,0 L4,0 L4,4 L-1,4 Z " fill="#1A2F34" transform="translate(147,123)"/>
<path d="M0,0 L4,0 L4,4 L1,5 Z " fill="#FCCC6F" transform="translate(113,100)"/>
<path d="M0,0 L4,1 L2,5 L0,9 Z " fill="#12191E" transform="translate(121,184)"/>
<path d="M0,0 L4,0 L4,4 L0,4 Z " fill="#1A3235" transform="translate(64,180)"/>
<path d="M0,0 L4,0 L4,4 L0,4 Z " fill="#471112" transform="translate(22,166)"/>
<path d="M0,0 L4,0 L4,4 L0,4 Z " fill="#330B0B" transform="translate(51,143)"/>
<path d="M0,0 L4,0 L4,4 L0,4 Z " fill="#764907" transform="translate(125,114)"/>
<path d="M0,0 L4,0 L4,4 L0,4 Z " fill="#EFBE5E" transform="translate(121,114)"/>
<path d="M0,0 L4,0 L4,4 L0,4 Z " fill="#261606" transform="translate(121,109)"/>
<path d="M0,0 L4,1 L3,5 L0,5 Z " fill="#D89F42" transform="translate(151,104)"/>
<path d="M0,0 L4,0 L4,4 L0,4 Z " fill="#C2892D" transform="translate(155,100)"/>
<path d="M0,0 L4,0 L4,4 L0,4 Z " fill="#10151C" transform="translate(151,39)"/>
<path d="M0,0 L4,0 L4,4 L0,3 Z " fill="#FAE58A" transform="translate(117,114)"/>
<path d="M0,0 L3,0 L3,4 L-1,3 Z " fill="#350D0C" transform="translate(101,157)"/>
<path d="M0,0 L3,0 L3,4 L0,4 Z " fill="#152327" transform="translate(64,204)"/>
<path d="M0,0 L3,0 L3,4 L0,4 Z " fill="#210807" transform="translate(26,166)"/>
<path d="M0,0 L3,0 L3,4 L0,4 Z " fill="#2A0A08" transform="translate(68,148)"/>
<path d="M0,0 L3,0 L3,4 L0,4 Z " fill="#E1A644" transform="translate(126,109)"/>
<path d="M0,0 L3,0 L3,4 L0,4 Z " fill="#FFFBB6" transform="translate(117,100)"/>
<path d="M0,0 L3,0 L3,3 L0,3 Z " fill="#1E4340" transform="translate(206,185)"/>
<path d="M0,0 L3,0 L3,3 L0,3 Z " fill="#070204" transform="translate(160,114)"/>
<path d="M0,0 L3,0 L3,3 L0,3 Z " fill="#F5BB58" transform="translate(152,113)"/>
<path d="M0,0 L3,0 L3,3 L0,3 Z " fill="#FFF8A5" transform="translate(155,105)"/>
<path d="M0,0 L3,1 L3,3 L0,4 Z " fill="#633902" transform="translate(125,105)"/>
</svg>
