<?xml version="1.0" encoding="UTF-8"?>
<!-- Generator: visioncortex VTracer 0.6.5 -->
<svg version="1.1" xmlns="http://www.w3.org/2000/svg" width="150" height="84">
<path d="M0,0 L150,0 L150,84 L0,84 Z " fill="#432F2A" transform="translate(0,0)"/>
<path d="M0,0 L23,0 L23,2 L19,2 L19,7 L14,7 L14,12 L6,14 L5,20 L4,24 L9,23 L7,29 L11,28 L11,26 L16,25 L16,23 L21,23 L20,28 L18,28 L22,38 L21,45 L19,45 L17,35 L17,31 L13,33 L10,33 L10,35 L7,36 L8,41 L8,44 L12,45 L12,43 L14,43 L14,46 L16,46 L16,49 L18,49 L21,56 L22,57 L23,54 L28,56 L28,58 L30,57 L29,53 L30,51 L33,53 L33,55 L36,55 L31,50 L28,47 L34,48 L33,41 L36,41 L36,38 L31,39 L26,35 L26,32 L32,33 L31,29 L32,27 L35,26 L42,26 L42,28 L46,26 L53,26 L52,29 L61,30 L63,32 L66,33 L65,30 L72,30 L76,30 L77,32 L82,30 L86,31 L86,35 L82,33 L83,37 L81,38 L81,35 L76,34 L76,36 L73,35 L65,36 L58,37 L58,40 L56,41 L55,44 L53,45 L53,49 L51,49 L51,51 L56,50 L57,47 L60,48 L62,46 L62,49 L64,48 L70,48 L70,46 L72,46 L74,50 L76,50 L77,46 L79,46 L79,44 L77,44 L77,42 L84,43 L85,40 L92,38 L92,36 L88,35 L93,30 L91,30 L91,25 L84,21 L86,24 L90,26 L87,27 L75,24 L76,20 L83,20 L83,17 L76,15 L75,13 L80,12 L86,14 L86,16 L92,17 L95,20 L100,22 L102,29 L99,28 L100,35 L97,40 L95,40 L95,42 L93,42 L93,46 L84,47 L80,50 L78,50 L79,52 L81,52 L82,49 L87,48 L85,54 L77,54 L77,58 L74,59 L67,59 L64,58 L64,60 L73,63 L73,65 L69,66 L71,67 L71,69 L75,69 L75,71 L82,71 L78,74 L75,75 L74,77 L76,78 L71,78 L71,75 L73,75 L74,71 L64,72 L66,70 L63,69 L64,73 L70,73 L70,75 L68,75 L67,77 L65,77 L67,79 L53,79 L54,76 L49,76 L51,78 L52,81 L68,81 L80,79 L82,78 L90,78 L95,79 L95,77 L99,77 L99,75 L95,74 L101,74 L100,69 L98,69 L98,71 L90,75 L88,75 L89,71 L90,69 L102,66 L106,64 L105,70 L103,70 L104,75 L100,79 L100,84 L0,84 Z " fill="#58423E" transform="translate(0,0)"/>
<path d="M0,0 L19,0 L19,5 L32,2 L34,2 L34,4 L31,5 L31,7 L36,7 L37,5 L37,7 L43,7 L45,6 L45,10 L53,9 L62,11 L62,13 L54,13 L53,14 L58,15 L58,17 L60,17 L60,20 L53,21 L52,24 L62,25 L63,25 L61,21 L66,23 L69,25 L68,30 L70,30 L69,33 L66,35 L69,36 L69,38 L62,41 L61,43 L54,42 L54,44 L56,44 L56,46 L54,46 L53,50 L50,51 L49,46 L47,46 L47,48 L39,49 L37,51 L36,48 L34,47 L33,51 L28,51 L28,49 L30,49 L30,45 L28,44 L32,44 L33,40 L35,40 L34,36 L42,35 L51,34 L51,36 L53,36 L53,34 L58,35 L59,35 L59,33 L63,34 L64,32 L59,31 L53,33 L53,30 L51,30 L50,32 L49,31 L43,31 L43,33 L36,32 L33,30 L27,30 L29,27 L23,27 L19,28 L19,26 L9,27 L9,33 L3,32 L3,35 L6,36 L6,38 L13,38 L13,41 L10,41 L12,48 L9,49 L8,49 L13,53 L13,55 L10,55 L10,53 L7,53 L8,58 L5,58 L5,56 L0,54 L-1,58 L-5,53 L-5,49 L-7,49 L-7,46 L-9,46 L-9,43 L-11,43 L-11,45 L-15,44 L-16,39 L-15,37 L-17,36 L-13,35 L-13,33 L-6,31 L-4,39 L-4,45 L-2,45 L-2,37 L-5,31 L-5,28 L-3,27 L-2,23 L-7,23 L-7,25 L-12,26 L-12,28 L-15,29 L-17,31 L-16,25 L-16,24 L-19,24 L-18,14 L-12,12 L-9,12 L-9,7 L-4,7 L-4,2 L0,2 Z " fill="#422F29" transform="translate(23,0)"/>
<path d="M0,0 L8,1 L9,4 L15,5 L18,8 L23,10 L25,17 L22,16 L23,23 L20,28 L18,28 L18,30 L16,30 L16,34 L7,35 L3,38 L1,38 L2,40 L4,40 L5,37 L10,36 L8,42 L0,42 L0,46 L-3,47 L-10,47 L-13,46 L-13,48 L-4,51 L-4,53 L-8,54 L-6,55 L-6,57 L-2,57 L-2,59 L5,59 L1,62 L-2,63 L-3,65 L-1,66 L-6,66 L-6,63 L-4,63 L-3,59 L-13,60 L-11,58 L-14,57 L-13,61 L-7,61 L-7,63 L-9,63 L-10,65 L-12,65 L-10,67 L-24,67 L-23,64 L-28,64 L-26,66 L-25,69 L-9,69 L3,67 L5,66 L13,66 L18,67 L18,65 L22,65 L22,63 L18,62 L24,62 L23,57 L21,57 L21,59 L13,63 L11,63 L12,59 L13,57 L25,54 L29,52 L28,58 L26,58 L27,63 L23,67 L23,72 L-45,72 L-54,71 L-56,67 L-61,65 L-61,63 L-54,63 L-54,59 L-52,59 L-53,54 L-39,56 L-37,57 L-24,58 L-24,56 L-26,55 L-26,53 L-30,53 L-30,51 L-34,52 L-32,46 L-30,50 L-25,49 L-25,47 L-23,47 L-23,45 L-18,44 L-17,47 L-15,46 L-15,42 L-10,42 L-10,39 L-3,38 L-1,38 L0,34 L2,34 L2,32 L0,32 L0,30 L7,31 L8,28 L15,26 L15,24 L11,23 L16,18 L14,18 L14,13 L7,9 L9,12 L13,14 L10,15 L-2,12 L-1,8 L6,8 L6,5 L-1,3 L-2,1 Z " fill="#87716D" transform="translate(77,12)"/>
<path d="M0,0 L11,1 L10,6 L0,13 L-6,15 L-5,21 L-8,24 L-10,24 L-10,26 L-7,24 L2,22 L8,18 L10,18 L9,22 L12,22 L12,20 L14,19 L11,18 L11,16 L18,12 L11,14 L9,15 L8,13 L5,14 L7,15 L7,17 L3,18 L-1,18 L-3,18 L-3,16 L-1,16 L-1,14 L8,9 L11,8 L10,12 L18,9 L21,10 L21,12 L23,12 L22,23 L23,18 L24,15 L24,10 L30,10 L33,8 L33,31 L-17,31 L-18,26 L-15,25 L-14,17 L-12,17 L-12,12 L-15,14 L-27,16 L-29,22 L-22,18 L-19,18 L-19,16 L-17,16 L-16,21 L-18,22 L-18,24 L-22,24 L-22,26 L-35,26 L-42,28 L-54,29 L-65,29 L-69,23 L-65,22 L-63,23 L-63,25 L-53,25 L-52,23 L-47,22 L-47,20 L-53,21 L-54,16 L-50,17 L-51,18 L-43,18 L-44,22 L-46,22 L-46,25 L-43,24 L-42,21 L-37,19 L-42,18 L-42,16 L-46,16 L-46,14 L-49,13 L-49,12 L-44,12 L-44,10 L-53,7 L-53,5 L-43,5 L-37,4 L-36,2 L-36,4 L-32,3 L-30,5 L-35,5 L-35,7 L-32,7 L-32,9 L-34,9 L-34,11 L-40,12 L-41,14 L-33,11 L-24,7 L-22,8 L-21,10 L-13,9 L-6,7 L-4,4 L-2,4 Z " fill="#302017" transform="translate(117,53)"/>
<path d="M0,0 L19,0 L19,5 L32,2 L34,2 L34,4 L31,5 L31,7 L36,7 L37,5 L37,7 L43,7 L45,6 L45,10 L53,9 L62,11 L62,13 L54,13 L53,14 L58,15 L58,17 L60,17 L60,20 L51,19 L50,13 L39,13 L35,11 L35,9 L19,11 L22,8 L28,8 L28,6 L16,9 L15,10 L4,11 L4,9 L-1,10 L-3,15 L-1,15 L2,15 L1,19 L6,20 L3,28 L2,31 L2,42 L5,40 L4,36 L6,36 L6,38 L13,38 L13,41 L10,41 L12,48 L9,49 L8,49 L13,53 L13,55 L10,55 L10,53 L7,53 L8,58 L5,58 L5,56 L0,54 L-1,58 L-5,53 L-5,49 L-7,49 L-7,46 L-9,46 L-9,43 L-11,43 L-11,45 L-15,44 L-16,39 L-15,37 L-17,36 L-13,35 L-13,33 L-6,31 L-4,39 L-4,45 L-2,45 L-2,37 L-5,31 L-5,28 L-3,27 L-2,23 L-7,23 L-7,25 L-12,26 L-12,28 L-15,29 L-17,31 L-16,25 L-16,24 L-19,24 L-18,14 L-12,12 L-9,12 L-9,7 L-4,7 L-4,2 L0,2 Z " fill="#20130D" transform="translate(23,0)"/>
<path d="M0,0 L33,0 L33,52 L29,54 L28,58 L25,57 L25,55 L21,55 L20,47 L21,45 L18,45 L18,47 L15,47 L15,44 L17,44 L18,42 L20,43 L20,39 L22,38 L23,35 L27,35 L26,30 L24,30 L22,21 L12,17 L9,15 L8,17 L6,16 L9,26 L10,28 L4,26 L5,29 L7,29 L7,33 L12,32 L12,41 L8,39 L6,38 L6,36 L4,36 L4,34 L2,34 L-2,23 L-4,17 L-7,13 L-7,11 L-2,13 L1,15 L0,11 L2,11 L2,13 L5,12 L5,10 L1,9 L0,7 L2,7 Z " fill="#090608" transform="translate(117,0)"/>
<path d="M0,0 L23,0 L23,2 L19,2 L19,7 L14,7 L14,12 L6,14 L5,20 L4,24 L9,23 L7,29 L11,28 L11,26 L16,25 L16,23 L21,23 L20,28 L18,28 L22,38 L21,45 L19,45 L17,35 L17,31 L13,33 L10,33 L10,35 L7,36 L8,41 L8,44 L12,45 L12,43 L14,43 L14,46 L16,46 L16,49 L18,49 L21,56 L22,57 L23,54 L28,56 L28,58 L30,57 L29,53 L30,51 L33,53 L33,55 L36,55 L36,57 L41,58 L43,61 L41,64 L36,66 L29,66 L27,63 L29,63 L25,59 L25,61 L20,60 L20,58 L18,58 L15,55 L16,60 L18,60 L19,64 L10,63 L6,63 L6,61 L0,60 Z " fill="#5C5947" transform="translate(0,0)"/>
<path d="M0,0 L4,2 L9,5 L15,7 L18,14 L17,17 L19,17 L20,22 L16,22 L15,26 L13,26 L13,30 L8,31 L8,34 L11,34 L11,32 L14,32 L14,42 L18,42 L21,45 L22,40 L26,39 L26,48 L23,51 L17,50 L18,60 L17,63 L15,63 L16,52 L14,52 L14,50 L8,51 L3,52 L4,48 L-5,54 L-8,54 L-8,56 L-10,56 L-10,58 L-5,56 L0,57 L0,55 L-3,54 L1,52 L3,54 L9,51 L12,52 L6,56 L4,56 L4,58 L8,59 L5,60 L5,62 L2,62 L3,58 L-5,63 L-14,65 L-17,66 L-17,64 L-13,61 L-13,55 L1,47 L4,42 L3,33 L4,29 L6,28 L4,25 L5,19 L0,20 L0,16 L-2,16 L-4,12 L0,13 L1,13 L-1,7 L-1,3 L1,2 Z " fill="#5C4B41" transform="translate(124,13)"/>
<path d="M0,0 L75,0 L77,3 L76,8 L80,10 L81,13 L77,13 L77,11 L75,11 L76,15 L71,13 L68,11 L73,18 L73,20 L70,19 L66,15 L61,14 L62,12 L53,9 L47,7 L47,9 L47,12 L34,10 L26,10 L25,7 L21,8 L12,7 L12,5 L10,4 L15,4 L15,2 L3,5 L0,5 Z " fill="#423127" transform="translate(42,0)"/>
<path d="M0,0 L3,1 L3,3 L5,3 L5,5 L9,5 L10,3 L14,6 L14,10 L26,10 L30,13 L30,11 L28,10 L30,10 L30,8 L32,8 L32,10 L36,10 L36,12 L39,13 L38,16 L25,15 L9,11 L10,16 L8,16 L8,20 L4,21 L1,20 L1,22 L6,23 L8,27 L17,28 L17,29 L-15,29 L-15,5 L-9,6 L-9,8 L-7,8 L-6,6 L-2,8 L3,8 L3,5 L1,5 Z " fill="#452C30" transform="translate(15,55)"/>
<path d="M0,0 L2,0 L1,4 L9,1 L12,2 L12,4 L14,4 L13,15 L14,10 L15,7 L15,2 L21,2 L24,0 L24,23 L-16,23 L-17,19 L-16,16 L-7,14 L-1,10 L1,10 L0,14 L3,14 L3,12 L5,11 L2,10 L2,8 L9,4 L2,6 L0,7 L-1,5 L-4,6 L-2,7 L-2,9 L-6,10 L-10,10 L-12,10 L-12,8 L-10,8 L-10,6 L-1,1 Z " fill="#8B6C61" transform="translate(126,61)"/>
<path d="M0,0 L1,4 L0,6 L-2,6 L-1,11 L-5,15 L-5,20 L-73,20 L-82,19 L-84,15 L-89,13 L-89,11 L-78,10 L-77,11 L-70,12 L-66,14 L-66,12 L-56,12 L-54,14 L-53,17 L-37,17 L-25,15 L-23,14 L-15,14 L-10,15 L-10,13 L-6,13 L-6,11 L-10,10 L-4,10 L-5,5 L-7,5 L-7,7 L-15,11 L-17,11 L-16,7 L-15,5 L-3,2 Z " fill="#766775" transform="translate(105,64)"/>
<path d="M0,0 L3,1 L3,3 L-1,4 L1,5 L1,7 L5,7 L5,9 L12,9 L8,12 L5,13 L4,15 L6,16 L1,16 L1,13 L3,13 L4,9 L-6,10 L-4,8 L-7,7 L-6,11 L0,11 L0,13 L-2,13 L-3,15 L-5,15 L-3,17 L-17,17 L-16,14 L-31,14 L-31,16 L-42,14 L-47,12 L-47,9 L-45,9 L-46,4 L-32,6 L-30,7 L-17,8 L-16,1 L0,2 Z " fill="#5D4E48" transform="translate(70,62)"/>
<path d="M0,0 L3,1 L3,8 L5,8 L6,5 L7,9 L5,10 L3,9 L3,13 L5,13 L5,16 L8,13 L9,10 L14,12 L17,15 L18,13 L16,13 L14,1 L18,2 L18,9 L17,11 L20,11 L21,9 L22,14 L21,22 L9,29 L7,32 L3,30 L2,26 L7,25 L7,23 L3,23 L3,21 L5,21 L2,14 L2,18 L-5,23 L-12,25 L-13,21 L-17,21 L-18,25 L-21,24 L-21,22 L-15,18 L-7,17 L-6,13 L-4,14 L-4,12 L-2,12 L0,7 Z " fill="#170C07" transform="translate(99,28)"/>
<path d="M0,0 L1,2 L5,1 L7,3 L2,3 L2,5 L5,6 L-3,5 L-7,13 L-4,13 L-4,15 L6,14 L6,17 L8,17 L8,20 L15,16 L18,16 L18,14 L20,14 L21,19 L19,20 L19,22 L15,22 L15,24 L2,24 L-5,26 L-17,27 L-28,27 L-32,21 L-28,20 L-26,21 L-26,23 L-16,23 L-15,21 L-10,20 L-10,18 L-16,19 L-17,14 L-13,15 L-14,16 L-6,16 L-7,20 L-9,20 L-9,23 L-6,22 L-5,19 L0,17 L-5,16 L-5,14 L-9,14 L-9,12 L-12,11 L-12,10 L-7,10 L-7,8 L-16,5 L-16,3 L-6,3 L0,2 Z " fill="#3A312B" transform="translate(80,55)"/>
<path d="M0,0 L4,4 L4,8 L2,8 L2,10 L6,10 L6,12 L2,13 L3,17 L6,19 L8,15 L18,9 L20,9 L20,12 L16,14 L15,16 L13,16 L11,20 L4,22 L-5,23 L-7,20 L-16,24 L-21,26 L-24,26 L-23,23 L-19,22 L-17,23 L-17,21 L-15,21 L-15,19 L-18,19 L-18,17 L-17,16 L-23,16 L-23,13 L-15,12 L-6,9 L0,4 Z " fill="#72645C" transform="translate(100,41)"/>
<path d="M0,0 L5,2 L9,4 L9,1 L11,1 L15,8 L16,5 L21,7 L21,9 L23,8 L22,4 L23,2 L26,4 L26,6 L29,6 L29,8 L34,9 L36,12 L34,15 L29,17 L22,17 L20,14 L22,14 L18,10 L18,12 L13,11 L13,9 L11,9 L8,6 L9,11 L11,11 L12,15 L3,14 L-1,14 L-1,12 L-7,11 L-7,2 L-2,1 L-1,8 L1,8 L1,10 L3,9 Z " fill="#AA9A8B" transform="translate(7,49)"/>
<path d="M0,0 L1,4 L3,5 L3,7 L3,10 L6,10 L6,12 L4,12 L3,16 L0,17 L-1,12 L-3,12 L-3,14 L-11,15 L-13,17 L-14,14 L-16,13 L-17,17 L-22,17 L-22,15 L-20,15 L-20,11 L-22,10 L-18,10 L-17,6 L-15,6 L-16,2 L-8,1 Z " fill="#363135" transform="translate(73,34)"/>
<path d="M0,0 L12,0 L14,1 L15,7 L20,7 L17,9 L16,13 L21,14 L21,17 L7,17 L8,12 L5,13 L-3,13 L-8,11 L-8,9 L0,7 L6,7 L6,5 L-5,5 L-5,7 L-16,9 L-15,6 L-6,4 L0,2 L2,3 L2,1 Z " fill="#3D2A27" transform="translate(59,12)"/>
<path d="M0,0 L34,0 L43,1 L46,3 L46,5 L44,5 L44,7 L40,6 L40,4 L37,4 L38,8 L33,9 L26,10 L25,7 L21,8 L12,7 L12,5 L10,4 L15,4 L15,2 L3,5 L0,5 Z " fill="#261615" transform="translate(42,0)"/>
<path d="M0,0 L6,2 L16,6 L20,9 L27,15 L27,22 L23,21 L19,21 L17,17 L17,14 L15,14 L13,12 L9,13 L7,13 L6,15 L3,13 L3,11 L-3,11 L-5,9 L-3,5 L0,6 L0,3 L-2,2 Z " fill="#52433A" transform="translate(89,6)"/>
<path d="M0,0 L7,0 L6,3 L15,4 L17,6 L20,7 L19,4 L26,4 L30,4 L31,6 L36,4 L40,5 L40,9 L36,7 L37,11 L35,12 L35,9 L30,8 L30,10 L27,9 L19,10 L12,11 L12,14 L10,15 L9,18 L0,19 L0,17 L5,16 L6,12 L2,12 L2,9 L3,8 L-2,8 L-1,6 L3,6 L3,4 L1,3 L2,1 Z " fill="#64514B" transform="translate(46,26)"/>
<path d="M0,0 L3,1 L3,3 L5,3 L5,5 L9,5 L10,3 L14,6 L14,10 L26,10 L30,13 L30,11 L28,10 L30,10 L30,8 L32,8 L32,10 L36,10 L36,12 L39,13 L38,16 L25,15 L9,11 L10,16 L8,16 L8,19 L6,19 L6,17 L-3,15 L-6,13 L-5,10 L-3,11 L-3,9 L-5,8 L3,8 L3,5 L1,5 Z " fill="#23160F" transform="translate(15,55)"/>
<path d="M0,0 L5,1 L5,4 L3,4 L4,8 L7,7 L8,5 L10,5 L10,9 L7,10 L8,15 L8,18 L12,19 L12,17 L14,17 L14,20 L16,20 L16,23 L18,24 L16,24 L16,27 L10,25 L7,23 L11,32 L8,33 L8,31 L6,31 L5,24 L0,25 Z " fill="#937974" transform="translate(0,26)"/>
<path d="M0,0 L1,0 L1,23 L-17,23 L-16,18 L-14,18 L-14,16 L-11,16 L-10,14 L-8,10 L-8,2 L-2,2 Z " fill="#0B0506" transform="translate(149,61)"/>
<path d="M0,0 L2,0 L1,9 L4,10 L2,18 L6,19 L2,22 L-2,22 L-1,18 L-10,24 L-13,24 L-13,26 L-15,26 L-15,28 L-10,26 L-5,27 L-5,25 L-8,24 L-4,22 L-2,24 L4,21 L7,22 L1,26 L-1,26 L-1,28 L3,29 L0,30 L0,32 L-3,32 L-2,28 L-10,33 L-19,35 L-22,36 L-22,34 L-18,31 L-18,25 L-4,17 L-1,12 L-2,3 L0,3 Z " fill="#907D77" transform="translate(129,43)"/>
<path d="M0,0 L4,2 L9,5 L15,7 L18,14 L17,17 L19,17 L20,22 L16,22 L16,25 L13,25 L11,18 L8,17 L2,14 L-1,7 L-1,3 L1,2 Z " fill="#7C8083" transform="translate(124,13)"/>
<path d="M0,0 L6,0 L6,2 L-2,4 L12,4 L12,6 L6,8 L1,8 L1,6 L-1,6 L-1,8 L-5,8 L-5,10 L-13,12 L-21,12 L-22,9 L-24,11 L-26,7 L-23,3 L-18,3 L-18,5 L-16,4 L-7,3 Z " fill="#726255" transform="translate(45,6)"/>
<path d="M0,0 L8,0 L6,3 L8,3 L8,8 L5,9 L-2,9 L-5,8 L-5,10 L1,12 L1,14 L-8,14 L-15,13 L-16,17 L-18,17 L-18,15 L-22,15 L-22,13 L-26,14 L-24,8 L-22,12 L-17,11 L-17,9 L-15,9 L-15,7 L-10,6 L-9,9 L-7,8 L-7,4 L-2,4 L-2,1 Z " fill="#69544E" transform="translate(69,50)"/>
<path d="M0,0 L7,0 L7,2 L11,1 L10,5 L4,7 L2,3 L0,5 L-1,8 L1,8 L4,11 L9,12 L6,13 L7,17 L3,17 L4,23 L3,24 L5,25 L5,27 L7,27 L6,30 L1,29 L-4,24 L-7,21 L-1,22 L-2,15 L1,15 L1,12 L-4,13 L-9,9 L-9,6 L-3,7 L-4,3 L-3,1 Z " fill="#746457" transform="translate(35,26)"/>
<path d="M0,0 L2,0 L4,8 L4,14 L6,14 L7,10 L7,12 L9,12 L9,23 L7,27 L3,22 L3,18 L1,18 L1,15 L-1,15 L-1,12 L-3,12 L-3,14 L-7,13 L-8,8 L-7,6 L-9,5 L-5,4 L-5,2 Z " fill="#1B0D09" transform="translate(15,31)"/>
<path d="M0,0 L3,1 L3,8 L5,8 L6,5 L7,9 L5,10 L3,9 L3,13 L5,13 L5,16 L9,15 L9,18 L7,18 L6,21 L4,17 L2,14 L2,18 L-5,23 L-12,25 L-13,21 L-17,21 L-18,25 L-21,24 L-21,22 L-15,18 L-7,17 L-6,13 L-4,14 L-4,12 L-2,12 L0,7 Z " fill="#483233" transform="translate(99,28)"/>
<path d="M0,0 L12,1 L14,2 L14,4 L18,4 L18,6 L25,6 L21,9 L18,10 L17,12 L19,13 L14,13 L14,10 L16,10 L17,6 L7,7 L9,5 L6,4 L7,8 L13,8 L13,10 L11,10 L10,12 L8,12 L10,14 L-4,14 L-3,10 L3,8 L0,3 Z " fill="#6A6057" transform="translate(57,65)"/>
<path d="M0,0 L5,2 L8,4 L8,7 L12,4 L17,17 L11,15 L12,18 L14,18 L14,22 L19,21 L19,30 L15,28 L13,27 L13,25 L11,25 L11,23 L9,23 L5,12 L3,6 L0,2 Z " fill="#241410" transform="translate(110,11)"/>
<path d="M0,0 L4,1 L2,3 L3,5 L2,10 L-7,12 L-11,15 L-13,15 L-13,17 L-16,18 L-23,18 L-24,14 L-23,11 L-14,9 L-8,5 L-6,5 L-7,9 L-4,9 L-4,7 L-2,6 L-5,5 L-5,3 Z " fill="#252E33" transform="translate(133,66)"/>
<path d="M0,0 L2,0 L2,2 L6,3 L16,9 L25,12 L32,13 L32,14 L0,14 Z " fill="#0B0E24" transform="translate(0,70)"/>
<path d="M0,0 L3,1 L1,2 L2,6 L0,6 L0,12 L-5,13 L-6,16 L0,16 L2,12 L3,10 L5,10 L5,18 L1,20 L0,24 L-3,23 L-3,21 L-7,21 L-8,13 L-7,11 L-10,11 L-10,13 L-13,13 L-13,10 L-11,10 L-10,8 L-8,8 L-3,3 L0,2 Z " fill="#0B0403" transform="translate(145,34)"/>
<path d="M0,0 L3,0 L2,3 L8,4 L8,33 L6,33 L4,37 L3,39 L-3,39 L-2,35 L1,34 L3,35 L3,29 L5,29 L4,25 L6,25 L4,18 L4,13 L5,12 L3,11 L3,8 L1,8 L1,6 L-1,6 L-1,4 L-3,4 L-3,2 L0,2 Z " fill="#558988" transform="translate(142,11)"/>
<path d="M0,0 L15,3 L18,8 L27,13 L30,17 L30,19 L27,18 L23,14 L18,13 L19,11 L10,8 L4,6 L4,8 L4,11 L-9,9 L-9,6 L-5,7 L-6,3 L-3,3 L-3,5 L1,6 L1,4 L3,4 L3,2 L0,1 Z " fill="#9E8D7E" transform="translate(85,1)"/>
<path d="M0,0 L4,1 L8,3 L6,3 L6,5 L0,6 L-1,8 L7,5 L16,1 L18,2 L19,4 L23,5 L20,9 L13,10 L12,13 L9,13 L9,10 L-1,11 L-1,9 L-4,9 L-2,2 Z " fill="#2C2122" transform="translate(77,59)"/>
<path d="M0,0 L4,2 L4,4 L7,4 L7,6 L12,7 L14,10 L12,13 L7,15 L0,15 L-2,12 L0,12 L-4,8 L-4,10 L-9,9 L-9,7 L-11,6 L-8,5 L-7,6 L-6,3 L-1,5 L-1,7 L1,6 L0,2 Z " fill="#85756B" transform="translate(29,51)"/>
<path d="M0,0 L8,1 L9,4 L15,5 L18,8 L23,10 L25,17 L21,17 L21,15 L19,14 L20,12 L18,12 L15,9 L9,10 L7,9 L9,12 L13,14 L10,15 L-2,12 L-1,8 L6,8 L6,5 L-1,3 L-2,1 Z " fill="#716256" transform="translate(77,12)"/>
<path d="M0,0 L11,1 L10,6 L0,13 L-6,14 L-6,12 L-8,12 L-7,8 L-4,4 L-2,4 Z " fill="#110904" transform="translate(117,53)"/>
<path d="M0,0 L2,0 L6,4 L9,4 L10,15 L13,14 L11,18 L8,16 L8,14 L3,12 L2,17 L-1,18 L-1,15 L-3,15 L-3,11 L0,11 L0,8 L-1,10 L-3,10 L-3,3 L-1,3 Z " fill="#4F3C36" transform="translate(105,26)"/>
<path d="M0,0 L1,4 L9,3 L18,5 L18,7 L10,7 L9,8 L14,9 L14,11 L16,11 L16,14 L7,13 L6,7 L-5,7 L-9,5 L-9,3 L-25,5 L-22,2 L-6,2 L-5,4 L-2,5 L-1,1 Z " fill="#301F14" transform="translate(67,6)"/>
<path d="M0,0 L4,2 L2,6 L4,8 L-1,10 L-4,18 L-7,19 L-9,21 L-8,15 L-8,14 L-11,14 L-10,4 Z " fill="#050202" transform="translate(15,10)"/>
<path d="M0,0 L10,0 L10,7 L8,7 L8,10 L4,11 L4,9 L-1,10 L-4,13 L-9,11 L-9,7 L-4,7 L-4,2 L0,2 Z " fill="#080403" transform="translate(23,0)"/>
<path d="M0,0 L5,0 L7,4 L14,6 L12,7 L11,10 L7,9 L-2,13 L-7,15 L-10,15 L-9,12 L-5,11 L-3,12 L-3,10 L-1,10 L-1,8 L-4,8 L-4,6 L-3,5 L-9,5 L-9,2 L-1,1 Z " fill="#614F41" transform="translate(86,52)"/>
<path d="M0,0 L2,2 L2,5 L8,4 L9,0 L11,0 L12,5 L8,6 L13,6 L13,8 L11,8 L11,11 L15,11 L14,15 L7,17 L6,12 L-1,9 L-1,7 L-3,7 L-2,2 Z " fill="#544335" transform="translate(37,27)"/>
<path d="M0,0 L4,1 L3,2 L11,2 L10,6 L8,6 L8,9 L15,9 L12,12 L0,13 L-11,13 L-15,7 L-11,6 L-9,7 L-9,9 L1,9 L2,7 L7,6 L7,4 L1,5 Z " fill="#322823" transform="translate(63,69)"/>
<path d="M0,0 L2,0 L2,9 L-1,12 L-7,11 L-6,21 L-7,24 L-9,24 L-8,13 L-10,13 L-10,11 L-13,11 L-14,7 L-11,7 L-10,4 L-8,5 L-8,3 L-6,3 L-3,6 L-2,1 Z " fill="#281D22" transform="translate(148,52)"/>
<path d="M0,0 L9,0 L14,3 L14,5 L7,6 L6,10 L4,10 L2,12 L1,9 L-1,8 L-2,12 L-7,12 L-7,10 L-5,10 L-5,6 L-7,5 L-3,5 L-2,1 Z " fill="#251C1D" transform="translate(58,39)"/>
<path d="M0,0 L12,0 L8,2 L6,4 L6,7 L13,7 L15,9 L6,10 L6,16 L0,15 L0,18 L2,19 L1,22 L3,23 L-1,25 L-2,12 L0,10 L2,4 L0,4 L0,2 L-2,1 Z " fill="#4D3B34" transform="translate(26,17)"/>
<path d="M0,0 L3,1 L3,3 L5,3 L6,9 L9,10 L10,16 L8,16 L8,19 L6,19 L6,17 L-3,15 L-6,13 L-5,10 L-3,11 L-3,9 L-5,8 L3,8 L3,5 L1,5 Z " fill="#160807" transform="translate(15,55)"/>
<path d="M0,0 L9,0 L17,7 L17,14 L13,13 L9,13 L7,9 L7,6 L5,6 L3,4 L0,4 L-2,1 Z " fill="#A49085" transform="translate(99,14)"/>
<path d="M0,0 L4,2 L4,0 L7,1 L6,5 L11,6 L9,13 L7,12 L7,8 L5,9 L4,17 L1,20 L0,14 L2,13 L3,9 L-2,9 L-2,11 L-6,12 L-5,6 L-2,4 L0,4 L-2,2 Z " fill="#261916" transform="translate(18,14)"/>
<path d="M0,0 L4,1 L4,8 L3,10 L6,10 L7,8 L8,13 L7,21 L2,23 L-5,22 L-5,19 L-3,19 L-3,17 L0,17 L0,14 L4,13 L2,12 Z " fill="#271611" transform="translate(113,29)"/>
<path d="M0,0 L1,3 L2,7 L0,7 L3,12 L10,15 L10,18 L14,19 L13,21 L6,17 L10,26 L7,27 L7,25 L5,25 L4,18 L-1,19 L-1,1 Z " fill="#231A11" transform="translate(1,32)"/>
<path d="M0,0 L6,0 L6,2 L8,3 L9,6 L3,7 L-2,9 L-8,10 L-9,12 L-2,11 L-6,12 L-7,15 L-11,14 L-12,9 L-14,7 L-12,7 L-12,5 L-8,5 L-8,3 L-6,3 L-6,5 L5,3 L5,1 L0,1 Z " fill="#332119" transform="translate(52,9)"/>
<path d="M0,0 L1,4 L0,6 L-2,6 L-1,11 L-5,15 L-10,16 L-10,13 L-6,13 L-6,11 L-10,10 L-4,10 L-5,5 L-7,5 L-7,7 L-15,11 L-17,11 L-16,7 L-15,5 L-3,2 Z " fill="#7B6861" transform="translate(105,64)"/>
<path d="M0,0 L1,2 L5,1 L7,3 L2,3 L2,5 L5,6 L-3,5 L-7,13 L-4,13 L-4,15 L6,14 L6,17 L-5,16 L-5,14 L-9,14 L-9,12 L-12,11 L-12,10 L-7,10 L-7,8 L-16,5 L-16,3 L-6,3 L0,2 Z " fill="#4D3E30" transform="translate(80,55)"/>
<path d="M0,0 L9,0 L8,5 L17,4 L22,5 L22,2 L17,1 L21,0 L29,2 L28,6 L18,9 L18,6 L16,6 L15,8 L14,7 L4,7 L3,4 L4,1 Z " fill="#5F4D4C" transform="translate(58,24)"/>
<path d="M0,0 L17,0 L17,10 L13,10 L12,8 L9,7 L8,5 L1,3 Z " fill="#BDC4CD" transform="translate(133,0)"/>
<path d="M0,0 L7,0 L6,3 L11,5 L12,9 L7,9 L8,17 L3,19 L0,19 L0,17 L5,16 L6,12 L2,12 L2,9 L3,8 L-2,8 L-1,6 L3,6 L3,4 L1,3 L2,1 Z " fill="#93807A" transform="translate(46,26)"/>
<path d="M0,0 L3,1 L-3,5 L-5,5 L-5,7 L-1,8 L-4,9 L-4,11 L-7,11 L-6,7 L-14,12 L-23,14 L-26,15 L-26,13 L-21,11 L-17,11 L-17,9 L-13,8 L-12,6 L-9,6 L-9,4 L-12,3 L-8,1 L-6,3 Z " fill="#9B8B93" transform="translate(133,64)"/>
<path d="M0,0 L8,0 L17,1 L18,6 L-5,6 L-1,3 L5,3 L5,1 L0,1 Z " fill="#715A56" transform="translate(82,78)"/>
<path d="M0,0 L4,1 L13,4 L16,8 L17,13 L19,14 L17,14 L17,18 L13,19 L11,7 L8,5 L8,7 L4,8 L4,4 L2,4 Z " fill="#362D30" transform="translate(120,25)"/>
<path d="M0,0 L4,2 L13,12 L10,15 L6,14 L5,11 L0,10 L-1,3 L1,2 Z " fill="#C0BDB4" transform="translate(124,13)"/>
<path d="M0,0 L5,0 L7,3 L13,3 L13,5 L9,5 L14,6 L18,7 L10,9 L2,9 L1,6 L-1,8 L-3,4 Z " fill="#534842" transform="translate(22,9)"/>
<path d="M0,0 L1,4 L4,5 L-3,8 L-6,9 L-5,11 L-3,11 L-2,8 L3,7 L1,13 L-11,13 L-8,9 L-7,5 L-5,5 L-5,3 L-7,3 L-7,1 L0,2 Z " fill="#736657" transform="translate(84,41)"/>
<path d="M0,0 L2,0 L4,4 L6,4 L7,0 L7,2 L9,2 L9,13 L7,17 L3,12 L3,8 L1,8 Z " fill="#352727" transform="translate(15,41)"/>
<path d="M0,0 L1,2 L0,4 L-2,4 L-3,9 L-18,9 L-15,8 L-15,6 L-9,2 Z " fill="#C4B0A3" transform="translate(135,75)"/>
<path d="M0,0 L6,0 L8,1 L21,3 L20,6 L18,6 L18,4 L16,4 L16,6 L-3,6 L-3,4 L3,3 Z " fill="#98867F" transform="translate(32,68)"/>
<path d="M0,0 L5,1 L6,4 L8,4 L10,9 L11,13 L6,11 L6,17 L4,17 L4,10 L2,10 L2,5 L-2,1 Z " fill="#7A6A57" transform="translate(89,20)"/>
<path d="M0,0 L4,1 L2,3 L3,5 L2,10 L-8,11 L-15,14 L-18,14 L-18,12 L-12,10 L-8,9 L-8,5 L-6,5 L-7,9 L-4,9 L-4,7 L-2,6 L-5,5 L-5,3 Z " fill="#4E5857" transform="translate(133,66)"/>
<path d="M0,0 L3,0 L3,15 L1,15 L-1,19 L-2,21 L-8,21 L-7,17 L-4,16 L-2,17 L-2,11 L0,11 L-1,7 L1,7 Z " fill="#6E5C5D" transform="translate(147,29)"/>
<path d="M0,0 L7,0 L7,2 L0,4 L-3,5 L-22,5 L-28,4 L-28,3 L-5,1 Z " fill="#A99F99" transform="translate(80,79)"/>
<path d="M0,0 L6,0 L5,4 L10,3 L11,0 L14,1 L15,7 L4,7 L-3,5 L-3,1 Z " fill="#97837D" transform="translate(46,47)"/>
<path d="M0,0 L5,1 L5,3 L0,3 L0,5 L7,6 L13,7 L13,9 L19,9 L19,10 L9,10 L0,9 L-2,5 L-7,3 L-7,1 Z " fill="#9797A0" transform="translate(23,74)"/>
<path d="M0,0 L4,1 L4,5 L7,6 L9,10 L8,14 L8,17 L6,16 L5,18 L1,18 L0,11 L2,11 L2,13 L5,12 L5,10 L1,9 L0,7 L2,7 Z " fill="#1D0B14" transform="translate(117,0)"/>
<path d="M0,0 L2,0 L2,2 L9,2 L9,5 L6,5 L8,12 L5,13 L-1,11 L-2,6 L1,4 Z " fill="#27140C" transform="translate(27,36)"/>
<path d="M0,0 L22,0 L26,1 L26,3 L23,3 L23,5 L21,5 L21,2 L0,5 Z " fill="#A69296" transform="translate(42,0)"/>
<path d="M0,0 L4,4 L4,8 L2,8 L2,10 L6,10 L6,12 L0,14 L-5,14 L-6,9 L0,4 Z " fill="#8F7A79" transform="translate(100,41)"/>
<path d="M0,0 L9,1 L11,2 L11,4 L15,4 L15,6 L22,6 L18,9 L15,10 L14,12 L16,13 L11,13 L11,10 L13,10 L14,6 L4,7 L8,5 L8,3 L-2,2 Z " fill="#7E7362" transform="translate(60,65)"/>
<path d="M0,0 L5,0 L5,2 L7,2 L7,6 L12,5 L12,14 L8,12 L6,11 L6,9 L4,9 L4,7 L2,7 Z " fill="#140E0C" transform="translate(117,27)"/>
<path d="M0,0 L14,0 L15,3 L21,2 L26,4 L26,7 L12,7 L13,2 L10,3 L2,3 L0,2 Z " fill="#806B6D" transform="translate(54,22)"/>
<path d="M0,0 L7,0 L11,0 L12,2 L17,0 L21,1 L21,5 L17,3 L18,7 L16,8 L16,5 L11,4 L11,6 L9,6 L9,4 L4,4 L4,2 Z " fill="#7E6A64" transform="translate(65,30)"/>
<path d="M0,0 L2,0 L1,9 L4,10 L2,18 L6,19 L2,22 L-2,22 L-1,19 L1,19 L1,17 L-2,17 L-1,10 L-2,3 L0,3 Z " fill="#C0AFA9" transform="translate(129,43)"/>
<path d="M0,0 L6,0 L7,2 L4,2 L4,11 L5,15 L-2,15 L-4,14 L-3,9 L-1,9 L1,3 Z " fill="#23171D" transform="translate(124,40)"/>
<path d="M0,0 L2,0 L4,4 L5,6 L10,5 L12,6 L12,10 L5,9 L2,9 L2,11 L-3,9 L-4,3 L1,4 Z " fill="#59473A" transform="translate(41,39)"/>
<path d="M0,0 L5,0 L8,5 L17,10 L20,14 L20,16 L17,15 L13,11 L8,10 L9,8 L1,6 Z " fill="#BFADA0" transform="translate(95,4)"/>
<path d="M0,0 L9,1 L9,3 L12,6 L5,6 L8,10 L3,9 L-1,8 L-1,5 L1,5 Z " fill="#6A5754" transform="translate(24,66)"/>
<path d="M0,0 L4,0 L4,3 L9,5 L9,12 L5,14 L3,11 L3,8 L-1,3 Z " fill="#070202" transform="translate(121,0)"/>
<path d="M0,0 L2,0 L2,5 L-7,8 L-8,4 L-12,4 L-13,8 L-16,7 L-16,5 L-10,1 L-4,1 L-1,2 Z " fill="#463429" transform="translate(94,45)"/>
<path d="M0,0 L8,1 L8,7 L12,7 L12,9 L5,8 L2,6 L-4,6 L-2,3 L-7,2 L-7,1 Z " fill="#453129" transform="translate(54,24)"/>
<path d="M0,0 L2,0 L3,5 L1,6 L1,8 L-3,8 L-3,10 L-10,9 L-10,7 L-8,7 L-8,5 L-3,2 L0,2 Z " fill="#492425" transform="translate(98,69)"/>
<path d="M0,0 L6,1 L6,3 L19,4 L20,7 L4,7 L0,1 Z " fill="#19141D" transform="translate(48,75)"/>
<path d="M0,0 L6,0 L6,3 L11,2 L13,4 L12,8 L10,5 L6,6 L-3,5 L-3,3 L-5,2 L0,2 Z " fill="#695254" transform="translate(57,2)"/>
<path d="M0,0 L1,3 L4,3 L4,0 L7,1 L5,1 L5,3 L8,2 L8,8 L-2,8 L-3,3 L0,2 Z " fill="#462324" transform="translate(102,76)"/>
<path d="M0,0 L8,0 L6,3 L8,4 L5,6 L2,6 L2,8 L-5,7 L-4,4 L-2,4 L-2,1 Z " fill="#A19185" transform="translate(69,50)"/>
<path d="M0,0 L10,1 L11,4 L13,4 L13,6 L9,5 L9,3 L-3,3 L-3,5 L-14,7 L-13,4 L-4,2 Z " fill="#7C6865" transform="translate(57,14)"/>
<path d="M0,0 L11,0 L13,3 L13,7 L7,6 L0,1 Z " fill="#604E5A" transform="translate(106,0)"/>
<path d="M0,0 L2,1 L3,3 L7,4 L4,8 L-3,9 L-4,11 L-5,8 L-2,5 L-3,1 Z " fill="#362B2B" transform="translate(93,60)"/>
<path d="M0,0 L1,3 L5,4 L5,2 L7,2 L7,5 L9,5 L9,8 L11,9 L9,9 L8,12 L7,10 L4,9 L4,6 L-3,4 L-3,1 Z " fill="#726154" transform="translate(7,41)"/>
<path d="M0,0 L3,1 L2,2 L4,4 L-1,6 L-4,14 L-7,15 L-9,17 L-8,11 L-5,7 L-3,7 L-4,3 L-1,3 Z " fill="#251214" transform="translate(15,14)"/>
<path d="M0,0 L2,1 L2,3 L6,4 L6,6 L10,6 L10,11 L3,11 L5,7 L0,6 L-1,2 Z " fill="#302B31" transform="translate(140,4)"/>
<path d="M0,0 L2,2 L0,2 L1,8 L-4,9 L-5,12 L-7,8 L-10,8 L-9,4 L-8,6 L-5,6 L-5,4 L-3,4 L-3,1 Z " fill="#978377" transform="translate(10,5)"/>
<path d="M0,0 L5,0 L6,6 L5,11 L0,10 Z " fill="#A18E9B" transform="translate(0,0)"/>
<path d="M0,0 L5,0 L4,5 L-3,10 L-7,8 L-7,6 L-3,7 L-3,4 L-1,4 Z " fill="#191012" transform="translate(123,54)"/>
<path d="M0,0 L1,3 L3,2 L9,2 L9,0 L11,0 L11,4 L6,5 L6,8 L3,9 L0,8 L-1,5 Z " fill="#574539" transform="translate(61,46)"/>
<path d="M0,0 L5,1 L5,3 L8,4 L11,8 L21,13 L22,15 L16,13 L6,7 L2,5 L2,3 L0,3 Z " fill="#786D75" transform="translate(0,67)"/>
<path d="M0,0 L13,2 L14,5 L5,5 L-2,3 L-2,1 Z " fill="#968275" transform="translate(56,59)"/>
<path d="M0,0 L6,2 L16,6 L14,7 L14,9 L8,9 L6,5 L-2,3 Z " fill="#322119" transform="translate(89,6)"/>
<path d="M0,0 L10,1 L8,2 L8,4 L1,8 L-6,9 L-5,6 L-1,5 L1,6 L1,4 L3,4 L3,2 L0,2 Z " fill="#5E5251" transform="translate(82,58)"/>
<path d="M0,0 L2,0 L3,7 L5,7 L5,9 L-3,9 L-3,1 Z " fill="#AC979A" transform="translate(3,50)"/>
<path d="M0,0 L9,0 L14,3 L14,5 L2,4 L-2,3 L-2,1 Z " fill="#030511" transform="translate(58,39)"/>
<path d="M0,0 L4,2 L6,3 L6,5 L11,4 L15,6 L16,9 L12,9 L12,7 L10,7 L11,11 L7,9 L6,7 L3,6 L2,3 L0,2 Z " fill="#B99FB2" transform="translate(107,4)"/>
<path d="M0,0 L2,0 L2,6 L0,7 L-1,5 L-4,6 L-2,7 L-2,9 L-6,10 L-10,10 L-12,10 L-12,8 L-10,8 L-10,6 L-1,1 Z " fill="#352325" transform="translate(126,61)"/>
<path d="M0,0 L7,0 L9,3 L7,6 L1,8 L1,5 L-2,4 L2,3 L-1,1 Z " fill="#B2A598" transform="translate(34,58)"/>
<path d="M0,0 L7,1 L10,5 L11,10 L8,10 L1,3 Z " fill="#453632" transform="translate(131,18)"/>
<path d="M0,0 L8,0 L8,3 L14,2 L14,4 L7,6 L0,5 L4,3 L6,4 L6,2 L-2,3 Z " fill="#A29082" transform="translate(29,10)"/>
<path d="M0,0 L6,0 L12,3 L13,5 L0,5 Z " fill="#7F8FA3" transform="translate(0,79)"/>
<path d="M0,0 L1,4 L-2,5 L2,15 L1,22 L-1,22 L-4,8 L-3,4 L-1,4 Z " fill="#746658" transform="translate(20,23)"/>
<path d="M0,0 L7,0 L7,2 L11,1 L10,5 L4,7 L2,3 L-1,4 L-3,3 L-3,1 Z " fill="#655348" transform="translate(35,26)"/>
<path d="M0,0 L5,2 L8,4 L7,9 L9,9 L9,11 L1,11 L2,6 L5,5 L0,2 Z " fill="#5D4C3B" transform="translate(84,21)"/>
<path d="M0,0 L7,1 L9,0 L12,2 L9,2 L10,6 L1,7 L2,2 L-1,1 Z " fill="#4A3734" transform="translate(70,2)"/>
<path d="M0,0 L3,1 L7,3 L9,4 L9,2 L15,0 L15,4 L12,5 L5,5 L2,4 L2,6 L-7,6 L-7,4 L0,4 Z " fill="#88756A" transform="translate(62,54)"/>
<path d="M0,0 L5,1 L5,5 L3,5 L3,8 L-1,7 L-2,9 L-3,4 Z " fill="#090404" transform="translate(117,53)"/>
<path d="M0,0 L4,2 L5,14 L3,16 L3,13 L1,13 L0,16 L0,12 L2,11 L0,8 Z " fill="#594F4E" transform="translate(128,30)"/>
<path d="M0,0 L11,0 L11,2 L-3,4 L-3,7 L-8,6 L-8,4 L-4,4 L-4,2 L0,2 Z " fill="#231111" transform="translate(54,17)"/>
<path d="M0,0 L2,0 L2,6 L4,6 L4,9 L0,10 L-4,8 L-3,2 Z " fill="#1B1D1E" transform="translate(138,4)"/>
<path d="M0,0 L2,0 L2,6 L4,6 L2,10 L-2,10 L-2,13 L-5,13 L-5,9 L-1,8 Z " fill="#150A09" transform="translate(108,66)"/>
<path d="M0,0 L5,0 L2,3 L5,4 L5,6 L2,8 L-2,8 L-2,5 L-4,5 L-5,1 L-1,2 Z " fill="#655346" transform="translate(87,32)"/>
<path d="M0,0 L8,0 L12,5 L5,7 L2,4 L0,3 Z " fill="#070B12" transform="translate(125,0)"/>
<path d="M0,0 L8,1 L9,12 L12,11 L10,15 L7,13 L7,11 L5,11 L6,8 L7,9 L7,6 L5,6 L5,3 L0,1 Z " fill="#97827E" transform="translate(106,29)"/>
<path d="M0,0 L10,1 L12,3 L11,6 L4,7 L2,5 L5,5 L5,2 L0,1 Z " fill="#746351" transform="translate(75,24)"/>
<path d="M0,0 L3,1 L1,1 L1,5 L4,5 L3,7 L-1,6 L-1,9 L1,10 L0,13 L2,14 L-2,16 L-3,3 Z " fill="#594745" transform="translate(27,26)"/>
<path d="M0,0 L10,0 L10,2 L6,2 L6,6 L0,6 Z " fill="#AFAAAF" transform="translate(13,0)"/>
<path d="M0,0 L6,1 L8,5 L14,5 L14,6 L6,6 L-1,5 Z " fill="#565063" transform="translate(44,78)"/>
<path d="M0,0 L3,0 L3,2 L5,3 L1,4 L1,6 L-9,7 L-8,4 L-1,1 Z " fill="#1E1417" transform="translate(87,62)"/>
<path d="M0,0 L2,0 L2,9 L-1,12 L-3,12 L-2,8 L-3,2 Z " fill="#726868" transform="translate(148,52)"/>
<path d="M0,0 L3,0 L2,7 L1,3 L-1,4 L0,10 L-3,11 L-3,8 L-5,7 L-5,1 L0,2 Z " fill="#482925" transform="translate(135,45)"/>
<path d="M0,0 L2,2 L2,5 L6,6 L6,8 L4,8 L4,10 L-1,9 L-1,7 L-3,7 L-2,2 Z " fill="#2E2315" transform="translate(37,27)"/>
<path d="M0,0 L3,0 L6,5 L3,11 L0,10 Z " fill="#A7A0B6" transform="translate(0,13)"/>
<path d="M0,0 L9,0 L16,1 L15,3 L8,3 L8,5 L4,4 L-1,2 Z " fill="#291E1D" transform="translate(31,73)"/>
<path d="M0,0 L8,0 L7,2 L5,1 L5,3 L-3,7 L-5,7 L-4,3 L-3,1 Z " fill="#8C777E" transform="translate(93,68)"/>
<path d="M0,0 L6,4 L7,9 L3,9 L3,12 L0,12 L-1,8 L2,7 L0,3 Z " fill="#737174" transform="translate(137,26)"/>
<path d="M0,0 L4,1 L4,7 L2,6 L0,10 L-5,6 L-5,3 L1,4 Z " fill="#A7978D" transform="translate(31,29)"/>
<path d="M0,0 L7,1 L10,4 L14,6 L11,7 L-1,4 Z " fill="#A28F7F" transform="translate(76,20)"/>
<path d="M0,0 L3,0 L2,3 L8,4 L8,7 L1,8 L1,6 L-1,6 L-1,4 L-3,4 L-3,2 L0,2 Z " fill="#5F7D84" transform="translate(142,11)"/>
<path d="M0,0 L16,0 L17,2 L22,3 L22,4 L15,4 L13,3 L13,1 L-3,3 Z " fill="#120A07" transform="translate(45,8)"/>
<path d="M0,0 L2,0 L2,2 L-1,3 L-1,5 L4,5 L5,3 L5,5 L10,6 L10,9 L6,8 L6,6 L-4,6 L-4,4 L-6,3 L-4,3 L-4,1 Z " fill="#44302C" transform="translate(55,2)"/>
<path d="M0,0 L2,0 L2,2 L12,5 L14,6 L14,8 L6,8 L0,3 Z " fill="#B9A295" transform="translate(7,66)"/>
<path d="M0,0 L3,1 L2,5 L0,5 L1,8 L4,9 L2,10 L2,12 L-2,11 L-3,6 L-2,4 L-4,3 L0,2 Z " fill="#341D1F" transform="translate(10,33)"/>
<path d="M0,0 L4,1 L1,3 L-1,7 L-6,7 L-7,3 Z " fill="#231107" transform="translate(38,17)"/>
<path d="M0,0 L4,1 L14,7 L10,9 L10,7 L4,5 L-2,3 L-2,1 Z " fill="#483942" transform="translate(103,0)"/>
<path d="M0,0 L7,1 L8,5 L5,6 L3,4 L-1,4 L-1,6 L-3,6 L-4,2 L0,3 Z " fill="#351E1E" transform="translate(55,53)"/>
<path d="M0,0 L7,4 L8,7 L5,7 L5,5 L2,5 L3,10 L0,10 L-3,4 L-1,4 Z " fill="#3E2E2B" transform="translate(28,48)"/>
<path d="M0,0 L4,0 L4,6 L-4,6 L-4,2 L0,2 Z " fill="#5B5B62" transform="translate(23,0)"/>
<path d="M0,0 L7,0 L12,3 L11,5 L5,3 L-1,4 L-5,3 L-5,1 Z " fill="#71808D" transform="translate(28,76)"/>
<path d="M0,0 L4,1 L2,3 L2,6 L1,9 L-2,9 L-2,6 L-5,5 L-5,3 Z " fill="#3E3F2F" transform="translate(133,66)"/>
<path d="M0,0 L3,1 L3,3 L5,3 L6,9 L9,10 L8,13 L3,10 L3,5 L1,5 Z " fill="#2E1E11" transform="translate(15,55)"/>
<path d="M0,0 L2,0 L5,5 L2,10 L-1,11 L-1,3 Z " fill="#7B675F" transform="translate(121,39)"/>
<path d="M0,0 L1,3 L-3,4 L-15,4 L-16,2 L-8,1 Z " fill="#281E20" transform="translate(73,34)"/>
<path d="M0,0 L7,0 L6,3 L7,5 L4,9 L3,8 L-2,8 L-1,6 L3,6 L3,4 L1,3 L2,1 Z " fill="#756159" transform="translate(46,26)"/>
<path d="M0,0 L2,1 L2,3 L4,4 L4,6 L9,8 L6,12 L4,12 L2,9 L2,5 L-2,4 L-2,2 L0,2 Z " fill="#25120D" transform="translate(98,17)"/>
<path d="M0,0 L12,2 L14,9 L11,9 L11,6 L9,6 L8,4 L2,3 L2,1 Z " fill="#594542" transform="translate(59,12)"/>
<path d="M0,0 L8,0 L8,6 L3,6 L3,3 L0,3 Z " fill="#3A3D4E" transform="translate(142,0)"/>
<path d="M0,0 L14,1 L14,3 L-4,3 Z " fill="#9C7C76" transform="translate(81,81)"/>
<path d="M0,0 L4,4 L4,8 L2,8 L2,11 L-1,11 L-1,8 L-3,7 L0,4 Z " fill="#7F696C" transform="translate(100,41)"/>
<path d="M0,0 L4,2 L7,6 L6,10 L2,6 L0,10 L-1,3 L1,2 Z " fill="#938B7B" transform="translate(124,13)"/>
<path d="M0,0 L6,0 L8,2 L8,5 L1,5 L-2,2 L0,2 Z " fill="#584943" transform="translate(89,10)"/>
<path d="M0,0 L7,0 L7,4 L-5,4 L-2,3 L-2,1 Z " fill="#D5CABE" transform="translate(122,80)"/>
<path d="M0,0 L0,3 L3,4 L3,6 L0,7 L-7,7 L-6,3 Z " fill="#8E8589" transform="translate(60,72)"/>
<path d="M0,0 L2,0 L2,3 L-2,5 L-3,7 L-5,7 L-6,10 L-7,8 L-10,6 Z " fill="#64594E" transform="translate(118,50)"/>
<path d="M0,0 L2,1 L3,5 L-1,8 L-3,8 L-2,4 L-4,4 L-5,7 L-9,6 L-6,4 L-6,2 L0,3 Z " fill="#1D0A0B" transform="translate(98,41)"/>
<path d="M0,0 L4,1 L3,4 L1,5 L-1,9 L-3,8 L-3,5 L-5,5 L-5,3 L0,2 Z " fill="#AC988E" transform="translate(16,23)"/>
<path d="M0,0 L1,4 L7,3 L6,7 L-5,7 L-2,5 L-1,1 Z " fill="#2C1813" transform="translate(67,6)"/>
<path d="M0,0 L4,2 L3,4 L-1,4 L-1,6 L-5,7 L-6,2 Z " fill="#655050" transform="translate(117,69)"/>
<path d="M0,0 L9,3 L7,4 L6,7 L-1,6 L-2,2 Z " fill="#5A4C45" transform="translate(91,55)"/>
<path d="M0,0 L9,3 L12,4 L12,6 L14,6 L13,9 L8,8 L3,3 Z " fill="#8B776C" transform="translate(28,47)"/>
<path d="M0,0 L4,1 L4,8 L3,10 L6,10 L6,14 L4,13 L2,12 Z " fill="#432F25" transform="translate(113,29)"/>
<path d="M0,0 L3,1 L3,8 L5,8 L6,5 L7,9 L5,10 L2,9 L1,12 L0,7 Z " fill="#1E0F0F" transform="translate(99,28)"/>
<path d="M0,0 L7,0 L11,2 L7,3 L4,2 L4,4 L9,5 L10,7 L3,5 L-2,2 Z " fill="#413335" transform="translate(12,73)"/>
<path d="M0,0 L4,1 L3,2 L11,2 L10,6 L5,8 L5,6 L7,6 L7,4 L1,5 Z " fill="#4C412F" transform="translate(63,69)"/>
<path d="M0,0 L5,2 L5,6 L2,6 L0,7 L-3,6 L-3,4 L-5,3 L-2,2 L-1,3 Z " fill="#55443C" transform="translate(23,54)"/>
<path d="M0,0 L4,1 L2,1 L1,7 L-2,8 L-2,5 L-4,5 L-4,1 Z " fill="#69554F" transform="translate(106,36)"/>
<path d="M0,0 L4,1 L6,4 L6,7 L1,5 L1,11 L-1,11 L-1,5 Z " fill="#99867B" transform="translate(94,26)"/>
<path d="M0,0 L9,2 L9,4 L14,5 L12,7 L9,5 L9,7 L5,5 L0,2 Z " fill="#523536" transform="translate(101,6)"/>
<path d="M0,0 L9,1 L11,6 L10,7 L4,7 L8,5 L8,3 L-2,2 Z " fill="#AE9F90" transform="translate(60,65)"/>
<path d="M0,0 L5,1 L6,3 L11,4 L11,6 L6,8 L5,4 L2,4 L2,2 L-1,1 Z " fill="#3B261B" transform="translate(38,49)"/>
<path d="M0,0 L4,0 L4,2 L6,2 L6,4 L9,5 L6,7 L6,5 L4,5 L3,7 L2,5 L-1,5 Z " fill="#5E4B3F" transform="translate(117,34)"/>
<path d="M0,0 L5,0 L1,2 L0,4 L7,3 L3,4 L2,7 L-2,6 L-3,1 Z " fill="#4A3730" transform="translate(43,17)"/>
<path d="M0,0 L2,0 L2,2 L8,1 L9,6 L6,5 L5,7 L1,7 Z " fill="#382B20" transform="translate(117,11)"/>
<path d="M0,0 L7,1 L10,6 L12,7 L12,9 L8,8 L5,5 L5,3 L0,2 Z " fill="#231311" transform="translate(0,65)"/>
<path d="M0,0 L5,0 L3,1 L3,6 L1,3 L-2,5 L-9,5 L-6,3 L-4,3 L-4,1 Z " fill="#3A2F22" transform="translate(104,62)"/>
<path d="M0,0 L3,3 L4,13 L3,16 L1,16 L2,5 L0,5 L0,3 L-3,3 L-2,1 L0,2 Z " fill="#401E24" transform="translate(138,60)"/>
<path d="M0,0 L5,2 L3,7 L2,9 L-2,9 L-2,7 L0,7 Z " fill="#6A5750" transform="translate(95,31)"/>
<path d="M0,0 L5,0 L7,6 L1,6 Z " fill="#C4B7AF" transform="translate(95,4)"/>
<path d="M0,0 L2,0 L3,5 L-8,6 L-3,2 L0,2 Z " fill="#5B403F" transform="translate(98,69)"/>
<path d="M0,0 L2,0 L2,2 L-2,5 L-11,7 L-14,8 L-14,6 L-9,4 L-5,4 L-5,2 Z " fill="#C6BAC0" transform="translate(121,71)"/>
<path d="M0,0 L10,0 L13,1 L12,4 L10,4 L10,2 L8,2 L7,4 L7,2 L4,3 L-1,2 Z " fill="#7A6B62" transform="translate(40,70)"/>
<path d="M0,0 L4,1 L4,5 L-3,4 L-6,4 L-7,6 L-6,1 Z " fill="#685549" transform="translate(49,44)"/>
<path d="M0,0 L5,1 L8,5 L8,8 L3,6 L3,4 L1,4 Z " fill="#412F25" transform="translate(106,15)"/>
<path d="M0,0 L4,1 L2,1 L2,4 L10,4 L10,6 L7,7 L0,7 L-1,3 Z " fill="#7C7468" transform="translate(110,77)"/>
<path d="M0,0 L2,0 L1,5 L-6,7 L-6,4 L-2,4 L-2,2 L-6,1 Z " fill="#A8857E" transform="translate(101,73)"/>
<path d="M0,0 L6,0 L5,8 L0,3 Z " fill="#4A3B39" transform="translate(18,50)"/>
<path d="M0,0 L2,0 L2,8 L-1,9 L-2,7 L-5,7 L-3,6 L-1,2 Z " fill="#190E0F" transform="translate(148,44)"/>
<path d="M0,0 L1,4 L4,5 L-4,6 L-4,3 L-7,3 L-7,1 L0,2 Z " fill="#816E63" transform="translate(84,41)"/>
<path d="M0,0 L2,0 L4,8 L3,13 L2,10 L0,10 L-1,4 L1,4 Z " fill="#201711" transform="translate(15,31)"/>
<path d="M0,0 L4,1 L4,5 L0,3 L1,7 L-1,8 L-2,2 L-4,1 Z " fill="#B19D94" transform="translate(82,30)"/>
<path d="M0,0 L2,1 L2,8 L-2,7 L-6,7 L-5,4 L0,5 Z " fill="#755F58" transform="translate(114,20)"/>
<path d="M0,0 L1,0 L1,10 L-5,10 L-5,8 L-2,8 L-2,3 L0,3 Z " fill="#030405" transform="translate(149,74)"/>
<path d="M0,0 L2,0 L4,4 L4,7 L-4,5 L-4,3 L-6,2 L0,3 Z " fill="#D3C3BB" transform="translate(16,50)"/>
<path d="M0,0 L3,0 L3,13 L-1,9 L-1,7 L1,7 Z " fill="#543D3A" transform="translate(147,29)"/>
<path d="M0,0 L6,1 L7,7 L2,5 L0,3 Z " fill="#9D8E83" transform="translate(89,2)"/>
<path d="M0,0 L9,0 L11,2 L8,3 L4,2 L4,5 L2,5 Z " fill="#85768C" transform="translate(40,76)"/>
<path d="M0,0 L2,0 L2,2 L5,3 L1,3 L1,5 L3,5 L3,7 L6,7 L6,9 L0,9 Z " fill="#272235" transform="translate(0,70)"/>
<path d="M0,0 L5,1 L5,3 L15,2 L15,5 L4,4 L4,2 L0,2 Z " fill="#554944" transform="translate(71,67)"/>
<path d="M0,0 L1,4 L0,5 L-6,5 L-6,7 L-8,7 L-8,2 L-2,2 Z " fill="#1F0C0F" transform="translate(149,61)"/>
<path d="M0,0 L4,1 L8,3 L6,3 L6,5 L0,5 L-1,5 L-2,2 Z " fill="#2F211E" transform="translate(77,59)"/>
<path d="M0,0 L2,0 L2,2 L9,2 L9,5 L6,5 L5,9 L3,5 L1,4 Z " fill="#433227" transform="translate(27,36)"/>
<path d="M0,0 L3,1 L8,2 L8,3 L-8,4 L-8,2 Z " fill="#5A4543" transform="translate(59,19)"/>
<path d="M0,0 L1,0 L1,9 L-1,12 L-3,8 L-2,6 L-1,1 Z " fill="#2D1A23" transform="translate(149,65)"/>
<path d="M0,0 L4,1 L4,3 L6,3 L6,6 L3,7 L1,3 L-6,4 L-2,1 Z " fill="#6B4A4F" transform="translate(134,62)"/>
<path d="M0,0 L3,1 L11,3 L10,5 L5,4 L5,6 L1,5 Z " fill="#746459" transform="translate(57,65)"/>
<path d="M0,0 L2,4 L7,3 L7,6 L2,7 L2,5 L-2,6 Z " fill="#8A786C" transform="translate(45,58)"/>
<path d="M0,0 L4,0 L4,7 L0,5 L-1,1 Z " fill="#3B3127" transform="translate(102,53)"/>
<path d="M0,0 L5,1 L8,2 L8,5 L1,4 L-1,3 Z " fill="#8E7B6E" transform="translate(72,24)"/>
<path d="M0,0 L12,0 L8,2 L6,6 L4,6 L4,2 L1,2 L0,4 L0,2 L-2,1 Z " fill="#534336" transform="translate(26,17)"/>
<path d="M0,0 L3,1 L2,2 L4,4 L-1,6 L-3,9 L-4,3 L-1,3 Z " fill="#12080F" transform="translate(15,14)"/>
<path d="M0,0 L8,1 L9,3 L1,4 L-2,1 Z " fill="#8D7B6D" transform="translate(77,12)"/>
<path d="M0,0 L9,0 L7,1 L7,4 L2,4 Z " fill="#6C7F97" transform="translate(133,0)"/>
<path d="M0,0 L6,0 L7,5 L2,5 Z " fill="#784F50" transform="translate(93,79)"/>
<path d="M0,0 L6,1 L6,3 L12,4 L12,5 L3,6 Z " fill="#312E3E" transform="translate(48,75)"/>
<path d="M0,0 L7,2 L6,4 L4,4 L4,6 L1,6 L2,2 L-2,3 L-4,1 Z " fill="#8C979E" transform="translate(125,69)"/>
<path d="M0,0 L1,2 L5,1 L7,3 L2,3 L2,5 L5,6 L0,5 L-4,3 L0,2 Z " fill="#41352B" transform="translate(80,55)"/>
<path d="M0,0 L2,0 L2,4 L4,4 L4,7 L2,7 L2,10 L-1,9 L0,4 Z " fill="#978678" transform="translate(134,48)"/>
<path d="M0,0 L2,0 L2,10 L-1,10 L-2,3 L0,3 Z " fill="#C5B2A9" transform="translate(129,43)"/>
<path d="M0,0 L2,4 L1,11 L-4,12 L-2,8 L-2,6 L0,6 Z " fill="#140604" transform="translate(119,37)"/>
<path d="M0,0 L0,3 L-2,3 L-2,6 L1,6 L1,8 L-5,7 L-5,2 Z " fill="#A28D83" transform="translate(90,38)"/>
<path d="M0,0 L5,1 L6,4 L8,6 L2,5 L0,3 Z " fill="#6C7A86" transform="translate(125,23)"/>
<path d="M0,0 L1,2 L10,3 L10,4 L5,5 L4,8 L2,4 L-1,4 Z " fill="#524652" transform="translate(1,9)"/>
<path d="M0,0 L7,0 L7,1 L2,1 L2,6 L-1,6 L-1,4 L-3,3 Z " fill="#5A5143" transform="translate(12,6)"/>
<path d="M0,0 L6,2 L9,5 L7,5 L6,7 L5,5 L0,3 Z " fill="#251213" transform="translate(101,3)"/>
<path d="M0,0 L5,0 L8,2 L7,6 L5,6 L5,4 L2,4 L2,2 L0,2 Z " fill="#050312" transform="translate(1,73)"/>
<path d="M0,0 L8,1 L7,3 L0,4 L-2,3 L-2,1 Z " fill="#B8A39A" transform="translate(56,59)"/>
<path d="M0,0 L1,4 L-1,9 L-2,7 L-6,7 L-6,5 L-3,4 L-2,2 L0,2 Z " fill="#3E2A23" transform="translate(108,44)"/>
<path d="M0,0 L3,0 L3,9 L-1,7 L1,6 L-2,1 Z " fill="#1F1915" transform="translate(126,32)"/>
<path d="M0,0 L2,0 L2,2 L-4,3 L-4,5 L-8,6 L-8,3 L-6,3 L-6,1 Z " fill="#5D4945" transform="translate(20,20)"/>
<path d="M0,0 L3,1 L4,7 L9,7 L5,10 L4,8 L1,7 L1,3 L-2,1 Z " fill="#49362E" transform="translate(70,12)"/>
<path d="M0,0 L2,0 L2,3 L7,2 L9,4 L8,8 L5,5 L0,4 Z " fill="#503A3D" transform="translate(61,2)"/>
<path d="M0,0 L5,0 L5,2 L11,2 L11,3 L1,3 L-4,2 Z " fill="#A39FAB" transform="translate(31,81)"/>
<path d="M0,0 L9,2 L5,5 L2,5 L-1,3 Z " fill="#5B553F" transform="translate(75,74)"/>
<path d="M0,0 L7,1 L7,5 L3,4 L2,1 Z " fill="#1B100C" transform="translate(46,66)"/>
<path d="M0,0 L2,0 L2,5 L-1,6 L-3,5 L-3,1 Z " fill="#BFAFB3" transform="translate(3,50)"/>
<path d="M0,0 L1,3 L4,2 L6,9 L3,9 L3,7 L1,7 Z " fill="#473A35" transform="translate(5,50)"/>
<path d="M0,0 L3,1 L4,5 L1,4 L0,8 L-5,8 L-1,7 Z " fill="#66524C" transform="translate(56,43)"/>
<path d="M0,0 L2,0 L3,6 L0,7 L-1,9 L-1,1 Z " fill="#090201" transform="translate(23,22)"/>
<path d="M0,0 L7,1 L9,0 L12,2 L9,2 L9,4 L-1,2 Z " fill="#685451" transform="translate(70,2)"/>
<path d="M0,0 L2,0 L2,3 L-3,6 L-8,5 L-4,3 Z " fill="#3A4047" transform="translate(123,72)"/>
<path d="M0,0 L6,0 L6,2 L-3,4 L-2,1 Z " fill="#261C17" transform="translate(80,72)"/>
<path d="M0,0 L5,1 L8,3 L7,6 L3,5 L0,2 Z " fill="#715F54" transform="translate(14,66)"/>
<path d="M0,0 L1,2 L-1,6 L-5,6 L-4,1 Z " fill="#70604F" transform="translate(86,48)"/>
<path d="M0,0 L3,1 L2,3 L-2,3 L-3,7 L-6,6 L-6,4 Z " fill="#5B4A3A" transform="translate(84,46)"/>
<path d="M0,0 L9,0 L5,2 L2,4 L-2,3 L-2,1 Z " fill="#0B0B1B" transform="translate(58,39)"/>
<path d="M0,0 L1,2 L5,2 L4,6 L-1,7 Z " fill="#745E5B" transform="translate(47,36)"/>
<path d="M0,0 L6,5 L6,7 L2,7 L2,5 L0,5 Z " fill="#090402" transform="translate(121,31)"/>
<path d="M0,0 L2,0 L3,5 L-3,7 L-6,5 L-1,4 Z " fill="#4C3A2F" transform="translate(46,27)"/>
<path d="M0,0 L9,0 L7,2 L2,3 L3,5 L-1,3 L-2,1 Z " fill="#7C6A5E" transform="translate(99,14)"/>
<path d="M0,0 L6,0 L7,3 L3,3 L3,1 L1,1 L2,5 L-2,3 Z " fill="#AC9797" transform="translate(116,10)"/>
<path d="M0,0 L5,0 L5,4 L7,5 L4,5 L0,4 Z " fill="#25211E" transform="translate(14,7)"/>
<path d="M0,0 L2,0 L1,7 L3,7 L3,9 L0,10 L-1,5 Z " fill="#40302B" transform="translate(54,63)"/>
<path d="M0,0 L3,3 L3,7 L-3,5 L-6,4 L-1,2 Z " fill="#665648" transform="translate(42,61)"/>
<path d="M0,0 L6,1 L6,4 L0,4 L-2,1 Z " fill="#5F4C43" transform="translate(29,62)"/>
<path d="M0,0 L5,4 L4,8 L1,4 L-3,3 L-3,1 Z " fill="#1A0D07" transform="translate(39,54)"/>
<path d="M0,0 L2,1 L2,5 L5,4 L3,8 L0,6 L0,4 L-2,4 L-1,1 Z " fill="#69574A" transform="translate(113,36)"/>
<path d="M0,0 L4,1 L7,5 L6,8 L4,8 L4,4 L2,4 Z " fill="#AEA8A5" transform="translate(120,25)"/>
<path d="M0,0 L5,0 L2,1 L2,7 L1,5 L-2,5 L-2,1 Z " fill="#2B1C1A" transform="translate(30,26)"/>
<path d="M0,0 L6,1 L6,3 L8,3 L8,6 L4,5 L5,3 L1,4 Z " fill="#332018" transform="translate(75,14)"/>
<path d="M0,0 L1,3 L-1,7 L-4,7 L-3,1 Z " fill="#16090E" transform="translate(8,17)"/>
<path d="M0,0 L6,0 L6,2 L8,3 L9,6 L4,6 L3,3 L5,3 L5,1 L0,1 Z " fill="#4C392D" transform="translate(52,9)"/>
<path d="M0,0 L2,1 L2,3 L5,4 L4,7 L0,6 L-1,2 Z " fill="#44413C" transform="translate(140,4)"/>
<path d="M0,0 L5,1 L5,3 L7,3 L7,5 L2,4 L0,3 Z " fill="#384749" transform="translate(125,0)"/>
<path d="M0,0 L4,1 L1,1 L1,3 L4,4 L-3,5 L-2,1 Z " fill="#393425" transform="translate(114,77)"/>
<path d="M0,0 L4,0 L4,3 L2,3 L2,5 L-3,5 L-1,4 Z " fill="#495E68" transform="translate(142,79)"/>
<path d="M0,0 L11,0 L8,1 L8,4 L6,4 L6,2 L0,1 Z " fill="#765F5E" transform="translate(0,59)"/>
<path d="M0,0 L5,0 L4,4 L-2,4 Z " fill="#797060" transform="translate(107,57)"/>
<path d="M0,0 L2,2 L-6,5 L-9,5 L-9,2 L-1,1 Z " fill="#4A3A29" transform="translate(86,52)"/>
<path d="M0,0 L8,0 L5,3 L-1,3 Z " fill="#AB9D8F" transform="translate(69,50)"/>
<path d="M0,0 L2,0 L2,4 L-2,5 L-6,4 L-6,2 L0,2 Z " fill="#685A4F" transform="translate(70,46)"/>
<path d="M0,0 L4,1 L3,9 L1,9 Z " fill="#615557" transform="translate(18,36)"/>
<path d="M0,0 L1,3 L3,4 L2,7 L4,8 L0,10 Z " fill="#64544E" transform="translate(25,32)"/>
<path d="M0,0 L1,3 L2,7 L0,7 L2,11 L-1,11 L-1,1 Z " fill="#3D241D" transform="translate(1,32)"/>
<path d="M0,0 L2,2 L2,5 L2,7 L-3,7 L-2,2 Z " fill="#4D3D2F" transform="translate(37,27)"/>
<path d="M0,0 L11,0 L9,2 L-2,3 L0,2 Z " fill="#766755" transform="translate(29,15)"/>
<path d="M0,0 L6,4 L5,6 L-1,5 Z " fill="#453A2C" transform="translate(85,11)"/>
<path d="M0,0 L8,0 L9,3 L11,3 L11,5 L7,4 L7,2 L0,1 Z " fill="#9D888E" transform="translate(59,15)"/>
<path d="M0,0 L8,0 L8,3 L-2,3 Z " fill="#A6978A" transform="translate(29,10)"/>
<path d="M0,0 L5,0 L3,4 L2,6 L0,6 Z " fill="#969589" transform="translate(13,0)"/>
<path d="M0,0 L4,1 L3,3 L-8,2 L-8,1 Z " fill="#8A7876" transform="translate(60,81)"/>
<path d="M0,0 L9,0 L10,2 L2,3 Z " fill="#9EB0C7" transform="translate(21,80)"/>
<path d="M0,0 L6,2 L3,5 L-2,4 L0,3 Z " fill="#1F253D" transform="translate(14,79)"/>
<path d="M0,0 L6,0 L9,3 L2,3 L0,2 Z " fill="#493530" transform="translate(27,69)"/>
<path d="M0,0 L8,0 L7,2 L5,1 L5,3 L-1,3 Z " fill="#AA979A" transform="translate(93,68)"/>
<path d="M0,0 L6,2 L8,4 L6,4 L5,7 L4,5 L1,4 Z " fill="#A99D8C" transform="translate(10,46)"/>
<path d="M0,0 L5,1 L4,6 L0,4 Z " fill="#5A4738" transform="translate(38,44)"/>
<path d="M0,0 L3,1 L3,7 L0,7 Z " fill="#030102" transform="translate(133,32)"/>
<path d="M0,0 L4,2 L2,7 L0,7 Z " fill="#715C5B" transform="translate(102,29)"/>
<path d="M0,0 L1,2 L0,4 L-6,6 L-7,3 Z " fill="#938175" transform="translate(45,27)"/>
<path d="M0,0 L4,0 L5,4 L1,5 L1,3 L-1,2 Z " fill="#8A7163" transform="translate(9,28)"/>
<path d="M0,0 L1,4 L-1,6 L-4,5 L-2,3 L-7,2 L-7,1 Z " fill="#584536" transform="translate(54,24)"/>
<path d="M0,0 L5,1 L6,4 L2,4 L-2,2 Z " fill="#857767" transform="translate(89,20)"/>
<path d="M0,0 L7,1 L8,3 L-1,4 Z " fill="#8C786C" transform="translate(76,20)"/>
<path d="M0,0 L4,2 L4,4 L6,4 L6,7 L2,6 L2,4 L0,3 Z " fill="#38271D" transform="translate(100,16)"/>
<path d="M0,0 L7,0 L7,3 L0,4 Z " fill="#456B6D" transform="translate(143,15)"/>
<path d="M0,0 L3,0 L4,9 L1,7 Z " fill="#7C6775" transform="translate(0,0)"/>
<path d="M0,0 L4,0 L5,3 L-3,3 L-3,1 Z " fill="#160707" transform="translate(104,81)"/>
<path d="M0,0 L3,1 L1,1 L1,3 L4,2 L4,8 L2,7 L2,5 L-1,5 Z " fill="#544346" transform="translate(106,76)"/>
<path d="M0,0 L5,1 L5,3 L-3,3 L-4,1 Z " fill="#414C54" transform="translate(33,78)"/>
<path d="M0,0 L2,4 L-7,3 L-3,1 Z " fill="#7A6560" transform="translate(17,60)"/>
<path d="M0,0 L5,0 L6,2 L4,2 L4,6 L0,5 L2,5 L2,1 Z " fill="#281610" transform="translate(51,44)"/>
<path d="M0,0 L3,3 L2,8 L1,5 L-1,5 L-2,8 L-2,4 L0,3 Z " fill="#957A7A" transform="translate(130,38)"/>
<path d="M0,0 L2,1 L0,3 L1,5 L-4,4 L-6,2 Z " fill="#1B2023" transform="translate(74,38)"/>
<path d="M0,0 L3,1 L1,1 L2,7 L-2,6 L-2,2 L0,2 Z " fill="#5E4F4E" transform="translate(76,34)"/>
<path d="M0,0 L6,1 L8,3 L5,5 L5,2 L3,2 L2,4 Z " fill="#45302A" transform="translate(71,28)"/>
<path d="M0,0 L1,0 L1,5 L-2,8 L-3,2 Z " fill="#21150D" transform="translate(21,26)"/>
<path d="M0,0 L6,0 L7,5 L4,6 L3,4 L4,1 Z " fill="#563F3F" transform="translate(58,24)"/>
<path d="M0,0 L3,0 L3,4 L5,5 L3,5 L3,7 L0,7 L1,2 Z " fill="#412F2E" transform="translate(27,19)"/>
<path d="M0,0 L2,0 L3,5 L7,4 L7,6 L1,6 Z " fill="#1F0E09" transform="translate(73,13)"/>
<path d="M0,0 L2,0 L2,2 L6,3 L-3,3 L-3,5 L-5,4 L-2,1 Z " fill="#65514C" transform="translate(57,14)"/>
<path d="M0,0 L6,2 L4,3 L4,5 L-1,3 Z " fill="#2E1D16" transform="translate(99,10)"/>
<path d="M0,0 L4,0 L3,5 L0,5 Z " fill="#9A8978" transform="translate(42,0)"/>
<path d="M0,0 L7,0 L5,1 L4,5 L4,3 L0,3 Z " fill="#38251E" transform="translate(96,0)"/>
<path d="M0,0 L4,1 L2,1 L1,6 L-2,6 L-1,2 Z " fill="#8B6E6A" transform="translate(131,78)"/>
<path d="M0,0 L2,0 L2,6 L0,7 L-3,2 Z " fill="#3F2F2F" transform="translate(126,61)"/>
<path d="M0,0 L2,0 L3,3 L-1,5 L-4,3 L-4,1 L0,2 Z " fill="#221615" transform="translate(120,59)"/>
<path d="M0,0 L2,0 L2,3 L-2,5 L-4,7 L-3,2 Z " fill="#6C5F63" transform="translate(118,50)"/>
<path d="M0,0 L1,2 L4,2 L3,5 L1,5 L1,3 L-2,4 L-3,1 Z " fill="#B29F95" transform="translate(46,47)"/>
<path d="M0,0 L2,1 L3,8 L0,7 Z " fill="#060101" transform="translate(25,45)"/>
<path d="M0,0 L2,0 L3,6 L0,6 L0,3 L-2,2 Z " fill="#614A4C" transform="translate(99,46)"/>
<path d="M0,0 L6,0 L6,3 L4,3 L3,6 L1,2 Z " fill="#54413B" transform="translate(102,43)"/>
<path d="M0,0 L5,0 L5,2 L3,3 L2,6 L-2,5 L1,5 Z " fill="#7A6766" transform="translate(53,38)"/>
<path d="M0,0 L3,1 L0,4 L-2,8 L-3,6 L-2,4 L-4,3 L0,2 Z " fill="#55403C" transform="translate(10,33)"/>
<path d="M0,0 L7,1 L10,5 L5,4 L5,2 L0,1 Z " fill="#4E3D2C" transform="translate(75,24)"/>
<path d="M0,0 L1,2 L4,3 L4,5 L-4,4 L-3,2 L0,2 Z " fill="#36252C" transform="translate(65,17)"/>
<path d="M0,0 L3,0 L4,5 L0,5 Z " fill="#707A93" transform="translate(0,13)"/>
<path d="M0,0 L5,0 L5,3 L0,5 Z " fill="#0B080D" transform="translate(19,6)"/>
<path d="M0,0 L3,0 L3,2 L9,2 L9,3 L0,4 Z " fill="#6C5F55" transform="translate(46,0)"/>
<path d="M0,0 L3,0 L3,6 L0,6 Z " fill="#3E3636" transform="translate(24,0)"/>
<path d="M0,0 L6,0 L7,2 L0,3 Z " fill="#121426" transform="translate(142,0)"/>
<path d="M0,0 L3,0 L3,2 L-6,4 L-6,2 Z " fill="#727C7A" transform="translate(121,76)"/>
<path d="M0,0 L2,0 L3,3 L5,5 L0,4 L-2,3 L-2,1 Z " fill="#695F6B" transform="translate(27,71)"/>
<path d="M0,0 L5,0 L5,3 L3,3 L3,6 L1,6 L2,1 Z " fill="#251816" transform="translate(20,68)"/>
<path d="M0,0 L4,2 L3,4 L-3,3 Z " fill="#715B66" transform="translate(117,69)"/>
<path d="M0,0 L4,1 L0,4 L-4,3 Z " fill="#362227" transform="translate(133,66)"/>
<path d="M0,0 L2,1 L-2,4 L-6,4 L-5,1 Z " fill="#B19A9F" transform="translate(133,61)"/>
<path d="M0,0 L2,4 L3,8 L-2,6 L-2,4 L0,4 Z " fill="#585051" transform="translate(126,47)"/>
<path d="M0,0 L2,3 L2,5 L-4,3 L-3,1 Z " fill="#89736A" transform="translate(7,41)"/>
<path d="M0,0 L3,0 L3,4 L-1,5 L-2,2 L0,2 Z " fill="#B89C95" transform="translate(4,38)"/>
<path d="M0,0 L4,1 L3,7 L1,5 Z " fill="#0F0503" transform="translate(113,29)"/>
<path d="M0,0 L4,1 L5,5 L0,3 Z " fill="#A49590" transform="translate(26,32)"/>
<path d="M0,0 L2,0 L4,7 L0,7 Z " fill="#4F3D32" transform="translate(98,22)"/>
<path d="M0,0 L2,4 L1,7 L-5,7 L-5,5 L0,5 L0,2 L-2,1 Z " fill="#5E4C43" transform="translate(83,15)"/>
<path d="M0,0 L2,0 L2,5 L-2,5 L-3,2 Z " fill="#342416" transform="translate(34,18)"/>
<path d="M0,0 L4,0 L4,4 L0,4 L-1,1 Z " fill="#B0A99F" transform="translate(146,6)"/>
<path d="M0,0 L6,2 L5,4 L-5,2 L-5,1 Z " fill="#7A6959" transform="translate(81,8)"/>
<path d="M0,0 L5,2 L8,3 L8,5 L3,4 L0,2 Z " fill="#C9B7C7" transform="translate(110,2)"/>
<path d="M0,0 L5,1 L5,3 L2,3 L2,5 L0,5 L0,2 L-2,1 Z " fill="#78676E" transform="translate(63,0)"/>
<path d="M0,0 L2,1 L-1,7 L-3,7 L-2,2 L0,2 Z " fill="#2E1D18" transform="translate(135,77)"/>
<path d="M0,0 L5,1 L5,3 L-2,2 Z " fill="#A3AEC1" transform="translate(23,74)"/>
<path d="M0,0 L2,0 L3,5 L0,5 L0,3 L-3,2 L0,2 Z " fill="#6B524D" transform="translate(98,69)"/>
<path d="M0,0 L2,0 L1,4 L-2,5 L-3,1 Z " fill="#493D33" transform="translate(75,46)"/>
<path d="M0,0 L5,1 L2,2 L1,5 L-3,4 L0,2 Z " fill="#2C1711" transform="translate(92,43)"/>
<path d="M0,0 L2,0 L2,4 L-4,5 L-4,3 L-1,2 Z " fill="#BEADA4" transform="translate(8,31)"/>
<path d="M0,0 L2,2 L2,8 L1,6 L-1,6 Z " fill="#20140C" transform="translate(23,29)"/>
<path d="M0,0 L5,2 L5,4 L-1,4 Z " fill="#2E1E14" transform="translate(88,28)"/>
<path d="M0,0 L2,0 L5,5 L5,7 L2,6 L2,4 L0,4 Z " fill="#191715" transform="translate(135,26)"/>
<path d="M0,0 L2,2 L-1,4 L-5,3 L-5,1 Z " fill="#A4A6AF" transform="translate(135,24)"/>
<path d="M0,0 L5,1 L6,2 L6,7 L4,6 L5,4 L3,4 Z " fill="#655445" transform="translate(92,20)"/>
<path d="M0,0 L7,0 L7,2 L2,3 L0,2 Z " fill="#756158" transform="translate(54,22)"/>
<path d="M0,0 L3,0 L4,6 L1,6 L1,3 L-1,2 Z " fill="#6C5A5E" transform="translate(69,15)"/>
<path d="M0,0 L2,1 L3,5 L0,4 L-1,6 L-2,1 Z " fill="#635646" transform="translate(123,12)"/>
<path d="M0,0 L3,1 L3,3 L1,3 L1,5 L-3,3 Z " fill="#503D30" transform="translate(85,2)"/>
<path d="M0,0 L5,0 L5,3 L0,3 Z " fill="#2E393E" transform="translate(0,81)"/>
<path d="M0,0 L5,1 L5,3 L0,3 Z " fill="#322525" transform="translate(63,79)"/>
<path d="M0,0 L3,0 L2,3 L-5,3 L-2,1 Z " fill="#140A08" transform="translate(100,64)"/>
<path d="M0,0 L5,2 L4,5 L-1,2 Z " fill="#513E32" transform="translate(19,63)"/>
<path d="M0,0 L2,2 L3,6 L-1,7 L-1,4 Z " fill="#9A897A" transform="translate(14,55)"/>
<path d="M0,0 L2,0 L2,2 L5,3 L4,5 L0,5 Z " fill="#715B4E" transform="translate(34,45)"/>
<path d="M0,0 L2,0 L2,4 L4,5 L0,6 Z " fill="#4B412E" transform="translate(0,45)"/>
<path d="M0,0 L4,1 L4,5 L-1,3 Z " fill="#4A372F" transform="translate(49,44)"/>
<path d="M0,0 L6,0 L7,2 L2,4 Z " fill="#352118" transform="translate(124,40)"/>
<path d="M0,0 L2,0 L2,5 L-1,5 Z " fill="#1C0C07" transform="translate(44,38)"/>
<path d="M0,0 L4,0 L4,2 L1,4 L-2,4 L-2,2 L0,2 Z " fill="#42302C" transform="translate(88,36)"/>
<path d="M0,0 L3,0 L1,4 L-2,5 L-3,7 L-3,4 L-1,3 Z " fill="#221819" transform="translate(140,35)"/>
<path d="M0,0 L4,2 L5,5 L3,7 L3,4 L1,4 Z " fill="#77645B" transform="translate(82,33)"/>
<path d="M0,0 L1,0 L1,5 L-3,5 L-3,2 Z " fill="#A0A2A9" transform="translate(149,24)"/>
<path d="M0,0 L5,4 L4,7 L0,3 Z " fill="#B3A49B" transform="translate(137,26)"/>
<path d="M0,0 L4,1 L5,5 L1,3 Z " fill="#7D6E67" transform="translate(92,10)"/>
<path d="M0,0 L2,0 L2,2 L6,2 L6,4 L1,4 Z " fill="#201A15" transform="translate(144,8)"/>
<path d="M0,0 L5,1 L3,2 L3,4 L0,5 L0,2 Z " fill="#141B34" transform="translate(7,76)"/>
<path d="M0,0 L4,0 L4,2 L2,2 L1,4 L-2,2 Z " fill="#958676" transform="translate(66,73)"/>
<path d="M0,0 L1,4 L-3,4 L-2,1 Z " fill="#968678" transform="translate(105,64)"/>
<path d="M0,0 L1,4 L0,5 L-5,5 L-2,4 Z " fill="#0F0F18" transform="translate(149,61)"/>
<path d="M0,0 L2,1 L0,6 L-3,6 L-2,2 L0,2 Z " fill="#1E1310" transform="translate(76,62)"/>
<path d="M0,0 L3,1 L0,5 L-2,5 L-2,2 L0,2 Z " fill="#90879A" transform="translate(147,59)"/>
<path d="M0,0 L5,3 L5,5 L1,5 Z " fill="#372B27" transform="translate(24,58)"/>
<path d="M0,0 L1,4 L-3,5 L-4,2 Z " fill="#756B59" transform="translate(76,54)"/>
<path d="M0,0 L6,2 L6,4 L1,4 Z " fill="#9E8C89" transform="translate(94,51)"/>
<path d="M0,0 L5,1 L5,3 L-1,3 Z " fill="#372C27" transform="translate(65,45)"/>
<path d="M0,0 L2,0 L3,3 L1,6 L-1,2 Z " fill="#4A392B" transform="translate(111,40)"/>
<path d="M0,0 L3,0 L3,2 L5,2 L5,4 L1,4 Z " fill="#9F8B7E" transform="translate(37,39)"/>
<path d="M0,0 L4,0 L5,3 L2,4 L0,3 Z " fill="#594444" transform="translate(53,35)"/>
<path d="M0,0 L7,0 L5,3 L2,3 L2,1 Z " fill="#836F63" transform="translate(46,26)"/>
<path d="M0,0 L4,1 L3,3 L-1,3 Z " fill="#6C5550" transform="translate(109,24)"/>
<path d="M0,0 L1,0 L1,6 L-3,5 L-2,2 L0,3 Z " fill="#6B5964" transform="translate(3,21)"/>
<path d="M0,0 L5,0 L4,3 L0,3 Z " fill="#362519" transform="translate(51,13)"/>
<path d="M0,0 L3,0 L2,4 L-2,3 L-2,1 Z " fill="#1B0904" transform="translate(71,9)"/>
<path d="M0,0 L4,1 L5,5 L1,6 L1,4 L3,4 L3,2 L0,1 Z " fill="#8B796B" transform="translate(85,1)"/>
<path d="M0,0 L5,0 L6,3 L0,2 Z " fill="#26171A" transform="translate(69,0)"/>
<path d="M0,0 L3,1 L3,3 L-4,3 Z " fill="#52453E" transform="translate(81,81)"/>
<path d="M0,0 L4,1 L4,3 L-1,3 Z " fill="#B0A38F" transform="translate(123,81)"/>
<path d="M0,0 L6,0 L4,1 L4,3 L0,2 Z " fill="#3A2F32" transform="translate(35,75)"/>
<path d="M0,0 L1,0 L1,6 L-1,7 L-2,2 L0,2 Z " fill="#54423C" transform="translate(105,68)"/>
<path d="M0,0 L2,0 L2,2 L6,3 L0,4 L-2,2 L0,2 Z " fill="#402F21" transform="translate(45,63)"/>
<path d="M0,0 L3,3 L3,4 L-2,4 Z " fill="#43322C" transform="translate(91,55)"/>
<path d="M0,0 L2,0 L3,4 L0,5 L-1,2 Z " fill="#48342C" transform="translate(60,54)"/>
<path d="M0,0 L5,1 L0,5 Z " fill="#241B12" transform="translate(106,53)"/>
<path d="M0,0 L3,1 L3,3 L1,3 L0,5 L-1,1 Z " fill="#4A3D3A" transform="translate(102,53)"/>
<path d="M0,0 L2,0 L3,6 L-1,3 Z " fill="#AB8C83" transform="translate(134,48)"/>
<path d="M0,0 L2,0 L3,4 L-1,4 Z " fill="#8C7F7C" transform="translate(141,45)"/>
<path d="M0,0 L1,3 L-2,6 L-3,3 Z " fill="#1A0F0B" transform="translate(127,43)"/>
<path d="M0,0 L3,0 L2,7 L1,3 L-1,2 Z " fill="#6D5351" transform="translate(135,45)"/>
<path d="M0,0 L1,2 L3,3 L1,3 L1,5 L-2,5 L-2,2 L0,2 Z " fill="#290E0D" transform="translate(134,42)"/>
<path d="M0,0 L1,4 L-2,7 L-3,4 L0,3 Z " fill="#B5A2A2" transform="translate(123,43)"/>
<path d="M0,0 L2,0 L4,5 L2,5 L2,3 L-1,3 Z " fill="#AE988B" transform="translate(34,42)"/>
<path d="M0,0 L2,1 L4,6 L1,6 Z " fill="#3B2821" transform="translate(77,35)"/>
<path d="M0,0 L1,4 L-3,4 L-3,1 Z " fill="#B9A5A2" transform="translate(51,34)"/>
<path d="M0,0 L3,1 L3,3 L7,4 L1,5 Z " fill="#695653" transform="translate(66,31)"/>
<path d="M0,0 L1,4 L-4,3 Z " fill="#8E7C70" transform="translate(92,32)"/>
<path d="M0,0 L5,0 L6,4 L4,4 L4,2 Z " fill="#9B8884" transform="translate(65,30)"/>
<path d="M0,0 L3,0 L3,3 L-1,6 Z " fill="#0D1009" transform="translate(7,25)"/>
<path d="M0,0 L5,0 L2,3 L-1,3 Z " fill="#1D0B06" transform="translate(57,25)"/>
<path d="M0,0 L3,1 L5,6 L1,4 Z " fill="#0D0B0D" transform="translate(122,22)"/>
<path d="M0,0 L2,2 L1,4 L4,5 L1,6 L-1,6 Z " fill="#4D3A2A" transform="translate(55,24)"/>
<path d="M0,0 L2,1 L-1,5 L-3,4 L-3,1 Z " fill="#42474B" transform="translate(7,23)"/>
<path d="M0,0 L1,3 L4,4 L2,5 L1,8 Z " fill="#1D3C3F" transform="translate(144,19)"/>
<path d="M0,0 L5,2 L5,4 L1,3 Z " fill="#37261B" transform="translate(84,21)"/>
<path d="M0,0 L2,1 L2,3 L4,4 L-2,4 L-2,2 L0,2 Z " fill="#170B06" transform="translate(98,17)"/>
<path d="M0,0 L5,0 L6,2 L1,3 Z " fill="#94897B" transform="translate(80,13)"/>
<path d="M0,0 L4,2 L1,5 L-1,1 Z " fill="#585045" transform="translate(20,12)"/>
<path d="M0,0 L1,4 L-4,3 L-4,1 Z " fill="#9E9A97" transform="translate(25,10)"/>
<path d="M0,0 L5,1 L5,4 L1,3 Z " fill="#7A655C" transform="translate(101,6)"/>
<path d="M0,0 L5,1 L5,3 L-1,3 Z " fill="#D6CABE" transform="translate(97,7)"/>
<path d="M0,0 L3,0 L3,3 L-2,3 Z " fill="#7D878E" transform="translate(126,77)"/>
<path d="M0,0 L3,0 L2,3 L-2,3 L-2,1 Z " fill="#220809" transform="translate(90,75)"/>
<path d="M0,0 L2,2 L1,7 L-2,3 Z " fill="#0C151E" transform="translate(146,75)"/>
<path d="M0,0 L5,2 L5,5 Z " fill="#736970" transform="translate(4,71)"/>
<path d="M0,0 L2,0 L2,2 L0,2 L0,4 L-3,4 L-2,1 Z " fill="#796D6D" transform="translate(79,63)"/>
<path d="M0,0 L2,4 L2,5 L-3,5 Z " fill="#271E14" transform="translate(113,57)"/>
<path d="M0,0 L6,1 L4,3 L0,3 Z " fill="#786A60" transform="translate(86,58)"/>
<path d="M0,0 L2,0 L3,5 L-1,4 L1,3 Z " fill="#130C0C" transform="translate(140,55)"/>
<path d="M0,0 L2,2 L0,7 L-2,3 L-2,1 Z " fill="#A9948D" transform="translate(131,52)"/>
<path d="M0,0 L7,0 L7,2 L2,3 L2,1 Z " fill="#F0EADD" transform="translate(10,52)"/>
<path d="M0,0 L5,1 L5,3 L-1,2 Z " fill="#26150D" transform="translate(38,49)"/>
<path d="M0,0 L2,3 L2,5 L-2,5 L-1,2 Z " fill="#87776E" transform="translate(142,30)"/>
<path d="M0,0 L4,2 L4,5 L2,5 Z " fill="#98918B" transform="translate(128,30)"/>
<path d="M0,0 L3,0 L4,4 L1,4 Z " fill="#CAB6A6" transform="translate(12,27)"/>
<path d="M0,0 L5,1 L3,2 L3,4 L1,4 Z " fill="#554336" transform="translate(106,15)"/>
<path d="M0,0 L7,0 L5,3 L3,3 L3,1 Z " fill="#402E2F" transform="translate(119,9)"/>
<path d="M0,0 L5,4 L5,6 L1,4 Z " fill="#B8A599" transform="translate(89,2)"/>
<path d="M0,0 L5,1 L5,3 L1,3 Z " fill="#8E7D6F" transform="translate(83,81)"/>
<path d="M0,0 L2,0 L2,3 L-3,3 Z " fill="#131428" transform="translate(123,72)"/>
<path d="M0,0 L1,0 L1,5 L-2,4 Z " fill="#7E707D" transform="translate(149,65)"/>
<path d="M0,0 L3,1 L3,3 L-2,3 Z " fill="#736369" transform="translate(123,65)"/>
<path d="M0,0 L5,0 L6,2 L2,3 L2,1 Z " fill="#110604" transform="translate(46,66)"/>
<path d="M0,0 L3,0 L3,3 L-1,3 Z " fill="#0E0A0A" transform="translate(87,62)"/>
<path d="M0,0 L5,1 L2,3 L-1,3 Z " fill="#806D5F" transform="translate(64,60)"/>
<path d="M0,0 L3,0 L3,3 L0,4 L-1,1 Z " fill="#7F6A61" transform="translate(49,61)"/>
<path d="M0,0 L3,3 L1,5 L-1,4 Z " fill="#897A6A" transform="translate(40,58)"/>
<path d="M0,0 L5,2 L5,4 L0,2 Z " fill="#8D7C78" transform="translate(23,54)"/>
<path d="M0,0 L2,1 L2,3 L-3,3 L-3,1 Z " fill="#322115" transform="translate(39,54)"/>
<path d="M0,0 L3,1 L2,5 L0,4 Z " fill="#736058" transform="translate(91,51)"/>
<path d="M0,0 L3,2 L3,4 L0,4 L0,2 L-2,1 Z " fill="#48372F" transform="translate(33,51)"/>
<path d="M0,0 L3,1 L3,3 L-1,4 L-2,2 L0,2 Z " fill="#170A04" transform="translate(88,49)"/>
<path d="M0,0 L5,2 L3,3 L2,5 Z " fill="#B7AF99" transform="translate(7,49)"/>
<path d="M0,0 L5,3 L2,4 L0,3 Z " fill="#2B1D1B" transform="translate(28,48)"/>
<path d="M0,0 L3,1 L1,6 L0,6 Z " fill="#7C6A64" transform="translate(97,32)"/>
<path d="M0,0 L4,0 L3,3 L0,4 Z " fill="#857763" transform="translate(93,24)"/>
<path d="M0,0 L3,0 L2,5 L0,4 Z " fill="#010001" transform="translate(140,19)"/>
<path d="M0,0 L2,0 L3,4 L0,5 L-1,1 Z " fill="#4A3730" transform="translate(97,10)"/>
<path d="M0,0 L1,2 L3,2 L3,5 L-1,3 Z " fill="#161612" transform="translate(139,8)"/>
<path d="M0,0 L5,2 L1,4 L1,2 L-1,1 Z " fill="#6B556F" transform="translate(112,5)"/>
<path d="M0,0 L3,1 L4,5 L2,5 Z " fill="#968692" transform="translate(40,76)"/>
<path d="M0,0 L4,1 L2,1 L2,3 L-2,1 Z " fill="#32282A" transform="translate(81,61)"/>
<path d="M0,0 L4,1 L3,3 L0,3 Z " fill="#5A4F3E" transform="translate(77,54)"/>
<path d="M0,0 L3,0 L3,2 L-1,4 Z " fill="#22100F" transform="translate(46,53)"/>
<path d="M0,0 L4,0 L3,3 L0,2 Z " fill="#34251A" transform="translate(78,50)"/>
<path d="M0,0 L4,0 L4,3 L0,2 Z " fill="#6E5A52" transform="translate(43,50)"/>
<path d="M0,0 L5,1 L4,3 L1,3 Z " fill="#3B281D" transform="translate(38,44)"/>
<path d="M0,0 L1,4 L-2,4 L-2,1 Z " fill="#3C2B23" transform="translate(27,41)"/>
<path d="M0,0 L4,0 L2,4 L0,3 Z " fill="#937E74" transform="translate(114,40)"/>
<path d="M0,0 L2,0 L2,3 L-2,3 L-2,1 Z " fill="#0B0202" transform="translate(12,37)"/>
<path d="M0,0 L2,1 L2,4 L-2,2 Z " fill="#1B0E0B" transform="translate(127,37)"/>
<path d="M0,0 L2,0 L2,4 L-1,4 Z " fill="#816C61" transform="translate(117,35)"/>
<path d="M0,0 L4,1 L2,4 L0,3 Z " fill="#4F443E" transform="translate(18,36)"/>
<path d="M0,0 L4,0 L4,2 L0,3 Z " fill="#25160B" transform="translate(39,33)"/>
<path d="M0,0 L4,0 L4,2 L0,3 Z " fill="#D9CAC1" transform="translate(1,28)"/>
<path d="M0,0 L4,1 L4,4 L0,2 Z " fill="#B09F8C" transform="translate(94,26)"/>
<path d="M0,0 L5,0 L2,3 L0,2 Z " fill="#806D65" transform="translate(32,27)"/>
<path d="M0,0 L2,4 L-1,4 L-1,1 Z " fill="#5C4C47" transform="translate(140,24)"/>
<path d="M0,0 L3,1 L3,3 L-2,3 L0,2 Z " fill="#E6DCDE" transform="translate(132,22)"/>
<path d="M0,0 L5,2 L5,4 L1,2 Z " fill="#A89686" transform="translate(90,20)"/>
<path d="M0,0 L2,0 L4,4 L1,4 Z " fill="#26150D" transform="translate(127,12)"/>
<path d="M0,0 L3,0 L4,3 L0,3 Z " fill="#CEC2BE" transform="translate(119,10)"/>
<path d="M0,0 L4,1 L1,3 L-1,3 Z " fill="#D1B8CF" transform="translate(115,8)"/>
<path d="M0,0 Z M-4,1 L0,2 L-2,2 L-2,4 L-5,3 Z " fill="#010000" transform="translate(137,4)"/>
<path d="M0,0 L1,2 L3,2 L3,4 L-2,3 L0,2 Z " fill="#202D33" transform="translate(129,1)"/>
<path d="M0,0 L4,0 L4,3 L1,3 Z " fill="#02030D" transform="translate(129,0)"/>
<path d="M0,0 L3,1 L2,5 Z " fill="#7E5559" transform="translate(93,79)"/>
<path d="M0,0 L2,0 L1,4 L-1,4 Z " fill="#5E5353" transform="translate(86,72)"/>
<path d="M0,0 L3,0 L4,3 L0,2 Z " fill="#A29388" transform="translate(58,68)"/>
<path d="M0,0 L2,0 L2,2 L4,3 L1,4 Z " fill="#826762" transform="translate(7,66)"/>
<path d="M0,0 L2,0 L3,3 L1,4 L-1,2 Z " fill="#2B1F1F" transform="translate(120,59)"/>
<path d="M0,0 L4,1 L0,3 Z " fill="#7A675F" transform="translate(25,39)"/>
<path d="M0,0 L3,1 L2,6 L0,2 Z " fill="#35221B" transform="translate(99,28)"/>
<path d="M0,0 L2,0 L3,3 L-1,3 Z " fill="#624C4E" transform="translate(105,26)"/>
<path d="M0,0 L5,1 L4,3 L0,1 Z " fill="#7B6C58" transform="translate(82,25)"/>
<path d="M0,0 L2,0 L1,5 L-1,1 Z " fill="#675052" transform="translate(65,24)"/>
<path d="M0,0 L1,0 L1,5 L-2,4 Z " fill="#040000" transform="translate(121,15)"/>
<path d="M0,0 L3,3 L3,5 L0,4 Z " fill="#B09B8E" transform="translate(112,15)"/>
<path d="M0,0 L3,3 L-2,3 Z " fill="#241C18" transform="translate(18,14)"/>
<path d="M0,0 L3,0 L3,3 L0,3 Z " fill="#040101" transform="translate(136,8)"/>
<path d="M0,0 L5,1 L1,3 Z " fill="#9A887A" transform="translate(90,2)"/>
<path d="M0,0 L3,0 L3,3 L0,3 Z " fill="#8A9881" transform="translate(7,0)"/>
<path d="M0,0 L3,0 L2,3 L0,3 Z " fill="#6D625D" transform="translate(50,71)"/>
<path d="M0,0 L3,1 L3,3 L0,3 Z " fill="#564943" transform="translate(57,70)"/>
<path d="M0,0 L5,1 L2,3 L0,2 Z " fill="#4D3430" transform="translate(14,66)"/>
<path d="M0,0 L3,1 L3,3 L0,3 Z " fill="#7A6366" transform="translate(49,55)"/>
<path d="M0,0 L3,3 L-2,2 Z " fill="#726155" transform="translate(20,56)"/>
<path d="M0,0 L3,1 L1,5 Z " fill="#534237" transform="translate(15,55)"/>
<path d="M0,0 L2,0 L1,3 L-2,2 Z " fill="#2A150B" transform="translate(33,46)"/>
<path d="M0,0 L2,0 L3,3 L-1,2 Z " fill="#715A4E" transform="translate(4,42)"/>
<path d="M0,0 L3,0 L3,3 L0,2 Z " fill="#46302F" transform="translate(48,39)"/>
<path d="M0,0 L3,0 L3,3 L0,2 Z " fill="#D6C7BF" transform="translate(28,34)"/>
<path d="M0,0 L4,1 L2,4 Z " fill="#796A75" transform="translate(120,25)"/>
<path d="M0,0 L2,0 L2,3 L-1,3 Z " fill="#9A887B" transform="translate(80,22)"/>
<path d="M0,0 L3,1 L2,4 Z " fill="#515E5F" transform="translate(136,19)"/>
<path d="M0,0 L3,0 L2,3 L0,3 Z " fill="#676465" transform="translate(142,11)"/>
<path d="M0,0 L2,1 L1,4 L-2,1 Z " fill="#726656" transform="translate(89,11)"/>
<path d="M0,0 L2,2 L-2,3 Z " fill="#4B3F37" transform="translate(96,59)"/>
<path d="M0,0 L3,1 L3,3 L0,2 Z " fill="#4B3D3D" transform="translate(56,43)"/>
<path d="M0,0 L3,1 L1,3 Z " fill="#877368" transform="translate(62,54)"/>
<path d="M0,0 L2,0 L1,3 L-1,1 Z " fill="#544039" transform="translate(79,35)"/>
</svg>
