<?xml version="1.0" encoding="UTF-8"?>
<!-- Generator: visioncortex VTracer 0.6.5 -->
<svg version="1.1" xmlns="http://www.w3.org/2000/svg" width="150" height="84">
<path d="M0,0 L150,0 L150,84 L0,84 Z " fill="#030910" transform="translate(0,0)"/>
<path d="M0,0 L69,0 L69,84 L28,84 L26,79 L30,79 L30,76 L27,76 L27,74 L31,71 L31,75 L35,76 L35,70 L40,68 L43,67 L42,65 L37,66 L33,67 L33,69 L29,69 L28,67 L19,72 L11,72 L15,70 L24,66 L34,62 L43,60 L42,58 L39,56 L44,55 L47,56 L48,52 L51,51 L51,54 L53,54 L53,60 L55,60 L56,55 L60,54 L59,52 L57,52 L57,50 L55,50 L55,47 L50,44 L50,42 L48,42 L48,45 L46,45 L45,50 L38,52 L40,43 L43,44 L40,30 L39,30 L38,35 L37,35 L36,28 L32,26 L32,28 L34,28 L34,31 L31,32 L30,30 L28,34 L28,32 L26,32 L27,28 L25,28 L24,23 L23,25 L22,21 L25,20 L25,18 L19,17 L14,14 L13,12 L3,10 L1,5 L-1,4 Z " fill="#19181F" transform="translate(81,0)"/>
<path d="M0,0 L5,0 L5,3 L10,4 L10,7 L15,7 L16,11 L9,12 L9,10 L4,13 L2,13 L1,16 L-4,16 L-2,13 L-8,14 L-11,21 L-6,21 L-6,23 L-4,23 L-5,19 L1,17 L3,15 L15,14 L15,16 L7,17 L6,24 L11,24 L11,27 L16,28 L17,31 L21,31 L21,29 L24,29 L24,31 L28,31 L28,33 L30,33 L29,29 L34,28 L46,29 L47,28 L42,28 L46,27 L47,24 L48,27 L50,27 L49,21 L53,20 L52,26 L55,26 L54,18 L50,18 L48,23 L45,20 L45,17 L42,16 L48,14 L53,15 L57,14 L62,16 L63,21 L65,21 L65,16 L66,12 L66,10 L68,10 L68,13 L70,13 L72,20 L76,21 L76,23 L79,24 L77,25 L78,28 L74,31 L71,31 L71,29 L73,28 L73,24 L68,24 L67,32 L61,33 L61,31 L51,32 L50,33 L45,33 L45,35 L47,36 L40,36 L38,34 L28,35 L22,34 L24,39 L19,39 L17,35 L12,35 L17,36 L16,39 L13,39 L12,42 L10,42 L10,44 L19,44 L18,46 L9,46 L7,45 L7,47 L20,47 L22,45 L31,45 L34,44 L37,40 L28,39 L27,41 L25,38 L29,37 L52,37 L58,40 L59,38 L63,40 L59,42 L59,45 L56,48 L62,47 L69,43 L71,44 L70,46 L74,46 L74,44 L80,41 L84,42 L84,44 L80,47 L76,47 L76,53 L72,52 L71,50 L68,51 L68,53 L71,53 L71,56 L67,56 L69,61 L35,61 L39,59 L48,57 L53,56 L52,55 L40,57 L40,55 L34,55 L32,52 L34,51 L34,49 L20,51 L5,51 L3,52 L-9,51 L-10,48 L-15,46 L-20,44 L-20,42 L-26,41 L-26,39 L-31,38 L-31,36 L-28,35 L-33,35 L-32,31 L-34,31 L-35,33 L-36,31 L-36,22 L-34,22 L-32,19 L-29,15 L-26,15 L-25,13 L-23,13 L-25,4 L-24,2 L-18,2 L-16,1 L0,2 Z " fill="#010306" transform="translate(40,23)"/>
<path d="M0,0 L59,0 L59,3 L66,4 L71,3 L76,4 L76,6 L80,8 L80,10 L76,8 L57,6 L47,6 L46,7 L36,7 L36,5 L30,5 L30,7 L35,7 L34,9 L24,9 L24,11 L20,14 L16,14 L17,10 L20,11 L20,8 L23,8 L23,6 L15,7 L12,9 L14,11 L12,15 L14,16 L11,16 L10,20 L7,19 L6,26 L8,26 L9,22 L15,21 L15,19 L21,18 L22,16 L24,16 L23,20 L20,20 L20,23 L25,22 L25,20 L34,19 L34,16 L37,16 L37,19 L42,20 L45,21 L45,19 L56,19 L60,20 L60,17 L67,16 L71,15 L74,14 L78,16 L78,18 L80,18 L80,21 L82,21 L83,18 L89,20 L85,21 L80,23 L74,25 L75,21 L78,21 L78,19 L75,20 L73,22 L66,22 L64,21 L61,22 L66,23 L64,24 L64,26 L76,28 L77,26 L77,29 L70,30 L64,29 L58,30 L57,34 L62,32 L66,33 L62,36 L53,37 L52,38 L43,39 L40,42 L35,42 L36,46 L29,44 L30,39 L34,35 L39,35 L37,38 L41,38 L44,35 L49,33 L49,35 L52,35 L53,33 L56,34 L55,31 L50,30 L49,27 L44,27 L45,23 L40,23 L40,25 L24,25 L18,26 L16,25 L17,36 L15,36 L14,39 L10,40 L9,43 L6,46 L4,45 L5,54 L8,54 L7,58 L14,57 L12,59 L9,59 L9,61 L14,62 L14,64 L20,65 L20,67 L25,68 L30,71 L31,73 L43,74 L48,73 L63,73 L67,72 L74,72 L75,76 L74,77 L80,78 L81,79 L93,77 L93,79 L86,82 L75,84 L0,84 Z M8,20 Z " fill="#0A1111" transform="translate(0,0)"/>
<path d="M0,0 L22,0 L21,4 L25,6 L25,10 L32,10 L36,12 L37,14 L47,18 L47,20 L45,21 L46,28 L43,29 L43,31 L39,30 L39,32 L30,33 L32,35 L31,36 L25,36 L25,33 L20,31 L19,36 L17,34 L14,35 L13,37 L8,38 L6,39 L7,34 L9,34 L10,32 L13,33 L13,31 L11,30 L16,29 L17,28 L8,28 L5,26 L5,24 L1,22 L5,20 L12,21 L16,19 L19,19 L19,21 L16,21 L16,24 L21,22 L26,20 L29,20 L24,19 L23,21 L21,21 L21,18 L19,18 L19,16 L13,15 L11,17 L1,17 L1,20 L-7,20 L-14,19 L-14,21 L-19,20 L-22,19 L-22,16 L-25,16 L-25,19 L-34,20 L-34,22 L-36,24 L-40,23 L-39,20 L-36,20 L-35,16 L-37,16 L-38,19 L-44,19 L-44,21 L-50,23 L-51,26 L-53,26 L-52,19 L-49,19 L-47,13 L-51,12 L-46,11 L-50,9 L-40,5 L-34,5 L-36,6 L-36,8 L-39,8 L-39,11 L-42,11 L-43,14 L-38,12 L-35,11 L-35,9 L-25,8 L-29,7 L-29,5 L-23,5 L-23,7 L-13,6 L-12,5 L-2,5 L17,7 L21,10 L17,6 L17,4 L12,5 L12,3 L7,5 L-1,4 Z M-51,20 Z " fill="#020507" transform="translate(59,0)"/>
<path d="M0,0 L5,1 L5,5 L4,10 L6,10 L6,7 L12,6 L12,9 L10,9 L9,12 L5,13 L4,16 L1,19 L-1,18 L0,27 L3,27 L2,31 L9,30 L7,32 L4,32 L4,34 L9,35 L9,37 L15,38 L15,40 L20,41 L25,44 L26,46 L38,47 L43,46 L58,46 L62,45 L69,45 L70,49 L69,50 L75,51 L76,52 L88,50 L88,52 L81,55 L70,57 L-5,57 L-5,2 L-4,2 L-3,18 L-2,10 L-2,4 Z " fill="#0F181A" transform="translate(5,27)"/>
<path d="M0,0 L5,0 L5,3 L10,4 L10,7 L15,7 L16,11 L9,12 L9,10 L4,13 L2,13 L1,16 L-4,16 L-2,13 L-8,14 L-11,21 L-9,21 L-9,24 L-7,25 L-8,31 L-4,30 L-3,34 L3,37 L3,39 L5,39 L5,41 L-1,40 L-1,38 L-7,36 L-7,40 L-4,40 L-2,44 L1,45 L0,49 L-9,48 L-9,45 L-13,44 L-18,39 L-26,37 L-26,34 L-33,35 L-32,31 L-34,31 L-35,33 L-36,31 L-36,22 L-34,22 L-32,19 L-29,15 L-26,15 L-25,13 L-23,13 L-25,4 L-24,2 L-18,2 L-16,1 L0,2 Z " fill="#020407" transform="translate(40,23)"/>
<path d="M0,0 L37,0 L37,23 L35,25 L35,28 L34,31 L32,31 L31,38 L29,39 L29,37 L27,37 L26,24 L19,13 L19,10 L17,10 L14,7 L18,14 L21,18 L22,22 L18,21 L13,22 L12,26 L9,26 L8,28 L6,27 L6,23 L4,25 L4,19 L-5,17 L-5,11 L-7,11 L-7,8 L2,11 L2,13 L-1,13 L-1,15 L2,15 L2,17 L7,18 L7,16 L5,16 L5,13 L7,13 L6,7 L8,3 L0,1 Z " fill="#040708" transform="translate(113,0)"/>
<path d="M0,0 L2,0 L2,2 L6,3 L6,31 L-35,31 L-37,26 L-33,26 L-33,23 L-36,23 L-36,21 L-32,18 L-32,22 L-28,23 L-28,17 L-23,15 L-20,14 L-21,11 L-17,10 L-15,9 L-13,5 L-11,5 L-12,9 L-13,13 L-15,14 L-16,18 L-14,18 L-14,15 L-12,15 L-11,11 L-8,12 L-6,8 L-3,7 L-2,3 Z " fill="#33374C" transform="translate(144,53)"/>
<path d="M0,0 L32,0 L38,2 L40,3 L39,13 L37,13 L37,16 L39,16 L39,18 L34,17 L34,15 L31,15 L31,13 L34,13 L33,11 L27,9 L25,8 L25,11 L27,11 L27,17 L33,18 L34,19 L34,26 L32,26 L32,28 L34,28 L34,31 L31,32 L30,30 L28,34 L28,32 L26,32 L27,28 L25,28 L24,23 L23,25 L22,21 L25,20 L25,18 L19,17 L14,14 L13,12 L3,10 L1,5 L-1,4 Z " fill="#131821" transform="translate(81,0)"/>
<path d="M0,0 L4,1 L4,3 L0,6 L-4,6 L-4,12 L-8,11 L-9,9 L-12,10 L-12,12 L-9,12 L-9,15 L-13,15 L-11,20 L-45,20 L-41,18 L-32,16 L-27,15 L-28,14 L-40,16 L-40,14 L-46,14 L-48,11 L-46,10 L-46,8 L-49,8 L-48,6 L-36,5 L-30,8 L-30,6 L-24,6 L-20,7 L-11,2 L-9,3 L-10,5 L-6,5 L-6,3 Z " fill="#03060A" transform="translate(120,64)"/>
<path d="M0,0 L59,0 L59,3 L66,4 L71,3 L76,4 L76,6 L80,8 L80,10 L76,8 L57,6 L47,6 L46,7 L36,7 L36,5 L30,5 L30,7 L35,7 L34,9 L24,9 L24,11 L20,14 L16,14 L17,10 L20,11 L20,8 L23,8 L23,6 L15,7 L7,11 L3,11 L3,9 L7,8 L8,6 L0,7 Z " fill="#080D12" transform="translate(0,0)"/>
<path d="M0,0 L5,0 L6,4 L3,5 L4,9 L-5,12 L-4,14 L-10,16 L-15,15 L-20,14 L-40,14 L-42,15 L-40,15 L-31,16 L-32,19 L-37,22 L-46,22 L-48,24 L-59,24 L-61,23 L-61,21 L-55,21 L-58,20 L-58,18 L-55,15 L-52,15 L-52,13 L-58,12 L-56,10 L-51,10 L-49,14 L-44,15 L-45,11 L-47,10 L-44,9 L-34,10 L-30,9 L-28,11 L-23,11 L-23,9 L-17,7 L-7,7 L-7,9 L-4,9 L-3,5 L-3,8 L-1,8 Z " fill="#0F191E" transform="translate(108,47)"/>
<path d="M0,0 L5,0 L5,3 L10,4 L9,6 L4,6 L3,5 L-12,5 L-13,7 L-11,8 L-15,9 L-20,8 L-19,13 L-20,15 L-18,15 L-18,17 L-21,17 L-21,19 L-19,19 L-19,26 L-17,27 L-19,27 L-19,29 L-21,29 L-22,34 L-20,35 L-24,36 L-31,35 L-33,35 L-32,31 L-34,31 L-35,33 L-36,31 L-36,22 L-34,22 L-32,19 L-29,15 L-26,15 L-25,13 L-23,13 L-25,4 L-24,2 L-18,2 L-16,1 L0,2 Z " fill="#000204" transform="translate(40,23)"/>
<path d="M0,0 L7,0 L8,4 L7,5 L13,6 L14,7 L26,5 L26,7 L19,10 L8,12 L-28,12 L-30,10 L-27,9 L-28,3 L-19,1 L-4,1 Z " fill="#05090C" transform="translate(67,72)"/>
<path d="M0,0 L4,0 L6,11 L12,10 L12,8 L14,8 L13,14 L17,13 L18,17 L24,20 L24,22 L26,22 L26,24 L20,23 L20,21 L14,19 L14,23 L17,23 L19,27 L22,28 L21,32 L12,31 L12,28 L8,27 L3,22 L-5,20 L-5,18 L0,18 L-1,15 L0,12 L2,12 L2,2 L0,2 Z " fill="#04090E" transform="translate(19,40)"/>
<path d="M0,0 L6,0 L5,3 L1,3 L1,5 L7,3 L12,4 L10,9 L12,10 L9,10 L8,14 L5,13 L4,20 L6,20 L7,16 L13,15 L14,13 L14,15 L17,16 L13,16 L13,22 L15,26 L12,28 L9,28 L9,31 L7,31 L7,26 L7,22 L3,21 L2,31 L1,40 L-1,39 L-2,23 L-2,1 Z M6,14 Z " fill="#040B0E" transform="translate(2,6)"/>
<path d="M0,0 L6,1 L6,3 L20,6 L21,3 L21,5 L26,6 L27,8 L25,8 L24,10 L21,11 L14,10 L20,13 L20,14 L-6,14 L-6,2 Z " fill="#03070B" transform="translate(6,70)"/>
<path d="M0,0 L2,1 L1,5 L3,5 L2,9 L4,9 L6,6 L8,8 L11,7 L11,9 L9,9 L9,17 L5,15 L5,13 L3,13 L3,10 L1,10 L2,15 L0,21 L-2,21 L-3,16 L-10,15 L-16,16 L-18,15 L-33,17 L-34,15 L-32,11 L-28,10 L-27,9 L-26,7 L-21,9 L-19,10 L-20,12 L-15,12 L-17,10 L-12,9 L-7,9 L-7,7 L-3,8 L-3,6 L-1,5 Z " fill="#0F171A" transform="translate(105,23)"/>
<path d="M0,0 L2,0 L2,2 L6,3 L6,15 L1,16 L-3,16 L-3,18 L-13,22 L-24,27 L-29,27 L-29,25 L-23,23 L-21,20 L-17,18 L-14,18 L-14,15 L-12,15 L-11,11 L-8,12 L-6,8 L-3,7 L-2,3 Z " fill="#040707" transform="translate(144,53)"/>
<path d="M0,0 L6,0 L6,13 L-27,13 L-24,10 L-12,5 L-8,5 L-8,3 Z " fill="#000202" transform="translate(144,71)"/>
<path d="M0,0 L6,1 L4,2 L4,4 L16,6 L17,4 L17,7 L10,8 L4,7 L-2,8 L-3,12 L2,10 L6,11 L2,14 L-7,15 L-8,16 L-17,17 L-20,20 L-25,20 L-24,24 L-31,22 L-30,17 L-26,13 L-21,13 L-23,16 L-19,16 L-16,13 L-11,11 L-11,13 L-8,13 L-7,11 L-4,12 L-5,9 L-10,8 L-7,5 L-1,5 L2,4 Z " fill="#172226" transform="translate(60,22)"/>
<path d="M0,0 L7,0 L8,4 L7,5 L13,6 L14,7 L26,5 L26,7 L19,10 L8,12 L0,12 L0,10 L2,10 L2,8 L-5,8 L-5,7 L-15,5 L-16,3 L-4,3 L-4,1 Z " fill="#152A2E" transform="translate(67,72)"/>
<path d="M0,0 L2,0 L4,3 L5,6 L4,8 L8,10 L9,13 L11,13 L13,16 L15,10 L18,11 L19,16 L21,16 L21,18 L19,18 L19,23 L17,23 L17,15 L15,15 L14,26 L12,26 L11,31 L4,33 L6,24 L9,25 L6,11 L5,11 L4,16 L3,16 L2,9 L0,8 Z " fill="#485056" transform="translate(115,19)"/>
<path d="M0,0 L7,0 L9,3 L12,0 L16,0 L17,2 L17,8 L14,8 L15,2 L12,4 L13,6 L12,9 L10,9 L9,7 L9,10 L8,12 L-7,11 L-9,11 L-8,15 L-10,15 L-10,13 L-14,13 L-14,11 L-17,11 L-17,13 L-21,13 L-21,11 L-14,9 L-12,9 L-14,8 L-14,5 L-2,7 L0,7 L0,5 L5,4 L5,3 L0,3 Z " fill="#121E1E" transform="translate(78,41)"/>
<path d="M0,0 L2,0 L2,33 L-2,32 L-2,30 L-6,30 L-6,18 L-3,8 L-1,8 L0,3 Z " fill="#4B4C55" transform="translate(148,23)"/>
<path d="M0,0 L7,2 L7,4 L12,5 L17,8 L18,10 L26,12 L27,18 L25,19 L26,21 L13,21 L6,18 L7,16 L16,18 L17,16 L19,14 L14,12 L14,10 L8,9 L7,7 L1,5 Z " fill="#3A4D4E" transform="translate(13,63)"/>
<path d="M0,0 L5,1 L5,5 L4,10 L6,10 L6,7 L12,6 L12,9 L10,9 L9,12 L5,13 L4,16 L1,19 L-1,18 L-1,29 L-5,25 L-5,2 L-4,2 L-3,18 L-2,10 L-2,4 Z " fill="#03060A" transform="translate(5,27)"/>
<path d="M0,0 L30,0 L26,4 L15,7 L7,11 L3,11 L3,9 L7,8 L8,6 L0,7 Z " fill="#1F4240" transform="translate(0,0)"/>
<path d="M0,0 L5,1 L6,8 L6,2 L9,4 L11,15 L11,18 L9,18 L6,28 L3,28 L5,21 L3,20 L3,18 L-2,17 L-1,13 L1,14 L0,8 L1,6 L3,6 L2,2 L0,2 Z " fill="#070C10" transform="translate(113,26)"/>
<path d="M0,0 L4,2 L4,4 L6,4 L9,10 L14,18 L15,31 L15,33 L13,33 L14,41 L12,41 L11,37 L11,26 L8,25 L8,21 L6,21 L6,19 L3,18 L3,15 L6,14 L8,15 L5,9 L1,4 Z " fill="#3A464B" transform="translate(126,6)"/>
<path d="M0,0 L7,0 L13,2 L15,3 L14,13 L12,13 L12,16 L14,16 L14,18 L9,17 L9,15 L6,15 L6,13 L9,13 L8,11 L2,9 L0,8 L1,3 Z " fill="#25343F" transform="translate(106,0)"/>
<path d="M0,0 L6,0 L5,3 L1,3 L1,5 L7,3 L12,4 L10,9 L12,10 L9,10 L8,14 L2,15 L2,17 L-2,19 L-2,1 Z M6,14 Z " fill="#0F2426" transform="translate(2,6)"/>
<path d="M0,0 L3,1 L4,8 L6,13 L4,19 L1,17 L-1,17 L-3,19 L-3,13 L-12,11 L-12,5 L-14,5 L-14,2 L-5,5 L-5,7 L-8,7 L-8,9 L-5,9 L-5,11 L0,12 L0,10 L-2,10 L-2,7 L0,7 L-1,1 Z " fill="#03070A" transform="translate(120,6)"/>
<path d="M0,0 L6,0 L6,3 L12,2 L15,3 L15,5 L13,5 L13,9 L15,10 L14,12 L16,13 L12,14 L5,13 L3,13 L4,9 L2,9 L1,11 L0,9 Z " fill="#010205" transform="translate(4,45)"/>
<path d="M0,0 L2,0 L2,3 L4,3 L4,6 L-2,8 L-5,11 L-7,11 L-7,13 L-13,16 L-16,16 L-16,18 L-20,18 L-21,16 L-30,21 L-38,21 L-34,19 L-25,15 L-15,11 L-6,9 L-7,7 L-10,5 L-5,4 L-2,5 L-1,1 Z " fill="#2F3D48" transform="translate(130,51)"/>
<path d="M0,0 L10,0 L10,6 L17,6 L17,9 L21,10 L13,12 L3,11 L4,7 L-2,8 Z " fill="#060D12" transform="translate(47,40)"/>
<path d="M0,0 L2,0 L1,4 L-2,4 L-2,7 L3,6 L3,4 L12,3 L12,0 L15,0 L15,3 L18,3 L17,8 L9,9 L2,9 L-4,10 L-6,9 L-7,14 L-8,14 L-8,8 L-6,3 L-1,2 Z " fill="#11191E" transform="translate(22,16)"/>
<path d="M0,0 L4,1 L7,2 L7,4 L9,4 L9,7 L11,7 L12,4 L18,6 L14,7 L9,9 L3,11 L4,7 L7,7 L7,5 L4,6 L2,8 L-5,8 L-11,6 L-11,3 L-4,2 L0,1 Z " fill="#101A1A" transform="translate(71,14)"/>
<path d="M0,0 L4,0 L4,2 L8,4 L8,8 L-15,8 L-12,5 Z " fill="#0D160D" transform="translate(132,76)"/>
<path d="M0,0 L2,1 L1,5 L3,5 L2,9 L4,9 L6,6 L8,8 L11,7 L11,9 L9,9 L9,17 L5,15 L5,13 L3,13 L3,10 L1,10 L2,15 L0,21 L-2,21 L-3,16 L-6,16 L-4,9 L0,9 L-1,5 Z " fill="#1C2229" transform="translate(105,23)"/>
<path d="M0,0 L9,0 L14,3 L12,7 L11,10 L0,10 Z " fill="#14221E" transform="translate(0,74)"/>
<path d="M0,0 L1,3 L3,4 L0,10 L-5,15 L-8,15 L-9,18 L-11,18 L-11,21 L-13,21 L-12,16 L-10,16 L-11,13 L-8,8 L-10,9 L-12,13 L-16,16 L-16,14 L-18,14 L-18,12 L-16,12 L-15,9 L-12,7 L-7,7 L-7,10 L-5,10 L-4,5 L0,4 Z " fill="#111019" transform="translate(141,50)"/>
<path d="M0,0 L15,0 L19,1 L19,3 L7,2 L3,1 L3,3 L14,5 L20,9 L20,11 L17,11 L17,9 L8,6 L13,8 L12,10 L4,8 L4,6 L-1,4 Z " fill="#57666E" transform="translate(81,0)"/>
<path d="M0,0 L2,0 L2,4 L6,4 L6,6 L9,6 L9,9 L15,9 L17,10 L16,13 L6,11 L5,12 L0,12 Z " fill="#122B2D" transform="translate(0,60)"/>
<path d="M0,0 L5,0 L3,3 L7,3 L9,1 L18,2 L18,3 L9,4 L6,7 L1,7 L2,11 L-5,9 L-4,4 Z " fill="#0E171F" transform="translate(34,35)"/>
<path d="M0,0 L6,1 L7,7 L5,8 L6,10 L-7,10 L-14,7 L-13,5 L-4,7 L-3,5 L1,3 L1,5 L5,6 L5,2 L0,1 Z " fill="#1A232D" transform="translate(33,74)"/>
<path d="M0,0 L10,0 L11,3 L8,3 L8,8 L4,7 L-1,6 L-12,3 L-12,1 L4,3 L4,1 Z " fill="#060B10" transform="translate(96,0)"/>
<path d="M0,0 L5,1 L6,8 L6,2 L9,4 L11,16 L8,16 L9,12 L5,13 L5,11 L1,14 L0,8 L1,6 L3,6 L2,2 L0,2 Z " fill="#1D2429" transform="translate(113,26)"/>
<path d="M0,0 L12,2 L17,4 L13,6 L5,6 L6,10 L4,10 L4,8 L0,8 L0,6 L-3,6 L-3,8 L-7,8 L-7,6 L0,4 L2,4 L0,3 Z " fill="#172629" transform="translate(64,46)"/>
<path d="M0,0 L7,0 L8,4 L2,5 L2,3 L-2,4 L-1,7 L-5,8 L-5,7 L-15,5 L-16,3 L-4,3 L-4,1 Z " fill="#202D33" transform="translate(67,72)"/>
<path d="M0,0 L5,0 L4,4 L-3,5 L-9,6 L-9,8 L-23,13 L-25,13 L-25,11 L-14,6 L-7,3 L-4,3 L-4,1 Z " fill="#777D7B" transform="translate(145,68)"/>
<path d="M0,0 L2,0 L2,18 L1,22 L-3,21 L-2,7 Z " fill="#090F0F" transform="translate(148,30)"/>
<path d="M0,0 L6,1 L6,3 L8,3 L8,5 L4,6 L2,7 L2,10 L5,9 L6,7 L6,9 L8,10 L4,12 L0,12 L0,8 L-2,7 L1,5 L-7,6 L-6,2 Z " fill="#0C151A" transform="translate(64,28)"/>
<path d="M0,0 L6,0 L6,15 L0,14 L-3,11 L-3,8 L3,10 L3,7 L1,7 L1,5 L4,5 L4,3 L0,1 Z " fill="#1E2634" transform="translate(144,0)"/>
<path d="M0,0 L2,0 L2,2 L5,2 L5,4 L13,5 L13,8 L18,9 L18,12 L7,11 L4,8 L8,8 L9,6 L1,5 Z " fill="#040A0E" transform="translate(8,64)"/>
<path d="M0,0 L3,0 L3,2 L0,2 L0,4 L-3,7 L0,8 L-8,9 L-11,7 L-11,5 L-15,3 L-11,1 L-4,2 Z " fill="#010303" transform="translate(75,19)"/>
<path d="M0,0 L4,2 L4,4 L6,4 L9,10 L14,18 L15,28 L13,28 L11,16 L8,15 L5,9 L1,4 Z " fill="#859091" transform="translate(126,6)"/>
<path d="M0,0 L6,2 L8,3 L7,5 L3,4 L3,6 L5,6 L5,8 L-5,10 L-7,8 L-5,4 L-1,3 L0,2 Z " fill="#232D34" transform="translate(78,30)"/>
<path d="M0,0 L2,0 L2,3 L4,3 L4,6 L-2,8 L-5,11 L-7,11 L-7,13 L-12,11 L-8,9 L-6,9 L-7,7 L-10,5 L-5,4 L-2,5 L-1,1 Z " fill="#312E3C" transform="translate(130,51)"/>
<path d="M0,0 L7,0 L7,2 L5,3 L11,6 L11,7 L-4,7 L-3,3 L0,2 Z " fill="#090C0F" transform="translate(15,77)"/>
<path d="M0,0 L5,1 L5,3 L3,3 L3,7 L5,8 L4,10 L6,11 L2,12 L-2,9 L0,9 L0,7 L-5,8 L-5,6 L-2,6 L-2,2 L0,2 Z " fill="#040910" transform="translate(14,47)"/>
<path d="M0,0 L7,0 L11,3 L5,4 L6,7 L13,11 L10,12 L2,9 L0,8 L1,3 Z " fill="#3D5358" transform="translate(106,0)"/>
<path d="M0,0 L2,0 L3,6 L7,7 L8,11 L3,12 L2,16 L-1,16 L-2,18 L-4,17 L-2,11 L0,12 L0,14 L2,9 L0,4 Z " fill="#1A2429" transform="translate(123,10)"/>
<path d="M0,0 L9,0 L10,2 L13,3 L12,7 L3,6 L3,3 L0,3 Z " fill="#2E3C3F" transform="translate(28,65)"/>
<path d="M0,0 L5,0 L6,4 L3,5 L4,9 L1,10 L-6,10 L-4,9 L-3,5 L-3,8 L-1,8 Z " fill="#1C262C" transform="translate(108,47)"/>
<path d="M0,0 L11,0 L16,1 L16,3 L13,5 L1,4 Z " fill="#1A2523" transform="translate(32,27)"/>
<path d="M0,0 L3,0 L3,3 L6,3 L5,8 L-3,9 L-3,7 L-5,6 L-5,3 L0,3 Z " fill="#182126" transform="translate(34,16)"/>
<path d="M0,0 L9,1 L9,3 L13,5 L13,7 L9,5 L-10,3 L-7,1 L-1,1 Z " fill="#253033" transform="translate(67,3)"/>
<path d="M0,0 L5,0 L5,3 L10,3 L11,7 L0,7 Z " fill="#476365" transform="translate(0,77)"/>
<path d="M0,0 L2,0 L2,2 L4,2 L5,6 L7,6 L7,9 L4,10 L3,8 L1,12 L1,10 L-1,10 L0,6 L-2,6 L-1,1 Z " fill="#373D48" transform="translate(108,22)"/>
<path d="M0,0 L2,0 L2,2 L6,4 L8,8 L3,9 L-5,7 L-5,5 L0,5 L-1,2 Z " fill="#0F171D" transform="translate(19,53)"/>
<path d="M0,0 L2,2 L3,7 L-1,8 L-5,13 L-9,12 L-8,9 L-5,9 L-5,4 Z " fill="#01050A" transform="translate(28,11)"/>
<path d="M0,0 L17,0 L14,2 L7,5 L-1,4 Z " fill="#000204" transform="translate(59,0)"/>
<path d="M0,0 L1,2 L6,4 L11,11 L12,15 L8,13 L7,10 L3,9 L2,3 L0,3 L-1,5 Z " fill="#111A20" transform="translate(123,7)"/>
<path d="M0,0 L2,0 L4,3 L5,6 L4,8 L8,10 L9,13 L11,14 L8,15 L5,11 L4,16 L3,16 L2,9 L0,8 Z " fill="#3B4347" transform="translate(115,19)"/>
<path d="M0,0 L1,2 L4,3 L4,5 L10,6 L10,12 L4,12 L4,7 L0,5 Z " fill="#192924" transform="translate(140,9)"/>
<path d="M0,0 L2,0 L2,3 L4,4 L2,4 L1,9 L-6,11 L-4,2 L-1,2 Z " fill="#2A2733" transform="translate(125,41)"/>
<path d="M0,0 L2,0 L2,7 L0,7 L0,13 L-1,14 L-2,21 L-3,17 L-5,17 L-3,8 L-1,8 L0,3 Z " fill="#38423D" transform="translate(148,23)"/>
<path d="M0,0 L15,0 L19,1 L19,3 L7,2 L3,1 L3,3 L6,4 L3,4 L2,6 L-1,4 Z " fill="#49525C" transform="translate(81,0)"/>
<path d="M0,0 L1,2 L9,3 L10,2 L5,2 L5,0 L11,1 L14,3 L13,7 L15,9 L11,8 L10,6 L0,4 Z " fill="#203137" transform="translate(84,6)"/>
<path d="M0,0 L1,2 L-6,5 L-17,7 L-25,7 L-25,6 L-16,4 L-11,4 L-11,2 Z " fill="#405458" transform="translate(92,77)"/>
<path d="M0,0 L5,0 L6,3 L9,3 L8,6 L1,5 L0,7 L-4,2 Z " fill="#0D1517" transform="translate(27,60)"/>
<path d="M0,0 L1,3 L3,4 L0,10 L-5,15 L-8,15 L-8,13 L-6,13 L-6,11 L-4,11 L-4,5 L0,4 Z " fill="#262226" transform="translate(141,50)"/>
<path d="M0,0 L2,0 L5,3 L8,6 L1,8 L-3,9 L-2,3 L0,3 Z " fill="#020107" transform="translate(129,42)"/>
<path d="M0,0 L8,1 L9,4 L-1,7 L-2,3 Z " fill="#131B20" transform="translate(115,56)"/>
<path d="M0,0 L8,3 L8,6 L1,7 L1,5 L-3,7 L-2,2 L0,2 Z " fill="#091318" transform="translate(48,28)"/>
<path d="M0,0 L6,1 L4,2 L4,4 L16,6 L17,4 L17,7 L10,8 L4,7 L-1,8 L1,4 Z " fill="#182223" transform="translate(60,22)"/>
<path d="M0,0 L5,1 L6,6 L1,4 L0,10 L-2,10 L-4,7 L-4,4 L-1,3 Z " fill="#04090F" transform="translate(126,22)"/>
<path d="M0,0 L4,1 L4,3 L10,4 L10,7 L5,7 L5,5 L-4,3 L-5,1 Z " fill="#222732" transform="translate(104,14)"/>
<path d="M0,0 L2,0 L1,4 L0,8 L-2,9 L-4,14 L-6,15 L-5,10 L-8,7 L-4,5 L-2,4 Z " fill="#424750" transform="translate(131,58)"/>
<path d="M0,0 L6,0 L6,6 L-4,5 L-4,3 L-1,2 Z " fill="#17212C" transform="translate(51,40)"/>
<path d="M0,0 L1,0 L1,18 L3,18 L4,27 L0,23 Z " fill="#252C37" transform="translate(0,29)"/>
<path d="M0,0 L5,0 L3,6 L-5,7 L-5,4 Z " fill="#575C68" transform="translate(122,67)"/>
<path d="M0,0 L4,1 L4,3 L0,6 L-4,6 L-5,10 L-6,3 Z " fill="#081523" transform="translate(120,64)"/>
<path d="M0,0 L8,0 L7,3 L2,6 L-3,5 L-3,3 L1,4 Z " fill="#262E35" transform="translate(69,63)"/>
<path d="M0,0 L7,1 L7,4 L4,4 L3,7 L1,7 L1,9 L-3,11 L-2,6 L2,5 L3,1 Z " fill="#5A706F" transform="translate(3,14)"/>
<path d="M0,0 L7,0 L3,1 L3,3 L6,3 L5,7 L0,9 Z " fill="#020504" transform="translate(0,12)"/>
<path d="M0,0 L5,1 L5,3 L2,5 L-8,5 L-8,3 L-2,1 Z " fill="#282F35" transform="translate(44,2)"/>
<path d="M0,0 L17,1 L17,3 L13,4 L14,6 L3,3 L0,2 Z " fill="#10151B" transform="translate(84,1)"/>
<path d="M0,0 L4,0 L4,3 L-5,5 L-6,6 L-11,6 L-11,4 Z " fill="#65797D" transform="translate(20,2)"/>
<path d="M0,0 L4,1 L3,4 L0,6 L-3,6 L-3,8 L-7,8 L-7,6 L-4,6 L-3,2 Z " fill="#3F5058" transform="translate(117,61)"/>
<path d="M0,0 L8,0 L14,3 L14,5 L16,5 L16,7 L10,6 L10,4 L3,2 L0,2 Z " fill="#1C292F" transform="translate(29,57)"/>
<path d="M0,0 L1,0 L1,7 L0,11 L-4,10 L-4,3 L-2,1 L-2,4 L0,4 Z " fill="#2D323B" transform="translate(149,41)"/>
<path d="M0,0 L5,2 L5,4 L7,4 L6,11 L4,13 L3,9 L4,7 L2,6 L3,5 L-1,4 Z " fill="#111A21" transform="translate(73,23)"/>
<path d="M0,0 L4,0 L4,3 L6,3 L6,5 L-2,5 L-5,6 L-5,1 L0,2 Z " fill="#071112" transform="translate(74,9)"/>
<path d="M0,0 L2,0 L2,7 L-1,7 Z M-5,1 L-3,1 L-4,7 L-1,8 L-5,8 L-7,2 Z " fill="#081211" transform="translate(96,42)"/>
<path d="M0,0 L2,0 L1,5 L3,6 L0,6 L-1,8 L-5,9 L-4,4 Z " fill="#232D36" transform="translate(34,35)"/>
<path d="M0,0 L5,1 L9,5 L7,6 L5,5 L4,7 L4,5 L-1,4 Z " fill="#05060B" transform="translate(140,0)"/>
<path d="M0,0 L8,0 L11,5 L7,6 L2,5 L4,4 L4,2 L0,1 Z " fill="#020505" transform="translate(52,22)"/>
<path d="M0,0 L2,2 L3,7 L1,7 L2,15 L0,15 L-1,11 L-1,3 Z " fill="#4B4850" transform="translate(138,32)"/>
<path d="M0,0 L6,2 L2,3 L-3,5 L-9,7 L-8,3 L-3,2 L-1,3 Z " fill="#252F30" transform="translate(83,18)"/>
<path d="M0,0 L5,2 L10,4 L10,8 L5,8 L6,5 L0,3 Z " fill="#5C777A" transform="translate(28,72)"/>
<path d="M0,0 L7,1 L8,6 L6,6 L6,4 L2,4 L2,2 L-1,2 L-1,4 L-5,4 L-5,2 Z " fill="#303F45" transform="translate(62,50)"/>
<path d="M0,0 L1,2 L0,5 L-2,5 L-2,3 L-5,5 L-6,8 L-9,7 L-7,7 L-7,5 L-9,5 L-8,2 Z " fill="#110E1B" transform="translate(134,48)"/>
<path d="M0,0 L1,2 L4,3 L4,6 L-3,7 L-2,2 Z " fill="#060F0F" transform="translate(102,42)"/>
<path d="M0,0 L2,0 L2,2 L5,2 L6,0 L6,2 L12,2 L12,3 L6,4 L-4,4 Z " fill="#2E3A41" transform="translate(47,33)"/>
<path d="M0,0 L2,1 L1,14 L-1,14 L-2,3 Z " fill="#4B535E" transform="translate(5,28)"/>
<path d="M0,0 L6,1 L6,3 L9,3 L10,7 L8,7 L8,5 L4,6 L2,5 L2,2 L0,2 Z " fill="#20272F" transform="translate(90,19)"/>
<path d="M0,0 L4,0 L2,8 L4,9 L0,10 L-2,6 L0,6 Z " fill="#060B13" transform="translate(104,3)"/>
<path d="M0,0 L8,0 L8,2 L6,2 L6,4 L-1,4 Z " fill="#1A2B2D" transform="translate(61,80)"/>
<path d="M0,0 L1,4 L3,4 L3,8 L-1,10 L-4,10 L-4,8 L0,8 L0,5 L-3,5 L-3,3 Z " fill="#2D3D51" transform="translate(111,71)"/>
<path d="M0,0 L2,4 L1,12 L-1,12 L-2,2 L0,2 Z " fill="#120F15" transform="translate(141,37)"/>
<path d="M0,0 L2,1 L3,6 L5,7 L5,11 L3,11 L3,8 L1,8 L0,10 L-1,8 L-1,1 Z " fill="#575B61" transform="translate(124,33)"/>
<path d="M0,0 L5,0 L4,4 L-5,5 L-5,2 Z " fill="#131A1C" transform="translate(76,0)"/>
<path d="M0,0 L5,1 L3,7 L1,7 L1,9 L-4,7 L0,5 L2,5 L1,3 L-2,1 Z " fill="#29343B" transform="translate(122,55)"/>
<path d="M0,0 L5,1 L5,8 L2,8 L2,11 L0,11 L1,6 L3,6 L2,2 L0,2 Z " fill="#04060A" transform="translate(113,26)"/>
<path d="M0,0 L4,1 L4,4 L2,4 L2,7 L-5,6 L-1,3 Z " fill="#293436" transform="translate(28,27)"/>
<path d="M0,0 L15,0 L11,4 L9,4 L9,2 L3,3 L3,1 Z " fill="#414B53" transform="translate(15,0)"/>
<path d="M0,0 L4,1 L6,2 L6,4 L2,6 L-1,6 L-1,4 L-4,3 L0,1 Z " fill="#253031" transform="translate(71,14)"/>
<path d="M0,0 L6,0 L5,5 L0,5 Z " fill="#47726B" transform="translate(4,0)"/>
<path d="M0,0 L5,1 L4,6 L-2,5 L-2,1 Z " fill="#3D585B" transform="translate(67,75)"/>
<path d="M0,0 L2,1 L1,4 L-4,6 L-9,6 L-4,2 Z " fill="#0D1A26" transform="translate(109,66)"/>
<path d="M0,0 L3,0 L3,3 L1,3 L0,6 L-5,6 L-5,4 L-3,4 L-3,1 Z " fill="#1F282D" transform="translate(14,33)"/>
<path d="M0,0 L2,0 L2,3 L-4,6 L-7,6 L-6,2 Z " fill="#02090D" transform="translate(64,28)"/>
<path d="M0,0 L11,0 L13,2 L-1,3 Z " fill="#141F1F" transform="translate(45,19)"/>
<path d="M0,0 L6,0 L6,2 L9,2 L10,5 L6,6 L6,4 L0,2 Z " fill="#050910" transform="translate(30,5)"/>
<path d="M0,0 L2,0 L2,4 L6,4 L6,6 L8,6 L8,8 L4,7 L0,6 Z " fill="#3F605E" transform="translate(0,60)"/>
<path d="M0,0 L5,1 L5,5 L4,9 L2,9 L1,2 Z " fill="#1F292D" transform="translate(5,27)"/>
<path d="M0,0 L2,0 L1,7 L-5,8 L-5,6 L-2,6 L-2,2 L0,2 Z " fill="#0E151E" transform="translate(14,47)"/>
<path d="M0,0 L2,1 L3,6 L2,13 L0,12 Z " fill="#010204" transform="translate(1,33)"/>
<path d="M0,0 L4,2 L9,5 L9,7 L3,6 L0,3 Z " fill="#4E5C6A" transform="translate(141,8)"/>
<path d="M0,0 L10,0 L11,3 L3,3 L-3,2 Z " fill="#2D3835" transform="translate(60,4)"/>
<path d="M0,0 L7,1 L7,3 L4,5 L-2,5 L0,3 Z " fill="#121C1D" transform="translate(41,27)"/>
<path d="M0,0 L1,2 L6,4 L6,7 L4,7 L3,9 L2,3 L0,3 L-1,5 Z " fill="#0B1514" transform="translate(123,7)"/>
<path d="M0,0 L6,0 L7,4 L-1,3 Z " fill="#081114" transform="translate(85,10)"/>
<path d="M0,0 L6,0 L6,2 L-1,4 L-6,5 L-3,1 Z " fill="#242C35" transform="translate(30,3)"/>
<path d="M0,0 L4,0 L5,10 L2,9 L2,2 L0,2 Z " fill="#111C22" transform="translate(19,40)"/>
<path d="M0,0 L2,0 L3,6 L7,7 L8,10 L3,8 L0,4 Z " fill="#2F3C3F" transform="translate(123,10)"/>
<path d="M0,0 L5,2 L10,5 L7,6 L0,4 Z " fill="#5B737A" transform="translate(109,6)"/>
<path d="M0,0 L7,0 L3,1 L3,3 L6,4 L3,4 L2,6 L-1,4 Z " fill="#2A383D" transform="translate(81,0)"/>
<path d="M0,0 L5,0 L4,4 L-3,3 L-3,1 Z " fill="#858A95" transform="translate(145,68)"/>
<path d="M0,0 L2,0 L2,3 L6,4 L4,4 L4,8 L1,8 Z " fill="#050A10" transform="translate(8,45)"/>
<path d="M0,0 L7,0 L7,3 L5,3 L5,5 L2,5 L2,3 L0,2 Z " fill="#384245" transform="translate(29,20)"/>
<path d="M0,0 L4,0 L3,5 L-2,5 L-3,3 L0,3 Z " fill="#2B383A" transform="translate(146,64)"/>
<path d="M0,0 L3,1 L3,3 L0,4 L-1,6 L-3,6 L-4,1 Z " fill="#030D16" transform="translate(43,74)"/>
<path d="M0,0 L2,0 L2,2 L5,2 L5,4 L9,5 L7,6 L1,5 Z " fill="#020E10" transform="translate(8,64)"/>
<path d="M0,0 L5,0 L6,4 L1,4 Z " fill="#040D15" transform="translate(58,58)"/>
<path d="M0,0 L11,1 L11,4 L8,4 L8,2 L0,2 Z " fill="#040D13" transform="translate(93,52)"/>
<path d="M0,0 L2,0 L2,8 L0,10 L-1,1 Z " fill="#8A8C92" transform="translate(143,40)"/>
<path d="M0,0 L7,0 L8,3 L0,3 Z " fill="#242F33" transform="translate(78,41)"/>
<path d="M0,0 L2,2 L3,7 L-2,6 L-1,1 Z " fill="#0B111B" transform="translate(28,11)"/>
<path d="M0,0 L5,0 L5,3 L-3,3 Z " fill="#0B0D10" transform="translate(120,81)"/>
<path d="M0,0 L6,0 L8,1 L7,4 L0,2 Z " fill="#56696E" transform="translate(9,69)"/>
<path d="M0,0 L3,0 L2,4 L-3,5 L-3,2 Z " fill="#697281" transform="translate(120,69)"/>
<path d="M0,0 L1,3 L3,3 L3,5 L-5,5 L-4,2 L0,2 Z " fill="#030D15" transform="translate(42,63)"/>
<path d="M0,0 L5,1 L6,5 L1,5 Z " fill="#3C4B4C" transform="translate(13,63)"/>
<path d="M0,0 L4,2 L4,4 L0,3 L0,5 L-3,5 L-1,1 Z " fill="#101A1A" transform="translate(52,51)"/>
<path d="M0,0 L7,1 L9,3 L2,4 L2,2 L0,2 Z " fill="#243436" transform="translate(72,48)"/>
<path d="M0,0 L3,1 L3,4 L1,4 L2,7 L-2,9 Z " fill="#33343E" transform="translate(121,43)"/>
<path d="M0,0 L1,3 L3,3 L3,6 L1,6 L1,11 L0,8 L-2,8 Z " fill="#1A1E27" transform="translate(3,39)"/>
<path d="M0,0 L2,1 L1,5 L-5,4 L-5,1 L0,2 Z " fill="#010303" transform="translate(99,32)"/>
<path d="M0,0 L2,2 L1,5 L-5,3 L-6,1 Z " fill="#030308" transform="translate(102,3)"/>
<path d="M0,0 L3,0 L3,6 L0,7 Z " fill="#546F81" transform="translate(0,0)"/>
<path d="M0,0 L7,0 L7,2 L2,4 L2,2 L0,2 Z " fill="#151720" transform="translate(15,77)"/>
<path d="M0,0 L5,2 L7,4 L5,4 L4,7 L3,3 L0,3 Z " fill="#213835" transform="translate(23,68)"/>
<path d="M0,0 L3,1 L5,0 L4,6 L0,4 Z " fill="#3E4248" transform="translate(125,34)"/>
<path d="M0,0 L4,1 L4,6 L0,5 Z " fill="#374B3E" transform="translate(146,14)"/>
<path d="M0,0 L4,0 L4,3 L-3,4 L-3,1 Z " fill="#758087" transform="translate(20,2)"/>
<path d="M0,0 L6,0 L3,3 L-4,3 Z " fill="#9DA0AE" transform="translate(114,81)"/>
<path d="M0,0 L4,1 L4,3 L1,3 L1,5 L-3,5 L-3,3 L0,3 Z " fill="#6B8189" transform="translate(113,64)"/>
<path d="M0,0 L4,1 L6,5 L2,6 L2,1 Z " fill="#3E484B" transform="translate(21,56)"/>
<path d="M0,0 L6,0 L10,2 L8,4 L0,2 Z " fill="#1B1F22" transform="translate(14,58)"/>
<path d="M0,0 L5,0 L5,3 L-1,4 Z " fill="#040104" transform="translate(136,51)"/>
<path d="M0,0 L2,0 L3,2 L3,8 L0,5 Z " fill="#73777E" transform="translate(1,48)"/>
<path d="M0,0 L2,3 L0,8 L-3,8 L-2,2 L0,2 Z " fill="#181822" transform="translate(119,46)"/>
<path d="M0,0 L2,0 L2,7 L-1,7 Z " fill="#090B0F" transform="translate(130,34)"/>
<path d="M0,0 L1,2 L3,3 L-1,5 L-5,5 L-4,2 L0,2 Z " fill="#121C22" transform="translate(69,35)"/>
<path d="M0,0 L4,1 L2,3 L2,6 L0,9 L-1,1 Z " fill="#23311F" transform="translate(146,22)"/>
<path d="M0,0 L5,1 L5,4 L0,4 L0,2 L-2,1 Z " fill="#3F454A" transform="translate(109,17)"/>
<path d="M0,0 L4,4 L5,7 L3,9 L-1,1 Z " fill="#7C858E" transform="translate(132,13)"/>
<path d="M0,0 L6,2 L8,3 L8,5 L3,4 L3,2 L0,2 Z " fill="#3D464D" transform="translate(112,13)"/>
<path d="M0,0 L5,1 L5,6 L4,4 L0,3 Z " fill="#020711" transform="translate(113,3)"/>
<path d="M0,0 L7,0 L11,3 L5,3 L5,1 L1,2 Z " fill="#63717B" transform="translate(106,0)"/>
<path d="M0,0 L5,0 L5,3 L-1,3 Z " fill="#152717" transform="translate(135,81)"/>
<path d="M0,0 L4,1 L8,3 L8,5 L-1,2 Z " fill="#65696F" transform="translate(20,79)"/>
<path d="M0,0 L5,1 L5,3 L7,4 L1,4 Z " fill="#061314" transform="translate(30,70)"/>
<path d="M0,0 L3,0 L3,2 L6,3 L-1,4 L-4,2 L0,2 Z " fill="#141F27" transform="translate(61,52)"/>
<path d="M0,0 L8,2 L8,4 L2,4 Z " fill="#121C23" transform="translate(23,51)"/>
<path d="M0,0 L1,0 L1,8 L-1,8 L-2,3 Z " fill="#04060C" transform="translate(148,37)"/>
<path d="M0,0 L3,1 L1,1 L1,3 L4,3 L4,6 L0,5 Z " fill="#050E1F" transform="translate(107,73)"/>
<path d="M0,0 L3,0 L3,2 L-5,5 L-3,1 Z " fill="#5B5D66" transform="translate(130,55)"/>
<path d="M0,0 L1,3 L3,4 L2,6 L-3,6 L-3,4 L0,4 Z " fill="#2E2D34" transform="translate(141,50)"/>
<path d="M0,0 L5,1 L4,5 L1,4 L1,2 L-1,1 Z " fill="#0F1920" transform="translate(54,47)"/>
<path d="M0,0 L1,0 L1,10 L0,6 L-2,6 Z " fill="#5B6265" transform="translate(145,34)"/>
<path d="M0,0 L5,2 L3,4 L-2,5 Z " fill="#0D1B23" transform="translate(126,18)"/>
<path d="M0,0 L6,0 L5,5 L2,4 L2,2 L0,2 Z " fill="#404C51" transform="translate(122,5)"/>
<path d="M0,0 L6,1 L5,3 L-1,3 L-3,1 Z " fill="#151A26" transform="translate(29,6)"/>
<path d="M0,0 L5,1 L4,4 L0,4 Z " fill="#020409" transform="translate(13,0)"/>
<path d="M0,0 L3,0 L3,3 L-5,3 L-1,1 Z " fill="#3B474E" transform="translate(97,69)"/>
<path d="M0,0 L4,1 L6,3 L4,5 L4,3 L0,3 Z " fill="#4C5859" transform="translate(28,65)"/>
<path d="M0,0 L4,1 L4,3 L0,5 L-1,1 Z " fill="#141D25" transform="translate(120,64)"/>
<path d="M0,0 L4,1 L5,6 L4,4 L1,4 Z " fill="#162B2C" transform="translate(9,62)"/>
<path d="M0,0 L2,0 L1,4 L-1,6 L-4,5 L-2,4 Z " fill="#363341" transform="translate(131,58)"/>
<path d="M0,0 L5,1 L5,5 L3,5 L3,2 L1,2 L0,4 L-1,1 Z " fill="#51525C" transform="translate(124,39)"/>
<path d="M0,0 L2,2 L3,7 L-1,5 Z " fill="#626E6B" transform="translate(138,32)"/>
<path d="M0,0 L2,0 L2,4 L-4,4 Z " fill="#232E36" transform="translate(47,33)"/>
<path d="M0,0 L3,2 L4,7 L1,7 Z " fill="#05090B" transform="translate(119,28)"/>
<path d="M0,0 L5,2 L3,3 L3,5 L-1,4 Z " fill="#071013" transform="translate(73,23)"/>
<path d="M0,0 L2,0 L2,2 L6,3 L-1,4 Z " fill="#192326" transform="translate(27,20)"/>
<path d="M0,0 L2,0 L2,2 L9,2 L9,3 L2,3 L1,5 Z " fill="#091112" transform="translate(43,16)"/>
<path d="M0,0 L5,1 L5,3 L0,5 Z " fill="#0F1A1A" transform="translate(69,10)"/>
<path d="M0,0 L6,0 L6,3 L1,2 Z " fill="#808080" transform="translate(144,0)"/>
<path d="M0,0 L6,0 L4,1 L4,3 L0,3 Z " fill="#020809" transform="translate(63,81)"/>
<path d="M0,0 L2,0 L4,5 L0,5 Z " fill="#040716" transform="translate(105,79)"/>
<path d="M0,0 L2,3 L2,5 L-5,4 L-1,3 Z " fill="#1D2C30" transform="translate(17,69)"/>
<path d="M0,0 L4,1 L4,4 L0,4 Z " fill="#030813" transform="translate(67,68)"/>
<path d="M0,0 L3,1 L2,5 L-1,4 Z " fill="#1C2830" transform="translate(38,67)"/>
<path d="M0,0 L7,0 L3,2 L-1,3 Z " fill="#202C34" transform="translate(59,63)"/>
<path d="M0,0 L1,0 L1,8 L-2,7 Z " fill="#6B767F" transform="translate(149,48)"/>
<path d="M0,0 L2,1 L1,6 L-3,4 Z " fill="#090A15" transform="translate(121,50)"/>
<path d="M0,0 L4,1 L3,4 L0,4 Z " fill="#353F45" transform="translate(110,48)"/>
<path d="M0,0 L4,0 L3,3 L0,3 L-1,5 Z " fill="#0D1720" transform="translate(47,40)"/>
<path d="M0,0 L1,0 L1,6 L3,6 L2,9 L0,9 L-1,6 Z " fill="#080C11" transform="translate(6,30)"/>
<path d="M0,0 L1,4 L-1,5 L-3,4 L-3,1 Z " fill="#060C0C" transform="translate(137,31)"/>
<path d="M0,0 L2,0 L1,6 L-1,6 L-1,1 Z " fill="#000204" transform="translate(10,31)"/>
<path d="M0,0 L2,0 L2,7 L0,7 L-1,1 Z " fill="#485546" transform="translate(148,23)"/>
<path d="M0,0 L7,0 L6,3 L3,3 L3,1 Z " fill="#2C3738" transform="translate(67,17)"/>
<path d="M0,0 L4,1 L4,3 L1,3 L0,5 L-1,3 Z " fill="#0B151E" transform="translate(111,10)"/>
<path d="M0,0 L3,0 L3,3 L-2,4 L-2,1 Z " fill="#09141A" transform="translate(73,1)"/>
<path d="M0,0 L4,0 L4,2 L2,3 L-4,3 L0,2 Z " fill="#141922" transform="translate(35,0)"/>
<path d="M0,0 L2,0 L2,5 L0,5 L0,2 L-3,1 Z " fill="#1B201D" transform="translate(125,79)"/>
<path d="M0,0 L4,1 L4,3 L-1,4 Z " fill="#53676C" transform="translate(75,77)"/>
<path d="M0,0 L3,3 L2,5 L-1,4 Z " fill="#1B3239" transform="translate(72,76)"/>
<path d="M0,0 L2,1 L2,4 L-4,3 L0,2 Z " fill="#0D1F21" transform="translate(24,72)"/>
<path d="M0,0 L3,0 L3,2 L5,2 L4,5 L4,3 L0,3 Z " fill="#1F3C3B" transform="translate(2,61)"/>
<path d="M0,0 L3,1 L4,5 L0,4 Z " fill="#0A0B11" transform="translate(145,47)"/>
<path d="M0,0 L3,0 L3,3 L-1,6 Z " fill="#242D32" transform="translate(115,34)"/>
<path d="M0,0 L5,0 L5,3 L1,4 Z " fill="#0D1617" transform="translate(20,31)"/>
<path d="M0,0 L5,0 L5,2 L0,3 Z " fill="#182322" transform="translate(60,17)"/>
<path d="M0,0 L5,2 L1,3 L0,5 L0,3 L-3,2 L0,2 Z " fill="#050D14" transform="translate(23,6)"/>
<path d="M0,0 L4,0 L3,3 L-1,3 Z " fill="#000707" transform="translate(4,6)"/>
<path d="M0,0 L4,0 L2,4 L0,4 Z " fill="#141F26" transform="translate(104,3)"/>
<path d="M0,0 L2,0 L3,5 L-1,4 Z " fill="#212024" transform="translate(140,0)"/>
<path d="M0,0 L4,0 L4,3 L0,3 Z " fill="#0A100D" transform="translate(0,81)"/>
<path d="M0,0 L2,0 L3,4 L0,5 L-2,3 L1,3 Z " fill="#343F42" transform="translate(18,65)"/>
<path d="M0,0 L4,0 L4,3 L0,3 Z " fill="#010505" transform="translate(0,66)"/>
<path d="M0,0 L3,1 L2,4 L-1,3 Z " fill="#111A21" transform="translate(34,53)"/>
<path d="M0,0 L2,0 L3,5 L0,5 Z " fill="#1B2427" transform="translate(39,48)"/>
<path d="M0,0 L4,0 L4,3 L0,3 Z " fill="#10191A" transform="translate(99,46)"/>
<path d="M0,0 L2,0 L5,4 L0,4 Z " fill="#0A070F" transform="translate(129,42)"/>
<path d="M0,0 L4,0 L4,3 L-1,3 Z " fill="#0A1926" transform="translate(53,40)"/>
<path d="M0,0 L4,1 L4,3 L-2,3 Z " fill="#1D2728" transform="translate(52,27)"/>
<path d="M0,0 L4,2 L2,3 L0,7 Z " fill="#040C1E" transform="translate(139,6)"/>
<path d="M0,0 L4,2 L2,3 L1,5 L-1,1 Z " fill="#2C2E3A" transform="translate(100,6)"/>
<path d="M0,0 L6,2 L6,3 L1,3 Z " fill="#9EB5C6" transform="translate(5,81)"/>
<path d="M0,0 L4,1 L4,3 L0,3 Z " fill="#73968C" transform="translate(0,77)"/>
<path d="M0,0 L2,0 L1,5 L-1,5 Z " fill="#1D1C27" transform="translate(129,66)"/>
<path d="M0,0 L4,1 L4,3 L0,3 Z " fill="#0C1A1A" transform="translate(140,66)"/>
<path d="M0,0 L2,0 L2,2 L4,2 L4,4 L0,3 Z " fill="#5C827F" transform="translate(4,64)"/>
<path d="M0,0 L4,1 L4,3 L-1,3 Z " fill="#2C373D" transform="translate(108,53)"/>
<path d="M0,0 L4,2 L0,4 Z " fill="#1F1823" transform="translate(138,48)"/>
<path d="M0,0 L3,1 L2,4 L-1,3 Z " fill="#1C252C" transform="translate(127,26)"/>
<path d="M0,0 L1,3 L-4,4 L-2,3 L-2,1 Z " fill="#0E1917" transform="translate(6,20)"/>
<path d="M0,0 L3,1 L3,3 L-1,5 Z " fill="#49574D" transform="translate(1,20)"/>
<path d="M0,0 L4,1 L1,2 L0,4 Z " fill="#010505" transform="translate(73,7)"/>
<path d="M0,0 L2,0 L3,3 L-3,3 Z " fill="#434D4C" transform="translate(68,4)"/>
<path d="M0,0 L5,2 L5,4 L0,2 Z " fill="#222A2E" transform="translate(122,0)"/>
<path d="M0,0 L3,0 L2,4 L0,4 Z " fill="#5A837E" transform="translate(5,0)"/>
<path d="M0,0 L2,0 L0,4 L-2,5 Z " fill="#111429" transform="translate(12,77)"/>
<path d="M0,0 L3,1 L1,1 L2,5 L-1,4 Z " fill="#18212A" transform="translate(68,62)"/>
<path d="M0,0 L3,1 L3,4 L1,4 L1,2 L-1,1 Z " fill="#16222B" transform="translate(62,56)"/>
<path d="M0,0 L5,0 L1,3 L-1,1 Z " fill="#030D0F" transform="translate(72,55)"/>
<path d="M0,0 L3,0 L3,4 L1,4 Z " fill="#131B1E" transform="translate(102,40)"/>
<path d="M0,0 L3,0 L2,4 L0,3 Z " fill="#080D10" transform="translate(122,26)"/>
<path d="M0,0 L5,1 L5,3 L1,2 Z " fill="#8D9F9E" transform="translate(145,12)"/>
<path d="M0,0 L4,0 L2,4 L2,2 L0,2 Z " fill="#11100F" transform="translate(136,0)"/>
<path d="M0,0 L3,3 L-2,2 Z " fill="#061520" transform="translate(9,75)"/>
<path d="M0,0 L1,2 L3,3 L0,4 L-3,2 L0,2 Z " fill="#445356" transform="translate(141,69)"/>
<path d="M0,0 L4,3 L2,4 L-1,1 Z " fill="#33454E" transform="translate(115,62)"/>
<path d="M0,0 L3,1 L3,3 L0,4 Z " fill="#152127" transform="translate(121,57)"/>
<path d="M0,0 L2,0 L2,4 L0,4 L-1,1 Z " fill="#9A9CA7" transform="translate(143,40)"/>
<path d="M0,0 L4,0 L4,2 L1,3 Z " fill="#182228" transform="translate(79,36)"/>
<path d="M0,0 L2,1 L0,5 L0,3 L-2,2 L0,2 Z " fill="#060B0C" transform="translate(99,32)"/>
<path d="M0,0 L2,4 L0,6 L-1,2 Z " fill="#09121B" transform="translate(77,30)"/>
<path d="M0,0 L3,1 L3,3 L0,3 Z " fill="#182D28" transform="translate(23,68)"/>
<path d="M0,0 L3,1 L3,3 L0,3 Z " fill="#515C5F" transform="translate(16,65)"/>
<path d="M0,0 L3,0 L2,3 L0,3 Z " fill="#061718" transform="translate(33,63)"/>
<path d="M0,0 L3,0 L3,3 L0,2 Z " fill="#373832" transform="translate(137,57)"/>
<path d="M0,0 L1,2 L3,3 L0,4 Z " fill="#293336" transform="translate(123,30)"/>
<path d="M0,0 L2,1 L2,4 L0,4 L-1,1 Z " fill="#020B11" transform="translate(54,30)"/>
<path d="M0,0 L2,0 L0,4 L-1,1 Z " fill="#090C12" transform="translate(3,28)"/>
<path d="M0,0 L2,3 L0,5 L-1,2 Z " fill="#6F797F" transform="translate(135,17)"/>
<path d="M0,0 L3,0 L1,4 Z " fill="#091715" transform="translate(3,15)"/>
<path d="M0,0 L3,1 L3,3 L0,2 Z " fill="#1F292E" transform="translate(53,52)"/>
<path d="M0,0 L3,1 L3,3 L0,2 Z " fill="#182129" transform="translate(23,51)"/>
<path d="M0,0 L2,2 L-2,2 Z " fill="#050F16" transform="translate(59,49)"/>
<path d="M0,0 L2,0 L1,3 L-1,3 Z " fill="#0B1316" transform="translate(90,29)"/>
<path d="M0,0 L2,0 L1,3 L-1,3 Z " fill="#0F181A" transform="translate(28,27)"/>
<path d="M0,0 L3,1 L1,3 Z " fill="#242B2F" transform="translate(21,59)"/>
<path d="M0,0 L2,2 L-1,3 Z " fill="#1C2728" transform="translate(58,27)"/>
</svg>
