<?xml version="1.0" encoding="UTF-8"?>
<!-- Generator: visioncortex VTracer 0.6.5 -->
<svg version="1.1" xmlns="http://www.w3.org/2000/svg" width="150" height="84">
<path d="M0,0 L150,0 L150,84 L0,84 Z " fill="#02070A" transform="translate(0,0)"/>
<path d="M0,0 L102,0 L102,84 L48,84 L46,81 L47,79 L26,79 L27,77 L35,74 L42,73 L43,72 L48,72 L47,68 L53,67 L55,69 L65,70 L66,68 L69,66 L69,58 L71,51 L73,50 L71,49 L71,46 L73,46 L73,43 L67,44 L67,46 L61,50 L59,50 L59,53 L50,55 L52,49 L55,50 L57,46 L59,47 L58,44 L60,44 L59,43 L60,39 L60,42 L63,42 L63,31 L57,33 L54,33 L54,31 L52,31 L52,33 L49,33 L48,35 L43,35 L43,25 L39,21 L36,14 L32,13 L31,9 L28,10 L30,12 L17,11 L13,13 L12,12 L6,11 L6,10 L11,10 L11,8 L19,8 L18,7 L4,6 L1,5 L2,10 L5,11 L5,13 L-1,12 L-1,10 L-14,11 L-18,11 L-17,9 L-15,10 L-15,8 L-9,8 L-9,6 L-1,3 Z M71,61 Z M70,62 Z " fill="#080A0E" transform="translate(48,0)"/>
<path d="M0,0 L18,0 L17,4 L9,6 L9,8 L3,8 L3,10 L1,11 L10,10 L12,9 L18,9 L17,12 L23,13 L19,8 L18,4 L22,5 L36,6 L37,7 L44,8 L44,9 L34,9 L29,8 L29,10 L26,11 L30,12 L30,10 L32,11 L34,12 L35,10 L46,11 L45,9 L49,9 L50,13 L55,14 L57,18 L57,21 L61,23 L62,25 L62,34 L66,35 L67,32 L70,33 L70,31 L72,31 L72,33 L81,31 L82,37 L81,42 L77,43 L79,43 L79,45 L81,46 L78,46 L77,47 L75,47 L73,52 L72,49 L70,49 L69,54 L77,53 L77,50 L83,46 L85,46 L85,44 L91,43 L91,46 L89,46 L89,49 L93,50 L89,51 L88,63 L87,67 L83,70 L79,71 L72,69 L68,68 L65,68 L66,72 L60,74 L53,75 L45,78 L63,78 L65,79 L66,84 L46,84 L46,82 L44,82 L44,80 L37,79 L41,76 L42,73 L55,70 L57,70 L58,66 L58,68 L62,68 L62,62 L64,62 L64,60 L59,59 L53,57 L52,55 L47,55 L45,48 L52,49 L52,47 L54,47 L55,42 L56,41 L54,40 L54,38 L59,36 L59,34 L57,36 L53,35 L55,31 L57,30 L55,27 L56,24 L50,24 L45,23 L48,25 L46,27 L41,29 L39,30 L39,28 L36,28 L36,26 L31,25 L34,24 L35,21 L37,22 L37,20 L35,19 L39,18 L39,19 L45,20 L46,16 L52,18 L51,16 L43,16 L37,17 L31,16 L27,17 L22,17 L22,19 L12,19 L15,14 L6,14 L6,16 L10,17 L11,20 L9,20 L9,22 L11,21 L21,21 L21,23 L12,23 L8,24 L3,24 L3,26 L-4,28 L-16,29 L-18,27 L-18,20 L-13,16 L-11,16 L-12,13 L-15,11 L-10,10 L-10,8 L0,8 L0,6 L-2,5 L0,5 L-1,1 Z M89,61 Z M88,62 Z " fill="#010306" transform="translate(30,0)"/>
<path d="M0,0 L1,4 L3,4 L4,9 L1,7 L2,12 L1,18 L3,18 L3,23 L5,23 L5,26 L13,25 L12,22 L15,21 L15,23 L25,22 L25,23 L32,23 L33,15 L38,16 L39,18 L38,20 L36,21 L36,23 L38,23 L38,21 L50,23 L52,23 L52,25 L54,25 L54,27 L45,26 L41,27 L41,29 L36,29 L36,31 L44,29 L48,29 L55,29 L55,31 L59,29 L60,26 L62,25 L60,23 L62,23 L61,20 L59,20 L58,17 L59,14 L53,16 L52,11 L56,10 L60,11 L61,12 L61,10 L65,10 L66,8 L67,13 L73,12 L75,15 L84,18 L84,20 L82,20 L82,26 L78,26 L75,29 L62,31 L61,35 L60,36 L64,38 L64,40 L66,40 L66,42 L-10,42 L-10,5 L-8,5 L-7,9 L-2,10 L-3,6 L-5,4 L0,4 Z " fill="#080E11" transform="translate(10,42)"/>
<path d="M0,0 L2,0 L2,2 L6,3 L4,7 L6,7 L7,10 L7,17 L4,23 L6,23 L5,26 L4,26 L2,33 L-4,35 L-5,39 L-3,40 L-4,47 L-7,47 L-7,49 L-10,49 L-11,52 L-13,52 L-13,54 L-15,54 L-14,57 L-9,55 L-9,57 L-12,57 L-12,64 L-35,64 L-37,61 L-36,59 L-57,59 L-56,57 L-48,54 L-41,53 L-40,52 L-35,52 L-36,48 L-30,47 L-28,49 L-18,50 L-17,48 L-14,46 L-14,38 L-12,31 L-10,30 L-12,29 L-12,26 L-10,26 L-10,23 L-12,22 L-8,22 L-6,26 L-7,23 L-8,16 L-10,9 L-13,6 L-12,4 L-6,8 L-5,10 L-4,23 L-1,21 L-1,17 L1,17 L1,13 L3,13 L1,3 Z M-12,41 Z M-13,42 Z " fill="#10181B" transform="translate(131,20)"/>
<path d="M0,0 L2,0 L2,2 L11,1 L14,6 L15,8 L11,6 L9,5 L9,7 L11,8 L9,10 L13,13 L11,14 L11,17 L17,15 L12,9 L17,11 L21,15 L21,17 L24,15 L24,12 L22,12 L22,10 L26,12 L36,18 L37,22 L33,21 L32,21 L35,25 L36,36 L39,42 L35,40 L35,37 L31,37 L31,39 L27,39 L27,41 L21,45 L19,45 L19,48 L10,50 L12,44 L15,45 L17,41 L19,42 L18,39 L20,39 L19,38 L20,34 L20,37 L23,37 L23,26 L17,28 L14,28 L14,26 L12,26 L12,28 L9,28 L8,30 L3,30 L3,20 L-1,16 L-1,6 L-7,6 L-7,4 L-4,2 L0,2 Z " fill="#10171D" transform="translate(88,5)"/>
<path d="M0,0 L64,0 L70,5 L74,7 L76,12 L82,14 L83,19 L79,19 L79,17 L77,17 L77,15 L75,15 L75,12 L73,12 L73,10 L71,10 L71,8 L67,7 L67,10 L70,11 L68,11 L68,13 L71,13 L71,15 L75,17 L79,21 L81,25 L77,24 L76,20 L74,20 L70,16 L62,14 L61,11 L65,12 L65,9 L61,8 L58,6 L57,9 L56,10 L53,11 L50,7 L42,7 L42,5 L40,5 L40,7 L33,9 L33,11 L39,11 L40,14 L38,18 L36,14 L32,13 L31,9 L28,10 L30,12 L17,11 L13,13 L12,12 L6,11 L6,10 L11,10 L11,8 L19,8 L18,7 L4,6 L1,5 L2,10 L5,11 L5,13 L-1,12 L-1,10 L-14,11 L-18,11 L-17,9 L-15,10 L-15,8 L-9,8 L-9,6 L-1,3 Z " fill="#0F171F" transform="translate(48,0)"/>
<path d="M0,0 L10,0 L13,1 L12,5 L19,5 L20,3 L27,3 L29,2 L35,3 L41,2 L49,2 L50,5 L44,4 L43,7 L36,7 L35,7 L35,9 L33,9 L32,12 L34,13 L34,15 L38,16 L40,14 L44,12 L42,9 L50,10 L54,11 L55,16 L56,18 L52,20 L52,22 L56,21 L58,20 L57,24 L52,25 L52,27 L55,28 L53,30 L52,34 L50,34 L50,36 L43,35 L43,37 L39,38 L39,35 L37,35 L37,38 L33,37 L33,31 L34,30 L42,29 L35,28 L35,26 L30,27 L32,20 L31,21 L26,21 L27,14 L24,14 L25,10 L20,11 L9,11 L11,9 L19,10 L19,8 L7,9 L7,7 L9,7 L7,4 L4,3 L4,1 L-1,2 Z " fill="#091310" transform="translate(32,13)"/>
<path d="M0,0 L6,1 L9,5 L9,14 L13,15 L14,12 L17,13 L17,11 L19,11 L19,13 L28,11 L29,17 L28,22 L24,23 L26,23 L26,25 L28,26 L25,26 L24,27 L22,27 L20,32 L19,29 L17,29 L16,34 L20,34 L20,36 L14,38 L13,41 L15,41 L15,43 L13,43 L13,46 L10,46 L9,42 L11,42 L11,40 L6,39 L0,37 L-1,35 L-6,35 L-8,28 L-1,29 L-1,27 L1,27 L2,22 L3,21 L1,20 L1,18 L6,16 L6,4 L0,2 Z " fill="#060C10" transform="translate(83,20)"/>
<path d="M0,0 L30,0 L30,8 L20,8 L20,10 L18,12 L19,16 L13,20 L13,27 L11,28 L5,26 L4,29 L3,29 L3,22 L4,20 L2,20 L2,26 L0,26 Z " fill="#05090C" transform="translate(0,0)"/>
<path d="M0,0 L30,0 L30,32 L28,32 L28,29 L24,27 L22,24 L20,25 L20,22 L18,22 L15,19 L14,17 L12,17 L11,12 L9,12 L9,10 L7,10 L5,5 L3,5 L3,2 L0,2 Z " fill="#0F1C21" transform="translate(120,0)"/>
<path d="M0,0 L3,1 L1,2 L2,5 L-3,8 L-5,9 L-4,11 L-6,12 L-7,17 L-5,17 L-5,15 L0,16 L1,18 L4,18 L4,21 L2,21 L2,23 L-8,28 L-12,28 L-12,32 L-15,32 L-15,27 L-17,26 L-17,28 L-20,28 L-20,34 L-26,34 L-26,27 L-23,27 L-23,25 L-28,28 L-30,27 L-29,24 L-27,24 L-27,22 L-24,19 L-21,19 L-21,17 L-18,17 L-17,10 L-20,9 L-19,4 L-9,5 L-9,7 L-3,6 L-3,3 L-1,3 Z " fill="#030706" transform="translate(145,50)"/>
<path d="M0,0 L2,3 L2,5 L8,4 L10,7 L19,10 L19,12 L17,12 L17,18 L13,18 L10,21 L-3,23 L-4,27 L-21,27 L-21,24 L-8,23 L-5,18 L-3,17 L-5,15 L-3,15 L-4,12 L-6,12 L-7,9 L-6,6 L-12,8 L-13,3 L-9,2 L-5,3 L-4,4 L-4,2 L0,2 Z " fill="#0E1921" transform="translate(75,50)"/>
<path d="M0,0 L1,4 L3,4 L4,9 L1,7 L2,12 L1,18 L3,18 L3,23 L5,23 L5,26 L7,26 L7,28 L10,27 L11,29 L5,29 L5,32 L-2,34 L-1,37 L-3,38 L-1,42 L-10,42 L-10,5 L-8,5 L-7,9 L-2,10 L-3,6 L-5,4 L0,4 Z " fill="#405050" transform="translate(10,42)"/>
<path d="M0,0 L2,4 L1,8 L4,8 L4,43 L-21,43 L-21,37 L-18,37 L-18,35 L-15,36 L-16,41 L-13,41 L-13,37 L-5,34 L-2,32 L1,32 L1,30 L3,30 L3,27 L-1,28 L-2,25 L-6,24 L-6,26 L-8,26 L-8,21 L-6,17 L0,14 L1,10 L-1,10 L-2,12 L-4,12 L-4,15 L-10,16 L-10,13 L-6,13 L-6,11 L-4,11 L-5,6 L-2,5 Z " fill="#7F8D9A" transform="translate(146,41)"/>
<path d="M0,0 L4,1 L11,3 L15,3 L16,1 L17,8 L11,10 L16,11 L16,13 L13,14 L12,17 L-2,17 L-4,14 L-3,12 L-24,12 L-23,10 L-15,7 L-8,6 L-7,5 L-2,5 L-3,1 Z " fill="#080E16" transform="translate(98,67)"/>
<path d="M0,0 L4,2 L7,3 L7,6 L4,6 L4,8 L12,9 L16,12 L16,14 L18,14 L19,18 L23,19 L23,17 L21,16 L25,15 L27,17 L28,27 L26,27 L26,31 L24,31 L25,36 L21,38 L19,31 L19,22 L17,21 L19,21 L18,17 L13,15 L7,11 L4,9 L4,11 L6,11 L6,14 L8,15 L3,16 L1,12 L-5,9 L0,14 L-7,16 L-8,12 L-7,11 L-10,8 L-9,4 L-4,6 L-3,1 L-1,2 Z " fill="#090E13" transform="translate(106,6)"/>
<path d="M0,0 L9,0 L15,2 L22,2 L24,3 L36,5 L46,8 L46,10 L7,10 L7,8 L-2,7 L-2,9 L-5,9 L-7,4 L-10,1 L-3,2 L4,4 L4,3 L2,3 L2,1 Z " fill="#192629" transform="translate(26,74)"/>
<path d="M0,0 L5,0 L4,4 L7,4 L6,11 L13,9 L12,15 L10,15 L10,17 L15,16 L15,18 L22,18 L23,20 L11,20 L11,18 L6,17 L5,17 L3,17 L2,20 L1,20 L2,13 L-1,13 L-1,15 L-6,15 L-3,12 L4,9 L2,7 L-1,9 L-11,8 L-12,6 L-12,8 L-15,9 L-12,10 L-12,12 L-18,11 L-18,9 L-22,8 L-23,10 L-26,8 L-21,5 L-14,6 L-15,3 L-11,1 Z " fill="#020705" transform="translate(52,23)"/>
<path d="M0,0 L3,0 L3,3 L9,1 L9,7 L12,6 L13,12 L9,16 L11,17 L8,19 L3,19 L5,18 L5,16 L-6,18 L-6,16 L-9,18 L-14,18 L-14,16 L-11,15 L-9,16 L-9,14 L-13,13 L0,12 L4,14 L4,12 L2,12 L2,10 L-3,11 L-10,9 L-12,8 L-12,10 L-14,10 L-15,6 L-12,7 L-11,5 L-2,3 L-2,1 Z " fill="#01050A" transform="translate(60,55)"/>
<path d="M0,0 L2,0 L2,2 L6,3 L4,7 L6,7 L7,10 L7,17 L4,23 L6,23 L5,26 L4,26 L2,33 L-4,35 L-5,37 L-8,36 L-7,32 L-5,26 L-8,21 L-9,10 L-13,6 L-12,4 L-6,8 L-5,10 L-4,23 L-1,21 L-1,17 L1,17 L1,13 L3,13 L1,3 Z " fill="#161F25" transform="translate(131,20)"/>
<path d="M0,0 L28,0 L27,2 L18,5 L10,9 L8,9 L9,13 L7,18 L0,20 Z " fill="#3C4844" transform="translate(0,0)"/>
<path d="M0,0 L8,0 L6,7 L11,9 L9,4 L14,6 L14,25 L11,25 L9,19 L8,14 L6,14 L6,17 L3,17 L3,15 L-2,13 L-2,10 L-4,10 L-4,8 L0,8 L-2,4 L-5,2 Z " fill="#050E14" transform="translate(136,2)"/>
<path d="M0,0 L16,0 L22,5 L26,7 L28,12 L34,14 L35,19 L31,19 L31,17 L29,17 L29,15 L27,15 L27,12 L25,12 L25,10 L23,10 L23,8 L19,7 L19,10 L22,11 L20,11 L20,13 L23,13 L23,15 L27,17 L31,21 L33,25 L29,24 L28,20 L26,20 L22,16 L14,14 L13,11 L17,12 L17,9 L13,8 L11,6 L3,3 Z " fill="#31484B" transform="translate(96,0)"/>
<path d="M0,0 L2,3 L2,5 L8,4 L10,7 L19,10 L19,12 L17,12 L17,18 L13,18 L12,15 L5,15 L6,12 L8,12 L6,8 L4,11 L-6,12 L-7,9 L-6,6 L-12,8 L-13,3 L-9,2 L-5,3 L-4,4 L-4,2 L0,2 Z " fill="#172126" transform="translate(75,50)"/>
<path d="M0,0 L13,0 L24,2 L26,2 L26,5 L20,5 L19,6 L4,6 L1,5 L2,10 L5,11 L5,13 L-1,12 L-1,10 L-14,11 L-18,11 L-17,9 L-15,10 L-15,8 L-9,8 L-9,6 L-1,3 Z " fill="#15252B" transform="translate(48,0)"/>
<path d="M0,0 L2,0 L2,2 L11,1 L14,6 L15,8 L11,6 L9,5 L9,7 L11,8 L9,10 L13,13 L10,13 L9,17 L8,18 L2,18 L-1,16 L-1,6 L-7,6 L-7,4 L-4,2 L0,2 Z " fill="#242A34" transform="translate(88,5)"/>
<path d="M0,0 L5,4 L5,7 L7,7 L7,15 L10,17 L10,19 L2,19 L3,24 L-3,25 L-3,1 Z " fill="#020403" transform="translate(3,53)"/>
<path d="M0,0 L2,4 L1,8 L4,8 L4,29 L3,27 L-1,28 L-2,25 L-6,24 L-6,26 L-8,26 L-8,21 L-6,17 L0,14 L1,10 L-1,10 L-2,12 L-4,12 L-4,15 L-10,16 L-10,13 L-6,13 L-6,11 L-4,11 L-5,6 L-2,5 Z " fill="#242735" transform="translate(146,41)"/>
<path d="M0,0 L3,4 L6,10 L3,16 L0,16 L1,21 L-1,21 L-1,23 L-9,25 L-11,24 L-11,22 L-8,22 L-7,14 L-5,14 L-4,12 L-6,12 L-5,8 L-3,4 L-1,4 Z " fill="#131D22" transform="translate(141,31)"/>
<path d="M0,0 L5,1 L6,3 L5,5 L3,6 L3,8 L5,8 L5,6 L17,8 L19,8 L19,10 L21,10 L21,12 L12,11 L8,12 L8,14 L3,14 L3,16 L7,16 L7,18 L-1,17 L-5,15 L-7,15 L-7,13 L-5,13 L-5,11 L-7,11 L-7,9 L-1,8 Z " fill="#081016" transform="translate(43,57)"/>
<path d="M0,0 L4,1 L11,3 L15,4 L15,6 L6,9 L-4,11 L-18,11 L-18,9 L-15,7 L-8,6 L-7,5 L-2,5 L-3,1 Z " fill="#1E262D" transform="translate(98,67)"/>
<path d="M0,0 L2,0 L2,2 L4,2 L4,0 L9,1 L10,5 L14,5 L14,7 L8,9 L7,12 L9,12 L9,14 L7,14 L7,17 L4,17 L3,13 L5,13 L5,11 L0,10 L-6,8 L-7,5 L-10,3 L-2,1 Z " fill="#030A10" transform="translate(89,49)"/>
<path d="M0,0 L3,0 L6,6 L2,9 L4,10 L4,12 L6,13 L2,13 L2,15 L-4,19 L-6,19 L-6,22 L-15,24 L-13,18 L-10,19 L-8,15 L-6,16 L-7,13 L-5,13 L-6,12 L-5,8 L-5,11 L-2,11 L-2,6 L0,6 L-1,2 Z " fill="#1B252B" transform="translate(113,31)"/>
<path d="M0,0 L14,2 L27,6 L27,8 L3,8 L3,5 L-1,6 L-3,5 L-3,3 L-1,3 Z " fill="#0F2020" transform="translate(45,76)"/>
<path d="M0,0 L6,0 L4,1 L4,3 L7,4 L5,6 L4,10 L2,10 L2,12 L-5,11 L-5,13 L-9,14 L-9,11 L-11,11 L-11,14 L-15,13 L-15,7 L-14,6 L-1,4 L1,8 L1,4 Z " fill="#1A2624" transform="translate(80,37)"/>
<path d="M0,0 L4,0 L4,2 L-5,4 L-9,7 L-4,8 L-4,10 L-9,11 L-6,12 L-6,15 L-16,14 L-20,12 L-19,7 L-15,6 L-15,4 L-11,4 L-11,2 Z " fill="#111B22" transform="translate(47,39)"/>
<path d="M0,0 L15,0 L22,4 L26,6 L24,9 L23,10 L20,11 L17,7 L9,7 L9,4 L2,3 L2,1 Z " fill="#03080E" transform="translate(81,0)"/>
<path d="M0,0 L5,0 L5,5 L8,5 L6,2 L9,2 L11,5 L12,16 L15,22 L11,20 L11,17 L5,18 L5,16 L2,15 L6,11 L3,6 L3,4 L0,4 Z " fill="#04070C" transform="translate(112,25)"/>
<path d="M0,0 L8,1 L8,4 L6,4 L6,6 L-4,11 L-8,11 L-8,15 L-11,15 L-11,10 L-12,8 L-7,8 L-6,4 L-3,4 L-3,2 L0,2 Z " fill="#142727" transform="translate(141,67)"/>
<path d="M0,0 L2,0 L4,8 L3,12 L0,13 L2,19 L-2,18 L-5,15 L-5,13 L-7,13 L-7,1 L-5,1 L-6,7 L-3,7 Z " fill="#192127" transform="translate(7,34)"/>
<path d="M0,0 L10,1 L11,6 L14,6 L14,4 L23,5 L23,7 L-1,7 L-2,4 L-4,3 L0,2 Z " fill="#04070B" transform="translate(10,77)"/>
<path d="M0,0 L6,1 L3,4 L3,6 L-4,6 L-11,8 L-14,8 L-15,11 L-19,11 L-19,16 L-21,16 L-21,10 L-17,9 L-17,7 L-21,8 L-23,5 L-9,4 L-2,3 L-2,1 Z " fill="#0A1414" transform="translate(35,23)"/>
<path d="M0,0 L1,4 L3,4 L4,9 L1,7 L2,12 L1,18 L3,18 L2,22 L0,21 L0,18 L-2,18 L-5,13 L-10,12 L-10,5 L-8,5 L-7,9 L-2,10 L-3,6 L-5,4 L0,4 Z " fill="#293235" transform="translate(10,42)"/>
<path d="M0,0 L4,0 L4,3 L-2,7 L-2,14 L-4,15 L-10,13 L-11,16 L-12,16 L-12,9 L-6,5 L-4,5 L-4,2 L0,2 Z " fill="#0B1219" transform="translate(15,13)"/>
<path d="M0,0 L6,0 L12,2 L12,4 L5,4 L5,6 L11,6 L10,9 L8,8 L7,11 L0,10 L0,8 L-5,9 L-3,3 L1,3 Z " fill="#1E2921" transform="translate(67,31)"/>
<path d="M0,0 L9,0 L13,4 L13,6 L5,6 L6,11 L0,12 Z " fill="#21251B" transform="translate(0,66)"/>
<path d="M0,0 L8,1 L12,2 L13,7 L14,9 L8,11 L8,9 L2,10 L1,5 L2,3 Z " fill="#0C1217" transform="translate(74,22)"/>
<path d="M0,0 L3,1 L6,1 L10,2 L10,7 L9,5 L5,7 L8,9 L-1,12 L-1,10 L-4,9 L-4,6 L-2,4 Z " fill="#030C0D" transform="translate(24,30)"/>
<path d="M0,0 L3,0 L3,3 L8,5 L8,7 L11,7 L11,4 L13,4 L15,9 L16,15 L19,15 L19,20 L17,20 L17,17 L13,15 L11,12 L9,13 L9,10 L7,10 L4,7 L3,5 L1,5 Z " fill="#242C36" transform="translate(131,12)"/>
<path d="M0,0 L4,0 L4,2 L6,3 L4,3 L4,5 L2,5 L3,8 L8,6 L8,8 L5,8 L5,15 L-4,15 L-3,11 L0,11 L0,9 L-4,9 L-5,11 L-5,8 L0,6 Z " fill="#58685E" transform="translate(114,69)"/>
<path d="M0,0 L2,1 L6,3 L6,5 L9,6 L8,12 L10,13 L0,13 L-1,9 L1,5 L-1,4 L-1,6 L-3,6 L-2,2 L0,2 Z " fill="#051416" transform="translate(57,38)"/>
<path d="M0,0 L14,0 L13,2 L4,5 L-4,9 L-6,9 L-6,11 L-13,12 L-9,8 L-7,8 L-7,6 L-1,4 Z " fill="#6D7876" transform="translate(14,0)"/>
<path d="M0,0 L1,0 L1,11 L-14,11 L-14,9 L-10,9 L-10,7 L-5,4 L-1,3 Z " fill="#3C394C" transform="translate(149,73)"/>
<path d="M0,0 L4,1 L11,3 L15,4 L15,6 L6,9 L1,9 L2,7 L-1,6 L-1,1 Z " fill="#22373D" transform="translate(98,67)"/>
<path d="M0,0 L5,0 L11,5 L15,7 L17,12 L23,14 L24,19 L20,19 L20,17 L18,17 L18,15 L16,15 L16,12 L14,12 L14,10 L12,10 L12,8 L7,6 L7,4 L3,2 Z " fill="#6F7677" transform="translate(107,0)"/>
<path d="M0,0 L7,1 L14,3 L25,8 L25,9 L17,9 L17,7 L8,6 L8,8 L5,8 L3,3 Z " fill="#304A4F" transform="translate(16,75)"/>
<path d="M0,0 L4,5 L5,7 L1,5 L-1,4 L-1,6 L1,7 L-1,9 L-4,10 L-4,12 L-6,12 L-5,16 L-7,16 L-10,12 L-10,9 L-7,8 L-6,6 L-3,6 L-4,4 L-8,2 Z " fill="#283036" transform="translate(98,6)"/>
<path d="M0,0 L14,0 L14,8 L9,6 L11,11 L6,9 L7,4 L8,2 L1,2 Z " fill="#4D5B6B" transform="translate(136,0)"/>
<path d="M0,0 L8,0 L8,2 L11,2 L11,5 L13,5 L16,10 L16,13 L12,12 L9,7 L2,3 Z " fill="#0E1311" transform="translate(112,0)"/>
<path d="M0,0 L8,0 L7,2 L15,3 L15,5 L10,5 L10,7 L14,7 L14,9 L6,8 L2,6 L0,6 L0,4 L2,4 L2,2 L0,2 Z " fill="#1C252B" transform="translate(36,66)"/>
<path d="M0,0 L5,0 L3,1 L8,2 L8,4 L5,5 L4,8 L-4,8 L-5,2 Z " fill="#2B4047" transform="translate(106,76)"/>
<path d="M0,0 L2,4 L1,8 L4,8 L4,12 L2,12 L1,10 L-1,10 L-2,12 L-4,12 L-4,15 L-10,16 L-10,13 L-6,13 L-6,11 L-4,11 L-5,6 L-2,5 Z " fill="#8C969E" transform="translate(146,41)"/>
<path d="M0,0 L3,0 L6,6 L2,9 L4,10 L4,12 L6,13 L-1,14 L-2,12 L-2,6 L0,6 L-1,2 Z " fill="#2D393F" transform="translate(113,31)"/>
<path d="M0,0 L16,2 L16,5 L10,5 L9,6 L-5,6 L-5,5 L5,3 L0,2 L0,4 L-4,4 L-5,1 Z " fill="#486468" transform="translate(58,0)"/>
<path d="M0,0 L2,0 L3,2 L3,9 L0,15 L2,15 L1,18 L0,18 L-2,24 L-5,24 L-1,8 L0,7 Z " fill="#6C747D" transform="translate(135,28)"/>
<path d="M0,0 L9,1 L13,0 L21,0 L22,3 L16,2 L15,5 L8,5 L7,5 L7,7 L3,5 L0,2 Z " fill="#172025" transform="translate(60,15)"/>
<path d="M0,0 L10,0 L13,1 L12,5 L19,6 L16,8 L7,9 L7,7 L9,7 L7,4 L4,3 L4,1 L-1,2 Z " fill="#151F1E" transform="translate(32,13)"/>
<path d="M0,0 L3,2 L5,1 L6,11 L5,16 L8,17 L3,18 L3,13 L1,13 L1,4 Z " fill="#111910" transform="translate(10,47)"/>
<path d="M0,0 L14,0 L13,3 L11,3 L11,5 L2,8 L3,4 L-1,2 Z " fill="#131C23" transform="translate(47,53)"/>
<path d="M0,0 L5,0 L5,5 L8,5 L6,2 L9,2 L11,5 L12,11 L9,11 L9,7 L7,7 L7,10 L5,10 L3,4 L0,4 Z " fill="#03070C" transform="translate(112,25)"/>
<path d="M0,0 L3,1 L3,3 L10,4 L8,5 L8,7 L1,8 L1,6 L-3,6 L-5,2 Z " fill="#01040A" transform="translate(80,0)"/>
<path d="M0,0 L3,2 L3,4 L1,5 L3,9 L-6,9 L-6,3 L0,2 Z " fill="#0F1D23" transform="translate(6,75)"/>
<path d="M0,0 L7,1 L8,5 L10,3 L13,3 L12,6 L7,7 L8,10 L6,10 L5,7 L6,4 L0,6 L-1,1 Z " fill="#061016" transform="translate(63,52)"/>
<path d="M0,0 L7,4 L8,6 L9,21 L7,21 L5,17 L4,6 L0,2 Z " fill="#4A535B" transform="translate(118,24)"/>
<path d="M0,0 L7,1 L8,4 L6,6 L6,7 L-4,7 L-2,5 L-2,1 Z " fill="#060F0F" transform="translate(46,12)"/>
<path d="M0,0 L3,4 L6,10 L3,13 L0,13 L0,8 L-2,8 L-3,4 L-1,4 Z " fill="#34353F" transform="translate(141,31)"/>
<path d="M0,0 L9,0 L8,4 L5,5 L4,7 L2,7 L2,9 L0,9 Z " fill="#585E5A" transform="translate(0,0)"/>
<path d="M0,0 L4,0 L4,3 L-5,9 L-10,10 L-9,7 L-4,5 L-4,2 L0,2 Z " fill="#1C232C" transform="translate(15,13)"/>
<path d="M0,0 L8,0 L18,3 L18,5 L5,4 L0,3 Z " fill="#4D6265" transform="translate(54,79)"/>
<path d="M0,0 L4,1 L4,6 L0,7 L-1,10 L-6,10 L-7,7 L0,3 Z " fill="#525960" transform="translate(146,52)"/>
<path d="M0,0 L2,0 L2,2 L8,2 L8,4 L-6,6 L-10,3 L-2,1 Z " fill="#101B22" transform="translate(89,49)"/>
<path d="M0,0 L10,2 L10,4 L14,6 L18,10 L20,14 L16,13 L15,9 L13,9 L9,5 L1,3 Z " fill="#455054" transform="translate(109,11)"/>
<path d="M0,0 L5,0 L2,1 L2,3 L-2,3 L-2,6 L-8,9 L-11,8 L-11,14 L-13,14 L-13,8 L-6,5 L-3,5 L-3,1 Z " fill="#0E161A" transform="translate(13,12)"/>
<path d="M0,0 L5,0 L4,5 L-2,6 L-2,8 L-7,9 L-7,7 L-5,7 L-4,4 L-1,3 Z " fill="#020406" transform="translate(9,0)"/>
<path d="M0,0 L2,0 L2,2 L9,3 L11,4 L12,2 L17,3 L22,4 L22,5 L1,5 Z " fill="#060F12" transform="translate(47,79)"/>
<path d="M0,0 L4,0 L4,2 L-5,4 L-10,6 L-15,6 L-15,4 L-11,4 L-11,2 Z " fill="#1D272C" transform="translate(47,39)"/>
<path d="M0,0 L8,0 L9,4 L6,6 L7,9 L2,9 L3,2 L0,2 Z " fill="#0B1416" transform="translate(56,25)"/>
<path d="M0,0 L5,0 L5,3 L3,3 L4,8 L-2,9 L-2,4 L0,4 Z " fill="#000001" transform="translate(2,69)"/>
<path d="M0,0 L6,0 L6,2 L4,2 L4,8 L0,8 L-2,4 L-2,1 Z " fill="#212C34" transform="translate(88,60)"/>
<path d="M0,0 L4,2 L14,8 L15,12 L13,12 L9,8 L5,9 L4,6 L2,5 L2,2 L0,2 Z " fill="#454E54" transform="translate(110,15)"/>
<path d="M0,0 L1,3 L-1,6 L-8,7 L-8,9 L-14,10 L-15,8 L-6,4 L-2,3 L-2,1 Z " fill="#9FAFC5" transform="translate(149,70)"/>
<path d="M0,0 L2,1 L6,4 L3,6 L2,9 L4,10 L3,13 L0,13 L-1,9 L1,5 L-1,4 L-1,6 L-3,6 L-2,2 L0,2 Z " fill="#0A1911" transform="translate(57,38)"/>
<path d="M0,0 L10,3 L10,4 L-6,4 L-6,1 Z " fill="#354449" transform="translate(60,73)"/>
<path d="M0,0 L9,2 L12,3 L12,5 L15,4 L17,6 L12,7 L2,3 L0,2 Z " fill="#08151A" transform="translate(16,72)"/>
<path d="M0,0 L3,1 L6,0 L13,0 L13,2 L8,3 L2,3 L1,6 L-2,4 Z " fill="#01060E" transform="translate(52,71)"/>
<path d="M0,0 L5,2 L7,2 L7,7 L-2,8 L-2,4 L3,5 L2,3 L-1,3 Z " fill="#131F20" transform="translate(37,30)"/>
<path d="M0,0 L5,0 L3,1 L4,5 L-9,7 L-9,5 L-2,3 Z " fill="#00050A" transform="translate(81,64)"/>
<path d="M0,0 L8,3 L4,5 L4,8 L-2,9 L-1,6 L1,6 L-1,1 Z " fill="#1D272E" transform="translate(82,56)"/>
<path d="M0,0 L3,0 L4,6 L3,11 L0,11 L0,7 L-2,7 L-3,10 L-4,6 L0,6 Z " fill="#000408" transform="translate(108,31)"/>
<path d="M0,0 L2,0 L3,4 L6,5 L6,7 L10,9 L10,12 L8,12 L3,7 L0,7 Z " fill="#4A5357" transform="translate(0,47)"/>
<path d="M0,0 L2,1 L1,2 L6,3 L6,5 L0,6 L0,4 L-5,5 L-10,4 L-9,2 Z " fill="#0C151D" transform="translate(37,44)"/>
<path d="M0,0 L9,0 L9,2 L2,3 L3,8 L-1,7 L-1,1 Z " fill="#192A2A" transform="translate(66,43)"/>
<path d="M0,0 L1,0 L1,11 L-3,11 L-4,3 L-1,3 Z " fill="#454451" transform="translate(149,73)"/>
<path d="M0,0 L6,0 L10,3 L10,5 L12,5 L12,7 L8,7 L8,5 L1,4 Z " fill="#0E2024" transform="translate(64,77)"/>
<path d="M0,0 L3,1 L1,2 L2,5 L-3,8 L-5,9 L-4,11 L-7,11 L-8,7 L-3,6 L-3,3 L-1,3 Z " fill="#04070A" transform="translate(145,50)"/>
<path d="M0,0 L2,0 L2,2 L7,4 L9,7 L2,9 L1,5 L2,4 L-1,1 Z " fill="#03070B" transform="translate(97,13)"/>
<path d="M0,0 L1,4 L1,6 L-9,6 L-10,3 L-4,3 Z " fill="#0C131F" transform="translate(29,2)"/>
<path d="M0,0 L2,2 L1,6 L-7,8 L-14,8 L-11,6 L-1,5 L-2,1 Z " fill="#17232D" transform="translate(86,64)"/>
<path d="M0,0 L3,3 L3,7 L-6,9 L-4,3 L-1,4 Z " fill="#1B262C" transform="translate(104,46)"/>
<path d="M0,0 L3,1 L2,4 L0,4 L-1,6 L-8,6 L-8,3 L-1,1 Z " fill="#111C1C" transform="translate(54,29)"/>
<path d="M0,0 L7,0 L5,2 L2,2 L1,5 L-3,5 L-3,10 L-5,10 L-5,4 L-1,2 Z " fill="#161F22" transform="translate(19,29)"/>
<path d="M0,0 L5,2 L5,5 L-2,6 L-3,1 Z " fill="#242B29" transform="translate(78,26)"/>
<path d="M0,0 L4,0 L4,2 L6,2 L9,7 L9,9 L11,9 L11,12 L9,12 L9,10 L7,10 L5,5 L3,5 L3,2 L0,2 Z " fill="#616E78" transform="translate(120,0)"/>
<path d="M0,0 L6,3 L3,4 L3,6 L1,6 L2,10 L0,10 L-3,6 L-3,3 L0,2 Z " fill="#3F454F" transform="translate(91,12)"/>
<path d="M0,0 L11,2 L11,3 L3,5 L1,5 L-3,4 Z M7,0 L9,1 Z " fill="#030809" transform="translate(27,10)"/>
<path d="M0,0 L6,0 L6,2 L8,2 L8,4 L11,5 L11,7 L5,6 L5,4 L0,3 Z " fill="#0B1416" transform="translate(42,6)"/>
<path d="M0,0 L3,0 L3,4 L-3,5 L-8,6 L-8,3 L-6,4 L-6,2 L0,2 Z " fill="#3B4447" transform="translate(39,6)"/>
<path d="M0,0 L1,3 L3,4 L2,5 L4,7 L-5,6 L-6,8 L-8,4 L0,3 Z " fill="#06110F" transform="translate(15,71)"/>
<path d="M0,0 L8,1 L8,4 L6,4 L6,6 L0,6 L2,1 Z " fill="#22243C" transform="translate(141,67)"/>
<path d="M0,0 L3,1 L1,1 L0,6 L-4,7 L-4,4 L-7,5 L-7,2 Z " fill="#0C1C1F" transform="translate(75,44)"/>
<path d="M0,0 L4,3 L5,9 L1,11 L-1,4 Z " fill="#0E131B" transform="translate(126,33)"/>
<path d="M0,0 L1,3 L4,3 L4,1 L13,2 L13,4 L-2,4 L-2,2 L0,2 Z " fill="#0C1D23" transform="translate(20,80)"/>
<path d="M0,0 L3,1 L1,8 L-3,8 L-3,2 L0,2 Z " fill="#5E7070" transform="translate(128,76)"/>
<path d="M0,0 L5,0 L4,3 L-7,2 L-8,4 L-13,3 L-14,1 Z " fill="#121C1E" transform="translate(26,27)"/>
<path d="M0,0 L1,2 L12,3 L12,8 L11,6 L7,7 L6,4 L2,3 L2,5 L0,5 Z " fill="#2D333D" transform="translate(138,62)"/>
<path d="M0,0 L3,0 L3,3 L8,5 L8,8 L11,8 L10,10 L4,7 L3,5 L1,5 Z " fill="#667381" transform="translate(131,12)"/>
<path d="M0,0 L2,1 L1,3 L3,3 L4,1 L4,6 L0,6 L-5,2 Z " fill="#030908" transform="translate(136,2)"/>
<path d="M0,0 L9,0 L14,3 L14,4 L9,4 L4,3 L2,3 L2,1 Z " fill="#484D54" transform="translate(26,74)"/>
<path d="M0,0 L2,0 L2,5 L-1,5 L-1,7 L-4,7 L-5,9 L-6,4 L-2,4 L-2,2 L0,2 Z " fill="#485153" transform="translate(125,62)"/>
<path d="M0,0 L7,0 L4,3 L6,4 L6,6 L-2,5 L0,4 Z " fill="#081319" transform="translate(72,61)"/>
<path d="M0,0 L4,2 L4,4 L2,4 L1,6 L-1,8 L-4,6 L-3,1 L-1,2 Z " fill="#030C0F" transform="translate(106,6)"/>
<path d="M0,0 L4,0 L5,4 L2,4 L2,8 L-1,8 L0,4 L-2,2 L0,2 Z M5,1 Z " fill="#010705" transform="translate(8,9)"/>
<path d="M0,0 L14,0 L13,2 L7,3 L7,1 L0,4 Z " fill="#49525C" transform="translate(14,0)"/>
<path d="M0,0 L3,1 L2,5 L-5,5 L-4,1 Z " fill="#B1C3A7" transform="translate(115,79)"/>
<path d="M0,0 L4,0 L4,2 L1,3 L0,6 L-6,6 L-5,3 Z " fill="#2C3F3D" transform="translate(110,78)"/>
<path d="M0,0 L1,2 L-1,7 L-3,7 L-3,12 L-6,11 L-5,7 L-1,1 Z " fill="#647279" transform="translate(129,45)"/>
<path d="M0,0 L3,0 L6,6 L3,8 L-1,4 Z " fill="#282F37" transform="translate(113,31)"/>
<path d="M0,0 L6,0 L4,7 L6,8 L1,7 L1,3 L-1,3 Z " fill="#253338" transform="translate(138,2)"/>
<path d="M0,0 L2,3 L1,8 L-6,8 L-8,6 L0,5 L-1,2 Z " fill="#0F1C1D" transform="translate(113,68)"/>
<path d="M0,0 L6,0 L12,2 L12,4 L2,4 Z " fill="#242E2A" transform="translate(67,31)"/>
<path d="M0,0 L7,0 L13,3 L13,4 L5,4 L5,2 L0,2 Z " fill="#7A9699" transform="translate(28,80)"/>
<path d="M0,0 L4,1 L4,6 L-1,6 L-1,1 Z " fill="#3C4F53" transform="translate(98,67)"/>
<path d="M0,0 L7,0 L7,2 L11,3 L11,5 L2,3 L2,1 Z " fill="#323D45" transform="translate(81,0)"/>
<path d="M0,0 L7,1 L7,3 L3,3 L2,6 L0,6 L-1,1 Z " fill="#1A262C" transform="translate(63,52)"/>
<path d="M0,0 L2,0 L2,4 L4,4 L3,8 L-2,7 Z " fill="#0F151F" transform="translate(119,32)"/>
<path d="M0,0 L3,0 L4,4 L7,4 L7,9 L5,9 L5,6 L1,4 Z " fill="#7D8691" transform="translate(143,23)"/>
<path d="M0,0 L8,2 L6,6 L5,7 L2,8 L2,2 L0,2 Z " fill="#081D21" transform="translate(99,3)"/>
<path d="M0,0 L2,0 L2,5 L5,6 L-6,7 L-4,4 L1,4 Z " fill="#26363C" transform="translate(95,68)"/>
<path d="M0,0 L9,0 L9,2 L11,2 L11,4 L-5,2 L-5,1 Z " fill="#212E35" transform="translate(53,65)"/>
<path d="M0,0 L4,1 L1,1 L2,6 L0,6 L-1,8 L-1,6 L-5,6 L-5,4 L-1,4 Z " fill="#1D2B30" transform="translate(140,46)"/>
<path d="M0,0 L4,1 L6,4 L6,7 L2,6 L0,3 Z " fill="#020309" transform="translate(122,6)"/>
<path d="M0,0 L8,0 L9,2 L7,5 L5,5 L5,2 L2,3 L0,2 Z " fill="#071014" transform="translate(88,0)"/>
<path d="M0,0 L5,1 L9,3 L9,4 L0,4 Z " fill="#8A9DAF" transform="translate(0,80)"/>
<path d="M0,0 L5,0 L4,3 L2,3 L2,5 L-5,6 L-4,4 L-1,2 Z " fill="#273239" transform="translate(56,53)"/>
<path d="M0,0 L1,0 L0,9 L-3,9 L-3,1 L0,2 Z " fill="#0E131B" transform="translate(129,23)"/>
<path d="M0,0 L7,1 L7,3 L0,2 L0,4 L-4,4 L-5,1 Z " fill="#5A7278" transform="translate(58,0)"/>
<path d="M0,0 L5,0 L12,6 L8,7 L7,4 L3,2 Z " fill="#92A19E" transform="translate(107,0)"/>
<path d="M0,0 L7,1 L7,4 L0,4 L-3,2 Z " fill="#1B393C" transform="translate(41,80)"/>
<path d="M0,0 L3,0 L3,3 L5,3 L5,6 L0,6 Z " fill="#00020D" transform="translate(97,78)"/>
<path d="M0,0 L5,0 L9,4 L9,5 L4,5 Z " fill="#142825" transform="translate(106,2)"/>
<path d="M0,0 L7,1 L11,3 L11,5 L6,4 L0,1 Z " fill="#66858D" transform="translate(16,75)"/>
<path d="M0,0 L2,0 L0,5 L3,6 L-1,8 L-1,4 L-3,4 L-3,1 Z " fill="#282F3D" transform="translate(141,68)"/>
<path d="M0,0 L2,0 L2,2 L7,1 L6,4 L4,3 L3,6 L0,5 Z " fill="#02070A" transform="translate(107,20)"/>
<path d="M0,0 L4,0 L4,2 L6,3 L4,3 L4,5 L2,5 L1,8 Z " fill="#53615A" transform="translate(114,69)"/>
<path d="M0,0 L4,1 L3,3 L7,3 L7,5 L-1,4 Z " fill="#212B2D" transform="translate(43,70)"/>
<path d="M0,0 L2,1 L2,3 L12,3 L12,4 L3,5 L-3,3 L0,2 Z " fill="#0F1F25" transform="translate(22,70)"/>
<path d="M0,0 L5,2 L5,4 L3,6 L-1,5 Z " fill="#6A6F60" transform="translate(10,63)"/>
<path d="M0,0 L4,1 L2,7 L-1,8 Z " fill="#080F15" transform="translate(58,56)"/>
<path d="M0,0 L7,0 L3,2 L2,5 L-2,5 L-2,2 L0,2 Z " fill="#000307" transform="translate(137,45)"/>
<path d="M0,0 L2,0 L2,2 L4,2 L5,0 L4,6 L2,6 L2,3 L-2,5 Z " fill="#07090F" transform="translate(137,37)"/>
<path d="M0,0 L3,0 L3,6 L0,6 L-2,1 Z " fill="#0B1014" transform="translate(147,21)"/>
<path d="M0,0 L3,0 L3,2 L7,0 L8,5 L4,5 L4,3 L2,3 L2,1 Z " fill="#3E484A" transform="translate(123,14)"/>
<path d="M0,0 L1,2 L3,3 L1,3 L1,5 L-6,6 L-2,2 L0,2 Z " fill="#626A64" transform="translate(7,6)"/>
<path d="M0,0 L9,0 L11,1 L11,3 L1,2 Z " fill="#93A2B2" transform="translate(136,0)"/>
<path d="M0,0 L6,1 L2,2 L2,6 L-1,6 L-1,1 Z " fill="#27342D" transform="translate(131,76)"/>
<path d="M0,0 L5,0 L5,3 L3,3 L2,7 L2,4 L0,4 Z " fill="#0D1917" transform="translate(2,69)"/>
<path d="M0,0 L5,1 L5,3 L-4,4 L-4,2 L0,2 Z " fill="#263038" transform="translate(36,41)"/>
<path d="M0,0 L8,1 L8,4 L0,3 Z " fill="#242D31" transform="translate(17,42)"/>
<path d="M0,0 L1,0 L1,6 L-2,6 L-2,4 L-4,4 L-3,1 Z " fill="#02050A" transform="translate(141,13)"/>
<path d="M0,0 L7,0 L7,3 L1,3 Z " fill="#293436" transform="translate(129,0)"/>
<path d="M0,0 L13,0 L11,1 L11,3 L0,1 Z " fill="#04080C" transform="translate(61,0)"/>
<path d="M0,0 L4,0 L4,2 L2,2 L2,4 L-4,4 L-4,2 L0,2 Z " fill="#12162D" transform="translate(139,80)"/>
<path d="M0,0 L2,0 L2,2 L5,3 L2,3 L1,6 L-2,4 Z " fill="#0F1B1F" transform="translate(52,71)"/>
<path d="M0,0 L3,2 L5,1 L6,6 L4,8 L2,7 Z " fill="#141E21" transform="translate(10,47)"/>
<path d="M0,0 L4,0 L6,5 L0,6 L0,4 L2,4 L2,1 Z " fill="#252E35" transform="translate(119,42)"/>
<path d="M0,0 L1,0 L2,10 L-1,10 L-1,2 Z " fill="#364044" transform="translate(7,34)"/>
<path d="M0,0 L4,4 L1,5 L0,8 L-1,8 L-1,1 Z " fill="#182027" transform="translate(4,21)"/>
<path d="M0,0 L2,0 L2,2 L6,3 L4,7 L6,8 L3,8 L0,2 Z " fill="#3E454A" transform="translate(131,20)"/>
<path d="M0,0 L1,4 L-8,3 L-5,1 Z " fill="#2A3536" transform="translate(56,18)"/>
<path d="M0,0 L5,1 L2,2 L2,4 L-3,5 L-3,3 L-1,3 Z " fill="#161E18" transform="translate(5,4)"/>
<path d="M0,0 L4,1 L4,3 L2,3 L2,6 L-1,6 L-2,2 L0,2 Z " fill="#091219" transform="translate(94,60)"/>
<path d="M0,0 L5,4 L1,7 L0,6 Z " fill="#091410" transform="translate(121,54)"/>
<path d="M0,0 L6,0 L2,4 L-1,3 Z " fill="#050F14" transform="translate(84,54)"/>
<path d="M0,0 L1,0 L1,7 L-2,7 L-2,1 Z " fill="#081009" transform="translate(13,53)"/>
<path d="M0,0 L2,1 L2,4 L-4,5 L-4,2 L0,2 Z " fill="#5B6869" transform="translate(140,52)"/>
<path d="M0,0 L3,1 L3,3 L7,5 L7,8 L5,8 L0,1 Z " fill="#8B948E" transform="translate(3,51)"/>
<path d="M0,0 L3,0 L1,6 L-4,6 L0,5 L0,3 L-2,2 L0,2 Z " fill="#111C18" transform="translate(51,36)"/>
<path d="M0,0 L7,0 L8,4 L7,2 L0,3 Z " fill="#1E292A" transform="translate(52,16)"/>
<path d="M0,0 L4,0 L4,6 L0,4 Z " fill="#1B2F2E" transform="translate(146,13)"/>
<path d="M0,0 L9,0 L5,2 L4,4 L0,3 Z " fill="#2D3A41" transform="translate(49,0)"/>
<path d="M0,0 L8,0 L4,1 L3,4 L0,4 Z " fill="#070A08" transform="translate(0,0)"/>
<path d="M0,0 L8,2 L8,4 L-1,3 Z " fill="#617E81" transform="translate(64,80)"/>
<path d="M0,0 L3,1 L3,3 L1,4 L-5,4 L-2,3 L-2,1 Z " fill="#4D6468" transform="translate(110,70)"/>
<path d="M0,0 L6,0 L2,2 L2,6 L0,6 Z " fill="#50574C" transform="translate(0,67)"/>
<path d="M0,0 L4,0 L3,4 L0,5 L-2,4 L-2,2 L0,2 Z " fill="#101A1E" transform="translate(134,64)"/>
<path d="M0,0 L2,0 L2,5 L4,5 L3,9 L1,8 L1,5 L-1,4 L1,4 Z " fill="#495040" transform="translate(9,55)"/>
<path d="M0,0 L3,1 L1,2 L2,5 L0,6 L-3,5 L-3,3 L-1,3 Z " fill="#272F36" transform="translate(145,50)"/>
<path d="M0,0 L6,0 L6,3 L-1,2 Z " fill="#0B131C" transform="translate(35,51)"/>
<path d="M0,0 L4,0 L4,3 L-2,4 L-2,2 L0,2 Z " fill="#4D565C" transform="translate(15,13)"/>
<path d="M0,0 L4,1 L5,3 L-3,4 L-3,2 Z " fill="#122A31" transform="translate(97,74)"/>
<path d="M0,0 L5,1 L6,6 L3,6 L2,1 Z " fill="#060C10" transform="translate(3,47)"/>
<path d="M0,0 L3,2 L3,8 L0,8 Z " fill="#464652" transform="translate(147,41)"/>
<path d="M0,0 L3,0 L3,2 L1,2 L1,7 L-1,7 L-1,1 Z " fill="#363F44" transform="translate(15,32)"/>
<path d="M0,0 L5,0 L5,5 L3,3 L0,4 Z " fill="#010306" transform="translate(112,25)"/>
<path d="M0,0 L3,4 L2,6 L-2,5 L-2,2 L0,2 Z " fill="#262D35" transform="translate(94,16)"/>
<path d="M0,0 L4,1 L4,3 L6,4 L1,6 Z " fill="#10181B" transform="translate(115,7)"/>
<path d="M0,0 L6,0 L6,3 L0,3 Z " fill="#242E33" transform="translate(42,6)"/>
<path d="M0,0 L3,1 L2,4 L-2,4 L-2,1 Z " fill="#424D53" transform="translate(88,60)"/>
<path d="M0,0 L4,1 L4,6 L3,3 L1,3 L0,5 L-1,1 Z " fill="#25302C" transform="translate(124,59)"/>
<path d="M0,0 L3,1 L5,1 L3,5 L0,4 Z " fill="#030C12" transform="translate(39,59)"/>
<path d="M0,0 L2,0 L2,8 L-1,7 Z " fill="#111A1F" transform="translate(36,56)"/>
<path d="M0,0 L4,1 L3,5 L0,5 Z " fill="#686E76" transform="translate(146,52)"/>
<path d="M0,0 L4,1 L5,5 L1,5 Z " fill="#152020" transform="translate(21,53)"/>
<path d="M0,0 L3,1 L4,4 L1,7 Z " fill="#54525D" transform="translate(143,37)"/>
<path d="M0,0 L2,1 L2,4 L-2,6 L-2,1 Z " fill="#1B252B" transform="translate(113,36)"/>
<path d="M0,0 L4,1 L4,3 L-1,4 L-3,3 L-3,1 Z " fill="#0D1918" transform="translate(30,31)"/>
<path d="M0,0 L4,2 L0,5 L-2,5 Z " fill="#111913" transform="translate(84,28)"/>
<path d="M0,0 L5,2 L8,4 L8,6 L4,4 Z " fill="#4C5459" transform="translate(100,14)"/>
<path d="M0,0 L7,0 L8,3 L0,2 Z " fill="#2A313B" transform="translate(74,15)"/>
<path d="M0,0 L5,2 L5,5 L2,5 Z " fill="#2A3435" transform="translate(145,6)"/>
<path d="M0,0 L4,0 L4,3 L2,3 L2,5 L0,5 Z " fill="#82897E" transform="translate(0,4)"/>
<path d="M0,0 L5,0 L3,1 L3,3 L-2,4 Z " fill="#030D16" transform="translate(81,64)"/>
<path d="M0,0 L4,0 L4,2 L0,5 L-1,1 Z " fill="#1A232C" transform="translate(33,48)"/>
<path d="M0,0 L2,1 L2,4 L-1,4 L-1,6 L-3,6 L-2,2 L0,2 Z " fill="#111D12" transform="translate(57,38)"/>
<path d="M0,0 L6,0 L4,1 L4,3 L1,4 Z " fill="#2A352C" transform="translate(80,37)"/>
<path d="M0,0 L1,0 L1,5 L4,5 L4,7 L-1,7 Z " fill="#19241F" transform="translate(59,27)"/>
<path d="M0,0 L2,0 L4,5 L-3,4 L0,3 Z " fill="#1A2235" transform="translate(142,16)"/>
<path d="M0,0 L2,0 L2,6 L-1,6 Z " fill="#8A9DA1" transform="translate(131,46)"/>
<path d="M0,0 L2,4 L1,7 L-1,7 Z " fill="#A0A7B1" transform="translate(146,41)"/>
<path d="M0,0 L3,0 L4,6 L2,6 Z " fill="#5F6971" transform="translate(123,39)"/>
<path d="M0,0 L5,0 L5,3 L0,2 Z " fill="#0B151E" transform="translate(19,5)"/>
<path d="M0,0 L4,1 L4,3 L-1,3 Z " fill="#08181D" transform="translate(105,81)"/>
<path d="M0,0 L5,1 L3,5 L1,5 Z " fill="#435D66" transform="translate(101,79)"/>
<path d="M0,0 L2,0 L2,4 L-2,4 Z " fill="#01070A" transform="translate(138,72)"/>
<path d="M0,0 L4,0 L4,3 L0,4 Z " fill="#6B7F7C" transform="translate(5,72)"/>
<path d="M0,0 L4,0 L3,3 L-1,3 Z " fill="#030412" transform="translate(142,70)"/>
<path d="M0,0 L3,0 L3,5 L2,3 L-1,3 Z " fill="#586377" transform="translate(147,65)"/>
<path d="M0,0 L3,3 L2,6 L0,6 Z " fill="#2C363C" transform="translate(104,46)"/>
<path d="M0,0 L5,1 L4,4 L1,4 Z " fill="#223138" transform="translate(56,47)"/>
<path d="M0,0 L3,2 L1,6 L-1,1 Z " fill="#0D1813" transform="translate(80,40)"/>
<path d="M0,0 L4,1 L3,6 L0,2 Z " fill="#1F1A26" transform="translate(146,38)"/>
<path d="M0,0 L1,0 L1,5 L-4,5 L-4,3 L0,2 Z " fill="#1D252B" transform="translate(95,30)"/>
<path d="M0,0 L3,0 L3,2 L-3,4 L-2,1 Z " fill="#2B373A" transform="translate(60,22)"/>
<path d="M0,0 L0,3 L-5,4 L-4,1 Z " fill="#3E464E" transform="translate(10,19)"/>
<path d="M0,0 L2,4 L0,5 L0,3 L-4,4 Z " fill="#191F27" transform="translate(133,17)"/>
<path d="M0,0 L4,2 L5,5 L2,5 L2,2 L0,2 Z " fill="#545A60" transform="translate(110,15)"/>
<path d="M0,0 L3,1 L-1,5 L-3,4 Z " fill="#070D16" transform="translate(27,10)"/>
<path d="M0,0 L3,0 L2,3 L-1,4 L-3,2 Z " fill="#747E85" transform="translate(18,1)"/>
<path d="M0,0 L5,0 L1,4 Z " fill="#262F33" transform="translate(14,0)"/>
<path d="M0,0 L1,3 L-4,5 L-4,3 L-2,3 L-2,1 Z " fill="#B4BBD2" transform="translate(149,70)"/>
<path d="M0,0 L5,1 L6,3 L0,2 Z " fill="#01040A" transform="translate(16,72)"/>
<path d="M0,0 L5,1 L6,3 L0,2 Z " fill="#182127" transform="translate(43,57)"/>
<path d="M0,0 L4,2 L1,5 L-1,3 L1,3 Z " fill="#585D66" transform="translate(115,34)"/>
<path d="M0,0 L5,2 L5,4 L-1,3 Z " fill="#040A09" transform="translate(35,31)"/>
<path d="M0,0 L5,3 L1,4 Z " fill="#849092" transform="translate(114,3)"/>
<path d="M0,0 L5,0 L4,4 Z " fill="#25343A" transform="translate(96,0)"/>
<path d="M0,0 L5,1 L7,3 L2,2 Z " fill="#223D3F" transform="translate(12,75)"/>
<path d="M0,0 L4,1 L3,3 L-1,2 Z " fill="#363F44" transform="translate(43,70)"/>
<path d="M0,0 L5,0 L5,2 L0,3 L-3,1 Z " fill="#4A5058" transform="translate(145,56)"/>
<path d="M0,0 L3,0 L2,3 L-1,4 Z " fill="#03080B" transform="translate(73,55)"/>
<path d="M0,0 L2,1 L2,3 L4,3 L3,6 L1,5 Z " fill="#505C63" transform="translate(133,40)"/>
<path d="M0,0 L2,0 L2,5 L-1,4 Z " fill="#313742" transform="translate(119,32)"/>
<path d="M0,0 L2,0 L2,3 L-3,3 Z " fill="#162020" transform="translate(31,35)"/>
<path d="M0,0 L3,1 L4,4 L0,3 Z " fill="#131E1E" transform="translate(20,36)"/>
<path d="M0,0 L3,0 L2,4 L0,4 L-1,1 Z " fill="#030508" transform="translate(117,16)"/>
<path d="M0,0 L5,2 L4,4 L0,2 Z " fill="#0C1017" transform="translate(91,10)"/>
<path d="M0,0 L3,0 L3,3 L-2,3 L-2,1 Z " fill="#07191E" transform="translate(110,9)"/>
<path d="M0,0 L4,1 L1,4 Z " fill="#080A0D" transform="translate(122,6)"/>
<path d="M0,0 L2,0 L2,3 L-3,2 Z " fill="#515D63" transform="translate(72,2)"/>
<path d="M0,0 L2,0 L2,3 L-2,3 L-2,1 Z " fill="#4B6162" transform="translate(46,81)"/>
<path d="M0,0 L2,0 L3,3 L-2,2 Z " fill="#1B323E" transform="translate(103,77)"/>
<path d="M0,0 L5,0 L4,3 L2,3 L2,1 Z " fill="#2D393D" transform="translate(26,74)"/>
<path d="M0,0 L3,1 L3,3 L-1,3 Z " fill="#020503" transform="translate(10,69)"/>
<path d="M0,0 L2,1 L2,4 L0,4 L0,2 L-3,1 Z " fill="#232A2D" transform="translate(118,67)"/>
<path d="M0,0 L3,1 L2,4 L-1,1 Z " fill="#0D171D" transform="translate(47,53)"/>
<path d="M0,0 L2,1 L2,4 L-1,4 Z " fill="#333943" transform="translate(124,35)"/>
<path d="M0,0 L2,0 L2,4 L-1,3 Z " fill="#333B37" transform="translate(76,28)"/>
<path d="M0,0 L2,0 L1,4 L-3,2 L0,2 Z " fill="#111819" transform="translate(39,13)"/>
<path d="M0,0 L4,1 L-1,4 Z " fill="#050B08" transform="translate(1,13)"/>
<path d="M0,0 L3,1 L3,3 L-2,2 Z " fill="#010102" transform="translate(119,11)"/>
<path d="M0,0 L3,1 L3,3 L1,3 L0,5 Z " fill="#000306" transform="translate(107,7)"/>
<path d="M0,0 L3,1 L4,4 L1,4 Z " fill="#8F9CA3" transform="translate(124,3)"/>
<path d="M0,0 L3,0 L4,3 L0,3 Z " fill="#0F201E" transform="translate(111,4)"/>
<path d="M0,0 L1,3 L-3,4 L-2,1 Z " fill="#272E37" transform="translate(29,2)"/>
<path d="M0,0 L3,0 L2,4 L0,3 Z " fill="#A7B1C0" transform="translate(147,4)"/>
<path d="M0,0 L5,0 L4,3 L2,3 L2,1 Z " fill="#1A262E" transform="translate(81,0)"/>
<path d="M0,0 L5,0 L5,3 L0,1 Z " fill="#07081F" transform="translate(145,0)"/>
<path d="M0,0 L4,2 L0,3 Z " fill="#373F44" transform="translate(36,75)"/>
<path d="M0,0 L4,2 L-1,3 Z " fill="#04131C" transform="translate(58,67)"/>
<path d="M0,0 L2,0 L1,4 L-1,4 Z " fill="#5E676A" transform="translate(125,62)"/>
<path d="M0,0 L3,0 L3,2 L-1,3 Z " fill="#30323E" transform="translate(146,58)"/>
<path d="M0,0 L3,1 L4,4 L1,4 Z " fill="#111B1B" transform="translate(137,57)"/>
<path d="M0,0 L3,1 L3,4 L0,3 Z " fill="#445451" transform="translate(123,53)"/>
<path d="M0,0 L2,0 L3,3 L0,4 Z " fill="#1E242E" transform="translate(132,33)"/>
<path d="M0,0 L4,1 L0,3 Z " fill="#192128" transform="translate(102,30)"/>
<path d="M0,0 L2,0 L3,3 L-1,3 Z " fill="#03090E" transform="translate(108,12)"/>
<path d="M0,0 L3,0 L3,3 L0,3 Z " fill="#060F0A" transform="translate(9,0)"/>
<path d="M0,0 L2,0 L1,4 L-1,1 Z " fill="#141A2E" transform="translate(95,80)"/>
<path d="M0,0 L2,0 L2,3 L-1,3 Z " fill="#03100F" transform="translate(2,73)"/>
<path d="M0,0 L4,2 L2,2 L1,4 Z " fill="#404F3E" transform="translate(116,70)"/>
<path d="M0,0 L3,0 L3,2 L0,3 Z " fill="#06151D" transform="translate(62,71)"/>
<path d="M0,0 L2,1 L2,4 L0,4 L-1,1 Z " fill="#252D2A" transform="translate(13,68)"/>
<path d="M0,0 L3,0 L2,3 L0,3 Z " fill="#273038" transform="translate(63,55)"/>
<path d="M0,0 L3,1 L3,3 L-1,1 Z " fill="#344548" transform="translate(66,48)"/>
<path d="M0,0 L3,0 L1,4 Z " fill="#71808C" transform="translate(143,23)"/>
<path d="M0,0 L3,0 L2,3 L0,3 Z " fill="#4A5559" transform="translate(115,21)"/>
<path d="M0,0 L3,0 L3,3 L0,2 Z " fill="#303A49" transform="translate(142,20)"/>
<path d="M0,0 L3,0 L2,3 L0,3 Z " fill="#0D1817" transform="translate(42,15)"/>
<path d="M0,0 L3,1 L2,4 Z " fill="#6B7B80" transform="translate(147,15)"/>
<path d="M0,0 L2,0 L1,3 L-2,1 Z " fill="#365152" transform="translate(37,79)"/>
<path d="M0,0 L3,1 L3,3 L0,2 Z " fill="#2E3734" transform="translate(67,31)"/>
<path d="M0,0 L3,1 L3,3 L0,2 Z " fill="#343643" transform="translate(79,15)"/>
<path d="M0,0 L3,1 L3,3 L0,2 Z " fill="#182126" transform="translate(50,10)"/>
<path d="M0,0 L3,1 L3,3 L0,2 Z " fill="#909E9B" transform="translate(144,8)"/>
<path d="M0,0 L2,1 L2,3 L-1,3 Z " fill="#3A495B" transform="translate(144,3)"/>
<path d="M0,0 L2,1 L2,3 L-1,2 Z " fill="#212B31" transform="translate(77,58)"/>
<path d="M0,0 L2,2 L-1,2 Z " fill="#626C66" transform="translate(7,54)"/>
</svg>
