<?xml version="1.0" encoding="UTF-8"?>
<!-- Generator: visioncortex VTracer 0.6.5 -->
<svg version="1.1" xmlns="http://www.w3.org/2000/svg" width="150" height="84">
<path d="M0,0 L150,0 L150,84 L0,84 Z " fill="#4D4F5F" transform="translate(0,0)"/>
<path d="M0,0 L24,0 L24,6 L18,9 L17,12 L14,15 L19,14 L20,11 L24,11 L23,16 L28,14 L32,14 L33,12 L37,14 L37,16 L25,17 L25,19 L22,19 L22,17 L16,18 L14,22 L5,24 L6,28 L6,33 L9,33 L8,40 L10,40 L10,46 L15,47 L15,49 L20,48 L22,49 L22,47 L18,46 L18,44 L16,44 L16,42 L14,42 L13,44 L14,38 L12,38 L12,35 L14,35 L12,31 L10,30 L9,32 L7,31 L7,29 L11,28 L11,25 L14,25 L14,23 L16,23 L16,26 L14,26 L16,33 L16,31 L19,31 L19,28 L23,28 L25,32 L25,35 L20,33 L20,41 L25,37 L27,38 L28,39 L30,44 L24,42 L26,46 L28,47 L30,51 L32,51 L32,48 L37,49 L41,54 L41,56 L36,55 L36,57 L41,58 L44,60 L42,61 L47,64 L45,67 L52,70 L61,70 L65,69 L65,67 L57,67 L59,65 L65,65 L65,63 L61,64 L57,64 L57,62 L52,60 L52,57 L61,58 L69,61 L69,64 L76,62 L84,61 L87,61 L87,59 L84,58 L86,58 L87,54 L89,53 L87,51 L95,50 L94,53 L96,54 L96,52 L101,52 L101,51 L96,50 L99,47 L109,47 L110,50 L110,51 L117,49 L121,47 L123,43 L121,41 L121,35 L125,36 L125,30 L123,30 L123,25 L125,25 L127,30 L129,31 L129,34 L135,35 L135,43 L131,51 L132,52 L134,48 L136,48 L137,41 L139,41 L138,49 L136,54 L141,46 L144,49 L136,58 L132,58 L134,63 L131,64 L130,67 L126,68 L128,63 L126,57 L124,56 L124,51 L120,51 L120,54 L116,54 L116,56 L112,58 L110,64 L112,64 L117,64 L116,62 L117,59 L121,60 L120,63 L125,61 L124,64 L119,67 L112,68 L108,71 L107,75 L103,77 L92,79 L86,80 L85,82 L83,78 L80,78 L80,80 L78,80 L78,78 L72,78 L73,72 L64,74 L55,75 L58,77 L55,78 L55,80 L52,83 L41,82 L40,82 L40,84 L0,84 Z " fill="#131517" transform="translate(0,0)"/>
<path d="M0,0 L56,0 L66,3 L66,5 L69,6 L69,9 L74,11 L76,14 L62,14 L64,13 L64,11 L58,11 L57,8 L55,8 L55,10 L53,10 L52,5 L66,8 L61,5 L52,4 L53,1 L39,3 L37,2 L37,4 L48,4 L49,9 L45,10 L41,9 L31,9 L26,10 L19,11 L17,18 L7,19 L3,22 L1,22 L0,27 L5,25 L8,23 L17,22 L16,25 L8,29 L7,32 L4,33 L9,35 L9,41 L15,44 L15,42 L17,42 L17,38 L13,41 L10,41 L10,36 L12,35 L14,31 L16,30 L17,26 L21,24 L29,25 L29,27 L32,27 L32,30 L40,30 L41,33 L45,32 L46,38 L44,39 L44,35 L40,35 L40,37 L34,37 L34,39 L28,39 L28,41 L33,41 L33,43 L31,44 L34,45 L34,49 L30,49 L30,51 L35,50 L36,51 L37,44 L39,44 L39,47 L42,48 L43,52 L48,52 L49,51 L46,51 L48,47 L48,50 L51,50 L48,42 L49,40 L55,42 L57,39 L59,39 L59,33 L63,32 L68,34 L68,39 L63,40 L63,46 L62,48 L64,48 L65,41 L68,41 L69,47 L74,46 L76,41 L78,39 L75,34 L76,31 L78,36 L81,36 L81,34 L79,34 L77,30 L74,28 L79,27 L79,30 L82,31 L82,38 L87,39 L87,46 L93,48 L94,41 L92,41 L94,34 L97,35 L98,41 L100,43 L96,49 L92,51 L84,52 L85,49 L84,48 L75,48 L74,49 L78,51 L77,53 L72,52 L72,54 L68,53 L70,51 L66,53 L63,54 L62,58 L63,61 L52,63 L45,65 L43,64 L45,61 L38,60 L33,58 L28,58 L32,61 L33,64 L41,63 L41,65 L35,66 L41,67 L42,70 L33,71 L26,70 L20,68 L22,64 L16,61 L16,58 L12,57 L12,55 L17,56 L12,49 L8,48 L8,51 L5,52 L4,47 L0,45 L0,42 L6,44 L3,40 L1,39 L-2,41 L-4,41 L-4,33 L1,34 L-1,31 L-1,28 L-5,28 L-5,31 L-7,32 L-8,34 L-10,32 L-10,26 L-8,26 L-8,23 L-10,23 L-10,25 L-13,25 L-13,28 L-17,29 L-17,31 L-12,30 L-10,35 L-12,35 L-12,38 L-10,38 L-10,42 L-8,42 L-8,44 L-6,44 L-6,46 L-2,47 L-2,49 L-9,49 L-9,47 L-14,46 L-14,40 L-16,40 L-15,33 L-18,33 L-19,26 L-19,23 L-10,21 L-8,18 L-2,17 L-2,19 L1,19 L1,17 L4,16 L13,16 L12,14 L8,14 L-1,16 L0,11 L-4,12 L-5,14 L-10,15 L-9,12 L-7,12 L-6,8 L-3,6 L0,6 Z " fill="#383044" transform="translate(24,0)"/>
<path d="M0,0 L17,0 L17,3 L20,3 L20,6 L24,7 L28,8 L28,10 L32,11 L30,13 L30,11 L24,11 L33,17 L32,14 L36,15 L41,20 L44,23 L42,23 L41,25 L37,23 L37,21 L32,21 L32,19 L26,19 L26,21 L21,21 L20,16 L18,16 L19,23 L12,22 L12,25 L9,25 L6,22 L6,20 L-2,21 L-2,18 L0,18 L-3,15 L-9,17 L-7,20 L-17,19 L-18,21 L-20,21 L-20,24 L-23,24 L-22,28 L-16,28 L-11,29 L-8,30 L-5,33 L-6,30 L-2,30 L7,29 L8,32 L12,31 L14,30 L13,25 L16,23 L17,25 L28,25 L31,28 L31,30 L33,29 L32,25 L32,22 L37,24 L39,29 L39,37 L37,37 L36,41 L38,41 L39,46 L37,46 L37,48 L33,47 L31,46 L31,39 L26,38 L25,31 L23,30 L23,27 L20,28 L23,31 L23,34 L25,34 L25,36 L22,36 L20,34 L23,40 L20,41 L18,47 L13,47 L12,41 L9,41 L9,48 L6,49 L4,47 L6,46 L7,40 L11,39 L12,34 L3,33 L4,39 L1,40 L-1,43 L-7,41 L-6,43 L-6,49 L-4,50 L-6,51 L-9,49 L-10,51 L-7,51 L-8,53 L-13,52 L-14,48 L-18,47 L-17,44 L-19,44 L-19,52 L-21,54 L-21,50 L-26,51 L-26,49 L-22,49 L-22,45 L-26,44 L-23,43 L-23,41 L-28,41 L-28,39 L-22,39 L-22,37 L-16,37 L-16,35 L-12,35 L-11,37 L-11,32 L-15,33 L-16,31 L-24,30 L-25,28 L-29,27 L-27,27 L-27,25 L-37,25 L-39,28 L-40,31 L-42,32 L-44,36 L-46,36 L-46,41 L-41,38 L-39,38 L-39,42 L-41,42 L-41,44 L-47,42 L-48,41 L-48,36 L-53,33 L-49,32 L-48,28 L-42,25 L-40,25 L-40,23 L-50,25 L-52,27 L-56,27 L-55,22 L-49,18 L-39,18 L-38,13 L-37,11 L-29,9 L-25,8 L-15,8 L-8,9 L-7,7 L-9,6 L-9,5 L-19,4 L-19,2 L-3,1 L-3,3 L5,4 L11,7 L10,9 L-2,6 L-4,5 L-4,7 L-2,8 L-3,10 L-1,10 L-1,8 L1,8 L2,10 L8,11 L8,13 L11,14 L12,12 L12,14 L19,13 L15,10 L12,10 L12,6 L10,5 L10,3 L5,2 L0,1 Z " fill="#262433" transform="translate(80,0)"/>
<path d="M0,0 L24,0 L24,6 L18,9 L17,12 L14,15 L19,14 L20,11 L24,11 L23,16 L28,14 L32,14 L33,12 L37,14 L37,16 L25,17 L25,19 L22,19 L22,17 L16,18 L14,22 L5,24 L6,28 L6,33 L9,33 L8,40 L10,40 L10,46 L15,47 L15,49 L20,48 L25,54 L24,59 L36,66 L34,68 L36,71 L36,74 L40,74 L40,76 L21,75 L12,69 L0,66 Z " fill="#131116" transform="translate(0,0)"/>
<path d="M0,0 L42,0 L42,42 L36,42 L34,32 L30,30 L30,32 L32,32 L31,36 L29,34 L24,33 L24,30 L22,30 L20,25 L20,21 L15,20 L13,18 L13,15 L6,13 L6,10 L10,11 L10,9 L8,9 L8,7 L15,9 L16,11 L11,10 L11,12 L16,14 L18,15 L18,17 L21,17 L20,13 L23,13 L21,10 L8,5 L1,2 Z " fill="#0C0B12" transform="translate(108,0)"/>
<path d="M0,0 L6,2 L8,7 L8,15 L6,15 L5,19 L7,19 L8,24 L6,24 L6,26 L2,25 L0,24 L0,17 L-5,16 L-6,9 L-8,8 L-8,5 L-11,6 L-8,9 L-8,12 L-6,12 L-6,14 L-9,14 L-11,12 L-8,18 L-11,19 L-13,25 L-18,25 L-19,19 L-22,19 L-22,26 L-25,27 L-27,25 L-25,24 L-24,18 L-20,17 L-19,12 L-28,11 L-27,17 L-30,18 L-32,21 L-38,19 L-37,21 L-37,27 L-35,28 L-37,29 L-40,27 L-41,29 L-38,29 L-39,31 L-44,30 L-45,26 L-49,25 L-48,22 L-50,22 L-50,30 L-52,32 L-52,28 L-57,29 L-57,27 L-53,27 L-53,23 L-57,22 L-54,21 L-54,19 L-59,19 L-59,17 L-53,17 L-53,15 L-47,15 L-47,13 L-43,13 L-42,15 L-41,10 L-38,10 L-36,11 L-37,8 L-33,8 L-24,7 L-23,10 L-19,9 L-17,8 L-18,3 L-15,1 L-14,3 L-3,3 L0,6 L0,8 L2,7 L1,3 Z " fill="#3C3A4F" transform="translate(111,22)"/>
<path d="M0,0 L2,0 L4,5 L6,6 L6,9 L12,10 L12,18 L8,26 L9,27 L11,23 L13,23 L14,16 L16,16 L15,24 L13,29 L18,21 L21,24 L13,33 L9,33 L11,38 L8,39 L7,42 L3,43 L5,38 L3,32 L1,31 L1,26 L-3,26 L-3,29 L-7,29 L-7,31 L-11,33 L-13,39 L-16,42 L-18,42 L-18,44 L-20,44 L-20,46 L-22,46 L-20,42 L-16,40 L-16,38 L-29,39 L-26,36 L-24,36 L-25,33 L-25,32 L-31,32 L-29,36 L-39,39 L-44,40 L-48,41 L-50,46 L-54,46 L-55,41 L-53,41 L-53,39 L-42,36 L-36,36 L-36,34 L-39,33 L-37,33 L-36,29 L-34,28 L-36,26 L-28,25 L-29,28 L-27,29 L-27,27 L-22,27 L-22,26 L-27,25 L-24,22 L-14,22 L-13,25 L-13,26 L-6,24 L-2,22 L0,18 L-2,16 L-2,10 L2,11 L2,5 L0,5 Z " fill="#1F1E2D" transform="translate(123,25)"/>
<path d="M0,0 L0,3 L0,6 L-4,8 L8,8 L8,10 L3,14 L2,16 L4,16 L4,14 L6,14 L6,12 L15,9 L18,9 L17,7 L18,4 L22,5 L21,8 L26,6 L25,9 L20,12 L13,13 L9,16 L8,20 L4,22 L-7,24 L-13,25 L-14,27 L-16,23 L-19,23 L-19,25 L-21,25 L-21,23 L-27,23 L-26,17 L-35,19 L-47,18 L-47,17 L-42,17 L-42,15 L-34,14 L-34,12 L-42,12 L-40,10 L-34,10 L-34,8 L-38,9 L-42,9 L-42,7 L-47,5 L-47,2 L-38,3 L-30,6 L-30,9 L-29,13 L-30,16 L-26,16 L-24,10 L-20,9 L-15,8 L-6,5 L-7,2 Z " fill="#22222E" transform="translate(99,55)"/>
<path d="M0,0 L2,0 L2,38 L-30,38 L-30,36 L-21,33 L-20,31 L-24,31 L-24,33 L-30,33 L-28,31 L-25,31 L-25,27 L-23,27 L-23,25 L-25,25 L-25,23 L-30,26 L-34,29 L-36,29 L-36,27 L-34,27 L-34,25 L-31,25 L-31,23 L-24,19 L-24,21 L-18,20 L-15,17 L-16,12 L-6,10 L-5,6 L-2,6 L-1,2 Z " fill="#242227" transform="translate(148,46)"/>
<path d="M0,0 L24,0 L24,6 L18,9 L17,12 L14,15 L19,14 L20,11 L24,11 L23,16 L28,14 L32,14 L33,12 L37,14 L37,16 L25,17 L25,19 L22,19 L22,17 L16,18 L14,22 L5,24 L6,28 L6,33 L9,33 L9,42 L7,41 L7,39 L5,40 L4,47 L3,45 L1,45 L0,42 Z " fill="#030304" transform="translate(0,0)"/>
<path d="M0,0 L14,0 L11,2 L0,4 L-5,7 L-8,7 L-7,11 L-2,11 L-2,14 L0,14 L0,12 L3,12 L3,10 L5,10 L5,8 L2,8 L2,10 L-2,9 L0,8 L0,5 L5,6 L11,6 L11,3 L14,4 L14,6 L18,6 L22,5 L23,7 L21,8 L23,11 L13,10 L12,12 L10,12 L10,15 L7,15 L8,19 L14,19 L19,20 L22,22 L19,24 L15,24 L14,22 L6,21 L5,19 L1,18 L3,18 L3,16 L-7,16 L-9,19 L-10,22 L-12,23 L-14,27 L-16,27 L-16,32 L-11,29 L-9,29 L-9,33 L-11,33 L-11,35 L-17,33 L-18,32 L-18,27 L-23,24 L-19,23 L-18,19 L-12,16 L-10,16 L-10,14 L-20,16 L-22,18 L-26,18 L-25,13 L-19,9 L-9,9 L-8,4 L-7,2 Z " fill="#0F141F" transform="translate(50,9)"/>
<path d="M0,0 L5,2 L5,4 L3,4 L4,6 L11,6 L11,8 L14,9 L14,11 L17,11 L16,7 L22,7 L22,9 L24,9 L23,2 L25,2 L26,7 L31,7 L31,5 L37,5 L33,7 L34,10 L38,11 L39,15 L36,16 L33,12 L21,12 L20,10 L19,12 L18,19 L13,18 L12,16 L2,17 L2,15 L0,17 L0,19 L-3,18 L-3,16 L-10,16 L-17,14 L-18,10 L-16,9 L-15,6 L-8,4 L-3,5 L-5,2 Z " fill="#393546" transform="translate(75,14)"/>
<path d="M0,0 L4,1 L4,6 L7,7 L9,14 L7,14 L6,17 L2,17 L-3,19 L-3,21 L-6,21 L-6,23 L-8,23 L-8,25 L-2,21 L0,19 L3,19 L3,21 L5,21 L5,23 L3,23 L3,27 L0,28 L4,29 L4,27 L8,27 L7,30 L3,32 L-2,32 L-2,34 L-9,34 L-9,32 L-5,30 L-6,27 L-10,29 L-15,28 L-20,30 L-32,32 L-32,30 L-25,27 L-13,25 L-12,20 L-8,17 L1,15 L5,11 L-1,14 L0,10 L-3,9 L-2,15 L-8,15 L-12,16 L-10,13 L-8,7 L-4,6 L-4,4 L-1,3 Z " fill="#565467" transform="translate(120,50)"/>
<path d="M0,0 L10,1 L10,3 L13,3 L13,6 L21,6 L22,9 L26,8 L27,14 L25,15 L25,11 L21,11 L21,13 L15,13 L15,15 L9,15 L9,17 L6,17 L6,15 L2,16 L2,14 L-1,17 L2,17 L1,21 L2,23 L-1,23 L-2,21 L-2,14 L-6,17 L-9,17 L-9,12 L-7,11 L-5,7 L-3,6 L-2,2 Z " fill="#1F242C" transform="translate(43,24)"/>
<path d="M0,0 L1,2 L5,3 L5,7 L6,13 L9,14 L4,15 L8,18 L9,21 L17,20 L17,22 L11,23 L17,24 L18,27 L9,28 L2,27 L-4,25 L-2,21 L-8,18 L-8,15 L-12,14 L-12,12 L-7,13 L-10,9 L-10,7 L-8,7 L-8,5 L-2,6 L-2,1 Z " fill="#363244" transform="translate(48,43)"/>
<path d="M0,0 L3,0 L3,3 L6,4 L6,11 L11,12 L11,19 L17,21 L18,14 L16,14 L18,7 L21,8 L22,14 L24,16 L20,22 L16,24 L8,25 L9,22 L8,21 L-1,21 L-2,22 L2,24 L1,26 L-4,25 L-4,27 L-8,26 L-6,24 L-12,24 L-12,16 L-11,14 L-8,14 L-7,20 L-2,19 L0,14 L2,12 L-1,7 L0,4 L2,9 L5,9 L5,7 L3,7 L1,3 L-2,1 Z " fill="#4D4D5A" transform="translate(100,27)"/>
<path d="M0,0 L2,0 L2,2 L7,3 L17,9 L15,11 L17,14 L17,17 L21,17 L21,19 L2,18 L-7,12 L-19,9 L-19,6 L-14,7 L-10,8 L-10,10 L-5,8 L-2,8 L-2,6 L3,6 L0,4 L-6,3 L-6,1 Z " fill="#5D5E6C" transform="translate(19,57)"/>
<path d="M0,0 L2,0 L2,3 L0,3 L2,10 L2,8 L5,8 L5,5 L9,5 L11,9 L11,12 L6,10 L6,18 L11,14 L13,15 L14,16 L16,21 L10,19 L12,23 L14,24 L16,28 L18,28 L18,25 L23,26 L27,31 L27,33 L22,32 L22,37 L19,36 L19,32 L14,32 L14,30 L11,29 L11,27 L9,27 L6,24 L4,23 L4,21 L2,21 L2,19 L0,19 L-1,21 L0,15 L-2,15 L-2,12 L0,12 L-2,8 L-4,7 L-5,9 L-7,8 L-7,6 L-3,5 L-3,2 L0,2 Z " fill="#06070C" transform="translate(14,23)"/>
<path d="M0,0 L0,3 L0,6 L-4,8 L8,8 L8,10 L1,14 L-5,17 L-7,20 L-15,21 L-15,19 L-20,19 L-19,15 L-24,15 L-25,11 L-20,9 L-15,8 L-6,5 L-7,2 Z " fill="#57586D" transform="translate(99,55)"/>
<path d="M0,0 L6,2 L8,7 L8,15 L6,15 L5,19 L7,19 L8,24 L6,24 L6,26 L2,25 L0,24 L0,17 L-5,16 L-6,9 L-8,8 L-8,5 L-11,6 L-8,9 L-8,12 L-6,12 L-6,14 L-9,14 L-11,9 L-13,9 L-13,12 L-15,12 L-15,8 L-17,8 L-18,3 L-15,1 L-14,3 L-3,3 L0,6 L0,8 L2,7 L1,3 Z " fill="#0D0C17" transform="translate(111,22)"/>
<path d="M0,0 L2,0 L2,19 L-2,19 L-2,21 L-8,21 L-11,19 L-16,21 L-16,24 L-21,25 L-22,28 L-24,28 L-25,30 L-25,27 L-23,27 L-23,25 L-25,25 L-25,23 L-30,26 L-34,29 L-36,29 L-36,27 L-34,27 L-34,25 L-31,25 L-31,23 L-24,19 L-24,21 L-18,20 L-15,17 L-16,12 L-6,10 L-5,6 L-2,6 L-1,2 Z " fill="#5E4B62" transform="translate(148,46)"/>
<path d="M0,0 L3,1 L0,4 L-6,7 L-7,10 L-10,11 L-5,13 L-5,19 L1,22 L0,28 L-6,26 L-6,29 L-9,30 L-10,25 L-14,23 L-14,20 L-8,22 L-11,18 L-13,17 L-16,19 L-18,19 L-18,11 L-13,12 L-15,9 L-15,6 L-19,6 L-19,9 L-21,10 L-22,12 L-24,10 L-24,4 L-23,6 L-16,3 L-13,1 L-14,5 L-9,3 L-6,1 Z " fill="#242C31" transform="translate(38,22)"/>
<path d="M0,0 L13,1 L18,6 L17,8 L23,9 L32,13 L32,14 L0,14 Z " fill="#656B74" transform="translate(0,70)"/>
<path d="M0,0 L17,0 L17,3 L20,3 L20,6 L24,7 L28,8 L28,10 L32,11 L30,13 L30,11 L24,11 L33,17 L32,14 L36,15 L41,20 L44,23 L42,23 L41,25 L37,23 L37,21 L32,21 L32,19 L26,19 L26,21 L21,21 L20,15 L18,14 L18,12 L13,10 L12,6 L10,5 L10,3 L5,2 L0,1 Z " fill="#070710" transform="translate(80,0)"/>
<path d="M0,0 L3,0 L5,8 L7,8 L7,11 L12,11 L14,13 L15,10 L13,10 L13,8 L17,9 L19,16 L19,20 L25,20 L25,24 L23,24 L21,30 L18,31 L17,34 L12,36 L14,31 L18,26 L15,26 L12,32 L10,33 L11,29 L14,19 L12,19 L11,26 L9,26 L8,30 L5,32 L6,26 L9,21 L10,13 L3,13 L4,9 L1,8 L0,3 L-2,2 L0,2 Z " fill="#645C62" transform="translate(125,22)"/>
<path d="M0,0 L2,0 L2,3 L-7,4 L-16,11 L-23,13 L-22,8 L-24,8 L-24,10 L-27,10 L-27,13 L-31,14 L-31,16 L-26,15 L-24,20 L-26,20 L-26,23 L-24,23 L-24,27 L-22,27 L-22,29 L-20,29 L-20,31 L-16,32 L-16,34 L-23,34 L-23,32 L-28,31 L-28,25 L-30,25 L-29,18 L-32,18 L-33,11 L-33,8 L-24,6 L-22,3 L-16,2 L-16,4 L-13,4 L-13,2 Z " fill="#3C3A3D" transform="translate(38,15)"/>
<path d="M0,0 L7,2 L7,7 L2,8 L2,14 L1,16 L5,18 L-1,19 L1,20 L1,22 L-9,25 L-11,24 L-9,21 L-11,19 L-11,17 L-13,8 L-6,10 L-4,7 L-2,7 L-2,1 Z " fill="#5E5969" transform="translate(85,32)"/>
<path d="M0,0 L2,0 L4,5 L6,6 L6,9 L12,10 L12,18 L6,30 L3,29 L1,24 L-1,23 L0,18 L-2,16 L-2,10 L2,11 L2,5 L0,5 Z " fill="#07080F" transform="translate(123,25)"/>
<path d="M0,0 L12,2 L21,8 L46,9 L45,15 L44,12 L41,13 L42,15 L37,15 L40,16 L40,18 L32,18 L17,12 L15,8 L13,6 L0,4 Z " fill="#141A25" transform="translate(0,66)"/>
<path d="M0,0 L5,2 L5,4 L3,4 L4,6 L8,7 L8,10 L6,10 L7,13 L3,14 L-3,14 L-8,12 L-16,11 L-16,13 L-8,13 L-9,16 L-17,14 L-18,10 L-16,9 L-15,6 L-8,4 L-3,5 L-5,2 Z " fill="#3D404F" transform="translate(75,14)"/>
<path d="M0,0 L4,0 L4,6 L7,7 L7,9 L10,10 L10,14 L12,15 L10,16 L7,14 L6,16 L9,16 L8,18 L3,17 L2,13 L-2,12 L-1,9 L-3,9 L-3,17 L-5,19 L-5,15 L-10,16 L-10,14 L-6,14 L-6,10 L-10,9 L-7,8 L-7,6 L-12,6 L-12,4 L-6,4 L-6,2 L0,2 Z " fill="#262F44" transform="translate(64,35)"/>
<path d="M0,0 L5,4 L5,12 L3,19 L2,22 L2,25 L4,25 L4,23 L6,24 L6,29 L9,29 L9,38 L7,37 L7,35 L5,36 L4,43 L3,41 L1,41 L0,38 Z " fill="#06060D" transform="translate(0,4)"/>
<path d="M0,0 L11,0 L13,2 L26,7 L33,10 L35,14 L31,13 L32,17 L29,17 L29,15 L24,13 L22,12 L22,10 L26,10 L21,8 L11,9 L3,6 L3,3 L0,3 Z " fill="#8A8CA0" transform="translate(97,0)"/>
<path d="M0,0 L2,0 L2,26 L-4,26 L-6,16 L-10,14 L-10,12 L-5,12 L-5,4 Z " fill="#07070A" transform="translate(148,16)"/>
<path d="M0,0 L16,0 L18,3 L14,2 L17,5 L17,8 L21,8 L21,16 L17,15 L13,14 L13,12 L11,12 L6,7 L2,5 L2,2 L0,2 Z " fill="#596964" transform="translate(125,0)"/>
<path d="M0,0 L9,0 L9,16 L5,17 L3,23 L2,28 L-3,27 L-4,23 L-1,22 L-1,24 L1,24 L-2,14 L2,15 L5,16 L5,8 L1,8 L1,5 L-3,3 L-2,1 L0,1 Z " fill="#13131F" transform="translate(141,0)"/>
<path d="M0,0 L14,0 L11,2 L0,4 L-5,7 L-8,7 L-7,11 L-4,13 L-18,15 L-22,18 L-26,18 L-25,13 L-19,9 L-9,9 L-8,4 L-7,2 Z " fill="#192024" transform="translate(50,9)"/>
<path d="M0,0 L4,1 L3,4 L8,2 L7,5 L2,8 L-5,9 L-9,12 L-10,16 L-14,18 L-17,18 L-18,16 L-24,17 L-25,12 L-15,9 L-16,12 L-14,12 L-14,10 L-12,10 L-12,8 L-3,5 L0,5 L-1,3 Z " fill="#242A38" transform="translate(117,59)"/>
<path d="M0,0 L15,0 L25,3 L25,5 L28,6 L28,9 L33,11 L35,14 L21,14 L23,13 L23,11 L17,11 L16,8 L14,8 L14,10 L12,10 L11,5 L25,8 L20,5 L11,4 L12,1 L4,2 L0,2 Z " fill="#565066" transform="translate(65,0)"/>
<path d="M0,0 L5,0 L6,4 L0,6 L-7,7 L-10,8 L-10,10 L-8,10 L-8,12 L-28,12 L-28,10 L-34,10 L-36,8 L-27,9 L-18,10 L-16,11 L-15,8 L-13,8 L-13,6 L-11,5 L-19,3 L-19,2 L-4,1 Z " fill="#747A83" transform="translate(68,72)"/>
<path d="M0,0 L12,0 L13,3 L8,2 L8,4 L19,4 L20,9 L16,10 L12,9 L2,9 L-3,10 L-9,11 L-8,8 L-4,7 L-5,5 L2,3 L0,2 Z " fill="#54545D" transform="translate(53,0)"/>
<path d="M0,0 L2,0 L2,2 L6,1 L6,3 L14,3 L14,5 L12,6 L15,7 L15,11 L11,11 L11,13 L16,12 L18,15 L17,19 L15,19 L15,17 L11,18 L8,8 L3,6 L3,11 L-3,10 L-3,12 L-5,12 L-4,4 L-2,4 L-1,9 L1,8 L1,5 L2,3 L-1,3 Z " fill="#797687" transform="translate(43,38)"/>
<path d="M0,0 L1,2 L3,2 L6,5 L6,7 L11,7 L11,11 L13,11 L14,9 L19,10 L22,12 L20,13 L25,16 L22,19 L14,16 L13,14 L7,15 L-1,11 L2,10 L1,4 L-1,1 Z " fill="#0E0E1A" transform="translate(22,48)"/>
<path d="M0,0 L1,0 L1,15 L-17,15 L-17,13 L-13,13 L-12,8 L-5,5 L-5,3 L-1,2 Z " fill="#7E7E92" transform="translate(149,69)"/>
<path d="M0,0 L4,1 L4,6 L7,7 L9,14 L7,14 L7,11 L-1,14 L0,10 L-3,9 L-2,15 L-8,15 L-12,16 L-10,13 L-8,7 L-4,6 L-4,4 L-1,3 Z " fill="#676175" transform="translate(120,50)"/>
<path d="M0,0 L17,0 L17,3 L20,3 L20,6 L24,7 L28,8 L28,10 L32,11 L30,13 L30,11 L23,11 L18,12 L13,10 L12,6 L10,5 L10,3 L5,2 L0,1 Z " fill="#1E1E2C" transform="translate(80,0)"/>
<path d="M0,0 L5,1 L9,2 L12,3 L11,5 L7,5 L6,7 L2,5 L2,3 L0,2 L0,5 L-8,6 L-11,4 L-12,8 L-9,9 L-9,7 L-6,7 L-6,9 L-8,9 L-8,11 L-11,11 L-11,13 L-13,13 L-13,10 L-18,11 L-19,6 L-11,2 Z " fill="#272831" transform="translate(61,10)"/>
<path d="M0,0 L6,1 L17,3 L25,3 L25,5 L19,6 L25,7 L26,10 L17,11 L10,10 L4,8 L6,4 L0,1 Z " fill="#666670" transform="translate(40,60)"/>
<path d="M0,0 L3,1 L1,2 L1,5 L-3,6 L-3,8 L-29,8 L-27,6 L-14,3 L-9,1 L-4,2 Z " fill="#111120" transform="translate(114,76)"/>
<path d="M0,0 L2,0 L2,5 L-3,6 L-8,8 L-8,10 L-11,10 L-11,12 L-13,12 L-13,14 L-25,19 L-37,21 L-37,19 L-30,16 L-18,14 L-17,9 L-13,6 L-4,4 Z " fill="#5D6376" transform="translate(125,61)"/>
<path d="M0,0 L14,1 L14,6 L11,6 L11,8 L2,10 L3,5 L-1,6 L-2,8 L-7,9 L-6,6 L-4,6 L-3,2 Z " fill="#403E4C" transform="translate(21,6)"/>
<path d="M0,0 L2,0 L3,8 L7,9 L7,11 L5,11 L7,19 L2,20 L-3,12 L-5,11 L-5,3 L-4,6 L-2,6 Z " fill="#7E7B81" transform="translate(5,39)"/>
<path d="M0,0 L2,0 L2,15 L1,17 L-4,18 L-9,19 L-8,16 L-6,16 L-6,14 L-8,14 L-8,10 L-6,10 L-5,6 L-2,6 L-1,2 Z " fill="#2A3956" transform="translate(148,46)"/>
<path d="M0,0 L13,1 L18,6 L17,8 L23,9 L32,13 L32,14 L25,13 L16,9 L9,7 L0,4 Z " fill="#9FA2AB" transform="translate(0,70)"/>
<path d="M0,0 L3,1 L3,3 L7,3 L11,2 L12,4 L10,5 L12,8 L2,7 L1,9 L-1,9 L-3,11 L-11,10 L-8,9 L-8,7 L-6,7 L-6,5 L-9,5 L-9,7 L-13,6 L-11,5 L-11,2 L-6,3 L0,3 Z " fill="#1B1F30" transform="translate(61,12)"/>
<path d="M0,0 L10,0 L11,3 L11,4 L16,4 L15,7 L17,7 L17,9 L13,11 L11,17 L9,15 L10,12 L9,11 L8,7 L3,8 L2,4 L-3,3 Z " fill="#1D203D" transform="translate(99,47)"/>
<path d="M0,0 L7,0 L10,5 L7,6 L5,12 L0,12 L-1,6 L-4,6 L-4,13 L-7,14 L-9,12 L-7,11 L-6,5 L-2,4 Z " fill="#15131D" transform="translate(93,35)"/>
<path d="M0,0 L3,1 L3,6 L7,6 L7,9 L11,11 L10,13 L6,12 L5,10 L-5,11 L-5,9 L-7,11 L-7,13 L-10,12 L-10,10 L-15,9 L-15,7 L-23,7 L-23,5 L-15,5 L-10,7 L-1,7 L-1,4 L1,4 Z " fill="#797687" transform="translate(82,20)"/>
<path d="M0,0 L4,0 L4,2 L8,1 L9,7 L7,8 L7,4 L3,4 L3,6 L-3,6 L-3,8 L-9,8 L-9,10 L-12,10 L-12,8 L-17,6 L-16,1 L-7,2 L-11,3 L-11,5 L-1,3 Z " fill="#3F3C53" transform="translate(61,31)"/>
<path d="M0,0 L3,0 L3,2 L8,1 L9,4 L11,5 L10,12 L6,14 L6,16 L4,16 L4,18 L2,18 L4,14 L8,12 L8,10 L-5,11 L-2,8 L0,8 L-1,5 L1,2 L-1,1 Z " fill="#080C2A" transform="translate(99,53)"/>
<path d="M0,0 L3,0 L5,8 L7,8 L7,11 L12,11 L13,19 L11,26 L9,26 L8,30 L5,32 L6,26 L9,21 L10,13 L3,13 L4,9 L1,8 L0,3 L-2,2 L0,2 Z " fill="#928A96" transform="translate(125,22)"/>
<path d="M0,0 L4,1 L2,1 L2,3 L7,2 L9,7 L7,7 L7,10 L9,10 L9,14 L11,14 L11,16 L13,16 L13,18 L17,19 L17,21 L10,21 L10,19 L5,18 L5,12 L3,12 L4,5 L1,5 Z " fill="#1C2028" transform="translate(5,28)"/>
<path d="M0,0 L5,0 L2,3 L-1,3 L-2,5 L-4,9 L-8,9 L-8,11 L-22,11 L-22,9 L-13,6 L-12,4 L-7,2 L0,2 Z " fill="#010108" transform="translate(140,73)"/>
<path d="M0,0 L4,1 L6,5 L8,5 L8,2 L13,3 L17,8 L17,10 L12,9 L12,14 L9,13 L9,9 L4,9 L4,7 L1,6 L1,4 L-1,4 Z " fill="#06040F" transform="translate(24,46)"/>
<path d="M0,0 L7,0 L7,3 L11,2 L15,1 L15,5 L17,5 L18,2 L19,6 L12,7 L11,5 L2,4 L3,10 L0,11 L-2,14 L-5,13 L-5,11 L-3,10 L-1,5 L-2,1 Z " fill="#2C293A" transform="translate(81,29)"/>
<path d="M0,0 L5,2 L5,4 L3,4 L4,6 L8,7 L8,10 L5,11 L1,10 L-4,9 L-5,11 L-7,10 L-7,8 L-11,8 L-11,6 L-3,5 L-5,2 Z " fill="#47464A" transform="translate(75,14)"/>
<path d="M0,0 L0,3 L0,6 L-4,8 L8,8 L8,10 L4,12 L-7,14 L-7,12 L-4,11 L-12,9 L-9,6 L-6,5 L-7,2 Z " fill="#3E4256" transform="translate(99,55)"/>
<path d="M0,0 L7,0 L7,2 L10,2 L10,5 L18,5 L15,6 L14,10 L11,11 L4,11 L5,6 L1,5 L1,3 L-2,2 Z " fill="#353344" transform="translate(46,25)"/>
<path d="M0,0 L6,0 L6,2 L11,0 L17,1 L23,0 L22,3 L12,6 L8,6 L7,8 L5,4 L2,4 L2,6 L0,6 L0,4 L-6,4 L-3,3 L-2,1 Z " fill="#111E2F" transform="translate(78,74)"/>
<path d="M0,0 L1,2 L5,3 L5,5 L0,7 L-5,9 L-9,10 L-9,13 L-13,13 L-13,15 L-19,15 L-17,13 L-14,12 L-13,10 L-11,10 L-10,6 L-5,6 L-5,3 Z " fill="#191124" transform="translate(137,64)"/>
<path d="M0,0 L5,1 L9,2 L9,4 L13,3 L20,3 L20,5 L22,5 L21,8 L18,7 L22,9 L25,7 L26,11 L21,12 L12,6 L0,3 Z " fill="#9D97A1" transform="translate(0,63)"/>
<path d="M0,0 L4,0 L6,4 L6,7 L1,5 L1,13 L6,9 L8,10 L9,11 L11,16 L5,14 L4,17 L4,15 L0,14 L-3,4 L0,3 Z " fill="#13131C" transform="translate(19,28)"/>
<path d="M0,0 L3,1 L4,7 L6,9 L2,15 L-2,17 L-10,18 L-8,13 L-1,14 L0,7 L-2,7 Z " fill="#555966" transform="translate(118,34)"/>
<path d="M0,0 L3,0 L5,3 L17,5 L17,13 L13,12 L9,11 L9,9 L7,9 L2,4 Z " fill="#9D9B97" transform="translate(129,3)"/>
<path d="M0,0 L1,2 L5,3 L5,7 L4,10 L1,8 L3,11 L3,14 L-5,14 L-4,7 L-1,6 L-2,1 Z " fill="#1A1624" transform="translate(48,43)"/>
<path d="M0,0 L2,0 L1,8 L-1,13 L4,5 L7,8 L-1,17 L-4,17 L-5,15 L-8,14 L-7,11 L-5,11 L-3,7 L-1,7 Z " fill="#251826" transform="translate(137,41)"/>
<path d="M0,0 L7,0 L11,4 L5,3 L5,5 L1,7 L-3,7 L-3,5 L-8,4 L-12,3 L-12,1 L-2,2 Z " fill="#101114" transform="translate(12,60)"/>
<path d="M0,0 L2,0 L2,2 L7,3 L17,9 L15,10 L2,9 L2,5 L-6,3 L-6,1 Z " fill="#62646C" transform="translate(19,57)"/>
<path d="M0,0 L5,0 L4,5 L9,3 L13,3 L14,1 L18,3 L18,5 L6,6 L6,8 L3,8 L3,6 L-2,7 L-6,6 L-6,4 L-8,4 L-8,2 L-5,2 L-5,4 L0,3 Z " fill="#383133" transform="translate(19,11)"/>
<path d="M0,0 L11,2 L10,4 L7,4 L7,6 L15,3 L18,3 L18,5 L9,9 L6,12 L3,10 L2,7 L0,7 L0,5 L3,4 L0,1 Z " fill="#606374" transform="translate(85,63)"/>
<path d="M0,0 L3,0 L3,3 L6,4 L6,11 L9,11 L9,15 L8,18 L5,18 L4,15 L0,16 L0,14 L2,12 L-1,7 L0,4 L2,9 L5,9 L5,7 L3,7 L1,3 L-2,1 Z " fill="#525060" transform="translate(100,27)"/>
<path d="M0,0 L2,0 L2,2 L5,1 L5,3 L8,4 L9,7 L0,9 L1,12 L-1,12 L-1,14 L-3,14 L-4,9 L-2,7 Z " fill="#06050A" transform="translate(5,15)"/>
<path d="M0,0 L15,0 L15,2 L12,2 L12,4 L10,5 L1,5 L1,7 L-1,7 Z " fill="#757C6F" transform="translate(5,0)"/>
<path d="M0,0 L11,0 L11,2 L14,1 L13,4 L1,6 L-4,6 L-4,2 L0,2 Z " fill="#080808" transform="translate(42,0)"/>
<path d="M0,0 L4,2 L8,9 L12,9 L10,13 L0,11 Z " fill="#040306" transform="translate(0,50)"/>
<path d="M0,0 L9,1 L17,4 L15,8 L9,7 L5,7 L5,5 L0,3 Z " fill="#1C1729" transform="translate(52,57)"/>
<path d="M0,0 L18,0 L18,2 L11,4 L4,4 L4,6 L0,6 Z " fill="#ACA3B4" transform="translate(24,0)"/>
<path d="M0,0 L1,3 L8,4 L9,7 L11,7 L13,11 L5,10 L0,7 L0,5 L-4,2 Z " fill="#3F3E4A" transform="translate(35,61)"/>
<path d="M0,0 L12,2 L21,8 L23,10 L20,12 L17,12 L15,8 L13,6 L0,4 Z " fill="#353A47" transform="translate(0,66)"/>
<path d="M0,0 L9,2 L9,4 L6,4 L6,7 L8,8 L9,10 L0,10 Z " fill="#356261" transform="translate(0,74)"/>
<path d="M0,0 L4,2 L5,5 L8,4 L10,8 L5,14 L2,13 L2,10 L4,10 L2,6 L0,5 Z " fill="#14121D" transform="translate(106,25)"/>
<path d="M0,0 L8,0 L7,2 L4,2 L4,8 L3,10 L10,10 L7,12 L1,11 L-4,9 L-4,7 L1,8 L-2,4 L-2,2 L0,2 Z " fill="#534F61" transform="translate(40,48)"/>
<path d="M0,0 L14,0 L11,2 L0,4 L-5,7 L-9,6 L-7,2 Z " fill="#07070A" transform="translate(50,9)"/>
<path d="M0,0 L5,1 L9,2 L12,3 L11,5 L7,5 L6,7 L2,5 L2,3 L0,2 L0,5 L-8,6 L-8,3 Z " fill="#3E414D" transform="translate(61,10)"/>
<path d="M0,0 L18,0 L17,6 L16,3 L13,4 L14,6 L6,5 L2,4 L2,2 Z " fill="#080B0B" transform="translate(28,75)"/>
<path d="M0,0 L4,0 L4,3 L9,5 L11,7 L16,8 L16,10 L10,10 L9,8 L4,10 L-2,6 L0,5 L4,7 L5,5 L3,5 L3,3 L-3,3 L0,2 Z " fill="#42404C" transform="translate(17,63)"/>
<path d="M0,0 L1,2 L3,2 L6,5 L6,7 L10,7 L10,12 L4,13 L-1,11 L2,10 L1,4 L-1,1 Z " fill="#262834" transform="translate(22,48)"/>
<path d="M0,0 L1,2 L3,2 L3,4 L-1,5 L3,6 L3,8 L-2,8 L-2,10 L-6,8 L-12,4 L-9,3 L-7,3 L-3,1 Z " fill="#626A82" transform="translate(115,7)"/>
<path d="M0,0 L16,0 L16,4 L19,4 L19,6 L15,7 L10,5 L10,3 L5,2 L0,1 Z " fill="#09090A" transform="translate(80,0)"/>
<path d="M0,0 L4,1 L3,4 L8,2 L7,5 L2,8 L-5,9 L-9,11 L-7,6 L0,5 L-1,3 Z " fill="#1A1326" transform="translate(117,59)"/>
<path d="M0,0 L2,0 L2,5 L-3,6 L-8,8 L-8,10 L-16,11 L-14,7 L-13,6 L-4,4 Z " fill="#877A8D" transform="translate(125,61)"/>
<path d="M0,0 L17,0 L16,3 L12,5 L4,6 L6,2 L0,1 Z " fill="#706C83" transform="translate(63,59)"/>
<path d="M0,0 L2,0 L2,2 L5,3 L5,5 L8,5 L7,1 L13,1 L14,5 L12,6 L11,4 L10,6 L10,10 L5,9 L5,6 L1,6 Z " fill="#454352" transform="translate(84,20)"/>
<path d="M0,0 L0,3 L2,4 L2,2 L5,3 L4,7 L-3,8 L-7,8 L-8,6 L-5,3 L-7,1 Z " fill="#1D2032" transform="translate(94,50)"/>
<path d="M0,0 L4,1 L5,4 L8,4 L8,6 L-2,9 L-4,8 L-2,5 L-4,3 L0,2 Z " fill="#737183" transform="translate(78,48)"/>
<path d="M0,0 L3,1 L3,6 L7,6 L7,9 L11,11 L10,13 L6,12 L5,10 L-2,9 L-1,4 L1,4 Z " fill="#6F6D78" transform="translate(82,20)"/>
<path d="M0,0 L1,4 L-3,4 L-3,6 L2,5 L4,8 L3,12 L1,12 L1,10 L-3,11 L-6,1 L-1,1 Z " fill="#5E596F" transform="translate(57,45)"/>
<path d="M0,0 L9,1 L12,5 L8,6 L2,6 L-4,3 L-4,1 L0,2 Z " fill="#14131A" transform="translate(70,22)"/>
<path d="M0,0 L6,2 L8,6 L4,5 L5,9 L2,9 L2,7 L-3,5 L-5,4 L-5,2 L-1,1 Z " fill="#63646F" transform="translate(124,8)"/>
<path d="M0,0 L6,2 L5,4 L3,4 L2,8 L3,11 L-3,12 L-5,7 L-2,6 L-2,4 L2,4 L2,2 L-1,1 Z " fill="#323444" transform="translate(84,50)"/>
<path d="M0,0 L2,1 L3,8 L0,9 L-1,12 L-5,13 L-3,8 L-3,2 Z " fill="#170A14" transform="translate(131,55)"/>
<path d="M0,0 L6,2 L5,8 L-1,6 L-1,9 L-4,10 L-5,5 L-7,4 L0,5 L-1,2 Z " fill="#262332" transform="translate(33,42)"/>
<path d="M0,0 L5,1 L13,4 L19,5 L17,7 L9,8 L5,7 L3,2 Z " fill="#0A090E" transform="translate(31,67)"/>
<path d="M0,0 L15,0 L21,2 L22,5 L11,4 L12,1 L4,2 L0,2 Z " fill="#898594" transform="translate(65,0)"/>
<path d="M0,0 L3,0 L3,2 L8,1 L8,3 L4,5 L2,10 L-5,11 L-2,8 L0,8 L-1,5 L1,2 L-1,1 Z " fill="#050719" transform="translate(99,53)"/>
<path d="M0,0 L2,0 L3,6 L5,6 L5,4 L7,4 L7,6 L9,6 L9,8 L13,9 L13,11 L6,11 L6,9 L1,8 Z " fill="#3F4344" transform="translate(9,38)"/>
<path d="M0,0 L6,0 L6,2 L8,3 L9,13 L7,15 L7,11 L2,12 L2,10 L6,10 L6,6 L2,5 L5,4 L5,2 L0,2 Z " fill="#181B32" transform="translate(52,39)"/>
<path d="M0,0 L2,0 L3,10 L-1,11 L-1,9 L-6,8 L-6,5 L0,7 L-2,2 L0,2 Z " fill="#5F5E6D" transform="translate(30,37)"/>
<path d="M0,0 L5,0 L6,4 L0,6 L-4,6 L-5,4 L-7,3 Z " fill="#545760" transform="translate(68,72)"/>
<path d="M0,0 L2,0 L1,4 L-1,4 L-1,9 L4,6 L6,6 L6,10 L4,10 L4,12 L-2,10 L-3,9 L-3,4 L-4,2 Z " fill="#141524" transform="translate(35,32)"/>
<path d="M0,0 L2,0 L1,4 L-2,4 L-1,7 L-5,10 L-8,10 L-8,5 L-6,4 L-5,1 L-1,2 Z " fill="#565967" transform="translate(42,31)"/>
<path d="M0,0 L5,3 L4,9 L1,9 L0,12 L-2,12 L-1,19 L-2,15 L-7,14 L-3,11 L-1,11 L-2,7 L1,6 L2,2 L0,2 Z " fill="#1E1D29" transform="translate(130,6)"/>
<path d="M0,0 L4,0 L3,3 L-1,5 L-6,5 L-6,7 L-13,7 L-13,5 L-5,2 L0,2 Z " fill="#C4BBD6" transform="translate(124,77)"/>
<path d="M0,0 L3,1 L0,4 L-6,6 L-12,8 L-10,4 L-6,1 Z " fill="#3C434C" transform="translate(38,22)"/>
<path d="M0,0 L11,3 L10,6 L5,7 L5,5 L2,8 L0,8 Z " fill="#30323A" transform="translate(20,33)"/>
<path d="M0,0 L4,1 L5,6 L4,8 L1,8 L0,10 L0,7 L-2,7 L-3,2 Z " fill="#332530" transform="translate(132,23)"/>
<path d="M0,0 L12,3 L15,4 L14,7 L6,6 L5,3 L3,3 L3,5 L1,5 Z " fill="#5A5767" transform="translate(76,5)"/>
<path d="M0,0 L2,0 L2,2 L6,3 L-2,8 L-6,8 L-5,3 Z " fill="#080C10" transform="translate(30,19)"/>
<path d="M0,0 L10,0 L21,2 L19,3 L19,5 L22,6 L18,7 L17,5 L11,5 L11,3 L9,3 L9,1 L0,1 Z " fill="#353644" transform="translate(55,8)"/>
<path d="M0,0 L7,0 L7,2 L11,2 L10,5 L7,5 L6,7 L3,6 L3,3 L0,3 Z " fill="#687573" transform="translate(97,0)"/>
<path d="M0,0 L3,2 L4,3 L6,3 L5,6 L3,7 L-7,7 L-6,5 L-2,5 L-2,1 Z " fill="#273246" transform="translate(82,77)"/>
<path d="M0,0 L2,1 L1,3 L-9,6 L-13,6 L-14,8 L-15,5 L-13,5 L-13,3 L-9,3 L-9,1 Z " fill="#0A0D18" transform="translate(99,74)"/>
<path d="M0,0 L3,0 L3,2 L5,2 L5,4 L3,4 L3,8 L-2,8 L-2,6 L-5,5 Z " fill="#948EA3" transform="translate(120,69)"/>
<path d="M0,0 L6,1 L11,2 L12,5 L6,6 L9,7 L4,9 L1,7 L2,3 Z " fill="#312F31" transform="translate(46,69)"/>
<path d="M0,0 L2,0 L2,2 L10,2 L10,4 L8,5 L10,6 L9,9 L9,7 L2,6 L2,4 L-1,4 Z " fill="#74738A" transform="translate(47,39)"/>
<path d="M0,0 L1,2 L3,2 L4,7 L2,7 L2,9 L-2,8 L-4,7 L-4,4 L-2,4 L-2,1 Z " fill="#131821" transform="translate(115,39)"/>
<path d="M0,0 L3,1 L-1,5 L-4,5 L-4,8 L-9,8 L-11,4 L-4,2 Z " fill="#94999C" transform="translate(15,20)"/>
<path d="M0,0 L2,4 L11,5 L8,10 L6,10 L2,6 L0,6 L0,4 L-3,4 L-2,1 L0,2 Z " fill="#1E1F21" transform="translate(7,11)"/>
<path d="M0,0 L1,2 L6,1 L9,4 L7,5 L6,8 L0,7 L0,4 L-2,2 L0,2 Z " fill="#191426" transform="translate(91,12)"/>
<path d="M0,0 L4,1 L4,3 L2,3 L4,11 L-1,12 L-4,8 L-3,5 L1,8 L1,5 L-1,5 L-1,3 L1,3 Z " fill="#605B60" transform="translate(8,47)"/>
<path d="M0,0 L1,0 L1,5 L0,7 L-5,8 L-10,9 L-9,6 L-7,6 L-6,3 L0,2 Z " fill="#12161B" transform="translate(149,56)"/>
<path d="M0,0 L3,0 L4,6 L6,7 L3,8 L3,10 L-1,9 L-1,2 Z " fill="#413F4A" transform="translate(89,41)"/>
<path d="M0,0 L4,3 L5,9 L2,10 L0,13 L-3,12 L-3,10 L-1,9 L1,4 Z " fill="#322D3E" transform="translate(79,30)"/>
<path d="M0,0 L2,1 L1,3 L3,3 L3,1 L5,1 L6,8 L-2,6 L-2,4 L-4,2 Z " fill="#0F0D1B" transform="translate(76,7)"/>
<path d="M0,0 L6,0 L5,2 L1,1 L1,5 L-4,5 L-7,8 L-10,8 L-10,5 L-4,2 Z " fill="#555366" transform="translate(138,69)"/>
<path d="M0,0 L8,0 L11,1 L11,3 L1,4 L-5,3 L-5,2 L0,2 Z " fill="#0D0E10" transform="translate(57,70)"/>
<path d="M0,0 L7,0 L7,2 L10,2 L9,5 L1,5 L1,3 L-2,2 Z " fill="#424755" transform="translate(46,25)"/>
<path d="M0,0 L2,0 L1,3 L-5,8 L-11,9 L-11,7 L-9,7 L-9,5 L-5,3 L-4,1 Z " fill="#949598" transform="translate(26,19)"/>
<path d="M0,0 L4,1 L7,3 L-1,5 L-4,9 L-4,3 L-8,2 Z " fill="#1F1E1E" transform="translate(46,4)"/>
<path d="M0,0 L4,0 L4,6 L-1,8 L-2,6 L-5,4 L-3,4 L-3,2 L0,2 Z " fill="#171F20" transform="translate(20,0)"/>
<path d="M0,0 L3,3 L-1,3 L-2,8 L-4,8 L-4,10 L-8,11 L-6,8 L-4,2 Z " fill="#817F9C" transform="translate(116,55)"/>
<path d="M0,0 L2,0 L1,7 L-2,8 L-3,11 L-8,13 L-6,8 L-1,2 Z " fill="#B0A7BD" transform="translate(145,45)"/>
<path d="M0,0 L3,0 L6,9 L0,9 L-1,3 Z " fill="#080D19" transform="translate(144,33)"/>
<path d="M0,0 L5,1 L9,5 L8,7 L4,6 L4,8 L0,8 L0,5 L3,4 L4,2 L0,2 Z " fill="#B9BBBD" transform="translate(104,0)"/>
<path d="M0,0 L10,1 L9,4 L6,4 L5,6 L0,4 Z " fill="#757E91" transform="translate(0,70)"/>
<path d="M0,0 L9,1 L9,3 L12,2 L11,6 L8,6 L8,4 L3,4 L1,5 Z " fill="#020206" transform="translate(13,52)"/>
<path d="M0,0 L10,0 L11,3 L9,4 L9,2 L4,4 L5,8 L3,8 L2,4 L-3,3 Z " fill="#262936" transform="translate(99,47)"/>
<path d="M0,0 L1,2 L5,3 L5,7 L4,10 L-1,6 L-2,1 Z " fill="#1F1A2E" transform="translate(48,43)"/>
<path d="M0,0 L7,0 L10,1 L10,3 L13,4 L13,6 L8,5 L1,2 Z " fill="#1D1823" transform="translate(108,0)"/>
<path d="M0,0 L3,1 L4,7 L6,9 L3,13 L2,9 L-2,7 Z " fill="#3D444C" transform="translate(118,34)"/>
<path d="M0,0 L2,0 L2,3 L0,3 L1,10 L-1,10 L-4,7 L-5,9 L-7,8 L-7,6 L-3,5 L-3,2 L0,2 Z " fill="#0E1014" transform="translate(14,23)"/>
<path d="M0,0 L3,0 L2,10 L-3,9 L-4,5 L-1,4 L-1,6 L1,6 Z " fill="#4C5058" transform="translate(141,18)"/>
<path d="M0,0 L1,4 L3,4 L3,6 L-4,7 L-4,5 L-7,4 L-7,2 Z " fill="#897B90" transform="translate(139,56)"/>
<path d="M0,0 L2,0 L2,7 L4,8 L1,8 L0,10 L-1,9 L-8,9 L-9,7 L0,7 L-2,1 Z " fill="#414350" transform="translate(109,39)"/>
<path d="M0,0 L10,0 L6,3 L-1,4 L-3,4 L-3,2 Z " fill="#161F2F" transform="translate(61,78)"/>
<path d="M0,0 L4,2 L6,5 L-1,7 L-3,5 L-1,5 L-1,3 L-4,2 Z " fill="#040518" transform="translate(88,56)"/>
<path d="M0,0 L2,0 L2,2 L8,2 L8,6 L6,6 L5,8 L5,5 L-2,3 L-2,1 Z " fill="#565E75" transform="translate(142,40)"/>
<path d="M0,0 L4,1 L4,7 L-3,5 L-3,2 Z " fill="#4B5061" transform="translate(121,29)"/>
<path d="M0,0 L2,3 L1,5 L5,7 L5,10 L3,10 L3,13 L1,13 L0,6 L-1,1 Z " fill="#0E0C19" transform="translate(105,25)"/>
<path d="M0,0 L5,2 L5,4 L-7,5 L-7,7 L-10,6 L-4,2 L0,2 Z " fill="#0F0A10" transform="translate(32,12)"/>
<path d="M0,0 L1,2 L-1,5 L-6,7 L-7,8 L-13,8 L-13,6 L-4,3 L-3,1 Z " fill="#1A1A3F" transform="translate(131,76)"/>
<path d="M0,0 L2,4 L-4,5 L-5,8 L-10,9 L-10,7 L-6,7 L-5,2 Z " fill="#565761" transform="translate(142,75)"/>
<path d="M0,0 L4,0 L2,5 L0,7 L-4,6 L-3,2 Z " fill="#2B324A" transform="translate(76,70)"/>
<path d="M0,0 L2,0 L1,8 L-2,13 L-5,13 L-3,7 L-1,7 Z " fill="#1A121A" transform="translate(137,41)"/>
<path d="M0,0 L7,2 L7,4 L5,4 L5,2 L2,5 L5,5 L4,9 L5,11 L2,11 L0,1 Z " fill="#2D2B3A" transform="translate(40,36)"/>
<path d="M0,0 L3,0 L3,2 L1,2 L1,4 L-2,4 L-2,6 L-4,6 L-4,3 L-9,4 L-10,1 L-6,1 L0,2 Z " fill="#575C6D" transform="translate(52,17)"/>
<path d="M0,0 L7,1 L7,7 L3,7 L2,1 Z " fill="#231F30" transform="translate(98,14)"/>
<path d="M0,0 L9,0 L12,1 L12,4 L3,4 L3,2 Z " fill="#353C4E" transform="translate(38,78)"/>
<path d="M0,0 L5,1 L4,3 L1,3 L1,5 L5,4 L3,7 L-2,7 L-2,2 Z " fill="#232537" transform="translate(84,65)"/>
<path d="M0,0 L1,0 L0,7 L-2,7 L-3,11 L-6,13 L-5,7 L-2,3 Z " fill="#97919D" transform="translate(136,41)"/>
<path d="M0,0 L4,1 L7,2 L7,0 L11,0 L11,2 L7,3 L6,6 L5,4 L1,5 Z " fill="#534F4E" transform="translate(139,14)"/>
<path d="M0,0 L3,0 L3,3 L1,3 L-1,7 L-6,8 L-5,5 L-3,5 L-2,1 Z " fill="#70716D" transform="translate(20,7)"/>
<path d="M0,0 L9,0 L9,2 L6,2 L6,4 L-3,5 L0,4 Z " fill="#95A5BC" transform="translate(137,79)"/>
<path d="M0,0 L2,0 L2,5 L-9,5 L-5,4 L-5,2 Z " fill="#263144" transform="translate(148,79)"/>
<path d="M0,0 L5,0 L6,4 L-4,4 L-4,2 L0,2 Z " fill="#181326" transform="translate(67,54)"/>
<path d="M0,0 L3,1 L3,6 L-3,7 L-4,3 L0,3 Z " fill="#121524" transform="translate(61,12)"/>
<path d="M0,0 L3,0 L3,7 L1,11 L1,8 L-2,9 L-3,2 L0,3 Z " fill="#38333B" transform="translate(39,7)"/>
<path d="M0,0 L9,3 L9,4 L-3,4 L-3,2 Z " fill="#0D0F1D" transform="translate(18,80)"/>
<path d="M0,0 L1,2 L6,2 L4,3 L4,5 L-5,8 L-5,6 L-1,5 Z " fill="#707488" transform="translate(108,70)"/>
<path d="M0,0 L4,1 L8,5 L4,6 L-1,4 Z " fill="#98A4A9" transform="translate(10,71)"/>
<path d="M0,0 L4,1 L3,5 L0,6 L0,8 L-2,8 L-2,10 L-4,10 L-2,6 L2,4 L2,2 L-4,2 Z " fill="#101221" transform="translate(105,61)"/>
<path d="M0,0 L13,0 L14,4 L11,3 L6,3 L0,1 Z " fill="#100C12" transform="translate(80,0)"/>
<path d="M0,0 L6,1 L6,3 L1,5 L-4,5 L-3,2 Z " fill="#6A7D9C" transform="translate(74,79)"/>
<path d="M0,0 L4,1 L3,7 L-1,7 L-2,2 L0,2 Z " fill="#03020E" transform="translate(70,64)"/>
<path d="M0,0 L4,0 L4,2 L8,1 L9,7 L7,8 L7,4 L2,4 Z " fill="#595667" transform="translate(61,31)"/>
<path d="M0,0 L3,0 L3,3 L6,4 L6,11 L3,10 L5,9 L5,7 L3,7 L1,3 L-2,1 Z " fill="#3C3949" transform="translate(100,27)"/>
<path d="M0,0 L10,2 L10,4 L2,4 L-3,2 Z " fill="#0F1313" transform="translate(30,80)"/>
<path d="M0,0 L5,0 L5,2 L8,3 L5,5 L1,5 L1,3 L-4,3 Z " fill="#474E5C" transform="translate(83,71)"/>
<path d="M0,0 L1,2 L5,3 L5,5 L-2,6 L-3,2 Z " fill="#06040F" transform="translate(137,64)"/>
<path d="M0,0 L6,2 L7,4 L-1,4 L-8,3 L-8,1 L0,2 Z " fill="#BFC3CA" transform="translate(29,63)"/>
<path d="M0,0 L4,1 L8,0 L10,2 L8,3 L2,3 L1,5 L-3,4 L1,3 Z " fill="#27222A" transform="translate(11,55)"/>
<path d="M0,0 L3,0 L4,4 L9,4 L9,6 L2,7 Z " fill="#6C6879" transform="translate(63,48)"/>
<path d="M0,0 L5,0 L5,8 L1,6 Z " fill="#44414A" transform="translate(0,0)"/>
<path d="M0,0 L7,0 L7,2 L0,4 L-6,4 L-5,2 L0,2 Z " fill="#6A6073" transform="translate(35,0)"/>
<path d="M0,0 L10,0 L9,5 L6,6 L3,3 L3,1 Z " fill="#070812" transform="translate(115,0)"/>
<path d="M0,0 L7,3 L10,1 L11,5 L6,6 L0,2 Z " fill="#968EA1" transform="translate(15,69)"/>
<path d="M0,0 L7,0 L9,3 L6,5 L0,2 Z " fill="#0B0A19" transform="translate(38,62)"/>
<path d="M0,0 L2,0 L3,5 L1,5 L1,7 L3,7 L3,10 L-1,8 L-2,5 L0,5 Z " fill="#C9C5C7" transform="translate(6,45)"/>
<path d="M0,0 L9,1 L5,3 L2,4 L1,6 L-1,5 Z " fill="#5D5B6A" transform="translate(45,32)"/>
<path d="M0,0 L4,1 L2,1 L2,5 L4,5 L3,9 L1,7 L-3,6 L-3,4 L0,4 Z " fill="#261D23" transform="translate(136,27)"/>
<path d="M0,0 L3,1 L3,4 L9,5 L9,13 L8,13 L8,6 L3,7 L1,6 Z " fill="#4F505E" transform="translate(126,30)"/>
<path d="M0,0 L7,0 L7,3 L11,4 L1,4 L-1,1 Z " fill="#403F4A" transform="translate(81,29)"/>
<path d="M0,0 L2,0 L2,2 L5,1 L5,3 L8,4 L9,7 L3,6 L0,3 Z " fill="#35383C" transform="translate(5,15)"/>
<path d="M0,0 L6,0 L6,1 L-3,3 L-10,4 L-9,1 Z " fill="#727278" transform="translate(54,7)"/>
<path d="M0,0 L2,3 L2,6 L-2,6 L-2,8 L-8,8 L-6,6 L-3,5 L-2,3 L0,3 Z " fill="#201C40" transform="translate(126,71)"/>
<path d="M0,0 L8,0 L9,3 L-1,4 Z " fill="#626365" transform="translate(57,67)"/>
<path d="M0,0 L2,0 L2,4 L-2,4 L-2,6 L-6,6 L-6,3 L-2,1 Z " fill="#888989" transform="translate(148,61)"/>
<path d="M0,0 L10,1 L12,2 L12,4 L5,4 L0,2 Z " fill="#20172B" transform="translate(0,61)"/>
<path d="M0,0 L1,0 L0,7 L-7,9 L-7,6 L-2,3 L0,3 Z " fill="#596E87" transform="translate(149,51)"/>
<path d="M0,0 L2,0 L4,3 L3,7 L1,7 L1,5 L-2,6 L-1,1 Z " fill="#726D85" transform="translate(57,50)"/>
<path d="M0,0 L4,1 L4,4 L1,6 L1,4 L-4,4 L-3,2 L0,2 Z " fill="#808091" transform="translate(78,48)"/>
<path d="M0,0 L2,0 L3,3 L7,5 L0,6 L-4,2 Z " fill="#585A69" transform="translate(83,45)"/>
<path d="M0,0 L1,2 L4,2 L3,7 L-1,6 L-2,3 Z " fill="#000003" transform="translate(5,31)"/>
<path d="M0,0 L6,0 L7,4 L9,4 L9,6 L6,6 L4,1 L2,1 L2,4 L0,4 Z " fill="#120F1C" transform="translate(96,30)"/>
<path d="M0,0 L1,2 L7,1 L5,2 L5,5 L3,6 L2,8 L0,6 Z " fill="#3E4348" transform="translate(14,26)"/>
<path d="M0,0 L7,0 L11,2 L7,3 L6,5 L4,4 L4,2 L0,2 Z " fill="#6E6C76" transform="translate(64,20)"/>
<path d="M0,0 L2,1 L4,10 L2,10 L2,8 L-1,9 L-2,6 L0,5 Z " fill="#1D1B23" transform="translate(138,14)"/>
<path d="M0,0 L2,0 L2,3 L-7,4 L-9,5 L-8,1 Z " fill="#555558" transform="translate(38,15)"/>
<path d="M0,0 L7,2 L8,4 L7,6 L0,4 Z " fill="#120E23" transform="translate(84,13)"/>
<path d="M0,0 L14,0 L14,2 L9,3 L9,1 L2,1 L1,4 Z " fill="#B8BCB7" transform="translate(6,0)"/>
<path d="M0,0 L7,0 L8,5 L7,3 L4,3 L4,5 L2,5 L2,2 L0,2 Z " fill="#728C99" transform="translate(125,0)"/>
<path d="M0,0 L3,2 L3,4 L-8,5 L-7,3 Z " fill="#5D5A6D" transform="translate(61,33)"/>
<path d="M0,0 L4,0 L6,4 L6,7 L2,5 Z " fill="#0D1313" transform="translate(19,28)"/>
<path d="M0,0 L7,2 L8,4 L3,3 L3,5 L-2,6 L-2,3 L2,4 L2,2 L0,2 Z " fill="#292735" transform="translate(116,7)"/>
<path d="M0,0 L3,0 L5,3 L9,4 L10,8 L8,8 L8,6 L4,5 L0,2 Z " fill="#CFD3D2" transform="translate(129,3)"/>
<path d="M0,0 L11,2 L10,4 L4,5 L4,3 L1,3 Z " fill="#8E8FA8" transform="translate(85,63)"/>
<path d="M0,0 L0,3 L0,6 L-4,6 L-4,4 L-7,4 L-7,2 Z " fill="#464A60" transform="translate(99,55)"/>
<path d="M0,0 L2,0 L2,3 L4,3 L4,5 L-2,6 L-3,2 Z " fill="#13182B" transform="translate(106,49)"/>
<path d="M0,0 L4,0 L4,3 L6,3 L5,9 L3,5 L3,3 L1,3 L0,5 Z " fill="#43414B" transform="translate(8,35)"/>
<path d="M0,0 L4,2 L5,3 L5,8 L0,5 Z " fill="#383442" transform="translate(106,25)"/>
<path d="M0,0 L7,0 L7,2 L11,3 L9,5 L9,3 L0,3 L-2,1 Z " fill="#1B213D" transform="translate(101,8)"/>
<path d="M0,0 L9,0 L9,3 L2,3 Z " fill="#313343" transform="translate(141,0)"/>
<path d="M0,0 L3,1 L1,2 L1,5 L-3,6 L-4,8 L-3,4 L-4,2 Z " fill="#2A2235" transform="translate(114,76)"/>
<path d="M0,0 L4,0 L5,4 L-3,6 L-3,4 L1,3 Z " fill="#6D7383" transform="translate(69,72)"/>
<path d="M0,0 L5,0 L2,3 L-1,3 L-2,5 L-4,5 L-4,3 L-7,2 L0,2 Z " fill="#0F0E0E" transform="translate(140,73)"/>
<path d="M0,0 L5,0 L5,3 L-2,4 Z " fill="#B5BFCE" transform="translate(111,68)"/>
<path d="M0,0 L3,0 L1,4 L-2,4 L-2,7 L-4,7 L-4,3 L-2,3 L-2,1 Z " fill="#1B1C30" transform="translate(144,53)"/>
<path d="M0,0 L9,3 L7,6 L4,6 L3,4 L0,3 Z " fill="#403648" transform="translate(129,52)"/>
<path d="M0,0 L1,2 L-2,2 L-2,9 L-5,10 L-7,8 L-5,7 L-4,1 Z " fill="#25232C" transform="translate(91,39)"/>
<path d="M0,0 L2,3 L-1,4 L-3,10 L-6,9 L-6,6 L-3,5 L-2,3 L0,3 Z " fill="#2C2B35" transform="translate(101,37)"/>
<path d="M0,0 L3,0 L2,4 L-6,4 L-6,2 L0,2 Z " fill="#0F1224" transform="translate(64,35)"/>
<path d="M0,0 L11,0 L12,3 L9,4 L5,3 L7,3 L7,1 L0,1 Z " fill="#191F31" transform="translate(46,24)"/>
<path d="M0,0 L3,1 L0,4 L-5,6 L-5,1 Z " fill="#4D555D" transform="translate(38,22)"/>
<path d="M0,0 L5,1 L5,2 L-2,2 L-1,5 L-7,5 L-6,2 Z " fill="#555563" transform="translate(66,18)"/>
<path d="M0,0 L6,0 L6,2 L3,3 L1,6 L0,2 L-3,1 Z " fill="#1D1B2A" transform="translate(82,11)"/>
<path d="M0,0 L8,0 L9,3 L0,3 Z " fill="#423F4E" transform="translate(57,0)"/>
<path d="M0,0 L9,2 L9,4 L0,3 Z " fill="#12192B" transform="translate(0,74)"/>
<path d="M0,0 L8,0 L9,2 L1,4 Z " fill="#94959C" transform="translate(49,63)"/>
<path d="M0,0 L4,1 L4,3 L-2,7 L-4,4 L-1,3 Z " fill="#747189" transform="translate(120,50)"/>
<path d="M0,0 L1,3 L3,3 L3,5 L7,6 L5,6 L5,8 L1,8 L2,4 L-1,4 Z " fill="#434051" transform="translate(71,47)"/>
<path d="M0,0 L3,0 L5,8 L3,7 L3,4 L1,4 L0,6 L0,3 L-2,2 L0,2 Z " fill="#8F8491" transform="translate(125,22)"/>
<path d="M0,0 L6,2 L8,7 L4,7 L0,2 Z " fill="#201D2A" transform="translate(111,22)"/>
<path d="M0,0 L1,3 L-1,3 L0,10 L-1,6 L-6,5 L-2,2 L0,2 Z " fill="#2E2E3D" transform="translate(129,15)"/>
<path d="M0,0 L1,3 L5,4 L3,6 L-5,5 L-2,4 L-2,2 L0,2 Z " fill="#2D3447" transform="translate(55,17)"/>
<path d="M0,0 L2,0 L3,5 L7,5 L7,7 L1,7 Z " fill="#736F82" transform="translate(98,16)"/>
<path d="M0,0 L4,0 L4,3 L-4,4 L-4,1 Z " fill="#52545F" transform="translate(57,12)"/>
<path d="M0,0 L2,3 L10,4 L10,5 L1,5 L1,7 L-1,7 Z " fill="#5C625D" transform="translate(5,0)"/>
<path d="M0,0 L5,2 L5,4 L8,4 L8,7 L4,7 L4,4 L0,2 Z " fill="#282837" transform="translate(138,1)"/>
<path d="M0,0 L3,0 L3,2 L8,0 L9,3 L5,3 L4,5 L0,1 Z " fill="#222B36" transform="translate(81,74)"/>
<path d="M0,0 L5,1 L9,3 L9,5 L6,5 L5,7 L3,2 Z " fill="#232333" transform="translate(31,67)"/>
<path d="M0,0 L2,0 L2,3 L4,4 L4,6 L-1,4 L-4,4 Z " fill="#302533" transform="translate(138,61)"/>
<path d="M0,0 L5,1 L9,3 L2,4 L0,3 Z " fill="#665471" transform="translate(0,63)"/>
<path d="M0,0 L2,0 L2,2 L4,3 L0,5 L-6,5 L-3,2 Z " fill="#292E45" transform="translate(93,59)"/>
<path d="M0,0 L2,0 L3,9 L-1,7 Z " fill="#4C4B61" transform="translate(61,44)"/>
<path d="M0,0 L2,0 L3,5 L5,6 L3,6 L2,9 L0,5 L2,3 L-1,3 Z " fill="#6E6B7F" transform="translate(43,38)"/>
<path d="M0,0 L2,0 L3,6 L1,6 L0,10 L-1,8 Z " fill="#B9AFBA" transform="translate(135,35)"/>
<path d="M0,0 L4,1 L4,3 L2,3 L1,6 L0,4 L-2,4 L-2,1 Z " fill="#74707E" transform="translate(85,32)"/>
<path d="M0,0 L3,1 L3,3 L3,5 L1,5 L1,7 L-1,7 L-2,2 Z " fill="#343B49" transform="translate(3,22)"/>
<path d="M0,0 L10,1 L8,2 L7,4 L4,4 L2,4 Z " fill="#55535F" transform="translate(107,20)"/>
<path d="M0,0 L2,2 L2,6 L-6,4 L-6,2 L0,3 Z " fill="#161321" transform="translate(97,17)"/>
<path d="M0,0 L6,1 L3,6 L1,6 L-1,1 Z " fill="#0C0C0A" transform="translate(12,15)"/>
<path d="M0,0 L10,0 L13,1 L12,5 L11,3 L9,3 L9,1 L0,1 Z " fill="#2C2E37" transform="translate(55,8)"/>
<path d="M0,0 L7,0 L11,2 L10,3 L0,2 Z " fill="#14141E" transform="translate(61,2)"/>
<path d="M0,0 L7,1 L4,2 L4,4 L0,3 Z " fill="#7F8283" transform="translate(52,67)"/>
<path d="M0,0 L2,1 L0,6 L-3,7 L-3,2 Z " fill="#020106" transform="translate(131,55)"/>
<path d="M0,0 L3,2 L3,4 L8,4 L8,6 L3,7 L0,3 Z " fill="#5C5057" transform="translate(4,52)"/>
<path d="M0,0 L2,1 L-1,6 L-5,10 L-4,6 L-2,1 Z " fill="#908191" transform="translate(140,45)"/>
<path d="M0,0 L3,1 L3,4 L1,4 L1,6 L-3,5 Z " fill="#22292C" transform="translate(116,42)"/>
<path d="M0,0 L6,2 L6,5 L-1,3 Z " fill="#464254" transform="translate(33,42)"/>
<path d="M0,0 L2,0 L4,6 L6,8 L1,8 Z " fill="#A6A3A7" transform="translate(9,38)"/>
<path d="M0,0 L5,2 L6,6 L3,6 L0,3 Z " fill="#161321" transform="translate(86,19)"/>
<path d="M0,0 L3,0 L4,5 L1,7 Z " fill="#050618" transform="translate(0,17)"/>
<path d="M0,0 L5,1 L6,3 L5,6 L1,7 L1,4 L3,4 Z " fill="#2F2E38" transform="translate(77,14)"/>
<path d="M0,0 L2,0 L2,8 L-1,7 L1,7 L0,5 L-3,3 L0,2 Z " fill="#847E80" transform="translate(144,8)"/>
<path d="M0,0 L9,0 L7,1 L7,3 L0,3 Z " fill="#566063" transform="translate(60,81)"/>
<path d="M0,0 L8,2 L8,4 L-1,3 Z " fill="#DAE4EA" transform="translate(7,80)"/>
<path d="M0,0 L2,1 L2,3 L-8,3 L-6,1 Z " fill="#333337" transform="translate(65,64)"/>
<path d="M0,0 L1,0 L1,6 L3,7 L1,8 L-2,5 L-1,1 Z " fill="#3C3538" transform="translate(9,40)"/>
<path d="M0,0 L4,1 L4,3 L2,3 L3,7 L1,6 L1,4 L-1,4 Z " fill="#0B0D13" transform="translate(24,46)"/>
<path d="M0,0 L5,0 L5,3 L4,6 L1,6 Z " fill="#6A6978" transform="translate(104,39)"/>
<path d="M0,0 L3,1 L3,5 L0,6 L-2,2 Z " fill="#05040C" transform="translate(98,35)"/>
<path d="M0,0 L5,2 L2,5 L-1,5 L-2,1 Z " fill="#3F3343" transform="translate(18,73)"/>
<path d="M0,0 L3,1 L-3,6 L-5,6 L-5,4 L-3,4 L-3,2 L0,2 Z " fill="#131520" transform="translate(117,69)"/>
<path d="M0,0 L3,1 L0,5 L-4,5 L-4,3 L-2,3 L-2,1 Z " fill="#3A4153" transform="translate(107,66)"/>
<path d="M0,0 L6,1 L4,5 L0,3 Z " fill="#252036" transform="translate(63,60)"/>
<path d="M0,0 L3,0 L4,4 L-2,4 Z " fill="#0F101C" transform="translate(116,50)"/>
<path d="M0,0 L2,0 L3,6 L-2,4 L-2,2 L0,2 Z " fill="#8C8CA0" transform="translate(30,37)"/>
<path d="M0,0 L3,0 L3,4 L1,4 L1,9 L-1,5 Z " fill="#15191B" transform="translate(144,33)"/>
<path d="M0,0 L5,1 L5,4 L-1,3 Z " fill="#4D495F" transform="translate(92,16)"/>
<path d="M0,0 L4,0 L4,2 L1,3 L0,6 L-3,5 L-3,3 Z " fill="#0A091B" transform="translate(131,15)"/>
<path d="M0,0 L3,1 L1,3 L3,6 L-2,5 L-2,1 Z " fill="#191922" transform="translate(70,14)"/>
<path d="M0,0 L6,0 L6,5 L4,5 L4,2 L0,2 Z " fill="#7D7287" transform="translate(29,7)"/>
<path d="M0,0 L1,2 L3,2 L3,4 L0,5 L-4,3 Z " fill="#3E2E41" transform="translate(123,65)"/>
<path d="M0,0 L3,1 L0,2 L-2,6 L-4,6 L-2,1 Z " fill="#1A1B2E" transform="translate(112,64)"/>
<path d="M0,0 L3,1 L3,4 L5,5 L0,5 L-1,1 Z " fill="#474760" transform="translate(75,65)"/>
<path d="M0,0 L1,4 L3,4 L3,6 L-2,6 L-1,1 Z " fill="#695E6D" transform="translate(139,56)"/>
<path d="M0,0 L2,3 L3,7 L1,7 L1,4 L-3,3 L-3,1 Z " fill="#4E4151" transform="translate(126,57)"/>
<path d="M0,0 L3,3 L-1,3 L-1,6 L-3,6 L-3,1 Z " fill="#9791B4" transform="translate(116,55)"/>
<path d="M0,0 L3,1 L3,5 L5,6 L3,7 L1,6 Z " fill="#272B3E" transform="translate(71,44)"/>
<path d="M0,0 L7,1 L7,3 L-1,3 Z " fill="#030310" transform="translate(57,27)"/>
<path d="M0,0 L3,3 L-1,4 L-7,4 L-7,3 L-2,3 L-2,1 Z " fill="#373640" transform="translate(79,24)"/>
<path d="M0,0 L1,3 L-1,6 L-4,6 L-4,2 L0,2 Z " fill="#101114" transform="translate(42,0)"/>
<path d="M0,0 L7,0 L9,1 L9,3 L4,1 L4,3 L0,1 Z " fill="#3E4143" transform="translate(108,0)"/>
<path d="M0,0 L2,1 L7,2 L3,5 L-1,3 Z " fill="#403A3C" transform="translate(48,73)"/>
<path d="M0,0 L5,0 L10,5 L6,4 L4,2 Z " fill="#0C0C0E" transform="translate(8,69)"/>
<path d="M0,0 L5,0 L3,4 L0,4 Z " fill="#191119" transform="translate(145,68)"/>
<path d="M0,0 L4,2 L7,6 L3,5 L-1,1 Z " fill="#8C8F96" transform="translate(24,65)"/>
<path d="M0,0 L3,2 L2,5 L-3,4 L-2,2 L0,2 Z " fill="#251A2A" transform="translate(131,59)"/>
<path d="M0,0 L7,0 L7,2 L1,3 Z " fill="#555166" transform="translate(80,59)"/>
<path d="M0,0 L4,2 L-2,2 L-2,4 L-5,4 L-5,1 Z " fill="#3C3A4D" transform="translate(81,55)"/>
<path d="M0,0 L3,1 L2,3 L-4,4 L-4,1 L0,2 Z " fill="#2C2E43" transform="translate(96,52)"/>
<path d="M0,0 L2,0 L2,7 L4,8 L1,8 L1,3 L-2,2 Z " fill="#333642" transform="translate(109,39)"/>
<path d="M0,0 L4,1 L5,3 L-1,4 Z " fill="#433A3E" transform="translate(139,37)"/>
<path d="M0,0 L3,1 L3,4 L-1,5 L-2,2 Z " fill="#A6A7B5" transform="translate(121,29)"/>
<path d="M0,0 L3,0 L3,3 L1,3 L1,6 L-1,6 Z " fill="#04030B" transform="translate(107,32)"/>
<path d="M0,0 L4,1 L3,3 L-1,3 L-2,5 L-4,3 L0,2 Z " fill="#29273A" transform="translate(64,16)"/>
<path d="M0,0 L5,0 L7,3 L4,4 Z " fill="#616266" transform="translate(70,16)"/>
<path d="M0,0 L4,0 L4,4 L0,4 Z " fill="#0D0A0B" transform="translate(146,10)"/>
<path d="M0,0 L6,0 L7,4 L3,3 Z " fill="#363C3E" transform="translate(38,78)"/>
<path d="M0,0 L4,0 L3,3 L-2,5 L-2,3 L0,3 Z " fill="#73759E" transform="translate(124,77)"/>
<path d="M0,0 L3,2 L0,5 L-2,4 L-2,1 Z " fill="#625A6E" transform="translate(117,76)"/>
<path d="M0,0 L4,0 L4,3 L-3,3 L0,2 Z " fill="#40393B" transform="translate(146,65)"/>
<path d="M0,0 L2,0 L2,2 L0,2 L1,6 L-2,6 L-1,1 Z " fill="#6E6983" transform="translate(80,63)"/>
<path d="M0,0 L4,1 L3,3 L5,3 L5,5 L0,3 Z " fill="#171934" transform="translate(111,51)"/>
<path d="M0,0 L4,1 L4,3 L-2,5 L-1,1 Z " fill="#616171" transform="translate(82,51)"/>
<path d="M0,0 L3,1 L3,3 L5,4 L4,6 L2,6 Z " fill="#010109" transform="translate(26,49)"/>
<path d="M0,0 L3,1 L3,6 L0,7 L0,3 Z " fill="#62666A" transform="translate(118,42)"/>
<path d="M0,0 L5,1 L4,4 L-1,5 Z " fill="#454B57" transform="translate(26,35)"/>
<path d="M0,0 L3,1 L1,5 L-1,5 Z " fill="#292936" transform="translate(21,36)"/>
<path d="M0,0 L3,0 L5,1 L4,5 L2,5 Z " fill="#6A6778" transform="translate(109,25)"/>
<path d="M0,0 L3,1 L2,5 L-3,4 Z " fill="#313840" transform="translate(43,24)"/>
<path d="M0,0 L6,0 L2,2 L3,5 L0,4 Z " fill="#353441" transform="translate(106,19)"/>
<path d="M0,0 L3,1 L0,5 L-2,4 L-3,1 Z " fill="#676367" transform="translate(19,17)"/>
<path d="M0,0 L3,0 L3,2 L5,3 L1,4 L-1,2 Z " fill="#4E4949" transform="translate(87,3)"/>
<path d="M0,0 L3,0 L3,3 L1,3 L1,5 L4,6 L0,6 Z " fill="#747073" transform="translate(24,0)"/>
<path d="M0,0 L4,0 L4,3 L-3,3 L0,2 Z " fill="#43443F" transform="translate(20,0)"/>
<path d="M0,0 L4,1 L3,3 L-4,3 L0,2 Z " fill="#0C142F" transform="translate(143,81)"/>
<path d="M0,0 L6,1 L6,3 L1,3 Z " fill="#03010E" transform="translate(95,81)"/>
<path d="M0,0 L5,0 L4,2 L2,2 L2,4 L-2,2 Z " fill="#2A1D23" transform="translate(53,76)"/>
<path d="M0,0 L6,1 L6,3 L0,3 Z " fill="#0C0B1C" transform="translate(0,66)"/>
<path d="M0,0 L2,3 L0,6 L-3,5 L-3,3 Z " fill="#4B3549" transform="translate(134,61)"/>
<path d="M0,0 L2,0 L3,3 L-2,6 Z " fill="#948298" transform="translate(121,58)"/>
<path d="M0,0 L4,1 L7,3 L0,3 Z " fill="#201E2E" transform="translate(37,57)"/>
<path d="M0,0 L5,0 L5,2 L0,3 Z " fill="#060413" transform="translate(52,57)"/>
<path d="M0,0 L3,0 L3,4 L-2,4 Z " fill="#433F4E" transform="translate(121,53)"/>
<path d="M0,0 L4,1 L5,4 L0,3 Z " fill="#6B6C78" transform="translate(24,42)"/>
<path d="M0,0 L3,1 L3,6 L0,5 Z " fill="#414657" transform="translate(118,34)"/>
<path d="M0,0 L3,0 L3,4 L0,4 L0,2 L-2,1 Z " fill="#5B556E" transform="translate(49,37)"/>
<path d="M0,0 L3,0 L2,4 L-2,3 L-2,1 Z " fill="#54505D" transform="translate(89,34)"/>
<path d="M0,0 L3,0 L4,4 L0,5 Z " fill="#746671" transform="translate(133,25)"/>
<path d="M0,0 L6,0 L2,2 L1,5 L-1,1 Z " fill="#656973" transform="translate(5,23)"/>
<path d="M0,0 L3,1 L2,4 L-2,3 L-2,1 Z " fill="#313946" transform="translate(118,14)"/>
<path d="M0,0 L3,3 L3,6 L0,7 Z " fill="#080513" transform="translate(0,4)"/>
<path d="M0,0 L2,0 L2,2 L4,2 L4,6 L2,6 L0,3 Z " fill="#020203" transform="translate(128,6)"/>
<path d="M0,0 L4,1 L2,5 L0,5 Z " fill="#0F091A" transform="translate(108,79)"/>
<path d="M0,0 L5,0 L3,1 L3,3 L-2,2 Z " fill="#B0ACD2" transform="translate(119,79)"/>
<path d="M0,0 L1,2 L3,2 L3,4 L-3,4 L-2,2 L0,2 Z " fill="#4E4D5D" transform="translate(55,78)"/>
<path d="M0,0 L2,0 L2,2 L5,2 L5,5 L1,3 Z " fill="#D7D3D6" transform="translate(4,50)"/>
<path d="M0,0 L4,0 L2,4 L0,5 Z " fill="#0C0918" transform="translate(45,50)"/>
<path d="M0,0 L2,0 L1,5 L-1,6 Z " fill="#BFC5D8" transform="translate(145,45)"/>
<path d="M0,0 L3,0 L3,4 L-1,3 Z " fill="#5B5E6F" transform="translate(75,46)"/>
<path d="M0,0 L1,0 L0,7 L-2,6 L-2,3 Z " fill="#807783" transform="translate(136,41)"/>
<path d="M0,0 L2,0 L2,2 L4,2 L3,5 L2,3 L-1,3 Z " fill="#504B58" transform="translate(83,42)"/>
<path d="M0,0 L2,0 L3,4 L-2,3 L-2,1 Z " fill="#958D96" transform="translate(142,40)"/>
<path d="M0,0 L2,0 L2,2 L5,3 L-1,4 Z " fill="#9993AA" transform="translate(47,39)"/>
<path d="M0,0 L1,4 L-3,4 L-3,2 Z " fill="#150F1D" transform="translate(79,38)"/>
<path d="M0,0 L2,1 L2,5 L-1,6 Z " fill="#121019" transform="translate(93,37)"/>
<path d="M0,0 L4,4 L2,4 L1,6 L-1,5 Z " fill="#525062" transform="translate(45,32)"/>
<path d="M0,0 L2,0 L3,3 L5,5 L0,4 Z " fill="#CFC8D4" transform="translate(126,26)"/>
<path d="M0,0 L5,1 L6,4 L1,3 Z " fill="#2C2B31" transform="translate(70,22)"/>
<path d="M0,0 L7,0 L6,2 L2,3 Z " fill="#18171F" transform="translate(5,21)"/>
<path d="M0,0 L2,0 L0,5 L-3,4 Z " fill="#030207" transform="translate(22,11)"/>
<path d="M0,0 L5,0 L5,3 L0,2 Z " fill="#4D505D" transform="translate(67,12)"/>
<path d="M0,0 L6,1 L5,4 L0,2 Z " fill="#A9A0B4" transform="translate(85,8)"/>
<path d="M0,0 L3,1 L2,4 L-1,5 Z " fill="#3F3E39" transform="translate(15,8)"/>
<path d="M0,0 L5,3 L2,6 L1,4 L2,2 L0,2 Z " fill="#21201E" transform="translate(130,6)"/>
<path d="M0,0 L1,4 L-3,4 L-3,1 Z " fill="#9DADBE" transform="translate(107,4)"/>
<path d="M0,0 L5,3 L5,5 L0,3 Z " fill="#99A09F" transform="translate(136,2)"/>
<path d="M0,0 L4,3 L0,4 L-2,2 L0,2 Z " fill="#979499" transform="translate(14,73)"/>
<path d="M0,0 L2,0 L2,3 L-1,4 L-3,2 Z " fill="#373D53" transform="translate(105,72)"/>
<path d="M0,0 L3,1 L2,6 L-1,4 L1,3 Z " fill="#2F272C" transform="translate(142,67)"/>
<path d="M0,0 L6,0 L6,3 L0,1 Z " fill="#707080" transform="translate(29,69)"/>
<path d="M0,0 L5,1 L4,4 L0,2 Z " fill="#BDBCC5" transform="translate(17,67)"/>
<path d="M0,0 L2,1 L3,4 L-3,3 Z " fill="#453A54" transform="translate(115,61)"/>
<path d="M0,0 L4,1 L4,4 L1,3 Z " fill="#8D9394" transform="translate(25,61)"/>
<path d="M0,0 L3,0 L5,5 L3,6 L2,1 Z " fill="#3C3B46" transform="translate(26,46)"/>
<path d="M0,0 L2,0 L2,5 L-2,3 Z " fill="#1D304C" transform="translate(148,46)"/>
<path d="M0,0 L2,0 L2,2 L4,2 L4,4 L-1,3 Z " fill="#5E6261" transform="translate(14,42)"/>
<path d="M0,0 L2,0 L3,5 L0,5 Z " fill="#1D1B21" transform="translate(123,25)"/>
<path d="M0,0 L4,2 L5,5 L3,5 L3,3 L0,2 Z " fill="#262230" transform="translate(106,25)"/>
<path d="M0,0 L2,0 L3,4 L-1,4 Z " fill="#040609" transform="translate(25,23)"/>
<path d="M0,0 L3,0 L3,5 L1,5 Z " fill="#AAA6B0" transform="translate(141,18)"/>
<path d="M0,0 L3,0 L4,4 L0,3 Z " fill="#020209" transform="translate(100,16)"/>
<path d="M0,0 L5,1 L5,3 L0,2 Z " fill="#DBDAD8" transform="translate(140,12)"/>
<path d="M0,0 L4,1 L4,3 L0,4 Z " fill="#000002" transform="translate(95,3)"/>
<path d="M0,0 L5,0 L6,3 L0,1 Z " fill="#B9B3BE" transform="translate(81,2)"/>
<path d="M0,0 L5,2 L5,4 L0,3 Z " fill="#A7AFAB" transform="translate(97,0)"/>
<path d="M0,0 L3,0 L2,3 L-3,3 L0,2 Z " fill="#BBC9DB" transform="translate(137,81)"/>
<path d="M0,0 L2,3 L1,4 L-4,4 L-1,3 Z " fill="#0F122B" transform="translate(74,68)"/>
<path d="M0,0 L6,3 L2,4 Z " fill="#A69EA8" transform="translate(15,69)"/>
<path d="M0,0 L3,3 L0,5 L-1,2 Z " fill="#252535" transform="translate(44,62)"/>
<path d="M0,0 L3,0 L3,3 L-1,3 Z " fill="#101015" transform="translate(58,61)"/>
<path d="M0,0 L3,0 L1,4 L-1,3 Z " fill="#020412" transform="translate(144,53)"/>
<path d="M0,0 L2,0 L1,4 L-1,5 Z " fill="#A4A1B7" transform="translate(56,51)"/>
<path d="M0,0 L4,1 L4,3 L-1,3 Z " fill="#63646D" transform="translate(120,50)"/>
<path d="M0,0 L2,3 L-2,4 L-4,2 Z " fill="#262B2D" transform="translate(121,47)"/>
<path d="M0,0 L3,2 L3,4 L-1,3 Z " fill="#06080B" transform="translate(19,48)"/>
<path d="M0,0 L4,1 L3,5 L0,2 Z " fill="#56556B" transform="translate(72,40)"/>
<path d="M0,0 L3,2 L3,4 L-1,3 Z " fill="#484655" transform="translate(61,33)"/>
<path d="M0,0 L4,3 L3,6 L0,2 Z " fill="#110F1B" transform="translate(79,30)"/>
<path d="M0,0 L5,1 L3,2 L2,4 L0,2 Z " fill="#121118" transform="translate(119,21)"/>
<path d="M0,0 L2,2 L2,5 L-1,5 Z " fill="#302F40" transform="translate(24,11)"/>
<path d="M0,0 L3,0 L3,3 L-1,3 Z " fill="#ADB4B2" transform="translate(20,7)"/>
<path d="M0,0 L5,1 L1,3 L-1,3 Z " fill="#4D4B4F" transform="translate(45,8)"/>
<path d="M0,0 L5,0 L6,4 L0,1 Z " fill="#424342" transform="translate(88,0)"/>
<path d="M0,0 L3,2 L-2,3 L-2,1 Z " fill="#40505B" transform="translate(82,77)"/>
<path d="M0,0 L1,3 L3,4 L-1,5 Z " fill="#20263B" transform="translate(101,72)"/>
<path d="M0,0 L1,3 L-2,4 L-4,2 Z " fill="#3E3F4D" transform="translate(35,61)"/>
<path d="M0,0 L2,0 L2,3 L-3,3 Z " fill="#24273E" transform="translate(90,61)"/>
<path d="M0,0 L3,2 L2,5 L0,4 Z " fill="#000005" transform="translate(33,55)"/>
<path d="M0,0 L3,1 L4,5 L0,2 Z " fill="#5C596B" transform="translate(49,51)"/>
<path d="M0,0 L3,0 L3,4 L1,4 Z " fill="#8A8798" transform="translate(63,48)"/>
<path d="M0,0 L3,3 L3,5 L-1,3 Z " fill="#242432" transform="translate(27,39)"/>
<path d="M0,0 L3,0 L2,6 L0,2 Z " fill="#3A3940" transform="translate(11,38)"/>
<path d="M0,0 L4,0 L4,2 L0,3 Z " fill="#54525F" transform="translate(81,29)"/>
<path d="M0,0 L1,0 L1,5 L-1,5 L-2,2 Z " fill="#07060E" transform="translate(95,23)"/>
<path d="M0,0 L6,0 L5,3 L0,1 Z " fill="#4E4C5F" transform="translate(61,27)"/>
<path d="M0,0 L3,0 L4,3 L0,3 Z " fill="#7A7F8C" transform="translate(7,25)"/>
<path d="M0,0 L5,2 L1,3 Z " fill="#292732" transform="translate(66,23)"/>
<path d="M0,0 L4,1 L-1,3 Z " fill="#050810" transform="translate(42,22)"/>
<path d="M0,0 L4,1 L4,3 L0,2 Z " fill="#414146" transform="translate(79,20)"/>
<path d="M0,0 L5,1 L1,3 Z " fill="#03060F" transform="translate(122,16)"/>
<path d="M0,0 L3,0 L3,2 L-1,4 Z " fill="#68636A" transform="translate(30,16)"/>
<path d="M0,0 L4,0 L4,2 L0,3 Z " fill="#49463F" transform="translate(146,14)"/>
<path d="M0,0 L4,1 L5,3 L0,2 Z " fill="#7A7B8C" transform="translate(119,10)"/>
<path d="M0,0 L5,0 L5,3 L0,1 Z " fill="#04070D" transform="translate(116,12)"/>
<path d="M0,0 L1,3 L-3,4 L-2,1 Z " fill="#B8B6AB" transform="translate(17,11)"/>
<path d="M0,0 L5,1 L2,3 L-1,2 Z " fill="#10162C" transform="translate(114,10)"/>
<path d="M0,0 L4,1 L4,3 L0,3 Z " fill="#0B1023" transform="translate(100,6)"/>
<path d="M0,0 L3,1 L3,3 L-2,3 L0,2 Z " fill="#73727C" transform="translate(63,5)"/>
<path d="M0,0 L4,0 L4,3 L1,3 Z " fill="#2E2C24" transform="translate(20,3)"/>
<path d="M0,0 L3,1 L3,3 L-1,2 Z " fill="#1F1D31" transform="translate(101,78)"/>
<path d="M0,0 L3,1 L1,3 L-2,2 Z " fill="#AFACBA" transform="translate(117,72)"/>
<path d="M0,0 L2,1 L2,3 L-4,2 Z " fill="#4D4F5B" transform="translate(68,72)"/>
<path d="M0,0 L4,0 L3,3 L1,3 Z " fill="#5C6173" transform="translate(69,72)"/>
<path d="M0,0 L3,0 L2,3 L-1,2 Z " fill="#484A54" transform="translate(47,64)"/>
<path d="M0,0 L4,1 L4,3 L0,2 Z " fill="#776F8E" transform="translate(0,64)"/>
<path d="M0,0 L2,0 L1,3 L-3,2 Z " fill="#291C28" transform="translate(123,61)"/>
<path d="M0,0 L1,2 L3,3 L0,4 L-2,2 L0,2 Z " fill="#0E0E25" transform="translate(87,59)"/>
<path d="M0,0 L2,3 L2,5 L-2,3 L0,3 Z " fill="#8C838C" transform="translate(9,52)"/>
<path d="M0,0 L2,0 L1,4 L-1,3 Z " fill="#807C8C" transform="translate(41,50)"/>
<path d="M0,0 L3,1 L-1,3 L-2,1 Z " fill="#14131F" transform="translate(32,50)"/>
<path d="M0,0 L2,0 L3,3 L0,4 L-1,1 Z " fill="#595567" transform="translate(75,29)"/>
<path d="M0,0 L2,0 L1,3 L-2,4 Z " fill="#565D63" transform="translate(28,26)"/>
<path d="M0,0 L4,2 L1,2 L0,5 L-1,1 Z " fill="#362D3B" transform="translate(132,23)"/>
<path d="M0,0 L3,0 L3,3 L0,3 Z " fill="#09090F" transform="translate(89,22)"/>
<path d="M0,0 L4,2 L0,3 Z " fill="#403D4C" transform="translate(82,17)"/>
<path d="M0,0 L3,1 L2,4 L0,4 Z " fill="#01010B" transform="translate(89,15)"/>
<path d="M0,0 L4,2 L0,3 Z " fill="#0B0A14" transform="translate(42,13)"/>
<path d="M0,0 L3,1 L2,3 L-1,3 Z " fill="#484058" transform="translate(93,11)"/>
<path d="M0,0 L4,2 L1,4 Z " fill="#9B969D" transform="translate(125,9)"/>
<path d="M0,0 L2,3 L2,5 L-1,4 Z " fill="#716C75" transform="translate(124,8)"/>
<path d="M0,0 L2,1 L0,5 L-2,3 Z " fill="#29344B" transform="translate(112,10)"/>
<path d="M0,0 L3,0 L3,3 L0,3 Z " fill="#323045" transform="translate(73,5)"/>
<path d="M0,0 L3,0 L1,4 Z " fill="#2A292D" transform="translate(2,0)"/>
<path d="M0,0 L3,0 L2,3 L0,3 Z " fill="#060305" transform="translate(146,69)"/>
<path d="M0,0 L2,0 L2,3 L-1,3 Z " fill="#0E0C22" transform="translate(72,65)"/>
<path d="M0,0 L2,1 L2,3 L-3,2 Z " fill="#484853" transform="translate(65,64)"/>
<path d="M0,0 L4,1 L1,3 Z " fill="#201F31" transform="translate(38,62)"/>
<path d="M0,0 L2,2 L1,4 L-1,4 Z " fill="#716E8C" transform="translate(112,57)"/>
<path d="M0,0 L3,1 L-1,3 Z " fill="#D6CEDE" transform="translate(140,52)"/>
<path d="M0,0 L3,0 L3,3 L0,2 Z " fill="#8D8796" transform="translate(61,31)"/>
<path d="M0,0 L2,0 L2,3 L-1,3 Z " fill="#1C222E" transform="translate(35,32)"/>
<path d="M0,0 L2,0 L1,3 L-2,2 Z " fill="#5A606D" transform="translate(46,25)"/>
<path d="M0,0 L2,0 L1,4 L-1,1 Z " fill="#757880" transform="translate(138,22)"/>
<path d="M0,0 L2,2 L2,5 L0,5 L-1,1 Z " fill="#3F4358" transform="translate(48,18)"/>
<path d="M0,0 L2,0 L2,3 L-2,1 Z " fill="#13161A" transform="translate(27,21)"/>
<path d="M0,0 L4,2 L2,4 Z " fill="#51535F" transform="translate(119,17)"/>
<path d="M0,0 L3,0 L2,3 L0,3 Z " fill="#474751" transform="translate(53,13)"/>
<path d="M0,0 L3,1 L2,3 L-1,2 Z " fill="#D9E2EF" transform="translate(110,4)"/>
<path d="M0,0 L4,2 L1,3 Z " fill="#989AA5" transform="translate(139,0)"/>
<path d="M0,0 L2,2 L-2,3 Z " fill="#070929" transform="translate(123,81)"/>
<path d="M0,0 L2,3 L-1,4 Z " fill="#523F52" transform="translate(134,61)"/>
<path d="M0,0 L4,2 L1,3 Z " fill="#2A2634" transform="translate(17,55)"/>
<path d="M0,0 L3,1 L2,3 L0,3 Z " fill="#37394B" transform="translate(96,52)"/>
<path d="M0,0 L2,1 L2,3 L-2,1 Z " fill="#202731" transform="translate(32,23)"/>
<path d="M0,0 L3,1 L3,3 L0,2 Z " fill="#1A1726" transform="translate(106,21)"/>
<path d="M0,0 L3,1 L3,3 L0,2 Z " fill="#4F4E51" transform="translate(75,21)"/>
<path d="M0,0 L2,3 L-1,3 Z " fill="#4E4D4B" transform="translate(20,19)"/>
<path d="M0,0 L3,1 L3,3 L0,2 Z " fill="#7B7C86" transform="translate(77,15)"/>
<path d="M0,0 L2,1 L2,3 L-1,2 Z " fill="#A29DAF" transform="translate(73,30)"/>
<path d="M0,0 L2,0 L1,3 L-1,1 Z " fill="#080B18" transform="translate(22,11)"/>
<path d="M0,0 L2,2 L-1,2 Z " fill="#34333D" transform="translate(80,25)"/>
</svg>
