<?xml version="1.0" encoding="UTF-8"?>
<!-- Generator: visioncortex VTracer 0.6.5 -->
<svg version="1.1" xmlns="http://www.w3.org/2000/svg" width="150" height="84">
<path d="M0,0 L150,0 L150,84 L0,84 Z " fill="#0C0B14" transform="translate(0,0)"/>
<path d="M0,0 L89,0 L89,3 L95,5 L98,7 L98,9 L100,10 L96,9 L90,7 L90,9 L97,11 L97,13 L104,14 L102,16 L95,17 L98,20 L98,22 L102,23 L102,21 L99,21 L99,19 L105,18 L108,19 L108,15 L110,15 L110,17 L116,19 L117,23 L119,23 L120,21 L123,21 L125,26 L126,31 L124,31 L123,28 L111,25 L113,30 L109,27 L109,25 L105,23 L105,20 L103,20 L104,27 L102,27 L102,33 L104,34 L106,37 L107,32 L112,31 L114,36 L117,34 L118,30 L121,30 L121,36 L120,37 L119,44 L113,52 L109,51 L109,43 L105,43 L105,41 L103,41 L100,44 L98,45 L97,49 L101,50 L101,52 L104,53 L103,57 L106,55 L111,55 L117,52 L119,52 L121,48 L120,46 L121,41 L126,42 L126,34 L127,34 L128,43 L133,43 L134,48 L126,57 L124,58 L122,61 L117,57 L117,55 L115,56 L115,59 L111,59 L111,61 L103,63 L103,68 L99,69 L100,71 L104,70 L104,68 L107,68 L107,70 L110,70 L109,67 L117,67 L117,69 L115,69 L117,73 L117,70 L120,68 L121,63 L125,62 L125,66 L125,70 L119,74 L112,75 L107,78 L100,81 L97,80 L102,77 L108,76 L108,73 L113,71 L101,74 L99,76 L95,76 L95,74 L98,74 L96,72 L93,74 L94,69 L89,71 L86,70 L89,68 L81,65 L81,63 L83,63 L82,61 L68,59 L68,57 L60,58 L60,56 L65,54 L66,52 L64,52 L64,47 L62,48 L60,52 L57,52 L57,49 L52,50 L53,47 L55,47 L57,41 L62,39 L54,39 L54,37 L69,35 L69,38 L71,40 L69,44 L68,49 L72,51 L75,53 L75,55 L71,56 L78,56 L81,51 L89,51 L86,50 L81,49 L84,42 L86,42 L86,44 L92,42 L91,39 L93,37 L95,38 L95,36 L97,36 L99,27 L94,28 L91,24 L91,22 L80,23 L74,20 L73,12 L67,11 L67,13 L63,13 L63,15 L70,16 L70,13 L72,14 L72,19 L64,19 L61,16 L50,16 L48,17 L44,13 L34,14 L27,15 L27,13 L21,14 L21,17 L14,18 L14,20 L12,20 L13,24 L15,25 L15,23 L17,23 L17,20 L21,19 L20,24 L27,22 L28,20 L30,20 L30,18 L38,17 L43,17 L41,21 L36,21 L37,24 L32,24 L31,27 L41,23 L43,23 L43,21 L52,19 L54,19 L54,21 L58,20 L65,22 L63,26 L59,26 L59,23 L51,23 L45,22 L45,25 L45,28 L37,32 L27,30 L22,30 L21,29 L20,37 L24,38 L25,43 L28,43 L29,48 L30,51 L32,51 L31,46 L36,47 L36,50 L38,50 L38,53 L33,52 L34,54 L42,57 L48,59 L48,56 L43,56 L43,54 L41,54 L43,48 L43,46 L40,45 L40,41 L42,41 L45,44 L46,41 L46,45 L49,46 L50,52 L48,51 L47,53 L49,53 L49,55 L54,56 L54,61 L49,62 L42,61 L40,60 L40,58 L36,58 L41,63 L33,62 L28,60 L29,57 L25,57 L24,60 L24,57 L19,55 L18,51 L13,50 L12,52 L9,50 L10,42 L13,41 L13,44 L17,43 L20,45 L17,39 L17,37 L15,37 L14,30 L10,31 L9,34 L2,33 L0,32 Z " fill="#020313" transform="translate(0,0)"/>
<path d="M0,0 L6,0 L8,4 L7,9 L13,11 L24,11 L27,15 L27,17 L33,15 L30,25 L28,25 L28,27 L25,28 L25,31 L19,33 L19,31 L17,31 L15,37 L20,38 L22,38 L22,40 L14,41 L11,46 L4,46 L4,43 L8,44 L3,39 L1,38 L1,31 L3,29 L1,27 L2,24 L-7,26 L-13,26 L-13,28 L-4,27 L-7,30 L-10,31 L-12,36 L-15,39 L-10,38 L-10,41 L-7,40 L-5,36 L-3,36 L-3,41 L-1,41 L-3,45 L-7,45 L-7,47 L1,46 L1,48 L10,48 L16,50 L16,52 L14,52 L14,54 L24,56 L20,59 L28,57 L27,60 L18,61 L18,63 L15,63 L15,61 L12,59 L13,57 L9,57 L10,64 L8,64 L8,60 L1,60 L1,58 L4,58 L5,55 L7,54 L-5,54 L-5,56 L-12,57 L-24,60 L-29,59 L-31,57 L-38,56 L-38,60 L-36,61 L-45,60 L-50,58 L-51,63 L-54,62 L-53,58 L-58,56 L-59,53 L-63,51 L-56,50 L-51,52 L-50,54 L-48,54 L-48,57 L-45,57 L-47,53 L-51,51 L-52,49 L-50,47 L-56,44 L-56,42 L-51,41 L-49,40 L-48,44 L-42,46 L-38,46 L-38,48 L-31,51 L-27,51 L-32,46 L-27,47 L-27,49 L-17,50 L-14,50 L-13,45 L-18,44 L-18,42 L-20,42 L-19,39 L-18,40 L-19,35 L-25,32 L-25,30 L-27,30 L-27,34 L-23,35 L-22,37 L-24,37 L-25,41 L-26,43 L-24,43 L-24,45 L-19,45 L-19,48 L-24,48 L-29,45 L-34,43 L-34,41 L-29,42 L-29,39 L-31,39 L-32,36 L-36,35 L-35,40 L-37,40 L-40,36 L-40,33 L-43,32 L-43,27 L-47,26 L-47,17 L-40,18 L-30,20 L-22,16 L-25,14 L-22,11 L-8,12 L-8,15 L-4,15 L-3,12 L-11,10 L-13,10 L-13,8 L-22,10 L-24,10 L-24,12 L-34,16 L-36,16 L-35,12 L-31,12 L-31,10 L-25,8 L-24,6 L-34,7 L-37,7 L-37,9 L-39,9 L-41,13 L-47,13 L-47,9 L-50,9 L-50,12 L-52,12 L-52,14 L-55,13 L-55,9 L-53,9 L-53,7 L-46,6 L-46,3 L-40,2 L-40,4 L-29,1 L-23,1 L-19,4 L-18,5 L-18,4 L-6,4 L-3,6 L-3,8 L5,8 L3,2 L3,5 L-4,4 L-4,2 L0,2 Z " fill="#34394E" transform="translate(67,11)"/>
<path d="M0,0 L2,0 L2,2 L0,4 L13,3 L16,4 L15,6 L17,5 L19,1 L19,4 L28,1 L41,2 L45,3 L45,9 L47,10 L44,10 L44,12 L53,13 L52,6 L51,3 L56,5 L58,6 L58,4 L60,4 L61,6 L66,8 L66,10 L63,10 L66,13 L66,15 L70,16 L70,14 L67,14 L67,12 L73,11 L76,12 L76,8 L78,8 L78,10 L84,12 L85,16 L87,16 L88,14 L91,14 L93,19 L94,24 L92,24 L91,21 L79,18 L81,23 L77,20 L77,18 L73,16 L73,13 L71,13 L72,20 L70,20 L70,26 L72,27 L74,30 L75,25 L80,24 L82,29 L85,27 L86,23 L89,23 L89,29 L88,30 L87,37 L81,45 L77,44 L77,36 L73,36 L73,34 L71,34 L68,37 L66,38 L65,42 L69,43 L69,45 L72,46 L71,50 L74,48 L79,48 L85,45 L87,45 L89,41 L88,39 L89,34 L94,35 L94,27 L95,27 L96,36 L101,36 L102,41 L94,50 L92,51 L90,54 L85,50 L85,48 L83,49 L83,52 L79,52 L79,54 L71,56 L71,61 L67,62 L68,64 L72,63 L72,61 L75,61 L75,63 L78,63 L77,60 L85,60 L85,62 L83,62 L85,66 L85,63 L88,61 L89,56 L93,55 L93,59 L93,63 L87,67 L80,68 L75,71 L68,74 L65,73 L70,70 L76,69 L76,66 L81,64 L69,67 L67,69 L63,69 L63,67 L66,67 L64,65 L61,67 L62,62 L57,64 L54,63 L57,61 L49,58 L49,56 L51,56 L50,54 L36,52 L36,50 L28,51 L28,49 L33,47 L34,45 L32,45 L32,40 L30,41 L28,45 L25,45 L25,42 L20,43 L21,40 L23,40 L25,34 L30,32 L22,32 L22,30 L37,28 L37,31 L39,33 L37,37 L36,42 L40,44 L43,46 L43,48 L39,49 L46,49 L49,44 L57,44 L54,43 L49,42 L52,35 L54,35 L54,37 L60,35 L59,32 L61,30 L63,31 L63,29 L65,29 L67,20 L62,21 L59,17 L59,15 L48,16 L42,13 L41,5 L35,4 L35,6 L31,6 L31,8 L38,9 L38,6 L40,7 L40,12 L32,12 L29,9 L18,9 L16,10 L12,6 L2,7 L-5,8 L-5,6 L-11,7 L-12,9 L-13,6 L-7,5 L-7,3 L-3,3 L-3,1 Z " fill="#141422" transform="translate(32,7)"/>
<path d="M0,0 L61,0 L61,55 L59,55 L59,57 L53,58 L55,54 L57,54 L57,52 L52,54 L49,54 L49,52 L53,48 L48,51 L42,59 L37,61 L39,57 L42,56 L44,51 L47,48 L49,48 L47,42 L43,38 L44,30 L40,28 L37,26 L36,20 L33,20 L31,21 L30,24 L27,23 L27,19 L21,17 L21,15 L19,15 L19,19 L10,19 L10,21 L13,21 L13,23 L8,22 L6,18 L5,16 L13,15 L8,13 L8,11 L1,9 L1,7 L7,8 L9,9 L9,7 L5,5 L0,3 Z " fill="#09080C" transform="translate(89,0)"/>
<path d="M0,0 L4,2 L6,8 L12,12 L12,20 L16,24 L17,30 L12,35 L7,40 L5,43 L10,40 L17,31 L21,30 L19,34 L17,34 L17,36 L25,34 L25,36 L21,40 L27,39 L27,37 L29,37 L29,66 L-18,66 L-18,63 L-21,62 L-10,57 L-9,56 L-2,55 L2,52 L4,52 L3,48 L4,45 L1,45 L0,51 L-4,52 L-4,55 L-6,54 L-6,51 L-4,51 L-4,49 L-11,50 L-11,52 L-14,52 L-14,50 L-17,50 L-17,52 L-22,54 L-22,51 L-18,50 L-18,45 L-14,43 L-10,43 L-10,41 L-7,40 L-6,37 L-4,37 L-4,39 L0,41 L1,42 L6,37 L12,30 L12,25 L7,26 L3,24 L0,23 L0,28 L0,31 L-4,35 L-10,38 L-15,38 L-18,39 L-18,35 L-20,34 L-20,32 L-24,31 L-23,26 L-19,25 L-18,22 L-16,23 L-16,25 L-12,25 L-11,28 L-11,33 L-7,32 L-3,26 L-2,19 L-1,18 L-1,13 L-3,14 L-5,18 L-7,18 L-9,13 L-13,14 L-15,20 L-17,19 L-17,16 L-20,15 L-20,7 L-19,9 L-17,9 L-18,2 L-16,2 L-14,6 L-9,10 L-10,7 L-5,7 L3,10 L3,13 L5,13 L3,8 L0,2 Z " fill="#2E2A35" transform="translate(121,18)"/>
<path d="M0,0 L10,0 L8,4 L3,4 L4,7 L-1,7 L-2,10 L8,6 L10,6 L10,4 L19,2 L21,2 L21,4 L25,3 L32,5 L30,9 L26,9 L26,6 L18,6 L12,5 L12,8 L12,11 L4,15 L-6,13 L-11,13 L-12,12 L-13,20 L-9,21 L-8,26 L-5,26 L-4,31 L-3,34 L-1,34 L-2,29 L3,30 L3,33 L5,33 L5,36 L0,35 L1,37 L9,40 L15,42 L15,39 L10,39 L10,37 L8,37 L10,31 L10,29 L7,28 L7,24 L9,24 L12,27 L13,24 L13,28 L16,29 L17,35 L15,34 L14,36 L16,36 L16,38 L21,39 L21,44 L16,45 L9,44 L7,43 L7,41 L3,41 L8,46 L0,45 L-5,43 L-4,40 L-8,40 L-9,43 L-9,40 L-14,38 L-15,34 L-20,33 L-21,35 L-24,33 L-23,25 L-20,24 L-20,27 L-16,26 L-13,28 L-16,22 L-16,20 L-18,20 L-19,13 L-23,14 L-24,17 L-31,16 L-33,15 L-33,6 L-32,5 L-27,5 L-25,1 L-19,2 L-21,3 L-20,7 L-18,8 L-18,6 L-16,6 L-16,3 L-12,2 L-13,7 L-6,5 L-5,3 L-3,3 L-3,1 Z " fill="#0C1019" transform="translate(33,17)"/>
<path d="M0,0 L6,1 L6,2 L-6,3 L-6,5 L3,4 L0,7 L-3,8 L-5,13 L-8,16 L-3,15 L-3,18 L0,17 L2,13 L4,13 L4,18 L6,18 L4,22 L0,22 L0,24 L8,23 L8,25 L17,25 L23,27 L23,29 L21,29 L21,31 L31,33 L27,36 L35,34 L34,37 L25,38 L25,40 L22,40 L22,38 L19,36 L20,34 L16,34 L17,41 L15,41 L15,37 L8,37 L8,35 L11,35 L12,32 L14,31 L2,31 L2,33 L-5,34 L-17,37 L-22,36 L-24,34 L-31,33 L-31,37 L-29,38 L-38,37 L-43,35 L-44,40 L-47,39 L-46,35 L-51,33 L-52,30 L-56,28 L-49,27 L-44,29 L-43,31 L-41,31 L-41,34 L-38,34 L-40,30 L-44,28 L-45,26 L-43,24 L-49,21 L-49,19 L-44,18 L-42,17 L-41,21 L-35,23 L-31,23 L-31,25 L-24,28 L-20,28 L-25,23 L-20,24 L-20,26 L-10,27 L-7,27 L-6,22 L-11,21 L-11,19 L-13,19 L-12,16 L-11,17 L-11,11 L-9,11 L-9,8 L-13,9 L-13,6 L-15,6 L-15,4 L-17,3 L-14,1 L-14,4 L-8,1 Z " fill="#2F2B41" transform="translate(60,34)"/>
<path d="M0,0 L14,1 L14,4 L18,4 L18,8 L26,9 L28,16 L25,15 L25,12 L7,14 L4,16 L1,16 L0,14 L0,18 L2,18 L3,20 L6,20 L6,23 L3,24 L-3,21 L-3,19 L-5,19 L-5,23 L-1,24 L0,26 L-2,26 L-3,30 L-4,32 L-2,32 L-2,34 L3,34 L3,37 L-2,37 L-7,34 L-12,32 L-12,30 L-7,31 L-7,28 L-9,28 L-10,25 L-14,24 L-13,29 L-15,29 L-18,25 L-18,22 L-21,21 L-21,16 L-25,15 L-25,6 L-18,7 L-8,9 L0,5 L-3,3 Z " fill="#2F333C" transform="translate(45,22)"/>
<path d="M0,0 L56,0 L56,29 L52,36 L47,36 L48,30 L50,30 L50,32 L52,32 L50,25 L48,18 L45,15 L40,10 L39,8 L35,8 L35,15 L33,15 L33,13 L30,13 L30,15 L23,16 L23,14 L19,13 L17,9 L14,8 L15,5 L15,7 L19,8 L23,10 L23,8 L18,6 L12,3 L8,3 L8,5 L3,4 L0,1 Z " fill="#31575F" transform="translate(94,0)"/>
<path d="M0,0 L5,0 L10,6 L8,7 L11,9 L19,11 L23,10 L28,12 L39,12 L40,15 L44,12 L46,10 L36,10 L36,8 L32,7 L36,6 L46,7 L65,7 L66,9 L63,9 L63,11 L60,12 L52,12 L52,14 L57,15 L60,15 L63,15 L61,13 L69,14 L71,16 L70,17 L78,18 L78,19 L0,19 Z " fill="#3F5460" transform="translate(0,65)"/>
<path d="M0,0 L2,0 L2,29 L-43,29 L-43,27 L-38,27 L-38,25 L-31,22 L-30,20 L-24,20 L-24,17 L-20,16 L-20,14 L-18,13 L-19,11 L-15,10 L-10,5 L-5,5 L-6,8 L-11,11 L-14,11 L-14,14 L-10,11 L-4,10 L-2,6 L-1,3 L-3,2 L0,2 Z " fill="#28252E" transform="translate(148,55)"/>
<path d="M0,0 L1,0 L2,9 L7,9 L8,14 L0,23 L-2,24 L-4,27 L-9,23 L-9,21 L-11,22 L-11,25 L-15,25 L-15,27 L-23,29 L-23,34 L-27,35 L-26,37 L-22,36 L-22,34 L-19,34 L-19,36 L-16,36 L-17,33 L-9,33 L-9,35 L-11,35 L-9,39 L-9,36 L-6,34 L-5,29 L-1,28 L-1,32 L-1,36 L-7,40 L-14,41 L-19,44 L-26,47 L-29,46 L-24,43 L-18,42 L-18,39 L-13,37 L-25,40 L-27,42 L-31,42 L-31,40 L-28,40 L-30,38 L-33,40 L-31,35 L-29,34 L-30,31 L-35,31 L-35,28 L-30,25 L-29,20 L-33,18 L-29,15 L-25,16 L-25,18 L-22,19 L-23,23 L-20,21 L-15,21 L-9,18 L-7,18 L-5,14 L-6,12 L-5,7 L0,8 Z " fill="#0C1126" transform="translate(126,34)"/>
<path d="M0,0 L5,0 L2,4 L-1,4 L6,6 L6,10 L7,9 L7,3 L11,2 L13,4 L11,5 L14,7 L13,9 L16,9 L16,7 L25,6 L26,7 L29,7 L29,9 L26,9 L26,11 L31,9 L34,7 L41,6 L45,6 L43,8 L39,8 L39,11 L30,15 L36,15 L34,19 L9,19 L0,18 L0,15 L-6,14 L-5,16 L-10,16 L-12,16 L-20,15 L-17,14 L-17,12 L-6,11 L-6,9 L-2,7 L-4,2 L-1,2 Z " fill="#111523" transform="translate(69,65)"/>
<path d="M0,0 L2,0 L2,3 L4,5 L2,9 L1,14 L5,16 L8,18 L8,20 L4,21 L11,21 L14,16 L22,15 L27,13 L30,15 L27,17 L31,19 L29,25 L27,27 L24,27 L24,30 L29,30 L29,32 L31,33 L22,36 L19,35 L22,33 L14,30 L14,28 L16,28 L15,26 L1,24 L1,22 L-7,23 L-7,21 L-2,19 L-1,17 L-3,17 L-3,12 L-5,13 L-7,17 L-10,17 L-10,14 L-15,15 L-14,12 L-12,12 L-10,6 L-5,4 L-13,4 L-13,2 Z " fill="#393848" transform="translate(67,35)"/>
<path d="M0,0 L4,2 L6,8 L12,12 L12,15 L8,15 L8,20 L11,23 L14,24 L13,27 L12,25 L7,26 L3,24 L0,23 L0,28 L0,31 L-4,35 L-10,38 L-15,38 L-18,39 L-18,35 L-20,34 L-20,32 L-24,31 L-23,26 L-19,25 L-18,22 L-16,23 L-16,25 L-12,25 L-11,28 L-11,33 L-7,32 L-3,26 L-2,19 L-1,18 L-1,13 L-3,14 L-5,18 L-7,18 L-9,13 L-13,14 L-15,20 L-17,19 L-17,16 L-20,15 L-20,7 L-19,9 L-17,9 L-18,2 L-16,2 L-14,6 L-9,10 L-10,7 L-5,7 L3,10 L3,13 L5,13 L3,8 L0,2 Z " fill="#424050" transform="translate(121,18)"/>
<path d="M0,0 L9,0 L13,2 L24,2 L27,6 L27,8 L33,6 L30,16 L28,16 L28,18 L25,19 L25,22 L19,24 L19,22 L17,22 L15,28 L20,29 L22,29 L22,31 L14,32 L11,37 L4,37 L4,34 L8,35 L5,31 L5,26 L10,25 L10,28 L12,27 L13,24 L8,22 L8,20 L12,19 L12,21 L15,21 L15,18 L13,18 L13,16 L18,15 L18,13 L14,13 L14,11 L12,11 L13,15 L11,15 L11,13 L9,13 L9,10 L7,10 L8,7 L19,9 L17,6 L13,5 L8,3 L0,3 Z " fill="#41404D" transform="translate(67,20)"/>
<path d="M0,0 L25,0 L25,3 L31,5 L34,7 L34,9 L36,10 L32,9 L26,7 L26,9 L33,11 L33,13 L40,14 L38,16 L34,17 L33,15 L28,13 L28,11 L26,11 L26,13 L21,11 L19,10 L19,12 L21,13 L21,20 L16,21 L12,19 L13,16 L12,12 L13,10 L-1,9 L-9,9 L-8,6 L-7,5 L-8,3 L1,3 Z " fill="#353944" transform="translate(64,0)"/>
<path d="M0,0 L6,0 L10,3 L11,4 L11,3 L23,3 L24,6 L23,8 L25,8 L25,10 L16,9 L16,7 L7,9 L5,9 L5,11 L-5,15 L-7,15 L-6,11 L-2,11 L-2,9 L4,7 L5,5 L-5,6 L-8,6 L-8,8 L-10,8 L-12,12 L-18,12 L-18,8 L-21,8 L-21,11 L-23,11 L-23,13 L-26,12 L-26,8 L-24,8 L-24,6 L-17,5 L-17,2 L-11,1 L-11,3 Z " fill="#292C2D" transform="translate(38,12)"/>
<path d="M0,0 L6,1 L6,2 L-6,3 L-6,5 L3,4 L0,7 L-3,8 L-5,13 L-8,16 L-3,15 L-3,18 L0,17 L2,13 L4,13 L4,18 L6,18 L4,22 L0,22 L0,24 L8,23 L8,25 L15,26 L15,28 L13,29 L4,29 L4,26 L-1,26 L-5,23 L-5,21 L-11,21 L-11,19 L-13,19 L-12,16 L-11,17 L-11,11 L-9,11 L-9,8 L-13,9 L-13,6 L-15,6 L-15,4 L-17,3 L-14,1 L-14,4 L-8,1 Z " fill="#3D374E" transform="translate(60,34)"/>
<path d="M0,0 L1,0 L1,11 L3,11 L6,17 L6,19 L8,20 L5,20 L1,18 L-1,18 L-2,16 L-4,20 L-3,26 L-8,28 L-11,23 L-11,21 L-14,19 L-14,6 L-5,8 L-4,4 L0,4 L-1,1 Z " fill="#1D1C21" transform="translate(14,26)"/>
<path d="M0,0 L5,0 L2,4 L-1,4 L6,6 L6,10 L7,9 L7,3 L11,2 L13,4 L11,5 L14,7 L13,9 L16,9 L16,7 L25,6 L22,9 L19,10 L20,12 L13,11 L15,13 L4,16 L-6,14 L-5,16 L-10,16 L-12,16 L-20,15 L-17,14 L-17,12 L-6,11 L-6,9 L-2,7 L-4,2 L-1,2 Z " fill="#293346" transform="translate(69,65)"/>
<path d="M0,0 L19,0 L20,3 L11,3 L14,4 L19,5 L19,6 L11,7 L15,9 L6,11 L5,12 L2,13 L2,11 L-7,11 L-15,12 L-13,9 L-11,9 L-11,7 L-14,8 L-14,6 L-7,5 L-7,2 L0,2 Z " fill="#37303C" transform="translate(45,0)"/>
<path d="M0,0 L1,0 L2,9 L7,9 L8,14 L0,23 L-2,24 L-4,27 L-9,23 L-9,21 L-11,22 L-11,25 L-20,26 L-19,21 L-14,20 L-7,18 L-5,14 L-6,12 L-5,7 L0,8 Z " fill="#030407" transform="translate(126,34)"/>
<path d="M0,0 L4,2 L5,7 L8,8 L13,5 L17,6 L14,9 L11,8 L11,10 L18,12 L16,16 L21,21 L25,24 L19,23 L19,20 L17,20 L16,22 L16,18 L9,17 L6,18 L12,23 L9,25 L5,21 L0,20 Z " fill="#09070D" transform="translate(0,45)"/>
<path d="M0,0 L2,0 L2,2 L-2,6 L3,6 L2,10 L-2,14 L-9,17 L-11,18 L-10,14 L-4,11 L-2,11 L-2,9 L-7,10 L-10,11 L-12,16 L-16,17 L-16,19 L-20,20 L-20,23 L-24,24 L-26,23 L-28,27 L-34,28 L-34,30 L-39,30 L-39,32 L-41,31 L-41,29 L-44,28 L-33,23 L-32,22 L-25,21 L-21,18 L-19,18 L-20,14 L-12,10 L-6,5 L-6,2 Z " fill="#5C4859" transform="translate(144,52)"/>
<path d="M0,0 L2,4 L7,6 L9,10 L11,11 L11,13 L8,13 L12,19 L14,21 L5,20 L0,18 L-1,23 L-4,22 L-3,18 L-8,16 L-9,13 L-13,11 L-6,10 L-1,12 L0,14 L2,14 L2,17 L5,17 L3,13 L-1,11 L-2,9 L0,7 L-6,4 L-6,2 L-1,1 Z " fill="#625E71" transform="translate(17,51)"/>
<path d="M0,0 L6,0 L7,5 L2,4 L2,9 L2,12 L-2,16 L-8,19 L-13,19 L-16,20 L-16,16 L-18,15 L-18,13 L-22,12 L-21,7 L-17,6 L-16,3 L-14,4 L-14,6 L-10,6 L-9,9 L-9,14 L-5,13 L-1,7 Z " fill="#525660" transform="translate(119,37)"/>
<path d="M0,0 L6,1 L4,2 L5,6 L7,7 L7,5 L9,5 L9,2 L13,1 L12,6 L16,5 L15,9 L10,9 L10,11 L8,11 L6,9 L6,12 L2,13 L1,16 L-6,15 L-8,14 L-8,5 L-7,4 L-2,4 Z " fill="#3D414B" transform="translate(8,18)"/>
<path d="M0,0 L25,0 L25,3 L31,5 L34,7 L34,9 L36,10 L32,9 L26,7 L26,9 L33,11 L33,13 L40,14 L38,16 L34,17 L33,15 L28,13 L28,11 L22,9 L23,5 L14,4 L8,3 L8,2 L3,1 L3,3 L5,3 L4,8 L-1,9 L-9,9 L-8,6 L-7,5 L-8,3 L1,3 Z " fill="#797787" transform="translate(64,0)"/>
<path d="M0,0 L2,0 L2,22 L-19,22 L-19,20 L-14,19 L-14,17 L-8,17 L-8,14 L-3,14 L-1,9 L-7,11 L-11,11 L-11,9 L-8,9 L-7,6 L-2,5 L-2,3 L0,3 Z " fill="#9BA0BE" transform="translate(148,62)"/>
<path d="M0,0 L2,0 L4,4 L2,4 L2,9 L-4,11 L-4,9 L-6,9 L-8,15 L-3,16 L-1,16 L-1,18 L-9,19 L-12,24 L-19,24 L-19,21 L-15,22 L-18,18 L-18,13 L-13,12 L-13,15 L-11,14 L-10,11 L-15,9 L-15,7 L-11,6 L-11,8 L-8,8 L-8,5 L-10,5 L-10,3 L-5,2 L-4,5 L-2,5 L-1,1 Z " fill="#545669" transform="translate(90,33)"/>
<path d="M0,0 L12,0 L20,4 L29,5 L34,8 L35,15 L33,15 L33,13 L30,13 L30,15 L23,16 L23,14 L19,13 L17,9 L14,8 L15,5 L15,7 L19,8 L23,10 L23,8 L18,6 L12,3 L8,3 L8,5 L3,4 L0,1 Z M34,4 L35,6 L38,7 L34,8 Z " fill="#2F3541" transform="translate(94,0)"/>
<path d="M0,0 L4,1 L5,5 L11,7 L11,11 L15,12 L16,14 L14,14 L13,18 L12,20 L14,20 L14,22 L19,22 L19,25 L14,25 L9,22 L4,20 L4,18 L9,19 L9,16 L7,16 L6,13 L2,12 L3,17 L1,17 L-2,13 L-1,8 L-4,8 L-4,6 L0,5 L1,3 L-1,2 Z " fill="#221E2E" transform="translate(29,34)"/>
<path d="M0,0 L4,2 L5,5 L8,5 L9,7 L12,9 L11,10 L13,11 L13,25 L9,32 L4,32 L5,26 L7,26 L7,28 L9,28 L7,21 L5,14 L1,10 L1,5 L-2,3 L0,3 Z " fill="#72878D" transform="translate(137,4)"/>
<path d="M0,0 L3,1 L0,9 L3,9 L3,6 L6,6 L8,12 L9,13 L9,18 L11,18 L12,20 L14,20 L15,25 L8,27 L5,27 L5,25 L9,21 L4,24 L-2,32 L-7,34 L-5,30 L-2,29 L0,24 L3,21 L5,21 L3,15 L-1,11 L0,3 L-2,2 L0,2 Z " fill="#0F0E14" transform="translate(133,27)"/>
<path d="M0,0 L2,0 L2,3 L4,5 L2,9 L1,15 L-2,16 L-3,13 L-5,13 L-7,17 L-10,17 L-10,14 L-15,15 L-14,12 L-12,12 L-10,6 L-5,4 L-13,4 L-13,2 Z " fill="#0C152D" transform="translate(67,35)"/>
<path d="M0,0 L2,0 L2,26 L0,26 L0,28 L-6,29 L-4,25 L-1,22 L-1,18 L-3,18 L-4,20 L-4,16 L-6,16 L-8,10 L-9,9 L-9,3 L-8,7 L-2,7 L-1,3 Z " fill="#050509" transform="translate(148,29)"/>
<path d="M0,0 L2,0 L5,3 L6,0 L6,4 L9,5 L10,11 L8,10 L7,12 L9,12 L9,14 L14,15 L14,20 L9,21 L2,20 L0,19 L0,17 L-6,17 L-7,13 L2,16 L8,18 L8,15 L3,15 L3,13 L1,13 L3,7 L3,5 L0,4 Z " fill="#1E1B2A" transform="translate(40,41)"/>
<path d="M0,0 L5,0 L6,3 L13,5 L12,2 L20,3 L28,8 L28,10 L23,8 L20,8 L25,13 L25,15 L16,15 L15,10 L12,10 L12,7 L9,8 L2,4 L0,3 Z " fill="#100F19" transform="translate(89,0)"/>
<path d="M0,0 L5,0 L10,6 L8,7 L10,8 L10,10 L6,11 L6,13 L10,15 L10,19 L0,19 Z " fill="#7F7A87" transform="translate(0,65)"/>
<path d="M0,0 L4,0 L4,6 L3,7 L2,14 L-4,22 L-8,21 L-8,10 L-5,7 L-4,5 L0,4 Z " fill="#090911" transform="translate(117,30)"/>
<path d="M0,0 L6,1 L8,1 L11,0 L11,3 L14,3 L15,8 L22,7 L27,7 L27,10 L28,15 L30,16 L26,16 L26,12 L20,10 L20,8 L18,8 L18,12 L9,12 L9,14 L12,14 L12,16 L7,15 L5,11 L4,9 L12,8 L7,6 L7,4 L0,2 Z " fill="#464147" transform="translate(90,7)"/>
<path d="M0,0 L4,2 L1,4 L5,6 L3,12 L1,14 L-2,14 L-2,17 L3,17 L3,19 L5,20 L-4,23 L-7,22 L-3,19 L-5,15 L-4,13 L-6,13 L-6,10 L-4,10 L-4,7 L-5,6 L-5,4 L-8,3 Z " fill="#393E51" transform="translate(93,48)"/>
<path d="M0,0 L1,4 L0,8 L-2,8 L-1,11 L2,13 L0,14 L-1,18 L-12,19 L-17,18 L-14,11 L-12,11 L-12,13 L-6,11 L-7,8 L-5,6 L-3,7 L-3,5 L-1,5 Z " fill="#1F1D29" transform="translate(98,31)"/>
<path d="M0,0 L4,0 L4,4 L12,5 L14,12 L11,11 L11,8 L-7,10 L-10,12 L-13,12 L-13,8 L-10,8 L-10,5 L-1,5 L1,4 L-2,3 L-2,1 Z " fill="#47495C" transform="translate(59,26)"/>
<path d="M0,0 L3,1 L1,3 L-3,3 L-3,6 L-12,10 L-11,12 L-17,13 L-17,11 L-22,13 L-30,13 L-32,11 L-30,10 L-17,8 L-16,6 L-11,4 L-8,2 L-1,1 Z " fill="#65697C" transform="translate(111,70)"/>
<path d="M0,0 L12,3 L8,6 L16,4 L15,7 L6,8 L6,10 L3,10 L3,8 L0,6 L1,4 L-3,4 L-2,11 L-4,11 L-4,7 L-11,7 L-11,5 L-8,5 L-7,2 Z " fill="#56536C" transform="translate(79,64)"/>
<path d="M0,0 L2,1 L1,4 L7,3 L7,5 L5,5 L5,7 L3,7 L1,11 L-5,11 L-5,7 L-8,7 L-8,10 L-10,10 L-10,12 L-13,11 L-13,7 L-11,7 L-11,5 L-4,4 L-4,1 Z " fill="#515556" transform="translate(25,13)"/>
<path d="M0,0 L7,0 L7,13 L3,13 L3,16 L0,17 L-2,14 Z " fill="#030305" transform="translate(10,0)"/>
<path d="M0,0 L13,1 L32,1 L33,3 L30,3 L30,5 L27,6 L19,6 L19,8 L12,8 L13,4 L3,4 L3,2 L-1,1 Z " fill="#686974" transform="translate(33,71)"/>
<path d="M0,0 L2,0 L2,2 L-2,6 L3,6 L2,10 L-2,14 L-9,17 L-11,18 L-10,14 L-4,11 L-2,11 L-2,9 L-7,10 L-10,11 L-11,14 L-16,14 L-11,9 L-6,5 L-6,2 Z " fill="#6D8B9B" transform="translate(144,52)"/>
<path d="M0,0 L4,1 L3,8 L-3,12 L-10,13 L-15,16 L-22,19 L-25,18 L-20,15 L-14,14 L-14,11 L-9,9 L-10,6 L-5,5 L-5,7 L-7,7 L-5,11 L-5,8 L-2,6 L-1,1 Z " fill="#2D2635" transform="translate(122,62)"/>
<path d="M0,0 L4,0 L4,2 L11,5 L15,9 L19,11 L18,14 L13,13 L11,11 L4,10 L3,13 L-1,6 L3,7 L3,5 L0,4 Z " fill="#1F1E27" transform="translate(25,57)"/>
<path d="M0,0 L5,1 L5,3 L15,4 L18,7 L15,7 L15,9 L19,10 L9,14 L8,11 L1,7 L5,5 Z " fill="#696973" transform="translate(35,57)"/>
<path d="M0,0 L6,0 L6,3 L4,3 L4,5 L9,6 L9,4 L13,6 L13,8 L9,9 L8,12 L1,11 L-1,10 L-1,1 Z " fill="#020209" transform="translate(1,22)"/>
<path d="M0,0 L11,0 L11,1 L5,1 L4,4 L3,5 L3,8 L-4,9 L-18,9 L-18,8 L-5,8 L-9,6 L-16,6 L-14,4 L-4,2 L-2,3 L-2,1 Z " fill="#2F3236" transform="translate(64,64)"/>
<path d="M0,0 L1,3 L-3,7 L-2,10 L0,10 L1,12 L4,12 L4,15 L1,16 L-5,13 L-5,11 L-13,10 L-15,8 L-15,5 L-13,5 L-14,1 L-9,1 L-9,4 L-11,5 L-12,8 L-3,5 L-3,3 L-1,3 Z " fill="#1C1F2C" transform="translate(47,30)"/>
<path d="M0,0 L14,0 L13,4 L11,4 L11,6 L6,8 L3,8 L3,11 L0,10 Z " fill="#0D1010" transform="translate(18,0)"/>
<path d="M0,0 L3,1 L3,3 L12,2 L11,6 L-1,7 L-1,9 L-13,9 L-13,7 L-8,7 L-8,5 L-1,2 Z " fill="#342F41" transform="translate(118,75)"/>
<path d="M0,0 L10,0 L8,4 L3,4 L4,7 L-1,7 L-2,10 L1,9 L1,12 L-4,11 L-9,7 L-5,3 L-3,3 L-3,1 Z " fill="#1E2629" transform="translate(33,17)"/>
<path d="M0,0 L1,2 L5,3 L9,5 L9,3 L6,2 L9,1 L11,3 L15,4 L15,6 L20,7 L21,10 L19,10 L19,8 L16,8 L16,10 L9,11 L9,9 L5,8 L3,4 L0,3 Z " fill="#738393" transform="translate(108,5)"/>
<path d="M0,0 L6,1 L6,2 L-6,3 L-6,5 L3,4 L0,7 L-5,9 L-13,9 L-13,6 L-15,6 L-15,4 L-17,3 L-14,1 L-14,4 L-8,1 Z " fill="#55546B" transform="translate(60,34)"/>
<path d="M0,0 L2,0 L2,2 L0,4 L13,3 L16,4 L15,6 L19,5 L18,10 L16,10 L12,6 L2,7 L-5,8 L-5,6 L-11,7 L-12,9 L-13,6 L-7,5 L-7,3 L-3,3 L-3,1 Z " fill="#0C090C" transform="translate(32,7)"/>
<path d="M0,0 L2,0 L2,13 L-3,16 L-5,18 L-7,16 L-3,14 L-1,9 L-7,11 L-11,11 L-11,9 L-8,9 L-7,6 L-2,5 L-2,3 L0,3 Z " fill="#A5A7A6" transform="translate(148,62)"/>
<path d="M0,0 L2,0 L2,3 L4,3 L4,5 L6,5 L5,1 L7,1 L7,3 L11,2 L13,5 L12,8 L11,6 L6,6 L6,8 L9,7 L8,12 L5,11 L5,9 L-2,10 L-3,1 L-1,2 Z " fill="#37344A" transform="translate(74,30)"/>
<path d="M0,0 L18,0 L20,1 L20,3 L22,3 L22,8 L17,6 L8,5 L0,1 Z " fill="#020308" transform="translate(106,0)"/>
<path d="M0,0 L6,1 L9,2 L9,4 L16,6 L21,8 L21,9 L4,9 L4,5 L-1,3 Z " fill="#09080F" transform="translate(6,75)"/>
<path d="M0,0 L4,0 L4,13 L0,20 L-5,20 L-4,14 L-2,14 L-2,16 L0,16 L-2,9 L-2,4 L-1,7 L1,5 Z " fill="#534B49" transform="translate(146,16)"/>
<path d="M0,0 L1,0 L1,11 L3,11 L6,17 L6,19 L8,20 L5,20 L1,18 L-1,18 L-2,16 L-4,16 L-4,4 L0,4 L-1,1 Z " fill="#2C2C36" transform="translate(14,26)"/>
<path d="M0,0 L4,2 L7,3 L7,6 L2,4 L0,3 L0,5 L2,6 L2,13 L-3,14 L-7,12 L-6,9 L-7,6 L-3,6 L-2,2 Z " fill="#444653" transform="translate(83,7)"/>
<path d="M0,0 L4,2 L6,8 L12,12 L12,15 L8,15 L8,20 L11,23 L14,24 L13,27 L12,25 L7,26 L6,25 L5,14 L3,13 L5,13 L3,8 L0,2 Z " fill="#25242C" transform="translate(121,18)"/>
<path d="M0,0 L3,0 L4,1 L4,0 L16,0 L17,3 L16,5 L18,5 L18,7 L9,6 L9,4 L7,5 L0,5 Z " fill="#3C424D" transform="translate(45,15)"/>
<path d="M0,0 L17,0 L18,3 L9,3 L12,4 L17,5 L17,6 L5,7 L1,5 Z " fill="#131116" transform="translate(47,0)"/>
<path d="M0,0 L2,0 L2,2 L8,4 L9,8 L11,8 L12,6 L15,6 L17,11 L18,16 L16,16 L15,13 L8,11 L4,10 L0,2 Z " fill="#030407" transform="translate(108,15)"/>
<path d="M0,0 L4,0 L6,5 L5,7 L2,7 L2,14 L1,12 L-3,12 L-3,10 L-7,11 L-8,5 L-2,6 L-1,1 Z " fill="#17161F" transform="translate(108,31)"/>
<path d="M0,0 L3,0 L5,7 L8,9 L9,15 L4,20 L-1,25 L-4,27 L-2,22 L4,15 L6,9 L2,8 L-1,5 Z " fill="#B2AAB5" transform="translate(129,33)"/>
<path d="M0,0 L1,3 L5,2 L10,8 L8,12 L7,9 L4,10 L1,9 L0,11 L-3,9 L-2,1 Z " fill="#08080C" transform="translate(12,41)"/>
<path d="M0,0 L13,0 L13,2 L6,2 L6,5 L-1,6 L-1,8 L-3,8 L-3,10 L-10,11 L-8,7 L-3,6 L-3,4 L-1,3 Z " fill="#7A838C" transform="translate(32,0)"/>
<path d="M0,0 L4,2 L2,3 L5,5 L4,7 L7,7 L7,5 L16,4 L13,7 L10,8 L11,10 L4,9 L6,11 L0,11 L-2,7 L-2,1 Z " fill="#434956" transform="translate(78,67)"/>
<path d="M0,0 L2,4 L7,6 L9,10 L11,11 L11,13 L-1,11 L-2,9 L0,7 L-6,4 L-6,2 L-1,1 Z " fill="#797B84" transform="translate(17,51)"/>
<path d="M0,0 L10,0 L10,4 L7,5 L5,10 L0,12 Z " fill="#676665" transform="translate(0,0)"/>
<path d="M0,0 L3,1 L2,5 L-1,8 L4,7 L3,11 L5,11 L4,14 L-4,13 L-4,11 L-6,11 L-5,8 L-4,9 L-4,3 L-2,3 L-2,1 Z " fill="#565267" transform="translate(53,42)"/>
<path d="M0,0 L5,3 L5,0 L7,0 L10,6 L14,10 L12,12 L9,12 L6,8 L6,6 L-5,7 L-8,5 L-2,4 L0,4 Z " fill="#343042" transform="translate(85,16)"/>
<path d="M0,0 L8,1 L6,2 L6,5 L8,5 L9,11 L0,9 L0,7 L2,7 L1,5 L-9,3 L-9,2 L0,2 Z " fill="#191C2F" transform="translate(81,56)"/>
<path d="M0,0 L14,3 L15,1 L21,2 L21,8 L18,6 L18,4 L11,7 L6,6 L6,4 L4,4 L5,8 L3,8 L3,6 L1,6 L1,3 L-1,3 Z " fill="#696872" transform="translate(75,27)"/>
<path d="M0,0 L9,0 L13,2 L24,2 L27,7 L23,6 L18,7 L11,4 L8,3 L0,3 Z " fill="#6A6A77" transform="translate(67,20)"/>
<path d="M0,0 L10,0 L11,3 L8,2 L3,1 L3,3 L5,3 L4,8 L-1,9 L-9,9 L-8,6 L-7,5 L-8,3 L1,3 Z " fill="#585562" transform="translate(64,0)"/>
<path d="M0,0 L1,0 L1,6 L-2,6 L-4,10 L-9,13 L-11,13 L-11,15 L-16,17 L-16,14 L-12,13 L-12,8 L-8,6 L-4,6 L-4,4 L-1,3 Z " fill="#615F7B" transform="translate(115,55)"/>
<path d="M0,0 L2,0 L0,4 L-2,4 L-1,9 L-10,16 L-13,13 L-8,8 L-2,1 Z " fill="#55485F" transform="translate(140,48)"/>
<path d="M0,0 L4,1 L4,3 L7,4 L6,8 L10,6 L11,10 L14,10 L14,12 L9,13 L6,12 L6,9 L2,9 L2,7 L2,6 L-4,3 Z " fill="#1C2139" transform="translate(97,49)"/>
<path d="M0,0 L12,0 L12,10 L8,8 L0,1 Z " fill="#35374A" transform="translate(138,0)"/>
<path d="M0,0 L3,1 L3,3 L7,4 L4,4 L3,8 L1,8 L1,10 L4,11 L1,13 L-1,12 L-1,10 L-5,9 L-4,4 L0,3 Z " fill="#454451" transform="translate(102,40)"/>
<path d="M0,0 L5,0 L10,6 L8,7 L10,8 L10,10 L6,10 L6,8 L0,8 Z " fill="#7C979E" transform="translate(0,65)"/>
<path d="M0,0 L7,2 L7,4 L3,4 L3,9 L-8,10 L-6,7 L-4,7 L-4,5 L-7,6 L-7,4 L0,3 Z " fill="#302D3D" transform="translate(38,2)"/>
<path d="M0,0 L4,0 L4,6 L3,7 L2,14 L-2,17 L-5,17 L-4,12 L-1,9 Z " fill="#020207" transform="translate(117,30)"/>
<path d="M0,0 L5,1 L14,0 L14,2 L6,3 L3,8 L-4,8 L-4,5 L0,6 L-3,2 Z " fill="#727382" transform="translate(75,49)"/>
<path d="M0,0 L2,0 L2,16 L0,15 L0,13 L-4,11 L-6,10 L-6,3 L-4,3 L-4,9 L-2,8 Z " fill="#A29FA4" transform="translate(6,35)"/>
<path d="M0,0 L1,2 L3,2 L5,6 L5,10 L9,12 L8,14 L6,14 L6,16 L3,15 L2,10 L0,10 L-1,4 Z " fill="#030408" transform="translate(15,27)"/>
<path d="M0,0 L4,2 L1,4 L5,6 L1,10 L-4,10 L-4,7 L-5,6 L-5,4 L-8,3 Z " fill="#4B4D5C" transform="translate(93,48)"/>
<path d="M0,0 L5,1 L5,4 L7,4 L7,7 L2,6 L4,13 L-1,12 L-3,3 L-1,3 L-1,5 L1,5 Z " fill="#080610" transform="translate(31,46)"/>
<path d="M0,0 L1,2 L8,2 L8,5 L6,6 L4,10 L1,10 L1,7 L-4,8 L-3,5 L-1,5 Z " fill="#2A2F45" transform="translate(56,42)"/>
<path d="M0,0 L2,0 L4,3 L7,3 L5,2 L5,0 L9,1 L9,3 L12,3 L12,6 L10,6 L10,10 L6,9 L4,8 L4,5 L2,5 L2,3 L0,3 Z " fill="#7B808B" transform="translate(125,15)"/>
<path d="M0,0 L4,1 L11,2 L21,1 L25,2 L25,4 L10,5 L-1,3 Z " fill="#040505" transform="translate(34,68)"/>
<path d="M0,0 L7,2 L7,9 L1,7 L-1,3 L-5,1 Z " fill="#7A7381" transform="translate(9,61)"/>
<path d="M0,0 L2,0 L5,3 L6,0 L6,4 L9,5 L10,11 L6,10 L2,12 L4,6 L0,4 Z " fill="#171423" transform="translate(40,41)"/>
<path d="M0,0 L8,1 L10,3 L9,4 L17,5 L17,6 L2,6 L-3,5 L-1,3 L2,2 Z " fill="#61708B" transform="translate(61,78)"/>
<path d="M0,0 L12,0 L20,4 L20,6 L15,4 L8,3 L8,5 L3,4 L0,1 Z " fill="#8B85A6" transform="translate(94,0)"/>
<path d="M0,0 L4,0 L2,4 L7,9 L11,12 L5,11 L5,8 L3,8 L2,10 L2,6 L-3,5 L-5,4 L-5,1 Z " fill="#383945" transform="translate(14,57)"/>
<path d="M0,0 L4,2 L6,3 L6,9 L1,10 L-3,6 L-4,3 L-2,3 L-1,5 Z " fill="#262834" transform="translate(21,47)"/>
<path d="M0,0 L6,0 L8,4 L8,10 L3,9 L5,8 L3,2 L3,5 L-4,4 L-4,2 L0,2 Z " fill="#414452" transform="translate(67,11)"/>
<path d="M0,0 L4,0 L4,4 L6,5 L5,2 L7,2 L7,0 L10,1 L9,4 L11,5 L8,6 L10,8 L1,6 L-3,2 L0,2 Z " fill="#0C0911" transform="translate(10,69)"/>
<path d="M0,0 L2,0 L2,2 L7,0 L7,5 L3,8 L-3,7 Z " fill="#494651" transform="translate(84,42)"/>
<path d="M0,0 L7,0 L3,3 L11,1 L10,4 L1,5 L1,7 L-2,7 L-2,5 L-5,3 Z " fill="#5C5F6F" transform="translate(84,67)"/>
<path d="M0,0 L2,0 L3,5 L10,7 L10,9 L17,10 L15,12 L11,13 L10,11 L5,9 L5,7 L-1,5 Z " fill="#605D73" transform="translate(87,4)"/>
<path d="M0,0 L11,0 L11,1 L5,1 L4,4 L3,5 L3,8 L-4,7 L-2,1 Z " fill="#0A081B" transform="translate(64,64)"/>
<path d="M0,0 L9,3 L13,4 L19,5 L17,8 L11,8 L7,6 L7,4 L1,4 Z " fill="#1E1D2E" transform="translate(33,54)"/>
<path d="M0,0 L6,0 L7,5 L2,4 L2,9 L3,11 L-3,11 L-1,7 Z " fill="#454B59" transform="translate(119,37)"/>
<path d="M0,0 L1,4 L5,5 L6,7 L4,7 L3,11 L0,12 L0,7 L-2,7 L-3,2 Z " fill="#625D6C" transform="translate(39,41)"/>
<path d="M0,0 L1,0 L2,10 L4,11 L4,8 L6,9 L5,11 L8,12 L2,13 L4,17 L-3,16 L-3,13 L0,13 Z " fill="#282728" transform="translate(17,0)"/>
<path d="M0,0 L5,1 L8,6 L8,8 L1,7 L-1,4 Z " fill="#05060D" transform="translate(129,7)"/>
<path d="M0,0 L5,0 L5,8 L3,8 L3,11 L0,10 Z " fill="#010203" transform="translate(18,0)"/>
<path d="M0,0 L4,1 L3,8 L-2,11 L-4,11 L-2,6 L-1,1 Z " fill="#1A0F1C" transform="translate(122,62)"/>
<path d="M0,0 L2,0 L5,4 L9,9 L11,11 L8,12 L4,8 L-1,7 L-1,1 Z " fill="#29222F" transform="translate(1,58)"/>
<path d="M0,0 L3,0 L3,2 L1,2 L1,5 L3,6 L-1,7 L-2,8 L-6,9 L-8,4 L-9,2 L0,2 Z " fill="#21313D" transform="translate(124,13)"/>
<path d="M0,0 L2,0 L3,4 L2,10 L-4,11 L-4,6 L0,6 L-1,4 L-6,3 L-6,2 L0,2 Z " fill="#251B2D" transform="translate(45,0)"/>
<path d="M0,0 L3,1 L1,3 L-3,3 L-3,6 L-5,7 L-12,7 L-10,3 L-1,1 Z " fill="#6F798E" transform="translate(111,70)"/>
<path d="M0,0 L2,0 L2,7 L0,7 L0,10 L-2,10 L-2,12 L-6,13 L-10,11 L-4,10 L-2,6 L-1,3 L-3,2 L0,2 Z " fill="#39454A" transform="translate(148,55)"/>
<path d="M0,0 L3,0 L3,2 L0,2 L0,4 L-2,4 L-2,6 L-7,6 L-7,8 L-9,7 L-9,5 L-12,4 L-5,1 Z " fill="#848092" transform="translate(112,76)"/>
<path d="M0,0 L2,0 L2,6 L8,6 L13,11 L5,10 L0,8 Z " fill="#181726" transform="translate(28,52)"/>
<path d="M0,0 L2,0 L4,4 L2,4 L2,9 L-6,8 L-6,6 L-2,5 L-1,1 Z " fill="#72707F" transform="translate(90,33)"/>
<path d="M0,0 L12,0 L15,1 L15,3 L13,4 L4,4 L4,1 Z " fill="#7B7690" transform="translate(60,59)"/>
<path d="M0,0 L3,0 L2,9 L-3,10 L-3,1 Z " fill="#121A34" transform="translate(3,13)"/>
<path d="M0,0 L13,0 L14,3 L1,4 Z " fill="#010102" transform="translate(51,0)"/>
<path d="M0,0 L4,1 L3,10 L-1,9 L-4,8 L-4,6 L0,5 L1,3 L-1,2 Z " fill="#7A7B89" transform="translate(29,34)"/>
<path d="M0,0 L2,0 L2,2 L6,1 L8,4 L7,7 L6,5 L1,5 L1,7 L4,6 L3,11 L0,10 L-1,5 Z " fill="#3B364B" transform="translate(79,31)"/>
<path d="M0,0 L12,2 L13,6 L6,6 L3,4 L-2,3 L-2,1 Z " fill="#110F1C" transform="translate(75,2)"/>
<path d="M0,0 L2,0 L2,3 L0,3 L-1,6 L-6,7 L-6,9 L-13,9 L-13,7 L-8,7 L-8,5 L-1,2 Z " fill="#1E1628" transform="translate(118,75)"/>
<path d="M0,0 L7,2 L15,7 L20,8 L20,10 L13,9 L5,5 L5,3 L0,2 Z " fill="#706A71" transform="translate(10,74)"/>
<path d="M0,0 L3,1 L0,9 L4,11 L6,13 L5,17 L5,15 L0,13 L-1,6 L0,3 L-2,2 L0,2 Z " fill="#332835" transform="translate(133,27)"/>
<path d="M0,0 L10,0 L10,3 L11,8 L13,9 L9,9 L9,5 L3,3 L3,1 L0,2 Z " fill="#333849" transform="translate(107,14)"/>
<path d="M0,0 L2,0 L2,2 L-3,7 L-11,7 L-12,9 L-13,6 L-7,5 L-7,3 L-3,3 L-3,1 Z " fill="#141114" transform="translate(32,7)"/>
<path d="M0,0 L4,3 L1,3 L1,5 L5,6 L-1,9 L-3,9 L-4,5 L-2,4 L-5,2 Z " fill="#818384" transform="translate(49,61)"/>
<path d="M0,0 L5,0 L5,2 L-7,4 L-10,6 L-13,6 L-13,3 Z " fill="#343043" transform="translate(59,32)"/>
<path d="M0,0 L4,2 L6,8 L12,12 L12,15 L8,15 L7,17 L7,14 L9,13 L2,7 Z " fill="#636671" transform="translate(121,18)"/>
<path d="M0,0 L8,1 L15,2 L15,5 L7,5 L7,3 L0,2 Z " fill="#0B0E16" transform="translate(23,79)"/>
<path d="M0,0 L5,1 L5,3 L12,5 L13,7 L3,6 L-2,6 L-3,4 L-1,3 Z " fill="#292334" transform="translate(20,70)"/>
<path d="M0,0 L5,1 L10,2 L11,5 L1,6 L-1,2 Z " fill="#67696D" transform="translate(51,62)"/>
<path d="M0,0 L5,1 L3,4 L1,11 L-1,13 L-4,13 L-4,11 L-2,11 L0,7 L-1,5 Z " fill="#060915" transform="translate(121,41)"/>
<path d="M0,0 L3,0 L3,2 L5,2 L6,4 L9,4 L9,7 L6,8 L0,5 L0,3 L-2,3 L-2,1 Z " fill="#373447" transform="translate(42,38)"/>
<path d="M0,0 L3,1 L0,4 L-8,7 L-10,7 L-9,3 L-5,3 L-5,1 Z " fill="#3F4751" transform="translate(41,20)"/>
<path d="M0,0 L3,0 L3,13 L0,13 Z " fill="#090E0E" transform="translate(14,0)"/>
<path d="M0,0 L2,0 L0,5 L-5,11 L-10,13 L-8,9 L-5,8 L-3,3 Z " fill="#100B13" transform="translate(136,48)"/>
<path d="M0,0 L2,1 L-2,2 L-2,4 L-4,4 L-4,7 L-6,7 L-6,9 L-9,8 L-9,4 L-7,4 L-7,2 Z " fill="#9699A0" transform="translate(21,16)"/>
<path d="M0,0 L2,0 L3,3 L-3,4 L-3,6 L0,6 L0,8 L-5,7 L-7,3 L-8,1 Z " fill="#393243" transform="translate(102,15)"/>
<path d="M0,0 L3,1 L3,3 L11,3 L7,4 L9,10 L6,11 L2,4 L0,3 Z " fill="#B8B8B9" transform="translate(139,12)"/>
<path d="M0,0 L5,2 L10,6 L10,11 L6,10 L8,9 L5,7 L5,5 L2,5 Z " fill="#484E53" transform="translate(140,4)"/>
<path d="M0,0 L3,0 L4,8 L7,9 L7,11 L0,11 Z " fill="#898588" transform="translate(10,31)"/>
<path d="M0,0 L9,2 L8,6 L6,6 L6,4 L4,4 L5,8 L3,8 L3,6 L1,6 L1,3 L-1,3 Z " fill="#878393" transform="translate(75,27)"/>
<path d="M0,0 L5,0 L10,3 L9,6 L6,7 L4,9 L3,5 L2,2 Z " fill="#3D3C48" transform="translate(111,25)"/>
<path d="M0,0 L2,4 L-3,11 L-9,15 L-7,10 L-1,3 Z " fill="#95909C" transform="translate(134,45)"/>
<path d="M0,0 L9,1 L11,8 L8,7 L8,4 L2,4 L2,2 L0,2 Z " fill="#545362" transform="translate(62,30)"/>
<path d="M0,0 L3,0 L2,7 L-1,6 L-1,9 L-7,10 L-7,8 L-2,5 Z " fill="#1C1D28" transform="translate(7,4)"/>
<path d="M0,0 L2,0 L0,4 L-4,6 L-5,9 L-10,9 L-5,4 Z " fill="#ABA7C0" transform="translate(138,57)"/>
<path d="M0,0 L2,3 L-1,6 L-8,5 L-8,2 L-1,1 Z " fill="#252A3F" transform="translate(95,56)"/>
<path d="M0,0 L3,0 L5,6 L6,7 L6,12 L8,13 L4,12 L4,7 L0,5 L-1,3 Z " fill="#716A6B" transform="translate(136,33)"/>
<path d="M0,0 L7,2 L9,5 L6,6 L-1,4 Z " fill="#1E1E24" transform="translate(78,24)"/>
<path d="M0,0 L10,0 L9,3 L-3,3 L-3,1 Z " fill="#16132E" transform="translate(120,81)"/>
<path d="M0,0 L2,0 L2,2 L-1,2 L-1,4 L1,4 L1,8 L-1,8 L-1,11 L-3,10 L-3,7 L-1,7 L-1,5 L-6,6 L-3,1 Z " fill="#877A89" transform="translate(118,62)"/>
<path d="M0,0 L3,1 L-1,8 L-6,8 L-5,2 L-3,2 L-3,4 L-1,4 Z " fill="#40464D" transform="translate(147,28)"/>
<path d="M0,0 L2,0 L3,5 L-1,7 L-5,7 L-5,4 L-2,4 L-2,1 Z " fill="#0F0816" transform="translate(126,71)"/>
<path d="M0,0 L4,1 L-1,7 L-3,7 L-3,9 L-6,9 L-7,6 L-1,2 Z " fill="#261E33" transform="translate(113,61)"/>
<path d="M0,0 L6,1 L5,5 L3,7 L-1,6 L-1,1 Z " fill="#1E252C" transform="translate(110,45)"/>
<path d="M0,0 L2,0 L2,2 L5,2 L5,6 L0,7 L-4,5 L-4,3 L0,3 Z " fill="#5E5F68" transform="translate(80,14)"/>
<path d="M0,0 L4,0 L4,2 L7,2 L7,5 L11,7 L12,10 L8,8 L0,1 Z " fill="#C2C8CE" transform="translate(138,0)"/>
<path d="M0,0 L4,1 L4,5 L-6,5 L-6,2 L0,3 Z " fill="#567D68" transform="translate(6,79)"/>
<path d="M0,0 L2,0 L2,3 L9,5 L5,6 L0,4 L-1,9 L-4,8 L-3,5 L-1,5 Z " fill="#68657A" transform="translate(17,65)"/>
<path d="M0,0 L1,0 L1,6 L-2,6 L-2,8 L-8,10 L-8,6 L-4,6 L-4,4 L-1,3 Z " fill="#817F94" transform="translate(115,55)"/>
<path d="M0,0 L3,1 L3,5 L-6,6 L-5,1 Z " fill="#111222" transform="translate(112,54)"/>
<path d="M0,0 L4,1 L4,3 L7,4 L7,5 L1,6 L-4,3 Z " fill="#2D313D" transform="translate(97,49)"/>
<path d="M0,0 L6,1 L8,0 L8,6 L5,7 L5,5 L1,6 Z " fill="#252332" transform="translate(100,36)"/>
<path d="M0,0 L2,0 L2,3 L-13,4 L-13,2 Z " fill="#12132A" transform="translate(67,35)"/>
<path d="M0,0 L8,2 L9,4 L8,6 L5,6 L5,4 L-1,4 Z " fill="#545867" transform="translate(66,24)"/>
<path d="M0,0 L8,0 L6,1 L6,3 L10,4 L6,6 L2,5 L2,1 Z " fill="#2F3641" transform="translate(51,26)"/>
<path d="M0,0 L4,0 L4,2 L2,2 L2,4 L0,4 L-2,8 L-4,8 L-5,5 Z " fill="#979799" transform="translate(28,16)"/>
<path d="M0,0 L10,0 L10,2 L3,2 L3,5 L-2,6 L0,5 Z " fill="#686375" transform="translate(35,0)"/>
<path d="M0,0 L5,2 L1,5 L-7,5 L-7,3 L-5,3 L-5,1 L-2,1 L-2,3 L1,3 Z " fill="#0D091D" transform="translate(109,67)"/>
<path d="M0,0 L6,0 L11,3 L11,5 L-1,3 L-2,1 Z " fill="#BBBEC5" transform="translate(17,59)"/>
<path d="M0,0 L2,0 L0,4 L-2,4 L-2,6 L-4,6 L-6,11 L-8,11 L-7,7 L-2,1 Z " fill="#857E91" transform="translate(140,48)"/>
<path d="M0,0 L3,0 L4,5 L0,8 L-2,1 Z " fill="#020310" transform="translate(130,43)"/>
<path d="M0,0 L4,1 L4,4 L2,4 L2,6 L8,7 L4,9 L4,7 L0,6 L0,3 L-2,3 L-2,1 Z " fill="#49445A" transform="translate(82,35)"/>
<path d="M0,0 L3,0 L3,3 L7,4 L6,6 L4,6 L4,8 L7,9 L3,9 L3,4 L-1,3 Z " fill="#3C3E4A" transform="translate(21,34)"/>
<path d="M0,0 L1,3 L-5,9 L-7,9 L-7,11 L-9,11 L-8,6 L-3,5 L-3,3 L-1,3 Z " fill="#11111B" transform="translate(47,30)"/>
<path d="M0,0 L10,0 L8,4 L2,4 L2,2 L0,2 Z " fill="#080F10" transform="translate(33,17)"/>
<path d="M0,0 L2,0 L0,5 L-8,6 L-7,2 Z " fill="#040313" transform="translate(60,8)"/>
<path d="M0,0 L10,0 L11,3 L4,1 L4,3 L8,4 L7,6 L0,2 Z " fill="#112429" transform="translate(128,0)"/>
<path d="M0,0 L2,0 L1,5 L-3,7 L-5,9 L-7,7 L-3,5 L-1,1 Z " fill="#B3AAC1" transform="translate(148,71)"/>
<path d="M0,0 L2,0 L2,2 L8,2 L8,4 L11,4 L10,7 L9,5 L0,4 Z " fill="#0A0918" transform="translate(63,26)"/>
<path d="M0,0 L6,1 L4,2 L4,5 L0,7 L0,4 L-2,4 Z " fill="#4E5763" transform="translate(8,18)"/>
<path d="M0,0 L6,0 L6,4 L4,4 L3,8 L0,7 L2,2 L0,2 Z " fill="#484552" transform="translate(67,1)"/>
<path d="M0,0 L12,0 L12,2 L0,3 Z " fill="#537A85" transform="translate(40,81)"/>
<path d="M0,0 L8,0 L13,1 L13,2 L6,4 L3,6 L4,2 L0,2 Z " fill="#24272F" transform="translate(38,74)"/>
<path d="M0,0 L8,1 L4,7 L1,6 Z " fill="#171422" transform="translate(28,66)"/>
<path d="M0,0 L2,0 L2,9 L-5,10 L-5,8 L0,8 L0,5 L-2,5 L-2,3 L0,3 Z " fill="#9594A5" transform="translate(148,62)"/>
<path d="M0,0 L2,1 L4,10 L0,10 L-1,2 Z " fill="#131019" transform="translate(92,37)"/>
<path d="M0,0 L5,1 L7,2 L7,4 L2,5 L2,3 L-5,3 L-1,1 Z " fill="#5D6575" transform="translate(52,16)"/>
<path d="M0,0 L2,1 L1,4 L-4,5 L-12,5 L-11,2 L-1,2 Z " fill="#63606F" transform="translate(67,4)"/>
<path d="M0,0 L8,0 L8,2 L5,4 L-3,3 L0,2 Z " fill="#101720" transform="translate(52,77)"/>
<path d="M0,0 L6,0 L3,3 L-1,3 L-1,5 L-6,6 L-6,2 L-4,2 L-4,4 L-2,4 Z " fill="#0C1010" transform="translate(136,67)"/>
<path d="M0,0 L3,3 L-3,6 L-6,6 L-5,2 Z " fill="#626373" transform="translate(41,32)"/>
<path d="M0,0 L5,0 L5,2 L1,2 L1,7 L-4,7 L-4,3 L0,3 Z " fill="#66586C" transform="translate(40,4)"/>
<path d="M0,0 L2,0 L2,5 L-6,5 L-6,3 Z " fill="#0A0A27" transform="translate(148,79)"/>
<path d="M0,0 L4,2 L2,3 L5,5 L-2,6 L-2,1 Z " fill="#232637" transform="translate(78,67)"/>
<path d="M0,0 L4,0 L4,2 L11,5 L11,6 L1,5 Z " fill="#494858" transform="translate(25,57)"/>
<path d="M0,0 L4,0 L5,5 L3,5 L3,3 L-5,4 L-5,2 Z " fill="#191328" transform="translate(65,54)"/>
<path d="M0,0 L3,3 L2,6 L-5,7 L-8,5 L-2,4 L0,4 Z " fill="#2F2F35" transform="translate(85,16)"/>
<path d="M0,0 L4,0 L4,8 L-1,8 L1,5 Z " fill="#76716A" transform="translate(146,16)"/>
<path d="M0,0 L9,0 L9,3 L0,3 Z " fill="#615F5F" transform="translate(34,13)"/>
<path d="M0,0 L7,2 L7,5 L5,5 L5,3 L1,2 L1,4 L4,5 L3,7 L-2,4 L-2,2 L0,2 Z " fill="#39353C" transform="translate(129,13)"/>
<path d="M0,0 L5,1 L9,3 L3,5 L-1,2 Z " fill="#51464E" transform="translate(19,75)"/>
<path d="M0,0 L3,0 L3,2 L0,2 L0,4 L-7,4 L-6,1 Z " fill="#6D727A" transform="translate(52,75)"/>
<path d="M0,0 L1,2 L-2,2 L-2,4 L1,5 L-3,5 L-3,7 L-7,5 L-7,3 L-4,3 L-4,1 Z " fill="#515653" transform="translate(139,69)"/>
<path d="M0,0 L2,1 L2,4 L-7,8 L-9,9 L-8,5 L-2,2 L0,2 Z " fill="#576172" transform="translate(142,61)"/>
<path d="M0,0 L3,1 L0,2 L0,4 L2,5 L1,8 L-3,7 L-3,2 Z " fill="#050617" transform="translate(99,54)"/>
<path d="M0,0 L2,0 L2,5 L4,5 L3,8 L-2,8 L-1,1 Z " fill="#6C677C" transform="translate(62,47)"/>
<path d="M0,0 L3,4 L0,7 L-4,5 L-5,2 L-2,1 L-1,3 Z " fill="#6B6366" transform="translate(8,47)"/>
<path d="M0,0 L3,1 L5,7 L7,8 L4,8 L0,6 L-2,6 L-1,3 L2,4 L2,2 L-1,1 Z " fill="#454B4C" transform="translate(15,38)"/>
<path d="M0,0 L7,0 L8,4 L0,5 L0,3 L2,3 L2,1 Z " fill="#333A46" transform="translate(26,31)"/>
<path d="M0,0 L1,2 L3,2 L3,0 L5,1 L3,7 L1,4 L-2,4 L-3,7 L-3,1 Z " fill="#12121C" transform="translate(138,29)"/>
<path d="M0,0 L3,2 L3,4 L0,4 L0,6 L-7,7 L-5,4 L-2,5 L-2,1 Z " fill="#0C0D1A" transform="translate(137,20)"/>
<path d="M0,0 L4,1 L11,5 L11,7 L6,5 L2,5 L0,1 Z " fill="#4A5159" transform="translate(106,3)"/>
<path d="M0,0 L4,2 L3,4 L-5,4 L-5,2 Z " fill="#777789" transform="translate(134,80)"/>
<path d="M0,0 L3,0 L3,3 L0,5 L1,7 L-4,7 L-3,2 L0,2 Z " fill="#202E47" transform="translate(63,74)"/>
<path d="M0,0 L7,0 L4,5 L0,4 L3,4 L3,2 L-2,3 Z " fill="#574B5E" transform="translate(112,74)"/>
<path d="M0,0 L11,1 L11,3 L3,4 L3,2 L-1,1 Z " fill="#4A4952" transform="translate(33,71)"/>
<path d="M0,0 L8,1 L11,3 L5,4 L4,7 Z " fill="#434454" transform="translate(24,63)"/>
<path d="M0,0 L10,1 L10,3 L1,4 L3,3 L3,1 Z " fill="#4B465C" transform="translate(72,59)"/>
<path d="M0,0 L11,2 L11,5 L6,5 L0,1 Z " fill="#807C8D" transform="translate(37,54)"/>
<path d="M0,0 L3,0 L2,4 L4,4 L3,7 L-2,6 Z " fill="#7E7B90" transform="translate(54,49)"/>
<path d="M0,0 L2,2 L4,8 L-1,8 L-2,4 L0,4 Z " fill="#06050C" transform="translate(98,35)"/>
<path d="M0,0 L6,1 L4,5 L-1,3 Z " fill="#171F2C" transform="translate(6,75)"/>
<path d="M0,0 L7,2 L7,5 L-1,3 L-5,1 Z " fill="#ABA2B1" transform="translate(9,61)"/>
<path d="M0,0 L2,0 L2,5 L6,7 L-3,7 L-4,4 L1,5 Z " fill="#3D394A" transform="translate(37,48)"/>
<path d="M0,0 L1,0 L3,6 L3,9 L-1,9 L-2,2 Z " fill="#4C4248" transform="translate(139,40)"/>
<path d="M0,0 L1,3 L1,10 L-2,12 L-2,2 L0,2 Z " fill="#463D3F" transform="translate(10,35)"/>
<path d="M0,0 L3,3 L4,10 L4,13 L2,11 L0,4 L-2,2 L0,2 Z " fill="#171522" transform="translate(108,17)"/>
<path d="M0,0 L2,2 L6,2 L6,4 L3,4 L3,6 L-2,5 L-2,3 L0,3 Z " fill="#20252C" transform="translate(7,22)"/>
<path d="M0,0 L5,0 L8,5 L4,4 L0,5 Z " fill="#6C6B75" transform="translate(86,22)"/>
<path d="M0,0 L6,1 L10,4 L10,6 L7,6 L7,4 L0,2 Z " fill="#100D12" transform="translate(90,7)"/>
<path d="M0,0 L4,1 L8,5 L7,7 L2,5 L3,2 L0,1 Z " fill="#A9B2B7" transform="translate(114,6)"/>
<path d="M0,0 L1,2 L5,3 L7,4 L8,8 L4,7 L3,4 L0,3 Z " fill="#9AA6B1" transform="translate(108,5)"/>
<path d="M0,0 L6,0 L5,4 L2,5 L0,4 Z " fill="#010202" transform="translate(26,0)"/>
<path d="M0,0 L3,1 L3,6 L0,7 L0,5 L-2,4 L-2,1 Z " fill="#070610" transform="translate(51,55)"/>
<path d="M0,0 L4,2 L-3,5 L-5,6 L-5,4 L-8,3 Z " fill="#43414C" transform="translate(93,48)"/>
<path d="M0,0 L2,0 L2,8 L-3,7 Z " fill="#373644" transform="translate(84,42)"/>
<path d="M0,0 L3,0 L3,7 L5,7 L5,9 L0,7 Z " fill="#21293C" transform="translate(68,42)"/>
<path d="M0,0 L1,3 L6,2 L5,6 L0,5 L0,3 L-2,2 Z " fill="#646074" transform="translate(45,35)"/>
<path d="M0,0 L3,0 L5,4 L2,4 L2,2 L-1,4 L-3,7 L-4,3 Z " fill="#46444F" transform="translate(90,31)"/>
<path d="M0,0 L5,3 L6,9 L5,7 L1,5 Z " fill="#05040A" transform="translate(104,18)"/>
<path d="M0,0 L6,1 L7,6 L3,7 L1,2 Z " fill="#16202F" transform="translate(115,15)"/>
<path d="M0,0 L2,1 L4,6 L-3,5 L-3,2 L0,2 Z " fill="#323636" transform="translate(17,11)"/>
<path d="M0,0 L1,2 L4,3 L0,4 Z M-2,4 L0,4 L1,9 L-5,7 L-5,5 Z " fill="#1B1E2C" transform="translate(128,4)"/>
<path d="M0,0 L4,0 L4,2 L8,4 L10,5 L10,7 L5,6 L2,3 L2,1 Z " fill="#436E78" transform="translate(124,0)"/>
<path d="M0,0 L2,1 L2,3 L-1,3 L-2,8 L-6,6 L-5,4 L-3,4 Z " fill="#283448" transform="translate(96,71)"/>
<path d="M0,0 L3,0 L3,3 L1,4 L-6,4 L-3,3 L-3,1 Z " fill="#A9B2C3" transform="translate(105,73)"/>
<path d="M0,0 L2,0 L2,2 L-4,7 L-6,2 Z " fill="#9497AC" transform="translate(144,52)"/>
<path d="M0,0 L8,0 L8,2 L1,4 L-3,3 L0,3 Z " fill="#585767" transform="translate(49,31)"/>
<path d="M0,0 L5,0 L1,1 L1,3 L-2,3 L-2,5 L-7,5 L-7,3 L0,2 Z " fill="#5E5680" transform="translate(119,79)"/>
<path d="M0,0 L1,4 L-5,7 L-4,2 Z " fill="#797FB5" transform="translate(149,75)"/>
<path d="M0,0 L8,1 L10,2 L10,4 L6,4 L6,2 L0,2 Z " fill="#DFD2E3" transform="translate(0,71)"/>
<path d="M0,0 L7,0 L8,4 L2,3 Z " fill="#39383E" transform="translate(36,67)"/>
<path d="M0,0 L4,2 L5,4 L0,5 L-5,4 L-5,3 L0,3 Z " fill="#A6A4B4" transform="translate(5,67)"/>
<path d="M0,0 L4,1 L7,3 L1,5 L-1,1 Z " fill="#857487" transform="translate(125,65)"/>
<path d="M0,0 L2,0 L1,5 L-3,6 L-7,4 L-1,3 Z " fill="#243243" transform="translate(145,62)"/>
<path d="M0,0 L4,0 L4,2 L0,4 L-5,4 L-5,1 Z " fill="#242731" transform="translate(14,57)"/>
<path d="M0,0 L2,1 L0,5 L-6,5 L-6,2 L-2,3 L-2,1 Z " fill="#787685" transform="translate(77,52)"/>
<path d="M0,0 L2,1 L2,3 L8,3 L8,5 L3,4 L3,6 L1,6 L1,4 L-1,4 Z " fill="#242B41" transform="translate(62,16)"/>
<path d="M0,0 L4,0 L3,4 L5,4 L5,6 L0,5 L1,2 L-1,1 Z " fill="#464D65" transform="translate(58,16)"/>
<path d="M0,0 L5,0 L6,4 L-1,3 Z " fill="#03030E" transform="translate(61,68)"/>
<path d="M0,0 L2,0 L5,4 L5,6 L1,5 L-1,4 Z " fill="#615A6E" transform="translate(1,58)"/>
<path d="M0,0 L3,1 L1,5 L-4,7 Z " fill="#1A1729" transform="translate(136,54)"/>
<path d="M0,0 L2,0 L5,7 L0,6 Z " fill="#000003" transform="translate(30,52)"/>
<path d="M0,0 L1,4 L5,5 L3,6 L-2,6 L-3,2 Z " fill="#827D8D" transform="translate(39,41)"/>
<path d="M0,0 L5,0 L5,2 L-4,3 L-5,1 Z " fill="#2A2636" transform="translate(59,32)"/>
<path d="M0,0 L1,3 L-2,3 L-4,7 L-5,6 L-5,1 Z " fill="#17181F" transform="translate(23,26)"/>
<path d="M0,0 L2,0 L3,4 L0,4 L-4,3 L-4,1 Z " fill="#4D4C4D" transform="translate(84,22)"/>
<path d="M0,0 L5,1 L5,3 L2,4 L-1,5 L-2,1 Z " fill="#1A1726" transform="translate(93,14)"/>
<path d="M0,0 L9,2 L7,4 L3,5 L0,2 Z " fill="#8D8891" transform="translate(95,12)"/>
<path d="M0,0 L8,1 L8,3 L-1,3 Z " fill="#080710" transform="translate(64,8)"/>
<path d="M0,0 L4,0 L5,5 L1,6 Z " fill="#0D0C10" transform="translate(47,0)"/>
<path d="M0,0 L5,0 L6,3 L-1,4 L-3,2 L0,2 Z " fill="#395059" transform="translate(72,77)"/>
<path d="M0,0 L2,0 L2,6 L-2,5 L-3,2 Z " fill="#15182E" transform="translate(99,63)"/>
<path d="M0,0 L4,1 L3,4 L-2,5 Z " fill="#05030B" transform="translate(122,62)"/>
<path d="M0,0 L3,1 L4,4 L6,5 L6,7 L0,6 L0,4 L2,4 Z " fill="#030315" transform="translate(81,59)"/>
<path d="M0,0 L4,4 L3,5 L-2,5 L-2,2 L0,2 Z " fill="#3D3F52" transform="translate(91,53)"/>
<path d="M0,0 L4,1 L1,4 L-2,3 L-3,5 L-5,3 Z " fill="#25202A" transform="translate(13,50)"/>
<path d="M0,0 L3,2 L2,7 L-1,6 L-2,1 Z " fill="#0A071C" transform="translate(58,45)"/>
<path d="M0,0 L4,1 L7,2 L6,5 L5,3 L0,4 Z " fill="#606171" transform="translate(128,40)"/>
<path d="M0,0 L6,2 L5,4 L-1,4 Z " fill="#4D4A5C" transform="translate(33,39)"/>
<path d="M0,0 L5,1 L6,6 L5,4 L0,2 Z " fill="#281A1F" transform="translate(133,38)"/>
<path d="M0,0 L4,1 L4,7 L2,7 L1,3 L-1,2 Z " fill="#9798AB" transform="translate(29,34)"/>
<path d="M0,0 L14,1 L14,2 L5,3 L0,1 Z " fill="#252D39" transform="translate(45,22)"/>
<path d="M0,0 L4,2 L4,6 L0,4 Z " fill="#0A0817" transform="translate(94,18)"/>
<path d="M0,0 L5,0 L8,2 L8,4 L10,5 L6,4 L0,1 Z " fill="#A09AA8" transform="translate(90,5)"/>
<path d="M0,0 L5,0 L6,3 L-2,3 L0,2 Z " fill="#0D0D12" transform="translate(59,0)"/>
<path d="M0,0 L7,0 L3,3 L-2,3 Z " fill="#747A8D" transform="translate(84,67)"/>
<path d="M0,0 L5,0 L4,3 L-1,4 Z " fill="#121B34" transform="translate(138,60)"/>
<path d="M0,0 L2,1 L4,5 L5,8 L2,8 L0,5 Z " fill="#48424F" transform="translate(124,57)"/>
<path d="M0,0 L1,2 L3,2 L3,7 L0,7 Z " fill="#52535B" transform="translate(116,55)"/>
<path d="M0,0 L4,2 L7,5 L3,6 L0,2 Z " fill="#0C0C11" transform="translate(91,22)"/>
<path d="M0,0 L3,0 L4,5 L0,5 Z " fill="#322733" transform="translate(41,6)"/>
<path d="M0,0 L5,2 L5,4 L-1,4 Z " fill="#696873" transform="translate(71,5)"/>
<path d="M0,0 L4,0 L4,3 L-2,4 Z " fill="#979999" transform="translate(24,7)"/>
<path d="M0,0 L4,2 L5,5 L-2,4 L0,3 Z " fill="#739E9F" transform="translate(137,4)"/>
<path d="M0,0 L8,1 L8,4 L5,3 L4,5 L4,3 L0,2 Z " fill="#3F6865" transform="translate(132,1)"/>
<path d="M0,0 L2,1 L2,3 L-4,4 L-6,1 L-1,1 Z " fill="#526074" transform="translate(58,79)"/>
<path d="M0,0 L4,2 L4,4 L-3,4 L-3,2 Z " fill="#515258" transform="translate(58,63)"/>
<path d="M0,0 L2,0 L2,2 L5,3 L1,5 L-1,4 Z " fill="#525763" transform="translate(108,51)"/>
<path d="M0,0 L2,3 L2,6 L-1,6 L-1,4 L-3,4 L-2,1 L-1,2 Z " fill="#504D61" transform="translate(50,49)"/>
<path d="M0,0 L2,0 L0,5 L-4,6 L-1,1 Z " fill="#1F1922" transform="translate(136,48)"/>
<path d="M0,0 L4,2 L5,4 L0,5 Z " fill="#21191B" transform="translate(0,45)"/>
<path d="M0,0 L4,1 L3,6 L0,5 Z " fill="#161B18" transform="translate(142,40)"/>
<path d="M0,0 L8,1 L6,3 L0,3 Z " fill="#192B42" transform="translate(63,38)"/>
<path d="M0,0 L1,3 L4,2 L4,5 L-1,4 L-2,1 Z " fill="#1C252B" transform="translate(30,24)"/>
<path d="M0,0 L2,0 L1,4 L-4,4 L-4,2 Z " fill="#444749" transform="translate(22,23)"/>
<path d="M0,0 L1,3 L0,6 L-3,5 L-3,1 Z " fill="#20262C" transform="translate(20,19)"/>
<path d="M0,0 L3,1 L3,5 L5,6 L1,6 Z " fill="#46515A" transform="translate(115,17)"/>
<path d="M0,0 L1,3 L4,4 L-1,6 L-3,4 L0,3 Z " fill="#18191D" transform="translate(13,13)"/>
<path d="M0,0 L8,0 L6,4 L6,2 L0,3 Z " fill="#3F383E" transform="translate(26,14)"/>
<path d="M0,0 L6,2 L8,4 L6,4 L5,6 L5,3 L2,4 Z " fill="#070609" transform="translate(96,4)"/>
<path d="M0,0 L5,0 L7,4 L4,4 Z " fill="#4A4C59" transform="translate(73,5)"/>
<path d="M0,0 L7,0 L8,4 L2,2 Z " fill="#121119" transform="translate(106,0)"/>
<path d="M0,0 L4,0 L4,4 L0,5 Z " fill="#595964" transform="translate(6,0)"/>
<path d="M0,0 L4,1 L3,3 L-3,3 L-3,1 Z " fill="#0F0A0E" transform="translate(126,81)"/>
<path d="M0,0 L5,1 L5,4 L0,4 Z " fill="#1B2531" transform="translate(10,80)"/>
<path d="M0,0 L6,0 L6,3 L0,2 Z " fill="#54675C" transform="translate(0,79)"/>
<path d="M0,0 L7,1 L6,3 L-1,3 Z " fill="#515968" transform="translate(95,76)"/>
<path d="M0,0 L5,0 L5,3 L-1,3 Z " fill="#CDCED8" transform="translate(143,67)"/>
<path d="M0,0 L5,1 L6,3 L-2,2 Z " fill="#242435" transform="translate(35,60)"/>
<path d="M0,0 L3,1 L2,5 L0,5 L0,3 L-2,3 L-2,1 Z " fill="#928FA6" transform="translate(53,42)"/>
<path d="M0,0 L4,0 L4,5 L0,4 Z " fill="#0D0A14" transform="translate(117,30)"/>
<path d="M0,0 L5,0 L5,6 L2,4 L2,2 L0,2 Z " fill="#5E5C69" transform="translate(91,29)"/>
<path d="M0,0 L3,0 L3,2 L5,3 L3,3 L3,5 L0,4 Z " fill="#707681" transform="translate(12,20)"/>
<path d="M0,0 L2,0 L5,5 L4,7 L1,6 Z " fill="#6D6A7C" transform="translate(103,20)"/>
<path d="M0,0 L3,1 L0,4 L-3,4 L-3,1 Z " fill="#4D565E" transform="translate(41,20)"/>
<path d="M0,0 L2,0 L2,2 L5,3 L5,6 L2,6 Z " fill="#56535D" transform="translate(103,13)"/>
<path d="M0,0 L4,0 L4,2 L6,2 L6,5 L2,3 Z " fill="#C2D4DA" transform="translate(138,0)"/>
<path d="M0,0 L4,2 L6,4 L0,4 Z " fill="#5A656D" transform="translate(78,74)"/>
<path d="M0,0 L3,0 L1,5 L-2,4 L0,4 L0,2 L-3,1 Z " fill="#3B2D3B" transform="translate(144,71)"/>
<path d="M0,0 L3,1 L2,4 L4,5 L0,5 Z " fill="#382D39" transform="translate(128,69)"/>
<path d="M0,0 L4,3 L-5,3 L-3,1 Z " fill="#B0B1B7" transform="translate(49,61)"/>
<path d="M0,0 L7,3 L5,5 L-1,2 Z " fill="#5D6468" transform="translate(18,61)"/>
<path d="M0,0 L5,1 L7,3 L3,4 L3,2 L0,3 Z " fill="#1E2132" transform="translate(0,56)"/>
<path d="M0,0 L3,1 L3,3 L-3,4 L-3,2 Z " fill="#403C51" transform="translate(141,50)"/>
<path d="M0,0 L5,2 L4,6 L3,3 L0,2 Z " fill="#CEC5C6" transform="translate(3,45)"/>
<path d="M0,0 L3,1 L3,3 L1,3 L1,5 L-2,4 Z " fill="#040309" transform="translate(108,31)"/>
<path d="M0,0 L5,1 L4,4 L-3,3 Z " fill="#343C40" transform="translate(45,23)"/>
<path d="M0,0 L2,1 L1,3 L-1,3 L-1,5 L-3,4 L-4,1 Z " fill="#646262" transform="translate(25,13)"/>
<path d="M0,0 L6,2 L4,3 L4,5 L1,4 Z " fill="#5C5A68" transform="translate(91,9)"/>
<path d="M0,0 L6,0 L5,3 L2,4 L2,2 L0,2 Z " fill="#292634" transform="translate(67,1)"/>
<path d="M0,0 L3,0 L3,5 L0,5 Z " fill="#CED1D4" transform="translate(3,0)"/>
<path d="M0,0 L8,0 L8,3 L5,4 L4,2 Z " fill="#1B2A35" transform="translate(73,80)"/>
<path d="M0,0 L6,1 L4,3 L0,3 Z " fill="#0E0B18" transform="translate(121,75)"/>
<path d="M0,0 L7,2 L7,4 L0,2 Z " fill="#7A7B8C" transform="translate(10,74)"/>
<path d="M0,0 L2,0 L1,5 L-2,4 Z " fill="#E1D4EC" transform="translate(148,71)"/>
<path d="M0,0 L4,0 L5,7 L3,7 L1,2 Z " fill="#6F6F87" transform="translate(72,68)"/>
<path d="M0,0 L4,2 L2,4 L-3,4 Z " fill="#403E4E" transform="translate(48,58)"/>
<path d="M0,0 L5,1 L4,4 L4,2 L-1,3 Z " fill="#27253A" transform="translate(53,47)"/>
<path d="M0,0 L2,1 L0,6 L-3,5 L-2,3 L0,3 Z " fill="#5D5C6A" transform="translate(102,40)"/>
<path d="M0,0 L2,0 L3,5 L-1,4 Z " fill="#686B76" transform="translate(142,30)"/>
<path d="M0,0 L3,1 L2,6 L-1,3 Z " fill="#4F4F55" transform="translate(75,22)"/>
<path d="M0,0 L1,2 L3,3 L3,6 L0,6 L-1,2 Z " fill="#323644" transform="translate(82,10)"/>
<path d="M0,0 L3,0 L3,2 L-3,4 L-3,1 Z " fill="#6D7792" transform="translate(3,13)"/>
<path d="M0,0 L2,0 L2,4 L0,4 L-1,6 L-1,3 L-3,2 L0,2 Z " fill="#5A666C" transform="translate(29,4)"/>
<path d="M0,0 L5,0 L2,1 L4,6 L0,4 Z " fill="#3F3D4D" transform="translate(101,2)"/>
<path d="M0,0 L2,1 L0,4 L-3,4 L-3,1 Z " fill="#3D3748" transform="translate(103,80)"/>
<path d="M0,0 L4,1 L-2,5 Z " fill="#080B12" transform="translate(95,69)"/>
<path d="M0,0 L2,1 L2,4 L-2,5 L-2,2 L0,2 Z " fill="#5A7489" transform="translate(142,61)"/>
<path d="M0,0 L2,0 L0,4 L-3,6 L-1,1 Z " fill="#C8C9DE" transform="translate(138,57)"/>
<path d="M0,0 L3,2 L-3,6 L-1,1 Z " fill="#817B86" transform="translate(128,54)"/>
<path d="M0,0 L2,3 L0,5 L-3,5 L-3,3 L-1,3 Z " fill="#161F22" transform="translate(120,49)"/>
<path d="M0,0 L2,0 L2,3 L-3,4 L-4,2 Z " fill="#0F0F16" transform="translate(97,49)"/>
<path d="M0,0 L4,2 L2,2 L2,5 L-1,4 Z " fill="#484752" transform="translate(28,43)"/>
<path d="M0,0 L3,1 L2,5 L0,5 L-1,1 Z " fill="#2E3345" transform="translate(77,43)"/>
<path d="M0,0 L2,1 L2,3 L6,4 L2,4 L1,6 Z " fill="#3D3B4B" transform="translate(100,36)"/>
<path d="M0,0 L4,2 L-2,4 L-3,2 Z " fill="#494D5B" transform="translate(29,32)"/>
<path d="M0,0 L2,0 L1,6 L-1,5 Z " fill="#383443" transform="translate(115,28)"/>
<path d="M0,0 L4,2 L4,4 L0,4 Z " fill="#06070B" transform="translate(10,26)"/>
<path d="M0,0 L4,1 L4,3 L1,3 L1,5 L-1,4 Z " fill="#040909" transform="translate(24,25)"/>
<path d="M0,0 L5,0 L5,2 L7,3 L5,4 Z " fill="#393942" transform="translate(69,23)"/>
<path d="M0,0 L2,0 L2,2 L4,3 L-1,4 Z " fill="#030809" transform="translate(30,19)"/>
<path d="M0,0 L3,1 L3,3 L-2,4 L-2,1 Z " fill="#373F4C" transform="translate(2,19)"/>
<path d="M0,0 L3,0 L4,4 L1,5 Z " fill="#C5C0B4" transform="translate(144,18)"/>
<path d="M0,0 L4,2 L2,6 Z " fill="#121324" transform="translate(83,10)"/>
<path d="M0,0 L2,4 L-4,5 L-2,2 L0,2 Z " fill="#3B313A" transform="translate(34,7)"/>
<path d="M0,0 L4,1 L1,3 L-2,4 L-2,1 Z " fill="#182020" transform="translate(25,4)"/>
<path d="M0,0 L4,0 L4,3 L0,3 Z " fill="#799DB5" transform="translate(40,81)"/>
<path d="M0,0 L4,0 L2,5 L0,1 Z " fill="#030608" transform="translate(38,76)"/>
<path d="M0,0 L4,2 L0,3 L-1,5 Z " fill="#101223" transform="translate(78,67)"/>
<path d="M0,0 L2,1 L0,6 L-3,5 L-2,2 L0,2 Z " fill="#41384B" transform="translate(16,68)"/>
<path d="M0,0 L5,0 L2,4 L0,4 Z " fill="#37324F" transform="translate(69,65)"/>
<path d="M0,0 L6,1 L6,3 L1,3 Z " fill="#8F8E9E" transform="translate(20,64)"/>
<path d="M0,0 L2,0 L2,2 L4,2 L3,5 L0,3 Z " fill="#10131E" transform="translate(126,49)"/>
<path d="M0,0 L2,2 L0,2 L-1,5 L-5,3 Z " fill="#434D51" transform="translate(115,49)"/>
<path d="M0,0 L3,1 L1,5 L-1,5 Z " fill="#0A0712" transform="translate(43,48)"/>
<path d="M0,0 L1,2 L3,2 L3,5 L0,5 L-1,1 Z " fill="#BAB2BD" transform="translate(135,43)"/>
<path d="M0,0 L3,0 L2,5 L0,5 Z " fill="#676677" transform="translate(81,42)"/>
<path d="M0,0 L2,0 L4,5 L0,4 Z " fill="#1D1C27" transform="translate(40,41)"/>
<path d="M0,0 L6,0 L8,2 L4,3 L4,1 Z " fill="#585362" transform="translate(82,41)"/>
<path d="M0,0 L4,0 L4,2 L2,2 L2,4 L0,4 Z " fill="#10101C" transform="translate(38,37)"/>
<path d="M0,0 L5,0 L5,2 L1,3 Z " fill="#A4A8B9" transform="translate(120,37)"/>
<path d="M0,0 L3,1 L3,3 L1,3 L2,6 L0,6 Z " fill="#2D3846" transform="translate(0,32)"/>
<path d="M0,0 L2,0 L3,5 L0,5 Z " fill="#68686E" transform="translate(122,30)"/>
<path d="M0,0 L2,0 L4,5 L0,5 Z " fill="#312F3F" transform="translate(110,31)"/>
<path d="M0,0 L5,0 L5,3 L0,2 Z " fill="#7B7A8B" transform="translate(62,30)"/>
<path d="M0,0 L5,0 L2,3 L-2,1 Z " fill="#2A2C38" transform="translate(56,29)"/>
<path d="M0,0 L6,1 L3,2 L3,4 L1,4 Z " fill="#79747C" transform="translate(144,26)"/>
<path d="M0,0 L3,1 L2,5 L0,4 Z " fill="#06090E" transform="translate(125,19)"/>
<path d="M0,0 L3,1 L2,4 L0,6 Z " fill="#0A0A19" transform="translate(6,10)"/>
<path d="M0,0 L6,1 L2,3 L0,2 Z " fill="#2F2C3C" transform="translate(90,7)"/>
<path d="M0,0 L4,1 L4,4 L0,2 Z " fill="#0B0A15" transform="translate(103,3)"/>
<path d="M0,0 L3,4 L-3,4 L-3,2 L0,2 Z " fill="#4C4B68" transform="translate(71,67)"/>
<path d="M0,0 L3,2 L2,6 L-1,2 Z " fill="#262431" transform="translate(54,59)"/>
<path d="M0,0 L1,0 L1,6 L-3,3 Z " fill="#504861" transform="translate(58,53)"/>
<path d="M0,0 L2,0 L2,2 L4,2 L4,4 L0,3 Z " fill="#313645" transform="translate(85,53)"/>
<path d="M0,0 L2,0 L2,4 L-1,4 Z " fill="#3B424E" transform="translate(81,51)"/>
<path d="M0,0 L3,1 L4,6 L0,2 Z " fill="#0E0E18" transform="translate(83,32)"/>
<path d="M0,0 L2,0 L0,6 L-2,2 Z " fill="#373544" transform="translate(88,32)"/>
<path d="M0,0 L3,1 L3,3 L1,3 L0,6 Z " fill="#413843" transform="translate(135,30)"/>
<path d="M0,0 L2,0 L1,4 L-2,3 L-2,1 Z " fill="#535259" transform="translate(88,26)"/>
<path d="M0,0 L4,1 L2,4 L0,4 Z " fill="#050814" transform="translate(61,22)"/>
<path d="M0,0 L2,1 L2,3 L-1,3 L-2,5 L-2,1 Z " fill="#333642" transform="translate(137,20)"/>
<path d="M0,0 L5,1 L5,3 L0,2 Z " fill="#5A556A" transform="translate(97,20)"/>
<path d="M0,0 L3,0 L2,4 L0,4 Z " fill="#CAC9BD" transform="translate(0,8)"/>
<path d="M0,0 L5,2 L5,4 L0,2 Z " fill="#95979E" transform="translate(109,2)"/>
<path d="M0,0 L3,1 L3,3 L5,4 L2,5 Z " fill="#071423" transform="translate(123,0)"/>
<path d="M0,0 L3,0 L2,4 L0,4 Z " fill="#0D1C20" transform="translate(29,0)"/>
<path d="M0,0 L1,4 L-2,5 L-1,1 Z " fill="#4A4580" transform="translate(149,75)"/>
<path d="M0,0 L4,1 L5,3 L0,2 Z " fill="#0E1F32" transform="translate(67,76)"/>
<path d="M0,0 L6,1 L3,3 L1,3 Z " fill="#131629" transform="translate(32,75)"/>
<path d="M0,0 L5,0 L4,3 L0,1 Z " fill="#211A26" transform="translate(7,71)"/>
<path d="M0,0 L3,1 L1,3 L-3,2 Z " fill="#5D4E65" transform="translate(111,70)"/>
<path d="M0,0 L4,1 L2,3 L-1,2 Z " fill="#352F45" transform="translate(113,61)"/>
<path d="M0,0 L5,0 L5,3 L0,1 Z " fill="#636172" transform="translate(43,56)"/>
<path d="M0,0 L4,2 L3,4 L0,3 Z " fill="#3B363C" transform="translate(139,45)"/>
<path d="M0,0 L1,3 L-3,4 L-2,1 Z " fill="#37313E" transform="translate(90,42)"/>
<path d="M0,0 L1,4 L-2,4 Z " fill="#0B0816" transform="translate(82,37)"/>
<path d="M0,0 L6,2 L6,3 L1,3 Z " fill="#0E0814" transform="translate(3,31)"/>
<path d="M0,0 L3,0 L3,3 L0,4 Z " fill="#62616A" transform="translate(10,31)"/>
<path d="M0,0 L3,0 L2,3 L-1,3 Z " fill="#414851" transform="translate(39,30)"/>
<path d="M0,0 L5,1 L5,3 L2,3 L2,1 Z " fill="#282C31" transform="translate(119,27)"/>
<path d="M0,0 L4,0 L3,3 L0,2 Z " fill="#504C56" transform="translate(117,28)"/>
<path d="M0,0 L1,2 L4,2 L4,4 L-1,3 Z " fill="#3C4559" transform="translate(59,18)"/>
<path d="M0,0 L4,1 L3,4 L0,2 Z " fill="#152329" transform="translate(140,4)"/>
<path d="M0,0 L4,2 L0,3 Z " fill="#BCC6A8" transform="translate(0,81)"/>
<path d="M0,0 L5,2 L1,3 Z " fill="#000006" transform="translate(124,73)"/>
<path d="M0,0 L2,1 L3,3 L-1,4 Z " fill="#2A1524" transform="translate(119,69)"/>
<path d="M0,0 L4,1 L4,3 L0,2 Z " fill="#0E0E10" transform="translate(36,65)"/>
<path d="M0,0 L2,0 L2,3 L-1,4 Z " fill="#11243C" transform="translate(145,62)"/>
<path d="M0,0 L1,3 L-2,4 L-2,1 Z " fill="#3D385C" transform="translate(105,62)"/>
<path d="M0,0 L3,0 L2,3 L-1,2 Z " fill="#0B0910" transform="translate(123,63)"/>
<path d="M0,0 L2,1 L1,4 L0,2 L-3,1 Z " fill="#45464E" transform="translate(41,62)"/>
<path d="M0,0 L1,3 L-2,5 L-1,1 Z " fill="#5A5D6C" transform="translate(79,52)"/>
<path d="M0,0 L4,1 L4,3 L0,2 Z " fill="#514F61" transform="translate(33,52)"/>
<path d="M0,0 L2,0 L1,3 L-2,3 L-2,1 Z " fill="#958E9B" transform="translate(140,48)"/>
<path d="M0,0 L3,0 L3,3 L-1,1 Z " fill="#161925" transform="translate(82,47)"/>
<path d="M0,0 L3,0 L2,4 Z " fill="#1C1C25" transform="translate(131,45)"/>
<path d="M0,0 L2,0 L2,3 L-2,2 Z " fill="#040405" transform="translate(94,44)"/>
<path d="M0,0 L3,0 L1,4 Z " fill="#28232C" transform="translate(8,43)"/>
<path d="M0,0 L2,0 L1,4 L-1,4 Z " fill="#A29CB2" transform="translate(49,37)"/>
<path d="M0,0 L5,1 L4,3 L2,3 L2,1 Z " fill="#393747" transform="translate(34,40)"/>
<path d="M0,0 L2,4 L0,5 L0,3 L-2,2 L0,2 Z " fill="#595865" transform="translate(90,35)"/>
<path d="M0,0 L3,1 L0,3 L-3,1 Z " fill="#242435" transform="translate(42,35)"/>
<path d="M0,0 L1,2 L3,3 L-1,3 Z " fill="#363243" transform="translate(102,30)"/>
<path d="M0,0 L3,1 L1,4 L-1,4 Z " fill="#4A4757" transform="translate(147,28)"/>
<path d="M0,0 L3,1 L3,3 L-1,2 Z " fill="#161E24" transform="translate(10,23)"/>
<path d="M0,0 L2,0 L2,4 L0,4 L-1,1 Z " fill="#A0A6A9" transform="translate(24,20)"/>
<path d="M0,0 L2,2 L1,5 L-2,2 L0,2 Z " fill="#272530" transform="translate(108,17)"/>
<path d="M0,0 L3,1 L2,3 L-2,1 Z " fill="#D3DEE9" transform="translate(119,10)"/>
<path d="M0,0 L4,0 L4,3 L0,1 Z " fill="#BFB8D5" transform="translate(146,0)"/>
<path d="M0,0 L3,1 L3,3 L0,3 Z " fill="#8DB1AE" transform="translate(6,79)"/>
<path d="M0,0 L3,1 L3,3 L0,3 Z " fill="#0B181D" transform="translate(0,62)"/>
<path d="M0,0 L1,3 L-2,4 Z " fill="#281726" transform="translate(128,57)"/>
<path d="M0,0 L1,3 L-2,4 Z " fill="#3F4556" transform="translate(105,53)"/>
<path d="M0,0 L3,1 L-1,3 Z " fill="#5E616C" transform="translate(110,53)"/>
<path d="M0,0 L2,0 L2,3 L-1,3 Z " fill="#080C1C" transform="translate(67,35)"/>
<path d="M0,0 L4,2 L0,3 Z " fill="#191C1E" transform="translate(13,36)"/>
<path d="M0,0 L4,0 L4,2 L1,3 Z " fill="#202331" transform="translate(42,31)"/>
<path d="M0,0 L2,0 L2,3 L-1,3 Z " fill="#0C1013" transform="translate(50,27)"/>
<path d="M0,0 L3,1 L2,3 L-1,2 Z " fill="#0A1719" transform="translate(39,18)"/>
<path d="M0,0 L3,0 L3,3 L0,2 Z " fill="#3C384B" transform="translate(87,10)"/>
<path d="M0,0 L3,1 L3,3 L0,2 Z " fill="#8799CA" transform="translate(141,79)"/>
<path d="M0,0 L2,1 L2,3 L-1,3 Z " fill="#464F5D" transform="translate(96,71)"/>
<path d="M0,0 L4,2 L1,3 Z " fill="#1E1723" transform="translate(8,67)"/>
<path d="M0,0 L2,1 L2,3 L-1,3 Z " fill="#42384C" transform="translate(127,62)"/>
<path d="M0,0 L2,0 L1,3 L-1,3 Z " fill="#AFABB3" transform="translate(130,52)"/>
<path d="M0,0 L3,0 L2,3 L0,2 Z " fill="#6E6A7F" transform="translate(51,50)"/>
<path d="M0,0 L4,2 L1,3 Z " fill="#B5B1B3" transform="translate(3,45)"/>
<path d="M0,0 L3,0 L2,3 L0,2 Z " fill="#57565B" transform="translate(84,24)"/>
<path d="M0,0 L2,3 L0,4 L-2,2 L0,2 Z " fill="#141E24" transform="translate(43,21)"/>
<path d="M0,0 L3,1 L3,3 L0,2 Z " fill="#8691A2" transform="translate(115,17)"/>
<path d="M0,0 L3,2 L0,3 Z " fill="#313447" transform="translate(78,81)"/>
<path d="M0,0 L3,1 L1,3 Z " fill="#232737" transform="translate(55,78)"/>
<path d="M0,0 L3,1 L1,3 Z " fill="#83828C" transform="translate(20,64)"/>
<path d="M0,0 L2,0 L1,3 L-1,1 Z " fill="#BCBCD5" transform="translate(138,57)"/>
<path d="M0,0 L3,1 L1,3 Z " fill="#090C17" transform="translate(129,48)"/>
<path d="M0,0 L2,3 L-1,3 Z " fill="#8A7F8B" transform="translate(132,38)"/>
<path d="M0,0 L2,0 L1,3 L-1,1 Z " fill="#313849" transform="translate(8,18)"/>
<path d="M0,0 L3,1 L1,3 Z " fill="#2D3540" transform="translate(127,15)"/>
<path d="M0,0 L2,2 L-1,2 Z " fill="#6A6174" transform="translate(134,54)"/>
<path d="M0,0 L2,2 L-1,2 Z " fill="#2D2531" transform="translate(146,50)"/>
<path d="M0,0 L2,2 L-1,2 Z " fill="#315454" transform="translate(139,2)"/>
</svg>
