<?xml version="1.0" encoding="UTF-8"?>
<!-- Generator: visioncortex VTracer 0.6.5 -->
<svg version="1.1" xmlns="http://www.w3.org/2000/svg" width="97" height="100">
<path d="M0,0 L11,2 L59,14 L59,17 L43,50 L35,66 L24,64 L-17,55 L-23,54 L-22,48 L-11,24 Z " fill="#852FDE" transform="translate(29,15)"/>
<path d="M0,0 L1,2 L-11,27 L-20,46 L-24,47 L-63,38 L-63,37 L-49,38 L-28,42 L-26,37 L-14,21 L-6,9 Z " fill="#400B81" transform="translate(85,34)"/>
<path d="M0,0 L14,1 L36,5 L41,10 L22,6 L0,1 Z " fill="#180743" transform="translate(22,71)"/>
<path d="M0,0 L1,2 L-4,13 L-9,15 L-7,10 Z " fill="#4A118E" transform="translate(85,34)"/>
<path d="M0,0 L11,0 L19,1 L19,2 L9,3 L0,1 Z " fill="#15063F" transform="translate(35,74)"/>
<path d="M0,0 L8,1 L16,4 L14,6 L7,3 L0,1 Z " fill="#7730C6" transform="translate(73,26)"/>
<path d="M0,0 L11,2 L15,4 L10,4 L9,6 L5,4 L6,3 L0,1 Z " fill="#7E31CF" transform="translate(33,16)"/>
<path d="M0,0 L2,0 L1,3 L-1,1 Z " fill="#3B0F74" transform="translate(63,78)"/>
</svg>
