<?xml version="1.0" encoding="UTF-8"?>
<!-- Generator: visioncortex VTracer 0.6.5 -->
<svg version="1.1" xmlns="http://www.w3.org/2000/svg" width="150" height="150">
<path d="M0,0 L4,2 L4,5 L8,6 L8,3 L13,0 L16,1 L16,3 L13,3 L13,8 L20,11 L20,23 L17,23 L16,15 L11,15 L11,29 L8,31 L1,30 L-1,25 L-6,25 L-8,27 L-8,32 L-2,34 L-5,39 L1,40 L6,33 L9,32 L18,32 L21,33 L23,37 L24,44 L32,44 L37,42 L38,40 L32,39 L29,37 L29,33 L34,33 L35,34 L38,29 L42,29 L43,26 L46,24 L50,25 L50,30 L49,35 L44,36 L44,41 L41,42 L40,46 L37,49 L31,50 L13,50 L11,51 L11,55 L20,57 L23,62 L32,64 L34,68 L9,69 L1,69 L-5,68 L-3,64 L7,62 L2,56 L2,48 L5,45 L18,43 L18,38 L17,37 L8,37 L5,42 L-2,43 L-6,41 L-11,45 L-13,39 L-14,27 L-17,24 L-17,20 L-5,21 L1,24 L4,26 L7,26 L7,18 L9,9 L-7,10 L-6,7 L-1,5 Z " fill="#936541" transform="translate(60,50)"/>
<path d="M0,0 L4,2 L4,5 L8,6 L8,3 L13,0 L16,1 L16,3 L13,3 L13,8 L20,11 L20,23 L17,23 L16,15 L11,15 L11,29 L8,31 L1,30 L-1,25 L-5,24 L-4,22 L1,24 L4,26 L7,26 L7,18 L9,9 L-7,10 L-6,7 L-1,5 Z " fill="#61492B" transform="translate(60,50)"/>
<path d="M0,0 L12,1 L11,5 L9,7 L9,12 L15,14 L13,17 L9,17 L10,22 L6,25 L4,19 L3,7 L0,4 Z " fill="#627337" transform="translate(43,70)"/>
<path d="M0,0 L4,1 L4,6 L3,11 L2,12 L-3,12 L-4,15 L-4,11 L-6,11 L-7,15 L-14,15 L-17,13 L-17,9 L-12,9 L-11,10 L-8,5 L-4,5 L-3,2 Z " fill="#6D9541" transform="translate(106,74)"/>
<path d="M0,0 L9,0 L12,1 L14,5 L15,12 L23,13 L23,14 L12,14 L10,11 L8,5 L-1,5 L-4,10 L-11,11 L-15,9 L-17,5 L-14,5 L-14,7 L-8,8 L-3,1 Z " fill="#744D32" transform="translate(69,82)"/>
<path d="M0,0 L2,0 L2,8 L6,6 L7,4 L13,6 L13,4 L10,4 L11,1 L14,3 L21,4 L23,8 L-2,9 L-10,9 L-16,8 L-14,4 L-12,3 L-4,3 L-7,7 L0,6 Z " fill="#5E3E29" transform="translate(71,110)"/>
<path d="M0,0 L4,2 L4,5 L8,6 L8,3 L13,0 L16,1 L16,3 L13,3 L13,8 L10,15 L9,15 L9,9 L-7,10 L-6,7 L-1,5 Z " fill="#5B4828" transform="translate(60,50)"/>
<path d="M0,0 L13,1 L13,7 L16,7 L16,9 L12,8 L10,7 L8,11 L5,11 L5,3 L3,3 L3,9 L-1,11 L-6,11 L-1,5 L1,5 Z " fill="#AD7A51" transform="translate(68,107)"/>
<path d="M0,0 L7,0 L7,6 L2,7 L4,15 L2,16 L-5,10 L-7,8 L-2,9 L-2,2 Z " fill="#7BA346" transform="translate(87,65)"/>
<path d="M0,0 L4,1 L4,6 L1,7 L0,11 L-3,14 L-9,15 L-27,14 L-27,13 L-8,12 L-3,11 L-2,5 L-6,4 L-1,3 Z " fill="#6B4A2F" transform="translate(100,85)"/>
<path d="M0,0 L12,1 L11,5 L9,7 L2,6 L0,4 Z " fill="#67963E" transform="translate(43,70)"/>
<path d="M0,0 L4,2 L4,5 L6,5 L6,8 L3,8 L1,6 L-2,10 L-7,10 L-6,7 L-1,5 Z " fill="#598439" transform="translate(60,50)"/>
<path d="M0,0 L3,0 L5,4 L6,11 L14,12 L14,13 L3,13 L1,10 L0,4 L2,4 L2,1 Z " fill="#745736" transform="translate(78,83)"/>
<path d="M0,0 L1,0 L1,8 L-2,10 L-9,9 L-11,4 L-15,3 L-14,1 L-9,3 L-3,7 L0,7 Z " fill="#744F33" transform="translate(70,71)"/>
<path d="M0,0 L7,1 L7,4 L2,5 L3,10 L0,11 L1,5 L-1,5 Z " fill="#BABF65" transform="translate(50,82)"/>
<path d="M0,0 L5,0 L10,4 L11,2 L10,6 L3,6 L0,4 Z " fill="#99B65D" transform="translate(89,83)"/>
<path d="M0,0 L2,0 L1,4 L-4,5 L-14,5 L-15,3 L-4,3 L-4,1 Z " fill="#CA9B6A" transform="translate(96,93)"/>
<path d="M0,0 L3,0 L3,2 L9,3 L11,1 L15,0 L14,4 L11,6 L6,6 L2,4 Z " fill="#65452D" transform="translate(52,87)"/>
<path d="M0,0 L8,0 L5,4 L-4,4 Z " fill="#896241" transform="translate(59,113)"/>
<path d="M0,0 L4,2 L11,3 L11,6 L0,6 L3,5 L3,3 L0,3 Z " fill="#7B5235" transform="translate(81,111)"/>
<path d="M0,0 L1,0 L1,13 L-3,14 L-2,7 L-1,1 Z " fill="#9D744C" transform="translate(69,65)"/>
<path d="M0,0 L1,0 L3,8 L1,9 L-6,3 L-8,1 L-2,1 L-2,4 L0,4 Z " fill="#503521" transform="translate(88,72)"/>
<path d="M0,0 L5,0 L5,6 L0,6 Z " fill="#9AC25A" transform="translate(89,65)"/>
<path d="M0,0 L3,1 L3,3 L0,3 L0,8 L-4,7 L-3,2 Z " fill="#7EA34D" transform="translate(73,50)"/>
<path d="M0,0 L4,1 L4,6 L-1,8 Z " fill="#7D5E3A" transform="translate(100,85)"/>
<path d="M0,0 L6,0 L6,4 L1,5 Z " fill="#A4C45D" transform="translate(43,70)"/>
<path d="M0,0 L2,0 L4,5 L-5,5 L-2,4 L-3,1 Z " fill="#835A3A" transform="translate(78,93)"/>
<path d="M0,0 L9,0 L9,2 L11,2 L11,5 L9,5 L9,3 L0,2 Z " fill="#916744" transform="translate(69,82)"/>
<path d="M0,0 L2,0 L3,4 L12,6 L12,7 L3,6 L0,5 Z " fill="#6C482F" transform="translate(68,101)"/>
<path d="M0,0 L1,0 L2,7 L4,8 L4,10 L7,11 L6,14 L0,8 Z " fill="#5C3C27" transform="translate(62,98)"/>
<path d="M0,0 L4,0 L4,9 L2,9 L2,2 L0,2 Z " fill="#C4B970" transform="translate(75,62)"/>
<path d="M0,0 L2,1 L1,8 L-2,7 L-1,2 Z " fill="#608E3D" transform="translate(98,79)"/>
<path d="M0,0 L4,1 L4,6 L2,6 L0,3 L-3,4 L-3,2 Z " fill="#47782E" transform="translate(106,74)"/>
<path d="M0,0 L5,3 L6,6 L4,6 L3,9 L3,5 L1,5 Z " fill="#B2B366" transform="translate(99,80)"/>
<path d="M0,0 L6,2 L9,5 L7,5 L7,7 L9,8 L6,8 L4,3 L0,2 Z " fill="#513421" transform="translate(55,72)"/>
<path d="M0,0 L1,3 L3,3 L3,9 L1,9 Z " fill="#74643C" transform="translate(85,67)"/>
<path d="M0,0 L3,0 L2,4 L-3,4 L-2,1 Z " fill="#8FAD52" transform="translate(56,56)"/>
<path d="M0,0 L3,0 L3,3 L5,3 L5,6 L2,6 Z " fill="#B2C464" transform="translate(61,52)"/>
<path d="M0,0 L7,2 L5,4 L0,4 Z " fill="#67893C" transform="translate(51,82)"/>
<path d="M0,0 L1,2 L-1,5 L-6,5 L-2,1 Z " fill="#CD9E6E" transform="translate(68,113)"/>
<path d="M0,0 L7,0 L7,2 L1,3 Z " fill="#CD9F6E" transform="translate(65,96)"/>
<path d="M0,0 L2,1 L2,4 L-3,5 L-2,1 Z " fill="#CDE575" transform="translate(106,76)"/>
<path d="M0,0 L2,1 L2,3 L5,4 L-3,4 Z " fill="#366A21" transform="translate(61,55)"/>
<path d="M0,0 L2,0 L3,4 L-1,5 Z " fill="#D8AB78" transform="translate(74,113)"/>
<path d="M0,0 L2,0 L1,4 L-1,4 L-1,2 L-4,1 Z " fill="#9F724C" transform="translate(96,93)"/>
<path d="M0,0 L3,4 L0,5 L-2,4 L-2,2 L0,2 Z " fill="#A8754C" transform="translate(79,93)"/>
<path d="M0,0 L2,2 L1,6 L-1,6 Z " fill="#BFDD6D" transform="translate(51,87)"/>
<path d="M0,0 L4,0 L5,3 L3,4 L0,2 Z " fill="#64422B" transform="translate(86,77)"/>
<path d="M0,0 L3,0 L3,2 L-2,4 Z " fill="#AD865D" transform="translate(65,85)"/>
<path d="M0,0 L2,1 L1,4 L-3,3 Z " fill="#BDD76A" transform="translate(51,73)"/>
<path d="M0,0 L2,0 L0,5 L-1,1 Z " fill="#BC9A70" transform="translate(72,59)"/>
<path d="M0,0 L4,2 L2,2 L1,4 Z " fill="#B17C50" transform="translate(64,98)"/>
<path d="M0,0 L3,0 L2,4 Z " fill="#817B43" transform="translate(52,87)"/>
<path d="M0,0 L2,0 L3,3 L1,5 Z " fill="#A08457" transform="translate(48,79)"/>
<path d="M0,0 L2,1 L2,3 L-1,2 Z " fill="#86954D" transform="translate(70,55)"/>
</svg>
