<?xml version="1.0" encoding="UTF-8"?>
<svg xmlns="http://www.w3.org/2000/svg" viewBox="0 0 320 300" width="30" height="30">
  <style>rect{shape-rendering:crispEdges}</style>
  <g fill="#730f12">
    <rect x="170" y="40" width="20" height="10"/>
    <rect x="210" y="40" width="10" height="10"/>
    <rect x="120" y="50" width="10" height="10"/>
    <rect x="100" y="60" width="10" height="10"/>
  </g>
  <g fill="#630201">
    <rect x="190" y="40" width="20" height="10"/>
    <rect x="130" y="50" width="80" height="10"/>
    <rect x="110" y="60" width="60" height="10"/>
  </g>
  <rect fill="#7d0308" x="210" y="50" width="10" height="10"/>
  <g fill="#d2282c">
    <rect x="220" y="50" width="10" height="10"/>
    <rect x="140" y="250" width="10" height="10"/>
  </g>
  <g fill="#d23438">
    <rect x="230" y="50" width="10" height="10"/>
    <rect x="90" y="70" width="10" height="10"/>
    <rect x="80" y="90" width="10" height="10"/>
    <rect x="260" y="90" width="10" height="10"/>
    <rect x="70" y="120" width="10" height="10"/>
    <rect x="60" y="140" width="10" height="10"/>
    <rect x="160" y="250" width="10" height="10"/>
  </g>
  <g fill="#b22325">
    <rect x="170" y="60" width="10" height="10"/>
    <rect x="280" y="160" width="10" height="10"/>
    <rect x="170" y="250" width="10" height="10"/>
  </g>
  <g fill="#d62e30">
    <rect x="180" y="60" width="10" height="10"/>
    <rect x="250" y="80" width="10" height="10"/>
    <rect x="70" y="150" width="10" height="10"/>
    <rect x="210" y="240" width="20" height="10"/>
    <rect x="150" y="250" width="10" height="10"/>
  </g>
  <g fill="#dd2b30">
    <rect x="190" y="60" width="10" height="10"/>
    <rect x="210" y="60" width="10" height="10"/>
    <rect x="220" y="70" width="10" height="10"/>
    <rect x="150" y="80" width="90" height="10"/>
    <rect x="150" y="90" width="100" height="10"/>
    <rect x="170" y="100" width="90" height="10"/>
    <rect x="170" y="110" width="90" height="10"/>
    <rect x="170" y="120" width="100" height="10"/>
    <rect x="170" y="130" width="100" height="10"/>
    <rect x="170" y="140" width="90" height="10"/>
    <rect x="200" y="150" width="50" height="10"/>
    <rect x="230" y="160" width="20" height="10"/>
  </g>
  <g fill="#df2a30">
    <rect x="200" y="60" width="10" height="10"/>
    <rect x="100" y="70" width="10" height="10"/>
    <rect x="210" y="70" width="10" height="10"/>
    <rect x="260" y="100" width="10" height="10"/>
    <rect x="190" y="150" width="10" height="10"/>
    <rect x="250" y="150" width="10" height="10"/>
    <rect x="220" y="160" width="10" height="10"/>
    <rect x="120" y="170" width="10" height="10"/>
    <rect x="110" y="180" width="10" height="10"/>
  </g>
  <g fill="#dc2a30">
    <rect x="220" y="60" width="20" height="10"/>
    <rect x="170" y="70" width="10" height="10"/>
    <rect x="230" y="70" width="10" height="10"/>
    <rect x="240" y="80" width="10" height="10"/>
    <rect x="260" y="110" width="10" height="10"/>
    <rect x="160" y="140" width="10" height="10"/>
    <rect x="100" y="180" width="10" height="10"/>
  </g>
  <g fill="#dd2b2e">
    <rect x="110" y="70" width="10" height="10"/>
    <rect x="140" y="70" width="20" height="10"/>
    <rect x="250" y="90" width="10" height="10"/>
  </g>
  <g fill="#dd2a31">
    <rect x="120" y="70" width="10" height="10"/>
    <rect x="180" y="70" width="10" height="10"/>
    <rect x="100" y="80" width="10" height="10"/>
    <rect x="270" y="120" width="10" height="10"/>
    <rect x="150" y="150" width="10" height="10"/>
  </g>
  <g fill="#df2b31">
    <rect x="130" y="70" width="10" height="10"/>
    <rect x="90" y="80" width="10" height="10"/>
    <rect x="100" y="90" width="10" height="10"/>
    <rect x="80" y="130" width="10" height="10"/>
    <rect x="80" y="140" width="10" height="10"/>
  </g>
  <g fill="#e12931">
    <rect x="160" y="70" width="10" height="10"/>
    <rect x="190" y="70" width="20" height="10"/>
    <rect x="80" y="100" width="10" height="10"/>
    <rect x="80" y="110" width="10" height="10"/>
    <rect x="70" y="130" width="10" height="10"/>
    <rect x="140" y="160" width="10" height="10"/>
    <rect x="210" y="160" width="10" height="10"/>
    <rect x="240" y="170" width="10" height="10"/>
  </g>
  <g fill="#de272f">
    <rect x="240" y="70" width="10" height="10"/>
    <rect x="270" y="110" width="10" height="10"/>
    <rect x="260" y="140" width="10" height="10"/>
    <rect x="180" y="150" width="10" height="10"/>
    <rect x="130" y="170" width="10" height="10"/>
    <rect x="230" y="170" width="10" height="10"/>
    <rect x="120" y="180" width="10" height="10"/>
    <rect x="200" y="240" width="10" height="10"/>
  </g>
  <g fill="#dd2a32">
    <rect x="110" y="80" width="40" height="10"/>
    <rect x="110" y="90" width="40" height="10"/>
    <rect x="90" y="100" width="80" height="10"/>
    <rect x="90" y="110" width="80" height="10"/>
    <rect x="90" y="120" width="80" height="10"/>
    <rect x="90" y="130" width="80" height="10"/>
    <rect x="90" y="140" width="70" height="10"/>
    <rect x="90" y="150" width="60" height="10"/>
    <rect x="80" y="160" width="60" height="10"/>
    <rect x="100" y="170" width="20" height="10"/>
  </g>
  <g fill="#dd2b34">
    <rect x="90" y="90" width="10" height="10"/>
    <rect x="80" y="120" width="10" height="10"/>
    <rect x="70" y="140" width="10" height="10"/>
    <rect x="80" y="150" width="10" height="10"/>
    <rect x="90" y="170" width="10" height="10"/>
  </g>
  <g fill="#d11f2a">
    <rect x="280" y="120" width="10" height="10"/>
    <rect x="270" y="180" width="10" height="10"/>
    <rect x="260" y="200" width="10" height="10"/>
    <rect x="120" y="220" width="10" height="10"/>
    <rect x="230" y="230" width="20" height="10"/>
  </g>
  <g fill="#de222b">
    <rect x="270" y="130" width="10" height="10"/>
    <rect x="200" y="160" width="10" height="10"/>
    <rect x="250" y="160" width="10" height="10"/>
    <rect x="220" y="230" width="10" height="10"/>
  </g>
  <g fill="#ca1219">
    <rect x="280" y="130" width="10" height="10"/>
    <rect x="280" y="140" width="10" height="10"/>
    <rect x="270" y="150" width="20" height="10"/>
    <rect x="260" y="160" width="20" height="10"/>
    <rect x="260" y="170" width="10" height="10"/>
    <rect x="260" y="180" width="10" height="10"/>
    <rect x="250" y="220" width="10" height="10"/>
  </g>
  <g fill="#cb0e18">
    <rect x="270" y="140" width="10" height="10"/>
    <rect x="260" y="150" width="10" height="10"/>
    <rect x="250" y="170" width="10" height="10"/>
    <rect x="270" y="170" width="10" height="10"/>
    <rect x="250" y="180" width="10" height="10"/>
    <rect x="240" y="190" width="30" height="10"/>
    <rect x="240" y="200" width="20" height="10"/>
    <rect x="240" y="210" width="20" height="10"/>
    <rect x="240" y="220" width="10" height="10"/>
  </g>
  <g fill="#a5040f">
    <rect x="60" y="150" width="10" height="10"/>
    <rect x="70" y="160" width="10" height="10"/>
    <rect x="70" y="170" width="20" height="10"/>
    <rect x="80" y="180" width="20" height="10"/>
    <rect x="90" y="190" width="20" height="10"/>
    <rect x="100" y="200" width="10" height="10"/>
    <rect x="100" y="210" width="20" height="10"/>
    <rect x="110" y="220" width="10" height="10"/>
    <rect x="120" y="230" width="10" height="10"/>
    <rect x="130" y="240" width="10" height="10"/>
  </g>
  <g fill="#e1222d">
    <rect x="160" y="150" width="20" height="10"/>
    <rect x="110" y="190" width="10" height="10"/>
    <rect x="110" y="200" width="10" height="10"/>
    <rect x="130" y="230" width="10" height="10"/>
    <rect x="140" y="240" width="10" height="10"/>
  </g>
  <g fill="#df212a">
    <rect x="150" y="160" width="10" height="10"/>
    <rect x="190" y="160" width="10" height="10"/>
    <rect x="140" y="170" width="20" height="10"/>
    <rect x="200" y="170" width="10" height="10"/>
    <rect x="220" y="170" width="10" height="10"/>
    <rect x="230" y="190" width="10" height="10"/>
  </g>
  <g fill="#df2029">
    <rect x="160" y="160" width="10" height="10"/>
    <rect x="190" y="170" width="10" height="10"/>
    <rect x="140" y="180" width="10" height="10"/>
    <rect x="240" y="180" width="10" height="10"/>
    <rect x="120" y="190" width="10" height="10"/>
    <rect x="120" y="200" width="10" height="10"/>
  </g>
  <g fill="#e1202a">
    <rect x="170" y="160" width="20" height="10"/>
    <rect x="170" y="170" width="20" height="10"/>
    <rect x="210" y="170" width="10" height="10"/>
    <rect x="150" y="180" width="10" height="10"/>
    <rect x="170" y="180" width="70" height="10"/>
    <rect x="130" y="190" width="100" height="10"/>
    <rect x="150" y="200" width="90" height="10"/>
    <rect x="130" y="210" width="110" height="10"/>
    <rect x="130" y="220" width="100" height="10"/>
    <rect x="150" y="230" width="70" height="10"/>
    <rect x="150" y="240" width="10" height="10"/>
  </g>
  <g fill="#e31e2a">
    <rect x="160" y="170" width="10" height="10"/>
    <rect x="160" y="180" width="10" height="10"/>
    <rect x="120" y="210" width="10" height="10"/>
    <rect x="190" y="240" width="10" height="10"/>
  </g>
  <g fill="#e12028">
    <rect x="130" y="180" width="10" height="10"/>
    <rect x="140" y="200" width="10" height="10"/>
    <rect x="170" y="240" width="10" height="10"/>
  </g>
  <g fill="#e1202c">
    <rect x="130" y="200" width="10" height="10"/>
    <rect x="230" y="220" width="10" height="10"/>
    <rect x="140" y="230" width="10" height="10"/>
    <rect x="160" y="240" width="10" height="10"/>
    <rect x="180" y="240" width="10" height="10"/>
  </g>
</svg>
