<svg width="160" height="161" viewBox="0 0 160 161" fill="none" xmlns="http://www.w3.org/2000/svg">
<path d="M133.5 20.0894C135.65 20.0894 137.85 20.0894 140 20.0894C140 22.2394 140 24.4394 140 26.5894C142.15 26.5894 144.35 26.5894 146.5 26.5894C146.5 28.9394 146.5 31.2894 146.5 33.5894C148.85 33.5894 151.2 33.5894 153.5 33.5894C153.5 37.9394 153.5 42.2894 153.5 46.5894H146.5C146.5 44.4394 146.5 42.2394 146.5 40.0894C146.5 37.9394 146.5 35.7394 146.5 33.5894C144.35 33.5894 142.15 33.5894 140 33.5894C140 31.2394 140 28.9394 140 26.5894C137.85 26.5894 135.65 26.5894 133.5 26.5894H120V33.5894C108.85 33.5894 97.65 33.5894 86.5 33.5894C86.5 31.2394 86.5 28.8894 86.5 26.5894C82.15 26.5894 77.8 26.5894 73.5 26.5894C73.5 24.4394 73.5 22.2394 73.5 20.0894C93.5 20.2394 113.5 19.8894 133.5 20.0894Z" fill="#AC6C3A"/>
<path d="M60 13.5894C84.5 13.5894 109 13.5894 133.5 13.5894V20.0894C113.5 19.8894 93.5 20.2394 73.5 20.0894C73.5 22.2394 73.5 24.4394 73.5 26.5894C71.15 26.5894 68.85 26.5894 66.5 26.5894C64.35 26.5894 62.15 26.5894 60 26.5894C60 24.4394 60 22.2394 60 20.0894C60 17.9394 60 15.7394 60 13.5894Z" fill="#924622"/>
<path d="M13.5 46.5894C13.5 57.7395 13.4 68.9395 13.5 80.0895C11.15 80.0895 8.8 80.0895 6.5 80.0895C6.5 68.9395 6.5 57.7395 6.5 46.5894H13.5Z" fill="#6A2B0E"/>
<path d="M60 13.5894C60 15.7394 60 17.9394 60 20.0894H53.5C49 20.0894 44.5 20.0894 40 20.0894C35.5 20.0894 31 20.0894 26.5 20.0894C26.5 22.2394 26.5 24.4394 26.5 26.5894C24.35 26.5894 22.15 26.5894 20 26.5894C20 28.9394 20 31.2894 20 33.5894C17.85 33.5894 15.65 33.5894 13.5 33.5894C13.5 31.2394 13.5 28.8894 13.5 26.5894C15.65 26.5894 17.85 26.5894 20 26.5894C20 24.4394 20 22.2394 20 20.0894C22.15 20.0894 24.35 20.0894 26.5 20.0894C26.5 17.9394 26.5 15.7394 26.5 13.5894C37.65 13.5894 48.85 13.5894 60 13.5894Z" fill="#62260A"/>
<path d="M140 60.0895H153.5C153.5 62.2395 153.5 64.4395 153.5 66.5895C149 66.5895 144.5 66.5895 140 66.5895C135.5 66.5895 135.65 66.5895 133.5 66.5895C129 66.5895 124.5 66.5895 120 66.5895V60.0895H140Z" fill="#3E2113"/>
<path d="M153.5 46.5894C153.5 51.0896 153.5 55.5895 153.5 60.0895H146.5V46.5894H153.5Z" fill="#924622"/>
<path d="M13.5 33.5894C13.5 37.8894 13.5 42.2394 13.5 46.5894H6.5C6.5 42.2394 6.5 37.8894 6.5 33.5894C8.85 33.5894 11.2 33.5894 13.5 33.5894Z" fill="#62260A"/>
<path d="M73.5 26.5894C77.85 26.5894 82.2 26.5894 86.5 26.5894C86.5 28.9394 86.5 31.2894 86.5 33.5894C97.65 33.5894 108.85 33.5894 120 33.5894V26.5894H133.5V33.5894C135.65 33.5894 137.85 33.5894 140 33.5894C140 35.7394 140 37.9394 140 40.0894C140 44.5894 140 49.0894 140 53.5895H73.5C73.5 51.2895 73.5 48.9394 73.5 46.5894H86.5C86.5 42.2894 86.5 37.9394 86.5 33.5894C82.15 33.5894 77.8 33.5894 73.5 33.5894C73.5 31.2394 73.5 28.9394 73.5 26.5894Z" fill="#CB9A57"/>
<path d="M140 26.5894C140 28.9394 140 31.2394 140 33.5894C142.15 33.5894 144.35 33.5894 146.5 33.5894C146.5 35.7394 146.5 37.9394 146.5 40.0894L140 40.0894C140 37.9394 140 35.7394 140 33.5894C137.85 33.5894 135.65 33.5894 133.5 33.5894V26.5894C135.65 26.5894 137.85 26.5894 140 26.5894Z" fill="#924622"/>
<path d="M60 20.0894C60 22.2394 60 24.4394 60 26.5894C62.15 26.5894 64.35 26.5894 66.5 26.5894V33.5894C68.8 33.5894 71.15 33.5894 73.5 33.5894C73.5 37.8894 73.5 42.2894 73.5 46.5894C73.5 50.8895 73.5 51.2895 73.5 53.5895H140V60.0895H60C60 51.2395 60 42.3894 60 33.5894H53.5V20.0894H60Z" fill="#B16428"/>
<path d="M73.5 26.5894C73.5 28.9394 73.5 31.2394 73.5 33.5894C77.8 33.5894 82.15 33.5894 86.5 33.5894C86.5 37.9394 86.5 42.2894 86.5 46.5894H73.5C73.5 42.2394 73.5 37.8894 73.5 33.5894C71.15 33.5894 68.8 33.5894 66.5 33.5894V26.5894C68.85 26.5894 71.2 26.5894 73.5 26.5894Z" fill="#DEBC67"/>
<path d="M26.4995 46.5894C26.3995 55.5895 26.5495 64.5895 26.4995 73.5895C28.8495 73.5895 31.1995 73.5895 33.4995 73.5895V80.0895C28.9995 80.0895 24.4995 80.0895 19.9995 80.0895C17.8495 80.0895 15.65 80.0895 13.5 80.0895C13.4 68.9395 13.5 57.7395 13.5 46.5894H26.4995Z" fill="#904A23"/>
<path d="M53.5 20.0894V33.5894H60C60 42.4394 60 51.2895 60 60.0895H93.5V66.5895H60C60 64.4395 60 62.2395 60 60.0895H53.5C53.5 53.4395 53.5 46.7394 53.5 40.0894C46.85 40.1394 40.15 40.0394 33.5 40.0894C33.5 42.2394 33.5 44.4394 33.5 46.5894H26.4995C26.4995 44.4394 26.5 42.2394 26.5 40.0894C28.85 40.0894 31.2 40.0894 33.5 40.0894C33.5 37.9394 33.5 35.7394 33.5 33.5894H40V20.0894C44.5 20.0894 49 20.0894 53.5 20.0894Z" fill="#3E2113"/>
<path d="M40 20.0894V33.5894H33.5C33.5 35.7394 33.5 37.9394 33.5 40.0894C31.15 40.0894 28.8 40.0894 26.5 40.0894C26.5 42.2394 26.4995 44.4394 26.4995 46.5894H13.5C13.5 42.2394 13.5 37.8894 13.5 33.5894C15.65 33.5894 17.85 33.5894 20 33.5894C20 31.2394 20 28.8894 20 26.5894C22.15 26.5894 24.35 26.5894 26.5 26.5894C26.5 24.4394 26.5 22.2394 26.5 20.0894C31 20.0894 35.5 20.0894 40 20.0894Z" fill="#803816"/>
<path d="M146.5 40.0894C146.5 42.2394 146.5 44.4394 146.5 46.5894V60.0895H140V53.5895C140 49.0894 140 44.5894 140 40.0894L146.5 40.0894Z" fill="#803816"/>
<path d="M100 60.0895V66.5895C104.5 66.5895 109 66.5895 113.5 66.5895V60.0895H120V66.5895C117.85 66.5895 115.65 66.5895 113.5 66.5895C113.5 67.3395 113.85 73.5895 113.5 73.5895H100C99.65 73.5895 100 67.3395 100 66.5895C97.85 66.5895 95.65 66.5895 93.5 66.5895V60.0895H100Z" fill="#AC6C3A"/>
<path d="M113.5 60.0895V66.5895C109 66.5895 104.5 66.5895 100 66.5895V60.0895H113.5Z" fill="#3E2113"/>
<path d="M86.5 93.5895C86.5 95.7395 86.5 97.9395 86.5 100.09C86.5 106.74 86.45 113.44 86.5 120.09C86.55 126.74 86.5 124.44 86.5 126.59C104.35 126.59 122.2 126.59 140 126.59C140 128.94 140 131.24 140 133.59H120V140.09H93.5V146.589C82.35 146.589 71.15 146.589 60 146.589C60 144.439 60 142.24 60 140.09C57.85 140.09 55.65 140.09 53.5 140.09C53.5 135.59 53.5 131.09 53.5 126.59H60C60 131.09 60 135.59 60 140.09C64.5 140.09 69 140.09 73.5 140.09C73.5 131.24 73.5 122.39 73.5 113.59C73.5 104.79 73.5 100.24 73.5 93.5895H86.5Z" fill="#3E2113"/>
<path d="M146.5 80.0895C146.5 84.5895 146.5 89.0895 146.5 93.5895H153.5C153.5 100.24 153.5 106.94 153.5 113.59H146.5V100.09C144.35 100.09 142.15 100.09 140 100.09C128.85 99.9895 117.65 100.09 106.5 100.09H86.5C86.5 97.9395 86.5 95.7395 86.5 93.5895C104.35 93.5895 122.2 93.5895 140 93.5895C140 89.0895 140 84.5895 140 80.0895C142.15 80.0895 144.35 80.0895 146.5 80.0895Z" fill="#924622"/>
<path d="M153.5 126.59C153.5 131.09 153.5 135.59 153.5 140.09H140V146.589C124.5 146.589 109 146.589 93.5 146.589V140.09H120V133.59H140C140 131.24 140 128.94 140 126.59H153.5Z" fill="#1C0F09"/>
<path d="M46.5 106.59C48.85 106.59 51.15 106.59 53.5 106.59C53.5 113.24 53.5 119.94 53.5 126.59C51.15 126.59 48.85 126.59 46.5 126.59V120.09H40V113.59H33.5C33.5 111.24 33.5 108.89 33.5 106.59C37.8 106.59 42.2 106.59 46.5 106.59Z" fill="#4F2713"/>
<path d="M140 100.09C142.15 100.09 144.35 100.09 146.5 100.09V113.59H153.5C153.5 117.94 153.5 122.24 153.5 126.59H140C140 124.44 140 122.24 140 120.09C140 117.94 140 115.74 140 113.59V100.09Z" fill="#803816"/>
<path d="M140 73.5895H146.5C146.5 75.7395 146.5 77.9395 146.5 80.0895C148.85 80.0895 151.2 80.0895 153.5 80.0895C153.5 84.5895 153.5 89.0895 153.5 93.5895H146.5C146.5 89.0895 146.55 84.5895 146.5 80.0895C144.35 80.0895 142.15 80.0895 140 80.0895C140 77.9395 140 75.7395 140 73.5895Z" fill="#AC6C3A"/>
<path d="M140 66.5895V73.5895C140 75.7395 140 77.9395 140 80.0895C137.85 80.0895 135.65 80.0895 133.5 80.0895V66.5895C135.65 66.5895 137.85 66.5895 140 66.5895Z" fill="#803816"/>
<path d="M19.9995 80.0895L20 86.5895C22.15 86.5895 24.35 86.5895 26.5 86.5895C26.5 91.0895 26.45 95.5895 26.5 100.09C24.35 100.09 22.15 100.09 20 100.09C20 95.5895 20 91.0895 20 86.5895C17.85 86.5895 15.65 86.5895 13.5 86.5895C13.5 84.4395 13.5 82.2395 13.5 80.0895C15.65 80.0895 17.8495 80.0895 19.9995 80.0895Z" fill="#6A2B0E"/>
<path d="M26.5 100.09C28.85 100.09 31.2 100.09 33.5 100.09C33.5 102.24 33.5 104.44 33.5 106.59C31.15 106.59 28.8 106.59 26.5 106.59C26.5 104.44 26.5 102.24 26.5 100.09Z" fill="#3E2113"/>
<path d="M60 60.0895C60 62.2395 60 64.4395 60 66.5895H73.5V93.5895C73.5 100.24 73.5 106.94 73.5 113.59H60C60 117.89 60 122.24 60 126.59H53.5C53.5 119.94 53.5 113.24 53.5 106.59C55.65 106.59 57.85 106.59 60 106.59C60 93.2395 60 79.8895 60 66.5895H53.5C53.5 64.4395 53.5 62.2395 53.5 60.0895H60Z" fill="#924622"/>
<path d="M73.5 113.59C73.5 122.44 73.5 131.29 73.5 140.09C69 140.09 64.5 140.09 60 140.09C60 135.59 60 131.09 60 126.59C60 122.09 60 117.89 60 113.59H73.5Z" fill="#803816"/>
<path d="M86.5 66.5895H73.5V93.5895H86.5V66.5895Z" fill="#DEBC67"/>
<path d="M93.5 120.09H140C140 122.24 140 124.44 140 126.59C122.15 126.59 104.3 126.59 86.5 126.59C86.5 124.44 86.5 122.24 86.5 120.09H93.5Z" fill="#924622"/>
<path d="M93.5005 100.09L93.5 120.09H86.5C86.45 113.44 86.5 106.74 86.5 100.09H93.5005Z" fill="#B16428"/>
<path d="M93.5 66.5895C93.5 67.7895 92.8 80.0895 93.5 80.0895H120C120.7 80.0895 120 67.7895 120 66.5895C124.5 66.5895 129 66.5895 133.5 66.5895V80.0895C135.65 80.0895 137.85 80.0895 140 80.0895C140 84.5895 140 89.0895 140 93.5895C122.15 93.5895 104.3 93.5895 86.5 93.5895V66.5895H93.5Z" fill="#CB9A57"/>
<path d="M140 100.09V113.59H106.5V100.09C117.65 100.09 128.85 99.9895 140 100.09Z" fill="#CB9A57"/>
<path d="M106.5 100.09H93.5005L93.5 113.59H106.5V100.09Z" fill="#DEBC67"/>
<path d="M33.4995 80.0895C35.6495 80.0895 37.85 80.0895 40 80.0895C40 84.5895 40 89.0895 40 93.5895C42.15 93.5895 44.35 93.5895 46.5 93.5895V106.59C42.2 106.59 37.8 106.59 33.5 106.59C33.5 104.44 33.5 102.24 33.5 100.09C31.15 100.09 28.8 100.09 26.5 100.09C26.5 95.5895 26.5 91.0895 26.5 86.5895C24.35 86.5895 22.15 86.5895 20 86.5895L19.9995 80.0895C24.4995 80.0895 28.9995 80.0895 33.4995 80.0895Z" fill="#AC6C3A"/>
<path d="M33.5 46.5894C33.5 55.5895 33.4995 64.5895 33.4995 73.5895C35.6495 73.5895 37.8496 73.5895 39.9995 73.5895C39.9995 75.7395 40 77.9395 40 80.0895C42.15 80.0895 44.3496 80.0895 46.4995 80.0895C46.4995 84.5895 46.5 89.0895 46.5 93.5895C48.85 93.5895 51.1495 93.5895 53.4995 93.5895C53.4995 97.9395 53.5 102.24 53.5 106.59C51.15 106.59 48.85 106.59 46.5 106.59V93.5895C44.35 93.5895 42.15 93.5895 40 93.5895C40 89.0895 40.05 84.5895 40 80.0895C37.85 80.0895 35.6495 80.0895 33.4995 80.0895V73.5895C31.1495 73.5895 28.7995 73.5895 26.4995 73.5895C26.5995 64.5895 26.3995 55.5895 26.4995 46.5894H33.5Z" fill="#6A2B0E"/>
<path d="M106.5 113.59H140C140 115.74 140 117.94 140 120.09H93.5V113.59H106.5Z" fill="#AC6C3A"/>
<path d="M60 66.5895C60 79.9395 60 93.2895 60 106.59C57.85 106.59 55.65 106.59 53.5 106.59C53.5 102.24 53.4995 97.9395 53.4995 93.5895C53.4995 84.5895 53.5 75.5895 53.5 66.5895H60Z" fill="#B16428"/>
<path d="M100 66.5895C100 67.3395 99.65 73.5895 100 73.5895H113.5C113.85 73.5895 113.5 67.3395 113.5 66.5895C115.65 66.5895 117.85 66.5895 120 66.5895C120 67.7895 120.7 80.0895 120 80.0895H93.5C92.8 80.0895 93.5 67.7895 93.5 66.5895C95.65 66.5895 97.85 66.5895 100 66.5895Z" fill="#E7C97F"/>
</svg>
