<svg width="160" height="165" viewBox="0 0 160 165" fill="none" xmlns="http://www.w3.org/2000/svg">
<path d="M113.5 123.7V137.6H106.5V123.7H113.5Z" fill="#320017"/>
<path d="M140 6.8003V20.7003H93.5V27.4003H73.5V34.6003H53.5V27.4003H40V20.7003H53.5V27.4003H73.5V20.7003H93.5V14.0003H113.5V6.8003C122.3 6.8003 131.2 6.7003 140 6.8003Z" fill="#F40F63"/>
<path d="M93.5 6.8003V14.0003H86.5V20.7003H73.5V14.0003H86.5V6.8003H93.5Z" fill="#F3ABCB"/>
<path d="M113.5 6.8003V14.0003H106.5V6.8003H113.5Z" fill="#E483AF"/>
<path d="M106.5 6.8003V14.0003H100V6.8003H106.5Z" fill="#F3ABCB"/>
<path d="M100 6.8003V14.0003H93.5V20.7003H86.5V14.0003H93.5V6.8003H100Z" fill="#E483AF"/>
<path d="M146.5 20.7003V27.4003H153.5V34.6003H146.5V41.0003L153.5 41.3003V48.0003H146.5V55.2003H140V61.9003H133.5V68.6003H126.5V75.8003H120V82.5003H113.5V75.8003H106.5V68.6003H100V61.9003H93.5V55.2003H80V48.0003H93.5V55.2003H100V61.9003H106.5V68.6003H113.5V75.8003H120V68.6003H126.5V61.9003H133.5V55.2003H140V48.0003H133.5V41.3003H140V20.7003H146.5Z" fill="#8A002E"/>
<path d="M153.5 48.0003V68.6003H146.5V89.2003H140V103.1H133.5V117H126.5V123.7H120V130.4H113.5L113.5 123.7H120V117H126.5V103.1H133.5V89.2003H140V68.6003H146.5V48.0003H153.5Z" fill="black"/>
<path d="M146.5 14.0003V20.7003H153.5V27.4003H146.5V20.7003H140V14.0003H146.5Z" fill="#320017"/>
<path d="M153.5 34.6003V41.3003L146.5 41.0003V34.6003H153.5Z" fill="black"/>
<path d="M40 20.7003V27.4003H53.5V34.6003H73.5V27.4003H93.5V20.7003H133.5V34.6003H126.5V41.3003H120V27.4003H100V34.6003H73.5V41.3003H53.5V34.6003H40V27.4003H33.5V20.7003H40Z" fill="#8A002E"/>
<path d="M86.5 41.3003H100V48.0003H113.5V41.3003L126.5 41.3003L126.5 48.0003H113.5V55.2003L100 55.2003V48.0003H86.5V41.3003Z" fill="#F3ABCB"/>
<path d="M86.5 41.3003V48.0003H80V41.3003H86.5Z" fill="#E483AF"/>
<path d="M53.5 14.0003V20.7003H73.5V27.4003H53.5V20.7003H40V14.0003H53.5Z" fill="#E483AF"/>
<path d="M140 20.7003V34.6003H133.5V48.0003H126.5V55.2003H120V68.6003H113.5V61.9003H100V55.2003H93.5V48.0003H100V55.2003L113.5 55.2003V48.0003H126.5L126.5 34.6003H133.5V20.7003H140Z" fill="#E483AF"/>
<path d="M146.5 55.2003V68.6003H140V82.5003H133.5V89.2003H126.5L126.5 103.1H120L120 117H113.5L113.5 82.5003H106.5L106.5 75.8003H113.5V82.5003H120V75.8003H126.5V68.6003H133.5V61.9003H140V55.2003H146.5Z" fill="#320017"/>
<path d="M133.5 48.0003H140V55.2003H133.5V61.9003H126.5V68.6003H120V75.8003H113.5V68.6003H106.5V61.9003H113.5V68.6003H120V55.2003H126.5V48.0003H133.5Z" fill="#F40F63"/>
<path d="M140 34.6003V41.3003H133.5V34.6003H140Z" fill="#F40F63"/>
<path d="M140 82.5003V89.2003H133.5V103.1H126.5V117H120V123.7H113.5V117H120L120 103.1H126.5L126.5 89.2003H133.5V82.5003H140Z" fill="#8A002E"/>
<path d="M46.5 137.6V151H53.5V158.2H40V137.6H46.5Z" fill="#B3957B"/>
<path d="M73.5 137.6H86.5V144.3H93.5V151H80V158.2H60V151H53.5V144.3H66.5V137.6H73.5Z" fill="#B3957B"/>
<path d="M53.5 151H60V158.2H53.5V151Z" fill="#CC806D"/>
<path d="M53.5 144.3V151H46.5V144.3H53.5Z" fill="#CC806D"/>
<path d="M13.5 109.8V117H20V123.7H33.5V151H26.5V144.3H20V137.6H13.5V123.7H6.5V109.8H13.5Z" fill="#B3957B"/>
<path d="M13.5 82.5003V89.2003H26.5V96.4003H13.5V103.1H6.5V82.5003H13.5Z" fill="#FDB29D"/>
<path d="M20 103.1V109.8H13.5L13.5 103.1H20Z" fill="#FDB29D"/>
<path d="M13.5 103.1L13.5 109.8H26.5V123.7H20V117H13.5V109.8H6.5V103.1H13.5Z" fill="#FCE2C3"/>
<path d="M26.5 96.4003H33.5V103.1H13.5V96.4003H26.5Z" fill="#FCE2C3"/>
<path d="M113.5 96.4003L113.5 123.7H106.5C106.5 128.35 106.55 132.95 106.5 137.6H93.5V130.4H100V109.8H106.5V96.4003H113.5Z" fill="#B3957B"/>
<path d="M86.5 123.7H93.5V130.4H80V123.7H86.5Z" fill="#B3957B"/>
<path d="M100 117V130.4H93.5V117H100Z" fill="#CC806D"/>
<path d="M93.5 130.4V137.6H100V144.3H86.5V137.6H80V130.4H93.5Z" fill="#CC806D"/>
<path d="M80 48.0003V55.2003L86.5 55.2003V68.6003H93.5V82.5003H73.5V68.6003H60V61.9003H66.5V55.2003H73.5V48.0003H80Z" fill="white"/>
<path d="M66.5 48.0003V55.2003H53.5V68.6003H46.5V82.5003H33.5V89.2003H20V68.6003H26.5V82.5003H33.5V68.6003H26.5V55.2003H40V48.0003H66.5Z" fill="white"/>
<path d="M60 68.6003V75.8003H66.5V82.5003H53.5V68.6003H60Z" fill="white"/>
<path d="M73.5 48.0003V55.2003H66.5V48.0003H73.5Z" fill="#F2CEDE"/>
<path d="M60 68.6003H73.5V75.8003H60V68.6003Z" fill="#F2CEDE"/>
<path d="M66.5 55.2003V61.9003H60V68.6003H53.5V55.2003H66.5Z" fill="#F2CEDE"/>
<path d="M53.5 68.6003V75.8003H46.5V68.6003H53.5Z" fill="#F2CEDE"/>
<path d="M20 68.6003V89.2003H13.5V68.6003H20Z" fill="#FCE2C3"/>
<path d="M26.5 61.9003V68.6003H20V61.9003H26.5Z" fill="#F2CEDE"/>
<path d="M26.5 68.6003H33.5V82.5003H26.5V68.6003Z" fill="#F2CEDE"/>
<path d="M40 130.4V151H33.5L33.5 130.4H40Z" fill="#CC806D"/>
<path d="M53.5 82.5003H66.5V89.2003H73.5V96.4003H80V103.1H86.5V123.7H80V130.4H73.5V137.6H66.5V130.4H73.5V123.7H80V103.1H73.5V96.4003H66.5V89.2003H46.5V96.4003H40V103.1H33.5L33.5 123.7H40V130.4H46.5V137.6H66.5V144.3H46.5V137.6H40V130.4H33.5L33.5 123.7H26.5V103.1H33.5V96.4003H40V89.2003H46.5V82.5003H53.5Z" fill="#320017"/>
<path d="M80 130.4V137.6H73.5V130.4H80Z" fill="#E483AF"/>
<path d="M40 82.5003V96.4003H26.5V89.2003H33.5V82.5003H40Z" fill="#F3ABCB"/>
<path d="M100 61.9003V68.6003H106.5L106.5 82.5003H113.5V96.4003H106.5V109.8H100V117H86.5V103.1H80V89.2003H93.5V96.4003H86.5V103.1H93.5V96.4003H100V68.6003H93.5V61.9003H100Z" fill="#FCE2C3"/>
<path d="M53.5 75.8003V82.5003H46.5V75.8003H53.5Z" fill="#F3ABCB"/>
<path d="M46.5 82.5003V89.2003H40V82.5003H46.5Z" fill="#F2CEDE"/>
<path d="M73.5 75.8003V82.5003H80V89.2003H66.5V75.8003H73.5Z" fill="#F3ABCB"/>
<path d="M93.5 55.2003V68.6003H86.5V55.2003L93.5 55.2003Z" fill="#F2CEDE"/>
<path d="M100 68.6003V82.5003H93.5V89.2003H100V96.4003H93.5V89.2003H86.5V82.5003H93.5V68.6003H100Z" fill="#FDB29D"/>
<path d="M93.5 96.4003V103.1H86.5V96.4003H93.5Z" fill="#FDB29D"/>
<path d="M86.5 82.5003V89.2003H80V82.5003H86.5Z" fill="#F2CEDE"/>
<path d="M80 109.8V117H73.5V130.4H66.5V137.6H53.5V130.4H66.5V123.7H60V117H66.5V109.8H80Z" fill="#9629B2"/>
<path d="M46.5 123.7V130.4H53.5V137.6H46.5V130.4H40V123.7H46.5Z" fill="#F2CEDE"/>
<path d="M40 109.8H46.5V123.7H40V117H33.5V109.8H40Z" fill="#9629B2"/>
<path d="M33.5 117H40V123.7H33.5L33.5 117Z" fill="black"/>
<path d="M40 103.1H33.5V109.8H40V103.1Z" fill="#471965"/>
<path d="M26.5 103.1H20V109.8H26.5V103.1Z" fill="#F3ABCB"/>
<path d="M93.5 117H86.5V123.7H93.5V117Z" fill="#FDB29D"/>
<path d="M100 82.5003V89.2003H93.5V82.5003H100Z" fill="#F3ABCB"/>
<path d="M80 89.2003V96.4003H73.5V89.2003H80Z" fill="white"/>
<path d="M60 123.7V130.4H46.5V123.7H60Z" fill="black"/>
<path d="M60 123.7H66.5V130.4H60V123.7Z" fill="white"/>
<path d="M66.5 89.2003V96.4003H73.5V103.1H80V109.8H66.5V117H60V103.1H53.5V96.4003H46.5V89.2003H66.5Z" fill="#471965"/>
<path d="M53.5 103.1H60V123.7H46.5V109.8H53.5V103.1Z" fill="#320017"/>
<path d="M80 117V123.7H73.5V117H80Z" fill="black"/>
<path d="M46.5 96.4003H53.5V109.8H40V96.4003H46.5Z" fill="white"/>
</svg>
