<svg width="160" height="160" viewBox="0 0 160 160" fill="none" xmlns="http://www.w3.org/2000/svg">
<path d="M131.049 65.9598C131.028 69.0702 131.065 72.2075 131.049 75.3246C128.763 75.3448 126.455 75.2912 124.169 75.3246C124.142 78.4352 124.185 81.5724 124.169 84.6896C121.708 84.6896 119.221 84.6896 116.76 84.6896C116.733 87.8 116.776 90.9374 116.76 94.0545C109.361 94.1148 101.936 93.9606 94.5373 94.0545C94.5214 100.061 94.5479 106.101 94.5373 112.107C92.0764 112.147 89.589 112.04 87.1281 112.107C87.1069 115.218 87.1439 118.355 87.1281 121.472C84.6671 121.492 82.1797 121.439 79.7188 121.472C79.7136 124.583 79.7188 127.72 79.7188 130.831H50.6164C50.6164 127.72 50.6217 124.583 50.6164 121.472C60.296 121.586 70.0339 121.586 79.7188 121.472C79.7241 118.362 79.7188 115.225 79.7188 112.107C82.1797 112.067 84.6671 112.174 87.1281 112.107C87.1757 106.101 87.0963 100.061 87.1281 94.0545C89.589 94.0344 92.0764 94.088 94.5373 94.0545C94.5479 90.9441 94.5373 87.8068 94.5373 84.6963C96.9985 84.6695 99.4853 84.7164 101.946 84.6963V75.3314C104.407 75.3314 106.89 75.3381 109.351 75.3314V84.6963C111.811 84.6963 114.294 84.6963 116.76 84.6963C116.786 81.5858 116.733 78.4485 116.76 75.3381C119.221 75.3314 121.703 75.3716 124.169 75.3381C124.196 72.2276 124.164 69.0904 124.169 65.9798H131.049V65.9598Z" fill="black"/>
<path d="M35.8087 65.9597C35.8034 69.0702 35.814 72.2075 35.8087 75.318H43.218C60.3174 75.318 77.4433 75.3448 94.5427 75.318V84.6762C77.4486 84.884 60.3174 84.5287 43.218 84.6762C43.2762 93.7998 43.1544 102.964 43.218 112.087C45.6789 112.147 48.1663 112.04 50.6272 112.087C50.6272 115.197 50.6166 118.335 50.6272 121.452C48.1663 121.425 45.6789 121.472 43.218 121.452C43.2021 118.341 43.2444 115.204 43.218 112.087C40.757 112.027 38.2696 112.134 35.8087 112.087C35.7982 102.964 35.8351 93.7998 35.8087 84.6762C35.7982 81.5657 35.8034 78.4284 35.8087 75.318H28.9287C28.9287 72.2075 28.9287 69.0702 28.9287 65.9531C31.215 65.9329 33.5224 65.9933 35.8087 65.9531V65.9597Z" fill="#3D382F"/>
<path d="M65.4399 29.1906C85.0109 29.1236 104.603 29.2442 124.174 29.1906C124.19 32.3011 124.148 35.4384 124.174 38.5555C126.46 38.589 128.768 38.5354 131.054 38.5555C130.996 47.6791 131.118 56.8429 131.054 65.9665H124.174C124.169 69.0769 124.2 72.2143 124.174 75.3247C121.713 75.3582 119.231 75.318 116.765 75.3247C116.739 78.4352 116.791 81.5725 116.765 84.6829C114.304 84.6829 111.816 84.6829 109.355 84.6829V75.318C111.822 75.3113 114.304 75.3247 116.765 75.318C116.791 72.2075 116.749 69.0703 116.765 65.9531C119.225 65.9531 121.713 65.9531 124.174 65.9531C124.19 59.9467 124.19 53.9067 124.174 47.9004C124.169 44.7899 124.2 41.6526 124.174 38.5421C104.619 38.274 85.0003 38.4684 65.4452 38.5421V29.1906H65.4399Z" fill="#320017"/>
<path d="M65.4399 29.1906L65.4401 38.5489C60.513 38.569 55.5541 38.4885 50.6269 38.5489C50.6005 41.6593 50.6534 44.7966 50.6269 47.907C48.166 47.9138 45.6839 47.8736 43.2177 47.907C43.1965 50.7963 43.2177 53.7057 43.2177 56.5949H35.8085C35.8349 53.7057 35.7926 50.7896 35.8085 47.9004C38.2694 47.8802 40.7568 47.9339 43.2177 47.9004C43.2442 44.7899 43.2018 41.6527 43.2177 38.5354C45.6786 38.5153 48.166 38.569 50.6269 38.5354C50.6534 35.425 50.611 32.2877 50.6269 29.1705C55.5593 29.1638 60.513 29.1907 65.4454 29.1705L65.4399 29.1906Z" fill="#3D382F"/>
<path d="M43.2178 56.6016C43.2178 59.7122 43.2178 62.8494 43.2178 65.9599C40.7569 65.9867 38.2749 65.9196 35.8087 65.9597C35.814 62.8493 35.7821 59.7122 35.8085 56.6016H43.2178Z" fill="#320017"/>
<path d="M35.8087 75.318C35.8034 78.4284 35.7982 81.5657 35.8087 84.6762L28.9287 84.6761C28.9287 81.5657 28.9287 78.4284 28.9287 75.318H35.8087Z" fill="#320017"/>
<path d="M101.947 75.318V84.6829C99.4856 84.7029 97.0036 84.6493 94.5376 84.6829C94.5376 87.7934 94.5482 90.9306 94.5376 94.0411C92.0766 94.0679 89.5893 94.0209 87.1283 94.0411C87.1019 100.048 87.176 106.087 87.1283 112.094C84.6675 112.161 82.1801 112.047 79.7192 112.094C79.7192 115.204 79.7297 118.341 79.7192 121.459C70.0395 121.573 60.3016 121.573 50.6167 121.459C50.6115 118.348 50.6167 115.211 50.6167 112.094C48.1558 112.054 45.6684 112.161 43.2075 112.094C43.1387 102.97 43.2604 93.8064 43.2075 84.6829C60.307 84.5354 77.4381 84.8907 94.5323 84.6829V75.3246C96.9934 75.3246 99.4755 75.3246 101.941 75.3246L101.947 75.318Z" fill="#320017"/>
<path d="M43.2178 65.9599L43.218 75.318H35.8087C35.814 72.2075 35.8034 69.0702 35.8087 65.9597C38.2696 65.9196 40.7515 65.9867 43.2178 65.9599Z" fill="black"/>
<path d="M65.4401 38.5489C84.9951 38.4751 104.614 38.2807 124.169 38.5489C124.195 41.6593 124.163 44.7967 124.169 47.9071C99.6654 47.9674 75.1303 47.8199 50.6269 47.907C50.6005 50.7963 50.643 53.7124 50.6271 56.6017C48.1662 56.6017 45.6787 56.6016 43.2178 56.6016C43.2178 53.7124 43.1967 50.7964 43.2179 47.9138C45.6788 47.8803 48.1609 47.9205 50.6271 47.9138C50.6536 44.8034 50.6006 41.6661 50.6271 38.5556C55.5543 38.4953 60.5132 38.5757 65.4403 38.5556L65.4401 38.5489Z" fill="black"/>
</svg>
