<svg width="160" height="165" viewBox="0 0 160 165" fill="none" xmlns="http://www.w3.org/2000/svg">
<path d="M13.4998 117V137.6H19.9998V144.3H39.9998V151C33.3498 151 26.6498 151.05 19.9998 151V144.3H13.4998V137.6H6.49976C6.44976 130.75 6.49976 123.85 6.49976 117H13.4998Z" fill="#F4FBFE"/>
<path d="M19.9998 89.2003V103.1H13.4998L13.4998 117H6.49976V103.1H13.4998V89.2003H19.9998Z" fill="#B5C0EC"/>
<path d="M153.5 6.80029V14.0003H146.5V20.7003H140V27.4003H133.5V34.6003H126.5V41.3003H120V48.0003H113.5V55.2003H106.5V48.0003H113.5V41.3003H120V34.6003H126.5V27.4003H133.5V20.7003H140V14.0003H146.5V6.80029H153.5Z" fill="#3F1225"/>
<path d="M146.5 6.80029V14.0003H140V20.7003H133.5V27.4003H126.5V34.6003H120V41.3003H113.5V48.0003H106.5V41.3003H113.5V34.6003H120V27.4003H126.5V20.7003H133.5V14.0003H140V6.80029H146.5Z" fill="#DC7039"/>
<path d="M153.5 14.0003V20.7003H146.5V27.4003H140V34.6003H133.5V41.3003H126.5V48.0003H120V55.2003H113.5V48.0003H120V41.3003H126.5V34.6003H133.5V27.4003H140V20.7003H146.5V14.0003H153.5Z" fill="#AE4235"/>
<path d="M59.9998 41.3003H73.4998V55.2003H66.4998V61.9003H59.9998V68.6003H79.9998V75.8003H73.4998V82.5003H59.9998C59.7498 80.7503 60.4498 77.8003 59.7498 76.3003C59.0498 74.8003 55.0498 76.0003 54.1998 74.8003C53.3498 73.6003 53.5498 69.5503 53.4998 68.5503C53.3498 66.3503 53.4998 64.0503 53.4998 61.8503H59.9998V55.1503H53.4998V47.9503H59.9998V41.2503V41.3003Z" fill="#23397D"/>
<path d="M53.4998 55.2003V61.9003H46.4998V68.6003H39.9998V61.9003H46.4998V55.2003H53.4998Z" fill="#7E94DF"/>
<path d="M39.9998 68.6003V75.8003H33.4998V68.6003H39.9998Z" fill="#F4FBFE"/>
<path d="M33.4998 75.8003V82.5003H26.4998V75.8003L33.4998 75.8003Z" fill="#B5C0EC"/>
<path d="M93.4998 61.9003V68.6003H86.4998V75.8003L79.9998 75.8003V82.5003L73.4998 82.5003V75.8003H79.9998V68.6003L86.4998 68.6003V61.9003H93.4998Z" fill="#3D57A9"/>
<path d="M106.5 48.0003V55.2003H99.9998V61.9003H93.4998V55.2003H99.9998V48.0003H106.5Z" fill="#2B4990"/>
<path d="M73.4998 61.9003V68.6003H66.4998V61.9003L73.4998 61.9003Z" fill="#3D57A9"/>
<path d="M26.4998 82.5003V89.2003H19.9998L19.9998 82.5003H26.4998Z" fill="#F4FBFE"/>
<path d="M93.4998 130.4V137.6H86.4998V144.3H73.4998V151H53.4998V144.3H73.4998V137.6H86.4998V130.4H93.4998Z" fill="#B5C0EC"/>
<path d="M53.4998 144.3V151H46.4998V144.3H53.4998Z" fill="#F4FBFE"/>
<path d="M46.4998 144.3V151H39.9998V144.3H46.4998Z" fill="#B5C0EC"/>
<path d="M126.5 75.8003H140V89.2003H133.5V90.7503C126 91.4503 125.75 89.3003 126 82.5003C126.25 75.7003 126.45 78.0503 126.5 75.8003Z" fill="#283262"/>
<path d="M140 89.2003V96.4003H133.5V103.1H126.5V109.8H120V117H113.5V109.8H120V103.1H126.5V96.4003H133.5C133.5 94.5003 133.45 92.6503 133.5 90.7503C133.55 88.8503 133.5 89.7003 133.5 89.2003H140Z" fill="#7E94DF"/>
<path d="M113.5 82.5003V89.2003H120V82.5003H126C125.75 89.3003 126 91.4503 133.5 90.7503C133.45 92.6503 133.5 94.5003 133.5 96.4003H126.5V103.1H120V96.4003H113.5V89.2003H99.9998V82.5003H113.5Z" fill="#23397D"/>
<path d="M120 55.2003V61.9003H113.5V68.6003H106.5V75.8003H99.9998V82.5003L93.4998 82.5003V75.8003H99.9998V68.6003H106.5V61.9003H113.5V55.2003H120Z" fill="#283262"/>
<path d="M106.5 55.2003V61.9003H99.9998V68.6003H93.4998V75.8003H86.4998V82.5003H79.9998V89.2003H73.4998V82.5003L79.9998 82.5003V75.8003L86.4998 75.8003V68.6003H93.4998V61.9003H99.9998V55.2003H106.5Z" fill="#283262"/>
<path d="M99.9998 130.4V137.6H93.4998V130.4H99.9998Z" fill="#F4FBFE"/>
<path d="M106.5 123.7V130.4H99.9998V123.7H106.5Z" fill="#7E94DF"/>
<path d="M113.5 117V123.7H106.5V117H113.5Z" fill="#F4FBFE"/>
<path d="M19.9998 103.1L19.9998 130.4H26.4998V123.7H33.4998V137.6H39.9998V144.3H19.9998V137.6H13.4998L13.4998 103.1H19.9998Z" fill="#537DC0"/>
<path d="M53.4998 55.2003H59.9998V61.9003L53.4998 61.9003V55.2003Z" fill="#3D57A9"/>
<path d="M66.4998 61.9003V68.6003L59.9998 68.6003V61.9003H66.4998Z" fill="#2B4990"/>
<path d="M53.4998 68.6003C53.4998 69.5503 54.0498 74.5503 54.1998 74.8503C54.9998 76.1003 58.7998 74.4003 59.7498 76.3503C60.6998 78.3003 59.7498 80.8003 59.9998 82.5503H53.4998V89.2503H46.4998V96.4503H39.9998V103.15H33.4998V117.05H26.4998V130.45H19.9998V103.15C19.9998 94.1003 19.9998 98.6503 19.9998 96.4503H26.4998V89.2503H33.4998V82.5503H39.9998V75.8503H46.4998V68.6503H53.4998V68.6003Z" fill="#2B4990"/>
<path d="M33.4998 82.5003L33.4998 89.2003H26.4998L26.4998 96.4003H19.9998L19.9998 89.2003H26.4998V82.5003H33.4998Z" fill="#537DC0"/>
<path d="M53.4998 61.9003C53.4998 64.1003 53.3498 66.4003 53.4998 68.6003H46.4998V75.8003H39.9998V82.5003L33.4998 82.5003V75.8003H39.9998V68.6003H46.4998V61.9003H53.4998Z" fill="#415FAE"/>
<path d="M59.9998 82.5003H66.4998V89.2003H59.9998V103.1H53.4998V117H46.4998C46.4998 115.6 46.7998 111.05 46.2998 110.25C45.4498 109 41.6998 110.6 40.4498 109.05C39.1998 107.5 40.0498 104.65 39.9998 103.1C39.9498 101.5 39.9998 98.6003 39.9998 96.4003H46.4998V89.2003H53.4998V82.5003H59.9998Z" fill="#3D57A9"/>
<path d="M73.4998 82.5003V89.2003L66.4998 89.2003V96.4003H59.9998V89.2003H66.4998V82.5003H73.4998Z" fill="#537DC0"/>
<path d="M53.4998 137.6H73.4998V144.3H39.9998V137.6H53.4998Z" fill="#415FAE"/>
<path d="M99.9998 82.5003V89.2003H113.5V96.4003H120V109.8H113.5V117H106.5V123.7H99.9998V117H106.5V109.8H113.5V103.1H106.5V96.4003C99.8498 96.4503 93.1498 96.3503 86.4998 96.4003V89.2003H93.4998V82.5003L99.9998 82.5003Z" fill="#2B4990"/>
<path d="M113.5 55.2003V61.9003H106.5V55.2003H113.5Z" fill="#1D2850"/>
<path d="M99.9998 68.6003V75.8003H93.4998V68.6003H99.9998Z" fill="#1D2850"/>
<path d="M93.4998 75.8003V89.2003H86.4998V96.4003H79.9998V109.8H73.9998C74.0498 107.4 73.4998 105.15 73.4998 103.1V89.2003H79.9998V82.5003H86.4998V75.8003H93.4998Z" fill="#1D2850"/>
<path d="M106.5 61.9003V68.6003H99.9998V61.9003H106.5Z" fill="#1D2850"/>
<path d="M86.4998 123.7V130.4H79.9998V137.6H59.9998V130.4H79.9998V123.7H86.4998Z" fill="#2B4990"/>
<path d="M93.4998 123.7H99.9998V130.4H86.4998V137.6H79.9998V130.4H86.4998V123.7H93.4998Z" fill="#3D57A9"/>
<path d="M39.9998 103.1C39.9998 104.7 39.5998 108 40.4498 109.05C41.6498 110.65 45.4498 109.05 46.2998 110.25C47.1498 111.45 46.4998 115.6 46.4998 117V123.7H39.9998V130.4H33.4998V123.7H26.4998V117H33.4998V103.1H39.9998Z" fill="#415FAE"/>
<path d="M53.4998 117L53.4998 123.7H46.4998V130.4H39.9998V137.6H33.4998V130.4H39.9998V123.7H46.4998V117H53.4998Z" fill="#7E94DF"/>
<path d="M59.9998 103.1V117H53.4998V103.1H59.9998Z" fill="#B5C0EC"/>
<path d="M66.4998 96.4003V103.1H59.9998V96.4003H66.4998Z" fill="#7E94DF"/>
<path d="M73.4998 89.2003V103.1H66.4998V109.8H59.9998V103.1H66.4998V89.2003L73.4998 89.2003Z" fill="#23397D"/>
<path d="M73.4998 103.1C73.4998 105.15 74.0498 107.4 73.9998 109.8C73.9498 112.2 73.5498 110.35 73.4998 111.05C73.3498 113 73.6498 115.05 73.4998 117H66.4998V123.7H59.9998V130.4H53.4998V137.6H39.9998V130.4H53.4998L53.4998 117H59.9998V109.8H66.4998V103.1H73.4998Z" fill="#283262"/>
<path d="M59.9998 130.4V137.6H53.4998V130.4H59.9998Z" fill="#537DC0"/>
<path d="M86.4998 96.4003C93.1498 96.3503 99.8498 96.4503 106.5 96.4003V109.8H99.9998V117H93.9998C94.1998 112.2 93.3998 111.65 92.5998 107.9C91.7998 104.15 92.5998 104.3 92.4998 104.15C92.1998 103.85 88.2998 104.9 86.7498 103.1C85.1998 101.3 86.1498 98.4003 85.9998 96.4003H86.4998Z" fill="#3D57A9"/>
<path d="M106.5 103.1H113.5V109.8H106.5V117H99.9998V123.7H93.4998C93.5998 121.9 93.3498 120.05 93.4998 118.25C93.6498 116.45 93.9998 117.05 93.9998 117H99.9998V109.8H106.5V103.1Z" fill="#23397D"/>
<path d="M85.9998 96.4003C86.1998 98.4003 85.3998 101.45 86.7498 103.1C88.0998 104.75 92.1998 103.8 92.4998 104.15C92.7998 104.45 92.3998 107 92.5998 107.9C93.3998 111.65 94.1998 112.25 93.9998 117C93.9998 117.05 93.5498 117.55 93.4998 118.25C93.3998 120.05 93.5998 121.9 93.4998 123.7H79.9998V130.4H59.9998V123.7H66.4998V117H73.4998C73.5998 115.05 73.3498 113 73.4998 111.05C73.6498 109.1 73.9998 109.85 73.9998 109.8H79.9998V96.4003H85.9998Z" fill="#415FAE"/>
<path d="M53.4998 123.7V130.4H46.4998V123.7H53.4998Z" fill="#2B4990"/>
</svg>
