<?xml version="1.0" encoding="UTF-8"?>
<!-- Generator: visioncortex VTracer 0.6.5 -->
<svg version="1.1" xmlns="http://www.w3.org/2000/svg" width="60" height="60">
<path d="M0,0 L60,0 L60,60 L0,60 Z " fill="#0B0D17" transform="translate(0,0)"/>
<path d="M0,0 L28,0 L26,5 L23,6 L20,3 L20,10 L25,10 L24,12 L22,12 L21,21 L25,22 L25,34 L27,34 L29,39 L33,38 L35,39 L35,41 L33,41 L31,48 L30,45 L27,44 L27,40 L20,40 L21,44 L21,46 L25,46 L26,51 L22,50 L23,54 L19,54 L20,58 L30,57 L30,60 L0,60 Z " fill="#07050F" transform="translate(0,0)"/>
<path d="M0,0 L13,0 L13,43 L11,42 L11,40 L6,39 L6,33 L-1,31 L1,28 L9,24 L10,22 L7,24 L1,24 L0,27 L-3,27 L-3,29 L-5,29 L-6,25 L-7,24 L-9,11 L-7,11 L-7,13 L-2,11 L1,6 Z " fill="#05030F" transform="translate(47,0)"/>
<path d="M0,0 L19,0 L21,3 L20,8 L17,12 L12,13 L12,15 L12,21 L9,20 L10,16 L8,16 L7,20 L3,20 L3,18 L5,18 L5,16 L-2,16 L-4,11 L-8,10 L-8,3 L-5,4 L-5,6 L-2,4 Z " fill="#100F18" transform="translate(28,0)"/>
<path d="M0,0 L2,0 L3,6 L6,6 L7,4 L7,8 L5,8 L6,12 L6,13 L9,13 L9,17 L7,17 L7,20 L3,21 L-1,17 L-1,3 Z " fill="#101721" transform="translate(27,17)"/>
<path d="M0,0 L15,0 L13,5 L10,6 L7,3 L7,10 L9,11 L7,11 L6,13 L2,11 L1,8 L-2,6 L-1,1 Z " fill="#0A0710" transform="translate(13,0)"/>
<path d="M0,0 L6,1 L7,5 L7,8 L11,9 L13,14 L0,9 L-3,5 L-1,1 Z " fill="#0C0E18" transform="translate(47,31)"/>
<path d="M0,0 L5,0 L5,3 L7,3 L7,5 L12,3 L10,10 L0,10 L0,8 L6,8 L6,6 L-1,6 L-5,7 L-2,4 Z " fill="#5E4039" transform="translate(28,0)"/>
<path d="M0,0 L5,0 L5,10 L2,10 L2,13 L-2,13 L-2,1 Z " fill="#0A0B15" transform="translate(2,47)"/>
<path d="M0,0 L13,0 L12,6 L8,10 L6,6 L7,3 L2,5 L2,3 L0,3 Z " fill="#090610" transform="translate(33,0)"/>
<path d="M0,0 L3,1 L6,4 L4,8 L1,8 L2,6 L-1,5 L-1,7 L-8,8 L-8,5 L-6,5 L-5,2 Z " fill="#0F141F" transform="translate(10,30)"/>
<path d="M0,0 L4,1 L3,5 L-3,6 L-3,8 L-9,8 L-9,6 L-7,6 L-7,3 L0,2 Z " fill="#0A0B15" transform="translate(9,35)"/>
<path d="M0,0 L10,0 L12,4 L11,8 L7,8 L7,6 L9,6 L9,4 L2,4 Z " fill="#15212D" transform="translate(24,12)"/>
<path d="M0,0 L2,0 L0,4 L-10,8 L-15,13 L-15,9 L-11,5 L-8,4 L-7,2 Z " fill="#0C0D18" transform="translate(55,22)"/>
<path d="M0,0 L3,1 L3,4 L9,2 L14,3 L14,5 L8,5 L8,7 L0,7 Z " fill="#261618" transform="translate(20,3)"/>
<path d="M0,0 L6,1 L7,5 L2,6 L-3,5 L-1,1 Z " fill="#0E121D" transform="translate(47,31)"/>
<path d="M0,0 L7,1 L8,4 L11,4 L13,10 L10,10 L10,7 L8,7 L8,5 L2,4 L2,2 L0,2 Z " fill="#0B0D17" transform="translate(5,23)"/>
<path d="M0,0 L3,0 L3,2 L1,2 L1,4 L5,4 L7,12 L3,15 L1,14 L2,9 L4,9 L3,7 L0,7 Z " fill="#0D101B" transform="translate(30,16)"/>
<path d="M0,0 L1,2 L6,0 L4,7 L-6,7 L-6,5 L0,5 Z " fill="#745448" transform="translate(34,3)"/>
<path d="M0,0 L2,0 L3,6 L6,6 L7,4 L6,8 L4,7 L3,10 L2,8 L-1,10 L-1,3 Z " fill="#1A2631" transform="translate(27,17)"/>
<path d="M0,0 L4,1 L6,3 L6,9 L3,8 L4,4 L0,3 Z " fill="#111722" transform="translate(34,12)"/>
<path d="M0,0 L3,1 L1,4 L3,4 L3,8 L1,8 L1,6 L-2,6 L-2,1 Z " fill="#101620" transform="translate(2,47)"/>
<path d="M0,0 L7,1 L7,3 L1,3 L1,5 L-1,5 L-1,3 L-4,2 Z " fill="#341E1E" transform="translate(27,5)"/>
<path d="M0,0 L4,0 L5,6 L1,6 L2,2 L0,2 Z " fill="#0C0F19" transform="translate(55,54)"/>
<path d="M0,0 L2,0 L2,4 L6,6 L6,8 L2,8 L0,4 Z " fill="#101621" transform="translate(13,3)"/>
<path d="M0,0 L7,0 L6,3 L6,1 L4,1 L4,4 L0,4 Z " fill="#07060E" transform="translate(23,16)"/>
<path d="M0,0 L3,1 L4,5 L-1,6 L-1,4 L1,4 Z " fill="#1F2D36" transform="translate(32,14)"/>
<path d="M0,0 L3,0 L2,4 L-3,3 Z " fill="#121A25" transform="translate(51,33)"/>
<path d="M0,0 L2,0 L3,6 L-1,6 Z " fill="#978071" transform="translate(31,0)"/>
<path d="M0,0 L2,0 L2,3 L0,3 L-1,7 L-2,2 Z " fill="#0B0D17" transform="translate(13,0)"/>
<path d="M0,0 L5,5 L1,6 Z " fill="#0F141E" transform="translate(13,54)"/>
<path d="M0,0 L2,0 L0,7 L-3,3 Z " fill="#3C2322" transform="translate(38,3)"/>
<path d="M0,0 L3,0 L4,3 L0,4 L-1,2 Z " fill="#0A0B15" transform="translate(54,34)"/>
<path d="M0,0 L3,1 L3,3 L5,3 L5,5 L1,4 Z " fill="#101621" transform="translate(10,24)"/>
<path d="M0,0 L2,0 L3,6 L0,6 Z " fill="#131B27" transform="translate(33,20)"/>
<path d="M0,0 L2,0 L1,5 L-1,3 Z " fill="#050209" transform="translate(36,16)"/>
<path d="M0,0 L2,2 L2,5 L0,5 L-1,2 Z " fill="#090711" transform="translate(16,46)"/>
<path d="M0,0 L1,3 L-2,5 L-1,1 Z " fill="#0A0A13" transform="translate(29,24)"/>
<path d="M0,0 L2,0 L1,3 L-2,2 Z " fill="#0A0B15" transform="translate(31,53)"/>
<path d="M0,0 L2,0 L1,3 L-1,3 Z " fill="#7C5F53" transform="translate(38,3)"/>
<path d="M0,0 L3,1 L3,3 L0,2 Z " fill="#836E61" transform="translate(20,3)"/>
<path d="M0,0 L2,0 L1,3 L-1,3 Z " fill="#927668" transform="translate(28,0)"/>
</svg>
