<?xml version="1.0" encoding="UTF-8"?>
<!-- Generator: visioncortex VTracer 0.6.5 -->
<svg version="1.1" xmlns="http://www.w3.org/2000/svg" width="150" height="85">
<path d="M0,0 L150,0 L150,85 L0,85 Z " fill="#412F2C" transform="translate(0,0)"/>
<path d="M0,0 L5,1 L5,3 L0,3 L1,10 L2,15 L5,18 L-1,21 L-1,27 L5,32 L5,34 L13,36 L17,43 L16,49 L18,49 L18,45 L22,44 L24,45 L25,49 L32,49 L31,43 L27,41 L20,40 L19,39 L19,26 L20,24 L29,24 L30,30 L39,33 L41,40 L48,41 L46,36 L46,32 L50,31 L57,31 L60,31 L73,32 L80,35 L83,36 L85,33 L96,33 L96,30 L93,29 L93,25 L97,26 L98,29 L104,30 L102,23 L103,22 L119,22 L119,25 L111,26 L110,27 L121,28 L121,68 L-29,68 L-29,41 L-24,43 L-24,45 L-16,46 L-16,43 L-23,43 L-23,42 L-18,42 L-16,36 L-14,34 L-11,34 L-12,29 L-7,29 L-8,23 L-14,23 L-15,31 L-19,32 L-22,24 L-22,21 L-19,20 L-15,13 L-12,13 L-12,18 L-8,18 L-8,5 L-3,1 Z " fill="#433F4B" transform="translate(29,17)"/>
<path d="M0,0 L61,0 L61,24 L57,27 L54,27 L53,37 L41,38 L37,41 L31,43 L28,48 L19,48 L17,43 L15,43 L14,45 L0,45 L-5,47 L-12,47 L-12,41 L-11,40 L-4,40 L-4,18 L-1,11 Z " fill="#201D23" transform="translate(89,0)"/>
<path d="M0,0 L32,0 L32,15 L28,15 L28,17 L26,17 L27,20 L22,22 L21,35 L17,35 L17,30 L14,30 L13,34 L10,38 L7,38 L10,46 L10,49 L13,48 L15,40 L21,40 L22,46 L17,46 L18,51 L14,53 L11,59 L13,60 L13,63 L7,63 L5,62 L5,60 L1,59 L0,58 Z " fill="#1F1618" transform="translate(0,0)"/>
<path d="M0,0 L16,0 L16,3 L8,4 L7,5 L18,6 L18,8 L9,8 L8,14 L10,14 L9,21 L5,21 L5,17 L0,17 L1,25 L0,26 L8,26 L9,29 L5,33 L-2,33 L-2,35 L-13,37 L-12,41 L-16,41 L-16,39 L-20,40 L-35,40 L-38,38 L-37,35 L-18,35 L-18,33 L-27,33 L-28,32 L-36,31 L-35,28 L-29,27 L-28,20 L-43,18 L-45,12 L-44,11 L-26,11 L-20,14 L-18,11 L-7,11 L-7,8 L-10,7 L-10,3 L-6,4 L-5,7 L1,8 L-1,1 Z " fill="#524B54" transform="translate(132,39)"/>
<path d="M0,0 L43,0 L43,11 L40,18 L38,25 L19,25 L18,29 L17,26 L7,25 L7,30 L5,30 L5,25 L-1,25 L0,18 L-10,18 L-10,12 L-8,10 L-5,10 L-5,12 L-1,12 Z M0,16 Z " fill="#3A3436" transform="translate(46,0)"/>
<path d="M0,0 L7,0 L9,1 L9,39 L-49,39 L-48,35 L-43,34 L-21,34 L-23,29 L-11,28 L-11,26 L-2,24 L-1,20 L-9,20 L-12,18 L-8,18 L-9,16 L-9,10 L-4,10 L-4,14 L0,14 L1,7 L-1,7 L-1,1 Z " fill="#20232E" transform="translate(141,46)"/>
<path d="M0,0 L2,0 L2,21 L-10,21 L-8,18 L0,18 L0,15 L-16,16 L-15,23 L-21,23 L-23,19 L-26,18 L-25,22 L-23,23 L-23,26 L-34,27 L-37,30 L-42,27 L-46,26 L-60,25 L-62,25 L-72,25 L-72,29 L-71,34 L-79,34 L-81,26 L-89,24 L-90,23 L-90,17 L-99,17 L-100,26 L-103,25 L-104,19 L-100,18 L-99,15 L-97,14 L-95,9 L-94,13 L-88,13 L-87,18 L-88,23 L-82,23 L-78,20 L-73,21 L-72,22 L-64,22 L-58,20 L-45,21 L-44,18 L-40,20 L-40,24 L-31,23 L-27,17 L-21,15 L-18,13 L-6,13 L-5,3 Z " fill="#45383A" transform="translate(148,24)"/>
<path d="M0,0 L27,0 L28,2 L29,15 L35,16 L35,18 L43,18 L43,20 L0,20 Z " fill="#0A0D10" transform="translate(0,65)"/>
<path d="M0,0 L3,1 L2,2 L1,15 L-3,15 L-3,10 L-6,10 L-7,14 L-10,18 L-13,18 L-10,26 L-10,29 L-7,28 L-5,20 L1,20 L2,26 L-3,26 L-2,31 L-6,33 L-9,39 L-7,40 L-7,43 L-13,43 L-15,42 L-15,40 L-19,39 L-20,38 L-20,4 L-2,3 Z " fill="#3C3731" transform="translate(20,20)"/>
<path d="M0,0 L5,1 L5,3 L0,3 L1,10 L2,15 L5,18 L-1,21 L-1,30 L-4,30 L-5,32 L1,33 L2,31 L3,34 L7,36 L7,42 L3,42 L3,40 L-8,40 L-10,36 L-10,32 L-12,32 L-12,29 L-7,29 L-8,23 L-14,23 L-15,31 L-19,32 L-22,24 L-22,21 L-19,20 L-15,13 L-12,13 L-12,18 L-8,18 L-8,5 L-3,1 Z " fill="#614F50" transform="translate(29,17)"/>
<path d="M0,0 L5,2 L5,4 L13,5 L13,2 L21,0 L22,4 L26,3 L28,5 L31,3 L29,12 L39,11 L42,2 L44,4 L44,11 L48,9 L48,5 L51,6 L53,9 L58,10 L56,12 L48,12 L45,14 L45,16 L34,17 L31,15 L31,18 L29,18 L31,21 L38,21 L41,22 L41,20 L46,20 L51,18 L51,15 L53,15 L53,17 L55,16 L64,16 L63,18 L57,18 L57,20 L68,22 L68,25 L63,25 L63,27 L43,27 L43,25 L35,25 L35,23 L29,23 L28,22 L27,7 L0,7 Z " fill="#3D3D4B" transform="translate(0,58)"/>
<path d="M0,0 L4,0 L3,3 L7,5 L7,3 L22,3 L25,4 L25,8 L23,9 L9,10 L6,13 L0,13 L-3,11 L-3,9 L3,8 L-7,8 L-7,6 L-9,6 L-8,9 L-14,12 L-19,11 L-19,13 L-29,13 L-31,9 L-29,9 L-29,6 L-24,7 L-15,7 L-16,4 L-12,2 L-4,2 Z " fill="#535966" transform="translate(60,67)"/>
<path d="M0,0 L17,0 L17,16 L14,18 L7,17 L3,15 L-1,18 L-10,18 L-10,12 L-8,10 L-5,10 L-5,12 L-1,12 Z " fill="#4F444E" transform="translate(46,0)"/>
<path d="M0,0 L5,0 L6,1 L6,9 L4,10 L4,14 L3,19 L7,19 L7,21 L-3,21 L-3,23 L2,24 L2,27 L-2,27 L-2,25 L-6,26 L-21,26 L-24,24 L-23,21 L-4,21 L-4,19 L-13,19 L-14,18 L-22,17 L-21,15 L-4,15 L-2,9 L0,9 L-1,1 Z " fill="#666A77" transform="translate(118,53)"/>
<path d="M0,0 L16,0 L16,13 L13,19 L3,19 L0,15 Z " fill="#332A2F" transform="translate(93,0)"/>
<path d="M0,0 L2,4 L4,7 L14,8 L14,10 L18,10 L19,6 L20,10 L24,10 L24,16 L21,21 L11,21 L11,15 L10,15 L7,13 L4,13 L4,11 L1,10 L0,11 L-12,11 L-12,10 L-7,10 L-5,4 L-3,2 L0,2 Z " fill="#4F424B" transform="translate(18,49)"/>
<path d="M0,0 L7,0 L11,2 L11,4 L13,4 L14,6 L19,6 L19,12 L-12,12 L-12,9 L-10,8 L-8,4 L-1,4 Z " fill="#13121B" transform="translate(131,73)"/>
<path d="M0,0 L5,1 L6,13 L5,14 L13,14 L14,17 L10,21 L3,21 L3,23 L-8,25 L-10,26 L-12,25 L-12,23 L-2,23 L-2,21 L-6,21 L-6,16 L-6,12 L-3,11 L-2,2 L0,2 Z " fill="#4E525D" transform="translate(127,51)"/>
<path d="M0,0 L16,0 L16,3 L8,4 L7,5 L18,6 L18,8 L9,8 L8,14 L10,14 L9,21 L5,21 L5,17 L0,17 L0,13 L-5,12 L-5,14 L-7,14 L-7,12 L-9,11 L-7,11 L-7,8 L-10,7 L-10,3 L-6,4 L-5,7 L1,8 L-1,1 Z " fill="#414857" transform="translate(132,39)"/>
<path d="M0,0 L15,0 L15,14 L6,13 L7,19 L6,20 L0,20 Z " fill="#322828" transform="translate(11,0)"/>
<path d="M0,0 L2,0 L2,21 L-10,21 L-8,18 L0,18 L0,15 L-16,16 L-15,23 L-21,23 L-23,17 L-18,13 L-6,13 L-5,3 Z " fill="#292931" transform="translate(148,24)"/>
<path d="M0,0 L15,0 L15,10 L13,10 L12,13 L7,16 L2,16 L1,18 L0,17 Z " fill="#302E30" transform="translate(113,0)"/>
<path d="M0,0 L14,0 L14,10 L13,12 L9,12 L9,10 L5,12 L4,17 L2,17 L2,15 L0,15 Z " fill="#2D272B" transform="translate(32,0)"/>
<path d="M0,0 L12,0 L12,2 L4,4 L4,6 L6,7 L25,7 L25,9 L7,10 L2,11 L1,14 L-12,14 L-10,9 L-5,10 L-4,5 L-1,4 L-2,1 Z " fill="#383D4D" transform="translate(91,71)"/>
<path d="M0,0 L3,1 L5,5 L1,6 L0,10 L-5,10 L-7,14 L-23,14 L-23,12 L-18,12 L-18,9 L-20,8 L-18,8 L-17,5 L-1,4 Z " fill="#414655" transform="translate(86,71)"/>
<path d="M0,0 L8,0 L8,16 L5,18 L-2,17 L-6,15 L-7,13 L-2,9 Z " fill="#554644" transform="translate(55,0)"/>
<path d="M0,0 L9,0 L9,15 L7,17 L0,17 Z " fill="#030709" transform="translate(0,0)"/>
<path d="M0,0 L27,0 L28,2 L29,15 L35,16 L35,18 L43,18 L43,20 L34,20 L28,18 L28,16 L26,16 L26,3 L20,3 L20,13 L18,13 L18,2 L0,2 Z " fill="#22232C" transform="translate(0,65)"/>
<path d="M0,0 L7,0 L9,6 L15,10 L14,14 L7,13 L-1,12 L-1,1 Z " fill="#695E67" transform="translate(49,42)"/>
<path d="M0,0 L0,3 L-2,3 L-2,6 L-6,8 L-8,11 L-19,11 L-19,2 L-1,1 Z " fill="#253133" transform="translate(19,22)"/>
<path d="M0,0 L2,2 L2,9 L6,7 L6,3 L9,4 L11,7 L16,8 L14,10 L6,10 L3,12 L3,14 L-8,15 L-11,13 L-11,16 L-13,16 L-12,10 L-3,9 Z " fill="#384250" transform="translate(42,60)"/>
<path d="M0,0 L0,3 L0,14 L-1,17 L-7,16 L-8,22 L-10,29 L-13,29 L-16,21 L-16,18 L-13,17 L-9,10 L-6,10 L-6,15 L-2,15 L-2,2 Z " fill="#715242" transform="translate(23,20)"/>
<path d="M0,0 L3,0 L4,2 L13,4 L17,6 L17,10 L16,12 L9,13 L7,10 L8,8 L2,8 L2,12 L0,12 L0,6 L-1,4 Z " fill="#303541" transform="translate(45,54)"/>
<path d="M0,0 L8,0 L8,14 L7,16 L1,16 L0,11 Z " fill="#483A40" transform="translate(97,0)"/>
<path d="M0,0 L9,0 L10,1 L18,2 L18,5 L13,5 L13,7 L-6,7 L-4,5 L-6,3 L-5,2 L0,2 Z " fill="#3D4252" transform="translate(50,78)"/>
<path d="M0,0 L4,0 L4,12 L2,14 L2,20 L0,22 L-3,22 L-3,20 L-8,20 L-8,16 L-2,17 L-2,3 Z " fill="#795B4D" transform="translate(24,20)"/>
<path d="M0,0 L5,1 L5,3 L0,3 L1,10 L2,15 L5,18 L-1,21 L-1,30 L-8,31 L-11,30 L-12,32 L-12,29 L-7,29 L-7,25 L-4,23 L-4,17 L-2,15 L-2,3 L-3,1 Z " fill="#6B4D3E" transform="translate(29,17)"/>
<path d="M0,0 L4,2 L1,2 L1,4 L6,5 L6,8 L2,8 L2,6 L-2,7 L-17,7 L-20,5 L-19,2 L0,2 Z " fill="#4C5362" transform="translate(114,72)"/>
<path d="M0,0 L9,0 L10,6 L19,9 L18,16 L14,18 L7,17 L0,16 L-1,13 L7,13 L14,15 L13,10 L7,6 L7,1 L0,1 Z " fill="#584C53" transform="translate(49,41)"/>
<path d="M0,0 L16,0 L16,3 L14,3 L14,1 L5,1 L3,11 L1,13 L-5,12 L-5,14 L-7,14 L-7,12 L-9,11 L-7,11 L-7,8 L-10,7 L-10,3 L-6,4 L-5,7 L1,8 L-1,1 Z " fill="#41434B" transform="translate(132,39)"/>
<path d="M0,0 L3,1 L3,3 L6,3 L6,15 L-4,17 L-2,13 L-1,1 Z " fill="#10151A" transform="translate(144,47)"/>
<path d="M0,0 L2,0 L1,6 L0,8 L2,9 L2,12 L-4,12 L-6,11 L-6,9 L-10,8 L-11,3 L-4,2 Z " fill="#2D3836" transform="translate(11,51)"/>
<path d="M0,0 L9,0 L9,8 L4,11 L3,13 L0,12 Z " fill="#3A353A" transform="translate(117,0)"/>
<path d="M0,0 L1,4 L7,4 L8,9 L7,14 L10,15 L8,16 L5,14 L5,8 L-4,8 L-5,17 L-8,16 L-9,10 L-5,9 L-4,6 L-2,5 Z " fill="#423640" transform="translate(53,33)"/>
<path d="M0,0 L4,2 L6,6 L14,8 L18,15 L17,20 L15,17 L14,15 L10,14 L7,8 L2,5 L-4,4 L-3,1 L0,2 Z " fill="#423235" transform="translate(28,45)"/>
<path d="M0,0 L8,0 L8,7 L3,13 L0,12 Z " fill="#645453" transform="translate(47,0)"/>
<path d="M0,0 L2,4 L4,7 L14,8 L14,9 L1,10 L0,11 L-12,11 L-12,10 L-7,10 L-5,4 L-3,2 L0,2 Z " fill="#544950" transform="translate(18,49)"/>
<path d="M0,0 L3,1 L3,3 L5,3 L6,5 L11,5 L11,11 L1,11 L1,4 L-1,4 Z " fill="#0C0F13" transform="translate(139,74)"/>
<path d="M0,0 L1,0 L1,16 L1,20 L0,23 L-9,23 L-9,17 L-2,16 L-1,15 Z " fill="#0F1316" transform="translate(9,0)"/>
<path d="M0,0 L4,2 L3,5 L3,3 L-2,6 L-17,6 L-18,7 L-25,7 L-26,5 L-19,3 L-14,2 L-1,3 Z " fill="#332D34" transform="translate(104,42)"/>
<path d="M0,0 L7,0 L7,9 L6,9 L5,3 L0,3 L0,11 L-2,11 L-4,18 L-8,17 L-5,17 L-4,3 L-3,1 Z " fill="#5F5555" transform="translate(118,51)"/>
<path d="M0,0 L5,0 L6,1 L6,9 L0,11 L-2,15 L-3,11 L-2,9 L0,9 L-1,1 Z " fill="#68625E" transform="translate(118,53)"/>
<path d="M0,0 L5,0 L5,6 L4,7 L-6,7 L-6,2 Z " fill="#5A5763" transform="translate(35,63)"/>
<path d="M0,0 L2,1 L-2,7 L-11,7 L-12,1 Z " fill="#2D212B" transform="translate(119,41)"/>
<path d="M0,0 L1,0 L1,20 L7,20 L8,24 L-10,24 L-10,23 L-1,22 L-2,17 L-1,16 Z " fill="#1A1E1E" transform="translate(10,0)"/>
<path d="M0,0 L5,1 L8,3 L9,10 L6,10 L4,10 L4,7 L0,7 Z " fill="#462D1B" transform="translate(0,40)"/>
<path d="M0,0 L11,0 L10,3 L7,3 L9,7 L8,11 L7,8 L3,6 L0,5 Z " fill="#553B2C" transform="translate(0,35)"/>
<path d="M0,0 L2,0 L2,2 L4,1 L13,1 L12,3 L6,3 L6,5 L-1,5 L-1,7 L-10,7 L-10,5 L-5,5 L0,3 Z " fill="#434857" transform="translate(51,73)"/>
<path d="M0,0 L7,0 L9,1 L9,4 L6,4 L6,2 L3,2 L2,14 L-1,18 L-3,17 L0,12 L1,7 L-1,7 L-1,1 Z " fill="#22242F" transform="translate(141,46)"/>
<path d="M0,0 L6,0 L7,6 L2,6 L2,9 L-2,8 Z " fill="#634535" transform="translate(15,40)"/>
<path d="M0,0 L7,0 L10,2 L9,3 L2,3 L2,5 L-3,6 L-4,3 L-6,3 L-6,1 Z " fill="#45291B" transform="translate(35,19)"/>
<path d="M0,0 L3,1 L2,7 L4,7 L3,14 L-1,14 L-1,10 L-5,9 L-1,8 Z " fill="#363C4A" transform="translate(138,46)"/>
<path d="M0,0 L5,1 L5,5 L9,5 L9,7 L-2,9 L-4,10 L-6,9 L-6,7 L4,7 L4,5 L0,5 Z " fill="#424856" transform="translate(121,67)"/>
<path d="M0,0 L7,0 L6,7 L-1,7 L-1,1 Z " fill="#271B18" transform="translate(78,40)"/>
<path d="M0,0 L16,0 L16,3 L14,3 L14,1 L5,1 L3,9 L0,9 L-1,11 L-1,9 L-3,8 L1,8 L-1,1 Z " fill="#373A49" transform="translate(132,39)"/>
<path d="M0,0 L7,1 L7,4 L5,4 L6,9 L0,6 L-2,2 Z " fill="#4D4045" transform="translate(76,48)"/>
<path d="M0,0 L6,0 L7,7 L6,8 L1,8 L0,7 Z " fill="#413A43" transform="translate(118,0)"/>
<path d="M0,0 L3,0 L4,6 L7,5 L7,9 L-3,11 L-1,7 Z " fill="#181A24" transform="translate(143,53)"/>
<path d="M0,0 L7,2 L8,7 L0,7 L-1,3 Z " fill="#3E2F31" transform="translate(69,51)"/>
<path d="M0,0 L7,2 L11,2 L11,4 L9,4 L8,6 L-1,6 L-2,3 L0,3 Z " fill="#5A616E" transform="translate(31,73)"/>
<path d="M0,0 L10,2 L11,3 L20,4 L20,6 L11,7 L4,6 L4,5 L9,5 L9,3 L0,3 Z " fill="#464B5A" transform="translate(94,68)"/>
<path d="M0,0 L7,0 L7,1 L1,1 L0,5 L-7,6 L-8,8 L-10,8 L-12,3 L0,2 Z " fill="#23242F" transform="translate(130,72)"/>
<path d="M0,0 L2,1 L0,6 L-2,7 L-8,7 L-6,3 L-6,1 Z " fill="#3F424F" transform="translate(139,65)"/>
<path d="M0,0 L4,0 L4,7 L-8,7 L-6,4 L2,4 L2,1 Z " fill="#2F3240" transform="translate(146,38)"/>
<path d="M0,0 L9,0 L9,3 L0,4 L-5,3 L-6,5 L-5,1 Z " fill="#282936" transform="translate(98,80)"/>
<path d="M0,0 L15,0 L15,1 L3,2 L-1,6 L-4,5 L-8,3 L-5,1 L0,2 Z " fill="#515562" transform="translate(67,70)"/>
<path d="M0,0 L2,0 L2,10 L1,12 L-3,12 L-3,10 L-7,12 L-9,15 L-8,10 L-7,9 L0,9 Z " fill="#39323A" transform="translate(44,0)"/>
<path d="M0,0 L3,0 L3,14 L0,14 Z " fill="#423231" transform="translate(23,0)"/>
<path d="M0,0 L8,3 L7,7 L0,6 L0,4 L-5,4 L-5,3 L0,3 Z " fill="#6A6166" transform="translate(56,49)"/>
<path d="M0,0 L7,1 L7,4 L5,6 L0,6 Z " fill="#767B88" transform="translate(126,66)"/>
<path d="M0,0 L2,0 L3,16 L1,18 L0,17 Z " fill="#272A2C" transform="translate(113,0)"/>
<path d="M0,0 L5,2 L5,4 L3,5 L-6,5 L-5,2 Z " fill="#251F30" transform="translate(53,80)"/>
<path d="M0,0 L6,1 L11,4 L10,7 L4,5 L2,4 L2,2 L0,2 Z " fill="#7C635B" transform="translate(18,47)"/>
<path d="M0,0 L6,0 L6,4 L1,6 L-2,3 L-2,1 Z " fill="#472A19" transform="translate(29,38)"/>
<path d="M0,0 L6,0 L6,3 L8,4 L8,6 L6,6 L5,8 L-3,8 L-2,6 L3,4 Z " fill="#573A29" transform="translate(30,31)"/>
<path d="M0,0 L15,0 L14,2 L12,2 L11,5 L11,3 L5,3 L0,2 Z " fill="#1B1D29" transform="translate(107,80)"/>
<path d="M0,0 L3,0 L4,2 L8,3 L8,6 L0,6 L-1,4 Z " fill="#2F2A2F" transform="translate(45,54)"/>
<path d="M0,0 L1,0 L3,7 L-4,8 L-7,7 L-8,9 L-8,6 L-3,6 L-3,2 Z " fill="#6D5246" transform="translate(25,40)"/>
<path d="M0,0 L3,0 L4,2 L13,2 L14,4 L4,5 L1,3 L1,6 L-1,6 Z " fill="#464F5C" transform="translate(30,70)"/>
<path d="M0,0 L4,2 L6,4 L6,7 L2,5 L-4,4 L-3,1 L0,2 Z " fill="#533F39" transform="translate(28,45)"/>
<path d="M0,0 L3,0 L5,6 L-1,7 L-2,2 Z " fill="#524749" transform="translate(38,10)"/>
<path d="M0,0 L4,0 L3,7 L2,3 L-9,5 L-7,2 Z " fill="#594D56" transform="translate(38,60)"/>
<path d="M0,0 L1,0 L2,8 L-4,9 L-6,7 L-3,7 L-2,2 Z " fill="#39414F" transform="translate(131,56)"/>
<path d="M0,0 L8,0 L13,5 L1,3 Z " fill="#494752" transform="translate(48,54)"/>
<path d="M0,0 L4,1 L1,1 L2,5 L4,6 L4,8 L-4,7 L-1,1 Z " fill="#43302F" transform="translate(121,41)"/>
<path d="M0,0 L15,0 L15,1 L4,2 L5,7 L0,4 Z " fill="#2B303E" transform="translate(128,38)"/>
<path d="M0,0 L3,0 L5,2 L7,2 L7,5 L-2,5 Z " fill="#2F3341" transform="translate(81,80)"/>
<path d="M0,0 L9,0 L9,4 L3,4 L0,2 Z " fill="#585E6C" transform="translate(57,76)"/>
<path d="M0,0 L5,1 L7,6 L5,6 L5,4 L3,4 L4,7 L2,8 L2,2 L-2,2 L-3,4 L-3,1 Z " fill="#4F5664" transform="translate(48,69)"/>
<path d="M0,0 L8,1 L9,5 L5,6 L5,4 L0,4 Z " fill="#896A59" transform="translate(16,36)"/>
<path d="M0,0 L8,0 L7,4 L0,4 Z " fill="#100405" transform="translate(19,15)"/>
<path d="M0,0 L4,1 L5,4 L9,7 L3,7 L3,5 L0,4 Z " fill="#493E40" transform="translate(122,42)"/>
<path d="M0,0 L5,2 L6,7 L3,7 L1,7 Z " fill="#382918" transform="translate(3,43)"/>
<path d="M0,0 L1,0 L1,8 L-3,7 L-5,5 Z " fill="#32333D" transform="translate(149,25)"/>
<path d="M0,0 L5,1 L5,6 L0,5 L-1,3 Z " fill="#32252D" transform="translate(145,32)"/>
<path d="M0,0 L3,0 L3,9 L0,9 Z " fill="#211D24" transform="translate(41,0)"/>
<path d="M0,0 L5,1 L4,8 L0,9 L2,3 Z " fill="#574746" transform="translate(63,49)"/>
<path d="M0,0 L7,0 L7,4 L-1,4 Z " fill="#615860" transform="translate(49,50)"/>
<path d="M0,0 L2,0 L5,5 L7,7 L0,7 Z " fill="#3D423B" transform="translate(0,47)"/>
<path d="M0,0 L5,1 L4,5 L-1,5 Z " fill="#492F1E" transform="translate(15,40)"/>
<path d="M0,0 L1,0 L1,10 L-3,10 L-3,5 L-1,4 Z " fill="#5A3E30" transform="translate(20,25)"/>
<path d="M0,0 L5,0 L3,2 L-2,3 L-3,6 L-6,5 L-4,4 L-6,2 Z " fill="#303040" transform="translate(50,79)"/>
<path d="M0,0 L5,2 L6,6 L0,6 Z " fill="#4C515E" transform="translate(0,58)"/>
<path d="M0,0 L1,0 L1,7 L0,10 L-2,10 L-2,1 Z " fill="#7D604F" transform="translate(12,39)"/>
<path d="M0,0 L4,2 L1,5 L0,3 L-8,3 L-8,1 L-1,1 Z " fill="#3B3947" transform="translate(43,80)"/>
<path d="M0,0 L4,1 L3,8 L0,7 L-1,1 Z " fill="#4D3E41" transform="translate(45,42)"/>
<path d="M0,0 L6,2 L6,3 L-5,3 L-5,1 Z " fill="#4E5563" transform="translate(68,82)"/>
<path d="M0,0 L1,0 L1,5 L5,7 L4,10 L1,9 L2,6 L0,6 L-2,1 Z " fill="#433335" transform="translate(44,44)"/>
<path d="M0,0 L5,0 L3,5 L-1,5 Z " fill="#424552" transform="translate(89,80)"/>
<path d="M0,0 L8,0 L9,2 L0,3 Z " fill="#69707F" transform="translate(54,71)"/>
<path d="M0,0 L1,2 L4,3 L3,6 L-2,5 Z " fill="#747076" transform="translate(119,61)"/>
<path d="M0,0 L3,1 L3,3 L5,3 L9,7 L8,9 L4,8 Z " fill="#4A3B3D" transform="translate(34,51)"/>
<path d="M0,0 L2,0 L1,6 L-2,6 L-2,2 Z " fill="#23191C" transform="translate(11,51)"/>
<path d="M0,0 L6,0 L5,4 L0,3 Z " fill="#7A707B" transform="translate(49,43)"/>
<path d="M0,0 L5,1 L5,4 L-1,4 Z " fill="#1D130D" transform="translate(79,42)"/>
<path d="M0,0 L2,1 L0,5 L-1,11 L-3,7 L-4,3 L-1,2 Z " fill="#664737" transform="translate(11,35)"/>
<path d="M0,0 L7,2 L7,4 L1,5 L3,4 L3,2 L0,1 Z M7,1 L11,2 Z " fill="#333446" transform="translate(55,80)"/>
<path d="M0,0 L6,0 L6,3 L1,4 L-1,1 Z " fill="#656977" transform="translate(32,65)"/>
<path d="M0,0 L2,2 L1,8 L0,10 L-3,9 Z " fill="#464652" transform="translate(42,60)"/>
<path d="M0,0 L3,0 L3,2 L5,3 L4,5 L0,4 L-2,2 Z " fill="#5A4C4B" transform="translate(76,48)"/>
<path d="M0,0 L7,0 L7,3 L1,3 Z " fill="#696F7F" transform="translate(97,74)"/>
<path d="M0,0 L7,0 L7,3 L1,3 Z " fill="#6B7180" transform="translate(106,75)"/>
<path d="M0,0 L7,0 L7,3 L1,3 Z " fill="#282B38" transform="translate(6,60)"/>
<path d="M0,0 L3,1 L0,9 L-3,8 L-3,5 L-1,4 Z " fill="#3A3432" transform="translate(20,20)"/>
<path d="M0,0 L4,0 L4,5 L0,5 Z " fill="#83675B" transform="translate(24,20)"/>
<path d="M0,0 L1,0 L2,10 L4,12 L0,12 Z M5,9 Z M4,10 Z " fill="#5A4A4F" transform="translate(47,0)"/>
<path d="M0,0 L5,1 L5,3 L-2,3 L-5,1 Z " fill="#616977" transform="translate(120,71)"/>
<path d="M0,0 L6,1 L6,2 L1,2 L0,5 L0,3 L-4,2 Z " fill="#383F46" transform="translate(5,57)"/>
<path d="M0,0 L4,0 L3,5 L0,4 Z " fill="#746866" transform="translate(119,54)"/>
<path d="M0,0 L7,0 L7,9 L6,9 L4,2 Z " fill="#595353" transform="translate(118,51)"/>
<path d="M0,0 L5,1 L2,3 L2,11 L0,10 Z " fill="#694834" transform="translate(26,35)"/>
<path d="M0,0 L3,0 L3,5 L-2,5 Z " fill="#5C5046" transform="translate(14,30)"/>
<path d="M0,0 L4,0 L3,5 L0,4 Z " fill="#5B626E" transform="translate(46,71)"/>
<path d="M0,0 L4,1 L3,5 L-1,4 Z " fill="#575B64" transform="translate(117,66)"/>
<path d="M0,0 L2,0 L2,6 L-1,5 L-2,1 Z " fill="#494345" transform="translate(111,59)"/>
<path d="M0,0 L4,1 L4,4 L-1,4 Z " fill="#82665B" transform="translate(23,27)"/>
<path d="M0,0 L3,3 L3,6 L0,6 L-1,9 Z " fill="#55372A" transform="translate(30,22)"/>
<path d="M0,0 L1,2 L9,0 L9,3 L0,3 Z " fill="#53403E" transform="translate(36,15)"/>
<path d="M0,0 L3,0 L2,7 L0,8 Z " fill="#1A222D" transform="translate(147,69)"/>
<path d="M0,0 L7,3 L7,4 L-3,4 Z " fill="#434B59" transform="translate(49,66)"/>
<path d="M0,0 L4,0 L4,4 L0,4 Z " fill="#232B37" transform="translate(121,67)"/>
<path d="M0,0 L6,0 L8,3 L1,3 Z " fill="#414148" transform="translate(48,54)"/>
<path d="M0,0 L3,3 L3,5 L-5,4 L-5,3 L0,3 Z " fill="#7D7178" transform="translate(56,49)"/>
<path d="M0,0 L4,2 L4,4 L-1,4 Z " fill="#242530" transform="translate(129,43)"/>
<path d="M0,0 L3,1 L1,5 L-2,5 Z " fill="#393B4A" transform="translate(81,80)"/>
<path d="M0,0 L4,0 L4,3 L-1,3 Z " fill="#747987" transform="translate(62,76)"/>
<path d="M0,0 L2,1 L1,6 L-2,6 Z " fill="#47383A" transform="translate(67,54)"/>
<path d="M0,0 L2,0 L3,6 L1,6 L1,4 L-1,4 Z " fill="#5E515A" transform="translate(15,52)"/>
<path d="M0,0 L5,1 L0,5 Z " fill="#51423C" transform="translate(73,46)"/>
<path d="M0,0 L2,1 L0,5 L0,2 L-6,2 L-6,1 Z " fill="#3C3C49" transform="translate(139,65)"/>
<path d="M0,0 L5,1 L4,5 L4,3 L0,1 Z " fill="#54423C" transform="translate(63,49)"/>
<path d="M0,0 L1,0 L1,5 L-3,4 Z " fill="#3D3641" transform="translate(149,28)"/>
<path d="M0,0 L8,0 L6,4 L5,2 L0,1 Z " fill="#1A0A08" transform="translate(19,15)"/>
<path d="M0,0 L4,0 L4,3 L0,3 Z " fill="#515765" transform="translate(116,77)"/>
<path d="M0,0 L5,0 L5,2 L0,4 Z " fill="#595D6B" transform="translate(45,75)"/>
<path d="M0,0 L3,0 L3,4 L-1,3 Z " fill="#595C69" transform="translate(133,67)"/>
<path d="M0,0 L3,0 L2,4 L-1,3 Z " fill="#9A9EAB" transform="translate(128,67)"/>
<path d="M0,0 L1,4 L0,6 L-3,5 Z " fill="#52434A" transform="translate(14,52)"/>
<path d="M0,0 L4,1 L4,4 L0,3 Z M4,0 Z " fill="#5D453B" transform="translate(24,46)"/>
<path d="M0,0 L5,1 L5,3 L0,3 Z " fill="#5A616E" transform="translate(30,67)"/>
<path d="M0,0 L5,0 L5,3 L2,3 L2,1 Z " fill="#1E212F" transform="translate(145,47)"/>
<path d="M0,0 L2,4 L-1,5 Z " fill="#9B7964" transform="translate(23,37)"/>
<path d="M0,0 L4,1 L4,3 L-1,2 Z " fill="#341E2A" transform="translate(146,35)"/>
<path d="M0,0 L4,0 L3,3 L0,3 Z " fill="#5A5258" transform="translate(38,12)"/>
<path d="M0,0 L3,1 L3,3 L-1,3 Z " fill="#666C79" transform="translate(32,76)"/>
<path d="M0,0 L3,0 L2,5 L0,2 Z " fill="#413842" transform="translate(43,60)"/>
<path d="M0,0 L1,4 L-2,4 L-2,1 Z " fill="#7A5E51" transform="translate(24,41)"/>
<path d="M0,0 L4,0 L2,4 Z " fill="#3B4252" transform="translate(133,40)"/>
<path d="M0,0 L5,0 L2,3 L0,2 Z " fill="#4D2E22" transform="translate(29,20)"/>
<path d="M0,0 L4,0 L2,4 Z " fill="#2F3745" transform="translate(118,75)"/>
<path d="M0,0 L3,1 L1,3 L-2,2 Z " fill="#272528" transform="translate(125,38)"/>
<path d="M0,0 L3,1 L3,3 L0,3 Z " fill="#686D7C" transform="translate(46,72)"/>
<path d="M0,0 L3,0 L3,3 L0,2 Z " fill="#422833" transform="translate(147,33)"/>
<path d="M0,0 L2,0 L2,3 L-1,3 Z " fill="#212326" transform="translate(9,16)"/>
<path d="M0,0 L3,1 L2,3 L0,3 Z " fill="#818491" transform="translate(131,67)"/>
</svg>
