<?xml version="1.0" encoding="UTF-8"?>
<svg xmlns="http://www.w3.org/2000/svg" viewBox="0 0 480 480" width="60" height="60">
  <style>rect{shape-rendering:crispEdges}</style>
  <rect fill="#d83839" x="190" y="220" width="10" height="10"/>
  <rect fill="#eb353e" x="280" y="220" width="10" height="10"/>
  <rect fill="#fdfeff" x="220" y="230" width="10" height="10"/>
  <rect fill="#f0ecf0" x="250" y="230" width="10" height="10"/>
  <rect fill="#37909a" x="220" y="240" width="10" height="10"/>
  <rect fill="#3895a2" x="230" y="240" width="10" height="10"/>
  <rect fill="#3a97a2" x="240" y="240" width="10" height="10"/>
  <rect fill="#3c929f" x="250" y="240" width="10" height="10"/>
  <rect fill="#3396a4" x="280" y="240" width="10" height="10"/>
  <rect fill="#209596" x="200" y="250" width="10" height="10"/>
  <rect fill="#25bac1" x="210" y="250" width="10" height="10"/>
  <g fill="#28b5c7">
    <rect x="220" y="250" width="10" height="10"/>
    <rect x="250" y="250" width="10" height="10"/>
  </g>
  <rect fill="#2ab6c9" x="230" y="250" width="10" height="10"/>
  <rect fill="#28b5c6" x="240" y="250" width="10" height="10"/>
  <rect fill="#29acc5" x="260" y="250" width="10" height="10"/>
  <rect fill="#148e8e" x="270" y="250" width="10" height="10"/>
  <rect fill="#38a1cd" x="190" y="260" width="10" height="10"/>
  <rect fill="#5397bb" x="200" y="260" width="10" height="10"/>
  <rect fill="#27b6c6" x="210" y="260" width="10" height="10"/>
  <g fill="#2ab4c9">
    <rect x="220" y="260" width="10" height="10"/>
    <rect x="230" y="270" width="10" height="10"/>
  </g>
  <rect fill="#29b2c8" x="230" y="260" width="20" height="10"/>
  <rect fill="#28b5c5" x="250" y="260" width="10" height="10"/>
  <rect fill="#2cb3c6" x="260" y="260" width="10" height="10"/>
  <rect fill="#4492b6" x="270" y="260" width="10" height="10"/>
  <rect fill="#28a1d3" x="280" y="260" width="10" height="10"/>
  <rect fill="#219a9f" x="190" y="270" width="10" height="10"/>
  <rect fill="#2cbbc8" x="210" y="270" width="10" height="10"/>
  <rect fill="#2bb5c9" x="220" y="270" width="10" height="10"/>
  <rect fill="#2ab4c7" x="240" y="270" width="10" height="10"/>
  <rect fill="#2ab6cb" x="250" y="270" width="10" height="10"/>
  <rect fill="#30b9c9" x="260" y="270" width="10" height="10"/>
  <rect fill="#349f9f" x="280" y="270" width="10" height="10"/>
  <rect fill="#1181a2" x="190" y="280" width="10" height="10"/>
  <rect fill="#1e8484" x="200" y="280" width="10" height="10"/>
</svg>
