<?xml version="1.0" encoding="UTF-8"?>
<!-- Generator: visioncortex VTracer 0.6.5 -->
<svg version="1.1" xmlns="http://www.w3.org/2000/svg" width="100" height="100">
<path d="M0,0 L27,0 L27,13 L31,13 L31,43 L34,43 L34,46 L36,46 L36,56 L33,60 L28,60 L27,67 L30,67 L30,74 L14,74 L14,66 L10,66 L8,69 L6,71 L9,71 L9,74 L-4,75 L-6,76 L-6,62 L-10,61 L-10,59 L-13,58 L-13,44 L-10,43 L-10,38 L-6,37 L-6,32 L-3,31 L-4,29 L-3,20 L-6,20 L-6,14 L-1,13 L-1,7 L-4,6 L-1,6 L-1,1 Z M29,21 L29,34 L30,34 L30,21 Z " fill="#000017" transform="translate(38,15)"/>
<path d="M0,0 L6,0 L8,5 L7,18 L6,18 L6,10 L4,10 L3,18 L-2,18 L-2,13 L3,13 L3,9 L-1,9 L-1,7 L-4,6 L-1,6 L-1,1 Z " fill="#120127" transform="translate(59,37)"/>
<path d="M0,0 L3,0 L3,2 L7,2 L7,6 L2,6 L2,11 L7,11 L8,3 L10,3 L10,12 L8,12 L8,14 L1,14 L-2,12 L-2,5 L0,5 Z " fill="#130F33" transform="translate(55,44)"/>
<path d="M0,0 L19,0 L18,5 L1,5 Z " fill="#22001C" transform="translate(43,24)"/>
<path d="M0,0 L9,0 L9,7 L6,7 L6,9 L4,9 L4,7 L0,7 Z " fill="#620062" transform="translate(44,37)"/>
<path d="M0,0 L1,0 L1,6 L4,6 L5,10 L9,10 L9,14 L4,14 L4,10 L1,10 L1,7 L-2,7 L-1,1 Z " fill="#18001A" transform="translate(40,45)"/>
<path d="M0,0 L6,0 L6,5 L0,5 Z " fill="#D305B4" transform="translate(47,38)"/>
<path d="M0,0 L5,1 L5,6 L0,6 Z " fill="#A80095" transform="translate(59,37)"/>
<path d="M0,0 L1,2 L0,6 L-5,6 L-5,1 Z " fill="#000017" transform="translate(62,49)"/>
<path d="M0,0 L2,0 L2,2 L6,2 L6,5 L0,5 Z " fill="#18143A" transform="translate(56,44)"/>
<path d="M0,0 L3,0 L3,5 L0,5 Z " fill="#E309C1" transform="translate(47,38)"/>
<path d="M0,0 L3,0 L3,3 L0,3 Z " fill="#E908C6" transform="translate(60,38)"/>
<path d="M0,0 L1,0 L1,5 L0,5 Z " fill="#000014" transform="translate(68,76)"/>
</svg>
