<?xml version="1.0" encoding="UTF-8"?>
<svg xmlns="http://www.w3.org/2000/svg" viewBox="0 0 320 320" width="30" height="30">
  <style>rect{shape-rendering:crispEdges}</style>
  <g fill="#730700">
    <rect x="240" y="30" width="30" height="10"/>
    <rect x="210" y="40" width="10" height="10"/>
    <rect x="200" y="60" width="10" height="10"/>
    <rect x="160" y="100" width="10" height="10"/>
    <rect x="120" y="140" width="10" height="10"/>
  </g>
  <rect fill="#78140a" x="270" y="30" width="10" height="10"/>
  <g fill="#710d04">
    <rect x="220" y="40" width="10" height="10"/>
    <rect x="280" y="40" width="10" height="10"/>
    <rect x="170" y="80" width="10" height="10"/>
    <rect x="130" y="120" width="10" height="10"/>
    <rect x="90" y="160" width="10" height="10"/>
  </g>
  <g fill="#8a2412">
    <rect x="230" y="40" width="10" height="10"/>
    <rect x="230" y="70" width="10" height="10"/>
    <rect x="300" y="70" width="10" height="10"/>
    <rect x="260" y="80" width="20" height="10"/>
    <rect x="150" y="110" width="10" height="10"/>
    <rect x="190" y="110" width="10" height="10"/>
    <rect x="270" y="110" width="10" height="10"/>
    <rect x="110" y="150" width="10" height="10"/>
    <rect x="150" y="150" width="10" height="10"/>
  </g>
  <g fill="#f79a55">
    <rect x="240" y="40" width="30" height="10"/>
    <rect x="210" y="60" width="10" height="10"/>
    <rect x="200" y="70" width="10" height="10"/>
    <rect x="290" y="70" width="10" height="10"/>
    <rect x="170" y="100" width="10" height="10"/>
    <rect x="160" y="110" width="10" height="10"/>
    <rect x="130" y="140" width="10" height="10"/>
    <rect x="120" y="150" width="10" height="10"/>
  </g>
  <rect fill="#d87942" x="270" y="40" width="10" height="10"/>
  <g fill="#630400">
    <rect x="200" y="50" width="10" height="10"/>
    <rect x="180" y="70" width="10" height="10"/>
    <rect x="160" y="90" width="10" height="10"/>
    <rect x="140" y="110" width="10" height="10"/>
    <rect x="120" y="130" width="10" height="10"/>
    <rect x="100" y="150" width="10" height="10"/>
  </g>
  <g fill="#b9532b">
    <rect x="210" y="50" width="10" height="10"/>
    <rect x="280" y="50" width="10" height="10"/>
    <rect x="170" y="90" width="10" height="10"/>
    <rect x="130" y="130" width="10" height="10"/>
    <rect x="100" y="160" width="10" height="10"/>
  </g>
  <g fill="#b54519">
    <rect x="220" y="50" width="20" height="10"/>
    <rect x="260" y="100" width="10" height="10"/>
    <rect x="180" y="110" width="10" height="10"/>
    <rect x="140" y="150" width="10" height="10"/>
  </g>
  <rect fill="#c6572d" x="240" y="50" width="40" height="10"/>
  <g fill="#120a10">
    <rect x="290" y="50" width="10" height="10"/>
    <rect x="80" y="170" width="10" height="10"/>
    <rect x="30" y="210" width="20" height="10"/>
    <rect x="20" y="220" width="10" height="10"/>
  </g>
  <g fill="#ea7732">
    <rect x="220" y="60" width="10" height="10"/>
    <rect x="280" y="60" width="10" height="10"/>
    <rect x="180" y="90" width="20" height="10"/>
    <rect x="290" y="90" width="10" height="10"/>
    <rect x="180" y="100" width="10" height="10"/>
    <rect x="140" y="130" width="20" height="10"/>
    <rect x="140" y="140" width="10" height="10"/>
  </g>
  <g fill="#ce531e">
    <rect x="230" y="60" width="10" height="10"/>
    <rect x="200" y="90" width="10" height="10"/>
    <rect x="190" y="100" width="10" height="10"/>
    <rect x="270" y="100" width="10" height="10"/>
    <rect x="160" y="130" width="10" height="10"/>
    <rect x="150" y="140" width="10" height="10"/>
    <rect x="120" y="170" width="10" height="10"/>
  </g>
  <g fill="#972a15">
    <rect x="240" y="60" width="30" height="10"/>
    <rect x="190" y="70" width="10" height="10"/>
    <rect x="200" y="100" width="10" height="10"/>
  </g>
  <g fill="#ac3919">
    <rect x="270" y="60" width="10" height="10"/>
    <rect x="220" y="70" width="10" height="10"/>
    <rect x="270" y="90" width="10" height="10"/>
  </g>
  <g fill="#590804">
    <rect x="290" y="60" width="10" height="10"/>
    <rect x="270" y="70" width="10" height="10"/>
    <rect x="220" y="80" width="10" height="10"/>
    <rect x="280" y="80" width="10" height="10"/>
    <rect x="280" y="90" width="10" height="10"/>
    <rect x="280" y="100" width="10" height="10"/>
  </g>
  <g fill="#e86b22">
    <rect x="210" y="70" width="10" height="10"/>
    <rect x="200" y="80" width="10" height="10"/>
    <rect x="290" y="100" width="10" height="10"/>
    <rect x="170" y="110" width="10" height="10"/>
    <rect x="160" y="120" width="10" height="10"/>
    <rect x="130" y="150" width="10" height="10"/>
    <rect x="120" y="160" width="10" height="10"/>
  </g>
  <g fill="#3b0000">
    <rect x="240" y="70" width="30" height="10"/>
    <rect x="250" y="80" width="10" height="10"/>
    <rect x="250" y="90" width="10" height="10"/>
    <rect x="210" y="100" width="10" height="10"/>
    <rect x="250" y="100" width="10" height="10"/>
    <rect x="200" y="110" width="10" height="10"/>
    <rect x="280" y="110" width="10" height="10"/>
    <rect x="170" y="140" width="10" height="10"/>
    <rect x="160" y="150" width="10" height="10"/>
    <rect x="130" y="180" width="10" height="10"/>
    <rect x="120" y="190" width="10" height="10"/>
  </g>
  <g fill="#a32c18">
    <rect x="280" y="70" width="10" height="10"/>
    <rect x="210" y="80" width="10" height="10"/>
    <rect x="290" y="110" width="10" height="10"/>
    <rect x="170" y="120" width="10" height="10"/>
    <rect x="160" y="140" width="10" height="10"/>
    <rect x="130" y="160" width="10" height="10"/>
    <rect x="120" y="180" width="10" height="10"/>
  </g>
  <g fill="#350c0f">
    <rect x="310" y="70" width="10" height="10"/>
    <rect x="310" y="80" width="10" height="10"/>
    <rect x="310" y="90" width="10" height="10"/>
    <rect x="310" y="100" width="10" height="10"/>
  </g>
  <g fill="#d06d39">
    <rect x="180" y="80" width="10" height="10"/>
    <rect x="140" y="120" width="10" height="10"/>
    <rect x="110" y="170" width="10" height="10"/>
  </g>
  <g fill="#f08e4b">
    <rect x="190" y="80" width="10" height="10"/>
    <rect x="150" y="120" width="10" height="10"/>
    <rect x="110" y="160" width="10" height="10"/>
  </g>
  <g fill="#340403">
    <rect x="230" y="80" width="10" height="10"/>
    <rect x="220" y="90" width="10" height="10"/>
    <rect x="190" y="120" width="10" height="10"/>
    <rect x="180" y="130" width="10" height="10"/>
    <rect x="150" y="160" width="10" height="10"/>
    <rect x="140" y="170" width="10" height="10"/>
  </g>
  <g fill="#030003">
    <rect x="240" y="80" width="10" height="10"/>
    <rect x="210" y="110" width="10" height="10"/>
    <rect x="250" y="110" width="10" height="10"/>
    <rect x="200" y="120" width="10" height="10"/>
    <rect x="280" y="120" width="10" height="10"/>
    <rect x="170" y="150" width="10" height="10"/>
    <rect x="160" y="160" width="10" height="10"/>
    <rect x="130" y="190" width="10" height="10"/>
    <rect x="120" y="200" width="10" height="10"/>
    <rect x="90" y="230" width="10" height="10"/>
    <rect x="80" y="240" width="10" height="10"/>
    <rect x="0" y="260" width="10" height="10"/>
    <rect x="10" y="270" width="50" height="10"/>
  </g>
  <rect fill="#f1833b" x="290" y="80" width="10" height="10"/>
  <g fill="#68160b">
    <rect x="300" y="80" width="10" height="10"/>
    <rect x="210" y="90" width="10" height="10"/>
    <rect x="300" y="90" width="10" height="10"/>
    <rect x="300" y="100" width="10" height="10"/>
    <rect x="260" y="110" width="10" height="10"/>
    <rect x="180" y="120" width="10" height="10"/>
    <rect x="170" y="130" width="10" height="10"/>
    <rect x="140" y="160" width="10" height="10"/>
    <rect x="130" y="170" width="10" height="10"/>
  </g>
  <g fill="#050003">
    <rect x="230" y="90" width="10" height="10"/>
    <rect x="230" y="100" width="10" height="10"/>
    <rect x="310" y="110" width="10" height="10"/>
    <rect x="190" y="130" width="10" height="10"/>
    <rect x="190" y="140" width="10" height="10"/>
    <rect x="150" y="180" width="10" height="10"/>
    <rect x="110" y="220" width="10" height="10"/>
    <rect x="70" y="260" width="10" height="10"/>
  </g>
  <rect fill="#9a351b" x="260" y="90" width="10" height="10"/>
  <g fill="#160002">
    <rect x="220" y="100" width="10" height="10"/>
    <rect x="180" y="140" width="10" height="10"/>
    <rect x="150" y="170" width="10" height="10"/>
    <rect x="140" y="180" width="10" height="10"/>
  </g>
  <rect fill="#290507" x="300" y="110" width="10" height="10"/>
  <g fill="#1c0f15">
    <rect x="260" y="120" width="10" height="10"/>
    <rect x="60" y="190" width="10" height="10"/>
  </g>
  <g fill="#0b0508">
    <rect x="270" y="120" width="10" height="10"/>
    <rect x="290" y="120" width="10" height="10"/>
    <rect x="100" y="220" width="10" height="10"/>
    <rect x="0" y="250" width="10" height="10"/>
    <rect x="60" y="260" width="10" height="10"/>
  </g>
  <g fill="#8d6d6e">
    <rect x="90" y="170" width="20" height="10"/>
    <rect x="40" y="230" width="10" height="10"/>
    <rect x="20" y="240" width="10" height="10"/>
    <rect x="10" y="250" width="10" height="10"/>
  </g>
  <g fill="#221922">
    <rect x="80" y="180" width="10" height="10"/>
    <rect x="110" y="200" width="10" height="10"/>
    <rect x="100" y="210" width="10" height="10"/>
    <rect x="30" y="220" width="20" height="10"/>
    <rect x="90" y="220" width="10" height="10"/>
    <rect x="0" y="230" width="20" height="10"/>
    <rect x="80" y="230" width="10" height="10"/>
    <rect x="0" y="240" width="10" height="10"/>
    <rect x="70" y="240" width="10" height="10"/>
    <rect x="60" y="250" width="10" height="10"/>
    <rect x="50" y="260" width="10" height="10"/>
  </g>
  <g fill="#94858e">
    <rect x="90" y="180" width="10" height="10"/>
    <rect x="80" y="190" width="10" height="10"/>
    <rect x="50" y="220" width="10" height="10"/>
  </g>
  <g fill="#7b6a75">
    <rect x="100" y="180" width="10" height="10"/>
    <rect x="70" y="210" width="10" height="10"/>
    <rect x="60" y="220" width="10" height="10"/>
    <rect x="30" y="240" width="10" height="10"/>
  </g>
  <g fill="#69545d">
    <rect x="110" y="180" width="10" height="10"/>
    <rect x="60" y="200" width="10" height="10"/>
    <rect x="50" y="210" width="10" height="10"/>
    <rect x="30" y="250" width="10" height="10"/>
  </g>
  <g fill="#352b33">
    <rect x="70" y="190" width="10" height="10"/>
    <rect x="100" y="200" width="10" height="10"/>
    <rect x="90" y="210" width="10" height="10"/>
    <rect x="20" y="230" width="10" height="10"/>
    <rect x="60" y="240" width="10" height="10"/>
    <rect x="40" y="250" width="20" height="10"/>
    <rect x="40" y="260" width="10" height="10"/>
  </g>
  <g fill="#72616d">
    <rect x="90" y="190" width="10" height="10"/>
    <rect x="80" y="200" width="10" height="10"/>
    <rect x="60" y="210" width="10" height="10"/>
    <rect x="50" y="230" width="10" height="10"/>
    <rect x="20" y="250" width="10" height="10"/>
    <rect x="10" y="260" width="10" height="10"/>
  </g>
  <g fill="#564953">
    <rect x="100" y="190" width="10" height="10"/>
    <rect x="80" y="210" width="10" height="10"/>
    <rect x="30" y="230" width="10" height="10"/>
    <rect x="60" y="230" width="10" height="10"/>
    <rect x="20" y="260" width="10" height="10"/>
  </g>
  <g fill="#483c46">
    <rect x="110" y="190" width="10" height="10"/>
    <rect x="90" y="200" width="10" height="10"/>
    <rect x="80" y="220" width="10" height="10"/>
    <rect x="70" y="230" width="10" height="10"/>
    <rect x="40" y="240" width="20" height="10"/>
    <rect x="30" y="260" width="10" height="10"/>
  </g>
  <rect fill="#251b25" x="50" y="200" width="10" height="10"/>
  <g fill="#8b7c86">
    <rect x="70" y="200" width="10" height="10"/>
    <rect x="10" y="240" width="10" height="10"/>
  </g>
  <g fill="#180f13">
    <rect x="110" y="210" width="10" height="10"/>
    <rect x="70" y="250" width="10" height="10"/>
  </g>
  <rect fill="#6a5a65" x="70" y="220" width="10" height="10"/>
</svg>
