<?xml version="1.0" encoding="UTF-8"?>
<svg xmlns="http://www.w3.org/2000/svg" viewBox="0 0 320 320" width="30" height="30">
  <style>rect{shape-rendering:crispEdges}</style>
  <g fill="#cbd7fe">
    <rect x="90" y="0" width="10" height="10"/>
    <rect x="0" y="130" width="10" height="10"/>
    <rect x="30" y="130" width="10" height="10"/>
    <rect x="190" y="200" width="10" height="10"/>
    <rect x="220" y="200" width="10" height="10"/>
    <rect x="260" y="220" width="10" height="10"/>
  </g>
  <g fill="#b1c1ef">
    <rect x="40" y="10" width="10" height="10"/>
    <rect x="50" y="20" width="10" height="10"/>
    <rect x="10" y="170" width="10" height="10"/>
    <rect x="20" y="180" width="10" height="10"/>
    <rect x="70" y="180" width="40" height="10"/>
    <rect x="120" y="180" width="10" height="10"/>
    <rect x="180" y="180" width="20" height="10"/>
    <rect x="270" y="200" width="10" height="10"/>
  </g>
  <g fill="#afc1f2">
    <rect x="50" y="10" width="10" height="10"/>
    <rect x="10" y="180" width="10" height="10"/>
    <rect x="210" y="200" width="10" height="10"/>
    <rect x="230" y="210" width="10" height="10"/>
    <rect x="260" y="210" width="10" height="10"/>
    <rect x="210" y="260" width="10" height="10"/>
  </g>
  <g fill="#2e1c28">
    <rect x="70" y="10" width="10" height="10"/>
    <rect x="100" y="10" width="10" height="10"/>
    <rect x="50" y="80" width="10" height="10"/>
    <rect x="130" y="80" width="10" height="10"/>
    <rect x="280" y="240" width="10" height="10"/>
    <rect x="210" y="270" width="10" height="10"/>
    <rect x="310" y="270" width="10" height="10"/>
    <rect x="310" y="310" width="10" height="10"/>
  </g>
  <rect fill="#434d8c" x="80" y="10" width="10" height="10"/>
  <g fill="#99b2f3">
    <rect x="90" y="10" width="10" height="10"/>
    <rect x="110" y="30" width="10" height="10"/>
    <rect x="130" y="60" width="10" height="10"/>
    <rect x="90" y="110" width="10" height="10"/>
    <rect x="230" y="220" width="10" height="10"/>
    <rect x="230" y="250" width="10" height="10"/>
    <rect x="220" y="260" width="10" height="10"/>
    <rect x="300" y="290" width="10" height="10"/>
  </g>
  <g fill="#f1f5fe">
    <rect x="130" y="10" width="10" height="10"/>
    <rect x="10" y="100" width="10" height="10"/>
    <rect x="0" y="110" width="10" height="10"/>
    <rect x="30" y="110" width="10" height="10"/>
  </g>
  <g fill="#a2b3e9">
    <rect x="40" y="20" width="10" height="10"/>
    <rect x="120" y="30" width="10" height="10"/>
    <rect x="90" y="120" width="10" height="10"/>
    <rect x="20" y="170" width="10" height="10"/>
    <rect x="70" y="170" width="30" height="10"/>
    <rect x="170" y="170" width="20" height="10"/>
    <rect x="110" y="180" width="10" height="10"/>
    <rect x="170" y="200" width="10" height="10"/>
    <rect x="280" y="200" width="10" height="10"/>
    <rect x="260" y="250" width="10" height="10"/>
  </g>
  <g fill="#242a3c">
    <rect x="70" y="20" width="10" height="10"/>
    <rect x="90" y="40" width="10" height="10"/>
    <rect x="50" y="70" width="10" height="10"/>
    <rect x="80" y="70" width="10" height="10"/>
    <rect x="90" y="80" width="10" height="10"/>
  </g>
  <g fill="#444c87">
    <rect x="80" y="20" width="10" height="10"/>
    <rect x="60" y="50" width="10" height="10"/>
    <rect x="50" y="60" width="10" height="10"/>
    <rect x="120" y="70" width="10" height="10"/>
    <rect x="80" y="100" width="10" height="10"/>
    <rect x="260" y="230" width="10" height="10"/>
    <rect x="230" y="260" width="10" height="10"/>
  </g>
  <g fill="#787fe1">
    <rect x="90" y="20" width="10" height="10"/>
    <rect x="60" y="30" width="10" height="10"/>
    <rect x="90" y="30" width="10" height="10"/>
    <rect x="100" y="70" width="10" height="10"/>
    <rect x="60" y="90" width="10" height="10"/>
    <rect x="90" y="100" width="10" height="10"/>
  </g>
  <g fill="#2d354a">
    <rect x="100" y="20" width="10" height="10"/>
    <rect x="70" y="40" width="20" height="10"/>
    <rect x="70" y="50" width="20" height="10"/>
    <rect x="60" y="60" width="10" height="10"/>
    <rect x="60" y="70" width="20" height="10"/>
    <rect x="70" y="80" width="20" height="10"/>
    <rect x="70" y="90" width="40" height="10"/>
  </g>
  <g fill="#e5eefc">
    <rect x="130" y="20" width="10" height="10"/>
    <rect x="20" y="100" width="10" height="10"/>
    <rect x="40" y="100" width="10" height="10"/>
    <rect x="110" y="170" width="10" height="10"/>
    <rect x="120" y="200" width="10" height="10"/>
  </g>
  <g fill="#4c5590">
    <rect x="70" y="30" width="10" height="10"/>
    <rect x="60" y="40" width="10" height="10"/>
    <rect x="40" y="60" width="10" height="10"/>
    <rect x="110" y="60" width="10" height="10"/>
    <rect x="60" y="80" width="10" height="10"/>
    <rect x="100" y="80" width="10" height="10"/>
  </g>
  <g fill="#5b64ac">
    <rect x="80" y="30" width="10" height="10"/>
    <rect x="110" y="70" width="10" height="10"/>
    <rect x="110" y="80" width="20" height="10"/>
    <rect x="110" y="90" width="10" height="10"/>
    <rect x="270" y="220" width="10" height="10"/>
    <rect x="220" y="270" width="10" height="10"/>
  </g>
  <g fill="#656eb8">
    <rect x="100" y="30" width="10" height="10"/>
    <rect x="120" y="40" width="10" height="10"/>
    <rect x="100" y="50" width="30" height="10"/>
  </g>
  <g fill="#30171f">
    <rect x="40" y="40" width="10" height="10"/>
    <rect x="270" y="240" width="10" height="10"/>
    <rect x="300" y="270" width="10" height="10"/>
    <rect x="310" y="280" width="10" height="10"/>
    <rect x="310" y="300" width="10" height="10"/>
    <rect x="300" y="310" width="10" height="10"/>
  </g>
  <g fill="#2d344d">
    <rect x="50" y="40" width="10" height="10"/>
    <rect x="130" y="40" width="10" height="10"/>
    <rect x="40" y="50" width="20" height="10"/>
    <rect x="300" y="300" width="10" height="10"/>
  </g>
  <g fill="#7279d5">
    <rect x="100" y="40" width="20" height="10"/>
    <rect x="120" y="60" width="10" height="10"/>
    <rect x="120" y="90" width="10" height="10"/>
  </g>
  <g fill="#4b5372">
    <rect x="90" y="50" width="10" height="10"/>
    <rect x="130" y="50" width="10" height="10"/>
    <rect x="240" y="250" width="10" height="10"/>
  </g>
  <g fill="#ffffff">
    <rect x="30" y="60" width="10" height="10"/>
    <rect x="90" y="60" width="10" height="10"/>
    <rect x="130" y="100" width="10" height="10"/>
    <rect x="30" y="120" width="10" height="10"/>
    <rect x="30" y="190" width="10" height="10"/>
    <rect x="60" y="190" width="10" height="10"/>
    <rect x="130" y="190" width="10" height="10"/>
    <rect x="160" y="190" width="10" height="10"/>
  </g>
  <g fill="#1e2231">
    <rect x="70" y="60" width="10" height="10"/>
    <rect x="100" y="60" width="10" height="10"/>
    <rect x="90" y="70" width="10" height="10"/>
    <rect x="130" y="70" width="10" height="10"/>
    <rect x="70" y="100" width="10" height="10"/>
    <rect x="100" y="100" width="10" height="10"/>
    <rect x="230" y="230" width="10" height="10"/>
  </g>
  <g fill="#9da2b2">
    <rect x="80" y="60" width="10" height="10"/>
    <rect x="240" y="230" width="10" height="10"/>
  </g>
  <g fill="#f9fefe">
    <rect x="140" y="60" width="10" height="10"/>
    <rect x="0" y="120" width="10" height="10"/>
  </g>
  <g fill="#fafcfe">
    <rect x="150" y="60" width="10" height="10"/>
    <rect x="50" y="100" width="10" height="10"/>
  </g>
  <rect fill="#1e2230" x="40" y="70" width="10" height="10"/>
  <rect fill="#525c97" x="80" y="110" width="10" height="10"/>
  <g fill="#acc1f2">
    <rect x="0" y="140" width="10" height="10"/>
    <rect x="0" y="150" width="10" height="10"/>
    <rect x="30" y="150" width="10" height="10"/>
    <rect x="0" y="160" width="10" height="10"/>
    <rect x="30" y="160" width="10" height="10"/>
    <rect x="180" y="200" width="10" height="10"/>
  </g>
  <g fill="#becaf7">
    <rect x="30" y="140" width="10" height="10"/>
    <rect x="100" y="170" width="10" height="10"/>
    <rect x="190" y="170" width="10" height="10"/>
  </g>
  <rect fill="#edf7fe" x="120" y="170" width="10" height="10"/>
  <rect fill="#b9c9f3" x="170" y="180" width="10" height="10"/>
  <rect fill="#abbfef" x="70" y="200" width="30" height="10"/>
  <g fill="#cdd5fb">
    <rect x="100" y="200" width="10" height="10"/>
    <rect x="250" y="230" width="10" height="10"/>
  </g>
  <rect fill="#f3f7fc" x="110" y="200" width="10" height="10"/>
  <g fill="#7a8dc3">
    <rect x="270" y="210" width="10" height="10"/>
    <rect x="230" y="240" width="10" height="10"/>
    <rect x="310" y="290" width="10" height="10"/>
  </g>
  <g fill="#6670a8">
    <rect x="280" y="210" width="10" height="10"/>
    <rect x="240" y="240" width="20" height="10"/>
  </g>
  <g fill="#353c5f">
    <rect x="280" y="220" width="10" height="10"/>
    <rect x="250" y="250" width="10" height="10"/>
    <rect x="220" y="280" width="10" height="10"/>
  </g>
  <rect fill="#8198d9" x="260" y="240" width="10" height="10"/>
  <g fill="#4b1619">
    <rect x="270" y="250" width="10" height="10"/>
    <rect x="300" y="280" width="10" height="10"/>
  </g>
  <g fill="#3c0101">
    <rect x="280" y="250" width="10" height="10"/>
    <rect x="290" y="260" width="10" height="10"/>
    <rect x="290" y="270" width="10" height="10"/>
    <rect x="290" y="280" width="10" height="10"/>
  </g>
  <rect fill="#c45006" x="270" y="260" width="20" height="10"/>
</svg>
