<?xml version="1.0" encoding="UTF-8"?>
<!-- Generator: visioncortex VTracer 0.6.5 -->
<svg version="1.1" xmlns="http://www.w3.org/2000/svg" width="60" height="60">
<path d="M0,0 L20,0 L20,2 L32,2 L33,7 L37,8 L40,10 L40,12 L44,14 L51,22 L51,29 L53,29 L56,35 L56,48 L54,53 L54,56 L52,56 L52,58 L49,59 L49,62 L48,72 L44,73 L44,76 L30,76 L28,86 L24,88 L12,89 L7,86 L0,86 L-3,82 L-5,75 L-10,75 L-13,77 L-19,77 L-20,74 L-24,72 L-25,71 L-25,61 L-27,57 L-32,53 L-33,48 L-33,39 L-29,38 L-29,33 L-28,29 L-30,28 L-29,24 L-27,24 L-26,21 L-24,21 L-24,18 L-21,18 L-20,14 L-18,14 L-18,12 L-16,12 L-14,7 L-11,3 Z " fill="#F0EEDA" transform="translate(37,3)"/>
<path d="M0,0 L1,2 L5,4 L12,12 L12,19 L14,19 L17,25 L17,38 L15,43 L15,46 L13,46 L13,48 L10,49 L10,52 L9,62 L5,63 L5,66 L-9,66 L-11,76 L-15,78 L-27,79 L-32,76 L-39,76 L-42,72 L-44,65 L-49,65 L-52,67 L-58,67 L-59,64 L-63,62 L-64,61 L-64,51 L-66,47 L-71,43 L-72,38 L-72,29 L-68,27 L-65,27 L-64,23 L-60,27 L-59,30 L-59,37 L-61,37 L-61,42 L-59,42 L-59,49 L-62,49 L-61,52 L-58,52 L-59,59 L-56,60 L-56,63 L-52,61 L-48,61 L-48,58 L-37,58 L-37,64 L-36,67 L-33,66 L-33,71 L-31,71 L-30,74 L-28,71 L-25,71 L-24,76 L-22,76 L-21,71 L-19,68 L-19,70 L-17,70 L-17,76 L-15,75 L-15,62 L-17,61 L-16,58 L-6,58 L-1,61 L-1,63 L2,63 L4,59 L6,59 L6,55 L2,53 L4,49 L4,43 L3,43 L2,49 L-2,49 L-4,43 L-11,43 L-14,46 L-12,52 L-12,54 L-5,53 L-4,55 L-14,55 L-14,52 L-17,52 L-17,48 L-20,51 L-22,51 L-25,48 L-25,53 L-22,54 L-22,57 L-20,57 L-20,63 L-25,63 L-25,59 L-27,60 L-28,63 L-34,63 L-34,58 L-31,57 L-31,53 L-28,53 L-29,48 L-31,48 L-32,51 L-34,51 L-34,48 L-36,48 L-37,52 L-39,52 L-40,55 L-49,55 L-48,53 L-41,54 L-40,50 L-38,42 L-41,42 L-41,40 L-49,41 L-51,46 L-54,49 L-56,49 L-56,42 L-53,42 L-53,39 L-50,39 L-50,36 L-40,36 L-40,38 L-38,38 L-38,34 L-35,34 L-35,36 L-33,36 L-32,38 L-31,37 L-32,34 L-32,21 L-29,21 L-29,18 L-21,18 L-21,20 L-18,20 L-18,26 L-16,26 L-12,30 L-12,33 L-8,33 L-8,30 L-3,28 L2,20 L2,13 L0,12 L-2,6 L-2,2 L0,2 Z " fill="#F1EDD1" transform="translate(76,13)"/>
<path d="M0,0 L20,0 L20,2 L32,2 L33,7 L37,8 L39,10 L32,11 L27,7 L17,8 L18,15 L24,15 L25,13 L28,13 L31,16 L31,22 L34,22 L34,29 L31,29 L31,32 L29,32 L28,30 L21,28 L18,25 L18,22 L11,22 L11,18 L8,18 L8,8 L-1,8 L-3,10 L-7,11 L-7,14 L-1,13 L2,17 L-3,19 L-4,27 L-1,28 L-2,30 L-4,30 L-4,32 L-7,31 L-7,29 L-9,29 L-9,23 L-7,23 L-8,18 L-7,16 L-13,18 L-13,21 L-17,22 L-16,31 L-19,33 L-14,38 L-14,48 L-17,48 L-17,51 L-19,51 L-19,60 L-24,59 L-21,57 L-20,52 L-22,52 L-22,47 L-20,47 L-22,37 L-25,34 L-26,37 L-29,37 L-28,29 L-30,28 L-29,24 L-27,24 L-26,21 L-24,21 L-24,18 L-21,18 L-20,14 L-18,14 L-18,12 L-16,12 L-14,7 L-11,3 Z " fill="#F1F0E5" transform="translate(37,3)"/>
<path d="M0,0 L2,3 L2,16 L0,21 L0,24 L-2,24 L-2,26 L-5,27 L-5,30 L-6,40 L-10,41 L-10,44 L-24,44 L-26,54 L-30,56 L-42,57 L-47,54 L-54,54 L-57,50 L-59,43 L-64,43 L-67,45 L-73,45 L-74,42 L-78,40 L-79,39 L-79,29 L-81,25 L-86,21 L-87,16 L-87,7 L-83,5 L-80,5 L-79,1 L-75,5 L-74,8 L-74,15 L-76,15 L-76,20 L-74,20 L-74,27 L-77,27 L-76,30 L-73,30 L-74,37 L-71,38 L-71,41 L-67,39 L-63,39 L-63,36 L-52,36 L-52,42 L-51,45 L-48,44 L-48,49 L-46,49 L-45,52 L-43,49 L-40,49 L-39,54 L-37,54 L-36,49 L-34,46 L-34,48 L-32,48 L-32,54 L-30,53 L-30,40 L-32,39 L-31,36 L-21,36 L-16,39 L-16,41 L-13,41 L-11,37 L-9,37 L-9,33 L-13,31 L-11,27 L-11,21 L-7,20 L-7,15 L-10,15 L-11,11 L-6,7 L0,6 Z " fill="#815A42" transform="translate(91,35)"/>
<path d="M0,0 L2,1 L2,3 L7,4 L12,4 L12,6 L10,6 L12,11 L12,16 L15,17 L15,24 L8,34 L4,34 L4,37 L0,37 L0,34 L-4,32 L-4,30 L-6,30 L-6,24 L-9,24 L-9,22 L-11,22 L-12,20 L-19,20 L-20,23 L-23,24 L-26,33 L-30,37 L-33,37 L-33,34 L-38,33 L-39,30 L-41,29 L-41,25 L-44,24 L-44,16 L-40,15 L-40,12 L-37,10 L-34,10 L-34,17 L-36,17 L-36,23 L-34,23 L-31,26 L-31,24 L-29,22 L-31,21 L-31,13 L-26,11 L-28,7 L-34,9 L-35,5 L-29,2 L-24,1 L-19,2 L-19,12 L-16,12 L-16,16 L-9,16 L-9,19 L-6,20 L-5,22 L2,24 L2,26 L4,26 L4,23 L7,23 L7,16 L4,16 L4,10 L1,9 L1,7 L-2,7 L-3,10 L-9,10 L-10,9 L-10,2 Z " fill="#27D8D9" transform="translate(64,9)"/>
<path d="M0,0 L3,0 L3,2 L5,2 L6,4 L17,5 L18,7 L21,8 L21,5 L24,5 L24,2 L34,2 L34,5 L37,5 L37,8 L40,8 L40,15 L36,15 L34,9 L27,9 L24,12 L26,18 L26,20 L33,19 L34,21 L24,21 L24,18 L21,18 L21,14 L18,17 L16,17 L13,14 L13,19 L16,20 L16,23 L18,23 L18,29 L13,29 L13,25 L11,26 L10,29 L4,29 L4,24 L7,23 L7,19 L10,19 L9,14 L7,14 L6,17 L4,17 L4,14 L2,14 L1,18 L-1,18 L-2,21 L-11,21 L-10,19 L-3,20 L-2,16 L0,8 L-3,8 L-3,6 L-11,7 L-13,12 L-16,15 L-18,15 L-18,8 L-15,8 L-15,5 L-12,5 L-12,2 L-2,2 L-2,4 L0,4 Z " fill="#EFE3A1" transform="translate(38,47)"/>
<path d="M0,0 L7,1 L9,7 L13,7 L13,1 L16,1 L16,9 L14,11 L17,13 L17,17 L15,18 L13,22 L10,21 L10,19 L6,18 L5,17 L-5,17 L-6,19 L-3,20 L-3,33 L-6,34 L-6,28 L-10,30 L-11,34 L-13,34 L-14,29 L-17,30 L-19,33 L-20,29 L-22,29 L-22,24 L-8,24 L-9,15 L-11,15 L-12,12 L-14,11 L-14,6 L-11,7 L-11,9 L-9,9 L-8,6 L-6,6 L-6,10 L-3,10 L-3,13 L5,12 L-1,12 L-3,7 L-2,5 L-4,4 Z " fill="#DDDDAF" transform="translate(65,55)"/>
<path d="M0,0 L5,0 L5,2 L8,2 L8,5 L2,6 L0,11 L-1,13 L-3,13 L-4,19 L-6,19 L-5,28 L-8,30 L-3,35 L-3,45 L-6,45 L-6,48 L-8,48 L-8,57 L-13,56 L-10,54 L-9,49 L-11,49 L-11,44 L-9,44 L-11,34 L-14,31 L-15,34 L-18,34 L-17,26 L-19,25 L-18,21 L-16,21 L-15,18 L-13,18 L-13,15 L-10,15 L-9,11 L-7,11 L-7,9 L-5,9 L-3,4 Z " fill="#E6DE9F" transform="translate(26,6)"/>
<path d="M0,0 L20,0 L20,2 L32,2 L33,7 L37,8 L39,10 L32,11 L27,7 L17,8 L17,12 L10,12 L9,6 L5,7 L4,5 L5,3 L-6,3 L-3,1 Z " fill="#F0DE63" transform="translate(37,3)"/>
<path d="M0,0 L4,4 L5,7 L5,14 L3,14 L3,19 L5,19 L5,26 L2,26 L3,30 L1,30 L-2,24 L-7,20 L-8,15 L-8,6 L-4,4 L-1,4 Z " fill="#662113" transform="translate(12,36)"/>
<path d="M0,0 L1,2 L5,4 L12,12 L13,21 L13,24 L8,23 L8,28 L3,28 L3,25 L0,22 L2,20 L2,13 L0,12 L-2,6 L-2,2 L0,2 Z " fill="#E5CC5C" transform="translate(76,13)"/>
<path d="M0,0 L2,3 L2,16 L0,21 L0,24 L-2,24 L-2,26 L-5,27 L-5,30 L-8,31 L-8,25 L-10,25 L-10,20 L-7,20 L-7,15 L-10,15 L-11,11 L-6,7 L0,6 Z " fill="#5F2013" transform="translate(91,35)"/>
<path d="M0,0 L10,0 L10,3 L13,3 L13,6 L16,6 L16,13 L12,13 L10,7 L3,7 L0,10 L2,16 L2,18 L9,17 L10,19 L0,19 L0,16 L-3,16 L-3,12 L-6,15 L-8,15 L-8,12 L-6,12 L-6,9 L-4,8 L-3,3 L0,3 Z " fill="#BE4D31" transform="translate(62,49)"/>
<path d="M0,0 L2,1 L2,3 L7,4 L12,4 L12,6 L10,6 L12,11 L12,16 L15,17 L15,24 L8,34 L4,33 L7,32 L12,23 L14,23 L13,18 L11,17 L9,12 L4,7 L4,5 L2,5 L4,10 L1,9 L1,7 L-2,7 L-3,10 L-9,10 L-10,9 L-10,2 Z " fill="#5BD4C7" transform="translate(64,9)"/>
<path d="M0,0 L11,0 L11,3 L13,5 L5,5 L3,7 L-1,8 L-1,11 L5,10 L8,14 L3,16 L2,24 L5,25 L4,27 L2,27 L2,29 L-1,28 L-1,26 L-3,26 L-3,20 L-1,20 L-2,15 L-1,13 L-7,15 L-7,18 L-9,18 L-8,13 L-6,13 L-4,8 L-3,6 L3,5 L3,2 L0,2 Z " fill="#5ED4C6" transform="translate(31,6)"/>
<path d="M0,0 L2,0 L3,2 L3,9 L-5,11 L-7,15 L-7,18 L-4,18 L-4,23 L-10,22 L-10,18 L-12,18 L-13,14 L-17,14 L-16,10 L-12,4 L-8,6 L-9,9 L-4,9 L-4,4 L1,4 Z " fill="#D9A643" transform="translate(88,32)"/>
<path d="M0,0 L8,0 L8,2 L11,2 L11,8 L8,14 L1,14 L-6,10 L-4,6 L-2,5 Z " fill="#E85B93" transform="translate(27,53)"/>
<path d="M0,0 L6,0 L6,3 L8,3 L8,14 L5,14 L5,17 L0,16 L0,14 L-3,14 L-3,3 L0,3 Z " fill="#29100C" transform="translate(47,31)"/>
<path d="M0,0 L10,0 L10,3 L14,4 L17,9 L17,12 L14,12 L13,16 L11,16 L10,19 L1,19 L2,17 L9,18 L10,14 L12,6 L9,6 L9,4 L1,5 L-1,10 L-4,13 L-6,13 L-6,6 L-3,6 L-3,3 L0,3 Z " fill="#C14E38" transform="translate(26,49)"/>
<path d="M0,0 L3,1 L3,14 L0,15 L0,9 L-4,11 L-5,15 L-7,15 L-8,10 L-11,11 L-13,14 L-14,10 L-16,10 L-16,5 L-1,5 Z " fill="#E5D371" transform="translate(59,74)"/>
<path d="M0,0 L7,1 L9,7 L12,8 L10,8 L9,11 L5,12 L-1,12 L-3,7 L-2,5 L-4,4 Z " fill="#E85B92" transform="translate(65,55)"/>
<path d="M0,0 L3,0 L3,5 L6,6 L6,9 L8,9 L8,15 L3,15 L3,11 L1,12 L0,15 L-6,15 L-6,10 L-3,9 L-3,5 L0,5 Z " fill="#2D110D" transform="translate(48,61)"/>
<path d="M0,0 L20,0 L20,2 L32,2 L32,3 L20,3 L20,5 L6,5 L5,4 L-6,3 L-3,1 Z " fill="#BF8A70" transform="translate(37,3)"/>
<path d="M0,0 L3,0 L3,4 L10,4 L10,7 L13,8 L14,10 L21,12 L21,14 L23,15 L20,15 L19,13 L14,12 L14,15 L16,15 L19,22 L15,20 L15,18 L13,18 L13,12 L10,12 L10,10 L8,10 L7,8 L0,8 L-1,11 L-5,12 L-5,10 L0,5 Z " fill="#5DD4C7" transform="translate(45,21)"/>
<path d="M0,0 L3,0 L2,7 L5,8 L5,11 L10,9 L9,15 L3,15 L2,12 L-2,10 L-3,9 L-3,1 Z " fill="#CEA94E" transform="translate(15,65)"/>
<path d="M0,0 L7,0 L8,3 L2,3 L2,6 L-1,6 L-1,17 L-7,16 L-7,18 L-10,17 L-7,13 L-4,4 L-1,4 Z " fill="#E0D991" transform="translate(45,28)"/>
<path d="M0,0 L2,1 L0,4 L-2,4 L-2,6 L1,6 L0,9 L-2,9 L-2,13 L-4,13 L-5,17 L-8,17 L-9,22 L-11,21 L-10,17 L-12,16 L-11,12 L-9,12 L-8,9 L-6,9 L-6,6 L-3,6 L-2,2 L0,2 Z " fill="#B26F44" transform="translate(19,15)"/>
<path d="M0,0 L2,1 L2,9 L0,11 L3,13 L3,17 L1,18 L-1,22 L-4,21 L-6,17 L-3,13 L-7,12 L-2,7 Z " fill="#ECEDDF" transform="translate(79,55)"/>
<path d="M0,0 L2,3 L0,13 L-1,16 L-10,15 L-11,11 L-6,7 L0,6 Z " fill="#1D0B0A" transform="translate(91,35)"/>
<path d="M0,0 L1,4 L3,4 L3,10 L6,10 L5,19 L1,20 L1,23 L-5,23 L-6,20 L-2,20 L0,16 L2,16 L2,12 L-2,10 L0,6 Z " fill="#DABA57" transform="translate(80,56)"/>
<path d="M0,0 L10,0 L15,3 L15,8 L13,8 L12,6 L8,5 L4,8 L3,12 L3,16 L1,14 L1,4 L-1,3 Z " fill="#BA4B30" transform="translate(60,71)"/>
<path d="M0,0 L2,0 L2,5 L8,5 L9,1 L11,1 L11,5 L17,5 L18,3 L18,9 L0,9 L-2,4 Z " fill="#E9EAD6" transform="translate(40,71)"/>
<path d="M0,0 L11,0 L11,6 L12,9 L14,9 L14,12 L9,12 L8,7 L6,7 L6,5 L-2,4 L0,3 Z " fill="#BF4D32" transform="translate(28,71)"/>
<path d="M0,0 L2,0 L5,4 L0,6 L-1,14 L2,15 L1,17 L-1,17 L-1,19 L-4,18 L-4,16 L-6,16 L-6,10 L-4,9 L-3,3 Z " fill="#F2F2E9" transform="translate(34,16)"/>
<path d="M0,0 L5,0 L5,4 L8,5 L9,8 L13,9 L13,12 L16,12 L17,9 L19,13 L8,13 L5,11 L5,7 L2,6 L-1,1 Z " fill="#DEDFB5" transform="translate(18,34)"/>
<path d="M0,0 L5,1 L5,6 L7,10 L4,10 L4,13 L2,13 L2,22 L-3,21 L0,19 L1,14 L-1,14 L-1,9 L1,9 Z " fill="#D18C3D" transform="translate(16,41)"/>
<path d="M0,0 L8,0 L8,2 L6,2 L8,7 L8,12 L11,13 L11,20 L4,30 L0,29 L3,28 L8,19 L10,19 L9,14 L7,13 L5,8 L0,3 Z " fill="#74D3C4" transform="translate(68,13)"/>
<path d="M0,0 L2,0 L2,2 L5,2 L5,8 L7,8 L11,12 L11,15 L8,15 L8,12 L4,12 L3,17 L-1,17 L-1,14 L2,14 L2,3 L0,3 Z " fill="#DDB445" transform="translate(53,31)"/>
<path d="M0,0 L5,0 L5,2 L8,2 L8,5 L2,6 L0,10 L-5,9 L-3,4 Z " fill="#DCB548" transform="translate(26,6)"/>
<path d="M0,0 L5,0 L8,3 L9,6 L6,7 L1,6 L0,9 L0,6 L-2,6 L-3,9 L-5,9 L-4,3 L-1,3 Z " fill="#D9AA43" transform="translate(47,55)"/>
<path d="M0,0 L4,1 L5,2 L6,9 L7,10 L8,5 L11,5 L13,8 L13,11 L8,13 L5,13 L4,10 L2,9 L3,2 L0,2 Z " fill="#F0E6A3" transform="translate(15,63)"/>
<path d="M0,0 L12,0 L13,4 L17,5 L19,7 L12,8 L7,4 L6,2 L1,2 Z " fill="#BECFBD" transform="translate(57,6)"/>
<path d="M0,0 L2,0 L3,2 L3,9 L-5,11 L-6,14 L-7,14 L-7,9 L-4,9 L-4,4 L1,4 Z " fill="#702B1B" transform="translate(88,32)"/>
<path d="M0,0 L2,0 L3,5 L0,5 L0,9 L-5,10 L-6,13 L-6,10 L-8,10 L-6,6 L-1,2 Z " fill="#EDDA76" transform="translate(45,61)"/>
<path d="M0,0 L5,5 L5,11 L1,11 L1,8 L-1,8 L-1,4 L-4,4 L-4,1 Z " fill="#B16047" transform="translate(83,20)"/>
<path d="M0,0 L2,0 L1,5 L-3,10 L-13,10 L-14,5 L-13,7 L-4,6 L-1,3 Z " fill="#E5E2B3" transform="translate(40,61)"/>
<path d="M0,0 L4,5 L4,8 L1,8 L0,12 L-2,12 L-3,15 L-12,15 L-11,13 L-4,14 L-3,10 Z " fill="#B54C33" transform="translate(39,53)"/>
<path d="M0,0 L5,1 L6,10 L2,11 L0,9 Z " fill="#1C0B0A" transform="translate(8,41)"/>
<path d="M0,0 L4,4 L5,7 L5,14 L2,14 L1,6 L-4,5 L-1,4 Z " fill="#651C0F" transform="translate(12,36)"/>
<path d="M0,0 L5,1 L7,2 L8,9 L15,8 L16,10 L6,10 L6,7 L3,7 L3,3 L0,6 L-2,6 L-2,3 L0,3 Z " fill="#BE4F3B" transform="translate(56,58)"/>
<path d="M0,0 L3,1 L3,4 L5,4 L6,7 L8,8 L9,15 L7,18 L5,15 L5,9 L3,9 L2,6 L0,5 Z " fill="#E3E1AF" transform="translate(51,61)"/>
<path d="M0,0 L2,0 L2,5 L6,4 L5,7 L3,7 L3,13 L1,9 L2,7 L-4,9 L-4,12 L-6,12 L-5,7 L-3,7 L-1,2 Z " fill="#6CD3C5" transform="translate(28,12)"/>
<path d="M0,0 L3,0 L3,3 L7,3 L8,7 L10,7 L10,11 L12,12 L10,13 L7,12 L7,9 L4,9 L5,6 L5,8 L7,8 L6,4 L-4,4 L0,3 Z " fill="#E5DE91" transform="translate(68,43)"/>
<path d="M0,0 L5,2 L4,4 L-1,4 L-3,14 L-5,14 L-5,9 L-6,7 L-3,2 Z " fill="#785A42" transform="translate(68,75)"/>
<path d="M0,0 L2,0 L2,4 L5,4 L5,10 L2,11 L2,8 L-1,7 L-1,4 L-3,3 L-1,3 Z " fill="#EAD15A" transform="translate(57,61)"/>
<path d="M0,0 L3,0 L3,2 L6,2 L5,7 L0,7 L-3,5 L-3,3 Z " fill="#EFF0E5" transform="translate(29,56)"/>
<path d="M0,0 L10,0 L10,3 L13,3 L13,6 L9,6 L8,4 L1,3 Z " fill="#652013" transform="translate(26,49)"/>
<path d="M0,0 L3,1 L3,14 L0,15 L0,9 L-2,8 L0,8 Z " fill="#DDB445" transform="translate(59,74)"/>
<path d="M0,0 L7,2 L10,5 L10,13 L7,11 L7,6 L2,4 Z " fill="#ECD55D" transform="translate(13,36)"/>
<path d="M0,0 L5,1 L4,4 L2,4 L1,9 L-2,8 L-1,6 L-4,6 L-4,4 Z " fill="#EBDD70" transform="translate(21,15)"/>
<path d="M0,0 L2,0 L2,2 L5,3 L3,7 L-2,6 L-2,2 Z " fill="#EAECDD" transform="translate(67,56)"/>
<path d="M0,0 L4,1 L4,7 L-2,6 L-2,8 L-5,7 Z " fill="#E7CA54" transform="translate(40,38)"/>
<path d="M0,0 L13,0 L13,1 L4,1 L4,9 L2,8 L2,5 L0,5 Z " fill="#E7E2AB" transform="translate(43,79)"/>
<path d="M0,0 L9,2 L9,4 L11,4 L11,10 L8,6 L7,4 L2,4 L-1,4 Z " fill="#713523" transform="translate(25,74)"/>
<path d="M0,0 L6,0 L8,3 L11,2 L12,7 L11,5 L7,6 L5,3 L0,3 L-2,5 L-1,1 Z " fill="#F0DE63" transform="translate(47,53)"/>
<path d="M0,0 L9,0 L7,1 L5,5 L1,5 Z " fill="#1CDADE" transform="translate(55,12)"/>
<path d="M0,0 L3,0 L3,3 L6,3 L6,6 L3,6 L3,4 L-6,3 L-6,1 Z " fill="#5B190E" transform="translate(69,49)"/>
<path d="M0,0 L1,0 L1,7 L-6,17 L-10,16 L-7,15 L-2,6 L0,6 Z " fill="#84D2C2" transform="translate(78,26)"/>
<path d="M0,0 L2,1 L5,3 L5,7 L3,8 L1,12 L-2,11 L0,7 L3,5 L0,3 Z " fill="#F0E59C" transform="translate(77,65)"/>
<path d="M0,0 L6,0 L8,1 L8,4 L5,4 L5,1 L1,1 L0,6 L-4,6 L-4,3 L0,3 Z " fill="#F0E492" transform="translate(56,42)"/>
<path d="M0,0 L6,1 L6,3 L-6,5 L-5,1 Z " fill="#DABA59" transform="translate(57,7)"/>
<path d="M0,0 L2,0 L2,10 L-1,10 L-1,1 Z " fill="#C8A34B" transform="translate(5,41)"/>
<path d="M0,0 L3,0 L3,2 L7,3 L9,5 L2,6 L0,4 Z " fill="#CDAB4E" transform="translate(67,8)"/>
<path d="M0,0 L1,2 L13,2 L13,3 L1,3 L1,5 L-6,4 L-5,2 L0,2 Z " fill="#764C37" transform="translate(56,3)"/>
<path d="M0,0 L7,0 L7,3 L-6,3 L-3,1 Z " fill="#795D45" transform="translate(37,3)"/>
<path d="M0,0 L1,2 L3,2 L3,8 L-2,8 L-1,3 Z " fill="#C25834" transform="translate(56,81)"/>
<path d="M0,0 L7,0 L7,1 L1,1 L2,6 L-3,7 L-3,3 L0,3 Z " fill="#984A24" transform="translate(62,49)"/>
<path d="M0,0 L4,1 L5,2 L5,10 L2,9 L3,2 L0,2 Z " fill="#ECE399" transform="translate(15,63)"/>
<path d="M0,0 L5,0 L4,3 L0,4 L-5,9 L-3,4 Z " fill="#6D4F3B" transform="translate(26,6)"/>
<path d="M0,0 L1,4 L3,4 L3,10 L1,10 L0,12 L-2,10 L0,6 Z " fill="#F0E287" transform="translate(80,56)"/>
<path d="M0,0 L3,3 L3,5 L5,5 L5,8 L0,8 Z " fill="#DEB747" transform="translate(37,75)"/>
<path d="M0,0 L2,2 L11,3 L11,4 L2,5 L2,7 L0,7 L-1,1 Z " fill="#F1F1E6" transform="translate(24,44)"/>
<path d="M0,0 L5,0 L6,4 L0,5 Z " fill="#BF4D32" transform="translate(84,36)"/>
<path d="M0,0 L2,0 L5,3 L4,6 L-1,5 Z " fill="#EFE28E" transform="translate(82,29)"/>
<path d="M0,0 L11,0 L11,2 L3,3 L0,2 Z " fill="#BFCDB7" transform="translate(31,6)"/>
<path d="M0,0 L2,0 L3,5 L0,5 L0,9 L-2,9 L-2,4 L0,4 Z " fill="#E3E7DA" transform="translate(45,61)"/>
<path d="M0,0 L2,1 L2,6 L4,7 L1,7 L1,10 L-2,10 L-2,6 L1,6 Z " fill="#DEDEB1" transform="translate(22,45)"/>
<path d="M0,0 L4,1 L4,6 L-1,6 Z " fill="#DADEC0" transform="translate(40,33)"/>
<path d="M0,0 L1,0 L1,11 L-1,11 L-1,6 L-2,4 Z " fill="#611B0E" transform="translate(64,78)"/>
<path d="M0,0 L2,0 L2,4 L5,4 L5,7 L1,5 L-1,1 Z " fill="#F1E9B3" transform="translate(57,61)"/>
<path d="M0,0 L3,0 L3,3 L6,4 L-4,4 L0,3 Z " fill="#D6D498" transform="translate(68,43)"/>
<path d="M0,0 L9,1 L7,3 L0,3 Z " fill="#F1EBC4" transform="translate(62,68)"/>
<path d="M0,0 L3,0 L3,6 L0,5 L-1,2 Z " fill="#DDB445" transform="translate(41,39)"/>
<path d="M0,0 L3,1 L1,8 L-2,8 L-1,3 Z " fill="#804C2E" transform="translate(10,28)"/>
<path d="M0,0 L4,2 L4,5 L0,5 Z " fill="#EAD15A" transform="translate(24,69)"/>
<path d="M0,0 L3,0 L3,4 L1,4 L1,2 L-7,2 L-7,1 Z " fill="#DCE2D3" transform="translate(35,47)"/>
<path d="M0,0 L2,4 L3,10 L0,8 Z " fill="#8E583F" transform="translate(12,66)"/>
<path d="M0,0 L2,0 L1,5 L-3,6 L-3,4 L-1,3 Z " fill="#EEEDD9" transform="translate(40,61)"/>
<path d="M0,0 L3,1 L3,6 L0,5 Z " fill="#CA7339" transform="translate(8,51)"/>
<path d="M0,0 L3,0 L4,2 L8,4 L1,4 Z " fill="#DDAC4D" transform="translate(44,45)"/>
<path d="M0,0 L2,2 L1,7 L-1,6 L0,4 L-3,4 L-3,2 Z " fill="#DABA55" transform="translate(20,17)"/>
<path d="M0,0 L3,0 L3,7 L2,4 L0,4 Z " fill="#E8CD57" transform="translate(43,80)"/>
<path d="M0,0 L5,0 L5,3 L0,3 Z " fill="#892F1D" transform="translate(71,43)"/>
<path d="M0,0 L3,0 L5,6 L-1,5 L2,1 Z " fill="#D4A149" transform="translate(85,31)"/>
<path d="M0,0 L2,0 L2,2 L5,2 L4,6 L0,3 Z " fill="#D5DAB7" transform="translate(53,31)"/>
<path d="M0,0 L3,0 L2,5 L-2,3 L0,2 Z " fill="#EBD55C" transform="translate(72,69)"/>
<path d="M0,0 L3,1 L3,5 L0,5 Z " fill="#D7DEC9" transform="translate(51,61)"/>
<path d="M0,0 L2,0 L3,5 L2,3 L-2,4 L-3,2 Z " fill="#E9CF58" transform="translate(56,55)"/>
<path d="M0,0 L3,0 L4,4 L-1,3 Z " fill="#BF4D32" transform="translate(48,84)"/>
<path d="M0,0 L5,1 L5,3 L0,2 Z " fill="#DDB445" transform="translate(74,76)"/>
<path d="M0,0 L3,0 L2,6 L1,3 L-1,3 Z " fill="#DDB445" transform="translate(38,68)"/>
<path d="M0,0 L3,0 L2,5 L0,4 Z " fill="#661E11" transform="translate(75,55)"/>
<path d="M0,0 L2,0 L2,6 L-1,6 Z " fill="#795D45" transform="translate(91,45)"/>
<path d="M0,0 L2,0 L1,5 L-1,5 Z " fill="#BF4D32" transform="translate(79,42)"/>
<path d="M0,0 L4,4 L1,5 L-1,1 Z " fill="#BF4D32" transform="translate(12,36)"/>
<path d="M0,0 L2,1 L1,5 L-1,5 Z " fill="#C0CCB3" transform="translate(60,84)"/>
<path d="M0,0 L1,4 L3,4 L3,7 L0,6 Z " fill="#D35B5C" transform="translate(80,56)"/>
<path d="M0,0 L2,0 L3,5 L0,5 Z " fill="#210C0A" transform="translate(5,51)"/>
<path d="M0,0 L4,1 L4,3 L-1,2 Z " fill="#F0DE63" transform="translate(58,49)"/>
<path d="M0,0 L4,0 L4,3 L0,3 Z " fill="#F0DE68" transform="translate(26,43)"/>
<path d="M0,0 L3,2 L3,4 L5,5 L1,5 Z " fill="#EDD869" transform="translate(55,35)"/>
<path d="M0,0 L1,0 L1,5 L-3,6 Z " fill="#AA4B32" transform="translate(84,70)"/>
<path d="M0,0 L4,1 L4,4 L1,4 Z " fill="#C6C79C" transform="translate(60,42)"/>
<path d="M0,0 L2,1 L1,4 L-2,4 L-2,1 Z " fill="#E3C34F" transform="translate(10,36)"/>
<path d="M0,0 L3,1 L2,4 L0,4 Z " fill="#5D1A0E" transform="translate(21,55)"/>
<path d="M0,0 L3,0 L3,3 L0,3 Z " fill="#DDB445" transform="translate(48,81)"/>
<path d="M0,0 L2,0 L2,3 L-1,4 Z " fill="#D5DED0" transform="translate(49,72)"/>
<path d="M0,0 L3,1 L3,4 L1,4 Z " fill="#6B2E1E" transform="translate(12,62)"/>
<path d="M0,0 L3,0 L3,3 L0,3 Z " fill="#5C1A0E" transform="translate(23,52)"/>
<path d="M0,0 L3,0 L3,3 L0,3 Z " fill="#D3913E" transform="translate(52,45)"/>
<path d="M0,0 L3,0 L3,3 L0,3 Z " fill="#B1915D" transform="translate(7,28)"/>
<path d="M0,0 L3,1 L2,4 Z " fill="#C25934" transform="translate(61,83)"/>
<path d="M0,0 L2,0 L1,4 L-1,1 Z " fill="#EEE09A" transform="translate(54,65)"/>
<path d="M0,0 L2,0 L2,3 L-1,3 Z " fill="#E4E6CD" transform="translate(57,61)"/>
<path d="M0,0 L3,1 L3,3 L0,3 Z " fill="#651C0F" transform="translate(85,28)"/>
<path d="M0,0 L3,1 L3,3 L0,3 Z " fill="#DDB445" transform="translate(48,12)"/>
<path d="M0,0 L3,2 L-1,2 Z " fill="#DFBA49" transform="translate(42,7)"/>
</svg>
