<?xml version="1.0" encoding="UTF-8"?>
<!-- Generator: visioncortex VTracer 0.6.5 -->
<svg version="1.1" xmlns="http://www.w3.org/2000/svg" width="150" height="84">
<path d="M0,0 L150,0 L150,84 L0,84 Z " fill="#010000" transform="translate(0,0)"/>
<path d="M0,0 L71,0 L71,84 L17,84 L18,79 L20,79 L18,74 L17,78 L13,78 L13,76 L16,76 L16,71 L24,70 L25,79 L28,79 L28,73 L30,73 L30,69 L25,69 L27,66 L33,65 L33,67 L36,64 L34,64 L35,61 L38,60 L41,63 L41,57 L34,58 L33,55 L33,51 L34,45 L33,43 L35,43 L35,41 L31,42 L29,41 L29,39 L24,37 L21,36 L24,35 L25,33 L25,35 L29,37 L34,40 L34,36 L32,35 L32,33 L30,33 L31,36 L28,35 L27,31 L17,30 L15,29 L16,25 L11,23 L11,21 L4,21 L5,17 L3,15 L8,15 L7,20 L11,18 L11,20 L16,22 L16,24 L26,26 L30,30 L28,26 L25,24 L25,19 L32,18 L33,15 L24,15 L24,18 L14,20 L12,17 L9,16 L9,14 L-1,12 L-1,1 Z " fill="#000000" transform="translate(79,0)"/>
<path d="M0,0 L8,2 L11,3 L11,5 L15,6 L16,9 L21,7 L26,7 L26,4 L35,4 L34,8 L27,8 L28,13 L33,18 L34,20 L29,18 L28,16 L18,13 L18,11 L14,10 L12,8 L9,9 L10,4 L7,5 L8,7 L6,7 L6,10 L13,10 L13,12 L18,14 L17,18 L29,20 L32,24 L32,22 L34,22 L34,24 L37,25 L36,29 L31,27 L26,24 L26,25 L31,28 L31,30 L37,30 L37,34 L36,42 L32,46 L30,45 L29,46 L20,49 L17,48 L17,50 L12,51 L11,54 L5,54 L5,52 L3,53 L-4,53 L-4,55 L-9,55 L-9,57 L-11,57 L-11,59 L-15,58 L-19,55 L-23,54 L-22,51 L-10,50 L-10,47 L-17,46 L-17,44 L-21,44 L-18,48 L-22,48 L-26,46 L-26,44 L-28,44 L-27,41 L-29,40 L-29,42 L-32,41 L-32,38 L-34,37 L-33,32 L-36,32 L-36,28 L-33,28 L-32,22 L-31,20 L-26,20 L-27,19 L-35,19 L-34,15 L-33,14 L-35,10 L-37,9 L-37,7 L-33,8 L-29,10 L-29,12 L-27,13 L-27,11 L-10,10 L-10,8 L-6,8 L-6,10 L1,8 L-4,7 L-4,5 L-1,4 Z " fill="#342C2C" transform="translate(77,11)"/>
<path d="M0,0 L3,1 L2,6 L3,3 L9,3 L9,6 L16,7 L16,11 L6,10 L6,13 L14,14 L21,12 L24,9 L25,6 L23,6 L23,2 L29,2 L30,5 L39,4 L39,6 L41,6 L41,9 L31,10 L31,14 L29,15 L29,22 L36,20 L40,21 L42,21 L41,15 L35,14 L35,11 L40,12 L40,14 L46,14 L47,16 L57,15 L55,17 L45,19 L42,27 L38,28 L42,30 L40,32 L27,33 L27,35 L22,35 L22,37 L20,37 L20,39 L16,38 L12,35 L8,34 L9,31 L21,30 L21,27 L14,26 L14,24 L10,24 L13,28 L9,28 L5,26 L5,24 L3,24 L4,21 L2,20 L2,22 L-1,21 L-1,18 L-3,17 L-2,12 L-5,12 L-5,8 L-2,8 L-1,2 Z " fill="#32251A" transform="translate(46,31)"/>
<path d="M0,0 L5,2 L12,5 L22,8 L24,8 L24,12 L23,20 L19,24 L17,23 L16,24 L7,27 L4,26 L4,28 L-1,29 L-2,32 L-8,32 L-8,30 L-3,28 L-8,27 L-6,25 L-2,25 L1,16 L11,14 L3,15 L2,12 L-2,13 L-4,12 L-4,10 L-9,10 L-6,12 L-3,13 L-2,19 L-7,20 L-10,19 L-15,20 L-15,11 L-11,7 L-3,7 L-3,4 L-5,4 L-4,2 Z " fill="#4E3F38" transform="translate(90,33)"/>
<path d="M0,0 L5,0 L4,5 L8,3 L8,5 L13,7 L13,9 L23,11 L27,15 L25,11 L22,9 L22,4 L29,3 L31,0 L31,5 L38,7 L38,13 L41,22 L45,23 L46,16 L48,16 L49,18 L49,24 L43,25 L44,29 L43,32 L50,34 L50,36 L47,37 L46,39 L43,39 L42,37 L35,35 L33,35 L32,26 L28,27 L26,26 L26,24 L21,22 L18,21 L21,20 L22,18 L22,20 L26,22 L31,25 L31,21 L29,20 L29,18 L27,18 L28,21 L25,20 L24,16 L14,15 L12,14 L13,10 L8,8 L8,6 L1,6 L2,2 Z " fill="#241E1C" transform="translate(82,15)"/>
<path d="M0,0 L0,3 L0,6 L7,5 L7,11 L3,9 L0,12 L2,12 L1,15 L-1,15 L-1,13 L-8,16 L-4,17 L-4,21 L-6,21 L-6,27 L-9,27 L-10,18 L-17,20 L-18,24 L-21,24 L-21,26 L-17,26 L-17,21 L-14,23 L-14,27 L-16,27 L-17,32 L-18,32 L-18,27 L-28,28 L-32,28 L-32,26 L-34,25 L-34,23 L-29,23 L-28,24 L-23,24 L-23,22 L-31,22 L-35,20 L-30,18 L-30,20 L-27,20 L-27,18 L-29,18 L-29,16 L-25,14 L-24,9 L-19,9 L-19,7 L-11,6 L-7,5 L-5,1 L-4,4 Z " fill="#100D0C" transform="translate(113,52)"/>
<path d="M0,0 L1,0 L1,5 L3,4 L2,2 L5,2 L6,6 L5,9 L15,11 L17,9 L22,10 L23,11 L23,10 L30,10 L27,11 L26,15 L24,18 L27,18 L28,16 L31,16 L31,18 L34,17 L36,17 L36,24 L38,25 L36,26 L29,26 L29,28 L24,28 L24,30 L22,30 L22,32 L18,31 L14,28 L10,27 L11,24 L23,23 L23,20 L16,19 L16,17 L12,17 L15,21 L11,21 L7,19 L7,17 L5,17 L6,14 L4,13 L4,15 L1,14 L1,11 L-1,10 L0,5 L-3,5 L-3,1 Z " fill="#443532" transform="translate(44,38)"/>
<path d="M0,0 L8,2 L11,3 L11,5 L15,6 L16,9 L21,7 L26,7 L26,4 L35,4 L34,8 L27,8 L28,13 L33,18 L34,20 L29,18 L28,16 L18,13 L18,11 L14,10 L12,8 L9,9 L10,4 L7,5 L8,7 L6,7 L6,10 L13,10 L13,12 L18,14 L17,18 L29,20 L32,24 L32,22 L34,22 L34,24 L37,25 L36,29 L31,27 L26,24 L21,25 L19,21 L18,19 L14,18 L14,16 L12,18 L12,16 L10,15 L13,15 L13,13 L-4,11 L-2,9 L1,8 L-4,7 L-4,5 L-1,4 Z " fill="#1C1315" transform="translate(77,11)"/>
<path d="M0,0 L4,1 L8,3 L9,8 L16,10 L17,6 L19,7 L18,9 L20,9 L21,14 L29,15 L29,19 L31,19 L30,23 L28,23 L27,26 L20,28 L14,27 L12,26 L12,23 L22,23 L22,21 L15,19 L15,16 L11,17 L9,16 L9,18 L11,19 L8,19 L7,15 L8,13 L11,13 L10,12 L2,12 L3,8 L4,7 L2,3 L0,2 Z " fill="#473A35" transform="translate(40,18)"/>
<path d="M0,0 L5,2 L12,5 L18,7 L17,9 L15,9 L15,11 L13,11 L13,9 L9,8 L7,7 L6,9 L6,6 L1,6 L1,9 L-1,10 L0,13 L-4,12 L-4,10 L-9,10 L-6,12 L-3,13 L-2,19 L-7,20 L-10,19 L-15,20 L-15,11 L-11,7 L-3,7 L-3,4 L-5,4 L-4,2 Z " fill="#50443A" transform="translate(90,33)"/>
<path d="M0,0 L6,1 L6,3 L12,3 L13,5 L23,4 L21,6 L11,8 L8,16 L4,17 L8,19 L6,21 L0,20 L0,13 L-5,16 L-8,15 L-5,14 L-5,12 L-8,12 L-9,15 L-13,14 L-11,13 L-12,10 L-10,10 L-9,7 L-12,6 L-12,4 L-6,4 L-5,5 L-5,11 L2,9 L6,10 L8,10 L7,4 L1,3 Z " fill="#38200F" transform="translate(80,42)"/>
<path d="M0,0 L0,3 L0,6 L7,5 L7,11 L3,9 L0,12 L2,12 L1,15 L-1,15 L-1,13 L-8,16 L-4,17 L-4,21 L-6,21 L-6,27 L-9,27 L-10,18 L-14,19 L-14,17 L-12,17 L-11,10 L-8,10 L-9,5 L-7,5 L-5,1 L-4,4 Z " fill="#130F0C" transform="translate(113,52)"/>
<path d="M0,0 L2,1 L0,7 L1,11 L9,12 L10,20 L7,20 L7,22 L5,22 L5,20 L-4,19 L-5,11 L-10,11 L-8,5 L-5,4 L-3,1 Z " fill="#1E0F0B" transform="translate(48,56)"/>
<path d="M0,0 L1,0 L1,5 L3,4 L2,2 L5,2 L6,6 L5,9 L18,11 L17,17 L22,16 L21,20 L16,19 L16,17 L12,17 L15,21 L11,21 L7,19 L7,17 L5,17 L6,14 L4,13 L4,15 L1,14 L1,11 L-1,10 L0,5 L-3,5 L-3,1 Z " fill="#5E4F44" transform="translate(44,38)"/>
<path d="M0,0 L11,0 L12,2 L10,2 L10,5 L17,5 L17,7 L22,9 L21,13 L33,15 L36,19 L36,17 L38,17 L38,19 L41,20 L40,24 L35,22 L30,19 L25,20 L23,16 L22,14 L18,13 L18,11 L16,13 L16,11 L14,10 L17,10 L17,8 L0,6 L2,4 L5,3 L0,2 Z " fill="#36363A" transform="translate(73,16)"/>
<path d="M0,0 L13,1 L18,2 L17,7 L19,7 L19,12 L17,14 L12,15 L12,11 L7,10 L6,8 L0,6 L3,5 L2,1 Z " fill="#393135" transform="translate(62,23)"/>
<path d="M0,0 L2,0 L2,2 L7,2 L5,3 L5,5 L8,6 L9,9 L11,11 L8,12 L7,15 L1,15 L0,12 L-5,15 L-8,15 L-5,10 L-5,2 Z " fill="#171718" transform="translate(35,15)"/>
<path d="M0,0 L6,0 L8,7 L12,8 L13,1 L15,1 L16,3 L16,9 L10,10 L11,14 L10,17 L17,19 L17,21 L14,22 L13,24 L10,24 L9,22 L6,21 L5,17 L7,16 L5,14 L7,9 L3,8 L3,3 L0,3 Z " fill="#312E32" transform="translate(115,30)"/>
<path d="M0,0 L6,0 L7,3 L16,2 L16,4 L18,4 L18,7 L8,8 L8,12 L5,14 L-2,13 L-9,13 L-8,11 L-2,10 L1,7 L2,4 L0,4 Z " fill="#0E0402" transform="translate(69,33)"/>
<path d="M0,0 L1,0 L1,5 L8,7 L8,13 L9,15 L2,14 L1,18 L-5,11 L-8,9 L-8,4 L-1,3 Z " fill="#090809" transform="translate(112,15)"/>
<path d="M0,0 L5,1 L3,3 L2,2 L1,4 L5,4 L5,7 L10,8 L7,3 L12,4 L12,6 L19,7 L19,10 L6,12 L5,14 L3,14 L3,16 L1,16 L-1,12 L-3,10 L1,8 L1,6 L-1,8 L-1,2 Z " fill="#0A0303" transform="translate(48,51)"/>
<path d="M0,0 L4,0 L4,2 L11,3 L8,5 L-3,5 L-2,9 L-4,10 L2,11 L2,14 L-6,13 L-7,8 L-9,8 L-10,6 L-11,9 L-16,8 L-18,7 L-17,3 L0,2 Z " fill="#1F191B" transform="translate(67,19)"/>
<path d="M0,0 L4,2 L0,7 L4,8 L4,5 L9,2 L8,8 L10,8 L12,2 L15,1 L14,6 L11,10 L6,11 L3,10 L3,12 L-2,13 L-3,16 L-9,16 L-9,14 L-4,12 L-9,11 L-7,9 L-3,9 Z " fill="#615857" transform="translate(91,49)"/>
<path d="M0,0 L1,2 L5,4 L10,7 L10,5 L12,5 L12,1 L15,1 L15,5 L19,6 L18,11 L20,14 L17,14 L18,17 L12,17 L11,8 L7,9 L5,8 L5,6 L0,4 L-3,3 L0,2 Z " fill="#0A0808" transform="translate(103,33)"/>
<path d="M0,0 L5,1 L4,4 L2,4 L1,8 L-2,8 L-2,10 L2,10 L2,5 L5,7 L5,11 L3,11 L2,16 L1,16 L1,11 L-9,12 L-13,12 L-13,10 L-15,9 L-15,7 L-10,7 L-9,8 L-4,8 L-3,5 L-7,5 L-7,3 Z " fill="#1E1819" transform="translate(94,68)"/>
<path d="M0,0 L5,0 L5,4 L7,4 L6,8 L4,8 L3,11 L-4,13 L-10,12 L-12,11 L-12,8 L-2,8 L-2,5 L0,5 Z " fill="#35291D" transform="translate(64,33)"/>
<path d="M0,0 L5,1 L6,2 L6,1 L13,1 L10,2 L9,6 L7,9 L10,9 L11,7 L14,7 L14,9 L11,11 L5,11 L4,8 L0,8 L1,2 L-1,1 Z " fill="#604734" transform="translate(61,47)"/>
<path d="M0,0 L4,1 L8,3 L9,8 L14,10 L13,15 L10,15 L10,12 L2,12 L3,8 L4,7 L2,3 L0,2 Z " fill="#252023" transform="translate(40,18)"/>
<path d="M0,0 L2,1 L0,7 L2,13 L-2,13 L-2,11 L-10,11 L-8,5 L-5,4 L-3,1 Z " fill="#332623" transform="translate(48,56)"/>
<path d="M0,0 L6,1 L6,3 L12,3 L13,5 L23,4 L21,6 L11,8 L9,14 L4,14 L3,12 L8,10 L7,4 L1,3 Z " fill="#2B1F14" transform="translate(80,42)"/>
<path d="M0,0 L10,1 L15,2 L18,6 L18,4 L20,4 L20,6 L23,7 L22,11 L17,9 L12,6 L7,7 L5,3 L4,1 Z " fill="#736C71" transform="translate(91,29)"/>
<path d="M0,0 L7,1 L8,7 L3,8 L0,7 L-5,8 L-5,2 L-3,2 L-3,5 L0,5 Z " fill="#817161" transform="translate(80,45)"/>
<path d="M0,0 L5,0 L4,5 L8,3 L8,5 L13,7 L13,9 L20,10 L22,14 L17,14 L17,12 L14,12 L14,14 L12,14 L13,10 L8,8 L8,6 L1,6 L2,2 Z " fill="#0A090C" transform="translate(82,15)"/>
<path d="M0,0 L2,0 L2,3 L-4,4 L-4,6 L-1,7 L-8,11 L-10,11 L-10,8 L-7,8 L-9,5 L-13,3 L-9,2 L-7,3 L-7,1 Z " fill="#090405" transform="translate(80,63)"/>
<path d="M0,0 L5,2 L12,5 L18,7 L17,9 L15,9 L15,11 L13,11 L13,9 L9,8 L7,7 L6,9 L6,6 L4,6 L4,4 L-1,5 L-2,1 Z " fill="#75655F" transform="translate(90,33)"/>
<path d="M0,0 L6,0 L6,4 L5,12 L1,16 L-1,15 L-1,13 L0,10 L2,10 L2,7 L-2,8 L0,4 Z " fill="#575357" transform="translate(108,41)"/>
<path d="M0,0 L1,3 L-3,9 L-8,10 L-11,9 L-11,11 L-13,11 L-13,6 L-10,7 L-10,4 L-5,1 L-6,7 L-4,7 L-2,1 Z " fill="#756965" transform="translate(105,50)"/>
<path d="M0,0 L3,0 L4,7 L2,7 L2,10 L-3,10 L-1,9 L-3,4 L-4,8 L-8,8 L-8,6 L-5,6 L-5,1 Z " fill="#060707" transform="translate(100,70)"/>
<path d="M0,0 L8,3 L9,6 L11,8 L6,10 L4,8 L-1,7 Z " fill="#010202" transform="translate(35,18)"/>
<path d="M0,0 L6,0 L5,5 L7,5 L7,10 L5,12 L2,12 L2,8 L4,8 L4,5 L1,5 L0,7 L-1,4 L-3,4 L-3,2 L0,2 Z " fill="#6E6464" transform="translate(74,25)"/>
<path d="M0,0 L4,1 L3,2 L7,3 L7,5 L3,6 L7,8 L5,10 L-1,9 L-1,2 L-3,1 Z " fill="#514433" transform="translate(81,53)"/>
<path d="M0,0 L9,3 L9,5 L6,6 L5,8 L2,8 L1,6 L-2,5 L-3,1 Z " fill="#1E110A" transform="translate(123,46)"/>
<path d="M0,0 L2,1 L3,3 L12,2 L12,4 L14,4 L14,7 L5,8 L5,5 L0,6 L-1,4 Z " fill="#1C0F08" transform="translate(73,33)"/>
<path d="M0,0 L2,0 L2,7 L4,8 L2,9 L-5,9 L-5,7 L-2,6 L-1,7 L-1,5 L-10,4 L-10,3 L-3,2 Z " fill="#847266" transform="translate(78,55)"/>
<path d="M0,0 L5,1 L7,0 L9,4 L14,9 L15,11 L10,9 L9,7 L0,4 Z " fill="#565356" transform="translate(96,20)"/>
<path d="M0,0 L3,3 L-1,8 L3,7 L3,10 L1,11 L-1,16 L-3,16 L-2,10 L-4,10 L-4,8 L-2,8 L-2,5 L-4,4 L-2,3 L-2,1 Z " fill="#3A312F" transform="translate(107,41)"/>
<path d="M0,0 L2,0 L2,2 L6,2 L7,0 L7,3 L10,3 L11,7 L11,10 L8,10 L8,7 L6,7 L6,4 L1,5 Z " fill="#312728" transform="translate(34,40)"/>
<path d="M0,0 L5,1 L5,3 L12,4 L12,7 L9,8 L2,8 L6,7 L3,5 Z " fill="#2D1D14" transform="translate(55,54)"/>
<path d="M0,0 L20,0 L17,1 L17,5 L15,5 L14,3 L10,3 L8,5 L-1,2 Z " fill="#180D04" transform="translate(51,45)"/>
<path d="M0,0 L8,0 L13,2 L13,4 L20,5 L20,6 L11,7 L11,5 L8,4 L10,3 L4,1 L3,3 L3,1 Z " fill="#0E0C0E" transform="translate(60,14)"/>
<path d="M0,0 L5,0 L5,4 L7,4 L6,8 L4,7 L2,7 L-2,6 L0,5 Z " fill="#352724" transform="translate(64,33)"/>
<path d="M0,0 L5,0 L5,6 L-3,5 L-3,2 Z " fill="#685A54" transform="translate(59,32)"/>
<path d="M0,0 L12,1 L17,4 L16,8 L14,8 L13,6 L11,8 L11,6 L9,5 L12,5 L12,3 L0,2 Z " fill="#505056" transform="translate(78,21)"/>
<path d="M0,0 L3,0 L3,4 L1,4 L1,10 L-2,10 L-3,2 Z " fill="#222224" transform="translate(106,69)"/>
<path d="M0,0 L5,0 L2,2 L1,10 L-2,10 L-2,7 L-4,6 L-2,1 Z " fill="#483A2B" transform="translate(79,40)"/>
<path d="M0,0 L5,1 L4,4 L2,4 L1,8 L-2,7 L-1,5 L-7,5 L-7,3 Z " fill="#49423D" transform="translate(94,68)"/>
<path d="M0,0 L13,0 L13,4 L3,3 L3,1 Z " fill="#100702" transform="translate(49,38)"/>
<path d="M0,0 L6,0 L7,2 L2,3 L2,5 L4,5 L4,7 L1,7 L-1,3 L-6,4 L-6,2 Z " fill="#0F0A0C" transform="translate(82,65)"/>
<path d="M0,0 L2,1 L2,4 L9,6 L12,9 L2,7 L-6,2 L-2,1 Z " fill="#433A3D" transform="translate(96,31)"/>
<path d="M0,0 L8,2 L11,3 L12,6 L10,6 L10,4 L5,4 L5,6 L2,6 L2,4 L-1,4 Z " fill="#211E1E" transform="translate(77,11)"/>
<path d="M0,0 L4,2 L4,5 L6,5 L5,8 L3,8 L3,6 L-2,6 L-1,1 Z " fill="#181816" transform="translate(109,59)"/>
<path d="M0,0 L1,2 L5,4 L10,6 L12,6 L11,9 L5,8 L5,6 L0,4 L-3,3 L0,2 Z " fill="#0F0F14" transform="translate(103,33)"/>
<path d="M0,0 L4,2 L5,6 L1,6 L1,4 L-5,3 L-5,1 Z " fill="#5C4A44" transform="translate(45,63)"/>
<path d="M0,0 L2,0 L1,6 L6,5 L5,9 L0,8 L0,6 L-3,6 L-3,2 L-1,2 Z " fill="#877261" transform="translate(60,49)"/>
<path d="M0,0 L5,0 L9,2 L9,5 L4,4 L4,6 L1,5 L1,2 L-1,1 Z " fill="#483E3E" transform="translate(44,47)"/>
<path d="M0,0 L3,1 L5,5 L3,7 L3,5 L-7,4 L-7,1 L-4,1 L-4,3 L0,1 Z " fill="#18151D" transform="translate(103,26)"/>
<path d="M0,0 L4,2 L4,4 L10,3 L9,5 L7,4 L6,8 L6,6 L2,5 L0,3 L-3,4 L-2,1 Z " fill="#343136" transform="translate(89,16)"/>
<path d="M0,0 L8,1 L11,3 L8,4 L8,6 L6,6 L6,4 L2,3 L0,2 Z " fill="#897C7C" transform="translate(97,38)"/>
<path d="M0,0 L5,1 L6,7 L3,7 L3,9 L1,9 Z " fill="#332420" transform="translate(52,69)"/>
<path d="M0,0 L2,0 L2,3 L-4,4 L-4,6 L-1,7 L-6,7 L-6,1 Z " fill="#3E3434" transform="translate(80,63)"/>
<path d="M0,0 L5,1 L3,3 L2,2 L1,4 L3,4 L4,10 L1,9 L1,6 L-1,8 L-1,2 Z " fill="#1A0E0E" transform="translate(48,51)"/>
<path d="M0,0 L3,1 L3,8 L1,9 L1,7 L-4,6 Z M3,3 Z " fill="#140B09" transform="translate(131,42)"/>
<path d="M0,0 L2,0 L2,2 L7,2 L5,3 L5,5 L1,4 L-1,6 L-1,4 L-4,5 L-5,2 Z " fill="#0A0C0D" transform="translate(35,15)"/>
<path d="M0,0 L1,3 L-3,9 L-8,10 L-7,7 L-4,7 L-2,1 Z " fill="#8E8480" transform="translate(105,50)"/>
<path d="M0,0 L5,0 L4,5 L8,3 L8,5 L10,6 L8,7 L1,6 L2,2 Z " fill="#0E1013" transform="translate(82,15)"/>
<path d="M0,0 L2,0 L3,2 L3,8 L-4,9 L-3,7 L-1,7 Z " fill="#302A2D" transform="translate(128,31)"/>
<path d="M0,0 L2,1 L1,3 L4,4 L3,7 L-4,6 L-6,4 L-2,3 Z " fill="#211715" transform="translate(91,26)"/>
<path d="M0,0 L4,0 L4,3 L2,3 L2,5 L-3,6 L-4,4 Z " fill="#7F7674" transform="translate(64,61)"/>
<path d="M0,0 L2,0 L2,2 L5,2 L5,5 L3,5 L3,7 L1,7 L-1,3 L-3,1 Z " fill="#140805" transform="translate(48,60)"/>
<path d="M0,0 L6,0 L6,7 L4,7 L3,4 L0,3 Z " fill="#494244" transform="translate(115,30)"/>
<path d="M0,0 L3,2 L3,6 L1,6 L0,11 L-1,11 L-1,6 L-4,5 L0,5 Z " fill="#2A2A29" transform="translate(96,73)"/>
<path d="M0,0 L8,0 L6,1 L6,5 L-1,3 Z " fill="#424146" transform="translate(55,62)"/>
<path d="M0,0 L4,1 L3,5 L1,9 L-2,9 L-2,5 L1,5 Z " fill="#060301" transform="translate(104,57)"/>
<path d="M0,0 L3,0 L3,2 L7,4 L5,6 L-1,5 Z " fill="#221612" transform="translate(81,57)"/>
<path d="M0,0 L3,0 L3,5 L1,7 L-2,7 L-2,3 L0,3 Z " fill="#5D524C" transform="translate(78,30)"/>
<path d="M0,0 L2,2 L0,5 L-5,4 L-6,6 L-8,5 L-8,2 L0,2 Z " fill="#2B1C16" transform="translate(77,58)"/>
<path d="M0,0 L3,1 L1,3 L-2,3 L-2,5 L-5,7 L-8,6 L-5,5 L-3,1 Z " fill="#22130A" transform="translate(80,51)"/>
<path d="M0,0 L0,3 L-3,4 L-3,7 L-8,7 L-6,3 Z " fill="#291B16" transform="translate(98,50)"/>
<path d="M0,0 L3,0 L3,5 L7,7 L2,7 L0,8 L-1,5 L1,5 Z " fill="#362712" transform="translate(49,39)"/>
<path d="M0,0 L1,2 L6,0 L9,0 L9,3 L7,3 L6,8 L5,4 L0,3 Z " fill="#352A22" transform="translate(69,30)"/>
<path d="M0,0 L2,1 L1,3 L3,3 L3,7 L-2,7 L-3,4 L-1,4 Z " fill="#3F343A" transform="translate(57,24)"/>
<path d="M0,0 L8,1 L8,6 L3,3 L-1,4 Z " fill="#4B4547" transform="translate(67,23)"/>
<path d="M0,0 L3,1 L6,4 L6,6 L1,5 L-1,4 Z " fill="#141013" transform="translate(50,22)"/>
<path d="M0,0 L4,1 L2,6 L-4,7 L-4,5 L0,3 Z " fill="#2B2225" transform="translate(88,63)"/>
<path d="M0,0 L8,0 L7,4 L3,4 L3,2 L0,1 Z " fill="#242226" transform="translate(104,15)"/>
<path d="M0,0 L6,0 L6,4 L5,6 L0,5 L1,3 Z " fill="#454950" transform="translate(108,41)"/>
<path d="M0,0 L5,2 L4,5 L4,3 L2,3 L2,5 L-4,3 L0,2 Z " fill="#2B1D19" transform="translate(97,40)"/>
<path d="M0,0 L5,0 L6,4 L-1,3 Z " fill="#160E11" transform="translate(59,24)"/>
<path d="M0,0 L6,2 L7,5 L0,4 Z " fill="#69656A" transform="translate(96,20)"/>
<path d="M0,0 L3,0 L3,8 L0,7 Z " fill="#1C1921" transform="translate(137,0)"/>
<path d="M0,0 L4,2 L0,6 L-2,9 L-1,1 Z " fill="#8C7F75" transform="translate(91,49)"/>
<path d="M0,0 L7,2 L7,4 L1,6 Z " fill="#685E56" transform="translate(125,47)"/>
<path d="M0,0 L3,3 L-2,8 L-2,5 L-4,4 L-2,3 L-2,1 Z " fill="#191B1D" transform="translate(107,41)"/>
<path d="M0,0 L1,3 L3,4 L1,5 L-6,5 L-6,3 L-3,2 L-2,3 Z " fill="#675650" transform="translate(79,59)"/>
<path d="M0,0 L4,0 L4,2 L1,2 L1,5 L-4,5 L-4,3 L0,2 Z " fill="#615C54" transform="translate(101,60)"/>
<path d="M0,0 L2,0 L2,3 L5,3 L6,1 L5,5 L0,6 Z " fill="#614C38" transform="translate(75,47)"/>
<path d="M0,0 L6,1 L6,3 L11,3 L11,5 L4,4 L0,2 Z " fill="#1A140C" transform="translate(80,42)"/>
<path d="M0,0 L2,0 L1,7 L-2,10 L-4,9 L-1,4 Z " fill="#525153" transform="translate(31,21)"/>
<path d="M0,0 L1,2 L0,5 L-5,5 L-4,1 Z " fill="#4A3E3B" transform="translate(68,38)"/>
<path d="M0,0 L5,1 L5,3 L1,3 L2,6 L-1,5 Z " fill="#2F2C30" transform="translate(108,30)"/>
<path d="M0,0 L3,2 L3,7 L-2,8 L-2,6 L1,6 Z " fill="#1A0D09" transform="translate(57,70)"/>
<path d="M0,0 L5,1 L5,3 L3,3 L3,5 L0,4 L1,2 L-1,1 Z " fill="#3D2914" transform="translate(61,47)"/>
<path d="M0,0 L4,1 L1,1 L1,5 L-1,5 L-2,3 L-7,3 L-7,1 Z " fill="#2C190A" transform="translate(67,45)"/>
<path d="M0,0 L6,1 L8,2 L7,6 L7,4 L3,3 L0,2 Z " fill="#151517" transform="translate(112,20)"/>
<path d="M0,0 L4,1 L7,4 L5,4 L5,6 L3,6 L2,3 L0,2 Z " fill="#4C4B4F" transform="translate(40,18)"/>
<path d="M0,0 L4,4 L8,6 L3,7 L0,5 Z " fill="#45423E" transform="translate(90,8)"/>
<path d="M0,0 L2,0 L2,3 L5,3 L5,5 L0,5 L-1,1 Z " fill="#261611" transform="translate(47,71)"/>
<path d="M0,0 L1,2 L5,3 L-1,6 L-3,6 L-3,3 L0,3 Z " fill="#1F1518" transform="translate(73,68)"/>
<path d="M0,0 L4,1 L1,6 L-1,6 Z " fill="#281E19" transform="translate(100,51)"/>
<path d="M0,0 L2,0 L2,2 L6,3 L4,5 L0,4 Z " fill="#181415" transform="translate(34,40)"/>
<path d="M0,0 L2,1 L1,5 L-4,3 L-6,1 Z " fill="#3E2D28" transform="translate(96,31)"/>
<path d="M0,0 L12,0 L12,1 L4,2 L2,4 L2,2 L0,2 Z " fill="#342E31" transform="translate(75,23)"/>
<path d="M0,0 L3,0 L4,6 L2,6 L2,4 L0,4 Z " fill="#47403D" transform="translate(38,49)"/>
<path d="M0,0 L5,1 L6,7 L5,4 L1,3 Z " fill="#5A4F40" transform="translate(82,45)"/>
<path d="M0,0 L1,2 L5,4 L2,5 L-3,4 L-2,2 L0,2 Z " fill="#201E24" transform="translate(103,33)"/>
<path d="M0,0 L2,1 L2,5 L-3,5 Z " fill="#444143" transform="translate(48,25)"/>
<path d="M0,0 L2,0 L2,2 L-5,4 L-4,1 Z " fill="#110505" transform="translate(68,71)"/>
<path d="M0,0 L8,0 L6,1 L6,3 L2,2 Z " fill="#291F20" transform="translate(60,67)"/>
<path d="M0,0 L4,2 L4,5 L0,3 Z " fill="#847268" transform="translate(54,55)"/>
<path d="M0,0 L7,1 L7,3 L0,2 Z " fill="#5D4E3A" transform="translate(52,42)"/>
<path d="M0,0 L2,0 L2,2 L5,3 L3,7 L3,4 L1,4 Z " fill="#5A575B" transform="translate(109,33)"/>
<path d="M0,0 L1,2 L3,2 L3,5 L0,5 L0,3 L-2,3 L-2,1 Z " fill="#514B4C" transform="translate(70,27)"/>
<path d="M0,0 L4,2 L0,3 L-3,4 L-2,1 Z " fill="#49494D" transform="translate(89,16)"/>
<path d="M0,0 L2,0 L2,6 L-1,5 Z " fill="#110B0A" transform="translate(118,57)"/>
<path d="M0,0 L2,0 L2,3 L0,3 L0,5 L-3,5 L-3,3 L-1,3 Z " fill="#73665E" transform="translate(103,46)"/>
<path d="M0,0 L4,1 L4,3 L1,3 L0,5 L-1,1 Z " fill="#23160F" transform="translate(91,38)"/>
<path d="M0,0 L2,0 L2,2 L4,2 L4,5 L1,5 L1,2 L-1,1 Z " fill="#271B14" transform="translate(83,35)"/>
<path d="M0,0 L6,1 L2,4 L2,2 L-2,1 Z " fill="#2C272A" transform="translate(53,22)"/>
<path d="M0,0 L6,1 L2,4 L-1,4 Z " fill="#1C1213" transform="translate(77,11)"/>
<path d="M0,0 L3,1 L3,5 L0,5 Z " fill="#2A2B31" transform="translate(104,74)"/>
<path d="M0,0 L2,0 L3,4 L-3,3 Z " fill="#271F20" transform="translate(81,70)"/>
<path d="M0,0 L7,0 L4,1 L4,3 L1,3 Z " fill="#5B3E2A" transform="translate(67,48)"/>
<path d="M0,0 L5,0 L5,4 L1,2 Z " fill="#515359" transform="translate(56,63)"/>
<path d="M0,0 L3,1 L2,4 L0,4 L0,2 L-3,1 Z " fill="#151615" transform="translate(112,63)"/>
<path d="M0,0 L4,1 L1,2 L1,4 L-1,4 Z " fill="#938F94" transform="translate(104,40)"/>
<path d="M0,0 L2,0 L0,5 L-2,1 Z " fill="#6F6059" transform="translate(90,33)"/>
<path d="M0,0 L3,1 L3,3 L-2,3 L-2,1 Z " fill="#584C4F" transform="translate(57,28)"/>
<path d="M0,0 L4,0 L4,2 L6,3 L0,2 Z " fill="#211F23" transform="translate(67,19)"/>
<path d="M0,0 L3,0 L3,5 L0,4 L0,1 Z " fill="#312E2F" transform="translate(92,71)"/>
<path d="M0,0 L4,0 L4,2 L-1,3 Z " fill="#343434" transform="translate(108,62)"/>
<path d="M0,0 L3,1 L2,5 L0,5 Z " fill="#726E72" transform="translate(92,56)"/>
<path d="M0,0 L4,1 L4,3 L-1,2 Z " fill="#1A0B06" transform="translate(63,57)"/>
<path d="M0,0 L5,1 L2,4 Z " fill="#584C44" transform="translate(125,47)"/>
<path d="M0,0 L4,1 L3,3 L-2,2 Z " fill="#373A40" transform="translate(110,44)"/>
<path d="M0,0 L7,1 L4,3 Z " fill="#100604" transform="translate(85,30)"/>
<path d="M0,0 L4,5 L0,5 Z " fill="#0C0D10" transform="translate(42,21)"/>
<path d="M0,0 L3,3 L-2,3 L-2,1 Z " fill="#867875" transform="translate(75,61)"/>
<path d="M0,0 L2,4 L2,6 L-1,5 Z " fill="#271915" transform="translate(50,55)"/>
<path d="M0,0 L2,1 L2,4 L-1,4 Z " fill="#2A1508" transform="translate(78,46)"/>
<path d="M0,0 L3,1 L1,4 L-1,3 Z " fill="#4C4445" transform="translate(123,43)"/>
<path d="M0,0 L3,0 L2,4 L0,3 Z " fill="#2E1E08" transform="translate(49,39)"/>
<path d="M0,0 L4,1 L0,4 Z " fill="#3C302D" transform="translate(64,33)"/>
<path d="M0,0 L5,0 L3,1 L3,3 L0,2 Z " fill="#2B2C2D" transform="translate(37,17)"/>
<path d="M0,0 L3,0 L3,3 L0,3 Z " fill="#2B2A28" transform="translate(115,57)"/>
<path d="M0,0 L3,1 L0,3 L-3,1 Z " fill="#2F1F0D" transform="translate(80,51)"/>
<path d="M0,0 L4,1 L3,4 L0,2 Z " fill="#574B46" transform="translate(85,35)"/>
<path d="M0,0 L3,0 L3,3 L0,3 Z " fill="#262526" transform="translate(37,26)"/>
<path d="M0,0 L2,0 L1,4 L-1,3 Z " fill="#151515" transform="translate(35,15)"/>
<path d="M0,0 L3,0 L3,3 L0,2 Z " fill="#362F32" transform="translate(81,78)"/>
<path d="M0,0 L2,0 L2,3 L-1,3 Z " fill="#1B191E" transform="translate(108,48)"/>
<path d="M0,0 L3,1 L1,4 L1,2 L-1,1 Z " fill="#513D2B" transform="translate(61,47)"/>
<path d="M0,0 L3,0 L3,3 L0,2 Z " fill="#392F2A" transform="translate(75,30)"/>
<path d="M0,0 L3,0 L2,3 L0,3 Z " fill="#221E24" transform="translate(96,27)"/>
<path d="M0,0 L3,1 L-1,3 Z " fill="#46484F" transform="translate(82,16)"/>
<path d="M0,0 L3,0 L2,3 L0,3 Z " fill="#0D0D0D" transform="translate(27,15)"/>
<path d="M0,0 L2,0 L1,3 L-1,3 Z " fill="#372821" transform="translate(47,71)"/>
<path d="M0,0 L2,1 L2,3 L-1,3 Z " fill="#5B4430" transform="translate(62,52)"/>
<path d="M0,0 L2,0 L1,3 L-1,3 Z " fill="#8D7B73" transform="translate(92,34)"/>
</svg>
