<?xml version="1.0" encoding="UTF-8"?>
<!-- Generator: visioncortex VTracer 0.6.5 -->
<svg version="1.1" xmlns="http://www.w3.org/2000/svg" width="150" height="84">
<path d="M0,0 L150,0 L150,84 L0,84 Z " fill="#010101" transform="translate(0,0)"/>
<path d="M0,0 L48,0 L48,6 L51,8 L51,10 L54,10 L54,14 L52,16 L49,16 L49,19 L60,19 L60,17 L67,17 L67,19 L69,19 L69,21 L61,19 L61,21 L65,21 L66,25 L62,25 L62,27 L52,28 L51,27 L43,29 L38,29 L38,31 L35,31 L35,33 L33,34 L35,35 L35,42 L36,46 L34,46 L34,54 L30,54 L29,56 L28,54 L26,54 L25,56 L22,55 L22,53 L20,53 L21,60 L23,60 L23,63 L20,62 L20,60 L16,60 L20,68 L23,71 L26,72 L26,70 L29,70 L30,74 L38,74 L43,75 L42,72 L35,72 L32,69 L32,67 L35,67 L33,60 L34,58 L36,58 L36,60 L42,62 L42,64 L47,66 L47,68 L50,68 L51,63 L54,63 L54,61 L50,60 L48,60 L39,59 L39,54 L43,54 L45,55 L44,49 L47,50 L47,53 L54,51 L60,51 L60,53 L54,54 L49,54 L50,56 L58,56 L60,57 L59,62 L56,63 L62,66 L58,68 L58,70 L60,69 L72,68 L73,66 L80,67 L81,65 L87,65 L86,70 L81,72 L89,73 L90,70 L95,70 L95,68 L90,68 L93,66 L97,63 L99,63 L99,65 L104,65 L110,61 L112,61 L113,57 L118,58 L119,63 L122,65 L122,68 L127,65 L137,65 L137,63 L139,63 L140,52 L142,46 L150,46 L150,84 L0,84 Z " fill="#020101" transform="translate(0,0)"/>
<path d="M0,0 L7,2 L7,3 L2,3 L2,5 L9,7 L11,9 L20,12 L21,18 L24,18 L24,30 L22,30 L22,26 L19,25 L21,24 L19,19 L14,18 L14,16 L11,16 L11,14 L7,15 L12,19 L11,22 L4,20 L4,18 L2,18 L5,21 L10,24 L16,25 L17,31 L19,31 L20,28 L21,29 L21,36 L19,39 L16,38 L16,36 L14,36 L14,40 L16,40 L16,44 L19,43 L19,45 L17,45 L17,47 L14,46 L13,49 L5,54 L0,53 L0,51 L-6,55 L-4,56 L-4,58 L-9,58 L-10,62 L-18,61 L-19,59 L-13,58 L-12,53 L-19,55 L-26,54 L-27,57 L-41,58 L-41,56 L-39,55 L-44,51 L-40,50 L-39,45 L-50,45 L-50,42 L-39,41 L-38,47 L-36,48 L-35,49 L-35,46 L-31,44 L-29,40 L-27,40 L-26,38 L-24,38 L-24,32 L-21,33 L-20,29 L-11,29 L-11,25 L-7,24 L-5,25 L-5,27 L-1,26 L-2,22 L-1,18 L-2,14 L-5,12 L-8,12 L-6,16 L-3,17 L-3,19 L-8,18 L-12,16 L-12,13 L-14,13 L-14,11 L-20,10 L-20,9 L-14,8 L-14,6 L-9,6 L-9,4 L-11,2 L-6,2 Z " fill="#25262A" transform="translate(99,12)"/>
<path d="M0,0 L15,0 L18,4 L16,5 L20,6 L20,8 L12,8 L12,2 L3,2 L3,6 L9,8 L17,9 L17,11 L12,11 L12,14 L18,13 L18,15 L28,16 L27,20 L23,20 L23,23 L27,23 L25,27 L22,26 L22,28 L28,27 L30,28 L28,23 L35,24 L35,27 L38,28 L38,30 L40,31 L38,31 L37,38 L31,39 L30,38 L30,30 L22,30 L21,35 L24,35 L24,38 L18,39 L16,38 L16,34 L6,33 L4,39 L-1,40 L-3,39 L-3,42 L-5,41 L-3,37 L-1,34 L-5,36 L-7,39 L-6,43 L-7,46 L-2,48 L-1,45 L9,45 L12,47 L13,45 L14,53 L12,53 L12,51 L-1,53 L-2,50 L-4,49 L-2,55 L-5,55 L-8,54 L-9,59 L0,59 L2,58 L3,60 L6,61 L6,63 L3,63 L2,68 L-1,68 L-1,66 L-6,64 L-6,62 L-12,60 L-12,58 L-14,58 L-13,67 L-16,67 L-16,69 L-13,70 L-13,72 L-6,71 L-5,75 L-16,75 L-19,72 L-19,70 L-22,70 L-22,72 L-26,71 L-26,69 L-29,68 L-32,63 L-32,60 L-28,60 L-25,63 L-25,60 L-27,60 L-28,56 L-31,55 L-28,55 L-28,53 L-26,53 L-23,56 L-22,53 L-14,54 L-14,46 L-12,46 L-14,42 L-13,35 L-17,33 L-13,33 L-13,31 L-10,31 L-10,29 L3,27 L3,25 L5,26 L4,28 L6,27 L14,27 L14,25 L17,24 L17,21 L13,21 L13,19 L19,20 L21,21 L21,19 L19,19 L19,17 L12,17 L12,19 L7,20 L0,20 L2,14 L6,14 L6,10 L3,10 L-1,6 L-1,1 Z " fill="#443E41" transform="translate(48,0)"/>
<path d="M0,0 L8,0 L8,38 L-51,38 L-51,31 L-50,30 L-44,30 L-44,32 L-47,32 L-47,34 L-43,33 L-40,32 L-40,30 L-43,29 L-43,27 L-37,25 L-31,25 L-31,23 L-29,23 L-29,21 L-34,21 L-34,16 L-30,15 L-29,11 L-24,12 L-23,17 L-20,19 L-20,22 L-15,19 L-5,19 L-5,17 L-3,17 L-2,6 Z " fill="#010001" transform="translate(142,46)"/>
<path d="M0,0 L7,0 L3,5 L7,5 L13,5 L15,10 L12,10 L12,12 L16,13 L8,14 L12,15 L12,17 L14,17 L16,21 L17,19 L20,22 L23,23 L23,21 L19,20 L18,17 L14,15 L21,15 L25,19 L26,24 L24,29 L26,30 L21,31 L21,29 L15,29 L15,33 L6,34 L5,37 L3,37 L2,42 L0,42 L-1,45 L-3,44 L-5,49 L-9,50 L-9,53 L-11,52 L-13,48 L-13,45 L-11,45 L-13,39 L-16,38 L-26,38 L-27,40 L-32,39 L-34,37 L-32,37 L-31,32 L-33,31 L-28,26 L-26,26 L-27,30 L-29,33 L-28,34 L-28,31 L-21,31 L-22,28 L-19,25 L-9,25 L-8,28 L-9,30 L-1,30 L-1,27 L-4,27 L-3,22 L5,22 L6,30 L12,30 L13,22 L10,19 L10,16 L4,16 L6,18 L5,20 L-3,20 L-3,18 L1,17 L2,15 L-2,15 L-2,12 L2,11 L2,9 L-13,8 L-13,7 L-7,7 L-5,2 L-2,2 L-1,4 Z M4,8 Z " fill="#0C0502" transform="translate(73,8)"/>
<path d="M0,0 L1,2 L14,4 L16,5 L16,3 L21,3 L17,6 L15,6 L14,8 L11,8 L10,10 L5,11 L4,11 L7,11 L12,11 L12,13 L7,15 L5,22 L2,25 L-1,25 L-1,23 L-7,24 L-5,18 L-1,17 L-1,14 L-7,14 L-9,9 L-12,8 L-12,13 L-9,13 L-9,20 L-15,20 L-13,25 L-18,25 L-19,27 L-27,27 L-28,23 L-27,18 L-23,16 L-21,12 L-19,12 L-18,10 L-16,10 L-16,4 L-13,5 L-12,1 L-6,1 L-9,3 L-9,5 L-7,5 L-7,7 L-5,5 L-5,3 L-1,4 Z " fill="#2D2927" transform="translate(91,40)"/>
<path d="M0,0 L5,0 L5,2 L8,2 L8,4 L13,5 L15,10 L14,11 L16,12 L16,16 L18,16 L18,11 L24,13 L24,16 L27,17 L28,23 L30,23 L31,21 L31,26 L29,28 L29,30 L27,30 L27,32 L24,32 L25,35 L27,36 L27,38 L21,41 L17,42 L17,39 L13,37 L12,34 L13,32 L11,31 L13,31 L13,29 L9,31 L10,26 L8,26 L8,22 L10,22 L13,25 L14,22 L14,15 L13,17 L11,17 L10,11 L4,11 L-4,6 L-4,4 L-2,4 L-2,6 L5,7 L3,3 Z " fill="#0D0C0F" transform="translate(105,26)"/>
<path d="M0,0 L4,0 L6,2 L5,6 L2,6 L2,4 L0,4 L-2,8 L-6,11 L-8,10 L-8,12 L-2,11 L-3,14 L-8,17 L-13,21 L-11,22 L-11,24 L-16,24 L-17,28 L-25,27 L-26,25 L-20,24 L-19,19 L-26,21 L-33,20 L-34,23 L-48,24 L-48,22 L-46,21 L-51,17 L-47,16 L-46,11 L-57,11 L-57,8 L-46,7 L-45,13 L-43,14 L-42,17 L-43,19 L-34,21 L-33,18 L-29,18 L-30,14 L-24,14 L-24,7 L-28,8 L-27,2 L-23,3 L-22,7 L-16,8 L-16,11 L-20,12 L-21,17 L-16,17 L-16,19 L-11,18 L-9,13 L-11,12 L-9,12 L-8,8 L-3,7 L-3,5 L-10,7 L-13,3 L-11,2 L-9,4 L-5,4 L-4,1 Z " fill="#605A5D" transform="translate(106,46)"/>
<path d="M0,0 L2,4 L0,6 L-1,11 L8,11 L10,10 L11,12 L14,13 L14,15 L11,15 L10,20 L7,20 L7,18 L2,16 L2,14 L-4,12 L-4,10 L-6,10 L-5,19 L-8,19 L-8,21 L-5,22 L-5,24 L2,23 L3,27 L-8,27 L-11,24 L-11,22 L-14,22 L-14,24 L-18,23 L-18,21 L-21,20 L-24,15 L-24,12 L-20,12 L-17,15 L-17,12 L-19,12 L-20,8 L-23,7 L-20,7 L-20,5 L-18,5 L-15,8 L-14,5 L-7,6 L-5,7 L-5,5 L-4,4 Z " fill="#1D0F0C" transform="translate(40,48)"/>
<path d="M0,0 L7,0 L3,5 L7,5 L13,5 L15,10 L12,10 L12,12 L16,13 L8,14 L12,15 L12,17 L14,17 L16,21 L17,19 L20,22 L23,23 L23,21 L19,20 L18,17 L14,15 L21,15 L25,19 L26,24 L24,29 L26,30 L21,31 L21,29 L15,29 L15,33 L12,33 L13,22 L10,19 L10,16 L4,16 L6,18 L5,20 L-3,20 L-3,18 L1,17 L2,15 L-2,15 L-2,12 L2,11 L2,9 L-13,8 L-13,7 L-7,7 L-5,2 L-2,2 L-1,4 Z M4,8 Z " fill="#151112" transform="translate(73,8)"/>
<path d="M0,0 L2,0 L2,2 L7,2 L11,0 L12,3 L17,3 L16,6 L14,6 L14,8 L8,8 L7,10 L2,10 L5,13 L5,15 L1,18 L-2,17 L-2,15 L1,15 L1,13 L-5,14 L-6,21 L-28,21 L-28,17 L-31,15 L-29,13 L-17,14 L-8,14 L-7,7 L-2,7 L-2,5 L-7,5 L-4,3 Z " fill="#252427" transform="translate(97,63)"/>
<path d="M0,0 L2,1 L0,6 L2,7 L-6,10 L-10,14 L-9,18 L-10,21 L-5,23 L-4,20 L6,20 L9,22 L10,20 L11,28 L9,28 L9,26 L-4,28 L-5,25 L-7,24 L-5,30 L-8,30 L-11,24 L-13,27 L-14,29 L-16,28 L-15,32 L-18,29 L-17,21 L-15,21 L-17,17 L-16,10 L-20,8 L-16,8 L-16,6 L-13,6 L-13,4 L0,2 Z " fill="#2A2426" transform="translate(51,25)"/>
<path d="M0,0 L8,0 L13,1 L15,6 L17,6 L17,8 L21,4 L25,4 L28,11 L27,16 L24,15 L24,21 L20,20 L18,19 L18,17 L13,17 L11,11 L9,10 L8,12 L8,9 L3,9 L0,6 L-4,5 L-6,4 L-6,2 Z " fill="#080303" transform="translate(107,13)"/>
<path d="M0,0 L7,1 L7,4 L10,5 L10,7 L12,8 L10,8 L9,15 L3,16 L2,15 L2,7 L-6,7 L-7,12 L-4,12 L-4,15 L-10,16 L-12,15 L-12,11 L-22,10 L-24,16 L-29,17 L-31,16 L-31,19 L-33,18 L-31,14 L-30,10 L-25,8 L-24,5 L-18,5 L-19,9 L-10,8 L-10,5 L-8,4 L-9,2 L-5,3 L-6,5 L0,4 L2,5 Z " fill="#372A27" transform="translate(76,23)"/>
<path d="M0,0 L7,0 L6,5 L1,7 L9,8 L10,10 L9,12 L-4,13 L-12,12 L-13,13 L-8,14 L-11,15 L-11,19 L-24,19 L-21,15 L-16,15 L-17,11 L-20,11 L-20,9 L-9,5 L-7,1 L0,2 Z M-15,10 Z " fill="#1D1213" transform="translate(80,65)"/>
<path d="M0,0 L2,0 L1,4 L-1,7 L0,8 L0,5 L6,7 L5,10 L15,9 L17,10 L17,13 L23,13 L23,11 L30,10 L30,16 L28,16 L27,19 L25,18 L23,23 L19,24 L19,27 L17,26 L15,22 L15,19 L17,19 L15,13 L12,12 L2,12 L1,14 L-4,13 L-6,11 L-4,11 L-3,6 L-5,5 Z " fill="#291810" transform="translate(45,34)"/>
<path d="M0,0 L7,3 L4,4 L4,9 L7,9 L7,16 L1,16 L3,21 L-2,21 L-3,23 L-11,23 L-12,19 L-11,14 L-7,12 L-5,8 L-3,8 L-2,6 L0,6 Z " fill="#503F37" transform="translate(75,44)"/>
<path d="M0,0 L3,0 L3,2 L6,3 L7,9 L9,9 L10,7 L10,12 L8,14 L8,16 L6,16 L6,18 L3,18 L4,21 L6,22 L6,24 L0,27 L-4,28 L-5,21 L-1,20 L-1,15 L-4,20 L-5,18 L-2,12 L1,11 L0,10 L-3,9 L-3,6 L0,6 Z " fill="#262024" transform="translate(126,40)"/>
<path d="M0,0 L7,0 L7,2 L9,2 L9,4 L1,2 L1,4 L5,4 L6,8 L2,8 L2,10 L-8,11 L-9,10 L-17,12 L-21,11 L-17,7 L-15,4 L-5,2 L0,2 Z " fill="#22181A" transform="translate(60,17)"/>
<path d="M0,0 L4,0 L6,2 L5,6 L2,6 L2,4 L0,4 L-2,8 L-6,11 L-8,10 L-8,12 L-2,11 L-3,14 L-8,17 L-13,21 L-11,22 L-11,24 L-16,24 L-17,28 L-25,27 L-26,25 L-20,24 L-20,17 L-16,17 L-16,19 L-11,18 L-9,13 L-11,12 L-9,12 L-8,8 L-3,7 L-3,5 L-10,7 L-13,3 L-11,2 L-9,4 L-5,4 L-4,1 Z " fill="#535254" transform="translate(106,46)"/>
<path d="M0,0 L5,0 L5,2 L2,3 L1,10 L-21,10 L-21,6 L-24,4 L-22,2 L-10,3 L-1,3 Z " fill="#1A1616" transform="translate(90,74)"/>
<path d="M0,0 L3,1 L3,4 L10,2 L16,2 L16,4 L10,5 L5,5 L6,7 L14,7 L16,8 L15,13 L12,15 L10,16 L10,12 L6,11 L4,11 L-5,10 L-5,5 L-1,5 L1,6 Z " fill="#190E0D" transform="translate(44,49)"/>
<path d="M0,0 L15,0 L18,4 L16,5 L20,6 L20,8 L12,8 L12,2 L3,2 L3,6 L9,8 L17,9 L16,11 L8,10 L9,13 L11,13 L11,17 L2,15 L6,14 L6,10 L3,10 L-1,6 L-1,1 Z " fill="#473F42" transform="translate(48,0)"/>
<path d="M0,0 L7,0 L11,4 L12,9 L10,14 L12,15 L7,16 L7,14 L1,14 L1,18 L-2,18 L-1,8 L1,8 L3,4 L6,7 L9,8 L9,6 L5,5 L4,2 Z " fill="#2D201C" transform="translate(87,23)"/>
<path d="M0,0 L1,3 L7,1 L10,3 L11,2 L16,2 L16,4 L11,6 L9,13 L6,16 L3,16 L3,14 L-3,15 L-1,9 L3,8 L2,5 L0,4 Z " fill="#4F4A4C" transform="translate(87,49)"/>
<path d="M0,0 L1,2 L6,3 L9,4 L10,1 L20,1 L23,3 L24,1 L25,9 L23,9 L23,7 L10,9 L9,6 L7,5 L9,11 L6,11 L4,8 L4,4 L0,3 Z " fill="#3E2B23" transform="translate(37,44)"/>
<path d="M0,0 L9,1 L11,6 L13,6 L13,8 L17,4 L21,4 L24,11 L23,16 L20,15 L19,13 L15,13 L15,11 L11,11 L8,5 L4,3 L-2,3 L-2,1 Z " fill="#221712" transform="translate(111,13)"/>
<path d="M0,0 L2,0 L5,3 L5,1 L13,1 L16,3 L15,7 L14,3 L10,7 L10,10 L12,5 L13,5 L13,13 L8,13 L9,17 L5,15 L4,12 L5,10 L3,9 L5,9 L5,7 L1,9 L2,4 L0,4 Z " fill="#1B0C09" transform="translate(113,48)"/>
<path d="M0,0 L2,0 L1,16 L0,18 L-2,18 L-2,20 L-9,20 L-7,19 L-7,17 L-10,16 L-10,13 L-7,13 L-7,11 L-5,11 L-6,8 L-3,7 L-2,5 Z " fill="#0F0907" transform="translate(139,45)"/>
<path d="M0,0 L4,0 L6,7 L14,6 L14,9 L19,10 L19,12 L26,11 L27,15 L16,15 L13,12 L13,10 L10,10 L10,12 L6,11 L6,9 L3,8 L0,3 Z " fill="#402D26" transform="translate(16,60)"/>
<path d="M0,0 L7,1 L7,4 L10,5 L10,7 L12,8 L10,8 L9,15 L3,16 L2,15 L2,7 L-1,6 L0,4 L2,5 Z " fill="#403531" transform="translate(76,23)"/>
<path d="M0,0 L7,0 L17,4 L18,8 L13,7 L13,5 L11,5 L10,7 L7,7 L8,10 L11,11 L11,13 L6,12 L2,10 L2,7 L0,7 L0,5 L-6,4 L-6,3 L0,2 Z " fill="#32363A" transform="translate(85,18)"/>
<path d="M0,0 L9,1 L9,5 L12,5 L12,7 L7,7 L7,10 L5,9 L5,12 L3,13 L-4,13 L-5,10 L-9,9 L-7,8 L1,8 L1,6 L4,5 L4,2 L0,2 Z " fill="#4F4244" transform="translate(61,19)"/>
<path d="M0,0 L2,0 L2,4 L5,3 L5,5 L3,5 L3,7 L0,6 L-1,9 L-9,14 L-14,13 L-15,10 L-12,8 L-8,9 L-8,7 L-5,5 L-8,4 L-7,2 Z " fill="#4B4B4D" transform="translate(113,52)"/>
<path d="M0,0 L4,1 L4,3 L10,4 L11,6 L15,7 L15,8 L8,8 L1,5 L0,8 L-4,7 L-4,9 L-1,10 L-6,11 L-6,9 L-8,9 L-9,6 L-2,5 L-2,1 Z " fill="#6A5C53" transform="translate(90,36)"/>
<path d="M0,0 L2,0 L2,2 L6,3 L5,8 L0,11 L-6,12 L-7,7 L-2,7 L-2,5 L-7,5 L-4,3 Z " fill="#060506" transform="translate(97,63)"/>
<path d="M0,0 L3,1 L5,6 L4,7 L6,8 L6,12 L8,12 L8,7 L14,9 L11,10 L12,17 L8,16 L7,20 L4,19 L4,11 L2,12 L2,2 L0,2 Z " fill="#070505" transform="translate(115,30)"/>
<path d="M0,0 L2,1 L0,6 L2,7 L-6,10 L-11,14 L-11,10 L-9,10 L-9,8 L-15,8 L-13,7 L-13,4 L0,2 Z " fill="#453939" transform="translate(51,25)"/>
<path d="M0,0 L12,1 L14,0 L15,2 L18,3 L18,5 L15,5 L14,10 L11,10 L11,8 L6,6 L6,4 L0,2 Z " fill="#5A5D64" transform="translate(36,58)"/>
<path d="M0,0 L10,0 L11,3 L10,5 L12,6 L9,6 L9,8 L2,6 L-2,7 L-3,3 Z " fill="#201612" transform="translate(54,33)"/>
<path d="M0,0 L9,0 L9,6 L16,6 L17,9 L16,11 L9,12 L9,9 L14,9 L14,7 L6,7 L0,4 Z " fill="#100B0D" transform="translate(51,2)"/>
<path d="M0,0 L18,2 L18,4 L6,5 L6,8 L1,8 L1,4 L-2,2 Z " fill="#4A3A37" transform="translate(68,76)"/>
<path d="M0,0 L7,2 L7,3 L-1,4 L-1,7 L1,8 L-3,9 L-7,7 L-11,2 L-6,2 Z " fill="#37393D" transform="translate(99,12)"/>
<path d="M0,0 L2,1 L1,5 L9,8 L17,9 L16,11 L8,10 L9,13 L11,13 L11,17 L2,15 L6,14 L6,10 L3,10 L-1,6 L-1,1 Z " fill="#2F2C2F" transform="translate(48,0)"/>
<path d="M0,0 L6,0 L3,2 L3,4 L5,4 L5,6 L10,5 L8,12 L10,13 L5,13 L3,6 L-1,5 Z " fill="#322823" transform="translate(79,41)"/>
<path d="M0,0 L7,0 L11,4 L12,9 L10,14 L12,15 L7,16 L7,14 L4,13 L8,11 L9,7 L5,5 L4,2 Z " fill="#140D0E" transform="translate(87,23)"/>
<path d="M0,0 L8,0 L8,8 L0,9 L2,8 L2,5 L-1,5 Z " fill="#1F120B" transform="translate(70,30)"/>
<path d="M0,0 L6,0 L8,5 L5,5 L5,7 L9,8 L-1,7 L-3,8 L-2,3 Z " fill="#090505" transform="translate(80,13)"/>
<path d="M0,0 L4,2 L4,8 L-1,10 L-1,13 L-3,12 L-5,8 L-5,5 L0,3 Z " fill="#2C1610" transform="translate(65,48)"/>
<path d="M0,0 L8,2 L13,6 L13,9 L6,9 L2,3 L0,2 Z " fill="#696B73" transform="translate(98,32)"/>
<path d="M0,0 L1,2 L6,3 L9,4 L10,1 L15,2 L17,5 L12,4 L12,6 L7,5 L9,11 L6,11 L4,8 L4,4 L0,3 Z " fill="#6B5852" transform="translate(37,44)"/>
<path d="M0,0 L8,0 L10,4 L16,5 L16,7 L4,6 L0,4 Z " fill="#413E39" transform="translate(83,0)"/>
<path d="M0,0 L10,0 L11,2 L10,4 L-3,5 L-6,3 L-3,3 L-3,1 Z " fill="#070202" transform="translate(79,73)"/>
<path d="M0,0 L2,0 L2,2 L4,2 L4,5 L6,5 L7,2 L8,3 L8,10 L6,13 L3,12 L1,7 Z " fill="#595A5F" transform="translate(112,38)"/>
<path d="M0,0 L4,3 L4,5 L-2,8 L-6,9 L-7,2 Z " fill="#261910" transform="translate(128,59)"/>
<path d="M0,0 L4,1 L5,5 L11,6 L11,9 L3,11 L3,5 L-1,6 Z " fill="#8D807F" transform="translate(79,48)"/>
<path d="M0,0 L7,0 L7,2 L9,2 L9,4 L1,2 L1,4 L-12,6 L-16,7 L-15,4 L-5,2 L0,2 Z " fill="#170E0E" transform="translate(60,17)"/>
<path d="M0,0 L7,0 L6,5 L-1,6 L-4,7 L-7,4 L-4,2 L0,2 Z " fill="#040305" transform="translate(80,65)"/>
<path d="M0,0 L2,0 L5,3 L7,2 L7,7 L9,7 L9,9 L11,9 L11,11 L6,10 L6,8 L1,7 L0,3 L-3,2 L0,2 Z " fill="#5B473F" transform="translate(20,53)"/>
<path d="M0,0 L2,0 L3,3 L8,5 L8,8 L11,8 L12,11 L12,18 L10,18 L10,14 L7,13 L9,12 L7,7 L2,6 L2,4 L0,4 Z " fill="#6E6969" transform="translate(111,24)"/>
<path d="M0,0 L4,2 L5,5 L3,5 L3,8 L6,9 L4,13 L3,15 L1,14 L2,18 L-1,15 L0,7 L2,7 L0,3 Z " fill="#3B2D2B" transform="translate(34,39)"/>
<path d="M0,0 L2,0 L1,16 L-2,19 L-4,19 L-2,10 Z " fill="#302829" transform="translate(139,45)"/>
<path d="M0,0 L6,0 L7,6 L9,7 L7,10 L4,9 L6,4 L-5,4 L-5,1 Z " fill="#5C4640" transform="translate(54,53)"/>
<path d="M0,0 L4,0 L6,2 L5,6 L2,6 L2,4 L-3,4 L-10,7 L-13,3 L-11,2 L-9,4 L-5,4 L-4,1 Z " fill="#676567" transform="translate(106,46)"/>
<path d="M0,0 L10,0 L11,4 L7,4 L6,6 L3,5 L2,3 L-1,3 L-8,2 L-8,1 Z " fill="#3A2E32" transform="translate(55,21)"/>
<path d="M0,0 L1,3 L8,3 L8,5 L3,5 L2,9 L-6,8 L-7,6 L-1,5 Z " fill="#626062" transform="translate(87,65)"/>
<path d="M0,0 L6,2 L11,1 L14,4 L9,4 L8,6 L0,6 L-1,2 Z " fill="#402D29" transform="translate(64,61)"/>
<path d="M0,0 L2,0 L2,4 L6,5 L5,8 L2,9 L1,11 L-2,11 L-2,13 L-6,12 L-3,12 L-3,7 L-1,3 Z " fill="#0F0A0A" transform="translate(37,20)"/>
<path d="M0,0 L3,1 L2,5 L-1,8 L-4,8 L-4,6 L-8,5 L-4,4 L-3,1 Z " fill="#6A6A6F" transform="translate(94,57)"/>
<path d="M0,0 L2,0 L2,2 L8,1 L6,4 L-2,6 L-7,5 L-7,2 L0,1 Z " fill="#201616" transform="translate(56,68)"/>
<path d="M0,0 L2,0 L1,4 L3,5 L4,7 L-4,9 L-4,7 L-2,6 L-7,2 L-4,1 Z " fill="#756866" transform="translate(62,61)"/>
<path d="M0,0 L10,0 L9,4 L5,4 L5,7 L9,7 L7,11 L7,8 L4,8 L3,4 L0,1 Z " fill="#3D393D" transform="translate(66,16)"/>
<path d="M0,0 L2,0 L1,4 L-1,8 L-1,14 L-6,12 L-4,11 L-3,6 L-5,5 Z " fill="#1D1112" transform="translate(45,34)"/>
<path d="M0,0 L1,0 L1,7 L-7,8 L-9,4 L-7,4 L-6,1 L-6,5 L-3,5 L-4,2 L0,2 Z " fill="#3C3430" transform="translate(81,53)"/>
<path d="M0,0 L10,1 L10,4 L9,6 L4,7 L1,2 Z " fill="#1D1B1A" transform="translate(92,44)"/>
<path d="M0,0 L5,1 L2,3 L6,4 L6,6 L8,6 L9,11 L7,11 L4,8 L4,5 L-3,4 L-3,2 Z " fill="#271B1C" transform="translate(79,19)"/>
<path d="M0,0 L5,2 L6,9 L3,9 L3,6 L-1,5 Z " fill="#322925" transform="translate(129,18)"/>
<path d="M0,0 L2,1 L2,3 L6,2 L8,7 L1,4 L0,6 L-4,5 L-6,4 L-6,2 Z " fill="#0C0B0D" transform="translate(107,13)"/>
<path d="M0,0 L10,0 L10,4 L12,5 L8,6 L9,3 L2,4 L0,3 Z " fill="#0B060F" transform="translate(73,0)"/>
<path d="M0,0 L7,0 L10,2 L9,6 L8,2 L1,8 L0,6 L2,6 L0,3 Z " fill="#070304" transform="translate(119,49)"/>
<path d="M0,0 L10,0 L10,4 L-3,4 Z " fill="#110803" transform="translate(54,33)"/>
<path d="M0,0 L9,0 L8,5 L0,4 Z " fill="#060506" transform="translate(51,2)"/>
<path d="M0,0 L5,0 L6,4 L3,7 L3,5 L1,5 L0,7 L0,4 L-2,4 L-2,1 Z " fill="#78645B" transform="translate(66,57)"/>
<path d="M0,0 L3,1 L2,6 L-1,8 L-3,9 L-3,5 L-7,4 L-5,2 L-5,4 Z " fill="#3D2C26" transform="translate(57,56)"/>
<path d="M0,0 L5,3 L5,5 L2,5 L1,10 L-2,10 L-2,8 L-4,7 L-1,4 Z " fill="#60534E" transform="translate(49,58)"/>
<path d="M0,0 L3,0 L3,2 L6,3 L6,8 L2,9 Z " fill="#32373C" transform="translate(126,40)"/>
<path d="M0,0 L3,1 L3,3 L10,2 L11,6 L0,6 L1,4 Z " fill="#271511" transform="translate(32,69)"/>
<path d="M0,0 L9,1 L12,6 L12,8 L10,8 L6,4 L1,3 L-2,3 L-2,1 Z " fill="#151417" transform="translate(111,13)"/>
<path d="M0,0 L7,0 L10,3 L9,4 L-1,4 Z " fill="#141115" transform="translate(16,11)"/>
<path d="M0,0 L1,0 L1,8 L-4,8 L-3,12 L-7,10 L-8,7 L-5,5 L-5,7 L-2,5 Z " fill="#110503" transform="translate(125,53)"/>
<path d="M0,0 L3,1 L5,6 L4,7 L6,8 L6,17 L5,17 L4,11 L2,12 L2,2 L0,2 Z " fill="#272326" transform="translate(115,30)"/>
<path d="M0,0 L8,1 L10,2 L11,6 L6,5 L6,3 L4,3 L3,5 L2,2 L0,2 Z " fill="#495057" transform="translate(92,20)"/>
<path d="M0,0 L5,1 L10,3 L12,7 L8,6 L0,3 Z " fill="#595A60" transform="translate(98,16)"/>
<path d="M0,0 L1,2 L4,1 L8,3 L4,4 L1,7 L-2,7 L-2,2 Z " fill="#3A3839" transform="translate(90,45)"/>
<path d="M0,0 L3,3 L3,5 L1,5 L1,11 L-1,11 L-1,7 L-3,7 L-1,1 Z " fill="#130B09" transform="translate(33,41)"/>
<path d="M0,0 L6,1 L7,3 L11,4 L11,5 L4,5 L-2,3 L-2,1 Z " fill="#736F70" transform="translate(94,39)"/>
<path d="M0,0 L3,0 L3,3 L6,4 L6,6 L8,7 L6,7 L6,11 L4,11 L4,5 L-1,5 Z " fill="#6B5F5E" transform="translate(80,24)"/>
<path d="M0,0 L3,0 L3,2 L1,2 L3,7 L-2,6 L-6,1 L-1,1 Z " fill="#1A1F24" transform="translate(94,13)"/>
<path d="M0,0 L3,1 L-3,6 L-8,7 L-10,2 L-6,2 L-6,4 L-1,3 Z " fill="#818286" transform="translate(96,61)"/>
<path d="M0,0 L3,0 L4,8 L0,7 L-3,4 L-3,2 L0,1 Z " fill="#100705" transform="translate(127,26)"/>
<path d="M0,0 L6,2 L7,5 L10,6 L10,8 L5,7 L1,5 Z " fill="#625C5F" transform="translate(86,23)"/>
<path d="M0,0 L6,3 L3,5 L-6,6 L-2,1 Z " fill="#322225" transform="translate(45,23)"/>
<path d="M0,0 L4,1 L3,4 L-6,4 L-6,1 Z " fill="#080203" transform="translate(80,80)"/>
<path d="M0,0 L7,3 L4,4 L4,9 L2,10 L0,5 Z " fill="#695B58" transform="translate(75,44)"/>
<path d="M0,0 L5,0 L5,2 L8,2 L8,4 L10,4 L11,7 L6,6 L0,1 Z " fill="#030306" transform="translate(105,26)"/>
<path d="M0,0 L7,1 L5,2 L4,6 L-1,5 L-2,2 Z " fill="#4D4749" transform="translate(100,60)"/>
<path d="M0,0 L4,0 L5,4 L0,5 L-2,4 L-2,7 L-4,6 L-2,2 Z " fill="#514136" transform="translate(47,35)"/>
<path d="M0,0 L2,1 L0,6 L2,7 L-3,8 L-2,6 L-8,5 L-8,3 L0,2 Z " fill="#54484A" transform="translate(51,25)"/>
<path d="M0,0 L6,0 L6,2 L11,2 L11,3 L6,4 L-1,4 Z " fill="#7A7577" transform="translate(49,16)"/>
<path d="M0,0 L5,1 L5,3 L9,2 L9,8 L7,8 L7,4 L0,3 Z " fill="#3A3D44" transform="translate(123,46)"/>
<path d="M0,0 L4,1 L6,5 L3,6 L-2,4 L-2,2 L0,2 Z " fill="#3C3F46" transform="translate(105,28)"/>
<path d="M0,0 L1,0 L1,6 L-1,6 L-2,9 L-4,7 L-2,7 L-3,4 L-5,3 L-5,1 Z " fill="#392924" transform="translate(74,44)"/>
<path d="M0,0 L2,0 L2,2 L7,3 L13,5 L13,7 L8,7 L0,2 Z " fill="#0A0A0F" transform="translate(101,30)"/>
<path d="M0,0 L7,0 L7,2 L9,2 L9,4 L1,2 L0,4 L-5,3 L-5,2 L0,2 Z " fill="#2D2226" transform="translate(60,17)"/>
<path d="M0,0 L5,0 L7,5 L3,4 L-1,4 Z " fill="#201C1D" transform="translate(81,13)"/>
<path d="M0,0 L4,0 L7,4 L0,5 L-2,4 Z " fill="#68676C" transform="translate(80,61)"/>
<path d="M0,0 L4,0 L6,7 L3,8 L0,3 Z " fill="#2C1D1D" transform="translate(16,60)"/>
<path d="M0,0 L4,1 L4,4 L0,6 L-3,5 L-2,1 Z " fill="#4F4543" transform="translate(90,36)"/>
<path d="M0,0 L9,1 L9,5 L4,5 L4,2 L0,2 Z " fill="#4E454A" transform="translate(61,19)"/>
<path d="M0,0 L6,2 L6,6 L1,6 Z " fill="#020101" transform="translate(113,15)"/>
<path d="M0,0 L1,2 L-2,3 L-3,5 L-9,8 L-7,2 Z " fill="#1D1B1F" transform="translate(93,56)"/>
<path d="M0,0 L6,0 L6,2 L0,3 L-7,3 L-5,1 Z " fill="#2E1A14" transform="translate(54,51)"/>
<path d="M0,0 L5,0 L1,3 L-1,3 L-2,5 L-9,2 L-9,1 L-2,1 L0,2 Z " fill="#383B40" transform="translate(107,43)"/>
<path d="M0,0 L2,0 L2,2 L4,2 L6,8 L3,9 L3,7 L1,7 Z " fill="#595C64" transform="translate(112,38)"/>
<path d="M0,0 L4,1 L5,7 L6,9 L0,7 L0,3 Z " fill="#4E474B" transform="translate(97,34)"/>
<path d="M0,0 L3,0 L3,2 L6,3 L4,4 L-3,4 L-3,1 Z " fill="#7B6C6A" transform="translate(60,28)"/>
<path d="M0,0 L6,1 L7,3 L10,5 L4,5 L-2,2 Z " fill="#0A0E13" transform="translate(100,19)"/>
<path d="M0,0 L6,1 L7,3 L2,3 L1,5 L-7,5 L-7,4 L-1,3 Z " fill="#180D0D" transform="translate(71,62)"/>
<path d="M0,0 L5,2 L7,1 L6,4 L3,4 L3,10 L1,9 L2,3 L0,3 Z " fill="#160D09" transform="translate(31,54)"/>
<path d="M0,0 L1,0 L2,8 L0,8 L0,6 L-5,6 L-5,4 L-2,4 L-2,2 L0,2 Z " fill="#68544D" transform="translate(60,45)"/>
<path d="M0,0 L3,3 L8,4 L6,8 L4,8 L-1,2 Z " fill="#050409" transform="translate(101,37)"/>
<path d="M0,0 L6,2 L3,3 L4,7 L0,7 Z " fill="#1B1919" transform="translate(123,37)"/>
<path d="M0,0 L2,0 L3,3 L8,5 L7,8 L2,6 L2,4 L0,4 Z " fill="#706E73" transform="translate(111,24)"/>
<path d="M0,0 L2,0 L2,4 L6,5 L1,8 L-1,8 L-1,2 Z " fill="#160F0F" transform="translate(37,20)"/>
<path d="M0,0 L10,0 L10,1 L2,2 L1,6 L-2,5 L-1,1 Z " fill="#514E51" transform="translate(50,0)"/>
<path d="M0,0 L4,1 L4,3 L-2,6 L-4,6 L-3,2 L0,2 Z " fill="#5D514A" transform="translate(128,61)"/>
<path d="M0,0 L3,1 L1,7 L3,8 L0,8 L0,6 L-2,6 L-1,2 L-3,1 Z " fill="#120F10" transform="translate(86,46)"/>
<path d="M0,0 L2,1 L1,6 L-8,6 L-8,5 L-2,5 Z " fill="#292121" transform="translate(68,10)"/>
<path d="M0,0 L7,1 L7,4 L-2,3 Z " fill="#534746" transform="translate(68,76)"/>
<path d="M0,0 L2,0 L2,2 L8,1 L6,4 L-3,4 L1,3 Z " fill="#372D30" transform="translate(56,68)"/>
<path d="M0,0 L1,3 L7,1 L8,5 L3,6 L0,4 Z " fill="#282327" transform="translate(87,49)"/>
<path d="M0,0 L3,1 L3,4 L5,5 L-1,6 L-1,1 Z " fill="#060305" transform="translate(40,53)"/>
<path d="M0,0 L4,0 L6,2 L5,6 L2,6 Z " fill="#595E67" transform="translate(106,46)"/>
<path d="M0,0 L4,1 L4,5 L4,7 L-1,6 L0,4 L2,5 Z " fill="#4A403F" transform="translate(76,23)"/>
<path d="M0,0 L2,0 L2,2 L0,3 L3,7 L-1,8 L-1,5 L-3,4 L-3,2 Z " fill="#09090B" transform="translate(89,11)"/>
<path d="M0,0 L2,1 L2,5 L-3,5 L-3,1 Z " fill="#292425" transform="translate(72,79)"/>
<path d="M0,0 L3,2 L1,6 L4,7 L1,8 L-2,5 L-2,3 L0,3 Z " fill="#24110C" transform="translate(23,60)"/>
<path d="M0,0 L7,2 L5,7 L0,2 Z " fill="#66646A" transform="translate(98,32)"/>
<path d="M0,0 L5,0 L4,5 L-1,5 Z " fill="#4A3E3C" transform="translate(92,30)"/>
<path d="M0,0 L2,3 L0,8 L-3,8 L-3,4 L-1,4 Z " fill="#3B3131" transform="translate(89,27)"/>
<path d="M0,0 L3,0 L4,3 L1,3 L0,6 L0,2 L-8,2 L-8,1 Z " fill="#393136" transform="translate(60,0)"/>
<path d="M0,0 L4,1 L3,4 L-2,5 L-2,2 L0,2 Z " fill="#523C38" transform="translate(49,48)"/>
<path d="M0,0 L2,0 L4,3 L3,8 L1,9 L2,4 L0,4 Z " fill="#040506" transform="translate(113,48)"/>
<path d="M0,0 L1,3 L0,6 L-7,5 L-4,3 Z " fill="#211E21" transform="translate(97,63)"/>
<path d="M0,0 L4,2 L4,6 L0,7 L1,2 Z " fill="#190905" transform="translate(65,48)"/>
<path d="M0,0 L5,1 L5,3 L-2,4 L-2,1 Z " fill="#2D1F13" transform="translate(54,36)"/>
<path d="M0,0 L5,1 L5,4 L-1,3 Z " fill="#4B403F" transform="translate(65,35)"/>
<path d="M0,0 L4,1 L4,6 L0,5 Z " fill="#58493D" transform="translate(78,33)"/>
<path d="M0,0 L10,2 L9,4 L1,3 L0,6 L0,3 L-2,2 L0,2 Z " fill="#292527" transform="translate(55,7)"/>
<path d="M0,0 L4,0 L4,2 L1,4 L-4,4 L-4,2 L0,2 Z " fill="#373538" transform="translate(41,7)"/>
<path d="M0,0 L7,0 L4,3 L4,6 L2,6 Z " fill="#0D0A0C" transform="translate(73,8)"/>
<path d="M0,0 L3,0 L3,4 L-2,4 L-2,1 Z " fill="#383632" transform="translate(87,80)"/>
<path d="M0,0 L7,0 L6,2 L1,3 L-1,5 Z " fill="#1B1918" transform="translate(104,67)"/>
<path d="M0,0 L5,0 L4,5 L1,5 L1,3 L-1,2 Z " fill="#372E2D" transform="translate(46,63)"/>
<path d="M0,0 L3,0 L1,5 L-3,4 Z " fill="#1B1D21" transform="translate(94,59)"/>
<path d="M0,0 L3,0 L3,3 L0,5 L-3,5 L-2,2 L0,2 Z " fill="#524746" transform="translate(128,55)"/>
<path d="M0,0 L5,0 L5,2 L-3,4 L-3,2 L0,2 Z " fill="#959191" transform="translate(85,55)"/>
<path d="M0,0 L2,0 L2,2 L5,2 L4,7 L2,6 Z " fill="#1E0E09" transform="translate(60,54)"/>
<path d="M0,0 L6,0 L8,1 L8,3 L0,3 Z " fill="#78655F" transform="translate(49,54)"/>
<path d="M0,0 L3,1 L2,7 L-1,6 L-1,1 Z " fill="#736D70" transform="translate(36,35)"/>
<path d="M0,0 L5,0 L9,2 L9,4 L4,4 L4,1 L0,2 Z " fill="#251A1D" transform="translate(110,22)"/>
<path d="M0,0 L9,0 L9,2 L7,2 L6,4 L6,2 L0,1 Z " fill="#43393B" transform="translate(79,21)"/>
<path d="M0,0 L6,2 L6,3 L-4,3 Z " fill="#21151A" transform="translate(60,81)"/>
<path d="M0,0 L6,1 L3,4 L0,5 Z " fill="#6A6363" transform="translate(105,59)"/>
<path d="M0,0 L2,0 L0,8 L-2,8 L-1,2 Z " fill="#483E3B" transform="translate(137,56)"/>
<path d="M0,0 L1,2 L3,2 L3,5 L0,4 L0,2 L-4,2 L-5,4 L-5,1 Z " fill="#140505" transform="translate(20,58)"/>
<path d="M0,0 L8,2 L8,3 L3,3 L3,5 L0,5 Z " fill="#5B5657" transform="translate(82,52)"/>
<path d="M0,0 L2,0 L2,3 L5,4 L4,7 L0,3 Z " fill="#9A8B88" transform="translate(41,49)"/>
<path d="M0,0 L2,0 L2,6 L-3,4 L-1,3 Z " fill="#1B0E0B" transform="translate(42,42)"/>
<path d="M0,0 L5,0 L5,4 L0,3 Z " fill="#32271E" transform="translate(78,30)"/>
<path d="M0,0 L6,2 L4,3 L5,6 L2,5 Z " fill="#36333A" transform="translate(97,27)"/>
<path d="M0,0 L7,0 L11,4 L0,1 Z " fill="#080A0E" transform="translate(87,23)"/>
<path d="M0,0 L5,0 L5,4 L1,3 Z " fill="#070605" transform="translate(85,0)"/>
<path d="M0,0 L3,1 L2,6 L-2,6 L-2,4 L0,3 Z " fill="#23110D" transform="translate(57,56)"/>
<path d="M0,0 L1,4 L4,5 L0,7 L-2,3 L0,3 Z " fill="#281A13" transform="translate(74,54)"/>
<path d="M0,0 L2,0 L1,5 L-5,6 L-2,4 L0,4 L-1,1 Z " fill="#78787A" transform="translate(103,49)"/>
<path d="M0,0 L5,0 L5,2 L-2,3 Z " fill="#1E1F1E" transform="translate(98,51)"/>
<path d="M0,0 L3,0 L3,5 L-1,6 L-1,4 L1,4 Z " fill="#646971" transform="translate(129,43)"/>
<path d="M0,0 L3,1 L2,6 L-1,7 Z " fill="#443736" transform="translate(39,39)"/>
<path d="M0,0 L6,1 L5,3 L-2,4 L0,3 Z " fill="#1A0B05" transform="translate(72,35)"/>
<path d="M0,0 L7,2 L7,3 L1,4 Z " fill="#2B2929" transform="translate(99,12)"/>
<path d="M0,0 L4,1 L0,4 L-4,3 L-3,1 Z " fill="#25201F" transform="translate(79,70)"/>
<path d="M0,0 L4,1 L4,4 L0,4 Z " fill="#301F1A" transform="translate(39,71)"/>
<path d="M0,0 L3,0 L6,6 L2,5 L2,2 L0,2 Z " fill="#322217" transform="translate(29,60)"/>
<path d="M0,0 L1,2 L-2,3 L-2,5 L-5,5 L-5,1 Z " fill="#584B44" transform="translate(80,53)"/>
<path d="M0,0 L3,1 L3,3 L1,3 L0,6 L-1,6 L-1,1 Z " fill="#090C10" transform="translate(106,49)"/>
<path d="M0,0 L4,2 L6,4 L-1,4 L-1,1 Z " fill="#828083" transform="translate(99,40)"/>
<path d="M0,0 L1,2 L3,3 L1,3 L1,7 L-1,7 L-1,1 Z " fill="#70696A" transform="translate(85,28)"/>
<path d="M0,0 L5,0 L5,2 L8,3 L4,4 Z " fill="#0D0D12" transform="translate(105,26)"/>
<path d="M0,0 L3,0 L3,4 L5,5 L1,6 L2,3 L0,3 Z " fill="#171212" transform="translate(80,0)"/>
<path d="M0,0 L3,1 L5,6 L2,5 L2,3 L0,3 Z " fill="#423734" transform="translate(20,66)"/>
<path d="M0,0 L1,3 L-2,4 L-5,3 L-4,1 Z " fill="#393233" transform="translate(104,62)"/>
<path d="M0,0 L3,1 L3,3 L5,3 L5,5 L0,4 Z " fill="#806D69" transform="translate(21,56)"/>
<path d="M0,0 L3,1 L4,3 L-1,4 Z " fill="#524F54" transform="translate(89,48)"/>
<path d="M0,0 L4,2 L4,5 L1,5 Z " fill="#757982" transform="translate(107,36)"/>
<path d="M0,0 L6,0 L1,4 L-1,4 Z " fill="#0F0401" transform="translate(72,30)"/>
<path d="M0,0 L4,0 L5,5 L4,3 L0,2 Z " fill="#514640" transform="translate(128,21)"/>
<path d="M0,0 L3,0 L4,3 L-1,4 Z " fill="#504C48" transform="translate(49,16)"/>
<path d="M0,0 L4,0 L5,3 L3,3 L2,5 Z M5,1 Z " fill="#36221D" transform="translate(23,67)"/>
<path d="M0,0 L4,3 L-1,4 Z " fill="#110402" transform="translate(25,62)"/>
<path d="M0,0 L2,0 L1,4 L-4,3 Z " fill="#59555A" transform="translate(84,58)"/>
<path d="M0,0 L2,0 L3,4 L0,5 L0,3 L-3,2 L0,2 Z " fill="#574C4D" transform="translate(20,53)"/>
<path d="M0,0 L3,4 L0,6 L-2,5 Z " fill="#242122" transform="translate(118,49)"/>
<path d="M0,0 L1,4 L-1,6 L-1,4 L-4,3 L-2,3 L-1,1 Z " fill="#150B0B" transform="translate(138,49)"/>
<path d="M0,0 L3,1 L1,5 L-1,5 Z " fill="#3E2D26" transform="translate(45,43)"/>
<path d="M0,0 L4,0 L4,2 L6,2 L6,4 L1,2 Z " fill="#160E12" transform="translate(63,17)"/>
<path d="M0,0 L3,0 L4,3 L-2,3 L0,2 Z " fill="#1F0F09" transform="translate(26,70)"/>
<path d="M0,0 L4,1 L3,4 L0,3 Z " fill="#29262A" transform="translate(123,46)"/>
<path d="M0,0 L7,2 L5,4 L0,2 Z " fill="#121213" transform="translate(96,44)"/>
<path d="M0,0 L1,2 L4,3 L-1,4 L-1,2 L-3,1 Z " fill="#534A45" transform="translate(85,43)"/>
<path d="M0,0 L4,2 L2,2 L2,4 L-1,5 Z " fill="#2F2015" transform="translate(45,39)"/>
<path d="M0,0 L4,2 L5,5 L3,5 L3,3 L-1,2 Z " fill="#1C1C22" transform="translate(111,32)"/>
<path d="M0,0 L3,0 L3,3 L-2,4 L0,3 Z " fill="#595254" transform="translate(38,29)"/>
<path d="M0,0 L5,2 L1,4 Z " fill="#191E23" transform="translate(92,25)"/>
<path d="M0,0 L4,4 L4,6 L2,6 L0,3 Z " fill="#2E2625" transform="translate(119,15)"/>
<path d="M0,0 L4,1 L2,3 L-1,3 Z " fill="#201B1E" transform="translate(60,69)"/>
<path d="M0,0 L3,0 L3,3 L1,3 L0,5 Z " fill="#604C42" transform="translate(66,59)"/>
<path d="M0,0 L4,1 L4,3 L0,3 Z " fill="#6A6C72" transform="translate(98,16)"/>
<path d="M0,0 L3,1 L0,4 L-2,3 Z " fill="#A4A2A4" transform="translate(96,61)"/>
<path d="M0,0 L4,1 L4,3 L0,3 Z " fill="#6C615C" transform="translate(128,61)"/>
<path d="M0,0 L3,0 L4,4 L0,2 Z " fill="#1D1005" transform="translate(118,61)"/>
<path d="M0,0 L2,0 L1,3 L-3,4 L-3,2 Z " fill="#969699" transform="translate(102,57)"/>
<path d="M0,0 L3,1 L3,4 L0,3 Z " fill="#26120E" transform="translate(44,49)"/>
<path d="M0,0 L5,0 L5,3 L0,1 Z " fill="#4E3D33" transform="translate(50,45)"/>
<path d="M0,0 L4,1 L3,3 L0,3 Z " fill="#201205" transform="translate(47,41)"/>
<path d="M0,0 L3,3 L3,5 L0,4 L-1,1 Z " fill="#21191F" transform="translate(101,37)"/>
<path d="M0,0 L4,1 L3,3 L0,3 Z " fill="#312C2E" transform="translate(97,34)"/>
<path d="M0,0 L3,0 L3,3 L-1,2 Z " fill="#39291A" transform="translate(75,33)"/>
<path d="M0,0 L2,0 L1,4 L-2,1 Z " fill="#271811" transform="translate(45,34)"/>
<path d="M0,0 L4,2 L3,4 L0,3 Z " fill="#221A1B" transform="translate(75,24)"/>
<path d="M0,0 L3,1 L3,3 L-1,3 Z " fill="#3C3A34" transform="translate(129,18)"/>
<path d="M0,0 L3,0 L3,3 L0,3 Z " fill="#362A2C" transform="translate(16,60)"/>
<path d="M0,0 L3,0 L3,3 L0,3 Z " fill="#565256" transform="translate(128,55)"/>
<path d="M0,0 L4,1 L-1,3 Z " fill="#3D2922" transform="translate(63,50)"/>
<path d="M0,0 L2,0 L3,3 L0,4 Z " fill="#9D9EA3" transform="translate(115,43)"/>
<path d="M0,0 L3,1 L2,3 L-1,3 Z " fill="#090100" transform="translate(51,41)"/>
<path d="M0,0 L4,0 L4,3 L0,1 Z " fill="#4E494A" transform="translate(118,32)"/>
<path d="M0,0 L4,3 L0,3 Z " fill="#31363B" transform="translate(102,17)"/>
<path d="M0,0 L2,0 L1,3 L-2,2 Z " fill="#191210" transform="translate(106,63)"/>
<path d="M0,0 L2,0 L1,4 L-1,1 Z " fill="#808184" transform="translate(103,49)"/>
<path d="M0,0 L3,0 L2,3 L-1,2 Z " fill="#140A0C" transform="translate(120,47)"/>
<path d="M0,0 L3,0 L3,3 L0,2 Z " fill="#787B82" transform="translate(129,43)"/>
<path d="M0,0 L3,1 L3,3 L0,3 Z " fill="#24190E" transform="translate(85,38)"/>
<path d="M0,0 L3,1 L3,3 L-1,2 Z " fill="#120F10" transform="translate(128,31)"/>
<path d="M0,0 L3,1 L3,3 L0,2 Z " fill="#8F929B" transform="translate(107,36)"/>
<path d="M0,0 L4,2 L1,3 Z " fill="#3A3C42" transform="translate(97,27)"/>
</svg>
