<?xml version="1.0" encoding="UTF-8"?>
<!-- Generator: visioncortex VTracer 0.6.5 -->
<svg version="1.1" xmlns="http://www.w3.org/2000/svg" width="150" height="84">
<path d="M0,0 L150,0 L150,84 L0,84 Z " fill="#000101" transform="translate(0,0)"/>
<path d="M0,0 L76,0 L83,1 L83,4 L76,5 L76,7 L79,8 L76,9 L72,8 L71,13 L64,12 L58,21 L56,22 L42,22 L45,19 L53,19 L43,17 L43,19 L38,20 L38,23 L36,23 L37,25 L43,25 L43,27 L35,28 L32,27 L32,29 L34,30 L35,37 L31,39 L29,38 L30,45 L28,41 L26,40 L26,37 L24,37 L24,30 L22,30 L22,33 L19,33 L20,37 L22,37 L22,40 L24,40 L26,51 L31,52 L33,45 L35,45 L37,55 L38,59 L48,60 L48,62 L53,63 L54,61 L58,62 L58,64 L61,63 L61,61 L70,61 L72,66 L72,69 L69,71 L70,73 L77,75 L85,75 L82,73 L90,70 L90,66 L96,66 L95,74 L95,76 L97,76 L97,81 L95,84 L0,84 Z M93,74 Z " fill="#081015" transform="translate(0,0)"/>
<path d="M0,0 L2,4 L4,5 L4,14 L9,15 L15,19 L15,21 L17,22 L15,22 L16,25 L18,26 L19,22 L24,23 L21,24 L21,27 L23,27 L23,29 L34,32 L39,34 L39,32 L44,34 L48,38 L39,38 L35,37 L38,39 L38,41 L31,41 L31,39 L27,39 L29,44 L25,45 L17,40 L9,37 L10,39 L16,42 L16,44 L21,45 L24,48 L24,50 L10,48 L10,46 L4,47 L3,50 L7,50 L7,52 L13,52 L13,53 L-6,53 L-6,17 L2,16 L-1,5 Z " fill="#050709" transform="translate(6,31)"/>
<path d="M0,0 L25,0 L23,3 L21,3 L19,16 L16,16 L15,20 L13,21 L10,26 L10,29 L12,29 L17,24 L20,24 L23,28 L27,28 L27,30 L34,30 L35,37 L31,39 L29,38 L30,45 L28,41 L26,40 L26,37 L24,37 L24,30 L22,30 L22,33 L19,33 L20,29 L16,29 L17,31 L17,37 L13,36 L16,43 L17,45 L12,44 L9,38 L7,33 L6,36 L9,48 L0,48 Z " fill="#010D13" transform="translate(0,0)"/>
<path d="M0,0 L5,1 L11,4 L16,7 L19,7 L18,2 L22,2 L22,4 L36,5 L35,7 L32,7 L33,9 L40,12 L41,16 L4,16 L-2,15 L-2,13 L-6,13 L-5,9 L1,9 L1,11 L11,11 L15,13 L14,9 L7,7 L7,5 L1,3 Z " fill="#1A2229" transform="translate(15,68)"/>
<path d="M0,0 L16,0 L16,2 L8,3 L7,8 L1,9 L1,13 L5,13 L5,15 L9,16 L6,17 L4,24 L0,23 L0,29 L-4,27 L-5,24 L-11,27 L-13,30 L-16,29 L-15,25 L-12,20 L-10,19 L-9,16 L-7,15 L-4,3 Z " fill="#080D0E" transform="translate(25,0)"/>
<path d="M0,0 L6,0 L5,8 L5,10 L7,10 L7,15 L5,18 L-21,18 L-23,17 L-23,14 L-15,12 L-15,10 L-21,12 L-33,12 L-35,10 L-21,9 L-5,9 L-8,7 L0,4 Z M3,8 Z " fill="#071514" transform="translate(90,66)"/>
<path d="M0,0 L3,0 L6,4 L10,4 L10,6 L17,6 L18,13 L14,15 L12,14 L13,21 L11,17 L9,16 L9,13 L7,13 L7,6 L5,6 L5,9 L2,9 L3,5 L-1,5 L0,7 L0,13 L-4,12 L-1,19 L0,21 L-5,20 L-8,14 L-8,7 L-3,2 Z " fill="#4C6770" transform="translate(17,24)"/>
<path d="M0,0 L18,0 L18,12 L2,13 L-2,7 L-2,5 L0,4 Z " fill="#020810" transform="translate(132,11)"/>
<path d="M0,0 L6,0 L6,2 L11,2 L11,6 L1,6 L-4,5 L-4,7 L-9,8 L-9,11 L-11,11 L-10,13 L-4,13 L-4,15 L-12,16 L-15,15 L-16,18 L-20,18 L-20,16 L-22,16 L-22,11 L-18,12 L-17,4 L-11,4 L-7,4 L-1,1 Z " fill="#01050E" transform="translate(47,12)"/>
<path d="M0,0 L12,0 L12,5 L16,5 L16,8 L14,8 L14,11 L5,12 L1,12 L4,8 L9,7 L9,5 L4,4 L2,3 L2,5 L-4,8 L-8,8 L-8,10 L-11,10 L-11,12 L-4,10 L-1,8 L-2,12 L-8,15 L-11,15 L-11,13 L-15,13 L-15,9 L-9,8 L-8,3 L0,2 Z " fill="#585E60" transform="translate(41,0)"/>
<path d="M0,0 L4,1 L9,4 L16,3 L21,4 L21,6 L26,7 L27,5 L31,6 L31,8 L34,7 L34,5 L43,5 L45,10 L45,13 L39,14 L35,12 L31,11 L29,10 L29,8 L27,8 L27,11 L23,10 L18,7 L18,9 L13,8 L2,4 L2,2 L0,2 Z " fill="#060C0D" transform="translate(27,56)"/>
<path d="M0,0 L12,0 L12,7 L18,8 L18,10 L15,13 L12,13 L11,17 L6,22 L6,24 L2,25 L3,17 L5,15 L8,15 L9,6 L5,7 L0,6 Z " fill="#020705" transform="translate(0,0)"/>
<path d="M0,0 L3,0 L3,2 L7,3 L4,4 L2,11 L-2,10 L-2,16 L-6,14 L-7,11 L-13,14 L-15,17 L-18,16 L-17,12 L-14,7 L-10,4 L-1,5 Z " fill="#030609" transform="translate(27,13)"/>
<path d="M0,0 L13,0 L11,3 L9,3 L7,16 L4,16 L3,20 L1,21 L-2,26 L-5,26 L-5,19 L-1,17 L0,13 L3,13 L4,10 L6,10 L6,8 L0,7 Z " fill="#606F6C" transform="translate(12,0)"/>
<path d="M0,0 L4,0 L4,2 L18,3 L17,5 L14,5 L15,7 L22,10 L23,14 L13,14 L14,10 L9,10 L4,11 L0,10 L1,3 Z " fill="#263846" transform="translate(33,70)"/>
<path d="M0,0 L3,1 L3,7 L-3,12 L-12,12 L-12,14 L-14,14 L-15,18 L-21,18 L-23,17 L-23,14 L-15,12 L-15,10 L-21,12 L-33,12 L-35,10 L-21,9 L-5,9 L-8,7 L0,4 Z " fill="#233235" transform="translate(90,66)"/>
<path d="M0,0 L20,0 L20,3 L1,4 L0,10 L-2,10 L-3,12 L-3,10 L-9,10 L-9,12 L-4,13 L-5,15 L-11,15 L-13,14 L-13,10 L-10,10 L-9,7 L-5,6 L-3,3 L0,3 Z " fill="#1D2C28" transform="translate(96,0)"/>
<path d="M0,0 L9,0 L9,7 L8,9 L4,11 L2,19 L6,18 L5,15 L7,14 L7,20 L9,20 L9,24 L7,24 L7,21 L0,23 Z " fill="#12221E" transform="translate(0,6)"/>
<path d="M0,0 L11,1 L11,4 L4,5 L4,7 L7,8 L4,9 L0,8 L-1,13 L-6,12 L-10,10 L-9,7 L-7,6 L-1,6 Z " fill="#162622" transform="translate(72,0)"/>
<path d="M0,0 L9,0 L10,4 L9,8 L-2,10 L-7,10 L-3,3 Z " fill="#05100E" transform="translate(81,61)"/>
<path d="M0,0 L2,4 L4,5 L4,14 L9,15 L15,19 L15,21 L17,22 L15,22 L14,24 L11,27 L6,19 L4,18 L0,9 L-1,2 Z " fill="#030708" transform="translate(6,31)"/>
<path d="M0,0 L4,0 L4,8 L6,8 L7,15 L4,15 L4,11 L2,11 L2,9 L0,9 L0,13 L2,13 L3,19 L0,20 L-2,17 L-6,16 L-5,12 L-4,15 L0,15 L-2,13 L-3,7 L0,7 Z " fill="#202829" transform="translate(16,29)"/>
<path d="M0,0 L4,1 L4,3 L12,2 L14,6 L24,8 L24,12 L17,11 L16,9 L11,7 L8,9 L5,8 L0,2 Z " fill="#23292A" transform="translate(3,52)"/>
<path d="M0,0 L6,0 L6,2 L16,2 L18,4 L18,7 L9,7 L3,6 L3,4 L-1,4 Z " fill="#333435" transform="translate(10,77)"/>
<path d="M0,0 L3,0 L4,5 L1,5 L0,9 L-2,10 L-5,15 L-8,15 L-8,8 L-4,6 L-3,2 L0,2 Z " fill="#838686" transform="translate(15,11)"/>
<path d="M0,0 L13,0 L12,6 L2,6 L2,8 L-1,7 Z " fill="#000101" transform="translate(59,0)"/>
<path d="M0,0 L20,0 L20,3 L17,4 L15,7 L11,8 L9,10 L9,4 L7,3 L7,2 L0,1 Z " fill="#010C08" transform="translate(76,0)"/>
<path d="M0,0 L6,0 L6,2 L11,2 L11,6 L1,6 L-4,5 L-4,7 L-9,8 L-7,4 L-1,1 Z " fill="#25303A" transform="translate(47,12)"/>
<path d="M0,0 L6,1 L9,10 L0,10 Z " fill="#272C2D" transform="translate(0,38)"/>
<path d="M0,0 L4,1 L6,2 L6,4 L11,5 L14,8 L14,10 L2,8 L0,5 Z " fill="#040505" transform="translate(16,71)"/>
<path d="M0,0 L4,1 L8,5 L2,7 L1,11 L5,13 L-3,13 L-4,12 L-4,7 L0,7 Z " fill="#0E1D19" transform="translate(4,62)"/>
<path d="M0,0 L4,1 L9,4 L16,3 L21,4 L21,6 L24,9 L18,7 L18,9 L13,8 L2,4 L2,2 L0,2 Z " fill="#303D49" transform="translate(27,56)"/>
<path d="M0,0 L3,0 L3,5 L7,5 L7,8 L5,8 L5,11 L-4,12 L-8,12 L-5,8 L0,7 Z " fill="#384652" transform="translate(50,0)"/>
<path d="M0,0 L12,1 L9,3 L8,6 L6,8 L6,10 L0,10 Z " fill="#000201" transform="translate(0,74)"/>
<path d="M0,0 L3,0 L3,2 L0,4 L-5,4 L-5,7 L-3,8 L-14,8 L-13,3 Z " fill="#020A13" transform="translate(72,76)"/>
<path d="M0,0 L4,0 L5,7 L1,9 L-1,8 L0,15 L-2,11 L-4,10 L-4,3 L-1,2 Z " fill="#1B2932" transform="translate(30,30)"/>
<path d="M0,0 L2,1 L2,4 L6,6 L6,10 L-1,10 L-1,8 L-5,6 L-4,5 L-8,3 L0,2 Z " fill="#0F1112" transform="translate(8,45)"/>
<path d="M0,0 L3,0 L6,4 L10,4 L10,6 L13,6 L13,11 L9,9 L10,12 L7,13 L7,6 L5,6 L5,9 L2,9 L3,5 L0,5 L0,1 Z " fill="#334B53" transform="translate(17,24)"/>
<path d="M0,0 L5,1 L5,3 L20,3 L20,6 L4,7 Z " fill="#0A1820" transform="translate(130,17)"/>
<path d="M0,0 L16,0 L16,4 L1,4 Z " fill="#11161C" transform="translate(134,11)"/>
<path d="M0,0 L6,2 L16,3 L16,7 L11,9 L11,8 L5,8 L3,6 L5,6 L5,4 L1,2 Z " fill="#0C1620" transform="translate(39,66)"/>
<path d="M0,0 L6,0 L6,9 L1,13 L-6,13 L-9,15 L-7,11 L2,11 L2,8 L4,8 L4,5 L0,5 Z " fill="#09141F" transform="translate(53,0)"/>
<path d="M0,0 L4,0 L4,2 L1,4 L-7,5 L-3,8 L-13,8 L-12,4 L-10,4 L-10,2 L-1,1 Z " fill="#050A0A" transform="translate(88,76)"/>
<path d="M0,0 L3,1 L3,7 L-3,12 L-9,11 L-5,9 L-8,7 L0,4 Z " fill="#172724" transform="translate(90,66)"/>
<path d="M0,0 L19,0 L19,3 L1,3 Z " fill="#30403D" transform="translate(97,0)"/>
<path d="M0,0 L9,0 L9,5 L4,4 L2,3 L2,5 L-5,6 L-3,2 L0,2 Z " fill="#616567" transform="translate(41,0)"/>
<path d="M0,0 L10,0 L10,2 L16,3 L12,4 L11,9 L9,9 L7,5 L0,2 Z " fill="#08101B" transform="translate(47,75)"/>
<path d="M0,0 L5,2 L3,3 L3,5 L1,5 L1,12 L0,14 L-3,14 L-3,12 L-5,12 L-5,7 L-1,8 Z " fill="#06131D" transform="translate(30,16)"/>
<path d="M0,0 L2,0 L2,5 L-2,8 L-4,8 L-4,15 L-5,15 L-5,1 L0,2 Z " fill="#43534F" transform="translate(5,8)"/>
<path d="M0,0 L4,0 L4,2 L18,3 L17,5 L7,6 L1,3 Z " fill="#5A6974" transform="translate(33,70)"/>
<path d="M0,0 L7,0 L7,7 L0,6 Z " fill="#000100" transform="translate(0,0)"/>
<path d="M0,0 L2,0 L2,2 L0,4 L1,6 L-7,7 L-12,4 L-12,3 L-3,2 Z " fill="#172725" transform="translate(92,77)"/>
<path d="M0,0 L2,0 L2,9 L-5,9 L-5,7 L-3,7 L-2,1 Z " fill="#323436" transform="translate(148,75)"/>
<path d="M0,0 L8,0 L8,4 L-3,5 L-1,1 Z " fill="#10211E" transform="translate(80,62)"/>
<path d="M0,0 L4,1 L4,3 L12,3 L12,5 L3,6 L2,3 L0,3 L0,6 L-4,5 Z " fill="#364445" transform="translate(54,61)"/>
<path d="M0,0 L5,1 L3,2 L2,6 L-4,6 L-6,5 L-6,2 Z " fill="#061414" transform="translate(73,78)"/>
<path d="M0,0 L2,0 L2,7 L4,7 L4,14 L0,10 L0,7 L-2,7 L-3,3 L0,3 Z " fill="#010710" transform="translate(22,30)"/>
<path d="M0,0 L10,1 L12,2 L7,5 L0,5 L-1,1 Z " fill="#36424C" transform="translate(34,76)"/>
<path d="M0,0 L5,0 L7,2 L7,5 L-3,5 L-3,3 L0,3 Z " fill="#3B6170" transform="translate(49,79)"/>
<path d="M0,0 L6,0 L6,2 L-4,5 L-4,7 L-9,8 L-7,4 L-1,1 Z " fill="#475661" transform="translate(47,12)"/>
<path d="M0,0 L4,1 L0,3 L-2,13 L-3,11 L-5,10 L-3,10 L-3,8 L-6,7 L-4,7 L-2,2 Z " fill="#3E4645" transform="translate(21,0)"/>
<path d="M0,0 L12,3 L12,7 L5,6 L4,4 L0,2 Z " fill="#383D40" transform="translate(15,57)"/>
<path d="M0,0 L12,1 L16,3 L14,6 L9,5 L8,3 L0,1 Z " fill="#050D15" transform="translate(39,58)"/>
<path d="M0,0 L3,1 L1,2 L1,5 L-13,5 L-12,2 L-11,3 L-2,3 L-2,1 Z " fill="#040B13" transform="translate(45,79)"/>
<path d="M0,0 L3,0 L3,3 L1,3 L2,5 L8,5 L8,7 L0,8 L-2,4 Z " fill="#06131A" transform="translate(35,20)"/>
<path d="M0,0 L7,0 L7,5 L0,4 Z " fill="#263632" transform="translate(63,7)"/>
<path d="M0,0 L2,3 L1,7 L-9,7 L-9,5 L-7,4 L-7,2 L-5,2 L-5,4 L-2,3 Z " fill="#212426" transform="translate(25,11)"/>
<path d="M0,0 L5,1 L11,4 L11,6 L5,5 L0,2 Z " fill="#575858" transform="translate(15,68)"/>
<path d="M0,0 L4,0 L7,7 L8,9 L3,8 L0,2 Z " fill="#555A5B" transform="translate(9,36)"/>
<path d="M0,0 L3,2 L3,4 L-8,5 L-11,8 L-12,4 L-11,3 L0,3 Z " fill="#0B1C17" transform="translate(116,0)"/>
<path d="M0,0 L6,0 L6,6 L3,6 L3,4 L-1,4 Z " fill="#2B2C2D" transform="translate(10,77)"/>
<path d="M0,0 L3,3 L3,6 L-3,7 L-7,5 L-7,4 L0,3 Z " fill="#273633" transform="translate(69,63)"/>
<path d="M0,0 L2,0 L2,2 L4,2 L4,7 L8,9 L8,10 L3,10 L2,4 L0,4 Z " fill="#04090E" transform="translate(16,38)"/>
<path d="M0,0 L2,1 L1,4 L-1,3 Z M-7,4 L-1,4 L-1,8 L-7,8 Z " fill="#070808" transform="translate(7,76)"/>
<path d="M0,0 L6,0 L2,1 L4,6 L0,7 L-4,4 L0,3 Z " fill="#050C16" transform="translate(31,69)"/>
<path d="M0,0 L3,0 L3,2 L5,2 L4,6 L0,7 Z " fill="#96A3A2" transform="translate(7,19)"/>
<path d="M0,0 L5,0 L4,4 L3,6 L-1,6 Z " fill="#181A1C" transform="translate(131,76)"/>
<path d="M0,0 L0,3 L-4,6 L-9,6 L-9,4 L-6,4 L-6,2 Z " fill="#11181F" transform="translate(39,6)"/>
<path d="M0,0 L4,0 L4,3 L2,5 L-1,5 L-4,2 Z " fill="#141E27" transform="translate(37,12)"/>
<path d="M0,0 L4,0 L4,2 L1,4 L-8,4 L-5,2 Z " fill="#000302" transform="translate(88,76)"/>
<path d="M0,0 L1,3 L-2,4 L-4,7 L-8,8 L-10,10 L-9,5 L-4,5 L-3,2 L0,2 Z " fill="#0B1B17" transform="translate(95,0)"/>
<path d="M0,0 L11,1 L11,4 L10,2 L3,3 L-1,5 Z " fill="#0B1B17" transform="translate(72,0)"/>
<path d="M0,0 L1,3 L5,1 L5,6 L-2,5 L-1,1 Z " fill="#5B7079" transform="translate(12,31)"/>
<path d="M0,0 L6,0 L8,5 L3,6 L4,4 L0,2 Z " fill="#0E1715" transform="translate(87,10)"/>
<path d="M0,0 L9,2 L10,0 L10,3 L1,4 L-3,4 Z " fill="#32404B" transform="translate(45,8)"/>
<path d="M0,0 L9,0 L9,3 L2,3 Z " fill="#445451" transform="translate(107,0)"/>
<path d="M0,0 L4,1 L0,4 L-6,3 L-5,1 Z " fill="#3D4D4B" transform="translate(88,71)"/>
<path d="M0,0 L2,0 L3,6 L-1,8 L-1,4 Z " fill="#525F69" transform="translate(32,31)"/>
<path d="M0,0 L1,0 L1,6 L3,6 L3,10 L1,10 L1,7 L-3,6 L-2,4 L0,4 L-1,1 Z " fill="#314241" transform="translate(6,20)"/>
<path d="M0,0 L6,3 L5,6 L3,6 L3,4 L-4,2 Z " fill="#141C23" transform="translate(26,73)"/>
<path d="M0,0 L4,0 L4,2 L8,3 L8,5 L1,3 Z " fill="#83929D" transform="translate(33,70)"/>
<path d="M0,0 L4,1 L8,5 L2,5 L2,3 L0,3 Z " fill="#495956" transform="translate(4,62)"/>
<path d="M0,0 L3,1 L4,5 L-2,4 L-3,1 Z " fill="#050B14" transform="translate(35,56)"/>
<path d="M0,0 L4,1 L4,3 L8,4 L8,6 L3,5 L0,2 Z " fill="#969999" transform="translate(3,52)"/>
<path d="M0,0 L4,2 L3,5 L5,5 L3,9 L3,7 L1,7 Z " fill="#030810" transform="translate(29,38)"/>
<path d="M0,0 L2,0 L1,4 L-7,3 L-4,1 Z " fill="#051314" transform="translate(65,72)"/>
<path d="M0,0 L4,2 L4,6 L0,6 Z " fill="#404545" transform="translate(3,40)"/>
<path d="M0,0 L3,0 L4,7 L1,7 Z " fill="#556570" transform="translate(19,37)"/>
<path d="M0,0 L5,4 L5,10 L3,10 L1,4 Z " fill="#1D1E25" transform="translate(120,24)"/>
<path d="M0,0 L3,1 L1,4 L-6,4 L-3,1 Z " fill="#6B7A86" transform="translate(53,6)"/>
<path d="M0,0 L3,0 L3,7 L0,7 Z " fill="#445350" transform="translate(12,0)"/>
<path d="M0,0 L5,1 L6,4 L1,4 Z " fill="#454647" transform="translate(15,79)"/>
<path d="M0,0 L4,1 L8,4 L8,6 L2,4 L2,2 L0,2 Z " fill="#515F6A" transform="translate(27,56)"/>
<path d="M0,0 L4,0 L4,5 L0,5 Z " fill="#96A3AC" transform="translate(46,0)"/>
<path d="M0,0 L6,0 L8,2 L7,4 L1,2 Z " fill="#475556" transform="translate(80,80)"/>
<path d="M0,0 L3,0 L3,2 L0,4 L-5,4 L-3,1 Z " fill="#010403" transform="translate(72,76)"/>
<path d="M0,0 L5,1 L5,3 L0,5 L-2,2 L0,2 Z " fill="#2F3D48" transform="translate(50,70)"/>
<path d="M0,0 L2,0 L2,7 L-3,5 L-3,3 L0,3 Z " fill="#071015" transform="translate(22,30)"/>
<path d="M0,0 L1,3 L-3,6 L-8,6 L-4,3 Z " fill="#7F8C96" transform="translate(39,8)"/>
<path d="M0,0 L8,2 L7,4 L1,4 Z " fill="#323E3B" transform="translate(84,11)"/>
<path d="M0,0 L2,0 L2,2 L7,3 L7,6 L4,6 L4,4 L0,4 Z " fill="#465560" transform="translate(26,9)"/>
<path d="M0,0 L4,1 L3,5 L5,6 L0,6 Z " fill="#050F14" transform="translate(64,78)"/>
<path d="M0,0 L4,0 L3,7 L1,7 Z " fill="#19353D" transform="translate(16,29)"/>
<path d="M0,0 L4,2 L8,7 L3,5 L3,3 L0,2 Z " fill="#1D1D26" transform="translate(109,19)"/>
<path d="M0,0 L6,0 L6,2 L-2,3 Z " fill="#3C4B57" transform="translate(47,12)"/>
<path d="M0,0 L5,0 L5,4 L0,3 Z " fill="#0E1A17" transform="translate(0,6)"/>
<path d="M0,0 L3,1 L4,5 L0,6 Z " fill="#24303C" transform="translate(33,51)"/>
<path d="M0,0 L1,2 L-1,5 L-1,3 L-3,3 L-4,5 L-4,3 L-6,3 L-6,1 Z " fill="#122028" transform="translate(19,35)"/>
<path d="M0,0 L6,0 L4,1 L5,5 L3,6 L3,3 L0,2 Z " fill="#0A0B11" transform="translate(104,21)"/>
<path d="M0,0 L3,0 L2,3 L0,3 L-2,7 L-4,5 L-1,4 Z " fill="#333D3B" transform="translate(12,13)"/>
<path d="M0,0 L7,1 L7,2 L-2,3 L-2,1 Z " fill="#344441" transform="translate(77,76)"/>
<path d="M0,0 L4,0 L3,5 L-1,4 Z " fill="#0D1B1A" transform="translate(67,62)"/>
<path d="M0,0 L5,2 L9,4 L7,5 L0,2 Z " fill="#939F9F" transform="translate(15,57)"/>
<path d="M0,0 L4,5 L0,6 L-1,2 Z " fill="#000102" transform="translate(19,53)"/>
<path d="M0,0 L3,0 L4,4 L0,4 Z " fill="#0E0D05" transform="translate(57,27)"/>
<path d="M0,0 L5,2 L3,3 L3,5 L1,5 L0,7 Z " fill="#182631" transform="translate(30,16)"/>
<path d="M0,0 L5,1 L5,6 L0,1 Z " fill="#55636E" transform="translate(130,17)"/>
<path d="M0,0 L2,0 L2,7 L0,7 L0,2 L-2,1 Z " fill="#23312E" transform="translate(7,6)"/>
<path d="M0,0 L3,1 L2,6 L0,6 Z " fill="#8E9C9C" transform="translate(0,9)"/>
<path d="M0,0 L5,1 L6,3 L3,4 L-1,1 Z " fill="#1E2C39" transform="translate(35,74)"/>
<path d="M0,0 L2,0 L2,2 L6,4 L0,4 L-1,1 Z " fill="#1D2826" transform="translate(3,71)"/>
<path d="M0,0 L3,1 L3,7 L1,6 L0,2 Z " fill="#2A3A37" transform="translate(90,66)"/>
<path d="M0,0 L3,0 L3,5 L0,6 Z " fill="#58747D" transform="translate(24,31)"/>
<path d="M0,0 L3,0 L3,3 L0,6 L-2,6 Z " fill="#192834" transform="translate(35,20)"/>
<path d="M0,0 L3,0 L4,5 L0,4 Z " fill="#7A7C7C" transform="translate(15,11)"/>
<path d="M0,0 L6,1 L6,3 L2,6 L2,1 Z " fill="#1B201F" transform="translate(12,7)"/>
<path d="M0,0 L2,1 L0,4 L-5,5 L-4,2 Z " fill="#9DA9AD" transform="translate(33,6)"/>
<path d="M0,0 L2,0 L2,4 L-6,4 L-6,3 L-1,2 Z " fill="#3E4E4A" transform="translate(93,5)"/>
<path d="M0,0 L5,1 L5,3 L2,4 L0,3 Z " fill="#3E4B4D" transform="translate(67,80)"/>
<path d="M0,0 L3,0 L2,3 L-4,3 Z " fill="#000001" transform="translate(62,81)"/>
<path d="M0,0 L2,2 L2,5 L-2,5 L-2,2 L0,2 Z " fill="#171818" transform="translate(30,79)"/>
<path d="M0,0 L1,2 L3,3 L-1,4 L-4,3 L-4,1 Z " fill="#414C50" transform="translate(29,5)"/>
<path d="M0,0 L4,1 L5,4 L0,4 L2,3 L2,1 Z " fill="#0F1D1E" transform="translate(70,80)"/>
<path d="M0,0 L7,0 L4,1 L4,3 L0,2 Z " fill="#1B2B27" transform="translate(0,61)"/>
<path d="M0,0 L5,1 L3,4 L0,4 Z " fill="#758180" transform="translate(7,22)"/>
<path d="M0,0 L6,0 L3,3 L0,2 Z " fill="#0A0D0E" transform="translate(53,19)"/>
<path d="M0,0 L2,3 L1,7 L-1,6 L-2,3 Z " fill="#111C26" transform="translate(25,11)"/>
<path d="M0,0 L0,3 L-4,4 L-6,4 L-6,2 Z " fill="#21292F" transform="translate(39,6)"/>
<path d="M0,0 L3,1 L2,4 L-3,3 L0,2 Z " fill="#1F2429" transform="translate(43,3)"/>
<path d="M0,0 L3,2 L3,4 L-4,4 L0,3 Z " fill="#1C2B28" transform="translate(116,0)"/>
<path d="M0,0 L4,0 L4,2 L-2,3 Z " fill="#333637" transform="translate(115,76)"/>
<path d="M0,0 L4,1 L2,1 L1,4 L-1,4 Z " fill="#414445" transform="translate(121,75)"/>
<path d="M0,0 L3,1 L2,5 L0,5 Z " fill="#282B2D" transform="translate(111,70)"/>
<path d="M0,0 L5,1 L4,3 L0,2 Z " fill="#3E4344" transform="translate(15,68)"/>
<path d="M0,0 L1,0 L1,5 L-2,4 L-2,1 Z " fill="#21282C" transform="translate(23,52)"/>
<path d="M0,0 L2,1 L3,5 L0,5 L-1,1 Z " fill="#1B2B35" transform="translate(27,25)"/>
<path d="M0,0 L4,1 L3,3 L-1,3 Z " fill="#979B9B" transform="translate(37,3)"/>
<path d="M0,0 L4,1 L2,3 L-2,2 Z " fill="#435451" transform="translate(21,0)"/>
<path d="M0,0 L3,0 L3,4 L0,4 Z " fill="#000208" transform="translate(54,0)"/>
<path d="M0,0 L4,0 L3,4 L1,4 Z " fill="#2C3B47" transform="translate(55,80)"/>
<path d="M0,0 L3,1 L3,4 L0,4 Z " fill="#8D9EA6" transform="translate(53,80)"/>
<path d="M0,0 L4,0 L2,4 Z " fill="#5F6E79" transform="translate(33,70)"/>
<path d="M0,0 L6,2 L5,4 L1,2 Z " fill="#2E3C47" transform="translate(39,66)"/>
<path d="M0,0 L4,0 L4,2 L2,2 L1,5 Z " fill="#3A4348" transform="translate(9,36)"/>
<path d="M0,0 L5,2 L4,4 L0,3 Z " fill="#0E1721" transform="translate(0,35)"/>
<path d="M0,0 L2,0 L2,4 L-1,4 Z " fill="#434648" transform="translate(131,78)"/>
<path d="M0,0 L3,0 L1,5 L0,5 Z " fill="#0C1213" transform="translate(103,73)"/>
<path d="M0,0 L3,0 L3,3 L-1,2 Z " fill="#14222D" transform="translate(51,64)"/>
<path d="M0,0 L2,0 L2,4 L-1,3 Z " fill="#1C2A2C" transform="translate(63,7)"/>
<path d="M0,0 L3,1 L0,4 L0,2 L-3,1 Z " fill="#586772" transform="translate(53,6)"/>
<path d="M0,0 L4,1 L3,3 L0,2 Z " fill="#546B78" transform="translate(50,79)"/>
<path d="M0,0 L2,4 L-2,3 L0,2 Z " fill="#0B0D0F" transform="translate(28,77)"/>
<path d="M0,0 L2,1 L2,3 L-4,2 Z " fill="#353738" transform="translate(26,73)"/>
<path d="M0,0 L4,0 L4,2 L1,3 Z " fill="#142422" transform="translate(56,64)"/>
<path d="M0,0 L3,0 L3,3 L0,3 Z " fill="#51615E" transform="translate(4,62)"/>
<path d="M0,0 L4,1 L4,3 L0,2 Z " fill="#7D8A93" transform="translate(27,56)"/>
<path d="M0,0 L2,3 L-1,5 Z " fill="#3E5961" transform="translate(15,29)"/>
<path d="M0,0 L4,1 L0,3 Z " fill="#7C8E94" transform="translate(15,25)"/>
<path d="M0,0 Z M-3,1 L0,1 L-1,4 L-3,4 Z " fill="#132526" transform="translate(3,25)"/>
<path d="M0,0 L3,0 L3,3 L0,3 Z " fill="#394945" transform="translate(65,8)"/>
<path d="M0,0 L4,1 L0,3 Z " fill="#8E9C99" transform="translate(15,0)"/>
<path d="M0,0 L3,1 L3,3 L0,3 Z " fill="#0C1824" transform="translate(35,56)"/>
<path d="M0,0 L2,0 L0,4 L-1,1 Z " fill="#314D55" transform="translate(10,30)"/>
<path d="M0,0 L3,1 L-1,3 Z " fill="#64737F" transform="translate(39,17)"/>
<path d="M0,0 L3,0 L2,3 L0,3 Z " fill="#535656" transform="translate(12,13)"/>
<path d="M0,0 L1,3 L-2,4 Z " fill="#65737E" transform="translate(39,8)"/>
<path d="M0,0 L3,2 L0,3 L-2,1 Z " fill="#1B2934" transform="translate(44,71)"/>
<path d="M0,0 L4,2 L1,3 Z " fill="#858788" transform="translate(3,52)"/>
<path d="M0,0 L2,2 L-2,2 Z " fill="#283642" transform="translate(44,10)"/>
</svg>
