<?xml version="1.0" encoding="UTF-8"?>
<!-- Generator: visioncortex VTracer 0.6.5 -->
<svg version="1.1" xmlns="http://www.w3.org/2000/svg" width="150" height="84">
<path d="M0,0 L150,0 L150,84 L0,84 Z " fill="#010102" transform="translate(0,0)"/>
<path d="M0,0 L57,0 L56,7 L45,7 L46,9 L50,10 L49,15 L46,16 L45,21 L47,21 L47,23 L38,23 L38,26 L34,25 L34,23 L37,21 L37,19 L36,21 L27,23 L27,21 L23,22 L21,26 L15,26 L11,36 L9,36 L10,38 L14,36 L17,35 L17,31 L24,33 L27,35 L27,37 L30,34 L32,34 L33,40 L30,42 L29,41 L29,43 L26,43 L26,36 L24,36 L23,40 L21,40 L24,43 L24,45 L26,45 L27,49 L23,47 L23,45 L18,44 L19,45 L24,49 L28,53 L31,55 L29,63 L33,65 L33,67 L29,66 L24,64 L23,60 L26,60 L20,52 L19,48 L14,48 L12,41 L9,42 L7,42 L8,48 L13,48 L14,55 L4,55 L4,58 L13,58 L14,56 L14,59 L20,61 L21,64 L16,62 L12,61 L13,66 L19,66 L19,68 L23,69 L23,72 L28,72 L30,72 L33,72 L33,74 L42,75 L42,73 L52,73 L51,70 L49,69 L48,66 L41,65 L32,61 L31,59 L34,59 L32,55 L36,55 L37,60 L44,60 L44,62 L53,64 L53,62 L49,62 L49,60 L47,60 L47,58 L56,60 L55,63 L60,63 L60,61 L65,62 L65,64 L73,64 L74,62 L79,62 L80,68 L76,68 L76,66 L64,66 L63,67 L58,67 L54,66 L51,66 L51,68 L55,69 L64,70 L65,73 L55,73 L63,74 L62,78 L67,79 L68,83 L67,84 L0,84 Z " fill="#070F10" transform="translate(0,0)"/>
<path d="M0,0 L3,1 L4,6 L11,6 L11,8 L20,10 L20,8 L16,8 L16,6 L14,6 L14,4 L23,6 L22,9 L27,9 L27,7 L32,8 L32,10 L40,10 L41,8 L46,8 L47,14 L43,14 L43,12 L31,12 L30,13 L25,13 L21,12 L18,12 L18,14 L22,15 L31,16 L32,19 L22,19 L30,20 L29,24 L34,25 L35,29 L34,30 L-33,30 L-33,11 L-29,12 L-19,16 L-16,16 L-16,18 L-11,19 L-10,15 L-10,18 L-5,18 L-3,18 L0,18 L0,20 L9,21 L9,19 L19,19 L18,16 L16,15 L15,12 L8,11 L-1,7 L-2,5 L1,5 L-1,1 Z " fill="#040505" transform="translate(33,54)"/>
<path d="M0,0 L18,0 L17,7 L6,7 L7,9 L11,10 L10,15 L7,16 L6,21 L8,21 L8,23 L-1,23 L-1,26 L-5,25 L-5,23 L-2,21 L-2,19 L-3,21 L-12,23 L-12,21 L-16,22 L-18,26 L-24,26 L-28,34 L-32,35 L-32,32 L-34,32 L-33,28 L-31,28 L-29,24 L-25,20 L-22,20 L-23,17 L-18,17 L-17,12 L-14,12 L-13,9 L-10,8 L-9,5 L-5,1 Z " fill="#192027" transform="translate(39,0)"/>
<path d="M0,0 L3,1 L4,6 L11,6 L11,8 L20,10 L20,8 L16,8 L16,6 L14,6 L14,4 L23,6 L22,9 L27,9 L27,7 L32,8 L32,10 L40,10 L41,8 L46,8 L47,14 L43,14 L43,12 L31,12 L30,13 L25,13 L21,12 L18,12 L18,14 L22,15 L31,16 L32,19 L22,19 L30,20 L29,24 L34,25 L35,29 L34,30 L25,30 L25,27 L20,27 L19,29 L12,27 L14,25 L6,24 L-2,22 L-4,23 L-8,21 L-8,19 L0,18 L0,20 L9,21 L9,19 L19,19 L18,16 L16,15 L15,12 L8,11 L-1,7 L-2,5 L1,5 L-1,1 Z " fill="#27323D" transform="translate(33,54)"/>
<path d="M0,0 L5,0 L5,2 L9,3 L9,7 L0,8 L2,10 L6,11 L5,15 L-2,15 L-2,17 L4,17 L4,18 L-1,18 L-1,20 L-26,20 L-26,15 L-33,14 L-30,13 L-29,11 L-17,6 L-15,6 L-15,9 L-9,11 L-9,8 L-1,5 L-3,4 L-3,2 Z " fill="#040405" transform="translate(93,64)"/>
<path d="M0,0 L4,1 L6,4 L6,9 L8,9 L8,7 L13,7 L14,14 L4,14 L4,17 L13,17 L14,15 L14,18 L20,20 L21,23 L16,21 L12,20 L13,25 L19,25 L19,27 L22,28 L22,32 L17,31 L17,29 L13,30 L0,24 Z " fill="#4A5A57" transform="translate(0,41)"/>
<path d="M0,0 L7,2 L10,4 L10,6 L13,3 L15,3 L16,9 L13,11 L12,10 L12,12 L9,12 L9,5 L7,5 L6,9 L4,9 L7,12 L7,14 L9,14 L10,18 L6,16 L6,14 L1,13 L2,14 L7,18 L11,22 L14,24 L12,32 L16,34 L16,36 L12,35 L7,33 L6,29 L9,29 L3,21 L2,17 L-3,17 L-5,10 L-7,10 L-7,8 L-2,4 L0,4 Z " fill="#243C44" transform="translate(17,31)"/>
<path d="M0,0 L2,1 L0,5 L-2,5 L-2,7 L2,9 L0,12 L1,15 L-3,14 L-3,20 L-4,16 L-6,16 L-7,19 L-9,19 L-9,17 L-16,15 L-19,13 L-19,17 L-24,21 L-27,20 L-27,18 L-25,17 L-22,8 L-18,6 L-18,8 L-14,6 L-14,3 L-9,3 L-6,4 L-3,4 L-2,2 L0,3 Z " fill="#030911" transform="translate(36,18)"/>
<path d="M0,0 L23,0 L24,8 L22,8 L22,10 L17,10 L12,15 L6,17 L5,15 L9,9 L11,9 L10,5 L6,7 L0,7 Z " fill="#27333E" transform="translate(0,0)"/>
<path d="M0,0 L3,0 L3,2 L12,3 L12,1 L33,2 L32,6 L37,7 L38,11 L37,12 L28,12 L28,9 L23,9 L22,11 L15,9 L17,7 L9,6 L1,4 L-1,5 L-5,3 L-5,1 Z " fill="#53616D" transform="translate(30,72)"/>
<path d="M0,0 L6,1 L5,6 L2,7 L1,12 L3,12 L3,14 L-6,14 L-6,17 L-10,16 L-10,14 L-7,12 L-7,10 L-8,12 L-15,14 L-16,12 L-14,12 L-14,10 L-9,9 L-10,6 L-17,11 L-16,6 L-7,2 L-2,1 Z " fill="#0D1B23" transform="translate(44,9)"/>
<path d="M0,0 L32,0 L32,1 L23,2 L17,6 L16,10 L9,10 L8,6 L9,5 L14,5 L14,3 L2,4 L-2,6 L-2,3 Z M-9,5 L-3,5 L-4,9 L-7,9 L-7,14 L-8,15 L-13,15 L-14,12 L-11,11 Z " fill="#11221D" transform="translate(70,0)"/>
<path d="M0,0 L2,0 L2,7 L5,7 L4,3 L6,2 L7,5 L10,2 L9,6 L9,9 L16,13 L16,17 L10,17 L8,16 L10,22 L11,24 L6,24 L6,19 L0,15 L-5,10 L-7,9 L-6,7 L-1,9 L3,13 L2,9 L0,9 L0,7 L-3,6 L-3,4 L-1,3 Z " fill="#080D14" transform="translate(24,36)"/>
<path d="M0,0 L16,0 L16,1 L8,3 L7,6 L6,8 L12,8 L12,9 L3,10 L2,12 L-1,12 L-2,17 L-7,17 L-7,19 L-3,20 L-10,22 L-12,23 L-12,17 L-6,9 L-1,10 L-1,8 L1,8 L0,6 Z " fill="#05080D" transform="translate(23,0)"/>
<path d="M0,0 L18,0 L17,7 L3,7 L6,6 L5,4 L0,6 L-3,10 L-13,10 L-10,8 L-9,5 L-5,1 Z " fill="#07111C" transform="translate(39,0)"/>
<path d="M0,0 L2,1 L-5,4 L-8,11 L-16,15 L-20,17 L-23,17 L-23,15 L-26,14 L-26,10 L-24,10 L-23,8 L-23,10 L-16,10 L-15,5 L-9,1 Z " fill="#000A06" transform="translate(102,0)"/>
<path d="M0,0 L3,1 L3,6 L-2,9 L-8,10 L-13,12 L-13,15 L-8,11 L-7,15 L-12,16 L-12,18 L-14,18 L-15,20 L-15,18 L-21,17 L-21,15 L-19,15 L-19,13 L-16,12 L-15,10 L-18,9 L-17,7 L-6,7 L-4,3 Z " fill="#657A81" transform="translate(42,3)"/>
<path d="M0,0 L6,0 L13,2 L13,4 L22,7 L20,9 L10,9 L7,10 L0,10 Z " fill="#0F1118" transform="translate(0,70)"/>
<path d="M0,0 L1,2 L9,0 L10,10 L3,9 L0,7 L0,11 L-5,15 L-8,14 L-8,12 L-6,11 L-3,2 Z " fill="#040609" transform="translate(17,24)"/>
<path d="M0,0 L2,4 L3,12 L1,13 L0,10 L-7,8 L-7,10 L-5,10 L-5,12 L-1,12 L-1,14 L-8,14 L-11,12 L-10,10 L-14,11 L-14,7 L-13,6 L-5,6 L-4,2 Z " fill="#050F1B" transform="translate(54,50)"/>
<path d="M0,0 L2,0 L2,2 L6,4 L13,10 L16,12 L14,20 L18,22 L18,24 L14,23 L9,21 L8,17 L11,17 L5,9 L4,5 L-1,5 L-2,1 Z " fill="#3D4650" transform="translate(15,43)"/>
<path d="M0,0 L9,2 L8,5 L13,5 L13,3 L18,4 L18,6 L26,6 L27,4 L32,4 L33,10 L29,10 L29,8 L17,8 L16,9 L11,9 L6,8 L6,4 L2,4 L2,2 L0,2 Z " fill="#273440" transform="translate(47,58)"/>
<path d="M0,0 L3,1 L2,3 L7,4 L7,2 L14,2 L13,6 L-20,6 L-20,4 L-26,4 L-26,2 L-19,1 L-18,4 L-11,5 L-11,3 L-1,4 L-2,1 Z " fill="#16181C" transform="translate(45,78)"/>
<path d="M0,0 L1,0 L1,5 L-3,9 L-4,11 L-6,11 L-5,16 L-10,17 L-10,3 L-3,1 Z " fill="#12202B" transform="translate(10,4)"/>
<path d="M0,0 L8,0 L7,6 L2,8 L-3,13 L-8,14 L-9,12 L-5,6 L-1,6 Z " fill="#8E99A2" transform="translate(14,3)"/>
<path d="M0,0 L24,0 L24,1 L15,2 L9,6 L8,10 L1,10 L0,6 L1,5 L6,5 L5,3 L0,2 Z " fill="#192926" transform="translate(78,0)"/>
<path d="M0,0 L6,0 L13,3 L19,4 L19,6 L22,7 L22,11 L17,10 L17,8 L13,9 L0,3 Z " fill="#2E3541" transform="translate(0,62)"/>
<path d="M0,0 L2,1 L-2,2 L-1,4 L2,6 L1,7 L-6,7 L-6,9 L-4,10 L-6,12 L-11,13 L-11,11 L-13,11 L-12,6 L-8,2 Z " fill="#040C12" transform="translate(58,10)"/>
<path d="M0,0 L3,0 L3,2 L12,3 L12,1 L15,1 L15,3 L21,4 L22,6 L17,8 L15,7 L4,5 L0,5 L-5,3 L-5,1 Z " fill="#363F48" transform="translate(30,72)"/>
<path d="M0,0 L3,1 L0,5 L0,10 L2,10 L2,12 L-7,12 L-7,15 L-11,14 L-11,12 L-8,10 L-9,6 L-7,6 L-7,4 L-1,1 Z " fill="#28343F" transform="translate(45,11)"/>
<path d="M0,0 L12,3 L14,7 L6,7 L4,6 L4,8 L-3,7 L-4,1 Z " fill="#040404" transform="translate(30,75)"/>
<path d="M0,0 L2,0 L2,2 L7,0 L12,6 L8,5 L6,3 L6,5 L0,6 L1,12 L-3,7 L-8,6 L-8,2 Z " fill="#16191E" transform="translate(123,8)"/>
<path d="M0,0 L3,1 L4,0 L13,1 L19,2 L19,3 L14,3 L14,5 L-3,5 L-3,2 Z " fill="#09090D" transform="translate(78,79)"/>
<path d="M0,0 L5,2 L5,4 L2,5 L1,7 L3,7 L3,12 L-2,12 L-3,14 L-5,10 L-7,10 L-7,8 L-2,4 L0,4 Z " fill="#4B636B" transform="translate(17,31)"/>
<path d="M0,0 L2,0 L2,3 L6,5 L6,7 L-8,7 L-11,6 L-11,4 Z " fill="#1F292C" transform="translate(76,70)"/>
<path d="M0,0 L2,0 L2,5 L-2,13 L-6,14 L-6,11 L-8,11 L-7,7 L-5,7 L-3,3 Z " fill="#4B5252" transform="translate(13,21)"/>
<path d="M0,0 L4,1 L14,5 L17,5 L17,7 L20,8 L18,11 L13,9 L13,7 L6,6 L0,5 Z " fill="#050A16" transform="translate(0,65)"/>
<path d="M0,0 L1,3 L7,5 L8,8 L3,6 L-1,5 L0,9 L-6,8 L-13,6 L-13,4 L-6,4 L-5,2 L0,2 Z " fill="#162024" transform="translate(13,56)"/>
<path d="M0,0 L2,0 L1,4 L6,5 L7,9 L6,10 L-3,10 L-4,5 L-6,3 L0,1 Z " fill="#132030" transform="translate(61,74)"/>
<path d="M0,0 L1,4 L-1,6 L2,5 L3,3 L5,3 L3,14 L2,10 L0,10 L-1,13 L-3,13 L-3,11 L-5,10 L-4,9 L-4,3 Z " fill="#0E1B26" transform="translate(30,24)"/>
<path d="M0,0 L6,0 L13,2 L13,4 L22,7 L18,9 L8,5 L7,4 L0,3 Z " fill="#171D23" transform="translate(0,70)"/>
<path d="M0,0 L1,2 L7,2 L7,4 L9,5 L7,8 L1,9 L1,7 L-2,6 L-2,2 L0,2 Z " fill="#0A1411" transform="translate(78,8)"/>
<path d="M0,0 L5,0 L5,2 L9,3 L9,7 L-1,7 L-1,4 L-3,4 L-3,2 Z " fill="#1B2122" transform="translate(93,64)"/>
<path d="M0,0 L6,0 L6,2 L-2,4 L-2,6 L-7,8 L-10,8 L-9,5 L-5,1 Z " fill="#6D8389" transform="translate(39,0)"/>
<path d="M0,0 L3,1 L3,6 L-2,9 L-7,9 L-5,4 Z " fill="#4C656B" transform="translate(42,3)"/>
<path d="M0,0 L4,1 L8,7 L11,12 L7,11 L7,9 L4,10 L3,7 L1,6 Z " fill="#030707" transform="translate(16,49)"/>
<path d="M0,0 L4,1 L1,6 L-2,8 L-7,9 L-9,11 L-9,6 L-6,5 L-4,2 Z " fill="#04130F" transform="translate(72,3)"/>
<path d="M0,0 L10,0 L10,3 L3,7 L0,7 Z " fill="#56646E" transform="translate(0,0)"/>
<path d="M0,0 L2,0 L2,2 L6,3 L15,4 L16,7 L6,7 L6,8 L-2,8 L-2,7 L3,7 L2,4 L0,3 Z " fill="#182430" transform="translate(49,66)"/>
<path d="M0,0 L7,2 L7,9 L11,11 L11,13 L7,12 L2,10 L1,6 L4,6 Z " fill="#171F23" transform="translate(22,54)"/>
<path d="M0,0 L3,1 L5,4 L-3,7 L-10,8 L-8,7 L-7,5 L-6,2 Z " fill="#141618" transform="translate(90,70)"/>
<path d="M0,0 L5,1 L5,10 L0,11 Z " fill="#000306" transform="translate(0,10)"/>
<path d="M0,0 L4,0 L2,9 L1,10 L-4,10 L-5,7 L-2,6 Z " fill="#152521" transform="translate(61,5)"/>
<path d="M0,0 L5,0 L6,7 L0,7 L-2,2 L0,2 Z " fill="#2E3234" transform="translate(8,48)"/>
<path d="M0,0 L6,1 L5,6 L2,7 L1,9 L1,7 L-2,6 L2,6 L3,3 L-1,5 L-4,6 L-4,4 L-7,3 Z " fill="#192932" transform="translate(44,9)"/>
<path d="M0,0 L10,2 L7,9 L4,8 L4,4 L-3,3 L0,2 Z " fill="#0B1421" transform="translate(63,75)"/>
<path d="M0,0 L3,1 L3,4 L14,5 L14,8 L2,7 L2,4 L0,4 Z " fill="#0E1E19" transform="translate(132,15)"/>
<path d="M0,0 L8,0 L7,6 L2,7 L1,4 L-1,7 Z " fill="#676F74" transform="translate(14,3)"/>
<path d="M0,0 L24,0 L24,1 L15,2 L14,3 L0,2 Z " fill="#354643" transform="translate(78,0)"/>
<path d="M0,0 L6,0 L12,4 L12,6 L4,5 L0,3 Z " fill="#85929C" transform="translate(0,62)"/>
<path d="M0,0 L11,0 L11,1 L3,3 L2,6 L1,8 L7,8 L7,9 L-2,9 Z " fill="#051113" transform="translate(28,0)"/>
<path d="M0,0 L3,1 L3,3 L10,4 L10,2 L13,3 L13,5 L1,5 L1,3 L-5,3 L-5,1 Z " fill="#1F2021" transform="translate(24,79)"/>
<path d="M0,0 L5,0 L5,6 L2,9 L0,6 Z M-1,8 L1,9 L-1,11 Z " fill="#000002" transform="translate(23,0)"/>
<path d="M0,0 L3,0 L3,2 L0,2 L-1,5 L-5,5 L-8,8 L-12,9 L-12,7 L-10,7 L-10,5 L-8,5 L-8,3 Z " fill="#2A2D2F" transform="translate(130,66)"/>
<path d="M0,0 L1,3 L10,3 L11,5 L-8,5 L-7,2 L0,2 Z " fill="#020A0D" transform="translate(133,19)"/>
<path d="M0,0 L6,0 L7,6 L3,6 L3,4 L-5,4 L-5,2 L0,2 Z " fill="#303D3C" transform="translate(73,62)"/>
<path d="M0,0 L4,1 L5,6 L-1,9 L-2,2 Z " fill="#00030A" transform="translate(8,40)"/>
<path d="M0,0 L2,1 L-5,4 L-7,8 L-10,5 L-14,4 L-9,1 Z " fill="#11211D" transform="translate(102,0)"/>
<path d="M0,0 L8,0 L9,8 L7,8 L7,10 L5,9 L7,3 L0,4 Z " fill="#18191C" transform="translate(15,0)"/>
<path d="M0,0 L6,1 L4,5 L2,5 L1,9 L-4,9 L-3,5 L1,5 Z " fill="#374646" transform="translate(4,15)"/>
<path d="M0,0 L5,2 L7,3 L7,7 L1,7 L-1,3 Z " fill="#060F1A" transform="translate(33,46)"/>
<path d="M0,0 L2,0 L2,4 L-1,4 L-2,7 L-7,7 L-5,3 L-3,3 L-3,1 Z " fill="#607171" transform="translate(148,75)"/>
<path d="M0,0 L4,0 L5,9 L1,8 L0,7 Z " fill="#888F96" transform="translate(2,45)"/>
<path d="M0,0 L2,0 L3,6 L0,8 L-1,7 L-1,9 L-4,9 L-4,4 Z " fill="#52616B" transform="translate(30,34)"/>
<path d="M0,0 L4,1 L2,7 L-3,7 L-2,3 L-3,1 Z " fill="#000208" transform="translate(73,77)"/>
<path d="M0,0 L3,1 L-4,6 L-5,8 L-15,8 L-15,7 L-9,6 L-8,4 L-4,4 L-4,2 Z " fill="#1D3236" transform="translate(41,2)"/>
<path d="M0,0 L7,0 L4,4 L-4,4 L-6,2 Z " fill="#030F0C" transform="translate(104,0)"/>
<path d="M0,0 L4,1 L8,3 L8,6 L0,5 Z " fill="#161C28" transform="translate(0,65)"/>
<path d="M0,0 L7,0 L12,6 L10,7 L4,3 L0,2 Z " fill="#595B5D" transform="translate(131,2)"/>
<path d="M0,0 L8,0 L7,4 L0,4 Z " fill="#4D5053" transform="translate(0,76)"/>
<path d="M0,0 L5,1 L5,3 L8,3 L8,5 L-2,6 Z " fill="#152328" transform="translate(60,61)"/>
<path d="M0,0 L1,3 L6,1 L5,4 L3,4 L3,7 L1,7 L1,4 L-6,5 L-6,3 Z " fill="#233534" transform="translate(6,32)"/>
<path d="M0,0 L5,1 L4,4 L1,4 L1,6 L-6,7 L-6,5 L-1,5 Z " fill="#324753" transform="translate(22,12)"/>
<path d="M0,0 L6,0 L12,2 L11,4 L0,3 Z " fill="#494C59" transform="translate(0,70)"/>
<path d="M0,0 L5,2 L5,4 L0,5 L0,7 L-2,7 L-2,9 L-4,9 L-3,5 L0,4 Z " fill="#66767D" transform="translate(17,31)"/>
<path d="M0,0 L9,1 L15,2 L15,3 L5,4 L5,3 L0,2 Z " fill="#45464A" transform="translate(82,79)"/>
<path d="M0,0 L3,0 L3,2 L6,3 L6,4 L1,4 L-1,5 L-5,3 L-5,1 Z " fill="#595A5B" transform="translate(30,72)"/>
<path d="M0,0 L1,3 L5,5 L5,7 L7,7 L7,9 L3,8 L-1,6 Z " fill="#13171B" transform="translate(29,57)"/>
<path d="M0,0 L1,3 L7,5 L8,8 L3,6 L-1,5 L-2,7 L-3,3 L0,2 Z " fill="#2E3939" transform="translate(13,56)"/>
<path d="M0,0 L3,1 L5,4 L3,5 L-4,5 L-6,3 L0,2 Z " fill="#030A14" transform="translate(129,11)"/>
<path d="M0,0 L5,1 L1,2 L1,6 L-3,7 L-4,1 Z " fill="#0B141C" transform="translate(42,22)"/>
<path d="M0,0 L1,4 L-4,5 L-4,7 L-6,7 L-7,9 L-7,7 L-10,6 L-8,6 L-7,4 L-5,4 Z " fill="#5B6974" transform="translate(34,14)"/>
<path d="M0,0 L3,0 L3,5 L-5,5 L-6,3 L-1,2 Z " fill="#050A09" transform="translate(147,79)"/>
<path d="M0,0 L1,2 L-1,2 L-1,5 L-7,5 L-7,1 Z " fill="#1F2021" transform="translate(7,79)"/>
<path d="M0,0 L14,2 L14,4 L5,4 L0,1 Z " fill="#42505A" transform="translate(39,62)"/>
<path d="M0,0 L6,5 L2,6 L2,4 L0,3 L0,5 L-4,5 L-4,2 Z " fill="#32373C" transform="translate(129,8)"/>
<path d="M0,0 L6,0 L5,3 L-5,4 L-3,3 L-3,1 Z " fill="#222427" transform="translate(93,76)"/>
<path d="M0,0 L3,0 L4,4 L2,6 L-1,6 L-2,1 Z " fill="#768385" transform="translate(8,29)"/>
<path d="M0,0 L7,0 L6,4 L-1,4 Z " fill="#1A2835" transform="translate(52,80)"/>
<path d="M0,0 L5,0 L5,3 L-5,3 L-5,1 Z " fill="#2F3939" transform="translate(97,68)"/>
<path d="M0,0 L7,1 L7,6 L5,7 L2,4 L0,2 Z " fill="#13191A" transform="translate(16,57)"/>
<path d="M0,0 L7,2 L4,3 L4,9 L2,9 L1,2 L-3,1 Z " fill="#13161A" transform="translate(12,46)"/>
<path d="M0,0 L4,1 L1,1 L1,3 L3,4 L2,8 L-2,7 Z " fill="#0D1313" transform="translate(24,72)"/>
<path d="M0,0 L2,0 L2,7 L0,8 L-3,6 L-3,4 L-1,3 Z " fill="#071016" transform="translate(24,36)"/>
<path d="M0,0 L1,0 L1,5 L-3,7 L-4,2 Z " fill="#02070F" transform="translate(10,4)"/>
<path d="M0,0 L2,0 L2,4 L4,4 L4,6 L-1,10 Z " fill="#03110D" transform="translate(141,72)"/>
<path d="M0,0 L8,1 L8,5 L3,4 L3,2 L0,2 Z " fill="#525962" transform="translate(14,68)"/>
<path d="M0,0 L4,1 L5,4 L2,4 L2,7 L0,7 Z " fill="#4A5A63" transform="translate(0,41)"/>
<path d="M0,0 L2,1 L-1,6 L-6,6 L-6,4 L-4,4 L-4,2 Z " fill="#80939F" transform="translate(27,14)"/>
<path d="M0,0 L9,2 L8,4 L1,4 Z " fill="#2E3937" transform="translate(76,11)"/>
<path d="M0,0 L7,0 L7,3 L0,3 L-2,1 Z " fill="#404E5A" transform="translate(48,3)"/>
<path d="M0,0 L7,3 L5,6 L-3,3 L0,2 Z " fill="#2A333B" transform="translate(24,51)"/>
<path d="M0,0 L5,2 L5,5 L-1,5 L-2,1 Z " fill="#4A4F4F" transform="translate(8,49)"/>
<path d="M0,0 L2,0 L2,5 L-4,7 L-5,5 L-1,5 Z " fill="#8C979F" transform="translate(10,10)"/>
<path d="M0,0 L2,0 L2,5 L-3,5 L-4,2 Z " fill="#293936" transform="translate(60,10)"/>
<path d="M0,0 L3,0 L3,3 L-8,4 L-7,1 L0,2 Z " fill="#292D32" transform="translate(42,73)"/>
<path d="M0,0 L4,0 L4,3 L-3,5 L-4,3 L-2,3 L-2,1 Z " fill="#1A252F" transform="translate(32,18)"/>
<path d="M0,0 L3,1 L3,3 L-1,3 L-1,5 L-6,6 L-1,1 Z " fill="#859CA3" transform="translate(42,3)"/>
<path d="M0,0 L3,1 L3,3 L-7,3 L-7,1 L0,2 Z " fill="#48494B" transform="translate(34,81)"/>
<path d="M0,0 L1,2 L4,2 L4,4 L2,4 L2,6 L-1,7 L-1,1 Z " fill="#030A0E" transform="translate(36,11)"/>
<path d="M0,0 L8,0 L9,3 L1,3 Z " fill="#1A1A1E" transform="translate(91,80)"/>
<path d="M0,0 L10,0 L6,2 L2,3 L0,2 Z " fill="#070F0F" transform="translate(68,61)"/>
<path d="M0,0 L5,1 L5,8 L1,3 Z " fill="#3B454F" transform="translate(119,12)"/>
<path d="M0,0 L2,1 L-2,7 L-5,7 L-4,4 Z " fill="#4E6267" transform="translate(34,1)"/>
<path d="M0,0 L2,0 L3,4 L-1,5 L-3,1 Z " fill="#627986" transform="translate(65,79)"/>
<path d="M0,0 L7,2 L8,5 L4,4 L0,2 Z " fill="#8D9597" transform="translate(25,62)"/>
<path d="M0,0 L5,2 L6,5 L1,5 Z " fill="#2E363D" transform="translate(33,46)"/>
<path d="M0,0 L4,1 L4,5 L0,4 Z " fill="#515456" transform="translate(20,48)"/>
<path d="M0,0 L3,0 L5,3 L4,6 L0,4 Z " fill="#0B2228" transform="translate(0,37)"/>
<path d="M0,0 L6,0 L6,3 L0,3 Z " fill="#0E0E10" transform="translate(144,34)"/>
<path d="M0,0 L5,0 L3,3 L-2,4 L-3,1 Z " fill="#0A1617" transform="translate(49,19)"/>
<path d="M0,0 L5,0 L4,4 L0,3 Z " fill="#4A5B57" transform="translate(80,6)"/>
<path d="M0,0 L3,0 L3,2 L8,2 L8,3 L0,4 L-2,2 L0,2 Z " fill="#10201C" transform="translate(75,0)"/>
<path d="M0,0 L4,1 L2,2 L3,5 L-3,5 Z " fill="#375261" transform="translate(61,79)"/>
<path d="M0,0 L2,1 L1,5 L-3,5 L-3,2 Z " fill="#2C2E33" transform="translate(78,79)"/>
<path d="M0,0 L2,0 L2,4 L-3,4 L-3,1 Z " fill="#6B7B7A" transform="translate(148,75)"/>
<path d="M0,0 L2,0 L3,7 L0,7 Z " fill="#353B3C" transform="translate(0,48)"/>
<path d="M0,0 L2,2 L2,5 L-3,6 L-3,2 L-1,2 Z " fill="#0E1D1B" transform="translate(3,15)"/>
<path d="M0,0 L3,1 L1,4 L-6,5 L-1,1 Z " fill="#667A82" transform="translate(45,11)"/>
<path d="M0,0 L3,0 L4,5 L0,4 Z " fill="#BAC0C3" transform="translate(3,49)"/>
<path d="M0,0 L3,0 L2,6 L0,6 Z " fill="#8D9AA3" transform="translate(0,0)"/>
<path d="M0,0 L4,1 L4,4 L0,4 Z " fill="#2E2F31" transform="translate(144,51)"/>
<path d="M0,0 L3,0 L3,5 L1,5 L1,3 L-1,3 Z " fill="#707274" transform="translate(10,26)"/>
<path d="M0,0 L4,0 L3,4 L0,4 Z " fill="#020A0A" transform="translate(43,24)"/>
<path d="M0,0 L2,0 L1,5 L-3,4 L-3,2 Z " fill="#65727B" transform="translate(37,21)"/>
<path d="M0,0 L3,0 L3,4 L-1,4 Z " fill="#4A5A58" transform="translate(1,20)"/>
<path d="M0,0 L6,0 L5,4 L2,3 L3,1 Z " fill="#455560" transform="translate(39,16)"/>
<path d="M0,0 L2,0 L2,6 L-3,4 Z " fill="#23272C" transform="translate(123,8)"/>
<path d="M0,0 L6,2 L6,5 L0,2 Z " fill="#686B6D" transform="translate(136,4)"/>
<path d="M0,0 L2,0 L3,6 L1,6 L1,8 L-1,7 Z " fill="#272F34" transform="translate(21,2)"/>
<path d="M0,0 L3,1 L1,5 L-1,5 L-2,1 Z " fill="#1C3143" transform="translate(59,78)"/>
<path d="M0,0 L6,1 L4,4 L0,2 Z " fill="#434748" transform="translate(25,73)"/>
<path d="M0,0 L2,0 L1,3 L-6,3 L-6,1 Z " fill="#2D3A46" transform="translate(42,60)"/>
<path d="M0,0 L4,1 L3,4 L0,4 Z " fill="#0E0F10" transform="translate(125,6)"/>
<path d="M0,0 L5,3 L4,5 L1,5 Z " fill="#191B1E" transform="translate(134,4)"/>
<path d="M0,0 L4,0 L5,3 L-2,2 Z " fill="#3E4B55" transform="translate(60,70)"/>
<path d="M0,0 L5,0 L4,3 L0,3 Z " fill="#57585B" transform="translate(140,63)"/>
<path d="M0,0 L4,0 L3,3 L-1,3 Z " fill="#1B1B1E" transform="translate(87,62)"/>
<path d="M0,0 L5,0 L5,2 L2,2 L1,4 L1,2 L-1,1 Z " fill="#16242D" transform="translate(25,43)"/>
<path d="M0,0 L3,1 L3,5 L0,5 Z " fill="#607981" transform="translate(26,38)"/>
<path d="M0,0 L3,0 L2,4 L0,4 L0,2 L-2,1 Z " fill="#172B33" transform="translate(27,33)"/>
<path d="M0,0 L3,0 L4,4 L2,3 L0,5 L-1,1 Z " fill="#A2A9AB" transform="translate(8,29)"/>
<path d="M0,0 L2,0 L5,5 L1,4 Z " fill="#15171D" transform="translate(109,23)"/>
<path d="M0,0 L3,1 L3,6 L2,4 L0,4 Z " fill="#4A585F" transform="translate(132,15)"/>
<path d="M0,0 L1,2 L4,3 L0,6 L-2,2 L0,2 Z " fill="#1F2D39" transform="translate(38,15)"/>
<path d="M0,0 L5,0 L5,2 L0,3 Z " fill="#1F2F2B" transform="translate(70,0)"/>
<path d="M0,0 L4,0 L4,3 L-1,3 Z " fill="#000104" transform="translate(45,0)"/>
<path d="M0,0 L3,1 L2,4 L-1,4 Z " fill="#020B16" transform="translate(56,80)"/>
<path d="M0,0 L5,2 L5,4 L0,2 Z " fill="#929BA0" transform="translate(16,60)"/>
<path d="M0,0 L7,1 L3,2 L2,4 L2,2 L0,2 Z " fill="#1B2833" transform="translate(47,58)"/>
<path d="M0,0 L1,4 L-3,4 L-2,1 Z " fill="#202E3A" transform="translate(30,24)"/>
<path d="M0,0 L5,2 L5,4 L0,3 Z " fill="#16181E" transform="translate(99,19)"/>
<path d="M0,0 L1,2 L0,6 L-3,6 L-1,1 Z " fill="#5B6974" transform="translate(9,9)"/>
<path d="M0,0 L4,1 L-1,5 Z " fill="#182825" transform="translate(141,77)"/>
<path d="M0,0 L3,1 L2,4 L-2,2 Z " fill="#090E10" transform="translate(126,74)"/>
<path d="M0,0 L1,4 L-4,3 Z " fill="#252A34" transform="translate(12,72)"/>
<path d="M0,0 L4,1 L6,2 L5,4 L0,1 Z " fill="#74838D" transform="translate(39,62)"/>
<path d="M0,0 L2,2 L2,6 L-1,5 Z " fill="#29383C" transform="translate(7,58)"/>
<path d="M0,0 L6,2 L5,4 L0,2 Z " fill="#060D15" transform="translate(17,43)"/>
<path d="M0,0 L1,2 L3,3 L2,5 L-1,4 Z " fill="#435E67" transform="translate(17,36)"/>
<path d="M0,0 L4,0 L3,3 L0,3 Z " fill="#01070A" transform="translate(3,36)"/>
<path d="M0,0 L4,1 L2,5 L0,1 Z " fill="#05101A" transform="translate(30,22)"/>
<path d="M0,0 L3,1 L-1,5 Z " fill="#0D1014" transform="translate(12,18)"/>
<path d="M0,0 L3,1 L2,4 L-1,4 Z " fill="#161B23" transform="translate(129,11)"/>
<path d="M0,0 L3,1 L1,4 L-1,4 Z " fill="#2F3235" transform="translate(107,70)"/>
<path d="M0,0 L4,2 L-2,3 L0,2 Z " fill="#161D25" transform="translate(17,63)"/>
<path d="M0,0 L2,0 L2,3 L-2,3 L-2,1 Z " fill="#9B9FA1" transform="translate(20,3)"/>
<path d="M0,0 L3,1 L3,3 L-1,2 Z " fill="#3D3D3F" transform="translate(34,81)"/>
<path d="M0,0 L3,0 L3,3 L0,3 Z " fill="#5D6B76" transform="translate(0,62)"/>
<path d="M0,0 L1,4 L-2,3 L-2,1 Z " fill="#747879" transform="translate(8,49)"/>
<path d="M0,0 L2,0 L3,4 L0,3 Z " fill="#58666F" transform="translate(24,45)"/>
<path d="M0,0 L3,2 L1,2 L1,4 L-1,4 Z " fill="#536D73" transform="translate(14,36)"/>
<path d="M0,0 L2,1 L0,4 L-2,4 Z " fill="#B3C3CC" transform="translate(27,14)"/>
<path d="M0,0 L3,3 L1,5 Z " fill="#33393E" transform="translate(18,45)"/>
<path d="M0,0 L2,0 L2,3 L-1,3 Z " fill="#A9B7C2" transform="translate(10,10)"/>
<path d="M0,0 L3,0 L3,3 L0,2 Z " fill="#1E2E2B" transform="translate(62,5)"/>
<path d="M0,0 L2,0 L1,3 L-1,3 Z " fill="#7D7F80" transform="translate(13,21)"/>
<path d="M0,0 L2,0 L0,4 L-1,1 Z " fill="#4F5D69" transform="translate(37,21)"/>
</svg>
