<?xml version="1.0" encoding="UTF-8"?>
<!-- Generator: visioncortex VTracer 0.6.5 -->
<svg version="1.1" xmlns="http://www.w3.org/2000/svg" width="150" height="84">
<path d="M0,0 L150,0 L150,84 L0,84 Z " fill="#121315" transform="translate(0,0)"/>
<path d="M0,0 L23,0 L23,84 L-80,84 L-79,74 L-78,69 L-76,69 L-76,71 L-74,71 L-74,66 L-77,63 L-78,58 L-73,57 L-73,52 L-76,51 L-74,44 L-72,44 L-72,40 L-66,40 L-66,37 L-63,34 L-58,32 L-49,32 L-48,30 L-43,31 L-40,36 L-40,44 L-41,46 L-43,46 L-43,50 L-48,52 L-35,55 L-35,71 L-28,71 L-27,68 L-23,67 L-23,70 L-20,70 L-23,64 L-25,54 L-24,52 L-19,50 L-11,53 L-12,62 L-15,62 L-17,66 L-8,67 L-8,70 L-18,71 L-18,76 L-16,76 L-16,80 L-9,80 L-9,76 L-13,74 L-13,72 L-2,74 L-2,80 L3,80 L4,74 L0,74 L2,68 L5,64 L3,65 L-6,64 L-6,63 L1,63 L2,58 L7,58 L8,65 L5,70 L18,68 L22,53 L14,54 L14,48 L15,51 L20,51 L18,46 L17,40 L8,41 L7,43 L1,41 L-2,42 L-1,38 L6,37 L10,39 L9,34 L13,34 L10,29 L11,27 L9,27 L9,24 L6,23 L1,18 L-8,14 L-8,12 L-15,11 L-14,15 L-23,16 L-31,14 L-31,12 L-26,12 L-25,8 L-31,8 L-33,7 L-33,5 L-23,4 L-21,5 L-21,8 L-6,8 L0,6 L0,3 L2,2 Z " fill="#060707" transform="translate(127,0)"/>
<path d="M0,0 L5,1 L8,6 L8,14 L7,16 L5,16 L5,20 L0,22 L13,25 L13,34 L10,33 L9,36 L5,32 L5,28 L0,27 L-1,36 L-5,37 L-3,42 L0,45 L0,54 L-32,54 L-31,44 L-30,39 L-28,39 L-28,41 L-26,41 L-26,36 L-29,33 L-30,28 L-25,27 L-25,22 L-28,21 L-26,14 L-24,14 L-24,10 L-18,10 L-18,7 L-15,4 L-10,2 L-1,2 Z " fill="#030303" transform="translate(79,30)"/>
<path d="M0,0 L3,0 L3,2 L8,3 L11,6 L10,11 L18,13 L20,15 L24,14 L26,15 L26,21 L22,21 L22,24 L30,25 L29,20 L35,21 L35,27 L32,30 L36,31 L36,27 L39,27 L39,23 L45,23 L46,27 L44,30 L55,29 L52,44 L51,45 L38,46 L40,40 L40,34 L35,34 L34,39 L30,40 L38,40 L36,44 L33,50 L37,50 L36,56 L31,56 L31,50 L23,49 L20,48 L24,52 L24,56 L17,56 L17,52 L15,52 L15,47 L17,46 L25,46 L25,43 L15,43 L18,38 L21,38 L21,29 L13,27 L9,28 L11,40 L13,46 L10,46 L10,43 L6,45 L5,47 L0,48 L-2,47 L-1,30 L-3,30 L-2,25 L-1,23 L-3,23 L-5,27 L-5,20 L-3,20 L-6,13 L-5,9 L1,9 Z " fill="#4E4C4E" transform="translate(94,24)"/>
<path d="M0,0 L9,0 L12,6 L18,6 L18,8 L20,9 L19,11 L28,10 L28,14 L18,15 L13,16 L9,15 L9,20 L7,20 L9,25 L12,27 L18,29 L20,30 L20,35 L15,36 L18,42 L20,46 L19,49 L17,49 L17,47 L15,47 L14,56 L13,62 L5,62 L4,61 L-11,61 L-13,58 L1,58 L2,57 L9,58 L10,50 L5,50 L5,54 L2,56 L-7,56 L-7,54 L-10,54 L-12,50 L-19,49 L-19,47 L-24,46 L-24,42 L-23,39 L-15,39 L-10,41 L-12,37 L-11,32 L-3,31 L0,30 L-1,35 L-3,35 L-1,41 L-3,41 L-3,45 L-7,47 L-12,46 L-12,48 L4,47 L4,44 L2,44 L1,36 L4,33 L3,29 L5,29 L5,26 L-2,27 L-3,28 L-10,28 L-10,20 L-7,16 L-5,16 L-5,12 L-8,14 L-11,14 L-11,12 L-13,11 L-12,9 L-9,9 L-9,4 L-4,3 Z " fill="#424242" transform="translate(34,22)"/>
<path d="M0,0 L33,0 L37,3 L33,3 L33,6 L27,9 L12,8 L12,5 L0,5 L0,7 L8,8 L8,13 L2,12 L2,14 L8,14 L13,15 L19,15 L17,10 L23,11 L25,12 L25,14 L29,15 L37,19 L39,23 L44,24 L42,25 L42,27 L44,27 L45,31 L46,34 L43,35 L44,37 L43,39 L37,38 L32,39 L31,42 L36,40 L40,43 L41,40 L50,39 L53,48 L53,51 L48,51 L47,54 L44,54 L45,48 L39,47 L39,51 L36,51 L36,55 L32,54 L33,51 L35,51 L35,45 L29,44 L30,49 L22,48 L22,45 L26,45 L25,40 L24,38 L19,40 L19,37 L19,34 L14,33 L13,32 L13,24 L10,23 L19,23 L21,25 L22,31 L24,31 L27,22 L24,22 L23,18 L18,19 L3,17 L-3,16 L-2,12 L-16,12 L-22,10 L-21,7 L-5,7 L-5,4 L0,2 Z " fill="#323333" transform="translate(94,0)"/>
<path d="M0,0 L9,3 L8,12 L5,12 L3,16 L12,17 L12,20 L2,21 L2,26 L4,26 L4,30 L11,30 L11,26 L7,24 L7,22 L18,24 L18,30 L23,30 L24,24 L22,23 L30,22 L33,21 L32,26 L31,29 L27,30 L27,32 L22,32 L20,34 L-28,34 L-29,23 L-33,21 L-33,17 L-30,16 L-28,7 L-23,8 L-21,13 L-19,15 L-18,13 L-15,14 L-15,21 L-8,21 L-7,18 L-3,17 L-3,20 L0,20 L-3,14 L-5,4 L-4,2 Z " fill="#222323" transform="translate(107,50)"/>
<path d="M0,0 L70,0 L70,3 L65,4 L65,7 L49,8 L49,10 L54,11 L69,11 L67,16 L77,17 L93,18 L94,22 L97,22 L95,31 L91,31 L89,24 L83,24 L84,32 L89,34 L90,37 L88,38 L82,36 L80,35 L80,30 L77,27 L73,26 L71,23 L63,23 L65,22 L65,18 L61,16 L54,16 L59,18 L55,20 L51,24 L47,23 L50,22 L51,19 L37,18 L37,17 L49,16 L49,12 L32,13 L32,15 L28,14 L28,12 L33,10 L44,9 L43,3 L45,3 L45,1 L20,4 L17,5 L15,4 L17,8 L17,11 L26,13 L26,15 L13,15 L13,8 L11,4 L-2,7 L-10,8 L-10,6 L-7,6 L-7,4 L0,3 Z " fill="#0C0D0D" transform="translate(24,0)"/>
<path d="M0,0 L7,0 L6,4 L6,8 L4,10 L4,18 L6,18 L6,21 L3,22 L-10,22 L-10,20 L-5,20 L-1,19 L-1,15 L1,15 L-1,12 L-1,9 L1,8 L2,4 L-1,6 L-9,7 L-8,15 L-13,14 L-21,13 L-22,19 L-17,21 L-17,23 L-10,23 L-8,25 L-8,28 L-5,28 L-5,30 L4,29 L7,28 L7,24 L12,24 L11,32 L4,32 L3,33 L-10,33 L-9,34 L6,34 L7,36 L-32,36 L-32,16 L-26,15 L-25,6 L-24,4 L-27,4 L-27,2 L-20,2 L-20,11 L-13,9 L-13,3 L-1,1 Z " fill="#2F3030" transform="translate(32,48)"/>
<path d="M0,0 L7,0 L12,3 L11,7 L17,7 L18,9 L16,9 L18,16 L17,18 L11,19 L12,24 L13,29 L12,30 L13,32 L15,32 L13,39 L15,39 L15,49 L14,49 L14,40 L3,39 L0,37 L3,35 L6,35 L6,31 L8,31 L8,21 L5,16 L1,15 L0,18 L-9,18 L-14,19 L-15,22 L-17,22 L-17,25 L-23,25 L-23,29 L-25,30 L-27,35 L-32,35 L-37,31 L-37,27 L-35,27 L-35,25 L-37,24 L-35,24 L-35,22 L-38,21 L-31,22 L-27,23 L-26,21 L-16,21 L-16,17 L-25,18 L-24,14 L-21,14 L-21,12 L-18,9 L-10,9 L-10,11 L-5,11 L-5,9 L1,4 L4,3 L-1,2 Z " fill="#1E1F1C" transform="translate(78,15)"/>
<path d="M0,0 L8,0 L17,1 L18,5 L24,3 L24,7 L20,11 L20,20 L14,20 L14,26 L11,28 L7,28 L6,21 L7,19 L0,19 L0,21 L3,21 L2,32 L1,33 L-5,33 L-5,4 Z " fill="#3E343F" transform="translate(5,31)"/>
<path d="M0,0 L2,0 L2,59 L-21,59 L-19,56 L-14,57 L-14,55 L-10,54 L-9,49 L-8,46 L-11,48 L-21,49 L-19,43 L-16,39 L-18,40 L-27,39 L-27,38 L-20,38 L-19,33 L-14,33 L-13,40 L-16,45 L-3,43 L1,28 L-7,29 L-7,23 L-6,26 L-1,26 L-3,21 L-4,15 L-13,16 L-14,18 L-20,16 L-23,17 L-22,13 L-15,12 L-11,14 L-12,9 L-8,9 L-6,2 Z " fill="#080908" transform="translate(148,25)"/>
<path d="M0,0 L9,0 L11,2 L12,8 L14,8 L17,0 L19,0 L19,2 L17,2 L17,11 L24,12 L22,8 L22,4 L31,4 L30,0 L34,2 L32,2 L32,4 L34,4 L35,8 L36,11 L33,12 L34,14 L33,16 L27,15 L22,16 L21,19 L26,17 L30,20 L31,17 L40,16 L43,25 L43,28 L38,28 L37,31 L34,31 L35,25 L29,24 L29,28 L26,28 L26,32 L22,31 L23,28 L25,28 L25,22 L19,21 L20,26 L12,25 L12,22 L16,22 L15,17 L14,15 L9,17 L9,14 L9,11 L4,10 L3,9 L3,1 Z " fill="#202E18" transform="translate(104,23)"/>
<path d="M0,0 L9,0 L12,6 L18,6 L18,8 L20,9 L19,11 L28,10 L28,14 L18,15 L13,16 L6,14 L5,18 L0,17 L-4,21 L-7,20 L-7,23 L-1,24 L-1,25 L-7,26 L-8,28 L-10,28 L-10,20 L-7,16 L-5,16 L-5,12 L-8,14 L-11,14 L-11,12 L-13,11 L-12,9 L-9,9 L-9,4 L-4,3 Z " fill="#534E51" transform="translate(34,22)"/>
<path d="M0,0 L9,3 L8,5 L11,6 L11,10 L18,10 L18,12 L23,12 L27,17 L21,16 L13,14 L9,15 L11,27 L13,33 L10,33 L10,30 L6,32 L5,34 L0,35 L-2,34 L-1,17 L-3,17 L-2,12 L2,11 L2,7 L2,5 L0,4 Z " fill="#7E428C" transform="translate(94,37)"/>
<path d="M0,0 L3,0 L3,5 L1,5 L3,10 L6,12 L12,14 L14,15 L14,20 L9,21 L12,27 L14,31 L13,34 L11,34 L11,32 L9,32 L8,39 L6,45 L4,45 L6,22 L7,15 L3,13 L3,19 L1,19 L-1,24 L-3,24 L-1,27 L-2,30 L-4,29 L-5,21 L-2,18 L-3,14 L-1,14 L-1,11 L-8,12 L-9,13 L-14,13 L-13,10 L-9,9 L-13,8 L-13,5 L-9,4 L-6,1 L-1,2 Z " fill="#454642" transform="translate(40,37)"/>
<path d="M0,0 L5,0 L4,8 L-7,10 L-12,11 L-11,15 L-9,15 L-9,17 L-27,18 L-26,15 L-15,14 L-14,12 L-19,12 L-23,10 L-25,6 L-25,3 Z " fill="#4E5050" transform="translate(64,1)"/>
<path d="M0,0 L12,1 L12,3 L15,4 L15,9 L11,13 L5,13 L5,18 L-1,20 L-7,19 L-17,19 L-18,22 L-20,22 L-20,12 L-18,12 L-18,14 L-7,14 L-7,16 L-4,16 L-5,11 L-2,10 L3,11 L6,8 L11,8 L10,6 L2,5 L0,3 Z " fill="#110F11" transform="translate(20,13)"/>
<path d="M0,0 L6,3 L3,31 L2,33 L4,33 L4,28 L6,27 L5,35 L-3,35 L-4,34 L-19,34 L-21,31 L-7,31 L-6,30 L1,31 L2,23 L-3,23 L-4,27 L-5,22 L-7,20 L-4,20 L-4,15 L-5,12 L-2,9 L-1,7 L1,7 Z " fill="#3C3F3E" transform="translate(42,49)"/>
<path d="M0,0 L6,0 L6,4 L1,6 L-2,6 L-3,9 L-5,9 L-5,12 L-11,12 L-11,16 L-13,17 L-15,22 L-20,22 L-25,18 L-25,14 L-23,14 L-23,12 L-25,11 L-23,11 L-23,9 L-26,8 L-19,9 L-15,10 L-14,8 L-4,8 L-4,4 L-8,5 L-8,3 L-4,3 L-4,1 Z " fill="#271B21" transform="translate(66,28)"/>
<path d="M0,0 L3,0 L3,2 L7,3 L15,6 L15,18 L13,18 L12,21 L6,21 L-2,16 L-1,13 L2,11 L5,11 L4,6 L-1,6 L-1,1 Z " fill="#2D2D2D" transform="translate(135,2)"/>
<path d="M0,0 L20,2 L22,2 L23,6 L26,6 L24,15 L20,15 L18,8 L12,8 L13,16 L18,18 L19,21 L17,22 L11,20 L9,19 L9,14 L6,10 L8,9 L8,7 L2,7 Z " fill="#292B2B" transform="translate(95,16)"/>
<path d="M0,0 L4,1 L3,6 L14,5 L11,20 L10,21 L-3,22 L-1,17 L1,5 Z " fill="#505252" transform="translate(135,48)"/>
<path d="M0,0 L4,0 L5,8 L3,8 L3,13 L11,11 L8,7 L18,7 L20,8 L20,12 L22,13 L20,13 L19,15 L19,13 L16,13 L18,18 L0,18 Z " fill="#2C2C2C" transform="translate(0,66)"/>
<path d="M0,0 L3,0 L3,2 L8,3 L11,6 L10,11 L13,12 L13,13 L2,15 L2,13 L0,13 L0,17 L3,18 L1,23 L4,24 L-1,25 L-1,23 L-3,23 L-5,27 L-5,20 L-3,20 L-6,13 L-5,9 L1,9 Z " fill="#302E3D" transform="translate(94,24)"/>
<path d="M0,0 L10,0 L16,4 L19,8 L19,11 L10,11 L12,16 L12,19 L5,18 L5,9 L7,9 L7,7 L2,6 Z " fill="#343939" transform="translate(116,16)"/>
<path d="M0,0 L7,0 L7,2 L9,2 L9,6 L3,6 L6,15 L5,20 L3,25 L0,25 L-1,27 L-3,26 L-2,9 L-4,9 L-3,4 L1,3 Z " fill="#B2938F" transform="translate(95,45)"/>
<path d="M0,0 L8,0 L8,3 L14,3 L16,4 L16,7 L11,8 L10,12 L14,12 L14,15 L0,13 L0,11 L-2,11 L-2,2 L0,2 Z " fill="#575756" transform="translate(2,14)"/>
<path d="M0,0 L5,0 L8,9 L8,12 L3,12 L2,15 L-1,15 L0,9 L-6,8 L-6,12 L-9,12 L-9,16 L-13,15 L-12,12 L-10,12 L-11,1 L-7,3 L-5,4 L-4,1 Z " fill="#2C302E" transform="translate(139,39)"/>
<path d="M0,0 L24,0 L24,5 L18,4 L18,6 L24,6 L29,7 L35,7 L33,2 L39,3 L41,4 L41,6 L45,7 L45,8 L38,8 L37,11 L23,10 L13,8 L14,4 L15,2 L5,2 L0,1 Z " fill="#3A3C3C" transform="translate(78,8)"/>
<path d="M0,0 L8,0 L6,6 L5,8 L9,8 L8,14 L3,14 L3,8 L-5,7 L-8,6 L-4,10 L-4,14 L-11,14 L-11,10 L-13,10 L-13,5 L-1,2 Z " fill="#555656" transform="translate(122,66)"/>
<path d="M0,0 L9,0 L12,6 L18,6 L18,8 L20,9 L19,11 L16,13 L11,13 L9,10 L1,10 L1,8 L-4,8 L-4,2 Z " fill="#124770" transform="translate(34,22)"/>
<path d="M0,0 L13,0 L15,2 L19,1 L21,2 L21,8 L17,8 L17,11 L9,11 L6,10 L6,6 L-1,6 L3,3 L0,2 Z " fill="#0B3E67" transform="translate(99,37)"/>
<path d="M0,0 L6,1 L6,7 L3,10 L7,11 L7,7 L10,7 L10,3 L16,3 L17,7 L16,5 L13,5 L14,10 L11,13 L5,12 L4,18 L2,18 L1,10 L-4,9 L-6,6 L-11,5 L-10,3 L1,5 Z " fill="#3E4852" transform="translate(123,44)"/>
<path d="M0,0 L5,0 L3,6 L11,7 L10,2 L18,0 L28,0 L26,4 L16,5 L15,8 L13,8 L13,10 L8,11 L7,10 L2,10 L-1,5 L-1,3 L-6,3 L-6,2 Z " fill="#3B3D33" transform="translate(44,19)"/>
<path d="M0,0 L6,1 L6,3 L8,3 L10,12 L11,17 L10,18 L11,20 L13,20 L11,27 L13,27 L13,37 L12,37 L12,28 L1,27 L-2,25 L1,23 L4,23 L4,19 L6,19 L6,9 L3,4 L-1,2 Z " fill="#1A1616" transform="translate(80,27)"/>
<path d="M0,0 L13,1 L15,2 L15,4 L17,4 L18,7 L13,6 L6,6 L2,10 L0,10 L-1,14 L-4,18 L-6,18 L-6,6 L1,6 Z " fill="#231C28" transform="translate(6,33)"/>
<path d="M0,0 L7,0 L12,3 L11,7 L17,7 L18,9 L16,9 L18,16 L17,18 L10,19 L10,15 L8,15 L8,13 L3,13 L7,11 L12,12 L13,11 L2,9 L2,5 L6,3 L-1,2 Z " fill="#1F1E22" transform="translate(78,15)"/>
<path d="M0,0 L7,0 L15,3 L17,8 L17,11 L26,13 L26,15 L13,15 L13,8 L11,4 L-2,7 L-10,8 L-10,6 L-7,6 L-7,4 L0,3 Z " fill="#030403" transform="translate(24,0)"/>
<path d="M0,0 L4,2 L2,2 L2,4 L4,4 L5,8 L6,11 L3,12 L4,14 L3,16 L-1,15 L-2,10 L-4,11 L-4,14 L-10,14 L-14,12 L-13,8 L-13,11 L-6,12 L-8,8 L-8,4 L1,4 Z " fill="#32393B" transform="translate(134,23)"/>
<path d="M0,0 L13,0 L14,3 L26,5 L27,8 L22,8 L21,11 L16,12 L12,11 L11,13 L8,13 L9,9 L14,8 L14,5 L6,4 L6,1 L0,1 Z " fill="#2F322C" transform="translate(4,13)"/>
<path d="M0,0 L4,0 L7,4 L7,6 L3,7 L3,9 L-9,9 L-11,4 L-7,1 Z " fill="#373939" transform="translate(31,4)"/>
<path d="M0,0 L5,1 L4,17 L5,20 L8,22 L3,22 L3,24 L6,25 L6,27 L-2,29 L-2,24 L0,24 L-1,16 L-5,16 L-5,14 L1,13 L2,4 L3,2 L0,2 Z " fill="#070707" transform="translate(5,50)"/>
<path d="M0,0 L2,0 L2,3 L10,0 L17,0 L17,3 L7,4 L6,11 L3,11 L1,15 L-2,17 L-12,13 L-11,11 L-4,12 L-2,14 L2,10 L3,5 L-1,6 L-1,1 Z " fill="#1D1E1E" transform="translate(102,67)"/>
<path d="M0,0 L2,4 L5,4 L5,9 L-1,14 L-4,11 L-9,11 L-8,3 L-1,3 Z " fill="#393B3B" transform="translate(100,68)"/>
<path d="M0,0 L6,0 L6,2 L1,3 L4,9 L6,13 L5,16 L3,16 L3,14 L1,14 L0,21 L-2,27 L-4,27 L-2,4 Z " fill="#8A8F8D" transform="translate(48,55)"/>
<path d="M0,0 L2,0 L1,5 L-4,6 L-5,9 L-2,8 L-3,12 L-7,11 L-6,16 L-14,15 L-14,12 L-10,12 L-11,7 L-12,5 L-17,7 L-17,4 L-9,4 L-9,2 L-1,3 Z " fill="#253B1F" transform="translate(130,33)"/>
<path d="M0,0 L5,0 L6,7 L3,12 L8,11 L16,11 L12,12 L11,15 L11,13 L8,15 L-2,16 L0,10 L3,6 L1,7 L-8,6 L-8,5 L-1,5 Z " fill="#0F1010" transform="translate(129,58)"/>
<path d="M0,0 L2,0 L2,2 L13,2 L13,4 L16,4 L16,1 L18,1 L19,4 L24,5 L25,2 L25,6 L19,8 L13,7 L3,7 L2,10 L0,10 Z " fill="#221E24" transform="translate(0,25)"/>
<path d="M0,0 L6,0 L6,2 L1,3 L0,7 L2,8 L-5,9 L-11,9 L-1,10 L-1,11 L-16,12 L-22,10 L-21,7 L-5,7 L-5,4 L0,2 Z " fill="#272828" transform="translate(94,0)"/>
<path d="M0,0 L2,0 L2,9 L12,8 L8,9 L9,13 L11,13 L11,15 L-7,16 L-6,13 L5,12 L6,10 L1,10 L-3,8 L-5,4 L-5,1 Z " fill="#363837" transform="translate(44,3)"/>
<path d="M0,0 L23,0 L23,8 L16,7 L11,4 L11,2 L4,3 Z " fill="#050606" transform="translate(127,0)"/>
<path d="M0,0 L6,1 L6,12 L-6,12 L-4,8 L-2,4 L0,4 Z " fill="#505252" transform="translate(144,72)"/>
<path d="M0,0 L1,2 L-1,2 L1,14 L3,20 L0,20 L0,17 L-4,19 L-5,21 L-9,22 L-9,20 L-6,20 L-5,15 L-4,10 L-6,5 L-6,1 Z " fill="#51655F" transform="translate(104,50)"/>
<path d="M0,0 L7,0 L4,9 L-2,11 L-7,11 L-6,5 Z " fill="#584F56" transform="translate(12,38)"/>
<path d="M0,0 L26,0 L26,2 L21,2 L21,5 L15,5 L15,3 L9,4 L7,3 L7,1 L3,1 L3,3 L1,3 L1,5 L-5,5 L-5,3 L0,2 Z " fill="#353737" transform="translate(100,0)"/>
<path d="M0,0 L3,0 L3,9 L8,7 L11,7 L11,2 L15,2 L14,9 L15,13 L10,12 L2,11 L1,15 L-1,17 Z " fill="#2B2B2A" transform="translate(9,50)"/>
<path d="M0,0 L8,1 L9,3 L3,5 L8,7 L4,9 L0,13 L-4,12 L-1,11 L0,8 L-14,7 L-14,6 L-2,4 Z " fill="#010101" transform="translate(75,11)"/>
<path d="M0,0 L1,0 L0,7 L2,7 L2,2 L4,1 L3,9 L-5,9 L-6,8 L-21,8 L-23,5 L-9,5 L-8,4 L-1,5 Z " fill="#5A5C5C" transform="translate(44,75)"/>
<path d="M0,0 L3,0 L4,2 L4,8 L6,8 L7,2 L13,3 L14,0 L15,5 L14,10 L13,10 L13,4 L8,4 L7,9 L3,11 L-2,11 L-2,3 L0,3 Z " fill="#33312F" transform="translate(121,54)"/>
<path d="M0,0 L2,0 L5,7 L4,12 L2,17 L-1,17 L-2,19 L-3,18 L-3,13 L-2,12 L-1,1 Z " fill="#D9DAD6" transform="translate(96,53)"/>
<path d="M0,0 L3,0 L3,4 L-7,5 L-12,6 L-21,5 L-22,1 L-10,2 L-10,1 Z " fill="#422B57" transform="translate(59,32)"/>
<path d="M0,0 L2,0 L3,4 L3,15 L2,25 L-1,25 L-1,16 L0,14 L-3,13 L-1,7 Z " fill="#919291" transform="translate(81,59)"/>
<path d="M0,0 L5,1 L5,6 L4,2 L2,2 L2,9 L0,15 L2,16 L1,27 L0,27 L-1,16 L-5,14 L-5,10 L-2,9 Z " fill="#121313" transform="translate(79,57)"/>
<path d="M0,0 L1,0 L1,5 L-6,4 L-3,9 L1,12 L-1,17 L2,18 L-3,19 L-3,17 L-5,17 L-7,21 L-7,14 L-5,14 L-8,7 L-7,3 L-1,3 Z " fill="#34252B" transform="translate(96,30)"/>
<path d="M0,0 L24,0 L24,3 L17,5 L11,5 L14,4 L14,2 L11,3 L2,3 L2,1 Z " fill="#303232" transform="translate(0,0)"/>
<path d="M0,0 L10,0 L14,4 L13,7 L4,7 L4,5 L1,5 Z " fill="#5A5B5B" transform="translate(23,71)"/>
<path d="M0,0 L4,0 L5,8 L3,8 L4,14 L3,16 L8,17 L8,18 L0,18 Z " fill="#1E1F1F" transform="translate(0,66)"/>
<path d="M0,0 L5,1 L6,9 L3,9 L3,11 L-5,10 L-5,8 L0,8 L1,4 L-5,4 L-7,3 L-7,1 Z " fill="#090A0B" transform="translate(101,4)"/>
<path d="M0,0 L4,1 L3,6 L6,6 L6,8 L9,8 L10,12 L8,14 L1,14 L1,5 Z " fill="#5B5C5C" transform="translate(135,48)"/>
<path d="M0,0 L6,0 L7,4 L6,2 L3,2 L4,7 L1,10 L-5,9 L-6,15 L-8,15 L-9,7 L-3,8 L-3,4 L0,4 Z " fill="#464059" transform="translate(133,47)"/>
<path d="M0,0 L6,0 L14,3 L13,8 L7,8 L-1,3 Z " fill="#3C3E3D" transform="translate(134,15)"/>
<path d="M0,0 L7,0 L6,5 L2,6 L2,4 L-1,6 L-8,6 L-8,4 L-12,4 L-12,9 L-13,9 L-13,3 L-1,1 Z " fill="#3E4237" transform="translate(32,48)"/>
<path d="M0,0 L2,0 L2,25 L1,25 L1,14 L-2,14 L-2,9 L-5,5 L-5,3 L-1,3 Z " fill="#373837" transform="translate(148,25)"/>
<path d="M0,0 L1,0 L2,18 L0,25 L-1,25 L0,16 L1,14 L-7,15 L-7,9 L-6,12 L-1,12 L-3,7 L-3,2 L-2,5 L0,5 Z " fill="#121213" transform="translate(148,39)"/>
<path d="M0,0 L7,2 L8,7 L7,9 L-1,9 L-1,7 L-6,7 L-5,5 L-2,6 L-1,1 Z " fill="#148E81" transform="translate(36,23)"/>
<path d="M0,0 L2,1 L3,6 L1,6 L1,9 L-1,9 L-2,7 L-14,6 L-13,3 L-6,3 L-6,1 Z " fill="#161818" transform="translate(19,7)"/>
<path d="M0,0 L5,0 L8,9 L8,12 L4,12 L4,9 L0,7 L0,5 L-3,5 L-3,2 L0,2 Z " fill="#363637" transform="translate(139,39)"/>
<path d="M0,0 L7,1 L7,4 L5,5 L6,9 L0,9 L0,7 L-3,7 L-2,2 Z " fill="#615F61" transform="translate(3,17)"/>
<path d="M0,0 L6,0 L10,2 L15,2 L16,1 L22,1 L22,4 L-3,4 Z " fill="#575858" transform="translate(104,80)"/>
<path d="M0,0 L6,1 L6,10 L5,11 L-3,10 L-9,8 L-9,6 L-6,6 L-6,1 L-5,4 L-3,4 L-3,8 L4,8 L4,4 L0,2 Z " fill="#464747" transform="translate(114,72)"/>
<path d="M0,0 L4,1 L6,2 L6,9 L5,12 L0,12 Z " fill="#3F3C3A" transform="translate(0,52)"/>
<path d="M0,0 L5,0 L3,6 L10,7 L10,9 L13,10 L8,11 L7,10 L2,10 L-1,5 L-1,3 L-6,3 L-6,2 Z " fill="#383140" transform="translate(44,19)"/>
<path d="M0,0 L8,0 L9,2 L9,11 L4,10 L3,9 L3,1 Z " fill="#2D3134" transform="translate(104,23)"/>
<path d="M0,0 L6,0 L5,8 L2,10 L-2,10 L-3,5 Z " fill="#444444" transform="translate(14,49)"/>
<path d="M0,0 L2,0 L2,2 L14,1 L14,3 L9,6 L0,8 Z " fill="#1B1C1C" transform="translate(0,1)"/>
<path d="M0,0 L6,1 L3,2 L7,6 L7,10 L0,10 L0,6 L-2,6 L-2,1 Z " fill="#545555" transform="translate(111,70)"/>
<path d="M0,0 L5,0 L6,7 L4,11 L4,8 L1,10 L-2,10 L-2,8 L-4,7 L-3,5 L0,5 Z " fill="#6F5260" transform="translate(25,26)"/>
<path d="M0,0 L7,1 L9,3 L9,6 L7,6 L8,9 L5,11 L1,10 L1,6 L3,6 L3,4 L1,3 L3,3 L3,1 Z " fill="#1B2B14" transform="translate(40,36)"/>
<path d="M0,0 L2,0 L0,4 L-2,4 L-3,8 L-6,12 L-8,12 L-8,2 L-3,3 L-3,1 Z " fill="#080604" transform="translate(8,39)"/>
<path d="M0,0 L2,0 L1,5 L-1,5 L-2,8 L-6,7 L-7,11 L-9,6 L-9,2 L-1,1 Z " fill="#3F4242" transform="translate(32,52)"/>
<path d="M0,0 L3,1 L5,8 L9,9 L10,12 L8,13 L2,11 L0,10 L0,5 L-3,1 Z " fill="#1F272D" transform="translate(104,25)"/>
<path d="M0,0 L6,2 L6,4 L13,4 L14,5 L14,11 L11,11 L11,7 L-1,6 L1,4 Z " fill="#242626" transform="translate(9,67)"/>
<path d="M0,0 L4,1 L9,3 L7,11 L3,11 L1,4 Z " fill="#030502" transform="translate(112,20)"/>
<path d="M0,0 L4,0 L4,4 L6,5 L2,5 L2,7 L-2,7 L-2,9 L-7,9 L-6,5 L-3,5 L-3,3 Z " fill="#26252A" transform="translate(60,24)"/>
<path d="M0,0 L4,0 L5,2 L11,3 L11,7 L4,7 L4,9 L2,9 L2,5 L0,4 Z " fill="#140101" transform="translate(73,34)"/>
<path d="M0,0 L6,1 L8,2 L8,4 L12,5 L12,6 L5,6 L4,9 L1,8 L2,6 L-4,6 L-4,5 L2,5 Z " fill="#434445" transform="translate(111,10)"/>
<path d="M0,0 L11,0 L11,4 L-3,4 L-3,1 Z " fill="#2B2D2E" transform="translate(62,12)"/>
<path d="M0,0 L4,1 L4,4 L13,6 L13,8 L0,8 Z " fill="#0B0C0B" transform="translate(37,7)"/>
<path d="M0,0 L6,0 L3,2 L1,3 L9,5 L8,9 L6,12 L6,9 L2,7 L-3,4 L-3,2 Z " fill="#0D0B0C" transform="translate(78,49)"/>
<path d="M0,0 L2,0 L2,2 L5,1 L5,5 L3,5 L2,12 L0,18 L-2,18 Z " fill="#717272" transform="translate(46,64)"/>
<path d="M0,0 L3,1 L3,12 L1,8 L-1,13 L-2,13 L-3,2 L-1,2 Z " fill="#191A1A" transform="translate(89,63)"/>
<path d="M0,0 L6,1 L7,4 L5,4 L5,8 L-1,9 Z " fill="#595A5A" transform="translate(26,59)"/>
<path d="M0,0 L4,1 L5,7 L0,7 L0,5 L-5,5 L-4,1 Z " fill="#616161" transform="translate(16,63)"/>
<path d="M0,0 L3,0 L3,2 L8,2 L12,7 L6,6 L-2,4 L-4,5 L-3,1 Z " fill="#6F2664" transform="translate(109,47)"/>
<path d="M0,0 L8,0 L6,1 L5,5 L9,5 L9,8 L-5,6 L-5,4 L-7,3 L-4,3 L-4,5 L2,5 Z " fill="#4B4B4B" transform="translate(7,21)"/>
<path d="M0,0 L10,0 L12,1 L11,4 L9,5 L2,5 Z " fill="#444646" transform="translate(116,16)"/>
<path d="M0,0 L5,2 L1,3 L1,6 L-5,9 L-10,7 L-10,6 L-5,6 L-5,2 L0,2 Z " fill="#1B1C1C" transform="translate(126,0)"/>
<path d="M0,0 L10,0 L10,2 L14,2 L13,8 L8,8 L8,2 L0,1 Z " fill="#3F4040" transform="translate(117,72)"/>
<path d="M0,0 L6,0 L5,6 L3,6 L2,4 L1,12 L-2,12 L-2,4 Z " fill="#464546" transform="translate(109,52)"/>
<path d="M0,0 L7,0 L8,4 L11,5 L6,4 L2,2 L2,5 L-6,4 L-6,1 Z " fill="#1C1F1F" transform="translate(110,18)"/>
<path d="M0,0 L4,1 L4,3 L-2,3 L-2,5 L-5,6 L-5,17 L-6,17 L-6,7 L-8,7 L-7,2 Z " fill="#927363" transform="translate(99,47)"/>
<path d="M0,0 L4,0 L7,6 L7,9 L0,8 Z " fill="#4D5858" transform="translate(121,26)"/>
<path d="M0,0 L5,0 L4,8 L-6,9 L-6,8 L-1,8 L0,5 L2,5 L2,2 L-11,2 L-11,1 Z " fill="#3A3C3C" transform="translate(64,1)"/>
<path d="M0,0 L6,1 L6,7 L-3,7 L-1,6 Z " fill="#27242F" transform="translate(17,41)"/>
<path d="M0,0 L5,1 L5,7 L1,7 L1,9 L-2,8 L-2,6 L0,6 L-3,3 L-2,1 Z " fill="#0A6165" transform="translate(115,38)"/>
<path d="M0,0 L1,4 L0,8 L-1,10 L-12,10 L-10,7 L-5,8 L-5,6 L-1,5 Z " fill="#1A1C1C" transform="translate(139,74)"/>
<path d="M0,0 L5,1 L6,8 L-1,8 L-1,1 Z " fill="#1C1D1E" transform="translate(120,73)"/>
<path d="M0,0 L3,1 L5,4 L5,11 L1,17 L-3,18 L-3,16 L0,16 L1,11 L2,6 Z " fill="#8B908D" transform="translate(98,54)"/>
<path d="M0,0 L6,1 L2,2 L1,8 L0,11 L-4,10 L-4,6 L-2,6 L-3,2 L0,2 Z " fill="#2D5140" transform="translate(51,36)"/>
<path d="M0,0 L9,1 L12,4 L12,5 L4,5 L-1,3 Z " fill="#505151" transform="translate(4,79)"/>
<path d="M0,0 L4,0 L3,7 L4,11 L-1,10 L-3,7 L-1,5 Z " fill="#131314" transform="translate(20,52)"/>
<path d="M0,0 L4,1 L1,2 L2,8 L-5,8 L-5,4 Z " fill="#434045" transform="translate(5,31)"/>
<path d="M0,0 L4,2 L4,4 L11,6 L11,10 L9,10 L9,8 L2,7 L-3,5 L-2,3 L1,3 Z " fill="#1F201F" transform="translate(139,10)"/>
<path d="M0,0 L4,1 L6,5 L4,7 L0,6 L-4,5 L-4,3 Z " fill="#222425" transform="translate(128,7)"/>
<path d="M0,0 L18,0 L18,3 L13,4 L0,1 Z " fill="#191A1B" transform="translate(71,0)"/>
<path d="M0,0 L3,0 L4,2 L7,3 L22,3 L23,5 L2,5 Z " fill="#141414" transform="translate(16,79)"/>
<path d="M0,0 L4,1 L5,6 L-6,7 L-6,4 L-2,3 Z " fill="#3E3445" transform="translate(33,38)"/>
<path d="M0,0 L6,1 L6,3 L-12,4 L-11,1 Z " fill="#444743" transform="translate(49,15)"/>
<path d="M0,0 L3,0 L3,3 L6,3 L6,5 L3,6 L-10,6 L-10,4 L0,4 Z " fill="#202121" transform="translate(32,64)"/>
<path d="M0,0 L5,0 L5,2 L14,1 L15,4 L7,3 L6,5 L0,4 Z " fill="#4C7E67" transform="translate(30,30)"/>
<path d="M0,0 L5,0 L1,1 L1,3 L-4,4 L-13,4 L-15,1 L-1,1 Z " fill="#545555" transform="translate(36,79)"/>
<path d="M0,0 L1,4 L-4,3 L-3,8 L-11,7 L-11,4 L-7,4 L-6,2 Z " fill="#354241" transform="translate(127,41)"/>
<path d="M0,0 L5,0 L1,1 L4,7 L-2,10 L-6,8 L-2,7 Z " fill="#111412" transform="translate(142,27)"/>
<path d="M0,0 L4,2 L2,2 L2,4 L4,4 L4,8 L2,8 L2,6 L-5,7 L-8,6 L-8,4 L1,4 Z " fill="#222626" transform="translate(134,23)"/>
<path d="M0,0 L10,0 L10,2 L1,4 L-5,4 L-4,1 Z " fill="#545656" transform="translate(62,19)"/>
<path d="M0,0 L6,0 L5,3 L-7,6 L-10,5 L-9,2 L-5,2 L-5,4 L-2,4 Z " fill="#525353" transform="translate(58,6)"/>
<path d="M0,0 L8,0 L9,4 L6,6 L-1,6 L3,3 L0,2 Z " fill="#182169" transform="translate(99,37)"/>
<path d="M0,0 L6,0 L10,3 L9,6 L0,4 Z " fill="#4F417D" transform="translate(30,34)"/>
<path d="M0,0 L1,2 L5,3 L6,1 L7,5 L13,5 L14,8 L7,8 L5,5 L-3,5 L-1,4 Z " fill="#151718" transform="translate(90,18)"/>
<path d="M0,0 L9,3 L11,4 L11,7 L5,7 L4,9 L4,4 L0,2 Z " fill="#453A43" transform="translate(43,48)"/>
<path d="M0,0 L13,1 L14,5 L16,6 L12,6 L12,4 L1,3 L-1,1 Z " fill="#333946" transform="translate(9,31)"/>
<path d="M0,0 L10,0 L13,8 L7,8 L7,5 L9,1 L1,3 Z " fill="#271D2D" transform="translate(40,18)"/>
<path d="M0,0 L3,3 L0,8 L-3,9 L-5,4 L-4,2 Z " fill="#35442E" transform="translate(107,50)"/>
<path d="M0,0 L2,1 L0,6 L3,7 L-2,8 L-2,6 L-4,6 L-6,10 L-6,3 L-1,1 Z " fill="#522F31" transform="translate(95,41)"/>
<path d="M0,0 L2,0 L3,3 L8,4 L9,1 L9,5 L3,7 L-3,6 L-3,3 L0,3 Z " fill="#241E2E" transform="translate(16,26)"/>
<path d="M0,0 L11,0 L12,2 L7,4 L4,7 L0,6 L3,5 L4,2 Z " fill="#070808" transform="translate(71,17)"/>
<path d="M0,0 L4,1 L4,5 L1,5 L1,7 L-8,6 L-8,5 L-1,5 Z " fill="#090909" transform="translate(129,58)"/>
<path d="M0,0 L1,2 L4,3 L1,3 L1,5 L4,5 L3,16 L1,17 L2,7 L-4,5 Z " fill="#2C2921" transform="translate(4,47)"/>
<path d="M0,0 L12,0 L12,2 L4,3 L2,6 L-1,5 Z " fill="#5D5E5E" transform="translate(54,4)"/>
<path d="M0,0 L5,0 L5,3 L0,4 L0,7 L-6,7 L-4,6 L-4,4 L0,3 Z " fill="#010202" transform="translate(89,0)"/>
<path d="M0,0 L1,0 L1,11 L0,8 L-5,8 L-6,12 L-7,7 L-9,5 L-6,5 L-5,3 L-4,7 L-1,7 Z " fill="#323333" transform="translate(44,64)"/>
<path d="M0,0 L9,0 L9,2 L4,2 L4,5 L-1,5 L-1,3 L-3,1 Z " fill="#3E3F3F" transform="translate(117,0)"/>
<path d="M0,0 L16,0 L12,2 L11,3 L2,3 L2,1 Z " fill="#3E4040" transform="translate(0,0)"/>
<path d="M0,0 L3,0 L3,4 L10,5 L10,6 L-3,7 L-1,2 Z " fill="#414343" transform="translate(135,63)"/>
<path d="M0,0 L6,0 L7,4 L6,2 L3,2 L4,7 L1,10 L-2,9 L0,9 L-1,4 Z " fill="#423C40" transform="translate(133,47)"/>
<path d="M0,0 L7,0 L5,4 L3,5 L4,8 L-1,8 L-1,6 L-5,5 L2,3 L3,1 Z " fill="#262828" transform="translate(69,18)"/>
<path d="M0,0 L9,0 L9,1 L2,2 L0,7 L-4,6 L-4,2 Z " fill="#0B4061" transform="translate(34,22)"/>
<path d="M0,0 L9,0 L9,2 L4,2 L3,5 L-1,5 Z " fill="#393C36" transform="translate(22,19)"/>
<path d="M0,0 L10,2 L10,4 L-1,5 L-3,3 L0,3 Z " fill="#030303" transform="translate(70,0)"/>
<path d="M0,0 L5,1 L4,14 L2,13 L2,4 L3,2 L0,2 Z " fill="#141413" transform="translate(5,50)"/>
<path d="M0,0 L4,1 L4,5 L1,5 L1,9 L-3,8 L-2,5 L0,5 Z " fill="#1E1A39" transform="translate(129,46)"/>
<path d="M0,0 L2,0 L2,2 L5,3 L5,6 L0,6 L0,4 L-3,4 L-3,1 Z " fill="#4D4B55" transform="translate(139,40)"/>
<path d="M0,0 L5,1 L5,4 L2,4 L2,6 L-6,5 L-6,3 L-1,3 Z " fill="#1C1E21" transform="translate(102,9)"/>
<path d="M0,0 L4,0 L4,2 L8,4 L5,5 L9,7 L3,7 L3,4 L-2,3 L0,2 Z " fill="#252627" transform="translate(103,1)"/>
<path d="M0,0 L6,0 L5,7 L-1,7 L-1,5 L2,5 Z " fill="#626262" transform="translate(14,49)"/>
<path d="M0,0 L12,0 L12,3 L5,3 L5,1 L1,1 L1,6 L0,6 Z " fill="#242828" transform="translate(19,51)"/>
<path d="M0,0 L3,1 L2,6 L-1,7 L-4,6 L-4,2 L-1,2 Z " fill="#295D8F" transform="translate(109,41)"/>
<path d="M0,0 L13,0 L13,3 L0,3 Z " fill="#0C0E0F" transform="translate(56,16)"/>
<path d="M0,0 L5,1 L5,6 L4,2 L2,2 L2,9 L0,13 Z " fill="#313333" transform="translate(79,57)"/>
<path d="M0,0 L1,0 L1,9 L-6,9 L-3,4 L0,4 Z " fill="#373437" transform="translate(115,58)"/>
<path d="M0,0 L3,0 L3,2 L8,3 L5,10 L2,10 L3,4 L-1,2 Z " fill="#271E34" transform="translate(136,44)"/>
<path d="M0,0 L6,0 L3,1 L3,3 L6,4 L5,7 L1,6 L0,5 Z " fill="#3D4530" transform="translate(132,32)"/>
<path d="M0,0 L6,0 L6,6 L1,5 Z " fill="#28322D" transform="translate(107,28)"/>
<path d="M0,0 L10,0 L10,3 L1,3 Z " fill="#6E6F6F" transform="translate(23,71)"/>
<path d="M0,0 L3,4 L3,13 L5,14 L0,13 L-1,8 L2,8 L0,4 Z " fill="#333434" transform="translate(22,55)"/>
<path d="M0,0 L1,3 L-2,3 L0,6 L0,11 L-4,8 L-5,3 L0,2 Z " fill="#323637" transform="translate(54,55)"/>
<path d="M0,0 L9,1 L13,3 L13,6 L6,5 L5,3 L0,2 Z " fill="#304470" transform="translate(112,47)"/>
<path d="M0,0 L4,1 L2,7 L-1,7 L-1,9 L-6,8 L-6,6 L1,6 Z " fill="#2A292B" transform="translate(6,33)"/>
<path d="M0,0 L3,0 L3,16 L2,16 L2,5 L-1,5 Z " fill="#373738" transform="translate(147,34)"/>
<path d="M0,0 L5,0 L6,3 L3,4 L2,7 L0,7 Z " fill="#0A0808" transform="translate(0,28)"/>
<path d="M0,0 L5,1 L5,7 L2,7 L-2,2 Z " fill="#1276C4" transform="translate(36,23)"/>
<path d="M0,0 L3,1 L2,3 L-2,3 L-2,7 L-9,9 L-9,7 L-3,2 Z " fill="#141616" transform="translate(82,17)"/>
<path d="M0,0 L5,0 L6,5 L0,5 Z " fill="#474848" transform="translate(13,73)"/>
<path d="M0,0 L4,0 L4,7 L0,7 Z " fill="#3B3D3D" transform="translate(0,66)"/>
<path d="M0,0 L5,0 L5,4 L-3,5 L-2,2 L0,2 Z " fill="#4A534D" transform="translate(67,28)"/>
<path d="M0,0 L5,0 L3,5 L-6,3 L-6,2 Z " fill="#424756" transform="translate(44,19)"/>
<path d="M0,0 L3,0 L3,9 L0,9 Z " fill="#BABABA" transform="translate(80,75)"/>
<path d="M0,0 L6,1 L6,10 L2,10 L2,8 L4,8 L4,4 L0,2 Z " fill="#303131" transform="translate(114,72)"/>
<path d="M0,0 L8,1 L8,4 L1,2 L-1,7 L-2,5 L-1,3 L-5,2 Z " fill="#3C3D3C" transform="translate(13,47)"/>
<path d="M0,0 L5,1 L4,4 L-4,5 L-4,3 L0,3 Z " fill="#595755" transform="translate(9,44)"/>
<path d="M0,0 L6,0 L6,2 L1,3 L-1,7 L-1,5 L-5,6 L-5,4 L0,2 Z " fill="#1B1D1D" transform="translate(94,0)"/>
<path d="M0,0 L5,0 L6,3 L5,6 L-3,6 L1,4 L3,4 Z " fill="#313232" transform="translate(8,73)"/>
<path d="M0,0 L2,0 L1,3 L-8,2 L-9,5 L-11,5 L-12,2 L-11,1 Z " fill="#434444" transform="translate(130,64)"/>
<path d="M0,0 L7,1 L6,5 L6,3 L4,3 L3,6 L0,3 Z " fill="#583C4C" transform="translate(90,34)"/>
<path d="M0,0 L1,2 L-1,2 L-1,4 L1,6 L-4,7 L-4,4 L-8,5 L-8,3 L-4,3 L-4,1 Z " fill="#393D40" transform="translate(66,28)"/>
<path d="M0,0 L5,1 L5,8 L2,7 L0,4 Z " fill="#100F10" transform="translate(50,18)"/>
<path d="M0,0 L6,0 L6,4 L0,4 Z " fill="#6C6D6D" transform="translate(112,76)"/>
<path d="M0,0 L8,0 L4,1 L3,4 L3,2 L0,4 L-7,4 L-7,3 L-1,3 Z " fill="#232425" transform="translate(137,69)"/>
<path d="M0,0 L7,5 L6,10 L4,10 L3,5 L1,5 Z " fill="#A8A9A8" transform="translate(47,61)"/>
<path d="M0,0 L3,1 L3,12 L2,12 L1,7 L0,7 Z " fill="#292929" transform="translate(89,63)"/>
<path d="M0,0 L8,1 L8,3 L10,4 L1,4 Z " fill="#4B4336" transform="translate(37,33)"/>
<path d="M0,0 L4,1 L4,3 L6,3 L7,6 L2,5 L-1,1 Z " fill="#0A1022" transform="translate(17,34)"/>
<path d="M0,0 L5,0 L5,3 L0,6 L-2,6 L-2,4 L0,4 Z " fill="#121313" transform="translate(39,72)"/>
<path d="M0,0 L5,2 L5,5 L0,5 L-3,2 Z " fill="#492333" transform="translate(46,45)"/>
<path d="M0,0 L2,0 L2,4 L-2,7 L-4,6 L-4,3 Z " fill="#3C1F2F" transform="translate(27,34)"/>
<path d="M0,0 L5,0 L5,4 L0,3 L1,6 L-1,6 Z " fill="#382B50" transform="translate(98,32)"/>
<path d="M0,0 L4,1 L6,6 L2,5 L0,4 Z " fill="#4B5051" transform="translate(129,20)"/>
<path d="M0,0 L3,1 L8,3 L8,5 L0,4 Z " fill="#282A2A" transform="translate(80,20)"/>
<path d="M0,0 L5,1 L4,4 L-2,4 L-2,1 Z " fill="#575A58" transform="translate(120,17)"/>
<path d="M0,0 L7,0 L10,2 L10,4 L-1,2 Z " fill="#222525" transform="translate(78,15)"/>
<path d="M0,0 L8,0 L8,3 L-1,2 Z " fill="#343535" transform="translate(65,12)"/>
<path d="M0,0 L3,0 L3,2 L6,3 L1,3 L1,5 L4,6 L-1,6 L-1,1 Z " fill="#252525" transform="translate(135,2)"/>
<path d="M0,0 L1,0 L1,5 L6,5 L5,7 L2,6 L1,9 L-4,3 L0,3 Z " fill="#131414" transform="translate(133,3)"/>
<path d="M0,0 L3,1 L3,4 L-2,4 L-5,6 L-5,2 L0,2 Z " fill="#272929" transform="translate(131,78)"/>
<path d="M0,0 L4,0 L4,5 L-1,6 Z " fill="#050606" transform="translate(120,75)"/>
<path d="M0,0 L6,0 L9,4 L3,4 L3,2 L0,2 Z " fill="#484A4A" transform="translate(24,74)"/>
<path d="M0,0 L6,3 L5,6 L1,5 Z " fill="#28252B" transform="translate(42,49)"/>
<path d="M0,0 L2,0 L3,5 L-1,6 L-2,1 Z " fill="#241E1F" transform="translate(43,41)"/>
<path d="M0,0 L4,1 L6,7 L2,6 L2,3 L-1,3 Z " fill="#13100C" transform="translate(16,23)"/>
<path d="M0,0 L5,0 L5,2 L2,3 L-11,2 L-11,1 Z " fill="#292B2C" transform="translate(64,1)"/>
<path d="M0,0 L7,0 L7,3 L-2,3 Z " fill="#060707" transform="translate(129,81)"/>
<path d="M0,0 L3,0 L3,5 L4,9 L1,8 Z " fill="#484949" transform="translate(35,58)"/>
<path d="M0,0 L5,1 L4,4 L-1,5 Z " fill="#686868" transform="translate(26,59)"/>
<path d="M0,0 L4,0 L5,5 L0,5 Z " fill="#224B8B" transform="translate(45,30)"/>
<path d="M0,0 L4,1 L1,3 L-9,3 L-9,2 Z " fill="#040605" transform="translate(78,24)"/>
<path d="M0,0 L3,1 L1,1 L1,5 L4,6 L4,7 L-2,7 Z " fill="#383F46" transform="translate(128,19)"/>
<path d="M0,0 Z M-6,1 L0,1 L1,4 L-6,4 Z " fill="#141619" transform="translate(110,18)"/>
<path d="M0,0 L3,2 L3,4 L-1,5 L-1,7 L-8,7 L-8,6 L-2,6 Z " fill="#26262F" transform="translate(35,6)"/>
<path d="M0,0 L6,1 L5,4 L0,4 Z " fill="#373939" transform="translate(144,72)"/>
<path d="M0,0 L4,0 L4,6 L1,6 Z " fill="#080808" transform="translate(19,72)"/>
<path d="M0,0 L4,1 L3,3 L7,4 L3,4 L2,8 L0,3 Z " fill="#4D4D4D" transform="translate(23,55)"/>
<path d="M0,0 L4,0 L4,2 L6,2 L6,4 L0,4 Z " fill="#17181C" transform="translate(17,44)"/>
<path d="M0,0 L4,2 L5,5 L1,6 L0,5 Z " fill="#4F2F3A" transform="translate(128,40)"/>
<path d="M0,0 L2,1 L-1,4 L-6,5 L-5,1 Z " fill="#1C1307" transform="translate(131,37)"/>
<path d="M0,0 L7,1 L8,4 L6,5 L1,2 Z " fill="#091512" transform="translate(106,33)"/>
<path d="M0,0 L6,2 L6,5 L1,4 Z " fill="#4A4C4C" transform="translate(144,29)"/>
<path d="M0,0 L6,0 L7,3 L0,3 Z " fill="#303231" transform="translate(11,13)"/>
<path d="M0,0 L1,4 L-5,4 L-5,1 Z " fill="#5E6060" transform="translate(149,75)"/>
<path d="M0,0 L1,4 L-1,10 L-3,10 L-2,1 Z " fill="#959796" transform="translate(47,72)"/>
<path d="M0,0 L2,4 L3,10 L0,10 Z " fill="#F7F7F3" transform="translate(96,53)"/>
<path d="M0,0 L3,0 L3,3 L5,3 L5,5 L0,5 Z " fill="#54544D" transform="translate(0,52)"/>
<path d="M0,0 L3,1 L3,6 L-1,5 L-2,3 L0,3 Z " fill="#3D4545" transform="translate(39,48)"/>
<path d="M0,0 L7,0 L7,3 L-1,2 Z " fill="#312418" transform="translate(32,48)"/>
<path d="M0,0 L4,0 L4,2 L8,2 L8,4 L0,3 Z " fill="#114726" transform="translate(116,45)"/>
<path d="M0,0 L1,0 L1,8 L-2,9 L-3,2 L-2,5 L0,5 Z " fill="#242423" transform="translate(148,39)"/>
<path d="M0,0 L3,3 L3,7 L1,7 L0,10 Z " fill="#200C18" transform="translate(88,37)"/>
<path d="M0,0 L6,1 L6,5 L-1,5 L3,2 Z " fill="#421D91" transform="translate(99,38)"/>
<path d="M0,0 L4,1 L2,6 L-2,4 L0,4 L0,2 L-2,1 Z " fill="#503765" transform="translate(29,37)"/>
<path d="M0,0 L3,1 L2,3 L-3,4 L-3,2 L-5,1 Z " fill="#59545B" transform="translate(50,34)"/>
<path d="M0,0 L3,0 L3,2 L1,2 L1,4 L-5,4 L-2,1 Z " fill="#020303" transform="translate(144,34)"/>
<path d="M0,0 L2,0 L1,4 L5,4 L5,7 L-1,6 Z " fill="#313134" transform="translate(11,22)"/>
<path d="M0,0 L6,0 L7,3 L0,3 Z " fill="#080909" transform="translate(97,23)"/>
<path d="M0,0 L4,0 L4,2 L8,3 L1,4 L-1,3 Z " fill="#434444" transform="translate(49,8)"/>
<path d="M0,0 L2,1 L-1,3 L-2,8 L-5,4 L-5,1 Z " fill="#202121" transform="translate(44,3)"/>
<path d="M0,0 L3,0 L3,3 L-2,4 L-5,1 Z " fill="#191B1C" transform="translate(121,5)"/>
<path d="M0,0 L3,3 L3,9 L0,9 Z " fill="#0F1010" transform="translate(83,75)"/>
<path d="M0,0 L1,0 L1,5 L-4,6 L-4,1 L-2,1 L-2,3 L0,3 Z " fill="#272828" transform="translate(53,68)"/>
<path d="M0,0 L2,0 L2,3 L4,4 L-1,6 L-1,1 Z " fill="#212222" transform="translate(102,67)"/>
<path d="M0,0 L3,0 L5,3 L5,6 L2,6 Z " fill="#2A2B2B" transform="translate(37,61)"/>
<path d="M0,0 L3,0 L1,4 L-3,5 L-4,2 Z " fill="#04080B" transform="translate(56,56)"/>
<path d="M0,0 L4,0 L2,4 L0,5 L-2,3 Z " fill="#2F3030" transform="translate(35,53)"/>
<path d="M0,0 L4,1 L1,4 L-6,3 L-5,1 L0,3 Z " fill="#2C205F" transform="translate(125,50)"/>
<path d="M0,0 L1,2 L-1,2 L-1,4 L-6,4 L-6,1 Z " fill="#6B5A40" transform="translate(104,50)"/>
<path d="M0,0 L3,0 L4,3 L1,3 L0,5 L-3,3 L-2,1 Z " fill="#04634D" transform="translate(115,38)"/>
<path d="M0,0 L3,1 L4,5 L-2,5 L0,4 Z " fill="#5A5758" transform="translate(5,21)"/>
<path d="M0,0 L9,0 L5,2 L-1,3 Z " fill="#4A4B4C" transform="translate(38,16)"/>
<path d="M0,0 L2,4 L2,7 L-1,6 L0,4 L-6,4 L-6,3 L0,3 Z " fill="#2E3030" transform="translate(113,12)"/>
<path d="M0,0 L4,1 L4,3 L8,4 L8,5 L3,5 Z " fill="#262828" transform="translate(115,11)"/>
<path d="M0,0 L2,0 L2,2 L7,3 L4,4 L3,6 L3,4 L0,3 Z " fill="#0F1111" transform="translate(0,1)"/>
<path d="M0,0 L3,0 L1,5 L-2,5 L-1,1 Z " fill="#5B5C5C" transform="translate(128,74)"/>
<path d="M0,0 L4,1 L2,5 L-1,5 Z " fill="#3A3B3B" transform="translate(92,71)"/>
<path d="M0,0 L2,0 L0,10 L-1,10 L-2,3 Z " fill="#020202" transform="translate(85,71)"/>
<path d="M0,0 L3,4 L1,5 L0,9 L-1,4 L-3,2 L0,2 Z " fill="#282929" transform="translate(38,67)"/>
<path d="M0,0 L1,0 L1,7 L-2,7 L-3,3 L0,3 Z " fill="#454646" transform="translate(42,64)"/>
<path d="M0,0 L3,0 L3,3 L6,3 L6,5 L1,5 Z " fill="#0B0C0C" transform="translate(32,64)"/>
<path d="M0,0 L3,0 L2,6 L1,3 L-5,2 L-5,1 Z " fill="#3A3C3C" transform="translate(146,53)"/>
<path d="M0,0 L6,0 L4,3 L-1,3 Z " fill="#5E5244" transform="translate(27,47)"/>
<path d="M0,0 L1,3 L0,6 L-4,5 L-3,2 Z " fill="#392E31" transform="translate(9,41)"/>
<path d="M0,0 L4,1 L4,4 L-2,3 Z " fill="#211615" transform="translate(34,40)"/>
<path d="M0,0 L5,1 L2,5 L-1,4 Z " fill="#080403" transform="translate(132,38)"/>
<path d="M0,0 L2,0 L1,5 L-5,6 L-5,4 L-1,3 Z " fill="#252918" transform="translate(130,33)"/>
<path d="M0,0 L3,0 L3,2 L1,2 L1,5 L-2,5 L-2,1 Z " fill="#575858" transform="translate(2,34)"/>
<path d="M0,0 L1,2 L3,3 L2,5 L-2,5 L-2,1 Z " fill="#21196F" transform="translate(51,28)"/>
<path d="M0,0 L4,2 L5,5 L8,6 L3,6 Z " fill="#10284D" transform="translate(43,23)"/>
<path d="M0,0 L8,0 L7,3 L3,3 L3,1 Z " fill="#3C3F45" transform="translate(104,23)"/>
<path d="M0,0 L3,0 L3,2 L8,3 L8,4 L2,4 Z " fill="#535656" transform="translate(138,18)"/>
<path d="M0,0 L1,2 L4,2 L4,4 L-3,4 Z " fill="#474949" transform="translate(104,80)"/>
<path d="M0,0 L6,1 L8,3 L1,3 Z " fill="#010101" transform="translate(92,81)"/>
<path d="M0,0 L2,0 L3,7 L1,9 L0,6 L-2,5 L1,5 Z " fill="#1A1C1C" transform="translate(132,58)"/>
<path d="M0,0 L3,0 L2,6 L0,6 Z " fill="#504C3C" transform="translate(125,56)"/>
<path d="M0,0 L2,1 L1,10 L0,10 L0,4 L-2,3 L0,3 Z " fill="#333233" transform="translate(134,54)"/>
<path d="M0,0 L3,0 L1,6 L-3,5 L0,5 Z " fill="#594049" transform="translate(25,26)"/>
<path d="M0,0 L5,1 L4,4 L0,3 Z " fill="#171527" transform="translate(91,29)"/>
<path d="M0,0 L2,0 L2,5 L-2,3 L-3,1 Z " fill="#201F22" transform="translate(104,25)"/>
<path d="M0,0 L4,0 L4,4 L0,4 Z " fill="#4B5150" transform="translate(21,20)"/>
<path d="M0,0 L6,2 L6,4 L1,4 Z " fill="#030403" transform="translate(20,13)"/>
<path d="M0,0 L5,0 L5,3 L0,4 Z " fill="#1F2121" transform="translate(19,0)"/>
<path d="M0,0 L3,4 L3,6 L0,6 L0,3 L-3,4 L-3,2 L0,2 Z " fill="#494A4A" transform="translate(104,64)"/>
<path d="M0,0 L2,0 L2,6 L-1,6 L-1,1 Z " fill="#36383F" transform="translate(105,58)"/>
<path d="M0,0 L4,1 L4,5 L1,4 Z " fill="#0A0C09" transform="translate(129,46)"/>
<path d="M0,0 L4,1 L4,3 L8,4 L2,4 L2,2 L0,2 Z " fill="#4B4144" transform="translate(31,44)"/>
<path d="M0,0 L4,4 L2,6 L0,6 Z " fill="#43162E" transform="translate(91,38)"/>
<path d="M0,0 L3,2 L3,6 L0,6 Z " fill="#2D481C" transform="translate(122,35)"/>
<path d="M0,0 L6,1 L6,3 L0,3 Z " fill="#6B696A" transform="translate(4,17)"/>
<path d="M0,0 L5,1 L4,4 L-2,3 Z " fill="#2D3032" transform="translate(99,14)"/>
<path d="M0,0 L4,1 L3,4 L1,4 L1,2 L-3,1 Z " fill="#424445" transform="translate(130,9)"/>
<path d="M0,0 L2,0 L3,4 L-3,4 Z " fill="#010101" transform="translate(69,7)"/>
<path d="M0,0 L3,1 L2,6 L0,6 L-1,2 Z " fill="#463053" transform="translate(112,52)"/>
<path d="M0,0 L3,0 L6,4 L0,3 Z " fill="#775E8B" transform="translate(115,50)"/>
<path d="M0,0 L2,0 L2,5 L-2,5 L-2,2 L0,2 Z " fill="#323333" transform="translate(23,46)"/>
<path d="M0,0 L3,0 L3,2 L6,3 L1,4 Z " fill="#8D5E2F" transform="translate(92,45)"/>
<path d="M0,0 L7,0 L6,3 L5,1 L0,3 Z " fill="#0C4D1B" transform="translate(113,37)"/>
<path d="M0,0 L1,0 L1,5 L-4,4 L-1,3 Z " fill="#282235" transform="translate(96,30)"/>
<path d="M0,0 L4,1 L2,6 L0,3 Z " fill="#322834" transform="translate(6,33)"/>
<path d="M0,0 L2,0 L1,4 L-2,6 L-2,2 L0,2 Z " fill="#3F3E3D" transform="translate(2,14)"/>
<path d="M0,0 L5,1 L5,3 L0,3 Z " fill="#2A2B2C" transform="translate(121,2)"/>
<path d="M0,0 L4,0 L4,3 L-1,3 Z " fill="#292A2A" transform="translate(115,67)"/>
<path d="M0,0 L2,0 L1,5 L-3,4 Z " fill="#4B4C4C" transform="translate(112,62)"/>
<path d="M0,0 L3,0 L3,5 L0,4 Z " fill="#14130F" transform="translate(89,59)"/>
<path d="M0,0 L4,0 L2,4 L0,4 Z " fill="#0A0A0A" transform="translate(20,52)"/>
<path d="M0,0 L1,4 L-2,4 L-3,6 L-2,1 Z " fill="#515252" transform="translate(15,50)"/>
<path d="M0,0 L4,1 L4,4 L0,4 Z " fill="#6F6278" transform="translate(135,48)"/>
<path d="M0,0 L3,3 L3,5 L-1,4 Z " fill="#444F4A" transform="translate(40,44)"/>
<path d="M0,0 L1,4 L-3,4 L-4,2 L0,2 Z " fill="#1F201B" transform="translate(140,32)"/>
<path d="M0,0 L5,0 L5,3 L1,3 Z " fill="#6A447D" transform="translate(52,34)"/>
<path d="M0,0 L5,0 L6,2 L2,3 L0,2 Z " fill="#0E1011" transform="translate(86,25)"/>
<path d="M0,0 L2,1 L3,6 L0,6 Z " fill="#2B6690" transform="translate(41,24)"/>
<path d="M0,0 L4,0 L3,3 L-2,2 Z " fill="#0E0B17" transform="translate(25,23)"/>
<path d="M0,0 L7,0 L4,2 L2,2 L1,4 Z " fill="#4C4D4D" transform="translate(116,16)"/>
<path d="M0,0 L6,2 L6,3 L-1,4 Z " fill="#1C1E1E" transform="translate(73,4)"/>
<path d="M0,0 L6,1 L3,2 L4,5 L2,5 Z " fill="#464747" transform="translate(111,70)"/>
<path d="M0,0 L5,1 L5,4 L0,2 Z " fill="#503B7F" transform="translate(120,49)"/>
<path d="M0,0 L5,1 L4,4 L0,2 Z " fill="#090905" transform="translate(5,50)"/>
<path d="M0,0 L4,0 L4,3 L0,3 Z " fill="#484849" transform="translate(143,48)"/>
<path d="M0,0 L4,1 L4,3 L-1,3 Z " fill="#D19796" transform="translate(99,47)"/>
<path d="M0,0 L1,2 L3,2 L2,6 L0,6 Z " fill="#311809" transform="translate(90,45)"/>
<path d="M0,0 L3,1 L3,4 L-1,3 Z " fill="#334F9A" transform="translate(109,41)"/>
<path d="M0,0 L2,4 L1,6 L-3,5 L0,4 Z " fill="#0D0B0D" transform="translate(55,40)"/>
<path d="M0,0 L3,1 L1,2 L0,5 L-3,3 Z " fill="#083188" transform="translate(108,39)"/>
<path d="M0,0 L4,2 L4,4 L-2,3 Z " fill="#5E3AAA" transform="translate(34,34)"/>
<path d="M0,0 L6,0 L3,1 L3,3 L0,3 Z " fill="#3C3F42" transform="translate(132,32)"/>
<path d="M0,0 L4,0 L4,2 L-1,3 Z " fill="#44472F" transform="translate(55,25)"/>
<path d="M0,0 L6,1 L3,3 L0,3 Z " fill="#0C0F11" transform="translate(104,13)"/>
<path d="M0,0 L3,1 L3,4 L-1,3 Z " fill="#272019" transform="translate(132,43)"/>
<path d="M0,0 L2,0 L2,4 L-2,3 L0,2 Z " fill="#624F50" transform="translate(49,43)"/>
<path d="M0,0 L3,0 L3,2 L-2,4 Z " fill="#694C77" transform="translate(26,39)"/>
<path d="M0,0 L5,1 L2,3 L0,3 Z " fill="#355C9B" transform="translate(30,34)"/>
<path d="M0,0 L3,0 L3,3 L-1,3 Z " fill="#675967" transform="translate(59,32)"/>
<path d="M0,0 L1,2 L-1,2 L-1,4 L-4,3 L-4,1 Z " fill="#313D37" transform="translate(66,28)"/>
<path d="M0,0 L3,0 L3,3 L-1,3 Z " fill="#1D0829" transform="translate(54,30)"/>
<path d="M0,0 L4,1 L3,4 L0,3 Z " fill="#59A989" transform="translate(30,30)"/>
<path d="M0,0 L4,0 L4,3 L0,2 Z " fill="#0E1010" transform="translate(52,12)"/>
<path d="M0,0 L4,4 L0,5 Z " fill="#03040A" transform="translate(37,10)"/>
<path d="M0,0 L2,0 L2,3 L-2,3 L-2,1 Z " fill="#010101" transform="translate(134,81)"/>
<path d="M0,0 L1,4 L3,5 L1,5 L0,7 L-1,4 Z " fill="#202020" transform="translate(19,74)"/>
<path d="M0,0 L2,0 L1,3 L-3,2 Z " fill="#111212" transform="translate(108,69)"/>
<path d="M0,0 L4,0 L4,2 L0,3 Z " fill="#F5F5F3" transform="translate(93,66)"/>
<path d="M0,0 L1,2 L4,2 L3,5 L0,3 Z " fill="#272828" transform="translate(105,62)"/>
<path d="M0,0 L3,0 L3,4 L1,4 Z " fill="#1A1119" transform="translate(121,54)"/>
<path d="M0,0 L1,2 L4,3 L-2,4 Z " fill="#1F1F13" transform="translate(4,47)"/>
<path d="M0,0 L3,0 L3,3 L-1,2 Z " fill="#6D2A97" transform="translate(109,47)"/>
<path d="M0,0 L3,0 L3,3 L0,4 Z " fill="#0A0B12" transform="translate(17,44)"/>
<path d="M0,0 L2,0 L2,3 L-2,3 L-2,1 Z " fill="#343A39" transform="translate(43,41)"/>
<path d="M0,0 L2,0 L3,3 L-2,2 Z " fill="#191429" transform="translate(21,37)"/>
<path d="M0,0 L4,1 L3,3 L0,3 Z " fill="#3F492C" transform="translate(115,33)"/>
<path d="M0,0 L4,0 L3,4 Z " fill="#08318B" transform="translate(45,30)"/>
<path d="M0,0 L4,3 L0,4 L-1,2 Z " fill="#0F0C2A" transform="translate(17,28)"/>
<path d="M0,0 L5,0 L3,1 L3,3 L0,2 Z " fill="#151621" transform="translate(126,27)"/>
<path d="M0,0 L4,0 L5,3 L1,2 Z " fill="#2C2D30" transform="translate(127,11)"/>
<path d="M0,0 L4,0 L3,4 Z " fill="#1B1C1C" transform="translate(146,8)"/>
<path d="M0,0 L3,2 L3,4 L-1,3 Z " fill="#303031" transform="translate(35,6)"/>
<path d="M0,0 L5,0 L5,2 L2,3 Z " fill="#202222" transform="translate(64,1)"/>
<path d="M0,0 L3,0 L3,3 L0,3 Z " fill="#545555" transform="translate(15,74)"/>
<path d="M0,0 L3,1 L3,4 L0,3 Z " fill="#18191A" transform="translate(9,67)"/>
<path d="M0,0 L3,0 L2,3 L-1,2 Z " fill="#434545" transform="translate(135,63)"/>
<path d="M0,0 L4,1 L0,3 Z " fill="#1A1B1B" transform="translate(31,57)"/>
<path d="M0,0 L4,1 L0,3 Z " fill="#7F747C" transform="translate(49,51)"/>
<path d="M0,0 L3,0 L3,3 L0,3 Z " fill="#51476B" transform="translate(126,47)"/>
<path d="M0,0 L3,0 L3,3 L0,3 Z " fill="#413B49" transform="translate(13,26)"/>
<path d="M0,0 L3,0 L3,3 L0,3 Z " fill="#040505" transform="translate(64,25)"/>
<path d="M0,0 L2,1 L1,4 L-1,3 Z " fill="#1A1B1B" transform="translate(106,74)"/>
<path d="M0,0 L3,1 L3,3 L0,3 Z " fill="#6B6C6C" transform="translate(92,71)"/>
<path d="M0,0 L2,0 L2,3 L-1,3 Z " fill="#2D2E2E" transform="translate(102,67)"/>
<path d="M0,0 L2,0 L2,3 L-1,3 Z " fill="#0B0C22" transform="translate(127,51)"/>
<path d="M0,0 L4,2 L1,3 Z " fill="#4C4048" transform="translate(43,48)"/>
<path d="M0,0 L3,0 L2,3 L0,3 Z " fill="#796E75" transform="translate(10,44)"/>
<path d="M0,0 L3,0 L3,3 L0,2 Z " fill="#0A677B" transform="translate(113,44)"/>
<path d="M0,0 L2,0 L1,3 L-3,1 Z " fill="#140912" transform="translate(8,39)"/>
<path d="M0,0 L2,0 L3,3 L1,4 L-1,2 Z " fill="#17291A" transform="translate(111,34)"/>
<path d="M0,0 L3,0 L3,3 L0,2 Z " fill="#3C4C41" transform="translate(110,31)"/>
<path d="M0,0 L3,1 L1,4 Z " fill="#444746" transform="translate(144,29)"/>
<path d="M0,0 L2,0 L2,3 L-1,3 Z " fill="#1D1E20" transform="translate(62,25)"/>
<path d="M0,0 L2,0 L1,3 L-1,3 Z " fill="#60606A" transform="translate(38,37)"/>
<path d="M0,0 L2,0 L2,3 L-1,2 Z " fill="#171A1B" transform="translate(104,25)"/>
<path d="M0,0 L3,1 L3,3 L0,2 Z " fill="#131609" transform="translate(52,23)"/>
<path d="M0,0 L2,0 L1,3 L-1,1 Z " fill="#484B4B" transform="translate(130,64)"/>
<path d="M0,0 L2,1 L2,3 L-1,2 Z " fill="#413F3A" transform="translate(23,43)"/>
</svg>
