<?xml version="1.0" encoding="UTF-8"?>
<!-- Generator: visioncortex VTracer 0.6.5 -->
<svg version="1.1" xmlns="http://www.w3.org/2000/svg" width="150" height="84">
<path d="M0,0 L150,0 L150,84 L0,84 Z " fill="#1F2126" transform="translate(0,0)"/>
<path d="M0,0 L83,0 L83,29 L77,30 L80,35 L80,37 L75,37 L75,39 L72,39 L72,36 L68,37 L68,39 L71,40 L71,43 L68,43 L68,45 L71,45 L71,48 L66,49 L66,53 L68,53 L68,55 L66,55 L65,60 L62,60 L62,62 L54,63 L53,65 L45,66 L45,70 L39,70 L39,68 L43,68 L44,61 L46,61 L45,59 L42,60 L44,55 L45,51 L43,50 L43,48 L45,48 L45,46 L47,46 L45,41 L41,40 L38,39 L38,42 L31,41 L33,35 L21,35 L15,34 L13,35 L6,35 L6,39 L11,38 L10,40 L-2,40 L-8,43 L-14,42 L-15,47 L-13,47 L-13,51 L-8,48 L-8,51 L-10,51 L-12,58 L-14,58 L-14,52 L-16,56 L-20,52 L-22,47 L-24,46 L-24,40 L-16,39 L-15,37 L-21,35 L-22,28 L-18,27 L-18,29 L-15,27 L-11,27 L-11,31 L-9,31 L-9,27 L-6,27 L-5,22 L1,21 L0,19 L-3,18 L-2,15 L-10,16 L-7,17 L-7,20 L-11,20 L-11,17 L-17,19 L-24,19 L-26,17 L-21,17 L-21,15 L-12,13 L-7,13 L-7,11 L-11,10 L-14,12 L-14,10 L-21,9 L-21,8 L-14,7 L-14,5 L-11,5 L-11,3 L-4,3 L-4,1 Z " fill="#020305" transform="translate(67,0)"/>
<path d="M0,0 L67,0 L63,1 L63,3 L58,4 L56,3 L56,5 L53,5 L53,7 L49,9 L54,11 L57,9 L61,11 L60,13 L48,15 L46,15 L46,17 L43,18 L50,18 L56,17 L56,20 L60,20 L60,17 L56,16 L60,14 L68,14 L64,18 L68,19 L68,21 L62,22 L61,27 L58,27 L58,31 L55,32 L56,27 L53,29 L49,29 L49,27 L46,28 L46,35 L52,37 L51,40 L43,40 L44,46 L46,46 L47,52 L45,52 L45,49 L43,49 L44,57 L48,58 L48,60 L42,61 L34,60 L33,58 L35,58 L35,56 L30,56 L30,61 L25,62 L23,65 L25,67 L25,70 L30,73 L34,74 L33,68 L31,68 L30,63 L32,63 L32,66 L37,67 L38,66 L43,66 L49,69 L49,72 L42,71 L42,73 L45,73 L45,77 L40,78 L46,81 L46,84 L0,84 Z " fill="#313942" transform="translate(0,0)"/>
<path d="M0,0 L2,0 L2,3 L5,3 L9,9 L9,11 L7,11 L8,13 L21,17 L17,18 L15,18 L17,19 L18,24 L16,24 L16,26 L10,25 L17,28 L15,30 L19,30 L17,25 L31,25 L32,23 L28,24 L19,21 L19,20 L25,20 L30,22 L30,20 L37,22 L37,24 L44,24 L46,23 L60,24 L59,20 L62,21 L63,25 L63,27 L70,25 L71,23 L81,23 L81,20 L98,20 L98,18 L101,19 L103,21 L103,24 L105,24 L105,22 L107,22 L107,35 L3,35 L1,31 L-3,30 L-4,28 L2,28 L2,24 L-1,24 L-1,22 L6,23 L5,20 L0,18 L-5,18 L-8,18 L-11,17 L-11,14 L-13,14 L-12,19 L-10,19 L-9,25 L-15,24 L-20,19 L-19,18 L-21,16 L-17,11 L-14,11 L-13,7 L-8,7 L-9,10 L5,11 L5,9 L0,8 Z " fill="#606B76" transform="translate(43,49)"/>
<path d="M0,0 L3,0 L3,2 L1,2 L-1,9 L-3,9 L-2,12 L3,13 L3,16 L5,16 L6,23 L10,24 L10,30 L7,30 L7,32 L13,33 L13,36 L8,37 L6,41 L1,44 L1,46 L3,46 L3,52 L8,52 L9,53 L18,54 L18,58 L22,58 L22,62 L-16,62 L-16,8 L-6,8 L-5,5 L-3,5 L-3,3 L-1,3 Z " fill="#0B111B" transform="translate(16,22)"/>
<path d="M0,0 L67,0 L63,1 L63,3 L58,4 L56,3 L56,5 L53,5 L53,7 L49,9 L54,11 L57,9 L61,11 L60,13 L48,15 L45,16 L36,16 L34,20 L30,20 L30,18 L28,18 L27,24 L26,25 L30,27 L30,25 L32,25 L32,28 L24,30 L17,30 L20,27 L22,21 L20,21 L20,19 L24,19 L24,13 L28,13 L28,15 L30,16 L28,10 L26,9 L26,11 L21,10 L20,14 L22,15 L21,16 L15,16 L15,21 L14,22 L7,22 L6,25 L0,24 Z " fill="#4F5055" transform="translate(0,0)"/>
<path d="M0,0 L29,0 L29,26 L25,26 L25,28 L17,29 L14,28 L14,25 L12,25 L12,23 L16,23 L17,20 L12,19 L12,17 L9,17 L9,15 L1,16 L2,18 L-15,18 L-19,16 L-19,13 L-17,13 L-16,11 L-7,11 L-8,9 L-17,10 L-23,10 L-23,12 L-27,12 L-28,11 L-30,12 L-29,15 L-40,15 L-40,12 L-38,11 L-31,11 L-31,8 L-39,7 L-39,10 L-45,10 L-46,7 L-44,7 L-44,5 L-29,4 L-11,4 L-6,2 L-1,2 Z " fill="#0A0D11" transform="translate(121,0)"/>
<path d="M0,0 L6,0 L5,4 L8,4 L8,2 L21,3 L24,5 L29,6 L29,8 L32,8 L32,11 L28,11 L29,14 L28,16 L32,16 L32,12 L35,13 L35,15 L38,15 L39,12 L39,16 L34,16 L35,20 L28,24 L26,24 L26,26 L21,28 L10,28 L5,26 L3,28 L1,25 L-2,24 L-2,22 L1,22 L1,20 L-4,19 L-8,20 L-8,12 L-10,17 L-13,17 L-12,12 L-11,10 L-9,10 L-8,6 L-7,4 L-5,5 L-6,7 L1,8 L1,2 Z " fill="#838C92" transform="translate(68,41)"/>
<path d="M0,0 L2,0 L2,3 L5,3 L9,9 L9,11 L7,11 L8,13 L21,17 L17,18 L15,18 L17,19 L18,24 L16,24 L16,26 L10,25 L17,28 L15,30 L19,30 L17,25 L26,25 L27,28 L32,29 L33,35 L3,35 L1,31 L-3,30 L-4,28 L2,28 L2,24 L-1,24 L-1,22 L6,23 L5,20 L0,18 L-5,18 L-8,18 L-11,17 L-11,14 L-13,14 L-12,19 L-10,19 L-9,25 L-15,24 L-20,19 L-19,18 L-21,16 L-17,11 L-14,11 L-13,7 L-8,7 L-9,10 L5,11 L5,9 L0,8 Z " fill="#636F7C" transform="translate(43,49)"/>
<path d="M0,0 L54,0 L53,3 L48,3 L43,5 L10,5 L10,7 L8,7 L9,9 L15,10 L15,7 L21,7 L23,8 L23,11 L14,12 L14,15 L5,15 L6,17 L14,18 L14,20 L6,20 L3,17 L3,15 L-7,15 L-10,16 L-7,17 L-7,20 L-11,20 L-11,17 L-17,19 L-24,19 L-26,17 L-21,17 L-21,15 L-12,13 L-7,13 L-7,11 L-11,10 L-14,12 L-14,10 L-21,9 L-21,8 L-14,7 L-14,5 L-11,5 L-11,3 L-4,3 L-4,1 Z " fill="#101114" transform="translate(67,0)"/>
<path d="M0,0 L3,0 L3,2 L6,0 L10,0 L10,4 L12,4 L12,0 L20,1 L22,0 L32,0 L28,2 L28,4 L39,3 L40,5 L34,8 L27,8 L27,12 L32,11 L31,13 L19,13 L13,16 L7,15 L6,20 L8,20 L8,24 L13,21 L13,24 L11,24 L9,31 L7,31 L7,25 L5,29 L1,25 L-1,20 L-3,19 L-3,13 L5,12 L6,10 L0,8 L-1,1 Z " fill="#0B090B" transform="translate(46,27)"/>
<path d="M0,0 L3,0 L3,2 L1,2 L-1,9 L-3,9 L-2,12 L3,13 L3,16 L5,16 L6,23 L10,24 L10,30 L7,30 L7,32 L13,33 L13,36 L6,36 L4,34 L-1,33 L-1,30 L-4,29 L-3,26 L-16,26 L-16,8 L-6,8 L-5,5 L-3,5 L-3,3 L-1,3 Z " fill="#4A555F" transform="translate(16,22)"/>
<path d="M0,0 L35,0 L34,2 L29,2 L28,6 L24,5 L24,2 L20,2 L19,5 L17,5 L18,10 L21,10 L20,14 L22,15 L21,16 L15,16 L15,21 L14,22 L7,22 L6,25 L0,24 Z " fill="#40444C" transform="translate(0,0)"/>
<path d="M0,0 L3,1 L5,3 L5,6 L7,6 L7,4 L9,4 L9,17 L-28,17 L-27,14 L-31,13 L-24,10 L-21,7 L-13,7 L-13,5 L-18,4 L-17,2 L0,2 Z " fill="#5A6572" transform="translate(141,67)"/>
<path d="M0,0 L8,0 L4,4 L8,5 L8,7 L2,8 L1,13 L-2,13 L-2,17 L-5,18 L-4,13 L-7,15 L-11,15 L-11,13 L-14,14 L-14,21 L-8,23 L-9,26 L-20,28 L-21,23 L-26,23 L-26,21 L-29,20 L-26,19 L-26,17 L-24,17 L-24,11 L-25,10 L-30,10 L-26,7 L-23,7 L-22,4 L-20,5 L-19,3 L-17,4 L-10,4 L-4,3 L-4,6 L0,6 L0,3 L-4,2 Z " fill="#1D2127" transform="translate(60,14)"/>
<path d="M0,0 L2,0 L2,2 L4,2 L4,8 L9,8 L10,9 L19,10 L19,14 L23,14 L23,18 L-15,18 L-15,5 L-13,5 L-13,7 L-8,5 L0,6 Z " fill="#6F7B88" transform="translate(15,66)"/>
<path d="M0,0 L20,0 L20,24 L16,24 L16,20 L12,19 L12,16 L7,16 L6,11 L-1,11 L-1,8 L-4,7 L-1,6 Z " fill="#030508" transform="translate(130,0)"/>
<path d="M0,0 L3,1 L2,7 L7,7 L9,1 L10,1 L9,10 L15,8 L18,10 L18,12 L15,12 L15,14 L19,15 L22,15 L27,17 L43,17 L44,22 L37,22 L37,23 L29,22 L29,20 L24,19 L22,18 L22,20 L12,19 L22,21 L24,21 L23,24 L9,23 L12,29 L2,29 L2,28 L8,26 L2,24 L0,22 L6,23 L8,24 L9,17 L6,16 L11,15 L0,12 L-1,9 L1,9 L-2,4 L0,4 Z " fill="#21272F" transform="translate(51,51)"/>
<path d="M0,0 L8,0 L8,2 L11,2 L11,5 L7,5 L8,8 L7,10 L11,10 L11,6 L14,7 L14,9 L17,9 L18,6 L18,10 L13,10 L14,14 L8,17 L-3,18 L-8,13 L-8,10 L-10,10 L-9,5 L-1,2 Z " fill="#8B99A4" transform="translate(89,47)"/>
<path d="M0,0 L7,1 L8,5 L8,6 L15,3 L16,0 L23,3 L25,8 L23,8 L23,10 L21,10 L21,12 L24,13 L23,17 L21,21 L25,20 L24,23 L20,25 L16,24 L18,20 L14,20 L13,22 L13,19 L18,19 L14,18 L11,15 L11,19 L7,19 L7,14 L11,14 L11,11 L8,11 L8,9 L3,9 L0,6 L2,5 L-8,4 L-8,3 L-1,3 Z " fill="#28282A" transform="translate(89,38)"/>
<path d="M0,0 L3,1 L4,7 L0,6 L2,6 L2,4 L-2,4 L-2,10 L-6,10 L-6,12 L-4,12 L-5,19 L-7,20 L-5,21 L-5,23 L-1,21 L3,21 L3,23 L0,23 L-1,27 L-2,28 L-7,28 L-7,26 L-12,26 L-13,22 L-11,21 L-9,15 L-7,15 L-7,13 L-10,14 L-11,16 L-13,16 L-13,18 L-16,21 L-26,21 L-26,15 L-20,15 L-19,13 L-12,12 L-11,7 L-5,6 L-6,3 L-5,1 L0,2 Z " fill="#161F29" transform="translate(26,9)"/>
<path d="M0,0 L4,0 L4,16 L0,17 L0,20 L-3,23 L-6,23 L-5,31 L-4,33 L-8,34 L-9,36 L-14,35 L-12,32 L-9,32 L-9,21 L-11,21 L-11,24 L-13,24 L-13,20 L-8,19 L-8,16 L-11,16 L-11,14 L-8,14 L-9,11 L-11,10 L-11,8 L-7,7 L-7,10 L-4,10 L-4,8 L-6,7 L1,8 L-2,3 L-2,1 Z " fill="#16171B" transform="translate(146,29)"/>
<path d="M0,0 L3,1 L2,4 L-6,4 L-5,7 L-1,8 L-1,10 L-9,10 L-9,13 L-17,12 L-21,13 L-21,15 L-24,17 L-28,16 L-27,14 L-31,13 L-24,10 L-21,7 L-13,7 L-13,5 L-18,4 L-17,2 L0,2 Z " fill="#6D7B8A" transform="translate(141,67)"/>
<path d="M0,0 L24,1 L24,5 L13,6 L13,8 L9,8 L8,7 L6,8 L7,11 L-4,11 L-4,8 L-2,7 L5,7 L5,4 L-3,3 L-3,6 L-9,6 L-10,3 L-8,3 L-8,1 Z " fill="#22242B" transform="translate(85,4)"/>
<path d="M0,0 L2,0 L2,3 L7,4 L8,3 L13,3 L19,6 L19,9 L12,8 L12,10 L15,10 L15,14 L10,15 L16,18 L16,21 L8,21 L8,17 L4,17 L4,13 L-1,12 L0,10 L4,11 L3,5 L1,5 Z " fill="#424D5C" transform="translate(30,63)"/>
<path d="M0,0 L2,2 L4,7 L4,2 L6,2 L9,6 L10,10 L11,6 L13,6 L15,13 L13,16 L11,16 L11,14 L8,14 L8,12 L5,15 L2,15 L2,17 L0,18 L-1,21 L1,22 L-2,22 L-2,26 L-8,26 L-8,24 L-4,24 L-3,17 L-1,17 L-2,15 L-5,16 L-3,11 L-2,7 L-4,6 L-4,4 L-2,4 L-2,2 L0,2 Z " fill="#0E1115" transform="translate(114,44)"/>
<path d="M0,0 L2,0 L2,26 L0,26 L0,28 L-2,28 L-5,23 L-7,22 L-7,24 L-19,24 L-19,21 L-16,21 L-16,23 L-11,23 L-9,18 L-4,18 L-3,4 L-2,1 Z " fill="#3B3C46" transform="translate(148,45)"/>
<path d="M0,0 L8,0 L4,4 L8,5 L8,7 L2,8 L1,13 L-2,13 L-2,17 L-5,18 L-4,13 L-7,15 L-11,15 L-11,13 L-13,13 L-13,10 L-16,10 L-15,7 L-10,7 L-10,6 L-5,6 L-5,4 L-8,3 L-4,3 L-4,6 L0,6 L0,3 L-4,2 Z " fill="#211819" transform="translate(60,14)"/>
<path d="M0,0 L4,0 L4,2 L6,2 L7,9 L11,10 L11,16 L8,16 L8,18 L14,19 L14,22 L7,22 L2,16 L0,15 L-1,12 L-4,11 L-4,8 L-2,8 L-2,6 L2,4 L3,2 L0,2 Z " fill="#67717D" transform="translate(15,36)"/>
<path d="M0,0 L18,0 L16,2 L4,3 L5,5 L2,7 L1,11 L6,11 L3,14 L-2,12 L-2,8 L-9,13 L-10,15 L-13,15 L-13,10 L-8,10 L-8,8 L-13,7 L-13,6 L-8,6 L-7,2 Z " fill="#161B1E" transform="translate(44,0)"/>
<path d="M0,0 L29,0 L28,3 L23,3 L18,5 L-7,5 L-21,6 L-21,4 L-9,2 L0,2 Z " fill="#010104" transform="translate(92,0)"/>
<path d="M0,0 L6,0 L5,4 L11,5 L7,7 L1,10 L-1,9 L0,17 L1,20 L-4,19 L-8,20 L-8,12 L-10,17 L-13,17 L-12,12 L-11,10 L-9,10 L-8,6 L-7,4 L-5,5 L-6,7 L1,8 L1,2 Z " fill="#585D60" transform="translate(68,41)"/>
<path d="M0,0 L9,0 L10,3 L15,4 L16,10 L-8,10 L-11,9 L-11,7 L3,7 L0,2 Z " fill="#828F9C" transform="translate(60,74)"/>
<path d="M0,0 L7,0 L7,2 L13,3 L19,6 L18,9 L16,9 L16,11 L13,10 L8,9 L8,12 L12,13 L13,17 L6,17 L4,13 L4,5 L0,3 Z " fill="#65707D" transform="translate(0,51)"/>
<path d="M0,0 L4,1 L5,6 L0,5 L-3,5 L-3,8 L3,9 L3,11 L-4,11 L-4,13 L4,13 L3,15 L-4,15 L-5,18 L-11,17 L-11,7 L-4,3 Z " fill="#707D89" transform="translate(11,7)"/>
<path d="M0,0 L2,0 L2,2 L4,2 L4,8 L9,8 L10,9 L19,10 L19,14 L23,14 L23,18 L0,18 L0,14 L10,16 L9,11 L7,11 L7,9 L3,9 L2,3 L0,3 Z " fill="#505D6A" transform="translate(15,66)"/>
<path d="M0,0 L3,0 L4,3 L8,3 L7,7 L12,8 L12,14 L10,14 L12,19 L7,19 L7,16 L-6,15 L-6,13 L2,14 L4,15 L2,12 L1,5 L-1,5 L-2,8 L-2,3 L0,1 Z " fill="#211D1F" transform="translate(29,39)"/>
<path d="M0,0 L6,0 L6,3 L2,11 L1,12 L-4,12 L-4,15 L-7,14 L-8,9 L-10,9 L-9,4 Z " fill="#F1F5F8" transform="translate(89,48)"/>
<path d="M0,0 L9,0 L9,1 L2,3 L1,6 L-1,7 L1,8 L1,10 L-4,10 L-4,15 L-6,12 L-9,9 L-9,11 L-17,10 L-18,5 L-15,2 L-11,2 L-9,5 L-7,5 L-6,2 Z " fill="#47565D" transform="translate(35,0)"/>
<path d="M0,0 L4,0 L4,3 L-2,4 L1,9 L1,11 L-4,11 L-4,13 L-7,13 L-7,10 L-11,11 L-11,13 L-13,13 L-13,8 L-15,2 L-11,1 L-6,2 L0,2 Z " fill="#090A0F" transform="translate(146,26)"/>
<path d="M0,0 L8,1 L10,0 L20,0 L16,2 L16,4 L27,3 L28,5 L22,8 L15,8 L15,6 L5,3 L5,6 L-4,9 L-4,7 L-2,7 L-2,4 L0,4 Z " fill="#120F11" transform="translate(58,27)"/>
<path d="M0,0 L6,0 L6,14 L-4,15 L-8,10 L-8,7 L0,7 Z " fill="#0B0E13" transform="translate(144,0)"/>
<path d="M0,0 L2,0 L2,3 L5,3 L9,9 L9,11 L7,11 L8,13 L13,14 L13,15 L4,16 L5,19 L-5,18 L-8,18 L-10,16 L-5,14 L-5,16 L-1,16 L-1,14 L-4,12 L2,11 L5,11 L5,9 L0,8 Z " fill="#485462" transform="translate(43,49)"/>
<path d="M0,0 L4,2 L4,4 L6,5 L4,5 L6,11 L7,13 L13,14 L14,11 L15,12 L15,18 L5,18 L2,19 L2,17 L0,17 Z " fill="#3B465A" transform="translate(0,54)"/>
<path d="M0,0 L7,0 L7,3 L11,4 L11,8 L15,8 L15,10 L11,10 L11,12 L3,13 L0,12 L0,9 L-2,9 L-2,7 L2,7 L3,4 L0,2 Z " fill="#1B1D23" transform="translate(135,16)"/>
<path d="M0,0 L7,0 L6,2 L3,2 L2,5 L-1,5 L0,17 L-6,15 L-6,13 L-8,13 L-9,6 L-7,3 Z " fill="#21252E" transform="translate(81,47)"/>
<path d="M0,0 L7,0 L14,2 L10,3 L8,3 L10,4 L11,9 L9,9 L9,11 L0,10 L-3,1 Z " fill="#5D6776" transform="translate(50,64)"/>
<path d="M0,0 L4,0 L4,9 L1,10 L1,14 L-3,16 L-3,14 L-11,16 L-11,14 L-8,14 L-9,11 L-11,10 L-11,8 L-7,7 L-7,10 L-4,10 L-4,8 L-6,7 L1,8 L-2,3 L-2,1 Z " fill="#171B22" transform="translate(146,29)"/>
<path d="M0,0 L2,3 L6,7 L16,7 L14,8 L14,10 L9,12 L-2,12 L-7,10 L-9,12 L-11,9 L-14,8 L-14,6 L-11,6 L-10,4 L-9,7 L-2,8 L2,9 L0,5 Z " fill="#7E9099" transform="translate(80,57)"/>
<path d="M0,0 L6,0 L2,1 L2,6 L1,7 L4,8 L4,10 L-3,9 L-4,8 L-9,12 L-11,12 L-11,8 L-13,8 L-13,2 L-6,3 Z " fill="#1E1E1F" transform="translate(65,39)"/>
<path d="M0,0 L5,0 L1,1 L1,3 L-4,4 L-6,3 L-6,5 L-9,5 L-9,7 L-13,9 L-8,11 L-5,9 L-1,11 L-2,13 L-10,14 L-15,14 L-13,12 L-17,11 L-16,6 L-14,4 L-15,2 L-2,1 Z " fill="#3D3C40" transform="translate(62,0)"/>
<path d="M0,0 L14,1 L14,2 L4,3 L3,6 L-3,8 L0,9 L-1,12 L-9,12 L-9,8 L-10,5 L-1,2 Z " fill="#565D6B" transform="translate(114,72)"/>
<path d="M0,0 L10,0 L12,1 L12,8 L11,9 L0,9 Z " fill="#626D79" transform="translate(0,30)"/>
<path d="M0,0 L2,0 L3,4 L6,5 L5,2 L7,2 L8,7 L10,7 L11,13 L9,13 L9,10 L7,10 L8,18 L12,19 L12,21 L6,22 L6,20 L2,20 L3,18 L3,16 L3,14 L5,14 L5,8 L0,7 L1,3 L-2,2 L0,2 Z " fill="#303438" transform="translate(36,39)"/>
<path d="M0,0 L13,0 L13,2 L11,2 L11,5 L15,6 L15,9 L18,10 L19,13 L15,13 L15,10 L12,9 L13,6 L0,6 Z " fill="#424D59" transform="translate(0,42)"/>
<path d="M0,0 L13,0 L14,6 L16,7 L14,7 L15,10 L4,10 L4,7 L6,6 L13,6 L13,3 L5,2 L5,5 L-1,5 L-2,2 L0,2 Z " fill="#3B3E45" transform="translate(77,5)"/>
<path d="M0,0 L2,0 L5,4 L6,8 L7,4 L9,4 L11,11 L9,14 L7,14 L7,12 L4,12 L4,10 L1,13 L-2,12 L-2,10 L0,10 L0,8 L-2,8 L-3,4 L0,5 Z " fill="#1A1A1D" transform="translate(118,46)"/>
<path d="M0,0 L1,2 L19,2 L16,4 L19,7 L2,7 L-2,5 L-2,2 L0,2 Z " fill="#282B2F" transform="translate(104,11)"/>
<path d="M0,0 L25,0 L25,2 L4,5 L-2,4 L-2,2 L-4,1 Z " fill="#12141C" transform="translate(67,0)"/>
<path d="M0,0 L7,2 L5,4 L15,6 L17,6 L16,9 L2,8 L5,14 L-5,14 L-5,13 L1,11 L-5,9 L-7,7 L-1,8 L1,9 L2,2 L-1,1 Z " fill="#27323E" transform="translate(58,66)"/>
<path d="M0,0 L10,0 L10,4 L5,5 L11,8 L11,11 L3,11 L3,7 L-1,7 L-1,3 L0,2 Z " fill="#35414C" transform="translate(35,73)"/>
<path d="M0,0 L1,3 L3,7 L1,7 L0,9 L0,7 L-14,8 L-14,6 L-12,6 L-13,2 Z " fill="#637084" transform="translate(104,75)"/>
<path d="M0,0 L10,0 L10,2 L4,2 L4,4 L2,4 L1,6 L-4,8 L-1,9 L0,7 L3,9 L0,12 L-2,12 L-2,10 L-6,10 L-6,12 L-13,11 L-10,9 L-8,3 L-6,3 L-6,5 L-2,4 Z " fill="#3E424F" transform="translate(36,15)"/>
<path d="M0,0 L2,0 L2,2 L5,3 L4,6 L2,6 L2,8 L0,9 L2,10 L2,12 L7,12 L8,16 L10,17 L10,19 L6,18 L6,14 L4,14 L4,16 L0,18 L0,13 L-3,12 L-2,10 L-5,10 L-5,8 L0,7 Z " fill="#4A4F56" transform="translate(32,25)"/>
<path d="M0,0 L3,1 L2,7 L7,7 L9,1 L10,1 L10,14 L5,13 L-1,11 L-1,9 L1,9 L-2,4 L0,4 Z " fill="#2A2A32" transform="translate(51,51)"/>
<path d="M0,0 L2,0 L2,4 L6,4 L6,6 L9,6 L9,9 L11,11 L6,12 L1,11 L-1,6 L0,3 L-4,5 L-4,2 Z " fill="#020304" transform="translate(63,2)"/>
<path d="M0,0 L3,0 L3,3 L10,3 L14,7 L10,7 L10,9 L0,9 Z " fill="#3C4753" transform="translate(0,75)"/>
<path d="M0,0 L1,4 L7,3 L7,8 L-11,8 L-10,6 L-8,6 L-8,4 L-5,4 L-4,2 L0,3 Z " fill="#3F555F" transform="translate(128,76)"/>
<path d="M0,0 L2,0 L2,11 L-5,15 L-15,15 L-14,12 L-6,12 L-6,10 L-3,9 L-2,5 L0,5 Z " fill="#292B31" transform="translate(135,50)"/>
<path d="M0,0 L2,0 L2,3 L5,3 L6,7 L4,7 L4,10 L6,11 L1,13 L-4,12 L-4,10 L-7,9 L-4,7 L0,7 Z " fill="#07090D" transform="translate(38,25)"/>
<path d="M0,0 L2,0 L1,5 L-7,11 L-10,11 L-10,3 Z " fill="#11161E" transform="translate(10,3)"/>
<path d="M0,0 L7,1 L7,3 L14,5 L14,6 L6,6 L0,5 L-1,8 L-9,10 L-10,6 L-9,4 L-1,5 Z " fill="#302D3A" transform="translate(114,67)"/>
<path d="M0,0 L4,1 L0,2 L1,7 L5,6 L5,8 L7,8 L8,14 L2,13 L-3,8 L-2,7 L-4,5 Z " fill="#76828F" transform="translate(26,60)"/>
<path d="M0,0 L4,1 L5,6 L0,5 L-3,5 L-3,8 L-5,8 L-5,12 L-11,12 L-11,7 L-4,3 Z " fill="#8F9AA6" transform="translate(11,7)"/>
<path d="M0,0 L4,1 L4,3 L9,4 L10,10 L2,10 L2,8 L0,8 L-1,1 Z " fill="#88949E" transform="translate(66,74)"/>
<path d="M0,0 L1,2 L0,4 L2,5 L1,6 L-5,6 L-5,10 L-13,10 L-13,8 L-6,8 L-6,6 L-12,5 L-12,2 L-6,1 L-4,2 Z " fill="#394450" transform="translate(20,10)"/>
<path d="M0,0 L8,0 L8,2 L5,3 L8,4 L8,7 L4,7 L4,4 L-2,6 L-9,6 L-11,4 L-6,4 L-6,2 Z " fill="#07090C" transform="translate(52,13)"/>
<path d="M0,0 L5,0 L5,4 L2,7 L-8,7 L-8,1 L0,2 Z " fill="#080E17" transform="translate(8,23)"/>
<path d="M0,0 L8,1 L8,5 L12,5 L12,9 L1,9 L2,6 L4,7 L4,5 L2,4 Z " fill="#6A7582" transform="translate(26,75)"/>
<path d="M0,0 L2,1 L1,3 L8,2 L8,4 L11,4 L11,8 L9,8 L9,10 L7,10 L4,5 L2,4 L2,6 L-10,6 L-10,3 L-7,3 L-7,5 L-2,5 Z " fill="#333C43" transform="translate(139,63)"/>
<path d="M0,0 L3,0 L4,5 L2,5 L4,10 L-1,10 L-1,7 L-14,6 L-14,4 L-6,5 L-4,6 L-4,3 L-2,3 L-1,1 Z " fill="#1B171E" transform="translate(37,48)"/>
<path d="M0,0 L6,1 L6,5 L11,2 L11,5 L9,5 L7,12 L5,12 L5,6 L3,10 L-1,6 L-1,1 Z " fill="#0B0A0D" transform="translate(48,46)"/>
<path d="M0,0 L7,1 L8,5 L7,8 L10,8 L11,11 L8,11 L8,9 L3,9 L0,6 L2,5 L-8,4 L-8,3 L-1,3 Z " fill="#46474B" transform="translate(89,38)"/>
<path d="M0,0 L20,0 L19,2 L14,2 L13,6 L9,5 L9,2 L5,2 L5,4 L0,4 Z " fill="#152327" transform="translate(15,0)"/>
<path d="M0,0 L5,2 L5,4 L2,4 L2,6 L6,7 L7,10 L-3,9 L-3,6 L-4,2 Z " fill="#0C1017" transform="translate(64,59)"/>
<path d="M0,0 L2,0 L1,4 L0,6 L-3,6 L-2,14 L-1,16 L-5,17 L-6,19 L-11,18 L-9,15 L-6,15 L-6,8 Z " fill="#030307" transform="translate(143,46)"/>
<path d="M0,0 L3,1 L3,3 L7,3 L6,6 L10,8 L10,6 L12,6 L12,9 L4,11 L-3,11 L0,8 L2,2 L0,2 Z " fill="#60646D" transform="translate(20,19)"/>
<path d="M0,0 L3,0 L3,2 L14,2 L14,7 L4,8 L0,3 Z " fill="#1E2128" transform="translate(136,7)"/>
<path d="M0,0 L2,0 L2,2 L7,0 L15,1 L11,2 L11,4 L9,5 L13,9 L3,7 L3,4 L0,4 Z " fill="#636F81" transform="translate(0,71)"/>
<path d="M0,0 L7,2 L8,4 L2,5 L2,7 L-1,9 L-5,8 L-4,6 L-8,5 L-1,2 Z " fill="#899CA8" transform="translate(118,75)"/>
<path d="M0,0 L2,0 L2,2 L9,2 L10,7 L8,7 L9,10 L6,10 L6,8 L3,8 L3,6 L-2,6 L-2,4 L0,2 Z " fill="#1B1E23" transform="translate(127,9)"/>
<path d="M0,0 L2,0 L1,7 L-2,10 L-6,10 L-7,3 L-2,2 Z " fill="#11161A" transform="translate(121,0)"/>
<path d="M0,0 L3,0 L4,2 L6,2 L9,12 L2,10 L2,5 L-2,4 L-1,1 Z " fill="#44474C" transform="translate(24,42)"/>
<path d="M0,0 L3,1 L4,7 L0,6 L2,6 L2,4 L-2,4 L-2,10 L-11,9 L-11,7 L-5,6 L-6,3 L-5,1 L0,2 Z " fill="#222D3A" transform="translate(26,9)"/>
<path d="M0,0 L2,1 L2,7 L-8,7 L-8,2 Z " fill="#82919F" transform="translate(148,76)"/>
<path d="M0,0 L3,1 L3,4 L5,4 L5,7 L7,7 L7,9 L11,10 L14,11 L14,13 L7,12 L3,11 L1,5 Z " fill="#8390A0" transform="translate(68,53)"/>
<path d="M0,0 L3,2 L2,5 L0,5 L0,8 L-2,8 L-2,15 L-6,14 L-4,14 L-4,8 L-5,7 L-10,7 L-6,4 L-3,4 L-2,1 L0,2 Z " fill="#1C1E2B" transform="translate(40,17)"/>
<path d="M0,0 L2,1 L-1,6 L5,6 L6,10 L-2,10 L-3,5 L-8,6 L-7,4 L-3,4 L-3,2 Z " fill="#2B363F" transform="translate(97,63)"/>
<path d="M0,0 L4,1 L2,4 L-1,4 L-1,6 L2,7 L-4,7 L-6,5 L-3,2 L-8,3 L-7,5 L-8,8 L-12,7 L-10,1 Z " fill="#313330" transform="translate(77,39)"/>
<path d="M0,0 L2,0 L2,3 L7,2 L9,4 L8,8 L6,9 L6,7 L-2,9 L-2,7 L1,7 L0,4 L-2,3 L-2,1 Z " fill="#2B2F36" transform="translate(137,36)"/>
<path d="M0,0 L2,1 L2,3 L9,4 L17,7 L17,8 L9,8 L4,6 L2,8 L0,5 L-3,4 L-3,2 L0,2 Z " fill="#434E59" transform="translate(69,61)"/>
<path d="M0,0 L8,0 L4,4 L8,5 L8,7 L1,7 L0,3 L-4,2 Z " fill="#313237" transform="translate(60,14)"/>
<path d="M0,0 L3,1 L5,10 L-1,9 L-2,2 Z " fill="#18222F" transform="translate(74,51)"/>
<path d="M0,0 L2,0 L3,7 L4,10 L-1,9 L-5,10 L-4,5 Z " fill="#5B646F" transform="translate(65,51)"/>
<path d="M0,0 L1,3 L5,4 L5,6 L-1,10 L-2,12 L-5,12 L-5,7 L0,7 L0,5 L-5,4 L-5,3 L0,3 Z " fill="#111A20" transform="translate(36,3)"/>
<path d="M0,0 L3,1 L3,3 L6,3 L7,0 L7,4 L2,4 L3,8 L0,10 L-3,10 L-4,4 L0,4 Z " fill="#78828D" transform="translate(100,53)"/>
<path d="M0,0 L22,0 L22,1 L9,2 L10,6 L8,5 L8,3 L0,4 Z " fill="#1C2632" transform="translate(82,75)"/>
<path d="M0,0 L3,0 L3,2 L10,2 L8,3 L7,5 L4,5 L4,3 L-1,4 L-2,3 L-4,7 L-10,7 L-6,5 L-5,1 Z " fill="#413D48" transform="translate(117,65)"/>
<path d="M0,0 L8,0 L6,5 L10,4 L11,7 L7,10 L4,10 L3,7 L5,7 L2,2 Z " fill="#2E2C32" transform="translate(92,36)"/>
<path d="M0,0 L2,1 L1,3 L3,2 L15,2 L15,4 L-3,4 L-6,1 Z " fill="#404F61" transform="translate(89,80)"/>
<path d="M0,0 L3,1 L5,6 L5,11 L2,12 L2,10 L0,10 Z " fill="#1C263A" transform="translate(0,61)"/>
<path d="M0,0 L3,0 L4,2 L9,5 L9,8 L2,8 L0,4 Z " fill="#7D889B" transform="translate(4,60)"/>
<path d="M0,0 L3,1 L2,6 L4,6 L4,9 L8,8 L7,11 L3,13 L-1,12 L1,8 L-3,8 L-4,10 L-4,7 L1,7 Z " fill="#394044" transform="translate(106,50)"/>
<path d="M0,0 L4,0 L4,5 L-5,5 L-6,8 L-8,4 Z " fill="#53474A" transform="translate(56,21)"/>
<path d="M0,0 L4,0 L4,7 L3,8 L-2,8 L-3,3 Z " fill="#566471" transform="translate(20,2)"/>
<path d="M0,0 L3,0 L3,7 L0,7 L0,5 L-7,6 L-6,3 L-2,3 L-2,1 Z " fill="#464E59" transform="translate(147,60)"/>
<path d="M0,0 L13,1 L16,4 L13,4 L12,7 L8,6 L11,5 L10,4 L0,2 Z " fill="#797E83" transform="translate(76,43)"/>
<path d="M0,0 L8,2 L8,4 L6,4 L5,10 L1,8 L-3,7 L-3,5 L5,5 L5,3 L0,2 Z " fill="#657381" transform="translate(123,69)"/>
<path d="M0,0 L7,0 L6,4 L4,4 L3,8 L0,8 L0,4 L-3,3 L-3,1 Z " fill="#838EA0" transform="translate(50,64)"/>
<path d="M0,0 L10,1 L12,5 L16,6 L8,6 L7,4 L9,4 L9,2 L4,2 L4,7 L-4,5 L-4,4 L3,4 L3,1 Z " fill="#3D4752" transform="translate(26,54)"/>
<path d="M0,0 L5,0 L5,2 L2,4 L-5,4 L-6,6 L-10,5 L-8,4 L-8,1 Z " fill="#333236" transform="translate(50,18)"/>
<path d="M0,0 L3,2 L1,2 L2,5 L-9,5 L-9,2 Z " fill="#22242A" transform="translate(90,10)"/>
<path d="M0,0 L5,1 L3,3 L5,4 L5,6 L0,6 L0,11 L-2,8 L-5,5 L-5,7 L-7,6 L-6,4 L-1,4 Z " fill="#3A4A52" transform="translate(31,4)"/>
<path d="M0,0 L1,2 L7,1 L7,4 L2,4 L2,6 L5,6 L5,10 L2,10 L0,4 L-4,3 L-4,1 Z " fill="#54616E" transform="translate(74,74)"/>
<path d="M0,0 L4,1 L5,6 L-4,9 L-4,7 L-2,7 L-2,4 L0,4 Z " fill="#161013" transform="translate(58,27)"/>
<path d="M0,0 L4,0 L4,2 L6,3 L6,5 L4,5 L3,9 L-1,9 L-2,6 L0,6 Z " fill="#4F525D" transform="translate(24,13)"/>
<path d="M0,0 L2,0 L2,7 L0,7 L0,9 L-6,8 L-8,6 L-4,6 L-4,4 L0,4 Z " fill="#9FABBA" transform="translate(15,69)"/>
<path d="M0,0 L5,0 L11,3 L10,6 L4,4 L-3,4 L-4,1 Z " fill="#3A4753" transform="translate(38,66)"/>
<path d="M0,0 L1,0 L3,8 L7,9 L7,11 L1,12 L1,10 L-3,10 L-2,8 L-2,6 L-2,4 L0,4 Z " fill="#27292F" transform="translate(41,49)"/>
<path d="M0,0 L7,0 L8,0 L11,2 L9,2 L9,4 L11,5 L6,6 L0,3 Z " fill="#141C2D" transform="translate(8,60)"/>
<path d="M0,0 L3,0 L3,4 L1,5 L-9,5 L-8,2 L0,2 Z " fill="#3D3A42" transform="translate(129,60)"/>
<path d="M0,0 L3,1 L2,4 L-3,5 L-3,7 L0,8 L-6,10 L-4,4 L-1,4 L-1,2 L-6,4 L-9,4 L-9,2 Z " fill="#222C37" transform="translate(30,28)"/>
<path d="M0,0 L5,0 L6,4 L8,5 L7,7 L-1,7 L3,6 L2,4 L-1,3 Z " fill="#0C1014" transform="translate(65,15)"/>
<path d="M0,0 L7,1 L12,4 L12,6 L15,7 L9,7 L3,3 L0,2 Z " fill="#74808E" transform="translate(42,71)"/>
<path d="M0,0 L5,2 L3,6 L0,6 L0,3 L-4,4 L-4,6 L-6,6 L-6,1 Z " fill="#14171C" transform="translate(139,33)"/>
<path d="M0,0 L2,0 L2,2 L5,3 L4,6 L2,6 L2,8 L-1,10 L-5,10 L-5,8 L0,7 Z " fill="#394251" transform="translate(32,25)"/>
<path d="M0,0 L8,1 L10,2 L10,5 L2,5 L2,1 Z " fill="#1B2631" transform="translate(36,79)"/>
<path d="M0,0 L2,0 L3,2 L7,3 L7,5 L-1,5 L-1,8 L-4,8 L-3,4 L-1,3 Z " fill="#8491A0" transform="translate(133,72)"/>
<path d="M0,0 L2,0 L2,2 L4,2 L3,6 L2,3 L0,3 L0,7 L-4,8 L-4,2 L0,2 Z " fill="#8994A2" transform="translate(30,60)"/>
<path d="M0,0 L4,0 L3,5 L-4,6 L-7,6 L-7,4 L-2,2 Z " fill="#171516" transform="translate(62,35)"/>
<path d="M0,0 L7,0 L6,3 L2,4 L3,6 L-2,6 L-2,2 L0,2 Z " fill="#68727A" transform="translate(83,78)"/>
<path d="M0,0 L9,1 L11,3 L5,2 L5,4 L-2,4 L-2,1 Z " fill="#4C5966" transform="translate(37,69)"/>
<path d="M0,0 L4,2 L6,6 L3,6 L0,3 L0,7 L-4,7 L-4,2 L0,2 Z " fill="#575A5E" transform="translate(100,50)"/>
<path d="M0,0 L7,1 L7,4 L-8,4 L-8,3 L-1,3 Z " fill="#4D5050" transform="translate(89,38)"/>
<path d="M0,0 L5,0 L5,2 L10,1 L9,5 L5,6 L5,4 L0,2 Z " fill="#010102" transform="translate(49,34)"/>
<path d="M0,0 L3,1 L4,5 L2,6 L-6,6 L-11,5 L-11,4 L1,4 Z " fill="#7B8491" transform="translate(102,69)"/>
<path d="M0,0 L4,1 L0,2 L1,12 L-3,8 L-2,7 L-4,5 Z " fill="#5E6974" transform="translate(26,60)"/>
<path d="M0,0 L2,1 L3,5 L10,7 L10,8 L5,8 L5,11 L2,10 L1,5 L-1,5 Z " fill="#C4D3DE" transform="translate(80,52)"/>
<path d="M0,0 L5,0 L5,5 L2,7 L-1,7 Z " fill="#010408" transform="translate(123,0)"/>
<path d="M0,0 L16,0 L14,2 L4,3 L-1,2 Z " fill="#030508" transform="translate(46,0)"/>
<path d="M0,0 L9,1 L5,2 L5,4 L3,6 L-2,6 Z " fill="#727F92" transform="translate(6,71)"/>
<path d="M0,0 L4,1 L7,3 L7,5 L2,6 L2,4 L-2,4 Z " fill="#212B39" transform="translate(22,70)"/>
<path d="M0,0 L3,0 L4,5 L2,5 L2,7 L-3,6 L-1,5 L-1,3 L-3,3 L-3,1 Z " fill="#576373" transform="translate(57,68)"/>
<path d="M0,0 L5,0 L5,4 L-2,6 L-3,2 L0,2 Z " fill="#01030B" transform="translate(8,23)"/>
<path d="M0,0 L14,1 L14,3 L3,3 L0,2 Z " fill="#95A3B0" transform="translate(49,81)"/>
<path d="M0,0 L2,0 L3,5 L-6,4 L-6,2 Z " fill="#0D171C" transform="translate(92,68)"/>
<path d="M0,0 L8,0 L8,2 L11,2 L11,5 L7,5 L8,8 L6,10 L6,2 L0,1 Z " fill="#858A91" transform="translate(89,47)"/>
<path d="M0,0 L1,2 L4,2 L4,4 L11,5 L8,6 L8,8 L4,7 L4,5 L2,5 L2,3 L-1,3 Z " fill="#030508" transform="translate(129,15)"/>
<path d="M0,0 L9,2 L9,3 L4,4 L-3,4 L-7,1 L0,1 Z " fill="#414C56" transform="translate(87,72)"/>
<path d="M0,0 L7,1 L6,5 L2,6 L1,4 L-3,3 L-3,1 Z " fill="#0E0710" transform="translate(123,64)"/>
<path d="M0,0 L13,0 L11,1 L11,3 L5,5 L5,3 L1,2 Z " fill="#4E666D" transform="translate(83,64)"/>
<path d="M0,0 L4,0 L4,2 L6,3 L4,7 L3,4 L1,3 L3,8 L3,11 L0,8 Z " fill="#707B8A" transform="translate(67,50)"/>
<path d="M0,0 L9,0 L10,3 L0,3 Z " fill="#74808C" transform="translate(0,31)"/>
<path d="M0,0 L11,0 L11,2 L4,4 L3,6 L3,3 L0,3 Z " fill="#1B1718" transform="translate(44,21)"/>
<path d="M0,0 L5,0 L1,1 L1,3 L-4,4 L-6,3 L-6,5 L-10,5 L-10,2 Z " fill="#43484F" transform="translate(62,0)"/>
<path d="M0,0 L3,0 L2,7 L5,8 L5,10 L2,10 L2,8 L0,8 L-1,1 Z " fill="#A0ADB9" transform="translate(66,74)"/>
<path d="M0,0 L13,1 L13,2 L3,3 L3,5 L0,5 Z " fill="#505765" transform="translate(115,72)"/>
<path d="M0,0 L1,2 L5,2 L6,0 L8,3 L11,5 L1,4 L-2,4 L-4,2 Z " fill="#616E7E" transform="translate(37,63)"/>
<path d="M0,0 L1,2 L4,2 L4,4 L-2,5 L-2,7 L-5,8 L-3,3 Z " fill="#040508" transform="translate(114,52)"/>
<path d="M0,0 L2,1 L2,3 L6,4 L6,6 L-2,6 L-3,3 L0,3 Z " fill="#828D99" transform="translate(19,45)"/>
<path d="M0,0 L6,1 L6,3 L-7,4 L-6,2 Z " fill="#3F3C40" transform="translate(82,33)"/>
<path d="M0,0 L7,0 L7,4 L0,4 Z " fill="#42454A" transform="translate(143,9)"/>
<path d="M0,0 L5,0 L5,5 L0,6 Z " fill="#323D49" transform="translate(0,0)"/>
<path d="M0,0 L2,0 L2,2 L7,2 L4,5 L-2,4 L-2,2 L-4,1 Z " fill="#22292F" transform="translate(67,0)"/>
<path d="M0,0 L2,0 L2,2 L5,2 L5,6 L3,6 L3,8 L1,8 Z " fill="#2A3A44" transform="translate(145,65)"/>
<path d="M0,0 L5,0 L7,4 L-3,3 L0,2 Z " fill="#0D1119" transform="translate(64,65)"/>
<path d="M0,0 L6,0 L7,2 L2,4 L-5,3 L-4,1 Z " fill="#1F1E21" transform="translate(79,30)"/>
<path d="M0,0 L3,0 L4,5 L2,5 L3,8 L0,8 L0,6 L-3,6 L-2,4 Z " fill="#15181D" transform="translate(133,11)"/>
<path d="M0,0 L3,0 L3,9 L0,9 Z " fill="#1B1E23" transform="translate(147,0)"/>
<path d="M0,0 L1,0 L2,7 L-3,6 L-7,5 L-7,3 L-2,4 L-2,2 L0,2 Z " fill="#2C303B" transform="translate(59,58)"/>
<path d="M0,0 L8,0 L12,3 L9,3 L9,5 L5,5 L4,1 Z " fill="#8994A2" transform="translate(33,60)"/>
<path d="M0,0 L1,0 L1,5 L-1,8 L-3,8 L-3,10 L-6,10 L-5,6 L-2,6 Z " fill="#12131C" transform="translate(60,52)"/>
<path d="M0,0 L4,1 L2,5 L-3,6 L-3,2 Z " fill="#03070D" transform="translate(20,58)"/>
<path d="M0,0 L1,0 L1,5 L1,7 L2,12 L0,12 L0,9 L-3,8 L-1,2 Z " fill="#9BA5B2" transform="translate(94,51)"/>
<path d="M0,0 L3,1 L3,4 L1,4 L1,7 L-1,7 L-2,2 L-4,1 Z " fill="#262527" transform="translate(101,43)"/>
<path d="M0,0 L3,0 L5,5 L1,6 L-1,5 L-2,8 L-2,3 L0,1 Z " fill="#28242D" transform="translate(29,39)"/>
<path d="M0,0 L4,0 L4,8 L2,5 L-2,3 L-2,1 Z " fill="#52565D" transform="translate(146,29)"/>
<path d="M0,0 L11,1 L11,3 L2,3 L0,2 Z " fill="#5C6067" transform="translate(102,14)"/>
<path d="M0,0 L1,2 L0,8 L-3,8 L-3,5 L-6,4 Z " fill="#44484D" transform="translate(42,7)"/>
<path d="M0,0 L9,2 L7,3 L7,5 L3,5 L3,3 L0,3 Z " fill="#1A1C23" transform="translate(91,7)"/>
<path d="M0,0 L7,0 L6,4 L0,4 Z " fill="#030507" transform="translate(37,2)"/>
<path d="M0,0 L3,0 L3,2 L9,3 L10,1 L10,4 L0,4 Z " fill="#A1AEBC" transform="translate(140,79)"/>
<path d="M0,0 L2,0 L2,5 L-7,5 L-6,3 L-1,3 Z " fill="#01030D" transform="translate(133,79)"/>
<path d="M0,0 L2,0 L3,5 L-4,5 L-5,3 L0,2 Z " fill="#63717D" transform="translate(22,77)"/>
<path d="M0,0 L2,1 L-2,7 L1,7 L0,9 L-3,8 L-3,5 L-8,6 L-7,4 L-3,4 L-3,2 Z " fill="#45515A" transform="translate(97,63)"/>
<path d="M0,0 L2,0 L2,3 L5,3 L6,6 L2,7 L1,9 L0,8 Z " fill="#515356" transform="translate(43,49)"/>
<path d="M0,0 L3,0 L1,6 L-3,6 L-4,3 L0,2 Z " fill="#05070A" transform="translate(34,42)"/>
<path d="M0,0 L7,1 L7,4 L0,5 Z " fill="#2E2E38" transform="translate(40,23)"/>
<path d="M0,0 L12,1 L12,3 L10,3 L10,5 L4,4 L4,2 L0,2 Z " fill="#14171C" transform="translate(65,4)"/>
<path d="M0,0 L3,4 L1,4 L0,6 L0,4 L-9,4 L-6,2 L0,2 Z " fill="#98A7BA" transform="translate(104,78)"/>
<path d="M0,0 L8,1 L7,5 L4,5 L2,4 Z " fill="#616D7B" transform="translate(26,75)"/>
<path d="M0,0 L6,2 L8,6 L4,5 L1,4 Z " fill="#75787E" transform="translate(44,54)"/>
<path d="M0,0 L9,0 L9,4 L4,4 L4,2 L0,1 Z " fill="#070D13" transform="translate(15,33)"/>
<path d="M0,0 L2,1 L2,3 L9,3 L9,5 L4,5 L3,7 L1,6 Z " fill="#160F13" transform="translate(45,29)"/>
<path d="M0,0 L3,0 L3,2 L1,2 L0,7 L-4,8 L-3,3 L-1,3 Z " fill="#727C85" transform="translate(16,22)"/>
<path d="M0,0 L2,0 L2,3 L7,3 L4,6 L-1,4 Z " fill="#09080B" transform="translate(43,8)"/>
<path d="M0,0 L4,0 L4,6 L0,6 Z " fill="#000103" transform="translate(139,0)"/>
<path d="M0,0 L1,4 L4,4 L4,6 L-3,7 L-4,3 L0,3 Z " fill="#55606F" transform="translate(128,76)"/>
<path d="M0,0 L4,0 L3,4 L6,6 L0,6 Z " fill="#141E23" transform="translate(103,58)"/>
<path d="M0,0 L2,0 L2,9 L-5,8 L-2,6 Z " fill="#292F39" transform="translate(28,18)"/>
<path d="M0,0 L6,0 L6,4 L0,3 Z " fill="#83909E" transform="translate(0,21)"/>
<path d="M0,0 L1,3 L-2,7 L-5,7 L-5,2 L0,2 Z " fill="#1F2D32" transform="translate(36,8)"/>
<path d="M0,0 L4,1 L5,6 L-3,3 Z " fill="#767A80" transform="translate(11,7)"/>
<path d="M0,0 L3,0 L3,3 L13,3 L13,4 L0,4 Z " fill="#7F8893" transform="translate(137,80)"/>
<path d="M0,0 L2,1 L2,7 L-2,7 L-2,5 L-4,4 L-1,3 Z " fill="#374355" transform="translate(13,65)"/>
<path d="M0,0 L5,1 L8,3 L7,6 L2,5 Z " fill="#484649" transform="translate(103,43)"/>
<path d="M0,0 L4,0 L4,3 L12,4 L8,5 L-2,4 L-2,3 L3,3 L3,1 Z " fill="#28272B" transform="translate(52,17)"/>
<path d="M0,0 L7,0 L8,3 L1,3 Z " fill="#5C5F65" transform="translate(60,18)"/>
<path d="M0,0 L2,0 L2,3 L-7,3 L-9,1 Z " fill="#16191D" transform="translate(92,14)"/>
<path d="M0,0 L2,0 L2,5 L0,6 L-4,4 L-4,2 L0,2 Z " fill="#8794A0" transform="translate(21,3)"/>
<path d="M0,0 L8,2 L12,5 L4,5 L3,2 L0,2 Z " fill="#5E6B74" transform="translate(74,64)"/>
<path d="M0,0 L5,1 L1,3 L0,5 L-5,4 L-3,1 Z " fill="#0A0E16" transform="translate(137,60)"/>
<path d="M0,0 L4,2 L4,4 L6,5 L0,6 Z " fill="#101620" transform="translate(0,54)"/>
<path d="M0,0 L4,0 L4,2 L9,2 L11,5 L7,7 L7,4 L0,1 Z " fill="#1D2833" transform="translate(11,53)"/>
<path d="M0,0 L5,0 L5,2 L3,2 L5,7 L2,6 L0,3 Z " fill="#060404" transform="translate(36,51)"/>
<path d="M0,0 L2,0 L1,5 L-3,7 L-3,3 Z " fill="#353536" transform="translate(57,44)"/>
<path d="M0,0 L2,0 L2,8 L-2,9 L-2,7 L1,7 L0,4 L-2,3 L-2,1 Z " fill="#1D1F24" transform="translate(137,36)"/>
<path d="M0,0 L2,0 L2,2 L5,2 L5,0 L10,2 L10,3 L3,4 L0,3 Z " fill="#5B5D63" transform="translate(135,25)"/>
<path d="M0,0 L2,0 L2,3 L0,4 L-6,4 L-5,1 L0,2 Z " fill="#6C7580" transform="translate(30,25)"/>
<path d="M0,0 L6,0 L8,1 L8,4 L3,4 L3,1 Z " fill="#1A1C23" transform="translate(82,7)"/>
<path d="M0,0 L10,0 L10,3 L0,1 Z " fill="#3C3D43" transform="translate(91,6)"/>
<path d="M0,0 L7,2 L8,4 L0,4 Z " fill="#202932" transform="translate(15,80)"/>
<path d="M0,0 L4,1 L5,4 L-1,6 L-1,4 L1,4 Z " fill="#7C889B" transform="translate(91,77)"/>
<path d="M0,0 L7,0 L7,2 L4,2 L4,6 L2,6 L2,1 Z " fill="#3E4954" transform="translate(133,78)"/>
<path d="M0,0 L8,0 L9,3 L3,3 L3,1 Z " fill="#080D15" transform="translate(35,73)"/>
<path d="M0,0 L1,4 L2,11 L-4,9 L0,8 L-1,1 Z " fill="#485862" transform="translate(79,53)"/>
<path d="M0,0 L2,0 L2,3 L5,4 L6,7 L2,7 L2,4 L-1,3 Z " fill="#364352" transform="translate(13,48)"/>
<path d="M0,0 L5,0 L2,2 L3,4 L2,7 L-2,6 Z " fill="#4B4C4B" transform="translate(67,40)"/>
<path d="M0,0 L4,0 L4,2 L6,2 L6,6 L2,4 L3,2 L0,2 Z " fill="#5F6973" transform="translate(15,36)"/>
<path d="M0,0 L4,0 L4,5 L0,5 Z " fill="#858B98" transform="translate(30,15)"/>
<path d="M0,0 L5,0 L6,3 L1,4 Z " fill="#303439" transform="translate(114,4)"/>
<path d="M0,0 L5,0 L5,4 L0,4 Z " fill="#040609" transform="translate(15,0)"/>
<path d="M0,0 L6,2 L7,4 L0,4 Z " fill="#040709" transform="translate(0,78)"/>
<path d="M0,0 L3,1 L2,4 L-8,3 L-8,2 L0,2 Z " fill="#88909A" transform="translate(141,67)"/>
<path d="M0,0 L7,1 L7,3 L9,4 L0,4 Z " fill="#0C0509" transform="translate(114,67)"/>
<path d="M0,0 L2,0 L2,2 L4,3 L1,3 L1,5 L-3,3 L-3,1 Z " fill="#505D6B" transform="translate(46,62)"/>
<path d="M0,0 L5,1 L4,4 L2,4 L2,6 L-1,5 Z " fill="#535E6A" transform="translate(14,56)"/>
<path d="M0,0 L3,1 L3,3 L6,3 L7,0 L7,4 L1,5 Z " fill="#65696F" transform="translate(100,53)"/>
<path d="M0,0 L7,0 L6,2 L3,2 L2,5 L1,2 L-1,1 Z " fill="#3A3F48" transform="translate(81,47)"/>
<path d="M0,0 L3,1 L2,5 L0,5 L0,3 L-4,3 L-4,1 Z " fill="#393C41" transform="translate(137,22)"/>
<path d="M0,0 L7,2 L3,3 L2,5 L-2,4 L0,3 Z " fill="#54555C" transform="translate(42,19)"/>
<path d="M0,0 L2,2 L1,4 L-1,4 L-1,2 L-4,2 L-5,4 L-8,3 L-7,1 Z " fill="#25303E" transform="translate(14,21)"/>
<path d="M0,0 L5,1 L5,5 L2,5 L2,3 L0,3 Z " fill="#505459" transform="translate(141,19)"/>
<path d="M0,0 L10,0 L10,2 L4,2 L4,4 L0,3 Z " fill="#2F2F38" transform="translate(36,15)"/>
<path d="M0,0 L6,1 L4,3 L-3,3 L-5,1 Z " fill="#121218" transform="translate(46,16)"/>
<path d="M0,0 L4,0 L4,2 L6,4 L0,6 Z " fill="#3C4653" transform="translate(24,13)"/>
<path d="M0,0 L5,0 L5,6 L3,6 L3,2 L0,2 Z " fill="#313235" transform="translate(76,78)"/>
<path d="M0,0 L2,4 L-2,5 L-3,2 L-5,1 Z " fill="#46566F" transform="translate(98,76)"/>
<path d="M0,0 L1,2 L6,3 L5,5 L0,4 L-1,6 Z " fill="#7A8693" transform="translate(69,75)"/>
<path d="M0,0 L7,0 L6,3 L1,4 Z " fill="#121319" transform="translate(104,73)"/>
<path d="M0,0 L7,1 L8,4 L3,3 L0,2 Z " fill="#919CA9" transform="translate(42,71)"/>
<path d="M0,0 L5,0 L5,4 L1,4 Z " fill="#838F9D" transform="translate(29,70)"/>
<path d="M0,0 L3,0 L3,2 L12,2 L12,3 L0,3 Z " fill="#3E4452" transform="translate(129,66)"/>
<path d="M0,0 L2,0 L2,6 L-1,6 L-2,2 L0,2 Z " fill="#4A5966" transform="translate(148,61)"/>
<path d="M0,0 L2,0 L2,3 L4,4 L-4,5 Z " fill="#252D34" transform="translate(101,61)"/>
<path d="M0,0 L3,0 L3,4 L-4,4 L0,2 Z " fill="#50515B" transform="translate(129,60)"/>
<path d="M0,0 L5,1 L4,5 L0,4 Z " fill="#030405" transform="translate(48,46)"/>
<path d="M0,0 L4,0 L5,3 L0,5 Z " fill="#03070E" transform="translate(43,40)"/>
<path d="M0,0 L6,0 L6,3 L0,3 Z " fill="#3F4146" transform="translate(81,12)"/>
<path d="M0,0 L5,1 L4,4 L0,5 L0,3 L-2,2 Z " fill="#27272C" transform="translate(56,9)"/>
<path d="M0,0 L5,0 L6,5 L2,4 Z " fill="#333438" transform="translate(47,2)"/>
<path d="M0,0 L5,0 L4,3 L2,3 L2,5 L0,5 Z " fill="#6F757A" transform="translate(5,0)"/>
<path d="M0,0 L2,0 L4,4 L-6,4 L-6,3 L0,1 Z " fill="#3C4956" transform="translate(59,76)"/>
<path d="M0,0 L3,0 L3,3 L10,3 L10,4 L2,4 L0,3 Z " fill="#4B5660" transform="translate(0,75)"/>
<path d="M0,0 L3,0 L3,3 L-3,4 L-4,1 Z " fill="#090F1E" transform="translate(38,66)"/>
<path d="M0,0 L5,0 L2,3 L-4,3 L-3,1 Z " fill="#071014" transform="translate(100,66)"/>
<path d="M0,0 L5,2 L5,4 L-1,3 L-2,1 Z " fill="#262C33" transform="translate(64,59)"/>
<path d="M0,0 L6,1 L6,4 L-1,4 L2,2 Z " fill="#5B6C7D" transform="translate(23,54)"/>
<path d="M0,0 L2,0 L2,6 L-1,6 L-1,1 Z " fill="#2A333F" transform="translate(65,51)"/>
<path d="M0,0 L7,0 L7,2 L2,2 L1,4 Z " fill="#5B6674" transform="translate(0,51)"/>
<path d="M0,0 L2,4 L3,6 L-4,5 L-4,3 Z " fill="#030305" transform="translate(102,36)"/>
<path d="M0,0 L3,1 L1,1 L0,7 L-3,6 L-3,3 Z " fill="#1D2932" transform="translate(16,28)"/>
<path d="M0,0 L4,0 L4,3 L-1,4 L-4,2 L0,2 Z " fill="#0F1117" transform="translate(146,26)"/>
<path d="M0,0 L5,0 L5,3 L-1,3 Z " fill="#030406" transform="translate(65,15)"/>
<path d="M0,0 L6,0 L5,3 L0,2 Z " fill="#8192A0" transform="translate(84,78)"/>
<path d="M0,0 L5,1 L4,4 L0,3 Z " fill="#7A8794" transform="translate(141,72)"/>
<path d="M0,0 L3,1 L1,1 L3,5 L-2,5 L-2,2 L0,2 Z " fill="#283234" transform="translate(85,69)"/>
<path d="M0,0 L6,0 L5,3 L1,4 Z " fill="#475365" transform="translate(6,68)"/>
<path d="M0,0 L1,4 L-3,5 L-3,3 L-5,2 Z " fill="#26303B" transform="translate(20,63)"/>
<path d="M0,0 L8,1 L8,3 L1,2 Z " fill="#99ACB9" transform="translate(74,63)"/>
<path d="M0,0 L3,1 L3,4 L-2,3 L-2,1 Z " fill="#5E6E7A" transform="translate(90,59)"/>
<path d="M0,0 L4,0 L6,5 L1,3 Z " fill="#727378" transform="translate(27,49)"/>
<path d="M0,0 L2,1 L1,5 L-1,9 L-1,1 Z " fill="#616A74" transform="translate(63,48)"/>
<path d="M0,0 L5,2 L7,5 L0,3 Z " fill="#49484D" transform="translate(104,38)"/>
<path d="M0,0 L4,0 L4,2 L1,2 L0,6 L-1,6 L-1,1 Z " fill="#111B25" transform="translate(25,30)"/>
<path d="M0,0 L6,0 L6,2 L2,2 L1,4 L-1,2 Z " fill="#2C3035" transform="translate(144,24)"/>
<path d="M0,0 L4,0 L4,4 L0,4 Z " fill="#15171B" transform="translate(146,20)"/>
<path d="M0,0 L4,2 L1,5 L-1,5 L-1,3 L-5,2 L0,2 Z " fill="#2C3143" transform="translate(35,22)"/>
<path d="M0,0 L4,0 L4,2 L1,2 L0,7 L-1,7 L-1,1 Z " fill="#636C71" transform="translate(35,12)"/>
<path d="M0,0 L5,1 L3,5 L0,2 Z " fill="#272A31" transform="translate(129,11)"/>
<path d="M0,0 L5,0 L5,2 L7,3 L0,3 Z " fill="#63707C" transform="translate(27,81)"/>
<path d="M0,0 L7,1 L7,3 L2,3 L2,1 Z " fill="#050B17" transform="translate(36,79)"/>
<path d="M0,0 L6,0 L6,3 L1,2 Z " fill="#8C9AA7" transform="translate(39,77)"/>
<path d="M0,0 L2,0 L2,6 L-1,5 L-2,2 L0,2 Z " fill="#455564" transform="translate(148,71)"/>
<path d="M0,0 L2,1 L2,4 L-4,4 L-4,2 L0,2 Z " fill="#08080C" transform="translate(110,66)"/>
<path d="M0,0 L3,0 L5,4 L0,4 Z " fill="#9DB5C4" transform="translate(85,60)"/>
<path d="M0,0 L2,0 L3,5 L0,6 L-1,4 Z " fill="#3A373C" transform="translate(28,44)"/>
<path d="M0,0 L5,0 L7,3 L0,2 Z " fill="#5C625E" transform="translate(76,43)"/>
<path d="M0,0 L2,4 L5,5 L-1,5 L-3,3 Z " fill="#3E453F" transform="translate(74,41)"/>
<path d="M0,0 L4,0 L3,3 L-2,3 L-2,1 Z " fill="#303439" transform="translate(48,37)"/>
<path d="M0,0 L5,0 L3,1 L2,5 L0,5 Z " fill="#0C0E12" transform="translate(133,34)"/>
<path d="M0,0 L3,0 L1,4 L-2,6 Z " fill="#080708" transform="translate(60,33)"/>
<path d="M0,0 L5,1 L3,4 L0,4 Z " fill="#2D3645" transform="translate(0,24)"/>
<path d="M0,0 L2,0 L3,4 L-1,3 L-2,5 L-2,1 Z " fill="#0F1114" transform="translate(141,22)"/>
<path d="M0,0 L2,0 L1,4 L-3,4 L-3,1 Z " fill="#2F343B" transform="translate(11,11)"/>
<path d="M0,0 L4,2 L0,5 L-2,5 L-1,1 Z " fill="#55545A" transform="translate(47,5)"/>
<path d="M0,0 L2,1 L0,5 L-5,5 L-3,4 L-3,2 L0,2 Z " fill="#131519" transform="translate(56,3)"/>
<path d="M0,0 L3,0 L3,4 L-1,4 Z " fill="#929EAC" transform="translate(19,75)"/>
<path d="M0,0 L4,1 L5,4 L1,3 Z " fill="#5C6875" transform="translate(46,75)"/>
<path d="M0,0 L7,2 L4,3 L1,2 L1,4 L-1,4 Z " fill="#697582" transform="translate(41,69)"/>
<path d="M0,0 L3,1 L-2,6 L-2,1 Z " fill="#35414C" transform="translate(21,68)"/>
<path d="M0,0 L3,0 L3,2 L0,2 L0,4 L-3,3 L-3,1 Z " fill="#94A2B2" transform="translate(50,64)"/>
<path d="M0,0 L5,0 L5,2 L2,2 L2,4 L0,4 Z " fill="#6B7B84" transform="translate(30,56)"/>
<path d="M0,0 L3,0 L3,4 L-1,4 Z " fill="#343A43" transform="translate(97,53)"/>
<path d="M0,0 L2,1 L2,3 L5,4 L5,5 L0,5 Z " fill="#788694" transform="translate(21,52)"/>
<path d="M0,0 L4,1 L1,4 L-2,4 L-2,1 Z " fill="#8C97A4" transform="translate(73,48)"/>
<path d="M0,0 L6,1 L6,3 L1,3 Z " fill="#323331" transform="translate(82,38)"/>
<path d="M0,0 L1,0 L1,6 L-2,5 L-2,1 Z " fill="#010208" transform="translate(149,38)"/>
<path d="M0,0 L2,0 L1,4 L3,5 L-1,5 L-2,1 Z " fill="#15171A" transform="translate(133,27)"/>
<path d="M0,0 L3,0 L4,3 L-4,2 Z " fill="#20171F" transform="translate(66,28)"/>
<path d="M0,0 L2,0 L2,3 L-5,3 L-3,1 Z " fill="#5E6976" transform="translate(22,27)"/>
<path d="M0,0 L4,0 L4,3 L0,4 Z " fill="#04070C" transform="translate(15,18)"/>
<path d="M0,0 L2,0 L2,4 L-3,3 L0,2 Z " fill="#3A4753" transform="translate(25,80)"/>
<path d="M0,0 L4,0 L4,4 L1,4 Z " fill="#7D807F" transform="translate(75,80)"/>
<path d="M0,0 L3,0 L2,4 L-1,4 Z " fill="#1E2530" transform="translate(116,73)"/>
<path d="M0,0 L6,0 L2,4 Z " fill="#64727F" transform="translate(60,74)"/>
<path d="M0,0 L4,1 L3,4 L0,4 Z " fill="#9CA6B1" transform="translate(9,55)"/>
<path d="M0,0 L3,1 L2,5 L-1,5 Z " fill="#424148" transform="translate(56,53)"/>
<path d="M0,0 L2,4 L1,6 L-2,5 L-2,3 L0,3 Z " fill="#202125" transform="translate(118,53)"/>
<path d="M0,0 L4,0 L4,5 L0,1 Z " fill="#5B6674" transform="translate(17,51)"/>
<path d="M0,0 L6,0 L6,3 L0,1 Z " fill="#5B5C62" transform="translate(90,39)"/>
<path d="M0,0 L4,1 L1,3 L-3,3 L-3,1 Z " fill="#373E4A" transform="translate(30,32)"/>
<path d="M0,0 L2,0 L2,3 L4,4 L-1,6 Z " fill="#101317" transform="translate(40,32)"/>
<path d="M0,0 L4,1 L3,4 L0,3 Z " fill="#140709" transform="translate(58,27)"/>
<path d="M0,0 L4,0 L4,3 L-1,3 Z " fill="#15181C" transform="translate(77,12)"/>
<path d="M0,0 L5,0 L2,3 L-2,3 L-1,1 Z " fill="#3A3E46" transform="translate(69,2)"/>
<path d="M0,0 L1,3 L3,3 L3,5 L-1,5 Z " fill="#6A7885" transform="translate(65,79)"/>
<path d="M0,0 L6,1 L2,2 L2,4 L0,4 Z " fill="#7D8B9D" transform="translate(9,71)"/>
<path d="M0,0 L3,0 L2,4 L-1,4 Z " fill="#373841" transform="translate(117,65)"/>
<path d="M0,0 L4,1 L2,1 L2,3 L-2,3 L-2,1 Z " fill="#717C87" transform="translate(92,64)"/>
<path d="M0,0 L1,4 L-3,5 L-3,2 Z " fill="#828D99" transform="translate(29,63)"/>
<path d="M0,0 L2,1 L1,5 L-1,6 Z " fill="#353637" transform="translate(111,50)"/>
<path d="M0,0 L2,0 L1,5 L-2,4 L-2,2 L0,2 Z " fill="#0A090B" transform="translate(112,46)"/>
<path d="M0,0 L2,1 L1,3 L3,4 L-2,4 Z " fill="#3C3E3A" transform="translate(62,41)"/>
<path d="M0,0 L3,0 L2,4 L-1,3 Z " fill="#0F1018" transform="translate(121,29)"/>
<path d="M0,0 L7,1 L3,3 L0,3 Z " fill="#23242C" transform="translate(91,7)"/>
<path d="M0,0 L2,0 L2,2 L4,2 L4,4 L-1,3 Z " fill="#52555D" transform="translate(77,5)"/>
<path d="M0,0 L4,0 L4,3 L0,3 Z " fill="#636B70" transform="translate(52,2)"/>
<path d="M0,0 L3,0 L3,3 L-1,3 Z " fill="#0A1322" transform="translate(22,70)"/>
<path d="M0,0 L3,0 L3,2 L1,2 L1,4 L-1,4 Z " fill="#161A16" transform="translate(82,69)"/>
<path d="M0,0 L3,1 L4,5 L1,4 Z " fill="#5E646A" transform="translate(102,69)"/>
<path d="M0,0 L2,0 L2,2 L5,3 L0,4 Z " fill="#0F1B23" transform="translate(145,65)"/>
<path d="M0,0 L4,2 L-1,4 Z " fill="#68737C" transform="translate(99,59)"/>
<path d="M0,0 L3,1 L1,5 L0,5 Z " fill="#1C2022" transform="translate(104,50)"/>
<path d="M0,0 L2,3 L-2,4 L-4,4 L-4,2 L0,2 Z " fill="#4A525E" transform="translate(69,47)"/>
<path d="M0,0 L2,0 L0,4 L-2,4 L-2,1 Z " fill="#2E2F37" transform="translate(148,45)"/>
<path d="M0,0 L4,0 L4,3 L0,2 Z " fill="#3F444B" transform="translate(140,40)"/>
<path d="M0,0 L2,1 L0,5 L-2,1 Z " fill="#3B3130" transform="translate(50,24)"/>
<path d="M0,0 L2,2 L-3,3 L-5,1 Z " fill="#2D3136" transform="translate(44,5)"/>
<path d="M0,0 L4,1 L4,3 L1,4 Z " fill="#69768D" transform="translate(91,77)"/>
<path d="M0,0 L3,1 L3,3 L-2,2 Z " fill="#707A86" transform="translate(19,79)"/>
<path d="M0,0 L2,1 L2,4 L-1,4 Z " fill="#929CAA" transform="translate(130,76)"/>
<path d="M0,0 L3,0 L3,3 L-2,2 Z " fill="#485565" transform="translate(56,72)"/>
<path d="M0,0 L4,1 L4,3 L0,2 Z " fill="#050609" transform="translate(62,62)"/>
<path d="M0,0 L1,2 L3,3 L-3,4 Z " fill="#818C99" transform="translate(13,56)"/>
<path d="M0,0 L3,1 L3,4 L1,4 L1,2 L-1,1 Z " fill="#110F12" transform="translate(101,43)"/>
<path d="M0,0 L2,0 L2,3 L-2,3 L-2,1 Z " fill="#2C3034" transform="translate(137,36)"/>
<path d="M0,0 L4,0 L4,2 L0,3 Z " fill="#474E57" transform="translate(32,29)"/>
<path d="M0,0 L2,0 L2,3 L-3,3 Z " fill="#3C2F33" transform="translate(58,23)"/>
<path d="M0,0 L4,1 L4,3 L0,2 Z " fill="#3F4347" transform="translate(135,16)"/>
<path d="M0,0 L2,1 L2,3 L-2,3 L-2,1 Z " fill="#6B7E8C" transform="translate(148,76)"/>
<path d="M0,0 L2,0 L1,3 L-3,1 Z " fill="#141D29" transform="translate(73,72)"/>
<path d="M0,0 L3,0 L3,3 L0,3 Z " fill="#3F494E" transform="translate(106,65)"/>
<path d="M0,0 L2,0 L2,3 L-2,2 Z " fill="#2E3A42" transform="translate(101,61)"/>
<path d="M0,0 L3,0 L3,3 L0,3 Z " fill="#7D848D" transform="translate(129,60)"/>
<path d="M0,0 L4,2 L4,4 L1,3 Z " fill="#4B5661" transform="translate(65,57)"/>
<path d="M0,0 L4,3 L0,4 Z " fill="#50555F" transform="translate(60,57)"/>
<path d="M0,0 L3,0 L1,4 Z " fill="#828489" transform="translate(57,51)"/>
<path d="M0,0 L3,0 L2,3 L-1,2 Z " fill="#2C2D32" transform="translate(140,45)"/>
<path d="M0,0 L2,0 L3,3 L0,4 Z " fill="#0A090B" transform="translate(54,43)"/>
<path d="M0,0 L3,0 L2,5 L0,2 Z " fill="#09161A" transform="translate(34,42)"/>
<path d="M0,0 L2,0 L1,3 L-2,3 L-2,1 Z " fill="#3F4A54" transform="translate(16,38)"/>
<path d="M0,0 L2,0 L3,3 L-1,3 Z " fill="#020305" transform="translate(135,28)"/>
<path d="M0,0 L1,2 L4,3 L0,4 Z " fill="#4A535E" transform="translate(21,24)"/>
<path d="M0,0 L2,1 L1,4 L-2,3 Z " fill="#646D77" transform="translate(5,11)"/>
<path d="M0,0 L3,0 L3,3 L0,3 Z " fill="#5B5E63" transform="translate(147,10)"/>
<path d="M0,0 L3,0 L2,3 L0,3 Z " fill="#B9C5D1" transform="translate(140,79)"/>
<path d="M0,0 L2,0 L2,3 L-1,3 Z " fill="#0F1824" transform="translate(133,79)"/>
<path d="M0,0 L4,2 L1,3 L-1,1 Z " fill="#5A606E" transform="translate(113,76)"/>
<path d="M0,0 L2,0 L2,3 L-1,3 Z " fill="#8A96A5" transform="translate(79,75)"/>
<path d="M0,0 L2,0 L2,3 L-1,3 Z " fill="#333B43" transform="translate(76,73)"/>
<path d="M0,0 L3,1 L3,3 L0,3 Z " fill="#9FA8B3" transform="translate(141,67)"/>
<path d="M0,0 L2,0 L2,3 L-1,3 Z " fill="#212D31" transform="translate(92,68)"/>
<path d="M0,0 L4,2 L1,3 Z " fill="#1B1A1B" transform="translate(106,47)"/>
<path d="M0,0 L3,0 L3,3 L0,2 Z " fill="#848688" transform="translate(97,49)"/>
<path d="M0,0 L3,1 L2,4 Z " fill="#222F35" transform="translate(21,40)"/>
<path d="M0,0 L3,1 L2,4 Z " fill="#393C43" transform="translate(146,33)"/>
<path d="M0,0 L3,3 L0,3 Z " fill="#0C1013" transform="translate(114,31)"/>
<path d="M0,0 L2,2 L1,4 L-1,4 Z " fill="#1D2632" transform="translate(14,21)"/>
<path d="M0,0 L3,0 L2,3 L0,3 Z " fill="#060B0F" transform="translate(32,11)"/>
<path d="M0,0 L2,0 L2,3 L-1,3 Z " fill="#192533" transform="translate(21,11)"/>
<path d="M0,0 L4,1 L2,3 Z " fill="#5E737D" transform="translate(83,64)"/>
<path d="M0,0 L3,1 L3,3 L0,2 Z " fill="#02060E" transform="translate(75,57)"/>
<path d="M0,0 L3,1 L3,3 L0,2 Z " fill="#7F858A" transform="translate(100,53)"/>
<path d="M0,0 L3,0 L2,3 L0,2 Z " fill="#483C3E" transform="translate(31,49)"/>
<path d="M0,0 L2,0 L1,3 L-2,1 Z " fill="#404448" transform="translate(91,43)"/>
<path d="M0,0 L3,0 L2,3 L0,2 Z " fill="#0F0F13" transform="translate(113,39)"/>
<path d="M0,0 L3,2 L0,3 L-2,1 Z " fill="#373B40" transform="translate(19,20)"/>
<path d="M0,0 L3,1 L1,3 Z " fill="#7E8C97" transform="translate(46,78)"/>
<path d="M0,0 L2,2 L-1,2 Z " fill="#08060A" transform="translate(113,41)"/>
</svg>
