<?xml version="1.0" encoding="UTF-8"?>
<!-- Generator: visioncortex VTracer 0.6.5 -->
<svg version="1.1" xmlns="http://www.w3.org/2000/svg" width="120" height="120">
<path d="M0,0 L120,0 L120,120 L0,120 Z " fill="#090707" transform="translate(0,0)"/>
<path d="M0,0 L15,0 L15,2 L20,4 L22,8 L22,11 L17,13 L16,21 L18,21 L18,23 L22,23 L22,19 L24,19 L24,29 L22,29 L22,32 L19,32 L19,34 L16,34 L16,32 L12,31 L13,29 L8,30 L9,27 L11,27 L11,21 L7,21 L7,19 L5,19 L5,15 L-2,15 L-4,14 L-4,6 L-2,6 L-2,4 L0,4 Z " fill="#CBD1AB" transform="translate(49,12)"/>
<path d="M0,0 L3,0 L4,4 L5,5 L6,2 L8,2 L8,34 L5,32 L5,30 L3,30 L3,28 L1,28 L1,26 L-3,26 L-3,23 L-9,22 L-9,20 L-15,19 L-15,17 L-20,15 L-20,13 L-24,13 L-24,11 L-18,11 L-18,13 L-13,14 L-12,17 L-7,17 L-3,18 L-3,13 L-7,11 L-9,8 L-9,4 L-5,5 L-5,7 L-3,7 L-3,9 L-1,9 L-1,11 L1,11 L1,15 L3,15 L3,9 L1,9 Z " fill="#14211D" transform="translate(112,20)"/>
<path d="M0,0 L3,0 L5,7 L9,11 L13,12 L13,14 L16,14 L16,16 L21,16 L30,21 L35,26 L35,33 L34,31 L28,29 L28,27 L22,25 L13,21 L3,16 L-1,12 L-1,9 L-3,9 L-3,2 Z " fill="#141F1C" transform="translate(36,73)"/>
<path d="M0,0 L1,0 L1,8 L10,9 L10,13 L12,13 L12,15 L16,15 L16,21 L14,21 L14,23 L18,23 L18,25 L21,26 L21,28 L24,28 L24,26 L27,26 L27,23 L29,23 L29,28 L27,28 L27,30 L25,30 L25,32 L20,32 L20,30 L18,30 L18,28 L16,28 L16,25 L9,24 L6,23 L6,21 L3,21 L3,17 L1,17 L1,13 L-1,13 L-1,4 Z " fill="#26382E" transform="translate(44,18)"/>
<path d="M0,0 L9,0 L7,4 L4,4 L3,9 L-3,12 L-6,13 L-6,17 L-8,18 L-10,22 L-14,26 L-16,26 L-16,29 L-18,29 L-18,31 L-20,31 L-20,23 L-14,17 L-11,11 L-8,11 L-8,8 L-6,8 L-4,4 L-3,1 Z " fill="#131C19" transform="translate(20,74)"/>
<path d="M0,0 L4,0 L6,4 L9,5 L9,7 L15,9 L19,11 L19,13 L23,14 L26,18 L22,19 L17,16 L17,14 L11,13 L6,11 L0,4 Z " fill="#131B18" transform="translate(47,69)"/>
<path d="M0,0 L2,0 L2,6 L0,6 L0,8 L4,8 L4,10 L7,11 L7,13 L10,13 L10,11 L13,11 L13,8 L15,8 L15,13 L13,13 L13,15 L11,15 L11,17 L6,17 L6,15 L4,15 L4,13 L2,13 L2,10 L-5,9 L-8,8 L-8,6 L-11,6 L-11,3 L-7,2 L-6,4 L0,5 Z " fill="#506954" transform="translate(58,33)"/>
<path d="M0,0 L9,0 L7,4 L4,4 L3,9 L-2,10 L-3,6 L-5,5 L-3,1 Z " fill="#111714" transform="translate(20,74)"/>
<path d="M0,0 L2,0 L2,9 L0,9 L0,13 L-4,13 L-4,11 L-6,11 L-6,5 L-2,1 Z " fill="#22261F" transform="translate(71,22)"/>
<path d="M0,0 L4,0 L3,4 L0,4 L0,6 L-4,6 L-4,8 L-7,8 L-8,12 L-12,11 L-8,4 L-6,4 L-6,2 L0,2 Z " fill="#14211D" transform="translate(43,108)"/>
<path d="M0,0 L4,2 L8,6 L8,13 L7,11 L1,9 L1,7 L-5,5 L-7,3 L1,4 Z " fill="#121A18" transform="translate(63,93)"/>
<path d="M0,0 L5,0 L5,2 L7,2 L7,4 L9,4 L9,9 L3,9 L2,6 L0,6 Z " fill="#0B0908" transform="translate(49,29)"/>
<path d="M0,0 L10,2 L10,5 L14,6 L14,8 L12,8 L12,6 L7,5 L1,3 L-3,1 Z " fill="#0F1311" transform="translate(48,100)"/>
<path d="M0,0 L7,0 L10,3 L10,6 L2,5 L2,2 L0,2 Z " fill="#182D27" transform="translate(54,91)"/>
<path d="M0,0 L5,1 L1,2 L1,4 L3,4 L2,7 L-9,3 L-9,2 L0,2 Z " fill="#121916" transform="translate(53,89)"/>
<path d="M0,0 L2,0 L2,5 L0,5 L0,7 L-2,7 L-2,9 L-7,9 L-7,5 L-3,5 L-3,3 L0,3 Z " fill="#466753" transform="translate(71,41)"/>
<path d="M0,0 L6,0 L6,2 L0,3 L0,5 L-2,5 L-4,10 L-7,9 L-5,4 L-2,4 L-2,2 L0,2 Z " fill="#172A25" transform="translate(107,110)"/>
<path d="M0,0 L6,0 L6,2 L11,3 L12,7 L6,5 L4,4 L4,2 L0,2 Z " fill="#15221E" transform="translate(88,31)"/>
<path d="M0,0 L5,0 L8,2 L8,4 L10,4 L10,6 L12,7 L8,7 L6,6 L6,4 L4,4 L4,2 L0,2 Z " fill="#162722" transform="translate(90,14)"/>
<path d="M0,0 L3,0 L3,2 L6,2 L6,4 L3,4 L3,6 L0,6 L0,4 L-4,3 L0,2 Z " fill="#9EB28F" transform="translate(65,40)"/>
<path d="M0,0 L5,2 L7,8 L3,8 L3,6 L1,6 Z " fill="#8CA081" transform="translate(64,14)"/>
<path d="M0,0 L1,0 L1,7 L-6,7 L-4,6 L-3,2 Z " fill="#0E110F" transform="translate(119,113)"/>
<path d="M0,0 L2,0 L2,2 L6,2 L6,4 L9,5 L8,9 L6,9 L6,7 L4,7 L4,4 L0,4 Z " fill="#6D8B70" transform="translate(56,39)"/>
<path d="M0,0 L9,2 L9,5 L11,5 L10,7 L5,5 L5,3 L1,3 Z " fill="#253B31" transform="translate(51,41)"/>
<path d="M0,0 L2,0 L1,6 L-1,6 L-1,8 L-3,8 L-3,2 Z " fill="#192E29" transform="translate(3,97)"/>
<path d="M0,0 L9,1 L9,3 L4,4 L2,7 L2,3 L0,3 Z " fill="#4A6854" transform="translate(45,26)"/>
<path d="M0,0 L4,0 L4,2 L6,2 L6,7 L4,7 L4,4 L2,4 L2,2 L0,2 Z " fill="#182A25" transform="translate(103,3)"/>
<path d="M0,0 L8,0 L9,2 L7,2 L6,5 L6,3 L0,2 Z " fill="#121A18" transform="translate(97,37)"/>
<path d="M0,0 L2,0 L2,2 L6,2 L6,4 L-1,5 L-2,2 L0,2 Z " fill="#121816" transform="translate(86,31)"/>
<path d="M0,0 L1,0 L1,5 L-4,7 L-4,4 L-2,4 L-2,1 Z " fill="#15231F" transform="translate(17,79)"/>
<path d="M0,0 L3,0 L2,6 L-1,7 Z " fill="#172B26" transform="translate(116,33)"/>
<path d="M0,0 L3,1 L1,6 L-2,5 Z " fill="#121B18" transform="translate(102,114)"/>
<path d="M0,0 L2,0 L2,9 L1,9 L1,3 L-3,2 Z " fill="#435D4C" transform="translate(71,22)"/>
<path d="M0,0 L2,0 L2,2 L4,2 L4,6 L1,6 Z " fill="#83997B" transform="translate(51,18)"/>
<path d="M0,0 L1,2 L3,2 L3,4 L5,5 L1,5 L-1,4 Z " fill="#121816" transform="translate(97,16)"/>
<path d="M0,0 L5,0 L5,3 L0,3 Z " fill="#2C493C" transform="translate(64,47)"/>
<path d="M0,0 L6,0 L7,3 L0,2 Z " fill="#1A322C" transform="translate(88,31)"/>
<path d="M0,0 L4,2 L6,3 L5,5 L0,2 Z " fill="#0E110F" transform="translate(39,96)"/>
<path d="M0,0 L3,0 L3,4 L1,4 L0,6 Z " fill="#101512" transform="translate(112,20)"/>
<path d="M0,0 L2,1 L2,6 L0,6 L0,3 L-2,2 L0,2 Z " fill="#111715" transform="translate(109,8)"/>
<path d="M0,0 L2,0 L2,4 L0,4 L-1,6 Z " fill="#1A332C" transform="translate(118,44)"/>
<path d="M0,0 L4,0 L4,4 L2,4 L2,2 L0,2 Z " fill="#6E856A" transform="translate(54,29)"/>
<path d="M0,0 L2,3 L2,5 L-2,4 Z " fill="#111715" transform="translate(33,115)"/>
<path d="M0,0 L4,2 L2,2 L1,5 Z " fill="#121A18" transform="translate(103,24)"/>
<path d="M0,0 L1,3 L-4,4 Z " fill="#131B18" transform="translate(117,116)"/>
<path d="M0,0 L4,2 L2,2 L2,4 L0,4 Z " fill="#121A18" transform="translate(0,101)"/>
<path d="M0,0 L4,1 L4,3 L0,3 Z " fill="#1A332C" transform="translate(39,84)"/>
<path d="M0,0 L4,0 L4,3 L0,2 Z " fill="#182C27" transform="translate(96,35)"/>
<path d="M0,0 L1,3 L-2,4 L-2,1 Z " fill="#19302A" transform="translate(17,79)"/>
<path d="M0,0 L3,0 L3,3 L0,3 Z " fill="#DBDDB5" transform="translate(53,24)"/>
</svg>
