<?xml version="1.0" encoding="UTF-8"?>
<!-- Generator: visioncortex VTracer 0.6.5 -->
<svg version="1.1" xmlns="http://www.w3.org/2000/svg" width="120" height="120">
<path d="M0,0 L120,0 L120,120 L0,120 Z " fill="#250516" transform="translate(0,0)"/>
<path d="M0,0 L120,0 L120,82 L118,81 L119,76 L116,76 L116,78 L111,78 L110,68 L104,69 L104,67 L97,67 L100,66 L100,63 L102,63 L102,61 L104,61 L104,56 L102,56 L102,52 L100,52 L98,47 L95,47 L95,45 L93,44 L96,39 L95,26 L93,24 L95,24 L95,21 L92,21 L91,24 L90,24 L90,19 L87,19 L87,17 L85,17 L85,15 L87,15 L87,10 L85,10 L85,14 L83,14 L83,19 L85,19 L85,23 L82,23 L82,26 L79,27 L80,17 L78,17 L78,12 L76,12 L76,8 L74,8 L74,6 L72,6 L72,4 L68,4 L68,1 L65,1 L65,4 L67,4 L67,7 L69,7 L69,12 L68,10 L66,10 L66,8 L64,8 L64,6 L61,6 L61,8 L63,8 L63,12 L65,12 L65,14 L61,14 L61,12 L59,12 L59,10 L57,10 L57,8 L55,8 L55,6 L53,6 L53,4 L49,4 L49,1 L46,4 L48,4 L48,6 L51,6 L51,15 L47,16 L45,15 L46,10 L47,8 L44,8 L44,10 L42,10 L42,21 L38,21 L38,13 L36,13 L36,17 L33,17 L33,19 L30,19 L30,15 L32,15 L32,13 L30,13 L30,8 L27,8 L27,10 L25,10 L25,17 L27,17 L27,20 L31,21 L30,24 L27,23 L27,26 L29,26 L29,32 L31,32 L31,34 L33,34 L32,38 L27,37 L27,41 L29,41 L29,43 L31,43 L31,46 L40,45 L40,47 L36,47 L36,50 L40,50 L40,52 L42,52 L42,54 L38,54 L38,52 L36,52 L36,56 L38,56 L38,61 L40,61 L40,63 L37,63 L33,56 L33,54 L26,55 L23,54 L23,52 L21,52 L21,50 L19,50 L19,45 L21,45 L21,41 L19,41 L19,43 L16,43 L16,54 L18,54 L18,60 L12,58 L12,62 L7,61 L7,63 L2,63 L3,67 L1,67 L3,76 L1,76 L0,78 Z " fill="#1C0517" transform="translate(0,0)"/>
<path d="M0,0 L2,0 L2,4 L0,4 L0,9 L2,9 L2,11 L4,11 L4,13 L14,13 L18,20 L18,22 L21,22 L21,24 L23,24 L23,31 L21,31 L21,33 L19,33 L19,35 L17,35 L17,37 L15,37 L14,40 L11,40 L11,42 L14,42 L15,46 L16,40 L21,39 L21,37 L23,37 L23,42 L25,42 L25,46 L27,46 L29,48 L33,48 L32,44 L29,44 L28,35 L29,37 L31,37 L34,41 L34,44 L53,44 L53,50 L51,50 L51,53 L38,53 L38,55 L52,55 L52,57 L49,57 L49,59 L40,59 L40,57 L36,57 L36,55 L32,55 L32,51 L30,51 L30,57 L32,57 L34,67 L34,77 L36,77 L36,79 L-19,79 L-19,37 L-18,35 L-16,35 L-18,32 L-18,26 L-16,26 L-17,22 L-12,22 L-12,20 L-7,21 L-7,17 L-3,18 L-1,19 L-1,13 L-3,13 L-4,11 L-4,4 L-3,2 L0,2 Z " fill="#280516" transform="translate(19,41)"/>
<path d="M0,0 L2,0 L2,3 L6,3 L6,5 L8,5 L8,7 L10,7 L10,9 L12,9 L12,11 L14,11 L14,13 L18,13 L18,11 L16,11 L16,7 L14,7 L14,5 L17,5 L17,7 L19,7 L19,9 L21,9 L22,6 L20,6 L20,3 L18,3 L18,0 L21,0 L21,3 L25,3 L25,5 L27,5 L27,7 L29,7 L29,11 L31,11 L31,16 L33,16 L33,25 L35,25 L35,22 L38,22 L38,18 L36,18 L36,13 L38,13 L38,9 L40,9 L40,14 L38,14 L38,16 L40,16 L40,18 L42,18 L42,27 L40,27 L40,33 L38,33 L38,40 L35,40 L35,42 L33,42 L33,37 L31,37 L31,44 L29,44 L29,46 L27,46 L27,49 L25,49 L25,51 L21,51 L19,48 L16,48 L16,46 L14,46 L14,51 L10,51 L10,49 L8,49 L8,47 L5,46 L5,44 L0,44 L0,47 L6,49 L6,51 L8,51 L8,53 L12,53 L12,55 L16,55 L16,53 L20,53 L22,61 L21,64 L14,64 L14,62 L12,62 L12,60 L10,60 L10,64 L12,64 L12,66 L23,66 L23,64 L25,64 L25,59 L23,58 L26,57 L23,55 L23,53 L27,53 L27,51 L31,51 L31,62 L29,73 L27,73 L27,77 L25,77 L25,79 L23,79 L23,82 L12,82 L12,79 L8,79 L8,77 L6,77 L6,75 L4,75 L2,72 L2,68 L0,68 L-2,64 L-2,58 L-4,58 L-5,62 L-7,62 L-7,60 L-9,60 L-9,55 L-11,55 L-11,51 L-9,51 L-9,53 L-5,53 L-5,51 L-7,51 L-7,49 L-11,49 L-11,46 L-7,46 L-7,44 L-12,44 L-13,46 L-16,45 L-16,42 L-18,42 L-18,40 L-20,40 L-20,36 L-15,36 L-14,33 L-16,33 L-16,31 L-18,31 L-18,25 L-20,25 L-20,22 L-17,22 L-17,20 L-20,19 L-20,16 L-22,16 L-22,9 L-20,9 L-20,7 L-17,7 L-17,12 L-15,12 L-15,14 L-17,14 L-17,18 L-14,18 L-14,16 L-11,16 L-11,12 L-9,12 L-9,20 L-5,20 L-5,9 L-3,9 L-3,7 L0,7 L-2,14 L4,14 L4,5 L1,5 L1,3 L-1,3 Z " fill="#820E0F" transform="translate(47,1)"/>
<path d="M0,0 L2,4 L3,2 L6,2 L8,20 L5,25 L6,28 L9,28 L11,33 L13,33 L13,37 L15,37 L15,42 L13,42 L13,44 L11,44 L11,47 L15,48 L15,50 L21,49 L21,51 L27,51 L27,52 L22,53 L23,57 L22,59 L27,59 L27,57 L30,57 L30,62 L31,63 L31,101 L25,101 L25,97 L23,97 L23,90 L21,90 L21,83 L19,83 L19,77 L17,77 L17,75 L15,75 L15,73 L13,73 L13,70 L8,70 L8,68 L4,68 L4,66 L0,66 L0,64 L-4,64 L-4,61 L-6,61 L-6,59 L-9,59 L-9,55 L-4,54 L-4,52 L-7,50 L-7,48 L-1,48 L-2,41 L-6,39 L-6,32 L-4,32 L-4,26 L-7,26 L-8,31 L-9,41 L-11,42 L-12,35 L-11,33 L-15,33 L-15,35 L-19,35 L-19,37 L-13,38 L-17,41 L-17,46 L-19,46 L-19,48 L-30,48 L-30,46 L-32,46 L-32,42 L-30,42 L-30,44 L-28,44 L-28,46 L-21,46 L-22,35 L-26,35 L-26,37 L-30,37 L-30,35 L-34,35 L-34,33 L-36,33 L-36,31 L-40,30 L-42,29 L-42,26 L-37,26 L-34,29 L-34,31 L-32,31 L-32,33 L-28,33 L-28,28 L-26,28 L-24,30 L-21,30 L-21,33 L-17,33 L-17,31 L-15,31 L-15,28 L-13,28 L-13,26 L-11,26 L-11,19 L-9,19 L-9,24 L-7,24 L-7,22 L-4,22 L-4,15 L-2,15 L-2,9 L0,9 Z M-2,39 Z " fill="#4D0714" transform="translate(89,19)"/>
<path d="M0,0 L3,2 L4,8 L6,8 L6,10 L8,10 L8,6 L6,6 L6,4 L8,4 L8,2 L10,2 L10,4 L14,4 L14,6 L18,6 L18,8 L23,8 L23,11 L25,11 L25,13 L27,13 L27,15 L29,15 L29,21 L31,21 L31,28 L33,28 L33,35 L35,35 L35,39 L-5,39 L-5,35 L-3,35 L-3,12 L-1,12 L-1,1 Z " fill="#540512" transform="translate(79,81)"/>
<path d="M0,0 L2,0 L2,4 L0,4 L0,9 L2,9 L2,11 L4,11 L4,15 L6,15 L6,17 L8,17 L8,22 L6,22 L6,26 L4,26 L4,31 L6,31 L6,35 L8,35 L8,37 L12,37 L12,39 L10,39 L10,42 L6,42 L6,44 L2,44 L2,46 L-3,46 L-3,48 L-7,48 L-7,50 L-11,50 L-11,55 L-13,55 L-13,61 L-15,61 L-15,68 L-17,68 L-17,77 L-19,77 L-19,37 L-18,35 L-16,35 L-18,32 L-18,26 L-16,26 L-17,22 L-12,22 L-12,20 L-7,21 L-7,17 L-3,18 L-1,19 L-1,13 L-3,13 L-4,11 L-4,4 L-3,2 L0,2 Z " fill="#5E0512" transform="translate(19,41)"/>
<path d="M0,0 L2,0 L2,3 L6,3 L6,5 L8,5 L8,7 L10,7 L10,9 L12,9 L12,11 L14,11 L14,14 L16,14 L16,16 L18,16 L19,20 L21,20 L21,16 L23,16 L23,14 L25,14 L25,12 L29,12 L29,18 L27,18 L27,22 L29,22 L29,20 L31,20 L31,27 L29,27 L29,31 L27,31 L27,33 L25,33 L25,36 L23,36 L23,38 L21,38 L21,40 L14,40 L14,36 L10,35 L10,33 L8,33 L8,31 L1,31 L1,35 L-5,35 L-5,33 L-7,33 L-7,31 L-9,31 L-9,27 L-11,27 L-13,23 L-13,16 L-11,16 L-11,12 L-9,12 L-9,20 L-5,20 L-5,9 L-3,9 L-3,7 L0,7 L-2,14 L4,14 L4,5 L1,5 L1,3 L-1,3 Z " fill="#F78F0A" transform="translate(47,1)"/>
<path d="M0,0 L3,0 L3,3 L7,3 L7,5 L9,5 L9,7 L11,7 L11,11 L13,11 L13,16 L15,16 L15,25 L17,25 L17,22 L20,22 L20,18 L18,18 L18,13 L20,13 L20,9 L22,9 L22,14 L20,14 L20,16 L22,16 L22,18 L24,18 L24,27 L22,27 L22,33 L20,33 L20,40 L17,40 L17,42 L15,42 L15,37 L13,37 L13,44 L11,44 L11,46 L9,46 L9,49 L7,49 L7,51 L3,51 L1,48 L-2,48 L-2,46 L-4,46 L-4,51 L-8,51 L-8,49 L-10,49 L-10,47 L-13,46 L-13,44 L-16,44 L-16,42 L-12,42 L-12,40 L-14,40 L-14,35 L-12,34 L-16,32 L-17,35 L-17,31 L-10,31 L-10,33 L-8,33 L-8,35 L-4,36 L-4,40 L3,40 L3,38 L5,38 L5,36 L7,36 L7,33 L9,33 L9,31 L11,31 L11,27 L13,27 L13,20 L11,20 L11,22 L9,22 L9,18 L11,18 L11,12 L7,12 L7,14 L5,14 L5,16 L3,16 L3,20 L1,20 L0,16 L-2,16 L-2,14 L-4,13 L0,13 L0,11 L-2,11 L-2,7 L-4,7 L-4,5 L-1,5 L-1,7 L1,7 L1,9 L3,9 L4,6 L2,6 L2,3 L0,3 Z " fill="#C12409" transform="translate(65,1)"/>
<path d="M0,0 L2,0 L2,2 L8,1 L8,3 L14,3 L14,4 L9,5 L10,9 L9,11 L14,11 L14,9 L17,9 L17,14 L18,15 L18,53 L12,53 L12,49 L10,49 L10,42 L8,42 L8,35 L6,35 L6,29 L4,29 L4,27 L2,27 L2,25 L0,24 L6,24 L6,18 L4,18 L4,15 L0,14 L0,16 L2,16 L2,20 L-2,20 L-2,18 L-4,18 L-4,6 L-1,4 Z " fill="#630611" transform="translate(102,67)"/>
<path d="M0,0 L1,2 L3,2 L6,6 L6,9 L25,9 L25,15 L23,15 L23,18 L10,18 L10,20 L24,20 L24,22 L21,22 L21,24 L12,24 L12,22 L8,22 L8,20 L4,20 L4,16 L2,16 L3,24 L3,33 L5,33 L4,37 L-2,36 L-5,37 L-5,35 L-7,35 L-7,33 L-9,33 L-9,26 L-7,26 L-7,24 L-5,24 L-5,20 L-9,20 L-9,18 L-13,18 L-13,16 L-11,16 L-11,9 L-9,9 L-9,11 L-7,11 L-7,9 L-4,9 L-4,11 L-1,11 L1,13 L5,13 L4,9 L1,9 Z " fill="#630511" transform="translate(47,76)"/>
<path d="M0,0 L5,1 L7,2 L7,4 L9,4 L9,6 L11,6 L11,12 L13,12 L13,19 L15,19 L15,26 L17,26 L17,30 L-14,30 L-14,28 L-12,28 L-12,21 L-10,21 L-10,12 L-12,12 L-12,10 L-14,10 L-14,8 L-16,8 L-16,6 L-10,6 L-10,2 L-8,2 L-8,4 L-6,4 L-6,6 L-8,6 L-8,8 L-10,8 L-10,10 L-8,10 L-8,12 L-6,12 L-6,19 L-8,19 L-8,23 L-6,23 L-6,25 L-4,25 L-4,21 L-2,21 L-2,17 L0,17 L1,10 L3,10 L3,1 Z " fill="#1F0516" transform="translate(97,90)"/>
<path d="M0,0 L3,0 L3,4 L5,4 L5,7 L1,7 L2,9 L5,8 L7,10 L9,9 L9,6 L12,6 L12,15 L17,14 L18,11 L19,11 L19,43 L17,42 L18,37 L15,37 L15,39 L10,39 L9,29 L3,30 L3,28 L-4,28 L-1,27 L-1,24 L1,24 L1,22 L3,22 L3,17 L1,17 L1,13 L-1,13 L-3,8 L-6,8 L-6,6 L-8,5 L-5,3 L-1,4 Z " fill="#310517" transform="translate(101,39)"/>
<path d="M0,0 L10,0 L12,2 L12,6 L15,6 L15,8 L19,8 L19,10 L17,10 L17,12 L15,12 L17,21 L18,26 L15,26 L13,24 L10,25 L8,22 L8,19 L6,19 L5,25 L0,26 L0,23 L-5,21 L-5,19 L-7,19 L-6,8 L-5,6 L-2,6 L-2,4 L0,4 L0,8 L2,8 L2,12 L4,12 L5,14 L6,10 L4,10 L4,6 L2,6 L2,2 L0,2 Z " fill="#390515" transform="translate(19,90)"/>
<path d="M0,0 L2,0 L2,4 L0,4 L0,9 L2,9 L2,11 L4,11 L4,15 L6,15 L6,17 L8,17 L8,22 L6,22 L6,26 L4,26 L4,31 L6,31 L6,35 L8,35 L8,37 L12,37 L12,39 L10,39 L10,42 L6,42 L6,44 L2,44 L2,46 L-3,46 L-3,48 L-7,48 L-8,40 L-7,42 L-3,43 L0,42 L0,37 L-2,37 L-2,35 L-5,35 L-5,33 L-7,33 L-7,29 L-3,28 L-2,26 L0,26 L0,22 L2,22 L2,15 L0,15 L0,13 L-3,13 L-4,11 L-4,4 L-3,2 L0,2 Z " fill="#E64F07" transform="translate(19,41)"/>
<path d="M0,0 L4,0 L4,11 L2,22 L0,22 L0,26 L-2,26 L-2,28 L-4,28 L-4,31 L-15,31 L-15,28 L-19,28 L-19,22 L-15,22 L-15,20 L-5,20 L-5,22 L-2,22 L-2,17 L-17,17 L-17,19 L-19,19 L-19,15 L-17,15 L-17,13 L-15,13 L-15,15 L-4,15 L-4,13 L-2,13 L-2,8 L-4,7 L-1,6 L-4,4 L-4,2 L0,2 Z " fill="#BA1C09" transform="translate(74,52)"/>
<path d="M0,0 L10,0 L14,7 L14,9 L17,9 L17,11 L19,11 L19,18 L17,18 L17,20 L15,20 L15,22 L13,22 L13,24 L4,24 L4,22 L2,22 L2,18 L0,18 L0,13 L2,13 L2,9 L4,9 L4,4 L2,4 L2,2 L0,2 Z " fill="#5C0512" transform="translate(23,54)"/>
<path d="M0,0 L4,0 L4,6 L2,6 L2,10 L4,10 L4,8 L6,8 L6,15 L4,15 L4,19 L2,19 L2,21 L0,21 L0,24 L-2,24 L-2,26 L-4,26 L-4,28 L-11,28 L-11,24 L-15,23 L-15,21 L-17,21 L-17,19 L-19,19 L-19,17 L-21,17 L-21,15 L-23,15 L-23,11 L-19,12 L-17,13 L-17,15 L-11,15 L-9,11 L-9,13 L-7,13 L-7,15 L-4,15 L-4,17 L-2,17 L-2,6 L0,6 Z " fill="#F8940A" transform="translate(72,13)"/>
<path d="M0,0 L1,3 L3,3 L3,5 L5,5 L4,9 L-1,8 L-1,12 L1,12 L1,14 L3,14 L3,17 L12,16 L12,18 L8,18 L8,21 L12,21 L12,23 L14,23 L14,25 L10,25 L10,23 L8,23 L8,27 L10,27 L10,32 L12,32 L12,34 L9,34 L5,27 L5,25 L-2,26 L-5,25 L-5,23 L-7,23 L-7,21 L-9,21 L-9,16 L-7,16 L-7,12 L-9,12 L-10,14 L-10,10 L-5,11 L-3,6 L-5,6 L-5,3 Z " fill="#3B0616" transform="translate(28,29)"/>
<path d="M0,0 L4,0 L4,4 L8,4 L8,7 L12,7 L12,9 L8,9 L8,12 L12,11 L16,11 L17,8 L18,9 L18,28 L16,27 L17,22 L14,22 L14,24 L9,24 L8,14 L2,15 L2,13 L-5,13 L-2,12 L-2,9 L0,9 L0,7 L2,7 L2,2 L0,2 Z " fill="#470515" transform="translate(102,54)"/>
<path d="M0,0 L3,0 L3,2 L5,2 L5,4 L9,4 L9,6 L13,6 L13,4 L17,4 L19,12 L18,15 L11,15 L11,13 L9,13 L9,11 L7,11 L7,13 L5,13 L5,15 L3,16 L2,21 L1,21 L1,13 L-1,13 L-3,10 L-3,2 L-1,3 Z " fill="#C52508" transform="translate(50,50)"/>
<path d="M0,0 L5,0 L8,3 L8,5 L10,5 L10,7 L14,7 L14,2 L16,2 L18,4 L21,4 L21,7 L25,7 L25,5 L32,5 L33,3 L33,15 L31,16 L30,9 L31,7 L27,7 L27,9 L23,9 L23,11 L29,12 L25,15 L25,20 L23,20 L23,22 L12,22 L12,20 L10,20 L10,16 L12,16 L12,18 L14,18 L14,20 L21,20 L20,9 L16,9 L16,11 L12,11 L12,9 L8,9 L8,7 L6,7 L6,5 L2,4 L0,3 Z " fill="#8D0C0D" transform="translate(47,45)"/>
<path d="M0,0 L2,0 L2,10 L4,10 L4,13 L6,13 L6,15 L8,15 L8,17 L12,17 L9,12 L9,4 L10,6 L12,6 L12,8 L14,8 L14,10 L17,10 L17,6 L19,6 L19,8 L21,8 L21,11 L23,11 L23,13 L25,13 L25,16 L19,15 L19,13 L13,11 L13,15 L15,15 L15,17 L17,17 L17,19 L12,19 L12,23 L6,23 L6,21 L4,21 L4,19 L2,19 L2,15 L0,15 L-2,11 L-2,4 L0,4 Z " fill="#EA5306" transform="translate(36,13)"/>
<path d="M0,0 L2,0 L2,2 L6,2 L6,4 L8,4 L8,6 L10,6 L10,8 L16,8 L16,6 L19,6 L19,4 L21,4 L21,2 L23,2 L23,0 L25,0 L25,4 L23,4 L23,6 L27,6 L27,8 L25,8 L25,10 L23,10 L23,13 L21,13 L21,15 L17,15 L15,12 L12,12 L12,10 L10,10 L10,15 L6,15 L6,13 L4,13 L4,11 L1,10 L1,8 L-2,8 L-2,6 L2,6 L2,4 L0,4 Z " fill="#D62C07" transform="translate(51,37)"/>
<path d="M0,0 L13,0 L10,4 L12,4 L12,6 L15,6 L15,15 L11,16 L9,15 L10,10 L11,8 L8,8 L8,10 L6,10 L6,21 L2,21 L2,13 L0,13 L0,17 L-2,16 L-1,8 L2,8 L1,3 L2,1 Z " fill="#190517" transform="translate(36,0)"/>
<path d="M0,0 L4,0 L4,2 L7,2 L7,4 L9,4 L10,13 L9,20 L11,20 L11,22 L15,22 L15,18 L13,18 L13,16 L17,17 L17,20 L19,20 L19,26 L13,26 L13,24 L8,24 L8,22 L4,22 L4,20 L0,20 L0,17 L-2,16 L2,15 L2,11 L4,11 L4,4 L2,4 L2,2 L0,2 Z " fill="#A0160C" transform="translate(89,65)"/>
<path d="M0,0 L4,1 L4,7 L2,7 L2,13 L6,15 L8,17 L6,17 L7,23 L1,23 L5,27 L4,30 L-1,30 L-1,32 L-3,32 L-3,26 L-5,26 L-3,17 L-2,16 L-1,6 L0,1 Z M6,14 Z " fill="#5F0511" transform="translate(81,44)"/>
<path d="M0,0 L10,0 L12,2 L12,6 L15,6 L15,8 L19,8 L19,10 L17,10 L17,12 L15,13 L14,19 L10,19 L9,15 L6,15 L6,10 L4,10 L4,6 L2,6 L2,2 L0,2 Z " fill="#6A0510" transform="translate(19,90)"/>
<path d="M0,0 L1,0 L2,9 L4,9 L4,15 L-2,13 L-2,17 L-7,16 L-7,18 L-12,18 L-11,22 L-13,22 L-11,31 L-13,31 L-14,33 L-14,10 L-9,9 L-6,6 L-1,8 Z " fill="#460515" transform="translate(14,45)"/>
<path d="M0,0 L3,0 L3,3 L1,3 L0,8 L3,9 L-1,9 L-1,11 L1,11 L1,13 L3,13 L3,20 L1,20 L1,24 L-1,26 L-5,27 L-5,24 L-7,24 L-7,22 L-10,22 L-10,18 L-5,17 L-5,15 L-8,13 L-8,11 L-2,11 L-3,4 L-2,2 L0,2 Z " fill="#670711" transform="translate(90,56)"/>
<path d="M0,0 L3,4 L3,6 L1,6 L1,13 L3,13 L3,17 L6,17 L7,21 L3,21 L2,23 L1,19 L-1,19 L-1,15 L-3,15 L-3,10 L-5,10 L-5,12 L-10,13 L-10,23 L-12,19 L-12,15 L-15,15 L-15,13 L-12,12 L-11,10 L-9,10 L-9,8 L-7,8 L-7,6 L-5,6 L-5,4 L-3,4 L-3,2 Z " fill="#1F0516" transform="translate(45,68)"/>
<path d="M0,0 L1,2 L3,2 L3,4 L6,4 L6,6 L8,6 L8,8 L10,8 L10,17 L8,17 L7,22 L1,22 L0,15 Z " fill="#70060F" transform="translate(77,94)"/>
<path d="M0,0 L2,0 L2,2 L4,2 L4,5 L6,5 L6,7 L8,7 L7,12 L8,16 L4,18 L4,15 L0,14 L0,16 L2,16 L2,20 L-2,20 L-2,18 L-4,18 L-4,6 L-1,4 Z " fill="#6C0611" transform="translate(102,67)"/>
<path d="M0,0 L4,0 L4,6 L2,6 L2,10 L4,10 L4,8 L6,8 L6,15 L4,15 L4,19 L2,19 L2,21 L0,21 L0,24 L-2,24 L-2,26 L-4,26 L-4,28 L-6,28 L-4,17 L-2,17 L-2,6 L0,6 Z " fill="#F7980B" transform="translate(72,13)"/>
<path d="M0,0 L1,2 L3,2 L4,5 L7,4 L7,2 L9,2 L9,6 L7,6 L7,10 L9,10 L9,8 L24,8 L24,13 L21,13 L21,11 L11,11 L11,13 L7,13 L7,17 L5,17 L5,15 L3,15 L1,12 L1,8 L-1,8 Z " fill="#C01E09" transform="translate(48,61)"/>
<path d="M0,0 L4,1 L7,5 L7,12 L6,15 L4,15 L4,19 L2,19 L2,23 L0,23 L0,21 L-2,21 L-2,17 L0,17 L0,10 L-2,10 L-2,8 L-4,8 L-4,6 L-2,6 L-2,4 L0,4 Z " fill="#420514" transform="translate(91,92)"/>
<path d="M0,0 L2,0 L2,4 L0,4 L0,9 L2,9 L2,11 L4,11 L4,15 L6,15 L6,17 L8,17 L8,22 L6,22 L6,26 L4,26 L4,31 L2,29 L2,26 L0,26 L0,22 L2,22 L2,15 L0,15 L0,13 L-3,13 L-4,11 L-4,4 L-3,2 L0,2 Z " fill="#C42009" transform="translate(19,41)"/>
<path d="M0,0 L3,1 L3,9 L6,9 L6,7 L9,7 L9,9 L7,9 L7,15 L9,15 L9,22 L2,22 L2,20 L0,20 L0,16 L-2,16 L-2,11 L0,11 L0,7 L2,7 L2,2 L0,2 Z " fill="#710910" transform="translate(25,56)"/>
<path d="M0,0 L3,0 L1,7 L7,7 L7,11 L9,11 L9,15 L6,15 L6,13 L4,13 L4,11 L2,11 L2,17 L4,22 L0,22 L0,20 L-2,20 L-2,18 L-4,18 L-4,15 L-6,15 L-6,13 L-2,13 L-2,2 L0,2 Z " fill="#BF2209" transform="translate(44,8)"/>
<path d="M0,0 L2,0 L2,2 L6,2 L6,4 L10,4 L10,6 L15,6 L14,8 L13,8 L13,17 L11,17 L7,10 L4,9 L4,11 L2,11 L2,9 L0,9 L0,13 L-2,13 L-2,8 L0,8 L0,4 L-2,4 L-2,2 L0,2 Z " fill="#320615" transform="translate(87,83)"/>
<path d="M0,0 L1,2 L8,3 L8,7 L6,7 L6,13 L4,13 L4,20 L2,20 L2,29 L0,29 Z " fill="#630511" transform="translate(0,89)"/>
<path d="M0,0 L2,0 L4,10 L6,10 L8,17 L10,17 L10,19 L12,19 L12,21 L16,21 L16,24 L10,26 L7,21 L7,19 L5,19 L5,22 L3,22 L2,13 L3,15 L5,15 L2,10 L-1,11 L-1,6 L-3,6 L-3,4 L-1,3 Z " fill="#440514" transform="translate(43,59)"/>
<path d="M0,0 L1,2 L3,2 L3,9 L1,9 L1,13 L-1,13 L-2,18 L-3,16 L-6,16 L-6,18 L-8,18 L-8,9 L-6,9 L-6,4 L-2,5 L0,6 Z " fill="#580512" transform="translate(18,54)"/>
<path d="M0,0 L1,0 L1,6 L3,6 L3,12 L1,12 L1,19 L3,19 L3,17 L5,17 L5,24 L3,24 L3,26 L-1,26 L-1,23 L1,23 L0,20 L-1,22 L-3,22 L-3,11 L-1,11 L-1,1 Z " fill="#2D0516" transform="translate(103,92)"/>
<path d="M0,0 L3,0 L3,5 L5,5 L5,7 L3,7 L3,11 L6,11 L7,22 L9,22 L9,24 L6,24 L6,22 L4,22 L4,20 L2,20 L2,18 L0,18 L0,15 L3,15 L3,13 L0,12 L0,9 L-2,9 L-2,2 L0,2 Z " fill="#480A15" transform="translate(27,8)"/>
<path d="M0,0 L2,0 L2,5 L0,5 L0,7 L2,7 L2,9 L4,9 L4,18 L0,18 L0,22 L-2,22 L-2,24 L-5,24 L-5,26 L-8,26 L-7,20 L-4,20 L-4,18 L-2,18 L-2,16 L0,16 L0,9 L-2,9 L-2,4 L0,4 Z " fill="#F17509" transform="translate(85,10)"/>
<path d="M0,0 L2,0 L4,10 L4,20 L6,20 L6,22 L-5,22 L-7,15 L-3,13 L2,15 L3,11 L1,11 Z " fill="#460514" transform="translate(49,98)"/>
<path d="M0,0 L4,2 L4,18 L0,18 L0,16 L-4,16 L-4,13 L-6,12 L-2,11 L-2,7 L0,7 Z " fill="#F47A08" transform="translate(93,69)"/>
<path d="M0,0 L4,0 L4,4 L8,4 L8,0 L12,0 L12,2 L10,2 L10,5 L6,5 L6,7 L2,7 L2,9 L-3,9 L-3,11 L-7,11 L-8,3 L-7,5 L-3,6 L0,5 Z " fill="#C52809" transform="translate(19,78)"/>
<path d="M0,0 L3,0 L5,5 L7,5 L7,9 L9,9 L9,14 L7,14 L7,16 L4,16 L4,18 L2,18 L1,12 L2,3 L0,3 Z " fill="#A40E0B" transform="translate(95,47)"/>
<path d="M0,0 L2,0 L1,4 L4,4 L4,6 L2,6 L2,17 L-2,17 L-2,9 L-4,9 L-4,13 L-6,12 L-5,4 L-2,4 L-2,1 Z " fill="#310616" transform="translate(40,4)"/>
<path d="M0,0 L2,0 L2,2 L8,2 L8,3 L3,4 L4,8 L3,10 L8,10 L8,8 L11,8 L11,13 L12,15 L7,16 L2,14 L2,12 L0,11 L2,6 L0,6 L0,4 L-2,4 L-2,1 Z " fill="#5A0512" transform="translate(108,68)"/>
<path d="M0,0 L2,4 L3,2 L6,2 L7,11 L4,11 L4,15 L2,15 L2,17 L-2,15 L-2,9 L0,9 Z " fill="#320516" transform="translate(89,19)"/>
<path d="M0,0 L4,0 L4,6 L2,6 L2,9 L-9,9 L-9,7 L-7,7 L-7,4 L-9,4 L-9,2 L-5,2 L-5,4 L-3,4 L-3,2 L0,2 Z " fill="#6F060F" transform="translate(68,85)"/>
<path d="M0,0 L2,2 L2,9 L4,9 L4,11 L2,13 L-2,14 L-2,11 L-4,11 L-4,9 L-7,9 L-7,5 L-2,4 L-2,1 Z " fill="#7F070E" transform="translate(87,69)"/>
<path d="M0,0 L4,1 L4,7 L2,7 L2,13 L4,14 L2,14 L2,19 L0,19 L0,25 L-2,25 L-2,16 L-1,6 L0,1 Z " fill="#2E0515" transform="translate(81,44)"/>
<path d="M0,0 L3,0 L3,5 L5,5 L5,12 L3,12 L3,20 L1,20 L0,16 L-2,16 L-2,14 L-4,13 L0,13 L0,11 L-2,11 L-2,7 L-4,7 L-4,5 L-1,5 L-1,7 L1,7 L1,9 L3,9 L4,6 L2,6 L2,3 L0,3 Z " fill="#A4160B" transform="translate(65,1)"/>
<path d="M0,0 L6,0 L6,2 L8,2 L8,5 L10,5 L10,7 L8,7 L8,9 L10,9 L10,13 L8,13 L8,11 L6,11 L3,4 L2,4 L1,15 L-1,15 Z " fill="#2D0515" transform="translate(77,78)"/>
<path d="M0,0 L2,0 L2,2 L4,2 L4,4 L6,4 L6,7 L8,7 L8,9 L10,9 L11,13 L13,13 L13,18 L11,18 L11,15 L8,15 L8,13 L6,13 L6,11 L4,11 L4,9 L2,9 L2,4 L0,4 Z " fill="#D02807" transform="translate(55,8)"/>
<path d="M0,0 L2,0 L2,4 L4,4 L4,8 L6,8 L6,15 L4,15 L4,13 L2,13 L2,11 L0,11 L-2,6 L-4,6 L-3,2 L0,2 Z " fill="#5E0512" transform="translate(17,94)"/>
<path d="M0,0 L2,1 L2,6 L0,6 L0,8 L-2,8 L-2,10 L-4,10 L-4,12 L-6,12 L-6,5 L-8,5 L-8,1 Z " fill="#6E0710" transform="translate(40,66)"/>
<path d="M0,0 L2,1 L2,23 L9,22 L9,25 L7,25 L7,27 L-2,27 L-2,23 L0,23 Z " fill="#460514" transform="translate(76,93)"/>
<path d="M0,0 L3,0 L3,2 L5,2 L5,4 L7,4 L7,7 L3,7 L3,11 L-2,11 L-3,10 L-3,2 L-1,3 Z " fill="#C32609" transform="translate(50,50)"/>
<path d="M0,0 L1,2 L3,2 L3,4 L6,4 L6,11 L4,17 L1,17 L-1,10 L1,10 Z " fill="#F9A10C" transform="translate(62,24)"/>
<path d="M0,0 L3,0 L3,2 L6,2 L6,4 L20,4 L20,6 L17,6 L17,8 L8,8 L8,6 L4,6 L4,4 L0,4 Z " fill="#430514" transform="translate(51,92)"/>
<path d="M0,0 L2,0 L2,2 L4,2 L4,6 L0,6 L0,9 L-2,9 L-2,11 L-4,12 L-5,17 L-6,17 L-6,9 L-8,9 L-8,7 L-4,7 L-4,3 L0,3 Z " fill="#D32807" transform="translate(57,54)"/>
<path d="M0,0 L2,0 L2,4 L0,4 L0,9 L2,9 L2,11 L4,11 L4,13 L2,13 L2,15 L0,15 L0,13 L-3,13 L-4,11 L-4,4 L-3,2 L0,2 Z " fill="#BD2309" transform="translate(19,41)"/>
<path d="M0,0 L5,0 L8,3 L8,5 L10,5 L10,7 L14,7 L14,5 L16,5 L16,11 L12,11 L12,9 L8,9 L8,7 L6,7 L6,5 L2,4 L0,3 Z " fill="#5D0D12" transform="translate(47,45)"/>
<path d="M0,0 L6,2 L6,0 L8,0 L8,2 L14,2 L11,3 L11,9 L6,9 L6,7 L4,7 L4,5 L2,5 L2,2 L0,2 Z " fill="#C11E09" transform="translate(34,34)"/>
<path d="M0,0 L3,0 L3,2 L5,2 L5,7 L1,9 L1,7 L-2,7 L-2,13 L-4,13 L-4,5 L-6,5 L-6,2 L-4,2 L-4,4 L-1,4 Z " fill="#8A0D0E" transform="translate(14,76)"/>
<path d="M0,0 L2,0 L2,9 L0,13 L-2,13 L-2,11 L-4,11 L-4,6 L-6,6 L-6,2 L-4,2 L-4,4 L0,4 Z " fill="#5C0612" transform="translate(42,50)"/>
<path d="M0,0 L1,4 L-1,4 L-1,9 L1,9 L1,13 L-2,13 L-2,16 L-5,17 L-4,7 L-6,7 L-5,3 L-2,1 L0,2 Z " fill="#560B13" transform="translate(84,10)"/>
<path d="M0,0 L4,1 L7,5 L6,11 L4,11 L4,9 L-1,8 L-2,4 L0,4 Z M-1,6 Z " fill="#6B0510" transform="translate(91,92)"/>
<path d="M0,0 L15,0 L15,5 L12,5 L12,3 L2,3 L2,5 L-2,5 L-2,3 L0,3 Z " fill="#661011" transform="translate(57,69)"/>
<path d="M0,0 L4,0 L4,9 L2,9 L2,11 L-2,11 L-2,8 L-4,7 L-1,6 L-4,4 L-4,2 L0,2 Z " fill="#D73D08" transform="translate(74,52)"/>
<path d="M0,0 L5,0 L11,2 L11,11 L9,11 L5,4 L2,3 L2,5 L0,5 Z " fill="#450514" transform="translate(89,89)"/>
<path d="M0,0 L3,3 L3,5 L5,5 L5,7 L7,7 L7,9 L5,9 L5,11 L0,11 L0,9 L-2,9 L-1,4 Z " fill="#370515" transform="translate(14,100)"/>
<path d="M0,0 L1,0 L1,6 L3,6 L3,12 L1,12 L1,15 L-1,15 L-1,17 L-3,17 L-3,11 L-1,11 L-1,1 Z " fill="#430514" transform="translate(103,92)"/>
<path d="M0,0 L1,2 L3,2 L6,6 L6,9 L8,9 L8,11 L10,11 L10,14 L12,15 L8,15 L8,13 L6,13 L6,11 L4,11 L4,9 L1,9 Z " fill="#95090C" transform="translate(47,76)"/>
<path d="M0,0 L4,1 L6,2 L6,4 L3,6 L-8,6 L-8,4 L-4,4 L-4,2 L0,2 Z " fill="#3B0515" transform="translate(25,83)"/>
<path d="M0,0 L2,0 L2,5 L0,5 L0,7 L2,7 L2,9 L4,9 L4,18 L2,18 L2,13 L0,13 L0,9 L-2,9 L-2,4 L0,4 Z " fill="#CD2D08" transform="translate(85,10)"/>
<path d="M0,0 L4,1 L5,3 L2,3 L2,8 L4,8 L4,10 L0,10 L-1,12 L-1,6 L-3,6 L-4,10 L-4,4 L-1,3 Z " fill="#990B0C" transform="translate(49,33)"/>
<path d="M0,0 L3,0 L3,5 L1,5 L2,11 L4,11 L3,14 L3,12 L0,12 L0,14 L-2,14 L-2,5 L0,5 Z " fill="#A7100B" transform="translate(12,58)"/>
<path d="M0,0 L2,0 L2,10 L4,11 L2,11 L2,15 L0,15 L-2,11 L-2,4 L0,4 Z " fill="#D83907" transform="translate(36,13)"/>
<path d="M0,0 L13,0 L13,2 L10,2 L10,4 L8,4 L8,2 L4,2 L4,4 L6,4 L6,7 L0,7 L2,5 L2,2 L0,2 Z " fill="#5B0512" transform="translate(55,85)"/>
<path d="M0,0 L2,0 L2,2 L4,2 L4,4 L11,4 L11,2 L13,2 L13,0 L15,0 L15,4 L13,4 L13,6 L2,6 L2,4 L0,4 Z " fill="#480614" transform="translate(57,61)"/>
<path d="M0,0 L5,0 L4,4 L3,3 L3,15 L1,17 L0,15 Z " fill="#88080D" transform="translate(45,50)"/>
<path d="M0,0 L2,0 L1,9 L4,10 L4,11 L-1,11 L-1,20 L-2,20 L-2,4 L0,4 Z " fill="#77060F" transform="translate(46,39)"/>
<path d="M0,0 L2,0 L2,2 L4,2 L4,5 L6,5 L6,7 L8,7 L8,10 L2,9 L2,7 L-2,5 L0,4 Z " fill="#E94C06" transform="translate(53,19)"/>
<path d="M0,0 L6,0 L6,2 L8,2 L8,4 L10,4 L10,7 L12,7 L12,9 L8,9 L8,7 L6,7 L6,5 L3,4 L3,2 L0,2 Z " fill="#D64C09" transform="translate(49,43)"/>
<path d="M0,0 L6,0 L6,6 L5,7 L6,13 L4,13 L4,9 L0,8 L0,6 L2,6 L2,2 L0,2 Z " fill="#F47E08" transform="translate(57,28)"/>
<path d="M0,0 L7,0 L7,2 L9,2 L9,4 L11,4 L12,8 L5,7 L5,5 L3,4 L5,3 L1,1 L0,4 Z " fill="#B1190A" transform="translate(48,32)"/>
<path d="M0,0 L3,0 L3,9 L-1,10 L-3,9 L-2,4 Z " fill="#370916" transform="translate(48,6)"/>
<path d="M0,0 L2,0 L2,5 L4,5 L3,9 L3,7 L0,7 L0,9 L-2,9 L-2,7 L-4,7 L-4,3 L0,2 Z " fill="#480514" transform="translate(40,78)"/>
<path d="M0,0 L2,0 L2,7 L0,11 L-2,11 L-2,13 L-4,13 L-4,7 L-2,7 L-2,4 L0,4 Z " fill="#DD4808" transform="translate(93,30)"/>
<path d="M0,0 L2,0 L2,2 L4,2 L4,0 L6,0 L6,7 L4,7 L4,11 L2,11 L2,5 L0,5 Z " fill="#F26E07" transform="translate(72,21)"/>
<path d="M0,0 L4,1 L4,5 L-5,5 L-6,1 Z " fill="#D42B07" transform="translate(64,77)"/>
<path d="M0,0 L4,0 L5,5 L-1,6 L-3,5 L-3,3 L-5,2 Z " fill="#430615" transform="translate(24,47)"/>
<path d="M0,0 L4,0 L4,2 L6,2 L7,6 L6,9 L3,9 L0,4 Z " fill="#680611" transform="translate(79,87)"/>
<path d="M0,0 L4,0 L4,4 L6,4 L6,6 L-2,7 L-1,2 Z " fill="#77060F" transform="translate(6,85)"/>
<path d="M0,0 L3,0 L3,9 L-2,9 L-2,4 Z " fill="#720610" transform="translate(117,111)"/>
<path d="M0,0 L4,1 L4,4 L6,4 L6,10 L0,10 L0,8 L2,8 L2,2 L0,2 Z " fill="#A8140B" transform="translate(102,81)"/>
<path d="M0,0 L2,0 L1,10 L-3,9 L-3,7 L-5,7 L-5,3 L-1,2 Z " fill="#DB3707" transform="translate(17,67)"/>
<path d="M0,0 L2,4 L3,2 L6,2 L6,7 L1,7 L1,12 L-2,13 L-2,9 L0,9 Z " fill="#520D14" transform="translate(89,19)"/>
<path d="M0,0 L2,0 L2,4 L0,4 L0,15 L-2,15 L-2,13 L-4,13 L-4,11 L-2,11 L-2,2 L0,2 Z " fill="#F36F07" transform="translate(70,15)"/>
<path d="M0,0 L4,0 L7,3 L10,2 L9,6 L0,6 L2,5 L2,2 L0,2 Z " fill="#970A0C" transform="translate(59,87)"/>
<path d="M0,0 L1,2 L4,2 L4,7 L2,7 L2,9 L-1,9 L-2,11 L-1,2 Z " fill="#C83309" transform="translate(100,54)"/>
<path d="M0,0 L2,0 L2,2 L4,2 L4,4 L6,4 L6,9 L4,9 L4,11 L2,11 L2,4 L0,4 Z " fill="#E34B07" transform="translate(21,54)"/>
<path d="M0,0 L2,0 L2,6 L0,6 L0,11 L-3,11 L-3,8 L-5,8 L-5,6 L-2,6 L-2,4 L0,4 Z " fill="#C22109" transform="translate(85,28)"/>
<path d="M0,0 L2,0 L2,4 L4,4 L4,6 L2,8 L-2,9 L-2,2 L0,2 Z " fill="#B41D0A" transform="translate(87,74)"/>
<path d="M0,0 L2,0 L2,3 L6,3 L6,5 L8,5 L8,7 L6,7 L6,11 L4,11 L4,5 L1,5 L1,3 L-1,3 Z " fill="#C72A08" transform="translate(47,1)"/>
<path d="M0,0 L2,0 L3,11 L-3,11 L-2,9 L0,9 Z " fill="#150517" transform="translate(25,109)"/>
<path d="M0,0 L3,0 L3,2 L5,2 L5,9 L2,9 L2,5 L0,5 Z " fill="#D14109" transform="translate(29,69)"/>
<path d="M0,0 L9,0 L9,2 L12,2 L13,0 L12,6 L10,6 L10,4 L8,4 L8,2 L0,2 Z " fill="#D32C07" transform="translate(60,72)"/>
<path d="M0,0 L1,2 L3,2 L3,13 L1,12 L1,8 L-1,8 Z " fill="#B8160A" transform="translate(48,61)"/>
<path d="M0,0 L4,1 L4,7 L2,8 L1,17 L0,17 Z " fill="#1D0516" transform="translate(81,44)"/>
<path d="M0,0 L3,0 L3,3 L1,3 L0,8 L3,9 L-3,9 L-3,3 L0,2 Z " fill="#770E0F" transform="translate(90,56)"/>
<path d="M0,0 L2,0 L2,2 L4,2 L4,4 L6,4 L6,6 L8,6 L8,10 L6,10 L6,8 L4,8 L4,6 L2,6 L2,4 L0,4 Z " fill="#F47608" transform="translate(38,24)"/>
<path d="M0,0 L1,0 L2,7 L3,11 L5,11 L6,17 L3,17 L3,13 L1,13 L0,8 Z " fill="#94140D" transform="translate(33,17)"/>
<path d="M0,0 L1,2 L3,2 L3,9 L1,9 L1,13 L-1,13 L-2,15 L-2,11 L0,11 L-1,7 L1,7 Z " fill="#7C0B0F" transform="translate(18,54)"/>
<path d="M0,0 L2,0 L2,4 L0,4 L0,7 L-2,7 L-2,9 L-6,10 L-6,7 L-4,7 L-4,5 L-2,5 L-2,2 L0,2 Z " fill="#B1120A" transform="translate(74,32)"/>
<path d="M0,0 L2,0 L2,5 L4,5 L4,9 L0,9 L0,7 L-2,7 L-2,5 L0,5 Z " fill="#7C090F" transform="translate(27,69)"/>
<path d="M0,0 L2,0 L2,4 L0,4 L0,7 L2,7 L2,11 L0,11 L0,9 L-2,9 L-2,2 L0,2 Z " fill="#CD3309" transform="translate(27,8)"/>
<path d="M0,0 L4,2 L4,5 L2,5 L2,9 L-2,9 L-2,7 L0,7 Z " fill="#D44107" transform="translate(93,69)"/>
<path d="M0,0 L13,1 L13,2 L2,3 L2,5 L-2,5 L-2,3 L0,3 Z " fill="#430A14" transform="translate(57,69)"/>
<path d="M0,0 L2,0 L2,2 L4,2 L4,7 L2,7 L2,11 L0,11 Z " fill="#A6120B" transform="translate(72,67)"/>
<path d="M0,0 L1,0 L1,8 L4,8 L4,13 L6,13 L6,15 L3,15 L0,9 Z " fill="#280515" transform="translate(34,48)"/>
<path d="M0,0 L1,2 L7,3 L3,7 L1,7 L1,9 L-1,8 L-1,2 Z " fill="#9D120C" transform="translate(69,54)"/>
<path d="M0,0 L1,4 L3,4 L4,2 L4,4 L6,4 L6,6 L3,6 L2,11 L0,9 Z " fill="#600511" transform="translate(79,39)"/>
<path d="M0,0 L2,0 L2,4 L4,5 L0,6 L0,11 L-2,11 L-2,4 L0,4 Z " fill="#E95507" transform="translate(53,8)"/>
<path d="M0,0 L2,0 L1,12 L-1,8 L-1,4 L-4,4 L-4,2 Z " fill="#160516" transform="translate(34,79)"/>
<path d="M0,0 L2,0 L2,2 L4,2 L4,4 L2,4 L2,7 L-9,7 L-9,6 L0,6 Z " fill="#9A140C" transform="translate(68,76)"/>
<path d="M0,0 L2,0 L2,2 L4,2 L4,9 L1,9 Z " fill="#96170C" transform="translate(102,67)"/>
<path d="M0,0 L1,2 L4,2 L4,4 L2,4 L2,6 L4,6 L4,10 L2,10 L2,8 L0,8 Z " fill="#1B0517" transform="translate(83,81)"/>
<path d="M0,0 L1,2 L3,2 L6,7 L4,7 L4,9 L1,9 Z " fill="#76060F" transform="translate(47,76)"/>
<path d="M0,0 L1,0 L2,9 L1,15 L0,15 L0,9 L-2,9 Z " fill="#540713" transform="translate(78,61)"/>
<path d="M0,0 L2,0 L2,2 L4,2 L4,6 L-4,5 L-4,3 L0,3 Z " fill="#A8150B" transform="translate(57,54)"/>
<path d="M0,0 L4,0 L4,2 L2,2 L2,5 L0,5 L0,7 L-4,7 L-4,5 L-2,5 L-2,3 L0,3 Z " fill="#DE5308" transform="translate(72,45)"/>
<path d="M0,0 L2,0 L2,2 L5,2 L5,6 L7,6 L7,8 L4,8 L4,6 L2,6 L2,4 L0,4 Z " fill="#B92B0A" transform="translate(27,37)"/>
<path d="M0,0 L4,1 L6,3 L4,3 L4,9 L2,9 L2,5 L0,5 Z " fill="#600912" transform="translate(85,34)"/>
<path d="M0,0 L2,0 L2,5 L0,5 L0,9 L-2,9 L-2,7 L-4,7 L-4,5 L-2,5 L-2,3 L0,3 Z " fill="#EB5206" transform="translate(85,23)"/>
<path d="M0,0 L3,0 L3,2 L1,2 L1,4 L-1,4 L-1,7 L-4,7 L-5,4 L-3,4 L-3,2 Z " fill="#340515" transform="translate(39,98)"/>
<path d="M0,0 L2,0 L4,2 L7,2 L6,5 L5,7 L2,7 L2,3 L0,3 Z " fill="#98100C" transform="translate(61,47)"/>
<path d="M0,0 L6,0 L6,2 L2,2 L2,4 L-4,4 L-4,2 L0,2 Z " fill="#250617" transform="translate(21,85)"/>
<path d="M0,0 L2,0 L2,6 L-2,6 L-2,4 L-4,4 L-4,2 L0,2 Z " fill="#410814" transform="translate(61,50)"/>
<path d="M0,0 L2,0 L2,2 L4,2 L4,8 L-2,7 L2,6 L2,4 L0,4 Z " fill="#76080F" transform="translate(38,41)"/>
<path d="M0,0 L2,0 L2,2 L5,2 L6,6 L2,6 L2,4 L0,4 L0,2 L-2,1 Z " fill="#CC2508" transform="translate(42,24)"/>
<path d="M0,0 L2,0 L2,5 L0,5 L0,7 L2,7 L2,9 L-2,9 L-2,4 L0,4 Z " fill="#AB1A0B" transform="translate(85,10)"/>
<path d="M0,0 L2,0 L2,2 L7,4 L7,6 L2,6 L2,4 L0,4 Z " fill="#4F0513" transform="translate(12,105)"/>
<path d="M0,0 L5,2 L8,3 L8,5 L6,5 L6,7 L4,7 L4,4 L2,4 L2,2 L0,2 Z M3,0 Z " fill="#560512" transform="translate(87,98)"/>
<path d="M0,0 L2,0 L4,4 L1,4 L-1,8 L-2,2 L0,2 Z " fill="#3F0514" transform="translate(13,92)"/>
<path d="M0,0 L3,0 L4,7 L0,7 Z " fill="#EE6308" transform="translate(63,56)"/>
<path d="M0,0 L1,2 L4,2 L4,8 L1,8 Z " fill="#DA3E08" transform="translate(11,81)"/>
<path d="M0,0 L1,2 L3,2 L3,4 L5,4 L5,10 L3,10 L0,3 Z " fill="#FAB60F" transform="translate(62,24)"/>
<path d="M0,0 L2,0 L2,7 L0,7 L0,9 L-2,9 L-2,5 L0,5 Z " fill="#BF1E09" transform="translate(70,8)"/>
<path d="M0,0 L2,1 L2,7 L-2,7 L-2,5 L-6,4 L-1,3 Z " fill="#CE3E09" transform="translate(95,80)"/>
<path d="M0,0 L3,0 L3,2 L5,2 L5,5 L0,5 Z " fill="#E85407" transform="translate(48,56)"/>
<path d="M0,0 L4,0 L3,4 L2,3 L2,11 L0,11 Z " fill="#9B0D0C" transform="translate(46,50)"/>
<path d="M0,0 L2,0 L2,7 L0,9 L-2,7 L-2,4 L0,4 Z " fill="#BE280A" transform="translate(93,30)"/>
<path d="M0,0 L3,0 L3,5 L5,5 L5,12 L3,11 L4,6 L2,6 L2,3 L0,3 Z " fill="#5E0E11" transform="translate(65,1)"/>
<path d="M0,0 L5,0 L8,3 L8,5 L4,5 L4,2 Z " fill="#3D0515" transform="translate(15,111)"/>
<path d="M0,0 L3,2 L3,6 L-1,6 L-1,1 Z " fill="#450514" transform="translate(79,81)"/>
<path d="M0,0 L2,0 L3,9 L0,9 Z " fill="#F57C08" transform="translate(19,67)"/>
<path d="M0,0 L2,0 L2,2 L4,2 L4,4 L0,4 L0,6 L-2,6 L-2,2 L0,2 Z " fill="#D22A07" transform="translate(57,65)"/>
<path d="M0,0 L2,0 L0,8 L-2,8 L-2,2 L0,2 Z " fill="#C31D08" transform="translate(76,61)"/>
<path d="M0,0 L2,0 L2,2 L4,2 L4,7 L2,7 L2,5 L0,5 Z " fill="#88090D" transform="translate(38,56)"/>
<path d="M0,0 L2,0 L2,4 L-2,3 L-3,11 L-4,11 L-4,4 L-3,2 L0,2 Z " fill="#9E0C0C" transform="translate(19,41)"/>
<path d="M0,0 L2,0 L2,2 L4,2 L4,4 L6,4 L6,6 L2,6 L2,4 L0,4 Z " fill="#DE3B07" transform="translate(38,37)"/>
<path d="M0,0 L2,0 L2,2 L4,3 L2,3 L2,5 L0,5 L0,7 L-2,7 Z " fill="#E86308" transform="translate(68,34)"/>
<path d="M0,0 L1,2 L4,2 L4,6 L1,6 L0,8 Z " fill="#3D0716" transform="translate(81,17)"/>
<path d="M0,0 L2,0 L2,4 L4,4 L4,6 L0,6 L0,4 L-2,4 L-2,2 L0,2 Z " fill="#340616" transform="translate(61,8)"/>
<path d="M0,0 L1,4 L-1,4 L-2,7 L-2,5 L-4,5 L-4,1 Z " fill="#C02109" transform="translate(16,69)"/>
<path d="M0,0 L3,0 L3,5 L1,5 L0,9 Z " fill="#890E0E" transform="translate(12,58)"/>
<path d="M0,0 L2,2 L4,1 L4,4 L-3,5 L-6,3 L0,2 Z " fill="#4D0514" transform="translate(29,50)"/>
<path d="M0,0 L6,0 L7,4 L3,4 L3,2 L0,2 Z " fill="#E54D06" transform="translate(49,43)"/>
<path d="M0,0 L2,3 L2,7 L0,7 L0,5 L-2,5 L-2,3 L-4,2 L0,2 Z " fill="#7D0A0F" transform="translate(65,12)"/>
<path d="M0,0 L3,0 L3,5 L1,5 L1,9 L-1,8 Z " fill="#6C1511" transform="translate(35,8)"/>
<path d="M0,0 L5,2 L5,8 L3,4 L0,4 Z " fill="#5B0512" transform="translate(25,101)"/>
<path d="M0,0 L3,0 L3,2 L1,2 L1,6 L-2,6 L-2,2 L0,2 Z " fill="#8B090D" transform="translate(31,63)"/>
<path d="M0,0 L4,0 L4,2 L6,2 L6,4 L1,4 Z " fill="#F3950C" transform="translate(51,52)"/>
<path d="M0,0 L1,2 L6,2 L6,4 L3,4 L3,6 L1,6 Z " fill="#3F0815" transform="translate(66,50)"/>
<path d="M0,0 L3,0 L4,3 L3,11 L2,11 L2,3 L0,3 Z " fill="#77090F" transform="translate(95,47)"/>
<path d="M0,0 L2,0 L2,4 L0,4 L0,6 L-2,6 L-2,1 Z " fill="#F67E08" transform="translate(55,13)"/>
<path d="M0,0 L2,0 L2,2 L4,2 L4,4 L6,4 L6,6 L3,6 L3,4 L0,4 Z " fill="#B2180A" transform="translate(55,8)"/>
<path d="M0,0 L4,1 L4,3 L-3,3 L-3,1 Z " fill="#EB5506" transform="translate(64,77)"/>
<path d="M0,0 L1,0 L1,8 L-1,8 L-1,6 L-3,6 L-3,4 L-1,3 Z " fill="#1F0516" transform="translate(43,59)"/>
<path d="M0,0 L2,2 L5,2 L4,8 L0,4 Z " fill="#2D0817" transform="translate(76,8)"/>
<path d="M0,0 L1,2 L5,2 L5,4 L-2,4 L-2,2 L0,2 Z " fill="#90090C" transform="translate(99,85)"/>
<path d="M0,0 L4,0 L4,3 L-2,5 L-2,3 L1,3 Z " fill="#520712" transform="translate(55,80)"/>
<path d="M0,0 L4,1 L4,7 L2,6 L2,2 L0,2 Z " fill="#9E0D0C" transform="translate(47,67)"/>
<path d="M0,0 L4,0 L4,2 L6,2 L6,4 L2,4 L2,2 L0,2 Z " fill="#B91809" transform="translate(89,65)"/>
<path d="M0,0 L2,0 L2,2 L4,2 L4,6 L2,6 L2,4 L0,4 Z " fill="#600712" transform="translate(57,61)"/>
<path d="M0,0 L2,0 L2,4 L0,4 L0,6 L-2,6 L-2,2 L0,2 Z " fill="#AF110A" transform="translate(55,63)"/>
<path d="M0,0 L2,0 L2,4 L-4,4 L-4,2 L0,2 Z " fill="#ED6E09" transform="translate(74,52)"/>
<path d="M0,0 L1,2 L3,2 L3,5 L5,5 L5,7 L2,7 L0,4 Z " fill="#8E0D0D" transform="translate(33,34)"/>
<path d="M0,0 L5,0 L5,5 L3,5 L3,2 L0,2 Z " fill="#E44406" transform="translate(63,21)"/>
<path d="M0,0 L4,0 L4,6 L2,6 L2,2 L0,2 Z " fill="#F57408" transform="translate(72,13)"/>
<path d="M0,0 L4,0 L4,2 L6,2 L6,4 L2,4 L2,2 L0,2 Z " fill="#D63A08" transform="translate(68,4)"/>
<path d="M0,0 L3,0 L3,4 L0,5 L-1,1 Z " fill="#73050F" transform="translate(17,98)"/>
<path d="M0,0 L2,0 L0,6 L-2,6 L-2,4 L-4,3 L0,2 Z " fill="#EE6207" transform="translate(91,78)"/>
<path d="M0,0 L1,3 L3,3 L3,5 L-1,5 L-1,2 L-3,1 Z " fill="#D32907" transform="translate(73,58)"/>
<path d="M0,0 L2,1 L2,6 L-2,6 L-2,4 L0,4 Z " fill="#A90F0B" transform="translate(76,37)"/>
<path d="M0,0 L1,2 L3,2 L3,5 L-3,4 L-1,3 Z " fill="#EC5306" transform="translate(58,24)"/>
<path d="M0,0 L2,0 L2,6 L-2,5 L0,4 Z " fill="#DF3B07" transform="translate(53,19)"/>
<path d="M0,0 L4,0 L4,2 L2,2 L2,5 L0,5 Z " fill="#BA190A" transform="translate(27,78)"/>
<path d="M0,0 L1,2 L3,2 L3,9 L1,9 Z " fill="#490513" transform="translate(45,72)"/>
<path d="M0,0 L3,0 L4,5 L2,5 L2,3 L0,3 Z " fill="#7D0F0F" transform="translate(25,47)"/>
<path d="M0,0 L2,0 L2,6 L-2,4 L0,4 Z " fill="#A40D0B" transform="translate(42,17)"/>
<path d="M0,0 L6,0 L6,2 L2,3 L0,2 Z " fill="#1D0517" transform="translate(36,96)"/>
<path d="M0,0 L3,1 L3,4 L1,4 L0,6 Z " fill="#E34906" transform="translate(94,70)"/>
<path d="M0,0 L2,3 L3,7 L0,7 Z " fill="#E34206" transform="translate(17,47)"/>
<path d="M0,0 L2,2 L0,4 L-3,4 L-3,1 Z " fill="#3E0515" transform="translate(11,39)"/>
<path d="M0,0 L2,0 L2,6 L-1,6 Z " fill="#E85006" transform="translate(78,30)"/>
<path d="M0,0 L6,2 L4,3 L4,5 L2,5 L2,2 L0,2 Z " fill="#CD2407" transform="translate(34,34)"/>
<path d="M0,0 L3,0 L4,3 L2,3 L1,6 Z " fill="#F37408" transform="translate(47,21)"/>
<path d="M0,0 L3,0 L1,6 L0,3 L-2,2 L0,2 Z " fill="#86180F" transform="translate(44,8)"/>
<path d="M0,0 L2,0 L0,5 L-2,5 L-2,2 L0,2 Z " fill="#81070D" transform="translate(80,98)"/>
<path d="M0,0 L2,0 L2,2 L4,2 L4,4 L0,4 Z " fill="#1C0516" transform="translate(87,92)"/>
<path d="M0,0 L2,0 L2,4 L-2,4 L-2,2 L0,2 Z " fill="#D32B07" transform="translate(104,87)"/>
<path d="M0,0 L3,0 L2,3 L-1,3 L-2,5 L-2,2 L0,2 Z " fill="#6D0C11" transform="translate(31,78)"/>
<path d="M0,0 L2,0 L2,4 L-2,4 L-2,2 L0,2 Z " fill="#9C0C0C" transform="translate(29,74)"/>
<path d="M0,0 L2,0 L2,4 L-2,4 L-2,2 L0,2 Z " fill="#330517" transform="translate(10,52)"/>
<path d="M0,0 L3,4 L3,6 L0,6 Z " fill="#87080D" transform="translate(44,43)"/>
<path d="M0,0 L1,4 L3,4 L3,6 L-1,6 Z " fill="#B3140A" transform="translate(50,37)"/>
<path d="M0,0 L4,0 L4,4 L2,4 L2,2 L0,2 Z " fill="#F8970B" transform="translate(42,30)"/>
<path d="M0,0 L2,0 L2,2 L4,2 L4,4 L0,4 Z " fill="#C72D09" transform="translate(29,28)"/>
<path d="M0,0 L6,2 L2,4 L2,2 L0,2 Z " fill="#BD1809" transform="translate(38,21)"/>
<path d="M0,0 L2,0 L2,4 L-2,4 L-2,2 L0,2 Z " fill="#B2180B" transform="translate(27,8)"/>
<path d="M0,0 L2,0 L1,4 L-2,4 L-2,1 Z " fill="#5D1012" transform="translate(40,4)"/>
<path d="M0,0 L3,0 L3,4 L1,4 L1,2 L-1,1 Z " fill="#570612" transform="translate(20,48)"/>
<path d="M0,0 L4,1 L2,2 L2,4 L0,4 Z " fill="#F68D0A" transform="translate(49,24)"/>
<path d="M0,0 L3,0 L3,3 L1,3 L0,5 Z " fill="#BC2C09" transform="translate(82,23)"/>
<path d="M0,0 L3,0 L3,5 L2,3 L0,3 Z " fill="#210517" transform="translate(66,7)"/>
<path d="M0,0 L4,0 L4,3 L1,3 Z " fill="#4B0513" transform="translate(34,102)"/>
<path d="M0,0 L4,0 L2,4 L2,2 L0,2 Z " fill="#87070D" transform="translate(59,87)"/>
<path d="M0,0 L4,2 L2,2 L2,4 L0,4 Z " fill="#84170F" transform="translate(72,50)"/>
<path d="M0,0 L3,0 L3,4 L1,4 Z " fill="#F9AC0E" transform="translate(56,30)"/>
<path d="M0,0 L2,4 L-2,4 L-2,2 L0,2 Z " fill="#D73107" transform="translate(46,26)"/>
<path d="M0,0 L4,2 L2,2 L2,4 L0,4 Z " fill="#E03D06" transform="translate(74,19)"/>
<path d="M0,0 L2,0 L2,5 L1,3 L-1,3 Z " fill="#85220F" transform="translate(47,1)"/>
<path d="M0,0 L2,0 L1,4 L-1,4 Z " fill="#A3110B" transform="translate(67,89)"/>
<path d="M0,0 L3,2 L3,4 L0,4 Z " fill="#1D0517" transform="translate(53,79)"/>
<path d="M0,0 L2,1 L2,3 L-2,3 L-2,1 Z " fill="#CF2707" transform="translate(70,66)"/>
<path d="M0,0 L2,0 L1,3 L-2,3 L-2,1 Z " fill="#3E0514" transform="translate(76,48)"/>
<path d="M0,0 L3,0 L3,3 L0,3 Z " fill="#751410" transform="translate(16,27)"/>
<path d="M0,0 L3,0 L3,3 L0,3 Z " fill="#6E1311" transform="translate(80,6)"/>
<path d="M0,0 L3,0 L3,3 L0,3 Z " fill="#90330F" transform="translate(65,1)"/>
<path d="M0,0 L3,1 L2,4 Z " fill="#D42907" transform="translate(19,78)"/>
<path d="M0,0 L3,0 L3,3 L0,2 Z " fill="#79060E" transform="translate(82,67)"/>
<path d="M0,0 L3,0 L3,3 L0,2 Z " fill="#2B0518" transform="translate(117,44)"/>
<path d="M0,0 L2,0 L2,3 L-1,2 Z " fill="#2E0516" transform="translate(106,34)"/>
<path d="M0,0 L2,0 L2,3 L-1,2 Z " fill="#F16106" transform="translate(59,26)"/>
<path d="M0,0 L3,2 L0,3 L-2,1 Z " fill="#4A0714" transform="translate(47,13)"/>
</svg>
