<?xml version="1.0" encoding="UTF-8"?>
<!-- Generator: visioncortex VTracer 0.6.5 -->
<svg version="1.1" xmlns="http://www.w3.org/2000/svg" width="150" height="84">
<path d="M0,0 L150,0 L150,84 L0,84 Z " fill="#010507" transform="translate(0,0)"/>
<path d="M0,0 L31,0 L31,84 L-119,84 L-119,70 L-116,70 L-116,68 L-113,68 L-113,70 L-97,70 L-89,73 L-89,71 L-87,71 L-88,75 L-86,76 L-89,76 L-89,78 L-79,80 L-79,82 L-54,82 L-42,83 L-42,81 L-56,79 L-56,77 L-38,76 L-38,74 L-36,74 L-35,71 L-30,70 L-27,71 L-27,73 L-22,73 L-22,69 L-18,69 L-17,66 L-17,68 L-13,68 L-11,64 L-4,66 L-5,63 L0,62 L-3,57 L-3,53 L-3,51 L0,51 L0,55 L2,55 L3,51 L7,50 L7,45 L8,44 L18,43 L19,48 L22,48 L20,59 L15,61 L15,63 L13,63 L12,60 L16,56 L17,52 L11,53 L8,53 L6,53 L6,57 L3,57 L3,59 L8,58 L7,63 L4,63 L4,66 L-1,69 L-5,71 L-12,72 L-11,75 L-18,77 L-24,79 L-12,77 L-8,80 L-7,77 L-4,75 L0,76 L0,78 L5,78 L7,74 L10,72 L14,72 L14,70 L20,65 L22,65 L24,50 L23,47 L26,46 L27,44 L24,43 L24,32 L22,32 L21,40 L17,38 L17,32 L16,32 L15,22 L13,22 L14,13 L10,9 L5,6 L0,2 Z " fill="#353D3F" transform="translate(119,0)"/>
<path d="M0,0 L3,1 L4,5 L6,5 L4,16 L-1,18 L-1,20 L-3,20 L-4,17 L0,13 L1,9 L-5,10 L-8,10 L-10,10 L-10,14 L-13,14 L-13,16 L-8,15 L-9,20 L-12,20 L-12,23 L-17,26 L-21,28 L-28,29 L-27,32 L-34,34 L-40,36 L-28,34 L-24,37 L-23,34 L-20,32 L-17,33 L-19,33 L-19,35 L-17,35 L-17,40 L-20,40 L-22,41 L-135,41 L-135,27 L-132,27 L-132,25 L-129,25 L-129,27 L-113,27 L-105,30 L-105,28 L-103,28 L-104,32 L-102,33 L-105,33 L-105,35 L-95,37 L-95,39 L-70,39 L-58,40 L-58,38 L-72,36 L-72,34 L-54,33 L-54,31 L-52,31 L-51,28 L-46,27 L-43,28 L-43,30 L-38,30 L-38,26 L-34,26 L-33,23 L-33,25 L-29,25 L-27,21 L-20,23 L-21,20 L-16,19 L-19,14 L-19,10 L-19,8 L-16,8 L-16,12 L-14,12 L-13,8 L-9,7 L-9,2 L-8,1 Z " fill="#162727" transform="translate(135,43)"/>
<path d="M0,0 L37,0 L37,2 L35,2 L35,5 L38,5 L38,7 L35,7 L34,11 L31,13 L32,16 L24,19 L19,20 L20,17 L22,17 L24,11 L27,10 L28,7 L17,7 L16,4 L12,8 L16,12 L15,17 L12,19 L6,19 L6,21 L8,22 L8,24 L10,25 L12,30 L10,30 L10,32 L5,32 L5,28 L7,28 L7,26 L0,26 Z " fill="#010404" transform="translate(0,0)"/>
<path d="M0,0 L3,1 L4,5 L6,5 L4,16 L-1,18 L-1,20 L-3,20 L-4,17 L0,13 L1,9 L-5,10 L-8,10 L-10,10 L-10,14 L-13,14 L-13,16 L-8,15 L-9,20 L-12,20 L-12,23 L-17,26 L-21,28 L-28,29 L-27,32 L-34,34 L-45,37 L-47,35 L-44,35 L-44,33 L-50,36 L-55,36 L-54,31 L-52,31 L-51,28 L-46,27 L-43,28 L-43,30 L-38,30 L-38,26 L-34,26 L-33,23 L-33,25 L-29,25 L-27,21 L-20,23 L-21,20 L-16,19 L-19,14 L-19,10 L-19,8 L-16,8 L-16,12 L-14,12 L-13,8 L-9,7 L-9,2 L-8,1 Z " fill="#172928" transform="translate(135,43)"/>
<path d="M0,0 L2,0 L3,4 L8,5 L9,10 L13,9 L15,5 L21,6 L21,15 L18,15 L18,18 L14,19 L14,27 L16,27 L16,29 L-1,30 L-1,2 Z " fill="#081414" transform="translate(1,37)"/>
<path d="M0,0 L4,0 L4,22 L-33,22 L-31,21 L-30,19 L-29,20 L-28,16 L-30,16 L-30,14 L-27,14 L-27,16 L-22,16 L-21,14 L-21,16 L-15,13 L-10,10 L-7,10 L-7,8 L-4,8 L-2,4 Z " fill="#2E3537" transform="translate(146,62)"/>
<path d="M0,0 L20,0 L20,32 L19,29 L17,29 L15,25 L16,23 L13,22 L10,15 L9,9 L4,7 L0,5 Z " fill="#070C0D" transform="translate(130,0)"/>
<path d="M0,0 L18,0 L22,3 L22,8 L25,8 L25,10 L21,10 L21,12 L-3,12 L-3,1 Z " fill="#010405" transform="translate(3,72)"/>
<path d="M0,0 L3,1 L4,5 L6,5 L4,16 L-1,18 L-1,20 L-3,20 L-4,17 L0,13 L1,9 L-5,10 L-8,10 L-10,10 L-10,14 L-13,14 L-13,16 L-8,15 L-9,20 L-13,20 L-13,22 L-18,22 L-15,21 L-19,14 L-19,10 L-19,8 L-16,8 L-16,12 L-14,12 L-13,8 L-9,7 L-9,2 L-8,1 Z " fill="#0F181A" transform="translate(135,43)"/>
<path d="M0,0 L17,0 L17,2 L15,2 L15,5 L18,5 L18,7 L15,7 L14,11 L11,13 L12,16 L4,19 L-1,20 L0,17 L2,17 L4,11 L7,10 L8,7 L-3,7 L-2,2 L0,2 Z " fill="#0C1618" transform="translate(20,0)"/>
<path d="M0,0 L3,0 L3,2 L19,2 L27,5 L27,3 L29,3 L28,7 L30,8 L27,8 L27,10 L37,12 L37,14 L62,14 L66,16 L21,16 L21,14 L25,14 L25,12 L22,12 L20,6 L18,5 L-3,5 L-3,2 L0,2 Z " fill="#1D2E2D" transform="translate(3,68)"/>
<path d="M0,0 L3,0 L3,13 L-18,13 L-17,11 L-10,7 Z " fill="#030405" transform="translate(147,71)"/>
<path d="M0,0 L3,1 L9,13 L10,21 L9,19 L7,19 L6,27 L2,25 L2,19 L1,19 L0,9 L-2,9 Z " fill="#171F21" transform="translate(134,13)"/>
<path d="M0,0 L2,0 L3,4 L8,5 L8,11 L6,11 L8,19 L7,21 L5,21 L4,19 L-1,18 L-1,2 Z " fill="#26343A" transform="translate(1,37)"/>
<path d="M0,0 L5,0 L6,3 L8,3 L9,1 L9,6 L12,6 L12,8 L17,9 L17,11 L0,12 Z " fill="#1F3338" transform="translate(0,55)"/>
<path d="M0,0 L2,0 L2,3 L9,1 L12,5 L10,11 L7,13 L1,12 L-1,5 L-5,7 L-3,3 L0,2 Z " fill="#0B161A" transform="translate(22,22)"/>
<path d="M0,0 L6,0 L8,9 L6,9 L5,13 L5,8 L-5,10 L-9,12 L-9,10 L-11,10 L-11,6 L-8,4 L2,4 L2,2 L0,2 Z " fill="#141F20" transform="translate(104,10)"/>
<path d="M0,0 L3,0 L3,2 L19,2 L27,5 L27,3 L29,3 L28,7 L26,8 L25,11 L28,11 L28,13 L22,12 L20,6 L18,5 L-3,5 L-3,2 L0,2 Z " fill="#373639" transform="translate(3,68)"/>
<path d="M0,0 L1,2 L3,2 L3,15 L0,15 L0,17 L-2,17 L-2,21 L-5,20 L-4,9 L-5,6 L-2,5 L-1,3 L-4,2 Z " fill="#21292B" transform="translate(147,41)"/>
<path d="M0,0 L3,0 L3,4 L11,6 L8,7 L-10,7 L-17,6 L-17,4 L-11,4 L-9,4 L-9,1 Z " fill="#051111" transform="translate(57,76)"/>
<path d="M0,0 L4,1 L6,10 L5,13 L2,13 L-3,12 L-6,11 L-6,9 L-8,9 L-7,6 L-4,6 L-4,9 L-2,9 L-2,3 Z " fill="#1A2325" transform="translate(122,25)"/>
<path d="M0,0 L2,0 L4,5 L6,5 L7,8 L7,19 L0,18 L1,6 L-1,5 Z " fill="#4F5659" transform="translate(143,24)"/>
<path d="M0,0 L2,0 L1,4 L-9,4 L-9,7 L-7,8 L-20,8 L-20,7 L-12,7 L-12,5 L-26,3 L-26,1 L-9,1 L-9,3 Z " fill="#0C1B1B" transform="translate(89,76)"/>
<path d="M0,0 L2,1 L2,3 L7,0 L15,0 L15,3 L9,4 L0,4 L-1,7 L-10,7 L-9,4 L-7,4 L-7,2 L-2,1 Z " fill="#0F171A" transform="translate(91,61)"/>
<path d="M0,0 L2,0 L2,5 L-5,9 L-15,16 L-19,18 L-26,18 L-21,14 L-14,11 L-9,7 L-3,4 L-2,2 L0,2 Z " fill="#484D50" transform="translate(148,66)"/>
<path d="M0,0 L6,1 L8,3 L8,5 L10,6 L12,11 L10,11 L10,13 L5,13 L5,9 L7,9 L7,7 L0,7 Z " fill="#0D1A19" transform="translate(0,19)"/>
<path d="M0,0 L4,0 L4,4 L2,4 L2,6 L0,6 L-1,9 L-11,15 L-15,16 L-14,12 L-10,10 L-7,10 L-7,8 L-4,8 L-2,4 Z " fill="#0E0F11" transform="translate(146,62)"/>
<path d="M0,0 L4,1 L4,7 L2,7 L2,11 L-5,11 L-5,8 L-7,8 L-7,4 L-1,4 L1,5 L1,2 L-1,1 Z " fill="#212E2E" transform="translate(17,44)"/>
<path d="M0,0 L2,0 L1,4 L-2,4 L-4,10 L-10,11 L-9,2 Z " fill="#000204" transform="translate(26,7)"/>
<path d="M0,0 L11,0 L12,5 L14,6 L14,9 L7,8 L0,2 Z " fill="#4C5859" transform="translate(119,0)"/>
<path d="M0,0 L2,0 L3,2 L8,2 L9,0 L11,1 L11,4 L9,4 L13,12 L15,14 L6,12 L8,5 L6,5 L6,7 L2,6 L-2,4 L0,4 Z " fill="#071314" transform="translate(24,66)"/>
<path d="M0,0 L3,0 L3,4 L8,3 L6,8 L11,7 L10,12 L6,12 L6,14 L1,14 L4,13 L0,6 L0,2 Z " fill="#4B5658" transform="translate(116,51)"/>
<path d="M0,0 L22,0 L22,2 L16,4 L2,4 L0,3 Z " fill="#010405" transform="translate(80,80)"/>
<path d="M0,0 L1,2 L8,1 L8,3 L17,4 L16,6 L7,6 L1,7 L-1,6 Z " fill="#040F10" transform="translate(40,67)"/>
<path d="M0,0 L5,0 L6,3 L8,3 L9,1 L9,6 L12,6 L12,8 L15,8 L15,10 L11,9 L8,8 L8,6 L0,6 Z " fill="#3B4E56" transform="translate(0,55)"/>
<path d="M0,0 L4,1 L5,7 L1,10 L-4,10 L-3,6 Z " fill="#0B171C" transform="translate(11,9)"/>
<path d="M0,0 L4,0 L4,3 L7,3 L7,15 L6,12 L4,12 L2,8 L3,6 L0,5 L-1,1 Z " fill="#060A0B" transform="translate(143,17)"/>
<path d="M0,0 L4,1 L5,8 L7,11 L6,15 L5,13 L0,12 Z " fill="#020709" transform="translate(0,43)"/>
<path d="M0,0 L10,0 L10,5 L5,8 L0,3 Z " fill="#0F1B1D" transform="translate(61,4)"/>
<path d="M0,0 L3,0 L3,6 L-1,6 L-2,10 L-4,12 L-8,12 L-8,9 L-6,9 L-6,6 L-2,6 L-2,2 L0,2 Z " fill="#394144" transform="translate(147,56)"/>
<path d="M0,0 L2,0 L2,3 L6,2 L7,4 L5,4 L5,11 L2,11 L2,9 L-1,9 Z " fill="#07131D" transform="translate(10,52)"/>
<path d="M0,0 L2,1 L2,6 L-2,10 L-6,9 L-6,3 L-1,2 Z M-4,8 Z " fill="#162225" transform="translate(30,23)"/>
<path d="M0,0 L8,0 L8,5 L3,5 L2,8 L0,8 Z " fill="#2F3C3A" transform="translate(0,0)"/>
<path d="M0,0 L4,1 L1,1 L1,3 L7,4 L5,5 L5,9 L-5,9 L-5,7 L2,6 L2,4 L-1,4 Z " fill="#182731" transform="translate(29,75)"/>
<path d="M0,0 L6,2 L6,0 L8,0 L7,4 L5,5 L4,8 L7,8 L7,10 L1,9 L-1,1 Z " fill="#263236" transform="translate(24,71)"/>
<path d="M0,0 L8,0 L8,2 L11,3 L11,4 L0,6 L-1,3 Z " fill="#313D3E" transform="translate(22,0)"/>
<path d="M0,0 L13,0 L13,2 L17,1 L18,3 L0,3 Z " fill="#16222B" transform="translate(0,81)"/>
<path d="M0,0 L4,1 L3,5 L2,11 L-2,10 L-2,3 Z " fill="#1F2729" transform="translate(122,25)"/>
<path d="M0,0 L3,0 L5,16 L1,14 L1,8 L0,8 Z " fill="#303A3C" transform="translate(135,24)"/>
<path d="M0,0 L3,0 L3,6 L-8,6 L-7,4 Z " fill="#0B0E10" transform="translate(147,78)"/>
<path d="M0,0 L3,0 L3,4 L11,6 L8,7 L1,7 L1,4 L-8,3 L-8,2 L-1,1 Z " fill="#0D1819" transform="translate(57,76)"/>
<path d="M0,0 L6,0 L8,2 L9,0 L9,3 L4,6 L-2,8 L-2,4 L1,2 Z " fill="#222C2E" transform="translate(114,63)"/>
<path d="M0,0 L3,2 L-2,6 L-6,8 L-13,8 L-8,4 L-1,1 Z " fill="#4F4D52" transform="translate(135,76)"/>
<path d="M0,0 L3,0 L3,5 L0,5 L-2,6 L-9,6 L-8,3 L-2,1 Z " fill="#030709" transform="translate(115,78)"/>
<path d="M0,0 L5,2 L4,7 L-2,7 L0,6 L-1,5 L-7,5 L-6,2 L-6,4 L-2,4 Z " fill="#111E1F" transform="translate(108,64)"/>
<path d="M0,0 L3,1 L4,5 L2,5 L4,11 L1,11 L0,13 L0,9 L-2,9 Z " fill="#162022" transform="translate(134,13)"/>
<path d="M0,0 L4,0 L4,3 L6,3 L6,1 L9,1 L7,7 L4,7 L4,4 L0,4 Z " fill="#263535" transform="translate(127,46)"/>
<path d="M0,0 L2,0 L2,7 L-3,9 L-3,11 L-5,11 L-6,8 L-2,4 Z " fill="#2A3A3A" transform="translate(137,52)"/>
<path d="M0,0 L5,1 L4,4 L1,4 L-1,4 L-1,8 L-4,7 L-5,6 L-4,2 Z " fill="#213232" transform="translate(126,49)"/>
<path d="M0,0 L7,2 L8,0 L10,0 L8,6 L-1,3 L-2,5 L-2,2 L0,2 Z " fill="#020E0D" transform="translate(127,51)"/>
<path d="M0,0 L7,1 L7,6 L1,6 Z " fill="#2B373C" transform="translate(11,49)"/>
<path d="M0,0 L2,0 L3,4 L6,4 L6,6 L4,6 L5,11 L3,14 L2,7 L-1,6 Z " fill="#1F2B31" transform="translate(1,37)"/>
<path d="M0,0 L2,0 L5,12 L1,10 L1,6 L-1,5 Z " fill="#5A6466" transform="translate(143,24)"/>
<path d="M0,0 L2,0 L2,5 L7,5 L6,7 L-3,7 L-2,2 L0,2 Z " fill="#091418" transform="translate(20,0)"/>
<path d="M0,0 L2,0 L2,2 L5,2 L5,4 L2,4 L2,6 L-2,7 L-4,6 L-4,4 Z " fill="#25282B" transform="translate(137,66)"/>
<path d="M0,0 L6,0 L6,2 L9,3 L9,4 L0,4 Z " fill="#2A3942" transform="translate(34,80)"/>
<path d="M0,0 L1,0 L1,7 L-2,10 L-4,10 L-3,5 L-2,1 Z " fill="#4F585A" transform="translate(149,44)"/>
<path d="M0,0 L3,0 L5,3 L7,3 L6,9 L5,7 L1,7 L2,2 L0,2 Z " fill="#1E2527" transform="translate(134,45)"/>
<path d="M0,0 L1,2 L3,2 L4,9 L3,13 L1,13 L1,7 Z " fill="#2E3739" transform="translate(146,27)"/>
<path d="M0,0 L8,0 L8,2 L11,5 L5,5 L5,2 L0,2 Z " fill="#0F1B1C" transform="translate(42,12)"/>
<path d="M0,0 L4,2 L5,4 L3,4 L3,6 L-2,6 L-2,2 L0,2 Z " fill="#323E41" transform="translate(7,26)"/>
<path d="M0,0 L5,2 L6,4 L4,4 L3,7 L-1,5 Z " fill="#070E10" transform="translate(125,7)"/>
<path d="M0,0 L6,3 L6,5 L1,5 L0,7 L-3,3 L0,3 Z " fill="#263234" transform="translate(133,6)"/>
<path d="M0,0 L8,1 L10,5 L5,4 L0,2 Z " fill="#061011" transform="translate(35,61)"/>
<path d="M0,0 L5,0 L5,2 L9,3 L8,5 L4,5 L0,3 Z " fill="#051112" transform="translate(20,55)"/>
<path d="M0,0 L1,0 L2,9 L-1,9 L-2,9 L-2,1 Z " fill="#10191B" transform="translate(126,28)"/>
<path d="M0,0 L3,0 L3,3 L-3,6 L-6,6 L-5,3 Z " fill="#273336" transform="translate(25,14)"/>
<path d="M0,0 L3,0 L2,6 L-3,8 L-1,2 Z " fill="#1B282D" transform="translate(10,10)"/>
<path d="M0,0 L6,0 L7,6 L1,5 L2,2 L0,2 Z " fill="#141F20" transform="translate(104,10)"/>
<path d="M0,0 L3,0 L3,4 L5,5 L3,5 L3,8 L5,9 L3,11 L0,6 L0,2 Z " fill="#252E30" transform="translate(116,51)"/>
<path d="M0,0 L3,0 L3,7 L0,7 L-2,2 Z " fill="#758081" transform="translate(147,13)"/>
<path d="M0,0 L4,1 L5,3 L3,3 L1,10 L0,10 Z " fill="#111B1D" transform="translate(119,22)"/>
<path d="M0,0 L2,0 L3,5 L5,6 L5,9 L-2,8 L1,7 Z " fill="#394647" transform="translate(128,0)"/>
<path d="M0,0 L4,0 L4,3 L0,5 L-5,5 L-5,3 L0,3 Z " fill="#223635" transform="translate(85,74)"/>
<path d="M0,0 L1,2 L4,2 L4,5 L2,5 L2,9 L-1,8 Z " fill="#131D1F" transform="translate(143,53)"/>
<path d="M0,0 L6,1 L6,3 L2,3 L2,5 L-1,6 L-3,4 L0,3 Z " fill="#213735" transform="translate(91,74)"/>
<path d="M0,0 L3,0 L2,4 L-3,5 L-3,2 Z " fill="#45494C" transform="translate(142,63)"/>
<path d="M0,0 L3,0 L3,2 L1,2 L3,7 L1,7 L2,10 L0,10 L-2,3 Z " fill="#0D1618" transform="translate(115,48)"/>
<path d="M0,0 L0,3 L-2,7 L-8,8 L-5,7 L-3,3 Z " fill="#051113" transform="translate(33,27)"/>
<path d="M0,0 L6,0 L6,2 L0,3 L-5,2 L-5,1 Z " fill="#142625" transform="translate(74,77)"/>
<path d="M0,0 L3,1 L1,1 L0,4 L-7,7 L-7,5 L-4,5 L-3,2 Z " fill="#222E2F" transform="translate(115,75)"/>
<path d="M0,0 L11,0 L13,2 L10,3 L0,1 Z " fill="#344040" transform="translate(11,70)"/>
<path d="M0,0 L2,0 L3,8 L-1,6 Z " fill="#474F51" transform="translate(137,32)"/>
<path d="M0,0 L4,1 L5,5 L1,5 Z " fill="#020608" transform="translate(136,18)"/>
<path d="M0,0 L2,0 L3,5 L-6,5 L-2,3 L1,3 Z " fill="#081315" transform="translate(31,13)"/>
<path d="M0,0 L5,2 L6,6 L2,5 L2,2 L0,2 Z " fill="#4C5859" transform="translate(115,6)"/>
<path d="M0,0 L2,0 L2,2 L6,3 L-4,3 L-4,1 Z " fill="#121E29" transform="translate(28,81)"/>
<path d="M0,0 L4,0 L4,2 L8,1 L9,3 L1,3 Z " fill="#314146" transform="translate(9,81)"/>
<path d="M0,0 L2,0 L1,3 L-5,4 L-8,2 L-1,1 Z " fill="#111F20" transform="translate(57,76)"/>
<path d="M0,0 L1,2 L3,2 L4,6 L-1,6 Z " fill="#0A1716" transform="translate(40,67)"/>
<path d="M0,0 L2,0 L2,5 L-4,4 L-3,2 L-1,3 Z " fill="#1A2325" transform="translate(148,51)"/>
<path d="M0,0 L5,2 L6,0 L7,6 L5,4 L0,3 Z " fill="#040C16" transform="translate(0,52)"/>
<path d="M0,0 L2,0 L2,6 L-1,6 L-2,1 Z " fill="#142024" transform="translate(7,42)"/>
<path d="M0,0 L3,0 L3,6 L0,6 Z " fill="#3F494A" transform="translate(120,29)"/>
<path d="M0,0 L5,0 L5,5 L3,6 L2,3 L0,2 Z " fill="#343F41" transform="translate(134,11)"/>
<path d="M0,0 L5,1 L7,3 L6,7 L6,4 L0,2 Z " fill="#0E1B1B" transform="translate(18,72)"/>
<path d="M0,0 L7,2 L3,4 L-1,3 L-2,5 L-2,2 L0,2 Z " fill="#051514" transform="translate(127,51)"/>
<path d="M0,0 L3,0 L3,5 L-1,4 Z " fill="#071314" transform="translate(24,47)"/>
<path d="M0,0 L4,2 L2,2 L2,4 L4,4 L3,6 L-1,4 Z " fill="#131F20" transform="translate(113,4)"/>
<path d="M0,0 L3,0 L3,2 L0,2 L-1,5 L-3,5 L-2,1 Z " fill="#4B5255" transform="translate(147,78)"/>
<path d="M0,0 L5,0 L4,3 L-1,3 Z " fill="#1C2527" transform="translate(96,62)"/>
<path d="M0,0 L1,3 L5,2 L6,4 L4,4 L4,6 L0,4 Z " fill="#1F2C37" transform="translate(11,52)"/>
<path d="M0,0 L3,1 L3,7 L0,4 Z " fill="#000405" transform="translate(7,48)"/>
<path d="M0,0 L4,0 L2,4 L-1,4 Z " fill="#212E30" transform="translate(30,7)"/>
<path d="M0,0 L2,0 L1,4 L-4,4 L-3,1 Z " fill="#061716" transform="translate(89,76)"/>
<path d="M0,0 L5,1 L4,4 L1,4 L0,2 L-3,1 Z " fill="#152827" transform="translate(126,49)"/>
<path d="M0,0 L3,1 L2,4 L-2,7 L-2,3 L0,3 Z " fill="#0B1113" transform="translate(143,43)"/>
<path d="M0,0 L2,2 L7,2 L6,4 L-1,4 Z " fill="#142223" transform="translate(20,3)"/>
<path d="M0,0 L3,1 L3,3 L-3,4 L-3,2 L0,2 Z " fill="#09090C" transform="translate(139,70)"/>
<path d="M0,0 L1,2 L3,2 L3,4 L-4,3 L0,2 Z " fill="#0D191E" transform="translate(10,30)"/>
<path d="M0,0 L2,3 L0,3 L0,6 L-3,5 L-3,3 Z " fill="#0B191A" transform="translate(131,61)"/>
<path d="M0,0 L3,1 L3,6 L1,6 Z " fill="#505C61" transform="translate(11,49)"/>
<path d="M0,0 L2,0 L1,6 L-1,6 Z " fill="#384650" transform="translate(1,37)"/>
<path d="M0,0 L4,0 L4,4 L0,2 Z " fill="#899596" transform="translate(146,0)"/>
<path d="M0,0 L5,0 L5,2 L0,3 Z " fill="#465354" transform="translate(25,0)"/>
<path d="M0,0 L2,0 L2,4 L-2,3 L-2,1 Z " fill="#081817" transform="translate(83,73)"/>
<path d="M0,0 L5,1 L5,3 L0,2 Z " fill="#263333" transform="translate(40,63)"/>
<path d="M0,0 L2,0 L1,5 L-2,4 L0,4 L0,2 L-3,1 Z " fill="#344443" transform="translate(125,58)"/>
<path d="M0,0 L3,0 L2,4 L-1,5 Z " fill="#6F7A7C" transform="translate(133,47)"/>
<path d="M0,0 L3,0 L2,6 L0,2 Z " fill="#4E5759" transform="translate(135,24)"/>
<path d="M0,0 L2,0 L2,3 L-2,4 L-2,1 Z " fill="#232C2E" transform="translate(96,16)"/>
<path d="M0,0 L3,0 L3,3 L-1,4 L-1,1 Z " fill="#455052" transform="translate(147,13)"/>
<path d="M0,0 L2,0 L3,2 L6,4 L2,5 Z " fill="#172022" transform="translate(144,9)"/>
<path d="M0,0 L3,1 L2,3 L-2,3 L-2,1 Z " fill="#646066" transform="translate(138,74)"/>
<path d="M0,0 L4,1 L1,4 Z " fill="#343F41" transform="translate(127,46)"/>
<path d="M0,0 L4,1 L4,4 L1,4 Z " fill="#2F3B3B" transform="translate(2,10)"/>
<path d="M0,0 L4,0 L3,4 L0,2 Z " fill="#334443" transform="translate(119,0)"/>
<path d="M0,0 L3,0 L3,2 L-2,3 Z " fill="#060B0C" transform="translate(121,81)"/>
<path d="M0,0 L5,0 L5,3 L0,1 Z " fill="#051514" transform="translate(99,78)"/>
<path d="M0,0 L3,1 L1,1 L0,4 L-3,2 Z " fill="#172022" transform="translate(115,75)"/>
<path d="M0,0 L4,1 L2,1 L2,3 L-1,3 Z " fill="#0E1918" transform="translate(28,70)"/>
<path d="M0,0 L2,0 L2,4 L-1,4 Z " fill="#5A6365" transform="translate(148,66)"/>
<path d="M0,0 L3,0 L4,3 L1,3 Z " fill="#020E13" transform="translate(19,63)"/>
<path d="M0,0 L3,0 L2,4 L0,3 Z " fill="#3B4950" transform="translate(14,51)"/>
<path d="M0,0 L2,0 L0,4 L-2,4 Z " fill="#3C484B" transform="translate(9,14)"/>
<path d="M0,0 L3,1 L2,5 L0,3 Z " fill="#061010" transform="translate(6,11)"/>
<path d="M0,0 L3,0 L3,3 L0,4 Z " fill="#040A09" transform="translate(0,0)"/>
<path d="M0,0 L4,1 L0,3 Z " fill="#040F10" transform="translate(80,80)"/>
<path d="M0,0 L3,1 L2,4 L0,4 Z " fill="#2A3637" transform="translate(112,67)"/>
<path d="M0,0 L4,2 L0,3 Z " fill="#263337" transform="translate(0,64)"/>
<path d="M0,0 L3,1 L-1,3 L-2,1 Z " fill="#0C1F1E" transform="translate(135,59)"/>
<path d="M0,0 L3,0 L3,3 L0,3 Z " fill="#162224" transform="translate(21,56)"/>
<path d="M0,0 L2,0 L3,4 L0,3 Z " fill="#758082" transform="translate(145,32)"/>
<path d="M0,0 L3,0 L3,3 L0,3 Z " fill="#465253" transform="translate(25,14)"/>
<path d="M0,0 L4,1 L4,3 L0,2 Z " fill="#515C5E" transform="translate(104,10)"/>
<path d="M0,0 L2,1 L2,4 L-2,2 L0,2 Z " fill="#343E41" transform="translate(119,8)"/>
<path d="M0,0 L3,0 L3,3 L0,2 Z " fill="#070A0D" transform="translate(147,62)"/>
<path d="M0,0 L2,0 L1,4 L-1,1 Z " fill="#6F797B" transform="translate(143,24)"/>
<path d="M0,0 L2,1 L1,4 L-1,3 Z " fill="#061112" transform="translate(111,12)"/>
<path d="M0,0 L3,0 L2,3 L0,3 Z " fill="#192527" transform="translate(90,0)"/>
<path d="M0,0 L2,2 L0,4 Z " fill="#091617" transform="translate(107,78)"/>
<path d="M0,0 L1,2 L3,3 L0,4 L-1,2 Z " fill="#181C1F" transform="translate(142,68)"/>
<path d="M0,0 L3,1 L3,3 L0,2 Z " fill="#050F0F" transform="translate(10,26)"/>
<path d="M0,0 L3,1 L3,3 L0,2 Z " fill="#262E30" transform="translate(125,11)"/>
</svg>
