<?xml version="1.0" encoding="UTF-8"?>
<!-- Generator: visioncortex VTracer 0.6.5 -->
<svg version="1.1" xmlns="http://www.w3.org/2000/svg" width="150" height="84">
<path d="M0,0 L150,0 L150,84 L0,84 Z " fill="#2A242F" transform="translate(0,0)"/>
<path d="M0,0 L60,0 L60,84 L-7,84 L-6,79 L-3,76 L0,76 L0,74 L8,72 L8,70 L5,69 L7,66 L-3,68 L-3,66 L0,66 L0,64 L-3,63 L0,61 L8,61 L8,59 L13,60 L10,64 L16,62 L19,55 L25,55 L23,59 L19,63 L23,64 L15,68 L10,70 L19,67 L28,64 L29,62 L27,61 L29,57 L30,55 L27,54 L26,43 L24,47 L21,47 L21,42 L23,39 L27,39 L29,34 L29,30 L23,28 L22,25 L24,25 L24,22 L20,21 L20,23 L17,22 L17,20 L14,20 L14,18 L17,18 L17,16 L15,16 L15,14 L20,16 L27,22 L29,27 L33,28 L33,30 L31,30 L31,33 L33,33 L33,31 L35,31 L36,40 L34,42 L33,38 L31,45 L33,45 L35,49 L37,50 L39,46 L42,45 L44,46 L44,41 L47,40 L47,47 L49,44 L50,30 L48,30 L47,24 L45,24 L46,33 L42,34 L40,28 L38,27 L36,23 L29,20 L27,15 L22,12 L25,11 L20,7 L20,5 L14,3 L14,5 L19,7 L16,8 L11,6 L14,9 L24,15 L21,16 L14,12 L9,10 L9,7 L2,6 L2,4 L6,3 L0,1 Z " fill="#232936" transform="translate(90,0)"/>
<path d="M0,0 L24,0 L31,3 L31,4 L26,4 L26,6 L33,7 L34,10 L44,14 L45,14 L35,8 L35,6 L41,7 L38,5 L38,3 L44,5 L49,10 L51,12 L47,12 L52,15 L54,20 L61,23 L62,27 L66,29 L66,34 L69,33 L68,26 L69,24 L71,24 L72,30 L74,30 L74,44 L72,48 L70,47 L71,40 L69,41 L68,46 L63,47 L61,50 L57,50 L57,45 L55,45 L55,40 L57,40 L56,37 L58,36 L59,40 L59,31 L57,31 L57,33 L55,33 L55,30 L57,30 L56,28 L52,27 L50,22 L41,15 L39,14 L39,16 L41,16 L41,18 L38,18 L38,20 L41,20 L44,23 L44,21 L48,22 L48,25 L46,25 L47,27 L53,30 L54,35 L52,35 L51,39 L47,39 L46,47 L48,46 L49,40 L51,41 L52,50 L51,54 L55,55 L51,61 L54,62 L51,66 L43,68 L36,71 L33,70 L35,68 L45,64 L43,63 L45,59 L49,55 L43,55 L42,61 L39,64 L34,64 L34,60 L32,59 L32,61 L25,61 L23,59 L11,58 L2,61 L-7,61 L-8,59 L1,59 L0,54 L2,54 L2,56 L12,54 L12,56 L16,55 L15,53 L21,52 L21,50 L19,50 L19,48 L23,48 L23,45 L20,45 L20,40 L18,40 L18,42 L15,42 L15,40 L17,40 L17,38 L11,39 L13,45 L18,46 L17,49 L15,49 L14,47 L10,47 L9,49 L7,48 L7,47 L1,48 L1,46 L-7,48 L-11,49 L-10,45 L-13,45 L-13,43 L-17,44 L-17,38 L-9,40 L-9,38 L-13,37 L-13,35 L-7,34 L-3,35 L0,33 L-9,32 L-11,31 L-11,28 L-3,28 L-2,29 L4,29 L0,28 L0,26 L6,25 L9,25 L12,26 L11,29 L18,31 L20,34 L20,37 L22,37 L23,39 L26,38 L24,32 L25,30 L20,26 L19,22 L9,20 L-5,21 L-3,17 L5,16 L6,18 L6,15 L-14,13 L-14,10 L-19,11 L-21,10 L-21,8 L-17,7 L-15,8 L-15,3 L-13,2 L-7,2 L-8,6 L-6,6 L-4,2 L0,2 Z " fill="#302B3A" transform="translate(66,0)"/>
<path d="M0,0 L66,0 L66,2 L61,4 L60,6 L58,6 L58,3 L51,3 L51,5 L55,6 L51,6 L51,8 L45,8 L45,10 L52,10 L52,13 L72,14 L74,16 L71,19 L70,17 L63,18 L61,21 L63,20 L76,19 L85,21 L88,27 L92,30 L91,34 L92,38 L88,40 L88,37 L86,37 L83,31 L77,29 L77,26 L75,25 L74,27 L68,26 L66,26 L66,28 L72,28 L70,30 L64,30 L59,29 L50,30 L51,26 L53,26 L53,21 L58,20 L55,17 L48,17 L51,19 L50,21 L48,21 L48,24 L45,24 L45,26 L40,28 L35,29 L34,32 L29,30 L28,28 L25,30 L23,31 L23,27 L21,27 L20,30 L15,32 L15,34 L17,34 L18,38 L20,39 L20,41 L23,41 L23,43 L21,43 L22,48 L26,49 L25,40 L26,40 L28,46 L28,52 L26,52 L26,54 L22,55 L22,57 L29,56 L29,60 L34,61 L40,63 L40,64 L34,65 L43,68 L46,70 L46,65 L48,65 L49,62 L57,64 L66,65 L67,69 L62,69 L62,71 L56,71 L56,74 L48,74 L44,73 L44,75 L51,75 L56,76 L56,79 L47,78 L40,77 L37,77 L30,76 L26,74 L27,72 L33,74 L33,72 L28,71 L25,68 L29,68 L29,66 L25,65 L13,65 L13,62 L8,61 L8,59 L6,59 L6,56 L0,56 Z " fill="#544A56" transform="translate(0,0)"/>
<path d="M0,0 L7,0 L10,2 L10,4 L5,5 L5,10 L3,11 L3,13 L7,13 L9,15 L20,16 L15,20 L10,20 L7,19 L5,19 L6,21 L9,22 L9,24 L4,24 L1,22 L1,28 L5,27 L5,29 L8,29 L7,33 L13,30 L19,30 L20,31 L26,30 L27,31 L32,30 L33,33 L36,30 L31,29 L29,26 L29,23 L35,22 L35,24 L33,24 L33,26 L36,26 L36,24 L38,24 L38,29 L41,29 L41,32 L37,32 L37,34 L39,34 L40,37 L34,38 L35,40 L30,40 L30,38 L20,40 L20,38 L18,38 L19,43 L10,43 L7,39 L7,37 L2,36 L1,35 L-1,42 L-3,44 L-6,44 L-7,41 L-12,39 L-12,37 L-8,37 L-14,32 L-15,35 L-20,36 L-22,29 L-21,33 L-24,33 L-27,30 L-27,27 L-25,27 L-25,25 L-28,25 L-28,23 L-31,22 L-31,18 L-33,18 L-33,16 L-28,13 L-27,11 L-25,11 L-25,15 L-23,12 L-19,11 L-19,14 L-14,14 L-8,11 L-3,10 L-3,8 L0,8 L0,5 L2,5 L1,3 L-1,1 Z " fill="#3D3540" transform="translate(48,16)"/>
<path d="M0,0 L3,0 L3,4 L-2,6 L-2,8 L0,8 L1,12 L3,13 L3,15 L6,15 L6,17 L4,17 L5,22 L9,23 L8,14 L9,14 L11,20 L11,26 L9,26 L9,28 L5,29 L5,31 L12,30 L12,34 L17,35 L23,37 L23,38 L17,39 L26,42 L29,44 L29,39 L31,39 L32,36 L40,38 L49,39 L50,43 L45,43 L45,45 L39,45 L39,48 L31,48 L27,47 L27,49 L34,49 L39,50 L39,53 L30,52 L23,51 L20,51 L13,50 L9,48 L10,46 L16,48 L16,46 L11,45 L8,42 L12,42 L12,40 L8,39 L-4,39 L-4,36 L-9,35 L-9,33 L-11,33 L-11,30 L-17,30 L-17,26 L-13,25 L-14,20 L-14,18 L-10,19 L-9,17 L-15,17 L-15,16 L-8,15 L-4,18 L-3,25 L0,25 L1,27 L3,27 L4,25 L4,23 L0,22 L-1,13 L-15,9 L-13,4 L-16,5 L-15,2 L-8,1 L-1,3 Z " fill="#695D65" transform="translate(17,26)"/>
<path d="M0,0 L2,0 L2,47 L-46,47 L-46,40 L-37,37 L-33,38 L-31,39 L-31,37 L-26,36 L-21,37 L-19,33 L-14,32 L-12,28 L-7,26 L-6,22 L-4,22 L-5,20 L-11,25 L-20,25 L-20,22 L-26,22 L-26,20 L-24,20 L-25,14 L-23,14 L-23,17 L-20,17 L-19,14 L-17,14 L-17,19 L-12,19 L-12,17 L-7,13 L-1,12 L-2,7 L1,7 Z " fill="#362728" transform="translate(148,37)"/>
<path d="M0,0 L12,0 L15,2 L15,4 L2,2 L8,4 L13,5 L16,8 L15,10 L20,11 L24,13 L24,10 L31,10 L38,12 L39,12 L29,6 L29,4 L35,5 L32,3 L32,1 L38,3 L43,8 L45,10 L41,10 L46,13 L48,18 L55,21 L56,25 L60,27 L60,32 L63,31 L62,24 L63,22 L65,22 L66,28 L68,28 L68,42 L66,46 L64,45 L65,38 L63,39 L62,44 L57,45 L55,48 L51,48 L51,43 L49,43 L49,38 L51,38 L50,35 L52,34 L53,38 L53,29 L51,29 L51,31 L49,31 L49,28 L51,28 L50,26 L46,25 L44,20 L35,13 L33,12 L33,14 L35,14 L35,16 L32,16 L32,18 L35,18 L36,23 L30,24 L26,22 L24,16 L22,16 L24,21 L21,21 L19,16 L15,16 L16,18 L7,16 L7,14 L9,14 L9,11 L14,11 L1,8 L1,6 L-4,6 L-5,9 L-7,9 L-6,5 L-10,5 L-10,3 L-1,2 Z " fill="#2A2024" transform="translate(72,2)"/>
<path d="M0,0 L50,0 L50,5 L47,6 L35,6 L36,11 L41,12 L43,13 L43,15 L40,17 L40,21 L38,21 L38,23 L32,26 L30,28 L30,26 L26,26 L26,22 L30,22 L30,20 L32,18 L32,16 L27,15 L26,11 L16,13 L12,17 L11,14 L13,14 L13,12 L9,12 L8,17 L3,22 L0,23 Z " fill="#15111B" transform="translate(0,0)"/>
<path d="M0,0 L4,1 L4,4 L2,4 L3,6 L9,9 L10,14 L8,14 L7,18 L3,18 L2,26 L4,25 L5,19 L7,20 L8,29 L7,33 L11,34 L7,40 L10,41 L7,45 L-1,47 L-8,50 L-11,49 L-9,47 L1,43 L-1,42 L1,38 L5,34 L-1,34 L-2,40 L-5,43 L-10,43 L-10,39 L-12,38 L-12,40 L-19,40 L-21,38 L-33,37 L-42,40 L-51,40 L-52,38 L-43,38 L-44,33 L-42,33 L-42,35 L-32,33 L-32,35 L-28,34 L-29,32 L-23,31 L-23,29 L-25,29 L-25,27 L-17,25 L-20,30 L-13,29 L-16,33 L-16,36 L-18,36 L-18,38 L-11,36 L-10,33 L-6,31 L-8,26 L-4,27 L-3,18 L0,18 L-1,8 L-5,7 L-5,9 L-9,9 L-11,4 L-4,3 L-2,4 L-2,2 L0,2 Z " fill="#211624" transform="translate(110,21)"/>
<path d="M0,0 L35,0 L35,32 L28,29 L26,24 L23,23 L22,17 L17,15 L17,12 L13,12 L15,19 L11,18 L6,13 L4,11 L4,8 L7,8 L5,4 L0,1 Z " fill="#262427" transform="translate(115,0)"/>
<path d="M0,0 L25,0 L32,5 L32,8 L29,8 L32,13 L36,16 L36,18 L39,18 L38,12 L42,12 L43,15 L47,17 L48,23 L52,24 L53,29 L59,31 L60,32 L60,37 L59,42 L59,44 L55,44 L55,46 L52,47 L50,45 L50,30 L48,30 L47,24 L45,24 L46,33 L42,34 L40,28 L38,27 L36,23 L29,20 L27,15 L22,12 L25,11 L20,7 L20,5 L14,3 L14,5 L19,7 L16,8 L11,6 L14,9 L24,15 L21,16 L14,12 L9,10 L9,7 L2,6 L2,4 L6,3 L0,1 Z " fill="#9B8E97" transform="translate(90,0)"/>
<path d="M0,0 L16,0 L16,2 L11,4 L10,6 L8,6 L8,3 L1,3 L1,5 L5,6 L1,6 L1,8 L-5,8 L-5,10 L2,10 L2,13 L22,14 L24,16 L21,19 L20,17 L13,18 L11,21 L13,20 L26,19 L35,21 L38,27 L42,30 L41,34 L42,38 L38,40 L38,37 L36,37 L33,31 L27,29 L27,26 L25,25 L24,27 L18,26 L16,26 L16,28 L22,28 L20,30 L14,30 L9,29 L0,30 L1,26 L3,26 L3,21 L8,20 L5,17 L5,15 L-5,16 L-4,12 L-14,11 L-15,6 L0,5 Z " fill="#4E4A53" transform="translate(50,0)"/>
<path d="M0,0 L6,0 L4,4 L0,8 L4,9 L-4,13 L-9,15 L0,12 L7,11 L7,12 L13,14 L12,16 L18,17 L18,19 L8,19 L8,21 L2,20 L-2,22 L-7,22 L-7,29 L-26,29 L-25,24 L-22,21 L-19,21 L-19,19 L-11,17 L-11,15 L-14,14 L-12,11 L-22,13 L-22,11 L-19,11 L-19,9 L-22,8 L-19,6 L-11,6 L-11,4 L-6,5 L-9,9 L-3,7 Z " fill="#484048" transform="translate(109,55)"/>
<path d="M0,0 L7,0 L10,2 L10,4 L5,5 L5,10 L2,12 L1,18 L-2,18 L-2,29 L-5,30 L-5,33 L-9,34 L-10,31 L-14,30 L-15,25 L-11,24 L-12,22 L-6,22 L-6,19 L-12,21 L-18,21 L-19,22 L-26,22 L-24,17 L-23,12 L-19,11 L-19,14 L-14,14 L-8,11 L-3,10 L-3,8 L0,8 L0,5 L2,5 L1,3 L-1,1 Z " fill="#423643" transform="translate(48,16)"/>
<path d="M0,0 L6,1 L6,3 L10,3 L10,1 L19,0 L17,1 L20,4 L19,6 L17,6 L24,8 L23,11 L34,12 L34,14 L32,14 L32,16 L-2,16 L-2,3 L0,2 Z " fill="#6A5E66" transform="translate(2,68)"/>
<path d="M0,0 L26,0 L26,5 L23,6 L11,6 L12,11 L17,12 L19,13 L19,15 L16,17 L16,21 L14,21 L14,23 L8,26 L6,28 L6,26 L2,26 L2,22 L6,22 L6,20 L8,18 L8,16 L3,15 L2,12 L3,11 L0,8 Z " fill="#2C2027" transform="translate(24,0)"/>
<path d="M0,0 L0,3 L-3,6 L-5,6 L-5,8 L2,5 L5,3 L15,2 L14,6 L9,7 L10,12 L7,13 L-28,13 L-28,6 L-19,3 L-15,4 L-13,5 L-13,3 L-8,2 L-3,3 L-3,1 Z " fill="#040406" transform="translate(130,71)"/>
<path d="M0,0 L5,0 L5,2 L3,2 L3,4 L8,5 L6,11 L0,11 L-5,10 L-8,12 L-6,12 L-8,17 L4,19 L7,21 L7,30 L12,31 L13,35 L11,35 L8,36 L7,33 L4,33 L2,26 L-2,24 L-2,29 L-3,27 L-6,28 L-5,34 L-10,34 L-10,7 L-2,3 L0,3 Z " fill="#33343A" transform="translate(10,18)"/>
<path d="M0,0 L8,0 L9,1 L16,2 L16,5 L13,7 L14,10 L18,9 L21,11 L20,17 L18,17 L18,19 L12,20 L12,18 L4,20 L0,21 L1,17 L-2,17 L-2,15 L-6,16 L-6,10 L2,12 L2,10 L-2,9 L-2,7 L4,6 L8,7 L11,5 L2,4 L0,3 Z " fill="#121423" transform="translate(55,28)"/>
<path d="M0,0 L2,0 L3,6 L5,6 L5,20 L3,24 L1,23 L2,16 L0,17 L-1,22 L-6,23 L-8,26 L-12,26 L-12,21 L-14,21 L-14,16 L-12,16 L-13,13 L-11,12 L-10,16 L-11,3 L-7,1 L-7,3 L-3,5 L-3,10 L0,9 L-1,2 Z " fill="#030204" transform="translate(135,24)"/>
<path d="M0,0 L4,2 L7,6 L2,5 L3,7 L8,9 L8,12 L13,9 L14,2 L21,5 L24,11 L17,11 L12,13 L11,14 L14,15 L14,17 L12,17 L13,24 L9,21 L0,18 L-1,16 L5,15 L-5,12 L-5,8 L-10,10 L-12,9 L-12,7 L-8,6 L-8,4 L-1,2 Z " fill="#120D12" transform="translate(34,48)"/>
<path d="M0,0 L5,3 L6,10 L9,10 L10,14 L15,17 L23,21 L23,24 L8,17 L8,19 L13,20 L14,23 L5,24 L5,21 L0,20 L0,18 L-2,18 L-2,15 L-8,15 L-8,11 L-4,10 L-5,5 L-5,3 L-1,4 L0,2 L-6,2 L-6,1 Z " fill="#413337" transform="translate(8,41)"/>
<path d="M0,0 L24,0 L31,3 L31,4 L26,4 L26,6 L33,7 L34,10 L40,12 L37,13 L30,12 L30,15 L21,12 L19,8 L14,7 L8,6 L8,4 L19,5 L21,6 L21,4 L15,3 L6,2 L5,5 L-1,6 L-4,5 L-4,7 L0,7 L0,9 L-8,9 L-8,6 L-6,6 L-4,2 L0,2 Z " fill="#2A272F" transform="translate(66,0)"/>
<path d="M0,0 L3,0 L3,22 L-10,22 L-7,21 L-9,20 L-8,16 L-3,15 L-3,12 L-12,13 L-19,17 L-22,17 L-22,15 L-18,14 L-17,11 L-10,7 L-8,7 L-8,5 Z " fill="#060607" transform="translate(147,62)"/>
<path d="M0,0 L2,0 L2,4 L4,4 L2,9 L1,11 L8,10 L10,9 L21,8 L21,11 L16,12 L17,14 L13,15 L14,19 L17,21 L13,21 L12,24 L7,25 L5,18 L6,22 L3,22 L0,19 L0,16 L2,16 L2,14 L-1,14 L-1,12 L-4,11 L-4,7 L-6,7 L-6,5 L-1,2 Z " fill="#443E42" transform="translate(21,27)"/>
<path d="M0,0 L12,0 L15,2 L15,4 L2,2 L8,4 L13,5 L16,8 L15,10 L20,11 L26,15 L27,19 L25,20 L24,16 L22,16 L24,21 L21,21 L19,16 L15,16 L16,18 L7,16 L7,14 L9,14 L9,11 L14,11 L1,8 L1,6 L-4,6 L-5,9 L-7,9 L-6,5 L-10,5 L-10,3 L-1,2 Z " fill="#5F5960" transform="translate(72,2)"/>
<path d="M0,0 L17,0 L17,21 L10,18 L8,13 L5,12 L3,4 L0,3 Z " fill="#040304" transform="translate(133,11)"/>
<path d="M0,0 L2,1 L-1,5 L6,4 L3,8 L3,11 L1,11 L1,13 L8,11 L9,8 L13,9 L11,11 L10,13 L17,12 L18,10 L17,15 L14,18 L9,18 L9,14 L7,13 L7,15 L0,15 L-2,13 L-14,12 L-23,15 L-32,15 L-33,13 L-24,13 L-25,8 L-23,8 L-23,10 L-13,8 L-13,10 L-9,9 L-10,7 L-4,6 L-4,4 L-6,4 L-6,2 Z " fill="#3B343E" transform="translate(91,46)"/>
<path d="M0,0 L7,0 L8,4 L13,5 L14,8 L11,9 L11,11 L6,11 L4,15 L2,15 L2,10 L-2,10 L-2,8 L-9,7 L-9,10 L-17,14 L-19,14 L-19,12 L-14,10 L-12,6 L-10,1 L-6,1 L-6,3 L-8,3 L-6,5 L-3,1 Z " fill="#726062" transform="translate(19,11)"/>
<path d="M0,0 L2,0 L2,5 L5,5 L8,8 L10,0 L15,2 L15,9 L11,8 L10,17 L6,16 L6,18 L8,19 L10,22 L4,23 L3,27 L-4,28 L-4,26 L-2,26 L-3,22 L-1,19 L-1,17 L5,13 L8,12 L6,11 L6,9 L1,12 L0,7 Z " fill="#595564" transform="translate(96,31)"/>
<path d="M0,0 L6,0 L6,3 L8,3 L8,5 L13,6 L13,9 L18,8 L25,8 L29,10 L29,12 L23,11 L23,13 L12,13 L12,15 L8,15 L8,13 L2,12 L2,14 L5,15 L0,15 Z " fill="#050408" transform="translate(0,56)"/>
<path d="M0,0 L8,2 L17,3 L18,7 L13,7 L13,9 L7,9 L7,12 L-1,12 L-5,11 L-5,13 L2,13 L7,14 L7,17 L-2,16 L-9,15 L-9,12 L-6,12 L-6,10 L-4,10 L-3,3 L-1,3 Z " fill="#8C858D" transform="translate(49,62)"/>
<path d="M0,0 L6,0 L5,7 L12,7 L12,9 L14,9 L15,5 L20,6 L20,8 L31,9 L35,12 L28,11 L27,14 L25,10 L19,9 L19,11 L23,11 L22,14 L19,13 L-1,11 L-1,8 L-6,9 L-8,8 L-8,6 L-4,5 L-2,6 L-2,1 Z " fill="#403944" transform="translate(53,2)"/>
<path d="M0,0 L1,3 L0,5 L-2,5 L-2,7 L-8,11 L-9,13 L-14,15 L-18,16 L-24,16 L-22,13 L-28,12 L-24,6 L-19,3 L-15,3 L-15,6 L-8,5 L-5,5 Z " fill="#4B4B59" transform="translate(143,56)"/>
<path d="M0,0 L4,1 L15,6 L15,4 L23,4 L24,6 L18,7 L27,10 L29,11 L29,14 L27,14 L27,16 L21,19 L14,18 L10,16 L11,14 L17,16 L17,14 L12,13 L9,10 L13,10 L13,8 L6,6 L5,3 L0,2 Z " fill="#554952" transform="translate(16,58)"/>
<path d="M0,0 L3,1 L4,6 L10,8 L11,9 L11,14 L10,19 L10,21 L6,21 L6,23 L3,24 L1,22 L1,7 L-1,7 L-2,1 Z " fill="#8F8991" transform="translate(139,23)"/>
<path d="M0,0 L6,0 L8,2 L15,4 L13,7 L11,7 L11,9 L14,9 L14,7 L19,8 L18,11 L-5,11 L-5,4 L4,5 L-3,2 Z " fill="#0B0506" transform="translate(5,73)"/>
<path d="M0,0 L12,1 L13,3 L9,4 L5,4 L3,4 L2,8 L-4,8 L-4,6 L-10,7 L-17,6 L-22,7 L-33,6 L-30,2 L-24,1 L-16,3 L-9,3 Z " fill="#544E59" transform="translate(77,57)"/>
<path d="M0,0 L5,0 L4,4 L-1,5 L0,10 L-3,11 L-21,11 L-21,7 L-18,6 L-16,3 L-13,4 L-15,4 L-15,6 L-8,3 L-5,1 Z " fill="#101216" transform="translate(140,73)"/>
<path d="M0,0 L4,0 L3,3 L6,6 L6,7 L-3,8 L-3,10 L-8,11 L-10,18 L-17,18 L-17,16 L-21,16 L-21,14 L-17,12 L-12,12 L-11,9 L-11,8 L-11,6 L-7,4 L-6,2 Z " fill="#141019" transform="translate(93,66)"/>
<path d="M0,0 L5,0 L6,11 L11,9 L11,11 L14,12 L13,14 L8,15 L4,17 L3,20 L-2,21 L0,17 L0,16 L-2,16 L-2,14 L-5,14 L-4,10 L-1,7 L1,7 L-1,1 Z " fill="#373440" transform="translate(91,31)"/>
<path d="M0,0 L5,0 L5,2 L10,3 L12,4 L12,6 L9,8 L9,12 L7,12 L7,14 L1,17 L-1,19 L-1,17 L-5,17 L-5,13 L-1,13 L-1,11 L1,9 L0,6 L-3,5 L-1,1 Z " fill="#0A0507" transform="translate(31,9)"/>
<path d="M0,0 L6,1 L8,3 L19,4 L14,8 L9,8 L6,7 L4,7 L5,9 L8,10 L8,12 L3,12 L0,10 L0,16 L2,16 L2,18 L-3,18 L-3,21 L-6,20 L-6,18 L-4,17 L-3,6 L0,6 Z " fill="#393042" transform="translate(49,28)"/>
<path d="M0,0 L3,1 L1,1 L1,3 L4,3 L4,0 L17,0 L17,2 L12,5 L9,5 L9,7 L13,7 L13,9 L-21,9 L-22,7 L1,6 L0,5 Z " fill="#745E61" transform="translate(63,75)"/>
<path d="M0,0 L2,0 L2,7 L5,4 L8,6 L10,6 L11,4 L12,9 L4,11 L3,14 L1,14 L1,16 L-4,16 L-4,11 L-7,14 L-9,14 L-8,8 L-5,5 L-1,6 L-1,1 Z " fill="#9C8E97" transform="translate(135,40)"/>
<path d="M0,0 L6,0 L4,4 L0,8 L4,9 L-4,13 L-11,14 L-11,11 L-22,13 L-22,11 L-19,11 L-19,9 L-22,8 L-19,6 L-11,6 L-11,4 L-6,5 L-9,9 L-3,7 Z " fill="#766E79" transform="translate(109,55)"/>
<path d="M0,0 L8,0 L15,2 L16,3 L16,12 L21,13 L22,17 L20,17 L17,18 L16,15 L13,15 L11,8 L7,6 L1,6 Z " fill="#0A0406" transform="translate(1,36)"/>
<path d="M0,0 L5,2 L12,8 L14,13 L18,14 L18,16 L16,16 L16,19 L18,19 L18,17 L20,17 L21,26 L19,28 L18,23 L17,25 L12,24 L14,20 L14,16 L8,14 L7,11 L9,11 L9,8 L5,7 L5,9 L2,8 L2,6 L-1,6 L-1,4 L2,4 L2,2 L0,2 Z " fill="#8A7B83" transform="translate(105,14)"/>
<path d="M0,0 L10,0 L11,10 L14,11 L12,12 L5,12 L2,13 L-2,17 L-3,14 L-1,14 Z " fill="#5E5256" transform="translate(14,0)"/>
<path d="M0,0 L14,0 L23,4 L25,5 L24,8 L14,3 L14,5 L19,7 L16,8 L11,6 L14,9 L24,15 L21,16 L14,12 L9,10 L9,7 L2,6 L2,4 L6,3 L0,1 Z " fill="#999AA9" transform="translate(90,0)"/>
<path d="M0,0 L14,0 L16,1 L16,7 L22,7 L20,9 L-1,9 L-7,8 L-6,6 L1,4 L9,4 L12,6 L12,3 L0,2 Z " fill="#100D10" transform="translate(44,73)"/>
<path d="M0,0 L7,0 L10,2 L10,4 L5,5 L5,10 L1,14 L-3,18 L-6,18 L-6,15 L-12,14 L-7,10 L-3,10 L-3,8 L0,8 L0,5 L2,5 L1,3 L-1,1 Z " fill="#1B1926" transform="translate(48,16)"/>
<path d="M0,0 L4,1 L4,3 L7,3 L9,8 L11,9 L11,11 L7,10 L8,15 L10,15 L10,17 L13,17 L14,21 L10,21 L10,18 L5,17 L5,15 L3,15 L3,12 L-3,12 L-3,8 L1,7 L0,2 Z " fill="#95909C" transform="translate(3,44)"/>
<path d="M0,0 L24,0 L31,3 L28,4 L19,4 L15,3 L6,2 L5,5 L-1,6 L-4,5 L-4,7 L0,7 L0,9 L-8,9 L-8,6 L-6,6 L-4,2 L0,2 Z " fill="#241E22" transform="translate(66,0)"/>
<path d="M0,0 L2,4 L7,8 L6,12 L7,16 L3,18 L3,15 L1,15 L-2,9 L-8,7 L-8,4 L-10,3 L-11,5 L-13,3 L-11,2 L-2,1 Z " fill="#4E4656" transform="translate(85,22)"/>
<path d="M0,0 L4,1 L4,4 L2,4 L3,6 L9,9 L8,11 L6,10 L7,15 L2,14 L2,12 L0,12 L-1,8 L-5,7 L-5,9 L-9,9 L-11,4 L-4,3 L-2,4 L-2,2 L0,2 Z " fill="#140D15" transform="translate(110,21)"/>
<path d="M0,0 L7,0 L10,2 L9,4 L11,4 L11,6 L8,6 L8,8 L11,8 L12,13 L6,14 L2,12 L2,6 L0,4 Z " fill="#28242B" transform="translate(96,12)"/>
<path d="M0,0 L2,0 L2,3 L5,3 L6,0 L8,0 L8,5 L13,5 L14,3 L17,8 L14,11 L5,11 L5,8 L-1,8 L-1,6 L1,6 Z " fill="#120F18" transform="translate(123,51)"/>
<path d="M0,0 L12,0 L15,2 L15,4 L2,2 L7,4 L8,6 L13,8 L14,10 L1,8 L1,6 L-4,6 L-5,9 L-7,9 L-6,5 L-10,5 L-10,3 L-1,2 Z " fill="#72696F" transform="translate(72,2)"/>
<path d="M0,0 L9,1 L9,3 L11,3 L11,5 L15,7 L15,9 L13,9 L11,15 L6,13 L4,11 L4,8 L7,8 L5,4 L0,1 Z " fill="#0C090C" transform="translate(115,0)"/>
<path d="M0,0 L2,4 L4,2 L12,4 L11,10 L6,11 L4,14 L0,14 L0,9 L-2,9 L-2,4 L0,4 L-1,1 Z " fill="#261F27" transform="translate(123,36)"/>
<path d="M0,0 L15,0 L20,1 L21,6 L14,5 L10,4 L10,6 L12,6 L12,8 L15,9 L12,10 L9,9 L5,5 L5,3 L3,3 L3,1 Z " fill="#4D5061" transform="translate(121,0)"/>
<path d="M0,0 L8,2 L8,6 L3,8 L3,6 L1,6 L1,8 L-9,8 L-10,3 L-7,2 L0,2 Z " fill="#010106" transform="translate(66,37)"/>
<path d="M0,0 L1,2 L-1,4 L-6,6 L-10,8 L-15,8 L-15,15 L-26,15 L-25,13 L-22,13 L-22,11 L-12,4 L-5,1 Z " fill="#5F5C6A" transform="translate(117,69)"/>
<path d="M0,0 L2,0 L2,25 L-3,25 L-3,17 L-5,16 L-5,14 L-7,13 L-1,12 L-2,7 L1,7 Z " fill="#010002" transform="translate(148,37)"/>
<path d="M0,0 L2,0 L3,6 L5,6 L5,20 L3,24 L1,23 L1,16 L0,13 L-3,13 L-4,9 L0,9 L-1,2 Z " fill="#170F10" transform="translate(135,24)"/>
<path d="M0,0 L8,0 L8,4 L12,6 L5,6 L5,9 L2,9 L1,6 L1,11 L-2,11 L-2,5 L-6,4 L-7,1 L0,2 Z " fill="#463B40" transform="translate(62,69)"/>
<path d="M0,0 L7,0 L6,2 L-1,4 L-1,8 L-9,7 L-9,10 L-17,14 L-19,14 L-19,12 L-14,10 L-12,6 L-10,1 L-6,1 L-6,3 L-8,3 L-6,5 L-3,1 Z " fill="#827A86" transform="translate(19,11)"/>
<path d="M0,0 L4,0 L4,2 L2,2 L2,4 L5,4 L5,2 L7,2 L7,7 L10,7 L10,10 L6,10 L6,12 L8,12 L9,15 L0,15 L0,13 L5,8 L0,7 L-2,4 L-2,1 Z " fill="#4D4E58" transform="translate(79,38)"/>
<path d="M0,0 L1,3 L5,5 L4,7 L10,7 L8,10 L2,10 L1,11 L-6,11 L-4,6 L-3,1 Z " fill="#0F0E1A" transform="translate(28,27)"/>
<path d="M0,0 L2,0 L2,4 L4,4 L2,9 L1,11 L5,12 L3,13 L3,19 L0,18 L0,16 L2,16 L2,14 L-1,14 L-1,12 L-4,11 L-4,7 L-6,7 L-6,5 L-1,2 Z " fill="#3E3034" transform="translate(21,27)"/>
<path d="M0,0 L2,0 L2,2 L5,2 L4,6 L6,6 L6,8 L8,8 L11,12 L11,15 L6,15 L4,10 L-1,9 L-1,6 L-3,5 L-3,3 L0,3 Z " fill="#4B4555" transform="translate(51,43)"/>
<path d="M0,0 L8,1 L7,4 L18,5 L18,7 L16,7 L16,9 L5,9 L6,6 L1,5 L1,7 L-2,7 L-2,5 L3,3 L3,1 Z " fill="#9D949D" transform="translate(18,75)"/>
<path d="M0,0 L14,0 L14,9 L5,9 L5,1 L0,1 Z " fill="#131422" transform="translate(136,0)"/>
<path d="M0,0 L6,0 L6,13 L1,14 L0,16 Z " fill="#28212D" transform="translate(0,0)"/>
<path d="M0,0 L16,0 L16,2 L11,4 L10,6 L8,6 L8,3 L1,3 L1,5 L5,6 L1,6 L1,8 L-13,9 L-13,6 L0,5 Z " fill="#64595B" transform="translate(50,0)"/>
<path d="M0,0 L6,0 L5,5 L3,7 L8,9 L8,11 L-1,11 L-1,8 L-6,9 L-8,8 L-8,6 L-4,5 L-2,6 L-2,1 Z " fill="#453C3C" transform="translate(53,2)"/>
<path d="M0,0 L5,2 L5,4 L7,6 L1,7 L0,11 L-7,12 L-7,10 L-5,10 L-6,6 L-2,4 L-2,2 L0,2 Z " fill="#413C49" transform="translate(99,47)"/>
<path d="M0,0 L8,0 L8,2 L-3,5 L-3,6 L7,5 L5,6 L5,8 L1,10 L-7,10 L-6,5 L-3,2 L0,2 Z " fill="#4E5162" transform="translate(90,74)"/>
<path d="M0,0 L3,4 L4,7 L6,7 L7,3 L9,3 L8,9 L10,10 L7,10 L7,8 L5,8 L6,13 L-3,13 L1,12 L-2,7 L-2,5 L-4,5 L-2,1 Z " fill="#2A293B" transform="translate(61,46)"/>
<path d="M0,0 L2,0 L3,3 L9,6 L9,7 L1,7 L-3,6 L-3,8 L4,8 L9,9 L9,12 L0,11 L-7,10 L-7,7 L-4,7 L-4,5 L-2,5 Z " fill="#6D6A72" transform="translate(47,67)"/>
<path d="M0,0 L4,0 L4,2 L2,2 L2,4 L-3,6 L-4,8 L-7,8 L-7,10 L-14,15 L-20,16 L-20,14 L-16,13 L-15,10 L-8,6 L-6,6 L-6,4 Z " fill="#CCCCD5" transform="translate(145,63)"/>
<path d="M0,0 L3,0 L3,4 L0,6 L-5,6 L-4,10 L-6,10 L-8,7 L-9,9 L-13,7 L-12,6 L-12,1 L-7,2 L-1,3 Z " fill="#978C93" transform="translate(17,26)"/>
<path d="M0,0 L3,0 L3,2 L8,2 L4,7 L6,8 L6,6 L10,4 L9,8 L7,8 L7,11 L3,12 L2,9 L-2,8 L-3,3 L1,2 Z " fill="#2B2028" transform="translate(36,38)"/>
<path d="M0,0 L5,0 L5,3 L14,3 L14,4 L7,5 L10,7 L9,9 L7,9 L7,12 L4,11 L5,8 L-1,9 L-2,4 L2,3 L2,1 Z " fill="#3E3338" transform="translate(41,12)"/>
<path d="M0,0 L8,0 L8,9 L7,12 L1,13 L1,10 L6,10 L4,7 L0,6 Z " fill="#140A0B" transform="translate(6,0)"/>
<path d="M0,0 L10,1 L12,2 L12,4 L17,5 L15,9 L7,8 L6,4 L-3,3 L-4,1 Z " fill="#090609" transform="translate(60,62)"/>
<path d="M0,0 L4,0 L5,6 L7,7 L9,3 L10,8 L12,8 L11,4 L14,4 L14,6 L16,6 L17,10 L19,12 L17,12 L18,20 L16,20 L15,11 L1,7 L3,2 L0,3 Z " fill="#6A5960" transform="translate(1,28)"/>
<path d="M0,0 L6,0 L8,2 L15,4 L13,7 L11,7 L11,9 L5,8 L3,4 L-3,2 Z " fill="#1F1419" transform="translate(5,73)"/>
<path d="M0,0 L9,0 L9,5 L6,6 L-5,6 L-4,3 Z " fill="#241215" transform="translate(41,0)"/>
<path d="M0,0 L5,0 L5,2 L3,2 L3,4 L8,5 L7,8 L4,8 L4,10 L0,9 L2,8 L2,6 L-1,8 L-6,8 L-6,5 L0,3 Z " fill="#1A171C" transform="translate(10,18)"/>
<path d="M0,0 L3,1 L1,1 L1,3 L4,3 L4,0 L17,0 L17,2 L12,5 L0,5 Z " fill="#92848B" transform="translate(63,75)"/>
<path d="M0,0 L5,0 L4,4 L-1,5 L0,10 L-8,11 L-6,6 L-4,6 L-4,1 Z " fill="#010207" transform="translate(140,73)"/>
<path d="M0,0 L2,1 L-1,5 L6,4 L3,8 L3,10 L-2,11 L-2,9 L-9,9 L-10,7 L-4,6 L-4,4 L-6,4 L-6,2 Z " fill="#131620" transform="translate(91,46)"/>
<path d="M0,0 L5,1 L6,4 L3,5 L3,7 L7,9 L7,10 L2,10 L2,8 L-5,9 Z " fill="#383647" transform="translate(76,46)"/>
<path d="M0,0 L2,0 L2,2 L22,3 L24,5 L21,8 L20,6 L9,6 L6,5 L6,3 L-3,3 L-3,1 Z " fill="#605C65" transform="translate(50,11)"/>
<path d="M0,0 L11,0 L18,5 L18,8 L15,8 L15,10 L13,9 L14,7 L9,5 L0,1 Z " fill="#282328" transform="translate(104,0)"/>
<path d="M0,0 L5,2 L4,7 L2,5 L-1,12 L-4,11 L-4,9 L-7,9 L-6,6 L-4,6 Z " fill="#403746" transform="translate(105,27)"/>
<path d="M0,0 L4,1 L6,0 L8,1 L10,5 L16,10 L16,12 L18,13 L12,14 L9,9 L0,1 Z " fill="#988991" transform="translate(110,6)"/>
<path d="M0,0 L2,0 L1,9 L3,10 L0,14 L-2,14 L-3,16 L-7,15 L-7,11 L-4,11 L-4,9 L-2,9 L-1,3 L1,3 Z " fill="#141018" transform="translate(108,44)"/>
<path d="M0,0 L8,0 L8,3 L3,4 L3,7 L10,6 L10,8 L1,10 L0,8 Z " fill="#0F0A0C" transform="translate(24,0)"/>
<path d="M0,0 L4,0 L4,2 L2,2 L2,4 L-4,7 L-11,6 L-15,4 L-14,2 L-8,4 L-8,1 L0,2 Z " fill="#C1B1BB" transform="translate(41,70)"/>
<path d="M0,0 L4,0 L6,2 L17,3 L12,7 L7,7 L4,6 L2,6 L2,4 L0,3 Z " fill="#3A323A" transform="translate(51,29)"/>
<path d="M0,0 L19,0 L26,3 L23,4 L14,4 L10,3 L0,1 Z " fill="#0A080B" transform="translate(71,0)"/>
<path d="M0,0 L2,0 L2,2 L10,1 L9,5 L2,7 L-7,7 L-8,5 L1,5 Z " fill="#141222" transform="translate(66,54)"/>
<path d="M0,0 L2,0 L2,3 L4,2 L10,2 L10,4 L17,4 L15,6 L12,6 L12,8 L19,8 L19,9 L10,10 L11,6 L1,5 Z " fill="#655353" transform="translate(35,6)"/>
<path d="M0,0 L2,0 L1,6 L-4,8 L-9,9 L-10,12 L-13,11 L-12,8 L-6,7 L-5,1 Z " fill="#6E656C" transform="translate(44,20)"/>
<path d="M0,0 L5,1 L6,4 L3,5 L3,7 L-2,7 L-3,10 L-5,10 L-4,4 L-1,3 Z " fill="#998B91" transform="translate(27,15)"/>
<path d="M0,0 L2,1 L3,10 L1,13 L-1,9 L-3,9 L0,15 L-5,15 L-6,9 L-1,6 Z " fill="#2B2635" transform="translate(115,40)"/>
<path d="M0,0 L2,0 L7,10 L7,12 L9,12 L7,16 L5,17 L4,13 L-1,13 L-1,11 L3,12 L3,7 L0,3 Z " fill="#1B1421" transform="translate(94,18)"/>
<path d="M0,0 L2,3 L3,0 L5,5 L16,11 L17,13 L13,12 L2,7 L2,4 L-5,3 L-5,1 Z " fill="#96929F" transform="translate(97,3)"/>
<path d="M0,0 L3,0 L3,14 L-2,15 L-1,12 L1,12 L-1,8 L-6,8 L-3,5 L0,5 L0,3 L2,3 L2,1 Z " fill="#313948" transform="translate(147,62)"/>
<path d="M0,0 L4,1 L4,3 L7,3 L8,7 L7,9 L-3,9 L1,7 L0,2 Z " fill="#998A8B" transform="translate(3,44)"/>
<path d="M0,0 L5,2 L4,6 L5,12 L1,13 L-1,7 L-3,5 L0,4 Z " fill="#4C434D" transform="translate(131,21)"/>
<path d="M0,0 L6,0 L4,5 L1,5 L1,3 L-1,4 L-2,9 L-5,10 L-6,9 L-6,4 L-4,1 Z " fill="#463E51" transform="translate(117,38)"/>
<path d="M0,0 L6,1 L8,4 L6,4 L5,10 L3,10 L3,12 L1,12 L1,9 L3,9 L2,7 L-2,6 L-2,4 L2,4 Z " fill="#393540" transform="translate(120,21)"/>
<path d="M0,0 L8,2 L4,3 L4,5 L-8,5 L-10,2 L-4,2 L-2,3 L-2,1 Z " fill="#867178" transform="translate(37,67)"/>
<path d="M0,0 L1,3 L-4,5 L-4,10 L-7,12 L-12,12 L-11,8 L-6,6 L-6,2 L0,2 Z " fill="#0C0609" transform="translate(90,58)"/>
<path d="M0,0 L7,3 L10,9 L3,8 L0,7 L-1,3 Z " fill="#251D27" transform="translate(48,50)"/>
<path d="M0,0 L8,1 L11,3 L10,5 L8,4 L9,9 L4,8 L4,6 L2,6 Z " fill="#0A0508" transform="translate(108,27)"/>
<path d="M0,0 L9,1 L8,5 L5,7 L2,7 L2,4 L-4,3 Z " fill="#0D0407" transform="translate(40,27)"/>
<path d="M0,0 L6,0 L6,3 L12,4 L12,6 L2,6 L2,8 L-2,6 L-1,4 L2,3 L-1,1 Z " fill="#49454F" transform="translate(115,68)"/>
<path d="M0,0 L4,2 L4,4 L8,5 L9,7 L8,11 L4,10 L3,13 L2,11 L2,5 L0,4 Z " fill="#0A080F" transform="translate(89,19)"/>
<path d="M0,0 L6,2 L6,0 L9,1 L7,6 L0,6 L0,4 L-4,4 L-4,2 Z " fill="#1C1928" transform="translate(76,78)"/>
<path d="M0,0 L7,2 L7,5 L10,5 L10,7 L2,7 L2,6 L-3,5 L-1,1 Z " fill="#3B2D38" transform="translate(35,29)"/>
<path d="M0,0 L8,0 L9,1 L16,2 L16,5 L12,7 L11,5 L2,4 L0,3 Z " fill="#281D26" transform="translate(55,28)"/>
<path d="M0,0 L6,1 L10,1 L9,4 L15,5 L15,8 L9,6 L7,5 L7,3 L-2,3 L-2,1 Z " fill="#151218" transform="translate(68,25)"/>
<path d="M0,0 L5,2 L4,4 L0,5 L5,6 L4,9 L-4,9 L-4,7 L-2,7 L-2,3 L-6,2 Z " fill="#3D2D31" transform="translate(38,75)"/>
<path d="M0,0 L4,0 L3,3 L1,3 L1,5 L-5,9 L-10,8 L-8,5 L-4,5 L-2,1 Z " fill="#1C161F" transform="translate(138,64)"/>
<path d="M0,0 L3,0 L1,4 L-1,6 L1,7 L-2,9 L-9,9 L-5,3 Z " fill="#A8AAB8" transform="translate(124,59)"/>
<path d="M0,0 L6,0 L7,4 L0,7 L-3,7 L-3,5 L0,5 L0,3 L-3,2 Z " fill="#9D97A3" transform="translate(90,61)"/>
<path d="M0,0 L5,2 L6,6 L11,7 L12,10 L7,11 L6,7 L3,7 L3,5 L1,5 Z " fill="#161016" transform="translate(10,54)"/>
<path d="M0,0 L2,0 L3,9 L1,11 L0,6 L-1,8 L-6,7 L-5,4 L0,2 Z " fill="#7E777F" transform="translate(123,31)"/>
<path d="M0,0 L2,0 L2,2 L8,3 L9,9 L6,10 L3,5 L-1,4 Z " fill="#706877" transform="translate(80,26)"/>
<path d="M0,0 L4,0 L4,3 L-11,6 L-10,2 Z " fill="#686170" transform="translate(61,24)"/>
<path d="M0,0 L2,0 L3,3 L9,5 L6,6 L-1,5 L-1,8 L-6,6 L-4,2 Z " fill="#100F17" transform="translate(97,7)"/>
<path d="M0,0 L2,0 L2,3 L5,3 L6,0 L8,0 L8,8 L-1,8 L-1,6 L1,6 Z " fill="#0C101B" transform="translate(123,51)"/>
<path d="M0,0 L8,1 L7,5 L7,3 L4,4 L5,10 L0,10 Z " fill="#625A5F" transform="translate(0,42)"/>
<path d="M0,0 L4,0 L5,3 L9,5 L8,9 L7,7 L6,8 L0,8 L1,6 Z " fill="#737376" transform="translate(128,12)"/>
<path d="M0,0 L3,0 L3,2 L14,1 L19,2 L17,3 L16,6 L14,5 L2,4 L0,3 Z " fill="#272735" transform="translate(75,54)"/>
<path d="M0,0 L2,2 L4,7 L3,12 L0,13 L-2,9 Z " fill="#C3BCC7" transform="translate(142,34)"/>
<path d="M0,0 L2,0 L1,5 L-1,10 L-1,12 L-4,11 L-4,7 L-6,7 L-6,5 L-1,2 Z " fill="#1E2024" transform="translate(21,27)"/>
<path d="M0,0 L2,1 L0,6 L-9,9 L-10,7 L-12,7 L-12,5 L-7,5 L-2,2 L0,2 Z " fill="#3A323A" transform="translate(38,21)"/>
<path d="M0,0 L6,0 L6,7 L0,7 Z " fill="#5C4746" transform="translate(14,0)"/>
<path d="M0,0 L7,0 L5,4 L11,7 L7,8 L0,6 Z " fill="#87777E" transform="translate(0,71)"/>
<path d="M0,0 L8,2 L10,6 L6,7 L4,5 L3,4 L-2,4 Z " fill="#9C969F" transform="translate(49,62)"/>
<path d="M0,0 L1,2 L5,3 L17,9 L17,12 L1,4 Z " fill="#201921" transform="translate(14,53)"/>
<path d="M0,0 L2,1 L2,6 L1,11 L1,13 L-2,13 L-5,7 L-5,5 L-2,4 L0,4 Z " fill="#6C6F7F" transform="translate(148,31)"/>
<path d="M0,0 L6,0 L5,7 L11,7 L9,9 L3,9 L-2,8 L-4,7 L-3,6 L4,6 L4,1 L0,2 Z " fill="#5D5560" transform="translate(61,21)"/>
<path d="M0,0 L4,1 L5,5 L1,8 L1,5 L-7,5 L-5,4 L-5,2 Z " fill="#111520" transform="translate(143,69)"/>
<path d="M0,0 L2,2 L3,5 L7,7 L4,11 L1,11 L-1,5 L-2,1 Z " fill="#05060B" transform="translate(114,48)"/>
<path d="M0,0 L9,1 L11,2 L11,0 L15,0 L15,2 L13,2 L13,4 L2,4 L3,1 Z " fill="#756062" transform="translate(21,80)"/>
<path d="M0,0 L4,1 L15,6 L15,9 L6,6 L5,3 L0,2 Z " fill="#9B909C" transform="translate(16,58)"/>
<path d="M0,0 L3,1 L-2,5 L-14,7 L-13,4 L-1,1 Z " fill="#13131F" transform="translate(100,74)"/>
<path d="M0,0 L2,0 L3,3 L9,6 L9,7 L1,7 L-3,6 L-4,8 L-4,5 L-2,5 Z " fill="#49424F" transform="translate(47,67)"/>
<path d="M0,0 L2,1 L-5,6 L-5,9 L-13,9 L-10,4 L-5,3 Z " fill="#9895A4" transform="translate(132,63)"/>
<path d="M0,0 L4,2 L6,2 L7,0 L8,5 L0,7 L-1,3 Z " fill="#645258" transform="translate(139,44)"/>
<path d="M0,0 L1,0 L1,7 L-4,8 L-5,10 L-5,3 L0,2 Z " fill="#817987" transform="translate(5,6)"/>
<path d="M0,0 L6,0 L4,4 L0,8 L4,9 L0,10 L-2,6 Z " fill="#746470" transform="translate(109,55)"/>
<path d="M0,0 L8,0 L8,2 L-3,5 L-6,8 L-5,3 L0,2 Z " fill="#717483" transform="translate(90,74)"/>
<path d="M0,0 L1,2 L-1,4 L-11,7 L-12,4 L-5,1 Z " fill="#A39AA3" transform="translate(117,69)"/>
<path d="M0,0 L4,1 L10,3 L6,5 L2,6 L2,4 L-2,3 L-2,1 Z " fill="#171A27" transform="translate(55,34)"/>
<path d="M0,0 L8,1 L9,6 L2,5 Z " fill="#9392A1" transform="translate(133,0)"/>
<path d="M0,0 L3,0 L2,6 L-2,7 L-2,9 L-7,8 L-3,7 L-2,4 L-2,3 L-2,1 Z " fill="#010209" transform="translate(84,71)"/>
<path d="M0,0 L3,1 L1,1 L4,4 L3,6 L-8,4 L-6,3 L-6,1 Z " fill="#53494F" transform="translate(18,68)"/>
<path d="M0,0 L7,1 L7,3 L10,4 L8,6 L8,4 L2,3 L2,5 L5,6 L0,6 Z " fill="#251D26" transform="translate(0,65)"/>
<path d="M0,0 L2,3 L0,3 L-1,7 L-8,8 L-8,6 L-5,3 L-1,3 Z " fill="#5B5765" transform="translate(100,51)"/>
<path d="M0,0 L5,0 L4,8 L3,4 L-2,6 L-4,5 L-4,3 L0,2 Z " fill="#241D22" transform="translate(26,52)"/>
<path d="M0,0 L5,2 L5,4 L-1,4 L-3,3 L-3,5 L-9,5 L-9,2 L0,1 Z " fill="#C6BAC0" transform="translate(9,51)"/>
<path d="M0,0 L3,0 L3,3 L-7,5 L-11,3 L-8,1 Z " fill="#403C45" transform="translate(39,35)"/>
<path d="M0,0 L2,1 L0,6 L-5,8 L-8,8 L-7,5 Z " fill="#59505D" transform="translate(134,63)"/>
<path d="M0,0 L10,2 L10,4 L8,5 L2,5 L0,4 Z " fill="#887D87" transform="translate(75,19)"/>
<path d="M0,0 L8,0 L8,4 L-1,4 Z " fill="#140A0C" transform="translate(42,0)"/>
<path d="M0,0 L10,1 L9,3 L7,3 L7,5 L1,4 Z " fill="#534143" transform="translate(9,77)"/>
<path d="M0,0 L5,0 L6,5 L0,6 Z " fill="#030101" transform="translate(0,77)"/>
<path d="M0,0 L2,0 L2,5 L-1,6 L-1,8 L-6,8 L-6,5 L0,3 Z " fill="#A59398" transform="translate(137,48)"/>
<path d="M0,0 L5,2 L5,9 L1,8 L1,6 L-1,5 Z " fill="#4B3D4E" transform="translate(106,31)"/>
<path d="M0,0 L2,0 L2,2 L5,3 L4,6 L0,5 L1,12 L-1,11 L-2,2 Z " fill="#232029" transform="translate(126,25)"/>
<path d="M0,0 L3,1 L2,6 L0,8 L0,6 L-4,6 L-4,2 L0,2 Z " fill="#1F141D" transform="translate(30,20)"/>
<path d="M0,0 L14,0 L14,8 L11,8 L12,1 L5,2 L0,1 Z " fill="#353A4A" transform="translate(136,0)"/>
<path d="M0,0 L3,0 L3,2 L8,2 L3,7 L2,4 L-1,4 L-2,8 L-3,3 L1,2 Z " fill="#2B252A" transform="translate(36,38)"/>
<path d="M0,0 L7,0 L10,2 L10,4 L5,5 L1,3 L-1,1 Z " fill="#272738" transform="translate(48,16)"/>
<path d="M0,0 L7,0 L6,2 L-1,4 L-2,6 L-6,5 L-3,1 Z " fill="#B7B2BB" transform="translate(19,11)"/>
<path d="M0,0 L5,0 L5,2 L10,2 L10,4 L0,4 Z " fill="#55585F" transform="translate(119,80)"/>
<path d="M0,0 L5,1 L5,3 L9,3 L9,5 L1,5 L-1,3 Z " fill="#1A151E" transform="translate(27,75)"/>
<path d="M0,0 L4,1 L4,3 L1,3 L0,8 L-4,10 L-8,9 L-1,5 Z " fill="#635C66" transform="translate(86,63)"/>
<path d="M0,0 L1,2 L3,2 L3,4 L6,5 L5,7 L2,7 L2,4 L-4,5 L-3,2 Z " fill="#15121A" transform="translate(114,57)"/>
<path d="M0,0 L6,0 L7,5 L0,4 Z " fill="#544C54" transform="translate(101,20)"/>
<path d="M0,0 L7,2 L6,0 L9,0 L10,7 L5,5 Z " fill="#130B0E" transform="translate(106,13)"/>
<path d="M0,0 L6,0 L8,2 L8,5 L2,7 L4,2 L0,2 Z " fill="#1A1316" transform="translate(72,11)"/>
<path d="M0,0 L2,0 L3,2 L8,4 L9,6 L-4,4 L-2,1 Z " fill="#999199" transform="translate(77,6)"/>
<path d="M0,0 L10,0 L13,2 L13,4 L-1,2 Z " fill="#9D96A0" transform="translate(74,2)"/>
<path d="M0,0 L9,0 L7,3 L3,3 L3,5 L0,5 Z " fill="#6D5A62" transform="translate(32,0)"/>
<path d="M0,0 L6,0 L12,4 L12,7 L7,5 L0,1 Z " fill="#9E9499" transform="translate(109,0)"/>
<path d="M0,0 L2,0 L1,9 L3,10 L1,12 L-2,12 L-1,3 L1,3 Z " fill="#04030B" transform="translate(108,44)"/>
<path d="M0,0 L3,0 L3,2 L5,2 L5,4 L9,3 L9,5 L3,5 L2,5 L-3,5 Z " fill="#0E0E15" transform="translate(64,34)"/>
<path d="M0,0 L4,1 L6,0 L8,1 L10,8 L6,6 L0,1 Z " fill="#80797E" transform="translate(110,6)"/>
<path d="M0,0 L2,3 L2,5 L-3,5 L-3,8 L-1,8 L-2,11 L-4,9 L-4,1 L0,2 Z " fill="#3B323D" transform="translate(10,5)"/>
<path d="M0,0 L7,0 L7,3 L1,4 L0,7 Z " fill="#020102" transform="translate(25,0)"/>
<path d="M0,0 L2,3 L2,5 L-6,6 L-4,1 Z " fill="#050913" transform="translate(138,78)"/>
<path d="M0,0 L4,1 L6,2 L6,5 L-5,4 L-6,2 L2,3 L1,2 Z " fill="#1A1620" transform="translate(19,70)"/>
<path d="M0,0 L4,0 L4,2 L2,2 L3,7 L0,7 L-2,4 L-2,1 Z " fill="#4B4A5A" transform="translate(79,38)"/>
<path d="M0,0 L1,2 L4,3 L3,8 L-2,9 Z " fill="#5C5260" transform="translate(49,28)"/>
<path d="M0,0 L1,2 L0,4 L-9,5 L-7,1 Z " fill="#161517" transform="translate(70,16)"/>
<path d="M0,0 L3,1 L3,4 L1,4 L1,6 L-3,7 L-3,1 Z " fill="#73686D" transform="translate(20,13)"/>
<path d="M0,0 L5,1 L11,4 L10,7 L-1,2 Z " fill="#BDBBC1" transform="translate(104,1)"/>
<path d="M0,0 L3,1 L-4,5 L-9,6 L-9,4 L-7,4 L-7,2 Z " fill="#231921" transform="translate(112,68)"/>
<path d="M0,0 L6,1 L7,4 L10,6 L10,8 L4,6 L3,2 L0,2 Z " fill="#706975" transform="translate(46,65)"/>
<path d="M0,0 L1,3 L0,5 L-2,5 L-2,7 L-5,9 L-8,8 L-5,7 L-3,2 Z " fill="#918990" transform="translate(143,56)"/>
<path d="M0,0 L1,0 L1,7 L0,10 L-4,9 L-2,9 L-2,1 Z " fill="#02020A" transform="translate(28,27)"/>
<path d="M0,0 L9,2 L10,4 L-2,4 L-3,2 L0,2 Z " fill="#171623" transform="translate(87,0)"/>
<path d="M0,0 L4,0 L4,7 L0,6 Z " fill="#0C0709" transform="translate(6,0)"/>
<path d="M0,0 L3,2 L2,5 L7,5 L7,6 L-6,6 L-3,4 L0,4 Z " fill="#231C23" transform="translate(6,78)"/>
<path d="M0,0 L3,1 L1,4 L5,5 L3,6 L3,8 L-1,9 L-1,2 Z " fill="#1C1D28" transform="translate(87,68)"/>
<path d="M0,0 L4,1 L4,4 L-1,4 L-1,6 L-6,6 L-3,3 L0,3 Z " fill="#7A737A" transform="translate(63,65)"/>
<path d="M0,0 L1,3 L6,3 L7,1 L10,6 L8,8 L8,6 L4,6 L4,4 L0,4 Z " fill="#47393F" transform="translate(130,53)"/>
<path d="M0,0 L2,0 L5,4 L5,7 L0,7 Z " fill="#767586" transform="translate(57,51)"/>
<path d="M0,0 L4,0 L3,6 L-1,7 Z " fill="#7D8391" transform="translate(118,47)"/>
<path d="M0,0 L3,4 L4,9 L0,10 L-1,3 Z " fill="#555054" transform="translate(28,42)"/>
<path d="M0,0 L5,1 L5,3 L3,3 L3,8 L0,7 Z " fill="#A18F95" transform="translate(18,40)"/>
<path d="M0,0 L5,2 L5,6 L7,7 L4,7 L4,5 L0,6 Z " fill="#232438" transform="translate(49,38)"/>
<path d="M0,0 L6,2 L7,0 L9,5 L4,5 L0,3 Z " fill="#3A3849" transform="translate(77,31)"/>
<path d="M0,0 L2,0 L2,2 L6,3 L5,6 L2,7 L-2,3 L-2,1 Z " fill="#423638" transform="translate(15,19)"/>
<path d="M0,0 L4,0 L4,9 L2,5 L0,5 Z " fill="#5E5B60" transform="translate(146,17)"/>
<path d="M0,0 L1,4 L-7,6 L-7,2 Z " fill="#816E6E" transform="translate(21,5)"/>
<path d="M0,0 L4,1 L2,3 L-1,3 L-1,5 L-6,4 L-7,1 L0,2 Z " fill="#534E56" transform="translate(62,69)"/>
<path d="M0,0 L2,0 L3,4 L-1,6 L-5,6 L-4,3 L-1,3 Z " fill="#BDAFB7" transform="translate(106,62)"/>
<path d="M0,0 L9,2 L6,4 L-3,3 L-4,1 Z " fill="#151117" transform="translate(60,62)"/>
<path d="M0,0 L3,0 L6,3 L5,7 L1,7 Z " fill="#090A15" transform="translate(122,43)"/>
<path d="M0,0 L1,2 L4,2 L4,4 L6,4 L5,8 L5,6 L0,7 Z " fill="#434555" transform="translate(117,41)"/>
<path d="M0,0 L8,0 L10,1 L8,5 L6,6 L5,2 L0,2 Z " fill="#251C2D" transform="translate(93,29)"/>
<path d="M0,0 L9,1 L8,3 L6,3 L5,6 L4,3 L0,2 Z " fill="#5A555D" transform="translate(97,12)"/>
<path d="M0,0 L8,1 L9,6 L5,5 L5,3 L3,3 L3,1 Z " fill="#AEAFBE" transform="translate(121,0)"/>
<path d="M0,0 L4,0 L4,2 L6,2 L7,0 L7,3 L-4,3 L-3,1 Z " fill="#82808F" transform="translate(95,81)"/>
<path d="M0,0 L2,0 L2,8 L-3,9 L-2,6 L0,6 Z " fill="#697889" transform="translate(148,68)"/>
<path d="M0,0 L3,0 L3,3 L5,4 L0,7 L0,5 L-3,4 L-1,4 Z " fill="#27242F" transform="translate(142,59)"/>
<path d="M0,0 L11,0 L12,2 L8,3 L4,3 L0,1 Z " fill="#615E6D" transform="translate(78,58)"/>
<path d="M0,0 L3,1 L4,5 L2,5 L-1,6 L-2,1 Z " fill="#21191E" transform="translate(19,48)"/>
<path d="M0,0 L2,0 L2,12 L-1,11 L-2,7 L1,7 Z " fill="#181E2E" transform="translate(148,37)"/>
<path d="M0,0 L9,1 L10,3 L6,2 L5,5 L3,5 L3,2 L1,1 L0,3 L-2,1 Z " fill="#433947" transform="translate(74,24)"/>
<path d="M0,0 L4,1 L3,6 L0,7 Z " fill="#05040A" transform="translate(0,16)"/>
<path d="M0,0 L5,0 L9,4 L9,7 L7,7 L5,4 L0,2 Z " fill="#716C75" transform="translate(79,6)"/>
<path d="M0,0 L2,0 L2,3 L9,2 L9,4 L6,4 L5,6 L1,5 Z " fill="#584348" transform="translate(35,6)"/>
<path d="M0,0 L11,0 L9,1 L9,6 L7,5 L8,3 L0,1 Z " fill="#A7A8B8" transform="translate(90,0)"/>
<path d="M0,0 L7,1 L10,0 L9,4 L3,4 L3,2 L0,2 Z " fill="#6C656C" transform="translate(70,61)"/>
<path d="M0,0 L7,1 L8,5 L4,5 Z " fill="#756B72" transform="translate(36,48)"/>
<path d="M0,0 L3,1 L2,6 L-6,7 L-6,5 L0,4 Z " fill="#3F333C" transform="translate(132,40)"/>
<path d="M0,0 L3,1 L3,7 L4,10 L1,10 L-2,7 L0,6 Z " fill="#5A4E52" transform="translate(23,39)"/>
<path d="M0,0 L5,0 L6,3 L4,3 L4,7 L2,7 L2,3 L0,3 Z " fill="#C9C1C9" transform="translate(117,27)"/>
<path d="M0,0 L5,2 L4,5 L-3,6 L0,4 Z " fill="#76676C" transform="translate(131,21)"/>
<path d="M0,0 L5,0 L5,3 L8,4 L0,4 Z " fill="#525060" transform="translate(53,21)"/>
<path d="M0,0 L10,1 L10,3 L-1,3 Z " fill="#1B191A" transform="translate(140,8)"/>
<path d="M0,0 L3,0 L3,2 L-2,4 L-3,6 L-5,6 L-5,3 L-7,1 Z " fill="#68656A" transform="translate(63,0)"/>
<path d="M0,0 L4,0 L4,5 L0,6 Z " fill="#474555" transform="translate(0,0)"/>
<path d="M0,0 L4,0 L3,3 L1,3 L1,5 L-2,5 L-3,2 Z " fill="#120F17" transform="translate(138,64)"/>
<path d="M0,0 L1,3 L-4,5 L-5,8 L-8,7 L-6,6 L-6,2 L0,2 Z " fill="#19141E" transform="translate(90,58)"/>
<path d="M0,0 L1,3 L4,2 L4,4 L0,4 L0,6 L-6,7 Z " fill="#7F8595" transform="translate(127,59)"/>
<path d="M0,0 L5,1 L6,5 L-3,5 L1,4 Z " fill="#4E4D5D" transform="translate(61,54)"/>
<path d="M0,0 L2,0 L2,2 L4,3 L3,5 L-7,5 L-7,4 L-1,4 Z " fill="#9E8E90" transform="translate(7,48)"/>
<path d="M0,0 L6,1 L8,4 L6,5 L2,4 L2,2 L0,2 Z " fill="#08070C" transform="translate(131,4)"/>
<path d="M0,0 L6,0 L6,4 L0,4 Z " fill="#354757" transform="translate(83,80)"/>
<path d="M0,0 L10,1 L10,3 L2,3 Z " fill="#8B7D87" transform="translate(27,69)"/>
<path d="M0,0 L3,2 L1,3 L-8,3 L-9,1 Z " fill="#252233" transform="translate(67,58)"/>
<path d="M0,0 L2,1 L1,3 L3,3 L2,7 L-2,5 Z " fill="#1E0D0E" transform="translate(139,51)"/>
<path d="M0,0 L3,0 L3,2 L1,2 L0,7 L-3,6 L-4,2 L0,3 Z " fill="#2F2D3B" transform="translate(106,45)"/>
<path d="M0,0 L3,2 L5,7 L0,7 Z " fill="#130D0E" transform="translate(0,45)"/>
<path d="M0,0 L4,2 L5,6 L1,5 L0,8 L-1,6 Z " fill="#140B1D" transform="translate(92,24)"/>
<path d="M0,0 L2,0 L2,2 L4,3 L-1,6 L-2,6 L-2,1 Z " fill="#292737" transform="translate(2,24)"/>
<path d="M0,0 L5,0 L4,3 L2,3 L2,6 L-1,5 L0,2 L-2,1 Z " fill="#4C4A56" transform="translate(46,18)"/>
<path d="M0,0 L5,1 L8,4 L7,8 L5,6 L5,3 L2,3 L2,1 Z " fill="#767279" transform="translate(91,14)"/>
<path d="M0,0 L2,2 L0,2 L2,9 L-2,8 L-3,5 Z " fill="#302F36" transform="translate(128,10)"/>
<path d="M0,0 L3,1 L1,6 L-6,6 L-2,3 L0,2 Z " fill="#0C1625" transform="translate(82,78)"/>
<path d="M0,0 L5,0 L4,2 L-1,4 L-6,4 L-2,1 Z " fill="#72626F" transform="translate(111,66)"/>
<path d="M0,0 L5,0 L5,2 L-4,4 L-4,2 Z " fill="#BBB5C2" transform="translate(91,64)"/>
<path d="M0,0 L3,0 L1,4 L-4,6 L-2,2 Z " fill="#D0D4E0" transform="translate(124,59)"/>
<path d="M0,0 L5,1 L3,2 L3,4 L7,6 L7,7 L2,7 Z " fill="#403F4E" transform="translate(76,49)"/>
<path d="M0,0 L1,0 L1,6 L-4,7 L-5,3 L-1,3 Z " fill="#1F171F" transform="translate(136,30)"/>
<path d="M0,0 L5,0 L5,5 L1,4 Z " fill="#271B2F" transform="translate(87,24)"/>
<path d="M0,0 L1,0 L1,6 L-3,5 L-2,4 L-6,2 Z " fill="#5E5061" transform="translate(85,22)"/>
<path d="M0,0 L2,0 L1,5 L-3,5 L-3,1 Z " fill="#918990" transform="translate(44,20)"/>
<path d="M0,0 L6,2 L9,5 L8,8 L6,8 L5,4 L0,1 Z " fill="#CABCC4" transform="translate(112,11)"/>
<path d="M0,0 L5,0 L9,3 L0,3 Z " fill="#010102" transform="translate(141,6)"/>
<path d="M0,0 L6,2 L8,6 L3,6 L2,3 L0,2 Z " fill="#42414C" transform="translate(104,3)"/>
<path d="M0,0 L5,0 L2,3 L-4,5 L-3,1 Z " fill="#3B4553" transform="translate(142,77)"/>
<path d="M0,0 L6,0 L5,4 L0,3 Z " fill="#111420" transform="translate(0,56)"/>
<path d="M0,0 L1,4 L-1,8 L-2,5 L-4,5 L-2,1 Z " fill="#313142" transform="translate(61,46)"/>
<path d="M0,0 L3,2 L3,4 L-1,5 L-1,3 L-4,3 L-4,1 Z " fill="#232730" transform="translate(90,42)"/>
<path d="M0,0 L3,1 L4,4 L2,4 L1,7 L-3,5 L1,5 Z " fill="#413540" transform="translate(116,31)"/>
<path d="M0,0 L3,4 L1,5 L0,7 L-4,5 L-4,3 L0,4 Z " fill="#9D8D97" transform="translate(116,22)"/>
<path d="M0,0 L1,3 L3,3 L5,7 L0,5 L-2,4 Z " fill="#B4B2B3" transform="translate(135,18)"/>
<path d="M0,0 L4,0 L6,6 L2,5 Z " fill="#BBBBBD" transform="translate(128,12)"/>
<path d="M0,0 L12,0 L12,1 L0,3 Z " fill="#B5B4BC" transform="translate(51,0)"/>
<path d="M0,0 L3,0 L3,6 L0,7 Z " fill="#3F2B28" transform="translate(14,0)"/>
<path d="M0,0 L2,0 L0,4 L-6,5 L-6,3 L0,2 Z " fill="#E2E2E4" transform="translate(131,74)"/>
<path d="M0,0 L6,1 L8,5 L-1,2 Z " fill="#4C424A" transform="translate(13,73)"/>
<path d="M0,0 L2,0 L3,7 L-3,3 L0,2 Z " fill="#2D2330" transform="translate(44,65)"/>
<path d="M0,0 L5,1 L1,3 L0,6 L-2,2 L0,2 Z " fill="#88828B" transform="translate(98,59)"/>
<path d="M0,0 L2,0 L3,2 L5,3 L1,5 L-2,4 Z " fill="#3E4655" transform="translate(119,57)"/>
<path d="M0,0 L2,2 L7,4 L8,6 L-2,3 L0,2 Z " fill="#CCC4CC" transform="translate(27,57)"/>
<path d="M0,0 L4,1 L8,4 L8,6 L6,6 L5,4 L0,2 Z " fill="#9C9299" transform="translate(36,53)"/>
<path d="M0,0 L2,0 L1,6 L-4,6 L-3,4 L-1,4 Z " fill="#000003" transform="translate(129,51)"/>
<path d="M0,0 L2,1 L2,4 L-1,6 L-4,6 L-4,4 Z " fill="#6C5A5F" transform="translate(135,47)"/>
<path d="M0,0 L2,1 L-2,5 L-6,4 L-6,2 Z " fill="#0E1116" transform="translate(91,46)"/>
<path d="M0,0 L3,0 L4,6 L0,5 Z " fill="#0B070A" transform="translate(35,42)"/>
<path d="M0,0 L2,0 L2,7 L-1,6 L-1,1 Z " fill="#806D73" transform="translate(135,40)"/>
<path d="M0,0 L5,3 L4,6 L3,3 L-6,2 L-6,1 Z " fill="#251F26" transform="translate(8,41)"/>
<path d="M0,0 L3,1 L2,4 L-3,4 L-3,1 Z " fill="#08060B" transform="translate(7,22)"/>
<path d="M0,0 L4,1 L6,2 L6,7 L4,7 L4,3 L0,1 Z " fill="#C8BAC1" transform="translate(110,19)"/>
<path d="M0,0 L1,2 L7,2 L7,3 L2,3 L1,6 L-1,6 Z " fill="#897A80" transform="translate(23,19)"/>
<path d="M0,0 L4,1 L4,3 L1,3 L1,5 L-3,5 L-3,3 L0,3 Z " fill="#262025" transform="translate(103,15)"/>
<path d="M0,0 L1,3 L3,3 L3,5 L6,6 L3,7 L0,6 L-1,3 Z " fill="#646069" transform="translate(130,3)"/>
<path d="M0,0 L7,0 L9,2 L0,3 Z " fill="#998387" transform="translate(37,6)"/>
<path d="M0,0 L5,1 L4,4 L-2,3 L0,2 Z " fill="#151214" transform="translate(19,80)"/>
<path d="M0,0 L1,2 L-1,4 L-6,4 L-5,1 Z " fill="#AFA9B2" transform="translate(117,69)"/>
<path d="M0,0 L5,1 L6,5 L2,5 Z " fill="#A39BA7" transform="translate(11,60)"/>
<path d="M0,0 L7,0 L7,3 L9,4 L6,4 L0,2 Z " fill="#453B4D" transform="translate(109,61)"/>
<path d="M0,0 L4,1 L3,3 L6,4 L1,5 L-1,4 Z " fill="#413A47" transform="translate(54,59)"/>
<path d="M0,0 L1,2 L5,3 L8,6 L2,5 L0,3 Z " fill="#140C0F" transform="translate(14,53)"/>
<path d="M0,0 L2,1 L-2,6 L-4,6 L-4,2 Z " fill="#544E60" transform="translate(73,49)"/>
<path d="M0,0 L1,2 L-1,5 L-3,5 L-3,3 L-5,3 L-5,1 Z " fill="#484152" transform="translate(73,46)"/>
<path d="M0,0 L3,0 L3,5 L1,6 L1,4 L-1,4 Z " fill="#625C6C" transform="translate(104,37)"/>
<path d="M0,0 L5,3 L5,5 L0,5 L-1,1 Z " fill="#313245" transform="translate(52,35)"/>
<path d="M0,0 L5,0 L5,2 L-2,4 Z " fill="#27212D" transform="translate(71,34)"/>
<path d="M0,0 L5,1 L5,4 L2,5 L-1,2 Z " fill="#9091A0" transform="translate(144,32)"/>
<path d="M0,0 L2,1 L1,3 L3,4 L1,4 L0,7 L-1,4 L-3,3 L-3,1 Z " fill="#343141" transform="translate(76,35)"/>
<path d="M0,0 L8,1 L8,4 L2,2 Z " fill="#0B0A12" transform="translate(75,29)"/>
<path d="M0,0 L2,2 L2,8 L-3,6 L0,5 Z " fill="#2C2736" transform="translate(148,24)"/>
<path d="M0,0 L1,0 L1,7 L-4,7 L-3,4 L0,4 Z " fill="#0D0A16" transform="translate(147,22)"/>
<path d="M0,0 L4,0 L4,3 L-3,3 Z " fill="#87818F" transform="translate(61,24)"/>
<path d="M0,0 L4,1 L4,4 L2,4 L1,6 L-1,2 Z " fill="#3D3137" transform="translate(110,21)"/>
<path d="M0,0 L2,0 L2,2 L7,2 L6,4 L1,4 L-1,1 Z " fill="#7A7A87" transform="translate(56,7)"/>
<path d="M0,0 L3,0 L2,4 L0,5 L0,3 L-2,3 L-2,1 Z " fill="#060811" transform="translate(84,71)"/>
<path d="M0,0 L6,0 L6,3 L-1,2 Z " fill="#656171" transform="translate(115,68)"/>
<path d="M0,0 L2,1 L2,4 L-4,6 L-3,2 Z " fill="#3F3840" transform="translate(83,59)"/>
<path d="M0,0 L5,0 L6,3 L1,4 Z " fill="#504852" transform="translate(16,61)"/>
<path d="M0,0 L2,0 L2,4 L0,4 L0,7 L-2,6 L-2,2 L0,2 Z " fill="#28303C" transform="translate(122,53)"/>
<path d="M0,0 L7,2 L6,5 L4,5 L3,3 L0,2 Z " fill="#1E1F2B" transform="translate(77,44)"/>
<path d="M0,0 L0,3 L-1,5 L-4,5 L-5,2 Z " fill="#6B6473" transform="translate(122,38)"/>
<path d="M0,0 L1,3 L-1,3 L-1,5 L1,6 L-4,5 L-3,2 Z " fill="#8F838D" transform="translate(121,33)"/>
<path d="M0,0 L5,1 L2,2 L2,4 L-2,3 L0,2 Z " fill="#28282A" transform="translate(12,24)"/>
<path d="M0,0 L2,2 L2,4 L5,6 L3,7 L-1,5 Z " fill="#3C383F" transform="translate(99,19)"/>
<path d="M0,0 L1,0 L1,5 L-3,7 L-4,5 L-2,5 L-1,1 Z " fill="#35313F" transform="translate(52,21)"/>
<path d="M0,0 L7,1 L7,3 L0,3 Z " fill="#474655" transform="translate(58,21)"/>
<path d="M0,0 L2,4 L-5,6 L-5,4 L0,2 Z " fill="#817987" transform="translate(5,19)"/>
<path d="M0,0 L2,1 L2,4 L-2,5 L-4,2 Z " fill="#5E5257" transform="translate(25,12)"/>
<path d="M0,0 L7,1 L7,3 L1,3 Z " fill="#342E40" transform="translate(54,10)"/>
<path d="M0,0 L6,0 L5,2 L-2,3 L-2,1 Z " fill="#18181C" transform="translate(53,2)"/>
<path d="M0,0 L5,1 L4,4 L2,4 L2,2 L-2,1 Z " fill="#696675" transform="translate(97,79)"/>
<path d="M0,0 L3,1 L1,1 L1,3 L4,4 L1,4 L0,6 L0,4 L-2,3 Z " fill="#2B2D30" transform="translate(124,76)"/>
<path d="M0,0 L3,1 L2,3 L-6,4 L-6,2 Z " fill="#2C2D3A" transform="translate(108,75)"/>
<path d="M0,0 L6,1 L8,2 L7,4 L2,3 L2,1 Z " fill="#A299A4" transform="translate(14,70)"/>
<path d="M0,0 L4,0 L4,2 L2,2 L2,4 L-3,3 L0,2 Z " fill="#A6919C" transform="translate(41,70)"/>
<path d="M0,0 L4,0 L2,4 L-3,2 Z " fill="#1B161D" transform="translate(93,66)"/>
<path d="M0,0 L4,2 L0,4 L-2,3 L-2,1 Z " fill="#19131C" transform="translate(16,65)"/>
<path d="M0,0 L1,2 L5,4 L3,7 L0,3 Z " fill="#6E666D" transform="translate(21,46)"/>
<path d="M0,0 L3,0 L1,5 L-2,4 L-2,2 L0,2 Z " fill="#292232" transform="translate(103,34)"/>
<path d="M0,0 L3,0 L1,5 L-2,3 Z " fill="#2F3A47" transform="translate(22,31)"/>
<path d="M0,0 L2,1 L1,3 L5,2 L5,4 L3,4 L3,6 L0,5 Z " fill="#484051" transform="translate(46,34)"/>
<path d="M0,0 L7,1 L5,3 L1,4 Z " fill="#1F151E" transform="translate(55,28)"/>
<path d="M0,0 L3,0 L3,4 L0,5 L-1,1 Z " fill="#76777F" transform="translate(17,26)"/>
<path d="M0,0 L2,0 L2,2 L5,3 L-3,3 L-3,1 Z " fill="#776B6E" transform="translate(50,11)"/>
<path d="M0,0 L4,1 L1,1 L1,4 L-4,2 Z " fill="#09080E" transform="translate(95,11)"/>
<path d="M0,0 L4,3 L0,4 L-3,4 L-3,1 Z " fill="#3B363B" transform="translate(113,9)"/>
<path d="M0,0 L3,1 L3,3 L-5,3 L-1,1 Z " fill="#170F18" transform="translate(43,77)"/>
<path d="M0,0 L4,1 L3,3 L1,5 L-3,4 L0,4 Z " fill="#161924" transform="translate(80,73)"/>
<path d="M0,0 L1,2 L4,3 L3,5 L0,5 L0,2 L-2,1 Z " fill="#262434" transform="translate(116,59)"/>
<path d="M0,0 L1,3 L3,4 L1,6 L-2,6 Z " fill="#0C0710" transform="translate(108,50)"/>
<path d="M0,0 L2,0 L1,5 L-2,5 L-2,2 L0,2 Z " fill="#555664" transform="translate(84,40)"/>
<path d="M0,0 L5,0 L4,2 L2,2 L3,6 L1,6 Z " fill="#0C0B12" transform="translate(1,36)"/>
<path d="M0,0 L4,1 L5,3 L-2,3 L-2,1 Z " fill="#20202B" transform="translate(55,34)"/>
<path d="M0,0 L4,0 L2,5 L0,5 Z " fill="#121320" transform="translate(0,30)"/>
<path d="M0,0 L1,2 L4,3 L3,7 L0,4 Z " fill="#554B53" transform="translate(49,28)"/>
<path d="M0,0 L1,2 L4,2 L3,4 L-3,4 L-2,2 Z " fill="#413A3D" transform="translate(73,16)"/>
<path d="M0,0 L5,1 L5,3 L0,3 Z " fill="#332E38" transform="translate(102,81)"/>
<path d="M0,0 L5,1 L6,4 L2,3 L3,1 Z " fill="#585057" transform="translate(21,80)"/>
<path d="M0,0 L4,0 L3,4 L-1,2 Z " fill="#605962" transform="translate(114,72)"/>
<path d="M0,0 L6,0 L3,2 L-2,3 Z " fill="#372C32" transform="translate(101,68)"/>
<path d="M0,0 L2,1 L2,4 L-3,4 Z " fill="#453F47" transform="translate(47,59)"/>
<path d="M0,0 L6,0 L4,4 L2,3 L3,1 Z " fill="#67646F" transform="translate(109,55)"/>
<path d="M0,0 L1,0 L1,5 L-2,5 L-4,3 L-1,2 Z " fill="#4E4246" transform="translate(44,51)"/>
<path d="M0,0 L3,2 L3,5 L-1,4 Z " fill="#100A0D" transform="translate(48,50)"/>
<path d="M0,0 L5,2 L4,5 L0,3 Z " fill="#6C606D" transform="translate(106,31)"/>
<path d="M0,0 L3,0 L3,4 L0,4 L-1,1 Z " fill="#2A2334" transform="translate(92,33)"/>
<path d="M0,0 L1,2 L5,3 L5,4 L-1,4 Z " fill="#28212E" transform="translate(33,30)"/>
<path d="M0,0 L4,0 L3,4 L1,4 Z " fill="#8A818F" transform="translate(85,32)"/>
<path d="M0,0 L3,0 L3,3 L-2,3 L-2,1 Z " fill="#686071" transform="translate(74,31)"/>
<path d="M0,0 L2,0 L3,3 L-5,2 L-5,1 Z " fill="#180E14" transform="translate(46,25)"/>
<path d="M0,0 L1,4 L3,5 L-1,5 L-2,1 Z " fill="#CBB8C4" transform="translate(129,21)"/>
<path d="M0,0 L2,0 L4,6 L2,6 L0,3 Z " fill="#2B252D" transform="translate(94,18)"/>
<path d="M0,0 L3,1 L1,5 L-2,4 L-2,2 L0,2 Z " fill="#A19398" transform="translate(109,18)"/>
<path d="M0,0 L5,0 L5,2 L0,3 Z " fill="#261C25" transform="translate(10,18)"/>
<path d="M0,0 L2,3 L2,5 L-3,5 L-3,3 L0,3 Z " fill="#584648" transform="translate(10,5)"/>
<path d="M0,0 L3,0 L3,3 L-2,3 L-2,1 Z " fill="#DBD6E0" transform="translate(2,9)"/>
<path d="M0,0 L6,0 L4,1 L4,3 L-1,2 Z " fill="#505060" transform="translate(88,3)"/>
<path d="M0,0 L3,0 L3,4 L0,4 Z " fill="#37353A" transform="translate(119,80)"/>
<path d="M0,0 L2,0 L2,2 L4,3 L-2,3 L-2,1 Z " fill="#857176" transform="translate(66,80)"/>
<path d="M0,0 L4,0 L4,2 L2,2 L2,4 L0,4 Z " fill="#9A8888" transform="translate(32,80)"/>
<path d="M0,0 L4,1 L2,2 L2,4 L-1,3 Z " fill="#101218" transform="translate(111,74)"/>
<path d="M0,0 L4,1 L4,3 L-1,2 Z " fill="#88787F" transform="translate(40,74)"/>
<path d="M0,0 L5,0 L7,3 L4,4 L4,1 Z " fill="#414857" transform="translate(124,58)"/>
<path d="M0,0 L5,2 L6,4 L0,2 Z " fill="#57484F" transform="translate(10,54)"/>
<path d="M0,0 L2,2 L2,5 L-1,5 L-2,2 L0,2 Z " fill="#434452" transform="translate(80,40)"/>
<path d="M0,0 L3,0 L3,3 L-2,2 Z " fill="#655A64" transform="translate(39,35)"/>
<path d="M0,0 L2,4 L0,6 L-3,4 L-1,4 Z " fill="#50383D" transform="translate(9,31)"/>
<path d="M0,0 L4,1 L4,3 L-1,3 Z " fill="#2C2C33" transform="translate(59,33)"/>
<path d="M0,0 L2,0 L1,5 L-1,5 Z " fill="#0F0F18" transform="translate(21,27)"/>
<path d="M0,0 L4,1 L2,4 L-1,3 Z " fill="#776F78" transform="translate(32,28)"/>
<path d="M0,0 L3,3 L3,5 L-2,5 L0,4 Z " fill="#241C26" transform="translate(119,20)"/>
<path d="M0,0 L3,0 L3,6 L0,2 Z " fill="#716E77" transform="translate(147,20)"/>
<path d="M0,0 L2,0 L2,2 L4,3 L-2,3 L-2,1 Z " fill="#483C41" transform="translate(15,19)"/>
<path d="M0,0 L2,0 L3,4 L0,4 L0,2 L-2,1 Z " fill="#352A31" transform="translate(77,16)"/>
<path d="M0,0 L6,1 L2,3 L0,3 Z " fill="#1B151A" transform="translate(7,10)"/>
<path d="M0,0 L5,1 L3,3 L0,3 Z " fill="#3E3E4D" transform="translate(92,6)"/>
<path d="M0,0 L4,1 L6,4 L2,4 L2,2 L0,2 Z " fill="#14121F" transform="translate(89,8)"/>
<path d="M0,0 L3,1 L3,4 L-2,2 Z " fill="#786E73" transform="translate(118,3)"/>
<path d="M0,0 L3,2 L-3,4 L-2,1 Z " fill="#10090B" transform="translate(69,2)"/>
<path d="M0,0 L7,1 L4,3 L1,3 Z " fill="#B4B5C5" transform="translate(133,0)"/>
<path d="M0,0 L3,1 L2,4 L-1,4 Z " fill="#110203" transform="translate(42,0)"/>
<path d="M0,0 L3,0 L2,3 L-2,2 Z " fill="#000002" transform="translate(90,68)"/>
<path d="M0,0 L3,1 L2,3 L-3,3 Z " fill="#817B83" transform="translate(60,68)"/>
<path d="M0,0 L4,1 L1,3 L-2,2 Z " fill="#32282F" transform="translate(81,63)"/>
<path d="M0,0 L4,1 L2,1 L1,4 L-1,3 Z " fill="#47414E" transform="translate(68,60)"/>
<path d="M0,0 L3,0 L2,4 L-1,3 Z " fill="#A9A3AC" transform="translate(109,56)"/>
<path d="M0,0 L2,0 L2,3 L-3,4 Z " fill="#0B0917" transform="translate(73,56)"/>
<path d="M0,0 L6,0 L4,1 L4,3 L0,1 Z " fill="#333542" transform="translate(83,55)"/>
<path d="M0,0 L6,0 L5,3 L0,2 Z " fill="#3B303C" transform="translate(48,55)"/>
<path d="M0,0 L2,0 L1,4 L-1,4 L-1,2 L-3,1 Z " fill="#140608" transform="translate(144,49)"/>
<path d="M0,0 L1,0 L1,5 L-1,5 L-2,1 Z " fill="#040309" transform="translate(114,48)"/>
<path d="M0,0 L3,0 L4,5 L2,5 Z " fill="#54484B" transform="translate(11,47)"/>
<path d="M0,0 L4,3 L0,5 Z " fill="#0F0A0F" transform="translate(126,40)"/>
<path d="M0,0 L2,1 L2,3 L-3,3 L-3,1 Z " fill="#443B46" transform="translate(42,37)"/>
<path d="M0,0 L3,1 L3,4 L0,4 Z " fill="#716973" transform="translate(133,29)"/>
<path d="M0,0 L5,0 L1,4 Z " fill="#322A3B" transform="translate(98,31)"/>
<path d="M0,0 L5,0 L4,2 L-1,3 Z " fill="#392F40" transform="translate(91,31)"/>
<path d="M0,0 L2,0 L2,3 L-3,4 L-3,2 Z " fill="#313A43" transform="translate(18,30)"/>
<path d="M0,0 L6,1 L2,3 Z " fill="#696370" transform="translate(120,21)"/>
<path d="M0,0 L8,1 L4,3 Z " fill="#63545E" transform="translate(77,20)"/>
<path d="M0,0 L3,0 L2,4 L0,4 Z " fill="#A69CA9" transform="translate(6,18)"/>
<path d="M0,0 L6,2 L6,3 L0,3 Z " fill="#837C84" transform="translate(82,13)"/>
<path d="M0,0 L4,0 L4,3 L0,2 Z " fill="#39393A" transform="translate(54,4)"/>
<path d="M0,0 L2,0 L2,3 L-3,3 Z " fill="#887A7A" transform="translate(148,81)"/>
<path d="M0,0 L3,0 L4,3 L0,3 Z " fill="#1F1A1F" transform="translate(95,70)"/>
<path d="M0,0 L4,2 L1,2 L0,4 L0,2 L-2,1 Z " fill="#B7B5C3" transform="translate(137,69)"/>
<path d="M0,0 L4,1 L2,3 L-1,2 Z " fill="#494548" transform="translate(62,69)"/>
<path d="M0,0 L2,2 L2,5 L-1,4 Z " fill="#888694" transform="translate(125,67)"/>
<path d="M0,0 L3,0 L2,3 L-1,3 Z " fill="#DBDEEB" transform="translate(124,59)"/>
<path d="M0,0 L3,3 L-2,3 L-2,1 Z " fill="#0C0A15" transform="translate(55,56)"/>
<path d="M0,0 L2,4 L1,6 L-1,6 Z " fill="#6D6973" transform="translate(127,48)"/>
<path d="M0,0 L3,1 L-2,4 Z " fill="#4C4D56" transform="translate(91,48)"/>
<path d="M0,0 L3,1 L2,3 L-1,3 Z " fill="#7F7988" transform="translate(112,44)"/>
<path d="M0,0 L2,4 L0,6 L-2,5 Z " fill="#2A1C32" transform="translate(111,36)"/>
<path d="M0,0 L4,2 L0,3 Z " fill="#32252F" transform="translate(105,27)"/>
<path d="M0,0 L3,1 L3,3 L-2,2 Z " fill="#97929E" transform="translate(120,27)"/>
<path d="M0,0 L3,2 L2,5 L0,4 Z " fill="#24171E" transform="translate(108,23)"/>
<path d="M0,0 L1,3 L3,4 L-2,3 Z " fill="#ADA0AA" transform="translate(121,17)"/>
<path d="M0,0 L2,0 L0,4 L-2,3 L-2,1 Z " fill="#4F4A58" transform="translate(13,13)"/>
<path d="M0,0 L1,4 L-2,4 L-2,1 Z " fill="#121017" transform="translate(60,5)"/>
<path d="M0,0 L1,4 L-2,4 L-2,1 Z " fill="#74717C" transform="translate(149,4)"/>
<path d="M0,0 L5,1 L1,3 Z " fill="#31313E" transform="translate(101,6)"/>
<path d="M0,0 L3,0 L4,3 L0,3 Z " fill="#040309" transform="translate(143,2)"/>
<path d="M0,0 L5,1 L2,3 L-1,1 Z " fill="#AAA8B6" transform="translate(104,1)"/>
<path d="M0,0 L3,1 L2,3 L-1,3 Z " fill="#040000" transform="translate(57,79)"/>
<path d="M0,0 L4,1 L2,2 L1,4 Z " fill="#383947" transform="translate(88,72)"/>
<path d="M0,0 L4,1 L0,3 Z " fill="#D9D7E2" transform="translate(139,67)"/>
<path d="M0,0 L5,1 L4,3 L0,1 Z " fill="#6C666F" transform="translate(78,58)"/>
<path d="M0,0 L3,1 L3,3 L-2,2 Z " fill="#2E272F" transform="translate(22,58)"/>
<path d="M0,0 L2,0 L1,4 L-1,4 Z " fill="#0B0405" transform="translate(140,54)"/>
<path d="M0,0 L2,4 L0,7 L-1,3 Z " fill="#13111C" transform="translate(115,50)"/>
<path d="M0,0 L2,0 L1,4 L0,2 L-2,1 Z " fill="#37272B" transform="translate(15,51)"/>
<path d="M0,0 L2,1 L-1,5 L-2,2 Z " fill="#33303F" transform="translate(95,51)"/>
<path d="M0,0 L3,2 L2,5 L0,3 Z " fill="#766667" transform="translate(3,47)"/>
<path d="M0,0 L4,2 L2,4 Z " fill="#D3BEC9" transform="translate(140,43)"/>
<path d="M0,0 L2,0 L2,4 L0,4 L-1,1 Z " fill="#535356" transform="translate(20,35)"/>
<path d="M0,0 L3,1 L2,4 L0,4 Z " fill="#1F1C27" transform="translate(75,25)"/>
<path d="M0,0 L2,0 L2,2 L4,3 L1,4 Z " fill="#140F16" transform="translate(126,25)"/>
<path d="M0,0 L4,2 L1,3 L-1,1 Z " fill="#30282E" transform="translate(69,0)"/>
<path d="M0,0 L4,1 L0,3 Z " fill="#55434B" transform="translate(37,0)"/>
<path d="M0,0 L4,1 L1,3 Z " fill="#6D6975" transform="translate(126,69)"/>
<path d="M0,0 L3,1 L3,3 L0,3 Z " fill="#958B95" transform="translate(98,66)"/>
<path d="M0,0 L2,0 L2,3 L-2,1 Z " fill="#948891" transform="translate(29,64)"/>
<path d="M0,0 L3,0 L2,3 L0,3 Z " fill="#5D596A" transform="translate(69,52)"/>
<path d="M0,0 L2,0 L0,4 Z " fill="#0D080E" transform="translate(129,51)"/>
<path d="M0,0 L3,1 L1,4 Z " fill="#1D1B1C" transform="translate(34,48)"/>
<path d="M0,0 L3,0 L3,3 L0,2 Z " fill="#5F535D" transform="translate(43,46)"/>
<path d="M0,0 L2,0 L2,3 L-1,3 Z " fill="#A2929A" transform="translate(135,40)"/>
<path d="M0,0 L3,3 L1,4 L-1,2 Z " fill="#544B5B" transform="translate(106,34)"/>
<path d="M0,0 L3,0 L2,3 L0,3 Z " fill="#947D80" transform="translate(14,34)"/>
<path d="M0,0 L4,2 L1,3 Z " fill="#7D6E78" transform="translate(112,25)"/>
<path d="M0,0 L5,1 L2,3 Z " fill="#29222C" transform="translate(86,17)"/>
<path d="M0,0 L3,0 L3,3 L0,2 Z " fill="#252229" transform="translate(54,10)"/>
<path d="M0,0 L4,1 L4,3 L0,1 Z " fill="#858289" transform="translate(110,6)"/>
<path d="M0,0 L2,3 L0,4 L-2,2 L0,2 Z " fill="#A89FA7" transform="translate(27,57)"/>
<path d="M0,0 L2,2 L0,4 L0,2 L-2,1 Z " fill="#2F2528" transform="translate(138,57)"/>
<path d="M0,0 L2,3 L-1,3 Z " fill="#3D3337" transform="translate(25,46)"/>
<path d="M0,0 L3,1 L3,3 L0,2 Z " fill="#16162C" transform="translate(49,38)"/>
<path d="M0,0 L2,1 L2,3 L-1,2 Z " fill="#5C4B53" transform="translate(13,73)"/>
<path d="M0,0 L3,1 L1,3 Z " fill="#736C76" transform="translate(99,71)"/>
<path d="M0,0 L2,2 L-1,3 Z " fill="#42384A" transform="translate(111,47)"/>
<path d="M0,0 L2,0 L1,3 L-1,1 Z " fill="#211B23" transform="translate(48,16)"/>
</svg>
