<?xml version="1.0" encoding="UTF-8"?>
<!-- Generator: visioncortex VTracer 0.6.5 -->
<svg version="1.1" xmlns="http://www.w3.org/2000/svg" width="150" height="84">
<path d="M0,0 L150,0 L150,84 L0,84 Z " fill="#2B1F1C" transform="translate(0,0)"/>
<path d="M0,0 L4,2 L7,5 L6,7 L4,6 L4,8 L9,10 L9,13 L11,13 L11,17 L9,18 L8,30 L10,30 L11,31 L11,27 L15,27 L14,24 L12,22 L13,19 L13,13 L18,13 L20,16 L21,29 L16,30 L16,40 L11,46 L6,49 L3,50 L3,52 L8,50 L10,53 L13,54 L13,52 L17,52 L17,50 L19,50 L19,48 L21,48 L21,44 L25,40 L27,34 L30,33 L30,30 L32,30 L32,70 L-49,70 L-47,68 L-55,66 L-55,64 L-51,63 L-36,63 L-38,64 L-38,66 L-23,65 L-15,64 L-15,62 L-11,60 L-15,60 L-15,58 L-10,57 L-8,51 L-2,48 L-1,43 L3,37 L3,34 L7,30 L5,30 L5,17 L4,16 L3,26 L0,27 L3,28 L4,31 L3,33 L-3,35 L-7,39 L-15,39 L-16,37 L-29,37 L-30,44 L-34,45 L-43,45 L-43,43 L-40,41 L-46,42 L-48,43 L-54,43 L-54,41 L-46,39 L-48,38 L-47,34 L-45,33 L-43,27 L-41,27 L-42,22 L-49,22 L-49,19 L-46,19 L-46,17 L-54,16 L-56,10 L-54,9 L-46,9 L-44,4 L-36,5 L-35,6 L-21,7 L-18,10 L-23,10 L-23,12 L-30,12 L-31,11 L-43,10 L-52,13 L-24,14 L-21,16 L-21,20 L-18,20 L-16,22 L-12,22 L-11,18 L-10,18 L-11,25 L-13,26 L-13,29 L-7,26 L-6,24 L-6,15 L-10,14 L-12,18 L-13,16 L-15,16 L-15,18 L-19,17 L-20,12 L-17,9 L-14,8 L-14,4 L-6,4 L-3,6 L-3,8 L0,8 Z " fill="#3D4755" transform="translate(118,14)"/>
<path d="M0,0 L9,0 L9,3 L3,3 L3,7 L-3,7 L-4,10 L-9,10 L-7,15 L-7,18 L-4,18 L-4,20 L-10,22 L-11,27 L-13,24 L-13,22 L-11,21 L-10,17 L-13,17 L-15,30 L-9,31 L-9,33 L-7,33 L-6,29 L-4,29 L-4,43 L-5,46 L-7,46 L-6,50 L3,50 L5,49 L5,47 L-2,47 L-3,36 L-3,33 L2,35 L2,37 L5,37 L5,33 L8,33 L9,29 L13,28 L15,29 L15,25 L12,26 L3,26 L3,29 L-1,29 L-1,24 L1,24 L2,21 L6,21 L2,19 L1,16 L-2,15 L-2,13 L9,13 L20,8 L25,7 L25,11 L27,12 L19,16 L14,19 L16,20 L23,19 L27,20 L27,22 L18,23 L17,25 L19,24 L28,24 L27,26 L19,28 L19,31 L23,32 L23,34 L26,35 L25,36 L18,35 L18,32 L16,32 L17,36 L13,35 L12,38 L7,39 L8,42 L17,44 L16,38 L17,37 L31,37 L34,39 L34,41 L30,40 L21,40 L21,41 L31,42 L31,44 L26,46 L25,47 L18,47 L20,51 L26,53 L25,56 L18,55 L18,58 L23,58 L27,61 L33,61 L33,63 L30,64 L13,64 L9,65 L9,67 L13,66 L13,68 L19,69 L19,70 L9,70 L9,68 L-1,68 L-1,71 L-7,69 L-13,65 L-13,63 L-8,64 L-9,60 L-13,60 L-13,58 L-26,56 L-26,58 L-16,59 L-15,64 L-20,66 L-21,68 L-26,68 L-25,74 L-33,74 L-33,17 L-32,15 L-30,15 L-29,22 L-27,22 L-26,24 L-20,22 L-20,12 L-17,12 L-17,10 L-15,10 L-15,8 L-12,8 L-11,3 L-6,2 L0,2 Z " fill="#1C1617" transform="translate(33,10)"/>
<path d="M0,0 L51,0 L51,4 L59,4 L57,5 L57,7 L59,8 L54,10 L53,13 L50,13 L50,16 L55,15 L58,17 L42,24 L31,23 L31,25 L35,26 L35,29 L39,30 L41,32 L35,32 L34,34 L32,34 L32,39 L36,39 L36,36 L48,35 L48,39 L42,40 L41,43 L38,43 L38,47 L35,47 L35,45 L30,43 L31,52 L31,57 L38,57 L39,60 L36,61 L27,61 L26,56 L28,56 L29,39 L27,40 L26,43 L24,43 L24,41 L18,40 L19,29 L22,26 L24,27 L22,32 L20,32 L22,34 L26,30 L29,30 L29,28 L26,28 L24,24 L24,20 L29,19 L30,17 L36,17 L36,13 L42,13 L42,10 L33,10 L33,12 L27,13 L22,14 L21,18 L18,18 L18,20 L16,20 L16,22 L13,22 L14,32 L6,35 L6,32 L4,32 L3,25 L1,25 L0,27 Z " fill="#2A221D" transform="translate(0,0)"/>
<path d="M0,0 L2,3 L1,16 L3,16 L1,20 L-5,31 L-6,35 L-9,37 L-12,37 L-13,41 L-14,43 L-19,44 L-19,46 L-14,45 L-17,48 L-19,48 L-19,50 L-27,52 L-42,52 L-42,50 L-59,50 L-59,52 L-41,53 L-41,54 L-51,55 L-53,56 L-114,56 L-116,49 L-110,50 L-109,47 L-105,46 L-105,41 L-115,40 L-115,38 L-107,38 L-102,40 L-102,42 L-98,42 L-97,46 L-102,45 L-102,47 L-97,49 L-90,53 L-90,50 L-80,50 L-80,52 L-73,51 L-77,49 L-80,49 L-80,47 L-83,46 L-76,45 L-56,45 L-57,44 L-64,43 L-67,41 L-71,40 L-71,37 L-61,38 L-56,37 L-53,39 L-53,41 L-45,43 L-42,44 L-32,44 L-31,43 L-26,43 L-26,41 L-21,40 L-20,38 L-17,38 L-17,36 L-26,39 L-31,40 L-39,40 L-39,38 L-47,38 L-47,37 L-33,36 L-28,35 L-30,31 L-35,33 L-53,33 L-54,31 L-34,30 L-35,27 L-33,23 L-20,22 L-19,25 L-9,24 L-7,20 L-6,19 L-1,19 L-1,14 L-4,15 L-4,13 L-2,12 L-1,2 Z " fill="#1E1E21" transform="translate(122,28)"/>
<path d="M0,0 L8,1 L9,2 L23,3 L26,6 L21,6 L21,8 L14,8 L13,7 L1,6 L-8,9 L20,10 L23,12 L23,16 L26,16 L28,18 L32,18 L33,14 L34,14 L33,21 L31,22 L31,25 L37,22 L38,20 L38,11 L34,10 L32,14 L31,12 L29,12 L29,14 L25,13 L24,8 L27,5 L30,4 L30,0 L38,0 L41,2 L41,4 L45,3 L45,5 L49,6 L47,22 L44,23 L47,24 L48,27 L47,29 L41,31 L37,35 L29,35 L28,33 L15,33 L14,40 L10,41 L1,41 L1,39 L4,37 L-2,38 L-4,39 L-10,39 L-10,37 L-2,35 L-4,34 L-3,30 L-1,29 L1,23 L3,23 L2,18 L-5,18 L-5,15 L-2,15 L-2,13 L-10,12 L-12,6 L-10,5 L-2,5 Z " fill="#4A342F" transform="translate(74,18)"/>
<path d="M0,0 L3,0 L3,4 L5,5 L-3,9 L-8,12 L-6,13 L1,12 L5,13 L5,15 L-4,16 L-5,18 L-3,17 L6,17 L5,19 L-3,21 L-3,24 L1,25 L1,27 L4,28 L3,29 L-4,28 L-4,25 L-6,25 L-5,29 L-9,28 L-10,31 L-15,32 L-14,35 L-5,37 L-6,31 L-5,30 L9,30 L12,32 L12,34 L8,33 L-1,33 L-1,34 L9,35 L9,37 L4,39 L3,40 L-4,40 L-2,44 L4,46 L3,49 L-4,48 L-4,51 L1,51 L5,54 L11,54 L11,56 L8,57 L-9,57 L-13,58 L-13,60 L-9,59 L-9,61 L-3,62 L-3,63 L-13,63 L-13,61 L-23,61 L-23,64 L-29,62 L-35,58 L-35,56 L-30,57 L-31,53 L-35,53 L-35,51 L-46,49 L-44,45 L-34,48 L-29,49 L-29,51 L-26,50 L-17,49 L-20,47 L-20,45 L-16,44 L-9,44 L-7,45 L-7,43 L-14,42 L-16,41 L-16,39 L-22,39 L-23,38 L-23,28 L-25,28 L-25,26 L-20,28 L-20,30 L-17,30 L-17,26 L-14,26 L-13,22 L-9,21 L-7,22 L-7,18 L-10,19 L-19,19 L-19,22 L-23,22 L-23,17 L-21,17 L-20,14 L-16,14 L-20,12 L-21,9 L-24,8 L-24,6 L-13,6 L-2,1 Z " fill="#554642" transform="translate(55,17)"/>
<path d="M0,0 L36,0 L36,34 L35,32 L30,33 L30,29 L26,27 L26,25 L23,24 L23,20 L20,20 L17,15 L13,13 L16,18 L16,20 L12,19 L12,17 L10,17 L7,13 L7,11 L12,12 L11,7 L5,3 L5,1 L0,1 Z " fill="#1D1D1D" transform="translate(114,0)"/>
<path d="M0,0 L9,0 L13,2 L13,0 L17,1 L16,3 L19,4 L16,6 L10,6 L10,8 L18,6 L20,5 L29,5 L29,6 L21,8 L21,10 L15,11 L33,11 L39,9 L40,14 L35,16 L29,17 L29,19 L46,16 L51,15 L51,17 L48,17 L47,20 L42,20 L42,22 L36,24 L26,24 L21,22 L14,20 L14,18 L8,17 L3,18 L5,14 L-1,13 L-3,11 L-3,8 L4,7 L6,5 L10,5 L10,3 L0,3 Z " fill="#463A3A" transform="translate(54,49)"/>
<path d="M0,0 L2,3 L1,16 L3,16 L1,20 L-5,31 L-14,36 L-21,37 L-26,39 L-31,40 L-39,40 L-39,38 L-47,38 L-47,37 L-33,36 L-28,35 L-30,31 L-35,33 L-53,33 L-54,31 L-34,30 L-35,27 L-33,23 L-20,22 L-19,25 L-9,24 L-7,20 L-6,19 L-1,19 L-1,14 L-4,15 L-4,13 L-2,12 L-1,2 Z " fill="#392C28" transform="translate(122,28)"/>
<path d="M0,0 L8,1 L9,2 L23,3 L26,6 L21,6 L21,8 L14,8 L13,7 L1,6 L-8,9 L20,10 L23,12 L23,16 L25,16 L25,20 L27,20 L28,25 L27,27 L25,27 L24,30 L15,30 L14,34 L9,33 L8,35 L1,35 L1,34 L7,34 L7,25 L11,25 L12,29 L17,26 L21,27 L21,25 L23,25 L23,17 L19,19 L14,19 L14,21 L16,21 L16,24 L11,23 L10,20 L12,20 L12,16 L9,16 L8,18 L6,18 L-5,18 L-5,15 L-2,15 L-2,13 L-10,12 L-12,6 L-10,5 L-2,5 Z " fill="#675955" transform="translate(74,18)"/>
<path d="M0,0 L4,2 L7,5 L6,7 L4,6 L4,8 L9,10 L9,13 L11,13 L11,17 L9,18 L8,30 L10,30 L11,31 L11,27 L15,27 L14,24 L12,22 L13,19 L13,13 L18,13 L20,16 L21,29 L16,30 L16,40 L11,46 L6,49 L2,50 L2,52 L-2,53 L-7,53 L-7,51 L-2,47 L0,42 L3,37 L3,34 L7,30 L5,30 L5,10 L1,9 L0,4 Z " fill="#605A63" transform="translate(118,14)"/>
<path d="M0,0 L9,0 L9,3 L3,3 L3,7 L-3,7 L-4,10 L-9,10 L-7,15 L-7,18 L-4,18 L-4,20 L-10,22 L-11,27 L-13,24 L-13,22 L-11,21 L-10,17 L-13,17 L-15,22 L-18,27 L-20,27 L-20,29 L-18,30 L-20,33 L-25,32 L-24,38 L-25,40 L-27,40 L-27,35 L-30,35 L-31,33 L-33,34 L-33,17 L-32,15 L-30,15 L-29,22 L-27,22 L-26,24 L-20,22 L-20,12 L-17,12 L-17,10 L-15,10 L-15,8 L-12,8 L-11,3 L-6,2 L0,2 Z " fill="#594845" transform="translate(33,10)"/>
<path d="M0,0 L8,0 L11,2 L11,4 L15,3 L15,5 L19,6 L17,22 L14,23 L17,24 L18,27 L17,29 L11,31 L9,34 L1,34 L1,32 L5,30 L3,29 L3,26 L5,26 L7,22 L8,20 L8,11 L4,10 L2,14 L1,12 L-1,12 L-1,14 L-5,13 L-6,8 L-3,5 L0,4 Z " fill="#483430" transform="translate(104,18)"/>
<path d="M0,0 L10,3 L15,4 L15,6 L18,5 L29,4 L38,5 L38,2 L41,3 L40,6 L45,6 L49,9 L55,9 L55,11 L52,12 L35,12 L31,13 L31,15 L35,14 L35,16 L41,17 L41,18 L31,18 L31,16 L21,16 L21,19 L15,17 L9,13 L9,11 L14,12 L13,8 L9,8 L9,6 L-2,4 Z " fill="#312C2F" transform="translate(11,62)"/>
<path d="M0,0 L3,0 L3,4 L5,5 L-3,9 L-8,12 L-6,13 L1,12 L5,13 L5,15 L-4,16 L-5,18 L-3,17 L6,17 L5,19 L-3,21 L-3,24 L1,25 L1,27 L4,28 L3,29 L-4,28 L-4,25 L-6,25 L-5,29 L-9,28 L-10,31 L-11,26 L-8,25 L-9,22 L-7,22 L-7,18 L-10,19 L-19,19 L-19,22 L-23,22 L-23,17 L-21,17 L-20,14 L-16,14 L-20,12 L-21,9 L-24,8 L-24,6 L-13,6 L-2,1 Z " fill="#584138" transform="translate(55,17)"/>
<path d="M0,0 L2,1 L0,6 L-2,6 L0,8 L4,4 L7,4 L7,2 L16,3 L19,6 L13,6 L12,8 L10,8 L10,13 L14,13 L14,10 L26,9 L26,13 L20,14 L19,17 L16,17 L16,21 L13,21 L13,19 L8,17 L9,26 L9,31 L16,31 L17,34 L14,35 L5,35 L4,30 L6,30 L7,13 L5,14 L4,17 L2,17 L2,15 L-4,14 L-3,3 Z " fill="#2E1D18" transform="translate(22,26)"/>
<path d="M0,0 L6,0 L3,3 L10,4 L11,9 L9,9 L7,16 L5,17 L-1,17 L-2,16 L-16,16 L-16,22 L-25,21 L-26,17 L-21,15 L-20,13 L-17,13 L-17,10 L-15,10 L-15,13 L-8,13 L-10,12 L-10,10 L-15,9 L-14,5 L-4,2 Z " fill="#221712" transform="translate(66,32)"/>
<path d="M0,0 L26,0 L25,10 L18,9 L17,13 L16,14 L3,14 L2,18 L0,19 Z " fill="#7C6866" transform="translate(0,0)"/>
<path d="M0,0 L2,1 L3,7 L0,10 L-6,13 L-8,13 L-8,16 L-12,17 L-33,17 L-32,13 L-21,9 L-20,6 L-14,5 L-13,3 L-4,2 Z " fill="#3A4450" transform="translate(135,67)"/>
<path d="M0,0 L1,2 L6,2 L5,5 L-2,5 L-4,6 L-5,10 L-8,10 L-8,12 L-10,12 L-10,14 L-13,14 L-12,24 L-20,27 L-20,24 L-22,24 L-23,17 L-25,17 L-26,19 L-26,11 L-23,6 L-10,5 L-8,1 L-1,1 Z " fill="#040201" transform="translate(26,8)"/>
<path d="M0,0 L5,1 L4,3 L2,3 L3,8 L6,8 L6,4 L11,4 L9,9 L6,9 L5,15 L2,19 L0,19 L0,23 L-2,23 L-2,25 L-4,25 L-4,27 L-8,27 L-8,29 L-13,29 L-14,26 L-18,27 L-18,25 L-13,21 L-10,21 L-8,17 L-6,17 L-6,5 L-5,4 L0,4 Z " fill="#282826" transform="translate(139,39)"/>
<path d="M0,0 L14,0 L14,4 L22,4 L20,5 L20,7 L22,8 L17,10 L16,13 L13,13 L12,17 L4,17 L4,14 L6,14 L6,9 L-5,9 L-5,8 L-10,7 L-10,3 L-4,3 Z " fill="#120F0D" transform="translate(37,0)"/>
<path d="M0,0 L14,0 L22,5 L18,6 L16,5 L16,3 L8,2 L5,4 L9,5 L9,7 L12,7 L12,10 L7,13 L4,13 L4,15 L1,16 L-12,15 L-18,13 L-18,11 L-6,11 L-6,13 L-2,11 L-1,9 L-7,9 L-8,5 L-13,4 L-12,1 L-5,3 L0,3 Z " fill="#453A36" transform="translate(95,0)"/>
<path d="M0,0 L8,2 L6,4 L3,4 L4,10 L-1,11 L-1,13 L-7,16 L-8,19 L-41,19 L-39,17 L-47,15 L-47,13 L-43,12 L-28,12 L-30,13 L-30,15 L-15,14 L-7,13 L-7,11 L-3,9 L-7,9 L-7,7 L-2,6 Z " fill="#675F67" transform="translate(110,65)"/>
<path d="M0,0 L8,0 L13,2 L13,4 L17,4 L18,8 L13,7 L13,9 L18,11 L25,15 L25,12 L27,12 L29,18 L1,18 L-1,11 L5,12 L6,9 L10,8 L10,3 L0,2 Z " fill="#060709" transform="translate(7,66)"/>
<path d="M0,0 L8,1 L9,2 L23,3 L26,6 L21,6 L21,8 L14,8 L13,7 L1,6 L-8,9 L8,10 L5,11 L5,14 L12,14 L9,16 L8,18 L6,18 L-5,18 L-5,15 L-2,15 L-2,13 L-10,12 L-12,6 L-10,5 L-2,5 Z " fill="#6C564E" transform="translate(74,18)"/>
<path d="M0,0 L17,0 L17,2 L21,2 L24,7 L27,9 L29,17 L27,17 L27,15 L25,15 L25,12 L22,11 L22,9 L17,7 L20,14 L22,15 L22,17 L25,18 L28,22 L28,24 L24,22 L20,20 L17,15 L13,13 L16,18 L16,20 L12,19 L12,17 L10,17 L7,13 L7,11 L12,12 L11,7 L5,3 L5,1 L0,1 Z " fill="#3C2C2F" transform="translate(114,0)"/>
<path d="M0,0 L7,0 L7,3 L4,4 L3,8 L5,8 L5,11 L9,13 L5,16 L-4,18 L-12,18 L-12,16 L-20,16 L-20,15 L-6,14 L-1,13 L-3,9 L-8,11 L-26,11 L-27,9 L-7,8 L-8,5 L-6,1 Z " fill="#2B1E1B" transform="translate(95,50)"/>
<path d="M0,0 L12,1 L19,3 L23,4 L23,6 L25,7 L28,9 L28,7 L32,7 L33,5 L36,5 L37,2 L38,6 L38,15 L33,20 L29,21 L30,16 L32,16 L32,10 L31,13 L26,14 L25,11 L22,11 L21,7 L19,6 L-10,5 L-8,2 Z " fill="#4A362F" transform="translate(75,23)"/>
<path d="M0,0 L4,1 L1,6 L6,6 L6,9 L13,9 L17,10 L18,15 L13,17 L12,19 L7,19 L8,25 L0,25 Z " fill="#1C1D23" transform="translate(0,59)"/>
<path d="M0,0 L5,2 L7,4 L7,7 L10,7 L11,11 L17,16 L17,20 L22,19 L23,21 L23,30 L18,30 L18,34 L15,34 L14,29 L16,27 L12,26 L10,17 L10,13 L3,13 L2,5 Z " fill="#08070B" transform="translate(127,13)"/>
<path d="M0,0 L2,0 L2,14 L-1,14 L-1,16 L-6,16 L-10,14 L-10,21 L-18,21 L-19,18 L-21,18 L-22,12 L-16,13 L-10,13 L-10,4 L-7,3 L-1,4 Z " fill="#544644" transform="translate(27,39)"/>
<path d="M0,0 L5,1 L3,6 L4,8 L8,9 L8,6 L6,6 L6,4 L15,2 L15,10 L13,10 L13,12 L6,13 L3,15 L3,10 L-1,10 L0,14 L-1,19 L-5,19 L-5,14 L-9,15 L-7,8 L-5,8 L-6,3 L-2,3 L-1,1 Z " fill="#6B5246" transform="translate(82,33)"/>
<path d="M0,0 L13,0 L13,1 L7,1 L7,4 L15,4 L15,6 L32,3 L37,2 L37,4 L34,4 L33,7 L28,7 L28,9 L22,11 L12,11 L7,9 L0,7 L0,3 Z " fill="#40373D" transform="translate(68,62)"/>
<path d="M0,0 L2,4 L0,5 L-2,11 L-5,11 L-4,14 L2,15 L2,18 L4,18 L5,22 L-2,22 L-6,20 L-6,18 L-12,18 L-13,17 L-13,7 L-15,7 L-15,5 L-10,7 L-10,9 L-7,9 L-7,5 L-4,5 L-3,1 Z " fill="#735F5B" transform="translate(45,38)"/>
<path d="M0,0 L3,1 L1,4 L-9,5 L-7,11 L1,12 L1,13 L-7,15 L-10,16 L-21,16 L-20,13 L-11,13 L-11,11 L-20,11 L-23,12 L-26,10 L-18,5 L-13,3 L-13,1 Z " fill="#453A35" transform="translate(71,19)"/>
<path d="M0,0 L2,0 L3,7 L5,7 L6,9 L10,8 L10,11 L14,12 L12,12 L12,14 L14,15 L12,18 L7,17 L8,23 L7,25 L5,25 L5,20 L2,20 L1,18 L-1,19 L-1,2 Z " fill="#645452" transform="translate(1,25)"/>
<path d="M0,0 L10,3 L15,4 L15,7 L20,7 L16,9 L17,13 L23,13 L24,11 L26,11 L26,13 L35,14 L35,16 L41,17 L41,18 L31,18 L31,16 L21,16 L21,19 L15,17 L9,13 L9,11 L14,12 L13,8 L9,8 L9,6 L-2,4 Z " fill="#4E5055" transform="translate(11,62)"/>
<path d="M0,0 L3,1 L1,1 L4,5 L4,7 L6,7 L7,9 L10,11 L10,16 L17,16 L16,19 L16,17 L11,17 L12,23 L11,25 L13,26 L13,28 L13,31 L9,31 L10,36 L8,36 L8,34 L6,34 L6,22 L9,21 L9,17 L7,17 L7,14 L2,12 L2,10 L4,9 L0,5 L-3,5 L-2,1 Z " fill="#251F21" transform="translate(120,10)"/>
<path d="M0,0 L1,2 L6,2 L5,5 L-2,5 L-4,6 L-5,10 L-8,10 L-8,12 L-10,12 L-11,14 L-13,8 L-19,7 L-20,16 L-22,16 L-23,19 L-23,17 L-25,17 L-26,19 L-26,11 L-23,6 L-10,5 L-8,1 L-1,1 Z " fill="#200C0A" transform="translate(26,8)"/>
<path d="M0,0 L2,1 L3,6 L-3,7 L-5,6 L-4,9 L-6,9 L-7,11 L-17,11 L-21,14 L-27,14 L-28,11 L-21,9 L-20,6 L-14,5 L-13,3 L-4,2 Z " fill="#03050D" transform="translate(135,67)"/>
<path d="M0,0 L2,0 L3,10 L9,11 L9,13 L18,15 L18,17 L5,17 L6,20 L4,20 L4,18 L-4,19 L-5,16 L-15,17 L-15,15 L-13,15 L-13,8 L-4,10 L-4,8 L-2,8 L-2,11 L-4,11 L-3,15 L6,15 L8,14 L8,12 L1,12 L0,1 Z " fill="#291D19" transform="translate(30,45)"/>
<path d="M0,0 L4,0 L5,7 L0,13 L-5,16 L-9,17 L-9,19 L-13,20 L-18,20 L-18,18 L-13,14 L-11,9 L-9,5 L-7,5 L-8,11 L-4,13 L-4,11 L1,9 L2,5 L-3,9 L-5,1 L-1,2 Z " fill="#6F6D78" transform="translate(129,47)"/>
<path d="M0,0 L10,1 L10,3 L15,5 L18,8 L17,12 L14,12 L14,10 L9,12 L10,20 L9,22 L6,22 L5,16 L3,16 L3,11 L5,11 L6,7 L9,7 L9,5 L5,4 Z " fill="#0A0A0B" transform="translate(109,0)"/>
<path d="M0,0 L4,2 L6,6 L8,5 L7,8 L8,9 L9,12 L8,14 L2,16 L0,19 L-8,19 L-8,17 L-4,15 L-6,14 L-6,11 L-4,11 L-2,7 Z " fill="#5C504C" transform="translate(113,33)"/>
<path d="M0,0 L3,1 L-1,5 L-4,5 L-5,9 L-6,11 L-11,12 L-11,14 L-6,13 L-9,16 L-11,16 L-11,18 L-14,18 L-14,16 L-21,16 L-20,14 L-15,14 L-15,11 L-23,14 L-28,14 L-24,12 L-23,11 L-18,11 L-18,9 L-13,8 L-12,6 L-9,6 L-9,4 Z " fill="#292226" transform="translate(114,60)"/>
<path d="M0,0 L9,0 L13,2 L13,0 L17,1 L16,3 L19,4 L16,6 L10,6 L10,8 L12,8 L12,10 L7,10 L7,13 L-1,13 L-3,11 L-3,8 L4,7 L6,5 L10,5 L10,3 L0,3 Z " fill="#443732" transform="translate(54,49)"/>
<path d="M0,0 L7,0 L10,2 L14,2 L14,5 L18,6 L14,10 L14,12 L0,12 L0,4 L7,4 L7,2 L0,2 Z " fill="#7B736F" transform="translate(57,1)"/>
<path d="M0,0 L44,0 L44,3 L38,4 L38,2 L34,3 L34,1 L32,1 L32,5 L25,3 L21,2 L21,5 L23,6 L20,6 L20,3 L15,4 L15,2 L6,1 L6,3 L13,3 L13,5 L0,4 Z " fill="#3D3732" transform="translate(51,0)"/>
<path d="M0,0 L9,0 L9,3 L3,3 L3,7 L-3,7 L-3,9 L-14,10 L-15,14 L-17,14 L-17,16 L-19,16 L-19,13 L-17,13 L-17,10 L-15,10 L-15,8 L-12,8 L-11,3 L-6,2 L0,2 Z " fill="#8B7674" transform="translate(33,10)"/>
<path d="M0,0 L3,0 L3,4 L5,4 L6,2 L7,7 L4,11 L2,11 L2,15 L0,15 L0,17 L-2,17 L-2,19 L-6,19 L-6,21 L-11,21 L-12,18 L-16,19 L-16,17 L-10,13 L-7,14 L-7,16 L-2,12 L1,7 L2,3 L0,3 Z " fill="#0A0E0E" transform="translate(137,47)"/>
<path d="M0,0 L2,1 L0,6 L-2,6 L0,8 L4,4 L8,4 L9,13 L5,14 L4,17 L2,17 L2,15 L-4,14 L-3,3 Z " fill="#0E0503" transform="translate(22,26)"/>
<path d="M0,0 L4,0 L5,2 L8,3 L9,8 L11,10 L-2,11 L-2,17 L-11,16 L-12,12 L-7,10 L-6,8 L-3,8 L-3,5 L-1,5 L-1,8 L6,8 L4,7 L4,5 L-1,4 Z " fill="#4C3B35" transform="translate(52,37)"/>
<path d="M0,0 L10,0 L13,2 L13,5 L9,6 L9,8 L12,9 L12,11 L5,11 L0,13 Z " fill="#020202" transform="translate(0,0)"/>
<path d="M0,0 L8,0 L8,2 L15,1 L15,0 L21,0 L22,3 L26,2 L26,4 L22,6 L2,6 L0,3 Z " fill="#162029" transform="translate(34,78)"/>
<path d="M0,0 L2,0 L2,2 L-10,7 L-19,7 L-20,10 L-26,10 L-27,14 L-32,15 L-32,13 L-28,12 L-27,9 L-30,8 L-28,8 L-28,6 L-23,5 L-23,3 L-21,3 L-20,1 L-20,3 L-15,1 L-13,4 L-10,5 L-10,3 L-3,2 Z " fill="#3D3540" transform="translate(141,63)"/>
<path d="M0,0 L2,0 L2,7 L-1,11 L-3,11 L-4,19 L-1,19 L-2,22 L-4,22 L-4,25 L-9,25 L-7,21 L-5,21 L-5,19 L-10,22 L-13,22 L-13,20 L-11,20 L-11,18 L-9,18 L-9,14 L-5,10 L-3,4 L0,3 Z " fill="#5A5C5B" transform="translate(148,44)"/>
<path d="M0,0 L5,2 L8,5 L8,8 L10,8 L10,10 L16,10 L18,16 L16,21 L12,20 L12,14 L8,13 L5,10 L5,8 L2,7 Z " fill="#040506" transform="translate(131,7)"/>
<path d="M0,0 L14,0 L14,4 L22,4 L22,5 L14,6 L11,10 L8,10 L6,6 L3,6 L3,4 L-2,4 L-2,1 Z " fill="#040503" transform="translate(37,0)"/>
<path d="M0,0 L4,1 L1,6 L6,6 L6,9 L13,9 L17,10 L18,14 L6,17 L5,12 L2,10 L2,8 L0,8 Z " fill="#716867" transform="translate(0,59)"/>
<path d="M0,0 L13,0 L16,7 L16,10 L12,11 L4,5 L4,2 L0,2 Z " fill="#050404" transform="translate(131,0)"/>
<path d="M0,0 L4,2 L-12,9 L-23,8 L-23,10 L-19,11 L-19,14 L-25,13 L-24,7 L-12,4 L-5,1 Z " fill="#433733" transform="translate(54,15)"/>
<path d="M0,0 L6,1 L13,3 L12,8 L11,9 L6,9 L6,11 L8,11 L8,14 L3,13 L2,10 L4,10 L4,4 L-3,4 L-3,1 Z " fill="#836757" transform="translate(82,28)"/>
<path d="M0,0 L3,1 L4,4 L10,5 L8,9 L5,9 L5,7 L-7,7 L-6,9 L-1,10 L-1,11 L-9,11 L-6,14 L-13,13 L-22,11 L-22,10 L-10,9 L-8,5 L0,5 L0,2 Z " fill="#4C3935" transform="translate(84,4)"/>
<path d="M0,0 L2,0 L2,2 L12,1 L13,3 L21,3 L21,5 L26,6 L22,8 L13,8 L13,6 L4,5 L-2,2 Z " fill="#191717" transform="translate(13,60)"/>
<path d="M0,0 L2,2 L2,6 L4,6 L5,8 L11,8 L7,10 L5,15 L3,15 L2,17 L2,14 L-3,14 L-1,9 L-4,8 L-4,4 L0,3 Z " fill="#5D464E" transform="translate(4,51)"/>
<path d="M0,0 L1,0 L1,10 L-16,10 L-12,9 L-12,6 L-8,6 L-8,3 L-1,1 Z " fill="#040709" transform="translate(149,74)"/>
<path d="M0,0 L10,0 L15,3 L14,7 L10,8 L9,6 L0,5 L-4,4 L-4,2 L-7,1 Z " fill="#0E0C0C" transform="translate(46,73)"/>
<path d="M0,0 L14,0 L17,2 L17,4 L13,3 L4,3 L4,4 L14,5 L14,7 L-3,9 L-3,7 L0,7 L-1,1 Z " fill="#675955" transform="translate(50,47)"/>
<path d="M0,0 L15,0 L13,1 L13,3 L15,3 L15,7 L2,7 L4,5 L-4,3 L-4,1 Z " fill="#494850" transform="translate(67,77)"/>
<path d="M0,0 L2,0 L2,14 L-2,14 L-3,10 L-7,9 L-7,7 L-9,7 L-9,3 L-1,4 Z " fill="#786965" transform="translate(27,39)"/>
<path d="M0,0 L2,3 L2,9 L-10,11 L-9,8 L0,8 L0,6 L-9,6 L-12,7 L-15,5 L-8,1 Z " fill="#3E302C" transform="translate(60,24)"/>
<path d="M0,0 L5,1 L4,3 L2,3 L2,5 L-1,5 L-2,8 L-18,7 L-20,4 L-3,3 L-3,1 Z " fill="#0F0402" transform="translate(103,13)"/>
<path d="M0,0 L3,1 L3,7 L-1,7 L-1,10 L-5,11 L-15,11 L-11,10 L-11,7 L-3,3 L-1,3 Z " fill="#CFE8EF" transform="translate(138,73)"/>
<path d="M0,0 L20,2 L30,3 L30,5 L27,6 L3,5 L3,3 L0,3 Z " fill="#453935" transform="translate(36,68)"/>
<path d="M0,0 L2,3 L1,16 L3,16 L1,20 L-3,27 L-5,27 L-4,22 L-7,22 L-6,19 L-1,19 L-1,14 L-4,15 L-4,13 L-2,12 L-1,2 Z " fill="#31262A" transform="translate(122,28)"/>
<path d="M0,0 L11,0 L7,4 L1,3 L1,7 L7,7 L7,8 L17,9 L17,14 L11,14 L11,18 L7,17 L10,17 L10,13 L16,13 L16,10 L7,10 L6,12 L6,10 L1,10 L-1,9 Z " fill="#3E3331" transform="translate(26,0)"/>
<path d="M0,0 L1,0 L1,14 L0,18 L-4,18 L-4,20 L-7,20 L-7,18 L-5,18 L-5,15 L-2,12 L-5,12 L-4,4 Z " fill="#100B0B" transform="translate(149,51)"/>
<path d="M0,0 L1,3 L0,9 L6,10 L6,12 L0,12 L-1,19 L-7,16 L-8,12 L-5,11 L-5,8 L-5,6 L-3,6 L-1,1 Z " fill="#413430" transform="translate(18,31)"/>
<path d="M0,0 L3,0 L3,4 L5,5 L-3,9 L-7,11 L-7,9 L-10,9 L-9,4 Z " fill="#493D38" transform="translate(55,17)"/>
<path d="M0,0 L2,0 L2,2 L11,3 L11,5 L17,6 L17,7 L7,7 L7,5 L-3,5 L-3,8 L-9,6 L-11,2 L-1,2 Z " fill="#515761" transform="translate(35,73)"/>
<path d="M0,0 L3,1 L3,3 L6,3 L5,8 L1,14 L-3,16 L-3,14 L-6,15 L-6,13 L-4,13 L-2,9 L0,9 Z " fill="#272B32" transform="translate(133,47)"/>
<path d="M0,0 L2,1 L2,12 L9,12 L10,15 L7,16 L-2,16 L-3,11 L-1,11 Z " fill="#1B0D09" transform="translate(29,45)"/>
<path d="M0,0 L7,0 L6,7 L3,8 L-6,8 L-2,2 Z " fill="#020100" transform="translate(66,37)"/>
<path d="M0,0 L7,0 L10,1 L10,4 L7,4 L5,8 L4,6 L2,6 L2,8 L-2,7 L-3,2 Z " fill="#725C56" transform="translate(101,24)"/>
<path d="M0,0 L10,1 L15,0 L18,2 L16,2 L14,7 L7,6 L4,4 L0,3 Z " fill="#1B0D0A" transform="translate(51,65)"/>
<path d="M0,0 L4,0 L4,2 L1,2 L0,5 L-5,5 L-5,7 L-10,8 L-19,8 L-18,5 L-10,5 L-10,3 L-1,1 Z " fill="#665F5D" transform="translate(101,64)"/>
<path d="M0,0 L2,4 L2,13 L-3,18 L-7,19 L-6,14 L-2,13 L-2,4 L0,4 Z " fill="#241712" transform="translate(111,25)"/>
<path d="M0,0 L4,0 L5,7 L0,13 L-3,13 L-1,9 L1,9 L2,5 L-3,9 L-5,1 L-1,2 Z " fill="#868A94" transform="translate(129,47)"/>
<path d="M0,0 L2,0 L2,3 L-3,4 L3,5 L3,7 L1,8 L-10,8 L-13,7 L-13,4 L-9,6 L-7,7 L-8,3 L-5,1 Z " fill="#0D080D" transform="translate(97,71)"/>
<path d="M0,0 L9,0 L9,3 L3,3 L3,7 L-3,7 L-4,9 L-4,6 L-6,6 L-6,3 L0,2 Z " fill="#5B5552" transform="translate(33,10)"/>
<path d="M0,0 L2,0 L2,5 L7,6 L8,3 L10,5 L8,5 L8,7 L-1,8 L-5,10 L-11,10 L-11,8 L-3,6 L-5,5 L-4,1 Z " fill="#645652" transform="translate(75,47)"/>
<path d="M0,0 L6,1 L8,4 L15,5 L16,11 L11,9 L4,7 L4,4 L-1,3 Z " fill="#857672" transform="translate(83,1)"/>
<path d="M0,0 L2,0 L3,10 L9,11 L9,13 L18,15 L18,17 L5,17 L6,20 L4,20 L4,18 L0,19 L0,17 L8,14 L8,12 L1,12 L0,1 Z " fill="#4E3933" transform="translate(30,45)"/>
<path d="M0,0 L3,0 L3,3 L7,4 L5,4 L5,6 L7,7 L5,10 L-3,9 L-4,6 L-1,3 Z " fill="#977476" transform="translate(8,33)"/>
<path d="M0,0 L1,0 L2,10 L-6,13 L-6,10 L-8,9 L-7,6 L-5,6 L-5,4 L-1,4 Z " fill="#1D1915" transform="translate(12,22)"/>
<path d="M0,0 L4,2 L7,5 L6,7 L4,6 L4,8 L9,10 L10,15 L6,15 L5,10 L1,9 L0,4 Z " fill="#514C56" transform="translate(118,14)"/>
<path d="M0,0 L8,0 L7,2 L4,2 L4,4 L-1,5 L-9,5 L-9,3 L-17,3 L-17,2 L-3,1 Z " fill="#171012" transform="translate(92,63)"/>
<path d="M0,0 L9,0 L12,2 L12,6 L14,6 L14,10 L16,10 L17,15 L16,13 L13,13 L12,15 L12,7 L9,8 L10,3 L4,3 Z " fill="#6F5B4F" transform="translate(85,28)"/>
<path d="M0,0 L9,1 L9,3 L0,4 L-1,6 L1,5 L10,5 L9,7 L1,8 L-2,7 L-4,1 Z " fill="#5A4033" transform="translate(51,29)"/>
<path d="M0,0 L2,0 L2,6 L4,6 L5,15 L1,15 L1,10 L-3,11 L-1,4 L1,4 Z " fill="#4A3730" transform="translate(76,37)"/>
<path d="M0,0 L5,3 L4,0 L6,0 L7,6 L11,7 L12,3 L13,3 L13,13 L12,11 L7,12 L7,8 L3,6 L3,4 L0,3 Z " fill="#383941" transform="translate(137,21)"/>
<path d="M0,0 L8,2 L8,4 L10,4 L9,8 L5,8 L5,6 L1,6 L1,4 L-4,3 Z " fill="#0C0E0C" transform="translate(103,1)"/>
<path d="M0,0 L14,0 L22,5 L18,6 L16,5 L16,3 L8,2 L5,5 L0,4 Z " fill="#3B2F2B" transform="translate(95,0)"/>
<path d="M0,0 L15,0 L14,4 L0,4 Z " fill="#615D5E" transform="translate(82,80)"/>
<path d="M0,0 L3,2 L-2,2 L0,7 L0,10 L3,10 L3,12 L-3,14 L-4,19 L-6,16 L-6,14 L-4,13 L-3,9 L-5,8 L-4,2 Z " fill="#634E4B" transform="translate(26,18)"/>
<path d="M0,0 L8,0 L7,3 L-1,7 L-3,7 L-3,10 L-8,11 L-8,9 L-4,9 L-5,7 L-8,6 L-8,4 L-2,4 Z " fill="#435764" transform="translate(130,73)"/>
<path d="M0,0 L2,0 L2,2 L4,3 L-2,6 L-3,9 L-9,9 L-10,4 L-2,3 L-2,1 Z " fill="#686C76" transform="translate(105,75)"/>
<path d="M0,0 L4,1 L4,3 L10,4 L11,9 L4,9 L3,6 L1,6 Z " fill="#A18D91" transform="translate(5,51)"/>
<path d="M0,0 L1,3 L4,3 L4,8 L2,12 L-2,13 L-2,2 Z " fill="#0E070A" transform="translate(2,42)"/>
<path d="M0,0 L17,0 L17,2 L19,2 L19,5 L14,5 L14,3 L7,4 L5,3 L5,1 L0,1 Z " fill="#B5A7AA" transform="translate(114,0)"/>
<path d="M0,0 L2,1 L0,6 L-2,6 L0,8 L2,11 L2,15 L-4,14 L-3,3 Z " fill="#1C1411" transform="translate(22,26)"/>
<path d="M0,0 L3,1 L1,1 L4,5 L4,7 L6,7 L7,9 L10,11 L8,11 L8,17 L7,14 L2,12 L2,10 L4,9 L0,5 L-3,5 L-2,1 Z " fill="#3D3A44" transform="translate(120,10)"/>
<path d="M0,0 L5,1 L7,2 L8,8 L0,8 Z " fill="#283938" transform="translate(0,76)"/>
<path d="M0,0 L5,0 L3,4 L-2,9 L-5,8 L-3,8 L-3,5 L-7,6 L-7,3 Z " fill="#545150" transform="translate(110,55)"/>
<path d="M0,0 L5,2 L8,5 L8,8 L10,8 L11,13 L8,13 L5,10 L5,8 L2,7 Z " fill="#0A0A0A" transform="translate(131,7)"/>
<path d="M0,0 L3,0 L3,4 L1,4 L0,7 L-10,7 L-10,4 L-7,3 L-3,4 L-3,2 L0,2 Z " fill="#7E6864" transform="translate(98,41)"/>
<path d="M0,0 L1,2 L5,2 L6,0 L6,4 L4,5 L3,17 L0,17 Z " fill="#7E6D70" transform="translate(123,27)"/>
<path d="M0,0 L2,0 L2,7 L-1,11 L-3,11 L-3,14 L-5,14 L-5,16 L-7,15 L-3,4 L0,3 Z " fill="#766F6D" transform="translate(148,44)"/>
<path d="M0,0 L2,1 L3,10 L1,10 L0,13 L0,11 L-2,11 L-3,13 L-3,5 Z " fill="#242523" transform="translate(3,14)"/>
<path d="M0,0 L8,0 L11,1 L11,3 L8,4 L-4,4 L-4,1 Z " fill="#0C0504" transform="translate(63,16)"/>
<path d="M0,0 L4,2 L8,0 L7,4 L2,6 L2,8 L-2,7 L-3,4 Z " fill="#14181B" transform="translate(123,52)"/>
<path d="M0,0 L2,4 L0,5 L-2,11 L-6,11 L-6,6 L-3,1 Z " fill="#9E8981" transform="translate(45,38)"/>
<path d="M0,0 L4,4 L2,10 L-4,11 L-4,6 L-1,6 Z " fill="#342B27" transform="translate(67,67)"/>
<path d="M0,0 L7,1 L9,0 L15,0 L15,2 L10,2 L10,5 L2,5 L0,3 Z " fill="#271914" transform="translate(51,57)"/>
<path d="M0,0 L3,0 L3,4 L-3,5 L-5,8 L-5,3 L-8,3 L-9,6 L-13,5 L-9,4 L-9,1 Z " fill="#593D2F" transform="translate(45,35)"/>
<path d="M0,0 L2,0 L2,8 L0,8 L0,10 L-4,10 L-4,3 L-2,3 L-2,1 Z " fill="#5C4B39" transform="translate(95,35)"/>
<path d="M0,0 L12,0 L11,4 L4,6 L-1,6 L3,5 L3,2 L0,1 Z " fill="#6B5554" transform="translate(10,0)"/>
<path d="M0,0 L2,1 L1,7 L6,7 L6,10 L2,10 L3,15 L1,15 L1,13 L-1,13 L-1,1 Z " fill="#0B0607" transform="translate(127,31)"/>
<path d="M0,0 L3,0 L5,3 L8,4 L9,10 L8,12 L6,12 L6,7 L3,7 L2,5 L0,6 Z " fill="#5A4850" transform="translate(0,38)"/>
<path d="M0,0 L12,0 L12,2 L15,3 L15,4 L6,4 L0,2 Z " fill="#735B58" transform="translate(77,11)"/>
<path d="M0,0 L4,0 L4,3 L8,4 L5,7 L-2,7 L-2,1 Z " fill="#54504B" transform="translate(67,3)"/>
<path d="M0,0 L5,0 L2,1 L3,5 L1,7 L-8,7 L-8,5 L-5,3 L0,3 Z " fill="#534744" transform="translate(83,52)"/>
<path d="M0,0 L5,1 L9,4 L9,6 L12,7 L15,11 L15,13 L11,11 L7,9 L4,4 L2,3 L2,1 Z " fill="#78797C" transform="translate(127,11)"/>
<path d="M0,0 L3,0 L3,5 L1,5 L1,9 L-2,9 L-2,7 L-5,6 L-6,3 L-1,2 Z " fill="#2F160D" transform="translate(37,38)"/>
<path d="M0,0 L4,1 L4,8 L5,13 L1,12 Z " fill="#B7B1B6" transform="translate(133,28)"/>
<path d="M0,0 L2,0 L2,2 L-10,7 L-17,7 L-17,2 L-14,2 L-13,4 L-10,5 L-10,3 L-3,2 Z " fill="#2B3034" transform="translate(141,63)"/>
<path d="M0,0 L6,4 L6,6 L9,7 L1,7 L-4,8 L-2,4 L-6,3 L0,3 Z " fill="#342724" transform="translate(61,59)"/>
<path d="M0,0 L6,0 L5,4 L4,6 L-1,5 L-4,3 L-4,1 Z " fill="#AD928A" transform="translate(39,61)"/>
<path d="M0,0 L3,1 L-1,2 L-3,7 L-5,7 L-6,9 L-6,6 L-11,6 L-10,3 L-4,3 L-4,1 Z " fill="#261A1B" transform="translate(12,59)"/>
<path d="M0,0 L2,1 L2,4 L0,4 L-1,8 L-1,6 L-4,6 L-4,9 L-7,10 L-8,5 L-4,1 L-1,1 Z " fill="#4B4A53" transform="translate(129,43)"/>
<path d="M0,0 L13,3 L13,5 L15,6 L14,10 L12,10 L11,6 L9,5 L-1,4 L1,2 Z " fill="#493831" transform="translate(85,24)"/>
<path d="M0,0 L4,0 L4,12 L3,16 L2,19 L1,12 L2,9 Z " fill="#292D31" transform="translate(146,12)"/>
<path d="M0,0 L4,0 L5,2 L8,3 L8,7 L4,7 L4,5 L-1,4 Z " fill="#3D2318" transform="translate(52,37)"/>
<path d="M0,0 L7,1 L11,6 L10,10 L8,6 L3,4 L0,3 Z " fill="#60453A" transform="translate(108,19)"/>
<path d="M0,0 L1,2 L6,2 L5,5 L-2,5 L-5,6 L-5,3 L-8,3 L-8,1 L-1,1 Z " fill="#382724" transform="translate(26,8)"/>
<path d="M0,0 L4,1 L7,3 L9,11 L7,11 L7,9 L5,9 L5,6 L2,5 L2,3 L0,3 Z " fill="#615D5E" transform="translate(134,6)"/>
<path d="M0,0 L20,0 L20,3 L14,4 L14,2 L10,3 L10,1 L6,2 L0,1 Z " fill="#1B100D" transform="translate(75,0)"/>
<path d="M0,0 L12,2 L11,5 L3,5 L3,3 L0,3 Z " fill="#8D7471" transform="translate(36,68)"/>
<path d="M0,0 L5,2 L9,10 L4,10 L4,8 L2,8 L2,2 L0,2 Z " fill="#7F6B64" transform="translate(30,43)"/>
<path d="M0,0 L5,1 L12,2 L11,5 L4,6 L4,4 L0,3 Z " fill="#211A15" transform="translate(72,2)"/>
<path d="M0,0 L4,1 L3,6 L5,7 L0,12 L-3,13 L-1,9 L1,2 L-1,1 Z " fill="#2C2F2F" transform="translate(114,49)"/>
<path d="M0,0 L5,0 L7,7 L6,9 L3,9 L2,3 L0,3 Z " fill="#221516" transform="translate(112,13)"/>
<path d="M0,0 L1,2 L11,0 L9,4 L1,4 L-1,8 L-3,4 L-2,1 Z " fill="#372925" transform="translate(75,6)"/>
<path d="M0,0 L11,0 L7,4 L1,3 L0,9 L-1,6 Z " fill="#464642" transform="translate(26,0)"/>
<path d="M0,0 L2,0 L1,4 L-4,6 L-12,6 L-13,4 L-5,4 L-5,2 Z " fill="#261F1A" transform="translate(113,51)"/>
<path d="M0,0 L10,3 L10,6 L-2,4 Z " fill="#746C6A" transform="translate(11,62)"/>
<path d="M0,0 L9,3 L9,10 L7,10 L6,6 L2,5 L2,3 L0,3 Z " fill="#BEAFAF" transform="translate(18,43)"/>
<path d="M0,0 L2,0 L2,2 L6,4 L0,5 L0,7 L6,7 L6,8 L-2,8 L-4,3 L0,3 Z " fill="#53423F" transform="translate(105,45)"/>
<path d="M0,0 L3,1 L5,5 L7,4 L6,7 L4,7 L4,11 L1,11 Z " fill="#736763" transform="translate(114,34)"/>
<path d="M0,0 L5,2 L14,3 L14,5 L0,5 Z " fill="#5D5651" transform="translate(57,8)"/>
<path d="M0,0 L8,0 L6,1 L6,4 L9,6 L2,6 L0,3 Z " fill="#30515C" transform="translate(34,78)"/>
<path d="M0,0 L5,2 L5,5 L2,6 L-5,6 Z " fill="#635753" transform="translate(94,10)"/>
<path d="M0,0 L3,0 L3,4 L5,4 L6,2 L7,7 L4,10 L2,7 L2,3 L0,3 Z " fill="#121516" transform="translate(137,47)"/>
<path d="M0,0 L2,3 L2,9 L-2,10 L-3,13 L-5,13 L-3,6 L-1,5 Z " fill="#200C09" transform="translate(29,30)"/>
<path d="M0,0 L8,0 L10,2 L4,1 L5,5 L4,6 L-3,6 L0,4 Z " fill="#4D322E" transform="translate(104,18)"/>
<path d="M0,0 L4,2 L-8,7 L-12,6 L-5,2 L-5,1 Z " fill="#3F332F" transform="translate(54,15)"/>
<path d="M0,0 L12,0 L13,2 L3,3 L0,3 Z " fill="#150B08" transform="translate(26,65)"/>
<path d="M0,0 L5,0 L5,7 L1,7 L1,9 L-2,9 L-2,7 L0,7 L0,4 L3,1 Z " fill="#2B2B29" transform="translate(144,62)"/>
<path d="M0,0 L8,0 L10,3 L1,4 Z " fill="#371E12" transform="translate(77,24)"/>
<path d="M0,0 L2,0 L4,6 L-3,6 L-3,3 L-6,3 L-6,1 L0,3 Z " fill="#11262C" transform="translate(32,78)"/>
<path d="M0,0 L9,1 L10,5 L3,6 L2,2 Z " fill="#5A5354" transform="translate(8,68)"/>
<path d="M0,0 L3,1 L2,4 L7,4 L9,7 L-2,6 L-5,4 L-1,3 Z " fill="#261915" transform="translate(49,64)"/>
<path d="M0,0 L8,0 L13,2 L13,4 L15,5 L10,5 L10,3 L0,2 Z " fill="#160F0E" transform="translate(7,66)"/>
<path d="M0,0 L3,1 L-1,5 L-4,5 L-5,8 L-8,5 L-6,5 L-5,2 Z " fill="#171316" transform="translate(114,60)"/>
<path d="M0,0 L3,1 L1,3 L-2,3 L-3,6 L-8,6 L-7,2 Z " fill="#726763" transform="translate(44,22)"/>
<path d="M0,0 L4,0 L5,4 L2,6 L-3,6 L-3,4 L-1,4 Z " fill="#07050A" transform="translate(115,7)"/>
<path d="M0,0 L8,2 L6,4 L3,4 L3,6 L-2,6 Z " fill="#7A6C75" transform="translate(110,65)"/>
<path d="M0,0 L9,0 L6,2 L0,2 L-1,9 L-4,8 L-4,4 L-1,4 Z " fill="#3E2F2B" transform="translate(89,49)"/>
<path d="M0,0 L1,3 L-5,3 L-5,6 L-11,6 L-11,4 L-7,4 L-7,1 Z " fill="#88807E" transform="translate(41,10)"/>
<path d="M0,0 L5,0 L2,5 L-1,5 L-2,9 L-4,8 L-2,2 Z " fill="#181311" transform="translate(51,8)"/>
<path d="M0,0 L2,0 L2,2 L7,2 L7,4 L12,4 L12,6 L5,6 L5,5 L0,4 Z " fill="#0C0C09" transform="translate(27,3)"/>
<path d="M0,0 L2,0 L2,2 L6,3 L8,8 L3,7 L0,4 Z " fill="#726561" transform="translate(18,46)"/>
<path d="M0,0 L5,1 L4,4 L0,4 L2,9 L-2,6 L-2,1 L0,1 Z " fill="#513325" transform="translate(82,33)"/>
<path d="M0,0 L2,0 L2,5 L0,5 L0,9 L-2,9 L-3,12 L-4,7 L-1,6 L-2,3 L0,3 Z " fill="#7B6052" transform="translate(48,36)"/>
<path d="M0,0 L6,1 L6,4 L-3,4 L-3,1 Z " fill="#927566" transform="translate(82,28)"/>
<path d="M0,0 L13,0 L13,3 L2,3 Z " fill="#1D0F07" transform="translate(83,17)"/>
<path d="M0,0 L5,2 L7,4 L7,7 L10,8 L5,8 L1,4 Z " fill="#1C1619" transform="translate(127,13)"/>
<path d="M0,0 L4,2 L9,7 L9,9 L5,8 L5,6 L3,6 L0,2 Z " fill="#BBBBC4" transform="translate(121,11)"/>
<path d="M0,0 L6,0 L6,2 L8,3 L0,4 L-4,7 L-2,2 Z " fill="#100C0A" transform="translate(51,5)"/>
<path d="M0,0 L6,0 L6,2 L12,3 L12,4 L2,4 L2,2 L-3,2 Z " fill="#788F9C" transform="translate(40,76)"/>
<path d="M0,0 L1,0 L1,9 L-4,10 L-4,4 L0,4 Z " fill="#767A80" transform="translate(149,65)"/>
<path d="M0,0 L8,0 L7,2 L4,3 L-3,3 L-3,1 Z M-7,3 L-3,4 Z " fill="#0A0402" transform="translate(92,63)"/>
<path d="M0,0 L3,0 L3,2 L6,2 L4,7 L1,8 L2,3 L-1,3 Z " fill="#090907" transform="translate(116,47)"/>
<path d="M0,0 L3,1 L1,4 L-6,4 L-9,1 Z " fill="#31201B" transform="translate(71,19)"/>
<path d="M0,0 L6,0 L6,7 L2,5 Z " fill="#373A3E" transform="translate(144,0)"/>
<path d="M0,0 L7,1 L5,2 L4,5 L-2,5 Z " fill="#0E0403" transform="translate(62,65)"/>
<path d="M0,0 L4,1 L4,3 L8,5 L4,8 L0,7 L3,6 L0,5 Z " fill="#201A17" transform="translate(96,58)"/>
<path d="M0,0 L2,0 L2,3 L4,4 L1,7 L-1,7 L-1,5 L-4,6 L-4,4 L-2,4 Z " fill="#3E4445" transform="translate(131,56)"/>
<path d="M0,0 L13,0 L13,2 L3,3 L3,1 L0,2 Z " fill="#736561" transform="translate(51,52)"/>
<path d="M0,0 L1,4 L6,4 L7,7 L3,8 L0,8 Z " fill="#000101" transform="translate(131,17)"/>
<path d="M0,0 L3,0 L3,4 L5,5 L-3,5 L-2,1 Z " fill="#6D605C" transform="translate(55,17)"/>
<path d="M0,0 L5,0 L3,3 L0,3 L-1,7 L-3,8 L-3,2 Z " fill="#9D857A" transform="translate(3,11)"/>
<path d="M0,0 L7,0 L15,5 L11,6 L9,5 L9,3 L0,1 Z " fill="#8E908F" transform="translate(102,0)"/>
<path d="M0,0 L6,1 L4,3 L4,6 L1,6 L1,4 L-4,3 Z " fill="#141412" transform="translate(103,1)"/>
<path d="M0,0 L5,2 L3,3 L3,5 L-3,5 L-2,1 Z " fill="#21212C" transform="translate(105,79)"/>
<path d="M0,0 L8,1 L7,5 L1,5 Z " fill="#445962" transform="translate(95,79)"/>
<path d="M0,0 L13,0 L13,1 L7,1 L7,3 L0,3 Z " fill="#6E6267" transform="translate(68,62)"/>
<path d="M0,0 L4,1 L4,7 L0,7 Z " fill="#352723" transform="translate(77,45)"/>
<path d="M0,0 L1,3 L4,2 L4,8 L-2,5 L-3,1 Z " fill="#3E2A2D" transform="translate(13,42)"/>
<path d="M0,0 L3,0 L3,4 L5,4 L5,7 L0,6 L0,4 L-2,3 Z " fill="#B0A1A0" transform="translate(24,12)"/>
<path d="M0,0 L5,1 L5,4 L0,7 L-3,7 L-3,5 L0,4 L1,2 L-2,1 Z " fill="#483E3A" transform="translate(102,6)"/>
<path d="M0,0 L4,1 L4,3 L7,4 L7,6 L-1,6 Z " fill="#252325" transform="translate(5,5)"/>
<path d="M0,0 L5,1 L3,4 L-3,4 L-4,1 Z " fill="#0C1018" transform="translate(111,77)"/>
<path d="M0,0 L4,0 L4,2 L8,1 L11,3 L8,5 L3,5 L2,2 Z " fill="#68727E" transform="translate(138,72)"/>
<path d="M0,0 L3,0 L3,2 L10,2 L6,5 L0,5 L1,2 L-2,3 L-2,1 Z " fill="#423339" transform="translate(36,71)"/>
<path d="M0,0 L9,1 L8,4 L0,3 L-3,2 L-4,5 L-4,1 Z " fill="#4D3430" transform="translate(39,66)"/>
<path d="M0,0 L4,1 L1,6 L5,6 L5,9 L0,8 Z " fill="#8B7E7C" transform="translate(0,59)"/>
<path d="M0,0 L1,4 L0,6 L2,7 L1,9 L-3,9 L-3,3 L0,2 Z " fill="#382329" transform="translate(131,29)"/>
<path d="M0,0 L4,0 L4,4 L-3,4 L-3,1 Z " fill="#4F433D" transform="translate(72,32)"/>
<path d="M0,0 L6,0 L7,4 L1,4 Z " fill="#8A7B76" transform="translate(87,22)"/>
<path d="M0,0 L2,1 L2,4 L4,4 L5,8 L-2,6 Z " fill="#3B211A" transform="translate(110,12)"/>
<path d="M0,0 L8,0 L7,3 L5,4 L-1,4 Z " fill="#233548" transform="translate(130,73)"/>
<path d="M0,0 L5,0 L1,1 L1,4 L5,3 L5,6 L0,7 L-1,1 Z " fill="#3E3934" transform="translate(102,57)"/>
<path d="M0,0 L2,0 L2,5 L6,6 L-1,6 L-2,1 Z " fill="#0E0402" transform="translate(28,55)"/>
<path d="M0,0 L7,0 L7,3 L1,4 Z " fill="#2B1B18" transform="translate(40,49)"/>
<path d="M0,0 L2,0 L2,2 L4,3 L2,3 L3,10 L2,12 L0,12 L-1,14 L-1,9 L0,8 Z " fill="#3B231A" transform="translate(30,31)"/>
<path d="M0,0 L5,0 L2,1 L3,12 L-1,9 L0,6 Z " fill="#817577" transform="translate(131,27)"/>
<path d="M0,0 L2,0 L1,5 L-4,6 L-4,2 Z " fill="#907668" transform="translate(93,31)"/>
<path d="M0,0 L5,2 L6,7 L2,7 Z " fill="#C9C0C4" transform="translate(122,22)"/>
<path d="M0,0 L3,2 L2,5 L-1,5 L-5,6 L-6,4 L-4,4 L-3,1 Z " fill="#3B292E" transform="translate(130,8)"/>
<path d="M0,0 L7,0 L5,1 L5,4 L-2,4 Z " fill="#908682" transform="translate(60,6)"/>
<path d="M0,0 L6,1 L8,5 L5,5 L4,7 L4,4 L-1,3 Z " fill="#7B6A66" transform="translate(83,1)"/>
<path d="M0,0 L2,1 L1,4 L-3,6 L-8,6 L-7,4 Z " fill="#6C6871" transform="translate(123,66)"/>
<path d="M0,0 L8,1 L7,4 L2,4 Z " fill="#655753" transform="translate(51,62)"/>
<path d="M0,0 L6,0 L6,2 L1,2 L1,5 L-1,5 L-1,3 L-5,2 Z " fill="#2E201B" transform="translate(60,57)"/>
<path d="M0,0 L3,1 L3,4 L1,4 L1,7 L-1,7 L-1,9 L-3,8 Z " fill="#918B8B" transform="translate(144,51)"/>
<path d="M0,0 L5,1 L5,4 L3,4 L2,7 L-1,4 Z " fill="#171920" transform="translate(134,43)"/>
<path d="M0,0 L9,1 L9,3 L-1,3 Z " fill="#604B44" transform="translate(51,29)"/>
<path d="M0,0 L1,4 L0,7 L-3,7 L-5,1 L-1,1 Z " fill="#180A08" transform="translate(29,21)"/>
<path d="M0,0 L5,0 L1,2 L-2,5 L-2,6 L-7,6 L-6,3 Z " fill="#4E433F" transform="translate(46,17)"/>
<path d="M0,0 L3,1 L1,1 L4,5 L4,7 L-2,5 L-3,2 Z " fill="#43434D" transform="translate(120,10)"/>
<path d="M0,0 L13,2 L13,3 L-2,3 L-2,1 Z " fill="#2E2D30" transform="translate(82,77)"/>
<path d="M0,0 L4,1 L3,5 L-1,6 L-1,1 Z " fill="#020402" transform="translate(57,75)"/>
<path d="M0,0 L2,0 L7,6 L0,5 Z " fill="#3A302E" transform="translate(0,67)"/>
<path d="M0,0 L13,0 L13,1 L1,3 Z " fill="#6F6468" transform="translate(68,67)"/>
<path d="M0,0 L2,0 L0,4 L-5,9 L-8,8 L-6,7 L-5,4 L-1,2 Z " fill="#7B787B" transform="translate(113,55)"/>
<path d="M0,0 L3,0 L4,7 L-2,6 L0,5 Z " fill="#261B17" transform="translate(20,34)"/>
<path d="M0,0 L1,2 L4,2 L4,4 L-1,6 L-3,5 L-3,2 Z " fill="#5D4D49" transform="translate(101,24)"/>
<path d="M0,0 L6,0 L6,3 L-7,3 L-7,2 L0,1 Z " fill="#45505C" transform="translate(49,78)"/>
<path d="M0,0 L6,0 L5,3 L-1,4 Z " fill="#29292A" transform="translate(64,74)"/>
<path d="M0,0 L2,1 L1,4 L3,5 L-4,4 L-4,2 L-7,1 Z " fill="#1D1E26" transform="translate(46,73)"/>
<path d="M0,0 L7,0 L8,3 L3,4 L0,1 Z " fill="#2E1811" transform="translate(31,57)"/>
<path d="M0,0 L9,0 L12,2 L12,4 L0,1 Z " fill="#594B47" transform="translate(55,47)"/>
<path d="M0,0 L3,0 L3,4 L1,4 L1,6 L-2,6 L-2,2 L0,2 Z " fill="#947B75" transform="translate(98,41)"/>
<path d="M0,0 L2,3 L2,8 L-1,10 L-1,2 Z " fill="#1C0B0D" transform="translate(122,28)"/>
<path d="M0,0 L6,0 L5,5 L10,5 L10,6 L4,6 L3,3 L0,2 Z " fill="#584B47" transform="translate(31,23)"/>
<path d="M0,0 L9,2 L9,4 L2,4 L0,3 Z " fill="#947A6F" transform="translate(75,19)"/>
<path d="M0,0 L6,0 L7,1 L18,2 L18,3 L5,3 L0,1 Z " fill="#3B271D" transform="translate(78,18)"/>
<path d="M0,0 L9,3 L5,4 L5,6 L2,6 L2,3 L0,2 Z " fill="#8E8584" transform="translate(6,68)"/>
<path d="M0,0 L2,2 L2,5 L-3,6 L-2,3 L-5,2 Z " fill="#3A302C" transform="translate(92,58)"/>
<path d="M0,0 L5,1 L6,6 L2,5 L2,2 L0,2 Z " fill="#887377" transform="translate(10,54)"/>
<path d="M0,0 L3,0 L5,7 L3,7 L2,5 L0,6 Z " fill="#4C373B" transform="translate(0,38)"/>
<path d="M0,0 L1,0 L1,6 L-3,6 L-3,1 Z " fill="#82665A" transform="translate(35,33)"/>
<path d="M0,0 L1,3 L3,3 L2,6 L-4,5 L-4,3 L-1,3 Z " fill="#080202" transform="translate(11,27)"/>
<path d="M0,0 L11,0 L11,1 L5,1 L5,3 L0,3 Z " fill="#524F4D" transform="translate(52,0)"/>
<path d="M0,0 L2,0 L3,3 L7,3 L7,5 L1,5 L-1,4 Z " fill="#10131A" transform="translate(48,73)"/>
<path d="M0,0 L1,2 L3,2 L3,5 L-6,3 L-6,2 Z " fill="#393432" transform="translate(102,67)"/>
<path d="M0,0 L7,2 L8,4 L2,4 L0,3 Z " fill="#120704" transform="translate(51,65)"/>
<path d="M0,0 L2,0 L1,4 L-3,6 L-5,5 L-4,1 L-2,2 Z " fill="#454C51" transform="translate(129,52)"/>
<path d="M0,0 L8,0 L5,3 L0,3 Z " fill="#2C1F1C" transform="translate(65,52)"/>
<path d="M0,0 L2,2 L1,4 L-8,2 L-8,1 Z " fill="#1D0F0B" transform="translate(69,44)"/>
<path d="M0,0 L2,0 L2,2 L4,2 L4,5 L-1,4 L-2,1 Z " fill="#95796D" transform="translate(86,37)"/>
<path d="M0,0 L3,0 L2,3 L-6,3 L-6,1 Z " fill="#826557" transform="translate(43,33)"/>
<path d="M0,0 L1,0 L0,7 L-4,7 L-4,4 L-1,4 Z " fill="#554843" transform="translate(107,32)"/>
<path d="M0,0 L9,0 L8,2 L-1,3 Z " fill="#361B10" transform="translate(51,32)"/>
<path d="M0,0 L1,2 L9,3 L9,4 L0,6 Z " fill="#4B403C" transform="translate(63,28)"/>
<path d="M0,0 L4,0 L2,5 L-1,6 Z " fill="#988B86" transform="translate(16,27)"/>
<path d="M0,0 L2,1 L3,9 L-1,8 L1,7 Z " fill="#291E19" transform="translate(3,14)"/>
<path d="M0,0 L5,2 L6,5 L4,6 L3,8 L0,2 Z " fill="#1A1112" transform="translate(131,7)"/>
<path d="M0,0 L1,2 L6,2 L5,5 L0,4 Z " fill="#030404" transform="translate(26,8)"/>
<path d="M0,0 L7,0 L7,5 L6,3 L1,3 Z " fill="#222422" transform="translate(26,7)"/>
<path d="M0,0 L2,0 L1,5 L4,6 L-2,6 L-2,1 Z " fill="#605C58" transform="translate(67,3)"/>
<path d="M0,0 L5,1 L6,4 L0,3 Z " fill="#6D878D" transform="translate(0,76)"/>
<path d="M0,0 L1,2 L6,1 L7,5 L0,4 Z " fill="#03050A" transform="translate(18,69)"/>
<path d="M0,0 L7,0 L7,2 L3,3 L-2,3 L-2,1 Z " fill="#9F97A0" transform="translate(113,64)"/>
<path d="M0,0 L1,2 L8,1 L7,4 L5,4 L4,6 L4,3 L-1,3 Z " fill="#4B403E" transform="translate(2,62)"/>
<path d="M0,0 L1,4 L-1,8 L-4,8 L-3,4 Z " fill="#7C8486" transform="translate(137,51)"/>
<path d="M0,0 L1,0 L1,7 L-2,7 L-2,1 Z " fill="#371F13" transform="translate(93,37)"/>
<path d="M0,0 L4,2 L4,5 L6,6 L3,9 L2,4 L0,4 Z " fill="#524434" transform="translate(99,34)"/>
<path d="M0,0 L2,4 L-1,5 L-1,3 L-3,3 L-3,6 L-5,5 L-3,1 Z " fill="#997F71" transform="translate(45,38)"/>
<path d="M0,0 L2,0 L2,7 L-1,7 Z " fill="#7F8280" transform="translate(1,25)"/>
<path d="M0,0 L1,0 L1,5 L-2,6 L-2,8 L-4,8 L-4,5 L-2,5 L-2,2 L0,2 Z " fill="#7A6763" transform="translate(18,18)"/>
<path d="M0,0 L4,1 L4,5 L1,5 L-1,1 Z " fill="#5D524E" transform="translate(98,6)"/>
<path d="M0,0 L4,0 L4,2 L1,2 L1,4 L-4,4 Z " fill="#726B67" transform="translate(101,64)"/>
<path d="M0,0 L2,0 L1,3 L-2,5 L-5,5 L-5,3 L-3,3 L-3,1 Z " fill="#61686E" transform="translate(140,61)"/>
<path d="M0,0 L2,0 L0,6 L-1,8 L-4,7 Z " fill="#7C8182" transform="translate(120,52)"/>
<path d="M0,0 L2,1 L2,9 L-1,8 L-2,4 L0,4 Z " fill="#503A35" transform="translate(38,43)"/>
<path d="M0,0 L8,1 L7,3 L0,2 Z " fill="#6D574D" transform="translate(51,43)"/>
<path d="M0,0 L2,0 L1,4 L-5,5 L-4,2 Z " fill="#332622" transform="translate(99,22)"/>
<path d="M0,0 L3,0 L2,5 L-2,6 Z " fill="#1C0D0A" transform="translate(19,20)"/>
<path d="M0,0 L4,0 L4,5 L1,5 Z " fill="#808281" transform="translate(146,12)"/>
<path d="M0,0 L5,1 L8,4 L8,6 L4,4 L2,3 L2,1 Z " fill="#7D6F75" transform="translate(127,11)"/>
<path d="M0,0 L10,0 L7,4 L5,3 L5,1 L0,1 Z " fill="#898989" transform="translate(114,0)"/>
<path d="M0,0 L8,0 L8,2 L3,4 L3,2 L0,1 Z " fill="#0B0B07" transform="translate(63,0)"/>
<path d="M0,0 L2,0 L2,2 L5,4 L-2,5 Z " fill="#5D626D" transform="translate(35,73)"/>
<path d="M0,0 L2,2 L0,2 L1,5 L-4,4 L-3,1 Z " fill="#281C1B" transform="translate(34,70)"/>
<path d="M0,0 L3,4 L3,6 L-2,6 Z " fill="#6B5854" transform="translate(45,61)"/>
<path d="M0,0 L4,0 L4,2 L-1,4 L-4,4 L-4,2 Z " fill="#271713" transform="translate(98,50)"/>
<path d="M0,0 L2,0 L2,5 L0,1 Z M-4,1 L0,2 L-1,4 L-5,3 Z " fill="#594945" transform="translate(75,47)"/>
<path d="M0,0 L5,2 L6,6 L2,5 L2,3 L0,3 Z " fill="#A89998" transform="translate(18,43)"/>
<path d="M0,0 L3,0 L3,4 L-3,3 L-3,1 Z " fill="#482D1F" transform="translate(45,35)"/>
<path d="M0,0 L1,0 L1,10 L-2,9 L-2,6 L0,6 Z " fill="#8A7A79" transform="translate(120,27)"/>
<path d="M0,0 L6,0 L3,3 L0,4 L-2,1 Z " fill="#29231E" transform="translate(66,32)"/>
<path d="M0,0 L1,2 L3,3 L0,4 L-1,9 L-3,6 L-3,4 L-1,3 Z " fill="#817470" transform="translate(23,28)"/>
<path d="M0,0 L1,2 L3,3 L2,7 L0,7 L-1,3 L-3,1 Z " fill="#503F38" transform="translate(97,27)"/>
<path d="M0,0 L1,2 L0,7 L-4,7 L-4,4 L-1,4 Z " fill="#29201E" transform="translate(54,9)"/>
<path d="M0,0 L6,0 L5,3 L-1,3 Z " fill="#150704" transform="translate(78,4)"/>
<path d="M0,0 L6,0 L5,3 L0,3 Z " fill="#4F3634" transform="translate(15,0)"/>
<path d="M0,0 L3,0 L3,4 L-4,4 L0,3 Z " fill="#C8E1EA" transform="translate(127,80)"/>
<path d="M0,0 L4,0 L4,3 L-2,3 L-2,1 Z " fill="#737883" transform="translate(110,81)"/>
<path d="M0,0 L6,2 L7,5 L3,5 L3,2 L0,2 Z " fill="#293039" transform="translate(26,79)"/>
<path d="M0,0 L2,0 L4,4 L-2,5 Z " fill="#080F20" transform="translate(134,69)"/>
<path d="M0,0 L2,0 L1,4 L-3,4 L-3,1 Z " fill="#6F6A75" transform="translate(112,72)"/>
<path d="M0,0 L7,1 L7,3 L0,3 Z " fill="#060505" transform="translate(0,72)"/>
<path d="M0,0 L2,0 L2,3 L-5,3 L-5,1 Z " fill="#050304" transform="translate(97,71)"/>
<path d="M0,0 L4,0 L4,2 L1,5 L-2,5 L-2,3 L0,3 Z " fill="#0B0B0F" transform="translate(144,66)"/>
<path d="M0,0 L3,0 L4,3 L3,5 L0,5 Z " fill="#432F36" transform="translate(5,57)"/>
<path d="M0,0 L2,0 L0,4 L-1,6 L-4,6 L-2,2 L0,2 Z " fill="#C7CACD" transform="translate(130,54)"/>
<path d="M0,0 L1,0 L2,7 L-4,5 L-1,4 Z " fill="#3A2E2E" transform="translate(9,46)"/>
<path d="M0,0 L2,0 L3,3 L2,5 L-3,4 L-1,3 Z " fill="#625B5B" transform="translate(119,42)"/>
<path d="M0,0 L1,4 L-2,5 L-8,5 L-8,4 L0,2 Z " fill="#0C0805" transform="translate(71,40)"/>
<path d="M0,0 L1,3 L3,4 L-2,5 L-3,2 Z " fill="#D5B9BE" transform="translate(7,37)"/>
<path d="M0,0 L3,1 L3,6 L1,7 Z " fill="#9E908D" transform="translate(114,34)"/>
<path d="M0,0 L8,2 L8,3 L2,3 L1,5 L-1,1 Z " fill="#6C5045" transform="translate(35,31)"/>
<path d="M0,0 L6,1 L6,3 L-1,3 Z " fill="#5E504C" transform="translate(42,25)"/>
<path d="M0,0 L4,1 L5,6 L2,4 L2,2 L0,2 Z " fill="#7B655D" transform="translate(114,23)"/>
<path d="M0,0 L5,1 L5,3 L-1,3 Z " fill="#1C100C" transform="translate(52,25)"/>
<path d="M0,0 L6,1 L7,3 L1,3 Z " fill="#B49F9B" transform="translate(85,12)"/>
<path d="M0,0 L1,2 L3,2 L3,5 L-2,5 L-3,2 L-1,2 Z " fill="#87767A" transform="translate(130,0)"/>
<path d="M0,0 L5,0 L1,4 L-2,4 Z " fill="#636D6B" transform="translate(32,0)"/>
<path d="M0,0 L8,0 L8,2 L5,3 L0,1 Z " fill="#070D1E" transform="translate(42,81)"/>
<path d="M0,0 L4,0 L4,2 L7,4 L1,4 Z " fill="#435C66" transform="translate(36,80)"/>
<path d="M0,0 L1,0 L2,6 L-5,5 L-1,3 Z " fill="#332521" transform="translate(49,64)"/>
<path d="M0,0 L2,0 L2,2 L7,3 L7,4 L0,3 L-2,1 Z " fill="#0B0809" transform="translate(13,60)"/>
<path d="M0,0 L2,0 L2,3 L-4,5 L-5,2 L0,2 Z " fill="#352824" transform="translate(26,53)"/>
<path d="M0,0 L4,1 L2,7 L0,5 L1,2 L-1,1 Z " fill="#48433D" transform="translate(114,49)"/>
<path d="M0,0 L3,0 L4,4 L0,5 Z " fill="#2F1D23" transform="translate(0,50)"/>
<path d="M0,0 L5,2 L6,5 L2,4 Z " fill="#2A2122" transform="translate(11,47)"/>
<path d="M0,0 L2,0 L0,4 L-4,5 L-4,3 L-2,3 L-2,1 Z " fill="#222023" transform="translate(123,44)"/>
<path d="M0,0 L4,0 L4,2 L-1,5 Z " fill="#4E3D37" transform="translate(86,43)"/>
<path d="M0,0 L2,0 L3,5 L2,3 L-1,3 L-2,5 L-2,1 Z " fill="#766355" transform="translate(99,38)"/>
<path d="M0,0 L4,0 L6,5 L2,5 L2,1 Z " fill="#664A3A" transform="translate(76,36)"/>
<path d="M0,0 L1,3 L0,8 L-1,6 L-3,6 L-1,1 Z " fill="#2C231E" transform="translate(18,31)"/>
<path d="M0,0 L5,1 L4,4 L1,4 Z " fill="#3D2013" transform="translate(82,33)"/>
<path d="M0,0 L4,1 L3,4 L-1,4 Z " fill="#9C8F8D" transform="translate(2,33)"/>
<path d="M0,0 L5,1 L5,4 L2,4 Z " fill="#2A190E" transform="translate(98,32)"/>
<path d="M0,0 L3,0 L3,2 L0,2 L0,4 L-4,3 Z " fill="#77665F" transform="translate(103,28)"/>
<path d="M0,0 L4,1 L3,3 L-5,3 L-5,2 L0,2 Z " fill="#705A4F" transform="translate(84,21)"/>
<path d="M0,0 L0,3 L-2,5 L-5,3 L-5,1 Z " fill="#432E2C" transform="translate(29,19)"/>
<path d="M0,0 L4,0 L5,3 L-1,4 Z " fill="#020102" transform="translate(115,7)"/>
<path d="M0,0 L10,1 L10,2 L3,3 Z " fill="#1D2221" transform="translate(109,0)"/>
<path d="M0,0 L3,1 L2,4 L3,6 L0,6 L-1,1 Z " fill="#92BCCA" transform="translate(130,78)"/>
<path d="M0,0 L5,1 L7,2 L7,4 L1,2 Z " fill="#9497A2" transform="translate(24,75)"/>
<path d="M0,0 L3,1 L3,3 L5,4 L0,4 L0,2 L-4,1 Z " fill="#1F2024" transform="translate(17,67)"/>
<path d="M0,0 L4,2 L5,4 L0,4 Z " fill="#8D7875" transform="translate(34,49)"/>
<path d="M0,0 L2,1 L2,5 L-2,4 L-2,2 L0,2 Z " fill="#080808" transform="translate(142,49)"/>
<path d="M0,0 L3,0 L4,4 L0,4 Z " fill="#B3B8C2" transform="translate(130,47)"/>
<path d="M0,0 L4,0 L4,3 L-2,3 L0,2 Z " fill="#594C48" transform="translate(109,42)"/>
<path d="M0,0 L3,0 L3,3 L1,3 L1,5 L-3,4 L0,4 Z " fill="#513D31" transform="translate(94,40)"/>
<path d="M0,0 L5,1 L4,3 L2,3 L1,6 Z " fill="#1D1B1B" transform="translate(139,39)"/>
<path d="M0,0 L4,0 L4,2 L-2,4 L-2,1 Z " fill="#564945" transform="translate(48,20)"/>
<path d="M0,0 L4,1 L3,5 L0,5 Z " fill="#170906" transform="translate(115,17)"/>
<path d="M0,0 L4,2 L6,3 L6,5 L1,3 Z " fill="#EAE9EF" transform="translate(121,11)"/>
<path d="M0,0 L5,5 L5,7 L1,5 L-1,2 Z " fill="#716266" transform="translate(124,2)"/>
<path d="M0,0 L5,2 L5,5 L1,4 Z " fill="#2A2526" transform="translate(8,0)"/>
<path d="M0,0 L4,0 L4,5 L2,5 Z " fill="#7B7F81" transform="translate(146,0)"/>
<path d="M0,0 L2,1 L1,4 L-4,4 Z " fill="#87A2A9" transform="translate(95,80)"/>
<path d="M0,0 L6,1 L5,4 L0,2 Z " fill="#66686F" transform="translate(20,73)"/>
<path d="M0,0 L5,0 L4,3 L-1,3 Z " fill="#766461" transform="translate(43,70)"/>
<path d="M0,0 L3,0 L2,4 L-2,3 L0,3 Z " fill="#010202" transform="translate(133,61)"/>
<path d="M0,0 L5,0 L3,1 L3,3 L-1,3 Z " fill="#29211C" transform="translate(27,61)"/>
<path d="M0,0 L7,0 L5,3 L3,3 L3,1 L0,2 Z " fill="#2A3231" transform="translate(127,60)"/>
<path d="M0,0 L4,1 L3,4 L0,5 Z " fill="#1A120F" transform="translate(96,58)"/>
<path d="M0,0 L3,0 L1,4 L-2,3 Z " fill="#424240" transform="translate(110,55)"/>
<path d="M0,0 L2,3 L5,5 L1,6 L-1,2 Z " fill="#423934" transform="translate(114,42)"/>
<path d="M0,0 L4,0 L4,5 L2,5 Z " fill="#7F7783" transform="translate(129,42)"/>
<path d="M0,0 L2,0 L5,4 L2,6 Z " fill="#4B3D39" transform="translate(116,34)"/>
<path d="M0,0 L1,2 L3,3 L-2,4 L-2,1 Z " fill="#563E3C" transform="translate(13,32)"/>
<path d="M0,0 L1,4 L0,6 L2,7 L-1,7 L-2,2 L0,2 Z " fill="#524244" transform="translate(131,29)"/>
<path d="M0,0 L4,1 L5,3 L-2,3 Z " fill="#B89D92" transform="translate(82,28)"/>
<path d="M0,0 L2,0 L2,3 L-1,4 L-4,2 Z " fill="#34231E" transform="translate(49,27)"/>
<path d="M0,0 L5,1 L5,4 L1,3 Z " fill="#694D43" transform="translate(106,24)"/>
<path d="M0,0 L1,3 L-3,4 L-4,1 Z " fill="#322521" transform="translate(60,24)"/>
<path d="M0,0 L4,1 L2,1 L2,4 L-2,2 Z " fill="#3B211B" transform="translate(75,23)"/>
<path d="M0,0 L4,4 L4,6 L0,4 L-1,2 Z " fill="#646D6E" transform="translate(138,18)"/>
<path d="M0,0 L2,0 L3,4 L1,4 L0,6 L0,4 L-2,3 L0,3 Z " fill="#564347" transform="translate(133,2)"/>
<path d="M0,0 L4,1 L5,3 L0,3 Z " fill="#888084" transform="translate(85,81)"/>
<path d="M0,0 L6,2 L6,3 L0,3 Z " fill="#889DA0" transform="translate(0,81)"/>
<path d="M0,0 L2,1 L-3,4 L-5,2 Z " fill="#6F7174" transform="translate(93,80)"/>
<path d="M0,0 L2,0 L1,5 L-2,4 Z " fill="#D3ECF3" transform="translate(133,78)"/>
<path d="M0,0 L4,1 L1,3 L-3,2 Z " fill="#232833" transform="translate(118,77)"/>
<path d="M0,0 L1,4 L-4,5 Z " fill="#E1E3E9" transform="translate(149,70)"/>
<path d="M0,0 L5,0 L2,1 L2,4 L-1,3 Z " fill="#594D49" transform="translate(91,67)"/>
<path d="M0,0 L1,2 L3,3 L-2,5 L-2,2 L0,2 Z " fill="#2A2231" transform="translate(120,64)"/>
<path d="M0,0 L5,0 L5,3 L1,2 Z " fill="#A0A4AB" transform="translate(16,65)"/>
<path d="M0,0 L3,1 L3,3 L-2,4 L-3,2 L0,2 Z " fill="#494D55" transform="translate(119,58)"/>
<path d="M0,0 L3,0 L3,4 L0,4 Z " fill="#C9B8C1" transform="translate(9,56)"/>
<path d="M0,0 L2,0 L3,5 L0,4 Z " fill="#614E4B" transform="translate(32,51)"/>
<path d="M0,0 L4,0 L3,4 L1,4 Z " fill="#7E6A65" transform="translate(81,43)"/>
<path d="M0,0 L4,3 L-4,3 Z " fill="#392823" transform="translate(59,44)"/>
<path d="M0,0 L2,0 L1,6 L-1,5 Z " fill="#6E574D" transform="translate(45,42)"/>
<path d="M0,0 L2,0 L2,2 L5,3 L3,3 L2,5 L0,3 Z " fill="#26090E" transform="translate(8,42)"/>
<path d="M0,0 L3,0 L4,4 L1,4 Z " fill="#030402" transform="translate(141,43)"/>
<path d="M0,0 L4,1 L4,4 L0,3 Z " fill="#83656B" transform="translate(4,41)"/>
<path d="M0,0 L4,0 L3,3 L0,4 Z " fill="#B19486" transform="translate(89,33)"/>
<path d="M0,0 L5,0 L6,4 L3,3 L3,1 Z " fill="#684B3C" transform="translate(43,32)"/>
<path d="M0,0 L3,1 L1,1 L2,5 L-1,4 Z " fill="#190F0C" transform="translate(116,29)"/>
<path d="M0,0 L4,0 L4,3 L0,3 Z " fill="#1C0603" transform="translate(80,25)"/>
<path d="M0,0 L3,1 L3,5 L5,6 L2,6 Z " fill="#20100E" transform="translate(24,22)"/>
<path d="M0,0 L4,2 L6,5 L1,3 Z " fill="#B2ACB7" transform="translate(118,14)"/>
<path d="M0,0 L5,0 L3,3 L0,3 Z " fill="#B3A6A3" transform="translate(3,11)"/>
<path d="M0,0 L0,3 L-1,5 L-3,5 L-2,1 Z " fill="#383843" transform="translate(105,79)"/>
<path d="M0,0 L5,0 L2,1 L2,3 L-1,3 Z " fill="#192430" transform="translate(120,81)"/>
<path d="M0,0 L6,0 L6,2 L3,3 Z " fill="#1C1420" transform="translate(94,76)"/>
<path d="M0,0 L3,1 L2,5 L0,5 Z " fill="#0C0E0C" transform="translate(58,75)"/>
<path d="M0,0 L6,0 L8,2 L5,3 L0,1 Z " fill="#1D2D30" transform="translate(0,75)"/>
<path d="M0,0 L4,2 L5,4 L0,3 Z " fill="#131010" transform="translate(84,75)"/>
<path d="M0,0 L6,1 L2,3 L0,3 Z " fill="#282429" transform="translate(74,71)"/>
<path d="M0,0 L2,0 L1,4 L-2,3 Z " fill="#90939E" transform="translate(141,65)"/>
<path d="M0,0 L2,0 L2,4 L-2,3 Z " fill="#473831" transform="translate(59,63)"/>
<path d="M0,0 L4,0 L3,5 L0,1 Z " fill="#463935" transform="translate(46,62)"/>
<path d="M0,0 L2,3 L-3,5 L-1,1 Z " fill="#404148" transform="translate(114,57)"/>
<path d="M0,0 L2,0 L2,5 L0,5 L-1,2 Z " fill="#6F5D59" transform="translate(41,54)"/>
<path d="M0,0 L4,0 L4,3 L0,2 Z " fill="#240A04" transform="translate(56,37)"/>
<path d="M0,0 L4,0 L3,3 L0,3 Z " fill="#0F0F16" transform="translate(144,33)"/>
<path d="M0,0 L2,0 L3,7 L0,7 Z " fill="#1C1F25" transform="translate(141,21)"/>
<path d="M0,0 L2,0 L4,4 L0,4 Z " fill="#462D24" transform="translate(114,25)"/>
<path d="M0,0 L5,2 L5,3 L0,3 Z " fill="#B69C94" transform="translate(75,19)"/>
<path d="M0,0 L3,1 L3,3 L-1,4 L-2,2 L0,2 Z " fill="#51434D" transform="translate(126,10)"/>
<path d="M0,0 L5,0 L5,2 L1,3 Z " fill="#514541" transform="translate(90,3)"/>
<path d="M0,0 L3,0 L3,3 L-1,2 Z " fill="#83A7B3" transform="translate(138,77)"/>
<path d="M0,0 L3,0 L4,3 L0,3 Z " fill="#2B2D37" transform="translate(63,75)"/>
<path d="M0,0 L2,1 L1,5 L-1,5 Z " fill="#2A3333" transform="translate(125,64)"/>
<path d="M0,0 L1,3 L-2,5 L-3,2 L0,2 Z " fill="#7F8587" transform="translate(125,58)"/>
<path d="M0,0 L4,1 L3,3 L0,3 Z " fill="#A09395" transform="translate(0,59)"/>
<path d="M0,0 L2,0 L2,3 L-2,3 L-2,1 Z " fill="#13100C" transform="translate(113,51)"/>
<path d="M0,0 L1,0 L1,5 L-2,4 L-2,2 L0,2 Z " fill="#4F3F3C" transform="translate(119,28)"/>
<path d="M0,0 L4,1 L6,3 L1,2 Z " fill="#37221A" transform="translate(35,29)"/>
<path d="M0,0 L3,1 L1,3 L-2,3 L-2,1 Z " fill="#837673" transform="translate(44,22)"/>
<path d="M0,0 L2,0 L3,4 L0,4 Z " fill="#323232" transform="translate(144,13)"/>
<path d="M0,0 L0,3 L-3,3 L-4,1 Z " fill="#2D1217" transform="translate(16,13)"/>
<path d="M0,0 L5,2 L1,4 Z " fill="#201B1D" transform="translate(127,13)"/>
<path d="M0,0 L5,0 L5,3 L0,1 Z " fill="#AB9E9D" transform="translate(94,9)"/>
<path d="M0,0 L3,0 L3,3 L0,4 Z " fill="#393331" transform="translate(104,7)"/>
<path d="M0,0 L3,0 L1,4 L-1,3 Z " fill="#90807B" transform="translate(22,0)"/>
<path d="M0,0 L3,0 L3,3 L0,3 Z " fill="#70949F" transform="translate(134,80)"/>
<path d="M0,0 L4,1 L0,3 Z " fill="#222732" transform="translate(142,71)"/>
<path d="M0,0 L4,2 L0,3 Z " fill="#372E39" transform="translate(77,69)"/>
<path d="M0,0 L3,1 L2,3 L-1,3 Z " fill="#080909" transform="translate(123,57)"/>
<path d="M0,0 L1,4 L-2,5 Z " fill="#878D95" transform="translate(137,51)"/>
<path d="M0,0 L3,1 L3,3 L0,4 L-1,2 Z " fill="#4A4C50" transform="translate(122,49)"/>
<path d="M0,0 L4,1 L4,3 L0,2 Z " fill="#443438" transform="translate(11,45)"/>
<path d="M0,0 L3,0 L2,3 L-1,2 Z " fill="#AF978D" transform="translate(98,41)"/>
<path d="M0,0 L4,1 L0,3 Z " fill="#2D160B" transform="translate(32,30)"/>
<path d="M0,0 L3,0 L2,4 Z " fill="#EAE9EE" transform="translate(133,28)"/>
<path d="M0,0 L3,1 L3,4 L0,3 Z " fill="#2C1308" transform="translate(77,24)"/>
<path d="M0,0 L3,1 L1,3 L-2,2 Z " fill="#4D3A37" transform="translate(67,25)"/>
<path d="M0,0 L2,4 L-2,2 Z " fill="#402D28" transform="translate(2,17)"/>
<path d="M0,0 L4,1 L3,4 L0,1 Z " fill="#212527" transform="translate(138,17)"/>
<path d="M0,0 L3,1 L3,3 L-1,2 Z " fill="#372118" transform="translate(75,14)"/>
<path d="M0,0 L2,0 L1,4 L-1,4 Z " fill="#040000" transform="translate(19,11)"/>
<path d="M0,0 L2,2 L1,5 L-1,1 Z " fill="#100B09" transform="translate(26,8)"/>
<path d="M0,0 L4,2 L0,3 Z " fill="#6E616E" transform="translate(114,66)"/>
<path d="M0,0 L2,0 L1,3 L-2,2 Z " fill="#94959A" transform="translate(140,61)"/>
<path d="M0,0 L3,0 L3,3 L0,2 Z " fill="#726561" transform="translate(84,49)"/>
<path d="M0,0 L3,1 L2,4 Z " fill="#6C727D" transform="translate(133,47)"/>
<path d="M0,0 L3,1 L3,3 L0,3 Z " fill="#968A88" transform="translate(115,42)"/>
<path d="M0,0 L3,1 L3,3 L0,3 Z " fill="#90817A" transform="translate(103,36)"/>
<path d="M0,0 L3,1 L2,4 Z " fill="#B0A9AE" transform="translate(122,22)"/>
<path d="M0,0 L3,1 L0,4 L-1,1 Z " fill="#4C3431" transform="translate(71,19)"/>
<path d="M0,0 L2,4 L-1,3 Z " fill="#191B22" transform="translate(23,70)"/>
<path d="M0,0 L3,1 L3,3 L0,2 Z " fill="#AF9C98" transform="translate(34,49)"/>
<path d="M0,0 L3,1 L2,3 L0,3 Z " fill="#1F0D0F" transform="translate(14,42)"/>
<path d="M0,0 L2,1 L1,4 L-1,2 Z " fill="#81595F" transform="translate(10,36)"/>
<path d="M0,0 L3,1 L3,3 L0,2 Z " fill="#8E8C8B" transform="translate(139,11)"/>
<path d="M0,0 L2,1 L2,3 L-1,3 Z " fill="#3E2828" transform="translate(110,12)"/>
<path d="M0,0 L2,3 L-1,3 Z " fill="#595F5E" transform="translate(138,18)"/>
<path d="M0,0 L3,1 L1,3 Z " fill="#DAD5DD" transform="translate(118,14)"/>
<path d="M0,0 L3,1 L1,3 Z " fill="#D5D0D9" transform="translate(121,11)"/>
<path d="M0,0 L3,1 L1,3 Z " fill="#2A1819" transform="translate(131,7)"/>
</svg>
