<svg width="160" height="160" viewBox="0 0 160 160" fill="none" xmlns="http://www.w3.org/2000/svg">
<g clip-path="url(#clip0_28_11165)">
<path d="M126.509 46.4099V39.9503H133.466V33.4907H146.385V20.0745H153.342V0.198761H159.801V20.0745H153.342V33.4907H146.385V39.9503H133.466V46.4099H126.509Z" fill="#703803"/>
<path d="M27.1304 159.205V152.745H34.087V145.789H40.5466V152.745H34.087V159.205H27.1304Z" fill="#9F5200"/>
<path d="M60.4224 145.789V152.745H54.2609C53.764 152.745 53.9627 146.783 53.9627 145.789H60.4224V139.329H66.882V132.87H80.2981V125.913H86.7578V112.994H93.7143V106.037H100.174V112.994H93.7143V125.913H86.7578V132.87H80.2981V139.329H66.882V145.789H60.4224Z" fill="#9F5200"/>
<path d="M86.7578 93.118V86.1615H93.7143V93.118H86.7578Z" fill="#946209"/>
<path d="M86.7578 86.1615V79.7019H93.7143V86.1615H86.7578Z" fill="#9F5200"/>
<path d="M93.7143 79.7019L93.7143 73.2422H100.174V66.2857H106.634V59.8261H113.59V53.3665H120.05V46.4099H126.509V53.3665H120.05V59.8261H113.59V66.2857H106.634V73.2422H100.174V79.7019L93.7143 79.7019Z" fill="#946209"/>
<path d="M66.882 73.2422V66.2857H73.8385V73.2422H66.882Z" fill="#946209"/>
<path d="M20.6708 145.789V152.745H7.25466V139.329H14.2112V145.789H20.6708Z" fill="#D19A27"/>
<path d="M14.2112 132.87H7.25466V125.913H14.2112V119.453H20.6708V125.913H14.2112V132.87Z" fill="#D19A27"/>
<path d="M27.1304 152.745V145.789H34.087V139.329H40.5466V145.789H34.087V152.745H27.1304Z" fill="#DAA116"/>
<path d="M20.6708 145.789L20.6708 139.329H14.2112V132.87H20.6708V139.329H27.1304V132.87H20.6708L20.6708 125.913L27.1304 125.913V132.87H34.087V139.329H27.1304L27.1304 145.789H20.6708Z" fill="#6E1818"/>
<path d="M146.385 13.6149V6.65839H153.342V13.6149H146.385Z" fill="#FBCD39"/>
<path d="M120.05 39.9503V33.4907H126.509V39.9503H120.05Z" fill="#FBCD39"/>
<path d="M126.509 20.0745V13.6149H133.466V20.0745H126.509Z" fill="#FBCD39"/>
<path d="M139.925 33.4907V26.5342H146.385V33.4907H139.925Z" fill="#FBCD39"/>
<path d="M126.509 33.4907V26.5342H133.466V33.4907H126.509Z" fill="#FBCD39"/>
<path d="M139.925 20.0745H146.385V13.6149H139.925V20.0745Z" fill="#FBCD39"/>
<path d="M133.466 26.5342H139.925V20.0745H133.466V26.5342Z" fill="#FBCD39"/>
<path d="M120.05 46.4099V39.9503H113.59V33.4907H120.05L120.05 26.5342H126.509V20.0745H133.466V26.5342H126.509V33.4907H120.05V39.9503H126.509V33.4907H133.466V26.5342H139.925V33.4907H133.466V39.9503H126.509V46.4099H120.05Z" fill="#BD6F25"/>
<path d="M133.466 20.0745V13.6149H139.925L139.925 6.65839H146.385V13.6149H139.925V20.0745H133.466Z" fill="#BD6F25"/>
<path d="M139.925 26.5342V20.0745H146.385V13.6149H153.342V20.0745H146.385V26.5342H139.925Z" fill="#BD6F25"/>
<path d="M27.1304 125.913L27.1304 106.037H34.087V125.913H27.1304Z" fill="#DAA116"/>
<path d="M60.4224 139.329H53.9627V132.87H34.087L34.087 125.913L53.9627 125.913V132.87H66.882V125.913L80.2981 125.913V93.118L86.7578 93.118V125.913H80.2981V132.87H66.882V139.329H60.4224Z" fill="#DAA116"/>
<path d="M86.7578 112.994V106.037H93.7143V112.994H86.7578Z" fill="#D28413"/>
<path d="M53.9627 145.789L53.9627 139.329H40.5466V132.87H53.9627V139.329H60.4224V145.789H53.9627Z" fill="#D28413"/>
<path d="M80.2981 86.1615H73.8385L73.8385 73.2422L86.7578 73.2422V86.1615H80.2981Z" fill="#FBCD39"/>
<path d="M86.7578 79.7019V73.2422L80.2981 73.2422V66.2857H86.7578L86.7578 73.2422L93.7143 73.2422L93.7143 79.7019H86.7578Z" fill="#D19A27"/>
<path d="M86.7578 66.2857L86.7578 59.8261H93.7143V53.3665H100.174V46.4099H106.634V39.9503H113.59L113.59 46.4099H106.634V53.3665H113.59L113.59 46.4099L120.05 46.4099V53.3665H113.59V59.8261H106.634V53.3665H100.174V59.8261H93.7143V66.2857H86.7578Z" fill="#D9AD4C"/>
<path d="M93.7143 73.2422L93.7143 66.2857H100.174V73.2422H93.7143Z" fill="#D9AD4C"/>
<path d="M100.174 66.2857V59.8261L106.634 59.8261V66.2857H100.174Z" fill="#D19A27"/>
<path d="M20.6708 106.037V93.118H27.1304V79.7019H34.087V73.2422L66.882 73.2422L66.882 79.7019H34.087V93.118H27.1304L27.1304 106.037L20.6708 106.037Z" fill="#D19A27"/>
<path d="M47.0062 73.2422V66.2857H53.9627V73.2422H47.0062Z" fill="#D28413"/>
<path d="M20.6708 119.453V106.037L27.1304 106.037V119.453H20.6708Z" fill="#D28413"/>
<path d="M14.2112 106.037V99.5776H20.6708V106.037H14.2112Z" fill="#BD6F25"/>
<path d="M20.6708 145.789H14.2112V139.329H20.6708L20.6708 145.789Z" fill="#FEE254"/>
<path d="M14.2112 132.87V125.913H20.6708L20.6708 132.87H14.2112Z" fill="#FCD41F"/>
<path d="M27.1304 145.789L27.1304 139.329H34.087V145.789H27.1304Z" fill="#FCD41F"/>
<path d="M20.6708 139.329V132.87H27.1304V139.329H20.6708Z" fill="#9F5200"/>
<path d="M73.8385 125.913V119.453H66.882V99.5776H80.2981V125.913H73.8385Z" fill="#22201B"/>
<path d="M66.882 99.5776V93.118H60.4224V79.7019L66.882 79.7019L66.882 86.1615H73.8385L73.8385 93.118H80.2981V99.5776H66.882Z" fill="#FCD41F"/>
<path d="M53.9627 132.87V125.913L47.0062 125.913V119.453H53.9627V112.994H60.4224V106.037H66.882V119.453H73.8385V125.913L66.882 125.913V132.87H53.9627Z" fill="#35332D"/>
<path d="M80.2981 93.118H73.8385L73.8385 86.1615H66.882L66.882 79.7019L73.8385 79.7019L73.8385 86.1615H80.2981V93.118Z" fill="#D28413"/>
<path d="M93.7143 66.2857V59.8261H100.174V53.3665H106.634V59.8261L100.174 59.8261V66.2857H93.7143Z" fill="#FEEA8E"/>
<path d="M86.7578 73.2422L86.7578 66.2857H93.7143L93.7143 73.2422L86.7578 73.2422Z" fill="#FEEA8E"/>
<path d="M106.634 53.3665V46.4099H113.59L113.59 53.3665H106.634Z" fill="#FEE254"/>
<path d="M113.59 46.4099L113.59 39.9503H120.05V46.4099L113.59 46.4099Z" fill="#FEE254"/>
<path d="M53.9627 93.118H40.5466V86.1615H34.087V79.7019L60.4224 79.7019V93.118H53.9627Z" fill="#22201B"/>
<path d="M34.087 112.994L34.087 106.037H27.1304L27.1304 93.118H34.087V86.1615H40.5466V93.118H53.9627V99.5776H47.0062V106.037H40.5466V112.994H34.087Z" fill="#35332D"/>
<path d="M60.4224 106.037L53.9627 106.037V93.118H60.4224L60.4224 99.5776L66.882 99.5776V106.037H60.4224Z" fill="#DAA116"/>
<path d="M66.882 99.5776L60.4224 99.5776L60.4224 93.118H66.882V99.5776Z" fill="#D28413"/>
<path d="M40.5466 125.913V119.453H34.087V112.994H40.5466V119.453H47.0062V112.994H40.5466V106.037H47.0062V112.994H53.9627V106.037H47.0062V99.5776H53.9627V106.037L60.4224 106.037V112.994H53.9627V119.453H47.0062V125.913H40.5466Z" fill="#FCD41F"/>
<path d="M27.1304 132.87V125.913H34.087L34.087 132.87H27.1304Z" fill="#FEE254"/>
<path d="M34.087 125.913L34.087 119.453H40.5466V125.913H34.087Z" fill="#FEE254"/>
<path d="M47.0062 112.994V106.037H53.9627V112.994H47.0062Z" fill="#FEE254"/>
<path d="M40.5466 119.453V112.994H47.0062V119.453H40.5466Z" fill="#D28413"/>
</g>
<defs>
<clipPath id="clip0_28_11165">
<rect width="160" height="160" fill="white"/>
</clipPath>
</defs>
</svg>
