<?xml version="1.0" encoding="UTF-8"?>
<!-- Generator: visioncortex VTracer 0.6.5 -->
<svg version="1.1" xmlns="http://www.w3.org/2000/svg" width="120" height="120">
<path d="M0,0 L120,0 L120,120 L0,120 Z " fill="#0D001A" transform="translate(0,0)"/>
<path d="M0,0 L5,3 L6,9 L5,16 L8,14 L8,17 L14,18 L12,9 L10,5 L14,7 L17,14 L15,24 L21,21 L23,19 L24,21 L23,25 L21,26 L21,30 L25,29 L28,28 L30,24 L31,29 L27,33 L24,33 L29,38 L31,40 L30,43 L27,40 L24,40 L23,44 L25,44 L28,50 L27,57 L24,60 L24,50 L19,48 L22,54 L21,57 L20,54 L17,54 L16,60 L14,63 L14,68 L12,67 L11,60 L9,60 L9,70 L5,77 L4,75 L4,70 L-1,76 L-1,82 L0,84 L-3,83 L-3,81 L-5,81 L-5,67 L-9,66 L-8,69 L-11,73 L-13,72 L-12,71 L-13,64 L-15,60 L-17,60 L-18,63 L-19,59 L-19,55 L-20,56 L-20,65 L-22,65 L-24,59 L-23,51 L-20,47 L-25,48 L-28,51 L-28,56 L-31,53 L-30,48 L-26,44 L-25,41 L-31,41 L-33,39 L-32,36 L-27,37 L-24,33 L-28,32 L-29,30 L-23,30 L-25,24 L-27,22 L-27,16 L-25,15 L-23,21 L-16,25 L-16,18 L-17,11 L-14,9 L-14,15 L-9,15 L-7,10 L-4,10 L-6,15 L-4,15 L-2,11 L1,8 L1,3 Z " fill="#050009" transform="translate(61,20)"/>
<path d="M0,0 L5,1 L5,3 L7,3 L7,5 L10,4 L11,7 L11,19 L9,23 L4,24 L4,26 L1,26 L0,29 L-5,28 L-5,26 L-8,26 L-8,24 L-10,24 L-11,26 L-14,17 L-15,14 L-13,7 L-11,7 L-11,5 L-8,5 L-8,2 Z " fill="#500C3E" transform="translate(61,44)"/>
<path d="M0,0 L7,1 L10,4 L11,10 L7,15 L5,16 L-2,16 L-6,12 L-6,4 Z " fill="#0C040D" transform="translate(58,50)"/>
<path d="M0,0 L8,0 L14,5 L15,7 L15,13 L12,18 L8,20 L0,20 L-5,16 L-7,13 L-7,7 L-2,1 Z M2,2 L-4,6 L-4,14 L0,18 L7,18 L12,14 L13,9 L10,4 L7,2 Z " fill="#AE766C" transform="translate(56,48)"/>
<path d="M0,0 L2,4 L3,8 L5,8 L6,6 L10,10 L10,8 L12,8 L11,16 L7,14 L7,12 L5,12 L5,10 L-8,11 L-8,14 L-11,14 L-11,16 L-13,16 L-13,5 L-10,6 L-9,9 L-7,10 L-8,6 L-7,4 L-1,6 L-1,1 Z " fill="#10001A" transform="translate(61,35)"/>
<path d="M0,0 L4,1 L7,5 L7,12 L1,11 L0,9 L-2,11 L-3,10 L-2,3 Z " fill="#1C0025" transform="translate(68,26)"/>
<path d="M0,0 L2,1 L1,6 L-3,11 L-5,11 L-4,6 L-7,9 L-8,11 L-12,11 L-11,6 L-8,7 L-8,4 L-6,4 L-5,2 Z " fill="#290030" transform="translate(60,24)"/>
<path d="M0,0 L5,0 L7,6 L7,12 L3,10 L-1,6 L-1,1 Z " fill="#28002F" transform="translate(38,33)"/>
<path d="M0,0 L5,1 L5,3 L7,3 L7,5 L10,4 L11,8 L5,6 L3,5 L-8,5 L-8,2 Z " fill="#480B3A" transform="translate(61,44)"/>
<path d="M0,0 L4,1 L3,3 L7,2 L5,6 L2,9 L4,9 L4,11 L0,10 L0,15 L-2,15 L-2,13 L-4,12 L-2,11 Z " fill="#0E0015" transform="translate(72,55)"/>
<path d="M0,0 L2,0 L2,2 L5,2 L5,4 L9,3 L6,10 L5,15 L3,15 L3,9 L4,3 L1,3 L-1,8 L-4,9 L-2,4 Z " fill="#0F0017" transform="translate(51,68)"/>
<path d="M0,0 L4,1 L4,12 L2,16 L-3,18 L-12,18 L-12,17 L0,15 L2,10 L2,4 Z " fill="#67194A" transform="translate(68,51)"/>
<path d="M0,0 L3,1 L2,5 L0,5 L-1,8 L-5,7 L-4,2 Z " fill="#1F0028" transform="translate(86,43)"/>
<path d="M0,0 L3,3 L3,7 L0,9 L-3,9 L-2,2 Z " fill="#200029" transform="translate(79,35)"/>
<path d="M0,0 L4,2 L6,5 L6,11 L3,14 L3,7 L0,2 Z " fill="#BA8173" transform="translate(65,50)"/>
<path d="M0,0 L2,1 L-1,9 L-6,8 L-7,6 L-3,6 L-1,1 Z " fill="#14001D" transform="translate(55,29)"/>
<path d="M0,0 L8,0 L10,2 L7,3 L-1,4 L-3,2 Z " fill="#A96E6A" transform="translate(56,48)"/>
<path d="M0,0 L2,3 L2,5 L0,6 L-1,11 L-4,14 L-2,2 Z " fill="#0C0014" transform="translate(68,68)"/>
<path d="M0,0 L12,1 L9,2 L8,5 L3,4 L3,2 L0,2 Z " fill="#2E002F" transform="translate(53,68)"/>
<path d="M0,0 L2,0 L1,7 L0,9 L-3,9 L-3,7 L-1,7 L-3,3 Z " fill="#1A0022" transform="translate(46,51)"/>
<path d="M0,0 L3,1 L0,6 L-1,10 L-3,10 L-3,4 Z " fill="#BB8673" transform="translate(52,51)"/>
<path d="M0,0 L3,2 L4,9 L2,8 L2,6 L0,6 Z " fill="#1C0024" transform="translate(46,60)"/>
<path d="M0,0 L4,0 L3,6 L0,5 Z " fill="#2A0031" transform="translate(70,32)"/>
<path d="M0,0 L2,1 L2,3 L-7,3 L-8,5 L-8,2 Z " fill="#350134" transform="translate(61,44)"/>
<path d="M0,0 L4,1 L4,5 L0,5 Z " fill="#2D012E" transform="translate(72,55)"/>
<path d="M0,0 L1,4 L0,10 L-2,10 L-2,8 L-4,7 L-2,6 Z " fill="#190021" transform="translate(72,60)"/>
<path d="M0,0 L3,0 L3,4 L-2,4 Z " fill="#23002B" transform="translate(34,45)"/>
<path d="M0,0 L2,1 L2,6 L-1,6 L-1,1 Z " fill="#1F0029" transform="translate(38,33)"/>
<path d="M0,0 L6,0 L3,1 L2,4 Z " fill="#3F0338" transform="translate(59,69)"/>
<path d="M0,0 L1,4 L-4,4 Z " fill="#9E7466" transform="translate(67,62)"/>
<path d="M0,0 L2,0 L1,4 L-1,4 Z " fill="#501041" transform="translate(69,63)"/>
<path d="M0,0 L2,1 L1,5 L-1,1 Z " fill="#10001A" transform="translate(48,64)"/>
<path d="M0,0 L4,2 L1,3 L-1,1 Z " fill="#956362" transform="translate(54,49)"/>
</svg>
