<?xml version="1.0" encoding="UTF-8"?>
<!-- Generator: visioncortex VTracer 0.6.5 -->
<svg version="1.1" xmlns="http://www.w3.org/2000/svg" width="115" height="120">
<path d="M0,0 L115,0 L115,120 L0,120 Z " fill="#060809" transform="translate(0,0)"/>
<path d="M0,0 L115,0 L115,120 L109,120 L109,99 L113,99 L113,92 L110,92 L110,84 L106,84 L106,70 L94,70 L93,65 L93,58 L90,58 L90,54 L87,54 L86,45 L84,45 L84,43 L82,43 L82,40 L79,40 L79,35 L77,35 L77,32 L81,32 L81,26 L77,26 L77,17 L75,17 L75,12 L71,11 L71,9 L67,9 L67,7 L39,7 L39,9 L34,9 L34,12 L31,12 L31,15 L28,15 L28,20 L26,20 L26,35 L24,35 L24,40 L22,40 L22,43 L20,43 L20,46 L18,46 L18,49 L15,49 L15,53 L13,53 L13,59 L10,68 L7,68 L7,74 L4,74 L4,91 L2,91 L2,98 L6,98 L6,120 L0,120 Z " fill="#745308" transform="translate(0,0)"/>
<path d="M0,0 L28,0 L28,2 L32,2 L32,4 L36,5 L36,10 L38,10 L38,19 L42,19 L42,25 L38,25 L38,28 L40,29 L38,29 L38,49 L36,49 L36,53 L34,53 L34,56 L31,56 L31,58 L29,58 L29,60 L27,60 L27,63 L23,63 L23,65 L20,65 L20,67 L13,67 L13,65 L9,65 L9,63 L5,63 L5,60 L0,60 L0,58 L-2,58 L-2,56 L-4,56 L-4,53 L-6,53 L-6,49 L-9,49 L-9,44 L-11,44 L-12,29 L-14,29 L-15,33 L-15,28 L-13,28 L-13,13 L-11,13 L-11,8 L-8,8 L-8,5 L-5,5 L-5,2 L0,2 Z " fill="#070909" transform="translate(39,7)"/>
<path d="M0,0 L7,0 L7,3 L11,3 L11,1 L22,1 L22,3 L25,3 L25,0 L34,0 L34,5 L38,5 L38,21 L36,21 L36,25 L34,25 L34,28 L31,28 L31,30 L29,30 L29,32 L27,32 L27,35 L23,35 L23,37 L20,37 L20,39 L13,39 L13,37 L9,37 L9,35 L5,35 L5,32 L0,32 L0,30 L-2,30 L-2,28 L-4,28 L-4,25 L-6,25 L-6,21 L-9,21 L-10,16 L-10,1 L-6,1 L-6,3 L-2,3 L-2,5 L0,5 Z " fill="#771633" transform="translate(39,35)"/>
<path d="M0,0 L48,0 L48,11 L0,11 Z " fill="#08090A" transform="translate(33,101)"/>
<path d="M0,0 L4,0 L4,2 L8,2 L8,4 L6,4 L6,6 L4,6 L4,15 L6,15 L6,20 L8,20 L8,22 L10,22 L10,24 L13,24 L13,27 L16,27 L16,29 L34,29 L34,26 L37,26 L37,24 L39,24 L39,22 L41,22 L41,20 L44,20 L44,16 L48,15 L48,20 L46,20 L46,24 L44,24 L44,27 L41,27 L41,29 L39,29 L39,31 L37,31 L37,34 L33,34 L33,36 L30,36 L30,38 L23,38 L23,36 L19,36 L19,34 L15,34 L15,31 L10,31 L10,29 L8,29 L8,27 L6,27 L6,24 L4,24 L4,20 L1,20 L0,15 Z " fill="#511A1F" transform="translate(29,36)"/>
<path d="M0,0 L19,0 L19,21 L0,21 Z " fill="#1C0D0B" transform="translate(88,99)"/>
<path d="M0,0 L18,0 L18,21 L0,21 Z " fill="#1A0A08" transform="translate(8,99)"/>
<path d="M0,0 L7,0 L7,3 L11,3 L11,1 L22,1 L22,3 L25,3 L25,0 L34,0 L34,7 L31,12 L25,12 L25,15 L9,15 L9,12 L20,12 L20,8 L14,10 L2,10 L2,8 L0,8 Z " fill="#271912" transform="translate(39,35)"/>
<path d="M0,0 L107,0 L107,3 L0,3 Z " fill="#240E0A" transform="translate(4,94)"/>
<path d="M0,0 L4,0 L4,8 L7,8 L7,15 L6,15 L6,9 L-27,8 L-27,1 Z " fill="#1E0E0B" transform="translate(106,84)"/>
<path d="M0,0 L5,0 L5,2 L11,2 L11,0 L16,0 L16,2 L18,2 L18,0 L22,0 L22,2 L24,2 L24,9 L22,9 L22,11 L18,11 L18,9 L15,9 L15,11 L11,11 L11,9 L5,9 L5,11 L0,11 Z " fill="#201A0C" transform="translate(39,13)"/>
<path d="M0,0 L2,0 L2,5 L0,5 L0,9 L-2,9 L-2,12 L-5,12 L-5,14 L-7,14 L-7,16 L-9,16 L-9,19 L-13,19 L-13,21 L-16,21 L-16,23 L-23,23 L-23,21 L-27,21 L-27,19 L-31,19 L-31,16 L-27,16 L-27,18 L-23,18 L-23,16 L-12,16 L-12,11 L-9,11 L-9,9 L-7,9 L-7,7 L-5,7 L-5,5 L-2,5 L-2,1 Z " fill="#502A15" transform="translate(75,51)"/>
<path d="M0,0 L51,0 L50,3 L0,3 Z " fill="#1F0D0B" transform="translate(31,117)"/>
<path d="M0,0 L12,0 L12,14 L11,14 L11,1 L10,2 L10,11 L8,11 L7,5 L-12,5 L-12,13 L-15,13 L-15,2 L0,1 Z " fill="#0A1713" transform="translate(94,70)"/>
<path d="M0,0 L4,0 L4,2 L7,2 L7,0 L15,0 L15,4 L13,4 L13,6 L2,6 L2,4 L0,4 Z " fill="#887029" transform="translate(57,36)"/>
<path d="M0,0 L11,0 L11,2 L5,2 L5,5 L-11,5 L-11,2 L0,2 Z " fill="#370C1B" transform="translate(59,45)"/>
<path d="M0,0 L6,0 L6,2 L10,2 L10,0 L14,0 L14,4 L12,4 L12,6 L2,6 L2,4 L0,4 Z " fill="#887029" transform="translate(40,36)"/>
<path d="M0,0 L3,0 L3,19 L0,19 Z " fill="#26100B" transform="translate(88,101)"/>
<path d="M0,0 L4,0 L4,2 L8,2 L8,0 L15,0 L15,4 L11,3 L11,5 L4,5 L4,3 L0,3 Z " fill="#583315" transform="translate(44,67)"/>
<path d="M0,0 L6,0 L6,4 L-12,4 L-12,2 L0,2 Z " fill="#5B112A" transform="translate(53,43)"/>
<path d="M0,0 L16,0 L16,2 L5,2 L5,4 L1,4 L1,2 L-3,1 Z " fill="#4C1023" transform="translate(47,65)"/>
<path d="M0,0 L3,0 L3,2 L7,3 L3,3 L3,5 L0,5 L0,7 L-7,7 L-7,5 L-4,5 L-4,3 L0,4 Z " fill="#3D250E" transform="translate(59,67)"/>
<path d="M0,0 L5,0 L5,2 L2,2 L2,5 L4,5 L4,7 L2,7 L2,9 L5,9 L5,11 L0,11 Z " fill="#38270D" transform="translate(39,13)"/>
<path d="M0,0 L8,1 L8,4 L4,4 L4,2 L0,2 L0,17 L-1,17 L-1,1 Z " fill="#280D16" transform="translate(29,34)"/>
<path d="M0,0 L2,0 L2,2 L5,2 L5,5 L0,5 L0,9 L-2,9 L-2,2 L0,2 Z " fill="#31240E" transform="translate(68,13)"/>
<path d="M0,0 L4,0 L4,11 L0,11 L0,9 L2,9 L2,2 L0,2 Z " fill="#3B290D" transform="translate(50,13)"/>
<path d="M0,0 L2,0 L2,5 L0,5 L0,9 L-2,9 L-3,5 L-2,1 Z " fill="#5D2C1C" transform="translate(75,51)"/>
<path d="M0,0 L4,0 L4,9 L2,9 L2,5 L0,5 Z " fill="#622B1F" transform="translate(31,51)"/>
<path d="M0,0 L5,0 L5,3 L3,3 L3,5 L5,5 L5,7 L0,7 L0,5 L2,5 L2,3 L0,3 Z " fill="#251C0B" transform="translate(41,15)"/>
<path d="M0,0 L4,0 L4,11 L3,11 L3,3 L-3,5 Z " fill="#5F122B" transform="translate(73,40)"/>
<path d="M0,0 L2,0 L2,4 L0,4 L0,6 L-4,7 L-4,4 L-2,4 L-2,2 L0,2 Z " fill="#4C0E24" transform="translate(70,56)"/>
<path d="M0,0 L7,0 L7,1 L1,1 L1,5 L3,5 L3,10 L2,8 L0,8 Z " fill="#392717" transform="translate(39,35)"/>
<path d="M0,0 L6,0 L6,4 L0,3 Z " fill="#693D18" transform="translate(53,67)"/>
<path d="M0,0 L3,0 L3,4 L5,4 L5,6 L-1,6 Z " fill="#211611" transform="translate(54,36)"/>
<path d="M0,0 L3,1 L1,1 L1,3 L3,3 L3,7 L-1,7 Z " fill="#5E2D1C" transform="translate(63,62)"/>
<path d="M0,0 L2,0 L2,2 L4,2 L5,7 L2,6 L2,4 L0,4 Z " fill="#420E1F" transform="translate(35,56)"/>
<path d="M0,0 L4,0 L4,2 L2,2 L1,9 L0,9 Z " fill="#3F0C1F" transform="translate(29,36)"/>
<path d="M0,0 L3,0 L3,2 L7,3 L3,3 L3,5 L1,4 Z " fill="#2F180F" transform="translate(59,67)"/>
<path d="M0,0 L4,0 L4,4 L2,4 L2,2 L0,2 Z " fill="#461C19" transform="translate(64,63)"/>
<path d="M0,0 L2,0 L2,4 L-2,4 L-2,2 L0,2 Z " fill="#483210" transform="translate(70,20)"/>
<path d="M0,0 L3,0 L3,4 L1,4 Z " fill="#663D1A" transform="translate(72,56)"/>
<path d="M0,0 L3,0 L1,4 Z " fill="#2F1517" transform="translate(70,40)"/>
<path d="M0,0 L3,0 L3,3 L0,3 Z " fill="#2A1F0C" transform="translate(70,15)"/>
</svg>
