<?xml version="1.0" encoding="UTF-8"?>
<!-- Generator: visioncortex VTracer 0.6.5 -->
<svg version="1.1" xmlns="http://www.w3.org/2000/svg" width="120" height="120">
<path d="M0,0 L120,0 L120,120 L0,120 Z " fill="#0A0708" transform="translate(0,0)"/>
<path d="M0,0 L3,0 L3,2 L5,2 L5,5 L8,5 L8,10 L10,10 L10,15 L13,15 L13,17 L16,18 L16,27 L19,28 L19,32 L21,32 L21,43 L-28,43 L-29,35 L-27,35 L-26,30 L-22,30 L-21,33 L-17,32 L-17,28 L-19,28 L-19,25 L-24,25 L-29,22 L-29,13 L-26,13 L-26,10 L-24,10 L-24,7 L-19,7 L-19,5 L-7,5 L-7,10 L-4,10 L-3,3 L0,2 Z " fill="#151818" transform="translate(42,77)"/>
<path d="M0,0 L12,0 L12,5 L14,5 L14,10 L17,10 L17,12 L19,12 L19,23 L21,23 L21,25 L24,25 L24,27 L27,27 L27,30 L29,30 L29,32 L22,32 L22,30 L19,30 L19,28 L17,28 L17,22 L14,22 L14,20 L12,20 L12,22 L10,22 L10,32 L7,32 L7,30 L5,30 L5,28 L3,28 L3,32 L5,32 L5,38 L-9,38 L-10,30 L-8,30 L-7,25 L-3,25 L-2,28 L2,27 L2,23 L0,23 L0,20 L-5,20 L-10,17 L-10,8 L-7,8 L-7,5 L-5,5 L-5,2 L0,2 Z " fill="#171918" transform="translate(23,82)"/>
<path d="M0,0 L2,0 L2,2 L5,2 L5,7 L7,5 L7,2 L13,2 L13,4 L17,5 L17,7 L20,7 L20,15 L22,15 L22,22 L20,22 L20,19 L18,19 L17,12 L15,12 L15,27 L17,27 L17,35 L15,35 L15,37 L10,37 L10,29 L8,29 L7,39 L5,39 L5,27 L2,27 L2,7 L0,7 Z " fill="#1B2220" transform="translate(75,80)"/>
<path d="M0,0 L3,1 L4,4 L5,2 L9,2 L9,9 L12,9 L12,12 L10,12 L9,16 L12,16 L12,14 L17,12 L17,16 L15,16 L15,21 L10,21 L10,19 L0,19 L0,21 L-3,21 L-3,24 L2,24 L2,26 L7,26 L7,29 L-3,29 L-3,26 L-5,26 L-5,24 L-8,24 L-8,19 L-10,19 L-10,12 L-8,12 L-8,9 L2,9 L2,7 L-8,7 L-8,3 L-3,3 L-3,1 Z " fill="#1D2320" transform="translate(68,43)"/>
<path d="M0,0 L13,0 L13,2 L23,2 L23,0 L25,0 L25,10 L23,10 L23,12 L20,12 L20,14 L17,14 L17,12 L15,12 L15,15 L12,15 L12,12 L5,12 L5,10 L3,10 L3,7 L-5,7 L-5,2 L0,2 Z " fill="#3C4A3C" transform="translate(60,25)"/>
<path d="M0,0 L3,0 L3,2 L5,2 L5,5 L8,5 L8,10 L10,10 L10,15 L13,15 L13,17 L16,18 L16,27 L18,27 L18,37 L15,37 L15,35 L13,35 L13,32 L11,32 L11,27 L8,27 L8,25 L5,25 L5,22 L3,22 L3,20 L5,20 L5,17 L8,17 L8,12 L0,12 L0,10 L-2,10 L-2,2 L0,2 Z " fill="#3C493B" transform="translate(42,77)"/>
<path d="M0,0 L5,0 L5,2 L7,2 L7,5 L16,4 L16,10 L18,10 L18,15 L16,15 L16,24 L13,24 L13,22 L10,22 L10,14 L7,17 L3,17 L1,13 L-2,12 L-2,2 L0,2 Z " fill="#161919" transform="translate(37,40)"/>
<path d="M0,0 L1,0 L1,7 L3,7 L3,9 L11,9 L11,14 L8,14 L8,17 L6,17 L6,19 L8,19 L8,22 L11,22 L11,24 L14,24 L14,29 L16,30 L14,30 L14,39 L3,39 L3,37 L1,37 L1,30 L3,30 L3,32 L6,32 L6,34 L13,34 L13,32 L11,32 L11,29 L8,29 L8,27 L5,27 L5,25 L3,25 L3,14 L1,14 L1,12 L-2,12 L-2,7 L-1,7 Z " fill="#111312" transform="translate(39,80)"/>
<path d="M0,0 L8,0 L8,5 L13,5 L13,8 L17,8 L17,10 L8,10 L8,12 L5,12 L5,15 L10,15 L10,17 L15,17 L15,20 L5,20 L5,17 L3,17 L3,15 L0,15 L0,10 L-2,10 L-2,3 L0,3 Z " fill="#3C493C" transform="translate(60,52)"/>
<path d="M0,0 L10,0 L10,5 L12,5 L12,10 L15,10 L15,12 L17,12 L17,23 L19,23 L19,25 L22,25 L22,27 L25,27 L25,30 L27,30 L27,32 L20,32 L20,30 L17,30 L17,28 L15,28 L15,22 L12,22 L12,15 L10,15 L10,10 L8,10 L8,7 L6,7 L6,5 L3,5 L3,2 L0,2 Z " fill="#3B483B" transform="translate(25,82)"/>
<path d="M0,0 L7,0 L8,5 L10,5 L10,10 L12,10 L12,15 L10,15 L10,17 L8,17 L8,19 L6,19 L6,17 L3,17 L3,15 L0,15 L0,13 L-2,13 L-2,2 L0,2 Z " fill="#364136" transform="translate(20,87)"/>
<path d="M0,0 L4,1 L4,3 L7,3 L7,13 L9,13 L9,8 L12,8 L12,13 L14,13 L14,21 L12,21 L12,23 L7,23 L7,15 L5,15 L4,25 L2,25 L2,8 L0,8 Z " fill="#222A26" transform="translate(78,94)"/>
<path d="M0,0 L2,0 L2,3 L0,3 L0,10 L2,10 L2,15 L5,15 L5,17 L7,17 L7,20 L17,20 L17,17 L12,17 L12,15 L7,15 L7,12 L19,13 L19,15 L22,15 L22,20 L19,20 L19,22 L5,22 L5,20 L2,20 L2,17 L-3,17 L-3,5 L-1,5 Z " fill="#202825" transform="translate(58,52)"/>
<path d="M0,0 L12,0 L12,3 L2,3 L2,5 L-3,5 L-3,10 L5,10 L5,13 L-3,13 L-3,15 L-5,15 L-6,18 L-8,18 L-8,10 L-5,10 L-5,3 L0,3 Z " fill="#1F2825" transform="translate(58,22)"/>
<path d="M0,0 L3,0 L3,5 L5,6 L3,6 L3,15 L-8,15 L-8,13 L-10,13 L-10,6 L-8,6 L-8,8 L-5,8 L-5,10 L2,10 L2,8 L0,8 L0,5 L-3,5 L-3,3 L0,3 Z " fill="#202825" transform="translate(50,104)"/>
<path d="M0,0 L2,0 L2,10 L0,10 L0,17 L5,17 L5,18 L-7,18 L-7,12 L-9,12 L-9,8 L-7,8 L-7,10 L-5,10 L-5,12 L-2,12 L-2,2 L0,2 Z " fill="#070405" transform="translate(35,102)"/>
<path d="M0,0 L5,0 L5,2 L7,2 L7,5 L16,4 L16,10 L18,10 L18,14 L15,14 L15,12 L13,12 L11,10 L10,12 L8,12 L8,7 L5,7 L5,5 L3,5 L3,2 L0,2 Z " fill="#1D2422" transform="translate(37,40)"/>
<path d="M0,0 L3,1 L3,10 L5,10 L5,15 L-2,15 L-2,2 Z " fill="#131516" transform="translate(97,104)"/>
<path d="M0,0 L2,0 L3,7 L5,7 L5,12 L3,12 L3,24 L2,27 L-1,28 L-5,27 L-5,25 L0,25 L0,23 L2,23 L2,15 L0,15 Z " fill="#131616" transform="translate(90,92)"/>
<path d="M0,0 L4,1 L4,3 L7,3 L7,13 L4,13 L4,18 L2,18 L2,8 L0,8 Z " fill="#3B473A" transform="translate(78,94)"/>
<path d="M0,0 L2,0 L2,2 L5,2 L5,7 L7,7 L7,10 L5,10 L5,14 L3,14 L3,22 L5,22 L5,27 L2,27 L2,7 L0,7 Z " fill="#212924" transform="translate(75,80)"/>
<path d="M0,0 L2,0 L2,3 L4,3 L5,15 L4,20 L2,20 L2,10 L-1,10 L-1,8 L-3,8 L-3,3 Z " fill="#101110" transform="translate(83,87)"/>
<path d="M0,0 L2,0 L2,5 L4,5 L4,10 L2,10 L2,12 L0,12 L0,14 L-2,14 L-2,12 L-5,12 L-5,10 L-7,10 L-5,6 L-1,5 Z " fill="#3A463A" transform="translate(28,92)"/>
<path d="M0,0 L2,0 L3,5 L6,3 L7,6 L10,6 L10,8 L12,8 L12,13 L7,13 L6,8 L-1,8 L-1,1 Z " fill="#0F0B0C" transform="translate(53,74)"/>
<path d="M0,0 L4,0 L4,7 L7,7 L7,9 L-1,9 L-2,5 L0,5 Z " fill="#222C28" transform="translate(73,45)"/>
<path d="M0,0 L1,2 L3,2 L3,5 L5,5 L5,10 L3,10 L3,15 L2,15 L2,10 L0,10 L0,5 L-2,5 L-2,2 L0,2 Z " fill="#222A26" transform="translate(30,87)"/>
<path d="M0,0 L4,0 L4,10 L2,10 L2,5 L-5,5 L-5,2 L0,2 Z " fill="#1A201F" transform="translate(33,77)"/>
<path d="M0,0 L1,4 L3,4 L3,15 L0,15 L0,12 L-2,12 L-2,9 L0,9 Z " fill="#1D2421" transform="translate(60,105)"/>
<path d="M0,0 L7,0 L7,5 L5,7 L2,7 L2,5 L0,5 Z " fill="#1F2723" transform="translate(21,92)"/>
<path d="M0,0 L4,0 L4,5 L2,5 L2,7 L0,7 L0,17 L-1,17 L-2,5 L0,5 Z " fill="#101111" transform="translate(33,97)"/>
<path d="M0,0 L2,0 L2,2 L5,2 L5,7 L7,7 L7,9 L2,9 L2,7 L0,7 Z " fill="#1E2624" transform="translate(75,80)"/>
<path d="M0,0 L3,0 L3,3 L5,3 L5,5 L8,5 L8,10 L3,10 L1,3 Z " fill="#090607" transform="translate(37,42)"/>
<path d="M0,0 L2,0 L2,2 L4,2 L5,7 L7,7 L7,10 L2,10 L2,5 L0,5 Z " fill="#0D0D0D" transform="translate(53,110)"/>
<path d="M0,0 L2,0 L2,5 L4,5 L4,12 L0,12 Z " fill="#3D4A3C" transform="translate(88,102)"/>
<path d="M0,0 L3,0 L3,12 L2,15 L-1,16 L-5,15 L-5,13 L0,13 L0,11 L2,11 L2,3 L0,3 Z " fill="#121515" transform="translate(90,104)"/>
<path d="M0,0 L4,0 L3,10 L5,10 L5,13 L7,13 L7,15 L4,15 L4,13 L2,13 L2,2 L0,2 Z " fill="#1E2522" transform="translate(40,92)"/>
<path d="M0,0 L3,0 L3,5 L5,6 L3,6 L3,8 L0,8 L0,5 L-3,5 L-3,3 L0,3 Z " fill="#171C1A" transform="translate(50,104)"/>
<path d="M0,0 L1,0 L1,7 L3,7 L3,9 L11,9 L11,10 L-2,12 L-2,7 L-1,7 Z " fill="#141614" transform="translate(39,80)"/>
<path d="M0,0 L8,0 L8,4 L0,4 Z " fill="#732322" transform="translate(60,46)"/>
<path d="M0,0 L2,1 L1,3 L3,2 L13,2 L13,3 L5,3 L5,5 L3,5 L2,8 L0,8 Z " fill="#171B1A" transform="translate(50,32)"/>
<path d="M0,0 L2,0 L2,11 L-1,11 L-1,2 Z " fill="#212723" transform="translate(16,107)"/>
<path d="M0,0 L3,0 L3,2 L5,2 L5,7 L0,7 Z " fill="#141617" transform="translate(60,80)"/>
<path d="M0,0 L3,0 L3,2 L13,2 L13,0 L15,0 L15,5 L12,5 L12,3 L0,3 Z " fill="#27302A" transform="translate(70,25)"/>
<path d="M0,0 L12,1 L12,3 L0,3 Z " fill="#181C1B" transform="translate(65,64)"/>
<path d="M0,0 L3,1 L5,4 L5,7 L0,7 L0,3 L-3,3 L-3,1 Z " fill="#1C1716" transform="translate(68,43)"/>
<path d="M0,0 L2,4 L10,4 L10,5 L1,5 L1,7 L-2,7 L-2,2 L0,2 Z " fill="#1F2724" transform="translate(70,50)"/>
<path d="M0,0 L3,0 L3,2 L0,2 L0,6 L-5,5 L-5,1 Z " fill="#26211E" transform="translate(60,44)"/>
<path d="M0,0 L9,0 L9,4 L6,4 L6,2 L-3,2 Z " fill="#070405" transform="translate(41,90)"/>
<path d="M0,0 L3,0 L3,6 L-2,6 L-2,2 L0,2 Z " fill="#67201E" transform="translate(82,44)"/>
<path d="M0,0 L2,0 L2,5 L0,5 L0,7 L-3,7 L-3,3 Z " fill="#080606" transform="translate(83,87)"/>
<path d="M0,0 L3,0 L3,5 L0,5 L0,7 L-2,7 L-2,3 L0,3 Z " fill="#1C2220" transform="translate(42,72)"/>
<path d="M0,0 L4,0 L4,5 L2,5 L2,10 L1,10 Z " fill="#1C2321" transform="translate(31,92)"/>
<path d="M0,0 L7,0 L6,4 L2,4 L2,2 L0,2 Z " fill="#141717" transform="translate(71,55)"/>
<path d="M0,0 L1,0 L2,9 L-1,9 L-1,1 Z " fill="#080606" transform="translate(91,95)"/>
<path d="M0,0 L3,1 L4,6 L0,6 Z " fill="#242C26" transform="translate(23,114)"/>
<path d="M0,0 L2,0 L2,5 L5,5 L5,7 L0,7 Z " fill="#3B493C" transform="translate(75,47)"/>
<path d="M0,0 L3,0 L3,3 L5,3 L5,5 L0,5 Z " fill="#374438" transform="translate(77,84)"/>
<path d="M0,0 L3,0 L3,3 L5,3 L5,5 L2,5 L2,3 L-2,3 L-2,1 Z " fill="#0F100F" transform="translate(25,84)"/>
<path d="M0,0 L3,1 L3,10 L5,11 L2,11 L2,3 L0,3 Z " fill="#2B322A" transform="translate(55,94)"/>
<path d="M0,0 L3,0 L2,7 L0,7 Z " fill="#161A1A" transform="translate(80,112)"/>
<path d="M0,0 L5,0 L5,5 L3,5 L0,2 Z " fill="#0C0B0A" transform="translate(23,92)"/>
<path d="M0,0 L1,2 L4,0 L8,0 L8,2 L6,3 L0,3 Z " fill="#131515" transform="translate(44,42)"/>
<path d="M0,0 L2,0 L2,2 L5,3 L2,3 L2,5 L-2,5 L-2,3 L0,3 Z " fill="#1E2522" transform="translate(75,37)"/>
<path d="M0,0 L3,0 L3,10 L2,10 L2,3 L0,3 Z " fill="#1A201E" transform="translate(90,104)"/>
<path d="M0,0 L2,0 L2,4 L0,4 L0,9 L-1,9 L-1,1 Z " fill="#141817" transform="translate(83,55)"/>
<path d="M0,0 L3,1 L2,6 L0,5 Z " fill="#1B2220" transform="translate(97,109)"/>
<path d="M0,0 L3,0 L3,5 L0,5 Z " fill="#181D1C" transform="translate(77,102)"/>
<path d="M0,0 L3,0 L3,3 L5,3 L5,5 L2,5 L2,3 L0,3 Z " fill="#252E29" transform="translate(42,102)"/>
<path d="M0,0 L3,0 L3,5 L1,5 Z " fill="#161919" transform="translate(34,97)"/>
<path d="M0,0 L2,0 L2,2 L4,3 L2,3 L2,5 L0,5 Z " fill="#171B1A" transform="translate(21,92)"/>
<path d="M0,0 L2,0 L2,2 L4,3 L2,3 L2,5 L0,5 Z " fill="#131616" transform="translate(73,77)"/>
<path d="M0,0 L3,0 L2,5 L0,5 Z " fill="#250D0D" transform="translate(55,52)"/>
<path d="M0,0 L3,0 L3,5 L2,3 L0,3 Z " fill="#232B27" transform="translate(50,104)"/>
<path d="M0,0 L4,1 L2,4 L0,4 Z " fill="#1A201E" transform="translate(40,53)"/>
<path d="M0,0 L1,2 L3,2 L3,5 L0,5 Z " fill="#202723" transform="translate(77,47)"/>
<path d="M0,0 L3,0 L3,3 L0,4 Z " fill="#121312" transform="translate(20,102)"/>
<path d="M0,0 L3,0 L3,3 L0,3 Z " fill="#26322D" transform="translate(47,94)"/>
<path d="M0,0 L3,0 L3,3 L0,3 Z " fill="#1F090A" transform="translate(55,82)"/>
<path d="M0,0 L3,1 L3,3 L0,3 Z " fill="#1C221F" transform="translate(55,94)"/>
<path d="M0,0 L2,0 L2,3 L-1,3 Z " fill="#171A1A" transform="translate(53,74)"/>
<path d="M0,0 L2,0 L2,3 L-1,3 Z " fill="#1D0808" transform="translate(43,64)"/>
</svg>
