<?xml version="1.0" encoding="UTF-8"?>
<!-- Generator: visioncortex VTracer 0.6.5 -->
<svg version="1.1" xmlns="http://www.w3.org/2000/svg" width="3840" height="3840">
<path d="M0,0 L1075,0 L1075,499 L1229,499 L1229,1651 L1344,1651 L1344,1767 L1421,1767 L1421,2151 L1344,2151 L1344,2304 L1305,2304 L1305,2266 L1075,2266 L1075,2573 L1190,2573 L1190,2842 L576,2842 L576,2496 L537,2496 L537,2535 L499,2535 L499,2496 L384,2496 L384,2650 L345,2650 L345,2611 L269,2611 L269,2727 L384,2727 L384,2842 L-154,2842 L-154,2919 L-192,2919 L-192,2381 L-307,2381 L-307,2343 L-346,2343 L-346,2266 L-423,2266 L-423,2227 L-461,2227 L-461,1651 L-346,1651 L-346,1421 L-231,1421 L-231,1383 L-192,1383 L-192,1191 L-115,1191 L-115,1152 L-77,1152 L-77,1114 L-115,1114 L-115,845 L-77,845 L-77,730 L-115,730 L-115,768 L-192,768 L-192,499 L0,499 L0,269 L-730,269 L-730,231 L0,231 Z M1152,768 L1152,1306 L1190,1306 L1190,768 Z " fill="#000017" transform="translate(1433,589)"/>
<path d="M0,0 L115,0 L115,116 L269,116 L269,231 L38,231 L38,461 L269,461 L269,576 L38,576 L38,538 L0,538 L0,461 L-77,461 L-77,231 L0,231 Z " fill="#1C173F" transform="translate(2124,1664)"/>
<path d="M0,0 L652,0 L652,38 L614,38 L614,115 L652,115 L652,153 L0,153 Z " fill="#2D001E" transform="translate(1702,935)"/>
<path d="M0,0 L345,0 L345,230 L0,230 Z " fill="#F81BD0" transform="translate(1702,1434)"/>
<path d="M0,0 L76,0 L76,231 L192,231 L192,307 L230,307 L230,384 L384,384 L384,538 L192,538 L192,384 L76,384 L76,269 L-39,269 L-39,154 L0,154 Z " fill="#1C001B" transform="translate(1510,1741)"/>
<path d="M0,0 L192,0 L192,230 L0,230 Z " fill="#E700C3" transform="translate(2278,1434)"/>
<path d="M0,0 L39,0 L39,154 L500,154 L500,192 L39,192 L39,384 L0,384 L0,192 L-38,192 L-38,154 L0,154 Z " fill="#00001F" transform="translate(2623,666)"/>
<path d="M0,0 L77,0 L77,307 L-38,307 L-38,154 L0,154 Z " fill="#1E1B42" transform="translate(2431,1818)"/>
<path d="M0,0 L115,0 L115,230 L0,230 Z " fill="#8E0084" transform="translate(1702,1434)"/>
<path d="M0,0 L115,0 L115,230 L0,230 Z " fill="#AD009B" transform="translate(1932,1434)"/>
<path d="M0,0 L39,0 L39,230 L-153,230 L-153,154 L0,154 Z " fill="#DA00B7" transform="translate(2431,1434)"/>
<path d="M0,0 L115,0 L115,116 L0,116 Z " fill="#39004A" transform="translate(1817,1664)"/>
<path d="M0,0 L346,0 L346,38 L0,38 Z " fill="#000033" transform="translate(2777,820)"/>
<path d="M0,0 L77,0 L77,154 L0,154 Z " fill="#120D35" transform="translate(2431,1818)"/>
<path d="M0,0 L153,0 L153,77 L0,77 Z " fill="#DE00BB" transform="translate(2278,1434)"/>
<path d="M0,0 L38,0 L38,269 L0,269 Z " fill="#000000" transform="translate(1318,1434)"/>
<path d="M0,0 L39,0 L39,231 L0,231 Z " fill="#000017" transform="translate(2623,2893)"/>
<path d="M0,0 L39,0 L39,230 L0,230 Z " fill="#8B0082" transform="translate(2431,1434)"/>
<path d="M0,0 L39,0 L39,230 L0,230 Z " fill="#170026" transform="translate(2239,1434)"/>
<path d="M0,0 L77,0 L77,116 L0,116 Z " fill="#130F37" transform="translate(2162,1664)"/>
<path d="M0,0 L39,0 L39,153 L0,153 L0,115 L-38,115 L-38,38 L0,38 Z " fill="#110018" transform="translate(2354,935)"/>
<path d="M0,0 L115,0 L115,77 L0,77 Z " fill="#ED00C6" transform="translate(1817,1434)"/>
<path d="M0,0 L38,0 L38,230 L0,230 Z " fill="#660067" transform="translate(1702,1434)"/>
<path d="M0,0 L38,0 L38,230 L0,230 Z " fill="#FA10E1" transform="translate(2009,1434)"/>
<path d="M0,0 L154,0 L154,39 L0,39 Z " fill="#040024" transform="translate(2239,1741)"/>
<path d="M0,0 L39,0 L39,153 L0,153 Z " fill="#CB00B0" transform="translate(1970,1511)"/>
<path d="M0,0 L77,0 L77,77 L0,77 Z " fill="#430052" transform="translate(1817,1703)"/>
<path d="M0,0 L77,0 L77,77 L0,77 Z " fill="#82007C" transform="translate(1740,1434)"/>
<path d="M0,0 L77,0 L77,38 L39,38 L39,115 L0,115 Z " fill="#000016" transform="translate(2623,474)"/>
<path d="M0,0 L115,0 L115,77 L76,77 L76,38 L0,38 Z " fill="#000000" transform="translate(1702,3162)"/>
<path d="M0,0 L76,0 L76,77 L0,77 Z " fill="#F300CB" transform="translate(2278,1511)"/>
<path d="M0,0 L38,0 L38,153 L0,153 Z " fill="#000000" transform="translate(2585,3239)"/>
<path d="M0,0 L38,0 L38,153 L0,153 Z " fill="#3D0045" transform="translate(2470,1511)"/>
<path d="M0,0 L38,0 L38,153 L0,153 Z " fill="#B8009F" transform="translate(1932,1511)"/>
<path d="M0,0 L115,0 L115,39 L0,39 Z " fill="#24224A" transform="translate(2278,1856)"/>
<path d="M0,0 L116,0 L116,38 L0,38 Z " fill="#000000" transform="translate(2738,1511)"/>
<path d="M0,0 L115,0 L115,38 L0,38 Z " fill="#140F36" transform="translate(2047,1895)"/>
<path d="M0,0 L115,0 L115,38 L0,38 Z " fill="#F30ECB" transform="translate(1817,1626)"/>
<path d="M0,0 L115,0 L115,38 L0,38 Z " fill="#00002E" transform="translate(2777,820)"/>
<path d="M0,0 L77,0 L77,39 L0,39 Z " fill="#050025" transform="translate(2047,2125)"/>
<path d="M0,0 L39,0 L39,77 L0,77 Z " fill="#1C1840" transform="translate(2431,1818)"/>
<path d="M0,0 L39,0 L39,77 L0,77 Z " fill="#59005E" transform="translate(2431,1434)"/>
<path d="M0,0 L77,0 L77,39 L0,39 Z " fill="#000000" transform="translate(818,973)"/>
<path d="M0,0 L39,0 L39,76 L0,76 Z " fill="#110027" transform="translate(2239,1588)"/>
<path d="M0,0 L38,0 L38,77 L0,77 Z " fill="#000000" transform="translate(1241,3431)"/>
<path d="M0,0 L38,0 L38,77 L0,77 Z " fill="#000040" transform="translate(2585,3162)"/>
<path d="M0,0 L77,0 L77,38 L0,38 Z " fill="#080022" transform="translate(2047,2586)"/>
<path d="M0,0 L77,0 L77,38 L0,38 Z " fill="#0A002A" transform="translate(2393,1780)"/>
<path d="M0,0 L77,0 L77,38 L0,38 Z " fill="#000000" transform="translate(972,1511)"/>
<path d="M0,0 L38,0 L38,77 L0,77 Z " fill="#1D002F" transform="translate(2470,1434)"/>
<path d="M0,0 L38,0 L38,77 L0,77 Z " fill="#EC00C7" transform="translate(2278,1434)"/>
<path d="M0,0 L38,0 L38,77 L0,77 Z " fill="#F100D2" transform="translate(2009,1434)"/>
<path d="M0,0 L38,0 L38,77 L0,77 Z " fill="#A30091" transform="translate(1932,1434)"/>
<path d="M0,0 L77,0 L77,38 L0,38 Z " fill="#160019" transform="translate(1625,935)"/>
<path d="M0,0 L77,0 L77,38 L0,38 Z " fill="#240024" transform="translate(3046,820)"/>
<path d="M0,0 L77,0 L77,38 L0,38 Z " fill="#000000" transform="translate(703,820)"/>
<path d="M0,0 L77,0 L77,38 L0,38 Z " fill="#000000" transform="translate(2623,474)"/>
<path d="M0,0 L76,0 L76,38 L0,38 Z " fill="#F918CF" transform="translate(2278,1511)"/>
<path d="M0,0 L39,0 L39,39 L0,39 Z " fill="#000000" transform="translate(1855,3392)"/>
<path d="M0,0 L39,0 L39,39 L0,39 Z " fill="#000000" transform="translate(2623,3085)"/>
<path d="M0,0 L39,0 L39,39 L0,39 Z " fill="#000000" transform="translate(2930,2240)"/>
<path d="M0,0 L39,0 L39,39 L0,39 Z " fill="#000000" transform="translate(2815,2240)"/>
<path d="M0,0 L39,0 L39,39 L0,39 Z " fill="#4E0059" transform="translate(1855,1741)"/>
<path d="M0,0 L39,0 L39,39 L0,39 Z " fill="#000000" transform="translate(2623,781)"/>
<path d="M0,0 L38,0 L38,39 L0,40 Z " fill="#0B0026" transform="translate(2278,2432)"/>
<path d="M0,0 L38,0 L38,39 L0,39 Z " fill="#000040" transform="translate(2585,3392)"/>
<path d="M0,0 L38,0 L38,39 L0,39 Z " fill="#000000" transform="translate(1932,3085)"/>
<path d="M0,0 L39,0 L39,38 L0,38 Z " fill="#000000" transform="translate(2738,2855)"/>
<path d="M0,0 L39,0 L39,38 L0,38 Z " fill="#080021" transform="translate(1855,2740)"/>
<path d="M0,0 L38,0 L38,39 L0,39 Z " fill="#030028" transform="translate(1241,2624)"/>
<path d="M0,0 L38,0 L38,39 L0,39 Z " fill="#000000" transform="translate(1318,1741)"/>
<path d="M0,0 L38,0 L38,39 L0,39 Z " fill="#2E0041" transform="translate(1894,1664)"/>
<path d="M0,0 L39,0 L39,38 L0,38 Z " fill="#000040" transform="translate(3007,820)"/>
<path d="M0,0 L39,0 L39,38 L0,38 Z " fill="#000000" transform="translate(2738,820)"/>
<path d="M0,0 L39,0 L39,38 L0,38 Z " fill="#000000" transform="translate(2623,666)"/>
<path d="M0,0 L38,0 L38,38 L0,39 Z " fill="#070022" transform="translate(1702,2740)"/>
<path d="M0,0 L39,0 L38,38 L0,38 Z " fill="#070022" transform="translate(1932,1204)"/>
<path d="M0,0 L38,0 L38,38 L0,38 Z " fill="#0A0025" transform="translate(1318,2548)"/>
<path d="M0,0 L38,0 L38,38 L0,38 Z " fill="#0D022A" transform="translate(2124,2202)"/>
<path d="M0,0 L38,0 L38,38 L0,38 Z " fill="#080021" transform="translate(1356,2202)"/>
<path d="M0,0 L38,0 L38,38 L0,38 Z " fill="#19153B" transform="translate(2393,1972)"/>
<path d="M0,0 L38,0 L38,38 L0,38 Z " fill="#D200B3" transform="translate(2278,1626)"/>
<path d="M0,0 L38,0 L38,38 L0,38 Z " fill="#EB07C5" transform="translate(1894,1626)"/>
<path d="M0,0 L38,0 L38,38 L0,38 Z " fill="#5D005D" transform="translate(1702,1626)"/>
<path d="M0,0 L38,0 L38,38 L0,38 Z " fill="#FA21EA" transform="translate(2009,1588)"/>
<path d="M0,0 L38,0 L38,38 L0,38 Z " fill="#F311CB" transform="translate(1894,1588)"/>
<path d="M0,0 L38,0 L38,38 L0,38 Z " fill="#000000" transform="translate(2969,1511)"/>
<path d="M0,0 L38,0 L38,38 L0,38 Z " fill="#000000" transform="translate(1164,1511)"/>
<path d="M0,0 L38,0 L38,38 L0,38 Z " fill="#240024" transform="translate(2969,820)"/>
<path d="M0,0 L38,0 L38,38 L0,38 Z " fill="#240024" transform="translate(2892,820)"/>
<path d="M0,0 L38,0 L38,38 L0,38 Z " fill="#000055" transform="translate(2854,820)"/>
</svg>
