<?xml version="1.0" encoding="UTF-8"?>
<!-- Generator: visioncortex VTracer 0.6.5 -->
<svg version="1.1" xmlns="http://www.w3.org/2000/svg" width="100" height="100">
<path d="M0,0 L13,0 L13,3 L16,3 L16,5 L20,7 L20,14 L18,14 L18,19 L15,19 L15,21 L20,23 L23,26 L23,28 L27,29 L28,28 L34,28 L34,33 L28,38 L26,37 L26,40 L23,40 L23,43 L19,43 L19,40 L17,41 L18,42 L18,56 L16,56 L16,63 L22,60 L23,57 L25,57 L25,53 L23,53 L23,48 L28,47 L29,50 L32,51 L32,59 L30,63 L28,63 L27,67 L21,68 L21,70 L9,70 L8,75 L5,77 L2,77 L1,71 L-4,76 L-9,75 L-9,73 L-12,74 L-13,70 L-15,69 L-15,67 L-17,67 L-17,63 L-21,62 L-25,60 L-25,51 L-27,50 L-23,49 L-23,47 L-13,45 L-12,48 L-10,48 L-10,51 L-15,53 L-15,56 L-14,55 L-8,55 L-8,50 L-6,50 L-6,47 L-4,47 L-4,39 L-2,38 L-5,38 L-5,40 L-8,40 L-8,42 L-13,42 L-13,38 L-17,38 L-17,40 L-22,40 L-24,38 L-24,33 L-19,33 L-19,31 L-13,29 L-9,27 L-15,22 L-15,19 L-19,19 L-19,17 L-17,17 L-17,13 L-13,13 L-17,11 L-17,7 L-15,7 L-15,5 L-13,5 L-13,3 L-5,3 L-1,2 Z M-13,6 Z M-14,50 Z M26,65 Z " fill="#041A15" transform="translate(46,11)"/>
<path d="M0,0 L13,1 L12,4 L15,5 L15,7 L17,7 L17,9 L15,9 L15,14 L13,14 L13,17 L11,17 L11,20 L13,20 L14,22 L19,21 L19,23 L22,24 L21,27 L19,27 L19,24 L15,25 L14,29 L6,30 L6,28 L1,26 L1,24 L-2,24 L-3,29 L-6,32 L-10,32 L-10,34 L-15,34 L-15,38 L-20,38 L-22,36 L-22,31 L-17,31 L-17,29 L-11,27 L-7,25 L-13,20 L-13,17 L-17,17 L-17,15 L-15,15 L-15,11 L-11,11 L-15,9 L-15,5 L-13,5 L-13,3 L-11,3 L-11,1 L-3,1 Z M-11,4 Z " fill="#01221B" transform="translate(44,13)"/>
<path d="M0,0 L13,0 L13,3 L16,3 L16,5 L20,7 L20,14 L18,14 L18,19 L15,19 L15,21 L20,23 L23,26 L23,28 L27,29 L28,28 L34,28 L34,33 L28,38 L26,37 L26,40 L23,40 L23,43 L19,43 L19,40 L17,40 L14,46 L11,46 L11,38 L7,37 L6,38 L1,38 L0,46 L-2,46 L-2,48 L-4,48 L-4,39 L-2,38 L-5,38 L-5,40 L-8,40 L-8,42 L-13,42 L-13,38 L-17,38 L-17,36 L-12,36 L-12,34 L-6,33 L-4,26 L-1,26 L2,29 L4,30 L4,32 L12,30 L13,27 L17,26 L17,29 L19,28 L19,26 L17,25 L17,23 L13,24 L11,26 L11,22 L9,22 L9,19 L11,19 L11,16 L13,16 L13,11 L15,11 L15,9 L13,9 L13,7 L9,6 L10,4 L0,3 Z M10,46 Z M9,47 Z " fill="#041612" transform="translate(46,11)"/>
<path d="M0,0 L3,0 L3,2 L5,2 L5,4 L3,4 L3,9 L1,9 L1,12 L-1,12 L-1,15 L1,15 L2,17 L7,16 L7,18 L10,19 L9,22 L7,22 L7,19 L3,20 L2,24 L-6,25 L-6,23 L-11,21 L-11,19 L-14,19 L-15,24 L-18,27 L-22,27 L-22,29 L-27,29 L-27,31 L-32,31 L-32,28 L-27,26 L-21,26 L-19,21 L-16,20 L-15,15 L-5,14 L-5,7 L1,6 Z " fill="#003429" transform="translate(56,18)"/>
<path d="M0,0 L4,0 L2,6 L0,6 L0,13 L-10,14 L-11,19 L-15,23 L-16,25 L-27,27 L-27,30 L-22,30 L-22,32 L-27,32 L-29,30 L-29,25 L-24,25 L-24,23 L-18,21 L-14,19 L-20,14 L-20,11 L-24,11 L-24,9 L-22,9 L-22,5 L-18,6 L-20,6 L-20,9 L-18,9 L-18,11 L-11,11 L-11,9 L-5,4 L-1,3 Z " fill="#031511" transform="translate(51,19)"/>
<path d="M0,0 L2,1 L2,3 L4,3 L4,6 L-1,8 L-3,14 L4,15 L5,13 L9,14 L9,16 L6,16 L6,18 L0,21 L1,24 L-1,24 L-1,22 L-3,22 L-3,18 L-7,17 L-11,15 L-11,6 L-13,5 L-9,4 L-9,2 Z M0,5 Z " fill="#042921" transform="translate(32,56)"/>
<path d="M0,0 L5,2 L5,10 L3,15 L1,15 L-1,19 L-3,19 L-3,21 L-11,21 L-12,17 L-9,17 L-8,10 L-6,10 L-5,2 L0,2 Z " fill="#002D25" transform="translate(52,47)"/>
<path d="M0,0 L3,0 L6,5 L6,8 L4,8 L4,10 L7,10 L7,12 L5,12 L4,20 L2,20 L2,22 L0,22 L0,13 L2,12 L-1,12 L-1,14 L-4,14 L-4,16 L-9,16 L-9,12 L-13,12 L-13,10 L-8,10 L-8,8 L-2,7 Z " fill="#00110F" transform="translate(42,37)"/>
<path d="M0,0 L4,1 L6,3 L6,9 L4,11 L3,13 L1,13 L0,16 L-4,17 L-14,17 L-18,13 L-16,9 L-13,9 L-13,11 L-15,12 L-9,13 L-9,6 L-8,6 L-8,13 L-2,10 L-1,7 L1,7 L1,3 L-1,2 Z " fill="#033429" transform="translate(70,61)"/>
<path d="M0,0 L2,1 L2,3 L5,4 L5,12 L3,16 L1,16 L0,20 L-6,21 L-6,23 L-18,23 L-19,28 L-21,29 L-23,28 L-22,20 L-17,19 L-7,19 L-3,18 L-2,16 L0,16 L0,12 L3,12 L2,6 L0,6 L0,4 L-3,3 L-4,5 L-4,1 Z M-1,18 Z " fill="#082B21" transform="translate(73,58)"/>
<path d="M0,0 L3,0 L3,2 L5,2 L5,4 L3,4 L3,9 L1,9 L1,12 L-1,12 L-1,15 L1,15 L1,19 L-5,20 L-5,17 L-10,16 L-10,14 L-5,14 L-5,7 L1,6 Z " fill="#C79945" transform="translate(56,18)"/>
<path d="M0,0 L5,1 L7,3 L4,4 L4,14 L1,14 L0,8 L-4,12 L-5,12 L-4,2 Z " fill="#010C0A" transform="translate(47,74)"/>
<path d="M0,0 L9,0 L8,4 L9,10 L5,10 L6,6 L3,6 L2,8 L-3,7 Z " fill="#01352A" transform="translate(48,14)"/>
<path d="M0,0 L2,1 L1,6 L-2,9 L-6,9 L-6,11 L-11,11 L-11,13 L-16,13 L-16,10 L-11,8 L-5,8 L-3,3 L0,2 Z " fill="#002C24" transform="translate(40,36)"/>
<path d="M0,0 L2,1 L2,15 L-1,15 L-1,22 L-8,22 L-7,20 L-3,20 L-1,1 Z " fill="#00100E" transform="translate(62,52)"/>
<path d="M0,0 L3,0 L3,2 L5,2 L5,4 L3,4 L3,9 L1,9 L1,12 L-3,11 L-5,10 L-5,7 L1,6 Z " fill="#C89943" transform="translate(56,18)"/>
<path d="M0,0 L2,2 L-4,5 L-5,12 L-9,10 L-9,4 L-7,1 Z " fill="#065140" transform="translate(32,58)"/>
<path d="M0,0 L3,0 L3,2 L1,3 L7,4 L7,6 L12,7 L12,8 L2,8 L-2,4 Z " fill="#044436" transform="translate(54,70)"/>
<path d="M0,0 L2,0 L2,8 L0,13 L-2,13 L-3,15 L-5,15 L-2,4 L0,4 Z " fill="#024435" transform="translate(55,49)"/>
<path d="M0,0 L2,4 L0,4 L0,6 L-8,6 L-9,2 L-1,1 Z " fill="#01372C" transform="translate(49,62)"/>
<path d="M0,0 L2,0 L3,4 L0,10 L-3,9 L-2,1 Z " fill="#1A1F10" transform="translate(53,77)"/>
<path d="M0,0 L2,1 L2,3 L5,4 L5,12 L4,14 L2,14 L2,6 L0,6 L0,4 L-3,3 L-4,5 L-4,1 Z " fill="#03211B" transform="translate(73,58)"/>
<path d="M0,0 L4,0 L4,2 L7,3 L6,6 L4,6 L4,3 L0,4 L0,6 L-4,5 L-6,3 L-1,3 Z " fill="#0C4030" transform="translate(59,34)"/>
<path d="M0,0 L3,0 L3,3 L9,3 L11,6 L4,8 L2,7 L2,4 L0,3 Z " fill="#022C23" transform="translate(48,35)"/>
<path d="M0,0 L6,0 L6,5 L2,8 L-3,7 L1,5 L3,5 L3,2 L-1,3 Z " fill="#07100C" transform="translate(74,39)"/>
<path d="M0,0 L6,0 L5,3 L0,3 L0,5 L-5,5 L-5,2 Z " fill="#9C752F" transform="translate(29,44)"/>
<path d="M0,0 L4,3 L4,5 L2,5 L2,15 L0,15 L-1,9 L0,7 L-2,6 L0,5 Z " fill="#04211B" transform="translate(65,34)"/>
<path d="M0,0 L4,1 L6,3 L6,9 L3,9 L2,3 L-1,2 Z " fill="#034234" transform="translate(70,61)"/>
<path d="M0,0 L3,1 L4,8 L0,8 L1,4 L-2,3 L-2,1 Z " fill="#0F241A" transform="translate(53,16)"/>
<path d="M0,0 L3,2 L1,2 L3,7 L-3,5 L-3,1 Z " fill="#03110C" transform="translate(32,17)"/>
<path d="M0,0 L1,0 L1,8 L-1,8 L-2,11 L-3,7 L-2,3 L0,3 Z " fill="#01372C" transform="translate(60,54)"/>
<path d="M0,0 L2,0 L2,3 L-5,4 L-5,1 Z " fill="#A17A32" transform="translate(75,41)"/>
<path d="M0,0 L4,0 L2,5 L-3,5 L-3,3 L-1,3 Z " fill="#020D0B" transform="translate(51,19)"/>
<path d="M0,0 L9,0 L8,2 L1,4 Z " fill="#024234" transform="translate(48,14)"/>
<path d="M0,0 L2,0 L2,3 L5,4 L4,7 L0,5 Z " fill="#054B3B" transform="translate(46,35)"/>
<path d="M0,0 L2,2 L3,0 L5,0 L5,4 L2,4 L1,6 Z " fill="#002A22" transform="translate(56,62)"/>
<path d="M0,0 L3,1 L1,1 L1,3 L-2,5 L-5,5 L-4,2 L0,2 Z " fill="#243A23" transform="translate(50,24)"/>
<path d="M0,0 L2,0 L2,2 L4,2 L4,6 L2,6 L0,3 Z " fill="#866322" transform="translate(53,31)"/>
<path d="M0,0 L4,2 L2,3 L1,6 Z " fill="#A87D31" transform="translate(51,28)"/>
<path d="M0,0 L2,1 L2,3 L-4,4 Z " fill="#000B0A" transform="translate(31,41)"/>
<path d="M0,0 L5,0 L4,3 L0,2 Z " fill="#876628" transform="translate(46,32)"/>
<path d="M0,0 L3,1 L1,4 L-2,3 L0,2 Z " fill="#003228" transform="translate(45,72)"/>
<path d="M0,0 L3,0 L3,3 L-1,3 Z " fill="#6B5627" transform="translate(54,21)"/>
<path d="M0,0 L2,0 L0,5 L-1,1 Z " fill="#024536" transform="translate(58,60)"/>
<path d="M0,0 L3,0 L3,3 L0,3 Z " fill="#002B23" transform="translate(47,49)"/>
<path d="M0,0 L3,0 L3,3 L0,3 Z " fill="#063F31" transform="translate(35,42)"/>
<path d="M0,0 Z " fill="#000B0A" transform="translate(40,88)"/>
<path d="M0,0 Z " fill="#000B0A" transform="translate(55,84)"/>
<path d="M0,0 Z " fill="#000B0A" transform="translate(22,72)"/>
<path d="M0,0 Z " fill="#008000" transform="translate(80,69)"/>
<path d="M0,0 Z " fill="#000B0A" transform="translate(23,51)"/>
<path d="M0,0 Z " fill="#000B0A" transform="translate(80,45)"/>
</svg>
