<?xml version="1.0" encoding="UTF-8"?>
<!-- Generator: visioncortex VTracer 0.6.5 -->
<svg version="1.1" xmlns="http://www.w3.org/2000/svg" width="100" height="100">
<path d="M0,0 L12,1 L12,4 L15,4 L15,16 L18,16 L18,20 L21,20 L21,26 L24,26 L25,33 L27,35 L24,35 L24,44 L22,45 L21,53 L19,54 L18,59 L16,60 L15,68 L18,68 L18,74 L5,74 L5,65 L3,66 L2,74 L-10,74 L-10,69 L-7,68 L-7,59 L-10,59 L-10,56 L-13,56 L-13,47 L-17,47 L-17,27 L-14,25 L-13,20 L-10,20 L-9,16 L-7,16 L-7,5 L-4,4 L-3,1 Z " fill="#0B0312" transform="translate(49,16)"/>
<path d="M0,0 L4,1 L4,5 L7,4 L14,4 L14,13 L10,14 L10,10 L4,10 L4,16 L0,16 L0,9 L-6,9 L-5,6 L0,6 Z " fill="#17091A" transform="translate(51,54)"/>
<path d="M0,0 L3,0 L4,6 L9,7 L9,9 L3,9 L3,15 L0,15 L0,9 L-6,9 L-5,6 L0,6 Z " fill="#CF933B" transform="translate(51,54)"/>
<path d="M0,0 L3,0 L3,8 L6,9 L1,10 L0,12 L6,12 L6,13 L-2,13 L-3,12 L-3,3 Z " fill="#2B1223" transform="translate(45,51)"/>
<path d="M0,0 L9,1 L9,3 L7,4 L0,4 L0,10 L-4,9 L-1,9 L-1,3 L5,3 L5,1 L0,1 Z " fill="#5A3A26" transform="translate(55,60)"/>
<path d="M0,0 L11,1 L11,3 L-3,3 L-3,1 Z " fill="#171319" transform="translate(49,16)"/>
<path d="M0,0 L3,0 L4,3 L3,5 L9,5 L9,6 L1,6 L0,5 Z " fill="#4C2828" transform="translate(42,58)"/>
<path d="M0,0 L1,4 L10,3 L10,6 L0,5 Z " fill="#2B1824" transform="translate(54,55)"/>
<path d="M0,0 L3,0 L3,6 L0,6 Z " fill="#878F73" transform="translate(51,54)"/>
<path d="M0,0 L3,1 L3,6 L0,6 Z " fill="#260D23" transform="translate(42,63)"/>
<path d="M0,0 L3,1 L1,1 L1,4 L-2,4 L-3,6 L-2,1 Z " fill="#230E23" transform="translate(45,51)"/>
<path d="M0,0 L3,0 L3,5 L0,5 Z " fill="#2F1226" transform="translate(51,48)"/>
<path d="M0,0 L3,0 L3,4 L0,4 Z " fill="#38413F" transform="translate(54,39)"/>
<path d="M0,0 L2,0 L2,5 L-1,4 Z " fill="#361629" transform="translate(46,52)"/>
<path d="M0,0 L2,0 L2,3 L-1,3 Z " fill="#3A1829" transform="translate(62,63)"/>
<path d="M0,0 Z " fill="#09030E" transform="translate(51,90)"/>
</svg>
