<?xml version="1.0" encoding="UTF-8"?>
<!-- Generator: visioncortex VTracer 0.6.5 -->
<svg version="1.1" xmlns="http://www.w3.org/2000/svg" width="150" height="85">
<path d="M0,0 L150,0 L150,85 L0,85 Z " fill="#17131D" transform="translate(0,0)"/>
<path d="M0,0 L39,0 L38,7 L32,10 L27,16 L22,11 L15,10 L15,8 L12,8 L12,10 L10,10 L15,15 L19,19 L20,16 L24,18 L29,20 L27,24 L24,29 L18,29 L18,34 L21,34 L22,40 L20,47 L27,46 L32,42 L34,42 L34,38 L40,38 L41,51 L42,52 L43,59 L45,60 L47,67 L50,67 L50,63 L54,62 L56,71 L73,76 L75,77 L75,79 L81,77 L82,76 L90,76 L90,78 L98,75 L99,73 L90,71 L90,69 L86,67 L81,64 L79,67 L77,67 L75,64 L65,63 L63,62 L62,58 L55,55 L54,52 L61,51 L64,47 L66,42 L69,41 L72,32 L73,31 L100,31 L104,33 L104,35 L109,35 L117,38 L124,40 L126,44 L129,46 L130,50 L128,53 L126,53 L124,57 L121,62 L117,65 L116,69 L110,73 L105,73 L105,77 L105,79 L113,79 L114,83 L113,85 L0,85 Z " fill="#3E3239" transform="translate(0,0)"/>
<path d="M0,0 L39,0 L38,7 L32,10 L27,16 L22,11 L15,10 L15,8 L12,8 L12,10 L10,10 L15,15 L19,19 L20,16 L24,18 L29,20 L27,24 L24,29 L18,29 L18,34 L21,34 L22,40 L20,47 L27,46 L32,42 L34,42 L34,38 L40,38 L41,51 L42,52 L43,59 L45,60 L47,67 L50,67 L50,63 L54,62 L56,71 L73,76 L75,77 L75,79 L81,77 L82,76 L90,76 L90,77 L83,77 L83,80 L85,80 L85,82 L82,82 L81,84 L80,81 L73,79 L68,77 L57,76 L52,72 L53,67 L48,69 L43,68 L45,74 L45,83 L44,84 L37,83 L35,81 L32,73 L31,72 L31,63 L27,64 L23,68 L22,73 L17,72 L16,66 L17,63 L12,66 L9,69 L5,73 L0,73 Z " fill="#474B52" transform="translate(0,0)"/>
<path d="M0,0 L6,0 L7,13 L8,14 L9,21 L11,22 L13,29 L16,29 L16,25 L20,24 L22,33 L39,38 L41,39 L41,41 L47,39 L48,38 L56,38 L56,39 L49,39 L49,42 L51,42 L51,44 L48,44 L47,46 L46,43 L39,41 L34,39 L23,38 L18,34 L19,29 L14,31 L9,30 L11,36 L11,45 L10,46 L3,45 L1,43 L-2,35 L-3,34 L-3,25 L-7,26 L-11,30 L-12,35 L-17,34 L-18,28 L-17,25 L-22,28 L-25,31 L-29,35 L-34,35 L-34,6 L-27,6 L-26,9 L-24,10 L-25,15 L-27,19 L-22,14 L-18,14 L-17,16 L-6,17 L-6,12 L-13,12 L-19,10 L-17,6 L-14,5 L-14,9 L-7,8 L-2,4 L0,4 Z " fill="#59535B" transform="translate(34,38)"/>
<path d="M0,0 L31,0 L31,11 L21,15 L10,16 L8,20 L3,23 L1,29 L-4,30 L-1,33 L-1,35 L4,36 L4,47 L6,49 L6,60 L3,59 L2,52 L1,51 L1,38 L-5,38 L-5,42 L-11,46 L-12,47 L-19,47 L-18,34 L-21,34 L-21,29 L-15,28 L-12,23 L-10,20 L-15,19 L-19,16 L-20,20 L-29,12 L-29,10 L-27,10 L-27,8 L-24,8 L-24,10 L-17,10 L-12,15 L-6,8 L-2,7 Z " fill="#2F323A" transform="translate(39,0)"/>
<path d="M0,0 L4,1 L4,10 L7,15 L9,20 L16,21 L16,12 L15,6 L21,6 L25,5 L25,10 L29,13 L40,14 L46,17 L53,19 L57,20 L57,18 L55,18 L55,15 L62,15 L62,18 L70,19 L72,23 L-28,23 L-28,11 L-23,11 L-21,7 L-17,6 L-16,3 L-11,1 L-12,8 L-10,9 L-6,11 L-6,6 Z " fill="#5A5D6B" transform="translate(28,62)"/>
<path d="M0,0 L2,0 L2,5 L-2,6 L-4,13 L-8,16 L-14,16 L-10,20 L-5,22 L-5,26 L7,27 L9,31 L11,30 L13,27 L22,33 L22,35 L31,37 L30,40 L26,42 L22,42 L22,40 L14,41 L12,43 L7,43 L7,41 L-10,37 L-13,35 L-15,27 L-18,27 L-17,22 L-16,13 L-12,11 L-9,11 L-8,8 L-5,5 L-3,5 L-3,3 L-1,3 Z " fill="#303133" transform="translate(68,36)"/>
<path d="M0,0 L6,0 L7,13 L8,14 L9,21 L11,22 L13,29 L16,29 L16,25 L20,24 L22,33 L39,38 L41,39 L41,41 L47,39 L48,38 L56,38 L56,39 L49,39 L49,42 L51,42 L51,44 L48,44 L47,46 L46,43 L39,41 L34,39 L23,38 L18,34 L19,29 L14,31 L9,30 L11,36 L11,45 L10,46 L3,45 L1,43 L-2,35 L-3,34 L-3,25 L-5,21 L0,14 L3,14 L2,3 L0,6 L-3,7 L-4,10 L-9,11 L-17,11 L-19,10 L-17,6 L-14,5 L-14,9 L-7,8 L-2,4 L0,4 Z " fill="#564C54" transform="translate(34,38)"/>
<path d="M0,0 L9,0 L15,3 L20,4 L23,11 L17,14 L16,17 L10,20 L7,25 L1,25 L-7,22 L-13,19 L-15,20 L-15,17 L-19,16 L-16,15 L-16,7 L-13,7 L-11,13 L-6,15 L-6,5 L-2,3 Z " fill="#79868E" transform="translate(93,45)"/>
<path d="M0,0 L18,1 L19,5 L26,6 L26,7 L18,8 L16,11 L13,12 L12,22 L7,21 L5,18 L5,14 L2,14 L2,22 L0,23 L3,24 L5,28 L2,29 L0,26 L-10,25 L-12,24 L-14,16 L-10,13 L-7,7 L-2,5 L-1,1 Z " fill="#49454B" transform="translate(75,38)"/>
<path d="M0,0 L21,0 L20,21 L18,23 L10,22 L9,21 L1,20 L0,19 Z " fill="#160D09" transform="translate(80,0)"/>
<path d="M0,0 L7,0 L7,19 L-23,19 L-24,12 L-21,6 L-15,6 L-11,8 L-11,10 L-6,8 Z " fill="#42495B" transform="translate(143,66)"/>
<path d="M0,0 L9,1 L13,6 L12,11 L6,15 L4,15 L2,24 L-2,24 L-2,26 L-6,28 L-5,33 L3,33 L4,37 L3,39 L-10,39 L-12,36 L-24,35 L-20,34 L-20,32 L-12,29 L-11,27 L-20,25 L-20,23 L-22,22 L-10,23 L-7,18 L-4,16 L-1,16 L0,12 L5,10 L3,6 L3,3 L-2,3 L-3,1 Z " fill="#323840" transform="translate(110,46)"/>
<path d="M0,0 L4,2 L3,7 L3,9 L7,9 L8,16 L3,19 L2,21 L7,21 L8,22 L15,23 L15,28 L4,28 L3,25 L-2,27 L-7,31 L-6,27 L-3,21 L-6,20 L-6,17 L-13,17 L-13,8 L-6,7 Z " fill="#585B63" transform="translate(13,27)"/>
<path d="M0,0 L2,0 L2,11 L8,12 L8,18 L20,22 L20,24 L23,25 L22,27 L24,27 L25,23 L27,20 L29,20 L27,24 L24,29 L18,29 L18,34 L21,34 L22,40 L20,39 L20,36 L14,37 L16,33 L15,28 L11,30 L7,35 L0,35 Z " fill="#48494E" transform="translate(0,0)"/>
<path d="M0,0 L6,0 L15,4 L17,7 L22,7 L25,4 L32,6 L32,8 L41,10 L40,13 L36,15 L32,15 L32,13 L24,14 L22,16 L17,16 L17,14 L15,14 L14,12 L6,9 L-1,8 L-3,3 L0,2 Z " fill="#1E2429" transform="translate(58,63)"/>
<path d="M0,0 L7,0 L8,3 L10,4 L9,9 L7,13 L12,8 L16,8 L18,11 L24,12 L22,16 L20,17 L15,16 L12,18 L5,16 L4,27 L0,28 Z " fill="#4C4F58" transform="translate(0,44)"/>
<path d="M0,0 L5,0 L9,3 L9,5 L14,5 L15,4 L24,4 L27,6 L34,8 L38,9 L38,7 L36,7 L36,4 L43,4 L43,7 L51,8 L53,12 L31,12 L26,9 L20,9 L18,10 L16,9 L5,8 L3,7 L2,4 L0,3 Z " fill="#6D7079" transform="translate(47,73)"/>
<path d="M0,0 L8,0 L8,2 L1,3 L-6,12 L-10,12 L-10,10 L-20,9 L-22,16 L-22,21 L-29,21 L-29,16 L-35,16 L-39,12 L-37,8 L-31,8 L-27,5 L-27,8 L-30,10 L-30,12 L-24,13 L-24,6 L-21,5 L-13,5 L-10,6 L-10,8 L-5,8 L-3,3 Z " fill="#1B2228" transform="translate(142,64)"/>
<path d="M0,0 L4,0 L5,2 L20,3 L25,3 L25,5 L27,5 L30,11 L29,13 L21,10 L20,6 L2,6 L0,10 L-5,13 L-8,19 L-11,21 L-11,24 L-17,23 L-19,19 L-12,18 L-9,14 L-7,9 L-4,8 Z " fill="#413B44" transform="translate(73,33)"/>
<path d="M0,0 L5,1 L5,4 L8,5 L4,5 L4,12 L6,14 L5,16 L-6,18 L-11,19 L-9,18 L-9,5 L-4,2 Z " fill="#9094A9" transform="translate(97,46)"/>
<path d="M0,0 L8,0 L8,7 L7,12 L12,14 L17,19 L18,16 L22,18 L25,20 L23,24 L22,27 L20,27 L20,25 L18,24 L18,22 L8,20 L5,18 L6,12 L0,11 Z " fill="#616268" transform="translate(2,0)"/>
<path d="M0,0 L5,0 L9,4 L20,3 L25,4 L24,11 L2,11 L-1,6 L-2,2 Z " fill="#555760" transform="translate(123,74)"/>
<path d="M0,0 L2,0 L1,4 L-1,4 L-3,11 L-5,13 L-8,13 L-8,19 L1,18 L3,19 L3,22 L-15,22 L-15,10 L-10,10 L-8,6 L-4,5 L-3,2 Z " fill="#7B7D80" transform="translate(15,63)"/>
<path d="M0,0 L9,1 L13,6 L12,11 L6,15 L4,15 L3,19 L1,19 L0,21 L0,19 L-5,21 L-10,26 L-14,24 L-9,22 L-7,18 L-4,16 L-1,16 L0,12 L5,10 L3,6 L3,3 L-2,3 L-3,1 Z " fill="#444249" transform="translate(110,46)"/>
<path d="M0,0 L7,3 L12,4 L15,11 L9,14 L8,17 L2,20 L-1,25 L-7,25 L-15,22 L-13,21 L-4,22 L0,18 L4,17 L5,14 L1,13 L2,7 L6,7 L5,5 L0,2 Z " fill="#5A656F" transform="translate(101,45)"/>
<path d="M0,0 L12,1 L11,8 L8,11 L5,11 L5,13 L-1,18 L-2,23 L0,24 L-11,28 L-9,24 L-5,20 L-1,14 L2,11 L1,7 L-3,4 L-3,1 Z " fill="#281D1E" transform="translate(127,39)"/>
<path d="M0,0 L6,1 L10,0 L9,4 L4,6 L4,8 L-1,9 L-1,17 L-5,19 L-12,17 L-8,10 L-5,9 L-4,12 L-4,3 Z " fill="#5F5F61" transform="translate(78,43)"/>
<path d="M0,0 L2,0 L4,4 L4,8 L6,8 L7,10 L7,19 L0,18 L-2,16 L-4,9 L-4,4 Z " fill="#423E48" transform="translate(38,64)"/>
<path d="M0,0 L19,0 L19,7 L14,7 L14,5 L0,5 L0,12 L-6,12 L-6,8 L-3,7 L-2,2 Z " fill="#121217" transform="translate(118,65)"/>
<path d="M0,0 L5,1 L6,3 L13,4 L15,9 L21,10 L20,13 L15,13 L6,9 L-1,8 L-3,3 L0,2 Z " fill="#161A1D" transform="translate(58,63)"/>
<path d="M0,0 L4,2 L4,6 L-1,9 L-3,12 L-5,12 L-5,16 L-13,16 L-13,8 L-6,7 Z " fill="#86888E" transform="translate(13,27)"/>
<path d="M0,0 L3,1 L-1,5 L-1,14 L-3,13 L-3,10 L-8,15 L-8,18 L2,20 L4,24 L1,25 L-1,22 L-9,21 L-12,18 L-11,11 L-4,2 Z " fill="#59585B" transform="translate(76,42)"/>
<path d="M0,0 L10,0 L17,2 L17,3 L9,4 L7,7 L4,8 L3,18 L-2,17 L-4,14 L-4,9 L-2,9 L-2,7 L3,4 L4,1 L0,2 Z " fill="#50545F" transform="translate(84,42)"/>
<path d="M0,0 L5,1 L5,6 L3,6 L3,8 L1,7 L2,4 L-3,7 L-6,10 L-10,14 L-15,14 L-14,12 L-11,12 L-11,3 L-10,1 L-2,2 Z " fill="#636170" transform="translate(15,59)"/>
<path d="M0,0 L20,0 L29,2 L35,5 L45,8 L44,10 L37,9 L31,7 L31,5 L27,4 L0,4 L-3,8 L-2,2 Z " fill="#2A2229" transform="translate(73,28)"/>
<path d="M0,0 L17,0 L23,3 L24,5 L30,8 L28,9 L18,5 L8,4 L-9,4 L-9,2 L0,2 Z " fill="#201B1D" transform="translate(80,25)"/>
<path d="M0,0 L10,0 L10,11 L6,12 L2,9 L0,10 Z " fill="#322633" transform="translate(60,0)"/>
<path d="M0,0 L7,0 L7,3 L15,4 L17,8 L-5,8 L-3,7 L-5,3 L-1,5 L2,5 L2,3 L0,3 Z " fill="#646F84" transform="translate(83,77)"/>
<path d="M0,0 L18,0 L18,5 L-1,5 Z " fill="#596373" transform="translate(128,80)"/>
<path d="M0,0 L8,0 L11,1 L12,0 L18,0 L23,4 L-4,4 L-4,1 Z " fill="#596471" transform="translate(55,81)"/>
<path d="M0,0 L2,1 L3,13 L1,15 L-7,15 L-7,9 L-2,6 Z " fill="#696876" transform="translate(14,67)"/>
<path d="M0,0 L2,0 L1,4 L-1,4 L-3,11 L-9,15 L-14,14 L-11,11 L-8,6 L-4,5 L-3,2 Z " fill="#767685" transform="translate(15,63)"/>
<path d="M0,0 L6,0 L7,3 L3,8 L-3,9 L-3,12 L-5,12 L-6,4 L-1,1 Z " fill="#D6E1CF" transform="translate(94,47)"/>
<path d="M0,0 L5,0 L9,4 L10,1 L14,3 L17,5 L15,9 L14,12 L12,12 L12,10 L10,9 L10,7 L5,6 L1,4 Z " fill="#71747C" transform="translate(10,15)"/>
<path d="M0,0 L3,0 L3,2 L10,2 L12,5 L10,7 L8,8 L7,12 L-2,4 L-2,2 L0,2 Z " fill="#383A41" transform="translate(12,8)"/>
<path d="M0,0 L7,1 L16,4 L15,7 L11,9 L7,9 L7,5 L2,5 L0,3 Z " fill="#16171D" transform="translate(83,69)"/>
<path d="M0,0 L10,1 L11,8 L7,9 L1,7 Z " fill="#383D4E" transform="translate(20,75)"/>
<path d="M0,0 L0,3 L-4,9 L-8,12 L-9,16 L-15,20 L-17,19 L-17,17 L-13,17 L-11,8 L-1,1 Z " fill="#2C2A2F" transform="translate(125,53)"/>
<path d="M0,0 L7,3 L7,5 L9,5 L10,9 L8,9 L7,16 L4,15 L5,14 L1,13 L2,7 L6,7 L5,5 L0,2 Z " fill="#6D6D7D" transform="translate(101,45)"/>
<path d="M0,0 L2,0 L2,2 L-3,3 L0,6 L0,8 L5,9 L5,19 L4,19 L3,11 L2,10 L-7,8 L-10,4 L-9,1 L-9,3 L-5,3 L-4,1 Z " fill="#352935" transform="translate(38,27)"/>
<path d="M0,0 L3,1 L1,2 L1,4 L11,6 L14,6 L15,13 L8,13 L8,8 L2,8 L-2,4 Z " fill="#272C33" transform="translate(105,72)"/>
<path d="M0,0 L6,0 L10,2 L10,4 L16,2 L16,5 L8,5 L6,3 L1,3 L0,7 L3,10 L3,13 L-2,13 L-3,6 Z " fill="#40434B" transform="translate(122,72)"/>
<path d="M0,0 L5,1 L9,5 L8,10 L2,11 L0,4 Z " fill="#2B1F2A" transform="translate(23,33)"/>
<path d="M0,0 L6,3 L2,4 L2,6 L0,8 L1,12 L8,12 L17,16 L15,17 L0,13 L-2,9 L-1,1 Z " fill="#292822" transform="translate(56,59)"/>
<path d="M0,0 L4,1 L5,3 L5,9 L1,9 L-1,6 L-13,5 L-9,3 L-2,2 Z " fill="#434A58" transform="translate(99,76)"/>
<path d="M0,0 L3,1 L4,5 L12,6 L10,9 L-1,8 L-3,3 L0,2 Z " fill="#15140F" transform="translate(58,63)"/>
<path d="M0,0 L9,1 L13,6 L12,11 L8,11 L6,6 L4,5 L4,2 L-3,2 Z " fill="#4A3E4A" transform="translate(110,46)"/>
<path d="M0,0 L2,0 L2,5 L-3,7 L-6,12 L-10,14 L-16,14 L-15,12 L-9,11 L-8,8 L-5,5 L-3,5 L-3,3 L-1,3 Z " fill="#292930" transform="translate(68,36)"/>
<path d="M0,0 L5,2 L2,5 L0,6 L-13,6 L-12,3 L-1,1 Z " fill="#52505A" transform="translate(62,8)"/>
<path d="M0,0 L14,0 L18,2 L18,4 L24,2 L25,1 L33,1 L33,2 L26,2 L26,5 L28,5 L28,7 L25,7 L24,9 L23,6 L16,4 L11,2 L0,1 Z " fill="#53555D" transform="translate(57,75)"/>
<path d="M0,0 L3,0 L1,12 L4,12 L4,19 L1,19 L-1,15 L-1,1 Z " fill="#191C24" transform="translate(46,48)"/>
<path d="M0,0 L1,0 L2,9 L4,11 L4,22 L1,21 L0,14 L-1,13 L-1,5 Z " fill="#3F3434" transform="translate(41,38)"/>
<path d="M0,0 L1,0 L3,9 L13,12 L13,13 L2,13 L-1,10 L0,5 L-3,6 L-3,1 Z " fill="#444340" transform="translate(53,62)"/>
<path d="M0,0 L5,1 L5,6 L3,6 L3,8 L1,7 L2,4 L-1,6 L-6,5 L-6,3 L-10,3 L-10,1 L-2,2 Z " fill="#555560" transform="translate(15,59)"/>
<path d="M0,0 L8,0 L4,2 L-1,5 L-5,6 L-5,19 L-10,19 L-11,16 L-6,16 L-6,5 L-2,3 Z " fill="#828A96" transform="translate(93,45)"/>
<path d="M0,0 L3,1 L-1,5 L-1,14 L-2,14 L-2,6 L-9,12 L-11,16 L-12,13 L-8,7 L-4,2 Z " fill="#525153" transform="translate(76,42)"/>
<path d="M0,0 L5,0 L3,4 L-2,9 L-8,9 L-8,5 L-1,3 Z " fill="#28282E" transform="translate(8,22)"/>
<path d="M0,0 L4,0 L5,10 L0,10 L-2,3 Z " fill="#2A212F" transform="translate(37,66)"/>
<path d="M0,0 L3,0 L2,4 L-3,6 L-3,8 L-8,9 L-8,15 L-9,15 L-9,6 L-3,3 L-1,3 Z " fill="#6B6F71" transform="translate(85,43)"/>
<path d="M0,0 L1,0 L1,11 L-6,11 L-6,6 L-2,4 Z " fill="#52605C" transform="translate(36,39)"/>
<path d="M0,0 L5,0 L4,3 L-1,4 L-1,6 L-14,6 L-14,4 L-4,4 L-4,2 Z " fill="#0E0810" transform="translate(64,12)"/>
<path d="M0,0 L7,0 L9,4 L11,3 L13,0 L19,4 L15,5 L13,5 L13,7 L8,7 L6,2 L0,1 Z " fill="#43484C" transform="translate(68,63)"/>
<path d="M0,0 L1,0 L3,7 L4,11 L-3,10 L-3,4 Z " fill="#6C6A77" transform="translate(28,64)"/>
<path d="M0,0 L5,1 L5,4 L8,5 L4,5 L4,7 L2,7 L0,11 L-5,14 L-6,16 L-8,16 L-8,13 L-6,13 L-6,10 L0,9 L1,6 L3,6 L3,2 Z " fill="#ABB3AB" transform="translate(97,46)"/>
<path d="M0,0 L5,0 L8,4 L7,7 L0,7 Z " fill="#3A3D44" transform="translate(0,45)"/>
<path d="M0,0 L4,2 L4,6 L-2,9 L-2,7 L-6,8 L-3,3 Z " fill="#7B7D82" transform="translate(13,27)"/>
<path d="M0,0 L6,0 L6,7 L5,8 L0,8 Z " fill="#74767C" transform="translate(2,0)"/>
<path d="M0,0 L9,0 L9,2 L14,2 L12,4 L-1,3 L-3,8 L-4,8 L-4,1 Z " fill="#28262B" transform="translate(123,70)"/>
<path d="M0,0 L4,1 L-2,6 L-3,8 L-13,7 L-16,6 L-16,4 L-18,3 L-12,4 L-6,6 L-2,4 Z " fill="#374449" transform="translate(106,65)"/>
<path d="M0,0 L2,0 L4,7 L7,8 L5,9 L0,8 L-1,12 L-3,3 L-1,3 Z " fill="#4B3E5E" transform="translate(43,60)"/>
<path d="M0,0 L7,0 L7,5 L-3,5 L-1,1 Z " fill="#626268" transform="translate(21,50)"/>
<path d="M0,0 L4,1 L3,7 L-2,8 L-4,5 Z " fill="#50464B" transform="translate(33,54)"/>
<path d="M0,0 L4,0 L4,4 L9,3 L6,7 L-1,7 Z " fill="#513140" transform="translate(21,40)"/>
<path d="M0,0 L4,1 L3,9 L1,8 L0,3 L-2,6 L-3,11 L-5,11 L-4,4 Z " fill="#67656F" transform="translate(28,62)"/>
<path d="M0,0 L3,0 L2,3 L-2,5 L-6,10 L-13,10 L-13,7 L-6,6 Z " fill="#626369" transform="translate(13,25)"/>
<path d="M0,0 L5,0 L8,7 L1,10 L1,5 L3,5 L2,1 Z " fill="#615A6A" transform="translate(108,49)"/>
<path d="M0,0 L6,0 L6,3 L10,5 L9,10 L4,12 L1,13 L3,9 L7,7 L5,4 L5,1 L0,1 Z " fill="#534A58" transform="translate(108,48)"/>
<path d="M0,0 L6,1 L8,5 L11,7 L12,11 L10,14 L8,13 L9,9 L2,4 L2,1 Z " fill="#3B282A" transform="translate(118,39)"/>
<path d="M0,0 L9,1 L8,8 L7,8 L7,3 L-6,3 L-2,1 Z " fill="#495362" transform="translate(139,77)"/>
<path d="M0,0 L4,1 L4,8 L-2,6 L-2,1 Z " fill="#354445" transform="translate(82,50)"/>
<path d="M0,0 L2,0 L0,4 L-2,8 L-8,7 L-12,1 L-7,2 L-7,4 L-4,5 L-5,7 L-3,7 L-2,3 Z " fill="#555960" transform="translate(27,20)"/>
<path d="M0,0 L2,0 L1,5 L-4,5 L-5,5 L-7,7 L-8,1 L-2,1 Z " fill="#565165" transform="translate(51,67)"/>
<path d="M0,0 L1,4 L4,4 L5,8 L0,9 L-1,5 L-8,5 L-8,4 L0,4 Z " fill="#626770" transform="translate(8,39)"/>
<path d="M0,0 L3,1 L0,6 L-2,8 L-7,7 L-3,2 Z " fill="#878792" transform="translate(8,70)"/>
<path d="M0,0 L13,0 L12,4 L-2,2 Z " fill="#0A0912" transform="translate(124,65)"/>
<path d="M0,0 L1,0 L0,7 L-5,9 L-10,9 L-11,7 L-4,7 L-3,3 L-1,3 Z " fill="#414A55" transform="translate(142,70)"/>
<path d="M0,0 L3,0 L3,10 L-2,10 L-3,8 L0,8 Z " fill="#828587" transform="translate(77,52)"/>
<path d="M0,0 L4,1 L6,6 L7,9 L2,8 L0,2 Z " fill="#5F6775" transform="translate(31,76)"/>
<path d="M0,0 L5,0 L8,3 L8,7 L3,5 L0,3 Z " fill="#787983" transform="translate(47,73)"/>
<path d="M0,0 L10,2 L12,7 L16,9 L11,9 L8,5 L0,2 Z " fill="#2D3034" transform="translate(64,62)"/>
<path d="M0,0 L10,0 L11,3 L-2,3 L0,2 Z " fill="#6C84A5" transform="translate(89,82)"/>
<path d="M0,0 L3,0 L2,3 L-6,10 L-10,8 L-5,6 L-3,2 Z " fill="#44515B" transform="translate(106,62)"/>
<path d="M0,0 L4,3 L7,5 L2,5 L3,7 L6,8 L6,10 L0,8 L-2,9 L-2,6 L0,6 Z " fill="#6A7370" transform="translate(80,56)"/>
<path d="M0,0 L3,0 L3,10 L0,11 Z " fill="#3A3946" transform="translate(0,59)"/>
<path d="M0,0 L2,1 L2,4 L-1,9 L-4,9 L-4,4 Z " fill="#575961" transform="translate(14,33)"/>
<path d="M0,0 L5,0 L2,3 L7,4 L7,8 L2,7 L0,6 Z " fill="#747683" transform="translate(0,73)"/>
<path d="M0,0 L2,4 L3,11 L-3,12 L-4,8 L1,8 Z " fill="#38333F" transform="translate(41,68)"/>
<path d="M0,0 L8,1 L13,3 L13,4 L2,4 L2,1 Z " fill="#5B6572" transform="translate(16,81)"/>
<path d="M0,0 L10,0 L10,1 L2,2 L0,4 L-5,4 L-5,2 L-7,1 Z " fill="#35343A" transform="translate(80,75)"/>
<path d="M0,0 L5,1 L9,5 L8,10 L7,10 L5,4 L2,2 L1,6 Z " fill="#302A34" transform="translate(23,33)"/>
<path d="M0,0 L2,0 L2,6 L5,6 L6,12 L4,11 L4,8 L-2,9 L0,5 Z " fill="#4B4D54" transform="translate(16,28)"/>
<path d="M0,0 L10,1 L10,3 L-4,3 Z " fill="#6C778B" transform="translate(135,82)"/>
<path d="M0,0 L4,4 L3,6 L-6,6 L-5,4 L-1,2 Z " fill="#8286A7" transform="translate(99,56)"/>
<path d="M0,0 L7,0 L7,2 L0,4 L-4,8 L-4,5 Z " fill="#303846" transform="translate(143,66)"/>
<path d="M0,0 L1,3 L-1,5 L-7,5 L-15,2 L-13,1 L-6,2 L-3,3 Z " fill="#53676C" transform="translate(101,65)"/>
<path d="M0,0 L7,3 L7,5 L9,5 L10,9 L6,8 L5,5 L0,2 Z " fill="#6D686E" transform="translate(101,45)"/>
<path d="M0,0 L1,0 L2,7 L3,8 L3,15 L1,11 L-1,8 L-1,2 Z " fill="#4F464A" transform="translate(39,44)"/>
<path d="M0,0 L3,0 L3,2 L7,2 L6,5 L0,5 Z " fill="#4E4E54" transform="translate(0,20)"/>
<path d="M0,0 L6,0 L8,3 L6,5 L3,5 L3,3 L1,3 Z " fill="#3D4148" transform="translate(16,10)"/>
<path d="M0,0 L10,1 L10,2 L3,3 L4,7 L1,7 Z " fill="#484C5C" transform="translate(20,75)"/>
<path d="M0,0 L3,1 L2,4 L-2,6 L-6,6 L-6,3 L-1,2 Z " fill="#25212C" transform="translate(96,72)"/>
<path d="M0,0 L6,0 L10,3 L0,3 Z " fill="#3D4353" transform="translate(68,82)"/>
<path d="M0,0 L1,0 L1,10 L-4,10 L-5,7 L0,7 Z " fill="#6F7A7E" transform="translate(87,54)"/>
<path d="M0,0 L2,0 L3,5 L2,8 L-1,8 L-1,1 Z " fill="#070B15" transform="translate(48,52)"/>
<path d="M0,0 L0,3 L-5,9 L-9,9 L-9,7 L-4,6 L-4,3 Z " fill="#292F36" transform="translate(141,67)"/>
<path d="M0,0 L6,0 L8,4 L2,3 Z " fill="#7B7C87" transform="translate(72,80)"/>
<path d="M0,0 L4,1 L4,6 L0,6 Z " fill="#66686E" transform="translate(0,79)"/>
<path d="M0,0 L3,0 L3,9 L0,9 Z " fill="#2F3545" transform="translate(147,76)"/>
<path d="M0,0 L2,0 L4,7 L0,7 L-1,2 Z " fill="#493837" transform="translate(103,40)"/>
<path d="M0,0 L2,0 L2,2 L-3,3 L0,7 L-5,6 L-4,1 Z " fill="#261F2A" transform="translate(38,27)"/>
<path d="M0,0 L2,1 L2,3 L8,3 L10,7 L7,5 L2,4 L1,7 Z " fill="#66656D" transform="translate(45,69)"/>
<path d="M0,0 L7,4 L3,5 L1,5 L0,7 Z " fill="#2B3634" transform="translate(80,63)"/>
<path d="M0,0 L1,0 L1,7 L5,6 L6,8 L2,10 L-2,9 L0,9 Z " fill="#8A9197" transform="translate(88,55)"/>
<path d="M0,0 L5,1 L5,4 L3,4 L3,6 L1,5 L2,2 L-2,4 Z " fill="#63626F" transform="translate(15,61)"/>
<path d="M0,0 L2,0 L2,5 L-1,6 L-3,5 L-1,1 Z " fill="#494D55" transform="translate(18,43)"/>
<path d="M0,0 L2,1 L-6,8 L-7,6 L-2,1 Z " fill="#3A353B" transform="translate(120,57)"/>
<path d="M0,0 L4,0 L3,4 L-2,4 Z " fill="#6A6D75" transform="translate(21,50)"/>
<path d="M0,0 L5,0 L1,1 L3,6 L-2,4 L-2,1 Z " fill="#67686D" transform="translate(9,14)"/>
<path d="M0,0 L2,0 L2,5 L-2,5 L-4,1 L0,2 Z " fill="#4D5868" transform="translate(102,80)"/>
<path d="M0,0 L4,5 L0,9 Z " fill="#585764" transform="translate(45,74)"/>
<path d="M0,0 L2,0 L2,7 L-1,7 Z " fill="#777884" transform="translate(26,66)"/>
<path d="M0,0 L11,0 L11,1 L3,2 L0,5 Z " fill="#57576F" transform="translate(90,44)"/>
<path d="M0,0 L3,3 L2,5 L-4,7 L-3,4 L-1,4 Z " fill="#5A5565" transform="translate(113,52)"/>
<path d="M0,0 L5,0 L5,3 L0,4 Z " fill="#471A2D" transform="translate(25,40)"/>
<path d="M0,0 L7,0 L7,2 L0,3 Z " fill="#7A7F85" transform="translate(63,78)"/>
<path d="M0,0 L1,0 L1,5 L-2,8 L-4,7 Z " fill="#7B7988" transform="translate(12,68)"/>
<path d="M0,0 L6,1 L8,2 L8,4 L2,3 L2,1 Z " fill="#2A393D" transform="translate(88,68)"/>
<path d="M0,0 L2,1 L2,4 L5,3 L5,7 L2,7 L0,3 Z " fill="#312543" transform="translate(45,60)"/>
<path d="M0,0 L3,2 L3,4 L-2,5 L-2,1 Z " fill="#5D647B" transform="translate(104,53)"/>
<path d="M0,0 L2,1 L1,3 L-5,4 L-5,1 Z " fill="#D3DFB3" transform="translate(96,52)"/>
<path d="M0,0 L7,0 L3,3 L-1,4 Z " fill="#626366" transform="translate(77,45)"/>
<path d="M0,0 L5,0 L6,4 L0,2 Z " fill="#7E8086" transform="translate(10,15)"/>
<path d="M0,0 L1,4 L-3,5 L-6,3 L-1,1 Z " fill="#414A59" transform="translate(30,79)"/>
<path d="M0,0 L1,0 L1,5 L-4,4 L-5,1 L0,3 Z " fill="#4E5659" transform="translate(86,55)"/>
<path d="M0,0 L4,0 L4,4 L0,4 Z " fill="#182429" transform="translate(81,52)"/>
<path d="M0,0 L2,1 L-2,4 L-5,4 L-5,1 Z " fill="#F2F8EE" transform="translate(97,48)"/>
<path d="M0,0 L5,1 L5,3 L-1,3 Z " fill="#818FAB" transform="translate(95,82)"/>
<path d="M0,0 L2,1 L4,8 L-1,8 L0,2 Z " fill="#4F5664" transform="translate(30,77)"/>
<path d="M0,0 L3,1 L3,4 L5,5 L0,6 L1,2 Z " fill="#656773" transform="translate(47,76)"/>
<path d="M0,0 L5,0 L4,4 L2,4 L2,2 L0,2 Z " fill="#615D65" transform="translate(122,76)"/>
<path d="M0,0 L5,0 L2,3 L3,5 L0,5 Z " fill="#7E7E89" transform="translate(0,73)"/>
<path d="M0,0 L5,0 L4,4 L0,3 Z " fill="#34352D" transform="translate(50,60)"/>
<path d="M0,0 L3,1 L0,4 L-4,3 Z " fill="#91939B" transform="translate(5,73)"/>
<path d="M0,0 L2,0 L2,5 L-1,5 Z " fill="#140B14" transform="translate(38,67)"/>
<path d="M0,0 L3,0 L5,4 L2,5 Z " fill="#5E6062" transform="translate(75,62)"/>
<path d="M0,0 L2,0 L0,4 L-5,3 L-2,1 Z " fill="#697786" transform="translate(97,64)"/>
<path d="M0,0 L2,0 L1,4 L-4,4 Z " fill="#706F7E" transform="translate(15,63)"/>
<path d="M0,0 L4,0 L2,4 L-1,3 Z " fill="#41383E" transform="translate(32,56)"/>
<path d="M0,0 L3,0 L2,5 L0,5 Z " fill="#686B74" transform="translate(15,38)"/>
<path d="M0,0 L4,0 L3,5 L2,3 L-1,2 Z " fill="#48484D" transform="translate(3,13)"/>
<path d="M0,0 L2,0 L1,5 L-2,4 L-1,3 L-3,1 Z " fill="#6F7486" transform="translate(107,56)"/>
<path d="M0,0 L3,2 L3,4 L-2,6 Z " fill="#1E2025" transform="translate(52,54)"/>
<path d="M0,0 L5,0 L3,4 L2,2 L0,2 Z " fill="#313137" transform="translate(8,22)"/>
<path d="M0,0 L3,2 L3,5 L0,5 Z " fill="#343947" transform="translate(120,80)"/>
<path d="M0,0 L2,0 L1,4 L-3,5 Z " fill="#617277" transform="translate(99,64)"/>
<path d="M0,0 L5,1 L4,3 L0,2 Z " fill="#80898A" transform="translate(82,61)"/>
<path d="M0,0 L4,0 L3,4 L1,4 Z " fill="#1E1833" transform="translate(46,60)"/>
<path d="M0,0 L4,0 L3,3 L0,3 Z " fill="#424B5B" transform="translate(51,82)"/>
<path d="M0,0 L6,0 L2,2 L-1,3 Z " fill="#40383E" transform="translate(122,72)"/>
<path d="M0,0 L1,3 L-3,4 L-2,1 Z " fill="#312D34" transform="translate(69,38)"/>
<path d="M0,0 L2,0 L2,3 L-3,3 Z " fill="#454D5D" transform="translate(43,80)"/>
<path d="M0,0 L2,0 L2,4 L-1,3 Z " fill="#2F3545" transform="translate(23,77)"/>
<path d="M0,0 L5,0 L2,3 L0,3 Z " fill="#72717A" transform="translate(47,73)"/>
<path d="M0,0 L3,0 L2,4 L0,3 Z " fill="#554766" transform="translate(40,60)"/>
<path d="M0,0 Z M-1,1 L2,3 L-1,6 L-2,2 Z " fill="#53565A" transform="translate(14,35)"/>
<path d="M0,0 L1,4 L-2,5 L-1,1 Z " fill="#87888D" transform="translate(14,28)"/>
<path d="M0,0 L3,0 L2,4 Z " fill="#696677" transform="translate(31,76)"/>
<path d="M0,0 L3,0 L4,3 L1,3 Z " fill="#231C27" transform="translate(37,72)"/>
<path d="M0,0 L3,0 L3,3 L0,3 Z " fill="#4A4958" transform="translate(19,70)"/>
<path d="M0,0 L4,3 L0,4 Z " fill="#36403C" transform="translate(80,63)"/>
<path d="M0,0 L3,1 L1,3 L-2,2 Z " fill="#7A8496" transform="translate(104,58)"/>
<path d="M0,0 L1,3 L-2,4 L-2,1 Z " fill="#6C6F78" transform="translate(11,43)"/>
<path d="M0,0 L2,4 L-1,3 Z " fill="#060810" transform="translate(116,73)"/>
<path d="M0,0 L2,0 L1,3 L-2,2 Z " fill="#101318" transform="translate(87,70)"/>
<path d="M0,0 L2,0 L2,3 L-1,3 Z " fill="#6A6662" transform="translate(51,67)"/>
<path d="M0,0 L3,3 L-1,3 Z " fill="#40455A" transform="translate(104,53)"/>
<path d="M0,0 L3,1 L3,3 L0,3 Z " fill="#38373B" transform="translate(81,42)"/>
<path d="M0,0 L4,1 L4,3 L0,1 Z " fill="#23292E" transform="translate(16,14)"/>
<path d="M0,0 L3,1 L1,4 Z " fill="#5D5961" transform="translate(43,70)"/>
</svg>
