<svg width="161" height="160" viewBox="0 0 161 160" fill="none" xmlns="http://www.w3.org/2000/svg">
<g clip-path="url(#clip0_28_11129)">
<path d="M69.5686 0.353119V6.21059C71.8211 6.21059 74.0993 6.21059 76.3518 6.21059C76.3518 8.46347 76.3518 10.7421 76.3518 12.9949C74.0993 12.9949 71.8211 12.9949 69.5686 12.9949C69.5686 10.7421 69.5686 8.46347 69.5686 6.21059C50.9699 6.13335 32.3582 6.13335 13.7595 6.21059C11.5071 6.21059 9.22892 6.21059 6.97644 6.21059C7.06654 27.3748 6.8606 48.5646 6.97644 69.7416H38.7295V75.5991H45.5126V82.3835C43.2601 82.3835 40.9819 82.3835 38.7295 82.3835C34.5206 82.3964 30.2989 82.3835 26.0901 82.3835C26.0901 84.6364 26.0901 86.915 26.0901 89.168C28.3425 89.1805 30.6206 89.168 32.8731 89.168V94.7165H38.7295C38.7423 96.9689 38.7038 99.248 38.7295 101.5C40.9819 101.488 43.2601 101.5 45.5126 101.5C45.5126 103.754 45.5126 106.032 45.5126 108.285C47.1471 108.285 48.8076 108.285 50.4422 108.285C50.4422 110.229 50.4422 112.198 50.4422 114.142C48.8076 114.142 47.1471 114.142 45.5126 114.142V108.285C43.2601 108.272 40.9819 108.285 38.7295 108.285C38.7295 106.032 38.7552 103.754 38.7295 101.5C36.7859 101.5 34.8166 101.5 32.8731 101.5V114.142C34.8166 114.142 36.7859 114.142 38.7295 114.142V120.927C36.7859 120.927 34.8166 120.927 32.8731 120.927V127.711C37.082 127.711 41.3037 127.724 45.5126 127.711C49.3095 127.699 53.1194 127.711 56.9164 127.711C56.9164 125.459 56.9164 123.18 56.9164 120.927C59.1688 120.94 61.447 120.927 63.6994 120.927V127.711H69.5558C69.5558 129.552 69.5558 131.419 69.5558 133.26C71.8082 133.26 74.0864 133.26 76.3389 133.26C76.3389 135.513 76.3131 137.791 76.3389 140.044C78.5913 140.07 80.8694 140.031 83.1219 140.044C83.1219 142.297 83.1091 144.576 83.1219 146.828C85.0654 146.828 87.0348 146.828 88.9784 146.828C88.9784 148.772 88.9784 150.742 88.9784 152.686C91.1278 152.686 93.3029 152.686 95.4522 152.686C104.179 152.712 112.931 152.686 121.658 152.686C123.602 152.686 125.57 152.686 127.514 152.686C129.664 152.686 131.839 152.686 133.988 152.686C138.197 152.686 142.419 152.699 146.628 152.686C148.881 152.686 151.159 152.686 153.411 152.686C153.36 137.894 153.475 123.076 153.411 108.285H160.194C160.22 125.342 160.181 142.412 160.194 159.47H88.9651C88.9651 157.218 88.9784 154.939 88.9651 152.686C87.0219 152.686 85.0526 152.686 83.109 152.686C83.109 150.742 83.109 148.772 83.109 146.828C80.8567 146.828 78.5784 146.828 76.326 146.828C76.326 144.576 76.3518 142.297 76.326 140.044C74.0735 140.019 71.7953 140.057 69.5429 140.044C69.5429 137.791 69.5558 135.513 69.5429 133.26C55.0629 133.196 40.5572 133.311 26.0643 133.26C26.1158 118.571 25.9999 103.857 26.0643 89.168C23.9148 89.1547 21.7396 89.168 19.5902 89.168V82.3835H13.7338V75.5991H6.9507C6.9507 73.6552 6.9507 71.6855 6.9507 69.7416H0.193359V0.353119H69.5686Z" fill="#ACFE8E"/>
<path d="M50.4551 114.142C52.6046 114.142 54.7798 114.142 56.9293 114.142C56.9293 116.396 56.9293 118.674 56.9293 120.927C54.7798 120.914 52.6046 120.927 50.4551 120.927C50.4551 118.674 50.4679 116.396 50.4551 114.142Z" fill="#ACFE8E"/>
<path d="M86.8289 19.7794C87.5496 19.8051 88.2704 19.7665 88.9909 19.7794C88.9909 21.6203 88.9784 23.4869 88.9909 25.3279C103.986 25.3794 119.007 25.2893 134.014 25.3279C134.04 40.1196 133.963 54.9371 134.014 69.7288C131.865 69.7288 129.69 69.7288 127.54 69.7288C127.528 67.4759 127.54 65.1973 127.54 62.9445C127.54 60.6916 127.54 58.4129 127.54 56.1601C125.597 56.1601 123.627 56.1601 121.684 56.1601C119.432 56.1472 117.154 56.1601 114.901 56.1601C114.901 54.3191 114.901 52.4525 114.901 50.6116C116.137 50.5987 117.372 50.6116 118.608 50.6116C118.582 48.3587 118.646 46.0801 118.608 43.8272C119.637 43.8143 120.667 43.8401 121.697 43.8272V38.8966C123.641 38.8966 125.61 38.8966 127.553 38.8966V32.1123C114.707 32.0607 101.85 32.1895 89.0166 32.1123C89.0166 29.8594 89.03 27.5807 89.0166 25.3279C88.2962 25.3279 87.5754 25.3279 86.8546 25.3279V19.7794H86.8289Z" fill="#ACFE8E"/>
<path d="M153.437 89.168C155.69 89.168 157.968 89.168 160.22 89.168C160.22 95.5405 160.22 101.925 160.22 108.285H153.437C153.437 106.032 153.437 103.754 153.437 101.5C151.185 101.5 148.906 101.5 146.654 101.5C146.654 107.976 146.654 114.452 146.654 120.927H140.797C140.823 127.3 140.771 133.672 140.797 140.044H134.014V133.26H127.54C127.514 126.887 127.578 120.502 127.54 114.142C129.69 114.142 131.865 114.142 134.014 114.142V108.285H140.797C140.81 106.032 140.771 103.754 140.797 101.5C142.741 101.5 144.71 101.5 146.654 101.5C146.654 99.248 146.654 96.9689 146.654 94.7165C148.906 94.7165 151.185 94.7165 153.437 94.7165C153.437 92.8756 153.424 91.0089 153.437 89.168Z" fill="#05351D"/>
<path d="M142.947 75.5992C144.183 75.612 145.418 75.5992 146.654 75.5992C146.654 77.852 146.654 80.1307 146.654 82.3836C148.906 82.3836 151.185 82.3836 153.437 82.3836C153.424 84.6365 153.437 86.915 153.437 89.168C151.185 89.168 148.906 89.1805 146.654 89.168C146.654 86.915 146.654 84.6365 146.654 82.3836C145.418 82.3836 144.183 82.3836 142.96 82.3836V75.5992H142.947Z" fill="#ACFE8E"/>
<path d="M69.5686 12.9949C69.5686 15.2478 69.5686 17.5265 69.5686 19.7794C71.8211 19.7794 74.0993 19.7794 76.3518 19.7794C76.3518 21.6203 76.3518 23.4869 76.3518 25.3279C78.6042 25.3279 80.8823 25.3279 83.1348 25.3279C83.1348 27.5808 83.1348 29.8594 83.1348 32.1123C85.0783 32.1123 87.0477 32.1123 88.9909 32.1123C88.9909 34.3652 88.9909 36.6437 88.9909 38.8966H95.4655V43.8272C97.718 43.8272 99.9962 43.8143 102.249 43.8272C102.235 46.0801 102.261 48.3587 102.249 50.6116C104.192 50.6116 106.162 50.6116 108.105 50.6116C108.105 52.4524 108.105 54.3191 108.105 56.1601C110.357 56.1601 112.635 56.1601 114.888 56.1601C114.888 58.413 114.888 60.6916 114.888 62.9445C117.14 62.9445 119.418 62.9445 121.671 62.9445C121.671 65.1973 121.671 67.4759 121.671 69.7288C123.615 69.7288 125.584 69.7159 127.527 69.7288C127.527 71.6727 127.527 73.6424 127.527 75.5863C129.677 75.5863 131.852 75.5863 134.002 75.5863C134.002 77.8391 134.002 80.1178 134.002 82.3707C136.254 82.3707 138.532 82.3707 140.785 82.3707C140.785 84.6236 140.785 86.9021 140.785 89.1547C142.728 89.1547 144.698 89.1547 146.641 89.1547C146.641 90.9956 146.641 92.8622 146.641 94.7031C144.698 94.7031 142.728 94.7031 140.785 94.7031C140.785 96.9564 140.81 99.2347 140.785 101.488C136.37 101.462 131.942 101.5 127.527 101.488V94.7031H121.671V89.1547H114.888V82.3707H108.105V75.5863H102.249V69.7288C99.9962 69.7288 97.718 69.7417 95.4655 69.7288C95.4655 67.4759 95.4655 65.1973 95.4655 62.9445C93.3162 62.9445 91.1411 62.9573 88.9909 62.9445C88.9651 60.6916 89.0042 58.413 88.9909 56.1601C87.0477 56.1601 85.0783 56.1601 83.1348 56.1601C83.1348 54.3191 83.1348 52.4524 83.1348 50.6116C80.8823 50.6116 78.6042 50.6373 76.3518 50.6116C76.3389 48.3587 76.3518 46.0801 76.3518 43.8272C74.0993 43.8272 71.8211 43.8401 69.5686 43.8272C69.5686 42.1923 69.5686 40.5316 69.5686 38.8966H63.7123V43.8272C65.6559 43.8272 67.6251 43.8272 69.5686 43.8272C69.5815 46.0801 69.5686 48.3587 69.5686 50.6116C71.8211 50.6116 74.0993 50.5858 76.3518 50.6116C76.3518 52.4524 76.3518 54.3191 76.3518 56.1601C78.6042 56.1601 80.8823 56.1472 83.1348 56.1601C83.1477 58.413 83.1348 60.6916 83.1348 62.9445C85.0783 62.9445 87.0477 62.9445 88.9909 62.9445C89.0166 65.1973 88.9784 67.4759 88.9909 69.7288C91.1411 69.7288 93.3162 69.7159 95.4655 69.7288C95.4913 76.2042 95.4398 82.6796 95.4655 89.1547H88.9909C88.9784 86.9021 88.9909 84.6236 88.9909 82.3707C87.0477 82.3707 85.0783 82.3707 83.1348 82.3707C83.1348 80.1178 83.1348 77.8391 83.1348 75.5863C80.8823 75.5863 78.6042 75.612 76.3518 75.5863C76.3518 73.6424 76.3518 71.6727 76.3518 69.7288C74.0993 69.7288 71.8211 69.7417 69.5686 69.7288C69.5686 67.4759 69.5686 65.1973 69.5686 62.9445C67.6251 62.9445 65.6559 62.9445 63.7123 62.9445C63.6866 60.6916 63.7252 58.413 63.7123 56.1601C61.4599 56.1601 59.1817 56.173 56.9293 56.1601C56.9293 54.3191 56.9293 52.4524 56.9293 50.6116C54.7798 50.6116 52.6046 50.6245 50.4551 50.6116C50.4422 48.3587 50.4551 46.0801 50.4551 43.8272C48.8205 43.8272 47.16 43.8401 45.5255 43.8272C45.5126 39.9265 45.5255 36.013 45.5255 32.1123H50.4551V25.3279H56.9293V19.7794H63.7123V12.995C65.6559 12.995 67.6251 12.9949 69.5686 12.9949Z" fill="#007760"/>
<path d="M80.0457 12.995V15.7757H83.1348C83.1605 17.1017 83.1348 18.4533 83.1348 19.7794C84.3575 19.7794 85.6062 19.7407 86.8289 19.7794L86.8287 25.3278C85.5931 25.3278 84.3576 25.3279 83.1348 25.3279C83.1348 23.4869 83.1348 21.6203 83.1348 19.7794C80.8823 19.7794 78.6042 19.7794 76.3518 19.7794C76.3389 17.5265 76.3518 15.2478 76.3518 12.9949C77.5873 12.9949 78.823 12.9693 80.0457 12.995Z" fill="#007760"/>
<path d="M137.09 69.7417V73.7582H140.785C140.785 74.3762 140.785 74.9941 140.785 75.612C141.506 75.612 142.226 75.612 142.946 75.612V82.3965C142.226 82.3965 141.506 82.3965 140.785 82.3965C140.785 80.1436 140.785 77.8649 140.785 75.612C138.532 75.612 136.254 75.612 134.002 75.612C134.002 73.6681 134.002 71.6985 134.002 69.7546C135.031 69.7546 136.061 69.7417 137.09 69.7546V69.7417Z" fill="#007760"/>
<path d="M137.09 69.7417C138.326 69.7546 139.562 69.7417 140.797 69.7417C140.797 71.0805 140.785 72.4194 140.797 73.7582H137.09V69.7546V69.7417Z" fill="#ACFE8E"/>
<path d="M80.0457 12.995C81.0754 13.0078 82.1052 12.9821 83.1349 12.995C83.1349 13.922 83.109 14.8488 83.1348 15.7757H80.0457V12.995Z" fill="#ACFE8E"/>
<path d="M13.7595 6.21059V69.7288H6.97639C6.86055 48.5646 7.06649 27.3748 6.97639 6.19774C9.22883 6.19774 11.5071 6.19774 13.7595 6.19774V6.21059Z" fill="#007760"/>
<path d="M86.8287 25.3278C87.5495 25.3278 88.2704 25.3279 88.9909 25.3279C89.0042 27.5807 88.9909 29.8594 88.9909 32.1123C101.836 32.1895 114.695 32.0608 127.527 32.1123V38.8966C125.584 38.8966 123.614 38.8966 121.671 38.8966C115.196 38.9353 108.71 38.8709 102.249 38.8966C102.249 40.5316 102.261 42.1923 102.249 43.8272C104.192 43.8272 106.162 43.8272 108.105 43.8272C108.105 46.0801 108.092 48.3587 108.105 50.6116C110.357 50.6245 112.635 50.6373 114.888 50.6116C114.888 52.4525 114.888 54.3191 114.888 56.1601C117.14 56.1601 119.418 56.1472 121.671 56.1601V62.9445L127.527 62.9445C127.527 65.1973 127.514 67.4759 127.527 69.7288C129.677 69.7288 131.852 69.7288 134.002 69.7288C134.002 71.6727 134.002 73.6424 134.002 75.5863C131.852 75.5863 129.677 75.5863 127.527 75.5863C127.527 73.6424 127.527 71.6727 127.527 69.7288C125.584 69.7288 123.615 69.7288 121.671 69.7288C121.671 67.4759 121.671 65.1973 121.671 62.9445C119.418 62.9445 117.14 62.9445 114.888 62.9445C114.888 60.6916 114.888 58.413 114.888 56.1601C112.635 56.1601 110.357 56.1601 108.105 56.1601C108.105 54.3191 108.118 52.4524 108.105 50.6116C106.162 50.6116 104.192 50.6116 102.249 50.6116C102.261 48.3587 102.235 46.0801 102.249 43.8272C99.9962 43.8143 97.718 43.8272 95.4655 43.8272V38.8966H88.9909C88.9909 36.6437 88.9909 34.3652 88.9909 32.1123C87.0477 32.1123 85.0783 32.1123 83.1348 32.1123C83.1348 29.8594 83.1348 27.5808 83.1348 25.3279C84.3704 25.3279 85.606 25.3278 86.8287 25.3278Z" fill="#16D473"/>
<path d="M83.1348 19.7794C83.1348 21.6203 83.1348 23.4869 83.1348 25.3279C80.8823 25.3279 78.6042 25.3279 76.3518 25.3279C76.3518 23.4869 76.3646 21.6203 76.3518 19.7794C78.6042 19.7794 80.8823 19.7794 83.1348 19.7794Z" fill="#16D473"/>
<path d="M69.5686 43.8272C67.6251 43.8272 65.6559 43.8272 63.7123 43.8272V38.8966H69.5686C69.5686 40.5316 69.5686 42.1923 69.5686 43.8272C71.8211 43.8401 74.0993 43.8272 76.3518 43.8272C76.3518 46.0801 76.3389 48.3587 76.3518 50.6116C78.6042 50.6373 80.8823 50.5987 83.1348 50.6116C83.1348 52.4524 83.122 54.3191 83.1348 56.1601C85.0783 56.1601 87.0477 56.1601 88.9909 56.1601C88.9909 58.413 88.9651 60.6916 88.9909 62.9445C91.1411 62.9445 93.3162 62.9445 95.4655 62.9445C95.4655 65.1973 95.4655 67.4759 95.4655 69.7288C97.718 69.7417 99.9962 69.7288 102.249 69.7288V75.5863H108.105V82.3707H114.888V89.1547H121.671V94.7031H127.527V101.488C131.942 101.5 136.37 101.462 140.785 101.488C140.81 99.2347 140.771 96.9565 140.785 94.7031C142.728 94.7031 144.698 94.7031 146.641 94.7031C146.641 92.8622 146.641 90.9956 146.641 89.1547C144.698 89.1547 142.728 89.1547 140.785 89.1547C140.785 86.9021 140.785 84.6236 140.785 82.3707C141.506 82.3707 142.226 82.3707 142.946 82.3707C144.183 82.3707 145.418 82.3707 146.641 82.3707C146.641 84.6235 146.641 86.9021 146.641 89.1547C148.893 89.168 151.171 89.1547 153.424 89.1547C153.424 90.9956 153.424 92.8622 153.424 94.7031C151.171 94.7031 148.893 94.6907 146.641 94.7031C146.641 96.9565 146.641 99.2347 146.641 101.488C144.698 101.488 142.728 101.488 140.785 101.488C140.759 103.74 140.797 106.02 140.785 108.272H134.002V114.13C131.852 114.13 129.677 114.13 127.527 114.13C127.566 120.502 127.501 126.875 127.527 133.247H134.002V140.031H140.785C140.785 142.284 140.785 144.563 140.785 146.816H146.641V152.673C142.432 152.686 138.21 152.673 134.002 152.673V146.816H127.527V152.673C125.584 152.673 123.614 152.673 121.671 152.673V146.816C115.197 146.842 108.722 146.79 102.249 146.816V140.031H108.105V133.247C110.357 133.26 112.635 133.247 114.888 133.247V127.699C117.14 127.699 119.418 127.699 121.671 127.699C121.671 125.445 121.645 123.167 121.671 120.914C121.697 118.661 121.658 116.382 121.671 114.13C123.614 114.13 125.584 114.142 127.527 114.13C127.527 112.186 127.527 110.216 127.527 108.272H114.888V101.488C110.679 101.475 106.458 101.5 102.249 101.488C102.223 99.2347 102.261 96.9565 102.249 94.7031C99.9962 94.7031 97.718 94.7164 95.4655 94.7031C95.4655 92.8622 95.4655 90.9956 95.4655 89.1547C95.4398 82.6796 95.4913 76.2042 95.4655 69.7288C93.3162 69.7159 91.1411 69.7288 88.9909 69.7288C88.9909 67.4759 89.0166 65.1973 88.9909 62.9445C87.0477 62.9445 85.0783 62.9445 83.1348 62.9445C83.1348 60.6916 83.1477 58.413 83.1348 56.1601C80.8823 56.1601 78.6042 56.1601 76.3518 56.1601C76.3518 54.3191 76.3646 52.4524 76.3518 50.6116C74.0993 50.5858 71.8211 50.6244 69.5686 50.6116C69.5686 48.3587 69.5815 46.0801 69.5686 43.8272Z" fill="#16D473"/>
<path d="M69.5686 6.21059C69.5686 8.46347 69.5686 10.7421 69.5686 12.9949C71.8211 12.9949 74.0993 12.9949 76.3518 12.9949C76.3518 15.2478 76.3389 17.5265 76.3518 19.7794C74.0993 19.7794 71.8211 19.7794 69.5686 19.7794C69.5686 17.5265 69.5686 15.2478 69.5686 12.9949C67.6251 12.9949 65.6559 12.995 63.7123 12.995C49.0263 12.9693 34.3147 12.995 19.6159 12.995H13.7596L13.7595 6.21059C32.3582 6.13335 50.9699 6.13335 69.5686 6.21059Z" fill="#16D473"/>
<path d="M140.797 75.5992C140.797 77.852 140.797 80.1307 140.797 82.3836C138.545 82.3836 136.266 82.3836 134.014 82.3836C134.014 80.1307 134.014 77.852 134.014 75.5992C136.266 75.5992 138.545 75.5992 140.797 75.5992Z" fill="#16D473"/>
<path d="M38.7295 82.3835V89.168H45.5126V94.7165C49.3095 94.7165 53.1194 94.7031 56.9164 94.7165C61.1252 94.7289 65.3469 94.7165 69.5558 94.7165C69.5558 96.9689 69.5558 99.248 69.5558 101.5H76.3389C76.3389 103.754 76.3389 106.032 76.3389 108.285H83.1219V114.142H88.9784V120.927H95.4522V127.711H102.235V133.26C104.179 133.26 106.148 133.26 108.092 133.26V140.044H102.235V146.828C99.9829 146.828 97.7047 146.828 95.4522 146.828L95.4522 152.686C93.3029 152.686 91.1278 152.686 88.9784 152.686C88.9784 150.742 88.9784 148.772 88.9784 146.828C87.0348 146.828 85.0654 146.828 83.1219 146.828C83.1219 144.576 83.1219 142.297 83.1219 140.044C80.8694 140.044 78.5913 140.07 76.3389 140.044C76.3131 137.791 76.3518 135.513 76.3389 133.26C74.0864 133.26 71.8082 133.26 69.5558 133.26C69.5558 131.419 69.5558 129.552 69.5558 127.711H63.6994V120.927C61.447 120.927 59.1688 120.94 56.9164 120.927C56.9164 118.674 56.9164 116.396 56.9164 114.142C54.7669 114.142 52.5917 114.142 50.4422 114.142C50.4422 112.198 50.4422 110.229 50.4422 108.285C48.8076 108.285 47.1471 108.298 45.5126 108.285C45.5126 106.032 45.5126 103.754 45.5126 101.5C43.2601 101.5 40.9819 101.5 38.7295 101.5C38.7038 99.248 38.7423 96.9689 38.7295 94.7165H32.8731V89.168C30.6206 89.168 28.3425 89.1805 26.0901 89.168C26.0901 86.915 26.0901 84.6364 26.0901 82.3835C30.2989 82.3835 34.5206 82.3964 38.7295 82.3835Z" fill="#007760"/>
<path d="M45.5126 114.142C47.1471 114.142 48.8076 114.142 50.4422 114.142C50.4422 116.396 50.4421 118.674 50.4421 120.927C52.5916 120.927 54.7669 120.914 56.9164 120.927C56.9164 123.18 56.9164 125.459 56.9164 127.711C53.1194 127.711 49.3095 127.699 45.5126 127.711L45.5125 120.927C43.26 120.927 40.9819 120.927 38.7295 120.927V114.142C40.9819 114.156 43.2601 114.142 45.5126 114.142Z" fill="#007760"/>
<path d="M146.654 101.5C148.906 101.5 151.185 101.5 153.437 101.5C153.437 103.754 153.437 106.032 153.437 108.285C153.501 123.076 153.386 137.894 153.437 152.686C151.185 152.686 148.906 152.686 146.654 152.686V146.828H140.797C140.797 144.576 140.797 142.297 140.797 140.044C140.771 133.672 140.823 127.3 140.797 120.927H146.654C146.654 114.452 146.654 107.976 146.654 101.5Z" fill="#007760"/>
<path d="M102.249 146.828C108.722 146.803 115.21 146.854 121.671 146.828V152.686C112.945 152.686 104.192 152.712 95.4655 152.686V146.828C97.718 146.828 99.9962 146.828 102.249 146.828Z" fill="#ACFE8E"/>
<path d="M127.54 152.686V146.828H134.014V152.686C131.865 152.686 129.69 152.686 127.54 152.686Z" fill="#ACFE8E"/>
<path d="M121.671 38.8966V43.8272C120.654 43.8272 119.611 43.8014 118.582 43.8272C118.569 42.7973 118.582 41.7674 118.582 40.7375H115.055C114.733 40.7762 114.888 43.2865 114.875 43.8272C114.836 46.0801 114.875 48.3587 114.875 50.6116C112.623 50.6373 110.345 50.6245 108.092 50.6116C108.079 48.3587 108.092 46.0801 108.092 43.8272C106.148 43.8272 104.179 43.8272 102.235 43.8272C102.235 42.1923 102.235 40.5316 102.235 38.8966C108.71 38.8709 115.197 38.9352 121.658 38.8966H121.671Z" fill="#ACFE8E"/>
<path d="M121.671 56.1729C123.615 56.1729 125.584 56.1729 127.527 56.1729C127.527 58.4258 127.527 60.7045 127.527 62.9573H121.671V56.1729Z" fill="#05351D"/>
<path d="M118.594 43.8272C118.634 46.08 118.569 48.3587 118.594 50.6116C117.359 50.6116 116.123 50.5988 114.888 50.6116C114.888 48.3588 114.85 46.08 114.888 43.8272C116.123 43.8143 117.359 43.8529 118.582 43.8272H118.594Z" fill="#1F1C1D"/>
<path d="M38.7295 101.5C38.7552 103.754 38.7166 106.032 38.7295 108.285C40.9819 108.285 43.2601 108.272 45.5126 108.285V114.142C43.2601 114.142 40.9819 114.156 38.7295 114.142C36.7859 114.142 34.8166 114.142 32.8731 114.142V101.5C34.8166 101.5 36.7859 101.5 38.7295 101.5Z" fill="#1F1C1D"/>
<path d="M38.7295 120.927C40.9819 120.914 43.26 120.927 45.5125 120.927L45.5126 127.711C41.3037 127.724 37.082 127.711 32.8731 127.711V120.927C34.8166 120.927 36.7859 120.927 38.7295 120.927Z" fill="#16D473"/>
<path d="M32.8732 50.6116C32.8732 52.4525 32.8732 54.3191 32.8732 56.16H38.7295V62.9444H45.5126V69.7288H50.4423V75.5862H56.9164V82.3706C54.767 82.3706 52.5917 82.3706 50.4423 82.3706C48.8076 82.3706 47.1472 82.3706 45.5126 82.3706V75.5862H38.7295V69.7288H13.7595L13.7596 62.9444H19.6159C19.6159 60.6916 19.6159 58.4129 19.6159 56.16C21.7654 56.16 23.9406 56.16 26.0901 56.16C26.0901 54.3191 26.0772 52.4525 26.0901 50.6116H32.8732Z" fill="#1F1C1D"/>
<path d="M45.5126 82.3835C47.1471 82.3835 48.8075 82.3835 50.4421 82.3835C50.4164 84.6364 50.4678 86.9149 50.4421 89.168C49.7214 89.1938 49.0006 89.1547 48.2798 89.168V92.8756H50.4421C50.4421 91.64 50.4293 90.4036 50.4421 89.168C52.5916 89.1031 54.7668 89.2196 56.9163 89.168L56.9164 94.7165C53.1194 94.7031 49.3095 94.7165 45.5126 94.7165V89.168H38.7295V82.3835C40.9819 82.3835 43.2601 82.3835 45.5126 82.3835Z" fill="#05351D"/>
<path d="M19.6159 12.995L19.6159 19.7794C19.6159 30.0525 19.6545 40.3385 19.6159 50.6116C19.6159 52.4525 19.6159 54.3191 19.6159 56.16L13.7596 56.1601L13.7596 12.995H19.6159Z" fill="#05351D"/>
<path d="M19.6159 56.1729C19.6159 58.4258 19.6159 60.7045 19.6159 62.9573H13.7596V56.1729H19.6159Z" fill="#16D473"/>
<path d="M63.7123 12.995V19.7794H56.9293V25.3279H50.4551V32.1123H45.5255C45.5255 36.013 45.5126 39.9265 45.5255 43.8272C47.16 43.8272 48.8205 43.8272 50.4551 43.8272C50.4551 46.0801 50.4422 48.3587 50.4551 50.6116C52.6046 50.6245 54.7798 50.6116 56.9293 50.6116C56.9293 52.4524 56.9164 54.3191 56.9293 56.1601C59.1817 56.173 61.4599 56.1601 63.7123 56.1601C63.7123 58.413 63.6866 60.6916 63.7123 62.9445C65.6559 62.9445 67.6251 62.9445 69.5686 62.9445C69.5686 65.1973 69.5558 67.4759 69.5686 69.7288C71.8211 69.7288 74.0993 69.7288 76.3518 69.7288C76.3518 71.6727 76.3389 73.6424 76.3518 75.5863C78.6042 75.612 80.8824 75.5734 83.1348 75.5863C83.1348 77.8391 83.1348 80.1178 83.1348 82.3707C85.0783 82.3707 87.0477 82.3707 88.9909 82.3707C88.9909 84.6236 88.9784 86.9021 88.9909 89.1547H95.4655C95.4655 90.9956 95.4655 92.8622 95.4655 94.7031C97.718 94.7164 99.9962 94.7031 102.249 94.7031C102.249 96.9565 102.223 99.2347 102.249 101.488C106.458 101.5 110.679 101.475 114.888 101.488V108.272H127.527C127.527 110.216 127.527 112.186 127.527 114.13C125.584 114.13 123.614 114.13 121.671 114.13C121.671 116.382 121.697 118.661 121.671 120.914H114.888V114.13H108.105V108.272H102.249C102.235 106.02 102.274 103.74 102.249 101.488C99.9962 101.488 97.718 101.488 95.4655 101.488C95.4655 99.2347 95.4655 96.9565 95.4655 94.7031C93.3162 94.6907 91.1402 94.7031 88.9909 94.7031C88.9909 92.8622 89.0042 90.9956 88.9909 89.1547H83.1348L83.1348 82.3707C80.8824 82.3707 78.6041 82.3706 76.3517 82.3706C76.3517 81.3407 76.3646 80.3108 76.3517 79.281C76.326 78.058 76.3518 76.8093 76.3518 75.5863C74.0993 75.5605 71.8211 75.5991 69.5686 75.5862C69.5686 73.6423 69.5686 71.6727 69.5686 69.7288C67.6251 69.7288 65.6558 69.7288 63.7123 69.7288C63.7123 67.4759 63.7381 65.1973 63.7123 62.9445C61.4599 62.9445 59.1816 62.9445 56.9292 62.9445C56.9292 60.6916 56.9421 58.413 56.9293 56.1601C54.7798 56.1472 52.6045 56.16 50.4551 56.16C50.4551 54.3191 50.4679 52.4524 50.4551 50.6116C48.8205 50.6116 47.16 50.6116 45.5254 50.6116C45.5254 48.3587 45.5255 46.0801 45.5255 43.8272C41.3166 43.8014 37.0948 43.8143 32.886 43.8272C32.886 46.08 32.8731 48.3587 32.886 50.6116H26.1029C26.1029 52.4524 26.1029 54.3191 26.1029 56.16C23.9534 56.16 21.7782 56.16 19.6287 56.16C19.6287 54.3191 19.6287 52.4524 19.6287 50.6116H26.1029C26.1158 48.3587 26.1029 46.08 26.1029 43.8272C28.3553 43.8272 30.6335 43.8272 32.886 43.8272C32.886 42.1923 32.8602 40.5316 32.886 38.8966H38.7423C38.7295 37.6736 38.768 36.4249 38.7423 35.2019C38.7295 34.172 38.7551 33.1421 38.7423 32.1123H32.886V25.3278H26.1029V19.7794H19.6287V12.995C34.3146 12.995 49.0263 12.9693 63.7251 12.995H63.7123Z" fill="#ACFE8E"/>
<path d="M76.3518 89.168V94.7165C78.6042 94.7165 80.8824 94.7165 83.1349 94.7165V101.5H88.9909V108.285H95.4655V114.142H102.249V120.927H108.105V127.711H114.888V133.26C112.635 133.26 110.357 133.26 108.105 133.26C106.162 133.26 104.192 133.26 102.249 133.26V127.711H95.4655V120.927H88.9909V114.142H83.1349V108.285H76.3518C76.3518 106.032 76.3518 103.754 76.3518 101.5C76.3518 99.248 76.3518 96.9689 76.3518 94.7165C74.0993 94.7165 71.8211 94.7165 69.5686 94.7165C69.5686 92.8756 69.5686 91.0089 69.5686 89.168C71.8211 89.1805 74.0993 89.168 76.3518 89.168Z" fill="#05351D"/>
<path d="M45.5125 43.8271C45.5125 46.08 45.5125 48.3587 45.5125 50.6116C47.1471 50.6116 48.8075 50.5987 50.4421 50.6116C50.4421 52.4525 50.4421 54.3191 50.4421 56.16C52.5916 56.16 54.7668 56.1471 56.9163 56.16C56.9292 58.4129 56.9163 60.6915 56.9163 62.9444C59.1687 62.9444 61.4469 62.9316 63.6993 62.9444C63.7251 65.1973 63.6865 67.4759 63.6993 69.7287C65.6429 69.7287 67.6122 69.7287 69.5557 69.7287C69.5557 71.6726 69.5557 73.6423 69.5557 75.5862C71.8081 75.5862 74.0863 75.5605 76.3388 75.5862C76.3388 76.8221 76.313 78.058 76.3388 79.281H69.5557C69.5557 82.5637 69.5686 85.8594 69.5557 89.1547C67.6122 89.1547 65.6429 89.1547 63.6993 89.1547V82.3706C61.4469 82.3706 59.1688 82.3706 56.9164 82.3706V75.5862H50.4423V69.7288H45.5126V62.9444H38.7295V56.16H32.8732C32.8732 54.3191 32.8732 52.4525 32.8732 50.6116C32.8603 48.3587 32.873 46.08 32.873 43.8271C37.0819 43.8143 41.3036 43.8014 45.5125 43.8271Z" fill="#05351D"/>
<path d="M56.9292 82.3835C59.1816 82.3835 61.4599 82.3835 63.7123 82.3835V89.168C65.6559 89.168 67.6251 89.168 69.5686 89.168C69.5686 91.0089 69.5686 92.8756 69.5686 94.7165C71.8211 94.7165 74.0993 94.7165 76.3518 94.7165C76.3518 96.9689 76.3518 99.248 76.3518 101.5H69.5686C69.5686 99.248 69.5686 96.9689 69.5686 94.7165C65.3598 94.7165 61.1381 94.7289 56.9292 94.7165V89.168C54.7798 89.2196 52.6046 89.1031 50.4551 89.168C50.4422 90.4036 50.4551 91.64 50.4551 92.8756H48.2927V89.168C49.0135 89.1547 49.7343 89.1938 50.4551 89.168C50.4808 86.9149 50.4293 84.6364 50.4551 82.3835C52.6046 82.3835 54.7798 82.3835 56.9292 82.3835Z" fill="#ACFE8E"/>
<path d="M76.3518 79.2939C76.3646 80.3237 76.3389 81.3536 76.3518 82.3836C78.6042 82.3836 80.8824 82.3707 83.1349 82.3836V89.168C80.8824 89.168 78.6042 89.168 76.3518 89.168C74.0993 89.168 71.8211 89.1805 69.5686 89.168C69.5815 85.8852 69.5686 82.5895 69.5686 79.2939H76.3518Z" fill="#ACFE8E"/>
<path d="M83.1349 89.168H88.9909C88.9909 91.0089 88.9909 92.8756 88.9909 94.7165C91.1411 94.7165 93.3162 94.7031 95.4655 94.7165C95.4655 96.9689 95.4655 99.248 95.4655 101.5C97.718 101.5 99.9962 101.5 102.249 101.5C102.274 103.754 102.235 106.032 102.249 108.285H108.105V114.142H114.888V120.927H121.671C121.645 123.18 121.684 125.459 121.671 127.711C119.418 127.711 117.14 127.711 114.888 127.711H108.105V120.927H102.249V114.142H95.4655V108.285H88.9909V101.5H83.1349V94.7165C80.8824 94.7165 78.6042 94.7165 76.3518 94.7165V89.168C78.6042 89.168 80.8824 89.168 83.1349 89.168Z" fill="#1F1C1D"/>
<path d="M114.888 43.8272C114.888 43.2865 114.733 40.789 115.068 40.7375H118.594C118.594 41.7674 118.582 42.7973 118.594 43.8272C117.359 43.8529 116.123 43.8143 114.901 43.8272H114.888Z" fill="#16D473"/>
<path d="M19.6159 19.7794H26.09V25.3279H32.8731V32.1123H38.7295C38.7423 33.1421 38.7166 34.1721 38.7295 35.202H32.8731C32.8731 36.4249 32.8859 37.6737 32.8731 38.8966C32.8473 40.5316 32.873 42.1922 32.873 43.8271C30.6206 43.8271 28.3424 43.8272 26.09 43.8272C26.09 46.0801 26.103 48.3587 26.0901 50.6116H19.6159C19.6545 40.3385 19.6159 30.0525 19.6159 19.7794Z" fill="#ACFE8E"/>
<path d="M38.7295 35.202C38.7551 36.4378 38.7167 37.6736 38.7295 38.9095H32.8731C32.886 37.6736 32.8731 36.4378 32.8731 35.202H38.7295Z" fill="#05351D"/>
</g>
<defs>
<clipPath id="clip0_28_11129">
<rect width="160.889" height="160" fill="white"/>
</clipPath>
</defs>
</svg>
