<?xml version="1.0" encoding="UTF-8"?>
<!-- Generator: visioncortex VTracer 0.6.5 -->
<svg version="1.1" xmlns="http://www.w3.org/2000/svg" width="3840" height="3840">
<path d="M0,0 L499,0 L499,77 L576,77 L576,154 L653,154 L653,269 L729,269 L729,653 L768,653 L768,730 L806,730 L806,806 L845,806 L845,845 L922,845 L922,1114 L806,1114 L806,1190 L768,1190 L768,1382 L729,1382 L729,1421 L653,1421 L653,1536 L768,1536 L768,1613 L806,1613 L806,1690 L768,1690 L768,1728 L653,1728 L653,1766 L499,1766 L499,1805 L384,1805 L384,1690 L345,1690 L345,1613 L307,1613 L307,1574 L269,1574 L269,1613 L153,1613 L153,1651 L192,1651 L192,1690 L230,1690 L230,1766 L192,1766 L192,1805 L153,1805 L153,1882 L115,1882 L115,1805 L-154,1805 L-154,1728 L-269,1728 L-269,1651 L-231,1651 L-231,1536 L-192,1536 L-192,1382 L-231,1382 L-231,1267 L-346,1267 L-346,960 L-269,960 L-269,922 L-231,922 L-231,806 L-192,806 L-192,691 L-231,691 L-231,653 L-269,653 L-269,538 L-346,538 L-346,461 L-269,461 L-269,269 L-192,269 L-192,154 L-154,154 L-154,115 L-115,115 L-115,77 L0,77 Z " fill="#011515" transform="translate(1613,1643)"/>
<path d="M0,0 L230,0 L230,230 L384,230 L384,422 L154,422 L154,307 L0,307 Z " fill="#032522" transform="translate(1536,2488)"/>
<path d="M0,0 L38,0 L38,192 L77,192 L77,230 L192,230 L192,268 L384,268 L384,307 L345,307 L345,384 L307,384 L307,307 L38,307 L38,230 L-77,230 L-77,153 L-39,153 L-39,38 L0,38 Z " fill="#000405" transform="translate(1421,3141)"/>
<path d="M0,0 L38,0 L38,153 L0,153 L0,499 L-39,500 L-77,499 L-77,384 L-154,384 L-154,307 L-77,307 L-77,115 L0,115 Z " fill="#000507" transform="translate(1421,1797)"/>
<path d="M0,0 L76,0 L76,384 L-77,384 L-77,230 L0,230 Z " fill="#000A0C" transform="translate(2266,1912)"/>
<path d="M0,0 L154,0 L154,192 L39,192 L39,77 L0,77 Z " fill="#A38500" transform="translate(2035,2142)"/>
<path d="M0,0 L77,0 L77,307 L0,307 Z " fill="#052D28" transform="translate(2112,2488)"/>
<path d="M0,0 L499,0 L499,38 L0,38 Z " fill="#0B1B1A" transform="translate(1613,1643)"/>
<path d="M0,0 L76,0 L76,231 L0,231 Z " fill="#042A26" transform="translate(2266,2526)"/>
<path d="M0,0 L77,0 L77,77 L154,77 L154,154 L77,154 L77,115 L0,115 Z " fill="#000A0D" transform="translate(1920,2142)"/>
<path d="M0,0 L154,0 L154,38 L39,38 L39,76 L-77,76 L-77,38 L0,38 Z " fill="#000607" transform="translate(2227,3333)"/>
<path d="M0,0 L77,0 L77,115 L0,115 Z " fill="#E0C501" transform="translate(2112,2142)"/>
<path d="M0,0 L38,0 L38,76 L1,77 L0,115 L-77,116 L-77,38 L0,38 Z " fill="#000204" transform="translate(1344,2565)"/>
<path d="M0,0 L39,0 L39,153 L0,153 L0,77 L-38,77 L-38,38 L0,38 Z " fill="#051E1C" transform="translate(2150,1720)"/>
<path d="M0,0 L39,0 L39,77 L77,77 L77,115 L39,116 L0,115 Z " fill="#000507" transform="translate(1382,2910)"/>
<path d="M0,0 L77,0 L77,77 L0,77 Z " fill="#011E1D" transform="translate(2189,2065)"/>
<path d="M0,0 L39,0 L39,116 L0,116 Z " fill="#000102" transform="translate(1382,2449)"/>
<path d="M0,0 L39,0 L39,77 L-38,77 L-38,38 L0,38 Z " fill="#000608" transform="translate(1382,3256)"/>
<path d="M0,0 L115,0 L115,38 L0,38 Z " fill="#644C0B" transform="translate(2074,2296)"/>
<path d="M0,0 L115,0 L115,38 L0,38 Z " fill="#000303" transform="translate(1498,1720)"/>
<path d="M0,0 L77,0 L77,39 L0,39 Z " fill="#9F7E00" transform="translate(2112,2257)"/>
<path d="M0,0 L39,0 L39,77 L0,77 Z " fill="#F2EC0A" transform="translate(2150,2142)"/>
<path d="M0,0 L77,0 L77,39 L0,39 Z " fill="#012220" transform="translate(2189,1873)"/>
<path d="M0,0 L39,0 L39,76 L0,76 Z " fill="#042824" transform="translate(2150,1797)"/>
<path d="M0,0 L77,0 L77,38 L0,38 Z " fill="#000302" transform="translate(2150,3371)"/>
<path d="M0,0 L77,0 L77,38 L0,38 Z " fill="#000001" transform="translate(2342,2795)"/>
<path d="M0,0 L38,0 L38,77 L0,77 Z " fill="#E6DA0A" transform="translate(2112,2142)"/>
<path d="M0,0 L38,0 L38,77 L0,77 Z " fill="#3D380D" transform="translate(1997,2142)"/>
<path d="M0,0 L38,0 L38,76 L0,76 Z " fill="#0E1D1D" transform="translate(1805,3333)"/>
<path d="M0,0 L76,0 L76,38 L0,38 Z " fill="#083730" transform="translate(1690,2872)"/>
<path d="M0,0 L39,0 L39,39 L0,40 Z " fill="#000505" transform="translate(2342,3217)"/>
<path d="M0,0 L39,0 L39,39 L0,39 Z " fill="#040D0D" transform="translate(2035,3409)"/>
<path d="M0,0 L39,0 L39,39 L0,39 Z " fill="#008000" transform="translate(1843,3217)"/>
<path d="M0,0 L39,0 L39,39 L0,39 Z " fill="#000000" transform="translate(1459,1758)"/>
<path d="M0,0 L39,0 L39,38 L0,39 Z " fill="#000000" transform="translate(2342,2296)"/>
<path d="M0,0 L40,0 L39,38 L0,38 Z " fill="#032322" transform="translate(1651,1720)"/>
<path d="M0,0 L38,0 L38,39 L0,39 Z " fill="#121E24" transform="translate(2074,3409)"/>
<path d="M0,0 L38,0 L38,39 L0,39 Z " fill="#0C1F25" transform="translate(1997,3409)"/>
<path d="M0,0 L38,0 L38,39 L0,39 Z " fill="#071614" transform="translate(1498,3409)"/>
<path d="M0,0 L39,0 L39,38 L0,38 Z " fill="#191919" transform="translate(2227,3371)"/>
<path d="M0,0 L39,0 L39,38 L0,38 Z " fill="#000D0D" transform="translate(1766,3371)"/>
<path d="M0,0 L38,0 L38,39 L0,39 Z " fill="#000000" transform="translate(2381,3294)"/>
<path d="M0,0 L38,0 L38,39 L0,39 Z " fill="#132626" transform="translate(1344,3294)"/>
<path d="M0,0 L38,0 L38,39 L0,39 Z " fill="#004040" transform="translate(1805,3217)"/>
<path d="M0,0 L39,0 L39,38 L0,38 Z " fill="#242424" transform="translate(2342,3179)"/>
<path d="M0,0 L39,0 L39,38 L0,38 Z " fill="#002424" transform="translate(2342,2949)"/>
<path d="M0,0 L39,0 L39,38 L0,38 Z " fill="#6C540B" transform="translate(2150,2296)"/>
<path d="M0,0 L38,0 L38,39 L0,39 Z " fill="#856B01" transform="translate(2112,2257)"/>
<path d="M0,0 L39,0 L39,38 L0,38 Z " fill="#0C0A08" transform="translate(2035,2219)"/>
<path d="M0,0 L39,0 L39,38 L0,38 Z " fill="#FEEA06" transform="translate(2150,2181)"/>
<path d="M0,0 L39,0 L39,38 L0,38 Z " fill="#9A7D00" transform="translate(2035,2181)"/>
<path d="M0,0 L39,0 L39,38 L0,38 Z " fill="#00080A" transform="translate(2227,1835)"/>
<path d="M0,0 L39,0 L39,38 L0,38 Z " fill="#0D2822" transform="translate(2227,1797)"/>
<path d="M0,0 L38,0 L38,39 L0,39 Z " fill="#112828" transform="translate(1498,1758)"/>
<path d="M0,0 L38,0 L38,39 L0,39 Z " fill="#000000" transform="translate(2074,1681)"/>
<path d="M0,0 L39,0 L38,38 L0,38 Z " fill="#010707" transform="translate(2266,3179)"/>
<path d="M0,0 L39,0 L38,38 L0,38 Z " fill="#032823" transform="translate(2112,1989)"/>
<path d="M0,0 L38,0 L38,38 L0,39 Z " fill="#000203" transform="translate(2266,1912)"/>
<path d="M0,0 L38,0 L38,38 L0,38 Z " fill="#002A2A" transform="translate(2381,3256)"/>
<path d="M0,0 L38,0 L38,38 L0,38 Z " fill="#000304" transform="translate(2381,2411)"/>
<path d="M0,0 L38,0 L38,38 L0,38 Z " fill="#46410D" transform="translate(2074,2296)"/>
<path d="M0,0 L38,0 L38,38 L0,38 Z " fill="#CEB807" transform="translate(2112,2219)"/>
<path d="M0,0 L38,0 L38,38 L0,38 Z " fill="#BD9602" transform="translate(2074,2219)"/>
<path d="M0,0 L38,0 L38,38 L0,38 Z " fill="#E7CC05" transform="translate(2112,2181)"/>
<path d="M0,0 L38,0 L38,38 L0,38 Z " fill="#142824" transform="translate(2304,1912)"/>
<path d="M0,0 L38,0 L38,38 L0,38 Z " fill="#242424" transform="translate(1344,1912)"/>
<path d="M0,0 L38,0 L38,38 L0,38 Z " fill="#010406" transform="translate(2189,1797)"/>
<path d="M0,0 L38,0 L38,38 L0,38 Z " fill="#010304" transform="translate(2112,1720)"/>
<path d="M0,0 L38,0 L38,38 L0,38 Z " fill="#102929" transform="translate(2074,1643)"/>
</svg>
