<?xml version="1.0" encoding="UTF-8"?>
<!-- Generator: visioncortex VTracer 0.6.5 -->
<svg version="1.1" xmlns="http://www.w3.org/2000/svg" width="150" height="84">
<path d="M0,0 L150,0 L150,84 L0,84 Z " fill="#281414" transform="translate(0,0)"/>
<path d="M0,0 L9,0 L11,6 L15,8 L15,10 L13,11 L13,16 L14,21 L17,20 L17,22 L19,22 L19,19 L30,19 L30,16 L18,16 L20,15 L20,13 L28,13 L20,11 L21,7 L26,8 L26,10 L29,8 L36,8 L36,11 L33,12 L35,16 L37,17 L38,14 L38,18 L44,18 L46,14 L50,14 L50,17 L52,17 L51,20 L48,20 L49,25 L48,27 L53,28 L54,32 L58,34 L60,38 L57,37 L49,37 L49,43 L40,43 L40,41 L45,41 L46,34 L44,35 L42,39 L39,38 L38,43 L31,43 L31,45 L34,45 L34,47 L37,46 L46,47 L45,52 L43,52 L43,57 L34,58 L35,53 L32,53 L31,55 L31,53 L29,53 L32,56 L31,61 L19,61 L7,59 L7,57 L5,57 L5,55 L-3,55 L-6,56 L-7,52 L-9,52 L-9,54 L-14,52 L-15,47 L-17,47 L-17,45 L-21,44 L-31,44 L-31,46 L-28,47 L-28,52 L-22,54 L-22,56 L-20,56 L-20,58 L-12,59 L-8,58 L-6,59 L-6,61 L-1,61 L-1,63 L1,63 L1,65 L3,65 L3,63 L5,63 L5,65 L8,65 L8,67 L0,67 L-3,64 L-9,65 L-10,62 L-26,61 L-27,56 L-32,55 L-33,57 L-34,52 L-39,52 L-41,55 L-53,56 L-53,59 L-49,61 L-42,67 L-39,68 L-39,70 L-36,70 L-36,75 L-35,72 L-27,73 L-25,70 L-20,73 L-20,75 L-14,74 L-14,72 L-9,72 L-4,73 L6,75 L5,73 L1,73 L0,70 L5,69 L9,71 L9,73 L18,76 L18,79 L-63,79 L-63,11 L-58,9 L-55,9 L-55,15 L-41,18 L-41,16 L-38,13 L-37,10 L-35,10 L-35,6 L-32,4 L-27,4 L-21,6 L-21,4 L-17,3 L-13,1 L-2,1 Z " fill="#1E1817" transform="translate(63,5)"/>
<path d="M0,0 L9,0 L11,6 L15,8 L15,10 L13,11 L13,16 L14,21 L17,20 L17,22 L19,22 L19,19 L30,19 L30,16 L18,16 L20,15 L20,13 L28,13 L20,11 L21,7 L26,8 L26,10 L29,8 L36,8 L36,11 L33,12 L35,16 L37,17 L38,14 L38,18 L44,18 L46,14 L50,14 L50,17 L52,17 L51,20 L48,20 L49,25 L48,27 L53,28 L54,32 L58,34 L60,38 L57,37 L49,37 L49,43 L40,43 L40,41 L45,41 L46,34 L44,35 L42,39 L39,38 L38,43 L31,43 L31,45 L34,45 L34,47 L37,46 L46,47 L45,52 L43,52 L43,57 L34,58 L35,53 L32,53 L31,55 L31,53 L29,53 L32,56 L31,61 L19,61 L7,59 L7,57 L5,57 L5,55 L-3,55 L-6,56 L-7,52 L-9,52 L-9,54 L-14,52 L-15,47 L-17,47 L-16,45 L-9,47 L-11,43 L-13,42 L-14,32 L-14,29 L-14,23 L-16,23 L-17,26 L-19,26 L-19,28 L-16,28 L-16,30 L-20,30 L-20,19 L-12,16 L-9,16 L-9,14 L-6,14 L-6,11 L-12,11 L-14,7 L-11,7 L-10,1 L-2,1 Z " fill="#100501" transform="translate(63,5)"/>
<path d="M0,0 L117,0 L117,3 L121,3 L124,6 L124,8 L116,7 L115,8 L115,10 L117,10 L116,16 L120,17 L120,19 L122,19 L126,26 L125,35 L125,43 L126,48 L129,48 L129,50 L122,53 L122,51 L116,51 L116,48 L118,48 L116,46 L112,48 L111,47 L111,42 L112,41 L120,41 L123,43 L119,38 L117,37 L115,33 L111,32 L111,25 L114,24 L115,22 L113,22 L113,19 L108,21 L107,23 L101,23 L96,20 L95,15 L92,14 L88,14 L84,13 L83,16 L89,16 L92,19 L83,18 L83,20 L93,21 L93,24 L82,24 L82,27 L77,26 L77,24 L75,23 L75,21 L75,16 L78,15 L77,13 L73,11 L72,6 L63,6 L56,7 L47,8 L44,10 L42,9 L42,11 L37,11 L36,10 L31,10 L28,11 L28,15 L26,15 L25,20 L22,21 L22,23 L8,21 L7,18 L8,14 L4,16 L0,16 Z " fill="#4E3522" transform="translate(0,0)"/>
<path d="M0,0 L7,0 L11,2 L11,4 L13,4 L14,9 L19,11 L19,9 L21,9 L23,12 L30,11 L33,12 L33,14 L35,14 L35,16 L48,17 L59,17 L60,13 L57,12 L57,10 L63,10 L63,14 L71,14 L71,9 L73,9 L74,6 L81,6 L84,7 L85,5 L88,6 L87,11 L77,8 L77,10 L81,11 L82,16 L79,17 L80,19 L75,21 L75,22 L70,22 L67,23 L72,25 L72,27 L74,27 L74,29 L77,29 L77,31 L75,31 L75,33 L78,34 L75,34 L75,36 L46,36 L46,33 L35,31 L37,30 L37,28 L30,27 L29,30 L33,30 L34,28 L34,32 L28,32 L24,31 L19,30 L14,29 L14,31 L8,32 L5,29 L3,28 L1,31 L-4,30 L-7,29 L-7,31 L-5,32 L-8,32 L-8,27 L-11,27 L-11,25 L-15,24 L-23,17 L-25,16 L-25,13 L-21,12 L-13,12 L-11,8 L-6,9 L-4,12 L1,13 L2,18 L6,17 L18,18 L20,20 L19,22 L22,20 L26,21 L28,23 L34,23 L36,24 L36,22 L33,22 L33,20 L31,20 L31,22 L29,22 L29,20 L27,20 L27,18 L22,18 L22,16 L17,16 L13,17 L10,17 L10,15 L8,15 L8,13 L6,13 L6,11 L-1,9 L-1,4 L-3,3 L-3,1 Z " fill="#1F1F26" transform="translate(35,48)"/>
<path d="M0,0 L5,1 L5,4 L6,23 L9,24 L9,29 L22,28 L22,30 L10,31 L10,34 L14,36 L21,42 L24,43 L24,45 L27,45 L27,50 L28,47 L36,48 L38,45 L43,48 L43,50 L49,49 L49,47 L54,47 L59,48 L69,50 L68,48 L64,48 L63,45 L68,44 L72,46 L72,48 L81,51 L81,54 L0,54 Z " fill="#555562" transform="translate(0,30)"/>
<path d="M0,0 L11,0 L11,43 L-10,43 L-10,32 L-12,32 L-10,28 L-7,28 L-8,13 L-7,11 L-13,10 L-13,7 L-6,6 L-5,2 L0,2 Z " fill="#4E3A39" transform="translate(139,0)"/>
<path d="M0,0 L1,4 L1,7 L7,8 L7,11 L4,11 L4,13 L-6,16 L-7,27 L-3,27 L-3,25 L-6,25 L-6,23 L-4,23 L-3,19 L0,20 L0,26 L0,29 L1,37 L0,39 L4,41 L4,44 L-3,43 L-9,36 L-13,35 L-14,39 L-17,38 L-17,36 L-19,36 L-20,38 L-23,38 L-23,46 L-32,46 L-33,41 L-32,38 L-27,37 L-31,36 L-31,17 L-28,16 L-27,21 L-26,19 L-15,18 L-14,12 L-9,10 L-7,6 L-5,5 L-5,7 L-3,6 L-3,3 L-1,3 Z " fill="#5D4838" transform="translate(50,8)"/>
<path d="M0,0 L56,0 L56,4 L62,4 L62,2 L65,3 L65,5 L61,7 L50,7 L44,10 L42,9 L42,11 L37,11 L36,10 L31,10 L28,11 L28,15 L26,15 L25,20 L22,21 L22,23 L8,21 L7,18 L8,14 L4,16 L0,16 Z " fill="#97766A" transform="translate(0,0)"/>
<path d="M0,0 L9,0 L10,3 L17,4 L17,31 L-7,31 L-7,29 L-4,29 L-3,25 L-8,24 L-9,21 L-7,16 L-5,12 L-9,12 L-9,9 L-4,9 L-3,2 Z " fill="#63525B" transform="translate(133,53)"/>
<path d="M0,0 L5,1 L7,4 L12,5 L13,10 L17,9 L29,10 L31,12 L30,15 L37,17 L38,20 L35,23 L30,22 L25,21 L25,23 L19,24 L16,21 L14,20 L12,23 L7,22 L4,21 L4,23 L6,24 L3,24 L3,19 L0,19 L0,17 L-4,16 L-12,9 L-14,8 L-14,5 L-10,4 L-2,4 Z " fill="#4F4D55" transform="translate(24,56)"/>
<path d="M0,0 L11,0 L11,2 L9,2 L9,6 L13,6 L13,10 L18,9 L19,5 L17,5 L17,2 L21,2 L21,4 L26,5 L26,9 L29,9 L29,7 L33,8 L36,9 L45,7 L51,7 L51,9 L53,10 L51,10 L51,15 L42,16 L43,11 L40,11 L39,13 L39,11 L37,11 L40,14 L39,19 L27,19 L15,17 L15,15 L13,15 L13,13 L5,13 L2,14 L1,10 L-1,10 L-1,12 L-6,10 L-7,5 L-9,5 L-8,3 L-1,5 L-2,1 Z " fill="#1B1510" transform="translate(55,47)"/>
<path d="M0,0 L22,0 L22,2 L17,3 L16,7 L9,7 L11,11 L15,11 L15,18 L16,28 L11,30 L10,32 L12,32 L13,37 L11,37 L11,44 L20,44 L21,48 L15,49 L12,48 L9,48 L7,42 L7,30 L8,26 L5,22 L5,19 L3,19 L2,17 L-1,16 L0,10 L-2,10 L-3,5 L7,8 L7,6 L4,5 L4,3 L0,3 Z " fill="#170D0B" transform="translate(117,0)"/>
<path d="M0,0 L5,1 L10,2 L18,0 L17,6 L12,6 L12,9 L16,9 L15,13 L13,19 L13,21 L18,21 L19,23 L17,23 L17,26 L14,26 L14,28 L-2,28 L-2,23 L0,23 L0,21 L-3,21 L-3,19 L-5,19 L-5,17 L-10,17 L-10,15 L-8,15 L-7,13 L-3,12 L2,10 L1,8 L5,8 L3,3 L0,2 Z " fill="#43352F" transform="translate(112,56)"/>
<path d="M0,0 L7,0 L11,4 L11,7 L9,8 L10,12 L10,14 L6,15 L7,18 L4,20 L3,23 L1,23 L0,29 L-2,31 L-2,28 L-9,27 L-9,24 L-11,24 L-12,19 L-14,19 L-15,22 L-17,22 L-17,24 L-14,24 L-14,26 L-18,26 L-18,15 L-10,12 L-7,12 L-7,10 L0,9 L-1,1 Z " fill="#241107" transform="translate(61,9)"/>
<path d="M0,0 L7,0 L11,2 L11,4 L13,4 L14,9 L19,11 L19,9 L21,9 L23,12 L30,11 L33,12 L33,14 L35,14 L35,16 L41,16 L41,18 L53,19 L57,19 L57,21 L46,23 L33,22 L33,20 L31,20 L31,22 L29,22 L29,20 L27,20 L27,18 L22,18 L22,16 L17,16 L13,17 L10,17 L10,15 L8,15 L8,13 L6,13 L6,11 L-1,9 L-1,4 L-3,3 L-3,1 Z " fill="#525055" transform="translate(35,48)"/>
<path d="M0,0 L9,1 L12,4 L12,6 L9,6 L9,8 L18,7 L20,6 L22,2 L23,2 L24,8 L28,12 L28,15 L26,15 L25,20 L22,21 L22,23 L8,21 L7,18 L8,14 L4,16 L0,16 Z " fill="#475965" transform="translate(0,0)"/>
<path d="M0,0 L4,2 L6,6 L6,10 L8,10 L8,27 L-13,27 L-13,21 L-11,21 L-11,16 L-10,15 L0,14 L0,12 L-7,11 L-9,5 L-9,2 L-4,3 L-3,1 Z " fill="#716D71" transform="translate(142,16)"/>
<path d="M0,0 L3,0 L2,6 L0,3 L-1,5 L-3,5 L-3,8 L-1,9 L-6,8 L-11,13 L-14,14 L-14,21 L-26,21 L-25,24 L-28,23 L-30,20 L-31,22 L-35,22 L-34,24 L-34,34 L-35,38 L-37,38 L-39,31 L-35,30 L-35,28 L-39,28 L-39,22 L-35,20 L-32,20 L-32,17 L-45,16 L-44,11 L-42,10 L-42,14 L-28,17 L-28,15 L-25,12 L-24,9 L-22,9 L-22,5 L-19,3 L-14,3 L-8,5 L-8,3 L-4,2 Z " fill="#321B13" transform="translate(50,6)"/>
<path d="M0,0 L3,0 L4,3 L8,5 L8,7 L10,7 L14,14 L13,23 L13,31 L14,36 L17,36 L17,38 L10,41 L10,39 L4,39 L4,36 L6,36 L4,34 L0,36 L-1,35 L-1,30 L0,29 L8,29 L11,31 L7,26 L5,25 L3,21 L-1,20 L0,14 L3,13 L3,7 L0,5 Z " fill="#301E18" transform="translate(112,12)"/>
<path d="M0,0 L10,1 L10,9 L8,9 L8,13 L14,13 L15,14 L15,20 L11,21 L10,23 L10,20 L13,19 L14,17 L12,17 L12,14 L7,16 L6,18 L0,18 L-5,15 L-6,10 L-9,9 L-13,9 L-17,8 L-18,11 L-12,11 L-9,14 L-18,13 L-18,15 L-20,14 L-22,8 L-21,2 L-20,4 L-16,3 L1,4 Z " fill="#2D1A11" transform="translate(101,5)"/>
<path d="M0,0 L5,1 L7,2 L7,4 L16,7 L16,10 L-26,10 L-26,8 L-35,8 L-35,5 L-37,5 L-37,3 L-29,4 L-27,1 L-22,4 L-22,6 L-16,5 L-16,3 L-11,3 L-6,4 L4,6 L3,4 L-1,4 L-2,1 Z " fill="#0E1926" transform="translate(65,74)"/>
<path d="M0,0 L4,0 L4,3 L6,3 L5,6 L2,6 L3,11 L2,13 L7,14 L8,18 L12,20 L14,24 L11,23 L3,23 L3,29 L-6,29 L-6,27 L-1,27 L0,20 L-2,21 L-4,25 L-7,24 L-8,22 L-10,25 L-13,24 L-12,19 L-10,17 L-9,14 L-11,13 L-9,10 L-3,9 L-2,13 L-3,18 L0,18 L1,16 L-1,16 L-1,10 L2,2 L1,1 L0,4 L-2,2 Z " fill="#1F0C04" transform="translate(109,19)"/>
<path d="M0,0 L11,0 L11,2 L9,2 L9,6 L13,6 L13,10 L18,9 L19,6 L23,5 L23,11 L21,12 L21,14 L24,14 L24,16 L19,16 L18,16 L15,17 L15,15 L13,15 L13,13 L5,13 L2,14 L1,10 L-1,10 L-1,12 L-6,10 L-7,5 L-9,5 L-8,3 L-1,5 L-2,1 Z " fill="#4B321F" transform="translate(55,47)"/>
<path d="M0,0 L4,1 L6,3 L12,3 L14,4 L14,2 L29,2 L29,4 L31,5 L29,5 L29,7 L26,7 L29,10 L29,12 L33,11 L33,16 L24,16 L24,13 L13,11 L15,10 L15,8 L8,7 L7,10 L11,10 L12,8 L12,12 L6,12 L2,9 L5,8 L4,6 L-3,3 Z " fill="#38343B" transform="translate(57,68)"/>
<path d="M0,0 L25,0 L25,3 L29,3 L32,6 L32,8 L24,7 L23,8 L23,10 L25,10 L24,15 L23,12 L20,12 L20,17 L22,18 L17,18 L17,14 L19,14 L19,6 L10,6 L10,9 L0,9 L-9,8 L-10,6 L3,5 L0,4 Z " fill="#2F1C11" transform="translate(92,0)"/>
<path d="M0,0 L9,0 L10,3 L17,4 L17,9 L8,9 L8,11 L13,12 L13,16 L10,17 L9,19 L7,19 L5,14 L0,14 L0,11 L-9,11 L-9,9 L-4,9 L-3,2 Z " fill="#786968" transform="translate(133,53)"/>
<path d="M0,0 L3,1 L20,1 L23,2 L23,4 L26,4 L26,6 L24,6 L24,8 L27,9 L24,9 L24,11 L4,11 L4,6 L0,7 L0,5 L-3,4 L-3,2 L0,2 Z " fill="#7D8A95" transform="translate(86,73)"/>
<path d="M0,0 L7,1 L10,3 L10,5 L12,5 L14,9 L19,11 L19,14 L21,16 L0,16 Z " fill="#07070C" transform="translate(0,68)"/>
<path d="M0,0 L7,0 L11,4 L11,7 L9,8 L10,12 L10,14 L6,15 L7,18 L3,18 L3,11 L1,13 L0,17 L-3,15 L-7,17 L-14,17 L-14,14 L-10,12 L-7,12 L-7,10 L0,9 L-1,1 Z " fill="#2E190F" transform="translate(61,9)"/>
<path d="M0,0 L6,0 L6,4 L8,6 L11,7 L11,9 L13,10 L7,13 L2,13 L2,15 L-2,14 L-10,7 L-12,6 L-12,3 L-8,2 L0,2 Z " fill="#A6A2A9" transform="translate(22,58)"/>
<path d="M0,0 L4,0 L5,6 L5,14 L4,16 L9,16 L8,18 L-4,18 L-2,22 L-4,25 L-8,24 L-9,5 L-4,4 L-4,6 L0,6 L0,8 L-3,9 L-2,16 L0,16 Z " fill="#060407" transform="translate(15,28)"/>
<path d="M0,0 L5,1 L5,4 L6,23 L9,24 L9,29 L13,30 L0,32 Z " fill="#251B21" transform="translate(0,30)"/>
<path d="M0,0 L4,0 L4,13 L-17,13 L-17,7 L-7,4 L-2,2 L2,1 Z " fill="#6B5E5E" transform="translate(146,30)"/>
<path d="M0,0 L7,0 L9,1 L9,10 L-15,10 L-15,8 L-12,8 L-11,3 L-3,1 L-1,1 Z " fill="#2B5363" transform="translate(141,74)"/>
<path d="M0,0 L16,0 L16,4 L22,4 L22,2 L25,3 L25,5 L21,7 L10,7 L4,10 L2,9 L2,11 L-2,11 L-5,6 L-7,4 L-1,2 Z " fill="#887461" transform="translate(40,0)"/>
<path d="M0,0 L1,0 L2,5 L4,2 L4,4 L9,2 L13,0 L13,6 L18,6 L19,8 L17,8 L17,11 L14,11 L14,13 L-2,13 L-2,8 L0,8 L0,6 L-3,6 L-3,4 L0,4 Z " fill="#302D2F" transform="translate(112,71)"/>
<path d="M0,0 L3,0 L3,2 L8,2 L8,5 L6,5 L5,11 L3,15 L0,14 L0,12 L-2,12 L-3,14 L-6,14 L-6,22 L-15,22 L-16,17 L-15,14 L-3,11 L0,11 Z " fill="#563D32" transform="translate(33,32)"/>
<path d="M0,0 L1,0 L1,6 L22,6 L22,20 L15,20 L14,16 L5,16 L5,14 L10,13 L12,12 L12,7 L0,7 Z " fill="#3B2D2C" transform="translate(128,37)"/>
<path d="M0,0 L4,1 L3,6 L-7,3 L-7,5 L-3,6 L-2,11 L-5,12 L-4,14 L-9,16 L-12,16 L-18,14 L-18,11 L-14,10 L-13,4 L-11,4 L-10,1 L-3,1 L0,2 Z " fill="#514947" transform="translate(119,53)"/>
<path d="M0,0 L2,0 L2,7 L0,7 L0,11 L6,11 L7,12 L7,18 L3,19 L2,21 L2,18 L5,17 L6,15 L4,15 L4,12 L-1,14 L-2,16 L-8,16 L-13,13 L-14,8 L-10,6 L-6,2 L-4,2 L-5,6 L-3,6 L-2,2 L-1,5 Z " fill="#332214" transform="translate(109,7)"/>
<path d="M0,0 L22,0 L22,2 L17,3 L16,7 L9,7 L10,12 L4,10 L4,14 L-1,15 L0,10 L-2,10 L-3,5 L7,8 L7,6 L4,5 L4,3 L0,3 Z " fill="#0D0805" transform="translate(117,0)"/>
<path d="M0,0 L11,0 L11,17 L7,13 L7,10 L5,10 L5,13 L2,13 L3,6 L-6,7 L-5,2 L0,2 Z " fill="#302627" transform="translate(139,0)"/>
<path d="M0,0 L2,1 L4,5 L10,7 L12,8 L12,10 L19,10 L19,5 L22,4 L23,12 L25,12 L25,14 L3,14 L1,13 L0,3 Z " fill="#2E1608" transform="translate(49,34)"/>
<path d="M0,0 L3,0 L4,3 L6,0 L9,0 L9,3 L13,3 L13,10 L16,11 L14,11 L14,13 L0,11 L-1,8 L0,4 L-4,6 L-8,6 L-8,3 L0,3 Z " fill="#767578" transform="translate(8,10)"/>
<path d="M0,0 L1,4 L15,7 L16,5 L16,7 L26,10 L28,6 L29,10 L29,11 L17,11 L18,14 L15,13 L13,10 L12,12 L8,12 L9,14 L9,24 L8,28 L6,28 L4,21 L8,20 L8,18 L4,18 L4,12 L8,10 L11,10 L11,7 L-2,6 L-1,1 Z " fill="#595150" transform="translate(7,16)"/>
<path d="M0,0 L5,1 L7,4 L12,5 L13,10 L17,9 L29,10 L31,12 L28,13 L19,13 L18,15 L13,15 L13,17 L6,18 L6,15 L10,12 L8,9 L4,8 L3,6 L0,4 L4,4 L4,2 L-1,2 Z " fill="#2F2524" transform="translate(24,56)"/>
<path d="M0,0 L3,0 L1,5 L0,8 L8,8 L13,9 L13,12 L6,13 L5,16 L-5,15 L-5,2 Z " fill="#030204" transform="translate(5,14)"/>
<path d="M0,0 L4,1 L1,2 L0,6 L-4,7 L-4,26 L0,26 L2,24 L3,27 L5,23 L8,33 L-2,33 L-3,28 L-5,27 L-6,20 L-6,8 L-8,7 L-7,5 L-11,3 L-6,2 L-1,4 Z " fill="#160D15" transform="translate(11,26)"/>
<path d="M0,0 L5,1 L7,2 L7,4 L16,7 L16,10 L-6,10 L-6,4 L4,6 L3,4 L-1,4 L-2,1 Z " fill="#090504" transform="translate(65,74)"/>
<path d="M0,0 L2,0 L1,7 L-4,7 L-4,9 L7,8 L7,15 L2,15 L2,13 L-10,13 L-10,11 L-13,11 L-13,9 L-6,8 L-5,4 L-2,4 Z " fill="#241009" transform="translate(107,39)"/>
<path d="M0,0 L4,0 L4,2 L6,2 L6,4 L14,5 L18,4 L20,5 L20,7 L25,7 L25,9 L27,9 L27,11 L29,11 L29,9 L31,9 L31,11 L34,11 L34,13 L26,13 L23,10 L17,11 L16,8 L0,7 Z " fill="#201F27" transform="translate(37,59)"/>
<path d="M0,0 L4,0 L5,6 L8,5 L9,9 L8,11 L12,13 L12,16 L5,15 L-1,8 L-4,7 L-3,2 L0,2 Z " fill="#74614E" transform="translate(42,36)"/>
<path d="M0,0 L6,0 L8,1 L8,3 L10,3 L10,5 L16,5 L16,7 L28,8 L32,8 L32,10 L18,12 L17,9 L8,8 L2,5 L-2,1 Z " fill="#73747A" transform="translate(60,59)"/>
<path d="M0,0 L13,1 L13,3 L19,3 L19,5 L8,4 L8,6 L10,6 L10,9 L0,9 L-9,8 L-10,6 L3,5 L0,4 Z " fill="#523D33" transform="translate(92,0)"/>
<path d="M0,0 L3,0 L4,3 L8,5 L8,7 L10,7 L14,14 L14,17 L12,17 L11,13 L6,13 L5,18 L0,18 L0,14 L3,13 L3,7 L0,5 Z " fill="#624D3F" transform="translate(112,12)"/>
<path d="M0,0 L7,1 L7,3 L14,5 L15,8 L10,10 L10,8 L1,8 L-6,5 L-4,4 L-4,2 Z " fill="#989CA3" transform="translate(47,68)"/>
<path d="M0,0 L1,0 L2,5 L6,7 L5,11 L7,13 L7,18 L0,17 L0,19 L3,20 L-2,20 L-2,1 Z " fill="#635F65" transform="translate(21,24)"/>
<path d="M0,0 L2,2 L-5,8 L-11,10 L-13,11 L-14,9 L-19,9 L-19,7 L-24,7 L-24,5 L-22,5 L-21,3 L-11,2 L-9,4 L0,2 Z " fill="#20191C" transform="translate(126,66)"/>
<path d="M0,0 L1,0 L2,6 L6,10 L6,13 L4,13 L3,18 L-1,18 L-2,20 L-1,11 L-5,11 L-5,6 L-2,4 Z " fill="#87817B" transform="translate(22,2)"/>
<path d="M0,0 L8,0 L6,5 L4,5 L4,10 L3,11 L-9,11 L-9,9 L-4,9 L-3,2 Z " fill="#7B7477" transform="translate(133,53)"/>
<path d="M0,0 L5,0 L6,4 L5,6 L12,5 L17,6 L17,9 L6,9 L6,12 L1,11 L1,9 L-1,8 L-1,6 L-1,1 Z " fill="#2B1A14" transform="translate(76,15)"/>
<path d="M0,0 L4,1 L7,4 L9,14 L10,17 L7,16 L5,12 L3,14 L1,12 L1,9 L-1,9 L-2,7 L-5,5 L0,4 Z " fill="#281E19" transform="translate(121,10)"/>
<path d="M0,0 L9,1 L9,3 L11,3 L12,8 L17,10 L18,8 L18,13 L14,13 L14,11 L10,11 L8,9 L4,9 L2,3 L0,2 Z " fill="#BBB1B2" transform="translate(37,49)"/>
<path d="M0,0 L1,0 L1,6 L-1,7 L-1,9 L2,9 L2,11 L-3,11 L-4,11 L-7,12 L-7,10 L-9,10 L-9,8 L-18,8 L-16,4 L-16,6 L-7,4 L-4,4 L-3,1 Z " fill="#494145" transform="translate(77,52)"/>
<path d="M0,0 L23,0 L26,2 L23,2 L23,4 L29,5 L29,6 L16,6 L9,5 L10,3 L0,1 Z " fill="#261006" transform="translate(69,0)"/>
<path d="M0,0 L6,3 L6,5 L9,5 L9,10 L12,10 L12,12 L21,12 L21,14 L3,14 L3,11 L5,11 L5,9 L8,9 L3,7 L0,7 Z " fill="#616B76" transform="translate(18,70)"/>
<path d="M0,0 L5,1 L5,4 L6,19 L0,18 Z " fill="#524950" transform="translate(0,30)"/>
<path d="M0,0 L9,0 L9,13 L0,13 L-3,15 L-2,11 L1,11 L2,7 L5,7 L5,3 L0,2 Z " fill="#493B3A" transform="translate(141,62)"/>
<path d="M0,0 L5,0 L5,2 L7,2 L7,14 L5,14 L5,16 L-4,15 L-4,13 L3,14 L1,8 L0,4 Z " fill="#C0C0C6" transform="translate(25,28)"/>
<path d="M0,0 L6,0 L6,4 L14,4 L13,6 L8,6 L2,10 L1,12 L-4,12 L0,11 L0,9 L-10,10 L-16,8 L-16,7 L2,7 L3,3 L0,2 Z " fill="#44413B" transform="translate(92,58)"/>
<path d="M0,0 L9,1 L7,2 L7,4 L10,4 L10,6 L13,5 L22,6 L21,10 L19,10 L19,8 L8,10 L5,11 L5,9 L7,9 L7,6 L3,5 L0,3 Z " fill="#1B0501" transform="translate(87,46)"/>
<path d="M0,0 L1,3 L4,3 L5,0 L7,3 L14,5 L11,8 L1,10 L-2,6 Z " fill="#B9B6BF" transform="translate(21,62)"/>
<path d="M0,0 L7,0 L9,1 L9,10 L3,10 L3,8 L1,8 L1,5 L4,5 L4,3 L0,5 L-3,5 L-1,1 Z " fill="#386778" transform="translate(141,74)"/>
<path d="M0,0 L3,0 L3,2 L-9,3 L-8,12 L-12,10 L-18,8 L-18,3 Z " fill="#6F676F" transform="translate(19,58)"/>
<path d="M0,0 L2,0 L1,4 L3,4 L4,0 L5,5 L3,5 L2,9 L-3,10 L-3,13 L-7,11 L-8,6 L-4,4 Z M5,3 Z " fill="#1E0F04" transform="translate(103,9)"/>
<path d="M0,0 L2,4 L7,6 L8,9 L5,10 L5,12 L12,12 L12,13 L4,14 L-5,12 L-7,9 L1,11 L1,9 L-2,9 L-3,6 L0,6 Z " fill="#251C16" transform="translate(78,52)"/>
<path d="M0,0 L1,2 L3,3 L0,5 L0,8 L-2,8 L-2,17 L-5,20 L-7,20 L-7,18 L-9,17 L-7,17 L-7,10 L-5,5 L-3,5 L-1,1 Z " fill="#A99D94" transform="translate(44,13)"/>
<path d="M0,0 L17,0 L13,8 L4,8 L4,6 L7,6 L6,2 L0,1 Z " fill="#232733" transform="translate(5,0)"/>
<path d="M0,0 L5,0 L4,4 L5,6 L0,8 L-3,8 L-9,6 L-9,3 Z " fill="#716E70" transform="translate(110,61)"/>
<path d="M0,0 L5,0 L7,5 L7,14 L5,12 L5,9 L-7,7 L-7,5 L-1,4 Z " fill="#3A261A" transform="translate(118,25)"/>
<path d="M0,0 L8,0 L8,4 L14,4 L14,2 L17,3 L17,5 L13,7 L0,7 Z " fill="#6D5B4F" transform="translate(48,0)"/>
<path d="M0,0 L5,0 L4,5 L-3,8 L-12,8 L-12,5 L-2,1 Z " fill="#6F686A" transform="translate(142,32)"/>
<path d="M0,0 L7,1 L4,2 L4,9 L8,6 L8,12 L4,13 L4,10 L-2,10 L-4,6 L-1,6 Z " fill="#1E0902" transform="translate(53,6)"/>
<path d="M0,0 L2,0 L2,3 L5,4 L5,6 L1,6 L1,9 L6,10 L4,14 L4,11 L-3,10 L-3,7 L-5,7 L-5,2 Z " fill="#341D10" transform="translate(55,26)"/>
<path d="M0,0 L3,0 L3,4 L8,1 L8,5 L6,5 L4,9 L3,11 L-3,10 L-7,8 L-7,6 L-4,6 L-3,4 L-3,7 L0,7 L-1,4 L1,4 Z " fill="#170703" transform="translate(30,15)"/>
<path d="M0,0 L3,0 L3,9 L-5,9 L-6,4 L-5,1 Z " fill="#5C4F50" transform="translate(23,45)"/>
<path d="M0,0 L3,1 L0,2 L0,5 L5,7 L14,8 L14,10 L16,11 L11,10 L6,9 L6,11 L0,12 L-3,9 L-4,3 L-1,3 Z " fill="#4F5259" transform="translate(43,68)"/>
<path d="M0,0 L1,3 L0,4 L-1,14 L1,15 L-2,15 L-2,13 L-5,13 L-5,24 L-8,23 L-6,23 L-6,11 L-8,11 L-8,9 L-14,10 L-14,8 L-3,7 L-2,1 Z " fill="#73675F" transform="translate(38,19)"/>
<path d="M0,0 L4,0 L4,2 L0,2 L1,4 L1,14 L0,18 L-2,18 L-4,11 L0,10 L0,8 L-4,8 L-4,2 Z " fill="#292021" transform="translate(15,26)"/>
<path d="M0,0 L6,0 L8,1 L8,3 L11,3 L11,1 L13,1 L13,3 L17,2 L17,7 L8,7 L8,4 L1,3 Z " fill="#524D48" transform="translate(73,77)"/>
<path d="M0,0 L17,0 L17,2 L12,3 L11,7 L5,7 L3,3 L0,2 Z " fill="#120B11" transform="translate(122,0)"/>
<path d="M0,0 L5,1 L7,4 L12,5 L14,10 L14,13 L10,12 L8,9 L4,8 L3,6 L0,4 L4,4 L4,2 L-1,2 Z " fill="#5C575A" transform="translate(24,56)"/>
<path d="M0,0 L7,1 L9,6 L9,9 L4,10 L3,12 L4,5 L-2,4 L-2,1 Z " fill="#402D28" transform="translate(128,6)"/>
<path d="M0,0 L11,0 L11,12 L6,7 L6,5 L4,5 L4,2 L0,2 Z " fill="#4A5A66" transform="translate(139,0)"/>
<path d="M0,0 L6,2 L10,8 L6,7 L-5,7 L-9,6 L-9,4 L-3,2 L0,5 Z " fill="#2C180E" transform="translate(36,42)"/>
<path d="M0,0 L9,2 L9,4 L11,5 L-1,6 L-2,11 L-4,9 L-4,6 L-6,6 L-4,2 L-1,2 Z " fill="#2B282D" transform="translate(133,26)"/>
<path d="M0,0 L3,0 L2,6 L0,3 L-1,5 L-3,5 L-3,8 L-1,9 L-6,8 L-9,12 L-11,11 L-9,7 L-12,6 L-8,5 L-8,3 L-4,2 Z " fill="#452E21" transform="translate(50,6)"/>
<path d="M0,0 L1,2 L4,3 L1,3 L1,5 L-16,5 L-16,2 Z " fill="#53606A" transform="translate(109,79)"/>
<path d="M0,0 L7,0 L6,5 L9,6 L9,8 L6,8 L6,13 L1,13 L0,10 L2,5 L4,1 Z " fill="#534D59" transform="translate(124,64)"/>
<path d="M0,0 L5,1 L5,3 L10,4 L10,6 L3,9 L3,7 L-3,7 L-3,4 L-1,3 Z " fill="#533E3D" transform="translate(119,44)"/>
<path d="M0,0 L6,0 L6,4 L8,4 L7,9 L2,9 L2,5 L-2,5 L-2,1 Z " fill="#180501" transform="translate(66,48)"/>
<path d="M0,0 L9,1 L12,4 L12,6 L0,6 Z " fill="#829AAA" transform="translate(0,0)"/>
<path d="M0,0 L9,1 L8,3 L0,6 L-2,6 L-3,8 L-4,5 L-10,5 L-7,3 L-3,3 L-3,1 Z " fill="#2E2421" transform="translate(119,64)"/>
<path d="M0,0 L3,1 L3,7 L3,10 L3,14 L-1,16 L-1,9 L-5,8 L0,8 L0,6 L-3,6 L-3,4 L-1,4 Z " fill="#584230" transform="translate(47,27)"/>
<path d="M0,0 L4,1 L7,6 L7,10 L11,10 L12,8 L12,12 L6,12 L2,9 L5,8 L4,6 L-3,3 Z " fill="#454147" transform="translate(57,68)"/>
<path d="M0,0 L7,2 L5,3 L2,2 L3,6 L-1,5 L-2,7 L0,8 L-1,10 L-6,8 L-7,3 L-9,3 L-8,1 L0,3 Z " fill="#75614F" transform="translate(55,49)"/>
<path d="M0,0 L7,0 L11,4 L11,7 L1,8 Z " fill="#4F3E3B" transform="translate(61,9)"/>
<path d="M0,0 L2,0 L2,3 L9,4 L12,5 L12,10 L18,10 L14,12 L10,11 L11,9 L2,6 Z " fill="#200801" transform="translate(50,33)"/>
<path d="M0,0 L4,2 L6,6 L6,10 L8,10 L8,12 L5,12 L5,10 L2,10 L-1,4 L-3,3 L-3,1 Z " fill="#6B5961" transform="translate(142,16)"/>
<path d="M0,0 L3,0 L3,2 L8,3 L8,5 L6,5 L6,7 L3,7 L0,10 L-2,6 L-4,5 L-3,2 L1,4 Z " fill="#423328" transform="translate(57,51)"/>
<path d="M0,0 L10,3 L14,4 L14,6 L0,6 Z " fill="#5C6975" transform="translate(0,78)"/>
<path d="M0,0 L4,0 L4,2 L6,2 L6,4 L12,6 L14,8 L0,7 Z " fill="#140C0C" transform="translate(37,59)"/>
<path d="M0,0 L8,1 L9,6 L6,6 L6,8 L1,8 Z " fill="#8E7D83" transform="translate(133,18)"/>
<path d="M0,0 L5,0 L5,5 L-9,5 L-9,3 Z " fill="#282B2E" transform="translate(119,79)"/>
<path d="M0,0 L12,1 L16,1 L17,5 L20,6 L15,6 L15,4 L3,4 L3,2 L0,2 Z " fill="#392B25" transform="translate(94,48)"/>
<path d="M0,0 L7,0 L7,7 L15,8 L15,9 L8,9 L7,12 L5,8 L2,7 Z " fill="#3E373E" transform="translate(11,46)"/>
<path d="M0,0 L9,0 L9,11 L5,10 L5,1 L0,1 Z " fill="#251412" transform="translate(141,43)"/>
<path d="M0,0 L3,0 L3,2 L8,2 L8,5 L3,9 L1,9 L0,7 Z " fill="#110802" transform="translate(33,32)"/>
<path d="M0,0 L4,1 L1,2 L0,6 L-4,7 L-5,20 L-6,20 L-6,8 L-8,7 L-7,5 L-11,3 L-6,2 L-1,4 Z " fill="#21181B" transform="translate(11,26)"/>
<path d="M0,0 L1,4 L0,7 L3,8 L2,11 L-2,11 L-5,6 L-7,4 L-1,2 Z " fill="#A78B75" transform="translate(40,0)"/>
<path d="M0,0 L7,0 L7,1 L2,1 L5,11 L-1,9 L-1,4 L-3,3 L-3,1 Z " fill="#454448" transform="translate(35,48)"/>
<path d="M0,0 L3,1 L3,4 L0,7 L-9,8 L-9,6 L-4,6 L-4,2 Z " fill="#777D85" transform="translate(133,56)"/>
<path d="M0,0 L6,0 L6,5 L-3,5 L-8,6 L-8,3 L-1,2 Z " fill="#1F0A04" transform="translate(27,52)"/>
<path d="M0,0 L9,1 L9,3 L11,3 L12,6 L6,5 L5,6 L4,9 L2,3 L0,2 Z " fill="#8A8286" transform="translate(37,49)"/>
<path d="M0,0 L4,0 L4,6 L2,7 L-4,7 L-3,2 L0,2 Z " fill="#7B6756" transform="translate(42,36)"/>
<path d="M0,0 L1,0 L1,7 L4,7 L4,9 L-6,8 L-5,4 Z " fill="#7B8087" transform="translate(14,13)"/>
<path d="M0,0 L6,0 L8,1 L9,8 L8,6 L3,8 L5,3 L0,3 L-2,7 L-4,7 L-2,2 Z " fill="#755841" transform="translate(22,0)"/>
<path d="M0,0 L1,0 L1,8 L-8,8 L-11,10 L-10,6 L-7,6 L-7,4 L-1,4 Z " fill="#090C11" transform="translate(149,67)"/>
<path d="M0,0 L4,1 L4,3 L6,3 L5,8 L4,5 L1,5 L1,10 L3,11 L-2,11 L-2,7 L0,7 Z " fill="#3A3631" transform="translate(111,7)"/>
<path d="M0,0 L6,0 L6,4 L14,4 L13,6 L8,6 L3,8 L3,3 L0,2 Z " fill="#504D54" transform="translate(92,58)"/>
<path d="M0,0 L9,0 L10,4 L4,5 L-1,4 Z " fill="#120403" transform="translate(128,44)"/>
<path d="M0,0 L16,0 L16,2 L2,4 Z " fill="#919093" transform="translate(76,67)"/>
<path d="M0,0 L1,2 L6,3 L6,7 L3,8 L2,10 L0,10 L-2,4 L0,4 Z " fill="#765B63" transform="translate(140,62)"/>
<path d="M0,0 L8,0 L9,2 L4,3 L4,5 L0,7 L-1,6 L-1,1 Z " fill="#4F3E3A" transform="translate(112,41)"/>
<path d="M0,0 L6,0 L6,3 L6,5 L2,6 L3,9 L-1,9 Z " fill="#372523" transform="translate(65,18)"/>
<path d="M0,0 L11,0 L11,4 L6,2 L6,4 L0,4 Z " fill="#1A0904" transform="translate(56,0)"/>
<path d="M0,0 L6,0 L6,2 L15,2 L15,4 L5,4 L-1,3 Z " fill="#7C909F" transform="translate(24,80)"/>
<path d="M0,0 L7,0 L5,1 L5,5 L3,5 L3,8 L0,8 L-1,1 Z " fill="#939EA8" transform="translate(90,76)"/>
<path d="M0,0 L9,0 L9,4 L-1,4 Z " fill="#8A7F7C" transform="translate(141,57)"/>
<path d="M0,0 L3,2 L3,5 L1,5 L0,10 L-4,10 L-5,12 L-4,7 L-1,2 Z " fill="#998F85" transform="translate(25,10)"/>
<path d="M0,0 L12,0 L11,3 L2,5 L2,1 Z " fill="#997E72" transform="translate(28,0)"/>
<path d="M0,0 L3,1 L1,1 L2,7 L-7,6 L-3,2 Z " fill="#1B1315" transform="translate(100,63)"/>
<path d="M0,0 L9,1 L9,3 L13,4 L6,5 L0,3 Z " fill="#82807F" transform="translate(67,63)"/>
<path d="M0,0 L5,1 L7,2 L6,7 L0,5 Z " fill="#0B0805" transform="translate(88,59)"/>
<path d="M0,0 L3,4 L4,13 L-5,12 L-5,10 L2,11 L0,5 L-1,1 Z " fill="#AE9B98" transform="translate(26,31)"/>
<path d="M0,0 L2,3 L2,12 L0,12 L-3,4 L-3,1 Z " fill="#3B2E34" transform="translate(148,14)"/>
<path d="M0,0 L5,0 L10,2 L10,7 L5,6 L8,5 L8,3 L-2,3 L0,2 Z " fill="#282E38" transform="translate(49,77)"/>
<path d="M0,0 L5,0 L6,4 L2,7 L-1,6 L-1,1 Z " fill="#463433" transform="translate(76,15)"/>
<path d="M0,0 L8,0 L7,3 L7,8 L3,7 L2,2 Z " fill="#342614" transform="translate(70,4)"/>
<path d="M0,0 L5,2 L5,4 L9,4 L9,6 L0,6 Z " fill="#16161E" transform="translate(59,78)"/>
<path d="M0,0 L9,0 L9,2 L15,2 L16,0 L16,3 L18,5 L11,5 L11,3 L5,2 L0,1 Z " fill="#1C2D39" transform="translate(3,79)"/>
<path d="M0,0 L6,1 L8,3 L5,3 L6,8 L3,8 L3,6 L1,6 Z " fill="#131016" transform="translate(78,72)"/>
<path d="M0,0 L3,1 L1,2 L1,6 L4,7 L5,11 L1,12 L0,14 Z " fill="#040304" transform="translate(0,48)"/>
<path d="M0,0 L5,1 L4,6 L4,9 L0,9 Z " fill="#7C797E" transform="translate(0,30)"/>
<path d="M0,0 L2,0 L2,3 L6,3 L9,6 L9,8 L1,7 Z " fill="#392D29" transform="translate(115,0)"/>
<path d="M0,0 L7,1 L4,3 L0,5 L-4,6 L-6,4 L-4,4 L-4,2 Z " fill="#939298" transform="translate(47,68)"/>
<path d="M0,0 L5,0 L5,5 L-2,5 L-3,2 Z " fill="#B4B8BF" transform="translate(49,70)"/>
<path d="M0,0 L3,1 L4,4 L1,5 L1,7 L8,7 L8,8 L0,9 L-6,8 L-6,7 L0,7 L-1,2 Z " fill="#252118" transform="translate(82,57)"/>
<path d="M0,0 L1,4 L5,5 L5,8 L-2,8 L-1,1 Z " fill="#312626" transform="translate(145,49)"/>
<path d="M0,0 L4,1 L5,3 L5,9 L1,8 Z " fill="#484243" transform="translate(121,10)"/>
<path d="M0,0 L7,0 L5,2 L1,3 L-1,8 L-3,8 L-3,1 Z " fill="#0A0200" transform="translate(60,7)"/>
<path d="M0,0 L2,4 L-10,4 L-10,2 Z " fill="#416876" transform="translate(136,80)"/>
<path d="M0,0 L2,0 L3,5 L1,5 L-1,8 L-4,7 L-2,6 L-5,5 L-4,2 L0,2 Z " fill="#474A52" transform="translate(37,71)"/>
<path d="M0,0 L1,0 L1,6 L-4,7 L-9,6 L-5,4 L-3,1 Z " fill="#412F2B" transform="translate(77,52)"/>
<path d="M0,0 L2,1 L2,4 L5,4 L5,6 L-2,6 L-7,5 L-3,4 L-3,2 L0,2 Z " fill="#7F7179" transform="translate(142,22)"/>
<path d="M0,0 L3,0 L3,4 L8,1 L8,5 L6,5 L5,7 L1,7 L-1,4 L1,4 Z M-1,7 Z " fill="#230D03" transform="translate(30,15)"/>
<path d="M0,0 L7,2 L6,4 L-11,4 L-8,3 L-8,1 L-6,1 L-6,3 Z " fill="#333A43" transform="translate(100,71)"/>
<path d="M0,0 L4,1 L3,6 L-7,3 L-3,1 L0,2 Z " fill="#5B4942" transform="translate(119,53)"/>
<path d="M0,0 L3,4 L3,2 L7,4 L7,7 L0,6 L-2,2 L0,2 Z " fill="#7E685B" transform="translate(47,45)"/>
<path d="M0,0 L9,1 L7,2 L7,4 L10,4 L9,6 L1,4 Z " fill="#291709" transform="translate(87,46)"/>
<path d="M0,0 L6,1 L7,9 L5,7 L5,4 L-3,3 L-3,1 Z " fill="#55443B" transform="translate(118,30)"/>
<path d="M0,0 L6,0 L6,2 L9,3 L10,6 L5,7 L3,3 L0,2 Z " fill="#1B1619" transform="translate(122,0)"/>
<path d="M0,0 L3,0 L3,2 L0,2 L0,5 L2,5 L2,7 L-4,7 L-4,2 Z " fill="#224F62" transform="translate(142,77)"/>
<path d="M0,0 L5,0 L8,1 L13,2 L13,4 L9,5 L1,2 Z " fill="#A0AFB9" transform="translate(99,75)"/>
<path d="M0,0 L5,2 L2,7 L0,7 L0,5 L-3,4 L-3,2 L0,2 Z " fill="#55565B" transform="translate(86,73)"/>
<path d="M0,0 L5,1 L7,2 L7,4 L9,6 L4,6 L3,4 L-1,4 L-2,1 Z " fill="#171012" transform="translate(65,74)"/>
<path d="M0,0 L9,2 L9,4 L11,5 L7,6 L4,6 L4,4 L2,4 L2,2 L0,2 Z " fill="#4B464D" transform="translate(41,59)"/>
<path d="M0,0 L1,2 L5,2 L4,9 L2,10 L2,8 L0,7 L-1,1 Z " fill="#231311" transform="translate(127,9)"/>
<path d="M0,0 L4,2 L2,8 L0,6 L-2,7 L-2,4 L-6,2 L0,2 Z " fill="#2A0F0D" transform="translate(37,11)"/>
<path d="M0,0 L3,0 L2,4 L0,6 L0,4 L-4,6 L-8,6 L-8,3 L0,3 Z " fill="#222B34" transform="translate(8,10)"/>
<path d="M0,0 L4,1 L2,1 L2,3 L5,3 L5,5 L7,6 L3,8 L4,5 L-2,4 L-2,1 Z " fill="#322322" transform="translate(128,6)"/>
<path d="M0,0 L5,1 L4,5 L6,7 L3,8 L0,6 Z " fill="#937D65" transform="translate(23,2)"/>
<path d="M0,0 L2,1 L2,3 L0,3 L0,6 L4,7 L2,7 L2,9 L-2,9 L-2,1 Z " fill="#070202" transform="translate(116,45)"/>
<path d="M0,0 L6,0 L6,3 L4,3 L2,7 L0,6 Z " fill="#462D17" transform="translate(50,41)"/>
<path d="M0,0 L10,1 L8,2 L8,7 L6,8 L5,4 L1,3 Z " fill="#1A0700" transform="translate(101,5)"/>
<path d="M0,0 L5,0 L2,5 L-4,5 L-3,2 Z " fill="#0F0D08" transform="translate(17,0)"/>
<path d="M0,0 L1,2 L4,3 L1,3 L1,5 L-2,5 L-3,3 L-7,4 L-7,1 Z " fill="#6A7680" transform="translate(109,79)"/>
<path d="M0,0 L1,4 L1,6 L6,6 L7,8 L5,8 L5,11 L2,11 L3,8 L-1,7 L-1,1 Z " fill="#3F3B45" transform="translate(124,71)"/>
<path d="M0,0 L5,1 L10,4 L10,6 L4,5 L3,3 L0,2 Z " fill="#1E110D" transform="translate(112,56)"/>
<path d="M0,0 L1,4 L1,5 L-12,5 L-11,2 L-2,4 Z " fill="#42352F" transform="translate(35,22)"/>
<path d="M0,0 L3,0 L3,2 L5,2 L4,7 L-2,6 Z " fill="#2C160D" transform="translate(26,15)"/>
<path d="M0,0 L3,0 L4,3 L8,5 L8,7 L0,5 Z " fill="#8F857B" transform="translate(112,12)"/>
<path d="M0,0 L7,0 L7,4 L0,4 Z " fill="#A6B0BA" transform="translate(0,9)"/>
<path d="M0,0 L1,0 L2,6 L4,8 L2,10 L1,7 L-1,7 L-1,9 L-3,9 L-2,4 Z " fill="#928576" transform="translate(22,2)"/>
<path d="M0,0 L6,0 L6,5 L0,4 Z " fill="#84756B" transform="translate(50,0)"/>
<path d="M0,0 L1,4 L8,6 L11,8 L10,11 L10,9 L0,6 Z " fill="#423F46" transform="translate(0,62)"/>
<path d="M0,0 L4,1 L2,1 L2,6 L-7,7 L-5,3 L-5,5 L-1,4 Z " fill="#2D2420" transform="translate(104,56)"/>
<path d="M0,0 L3,1 L3,3 L6,2 L8,7 L4,8 L4,4 L0,4 Z " fill="#221006" transform="translate(64,49)"/>
<path d="M0,0 L3,0 L4,5 L2,5 L2,10 L0,10 Z " fill="#0E0705" transform="translate(126,32)"/>
<path d="M0,0 L8,2 L8,4 L10,5 L-1,5 L3,3 L0,2 Z " fill="#4C4850" transform="translate(134,26)"/>
<path d="M0,0 L3,0 L2,6 L-2,7 L-3,3 L0,2 Z " fill="#150303" transform="translate(127,51)"/>
<path d="M0,0 L3,0 L4,3 L0,4 L-7,5 L-7,3 Z " fill="#725B4E" transform="translate(57,21)"/>
<path d="M0,0 L6,0 L6,2 L1,6 L-2,2 Z " fill="#241208" transform="translate(100,54)"/>
<path d="M0,0 L3,2 L0,3 L3,4 L3,7 L-1,8 L-2,1 Z " fill="#25120A" transform="translate(69,23)"/>
<path d="M0,0 L5,0 L3,1 L3,4 L-4,6 L-4,3 L-1,2 Z " fill="#998676" transform="translate(51,17)"/>
<path d="M0,0 L1,2 L0,7 L-4,5 L-4,1 Z " fill="#71645B" transform="translate(100,15)"/>
<path d="M0,0 L9,2 L10,4 L0,5 Z " fill="#3F2F2D" transform="translate(62,12)"/>
<path d="M0,0 L2,0 L2,9 L0,9 L-1,4 L-3,2 L0,2 Z " fill="#9E857C" transform="translate(24,45)"/>
<path d="M0,0 L3,0 L3,3 L8,4 L6,8 L6,5 L2,5 L2,3 L0,3 Z " fill="#4A3328" transform="translate(53,32)"/>
<path d="M0,0 L1,0 L1,7 L0,10 L-3,9 L-1,9 L-1,6 L-3,6 L-2,2 L0,2 Z " fill="#463327" transform="translate(42,28)"/>
<path d="M0,0 L2,0 L2,3 L4,3 L4,5 L1,5 L0,7 L-5,7 L-2,4 L0,4 Z " fill="#524A4F" transform="translate(144,10)"/>
<path d="M0,0 L3,2 L7,2 L7,4 L0,5 L-4,3 L-1,3 Z " fill="#010917" transform="translate(39,78)"/>
<path d="M0,0 L9,1 L8,3 L1,2 L1,4 L3,5 L0,5 Z " fill="#515660" transform="translate(27,75)"/>
<path d="M0,0 L7,0 L9,6 L4,6 L4,2 Z " fill="#72818F" transform="translate(91,75)"/>
<path d="M0,0 L3,2 L-2,5 L-7,5 L-7,2 L-2,1 Z " fill="#555059" transform="translate(139,71)"/>
<path d="M0,0 L5,0 L5,3 L0,4 L-3,3 L-3,1 Z " fill="#AFABAE" transform="translate(110,61)"/>
<path d="M0,0 L5,1 L7,7 L8,9 L3,7 L2,2 L0,2 Z " fill="#412A27" transform="translate(46,50)"/>
<path d="M0,0 L5,2 L5,7 L3,7 L3,5 L0,5 Z " fill="#7A615A" transform="translate(19,47)"/>
<path d="M0,0 L2,0 L2,2 L6,2 L6,4 L1,6 L-1,7 Z " fill="#100404" transform="translate(9,32)"/>
<path d="M0,0 L2,1 L2,8 L-2,8 L-2,3 Z " fill="#BAAEA4" transform="translate(39,20)"/>
<path d="M0,0 L2,0 L2,6 L5,7 L3,7 L3,9 L-1,8 L-2,4 Z " fill="#7A746F" transform="translate(19,14)"/>
<path d="M0,0 L5,0 L5,2 L0,5 L-3,5 L-1,1 Z " fill="#718897" transform="translate(141,74)"/>
<path d="M0,0 L1,0 L2,9 L-2,10 L-2,8 L0,8 L0,6 L-3,6 L-3,4 L0,4 Z " fill="#484E56" transform="translate(112,71)"/>
<path d="M0,0 L6,0 L6,3 L-1,4 L-1,1 Z " fill="#161217" transform="translate(31,70)"/>
<path d="M0,0 L6,0 L4,7 L-1,7 L0,5 L3,5 L3,1 Z " fill="#514749" transform="translate(143,64)"/>
<path d="M0,0 L2,2 L-1,5 L-9,5 L-7,3 L0,2 Z " fill="#0B0509" transform="translate(126,66)"/>
<path d="M0,0 L1,2 L3,2 L3,0 L5,0 L5,2 L8,2 L8,4 L0,4 Z " fill="#0D0D12" transform="translate(63,68)"/>
<path d="M0,0 L3,1 L3,3 L1,3 L0,5 L3,6 L-7,5 L-7,4 L-1,4 Z " fill="#3C3233" transform="translate(39,65)"/>
<path d="M0,0 L7,0 L6,4 L4,4 L4,2 L-3,2 Z " fill="#0C0200" transform="translate(102,52)"/>
<path d="M0,0 L5,1 L5,3 L8,4 L0,4 Z " fill="#332927" transform="translate(27,48)"/>
<path d="M0,0 L6,0 L6,6 L3,6 Z " fill="#1F1412" transform="translate(108,47)"/>
<path d="M0,0 L3,0 L3,6 L-1,6 Z " fill="#757177" transform="translate(1,41)"/>
<path d="M0,0 L7,0 L7,2 L2,2 L1,5 L-1,4 Z " fill="#7A787A" transform="translate(132,31)"/>
<path d="M0,0 L3,1 L3,7 L1,7 L1,5 L-1,5 Z " fill="#7B6554" transform="translate(47,27)"/>
<path d="M0,0 L3,1 L3,4 L7,5 L2,6 L-5,6 L-5,5 L1,4 Z " fill="#3E3740" transform="translate(6,55)"/>
<path d="M0,0 L4,0 L4,6 L-1,7 L1,6 Z " fill="#A08B75" transform="translate(42,36)"/>
<path d="M0,0 L3,0 L3,3 L-4,3 L-8,1 Z " fill="#3A2F28" transform="translate(90,21)"/>
<path d="M0,0 L4,0 L4,3 L6,3 L6,5 L2,5 L1,1 L0,4 L-2,2 Z " fill="#1E0C02" transform="translate(109,19)"/>
<path d="M0,0 L1,2 L3,3 L0,5 L-1,8 L-5,5 L-3,5 L-1,1 Z " fill="#9E867E" transform="translate(44,13)"/>
<path d="M0,0 L8,1 L9,4 L0,2 Z " fill="#5F6065" transform="translate(69,67)"/>
<path d="M0,0 L1,3 L8,4 L8,6 L2,6 L0,5 Z " fill="#6F6A70" transform="translate(1,61)"/>
<path d="M0,0 L1,2 L3,2 L3,4 L-2,5 L-3,1 Z " fill="#858183" transform="translate(104,63)"/>
<path d="M0,0 L1,2 L0,6 L-5,6 L-5,8 L-8,7 L-6,7 L-6,5 L-2,3 Z " fill="#535054" transform="translate(129,56)"/>
<path d="M0,0 L5,1 L6,6 L0,5 L4,4 L4,2 L-1,2 Z " fill="#796E6D" transform="translate(24,56)"/>
<path d="M0,0 L5,0 L5,4 L0,4 Z " fill="#8E7462" transform="translate(112,26)"/>
<path d="M0,0 L7,1 L3,7 L1,6 L3,2 L0,1 Z " fill="#563A35" transform="translate(38,11)"/>
<path d="M0,0 L5,1 L5,5 L7,6 L3,6 L3,3 L0,3 Z " fill="#240D05" transform="translate(42,9)"/>
<path d="M0,0 L6,0 L7,3 L1,3 Z " fill="#5E544F" transform="translate(73,77)"/>
<path d="M0,0 L4,0 L5,3 L2,3 L2,5 L0,5 L-1,7 Z " fill="#565F6B" transform="translate(21,76)"/>
<path d="M0,0 L1,4 L-5,4 L-5,1 Z " fill="#293A47" transform="translate(137,75)"/>
<path d="M0,0 L4,1 L6,4 L-3,3 Z " fill="#424148" transform="translate(57,68)"/>
<path d="M0,0 L2,0 L3,5 L2,6 L-3,6 L-1,5 Z " fill="#62575E" transform="translate(131,64)"/>
<path d="M0,0 L4,2 L5,0 L5,5 L1,5 L1,3 L-1,2 Z " fill="#ACA29E" transform="translate(50,57)"/>
<path d="M0,0 L1,2 L7,1 L6,4 L-1,4 Z " fill="#5A4F51" transform="translate(60,56)"/>
<path d="M0,0 L1,3 L-2,7 L-4,7 L-4,3 Z " fill="#1D0D03" transform="translate(90,32)"/>
<path d="M0,0 L2,0 L2,3 L5,4 L5,6 L0,5 L-1,1 Z " fill="#3E2B20" transform="translate(55,26)"/>
<path d="M0,0 L1,3 L-3,6 L-4,1 Z " fill="#301A0E" transform="translate(105,28)"/>
<path d="M0,0 L1,0 L2,6 L1,11 L-1,8 L-2,1 Z " fill="#787677" transform="translate(21,24)"/>
<path d="M0,0 L3,2 L3,5 L1,5 L1,7 L-1,7 Z " fill="#AF9F93" transform="translate(25,10)"/>
<path d="M0,0 L3,1 L3,3 L-3,5 L-6,2 L0,2 Z " fill="#5A4740" transform="translate(62,2)"/>
<path d="M0,0 L4,0 L4,2 L0,3 L-2,7 L-4,7 L-2,2 Z " fill="#827063" transform="translate(22,0)"/>
<path d="M0,0 L7,0 L6,3 L0,4 Z " fill="#34373E" transform="translate(113,77)"/>
<path d="M0,0 L8,1 L7,7 L4,6 L6,6 L5,3 L0,1 Z " fill="#3C4B57" transform="translate(13,76)"/>
<path d="M0,0 L6,0 L5,3 L-1,3 Z " fill="#42332E" transform="translate(118,66)"/>
<path d="M0,0 L5,4 L3,4 L3,6 L0,6 L-1,2 Z " fill="#676368" transform="translate(11,64)"/>
<path d="M0,0 L3,1 L3,4 L-1,5 L-2,1 Z " fill="#857A82" transform="translate(133,56)"/>
<path d="M0,0 L5,0 L1,4 L-3,5 L-3,3 L-1,3 Z " fill="#837975" transform="translate(109,54)"/>
<path d="M0,0 L6,1 L8,2 L8,4 L3,4 L3,2 L0,2 Z " fill="#513B2C" transform="translate(94,48)"/>
<path d="M0,0 L2,0 L2,4 L0,4 L0,6 L-4,6 L-4,4 L-2,4 Z " fill="#402E27" transform="translate(107,39)"/>
<path d="M0,0 L3,1 L7,5 L6,8 L1,4 Z " fill="#2F1B10" transform="translate(116,33)"/>
<path d="M0,0 L5,0 L7,5 L2,6 L4,1 Z " fill="#473329" transform="translate(118,25)"/>
<path d="M0,0 L8,0 L8,2 L2,3 L0,2 Z " fill="#68666A" transform="translate(142,28)"/>
<path d="M0,0 L5,2 L6,4 L3,4 L1,8 Z " fill="#817377" transform="translate(133,18)"/>
<path d="M0,0 L2,0 L4,9 L1,8 Z " fill="#493D3B" transform="translate(127,18)"/>
<path d="M0,0 L2,4 L3,8 L-3,3 L-3,1 Z " fill="#64505A" transform="translate(142,16)"/>
<path d="M0,0 L4,2 L1,2 L1,4 L-5,4 L-5,2 Z " fill="#483129" transform="translate(91,0)"/>
<path d="M0,0 L7,2 L7,3 L-4,3 Z " fill="#010817" transform="translate(48,81)"/>
<path d="M0,0 L7,1 L8,3 L7,6 L4,5 L6,5 L5,3 L0,1 Z " fill="#5D6067" transform="translate(56,71)"/>
<path d="M0,0 L3,3 L3,7 L0,7 Z " fill="#65676F" transform="translate(18,70)"/>
<path d="M0,0 L4,1 L5,5 L-2,4 L-2,2 L0,2 Z " fill="#0E0E15" transform="translate(104,69)"/>
<path d="M0,0 L3,2 L3,5 L0,5 L-1,3 L-4,1 Z " fill="#755555" transform="translate(137,66)"/>
<path d="M0,0 L4,0 L4,2 L6,3 L2,4 L0,3 Z " fill="#331D12" transform="translate(72,49)"/>
<path d="M0,0 L7,0 L7,1 L2,1 L2,3 L-3,3 L-3,1 Z " fill="#575352" transform="translate(35,48)"/>
<path d="M0,0 L3,1 L0,6 L-2,5 L-1,1 Z " fill="#978B8B" transform="translate(113,42)"/>
<path d="M0,0 L3,0 L4,7 L2,7 Z " fill="#3E3A45" transform="translate(11,37)"/>
<path d="M0,0 L3,1 L3,5 L-1,7 Z " fill="#462D17" transform="translate(47,36)"/>
<path d="M0,0 L6,1 L5,4 L1,5 Z " fill="#2D190B" transform="translate(33,36)"/>
<path d="M0,0 L6,1 L2,3 L-2,3 L-2,1 Z " fill="#D9D3D8" transform="translate(26,67)"/>
<path d="M0,0 L8,1 L8,2 L0,3 L-6,2 L-6,1 Z " fill="#342618" transform="translate(82,63)"/>
<path d="M0,0 L8,0 L7,2 L2,2 L-2,3 Z " fill="#484040" transform="translate(98,62)"/>
<path d="M0,0 L3,1 L2,6 L-2,4 Z " fill="#141118" transform="translate(92,60)"/>
<path d="M0,0 L3,1 L4,7 L6,8 L3,8 L0,2 Z " fill="#6A686B" transform="translate(37,51)"/>
<path d="M0,0 L4,0 L4,4 L1,5 L-1,3 L1,3 Z " fill="#3E2F27" transform="translate(64,53)"/>
<path d="M0,0 L2,0 L2,5 L-4,4 L-1,3 Z " fill="#070100" transform="translate(31,52)"/>
<path d="M0,0 L1,4 L-4,6 L-4,2 L-1,2 Z " fill="#0F070E" transform="translate(12,41)"/>
<path d="M0,0 L5,1 L6,6 L1,3 Z " fill="#38261A" transform="translate(118,33)"/>
<path d="M0,0 L3,4 L2,8 L-1,4 Z " fill="#9F9FA5" transform="translate(26,31)"/>
<path d="M0,0 L1,2 L6,2 L4,3 L4,5 L0,5 Z " fill="#B9ADB3" transform="translate(135,21)"/>
<path d="M0,0 L6,0 L5,2 L2,3 L0,6 Z " fill="#604E50" transform="translate(65,18)"/>
<path d="M0,0 L1,0 L1,5 L3,6 L-2,6 L-2,2 L0,2 Z " fill="#514439" transform="translate(111,12)"/>
<path d="M0,0 L2,0 L2,6 L-1,5 Z " fill="#544A46" transform="translate(124,13)"/>
<path d="M0,0 L2,2 L7,2 L6,5 L0,4 Z " fill="#341B0F" transform="translate(85,10)"/>
<path d="M0,0 L5,1 L5,3 L2,3 L1,6 L0,6 Z " fill="#5F6066" transform="translate(12,7)"/>
<path d="M0,0 L6,0 L5,4 L1,4 Z " fill="#AB9084" transform="translate(37,7)"/>
<path d="M0,0 L2,0 L2,2 L4,2 L4,4 L-2,4 Z " fill="#251518" transform="translate(135,3)"/>
<path d="M0,0 L5,0 L5,4 L2,4 L2,2 L0,2 Z " fill="#628392" transform="translate(145,0)"/>
<path d="M0,0 L3,1 L-1,5 L-3,2 Z " fill="#ABACB4" transform="translate(49,70)"/>
<path d="M0,0 L5,2 L3,5 L-1,3 Z " fill="#534F55" transform="translate(107,65)"/>
<path d="M0,0 L4,0 L4,4 L-1,2 Z " fill="#7E666B" transform="translate(142,65)"/>
<path d="M0,0 L7,1 L7,3 L1,2 Z " fill="#BCB8C2" transform="translate(11,62)"/>
<path d="M0,0 L5,1 L4,6 L2,4 L2,1 Z " fill="#3C312D" transform="translate(27,56)"/>
<path d="M0,0 L5,3 L5,6 L3,6 L0,3 Z " fill="#26190E" transform="translate(53,53)"/>
<path d="M0,0 L3,1 L2,4 L-2,4 L-2,1 Z " fill="#362E35" transform="translate(3,49)"/>
<path d="M0,0 L2,1 L1,6 L-3,4 Z " fill="#4E3A30" transform="translate(63,48)"/>
<path d="M0,0 L2,1 L1,4 L-4,4 L-3,1 Z " fill="#867371" transform="translate(121,46)"/>
<path d="M0,0 L5,5 L2,6 L-2,3 L0,3 Z " fill="#2B1D18" transform="translate(41,44)"/>
<path d="M0,0 L1,0 L1,5 L-4,5 L-3,2 L-1,2 Z " fill="#080100" transform="translate(67,38)"/>
<path d="M0,0 L5,0 L5,2 L7,3 L0,2 Z " fill="#ABADB4" transform="translate(25,28)"/>
<path d="M0,0 L1,4 L4,6 L-2,6 L-1,1 Z " fill="#2A3139" transform="translate(7,16)"/>
<path d="M0,0 L5,0 L5,3 L0,3 Z " fill="#39271C" transform="translate(101,19)"/>
<path d="M0,0 L5,2 L5,4 L0,4 Z " fill="#211406" transform="translate(73,11)"/>
<path d="M0,0 L3,0 L4,7 L0,3 Z " fill="#181C1D" transform="translate(146,10)"/>
<path d="M0,0 L2,0 L3,4 L-1,6 L-1,3 Z " fill="#9A806E" transform="translate(28,6)"/>
<path d="M0,0 L5,0 L5,3 L0,3 Z " fill="#1A1C1D" transform="translate(13,5)"/>
<path d="M0,0 L4,1 L4,4 L0,4 Z " fill="#110B0A" transform="translate(0,80)"/>
<path d="M0,0 L2,0 L2,3 L-4,3 L-4,1 Z " fill="#4E4850" transform="translate(76,73)"/>
<path d="M0,0 L6,2 L6,4 L3,5 Z " fill="#909398" transform="translate(56,72)"/>
<path d="M0,0 L1,4 L-4,4 L-4,2 Z " fill="#201408" transform="translate(87,60)"/>
<path d="M0,0 L3,0 L3,3 L7,4 L0,3 Z " fill="#5E5961" transform="translate(2,61)"/>
<path d="M0,0 L3,3 L2,7 L0,6 Z " fill="#0F0805" transform="translate(125,20)"/>
<path d="M0,0 L7,0 L3,1 L3,4 L1,4 Z " fill="#27120C" transform="translate(79,23)"/>
<path d="M0,0 L4,1 L0,3 L-1,6 L-2,4 Z " fill="#666F79" transform="translate(9,14)"/>
<path d="M0,0 L5,0 L4,3 L0,3 Z " fill="#484F59" transform="translate(0,13)"/>
<path d="M0,0 L2,0 L2,3 L-3,4 L-2,1 Z " fill="#0F100F" transform="translate(119,11)"/>
<path d="M0,0 L4,0 L4,3 L-1,3 Z " fill="#030404" transform="translate(14,2)"/>
<path d="M0,0 L2,0 L2,5 L-2,4 L0,3 Z " fill="#2F3339" transform="translate(88,79)"/>
<path d="M0,0 L3,1 L3,5 L0,5 Z " fill="#030409" transform="translate(59,79)"/>
<path d="M0,0 L2,2 L2,5 L-1,5 L-1,3 L-3,2 L0,2 Z " fill="#2C2422" transform="translate(82,75)"/>
<path d="M0,0 L6,0 L6,2 L2,2 L1,4 L-2,1 Z " fill="#6A666A" transform="translate(60,59)"/>
<path d="M0,0 L6,1 L6,3 L0,3 Z " fill="#060207" transform="translate(11,55)"/>
<path d="M0,0 L5,4 L5,6 L1,4 Z " fill="#281205" transform="translate(118,37)"/>
<path d="M0,0 L7,1 L3,3 L0,3 Z " fill="#2C1B11" transform="translate(53,6)"/>
<path d="M0,0 L4,0 L5,3 L0,3 Z " fill="#060809" transform="translate(119,81)"/>
<path d="M0,0 L5,0 L4,2 L0,3 Z " fill="#5B6C78" transform="translate(102,80)"/>
<path d="M0,0 L4,0 L4,4 L2,4 L2,2 L0,2 Z " fill="#908D8E" transform="translate(84,76)"/>
<path d="M0,0 L5,0 L5,3 L1,2 Z " fill="#877F7F" transform="translate(33,66)"/>
<path d="M0,0 L7,0 L6,3 L4,3 L4,1 Z " fill="#515661" transform="translate(124,64)"/>
<path d="M0,0 L4,0 L5,3 L2,3 L0,2 Z " fill="#262429" transform="translate(58,66)"/>
<path d="M0,0 L1,2 L4,3 L3,5 L-1,4 Z " fill="#160F16" transform="translate(4,55)"/>
<path d="M0,0 L5,1 L4,3 L0,3 Z " fill="#261414" transform="translate(19,55)"/>
<path d="M0,0 L5,2 L2,3 L3,6 L1,6 Z " fill="#9C9699" transform="translate(41,52)"/>
<path d="M0,0 L3,0 L3,4 L0,4 Z " fill="#4C3A39" transform="translate(11,30)"/>
<path d="M0,0 L3,2 L1,2 L1,4 L-2,4 L-2,1 Z " fill="#453021" transform="translate(49,22)"/>
<path d="M0,0 L5,0 L2,4 L0,4 Z " fill="#36261D" transform="translate(56,0)"/>
<path d="M0,0 L4,0 L4,2 L6,3 L1,2 Z " fill="#656B73" transform="translate(53,76)"/>
<path d="M0,0 L1,2 L3,2 L2,5 L-1,4 Z " fill="#26262F" transform="translate(115,73)"/>
<path d="M0,0 L3,0 L3,3 L-3,2 Z " fill="#233F48" transform="translate(147,72)"/>
<path d="M0,0 L2,1 L2,4 L-2,4 L-2,2 L0,2 Z " fill="#0D0403" transform="translate(100,66)"/>
<path d="M0,0 L3,2 L0,3 L-5,2 L-5,1 Z " fill="#3E3B44" transform="translate(52,66)"/>
<path d="M0,0 L6,0 L5,3 L3,3 L3,1 Z " fill="#5D5055" transform="translate(143,64)"/>
<path d="M0,0 L2,0 L3,3 L-3,2 Z " fill="#80715A" transform="translate(44,42)"/>
<path d="M0,0 L1,4 L-2,5 L-2,1 Z " fill="#C7B2AB" transform="translate(31,38)"/>
<path d="M0,0 L2,0 L3,5 L0,4 L-1,1 Z " fill="#1E0500" transform="translate(62,20)"/>
<path d="M0,0 L4,0 L4,3 L-1,2 Z " fill="#261A1B" transform="translate(71,18)"/>
<path d="M0,0 L4,0 L4,2 L2,2 L1,5 Z " fill="#4E372D" transform="translate(135,7)"/>
<path d="M0,0 L1,4 L-1,7 L-1,4 L-3,3 Z " fill="#978271" transform="translate(40,0)"/>
<path d="M0,0 L6,0 L5,3 L3,3 L3,1 Z " fill="#4A352C" transform="translate(34,0)"/>
<path d="M0,0 L4,0 L3,3 L0,3 Z " fill="#080201" transform="translate(117,0)"/>
<path d="M0,0 L4,1 L0,3 L-3,1 Z " fill="#665859" transform="translate(135,71)"/>
<path d="M0,0 L4,1 L4,3 L0,3 Z " fill="#756368" transform="translate(133,64)"/>
<path d="M0,0 L3,0 L3,3 L-1,3 Z " fill="#827C7F" transform="translate(44,57)"/>
<path d="M0,0 L4,2 L1,3 L-2,1 Z " fill="#4C4340" transform="translate(114,54)"/>
<path d="M0,0 L4,2 L3,4 L0,3 Z " fill="#1A1205" transform="translate(87,46)"/>
<path d="M0,0 L2,1 L2,3 L0,3 L-1,5 L-2,1 Z " fill="#120B0C" transform="translate(116,45)"/>
<path d="M0,0 L3,0 L3,3 L0,4 Z " fill="#130500" transform="translate(38,44)"/>
<path d="M0,0 L5,1 L2,3 L0,3 Z " fill="#351B0B" transform="translate(56,41)"/>
<path d="M0,0 L2,0 L3,4 L-1,3 Z " fill="#8B868D" transform="translate(22,38)"/>
<path d="M0,0 L4,0 L4,2 L2,2 L1,4 Z " fill="#120D10" transform="translate(15,28)"/>
<path d="M0,0 L2,0 L3,4 L0,4 Z " fill="#7B6A63" transform="translate(118,19)"/>
<path d="M0,0 L2,1 L0,5 L-2,5 Z " fill="#C3B5AC" transform="translate(39,20)"/>
<path d="M0,0 L1,2 L3,3 L-2,4 Z " fill="#B19A91" transform="translate(44,13)"/>
<path d="M0,0 L1,2 L4,3 L1,5 Z " fill="#301705" transform="translate(80,7)"/>
<path d="M0,0 L3,0 L2,4 L0,3 Z " fill="#715E52" transform="translate(41,0)"/>
<path d="M0,0 L5,1 L2,3 L0,2 Z " fill="#19232F" transform="translate(28,77)"/>
<path d="M0,0 L3,1 L3,4 L1,4 Z " fill="#A6A7AF" transform="translate(56,74)"/>
<path d="M0,0 L3,3 L-2,3 L-2,1 Z " fill="#333338" transform="translate(105,67)"/>
<path d="M0,0 L3,1 L3,3 L-1,3 Z " fill="#483F39" transform="translate(39,65)"/>
<path d="M0,0 L2,0 L2,4 L-1,3 Z " fill="#655E66" transform="translate(131,64)"/>
<path d="M0,0 L3,1 L2,3 L-1,3 Z " fill="#423B3C" transform="translate(33,61)"/>
<path d="M0,0 L3,0 L3,3 L0,3 Z " fill="#4D4750" transform="translate(5,61)"/>
<path d="M0,0 L2,4 L-2,4 L-2,2 L0,2 Z " fill="#0D0501" transform="translate(39,60)"/>
<path d="M0,0 L3,0 L3,3 L0,3 Z " fill="#5C4730" transform="translate(50,41)"/>
<path d="M0,0 L3,0 L3,3 L0,3 Z " fill="#6A5D5D" transform="translate(130,37)"/>
<path d="M0,0 L3,0 L3,3 L0,3 Z " fill="#633E34" transform="translate(137,10)"/>
<path d="M0,0 L2,0 L1,4 L-1,4 Z " fill="#968C86" transform="translate(20,7)"/>
<path d="M0,0 L1,4 L-2,5 Z " fill="#545147" transform="translate(20,2)"/>
<path d="M0,0 L3,1 L3,3 L-1,2 Z " fill="#6E5B52" transform="translate(62,2)"/>
<path d="M0,0 L2,1 L0,5 L-1,2 Z " fill="#8B6D53" transform="translate(26,2)"/>
<path d="M0,0 L3,0 L3,3 L0,3 Z " fill="#1D1318" transform="translate(139,2)"/>
<path d="M0,0 L2,2 L0,5 L-1,1 Z " fill="#08111F" transform="translate(12,76)"/>
<path d="M0,0 L2,0 L2,3 L-1,3 Z " fill="#462F24" transform="translate(103,49)"/>
<path d="M0,0 L3,0 L3,3 L0,2 Z " fill="#907A69" transform="translate(51,49)"/>
<path d="M0,0 L2,0 L2,3 L-1,3 Z " fill="#5F524C" transform="translate(40,30)"/>
<path d="M0,0 L2,0 L2,3 L-1,3 Z " fill="#8A726A" transform="translate(55,26)"/>
<path d="M0,0 L3,0 L3,3 L0,2 Z " fill="#716866" transform="translate(90,21)"/>
<path d="M0,0 L3,3 L-1,3 Z " fill="#8A929A" transform="translate(9,18)"/>
<path d="M0,0 L3,1 L2,4 Z " fill="#625552" transform="translate(95,17)"/>
<path d="M0,0 L3,3 L1,5 Z " fill="#160E0B" transform="translate(114,5)"/>
<path d="M0,0 L2,0 L1,3 L-1,3 Z " fill="#25252C" transform="translate(55,67)"/>
<path d="M0,0 L3,2 L-1,3 Z " fill="#241914" transform="translate(38,63)"/>
<path d="M0,0 L3,2 L-1,2 Z " fill="#888688" transform="translate(132,58)"/>
<path d="M0,0 L3,1 L1,4 Z " fill="#5B5E65" transform="translate(37,51)"/>
<path d="M0,0 L3,1 L3,3 L0,2 Z " fill="#4D4649" transform="translate(128,24)"/>
<path d="M0,0 L2,0 L1,3 L-1,3 Z " fill="#D8C5BE" transform="translate(51,18)"/>
<path d="M0,0 L3,1 L3,3 L0,2 Z " fill="#624731" transform="translate(26,0)"/>
<path d="M0,0 L2,0 L1,3 L-1,1 Z " fill="#9C877A" transform="translate(27,9)"/>
<path d="M0,0 L2,2 L-1,2 Z " fill="#473836" transform="translate(143,45)"/>
</svg>
