<?xml version="1.0" encoding="UTF-8"?>
<!-- Generator: visioncortex VTracer 0.6.5 -->
<svg version="1.1" xmlns="http://www.w3.org/2000/svg" width="150" height="84">
<path d="M0,0 L150,0 L150,84 L0,84 Z " fill="#010102" transform="translate(0,0)"/>
<path d="M0,0 L1,4 L-1,4 L-1,7 L-4,9 L-3,12 L3,7 L7,6 L10,8 L10,15 L8,17 L-1,16 L-1,18 L8,18 L13,14 L17,14 L17,18 L14,18 L16,23 L13,23 L12,27 L-19,27 L-19,5 L-14,5 L-12,6 L-12,8 L-4,4 Z " fill="#100E0E" transform="translate(19,57)"/>
<path d="M0,0 L5,2 L5,9 L3,11 L-6,10 L-6,12 L3,12 L8,8 L12,8 L12,12 L9,12 L11,17 L8,17 L7,21 L0,21 L-3,20 L-4,18 L-17,13 L-22,12 L-18,10 L-11,10 L-10,7 L-4,7 L-4,2 Z " fill="#1E363B" transform="translate(24,63)"/>
<path d="M0,0 L9,0 L25,2 L25,7 L15,9 L8,8 L8,13 L1,13 L-1,10 L-1,5 L-4,4 L-3,1 Z " fill="#101C20" transform="translate(95,71)"/>
<path d="M0,0 L3,0 L4,2 L16,2 L17,7 L24,7 L24,5 L26,5 L26,7 L29,7 L29,10 L20,11 L18,13 L22,14 L21,20 L16,19 L16,16 L14,16 L14,11 L8,11 L6,9 L6,6 L0,6 L0,2 Z " fill="#0A0E13" transform="translate(59,55)"/>
<path d="M0,0 L20,0 L20,9 L10,8 L10,11 L5,12 L3,10 L2,13 L-1,12 Z " fill="#11110C" transform="translate(43,0)"/>
<path d="M0,0 L30,0 L29,4 L26,4 L26,6 L24,6 L24,8 L19,9 L22,11 L22,13 L15,12 L13,6 L1,4 Z " fill="#0E1620" transform="translate(98,0)"/>
<path d="M0,0 L10,0 L21,5 L21,7 L24,6 L24,8 L0,8 Z " fill="#040302" transform="translate(0,76)"/>
<path d="M0,0 L6,0 L6,2 L15,2 L15,10 L13,10 L13,8 L6,9 L5,10 L0,10 L-1,3 L-3,2 Z " fill="#2E261F" transform="translate(135,69)"/>
<path d="M0,0 L9,1 L13,2 L14,9 L12,18 L9,15 L9,13 L12,13 L12,9 L5,12 L3,14 L-7,14 L-6,11 L3,11 L4,10 L4,3 Z " fill="#101D25" transform="translate(24,62)"/>
<path d="M0,0 L5,2 L5,9 L3,11 L-6,10 L-7,13 L-9,11 L-9,7 L-4,7 L-4,2 Z " fill="#1A252E" transform="translate(24,63)"/>
<path d="M0,0 L10,0 L10,14 L4,15 L3,6 L0,4 Z " fill="#180E0D" transform="translate(30,0)"/>
<path d="M0,0 L4,0 L4,2 L9,3 L12,4 L10,9 L8,9 L8,11 L3,12 L-2,7 L-3,5 L-1,4 Z " fill="#13171A" transform="translate(97,25)"/>
<path d="M0,0 L10,0 L9,2 L2,2 L2,5 L11,5 L14,7 L10,8 L10,11 L5,12 L3,10 L2,13 L-1,12 Z " fill="#2C251F" transform="translate(43,0)"/>
<path d="M0,0 L9,1 L9,7 L8,9 L1,10 L1,7 L-3,6 L-2,1 Z " fill="#1C232A" transform="translate(121,33)"/>
<path d="M0,0 L3,0 L4,2 L14,2 L16,9 L15,10 L6,9 L6,6 L0,6 L0,2 Z " fill="#151C21" transform="translate(59,55)"/>
<path d="M0,0 L4,0 L4,6 L-4,7 L-13,4 L-13,1 Z " fill="#050C11" transform="translate(29,35)"/>
<path d="M0,0 L2,0 L2,2 L7,4 L11,9 L11,11 L2,11 L-1,8 L-1,6 L2,6 L2,4 L0,4 Z " fill="#756556" transform="translate(137,21)"/>
<path d="M0,0 L11,0 L10,4 L7,4 L7,6 L5,7 L-3,7 L-2,4 L0,4 Z " fill="#2A343D" transform="translate(117,0)"/>
<path d="M0,0 L15,0 L18,4 L0,4 Z " fill="#110300" transform="translate(0,80)"/>
<path d="M0,0 L1,4 L-1,4 L-1,7 L-7,9 L-8,11 L-13,13 L-16,13 L-14,9 L-4,4 Z " fill="#766B5F" transform="translate(19,57)"/>
<path d="M0,0 L4,0 L4,2 L8,2 L8,5 L6,5 L6,9 L0,9 Z " fill="#341B0D" transform="translate(0,8)"/>
<path d="M0,0 L14,0 L14,4 L1,4 Z " fill="#181A1C" transform="translate(98,0)"/>
<path d="M0,0 L4,1 L4,7 L3,9 L-1,8 L-2,5 L-4,5 L-4,2 Z " fill="#37424C" transform="translate(24,63)"/>
<path d="M0,0 L6,0 L6,9 L5,11 L-5,11 L-10,9 L-8,6 L-3,7 L-3,10 L4,9 L5,1 L0,1 Z " fill="#090F15" transform="translate(125,33)"/>
<path d="M0,0 L9,0 L9,14 L5,15 L5,9 L7,9 L7,1 L1,2 Z " fill="#3C2F2C" transform="translate(31,0)"/>
<path d="M0,0 L4,0 L4,9 L-4,8 L-5,5 L-1,4 Z " fill="#191A19" transform="translate(59,0)"/>
<path d="M0,0 L8,0 L9,4 L8,5 L0,5 Z " fill="#26343B" transform="translate(106,74)"/>
<path d="M0,0 L5,0 L7,1 L7,4 L4,6 L4,9 L0,9 Z " fill="#28170F" transform="translate(0,62)"/>
<path d="M0,0 L2,4 L3,7 L2,8 L-3,8 L-12,5 L-8,3 L-1,3 Z " fill="#69686C" transform="translate(14,70)"/>
<path d="M0,0 L5,0 L3,5 L-2,7 L-7,7 L-7,5 L-4,5 L-3,2 L0,2 Z " fill="#73665C" transform="translate(142,72)"/>
<path d="M0,0 L3,0 L3,9 L1,15 L-2,15 L-3,17 L-3,14 L0,14 Z " fill="#1B110F" transform="translate(40,0)"/>
<path d="M0,0 L6,0 L4,2 L6,4 L4,4 L3,8 L0,8 L-1,3 L-3,2 Z " fill="#1C0701" transform="translate(135,69)"/>
<path d="M0,0 L4,0 L4,2 L2,2 L1,8 L-6,8 L-6,5 L-2,5 Z " fill="#211A13" transform="translate(79,76)"/>
<path d="M0,0 L1,0 L1,6 L9,6 L9,8 L3,8 L2,13 L-1,12 Z " fill="#4F4A48" transform="translate(43,0)"/>
<path d="M0,0 L7,2 L7,6 L-1,5 Z " fill="#18120D" transform="translate(25,51)"/>
<path d="M0,0 L10,0 L9,4 L0,3 Z " fill="#30363B" transform="translate(16,36)"/>
<path d="M0,0 L6,0 L5,4 L9,3 L10,6 L2,5 Z " fill="#1F0A02" transform="translate(125,69)"/>
<path d="M0,0 L10,0 L5,4 L3,5 L-2,3 Z " fill="#162F32" transform="translate(17,76)"/>
<path d="M0,0 L4,0 L4,2 L9,3 L7,5 L-1,5 L-1,1 Z " fill="#0B0E13" transform="translate(64,53)"/>
<path d="M0,0 L3,0 L5,2 L10,2 L10,5 L3,5 L-1,3 Z " fill="#131413" transform="translate(54,21)"/>
<path d="M0,0 L8,0 L8,6 L7,8 L5,8 L5,3 L3,3 L3,1 Z " fill="#363A40" transform="translate(122,34)"/>
<path d="M0,0 L6,2 L4,7 L-2,6 L-2,4 L0,3 Z M1,2 Z " fill="#070D12" transform="translate(103,27)"/>
<path d="M0,0 L4,1 L6,2 L6,6 L1,6 L0,5 Z " fill="#0F1111" transform="translate(49,26)"/>
<path d="M0,0 L4,0 L5,5 L0,6 L-3,7 L-3,4 L-1,4 Z " fill="#09131C" transform="translate(33,64)"/>
<path d="M0,0 L1,2 L0,4 L-2,4 L-2,6 L-11,6 L-11,3 L-4,3 Z " fill="#060C0F" transform="translate(62,60)"/>
<path d="M0,0 L5,0 L5,3 L-6,3 L-6,1 Z " fill="#351C0C" transform="translate(6,81)"/>
<path d="M0,0 L3,0 L3,3 L0,3 L2,7 L-3,7 L-2,2 Z " fill="#353F48" transform="translate(33,72)"/>
<path d="M0,0 L4,2 L8,6 L8,8 L2,6 Z " fill="#0E1319" transform="translate(142,36)"/>
<path d="M0,0 L8,0 L7,4 L0,3 Z " fill="#14191E" transform="translate(82,21)"/>
<path d="M0,0 L7,2 L8,5 L11,4 L11,6 L5,6 Z " fill="#0A1617" transform="translate(13,78)"/>
<path d="M0,0 L4,0 L4,3 L1,4 L-1,7 L-3,7 L-3,3 L-1,3 Z " fill="#120200" transform="translate(9,10)"/>
<path d="M0,0 L1,4 L3,4 L3,9 L5,10 L0,11 Z " fill="#432513" transform="translate(0,27)"/>
<path d="M0,0 L3,0 L2,6 L-2,6 L-2,1 Z " fill="#2D353A" transform="translate(78,69)"/>
<path d="M0,0 L1,0 L1,7 L0,8 L-9,7 L-6,4 L-1,7 Z " fill="#202B35" transform="translate(28,65)"/>
<path d="M0,0 L2,0 L2,5 L-3,6 L-5,4 L-3,3 L-3,1 Z " fill="#252E34" transform="translate(71,59)"/>
<path d="M0,0 L3,0 L6,3 L6,6 L0,6 L0,2 Z " fill="#1E2328" transform="translate(59,55)"/>
<path d="M0,0 L4,1 L6,4 L6,8 L4,8 L4,4 L1,4 Z " fill="#080B0E" transform="translate(112,49)"/>
<path d="M0,0 L3,1 L4,4 L8,5 L8,6 L0,6 Z " fill="#AA9A8B" transform="translate(140,25)"/>
<path d="M0,0 L2,0 L1,5 L-3,4 L-4,6 L-4,1 Z " fill="#14181B" transform="translate(98,48)"/>
<path d="M0,0 L1,0 L1,6 L0,8 L-3,8 L-3,4 L-1,4 Z " fill="#363331" transform="translate(51,76)"/>
<path d="M0,0 L4,1 L4,8 L2,8 L2,3 L0,3 Z " fill="#2A0F03" transform="translate(1,28)"/>
<path d="M0,0 L3,0 L3,6 L0,7 Z " fill="#765C45" transform="translate(0,9)"/>
<path d="M0,0 L5,0 L5,4 L0,4 Z " fill="#19232E" transform="translate(107,0)"/>
<path d="M0,0 L4,1 L3,3 L-4,4 L-4,2 Z " fill="#111317" transform="translate(50,57)"/>
<path d="M0,0 L2,0 L2,2 L4,2 L4,4 L1,4 L3,8 L0,8 Z " fill="#423223" transform="translate(135,23)"/>
<path d="M0,0 L6,0 L6,3 L1,4 Z " fill="#21201B" transform="translate(47,8)"/>
<path d="M0,0 L5,1 L8,1 L8,3 L0,4 Z " fill="#2A1409" transform="translate(30,0)"/>
<path d="M0,0 L4,0 L4,4 L-2,4 Z " fill="#040402" transform="translate(55,0)"/>
<path d="M0,0 L4,1 L3,3 L6,4 L0,5 Z " fill="#070F18" transform="translate(65,59)"/>
<path d="M0,0 L5,1 L5,3 L1,4 L-2,2 Z " fill="#10171C" transform="translate(117,39)"/>
<path d="M0,0 L4,0 L5,3 L0,4 Z " fill="#212B34" transform="translate(117,0)"/>
<path d="M0,0 L0,3 L-1,4 L-6,4 L-6,2 Z " fill="#83766B" transform="translate(141,75)"/>
<path d="M0,0 L1,0 L1,5 L-4,5 L-2,4 L-3,1 Z " fill="#0B0F14" transform="translate(119,73)"/>
<path d="M0,0 L5,2 L4,5 L1,5 Z " fill="#442C1F" transform="translate(134,72)"/>
<path d="M0,0 L4,1 L1,4 L-2,4 Z " fill="#A18B7C" transform="translate(5,66)"/>
<path d="M0,0 L3,1 L2,6 L1,4 L-1,4 Z M1,3 Z " fill="#151615" transform="translate(88,49)"/>
<path d="M0,0 L4,0 L4,4 L0,4 Z " fill="#030811" transform="translate(113,0)"/>
<path d="M0,0 L1,0 L1,6 L0,8 L-2,8 L-1,3 Z " fill="#293037" transform="translate(129,34)"/>
<path d="M0,0 L7,0 L10,2 L5,3 L5,1 L0,1 Z " fill="#383733" transform="translate(47,5)"/>
<path d="M0,0 L2,3 L1,4 L-4,4 L-5,2 L0,2 Z " fill="#4E5152" transform="translate(15,74)"/>
<path d="M0,0 L4,2 L2,3 L-4,3 Z " fill="#26313A" transform="translate(24,63)"/>
<path d="M0,0 L5,0 L2,1 L0,5 L0,2 L-2,1 Z " fill="#202E35" transform="translate(30,79)"/>
<path d="M0,0 L5,0 L4,2 L2,2 L2,4 L0,4 Z " fill="#364951" transform="translate(108,75)"/>
<path d="M0,0 L3,0 L2,5 L0,5 Z " fill="#140905" transform="translate(9,59)"/>
<path d="M0,0 L2,1 L-3,5 L-3,2 Z " fill="#060C0B" transform="translate(87,48)"/>
<path d="M0,0 L6,0 L2,3 L-1,2 Z " fill="#0B131A" transform="translate(25,39)"/>
<path d="M0,0 L3,0 L3,4 L0,4 Z " fill="#1C1C1C" transform="translate(49,26)"/>
<path d="M0,0 L3,0 L3,3 L-1,3 Z " fill="#29444A" transform="translate(27,81)"/>
<path d="M0,0 L3,2 L2,4 L-1,3 L-2,1 Z " fill="#5C483A" transform="translate(9,64)"/>
<path d="M0,0 L3,1 L1,3 L-3,2 Z " fill="#A99687" transform="translate(13,62)"/>
<path d="M0,0 L4,0 L4,3 L0,2 Z " fill="#8E7966" transform="translate(136,27)"/>
<path d="M0,0 L4,3 L1,4 L-1,2 Z " fill="#2F1606" transform="translate(137,70)"/>
<path d="M0,0 L1,4 L-2,4 Z " fill="#0F0300" transform="translate(23,52)"/>
<path d="M0,0 L3,0 L3,3 L0,3 Z " fill="#020201" transform="translate(45,2)"/>
<path d="M0,0 L3,1 L3,3 L0,3 Z " fill="#11171A" transform="translate(51,63)"/>
<path d="M0,0 L3,0 L3,3 L0,2 Z " fill="#15191E" transform="translate(112,49)"/>
<path d="M0,0 L3,1 L2,3 L0,3 Z " fill="#06080B" transform="translate(63,47)"/>
<path d="M0,0 L2,3 L-1,3 Z " fill="#5D4D40" transform="translate(16,59)"/>
<path d="M0,0 L2,1 L2,3 L-1,2 Z " fill="#0C0D11" transform="translate(148,41)"/>
<path d="M0,0 L2,0 L1,3 L-1,1 Z " fill="#29353A" transform="translate(123,2)"/>
</svg>
