<svg width="117" height="117" viewBox="0 0 117 117" fill="none" xmlns="http://www.w3.org/2000/svg">
<g clip-path="url(#clip0_2327_31660)">
<path d="M62.9772 106.662V111.758C61.6303 111.758 60.3198 111.758 58.9729 111.758V116.49H58.2449V106.662H62.9772Z" fill="#C1FE6E"/>
<path d="M4.73239 112.486C4.73239 113.833 4.73239 115.143 4.73239 116.49H0V112.486H4.73239Z" fill="#E4FEC0"/>
<path d="M68.0737 106.662V111.758C66.3991 111.758 64.6882 111.758 62.9772 111.758V116.49H58.9729V111.758C60.3198 111.758 61.6303 111.758 62.9772 111.758V106.662H68.0737Z" fill="#E4FEC0"/>
<path d="M33.8548 112.486H29.8505V116.49H33.8548V112.486Z" fill="#E4FEC0"/>
<path d="M92.0997 112.486C92.1725 113.797 92.0633 115.18 92.0997 116.49H88.0953V112.486H92.0997Z" fill="#E4FEC0"/>
<path d="M116.49 112.486H112.485V116.49H116.49V112.486Z" fill="#E4FEC0"/>
<path d="M87.3673 111.758C88.9326 111.758 90.5343 111.758 92.0997 111.758C92.0997 112.013 92.0997 112.231 92.0997 112.486H88.0953V116.49L87.3673 116.49V111.758Z" fill="#C1FE6E"/>
<path d="M116.49 111.758L116.49 112.486H112.485V116.49L111.757 116.49V111.758H116.49Z" fill="#C1FE6E"/>
<path d="M111.757 107.39C111.83 108.846 111.757 110.302 111.757 111.758C110.301 111.758 108.845 111.831 107.389 111.758V107.39H111.757Z" fill="#D9FEA7"/>
<path d="M106.661 106.662C108.372 106.662 110.083 106.662 111.757 106.662C111.757 106.916 111.757 107.135 111.757 107.39H107.389V111.758C107.134 111.758 106.916 111.758 106.661 111.758C106.661 110.047 106.661 108.336 106.661 106.662Z" fill="#C1FE6E"/>
<path d="M9.82882 107.39C9.82882 108.846 9.82882 110.302 9.82882 111.758C8.3727 111.758 6.91658 111.758 5.46045 111.758V107.39H9.82882Z" fill="#D9FEA7"/>
<path d="M58.2449 106.662V111.758C56.9343 111.722 55.551 111.831 54.2405 111.758V106.662H58.2449Z" fill="#E4FEC0"/>
<path d="M54.2405 106.662V111.758C53.9857 111.758 53.7673 111.758 53.5125 111.758V106.662H54.2405Z" fill="#C1FE6E"/>
<path d="M24.39 14.5622V15.2903C24.39 16.6372 24.39 17.9477 24.39 19.2946C25.9554 19.2946 27.5571 19.2946 29.1224 19.2946C30.6878 19.2946 32.2895 19.2946 33.8548 19.2946V14.5622C38.6964 14.5622 43.5744 14.5622 48.416 14.5622V19.2946C50.127 19.2946 51.8379 19.2946 53.5125 19.2946C53.5125 21.0055 53.5125 22.7165 53.5125 24.391C56.6795 24.391 59.8102 24.391 62.9773 24.391V19.2946C64.6882 19.2946 66.3627 19.2946 68.0737 19.2946V14.5622C71.2043 14.5622 74.3714 14.5622 77.5385 14.5622V19.2946C74.3714 19.2946 71.2407 19.2946 68.0737 19.2946V24.391C66.3627 24.391 64.6882 24.391 62.9773 24.391V29.1234C61.4119 29.1234 59.8102 29.1234 58.2449 29.1234C56.6795 29.1234 55.0778 29.1234 53.5125 29.1234C53.5125 27.5581 53.5125 25.9563 53.5125 24.391C51.8015 24.391 50.127 24.391 48.416 24.391C48.416 22.6801 48.416 21.0055 48.416 19.2946C45.249 19.2946 42.0819 19.2946 38.9513 19.2946C38.9513 21.0055 38.9513 22.6801 38.9513 24.391C37.2403 24.391 35.5658 24.391 33.8548 24.391C32.1439 24.391 30.6878 24.391 29.1224 24.391V29.1234H24.39C24.39 27.5581 24.39 25.9563 24.39 24.391H14.5612C14.5612 25.9563 14.5612 27.5581 14.5612 29.1234H1.38335e-05V24.391H9.82883C9.82883 22.7165 9.82883 21.0055 9.82883 19.2946H10.5569C11.9038 19.2946 13.2143 19.2946 14.5612 19.2946C15.9081 19.2946 17.7283 19.2946 19.2936 19.2946C19.2936 17.7293 19.2936 16.1275 19.2936 14.5622C21.0046 14.5622 22.6791 14.5622 24.39 14.5622Z" fill="#BD0000"/>
<path d="M111.757 68.0746H116.49V68.8027H111.757C111.757 70.1496 111.757 71.4601 111.757 72.807H106.661C106.661 71.2417 106.661 69.64 106.661 68.0746H111.757Z" fill="#C1FE6E"/>
<path d="M44.4117 0.000976562V4.73337C45.7586 4.73337 47.0691 4.73337 48.416 4.73337C48.416 4.98819 48.416 5.20661 48.416 5.46143C48.416 6.15309 48.5981 9.79339 48.1976 9.8298H43.6837C43.6837 8.37367 43.6837 6.91755 43.6837 5.46143C43.6837 4.00531 43.6837 4.98819 43.6837 4.73337V0.000976562H44.4117Z" fill="#C1FE6E"/>
<path d="M82.6349 19.2946V24.391H87.3673C87.3673 25.9563 87.3673 27.5581 87.3673 29.1234C88.9326 29.1234 90.5344 29.1962 92.0997 29.1234C92.0997 30.6887 92.0997 32.2905 92.0997 33.8558H97.1961C97.1961 35.5667 97.1961 37.2413 97.1961 38.9522C98.7614 38.9522 100.363 38.9522 101.929 38.9522C101.929 39.207 101.929 39.4255 101.929 39.6803C101.929 41.0272 101.929 42.3377 101.929 43.6846C103.494 43.6846 105.096 43.6846 106.661 43.6846V48.417H111.757C111.757 50.128 111.757 51.8025 111.757 53.5134H116.49V58.2458H111.757V62.9782H106.661C106.661 64.6892 106.661 66.3637 106.661 68.0746C105.096 68.0746 103.494 68.0747 101.929 68.0747V72.807H97.1961V77.5394H92.0997C92.0997 79.2504 92.0997 80.9613 92.0997 82.6359C90.5344 82.6359 88.9326 82.6359 87.3673 82.6359C87.3673 84.2012 87.3673 85.8029 87.3673 87.3683C85.802 87.3683 84.2002 87.3683 82.6349 87.3683C82.6349 88.9336 82.6349 90.5353 82.6349 92.1007C80.924 92.1007 79.213 92.1007 77.5385 92.1007V97.1971C75.9731 97.1971 74.3714 97.1971 72.8061 97.1971C72.8061 95.4861 72.8061 93.8116 72.8061 92.1007C74.3714 92.1007 75.9731 92.1007 77.5385 92.1007C77.5385 90.5353 77.5385 88.9336 77.5385 87.3683C79.2494 87.3683 80.924 87.3683 82.6349 87.3683C82.6349 85.8029 82.6349 84.2012 82.6349 82.6359C84.2002 82.6359 85.802 82.6359 87.3673 82.6359C87.3673 80.9249 87.3673 79.2504 87.3673 77.5394C88.9326 77.5394 90.5344 77.5394 92.0997 77.5394C92.0997 75.9741 92.0997 74.3724 92.0997 72.807C93.8106 72.807 95.4852 72.807 97.1961 72.807V68.0747C98.7614 68.0747 100.363 68.0747 101.929 68.0747V62.9782C103.494 62.9782 105.096 62.9782 106.661 62.9782C106.661 61.4129 106.661 59.8112 106.661 58.2458C108.372 58.2458 110.046 58.2458 111.757 58.2458C111.757 56.6805 111.757 55.0788 111.757 53.5134H106.661V48.417C105.096 48.417 103.494 48.417 101.929 48.417C101.929 46.8517 101.929 45.25 101.929 43.6846C100.363 43.6846 98.7614 43.6846 97.1961 43.6846C97.1961 42.1193 97.1961 40.5176 97.1961 38.9522C95.4852 38.9522 93.8106 38.9522 92.0997 38.9522C92.0997 37.2413 92.0997 35.5667 92.0997 33.8558C90.5344 33.8558 88.9326 33.8558 87.3673 33.8558C87.3673 32.2905 87.3673 30.6887 87.3673 29.1234C85.802 29.1234 84.2002 29.1234 82.6349 29.1234V24.391H77.5385C77.5385 22.6801 77.5385 21.0055 77.5385 19.2946H82.6349Z" fill="#780000"/>
<path d="M4.73241 0.000976562V4.73337C3.16708 4.73337 1.56534 4.73337 1.38335e-05 4.73337V0.000976562H4.73241Z" fill="#E4FEC0"/>
<path d="M111.757 0.000976562V4.73337C110.301 4.73337 108.845 4.73337 107.389 4.73337V0.000976562H111.757Z" fill="#E4FEC0"/>
<path d="M116.49 44.4127V48.417L111.757 48.417C111.757 47.0701 111.757 45.7596 111.757 44.4127H116.49Z" fill="#E4FEC0"/>
<path d="M116.49 68.8027V72.807H111.757C111.757 74.3724 111.757 75.9741 111.757 77.5394H106.661C106.661 75.9741 106.661 74.3724 106.661 72.807H111.757C111.757 71.4601 111.757 70.1496 111.757 68.8027H116.49Z" fill="#E4FEC0"/>
<path d="M48.416 0.000976562V4.73337C47.0691 4.73337 45.7586 4.73337 44.4117 4.73337V0.000976562H48.416Z" fill="#E4FEC0"/>
<path d="M72.8061 0.000976562H68.8018V4.73337H72.8061V0.000976562Z" fill="#E4FEC0"/>
<path d="M68.8018 0.000976562H68.0737V9.8298H68.8017L68.8018 0.000976562Z" fill="#C1FE6E"/>
<path d="M34.5829 101.929V111.758C34.3281 111.758 34.1097 111.758 33.8548 111.758V101.929C34.1097 101.929 34.3281 101.929 34.5829 101.929Z" fill="#C1FE6E"/>
<path d="M33.8548 111.758L33.8548 112.486H29.8505V116.49L29.1224 116.491V111.758C30.6878 111.758 32.2895 111.758 33.8548 111.758Z" fill="#C1FE6E"/>
<path d="M107.389 0.000976562V4.73337C107.134 4.73337 106.916 4.73337 106.661 4.73337V0.000976562H107.389Z" fill="#C1FE6E"/>
<path d="M101.929 9.8298C101.929 11.3951 101.929 12.9969 101.929 14.5622C100.363 14.5622 98.7615 14.5622 97.1961 14.5622C97.1961 13.2153 97.1961 11.9048 97.1961 10.5579H92.8278V14.5622C94.2839 14.5622 95.74 14.5622 97.1961 14.5622C97.1961 16.1275 97.1961 17.7293 97.1961 19.2946C95.4852 19.2946 93.8106 19.2946 92.0997 19.2946C92.0997 17.7293 92.0997 16.1275 92.0997 14.5622C92.0997 12.9969 92.0997 11.3951 92.0997 9.8298C95.376 9.8298 98.6522 9.8298 101.929 9.8298Z" fill="#C1FE6E"/>
<path d="M106.661 4.73337C106.661 4.98819 106.661 5.20661 106.661 5.46143H102.657V9.8298C102.402 9.8298 102.183 9.8298 101.929 9.8298C101.929 8.11885 101.929 6.40791 101.929 4.73337C103.494 4.73337 105.096 4.73337 106.661 4.73337Z" fill="#C1FE6E"/>
<path d="M14.5612 92.1007C14.5612 92.3555 14.5612 92.5739 14.5612 92.8287C14.088 92.9743 10.5569 92.6103 10.5569 92.8287V101.929C11.9038 101.929 13.2143 101.929 14.5612 101.929V106.662C12.9959 106.662 11.3942 106.662 9.82883 106.662C9.86524 101.82 9.82883 96.9423 9.82883 92.1007C11.3942 92.1007 12.9959 92.1007 14.5612 92.1007Z" fill="#C1FE6E"/>
<path d="M4.73241 111.758H1.38335e-05L0 112.486H4.73239L4.73241 111.758Z" fill="#C1FE6E"/>
<path d="M9.82883 106.662C9.82883 106.917 9.82882 107.135 9.82882 107.39H5.46045V111.758C5.20563 111.758 4.98723 111.758 4.73241 111.758C4.73241 110.047 4.73241 108.373 4.73241 106.662C6.44335 106.662 8.15429 106.662 9.82883 106.662Z" fill="#C1FE6E"/>
<path d="M19.2936 97.1971C19.2936 98.7624 19.2936 100.364 19.2936 101.929C17.7283 101.929 16.1266 101.929 14.5612 101.929L14.5612 97.1971H19.2936Z" fill="#C1FE6E"/>
<path d="M116.49 43.6846V44.4127H111.757C111.757 44.1579 111.757 43.9394 111.757 43.6846H116.49Z" fill="#C1FE6E"/>
<path d="M38.9513 62.9782C38.9513 64.6892 38.9513 66.3637 38.9513 68.0747C37.2403 68.0747 35.5294 68.0747 33.8548 68.0747C33.8548 69.64 33.8548 71.2417 33.8548 72.807C32.2895 72.807 30.6878 72.807 29.1224 72.807V77.5394C27.5571 77.5394 25.9554 77.5394 24.39 77.5394C21.1138 77.5394 17.8375 77.5394 14.5612 77.5394C14.5612 75.9741 14.5612 74.3724 14.5612 72.807C12.9959 72.807 11.3942 72.807 9.82883 72.807V68.0747C11.3942 68.0747 12.9959 68.0747 14.5612 68.0747C16.1266 68.0747 17.7283 68.0747 19.2936 68.0747V72.807H24.39C24.39 71.2417 24.39 69.64 24.39 68.0747H29.1224V62.9782H38.9513Z" fill="#BD0000"/>
<path d="M9.82883 49.1451C9.82883 50.6012 9.82883 52.0573 9.82883 53.5134C11.3942 53.5134 12.9959 53.5134 14.5612 53.5134V68.0747C12.9959 68.0747 11.3942 68.0747 9.82883 68.0747C8.2635 68.0747 6.91659 68.1475 5.46047 68.0747V49.1451H9.82883Z" fill="#CBE8C4"/>
<path d="M9.82883 72.807C11.3942 72.807 12.9959 72.807 14.5612 72.807C14.5612 74.3724 14.5612 75.9741 14.5612 77.5394C17.8375 77.5394 21.1138 77.5394 24.39 77.5394V82.6358C22.6791 82.6358 21.0046 82.6358 19.2936 82.6358C17.5827 82.6358 16.1266 82.6358 14.5612 82.6358C14.5612 80.9249 14.5612 79.2504 14.5612 77.5394C12.9959 77.5394 11.3942 77.5394 9.82883 77.5394C8.2635 77.5394 6.40695 77.5394 4.73241 77.5394V73.0254C4.76881 72.6614 9.13717 72.807 9.82883 72.807Z" fill="#780000"/>
<path d="M14.5612 29.1234C14.5612 27.5581 14.5612 25.9563 14.5612 24.391H24.39C24.39 25.9563 24.39 27.5581 24.39 29.1234H14.5612C14.5612 30.6887 14.5612 32.2905 14.5612 33.8558C13.2143 33.8558 11.9038 33.8558 10.5569 33.8558C9.20998 33.8558 10.0837 33.8558 9.82883 33.8558C8.11789 33.8558 6.44335 33.8558 4.73241 33.8558V29.1234H14.5612Z" fill="#780000"/>
<path d="M106.661 68.0746C106.661 69.64 106.661 71.2417 106.661 72.807C106.661 74.3724 106.661 75.9741 106.661 77.5394C106.661 79.2504 106.661 80.9249 106.661 82.6359C105.096 82.6359 103.494 82.6359 101.929 82.6359V92.1006H97.1961C97.1961 93.8116 97.1961 95.4861 97.1961 97.1971C95.4852 97.1971 93.8106 97.1971 92.0997 97.1971C92.0997 98.7624 92.0997 100.364 92.0997 101.929H77.5385V106.662H43.6837V101.929C40.6622 101.929 37.6043 101.929 34.5829 101.929C31.5614 101.929 34.1097 101.929 33.8548 101.929C30.6878 101.929 27.5571 101.929 24.39 101.929V97.1971H19.2936C19.2936 95.4861 19.2936 93.8116 19.2936 92.1006C17.7283 92.1006 16.1266 92.1007 14.5612 92.1007C14.5612 88.9336 14.5612 85.8029 14.5612 82.6358C12.9959 82.6358 11.3942 82.6359 9.82883 82.6359V77.5394C11.3942 77.5394 12.9959 77.5394 14.5612 77.5394C14.5612 79.2504 14.5612 80.9249 14.5612 82.6358C16.1266 82.6358 17.7283 82.6358 19.2936 82.6358V92.1006C21.0046 92.1006 22.6791 92.1006 24.39 92.1006V97.1971H43.6837V101.929C51.8015 101.929 59.9558 101.929 68.0737 101.929H77.5385V97.1971C82.3801 97.1971 87.2581 97.1971 92.0997 97.1971C92.0997 95.4861 92.0997 93.7752 92.0997 92.1006C93.8106 92.1006 95.4852 92.1006 97.1961 92.1006C97.1961 88.9336 97.1961 85.7665 97.1961 82.6359C98.7614 82.6359 100.363 82.6359 101.929 82.6359L101.929 68.0747C103.494 68.0747 105.096 68.0746 106.661 68.0746Z" fill="#7CFD75"/>
<path d="M33.8548 38.9522C33.8548 40.5176 33.8548 42.1193 33.8548 43.6846C35.5658 43.6846 37.2403 43.6846 38.9513 43.6846C38.9513 45.2499 38.9513 46.8517 38.9513 48.417C40.5166 48.417 42.1183 48.417 43.6837 48.417C43.6837 50.128 43.6837 51.8389 43.6837 53.5134C45.249 53.5134 46.8507 53.5134 48.416 53.5134V58.2458C46.8507 58.2458 45.249 58.2458 43.6837 58.2458C42.1183 58.2458 40.5166 58.2458 38.9513 58.2458C38.9513 56.6805 38.9513 55.0788 38.9513 53.5134C35.675 53.5134 32.3987 53.5134 29.1224 53.5134C29.1224 51.8025 29.1224 50.128 29.1224 48.417C30.6878 48.417 32.2895 48.417 33.8548 48.417C33.8548 46.8517 33.8548 45.2499 33.8548 43.6846C32.2895 43.6846 30.6878 43.6846 29.1224 43.6846C29.1224 45.2499 29.1224 46.8517 29.1224 48.417C27.5571 48.417 25.9554 48.417 24.39 48.417C24.39 50.128 24.39 51.8389 24.39 53.5134C21.1138 53.5134 17.8375 53.5134 14.5612 53.5134V48.417C12.9959 48.417 11.3942 48.417 9.82883 48.417C9.82883 46.8517 9.82883 45.2499 9.82883 43.6846H14.5612V48.417C16.1266 48.417 17.7283 48.417 19.2936 48.417C19.2936 46.8517 19.2936 45.2499 19.2936 43.6846C22.5699 43.6846 25.8462 43.6846 29.1224 43.6846C29.1224 42.1193 29.1224 40.5176 29.1224 38.9522C30.6878 38.9522 32.2895 38.9522 33.8548 38.9522Z" fill="#BD0000"/>
<path d="M9.82883 48.417C9.82883 48.6718 9.82883 48.8903 9.82883 49.1451H5.46047V68.0747C5.20565 68.0747 4.98723 68.0747 4.73241 68.0747V48.417C6.40695 48.417 8.11789 48.417 9.82883 48.417Z" fill="#7CFD75"/>
<path d="M10.5569 33.8558V43.6846H9.82883V33.8558C10.0837 33.8558 10.3021 33.8558 10.5569 33.8558Z" fill="#7CFD75"/>
<path d="M68.0737 9.8298H68.8017C70.1487 9.8298 71.4592 9.8298 72.8061 9.8298C77.6477 9.8298 82.5257 9.8298 87.3673 9.8298C87.3673 11.3951 87.3673 12.9969 87.3673 14.5622H92.0997C92.0997 16.1275 92.0997 17.7293 92.0997 19.2946C93.8106 19.2946 95.4852 19.2946 97.1961 19.2946C97.1961 21.0055 97.1961 22.6801 97.1961 24.391C98.7614 24.391 100.363 24.391 101.929 24.391C101.929 25.9563 101.929 27.5581 101.929 29.1234C101.929 30.6887 101.929 32.2905 101.929 33.8558C101.929 35.4211 101.929 37.2413 101.929 38.9522C100.363 38.9522 98.7614 38.9522 97.1961 38.9522C97.1961 37.2413 97.1961 35.5667 97.1961 33.8558C97.1961 30.6887 97.1961 27.5581 97.1961 24.391C95.74 24.391 94.2839 24.391 92.8278 24.391V29.1234C92.5729 29.1234 92.3545 29.1234 92.0997 29.1234C92.0997 27.5581 92.0997 25.9563 92.0997 24.391C92.0997 22.8257 92.0997 21.0055 92.0997 19.2946C90.7528 19.2946 89.4423 19.2946 88.0954 19.2946V24.391L87.3673 24.391C87.3673 22.6801 87.3673 21.0055 87.3673 19.2946C87.3673 17.5836 87.3673 16.1275 87.3673 14.5622C84.091 14.5622 80.8148 14.5622 77.5385 14.5622C74.2622 14.5622 71.2043 14.5622 68.0737 14.5622C64.943 14.5622 64.6518 14.5622 62.9773 14.5622V10.5579H58.2449C58.2449 10.303 58.2449 10.0846 58.2449 9.8298C61.5211 9.8298 64.7974 9.8298 68.0737 9.8298Z" fill="#7CFD75"/>
<path d="M101.929 19.2946C101.929 21.0055 101.929 22.6801 101.929 24.391C100.363 24.391 98.7614 24.391 97.1961 24.391C97.1961 22.6801 97.1961 21.0055 97.1961 19.2946H101.929Z" fill="#D9FEA7"/>
<path d="M106.661 24.391C106.661 22.6801 106.661 20.9691 106.661 19.2946H111.757C111.757 19.5494 111.757 19.7678 111.757 20.0226H107.389V24.391C107.134 24.391 106.916 24.391 106.661 24.391C106.661 25.9563 106.661 27.5581 106.661 29.1234H101.929C101.929 27.5581 101.929 25.9563 101.929 24.391C103.494 24.391 105.096 24.391 106.661 24.391Z" fill="#C1FE6E"/>
<path d="M106.661 29.1234C106.661 30.6887 106.661 32.2905 106.661 33.8558L101.929 33.8558C101.929 32.2905 101.929 30.6887 101.929 29.1234H106.661Z" fill="#E4FEC0"/>
<path d="M97.1961 14.5622C95.74 14.5622 94.2839 14.5622 92.8278 14.5622V10.5579H97.1961C97.1961 11.9048 97.1961 13.2153 97.1961 14.5622C98.7615 14.5622 100.363 14.5622 101.929 14.5622C101.929 16.1275 101.929 17.7293 101.929 19.2946H97.1961C97.1961 17.7293 97.1961 16.1275 97.1961 14.5622Z" fill="#E4FEC0"/>
<path d="M111.757 39.6803C111.83 40.9908 111.757 42.3741 111.757 43.6846L106.661 43.6846V39.6803H111.757Z" fill="#E4FEC0"/>
<path d="M111.757 20.0226C111.83 21.4788 111.721 22.9349 111.757 24.391C110.301 24.391 108.845 24.391 107.389 24.391V20.0226H111.757Z" fill="#E4FEC0"/>
<path d="M106.661 5.46143C106.661 6.91755 106.661 8.37367 106.661 9.8298C105.314 9.8298 104.003 9.8298 102.657 9.8298V5.46143H106.661Z" fill="#E4FEC0"/>
<path d="M101.929 38.9522C105.205 38.9522 108.481 38.9522 111.757 38.9522C111.757 39.207 111.757 39.4255 111.757 39.6803L101.929 39.6803C101.929 39.4255 101.929 39.207 101.929 38.9522Z" fill="#C1FE6E"/>
<path d="M43.6837 5.46143C43.6837 6.91755 43.6837 8.37367 43.6837 9.8298H48.1976C48.5981 9.79339 48.416 6.15309 48.416 5.46143H58.2449C58.3177 6.91755 58.1721 8.37367 58.2449 9.8298C58.3177 11.2859 58.2449 10.303 58.2449 10.5579H62.9773V14.5622C64.6882 14.5622 66.3991 14.5622 68.0737 14.5622V19.2946C66.3627 19.2946 64.6882 19.2946 62.9773 19.2946C61.2663 19.2946 59.8102 19.2946 58.2449 19.2946V14.5622C54.9686 14.5622 51.6923 14.5622 48.416 14.5622C43.5744 14.5622 38.6964 14.5622 33.8548 14.5622V19.2946C32.2895 19.2946 30.6878 19.2946 29.1224 19.2946V15.2903C29.1224 15.0354 29.1224 14.817 29.1224 14.5622C29.3773 14.5622 29.5957 14.5622 29.8505 14.5622V10.5579C30.7606 10.5579 31.6707 10.5579 32.6171 10.5579C33.5636 10.5579 34.0733 10.9219 33.8912 9.8298C35.6022 9.8298 37.3131 9.8298 38.9877 9.8298C39.0241 8.37367 38.9149 6.91755 38.9877 5.46143H43.7201H43.6837Z" fill="#CBE8C4"/>
<path d="M9.82883 5.46143C9.90164 6.91755 9.82883 8.37367 9.82883 9.8298C8.37271 9.8298 6.91659 9.9026 5.46047 9.8298V5.46143H9.82883Z" fill="#D9FEA7"/>
<path d="M19.2936 10.5579C19.3664 11.8684 19.2936 13.2517 19.2936 14.5622H14.5612V19.2946C13.2143 19.2946 11.9038 19.2946 10.5569 19.2946C10.5569 17.7293 10.5569 16.1275 10.5569 14.5622H14.5612V10.5579C16.1266 10.5579 17.7283 10.5579 19.2936 10.5579Z" fill="#E4FEC0"/>
<path d="M9.82883 9.8298C12.9959 9.8298 16.163 9.8298 19.2936 9.8298C19.2936 10.0846 19.2936 10.303 19.2936 10.5579C17.7283 10.5579 16.1266 10.5579 14.5612 10.5579C12.9959 10.5579 11.9038 10.5579 10.5569 10.5579C10.5569 11.9048 10.5569 13.2153 10.5569 14.5622C10.5569 15.9091 10.5569 17.7293 10.5569 19.2946H9.82883C9.82883 16.1639 9.82883 12.9605 9.82883 9.8298Z" fill="#C1FE6E"/>
<path d="M4.73241 4.73337C6.44335 4.73337 8.15429 4.73337 9.82883 4.73337C9.82883 4.98819 9.82883 5.20661 9.82883 5.46143H5.46047V9.8298C5.20565 9.8298 4.98723 9.8298 4.73241 9.8298C4.73241 8.11885 4.73241 6.40791 4.73241 4.73337Z" fill="#C1FE6E"/>
<path d="M33.8548 9.8298C34.0733 10.9219 33.3088 10.5215 32.5807 10.5579C31.8527 10.5943 30.7242 10.5579 29.8141 10.5579V14.5622C29.5593 14.5622 29.3409 14.5622 29.086 14.5622C29.086 14.817 29.086 15.0354 29.086 15.2903H24.3537V14.5622C25.919 14.5622 27.5207 14.635 29.086 14.5622C29.086 12.9969 29.086 11.3951 29.086 9.8298C30.6514 9.8298 32.2531 9.8298 33.8184 9.8298H33.8548Z" fill="#7CFD75"/>
<path d="M43.6837 4.73337C43.6837 4.98819 43.6837 5.20661 43.6837 5.46143H38.9513C38.9513 5.20661 38.9513 4.98819 38.9513 4.73337H43.6837Z" fill="#7CFD75"/>
<path d="M101.929 97.1971C103.494 97.1971 105.096 97.1971 106.661 97.1971C106.661 97.4519 106.661 97.6703 106.661 97.9251H101.929C101.929 99.272 101.929 100.583 101.929 101.929C100.582 101.929 99.2711 101.929 97.9242 101.929V106.662C97.6693 106.662 97.4509 106.662 97.1961 106.662C97.1961 105.097 97.1961 103.495 97.1961 101.929C97.1961 100.364 97.1961 98.7624 97.1961 97.1971C98.7614 97.1971 100.363 97.1971 101.929 97.1971Z" fill="#C1FE6E"/>
<path d="M101.929 92.1006V97.1971C100.363 97.1971 98.7614 97.1971 97.1961 97.1971C97.1961 98.7624 97.1961 100.364 97.1961 101.929L92.0997 101.929C92.0997 100.364 92.0997 98.7624 92.0997 97.1971C93.8106 97.1971 95.4852 97.1971 97.1961 97.1971C97.1961 95.4861 97.1961 93.8116 97.1961 92.1006H101.929Z" fill="#D9FEA7"/>
<path d="M106.661 101.929C106.661 103.495 106.661 105.096 106.661 106.662C105.096 106.662 103.494 106.662 101.929 106.662C101.929 105.097 101.929 103.495 101.929 101.929C103.494 101.929 105.096 101.929 106.661 101.929Z" fill="#D9FEA7"/>
<path d="M106.661 82.6359C106.661 84.2012 106.661 85.8029 106.661 87.3683H101.929L101.929 82.6359C103.494 82.6359 105.096 82.6359 106.661 82.6359Z" fill="#E4FEC0"/>
<path d="M106.661 97.9251C106.734 99.2356 106.661 100.619 106.661 101.929C105.096 101.929 103.494 101.929 101.929 101.929C101.929 103.495 101.929 105.097 101.929 106.662C100.618 106.662 99.2347 106.735 97.9242 106.662V101.929C99.2711 101.929 100.582 101.929 101.929 101.929C101.929 100.583 101.929 99.272 101.929 97.9251H106.661Z" fill="#E4FEC0"/>
<path d="M48.416 19.2946C48.416 21.0055 48.416 22.6801 48.416 24.391C46.8507 24.391 45.249 24.391 43.6837 24.391C42.1183 24.391 40.5166 24.391 38.9513 24.391V29.1234H33.8548V24.391C35.5658 24.391 37.2403 24.391 38.9513 24.391C38.9513 22.6801 38.9513 21.0055 38.9513 19.2946C42.1183 19.2946 45.2854 19.2946 48.416 19.2946Z" fill="#720D0D"/>
<path d="M29.1224 29.1234H33.8548V33.8558C35.5658 33.8558 37.2767 33.8558 38.9513 33.8558C38.9513 35.5667 38.9513 37.2777 38.9513 38.9522C40.5166 38.9522 42.1183 38.9522 43.6837 38.9522C43.6837 40.5176 43.6837 42.1193 43.6837 43.6846C45.249 43.6846 46.8507 43.6846 48.416 43.6846C48.416 45.2499 48.416 46.8517 48.416 48.417C50.127 48.417 51.8379 48.417 53.5125 48.417C53.5125 50.128 53.5125 51.8389 53.5125 53.5134C55.0778 53.5134 56.6795 53.5134 58.2449 53.5134V58.2458C56.6795 58.2458 55.0778 58.2458 53.5125 58.2458C53.5125 59.8112 53.5125 61.4129 53.5125 62.9782H48.416V68.0747C46.8507 68.0747 45.249 68.0747 43.6837 68.0747C43.6837 69.64 43.6837 71.2417 43.6837 72.807C42.1183 72.807 40.5166 72.807 38.9513 72.807C38.9513 74.3724 38.9513 75.9741 38.9513 77.5394C37.2403 77.5394 35.5294 77.5394 33.8548 77.5394C33.8548 79.2504 33.8548 80.9249 33.8548 82.6359C32.2895 82.6359 30.6878 82.6359 29.1224 82.6359C27.5571 82.6359 25.9554 82.6358 24.39 82.6358V77.5394C25.9554 77.5394 27.5571 77.5394 29.1224 77.5394C30.6878 77.5394 32.2895 77.5394 33.8548 77.5394C33.8548 75.9741 33.8548 74.3724 33.8548 72.807C35.5658 72.807 37.2403 72.807 38.9513 72.807C38.9513 71.2417 38.9513 69.64 38.9513 68.0747C40.5166 68.0747 42.1183 68.0747 43.6837 68.0747C43.6837 64.7984 43.6837 61.5221 43.6837 58.2458C45.249 58.2458 46.8507 58.2458 48.416 58.2458C49.9814 58.2458 51.8015 58.2458 53.5125 58.2458C53.5125 56.6805 53.5125 55.0788 53.5125 53.5134C51.8015 53.5134 50.127 53.5134 48.416 53.5134C48.416 51.8025 48.416 50.128 48.416 48.417C46.8507 48.417 45.249 48.417 43.6837 48.417C43.6837 46.8517 43.6837 45.2499 43.6837 43.6846C42.1183 43.6846 40.5166 43.6846 38.9513 43.6846C38.9513 42.1193 38.9513 40.5176 38.9513 38.9522C37.2767 38.9522 35.5294 38.9522 33.8548 38.9522C33.8548 37.2413 33.8548 35.5667 33.8548 33.8558C30.6878 33.8558 27.5571 33.8558 24.39 33.8558C24.39 32.2905 24.39 30.6887 24.39 29.1234H29.1224Z" fill="#440909"/>
<path d="M33.8548 24.391V29.1234H29.1224V24.391C30.6878 24.391 32.2895 24.391 33.8548 24.391Z" fill="#780000"/>
<path d="M19.2936 14.5622C19.2936 16.1275 19.2936 17.7293 19.2936 19.2946C17.7283 19.2946 16.1266 19.2946 14.5612 19.2946V14.5622H19.2936Z" fill="#FE6363"/>
<path d="M29.1224 15.2903V19.2946C27.5571 19.2946 25.9554 19.2946 24.39 19.2946C24.39 17.9477 24.39 16.6372 24.39 15.2903H29.1224Z" fill="#D9FEA7"/>
<path d="M72.8061 4.73337V9.8298C71.4592 9.8298 70.1487 9.8298 68.8017 9.8298L68.8018 4.73337H72.8061Z" fill="#D9FEA7"/>
<path d="M19.2936 92.1006C19.2936 93.8116 19.2936 95.4861 19.2936 97.1971H24.39V101.929C22.6791 101.929 21.0046 101.929 19.2936 101.929C19.2936 100.364 19.2936 98.7624 19.2936 97.1971H14.5612L14.5612 92.8287C14.5612 92.5739 14.5612 92.3555 14.5612 92.1007C16.1266 92.1007 17.7283 92.1006 19.2936 92.1006Z" fill="#D9FEA7"/>
<path d="M14.5612 92.8287V101.929C13.2143 101.929 11.9038 101.929 10.5569 101.929V92.8287C10.5569 92.6103 14.088 92.9743 14.5612 92.8287Z" fill="#E4FEC0"/>
<path d="M19.2936 101.929C19.2936 103.495 19.2936 105.097 19.2936 106.662C17.7283 106.662 16.1266 106.662 14.5612 106.662V101.929C16.1266 101.929 17.7283 101.929 19.2936 101.929Z" fill="#E4FEC0"/>
<path d="M92.0997 101.929C92.0997 103.495 92.0997 105.097 92.0997 106.662C90.5344 106.662 88.9326 106.662 87.3673 106.662L87.3673 111.758C86.0568 111.758 84.6735 111.831 83.363 111.758V106.662C84.7099 106.662 86.0204 106.662 87.3673 106.662V101.929L92.0997 101.929Z" fill="#E4FEC0"/>
<path d="M43.6837 101.929V106.662L34.5829 106.662V101.929C37.6043 101.929 40.6622 101.929 43.6837 101.929Z" fill="#D9FEA7"/>
<path d="M38.9513 106.662V111.758C37.4951 111.758 36.039 111.758 34.5829 111.758V106.662L38.9513 106.662Z" fill="#E4FEC0"/>
<path d="M87.3673 101.929V106.662C86.0204 106.662 84.7099 106.662 83.363 106.662V111.758C83.1081 111.758 82.8897 111.758 82.6349 111.758C82.6349 110.047 82.6349 108.373 82.6349 106.662V101.929H87.3673Z" fill="#C1FE6E"/>
<path d="M82.6349 101.929L77.5385 101.929V106.662L82.6349 106.662V101.929Z" fill="#E4FEC0"/>
<path d="M48.416 4.73337C51.6923 4.76977 54.9686 4.73337 58.2449 4.73337C58.2449 4.98819 58.2449 5.20661 58.2449 5.46143H48.416C48.416 5.20661 48.416 4.98819 48.416 4.73337Z" fill="#7CFD75"/>
<path d="M111.757 62.9782V68.0746H106.661C106.661 66.3637 106.661 64.6892 106.661 62.9782H111.757Z" fill="#E4FEC0"/>
<path d="M82.6349 24.391V29.1234C84.2002 29.1234 85.802 29.1234 87.3673 29.1234C87.3673 30.6887 87.3673 32.2905 87.3673 33.8558C88.9326 33.8558 90.5344 33.8558 92.0997 33.8558C92.0997 35.5667 92.0997 37.2413 92.0997 38.9522C93.8106 38.9522 95.4852 38.9522 97.1961 38.9522C97.1961 40.5176 97.1961 42.1193 97.1961 43.6846C98.7614 43.6846 100.363 43.6846 101.929 43.6846C101.929 45.25 101.929 46.8517 101.929 48.417C103.494 48.417 105.096 48.417 106.661 48.417V53.5134H111.757C111.757 55.0788 111.757 56.6805 111.757 58.2458C110.046 58.2458 108.372 58.2458 106.661 58.2458C106.661 59.8112 106.661 61.4129 106.661 62.9782C105.096 62.9782 103.494 62.9782 101.929 62.9782V68.0747C100.363 68.0747 98.7614 68.0747 97.1961 68.0747V72.807C95.4852 72.807 93.8106 72.807 92.0997 72.807C92.0997 74.3724 92.0997 75.9741 92.0997 77.5394C90.5344 77.5394 88.9326 77.5394 87.3673 77.5394C87.3673 79.2504 87.3673 80.9249 87.3673 82.6359C85.802 82.6359 84.2002 82.6359 82.6349 82.6359C82.6349 84.2012 82.6349 85.8029 82.6349 87.3683C80.924 87.3683 79.2494 87.3683 77.5385 87.3683C77.5385 88.9336 77.5385 90.5353 77.5385 92.1007C75.9731 92.1007 74.3714 92.1007 72.8061 92.1007C72.8061 90.5353 72.8061 88.9336 72.8061 87.3683C74.3714 87.3683 75.9731 87.3683 77.5385 87.3683C77.5385 85.8029 77.5385 84.2012 77.5385 82.6359C79.2494 82.6359 80.924 82.6359 82.6349 82.6359C82.6349 80.9249 82.6349 79.2504 82.6349 77.5394C84.2002 77.5394 85.802 77.5394 87.3673 77.5394C87.3673 75.9741 87.3673 74.3724 87.3673 72.807C88.9326 72.807 90.5344 72.807 92.0997 72.807C92.0997 71.2417 92.0997 69.64 92.0997 68.0746C93.8106 68.0746 95.4852 68.0747 97.1961 68.0747L97.1961 62.9782C98.7615 62.9782 100.363 62.9782 101.929 62.9782V58.2458C103.494 58.2458 105.096 58.2458 106.661 58.2458V53.5134L101.929 53.5134C101.929 51.8025 101.929 50.128 101.929 48.417C100.363 48.417 98.7615 48.417 97.1961 48.417C97.1961 46.8517 97.1961 45.25 97.1961 43.6846C95.4852 43.6846 93.8106 43.6846 92.0997 43.6846V38.9522C90.5344 38.9522 88.9326 38.9522 87.3673 38.9522C87.3673 37.2413 87.3673 35.5667 87.3673 33.8558C85.802 33.8558 84.2002 33.8558 82.6349 33.8558C82.6349 32.2905 82.6349 30.6887 82.6349 29.1234C80.924 29.1234 79.2494 29.1234 77.5385 29.1234C77.5385 27.5581 77.5385 25.9563 77.5385 24.391H82.6349Z" fill="#C95119"/>
<path d="M106.661 39.6803V43.6846L111.757 43.6846C111.757 43.9394 111.757 44.1579 111.757 44.4127C111.757 45.7596 111.757 47.0701 111.757 48.417H106.661V43.6846C105.096 43.6846 103.494 43.6846 101.929 43.6846C101.929 42.3377 101.929 41.0272 101.929 39.6803L106.661 39.6803Z" fill="#D9FEA7"/>
<path d="M29.1224 53.5134C29.1224 55.0788 29.1224 56.6805 29.1224 58.2458C32.3987 58.2458 35.675 58.2458 38.9513 58.2458C38.9513 59.8112 38.9513 61.4129 38.9513 62.9782H24.39C24.39 61.4129 24.39 59.8112 24.39 58.2458C24.39 56.6805 24.39 55.0788 24.39 53.5134C25.9554 53.5134 27.5571 53.5134 29.1224 53.5134Z" fill="#E4FEC0"/>
<path d="M14.5612 48.417V53.5134C17.8375 53.5134 21.1138 53.5134 24.39 53.5134C24.39 51.8025 24.39 50.0916 24.39 48.417C25.9554 48.417 27.5571 48.417 29.1224 48.417C29.1224 50.128 29.1224 51.8025 29.1224 53.5134C32.3987 53.5134 35.675 53.5134 38.9513 53.5134C38.9513 55.0788 38.9513 56.6805 38.9513 58.2458C40.5166 58.2458 42.1183 58.2458 43.6837 58.2458C43.6837 61.5221 43.6837 64.7984 43.6837 68.0747C42.1183 68.0747 40.5166 68.0747 38.9513 68.0747C38.9513 69.64 38.9513 71.2417 38.9513 72.807C37.2403 72.807 35.5658 72.807 33.8548 72.807C33.8548 74.3724 33.8548 75.9741 33.8548 77.5394C32.2895 77.5394 30.6878 77.5394 29.1224 77.5394V72.807C30.6878 72.807 32.2895 72.807 33.8548 72.807C33.8548 71.2417 33.8548 69.64 33.8548 68.0747C35.5658 68.0747 37.2767 68.0747 38.9513 68.0747C38.9513 66.3637 38.9513 64.6892 38.9513 62.9782C38.9513 61.2673 38.9513 59.8112 38.9513 58.2458C35.675 58.2458 32.3987 58.2458 29.1224 58.2458C29.1224 56.6805 29.1224 55.0788 29.1224 53.5134C27.5571 53.5134 25.9554 53.5134 24.39 53.5134C24.39 55.0788 24.39 56.6805 24.39 58.2458L14.5612 58.2459V53.5134C12.9959 53.5134 11.3942 53.5134 9.82883 53.5134C9.82883 52.0573 9.82883 50.6012 9.82883 49.1451C9.82883 47.6889 9.82883 48.6718 9.82883 48.417C11.3942 48.417 12.9959 48.417 14.5612 48.417Z" fill="#780000"/>
<path d="M29.1224 62.9782V68.0747H24.39C24.39 66.3637 24.39 64.6892 24.39 62.9782H29.1224Z" fill="#FE6363"/>
<path d="M19.2936 29.1234V38.9522C19.2936 40.5176 19.2936 42.1193 19.2936 43.6846H10.5569V33.8558C11.9038 33.8558 13.2143 33.8558 14.5612 33.8558C14.5612 32.2905 14.5612 30.6887 14.5612 29.1234H19.2936Z" fill="#CBE8C4"/>
<path d="M24.39 87.3683H38.9513V92.1007C34.1097 92.1007 29.2316 92.1006 24.39 92.1006C19.5484 92.1006 21.0046 92.1006 19.2936 92.1006V87.3683H24.39Z" fill="#BD0000"/>
<path d="M24.39 82.6358V87.3683H19.2936V82.6358C21.0046 82.6358 22.6791 82.6358 24.39 82.6358Z" fill="#CBE8C4"/>
<path d="M19.2936 43.6846C19.2936 45.2499 19.2936 46.8517 19.2936 48.417C17.7283 48.417 16.1266 48.417 14.5612 48.417V43.6846H19.2936Z" fill="#FE6363"/>
<path d="M97.1961 24.391C97.1961 27.5581 97.1961 30.6887 97.1961 33.8558H92.0997C92.0997 32.2905 92.0997 30.6887 92.0997 29.1234C92.3545 29.1234 92.5729 29.1234 92.8278 29.1234V24.391C94.2839 24.391 95.74 24.391 97.1961 24.391Z" fill="#CBE8C4"/>
<path d="M14.5612 10.5579V14.5622H10.5569C10.5569 13.2153 10.5569 11.9048 10.5569 10.5579C11.9038 10.5579 13.2143 10.5579 14.5612 10.5579Z" fill="#D9FEA7"/>
<path d="M101.929 72.807H97.1961V77.5394L101.929 77.5394L101.929 72.807Z" fill="#CBE8C4"/>
<path d="M48.416 24.391C48.416 25.9563 48.416 27.5581 48.416 29.1234C50.127 29.1234 51.8015 29.1234 53.5125 29.1234C53.5125 30.6887 53.5125 32.2905 53.5125 33.8558C55.0778 33.8558 56.6795 33.8558 58.2449 33.8558C58.2449 35.5667 58.2449 37.2413 58.2449 38.9522C59.8102 38.9522 61.4119 38.9522 62.9773 38.9522V43.6846C64.6882 43.6846 66.3627 43.6846 68.0737 43.6846C68.0737 45.2499 68.0737 46.8517 68.0737 48.417C69.639 48.417 71.2408 48.417 72.8061 48.417C72.8061 50.128 72.8061 51.8025 72.8061 53.5134C71.2408 53.5134 69.639 53.5134 68.0737 53.5134C68.0737 51.8025 68.0737 50.128 68.0737 48.417C66.3627 48.417 64.6882 48.417 62.9773 48.417V43.6846C61.4119 43.6846 59.8102 43.6846 58.2449 43.6846C58.2449 42.1193 58.2449 40.5176 58.2449 38.9522C56.6795 38.9522 55.0778 38.9522 53.5125 38.9522C53.5125 37.2413 53.5125 35.5667 53.5125 33.8558C51.8015 33.8558 50.127 33.8558 48.416 33.8558C48.416 32.2905 48.416 30.6887 48.416 29.1234C46.8507 29.1234 45.249 29.1234 43.6837 29.1234C43.6837 27.5581 43.6837 25.9563 43.6837 24.391C45.249 24.391 46.8507 24.391 48.416 24.391Z" fill="#EFFE00"/>
<path d="M43.6837 24.391C43.6837 25.9563 43.6837 27.5581 43.6837 29.1234H38.9513V24.391C40.5166 24.391 42.1183 24.391 43.6837 24.391Z" fill="#FEDD00"/>
<path d="M38.9513 29.1234H43.6837C43.6837 30.6887 43.6837 32.2905 43.6837 33.8558C45.249 33.8558 46.8507 33.8558 48.416 33.8558C48.416 35.5667 48.416 37.2777 48.416 38.9522C50.127 38.9522 51.8379 38.9522 53.5125 38.9522C53.5125 40.5176 53.5125 42.1193 53.5125 43.6846C55.0778 43.6846 56.6795 43.6846 58.2449 43.6846C58.2449 45.2499 58.2449 46.8517 58.2449 48.417C59.8102 48.417 61.4119 48.417 62.9773 48.417V53.5134C61.4119 53.5134 59.8102 53.5134 58.2449 53.5134C56.6795 53.5134 55.0778 53.5134 53.5125 53.5134C53.5125 51.8025 53.5125 50.0916 53.5125 48.417C51.8015 48.417 50.0906 48.417 48.416 48.417C48.416 46.8517 48.416 45.2499 48.416 43.6846C46.8507 43.6846 45.249 43.6846 43.6837 43.6846C43.6837 42.1193 43.6837 40.5176 43.6837 38.9522C42.1183 38.9522 40.5166 38.9522 38.9513 38.9522C38.9513 37.2413 38.9513 35.5303 38.9513 33.8558C37.2403 33.8558 35.5294 33.8558 33.8548 33.8558V29.1234H38.9513Z" fill="#C53F00"/>
<path d="M33.8548 33.8558C33.8548 35.5667 33.8548 37.2413 33.8548 38.9522C35.5294 38.9522 37.2767 38.9522 38.9513 38.9522C38.9513 40.5176 38.9513 42.1193 38.9513 43.6846C40.5166 43.6846 42.1183 43.6846 43.6837 43.6846C43.6837 45.2499 43.6837 46.8517 43.6837 48.417C45.249 48.417 46.8507 48.417 48.416 48.417C48.416 50.128 48.416 51.8025 48.416 53.5134C50.127 53.5134 51.8015 53.5134 53.5125 53.5134C53.5125 55.0788 53.5125 56.6805 53.5125 58.2458C51.8015 58.2458 50.127 58.2458 48.416 58.2458V53.5134C46.8507 53.5134 45.249 53.5134 43.6837 53.5134C43.6837 51.8025 43.6837 50.0916 43.6837 48.417C42.1183 48.417 40.5166 48.417 38.9513 48.417C38.9513 46.8517 38.9513 45.2499 38.9513 43.6846C37.2403 43.6846 35.5658 43.6846 33.8548 43.6846C33.8548 42.1193 33.8548 40.5176 33.8548 38.9522C32.2895 38.9522 30.6878 38.9522 29.1224 38.9522C29.1224 40.5176 29.1224 42.1193 29.1224 43.6846C25.8462 43.6846 22.5699 43.6846 19.2936 43.6846C19.2936 42.1193 19.2936 40.5176 19.2936 38.9522L24.39 38.9522C24.39 37.2777 24.39 35.5667 24.39 33.8558C27.5571 33.8558 30.6878 33.8558 33.8548 33.8558Z" fill="#780000"/>
<path d="M87.3673 14.5622C87.3673 16.1275 87.3673 17.7293 87.3673 19.2946H77.5385V14.5622C80.8148 14.5622 84.091 14.5622 87.3673 14.5622Z" fill="#CBE8C4"/>
<path d="M92.0997 19.2946C92.0997 21.0055 92.0997 22.6801 92.0997 24.391H88.0954V19.2946C89.4423 19.2946 90.7528 19.2946 92.0997 19.2946Z" fill="#CBE8C4"/>
<path d="M58.2449 82.6359V87.3683C56.6795 87.3683 55.0778 87.3683 53.5125 87.3683V92.1007C51.8015 92.1007 50.127 92.1007 48.416 92.1007V97.1971H24.39V92.1006C29.2316 92.1006 34.1097 92.1007 38.9513 92.1007C40.5166 92.1007 42.1183 92.1007 43.6837 92.1007C45.249 92.1007 46.8507 92.1007 48.416 92.1007V87.3683C50.127 87.3683 51.8015 87.3683 53.5125 87.3683V82.6359C55.0778 82.6359 56.6795 82.6359 58.2449 82.6359Z" fill="#780000"/>
<path d="M48.416 97.1971C54.9686 97.1971 61.5211 97.1971 68.0737 97.1971L68.0737 101.929C59.9558 101.929 51.8015 101.929 43.6837 101.929V97.1971H48.416Z" fill="#CBE8C4"/>
<path d="M77.5385 97.1971V101.929L72.8061 101.929V97.1971C74.3714 97.1971 75.9731 97.1971 77.5385 97.1971Z" fill="#CBE8C4"/>
<path d="M106.661 53.5134V58.2458C105.096 58.2458 103.494 58.2458 101.929 58.2458V53.5134L106.661 53.5134Z" fill="#E4FEC0"/>
<path d="M62.9773 53.5134C64.6882 53.5134 66.3627 53.5134 68.0737 53.5134C68.0737 55.0788 68.0737 56.6805 68.0737 58.2458C66.3627 58.2458 64.6518 58.2458 62.9773 58.2458C62.9773 59.8112 62.9773 61.4129 62.9773 62.9782C61.4119 62.9782 59.8102 62.9782 58.2449 62.9782C58.2449 64.6892 58.2449 66.4001 58.2449 68.0746C56.6795 68.0746 55.0778 68.0746 53.5125 68.0746C53.5125 69.64 53.5125 71.2417 53.5125 72.807C51.8015 72.807 50.0906 72.807 48.416 72.807C48.416 74.3724 48.416 75.9741 48.416 77.5394C46.8507 77.5394 45.249 77.5394 43.6837 77.5394C43.6837 79.2504 43.6837 80.9613 43.6837 82.6359C42.1183 82.6359 40.5166 82.6359 38.9513 82.6359C37.3859 82.6359 35.5658 82.6359 33.8548 82.6359C33.8548 80.9249 33.8548 79.2504 33.8548 77.5394C35.5658 77.5394 37.2767 77.5394 38.9513 77.5394C38.9513 75.9741 38.9513 74.3724 38.9513 72.807C40.5166 72.807 42.1183 72.807 43.6837 72.807C43.6837 71.2417 43.6837 69.64 43.6837 68.0747C45.249 68.0747 46.8507 68.0747 48.416 68.0747V62.9782H53.5125C53.5125 61.4129 53.5125 59.8112 53.5125 58.2458C55.0778 58.2458 56.6795 58.2458 58.2449 58.2458V53.5134C59.8102 53.5134 61.4119 53.5134 62.9773 53.5134Z" fill="#FE9400"/>
<path d="M33.8548 82.6359V87.3683H29.1224L29.1224 82.6359C30.6878 82.6359 32.2895 82.6359 33.8548 82.6359Z" fill="#FE6363"/>
<path d="M38.9513 82.6359V87.3683L43.6837 87.3683V92.1007C42.1183 92.1007 40.5166 92.1007 38.9513 92.1007V87.3683L33.8548 87.3683V82.6359C35.5658 82.6359 37.2403 82.6359 38.9513 82.6359Z" fill="#720D0D"/>
<path d="M77.5385 19.2946C77.5385 21.0055 77.5385 22.6801 77.5385 24.391L68.0737 24.391V29.1234C66.3627 29.1234 64.6882 29.1234 62.9773 29.1234L62.9773 33.8558C61.4119 33.8558 59.8102 33.8558 58.2449 33.8558L58.2449 29.1234C59.8102 29.1234 61.4119 29.1234 62.9773 29.1234V24.391C64.6882 24.391 66.3627 24.391 68.0737 24.391V19.2946C71.2407 19.2946 74.3714 19.2946 77.5385 19.2946Z" fill="#720D0D"/>
<path d="M53.5125 24.391C53.5125 25.9563 53.5125 27.5581 53.5125 29.1234C55.0778 29.1234 56.6795 29.1234 58.2449 29.1234L58.2449 33.8558C59.8102 33.8558 61.4119 33.8558 62.9773 33.8558L62.9773 38.9522C64.6882 38.9522 66.3627 38.9522 68.0737 38.9522C68.0737 40.5176 68.0737 42.1193 68.0737 43.6846C69.639 43.6846 71.2408 43.6846 72.8061 43.6846C72.8061 45.2499 72.8061 46.8517 72.8061 48.417C74.3714 48.417 75.9731 48.417 77.5385 48.417C77.5385 50.128 77.5385 51.8025 77.5385 53.5134C79.2494 53.5134 80.924 53.5134 82.6349 53.5134C82.6349 55.0788 82.6349 56.6805 82.6349 58.2458C80.924 58.2458 79.2494 58.2458 77.5385 58.2458C77.5385 59.8112 77.5385 61.4129 77.5385 62.9782C75.9731 62.9782 74.3714 62.9782 72.8061 62.9782C72.8061 64.6892 72.8061 66.3637 72.8061 68.0746C71.2408 68.0746 69.639 68.0746 68.0737 68.0746C68.0737 69.64 68.0737 71.2417 68.0737 72.807C66.3627 72.807 64.6882 72.807 62.9773 72.807C62.9773 74.3724 62.9773 75.9741 62.9773 77.5394C61.4119 77.5394 59.8102 77.5394 58.2449 77.5394C58.2449 79.2504 58.2449 80.9249 58.2449 82.6359C56.6795 82.6359 55.0778 82.6359 53.5125 82.6359V87.3683C51.8015 87.3683 50.127 87.3683 48.416 87.3683V92.1007C46.8507 92.1007 45.249 92.1007 43.6837 92.1007V87.3683H48.416C48.416 85.8029 48.416 84.2012 48.416 82.6359C50.127 82.6359 51.8015 82.6359 53.5125 82.6359C53.5125 80.9249 53.5125 79.2504 53.5125 77.5394C55.0778 77.5394 56.6795 77.5394 58.2449 77.5394C58.2449 75.9741 58.2449 74.3724 58.2449 72.807C59.8102 72.807 61.4119 72.807 62.9773 72.807C62.9773 71.2417 62.9773 69.64 62.9773 68.0746C64.6882 68.0746 66.3627 68.0746 68.0737 68.0746C68.0737 66.3637 68.0737 64.6892 68.0737 62.9782C69.639 62.9782 71.2408 62.9782 72.8061 62.9782C72.8061 61.4129 72.8061 59.8112 72.8061 58.2458C74.3714 58.2458 75.9731 58.2458 77.5385 58.2458C77.5385 56.6805 77.5385 55.0788 77.5385 53.5134C75.9731 53.5134 74.3714 53.5134 72.8061 53.5134C72.8061 51.8025 72.8061 50.128 72.8061 48.417C71.2408 48.417 69.639 48.417 68.0737 48.417C68.0737 46.8517 68.0737 45.2499 68.0737 43.6846C66.3627 43.6846 64.6882 43.6846 62.9773 43.6846V38.9522C61.4119 38.9522 59.8102 38.9522 58.2449 38.9522C58.2449 37.2413 58.2449 35.5667 58.2449 33.8558C56.6795 33.8558 55.0778 33.8558 53.5125 33.8558C53.5125 32.2905 53.5125 30.6887 53.5125 29.1234C51.8015 29.1234 50.127 29.1234 48.416 29.1234C48.416 27.5581 48.416 25.9563 48.416 24.391C50.127 24.391 51.8015 24.391 53.5125 24.391Z" fill="#C95119"/>
<path d="M48.416 29.1234C48.416 30.6887 48.416 32.2905 48.416 33.8558C50.127 33.8558 51.8015 33.8558 53.5125 33.8558C53.5125 35.5667 53.5125 37.2413 53.5125 38.9522C55.0778 38.9522 56.6795 38.9522 58.2449 38.9522C58.2449 40.5176 58.2449 42.1193 58.2449 43.6846C59.8102 43.6846 61.4119 43.6846 62.9773 43.6846V48.417C64.6882 48.417 66.3627 48.417 68.0737 48.417C68.0737 50.128 68.0737 51.8025 68.0737 53.5134C69.639 53.5134 71.2408 53.5134 72.8061 53.5134C72.8061 55.0788 72.8061 56.6805 72.8061 58.2458C71.2408 58.2458 69.639 58.2458 68.0737 58.2458C68.0737 56.6805 68.0737 55.0788 68.0737 53.5134C66.3627 53.5134 64.6882 53.5134 62.9773 53.5134V48.417C61.4119 48.417 59.8102 48.417 58.2449 48.417C58.2449 46.8517 58.2449 45.2499 58.2449 43.6846C56.6795 43.6846 55.0778 43.6846 53.5125 43.6846C53.5125 42.1193 53.5125 40.5176 53.5125 38.9522C51.8015 38.9522 50.0906 38.9522 48.416 38.9522C48.416 37.2413 48.416 35.5303 48.416 33.8558C46.8507 33.8558 45.249 33.8558 43.6837 33.8558C43.6837 32.2905 43.6837 30.6887 43.6837 29.1234C45.249 29.1234 46.8507 29.1234 48.416 29.1234Z" fill="#F6FE7C"/>
<path d="M62.9773 82.6359V87.3683C64.6882 87.3683 66.3627 87.3683 68.0737 87.3683V92.1007C69.639 92.1007 71.2408 92.1007 72.8061 92.1007C72.8061 93.8116 72.8061 95.4861 72.8061 97.1971C71.2408 97.1971 69.639 97.1971 68.0737 97.1971L68.0737 92.1007C66.3627 92.1007 64.6882 92.1007 62.9773 92.1007V87.3683C61.4119 87.3683 59.8102 87.3683 58.2449 87.3683V82.6359C59.8102 82.6359 61.4119 82.6359 62.9773 82.6359Z" fill="#BD0000"/>
<path d="M101.929 58.2458V62.9782C100.363 62.9782 98.7615 62.9782 97.1961 62.9782L97.1961 68.0747C95.4852 68.0747 93.8106 68.0746 92.0997 68.0746C92.0997 69.64 92.0997 71.2417 92.0997 72.807C90.5344 72.807 88.9326 72.807 87.3673 72.807C87.3673 74.3724 87.3673 75.9741 87.3673 77.5394C85.802 77.5394 84.2002 77.5394 82.6349 77.5394C82.6349 79.2504 82.6349 80.9249 82.6349 82.6359C80.924 82.6359 79.2494 82.6359 77.5385 82.6359C77.5385 84.2012 77.5385 85.8029 77.5385 87.3683C75.9731 87.3683 74.3714 87.3683 72.8061 87.3683C72.8061 85.8029 72.8061 84.2012 72.8061 82.6359C74.3714 82.6359 75.9731 82.6359 77.5385 82.6359C77.5385 80.9249 77.5385 79.2504 77.5385 77.5394C79.2494 77.5394 80.924 77.5394 82.6349 77.5394C82.6349 75.9741 82.6349 74.3724 82.6349 72.807C84.2002 72.807 85.802 72.807 87.3673 72.807C87.3673 71.2417 87.3673 69.64 87.3673 68.0747C88.9326 68.0747 90.5344 68.0746 92.0997 68.0746C92.0997 66.3637 92.0997 64.6892 92.0997 62.9782C93.8106 62.9782 95.4852 62.9782 97.1961 62.9782L97.1961 58.2458C98.7614 58.2458 100.363 58.2458 101.929 58.2458Z" fill="#FEDD00"/>
<path d="M77.5385 24.391C77.5385 25.9563 77.5385 27.5581 77.5385 29.1234C79.2494 29.1234 80.924 29.1234 82.6349 29.1234C82.6349 30.6887 82.6349 32.2905 82.6349 33.8558C84.2002 33.8558 85.802 33.8558 87.3673 33.8558C87.3673 35.5667 87.3673 37.2413 87.3673 38.9522C88.9326 38.9522 90.5344 38.9522 92.0997 38.9522V43.6846C93.8106 43.6846 95.4852 43.6846 97.1961 43.6846C97.1961 45.25 97.1961 46.8517 97.1961 48.417C98.7615 48.417 100.363 48.417 101.929 48.417C101.929 50.128 101.929 51.8025 101.929 53.5134H97.1961L97.1961 48.417C95.4852 48.417 93.8106 48.417 92.0997 48.417V43.6846C90.5344 43.6846 88.9326 43.6846 87.3673 43.6846C87.3673 42.1193 87.3673 40.5176 87.3673 38.9522C85.802 38.9522 84.2002 38.9522 82.6349 38.9522C82.6349 37.2413 82.6349 35.5667 82.6349 33.8558C80.924 33.8558 79.2494 33.8558 77.5385 33.8558C77.5385 32.2905 77.5385 30.6887 77.5385 29.1234C75.9731 29.1234 74.3714 29.1234 72.8061 29.1234C72.8061 27.5581 72.8061 25.9563 72.8061 24.391L77.5385 24.391Z" fill="#EFFE00"/>
<path d="M77.5385 29.1234C77.5385 30.6887 77.5385 32.2905 77.5385 33.8558C79.2494 33.8558 80.924 33.8558 82.6349 33.8558C82.6349 35.5667 82.6349 37.2413 82.6349 38.9522C84.2002 38.9522 85.802 38.9522 87.3673 38.9522C87.3673 40.5176 87.3673 42.1193 87.3673 43.6846C88.9326 43.6846 90.5344 43.6846 92.0997 43.6846V48.417C93.8106 48.417 95.4852 48.417 97.1961 48.417L97.1961 53.5134H101.929V58.2458C100.363 58.2458 98.7614 58.2458 97.1961 58.2458V53.5134H92.0997V48.417C90.5344 48.417 88.9326 48.417 87.3673 48.417C87.3673 46.8517 87.3673 45.2499 87.3673 43.6846C85.802 43.6846 84.2002 43.6846 82.6349 43.6846C82.6349 42.1193 82.6349 40.5176 82.6349 38.9522C80.924 38.9522 79.213 38.9522 77.5385 38.9522C77.5385 37.2413 77.5385 35.5303 77.5385 33.8558C75.9731 33.8558 74.3714 33.8558 72.8061 33.8558C72.8061 32.2905 72.8061 30.6887 72.8061 29.1234C74.3714 29.1234 75.9731 29.1234 77.5385 29.1234Z" fill="#F6FE7C"/>
<path d="M68.0737 58.2458C68.0737 59.8112 68.0737 61.4129 68.0737 62.9782C66.3627 62.9782 64.6882 62.9782 62.9773 62.9782C62.9773 64.6892 62.9773 66.3637 62.9773 68.0746C61.4119 68.0746 59.8102 68.0746 58.2449 68.0746C58.2449 69.64 58.2449 71.2417 58.2449 72.807C56.6795 72.807 55.0778 72.807 53.5125 72.807C53.5125 74.3724 53.5125 75.9741 53.5125 77.5394C51.8015 77.5394 50.127 77.5394 48.416 77.5394C48.416 79.2504 48.416 80.9249 48.416 82.6359C46.8507 82.6359 45.249 82.6359 43.6837 82.6359C43.6837 84.2012 43.6837 85.8029 43.6837 87.3683L38.9513 87.3683V82.6359C40.5166 82.6359 42.1183 82.6359 43.6837 82.6359C43.6837 80.9249 43.6837 79.214 43.6837 77.5394C45.249 77.5394 46.8507 77.5394 48.416 77.5394C48.416 75.9741 48.416 74.3724 48.416 72.807C50.127 72.807 51.8379 72.807 53.5125 72.807C53.5125 71.2417 53.5125 69.64 53.5125 68.0746C55.0778 68.0746 56.6795 68.0746 58.2449 68.0746C58.2449 66.3637 58.2449 64.6528 58.2449 62.9782C59.8102 62.9782 61.4119 62.9782 62.9773 62.9782C62.9773 61.4129 62.9773 59.8112 62.9773 58.2458C64.6882 58.2458 66.3992 58.2458 68.0737 58.2458Z" fill="#EFFE00"/>
<path d="M33.8548 43.6846C33.8548 45.2499 33.8548 46.8517 33.8548 48.417C32.2895 48.417 30.6878 48.417 29.1224 48.417C29.1224 46.8517 29.1224 45.2499 29.1224 43.6846C30.6878 43.6846 32.2895 43.6846 33.8548 43.6846Z" fill="#FE6363"/>
<path d="M72.8061 24.391C72.8061 25.9563 72.8061 27.5581 72.8061 29.1234C71.2408 29.1234 69.639 29.1234 68.0737 29.1234V24.391H72.8061Z" fill="#FEDD00"/>
<path d="M68.0737 29.1234C69.639 29.1234 71.2408 29.1234 72.8061 29.1234C72.8061 30.6887 72.8061 32.2905 72.8061 33.8558C74.3714 33.8558 75.9731 33.8558 77.5385 33.8558C77.5385 35.5667 77.5385 37.2777 77.5385 38.9522C79.2494 38.9522 80.9604 38.9522 82.6349 38.9522C82.6349 40.5176 82.6349 42.1193 82.6349 43.6846C84.2002 43.6846 85.802 43.6846 87.3673 43.6846C87.3673 45.2499 87.3673 46.8517 87.3673 48.417C88.9326 48.417 90.5344 48.417 92.0997 48.417V53.5134H82.6349C82.6349 51.8025 82.6349 50.0916 82.6349 48.417C80.924 48.417 79.213 48.417 77.5385 48.417C77.5385 46.8517 77.5385 45.25 77.5385 43.6846C75.9731 43.6846 74.3714 43.6846 72.8061 43.6846C72.8061 42.1193 72.8061 40.5176 72.8061 38.9522C71.2408 38.9522 69.639 38.9522 68.0737 38.9522C68.0737 37.2413 68.0737 35.5303 68.0737 33.8558C66.3627 33.8558 64.6518 33.8558 62.9773 33.8558L62.9773 29.1234C64.6882 29.1234 66.3627 29.1234 68.0737 29.1234Z" fill="#C53F00"/>
<path d="M58.2449 87.3683C59.8102 87.3683 61.4119 87.3683 62.9773 87.3683V92.1007C59.8102 92.1007 56.6795 92.1007 53.5125 92.1007V87.3683C55.0778 87.3683 56.6795 87.3683 58.2449 87.3683Z" fill="#E4FEC0"/>
<path d="M72.8061 58.2458C72.8061 59.8112 72.8061 61.4129 72.8061 62.9782C71.2408 62.9782 69.639 62.9782 68.0737 62.9782C68.0737 64.6892 68.0737 66.3637 68.0737 68.0746C66.3627 68.0746 64.6882 68.0746 62.9773 68.0746C62.9773 69.64 62.9773 71.2417 62.9773 72.807C61.4119 72.807 59.8102 72.807 58.2449 72.807C58.2449 74.3724 58.2449 75.9741 58.2449 77.5394C56.6795 77.5394 55.0778 77.5394 53.5125 77.5394C53.5125 79.2504 53.5125 80.9249 53.5125 82.6359C51.8015 82.6359 50.127 82.6359 48.416 82.6359C48.416 84.2012 48.416 85.8029 48.416 87.3683H43.6837C43.6837 85.8029 43.6837 84.2012 43.6837 82.6359C45.249 82.6359 46.8507 82.6359 48.416 82.6359C48.416 80.9249 48.416 79.2504 48.416 77.5394C50.127 77.5394 51.8015 77.5394 53.5125 77.5394C53.5125 75.9741 53.5125 74.3724 53.5125 72.807C55.0778 72.807 56.6795 72.807 58.2449 72.807C58.2449 71.2417 58.2449 69.64 58.2449 68.0746C59.8102 68.0746 61.4119 68.0746 62.9773 68.0746C62.9773 66.3637 62.9773 64.6892 62.9773 62.9782C64.6882 62.9782 66.3627 62.9782 68.0737 62.9782C68.0737 61.4129 68.0737 59.8112 68.0737 58.2458C69.639 58.2458 71.2408 58.2458 72.8061 58.2458Z" fill="#FEDD00"/>
<path d="M82.6349 58.2458C82.6349 59.8112 82.6349 61.4129 82.6349 62.9782C80.924 62.9782 79.213 62.9782 77.5385 62.9782C77.5385 64.6892 77.5385 66.4001 77.5385 68.0747C75.9731 68.0747 74.3714 68.0746 72.8061 68.0746C72.8061 69.64 72.8061 71.2417 72.8061 72.807C71.2408 72.807 69.639 72.807 68.0737 72.807C68.0737 74.3724 68.0737 75.9741 68.0737 77.5394C66.3627 77.5394 64.6518 77.5394 62.9773 77.5394V82.6359C64.6882 82.6359 66.3627 82.6359 68.0737 82.6359L68.0737 87.3683C69.639 87.3683 71.2408 87.3683 72.8061 87.3683C72.8061 88.9336 72.8061 90.5353 72.8061 92.1007C71.2408 92.1007 69.639 92.1007 68.0737 92.1007V87.3683C66.3627 87.3683 64.6882 87.3683 62.9773 87.3683V82.6359C61.4119 82.6359 59.8102 82.6359 58.2449 82.6359C58.2449 80.9249 58.2449 79.2504 58.2449 77.5394C59.8102 77.5394 61.4119 77.5394 62.9773 77.5394C62.9773 75.9741 62.9773 74.3724 62.9773 72.807C64.6882 72.807 66.3627 72.807 68.0737 72.807C68.0737 71.2417 68.0737 69.64 68.0737 68.0746C69.639 68.0746 71.2408 68.0746 72.8061 68.0746C72.8061 66.3637 72.8061 64.6892 72.8061 62.9782C74.3714 62.9782 75.9731 62.9782 77.5385 62.9782C77.5385 61.4129 77.5385 59.8112 77.5385 58.2458C79.2494 58.2458 80.924 58.2458 82.6349 58.2458Z" fill="#720D0D"/>
<path d="M97.1961 58.2458L97.1961 62.9782C95.4852 62.9782 93.8106 62.9782 92.0997 62.9782C92.0997 64.6892 92.0997 66.3637 92.0997 68.0746C90.5344 68.0746 88.9326 68.0747 87.3673 68.0747C87.3673 69.64 87.3673 71.2417 87.3673 72.807C85.802 72.807 84.2002 72.807 82.6349 72.807C82.6349 74.3724 82.6349 75.9741 82.6349 77.5394C80.924 77.5394 79.2494 77.5394 77.5385 77.5394C77.5385 79.2504 77.5385 80.9249 77.5385 82.6359C75.9731 82.6359 74.3714 82.6359 72.8061 82.6359C72.8061 84.2012 72.8061 85.8029 72.8061 87.3683C71.2408 87.3683 69.639 87.3683 68.0737 87.3683L68.0737 82.6359C69.639 82.6359 71.2408 82.6359 72.8061 82.6359C72.8061 80.9249 72.8061 79.214 72.8061 77.5394C74.3714 77.5394 75.9731 77.5394 77.5385 77.5394C77.5385 75.9741 77.5385 74.3724 77.5385 72.807C79.2494 72.807 80.9604 72.807 82.6349 72.807C82.6349 71.2417 82.6349 69.64 82.6349 68.0747C84.2002 68.0747 85.802 68.0747 87.3673 68.0747C87.3673 66.3637 87.3673 64.6528 87.3673 62.9782C88.9326 62.9782 90.5344 62.9782 92.0997 62.9782C92.0997 61.4129 92.0997 59.8112 92.0997 58.2458C93.8106 58.2458 95.5216 58.2458 97.1961 58.2458Z" fill="#EFFE00"/>
<path d="M92.0997 53.5134H97.1961V58.2458C95.4852 58.2458 93.7742 58.2458 92.0997 58.2458C92.0997 59.8112 92.0997 61.4129 92.0997 62.9782C90.5344 62.9782 88.9326 62.9782 87.3673 62.9782C87.3673 64.6892 87.3673 66.4001 87.3673 68.0747C85.802 68.0747 84.2002 68.0747 82.6349 68.0747C82.6349 69.64 82.6349 71.2417 82.6349 72.807C80.924 72.807 79.213 72.807 77.5385 72.807C77.5385 74.3724 77.5385 75.9741 77.5385 77.5394C75.9731 77.5394 74.3714 77.5394 72.8061 77.5394C72.8061 79.2504 72.8061 80.9613 72.8061 82.6359C71.2408 82.6359 69.639 82.6359 68.0737 82.6359C66.5084 82.6359 64.6882 82.6359 62.9773 82.6359V77.5394C64.6882 77.5394 66.3992 77.5394 68.0737 77.5394C68.0737 75.9741 68.0737 74.3724 68.0737 72.807C69.639 72.807 71.2408 72.807 72.8061 72.807C72.8061 71.2417 72.8061 69.64 72.8061 68.0746C74.3714 68.0746 75.9731 68.0747 77.5385 68.0747C77.5385 66.3637 77.5385 64.6528 77.5385 62.9782C79.2494 62.9782 80.9604 62.9782 82.6349 62.9782C82.6349 61.4129 82.6349 59.8112 82.6349 58.2458C84.2002 58.2458 85.802 58.2458 87.3673 58.2458V53.5134H92.0997Z" fill="#FE9400"/>
<path d="M77.5385 53.5134C77.5385 55.0788 77.5385 56.6805 77.5385 58.2458C75.9731 58.2458 74.3714 58.2458 72.8061 58.2458C72.8061 56.6805 72.8061 55.0788 72.8061 53.5134C74.3714 53.5134 75.9731 53.5134 77.5385 53.5134Z" fill="#E4FEC0"/>
<path d="M62.9773 33.8558C64.6882 33.8558 66.3992 33.8558 68.0737 33.8558C68.0737 35.5667 68.0737 37.2777 68.0737 38.9522C69.639 38.9522 71.2408 38.9522 72.8061 38.9522C72.8061 40.5176 72.8061 42.1193 72.8061 43.6846C74.3714 43.6846 75.9731 43.6846 77.5385 43.6846C77.5385 45.25 77.5385 46.8517 77.5385 48.417C79.2494 48.417 80.9604 48.417 82.6349 48.417C82.6349 50.128 82.6349 51.8389 82.6349 53.5134H87.3673V58.2458C85.802 58.2458 84.2002 58.2458 82.6349 58.2458C82.6349 56.6805 82.6349 55.0788 82.6349 53.5134C80.924 53.5134 79.2494 53.5134 77.5385 53.5134C77.5385 51.8025 77.5385 50.128 77.5385 48.417C75.9731 48.417 74.3714 48.417 72.8061 48.417C72.8061 46.8517 72.8061 45.2499 72.8061 43.6846C71.2408 43.6846 69.639 43.6846 68.0737 43.6846C68.0737 42.1193 68.0737 40.5176 68.0737 38.9522C66.3627 38.9522 64.6882 38.9522 62.9773 38.9522L62.9773 33.8558Z" fill="#440909"/>
</g>
<defs>
<clipPath id="clip0_2327_31660">
<rect width="116.49" height="116.49" fill="white"/>
</clipPath>
</defs>
</svg>
