<?xml version="1.0" encoding="UTF-8"?>
<!-- Generator: visioncortex VTracer 0.6.5 -->
<svg version="1.1" xmlns="http://www.w3.org/2000/svg" width="150" height="85">
<path d="M0,0 L150,0 L150,85 L0,85 Z " fill="#616B78" transform="translate(0,0)"/>
<path d="M0,0 L35,0 L38,2 L18,2 L14,4 L4,4 L-2,3 Z M-3,3 Z " fill="#5B6471" transform="translate(64,56)"/>
<path d="M0,0 L10,0 L13,3 L10,5 L-6,5 L-2,3 L0,2 Z " fill="#6A7380" transform="translate(50,58)"/>
<path d="M0,0 L13,0 L10,3 L0,4 Z " fill="#585E6D" transform="translate(0,60)"/>
<path d="M0,0 L8,0 L10,1 L9,3 L-1,3 L-3,1 Z " fill="#6B7582" transform="translate(70,59)"/>
<path d="M0,0 L8,0 L6,4 L1,3 Z " fill="#4B5563" transform="translate(17,0)"/>
<path d="M0,0 L5,0 L2,6 L0,7 Z " fill="#313947" transform="translate(0,0)"/>
<path d="M0,0 L5,0 L4,6 L1,6 Z M0,6 Z M-1,7 Z " fill="#515B68" transform="translate(139,0)"/>
<path d="M0,0 L5,0 L5,3 L0,2 Z M6,0 Z " fill="#515665" transform="translate(0,60)"/>
<path d="M0,0 L4,0 L2,5 L0,4 Z " fill="#48525F" transform="translate(141,33)"/>
<path d="M0,0 L3,2 L-2,3 L-4,1 Z " fill="#6B7482" transform="translate(104,60)"/>
</svg>
