<?xml version="1.0" encoding="UTF-8"?>
<svg xmlns="http://www.w3.org/2000/svg" viewBox="0 0 310 320" width="60" height="60">
  <style>rect{shape-rendering:crispEdges}</style>
  <g fill="#bf1f7a">
    <rect x="80" y="30" width="10" height="10"/>
    <rect x="80" y="40" width="10" height="10"/>
    <rect x="160" y="100" width="10" height="10"/>
    <rect x="50" y="180" width="10" height="10"/>
    <rect x="50" y="190" width="10" height="10"/>
    <rect x="50" y="200" width="10" height="10"/>
    <rect x="50" y="210" width="10" height="10"/>
    <rect x="50" y="220" width="30" height="10"/>
  </g>
  <g fill="#c7197b">
    <rect x="90" y="30" width="10" height="10"/>
    <rect x="70" y="40" width="10" height="10"/>
    <rect x="90" y="40" width="10" height="10"/>
    <rect x="70" y="60" width="10" height="10"/>
    <rect x="100" y="60" width="10" height="10"/>
    <rect x="60" y="100" width="10" height="10"/>
    <rect x="60" y="110" width="10" height="10"/>
    <rect x="60" y="120" width="10" height="10"/>
    <rect x="210" y="130" width="10" height="10"/>
  </g>
  <g fill="#9c045b">
    <rect x="100" y="30" width="10" height="10"/>
    <rect x="160" y="40" width="10" height="10"/>
    <rect x="110" y="50" width="10" height="10"/>
    <rect x="240" y="70" width="10" height="10"/>
    <rect x="230" y="90" width="10" height="10"/>
    <rect x="180" y="110" width="10" height="10"/>
    <rect x="200" y="120" width="10" height="10"/>
  </g>
  <g fill="#960356">
    <rect x="110" y="30" width="10" height="10"/>
    <rect x="110" y="40" width="30" height="10"/>
    <rect x="120" y="50" width="20" height="10"/>
    <rect x="220" y="50" width="20" height="10"/>
    <rect x="120" y="60" width="20" height="10"/>
    <rect x="240" y="60" width="10" height="10"/>
    <rect x="130" y="70" width="30" height="10"/>
    <rect x="130" y="80" width="30" height="10"/>
    <rect x="150" y="90" width="10" height="10"/>
    <rect x="170" y="90" width="20" height="10"/>
    <rect x="220" y="90" width="10" height="10"/>
    <rect x="170" y="100" width="10" height="10"/>
    <rect x="220" y="100" width="10" height="10"/>
    <rect x="210" y="120" width="10" height="10"/>
  </g>
  <g fill="#920656">
    <rect x="120" y="30" width="20" height="10"/>
    <rect x="180" y="40" width="20" height="10"/>
    <rect x="240" y="50" width="20" height="10"/>
    <rect x="180" y="100" width="10" height="10"/>
    <rect x="230" y="210" width="10" height="10"/>
    <rect x="250" y="220" width="10" height="10"/>
  </g>
  <g fill="#a60e65">
    <rect x="140" y="30" width="10" height="10"/>
    <rect x="250" y="60" width="10" height="10"/>
    <rect x="250" y="70" width="10" height="10"/>
    <rect x="220" y="110" width="10" height="10"/>
    <rect x="220" y="120" width="10" height="10"/>
    <rect x="220" y="210" width="10" height="10"/>
    <rect x="80" y="220" width="10" height="10"/>
  </g>
  <g fill="#ad136b">
    <rect x="60" y="40" width="10" height="10"/>
    <rect x="120" y="70" width="10" height="10"/>
  </g>
  <g fill="#c71b7c">
    <rect x="100" y="40" width="10" height="10"/>
    <rect x="50" y="50" width="20" height="10"/>
    <rect x="50" y="60" width="20" height="10"/>
    <rect x="50" y="100" width="10" height="10"/>
    <rect x="50" y="110" width="10" height="10"/>
  </g>
  <g fill="#940354">
    <rect x="140" y="40" width="10" height="10"/>
    <rect x="160" y="50" width="10" height="10"/>
    <rect x="200" y="50" width="20" height="10"/>
    <rect x="200" y="60" width="20" height="10"/>
    <rect x="90" y="220" width="10" height="10"/>
  </g>
  <g fill="#940258">
    <rect x="150" y="40" width="10" height="10"/>
    <rect x="140" y="50" width="10" height="10"/>
    <rect x="180" y="50" width="20" height="10"/>
    <rect x="140" y="60" width="10" height="10"/>
    <rect x="190" y="110" width="10" height="10"/>
  </g>
  <g fill="#940356">
    <rect x="170" y="40" width="10" height="10"/>
    <rect x="150" y="50" width="10" height="10"/>
    <rect x="170" y="50" width="10" height="10"/>
    <rect x="150" y="60" width="50" height="10"/>
    <rect x="220" y="60" width="20" height="10"/>
    <rect x="160" y="70" width="80" height="10"/>
    <rect x="160" y="80" width="70" height="10"/>
    <rect x="160" y="90" width="10" height="10"/>
    <rect x="190" y="90" width="30" height="10"/>
    <rect x="190" y="100" width="30" height="10"/>
    <rect x="200" y="110" width="20" height="10"/>
  </g>
  <g fill="#c7197d">
    <rect x="70" y="50" width="20" height="10"/>
    <rect x="70" y="70" width="40" height="10"/>
    <rect x="60" y="80" width="10" height="10"/>
    <rect x="80" y="80" width="30" height="10"/>
    <rect x="60" y="90" width="70" height="10"/>
    <rect x="70" y="100" width="40" height="10"/>
    <rect x="70" y="110" width="40" height="10"/>
    <rect x="70" y="120" width="30" height="10"/>
    <rect x="70" y="130" width="30" height="10"/>
    <rect x="70" y="140" width="20" height="10"/>
    <rect x="70" y="150" width="20" height="10"/>
    <rect x="70" y="160" width="20" height="10"/>
    <rect x="60" y="190" width="10" height="10"/>
  </g>
  <rect fill="#c71980" x="90" y="50" width="20" height="10"/>
  <g fill="#c61a7c">
    <rect x="80" y="60" width="20" height="10"/>
    <rect x="110" y="60" width="10" height="10"/>
    <rect x="50" y="70" width="20" height="10"/>
    <rect x="110" y="70" width="10" height="10"/>
    <rect x="50" y="80" width="10" height="10"/>
    <rect x="70" y="80" width="10" height="10"/>
    <rect x="110" y="80" width="20" height="10"/>
    <rect x="50" y="90" width="10" height="10"/>
    <rect x="50" y="120" width="10" height="10"/>
    <rect x="100" y="120" width="10" height="10"/>
    <rect x="50" y="130" width="20" height="10"/>
    <rect x="50" y="140" width="20" height="10"/>
    <rect x="50" y="150" width="20" height="10"/>
    <rect x="50" y="160" width="20" height="10"/>
    <rect x="50" y="170" width="20" height="10"/>
    <rect x="60" y="180" width="10" height="10"/>
  </g>
  <rect fill="#930356" x="230" y="80" width="10" height="10"/>
  <g fill="#ac0e67">
    <rect x="240" y="80" width="20" height="10"/>
    <rect x="240" y="90" width="20" height="10"/>
    <rect x="220" y="150" width="20" height="10"/>
  </g>
  <g fill="#da238b">
    <rect x="130" y="90" width="10" height="10"/>
    <rect x="120" y="100" width="10" height="10"/>
    <rect x="150" y="100" width="10" height="10"/>
    <rect x="120" y="110" width="10" height="10"/>
    <rect x="110" y="120" width="10" height="10"/>
    <rect x="100" y="140" width="10" height="10"/>
    <rect x="90" y="170" width="10" height="10"/>
    <rect x="80" y="180" width="10" height="10"/>
    <rect x="70" y="190" width="10" height="10"/>
    <rect x="220" y="190" width="10" height="10"/>
    <rect x="220" y="200" width="10" height="10"/>
    <rect x="100" y="210" width="30" height="10"/>
    <rect x="150" y="210" width="10" height="10"/>
  </g>
  <g fill="#ca1b7e">
    <rect x="140" y="90" width="10" height="10"/>
    <rect x="100" y="130" width="10" height="10"/>
    <rect x="90" y="140" width="10" height="10"/>
    <rect x="220" y="180" width="10" height="10"/>
    <rect x="60" y="200" width="10" height="10"/>
    <rect x="200" y="210" width="20" height="10"/>
  </g>
  <g fill="#c7187e">
    <rect x="110" y="100" width="10" height="10"/>
    <rect x="70" y="170" width="10" height="10"/>
  </g>
  <g fill="#db228a">
    <rect x="130" y="100" width="20" height="10"/>
    <rect x="130" y="110" width="30" height="10"/>
    <rect x="190" y="130" width="20" height="10"/>
    <rect x="90" y="150" width="10" height="10"/>
    <rect x="210" y="160" width="10" height="10"/>
    <rect x="210" y="170" width="10" height="10"/>
    <rect x="210" y="180" width="10" height="10"/>
    <rect x="210" y="190" width="10" height="10"/>
    <rect x="70" y="200" width="10" height="10"/>
    <rect x="180" y="200" width="10" height="10"/>
    <rect x="210" y="200" width="10" height="10"/>
  </g>
  <g fill="#ac0d68">
    <rect x="230" y="100" width="30" height="10"/>
    <rect x="220" y="130" width="10" height="10"/>
    <rect x="250" y="140" width="10" height="10"/>
    <rect x="250" y="150" width="10" height="10"/>
    <rect x="230" y="170" width="10" height="10"/>
    <rect x="230" y="190" width="10" height="10"/>
    <rect x="230" y="200" width="10" height="10"/>
  </g>
  <g fill="#d5248a">
    <rect x="110" y="110" width="10" height="10"/>
    <rect x="170" y="110" width="10" height="10"/>
    <rect x="190" y="120" width="10" height="10"/>
    <rect x="210" y="140" width="10" height="10"/>
    <rect x="80" y="170" width="10" height="10"/>
    <rect x="70" y="180" width="10" height="10"/>
  </g>
  <g fill="#df238c">
    <rect x="160" y="110" width="10" height="10"/>
    <rect x="170" y="210" width="30" height="10"/>
  </g>
  <g fill="#ad0c69">
    <rect x="230" y="110" width="30" height="10"/>
    <rect x="250" y="120" width="10" height="10"/>
    <rect x="220" y="140" width="10" height="10"/>
    <rect x="220" y="160" width="20" height="10"/>
    <rect x="250" y="160" width="10" height="10"/>
    <rect x="220" y="170" width="10" height="10"/>
    <rect x="250" y="180" width="10" height="10"/>
    <rect x="240" y="210" width="20" height="10"/>
  </g>
  <g fill="#db228c">
    <rect x="120" y="120" width="60" height="10"/>
    <rect x="110" y="130" width="80" height="10"/>
    <rect x="110" y="140" width="100" height="10"/>
    <rect x="100" y="150" width="110" height="10"/>
    <rect x="100" y="160" width="110" height="10"/>
    <rect x="100" y="170" width="110" height="10"/>
    <rect x="90" y="180" width="120" height="10"/>
    <rect x="80" y="190" width="130" height="10"/>
    <rect x="80" y="200" width="100" height="10"/>
    <rect x="190" y="200" width="20" height="10"/>
    <rect x="60" y="210" width="40" height="10"/>
    <rect x="130" y="210" width="20" height="10"/>
  </g>
  <g fill="#db208b">
    <rect x="180" y="120" width="10" height="10"/>
    <rect x="160" y="210" width="10" height="10"/>
  </g>
  <g fill="#ac0d69">
    <rect x="230" y="120" width="20" height="10"/>
    <rect x="230" y="130" width="30" height="10"/>
    <rect x="230" y="140" width="20" height="10"/>
    <rect x="240" y="150" width="10" height="10"/>
    <rect x="240" y="160" width="10" height="10"/>
    <rect x="240" y="170" width="20" height="10"/>
    <rect x="230" y="180" width="20" height="10"/>
    <rect x="240" y="190" width="20" height="10"/>
    <rect x="240" y="200" width="20" height="10"/>
  </g>
  <g fill="#db238a">
    <rect x="210" y="150" width="10" height="10"/>
    <rect x="90" y="160" width="10" height="10"/>
  </g>
  <g fill="#570730">
    <rect x="100" y="220" width="10" height="10"/>
    <rect x="100" y="230" width="10" height="10"/>
    <rect x="250" y="230" width="10" height="10"/>
    <rect x="170" y="240" width="10" height="10"/>
    <rect x="220" y="240" width="10" height="10"/>
  </g>
  <g fill="#3e0018">
    <rect x="110" y="220" width="20" height="10"/>
    <rect x="180" y="220" width="70" height="10"/>
    <rect x="130" y="230" width="20" height="10"/>
    <rect x="160" y="230" width="90" height="10"/>
    <rect x="200" y="240" width="20" height="10"/>
  </g>
  <g fill="#390216">
    <rect x="130" y="220" width="50" height="10"/>
    <rect x="110" y="230" width="20" height="10"/>
    <rect x="150" y="230" width="10" height="10"/>
    <rect x="180" y="240" width="20" height="10"/>
  </g>
</svg>
