<?xml version="1.0" encoding="UTF-8"?>
<!-- Generator: visioncortex VTracer 0.6.5 -->
<svg version="1.1" xmlns="http://www.w3.org/2000/svg" width="150" height="84">
<path d="M0,0 L150,0 L150,84 L0,84 Z " fill="#202326" transform="translate(0,0)"/>
<path d="M0,0 L83,0 L83,57 L80,57 L79,53 L73,52 L75,49 L71,50 L71,47 L69,47 L69,45 L71,45 L71,41 L69,41 L67,31 L64,30 L63,28 L57,27 L52,22 L47,19 L48,24 L53,24 L51,28 L48,28 L49,31 L54,32 L49,36 L45,38 L44,37 L44,30 L46,30 L46,28 L42,26 L40,25 L40,22 L33,22 L30,29 L33,29 L33,24 L35,23 L35,26 L41,27 L42,29 L39,29 L41,35 L43,35 L42,39 L38,40 L37,37 L31,36 L29,36 L29,38 L33,38 L32,44 L38,45 L41,50 L40,54 L33,58 L33,56 L31,56 L31,58 L26,61 L25,65 L20,65 L20,63 L15,66 L-2,65 L-2,63 L3,61 L16,61 L18,57 L30,55 L30,53 L21,53 L21,51 L17,51 L16,53 L15,50 L21,49 L21,44 L27,42 L29,42 L29,40 L22,41 L21,38 L10,35 L6,36 L3,37 L3,39 L-1,39 L0,43 L4,44 L5,48 L12,47 L14,53 L12,54 L11,57 L6,56 L-1,54 L-1,52 L-5,52 L-5,57 L-2,58 L-7,60 L-11,61 L-11,62 L-24,63 L-24,61 L-28,59 L-28,56 L-25,56 L-24,54 L-22,56 L-18,55 L-19,48 L-23,49 L-27,48 L-27,50 L-29,51 L-29,55 L-33,53 L-35,48 L-29,45 L-33,45 L-32,40 L-30,42 L-20,41 L-18,43 L-17,46 L-15,46 L-14,48 L-12,46 L-9,39 L-6,38 L-4,39 L-8,35 L-6,31 L-5,27 L-12,28 L-11,23 L-8,21 L-3,22 L2,23 L9,21 L12,17 L14,17 L14,14 L10,15 L10,12 L8,11 L8,9 L14,10 L13,5 L5,3 L5,1 L0,1 Z " fill="#161A1F" transform="translate(67,0)"/>
<path d="M0,0 L4,1 L10,6 L10,8 L16,8 L20,12 L22,22 L24,22 L24,26 L22,26 L22,28 L24,28 L24,31 L29,29 L28,32 L33,34 L33,38 L36,38 L36,65 L-87,65 L-85,64 L-85,61 L-94,60 L-99,58 L-104,55 L-104,52 L-102,52 L-102,54 L-97,55 L-90,56 L-90,58 L-70,57 L-70,55 L-42,55 L-48,53 L-49,50 L-56,47 L-56,45 L-59,44 L-56,42 L-49,41 L-47,42 L-47,44 L-49,44 L-49,46 L-32,46 L-30,44 L-27,44 L-27,46 L-22,46 L-21,41 L-16,39 L-16,37 L-12,37 L-7,34 L-8,30 L-9,26 L-15,25 L-14,19 L-18,19 L-18,17 L-12,16 L-7,20 L-5,20 L-4,16 L-7,17 L-8,10 L-6,9 L-12,7 L-13,5 L-14,10 L-17,10 L-16,6 L-14,2 L-7,3 L-7,6 L-3,8 L0,11 L-2,12 L-2,18 L4,14 L1,12 L0,8 L5,7 L6,5 L1,5 Z " fill="#1E1E24" transform="translate(114,19)"/>
<path d="M0,0 L67,0 L72,1 L72,3 L80,4 L81,5 L81,10 L75,9 L75,11 L79,13 L78,14 L81,14 L81,17 L76,22 L67,24 L62,22 L58,23 L57,25 L55,25 L56,27 L62,27 L61,32 L60,35 L63,37 L63,39 L58,40 L56,46 L54,50 L52,46 L50,50 L47,42 L41,42 L37,43 L36,40 L41,40 L40,36 L42,31 L45,30 L44,27 L37,28 L37,30 L35,30 L34,33 L32,33 L32,28 L30,28 L28,25 L22,23 L22,25 L10,29 L7,29 L8,25 L9,23 L2,25 L2,29 L0,29 Z " fill="#282934" transform="translate(0,0)"/>
<path d="M0,0 L2,0 L0,6 L11,2 L15,2 L15,0 L22,2 L23,5 L25,5 L25,10 L28,7 L30,7 L30,5 L37,4 L39,8 L35,8 L34,17 L29,17 L28,14 L18,17 L16,17 L16,21 L19,21 L20,19 L20,22 L22,22 L24,29 L23,34 L19,32 L18,30 L19,26 L15,26 L15,24 L9,24 L8,20 L8,15 L7,14 L5,20 L3,16 L-2,16 L-3,20 L-1,21 L-3,21 L-2,28 L0,28 L0,30 L2,30 L2,33 L4,33 L4,35 L7,35 L7,37 L14,37 L17,39 L17,41 L19,41 L20,37 L23,35 L23,37 L25,38 L21,38 L21,41 L24,43 L24,48 L32,49 L35,50 L35,52 L30,52 L30,54 L20,55 L17,54 L17,52 L10,52 L5,50 L5,48 L3,48 L4,51 L8,53 L13,55 L22,57 L22,60 L20,61 L-7,61 L-7,6 L-5,6 L-5,2 Z M8,12 Z " fill="#201C22" transform="translate(7,23)"/>
<path d="M0,0 L4,1 L4,3 L2,3 L2,5 L15,5 L15,8 L19,8 L19,10 L21,9 L27,9 L27,14 L24,14 L23,20 L23,22 L34,21 L33,17 L33,12 L35,12 L35,9 L39,10 L46,9 L46,12 L44,12 L44,14 L41,14 L41,17 L48,18 L48,16 L50,16 L50,11 L47,10 L48,6 L52,7 L53,19 L51,22 L48,24 L-36,24 L-34,23 L-34,20 L-43,19 L-48,17 L-53,14 L-53,11 L-51,11 L-51,13 L-46,14 L-39,15 L-39,17 L-19,16 L-19,14 L9,14 L3,12 L2,9 L-5,6 L-5,4 L-8,3 L-5,1 Z " fill="#393F45" transform="translate(63,60)"/>
<path d="M0,0 L56,0 L56,41 L54,39 L53,32 L51,32 L53,39 L53,44 L50,44 L50,41 L47,39 L46,31 L44,30 L44,28 L42,26 L43,24 L47,25 L48,31 L50,30 L50,22 L45,23 L38,23 L38,21 L42,19 L40,12 L39,13 L29,12 L24,9 L21,10 L22,12 L29,15 L29,17 L27,17 L26,20 L17,15 L12,12 L5,11 L-1,9 L-6,8 L-6,6 L-2,6 L-2,4 L-5,5 L-9,4 L-9,2 L-2,2 L0,3 Z " fill="#2B282F" transform="translate(94,0)"/>
<path d="M0,0 L4,1 L10,6 L10,8 L16,8 L20,12 L22,22 L24,22 L24,26 L22,26 L22,28 L24,28 L24,31 L29,29 L28,32 L33,34 L33,38 L36,38 L36,44 L31,47 L25,50 L22,53 L20,53 L18,57 L14,58 L14,56 L18,52 L20,49 L29,45 L24,46 L22,46 L22,44 L24,43 L24,40 L21,39 L20,22 L17,20 L17,13 L14,13 L14,16 L10,15 L9,18 L5,17 L5,20 L10,21 L11,25 L9,32 L6,31 L6,35 L3,37 L2,40 L5,39 L6,37 L9,37 L9,35 L11,35 L10,40 L15,38 L19,37 L17,41 L10,45 L9,47 L2,47 L2,44 L5,45 L9,41 L4,43 L-1,43 L-2,46 L-9,48 L-10,46 L-8,46 L-8,44 L-5,44 L-5,41 L-3,40 L-2,37 L-4,35 L1,35 L1,28 L-1,26 L-1,22 L-3,22 L-4,27 L-3,33 L-4,31 L-8,30 L-9,26 L-15,25 L-14,19 L-18,19 L-18,17 L-12,16 L-7,20 L-5,20 L-4,16 L-7,17 L-8,10 L-6,9 L-12,7 L-13,5 L-14,10 L-17,10 L-16,6 L-14,2 L-7,3 L-7,6 L-3,8 L0,11 L-2,12 L-2,18 L4,14 L1,12 L0,8 L5,7 L6,5 L1,5 Z " fill="#292A2F" transform="translate(114,19)"/>
<path d="M0,0 L11,2 L15,6 L22,6 L22,8 L15,10 L15,15 L10,16 L8,16 L9,18 L14,17 L14,19 L23,19 L23,21 L11,24 L9,28 L-7,28 L-11,27 L-17,29 L-16,32 L-9,34 L-8,38 L-1,39 L-3,41 L-16,41 L-26,39 L-31,37 L-32,35 L-25,34 L-25,31 L-27,30 L-22,31 L-23,26 L-17,25 L-14,26 L-13,24 L-12,23 L-12,18 L-8,18 L-7,20 L0,22 L4,22 L4,19 L7,19 L5,16 L5,13 L-2,14 L-4,10 L-7,9 L-8,5 L-4,5 L-4,3 Z " fill="#2B3136" transform="translate(74,34)"/>
<path d="M0,0 L21,0 L21,2 L19,2 L20,4 L22,2 L27,2 L27,7 L32,6 L33,7 L33,13 L36,12 L39,13 L40,10 L42,10 L43,14 L39,16 L36,16 L36,18 L39,18 L39,22 L36,24 L29,24 L29,21 L34,19 L35,17 L28,18 L27,20 L22,22 L17,22 L19,19 L25,19 L25,15 L18,15 L18,19 L15,18 L17,17 L18,13 L19,11 L17,11 L17,13 L13,13 L13,15 L11,16 L10,20 L5,21 L1,25 L0,25 Z " fill="#242A2D" transform="translate(0,0)"/>
<path d="M0,0 L7,2 L8,5 L10,5 L10,10 L13,7 L15,7 L15,5 L22,4 L24,8 L20,8 L19,17 L14,17 L13,14 L3,17 L1,17 L1,21 L4,21 L5,19 L5,22 L7,22 L9,29 L8,34 L4,32 L3,30 L4,26 L0,26 L0,24 L-6,24 L-7,20 L-6,14 L-3,13 L-2,8 L-9,10 L-12,13 L-14,13 L-13,6 L-4,2 L0,2 Z " fill="#0C0F12" transform="translate(22,23)"/>
<path d="M0,0 L8,1 L9,2 L16,3 L30,11 L32,10 L36,12 L36,14 L29,14 L24,11 L25,16 L30,16 L28,20 L25,20 L26,23 L31,24 L26,28 L22,30 L21,29 L21,22 L23,22 L23,20 L19,18 L17,17 L17,14 L10,14 L8,17 L5,14 L5,8 L2,9 L1,11 L-3,11 L-2,7 L-2,4 Z " fill="#1F1D24" transform="translate(90,8)"/>
<path d="M0,0 L4,1 L10,6 L10,8 L16,8 L20,12 L22,22 L24,22 L24,26 L22,26 L22,28 L24,28 L24,31 L29,29 L28,32 L33,34 L33,38 L36,38 L36,44 L31,47 L25,50 L22,53 L20,53 L18,57 L14,58 L14,56 L18,52 L20,49 L29,45 L24,46 L22,46 L22,44 L24,43 L24,40 L21,39 L20,22 L17,20 L17,13 L14,13 L14,16 L8,14 L8,12 L6,12 L5,9 L6,5 L1,5 Z " fill="#4E565D" transform="translate(114,19)"/>
<path d="M0,0 L21,0 L24,1 L24,3 L28,4 L29,6 L32,7 L32,9 L25,10 L21,9 L22,12 L29,15 L29,17 L27,17 L26,20 L17,15 L12,12 L5,11 L-1,9 L-6,8 L-6,6 L-2,6 L-2,4 L-5,5 L-9,4 L-9,2 L-2,2 L0,3 Z " fill="#161319" transform="translate(94,0)"/>
<path d="M0,0 L3,0 L4,7 L7,9 L7,26 L11,27 L10,31 L8,31 L7,33 L0,34 L-3,35 L-3,32 L4,26 L5,24 L0,27 L-4,27 L-3,22 L-5,22 L-5,24 L-8,24 L-9,27 L-12,27 L-13,24 L-12,22 L-8,22 L-8,18 L-5,18 L-4,12 L-5,8 L-10,7 L-9,4 L-5,4 L-4,2 L0,3 Z " fill="#1F2127" transform="translate(128,32)"/>
<path d="M0,0 Z M-1,1 L1,3 L1,12 L7,12 L7,14 L11,14 L11,19 L14,22 L12,26 L11,29 L9,29 L9,27 L-1,25 L-1,23 L-4,23 L-4,21 L-6,21 L-6,18 L-8,18 L-8,16 L-10,16 L-11,9 L-11,3 L-5,4 L-4,6 Z " fill="#2C2A30" transform="translate(15,35)"/>
<path d="M0,0 L2,0 L0,6 L-1,7 L1,8 L1,4 L9,3 L8,8 L1,10 L10,9 L11,6 L18,6 L17,9 L12,10 L12,13 L19,12 L22,11 L22,9 L25,9 L26,6 L32,5 L32,8 L29,8 L29,10 L23,11 L23,13 L25,13 L25,15 L22,15 L22,17 L20,17 L20,19 L18,19 L17,22 L15,22 L15,17 L13,17 L11,14 L5,12 L5,14 L-7,18 L-10,18 L-9,14 L-8,12 L-15,14 L-15,18 L-17,18 L-16,13 L-13,12 L-12,9 L-7,9 L-6,4 L-4,4 L-4,2 L0,2 Z " fill="#474549" transform="translate(17,11)"/>
<path d="M0,0 L27,0 L27,27 L25,27 L25,21 L22,20 L22,16 L17,16 L17,13 L15,13 L15,11 L11,10 L9,5 L4,5 Z " fill="#150F12" transform="translate(123,0)"/>
<path d="M0,0 L2,0 L0,5 L-1,11 L-7,14 L-9,16 L-16,19 L-16,21 L-14,21 L-13,18 L-4,17 L-4,20 L-7,21 L-7,19 L-10,19 L-10,22 L-12,22 L-11,31 L-18,33 L-26,32 L-22,28 L-25,27 L-21,27 L-21,24 L-18,24 L-19,20 L-26,20 L-26,18 L-30,18 L-30,16 L-25,14 L-21,13 L-21,15 L-16,15 L-15,10 L-10,8 L-10,6 L-6,6 L-1,3 Z " fill="#34363A" transform="translate(108,50)"/>
<path d="M0,0 L2,2 L8,3 L11,8 L10,12 L3,16 L3,14 L1,14 L1,16 L-4,19 L-5,23 L-10,23 L-10,21 L-15,24 L-32,23 L-32,21 L-27,19 L-14,19 L-12,15 L0,13 L-1,11 L-4,10 L-5,3 Z " fill="#121517" transform="translate(97,42)"/>
<path d="M0,0 L18,0 L17,2 L14,4 L15,8 L14,10 L17,10 L17,13 L13,13 L13,15 L11,16 L10,20 L5,21 L1,25 L0,25 Z " fill="#090C0B" transform="translate(0,0)"/>
<path d="M0,0 L2,2 L12,1 L14,3 L15,6 L17,6 L19,12 L21,9 L23,11 L23,17 L20,18 L21,22 L8,23 L8,21 L4,19 L4,16 L7,16 L8,14 L10,16 L14,15 L13,8 L9,9 L5,8 L5,10 L3,11 L3,15 L-1,13 L-3,8 L3,5 L-1,5 Z " fill="#12151A" transform="translate(35,40)"/>
<path d="M0,0 L27,0 L27,3 L18,2 L23,4 L25,4 L25,6 L21,6 L21,8 L23,9 L22,12 L23,15 L21,16 L20,19 L24,19 L25,16 L28,16 L27,21 L19,22 L19,25 L14,25 L14,27 L12,27 L12,30 L9,30 L9,24 L12,21 L13,18 L17,17 L17,14 L13,12 L13,5 L5,3 L5,1 L0,1 Z " fill="#0E1114" transform="translate(67,0)"/>
<path d="M0,0 L4,1 L5,13 L3,16 L0,18 L-29,18 L-29,16 L-21,16 L-14,15 L-15,11 L-15,6 L-13,6 L-13,3 L-9,4 L-2,3 L-2,6 L-4,6 L-4,8 L-7,8 L-7,11 L0,12 L0,10 L2,10 L2,5 L-1,4 Z " fill="#57585E" transform="translate(111,66)"/>
<path d="M0,0 L2,1 L4,6 L5,12 L8,14 L7,17 L10,17 L10,12 L8,11 L8,5 L10,5 L13,14 L13,30 L10,30 L9,26 L3,25 L5,22 L1,23 L1,20 L-1,20 L-1,18 L1,18 L1,14 L-1,13 L0,12 Z " fill="#101319" transform="translate(137,27)"/>
<path d="M0,0 L3,0 L3,16 L-16,16 L-17,12 L-14,11 L-13,9 L-8,7 L-5,6 L-5,4 L-3,4 L-3,2 L0,2 Z " fill="#9BA3AD" transform="translate(147,68)"/>
<path d="M0,0 L5,0 L5,10 L2,12 L1,15 L4,14 L5,12 L8,12 L8,10 L10,10 L9,15 L14,13 L18,12 L16,16 L9,20 L8,22 L1,22 L1,19 L4,20 L8,16 L3,18 L-2,18 L-3,21 L-10,23 L-11,21 L-9,21 L-9,19 L-6,19 L-6,16 L-4,15 L-3,12 L-5,10 L0,10 L0,3 L-2,1 Z " fill="#2F3136" transform="translate(115,44)"/>
<path d="M0,0 L12,0 L13,3 L9,4 L5,3 L5,7 L8,7 L9,9 L16,11 L16,13 L18,13 L18,11 L28,14 L29,17 L27,17 L26,20 L17,15 L12,12 L5,11 L-1,9 L-6,8 L-6,6 L-2,6 L-2,4 L-5,5 L-9,4 L-9,2 L-2,2 L0,3 Z " fill="#504F5A" transform="translate(94,0)"/>
<path d="M0,0 L3,0 L3,5 L0,5 L0,7 L-3,7 L-3,9 L-5,9 L-5,11 L-10,14 L-13,14 L-14,17 L-17,17 L-16,21 L-25,21 L-25,18 L-30,19 L-29,15 L-23,12 L-21,11 L-22,15 L-25,15 L-22,18 L-22,16 L-15,12 L-11,8 L-9,8 L-8,5 L-2,2 Z " fill="#060709" transform="translate(147,63)"/>
<path d="M0,0 Z M-1,1 L1,3 L1,13 L5,13 L5,16 L0,16 L-4,13 L-3,18 L0,20 L0,25 L-1,23 L-4,23 L-4,21 L-6,21 L-6,18 L-8,18 L-8,16 L-10,16 L-11,9 L-11,3 L-5,4 L-4,6 Z " fill="#3B3C41" transform="translate(15,35)"/>
<path d="M0,0 L11,2 L13,5 L12,10 L1,12 L-7,9 L-8,5 L-4,5 L-4,3 Z " fill="#2D363A" transform="translate(74,34)"/>
<path d="M0,0 L2,0 L0,6 L2,6 L1,13 L5,12 L6,9 L13,8 L13,13 L8,15 L7,14 L5,20 L3,16 L-2,16 L-3,20 L-1,21 L-3,21 L-3,26 L-4,26 L-4,11 L-7,12 L-7,6 L-5,6 L-5,2 Z M8,12 Z " fill="#3F4249" transform="translate(7,23)"/>
<path d="M0,0 L6,0 L6,5 L11,7 L14,7 L12,6 L12,4 L17,2 L20,4 L29,6 L29,9 L27,10 L0,10 Z " fill="#191720" transform="translate(0,74)"/>
<path d="M0,0 L21,0 L19,2 L23,2 L23,4 L21,4 L21,9 L19,9 L18,13 L12,13 L11,7 L6,7 L5,3 L0,4 L-4,5 L-2,4 L-2,2 L0,2 Z " fill="#474D51" transform="translate(21,0)"/>
<path d="M0,0 L3,0 L3,2 L1,2 L2,4 L4,2 L9,2 L10,9 L14,8 L14,12 L3,14 L0,15 L0,19 L-3,18 L-1,17 L0,13 L1,11 L-4,10 L-5,3 Z " fill="#0F1216" transform="translate(18,0)"/>
<path d="M0,0 L20,0 L20,13 L16,12 L13,10 L13,8 L8,7 L0,3 Z " fill="#2A2226" transform="translate(130,0)"/>
<path d="M0,0 L2,0 L2,3 L-1,3 L-1,5 L-7,6 L-7,8 L-5,8 L-5,10 L-8,10 L-8,12 L-10,12 L-10,14 L-12,14 L-13,17 L-15,17 L-15,12 L-17,12 L-19,9 L-25,7 L-25,9 L-29,8 L-26,8 L-25,5 L-20,4 L-19,1 L-12,1 L-13,4 L-18,5 L-18,8 L-11,7 L-8,6 L-8,4 L-5,4 L-4,1 Z " fill="#3C3E42" transform="translate(47,16)"/>
<path d="M0,0 L2,0 L2,2 L7,3 L14,4 L14,6 L24,6 L29,7 L29,10 L38,11 L43,12 L43,13 L17,13 L19,12 L19,9 L10,8 L5,6 L0,3 Z " fill="#585E67" transform="translate(10,71)"/>
<path d="M0,0 L12,0 L16,1 L15,4 L10,4 L10,6 L12,6 L12,8 L9,8 L8,11 L-6,12 L-9,12 L-9,10 L-1,7 L3,6 L0,4 Z " fill="#46444C" transform="translate(55,0)"/>
<path d="M0,0 L5,0 L6,4 L9,6 L9,8 L4,9 L2,15 L0,19 L-2,15 L-4,19 L-5,18 L-5,11 L-3,8 L-3,5 L-8,5 L-8,3 Z " fill="#383F46" transform="translate(54,31)"/>
<path d="M0,0 L2,1 L2,3 L4,3 L4,5 L8,6 L8,3 L10,3 L11,8 L-5,8 L-14,7 L-14,5 L-23,4 L-22,2 L-8,1 L-3,3 L-3,1 Z " fill="#14131B" transform="translate(71,76)"/>
<path d="M0,0 L7,0 L8,1 L8,6 L2,5 L2,7 L6,9 L4,11 L-5,13 L-10,13 L-11,16 L-13,16 L-11,11 L-15,11 L-15,8 L-7,8 L-7,6 L0,5 Z " fill="#525157" transform="translate(73,4)"/>
<path d="M0,0 L8,1 L9,2 L16,3 L12,5 L18,8 L16,9 L9,8 L10,14 L8,17 L5,14 L5,8 L2,9 L1,11 L-3,11 L-2,7 L-2,4 Z " fill="#17181D" transform="translate(90,8)"/>
<path d="M0,0 L1,3 L7,4 L8,6 L5,6 L7,12 L9,12 L8,16 L4,17 L3,14 L-3,13 L-12,15 L-12,13 L-6,11 L-8,9 L-5,6 L-1,6 L-1,1 Z " fill="#16191E" transform="translate(101,23)"/>
<path d="M0,0 L2,0 L4,5 L6,7 L4,7 L4,13 L2,15 L0,19 L-2,19 L-2,22 L-8,23 L-8,25 L-11,27 L-16,27 L-17,31 L-20,30 L-18,26 L-11,23 L-6,20 L-4,20 L-4,14 L-2,11 L0,11 L-2,3 Z " fill="#121318" transform="translate(111,41)"/>
<path d="M0,0 L6,1 L9,3 L9,6 L16,7 L14,9 L1,9 L-9,7 L-14,5 L-15,3 L0,2 Z " fill="#0A0E13" transform="translate(57,66)"/>
<path d="M0,0 L8,0 L8,3 L12,3 L12,5 L14,4 L20,4 L20,9 L17,9 L16,15 L12,15 L12,13 L5,12 L5,10 L10,9 L10,6 L3,5 L3,1 Z " fill="#35383D" transform="translate(70,65)"/>
<path d="M0,0 L2,0 L3,2 L10,2 L10,4 L3,6 L3,11 L-2,12 L-4,12 L-3,14 L2,13 L2,15 L8,15 L8,16 L1,16 L1,14 L-1,14 L-3,18 L-7,18 L-8,15 L-5,15 L-7,12 L-7,9 L-14,10 L-15,7 L-8,7 L0,5 Z " fill="#22272B" transform="translate(86,38)"/>
<path d="M0,0 L4,1 L10,6 L10,8 L16,8 L20,12 L20,21 L17,20 L17,13 L14,13 L14,16 L8,14 L8,12 L6,12 L5,9 L6,5 L1,5 Z " fill="#675F68" transform="translate(114,19)"/>
<path d="M0,0 L5,1 L13,4 L19,5 L20,3 L23,9 L21,13 L18,13 L17,15 L14,13 L14,11 L16,10 L11,10 L8,7 L0,4 Z " fill="#0D0D11" transform="translate(114,8)"/>
<path d="M0,0 L3,0 L3,3 L-2,8 L-11,10 L-16,8 L-22,7 L-22,4 L-18,4 L-18,6 L-15,3 Z " fill="#2D3034" transform="translate(78,14)"/>
<path d="M0,0 L4,1 L5,7 L9,6 L9,3 L13,3 L13,17 L11,15 L10,8 L8,8 L10,15 L10,20 L7,20 L7,17 L4,15 L3,7 L1,6 L1,4 L-1,2 Z " fill="#736B73" transform="translate(137,24)"/>
<path d="M0,0 L18,0 L17,2 L10,6 L7,6 L6,9 L2,12 L0,12 Z " fill="#626667" transform="translate(0,0)"/>
<path d="M0,0 L2,2 L8,3 L11,9 L3,11 L-4,10 L-5,3 Z " fill="#0C0F13" transform="translate(97,42)"/>
<path d="M0,0 L27,0 L27,3 L18,2 L23,4 L25,4 L25,6 L21,6 L20,9 L14,8 L13,5 L5,3 L5,1 L0,1 Z " fill="#0A090F" transform="translate(67,0)"/>
<path d="M0,0 L4,1 L6,0 L6,5 L5,6 L16,7 L16,9 L7,9 L6,12 L-14,12 L-14,10 L-6,10 L1,9 L0,5 Z " fill="#63646B" transform="translate(96,72)"/>
<path d="M0,0 L6,0 L6,2 L9,3 L14,8 L14,10 L12,10 L12,12 L18,13 L18,14 L11,14 L5,12 L6,6 L0,6 Z " fill="#020205" transform="translate(0,68)"/>
<path d="M0,0 L2,4 L3,7 L8,9 L13,14 L13,16 L17,17 L13,18 L10,15 L9,17 L11,18 L9,20 L6,17 L6,15 L0,15 Z " fill="#3D3F43" transform="translate(0,53)"/>
<path d="M0,0 L4,0 L4,5 L12,6 L15,7 L15,9 L10,9 L10,11 L1,11 L-2,10 L-2,3 L0,3 Z " fill="#06060E" transform="translate(27,66)"/>
<path d="M0,0 L4,0 L2,5 L1,7 L6,7 L7,11 L5,11 L4,14 L2,13 L-4,13 L-8,14 L-9,11 L-4,11 L-5,7 L-3,2 Z " fill="#242829" transform="translate(45,29)"/>
<path d="M0,0 L3,1 L2,6 L3,10 L1,20 L-1,20 L-1,22 L-4,22 L-5,25 L-8,25 L-9,22 L-8,20 L-4,20 L-4,16 L-1,16 L0,10 L-1,6 L-6,5 L-5,2 L-1,2 Z " fill="#1A171D" transform="translate(124,34)"/>
<path d="M0,0 L2,0 L5,9 L5,25 L2,25 L1,21 L-5,20 L-1,18 L0,14 L3,13 L2,7 L0,6 Z " fill="#06090E" transform="translate(145,32)"/>
<path d="M0,0 L4,0 L3,7 L1,5 L-4,7 L-3,14 L0,15 L-8,15 L-8,13 L-12,13 L-13,15 L-14,12 L-8,11 L-8,6 L-2,4 L0,4 L0,2 L-3,1 Z " fill="#171B1F" transform="translate(96,38)"/>
<path d="M0,0 L6,0 L9,3 L2,3 L-2,5 L-2,7 L-6,7 L-5,11 L-1,12 L-5,14 L-8,13 L-8,9 L-13,9 L-13,11 L-15,11 L-14,7 L-11,6 L-9,7 L-10,4 L-5,4 L-5,6 L-3,6 L-2,2 Z " fill="#1E262A" transform="translate(72,32)"/>
<path d="M0,0 L6,0 L12,3 L9,8 L6,11 L-1,9 L-3,4 L0,3 L3,3 Z " fill="#14171C" transform="translate(101,12)"/>
<path d="M0,0 L3,0 L5,4 L1,4 L0,13 L-5,13 L-6,10 L-11,9 L-9,8 L-5,9 L-4,1 Z " fill="#1F2220" transform="translate(41,27)"/>
<path d="M0,0 L1,0 L1,8 L5,9 L4,13 L2,13 L1,15 L-6,16 L-9,17 L-9,14 L-2,8 L-1,6 L-5,7 L-5,5 L0,4 Z " fill="#2D2C36" transform="translate(134,50)"/>
<path d="M0,0 L4,0 L4,5 L-1,7 L-2,6 L-4,12 L-6,8 L-11,8 L-10,2 L-8,1 L-8,5 L-4,4 L-3,1 Z M-1,4 Z " fill="#151B26" transform="translate(16,31)"/>
<path d="M0,0 L8,0 L12,4 L17,5 L16,10 L12,10 L12,12 L7,11 L7,9 L11,9 L10,7 L7,7 L6,4 L3,3 L3,1 Z " fill="#8C8185" transform="translate(115,0)"/>
<path d="M0,0 L1,4 L1,16 L2,23 L-1,25 L-3,20 L-3,2 Z " fill="#180F14" transform="translate(3,33)"/>
<path d="M0,0 L1,2 L6,2 L2,3 L2,8 L-3,10 L-5,9 L-5,11 L-13,11 L-13,14 L-9,14 L-10,16 L-15,14 L-14,11 L-16,10 L-8,9 L-7,7 L-4,7 L-4,5 L-6,5 L-6,3 L-1,2 Z " fill="#241F28" transform="translate(71,1)"/>
<path d="M0,0 L6,0 L6,5 L12,8 L12,10 L0,10 Z " fill="#29262F" transform="translate(0,74)"/>
<path d="M0,0 L7,1 L7,4 L11,6 L14,9 L10,12 L6,11 L6,8 L8,7 L2,5 L1,3 L0,8 L-3,8 L-2,4 Z " fill="#4A4E52" transform="translate(100,21)"/>
<path d="M0,0 L5,1 L5,4 L0,4 Z M-4,4 L0,4 L0,7 L-2,7 L-2,9 L-4,9 L-4,14 L1,13 L1,16 L-10,16 L-11,14 L-7,13 L-5,5 Z " fill="#424247" transform="translate(121,68)"/>
<path d="M0,0 L3,0 L4,2 L11,4 L11,6 L13,6 L13,4 L23,7 L24,10 L22,10 L21,13 L12,8 L7,5 L0,4 Z " fill="#8E939A" transform="translate(99,7)"/>
<path d="M0,0 L2,0 L0,6 L-1,7 L1,8 L1,4 L9,3 L8,8 L1,10 L2,12 L-6,11 L-6,9 L-3,9 L-4,2 L0,2 Z " fill="#37393D" transform="translate(17,11)"/>
<path d="M0,0 L2,0 L1,5 L6,3 L10,2 L8,6 L1,10 L0,12 L-7,12 L-7,9 L-4,10 L0,6 L-4,6 L-3,2 L0,2 Z " fill="#45454A" transform="translate(123,54)"/>
<path d="M0,0 L5,1 L3,5 L1,5 L2,8 L-2,9 L-2,11 L-5,10 L-5,8 L-2,7 L-3,6 L-9,8 L-10,10 L-10,7 L-8,7 L-8,5 L-6,5 L-6,2 Z " fill="#090B0E" transform="translate(127,70)"/>
<path d="M0,0 L4,3 L4,13 L8,15 L11,17 L11,22 L10,20 L7,20 L7,18 L5,18 L5,15 L3,15 L3,13 L1,13 L0,6 Z " fill="#4E464F" transform="translate(4,38)"/>
<path d="M0,0 L5,1 L8,2 L8,16 L6,16 L6,10 L3,9 L3,5 L0,5 Z " fill="#0F0C0F" transform="translate(142,11)"/>
<path d="M0,0 L9,1 L9,2 L0,3 L8,5 L8,7 L17,7 L17,8 L4,8 L-5,6 L-7,3 Z " fill="#322C35" transform="translate(49,76)"/>
<path d="M0,0 L2,0 L3,4 L-1,6 L-4,6 L-4,8 L-1,8 L-1,12 L-4,14 L-11,14 L-11,11 L-6,9 L-5,7 L-8,6 L-4,4 L-1,4 Z " fill="#070A0C" transform="translate(40,10)"/>
<path d="M0,0 L3,0 L3,5 L0,5 L0,7 L-3,7 L-3,9 L-5,9 L-5,11 L-7,13 L-10,12 L-8,5 L-2,2 Z " fill="#251D25" transform="translate(147,63)"/>
<path d="M0,0 L8,0 L9,7 L4,9 L3,7 L0,7 L-3,2 L0,2 Z " fill="#323338" transform="translate(40,48)"/>
<path d="M0,0 L5,1 L3,10 L8,11 L5,12 L2,11 L2,9 L-5,9 L-6,6 L-2,5 L-3,3 Z " fill="#1E212E" transform="translate(22,66)"/>
<path d="M0,0 L5,0 L6,5 L4,6 L2,13 L0,13 L-2,10 L-2,5 Z " fill="#020204" transform="translate(129,40)"/>
<path d="M0,0 L10,0 L13,3 L12,7 L5,6 L1,4 Z " fill="#4C5256" transform="translate(66,39)"/>
<path d="M0,0 L3,0 L3,5 L-5,9 L-7,12 L-12,12 L-12,9 L-8,6 L-5,6 L-5,4 L-3,4 L-3,2 L0,2 Z " fill="#8C8086" transform="translate(147,68)"/>
<path d="M0,0 L2,0 L2,3 L-1,3 L-1,5 L-7,6 L-7,8 L-5,8 L-5,10 L-8,10 L-8,12 L-10,12 L-11,14 L-11,9 L-16,9 L-16,8 L-8,6 L-8,4 L-5,4 L-4,1 Z " fill="#6E6E76" transform="translate(47,16)"/>
<path d="M0,0 L2,1 L4,8 L2,10 L-1,10 L-2,12 L-5,10 L-5,8 L-3,7 L-2,4 L-9,2 L-6,1 L0,2 Z " fill="#0C0C11" transform="translate(133,11)"/>
<path d="M0,0 L4,1 L4,3 L1,4 L1,2 L-2,2 L-2,5 L-4,5 L-3,14 L-11,16 L-12,14 L-7,14 L-7,12 L-5,12 L-5,9 L-8,9 L-7,5 L-5,1 Z " fill="#3C3E45" transform="translate(100,67)"/>
<path d="M0,0 L4,1 L10,6 L12,14 L6,12 L5,9 L6,5 L1,5 Z " fill="#8A838B" transform="translate(114,19)"/>
<path d="M0,0 L9,0 L8,2 L3,2 L3,4 L-6,6 L-12,5 L-12,2 L-8,2 L-8,4 L-5,1 Z " fill="#292C37" transform="translate(68,16)"/>
<path d="M0,0 L1,3 L3,3 L5,10 L4,15 L0,13 L-1,11 L0,7 L-2,7 L-3,2 L0,2 Z " fill="#171A1D" transform="translate(26,42)"/>
<path d="M0,0 L13,1 L9,3 L15,6 L13,7 L6,6 L7,11 L5,11 L5,9 L3,9 L3,5 L1,4 Z " fill="#323439" transform="translate(93,10)"/>
<path d="M0,0 L1,2 L3,3 L-1,3 L-1,6 L1,8 L-3,9 L-7,8 L-8,11 L-10,11 L-10,8 L-15,8 L-15,5 L-6,5 L-3,6 L-2,2 Z M-10,7 Z " fill="#1A1A21" transform="translate(29,58)"/>
<path d="M0,0 L3,0 L4,8 L1,8 L0,18 L-1,21 L-3,19 L-2,11 L-3,7 L-1,7 Z " fill="#291F27" transform="translate(128,32)"/>
<path d="M0,0 L3,1 L3,5 L5,6 L-3,7 L-4,10 L-6,10 L-4,5 L-8,5 L-8,2 L0,2 Z " fill="#4D4750" transform="translate(66,10)"/>
<path d="M0,0 L4,0 L4,2 L8,3 L7,8 L5,8 L5,10 L-2,9 L-2,6 L1,6 L1,4 L3,4 L3,1 Z " fill="#2E3137" transform="translate(106,68)"/>
<path d="M0,0 L5,0 L8,2 L8,8 L6,8 L5,11 L4,3 L-1,4 L-8,4 L-8,2 Z " fill="#72747A" transform="translate(140,19)"/>
<path d="M0,0 L15,0 L15,4 L5,4 L1,3 L-1,5 L-4,4 L-2,4 L-2,2 L0,2 Z " fill="#74747A" transform="translate(21,0)"/>
<path d="M0,0 L8,0 L8,2 L-1,6 L-5,7 L-5,4 L-10,4 L-6,2 L0,2 Z " fill="#58555E" transform="translate(44,74)"/>
<path d="M0,0 L6,1 L7,4 L9,5 L10,9 L5,9 L4,13 L3,14 L-4,14 L-4,13 L1,12 L4,8 L6,8 L6,5 L2,6 L2,3 L0,2 Z " fill="#1C1E22" transform="translate(75,9)"/>
<path d="M0,0 L1,2 L6,1 L6,3 L3,3 L3,5 L-5,8 L-8,8 L-7,4 L-5,2 Z " fill="#64686F" transform="translate(15,21)"/>
<path d="M0,0 L15,0 L15,5 L11,5 L11,7 L8,7 L8,2 L0,1 Z " fill="#3C4649" transform="translate(70,38)"/>
<path d="M0,0 L5,0 L4,7 L0,9 L0,4 L-7,4 L-6,2 Z " fill="#474D53" transform="translate(54,31)"/>
<path d="M0,0 L9,1 L16,3 L14,7 L7,6 L7,2 L0,3 Z " fill="#24242C" transform="translate(55,25)"/>
<path d="M0,0 L7,4 L12,4 L13,2 L14,4 L17,5 L17,7 L10,8 L3,6 L3,4 L0,3 Z " fill="#4D4145" transform="translate(109,2)"/>
<path d="M0,0 L15,1 L16,5 L-1,3 Z " fill="#33343A" transform="translate(52,74)"/>
<path d="M0,0 L2,4 L3,10 L6,10 L7,13 L5,15 L0,15 Z " fill="#3A343C" transform="translate(0,53)"/>
<path d="M0,0 L7,0 L8,3 L9,0 L9,4 L4,5 L0,9 L-1,9 Z " fill="#1E2021" transform="translate(1,16)"/>
<path d="M0,0 L1,2 L-10,7 L-11,9 L-13,9 L-13,7 L-15,7 L-15,5 L-13,5 L-12,2 L-10,3 L-9,1 L-9,3 Z " fill="#0C090F" transform="translate(144,62)"/>
<path d="M0,0 L8,0 L9,5 L7,7 L3,6 L3,4 L0,4 Z " fill="#1D1E26" transform="translate(99,3)"/>
<path d="M0,0 L7,1 L6,5 L2,7 L-5,6 L-1,2 L-4,1 Z " fill="#16161C" transform="translate(87,76)"/>
<path d="M0,0 L5,1 L6,3 L4,4 L6,5 L6,7 L2,7 L2,5 L-5,4 L-5,2 Z " fill="#626970" transform="translate(80,73)"/>
<path d="M0,0 L6,1 L6,3 L9,3 L9,6 L3,7 L-2,2 Z " fill="#130E10" transform="translate(112,0)"/>
<path d="M0,0 L3,1 L0,5 L-2,5 L-1,11 L-5,9 L-7,4 Z " fill="#0D1113" transform="translate(39,44)"/>
<path d="M0,0 L2,1 L3,0 L6,2 L5,7 L-2,7 L-3,3 L0,2 Z " fill="#04060C" transform="translate(52,49)"/>
<path d="M0,0 L2,4 L2,7 L4,7 L4,11 L2,11 L3,18 L2,24 L1,24 L0,7 Z " fill="#61616A" transform="translate(134,34)"/>
<path d="M0,0 L2,0 L3,3 L8,4 L3,8 L-1,10 L-2,9 L-2,2 L0,2 Z " fill="#221B23" transform="translate(113,28)"/>
<path d="M0,0 L7,0 L8,1 L8,6 L0,5 Z " fill="#534F56" transform="translate(73,4)"/>
<path d="M0,0 L10,0 L9,2 L1,4 L-5,4 L-6,1 Z " fill="#0B0D12" transform="translate(49,5)"/>
<path d="M0,0 L10,0 L10,2 L7,2 L6,6 L2,6 L2,4 L0,4 Z " fill="#080909" transform="translate(0,0)"/>
<path d="M0,0 L6,0 L6,5 L3,5 L3,8 L0,7 L0,5 L-3,3 Z " fill="#40474D" transform="translate(84,69)"/>
<path d="M0,0 L5,1 L5,4 L10,5 L8,6 L-6,6 L-5,4 L-2,4 L-2,1 Z " fill="#24292D" transform="translate(73,56)"/>
<path d="M0,0 L7,4 L9,3 L13,5 L13,7 L6,7 L1,4 L0,6 L-3,1 Z " fill="#31373D" transform="translate(113,15)"/>
<path d="M0,0 L1,0 L1,7 L-10,5 L-10,3 L-6,3 L-5,1 L0,2 Z " fill="#4B4B52" transform="translate(98,3)"/>
<path d="M0,0 L13,0 L14,5 L7,5 L11,4 L11,1 L5,1 L5,3 L-5,3 L-2,1 Z " fill="#22272C" transform="translate(42,0)"/>
<path d="M0,0 L7,1 L9,6 L8,7 L2,7 L3,4 L1,4 Z " fill="#3E434A" transform="translate(66,65)"/>
<path d="M0,0 L3,4 L3,8 L1,8 L1,6 L-5,6 L-6,2 Z " fill="#020204" transform="translate(21,41)"/>
<path d="M0,0 L4,0 L4,2 L-2,3 L-2,8 L-8,7 L-8,3 Z " fill="#696C6F" transform="translate(31,37)"/>
<path d="M0,0 L5,0 L6,2 L6,8 L3,9 L2,3 L-5,2 L-5,1 Z " fill="#0E1013" transform="translate(139,22)"/>
<path d="M0,0 L3,0 L2,8 L-2,8 L-3,10 L-3,1 Z " fill="#818F99" transform="translate(143,52)"/>
<path d="M0,0 L8,1 L4,6 L0,7 L-2,4 Z " fill="#06060A" transform="translate(82,7)"/>
<path d="M0,0 L4,0 L4,3 L13,4 L18,5 L18,6 L8,6 L-1,3 Z " fill="#7E7F87" transform="translate(35,78)"/>
<path d="M0,0 L11,1 L12,4 L0,4 Z " fill="#645960" transform="translate(0,80)"/>
<path d="M0,0 L1,3 L6,3 L4,7 L-3,7 L-4,3 L-1,2 Z " fill="#38383A" transform="translate(134,77)"/>
<path d="M0,0 L5,0 L6,3 L3,3 L4,6 L3,7 L-2,7 L-2,1 Z " fill="#35373B" transform="translate(46,62)"/>
<path d="M0,0 L1,3 L6,1 L6,5 L2,6 L2,12 L-1,11 Z " fill="#414B56" transform="translate(137,47)"/>
<path d="M0,0 L5,0 L5,7 L4,9 L1,9 L2,3 L-2,1 Z " fill="#4B4F53" transform="translate(115,44)"/>
<path d="M0,0 L6,0 L10,3 L10,7 L6,6 L3,4 L3,2 L0,2 Z " fill="#9C9299" transform="translate(140,6)"/>
<path d="M0,0 L8,0 L8,3 L10,3 L10,5 L2,4 L0,3 Z " fill="#71686E" transform="translate(130,0)"/>
<path d="M0,0 L4,0 L4,5 L-1,7 L-3,6 L-2,1 Z M-1,4 Z " fill="#2A3136" transform="translate(16,31)"/>
<path d="M0,0 L4,1 L5,8 L7,8 L7,11 L3,9 L3,7 L1,6 L1,4 L-1,2 Z " fill="#9AA1A9" transform="translate(137,24)"/>
<path d="M0,0 L6,2 L9,4 L8,7 L2,6 L-1,1 Z " fill="#15171F" transform="translate(122,21)"/>
<path d="M0,0 L5,1 L4,6 L0,6 L-2,8 L-2,1 Z " fill="#060909" transform="translate(2,11)"/>
<path d="M0,0 L5,1 L5,2 L-3,3 L-2,5 L-13,3 L-12,1 Z " fill="#19141C" transform="translate(61,77)"/>
<path d="M0,0 L6,0 L11,1 L11,5 L2,5 L2,1 Z " fill="#2B3033" transform="translate(47,64)"/>
<path d="M0,0 L7,0 L9,1 L9,4 L4,5 L0,2 Z " fill="#1C2029" transform="translate(20,79)"/>
<path d="M0,0 L3,0 L3,2 L10,2 L10,3 L-1,3 L-1,5 L-8,6 L-8,4 L-3,4 L-3,2 L-6,1 Z " fill="#29262D" transform="translate(45,71)"/>
<path d="M0,0 L2,2 L3,8 L7,8 L7,11 L2,11 L-1,8 Z " fill="#717075" transform="translate(13,40)"/>
<path d="M0,0 L9,0 L11,1 L11,3 L0,4 L0,1 Z " fill="#0C0A12" transform="translate(57,79)"/>
<path d="M0,0 L3,0 L3,2 L0,4 L-5,4 L-6,8 L-9,7 L-7,3 Z " fill="#040609" transform="translate(100,64)"/>
<path d="M0,0 L4,3 L4,11 L0,11 Z " fill="#626268" transform="translate(4,38)"/>
<path d="M0,0 L16,0 L16,1 L7,1 L7,3 L13,3 L13,4 L6,4 L1,2 Z " fill="#1A1C21" transform="translate(42,69)"/>
<path d="M0,0 L3,1 L4,5 L2,12 L1,12 L0,5 L-1,2 L-3,1 Z " fill="#5D5D63" transform="translate(121,39)"/>
<path d="M0,0 L1,2 L-1,2 L-1,7 L-8,8 L-8,6 L-5,6 L-5,2 Z " fill="#6D7175" transform="translate(43,2)"/>
<path d="M0,0 L4,0 L2,5 L0,7 L-4,6 L-4,3 L0,3 Z " fill="#030305" transform="translate(21,3)"/>
<path d="M0,0 L11,0 L11,3 L2,2 L2,4 L-1,4 Z " fill="#181A28" transform="translate(83,0)"/>
<path d="M0,0 L3,0 L3,2 L1,2 L1,4 L-2,4 L-3,7 L-7,7 L-5,3 Z " fill="#2F2F33" transform="translate(147,73)"/>
<path d="M0,0 L5,2 L4,7 L1,6 L1,4 L-4,3 L-3,1 Z " fill="#4F5155" transform="translate(31,62)"/>
<path d="M0,0 L4,2 L3,5 L6,5 L7,3 L7,6 L-1,8 Z " fill="#3F3E44" transform="translate(141,39)"/>
<path d="M0,0 L4,0 L3,6 L-2,8 L-2,4 L0,4 Z " fill="#161218" transform="translate(2,25)"/>
<path d="M0,0 L1,2 L5,1 L5,3 L2,5 L-5,5 L-5,2 Z " fill="#191B1E" transform="translate(34,19)"/>
<path d="M0,0 L7,0 L6,3 L0,3 L0,5 L-5,5 L-4,3 L-1,3 Z " fill="#5A5E62" transform="translate(28,17)"/>
<path d="M0,0 L1,2 L6,1 L6,4 L-5,4 L-6,2 Z " fill="#1B1920" transform="translate(116,80)"/>
<path d="M0,0 L1,0 L2,13 L0,13 L-2,4 L-5,3 L-3,2 L0,3 Z " fill="#101118" transform="translate(136,27)"/>
<path d="M0,0 L2,1 L4,6 L4,12 L2,10 L0,11 Z " fill="#323A40" transform="translate(137,27)"/>
<path d="M0,0 L4,2 L5,5 L1,7 L-3,6 L-3,3 Z " fill="#47494D" transform="translate(109,26)"/>
<path d="M0,0 L7,3 L7,5 L5,5 L4,8 L-2,4 L1,3 Z " fill="#A2A4AC" transform="translate(116,12)"/>
<path d="M0,0 L2,0 L2,5 L-6,5 L-6,2 Z " fill="#4D515E" transform="translate(148,79)"/>
<path d="M0,0 L3,4 L2,7 L5,7 L5,10 L0,8 L-3,7 L-3,5 L0,5 L-1,1 Z " fill="#21282D" transform="translate(90,69)"/>
<path d="M0,0 L6,1 L9,3 L9,6 L13,7 L8,7 L6,3 L1,3 Z " fill="#171B21" transform="translate(57,66)"/>
<path d="M0,0 L4,0 L4,5 L0,6 L-1,9 L1,10 L-2,10 L-2,3 L0,3 Z " fill="#0A0C16" transform="translate(27,66)"/>
<path d="M0,0 L2,0 L2,5 L0,5 L-1,9 L-4,9 L-5,6 L-4,4 L0,4 Z " fill="#08080B" transform="translate(120,50)"/>
<path d="M0,0 L2,1 L1,6 L4,7 L5,12 L1,10 L-1,5 Z " fill="#54575B" transform="translate(30,44)"/>
<path d="M0,0 L4,1 L2,5 L0,7 L-1,3 L-3,7 L-4,6 L-4,1 L0,2 Z " fill="#2D2C31" transform="translate(53,43)"/>
<path d="M0,0 L1,4 L0,10 L-3,10 L-3,2 Z " fill="#07090D" transform="translate(3,33)"/>
<path d="M0,0 L6,0 L6,3 L2,4 L-5,4 L-3,3 L-2,1 L0,2 Z " fill="#484E53" transform="translate(47,1)"/>
<path d="M0,0 L2,0 L2,2 L7,3 L11,5 L11,7 L4,6 L0,3 Z " fill="#90939A" transform="translate(10,71)"/>
<path d="M0,0 L1,4 L4,4 L4,8 L0,8 L-2,5 L-1,1 Z " fill="#35404A" transform="translate(146,53)"/>
<path d="M0,0 L1,0 L1,8 L5,9 L3,11 L0,10 L-1,7 L-5,7 L-5,5 L0,4 Z " fill="#323642" transform="translate(134,50)"/>
<path d="M0,0 L5,0 L3,1 L3,5 L-1,7 L-4,7 L-4,5 L-1,5 Z " fill="#6D7274" transform="translate(11,15)"/>
<path d="M0,0 L2,2 L3,7 L-1,6 L-1,4 L-6,5 L-3,1 Z " fill="#2F3233" transform="translate(10,5)"/>
<path d="M0,0 L12,0 L13,3 L9,4 L9,2 L0,1 Z " fill="#95969F" transform="translate(94,0)"/>
<path d="M0,0 L6,0 L6,2 L11,3 L12,5 L2,4 L3,1 Z " fill="#6A6C76" transform="translate(18,75)"/>
<path d="M0,0 L3,1 L1,1 L3,7 L5,7 L4,10 L2,10 L1,7 L-4,5 L0,4 Z " fill="#2D3238" transform="translate(64,62)"/>
<path d="M0,0 L4,3 L3,0 L7,1 L7,6 L0,5 Z " fill="#222128" transform="translate(31,66)"/>
<path d="M0,0 L0,3 L-2,7 L-4,7 L-4,5 L-10,3 L-10,2 L-3,2 Z " fill="#34343A" transform="translate(28,57)"/>
<path d="M0,0 L3,0 L4,6 L0,7 L-3,2 L0,2 Z " fill="#4A494D" transform="translate(40,48)"/>
<path d="M0,0 L5,0 L6,2 L2,3 L1,10 L0,8 L-2,8 L-1,4 Z " fill="#16181D" transform="translate(129,40)"/>
<path d="M0,0 L8,0 L7,2 L2,2 L2,4 L-4,4 L-4,2 L0,2 Z " fill="#1B1F23" transform="translate(69,16)"/>
<path d="M0,0 L9,0 L9,2 L0,3 L-3,3 L-3,1 Z " fill="#66666C" transform="translate(49,9)"/>
<path d="M0,0 L3,3 L2,5 L1,6 L-5,6 L-5,3 L-1,2 Z " fill="#6D6165" transform="translate(132,7)"/>
<path d="M0,0 L8,1 L7,4 L0,4 Z " fill="#403E45" transform="translate(63,0)"/>
<path d="M0,0 L8,0 L8,2 L-1,5 Z " fill="#5D575F" transform="translate(44,74)"/>
<path d="M0,0 L4,1 L4,3 L1,4 L1,2 L-2,2 L-2,5 L-6,4 L-5,1 Z " fill="#2A3236" transform="translate(100,67)"/>
<path d="M0,0 L2,0 L5,9 L5,12 L3,12 L2,7 L0,6 Z " fill="#1F171F" transform="translate(145,32)"/>
<path d="M0,0 L4,2 L5,4 L2,4 L2,6 L0,6 L-1,8 L-1,3 L-6,3 L-6,2 Z " fill="#535358" transform="translate(37,22)"/>
<path d="M0,0 L2,2 L2,7 L-2,6 L-4,5 L-4,3 L-2,3 L-2,1 Z " fill="#2C2D32" transform="translate(111,20)"/>
<path d="M0,0 L2,4 L-6,4 L-6,7 L-2,7 L-3,9 L-8,7 L-7,4 L-9,3 L-1,2 Z " fill="#2C2630" transform="translate(64,8)"/>
<path d="M0,0 L3,0 L3,2 L1,2 L1,4 L-1,5 L-3,8 L-5,3 Z " fill="#2A2A2A" transform="translate(18,0)"/>
<path d="M0,0 L2,1 L2,3 L0,3 L0,5 L6,6 L6,7 L-1,7 L-4,6 L-4,4 L-1,4 Z " fill="#070712" transform="translate(12,75)"/>
<path d="M0,0 L1,0 L2,7 L4,10 L-3,12 L-3,10 L-1,9 L-2,7 L0,7 Z " fill="#5D636B" transform="translate(139,53)"/>
<path d="M0,0 L5,1 L6,4 L5,8 L1,6 L3,2 L0,2 Z " fill="#514C53" transform="translate(3,61)"/>
<path d="M0,0 L2,2 L1,9 L-3,10 L-1,1 Z " fill="#12161D" transform="translate(133,45)"/>
<path d="M0,0 L6,1 L2,7 L-1,6 Z " fill="#110D15" transform="translate(51,11)"/>
<path d="M0,0 L7,0 L7,1 L1,1 L2,3 L7,4 L4,5 L3,7 L-2,5 L0,4 Z " fill="#32353A" transform="translate(42,5)"/>
<path d="M0,0 L9,1 L11,3 L1,3 Z " fill="#3F424B" transform="translate(32,81)"/>
<path d="M0,0 L2,1 L5,0 L5,2 L1,3 L-1,7 L-5,8 L-5,6 L-1,2 Z " fill="#46454B" transform="translate(133,69)"/>
<path d="M0,0 L4,1 L4,8 L2,7 L2,5 L-1,4 Z " fill="#3C4246" transform="translate(111,66)"/>
<path d="M0,0 L4,0 L4,2 L8,3 L7,8 L5,8 L3,4 L3,1 Z " fill="#373C41" transform="translate(106,68)"/>
<path d="M0,0 L3,1 L0,3 L-1,7 L-6,7 L-5,3 L-1,1 Z " fill="#212125" transform="translate(93,58)"/>
<path d="M0,0 L9,0 L11,2 L0,3 Z " fill="#121115" transform="translate(14,63)"/>
<path d="M0,0 L4,0 L2,4 L-1,5 L-1,3 L-3,3 L-4,5 L-5,2 Z " fill="#131418" transform="translate(119,60)"/>
<path d="M0,0 L3,0 L4,6 L-1,6 Z " fill="#19121B" transform="translate(17,52)"/>
<path d="M0,0 L4,2 L5,5 L-3,6 L-2,2 L0,3 Z " fill="#2F3235" transform="translate(38,52)"/>
<path d="M0,0 L2,4 L1,5 L1,13 L-2,11 L-1,1 Z " fill="#2C2F34" transform="translate(127,40)"/>
<path d="M0,0 L1,2 L4,1 L7,4 L7,6 L3,6 L3,4 L1,4 L0,6 Z " fill="#28292E" transform="translate(113,37)"/>
<path d="M0,0 L3,0 L5,4 L1,4 L0,7 L0,3 L-3,3 L-3,1 Z " fill="#0C0D10" transform="translate(41,27)"/>
<path d="M0,0 L7,1 L6,3 L4,3 L4,5 L-2,3 L-3,1 Z " fill="#06090E" transform="translate(124,16)"/>
<path d="M0,0 L10,1 L10,6 L7,5 L7,3 L0,1 Z " fill="#2E282D" transform="translate(124,12)"/>
<path d="M0,0 L6,1 L6,3 L2,3 L1,6 L-3,5 L-3,3 L0,3 Z " fill="#191922" transform="translate(86,3)"/>
<path d="M0,0 L7,0 L6,5 L2,3 Z " fill="#1F1719" transform="translate(123,0)"/>
<path d="M0,0 L1,2 L3,2 L3,4 L5,5 L3,10 L1,9 Z " fill="#372B33" transform="translate(4,49)"/>
<path d="M0,0 L7,0 L10,1 L10,3 L5,4 L1,2 Z " fill="#5B6166" transform="translate(67,40)"/>
<path d="M0,0 L6,2 L6,4 L2,3 L2,5 L-2,4 L-3,2 L0,2 Z " fill="#323337" transform="translate(87,24)"/>
<path d="M0,0 L3,1 L3,7 L1,7 L0,10 L-1,3 Z " fill="#494B51" transform="translate(145,20)"/>
<path d="M0,0 L8,0 L4,5 L1,4 Z " fill="#030408" transform="translate(103,18)"/>
<path d="M0,0 L5,0 L5,5 L3,9 L0,9 L1,5 L3,1 Z " fill="#1C1D23" transform="translate(22,2)"/>
<path d="M0,0 L9,2 L9,6 L5,4 L0,1 Z " fill="#140F12" transform="translate(141,3)"/>
<path d="M0,0 L4,1 L2,3 L4,4 L4,6 L0,6 L0,4 L-3,3 Z " fill="#75787F" transform="translate(82,74)"/>
<path d="M0,0 L4,2 L10,4 L10,5 L0,5 L-1,2 Z " fill="#1C2126" transform="translate(46,57)"/>
<path d="M0,0 L2,0 L0,4 L-5,4 L-6,1 Z " fill="#1F2226" transform="translate(106,51)"/>
<path d="M0,0 L1,4 L3,4 L3,9 L-1,7 Z " fill="#1A161C" transform="translate(11,45)"/>
<path d="M0,0 L3,1 L2,6 L-1,6 L-1,4 L-4,4 L-4,2 Z " fill="#37393E" transform="translate(40,14)"/>
<path d="M0,0 L4,1 L2,5 L-3,4 L-2,1 Z " fill="#595E64" transform="translate(22,14)"/>
<path d="M0,0 L2,0 L3,5 L1,7 L-2,7 L-2,4 L0,4 Z " fill="#282A31" transform="translate(105,3)"/>
<path d="M0,0 L7,1 L5,4 L0,4 Z " fill="#04060A" transform="translate(87,76)"/>
<path d="M0,0 L2,0 L2,4 L5,5 L0,7 L-3,6 Z " fill="#1E262C" transform="translate(60,53)"/>
<path d="M0,0 L1,2 L3,2 L3,8 L-1,7 Z " fill="#06080B" transform="translate(111,45)"/>
<path d="M0,0 L1,0 L1,10 L0,7 L-2,7 L-3,2 L0,2 Z " fill="#1F1E22" transform="translate(26,42)"/>
<path d="M0,0 L4,1 L5,6 L2,7 L2,2 L0,2 Z " fill="#272B2E" transform="translate(30,26)"/>
<path d="M0,0 L4,1 L4,4 L-2,4 L-3,2 Z " fill="#101424" transform="translate(59,21)"/>
<path d="M0,0 L4,1 L4,4 L6,4 L6,6 L2,6 L0,3 Z " fill="#686067" transform="translate(136,12)"/>
<path d="M0,0 L2,1 L1,8 L0,5 L-5,6 L-4,3 L0,3 Z " fill="#36333B" transform="translate(49,11)"/>
<path d="M0,0 L13,1 L13,2 L5,2 L5,4 L0,3 Z " fill="#44454B" transform="translate(93,10)"/>
<path d="M0,0 L5,1 L7,3 L1,5 Z " fill="#0C090A" transform="translate(114,8)"/>
<path d="M0,0 L2,0 L3,5 L-4,5 L-4,3 L0,3 Z " fill="#0A080E" transform="translate(79,79)"/>
<path d="M0,0 L5,0 L5,3 L0,4 Z " fill="#626C72" transform="translate(104,69)"/>
<path d="M0,0 L6,1 L6,4 L1,4 Z " fill="#4B4E54" transform="translate(66,65)"/>
<path d="M0,0 L2,3 L6,5 L3,6 L2,8 L-1,5 Z " fill="#1B1E29" transform="translate(133,57)"/>
<path d="M0,0 L2,1 L2,3 L6,4 L2,6 L-1,5 Z " fill="#2E3134" transform="translate(65,40)"/>
<path d="M0,0 L2,0 L1,5 L-3,6 L-3,1 Z " fill="#2E3235" transform="translate(32,39)"/>
<path d="M0,0 L6,0 L10,3 L3,3 Z " fill="#0F1217" transform="translate(101,12)"/>
<path d="M0,0 L1,4 L4,3 L6,5 L5,7 L0,7 Z " fill="#3B4245" transform="translate(34,6)"/>
<path d="M0,0 L4,0 L2,5 L-1,5 L-2,1 Z " fill="#453E47" transform="translate(71,9)"/>
<path d="M0,0 L6,0 L6,2 L3,4 L0,4 Z " fill="#161A21" transform="translate(0,74)"/>
<path d="M0,0 L9,2 L7,3 L7,5 L4,5 L4,3 L0,1 Z " fill="#15171B" transform="translate(39,58)"/>
<path d="M0,0 L3,1 L3,3 L1,4 L0,7 L-3,6 L-1,5 Z " fill="#12191E" transform="translate(78,50)"/>
<path d="M0,0 L5,3 L3,5 L-2,4 Z " fill="#04060A" transform="translate(103,47)"/>
<path d="M0,0 L5,4 L5,6 L-1,7 L-1,1 Z " fill="#2C3439" transform="translate(58,33)"/>
<path d="M0,0 Z M-1,1 L0,1 L-1,11 L-3,7 L-3,3 L-1,3 Z " fill="#11171F" transform="translate(13,32)"/>
<path d="M0,0 L2,2 L1,4 L3,4 L4,2 L3,7 L0,7 Z " fill="#09090C" transform="translate(111,30)"/>
<path d="M0,0 L5,0 L3,5 L2,3 L-5,2 L-5,1 Z " fill="#1C1F26" transform="translate(139,22)"/>
<path d="M0,0 L3,0 L2,5 L-2,4 Z " fill="#050508" transform="translate(92,16)"/>
<path d="M0,0 L2,0 L3,7 L0,8 Z " fill="#4C4D50" transform="translate(0,4)"/>
<path d="M0,0 L3,0 L2,4 L-4,4 L-4,2 L0,2 Z " fill="#000002" transform="translate(126,80)"/>
<path d="M0,0 L6,1 L5,6 L2,5 L2,3 L-1,1 Z " fill="#51585F" transform="translate(82,71)"/>
<path d="M0,0 L5,0 L1,3 L-4,5 L-4,2 Z " fill="#6C666E" transform="translate(138,66)"/>
<path d="M0,0 L3,0 L3,4 L-3,4 Z " fill="#05050B" transform="translate(147,63)"/>
<path d="M0,0 L5,0 L6,3 L-2,3 L-2,1 Z " fill="#3C3E42" transform="translate(46,62)"/>
<path d="M0,0 L1,2 L4,2 L3,5 L-2,5 L-2,2 L0,2 Z " fill="#3B3D41" transform="translate(115,57)"/>
<path d="M0,0 L4,1 L6,3 L3,5 L3,3 L-2,3 L0,2 Z " fill="#16171C" transform="translate(97,53)"/>
<path d="M0,0 L3,0 L1,5 L-2,5 L-2,1 Z " fill="#46464A" transform="translate(25,39)"/>
<path d="M0,0 L8,1 L7,6 L5,5 L5,2 L0,2 Z " fill="#34393F" transform="translate(46,34)"/>
<path d="M0,0 L1,4 L-3,6 L-5,1 Z " fill="#453E46" transform="translate(119,26)"/>
<path d="M0,0 L7,5 L6,7 L3,6 L3,4 L0,3 Z " fill="#40363A" transform="translate(109,2)"/>
<path d="M0,0 L8,1 L4,4 L0,4 Z " fill="#594E54" transform="translate(0,80)"/>
<path d="M0,0 L2,3 L-2,4 L-2,6 L-5,5 L-5,3 L0,2 Z " fill="#272E30" transform="translate(127,75)"/>
<path d="M0,0 L1,0 L1,5 L-3,6 L-2,1 Z " fill="#26272C" transform="translate(106,56)"/>
<path d="M0,0 L3,0 L1,4 L-3,5 L-1,1 Z " fill="#7A7E89" transform="translate(130,56)"/>
<path d="M0,0 L7,0 L7,2 L3,4 L3,2 L0,2 Z " fill="#313942" transform="translate(66,55)"/>
<path d="M0,0 L5,0 L5,4 L0,3 Z " fill="#47434B" transform="translate(21,54)"/>
<path d="M0,0 L1,2 L3,2 L3,7 L0,7 L-1,1 Z " fill="#908A91" transform="translate(144,37)"/>
<path d="M0,0 L5,2 L4,4 L3,6 L0,5 Z " fill="#7E7780" transform="translate(141,34)"/>
<path d="M0,0 L1,2 L3,2 L3,4 L-2,4 L-2,2 L-4,1 Z " fill="#74737A" transform="translate(99,80)"/>
<path d="M0,0 L3,0 L3,3 L-2,3 L-2,5 L-5,4 L-3,4 L-3,2 L0,2 Z " fill="#685F66" transform="translate(147,68)"/>
<path d="M0,0 L6,1 L7,3 L1,3 Z " fill="#3C3A40" transform="translate(37,69)"/>
<path d="M0,0 L6,0 L7,3 L3,4 Z " fill="#333A3E" transform="translate(51,62)"/>
<path d="M0,0 L5,0 L4,5 L2,5 Z " fill="#080A0F" transform="translate(127,48)"/>
<path d="M0,0 L3,0 L3,6 L0,5 Z " fill="#23242A" transform="translate(0,43)"/>
<path d="M0,0 L2,0 L2,6 L-1,5 Z " fill="#938B95" transform="translate(132,34)"/>
<path d="M0,0 L3,1 L2,7 L0,8 Z " fill="#0E060C" transform="translate(124,34)"/>
<path d="M0,0 L2,0 L2,3 L-4,4 L-3,1 Z " fill="#7F858E" transform="translate(13,24)"/>
<path d="M0,0 L3,0 L3,2 L5,2 L5,4 L-1,3 Z " fill="#63676C" transform="translate(104,23)"/>
<path d="M0,0 L4,0 L4,2 L7,1 L7,3 L0,3 Z " fill="#2C3240" transform="translate(56,18)"/>
<path d="M0,0 L3,1 L3,5 L-1,4 L-2,2 L0,2 Z " fill="#7A6F74" transform="translate(147,8)"/>
<path d="M0,0 L7,1 L7,3 L2,3 Z " fill="#988F96" transform="translate(133,2)"/>
<path d="M0,0 L6,0 L6,3 L0,2 Z " fill="#696169" transform="translate(144,2)"/>
<path d="M0,0 L8,0 L7,2 L2,4 L2,1 Z " fill="#6A696C" transform="translate(10,0)"/>
<path d="M0,0 L5,0 L5,2 L-1,4 Z " fill="#83797F" transform="translate(145,71)"/>
<path d="M0,0 L3,0 L3,2 L5,2 L5,4 L0,3 Z " fill="#0B0A0D" transform="translate(116,67)"/>
<path d="M0,0 L1,4 L0,5 L-6,5 L-4,3 L-1,2 Z " fill="#080B16" transform="translate(57,51)"/>
<path d="M0,0 L3,1 L0,5 L-2,5 L-3,2 Z M-4,3 Z " fill="#030609" transform="translate(39,44)"/>
<path d="M0,0 L3,0 L3,7 L2,4 L0,4 Z " fill="#403740" transform="translate(128,32)"/>
<path d="M0,0 L4,2 L4,5 L0,3 Z " fill="#080A11" transform="translate(122,21)"/>
<path d="M0,0 L4,1 L5,4 L0,3 Z " fill="#878990" transform="translate(114,19)"/>
<path d="M0,0 L6,1 L7,4 L2,3 L0,2 Z " fill="#777079" transform="translate(74,6)"/>
<path d="M0,0 L6,0 L7,3 L2,3 L2,1 Z " fill="#25282C" transform="translate(47,64)"/>
<path d="M0,0 L3,0 L4,3 L0,5 L-1,3 Z " fill="#414045" transform="translate(3,63)"/>
<path d="M0,0 L5,2 L1,4 L-2,4 Z " fill="#2B3033" transform="translate(94,63)"/>
<path d="M0,0 L3,1 L2,4 L-2,4 L-2,2 L0,2 Z " fill="#14141A" transform="translate(126,55)"/>
<path d="M0,0 L4,0 L4,5 L3,3 L0,3 Z " fill="#635B63" transform="translate(11,55)"/>
<path d="M0,0 L4,1 L5,4 L2,4 L2,2 L-1,1 Z " fill="#1D2228" transform="translate(44,41)"/>
<path d="M0,0 L1,0 L0,7 L-1,5 L-3,4 Z " fill="#23222A" transform="translate(139,36)"/>
<path d="M0,0 L2,2 L0,6 L-3,1 Z " fill="#42464C" transform="translate(113,15)"/>
<path d="M0,0 L5,0 L3,1 L3,4 L0,4 Z " fill="#7A7B81" transform="translate(11,15)"/>
<path d="M0,0 L2,0 L3,4 L-1,5 Z " fill="#141619" transform="translate(40,10)"/>
<path d="M0,0 L3,0 L4,4 L0,4 Z " fill="#63676D" transform="translate(99,7)"/>
<path d="M0,0 L5,0 L2,3 L-2,2 Z " fill="#000004" transform="translate(78,0)"/>
<path d="M0,0 L4,0 L4,3 L-1,3 Z " fill="#4A454C" transform="translate(52,74)"/>
<path d="M0,0 L2,4 L-2,4 Z " fill="#0D1418" transform="translate(93,67)"/>
<path d="M0,0 L4,2 L-1,3 L-4,1 Z " fill="#1F1F23" transform="translate(79,63)"/>
<path d="M0,0 L2,0 L0,4 L-3,5 L-1,1 Z " fill="#646069" transform="translate(124,60)"/>
<path d="M0,0 L4,1 L4,4 L0,3 Z " fill="#0C0810" transform="translate(0,48)"/>
<path d="M0,0 L2,0 L3,6 L2,4 L-1,4 Z " fill="#25272B" transform="translate(108,46)"/>
<path d="M0,0 L7,1 L4,3 L1,3 Z " fill="#2B2E34" transform="translate(71,45)"/>
<path d="M0,0 L4,1 L2,5 L0,4 Z " fill="#26272C" transform="translate(53,43)"/>
<path d="M0,0 L5,0 L4,3 L0,2 Z " fill="#44484C" transform="translate(36,40)"/>
<path d="M0,0 L5,0 L6,2 L0,3 Z " fill="#120C12" transform="translate(129,40)"/>
<path d="M0,0 L3,1 L1,5 L-2,2 Z " fill="#32373C" transform="translate(7,38)"/>
<path d="M0,0 L4,1 L3,5 L3,3 L0,3 Z " fill="#312D36" transform="translate(77,4)"/>
<path d="M0,0 L4,1 L4,3 L0,4 Z " fill="#858791" transform="translate(103,0)"/>
<path d="M0,0 L3,0 L3,3 L-3,3 L0,2 Z " fill="#343A3E" transform="translate(119,81)"/>
<path d="M0,0 L2,1 L2,4 L-2,4 Z " fill="#84959D" transform="translate(140,80)"/>
<path d="M0,0 L5,5 L0,5 Z " fill="#07060C" transform="translate(19,79)"/>
<path d="M0,0 L2,0 L2,2 L4,3 L-2,4 Z " fill="#484E54" transform="translate(102,75)"/>
<path d="M0,0 L4,1 L1,4 L-2,3 L0,3 Z " fill="#23272B" transform="translate(121,72)"/>
<path d="M0,0 L4,0 L4,3 L0,3 Z " fill="#01010B" transform="translate(26,72)"/>
<path d="M0,0 L2,1 L1,5 L-3,3 L0,2 Z " fill="#5F6065" transform="translate(7,64)"/>
<path d="M0,0 L2,2 L-2,5 L-5,3 L0,2 Z " fill="#4C4E56" transform="translate(145,62)"/>
<path d="M0,0 L1,2 L5,3 L3,3 L3,5 L0,4 Z " fill="#382D35" transform="translate(15,56)"/>
<path d="M0,0 L1,3 L3,4 L-2,4 L-2,1 Z " fill="#0E070F" transform="translate(18,54)"/>
<path d="M0,0 L5,1 L5,3 L1,4 Z " fill="#66666B" transform="translate(39,51)"/>
<path d="M0,0 L1,2 L3,2 L1,6 L-1,4 Z " fill="#28202A" transform="translate(14,50)"/>
<path d="M0,0 L1,0 L1,6 L-2,7 Z " fill="#7E8187" transform="translate(119,45)"/>
<path d="M0,0 L2,0 L3,4 L1,4 L0,6 Z " fill="#0A0A0D" transform="translate(27,45)"/>
<path d="M0,0 L2,4 L-1,7 L-1,1 Z " fill="#413D44" transform="translate(127,40)"/>
<path d="M0,0 L5,0 L5,2 L1,3 Z " fill="#283033" transform="translate(91,40)"/>
<path d="M0,0 L4,1 L3,5 L2,3 L0,4 Z " fill="#47454E" transform="translate(137,34)"/>
<path d="M0,0 L5,1 L4,3 L0,2 Z " fill="#262928" transform="translate(35,37)"/>
<path d="M0,0 L3,0 L2,4 L-1,3 Z " fill="#8A848C" transform="translate(146,27)"/>
<path d="M0,0 L3,0 L3,4 L0,4 Z " fill="#040203" transform="translate(3,25)"/>
<path d="M0,0 L2,0 L0,6 L-1,2 L-3,1 Z " fill="#2A292F" transform="translate(7,23)"/>
<path d="M0,0 L5,1 L3,5 L0,2 Z " fill="#212326" transform="translate(95,20)"/>
<path d="M0,0 L5,0 L6,2 L4,4 L4,2 L-1,2 Z " fill="#5E5F67" transform="translate(116,22)"/>
<path d="M0,0 L4,2 L-2,4 L-2,1 Z " fill="#262E30" transform="translate(35,12)"/>
<path d="M0,0 L4,0 L3,4 L0,1 Z " fill="#61656A" transform="translate(99,79)"/>
<path d="M0,0 L3,1 L3,4 L0,5 Z " fill="#313540" transform="translate(26,79)"/>
<path d="M0,0 L2,0 L2,4 L-3,3 L0,2 Z " fill="#84949D" transform="translate(148,75)"/>
<path d="M0,0 L6,1 L2,3 L0,2 Z " fill="#6B7077" transform="translate(75,75)"/>
<path d="M0,0 L6,0 L6,3 L0,1 Z " fill="#656067" transform="translate(18,59)"/>
<path d="M0,0 L5,1 L3,3 L0,2 Z " fill="#242B38" transform="translate(134,58)"/>
<path d="M0,0 L4,2 L0,4 Z " fill="#34373B" transform="translate(78,56)"/>
<path d="M0,0 L2,0 L1,3 L-4,2 Z " fill="#1A1C20" transform="translate(106,51)"/>
<path d="M0,0 L4,4 L-1,5 Z " fill="#1D2124" transform="translate(35,40)"/>
<path d="M0,0 L4,0 L3,3 L0,3 Z " fill="#454047" transform="translate(114,36)"/>
<path d="M0,0 L3,3 L-2,4 L-2,2 L0,2 Z " fill="#282C30" transform="translate(103,36)"/>
<path d="M0,0 L4,1 L3,3 L1,4 L-1,2 Z " fill="#697179" transform="translate(137,24)"/>
<path d="M0,0 L4,0 L4,3 L0,2 Z " fill="#363642" transform="translate(50,25)"/>
<path d="M0,0 L4,1 L4,4 L0,2 Z " fill="#101214" transform="translate(89,22)"/>
<path d="M0,0 L4,2 L3,3 L-2,3 Z " fill="#0E1216" transform="translate(19,19)"/>
<path d="M0,0 L3,0 L3,3 L-2,3 L0,2 Z " fill="#4B4449" transform="translate(142,16)"/>
<path d="M0,0 L4,1 L4,3 L0,3 Z " fill="#202126" transform="translate(87,16)"/>
<path d="M0,0 L2,0 L2,5 L-1,6 Z " fill="#40404B" transform="translate(61,14)"/>
<path d="M0,0 L3,1 L3,3 L-2,4 L-2,2 L0,2 Z " fill="#5B5154" transform="translate(123,6)"/>
<path d="M0,0 L5,0 L4,3 L0,2 Z " fill="#110B12" transform="translate(65,8)"/>
<path d="M0,0 L2,0 L1,5 L-1,5 Z " fill="#61606A" transform="translate(61,0)"/>
<path d="M0,0 L2,0 L1,4 L-2,4 L-2,2 L0,2 Z " fill="#A4A4A8" transform="translate(10,1)"/>
<path d="M0,0 L3,0 L3,4 L1,4 Z " fill="#2B292C" transform="translate(130,80)"/>
<path d="M0,0 L3,1 L3,4 L1,4 L1,2 L-1,1 Z " fill="#46474E" transform="translate(65,75)"/>
<path d="M0,0 L2,3 L0,3 L-1,5 L-1,1 Z " fill="#25191F" transform="translate(4,56)"/>
<path d="M0,0 L2,0 L3,4 L0,4 Z " fill="#363C40" transform="translate(85,52)"/>
<path d="M0,0 L4,0 L3,5 L0,1 Z " fill="#303032" transform="translate(10,43)"/>
<path d="M0,0 L1,4 L-3,3 Z " fill="#0C0D14" transform="translate(96,29)"/>
<path d="M0,0 L3,0 L3,3 L-1,2 Z " fill="#050916" transform="translate(60,22)"/>
<path d="M0,0 L4,1 L3,4 L0,2 Z " fill="#182025" transform="translate(128,19)"/>
<path d="M0,0 L4,2 L4,3 L-1,3 Z " fill="#020608" transform="translate(83,19)"/>
<path d="M0,0 L4,1 L4,3 L0,2 Z " fill="#5F6469" transform="translate(119,14)"/>
<path d="M0,0 L2,2 L-3,4 L-4,2 Z " fill="#272328" transform="translate(121,10)"/>
<path d="M0,0 L4,1 L4,3 L0,3 Z " fill="#62656D" transform="translate(55,1)"/>
<path d="M0,0 L4,1 L0,3 L-3,1 Z " fill="#59545C" transform="translate(27,0)"/>
<path d="M0,0 L4,2 L0,3 Z " fill="#3B3B44" transform="translate(39,78)"/>
<path d="M0,0 L3,1 L1,3 L-2,2 Z " fill="#0A0E14" transform="translate(91,77)"/>
<path d="M0,0 L3,0 L3,2 L-1,3 Z " fill="#313336" transform="translate(84,63)"/>
<path d="M0,0 L5,1 L5,3 L0,1 Z " fill="#47494D" transform="translate(47,62)"/>
<path d="M0,0 L4,1 L3,4 L3,2 L0,3 Z " fill="#2E2D36" transform="translate(123,58)"/>
<path d="M0,0 L2,1 L0,5 L-1,1 Z " fill="#4B4F52" transform="translate(30,44)"/>
<path d="M0,0 L2,0 L2,3 L-1,4 Z " fill="#57545B" transform="translate(132,31)"/>
<path d="M0,0 L4,0 L3,3 L0,2 Z " fill="#424147" transform="translate(5,29)"/>
<path d="M0,0 L3,0 L3,2 L-1,3 Z " fill="#020305" transform="translate(18,25)"/>
<path d="M0,0 L3,0 L3,3 L0,3 Z " fill="#44484D" transform="translate(78,14)"/>
<path d="M0,0 L4,4 L-1,2 Z " fill="#5E6167" transform="translate(114,12)"/>
<path d="M0,0 L3,0 L3,3 L0,3 Z " fill="#060D0C" transform="translate(29,8)"/>
<path d="M0,0 L3,0 L3,2 L-1,3 Z " fill="#7A7D7F" transform="translate(3,7)"/>
<path d="M0,0 L5,1 L4,3 L0,1 Z " fill="#1E171D" transform="translate(141,3)"/>
<path d="M0,0 L3,0 L2,3 L0,3 Z " fill="#606669" transform="translate(110,67)"/>
<path d="M0,0 L4,1 L4,3 L0,1 Z " fill="#33343F" transform="translate(23,66)"/>
<path d="M0,0 L2,1 L2,3 L-2,2 Z " fill="#1D232C" transform="translate(9,36)"/>
<path d="M0,0 L3,1 L3,3 L-1,1 Z " fill="#272B2E" transform="translate(60,36)"/>
<path d="M0,0 L3,0 L2,3 L0,3 Z " fill="#424341" transform="translate(42,34)"/>
<path d="M0,0 L3,0 L3,3 L0,2 Z " fill="#B3B1B9" transform="translate(141,32)"/>
<path d="M0,0 L2,0 L2,3 L-1,3 Z " fill="#1A1E27" transform="translate(10,28)"/>
<path d="M0,0 L3,0 L2,3 L0,3 Z " fill="#54585B" transform="translate(39,5)"/>
<path d="M0,0 L3,1 L3,3 L0,3 Z " fill="#282B2C" transform="translate(3,3)"/>
<path d="M0,0 L2,0 L2,3 L-1,2 Z " fill="#272930" transform="translate(77,79)"/>
<path d="M0,0 L2,0 L1,3 L-1,3 Z " fill="#646469" transform="translate(132,72)"/>
<path d="M0,0 L2,0 L1,3 L-1,3 Z " fill="#06050A" transform="translate(120,61)"/>
<path d="M0,0 L3,1 L0,3 Z " fill="#252632" transform="translate(128,53)"/>
<path d="M0,0 L2,0 L2,3 L-1,2 Z " fill="#52575C" transform="translate(75,43)"/>
<path d="M0,0 L3,2 L-1,3 Z " fill="#1F1E25" transform="translate(116,38)"/>
<path d="M0,0 L2,0 L1,3 L-1,3 Z " fill="#A099A2" transform="translate(132,34)"/>
<path d="M0,0 L2,0 L1,3 L-1,3 Z " fill="#08060B" transform="translate(118,24)"/>
<path d="M0,0 L3,1 L0,3 Z " fill="#13161C" transform="translate(122,21)"/>
<path d="M0,0 L2,0 L1,3 L-1,3 Z " fill="#19181D" transform="translate(99,15)"/>
<path d="M0,0 L3,1 L1,4 Z " fill="#A39A9D" transform="translate(124,3)"/>
<path d="M0,0 L2,2 L-1,3 Z " fill="#514D55" transform="translate(122,62)"/>
<path d="M0,0 L2,2 L-1,2 Z " fill="#635862" transform="translate(120,27)"/>
</svg>
