<?xml version="1.0" encoding="UTF-8"?>
<svg xmlns="http://www.w3.org/2000/svg" viewBox="0 0 230 320" width="30" height="30">
  <style>rect{shape-rendering:crispEdges}</style>
  <g fill="#320017">
    <rect x="130" y="0" width="10" height="10"/>
    <rect x="120" y="10" width="40" height="10"/>
    <rect x="120" y="20" width="40" height="10"/>
    <rect x="100" y="30" width="60" height="10"/>
    <rect x="70" y="40" width="90" height="10"/>
    <rect x="70" y="50" width="90" height="10"/>
    <rect x="40" y="60" width="100" height="10"/>
    <rect x="30" y="70" width="100" height="10"/>
    <rect x="30" y="80" width="100" height="10"/>
    <rect x="40" y="90" width="70" height="10"/>
    <rect x="140" y="100" width="30" height="10"/>
    <rect x="140" y="110" width="30" height="10"/>
    <rect x="140" y="120" width="50" height="10"/>
    <rect x="160" y="130" width="40" height="10"/>
    <rect x="170" y="140" width="30" height="10"/>
    <rect x="170" y="150" width="30" height="10"/>
    <rect x="190" y="160" width="20" height="10"/>
    <rect x="190" y="170" width="20" height="10"/>
    <rect x="190" y="180" width="20" height="10"/>
    <rect x="70" y="190" width="20" height="10"/>
    <rect x="200" y="190" width="30" height="10"/>
    <rect x="60" y="200" width="40" height="10"/>
    <rect x="200" y="200" width="30" height="10"/>
    <rect x="60" y="210" width="40" height="10"/>
    <rect x="200" y="210" width="30" height="10"/>
    <rect x="70" y="220" width="20" height="10"/>
    <rect x="200" y="220" width="30" height="10"/>
    <rect x="200" y="230" width="30" height="10"/>
    <rect x="200" y="240" width="30" height="10"/>
    <rect x="200" y="250" width="30" height="10"/>
    <rect x="200" y="260" width="30" height="10"/>
    <rect x="200" y="270" width="30" height="10"/>
    <rect x="190" y="280" width="40" height="10"/>
    <rect x="170" y="290" width="40" height="10"/>
    <rect x="170" y="300" width="40" height="10"/>
    <rect x="40" y="310" width="160" height="10"/>
  </g>
  <g fill="#320015">
    <rect x="110" y="10" width="10" height="10"/>
    <rect x="110" y="20" width="10" height="10"/>
  </g>
  <rect fill="#1f2c32" x="110" y="90" width="10" height="10"/>
  <g fill="#007760">
    <rect x="120" y="90" width="20" height="10"/>
    <rect x="90" y="100" width="50" height="10"/>
    <rect x="90" y="110" width="50" height="10"/>
    <rect x="90" y="120" width="40" height="10"/>
    <rect x="90" y="130" width="10" height="10"/>
    <rect x="120" y="130" width="10" height="10"/>
    <rect x="90" y="140" width="10" height="10"/>
    <rect x="120" y="140" width="10" height="10"/>
    <rect x="90" y="150" width="10" height="10"/>
    <rect x="120" y="150" width="10" height="10"/>
    <rect x="120" y="160" width="10" height="10"/>
  </g>
  <g fill="#755408">
    <rect x="130" y="120" width="10" height="10"/>
    <rect x="70" y="130" width="20" height="10"/>
    <rect x="100" y="130" width="10" height="10"/>
    <rect x="130" y="130" width="30" height="10"/>
    <rect x="70" y="140" width="20" height="10"/>
    <rect x="100" y="140" width="10" height="10"/>
    <rect x="130" y="140" width="30" height="10"/>
    <rect x="60" y="150" width="30" height="10"/>
    <rect x="100" y="150" width="10" height="10"/>
    <rect x="130" y="150" width="40" height="10"/>
    <rect x="40" y="160" width="70" height="10"/>
    <rect x="130" y="160" width="60" height="10"/>
    <rect x="30" y="170" width="80" height="10"/>
    <rect x="130" y="170" width="60" height="10"/>
    <rect x="30" y="180" width="160" height="10"/>
    <rect x="20" y="190" width="50" height="10"/>
    <rect x="90" y="190" width="110" height="10"/>
    <rect x="20" y="200" width="40" height="10"/>
    <rect x="100" y="200" width="100" height="10"/>
    <rect x="20" y="210" width="40" height="10"/>
    <rect x="100" y="210" width="100" height="10"/>
    <rect x="0" y="220" width="70" height="10"/>
    <rect x="90" y="220" width="110" height="10"/>
    <rect x="0" y="230" width="200" height="10"/>
    <rect x="0" y="240" width="200" height="10"/>
    <rect x="0" y="250" width="200" height="10"/>
    <rect x="0" y="260" width="200" height="10"/>
    <rect x="0" y="270" width="200" height="10"/>
    <rect x="0" y="280" width="190" height="10"/>
    <rect x="20" y="290" width="150" height="10"/>
    <rect x="20" y="300" width="150" height="10"/>
  </g>
  <g fill="#496129">
    <rect x="110" y="130" width="10" height="10"/>
    <rect x="110" y="140" width="10" height="10"/>
    <rect x="110" y="150" width="10" height="10"/>
    <rect x="110" y="160" width="10" height="10"/>
  </g>
  <g fill="#735408">
    <rect x="60" y="140" width="10" height="10"/>
    <rect x="10" y="190" width="10" height="10"/>
    <rect x="10" y="200" width="10" height="10"/>
    <rect x="10" y="210" width="10" height="10"/>
    <rect x="10" y="290" width="10" height="10"/>
    <rect x="10" y="300" width="10" height="10"/>
  </g>
  <rect fill="#421513" x="160" y="140" width="10" height="10"/>
  <g fill="#300018">
    <rect x="210" y="160" width="10" height="10"/>
    <rect x="210" y="170" width="10" height="10"/>
    <rect x="210" y="180" width="10" height="10"/>
    <rect x="210" y="290" width="10" height="10"/>
    <rect x="210" y="300" width="10" height="10"/>
  </g>
  <rect fill="#665813" x="110" y="170" width="10" height="10"/>
  <rect fill="#585d1e" x="120" y="170" width="10" height="10"/>
</svg>
