<?xml version="1.0" encoding="UTF-8"?>
<svg xmlns="http://www.w3.org/2000/svg" viewBox="0 0 320 320" width="120" height="120">
  <style>rect{shape-rendering:crispEdges}</style>
  <g fill="#e5d151">
    <rect x="120" y="0" width="70" height="10"/>
    <rect x="120" y="20" width="10" height="10"/>
    <rect x="120" y="40" width="10" height="10"/>
    <rect x="190" y="50" width="10" height="10"/>
    <rect x="210" y="110" width="10" height="10"/>
    <rect x="100" y="120" width="10" height="10"/>
    <rect x="180" y="150" width="10" height="10"/>
    <rect x="140" y="160" width="10" height="10"/>
    <rect x="100" y="240" width="10" height="10"/>
    <rect x="210" y="250" width="10" height="10"/>
  </g>
  <g fill="#bdaf32">
    <rect x="190" y="0" width="10" height="10"/>
    <rect x="210" y="120" width="10" height="10"/>
    <rect x="120" y="150" width="10" height="10"/>
    <rect x="210" y="240" width="10" height="10"/>
    <rect x="90" y="260" width="10" height="10"/>
    <rect x="90" y="270" width="10" height="10"/>
    <rect x="100" y="280" width="10" height="10"/>
    <rect x="110" y="290" width="10" height="10"/>
    <rect x="190" y="290" width="10" height="10"/>
  </g>
  <g fill="#f8e15d">
    <rect x="90" y="10" width="10" height="10"/>
    <rect x="220" y="40" width="10" height="10"/>
    <rect x="110" y="60" width="10" height="10"/>
    <rect x="120" y="290" width="10" height="10"/>
    <rect x="130" y="300" width="60" height="10"/>
  </g>
  <g fill="#f7e056">
    <rect x="100" y="10" width="20" height="10"/>
    <rect x="200" y="10" width="20" height="10"/>
    <rect x="90" y="40" width="10" height="10"/>
  </g>
  <g fill="#fae356">
    <rect x="120" y="10" width="10" height="10"/>
    <rect x="190" y="10" width="10" height="10"/>
    <rect x="90" y="20" width="30" height="10"/>
    <rect x="200" y="20" width="20" height="10"/>
    <rect x="90" y="30" width="10" height="10"/>
    <rect x="210" y="30" width="10" height="10"/>
    <rect x="100" y="40" width="20" height="10"/>
    <rect x="200" y="40" width="20" height="10"/>
  </g>
  <g fill="#fce459">
    <rect x="130" y="10" width="10" height="10"/>
    <rect x="180" y="10" width="10" height="10"/>
    <rect x="190" y="20" width="10" height="10"/>
    <rect x="220" y="20" width="10" height="10"/>
    <rect x="100" y="30" width="10" height="10"/>
    <rect x="220" y="30" width="10" height="10"/>
    <rect x="190" y="40" width="10" height="10"/>
    <rect x="120" y="50" width="10" height="10"/>
  </g>
  <g fill="#fce576">
    <rect x="140" y="10" width="40" height="10"/>
    <rect x="140" y="50" width="30" height="10"/>
  </g>
  <g fill="#fde67a">
    <rect x="100" y="50" width="20" height="10"/>
    <rect x="200" y="50" width="20" height="10"/>
    <rect x="200" y="60" width="10" height="10"/>
    <rect x="210" y="70" width="10" height="10"/>
    <rect x="20" y="190" width="10" height="10"/>
    <rect x="210" y="210" width="10" height="10"/>
    <rect x="210" y="230" width="10" height="10"/>
  </g>
  <g fill="#fbe465">
    <rect x="130" y="50" width="10" height="10"/>
    <rect x="170" y="50" width="20" height="10"/>
  </g>
  <g fill="#c5b53a">
    <rect x="120" y="60" width="10" height="10"/>
    <rect x="110" y="70" width="10" height="10"/>
    <rect x="100" y="90" width="10" height="10"/>
    <rect x="100" y="100" width="10" height="10"/>
    <rect x="100" y="110" width="10" height="10"/>
    <rect x="200" y="120" width="10" height="10"/>
    <rect x="200" y="130" width="10" height="10"/>
    <rect x="130" y="150" width="20" height="10"/>
    <rect x="170" y="150" width="10" height="10"/>
    <rect x="200" y="240" width="10" height="10"/>
    <rect x="100" y="250" width="10" height="10"/>
    <rect x="120" y="280" width="10" height="10"/>
    <rect x="190" y="280" width="10" height="10"/>
    <rect x="130" y="290" width="60" height="10"/>
  </g>
  <g fill="#cabb44">
    <rect x="130" y="60" width="60" height="10"/>
    <rect x="120" y="180" width="10" height="10"/>
    <rect x="200" y="230" width="10" height="10"/>
  </g>
  <rect fill="#d0bf41" x="190" y="60" width="10" height="10"/>
  <g fill="#d2ccb2">
    <rect x="100" y="70" width="10" height="10"/>
    <rect x="280" y="130" width="10" height="10"/>
    <rect x="0" y="190" width="10" height="10"/>
    <rect x="40" y="190" width="10" height="10"/>
    <rect x="310" y="190" width="10" height="10"/>
    <rect x="300" y="200" width="10" height="10"/>
  </g>
  <g fill="#bcae31">
    <rect x="120" y="70" width="80" height="10"/>
    <rect x="120" y="80" width="80" height="10"/>
    <rect x="110" y="90" width="100" height="10"/>
    <rect x="110" y="100" width="100" height="10"/>
    <rect x="110" y="110" width="100" height="10"/>
    <rect x="110" y="120" width="90" height="10"/>
    <rect x="110" y="130" width="90" height="10"/>
    <rect x="110" y="140" width="90" height="10"/>
    <rect x="150" y="150" width="20" height="10"/>
    <rect x="150" y="160" width="20" height="10"/>
    <rect x="130" y="170" width="60" height="10"/>
    <rect x="130" y="180" width="60" height="10"/>
    <rect x="130" y="190" width="60" height="10"/>
    <rect x="130" y="200" width="60" height="10"/>
    <rect x="110" y="210" width="90" height="10"/>
    <rect x="120" y="220" width="80" height="10"/>
    <rect x="110" y="230" width="90" height="10"/>
    <rect x="110" y="240" width="90" height="10"/>
    <rect x="110" y="250" width="100" height="10"/>
    <rect x="100" y="260" width="110" height="10"/>
    <rect x="100" y="270" width="120" height="10"/>
    <rect x="110" y="280" width="10" height="10"/>
    <rect x="130" y="280" width="60" height="10"/>
  </g>
  <rect fill="#d3c766" x="200" y="70" width="10" height="10"/>
  <g fill="#e7e2ca">
    <rect x="100" y="80" width="10" height="10"/>
    <rect x="50" y="140" width="10" height="10"/>
    <rect x="240" y="140" width="10" height="10"/>
    <rect x="50" y="150" width="10" height="10"/>
    <rect x="100" y="210" width="10" height="10"/>
    <rect x="100" y="220" width="10" height="10"/>
  </g>
  <g fill="#c0b135">
    <rect x="110" y="80" width="10" height="10"/>
    <rect x="110" y="220" width="10" height="10"/>
    <rect x="210" y="260" width="10" height="10"/>
  </g>
  <g fill="#d4c970">
    <rect x="200" y="80" width="10" height="10"/>
    <rect x="210" y="90" width="10" height="10"/>
    <rect x="210" y="100" width="10" height="10"/>
    <rect x="190" y="180" width="10" height="10"/>
    <rect x="200" y="210" width="10" height="10"/>
    <rect x="200" y="220" width="10" height="10"/>
  </g>
  <g fill="#f9f5e0">
    <rect x="210" y="80" width="10" height="10"/>
    <rect x="270" y="110" width="10" height="10"/>
    <rect x="30" y="120" width="10" height="10"/>
    <rect x="80" y="120" width="10" height="10"/>
    <rect x="220" y="140" width="10" height="10"/>
    <rect x="20" y="150" width="10" height="10"/>
    <rect x="200" y="190" width="10" height="10"/>
    <rect x="270" y="190" width="10" height="10"/>
    <rect x="290" y="190" width="10" height="10"/>
    <rect x="10" y="200" width="10" height="10"/>
    <rect x="40" y="200" width="10" height="10"/>
    <rect x="200" y="200" width="10" height="10"/>
    <rect x="210" y="220" width="10" height="10"/>
  </g>
  <g fill="#fefae6">
    <rect x="90" y="90" width="10" height="10"/>
    <rect x="40" y="110" width="10" height="10"/>
    <rect x="70" y="110" width="10" height="10"/>
    <rect x="240" y="110" width="10" height="10"/>
    <rect x="40" y="120" width="40" height="10"/>
    <rect x="230" y="120" width="50" height="10"/>
    <rect x="30" y="130" width="60" height="10"/>
    <rect x="240" y="130" width="40" height="10"/>
    <rect x="30" y="140" width="10" height="10"/>
    <rect x="60" y="140" width="10" height="10"/>
    <rect x="250" y="140" width="10" height="10"/>
    <rect x="270" y="140" width="10" height="10"/>
    <rect x="30" y="150" width="10" height="10"/>
    <rect x="280" y="150" width="10" height="10"/>
    <rect x="30" y="160" width="10" height="10"/>
    <rect x="90" y="160" width="10" height="10"/>
    <rect x="280" y="160" width="10" height="10"/>
    <rect x="50" y="170" width="20" height="10"/>
    <rect x="250" y="170" width="10" height="10"/>
    <rect x="50" y="180" width="10" height="10"/>
    <rect x="260" y="180" width="10" height="10"/>
  </g>
  <rect fill="#ede7c9" x="90" y="100" width="10" height="10"/>
  <g fill="#fffde9">
    <rect x="50" y="110" width="20" height="10"/>
    <rect x="250" y="110" width="20" height="10"/>
    <rect x="40" y="140" width="10" height="10"/>
    <rect x="80" y="140" width="10" height="10"/>
    <rect x="230" y="140" width="10" height="10"/>
    <rect x="280" y="140" width="10" height="10"/>
    <rect x="90" y="150" width="10" height="10"/>
    <rect x="220" y="150" width="10" height="10"/>
    <rect x="20" y="160" width="10" height="10"/>
    <rect x="100" y="160" width="10" height="10"/>
    <rect x="210" y="160" width="10" height="10"/>
    <rect x="290" y="160" width="10" height="10"/>
    <rect x="20" y="170" width="10" height="10"/>
    <rect x="290" y="170" width="10" height="10"/>
    <rect x="20" y="180" width="10" height="10"/>
    <rect x="80" y="180" width="10" height="10"/>
    <rect x="230" y="180" width="10" height="10"/>
    <rect x="290" y="180" width="10" height="10"/>
    <rect x="90" y="190" width="10" height="10"/>
  </g>
  <g fill="#ddcd66">
    <rect x="90" y="110" width="10" height="10"/>
    <rect x="90" y="250" width="10" height="10"/>
  </g>
  <g fill="#d7c653">
    <rect x="100" y="130" width="10" height="10"/>
    <rect x="190" y="190" width="10" height="10"/>
  </g>
  <g fill="#f7f2dc">
    <rect x="230" y="130" width="10" height="10"/>
    <rect x="30" y="170" width="10" height="10"/>
    <rect x="110" y="180" width="10" height="10"/>
  </g>
  <g fill="#e8e3cc">
    <rect x="70" y="140" width="10" height="10"/>
    <rect x="260" y="150" width="10" height="10"/>
    <rect x="50" y="160" width="20" height="10"/>
    <rect x="250" y="160" width="30" height="10"/>
    <rect x="80" y="170" width="30" height="10"/>
    <rect x="210" y="170" width="10" height="10"/>
    <rect x="230" y="170" width="10" height="10"/>
    <rect x="10" y="180" width="10" height="10"/>
    <rect x="60" y="180" width="10" height="10"/>
    <rect x="200" y="180" width="10" height="10"/>
    <rect x="250" y="180" width="10" height="10"/>
    <rect x="270" y="180" width="20" height="10"/>
    <rect x="300" y="180" width="10" height="10"/>
    <rect x="50" y="190" width="10" height="10"/>
    <rect x="220" y="190" width="10" height="10"/>
    <rect x="260" y="190" width="10" height="10"/>
  </g>
  <rect fill="#e7d252" x="200" y="140" width="10" height="10"/>
  <g fill="#e3dec6">
    <rect x="260" y="140" width="10" height="10"/>
    <rect x="60" y="150" width="10" height="10"/>
    <rect x="250" y="150" width="10" height="10"/>
    <rect x="40" y="160" width="10" height="10"/>
    <rect x="220" y="170" width="10" height="10"/>
    <rect x="270" y="170" width="10" height="10"/>
    <rect x="90" y="180" width="10" height="10"/>
    <rect x="10" y="190" width="10" height="10"/>
    <rect x="300" y="190" width="10" height="10"/>
  </g>
  <g fill="#fbf7e3">
    <rect x="40" y="150" width="10" height="10"/>
    <rect x="80" y="150" width="10" height="10"/>
    <rect x="270" y="150" width="10" height="10"/>
    <rect x="260" y="170" width="10" height="10"/>
    <rect x="110" y="190" width="10" height="10"/>
  </g>
  <g fill="#cac4a8">
    <rect x="70" y="150" width="10" height="10"/>
    <rect x="240" y="150" width="10" height="10"/>
    <rect x="70" y="160" width="10" height="10"/>
    <rect x="240" y="160" width="10" height="10"/>
    <rect x="70" y="170" width="10" height="10"/>
    <rect x="110" y="170" width="10" height="10"/>
    <rect x="240" y="170" width="10" height="10"/>
    <rect x="100" y="180" width="10" height="10"/>
    <rect x="60" y="190" width="10" height="10"/>
    <rect x="0" y="200" width="10" height="10"/>
    <rect x="50" y="200" width="10" height="10"/>
    <rect x="260" y="200" width="10" height="10"/>
    <rect x="310" y="200" width="10" height="10"/>
  </g>
  <rect fill="#f6df55" x="190" y="150" width="10" height="10"/>
  <g fill="#f9f4de">
    <rect x="230" y="150" width="10" height="10"/>
    <rect x="220" y="160" width="10" height="10"/>
    <rect x="280" y="170" width="10" height="10"/>
    <rect x="40" y="180" width="10" height="10"/>
    <rect x="220" y="180" width="10" height="10"/>
    <rect x="110" y="200" width="10" height="10"/>
  </g>
  <g fill="#dbd5bc">
    <rect x="80" y="160" width="10" height="10"/>
    <rect x="40" y="170" width="10" height="10"/>
    <rect x="30" y="180" width="10" height="10"/>
    <rect x="250" y="190" width="10" height="10"/>
  </g>
  <g fill="#f4de6e">
    <rect x="130" y="160" width="10" height="10"/>
    <rect x="170" y="160" width="20" height="10"/>
  </g>
  <g fill="#d6d0b6">
    <rect x="230" y="160" width="10" height="10"/>
    <rect x="200" y="170" width="10" height="10"/>
    <rect x="210" y="180" width="10" height="10"/>
  </g>
  <g fill="#f4eab7">
    <rect x="120" y="170" width="10" height="10"/>
    <rect x="190" y="170" width="10" height="10"/>
  </g>
  <g fill="#bbad2f">
    <rect x="120" y="190" width="10" height="10"/>
    <rect x="120" y="200" width="10" height="10"/>
  </g>
  <g fill="#c0b339">
    <rect x="190" y="200" width="10" height="10"/>
    <rect x="200" y="280" width="10" height="10"/>
  </g>
  <rect fill="#cabe68" x="270" y="200" width="10" height="10"/>
  <rect fill="#fde572" x="100" y="230" width="10" height="10"/>
</svg>
