<?xml version="1.0" encoding="UTF-8"?>
<svg xmlns="http://www.w3.org/2000/svg" viewBox="0 0 320 320" width="120" height="120">
  <style>rect{shape-rendering:crispEdges}</style>
  <g fill="#1f1c1d">
    <rect x="50" y="0" width="160" height="10"/>
    <rect x="30" y="90" width="20" height="10"/>
    <rect x="220" y="90" width="10" height="10"/>
    <rect x="30" y="100" width="20" height="10"/>
    <rect x="220" y="100" width="10" height="10"/>
    <rect x="30" y="110" width="20" height="10"/>
    <rect x="30" y="120" width="40" height="10"/>
    <rect x="100" y="120" width="110" height="10"/>
    <rect x="30" y="130" width="20" height="10"/>
    <rect x="170" y="130" width="10" height="10"/>
    <rect x="230" y="130" width="10" height="10"/>
    <rect x="30" y="140" width="20" height="10"/>
    <rect x="170" y="140" width="10" height="10"/>
    <rect x="220" y="140" width="10" height="10"/>
    <rect x="30" y="150" width="20" height="10"/>
    <rect x="170" y="150" width="10" height="10"/>
    <rect x="220" y="150" width="10" height="10"/>
    <rect x="30" y="160" width="20" height="10"/>
    <rect x="170" y="160" width="10" height="10"/>
    <rect x="220" y="160" width="10" height="10"/>
    <rect x="30" y="170" width="20" height="10"/>
    <rect x="170" y="170" width="10" height="10"/>
    <rect x="220" y="170" width="10" height="10"/>
    <rect x="30" y="180" width="20" height="10"/>
    <rect x="170" y="180" width="10" height="10"/>
    <rect x="220" y="180" width="10" height="10"/>
    <rect x="30" y="190" width="20" height="10"/>
    <rect x="170" y="190" width="10" height="10"/>
    <rect x="220" y="190" width="10" height="10"/>
    <rect x="30" y="200" width="20" height="10"/>
    <rect x="170" y="200" width="10" height="10"/>
    <rect x="220" y="200" width="10" height="10"/>
    <rect x="30" y="210" width="20" height="10"/>
    <rect x="170" y="210" width="10" height="10"/>
    <rect x="220" y="210" width="10" height="10"/>
    <rect x="30" y="220" width="20" height="10"/>
    <rect x="170" y="220" width="10" height="10"/>
    <rect x="230" y="220" width="10" height="10"/>
    <rect x="30" y="230" width="40" height="10"/>
    <rect x="100" y="230" width="110" height="10"/>
    <rect x="30" y="240" width="20" height="10"/>
    <rect x="30" y="250" width="20" height="10"/>
    <rect x="220" y="250" width="10" height="10"/>
    <rect x="40" y="260" width="10" height="10"/>
    <rect x="220" y="260" width="10" height="10"/>
    <rect x="50" y="280" width="160" height="10"/>
    <rect x="50" y="290" width="160" height="10"/>
    <rect x="50" y="300" width="160" height="10"/>
    <rect x="50" y="310" width="160" height="10"/>
  </g>
  <g fill="#221d1f">
    <rect x="50" y="10" width="20" height="10"/>
    <rect x="100" y="10" width="110" height="10"/>
    <rect x="50" y="110" width="20" height="10"/>
    <rect x="100" y="110" width="110" height="10"/>
    <rect x="30" y="260" width="10" height="10"/>
    <rect x="60" y="270" width="10" height="10"/>
  </g>
  <rect fill="#27221c" x="70" y="10" width="30" height="10"/>
  <g fill="#8a002e">
    <rect x="50" y="20" width="20" height="10"/>
    <rect x="100" y="20" width="110" height="10"/>
    <rect x="50" y="30" width="20" height="10"/>
    <rect x="100" y="30" width="110" height="10"/>
    <rect x="50" y="40" width="160" height="10"/>
    <rect x="50" y="50" width="160" height="10"/>
    <rect x="50" y="60" width="160" height="10"/>
    <rect x="50" y="70" width="160" height="10"/>
    <rect x="220" y="110" width="10" height="10"/>
    <rect x="220" y="120" width="30" height="10"/>
    <rect x="260" y="140" width="20" height="10"/>
    <rect x="260" y="150" width="20" height="10"/>
    <rect x="260" y="160" width="20" height="10"/>
    <rect x="260" y="170" width="20" height="10"/>
    <rect x="260" y="180" width="20" height="10"/>
    <rect x="260" y="190" width="20" height="10"/>
    <rect x="260" y="200" width="20" height="10"/>
    <rect x="260" y="210" width="20" height="10"/>
    <rect x="260" y="220" width="20" height="10"/>
    <rect x="220" y="230" width="30" height="10"/>
    <rect x="250" y="240" width="10" height="10"/>
  </g>
  <g fill="#ac6e0c">
    <rect x="70" y="20" width="10" height="10"/>
    <rect x="90" y="20" width="10" height="10"/>
    <rect x="70" y="30" width="10" height="10"/>
    <rect x="90" y="30" width="10" height="10"/>
  </g>
  <g fill="#c89c00">
    <rect x="80" y="20" width="10" height="10"/>
    <rect x="80" y="30" width="10" height="10"/>
  </g>
  <rect fill="#8d113b" x="50" y="80" width="160" height="10"/>
  <g fill="#a8a8a8">
    <rect x="50" y="90" width="10" height="10"/>
    <rect x="200" y="90" width="10" height="10"/>
    <rect x="50" y="100" width="20" height="10"/>
    <rect x="130" y="100" width="80" height="10"/>
    <rect x="50" y="140" width="10" height="10"/>
    <rect x="200" y="140" width="10" height="10"/>
    <rect x="50" y="150" width="10" height="10"/>
    <rect x="200" y="150" width="10" height="10"/>
    <rect x="50" y="160" width="10" height="10"/>
    <rect x="200" y="160" width="10" height="10"/>
    <rect x="50" y="170" width="10" height="10"/>
    <rect x="200" y="170" width="10" height="10"/>
    <rect x="50" y="180" width="10" height="10"/>
    <rect x="200" y="180" width="10" height="10"/>
    <rect x="50" y="190" width="10" height="10"/>
    <rect x="200" y="190" width="10" height="10"/>
    <rect x="50" y="200" width="10" height="10"/>
    <rect x="200" y="200" width="10" height="10"/>
    <rect x="50" y="210" width="10" height="10"/>
    <rect x="200" y="210" width="10" height="10"/>
    <rect x="50" y="250" width="20" height="10"/>
    <rect x="130" y="250" width="80" height="10"/>
    <rect x="50" y="260" width="20" height="10"/>
    <rect x="120" y="260" width="90" height="10"/>
  </g>
  <g fill="#a7a7a8">
    <rect x="60" y="90" width="10" height="10"/>
    <rect x="130" y="90" width="70" height="10"/>
    <rect x="120" y="100" width="10" height="10"/>
    <rect x="70" y="130" width="10" height="10"/>
    <rect x="190" y="140" width="10" height="10"/>
    <rect x="190" y="150" width="10" height="10"/>
    <rect x="190" y="160" width="10" height="10"/>
    <rect x="190" y="170" width="10" height="10"/>
    <rect x="190" y="180" width="10" height="10"/>
    <rect x="190" y="190" width="10" height="10"/>
    <rect x="190" y="200" width="10" height="10"/>
    <rect x="190" y="210" width="10" height="10"/>
    <rect x="80" y="240" width="10" height="10"/>
    <rect x="120" y="250" width="10" height="10"/>
  </g>
  <g fill="#b2adc5">
    <rect x="70" y="90" width="10" height="10"/>
    <rect x="70" y="100" width="10" height="10"/>
    <rect x="80" y="130" width="10" height="10"/>
    <rect x="70" y="140" width="10" height="10"/>
    <rect x="70" y="150" width="10" height="10"/>
    <rect x="70" y="160" width="10" height="10"/>
    <rect x="70" y="170" width="10" height="10"/>
    <rect x="70" y="180" width="10" height="10"/>
    <rect x="70" y="190" width="10" height="10"/>
    <rect x="70" y="200" width="10" height="10"/>
    <rect x="70" y="210" width="10" height="10"/>
    <rect x="70" y="250" width="10" height="10"/>
    <rect x="70" y="260" width="10" height="10"/>
  </g>
  <g fill="#b7b0cf">
    <rect x="80" y="90" width="40" height="10"/>
    <rect x="90" y="100" width="10" height="10"/>
    <rect x="90" y="250" width="10" height="10"/>
  </g>
  <g fill="#a6a6a6">
    <rect x="120" y="90" width="10" height="10"/>
    <rect x="80" y="110" width="10" height="10"/>
    <rect x="80" y="120" width="10" height="10"/>
    <rect x="60" y="140" width="10" height="10"/>
    <rect x="120" y="140" width="40" height="10"/>
    <rect x="60" y="150" width="10" height="10"/>
    <rect x="120" y="150" width="40" height="10"/>
    <rect x="60" y="160" width="10" height="10"/>
    <rect x="120" y="160" width="40" height="10"/>
    <rect x="60" y="170" width="10" height="10"/>
    <rect x="120" y="170" width="40" height="10"/>
    <rect x="60" y="180" width="10" height="10"/>
    <rect x="120" y="180" width="40" height="10"/>
    <rect x="60" y="190" width="10" height="10"/>
    <rect x="120" y="190" width="40" height="10"/>
    <rect x="60" y="200" width="10" height="10"/>
    <rect x="120" y="200" width="40" height="10"/>
    <rect x="60" y="210" width="10" height="10"/>
    <rect x="120" y="210" width="40" height="10"/>
    <rect x="80" y="230" width="10" height="10"/>
  </g>
  <g fill="#232122">
    <rect x="210" y="90" width="10" height="10"/>
    <rect x="210" y="100" width="10" height="10"/>
    <rect x="180" y="130" width="10" height="10"/>
    <rect x="210" y="140" width="10" height="10"/>
    <rect x="210" y="150" width="10" height="10"/>
    <rect x="210" y="160" width="10" height="10"/>
    <rect x="210" y="170" width="10" height="10"/>
    <rect x="210" y="180" width="10" height="10"/>
    <rect x="210" y="190" width="10" height="10"/>
    <rect x="210" y="200" width="10" height="10"/>
    <rect x="210" y="210" width="10" height="10"/>
    <rect x="180" y="220" width="10" height="10"/>
    <rect x="210" y="250" width="10" height="10"/>
    <rect x="210" y="260" width="10" height="10"/>
    <rect x="50" y="270" width="10" height="10"/>
    <rect x="70" y="270" width="140" height="10"/>
  </g>
  <g fill="#b6afce">
    <rect x="80" y="100" width="10" height="10"/>
    <rect x="80" y="140" width="40" height="10"/>
    <rect x="80" y="150" width="40" height="10"/>
    <rect x="80" y="160" width="40" height="10"/>
    <rect x="80" y="170" width="40" height="10"/>
    <rect x="80" y="180" width="40" height="10"/>
    <rect x="80" y="190" width="40" height="10"/>
    <rect x="80" y="200" width="40" height="10"/>
    <rect x="80" y="210" width="40" height="10"/>
    <rect x="80" y="250" width="10" height="10"/>
  </g>
  <g fill="#b8b1d0">
    <rect x="100" y="100" width="20" height="10"/>
    <rect x="100" y="250" width="20" height="10"/>
    <rect x="80" y="260" width="40" height="10"/>
  </g>
  <g fill="#878687">
    <rect x="70" y="110" width="10" height="10"/>
    <rect x="70" y="120" width="10" height="10"/>
    <rect x="70" y="230" width="10" height="10"/>
    <rect x="90" y="240" width="10" height="10"/>
  </g>
  <g fill="#7c7b7b">
    <rect x="90" y="110" width="10" height="10"/>
    <rect x="90" y="120" width="10" height="10"/>
    <rect x="50" y="130" width="20" height="10"/>
    <rect x="120" y="130" width="40" height="10"/>
    <rect x="190" y="130" width="20" height="10"/>
    <rect x="90" y="230" width="10" height="10"/>
  </g>
  <g fill="#87032d">
    <rect x="210" y="110" width="10" height="10"/>
    <rect x="230" y="110" width="20" height="10"/>
    <rect x="210" y="120" width="10" height="10"/>
    <rect x="210" y="230" width="10" height="10"/>
    <rect x="220" y="240" width="10" height="10"/>
  </g>
  <g fill="#86022d">
    <rect x="250" y="110" width="10" height="10"/>
    <rect x="250" y="120" width="10" height="10"/>
    <rect x="250" y="230" width="10" height="10"/>
  </g>
  <rect fill="#ad96b3" x="90" y="130" width="10" height="10"/>
  <rect fill="#847f90" x="100" y="130" width="20" height="10"/>
  <g fill="#676566">
    <rect x="160" y="130" width="10" height="10"/>
    <rect x="50" y="220" width="20" height="10"/>
    <rect x="120" y="220" width="40" height="10"/>
    <rect x="190" y="220" width="20" height="10"/>
  </g>
  <g fill="#471324">
    <rect x="210" y="130" width="20" height="10"/>
    <rect x="210" y="220" width="20" height="10"/>
  </g>
  <rect fill="#80052d" x="260" y="130" width="20" height="10"/>
  <g fill="#807f7f">
    <rect x="160" y="140" width="10" height="10"/>
    <rect x="160" y="150" width="10" height="10"/>
    <rect x="160" y="160" width="10" height="10"/>
    <rect x="160" y="170" width="10" height="10"/>
    <rect x="160" y="180" width="10" height="10"/>
    <rect x="160" y="190" width="10" height="10"/>
    <rect x="160" y="200" width="10" height="10"/>
    <rect x="160" y="210" width="10" height="10"/>
  </g>
  <g fill="#292628">
    <rect x="180" y="140" width="10" height="10"/>
    <rect x="180" y="150" width="10" height="10"/>
    <rect x="180" y="160" width="10" height="10"/>
    <rect x="180" y="170" width="10" height="10"/>
    <rect x="180" y="180" width="10" height="10"/>
    <rect x="180" y="190" width="10" height="10"/>
    <rect x="180" y="200" width="10" height="10"/>
    <rect x="180" y="210" width="10" height="10"/>
    <rect x="50" y="240" width="20" height="10"/>
    <rect x="100" y="240" width="110" height="10"/>
  </g>
  <g fill="#948ea5">
    <rect x="70" y="220" width="10" height="10"/>
    <rect x="90" y="220" width="10" height="10"/>
  </g>
  <rect fill="#ada9b8" x="80" y="220" width="10" height="10"/>
  <rect fill="#6f6974" x="100" y="220" width="20" height="10"/>
  <rect fill="#5a5356" x="160" y="220" width="10" height="10"/>
  <rect fill="#8e8d91" x="70" y="240" width="10" height="10"/>
  <rect fill="#6e0729" x="210" y="240" width="10" height="10"/>
  <rect fill="#8b032d" x="230" y="240" width="20" height="10"/>
</svg>
