<?xml version="1.0" encoding="UTF-8"?>
<svg xmlns="http://www.w3.org/2000/svg" viewBox="0 0 300 320" width="120" height="128">
  <style>rect{shape-rendering:crispEdges}</style>
  <g fill="#ffd400">
    <rect x="0" y="0" width="130" height="10"/>
    <rect x="190" y="0" width="110" height="10"/>
    <rect x="0" y="10" width="90" height="10"/>
    <rect x="210" y="10" width="90" height="10"/>
    <rect x="0" y="20" width="80" height="10"/>
    <rect x="220" y="20" width="80" height="10"/>
    <rect x="0" y="30" width="70" height="10"/>
    <rect x="230" y="30" width="70" height="10"/>
    <rect x="0" y="40" width="70" height="10"/>
    <rect x="230" y="40" width="70" height="10"/>
    <rect x="0" y="50" width="70" height="10"/>
    <rect x="240" y="50" width="60" height="10"/>
    <rect x="0" y="60" width="70" height="10"/>
    <rect x="240" y="60" width="60" height="10"/>
    <rect x="0" y="70" width="60" height="10"/>
    <rect x="240" y="70" width="60" height="10"/>
    <rect x="0" y="80" width="40" height="10"/>
    <rect x="260" y="80" width="40" height="10"/>
    <rect x="0" y="90" width="60" height="10"/>
    <rect x="240" y="90" width="60" height="10"/>
    <rect x="0" y="100" width="70" height="10"/>
    <rect x="230" y="100" width="70" height="10"/>
    <rect x="0" y="110" width="70" height="10"/>
    <rect x="230" y="110" width="70" height="10"/>
    <rect x="0" y="120" width="60" height="10"/>
    <rect x="230" y="120" width="70" height="10"/>
    <rect x="0" y="130" width="60" height="10"/>
    <rect x="240" y="130" width="60" height="10"/>
    <rect x="0" y="140" width="40" height="10"/>
    <rect x="260" y="140" width="40" height="10"/>
    <rect x="0" y="150" width="40" height="10"/>
    <rect x="260" y="150" width="40" height="10"/>
    <rect x="0" y="160" width="30" height="10"/>
    <rect x="270" y="160" width="30" height="10"/>
    <rect x="0" y="170" width="20" height="10"/>
    <rect x="280" y="170" width="20" height="10"/>
    <rect x="0" y="180" width="20" height="10"/>
    <rect x="280" y="180" width="20" height="10"/>
    <rect x="0" y="190" width="10" height="10"/>
    <rect x="280" y="190" width="20" height="10"/>
    <rect x="0" y="200" width="10" height="10"/>
    <rect x="280" y="200" width="20" height="10"/>
    <rect x="0" y="210" width="10" height="10"/>
    <rect x="290" y="210" width="10" height="10"/>
    <rect x="290" y="220" width="10" height="10"/>
  </g>
  <g fill="#03070a">
    <rect x="130" y="0" width="20" height="10"/>
    <rect x="170" y="0" width="10" height="10"/>
    <rect x="90" y="10" width="10" height="10"/>
    <rect x="190" y="10" width="20" height="10"/>
    <rect x="80" y="20" width="10" height="10"/>
    <rect x="200" y="20" width="20" height="10"/>
    <rect x="70" y="30" width="10" height="10"/>
    <rect x="70" y="40" width="10" height="10"/>
    <rect x="70" y="50" width="10" height="10"/>
    <rect x="220" y="50" width="10" height="10"/>
    <rect x="70" y="60" width="10" height="10"/>
    <rect x="60" y="70" width="20" height="10"/>
    <rect x="120" y="70" width="10" height="10"/>
    <rect x="40" y="80" width="10" height="10"/>
    <rect x="180" y="80" width="10" height="10"/>
    <rect x="200" y="80" width="10" height="10"/>
    <rect x="240" y="80" width="20" height="10"/>
    <rect x="210" y="220" width="10" height="10"/>
    <rect x="100" y="230" width="10" height="10"/>
    <rect x="200" y="230" width="10" height="10"/>
    <rect x="130" y="310" width="10" height="10"/>
  </g>
  <g fill="#04070a">
    <rect x="150" y="0" width="20" height="10"/>
    <rect x="180" y="0" width="10" height="10"/>
    <rect x="210" y="30" width="10" height="10"/>
    <rect x="220" y="60" width="10" height="10"/>
    <rect x="80" y="70" width="10" height="10"/>
    <rect x="100" y="70" width="20" height="10"/>
    <rect x="130" y="70" width="20" height="10"/>
    <rect x="220" y="70" width="10" height="10"/>
    <rect x="160" y="80" width="20" height="10"/>
    <rect x="220" y="80" width="10" height="10"/>
    <rect x="90" y="110" width="10" height="10"/>
    <rect x="170" y="110" width="10" height="10"/>
    <rect x="230" y="130" width="10" height="10"/>
    <rect x="50" y="140" width="10" height="10"/>
    <rect x="240" y="140" width="10" height="10"/>
    <rect x="250" y="150" width="10" height="10"/>
    <rect x="30" y="160" width="10" height="10"/>
    <rect x="20" y="170" width="10" height="10"/>
    <rect x="20" y="180" width="10" height="10"/>
    <rect x="270" y="180" width="10" height="10"/>
    <rect x="270" y="210" width="10" height="10"/>
    <rect x="110" y="250" width="10" height="10"/>
    <rect x="160" y="260" width="10" height="10"/>
  </g>
  <g fill="#090a0f">
    <rect x="100" y="10" width="90" height="10"/>
    <rect x="90" y="20" width="110" height="10"/>
    <rect x="80" y="30" width="10" height="10"/>
    <rect x="120" y="30" width="10" height="10"/>
    <rect x="160" y="30" width="20" height="10"/>
    <rect x="190" y="30" width="10" height="10"/>
    <rect x="80" y="40" width="10" height="10"/>
    <rect x="170" y="40" width="10" height="10"/>
    <rect x="80" y="50" width="10" height="10"/>
    <rect x="120" y="50" width="10" height="10"/>
    <rect x="140" y="50" width="10" height="10"/>
    <rect x="170" y="50" width="10" height="10"/>
    <rect x="80" y="60" width="10" height="10"/>
    <rect x="110" y="60" width="10" height="10"/>
    <rect x="160" y="60" width="10" height="10"/>
  </g>
  <g fill="#100e10">
    <rect x="90" y="30" width="10" height="10"/>
    <rect x="90" y="40" width="20" height="10"/>
    <rect x="90" y="50" width="10" height="10"/>
    <rect x="90" y="60" width="10" height="10"/>
    <rect x="70" y="110" width="10" height="10"/>
    <rect x="130" y="110" width="10" height="10"/>
    <rect x="70" y="120" width="10" height="10"/>
    <rect x="150" y="130" width="10" height="10"/>
    <rect x="130" y="160" width="10" height="10"/>
    <rect x="120" y="250" width="10" height="10"/>
    <rect x="170" y="250" width="10" height="10"/>
  </g>
  <g fill="#764a21">
    <rect x="100" y="30" width="10" height="10"/>
    <rect x="130" y="30" width="10" height="10"/>
    <rect x="150" y="30" width="10" height="10"/>
    <rect x="180" y="30" width="10" height="10"/>
    <rect x="220" y="30" width="10" height="10"/>
    <rect x="110" y="40" width="10" height="10"/>
    <rect x="160" y="40" width="10" height="10"/>
    <rect x="180" y="40" width="20" height="10"/>
    <rect x="110" y="50" width="10" height="10"/>
    <rect x="160" y="50" width="10" height="10"/>
    <rect x="180" y="50" width="20" height="10"/>
    <rect x="100" y="60" width="10" height="10"/>
    <rect x="130" y="60" width="10" height="10"/>
    <rect x="150" y="60" width="10" height="10"/>
    <rect x="180" y="60" width="20" height="10"/>
    <rect x="110" y="110" width="20" height="10"/>
    <rect x="140" y="110" width="20" height="10"/>
    <rect x="200" y="110" width="10" height="10"/>
    <rect x="40" y="140" width="10" height="10"/>
    <rect x="270" y="170" width="10" height="10"/>
    <rect x="100" y="220" width="10" height="10"/>
    <rect x="200" y="220" width="10" height="10"/>
    <rect x="170" y="230" width="10" height="10"/>
    <rect x="110" y="240" width="20" height="10"/>
    <rect x="150" y="250" width="10" height="10"/>
  </g>
  <g fill="#090b0f">
    <rect x="110" y="30" width="10" height="10"/>
    <rect x="120" y="60" width="10" height="10"/>
    <rect x="50" y="170" width="10" height="10"/>
    <rect x="250" y="180" width="10" height="10"/>
    <rect x="50" y="190" width="10" height="10"/>
    <rect x="260" y="190" width="10" height="10"/>
    <rect x="40" y="200" width="20" height="10"/>
    <rect x="230" y="200" width="10" height="10"/>
    <rect x="250" y="200" width="10" height="10"/>
    <rect x="70" y="220" width="10" height="10"/>
    <rect x="240" y="220" width="10" height="10"/>
  </g>
  <g fill="#070a0e">
    <rect x="140" y="30" width="10" height="10"/>
    <rect x="120" y="40" width="40" height="10"/>
    <rect x="100" y="50" width="10" height="10"/>
    <rect x="130" y="50" width="10" height="10"/>
    <rect x="150" y="50" width="10" height="10"/>
    <rect x="140" y="60" width="10" height="10"/>
    <rect x="100" y="80" width="10" height="10"/>
    <rect x="250" y="170" width="10" height="10"/>
    <rect x="30" y="240" width="10" height="10"/>
    <rect x="240" y="250" width="10" height="10"/>
    <rect x="80" y="310" width="10" height="10"/>
  </g>
  <g fill="#04080c">
    <rect x="200" y="30" width="10" height="10"/>
    <rect x="200" y="40" width="20" height="10"/>
    <rect x="210" y="50" width="10" height="10"/>
    <rect x="160" y="70" width="10" height="10"/>
    <rect x="180" y="70" width="20" height="10"/>
    <rect x="230" y="140" width="10" height="10"/>
    <rect x="230" y="150" width="10" height="10"/>
    <rect x="140" y="160" width="20" height="10"/>
    <rect x="170" y="160" width="10" height="10"/>
    <rect x="240" y="160" width="20" height="10"/>
    <rect x="230" y="170" width="20" height="10"/>
    <rect x="80" y="210" width="10" height="10"/>
  </g>
  <g fill="#381719">
    <rect x="220" y="40" width="10" height="10"/>
    <rect x="80" y="110" width="10" height="10"/>
    <rect x="80" y="120" width="20" height="10"/>
    <rect x="70" y="130" width="30" height="10"/>
    <rect x="110" y="130" width="10" height="10"/>
    <rect x="220" y="130" width="10" height="10"/>
    <rect x="70" y="140" width="10" height="10"/>
    <rect x="110" y="140" width="40" height="10"/>
    <rect x="170" y="140" width="30" height="10"/>
    <rect x="250" y="140" width="10" height="10"/>
    <rect x="70" y="150" width="10" height="10"/>
    <rect x="70" y="170" width="10" height="10"/>
    <rect x="220" y="170" width="10" height="10"/>
    <rect x="80" y="180" width="10" height="10"/>
    <rect x="90" y="190" width="10" height="10"/>
    <rect x="210" y="190" width="10" height="10"/>
    <rect x="80" y="200" width="10" height="10"/>
    <rect x="100" y="200" width="10" height="10"/>
    <rect x="100" y="210" width="10" height="10"/>
    <rect x="200" y="210" width="20" height="10"/>
    <rect x="90" y="220" width="10" height="10"/>
    <rect x="190" y="220" width="10" height="10"/>
    <rect x="120" y="230" width="10" height="10"/>
    <rect x="190" y="230" width="10" height="10"/>
    <rect x="130" y="240" width="20" height="10"/>
    <rect x="160" y="240" width="10" height="10"/>
    <rect x="180" y="240" width="10" height="10"/>
    <rect x="130" y="250" width="20" height="10"/>
    <rect x="160" y="250" width="10" height="10"/>
  </g>
  <g fill="#04090d">
    <rect x="200" y="50" width="10" height="10"/>
    <rect x="170" y="60" width="10" height="10"/>
    <rect x="200" y="60" width="20" height="10"/>
    <rect x="170" y="70" width="10" height="10"/>
    <rect x="200" y="70" width="20" height="10"/>
    <rect x="60" y="140" width="10" height="10"/>
    <rect x="50" y="150" width="20" height="10"/>
    <rect x="240" y="150" width="10" height="10"/>
    <rect x="40" y="160" width="30" height="10"/>
    <rect x="60" y="170" width="10" height="10"/>
    <rect x="60" y="180" width="10" height="10"/>
    <rect x="240" y="180" width="10" height="10"/>
    <rect x="20" y="200" width="10" height="10"/>
    <rect x="20" y="210" width="10" height="10"/>
    <rect x="40" y="210" width="10" height="10"/>
    <rect x="270" y="260" width="10" height="10"/>
  </g>
  <g fill="#04080b">
    <rect x="230" y="50" width="10" height="10"/>
    <rect x="230" y="60" width="10" height="10"/>
    <rect x="230" y="70" width="10" height="10"/>
    <rect x="50" y="80" width="10" height="10"/>
    <rect x="190" y="80" width="10" height="10"/>
    <rect x="210" y="80" width="10" height="10"/>
    <rect x="230" y="80" width="10" height="10"/>
    <rect x="70" y="90" width="170" height="10"/>
    <rect x="70" y="100" width="160" height="10"/>
    <rect x="100" y="110" width="10" height="10"/>
    <rect x="180" y="110" width="10" height="10"/>
    <rect x="220" y="120" width="10" height="10"/>
    <rect x="100" y="130" width="10" height="10"/>
    <rect x="160" y="130" width="10" height="10"/>
    <rect x="210" y="130" width="10" height="10"/>
    <rect x="160" y="160" width="10" height="10"/>
    <rect x="30" y="170" width="10" height="10"/>
    <rect x="30" y="180" width="10" height="10"/>
    <rect x="70" y="180" width="10" height="10"/>
    <rect x="20" y="190" width="10" height="10"/>
    <rect x="70" y="190" width="10" height="10"/>
    <rect x="230" y="190" width="10" height="10"/>
    <rect x="30" y="200" width="10" height="10"/>
    <rect x="220" y="200" width="10" height="10"/>
    <rect x="270" y="200" width="10" height="10"/>
    <rect x="30" y="210" width="10" height="10"/>
    <rect x="220" y="210" width="10" height="10"/>
    <rect x="280" y="210" width="10" height="10"/>
    <rect x="0" y="220" width="10" height="10"/>
    <rect x="80" y="220" width="10" height="10"/>
    <rect x="270" y="220" width="10" height="10"/>
    <rect x="0" y="230" width="10" height="10"/>
    <rect x="40" y="230" width="10" height="10"/>
    <rect x="90" y="230" width="10" height="10"/>
    <rect x="260" y="230" width="10" height="10"/>
    <rect x="0" y="240" width="10" height="10"/>
    <rect x="40" y="240" width="10" height="10"/>
    <rect x="100" y="240" width="10" height="10"/>
    <rect x="50" y="250" width="10" height="10"/>
    <rect x="100" y="250" width="10" height="10"/>
    <rect x="180" y="250" width="20" height="10"/>
    <rect x="290" y="250" width="10" height="10"/>
    <rect x="90" y="260" width="10" height="10"/>
    <rect x="110" y="260" width="20" height="10"/>
    <rect x="250" y="260" width="10" height="10"/>
    <rect x="120" y="270" width="10" height="10"/>
    <rect x="190" y="270" width="10" height="10"/>
    <rect x="240" y="270" width="10" height="10"/>
    <rect x="130" y="280" width="20" height="10"/>
    <rect x="160" y="280" width="10" height="10"/>
    <rect x="140" y="290" width="10" height="10"/>
    <rect x="50" y="300" width="20" height="10"/>
    <rect x="140" y="300" width="20" height="10"/>
    <rect x="170" y="300" width="10" height="10"/>
    <rect x="230" y="300" width="20" height="10"/>
    <rect x="50" y="310" width="20" height="10"/>
    <rect x="200" y="310" width="10" height="10"/>
    <rect x="230" y="310" width="20" height="10"/>
  </g>
  <g fill="#04080a">
    <rect x="90" y="70" width="10" height="10"/>
    <rect x="150" y="70" width="10" height="10"/>
    <rect x="210" y="110" width="20" height="10"/>
    <rect x="60" y="120" width="10" height="10"/>
    <rect x="100" y="120" width="10" height="10"/>
    <rect x="210" y="120" width="10" height="10"/>
    <rect x="60" y="130" width="10" height="10"/>
    <rect x="40" y="150" width="10" height="10"/>
    <rect x="230" y="160" width="10" height="10"/>
    <rect x="260" y="160" width="10" height="10"/>
    <rect x="260" y="170" width="10" height="10"/>
    <rect x="260" y="180" width="10" height="10"/>
    <rect x="10" y="190" width="10" height="10"/>
    <rect x="270" y="190" width="10" height="10"/>
    <rect x="220" y="220" width="10" height="10"/>
    <rect x="280" y="220" width="10" height="10"/>
    <rect x="210" y="230" width="20" height="10"/>
    <rect x="290" y="230" width="10" height="10"/>
    <rect x="50" y="240" width="10" height="10"/>
    <rect x="90" y="240" width="10" height="10"/>
    <rect x="190" y="240" width="30" height="10"/>
    <rect x="290" y="240" width="10" height="10"/>
    <rect x="90" y="250" width="10" height="10"/>
    <rect x="200" y="250" width="20" height="10"/>
    <rect x="100" y="260" width="10" height="10"/>
    <rect x="130" y="260" width="20" height="10"/>
    <rect x="180" y="260" width="40" height="10"/>
    <rect x="100" y="270" width="10" height="10"/>
    <rect x="130" y="270" width="50" height="10"/>
    <rect x="200" y="270" width="10" height="10"/>
    <rect x="250" y="270" width="10" height="10"/>
    <rect x="100" y="280" width="10" height="10"/>
    <rect x="150" y="280" width="10" height="10"/>
    <rect x="200" y="280" width="10" height="10"/>
    <rect x="130" y="290" width="10" height="10"/>
    <rect x="150" y="290" width="10" height="10"/>
    <rect x="130" y="300" width="10" height="10"/>
    <rect x="140" y="310" width="20" height="10"/>
  </g>
  <g fill="#06090d">
    <rect x="60" y="80" width="40" height="10"/>
    <rect x="110" y="80" width="50" height="10"/>
    <rect x="80" y="290" width="10" height="10"/>
    <rect x="200" y="290" width="10" height="10"/>
    <rect x="80" y="300" width="10" height="10"/>
    <rect x="90" y="310" width="10" height="10"/>
    <rect x="120" y="310" width="10" height="10"/>
  </g>
  <g fill="#bb9a42">
    <rect x="60" y="90" width="10" height="10"/>
    <rect x="110" y="120" width="100" height="10"/>
    <rect x="120" y="130" width="30" height="10"/>
    <rect x="170" y="130" width="30" height="10"/>
    <rect x="70" y="160" width="10" height="10"/>
    <rect x="90" y="200" width="10" height="10"/>
  </g>
  <g fill="#946c33">
    <rect x="160" y="110" width="10" height="10"/>
    <rect x="190" y="110" width="10" height="10"/>
    <rect x="200" y="130" width="10" height="10"/>
    <rect x="80" y="190" width="10" height="10"/>
    <rect x="220" y="190" width="10" height="10"/>
    <rect x="210" y="200" width="10" height="10"/>
    <rect x="110" y="230" width="10" height="10"/>
    <rect x="180" y="230" width="10" height="10"/>
    <rect x="150" y="240" width="10" height="10"/>
    <rect x="170" y="240" width="10" height="10"/>
  </g>
  <g fill="#6b1d33">
    <rect x="80" y="140" width="20" height="10"/>
    <rect x="150" y="140" width="20" height="10"/>
    <rect x="200" y="140" width="10" height="10"/>
    <rect x="80" y="150" width="10" height="10"/>
    <rect x="80" y="170" width="10" height="10"/>
    <rect x="200" y="200" width="10" height="10"/>
    <rect x="110" y="220" width="30" height="10"/>
    <rect x="150" y="220" width="40" height="10"/>
    <rect x="130" y="230" width="40" height="10"/>
  </g>
  <g fill="#7a2135">
    <rect x="100" y="140" width="10" height="10"/>
    <rect x="220" y="140" width="10" height="10"/>
    <rect x="90" y="150" width="10" height="10"/>
    <rect x="80" y="160" width="10" height="10"/>
    <rect x="120" y="190" width="10" height="10"/>
    <rect x="110" y="200" width="90" height="10"/>
    <rect x="110" y="210" width="90" height="10"/>
    <rect x="140" y="220" width="10" height="10"/>
  </g>
  <g fill="#93243e">
    <rect x="210" y="140" width="10" height="10"/>
    <rect x="100" y="150" width="130" height="10"/>
    <rect x="90" y="160" width="40" height="10"/>
    <rect x="180" y="160" width="50" height="10"/>
    <rect x="90" y="170" width="130" height="10"/>
    <rect x="90" y="180" width="130" height="10"/>
    <rect x="100" y="190" width="20" height="10"/>
    <rect x="130" y="190" width="80" height="10"/>
  </g>
  <g fill="#090b0e">
    <rect x="40" y="170" width="10" height="10"/>
    <rect x="40" y="180" width="20" height="10"/>
    <rect x="60" y="190" width="10" height="10"/>
    <rect x="240" y="190" width="20" height="10"/>
    <rect x="60" y="200" width="10" height="10"/>
    <rect x="240" y="200" width="10" height="10"/>
    <rect x="260" y="200" width="10" height="10"/>
    <rect x="50" y="210" width="20" height="10"/>
    <rect x="230" y="210" width="20" height="10"/>
    <rect x="50" y="220" width="10" height="10"/>
    <rect x="20" y="230" width="10" height="10"/>
    <rect x="70" y="230" width="10" height="10"/>
    <rect x="230" y="230" width="10" height="10"/>
    <rect x="10" y="240" width="10" height="10"/>
    <rect x="60" y="240" width="10" height="10"/>
    <rect x="80" y="240" width="10" height="10"/>
    <rect x="220" y="240" width="20" height="10"/>
    <rect x="20" y="250" width="20" height="10"/>
    <rect x="220" y="250" width="10" height="10"/>
    <rect x="30" y="260" width="10" height="10"/>
    <rect x="30" y="270" width="10" height="10"/>
    <rect x="270" y="270" width="10" height="10"/>
    <rect x="270" y="280" width="20" height="10"/>
    <rect x="280" y="290" width="10" height="10"/>
    <rect x="90" y="300" width="20" height="10"/>
    <rect x="100" y="310" width="10" height="10"/>
  </g>
  <g fill="#8a2e33">
    <rect x="220" y="180" width="10" height="10"/>
    <rect x="90" y="210" width="10" height="10"/>
  </g>
  <g fill="#04090c">
    <rect x="230" y="180" width="10" height="10"/>
    <rect x="10" y="200" width="10" height="10"/>
    <rect x="30" y="220" width="20" height="10"/>
    <rect x="260" y="220" width="10" height="10"/>
    <rect x="80" y="230" width="10" height="10"/>
    <rect x="250" y="240" width="10" height="10"/>
    <rect x="270" y="240" width="10" height="10"/>
    <rect x="50" y="280" width="10" height="10"/>
    <rect x="70" y="280" width="10" height="10"/>
    <rect x="120" y="280" width="10" height="10"/>
    <rect x="190" y="280" width="10" height="10"/>
    <rect x="70" y="290" width="10" height="10"/>
    <rect x="180" y="290" width="10" height="10"/>
    <rect x="210" y="290" width="10" height="10"/>
    <rect x="160" y="310" width="20" height="10"/>
    <rect x="290" y="310" width="10" height="10"/>
  </g>
  <g fill="#04090b">
    <rect x="30" y="190" width="10" height="10"/>
    <rect x="250" y="250" width="10" height="10"/>
    <rect x="60" y="270" width="10" height="10"/>
    <rect x="210" y="270" width="10" height="10"/>
    <rect x="60" y="280" width="10" height="10"/>
    <rect x="210" y="280" width="10" height="10"/>
    <rect x="240" y="280" width="10" height="10"/>
    <rect x="50" y="290" width="10" height="10"/>
    <rect x="100" y="290" width="10" height="10"/>
    <rect x="70" y="300" width="10" height="10"/>
    <rect x="180" y="300" width="10" height="10"/>
    <rect x="200" y="300" width="10" height="10"/>
  </g>
  <g fill="#090c0e">
    <rect x="40" y="190" width="10" height="10"/>
    <rect x="70" y="210" width="10" height="10"/>
    <rect x="250" y="210" width="20" height="10"/>
    <rect x="60" y="220" width="10" height="10"/>
    <rect x="230" y="220" width="10" height="10"/>
    <rect x="10" y="230" width="10" height="10"/>
    <rect x="60" y="230" width="10" height="10"/>
    <rect x="240" y="230" width="20" height="10"/>
    <rect x="20" y="240" width="10" height="10"/>
    <rect x="70" y="240" width="10" height="10"/>
    <rect x="240" y="240" width="10" height="10"/>
    <rect x="10" y="250" width="10" height="10"/>
    <rect x="70" y="250" width="20" height="10"/>
    <rect x="230" y="250" width="10" height="10"/>
    <rect x="10" y="260" width="20" height="10"/>
    <rect x="80" y="260" width="10" height="10"/>
    <rect x="220" y="260" width="20" height="10"/>
    <rect x="10" y="270" width="20" height="10"/>
    <rect x="40" y="270" width="10" height="10"/>
    <rect x="80" y="270" width="20" height="10"/>
    <rect x="220" y="270" width="10" height="10"/>
    <rect x="280" y="270" width="10" height="10"/>
    <rect x="10" y="280" width="40" height="10"/>
    <rect x="90" y="280" width="10" height="10"/>
    <rect x="220" y="280" width="10" height="10"/>
    <rect x="10" y="290" width="40" height="10"/>
    <rect x="90" y="290" width="10" height="10"/>
    <rect x="220" y="290" width="10" height="10"/>
    <rect x="260" y="290" width="20" height="10"/>
    <rect x="220" y="300" width="10" height="10"/>
    <rect x="260" y="300" width="10" height="10"/>
    <rect x="30" y="310" width="10" height="10"/>
    <rect x="220" y="310" width="10" height="10"/>
  </g>
  <g fill="#0c0b0e">
    <rect x="70" y="200" width="10" height="10"/>
    <rect x="190" y="290" width="10" height="10"/>
  </g>
  <g fill="#040a0c">
    <rect x="10" y="210" width="10" height="10"/>
    <rect x="20" y="220" width="10" height="10"/>
    <rect x="30" y="230" width="10" height="10"/>
    <rect x="280" y="230" width="10" height="10"/>
    <rect x="280" y="240" width="10" height="10"/>
    <rect x="0" y="250" width="10" height="10"/>
    <rect x="40" y="250" width="10" height="10"/>
    <rect x="260" y="250" width="30" height="10"/>
    <rect x="0" y="260" width="10" height="10"/>
    <rect x="50" y="260" width="20" height="10"/>
    <rect x="240" y="260" width="10" height="10"/>
    <rect x="260" y="260" width="10" height="10"/>
    <rect x="280" y="260" width="20" height="10"/>
    <rect x="70" y="270" width="10" height="10"/>
    <rect x="180" y="270" width="10" height="10"/>
    <rect x="230" y="270" width="10" height="10"/>
    <rect x="260" y="270" width="10" height="10"/>
    <rect x="290" y="270" width="10" height="10"/>
    <rect x="250" y="280" width="10" height="10"/>
    <rect x="290" y="280" width="10" height="10"/>
    <rect x="120" y="290" width="10" height="10"/>
    <rect x="240" y="290" width="10" height="10"/>
    <rect x="290" y="290" width="10" height="10"/>
    <rect x="120" y="300" width="10" height="10"/>
    <rect x="190" y="300" width="10" height="10"/>
    <rect x="0" y="310" width="10" height="10"/>
    <rect x="110" y="310" width="10" height="10"/>
    <rect x="180" y="310" width="10" height="10"/>
    <rect x="210" y="310" width="10" height="10"/>
    <rect x="280" y="310" width="10" height="10"/>
  </g>
  <g fill="#040a0d">
    <rect x="10" y="220" width="10" height="10"/>
    <rect x="50" y="230" width="10" height="10"/>
    <rect x="270" y="230" width="10" height="10"/>
    <rect x="260" y="240" width="10" height="10"/>
    <rect x="60" y="250" width="10" height="10"/>
    <rect x="110" y="270" width="10" height="10"/>
    <rect x="260" y="280" width="10" height="10"/>
    <rect x="160" y="290" width="10" height="10"/>
    <rect x="160" y="300" width="10" height="10"/>
    <rect x="290" y="300" width="10" height="10"/>
  </g>
  <g fill="#090b0d">
    <rect x="250" y="220" width="10" height="10"/>
    <rect x="150" y="260" width="10" height="10"/>
    <rect x="80" y="280" width="10" height="10"/>
    <rect x="20" y="300" width="30" height="10"/>
    <rect x="270" y="300" width="20" height="10"/>
    <rect x="40" y="310" width="10" height="10"/>
    <rect x="190" y="310" width="10" height="10"/>
    <rect x="260" y="310" width="20" height="10"/>
  </g>
  <g fill="#050b0d">
    <rect x="40" y="260" width="10" height="10"/>
    <rect x="70" y="260" width="10" height="10"/>
    <rect x="0" y="270" width="10" height="10"/>
    <rect x="50" y="270" width="10" height="10"/>
    <rect x="0" y="280" width="10" height="10"/>
    <rect x="110" y="280" width="10" height="10"/>
    <rect x="170" y="280" width="20" height="10"/>
    <rect x="230" y="280" width="10" height="10"/>
    <rect x="0" y="290" width="10" height="10"/>
    <rect x="60" y="290" width="10" height="10"/>
    <rect x="110" y="290" width="10" height="10"/>
    <rect x="170" y="290" width="10" height="10"/>
    <rect x="230" y="290" width="10" height="10"/>
    <rect x="250" y="290" width="10" height="10"/>
    <rect x="0" y="300" width="20" height="10"/>
    <rect x="250" y="300" width="10" height="10"/>
    <rect x="10" y="310" width="20" height="10"/>
    <rect x="70" y="310" width="10" height="10"/>
    <rect x="250" y="310" width="10" height="10"/>
  </g>
  <rect fill="#040809" x="170" y="260" width="10" height="10"/>
  <g fill="#040a0b">
    <rect x="110" y="300" width="10" height="10"/>
    <rect x="210" y="300" width="10" height="10"/>
  </g>
</svg>