<?xml version="1.0" encoding="UTF-8"?>
<!-- Generator: visioncortex VTracer 0.6.5 -->
<svg version="1.1" xmlns="http://www.w3.org/2000/svg" width="150" height="84">
<path d="M0,0 L150,0 L150,84 L0,84 Z " fill="#000204" transform="translate(0,0)"/>
<path d="M0,0 L11,0 L12,6 L18,4 L27,5 L27,8 L34,8 L37,12 L42,13 L42,15 L48,16 L55,24 L57,27 L52,27 L45,20 L28,19 L27,24 L31,26 L32,28 L28,27 L29,32 L40,33 L42,34 L42,36 L16,38 L15,39 L15,45 L17,49 L28,52 L29,56 L61,56 L61,58 L52,63 L48,64 L35,64 L26,62 L26,60 L17,60 L17,58 L10,57 L5,55 L2,53 L1,45 L3,45 L4,39 L6,37 L3,37 L-1,37 L-2,41 L-3,38 L-5,38 L-4,41 L-7,44 L-13,43 L-12,36 L-8,31 L-7,28 L3,26 L3,21 L-2,22 L-18,22 L-18,30 L-26,30 L-26,28 L-30,27 L-30,18 L-26,17 L-25,12 L-13,9 L-8,7 L-4,7 L-4,5 L-1,4 Z " fill="#080B11" transform="translate(48,0)"/>
<path d="M0,0 L49,0 L57,7 L61,16 L63,17 L65,22 L65,28 L62,28 L61,38 L58,38 L58,44 L49,44 L49,46 L41,46 L38,42 L34,41 L34,39 L30,39 L30,41 L32,41 L32,43 L37,44 L37,51 L32,50 L31,54 L23,55 L18,56 L17,52 L11,51 L5,49 L3,45 L3,39 L5,37 L13,36 L31,36 L31,34 L18,32 L17,27 L20,27 L16,24 L17,19 L22,18 L34,19 L41,26 L45,26 L37,18 L37,16 L31,15 L31,13 L26,13 L23,9 L16,8 L16,5 L5,5 L1,6 Z M38,45 L40,45 L40,47 L38,47 Z " fill="#020407" transform="translate(59,0)"/>
<path d="M0,0 L42,0 L42,50 L34,53 L32,53 L32,55 L25,55 L22,56 L13,56 L16,55 L16,52 L20,51 L12,47 L9,45 L11,42 L13,42 L13,36 L15,29 L16,29 L17,19 L15,19 L15,15 L12,15 L7,5 L0,1 Z " fill="#4E575D" transform="translate(108,0)"/>
<path d="M0,0 L11,0 L12,6 L18,4 L27,5 L27,8 L34,8 L37,12 L42,13 L42,15 L48,16 L55,24 L57,27 L52,27 L45,20 L30,19 L27,18 L27,20 L3,20 L-2,22 L-18,22 L-18,30 L-26,30 L-26,28 L-30,27 L-30,18 L-26,17 L-25,12 L-13,9 L-8,7 L-4,7 L-4,5 L-1,4 Z " fill="#3C484C" transform="translate(48,0)"/>
<path d="M0,0 L5,0 L6,1 L14,2 L22,7 L32,8 L37,11 L45,13 L45,17 L52,17 L55,20 L54,26 L0,26 Z " fill="#000102" transform="translate(0,58)"/>
<path d="M0,0 L13,0 L13,2 L4,5 L4,11 L6,15 L17,18 L18,22 L50,22 L50,24 L41,29 L37,30 L24,30 L15,28 L15,26 L6,26 L6,24 L-1,23 L-6,21 L-9,19 L-10,11 L-8,11 L-7,5 L-4,2 Z " fill="#23272E" transform="translate(59,34)"/>
<path d="M0,0 L4,2 L8,9 L8,12 L11,12 L11,16 L13,16 L13,27 L11,31 L9,39 L7,39 L6,42 L16,47 L20,49 L12,49 L12,52 L24,51 L28,52 L28,50 L31,48 L38,47 L36,51 L30,53 L26,53 L26,55 L4,55 L4,57 L-7,57 L-6,55 L-3,55 L-3,53 L-31,53 L-30,51 L-22,50 L-21,47 L-17,47 L-16,41 L-21,40 L-21,38 L-23,38 L-23,36 L-19,36 L-19,38 L-14,39 L-12,42 L-4,43 L-4,41 L5,41 L5,35 L8,35 L9,25 L12,25 L10,18 L10,14 L7,13 L2,3 Z M-15,42 L-15,44 L-13,44 L-13,42 Z " fill="#010205" transform="translate(112,3)"/>
<path d="M0,0 L9,0 L9,2 L22,3 L23,4 L37,6 L38,7 L53,9 L53,12 L66,12 L68,16 L74,16 L74,17 L17,17 L17,11 L15,9 L8,8 L8,4 L0,3 Z " fill="#444D53" transform="translate(37,67)"/>
<path d="M0,0 L22,0 L22,18 L20,25 L18,25 L16,30 L14,30 L14,32 L9,32 L9,28 L14,25 L16,22 L18,16 L19,11 L10,12 L8,12 L8,27 L3,27 L2,26 L2,17 L-1,1 Z " fill="#3A484D" transform="translate(128,0)"/>
<path d="M0,0 L11,0 L11,2 L18,2 L21,6 L26,7 L26,9 L32,10 L39,18 L41,21 L36,21 L29,14 L11,13 L-2,13 L-3,2 Z " fill="#4F575D" transform="translate(64,6)"/>
<path d="M0,0 L12,1 L12,5 L22,5 L22,7 L40,8 L40,10 L28,11 L-4,11 L-5,4 L-1,2 Z " fill="#545F64" transform="translate(61,73)"/>
<path d="M0,0 L22,0 L24,1 L24,3 L2,5 L2,7 L-3,12 L-5,16 L-6,13 L-8,13 L-7,16 L-10,19 L-16,18 L-15,11 L-11,6 L-10,3 Z " fill="#2B3037" transform="translate(51,25)"/>
<path d="M0,0 L1,0 L1,26 L-3,27 L-3,24 L-9,25 L-10,20 L-16,19 L-16,13 L-7,14 L-7,12 L-4,9 L-3,7 L-1,7 Z " fill="#4A575C" transform="translate(149,18)"/>
<path d="M0,0 L3,1 L2,6 L-2,15 L-5,18 L-8,19 L-7,23 L-11,22 L-13,27 L-16,26 L-16,22 L-14,21 L-14,17 L-9,17 L-10,2 L-7,1 L-1,1 Z " fill="#546065" transform="translate(145,10)"/>
<path d="M0,0 L20,0 L21,7 L21,15 L17,15 L12,15 L7,5 L0,1 Z " fill="#576065" transform="translate(108,0)"/>
<path d="M0,0 L3,1 L1,1 L0,6 L4,8 L5,10 L1,9 L2,12 L-9,11 L-9,10 L0,10 L0,8 L-24,7 L-24,3 L-26,2 L-24,1 L0,2 Z " fill="#0C1117" transform="translate(75,18)"/>
<path d="M0,0 L2,1 L0,4 L0,11 L2,11 L2,19 L-6,19 L-6,17 L-10,16 L-10,7 L-6,6 L-5,1 Z " fill="#304040" transform="translate(28,11)"/>
<path d="M0,0 L6,0 L6,2 L-3,7 L-13,8 L-28,5 L-24,4 L-24,2 L-20,1 Z " fill="#4E545B" transform="translate(103,56)"/>
<path d="M0,0 L19,0 L19,8 L1,8 L0,7 Z " fill="#526166" transform="translate(131,0)"/>
<path d="M0,0 L8,0 L10,1 L11,10 L13,10 L12,12 L10,12 L9,14 L4,14 L3,12 L-1,11 L-2,4 L0,4 Z " fill="#283036" transform="translate(51,41)"/>
<path d="M0,0 L4,2 L8,9 L8,12 L11,12 L11,16 L13,16 L13,27 L11,31 L9,39 L7,39 L5,43 L-1,45 L-3,46 L-10,46 L-9,43 L-4,43 L-4,41 L5,41 L5,35 L8,35 L9,25 L12,25 L10,18 L10,14 L7,13 L2,3 Z " fill="#21272D" transform="translate(112,3)"/>
<path d="M0,0 L4,1 L4,7 L6,9 L7,15 L7,26 L3,27 L2,26 L2,17 L-1,1 Z " fill="#28373A" transform="translate(128,0)"/>
<path d="M0,0 L4,0 L4,2 L9,3 L11,6 L14,8 L13,10 L17,11 L11,13 L9,15 L2,15 L2,17 L-8,17 L-7,15 L1,14 L2,11 L6,11 L7,5 L2,4 L2,2 L0,2 Z M8,6 L8,8 L10,8 L10,6 Z " fill="#10151B" transform="translate(89,39)"/>
<path d="M0,0 L13,2 L20,4 L20,6 L31,7 L31,8 L22,8 L22,10 L17,8 L7,7 L0,1 Z " fill="#0D151A" transform="translate(15,59)"/>
<path d="M0,0 L1,4 L-1,7 L-1,2 L-3,2 L-4,7 L-5,9 L1,10 L0,14 L-1,11 L-3,11 L-2,14 L-5,17 L-11,16 L-10,9 L-6,4 L-5,1 Z " fill="#262D33" transform="translate(46,27)"/>
<path d="M0,0 L13,0 L13,2 L4,5 L4,11 L6,16 L3,16 L2,14 L2,8 L-7,6 L-4,2 Z " fill="#171C23" transform="translate(59,34)"/>
<path d="M0,0 L17,0 L18,5 L19,8 L16,8 L15,6 L11,7 L9,9 L6,4 L0,1 Z " fill="#52585F" transform="translate(108,0)"/>
<path d="M0,0 L0,3 L-7,6 L-11,6 L-11,8 L-29,8 L-31,7 L-31,4 L-25,4 L-25,5 L-13,4 L-9,5 L-9,3 L-6,1 Z " fill="#252A31" transform="translate(149,50)"/>
<path d="M0,0 L17,0 L17,7 L15,7 L14,3 L5,4 L3,4 L3,19 L1,18 L1,7 Z " fill="#455055" transform="translate(133,8)"/>
<path d="M0,0 L7,1 L14,9 L16,12 L11,12 L4,5 L-5,4 L-5,2 L0,1 Z " fill="#373F44" transform="translate(89,15)"/>
<path d="M0,0 L9,0 L9,2 L14,3 L16,6 L12,5 L13,8 L2,7 L2,6 L11,6 L11,4 L-12,3 L-12,2 L-1,1 Z " fill="#14191F" transform="translate(64,22)"/>
<path d="M0,0 L6,4 L9,6 L8,8 L6,8 L5,10 L0,10 L-1,8 L-4,6 L-3,2 Z " fill="#374449" transform="translate(55,45)"/>
<path d="M0,0 L10,0 L13,5 L13,7 L6,7 L0,5 Z " fill="#182026" transform="translate(0,53)"/>
<path d="M0,0 L7,1 L11,2 L12,6 L38,6 L38,7 L14,8 L14,10 L10,10 L9,3 L4,3 L4,1 Z " fill="#1C1F26" transform="translate(65,50)"/>
<path d="M0,0 L3,1 L2,6 L-2,8 L-8,11 L-15,11 L-14,8 L-9,8 L-9,6 L0,6 Z " fill="#33383F" transform="translate(117,38)"/>
<path d="M0,0 L19,2 L19,4 L-1,5 Z " fill="#606A70" transform="translate(82,79)"/>
<path d="M0,0 L2,1 L0,3 L-4,3 L-5,8 L-9,9 L-9,15 L-5,16 L-5,18 L2,18 L2,19 L-6,19 L-6,17 L-10,16 L-10,7 L-6,6 L-5,1 Z " fill="#1A2327" transform="translate(28,11)"/>
<path d="M0,0 L6,1 L7,4 L6,7 L16,8 L21,9 L21,10 L7,9 L5,8 L5,6 L-1,5 L2,4 Z " fill="#282C33" transform="translate(69,54)"/>
<path d="M0,0 L13,0 L15,4 L21,4 L21,5 L-1,5 L-1,4 L11,4 L11,2 L0,1 Z " fill="#383F46" transform="translate(90,79)"/>
<path d="M0,0 L7,0 L7,1 L1,1 L1,4 L3,5 L-1,5 L-1,7 L-12,7 L-11,5 L-8,5 L-8,3 L-2,4 Z " fill="#0B0F16" transform="translate(117,53)"/>
<path d="M0,0 L1,4 L-2,9 L3,9 L4,4 L7,3 L9,4 L8,8 L7,5 L5,5 L6,8 L3,11 L-3,10 L-2,3 Z " fill="#10151C" transform="translate(38,33)"/>
<path d="M0,0 L4,1 L4,7 L5,12 L3,14 L1,13 L-1,1 Z " fill="#12181E" transform="translate(128,0)"/>
<path d="M0,0 L10,0 L12,2 L5,5 L0,5 Z " fill="#646F74" transform="translate(91,58)"/>
<path d="M0,0 L6,0 L6,2 L-3,7 L-7,6 L-2,3 L-14,2 L-14,1 Z " fill="#31383E" transform="translate(103,56)"/>
<path d="M0,0 L10,2 L14,4 L4,4 L3,7 L0,7 Z " fill="#697178" transform="translate(75,10)"/>
<path d="M0,0 L9,1 L11,2 L11,4 L14,5 L13,6 L6,5 L0,1 Z " fill="#293137" transform="translate(15,59)"/>
<path d="M0,0 L9,1 L13,3 L13,7 L4,7 L8,5 L0,1 Z " fill="#343840" transform="translate(120,46)"/>
<path d="M0,0 L9,0 L9,2 L15,2 L15,3 L6,4 L0,3 Z " fill="#384146" transform="translate(37,67)"/>
<path d="M0,0 L9,3 L17,6 L17,7 L9,7 L8,5 L-2,2 Z " fill="#14171F" transform="translate(115,45)"/>
<path d="M0,0 L2,0 L2,11 L-3,11 L-1,10 L-1,1 Z " fill="#505F63" transform="translate(127,20)"/>
<path d="M0,0 L4,1 L4,5 L-2,5 L-2,3 L-9,2 L-9,1 L-1,1 Z " fill="#161921" transform="translate(67,55)"/>
<path d="M0,0 L4,0 L2,6 L-3,7 L-3,2 L0,2 Z " fill="#363A42" transform="translate(51,26)"/>
<path d="M0,0 L6,4 L5,6 L3,6 L2,8 L-3,8 L-4,5 L0,4 Z " fill="#333A41" transform="translate(58,47)"/>
<path d="M0,0 L2,3 L1,6 L-1,6 L-1,9 L-7,8 L-7,3 L-6,5 L-1,5 Z " fill="#354247" transform="translate(130,26)"/>
<path d="M0,0 L4,1 L4,4 L6,5 L6,7 L1,7 L1,4 L-2,3 L-2,1 Z " fill="#4B555A" transform="translate(42,14)"/>
<path d="M0,0 L6,0 L6,1 L12,2 L11,4 L2,4 L0,3 Z " fill="#2E323A" transform="translate(118,54)"/>
<path d="M0,0 L3,0 L4,4 L12,4 L12,5 L0,6 L0,2 L-2,1 Z M12,3 Z " fill="#0F151B" transform="translate(51,19)"/>
<path d="M0,0 L3,0 L2,5 L0,9 L-2,9 L-2,2 Z " fill="#384348" transform="translate(147,15)"/>
<path d="M0,0 L6,0 L8,2 L6,2 L6,4 L-1,4 Z " fill="#545E63" transform="translate(46,70)"/>
<path d="M0,0 L4,0 L7,4 L7,6 L1,5 Z " fill="#384045" transform="translate(6,54)"/>
<path d="M0,0 L6,0 L8,1 L7,4 L1,4 Z " fill="#010308" transform="translate(54,19)"/>
<path d="M0,0 L9,0 L7,6 L5,6 L4,3 L0,2 Z " fill="#5E686D" transform="translate(74,78)"/>
<path d="M0,0 L13,0 L13,2 L5,3 L5,1 L0,1 Z " fill="#11141B" transform="translate(59,34)"/>
<path d="M0,0 L5,0 L6,4 L1,5 Z " fill="#0D1218" transform="translate(39,45)"/>
<path d="M0,0 L5,0 L3,2 L2,6 L-1,6 L-1,4 L-3,4 L-3,2 Z " fill="#5F656C" transform="translate(145,44)"/>
<path d="M0,0 L3,1 L4,9 L-1,6 Z " fill="#21282E" transform="translate(58,41)"/>
<path d="M0,0 L1,4 L-1,7 L-1,2 L-3,2 L-4,6 L-7,5 L-5,1 Z " fill="#14181E" transform="translate(46,27)"/>
<path d="M0,0 L7,0 L9,4 L0,2 Z " fill="#3D4149" transform="translate(75,8)"/>
<path d="M0,0 L5,0 L4,5 L0,4 Z " fill="#4D565C" transform="translate(53,4)"/>
<path d="M0,0 L10,0 L12,2 L6,4 L5,2 L0,1 Z " fill="#525B61" transform="translate(91,58)"/>
<path d="M0,0 L5,1 L5,3 L-4,3 L-4,1 Z " fill="#353940" transform="translate(83,57)"/>
<path d="M0,0 L1,2 L5,3 L-1,5 L-4,6 L-4,1 L0,2 Z " fill="#1E2028" transform="translate(101,47)"/>
<path d="M0,0 L7,0 L6,3 L-1,3 Z " fill="#3B3E46" transform="translate(103,46)"/>
<path d="M0,0 L4,1 L1,3 L1,5 L-3,6 L-4,2 Z " fill="#414E52" transform="translate(143,37)"/>
<path d="M0,0 L2,0 L1,7 L-3,8 Z " fill="#33363E" transform="translate(43,29)"/>
<path d="M0,0 L2,0 L2,3 L5,3 L3,7 L0,6 Z " fill="#293136" transform="translate(19,20)"/>
<path d="M0,0 L4,1 L4,4 L-2,4 L-5,1 Z " fill="#2C3E3E" transform="translate(35,9)"/>
<path d="M0,0 L2,0 L2,5 L1,6 L-5,6 L-1,5 Z " fill="#50545B" transform="translate(148,45)"/>
<path d="M0,0 L3,1 L3,4 L-5,4 L-5,2 L0,1 Z " fill="#1F282D" transform="translate(89,15)"/>
<path d="M0,0 L4,1 L6,3 L-4,4 L-3,2 L0,2 Z " fill="#1A2127" transform="translate(109,56)"/>
<path d="M0,0 L3,0 L3,6 L0,6 Z " fill="#31363D" transform="translate(105,30)"/>
<path d="M0,0 L7,0 L6,5 L4,3 L0,2 Z " fill="#60696E" transform="translate(64,6)"/>
<path d="M0,0 L2,0 L3,5 L4,8 L1,8 L0,6 Z " fill="#484F56" transform="translate(123,0)"/>
<path d="M0,0 L2,0 L2,2 L5,3 L4,4 L-3,3 L0,2 Z " fill="#1E262B" transform="translate(24,61)"/>
<path d="M0,0 L5,2 L5,5 L1,4 Z " fill="#344247" transform="translate(133,31)"/>
<path d="M0,0 L3,0 L4,4 L0,4 L0,2 L-2,1 Z " fill="#080E14" transform="translate(51,19)"/>
<path d="M0,0 L6,1 L6,3 L-3,2 Z " fill="#3C4349" transform="translate(78,16)"/>
<path d="M0,0 Z M-3,1 L0,2 L-2,5 L-6,4 Z " fill="#0F131A" transform="translate(58,35)"/>
<path d="M0,0 L2,1 L0,5 L-3,5 L-1,1 Z " fill="#141820" transform="translate(51,32)"/>
<path d="M0,0 L3,0 L2,5 L0,6 Z " fill="#263135" transform="translate(147,15)"/>
<path d="M0,0 L2,0 L1,6 L-1,5 Z " fill="#030609" transform="translate(131,8)"/>
<path d="M0,0 L4,1 L1,2 L1,7 L-1,3 Z " fill="#31373E" transform="translate(128,0)"/>
<path d="M0,0 L3,4 L2,6 L-1,6 Z " fill="#272F34" transform="translate(55,78)"/>
<path d="M0,0 L4,0 L4,2 L2,2 L1,5 Z " fill="#2A3238" transform="translate(6,54)"/>
<path d="M0,0 L5,0 L4,3 L0,2 Z " fill="#435055" transform="translate(54,49)"/>
<path d="M0,0 L5,0 L5,3 L2,4 L2,2 L0,2 Z " fill="#282B33" transform="translate(108,44)"/>
<path d="M0,0 L2,3 L-2,5 L-3,2 Z " fill="#485458" transform="translate(126,13)"/>
<path d="M0,0 L1,0 L1,6 L-2,6 Z " fill="#11141B" transform="translate(116,38)"/>
<path d="M0,0 L1,4 L-2,7 L-1,1 Z " fill="#171E23" transform="translate(38,33)"/>
<path d="M0,0 L4,1 L4,3 L-2,2 Z " fill="#11181E" transform="translate(17,57)"/>
<path d="M0,0 L5,1 L6,4 L2,2 Z " fill="#161F24" transform="translate(50,52)"/>
<path d="M0,0 L3,0 L2,4 L0,4 Z " fill="#5F6D71" transform="translate(130,33)"/>
<path d="M0,0 L4,0 L3,4 L2,2 L0,2 Z " fill="#5A6268" transform="translate(53,4)"/>
<path d="M0,0 L4,0 L4,3 L0,2 Z " fill="#3F484C" transform="translate(64,8)"/>
<path d="M0,0 L3,0 L3,3 L0,3 Z " fill="#576066" transform="translate(85,77)"/>
<path d="M0,0 L3,0 L3,3 L0,3 Z " fill="#21252D" transform="translate(61,35)"/>
<path d="M0,0 L2,0 L1,4 L-1,3 Z " fill="#656B72" transform="translate(121,5)"/>
<path d="M0,0 L2,0 L2,3 L-1,3 Z " fill="#424F53" transform="translate(126,38)"/>
<path d="M0,0 L3,1 L3,3 L0,3 Z " fill="#232B31" transform="translate(124,5)"/>
<path d="M0,0 L2,1 L2,3 L-1,3 Z " fill="#090C13" transform="translate(106,27)"/>
<path d="M0,0 L3,1 L2,3 L0,3 Z " fill="#3F484E" transform="translate(94,17)"/>
<path d="M0,0 L3,1 L1,3 Z " fill="#060910" transform="translate(76,27)"/>
</svg>
