<?xml version="1.0" encoding="UTF-8"?>
<!-- Generator: visioncortex VTracer 0.6.5 -->
<svg version="1.1" xmlns="http://www.w3.org/2000/svg" width="150" height="84">
<path d="M0,0 L150,0 L150,84 L0,84 Z " fill="#000001" transform="translate(0,0)"/>
<path d="M0,0 L4,0 L4,55 L-11,56 L-11,60 L-30,60 L-30,58 L-19,52 L-25,47 L-30,47 L-38,50 L-41,51 L-42,48 L-41,45 L-23,41 L-22,37 L-17,37 L-16,43 L-15,35 L-12,30 L-5,30 L-5,22 L-12,22 L-13,18 L-15,18 L-15,10 L-11,10 L-11,1 L-8,2 L-7,7 L-1,8 L-1,2 Z " fill="#293132" transform="translate(146,0)"/>
<path d="M0,0 L26,2 L37,7 L38,11 L43,13 L48,17 L50,23 L46,24 L46,21 L44,21 L44,19 L40,17 L35,15 L35,13 L31,12 L27,7 L16,7 L14,11 L3,11 L-10,13 L-12,16 L-14,16 L-15,19 L-18,19 L-18,12 L-13,8 L-5,8 L-5,5 L-3,4 L-2,1 Z " fill="#172024" transform="translate(50,19)"/>
<path d="M0,0 L2,0 L2,2 L4,2 L4,6 L11,7 L11,16 L-4,17 L-4,21 L-23,21 L-23,19 L-15,17 L-14,15 L-5,13 L-4,9 L-11,9 L-11,7 L-4,6 L-4,4 L0,4 Z " fill="#2C3035" transform="translate(139,39)"/>
<path d="M0,0 L4,0 L4,3 L6,3 L5,7 L-2,7 L-2,13 L1,13 L1,15 L-6,16 L-6,18 L1,18 L0,23 L-6,23 L-13,17 L-18,17 L-26,20 L-29,21 L-30,18 L-29,15 L-11,11 L-10,7 L-5,7 L-4,13 L-3,5 Z M-10,23 L-6,24 L-9,24 L-10,27 L-14,26 Z " fill="#1A2125" transform="translate(134,30)"/>
<path d="M0,0 L4,1 L7,2 L7,4 L24,6 L24,23 L16,23 L16,21 L13,20 L13,12 L8,10 L4,8 L4,5 L1,5 Z " fill="#222B2C" transform="translate(92,9)"/>
<path d="M0,0 L1,0 L1,6 L8,6 L8,14 L1,14 L0,18 L-1,19 L-2,27 L-4,28 L-4,21 L-8,22 L-10,26 L-19,27 L-18,25 L-13,24 L-12,19 L-9,18 L-6,9 L-9,8 L-6,8 L-4,4 L0,2 Z " fill="#0C1217" transform="translate(133,16)"/>
<path d="M0,0 L7,0 L14,2 L29,3 L29,7 L9,7 L10,10 L0,9 L-2,7 L-16,6 L-16,3 L-5,3 L-1,4 Z " fill="#0F1218" transform="translate(121,69)"/>
<path d="M0,0 L11,0 L29,1 L29,3 L37,3 L37,4 L29,4 L29,6 L15,8 L11,9 L2,5 L-1,3 Z " fill="#32373D" transform="translate(76,56)"/>
<path d="M0,0 L2,0 L2,3 L9,2 L13,6 L13,10 L20,10 L20,12 L24,10 L25,13 L24,14 L11,14 L8,12 L2,12 L1,8 L-3,7 L-1,1 Z M-1,5 Z " fill="#161D21" transform="translate(51,47)"/>
<path d="M0,0 L6,0 L17,5 L18,9 L23,11 L28,15 L30,21 L26,22 L26,19 L24,19 L24,17 L20,15 L15,13 L15,11 L11,10 L7,5 L-4,4 Z " fill="#13151C" transform="translate(70,21)"/>
<path d="M0,0 L7,0 L7,1 L1,1 L5,6 L5,8 L1,6 L-1,10 L-12,9 L-15,8 L-15,5 L-13,4 L-17,2 L-13,1 L-8,2 L-7,1 Z " fill="#0A0D11" transform="translate(98,62)"/>
<path d="M0,0 L15,0 L20,2 L16,4 L5,6 L5,8 L1,6 L-1,1 Z " fill="#1A2327" transform="translate(53,20)"/>
<path d="M0,0 L4,0 L4,8 L3,10 L-1,10 L-1,12 L-7,13 L-8,15 L-14,15 L-14,12 L-7,10 L-2,8 Z " fill="#2C3937" transform="translate(146,0)"/>
<path d="M0,0 L3,0 L3,16 L-1,17 L-1,10 L-3,10 L-3,2 Z " fill="#272D2F" transform="translate(147,26)"/>
<path d="M0,0 L14,0 L13,3 L4,4 L4,6 L1,9 L0,12 L-2,12 L-3,8 L-1,5 Z " fill="#0A1317" transform="translate(45,33)"/>
<path d="M0,0 L3,1 L4,6 L9,7 L5,9 L3,11 L-3,11 L-3,14 L1,15 L2,21 L-1,21 L-2,17 L-4,17 L-4,9 L0,9 Z " fill="#1B2326" transform="translate(135,1)"/>
<path d="M0,0 L4,1 L7,2 L7,4 L16,5 L12,6 L12,12 L4,8 L4,5 L1,5 Z " fill="#0F1419" transform="translate(92,9)"/>
<path d="M0,0 L11,0 L10,8 L4,8 L2,2 Z " fill="#040809" transform="translate(135,0)"/>
<path d="M0,0 L2,0 L2,2 L4,2 L4,6 L-2,6 L-2,8 L3,8 L3,9 L-4,10 L-11,9 L-11,7 L-4,6 L-4,4 L0,4 Z " fill="#33393C" transform="translate(139,39)"/>
<path d="M0,0 L22,1 L22,2 L8,3 L7,9 L3,9 L2,2 Z " fill="#06080E" transform="translate(128,75)"/>
<path d="M0,0 L25,1 L25,3 L33,3 L33,4 L15,4 L15,2 L4,2 Z " fill="#1A1E24" transform="translate(80,56)"/>
<path d="M0,0 L13,0 L13,4 L-1,4 Z " fill="#1F242A" transform="translate(137,72)"/>
<path d="M0,0 L2,0 L2,3 L9,2 L7,5 L4,5 L5,10 L3,10 L2,12 L1,8 L-3,7 L-1,1 Z M-1,5 Z " fill="#0D1217" transform="translate(51,47)"/>
<path d="M0,0 L8,0 L7,5 L1,5 L-1,2 Z M-3,5 L1,6 L-2,6 L-3,9 L-7,8 Z " fill="#1D2226" transform="translate(127,48)"/>
<path d="M0,0 L8,0 L12,2 L12,5 L1,5 Z " fill="#253033" transform="translate(75,2)"/>
<path d="M0,0 L2,0 L2,5 L4,6 L-2,7 L-11,7 L-11,5 L-5,4 L-5,2 L0,2 Z " fill="#0C0F15" transform="translate(103,46)"/>
<path d="M0,0 L6,0 L5,4 L2,5 L-7,5 L-18,6 L-15,4 L-2,3 L-2,1 Z " fill="#0A1217" transform="translate(60,25)"/>
<path d="M0,0 L5,1 L5,7 L-2,7 L-2,1 Z " fill="#2B3033" transform="translate(134,36)"/>
<path d="M0,0 L3,0 L4,2 L6,2 L6,9 L3,8 L4,6 L-1,8 L-1,5 Z " fill="#2E3C39" transform="translate(108,15)"/>
<path d="M0,0 L11,0 L15,1 L15,3 L0,3 Z " fill="#24272E" transform="translate(105,72)"/>
<path d="M0,0 L1,0 L1,6 L4,7 L1,7 L0,11 L-4,9 L-5,6 L-2,2 L0,2 Z " fill="#252E31" transform="translate(127,39)"/>
<path d="M0,0 L5,0 L5,2 L9,0 L10,3 L9,4 L-1,4 L-1,1 Z " fill="#0B1016" transform="translate(66,57)"/>
<path d="M0,0 L6,0 L10,4 L7,5 L-4,4 Z " fill="#182125" transform="translate(70,21)"/>
<path d="M0,0 L7,0 L12,2 L8,4 L1,4 Z " fill="#2C3539" transform="translate(61,20)"/>
<path d="M0,0 L5,0 L4,3 L-7,4 L-7,1 Z " fill="#1B2227" transform="translate(54,33)"/>
<path d="M0,0 L8,1 L12,3 L8,5 L3,4 L2,1 Z " fill="#2B3035" transform="translate(76,56)"/>
<path d="M0,0 L2,0 L2,8 L-2,9 L-2,2 Z " fill="#393E42" transform="translate(148,34)"/>
<path d="M0,0 L2,1 L-2,2 L-3,6 L-6,7 L-7,4 L-6,1 Z " fill="#171C21" transform="translate(111,44)"/>
<path d="M0,0 L1,3 L5,3 L5,1 L7,1 L7,5 L-6,5 L-6,4 L0,4 Z " fill="#181E20" transform="translate(143,41)"/>
<path d="M0,0 L3,1 L17,2 L17,3 L-2,3 L-2,1 Z " fill="#1F2227" transform="translate(118,57)"/>
<path d="M0,0 L12,1 L12,3 L0,3 Z " fill="#383D43" transform="translate(93,59)"/>
<path d="M0,0 L7,2 L5,4 L3,3 L2,7 L-1,3 Z " fill="#293236" transform="translate(53,20)"/>
<path d="M0,0 L6,1 L14,2 L12,4 L2,3 L0,2 Z " fill="#363B40" transform="translate(84,68)"/>
<path d="M0,0 L7,0 L7,2 L-1,4 L-1,2 L-6,2 L-6,1 Z " fill="#0A1217" transform="translate(60,31)"/>
<path d="M0,0 L5,0 L5,6 L0,3 Z " fill="#192324" transform="translate(99,15)"/>
<path d="M0,0 L9,1 L9,3 L1,3 Z " fill="#25292F" transform="translate(126,71)"/>
<path d="M0,0 L3,1 L1,2 L1,5 L-5,5 L-5,3 Z " fill="#1D262A" transform="translate(114,43)"/>
<path d="M0,0 L8,0 L8,1 L1,1 L-1,5 L-5,4 Z " fill="#0E1519" transform="translate(37,27)"/>
<path d="M0,0 L4,2 L5,4 L-1,2 L0,6 L-4,3 L-4,1 Z " fill="#070A11" transform="translate(93,7)"/>
<path d="M0,0 L7,0 L7,3 L1,3 Z " fill="#0A0E10" transform="translate(128,49)"/>
<path d="M0,0 L1,2 L3,3 L2,4 L-4,4 L-4,1 Z " fill="#070B11" transform="translate(59,58)"/>
<path d="M0,0 L7,0 L3,2 L0,2 Z M-5,3 L1,3 L1,4 L-5,4 Z " fill="#232C2E" transform="translate(137,8)"/>
<path d="M0,0 L4,1 L6,2 L6,4 L1,4 Z " fill="#191B23" transform="translate(92,9)"/>
<path d="M0,0 L6,0 L6,3 L0,3 Z " fill="#3B4346" transform="translate(132,12)"/>
<path d="M0,0 L8,1 L7,3 L2,3 L2,1 Z " fill="#242B30" transform="translate(76,56)"/>
<path d="M0,0 L5,0 L5,3 L0,3 Z " fill="#202A2E" transform="translate(47,34)"/>
<path d="M0,0 L2,0 L2,3 L-3,7 L-1,1 Z " fill="#060A10" transform="translate(51,47)"/>
<path d="M0,0 L2,0 L1,3 L-4,4 L-5,2 Z " fill="#363A40" transform="translate(125,55)"/>
<path d="M0,0 L3,0 L4,4 L0,2 Z " fill="#32373D" transform="translate(75,57)"/>
<path d="M0,0 L2,0 L2,3 L-2,3 L-2,1 Z " fill="#15181E" transform="translate(118,57)"/>
<path d="M0,0 L3,1 L1,2 L1,4 L-1,4 Z " fill="#222C31" transform="translate(114,43)"/>
<path d="M0,0 L4,1 L4,3 L0,3 Z " fill="#3C4C47" transform="translate(146,4)"/>
<path d="M0,0 L2,0 L0,5 L-1,1 Z " fill="#34383D" transform="translate(134,36)"/>
<path d="M0,0 L3,0 L3,3 L0,2 Z " fill="#1E2027" transform="translate(93,36)"/>
<path d="M0,0 L3,0 L2,3 L0,2 Z " fill="#050B10" transform="translate(62,38)"/>
</svg>
