<?xml version="1.0" encoding="UTF-8"?>
<!-- Generator: visioncortex VTracer 0.6.5 -->
<svg version="1.1" xmlns="http://www.w3.org/2000/svg" width="150" height="84">
<path d="M0,0 L150,0 L150,84 L0,84 Z " fill="#04050B" transform="translate(0,0)"/>
<path d="M0,0 L120,0 L120,10 L117,11 L95,11 L90,9 L90,7 L73,7 L56,6 L48,8 L46,14 L45,14 L45,9 L41,10 L40,15 L34,15 L33,21 L44,20 L45,17 L51,16 L51,14 L58,14 L59,19 L55,21 L52,21 L52,27 L45,28 L45,39 L49,38 L51,34 L56,34 L56,32 L61,31 L59,29 L64,27 L68,27 L67,31 L69,31 L68,34 L58,36 L59,41 L62,41 L63,42 L63,47 L61,47 L60,51 L59,49 L58,52 L49,53 L46,52 L46,54 L53,55 L53,57 L58,57 L60,60 L66,62 L74,66 L74,68 L80,68 L78,70 L60,70 L60,68 L54,68 L53,65 L47,64 L43,60 L43,58 L30,57 L26,52 L22,51 L25,56 L28,59 L28,61 L30,61 L31,64 L22,63 L15,60 L7,57 L0,53 Z M57,42 Z " fill="#020306" transform="translate(0,0)"/>
<path d="M0,0 L5,1 L8,4 L8,6 L13,5 L21,7 L21,9 L25,11 L25,13 L31,14 L32,16 L38,17 L38,19 L60,18 L60,16 L53,15 L53,13 L51,13 L49,9 L62,10 L62,12 L98,14 L98,16 L102,17 L128,19 L128,33 L-22,33 L-22,2 L-16,4 L-11,7 L-2,10 L4,12 L8,12 L8,10 L6,10 L0,3 Z " fill="#586268" transform="translate(22,51)"/>
<path d="M0,0 L30,0 L30,31 L26,35 L23,35 L23,38 L17,37 L16,41 L15,39 L9,43 L5,43 L5,45 L7,45 L7,47 L-6,51 L-9,52 L-13,51 L-13,49 L-18,49 L-17,46 L-13,43 L-9,39 L-8,34 L-6,34 L-6,32 L-9,32 L-9,29 L-11,29 L-11,26 L-16,25 L-16,21 L-23,20 L-23,18 L-31,18 L-31,12 L-61,12 L-69,14 L-69,16 L-75,18 L-76,20 L-87,21 L-86,15 L-80,15 L-80,10 L-75,9 L-74,13 L-72,7 L-62,5 L-30,7 L-29,9 L-25,10 L0,10 Z " fill="#484C54" transform="translate(120,0)"/>
<path d="M0,0 L28,0 L28,16 L26,17 L26,21 L24,24 L22,30 L22,34 L20,34 L19,37 L19,32 L17,32 L15,36 L11,33 L11,36 L7,37 L7,40 L0,41 L1,37 L3,37 L3,35 L-1,33 L-1,28 L1,28 L1,20 L4,17 L5,13 L2,12 L1,5 Z " fill="#525C62" transform="translate(122,0)"/>
<path d="M0,0 L1,0 L1,32 L-13,34 L-16,34 L-38,33 L-42,32 L-56,31 L-57,29 L-48,26 L-47,25 L-33,22 L-27,19 L-17,15 L-12,10 L-11,7 L-6,7 L-6,4 L-1,1 Z " fill="#010207" transform="translate(149,31)"/>
<path d="M0,0 L1,2 L5,3 L31,5 L31,19 L-9,19 L-8,15 L-7,14 L-12,12 L-13,7 L-7,5 L0,5 Z M-5,12 L-3,13 L-2,16 L0,15 L0,12 Z " fill="#4C555B" transform="translate(119,65)"/>
<path d="M0,0 L8,0 L8,2 L14,2 L17,7 L19,6 L37,6 L37,8 L32,8 L31,12 L45,13 L49,14 L71,15 L74,15 L78,14 L88,14 L88,21 L77,21 L62,20 L58,18 L58,16 L43,16 L22,14 L22,12 L10,12 L11,14 L6,14 L5,10 L13,9 L9,7 L8,5 L1,5 Z " fill="#191D24" transform="translate(62,49)"/>
<path d="M0,0 L9,0 L16,2 L21,4 L20,7 L16,8 L8,9 L6,10 L10,12 L10,14 L-3,15 L-3,17 L-1,18 L-2,19 L-8,19 L-10,20 L-10,14 L-6,12 L0,11 L1,9 L-1,9 L0,5 L-8,7 L-6,9 L-7,10 L-12,10 L-12,12 L-17,12 L-18,17 L-23,17 L-24,8 L-24,5 L-15,6 L-15,2 L-11,2 L-11,4 L0,2 Z M-11,20 Z " fill="#13171E" transform="translate(68,22)"/>
<path d="M0,0 L17,1 L18,6 L3,7 L-5,9 L-5,11 L-11,13 L-12,15 L-23,16 L-22,10 L-16,10 L-16,5 L-11,4 L-10,8 L-8,2 Z " fill="#424B4F" transform="translate(56,5)"/>
<path d="M0,0 L7,0 L8,11 L12,17 L12,20 L-4,20 L-3,15 L-5,15 L-3,6 L1,6 Z " fill="#758387" transform="translate(82,64)"/>
<path d="M0,0 L2,0 L2,2 L8,2 L9,5 L7,5 L7,3 L-1,3 L0,7 L7,7 L9,10 L13,12 L13,13 L5,14 L5,17 L12,18 L12,20 L19,21 L19,23 L11,22 L10,20 L3,17 L-4,14 L-5,11 L-10,11 L-10,9 L-17,8 L-17,6 L-5,6 L-5,1 L-3,3 Z " fill="#12151C" transform="translate(63,46)"/>
<path d="M0,0 L16,0 L17,2 L21,4 L18,5 L23,6 L24,9 L26,10 L26,12 L29,11 L31,13 L31,16 L37,17 L38,22 L40,22 L40,25 L37,25 L37,22 L35,22 L35,19 L30,18 L30,14 L23,13 L23,11 L15,11 L15,5 L-12,5 L-12,4 L0,4 Z " fill="#252830" transform="translate(74,7)"/>
<path d="M0,0 L1,2 L-1,2 L-2,6 L-7,11 L-17,15 L-23,18 L-37,21 L-39,21 L-38,17 L-33,17 L-33,14 L-40,14 L-38,13 L-37,11 L-37,13 L-32,13 L-32,15 L-26,15 L-17,11 L-12,11 L-12,9 L-14,9 L-14,7 L-7,4 L-3,4 L-2,1 Z " fill="#12151C" transform="translate(139,36)"/>
<path d="M0,0 L2,1 L2,3 L15,3 L11,5 L3,6 L1,7 L5,9 L5,11 L-8,12 L-8,14 L-6,15 L-7,16 L-13,16 L-15,17 L-15,11 L-11,9 L-5,8 L-4,6 L-6,6 L-5,2 L-1,1 Z M-16,17 Z " fill="#171921" transform="translate(73,25)"/>
<path d="M0,0 L10,0 L10,7 L-1,7 L-16,6 L-20,3 L-18,2 L-5,2 Z " fill="#2F343C" transform="translate(140,63)"/>
<path d="M0,0 L1,3 L-3,3 L-3,9 L-5,12 L-3,12 L-4,17 L-9,17 L-8,9 L-17,10 L-22,9 L-23,11 L-23,7 L-14,8 L-14,5 L-20,4 L-20,3 L0,2 Z " fill="#4C565B" transform="translate(82,67)"/>
<path d="M0,0 L3,4 L3,7 L14,7 L14,8 L7,9 L7,11 L9,12 L9,14 L7,15 L1,15 L0,17 L-2,16 L-2,14 L-6,14 L-6,18 L-9,17 L-7,17 L-7,11 L-1,9 L-1,4 L-6,4 L-3,2 L0,2 Z " fill="#060910" transform="translate(59,10)"/>
<path d="M0,0 L6,1 L6,4 L9,4 L9,8 L12,9 L12,11 L16,12 L18,15 L17,16 L6,16 L4,7 L1,7 Z " fill="#677478" transform="translate(93,68)"/>
<path d="M0,0 L5,1 L8,4 L8,6 L13,5 L21,7 L21,9 L25,11 L25,13 L31,14 L32,16 L38,17 L38,18 L31,18 L27,15 L21,13 L11,8 L9,10 L6,10 L0,3 Z " fill="#373F44" transform="translate(22,51)"/>
<path d="M0,0 L2,4 L2,11 L-1,12 L-4,10 L0,14 L0,18 L-5,16 L-6,13 L-9,12 L-11,6 L-7,7 L-6,4 L-3,2 L0,2 Z " fill="#555D64" transform="translate(120,8)"/>
<path d="M0,0 L9,0 L16,2 L21,4 L21,6 L7,6 L5,4 L2,6 L-8,5 L-8,3 L0,2 Z " fill="#1E2128" transform="translate(68,22)"/>
<path d="M0,0 L13,0 L13,3 L9,2 L12,7 L15,10 L15,12 L17,12 L18,15 L9,14 L6,11 L9,10 L8,6 L1,4 Z " fill="#161D23" transform="translate(13,49)"/>
<path d="M0,0 L6,0 L5,8 L-7,8 L-9,4 L-6,1 Z " fill="#646F75" transform="translate(68,76)"/>
<path d="M0,0 L3,1 L5,12 L7,13 L6,18 L4,20 L3,27 L0,24 L-4,20 L-4,18 L2,19 L0,8 Z " fill="#252C32" transform="translate(120,0)"/>
<path d="M0,0 L12,0 L13,1 L27,2 L31,3 L53,4 L53,5 L40,6 L10,4 L4,3 L4,1 Z " fill="#1A2026" transform="translate(80,60)"/>
<path d="M0,0 L19,0 L19,5 L12,6 L7,7 L3,6 L2,2 L0,2 Z " fill="#666E74" transform="translate(100,65)"/>
<path d="M0,0 L2,0 L2,15 L-2,19 L-5,19 L-5,22 L-8,22 L-9,16 L-7,16 L-6,18 L-4,18 L-5,12 L-3,6 L1,2 L-1,1 Z " fill="#3A4147" transform="translate(148,16)"/>
<path d="M0,0 L2,0 L5,6 L2,9 L1,8 L0,12 L-3,15 L6,15 L2,17 L-1,18 L-5,17 L-5,15 L-10,15 L-9,12 L-5,9 L-1,5 Z " fill="#40434B" transform="translate(112,34)"/>
<path d="M0,0 L3,1 L2,11 L9,13 L10,9 L13,9 L15,11 L15,14 L-1,14 L0,9 L-2,9 Z " fill="#687579" transform="translate(79,70)"/>
<path d="M0,0 L4,1 L12,5 L12,7 L18,7 L18,8 L5,8 L-2,6 L-2,1 Z " fill="#000004" transform="translate(62,61)"/>
<path d="M0,0 L18,0 L18,2 L13,2 L12,5 L1,5 L-1,4 Z " fill="#20242B" transform="translate(81,55)"/>
<path d="M0,0 L1,2 L6,2 L6,4 L12,4 L17,2 L20,3 L16,5 L14,4 L13,7 L8,9 L-1,10 L0,6 L5,6 L5,3 L-2,3 L0,2 Z " fill="#21242C" transform="translate(101,47)"/>
<path d="M0,0 L18,0 L18,4 L4,5 L4,2 L0,2 Z " fill="#646A70" transform="translate(56,7)"/>
<path d="M0,0 L13,0 L12,3 L10,3 L10,5 L4,6 L1,5 Z " fill="#3F494E" transform="translate(106,72)"/>
<path d="M0,0 L1,2 L0,8 L3,14 L5,17 L-2,17 L-4,15 L-4,10 L-2,10 L-2,2 Z " fill="#4E565C" transform="translate(125,18)"/>
<path d="M0,0 L14,1 L14,4 L-12,4 L-12,3 L0,3 Z " fill="#373B42" transform="translate(74,8)"/>
<path d="M0,0 L8,0 L8,2 L12,3 L14,7 L9,7 L8,5 L1,5 Z " fill="#23252D" transform="translate(62,49)"/>
<path d="M0,0 L3,1 L3,3 L6,3 L8,8 L8,12 L3,12 Z " fill="#4F5D60" transform="translate(91,72)"/>
<path d="M0,0 L6,1 L6,3 L10,5 L10,7 L16,8 L17,10 L23,11 L23,12 L16,12 L12,9 L6,7 L3,5 L3,1 Z " fill="#282D35" transform="translate(37,57)"/>
<path d="M0,0 Z M-5,1 L0,3 L5,8 L6,13 L1,11 L0,8 L-3,7 Z M-1,1 Z " fill="#596168" transform="translate(114,13)"/>
<path d="M0,0 L1,2 L7,3 L7,7 L5,7 L4,10 L4,5 L2,5 L0,9 L-3,4 L-2,1 Z " fill="#5C646B" transform="translate(137,27)"/>
<path d="M0,0 L9,0 L14,2 L14,4 L0,4 Z " fill="#2F323A" transform="translate(75,24)"/>
<path d="M0,0 L3,1 L5,12 L6,15 L2,15 L0,8 Z " fill="#2A3036" transform="translate(120,0)"/>
<path d="M0,0 L3,0 L3,3 L11,2 L12,6 L7,7 L3,6 L2,2 L0,2 Z " fill="#6B767B" transform="translate(100,65)"/>
<path d="M0,0 L7,1 L7,4 L11,4 L11,6 L1,6 L-1,2 Z " fill="#11171D" transform="translate(26,17)"/>
<path d="M0,0 L5,1 L6,3 L10,5 L10,6 L1,5 L-5,4 L-5,2 L0,2 Z " fill="#0A0C14" transform="translate(66,53)"/>
<path d="M0,0 L2,0 L2,3 L9,2 L9,4 L7,5 L1,5 L0,7 L-2,6 L-2,4 L-6,3 L-3,3 L-3,1 Z " fill="#13151C" transform="translate(59,20)"/>
<path d="M0,0 L8,0 L8,4 L3,4 L3,6 L-1,6 Z " fill="#50595C" transform="translate(34,15)"/>
<path d="M0,0 L13,1 L13,2 L8,3 L8,7 L4,6 L4,4 L2,4 Z " fill="#41484F" transform="translate(71,60)"/>
<path d="M0,0 L3,0 L3,2 L-1,3 L-1,6 L-8,7 L-7,3 L-5,3 L-5,1 Z " fill="#5E646B" transform="translate(130,34)"/>
<path d="M0,0 L5,1 L3,2 L6,8 L5,11 L4,8 L1,9 L0,6 Z " fill="#464C53" transform="translate(106,12)"/>
<path d="M0,0 L6,2 L6,4 L2,4 L2,2 L0,2 L0,6 L6,8 L3,9 L0,8 L0,10 L-2,10 L-2,3 Z " fill="#4A5459" transform="translate(32,58)"/>
<path d="M0,0 L4,1 L2,1 L2,3 L7,4 L7,7 L2,7 L2,5 L-2,5 L-3,1 Z " fill="#11121A" transform="translate(99,46)"/>
<path d="M0,0 L4,4 L8,6 L8,8 L3,8 L3,6 L-8,7 L-7,5 L0,5 Z " fill="#565C63" transform="translate(119,65)"/>
<path d="M0,0 L7,0 L12,2 L12,5 L4,3 L3,5 L1,4 L2,2 L0,2 Z " fill="#454D54" transform="translate(28,56)"/>
<path d="M0,0 L1,2 L-1,2 L-2,6 L-9,8 L-10,10 L-14,9 L-14,7 L-7,4 L-3,4 L-2,1 Z " fill="#20242B" transform="translate(139,36)"/>
<path d="M0,0 L1,4 L-3,8 L-5,8 L-5,2 Z " fill="#2E323A" transform="translate(50,29)"/>
<path d="M0,0 L1,2 L8,3 L13,7 L15,9 L9,8 L0,3 Z " fill="#161E24" transform="translate(0,50)"/>
<path d="M0,0 L19,0 L16,4 L14,4 L13,2 L9,1 L10,5 L8,5 L8,1 L0,1 Z " fill="#2C343A" transform="translate(97,11)"/>
<path d="M0,0 L7,0 L13,2 L13,5 L8,4 L8,2 L2,2 Z " fill="#50565E" transform="translate(90,11)"/>
<path d="M0,0 L5,3 L4,8 L-1,8 Z " fill="#525D62" transform="translate(74,76)"/>
<path d="M0,0 L6,1 L7,6 L9,6 L9,9 L6,9 L6,6 L4,6 L4,3 L2,3 L2,1 Z " fill="#2D3037" transform="translate(105,23)"/>
<path d="M0,0 L4,0 L4,5 L0,7 L-1,7 L-1,1 Z " fill="#465052" transform="translate(41,9)"/>
<path d="M0,0 L6,0 L7,7 L5,7 L3,4 L0,3 Z " fill="#0F131A" transform="translate(113,3)"/>
<path d="M0,0 L2,0 L2,2 L6,2 L6,8 L1,8 L3,7 L2,3 L0,3 Z " fill="#465154" transform="translate(144,76)"/>
<path d="M0,0 L1,0 L1,7 L-4,11 L-3,3 L-1,3 Z " fill="#1F262D" transform="translate(149,24)"/>
<path d="M0,0 L12,1 L12,4 L4,3 L0,2 Z " fill="#1B2026" transform="translate(46,52)"/>
<path d="M0,0 L3,1 L-2,2 L-2,4 L0,4 L0,6 L-9,8 L-6,5 L-4,5 L-3,1 Z " fill="#3C4148" transform="translate(127,41)"/>
<path d="M0,0 L6,1 L3,4 L-1,2 Z M6,0 L11,0 L10,4 L8,3 L8,1 Z " fill="#555F64" transform="translate(108,77)"/>
<path d="M0,0 L4,2 L8,0 L8,5 L5,6 L1,5 L-1,1 Z " fill="#4D545B" transform="translate(114,14)"/>
<path d="M0,0 L3,0 L3,5 L-2,7 L-2,5 L-6,3 L-4,1 L-3,3 L1,4 Z " fill="#40464D" transform="translate(102,12)"/>
<path d="M0,0 L1,4 L-1,6 L-7,7 L-6,4 L-1,4 L-1,2 L-7,2 L-7,1 Z " fill="#12151C" transform="translate(100,53)"/>
<path d="M0,0 L1,2 L3,3 L-1,5 L-2,7 L-9,8 L-9,6 L-4,5 L-2,1 Z " fill="#2E353A" transform="translate(46,13)"/>
<path d="M0,0 L9,0 L8,4 L6,6 L3,6 L3,4 L6,1 L0,1 Z " fill="#485057" transform="translate(113,71)"/>
<path d="M0,0 L4,0 L4,2 L-1,2 L-2,7 L-7,7 L-7,5 L-3,3 Z " fill="#0C1118" transform="translate(52,32)"/>
<path d="M0,0 L5,1 L5,5 L0,5 Z " fill="#707F82" transform="translate(93,68)"/>
<path d="M0,0 L7,0 L7,3 L-1,3 Z " fill="#3B4147" transform="translate(84,56)"/>
<path d="M0,0 L5,0 L4,2 L8,3 L8,5 L1,4 Z " fill="#10171D" transform="translate(13,49)"/>
<path d="M0,0 L2,0 L2,5 L0,7 L-1,11 L-5,10 L-1,5 Z " fill="#2E3138" transform="translate(112,34)"/>
<path d="M0,0 L3,0 L3,3 L-8,4 L-8,2 Z " fill="#2C2F36" transform="translate(68,23)"/>
<path d="M0,0 L2,0 L2,2 L8,2 L9,5 L7,5 L7,3 L-1,3 L-2,6 L-2,1 Z " fill="#171A21" transform="translate(63,46)"/>
<path d="M0,0 L1,4 L3,5 L2,7 L0,7 L0,9 L-2,9 L-2,4 Z " fill="#4A545B" transform="translate(135,21)"/>
<path d="M0,0 L4,2 L4,6 L-1,4 L-1,1 Z " fill="#575D64" transform="translate(116,20)"/>
<path d="M0,0 L1,4 L2,6 L-3,7 L-3,3 Z " fill="#090D14" transform="translate(25,17)"/>
<path d="M0,0 L5,0 L5,2 L8,3 L-1,4 Z " fill="#1A1D25" transform="translate(101,53)"/>
<path d="M0,0 L5,0 L7,6 L4,5 L4,3 L-2,2 Z " fill="#10141C" transform="translate(49,62)"/>
<path d="M0,0 L5,1 L6,3 L10,5 L10,6 L3,5 L3,2 Z " fill="#101219" transform="translate(66,53)"/>
<path d="M0,0 L8,0 L8,2 L0,3 Z " fill="#484B53" transform="translate(75,24)"/>
<path d="M0,0 L1,4 L-3,7 L-4,2 L0,2 Z " fill="#30393F" transform="translate(126,13)"/>
<path d="M0,0 L3,1 L4,7 L1,7 Z " fill="#323F43" transform="translate(94,77)"/>
<path d="M0,0 L2,0 L2,5 L-1,9 L-2,7 Z " fill="#12141C" transform="translate(110,34)"/>
<path d="M0,0 L6,0 L5,2 L-3,4 L-3,1 Z " fill="#1F232A" transform="translate(61,35)"/>
<path d="M0,0 L1,3 L5,3 L5,5 L-1,5 L-1,1 Z " fill="#21232B" transform="translate(32,18)"/>
<path d="M0,0 L3,2 L3,6 L5,6 L4,8 L2,7 L2,3 L-5,2 L-5,1 Z " fill="#20232A" transform="translate(102,18)"/>
<path d="M0,0 L3,4 L3,6 L1,6 L1,4 L-6,4 L-3,2 L0,2 Z " fill="#1F262B" transform="translate(59,10)"/>
<path d="M0,0 L5,1 L4,5 L0,3 L-2,3 L-2,1 Z " fill="#666E75" transform="translate(47,66)"/>
<path d="M0,0 L7,1 L7,3 L2,4 L0,3 Z " fill="#2D3138" transform="translate(62,49)"/>
<path d="M0,0 L3,1 L-2,6 L-4,7 L-4,4 Z " fill="#10121A" transform="translate(78,34)"/>
<path d="M0,0 L5,1 L5,3 L1,4 L0,8 Z " fill="#0C0F17" transform="translate(44,27)"/>
<path d="M0,0 L2,1 L2,3 L6,4 L6,6 L0,6 Z " fill="#14171F" transform="translate(89,12)"/>
<path d="M0,0 L4,1 L7,2 L7,4 L2,5 Z " fill="#20262D" transform="translate(49,28)"/>
<path d="M0,0 L2,0 L2,7 L-3,7 L1,2 L-1,1 Z " fill="#42484F" transform="translate(148,16)"/>
<path d="M0,0 L2,4 L4,8 L0,8 Z " fill="#080C12" transform="translate(122,7)"/>
<path d="M0,0 L5,1 L3,2 L4,5 L1,5 Z " fill="#50595F" transform="translate(106,12)"/>
<path d="M0,0 L4,1 L4,3 L-1,4 Z " fill="#566064" transform="translate(143,80)"/>
<path d="M0,0 L5,0 L0,5 L0,3 L-2,2 Z " fill="#090C14" transform="translate(131,42)"/>
<path d="M0,0 L5,0 L3,5 L0,4 Z " fill="#60666C" transform="translate(122,0)"/>
<path d="M0,0 L5,0 L4,5 L1,5 Z " fill="#475256" transform="translate(106,72)"/>
<path d="M0,0 L6,2 L7,4 L1,3 Z " fill="#41494F" transform="translate(0,53)"/>
<path d="M0,0 L6,0 L5,3 L0,2 Z " fill="#0A0D14" transform="translate(65,37)"/>
<path d="M0,0 L5,2 L6,4 L0,3 Z " fill="#373C43" transform="translate(114,24)"/>
<path d="M0,0 L5,2 L6,4 L1,4 Z " fill="#2C2F36" transform="translate(67,59)"/>
<path d="M0,0 L1,3 L-1,3 L-2,7 L-3,7 L-3,2 Z " fill="#4D5259" transform="translate(138,34)"/>
<path d="M0,0 L2,0 L2,6 L-1,4 Z " fill="#6E767C" transform="translate(136,30)"/>
<path d="M0,0 L4,1 L3,4 L-1,3 Z " fill="#5F666C" transform="translate(48,12)"/>
<path d="M0,0 L4,2 L4,4 L0,4 Z " fill="#2D2F37" transform="translate(72,52)"/>
<path d="M0,0 L4,1 L-3,4 L-2,1 Z " fill="#14171E" transform="translate(47,16)"/>
<path d="M0,0 L5,1 L5,4 L1,3 Z " fill="#333940" transform="translate(35,57)"/>
<path d="M0,0 L5,1 L2,2 L1,4 Z " fill="#2D353B" transform="translate(22,51)"/>
<path d="M0,0 L1,2 L-1,2 L-2,5 L-4,5 L-4,2 Z " fill="#555961" transform="translate(133,35)"/>
<path d="M0,0 L2,0 L0,4 L-3,3 L-2,1 Z " fill="#23282F" transform="translate(136,64)"/>
<path d="M0,0 L2,0 L2,2 L4,3 L-1,4 Z " fill="#070B12" transform="translate(138,38)"/>
<path d="M0,0 L4,1 L4,3 L-1,3 Z " fill="#292D34" transform="translate(85,25)"/>
<path d="M0,0 L4,0 L4,3 L0,2 Z " fill="#1E2128" transform="translate(53,24)"/>
<path d="M0,0 L2,0 L2,5 L-2,2 L0,2 Z " fill="#4C575C" transform="translate(148,11)"/>
<path d="M0,0 L3,1 L1,6 L0,6 Z " fill="#3D4148" transform="translate(120,0)"/>
<path d="M0,0 L4,1 L3,4 L1,4 Z " fill="#424D51" transform="translate(129,80)"/>
<path d="M0,0 L4,1 L3,3 L0,3 Z " fill="#33373F" transform="translate(106,52)"/>
<path d="M0,0 L4,1 L4,3 L0,2 Z " fill="#666D75" transform="translate(39,62)"/>
<path d="M0,0 L2,0 L1,4 L-1,4 Z " fill="#5A6067" transform="translate(123,37)"/>
<path d="M0,0 L1,2 L3,3 L-1,4 Z " fill="#272C32" transform="translate(46,13)"/>
<path d="M0,0 L3,1 L0,4 Z " fill="#7D898D" transform="translate(81,76)"/>
<path d="M0,0 L3,1 L-1,3 Z " fill="#22262D" transform="translate(101,54)"/>
<path d="M0,0 L3,0 L3,3 L0,2 Z " fill="#292F35" transform="translate(25,19)"/>
<path d="M0,0 L2,1 L1,4 L-1,3 Z " fill="#697077" transform="translate(114,18)"/>
<path d="M0,0 L3,0 L2,3 L0,2 Z " fill="#5E686E" transform="translate(116,78)"/>
<path d="M0,0 L2,2 L-1,2 Z " fill="#252930" transform="translate(108,42)"/>
</svg>
