<?xml version="1.0" encoding="UTF-8"?>
<!-- Generator: visioncortex VTracer 0.6.5 -->
<svg version="1.1" xmlns="http://www.w3.org/2000/svg" width="92" height="100">
<path d="M0,0 L4,0 L3,5 L-13,38 L-22,57 L-25,58 L-38,39 L-50,22 L-60,8 L-60,6 Z " fill="#13891E" transform="translate(67,21)"/>
<path d="M0,0 L2,1 L-5,3 L-30,9 L-31,13 L-28,32 L-26,40 L-26,50 L-24,50 L-24,56 L-27,55 L-38,39 L-50,22 L-60,8 L-60,6 Z " fill="#057213" transform="translate(67,21)"/>
<path d="M0,0 L2,1 L-5,3 L-30,9 L-44,9 L-56,7 L-56,6 L-39,4 Z " fill="#010D02" transform="translate(67,21)"/>
<path d="M0,0 L2,1 L-5,3 L-19,6 L-20,2 Z " fill="#031E05" transform="translate(67,21)"/>
</svg>
