<?xml version="1.0" encoding="UTF-8"?>
<svg xmlns="http://www.w3.org/2000/svg" viewBox="0 0 320 320" width="240" height="240">
  <style>rect{shape-rendering:crispEdges}</style>
  <g fill="#c89a00">
    <rect x="70" y="0" width="10" height="10"/>
    <rect x="70" y="10" width="10" height="10"/>
    <rect x="50" y="20" width="20" height="10"/>
    <rect x="130" y="20" width="10" height="10"/>
    <rect x="190" y="20" width="10" height="10"/>
    <rect x="50" y="30" width="10" height="10"/>
    <rect x="130" y="30" width="10" height="10"/>
    <rect x="30" y="40" width="20" height="10"/>
    <rect x="130" y="40" width="10" height="10"/>
    <rect x="210" y="40" width="10" height="10"/>
    <rect x="30" y="50" width="10" height="10"/>
    <rect x="130" y="50" width="10" height="10"/>
    <rect x="30" y="60" width="10" height="10"/>
    <rect x="90" y="60" width="40" height="10"/>
    <rect x="30" y="70" width="10" height="10"/>
    <rect x="30" y="80" width="10" height="10"/>
    <rect x="50" y="100" width="10" height="10"/>
    <rect x="70" y="120" width="10" height="10"/>
    <rect x="130" y="120" width="10" height="10"/>
    <rect x="70" y="130" width="10" height="10"/>
    <rect x="130" y="130" width="10" height="10"/>
    <rect x="70" y="140" width="10" height="10"/>
    <rect x="230" y="140" width="10" height="10"/>
    <rect x="90" y="160" width="10" height="10"/>
    <rect x="250" y="160" width="10" height="10"/>
    <rect x="110" y="180" width="10" height="10"/>
    <rect x="270" y="180" width="10" height="10"/>
    <rect x="110" y="190" width="10" height="10"/>
    <rect x="110" y="200" width="10" height="10"/>
    <rect x="250" y="200" width="10" height="10"/>
    <rect x="110" y="210" width="10" height="10"/>
    <rect x="110" y="220" width="10" height="10"/>
    <rect x="150" y="220" width="40" height="10"/>
    <rect x="130" y="240" width="10" height="10"/>
  </g>
  <g fill="#c69900">
    <rect x="80" y="0" width="110" height="10"/>
    <rect x="80" y="10" width="10" height="10"/>
    <rect x="130" y="10" width="60" height="10"/>
    <rect x="70" y="20" width="10" height="10"/>
    <rect x="140" y="20" width="50" height="10"/>
    <rect x="200" y="20" width="10" height="10"/>
    <rect x="60" y="30" width="20" height="10"/>
    <rect x="140" y="30" width="70" height="10"/>
    <rect x="50" y="40" width="30" height="10"/>
    <rect x="140" y="40" width="70" height="10"/>
    <rect x="220" y="40" width="10" height="10"/>
    <rect x="40" y="50" width="40" height="10"/>
    <rect x="140" y="50" width="40" height="10"/>
    <rect x="40" y="60" width="50" height="10"/>
    <rect x="130" y="60" width="50" height="10"/>
    <rect x="40" y="70" width="140" height="10"/>
    <rect x="40" y="80" width="140" height="10"/>
    <rect x="50" y="90" width="130" height="10"/>
    <rect x="60" y="100" width="170" height="10"/>
    <rect x="70" y="110" width="40" height="10"/>
    <rect x="130" y="110" width="100" height="10"/>
    <rect x="80" y="120" width="30" height="10"/>
    <rect x="140" y="120" width="90" height="10"/>
    <rect x="80" y="130" width="30" height="10"/>
    <rect x="140" y="130" width="90" height="10"/>
    <rect x="80" y="140" width="150" height="10"/>
    <rect x="240" y="140" width="10" height="10"/>
    <rect x="90" y="150" width="160" height="10"/>
    <rect x="100" y="160" width="150" height="10"/>
    <rect x="260" y="160" width="10" height="10"/>
    <rect x="110" y="170" width="30" height="10"/>
    <rect x="190" y="170" width="50" height="10"/>
    <rect x="120" y="180" width="20" height="10"/>
    <rect x="190" y="180" width="50" height="10"/>
    <rect x="280" y="180" width="10" height="10"/>
    <rect x="120" y="190" width="20" height="10"/>
    <rect x="190" y="190" width="50" height="10"/>
    <rect x="270" y="190" width="20" height="10"/>
    <rect x="120" y="200" width="20" height="10"/>
    <rect x="190" y="200" width="60" height="10"/>
    <rect x="260" y="200" width="30" height="10"/>
    <rect x="120" y="210" width="20" height="10"/>
    <rect x="190" y="210" width="100" height="10"/>
    <rect x="120" y="220" width="30" height="10"/>
    <rect x="190" y="220" width="100" height="10"/>
    <rect x="130" y="230" width="130" height="10"/>
    <rect x="140" y="240" width="120" height="10"/>
  </g>
  <g fill="#bc9204">
    <rect x="90" y="10" width="40" height="10"/>
    <rect x="70" y="150" width="10" height="10"/>
    <rect x="240" y="170" width="10" height="10"/>
    <rect x="140" y="180" width="10" height="10"/>
    <rect x="140" y="190" width="10" height="10"/>
    <rect x="140" y="200" width="10" height="10"/>
    <rect x="140" y="210" width="10" height="10"/>
  </g>
  <g fill="#c39701">
    <rect x="80" y="20" width="10" height="10"/>
    <rect x="80" y="30" width="10" height="10"/>
    <rect x="80" y="40" width="10" height="10"/>
    <rect x="80" y="50" width="10" height="10"/>
    <rect x="180" y="50" width="10" height="10"/>
    <rect x="140" y="170" width="10" height="10"/>
    <rect x="260" y="230" width="10" height="10"/>
  </g>
  <g fill="#3b3730">
    <rect x="90" y="20" width="10" height="10"/>
    <rect x="90" y="30" width="10" height="10"/>
    <rect x="90" y="40" width="10" height="10"/>
    <rect x="190" y="60" width="30" height="10"/>
    <rect x="110" y="120" width="10" height="10"/>
    <rect x="150" y="180" width="10" height="10"/>
    <rect x="150" y="190" width="10" height="10"/>
    <rect x="150" y="200" width="10" height="10"/>
  </g>
  <g fill="#3c372f">
    <rect x="100" y="20" width="20" height="10"/>
    <rect x="190" y="70" width="10" height="10"/>
    <rect x="190" y="80" width="10" height="10"/>
    <rect x="50" y="120" width="10" height="10"/>
    <rect x="70" y="160" width="10" height="10"/>
    <rect x="90" y="180" width="10" height="10"/>
    <rect x="160" y="180" width="20" height="10"/>
    <rect x="250" y="180" width="10" height="10"/>
    <rect x="110" y="240" width="10" height="10"/>
    <rect x="270" y="240" width="10" height="10"/>
    <rect x="270" y="250" width="10" height="10"/>
    <rect x="140" y="260" width="130" height="10"/>
  </g>
  <g fill="#4b422a">
    <rect x="120" y="20" width="10" height="10"/>
    <rect x="90" y="50" width="30" height="10"/>
    <rect x="120" y="120" width="10" height="10"/>
    <rect x="260" y="180" width="10" height="10"/>
    <rect x="150" y="210" width="30" height="10"/>
  </g>
  <g fill="#3d382f">
    <rect x="100" y="30" width="20" height="10"/>
    <rect x="100" y="40" width="20" height="10"/>
    <rect x="220" y="60" width="10" height="10"/>
    <rect x="200" y="70" width="30" height="10"/>
    <rect x="200" y="80" width="30" height="10"/>
    <rect x="220" y="90" width="10" height="10"/>
    <rect x="30" y="100" width="20" height="10"/>
    <rect x="30" y="110" width="20" height="10"/>
    <rect x="30" y="120" width="20" height="10"/>
    <rect x="30" y="130" width="30" height="10"/>
    <rect x="30" y="140" width="30" height="10"/>
    <rect x="30" y="150" width="30" height="10"/>
    <rect x="30" y="160" width="40" height="10"/>
    <rect x="30" y="170" width="50" height="10"/>
    <rect x="60" y="180" width="30" height="10"/>
    <rect x="100" y="180" width="10" height="10"/>
    <rect x="60" y="190" width="50" height="10"/>
    <rect x="160" y="190" width="20" height="10"/>
    <rect x="60" y="200" width="50" height="10"/>
    <rect x="160" y="200" width="20" height="10"/>
    <rect x="50" y="210" width="60" height="10"/>
    <rect x="80" y="220" width="30" height="10"/>
    <rect x="70" y="230" width="40" height="10"/>
    <rect x="100" y="240" width="10" height="10"/>
    <rect x="280" y="240" width="10" height="10"/>
    <rect x="100" y="250" width="20" height="10"/>
    <rect x="280" y="250" width="10" height="10"/>
    <rect x="100" y="260" width="40" height="10"/>
    <rect x="270" y="260" width="20" height="10"/>
    <rect x="100" y="270" width="190" height="10"/>
    <rect x="100" y="280" width="190" height="10"/>
    <rect x="90" y="290" width="200" height="10"/>
    <rect x="110" y="300" width="160" height="10"/>
    <rect x="110" y="310" width="160" height="10"/>
  </g>
  <g fill="#564a26">
    <rect x="120" y="30" width="10" height="10"/>
    <rect x="120" y="40" width="10" height="10"/>
    <rect x="190" y="90" width="30" height="10"/>
    <rect x="110" y="130" width="10" height="10"/>
    <rect x="180" y="180" width="10" height="10"/>
    <rect x="180" y="190" width="10" height="10"/>
    <rect x="250" y="190" width="10" height="10"/>
    <rect x="180" y="200" width="10" height="10"/>
    <rect x="280" y="230" width="10" height="10"/>
  </g>
  <rect fill="#5f5023" x="120" y="50" width="10" height="10"/>
  <g fill="#b88f05">
    <rect x="190" y="50" width="30" height="10"/>
    <rect x="50" y="110" width="20" height="10"/>
    <rect x="110" y="110" width="20" height="10"/>
    <rect x="80" y="150" width="10" height="10"/>
  </g>
  <rect fill="#c19602" x="220" y="50" width="10" height="10"/>
  <g fill="#ac8609">
    <rect x="180" y="60" width="10" height="10"/>
    <rect x="180" y="70" width="10" height="10"/>
    <rect x="180" y="80" width="10" height="10"/>
    <rect x="30" y="90" width="20" height="10"/>
    <rect x="240" y="190" width="10" height="10"/>
    <rect x="130" y="250" width="60" height="10"/>
    <rect x="210" y="250" width="20" height="10"/>
    <rect x="240" y="250" width="20" height="10"/>
  </g>
  <g fill="#b38b07">
    <rect x="180" y="90" width="10" height="10"/>
    <rect x="260" y="240" width="10" height="10"/>
    <rect x="190" y="250" width="20" height="10"/>
    <rect x="230" y="250" width="10" height="10"/>
  </g>
  <g fill="#443d2c">
    <rect x="60" y="120" width="10" height="10"/>
    <rect x="60" y="130" width="10" height="10"/>
    <rect x="60" y="140" width="10" height="10"/>
    <rect x="60" y="150" width="10" height="10"/>
    <rect x="80" y="160" width="10" height="10"/>
    <rect x="80" y="170" width="10" height="10"/>
  </g>
  <g fill="#645421">
    <rect x="120" y="130" width="10" height="10"/>
    <rect x="260" y="190" width="10" height="10"/>
    <rect x="180" y="210" width="10" height="10"/>
  </g>
  <g fill="#a17e0d">
    <rect x="90" y="170" width="10" height="10"/>
    <rect x="260" y="250" width="10" height="10"/>
  </g>
  <g fill="#9e7c0e">
    <rect x="100" y="170" width="10" height="10"/>
    <rect x="150" y="170" width="30" height="10"/>
    <rect x="250" y="170" width="10" height="10"/>
  </g>
  <g fill="#ab8609">
    <rect x="180" y="170" width="10" height="10"/>
    <rect x="240" y="180" width="10" height="10"/>
    <rect x="110" y="230" width="20" height="10"/>
    <rect x="270" y="230" width="10" height="10"/>
  </g>
  <rect fill="#896d15" x="260" y="170" width="10" height="10"/>
  <g fill="#3e3930">
    <rect x="50" y="180" width="10" height="10"/>
    <rect x="50" y="190" width="10" height="10"/>
    <rect x="50" y="200" width="10" height="10"/>
    <rect x="70" y="220" width="10" height="10"/>
    <rect x="90" y="240" width="10" height="10"/>
    <rect x="90" y="250" width="10" height="10"/>
    <rect x="90" y="260" width="10" height="10"/>
    <rect x="90" y="270" width="10" height="10"/>
    <rect x="90" y="280" width="10" height="10"/>
  </g>
  <g fill="#4a412a">
    <rect x="120" y="240" width="10" height="10"/>
    <rect x="120" y="250" width="10" height="10"/>
  </g>
</svg>
