<?xml version="1.0" encoding="UTF-8"?>
<svg xmlns="http://www.w3.org/2000/svg" viewBox="0 0 270 320" width="60" height="60">
  <style>rect{shape-rendering:crispEdges}</style>
  <g fill="#5c5c5c">
    <rect x="0" y="0" width="10" height="10"/>
    <rect x="110" y="0" width="10" height="10"/>
    <rect x="150" y="0" width="10" height="10"/>
    <rect x="260" y="0" width="10" height="10"/>
  </g>
  <g fill="#636362">
    <rect x="10" y="0" width="100" height="10"/>
    <rect x="160" y="0" width="100" height="10"/>
  </g>
  <rect fill="#777770" x="120" y="0" width="30" height="10"/>
  <g fill="#5c5d5d">
    <rect x="0" y="10" width="10" height="10"/>
    <rect x="110" y="10" width="10" height="10"/>
    <rect x="260" y="10" width="10" height="10"/>
    <rect x="0" y="20" width="10" height="10"/>
    <rect x="110" y="20" width="10" height="10"/>
    <rect x="260" y="20" width="10" height="10"/>
    <rect x="0" y="30" width="10" height="10"/>
    <rect x="260" y="30" width="10" height="10"/>
    <rect x="0" y="40" width="10" height="10"/>
    <rect x="260" y="40" width="10" height="10"/>
    <rect x="0" y="50" width="10" height="10"/>
    <rect x="260" y="50" width="10" height="10"/>
    <rect x="0" y="60" width="10" height="10"/>
    <rect x="260" y="60" width="10" height="10"/>
    <rect x="0" y="70" width="10" height="10"/>
    <rect x="260" y="70" width="10" height="10"/>
    <rect x="0" y="80" width="10" height="10"/>
    <rect x="260" y="80" width="10" height="10"/>
    <rect x="0" y="90" width="10" height="10"/>
    <rect x="260" y="90" width="10" height="10"/>
    <rect x="0" y="100" width="10" height="10"/>
    <rect x="260" y="100" width="10" height="10"/>
    <rect x="0" y="110" width="10" height="10"/>
    <rect x="260" y="110" width="10" height="10"/>
    <rect x="0" y="120" width="10" height="10"/>
    <rect x="260" y="120" width="10" height="10"/>
    <rect x="0" y="150" width="40" height="10"/>
    <rect x="250" y="150" width="20" height="10"/>
    <rect x="0" y="160" width="20" height="10"/>
    <rect x="110" y="160" width="10" height="10"/>
    <rect x="250" y="160" width="20" height="10"/>
    <rect x="0" y="170" width="10" height="10"/>
    <rect x="110" y="170" width="10" height="10"/>
    <rect x="260" y="170" width="10" height="10"/>
    <rect x="0" y="180" width="10" height="10"/>
    <rect x="110" y="180" width="10" height="10"/>
    <rect x="260" y="180" width="10" height="10"/>
    <rect x="0" y="190" width="10" height="10"/>
    <rect x="110" y="190" width="10" height="10"/>
    <rect x="260" y="190" width="10" height="10"/>
    <rect x="0" y="200" width="10" height="10"/>
    <rect x="110" y="200" width="10" height="10"/>
    <rect x="260" y="200" width="10" height="10"/>
    <rect x="0" y="210" width="10" height="10"/>
    <rect x="110" y="210" width="10" height="10"/>
    <rect x="260" y="210" width="10" height="10"/>
    <rect x="0" y="220" width="10" height="10"/>
    <rect x="110" y="220" width="10" height="10"/>
    <rect x="150" y="220" width="10" height="10"/>
    <rect x="260" y="220" width="10" height="10"/>
    <rect x="0" y="230" width="10" height="10"/>
    <rect x="110" y="230" width="10" height="10"/>
    <rect x="150" y="230" width="10" height="10"/>
    <rect x="260" y="230" width="10" height="10"/>
    <rect x="0" y="240" width="10" height="10"/>
    <rect x="110" y="240" width="10" height="10"/>
    <rect x="140" y="240" width="20" height="10"/>
    <rect x="260" y="240" width="10" height="10"/>
    <rect x="0" y="250" width="20" height="10"/>
    <rect x="100" y="250" width="20" height="10"/>
    <rect x="140" y="250" width="20" height="10"/>
    <rect x="250" y="250" width="20" height="10"/>
    <rect x="0" y="260" width="120" height="10"/>
    <rect x="140" y="260" width="130" height="10"/>
    <rect x="0" y="270" width="130" height="10"/>
    <rect x="140" y="270" width="130" height="10"/>
    <rect x="0" y="280" width="120" height="10"/>
    <rect x="150" y="280" width="120" height="10"/>
    <rect x="10" y="290" width="100" height="10"/>
    <rect x="150" y="290" width="110" height="10"/>
    <rect x="10" y="300" width="100" height="10"/>
    <rect x="160" y="300" width="100" height="10"/>
    <rect x="20" y="310" width="80" height="10"/>
    <rect x="170" y="310" width="80" height="10"/>
  </g>
  <g fill="#9ea8a0">
    <rect x="10" y="10" width="10" height="10"/>
    <rect x="250" y="10" width="10" height="10"/>
  </g>
  <g fill="#b4c5bc">
    <rect x="20" y="10" width="80" height="10"/>
    <rect x="170" y="10" width="80" height="10"/>
    <rect x="10" y="20" width="10" height="10"/>
    <rect x="90" y="20" width="10" height="10"/>
    <rect x="160" y="20" width="10" height="10"/>
    <rect x="250" y="20" width="10" height="10"/>
    <rect x="10" y="30" width="10" height="10"/>
    <rect x="160" y="30" width="10" height="10"/>
    <rect x="250" y="30" width="10" height="10"/>
    <rect x="10" y="40" width="10" height="10"/>
    <rect x="160" y="40" width="10" height="10"/>
    <rect x="250" y="40" width="10" height="10"/>
    <rect x="10" y="50" width="10" height="10"/>
    <rect x="160" y="50" width="10" height="10"/>
    <rect x="250" y="50" width="10" height="10"/>
    <rect x="10" y="60" width="10" height="10"/>
    <rect x="160" y="60" width="10" height="10"/>
    <rect x="250" y="60" width="10" height="10"/>
    <rect x="10" y="70" width="10" height="10"/>
    <rect x="30" y="70" width="10" height="10"/>
    <rect x="160" y="70" width="10" height="10"/>
    <rect x="250" y="70" width="10" height="10"/>
    <rect x="10" y="80" width="10" height="10"/>
    <rect x="160" y="80" width="10" height="10"/>
    <rect x="250" y="80" width="10" height="10"/>
    <rect x="10" y="90" width="90" height="10"/>
    <rect x="180" y="90" width="80" height="10"/>
    <rect x="240" y="100" width="10" height="10"/>
    <rect x="20" y="160" width="50" height="10"/>
    <rect x="170" y="160" width="50" height="10"/>
    <rect x="10" y="170" width="10" height="10"/>
    <rect x="160" y="170" width="10" height="10"/>
    <rect x="240" y="170" width="20" height="10"/>
    <rect x="10" y="180" width="10" height="10"/>
    <rect x="160" y="180" width="10" height="10"/>
    <rect x="250" y="180" width="10" height="10"/>
    <rect x="10" y="190" width="10" height="10"/>
    <rect x="160" y="190" width="10" height="10"/>
    <rect x="250" y="190" width="10" height="10"/>
    <rect x="10" y="200" width="10" height="10"/>
    <rect x="160" y="200" width="10" height="10"/>
    <rect x="250" y="200" width="10" height="10"/>
    <rect x="10" y="210" width="10" height="10"/>
    <rect x="160" y="210" width="10" height="10"/>
    <rect x="250" y="210" width="10" height="10"/>
    <rect x="10" y="220" width="10" height="10"/>
    <rect x="160" y="220" width="10" height="10"/>
    <rect x="250" y="220" width="10" height="10"/>
    <rect x="10" y="230" width="10" height="10"/>
    <rect x="30" y="230" width="40" height="10"/>
    <rect x="160" y="230" width="10" height="10"/>
    <rect x="180" y="230" width="40" height="10"/>
    <rect x="250" y="230" width="10" height="10"/>
    <rect x="10" y="240" width="90" height="10"/>
    <rect x="160" y="240" width="100" height="10"/>
    <rect x="20" y="250" width="80" height="10"/>
    <rect x="170" y="250" width="80" height="10"/>
  </g>
  <rect fill="#b3b6ab" x="100" y="10" width="10" height="10"/>
  <g fill="#7a7871">
    <rect x="120" y="10" width="40" height="10"/>
    <rect x="120" y="20" width="40" height="10"/>
    <rect x="110" y="30" width="50" height="10"/>
    <rect x="110" y="40" width="50" height="10"/>
    <rect x="110" y="50" width="50" height="10"/>
    <rect x="110" y="60" width="50" height="10"/>
    <rect x="110" y="70" width="50" height="10"/>
    <rect x="110" y="80" width="20" height="10"/>
    <rect x="140" y="80" width="20" height="10"/>
    <rect x="110" y="90" width="20" height="10"/>
    <rect x="140" y="90" width="20" height="10"/>
    <rect x="10" y="100" width="10" height="10"/>
    <rect x="100" y="100" width="30" height="10"/>
    <rect x="140" y="100" width="20" height="10"/>
    <rect x="250" y="100" width="10" height="10"/>
    <rect x="10" y="110" width="120" height="10"/>
    <rect x="140" y="110" width="120" height="10"/>
    <rect x="10" y="120" width="120" height="10"/>
    <rect x="140" y="120" width="120" height="10"/>
    <rect x="0" y="130" width="120" height="10"/>
    <rect x="140" y="130" width="120" height="10"/>
    <rect x="0" y="140" width="120" height="10"/>
    <rect x="140" y="140" width="120" height="10"/>
    <rect x="40" y="150" width="90" height="10"/>
    <rect x="140" y="150" width="100" height="10"/>
    <rect x="100" y="160" width="10" height="10"/>
    <rect x="120" y="160" width="10" height="10"/>
    <rect x="140" y="160" width="20" height="10"/>
    <rect x="120" y="170" width="10" height="10"/>
    <rect x="140" y="170" width="20" height="10"/>
    <rect x="120" y="180" width="10" height="10"/>
    <rect x="140" y="180" width="20" height="10"/>
    <rect x="120" y="190" width="40" height="10"/>
    <rect x="120" y="200" width="40" height="10"/>
    <rect x="130" y="210" width="30" height="10"/>
    <rect x="130" y="220" width="20" height="10"/>
    <rect x="130" y="230" width="20" height="10"/>
    <rect x="130" y="240" width="10" height="10"/>
    <rect x="130" y="250" width="10" height="10"/>
    <rect x="130" y="260" width="10" height="10"/>
    <rect x="130" y="270" width="10" height="10"/>
  </g>
  <rect fill="#acbbb3" x="160" y="10" width="10" height="10"/>
  <g fill="#5f8995">
    <rect x="20" y="20" width="10" height="10"/>
    <rect x="20" y="170" width="10" height="10"/>
  </g>
  <g fill="#d6dbce">
    <rect x="30" y="20" width="60" height="10"/>
    <rect x="100" y="20" width="10" height="10"/>
    <rect x="180" y="20" width="60" height="10"/>
    <rect x="20" y="30" width="90" height="10"/>
    <rect x="170" y="30" width="70" height="10"/>
    <rect x="20" y="40" width="90" height="10"/>
    <rect x="170" y="40" width="70" height="10"/>
    <rect x="20" y="50" width="90" height="10"/>
    <rect x="170" y="50" width="70" height="10"/>
    <rect x="20" y="60" width="90" height="10"/>
    <rect x="170" y="60" width="70" height="10"/>
    <rect x="20" y="70" width="10" height="10"/>
    <rect x="40" y="70" width="70" height="10"/>
    <rect x="170" y="70" width="70" height="10"/>
    <rect x="80" y="80" width="10" height="10"/>
    <rect x="100" y="80" width="10" height="10"/>
    <rect x="180" y="80" width="60" height="10"/>
    <rect x="100" y="90" width="10" height="10"/>
    <rect x="130" y="90" width="10" height="10"/>
    <rect x="160" y="90" width="10" height="10"/>
    <rect x="20" y="100" width="80" height="10"/>
    <rect x="130" y="100" width="10" height="10"/>
    <rect x="170" y="100" width="70" height="10"/>
    <rect x="130" y="110" width="10" height="10"/>
    <rect x="130" y="120" width="10" height="10"/>
    <rect x="130" y="130" width="10" height="10"/>
    <rect x="130" y="140" width="10" height="10"/>
    <rect x="130" y="150" width="10" height="10"/>
    <rect x="70" y="160" width="30" height="10"/>
    <rect x="130" y="160" width="10" height="10"/>
    <rect x="220" y="160" width="20" height="10"/>
    <rect x="30" y="170" width="80" height="10"/>
    <rect x="130" y="170" width="10" height="10"/>
    <rect x="180" y="170" width="60" height="10"/>
    <rect x="20" y="180" width="90" height="10"/>
    <rect x="130" y="180" width="10" height="10"/>
    <rect x="170" y="180" width="70" height="10"/>
    <rect x="20" y="190" width="90" height="10"/>
    <rect x="170" y="190" width="70" height="10"/>
    <rect x="20" y="200" width="90" height="10"/>
    <rect x="170" y="200" width="70" height="10"/>
    <rect x="20" y="210" width="90" height="10"/>
    <rect x="170" y="210" width="70" height="10"/>
    <rect x="20" y="220" width="10" height="10"/>
    <rect x="40" y="220" width="70" height="10"/>
    <rect x="190" y="220" width="50" height="10"/>
    <rect x="20" y="230" width="10" height="10"/>
    <rect x="80" y="230" width="30" height="10"/>
    <rect x="220" y="230" width="10" height="10"/>
    <rect x="100" y="240" width="10" height="10"/>
  </g>
  <g fill="#c0cdc3">
    <rect x="170" y="20" width="10" height="10"/>
    <rect x="170" y="170" width="10" height="10"/>
  </g>
  <rect fill="#94aead" x="240" y="20" width="10" height="10"/>
  <g fill="#8ba8aa">
    <rect x="240" y="30" width="10" height="10"/>
    <rect x="240" y="40" width="10" height="10"/>
    <rect x="240" y="50" width="10" height="10"/>
    <rect x="240" y="60" width="10" height="10"/>
    <rect x="240" y="70" width="10" height="10"/>
    <rect x="240" y="180" width="10" height="10"/>
    <rect x="240" y="190" width="10" height="10"/>
    <rect x="240" y="200" width="10" height="10"/>
    <rect x="240" y="210" width="10" height="10"/>
    <rect x="240" y="220" width="10" height="10"/>
    <rect x="240" y="230" width="10" height="10"/>
  </g>
  <rect fill="#7d9da3" x="20" y="80" width="10" height="10"/>
  <g fill="#cdd5ca">
    <rect x="30" y="80" width="40" height="10"/>
    <rect x="30" y="220" width="10" height="10"/>
    <rect x="180" y="220" width="10" height="10"/>
  </g>
  <rect fill="#cfd7cb" x="70" y="80" width="10" height="10"/>
  <rect fill="#bccac0" x="90" y="80" width="10" height="10"/>
  <g fill="#bfc2b7">
    <rect x="130" y="80" width="10" height="10"/>
    <rect x="120" y="130" width="10" height="10"/>
    <rect x="120" y="140" width="10" height="10"/>
  </g>
  <rect fill="#c5d0c5" x="170" y="80" width="10" height="10"/>
  <rect fill="#8ba9aa" x="240" y="80" width="10" height="10"/>
  <g fill="#cad3c7">
    <rect x="170" y="90" width="10" height="10"/>
    <rect x="170" y="220" width="10" height="10"/>
    <rect x="170" y="230" width="10" height="10"/>
  </g>
  <rect fill="#b3b5ab" x="160" y="100" width="10" height="10"/>
  <rect fill="#676764" x="240" y="150" width="10" height="10"/>
  <rect fill="#9ea89f" x="160" y="160" width="10" height="10"/>
  <g fill="#b8c8be">
    <rect x="240" y="160" width="10" height="10"/>
    <rect x="70" y="230" width="10" height="10"/>
  </g>
  <g fill="#72716c">
    <rect x="120" y="210" width="10" height="10"/>
    <rect x="120" y="220" width="10" height="10"/>
    <rect x="120" y="230" width="10" height="10"/>
    <rect x="120" y="240" width="10" height="10"/>
    <rect x="120" y="250" width="10" height="10"/>
    <rect x="120" y="260" width="10" height="10"/>
  </g>
  <rect fill="#d1d8cc" x="230" y="230" width="10" height="10"/>
  <rect fill="#939e98" x="160" y="250" width="10" height="10"/>
  <rect fill="#5b5c5c" x="160" y="310" width="10" height="10"/>
</svg>
