<?xml version="1.0" encoding="UTF-8"?>
<!-- Generator: visioncortex VTracer 0.6.5 -->
<svg version="1.1" xmlns="http://www.w3.org/2000/svg" width="150" height="85">
<path d="M0,0 L150,0 L150,85 L0,85 Z " fill="#161419" transform="translate(0,0)"/>
<path d="M0,0 L37,0 L39,9 L41,10 L41,12 L43,12 L44,15 L35,19 L34,27 L39,29 L40,34 L33,38 L31,38 L31,31 L27,31 L27,38 L26,38 L25,22 L24,18 L21,18 L21,20 L23,20 L23,37 L18,44 L20,46 L19,47 L23,49 L21,53 L19,57 L25,56 L27,58 L29,53 L30,55 L34,55 L34,57 L39,57 L40,60 L38,60 L37,66 L37,72 L31,72 L31,70 L29,70 L29,72 L20,74 L28,75 L28,79 L30,79 L30,75 L36,74 L40,75 L40,69 L42,68 L57,68 L60,69 L60,73 L58,73 L59,77 L58,82 L65,81 L68,80 L71,81 L71,79 L76,78 L78,79 L79,82 L85,82 L89,81 L90,85 L0,85 Z M30,52 Z " fill="#131011" transform="translate(0,0)"/>
<path d="M0,0 L6,0 L10,2 L16,3 L24,1 L36,1 L38,5 L49,7 L47,8 L48,13 L52,12 L53,10 L57,10 L58,17 L60,17 L60,19 L67,18 L67,23 L61,25 L59,28 L60,31 L60,29 L63,28 L66,31 L68,30 L74,32 L75,37 L77,38 L75,40 L66,43 L60,44 L54,55 L52,55 L52,57 L49,57 L45,53 L33,53 L33,55 L30,55 L29,58 L28,55 L26,55 L25,58 L22,52 L26,50 L37,50 L38,38 L40,36 L40,30 L43,29 L41,22 L37,23 L36,34 L34,35 L28,36 L27,38 L35,39 L35,47 L25,47 L25,45 L19,43 L17,40 L19,33 L22,30 L24,26 L25,20 L16,20 L16,23 L14,23 L14,21 L11,23 L9,28 L6,29 L4,31 L1,30 L1,25 L-6,24 L-6,26 L-10,25 L-12,18 L-13,14 L-21,9 L-20,4 L-16,3 L-14,4 L-7,4 L-3,3 Z M56,15 Z " fill="#4C373F" transform="translate(55,17)"/>
<path d="M0,0 L3,0 L5,4 L6,13 L10,13 L10,20 L18,16 L18,11 L22,13 L23,17 L24,24 L28,25 L28,23 L32,22 L35,24 L35,29 L38,29 L40,27 L43,26 L45,21 L48,20 L48,22 L50,22 L50,19 L59,19 L59,25 L55,32 L53,32 L52,40 L59,44 L59,46 L69,46 L69,38 L64,39 L61,37 L62,34 L69,33 L70,22 L75,20 L77,25 L77,28 L75,29 L75,36 L72,37 L72,45 L71,49 L60,50 L57,51 L59,55 L62,54 L63,56 L64,54 L67,54 L67,52 L79,51 L83,54 L83,56 L86,57 L84,60 L89,60 L89,67 L69,67 L68,64 L58,65 L57,61 L50,61 L50,63 L45,63 L41,64 L37,64 L37,55 L39,55 L39,51 L19,51 L19,57 L11,57 L9,62 L6,61 L6,58 L-2,57 L-1,55 L8,54 L8,52 L10,52 L10,54 L16,54 L15,47 L17,42 L19,42 L18,40 L12,40 L13,37 L8,36 L6,41 L4,40 L4,38 L-2,39 L0,34 L2,31 L-3,29 L-4,26 L1,18 L1,6 L2,2 L0,2 Z M9,34 Z " fill="#443A39" transform="translate(21,18)"/>
<path d="M0,0 L3,0 L5,4 L6,13 L10,13 L10,20 L18,16 L18,11 L22,13 L23,17 L24,24 L28,25 L28,23 L32,22 L35,24 L35,29 L39,30 L38,33 L36,34 L36,41 L35,45 L37,45 L36,50 L19,51 L19,57 L11,57 L9,62 L6,61 L6,58 L-2,57 L-1,55 L8,54 L8,52 L10,52 L10,54 L16,54 L15,47 L17,42 L19,42 L18,40 L12,40 L13,37 L8,36 L6,41 L4,40 L4,38 L-2,39 L0,34 L2,31 L-3,29 L-4,26 L1,18 L1,6 L2,2 L0,2 Z M9,34 Z " fill="#322627" transform="translate(21,18)"/>
<path d="M0,0 L6,0 L10,2 L16,3 L24,1 L36,1 L38,5 L41,7 L34,7 L34,9 L29,9 L30,16 L32,16 L32,18 L19,17 L19,19 L23,20 L16,20 L16,23 L14,23 L14,21 L11,23 L9,28 L6,29 L4,31 L1,30 L1,25 L-6,24 L-6,26 L-10,25 L-12,18 L-13,14 L-21,9 L-20,4 L-16,3 L-14,4 L-7,4 L-3,3 Z " fill="#4C363B" transform="translate(55,17)"/>
<path d="M0,0 L29,0 L29,16 L31,16 L32,9 L35,11 L35,18 L43,16 L53,16 L53,12 L54,10 L56,10 L57,20 L59,20 L58,13 L61,13 L61,15 L65,13 L70,13 L72,17 L82,19 L83,20 L83,27 L75,31 L75,27 L71,27 L69,31 L65,30 L65,25 L56,23 L54,19 L42,19 L31,21 L25,19 L24,18 L16,18 L15,21 L11,22 L4,22 L-1,21 L-3,26 L2,28 L0,29 L-4,27 L-3,19 L6,15 L6,12 L4,12 L4,10 L1,9 L0,7 Z M43,15 Z " fill="#2A1E22" transform="translate(37,0)"/>
<path d="M0,0 L56,0 L56,7 L47,9 L46,14 L44,14 L43,18 L40,14 L32,15 L30,13 L31,17 L30,20 L28,20 L27,10 L25,10 L26,16 L24,17 L12,17 L6,18 L5,11 L3,11 L2,16 L0,16 Z M14,15 Z " fill="#2B222C" transform="translate(66,0)"/>
<path d="M0,0 L4,2 L3,4 L9,4 L9,1 L12,1 L12,3 L17,2 L32,2 L35,3 L35,7 L37,8 L35,10 L26,13 L20,14 L14,25 L12,25 L12,27 L9,27 L5,23 L-7,23 L-7,25 L-10,25 L-11,28 L-12,25 L-14,25 L-15,28 L-18,22 L-14,20 L-3,20 L-2,8 L0,6 Z " fill="#51404B" transform="translate(95,47)"/>
<path d="M0,0 L28,0 L28,17 L1,17 L-1,18 L-12,18 L-12,14 L-10,14 L-10,9 L-1,6 L-1,1 Z " fill="#09060E" transform="translate(122,0)"/>
<path d="M0,0 L6,1 L8,5 L11,6 L9,9 L14,9 L14,16 L-6,16 L-7,13 L-17,14 L-18,10 L-25,10 L-25,12 L-30,12 L-34,13 L-38,13 L-38,4 L-36,4 L-36,6 L-16,5 L-15,3 L-13,3 L-12,5 L-11,3 L-8,3 L-8,1 Z " fill="#2C272D" transform="translate(96,69)"/>
<path d="M0,0 L13,0 L15,9 L17,10 L17,12 L19,12 L20,15 L11,19 L10,27 L15,29 L16,34 L9,38 L7,38 L7,31 L3,31 L3,38 L2,38 L1,22 L0,18 L-3,18 L-4,21 L-5,17 L-1,15 Z " fill="#281B1E" transform="translate(24,0)"/>
<path d="M0,0 L3,3 L-1,14 L-1,24 L1,24 L0,20 L1,18 L10,18 L9,24 L7,24 L7,27 L10,28 L10,29 L-7,29 L-7,23 L-10,23 L-9,17 L-11,17 L-11,9 L-7,5 Z " fill="#3D312F" transform="translate(67,46)"/>
<path d="M0,0 L5,1 L12,1 L17,0 L17,17 L19,21 L27,22 L29,17 L34,16 L35,20 L33,20 L33,18 L30,20 L28,25 L25,26 L23,28 L20,27 L20,22 L13,21 L13,23 L9,22 L7,15 L6,11 L-2,6 L-1,1 Z " fill="#493534" transform="translate(36,20)"/>
<path d="M0,0 L3,0 L5,3 L6,9 L0,12 L-9,13 L-13,14 L-16,20 L-5,19 L-4,16 L-5,21 L-9,22 L-11,21 L-11,24 L1,26 L1,28 L7,28 L7,32 L2,33 L-3,30 L-12,29 L-17,24 L-17,22 L-23,23 L-23,21 L-21,21 L-20,17 L-15,9 L-8,7 L1,4 Z " fill="#281D1E" transform="translate(130,51)"/>
<path d="M0,0 L26,0 L26,7 L17,9 L16,14 L14,14 L13,18 L10,14 L2,15 L0,12 Z " fill="#1B1921" transform="translate(96,0)"/>
<path d="M0,0 L11,1 L12,3 L11,10 L9,11 L3,12 L2,14 L10,15 L10,23 L0,23 L0,21 L-6,19 L-8,16 L-6,9 L-3,6 Z " fill="#523D35" transform="translate(80,41)"/>
<path d="M0,0 L9,0 L9,6 L5,13 L3,13 L1,19 L-2,21 L-5,21 L-2,11 L-5,11 L-12,16 L-14,16 L-15,18 L-14,14 L-12,13 L-11,8 L-7,7 L-5,2 L-2,1 L-2,3 L0,3 Z " fill="#463221" transform="translate(71,37)"/>
<path d="M0,0 L4,0 L5,7 L7,7 L7,9 L14,8 L14,13 L8,15 L6,18 L7,21 L7,19 L10,18 L13,21 L15,20 L21,22 L19,23 L-1,23 L-2,18 L-7,17 L-7,12 L-2,13 L-1,18 L2,18 L3,14 L6,9 L1,9 L-1,2 Z M3,5 Z " fill="#41313C" transform="translate(108,27)"/>
<path d="M0,0 L2,0 L2,16 L4,16 L5,9 L8,11 L8,18 L16,16 L26,16 L26,12 L27,10 L29,10 L30,20 L32,20 L32,22 L37,21 L40,24 L32,24 L27,21 L27,19 L15,19 L4,21 L-2,19 L-6,16 L-5,15 L0,15 Z M16,15 Z " fill="#3A2A33" transform="translate(64,0)"/>
<path d="M0,0 L7,0 L9,9 L11,10 L11,12 L13,12 L14,15 L4,20 L2,27 L-3,26 L-3,21 L5,16 L2,15 L3,12 L1,12 L0,16 Z " fill="#1B1318" transform="translate(30,0)"/>
<path d="M0,0 L6,1 L8,5 L11,6 L8,9 L6,9 L6,11 L-3,12 L-9,9 L-9,5 L-11,5 L-11,3 L-8,3 L-8,1 Z " fill="#302531" transform="translate(96,69)"/>
<path d="M0,0 L0,3 L6,5 L6,8 L9,10 L9,15 L7,15 L8,21 L4,22 L0,20 L-3,16 L-2,2 Z " fill="#56443E" transform="translate(55,21)"/>
<path d="M0,0 L2,0 L2,4 L8,6 L17,6 L17,4 L20,3 L25,4 L25,11 L5,11 L4,8 L0,8 Z " fill="#231A1F" transform="translate(85,74)"/>
<path d="M0,0 L7,0 L9,9 L12,12 L11,16 L6,18 L5,11 L3,11 L2,16 L0,16 Z " fill="#29181E" transform="translate(66,0)"/>
<path d="M0,0 L3,1 L4,8 L2,9 L2,16 L-2,17 L-3,21 L-3,17 L-9,19 L-12,17 L-11,14 L-4,13 L-3,2 Z " fill="#472E32" transform="translate(94,38)"/>
<path d="M0,0 L3,1 L1,2 L1,7 L6,8 L6,2 L8,1 L8,8 L13,10 L14,15 L7,19 L5,19 L5,12 L1,12 L1,19 L0,19 Z " fill="#24141C" transform="translate(26,19)"/>
<path d="M0,0 L13,0 L13,5 L19,5 L17,9 L13,8 L2,8 L3,5 L-1,5 Z " fill="#3D3132" transform="translate(31,50)"/>
<path d="M0,0 L9,0 L8,6 L6,6 L6,9 L9,10 L9,11 L-8,11 L-7,9 L0,8 L-1,2 Z " fill="#444048" transform="translate(68,64)"/>
<path d="M0,0 L19,1 L20,5 L17,8 L9,8 L6,7 L6,3 L0,2 Z " fill="#5D4544" transform="translate(74,34)"/>
<path d="M0,0 L7,1 L9,3 L8,7 L4,11 L3,7 L-1,7 L-3,11 L-7,10 L-7,5 L-1,4 L2,4 L2,1 Z " fill="#392324" transform="translate(109,20)"/>
<path d="M0,0 L6,0 L9,5 L9,12 L4,12 L4,10 L1,9 L0,7 Z " fill="#312B30" transform="translate(73,0)"/>
<path d="M0,0 L3,0 L5,3 L6,9 L0,12 L-9,13 L-12,11 L-6,12 L-6,8 L-1,6 L1,4 Z " fill="#231D20" transform="translate(130,51)"/>
<path d="M0,0 L3,3 L0,10 L-2,12 L-11,10 L-10,7 Z " fill="#513F2F" transform="translate(67,46)"/>
<path d="M0,0 L7,0 L10,3 L10,6 L-4,7 L-5,2 L0,2 Z " fill="#685257" transform="translate(89,24)"/>
<path d="M0,0 L11,1 L12,3 L11,10 L9,11 L6,9 L8,6 L-2,6 L-1,2 Z " fill="#553030" transform="translate(80,41)"/>
<path d="M0,0 L1,2 L3,2 L3,4 L8,4 L7,8 L4,13 L1,13 L0,8 L-2,8 L-2,2 Z " fill="#513F4B" transform="translate(106,32)"/>
<path d="M0,0 L2,0 L2,2 L8,3 L11,3 L7,6 L0,6 L-5,5 L-7,10 L-2,12 L-4,13 L-8,11 L-7,3 Z " fill="#2E2329" transform="translate(41,16)"/>
<path d="M0,0 L6,0 L16,2 L23,3 L23,6 L12,7 L8,8 L10,4 L4,3 L4,1 Z " fill="#1B1D1D" transform="translate(127,76)"/>
<path d="M0,0 L6,1 L7,7 L-4,8 L-3,3 Z " fill="#1E1413" transform="translate(118,63)"/>
<path d="M0,0 L7,0 L7,7 L4,10 L2,10 L2,8 L-1,7 Z " fill="#171116" transform="translate(84,0)"/>
<path d="M0,0 L3,1 L-2,2 L-2,6 L-8,5 L-10,9 L-13,11 L-14,14 L-17,14 L-15,10 L-11,3 L-4,1 Z " fill="#413032" transform="translate(126,57)"/>
<path d="M0,0 L8,0 L13,4 L6,4 L6,6 L1,6 L0,10 L-2,3 Z " fill="#583D35" transform="translate(83,20)"/>
<path d="M0,0 L13,1 L13,3 L9,3 L9,5 L6,5 L5,8 L4,5 L2,5 L1,8 L-2,2 Z " fill="#574C50" transform="translate(79,67)"/>
<path d="M0,0 L4,1 L4,3 L6,4 L2,10 L-6,9 L-6,6 L0,5 Z " fill="#1E1713" transform="translate(125,66)"/>
<path d="M0,0 L5,0 L4,12 L2,14 L0,12 Z " fill="#0F0710" transform="translate(98,0)"/>
<path d="M0,0 L2,0 L2,3 L4,3 L4,9 L-4,8 L-3,4 L0,3 Z " fill="#473F47" transform="translate(94,72)"/>
<path d="M0,0 L2,0 L2,2 L6,2 L7,6 L3,7 L1,9 L-1,8 L-1,4 L-3,4 L-3,2 L0,2 Z " fill="#322A2E" transform="translate(88,70)"/>
<path d="M0,0 L4,0 L4,3 L8,4 L7,7 L0,7 L1,4 L-4,2 L-2,1 L0,2 Z " fill="#251D20" transform="translate(22,45)"/>
<path d="M0,0 L5,0 L5,5 L-1,7 L-4,10 L-3,5 Z " fill="#3C2C33" transform="translate(117,35)"/>
<path d="M0,0 L6,0 L7,5 L5,9 L2,9 L1,3 L-1,1 Z " fill="#221B1C" transform="translate(36,76)"/>
<path d="M0,0 L2,0 L2,8 L-6,8 L-6,5 L-4,5 L-3,3 Z " fill="#5A4441" transform="translate(88,56)"/>
<path d="M0,0 L1,2 L2,7 L5,11 L1,11 L-1,7 L-7,8 L-7,6 L-2,5 L-1,1 Z " fill="#362026" transform="translate(114,66)"/>
<path d="M0,0 L5,0 L5,8 L4,12 L0,11 L-6,10 L-6,9 L2,9 L2,1 Z " fill="#493635" transform="translate(88,55)"/>
<path d="M0,0 L2,0 L2,7 L-2,10 L-10,11 L-9,8 L-1,6 L-1,1 Z " fill="#130E17" transform="translate(122,0)"/>
<path d="M0,0 L8,1 L8,5 L3,6 L-1,3 Z " fill="#262729" transform="translate(129,78)"/>
<path d="M0,0 L8,0 L4,1 L4,8 L-4,9 L-7,7 L-6,6 L3,6 Z " fill="#554146" transform="translate(96,24)"/>
<path d="M0,0 L6,1 L6,8 L2,8 L1,3 L-2,3 L-2,1 Z " fill="#241E29" transform="translate(104,77)"/>
<path d="M0,0 L7,1 L3,5 L1,5 L1,11 L-1,11 L-1,9 L-6,9 L-6,8 L-1,8 Z " fill="#4B4146" transform="translate(93,59)"/>
<path d="M0,0 L3,3 L2,7 L-5,8 L-4,3 Z " fill="#5A4533" transform="translate(67,46)"/>
<path d="M0,0 L7,0 L5,6 L2,8 L-1,5 Z " fill="#301908" transform="translate(72,40)"/>
<path d="M0,0 L11,0 L11,3 L-4,3 Z " fill="#08070C" transform="translate(139,82)"/>
<path d="M0,0 L9,0 L9,4 L0,4 Z " fill="#6E5755" transform="translate(82,36)"/>
<path d="M0,0 L5,0 L5,7 L1,7 L0,10 Z " fill="#10050B" transform="translate(67,0)"/>
<path d="M0,0 L15,1 L16,3 L-1,3 Z " fill="#04060F" transform="translate(113,82)"/>
<path d="M0,0 L2,0 L4,7 L-4,7 L-4,1 Z " fill="#5E545E" transform="translate(98,63)"/>
<path d="M0,0 L9,0 L8,5 L4,4 L1,5 Z " fill="#4A454C" transform="translate(68,64)"/>
<path d="M0,0 L2,0 L3,3 L5,4 L4,11 L2,11 L2,7 L0,7 L-1,3 Z " fill="#60525F" transform="translate(104,48)"/>
<path d="M0,0 L11,2 L9,5 L0,4 Z " fill="#392726" transform="translate(78,63)"/>
<path d="M0,0 L1,3 L2,9 L-5,8 L-5,5 L-1,3 Z " fill="#432E2F" transform="translate(43,32)"/>
<path d="M0,0 L6,1 L6,8 L3,7 L3,5 L0,4 Z " fill="#3B353B" transform="translate(75,3)"/>
<path d="M0,0 L6,1 L8,5 L11,6 L8,9 L6,9 L5,3 L3,3 L3,1 Z " fill="#3D2E3A" transform="translate(96,69)"/>
<path d="M0,0 L6,0 L6,2 L8,3 L6,5 L1,5 Z " fill="#5C4B52" transform="translate(93,55)"/>
<path d="M0,0 L9,0 L8,3 L0,4 Z " fill="#6F5850" transform="translate(85,27)"/>
<path d="M0,0 L5,0 L10,7 L5,5 L3,2 L0,3 L2,5 L-3,5 L-1,1 Z " fill="#24131B" transform="translate(108,73)"/>
<path d="M0,0 L3,0 L3,7 L-2,6 L-2,1 Z " fill="#170911" transform="translate(29,20)"/>
<path d="M0,0 L2,0 L4,2 L4,7 L2,9 L-1,9 L-1,6 L1,6 Z " fill="#3E3232" transform="translate(81,72)"/>
<path d="M0,0 L3,1 L-2,8 L-3,11 L-6,11 L-4,7 Z " fill="#4A3339" transform="translate(115,60)"/>
<path d="M0,0 L2,1 L-2,4 L-9,4 L-14,2 L-14,1 L-1,1 Z " fill="#392C2E" transform="translate(50,18)"/>
<path d="M0,0 L4,0 L5,5 L0,7 Z " fill="#120C11" transform="translate(73,10)"/>
<path d="M0,0 L5,2 L6,5 L3,5 L3,3 L-1,5 L-5,1 Z M5,1 Z " fill="#343134" transform="translate(49,62)"/>
<path d="M0,0 L5,0 L4,5 L-1,5 Z " fill="#200B0E" transform="translate(115,66)"/>
<path d="M0,0 L4,2 L5,4 L3,6 L-3,4 L-2,1 Z " fill="#493B3E" transform="translate(36,50)"/>
<path d="M0,0 L6,0 L3,5 L-1,5 Z " fill="#603A39" transform="translate(83,46)"/>
<path d="M0,0 L4,1 L4,4 L-8,5 L-7,3 L0,2 Z " fill="#3E3A41" transform="translate(68,70)"/>
<path d="M0,0 L1,0 L3,10 L1,10 L2,18 L0,18 L-1,9 L-2,7 L0,7 Z " fill="#1B141A" transform="translate(72,0)"/>
<path d="M0,0 L4,0 L6,4 L5,8 L1,10 L3,2 L-1,1 Z " fill="#2C2327" transform="translate(119,33)"/>
<path d="M0,0 L0,3 L-4,7 L-11,6 L-7,5 L-5,6 L-5,2 Z " fill="#322526" transform="translate(129,57)"/>
<path d="M0,0 L7,0 L5,4 L1,3 L-1,1 Z " fill="#463B3C" transform="translate(43,55)"/>
<path d="M0,0 L5,0 L5,4 L2,5 L-1,3 Z " fill="#462C29" transform="translate(83,52)"/>
<path d="M0,0 L4,1 L5,6 L0,8 L2,2 L0,2 Z " fill="#271821" transform="translate(35,28)"/>
<path d="M0,0 L2,0 L2,2 L7,1 L10,4 L2,4 Z " fill="#3C2426" transform="translate(94,20)"/>
<path d="M0,0 L5,0 L4,8 L1,4 Z " fill="#231D22" transform="translate(79,0)"/>
<path d="M0,0 L9,0 L8,3 L0,2 Z " fill="#1F1B21" transform="translate(90,70)"/>
<path d="M0,0 L1,0 L1,6 L-1,7 L-3,6 L-4,8 L-3,3 Z " fill="#523D29" transform="translate(77,47)"/>
<path d="M0,0 L5,1 L5,3 L-3,3 Z " fill="#100D15" transform="translate(100,82)"/>
<path d="M0,0 L2,1 L0,2 Z M-5,1 L0,2 L-4,4 L-10,4 L-11,2 L-6,2 Z " fill="#1E1B1E" transform="translate(71,79)"/>
<path d="M0,0 L2,0 L2,2 L4,2 L4,5 L0,5 L0,3 L-3,2 L0,2 Z " fill="#453A3E" transform="translate(88,70)"/>
<path d="M0,0 L6,0 L6,2 L2,2 L2,4 L-1,4 Z " fill="#6D5A5D" transform="translate(86,68)"/>
<path d="M0,0 L4,1 L3,6 L0,5 Z " fill="#392936" transform="translate(101,39)"/>
<path d="M0,0 L4,0 L3,5 L0,5 Z " fill="#12060D" transform="translate(33,30)"/>
<path d="M0,0 L5,0 L2,3 L-4,3 L-5,6 L-5,2 L0,2 Z " fill="#654E48" transform="translate(89,24)"/>
<path d="M0,0 L6,0 L5,4 L0,3 Z " fill="#4E3C46" transform="translate(36,23)"/>
<path d="M0,0 L8,1 L7,3 L0,3 Z " fill="#362C31" transform="translate(90,80)"/>
<path d="M0,0 L2,0 L2,5 L-1,6 L-2,1 Z " fill="#54414D" transform="translate(98,36)"/>
<path d="M0,0 L6,0 L6,3 L0,3 Z " fill="#856D6C" transform="translate(83,37)"/>
<path d="M0,0 L3,0 L3,6 L0,6 Z " fill="#0D070C" transform="translate(32,0)"/>
<path d="M0,0 L3,1 L3,4 L-2,4 L-2,1 Z " fill="#0C080A" transform="translate(87,81)"/>
<path d="M0,0 L6,1 L2,4 L-2,2 Z " fill="#281818" transform="translate(118,63)"/>
<path d="M0,0 L3,1 L2,5 L-1,4 Z " fill="#2B1F20" transform="translate(28,75)"/>
<path d="M0,0 L1,4 L-4,6 L-5,3 L0,3 Z " fill="#271E1D" transform="translate(125,67)"/>
<path d="M0,0 L3,0 L3,5 L0,6 Z " fill="#45343E" transform="translate(28,31)"/>
<path d="M0,0 L6,1 L6,3 L3,3 L2,5 L2,3 L-1,2 Z " fill="#462E3E" transform="translate(67,22)"/>
<path d="M0,0 L4,0 L4,4 L0,3 Z " fill="#80717A" transform="translate(125,50)"/>
<path d="M0,0 L2,3 L5,2 L3,6 L-1,4 Z " fill="#3B250B" transform="translate(72,42)"/>
<path d="M0,0 L8,0 L8,2 L4,3 Z " fill="#504034" transform="translate(55,40)"/>
<path d="M0,0 L3,0 L3,5 L0,5 Z " fill="#66555E" transform="translate(117,35)"/>
<path d="M0,0 L3,0 L3,2 L5,2 L5,4 L0,4 Z " fill="#382630" transform="translate(110,32)"/>
<path d="M0,0 L3,1 L1,4 L-2,4 L-2,1 Z " fill="#483A39" transform="translate(58,59)"/>
<path d="M0,0 L4,0 L4,3 L-1,3 Z " fill="#74656D" transform="translate(95,55)"/>
<path d="M0,0 L4,1 L3,5 L0,3 Z " fill="#7E6F77" transform="translate(116,49)"/>
<path d="M0,0 L5,1 L5,3 L-1,3 Z " fill="#201718" transform="translate(23,49)"/>
<path d="M0,0 L4,1 L4,3 L-4,3 Z " fill="#442B26" transform="translate(113,22)"/>
<path d="M0,0 L2,0 L1,6 L-1,5 Z " fill="#292331" transform="translate(108,78)"/>
<path d="M0,0 L4,1 L2,5 L2,3 L-1,2 Z " fill="#66504F" transform="translate(82,68)"/>
<path d="M0,0 L4,0 L3,2 L-2,4 Z M-3,4 Z " fill="#4D3A25" transform="translate(65,45)"/>
<path d="M0,0 L2,2 L1,6 L-1,5 Z " fill="#5B4950" transform="translate(106,32)"/>
<path d="M0,0 L8,0 L4,1 L4,3 L0,1 Z " fill="#523B3C" transform="translate(96,24)"/>
<path d="M0,0 L3,0 L3,3 L-2,3 L-2,1 Z " fill="#342F34" transform="translate(45,7)"/>
<path d="M0,0 L3,3 L3,5 L0,6 Z " fill="#3B2F3B" transform="translate(98,75)"/>
<path d="M0,0 L6,3 L3,5 L0,3 Z " fill="#343136" transform="translate(74,70)"/>
<path d="M0,0 L2,0 L3,3 L-3,3 L-2,1 Z " fill="#363238" transform="translate(66,70)"/>
<path d="M0,0 L4,0 L4,3 L0,3 Z " fill="#443E45" transform="translate(76,5)"/>
<path d="M0,0 L2,0 L3,5 L1,5 Z " fill="#0B0408" transform="translate(29,22)"/>
<path d="M0,0 L2,0 L2,3 L-2,3 L-2,1 Z " fill="#4D3C42" transform="translate(127,54)"/>
<path d="M0,0 L3,0 L3,3 L-1,2 Z " fill="#331B1B" transform="translate(85,52)"/>
<path d="M0,0 L2,4 L-1,5 Z " fill="#483943" transform="translate(69,12)"/>
<path d="M0,0 L3,0 L3,3 L0,3 Z " fill="#343035" transform="translate(62,77)"/>
<path d="M0,0 L2,0 L2,4 L0,4 L-1,1 Z " fill="#524A54" transform="translate(69,65)"/>
<path d="M0,0 L3,0 L3,3 L0,3 Z " fill="#897E87" transform="translate(96,65)"/>
<path d="M0,0 L4,0 L3,3 L0,2 Z " fill="#453943" transform="translate(98,49)"/>
<path d="M0,0 L2,0 L1,4 L-1,3 Z " fill="#35212A" transform="translate(94,38)"/>
<path d="M0,0 L3,1 L0,4 L-1,1 Z " fill="#1B171A" transform="translate(17,40)"/>
<path d="M0,0 L3,0 L2,3 L0,3 Z " fill="#0C0B11" transform="translate(96,70)"/>
<path d="M0,0 L2,0 L2,3 L-1,3 Z " fill="#1B1318" transform="translate(23,56)"/>
<path d="M0,0 L2,0 L0,4 L0,2 L-2,1 Z " fill="#38220C" transform="translate(77,40)"/>
<path d="M0,0 L3,0 L2,3 L0,3 Z " fill="#806A6C" transform="translate(91,27)"/>
<path d="M0,0 L4,1 L4,3 L0,1 Z " fill="#482F30" transform="translate(91,20)"/>
<path d="M0,0 L3,1 L3,3 L-1,2 Z " fill="#1F181B" transform="translate(46,15)"/>
<path d="M0,0 L2,0 L2,3 L-1,3 Z " fill="#2B262B" transform="translate(106,15)"/>
<path d="M0,0 L1,3 L-2,3 Z " fill="#4A444A" transform="translate(79,67)"/>
<path d="M0,0 L3,1 L2,3 L0,3 Z " fill="#2C2225" transform="translate(20,60)"/>
<path d="M0,0 L3,2 L-1,3 Z " fill="#261720" transform="translate(30,37)"/>
</svg>
