<?xml version="1.0" encoding="UTF-8"?>
<svg xmlns="http://www.w3.org/2000/svg" viewBox="0 0 320 320" width="60" height="60">
  <style>rect{shape-rendering:crispEdges}</style>
  <g fill="#4a6c73">
    <rect x="0" y="0" width="10" height="10"/>
    <rect x="30" y="30" width="50" height="10"/>
    <rect x="60" y="40" width="10" height="10"/>
    <rect x="140" y="70" width="10" height="10"/>
    <rect x="140" y="80" width="10" height="10"/>
    <rect x="140" y="90" width="10" height="10"/>
    <rect x="180" y="90" width="10" height="10"/>
    <rect x="180" y="100" width="10" height="10"/>
    <rect x="230" y="140" width="10" height="10"/>
    <rect x="250" y="170" width="10" height="10"/>
    <rect x="140" y="190" width="10" height="10"/>
    <rect x="270" y="240" width="10" height="10"/>
    <rect x="270" y="250" width="10" height="10"/>
    <rect x="290" y="290" width="10" height="10"/>
    <rect x="30" y="300" width="10" height="10"/>
    <rect x="300" y="300" width="10" height="10"/>
  </g>
  <g fill="#0fc8d6">
    <rect x="0" y="10" width="10" height="10"/>
    <rect x="50" y="40" width="10" height="10"/>
    <rect x="260" y="80" width="10" height="10"/>
    <rect x="140" y="120" width="10" height="10"/>
    <rect x="90" y="140" width="10" height="10"/>
    <rect x="240" y="140" width="10" height="10"/>
    <rect x="240" y="150" width="10" height="10"/>
    <rect x="180" y="170" width="10" height="10"/>
    <rect x="180" y="180" width="10" height="10"/>
    <rect x="180" y="190" width="10" height="10"/>
    <rect x="180" y="200" width="10" height="10"/>
    <rect x="10" y="220" width="10" height="10"/>
    <rect x="60" y="240" width="10" height="10"/>
  </g>
  <g fill="#32646f">
    <rect x="10" y="10" width="10" height="10"/>
    <rect x="60" y="50" width="10" height="10"/>
    <rect x="280" y="230" width="10" height="10"/>
    <rect x="280" y="240" width="10" height="10"/>
    <rect x="110" y="250" width="10" height="10"/>
    <rect x="280" y="250" width="10" height="10"/>
    <rect x="280" y="260" width="10" height="10"/>
    <rect x="280" y="270" width="10" height="10"/>
    <rect x="280" y="280" width="10" height="10"/>
    <rect x="30" y="310" width="10" height="10"/>
    <rect x="300" y="310" width="10" height="10"/>
  </g>
  <g fill="#2b4a52">
    <rect x="20" y="10" width="10" height="10"/>
    <rect x="140" y="10" width="10" height="10"/>
    <rect x="80" y="20" width="10" height="10"/>
    <rect x="80" y="40" width="10" height="10"/>
    <rect x="110" y="40" width="10" height="10"/>
    <rect x="110" y="50" width="10" height="10"/>
    <rect x="210" y="70" width="10" height="10"/>
    <rect x="30" y="80" width="10" height="10"/>
    <rect x="120" y="80" width="10" height="10"/>
    <rect x="210" y="80" width="10" height="10"/>
    <rect x="110" y="90" width="10" height="10"/>
    <rect x="210" y="90" width="10" height="10"/>
    <rect x="110" y="100" width="10" height="10"/>
    <rect x="100" y="110" width="10" height="10"/>
    <rect x="220" y="110" width="10" height="10"/>
    <rect x="80" y="120" width="10" height="10"/>
    <rect x="280" y="210" width="10" height="10"/>
    <rect x="10" y="240" width="10" height="10"/>
    <rect x="210" y="260" width="10" height="10"/>
    <rect x="10" y="300" width="10" height="10"/>
    <rect x="10" y="310" width="10" height="10"/>
    <rect x="310" y="310" width="10" height="10"/>
  </g>
  <g fill="#52777d">
    <rect x="90" y="10" width="20" height="10"/>
    <rect x="150" y="10" width="10" height="10"/>
    <rect x="270" y="10" width="10" height="10"/>
    <rect x="240" y="100" width="10" height="10"/>
    <rect x="240" y="110" width="10" height="10"/>
    <rect x="240" y="120" width="10" height="10"/>
    <rect x="260" y="140" width="30" height="10"/>
    <rect x="280" y="180" width="10" height="10"/>
    <rect x="180" y="220" width="10" height="10"/>
    <rect x="310" y="300" width="10" height="10"/>
  </g>
  <g fill="#d3d8dc">
    <rect x="280" y="10" width="20" height="10"/>
    <rect x="270" y="20" width="10" height="10"/>
    <rect x="0" y="50" width="10" height="10"/>
    <rect x="10" y="60" width="10" height="10"/>
    <rect x="50" y="90" width="10" height="10"/>
    <rect x="70" y="110" width="10" height="10"/>
    <rect x="200" y="240" width="10" height="10"/>
    <rect x="230" y="270" width="10" height="10"/>
    <rect x="240" y="290" width="10" height="10"/>
    <rect x="260" y="310" width="10" height="10"/>
  </g>
  <g fill="#0ee4f2">
    <rect x="0" y="20" width="10" height="10"/>
    <rect x="190" y="40" width="40" height="10"/>
    <rect x="280" y="60" width="10" height="10"/>
    <rect x="280" y="70" width="10" height="10"/>
    <rect x="250" y="130" width="10" height="10"/>
    <rect x="260" y="280" width="10" height="10"/>
  </g>
  <g fill="#2099a7">
    <rect x="10" y="20" width="10" height="10"/>
    <rect x="140" y="110" width="10" height="10"/>
    <rect x="10" y="210" width="20" height="10"/>
    <rect x="40" y="210" width="20" height="10"/>
    <rect x="180" y="210" width="10" height="10"/>
    <rect x="270" y="260" width="10" height="10"/>
    <rect x="270" y="270" width="10" height="10"/>
    <rect x="270" y="280" width="10" height="10"/>
    <rect x="80" y="300" width="10" height="10"/>
  </g>
  <g fill="#4b6a73">
    <rect x="20" y="20" width="10" height="10"/>
    <rect x="100" y="20" width="10" height="10"/>
  </g>
  <g fill="#557b7d">
    <rect x="90" y="20" width="10" height="10"/>
    <rect x="150" y="70" width="20" height="10"/>
    <rect x="150" y="80" width="20" height="10"/>
    <rect x="150" y="90" width="30" height="10"/>
    <rect x="90" y="130" width="10" height="10"/>
    <rect x="220" y="130" width="10" height="10"/>
    <rect x="220" y="140" width="10" height="10"/>
    <rect x="220" y="150" width="20" height="10"/>
    <rect x="120" y="160" width="10" height="10"/>
    <rect x="220" y="160" width="20" height="10"/>
    <rect x="290" y="200" width="10" height="10"/>
    <rect x="290" y="210" width="10" height="10"/>
    <rect x="110" y="220" width="10" height="10"/>
    <rect x="290" y="220" width="10" height="10"/>
    <rect x="0" y="290" width="10" height="10"/>
  </g>
  <g fill="#6c989c">
    <rect x="140" y="20" width="20" height="10"/>
    <rect x="160" y="40" width="10" height="10"/>
    <rect x="160" y="50" width="10" height="10"/>
    <rect x="140" y="60" width="10" height="10"/>
    <rect x="210" y="110" width="10" height="10"/>
    <rect x="210" y="120" width="10" height="10"/>
    <rect x="260" y="150" width="10" height="10"/>
    <rect x="280" y="150" width="10" height="10"/>
    <rect x="140" y="160" width="10" height="10"/>
    <rect x="280" y="170" width="10" height="10"/>
    <rect x="130" y="180" width="10" height="10"/>
    <rect x="260" y="180" width="20" height="10"/>
    <rect x="110" y="210" width="20" height="10"/>
    <rect x="170" y="220" width="10" height="10"/>
  </g>
  <g fill="#c4e7ef">
    <rect x="280" y="20" width="10" height="10"/>
    <rect x="240" y="30" width="10" height="10"/>
    <rect x="160" y="120" width="20" height="10"/>
    <rect x="200" y="120" width="10" height="10"/>
    <rect x="120" y="190" width="10" height="10"/>
    <rect x="120" y="200" width="10" height="10"/>
  </g>
  <g fill="#d3f6f8">
    <rect x="290" y="20" width="10" height="10"/>
    <rect x="250" y="30" width="20" height="10"/>
    <rect x="290" y="30" width="10" height="10"/>
    <rect x="190" y="100" width="20" height="10"/>
    <rect x="200" y="110" width="10" height="10"/>
    <rect x="190" y="130" width="10" height="10"/>
    <rect x="190" y="140" width="10" height="10"/>
    <rect x="190" y="150" width="10" height="10"/>
    <rect x="190" y="160" width="10" height="10"/>
    <rect x="70" y="200" width="30" height="10"/>
    <rect x="100" y="220" width="10" height="10"/>
    <rect x="100" y="230" width="10" height="10"/>
  </g>
  <g fill="#05e6f6">
    <rect x="10" y="30" width="10" height="10"/>
    <rect x="30" y="50" width="30" height="10"/>
    <rect x="270" y="80" width="10" height="10"/>
    <rect x="70" y="140" width="10" height="10"/>
    <rect x="270" y="290" width="10" height="10"/>
    <rect x="70" y="310" width="10" height="10"/>
    <rect x="290" y="310" width="10" height="10"/>
  </g>
  <g fill="#03e9fa">
    <rect x="20" y="30" width="10" height="10"/>
    <rect x="30" y="40" width="20" height="10"/>
    <rect x="190" y="50" width="40" height="10"/>
    <rect x="180" y="60" width="10" height="10"/>
    <rect x="170" y="170" width="10" height="10"/>
    <rect x="170" y="180" width="10" height="10"/>
    <rect x="170" y="190" width="10" height="10"/>
    <rect x="170" y="200" width="10" height="10"/>
    <rect x="60" y="250" width="10" height="10"/>
    <rect x="70" y="300" width="10" height="10"/>
  </g>
  <g fill="#35535a">
    <rect x="80" y="30" width="10" height="10"/>
    <rect x="130" y="60" width="10" height="10"/>
    <rect x="130" y="70" width="10" height="10"/>
    <rect x="130" y="80" width="10" height="10"/>
    <rect x="120" y="90" width="20" height="10"/>
    <rect x="120" y="100" width="20" height="10"/>
    <rect x="120" y="110" width="10" height="10"/>
    <rect x="200" y="170" width="20" height="10"/>
    <rect x="200" y="180" width="30" height="10"/>
    <rect x="0" y="190" width="10" height="10"/>
    <rect x="190" y="190" width="10" height="10"/>
    <rect x="0" y="200" width="10" height="10"/>
    <rect x="190" y="200" width="10" height="10"/>
    <rect x="0" y="210" width="10" height="10"/>
    <rect x="0" y="220" width="10" height="10"/>
    <rect x="40" y="300" width="10" height="10"/>
  </g>
  <g fill="#173a43">
    <rect x="90" y="30" width="10" height="10"/>
    <rect x="70" y="40" width="10" height="10"/>
    <rect x="170" y="70" width="10" height="10"/>
    <rect x="190" y="90" width="10" height="10"/>
    <rect x="150" y="100" width="30" height="10"/>
    <rect x="220" y="120" width="10" height="10"/>
    <rect x="230" y="130" width="10" height="10"/>
    <rect x="200" y="140" width="10" height="10"/>
    <rect x="200" y="150" width="10" height="10"/>
    <rect x="70" y="160" width="10" height="10"/>
    <rect x="200" y="160" width="10" height="10"/>
    <rect x="70" y="170" width="30" height="10"/>
    <rect x="120" y="170" width="10" height="10"/>
    <rect x="70" y="180" width="30" height="10"/>
    <rect x="190" y="180" width="10" height="10"/>
    <rect x="10" y="200" width="10" height="10"/>
    <rect x="150" y="200" width="10" height="10"/>
    <rect x="150" y="210" width="10" height="10"/>
    <rect x="130" y="220" width="10" height="10"/>
    <rect x="120" y="230" width="30" height="10"/>
    <rect x="260" y="230" width="10" height="10"/>
    <rect x="0" y="260" width="10" height="10"/>
    <rect x="100" y="260" width="10" height="10"/>
    <rect x="0" y="270" width="10" height="10"/>
    <rect x="90" y="300" width="10" height="10"/>
  </g>
  <g fill="#83b3ab">
    <rect x="130" y="30" width="30" height="10"/>
    <rect x="130" y="40" width="20" height="10"/>
    <rect x="250" y="160" width="40" height="10"/>
    <rect x="260" y="170" width="20" height="10"/>
    <rect x="160" y="200" width="10" height="10"/>
  </g>
  <g fill="#89afb3">
    <rect x="160" y="30" width="10" height="10"/>
    <rect x="280" y="50" width="10" height="10"/>
    <rect x="160" y="110" width="30" height="10"/>
    <rect x="290" y="160" width="10" height="10"/>
    <rect x="110" y="200" width="10" height="10"/>
  </g>
  <g fill="#00f1ff">
    <rect x="230" y="30" width="10" height="10"/>
    <rect x="160" y="60" width="20" height="10"/>
    <rect x="260" y="90" width="10" height="10"/>
    <rect x="260" y="100" width="10" height="10"/>
    <rect x="260" y="110" width="10" height="10"/>
    <rect x="100" y="130" width="40" height="10"/>
    <rect x="100" y="190" width="10" height="10"/>
    <rect x="60" y="200" width="10" height="10"/>
    <rect x="20" y="220" width="30" height="10"/>
    <rect x="160" y="220" width="10" height="10"/>
    <rect x="0" y="230" width="10" height="10"/>
    <rect x="160" y="230" width="10" height="10"/>
    <rect x="90" y="260" width="10" height="10"/>
    <rect x="260" y="260" width="10" height="10"/>
    <rect x="90" y="270" width="10" height="10"/>
    <rect x="260" y="270" width="10" height="10"/>
    <rect x="90" y="280" width="10" height="10"/>
    <rect x="90" y="290" width="10" height="10"/>
    <rect x="290" y="300" width="10" height="10"/>
  </g>
  <g fill="#2577c6">
    <rect x="270" y="30" width="10" height="10"/>
    <rect x="240" y="90" width="10" height="10"/>
    <rect x="120" y="150" width="10" height="10"/>
    <rect x="140" y="150" width="20" height="10"/>
  </g>
  <g fill="#245da5">
    <rect x="280" y="30" width="10" height="10"/>
    <rect x="140" y="170" width="10" height="10"/>
    <rect x="140" y="180" width="10" height="10"/>
    <rect x="110" y="240" width="10" height="10"/>
  </g>
  <g fill="#d4ccd0">
    <rect x="0" y="40" width="10" height="10"/>
    <rect x="20" y="60" width="10" height="10"/>
    <rect x="40" y="90" width="10" height="10"/>
    <rect x="70" y="120" width="10" height="10"/>
    <rect x="230" y="280" width="10" height="10"/>
  </g>
  <g fill="#2e4e56">
    <rect x="120" y="40" width="10" height="10"/>
    <rect x="180" y="80" width="10" height="10"/>
    <rect x="110" y="110" width="10" height="10"/>
    <rect x="20" y="300" width="10" height="10"/>
    <rect x="50" y="300" width="10" height="10"/>
  </g>
  <g fill="#79ada9">
    <rect x="150" y="40" width="10" height="10"/>
    <rect x="130" y="50" width="30" height="10"/>
    <rect x="150" y="60" width="10" height="10"/>
    <rect x="100" y="150" width="10" height="10"/>
    <rect x="270" y="150" width="10" height="10"/>
    <rect x="150" y="160" width="10" height="10"/>
    <rect x="240" y="160" width="10" height="10"/>
    <rect x="130" y="170" width="10" height="10"/>
  </g>
  <g fill="#27a5d7">
    <rect x="230" y="40" width="10" height="10"/>
    <rect x="230" y="50" width="10" height="10"/>
    <rect x="190" y="60" width="50" height="10"/>
    <rect x="250" y="70" width="20" height="10"/>
    <rect x="250" y="80" width="10" height="10"/>
    <rect x="250" y="90" width="10" height="10"/>
    <rect x="250" y="100" width="10" height="10"/>
    <rect x="250" y="110" width="10" height="10"/>
    <rect x="250" y="120" width="10" height="10"/>
    <rect x="110" y="140" width="10" height="10"/>
    <rect x="170" y="210" width="10" height="10"/>
  </g>
  <g fill="#1c6fca">
    <rect x="240" y="40" width="10" height="10"/>
    <rect x="150" y="130" width="10" height="10"/>
    <rect x="140" y="140" width="20" height="10"/>
    <rect x="130" y="150" width="10" height="10"/>
    <rect x="160" y="160" width="20" height="10"/>
    <rect x="160" y="170" width="10" height="10"/>
    <rect x="160" y="180" width="10" height="10"/>
    <rect x="160" y="190" width="10" height="10"/>
    <rect x="10" y="230" width="10" height="10"/>
  </g>
  <g fill="#174bb0">
    <rect x="250" y="40" width="20" height="10"/>
    <rect x="240" y="50" width="10" height="10"/>
    <rect x="240" y="60" width="10" height="10"/>
    <rect x="190" y="120" width="10" height="10"/>
    <rect x="160" y="150" width="20" height="10"/>
    <rect x="50" y="240" width="10" height="10"/>
    <rect x="80" y="250" width="20" height="10"/>
  </g>
  <g fill="#addbeb">
    <rect x="270" y="40" width="10" height="10"/>
    <rect x="270" y="50" width="10" height="10"/>
    <rect x="180" y="120" width="10" height="10"/>
    <rect x="110" y="190" width="10" height="10"/>
  </g>
  <g fill="#b4c2d6">
    <rect x="280" y="40" width="10" height="10"/>
    <rect x="200" y="250" width="10" height="10"/>
    <rect x="250" y="290" width="10" height="10"/>
  </g>
  <g fill="#14333e">
    <rect x="70" y="50" width="10" height="10"/>
    <rect x="120" y="50" width="10" height="10"/>
    <rect x="180" y="70" width="10" height="10"/>
    <rect x="230" y="180" width="30" height="10"/>
    <rect x="270" y="220" width="10" height="10"/>
    <rect x="120" y="250" width="10" height="10"/>
    <rect x="50" y="290" width="10" height="10"/>
    <rect x="120" y="300" width="10" height="10"/>
    <rect x="20" y="310" width="10" height="10"/>
    <rect x="40" y="310" width="30" height="10"/>
    <rect x="90" y="310" width="40" height="10"/>
  </g>
  <g fill="#163aa9">
    <rect x="250" y="50" width="20" height="10"/>
    <rect x="250" y="60" width="20" height="10"/>
    <rect x="220" y="70" width="10" height="10"/>
    <rect x="220" y="80" width="10" height="10"/>
    <rect x="220" y="90" width="20" height="10"/>
    <rect x="160" y="130" width="20" height="10"/>
    <rect x="160" y="140" width="20" height="10"/>
    <rect x="60" y="220" width="10" height="10"/>
    <rect x="20" y="230" width="50" height="10"/>
    <rect x="70" y="250" width="10" height="10"/>
    <rect x="70" y="260" width="10" height="10"/>
    <rect x="70" y="270" width="10" height="10"/>
    <rect x="70" y="280" width="10" height="10"/>
    <rect x="70" y="290" width="10" height="10"/>
  </g>
  <g fill="#06def3">
    <rect x="270" y="60" width="10" height="10"/>
    <rect x="270" y="70" width="10" height="10"/>
    <rect x="260" y="120" width="10" height="10"/>
    <rect x="70" y="150" width="30" height="10"/>
    <rect x="250" y="150" width="10" height="10"/>
    <rect x="50" y="220" width="10" height="10"/>
    <rect x="100" y="250" width="10" height="10"/>
  </g>
  <g fill="#d9d0d4">
    <rect x="30" y="70" width="10" height="10"/>
    <rect x="230" y="70" width="10" height="10"/>
    <rect x="60" y="100" width="10" height="10"/>
    <rect x="190" y="230" width="10" height="10"/>
    <rect x="220" y="260" width="10" height="10"/>
    <rect x="260" y="300" width="10" height="10"/>
  </g>
  <g fill="#5a94ca">
    <rect x="240" y="70" width="10" height="10"/>
    <rect x="230" y="80" width="20" height="10"/>
    <rect x="190" y="110" width="10" height="10"/>
    <rect x="110" y="150" width="10" height="10"/>
    <rect x="180" y="160" width="10" height="10"/>
    <rect x="100" y="210" width="10" height="10"/>
  </g>
  <g fill="#385c63">
    <rect x="170" y="80" width="10" height="10"/>
    <rect x="100" y="120" width="30" height="10"/>
    <rect x="210" y="130" width="10" height="10"/>
    <rect x="210" y="140" width="10" height="10"/>
    <rect x="210" y="150" width="10" height="10"/>
    <rect x="110" y="160" width="10" height="10"/>
    <rect x="210" y="160" width="10" height="10"/>
    <rect x="110" y="180" width="20" height="10"/>
    <rect x="270" y="230" width="10" height="10"/>
    <rect x="0" y="240" width="10" height="10"/>
    <rect x="260" y="240" width="10" height="10"/>
  </g>
  <g fill="#184650">
    <rect x="140" y="100" width="10" height="10"/>
    <rect x="130" y="110" width="10" height="10"/>
    <rect x="130" y="120" width="10" height="10"/>
    <rect x="190" y="170" width="10" height="10"/>
    <rect x="100" y="180" width="10" height="10"/>
    <rect x="50" y="200" width="10" height="10"/>
    <rect x="150" y="220" width="10" height="10"/>
    <rect x="280" y="220" width="10" height="10"/>
    <rect x="150" y="230" width="10" height="10"/>
    <rect x="0" y="280" width="10" height="10"/>
  </g>
  <g fill="#16b3db">
    <rect x="150" y="110" width="10" height="10"/>
    <rect x="240" y="130" width="10" height="10"/>
    <rect x="80" y="140" width="10" height="10"/>
  </g>
  <g fill="#0deffe">
    <rect x="150" y="120" width="10" height="10"/>
    <rect x="250" y="140" width="10" height="10"/>
    <rect x="100" y="240" width="10" height="10"/>
    <rect x="280" y="290" width="10" height="10"/>
  </g>
  <g fill="#1091d4">
    <rect x="140" y="130" width="10" height="10"/>
    <rect x="120" y="140" width="20" height="10"/>
    <rect x="60" y="210" width="10" height="10"/>
    <rect x="80" y="260" width="10" height="10"/>
    <rect x="80" y="270" width="10" height="10"/>
    <rect x="80" y="280" width="10" height="10"/>
    <rect x="80" y="290" width="10" height="10"/>
  </g>
  <g fill="#5275a6">
    <rect x="180" y="130" width="10" height="10"/>
    <rect x="180" y="140" width="10" height="10"/>
    <rect x="180" y="150" width="10" height="10"/>
    <rect x="150" y="190" width="10" height="10"/>
    <rect x="70" y="210" width="30" height="10"/>
    <rect x="110" y="230" width="10" height="10"/>
    <rect x="260" y="250" width="10" height="10"/>
  </g>
  <g fill="#13303c">
    <rect x="200" y="130" width="10" height="10"/>
    <rect x="80" y="160" width="10" height="10"/>
    <rect x="60" y="190" width="20" height="10"/>
    <rect x="20" y="200" width="10" height="10"/>
    <rect x="40" y="200" width="10" height="10"/>
    <rect x="130" y="210" width="10" height="10"/>
    <rect x="120" y="240" width="10" height="10"/>
    <rect x="20" y="260" width="10" height="10"/>
    <rect x="40" y="290" width="10" height="10"/>
  </g>
  <g fill="#68dde4">
    <rect x="100" y="140" width="10" height="10"/>
    <rect x="160" y="210" width="10" height="10"/>
  </g>
  <g fill="#112a3a">
    <rect x="90" y="160" width="20" height="10"/>
    <rect x="100" y="170" width="20" height="10"/>
    <rect x="80" y="190" width="20" height="10"/>
    <rect x="130" y="190" width="10" height="10"/>
    <rect x="130" y="200" width="20" height="10"/>
    <rect x="140" y="210" width="10" height="10"/>
    <rect x="120" y="220" width="10" height="10"/>
    <rect x="140" y="220" width="10" height="10"/>
    <rect x="0" y="250" width="10" height="10"/>
    <rect x="10" y="260" width="10" height="10"/>
    <rect x="100" y="290" width="10" height="10"/>
    <rect x="60" y="300" width="10" height="10"/>
    <rect x="100" y="300" width="20" height="10"/>
  </g>
  <g fill="#0b1784">
    <rect x="130" y="160" width="10" height="10"/>
    <rect x="100" y="200" width="10" height="10"/>
    <rect x="70" y="220" width="30" height="10"/>
    <rect x="70" y="230" width="30" height="10"/>
    <rect x="40" y="240" width="10" height="10"/>
    <rect x="50" y="260" width="20" height="10"/>
  </g>
  <g fill="#142e93">
    <rect x="150" y="170" width="10" height="10"/>
    <rect x="150" y="180" width="10" height="10"/>
    <rect x="90" y="240" width="10" height="10"/>
  </g>
  <g fill="#36565c">
    <rect x="220" y="170" width="30" height="10"/>
    <rect x="200" y="190" width="30" height="10"/>
    <rect x="260" y="190" width="10" height="10"/>
  </g>
  <rect fill="#153fa4" x="30" y="210" width="10" height="10"/>
  <g fill="#0d32a5">
    <rect x="70" y="240" width="20" height="10"/>
    <rect x="50" y="250" width="10" height="10"/>
  </g>
  <g fill="#1f336f">
    <rect x="40" y="250" width="10" height="10"/>
    <rect x="40" y="260" width="10" height="10"/>
  </g>
  <rect fill="#2fa1d6" x="80" y="310" width="10" height="10"/>
</svg>
