<?xml version="1.0" encoding="UTF-8"?>
<!-- Generator: visioncortex VTracer 0.6.5 -->
<svg version="1.1" xmlns="http://www.w3.org/2000/svg" width="150" height="85">
<path d="M0,0 L150,0 L150,85 L0,85 Z " fill="#0F1116" transform="translate(0,0)"/>
<path d="M0,0 L42,0 L41,5 L34,6 L34,10 L38,11 L40,12 L40,15 L32,21 L29,20 L28,24 L22,31 L29,30 L31,31 L31,33 L37,35 L42,37 L42,39 L39,41 L40,45 L44,50 L43,55 L45,58 L45,64 L40,69 L33,76 L33,82 L37,84 L37,85 L0,85 Z " fill="#293743" transform="translate(0,0)"/>
<path d="M0,0 L36,0 L35,5 L28,6 L30,11 L30,14 L27,17 L26,19 L22,19 L21,23 L12,27 L13,32 L14,37 L10,38 L8,34 L1,35 L0,30 L-2,30 L-2,28 L2,25 L3,21 L0,21 L-1,15 L2,12 L2,4 L0,3 Z " fill="#38434F" transform="translate(6,0)"/>
<path d="M0,0 L8,1 L15,1 L23,5 L20,11 L19,19 L15,24 L9,31 L10,32 L16,32 L17,37 L21,39 L21,40 L3,40 L-1,36 L-2,32 L-4,31 L-3,28 L2,26 L-2,21 L-9,16 L-9,13 L-11,13 L-11,11 L0,11 L1,7 L-1,7 L-1,1 Z " fill="#1E2A35" transform="translate(16,45)"/>
<path d="M0,0 L3,1 L4,10 L7,11 L7,17 L14,16 L15,20 L17,20 L16,24 L5,24 L5,26 L7,26 L8,29 L15,34 L19,39 L13,42 L12,44 L15,45 L15,49 L19,51 L19,53 L0,53 Z " fill="#3D4854" transform="translate(0,32)"/>
<path d="M0,0 L6,0 L6,3 L9,4 L9,12 L6,16 L6,21 L9,21 L8,26 L4,28 L4,30 L6,30 L7,34 L15,33 L14,40 L11,40 L11,42 L14,42 L13,47 L10,49 L7,49 L7,43 L3,42 L2,33 L0,32 Z " fill="#1C2A36" transform="translate(0,0)"/>
<path d="M0,0 L9,0 L17,3 L21,8 L20,13 L22,16 L22,22 L17,27 L9,35 L3,35 L2,37 L2,33 L7,28 L6,26 L11,22 L13,11 L15,9 L9,4 L0,1 Z " fill="#313E4A" transform="translate(23,42)"/>
<path d="M0,0 L6,0 L6,2 L10,3 L16,7 L16,9 L9,9 L4,8 L4,13 L3,17 L3,19 L6,19 L5,24 L-4,33 L-7,32 L-6,27 L-2,20 L-7,20 L-7,15 L-5,13 L-3,6 L-1,4 Z " fill="#4E5B67" transform="translate(14,0)"/>
<path d="M0,0 L10,4 L10,6 L7,8 L6,11 L0,10 L-8,10 L1,13 L-1,14 L-13,14 L-16,13 L-18,16 L-21,14 L-19,14 L-18,9 L-21,9 L-20,7 L-15,7 L-11,5 L3,5 L0,2 Z " fill="#27333F" transform="translate(32,33)"/>
<path d="M0,0 L44,0 L42,5 L32,5 L30,4 L14,3 L5,4 L0,2 Z " fill="#11202F" transform="translate(48,0)"/>
<path d="M0,0 L6,0 L6,2 L10,3 L16,7 L16,9 L11,8 L9,7 L9,5 L4,6 L1,14 L-1,14 L-3,18 L-6,18 L-5,13 L-3,6 L-1,4 Z " fill="#6F7A87" transform="translate(14,0)"/>
<path d="M0,0 L4,2 L5,4 L7,1 L11,0 L12,4 L15,4 L14,8 L10,10 L8,9 L8,7 L6,7 L5,11 L1,12 L-2,7 L-1,1 Z " fill="#1E242D" transform="translate(103,71)"/>
<path d="M0,0 L4,2 L6,14 L9,15 L11,20 L0,20 Z " fill="#2C333C" transform="translate(0,65)"/>
<path d="M0,0 L5,0 L7,4 L9,5 L9,10 L7,12 L-1,11 L-2,6 Z " fill="#313E4A" transform="translate(18,8)"/>
<path d="M0,0 L9,1 L8,5 L7,6 L1,6 L2,12 L-4,12 L-4,3 Z " fill="#5A6874" transform="translate(4,49)"/>
<path d="M0,0 L1,0 L1,5 L-2,5 L-2,7 L1,7 L0,12 L-3,14 L-6,14 L-8,6 L-9,1 Z " fill="#13202C" transform="translate(13,35)"/>
<path d="M0,0 L10,1 L10,7 L7,9 L0,9 L-1,7 L-1,1 Z " fill="#1B232B" transform="translate(140,73)"/>
<path d="M0,0 L10,4 L10,6 L7,8 L6,11 L0,10 L0,8 L-11,8 L-8,6 L-6,5 L3,5 L0,2 Z " fill="#14212D" transform="translate(32,33)"/>
<path d="M0,0 L6,0 L6,3 L8,4 L5,9 L4,13 L0,15 Z " fill="#222F3C" transform="translate(0,0)"/>
<path d="M0,0 L4,0 L3,5 L-5,13 L-8,12 L-7,7 Z " fill="#596672" transform="translate(15,20)"/>
<path d="M0,0 L2,0 L2,8 L-1,11 L-3,11 L-2,15 L-6,16 L-3,16 L-3,19 L-7,21 L-7,11 L-3,9 L-2,4 Z " fill="#0F1C28" transform="translate(7,4)"/>
<path d="M0,0 L6,0 L7,5 L11,7 L11,8 L1,8 Z " fill="#2E3239" transform="translate(26,77)"/>
<path d="M0,0 L4,2 L5,6 L5,13 L3,15 L2,13 L0,14 Z " fill="#2F3742" transform="translate(0,65)"/>
<path d="M0,0 L4,1 L7,4 L10,7 L9,10 L5,9 L0,4 Z " fill="#09141E" transform="translate(9,57)"/>
<path d="M0,0 L4,2 L8,6 L8,9 L4,13 L1,12 L1,10 L3,10 L3,6 L-1,5 L2,4 Z " fill="#505D69" transform="translate(28,5)"/>
<path d="M0,0 L2,0 L1,8 L1,13 L-7,13 L-9,11 L-9,8 L-4,9 L-4,11 L-2,11 L-2,2 Z " fill="#202830" transform="translate(83,72)"/>
<path d="M0,0 L2,1 L2,5 L6,7 L6,9 L-2,9 L-4,4 L-7,3 L-3,2 L-3,5 L-1,4 Z " fill="#3E4650" transform="translate(13,76)"/>
<path d="M0,0 L1,0 L1,12 L3,14 L3,20 L-4,26 L-3,22 L0,20 L0,14 L-2,11 Z " fill="#172330" transform="translate(44,44)"/>
<path d="M0,0 L5,2 L4,6 L3,7 L-4,7 L-3,2 Z " fill="#1B2835" transform="translate(22,11)"/>
<path d="M0,0 L9,0 L14,3 L15,6 L10,5 L0,1 Z " fill="#3F4C58" transform="translate(23,42)"/>
<path d="M0,0 L4,5 L0,6 L-1,12 L-6,7 L-6,3 L0,3 Z " fill="#424D59" transform="translate(6,58)"/>
<path d="M0,0 L3,0 L5,4 L5,7 L-2,7 L-2,2 Z " fill="#162E3C" transform="translate(63,78)"/>
<path d="M0,0 L2,1 L-2,6 L5,5 L7,6 L7,8 L-3,8 L-5,6 L-4,1 Z " fill="#1A2733" transform="translate(24,25)"/>
<path d="M0,0 L5,0 L7,5 L5,7 L0,5 Z " fill="#515965" transform="translate(6,63)"/>
<path d="M0,0 L8,0 L8,2 L11,3 L11,5 L3,4 L0,2 Z " fill="#3C4955" transform="translate(24,33)"/>
<path d="M0,0 L4,0 L4,3 L-2,8 L-5,8 L-4,4 Z " fill="#73808D" transform="translate(15,20)"/>
<path d="M0,0 L5,2 L5,5 L-3,11 L-2,5 L1,4 Z " fill="#27333E" transform="translate(35,10)"/>
<path d="M0,0 L2,1 L0,6 L-2,7 L-13,7 L-15,3 L-12,4 L-2,4 Z " fill="#161B23" transform="translate(92,0)"/>
<path d="M0,0 L10,0 L9,4 L2,4 L0,3 Z " fill="#48525E" transform="translate(80,0)"/>
<path d="M0,0 L2,0 L4,8 L1,9 L1,6 L-3,6 L-3,1 Z " fill="#4F5964" transform="translate(9,72)"/>
<path d="M0,0 L2,0 L1,5 L-3,7 L-2,11 L-6,10 L-5,6 Z " fill="#0C1924" transform="translate(7,21)"/>
<path d="M0,0 L2,1 L3,7 L-2,13 L-4,13 L-3,9 L0,8 L0,5 L-3,5 L-2,3 L1,4 Z " fill="#24313D" transform="translate(4,15)"/>
<path d="M0,0 L10,4 L10,6 L6,8 L3,8 L3,6 L1,5 L3,5 L0,2 Z " fill="#283541" transform="translate(32,33)"/>
<path d="M0,0 L2,0 L2,8 L-2,11 L-3,5 Z " fill="#15222E" transform="translate(7,4)"/>
<path d="M0,0 L11,3 L12,5 L-2,5 L-2,2 L0,2 Z " fill="#2E3C48" transform="translate(21,42)"/>
<path d="M0,0 L4,1 L4,5 L-4,5 L-3,2 Z " fill="#2F373F" transform="translate(51,80)"/>
<path d="M0,0 L6,1 L6,3 L2,6 L0,6 L0,4 L-3,3 L-3,1 Z " fill="#101E2A" transform="translate(28,61)"/>
<path d="M0,0 L4,2 L1,4 L0,9 L-6,9 L-6,6 L-2,5 Z " fill="#121A24" transform="translate(61,76)"/>
<path d="M0,0 L3,1 L3,8 L-1,8 L-1,1 Z " fill="#282E38" transform="translate(104,72)"/>
<path d="M0,0 L3,0 L3,3 L12,3 L13,0 L15,0 L13,5 L3,5 L0,3 Z " fill="#25303C" transform="translate(77,0)"/>
<path d="M0,0 L1,0 L0,7 L-6,8 L-6,10 L-8,10 L-8,6 L-1,5 Z " fill="#121B25" transform="translate(42,0)"/>
<path d="M0,0 L5,0 L6,5 L0,5 Z " fill="#4F5D69" transform="translate(0,56)"/>
<path d="M0,0 L5,0 L4,5 L0,7 Z " fill="#151A28" transform="translate(0,0)"/>
<path d="M0,0 L10,0 L10,2 L8,3 L1,3 Z " fill="#4D505E" transform="translate(30,0)"/>
<path d="M0,0 L3,0 L5,5 L-2,5 Z " fill="#1A212A" transform="translate(6,80)"/>
<path d="M0,0 L4,0 L4,5 L-1,5 Z " fill="#39434C" transform="translate(141,75)"/>
<path d="M0,0 L4,2 L3,7 L0,8 Z " fill="#252E38" transform="translate(0,65)"/>
<path d="M0,0 L5,1 L5,4 L-3,4 Z " fill="#6B7986" transform="translate(4,51)"/>
<path d="M0,0 L2,0 L2,7 L-2,6 L-1,1 Z " fill="#262C35" transform="translate(112,71)"/>
<path d="M0,0 L2,0 L2,3 L5,3 L5,9 L0,4 Z " fill="#36404B" transform="translate(0,61)"/>
<path d="M0,0 L5,1 L2,6 L-3,8 L-3,6 L0,4 Z " fill="#162430" transform="translate(34,49)"/>
<path d="M0,0 L4,1 L4,3 L8,4 L7,6 L1,5 L3,4 L3,2 L0,1 Z " fill="#1D2B37" transform="translate(31,38)"/>
<path d="M0,0 L1,0 L1,5 L3,6 L1,8 L-2,8 L-1,3 Z " fill="#626F7C" transform="translate(10,10)"/>
<path d="M0,0 L2,4 L-4,11 L-5,8 L-1,5 Z " fill="#23303C" transform="translate(45,59)"/>
<path d="M0,0 L3,1 L4,6 L-1,6 Z " fill="#465360" transform="translate(3,44)"/>
<path d="M0,0 L1,3 L5,2 L2,6 L-3,6 L-1,5 Z " fill="#323E4A" transform="translate(15,35)"/>
<path d="M0,0 L2,1 L1,9 L-2,6 Z " fill="#23303C" transform="translate(34,55)"/>
<path d="M0,0 L7,1 L8,4 L3,3 Z " fill="#46535F" transform="translate(30,44)"/>
<path d="M0,0 L2,0 L1,5 L-2,7 L-1,1 Z " fill="#14222E" transform="translate(7,21)"/>
<path d="M0,0 L1,3 L3,4 L-1,8 L-3,8 L-1,4 Z " fill="#2C3642" transform="translate(5,0)"/>
<path d="M0,0 L8,0 L7,4 L7,1 L0,3 Z " fill="#474B59" transform="translate(6,0)"/>
<path d="M0,0 L8,0 L8,3 L2,2 Z " fill="#1F202F" transform="translate(22,0)"/>
<path d="M0,0 L3,1 L4,6 L0,6 Z " fill="#4A545F" transform="translate(12,65)"/>
<path d="M0,0 L5,2 L5,4 L0,4 Z " fill="#5F6A76" transform="translate(8,64)"/>
<path d="M0,0 L1,0 L1,5 L0,6 L-8,6 L-8,5 L-1,3 Z " fill="#44525E" transform="translate(13,50)"/>
<path d="M0,0 L4,0 L4,3 L0,5 L-1,1 Z " fill="#687582" transform="translate(15,20)"/>
<path d="M0,0 L4,2 L1,4 L0,9 L-1,9 L-1,2 Z " fill="#162734" transform="translate(61,76)"/>
<path d="M0,0 L2,0 L1,3 L-1,4 L-3,7 L-3,2 Z " fill="#39414C" transform="translate(3,71)"/>
<path d="M0,0 L5,1 L5,3 L-2,3 L0,2 Z " fill="#242526" transform="translate(22,82)"/>
<path d="M0,0 L4,2 L4,5 L0,3 Z " fill="#272F2C" transform="translate(74,80)"/>
<path d="M0,0 L3,1 L-3,6 L-3,3 L-1,3 Z " fill="#172430" transform="translate(35,15)"/>
<path d="M0,0 L4,0 L4,3 L0,4 Z " fill="#576571" transform="translate(32,11)"/>
<path d="M0,0 L2,4 L-3,4 L-2,1 Z " fill="#1D242D" transform="translate(99,81)"/>
<path d="M0,0 L4,2 L4,4 L0,4 Z " fill="#2A4A58" transform="translate(62,81)"/>
<path d="M0,0 L5,0 L4,4 L2,4 L2,1 Z " fill="#62707C" transform="translate(7,51)"/>
<path d="M0,0 L1,0 L3,9 L0,8 Z " fill="#212F3B" transform="translate(3,34)"/>
<path d="M0,0 L4,0 L4,3 L0,3 Z " fill="#20262F" transform="translate(116,82)"/>
<path d="M0,0 L3,0 L3,5 L1,5 Z " fill="#021A26" transform="translate(67,80)"/>
<path d="M0,0 L3,0 L3,4 L0,4 Z " fill="#081520" transform="translate(4,36)"/>
<path d="M0,0 L4,1 L0,4 L-1,1 Z " fill="#2C3945" transform="translate(20,9)"/>
<path d="M0,0 L2,1 L0,4 L-3,4 L-2,1 Z " fill="#262F3A" transform="translate(15,72)"/>
<path d="M0,0 L4,0 L5,4 L0,1 Z " fill="#24323F" transform="translate(11,56)"/>
<path d="M0,0 L3,1 L3,3 L-2,3 L-2,1 Z " fill="#273441" transform="translate(28,30)"/>
<path d="M0,0 L4,2 L4,4 L0,3 Z " fill="#191E1F" transform="translate(70,79)"/>
<path d="M0,0 L3,0 L2,4 L0,4 Z " fill="#5A6571" transform="translate(6,74)"/>
<path d="M0,0 L2,0 L2,3 L-2,4 Z " fill="#7A8693" transform="translate(13,22)"/>
<path d="M0,0 L3,1 L1,4 L-1,4 Z " fill="#0F1C28" transform="translate(23,13)"/>
<path d="M0,0 L2,1 L2,4 L-1,4 Z " fill="#424C55" transform="translate(143,76)"/>
<path d="M0,0 L1,4 L-2,3 Z " fill="#2F3541" transform="translate(113,74)"/>
<path d="M0,0 L3,1 L3,3 L0,3 Z " fill="#6E7884" transform="translate(8,64)"/>
<path d="M0,0 L2,0 L1,3 L-1,3 Z " fill="#4A535D" transform="translate(11,78)"/>
</svg>
