<?xml version="1.0" encoding="UTF-8"?>
<!-- Generator: visioncortex VTracer 0.6.5 -->
<svg version="1.1" xmlns="http://www.w3.org/2000/svg" width="150" height="85">
<path d="M0,0 L150,0 L150,85 L0,85 Z " fill="#110F13" transform="translate(0,0)"/>
<path d="M0,0 L4,1 L7,6 L9,7 L8,12 L4,14 L-2,13 L-2,10 L-5,10 L-4,5 L-2,1 Z " fill="#262D2F" transform="translate(57,41)"/>
<path d="M0,0 L5,0 L9,3 L9,5 L6,6 L4,6 L4,11 L8,12 L8,14 L-1,15 L-2,9 Z " fill="#26252E" transform="translate(59,25)"/>
<path d="M0,0 L3,4 L6,10 L4,14 L1,14 L1,12 L-3,12 L-5,9 L-4,5 Z " fill="#2E3237" transform="translate(83,39)"/>
<path d="M0,0 L4,2 L7,8 L7,11 L3,14 L0,14 L-1,8 L-3,5 Z " fill="#37333A" transform="translate(102,40)"/>
<path d="M0,0 L3,1 L2,5 L11,5 L6,10 L1,9 L1,6 L-2,6 L-1,1 Z " fill="#2C3534" transform="translate(54,45)"/>
<path d="M0,0 L2,1 L0,6 L3,6 L3,9 L7,9 L7,20 L5,17 L3,11 L-2,7 L-2,2 Z " fill="#1E2223" transform="translate(52,45)"/>
<path d="M0,0 L3,3 L5,7 L5,10 L1,13 L-2,13 L-2,7 L1,9 Z " fill="#2A252B" transform="translate(104,41)"/>
<path d="M0,0 L2,4 L0,4 L-2,11 L-4,12 L-5,5 Z " fill="#202629" transform="translate(83,39)"/>
<path d="M0,0 L3,1 L1,3 L1,8 L3,10 L-1,9 L-3,8 L-2,2 Z " fill="#2E2E38" transform="translate(62,28)"/>
<path d="M0,0 L1,2 L3,3 L1,3 L1,5 L-11,4 L-7,2 L-1,2 Z " fill="#1A1C25" transform="translate(75,62)"/>
<path d="M0,0 L4,0 L5,6 L2,6 L0,3 Z " fill="#05090C" transform="translate(61,41)"/>
<path d="M0,0 L6,0 L1,5 L-1,1 Z " fill="#363B40" transform="translate(59,50)"/>
<path d="M0,0 L2,1 L0,7 L-2,7 L-2,2 Z " fill="#1A2322" transform="translate(52,45)"/>
<path d="M0,0 L5,2 L6,5 L3,6 L2,3 L0,2 Z " fill="#1A2131" transform="translate(62,25)"/>
<path d="M0,0 L4,5 L1,6 Z " fill="#1E2629" transform="translate(60,42)"/>
<path d="M0,0 L0,3 L-3,5 L-2,1 Z " fill="#21262A" transform="translate(88,49)"/>
<path d="M0,0 L2,1 L2,4 L-1,3 Z " fill="#23292C" transform="translate(94,49)"/>
</svg>
