<?xml version="1.0" encoding="UTF-8"?>
<!-- Generator: visioncortex VTracer 0.6.5 -->
<svg version="1.1" xmlns="http://www.w3.org/2000/svg" width="150" height="84">
<path d="M0,0 L150,0 L150,84 L0,84 Z " fill="#000000" transform="translate(0,0)"/>
<path d="M0,0 L6,1 L5,5 L3,5 L1,10 L-2,13 L-19,14 L-27,9 L-27,6 L-24,4 L-23,1 L-15,1 L-16,3 L-20,3 L-20,5 L-22,5 L-18,9 L-4,9 L-3,3 Z " fill="#121212" transform="translate(89,34)"/>
<path d="M0,0 L8,0 L7,2 L3,2 L3,4 L1,4 L3,8 L-3,7 L-3,5 L-1,3 Z " fill="#3A3A3A" transform="translate(66,35)"/>
<path d="M0,0 L3,1 L3,3 L12,4 L13,6 L7,7 L0,3 Z " fill="#161616" transform="translate(62,40)"/>
<path d="M0,0 L5,1 L2,3 L0,3 Z " fill="#222222" transform="translate(70,44)"/>
<path d="M0,0 L2,0 L1,3 L-1,3 Z " fill="#494949" transform="translate(78,33)"/>
</svg>
