<?xml version="1.0" encoding="UTF-8"?>
<!-- Generator: visioncortex VTracer 0.6.5 -->
<svg version="1.1" xmlns="http://www.w3.org/2000/svg" width="150" height="84">
<path d="M0,0 L150,0 L150,84 L0,84 Z " fill="#000001" transform="translate(0,0)"/>
<path d="M0,0 L8,1 L8,4 L4,4 L10,6 L9,12 L7,16 L8,24 L13,25 L12,30 L15,30 L15,25 L16,28 L26,31 L23,24 L21,23 L20,15 L22,15 L22,13 L19,12 L19,10 L23,11 L28,14 L27,21 L33,20 L36,23 L35,25 L31,26 L32,34 L32,37 L27,42 L29,43 L30,45 L31,48 L27,48 L26,46 L24,46 L24,44 L19,45 L20,48 L27,49 L29,54 L34,56 L34,58 L23,58 L23,61 L28,61 L28,63 L22,62 L25,67 L19,67 L18,70 L26,70 L26,72 L33,72 L40,76 L40,74 L42,73 L43,68 L32,65 L32,67 L38,69 L38,70 L30,70 L31,64 L32,63 L40,63 L41,65 L48,66 L47,70 L53,69 L53,71 L48,72 L48,79 L-14,79 L-14,28 L-7,27 L-7,16 L-5,11 L-7,11 L-7,9 L-5,8 L-2,3 L0,3 Z " fill="#10151A" transform="translate(14,5)"/>
<path d="M0,0 L7,0 L6,4 L14,5 L17,8 L20,9 L21,7 L21,13 L25,11 L24,8 L27,8 L27,6 L35,7 L36,9 L30,9 L29,12 L37,12 L37,14 L44,14 L51,18 L51,16 L53,15 L54,10 L43,7 L43,9 L49,11 L49,12 L41,12 L42,6 L43,5 L51,5 L52,7 L59,8 L58,12 L64,11 L64,13 L59,14 L59,21 L-3,21 L-3,6 L3,8 L3,5 L-2,4 Z " fill="#202530" transform="translate(3,63)"/>
<path d="M0,0 L4,2 L9,4 L18,6 L21,9 L22,12 L28,14 L28,16 L33,17 L32,19 L30,19 L30,17 L26,18 L24,24 L26,24 L26,21 L28,21 L28,25 L34,23 L34,20 L38,18 L36,16 L38,16 L37,13 L40,14 L41,18 L46,20 L46,22 L35,22 L35,25 L40,25 L40,27 L34,26 L35,29 L28,28 L28,30 L25,30 L27,34 L22,35 L21,31 L17,30 L15,28 L7,27 L7,24 L8,22 L1,23 L0,25 L4,27 L4,30 L0,29 L-2,28 L-2,6 Z " fill="#1C222A" transform="translate(2,41)"/>
<path d="M0,0 L4,0 L4,5 L7,5 L8,7 L9,6 L16,6 L12,8 L16,10 L11,11 L15,14 L28,14 L29,17 L36,18 L35,20 L33,20 L33,23 L38,24 L38,29 L19,29 L19,22 L24,21 L24,19 L18,20 L17,22 L18,18 L19,16 L15,17 L11,15 L11,13 L3,14 L2,19 L8,19 L3,17 L3,15 L10,16 L14,18 L14,23 L11,24 L11,26 L5,24 L2,23 L-3,22 L-3,20 L-9,21 L-11,20 L-10,16 L-5,16 L-7,12 L-1,13 L-1,11 L-6,11 L-6,8 L5,8 L5,6 L2,7 L2,5 L-1,4 Z " fill="#080A11" transform="translate(43,55)"/>
<path d="M0,0 L43,0 L40,1 L40,4 L43,4 L43,6 L39,6 L39,12 L33,14 L31,16 L27,16 L27,11 L29,11 L29,7 L24,8 L8,8 L8,12 L1,11 L-4,7 L-4,5 L-2,5 L-2,1 Z " fill="#0D1019" transform="translate(28,0)"/>
<path d="M0,0 L28,0 L26,1 L26,5 L24,5 L24,7 L14,5 L14,8 L11,10 L9,14 L7,14 L7,16 L9,16 L7,32 L0,33 Z " fill="#020705" transform="translate(0,0)"/>
<path d="M0,0 L12,0 L13,6 L20,6 L21,11 L22,15 L30,14 L32,15 L33,12 L39,13 L39,15 L33,15 L34,20 L40,22 L41,26 L36,28 L36,31 L30,33 L30,29 L28,29 L28,32 L26,32 L27,26 L32,25 L32,27 L34,25 L30,24 L30,22 L24,21 L23,17 L20,16 L20,14 L11,13 L5,10 L2,8 L1,14 L0,14 Z " fill="#2B343A" transform="translate(0,33)"/>
<path d="M0,0 L8,1 L8,4 L4,4 L10,6 L9,12 L7,16 L7,22 L4,23 L3,27 L-1,27 L-1,32 L-2,28 L-9,28 L-7,27 L-7,16 L-5,11 L-7,11 L-7,9 L-5,8 L-2,3 L0,3 Z " fill="#2D3738" transform="translate(14,5)"/>
<path d="M0,0 L7,0 L6,4 L10,8 L12,9 L11,11 L5,10 L5,13 L9,14 L9,15 L3,15 L-2,13 L-2,15 L4,16 L5,19 L12,19 L12,16 L19,17 L20,14 L26,14 L26,16 L30,17 L34,18 L34,20 L26,20 L25,21 L-3,21 L-3,6 L3,8 L3,5 L-2,4 Z " fill="#383D44" transform="translate(3,63)"/>
<path d="M0,0 L3,0 L3,18 L-12,18 L-12,16 L-14,16 L-14,13 L-9,13 L-10,10 L-9,5 L0,4 Z " fill="#172022" transform="translate(147,66)"/>
<path d="M0,0 L8,0 L9,2 L16,3 L15,7 L21,6 L21,8 L16,9 L16,16 L-2,16 L-1,9 L4,11 L8,13 L8,11 L10,10 L11,5 L0,2 L0,4 L6,6 L6,7 L-2,7 L-1,1 Z " fill="#181C24" transform="translate(46,68)"/>
<path d="M0,0 L4,0 L4,2 L7,4 L3,4 L4,10 L13,11 L13,12 L8,12 L8,14 L12,15 L11,20 L10,21 L4,21 L1,16 L2,12 L-5,12 L-5,5 L-1,5 Z " fill="#131C22" transform="translate(18,27)"/>
<path d="M0,0 L8,1 L11,5 L11,11 L15,11 L15,13 L1,13 L0,11 L-4,10 L-4,12 L-9,12 L-10,14 L-10,10 L-5,9 L-6,6 L-4,4 L0,4 L1,7 L3,8 L3,2 L0,1 Z " fill="#2A2F30" transform="translate(10,48)"/>
<path d="M0,0 L4,2 L9,4 L15,5 L15,7 L9,8 L11,9 L11,15 L8,14 L8,11 L3,13 L3,16 L-2,17 L-2,6 Z " fill="#0B1219" transform="translate(2,41)"/>
<path d="M0,0 L13,0 L16,3 L11,5 L10,8 L8,8 L8,12 L1,11 L-4,7 L-4,5 L-2,5 L-2,1 Z " fill="#1A2623" transform="translate(28,0)"/>
<path d="M0,0 L4,1 L9,4 L8,11 L14,10 L17,13 L16,15 L12,16 L10,18 L10,15 L5,15 L2,13 L1,5 L3,5 L3,3 L0,2 Z " fill="#080B12" transform="translate(33,15)"/>
<path d="M0,0 L11,0 L13,7 L16,7 L16,11 L6,10 L2,7 L1,13 L0,13 Z " fill="#565E68" transform="translate(0,34)"/>
<path d="M0,0 L2,0 L2,7 L3,9 L0,9 L0,6 L-2,6 L0,11 L-2,13 L-16,13 L-15,9 L-10,9 L-9,8 L-11,7 L-11,5 L-2,4 Z " fill="#22252F" transform="translate(128,71)"/>
<path d="M0,0 L3,0 L3,3 L14,4 L16,9 L11,11 L11,14 L5,16 L5,12 L3,12 L3,15 L1,15 L2,9 L7,8 L7,10 L9,8 L5,7 L5,5 L2,5 Z " fill="#40474E" transform="translate(25,50)"/>
<path d="M0,0 L4,1 L2,17 L-5,18 L-5,7 L-2,1 Z " fill="#020505" transform="translate(5,15)"/>
<path d="M0,0 L8,1 L8,4 L4,4 L10,6 L9,10 L9,7 L0,8 L-1,12 L-4,16 L-6,15 L-5,11 L-7,11 L-7,9 L-5,8 L-2,3 L0,3 Z " fill="#1E2A26" transform="translate(14,5)"/>
<path d="M0,0 L6,0 L6,2 L10,3 L14,4 L14,6 L6,6 L5,7 L-11,7 L-11,5 L-8,5 L-8,2 L-1,3 Z " fill="#383D46" transform="translate(23,77)"/>
<path d="M0,0 L23,0 L23,5 L14,4 L12,6 L3,6 L4,1 Z " fill="#000106" transform="translate(41,0)"/>
<path d="M0,0 L4,0 L6,4 L11,3 L11,9 L6,9 L6,12 L8,12 L8,14 L-1,14 L0,11 L-1,7 L1,7 L1,10 L3,9 L2,6 L3,1 L-1,5 L-4,5 L-4,3 Z " fill="#0C0C11" transform="translate(127,70)"/>
<path d="M0,0 L2,0 L1,5 L5,4 L5,6 L8,6 L8,8 L15,9 L15,13 L6,13 L6,8 L-3,7 L-4,1 Z " fill="#161E28" transform="translate(25,30)"/>
<path d="M0,0 L5,0 L4,4 L2,4 L2,2 L0,2 L0,6 L-4,9 L-6,9 L-6,16 L-10,15 L-11,9 L-8,8 L-4,1 Z " fill="#36423E" transform="translate(18,12)"/>
<path d="M0,0 L11,0 L14,2 L14,0 L17,0 L17,5 L2,5 L2,3 L0,3 Z " fill="#424449" transform="translate(133,79)"/>
<path d="M0,0 L3,0 L6,3 L7,6 L13,8 L13,10 L18,11 L17,13 L15,13 L15,11 L11,12 L9,14 L4,12 L2,5 L1,3 L-2,1 Z " fill="#242D32" transform="translate(17,47)"/>
<path d="M0,0 L4,0 L4,16 L1,22 L0,22 Z " fill="#26322F" transform="translate(0,0)"/>
<path d="M0,0 L2,0 L2,2 L5,1 L2,11 L-6,12 L-6,7 L-2,4 L0,4 Z " fill="#1B2725" transform="translate(18,14)"/>
<path d="M0,0 L3,0 L3,2 L1,2 L4,5 L6,0 L10,0 L11,5 L9,5 L9,9 L2,8 L-1,5 Z " fill="#2D3836" transform="translate(27,3)"/>
<path d="M0,0 L4,1 L6,4 L6,10 L10,10 L10,12 L-3,12 L-3,10 L2,10 L3,6 L1,6 L-1,1 Z " fill="#394147" transform="translate(15,49)"/>
<path d="M0,0 L8,1 L8,2 L3,2 L3,4 L7,5 L6,10 L0,10 L-1,1 Z " fill="#0B1218" transform="translate(23,37)"/>
<path d="M0,0 L5,1 L12,2 L14,0 L20,1 L21,5 L17,4 L14,3 L14,6 L7,6 L6,4 L0,2 Z " fill="#1A1D29" transform="translate(1,76)"/>
<path d="M0,0 L3,1 L4,5 L9,7 L9,9 L-2,9 L-2,12 L3,12 L3,14 L-5,14 L-5,10 L-3,10 L-3,7 L1,5 L-1,3 L1,3 Z " fill="#21252C" transform="translate(39,54)"/>
<path d="M0,0 L4,2 L3,13 L-2,14 L-2,4 L0,4 Z " fill="#020406" transform="translate(2,44)"/>
<path d="M0,0 L3,1 L3,5 L-3,6 L-4,8 L0,10 L0,13 L-4,12 L-6,11 L-6,4 L-5,2 L0,2 Z " fill="#0C1017" transform="translate(6,58)"/>
<path d="M0,0 L4,1 L8,5 L6,11 L2,11 L1,10 L1,5 L3,5 L3,3 L0,2 Z " fill="#181D25" transform="translate(33,15)"/>
<path d="M0,0 L10,2 L13,5 L10,5 L10,8 L-2,8 L-1,6 L7,7 L7,5 L2,4 Z " fill="#060910" transform="translate(30,76)"/>
<path d="M0,0 L2,0 L2,3 L8,4 L7,6 L-7,6 L-6,2 L-1,2 Z " fill="#0E151E" transform="translate(119,78)"/>
<path d="M0,0 L3,0 L3,11 L-6,9 L-6,7 L0,4 Z " fill="#303136" transform="translate(147,66)"/>
<path d="M0,0 L9,2 L14,1 L11,2 L11,7 L4,8 L2,3 L0,2 Z " fill="#141422" transform="translate(56,4)"/>
<path d="M0,0 L7,0 L8,3 L12,3 L12,5 L0,5 Z " fill="#3E434E" transform="translate(0,79)"/>
<path d="M0,0 L5,0 L6,7 L8,7 L8,12 L2,11 L1,13 L2,8 L3,2 L0,1 Z " fill="#2A3137" transform="translate(10,48)"/>
<path d="M0,0 L4,0 L4,5 L7,5 L8,7 L9,6 L16,6 L16,7 L9,9 L4,9 L5,6 L2,7 L2,5 L-1,4 Z " fill="#0A0C13" transform="translate(43,55)"/>
<path d="M0,0 L4,1 L8,3 L9,1 L9,6 L8,7 L2,7 Z " fill="#383F47" transform="translate(15,69)"/>
<path d="M0,0 L6,0 L6,3 L8,4 L9,6 L10,9 L6,9 L5,7 L3,7 L3,5 L-2,5 L-2,4 L4,4 L3,2 Z " fill="#0A1011" transform="translate(35,44)"/>
<path d="M0,0 L6,0 L7,4 L4,5 L4,7 L0,7 Z " fill="#010408" transform="translate(13,32)"/>
<path d="M0,0 L2,0 L2,4 L8,3 L6,4 L6,6 L9,7 L6,8 L2,7 L1,9 L0,6 L-2,5 L-2,3 L0,3 Z " fill="#0E1219" transform="translate(28,62)"/>
<path d="M0,0 L5,0 L5,4 L14,4 L12,7 L7,7 L6,9 L3,8 L3,3 L0,2 Z " fill="#11181D" transform="translate(26,39)"/>
<path d="M0,0 L6,0 L6,2 L9,3 L5,5 L2,5 L0,8 L-1,3 Z " fill="#030B17" transform="translate(111,76)"/>
<path d="M0,0 L7,1 L7,3 L1,3 L1,8 L-4,8 L-4,4 L0,3 Z " fill="#252D32" transform="translate(32,45)"/>
<path d="M0,0 L9,0 L9,4 L0,4 Z " fill="#3D434A" transform="translate(31,39)"/>
<path d="M0,0 L2,0 L4,4 L4,7 L0,5 L-2,4 L-3,10 L-4,10 L-3,1 Z " fill="#424953" transform="translate(4,37)"/>
<path d="M0,0 L5,5 L9,7 L6,7 L6,12 L5,8 L-2,8 L0,7 Z " fill="#1B2427" transform="translate(7,25)"/>
<path d="M0,0 L6,2 L7,4 L11,6 L11,7 L5,7 L1,5 Z " fill="#6E747E" transform="translate(1,71)"/>
<path d="M0,0 L3,0 L3,3 L9,3 L10,7 L5,7 L5,5 L2,5 Z " fill="#4A5158" transform="translate(25,50)"/>
<path d="M0,0 L2,0 L2,2 L7,3 L6,9 L2,9 L3,5 L-1,3 Z " fill="#191E28" transform="translate(38,75)"/>
<path d="M0,0 L8,0 L8,2 L13,3 L12,5 L10,5 L10,3 L0,3 Z " fill="#1D242B" transform="translate(22,55)"/>
<path d="M0,0 L5,1 L6,5 L1,7 L-1,5 Z " fill="#373C42" transform="translate(35,54)"/>
<path d="M0,0 L5,1 L3,2 L3,4 L5,4 L5,7 L0,8 L-1,5 Z " fill="#16161C" transform="translate(138,71)"/>
<path d="M0,0 L5,0 L6,2 L0,2 L0,4 L6,6 L6,7 L-2,7 L-1,1 Z " fill="#272C34" transform="translate(46,68)"/>
<path d="M0,0 L8,1 L9,3 L3,3 L2,5 L-3,4 L-3,2 L0,2 Z " fill="#333941" transform="translate(30,69)"/>
<path d="M0,0 L3,0 L3,5 L-5,5 L-2,1 L0,2 Z " fill="#2F393B" transform="translate(147,79)"/>
<path d="M0,0 L2,0 L5,3 L7,4 L6,6 L0,5 L-1,7 L-1,5 L-3,4 L-1,4 Z " fill="#4F545F" transform="translate(8,68)"/>
<path d="M0,0 L3,1 L3,8 L-5,8 L-5,6 L0,6 Z " fill="#495058" transform="translate(17,53)"/>
<path d="M0,0 L4,1 L8,2 L8,4 L0,4 L-3,4 Z " fill="#343A45" transform="translate(29,79)"/>
<path d="M0,0 L4,2 L4,8 L1,7 L1,4 L-2,4 Z " fill="#1B2025" transform="translate(9,48)"/>
<path d="M0,0 L2,0 L2,2 L-3,3 L-1,8 L-5,6 L-6,1 Z " fill="#3B4349" transform="translate(28,47)"/>
<path d="M0,0 L4,0 L3,5 L-2,5 L-2,1 Z " fill="#03090E" transform="translate(26,42)"/>
<path d="M0,0 L5,1 L4,5 L-1,5 Z " fill="#15161C" transform="translate(69,79)"/>
<path d="M0,0 L5,2 L6,5 L-1,5 Z " fill="#070B14" transform="translate(45,79)"/>
<path d="M0,0 L4,1 L9,3 L8,8 L4,5 L6,5 L6,3 L1,3 Z " fill="#010308" transform="translate(36,67)"/>
<path d="M0,0 L4,2 L3,4 L1,3 L1,5 L-4,5 L-5,7 L-5,3 L0,2 Z " fill="#212528" transform="translate(5,55)"/>
<path d="M0,0 L3,0 L3,2 L1,2 L4,5 L4,3 L6,3 L5,7 L0,6 L-1,3 Z " fill="#3A4543" transform="translate(27,3)"/>
<path d="M0,0 L4,1 L1,1 L1,3 L3,3 L2,7 L2,4 L-7,5 L-6,3 L-1,1 Z " fill="#040911" transform="translate(55,3)"/>
<path d="M0,0 L10,4 L6,5 L0,4 Z " fill="#03060B" transform="translate(32,71)"/>
<path d="M0,0 L2,1 L-1,6 L1,7 L-3,10 L-3,8 L-5,8 L-5,6 L-3,5 Z " fill="#182420" transform="translate(12,8)"/>
<path d="M0,0 L7,1 L5,2 L5,4 L-1,4 Z " fill="#3C4955" transform="translate(113,80)"/>
<path d="M0,0 L5,1 L5,6 L0,4 L-1,1 Z " fill="#040810" transform="translate(15,64)"/>
<path d="M0,0 L5,0 L5,4 L-1,4 L-1,1 Z " fill="#171D27" transform="translate(10,64)"/>
<path d="M0,0 L2,1 L0,6 L-3,5 L-3,7 L-6,7 L-7,3 L0,4 Z " fill="#121D1C" transform="translate(36,8)"/>
<path d="M0,0 L2,0 L2,7 L3,9 L0,9 L0,4 L-2,4 Z " fill="#201F25" transform="translate(128,71)"/>
<path d="M0,0 L7,0 L7,3 L1,4 Z " fill="#1C1B2A" transform="translate(59,8)"/>
<path d="M0,0 L9,2 L8,4 L2,4 L2,2 L0,2 Z " fill="#121218" transform="translate(70,71)"/>
<path d="M0,0 L9,0 L9,3 L3,3 L3,1 Z " fill="#04070D" transform="translate(17,62)"/>
<path d="M0,0 L4,2 L8,4 L2,4 L0,3 L0,7 L-2,6 Z " fill="#1F2731" transform="translate(2,41)"/>
<path d="M0,0 L2,2 L3,8 L8,8 L8,9 L2,9 L-1,4 Z " fill="#1B2427" transform="translate(20,39)"/>
<path d="M0,0 L3,1 L2,6 L-1,10 L-3,9 L1,4 Z " fill="#293532" transform="translate(11,11)"/>
<path d="M0,0 L4,0 L4,5 L0,5 Z " fill="#7A808A" transform="translate(0,79)"/>
<path d="M0,0 L7,1 L7,3 L-1,3 Z " fill="#050508" transform="translate(131,76)"/>
<path d="M0,0 L4,1 L8,5 L2,5 L2,2 L0,2 Z " fill="#525963" transform="translate(15,69)"/>
<path d="M0,0 L3,0 L3,7 L-3,6 L0,4 Z " fill="#1C1C22" transform="translate(147,66)"/>
<path d="M0,0 L4,0 L4,2 L7,3 L2,4 L-1,3 Z " fill="#262B33" transform="translate(22,65)"/>
<path d="M0,0 L7,0 L6,3 L0,3 Z " fill="#090C12" transform="translate(37,63)"/>
<path d="M0,0 L4,0 L4,2 L0,3 L0,7 L-2,7 L-1,1 Z " fill="#3E434B" transform="translate(28,58)"/>
<path d="M0,0 L2,0 L2,3 L-3,6 L-4,1 Z " fill="#2F3740" transform="translate(25,30)"/>
<path d="M0,0 L3,0 L2,5 L-3,5 L-3,3 L0,3 Z " fill="#515960" transform="translate(15,79)"/>
<path d="M0,0 L3,1 L3,3 L1,3 L1,7 L-2,7 L-1,3 Z " fill="#3D4649" transform="translate(35,5)"/>
<path d="M0,0 L7,1 L8,3 L2,3 L0,2 Z " fill="#01030A" transform="translate(46,70)"/>
<path d="M0,0 L3,0 L5,5 L2,5 L1,3 L-2,1 Z " fill="#1A2426" transform="translate(17,47)"/>
<path d="M0,0 L3,0 L3,4 L-3,4 L-1,3 Z " fill="#4C545C" transform="translate(13,41)"/>
<path d="M0,0 L6,0 L8,1 L8,4 L4,3 L4,1 Z " fill="#02060B" transform="translate(41,0)"/>
<path d="M0,0 L2,0 L1,4 L-3,4 L-3,1 Z " fill="#575B67" transform="translate(27,77)"/>
<path d="M0,0 L5,0 L8,3 L5,3 L4,6 L3,1 Z " fill="#0F1218" transform="translate(35,78)"/>
<path d="M0,0 L2,0 L3,6 L-1,5 Z " fill="#475250" transform="translate(9,22)"/>
<path d="M0,0 L4,1 L4,4 L0,4 Z " fill="#1F2126" transform="translate(77,80)"/>
<path d="M0,0 L5,1 L5,4 L1,3 Z " fill="#07090D" transform="translate(17,77)"/>
<path d="M0,0 L5,2 L4,4 L0,4 Z " fill="#090B12" transform="translate(24,72)"/>
<path d="M0,0 L2,1 L3,7 L-1,6 Z " fill="#202831" transform="translate(20,65)"/>
<path d="M0,0 L2,0 L2,4 L-3,4 L-4,2 L0,2 Z " fill="#010305" transform="translate(6,58)"/>
<path d="M0,0 L4,0 L4,3 L-1,4 Z " fill="#06080D" transform="translate(43,55)"/>
<path d="M0,0 L3,0 L3,4 L1,4 L0,7 Z " fill="#6A707A" transform="translate(0,34)"/>
<path d="M0,0 L4,1 L3,3 L-2,4 Z " fill="#181E27" transform="translate(15,76)"/>
<path d="M0,0 L3,0 L6,4 L-1,3 Z " fill="#181C26" transform="translate(51,68)"/>
<path d="M0,0 L7,0 L3,3 L0,2 Z " fill="#272C38" transform="translate(10,68)"/>
<path d="M0,0 L7,1 L4,3 L0,3 Z " fill="#050A11" transform="translate(22,55)"/>
<path d="M0,0 L7,0 L3,1 L3,3 L0,4 Z " fill="#4F575F" transform="translate(3,34)"/>
<path d="M0,0 L1,4 L-3,4 L-3,1 Z " fill="#4F545D" transform="translate(43,80)"/>
<path d="M0,0 L5,0 L5,5 L3,5 L3,2 L0,1 Z " fill="#2F353C" transform="translate(10,48)"/>
<path d="M0,0 L5,0 L4,4 L0,2 Z " fill="#1F262D" transform="translate(26,39)"/>
<path d="M0,0 L4,1 L3,4 L0,4 Z " fill="#101116" transform="translate(46,26)"/>
<path d="M0,0 L2,0 L2,4 L-2,4 L-2,2 L0,2 Z " fill="#05070E" transform="translate(58,80)"/>
<path d="M0,0 L5,1 L5,3 L-1,2 Z " fill="#161C24" transform="translate(32,75)"/>
<path d="M0,0 L5,0 L5,3 L1,2 Z " fill="#010306" transform="translate(1,68)"/>
<path d="M0,0 L4,1 L3,5 L1,5 L2,1 Z " fill="#030912" transform="translate(16,32)"/>
<path d="M0,0 L5,1 L6,3 L1,3 Z " fill="#374042" transform="translate(9,27)"/>
<path d="M0,0 L3,1 L3,3 L-2,2 Z " fill="#010208" transform="translate(48,81)"/>
<path d="M0,0 L2,1 L2,3 L-3,3 L-3,1 Z " fill="#1D252C" transform="translate(31,50)"/>
<path d="M0,0 L1,2 L4,2 L3,5 L0,4 Z " fill="#252D36" transform="translate(29,34)"/>
<path d="M0,0 L4,1 L4,3 L0,3 Z " fill="#050714" transform="translate(11,79)"/>
<path d="M0,0 L2,0 L2,4 L-1,4 Z " fill="#616770" transform="translate(34,60)"/>
<path d="M0,0 L4,1 L-1,3 Z " fill="#43484E" transform="translate(37,58)"/>
<path d="M0,0 L3,1 L-1,4 L-2,1 Z " fill="#111D19" transform="translate(10,14)"/>
<path d="M0,0 L4,0 L4,3 L1,3 Z " fill="#273331" transform="translate(18,6)"/>
<path d="M0,0 L3,0 L3,3 L0,3 Z " fill="#222429" transform="translate(69,81)"/>
<path d="M0,0 L3,0 L3,3 L0,3 Z " fill="#0F1420" transform="translate(8,79)"/>
<path d="M0,0 L2,0 L3,3 L-1,3 Z " fill="#3E434C" transform="translate(38,75)"/>
<path d="M0,0 L2,0 L2,3 L-2,2 Z " fill="#0D121A" transform="translate(10,64)"/>
<path d="M0,0 L2,0 L3,3 L-1,3 Z " fill="#4A5057" transform="translate(15,49)"/>
<path d="M0,0 L4,0 L4,3 L0,1 Z " fill="#3C434E" transform="translate(4,41)"/>
<path d="M0,0 L4,1 L3,3 L0,2 Z " fill="#141E1F" transform="translate(33,15)"/>
<path d="M0,0 L3,0 L3,3 L0,3 Z " fill="#131515" transform="translate(73,1)"/>
<path d="M0,0 L2,0 L2,3 L-1,3 Z " fill="#31343C" transform="translate(123,78)"/>
<path d="M0,0 L3,0 L2,3 L0,3 Z " fill="#3E434C" transform="translate(54,79)"/>
<path d="M0,0 L2,0 L2,3 L-1,3 Z " fill="#515A63" transform="translate(22,65)"/>
<path d="M0,0 L3,0 L3,3 L0,2 Z " fill="#5A626A" transform="translate(25,50)"/>
<path d="M0,0 L2,0 L2,3 L-1,3 Z " fill="#444C55" transform="translate(25,30)"/>
<path d="M0,0 L3,0 L2,3 L0,3 Z " fill="#0C1714" transform="translate(19,27)"/>
<path d="M0,0 L3,0 L2,3 L0,3 Z " fill="#5D6768" transform="translate(20,13)"/>
</svg>
