<?xml version="1.0" encoding="UTF-8"?>
<!-- Generator: visioncortex VTracer 0.6.5 -->
<svg version="1.1" xmlns="http://www.w3.org/2000/svg" width="150" height="85">
<path d="M0,0 L150,0 L150,85 L0,85 Z " fill="#616976" transform="translate(0,0)"/>
<path d="M0,0 L66,0 L66,56 L56,56 L55,59 L41,60 L-21,60 L-24,57 L-24,55 L-30,54 L-35,58 L-42,58 L-42,56 L-44,56 L-45,44 L-46,44 L-47,36 L-61,33 L-60,30 L-55,26 L-54,24 L-42,22 L-39,21 L-37,18 L-34,18 L-33,13 L-32,12 L-23,11 L-22,2 L-14,2 L-14,5 L-11,5 L-10,9 L4,9 L4,7 L-4,8 L-5,3 Z " fill="#1B202E" transform="translate(84,0)"/>
<path d="M0,0 L15,0 L18,2 L18,7 L25,9 L26,11 L26,20 L21,26 L16,29 L12,30 L11,33 L6,35 L5,38 L1,39 L-1,38 L-1,32 L3,26 L4,13 L5,9 L0,8 L-2,6 L-1,2 Z " fill="#4F5261" transform="translate(102,11)"/>
<path d="M0,0 L37,0 L33,3 L34,7 L41,7 L41,9 L27,9 L26,5 L23,5 L23,2 L15,2 L15,11 L14,12 L5,13 L3,18 L0,19 L-2,22 L-11,24 L-17,24 L-19,28 L-24,33 L-17,34 L-10,35 L-10,36 L-22,37 L-22,34 L-24,34 L-24,40 L-19,40 L-19,42 L-27,42 L-27,40 L-29,40 L-30,34 L-29,26 L-28,25 L-21,25 L-21,22 L-18,20 L-16,13 L-14,11 L-7,10 L-7,15 L1,15 L1,13 L4,11 L12,10 L13,3 L3,4 L2,8 L-5,7 L-6,3 L-4,1 Z " fill="#4B515F" transform="translate(47,0)"/>
<path d="M0,0 L6,2 L6,4 L9,5 L9,7 L17,6 L76,6 L73,8 L68,9 L29,10 L26,18 L22,18 L22,16 L18,14 L8,10 L6,9 L6,6 L0,5 L-4,9 L-11,9 L-12,6 L-14,6 L-14,4 L-17,4 L-17,2 L-20,1 L-15,1 L-12,3 L-12,5 L-3,4 L-2,1 Z " fill="#434856" transform="translate(54,53)"/>
<path d="M0,0 L10,0 L9,5 L7,5 L7,8 L31,8 L39,9 L39,7 L62,7 L80,6 L79,9 L65,10 L3,10 L0,7 L0,5 L-6,4 L-11,8 L-18,8 L-18,6 L-20,6 L-19,3 L-17,3 L-17,6 L-11,1 L0,2 Z " fill="#2E3341" transform="translate(60,50)"/>
<path d="M0,0 L6,0 L3,4 L6,5 L7,9 L5,11 L0,13 L3,15 L3,21 L-6,19 L-6,13 L-10,13 L-12,8 L-15,7 L-17,9 L-21,9 L-22,14 L-31,15 L-34,17 L-33,13 L-32,12 L-23,11 L-22,2 L-14,2 L-14,5 L-11,5 L-10,9 L4,9 L4,7 L-4,8 L-5,3 Z " fill="#2D3442" transform="translate(84,0)"/>
<path d="M0,0 L3,0 L2,5 L-1,4 L-16,3 L-17,9 L-15,11 L-11,12 L-12,29 L-16,35 L-17,41 L-11,41 L-10,37 L-5,35 L-4,33 L1,30 L3,29 L1,33 L-3,38 L-6,40 L-8,44 L-14,45 L-18,43 L-18,34 L-16,29 L-16,12 L-18,12 L-20,9 L-20,3 L-18,3 L-18,1 Z " fill="#2F3342" transform="translate(118,8)"/>
<path d="M0,0 L7,0 L7,7 L6,8 L-2,9 L-5,10 L-5,12 L-13,12 L-11,6 L-4,6 L-2,1 Z " fill="#656D7A" transform="translate(53,3)"/>
<path d="M0,0 L7,0 L2,5 L-7,7 L-13,7 L-15,11 L-20,16 L-13,17 L-6,18 L-6,19 L-18,20 L-18,17 L-23,16 L-23,10 L-16,9 L-16,6 L-5,5 L-5,3 L0,2 Z " fill="#323745" transform="translate(43,17)"/>
<path d="M0,0 L2,1 L-1,4 L2,5 L3,9 L1,10 L1,6 L-4,6 L-4,4 L-7,3 Z M-14,10 L1,10 L-3,12 L-4,14 L-1,15 L-1,21 L-10,19 L-10,13 L-14,13 Z " fill="#232836" transform="translate(88,0)"/>
<path d="M0,0 L6,2 L6,4 L9,5 L13,11 L6,9 L6,6 L0,5 L-4,9 L-11,9 L-12,6 L-14,6 L-14,4 L-17,4 L-17,2 L-20,1 L-15,1 L-12,3 L-12,5 L-3,4 L-2,1 Z " fill="#505865" transform="translate(54,53)"/>
<path d="M0,0 L14,0 L10,3 L11,7 L18,7 L18,9 L4,9 L3,5 L0,5 Z " fill="#4A505E" transform="translate(70,0)"/>
<path d="M0,0 L2,1 L1,4 L-6,5 L-6,11 L-3,12 L-3,18 L2,18 L2,20 L-6,20 L-6,18 L-8,18 L-9,12 L-8,4 L-7,3 L0,3 Z " fill="#515965" transform="translate(26,22)"/>
<path d="M0,0 L8,0 L9,1 L9,7 L3,7 L0,5 L-6,6 L-8,8 L-8,3 L0,3 Z " fill="#6E7583" transform="translate(31,0)"/>
<path d="M0,0 L1,2 L3,3 L-2,8 L-10,8 L-10,1 Z " fill="#48505D" transform="translate(10,54)"/>
<path d="M0,0 L11,0 L10,2 L4,4 L2,8 L-5,7 L-6,3 L-4,1 Z " fill="#3D4351" transform="translate(47,0)"/>
<path d="M0,0 L10,0 L10,7 L6,8 L2,6 L2,4 L0,4 Z " fill="#757A89" transform="translate(140,56)"/>
<path d="M0,0 L8,0 L4,2 L3,7 L10,7 L12,4 L11,9 L9,10 L3,10 L1,13 L1,10 L-6,11 L-5,8 L1,7 Z " fill="#545D69" transform="translate(39,0)"/>
<path d="M0,0 L3,0 L4,10 L1,12 L-4,7 L-3,3 L0,2 Z " fill="#4A4E5D" transform="translate(135,64)"/>
<path d="M0,0 L4,1 L0,4 L0,6 L5,6 L5,10 L-11,10 L-14,7 L-14,5 L-11,5 L-10,9 L4,9 L4,7 L-4,8 L-5,3 Z " fill="#363C4A" transform="translate(84,0)"/>
<path d="M0,0 L6,0 L9,3 L3,4 L0,7 L-7,7 L-7,5 L-9,5 L-8,2 L-6,2 L-6,5 Z " fill="#3D4451" transform="translate(49,51)"/>
<path d="M0,0 L15,0 L18,3 L2,1 L3,6 L5,6 L5,9 L0,8 L-2,6 L-1,2 Z " fill="#444856" transform="translate(102,11)"/>
<path d="M0,0 L5,0 L2,9 L-2,9 L-2,7 L-6,5 L-11,3 L-9,2 L-3,4 L-1,5 Z " fill="#535B68" transform="translate(78,62)"/>
<path d="M0,0 L12,0 L12,2 L4,2 L4,11 L2,12 L2,3 L-7,4 L-6,2 Z " fill="#424957" transform="translate(58,0)"/>
<path d="M0,0 L7,0 L6,3 L-15,4 L-15,2 Z " fill="#404453" transform="translate(133,56)"/>
<path d="M0,0 L2,0 L1,4 L0,6 L-9,7 L-9,1 Z " fill="#49515E" transform="translate(9,34)"/>
<path d="M0,0 L7,2 L8,4 L8,13 L3,19 L1,19 L3,15 L5,13 L6,5 L3,5 L3,3 L0,3 Z " fill="#3A414E" transform="translate(120,18)"/>
<path d="M0,0 L1,2 L7,3 L9,4 L7,8 L2,9 L0,4 L-1,2 Z " fill="#2C3441" transform="translate(59,34)"/>
<path d="M0,0 L26,1 L26,2 L-6,4 L-2,1 Z " fill="#2B2F3E" transform="translate(124,54)"/>
<path d="M0,0 L0,3 L-2,5 L-5,5 L-6,8 L-13,14 L-18,14 L-17,12 L-13,12 L-12,8 L-7,6 L-6,4 L-1,1 Z " fill="#3C404E" transform="translate(120,37)"/>
<path d="M0,0 L6,0 L9,2 L8,5 L7,2 L-3,2 L-3,4 L-12,3 L-11,1 Z " fill="#242B39" transform="translate(63,48)"/>
<path d="M0,0 L7,0 L7,5 L4,6 L0,5 Z " fill="#717986" transform="translate(52,4)"/>
<path d="M0,0 L5,0 L6,2 L9,4 L7,7 L-2,6 L-2,5 L3,5 L3,1 Z " fill="#2B313F" transform="translate(82,35)"/>
<path d="M0,0 L5,1 L4,6 L-2,5 L-2,1 Z " fill="#9097A5" transform="translate(34,1)"/>
<path d="M0,0 L3,1 L3,7 L8,7 L8,9 L0,9 Z " fill="#434B58" transform="translate(20,33)"/>
<path d="M0,0 L5,1 L3,6 L-3,6 L-3,3 L-1,3 Z " fill="#3E4452" transform="translate(34,12)"/>
<path d="M0,0 Z M-3,1 L0,2 L-3,5 L4,6 L11,7 L11,8 L-1,9 L-1,6 L-4,6 Z " fill="#2B3240" transform="translate(26,28)"/>
<path d="M0,0 L3,1 L1,1 L0,4 L-17,3 L-17,2 Z " fill="#595E6D" transform="translate(127,60)"/>
<path d="M0,0 L1,2 L3,3 L1,3 L0,13 L-1,13 L-1,6 L-3,5 L-1,2 L-9,2 L-9,1 Z " fill="#5A5E6D" transform="translate(139,58)"/>
<path d="M0,0 L2,0 L2,2 L5,3 L9,9 L2,7 L2,4 L0,4 Z " fill="#48505D" transform="translate(58,55)"/>
<path d="M0,0 L1,0 L1,5 L-4,7 L-5,10 L-7,10 L-7,4 L0,3 Z " fill="#383E4C" transform="translate(27,23)"/>
<path d="M0,0 L2,0 L0,4 L-3,6 L-5,10 L-9,11 L-8,8 L-6,8 L-4,4 Z " fill="#282C3B" transform="translate(115,42)"/>
<path d="M0,0 L5,0 L2,5 L-3,6 L-1,5 Z " fill="#4D5462" transform="translate(78,62)"/>
<path d="M0,0 L6,0 L7,5 L0,3 Z " fill="#303443" transform="translate(80,16)"/>
<path d="M0,0 L3,0 L3,6 L1,3 L-3,8 L-4,4 L0,2 Z " fill="#515563" transform="translate(135,64)"/>
<path d="M0,0 L6,0 L2,1 L1,4 L-4,8 L-3,2 L0,2 Z " fill="#6E7682" transform="translate(32,7)"/>
<path d="M0,0 L2,3 L7,4 L7,6 L-2,7 Z " fill="#515866" transform="translate(30,15)"/>
<path d="M0,0 L8,0 L6,1 L6,3 L0,4 Z " fill="#5C6572" transform="translate(70,0)"/>
<path d="M0,0 L1,0 L1,7 L3,7 L3,9 L-1,7 L-2,3 Z " fill="#3D414F" transform="translate(102,11)"/>
<path d="M0,0 L3,0 L2,4 L-3,3 L-4,5 L-6,5 L-4,1 Z " fill="#4D5461" transform="translate(37,10)"/>
<path d="M0,0 L4,1 L-3,7 L-2,3 Z " fill="#121624" transform="translate(117,42)"/>
<path d="M0,0 L7,1 L7,3 L0,3 Z " fill="#434B58" transform="translate(61,37)"/>
<path d="M0,0 L7,0 L7,2 L0,3 Z " fill="#1B2330" transform="translate(63,3)"/>
<path d="M0,0 L6,0 L2,2 L-1,5 L-4,4 Z " fill="#313846" transform="translate(49,51)"/>
<path d="M0,0 L3,0 L3,3 L-4,3 L-4,1 Z " fill="#383B4A" transform="translate(122,57)"/>
<path d="M0,0 L6,0 L6,1 L1,1 L0,6 L-2,6 Z " fill="#626977" transform="translate(42,9)"/>
<path d="M0,0 L8,0 L8,2 L4,3 L0,1 Z " fill="#7F8493" transform="translate(142,61)"/>
<path d="M0,0 L2,3 L1,7 L-1,7 L-2,3 Z " fill="#4A535F" transform="translate(19,33)"/>
<path d="M0,0 L8,0 L8,1 L1,1 L-1,5 L-2,2 Z " fill="#383E4C" transform="translate(52,12)"/>
<path d="M0,0 L7,0 L4,3 L-1,2 Z " fill="#2E3140" transform="translate(77,10)"/>
<path d="M0,0 L2,1 L-1,4 L-5,3 L-4,1 Z " fill="#5F6774" transform="translate(38,7)"/>
<path d="M0,0 L5,0 L5,3 L0,3 Z " fill="#2E3442" transform="translate(43,3)"/>
<path d="M0,0 L5,0 L5,3 L0,3 Z " fill="#868E9B" transform="translate(53,4)"/>
<path d="M0,0 L4,2 L-1,4 L-3,5 L-2,1 Z " fill="#49515E" transform="translate(54,53)"/>
<path d="M0,0 L8,0 L4,2 L1,4 Z " fill="#5A626F" transform="translate(39,0)"/>
<path d="M0,0 L2,1 L-2,6 L-4,6 L-2,2 Z " fill="#2F3342" transform="translate(125,31)"/>
<path d="M0,0 L3,0 L3,3 L0,4 Z " fill="#515965" transform="translate(0,77)"/>
<path d="M0,0 L4,0 L3,3 L0,2 Z " fill="#404351" transform="translate(81,17)"/>
<path d="M0,0 L2,1 L2,3 L-3,2 Z " fill="#3F4553" transform="translate(70,62)"/>
<path d="M0,0 L3,1 L3,3 L0,3 Z " fill="#3C404E" transform="translate(120,18)"/>
<path d="M0,0 L1,4 L-2,3 Z " fill="#323644" transform="translate(119,9)"/>
</svg>
