<?xml version="1.0" encoding="UTF-8"?>
<svg xmlns="http://www.w3.org/2000/svg" viewBox="0 0 320 320" width="240" height="240">
  <style>rect{shape-rendering:crispEdges}</style>
  <g fill="#000000">
    <rect x="0" y="0" width="230" height="10"/>
    <rect x="0" y="10" width="220" height="10"/>
    <rect x="310" y="10" width="10" height="10"/>
    <rect x="0" y="20" width="210" height="10"/>
    <rect x="310" y="20" width="10" height="10"/>
    <rect x="0" y="30" width="200" height="10"/>
    <rect x="280" y="30" width="10" height="10"/>
    <rect x="310" y="30" width="10" height="10"/>
    <rect x="0" y="40" width="190" height="10"/>
    <rect x="280" y="40" width="40" height="10"/>
    <rect x="0" y="50" width="180" height="10"/>
    <rect x="280" y="50" width="20" height="10"/>
    <rect x="0" y="60" width="170" height="10"/>
    <rect x="280" y="60" width="10" height="10"/>
    <rect x="0" y="70" width="160" height="10"/>
    <rect x="270" y="70" width="10" height="10"/>
    <rect x="0" y="80" width="150" height="10"/>
    <rect x="250" y="80" width="20" height="10"/>
    <rect x="0" y="90" width="140" height="10"/>
    <rect x="240" y="90" width="20" height="10"/>
    <rect x="0" y="100" width="130" height="10"/>
    <rect x="240" y="100" width="20" height="10"/>
    <rect x="0" y="110" width="120" height="10"/>
    <rect x="230" y="110" width="10" height="10"/>
    <rect x="0" y="120" width="110" height="10"/>
    <rect x="210" y="120" width="20" height="10"/>
    <rect x="0" y="130" width="110" height="10"/>
    <rect x="190" y="130" width="30" height="10"/>
    <rect x="0" y="140" width="110" height="10"/>
    <rect x="200" y="140" width="10" height="10"/>
    <rect x="0" y="150" width="110" height="10"/>
    <rect x="310" y="150" width="10" height="10"/>
    <rect x="0" y="160" width="110" height="10"/>
    <rect x="290" y="160" width="30" height="10"/>
    <rect x="0" y="170" width="110" height="10"/>
    <rect x="170" y="170" width="10" height="10"/>
    <rect x="280" y="170" width="40" height="10"/>
    <rect x="0" y="180" width="110" height="10"/>
    <rect x="280" y="180" width="40" height="10"/>
    <rect x="0" y="190" width="40" height="10"/>
    <rect x="270" y="190" width="50" height="10"/>
    <rect x="0" y="200" width="30" height="10"/>
    <rect x="240" y="200" width="80" height="10"/>
    <rect x="0" y="210" width="20" height="10"/>
    <rect x="200" y="210" width="120" height="10"/>
    <rect x="0" y="220" width="10" height="10"/>
    <rect x="200" y="220" width="120" height="10"/>
    <rect x="50" y="230" width="30" height="10"/>
    <rect x="120" y="230" width="10" height="10"/>
    <rect x="160" y="230" width="160" height="10"/>
    <rect x="40" y="240" width="30" height="10"/>
    <rect x="120" y="240" width="10" height="10"/>
    <rect x="160" y="240" width="160" height="10"/>
    <rect x="30" y="250" width="30" height="10"/>
    <rect x="170" y="250" width="150" height="10"/>
    <rect x="30" y="260" width="20" height="10"/>
    <rect x="190" y="260" width="130" height="10"/>
    <rect x="30" y="270" width="10" height="10"/>
    <rect x="90" y="270" width="10" height="10"/>
    <rect x="190" y="270" width="130" height="10"/>
    <rect x="80" y="280" width="20" height="10"/>
    <rect x="130" y="280" width="20" height="10"/>
    <rect x="190" y="280" width="130" height="10"/>
    <rect x="70" y="290" width="30" height="10"/>
    <rect x="130" y="290" width="10" height="10"/>
    <rect x="190" y="290" width="130" height="10"/>
    <rect x="70" y="300" width="30" height="10"/>
    <rect x="190" y="300" width="130" height="10"/>
    <rect x="0" y="310" width="10" height="10"/>
    <rect x="50" y="310" width="60" height="10"/>
    <rect x="170" y="310" width="150" height="10"/>
  </g>
  <g fill="#070b0b">
    <rect x="230" y="0" width="10" height="10"/>
    <rect x="200" y="30" width="10" height="10"/>
    <rect x="190" y="40" width="10" height="10"/>
    <rect x="160" y="70" width="10" height="10"/>
    <rect x="150" y="80" width="10" height="10"/>
    <rect x="120" y="110" width="10" height="10"/>
    <rect x="110" y="120" width="10" height="10"/>
    <rect x="110" y="130" width="10" height="10"/>
    <rect x="110" y="140" width="10" height="10"/>
    <rect x="110" y="150" width="10" height="10"/>
    <rect x="110" y="160" width="10" height="10"/>
    <rect x="110" y="170" width="10" height="10"/>
    <rect x="110" y="180" width="10" height="10"/>
    <rect x="160" y="190" width="10" height="10"/>
    <rect x="150" y="280" width="10" height="10"/>
  </g>
  <g fill="#834d32">
    <rect x="240" y="0" width="20" height="10"/>
    <rect x="310" y="130" width="10" height="10"/>
    <rect x="280" y="160" width="10" height="10"/>
    <rect x="160" y="250" width="10" height="10"/>
  </g>
  <g fill="#596060">
    <rect x="260" y="0" width="10" height="10"/>
    <rect x="220" y="20" width="10" height="10"/>
    <rect x="270" y="60" width="10" height="10"/>
    <rect x="260" y="70" width="10" height="10"/>
    <rect x="230" y="100" width="10" height="10"/>
    <rect x="220" y="110" width="10" height="10"/>
    <rect x="240" y="180" width="10" height="10"/>
    <rect x="150" y="220" width="10" height="10"/>
    <rect x="140" y="240" width="10" height="10"/>
  </g>
  <g fill="#2e7a83">
    <rect x="270" y="0" width="20" height="10"/>
    <rect x="200" y="40" width="10" height="10"/>
    <rect x="190" y="50" width="10" height="10"/>
    <rect x="170" y="70" width="10" height="10"/>
    <rect x="310" y="70" width="10" height="10"/>
    <rect x="160" y="80" width="10" height="10"/>
    <rect x="310" y="80" width="10" height="10"/>
    <rect x="150" y="90" width="10" height="10"/>
    <rect x="310" y="90" width="10" height="10"/>
    <rect x="310" y="100" width="10" height="10"/>
    <rect x="130" y="110" width="10" height="10"/>
    <rect x="310" y="110" width="10" height="10"/>
    <rect x="120" y="120" width="10" height="10"/>
    <rect x="310" y="120" width="10" height="10"/>
    <rect x="120" y="130" width="10" height="10"/>
    <rect x="120" y="140" width="10" height="10"/>
    <rect x="120" y="150" width="10" height="10"/>
    <rect x="120" y="160" width="10" height="10"/>
    <rect x="120" y="170" width="10" height="10"/>
    <rect x="130" y="200" width="10" height="10"/>
    <rect x="200" y="200" width="30" height="10"/>
    <rect x="150" y="210" width="40" height="10"/>
  </g>
  <rect fill="#2c7780" x="290" y="0" width="10" height="10"/>
  <g fill="#8ccbd3">
    <rect x="300" y="0" width="10" height="10"/>
    <rect x="260" y="120" width="10" height="10"/>
    <rect x="190" y="150" width="10" height="10"/>
  </g>
  <g fill="#c6f9ff">
    <rect x="310" y="0" width="10" height="10"/>
    <rect x="290" y="10" width="10" height="10"/>
    <rect x="290" y="20" width="10" height="10"/>
    <rect x="310" y="50" width="10" height="10"/>
    <rect x="240" y="80" width="10" height="10"/>
    <rect x="280" y="80" width="10" height="10"/>
    <rect x="200" y="120" width="10" height="10"/>
    <rect x="240" y="120" width="20" height="10"/>
    <rect x="170" y="130" width="10" height="10"/>
    <rect x="170" y="140" width="10" height="10"/>
    <rect x="170" y="150" width="10" height="10"/>
    <rect x="170" y="160" width="10" height="10"/>
    <rect x="200" y="160" width="10" height="10"/>
  </g>
  <g fill="#4e3021">
    <rect x="220" y="10" width="10" height="10"/>
    <rect x="210" y="20" width="10" height="10"/>
    <rect x="300" y="140" width="10" height="10"/>
    <rect x="260" y="180" width="10" height="10"/>
  </g>
  <g fill="#885339">
    <rect x="230" y="10" width="10" height="10"/>
    <rect x="210" y="30" width="10" height="10"/>
    <rect x="300" y="130" width="10" height="10"/>
    <rect x="290" y="140" width="10" height="10"/>
    <rect x="260" y="170" width="10" height="10"/>
    <rect x="250" y="180" width="10" height="10"/>
  </g>
  <g fill="#b68771">
    <rect x="240" y="10" width="10" height="10"/>
    <rect x="210" y="40" width="10" height="10"/>
    <rect x="280" y="130" width="10" height="10"/>
    <rect x="160" y="150" width="10" height="10"/>
    <rect x="270" y="150" width="10" height="10"/>
    <rect x="160" y="160" width="10" height="10"/>
    <rect x="250" y="160" width="10" height="10"/>
    <rect x="150" y="170" width="10" height="10"/>
    <rect x="130" y="210" width="10" height="10"/>
    <rect x="130" y="220" width="10" height="10"/>
    <rect x="130" y="230" width="10" height="10"/>
  </g>
  <g fill="#36919d">
    <rect x="250" y="10" width="20" height="10"/>
    <rect x="250" y="20" width="10" height="10"/>
    <rect x="230" y="30" width="20" height="10"/>
    <rect x="230" y="40" width="20" height="10"/>
    <rect x="200" y="50" width="30" height="10"/>
    <rect x="200" y="60" width="20" height="10"/>
    <rect x="190" y="70" width="20" height="10"/>
    <rect x="170" y="80" width="40" height="10"/>
    <rect x="160" y="90" width="30" height="10"/>
    <rect x="160" y="100" width="10" height="10"/>
    <rect x="150" y="110" width="10" height="10"/>
    <rect x="290" y="110" width="10" height="10"/>
    <rect x="130" y="120" width="20" height="10"/>
    <rect x="290" y="120" width="10" height="10"/>
    <rect x="130" y="130" width="10" height="10"/>
    <rect x="130" y="140" width="10" height="10"/>
    <rect x="240" y="160" width="10" height="10"/>
    <rect x="230" y="170" width="20" height="10"/>
    <rect x="210" y="190" width="20" height="10"/>
    <rect x="150" y="200" width="20" height="10"/>
  </g>
  <g fill="#39939f">
    <rect x="270" y="10" width="10" height="10"/>
    <rect x="250" y="30" width="10" height="10"/>
    <rect x="230" y="50" width="10" height="10"/>
    <rect x="210" y="70" width="10" height="10"/>
    <rect x="190" y="90" width="10" height="10"/>
    <rect x="160" y="110" width="10" height="10"/>
    <rect x="150" y="120" width="10" height="10"/>
    <rect x="130" y="150" width="10" height="10"/>
  </g>
  <g fill="#52a3ae">
    <rect x="280" y="10" width="10" height="10"/>
    <rect x="260" y="30" width="10" height="10"/>
    <rect x="250" y="40" width="10" height="10"/>
    <rect x="240" y="50" width="20" height="10"/>
    <rect x="240" y="60" width="10" height="10"/>
    <rect x="230" y="70" width="10" height="10"/>
    <rect x="210" y="80" width="20" height="10"/>
    <rect x="290" y="80" width="10" height="10"/>
    <rect x="200" y="90" width="20" height="10"/>
    <rect x="280" y="90" width="20" height="10"/>
    <rect x="200" y="100" width="10" height="10"/>
    <rect x="280" y="100" width="10" height="10"/>
    <rect x="170" y="110" width="10" height="10"/>
    <rect x="280" y="110" width="10" height="10"/>
    <rect x="160" y="120" width="20" height="10"/>
    <rect x="270" y="120" width="20" height="10"/>
    <rect x="150" y="130" width="20" height="10"/>
    <rect x="240" y="130" width="20" height="10"/>
    <rect x="240" y="140" width="10" height="10"/>
    <rect x="230" y="150" width="20" height="10"/>
    <rect x="130" y="160" width="20" height="10"/>
    <rect x="210" y="160" width="30" height="10"/>
    <rect x="130" y="170" width="10" height="10"/>
    <rect x="200" y="170" width="20" height="10"/>
    <rect x="200" y="180" width="10" height="10"/>
    <rect x="190" y="190" width="10" height="10"/>
    <rect x="170" y="200" width="20" height="10"/>
  </g>
  <g fill="#546d6e">
    <rect x="300" y="10" width="10" height="10"/>
    <rect x="230" y="20" width="10" height="10"/>
    <rect x="220" y="30" width="10" height="10"/>
    <rect x="300" y="30" width="10" height="10"/>
    <rect x="180" y="130" width="10" height="10"/>
    <rect x="180" y="160" width="10" height="10"/>
    <rect x="140" y="210" width="10" height="10"/>
    <rect x="160" y="260" width="10" height="10"/>
  </g>
  <g fill="#719093">
    <rect x="240" y="20" width="10" height="10"/>
    <rect x="220" y="40" width="10" height="10"/>
    <rect x="300" y="50" width="10" height="10"/>
    <rect x="260" y="60" width="10" height="10"/>
    <rect x="290" y="60" width="10" height="10"/>
    <rect x="260" y="90" width="10" height="10"/>
    <rect x="220" y="100" width="10" height="10"/>
    <rect x="260" y="100" width="10" height="10"/>
    <rect x="260" y="110" width="10" height="10"/>
    <rect x="220" y="130" width="10" height="10"/>
    <rect x="190" y="140" width="10" height="10"/>
    <rect x="210" y="140" width="10" height="10"/>
    <rect x="260" y="140" width="10" height="10"/>
    <rect x="180" y="170" width="10" height="10"/>
    <rect x="170" y="180" width="10" height="10"/>
  </g>
  <g fill="#469ba6">
    <rect x="260" y="20" width="10" height="10"/>
    <rect x="220" y="60" width="20" height="10"/>
    <rect x="220" y="70" width="10" height="10"/>
    <rect x="170" y="100" width="30" height="10"/>
    <rect x="290" y="100" width="10" height="10"/>
    <rect x="140" y="130" width="10" height="10"/>
    <rect x="260" y="130" width="10" height="10"/>
    <rect x="140" y="140" width="10" height="10"/>
    <rect x="250" y="140" width="10" height="10"/>
    <rect x="140" y="150" width="10" height="10"/>
    <rect x="220" y="170" width="10" height="10"/>
    <rect x="210" y="180" width="10" height="10"/>
  </g>
  <g fill="#488f97">
    <rect x="270" y="20" width="10" height="10"/>
    <rect x="190" y="110" width="10" height="10"/>
    <rect x="270" y="130" width="10" height="10"/>
    <rect x="250" y="150" width="10" height="10"/>
    <rect x="130" y="180" width="10" height="10"/>
  </g>
  <g fill="#1f484e">
    <rect x="280" y="20" width="10" height="10"/>
    <rect x="180" y="50" width="10" height="10"/>
    <rect x="170" y="60" width="10" height="10"/>
    <rect x="140" y="90" width="10" height="10"/>
    <rect x="130" y="100" width="10" height="10"/>
    <rect x="180" y="120" width="10" height="10"/>
  </g>
  <rect fill="#637d80" x="300" y="20" width="10" height="10"/>
  <g fill="#5299a2">
    <rect x="270" y="30" width="10" height="10"/>
    <rect x="180" y="110" width="10" height="10"/>
    <rect x="200" y="190" width="10" height="10"/>
    <rect x="190" y="200" width="10" height="10"/>
  </g>
  <g fill="#aedce2">
    <rect x="290" y="30" width="10" height="10"/>
    <rect x="270" y="40" width="10" height="10"/>
    <rect x="270" y="50" width="10" height="10"/>
    <rect x="250" y="70" width="10" height="10"/>
    <rect x="230" y="90" width="10" height="10"/>
    <rect x="210" y="110" width="10" height="10"/>
    <rect x="270" y="110" width="10" height="10"/>
  </g>
  <g fill="#a3d3da">
    <rect x="260" y="40" width="10" height="10"/>
    <rect x="260" y="50" width="10" height="10"/>
    <rect x="250" y="60" width="10" height="10"/>
    <rect x="220" y="90" width="10" height="10"/>
    <rect x="210" y="100" width="10" height="10"/>
  </g>
  <g fill="#2c6e76">
    <rect x="180" y="60" width="10" height="10"/>
    <rect x="140" y="100" width="10" height="10"/>
    <rect x="130" y="190" width="10" height="10"/>
    <rect x="230" y="200" width="10" height="10"/>
    <rect x="190" y="210" width="10" height="10"/>
  </g>
  <g fill="#378a95">
    <rect x="190" y="60" width="10" height="10"/>
    <rect x="180" y="70" width="10" height="10"/>
    <rect x="300" y="80" width="10" height="10"/>
    <rect x="300" y="90" width="10" height="10"/>
    <rect x="150" y="100" width="10" height="10"/>
    <rect x="140" y="110" width="10" height="10"/>
    <rect x="230" y="180" width="10" height="10"/>
    <rect x="230" y="190" width="10" height="10"/>
  </g>
  <g fill="#6dacb4">
    <rect x="300" y="60" width="20" height="10"/>
    <rect x="300" y="70" width="10" height="10"/>
    <rect x="220" y="140" width="10" height="10"/>
    <rect x="180" y="180" width="10" height="10"/>
  </g>
  <g fill="#57a7b2">
    <rect x="240" y="70" width="10" height="10"/>
    <rect x="230" y="80" width="10" height="10"/>
    <rect x="200" y="110" width="10" height="10"/>
  </g>
  <g fill="#141a1a">
    <rect x="280" y="70" width="10" height="10"/>
    <rect x="270" y="80" width="10" height="10"/>
    <rect x="240" y="110" width="20" height="10"/>
    <rect x="190" y="120" width="10" height="10"/>
    <rect x="230" y="120" width="10" height="10"/>
    <rect x="200" y="150" width="10" height="10"/>
    <rect x="190" y="160" width="10" height="10"/>
  </g>
  <g fill="#b6edf4">
    <rect x="290" y="70" width="10" height="10"/>
    <rect x="270" y="90" width="10" height="10"/>
    <rect x="270" y="100" width="10" height="10"/>
    <rect x="230" y="130" width="10" height="10"/>
    <rect x="180" y="150" width="10" height="10"/>
    <rect x="210" y="150" width="10" height="10"/>
    <rect x="190" y="170" width="10" height="10"/>
    <rect x="170" y="190" width="10" height="10"/>
  </g>
  <g fill="#32838d">
    <rect x="300" y="100" width="10" height="10"/>
    <rect x="300" y="110" width="10" height="10"/>
    <rect x="300" y="120" width="10" height="10"/>
    <rect x="140" y="200" width="10" height="10"/>
  </g>
  <g fill="#a26e55">
    <rect x="290" y="130" width="10" height="10"/>
    <rect x="280" y="140" width="10" height="10"/>
    <rect x="280" y="150" width="10" height="10"/>
    <rect x="260" y="160" width="20" height="10"/>
    <rect x="250" y="170" width="10" height="10"/>
  </g>
  <g fill="#5da0a8">
    <rect x="150" y="140" width="10" height="10"/>
    <rect x="150" y="150" width="10" height="10"/>
    <rect x="150" y="160" width="10" height="10"/>
  </g>
  <g fill="#9a9c93">
    <rect x="160" y="140" width="10" height="10"/>
    <rect x="140" y="170" width="10" height="10"/>
    <rect x="140" y="180" width="10" height="10"/>
    <rect x="140" y="190" width="10" height="10"/>
  </g>
  <rect fill="#94bbc0" x="180" y="140" width="10" height="10"/>
  <g fill="#7bc1cb">
    <rect x="230" y="140" width="10" height="10"/>
    <rect x="220" y="150" width="10" height="10"/>
    <rect x="190" y="180" width="10" height="10"/>
    <rect x="180" y="190" width="10" height="10"/>
  </g>
  <g fill="#88897f">
    <rect x="270" y="140" width="10" height="10"/>
    <rect x="260" y="150" width="10" height="10"/>
  </g>
  <g fill="#30251f">
    <rect x="310" y="140" width="10" height="10"/>
    <rect x="300" y="150" width="10" height="10"/>
    <rect x="270" y="180" width="10" height="10"/>
    <rect x="260" y="190" width="10" height="10"/>
  </g>
  <g fill="#744730">
    <rect x="290" y="150" width="10" height="10"/>
    <rect x="270" y="170" width="10" height="10"/>
    <rect x="160" y="180" width="10" height="10"/>
    <rect x="240" y="190" width="20" height="10"/>
    <rect x="150" y="230" width="10" height="10"/>
    <rect x="150" y="240" width="10" height="10"/>
  </g>
  <g fill="#dcae98">
    <rect x="160" y="170" width="10" height="10"/>
    <rect x="150" y="180" width="10" height="10"/>
    <rect x="150" y="190" width="10" height="10"/>
  </g>
  <g fill="#0f2836">
    <rect x="120" y="180" width="10" height="10"/>
    <rect x="160" y="220" width="40" height="10"/>
    <rect x="170" y="260" width="10" height="10"/>
    <rect x="100" y="300" width="10" height="10"/>
  </g>
  <rect fill="#3b94a0" x="220" y="180" width="10" height="10"/>
  <g fill="#060d14">
    <rect x="40" y="190" width="90" height="10"/>
    <rect x="30" y="200" width="10" height="10"/>
    <rect x="0" y="230" width="10" height="10"/>
    <rect x="80" y="230" width="10" height="10"/>
    <rect x="70" y="240" width="10" height="10"/>
    <rect x="110" y="250" width="10" height="10"/>
    <rect x="180" y="260" width="10" height="10"/>
    <rect x="40" y="270" width="10" height="10"/>
    <rect x="150" y="270" width="10" height="10"/>
    <rect x="30" y="280" width="10" height="10"/>
    <rect x="60" y="300" width="10" height="10"/>
    <rect x="180" y="300" width="10" height="10"/>
    <rect x="110" y="310" width="10" height="10"/>
  </g>
  <g fill="#4983c6">
    <rect x="40" y="200" width="60" height="10"/>
    <rect x="0" y="240" width="10" height="10"/>
    <rect x="80" y="240" width="10" height="10"/>
    <rect x="0" y="250" width="10" height="10"/>
    <rect x="120" y="250" width="10" height="10"/>
    <rect x="0" y="260" width="10" height="10"/>
    <rect x="0" y="270" width="10" height="10"/>
    <rect x="0" y="280" width="10" height="10"/>
    <rect x="40" y="280" width="10" height="10"/>
    <rect x="0" y="290" width="10" height="10"/>
  </g>
  <g fill="#3773ac">
    <rect x="100" y="200" width="10" height="10"/>
    <rect x="30" y="220" width="10" height="10"/>
    <rect x="20" y="230" width="10" height="10"/>
    <rect x="70" y="260" width="10" height="10"/>
    <rect x="120" y="260" width="10" height="10"/>
    <rect x="60" y="270" width="10" height="10"/>
    <rect x="150" y="300" width="10" height="10"/>
  </g>
  <g fill="#2a699b">
    <rect x="110" y="200" width="20" height="10"/>
    <rect x="40" y="210" width="10" height="10"/>
    <rect x="90" y="210" width="20" height="10"/>
    <rect x="90" y="220" width="10" height="10"/>
    <rect x="90" y="230" width="10" height="10"/>
    <rect x="10" y="240" width="10" height="10"/>
    <rect x="90" y="240" width="10" height="10"/>
    <rect x="130" y="240" width="10" height="10"/>
    <rect x="80" y="250" width="10" height="10"/>
    <rect x="130" y="250" width="20" height="10"/>
    <rect x="160" y="270" width="10" height="10"/>
    <rect x="50" y="280" width="10" height="10"/>
    <rect x="160" y="280" width="10" height="10"/>
    <rect x="10" y="290" width="40" height="10"/>
    <rect x="160" y="290" width="10" height="10"/>
    <rect x="120" y="310" width="30" height="10"/>
  </g>
  <g fill="#294f71">
    <rect x="20" y="210" width="10" height="10"/>
    <rect x="10" y="220" width="10" height="10"/>
    <rect x="60" y="250" width="10" height="10"/>
    <rect x="50" y="260" width="10" height="10"/>
    <rect x="110" y="260" width="10" height="10"/>
    <rect x="100" y="270" width="10" height="10"/>
    <rect x="100" y="280" width="10" height="10"/>
    <rect x="100" y="290" width="10" height="10"/>
    <rect x="140" y="290" width="10" height="10"/>
  </g>
  <g fill="#4178b5">
    <rect x="30" y="210" width="10" height="10"/>
    <rect x="10" y="230" width="10" height="10"/>
    <rect x="70" y="250" width="10" height="10"/>
    <rect x="50" y="270" width="10" height="10"/>
    <rect x="110" y="270" width="10" height="10"/>
    <rect x="110" y="280" width="10" height="10"/>
    <rect x="110" y="290" width="10" height="10"/>
    <rect x="150" y="290" width="10" height="10"/>
  </g>
  <g fill="#0a3962">
    <rect x="50" y="210" width="40" height="10"/>
    <rect x="120" y="210" width="10" height="10"/>
    <rect x="10" y="250" width="10" height="10"/>
    <rect x="90" y="250" width="10" height="10"/>
    <rect x="10" y="260" width="10" height="10"/>
    <rect x="10" y="270" width="10" height="10"/>
    <rect x="170" y="270" width="10" height="10"/>
    <rect x="10" y="280" width="10" height="10"/>
    <rect x="120" y="280" width="10" height="10"/>
    <rect x="170" y="280" width="10" height="10"/>
    <rect x="50" y="290" width="10" height="10"/>
    <rect x="120" y="290" width="10" height="10"/>
    <rect x="170" y="290" width="10" height="10"/>
    <rect x="10" y="310" width="40" height="10"/>
    <rect x="160" y="310" width="10" height="10"/>
  </g>
  <g fill="#2a6398">
    <rect x="110" y="210" width="10" height="10"/>
    <rect x="20" y="220" width="10" height="10"/>
    <rect x="60" y="260" width="10" height="10"/>
    <rect x="120" y="270" width="10" height="10"/>
    <rect x="150" y="310" width="10" height="10"/>
  </g>
  <g fill="#174c78">
    <rect x="40" y="220" width="10" height="10"/>
    <rect x="110" y="220" width="10" height="10"/>
    <rect x="100" y="230" width="10" height="10"/>
    <rect x="20" y="240" width="10" height="10"/>
    <rect x="100" y="240" width="10" height="10"/>
    <rect x="80" y="260" width="10" height="10"/>
    <rect x="130" y="260" width="10" height="10"/>
    <rect x="60" y="280" width="10" height="10"/>
    <rect x="10" y="300" width="40" height="10"/>
    <rect x="160" y="300" width="10" height="10"/>
  </g>
  <g fill="#051929">
    <rect x="50" y="220" width="40" height="10"/>
    <rect x="120" y="220" width="10" height="10"/>
    <rect x="20" y="250" width="10" height="10"/>
    <rect x="100" y="250" width="10" height="10"/>
    <rect x="20" y="260" width="10" height="10"/>
    <rect x="90" y="260" width="10" height="10"/>
    <rect x="20" y="270" width="10" height="10"/>
    <rect x="140" y="270" width="10" height="10"/>
    <rect x="180" y="270" width="10" height="10"/>
    <rect x="20" y="280" width="10" height="10"/>
    <rect x="180" y="280" width="10" height="10"/>
    <rect x="60" y="290" width="10" height="10"/>
    <rect x="180" y="290" width="10" height="10"/>
    <rect x="50" y="300" width="10" height="10"/>
    <rect x="170" y="300" width="10" height="10"/>
  </g>
  <g fill="#1c5583">
    <rect x="100" y="220" width="10" height="10"/>
    <rect x="120" y="300" width="10" height="10"/>
  </g>
  <g fill="#986851">
    <rect x="140" y="220" width="10" height="10"/>
    <rect x="140" y="230" width="10" height="10"/>
  </g>
  <g fill="#245c89">
    <rect x="30" y="230" width="10" height="10"/>
    <rect x="70" y="270" width="10" height="10"/>
    <rect x="140" y="300" width="10" height="10"/>
  </g>
  <g fill="#133653">
    <rect x="40" y="230" width="10" height="10"/>
    <rect x="110" y="230" width="10" height="10"/>
    <rect x="30" y="240" width="10" height="10"/>
    <rect x="110" y="240" width="10" height="10"/>
    <rect x="100" y="260" width="10" height="10"/>
    <rect x="140" y="260" width="20" height="10"/>
    <rect x="80" y="270" width="10" height="10"/>
    <rect x="130" y="270" width="10" height="10"/>
    <rect x="70" y="280" width="10" height="10"/>
    <rect x="0" y="300" width="10" height="10"/>
  </g>
  <rect fill="#336d8f" x="150" y="250" width="10" height="10"/>
  <rect fill="#213d5d" x="110" y="300" width="10" height="10"/>
  <rect fill="#1b3f62" x="130" y="300" width="10" height="10"/>
</svg>
