<?xml version="1.0" encoding="UTF-8"?>
<svg xmlns="http://www.w3.org/2000/svg" viewBox="0 0 320 320" width="300" height="300">
  <style>rect{shape-rendering:crispEdges}</style>
  <g fill="#010413">
    <rect x="0" y="0" width="20" height="10"/>
    <rect x="40" y="0" width="10" height="10"/>
    <rect x="270" y="0" width="30" height="10"/>
    <rect x="0" y="10" width="30" height="10"/>
    <rect x="280" y="10" width="10" height="10"/>
    <rect x="0" y="20" width="40" height="10"/>
    <rect x="260" y="20" width="30" height="10"/>
    <rect x="0" y="30" width="40" height="10"/>
    <rect x="270" y="30" width="20" height="10"/>
    <rect x="300" y="30" width="10" height="10"/>
    <rect x="0" y="40" width="20" height="10"/>
    <rect x="0" y="50" width="20" height="10"/>
    <rect x="0" y="60" width="20" height="10"/>
  </g>
  <g fill="#020513">
    <rect x="20" y="0" width="20" height="10"/>
    <rect x="50" y="0" width="30" height="10"/>
    <rect x="100" y="0" width="20" height="10"/>
    <rect x="220" y="0" width="10" height="10"/>
    <rect x="240" y="0" width="20" height="10"/>
    <rect x="300" y="0" width="10" height="10"/>
    <rect x="30" y="10" width="30" height="10"/>
    <rect x="240" y="10" width="20" height="10"/>
    <rect x="270" y="10" width="10" height="10"/>
    <rect x="40" y="20" width="30" height="10"/>
    <rect x="290" y="20" width="30" height="10"/>
    <rect x="40" y="30" width="20" height="10"/>
    <rect x="260" y="30" width="10" height="10"/>
    <rect x="290" y="30" width="10" height="10"/>
    <rect x="310" y="30" width="10" height="10"/>
    <rect x="20" y="40" width="30" height="10"/>
    <rect x="270" y="40" width="50" height="10"/>
    <rect x="20" y="50" width="10" height="10"/>
    <rect x="280" y="50" width="40" height="10"/>
    <rect x="20" y="60" width="10" height="10"/>
    <rect x="280" y="60" width="40" height="10"/>
    <rect x="300" y="70" width="20" height="10"/>
  </g>
  <g fill="#040613">
    <rect x="80" y="0" width="20" height="10"/>
    <rect x="120" y="0" width="20" height="10"/>
    <rect x="170" y="0" width="10" height="10"/>
    <rect x="190" y="0" width="30" height="10"/>
    <rect x="230" y="0" width="10" height="10"/>
    <rect x="260" y="0" width="10" height="10"/>
    <rect x="60" y="10" width="30" height="10"/>
    <rect x="220" y="10" width="20" height="10"/>
    <rect x="260" y="10" width="10" height="10"/>
    <rect x="290" y="10" width="30" height="10"/>
    <rect x="70" y="20" width="20" height="10"/>
    <rect x="230" y="20" width="30" height="10"/>
    <rect x="60" y="30" width="20" height="10"/>
    <rect x="220" y="30" width="40" height="10"/>
    <rect x="50" y="40" width="10" height="10"/>
    <rect x="250" y="40" width="10" height="10"/>
    <rect x="30" y="50" width="20" height="10"/>
    <rect x="270" y="50" width="10" height="10"/>
  </g>
  <g fill="#060913">
    <rect x="140" y="0" width="30" height="10"/>
    <rect x="90" y="10" width="20" height="10"/>
    <rect x="190" y="10" width="10" height="10"/>
    <rect x="210" y="10" width="10" height="10"/>
    <rect x="220" y="20" width="10" height="10"/>
    <rect x="80" y="30" width="10" height="10"/>
    <rect x="210" y="30" width="10" height="10"/>
    <rect x="70" y="40" width="10" height="10"/>
    <rect x="170" y="40" width="10" height="10"/>
    <rect x="220" y="40" width="10" height="10"/>
    <rect x="70" y="170" width="10" height="10"/>
    <rect x="260" y="200" width="10" height="10"/>
    <rect x="120" y="230" width="10" height="10"/>
  </g>
  <g fill="#040816">
    <rect x="180" y="0" width="10" height="10"/>
    <rect x="90" y="20" width="10" height="10"/>
    <rect x="90" y="30" width="10" height="10"/>
    <rect x="60" y="40" width="10" height="10"/>
    <rect x="230" y="40" width="20" height="10"/>
    <rect x="260" y="40" width="10" height="10"/>
    <rect x="50" y="50" width="10" height="10"/>
    <rect x="250" y="50" width="20" height="10"/>
    <rect x="30" y="60" width="30" height="10"/>
    <rect x="260" y="60" width="20" height="10"/>
    <rect x="0" y="70" width="40" height="10"/>
    <rect x="270" y="70" width="30" height="10"/>
    <rect x="0" y="80" width="10" height="10"/>
    <rect x="290" y="80" width="30" height="10"/>
  </g>
  <g fill="#01040c">
    <rect x="310" y="0" width="10" height="10"/>
    <rect x="170" y="180" width="10" height="10"/>
    <rect x="140" y="190" width="10" height="10"/>
    <rect x="140" y="280" width="10" height="10"/>
    <rect x="140" y="290" width="10" height="10"/>
  </g>
  <g fill="#080a16">
    <rect x="110" y="10" width="30" height="10"/>
    <rect x="180" y="10" width="10" height="10"/>
    <rect x="200" y="10" width="10" height="10"/>
    <rect x="100" y="20" width="30" height="10"/>
    <rect x="190" y="20" width="10" height="10"/>
    <rect x="210" y="20" width="10" height="10"/>
    <rect x="80" y="40" width="10" height="10"/>
    <rect x="210" y="40" width="10" height="10"/>
    <rect x="60" y="50" width="20" height="10"/>
    <rect x="210" y="50" width="40" height="10"/>
    <rect x="130" y="180" width="10" height="10"/>
    <rect x="20" y="190" width="10" height="10"/>
    <rect x="20" y="210" width="10" height="10"/>
    <rect x="290" y="210" width="10" height="10"/>
  </g>
  <g fill="#0a0d16">
    <rect x="140" y="10" width="10" height="10"/>
    <rect x="200" y="20" width="10" height="10"/>
    <rect x="100" y="30" width="10" height="10"/>
    <rect x="110" y="70" width="10" height="10"/>
    <rect x="60" y="100" width="10" height="10"/>
    <rect x="240" y="130" width="20" height="10"/>
    <rect x="130" y="150" width="10" height="10"/>
    <rect x="130" y="170" width="10" height="10"/>
    <rect x="0" y="190" width="20" height="10"/>
    <rect x="40" y="190" width="10" height="10"/>
    <rect x="280" y="190" width="30" height="10"/>
    <rect x="0" y="200" width="20" height="10"/>
    <rect x="130" y="200" width="10" height="10"/>
    <rect x="180" y="200" width="10" height="10"/>
    <rect x="300" y="200" width="10" height="10"/>
    <rect x="0" y="210" width="10" height="10"/>
    <rect x="40" y="210" width="10" height="10"/>
    <rect x="300" y="210" width="10" height="10"/>
    <rect x="10" y="220" width="10" height="10"/>
    <rect x="310" y="220" width="10" height="10"/>
  </g>
  <g fill="#1e2030">
    <rect x="150" y="10" width="20" height="10"/>
    <rect x="150" y="50" width="10" height="10"/>
    <rect x="130" y="60" width="20" height="10"/>
    <rect x="160" y="60" width="20" height="10"/>
    <rect x="140" y="70" width="10" height="10"/>
    <rect x="220" y="90" width="20" height="10"/>
    <rect x="220" y="100" width="10" height="10"/>
    <rect x="60" y="160" width="10" height="10"/>
    <rect x="60" y="170" width="10" height="10"/>
    <rect x="80" y="170" width="10" height="10"/>
    <rect x="230" y="170" width="10" height="10"/>
    <rect x="70" y="180" width="20" height="10"/>
    <rect x="230" y="180" width="10" height="10"/>
    <rect x="70" y="190" width="30" height="10"/>
    <rect x="210" y="190" width="30" height="10"/>
    <rect x="80" y="200" width="10" height="10"/>
    <rect x="160" y="200" width="10" height="10"/>
    <rect x="220" y="200" width="10" height="10"/>
    <rect x="80" y="210" width="10" height="10"/>
    <rect x="150" y="210" width="20" height="10"/>
    <rect x="220" y="210" width="10" height="10"/>
  </g>
  <g fill="#170d10">
    <rect x="170" y="10" width="10" height="10"/>
    <rect x="60" y="120" width="10" height="10"/>
    <rect x="50" y="140" width="10" height="10"/>
    <rect x="140" y="170" width="10" height="10"/>
    <rect x="140" y="180" width="10" height="10"/>
  </g>
  <g fill="#0d111c">
    <rect x="130" y="20" width="10" height="10"/>
    <rect x="120" y="30" width="20" height="10"/>
    <rect x="200" y="50" width="10" height="10"/>
    <rect x="80" y="60" width="40" height="10"/>
    <rect x="200" y="60" width="10" height="10"/>
    <rect x="60" y="70" width="50" height="10"/>
    <rect x="210" y="70" width="20" height="10"/>
    <rect x="240" y="70" width="10" height="10"/>
    <rect x="40" y="80" width="20" height="10"/>
    <rect x="70" y="80" width="10" height="10"/>
    <rect x="140" y="80" width="10" height="10"/>
    <rect x="170" y="80" width="10" height="10"/>
    <rect x="230" y="80" width="10" height="10"/>
    <rect x="260" y="80" width="10" height="10"/>
    <rect x="140" y="90" width="10" height="10"/>
    <rect x="210" y="90" width="10" height="10"/>
    <rect x="140" y="120" width="10" height="10"/>
    <rect x="120" y="130" width="10" height="10"/>
    <rect x="120" y="140" width="10" height="10"/>
    <rect x="70" y="160" width="10" height="10"/>
    <rect x="20" y="200" width="10" height="10"/>
    <rect x="40" y="200" width="10" height="10"/>
    <rect x="290" y="200" width="10" height="10"/>
    <rect x="30" y="210" width="10" height="10"/>
    <rect x="140" y="210" width="10" height="10"/>
    <rect x="270" y="210" width="10" height="10"/>
    <rect x="310" y="210" width="10" height="10"/>
    <rect x="120" y="220" width="10" height="10"/>
    <rect x="280" y="220" width="10" height="10"/>
    <rect x="290" y="230" width="10" height="10"/>
  </g>
  <g fill="#473634">
    <rect x="140" y="20" width="30" height="10"/>
    <rect x="140" y="30" width="30" height="10"/>
    <rect x="140" y="40" width="20" height="10"/>
    <rect x="140" y="50" width="10" height="10"/>
    <rect x="150" y="70" width="20" height="10"/>
    <rect x="70" y="90" width="20" height="10"/>
    <rect x="150" y="90" width="20" height="10"/>
    <rect x="70" y="100" width="10" height="10"/>
    <rect x="70" y="110" width="20" height="10"/>
    <rect x="70" y="130" width="10" height="10"/>
    <rect x="70" y="140" width="20" height="10"/>
    <rect x="70" y="150" width="10" height="10"/>
    <rect x="130" y="220" width="20" height="10"/>
    <rect x="170" y="220" width="20" height="10"/>
    <rect x="80" y="230" width="20" height="10"/>
    <rect x="130" y="230" width="20" height="10"/>
    <rect x="180" y="230" width="10" height="10"/>
  </g>
  <g fill="#2b1616">
    <rect x="170" y="20" width="10" height="10"/>
    <rect x="150" y="110" width="10" height="10"/>
    <rect x="70" y="120" width="20" height="10"/>
    <rect x="150" y="120" width="10" height="10"/>
    <rect x="180" y="120" width="10" height="10"/>
    <rect x="200" y="120" width="10" height="10"/>
    <rect x="60" y="130" width="10" height="10"/>
    <rect x="80" y="130" width="10" height="10"/>
    <rect x="150" y="130" width="10" height="10"/>
    <rect x="180" y="130" width="20" height="10"/>
    <rect x="60" y="140" width="10" height="10"/>
    <rect x="150" y="140" width="20" height="10"/>
    <rect x="180" y="140" width="30" height="10"/>
    <rect x="50" y="150" width="20" height="10"/>
    <rect x="80" y="150" width="10" height="10"/>
    <rect x="150" y="150" width="20" height="10"/>
    <rect x="50" y="160" width="10" height="10"/>
    <rect x="150" y="160" width="20" height="10"/>
    <rect x="150" y="170" width="10" height="10"/>
    <rect x="100" y="230" width="10" height="10"/>
    <rect x="80" y="240" width="30" height="10"/>
  </g>
  <g fill="#0b1116">
    <rect x="180" y="20" width="10" height="10"/>
    <rect x="100" y="80" width="20" height="10"/>
    <rect x="150" y="80" width="20" height="10"/>
    <rect x="90" y="90" width="10" height="10"/>
    <rect x="110" y="90" width="10" height="10"/>
    <rect x="170" y="90" width="10" height="10"/>
    <rect x="190" y="90" width="10" height="10"/>
    <rect x="190" y="100" width="10" height="10"/>
    <rect x="130" y="110" width="10" height="10"/>
    <rect x="180" y="110" width="10" height="10"/>
    <rect x="200" y="110" width="10" height="10"/>
    <rect x="190" y="120" width="10" height="10"/>
    <rect x="220" y="120" width="10" height="10"/>
    <rect x="140" y="130" width="10" height="10"/>
    <rect x="200" y="130" width="10" height="10"/>
    <rect x="140" y="140" width="10" height="10"/>
    <rect x="220" y="140" width="10" height="10"/>
    <rect x="140" y="150" width="10" height="10"/>
    <rect x="170" y="150" width="10" height="10"/>
    <rect x="130" y="160" width="10" height="10"/>
    <rect x="240" y="160" width="10" height="10"/>
    <rect x="30" y="200" width="10" height="10"/>
    <rect x="90" y="210" width="10" height="10"/>
    <rect x="40" y="220" width="10" height="10"/>
    <rect x="290" y="220" width="20" height="10"/>
    <rect x="30" y="270" width="10" height="10"/>
    <rect x="40" y="280" width="10" height="10"/>
    <rect x="310" y="300" width="10" height="10"/>
    <rect x="280" y="310" width="10" height="10"/>
  </g>
  <g fill="#090d17">
    <rect x="110" y="30" width="10" height="10"/>
    <rect x="190" y="30" width="20" height="10"/>
    <rect x="100" y="40" width="20" height="10"/>
    <rect x="200" y="40" width="10" height="10"/>
    <rect x="80" y="50" width="40" height="10"/>
    <rect x="70" y="60" width="10" height="10"/>
    <rect x="210" y="60" width="10" height="10"/>
    <rect x="170" y="70" width="10" height="10"/>
    <rect x="200" y="70" width="10" height="10"/>
    <rect x="230" y="70" width="10" height="10"/>
    <rect x="180" y="150" width="10" height="10"/>
    <rect x="30" y="190" width="10" height="10"/>
    <rect x="270" y="190" width="10" height="10"/>
    <rect x="270" y="200" width="10" height="10"/>
    <rect x="310" y="200" width="10" height="10"/>
    <rect x="10" y="210" width="10" height="10"/>
  </g>
  <g fill="#020702">
    <rect x="170" y="30" width="10" height="10"/>
    <rect x="190" y="40" width="10" height="10"/>
    <rect x="120" y="60" width="10" height="10"/>
    <rect x="190" y="60" width="10" height="10"/>
    <rect x="130" y="90" width="10" height="10"/>
    <rect x="240" y="90" width="10" height="10"/>
    <rect x="130" y="100" width="10" height="10"/>
    <rect x="190" y="110" width="10" height="10"/>
    <rect x="130" y="120" width="10" height="10"/>
    <rect x="170" y="120" width="10" height="10"/>
    <rect x="250" y="120" width="10" height="10"/>
    <rect x="50" y="130" width="10" height="10"/>
    <rect x="90" y="140" width="10" height="10"/>
    <rect x="240" y="140" width="10" height="10"/>
    <rect x="250" y="150" width="10" height="10"/>
    <rect x="260" y="160" width="10" height="10"/>
    <rect x="90" y="170" width="10" height="10"/>
    <rect x="150" y="190" width="20" height="10"/>
    <rect x="250" y="190" width="10" height="10"/>
    <rect x="50" y="270" width="10" height="10"/>
  </g>
  <g fill="#16151c">
    <rect x="180" y="30" width="10" height="10"/>
    <rect x="150" y="60" width="10" height="10"/>
    <rect x="220" y="110" width="10" height="10"/>
    <rect x="230" y="130" width="10" height="10"/>
    <rect x="230" y="140" width="10" height="10"/>
    <rect x="230" y="150" width="10" height="10"/>
    <rect x="240" y="170" width="20" height="10"/>
    <rect x="220" y="180" width="10" height="10"/>
    <rect x="240" y="200" width="10" height="10"/>
    <rect x="170" y="210" width="10" height="10"/>
    <rect x="150" y="220" width="20" height="10"/>
    <rect x="0" y="230" width="30" height="10"/>
    <rect x="40" y="230" width="10" height="10"/>
    <rect x="60" y="230" width="20" height="10"/>
    <rect x="110" y="230" width="10" height="10"/>
    <rect x="150" y="230" width="20" height="10"/>
    <rect x="200" y="230" width="50" height="10"/>
    <rect x="260" y="230" width="10" height="10"/>
    <rect x="0" y="240" width="60" height="10"/>
    <rect x="150" y="240" width="20" height="10"/>
    <rect x="200" y="240" width="10" height="10"/>
    <rect x="270" y="240" width="50" height="10"/>
    <rect x="30" y="250" width="30" height="10"/>
    <rect x="160" y="250" width="10" height="10"/>
    <rect x="210" y="250" width="30" height="10"/>
    <rect x="260" y="250" width="10" height="10"/>
    <rect x="280" y="250" width="40" height="10"/>
    <rect x="60" y="260" width="10" height="10"/>
    <rect x="100" y="260" width="10" height="10"/>
    <rect x="120" y="260" width="60" height="10"/>
    <rect x="190" y="260" width="10" height="10"/>
    <rect x="230" y="260" width="40" height="10"/>
    <rect x="130" y="270" width="10" height="10"/>
    <rect x="150" y="270" width="30" height="10"/>
    <rect x="150" y="280" width="10" height="10"/>
    <rect x="60" y="290" width="10" height="10"/>
    <rect x="90" y="290" width="10" height="10"/>
    <rect x="110" y="290" width="10" height="10"/>
    <rect x="200" y="290" width="30" height="10"/>
    <rect x="90" y="300" width="10" height="10"/>
    <rect x="110" y="300" width="10" height="10"/>
    <rect x="220" y="300" width="10" height="10"/>
    <rect x="250" y="310" width="10" height="10"/>
  </g>
  <g fill="#070c17">
    <rect x="90" y="40" width="10" height="10"/>
    <rect x="60" y="60" width="10" height="10"/>
    <rect x="220" y="60" width="40" height="10"/>
    <rect x="40" y="70" width="20" height="10"/>
    <rect x="250" y="70" width="20" height="10"/>
    <rect x="10" y="80" width="30" height="10"/>
    <rect x="270" y="80" width="20" height="10"/>
    <rect x="0" y="90" width="20" height="10"/>
    <rect x="290" y="90" width="30" height="10"/>
    <rect x="170" y="170" width="10" height="10"/>
    <rect x="310" y="190" width="10" height="10"/>
  </g>
  <g fill="#10151d">
    <rect x="120" y="40" width="20" height="10"/>
    <rect x="180" y="40" width="10" height="10"/>
    <rect x="120" y="50" width="10" height="10"/>
    <rect x="180" y="50" width="20" height="10"/>
    <rect x="180" y="60" width="10" height="10"/>
    <rect x="90" y="100" width="10" height="10"/>
    <rect x="240" y="100" width="10" height="10"/>
    <rect x="90" y="110" width="10" height="10"/>
    <rect x="240" y="110" width="10" height="10"/>
    <rect x="90" y="120" width="10" height="10"/>
    <rect x="230" y="120" width="10" height="10"/>
    <rect x="110" y="130" width="10" height="10"/>
    <rect x="130" y="130" width="10" height="10"/>
    <rect x="130" y="140" width="10" height="10"/>
    <rect x="250" y="160" width="10" height="10"/>
    <rect x="50" y="170" width="10" height="10"/>
    <rect x="70" y="200" width="10" height="10"/>
    <rect x="90" y="200" width="10" height="10"/>
    <rect x="70" y="210" width="10" height="10"/>
    <rect x="100" y="210" width="10" height="10"/>
    <rect x="120" y="210" width="10" height="10"/>
    <rect x="180" y="210" width="10" height="10"/>
    <rect x="30" y="230" width="10" height="10"/>
    <rect x="300" y="230" width="20" height="10"/>
    <rect x="10" y="250" width="10" height="10"/>
  </g>
  <g fill="#040908">
    <rect x="160" y="40" width="10" height="10"/>
    <rect x="130" y="50" width="10" height="10"/>
    <rect x="170" y="50" width="10" height="10"/>
    <rect x="130" y="70" width="10" height="10"/>
    <rect x="200" y="80" width="10" height="10"/>
    <rect x="140" y="100" width="10" height="10"/>
    <rect x="210" y="100" width="10" height="10"/>
    <rect x="140" y="110" width="10" height="10"/>
    <rect x="160" y="110" width="20" height="10"/>
    <rect x="230" y="110" width="10" height="10"/>
    <rect x="210" y="140" width="10" height="10"/>
    <rect x="90" y="150" width="10" height="10"/>
    <rect x="210" y="150" width="10" height="10"/>
    <rect x="140" y="160" width="10" height="10"/>
    <rect x="110" y="190" width="20" height="10"/>
    <rect x="170" y="190" width="40" height="10"/>
    <rect x="240" y="190" width="10" height="10"/>
    <rect x="260" y="190" width="10" height="10"/>
    <rect x="190" y="210" width="10" height="10"/>
    <rect x="190" y="230" width="10" height="10"/>
    <rect x="70" y="270" width="10" height="10"/>
    <rect x="120" y="270" width="10" height="10"/>
    <rect x="190" y="270" width="10" height="10"/>
    <rect x="50" y="280" width="10" height="10"/>
    <rect x="70" y="280" width="10" height="10"/>
    <rect x="120" y="280" width="10" height="10"/>
    <rect x="190" y="280" width="10" height="10"/>
    <rect x="50" y="290" width="10" height="10"/>
    <rect x="70" y="290" width="10" height="10"/>
    <rect x="170" y="290" width="10" height="10"/>
    <rect x="190" y="290" width="10" height="10"/>
    <rect x="50" y="300" width="10" height="10"/>
    <rect x="70" y="300" width="10" height="10"/>
    <rect x="50" y="310" width="10" height="10"/>
    <rect x="70" y="310" width="10" height="10"/>
  </g>
  <g fill="#070b0c">
    <rect x="160" y="50" width="10" height="10"/>
    <rect x="80" y="80" width="10" height="10"/>
    <rect x="180" y="90" width="10" height="10"/>
    <rect x="100" y="100" width="10" height="10"/>
    <rect x="150" y="100" width="20" height="10"/>
    <rect x="180" y="100" width="10" height="10"/>
    <rect x="120" y="110" width="10" height="10"/>
    <rect x="210" y="110" width="10" height="10"/>
    <rect x="160" y="120" width="10" height="10"/>
    <rect x="80" y="160" width="10" height="10"/>
    <rect x="100" y="170" width="10" height="10"/>
    <rect x="60" y="180" width="10" height="10"/>
    <rect x="90" y="180" width="20" height="10"/>
    <rect x="200" y="180" width="10" height="10"/>
    <rect x="50" y="190" width="20" height="10"/>
    <rect x="130" y="190" width="10" height="10"/>
    <rect x="60" y="200" width="10" height="10"/>
    <rect x="190" y="200" width="20" height="10"/>
    <rect x="230" y="200" width="10" height="10"/>
    <rect x="250" y="200" width="10" height="10"/>
    <rect x="200" y="210" width="10" height="10"/>
    <rect x="90" y="220" width="20" height="10"/>
    <rect x="210" y="220" width="40" height="10"/>
    <rect x="0" y="270" width="10" height="10"/>
    <rect x="80" y="270" width="10" height="10"/>
    <rect x="170" y="280" width="10" height="10"/>
    <rect x="80" y="290" width="10" height="10"/>
    <rect x="120" y="290" width="20" height="10"/>
    <rect x="160" y="290" width="10" height="10"/>
    <rect x="80" y="300" width="10" height="10"/>
    <rect x="170" y="300" width="20" height="10"/>
    <rect x="80" y="310" width="10" height="10"/>
  </g>
  <g fill="#080c0f">
    <rect x="120" y="70" width="10" height="10"/>
    <rect x="180" y="70" width="10" height="10"/>
    <rect x="190" y="80" width="10" height="10"/>
    <rect x="210" y="80" width="20" height="10"/>
    <rect x="90" y="130" width="10" height="10"/>
    <rect x="210" y="130" width="20" height="10"/>
    <rect x="100" y="140" width="10" height="10"/>
    <rect x="250" y="140" width="10" height="10"/>
    <rect x="100" y="150" width="10" height="10"/>
    <rect x="200" y="150" width="10" height="10"/>
    <rect x="240" y="150" width="10" height="10"/>
    <rect x="100" y="160" width="10" height="10"/>
    <rect x="200" y="160" width="10" height="10"/>
    <rect x="220" y="160" width="20" height="10"/>
    <rect x="110" y="170" width="20" height="10"/>
    <rect x="180" y="170" width="30" height="10"/>
    <rect x="260" y="170" width="10" height="10"/>
    <rect x="50" y="180" width="10" height="10"/>
    <rect x="110" y="180" width="20" height="10"/>
    <rect x="190" y="180" width="10" height="10"/>
    <rect x="210" y="180" width="10" height="10"/>
    <rect x="240" y="180" width="30" height="10"/>
    <rect x="50" y="200" width="10" height="10"/>
    <rect x="60" y="210" width="10" height="10"/>
    <rect x="210" y="210" width="10" height="10"/>
    <rect x="60" y="220" width="30" height="10"/>
    <rect x="200" y="220" width="10" height="10"/>
    <rect x="10" y="270" width="10" height="10"/>
    <rect x="240" y="270" width="10" height="10"/>
    <rect x="300" y="270" width="20" height="10"/>
    <rect x="80" y="280" width="10" height="10"/>
    <rect x="130" y="280" width="10" height="10"/>
    <rect x="180" y="280" width="10" height="10"/>
    <rect x="240" y="280" width="10" height="10"/>
    <rect x="20" y="290" width="10" height="10"/>
    <rect x="150" y="290" width="10" height="10"/>
    <rect x="180" y="290" width="10" height="10"/>
    <rect x="240" y="290" width="10" height="10"/>
    <rect x="300" y="290" width="10" height="10"/>
    <rect x="0" y="300" width="20" height="10"/>
    <rect x="130" y="300" width="20" height="10"/>
    <rect x="240" y="300" width="10" height="10"/>
    <rect x="0" y="310" width="10" height="10"/>
    <rect x="20" y="310" width="10" height="10"/>
    <rect x="130" y="310" width="30" height="10"/>
    <rect x="170" y="310" width="20" height="10"/>
    <rect x="240" y="310" width="10" height="10"/>
  </g>
  <g fill="#0b0f14">
    <rect x="190" y="70" width="10" height="10"/>
    <rect x="90" y="80" width="10" height="10"/>
    <rect x="120" y="80" width="20" height="10"/>
    <rect x="180" y="80" width="10" height="10"/>
    <rect x="200" y="90" width="10" height="10"/>
    <rect x="110" y="100" width="10" height="10"/>
    <rect x="200" y="100" width="10" height="10"/>
    <rect x="210" y="120" width="10" height="10"/>
    <rect x="110" y="150" width="20" height="10"/>
    <rect x="190" y="150" width="10" height="10"/>
    <rect x="220" y="150" width="10" height="10"/>
    <rect x="110" y="160" width="20" height="10"/>
    <rect x="170" y="160" width="30" height="10"/>
    <rect x="100" y="190" width="10" height="10"/>
    <rect x="110" y="200" width="10" height="10"/>
    <rect x="110" y="210" width="10" height="10"/>
    <rect x="230" y="210" width="30" height="10"/>
    <rect x="50" y="230" width="10" height="10"/>
    <rect x="20" y="270" width="10" height="10"/>
    <rect x="230" y="270" width="10" height="10"/>
    <rect x="270" y="270" width="30" height="10"/>
    <rect x="10" y="280" width="20" height="10"/>
    <rect x="30" y="290" width="10" height="10"/>
    <rect x="100" y="290" width="10" height="10"/>
    <rect x="270" y="290" width="10" height="10"/>
    <rect x="290" y="290" width="10" height="10"/>
    <rect x="310" y="290" width="10" height="10"/>
    <rect x="20" y="300" width="10" height="10"/>
    <rect x="270" y="300" width="40" height="10"/>
    <rect x="10" y="310" width="10" height="10"/>
    <rect x="160" y="310" width="10" height="10"/>
    <rect x="270" y="310" width="10" height="10"/>
    <rect x="290" y="310" width="30" height="10"/>
  </g>
  <g fill="#091024">
    <rect x="60" y="80" width="10" height="10"/>
    <rect x="240" y="80" width="20" height="10"/>
    <rect x="20" y="90" width="50" height="10"/>
    <rect x="250" y="90" width="40" height="10"/>
    <rect x="0" y="100" width="60" height="10"/>
    <rect x="260" y="100" width="60" height="10"/>
    <rect x="0" y="110" width="40" height="10"/>
    <rect x="270" y="110" width="50" height="10"/>
    <rect x="0" y="120" width="30" height="10"/>
    <rect x="280" y="120" width="40" height="10"/>
    <rect x="300" y="130" width="20" height="10"/>
    <rect x="310" y="140" width="10" height="10"/>
    <rect x="210" y="160" width="10" height="10"/>
    <rect x="130" y="210" width="10" height="10"/>
    <rect x="170" y="230" width="10" height="10"/>
  </g>
  <g fill="#0f1118">
    <rect x="100" y="90" width="10" height="10"/>
    <rect x="120" y="90" width="10" height="10"/>
    <rect x="120" y="100" width="10" height="10"/>
    <rect x="100" y="110" width="20" height="10"/>
    <rect x="100" y="120" width="30" height="10"/>
    <rect x="240" y="120" width="10" height="10"/>
    <rect x="100" y="130" width="10" height="10"/>
    <rect x="170" y="130" width="10" height="10"/>
    <rect x="110" y="140" width="10" height="10"/>
    <rect x="170" y="140" width="10" height="10"/>
    <rect x="220" y="170" width="10" height="10"/>
    <rect x="100" y="200" width="10" height="10"/>
    <rect x="170" y="200" width="10" height="10"/>
    <rect x="210" y="200" width="10" height="10"/>
    <rect x="280" y="200" width="10" height="10"/>
    <rect x="260" y="210" width="10" height="10"/>
    <rect x="0" y="220" width="10" height="10"/>
    <rect x="30" y="220" width="10" height="10"/>
    <rect x="260" y="220" width="20" height="10"/>
    <rect x="0" y="250" width="10" height="10"/>
    <rect x="270" y="260" width="30" height="10"/>
    <rect x="310" y="260" width="10" height="10"/>
    <rect x="40" y="270" width="10" height="10"/>
    <rect x="260" y="270" width="10" height="10"/>
    <rect x="280" y="280" width="10" height="10"/>
    <rect x="40" y="290" width="10" height="10"/>
    <rect x="40" y="300" width="10" height="10"/>
  </g>
  <g fill="#1f1213">
    <rect x="80" y="100" width="10" height="10"/>
    <rect x="170" y="100" width="10" height="10"/>
    <rect x="230" y="100" width="10" height="10"/>
    <rect x="60" y="110" width="10" height="10"/>
    <rect x="160" y="130" width="10" height="10"/>
    <rect x="160" y="170" width="10" height="10"/>
    <rect x="150" y="180" width="20" height="10"/>
  </g>
  <g fill="#0d1630">
    <rect x="250" y="100" width="10" height="10"/>
    <rect x="40" y="110" width="20" height="10"/>
    <rect x="250" y="110" width="20" height="10"/>
    <rect x="30" y="120" width="30" height="10"/>
    <rect x="260" y="120" width="20" height="10"/>
    <rect x="0" y="130" width="40" height="10"/>
    <rect x="260" y="130" width="40" height="10"/>
    <rect x="0" y="140" width="30" height="10"/>
    <rect x="270" y="140" width="40" height="10"/>
    <rect x="0" y="150" width="10" height="10"/>
    <rect x="290" y="150" width="30" height="10"/>
    <rect x="310" y="160" width="10" height="10"/>
  </g>
  <g fill="#0f1a35">
    <rect x="40" y="130" width="10" height="10"/>
    <rect x="30" y="140" width="20" height="10"/>
    <rect x="260" y="140" width="10" height="10"/>
    <rect x="10" y="150" width="40" height="10"/>
    <rect x="260" y="150" width="30" height="10"/>
    <rect x="0" y="160" width="50" height="10"/>
    <rect x="90" y="160" width="10" height="10"/>
    <rect x="270" y="160" width="40" height="10"/>
    <rect x="0" y="170" width="50" height="10"/>
    <rect x="210" y="170" width="10" height="10"/>
    <rect x="270" y="170" width="50" height="10"/>
    <rect x="0" y="180" width="50" height="10"/>
    <rect x="270" y="180" width="50" height="10"/>
  </g>
  <g fill="#0b0d15">
    <rect x="180" y="180" width="10" height="10"/>
    <rect x="120" y="200" width="10" height="10"/>
    <rect x="50" y="210" width="10" height="10"/>
    <rect x="280" y="210" width="10" height="10"/>
    <rect x="20" y="220" width="10" height="10"/>
    <rect x="290" y="280" width="30" height="10"/>
    <rect x="0" y="290" width="10" height="10"/>
    <rect x="280" y="290" width="10" height="10"/>
    <rect x="30" y="310" width="10" height="10"/>
    <rect x="190" y="310" width="10" height="10"/>
  </g>
  <g fill="#121118">
    <rect x="140" y="200" width="10" height="10"/>
    <rect x="50" y="220" width="10" height="10"/>
    <rect x="110" y="220" width="10" height="10"/>
    <rect x="190" y="220" width="10" height="10"/>
    <rect x="250" y="220" width="10" height="10"/>
    <rect x="270" y="230" width="20" height="10"/>
    <rect x="190" y="240" width="10" height="10"/>
    <rect x="20" y="250" width="10" height="10"/>
    <rect x="0" y="260" width="60" height="10"/>
    <rect x="70" y="260" width="30" height="10"/>
    <rect x="180" y="260" width="10" height="10"/>
    <rect x="210" y="260" width="20" height="10"/>
    <rect x="60" y="270" width="10" height="10"/>
    <rect x="90" y="270" width="30" height="10"/>
    <rect x="140" y="270" width="10" height="10"/>
    <rect x="180" y="270" width="10" height="10"/>
    <rect x="200" y="270" width="30" height="10"/>
    <rect x="110" y="280" width="10" height="10"/>
    <rect x="160" y="280" width="10" height="10"/>
    <rect x="200" y="280" width="30" height="10"/>
    <rect x="250" y="290" width="10" height="10"/>
    <rect x="100" y="300" width="10" height="10"/>
    <rect x="210" y="300" width="10" height="10"/>
    <rect x="250" y="300" width="10" height="10"/>
    <rect x="90" y="310" width="10" height="10"/>
    <rect x="200" y="310" width="10" height="10"/>
    <rect x="220" y="310" width="10" height="10"/>
  </g>
  <g fill="#251a1d">
    <rect x="150" y="200" width="10" height="10"/>
    <rect x="60" y="240" width="20" height="10"/>
    <rect x="110" y="240" width="40" height="10"/>
    <rect x="170" y="240" width="20" height="10"/>
    <rect x="210" y="240" width="50" height="10"/>
    <rect x="60" y="250" width="100" height="10"/>
    <rect x="170" y="250" width="40" height="10"/>
    <rect x="240" y="250" width="20" height="10"/>
    <rect x="270" y="250" width="10" height="10"/>
    <rect x="120" y="300" width="10" height="10"/>
    <rect x="150" y="300" width="20" height="10"/>
    <rect x="190" y="300" width="10" height="10"/>
  </g>
  <g fill="#100f14">
    <rect x="250" y="230" width="10" height="10"/>
    <rect x="260" y="240" width="10" height="10"/>
    <rect x="110" y="260" width="10" height="10"/>
    <rect x="200" y="260" width="10" height="10"/>
    <rect x="300" y="260" width="10" height="10"/>
    <rect x="250" y="270" width="10" height="10"/>
    <rect x="0" y="280" width="10" height="10"/>
    <rect x="30" y="280" width="10" height="10"/>
    <rect x="60" y="280" width="10" height="10"/>
    <rect x="90" y="280" width="20" height="10"/>
    <rect x="230" y="280" width="10" height="10"/>
    <rect x="250" y="280" width="30" height="10"/>
    <rect x="10" y="290" width="10" height="10"/>
    <rect x="230" y="290" width="10" height="10"/>
    <rect x="260" y="290" width="10" height="10"/>
    <rect x="30" y="300" width="10" height="10"/>
    <rect x="60" y="300" width="10" height="10"/>
    <rect x="200" y="300" width="10" height="10"/>
    <rect x="230" y="300" width="10" height="10"/>
    <rect x="260" y="300" width="10" height="10"/>
    <rect x="40" y="310" width="10" height="10"/>
    <rect x="60" y="310" width="10" height="10"/>
    <rect x="100" y="310" width="30" height="10"/>
    <rect x="210" y="310" width="10" height="10"/>
    <rect x="230" y="310" width="10" height="10"/>
    <rect x="260" y="310" width="10" height="10"/>
  </g>
</svg>
